<?xml version="1.0" encoding="UTF-8" standalone="no"?>
<!DOCTYPE svg PUBLIC "-//W3C//DTD SVG 1.1//EN"
 "http://www.w3.org/Graphics/SVG/1.1/DTD/svg11.dtd">
<!-- Generated by graphviz version 2.40.1 (20161225.0304)
 -->
<!-- Title: kryne&#45;engine/include/kryne&#45;engine/3DObjects/BaseObject.h Pages: 1 -->
<svg width="906pt" height="585pt"
 viewBox="0.00 0.00 905.61 585.00" xmlns="http://www.w3.org/2000/svg" xmlns:xlink="http://www.w3.org/1999/xlink">
<g id="graph0" class="graph" transform="scale(1 1) rotate(0) translate(4 581)">
<title>kryne&#45;engine/include/kryne&#45;engine/3DObjects/BaseObject.h</title>
<polygon fill="#ffffff" stroke="transparent" points="-4,4 -4,-581 901.6126,-581 901.6126,4 -4,4"/>
<!-- Node47 -->
<g id="node1" class="node">
<title>Node47</title>
<polygon fill="#bfbfbf" stroke="#000000" points="271.6126,-535.5 271.6126,-576.5 396.6126,-576.5 396.6126,-535.5 271.6126,-535.5"/>
<text text-anchor="start" x="279.6126" y="-564.5" font-family="Helvetica,sans-Serif" font-size="10.00" fill="#000000">kryne&#45;engine/include</text>
<text text-anchor="start" x="279.6126" y="-553.5" font-family="Helvetica,sans-Serif" font-size="10.00" fill="#000000">/kryne&#45;engine/3DObjects</text>
<text text-anchor="middle" x="334.1126" y="-542.5" font-family="Helvetica,sans-Serif" font-size="10.00" fill="#000000">/BaseObject.h</text>
</g>
<!-- Node48 -->
<g id="node2" class="node">
<title>Node48</title>
<g id="a_node2"><a xlink:href="3_d_objects_8h.html" target="_top" xlink:title="kryne&#45;engine/include\l/KEModules/3DObjects.h">
<polygon fill="#ffffff" stroke="#000000" points="83.1126,-385 83.1126,-415 211.1126,-415 211.1126,-385 83.1126,-385"/>
<text text-anchor="start" x="91.1126" y="-403" font-family="Helvetica,sans-Serif" font-size="10.00" fill="#000000">kryne&#45;engine/include</text>
<text text-anchor="middle" x="147.1126" y="-392" font-family="Helvetica,sans-Serif" font-size="10.00" fill="#000000">/KEModules/3DObjects.h</text>
</a>
</g>
</g>
<!-- Node47&#45;&gt;Node48 -->
<g id="edge1" class="edge">
<title>Node47&#45;&gt;Node48</title>
<path fill="none" stroke="#191970" d="M295.5124,-529.5152C282.4391,-520.1885 267.9137,-509.4258 255.1126,-499 220.5987,-470.8905 182.8033,-434.9492 162.3412,-415.0192"/>
<polygon fill="#191970" stroke="#191970" points="293.6754,-532.5028 303.8611,-535.4188 297.717,-526.7874 293.6754,-532.5028"/>
</g>
<!-- Node49 -->
<g id="node3" class="node">
<title>Node49</title>
<g id="a_node3"><a xlink:href="_hierarchical_node_8h.html" target="_top" xlink:title="kryne&#45;engine/include\l/kryne&#45;engine/3DObjects\l/HierarchicalNode.h">
<polygon fill="#ffffff" stroke="#000000" points="271.6126,-457.5 271.6126,-498.5 396.6126,-498.5 396.6126,-457.5 271.6126,-457.5"/>
<text text-anchor="start" x="279.6126" y="-486.5" font-family="Helvetica,sans-Serif" font-size="10.00" fill="#000000">kryne&#45;engine/include</text>
<text text-anchor="start" x="279.6126" y="-475.5" font-family="Helvetica,sans-Serif" font-size="10.00" fill="#000000">/kryne&#45;engine/3DObjects</text>
<text text-anchor="middle" x="334.1126" y="-464.5" font-family="Helvetica,sans-Serif" font-size="10.00" fill="#000000">/HierarchicalNode.h</text>
</a>
</g>
</g>
<!-- Node47&#45;&gt;Node49 -->
<g id="edge2" class="edge">
<title>Node47&#45;&gt;Node49</title>
<path fill="none" stroke="#191970" d="M334.1126,-525.0789C334.1126,-516.2178 334.1126,-506.7747 334.1126,-498.6898"/>
<polygon fill="#191970" stroke="#191970" points="330.6127,-525.0974 334.1126,-535.0974 337.6127,-525.0975 330.6127,-525.0974"/>
</g>
<!-- Node50 -->
<g id="node4" class="node">
<title>Node50</title>
<g id="a_node4"><a xlink:href="_old_render_pass_8h.html" target="_top" xlink:title="kryne&#45;engine/include\l/kryne&#45;engine/Rendering\l/OldRenderPass.h">
<polygon fill="#ffffff" stroke="#000000" points="229.1126,-379.5 229.1126,-420.5 351.1126,-420.5 351.1126,-379.5 229.1126,-379.5"/>
<text text-anchor="start" x="237.1126" y="-408.5" font-family="Helvetica,sans-Serif" font-size="10.00" fill="#000000">kryne&#45;engine/include</text>
<text text-anchor="start" x="237.1126" y="-397.5" font-family="Helvetica,sans-Serif" font-size="10.00" fill="#000000">/kryne&#45;engine/Rendering</text>
<text text-anchor="middle" x="290.1126" y="-386.5" font-family="Helvetica,sans-Serif" font-size="10.00" fill="#000000">/OldRenderPass.h</text>
</a>
</g>
</g>
<!-- Node47&#45;&gt;Node50 -->
<g id="edge27" class="edge">
<title>Node47&#45;&gt;Node50</title>
<path fill="none" stroke="#191970" d="M288.0907,-529.0149C278.0305,-520.7511 268.7218,-510.6963 263.1126,-499 250.8638,-473.459 264.2458,-441.4547 276.1453,-420.8684"/>
<polygon fill="#191970" stroke="#191970" points="286.1914,-531.9683 296.2635,-535.2554 290.4396,-526.4048 286.1914,-531.9683"/>
</g>
<!-- Node64 -->
<g id="node18" class="node">
<title>Node64</title>
<g id="a_node18"><a xlink:href="_model_loader_8h.html" target="_top" xlink:title="kryne&#45;engine/include\l/kryne&#45;engine/3DObjects\l/Model/ModelLoader.h">
<polygon fill="#ffffff" stroke="#000000" points="414.6126,-457.5 414.6126,-498.5 539.6126,-498.5 539.6126,-457.5 414.6126,-457.5"/>
<text text-anchor="start" x="422.6126" y="-486.5" font-family="Helvetica,sans-Serif" font-size="10.00" fill="#000000">kryne&#45;engine/include</text>
<text text-anchor="start" x="422.6126" y="-475.5" font-family="Helvetica,sans-Serif" font-size="10.00" fill="#000000">/kryne&#45;engine/3DObjects</text>
<text text-anchor="middle" x="477.1126" y="-464.5" font-family="Helvetica,sans-Serif" font-size="10.00" fill="#000000">/Model/ModelLoader.h</text>
</a>
</g>
</g>
<!-- Node47&#45;&gt;Node64 -->
<g id="edge25" class="edge">
<title>Node47&#45;&gt;Node64</title>
<path fill="none" stroke="#191970" d="M380.8616,-530.5005C399.8646,-520.1352 421.5286,-508.3185 439.4855,-498.5239"/>
<polygon fill="#191970" stroke="#191970" points="379.1615,-527.441 372.0585,-535.3022 382.5135,-533.5863 379.1615,-527.441"/>
</g>
<!-- Node66 -->
<g id="node20" class="node">
<title>Node66</title>
<g id="a_node20"><a xlink:href="_base_object_8cpp.html" target="_top" xlink:title="kryne&#45;engine/src/3DObjects\l/BaseObject.cpp">
<polygon fill="#ffffff" stroke="#000000" points="558.1126,-463 558.1126,-493 696.1126,-493 696.1126,-463 558.1126,-463"/>
<text text-anchor="start" x="566.1126" y="-481" font-family="Helvetica,sans-Serif" font-size="10.00" fill="#000000">kryne&#45;engine/src/3DObjects</text>
<text text-anchor="middle" x="627.1126" y="-470" font-family="Helvetica,sans-Serif" font-size="10.00" fill="#000000">/BaseObject.cpp</text>
</a>
</g>
</g>
<!-- Node47&#45;&gt;Node66 -->
<g id="edge28" class="edge">
<title>Node47&#45;&gt;Node66</title>
<path fill="none" stroke="#191970" d="M406.4896,-536.8857C448.2012,-525.8514 501.6222,-511.6881 549.1126,-499 556.2933,-497.0815 563.8441,-495.0573 571.3038,-493.0533"/>
<polygon fill="#191970" stroke="#191970" points="405.4652,-533.5362 396.6925,-539.4768 407.255,-540.3035 405.4652,-533.5362"/>
</g>
<!-- Node49&#45;&gt;Node48 -->
<g id="edge3" class="edge">
<title>Node49&#45;&gt;Node48</title>
<path fill="none" stroke="#191970" d="M274.9396,-453.3182C244.867,-440.7746 209.293,-425.9362 183.3187,-415.102"/>
<polygon fill="#191970" stroke="#191970" points="273.9142,-456.6828 284.4909,-457.3022 276.609,-450.2222 273.9142,-456.6828"/>
</g>
<!-- Node49&#45;&gt;Node50 -->
<g id="edge4" class="edge">
<title>Node49&#45;&gt;Node50</title>
<path fill="none" stroke="#191970" d="M310.9137,-448.5181C305.3236,-439.2482 299.8394,-429.2141 295.7439,-420.6898"/>
<polygon fill="#191970" stroke="#191970" points="308.0025,-450.4642 316.2639,-457.0974 313.9421,-446.7601 308.0025,-450.4642"/>
</g>
<!-- Node60 -->
<g id="node14" class="node">
<title>Node60</title>
<g id="a_node14"><a xlink:href="_shadow_map_handler_8h.html" target="_top" xlink:title="kryne&#45;engine/include\l/kryne&#45;engine/Rendering\l/ShadowMapping/ShadowMapHandler.h">
<polygon fill="#ffffff" stroke="#000000" points="283.6126,-212.5 283.6126,-253.5 474.6126,-253.5 474.6126,-212.5 283.6126,-212.5"/>
<text text-anchor="start" x="291.6126" y="-241.5" font-family="Helvetica,sans-Serif" font-size="10.00" fill="#000000">kryne&#45;engine/include</text>
<text text-anchor="start" x="291.6126" y="-230.5" font-family="Helvetica,sans-Serif" font-size="10.00" fill="#000000">/kryne&#45;engine/Rendering</text>
<text text-anchor="middle" x="379.1126" y="-219.5" font-family="Helvetica,sans-Serif" font-size="10.00" fill="#000000">/ShadowMapping/ShadowMapHandler.h</text>
</a>
</g>
</g>
<!-- Node49&#45;&gt;Node60 -->
<g id="edge23" class="edge">
<title>Node49&#45;&gt;Node60</title>
<path fill="none" stroke="#191970" d="M349.8873,-448.2724C353.8291,-439.6839 357.6349,-430.1537 360.1126,-421 376.1402,-361.7851 378.8906,-288.7656 379.2088,-253.7053"/>
<polygon fill="#191970" stroke="#191970" points="346.6295,-446.9705 345.4425,-457.4987 352.9359,-450.0087 346.6295,-446.9705"/>
</g>
<!-- Node63 -->
<g id="node17" class="node">
<title>Node63</title>
<g id="a_node17"><a xlink:href="_hierarchical_node_8cpp.html" target="_top" xlink:title="kryne&#45;engine/src/3DObjects\l/HierarchicalNode.cpp">
<polygon fill="#ffffff" stroke="#000000" points="407.1126,-385 407.1126,-415 545.1126,-415 545.1126,-385 407.1126,-385"/>
<text text-anchor="start" x="415.1126" y="-403" font-family="Helvetica,sans-Serif" font-size="10.00" fill="#000000">kryne&#45;engine/src/3DObjects</text>
<text text-anchor="middle" x="476.1126" y="-392" font-family="Helvetica,sans-Serif" font-size="10.00" fill="#000000">/HierarchicalNode.cpp</text>
</a>
</g>
</g>
<!-- Node49&#45;&gt;Node63 -->
<g id="edge24" class="edge">
<title>Node49&#45;&gt;Node63</title>
<path fill="none" stroke="#191970" d="M380.8337,-452.3363C403.2803,-440.0064 429.4076,-425.6548 448.6191,-415.102"/>
<polygon fill="#191970" stroke="#191970" points="378.8728,-449.42 371.7931,-457.3022 382.243,-455.5554 378.8728,-449.42"/>
</g>
<!-- Node50&#45;&gt;Node49 -->
<g id="edge6" class="edge">
<title>Node50&#45;&gt;Node49</title>
<path fill="none" stroke="#191970" d="M313.1721,-429.251C318.7639,-438.5081 324.2603,-448.5482 328.3788,-457.0974"/>
<polygon fill="#191970" stroke="#191970" points="316.0903,-427.3163 307.8235,-420.6898 310.1536,-431.0252 316.0903,-427.3163"/>
</g>
<!-- Node51 -->
<g id="node5" class="node">
<title>Node51</title>
<g id="a_node5"><a xlink:href="_rendering_8h.html" target="_top" xlink:title="kryne&#45;engine/include\l/KEModules/Rendering.h">
<polygon fill="#ffffff" stroke="#000000" points="398.6126,-67.5 398.6126,-97.5 523.6126,-97.5 523.6126,-67.5 398.6126,-67.5"/>
<text text-anchor="start" x="406.6126" y="-85.5" font-family="Helvetica,sans-Serif" font-size="10.00" fill="#000000">kryne&#45;engine/include</text>
<text text-anchor="middle" x="461.1126" y="-74.5" font-family="Helvetica,sans-Serif" font-size="10.00" fill="#000000">/KEModules/Rendering.h</text>
</a>
</g>
</g>
<!-- Node50&#45;&gt;Node51 -->
<g id="edge5" class="edge">
<title>Node50&#45;&gt;Node51</title>
<path fill="none" stroke="#191970" d="M218.9402,-377.4046C183.3621,-365.6216 144.4678,-351.8583 128.1126,-343 59.7307,-305.9632 -32.1327,-275.9543 12.1126,-212 56.3085,-148.117 285.6319,-107.3441 398.3839,-90.8537"/>
<polygon fill="#191970" stroke="#191970" points="218.2727,-380.8695 228.8656,-380.6698 220.4602,-374.22 218.2727,-380.8695"/>
</g>
<!-- Node52 -->
<g id="node6" class="node">
<title>Node52</title>
<g id="a_node6"><a xlink:href="_main_renderer_8h.html" target="_top" xlink:title="kryne&#45;engine/include\l/kryne&#45;engine/Rendering\l/MainRenderer.h">
<polygon fill="#ffffff" stroke="#000000" points="521.1126,-212.5 521.1126,-253.5 643.1126,-253.5 643.1126,-212.5 521.1126,-212.5"/>
<text text-anchor="start" x="529.1126" y="-241.5" font-family="Helvetica,sans-Serif" font-size="10.00" fill="#000000">kryne&#45;engine/include</text>
<text text-anchor="start" x="529.1126" y="-230.5" font-family="Helvetica,sans-Serif" font-size="10.00" fill="#000000">/kryne&#45;engine/Rendering</text>
<text text-anchor="middle" x="582.1126" y="-219.5" font-family="Helvetica,sans-Serif" font-size="10.00" fill="#000000">/MainRenderer.h</text>
</a>
</g>
</g>
<!-- Node50&#45;&gt;Node52 -->
<g id="edge7" class="edge">
<title>Node50&#45;&gt;Node52</title>
<path fill="none" stroke="#191970" d="M335.1496,-374.2425C393.1611,-341.0647 492.8444,-284.0541 546.0972,-253.5978"/>
<polygon fill="#191970" stroke="#191970" points="333.1533,-371.3522 326.2103,-379.355 336.6286,-377.4286 333.1533,-371.3522"/>
</g>
<!-- Node59 -->
<g id="node13" class="node">
<title>Node59</title>
<g id="a_node13"><a xlink:href="_directional_shadow_map_rendering_8h.html" target="_top" xlink:title="kryne&#45;engine/include\l/kryne&#45;engine/Rendering\l/ShadowMapping/DirectionalShadow\lMapRendering.h">
<polygon fill="#ffffff" stroke="#000000" points="137.1126,-290.5 137.1126,-342.5 313.1126,-342.5 313.1126,-290.5 137.1126,-290.5"/>
<text text-anchor="start" x="145.1126" y="-330.5" font-family="Helvetica,sans-Serif" font-size="10.00" fill="#000000">kryne&#45;engine/include</text>
<text text-anchor="start" x="145.1126" y="-319.5" font-family="Helvetica,sans-Serif" font-size="10.00" fill="#000000">/kryne&#45;engine/Rendering</text>
<text text-anchor="start" x="145.1126" y="-308.5" font-family="Helvetica,sans-Serif" font-size="10.00" fill="#000000">/ShadowMapping/DirectionalShadow</text>
<text text-anchor="middle" x="225.1126" y="-297.5" font-family="Helvetica,sans-Serif" font-size="10.00" fill="#000000">MapRendering.h</text>
</a>
</g>
</g>
<!-- Node50&#45;&gt;Node59 -->
<g id="edge16" class="edge">
<title>Node50&#45;&gt;Node59</title>
<path fill="none" stroke="#191970" d="M267.8861,-371.4475C260.6047,-362.0938 252.5565,-351.7549 245.4241,-342.5925"/>
<polygon fill="#191970" stroke="#191970" points="265.1406,-373.6185 274.0451,-379.3595 270.6643,-369.3186 265.1406,-373.6185"/>
</g>
<!-- Node52&#45;&gt;Node51 -->
<g id="edge8" class="edge">
<title>Node52&#45;&gt;Node51</title>
<path fill="none" stroke="#191970" d="M559.0894,-204.3638C533.6231,-172.6888 493.5407,-122.8342 473.4526,-97.8485"/>
<polygon fill="#191970" stroke="#191970" points="556.5481,-206.7887 565.5417,-212.3892 562.0035,-202.4026 556.5481,-206.7887"/>
</g>
<!-- Node53 -->
<g id="node7" class="node">
<title>Node53</title>
<g id="a_node7"><a xlink:href="_render_scene_8h.html" target="_top" xlink:title="kryne&#45;engine/include\l/kryne&#45;engine/Rendering\l/RenderScene.h">
<polygon fill="#ffffff" stroke="#000000" points="549.1126,-134.5 549.1126,-175.5 671.1126,-175.5 671.1126,-134.5 549.1126,-134.5"/>
<text text-anchor="start" x="557.1126" y="-163.5" font-family="Helvetica,sans-Serif" font-size="10.00" fill="#000000">kryne&#45;engine/include</text>
<text text-anchor="start" x="557.1126" y="-152.5" font-family="Helvetica,sans-Serif" font-size="10.00" fill="#000000">/kryne&#45;engine/Rendering</text>
<text text-anchor="middle" x="610.1126" y="-141.5" font-family="Helvetica,sans-Serif" font-size="10.00" fill="#000000">/RenderScene.h</text>
</a>
</g>
</g>
<!-- Node52&#45;&gt;Node53 -->
<g id="edge9" class="edge">
<title>Node52&#45;&gt;Node53</title>
<path fill="none" stroke="#191970" d="M593.0053,-202.6559C596.2457,-193.629 599.7201,-183.9505 602.6854,-175.6898"/>
<polygon fill="#191970" stroke="#191970" points="589.7006,-201.5029 589.616,-212.0974 596.2889,-203.868 589.7006,-201.5029"/>
</g>
<!-- Node58 -->
<g id="node12" class="node">
<title>Node58</title>
<g id="a_node12"><a xlink:href="_main_renderer_8cpp.html" target="_top" xlink:title="kryne&#45;engine/src/Rendering\l/MainRenderer.cpp">
<polygon fill="#ffffff" stroke="#000000" points="689.1126,-140 689.1126,-170 825.1126,-170 825.1126,-140 689.1126,-140"/>
<text text-anchor="start" x="697.1126" y="-158" font-family="Helvetica,sans-Serif" font-size="10.00" fill="#000000">kryne&#45;engine/src/Rendering</text>
<text text-anchor="middle" x="757.1126" y="-147" font-family="Helvetica,sans-Serif" font-size="10.00" fill="#000000">/MainRenderer.cpp</text>
</a>
</g>
</g>
<!-- Node52&#45;&gt;Node58 -->
<g id="edge15" class="edge">
<title>Node52&#45;&gt;Node58</title>
<path fill="none" stroke="#191970" d="M637.8541,-208.1552C665.9192,-195.6462 699.0275,-180.8893 723.2298,-170.102"/>
<polygon fill="#191970" stroke="#191970" points="636.2588,-205.0343 628.5499,-212.3022 639.1086,-211.4279 636.2588,-205.0343"/>
</g>
<!-- Node53&#45;&gt;Node51 -->
<g id="edge10" class="edge">
<title>Node53&#45;&gt;Node51</title>
<path fill="none" stroke="#191970" d="M558.545,-129.9084C536.4308,-119.1482 511.3296,-106.9345 492.1438,-97.5991"/>
<polygon fill="#191970" stroke="#191970" points="557.2903,-133.1902 567.8137,-134.4183 560.353,-126.8958 557.2903,-133.1902"/>
</g>
<!-- Node54 -->
<g id="node8" class="node">
<title>Node54</title>
<g id="a_node8"><a xlink:href="_old_process_8h.html" target="_top" xlink:title="kryne&#45;engine/include\l/kryne&#45;engine/Core/OldProcess.h">
<polygon fill="#ffffff" stroke="#000000" points="696.6126,-67.5 696.6126,-97.5 857.6126,-97.5 857.6126,-67.5 696.6126,-67.5"/>
<text text-anchor="start" x="704.6126" y="-85.5" font-family="Helvetica,sans-Serif" font-size="10.00" fill="#000000">kryne&#45;engine/include</text>
<text text-anchor="middle" x="777.1126" y="-74.5" font-family="Helvetica,sans-Serif" font-size="10.00" fill="#000000">/kryne&#45;engine/Core/OldProcess.h</text>
</a>
</g>
</g>
<!-- Node53&#45;&gt;Node54 -->
<g id="edge11" class="edge">
<title>Node53&#45;&gt;Node54</title>
<path fill="none" stroke="#191970" d="M666.9157,-130.34C691.9406,-119.4758 720.541,-107.0595 742.3325,-97.5991"/>
<polygon fill="#191970" stroke="#191970" points="665.3004,-127.2255 657.5213,-134.4183 668.088,-133.6466 665.3004,-127.2255"/>
</g>
<!-- Node57 -->
<g id="node11" class="node">
<title>Node57</title>
<g id="a_node11"><a xlink:href="_render_scene_8cpp.html" target="_top" xlink:title="kryne&#45;engine/src/Rendering\l/RenderScene.cpp">
<polygon fill="#ffffff" stroke="#000000" points="542.1126,-67.5 542.1126,-97.5 678.1126,-97.5 678.1126,-67.5 542.1126,-67.5"/>
<text text-anchor="start" x="550.1126" y="-85.5" font-family="Helvetica,sans-Serif" font-size="10.00" fill="#000000">kryne&#45;engine/src/Rendering</text>
<text text-anchor="middle" x="610.1126" y="-74.5" font-family="Helvetica,sans-Serif" font-size="10.00" fill="#000000">/RenderScene.cpp</text>
</a>
</g>
</g>
<!-- Node53&#45;&gt;Node57 -->
<g id="edge14" class="edge">
<title>Node53&#45;&gt;Node57</title>
<path fill="none" stroke="#191970" d="M610.1126,-124.3279C610.1126,-115.0871 610.1126,-105.3508 610.1126,-97.5991"/>
<polygon fill="#191970" stroke="#191970" points="606.6127,-124.4183 610.1126,-134.4183 613.6127,-124.4184 606.6127,-124.4183"/>
</g>
<!-- Node55 -->
<g id="node9" class="node">
<title>Node55</title>
<g id="a_node9"><a xlink:href="_core_8h.html" target="_top" xlink:title="kryne&#45;engine/include\l/KEModules/Core.h">
<polygon fill="#ffffff" stroke="#000000" points="660.1126,-.5 660.1126,-30.5 766.1126,-30.5 766.1126,-.5 660.1126,-.5"/>
<text text-anchor="start" x="668.1126" y="-18.5" font-family="Helvetica,sans-Serif" font-size="10.00" fill="#000000">kryne&#45;engine/include</text>
<text text-anchor="middle" x="713.1126" y="-7.5" font-family="Helvetica,sans-Serif" font-size="10.00" fill="#000000">/KEModules/Core.h</text>
</a>
</g>
</g>
<!-- Node54&#45;&gt;Node55 -->
<g id="edge12" class="edge">
<title>Node54&#45;&gt;Node55</title>
<path fill="none" stroke="#191970" d="M755.5486,-59.9253C746.3379,-50.2828 735.8319,-39.2843 727.5777,-30.6432"/>
<polygon fill="#191970" stroke="#191970" points="753.1517,-62.4831 762.59,-67.2967 758.2135,-57.648 753.1517,-62.4831"/>
</g>
<!-- Node56 -->
<g id="node10" class="node">
<title>Node56</title>
<g id="a_node10"><a xlink:href="_old_process_8cpp.html" target="_top" xlink:title="kryne&#45;engine/src/Core\l/OldProcess.cpp">
<polygon fill="#ffffff" stroke="#000000" points="784.6126,-.5 784.6126,-30.5 897.6126,-30.5 897.6126,-.5 784.6126,-.5"/>
<text text-anchor="start" x="792.6126" y="-18.5" font-family="Helvetica,sans-Serif" font-size="10.00" fill="#000000">kryne&#45;engine/src/Core</text>
<text text-anchor="middle" x="841.1126" y="-7.5" font-family="Helvetica,sans-Serif" font-size="10.00" fill="#000000">/OldProcess.cpp</text>
</a>
</g>
</g>
<!-- Node54&#45;&gt;Node56 -->
<g id="edge13" class="edge">
<title>Node54&#45;&gt;Node56</title>
<path fill="none" stroke="#191970" d="M798.6765,-59.9253C807.8872,-50.2828 818.3932,-39.2843 826.6474,-30.6432"/>
<polygon fill="#191970" stroke="#191970" points="796.0116,-57.648 791.6351,-67.2967 801.0734,-62.4831 796.0116,-57.648"/>
</g>
<!-- Node59&#45;&gt;Node51 -->
<g id="edge17" class="edge">
<title>Node59&#45;&gt;Node51</title>
<path fill="none" stroke="#191970" d="M217.7214,-280.4667C211.6293,-239.7878 208.9146,-174.0701 244.1126,-134 264.2359,-111.0912 341.7355,-96.8775 398.3947,-89.3312"/>
<polygon fill="#191970" stroke="#191970" points="214.2926,-281.1862 219.3663,-290.4872 221.2001,-280.0523 214.2926,-281.1862"/>
</g>
<!-- Node59&#45;&gt;Node60 -->
<g id="edge18" class="edge">
<title>Node59&#45;&gt;Node60</title>
<path fill="none" stroke="#191970" d="M282.3034,-285.4907C301.9726,-274.8259 323.492,-263.1579 341.2365,-253.5367"/>
<polygon fill="#191970" stroke="#191970" points="280.5392,-282.4658 273.4166,-290.3092 283.8758,-288.6194 280.5392,-282.4658"/>
</g>
<!-- Node62 -->
<g id="node16" class="node">
<title>Node62</title>
<g id="a_node16"><a xlink:href="_directional_shadow_map_rendering_8cpp.html" target="_top" xlink:title="kryne&#45;engine/src/Rendering\l/ShadowMapping/DirectionalShadow\lMapRendering.cpp">
<polygon fill="#ffffff" stroke="#000000" points="21.1126,-212.5 21.1126,-253.5 197.1126,-253.5 197.1126,-212.5 21.1126,-212.5"/>
<text text-anchor="start" x="29.1126" y="-241.5" font-family="Helvetica,sans-Serif" font-size="10.00" fill="#000000">kryne&#45;engine/src/Rendering</text>
<text text-anchor="start" x="29.1126" y="-230.5" font-family="Helvetica,sans-Serif" font-size="10.00" fill="#000000">/ShadowMapping/DirectionalShadow</text>
<text text-anchor="middle" x="109.1126" y="-219.5" font-family="Helvetica,sans-Serif" font-size="10.00" fill="#000000">MapRendering.cpp</text>
</a>
</g>
</g>
<!-- Node59&#45;&gt;Node62 -->
<g id="edge22" class="edge">
<title>Node59&#45;&gt;Node62</title>
<path fill="none" stroke="#191970" d="M180.4268,-284.334C166.0534,-273.9876 150.5269,-262.8112 137.6426,-253.5367"/>
<polygon fill="#191970" stroke="#191970" points="178.5669,-287.3076 188.7277,-290.3092 182.6564,-281.6264 178.5669,-287.3076"/>
</g>
<!-- Node60&#45;&gt;Node51 -->
<g id="edge19" class="edge">
<title>Node60&#45;&gt;Node51</title>
<path fill="none" stroke="#191970" d="M435.0592,-206.9002C446.7036,-198.7246 457.4505,-188.4888 464.1126,-176 477.3367,-151.2097 471.3176,-117.2254 466.0244,-97.7947"/>
<polygon fill="#191970" stroke="#191970" points="432.9394,-204.1038 426.4672,-212.492 436.7577,-209.9707 432.9394,-204.1038"/>
</g>
<!-- Node60&#45;&gt;Node53 -->
<g id="edge20" class="edge">
<title>Node60&#45;&gt;Node53</title>
<path fill="none" stroke="#191970" d="M449.7794,-209.1385C481.5418,-198.4135 518.6587,-185.8805 549.1769,-175.5757"/>
<polygon fill="#191970" stroke="#191970" points="448.462,-205.8891 440.1072,-212.4044 450.7014,-212.5212 448.462,-205.8891"/>
</g>
<!-- Node61 -->
<g id="node15" class="node">
<title>Node61</title>
<g id="a_node15"><a xlink:href="_shadow_map_handler_8cpp.html" target="_top" xlink:title="kryne&#45;engine/src/Rendering\l/ShadowMapping/ShadowMapHandler.cpp">
<polygon fill="#ffffff" stroke="#000000" points="253.6126,-140 253.6126,-170 454.6126,-170 454.6126,-140 253.6126,-140"/>
<text text-anchor="start" x="261.6126" y="-158" font-family="Helvetica,sans-Serif" font-size="10.00" fill="#000000">kryne&#45;engine/src/Rendering</text>
<text text-anchor="middle" x="354.1126" y="-147" font-family="Helvetica,sans-Serif" font-size="10.00" fill="#000000">/ShadowMapping/ShadowMapHandler.cpp</text>
</a>
</g>
</g>
<!-- Node60&#45;&gt;Node61 -->
<g id="edge21" class="edge">
<title>Node60&#45;&gt;Node61</title>
<path fill="none" stroke="#191970" d="M369.2908,-202.3561C365.7621,-191.3467 361.9347,-179.4052 359.0061,-170.2679"/>
<polygon fill="#191970" stroke="#191970" points="366.0278,-203.6429 372.413,-212.0974 372.6937,-201.5063 366.0278,-203.6429"/>
</g>
<!-- Node65 -->
<g id="node19" class="node">
<title>Node65</title>
<g id="a_node19"><a xlink:href="_model_loader_8cpp.html" target="_top" xlink:title="kryne&#45;engine/src/3DObjects\l/Model/ModelLoader.cpp">
<polygon fill="#ffffff" stroke="#000000" points="563.1126,-385 563.1126,-415 701.1126,-415 701.1126,-385 563.1126,-385"/>
<text text-anchor="start" x="571.1126" y="-403" font-family="Helvetica,sans-Serif" font-size="10.00" fill="#000000">kryne&#45;engine/src/3DObjects</text>
<text text-anchor="middle" x="632.1126" y="-392" font-family="Helvetica,sans-Serif" font-size="10.00" fill="#000000">/Model/ModelLoader.cpp</text>
</a>
</g>
</g>
<!-- Node64&#45;&gt;Node65 -->
<g id="edge26" class="edge">
<title>Node64&#45;&gt;Node65</title>
<path fill="none" stroke="#191970" d="M527.4586,-452.6646C552.105,-440.2619 580.9454,-425.7486 602.1021,-415.102"/>
<polygon fill="#191970" stroke="#191970" points="525.6022,-449.6805 518.2428,-457.3022 528.7488,-455.9334 525.6022,-449.6805"/>
</g>
</g>
</svg>
