<?xml version="1.0" encoding="UTF-8" standalone="no"?>
<!DOCTYPE svg PUBLIC "-//W3C//DTD SVG 1.1//EN"
 "http://www.w3.org/Graphics/SVG/1.1/DTD/svg11.dtd">
<!-- Generated by graphviz version 2.40.1 (20161225.0304)
 -->
<!-- Title: kryne&#45;engine/include/kryne&#45;engine/3DObjects/BaseObject.h Pages: 1 -->
<svg width="1570pt" height="598pt"
 viewBox="0.00 0.00 1569.80 598.00" xmlns="http://www.w3.org/2000/svg" xmlns:xlink="http://www.w3.org/1999/xlink">
<g id="graph0" class="graph" transform="scale(1 1) rotate(0) translate(4 594)">
<title>kryne&#45;engine/include/kryne&#45;engine/3DObjects/BaseObject.h</title>
<polygon fill="#ffffff" stroke="transparent" points="-4,4 -4,-594 1565.8001,-594 1565.8001,4 -4,4"/>
<!-- Node0 -->
<g id="node1" class="node">
<title>Node0</title>
<polygon fill="#bfbfbf" stroke="#000000" points="1094.3001,-548.5 1094.3001,-589.5 1219.3001,-589.5 1219.3001,-548.5 1094.3001,-548.5"/>
<text text-anchor="start" x="1102.3001" y="-577.5" font-family="Helvetica,sans-Serif" font-size="10.00" fill="#000000">kryne&#45;engine/include</text>
<text text-anchor="start" x="1102.3001" y="-566.5" font-family="Helvetica,sans-Serif" font-size="10.00" fill="#000000">/kryne&#45;engine/3DObjects</text>
<text text-anchor="middle" x="1156.8001" y="-555.5" font-family="Helvetica,sans-Serif" font-size="10.00" fill="#000000">/BaseObject.h</text>
</g>
<!-- Node1 -->
<g id="node2" class="node">
<title>Node1</title>
<polygon fill="#ffffff" stroke="#bfbfbf" points="546.8001,-297 546.8001,-316 610.8001,-316 610.8001,-297 546.8001,-297"/>
<text text-anchor="middle" x="578.8001" y="-304" font-family="Helvetica,sans-Serif" font-size="10.00" fill="#000000">glad/glad.h</text>
</g>
<!-- Node0&#45;&gt;Node1 -->
<g id="edge1" class="edge">
<title>Node0&#45;&gt;Node1</title>
<path fill="none" stroke="#191970" d="M1094.1492,-566.6189C961.0978,-560.9853 654.4529,-544.7821 555.8001,-512 501.4771,-493.9486 482.2928,-489.1036 445.8001,-445 420.4423,-414.3536 401.3688,-390.1434 424.8001,-358 455.5999,-315.7484 487.3739,-339.0552 536.8001,-322 539.1788,-321.1792 541.6275,-320.3181 544.0906,-319.4401"/>
<polygon fill="#191970" stroke="#191970" points="545.3317,-322.7131 553.5435,-316.0186 542.9492,-316.131 545.3317,-322.7131"/>
</g>
<!-- Node2 -->
<g id="node3" class="node">
<title>Node2</title>
<polygon fill="#ffffff" stroke="#bfbfbf" points="628.8001,-297 628.8001,-316 708.8001,-316 708.8001,-297 628.8001,-297"/>
<text text-anchor="middle" x="668.8001" y="-304" font-family="Helvetica,sans-Serif" font-size="10.00" fill="#000000">GLFW/glfw3.h</text>
</g>
<!-- Node0&#45;&gt;Node2 -->
<g id="edge2" class="edge">
<title>Node0&#45;&gt;Node2</title>
<path fill="none" stroke="#191970" d="M1094.2423,-564.202C945.1534,-551.75 573.8073,-514.4354 472.8001,-445 438.5893,-421.4824 412.4633,-390.091 438.8001,-358 490.8337,-294.598 540.3572,-342.3994 619.8001,-322 623.3811,-321.0805 627.0867,-320.0525 630.7827,-318.9753"/>
<polygon fill="#191970" stroke="#191970" points="631.8938,-322.2959 640.4515,-316.0496 629.8664,-315.5959 631.8938,-322.2959"/>
</g>
<!-- Node3 -->
<g id="node4" class="node">
<title>Node3</title>
<polygon fill="#ffffff" stroke="#bfbfbf" points="1173.8001,-364 1173.8001,-383 1259.8001,-383 1259.8001,-364 1173.8001,-364"/>
<text text-anchor="middle" x="1216.8001" y="-371" font-family="Helvetica,sans-Serif" font-size="10.00" fill="#000000">glm/mat4x4.hpp</text>
</g>
<!-- Node0&#45;&gt;Node3 -->
<g id="edge3" class="edge">
<title>Node0&#45;&gt;Node3</title>
<path fill="none" stroke="#191970" d="M1219.4475,-554.6801C1244.1913,-546.0956 1270.9251,-532.6784 1288.8001,-512 1314.6222,-482.1281 1326.6088,-459.1574 1306.8001,-425 1296.4178,-407.0971 1277.2107,-394.8878 1259.1984,-386.8689"/>
<polygon fill="#191970" stroke="#191970" points="1260.5201,-383.6281 1249.9411,-383.0495 1257.8503,-390.099 1260.5201,-383.6281"/>
</g>
<!-- Node4 -->
<g id="node5" class="node">
<title>Node4</title>
<polygon fill="#ffffff" stroke="#bfbfbf" points="1353.8001,-487 1353.8001,-506 1439.8001,-506 1439.8001,-487 1353.8001,-487"/>
<text text-anchor="middle" x="1396.8001" y="-494" font-family="Helvetica,sans-Serif" font-size="10.00" fill="#000000">glm/mat3x3.hpp</text>
</g>
<!-- Node0&#45;&gt;Node4 -->
<g id="edge4" class="edge">
<title>Node0&#45;&gt;Node4</title>
<path fill="none" stroke="#191970" d="M1219.5438,-550.0462C1262.3262,-537.1223 1317.7908,-520.3674 1355.1915,-509.0693"/>
<polygon fill="#191970" stroke="#191970" points="1356.6753,-512.2773 1365.2359,-506.035 1354.651,-505.5764 1356.6753,-512.2773"/>
</g>
<!-- Node5 -->
<g id="node6" class="node">
<title>Node5</title>
<g id="a_node6"><a xlink:href="_shader_8h.html" target="_top" xlink:title="kryne&#45;engine/Material\l/Shader.h">
<polygon fill="#ffffff" stroke="#000000" points="960.8001,-481.5 960.8001,-511.5 1070.8001,-511.5 1070.8001,-481.5 960.8001,-481.5"/>
<text text-anchor="start" x="968.8001" y="-499.5" font-family="Helvetica,sans-Serif" font-size="10.00" fill="#000000">kryne&#45;engine/Material</text>
<text text-anchor="middle" x="1015.8001" y="-488.5" font-family="Helvetica,sans-Serif" font-size="10.00" fill="#000000">/Shader.h</text>
</a>
</g>
</g>
<!-- Node0&#45;&gt;Node5 -->
<g id="edge5" class="edge">
<title>Node0&#45;&gt;Node5</title>
<path fill="none" stroke="#191970" d="M1116.7723,-548.4183C1097.1812,-538.3449 1073.7026,-526.2726 1054.3177,-516.3051"/>
<polygon fill="#191970" stroke="#191970" points="1055.659,-513.0593 1045.1653,-511.5991 1052.458,-519.2846 1055.659,-513.0593"/>
</g>
<!-- Node41 -->
<g id="node42" class="node">
<title>Node41</title>
<g id="a_node42"><a xlink:href="_vertex_array_8h.html" target="_top" xlink:title="kryne&#45;engine/Core/Vertex\lArray.h">
<polygon fill="#ffffff" stroke="#000000" points="187.8001,-358.5 187.8001,-388.5 315.8001,-388.5 315.8001,-358.5 187.8001,-358.5"/>
<text text-anchor="start" x="195.8001" y="-376.5" font-family="Helvetica,sans-Serif" font-size="10.00" fill="#000000">kryne&#45;engine/Core/Vertex</text>
<text text-anchor="middle" x="251.8001" y="-365.5" font-family="Helvetica,sans-Serif" font-size="10.00" fill="#000000">Array.h</text>
</a>
</g>
</g>
<!-- Node0&#45;&gt;Node41 -->
<g id="edge56" class="edge">
<title>Node0&#45;&gt;Node41</title>
<path fill="none" stroke="#191970" d="M1094.1865,-567.2744C918.8847,-562.0535 431.7992,-544.739 367.8001,-512 318.2419,-486.6483 281.645,-429.8796 263.8574,-397.4407"/>
<polygon fill="#191970" stroke="#191970" points="266.9374,-395.7779 259.1453,-388.5992 260.7599,-399.0703 266.9374,-395.7779"/>
</g>
<!-- Node44 -->
<g id="node45" class="node">
<title>Node44</title>
<g id="a_node45"><a xlink:href="_additional_parameters_8h.html" target="_top" xlink:title="kryne&#45;engine/Core/Additional\lParameters.h">
<polygon fill="#ffffff" stroke="#000000" points="1137.8001,-481.5 1137.8001,-511.5 1279.8001,-511.5 1279.8001,-481.5 1137.8001,-481.5"/>
<text text-anchor="start" x="1145.8001" y="-499.5" font-family="Helvetica,sans-Serif" font-size="10.00" fill="#000000">kryne&#45;engine/Core/Additional</text>
<text text-anchor="middle" x="1208.8001" y="-488.5" font-family="Helvetica,sans-Serif" font-size="10.00" fill="#000000">Parameters.h</text>
</a>
</g>
</g>
<!-- Node0&#45;&gt;Node44 -->
<g id="edge64" class="edge">
<title>Node0&#45;&gt;Node44</title>
<path fill="none" stroke="#191970" d="M1171.5621,-548.4183C1177.9333,-539.5354 1185.4194,-529.0981 1192.002,-519.9205"/>
<polygon fill="#191970" stroke="#191970" points="1194.9862,-521.765 1197.9704,-511.5991 1189.298,-517.6852 1194.9862,-521.765"/>
</g>
<!-- Node46 -->
<g id="node47" class="node">
<title>Node46</title>
<g id="a_node47"><a xlink:href="enums_2_base_object_8h.html" target="_top" xlink:title="kryne&#45;engine/enums\l/BaseObject.h">
<polygon fill="#ffffff" stroke="#000000" points="1457.8001,-481.5 1457.8001,-511.5 1561.8001,-511.5 1561.8001,-481.5 1457.8001,-481.5"/>
<text text-anchor="start" x="1465.8001" y="-499.5" font-family="Helvetica,sans-Serif" font-size="10.00" fill="#000000">kryne&#45;engine/enums</text>
<text text-anchor="middle" x="1509.8001" y="-488.5" font-family="Helvetica,sans-Serif" font-size="10.00" fill="#000000">/BaseObject.h</text>
</a>
</g>
</g>
<!-- Node0&#45;&gt;Node46 -->
<g id="edge68" class="edge">
<title>Node0&#45;&gt;Node46</title>
<path fill="none" stroke="#191970" d="M1219.384,-557.8328C1276.4558,-547.4105 1363.3151,-530.9533 1447.8422,-512.152"/>
<polygon fill="#191970" stroke="#191970" points="1448.6085,-515.5672 1457.6029,-509.968 1447.0799,-508.7361 1448.6085,-515.5672"/>
</g>
<!-- Node6 -->
<g id="node7" class="node">
<title>Node6</title>
<polygon fill="#ffffff" stroke="#bfbfbf" points="1174.3001,-425.5 1174.3001,-444.5 1209.3001,-444.5 1209.3001,-425.5 1174.3001,-425.5"/>
<text text-anchor="middle" x="1191.8001" y="-432.5" font-family="Helvetica,sans-Serif" font-size="10.00" fill="#000000">map</text>
</g>
<!-- Node5&#45;&gt;Node6 -->
<g id="edge6" class="edge">
<title>Node5&#45;&gt;Node6</title>
<path fill="none" stroke="#191970" d="M1058.8545,-481.4554C1091.846,-469.9271 1136.3584,-454.3731 1164.5753,-444.5132"/>
<polygon fill="#191970" stroke="#191970" points="1165.8965,-447.7591 1174.1822,-441.1562 1163.5874,-441.1509 1165.8965,-447.7591"/>
</g>
<!-- Node7 -->
<g id="node8" class="node">
<title>Node7</title>
<polygon fill="#ffffff" stroke="#bfbfbf" points="848.8001,-425.5 848.8001,-444.5 900.8001,-444.5 900.8001,-425.5 848.8001,-425.5"/>
<text text-anchor="middle" x="874.8001" y="-432.5" font-family="Helvetica,sans-Serif" font-size="10.00" fill="#000000">sstream</text>
</g>
<!-- Node5&#45;&gt;Node7 -->
<g id="edge7" class="edge">
<title>Node5&#45;&gt;Node7</title>
<path fill="none" stroke="#191970" d="M981.3076,-481.4554C958.2973,-471.419 928.2915,-458.3314 905.9946,-448.6061"/>
<polygon fill="#191970" stroke="#191970" points="907.2154,-445.3202 896.6501,-444.5303 904.4168,-451.7364 907.2154,-445.3202"/>
</g>
<!-- Node8 -->
<g id="node9" class="node">
<title>Node8</title>
<g id="a_node9"><a xlink:href="_dispatcher_8h.html" target="_top" xlink:title="kryne&#45;engine/Dispatch\l/Dispatcher.h">
<polygon fill="#ffffff" stroke="#000000" points="1086.8001,-291.5 1086.8001,-321.5 1200.8001,-321.5 1200.8001,-291.5 1086.8001,-291.5"/>
<text text-anchor="start" x="1094.8001" y="-309.5" font-family="Helvetica,sans-Serif" font-size="10.00" fill="#000000">kryne&#45;engine/Dispatch</text>
<text text-anchor="middle" x="1143.8001" y="-298.5" font-family="Helvetica,sans-Serif" font-size="10.00" fill="#000000">/Dispatcher.h</text>
</a>
</g>
</g>
<!-- Node5&#45;&gt;Node8 -->
<g id="edge8" class="edge">
<title>Node5&#45;&gt;Node8</title>
<path fill="none" stroke="#191970" d="M1026.2376,-481.2182C1040.443,-460.3994 1066.635,-421.9421 1088.8001,-389 1102.0975,-369.2372 1117.089,-346.7351 1128.0581,-330.2291"/>
<polygon fill="#191970" stroke="#191970" points="1131.0849,-331.998 1133.7019,-321.7314 1125.2538,-328.1252 1131.0849,-331.998"/>
</g>
<!-- Node23 -->
<g id="node24" class="node">
<title>Node23</title>
<g id="a_node24"><a xlink:href="_uniforms_handler_8h.html" target="_top" xlink:title="UniformsHandler.h">
<polygon fill="#ffffff" stroke="#000000" points="918.8001,-425.5 918.8001,-444.5 1016.8001,-444.5 1016.8001,-425.5 918.8001,-425.5"/>
<text text-anchor="middle" x="967.8001" y="-432.5" font-family="Helvetica,sans-Serif" font-size="10.00" fill="#000000">UniformsHandler.h</text>
</a>
</g>
</g>
<!-- Node5&#45;&gt;Node23 -->
<g id="edge26" class="edge">
<title>Node5&#45;&gt;Node23</title>
<path fill="none" stroke="#191970" d="M1003.9349,-481.2977C997.2026,-472.672 988.7415,-461.8312 981.6995,-452.8087"/>
<polygon fill="#191970" stroke="#191970" points="984.3974,-450.5766 975.4855,-444.8469 978.8791,-454.8836 984.3974,-450.5766"/>
</g>
<!-- Node34 -->
<g id="node35" class="node">
<title>Node34</title>
<g id="a_node35"><a xlink:href="_shader_chunk_8h.html" target="_top" xlink:title="ShaderChunk.h">
<polygon fill="#ffffff" stroke="#000000" points="481.8001,-425.5 481.8001,-444.5 565.8001,-444.5 565.8001,-425.5 481.8001,-425.5"/>
<text text-anchor="middle" x="523.8001" y="-432.5" font-family="Helvetica,sans-Serif" font-size="10.00" fill="#000000">ShaderChunk.h</text>
</a>
</g>
</g>
<!-- Node5&#45;&gt;Node34 -->
<g id="edge45" class="edge">
<title>Node5&#45;&gt;Node34</title>
<path fill="none" stroke="#191970" d="M960.7936,-489.6242C865.204,-477.6755 669.7076,-453.2384 576.0661,-441.5332"/>
<polygon fill="#191970" stroke="#191970" points="576.3319,-438.0393 565.975,-440.2719 575.4636,-444.9853 576.3319,-438.0393"/>
</g>
<!-- Node9 -->
<g id="node10" class="node">
<title>Node9</title>
<g id="a_node10"><a xlink:href="_synchronizable_pool_8h.html" target="_top" xlink:title="SynchronizablePool.h">
<polygon fill="#ffffff" stroke="#000000" points="1057.3001,-179.5 1057.3001,-198.5 1168.3001,-198.5 1168.3001,-179.5 1057.3001,-179.5"/>
<text text-anchor="middle" x="1112.8001" y="-186.5" font-family="Helvetica,sans-Serif" font-size="10.00" fill="#000000">SynchronizablePool.h</text>
</a>
</g>
</g>
<!-- Node8&#45;&gt;Node9 -->
<g id="edge9" class="edge">
<title>Node8&#45;&gt;Node9</title>
<path fill="none" stroke="#191970" d="M1139.7474,-291.1389C1134.1368,-269.873 1124.005,-231.4702 1117.8909,-208.2956"/>
<polygon fill="#191970" stroke="#191970" points="1121.2575,-207.3357 1115.3222,-198.5595 1114.4891,-209.1215 1121.2575,-207.3357"/>
</g>
<!-- Node20 -->
<g id="node21" class="node">
<title>Node20</title>
<g id="a_node21"><a xlink:href="_runner_pool_8h.html" target="_top" xlink:title="RunnerPool.h">
<polygon fill="#ffffff" stroke="#000000" points="962.8001,-179.5 962.8001,-198.5 1038.8001,-198.5 1038.8001,-179.5 962.8001,-179.5"/>
<text text-anchor="middle" x="1000.8001" y="-186.5" font-family="Helvetica,sans-Serif" font-size="10.00" fill="#000000">RunnerPool.h</text>
</a>
</g>
</g>
<!-- Node8&#45;&gt;Node20 -->
<g id="edge20" class="edge">
<title>Node8&#45;&gt;Node20</title>
<path fill="none" stroke="#191970" d="M1125.3981,-291.3795C1098.3268,-269.1356 1047.9906,-227.7754 1020.3036,-205.0256"/>
<polygon fill="#191970" stroke="#191970" points="1022.4375,-202.249 1012.4891,-198.6046 1017.9934,-207.6574 1022.4375,-202.249"/>
</g>
<!-- Node21 -->
<g id="node22" class="node">
<title>Node21</title>
<g id="a_node22"><a xlink:href="_main_pool_8h.html" target="_top" xlink:title="MainPool.h">
<polygon fill="#ffffff" stroke="#000000" points="1141.3001,-235.5 1141.3001,-254.5 1206.3001,-254.5 1206.3001,-235.5 1141.3001,-235.5"/>
<text text-anchor="middle" x="1173.8001" y="-242.5" font-family="Helvetica,sans-Serif" font-size="10.00" fill="#000000">MainPool.h</text>
</a>
</g>
</g>
<!-- Node8&#45;&gt;Node21 -->
<g id="edge22" class="edge">
<title>Node8&#45;&gt;Node21</title>
<path fill="none" stroke="#191970" d="M1151.2158,-291.2977C1155.25,-283.0277 1160.2774,-272.7215 1164.5641,-263.9339"/>
<polygon fill="#191970" stroke="#191970" points="1167.7581,-265.3691 1168.9967,-254.8469 1161.4667,-262.3001 1167.7581,-265.3691"/>
</g>
<!-- Node10 -->
<g id="node11" class="node">
<title>Node10</title>
<g id="a_node11"><a xlink:href="_thread_pool_8h.html" target="_top" xlink:title="ThreadPool.h">
<polygon fill="#ffffff" stroke="#000000" points="963.8001,-118 963.8001,-137 1037.8001,-137 1037.8001,-118 963.8001,-118"/>
<text text-anchor="middle" x="1000.8001" y="-125" font-family="Helvetica,sans-Serif" font-size="10.00" fill="#000000">ThreadPool.h</text>
</a>
</g>
</g>
<!-- Node9&#45;&gt;Node10 -->
<g id="edge10" class="edge">
<title>Node9&#45;&gt;Node10</title>
<path fill="none" stroke="#191970" d="M1095.3001,-179.3906C1077.0536,-169.3713 1048.2377,-153.5483 1027.2195,-142.0071"/>
<polygon fill="#191970" stroke="#191970" points="1028.6273,-138.7872 1018.1772,-137.0419 1025.2581,-144.923 1028.6273,-138.7872"/>
</g>
<!-- Node11 -->
<g id="node12" class="node">
<title>Node11</title>
<polygon fill="#ffffff" stroke="#bfbfbf" points="1112.8001,-56.5 1112.8001,-75.5 1156.8001,-75.5 1156.8001,-56.5 1112.8001,-56.5"/>
<text text-anchor="middle" x="1134.8001" y="-63.5" font-family="Helvetica,sans-Serif" font-size="10.00" fill="#000000">thread</text>
</g>
<!-- Node10&#45;&gt;Node11 -->
<g id="edge11" class="edge">
<title>Node10&#45;&gt;Node11</title>
<path fill="none" stroke="#191970" d="M1021.7376,-117.8906C1044.0599,-107.6457 1079.6038,-91.3326 1104.8758,-79.7339"/>
<polygon fill="#191970" stroke="#191970" points="1106.3811,-82.8942 1114.0096,-75.5419 1103.4612,-76.5322 1106.3811,-82.8942"/>
</g>
<!-- Node12 -->
<g id="node13" class="node">
<title>Node12</title>
<polygon fill="#ffffff" stroke="#bfbfbf" points="1174.8001,-56.5 1174.8001,-75.5 1218.8001,-75.5 1218.8001,-56.5 1174.8001,-56.5"/>
<text text-anchor="middle" x="1196.8001" y="-63.5" font-family="Helvetica,sans-Serif" font-size="10.00" fill="#000000">mutex</text>
</g>
<!-- Node10&#45;&gt;Node12 -->
<g id="edge12" class="edge">
<title>Node10&#45;&gt;Node12</title>
<path fill="none" stroke="#191970" d="M1031.8466,-117.9061C1063.0883,-108.2307 1112.9041,-92.7456 1165.0358,-76.2235"/>
<polygon fill="#191970" stroke="#191970" points="1166.3198,-79.4881 1174.7929,-73.1276 1164.2027,-72.8159 1166.3198,-79.4881"/>
</g>
<!-- Node13 -->
<g id="node14" class="node">
<title>Node13</title>
<polygon fill="#ffffff" stroke="#bfbfbf" points="784.3001,-56.5 784.3001,-75.5 879.3001,-75.5 879.3001,-56.5 784.3001,-56.5"/>
<text text-anchor="middle" x="831.8001" y="-63.5" font-family="Helvetica,sans-Serif" font-size="10.00" fill="#000000">condition_variable</text>
</g>
<!-- Node10&#45;&gt;Node13 -->
<g id="edge13" class="edge">
<title>Node10&#45;&gt;Node13</title>
<path fill="none" stroke="#191970" d="M974.3938,-117.8906C945.621,-107.42 899.4305,-90.6111 867.4535,-78.9745"/>
<polygon fill="#191970" stroke="#191970" points="868.615,-75.6726 858.0209,-75.5419 866.2211,-82.2506 868.615,-75.6726"/>
</g>
<!-- Node14 -->
<g id="node15" class="node">
<title>Node14</title>
<polygon fill="#ffffff" stroke="#bfbfbf" points="897.3001,-56.5 897.3001,-75.5 938.3001,-75.5 938.3001,-56.5 897.3001,-56.5"/>
<text text-anchor="middle" x="917.8001" y="-63.5" font-family="Helvetica,sans-Serif" font-size="10.00" fill="#000000">future</text>
</g>
<!-- Node10&#45;&gt;Node14 -->
<g id="edge14" class="edge">
<title>Node10&#45;&gt;Node14</title>
<path fill="none" stroke="#191970" d="M987.8313,-117.8906C974.7967,-108.2324 954.4837,-93.1812 939.0845,-81.771"/>
<polygon fill="#191970" stroke="#191970" points="940.7962,-78.6832 930.6778,-75.5419 936.6288,-84.3075 940.7962,-78.6832"/>
</g>
<!-- Node15 -->
<g id="node16" class="node">
<title>Node15</title>
<polygon fill="#ffffff" stroke="#bfbfbf" points="956.8001,-56.5 956.8001,-75.5 1008.8001,-75.5 1008.8001,-56.5 956.8001,-56.5"/>
<text text-anchor="middle" x="982.8001" y="-63.5" font-family="Helvetica,sans-Serif" font-size="10.00" fill="#000000">memory</text>
</g>
<!-- Node10&#45;&gt;Node15 -->
<g id="edge15" class="edge">
<title>Node10&#45;&gt;Node15</title>
<path fill="none" stroke="#191970" d="M997.9876,-117.8906C995.4662,-109.276 991.6891,-96.3708 988.5325,-85.5858"/>
<polygon fill="#191970" stroke="#191970" points="991.8204,-84.3591 985.6522,-75.7449 985.1022,-86.3254 991.8204,-84.3591"/>
</g>
<!-- Node16 -->
<g id="node17" class="node">
<title>Node16</title>
<polygon fill="#ffffff" stroke="#bfbfbf" points="523.8001,-56.5 523.8001,-75.5 577.8001,-75.5 577.8001,-56.5 523.8001,-56.5"/>
<text text-anchor="middle" x="550.8001" y="-63.5" font-family="Helvetica,sans-Serif" font-size="10.00" fill="#000000">iostream</text>
</g>
<!-- Node10&#45;&gt;Node16 -->
<g id="edge16" class="edge">
<title>Node10&#45;&gt;Node16</title>
<path fill="none" stroke="#191970" d="M963.5919,-122.4149C878.8937,-110.8395 672.515,-82.6344 587.9106,-71.0718"/>
<polygon fill="#191970" stroke="#191970" points="588.3593,-67.6006 577.9775,-69.7142 587.4114,-74.5362 588.3593,-67.6006"/>
</g>
<!-- Node17 -->
<g id="node18" class="node">
<title>Node17</title>
<g id="a_node18"><a xlink:href="_base_pool_8h.html" target="_top" xlink:title="BasePool.h">
<polygon fill="#ffffff" stroke="#000000" points="1027.3001,-56.5 1027.3001,-75.5 1094.3001,-75.5 1094.3001,-56.5 1027.3001,-56.5"/>
<text text-anchor="middle" x="1060.8001" y="-63.5" font-family="Helvetica,sans-Serif" font-size="10.00" fill="#000000">BasePool.h</text>
</a>
</g>
</g>
<!-- Node10&#45;&gt;Node17 -->
<g id="edge17" class="edge">
<title>Node10&#45;&gt;Node17</title>
<path fill="none" stroke="#191970" d="M1010.1751,-117.8906C1019.28,-108.5581 1033.2975,-94.1902 1044.2758,-82.9374"/>
<polygon fill="#191970" stroke="#191970" points="1046.8149,-85.3468 1051.2929,-75.7449 1041.8044,-80.4586 1046.8149,-85.3468"/>
</g>
<!-- Node18 -->
<g id="node19" class="node">
<title>Node18</title>
<polygon fill="#ffffff" stroke="#bfbfbf" points="1004.3001,-.5 1004.3001,-19.5 1047.3001,-19.5 1047.3001,-.5 1004.3001,-.5"/>
<text text-anchor="middle" x="1025.8001" y="-7.5" font-family="Helvetica,sans-Serif" font-size="10.00" fill="#000000">queue</text>
</g>
<!-- Node17&#45;&gt;Node18 -->
<g id="edge18" class="edge">
<title>Node17&#45;&gt;Node18</title>
<path fill="none" stroke="#191970" d="M1054.7036,-56.2455C1049.8855,-48.5367 1043.025,-37.5598 1037.1969,-28.2348"/>
<polygon fill="#191970" stroke="#191970" points="1040.0948,-26.2677 1031.8268,-19.6427 1034.1588,-29.9777 1040.0948,-26.2677"/>
</g>
<!-- Node19 -->
<g id="node20" class="node">
<title>Node19</title>
<polygon fill="#ffffff" stroke="#bfbfbf" points="1065.3001,-.5 1065.3001,-19.5 1124.3001,-19.5 1124.3001,-.5 1065.3001,-.5"/>
<text text-anchor="middle" x="1094.8001" y="-7.5" font-family="Helvetica,sans-Serif" font-size="10.00" fill="#000000">functional</text>
</g>
<!-- Node17&#45;&gt;Node19 -->
<g id="edge19" class="edge">
<title>Node17&#45;&gt;Node19</title>
<path fill="none" stroke="#191970" d="M1066.7224,-56.2455C1071.4028,-48.5367 1078.0674,-37.5598 1083.729,-28.2348"/>
<polygon fill="#191970" stroke="#191970" points="1086.7475,-30.007 1088.9456,-19.6427 1080.764,-26.3741 1086.7475,-30.007"/>
</g>
<!-- Node20&#45;&gt;Node10 -->
<g id="edge21" class="edge">
<title>Node20&#45;&gt;Node10</title>
<path fill="none" stroke="#191970" d="M1000.8001,-179.3906C1000.8001,-170.8657 1000.8001,-158.1392 1000.8001,-147.4235"/>
<polygon fill="#191970" stroke="#191970" points="1004.3002,-147.2448 1000.8001,-137.2449 997.3002,-147.2449 1004.3002,-147.2448"/>
</g>
<!-- Node21&#45;&gt;Node9 -->
<g id="edge25" class="edge">
<title>Node21&#45;&gt;Node9</title>
<path fill="none" stroke="#191970" d="M1163.1747,-235.2455C1154.2528,-227.0549 1141.3121,-215.1749 1130.7809,-205.5069"/>
<polygon fill="#191970" stroke="#191970" points="1133.0372,-202.8271 1123.3037,-198.6427 1128.3033,-207.9837 1133.0372,-202.8271"/>
</g>
<!-- Node22 -->
<g id="node23" class="node">
<title>Node22</title>
<g id="a_node23"><a xlink:href="_multithreading_8hpp.html" target="_top" xlink:title="kryne&#45;engine/Utils\l/Multithreading.hpp">
<polygon fill="#ffffff" stroke="#000000" points="1147.3001,-112.5 1147.3001,-142.5 1246.3001,-142.5 1246.3001,-112.5 1147.3001,-112.5"/>
<text text-anchor="start" x="1155.3001" y="-130.5" font-family="Helvetica,sans-Serif" font-size="10.00" fill="#000000">kryne&#45;engine/Utils</text>
<text text-anchor="middle" x="1196.8001" y="-119.5" font-family="Helvetica,sans-Serif" font-size="10.00" fill="#000000">/Multithreading.hpp</text>
</a>
</g>
</g>
<!-- Node21&#45;&gt;Node22 -->
<g id="edge23" class="edge">
<title>Node21&#45;&gt;Node22</title>
<path fill="none" stroke="#191970" d="M1175.6823,-235.3845C1179.1901,-217.4644 1186.8294,-178.4375 1191.8932,-152.5681"/>
<polygon fill="#191970" stroke="#191970" points="1195.3357,-153.2004 1193.822,-142.7143 1188.4661,-151.8557 1195.3357,-153.2004"/>
</g>
<!-- Node22&#45;&gt;Node12 -->
<g id="edge24" class="edge">
<title>Node22&#45;&gt;Node12</title>
<path fill="none" stroke="#191970" d="M1196.8001,-112.2977C1196.8001,-104.3834 1196.8001,-94.6043 1196.8001,-86.0759"/>
<polygon fill="#191970" stroke="#191970" points="1200.3002,-85.8469 1196.8001,-75.8469 1193.3002,-85.847 1200.3002,-85.8469"/>
</g>
<!-- Node23&#45;&gt;Node1 -->
<g id="edge29" class="edge">
<title>Node23&#45;&gt;Node1</title>
<path fill="none" stroke="#191970" d="M918.7663,-426.4599C915.7335,-425.9583 912.7261,-425.468 909.8001,-425 801.5576,-407.6863 764.378,-436.9436 665.8001,-389 634.6331,-373.8418 607.2058,-343.503 591.8376,-324.1422"/>
<polygon fill="#191970" stroke="#191970" points="594.5293,-321.901 585.655,-316.1132 588.983,-326.1718 594.5293,-321.901"/>
</g>
<!-- Node23&#45;&gt;Node2 -->
<g id="edge30" class="edge">
<title>Node23&#45;&gt;Node2</title>
<path fill="none" stroke="#191970" d="M918.7594,-426.5019C915.7284,-425.9899 912.7232,-425.4858 909.8001,-425 859.8493,-416.6981 721.1894,-424.2111 684.8001,-389 668.1377,-372.8771 665.9967,-344.9794 666.7691,-326.1389"/>
<polygon fill="#191970" stroke="#191970" points="670.2713,-326.2326 667.4976,-316.0073 663.2894,-325.7305 670.2713,-326.2326"/>
</g>
<!-- Node23&#45;&gt;Node3 -->
<g id="edge31" class="edge">
<title>Node23&#45;&gt;Node3</title>
<path fill="none" stroke="#191970" d="M1006.4331,-425.4581C1050.0482,-414.6857 1121.0754,-397.1428 1168.3642,-385.4631"/>
<polygon fill="#191970" stroke="#191970" points="1169.2074,-388.8601 1178.0764,-383.0643 1167.5289,-382.0643 1169.2074,-388.8601"/>
</g>
<!-- Node24 -->
<g id="node25" class="node">
<title>Node24</title>
<polygon fill="#ffffff" stroke="#bfbfbf" points="1219.3001,-297 1219.3001,-316 1260.3001,-316 1260.3001,-297 1219.3001,-297"/>
<text text-anchor="middle" x="1239.8001" y="-304" font-family="Helvetica,sans-Serif" font-size="10.00" fill="#000000">string</text>
</g>
<!-- Node23&#45;&gt;Node24 -->
<g id="edge27" class="edge">
<title>Node23&#45;&gt;Node24</title>
<path fill="none" stroke="#191970" d="M996.1221,-425.4692C1020.9338,-416.8291 1057.7735,-403.2921 1088.8001,-389 1134.5832,-367.9105 1185.615,-338.7799 1215.0855,-321.3709"/>
<polygon fill="#191970" stroke="#191970" points="1217.0534,-324.2729 1223.8622,-316.1556 1213.4775,-318.2552 1217.0534,-324.2729"/>
</g>
<!-- Node25 -->
<g id="node26" class="node">
<title>Node25</title>
<polygon fill="#ffffff" stroke="#bfbfbf" points="516.3001,-364 516.3001,-383 599.3001,-383 599.3001,-364 516.3001,-364"/>
<text text-anchor="middle" x="557.8001" y="-371" font-family="Helvetica,sans-Serif" font-size="10.00" fill="#000000">unordered_map</text>
</g>
<!-- Node23&#45;&gt;Node25 -->
<g id="edge28" class="edge">
<title>Node23&#45;&gt;Node25</title>
<path fill="none" stroke="#191970" d="M918.7798,-426.372C915.7437,-425.8922 912.7318,-425.4307 909.8001,-425 778.6828,-405.7356 743.7999,-414.7473 613.8001,-389 608.9822,-388.0458 603.9713,-386.8939 599.0152,-385.654"/>
<polygon fill="#191970" stroke="#191970" points="599.5595,-382.1782 588.9982,-383.0206 597.7796,-388.9482 599.5595,-382.1782"/>
</g>
<!-- Node26 -->
<g id="node27" class="node">
<title>Node26</title>
<polygon fill="#ffffff" stroke="#bfbfbf" points="973.8001,-364 973.8001,-383 1079.8001,-383 1079.8001,-364 973.8001,-364"/>
<text text-anchor="middle" x="1026.8001" y="-371" font-family="Helvetica,sans-Serif" font-size="10.00" fill="#000000">glm/gtc/type_ptr.hpp</text>
</g>
<!-- Node23&#45;&gt;Node26 -->
<g id="edge32" class="edge">
<title>Node23&#45;&gt;Node26</title>
<path fill="none" stroke="#191970" d="M977.0188,-425.3906C985.8859,-416.1478 999.4912,-401.966 1010.239,-390.7628"/>
<polygon fill="#191970" stroke="#191970" points="1013.0542,-392.8841 1017.4514,-383.2449 1008.0028,-388.0381 1013.0542,-392.8841"/>
</g>
<!-- Node27 -->
<g id="node28" class="node">
<title>Node27</title>
<polygon fill="#ffffff" stroke="#bfbfbf" points="863.8001,-364 863.8001,-383 955.8001,-383 955.8001,-364 863.8001,-364"/>
<text text-anchor="middle" x="909.8001" y="-371" font-family="Helvetica,sans-Serif" font-size="10.00" fill="#000000">boost/variant.hpp</text>
</g>
<!-- Node23&#45;&gt;Node27 -->
<g id="edge33" class="edge">
<title>Node23&#45;&gt;Node27</title>
<path fill="none" stroke="#191970" d="M958.7376,-425.3906C950.0208,-416.1478 936.6461,-401.966 926.0805,-390.7628"/>
<polygon fill="#191970" stroke="#191970" points="928.3977,-388.1186 918.9904,-383.2449 923.3051,-392.9213 928.3977,-388.1186"/>
</g>
<!-- Node28 -->
<g id="node29" class="node">
<title>Node28</title>
<g id="a_node29"><a xlink:href="_texture_8h.html" target="_top" xlink:title="kryne&#45;engine/Textures\l/Texture.h">
<polygon fill="#ffffff" stroke="#000000" points="694.3001,-358.5 694.3001,-388.5 807.3001,-388.5 807.3001,-358.5 694.3001,-358.5"/>
<text text-anchor="start" x="702.3001" y="-376.5" font-family="Helvetica,sans-Serif" font-size="10.00" fill="#000000">kryne&#45;engine/Textures</text>
<text text-anchor="middle" x="750.8001" y="-365.5" font-family="Helvetica,sans-Serif" font-size="10.00" fill="#000000">/Texture.h</text>
</a>
</g>
</g>
<!-- Node23&#45;&gt;Node28 -->
<g id="edge34" class="edge">
<title>Node23&#45;&gt;Node28</title>
<path fill="none" stroke="#191970" d="M933.8938,-425.3906C901.8062,-416.2967 852.8484,-402.4215 813.6292,-391.3064"/>
<polygon fill="#191970" stroke="#191970" points="814.4597,-387.904 803.8843,-388.5446 812.551,-394.6388 814.4597,-387.904"/>
</g>
<!-- Node28&#45;&gt;Node1 -->
<g id="edge42" class="edge">
<title>Node28&#45;&gt;Node1</title>
<path fill="none" stroke="#191970" d="M712.1999,-358.4639C682.342,-346.8332 641.3986,-330.8843 612.7743,-319.7342"/>
<polygon fill="#191970" stroke="#191970" points="613.7902,-316.3737 603.2017,-316.0053 611.2493,-322.8963 613.7902,-316.3737"/>
</g>
<!-- Node28&#45;&gt;Node2 -->
<g id="edge43" class="edge">
<title>Node28&#45;&gt;Node2</title>
<path fill="none" stroke="#191970" d="M732.193,-358.2967C719.169,-347.6551 701.7962,-333.4602 688.5311,-322.6217"/>
<polygon fill="#191970" stroke="#191970" points="690.4526,-319.6719 680.4942,-316.055 686.0235,-325.0926 690.4526,-319.6719"/>
</g>
<!-- Node28&#45;&gt;Node8 -->
<g id="edge44" class="edge">
<title>Node28&#45;&gt;Node8</title>
<path fill="none" stroke="#191970" d="M807.3049,-360.763C812.1984,-359.7819 817.0809,-358.8457 821.8001,-358 931.6928,-338.3066 963.1031,-342.8697 1076.502,-322.1402"/>
<polygon fill="#191970" stroke="#191970" points="1077.436,-325.5267 1086.6302,-320.2619 1076.1596,-318.644 1077.436,-325.5267"/>
</g>
<!-- Node28&#45;&gt;Node16 -->
<g id="edge37" class="edge">
<title>Node28&#45;&gt;Node16</title>
<path fill="none" stroke="#191970" d="M748.0341,-358.1305C743.9541,-334.0848 736.8001,-286.0671 736.8001,-245 736.8001,-245 736.8001,-245 736.8001,-189 736.8001,-118.2609 642.0407,-85.8404 587.7936,-73.0763"/>
<polygon fill="#191970" stroke="#191970" points="588.3693,-69.6186 577.8461,-70.8483 586.8394,-76.4493 588.3693,-69.6186"/>
</g>
<!-- Node28&#45;&gt;Node24 -->
<g id="edge36" class="edge">
<title>Node28&#45;&gt;Node24</title>
<path fill="none" stroke="#191970" d="M807.6514,-360.4471C812.4242,-359.5468 817.187,-358.7148 821.8001,-358 992.9429,-331.4813 1043.5866,-370.6433 1209.8001,-322 1211.4634,-321.5132 1213.1426,-320.9322 1214.8119,-320.2851"/>
<polygon fill="#191970" stroke="#191970" points="1216.4391,-323.3898 1224.0836,-316.0542 1213.533,-317.0216 1216.4391,-323.3898"/>
</g>
<!-- Node29 -->
<g id="node30" class="node">
<title>Node29</title>
<polygon fill="#ffffff" stroke="#bfbfbf" points="764.8001,-297 764.8001,-316 834.8001,-316 834.8001,-297 764.8001,-297"/>
<text text-anchor="middle" x="799.8001" y="-304" font-family="Helvetica,sans-Serif" font-size="10.00" fill="#000000">stb_image.h</text>
</g>
<!-- Node28&#45;&gt;Node29 -->
<g id="edge35" class="edge">
<title>Node28&#45;&gt;Node29</title>
<path fill="none" stroke="#191970" d="M761.919,-358.2967C769.331,-348.1618 779.1001,-334.804 786.8611,-324.1921"/>
<polygon fill="#191970" stroke="#191970" points="789.734,-326.1928 792.8121,-316.055 784.0838,-322.0606 789.734,-326.1928"/>
</g>
<!-- Node30 -->
<g id="node31" class="node">
<title>Node30</title>
<polygon fill="#ffffff" stroke="#bfbfbf" points="853.3001,-297 853.3001,-316 960.3001,-316 960.3001,-297 853.3001,-297"/>
<text text-anchor="middle" x="906.8001" y="-304" font-family="Helvetica,sans-Serif" font-size="10.00" fill="#000000">boost/filesystem.hpp</text>
</g>
<!-- Node28&#45;&gt;Node30 -->
<g id="edge38" class="edge">
<title>Node28&#45;&gt;Node30</title>
<path fill="none" stroke="#191970" d="M785.8095,-358.4639C812.5739,-346.969 849.159,-331.2561 875.0724,-320.1266"/>
<polygon fill="#191970" stroke="#191970" points="876.6315,-323.2662 884.4387,-316.1039 873.8691,-316.8343 876.6315,-323.2662"/>
</g>
<!-- Node31 -->
<g id="node32" class="node">
<title>Node31</title>
<polygon fill="#ffffff" stroke="#bfbfbf" points="978.8001,-297 978.8001,-316 1068.8001,-316 1068.8001,-297 978.8001,-297"/>
<text text-anchor="middle" x="1023.8001" y="-304" font-family="Helvetica,sans-Serif" font-size="10.00" fill="#000000">boost/format.hpp</text>
</g>
<!-- Node28&#45;&gt;Node31 -->
<g id="edge39" class="edge">
<title>Node28&#45;&gt;Node31</title>
<path fill="none" stroke="#191970" d="M807.4241,-360.821C851.5232,-350.7782 914.211,-336.1333 968.8001,-322 972.6867,-320.9938 976.7189,-319.9183 980.7536,-318.8207"/>
<polygon fill="#191970" stroke="#191970" points="981.9981,-322.1081 990.7063,-316.0734 980.1355,-315.3605 981.9981,-322.1081"/>
</g>
<!-- Node32 -->
<g id="node33" class="node">
<title>Node32</title>
<polygon fill="#ffffff" stroke="#bfbfbf" points="360.3001,-297 360.3001,-316 435.3001,-316 435.3001,-297 360.3001,-297"/>
<text text-anchor="middle" x="397.8001" y="-304" font-family="Helvetica,sans-Serif" font-size="10.00" fill="#000000">glm/vec2.hpp</text>
</g>
<!-- Node28&#45;&gt;Node32 -->
<g id="edge40" class="edge">
<title>Node28&#45;&gt;Node32</title>
<path fill="none" stroke="#191970" d="M694.2267,-366.7499C632.2058,-358.7167 530.0335,-343.6159 443.8001,-322 440.4282,-321.1548 436.9485,-320.1795 433.4835,-319.138"/>
<polygon fill="#191970" stroke="#191970" points="434.4487,-315.7723 423.8583,-316.0806 432.3295,-322.4438 434.4487,-315.7723"/>
</g>
<!-- Node33 -->
<g id="node34" class="node">
<title>Node33</title>
<polygon fill="#ffffff" stroke="#bfbfbf" points="453.3001,-297 453.3001,-316 528.3001,-316 528.3001,-297 453.3001,-297"/>
<text text-anchor="middle" x="490.8001" y="-304" font-family="Helvetica,sans-Serif" font-size="10.00" fill="#000000">glm/vec3.hpp</text>
</g>
<!-- Node28&#45;&gt;Node33 -->
<g id="edge41" class="edge">
<title>Node28&#45;&gt;Node33</title>
<path fill="none" stroke="#191970" d="M693.9663,-361.0813C650.8697,-351.3452 590.2998,-336.9768 537.8001,-322 534.6604,-321.1043 531.4172,-320.133 528.1704,-319.1283"/>
<polygon fill="#191970" stroke="#191970" points="529.1098,-315.7543 518.5193,-316.056 526.9864,-322.4245 529.1098,-315.7543"/>
</g>
<!-- Node34&#45;&gt;Node16 -->
<g id="edge49" class="edge">
<title>Node34&#45;&gt;Node16</title>
<path fill="none" stroke="#191970" d="M504.0665,-425.416C486.5158,-416.6376 460.3666,-402.9268 438.8001,-389 397.505,-362.3333 377.78,-363.0911 350.8001,-322 331.4538,-292.535 331.8001,-280.2487 331.8001,-245 331.8001,-245 331.8001,-245 331.8001,-189 331.8001,-106.7613 450.6505,-78.9381 513.2421,-69.9874"/>
<polygon fill="#191970" stroke="#191970" points="514.0577,-73.4097 523.5064,-68.6166 513.1311,-66.4713 514.0577,-73.4097"/>
</g>
<!-- Node34&#45;&gt;Node24 -->
<g id="edge47" class="edge">
<title>Node34&#45;&gt;Node24</title>
<path fill="none" stroke="#191970" d="M565.8702,-431.0385C635.586,-424.0322 771.7511,-408.3511 815.8001,-389 836.0722,-380.0943 834.29,-366.343 854.8001,-358 1001.6986,-298.2451 1057.7888,-367.1929 1209.8001,-322 1211.4613,-321.5061 1213.1389,-320.9196 1214.807,-320.2684"/>
<polygon fill="#191970" stroke="#191970" points="1216.4389,-323.3708 1224.0755,-316.0268 1213.526,-317.0056 1216.4389,-323.3708"/>
</g>
<!-- Node34&#45;&gt;Node25 -->
<g id="edge46" class="edge">
<title>Node34&#45;&gt;Node25</title>
<path fill="none" stroke="#191970" d="M529.1126,-425.3906C534.024,-416.5068 541.458,-403.0601 547.5276,-392.0811"/>
<polygon fill="#191970" stroke="#191970" points="550.6374,-393.6899 552.4127,-383.2449 544.5113,-390.3031 550.6374,-393.6899"/>
</g>
<!-- Node35 -->
<g id="node36" class="node">
<title>Node35</title>
<polygon fill="#ffffff" stroke="#bfbfbf" points="447.8001,-364 447.8001,-383 497.8001,-383 497.8001,-364 447.8001,-364"/>
<text text-anchor="middle" x="472.8001" y="-371" font-family="Helvetica,sans-Serif" font-size="10.00" fill="#000000">fstream</text>
</g>
<!-- Node34&#45;&gt;Node35 -->
<g id="edge48" class="edge">
<title>Node34&#45;&gt;Node35</title>
<path fill="none" stroke="#191970" d="M515.8313,-425.3906C508.241,-416.2376 496.634,-402.2409 487.3869,-391.09"/>
<polygon fill="#191970" stroke="#191970" points="489.9588,-388.7083 480.8812,-383.2449 484.5704,-393.1766 489.9588,-388.7083"/>
</g>
<!-- Node36 -->
<g id="node37" class="node">
<title>Node36</title>
<g id="a_node37"><a xlink:href="kryne-engine_2_utils_2_utils_8h.html" target="_top" xlink:title="kryne&#45;engine/Utils\l/Utils.h">
<polygon fill="#ffffff" stroke="#000000" points="31.3001,-358.5 31.3001,-388.5 126.3001,-388.5 126.3001,-358.5 31.3001,-358.5"/>
<text text-anchor="start" x="39.3001" y="-376.5" font-family="Helvetica,sans-Serif" font-size="10.00" fill="#000000">kryne&#45;engine/Utils</text>
<text text-anchor="middle" x="78.8001" y="-365.5" font-family="Helvetica,sans-Serif" font-size="10.00" fill="#000000">/Utils.h</text>
</a>
</g>
</g>
<!-- Node34&#45;&gt;Node36 -->
<g id="edge50" class="edge">
<title>Node34&#45;&gt;Node36</title>
<path fill="none" stroke="#191970" d="M481.538,-429.6586C416.456,-421.3668 287.7996,-404.7123 178.8001,-389 165.0175,-387.0132 150.1833,-384.7709 136.27,-382.6217"/>
<polygon fill="#191970" stroke="#191970" points="136.7485,-379.1541 126.3298,-381.0781 135.6743,-386.0712 136.7485,-379.1541"/>
</g>
<!-- Node37 -->
<g id="node38" class="node">
<title>Node37</title>
<g id="a_node38"><a xlink:href="_string_utils_8hpp.html" target="_top" xlink:title="StringUtils.hpp">
<polygon fill="#ffffff" stroke="#000000" points="87.3001,-179.5 87.3001,-198.5 168.3001,-198.5 168.3001,-179.5 87.3001,-179.5"/>
<text text-anchor="middle" x="127.8001" y="-186.5" font-family="Helvetica,sans-Serif" font-size="10.00" fill="#000000">StringUtils.hpp</text>
</a>
</g>
</g>
<!-- Node36&#45;&gt;Node37 -->
<g id="edge51" class="edge">
<title>Node36&#45;&gt;Node37</title>
<path fill="none" stroke="#191970" d="M53.301,-358.3983C40.6811,-349.4878 26.5282,-337.0126 18.8001,-322 1.0606,-287.5394 -8.929,-267.0947 12.8001,-235 27.2514,-213.6549 53.3847,-202.2136 77.0908,-196.0813"/>
<polygon fill="#191970" stroke="#191970" points="78.1124,-199.4372 87.0608,-193.7648 76.5281,-192.6189 78.1124,-199.4372"/>
</g>
<!-- Node38 -->
<g id="node39" class="node">
<title>Node38</title>
<g id="a_node39"><a xlink:href="_vector_mapping_8hpp.html" target="_top" xlink:title="VectorMapping.hpp">
<polygon fill="#ffffff" stroke="#000000" points="28.3001,-297 28.3001,-316 129.3001,-316 129.3001,-297 28.3001,-297"/>
<text text-anchor="middle" x="78.8001" y="-304" font-family="Helvetica,sans-Serif" font-size="10.00" fill="#000000">VectorMapping.hpp</text>
</a>
</g>
</g>
<!-- Node36&#45;&gt;Node38 -->
<g id="edge53" class="edge">
<title>Node36&#45;&gt;Node38</title>
<path fill="none" stroke="#191970" d="M78.8001,-358.2967C78.8001,-348.7699 78.8001,-336.3954 78.8001,-326.1306"/>
<polygon fill="#191970" stroke="#191970" points="82.3002,-326.0549 78.8001,-316.055 75.3002,-326.055 82.3002,-326.0549"/>
</g>
<!-- Node37&#45;&gt;Node16 -->
<g id="edge52" class="edge">
<title>Node37&#45;&gt;Node16</title>
<path fill="none" stroke="#191970" d="M147.8684,-179.3815C182.0386,-163.3447 254.0218,-131.0306 317.8001,-112 385.5719,-91.7778 467.1282,-78.0033 513.5717,-71.1148"/>
<polygon fill="#191970" stroke="#191970" points="514.0948,-74.5756 523.4856,-69.6702 513.0854,-67.6488 514.0948,-74.5756"/>
</g>
<!-- Node39 -->
<g id="node40" class="node">
<title>Node39</title>
<polygon fill="#ffffff" stroke="#bfbfbf" points="153.8001,-235.5 153.8001,-254.5 197.8001,-254.5 197.8001,-235.5 153.8001,-235.5"/>
<text text-anchor="middle" x="175.8001" y="-242.5" font-family="Helvetica,sans-Serif" font-size="10.00" fill="#000000">vector</text>
</g>
<!-- Node38&#45;&gt;Node39 -->
<g id="edge54" class="edge">
<title>Node38&#45;&gt;Node39</title>
<path fill="none" stroke="#191970" d="M93.9563,-296.8906C109.4744,-287.0519 133.8194,-271.6167 151.9285,-260.1351"/>
<polygon fill="#191970" stroke="#191970" points="154.1788,-262.8526 160.7503,-254.5419 150.4305,-256.9407 154.1788,-262.8526"/>
</g>
<!-- Node40 -->
<g id="node41" class="node">
<title>Node40</title>
<polygon fill="#ffffff" stroke="#bfbfbf" points="21.8001,-235.5 21.8001,-254.5 135.8001,-254.5 135.8001,-235.5 21.8001,-235.5"/>
<text text-anchor="middle" x="78.8001" y="-242.5" font-family="Helvetica,sans-Serif" font-size="10.00" fill="#000000">glm/detail/qualifier.hpp</text>
</g>
<!-- Node38&#45;&gt;Node40 -->
<g id="edge55" class="edge">
<title>Node38&#45;&gt;Node40</title>
<path fill="none" stroke="#191970" d="M78.8001,-296.8906C78.8001,-288.3657 78.8001,-275.6392 78.8001,-264.9235"/>
<polygon fill="#191970" stroke="#191970" points="82.3002,-264.7448 78.8001,-254.7449 75.3002,-264.7449 82.3002,-264.7448"/>
</g>
<!-- Node41&#45;&gt;Node1 -->
<g id="edge60" class="edge">
<title>Node41&#45;&gt;Node1</title>
<path fill="none" stroke="#191970" d="M315.9002,-365.1876C374.1341,-356.8663 462.0946,-342.3666 536.8001,-322 539.6121,-321.2334 542.5015,-320.3588 545.3853,-319.4242"/>
<polygon fill="#191970" stroke="#191970" points="546.7388,-322.6597 555.0476,-316.086 544.4529,-316.0434 546.7388,-322.6597"/>
</g>
<!-- Node41&#45;&gt;Node2 -->
<g id="edge61" class="edge">
<title>Node41&#45;&gt;Node2</title>
<path fill="none" stroke="#191970" d="M315.8778,-367.8152C389.7648,-360.5049 514.5693,-345.8307 619.8001,-322 623.7024,-321.1163 627.7412,-320.0665 631.7488,-318.9361"/>
<polygon fill="#191970" stroke="#191970" points="632.9711,-322.2238 641.5512,-316.0083 630.9677,-315.5166 632.9711,-322.2238"/>
</g>
<!-- Node41&#45;&gt;Node32 -->
<g id="edge62" class="edge">
<title>Node41&#45;&gt;Node32</title>
<path fill="none" stroke="#191970" d="M284.5653,-358.4639C309.3933,-347.0702 343.2513,-331.5327 367.4629,-320.4219"/>
<polygon fill="#191970" stroke="#191970" points="369.2433,-323.4559 376.8721,-316.1039 366.3236,-317.0938 369.2433,-323.4559"/>
</g>
<!-- Node41&#45;&gt;Node33 -->
<g id="edge63" class="edge">
<title>Node41&#45;&gt;Node33</title>
<path fill="none" stroke="#191970" d="M311.2917,-358.4681C349.3382,-348.6268 399.655,-335.1883 443.8001,-322 446.7509,-321.1184 449.7968,-320.1799 452.8533,-319.2176"/>
<polygon fill="#191970" stroke="#191970" points="454.0979,-322.494 462.5486,-316.1037 451.9573,-315.8293 454.0979,-322.494"/>
</g>
<!-- Node41&#45;&gt;Node39 -->
<g id="edge57" class="edge">
<title>Node41&#45;&gt;Node39</title>
<path fill="none" stroke="#191970" d="M216.4018,-358.4184C201.3699,-350.0375 185.3652,-338.0181 176.8001,-322 167.3756,-304.3746 168.6175,-281.0752 171.282,-264.7398"/>
<polygon fill="#191970" stroke="#191970" points="174.7613,-265.1836 173.2403,-254.6986 167.8908,-263.8437 174.7613,-265.1836"/>
</g>
<!-- Node42 -->
<g id="node43" class="node">
<title>Node42</title>
<polygon fill="#ffffff" stroke="#bfbfbf" points="185.8001,-297 185.8001,-316 237.8001,-316 237.8001,-297 185.8001,-297"/>
<text text-anchor="middle" x="211.8001" y="-304" font-family="Helvetica,sans-Serif" font-size="10.00" fill="#000000">stdarg.h</text>
</g>
<!-- Node41&#45;&gt;Node42 -->
<g id="edge58" class="edge">
<title>Node41&#45;&gt;Node42</title>
<path fill="none" stroke="#191970" d="M242.7235,-358.2967C236.7938,-348.3645 229.0163,-335.3371 222.7446,-324.8321"/>
<polygon fill="#191970" stroke="#191970" points="225.6359,-322.8471 217.5046,-316.055 219.6255,-326.4354 225.6359,-322.8471"/>
</g>
<!-- Node43 -->
<g id="node44" class="node">
<title>Node43</title>
<polygon fill="#ffffff" stroke="#bfbfbf" points="255.8001,-297 255.8001,-316 303.8001,-316 303.8001,-297 255.8001,-297"/>
<text text-anchor="middle" x="279.8001" y="-304" font-family="Helvetica,sans-Serif" font-size="10.00" fill="#000000">stdlib.h</text>
</g>
<!-- Node41&#45;&gt;Node43 -->
<g id="edge59" class="edge">
<title>Node41&#45;&gt;Node43</title>
<path fill="none" stroke="#191970" d="M258.1537,-358.2967C262.2198,-348.5672 267.5271,-335.8675 271.8688,-325.4784"/>
<polygon fill="#191970" stroke="#191970" points="275.1803,-326.6313 275.807,-316.055 268.7216,-323.9321 275.1803,-326.6313"/>
</g>
<!-- Node44&#45;&gt;Node6 -->
<g id="edge65" class="edge">
<title>Node44&#45;&gt;Node6</title>
<path fill="none" stroke="#191970" d="M1204.5978,-481.2977C1202.361,-473.2055 1199.5852,-463.1639 1197.1911,-454.5029"/>
<polygon fill="#191970" stroke="#191970" points="1200.5599,-453.5529 1194.522,-444.8469 1193.8129,-455.418 1200.5599,-453.5529"/>
</g>
<!-- Node44&#45;&gt;Node24 -->
<g id="edge66" class="edge">
<title>Node44&#45;&gt;Node24</title>
<path fill="none" stroke="#191970" d="M1220.6955,-481.2118C1235.3621,-461.2972 1259.4897,-424.7846 1268.8001,-389 1272.2693,-375.6661 1272.2945,-371.3273 1268.8001,-358 1265.6772,-346.0893 1259.1099,-334.029 1253.0136,-324.5764"/>
<polygon fill="#191970" stroke="#191970" points="1255.7503,-322.3777 1247.2192,-316.0952 1249.9705,-326.3266 1255.7503,-322.3777"/>
</g>
<!-- Node45 -->
<g id="node46" class="node">
<title>Node45</title>
<polygon fill="#ffffff" stroke="#bfbfbf" points="1265.8001,-425.5 1265.8001,-444.5 1297.8001,-444.5 1297.8001,-425.5 1265.8001,-425.5"/>
<text text-anchor="middle" x="1281.8001" y="-432.5" font-family="Helvetica,sans-Serif" font-size="10.00" fill="#000000">any</text>
</g>
<!-- Node44&#45;&gt;Node45 -->
<g id="edge67" class="edge">
<title>Node44&#45;&gt;Node45</title>
<path fill="none" stroke="#191970" d="M1226.845,-481.2977C1237.6115,-472.2274 1251.2852,-460.7077 1262.2996,-451.4285"/>
<polygon fill="#191970" stroke="#191970" points="1264.7191,-453.9667 1270.1119,-444.8469 1260.209,-448.6132 1264.7191,-453.9667"/>
</g>
</g>
</svg>
