<?xml version="1.0" encoding="UTF-8" standalone="no"?>
<!DOCTYPE svg PUBLIC "-//W3C//DTD SVG 1.1//EN"
 "http://www.w3.org/Graphics/SVG/1.1/DTD/svg11.dtd">
<!-- Generated by graphviz version 2.44.1 (20200629.0846)
 -->
<!-- Title: kryne&#45;engine/include/kryne&#45;engine/3DObjects/BaseObject.h Pages: 1 -->
<svg width="899pt" height="585pt"
 viewBox="0.00 0.00 899.07 585.00" xmlns="http://www.w3.org/2000/svg" xmlns:xlink="http://www.w3.org/1999/xlink">
<g id="graph0" class="graph" transform="scale(1 1) rotate(0) translate(4 581)">
<title>kryne&#45;engine/include/kryne&#45;engine/3DObjects/BaseObject.h</title>
<polygon fill="white" stroke="transparent" points="-4,4 -4,-581 895.07,-581 895.07,4 -4,4"/>
<!-- Node1 -->
<g id="node1" class="node">
<title>Node1</title>
<g id="a_node1"><a xlink:title=" ">
<polygon fill="#bfbfbf" stroke="black" points="269.07,-535.5 269.07,-576.5 393.07,-576.5 393.07,-535.5 269.07,-535.5"/>
<text text-anchor="start" x="277.07" y="-564.5" font-family="Helvetica,sans-Serif" font-size="10.00">kryne&#45;engine/include</text>
<text text-anchor="start" x="277.07" y="-553.5" font-family="Helvetica,sans-Serif" font-size="10.00">/kryne&#45;engine/3DObjects</text>
<text text-anchor="middle" x="331.07" y="-542.5" font-family="Helvetica,sans-Serif" font-size="10.00">/BaseObject.h</text>
</a>
</g>
</g>
<!-- Node2 -->
<g id="node2" class="node">
<title>Node2</title>
<g id="a_node2"><a xlink:href="3_d_objects_8h.html" target="_top" xlink:title=" ">
<polygon fill="white" stroke="black" points="80.57,-385 80.57,-415 207.57,-415 207.57,-385 80.57,-385"/>
<text text-anchor="start" x="88.57" y="-403" font-family="Helvetica,sans-Serif" font-size="10.00">kryne&#45;engine/include</text>
<text text-anchor="middle" x="144.07" y="-392" font-family="Helvetica,sans-Serif" font-size="10.00">/KEModules/3DObjects.h</text>
</a>
</g>
</g>
<!-- Node1&#45;&gt;Node2 -->
<g id="edge1" class="edge">
<title>Node1&#45;&gt;Node2</title>
<path fill="none" stroke="midnightblue" d="M293.12,-529.48C279.87,-520.22 265.08,-509.45 252.07,-499 217.13,-470.93 178.88,-434.83 158.59,-415.22"/>
<polygon fill="midnightblue" stroke="midnightblue" points="291.35,-532.51 301.56,-535.33 295.34,-526.76 291.35,-532.51"/>
</g>
<!-- Node3 -->
<g id="node3" class="node">
<title>Node3</title>
<g id="a_node3"><a xlink:href="_hierarchical_node_8h.html" target="_top" xlink:title=" ">
<polygon fill="white" stroke="black" points="269.07,-457.5 269.07,-498.5 393.07,-498.5 393.07,-457.5 269.07,-457.5"/>
<text text-anchor="start" x="277.07" y="-486.5" font-family="Helvetica,sans-Serif" font-size="10.00">kryne&#45;engine/include</text>
<text text-anchor="start" x="277.07" y="-475.5" font-family="Helvetica,sans-Serif" font-size="10.00">/kryne&#45;engine/3DObjects</text>
<text text-anchor="middle" x="331.07" y="-464.5" font-family="Helvetica,sans-Serif" font-size="10.00">/HierarchicalNode.h</text>
</a>
</g>
</g>
<!-- Node1&#45;&gt;Node3 -->
<g id="edge2" class="edge">
<title>Node1&#45;&gt;Node3</title>
<path fill="none" stroke="midnightblue" d="M331.07,-525.3C331.07,-516.3 331.07,-506.65 331.07,-498.51"/>
<polygon fill="midnightblue" stroke="midnightblue" points="327.57,-525.43 331.07,-535.43 334.57,-525.43 327.57,-525.43"/>
</g>
<!-- Node4 -->
<g id="node4" class="node">
<title>Node4</title>
<g id="a_node4"><a xlink:href="_old_render_pass_8h.html" target="_top" xlink:title=" ">
<polygon fill="white" stroke="black" points="226.07,-379.5 226.07,-420.5 348.07,-420.5 348.07,-379.5 226.07,-379.5"/>
<text text-anchor="start" x="234.07" y="-408.5" font-family="Helvetica,sans-Serif" font-size="10.00">kryne&#45;engine/include</text>
<text text-anchor="start" x="234.07" y="-397.5" font-family="Helvetica,sans-Serif" font-size="10.00">/kryne&#45;engine/Rendering</text>
<text text-anchor="middle" x="287.07" y="-386.5" font-family="Helvetica,sans-Serif" font-size="10.00">/OldRenderPass.h</text>
</a>
</g>
</g>
<!-- Node1&#45;&gt;Node4 -->
<g id="edge27" class="edge">
<title>Node1&#45;&gt;Node4</title>
<path fill="none" stroke="midnightblue" d="M285.64,-529.09C275.36,-520.89 265.8,-510.82 260.07,-499 247.59,-473.28 261.72,-440.86 273.77,-420.53"/>
<polygon fill="midnightblue" stroke="midnightblue" points="283.86,-532.13 293.98,-535.27 288.03,-526.51 283.86,-532.13"/>
</g>
<!-- Node18 -->
<g id="node18" class="node">
<title>Node18</title>
<g id="a_node18"><a xlink:href="_model_loader_8h.html" target="_top" xlink:title=" ">
<polygon fill="white" stroke="black" points="411.07,-457.5 411.07,-498.5 535.07,-498.5 535.07,-457.5 411.07,-457.5"/>
<text text-anchor="start" x="419.07" y="-486.5" font-family="Helvetica,sans-Serif" font-size="10.00">kryne&#45;engine/include</text>
<text text-anchor="start" x="419.07" y="-475.5" font-family="Helvetica,sans-Serif" font-size="10.00">/kryne&#45;engine/3DObjects</text>
<text text-anchor="middle" x="473.07" y="-464.5" font-family="Helvetica,sans-Serif" font-size="10.00">/Model/ModelLoader.h</text>
</a>
</g>
</g>
<!-- Node1&#45;&gt;Node18 -->
<g id="edge25" class="edge">
<title>Node1&#45;&gt;Node18</title>
<path fill="none" stroke="midnightblue" d="M376.61,-530.63C396.01,-520.24 418.34,-508.29 436.62,-498.51"/>
<polygon fill="midnightblue" stroke="midnightblue" points="374.8,-527.62 367.64,-535.43 378.1,-533.8 374.8,-527.62"/>
</g>
<!-- Node20 -->
<g id="node20" class="node">
<title>Node20</title>
<g id="a_node20"><a xlink:href="_base_object_8cpp.html" target="_top" xlink:title=" ">
<polygon fill="white" stroke="black" points="553.57,-463 553.57,-493 690.57,-493 690.57,-463 553.57,-463"/>
<text text-anchor="start" x="561.57" y="-481" font-family="Helvetica,sans-Serif" font-size="10.00">kryne&#45;engine/src/3DObjects</text>
<text text-anchor="middle" x="622.07" y="-470" font-family="Helvetica,sans-Serif" font-size="10.00">/BaseObject.cpp</text>
</a>
</g>
</g>
<!-- Node1&#45;&gt;Node20 -->
<g id="edge28" class="edge">
<title>Node1&#45;&gt;Node20</title>
<path fill="none" stroke="midnightblue" d="M402.82,-536.26C454.04,-522.88 521.84,-505.18 568.4,-493.02"/>
<polygon fill="midnightblue" stroke="midnightblue" points="401.93,-532.88 393.14,-538.79 403.7,-539.65 401.93,-532.88"/>
</g>
<!-- Node3&#45;&gt;Node2 -->
<g id="edge3" class="edge">
<title>Node3&#45;&gt;Node2</title>
<path fill="none" stroke="midnightblue" d="M273.51,-453.61C242.53,-441.02 205.33,-425.9 178.78,-415.11"/>
<polygon fill="midnightblue" stroke="midnightblue" points="272.33,-456.91 282.91,-457.43 274.96,-450.42 272.33,-456.91"/>
</g>
<!-- Node3&#45;&gt;Node4 -->
<g id="edge4" class="edge">
<title>Node3&#45;&gt;Node4</title>
<path fill="none" stroke="midnightblue" d="M308.17,-448.76C302.33,-439.35 296.58,-429.1 292.38,-420.51"/>
<polygon fill="midnightblue" stroke="midnightblue" points="305.39,-450.91 313.75,-457.43 311.28,-447.12 305.39,-450.91"/>
</g>
<!-- Node14 -->
<g id="node14" class="node">
<title>Node14</title>
<g id="a_node14"><a xlink:href="_shadow_map_handler_8h.html" target="_top" xlink:title=" ">
<polygon fill="white" stroke="black" points="282.07,-212.5 282.07,-253.5 470.07,-253.5 470.07,-212.5 282.07,-212.5"/>
<text text-anchor="start" x="290.07" y="-241.5" font-family="Helvetica,sans-Serif" font-size="10.00">kryne&#45;engine/include</text>
<text text-anchor="start" x="290.07" y="-230.5" font-family="Helvetica,sans-Serif" font-size="10.00">/kryne&#45;engine/Rendering</text>
<text text-anchor="middle" x="376.07" y="-219.5" font-family="Helvetica,sans-Serif" font-size="10.00">/ShadowMapping/ShadowMapHandler.h</text>
</a>
</g>
</g>
<!-- Node3&#45;&gt;Node14 -->
<g id="edge23" class="edge">
<title>Node3&#45;&gt;Node14</title>
<path fill="none" stroke="midnightblue" d="M346.65,-448.24C350.66,-439.69 354.55,-430.16 357.07,-421 373.4,-361.53 375.97,-287.94 376.2,-253.5"/>
<polygon fill="midnightblue" stroke="midnightblue" points="343.42,-446.88 342.13,-457.4 349.69,-449.98 343.42,-446.88"/>
</g>
<!-- Node17 -->
<g id="node17" class="node">
<title>Node17</title>
<g id="a_node17"><a xlink:href="_hierarchical_node_8cpp.html" target="_top" xlink:title=" ">
<polygon fill="white" stroke="black" points="404.57,-385 404.57,-415 541.57,-415 541.57,-385 404.57,-385"/>
<text text-anchor="start" x="412.57" y="-403" font-family="Helvetica,sans-Serif" font-size="10.00">kryne&#45;engine/src/3DObjects</text>
<text text-anchor="middle" x="473.07" y="-392" font-family="Helvetica,sans-Serif" font-size="10.00">/HierarchicalNode.cpp</text>
</a>
</g>
</g>
<!-- Node3&#45;&gt;Node17 -->
<g id="edge24" class="edge">
<title>Node3&#45;&gt;Node17</title>
<path fill="none" stroke="midnightblue" d="M376.58,-452.64C399.64,-440.3 426.85,-425.73 446.49,-415.23"/>
<polygon fill="midnightblue" stroke="midnightblue" points="374.8,-449.62 367.64,-457.43 378.1,-455.8 374.8,-449.62"/>
</g>
<!-- Node4&#45;&gt;Node3 -->
<g id="edge6" class="edge">
<title>Node4&#45;&gt;Node3</title>
<path fill="none" stroke="midnightblue" d="M309.92,-429.17C315.76,-438.57 321.52,-448.83 325.72,-457.43"/>
<polygon fill="midnightblue" stroke="midnightblue" points="312.7,-427.02 304.34,-420.51 306.81,-430.81 312.7,-427.02"/>
</g>
<!-- Node5 -->
<g id="node5" class="node">
<title>Node5</title>
<g id="a_node5"><a xlink:href="_rendering_8h.html" target="_top" xlink:title=" ">
<polygon fill="white" stroke="black" points="395.57,-67.5 395.57,-97.5 520.57,-97.5 520.57,-67.5 395.57,-67.5"/>
<text text-anchor="start" x="403.57" y="-85.5" font-family="Helvetica,sans-Serif" font-size="10.00">kryne&#45;engine/include</text>
<text text-anchor="middle" x="458.07" y="-74.5" font-family="Helvetica,sans-Serif" font-size="10.00">/KEModules/Rendering.h</text>
</a>
</g>
</g>
<!-- Node4&#45;&gt;Node5 -->
<g id="edge5" class="edge">
<title>Node4&#45;&gt;Node5</title>
<path fill="none" stroke="midnightblue" d="M215.98,-376.6C181.05,-365.09 143.08,-351.7 127.07,-343 58.99,-306.02 -31.91,-275.78 12.07,-212 55.8,-148.56 283.11,-108.19 395.3,-91.83"/>
<polygon fill="midnightblue" stroke="midnightblue" points="215.14,-380 225.74,-379.78 217.32,-373.35 215.14,-380"/>
</g>
<!-- Node6 -->
<g id="node6" class="node">
<title>Node6</title>
<g id="a_node6"><a xlink:href="_main_renderer_8h.html" target="_top" xlink:title=" ">
<polygon fill="white" stroke="black" points="517.07,-212.5 517.07,-253.5 639.07,-253.5 639.07,-212.5 517.07,-212.5"/>
<text text-anchor="start" x="525.07" y="-241.5" font-family="Helvetica,sans-Serif" font-size="10.00">kryne&#45;engine/include</text>
<text text-anchor="start" x="525.07" y="-230.5" font-family="Helvetica,sans-Serif" font-size="10.00">/kryne&#45;engine/Rendering</text>
<text text-anchor="middle" x="578.07" y="-219.5" font-family="Helvetica,sans-Serif" font-size="10.00">/MainRenderer.h</text>
</a>
</g>
</g>
<!-- Node4&#45;&gt;Node6 -->
<g id="edge7" class="edge">
<title>Node4&#45;&gt;Node6</title>
<path fill="none" stroke="midnightblue" d="M330.53,-374.36C388.63,-341.41 490.45,-283.68 543.59,-253.55"/>
<polygon fill="midnightblue" stroke="midnightblue" points="328.56,-371.45 321.59,-379.42 332.02,-377.54 328.56,-371.45"/>
</g>
<!-- Node13 -->
<g id="node13" class="node">
<title>Node13</title>
<g id="a_node13"><a xlink:href="_directional_shadow_map_rendering_8h.html" target="_top" xlink:title=" ">
<polygon fill="white" stroke="black" points="136.07,-290.5 136.07,-342.5 310.07,-342.5 310.07,-290.5 136.07,-290.5"/>
<text text-anchor="start" x="144.07" y="-330.5" font-family="Helvetica,sans-Serif" font-size="10.00">kryne&#45;engine/include</text>
<text text-anchor="start" x="144.07" y="-319.5" font-family="Helvetica,sans-Serif" font-size="10.00">/kryne&#45;engine/Rendering</text>
<text text-anchor="start" x="144.07" y="-308.5" font-family="Helvetica,sans-Serif" font-size="10.00">/ShadowMapping/DirectionalShadow</text>
<text text-anchor="middle" x="223.07" y="-297.5" font-family="Helvetica,sans-Serif" font-size="10.00">MapRendering.h</text>
</a>
</g>
</g>
<!-- Node4&#45;&gt;Node13 -->
<g id="edge16" class="edge">
<title>Node4&#45;&gt;Node13</title>
<path fill="none" stroke="midnightblue" d="M265.39,-371.4C258.07,-362.08 249.94,-351.73 242.78,-342.61"/>
<polygon fill="midnightblue" stroke="midnightblue" points="262.65,-373.57 271.57,-379.27 268.15,-369.24 262.65,-373.57"/>
</g>
<!-- Node6&#45;&gt;Node5 -->
<g id="edge8" class="edge">
<title>Node6&#45;&gt;Node5</title>
<path fill="none" stroke="midnightblue" d="M555.66,-204.27C530.04,-172.56 489.11,-121.92 469.4,-97.53"/>
<polygon fill="midnightblue" stroke="midnightblue" points="553.12,-206.7 562.13,-212.28 558.57,-202.3 553.12,-206.7"/>
</g>
<!-- Node7 -->
<g id="node7" class="node">
<title>Node7</title>
<g id="a_node7"><a xlink:href="_render_scene_8h.html" target="_top" xlink:title=" ">
<polygon fill="white" stroke="black" points="545.07,-134.5 545.07,-175.5 667.07,-175.5 667.07,-134.5 545.07,-134.5"/>
<text text-anchor="start" x="553.07" y="-163.5" font-family="Helvetica,sans-Serif" font-size="10.00">kryne&#45;engine/include</text>
<text text-anchor="start" x="553.07" y="-152.5" font-family="Helvetica,sans-Serif" font-size="10.00">/kryne&#45;engine/Rendering</text>
<text text-anchor="middle" x="606.07" y="-141.5" font-family="Helvetica,sans-Serif" font-size="10.00">/RenderScene.h</text>
</a>
</g>
</g>
<!-- Node6&#45;&gt;Node7 -->
<g id="edge9" class="edge">
<title>Node6&#45;&gt;Node7</title>
<path fill="none" stroke="midnightblue" d="M588.79,-202.88C592.17,-193.72 595.81,-183.83 598.88,-175.51"/>
<polygon fill="midnightblue" stroke="midnightblue" points="585.45,-201.83 585.28,-212.43 592.02,-204.25 585.45,-201.83"/>
</g>
<!-- Node12 -->
<g id="node12" class="node">
<title>Node12</title>
<g id="a_node12"><a xlink:href="_main_renderer_8cpp.html" target="_top" xlink:title=" ">
<polygon fill="white" stroke="black" points="685.57,-140 685.57,-170 820.57,-170 820.57,-140 685.57,-140"/>
<text text-anchor="start" x="693.57" y="-158" font-family="Helvetica,sans-Serif" font-size="10.00">kryne&#45;engine/src/Rendering</text>
<text text-anchor="middle" x="753.07" y="-147" font-family="Helvetica,sans-Serif" font-size="10.00">/MainRenderer.cpp</text>
</a>
</g>
</g>
<!-- Node6&#45;&gt;Node12 -->
<g id="edge15" class="edge">
<title>Node6&#45;&gt;Node12</title>
<path fill="none" stroke="midnightblue" d="M632.68,-208.28C661.52,-195.76 695.95,-180.81 720.58,-170.11"/>
<polygon fill="midnightblue" stroke="midnightblue" points="630.91,-205.23 623.13,-212.43 633.7,-211.65 630.91,-205.23"/>
</g>
<!-- Node7&#45;&gt;Node5 -->
<g id="edge10" class="edge">
<title>Node7&#45;&gt;Node5</title>
<path fill="none" stroke="midnightblue" d="M555.72,-130.02C533.13,-119.25 507.25,-106.93 487.81,-97.67"/>
<polygon fill="midnightblue" stroke="midnightblue" points="554.31,-133.22 564.84,-134.36 557.32,-126.9 554.31,-133.22"/>
</g>
<!-- Node8 -->
<g id="node8" class="node">
<title>Node8</title>
<g id="a_node8"><a xlink:href="_old_process_8h.html" target="_top" xlink:title=" ">
<polygon fill="white" stroke="black" points="691.57,-67.5 691.57,-97.5 852.57,-97.5 852.57,-67.5 691.57,-67.5"/>
<text text-anchor="start" x="699.57" y="-85.5" font-family="Helvetica,sans-Serif" font-size="10.00">kryne&#45;engine/include</text>
<text text-anchor="middle" x="772.07" y="-74.5" font-family="Helvetica,sans-Serif" font-size="10.00">/kryne&#45;engine/Core/OldProcess.h</text>
</a>
</g>
</g>
<!-- Node7&#45;&gt;Node8 -->
<g id="edge11" class="edge">
<title>Node7&#45;&gt;Node8</title>
<path fill="none" stroke="midnightblue" d="M661.56,-130.43C687.23,-119.53 716.85,-106.95 738.96,-97.56"/>
<polygon fill="midnightblue" stroke="midnightblue" points="660.14,-127.23 652.31,-134.36 662.88,-133.67 660.14,-127.23"/>
</g>
<!-- Node11 -->
<g id="node11" class="node">
<title>Node11</title>
<g id="a_node11"><a xlink:href="_render_scene_8cpp.html" target="_top" xlink:title=" ">
<polygon fill="white" stroke="black" points="538.57,-67.5 538.57,-97.5 673.57,-97.5 673.57,-67.5 538.57,-67.5"/>
<text text-anchor="start" x="546.57" y="-85.5" font-family="Helvetica,sans-Serif" font-size="10.00">kryne&#45;engine/src/Rendering</text>
<text text-anchor="middle" x="606.07" y="-74.5" font-family="Helvetica,sans-Serif" font-size="10.00">/RenderScene.cpp</text>
</a>
</g>
</g>
<!-- Node7&#45;&gt;Node11 -->
<g id="edge14" class="edge">
<title>Node7&#45;&gt;Node11</title>
<path fill="none" stroke="midnightblue" d="M606.07,-124.08C606.07,-115.01 606.07,-105.45 606.07,-97.89"/>
<polygon fill="midnightblue" stroke="midnightblue" points="602.57,-124.36 606.07,-134.36 609.57,-124.36 602.57,-124.36"/>
</g>
<!-- Node9 -->
<g id="node9" class="node">
<title>Node9</title>
<g id="a_node9"><a xlink:href="_core_8h.html" target="_top" xlink:title=" ">
<polygon fill="white" stroke="black" points="655.07,-0.5 655.07,-30.5 761.07,-30.5 761.07,-0.5 655.07,-0.5"/>
<text text-anchor="start" x="663.07" y="-18.5" font-family="Helvetica,sans-Serif" font-size="10.00">kryne&#45;engine/include</text>
<text text-anchor="middle" x="708.07" y="-7.5" font-family="Helvetica,sans-Serif" font-size="10.00">/KEModules/Core.h</text>
</a>
</g>
</g>
<!-- Node8&#45;&gt;Node9 -->
<g id="edge12" class="edge">
<title>Node8&#45;&gt;Node9</title>
<path fill="none" stroke="midnightblue" d="M750.92,-60.02C741.39,-50.34 730.39,-39.17 721.93,-30.58"/>
<polygon fill="midnightblue" stroke="midnightblue" points="748.67,-62.73 758.18,-67.4 753.66,-57.81 748.67,-62.73"/>
</g>
<!-- Node10 -->
<g id="node10" class="node">
<title>Node10</title>
<g id="a_node10"><a xlink:href="_old_process_8cpp.html" target="_top" xlink:title=" ">
<polygon fill="white" stroke="black" points="779.07,-0.5 779.07,-30.5 891.07,-30.5 891.07,-0.5 779.07,-0.5"/>
<text text-anchor="start" x="787.07" y="-18.5" font-family="Helvetica,sans-Serif" font-size="10.00">kryne&#45;engine/src/Core</text>
<text text-anchor="middle" x="835.07" y="-7.5" font-family="Helvetica,sans-Serif" font-size="10.00">/OldProcess.cpp</text>
</a>
</g>
</g>
<!-- Node8&#45;&gt;Node10 -->
<g id="edge13" class="edge">
<title>Node8&#45;&gt;Node10</title>
<path fill="none" stroke="midnightblue" d="M792.88,-60.02C802.27,-50.34 813.09,-39.17 821.42,-30.58"/>
<polygon fill="midnightblue" stroke="midnightblue" points="790.18,-57.78 785.74,-67.4 795.21,-62.65 790.18,-57.78"/>
</g>
<!-- Node13&#45;&gt;Node5 -->
<g id="edge17" class="edge">
<title>Node13&#45;&gt;Node5</title>
<path fill="none" stroke="midnightblue" d="M215.82,-280.31C209.69,-239.88 206.79,-174 242.07,-134 262.09,-111.29 339.02,-97.43 395.38,-90.11"/>
<polygon fill="midnightblue" stroke="midnightblue" points="212.38,-280.96 217.47,-290.25 219.28,-279.81 212.38,-280.96"/>
</g>
<!-- Node13&#45;&gt;Node14 -->
<g id="edge18" class="edge">
<title>Node13&#45;&gt;Node14</title>
<path fill="none" stroke="midnightblue" d="M279.22,-285.59C299.16,-274.97 321.08,-263.29 339.02,-253.73"/>
<polygon fill="midnightblue" stroke="midnightblue" points="277.4,-282.59 270.22,-290.38 280.69,-288.77 277.4,-282.59"/>
</g>
<!-- Node16 -->
<g id="node16" class="node">
<title>Node16</title>
<g id="a_node16"><a xlink:href="_directional_shadow_map_rendering_8cpp.html" target="_top" xlink:title=" ">
<polygon fill="white" stroke="black" points="21.07,-212.5 21.07,-253.5 195.07,-253.5 195.07,-212.5 21.07,-212.5"/>
<text text-anchor="start" x="29.07" y="-241.5" font-family="Helvetica,sans-Serif" font-size="10.00">kryne&#45;engine/src/Rendering</text>
<text text-anchor="start" x="29.07" y="-230.5" font-family="Helvetica,sans-Serif" font-size="10.00">/ShadowMapping/DirectionalShadow</text>
<text text-anchor="middle" x="108.07" y="-219.5" font-family="Helvetica,sans-Serif" font-size="10.00">MapRendering.cpp</text>
</a>
</g>
</g>
<!-- Node13&#45;&gt;Node16 -->
<g id="edge22" class="edge">
<title>Node13&#45;&gt;Node16</title>
<path fill="none" stroke="midnightblue" d="M179.24,-284.44C164.69,-274.13 148.91,-262.95 135.91,-253.73"/>
<polygon fill="midnightblue" stroke="midnightblue" points="177.44,-287.46 187.62,-290.38 181.49,-281.74 177.44,-287.46"/>
</g>
<!-- Node14&#45;&gt;Node5 -->
<g id="edge19" class="edge">
<title>Node14&#45;&gt;Node5</title>
<path fill="none" stroke="midnightblue" d="M430.65,-206.9C442.43,-198.79 453.35,-188.56 460.07,-176 473.41,-151.07 467.46,-116.7 462.44,-97.65"/>
<polygon fill="midnightblue" stroke="midnightblue" points="428.52,-204.11 421.97,-212.44 432.29,-210.01 428.52,-204.11"/>
</g>
<!-- Node14&#45;&gt;Node7 -->
<g id="edge20" class="edge">
<title>Node14&#45;&gt;Node7</title>
<path fill="none" stroke="midnightblue" d="M445.17,-209.17C477.64,-198.44 515.95,-185.78 547.04,-175.51"/>
<polygon fill="midnightblue" stroke="midnightblue" points="443.69,-205.97 435.3,-212.43 445.89,-212.61 443.69,-205.97"/>
</g>
<!-- Node15 -->
<g id="node15" class="node">
<title>Node15</title>
<g id="a_node15"><a xlink:href="_shadow_map_handler_8cpp.html" target="_top" xlink:title=" ">
<polygon fill="white" stroke="black" points="251.57,-140 251.57,-170 450.57,-170 450.57,-140 251.57,-140"/>
<text text-anchor="start" x="259.57" y="-158" font-family="Helvetica,sans-Serif" font-size="10.00">kryne&#45;engine/src/Rendering</text>
<text text-anchor="middle" x="351.07" y="-147" font-family="Helvetica,sans-Serif" font-size="10.00">/ShadowMapping/ShadowMapHandler.cpp</text>
</a>
</g>
</g>
<!-- Node14&#45;&gt;Node15 -->
<g id="edge21" class="edge">
<title>Node14&#45;&gt;Node15</title>
<path fill="none" stroke="midnightblue" d="M366.4,-202.62C362.74,-191.5 358.74,-179.34 355.75,-170.23"/>
<polygon fill="midnightblue" stroke="midnightblue" points="363.18,-204.02 369.63,-212.43 369.83,-201.84 363.18,-204.02"/>
</g>
<!-- Node19 -->
<g id="node19" class="node">
<title>Node19</title>
<g id="a_node19"><a xlink:href="_model_loader_8cpp.html" target="_top" xlink:title=" ">
<polygon fill="white" stroke="black" points="559.57,-385 559.57,-415 696.57,-415 696.57,-385 559.57,-385"/>
<text text-anchor="start" x="567.57" y="-403" font-family="Helvetica,sans-Serif" font-size="10.00">kryne&#45;engine/src/3DObjects</text>
<text text-anchor="middle" x="628.07" y="-392" font-family="Helvetica,sans-Serif" font-size="10.00">/Model/ModelLoader.cpp</text>
</a>
</g>
</g>
<!-- Node18&#45;&gt;Node19 -->
<g id="edge26" class="edge">
<title>Node18&#45;&gt;Node19</title>
<path fill="none" stroke="midnightblue" d="M522.07,-452.97C547.4,-440.55 577.43,-425.83 599.05,-415.23"/>
<polygon fill="midnightblue" stroke="midnightblue" points="520.42,-449.88 512.98,-457.43 523.5,-456.17 520.42,-449.88"/>
</g>
</g>
</svg>
