<?xml version="1.0" encoding="UTF-8" standalone="no"?>
<!DOCTYPE svg PUBLIC "-//W3C//DTD SVG 1.1//EN"
 "http://www.w3.org/Graphics/SVG/1.1/DTD/svg11.dtd">
<!-- Generated by graphviz version 2.44.1 (20200629.0846)
 -->
<!-- Title: kryne&#45;engine/include/kryne&#45;engine/3DObjects/BaseObject.h Pages: 1 -->
<svg width="1349pt" height="363pt"
 viewBox="0.00 0.00 1349.37 363.00" xmlns="http://www.w3.org/2000/svg" xmlns:xlink="http://www.w3.org/1999/xlink">
<g id="graph0" class="graph" transform="scale(1 1) rotate(0) translate(4 359)">
<title>kryne&#45;engine/include/kryne&#45;engine/3DObjects/BaseObject.h</title>
<polygon fill="white" stroke="transparent" points="-4,4 -4,-359 1345.37,-359 1345.37,4 -4,4"/>
<!-- Node1 -->
<g id="node1" class="node">
<title>Node1</title>
<g id="a_node1"><a xlink:title=" ">
<polygon fill="#bfbfbf" stroke="black" points="872.37,-313.5 872.37,-354.5 996.37,-354.5 996.37,-313.5 872.37,-313.5"/>
<text text-anchor="start" x="880.37" y="-342.5" font-family="Helvetica,sans-Serif" font-size="10.00">kryne&#45;engine/include</text>
<text text-anchor="start" x="880.37" y="-331.5" font-family="Helvetica,sans-Serif" font-size="10.00">/kryne&#45;engine/3DObjects</text>
<text text-anchor="middle" x="934.37" y="-320.5" font-family="Helvetica,sans-Serif" font-size="10.00">/BaseObject.h</text>
</a>
</g>
</g>
<!-- Node2 -->
<g id="node2" class="node">
<title>Node2</title>
<g id="a_node2"><a xlink:title=" ">
<polygon fill="white" stroke="#bfbfbf" points="435.37,-118 435.37,-137 499.37,-137 499.37,-118 435.37,-118"/>
<text text-anchor="middle" x="467.37" y="-125" font-family="Helvetica,sans-Serif" font-size="10.00">glad/glad.h</text>
</a>
</g>
</g>
<!-- Node1&#45;&gt;Node2 -->
<g id="edge1" class="edge">
<title>Node1&#45;&gt;Node2</title>
<path fill="none" stroke="midnightblue" d="M886.12,-313.4C860.08,-302.76 827.41,-289.29 798.37,-277 729.63,-247.9 712.49,-240.5 644.37,-210 591.39,-186.28 529.93,-157.75 495.14,-141.51"/>
<polygon fill="midnightblue" stroke="midnightblue" points="496.2,-138.14 485.66,-137.08 493.23,-144.48 496.2,-138.14"/>
</g>
<!-- Node3 -->
<g id="node3" class="node">
<title>Node3</title>
<g id="a_node3"><a xlink:title=" ">
<polygon fill="white" stroke="#bfbfbf" points="339.37,-118 339.37,-137 417.37,-137 417.37,-118 339.37,-118"/>
<text text-anchor="middle" x="378.37" y="-125" font-family="Helvetica,sans-Serif" font-size="10.00">GLFW/glfw3.h</text>
</a>
</g>
</g>
<!-- Node1&#45;&gt;Node3 -->
<g id="edge2" class="edge">
<title>Node1&#45;&gt;Node3</title>
<path fill="none" stroke="midnightblue" d="M872.25,-319.06C829.84,-308.92 772.62,-294.03 723.37,-277 601.61,-234.89 462.3,-169.33 405.05,-141.6"/>
<polygon fill="midnightblue" stroke="midnightblue" points="406.48,-138.4 395.96,-137.17 403.42,-144.7 406.48,-138.4"/>
</g>
<!-- Node4 -->
<g id="node4" class="node">
<title>Node4</title>
<g id="a_node4"><a xlink:title=" ">
<polygon fill="white" stroke="#bfbfbf" points="1062.37,-118 1062.37,-137 1148.37,-137 1148.37,-118 1062.37,-118"/>
<text text-anchor="middle" x="1105.37" y="-125" font-family="Helvetica,sans-Serif" font-size="10.00">glm/mat4x4.hpp</text>
</a>
</g>
</g>
<!-- Node1&#45;&gt;Node4 -->
<g id="edge3" class="edge">
<title>Node1&#45;&gt;Node4</title>
<path fill="none" stroke="midnightblue" d="M996.51,-325.19C1027.9,-317.94 1063.8,-303.96 1085.37,-277 1115.63,-239.17 1112.45,-177.81 1108.47,-147.16"/>
<polygon fill="midnightblue" stroke="midnightblue" points="1111.89,-146.41 1106.97,-137.03 1104.97,-147.43 1111.89,-146.41"/>
</g>
<!-- Node5 -->
<g id="node5" class="node">
<title>Node5</title>
<g id="a_node5"><a xlink:title=" ">
<polygon fill="white" stroke="#bfbfbf" points="1133.37,-252 1133.37,-271 1219.37,-271 1219.37,-252 1133.37,-252"/>
<text text-anchor="middle" x="1176.37" y="-259" font-family="Helvetica,sans-Serif" font-size="10.00">glm/mat3x3.hpp</text>
</a>
</g>
</g>
<!-- Node1&#45;&gt;Node5 -->
<g id="edge4" class="edge">
<title>Node1&#45;&gt;Node5</title>
<path fill="none" stroke="midnightblue" d="M996.38,-314.94C1040.86,-301.98 1099.42,-284.92 1137.47,-273.83"/>
<polygon fill="midnightblue" stroke="midnightblue" points="1138.53,-277.17 1147.16,-271.01 1136.58,-270.45 1138.53,-277.17"/>
</g>
<!-- Node6 -->
<g id="node6" class="node">
<title>Node6</title>
<g id="a_node6"><a xlink:href="_shader_8h.html" target="_top" xlink:title=" ">
<polygon fill="white" stroke="black" points="807.37,-246.5 807.37,-276.5 917.37,-276.5 917.37,-246.5 807.37,-246.5"/>
<text text-anchor="start" x="815.37" y="-264.5" font-family="Helvetica,sans-Serif" font-size="10.00">kryne&#45;engine/Material</text>
<text text-anchor="middle" x="862.37" y="-253.5" font-family="Helvetica,sans-Serif" font-size="10.00">/Shader.h</text>
</a>
</g>
</g>
<!-- Node1&#45;&gt;Node6 -->
<g id="edge5" class="edge">
<title>Node1&#45;&gt;Node6</title>
<path fill="none" stroke="midnightblue" d="M914.31,-313.36C904.99,-304.23 893.88,-293.35 884.33,-284"/>
<polygon fill="midnightblue" stroke="midnightblue" points="886.66,-281.39 877.07,-276.89 881.76,-286.39 886.66,-281.39"/>
</g>
<!-- Node22 -->
<g id="node22" class="node">
<title>Node22</title>
<g id="a_node22"><a xlink:href="_vertex_array_8h.html" target="_top" xlink:title=" ">
<polygon fill="white" stroke="black" points="174.87,-179.5 174.87,-209.5 301.87,-209.5 301.87,-179.5 174.87,-179.5"/>
<text text-anchor="start" x="182.87" y="-197.5" font-family="Helvetica,sans-Serif" font-size="10.00">kryne&#45;engine/Core/Vertex</text>
<text text-anchor="middle" x="238.37" y="-186.5" font-family="Helvetica,sans-Serif" font-size="10.00">Array.h</text>
</a>
</g>
</g>
<!-- Node1&#45;&gt;Node22 -->
<g id="edge27" class="edge">
<title>Node1&#45;&gt;Node22</title>
<path fill="none" stroke="midnightblue" d="M872.23,-330.86C779.1,-326.52 598.32,-313.73 449.37,-277 387.11,-261.65 318.44,-232.72 276.86,-213.79"/>
<polygon fill="midnightblue" stroke="midnightblue" points="278.2,-210.55 267.65,-209.55 275.27,-216.91 278.2,-210.55"/>
</g>
<!-- Node27 -->
<g id="node27" class="node">
<title>Node27</title>
<g id="a_node27"><a xlink:href="_additional_parameters_8h.html" target="_top" xlink:title=" ">
<polygon fill="white" stroke="black" points="935.87,-246.5 935.87,-276.5 1076.87,-276.5 1076.87,-246.5 935.87,-246.5"/>
<text text-anchor="start" x="943.87" y="-264.5" font-family="Helvetica,sans-Serif" font-size="10.00">kryne&#45;engine/Core/Additional</text>
<text text-anchor="middle" x="1006.37" y="-253.5" font-family="Helvetica,sans-Serif" font-size="10.00">Parameters.h</text>
</a>
</g>
</g>
<!-- Node1&#45;&gt;Node27 -->
<g id="edge35" class="edge">
<title>Node1&#45;&gt;Node27</title>
<path fill="none" stroke="midnightblue" d="M954.43,-313.36C963.75,-304.23 974.86,-293.35 984.41,-284"/>
<polygon fill="midnightblue" stroke="midnightblue" points="986.97,-286.39 991.67,-276.89 982.08,-281.39 986.97,-286.39"/>
</g>
<!-- Node29 -->
<g id="node29" class="node">
<title>Node29</title>
<g id="a_node29"><a xlink:href="enums_2_base_object_8h.html" target="_top" xlink:title=" ">
<polygon fill="white" stroke="black" points="1237.37,-246.5 1237.37,-276.5 1341.37,-276.5 1341.37,-246.5 1237.37,-246.5"/>
<text text-anchor="start" x="1245.37" y="-264.5" font-family="Helvetica,sans-Serif" font-size="10.00">kryne&#45;engine/enums</text>
<text text-anchor="middle" x="1289.37" y="-253.5" font-family="Helvetica,sans-Serif" font-size="10.00">/BaseObject.h</text>
</a>
</g>
</g>
<!-- Node1&#45;&gt;Node29 -->
<g id="edge39" class="edge">
<title>Node1&#45;&gt;Node29</title>
<path fill="none" stroke="midnightblue" d="M996.48,-322.01C1053.88,-311.66 1141.78,-295.34 1227.29,-277.18"/>
<polygon fill="midnightblue" stroke="midnightblue" points="1228.11,-280.58 1237.16,-275.07 1226.65,-273.74 1228.11,-280.58"/>
</g>
<!-- Node7 -->
<g id="node7" class="node">
<title>Node7</title>
<g id="a_node7"><a xlink:title=" ">
<polygon fill="white" stroke="#bfbfbf" points="953.87,-185 953.87,-204 988.87,-204 988.87,-185 953.87,-185"/>
<text text-anchor="middle" x="971.37" y="-192" font-family="Helvetica,sans-Serif" font-size="10.00">map</text>
</a>
</g>
</g>
<!-- Node6&#45;&gt;Node7 -->
<g id="edge6" class="edge">
<title>Node6&#45;&gt;Node7</title>
<path fill="none" stroke="midnightblue" d="M886.02,-246.4C904.55,-235.34 930.18,-220.06 948.51,-209.13"/>
<polygon fill="midnightblue" stroke="midnightblue" points="950.31,-212.13 957.1,-204.01 946.72,-206.12 950.31,-212.13"/>
</g>
<!-- Node8 -->
<g id="node8" class="node">
<title>Node8</title>
<g id="a_node8"><a xlink:title=" ">
<polygon fill="white" stroke="#bfbfbf" points="782.37,-185 782.37,-204 834.37,-204 834.37,-185 782.37,-185"/>
<text text-anchor="middle" x="808.37" y="-192" font-family="Helvetica,sans-Serif" font-size="10.00">sstream</text>
</a>
</g>
</g>
<!-- Node6&#45;&gt;Node8 -->
<g id="edge7" class="edge">
<title>Node6&#45;&gt;Node8</title>
<path fill="none" stroke="midnightblue" d="M850.65,-246.4C842.23,-236.26 830.86,-222.57 822.02,-211.94"/>
<polygon fill="midnightblue" stroke="midnightblue" points="824.67,-209.65 815.59,-204.19 819.29,-214.12 824.67,-209.65"/>
</g>
<!-- Node9 -->
<g id="node9" class="node">
<title>Node9</title>
<g id="a_node9"><a xlink:href="_uniforms_handler_8h.html" target="_top" xlink:title=" ">
<polygon fill="white" stroke="black" points="653.37,-185 653.37,-204 749.37,-204 749.37,-185 653.37,-185"/>
<text text-anchor="middle" x="701.37" y="-192" font-family="Helvetica,sans-Serif" font-size="10.00">UniformsHandler.h</text>
</a>
</g>
</g>
<!-- Node6&#45;&gt;Node9 -->
<g id="edge8" class="edge">
<title>Node6&#45;&gt;Node9</title>
<path fill="none" stroke="midnightblue" d="M827.43,-246.4C798.94,-234.89 759.07,-218.8 731.85,-207.81"/>
<polygon fill="midnightblue" stroke="midnightblue" points="733.02,-204.51 722.44,-204.01 730.4,-211 733.02,-204.51"/>
</g>
<!-- Node14 -->
<g id="node14" class="node">
<title>Node14</title>
<g id="a_node14"><a xlink:href="_shader_chunk_8h.html" target="_top" xlink:title=" ">
<polygon fill="white" stroke="black" points="852.87,-185 852.87,-204 935.87,-204 935.87,-185 852.87,-185"/>
<text text-anchor="middle" x="894.37" y="-192" font-family="Helvetica,sans-Serif" font-size="10.00">ShaderChunk.h</text>
</a>
</g>
</g>
<!-- Node6&#45;&gt;Node14 -->
<g id="edge16" class="edge">
<title>Node6&#45;&gt;Node14</title>
<path fill="none" stroke="midnightblue" d="M869.31,-246.4C874.1,-236.66 880.51,-223.65 885.65,-213.21"/>
<polygon fill="midnightblue" stroke="midnightblue" points="888.81,-214.71 890.09,-204.19 882.53,-211.62 888.81,-214.71"/>
</g>
<!-- Node9&#45;&gt;Node2 -->
<g id="edge11" class="edge">
<title>Node9&#45;&gt;Node2</title>
<path fill="none" stroke="midnightblue" d="M665.19,-185C626.21,-175.61 562.5,-159.62 508.37,-143 505.75,-142.2 503.06,-141.33 500.35,-140.43"/>
<polygon fill="midnightblue" stroke="midnightblue" points="501.27,-137.05 490.67,-137.12 499,-143.67 501.27,-137.05"/>
</g>
<!-- Node9&#45;&gt;Node3 -->
<g id="edge12" class="edge">
<title>Node9&#45;&gt;Node3</title>
<path fill="none" stroke="midnightblue" d="M653.33,-186.35C598.18,-177.75 505.16,-162.07 426.37,-143 422.48,-142.06 418.44,-140.99 414.44,-139.87"/>
<polygon fill="midnightblue" stroke="midnightblue" points="415.21,-136.45 404.63,-137.01 413.25,-143.17 415.21,-136.45"/>
</g>
<!-- Node9&#45;&gt;Node4 -->
<g id="edge13" class="edge">
<title>Node9&#45;&gt;Node4</title>
<path fill="none" stroke="midnightblue" d="M741.27,-184.94C751.69,-182.85 762.93,-180.72 773.37,-179 896.73,-158.65 929.78,-167.56 1052.37,-143 1057.15,-142.04 1062.12,-140.89 1067.04,-139.66"/>
<polygon fill="midnightblue" stroke="midnightblue" points="1068.15,-142.99 1076.94,-137.06 1066.37,-136.22 1068.15,-142.99"/>
</g>
<!-- Node10 -->
<g id="node10" class="node">
<title>Node10</title>
<g id="a_node10"><a xlink:title=" ">
<polygon fill="white" stroke="#bfbfbf" points="1002.87,-118 1002.87,-137 1043.87,-137 1043.87,-118 1002.87,-118"/>
<text text-anchor="middle" x="1023.37" y="-125" font-family="Helvetica,sans-Serif" font-size="10.00">string</text>
</a>
</g>
</g>
<!-- Node9&#45;&gt;Node10 -->
<g id="edge9" class="edge">
<title>Node9&#45;&gt;Node10</title>
<path fill="none" stroke="midnightblue" d="M743.63,-184.97C753.39,-183.01 763.74,-180.93 773.37,-179 853.79,-162.9 874.01,-159.43 954.37,-143 966.98,-140.42 980.88,-137.51 992.88,-134.98"/>
<polygon fill="midnightblue" stroke="midnightblue" points="993.79,-138.37 1002.85,-132.87 992.34,-131.52 993.79,-138.37"/>
</g>
<!-- Node11 -->
<g id="node11" class="node">
<title>Node11</title>
<g id="a_node11"><a xlink:title=" ">
<polygon fill="white" stroke="#bfbfbf" points="749.87,-118 749.87,-137 832.87,-137 832.87,-118 749.87,-118"/>
<text text-anchor="middle" x="791.37" y="-125" font-family="Helvetica,sans-Serif" font-size="10.00">unordered_map</text>
</a>
</g>
</g>
<!-- Node9&#45;&gt;Node11 -->
<g id="edge10" class="edge">
<title>Node9&#45;&gt;Node11</title>
<path fill="none" stroke="midnightblue" d="M713.51,-184.73C728.22,-174.11 753.22,-156.05 770.93,-143.26"/>
<polygon fill="midnightblue" stroke="midnightblue" points="773.37,-145.82 779.42,-137.13 769.27,-140.14 773.37,-145.82"/>
</g>
<!-- Node12 -->
<g id="node12" class="node">
<title>Node12</title>
<g id="a_node12"><a xlink:title=" ">
<polygon fill="white" stroke="#bfbfbf" points="517.37,-118 517.37,-137 623.37,-137 623.37,-118 517.37,-118"/>
<text text-anchor="middle" x="570.37" y="-125" font-family="Helvetica,sans-Serif" font-size="10.00">glm/gtc/type_ptr.hpp</text>
</a>
</g>
</g>
<!-- Node9&#45;&gt;Node12 -->
<g id="edge14" class="edge">
<title>Node9&#45;&gt;Node12</title>
<path fill="none" stroke="midnightblue" d="M683.97,-184.87C661.76,-173.84 623.08,-154.66 597.11,-141.77"/>
<polygon fill="midnightblue" stroke="midnightblue" points="598.35,-138.48 587.84,-137.17 595.24,-144.75 598.35,-138.48"/>
</g>
<!-- Node13 -->
<g id="node13" class="node">
<title>Node13</title>
<g id="a_node13"><a xlink:title=" ">
<polygon fill="white" stroke="#bfbfbf" points="641.37,-118 641.37,-137 731.37,-137 731.37,-118 641.37,-118"/>
<text text-anchor="middle" x="686.37" y="-125" font-family="Helvetica,sans-Serif" font-size="10.00">boost/variant.hpp</text>
</a>
</g>
</g>
<!-- Node9&#45;&gt;Node13 -->
<g id="edge15" class="edge">
<title>Node9&#45;&gt;Node13</title>
<path fill="none" stroke="midnightblue" d="M699.35,-184.73C697.12,-175.09 693.48,-159.3 690.62,-146.91"/>
<polygon fill="midnightblue" stroke="midnightblue" points="694.02,-146.08 688.36,-137.13 687.2,-147.66 694.02,-146.08"/>
</g>
<!-- Node14&#45;&gt;Node10 -->
<g id="edge18" class="edge">
<title>Node14&#45;&gt;Node10</title>
<path fill="none" stroke="midnightblue" d="M911.5,-184.87C933.38,-173.84 971.46,-154.66 997.04,-141.77"/>
<polygon fill="midnightblue" stroke="midnightblue" points="998.81,-144.79 1006.17,-137.17 995.66,-138.54 998.81,-144.79"/>
</g>
<!-- Node14&#45;&gt;Node11 -->
<g id="edge17" class="edge">
<title>Node14&#45;&gt;Node11</title>
<path fill="none" stroke="midnightblue" d="M880.48,-184.73C863.34,-173.92 833.97,-155.38 813.66,-142.57"/>
<polygon fill="midnightblue" stroke="midnightblue" points="815.36,-139.5 805.04,-137.13 811.63,-145.42 815.36,-139.5"/>
</g>
<!-- Node15 -->
<g id="node15" class="node">
<title>Node15</title>
<g id="a_node15"><a xlink:title=" ">
<polygon fill="white" stroke="#bfbfbf" points="1166.87,-118 1166.87,-137 1215.87,-137 1215.87,-118 1166.87,-118"/>
<text text-anchor="middle" x="1191.37" y="-125" font-family="Helvetica,sans-Serif" font-size="10.00">fstream</text>
</a>
</g>
</g>
<!-- Node14&#45;&gt;Node15 -->
<g id="edge19" class="edge">
<title>Node14&#45;&gt;Node15</title>
<path fill="none" stroke="midnightblue" d="M921.73,-184.95C929.04,-182.84 936.97,-180.69 944.37,-179 1037.96,-157.59 1065.24,-170.02 1157.37,-143 1159.52,-142.37 1161.72,-141.64 1163.91,-140.85"/>
<polygon fill="midnightblue" stroke="midnightblue" points="1165.3,-144.07 1173.31,-137.14 1162.72,-137.56 1165.3,-144.07"/>
</g>
<!-- Node16 -->
<g id="node16" class="node">
<title>Node16</title>
<g id="a_node16"><a xlink:title=" ">
<polygon fill="white" stroke="#bfbfbf" points="913.37,-0.5 913.37,-19.5 967.37,-19.5 967.37,-0.5 913.37,-0.5"/>
<text text-anchor="middle" x="940.37" y="-7.5" font-family="Helvetica,sans-Serif" font-size="10.00">iostream</text>
</a>
</g>
</g>
<!-- Node14&#45;&gt;Node16 -->
<g id="edge20" class="edge">
<title>Node14&#45;&gt;Node16</title>
<path fill="none" stroke="midnightblue" d="M911.14,-184.89C925.61,-176.42 945.52,-162.01 954.37,-143 971.89,-105.36 957.81,-55.31 947.94,-28.97"/>
<polygon fill="midnightblue" stroke="midnightblue" points="951.13,-27.53 944.19,-19.53 944.62,-30.12 951.13,-27.53"/>
</g>
<!-- Node17 -->
<g id="node17" class="node">
<title>Node17</title>
<g id="a_node17"><a xlink:href="_utils_8h.html" target="_top" xlink:title=" ">
<polygon fill="white" stroke="black" points="850.87,-112.5 850.87,-142.5 945.87,-142.5 945.87,-112.5 850.87,-112.5"/>
<text text-anchor="start" x="858.87" y="-130.5" font-family="Helvetica,sans-Serif" font-size="10.00">kryne&#45;engine/Utils</text>
<text text-anchor="middle" x="898.37" y="-119.5" font-family="Helvetica,sans-Serif" font-size="10.00">/Utils.h</text>
</a>
</g>
</g>
<!-- Node14&#45;&gt;Node17 -->
<g id="edge21" class="edge">
<title>Node14&#45;&gt;Node17</title>
<path fill="none" stroke="midnightblue" d="M894.91,-184.73C895.41,-176.54 896.19,-163.92 896.88,-152.71"/>
<polygon fill="midnightblue" stroke="midnightblue" points="900.38,-152.79 897.5,-142.59 893.39,-152.36 900.38,-152.79"/>
</g>
<!-- Node18 -->
<g id="node18" class="node">
<title>Node18</title>
<g id="a_node18"><a xlink:href="_string_utils_8hpp.html" target="_top" xlink:title=" ">
<polygon fill="white" stroke="black" points="862.37,-56.5 862.37,-75.5 942.37,-75.5 942.37,-56.5 862.37,-56.5"/>
<text text-anchor="middle" x="902.37" y="-63.5" font-family="Helvetica,sans-Serif" font-size="10.00">StringUtils.hpp</text>
</a>
</g>
</g>
<!-- Node17&#45;&gt;Node18 -->
<g id="edge22" class="edge">
<title>Node17&#45;&gt;Node18</title>
<path fill="none" stroke="midnightblue" d="M899.32,-112.4C899.85,-104.47 900.52,-94.46 901.1,-85.86"/>
<polygon fill="midnightblue" stroke="midnightblue" points="904.61,-85.87 901.79,-75.66 897.62,-85.4 904.61,-85.87"/>
</g>
<!-- Node19 -->
<g id="node19" class="node">
<title>Node19</title>
<g id="a_node19"><a xlink:href="_vector_mapping_8hpp.html" target="_top" xlink:title=" ">
<polygon fill="white" stroke="black" points="567.87,-56.5 567.87,-75.5 668.87,-75.5 668.87,-56.5 567.87,-56.5"/>
<text text-anchor="middle" x="618.37" y="-63.5" font-family="Helvetica,sans-Serif" font-size="10.00">VectorMapping.hpp</text>
</a>
</g>
</g>
<!-- Node17&#45;&gt;Node19 -->
<g id="edge24" class="edge">
<title>Node17&#45;&gt;Node19</title>
<path fill="none" stroke="midnightblue" d="M850.83,-114.22C847.63,-113.45 844.46,-112.7 841.37,-112 784.63,-99.07 719.32,-86.11 674.11,-77.45"/>
<polygon fill="midnightblue" stroke="midnightblue" points="674.69,-73.99 664.21,-75.56 673.38,-80.87 674.69,-73.99"/>
</g>
<!-- Node18&#45;&gt;Node16 -->
<g id="edge23" class="edge">
<title>Node18&#45;&gt;Node16</title>
<path fill="none" stroke="midnightblue" d="M908.64,-56.08C914.01,-48.46 921.89,-37.26 928.45,-27.94"/>
<polygon fill="midnightblue" stroke="midnightblue" points="931.32,-29.94 934.21,-19.75 925.59,-25.91 931.32,-29.94"/>
</g>
<!-- Node20 -->
<g id="node20" class="node">
<title>Node20</title>
<g id="a_node20"><a xlink:title=" ">
<polygon fill="white" stroke="#bfbfbf" points="150.37,-0.5 150.37,-19.5 192.37,-19.5 192.37,-0.5 150.37,-0.5"/>
<text text-anchor="middle" x="171.37" y="-7.5" font-family="Helvetica,sans-Serif" font-size="10.00">vector</text>
</a>
</g>
</g>
<!-- Node19&#45;&gt;Node20 -->
<g id="edge25" class="edge">
<title>Node19&#45;&gt;Node20</title>
<path fill="none" stroke="midnightblue" d="M567.53,-58.86C474.4,-47.61 279.01,-24 202.78,-14.79"/>
<polygon fill="midnightblue" stroke="midnightblue" points="202.77,-11.27 192.42,-13.54 201.93,-18.22 202.77,-11.27"/>
</g>
<!-- Node21 -->
<g id="node21" class="node">
<title>Node21</title>
<g id="a_node21"><a xlink:title=" ">
<polygon fill="white" stroke="#bfbfbf" points="561.87,-0.5 561.87,-19.5 674.87,-19.5 674.87,-0.5 561.87,-0.5"/>
<text text-anchor="middle" x="618.37" y="-7.5" font-family="Helvetica,sans-Serif" font-size="10.00">glm/detail/qualifier.hpp</text>
</a>
</g>
</g>
<!-- Node19&#45;&gt;Node21 -->
<g id="edge26" class="edge">
<title>Node19&#45;&gt;Node21</title>
<path fill="none" stroke="midnightblue" d="M618.37,-56.08C618.37,-49.01 618.37,-38.86 618.37,-29.99"/>
<polygon fill="midnightblue" stroke="midnightblue" points="621.87,-29.75 618.37,-19.75 614.87,-29.75 621.87,-29.75"/>
</g>
<!-- Node22&#45;&gt;Node2 -->
<g id="edge31" class="edge">
<title>Node22&#45;&gt;Node2</title>
<path fill="none" stroke="midnightblue" d="M295.05,-179.5C332.53,-169.94 382.64,-156.58 426.37,-143 428.98,-142.19 431.68,-141.32 434.38,-140.42"/>
<polygon fill="midnightblue" stroke="midnightblue" points="435.73,-143.65 444.06,-137.1 433.46,-137.03 435.73,-143.65"/>
</g>
<!-- Node22&#45;&gt;Node3 -->
<g id="edge32" class="edge">
<title>Node22&#45;&gt;Node3</title>
<path fill="none" stroke="midnightblue" d="M268.75,-179.4C293.2,-168.04 327.28,-152.22 350.92,-141.24"/>
<polygon fill="midnightblue" stroke="midnightblue" points="352.45,-144.39 360.05,-137.01 349.5,-138.04 352.45,-144.39"/>
</g>
<!-- Node22&#45;&gt;Node20 -->
<g id="edge28" class="edge">
<title>Node22&#45;&gt;Node20</title>
<path fill="none" stroke="midnightblue" d="M174.79,-188.19C114.66,-181.7 30.67,-168.29 10.37,-143 -33.6,-88.22 81.96,-40.55 140.19,-20.75"/>
<polygon fill="midnightblue" stroke="midnightblue" points="141.62,-23.97 150.01,-17.49 139.42,-17.32 141.62,-23.97"/>
</g>
<!-- Node23 -->
<g id="node23" class="node">
<title>Node23</title>
<g id="a_node23"><a xlink:title=" ">
<polygon fill="white" stroke="#bfbfbf" points="19.37,-118 19.37,-137 71.37,-137 71.37,-118 19.37,-118"/>
<text text-anchor="middle" x="45.37" y="-125" font-family="Helvetica,sans-Serif" font-size="10.00">stdarg.h</text>
</a>
</g>
</g>
<!-- Node22&#45;&gt;Node23 -->
<g id="edge29" class="edge">
<title>Node22&#45;&gt;Node23</title>
<path fill="none" stroke="midnightblue" d="M191.01,-179.49C159.44,-169.88 117.15,-156.47 80.37,-143 78.52,-142.32 76.62,-141.6 74.71,-140.86"/>
<polygon fill="midnightblue" stroke="midnightblue" points="75.83,-137.54 65.25,-137.07 73.23,-144.04 75.83,-137.54"/>
</g>
<!-- Node24 -->
<g id="node24" class="node">
<title>Node24</title>
<g id="a_node24"><a xlink:title=" ">
<polygon fill="white" stroke="#bfbfbf" points="89.37,-118 89.37,-137 137.37,-137 137.37,-118 89.37,-118"/>
<text text-anchor="middle" x="113.37" y="-125" font-family="Helvetica,sans-Serif" font-size="10.00">stdlib.h</text>
</a>
</g>
</g>
<!-- Node22&#45;&gt;Node24 -->
<g id="edge30" class="edge">
<title>Node22&#45;&gt;Node24</title>
<path fill="none" stroke="midnightblue" d="M211.25,-179.4C189.7,-168.19 159.79,-152.64 138.73,-141.69"/>
<polygon fill="midnightblue" stroke="midnightblue" points="140.22,-138.52 129.73,-137.01 136.99,-144.73 140.22,-138.52"/>
</g>
<!-- Node25 -->
<g id="node25" class="node">
<title>Node25</title>
<g id="a_node25"><a xlink:title=" ">
<polygon fill="white" stroke="#bfbfbf" points="155.37,-118 155.37,-137 229.37,-137 229.37,-118 155.37,-118"/>
<text text-anchor="middle" x="192.37" y="-125" font-family="Helvetica,sans-Serif" font-size="10.00">glm/vec2.hpp</text>
</a>
</g>
</g>
<!-- Node22&#45;&gt;Node25 -->
<g id="edge33" class="edge">
<title>Node22&#45;&gt;Node25</title>
<path fill="none" stroke="midnightblue" d="M228.39,-179.4C221.36,-169.46 211.91,-156.11 204.45,-145.57"/>
<polygon fill="midnightblue" stroke="midnightblue" points="207.16,-143.34 198.52,-137.19 201.44,-147.38 207.16,-143.34"/>
</g>
<!-- Node26 -->
<g id="node26" class="node">
<title>Node26</title>
<g id="a_node26"><a xlink:title=" ">
<polygon fill="white" stroke="#bfbfbf" points="247.37,-118 247.37,-137 321.37,-137 321.37,-118 247.37,-118"/>
<text text-anchor="middle" x="284.37" y="-125" font-family="Helvetica,sans-Serif" font-size="10.00">glm/vec3.hpp</text>
</a>
</g>
</g>
<!-- Node22&#45;&gt;Node26 -->
<g id="edge34" class="edge">
<title>Node22&#45;&gt;Node26</title>
<path fill="none" stroke="midnightblue" d="M248.35,-179.4C255.38,-169.46 264.83,-156.11 272.29,-145.57"/>
<polygon fill="midnightblue" stroke="midnightblue" points="275.3,-147.38 278.22,-137.19 269.58,-143.34 275.3,-147.38"/>
</g>
<!-- Node27&#45;&gt;Node7 -->
<g id="edge36" class="edge">
<title>Node27&#45;&gt;Node7</title>
<path fill="none" stroke="midnightblue" d="M998.77,-246.4C993.53,-236.66 986.52,-223.65 980.91,-213.21"/>
<polygon fill="midnightblue" stroke="midnightblue" points="983.87,-211.34 976.05,-204.19 977.71,-214.66 983.87,-211.34"/>
</g>
<!-- Node27&#45;&gt;Node10 -->
<g id="edge37" class="edge">
<title>Node27&#45;&gt;Node10</title>
<path fill="none" stroke="midnightblue" d="M1008.19,-246.37C1011.28,-222.4 1017.54,-173.75 1020.98,-147.06"/>
<polygon fill="midnightblue" stroke="midnightblue" points="1024.46,-147.46 1022.26,-137.1 1017.51,-146.57 1024.46,-147.46"/>
</g>
<!-- Node28 -->
<g id="node28" class="node">
<title>Node28</title>
<g id="a_node28"><a xlink:title=" ">
<polygon fill="white" stroke="#bfbfbf" points="1045.37,-185 1045.37,-204 1077.37,-204 1077.37,-185 1045.37,-185"/>
<text text-anchor="middle" x="1061.37" y="-192" font-family="Helvetica,sans-Serif" font-size="10.00">any</text>
</a>
</g>
</g>
<!-- Node27&#45;&gt;Node28 -->
<g id="edge38" class="edge">
<title>Node27&#45;&gt;Node28</title>
<path fill="none" stroke="midnightblue" d="M1018.3,-246.4C1026.88,-236.26 1038.47,-222.57 1047.46,-211.94"/>
<polygon fill="midnightblue" stroke="midnightblue" points="1050.22,-214.09 1054.01,-204.19 1044.88,-209.57 1050.22,-214.09"/>
</g>
</g>
</svg>
