<?xml version="1.0" encoding="UTF-8" standalone="no"?>
<!DOCTYPE svg PUBLIC "-//W3C//DTD SVG 1.1//EN"
 "http://www.w3.org/Graphics/SVG/1.1/DTD/svg11.dtd">
<!-- Generated by graphviz version 2.40.1 (20161225.0304)
 -->
<!-- Title: kryne&#45;engine/src/Core/AdditionalParameters.cpp Pages: 1 -->
<svg width="153pt" height="162pt"
 viewBox="0.00 0.00 152.50 162.00" xmlns="http://www.w3.org/2000/svg" xmlns:xlink="http://www.w3.org/1999/xlink">
<g id="graph0" class="graph" transform="scale(1 1) rotate(0) translate(4 158)">
<title>kryne&#45;engine/src/Core/AdditionalParameters.cpp</title>
<polygon fill="#ffffff" stroke="transparent" points="-4,4 -4,-158 148.5,-158 148.5,4 -4,4"/>
<!-- Node0 -->
<g id="node1" class="node">
<title>Node0</title>
<polygon fill="#bfbfbf" stroke="#000000" points="8,-123.5 8,-153.5 139,-153.5 139,-123.5 8,-123.5"/>
<text text-anchor="start" x="16" y="-141.5" font-family="Helvetica,sans-Serif" font-size="10.00" fill="#000000">kryne&#45;engine/src/Core</text>
<text text-anchor="middle" x="73.5" y="-130.5" font-family="Helvetica,sans-Serif" font-size="10.00" fill="#000000">/AdditionalParameters.cpp</text>
</g>
<!-- Node1 -->
<g id="node2" class="node">
<title>Node1</title>
<g id="a_node2"><a xlink:href="_additional_parameters_8h.html" target="_top" xlink:title="kryne&#45;engine/Core/Additional\lParameters.h">
<polygon fill="#ffffff" stroke="#000000" points="2.5,-56.5 2.5,-86.5 144.5,-86.5 144.5,-56.5 2.5,-56.5"/>
<text text-anchor="start" x="10.5" y="-74.5" font-family="Helvetica,sans-Serif" font-size="10.00" fill="#000000">kryne&#45;engine/Core/Additional</text>
<text text-anchor="middle" x="73.5" y="-63.5" font-family="Helvetica,sans-Serif" font-size="10.00" fill="#000000">Parameters.h</text>
</a>
</g>
</g>
<!-- Node0&#45;&gt;Node1 -->
<g id="edge1" class="edge">
<title>Node0&#45;&gt;Node1</title>
<path fill="none" stroke="#191970" d="M73.5,-123.2967C73.5,-115.5013 73.5,-105.7991 73.5,-96.9064"/>
<polygon fill="#191970" stroke="#191970" points="77.0001,-96.6431 73.5,-86.6432 70.0001,-96.6432 77.0001,-96.6431"/>
</g>
<!-- Node2 -->
<g id="node3" class="node">
<title>Node2</title>
<polygon fill="#ffffff" stroke="#bfbfbf" points="0,-.5 0,-19.5 35,-19.5 35,-.5 0,-.5"/>
<text text-anchor="middle" x="17.5" y="-7.5" font-family="Helvetica,sans-Serif" font-size="10.00" fill="#000000">map</text>
</g>
<!-- Node1&#45;&gt;Node2 -->
<g id="edge2" class="edge">
<title>Node1&#45;&gt;Node2</title>
<path fill="none" stroke="#191970" d="M59.6573,-56.2977C51.641,-47.4941 41.5238,-36.3833 33.21,-27.2529"/>
<polygon fill="#191970" stroke="#191970" points="35.7869,-24.8845 26.4663,-19.8469 30.6112,-29.5974 35.7869,-24.8845"/>
</g>
<!-- Node3 -->
<g id="node4" class="node">
<title>Node3</title>
<polygon fill="#ffffff" stroke="#bfbfbf" points="53,-.5 53,-19.5 94,-19.5 94,-.5 53,-.5"/>
<text text-anchor="middle" x="73.5" y="-7.5" font-family="Helvetica,sans-Serif" font-size="10.00" fill="#000000">string</text>
</g>
<!-- Node1&#45;&gt;Node3 -->
<g id="edge3" class="edge">
<title>Node1&#45;&gt;Node3</title>
<path fill="none" stroke="#191970" d="M73.5,-56.2977C73.5,-48.3834 73.5,-38.6043 73.5,-30.0759"/>
<polygon fill="#191970" stroke="#191970" points="77.0001,-29.8469 73.5,-19.8469 70.0001,-29.847 77.0001,-29.8469"/>
</g>
<!-- Node4 -->
<g id="node5" class="node">
<title>Node4</title>
<polygon fill="#ffffff" stroke="#bfbfbf" points="112.5,-.5 112.5,-19.5 144.5,-19.5 144.5,-.5 112.5,-.5"/>
<text text-anchor="middle" x="128.5" y="-7.5" font-family="Helvetica,sans-Serif" font-size="10.00" fill="#000000">any</text>
</g>
<!-- Node1&#45;&gt;Node4 -->
<g id="edge4" class="edge">
<title>Node1&#45;&gt;Node4</title>
<path fill="none" stroke="#191970" d="M87.0955,-56.2977C94.8891,-47.5831 104.7047,-36.6075 112.8226,-27.5302"/>
<polygon fill="#191970" stroke="#191970" points="115.6365,-29.6341 119.6938,-19.8469 110.4187,-24.9678 115.6365,-29.6341"/>
</g>
</g>
</svg>
