<?xml version="1.0" encoding="UTF-8" standalone="no"?>
<!DOCTYPE svg PUBLIC "-//W3C//DTD SVG 1.1//EN"
 "http://www.w3.org/Graphics/SVG/1.1/DTD/svg11.dtd">
<!-- Generated by graphviz version 2.44.1 (20200629.0846)
 -->
<!-- Title: kryne&#45;engine/src/Camera/BasicCamera.cpp Pages: 1 -->
<svg width="797pt" height="330pt"
 viewBox="0.00 0.00 796.63 330.00" xmlns="http://www.w3.org/2000/svg" xmlns:xlink="http://www.w3.org/1999/xlink">
<g id="graph0" class="graph" transform="scale(1 1) rotate(0) translate(4 326)">
<title>kryne&#45;engine/src/Camera/BasicCamera.cpp</title>
<polygon fill="white" stroke="transparent" points="-4,4 -4,-326 792.63,-326 792.63,4 -4,4"/>
<!-- Node1 -->
<g id="node1" class="node">
<title>Node1</title>
<g id="a_node1"><a xlink:title=" ">
<polygon fill="#bfbfbf" stroke="black" points="135.4,-291.5 135.4,-321.5 260.4,-321.5 260.4,-291.5 135.4,-291.5"/>
<text text-anchor="start" x="143.4" y="-309.5" font-family="Helvetica,sans-Serif" font-size="10.00">kryne&#45;engine/src/Camera</text>
<text text-anchor="middle" x="197.9" y="-298.5" font-family="Helvetica,sans-Serif" font-size="10.00">/BasicCamera.cpp</text>
</a>
</g>
</g>
<!-- Node2 -->
<g id="node2" class="node">
<title>Node2</title>
<g id="a_node2"><a xlink:href="_basic_camera_8h.html" target="_top" xlink:title=" ">
<polygon fill="white" stroke="black" points="143.4,-224.5 143.4,-254.5 252.4,-254.5 252.4,-224.5 143.4,-224.5"/>
<text text-anchor="start" x="151.4" y="-242.5" font-family="Helvetica,sans-Serif" font-size="10.00">kryne&#45;engine/Camera</text>
<text text-anchor="middle" x="197.9" y="-231.5" font-family="Helvetica,sans-Serif" font-size="10.00">/BasicCamera.h</text>
</a>
</g>
</g>
<!-- Node1&#45;&gt;Node2 -->
<g id="edge1" class="edge">
<title>Node1&#45;&gt;Node2</title>
<path fill="none" stroke="midnightblue" d="M197.9,-291.4C197.9,-283.64 197.9,-273.81 197.9,-264.86"/>
<polygon fill="midnightblue" stroke="midnightblue" points="201.4,-264.58 197.9,-254.58 194.4,-264.58 201.4,-264.58"/>
</g>
<!-- Node3 -->
<g id="node3" class="node">
<title>Node3</title>
<g id="a_node3"><a xlink:title=" ">
<polygon fill="white" stroke="#bfbfbf" points="114.9,-56.5 114.9,-75.5 156.9,-75.5 156.9,-56.5 114.9,-56.5"/>
<text text-anchor="middle" x="135.9" y="-63.5" font-family="Helvetica,sans-Serif" font-size="10.00">vector</text>
</a>
</g>
</g>
<!-- Node2&#45;&gt;Node3 -->
<g id="edge2" class="edge">
<title>Node2&#45;&gt;Node3</title>
<path fill="none" stroke="midnightblue" d="M143.18,-236.72C103.62,-232.53 51.6,-220.6 18.9,-188 0.57,-169.73 6.49,-157.63 2.9,-132 1.67,-123.2 -2.28,-119.22 2.9,-112 25.94,-79.88 73.16,-70.4 104.68,-67.76"/>
<polygon fill="midnightblue" stroke="midnightblue" points="104.96,-71.25 114.71,-67.1 104.5,-64.26 104.96,-71.25"/>
</g>
<!-- Node4 -->
<g id="node4" class="node">
<title>Node4</title>
<g id="a_node4"><a xlink:title=" ">
<polygon fill="white" stroke="#bfbfbf" points="24.9,-112.5 24.9,-131.5 76.9,-131.5 76.9,-112.5 24.9,-112.5"/>
<text text-anchor="middle" x="50.9" y="-119.5" font-family="Helvetica,sans-Serif" font-size="10.00">stdarg.h</text>
</a>
</g>
</g>
<!-- Node2&#45;&gt;Node4 -->
<g id="edge3" class="edge">
<title>Node2&#45;&gt;Node4</title>
<path fill="none" stroke="midnightblue" d="M179.87,-224.34C151.94,-202.39 98.46,-160.37 69.93,-137.95"/>
<polygon fill="midnightblue" stroke="midnightblue" points="71.96,-135.1 61.93,-131.67 67.63,-140.6 71.96,-135.1"/>
</g>
<!-- Node5 -->
<g id="node5" class="node">
<title>Node5</title>
<g id="a_node5"><a xlink:title=" ">
<polygon fill="white" stroke="#bfbfbf" points="94.9,-112.5 94.9,-131.5 142.9,-131.5 142.9,-112.5 94.9,-112.5"/>
<text text-anchor="middle" x="118.9" y="-119.5" font-family="Helvetica,sans-Serif" font-size="10.00">stdlib.h</text>
</a>
</g>
</g>
<!-- Node2&#45;&gt;Node5 -->
<g id="edge4" class="edge">
<title>Node2&#45;&gt;Node5</title>
<path fill="none" stroke="midnightblue" d="M188.21,-224.34C173.65,-203.05 146.18,-162.89 130.55,-140.03"/>
<polygon fill="midnightblue" stroke="midnightblue" points="133.36,-137.95 124.83,-131.67 127.59,-141.9 133.36,-137.95"/>
</g>
<!-- Node6 -->
<g id="node6" class="node">
<title>Node6</title>
<g id="a_node6"><a xlink:title=" ">
<polygon fill="white" stroke="#bfbfbf" points="174.9,-56.5 174.9,-75.5 238.9,-75.5 238.9,-56.5 174.9,-56.5"/>
<text text-anchor="middle" x="206.9" y="-63.5" font-family="Helvetica,sans-Serif" font-size="10.00">glad/glad.h</text>
</a>
</g>
</g>
<!-- Node2&#45;&gt;Node6 -->
<g id="edge5" class="edge">
<title>Node2&#45;&gt;Node6</title>
<path fill="none" stroke="midnightblue" d="M143.37,-224.72C75.65,-204.98 -26.14,-165.1 15.9,-112 18.24,-109.04 109.11,-88.56 164.65,-76.27"/>
<polygon fill="midnightblue" stroke="midnightblue" points="165.57,-79.65 174.58,-74.08 164.06,-72.82 165.57,-79.65"/>
</g>
<!-- Node7 -->
<g id="node7" class="node">
<title>Node7</title>
<g id="a_node7"><a xlink:title=" ">
<polygon fill="white" stroke="#bfbfbf" points="692.9,-56.5 692.9,-75.5 770.9,-75.5 770.9,-56.5 692.9,-56.5"/>
<text text-anchor="middle" x="731.9" y="-63.5" font-family="Helvetica,sans-Serif" font-size="10.00">GLFW/glfw3.h</text>
</a>
</g>
</g>
<!-- Node2&#45;&gt;Node7 -->
<g id="edge6" class="edge">
<title>Node2&#45;&gt;Node7</title>
<path fill="none" stroke="midnightblue" d="M252.73,-237.11C385.14,-232.48 716.4,-212.87 783.9,-132 798.42,-114.6 775.64,-94.13 755.81,-80.88"/>
<polygon fill="midnightblue" stroke="midnightblue" points="757.65,-77.9 747.33,-75.5 753.91,-83.81 757.65,-77.9"/>
</g>
<!-- Node8 -->
<g id="node8" class="node">
<title>Node8</title>
<g id="a_node8"><a xlink:title=" ">
<polygon fill="white" stroke="#bfbfbf" points="160.9,-112.5 160.9,-131.5 234.9,-131.5 234.9,-112.5 160.9,-112.5"/>
<text text-anchor="middle" x="197.9" y="-119.5" font-family="Helvetica,sans-Serif" font-size="10.00">glm/vec3.hpp</text>
</a>
</g>
</g>
<!-- Node2&#45;&gt;Node8 -->
<g id="edge7" class="edge">
<title>Node2&#45;&gt;Node8</title>
<path fill="none" stroke="midnightblue" d="M197.9,-224.34C197.9,-203.62 197.9,-165.02 197.9,-141.9"/>
<polygon fill="midnightblue" stroke="midnightblue" points="201.4,-141.67 197.9,-131.67 194.4,-141.67 201.4,-141.67"/>
</g>
<!-- Node9 -->
<g id="node9" class="node">
<title>Node9</title>
<g id="a_node9"><a xlink:title=" ">
<polygon fill="white" stroke="#bfbfbf" points="526.9,-112.5 526.9,-131.5 612.9,-131.5 612.9,-112.5 526.9,-112.5"/>
<text text-anchor="middle" x="569.9" y="-119.5" font-family="Helvetica,sans-Serif" font-size="10.00">glm/mat4x4.hpp</text>
</a>
</g>
</g>
<!-- Node2&#45;&gt;Node9 -->
<g id="edge8" class="edge">
<title>Node2&#45;&gt;Node9</title>
<path fill="none" stroke="midnightblue" d="M243.14,-224.45C317.36,-201.41 463.6,-156 532.42,-134.64"/>
<polygon fill="midnightblue" stroke="midnightblue" points="533.87,-137.85 542.39,-131.54 531.8,-131.16 533.87,-137.85"/>
</g>
<!-- Node10 -->
<g id="node10" class="node">
<title>Node10</title>
<g id="a_node10"><a xlink:title=" ">
<polygon fill="white" stroke="#bfbfbf" points="631.4,-112.5 631.4,-131.5 774.4,-131.5 774.4,-112.5 631.4,-112.5"/>
<text text-anchor="middle" x="702.9" y="-119.5" font-family="Helvetica,sans-Serif" font-size="10.00">glm/gtc/matrix_transform.hpp</text>
</a>
</g>
</g>
<!-- Node2&#45;&gt;Node10 -->
<g id="edge9" class="edge">
<title>Node2&#45;&gt;Node10</title>
<path fill="none" stroke="midnightblue" d="M252.42,-226.03C352.08,-203.24 562.02,-155.22 655.85,-133.76"/>
<polygon fill="midnightblue" stroke="midnightblue" points="656.66,-137.16 665.63,-131.52 655.1,-130.34 656.66,-137.16"/>
</g>
<!-- Node11 -->
<g id="node11" class="node">
<title>Node11</title>
<g id="a_node11"><a xlink:href="_old_camera_8h.html" target="_top" xlink:title=" ">
<polygon fill="white" stroke="black" points="263.9,-168.5 263.9,-187.5 337.9,-187.5 337.9,-168.5 263.9,-168.5"/>
<text text-anchor="middle" x="300.9" y="-175.5" font-family="Helvetica,sans-Serif" font-size="10.00">OldCamera.h</text>
</a>
</g>
</g>
<!-- Node2&#45;&gt;Node11 -->
<g id="edge10" class="edge">
<title>Node2&#45;&gt;Node11</title>
<path fill="none" stroke="midnightblue" d="M222.31,-224.4C238.82,-214.86 260.52,-202.32 276.94,-192.84"/>
<polygon fill="midnightblue" stroke="midnightblue" points="279,-195.69 285.91,-187.66 275.5,-189.63 279,-195.69"/>
</g>
<!-- Node11&#45;&gt;Node3 -->
<g id="edge11" class="edge">
<title>Node11&#45;&gt;Node3</title>
<path fill="none" stroke="midnightblue" d="M295.23,-168.29C285.96,-154.64 266.33,-128.11 243.9,-112 231.04,-102.77 193.81,-88.1 166.65,-78.03"/>
<polygon fill="midnightblue" stroke="midnightblue" points="167.75,-74.71 157.16,-74.55 165.34,-81.28 167.75,-74.71"/>
</g>
<!-- Node11&#45;&gt;Node4 -->
<g id="edge12" class="edge">
<title>Node11&#45;&gt;Node4</title>
<path fill="none" stroke="midnightblue" d="M263.88,-169.78C222.97,-161.69 154.87,-147.87 87.22,-132.23"/>
<polygon fill="midnightblue" stroke="midnightblue" points="87.77,-128.77 77.24,-129.91 86.19,-135.59 87.77,-128.77"/>
</g>
<!-- Node11&#45;&gt;Node5 -->
<g id="edge13" class="edge">
<title>Node11&#45;&gt;Node5</title>
<path fill="none" stroke="midnightblue" d="M272.06,-168.44C239.58,-158.81 186.87,-143.17 152.54,-132.98"/>
<polygon fill="midnightblue" stroke="midnightblue" points="153.54,-129.63 142.95,-130.14 151.54,-136.34 153.54,-129.63"/>
</g>
<!-- Node11&#45;&gt;Node6 -->
<g id="edge14" class="edge">
<title>Node11&#45;&gt;Node6</title>
<path fill="none" stroke="midnightblue" d="M299.48,-168.13C296.95,-154.72 290.61,-129.07 276.9,-112 266.09,-98.55 250.13,-87.85 236.18,-80.27"/>
<polygon fill="midnightblue" stroke="midnightblue" points="237.43,-76.97 226.93,-75.52 234.23,-83.2 237.43,-76.97"/>
</g>
<!-- Node11&#45;&gt;Node7 -->
<g id="edge15" class="edge">
<title>Node11&#45;&gt;Node7</title>
<path fill="none" stroke="midnightblue" d="M338.12,-170.15C374.66,-162.83 431.63,-149.83 478.9,-132 497.12,-125.12 499.54,-118.51 517.9,-112 533.26,-106.56 624.27,-88.17 682.55,-76.66"/>
<polygon fill="midnightblue" stroke="midnightblue" points="683.54,-80.03 692.67,-74.66 682.19,-73.16 683.54,-80.03"/>
</g>
<!-- Node11&#45;&gt;Node8 -->
<g id="edge16" class="edge">
<title>Node11&#45;&gt;Node8</title>
<path fill="none" stroke="midnightblue" d="M284.35,-168.32C267.91,-159.7 242.46,-146.36 223.43,-136.39"/>
<polygon fill="midnightblue" stroke="midnightblue" points="224.89,-133.2 214.41,-131.65 221.64,-139.4 224.89,-133.2"/>
</g>
<!-- Node11&#45;&gt;Node9 -->
<g id="edge17" class="edge">
<title>Node11&#45;&gt;Node9</title>
<path fill="none" stroke="midnightblue" d="M338.02,-169.55C384.6,-160.2 464.76,-144.11 517.55,-133.51"/>
<polygon fill="midnightblue" stroke="midnightblue" points="518.28,-136.93 527.4,-131.53 516.91,-130.07 518.28,-136.93"/>
</g>
<!-- Node11&#45;&gt;Node10 -->
<g id="edge18" class="edge">
<title>Node11&#45;&gt;Node10</title>
<path fill="none" stroke="midnightblue" d="M338,-172.02C404.09,-163.14 543.34,-144.43 629.43,-132.87"/>
<polygon fill="midnightblue" stroke="midnightblue" points="629.95,-136.33 639.39,-131.53 629.02,-129.39 629.95,-136.33"/>
</g>
<!-- Node12 -->
<g id="node12" class="node">
<title>Node12</title>
<g id="a_node12"><a xlink:href="_window_8h.html" target="_top" xlink:title=" ">
<polygon fill="white" stroke="black" points="329.4,-112.5 329.4,-131.5 470.4,-131.5 470.4,-112.5 329.4,-112.5"/>
<text text-anchor="middle" x="399.9" y="-119.5" font-family="Helvetica,sans-Serif" font-size="10.00">kryne&#45;engine/Core/Window.h</text>
</a>
</g>
</g>
<!-- Node11&#45;&gt;Node12 -->
<g id="edge19" class="edge">
<title>Node11&#45;&gt;Node12</title>
<path fill="none" stroke="midnightblue" d="M311.69,-168.32C325.69,-159.66 350.04,-146.24 369.71,-136.25"/>
<polygon fill="midnightblue" stroke="midnightblue" points="371.53,-139.25 378.92,-131.65 368.41,-132.98 371.53,-139.25"/>
</g>
<!-- Node12&#45;&gt;Node3 -->
<g id="edge20" class="edge">
<title>Node12&#45;&gt;Node3</title>
<path fill="none" stroke="midnightblue" d="M347.52,-112.49C302.12,-104.77 234.48,-92.41 167.07,-76.1"/>
<polygon fill="midnightblue" stroke="midnightblue" points="167.68,-72.64 157.13,-73.66 166.01,-79.44 167.68,-72.64"/>
</g>
<!-- Node12&#45;&gt;Node6 -->
<g id="edge25" class="edge">
<title>Node12&#45;&gt;Node6</title>
<path fill="none" stroke="midnightblue" d="M369.32,-112.44C336.28,-103.2 283.51,-88.44 247.13,-78.26"/>
<polygon fill="midnightblue" stroke="midnightblue" points="247.91,-74.84 237.34,-75.52 246.02,-81.58 247.91,-74.84"/>
</g>
<!-- Node12&#45;&gt;Node7 -->
<g id="edge26" class="edge">
<title>Node12&#45;&gt;Node7</title>
<path fill="none" stroke="midnightblue" d="M456.82,-112.46C512.03,-104.07 598.43,-90.66 682.86,-76.14"/>
<polygon fill="midnightblue" stroke="midnightblue" points="683.62,-79.56 692.88,-74.41 682.43,-72.66 683.62,-79.56"/>
</g>
<!-- Node12&#45;&gt;Node11 -->
<g id="edge31" class="edge">
<title>Node12&#45;&gt;Node11</title>
<path fill="none" stroke="midnightblue" d="M389.14,-131.65C375.09,-140.35 350.6,-153.85 330.87,-163.86"/>
<polygon fill="midnightblue" stroke="midnightblue" points="329.31,-160.73 321.92,-168.32 332.43,-167 329.31,-160.73"/>
</g>
<!-- Node13 -->
<g id="node13" class="node">
<title>Node13</title>
<g id="a_node13"><a xlink:title=" ">
<polygon fill="white" stroke="#bfbfbf" points="528.9,-56.5 528.9,-75.5 606.9,-75.5 606.9,-56.5 528.9,-56.5"/>
<text text-anchor="middle" x="567.9" y="-63.5" font-family="Helvetica,sans-Serif" font-size="10.00">unordered_set</text>
</a>
</g>
</g>
<!-- Node12&#45;&gt;Node13 -->
<g id="edge21" class="edge">
<title>Node12&#45;&gt;Node13</title>
<path fill="none" stroke="midnightblue" d="M426.52,-112.44C454.9,-103.32 500.04,-88.81 531.65,-78.65"/>
<polygon fill="midnightblue" stroke="midnightblue" points="532.95,-81.91 541.4,-75.52 530.81,-75.24 532.95,-81.91"/>
</g>
<!-- Node14 -->
<g id="node14" class="node">
<title>Node14</title>
<g id="a_node14"><a xlink:title=" ">
<polygon fill="white" stroke="#bfbfbf" points="625.4,-56.5 625.4,-75.5 674.4,-75.5 674.4,-56.5 625.4,-56.5"/>
<text text-anchor="middle" x="649.9" y="-63.5" font-family="Helvetica,sans-Serif" font-size="10.00">cstdarg</text>
</a>
</g>
</g>
<!-- Node12&#45;&gt;Node14 -->
<g id="edge22" class="edge">
<title>Node12&#45;&gt;Node14</title>
<path fill="none" stroke="midnightblue" d="M444.32,-112.47C485.95,-104.31 550.16,-91.31 615.06,-76.1"/>
<polygon fill="midnightblue" stroke="midnightblue" points="616.13,-79.44 625.05,-73.74 614.52,-72.63 616.13,-79.44"/>
</g>
<!-- Node15 -->
<g id="node15" class="node">
<title>Node15</title>
<g id="a_node15"><a xlink:title=" ">
<polygon fill="white" stroke="#bfbfbf" points="257.4,-56.5 257.4,-75.5 302.4,-75.5 302.4,-56.5 257.4,-56.5"/>
<text text-anchor="middle" x="279.9" y="-63.5" font-family="Helvetica,sans-Serif" font-size="10.00">cstdlib</text>
</a>
</g>
</g>
<!-- Node12&#45;&gt;Node15 -->
<g id="edge23" class="edge">
<title>Node12&#45;&gt;Node15</title>
<path fill="none" stroke="midnightblue" d="M380.88,-112.44C361.31,-103.64 330.59,-89.81 308.17,-79.72"/>
<polygon fill="midnightblue" stroke="midnightblue" points="309.38,-76.43 298.82,-75.52 306.51,-82.81 309.38,-76.43"/>
</g>
<!-- Node16 -->
<g id="node16" class="node">
<title>Node16</title>
<g id="a_node16"><a xlink:title=" ">
<polygon fill="white" stroke="#bfbfbf" points="320.9,-56.5 320.9,-75.5 374.9,-75.5 374.9,-56.5 320.9,-56.5"/>
<text text-anchor="middle" x="347.9" y="-63.5" font-family="Helvetica,sans-Serif" font-size="10.00">iostream</text>
</a>
</g>
</g>
<!-- Node12&#45;&gt;Node16 -->
<g id="edge24" class="edge">
<title>Node12&#45;&gt;Node16</title>
<path fill="none" stroke="midnightblue" d="M391.31,-112.08C383.74,-104.22 372.52,-92.57 363.38,-83.08"/>
<polygon fill="midnightblue" stroke="midnightblue" points="365.78,-80.53 356.33,-75.75 360.74,-85.38 365.78,-80.53"/>
</g>
<!-- Node17 -->
<g id="node17" class="node">
<title>Node17</title>
<g id="a_node17"><a xlink:href="_additional_parameters_8h.html" target="_top" xlink:title=" ">
<polygon fill="white" stroke="black" points="392.9,-56.5 392.9,-75.5 510.9,-75.5 510.9,-56.5 392.9,-56.5"/>
<text text-anchor="middle" x="451.9" y="-63.5" font-family="Helvetica,sans-Serif" font-size="10.00">AdditionalParameters.h</text>
</a>
</g>
</g>
<!-- Node12&#45;&gt;Node17 -->
<g id="edge27" class="edge">
<title>Node12&#45;&gt;Node17</title>
<path fill="none" stroke="midnightblue" d="M408.49,-112.08C416.06,-104.22 427.28,-92.57 436.41,-83.08"/>
<polygon fill="midnightblue" stroke="midnightblue" points="439.06,-85.38 443.47,-75.75 434.01,-80.53 439.06,-85.38"/>
</g>
<!-- Node18 -->
<g id="node18" class="node">
<title>Node18</title>
<g id="a_node18"><a xlink:title=" ">
<polygon fill="white" stroke="#bfbfbf" points="378.4,-0.5 378.4,-19.5 413.4,-19.5 413.4,-0.5 378.4,-0.5"/>
<text text-anchor="middle" x="395.9" y="-7.5" font-family="Helvetica,sans-Serif" font-size="10.00">map</text>
</a>
</g>
</g>
<!-- Node17&#45;&gt;Node18 -->
<g id="edge28" class="edge">
<title>Node17&#45;&gt;Node18</title>
<path fill="none" stroke="midnightblue" d="M442.9,-56.32C434.7,-48.42 422.39,-36.55 412.43,-26.94"/>
<polygon fill="midnightblue" stroke="midnightblue" points="414.69,-24.26 405.06,-19.83 409.83,-29.29 414.69,-24.26"/>
</g>
<!-- Node19 -->
<g id="node19" class="node">
<title>Node19</title>
<g id="a_node19"><a xlink:title=" ">
<polygon fill="white" stroke="#bfbfbf" points="431.4,-0.5 431.4,-19.5 472.4,-19.5 472.4,-0.5 431.4,-0.5"/>
<text text-anchor="middle" x="451.9" y="-7.5" font-family="Helvetica,sans-Serif" font-size="10.00">string</text>
</a>
</g>
</g>
<!-- Node17&#45;&gt;Node19 -->
<g id="edge29" class="edge">
<title>Node17&#45;&gt;Node19</title>
<path fill="none" stroke="midnightblue" d="M451.9,-56.08C451.9,-49.01 451.9,-38.86 451.9,-29.99"/>
<polygon fill="midnightblue" stroke="midnightblue" points="455.4,-29.75 451.9,-19.75 448.4,-29.75 455.4,-29.75"/>
</g>
<!-- Node20 -->
<g id="node20" class="node">
<title>Node20</title>
<g id="a_node20"><a xlink:title=" ">
<polygon fill="white" stroke="#bfbfbf" points="490.9,-0.5 490.9,-19.5 522.9,-19.5 522.9,-0.5 490.9,-0.5"/>
<text text-anchor="middle" x="506.9" y="-7.5" font-family="Helvetica,sans-Serif" font-size="10.00">any</text>
</a>
</g>
</g>
<!-- Node17&#45;&gt;Node20 -->
<g id="edge30" class="edge">
<title>Node17&#45;&gt;Node20</title>
<path fill="none" stroke="midnightblue" d="M460.98,-56.08C469.07,-48.14 481.09,-36.34 490.81,-26.8"/>
<polygon fill="midnightblue" stroke="midnightblue" points="493.3,-29.25 497.99,-19.75 488.4,-24.26 493.3,-29.25"/>
</g>
</g>
</svg>
