<?xml version="1.0" encoding="UTF-8" standalone="no"?>
<!DOCTYPE svg PUBLIC "-//W3C//DTD SVG 1.1//EN"
 "http://www.w3.org/Graphics/SVG/1.1/DTD/svg11.dtd">
<!-- Generated by graphviz version 2.40.1 (20161225.0304)
 -->
<!-- Title: kryne&#45;engine/src/Camera/BasicCamera.cpp Pages: 1 -->
<svg width="801pt" height="330pt"
 viewBox="0.00 0.00 800.82 330.00" xmlns="http://www.w3.org/2000/svg" xmlns:xlink="http://www.w3.org/1999/xlink">
<g id="graph0" class="graph" transform="scale(1 1) rotate(0) translate(4 326)">
<title>kryne&#45;engine/src/Camera/BasicCamera.cpp</title>
<polygon fill="#ffffff" stroke="transparent" points="-4,4 -4,-326 796.8191,-326 796.8191,4 -4,4"/>
<!-- Node0 -->
<g id="node1" class="node">
<title>Node0</title>
<polygon fill="#bfbfbf" stroke="#000000" points="135.8949,-291.5 135.8949,-321.5 261.8949,-321.5 261.8949,-291.5 135.8949,-291.5"/>
<text text-anchor="start" x="143.8949" y="-309.5" font-family="Helvetica,sans-Serif" font-size="10.00" fill="#000000">kryne&#45;engine/src/Camera</text>
<text text-anchor="middle" x="198.8949" y="-298.5" font-family="Helvetica,sans-Serif" font-size="10.00" fill="#000000">/BasicCamera.cpp</text>
</g>
<!-- Node1 -->
<g id="node2" class="node">
<title>Node1</title>
<g id="a_node2"><a xlink:href="_basic_camera_8h.html" target="_top" xlink:title="kryne&#45;engine/Camera\l/BasicCamera.h">
<polygon fill="#ffffff" stroke="#000000" points="143.8949,-224.5 143.8949,-254.5 253.8949,-254.5 253.8949,-224.5 143.8949,-224.5"/>
<text text-anchor="start" x="151.8949" y="-242.5" font-family="Helvetica,sans-Serif" font-size="10.00" fill="#000000">kryne&#45;engine/Camera</text>
<text text-anchor="middle" x="198.8949" y="-231.5" font-family="Helvetica,sans-Serif" font-size="10.00" fill="#000000">/BasicCamera.h</text>
</a>
</g>
</g>
<!-- Node0&#45;&gt;Node1 -->
<g id="edge1" class="edge">
<title>Node0&#45;&gt;Node1</title>
<path fill="none" stroke="#191970" d="M198.8949,-291.2967C198.8949,-283.5013 198.8949,-273.7991 198.8949,-264.9064"/>
<polygon fill="#191970" stroke="#191970" points="202.395,-264.6431 198.8949,-254.6432 195.395,-264.6432 202.395,-264.6431"/>
</g>
<!-- Node2 -->
<g id="node3" class="node">
<title>Node2</title>
<polygon fill="#ffffff" stroke="#bfbfbf" points="115.8949,-56.5 115.8949,-75.5 159.8949,-75.5 159.8949,-56.5 115.8949,-56.5"/>
<text text-anchor="middle" x="137.8949" y="-63.5" font-family="Helvetica,sans-Serif" font-size="10.00" fill="#000000">vector</text>
</g>
<!-- Node1&#45;&gt;Node2 -->
<g id="edge2" class="edge">
<title>Node1&#45;&gt;Node2</title>
<path fill="none" stroke="#191970" d="M143.4641,-229.7384C97.3355,-220.5465 36.4743,-205.5858 18.8949,-188 .5949,-169.6933 6.4852,-157.6346 2.8949,-132 1.662,-123.197 -2.2785,-119.2283 2.8949,-112 15.0602,-95.0026 69.8976,-80.4173 105.8307,-72.4556"/>
<polygon fill="#191970" stroke="#191970" points="106.8211,-75.8226 115.8599,-70.2955 105.3471,-68.9795 106.8211,-75.8226"/>
</g>
<!-- Node3 -->
<g id="node4" class="node">
<title>Node3</title>
<polygon fill="#ffffff" stroke="#bfbfbf" points="24.8949,-112.5 24.8949,-131.5 76.8949,-131.5 76.8949,-112.5 24.8949,-112.5"/>
<text text-anchor="middle" x="50.8949" y="-119.5" font-family="Helvetica,sans-Serif" font-size="10.00" fill="#000000">stdarg.h</text>
</g>
<!-- Node1&#45;&gt;Node3 -->
<g id="edge3" class="edge">
<title>Node1&#45;&gt;Node3</title>
<path fill="none" stroke="#191970" d="M179.8495,-224.3795C151.8317,-202.1356 99.7355,-160.7754 71.0804,-138.0256"/>
<polygon fill="#191970" stroke="#191970" points="73.0008,-135.0814 62.9927,-131.6046 68.6483,-140.5637 73.0008,-135.0814"/>
</g>
<!-- Node4 -->
<g id="node5" class="node">
<title>Node4</title>
<polygon fill="#ffffff" stroke="#bfbfbf" points="94.8949,-112.5 94.8949,-131.5 142.8949,-131.5 142.8949,-112.5 94.8949,-112.5"/>
<text text-anchor="middle" x="118.8949" y="-119.5" font-family="Helvetica,sans-Serif" font-size="10.00" fill="#000000">stdlib.h</text>
</g>
<!-- Node1&#45;&gt;Node4 -->
<g id="edge4" class="edge">
<title>Node1&#45;&gt;Node4</title>
<path fill="none" stroke="#191970" d="M188.4363,-224.1389C173.6954,-202.4881 146.8605,-163.0745 131.186,-140.0525"/>
<polygon fill="#191970" stroke="#191970" points="133.9246,-137.8557 125.4035,-131.5595 128.1384,-141.7953 133.9246,-137.8557"/>
</g>
<!-- Node5 -->
<g id="node6" class="node">
<title>Node5</title>
<polygon fill="#ffffff" stroke="#bfbfbf" points="177.8949,-56.5 177.8949,-75.5 241.8949,-75.5 241.8949,-56.5 177.8949,-56.5"/>
<text text-anchor="middle" x="209.8949" y="-63.5" font-family="Helvetica,sans-Serif" font-size="10.00" fill="#000000">glad/glad.h</text>
</g>
<!-- Node1&#45;&gt;Node5 -->
<g id="edge5" class="edge">
<title>Node1&#45;&gt;Node5</title>
<path fill="none" stroke="#191970" d="M143.7644,-225.4949C75.6553,-205.5392 -26.3573,-165.3478 15.8949,-112 57.3187,-59.6982 97.2113,-89.3099 167.5426,-76.0535"/>
<polygon fill="#191970" stroke="#191970" points="168.626,-79.401 177.672,-73.8855 167.1609,-72.556 168.626,-79.401"/>
</g>
<!-- Node6 -->
<g id="node7" class="node">
<title>Node6</title>
<polygon fill="#ffffff" stroke="#bfbfbf" points="695.8949,-56.5 695.8949,-75.5 775.8949,-75.5 775.8949,-56.5 695.8949,-56.5"/>
<text text-anchor="middle" x="735.8949" y="-63.5" font-family="Helvetica,sans-Serif" font-size="10.00" fill="#000000">GLFW/glfw3.h</text>
</g>
<!-- Node1&#45;&gt;Node6 -->
<g id="edge6" class="edge">
<title>Node1&#45;&gt;Node6</title>
<path fill="none" stroke="#191970" d="M254.0117,-238.0567C387.1041,-233.293 720.0702,-213.324 787.8949,-132 802.2191,-114.8249 780.7365,-94.5502 761.1973,-81.0484"/>
<polygon fill="#191970" stroke="#191970" points="763.0562,-78.082 752.773,-75.5312 759.2211,-83.938 763.0562,-78.082"/>
</g>
<!-- Node7 -->
<g id="node8" class="node">
<title>Node7</title>
<polygon fill="#ffffff" stroke="#bfbfbf" points="161.3949,-112.5 161.3949,-131.5 236.3949,-131.5 236.3949,-112.5 161.3949,-112.5"/>
<text text-anchor="middle" x="198.8949" y="-119.5" font-family="Helvetica,sans-Serif" font-size="10.00" fill="#000000">glm/vec3.hpp</text>
</g>
<!-- Node1&#45;&gt;Node7 -->
<g id="edge7" class="edge">
<title>Node1&#45;&gt;Node7</title>
<path fill="none" stroke="#191970" d="M198.8949,-224.1389C198.8949,-202.9692 198.8949,-164.8174 198.8949,-141.6112"/>
<polygon fill="#191970" stroke="#191970" points="202.395,-141.5594 198.8949,-131.5595 195.395,-141.5595 202.395,-141.5594"/>
</g>
<!-- Node8 -->
<g id="node9" class="node">
<title>Node8</title>
<polygon fill="#ffffff" stroke="#bfbfbf" points="530.8949,-112.5 530.8949,-131.5 616.8949,-131.5 616.8949,-112.5 530.8949,-112.5"/>
<text text-anchor="middle" x="573.8949" y="-119.5" font-family="Helvetica,sans-Serif" font-size="10.00" fill="#000000">glm/mat4x4.hpp</text>
</g>
<!-- Node1&#45;&gt;Node8 -->
<g id="edge8" class="edge">
<title>Node1&#45;&gt;Node8</title>
<path fill="none" stroke="#191970" d="M246.7698,-224.4992C321.2956,-201.1478 463.7154,-156.5229 533.4285,-134.6795"/>
<polygon fill="#191970" stroke="#191970" points="534.6738,-137.9572 543.1698,-131.6272 532.5807,-131.2774 534.6738,-137.9572"/>
</g>
<!-- Node9 -->
<g id="node10" class="node">
<title>Node9</title>
<polygon fill="#ffffff" stroke="#bfbfbf" points="634.8949,-112.5 634.8949,-131.5 778.8949,-131.5 778.8949,-112.5 634.8949,-112.5"/>
<text text-anchor="middle" x="706.8949" y="-119.5" font-family="Helvetica,sans-Serif" font-size="10.00" fill="#000000">glm/gtc/matrix_transform.hpp</text>
</g>
<!-- Node1&#45;&gt;Node9 -->
<g id="edge9" class="edge">
<title>Node1&#45;&gt;Node9</title>
<path fill="none" stroke="#191970" d="M254.2269,-226.7018C353.4482,-203.7519 560.2011,-155.9302 656.0635,-133.7573"/>
<polygon fill="#191970" stroke="#191970" points="656.8606,-137.1654 665.8147,-131.5018 655.2831,-130.3454 656.8606,-137.1654"/>
</g>
<!-- Node10 -->
<g id="node11" class="node">
<title>Node10</title>
<g id="a_node11"><a xlink:href="_old_camera_8h.html" target="_top" xlink:title="OldCamera.h">
<polygon fill="#ffffff" stroke="#000000" points="265.8949,-168.5 265.8949,-187.5 339.8949,-187.5 339.8949,-168.5 265.8949,-168.5"/>
<text text-anchor="middle" x="302.8949" y="-175.5" font-family="Helvetica,sans-Serif" font-size="10.00" fill="#000000">OldCamera.h</text>
</a>
</g>
</g>
<!-- Node1&#45;&gt;Node10 -->
<g id="edge10" class="edge">
<title>Node1&#45;&gt;Node10</title>
<path fill="none" stroke="#191970" d="M224.3362,-224.4554C240.6233,-214.8241 261.6622,-202.3828 277.8679,-192.7996"/>
<polygon fill="#191970" stroke="#191970" points="279.9525,-195.6331 286.7786,-187.5303 276.3894,-189.6078 279.9525,-195.6331"/>
</g>
<!-- Node10&#45;&gt;Node2 -->
<g id="edge11" class="edge">
<title>Node10&#45;&gt;Node2</title>
<path fill="none" stroke="#191970" d="M296.4697,-168.268C286.7623,-154.2067 267.1148,-128.1302 244.8949,-112 232.3617,-102.9017 196.5146,-88.2208 169.7428,-77.8963"/>
<polygon fill="#191970" stroke="#191970" points="170.9408,-74.6073 160.3502,-74.3081 168.4427,-81.1464 170.9408,-74.6073"/>
</g>
<!-- Node10&#45;&gt;Node3 -->
<g id="edge12" class="edge">
<title>Node10&#45;&gt;Node3</title>
<path fill="none" stroke="#191970" d="M265.8566,-170.962C224.5474,-162.9336 155.5378,-148.9905 87.278,-132.2256"/>
<polygon fill="#191970" stroke="#191970" points="87.764,-128.7402 77.2157,-129.732 86.0801,-135.5347 87.764,-128.7402"/>
</g>
<!-- Node10&#45;&gt;Node4 -->
<g id="edge13" class="edge">
<title>Node10&#45;&gt;Node4</title>
<path fill="none" stroke="#191970" d="M271.2642,-168.3733C238.3005,-158.3408 186.8242,-142.6741 152.9767,-132.3727"/>
<polygon fill="#191970" stroke="#191970" points="153.6641,-128.9235 143.0783,-129.3601 151.6259,-135.6202 153.6641,-128.9235"/>
</g>
<!-- Node10&#45;&gt;Node5 -->
<g id="edge14" class="edge">
<title>Node10&#45;&gt;Node5</title>
<path fill="none" stroke="#191970" d="M301.3019,-168.1058C298.6667,-154.3089 292.3,-129.0676 278.8949,-112 268.5627,-98.8448 253.3961,-88.1554 239.9116,-80.4033"/>
<polygon fill="#191970" stroke="#191970" points="241.3816,-77.2185 230.9251,-75.5116 238.0348,-83.3667 241.3816,-77.2185"/>
</g>
<!-- Node10&#45;&gt;Node6 -->
<g id="edge15" class="edge">
<title>Node10&#45;&gt;Node6</title>
<path fill="none" stroke="#191970" d="M340.182,-171.0152C377.1138,-163.5093 434.9348,-150.1634 482.8949,-132 501.1119,-125.1009 503.5486,-118.5474 521.8949,-112 529.6503,-109.2323 625.0276,-89.1206 685.8049,-76.4228"/>
<polygon fill="#191970" stroke="#191970" points="686.5389,-79.8451 695.6126,-74.3754 685.1084,-72.9929 686.5389,-79.8451"/>
</g>
<!-- Node10&#45;&gt;Node7 -->
<g id="edge16" class="edge">
<title>Node10&#45;&gt;Node7</title>
<path fill="none" stroke="#191970" d="M284.7795,-168.2455C268.4499,-159.4527 244.2239,-146.4079 225.661,-136.4125"/>
<polygon fill="#191970" stroke="#191970" points="227.2668,-133.3021 216.8028,-131.6427 223.9481,-139.4654 227.2668,-133.3021"/>
</g>
<!-- Node10&#45;&gt;Node8 -->
<g id="edge17" class="edge">
<title>Node10&#45;&gt;Node8</title>
<path fill="none" stroke="#191970" d="M340.0081,-170.3309C386.7193,-160.6784 467.2754,-144.0321 520.5731,-133.0185"/>
<polygon fill="#191970" stroke="#191970" points="521.4372,-136.414 530.522,-130.9627 520.0206,-129.5588 521.4372,-136.414"/>
</g>
<!-- Node10&#45;&gt;Node9 -->
<g id="edge18" class="edge">
<title>Node10&#45;&gt;Node9</title>
<path fill="none" stroke="#191970" d="M340.1781,-172.832C405.3793,-163.7943 541.4239,-144.9366 628.2324,-132.9037"/>
<polygon fill="#191970" stroke="#191970" points="628.8799,-136.3475 638.3047,-131.5076 627.9188,-129.4138 628.8799,-136.3475"/>
</g>
<!-- Node11 -->
<g id="node12" class="node">
<title>Node11</title>
<g id="a_node12"><a xlink:href="_window_8h.html" target="_top" xlink:title="kryne&#45;engine/Core/Window.h">
<polygon fill="#ffffff" stroke="#000000" points="331.3949,-112.5 331.3949,-131.5 474.3949,-131.5 474.3949,-112.5 331.3949,-112.5"/>
<text text-anchor="middle" x="402.8949" y="-119.5" font-family="Helvetica,sans-Serif" font-size="10.00" fill="#000000">kryne&#45;engine/Core/Window.h</text>
</a>
</g>
</g>
<!-- Node10&#45;&gt;Node11 -->
<g id="edge19" class="edge">
<title>Node10&#45;&gt;Node11</title>
<path fill="none" stroke="#191970" d="M315.0468,-168.2455C329.1144,-159.4125 352.3153,-146.2887 371.4321,-136.2758"/>
<polygon fill="#191970" stroke="#191970" points="373.1421,-139.3321 380.4307,-131.6427 369.9378,-133.1085 373.1421,-139.3321"/>
</g>
<!-- Node11&#45;&gt;Node2 -->
<g id="edge20" class="edge">
<title>Node11&#45;&gt;Node2</title>
<path fill="none" stroke="#191970" d="M344.2855,-112.4551C299.0171,-104.6334 234.6747,-92.543 170.0982,-76.0948"/>
<polygon fill="#191970" stroke="#191970" points="170.7113,-72.6384 160.1539,-73.5272 168.9613,-79.4161 170.7113,-72.6384"/>
</g>
<!-- Node11&#45;&gt;Node5 -->
<g id="edge25" class="edge">
<title>Node11&#45;&gt;Node5</title>
<path fill="none" stroke="#191970" d="M369.717,-112.3733C337.15,-102.9238 287.3559,-88.4757 252.0122,-78.2206"/>
<polygon fill="#191970" stroke="#191970" points="252.5778,-74.7404 241.9986,-75.315 250.6271,-81.4631 252.5778,-74.7404"/>
</g>
<!-- Node11&#45;&gt;Node6 -->
<g id="edge26" class="edge">
<title>Node11&#45;&gt;Node6</title>
<path fill="none" stroke="#191970" d="M466.4696,-112.4611C521.8589,-103.9772 604.5828,-90.8916 685.9014,-76.1278"/>
<polygon fill="#191970" stroke="#191970" points="686.6004,-79.5581 695.8094,-74.3192 685.3434,-72.6719 686.6004,-79.5581"/>
</g>
<!-- Node11&#45;&gt;Node10 -->
<g id="edge31" class="edge">
<title>Node11&#45;&gt;Node10</title>
<path fill="none" stroke="#191970" d="M391.1459,-131.5011C377.1331,-140.3278 353.6969,-153.5932 334.4055,-163.6992"/>
<polygon fill="#191970" stroke="#191970" points="332.6161,-160.6838 325.3276,-168.3733 335.8205,-166.9073 332.6161,-160.6838"/>
</g>
<!-- Node12 -->
<g id="node13" class="node">
<title>Node12</title>
<polygon fill="#ffffff" stroke="#bfbfbf" points="531.8949,-56.5 531.8949,-75.5 609.8949,-75.5 609.8949,-56.5 531.8949,-56.5"/>
<text text-anchor="middle" x="570.8949" y="-63.5" font-family="Helvetica,sans-Serif" font-size="10.00" fill="#000000">unordered_set</text>
</g>
<!-- Node11&#45;&gt;Node12 -->
<g id="edge21" class="edge">
<title>Node11&#45;&gt;Node12</title>
<path fill="none" stroke="#191970" d="M431.7752,-112.3733C459.711,-103.0613 502.2091,-88.8953 532.8819,-78.671"/>
<polygon fill="#191970" stroke="#191970" points="534.0115,-81.9839 542.3916,-75.5011 531.7979,-75.3431 534.0115,-81.9839"/>
</g>
<!-- Node13 -->
<g id="node14" class="node">
<title>Node13</title>
<polygon fill="#ffffff" stroke="#bfbfbf" points="628.3949,-56.5 628.3949,-75.5 677.3949,-75.5 677.3949,-56.5 628.3949,-56.5"/>
<text text-anchor="middle" x="652.8949" y="-63.5" font-family="Helvetica,sans-Serif" font-size="10.00" fill="#000000">cstdarg</text>
</g>
<!-- Node11&#45;&gt;Node13 -->
<g id="edge22" class="edge">
<title>Node11&#45;&gt;Node13</title>
<path fill="none" stroke="#191970" d="M452.9037,-112.4741C494.6121,-104.2757 555.7966,-91.6639 618.0714,-76.0667"/>
<polygon fill="#191970" stroke="#191970" points="619.2357,-79.3825 628.0726,-73.538 617.5198,-72.5961 619.2357,-79.3825"/>
</g>
<!-- Node14 -->
<g id="node15" class="node">
<title>Node14</title>
<polygon fill="#ffffff" stroke="#bfbfbf" points="260.3949,-56.5 260.3949,-75.5 305.3949,-75.5 305.3949,-56.5 260.3949,-56.5"/>
<text text-anchor="middle" x="282.8949" y="-63.5" font-family="Helvetica,sans-Serif" font-size="10.00" fill="#000000">cstdlib</text>
</g>
<!-- Node11&#45;&gt;Node14 -->
<g id="edge23" class="edge">
<title>Node11&#45;&gt;Node14</title>
<path fill="none" stroke="#191970" d="M382.2662,-112.3733C363.0031,-103.3838 334.0463,-89.8706 312.353,-79.7471"/>
<polygon fill="#191970" stroke="#191970" points="313.7964,-76.5584 303.2545,-75.5011 310.8362,-82.9017 313.7964,-76.5584"/>
</g>
<!-- Node15 -->
<g id="node16" class="node">
<title>Node15</title>
<polygon fill="#ffffff" stroke="#bfbfbf" points="323.8949,-56.5 323.8949,-75.5 377.8949,-75.5 377.8949,-56.5 323.8949,-56.5"/>
<text text-anchor="middle" x="350.8949" y="-63.5" font-family="Helvetica,sans-Serif" font-size="10.00" fill="#000000">iostream</text>
</g>
<!-- Node11&#45;&gt;Node15 -->
<g id="edge24" class="edge">
<title>Node11&#45;&gt;Node15</title>
<path fill="none" stroke="#191970" d="M393.8372,-112.2455C386.3808,-104.2155 375.6315,-92.6394 366.7532,-83.0781"/>
<polygon fill="#191970" stroke="#191970" points="369.2182,-80.589 359.8488,-75.6427 364.0886,-85.3522 369.2182,-80.589"/>
</g>
<!-- Node16 -->
<g id="node17" class="node">
<title>Node16</title>
<g id="a_node17"><a xlink:href="_additional_parameters_8h.html" target="_top" xlink:title="AdditionalParameters.h">
<polygon fill="#ffffff" stroke="#000000" points="395.8949,-56.5 395.8949,-75.5 513.8949,-75.5 513.8949,-56.5 395.8949,-56.5"/>
<text text-anchor="middle" x="454.8949" y="-63.5" font-family="Helvetica,sans-Serif" font-size="10.00" fill="#000000">AdditionalParameters.h</text>
</a>
</g>
</g>
<!-- Node11&#45;&gt;Node16 -->
<g id="edge27" class="edge">
<title>Node11&#45;&gt;Node16</title>
<path fill="none" stroke="#191970" d="M411.9526,-112.2455C419.4091,-104.2155 430.1584,-92.6394 439.0367,-83.0781"/>
<polygon fill="#191970" stroke="#191970" points="441.7013,-85.3522 445.941,-75.6427 436.5717,-80.589 441.7013,-85.3522"/>
</g>
<!-- Node17 -->
<g id="node18" class="node">
<title>Node17</title>
<polygon fill="#ffffff" stroke="#bfbfbf" points="381.3949,-.5 381.3949,-19.5 416.3949,-19.5 416.3949,-.5 381.3949,-.5"/>
<text text-anchor="middle" x="398.8949" y="-7.5" font-family="Helvetica,sans-Serif" font-size="10.00" fill="#000000">map</text>
</g>
<!-- Node16&#45;&gt;Node17 -->
<g id="edge28" class="edge">
<title>Node16&#45;&gt;Node17</title>
<path fill="none" stroke="#191970" d="M445.1405,-56.2455C437.0302,-48.1352 425.3024,-36.4075 415.6868,-26.7919"/>
<polygon fill="#191970" stroke="#191970" points="418.0836,-24.2389 408.5376,-19.6427 413.1338,-29.1887 418.0836,-24.2389"/>
</g>
<!-- Node18 -->
<g id="node19" class="node">
<title>Node18</title>
<polygon fill="#ffffff" stroke="#bfbfbf" points="434.3949,-.5 434.3949,-19.5 475.3949,-19.5 475.3949,-.5 434.3949,-.5"/>
<text text-anchor="middle" x="454.8949" y="-7.5" font-family="Helvetica,sans-Serif" font-size="10.00" fill="#000000">string</text>
</g>
<!-- Node16&#45;&gt;Node18 -->
<g id="edge29" class="edge">
<title>Node16&#45;&gt;Node18</title>
<path fill="none" stroke="#191970" d="M454.8949,-56.2455C454.8949,-48.9382 454.8949,-38.6944 454.8949,-29.7046"/>
<polygon fill="#191970" stroke="#191970" points="458.395,-29.6426 454.8949,-19.6427 451.395,-29.6427 458.395,-29.6426"/>
</g>
<!-- Node19 -->
<g id="node20" class="node">
<title>Node19</title>
<polygon fill="#ffffff" stroke="#bfbfbf" points="493.8949,-.5 493.8949,-19.5 525.8949,-19.5 525.8949,-.5 493.8949,-.5"/>
<text text-anchor="middle" x="509.8949" y="-7.5" font-family="Helvetica,sans-Serif" font-size="10.00" fill="#000000">any</text>
</g>
<!-- Node16&#45;&gt;Node19 -->
<g id="edge30" class="edge">
<title>Node16&#45;&gt;Node19</title>
<path fill="none" stroke="#191970" d="M464.4752,-56.2455C472.4407,-48.1352 483.959,-36.4075 493.4029,-26.7919"/>
<polygon fill="#191970" stroke="#191970" points="495.9144,-29.2297 500.4244,-19.6427 490.9203,-24.3247 495.9144,-29.2297"/>
</g>
</g>
</svg>
