<?xml version="1.0" encoding="UTF-8" standalone="no"?>
<!DOCTYPE svg PUBLIC "-//W3C//DTD SVG 1.1//EN"
 "http://www.w3.org/Graphics/SVG/1.1/DTD/svg11.dtd">
<!-- Generated by graphviz version 2.44.1 (20200629.0846)
 -->
<!-- Title: kryne&#45;engine/src/3DObjects/BaseObject.cpp Pages: 1 -->
<svg width="1286pt" height="654pt"
 viewBox="0.00 0.00 1285.83 654.00" xmlns="http://www.w3.org/2000/svg" xmlns:xlink="http://www.w3.org/1999/xlink">
<g id="graph0" class="graph" transform="scale(1 1) rotate(0) translate(4 650)">
<title>kryne&#45;engine/src/3DObjects/BaseObject.cpp</title>
<polygon fill="white" stroke="transparent" points="-4,4 -4,-650 1281.83,-650 1281.83,4 -4,4"/>
<!-- Node1 -->
<g id="node1" class="node">
<title>Node1</title>
<g id="a_node1"><a xlink:title=" ">
<polygon fill="#bfbfbf" stroke="black" points="648.22,-615.5 648.22,-645.5 785.22,-645.5 785.22,-615.5 648.22,-615.5"/>
<text text-anchor="start" x="656.22" y="-633.5" font-family="Helvetica,sans-Serif" font-size="10.00">kryne&#45;engine/src/3DObjects</text>
<text text-anchor="middle" x="716.72" y="-622.5" font-family="Helvetica,sans-Serif" font-size="10.00">/BaseObject.cpp</text>
</a>
</g>
</g>
<!-- Node2 -->
<g id="node2" class="node">
<title>Node2</title>
<g id="a_node2"><a xlink:href="_additional_parameters_8h.html" target="_top" xlink:title=" ">
<polygon fill="white" stroke="black" points="957.22,-481.5 957.22,-511.5 1098.22,-511.5 1098.22,-481.5 957.22,-481.5"/>
<text text-anchor="start" x="965.22" y="-499.5" font-family="Helvetica,sans-Serif" font-size="10.00">kryne&#45;engine/Core/Additional</text>
<text text-anchor="middle" x="1027.72" y="-488.5" font-family="Helvetica,sans-Serif" font-size="10.00">Parameters.h</text>
</a>
</g>
</g>
<!-- Node1&#45;&gt;Node2 -->
<g id="edge1" class="edge">
<title>Node1&#45;&gt;Node2</title>
<path fill="none" stroke="midnightblue" d="M749.71,-615.5C806.51,-591.39 922.71,-542.07 985.39,-515.47"/>
<polygon fill="midnightblue" stroke="midnightblue" points="986.77,-518.69 994.61,-511.56 984.03,-512.24 986.77,-518.69"/>
</g>
<!-- Node6 -->
<g id="node6" class="node">
<title>Node6</title>
<g id="a_node6"><a xlink:href="3_d_objects_2_base_object_8h.html" target="_top" xlink:title=" ">
<polygon fill="white" stroke="black" points="612.22,-548.5 612.22,-578.5 733.22,-578.5 733.22,-548.5 612.22,-548.5"/>
<text text-anchor="start" x="620.22" y="-566.5" font-family="Helvetica,sans-Serif" font-size="10.00">kryne&#45;engine/3DObjects</text>
<text text-anchor="middle" x="672.72" y="-555.5" font-family="Helvetica,sans-Serif" font-size="10.00">/BaseObject.h</text>
</a>
</g>
</g>
<!-- Node1&#45;&gt;Node6 -->
<g id="edge5" class="edge">
<title>Node1&#45;&gt;Node6</title>
<path fill="none" stroke="midnightblue" d="M707.18,-615.4C701.58,-607.13 694.39,-596.51 688.02,-587.1"/>
<polygon fill="midnightblue" stroke="midnightblue" points="690.76,-584.9 682.25,-578.58 684.96,-588.82 690.76,-584.9"/>
</g>
<!-- Node3 -->
<g id="node3" class="node">
<title>Node3</title>
<g id="a_node3"><a xlink:title=" ">
<polygon fill="white" stroke="#bfbfbf" points="1010.22,-425.5 1010.22,-444.5 1045.22,-444.5 1045.22,-425.5 1010.22,-425.5"/>
<text text-anchor="middle" x="1027.72" y="-432.5" font-family="Helvetica,sans-Serif" font-size="10.00">map</text>
</a>
</g>
</g>
<!-- Node2&#45;&gt;Node3 -->
<g id="edge2" class="edge">
<title>Node2&#45;&gt;Node3</title>
<path fill="none" stroke="midnightblue" d="M1027.72,-481.4C1027.72,-473.47 1027.72,-463.46 1027.72,-454.86"/>
<polygon fill="midnightblue" stroke="midnightblue" points="1031.22,-454.66 1027.72,-444.66 1024.22,-454.66 1031.22,-454.66"/>
</g>
<!-- Node4 -->
<g id="node4" class="node">
<title>Node4</title>
<g id="a_node4"><a xlink:title=" ">
<polygon fill="white" stroke="#bfbfbf" points="1006.22,-297 1006.22,-316 1047.22,-316 1047.22,-297 1006.22,-297"/>
<text text-anchor="middle" x="1026.72" y="-304" font-family="Helvetica,sans-Serif" font-size="10.00">string</text>
</a>
</g>
</g>
<!-- Node2&#45;&gt;Node4 -->
<g id="edge3" class="edge">
<title>Node2&#45;&gt;Node4</title>
<path fill="none" stroke="midnightblue" d="M1063.72,-481.35C1079.28,-473.22 1095.91,-461.32 1104.72,-445 1108.95,-437.18 1106.13,-433.78 1104.72,-425 1099.77,-394.05 1099.82,-384.27 1082.72,-358 1073.53,-343.87 1059.42,-331.18 1047.66,-322.06"/>
<polygon fill="midnightblue" stroke="midnightblue" points="1049.73,-319.24 1039.62,-316.07 1045.55,-324.85 1049.73,-319.24"/>
</g>
<!-- Node5 -->
<g id="node5" class="node">
<title>Node5</title>
<g id="a_node5"><a xlink:title=" ">
<polygon fill="white" stroke="#bfbfbf" points="1063.72,-425.5 1063.72,-444.5 1095.72,-444.5 1095.72,-425.5 1063.72,-425.5"/>
<text text-anchor="middle" x="1079.72" y="-432.5" font-family="Helvetica,sans-Serif" font-size="10.00">any</text>
</a>
</g>
</g>
<!-- Node2&#45;&gt;Node5 -->
<g id="edge4" class="edge">
<title>Node2&#45;&gt;Node5</title>
<path fill="none" stroke="midnightblue" d="M1040.05,-481.4C1047.68,-472.66 1057.51,-461.41 1065.48,-452.3"/>
<polygon fill="midnightblue" stroke="midnightblue" points="1068.21,-454.49 1072.16,-444.66 1062.94,-449.88 1068.21,-454.49"/>
</g>
<!-- Node6&#45;&gt;Node2 -->
<g id="edge69" class="edge">
<title>Node6&#45;&gt;Node2</title>
<path fill="none" stroke="midnightblue" d="M733.35,-551.4C792.18,-540.63 881.86,-524.21 946.78,-512.32"/>
<polygon fill="midnightblue" stroke="midnightblue" points="947.77,-515.7 956.97,-510.45 946.51,-508.81 947.77,-515.7"/>
</g>
<!-- Node7 -->
<g id="node7" class="node">
<title>Node7</title>
<g id="a_node7"><a xlink:title=" ">
<polygon fill="white" stroke="#bfbfbf" points="923.72,-297 923.72,-316 987.72,-316 987.72,-297 923.72,-297"/>
<text text-anchor="middle" x="955.72" y="-304" font-family="Helvetica,sans-Serif" font-size="10.00">glad/glad.h</text>
</a>
</g>
</g>
<!-- Node6&#45;&gt;Node7 -->
<g id="edge6" class="edge">
<title>Node6&#45;&gt;Node7</title>
<path fill="none" stroke="midnightblue" d="M733.42,-559.57C773.9,-554.68 826.03,-542.38 861.72,-512 893.99,-484.53 872.6,-456.69 900.72,-425 921.37,-401.74 945.4,-416.06 960.72,-389 971.77,-369.49 967.26,-342.97 962.2,-325.56"/>
<polygon fill="midnightblue" stroke="midnightblue" points="965.52,-324.47 959.11,-316.04 958.86,-326.63 965.52,-324.47"/>
</g>
<!-- Node8 -->
<g id="node8" class="node">
<title>Node8</title>
<g id="a_node8"><a xlink:title=" ">
<polygon fill="white" stroke="#bfbfbf" points="336.72,-297 336.72,-316 414.72,-316 414.72,-297 336.72,-297"/>
<text text-anchor="middle" x="375.72" y="-304" font-family="Helvetica,sans-Serif" font-size="10.00">GLFW/glfw3.h</text>
</a>
</g>
</g>
<!-- Node6&#45;&gt;Node8 -->
<g id="edge7" class="edge">
<title>Node6&#45;&gt;Node8</title>
<path fill="none" stroke="midnightblue" d="M612.03,-555.5C535.3,-543.99 402.44,-514.91 312.72,-445 278.22,-418.11 243.18,-394.86 266.72,-358 275.16,-344.79 311.25,-329.69 339.63,-319.47"/>
<polygon fill="midnightblue" stroke="midnightblue" points="341.01,-322.69 349.28,-316.07 338.69,-316.09 341.01,-322.69"/>
</g>
<!-- Node9 -->
<g id="node9" class="node">
<title>Node9</title>
<g id="a_node9"><a xlink:title=" ">
<polygon fill="white" stroke="#bfbfbf" points="285.72,-364 285.72,-383 371.72,-383 371.72,-364 285.72,-364"/>
<text text-anchor="middle" x="328.72" y="-371" font-family="Helvetica,sans-Serif" font-size="10.00">glm/mat4x4.hpp</text>
</a>
</g>
</g>
<!-- Node6&#45;&gt;Node9 -->
<g id="edge8" class="edge">
<title>Node6&#45;&gt;Node9</title>
<path fill="none" stroke="midnightblue" d="M611.91,-549.44C579.84,-541.2 540.48,-528.89 507.72,-512 441.5,-477.86 374.91,-418.59 345.03,-390.35"/>
<polygon fill="midnightblue" stroke="midnightblue" points="347.25,-387.63 337.6,-383.25 342.41,-392.69 347.25,-387.63"/>
</g>
<!-- Node10 -->
<g id="node10" class="node">
<title>Node10</title>
<g id="a_node10"><a xlink:title=" ">
<polygon fill="white" stroke="#bfbfbf" points="516.72,-487 516.72,-506 602.72,-506 602.72,-487 516.72,-487"/>
<text text-anchor="middle" x="559.72" y="-494" font-family="Helvetica,sans-Serif" font-size="10.00">glm/mat3x3.hpp</text>
</a>
</g>
</g>
<!-- Node6&#45;&gt;Node10 -->
<g id="edge9" class="edge">
<title>Node6&#45;&gt;Node10</title>
<path fill="none" stroke="midnightblue" d="M648.2,-548.4C628.99,-537.34 602.42,-522.06 583.42,-511.13"/>
<polygon fill="midnightblue" stroke="midnightblue" points="584.93,-507.96 574.51,-506.01 581.44,-514.03 584.93,-507.96"/>
</g>
<!-- Node11 -->
<g id="node11" class="node">
<title>Node11</title>
<g id="a_node11"><a xlink:href="_shader_8h.html" target="_top" xlink:title=" ">
<polygon fill="white" stroke="black" points="742.72,-481.5 742.72,-511.5 852.72,-511.5 852.72,-481.5 742.72,-481.5"/>
<text text-anchor="start" x="750.72" y="-499.5" font-family="Helvetica,sans-Serif" font-size="10.00">kryne&#45;engine/Material</text>
<text text-anchor="middle" x="797.72" y="-488.5" font-family="Helvetica,sans-Serif" font-size="10.00">/Shader.h</text>
</a>
</g>
</g>
<!-- Node6&#45;&gt;Node11 -->
<g id="edge10" class="edge">
<title>Node6&#45;&gt;Node11</title>
<path fill="none" stroke="midnightblue" d="M699.85,-548.4C717.95,-538.98 741.95,-526.5 761.66,-516.26"/>
<polygon fill="midnightblue" stroke="midnightblue" points="763.4,-519.3 770.65,-511.58 760.17,-513.08 763.4,-519.3"/>
</g>
<!-- Node45 -->
<g id="node45" class="node">
<title>Node45</title>
<g id="a_node45"><a xlink:href="_vertex_array_8h.html" target="_top" xlink:title=" ">
<polygon fill="white" stroke="black" points="64.22,-358.5 64.22,-388.5 191.22,-388.5 191.22,-358.5 64.22,-358.5"/>
<text text-anchor="start" x="72.22" y="-376.5" font-family="Helvetica,sans-Serif" font-size="10.00">kryne&#45;engine/Core/Vertex</text>
<text text-anchor="middle" x="127.72" y="-365.5" font-family="Helvetica,sans-Serif" font-size="10.00">Array.h</text>
</a>
</g>
</g>
<!-- Node6&#45;&gt;Node45 -->
<g id="edge61" class="edge">
<title>Node6&#45;&gt;Node45</title>
<path fill="none" stroke="midnightblue" d="M612.02,-562.67C501.13,-561.9 271.15,-554.99 205.72,-512 165.33,-485.46 143.6,-430.37 133.97,-398.57"/>
<polygon fill="midnightblue" stroke="midnightblue" points="137.28,-397.4 131.16,-388.75 130.55,-399.33 137.28,-397.4"/>
</g>
<!-- Node48 -->
<g id="node48" class="node">
<title>Node48</title>
<g id="a_node48"><a xlink:href="enums_2_base_object_8h.html" target="_top" xlink:title=" ">
<polygon fill="white" stroke="black" points="620.72,-481.5 620.72,-511.5 724.72,-511.5 724.72,-481.5 620.72,-481.5"/>
<text text-anchor="start" x="628.72" y="-499.5" font-family="Helvetica,sans-Serif" font-size="10.00">kryne&#45;engine/enums</text>
<text text-anchor="middle" x="672.72" y="-488.5" font-family="Helvetica,sans-Serif" font-size="10.00">/BaseObject.h</text>
</a>
</g>
</g>
<!-- Node6&#45;&gt;Node48 -->
<g id="edge70" class="edge">
<title>Node6&#45;&gt;Node48</title>
<path fill="none" stroke="midnightblue" d="M672.72,-548.4C672.72,-540.64 672.72,-530.81 672.72,-521.86"/>
<polygon fill="midnightblue" stroke="midnightblue" points="676.22,-521.58 672.72,-511.58 669.22,-521.58 676.22,-521.58"/>
</g>
<!-- Node11&#45;&gt;Node3 -->
<g id="edge11" class="edge">
<title>Node11&#45;&gt;Node3</title>
<path fill="none" stroke="midnightblue" d="M853.07,-483.23C891.97,-474.28 945.4,-461.33 1000.28,-445.25"/>
<polygon fill="midnightblue" stroke="midnightblue" points="1001.58,-448.51 1010.17,-442.32 999.59,-441.8 1001.58,-448.51"/>
</g>
<!-- Node12 -->
<g id="node12" class="node">
<title>Node12</title>
<g id="a_node12"><a xlink:title=" ">
<polygon fill="white" stroke="#bfbfbf" points="783.72,-425.5 783.72,-444.5 835.72,-444.5 835.72,-425.5 783.72,-425.5"/>
<text text-anchor="middle" x="809.72" y="-432.5" font-family="Helvetica,sans-Serif" font-size="10.00">sstream</text>
</a>
</g>
</g>
<!-- Node11&#45;&gt;Node12 -->
<g id="edge12" class="edge">
<title>Node11&#45;&gt;Node12</title>
<path fill="none" stroke="midnightblue" d="M800.57,-481.4C802.19,-473.38 804.23,-463.23 805.98,-454.57"/>
<polygon fill="midnightblue" stroke="midnightblue" points="809.43,-455.15 807.98,-444.66 802.57,-453.77 809.43,-455.15"/>
</g>
<!-- Node13 -->
<g id="node13" class="node">
<title>Node13</title>
<g id="a_node13"><a xlink:href="_dispatcher_8h.html" target="_top" xlink:title=" ">
<polygon fill="white" stroke="black" points="433.22,-291.5 433.22,-321.5 546.22,-321.5 546.22,-291.5 433.22,-291.5"/>
<text text-anchor="start" x="441.22" y="-309.5" font-family="Helvetica,sans-Serif" font-size="10.00">kryne&#45;engine/Dispatch</text>
<text text-anchor="middle" x="489.72" y="-298.5" font-family="Helvetica,sans-Serif" font-size="10.00">/Dispatcher.h</text>
</a>
</g>
</g>
<!-- Node11&#45;&gt;Node13 -->
<g id="edge13" class="edge">
<title>Node11&#45;&gt;Node13</title>
<path fill="none" stroke="midnightblue" d="M742.58,-482.92C739.59,-482.26 736.62,-481.62 733.72,-481 531.12,-437.66 407.98,-549.31 276.72,-389 268,-378.34 268.18,-368.81 276.72,-358 279.08,-355.03 361.3,-336.13 422.88,-322.32"/>
<polygon fill="midnightblue" stroke="midnightblue" points="423.96,-325.67 432.95,-320.07 422.43,-318.83 423.96,-325.67"/>
</g>
<!-- Node28 -->
<g id="node28" class="node">
<title>Node28</title>
<g id="a_node28"><a xlink:href="_uniforms_handler_8h.html" target="_top" xlink:title=" ">
<polygon fill="white" stroke="black" points="669.72,-425.5 669.72,-444.5 765.72,-444.5 765.72,-425.5 669.72,-425.5"/>
<text text-anchor="middle" x="717.72" y="-432.5" font-family="Helvetica,sans-Serif" font-size="10.00">UniformsHandler.h</text>
</a>
</g>
</g>
<!-- Node11&#45;&gt;Node28 -->
<g id="edge31" class="edge">
<title>Node11&#45;&gt;Node28</title>
<path fill="none" stroke="midnightblue" d="M778.76,-481.4C766.3,-472.13 750.03,-460.03 737.42,-450.65"/>
<polygon fill="midnightblue" stroke="midnightblue" points="739.48,-447.82 729.36,-444.66 735.3,-453.43 739.48,-447.82"/>
</g>
<!-- Node38 -->
<g id="node38" class="node">
<title>Node38</title>
<g id="a_node38"><a xlink:href="_shader_chunk_8h.html" target="_top" xlink:title=" ">
<polygon fill="white" stroke="black" points="909.22,-425.5 909.22,-444.5 992.22,-444.5 992.22,-425.5 909.22,-425.5"/>
<text text-anchor="middle" x="950.72" y="-432.5" font-family="Helvetica,sans-Serif" font-size="10.00">ShaderChunk.h</text>
</a>
</g>
</g>
<!-- Node11&#45;&gt;Node38 -->
<g id="edge50" class="edge">
<title>Node11&#45;&gt;Node38</title>
<path fill="none" stroke="midnightblue" d="M833.98,-481.4C859.77,-471.37 894.08,-458.03 918.83,-448.4"/>
<polygon fill="midnightblue" stroke="midnightblue" points="920.41,-451.54 928.46,-444.66 917.87,-445.02 920.41,-451.54"/>
</g>
<!-- Node14 -->
<g id="node14" class="node">
<title>Node14</title>
<g id="a_node14"><a xlink:href="_synchronizable_pool_8h.html" target="_top" xlink:title=" ">
<polygon fill="white" stroke="black" points="465.22,-179.5 465.22,-198.5 576.22,-198.5 576.22,-179.5 465.22,-179.5"/>
<text text-anchor="middle" x="520.72" y="-186.5" font-family="Helvetica,sans-Serif" font-size="10.00">SynchronizablePool.h</text>
</a>
</g>
</g>
<!-- Node13&#45;&gt;Node14 -->
<g id="edge14" class="edge">
<title>Node13&#45;&gt;Node14</title>
<path fill="none" stroke="midnightblue" d="M493.52,-291.34C499.11,-270.53 509.54,-231.66 515.74,-208.58"/>
<polygon fill="midnightblue" stroke="midnightblue" points="519.18,-209.23 518.4,-198.67 512.42,-207.42 519.18,-209.23"/>
</g>
<!-- Node25 -->
<g id="node25" class="node">
<title>Node25</title>
<g id="a_node25"><a xlink:href="_runner_pool_8h.html" target="_top" xlink:title=" ">
<polygon fill="white" stroke="black" points="594.22,-179.5 594.22,-198.5 669.22,-198.5 669.22,-179.5 594.22,-179.5"/>
<text text-anchor="middle" x="631.72" y="-186.5" font-family="Helvetica,sans-Serif" font-size="10.00">RunnerPool.h</text>
</a>
</g>
</g>
<!-- Node13&#45;&gt;Node25 -->
<g id="edge25" class="edge">
<title>Node13&#45;&gt;Node25</title>
<path fill="none" stroke="midnightblue" d="M542.32,-291.47C563.57,-283.63 586.97,-271.92 603.72,-255 616.4,-242.2 623.74,-222.74 627.7,-208.44"/>
<polygon fill="midnightblue" stroke="midnightblue" points="631.1,-209.27 630.1,-198.72 624.3,-207.59 631.1,-209.27"/>
</g>
<!-- Node26 -->
<g id="node26" class="node">
<title>Node26</title>
<g id="a_node26"><a xlink:href="_main_pool_8h.html" target="_top" xlink:title=" ">
<polygon fill="white" stroke="black" points="427.22,-235.5 427.22,-254.5 492.22,-254.5 492.22,-235.5 427.22,-235.5"/>
<text text-anchor="middle" x="459.72" y="-242.5" font-family="Helvetica,sans-Serif" font-size="10.00">MainPool.h</text>
</a>
</g>
</g>
<!-- Node13&#45;&gt;Node26 -->
<g id="edge27" class="edge">
<title>Node13&#45;&gt;Node26</title>
<path fill="none" stroke="midnightblue" d="M482.61,-291.4C478.43,-283.11 473.11,-272.55 468.65,-263.71"/>
<polygon fill="midnightblue" stroke="midnightblue" points="471.72,-262.01 464.09,-254.66 465.47,-265.16 471.72,-262.01"/>
</g>
<!-- Node15 -->
<g id="node15" class="node">
<title>Node15</title>
<g id="a_node15"><a xlink:href="_thread_pool_8h.html" target="_top" xlink:title=" ">
<polygon fill="white" stroke="black" points="594.72,-118 594.72,-137 668.72,-137 668.72,-118 594.72,-118"/>
<text text-anchor="middle" x="631.72" y="-125" font-family="Helvetica,sans-Serif" font-size="10.00">ThreadPool.h</text>
</a>
</g>
</g>
<!-- Node14&#45;&gt;Node15 -->
<g id="edge15" class="edge">
<title>Node14&#45;&gt;Node15</title>
<path fill="none" stroke="midnightblue" d="M536.63,-179.48C555.01,-169.62 585.48,-153.29 606.97,-141.77"/>
<polygon fill="midnightblue" stroke="midnightblue" points="608.69,-144.82 615.85,-137.01 605.38,-138.65 608.69,-144.82"/>
</g>
<!-- Node16 -->
<g id="node16" class="node">
<title>Node16</title>
<g id="a_node16"><a xlink:title=" ">
<polygon fill="white" stroke="#bfbfbf" points="632.72,-56.5 632.72,-75.5 676.72,-75.5 676.72,-56.5 632.72,-56.5"/>
<text text-anchor="middle" x="654.72" y="-63.5" font-family="Helvetica,sans-Serif" font-size="10.00">thread</text>
</a>
</g>
</g>
<!-- Node15&#45;&gt;Node16 -->
<g id="edge16" class="edge">
<title>Node15&#45;&gt;Node16</title>
<path fill="none" stroke="midnightblue" d="M635.02,-117.98C638.33,-109.4 643.54,-95.93 647.77,-84.98"/>
<polygon fill="midnightblue" stroke="midnightblue" points="651.09,-86.1 651.43,-75.51 644.56,-83.57 651.09,-86.1"/>
</g>
<!-- Node17 -->
<g id="node17" class="node">
<title>Node17</title>
<g id="a_node17"><a xlink:title=" ">
<polygon fill="white" stroke="#bfbfbf" points="414.72,-56.5 414.72,-75.5 458.72,-75.5 458.72,-56.5 414.72,-56.5"/>
<text text-anchor="middle" x="436.72" y="-63.5" font-family="Helvetica,sans-Serif" font-size="10.00">mutex</text>
</a>
</g>
</g>
<!-- Node15&#45;&gt;Node17 -->
<g id="edge17" class="edge">
<title>Node15&#45;&gt;Node17</title>
<path fill="none" stroke="midnightblue" d="M603.79,-117.98C568.07,-107.08 506.38,-88.25 468.79,-76.78"/>
<polygon fill="midnightblue" stroke="midnightblue" points="469.45,-73.33 458.87,-73.76 467.41,-80.02 469.45,-73.33"/>
</g>
<!-- Node18 -->
<g id="node18" class="node">
<title>Node18</title>
<g id="a_node18"><a xlink:title=" ">
<polygon fill="white" stroke="#bfbfbf" points="695.22,-56.5 695.22,-75.5 788.22,-75.5 788.22,-56.5 695.22,-56.5"/>
<text text-anchor="middle" x="741.72" y="-63.5" font-family="Helvetica,sans-Serif" font-size="10.00">condition_variable</text>
</a>
</g>
</g>
<!-- Node15&#45;&gt;Node18 -->
<g id="edge18" class="edge">
<title>Node15&#45;&gt;Node18</title>
<path fill="none" stroke="midnightblue" d="M647.48,-117.98C665.7,-108.12 695.9,-91.79 717.19,-80.27"/>
<polygon fill="midnightblue" stroke="midnightblue" points="718.86,-83.35 725.99,-75.51 715.53,-77.19 718.86,-83.35"/>
</g>
<!-- Node19 -->
<g id="node19" class="node">
<title>Node19</title>
<g id="a_node19"><a xlink:title=" ">
<polygon fill="white" stroke="#bfbfbf" points="806.22,-56.5 806.22,-75.5 847.22,-75.5 847.22,-56.5 806.22,-56.5"/>
<text text-anchor="middle" x="826.72" y="-63.5" font-family="Helvetica,sans-Serif" font-size="10.00">future</text>
</a>
</g>
</g>
<!-- Node15&#45;&gt;Node19 -->
<g id="edge19" class="edge">
<title>Node15&#45;&gt;Node19</title>
<path fill="none" stroke="midnightblue" d="M659.94,-117.97C691.1,-108.53 743.04,-92.78 796.49,-76.37"/>
<polygon fill="midnightblue" stroke="midnightblue" points="797.6,-79.69 806.13,-73.41 795.55,-73 797.6,-79.69"/>
</g>
<!-- Node20 -->
<g id="node20" class="node">
<title>Node20</title>
<g id="a_node20"><a xlink:title=" ">
<polygon fill="white" stroke="#bfbfbf" points="476.72,-56.5 476.72,-75.5 528.72,-75.5 528.72,-56.5 476.72,-56.5"/>
<text text-anchor="middle" x="502.72" y="-63.5" font-family="Helvetica,sans-Serif" font-size="10.00">memory</text>
</a>
</g>
</g>
<!-- Node15&#45;&gt;Node20 -->
<g id="edge20" class="edge">
<title>Node15&#45;&gt;Node20</title>
<path fill="none" stroke="midnightblue" d="M613.24,-117.98C591.59,-107.99 555.51,-91.35 530.49,-79.81"/>
<polygon fill="midnightblue" stroke="midnightblue" points="531.72,-76.52 521.17,-75.51 528.79,-82.88 531.72,-76.52"/>
</g>
<!-- Node21 -->
<g id="node21" class="node">
<title>Node21</title>
<g id="a_node21"><a xlink:title=" ">
<polygon fill="white" stroke="#bfbfbf" points="944.72,-56.5 944.72,-75.5 998.72,-75.5 998.72,-56.5 944.72,-56.5"/>
<text text-anchor="middle" x="971.72" y="-63.5" font-family="Helvetica,sans-Serif" font-size="10.00">iostream</text>
</a>
</g>
</g>
<!-- Node15&#45;&gt;Node21 -->
<g id="edge21" class="edge">
<title>Node15&#45;&gt;Node21</title>
<path fill="none" stroke="midnightblue" d="M668.76,-120.02C734.11,-108.58 869.14,-84.95 934.57,-73.5"/>
<polygon fill="midnightblue" stroke="midnightblue" points="935.21,-76.94 944.46,-71.77 934,-70.05 935.21,-76.94"/>
</g>
<!-- Node22 -->
<g id="node22" class="node">
<title>Node22</title>
<g id="a_node22"><a xlink:href="_base_pool_8h.html" target="_top" xlink:title=" ">
<polygon fill="white" stroke="black" points="547.22,-56.5 547.22,-75.5 614.22,-75.5 614.22,-56.5 547.22,-56.5"/>
<text text-anchor="middle" x="580.72" y="-63.5" font-family="Helvetica,sans-Serif" font-size="10.00">BasePool.h</text>
</a>
</g>
</g>
<!-- Node15&#45;&gt;Node22 -->
<g id="edge22" class="edge">
<title>Node15&#45;&gt;Node22</title>
<path fill="none" stroke="midnightblue" d="M624.42,-117.98C616.69,-108.96 604.32,-94.52 594.71,-83.31"/>
<polygon fill="midnightblue" stroke="midnightblue" points="597.18,-80.82 588.02,-75.51 591.87,-85.38 597.18,-80.82"/>
</g>
<!-- Node23 -->
<g id="node23" class="node">
<title>Node23</title>
<g id="a_node23"><a xlink:title=" ">
<polygon fill="white" stroke="#bfbfbf" points="525.22,-0.5 525.22,-19.5 568.22,-19.5 568.22,-0.5 525.22,-0.5"/>
<text text-anchor="middle" x="546.72" y="-7.5" font-family="Helvetica,sans-Serif" font-size="10.00">queue</text>
</a>
</g>
</g>
<!-- Node22&#45;&gt;Node23 -->
<g id="edge23" class="edge">
<title>Node22&#45;&gt;Node23</title>
<path fill="none" stroke="midnightblue" d="M575.11,-56.08C570.36,-48.53 563.41,-37.49 557.57,-28.23"/>
<polygon fill="midnightblue" stroke="midnightblue" points="560.52,-26.35 552.23,-19.75 554.6,-30.08 560.52,-26.35"/>
</g>
<!-- Node24 -->
<g id="node24" class="node">
<title>Node24</title>
<g id="a_node24"><a xlink:title=" ">
<polygon fill="white" stroke="#bfbfbf" points="586.72,-0.5 586.72,-19.5 644.72,-19.5 644.72,-0.5 586.72,-0.5"/>
<text text-anchor="middle" x="615.72" y="-7.5" font-family="Helvetica,sans-Serif" font-size="10.00">functional</text>
</a>
</g>
</g>
<!-- Node22&#45;&gt;Node24 -->
<g id="edge24" class="edge">
<title>Node22&#45;&gt;Node24</title>
<path fill="none" stroke="midnightblue" d="M586.5,-56.08C591.4,-48.53 598.55,-37.49 604.56,-28.23"/>
<polygon fill="midnightblue" stroke="midnightblue" points="607.55,-30.05 610.05,-19.75 601.68,-26.24 607.55,-30.05"/>
</g>
<!-- Node25&#45;&gt;Node15 -->
<g id="edge26" class="edge">
<title>Node25&#45;&gt;Node15</title>
<path fill="none" stroke="midnightblue" d="M631.72,-179.48C631.72,-171.08 631.72,-157.98 631.72,-147.16"/>
<polygon fill="midnightblue" stroke="midnightblue" points="635.22,-147.01 631.72,-137.01 628.22,-147.01 635.22,-147.01"/>
</g>
<!-- Node26&#45;&gt;Node14 -->
<g id="edge30" class="edge">
<title>Node26&#45;&gt;Node14</title>
<path fill="none" stroke="midnightblue" d="M469.52,-235.32C478.54,-227.34 492.13,-215.31 503.04,-205.65"/>
<polygon fill="midnightblue" stroke="midnightblue" points="505.58,-208.08 510.74,-198.83 500.94,-202.84 505.58,-208.08"/>
</g>
<!-- Node27 -->
<g id="node27" class="node">
<title>Node27</title>
<g id="a_node27"><a xlink:href="_multithreading_8hpp.html" target="_top" xlink:title=" ">
<polygon fill="white" stroke="black" points="387.22,-112.5 387.22,-142.5 486.22,-142.5 486.22,-112.5 387.22,-112.5"/>
<text text-anchor="start" x="395.22" y="-130.5" font-family="Helvetica,sans-Serif" font-size="10.00">kryne&#45;engine/Utils</text>
<text text-anchor="middle" x="436.72" y="-119.5" font-family="Helvetica,sans-Serif" font-size="10.00">/Multithreading.hpp</text>
</a>
</g>
</g>
<!-- Node26&#45;&gt;Node27 -->
<g id="edge28" class="edge">
<title>Node26&#45;&gt;Node27</title>
<path fill="none" stroke="midnightblue" d="M458,-235.32C454.54,-217.97 446.67,-178.46 441.53,-152.66"/>
<polygon fill="midnightblue" stroke="midnightblue" points="444.91,-151.67 439.52,-142.55 438.04,-153.04 444.91,-151.67"/>
</g>
<!-- Node27&#45;&gt;Node17 -->
<g id="edge29" class="edge">
<title>Node27&#45;&gt;Node17</title>
<path fill="none" stroke="midnightblue" d="M436.72,-112.4C436.72,-104.47 436.72,-94.46 436.72,-85.86"/>
<polygon fill="midnightblue" stroke="midnightblue" points="440.22,-85.66 436.72,-75.66 433.22,-85.66 440.22,-85.66"/>
</g>
<!-- Node28&#45;&gt;Node4 -->
<g id="edge32" class="edge">
<title>Node28&#45;&gt;Node4</title>
<path fill="none" stroke="midnightblue" d="M740.24,-425.47C760.97,-417.25 792.25,-403.9 817.72,-389 837.75,-377.28 838.8,-368.02 859.72,-358 916.51,-330.82 937.66,-343.8 996.72,-322 998.15,-321.47 999.6,-320.9 1001.05,-320.3"/>
<polygon fill="midnightblue" stroke="midnightblue" points="1002.79,-323.36 1010.47,-316.06 999.91,-316.98 1002.79,-323.36"/>
</g>
<!-- Node28&#45;&gt;Node7 -->
<g id="edge34" class="edge">
<title>Node28&#45;&gt;Node7</title>
<path fill="none" stroke="midnightblue" d="M730.23,-425.44C743.36,-416.44 764.56,-401.83 782.72,-389 801.97,-375.41 805.02,-369.25 825.72,-358 855.53,-341.81 891.65,-328.21 918.24,-319.22"/>
<polygon fill="midnightblue" stroke="midnightblue" points="919.55,-322.48 927.94,-316.01 917.34,-315.84 919.55,-322.48"/>
</g>
<!-- Node28&#45;&gt;Node8 -->
<g id="edge35" class="edge">
<title>Node28&#45;&gt;Node8</title>
<path fill="none" stroke="midnightblue" d="M669.72,-431.97C595.71,-428 458.16,-416.99 418.72,-389 397.46,-373.9 385.84,-344.99 380.21,-325.97"/>
<polygon fill="midnightblue" stroke="midnightblue" points="383.53,-324.85 377.55,-316.1 376.77,-326.67 383.53,-324.85"/>
</g>
<!-- Node28&#45;&gt;Node9 -->
<g id="edge36" class="edge">
<title>Node28&#45;&gt;Node9</title>
<path fill="none" stroke="midnightblue" d="M669.61,-429.23C604.78,-422.39 485.93,-408.47 385.72,-389 380.53,-387.99 375.11,-386.8 369.76,-385.53"/>
<polygon fill="midnightblue" stroke="midnightblue" points="370.19,-382.04 359.64,-383.05 368.52,-388.83 370.19,-382.04"/>
</g>
<!-- Node29 -->
<g id="node29" class="node">
<title>Node29</title>
<g id="a_node29"><a xlink:title=" ">
<polygon fill="white" stroke="#bfbfbf" points="868.22,-364 868.22,-383 951.22,-383 951.22,-364 868.22,-364"/>
<text text-anchor="middle" x="909.72" y="-371" font-family="Helvetica,sans-Serif" font-size="10.00">unordered_map</text>
</a>
</g>
</g>
<!-- Node28&#45;&gt;Node29 -->
<g id="edge33" class="edge">
<title>Node28&#45;&gt;Node29</title>
<path fill="none" stroke="midnightblue" d="M745.23,-425.48C778.6,-415.14 834.99,-397.66 872.29,-386.1"/>
<polygon fill="midnightblue" stroke="midnightblue" points="873.75,-389.31 882.27,-383.01 871.68,-382.63 873.75,-389.31"/>
</g>
<!-- Node30 -->
<g id="node30" class="node">
<title>Node30</title>
<g id="a_node30"><a xlink:title=" ">
<polygon fill="white" stroke="#bfbfbf" points="427.72,-364 427.72,-383 533.72,-383 533.72,-364 427.72,-364"/>
<text text-anchor="middle" x="480.72" y="-371" font-family="Helvetica,sans-Serif" font-size="10.00">glm/gtc/type_ptr.hpp</text>
</a>
</g>
</g>
<!-- Node28&#45;&gt;Node30 -->
<g id="edge37" class="edge">
<title>Node28&#45;&gt;Node30</title>
<path fill="none" stroke="midnightblue" d="M683.77,-425.48C641.88,-414.96 570.59,-397.06 524.6,-385.51"/>
<polygon fill="midnightblue" stroke="midnightblue" points="525.17,-382.05 514.62,-383.01 523.46,-388.84 525.17,-382.05"/>
</g>
<!-- Node31 -->
<g id="node31" class="node">
<title>Node31</title>
<g id="a_node31"><a xlink:title=" ">
<polygon fill="white" stroke="#bfbfbf" points="683.72,-364 683.72,-383 773.72,-383 773.72,-364 683.72,-364"/>
<text text-anchor="middle" x="728.72" y="-371" font-family="Helvetica,sans-Serif" font-size="10.00">boost/variant.hpp</text>
</a>
</g>
</g>
<!-- Node28&#45;&gt;Node31 -->
<g id="edge38" class="edge">
<title>Node28&#45;&gt;Node31</title>
<path fill="none" stroke="midnightblue" d="M719.3,-425.48C720.85,-417.08 723.27,-403.98 725.27,-393.16"/>
<polygon fill="midnightblue" stroke="midnightblue" points="728.77,-393.48 727.15,-383.01 721.89,-392.21 728.77,-393.48"/>
</g>
<!-- Node32 -->
<g id="node32" class="node">
<title>Node32</title>
<g id="a_node32"><a xlink:href="_texture_8h.html" target="_top" xlink:title=" ">
<polygon fill="white" stroke="black" points="552.22,-358.5 552.22,-388.5 665.22,-388.5 665.22,-358.5 552.22,-358.5"/>
<text text-anchor="start" x="560.22" y="-376.5" font-family="Helvetica,sans-Serif" font-size="10.00">kryne&#45;engine/Textures</text>
<text text-anchor="middle" x="608.72" y="-365.5" font-family="Helvetica,sans-Serif" font-size="10.00">/Texture.h</text>
</a>
</g>
</g>
<!-- Node28&#45;&gt;Node32 -->
<g id="edge39" class="edge">
<title>Node28&#45;&gt;Node32</title>
<path fill="none" stroke="midnightblue" d="M702.11,-425.48C686.86,-417.15 663.15,-404.21 643.43,-393.45"/>
<polygon fill="midnightblue" stroke="midnightblue" points="644.87,-390.24 634.41,-388.52 641.51,-396.39 644.87,-390.24"/>
</g>
<!-- Node32&#45;&gt;Node4 -->
<g id="edge41" class="edge">
<title>Node32&#45;&gt;Node4</title>
<path fill="none" stroke="midnightblue" d="M665.53,-359.62C668.64,-359.04 671.71,-358.5 674.72,-358 816.8,-334.52 858.36,-361.9 996.72,-322 998.6,-321.46 1000.5,-320.81 1002.39,-320.09"/>
<polygon fill="midnightblue" stroke="midnightblue" points="1003.8,-323.29 1011.55,-316.06 1000.99,-316.88 1003.8,-323.29"/>
</g>
<!-- Node32&#45;&gt;Node7 -->
<g id="edge47" class="edge">
<title>Node32&#45;&gt;Node7</title>
<path fill="none" stroke="midnightblue" d="M665.56,-359.77C668.65,-359.15 671.73,-358.56 674.72,-358 778.6,-338.65 806.81,-345.95 909.72,-322 913.56,-321.11 917.54,-320.05 921.48,-318.93"/>
<polygon fill="midnightblue" stroke="midnightblue" points="922.52,-322.27 931.09,-316.03 920.5,-315.57 922.52,-322.27"/>
</g>
<!-- Node32&#45;&gt;Node8 -->
<g id="edge48" class="edge">
<title>Node32&#45;&gt;Node8</title>
<path fill="none" stroke="midnightblue" d="M555.59,-358.4C518.55,-348.48 468.04,-334.74 423.72,-322 420.36,-321.03 416.87,-320.01 413.37,-318.98"/>
<polygon fill="midnightblue" stroke="midnightblue" points="414.19,-315.57 403.61,-316.06 412.19,-322.28 414.19,-315.57"/>
</g>
<!-- Node32&#45;&gt;Node13 -->
<g id="edge49" class="edge">
<title>Node32&#45;&gt;Node13</title>
<path fill="none" stroke="midnightblue" d="M582.9,-358.4C565.75,-349.03 543.03,-336.62 524.32,-326.39"/>
<polygon fill="midnightblue" stroke="midnightblue" points="525.95,-323.3 515.49,-321.58 522.59,-329.44 525.95,-323.3"/>
</g>
<!-- Node32&#45;&gt;Node21 -->
<g id="edge42" class="edge">
<title>Node32&#45;&gt;Node21</title>
<path fill="none" stroke="midnightblue" d="M665.58,-359.86C668.67,-359.22 671.73,-358.59 674.72,-358 764.16,-340.21 810.07,-384.23 876.72,-322 902.17,-298.24 895.72,-280.82 895.72,-246 895.72,-246 895.72,-246 895.72,-188 895.72,-144.48 931.42,-103.77 953.89,-82.47"/>
<polygon fill="midnightblue" stroke="midnightblue" points="956.46,-84.86 961.47,-75.53 951.73,-79.7 956.46,-84.86"/>
</g>
<!-- Node33 -->
<g id="node33" class="node">
<title>Node33</title>
<g id="a_node33"><a xlink:title=" ">
<polygon fill="white" stroke="#bfbfbf" points="671.72,-297 671.72,-316 741.72,-316 741.72,-297 671.72,-297"/>
<text text-anchor="middle" x="706.72" y="-304" font-family="Helvetica,sans-Serif" font-size="10.00">stb_image.h</text>
</a>
</g>
</g>
<!-- Node32&#45;&gt;Node33 -->
<g id="edge40" class="edge">
<title>Node32&#45;&gt;Node33</title>
<path fill="none" stroke="midnightblue" d="M629.99,-358.4C646.42,-347.5 669.06,-332.48 685.49,-321.58"/>
<polygon fill="midnightblue" stroke="midnightblue" points="687.5,-324.45 693.9,-316.01 683.63,-318.62 687.5,-324.45"/>
</g>
<!-- Node34 -->
<g id="node34" class="node">
<title>Node34</title>
<g id="a_node34"><a xlink:title=" ">
<polygon fill="white" stroke="#bfbfbf" points="760.22,-297 760.22,-316 867.22,-316 867.22,-297 760.22,-297"/>
<text text-anchor="middle" x="813.72" y="-304" font-family="Helvetica,sans-Serif" font-size="10.00">boost/filesystem.hpp</text>
</a>
</g>
</g>
<!-- Node32&#45;&gt;Node34 -->
<g id="edge43" class="edge">
<title>Node32&#45;&gt;Node34</title>
<path fill="none" stroke="midnightblue" d="M652.95,-358.48C690.02,-346.72 742.31,-330.14 777.07,-319.12"/>
<polygon fill="midnightblue" stroke="midnightblue" points="778.35,-322.39 786.83,-316.03 776.24,-315.71 778.35,-322.39"/>
</g>
<!-- Node35 -->
<g id="node35" class="node">
<title>Node35</title>
<g id="a_node35"><a xlink:title=" ">
<polygon fill="white" stroke="#bfbfbf" points="564.22,-297 564.22,-316 653.22,-316 653.22,-297 564.22,-297"/>
<text text-anchor="middle" x="608.72" y="-304" font-family="Helvetica,sans-Serif" font-size="10.00">boost/format.hpp</text>
</a>
</g>
</g>
<!-- Node32&#45;&gt;Node35 -->
<g id="edge44" class="edge">
<title>Node32&#45;&gt;Node35</title>
<path fill="none" stroke="midnightblue" d="M608.72,-358.4C608.72,-349.06 608.72,-336.71 608.72,-326.52"/>
<polygon fill="midnightblue" stroke="midnightblue" points="612.22,-326.19 608.72,-316.19 605.22,-326.19 612.22,-326.19"/>
</g>
<!-- Node36 -->
<g id="node36" class="node">
<title>Node36</title>
<g id="a_node36"><a xlink:title=" ">
<polygon fill="white" stroke="#bfbfbf" points="244.72,-297 244.72,-316 318.72,-316 318.72,-297 244.72,-297"/>
<text text-anchor="middle" x="281.72" y="-304" font-family="Helvetica,sans-Serif" font-size="10.00">glm/vec2.hpp</text>
</a>
</g>
</g>
<!-- Node32&#45;&gt;Node36 -->
<g id="edge45" class="edge">
<title>Node32&#45;&gt;Node36</title>
<path fill="none" stroke="midnightblue" d="M551.88,-359.82C548.79,-359.19 545.72,-358.58 542.72,-358 447.6,-339.6 421.93,-344.62 327.72,-322 324.09,-321.13 320.33,-320.12 316.59,-319.05"/>
<polygon fill="midnightblue" stroke="midnightblue" points="317.44,-315.65 306.85,-316.12 315.42,-322.35 317.44,-315.65"/>
</g>
<!-- Node37 -->
<g id="node37" class="node">
<title>Node37</title>
<g id="a_node37"><a xlink:title=" ">
<polygon fill="white" stroke="#bfbfbf" points="152.72,-297 152.72,-316 226.72,-316 226.72,-297 152.72,-297"/>
<text text-anchor="middle" x="189.72" y="-304" font-family="Helvetica,sans-Serif" font-size="10.00">glm/vec3.hpp</text>
</a>
</g>
</g>
<!-- Node32&#45;&gt;Node37 -->
<g id="edge46" class="edge">
<title>Node32&#45;&gt;Node37</title>
<path fill="none" stroke="midnightblue" d="M551.91,-359.64C548.81,-359.06 545.73,-358.51 542.72,-358 407.24,-335.23 370.06,-350.78 235.72,-322 231.78,-321.16 227.7,-320.12 223.66,-318.99"/>
<polygon fill="midnightblue" stroke="midnightblue" points="224.43,-315.56 213.85,-316.04 222.42,-322.27 224.43,-315.56"/>
</g>
<!-- Node38&#45;&gt;Node4 -->
<g id="edge52" class="edge">
<title>Node38&#45;&gt;Node4</title>
<path fill="none" stroke="midnightblue" d="M984.47,-425.46C1015.16,-416.92 1057.08,-403.08 1066.72,-389 1081.4,-367.57 1060.61,-339.97 1043.93,-323.01"/>
<polygon fill="midnightblue" stroke="midnightblue" points="1046.33,-320.46 1036.7,-316.03 1041.47,-325.49 1046.33,-320.46"/>
</g>
<!-- Node38&#45;&gt;Node21 -->
<g id="edge54" class="edge">
<title>Node38&#45;&gt;Node21</title>
<path fill="none" stroke="midnightblue" d="M992.45,-426.52C995.59,-425.99 998.7,-425.48 1001.72,-425 1058.24,-416.03 1214.5,-427.63 1256.72,-389 1284.16,-363.89 1275.72,-344.69 1275.72,-307.5 1275.72,-307.5 1275.72,-307.5 1275.72,-188 1275.72,-131.26 1090.58,-89.39 1009.27,-73.73"/>
<polygon fill="midnightblue" stroke="midnightblue" points="1009.45,-70.21 998.97,-71.79 1008.14,-77.08 1009.45,-70.21"/>
</g>
<!-- Node38&#45;&gt;Node29 -->
<g id="edge51" class="edge">
<title>Node38&#45;&gt;Node29</title>
<path fill="none" stroke="midnightblue" d="M944.85,-425.48C938.76,-416.64 929.08,-402.59 921.42,-391.48"/>
<polygon fill="midnightblue" stroke="midnightblue" points="924.14,-389.26 915.59,-383.01 918.38,-393.23 924.14,-389.26"/>
</g>
<!-- Node39 -->
<g id="node39" class="node">
<title>Node39</title>
<g id="a_node39"><a xlink:title=" ">
<polygon fill="white" stroke="#bfbfbf" points="1008.22,-364 1008.22,-383 1057.22,-383 1057.22,-364 1008.22,-364"/>
<text text-anchor="middle" x="1032.72" y="-371" font-family="Helvetica,sans-Serif" font-size="10.00">fstream</text>
</a>
</g>
</g>
<!-- Node38&#45;&gt;Node39 -->
<g id="edge53" class="edge">
<title>Node38&#45;&gt;Node39</title>
<path fill="none" stroke="midnightblue" d="M962.47,-425.48C975.5,-416.02 996.76,-400.6 1012.48,-389.19"/>
<polygon fill="midnightblue" stroke="midnightblue" points="1014.96,-391.71 1021,-383.01 1010.85,-386.05 1014.96,-391.71"/>
</g>
<!-- Node40 -->
<g id="node40" class="node">
<title>Node40</title>
<g id="a_node40"><a xlink:href="kryne-engine_2_utils_2_utils_8h.html" target="_top" xlink:title=" ">
<polygon fill="white" stroke="black" points="1152.22,-358.5 1152.22,-388.5 1247.22,-388.5 1247.22,-358.5 1152.22,-358.5"/>
<text text-anchor="start" x="1160.22" y="-376.5" font-family="Helvetica,sans-Serif" font-size="10.00">kryne&#45;engine/Utils</text>
<text text-anchor="middle" x="1199.72" y="-365.5" font-family="Helvetica,sans-Serif" font-size="10.00">/Utils.h</text>
</a>
</g>
</g>
<!-- Node38&#45;&gt;Node40 -->
<g id="edge55" class="edge">
<title>Node38&#45;&gt;Node40</title>
<path fill="none" stroke="midnightblue" d="M986.4,-425.48C1027.08,-415.76 1094.15,-399.73 1142.23,-388.24"/>
<polygon fill="midnightblue" stroke="midnightblue" points="1143.27,-391.59 1152.18,-385.86 1141.64,-384.78 1143.27,-391.59"/>
</g>
<!-- Node41 -->
<g id="node41" class="node">
<title>Node41</title>
<g id="a_node41"><a xlink:href="_string_utils_8hpp.html" target="_top" xlink:title=" ">
<polygon fill="white" stroke="black" points="1041.72,-118 1041.72,-137 1121.72,-137 1121.72,-118 1041.72,-118"/>
<text text-anchor="middle" x="1081.72" y="-125" font-family="Helvetica,sans-Serif" font-size="10.00">StringUtils.hpp</text>
</a>
</g>
</g>
<!-- Node40&#45;&gt;Node41 -->
<g id="edge56" class="edge">
<title>Node40&#45;&gt;Node41</title>
<path fill="none" stroke="midnightblue" d="M1200.49,-358.45C1201.32,-332.66 1200.46,-276.58 1180.72,-235 1162.39,-196.37 1124.99,-162.24 1101.77,-143.57"/>
<polygon fill="midnightblue" stroke="midnightblue" points="1103.66,-140.6 1093.63,-137.19 1099.34,-146.11 1103.66,-140.6"/>
</g>
<!-- Node42 -->
<g id="node42" class="node">
<title>Node42</title>
<g id="a_node42"><a xlink:href="_vector_mapping_8hpp.html" target="_top" xlink:title=" ">
<polygon fill="white" stroke="black" points="1065.22,-297 1065.22,-316 1166.22,-316 1166.22,-297 1065.22,-297"/>
<text text-anchor="middle" x="1115.72" y="-304" font-family="Helvetica,sans-Serif" font-size="10.00">VectorMapping.hpp</text>
</a>
</g>
</g>
<!-- Node40&#45;&gt;Node42 -->
<g id="edge58" class="edge">
<title>Node40&#45;&gt;Node42</title>
<path fill="none" stroke="midnightblue" d="M1181.5,-358.4C1167.75,-347.76 1148.94,-333.2 1134.96,-322.38"/>
<polygon fill="midnightblue" stroke="midnightblue" points="1137.01,-319.55 1126.96,-316.19 1132.73,-325.08 1137.01,-319.55"/>
</g>
<!-- Node41&#45;&gt;Node21 -->
<g id="edge57" class="edge">
<title>Node41&#45;&gt;Node21</title>
<path fill="none" stroke="midnightblue" d="M1065.96,-117.98C1047.75,-108.12 1017.55,-91.79 996.26,-80.27"/>
<polygon fill="midnightblue" stroke="midnightblue" points="997.92,-77.19 987.45,-75.51 994.59,-83.35 997.92,-77.19"/>
</g>
<!-- Node43 -->
<g id="node43" class="node">
<title>Node43</title>
<g id="a_node43"><a xlink:title=" ">
<polygon fill="white" stroke="#bfbfbf" points="552.72,-235.5 552.72,-254.5 594.72,-254.5 594.72,-235.5 552.72,-235.5"/>
<text text-anchor="middle" x="573.72" y="-242.5" font-family="Helvetica,sans-Serif" font-size="10.00">vector</text>
</a>
</g>
</g>
<!-- Node42&#45;&gt;Node43 -->
<g id="edge59" class="edge">
<title>Node42&#45;&gt;Node43</title>
<path fill="none" stroke="midnightblue" d="M1084.67,-296.95C1075.71,-294.74 1065.88,-292.54 1056.72,-291 887.78,-262.53 682.34,-250.89 605.09,-247.31"/>
<polygon fill="midnightblue" stroke="midnightblue" points="605.2,-243.81 595.06,-246.86 604.89,-250.81 605.2,-243.81"/>
</g>
<!-- Node44 -->
<g id="node44" class="node">
<title>Node44</title>
<g id="a_node44"><a xlink:title=" ">
<polygon fill="white" stroke="#bfbfbf" points="1058.22,-235.5 1058.22,-254.5 1171.22,-254.5 1171.22,-235.5 1058.22,-235.5"/>
<text text-anchor="middle" x="1114.72" y="-242.5" font-family="Helvetica,sans-Serif" font-size="10.00">glm/detail/qualifier.hpp</text>
</a>
</g>
</g>
<!-- Node42&#45;&gt;Node44 -->
<g id="edge60" class="edge">
<title>Node42&#45;&gt;Node44</title>
<path fill="none" stroke="midnightblue" d="M1115.58,-296.98C1115.44,-288.58 1115.22,-275.48 1115.04,-264.66"/>
<polygon fill="midnightblue" stroke="midnightblue" points="1118.53,-264.45 1114.87,-254.51 1111.54,-264.57 1118.53,-264.45"/>
</g>
<!-- Node45&#45;&gt;Node7 -->
<g id="edge65" class="edge">
<title>Node45&#45;&gt;Node7</title>
<path fill="none" stroke="midnightblue" d="M191.48,-365.77C217.85,-363.12 248.74,-360.2 276.72,-358 543.05,-337.06 611.52,-354.17 876.72,-322 888.72,-320.55 901.64,-318.41 913.49,-316.23"/>
<polygon fill="midnightblue" stroke="midnightblue" points="914.4,-319.62 923.57,-314.32 913.1,-312.74 914.4,-319.62"/>
</g>
<!-- Node45&#45;&gt;Node8 -->
<g id="edge66" class="edge">
<title>Node45&#45;&gt;Node8</title>
<path fill="none" stroke="midnightblue" d="M186.55,-358.4C226.49,-348.64 280.44,-335.1 327.72,-322 331.14,-321.05 334.69,-320.04 338.23,-319.01"/>
<polygon fill="midnightblue" stroke="midnightblue" points="339.53,-322.27 348.12,-316.08 337.54,-315.56 339.53,-322.27"/>
</g>
<!-- Node45&#45;&gt;Node36 -->
<g id="edge67" class="edge">
<title>Node45&#45;&gt;Node36</title>
<path fill="none" stroke="midnightblue" d="M161.14,-358.4C188.28,-346.94 226.19,-330.94 252.22,-319.95"/>
<polygon fill="midnightblue" stroke="midnightblue" points="253.72,-323.12 261.57,-316.01 250.99,-316.67 253.72,-323.12"/>
</g>
<!-- Node45&#45;&gt;Node37 -->
<g id="edge68" class="edge">
<title>Node45&#45;&gt;Node37</title>
<path fill="none" stroke="midnightblue" d="M141.18,-358.4C150.94,-348.16 164.16,-334.3 174.35,-323.62"/>
<polygon fill="midnightblue" stroke="midnightblue" points="177.06,-325.85 181.43,-316.19 172,-321.01 177.06,-325.85"/>
</g>
<!-- Node45&#45;&gt;Node43 -->
<g id="edge62" class="edge">
<title>Node45&#45;&gt;Node43</title>
<path fill="none" stroke="midnightblue" d="M76.1,-358.49C32.36,-344.2 -19.28,-320.05 7.72,-291 45.12,-250.77 446.06,-260.36 500.72,-255 514.43,-253.66 529.53,-251.85 542.43,-250.2"/>
<polygon fill="midnightblue" stroke="midnightblue" points="543.2,-253.63 552.67,-248.88 542.3,-246.69 543.2,-253.63"/>
</g>
<!-- Node46 -->
<g id="node46" class="node">
<title>Node46</title>
<g id="a_node46"><a xlink:title=" ">
<polygon fill="white" stroke="#bfbfbf" points="82.72,-297 82.72,-316 134.72,-316 134.72,-297 82.72,-297"/>
<text text-anchor="middle" x="108.72" y="-304" font-family="Helvetica,sans-Serif" font-size="10.00">stdarg.h</text>
</a>
</g>
</g>
<!-- Node45&#45;&gt;Node46 -->
<g id="edge63" class="edge">
<title>Node45&#45;&gt;Node46</title>
<path fill="none" stroke="midnightblue" d="M123.6,-358.4C120.81,-348.86 117.11,-336.18 114.09,-325.86"/>
<polygon fill="midnightblue" stroke="midnightblue" points="117.43,-324.81 111.27,-316.19 110.71,-326.77 117.43,-324.81"/>
</g>
<!-- Node47 -->
<g id="node47" class="node">
<title>Node47</title>
<g id="a_node47"><a xlink:title=" ">
<polygon fill="white" stroke="#bfbfbf" points="16.72,-297 16.72,-316 64.72,-316 64.72,-297 16.72,-297"/>
<text text-anchor="middle" x="40.72" y="-304" font-family="Helvetica,sans-Serif" font-size="10.00">stdlib.h</text>
</a>
</g>
</g>
<!-- Node45&#45;&gt;Node47 -->
<g id="edge64" class="edge">
<title>Node45&#45;&gt;Node47</title>
<path fill="none" stroke="midnightblue" d="M108.85,-358.4C94.61,-347.76 75.13,-333.2 60.64,-322.38"/>
<polygon fill="midnightblue" stroke="midnightblue" points="62.47,-319.38 52.36,-316.19 58.28,-324.98 62.47,-319.38"/>
</g>
</g>
</svg>
