<?xml version="1.0" encoding="UTF-8" standalone="no"?>
<!DOCTYPE svg PUBLIC "-//W3C//DTD SVG 1.1//EN"
 "http://www.w3.org/Graphics/SVG/1.1/DTD/svg11.dtd">
<!-- Generated by graphviz version 2.44.1 (20200629.0846)
 -->
<!-- Title: kryne&#45;engine/src/Dispatch/BasePool.cpp Pages: 1 -->
<svg width="488pt" height="162pt"
 viewBox="0.00 0.00 488.00 162.00" xmlns="http://www.w3.org/2000/svg" xmlns:xlink="http://www.w3.org/1999/xlink">
<g id="graph0" class="graph" transform="scale(1 1) rotate(0) translate(4 158)">
<title>kryne&#45;engine/src/Dispatch/BasePool.cpp</title>
<polygon fill="white" stroke="transparent" points="-4,4 -4,-158 484,-158 484,4 -4,4"/>
<!-- Node1 -->
<g id="node1" class="node">
<title>Node1</title>
<g id="a_node1"><a xlink:title=" ">
<polygon fill="#bfbfbf" stroke="black" points="192,-123.5 192,-153.5 322,-153.5 322,-123.5 192,-123.5"/>
<text text-anchor="start" x="200" y="-141.5" font-family="Helvetica,sans-Serif" font-size="10.00">kryne&#45;engine/src/Dispatch</text>
<text text-anchor="middle" x="257" y="-130.5" font-family="Helvetica,sans-Serif" font-size="10.00">/BasePool.cpp</text>
</a>
</g>
</g>
<!-- Node2 -->
<g id="node2" class="node">
<title>Node2</title>
<g id="a_node2"><a xlink:href="_base_pool_8h.html" target="_top" xlink:title=" ">
<polygon fill="white" stroke="black" points="200.5,-56.5 200.5,-86.5 313.5,-86.5 313.5,-56.5 200.5,-56.5"/>
<text text-anchor="start" x="208.5" y="-74.5" font-family="Helvetica,sans-Serif" font-size="10.00">kryne&#45;engine/Dispatch</text>
<text text-anchor="middle" x="257" y="-63.5" font-family="Helvetica,sans-Serif" font-size="10.00">/BasePool.h</text>
</a>
</g>
</g>
<!-- Node1&#45;&gt;Node2 -->
<g id="edge1" class="edge">
<title>Node1&#45;&gt;Node2</title>
<path fill="none" stroke="midnightblue" d="M257,-123.4C257,-115.64 257,-105.81 257,-96.86"/>
<polygon fill="midnightblue" stroke="midnightblue" points="260.5,-96.58 257,-86.58 253.5,-96.58 260.5,-96.58"/>
</g>
<!-- Node3 -->
<g id="node3" class="node">
<title>Node3</title>
<g id="a_node3"><a xlink:title=" ">
<polygon fill="white" stroke="#bfbfbf" points="0,-0.5 0,-19.5 44,-19.5 44,-0.5 0,-0.5"/>
<text text-anchor="middle" x="22" y="-7.5" font-family="Helvetica,sans-Serif" font-size="10.00">thread</text>
</a>
</g>
</g>
<!-- Node2&#45;&gt;Node3 -->
<g id="edge2" class="edge">
<title>Node2&#45;&gt;Node3</title>
<path fill="none" stroke="midnightblue" d="M200.12,-57.06C161.44,-47.78 108.87,-34.87 54.19,-20.25"/>
<polygon fill="midnightblue" stroke="midnightblue" points="54.89,-16.81 44.32,-17.6 53.07,-23.57 54.89,-16.81"/>
</g>
<!-- Node4 -->
<g id="node4" class="node">
<title>Node4</title>
<g id="a_node4"><a xlink:title=" ">
<polygon fill="white" stroke="#bfbfbf" points="62,-0.5 62,-19.5 106,-19.5 106,-0.5 62,-0.5"/>
<text text-anchor="middle" x="84" y="-7.5" font-family="Helvetica,sans-Serif" font-size="10.00">mutex</text>
</a>
</g>
</g>
<!-- Node2&#45;&gt;Node4 -->
<g id="edge3" class="edge">
<title>Node2&#45;&gt;Node4</title>
<path fill="none" stroke="midnightblue" d="M216,-56.4C185.39,-45.87 144.15,-31.69 115.96,-21.99"/>
<polygon fill="midnightblue" stroke="midnightblue" points="116.8,-18.58 106.21,-18.64 114.53,-25.2 116.8,-18.58"/>
</g>
<!-- Node5 -->
<g id="node5" class="node">
<title>Node5</title>
<g id="a_node5"><a xlink:title=" ">
<polygon fill="white" stroke="#bfbfbf" points="124.5,-0.5 124.5,-19.5 217.5,-19.5 217.5,-0.5 124.5,-0.5"/>
<text text-anchor="middle" x="171" y="-7.5" font-family="Helvetica,sans-Serif" font-size="10.00">condition_variable</text>
</a>
</g>
</g>
<!-- Node2&#45;&gt;Node5 -->
<g id="edge4" class="edge">
<title>Node2&#45;&gt;Node5</title>
<path fill="none" stroke="midnightblue" d="M236.62,-56.4C223.09,-47.04 205.39,-34.79 191.78,-25.38"/>
<polygon fill="midnightblue" stroke="midnightblue" points="193.73,-22.47 183.51,-19.66 189.75,-28.23 193.73,-22.47"/>
</g>
<!-- Node6 -->
<g id="node6" class="node">
<title>Node6</title>
<g id="a_node6"><a xlink:title=" ">
<polygon fill="white" stroke="#bfbfbf" points="235.5,-0.5 235.5,-19.5 278.5,-19.5 278.5,-0.5 235.5,-0.5"/>
<text text-anchor="middle" x="257" y="-7.5" font-family="Helvetica,sans-Serif" font-size="10.00">queue</text>
</a>
</g>
</g>
<!-- Node2&#45;&gt;Node6 -->
<g id="edge5" class="edge">
<title>Node2&#45;&gt;Node6</title>
<path fill="none" stroke="midnightblue" d="M257,-56.4C257,-48.47 257,-38.46 257,-29.86"/>
<polygon fill="midnightblue" stroke="midnightblue" points="260.5,-29.66 257,-19.66 253.5,-29.66 260.5,-29.66"/>
</g>
<!-- Node7 -->
<g id="node7" class="node">
<title>Node7</title>
<g id="a_node7"><a xlink:title=" ">
<polygon fill="white" stroke="#bfbfbf" points="296.5,-0.5 296.5,-19.5 337.5,-19.5 337.5,-0.5 296.5,-0.5"/>
<text text-anchor="middle" x="317" y="-7.5" font-family="Helvetica,sans-Serif" font-size="10.00">future</text>
</a>
</g>
</g>
<!-- Node2&#45;&gt;Node7 -->
<g id="edge6" class="edge">
<title>Node2&#45;&gt;Node7</title>
<path fill="none" stroke="midnightblue" d="M271.22,-56.4C280.21,-47.49 291.84,-35.95 301.13,-26.74"/>
<polygon fill="midnightblue" stroke="midnightblue" points="303.63,-29.18 308.27,-19.66 298.7,-24.21 303.63,-29.18"/>
</g>
<!-- Node8 -->
<g id="node8" class="node">
<title>Node8</title>
<g id="a_node8"><a xlink:title=" ">
<polygon fill="white" stroke="#bfbfbf" points="356,-0.5 356,-19.5 408,-19.5 408,-0.5 356,-0.5"/>
<text text-anchor="middle" x="382" y="-7.5" font-family="Helvetica,sans-Serif" font-size="10.00">memory</text>
</a>
</g>
</g>
<!-- Node2&#45;&gt;Node8 -->
<g id="edge7" class="edge">
<title>Node2&#45;&gt;Node8</title>
<path fill="none" stroke="midnightblue" d="M286.62,-56.4C307.22,-46.59 334.48,-33.62 354.58,-24.05"/>
<polygon fill="midnightblue" stroke="midnightblue" points="356.29,-27.12 363.81,-19.66 353.28,-20.8 356.29,-27.12"/>
</g>
<!-- Node9 -->
<g id="node9" class="node">
<title>Node9</title>
<g id="a_node9"><a xlink:title=" ">
<polygon fill="white" stroke="#bfbfbf" points="426,-0.5 426,-19.5 480,-19.5 480,-0.5 426,-0.5"/>
<text text-anchor="middle" x="453" y="-7.5" font-family="Helvetica,sans-Serif" font-size="10.00">iostream</text>
</a>
</g>
</g>
<!-- Node2&#45;&gt;Node9 -->
<g id="edge8" class="edge">
<title>Node2&#45;&gt;Node9</title>
<path fill="none" stroke="midnightblue" d="M303.45,-56.4C337.87,-45.95 384.16,-31.9 416.08,-22.21"/>
<polygon fill="midnightblue" stroke="midnightblue" points="417.35,-25.48 425.9,-19.23 415.31,-18.78 417.35,-25.48"/>
</g>
</g>
</svg>
