<?xml version="1.0" encoding="UTF-8" standalone="no"?>
<!DOCTYPE svg PUBLIC "-//W3C//DTD SVG 1.1//EN"
 "http://www.w3.org/Graphics/SVG/1.1/DTD/svg11.dtd">
<!-- Generated by graphviz version 2.40.1 (20161225.0304)
 -->
<!-- Title: kryne&#45;engine/include/kryne&#45;engine/Geometry/BoxBufferGeometry.h Pages: 1 -->
<svg width="1429pt" height="475pt"
 viewBox="0.00 0.00 1428.50 475.00" xmlns="http://www.w3.org/2000/svg" xmlns:xlink="http://www.w3.org/1999/xlink">
<g id="graph0" class="graph" transform="scale(1 1) rotate(0) translate(4 471)">
<title>kryne&#45;engine/include/kryne&#45;engine/Geometry/BoxBufferGeometry.h</title>
<polygon fill="#ffffff" stroke="transparent" points="-4,4 -4,-471 1424.5,-471 1424.5,4 -4,4"/>
<!-- Node0 -->
<g id="node1" class="node">
<title>Node0</title>
<polygon fill="#bfbfbf" stroke="#000000" points="502,-425.5 502,-466.5 623,-466.5 623,-425.5 502,-425.5"/>
<text text-anchor="start" x="510" y="-454.5" font-family="Helvetica,sans-Serif" font-size="10.00" fill="#000000">kryne&#45;engine/include</text>
<text text-anchor="start" x="510" y="-443.5" font-family="Helvetica,sans-Serif" font-size="10.00" fill="#000000">/kryne&#45;engine/Geometry</text>
<text text-anchor="middle" x="562.5" y="-432.5" font-family="Helvetica,sans-Serif" font-size="10.00" fill="#000000">/BoxBufferGeometry.h</text>
</g>
<!-- Node1 -->
<g id="node2" class="node">
<title>Node1</title>
<polygon fill="#ffffff" stroke="#bfbfbf" points="144,-297 144,-316 219,-316 219,-297 144,-297"/>
<text text-anchor="middle" x="181.5" y="-304" font-family="Helvetica,sans-Serif" font-size="10.00" fill="#000000">glm/vec2.hpp</text>
</g>
<!-- Node0&#45;&gt;Node1 -->
<g id="edge1" class="edge">
<title>Node0&#45;&gt;Node1</title>
<path fill="none" stroke="#191970" d="M506.2821,-425.4163C426.7394,-396.2924 283.6455,-343.8997 217.2016,-319.5718"/>
<polygon fill="#191970" stroke="#191970" points="218.1877,-316.2057 207.5939,-316.0541 215.7809,-322.779 218.1877,-316.2057"/>
</g>
<!-- Node2 -->
<g id="node3" class="node">
<title>Node2</title>
<polygon fill="#ffffff" stroke="#bfbfbf" points="1197,-179.5 1197,-198.5 1272,-198.5 1272,-179.5 1197,-179.5"/>
<text text-anchor="middle" x="1234.5" y="-186.5" font-family="Helvetica,sans-Serif" font-size="10.00" fill="#000000">glm/vec3.hpp</text>
</g>
<!-- Node0&#45;&gt;Node2 -->
<g id="edge2" class="edge">
<title>Node0&#45;&gt;Node2</title>
<path fill="none" stroke="#191970" d="M623.4337,-442.8247C734.1652,-435.0207 973.5743,-408.6809 1153.5,-322 1195.5898,-301.7228 1214.6064,-297.2725 1234.5,-255 1241.2849,-240.5825 1240.6986,-222.3532 1238.7471,-208.7077"/>
<polygon fill="#191970" stroke="#191970" points="1242.1284,-207.7334 1236.9187,-198.5079 1235.2382,-208.9686 1242.1284,-207.7334"/>
</g>
<!-- Node3 -->
<g id="node4" class="node">
<title>Node3</title>
<g id="a_node4"><a xlink:href="_cube_vertex_data_8h.html" target="_top" xlink:title="kryne&#45;engine/Constants\l/CubeVertexData.h">
<polygon fill="#ffffff" stroke="#000000" points="1300.5,-358.5 1300.5,-388.5 1420.5,-388.5 1420.5,-358.5 1300.5,-358.5"/>
<text text-anchor="start" x="1308.5" y="-376.5" font-family="Helvetica,sans-Serif" font-size="10.00" fill="#000000">kryne&#45;engine/Constants</text>
<text text-anchor="middle" x="1360.5" y="-365.5" font-family="Helvetica,sans-Serif" font-size="10.00" fill="#000000">/CubeVertexData.h</text>
</a>
</g>
</g>
<!-- Node0&#45;&gt;Node3 -->
<g id="edge3" class="edge">
<title>Node0&#45;&gt;Node3</title>
<path fill="none" stroke="#191970" d="M623.3349,-443.8397C748.1909,-438.8283 1042.1941,-424.0564 1286.5,-389 1287.779,-388.8165 1289.069,-388.6241 1290.3674,-388.424"/>
<polygon fill="#191970" stroke="#191970" points="1291.1473,-391.8425 1300.4386,-386.7511 1290.0002,-384.9371 1291.1473,-391.8425"/>
</g>
<!-- Node4 -->
<g id="node5" class="node">
<title>Node4</title>
<g id="a_node5"><a xlink:href="kryne-engine_2_utils_2_utils_8h.html" target="_top" xlink:title="kryne&#45;engine/Utils\l/Utils.h">
<polygon fill="#ffffff" stroke="#000000" points="28,-358.5 28,-388.5 123,-388.5 123,-358.5 28,-358.5"/>
<text text-anchor="start" x="36" y="-376.5" font-family="Helvetica,sans-Serif" font-size="10.00" fill="#000000">kryne&#45;engine/Utils</text>
<text text-anchor="middle" x="75.5" y="-365.5" font-family="Helvetica,sans-Serif" font-size="10.00" fill="#000000">/Utils.h</text>
</a>
</g>
</g>
<!-- Node0&#45;&gt;Node4 -->
<g id="edge4" class="edge">
<title>Node0&#45;&gt;Node4</title>
<path fill="none" stroke="#191970" d="M501.8058,-436.9644C407.1862,-422.8783 225.7811,-395.8724 133.0965,-382.0744"/>
<polygon fill="#191970" stroke="#191970" points="133.4626,-378.5904 123.0562,-380.5797 132.4318,-385.5141 133.4626,-378.5904"/>
</g>
<!-- Node10 -->
<g id="node11" class="node">
<title>Node10</title>
<g id="a_node11"><a xlink:href="_dispatcher_8h.html" target="_top" xlink:title="kryne&#45;engine/Dispatch\l/Dispatcher.h">
<polygon fill="#ffffff" stroke="#000000" points="302.5,-291.5 302.5,-321.5 416.5,-321.5 416.5,-291.5 302.5,-291.5"/>
<text text-anchor="start" x="310.5" y="-309.5" font-family="Helvetica,sans-Serif" font-size="10.00" fill="#000000">kryne&#45;engine/Dispatch</text>
<text text-anchor="middle" x="359.5" y="-298.5" font-family="Helvetica,sans-Serif" font-size="10.00" fill="#000000">/Dispatcher.h</text>
</a>
</g>
</g>
<!-- Node0&#45;&gt;Node10 -->
<g id="edge10" class="edge">
<title>Node0&#45;&gt;Node10</title>
<path fill="none" stroke="#191970" d="M532.5467,-425.4163C494.36,-399.1747 428.6835,-354.0423 390.1609,-327.5699"/>
<polygon fill="#191970" stroke="#191970" points="391.6715,-324.3613 381.4476,-321.5822 387.707,-330.1304 391.6715,-324.3613"/>
</g>
<!-- Node24 -->
<g id="node25" class="node">
<title>Node24</title>
<g id="a_node25"><a xlink:href="_buffer_geometry_8h.html" target="_top" xlink:title="BufferGeometry.h">
<polygon fill="#ffffff" stroke="#000000" points="568.5,-364 568.5,-383 662.5,-383 662.5,-364 568.5,-364"/>
<text text-anchor="middle" x="615.5" y="-371" font-family="Helvetica,sans-Serif" font-size="10.00" fill="#000000">BufferGeometry.h</text>
</a>
</g>
</g>
<!-- Node0&#45;&gt;Node24 -->
<g id="edge28" class="edge">
<title>Node0&#45;&gt;Node24</title>
<path fill="none" stroke="#191970" d="M577.5459,-425.4183C585.4044,-414.6685 594.9269,-401.6424 602.4678,-391.3271"/>
<polygon fill="#191970" stroke="#191970" points="605.4167,-393.2238 608.4928,-383.0853 599.7657,-389.0927 605.4167,-393.2238"/>
</g>
<!-- Node5 -->
<g id="node6" class="node">
<title>Node5</title>
<g id="a_node6"><a xlink:href="_string_utils_8hpp.html" target="_top" xlink:title="StringUtils.hpp">
<polygon fill="#ffffff" stroke="#000000" points="0,-118 0,-137 81,-137 81,-118 0,-118"/>
<text text-anchor="middle" x="40.5" y="-125" font-family="Helvetica,sans-Serif" font-size="10.00" fill="#000000">StringUtils.hpp</text>
</a>
</g>
</g>
<!-- Node4&#45;&gt;Node5 -->
<g id="edge5" class="edge">
<title>Node4&#45;&gt;Node5</title>
<path fill="none" stroke="#191970" d="M50.0009,-358.3983C37.381,-349.4878 23.2281,-337.0126 15.5,-322 -14.5664,-263.5933 14.8931,-182.7364 31.2271,-146.4525"/>
<polygon fill="#191970" stroke="#191970" points="34.5466,-147.6162 35.6107,-137.075 28.2053,-144.6519 34.5466,-147.6162"/>
</g>
<!-- Node7 -->
<g id="node8" class="node">
<title>Node7</title>
<g id="a_node8"><a xlink:href="_vector_mapping_8hpp.html" target="_top" xlink:title="VectorMapping.hpp">
<polygon fill="#ffffff" stroke="#000000" points="25,-297 25,-316 126,-316 126,-297 25,-297"/>
<text text-anchor="middle" x="75.5" y="-304" font-family="Helvetica,sans-Serif" font-size="10.00" fill="#000000">VectorMapping.hpp</text>
</a>
</g>
</g>
<!-- Node4&#45;&gt;Node7 -->
<g id="edge7" class="edge">
<title>Node4&#45;&gt;Node7</title>
<path fill="none" stroke="#191970" d="M75.5,-358.2967C75.5,-348.7699 75.5,-336.3954 75.5,-326.1306"/>
<polygon fill="#191970" stroke="#191970" points="79.0001,-326.0549 75.5,-316.055 72.0001,-326.055 79.0001,-326.0549"/>
</g>
<!-- Node6 -->
<g id="node7" class="node">
<title>Node6</title>
<polygon fill="#ffffff" stroke="#bfbfbf" points="125.5,-56.5 125.5,-75.5 179.5,-75.5 179.5,-56.5 125.5,-56.5"/>
<text text-anchor="middle" x="152.5" y="-63.5" font-family="Helvetica,sans-Serif" font-size="10.00" fill="#000000">iostream</text>
</g>
<!-- Node5&#45;&gt;Node6 -->
<g id="edge6" class="edge">
<title>Node5&#45;&gt;Node6</title>
<path fill="none" stroke="#191970" d="M58,-117.8906C76.2465,-107.8713 105.0624,-92.0483 126.0806,-80.5071"/>
<polygon fill="#191970" stroke="#191970" points="128.042,-83.423 135.1229,-75.5419 124.6728,-77.2872 128.042,-83.423"/>
</g>
<!-- Node8 -->
<g id="node9" class="node">
<title>Node8</title>
<polygon fill="#ffffff" stroke="#bfbfbf" points="188.5,-235.5 188.5,-254.5 232.5,-254.5 232.5,-235.5 188.5,-235.5"/>
<text text-anchor="middle" x="210.5" y="-242.5" font-family="Helvetica,sans-Serif" font-size="10.00" fill="#000000">vector</text>
</g>
<!-- Node7&#45;&gt;Node8 -->
<g id="edge8" class="edge">
<title>Node7&#45;&gt;Node8</title>
<path fill="none" stroke="#191970" d="M96.5938,-296.8906C119.0827,-286.6457 154.8918,-270.3326 180.3524,-258.7339"/>
<polygon fill="#191970" stroke="#191970" points="181.9052,-261.8727 189.5544,-254.5419 179.0032,-255.5025 181.9052,-261.8727"/>
</g>
<!-- Node9 -->
<g id="node10" class="node">
<title>Node9</title>
<polygon fill="#ffffff" stroke="#bfbfbf" points="18.5,-235.5 18.5,-254.5 132.5,-254.5 132.5,-235.5 18.5,-235.5"/>
<text text-anchor="middle" x="75.5" y="-242.5" font-family="Helvetica,sans-Serif" font-size="10.00" fill="#000000">glm/detail/qualifier.hpp</text>
</g>
<!-- Node7&#45;&gt;Node9 -->
<g id="edge9" class="edge">
<title>Node7&#45;&gt;Node9</title>
<path fill="none" stroke="#191970" d="M75.5,-296.8906C75.5,-288.3657 75.5,-275.6392 75.5,-264.9235"/>
<polygon fill="#191970" stroke="#191970" points="79.0001,-264.7448 75.5,-254.7449 72.0001,-264.7449 79.0001,-264.7448"/>
</g>
<!-- Node11 -->
<g id="node12" class="node">
<title>Node11</title>
<g id="a_node12"><a xlink:href="_synchronizable_pool_8h.html" target="_top" xlink:title="SynchronizablePool.h">
<polygon fill="#ffffff" stroke="#000000" points="219,-179.5 219,-198.5 330,-198.5 330,-179.5 219,-179.5"/>
<text text-anchor="middle" x="274.5" y="-186.5" font-family="Helvetica,sans-Serif" font-size="10.00" fill="#000000">SynchronizablePool.h</text>
</a>
</g>
</g>
<!-- Node10&#45;&gt;Node11 -->
<g id="edge11" class="edge">
<title>Node10&#45;&gt;Node11</title>
<path fill="none" stroke="#191970" d="M342.9028,-291.2221C332.8244,-281.4447 320.0967,-268.1638 310.5,-255 299.7163,-240.208 289.9433,-221.8143 283.3101,-208.205"/>
<polygon fill="#191970" stroke="#191970" points="286.331,-206.4065 278.885,-198.8694 280.0056,-209.4048 286.331,-206.4065"/>
</g>
<!-- Node21 -->
<g id="node22" class="node">
<title>Node21</title>
<g id="a_node22"><a xlink:href="_runner_pool_8h.html" target="_top" xlink:title="RunnerPool.h">
<polygon fill="#ffffff" stroke="#000000" points="348.5,-179.5 348.5,-198.5 424.5,-198.5 424.5,-179.5 348.5,-179.5"/>
<text text-anchor="middle" x="386.5" y="-186.5" font-family="Helvetica,sans-Serif" font-size="10.00" fill="#000000">RunnerPool.h</text>
</a>
</g>
</g>
<!-- Node10&#45;&gt;Node21 -->
<g id="edge22" class="edge">
<title>Node10&#45;&gt;Node21</title>
<path fill="none" stroke="#191970" d="M340.4297,-291.3575C324.8172,-277.0202 306.9028,-254.801 317.5,-235 324.9515,-221.0767 338.6849,-210.6399 351.949,-203.258"/>
<polygon fill="#191970" stroke="#191970" points="353.6726,-206.3075 360.9738,-198.6302 350.4785,-200.0787 353.6726,-206.3075"/>
</g>
<!-- Node22 -->
<g id="node23" class="node">
<title>Node22</title>
<g id="a_node23"><a xlink:href="_main_pool_8h.html" target="_top" xlink:title="MainPool.h">
<polygon fill="#ffffff" stroke="#000000" points="327,-235.5 327,-254.5 392,-254.5 392,-235.5 327,-235.5"/>
<text text-anchor="middle" x="359.5" y="-242.5" font-family="Helvetica,sans-Serif" font-size="10.00" fill="#000000">MainPool.h</text>
</a>
</g>
</g>
<!-- Node10&#45;&gt;Node22 -->
<g id="edge24" class="edge">
<title>Node10&#45;&gt;Node22</title>
<path fill="none" stroke="#191970" d="M359.5,-291.2977C359.5,-283.3834 359.5,-273.6043 359.5,-265.0759"/>
<polygon fill="#191970" stroke="#191970" points="363.0001,-264.8469 359.5,-254.8469 356.0001,-264.847 363.0001,-264.8469"/>
</g>
<!-- Node12 -->
<g id="node13" class="node">
<title>Node12</title>
<g id="a_node13"><a xlink:href="_thread_pool_8h.html" target="_top" xlink:title="ThreadPool.h">
<polygon fill="#ffffff" stroke="#000000" points="349.5,-118 349.5,-137 423.5,-137 423.5,-118 349.5,-118"/>
<text text-anchor="middle" x="386.5" y="-125" font-family="Helvetica,sans-Serif" font-size="10.00" fill="#000000">ThreadPool.h</text>
</a>
</g>
</g>
<!-- Node11&#45;&gt;Node12 -->
<g id="edge12" class="edge">
<title>Node11&#45;&gt;Node12</title>
<path fill="none" stroke="#191970" d="M292,-179.3906C310.2465,-169.3713 339.0624,-153.5483 360.0806,-142.0071"/>
<polygon fill="#191970" stroke="#191970" points="362.042,-144.923 369.1229,-137.0419 358.6728,-138.7872 362.042,-144.923"/>
</g>
<!-- Node12&#45;&gt;Node6 -->
<g id="edge18" class="edge">
<title>Node12&#45;&gt;Node6</title>
<path fill="none" stroke="#191970" d="M349.229,-118.001C311.4158,-108.3205 250.9443,-92.7211 189.483,-76.2357"/>
<polygon fill="#191970" stroke="#191970" points="190.1795,-72.7988 179.6137,-73.5831 188.3625,-79.5589 190.1795,-72.7988"/>
</g>
<!-- Node13 -->
<g id="node14" class="node">
<title>Node13</title>
<polygon fill="#ffffff" stroke="#bfbfbf" points="283.5,-56.5 283.5,-75.5 327.5,-75.5 327.5,-56.5 283.5,-56.5"/>
<text text-anchor="middle" x="305.5" y="-63.5" font-family="Helvetica,sans-Serif" font-size="10.00" fill="#000000">thread</text>
</g>
<!-- Node12&#45;&gt;Node13 -->
<g id="edge13" class="edge">
<title>Node12&#45;&gt;Node13</title>
<path fill="none" stroke="#191970" d="M373.8438,-117.8906C361.1232,-108.2324 341.2996,-93.1812 326.2716,-81.771"/>
<polygon fill="#191970" stroke="#191970" points="328.1484,-78.8015 318.0674,-75.5419 323.9154,-84.3766 328.1484,-78.8015"/>
</g>
<!-- Node14 -->
<g id="node15" class="node">
<title>Node14</title>
<polygon fill="#ffffff" stroke="#bfbfbf" points="518.5,-56.5 518.5,-75.5 562.5,-75.5 562.5,-56.5 518.5,-56.5"/>
<text text-anchor="middle" x="540.5" y="-63.5" font-family="Helvetica,sans-Serif" font-size="10.00" fill="#000000">mutex</text>
</g>
<!-- Node12&#45;&gt;Node14 -->
<g id="edge14" class="edge">
<title>Node12&#45;&gt;Node14</title>
<path fill="none" stroke="#191970" d="M410.5625,-117.8906C437.0116,-107.3282 479.6119,-90.3157 508.7749,-78.6694"/>
<polygon fill="#191970" stroke="#191970" points="510.1183,-81.9018 518.1071,-74.9426 507.5222,-75.401 510.1183,-81.9018"/>
</g>
<!-- Node15 -->
<g id="node16" class="node">
<title>Node15</title>
<polygon fill="#ffffff" stroke="#bfbfbf" points="346,-56.5 346,-75.5 441,-75.5 441,-56.5 346,-56.5"/>
<text text-anchor="middle" x="393.5" y="-63.5" font-family="Helvetica,sans-Serif" font-size="10.00" fill="#000000">condition_variable</text>
</g>
<!-- Node12&#45;&gt;Node15 -->
<g id="edge15" class="edge">
<title>Node12&#45;&gt;Node15</title>
<path fill="none" stroke="#191970" d="M387.5938,-117.8906C388.5641,-109.3657 390.0126,-96.6392 391.2323,-85.9235"/>
<polygon fill="#191970" stroke="#191970" points="394.7374,-86.0766 392.3908,-75.7449 387.7823,-85.2849 394.7374,-86.0766"/>
</g>
<!-- Node16 -->
<g id="node17" class="node">
<title>Node16</title>
<polygon fill="#ffffff" stroke="#bfbfbf" points="459,-56.5 459,-75.5 500,-75.5 500,-56.5 459,-56.5"/>
<text text-anchor="middle" x="479.5" y="-63.5" font-family="Helvetica,sans-Serif" font-size="10.00" fill="#000000">future</text>
</g>
<!-- Node12&#45;&gt;Node16 -->
<g id="edge16" class="edge">
<title>Node12&#45;&gt;Node16</title>
<path fill="none" stroke="#191970" d="M401.0313,-117.8906C415.9094,-108.0519 439.2504,-92.6167 456.6128,-81.1351"/>
<polygon fill="#191970" stroke="#191970" points="458.6602,-83.9773 465.0708,-75.5419 454.799,-78.1385 458.6602,-83.9773"/>
</g>
<!-- Node17 -->
<g id="node18" class="node">
<title>Node17</title>
<polygon fill="#ffffff" stroke="#bfbfbf" points="589.5,-56.5 589.5,-75.5 641.5,-75.5 641.5,-56.5 589.5,-56.5"/>
<text text-anchor="middle" x="615.5" y="-63.5" font-family="Helvetica,sans-Serif" font-size="10.00" fill="#000000">memory</text>
</g>
<!-- Node12&#45;&gt;Node17 -->
<g id="edge17" class="edge">
<title>Node12&#45;&gt;Node17</title>
<path fill="none" stroke="#191970" d="M422.2813,-117.8906C465.1375,-106.3812 536.5105,-87.2133 579.4747,-75.6749"/>
<polygon fill="#191970" stroke="#191970" points="580.4808,-79.0288 589.2308,-73.0548 578.6652,-72.2684 580.4808,-79.0288"/>
</g>
<!-- Node18 -->
<g id="node19" class="node">
<title>Node18</title>
<g id="a_node19"><a xlink:href="_base_pool_8h.html" target="_top" xlink:title="BasePool.h">
<polygon fill="#ffffff" stroke="#000000" points="198,-56.5 198,-75.5 265,-75.5 265,-56.5 198,-56.5"/>
<text text-anchor="middle" x="231.5" y="-63.5" font-family="Helvetica,sans-Serif" font-size="10.00" fill="#000000">BasePool.h</text>
</a>
</g>
</g>
<!-- Node12&#45;&gt;Node18 -->
<g id="edge19" class="edge">
<title>Node12&#45;&gt;Node18</title>
<path fill="none" stroke="#191970" d="M362.2813,-117.8906C336.1194,-107.5103 294.2571,-90.9004 264.9612,-79.2766"/>
<polygon fill="#191970" stroke="#191970" points="266.1346,-75.9767 255.5487,-75.5419 263.5529,-82.4833 266.1346,-75.9767"/>
</g>
<!-- Node19 -->
<g id="node20" class="node">
<title>Node19</title>
<polygon fill="#ffffff" stroke="#bfbfbf" points="210,-.5 210,-19.5 253,-19.5 253,-.5 210,-.5"/>
<text text-anchor="middle" x="231.5" y="-7.5" font-family="Helvetica,sans-Serif" font-size="10.00" fill="#000000">queue</text>
</g>
<!-- Node18&#45;&gt;Node19 -->
<g id="edge20" class="edge">
<title>Node18&#45;&gt;Node19</title>
<path fill="none" stroke="#191970" d="M231.5,-56.2455C231.5,-48.9382 231.5,-38.6944 231.5,-29.7046"/>
<polygon fill="#191970" stroke="#191970" points="235.0001,-29.6426 231.5,-19.6427 228.0001,-29.6427 235.0001,-29.6426"/>
</g>
<!-- Node20 -->
<g id="node21" class="node">
<title>Node20</title>
<polygon fill="#ffffff" stroke="#bfbfbf" points="480,-.5 480,-19.5 539,-19.5 539,-.5 480,-.5"/>
<text text-anchor="middle" x="509.5" y="-7.5" font-family="Helvetica,sans-Serif" font-size="10.00" fill="#000000">functional</text>
</g>
<!-- Node18&#45;&gt;Node20 -->
<g id="edge21" class="edge">
<title>Node18&#45;&gt;Node20</title>
<path fill="none" stroke="#191970" d="M265.276,-58.0268C268.3913,-57.3272 271.5021,-56.6418 274.5,-56 342.9061,-41.3555 422.9188,-26.0881 469.7237,-17.3441"/>
<polygon fill="#191970" stroke="#191970" points="470.5644,-20.7478 479.754,-15.4752 469.2821,-13.8662 470.5644,-20.7478"/>
</g>
<!-- Node21&#45;&gt;Node12 -->
<g id="edge23" class="edge">
<title>Node21&#45;&gt;Node12</title>
<path fill="none" stroke="#191970" d="M386.5,-179.3906C386.5,-170.8657 386.5,-158.1392 386.5,-147.4235"/>
<polygon fill="#191970" stroke="#191970" points="390.0001,-147.2448 386.5,-137.2449 383.0001,-147.2449 390.0001,-147.2448"/>
</g>
<!-- Node22&#45;&gt;Node11 -->
<g id="edge27" class="edge">
<title>Node22&#45;&gt;Node11</title>
<path fill="none" stroke="#191970" d="M344.6941,-235.2455C331.7744,-226.7337 312.8069,-214.2375 297.8448,-204.3801"/>
<polygon fill="#191970" stroke="#191970" points="299.4124,-201.2216 289.1362,-198.6427 295.5613,-207.067 299.4124,-201.2216"/>
</g>
<!-- Node23 -->
<g id="node24" class="node">
<title>Node23</title>
<g id="a_node24"><a xlink:href="_multithreading_8hpp.html" target="_top" xlink:title="kryne&#45;engine/Utils\l/Multithreading.hpp">
<polygon fill="#ffffff" stroke="#000000" points="463,-112.5 463,-142.5 562,-142.5 562,-112.5 463,-112.5"/>
<text text-anchor="start" x="471" y="-130.5" font-family="Helvetica,sans-Serif" font-size="10.00" fill="#000000">kryne&#45;engine/Utils</text>
<text text-anchor="middle" x="512.5" y="-119.5" font-family="Helvetica,sans-Serif" font-size="10.00" fill="#000000">/Multithreading.hpp</text>
</a>
</g>
</g>
<!-- Node22&#45;&gt;Node23 -->
<g id="edge25" class="edge">
<title>Node22&#45;&gt;Node23</title>
<path fill="none" stroke="#191970" d="M376.8222,-235.418C392.1952,-226.6408 415.0176,-212.9308 433.5,-199 453.6273,-183.8294 474.708,-164.5537 490.0258,-149.84"/>
<polygon fill="#191970" stroke="#191970" points="492.7386,-152.0844 497.4752,-142.6073 487.8624,-147.0621 492.7386,-152.0844"/>
</g>
<!-- Node23&#45;&gt;Node14 -->
<g id="edge26" class="edge">
<title>Node23&#45;&gt;Node14</title>
<path fill="none" stroke="#191970" d="M519.4214,-112.2977C523.1461,-104.1166 527.778,-93.943 531.7504,-85.2179"/>
<polygon fill="#191970" stroke="#191970" points="535.0586,-86.3983 536.0168,-75.8469 528.6878,-83.4978 535.0586,-86.3983"/>
</g>
<!-- Node24&#45;&gt;Node1 -->
<g id="edge34" class="edge">
<title>Node24&#45;&gt;Node1</title>
<path fill="none" stroke="#191970" d="M568.3431,-369.5252C495.8052,-362.877 352.734,-347.6446 233.5,-322 229.3038,-321.0975 224.9541,-320.0253 220.6385,-318.8723"/>
<polygon fill="#191970" stroke="#191970" points="221.2932,-315.4206 210.7187,-316.0774 219.3948,-322.1582 221.2932,-315.4206"/>
</g>
<!-- Node24&#45;&gt;Node2 -->
<g id="edge35" class="edge">
<title>Node24&#45;&gt;Node2</title>
<path fill="none" stroke="#191970" d="M662.7324,-371.0431C768.3573,-365.138 1020.7173,-348.6323 1101.5,-322 1157.3143,-303.5993 1179.4732,-301.4317 1215.5,-255 1225.8817,-241.6199 1230.5921,-222.7709 1232.7286,-208.64"/>
<polygon fill="#191970" stroke="#191970" points="1236.2273,-208.8605 1233.9494,-198.5134 1229.2776,-208.0226 1236.2273,-208.8605"/>
</g>
<!-- Node24&#45;&gt;Node6 -->
<g id="edge31" class="edge">
<title>Node24&#45;&gt;Node6</title>
<path fill="none" stroke="#191970" d="M568.2888,-371.4269C504.3011,-367.401 387.2692,-355.6947 293.5,-322 279.6733,-317.0316 187.6825,-267.2029 179.5,-255 144.1874,-202.3368 146.5733,-122.8438 150.0351,-86.0249"/>
<polygon fill="#191970" stroke="#191970" points="153.5605,-85.9753 151.1504,-75.6582 146.6007,-85.2264 153.5605,-85.9753"/>
</g>
<!-- Node24&#45;&gt;Node10 -->
<g id="edge37" class="edge">
<title>Node24&#45;&gt;Node10</title>
<path fill="none" stroke="#191970" d="M579.0933,-363.9717C539.4461,-353.5953 475.1787,-336.7753 426.3892,-324.0062"/>
<polygon fill="#191970" stroke="#191970" points="427.0993,-320.5742 416.5389,-321.4281 425.3269,-327.3461 427.0993,-320.5742"/>
</g>
<!-- Node24&#45;&gt;Node17 -->
<g id="edge30" class="edge">
<title>Node24&#45;&gt;Node17</title>
<path fill="none" stroke="#191970" d="M621.383,-363.908C633.5807,-343.0766 660.5,-291.8021 660.5,-245 660.5,-245 660.5,-245 660.5,-189 660.5,-150.0036 640.3042,-108.0545 626.9718,-84.6102"/>
<polygon fill="#191970" stroke="#191970" points="629.8485,-82.5977 621.7571,-75.7582 623.8172,-86.1508 629.8485,-82.5977"/>
</g>
<!-- Node24&#45;&gt;Node20 -->
<g id="edge33" class="edge">
<title>Node24&#45;&gt;Node20</title>
<path fill="none" stroke="#191970" d="M627.3919,-363.9104C650.3421,-344.238 698.5,-296.7883 698.5,-245 698.5,-245 698.5,-245 698.5,-127.5 698.5,-57.6642 604.281,-27.8689 548.8905,-16.3866"/>
<polygon fill="#191970" stroke="#191970" points="549.5183,-12.9431 539.0313,-14.4502 548.1692,-19.8119 549.5183,-12.9431"/>
</g>
<!-- Node25 -->
<g id="node26" class="node">
<title>Node25</title>
<polygon fill="#ffffff" stroke="#bfbfbf" points="452.5,-297 452.5,-316 508.5,-316 508.5,-297 452.5,-297"/>
<text text-anchor="middle" x="480.5" y="-304" font-family="Helvetica,sans-Serif" font-size="10.00" fill="#000000">algorithm</text>
</g>
<!-- Node24&#45;&gt;Node25 -->
<g id="edge29" class="edge">
<title>Node24&#45;&gt;Node25</title>
<path fill="none" stroke="#191970" d="M596.1578,-363.9005C573.3013,-352.5569 535.073,-333.5844 508.8666,-320.5783"/>
<polygon fill="#191970" stroke="#191970" points="510.3198,-317.3922 499.8063,-316.0817 507.2079,-323.6624 510.3198,-317.3922"/>
</g>
<!-- Node26 -->
<g id="node27" class="node">
<title>Node26</title>
<polygon fill="#ffffff" stroke="#bfbfbf" points="727,-297 727,-316 810,-316 810,-297 727,-297"/>
<text text-anchor="middle" x="768.5" y="-304" font-family="Helvetica,sans-Serif" font-size="10.00" fill="#000000">unordered_map</text>
</g>
<!-- Node24&#45;&gt;Node26 -->
<g id="edge32" class="edge">
<title>Node24&#45;&gt;Node26</title>
<path fill="none" stroke="#191970" d="M637.4212,-363.9005C663.5525,-352.4574 707.4121,-333.2509 737.1296,-320.2374"/>
<polygon fill="#191970" stroke="#191970" points="738.8633,-323.2991 746.6195,-316.0817 736.0553,-316.887 738.8633,-323.2991"/>
</g>
<!-- Node27 -->
<g id="node28" class="node">
<title>Node27</title>
<polygon fill="#ffffff" stroke="#bfbfbf" points="828,-297 828,-316 925,-316 925,-297 828,-297"/>
<text text-anchor="middle" x="876.5" y="-304" font-family="Helvetica,sans-Serif" font-size="10.00" fill="#000000">glm/geometric.hpp</text>
</g>
<!-- Node24&#45;&gt;Node27 -->
<g id="edge36" class="edge">
<title>Node24&#45;&gt;Node27</title>
<path fill="none" stroke="#191970" d="M654.2826,-363.9326C695.3613,-353.7465 762.0827,-337.0529 819.5,-322 823.5734,-320.9321 827.8065,-319.808 832.0434,-318.6732"/>
<polygon fill="#191970" stroke="#191970" points="833.1177,-322.0086 841.8627,-316.0273 831.2965,-315.2497 833.1177,-322.0086"/>
</g>
<!-- Node28 -->
<g id="node29" class="node">
<title>Node28</title>
<g id="a_node29"><a xlink:href="_sphere_8hpp.html" target="_top" xlink:title="kryne&#45;engine/Math/Sphere.hpp">
<polygon fill="#ffffff" stroke="#000000" points="943,-297 943,-316 1092,-316 1092,-297 943,-297"/>
<text text-anchor="middle" x="1017.5" y="-304" font-family="Helvetica,sans-Serif" font-size="10.00" fill="#000000">kryne&#45;engine/Math/Sphere.hpp</text>
</a>
</g>
</g>
<!-- Node24&#45;&gt;Node28 -->
<g id="edge38" class="edge">
<title>Node24&#45;&gt;Node28</title>
<path fill="none" stroke="#191970" d="M662.5843,-366.2688C724.8749,-356.6176 838.0574,-338.7875 934.5,-322 941.9307,-320.7066 949.7273,-319.3069 957.4426,-317.896"/>
<polygon fill="#191970" stroke="#191970" points="958.3005,-321.2969 967.5007,-316.0427 957.032,-314.4128 958.3005,-321.2969"/>
</g>
<!-- Node34 -->
<g id="node35" class="node">
<title>Node34</title>
<g id="a_node35"><a xlink:href="_buffer_attribute_8h.html" target="_top" xlink:title="BufferAttribute.h">
<polygon fill="#ffffff" stroke="#000000" points="526.5,-297 526.5,-316 614.5,-316 614.5,-297 526.5,-297"/>
<text text-anchor="middle" x="570.5" y="-304" font-family="Helvetica,sans-Serif" font-size="10.00" fill="#000000">BufferAttribute.h</text>
</a>
</g>
</g>
<!-- Node24&#45;&gt;Node34 -->
<g id="edge45" class="edge">
<title>Node24&#45;&gt;Node34</title>
<path fill="none" stroke="#191970" d="M609.0526,-363.9005C602.1689,-353.6515 591.1024,-337.1747 582.588,-324.4976"/>
<polygon fill="#191970" stroke="#191970" points="585.4165,-322.4316 576.9354,-316.0817 579.6056,-326.3345 585.4165,-322.4316"/>
</g>
<!-- Node29 -->
<g id="node30" class="node">
<title>Node29</title>
<polygon fill="#ffffff" stroke="#bfbfbf" points="726.5,-235.5 726.5,-254.5 812.5,-254.5 812.5,-235.5 726.5,-235.5"/>
<text text-anchor="middle" x="769.5" y="-242.5" font-family="Helvetica,sans-Serif" font-size="10.00" fill="#000000">glm/mat4x4.hpp</text>
</g>
<!-- Node28&#45;&gt;Node29 -->
<g id="edge39" class="edge">
<title>Node28&#45;&gt;Node29</title>
<path fill="none" stroke="#191970" d="M979.0221,-296.9581C935.6731,-286.2082 865.1361,-268.7162 818.0373,-257.0365"/>
<polygon fill="#191970" stroke="#191970" points="818.6166,-253.5742 808.0682,-254.5643 816.9317,-260.3684 818.6166,-253.5742"/>
</g>
<!-- Node30 -->
<g id="node31" class="node">
<title>Node30</title>
<polygon fill="#ffffff" stroke="#bfbfbf" points="952.5,-235.5 952.5,-254.5 1044.5,-254.5 1044.5,-235.5 952.5,-235.5"/>
<text text-anchor="middle" x="998.5" y="-242.5" font-family="Helvetica,sans-Serif" font-size="10.00" fill="#000000">glm/gtx/norm.hpp</text>
</g>
<!-- Node28&#45;&gt;Node30 -->
<g id="edge40" class="edge">
<title>Node28&#45;&gt;Node30</title>
<path fill="none" stroke="#191970" d="M1014.5313,-296.8906C1011.8698,-288.276 1007.8829,-275.3708 1004.5509,-264.5858"/>
<polygon fill="#191970" stroke="#191970" points="1007.8065,-263.2661 1001.5106,-254.7449 1001.1184,-265.3324 1007.8065,-263.2661"/>
</g>
<!-- Node31 -->
<g id="node32" class="node">
<title>Node31</title>
<polygon fill="#ffffff" stroke="#bfbfbf" points="1062.5,-235.5 1062.5,-254.5 1206.5,-254.5 1206.5,-235.5 1062.5,-235.5"/>
<text text-anchor="middle" x="1134.5" y="-242.5" font-family="Helvetica,sans-Serif" font-size="10.00" fill="#000000">glm/gtx/component_wise.hpp</text>
</g>
<!-- Node28&#45;&gt;Node31 -->
<g id="edge41" class="edge">
<title>Node28&#45;&gt;Node31</title>
<path fill="none" stroke="#191970" d="M1035.7813,-296.8906C1055.0141,-286.7811 1085.4879,-270.7628 1107.4925,-259.1962"/>
<polygon fill="#191970" stroke="#191970" points="1109.124,-262.2928 1116.3471,-254.5419 1105.867,-256.0967 1109.124,-262.2928"/>
</g>
<!-- Node32 -->
<g id="node33" class="node">
<title>Node32</title>
<g id="a_node33"><a xlink:href="_axis_aligned_box_8hpp.html" target="_top" xlink:title="AxisAlignedBox.hpp">
<polygon fill="#ffffff" stroke="#000000" points="830.5,-235.5 830.5,-254.5 934.5,-254.5 934.5,-235.5 830.5,-235.5"/>
<text text-anchor="middle" x="882.5" y="-242.5" font-family="Helvetica,sans-Serif" font-size="10.00" fill="#000000">AxisAlignedBox.hpp</text>
</a>
</g>
</g>
<!-- Node28&#45;&gt;Node32 -->
<g id="edge42" class="edge">
<title>Node28&#45;&gt;Node32</title>
<path fill="none" stroke="#191970" d="M996.4063,-296.8906C973.9173,-286.6457 938.1082,-270.3326 912.6476,-258.7339"/>
<polygon fill="#191970" stroke="#191970" points="913.9968,-255.5025 903.4456,-254.5419 911.0948,-261.8727 913.9968,-255.5025"/>
</g>
<!-- Node32&#45;&gt;Node2 -->
<g id="edge43" class="edge">
<title>Node32&#45;&gt;Node2</title>
<path fill="none" stroke="#191970" d="M934.7402,-236.4159C937.7035,-235.9352 940.6393,-235.4606 943.5,-235 1029.2477,-221.1943 1129.2728,-205.4648 1186.9088,-196.4376"/>
<polygon fill="#191970" stroke="#191970" points="1187.4814,-199.8907 1196.8197,-194.886 1186.3987,-192.9749 1187.4814,-199.8907"/>
</g>
<!-- Node33 -->
<g id="node34" class="node">
<title>Node33</title>
<polygon fill="#ffffff" stroke="#bfbfbf" points="836.5,-179.5 836.5,-198.5 928.5,-198.5 928.5,-179.5 836.5,-179.5"/>
<text text-anchor="middle" x="882.5" y="-186.5" font-family="Helvetica,sans-Serif" font-size="10.00" fill="#000000">glm/common.hpp</text>
</g>
<!-- Node32&#45;&gt;Node33 -->
<g id="edge44" class="edge">
<title>Node32&#45;&gt;Node33</title>
<path fill="none" stroke="#191970" d="M882.5,-235.2455C882.5,-227.9382 882.5,-217.6944 882.5,-208.7046"/>
<polygon fill="#191970" stroke="#191970" points="886.0001,-208.6426 882.5,-198.6427 879.0001,-208.6427 886.0001,-208.6426"/>
</g>
<!-- Node34&#45;&gt;Node8 -->
<g id="edge46" class="edge">
<title>Node34&#45;&gt;Node8</title>
<path fill="none" stroke="#191970" d="M540.4134,-296.9324C532.9748,-294.7803 524.9902,-292.6484 517.5,-291 418.3584,-269.1811 298.9077,-254.5668 242.7069,-248.3674"/>
<polygon fill="#191970" stroke="#191970" points="242.971,-244.8755 232.6512,-247.2739 242.2142,-251.8345 242.971,-244.8755"/>
</g>
<!-- Node35 -->
<g id="node36" class="node">
<title>Node35</title>
<polygon fill="#ffffff" stroke="#bfbfbf" points="509,-235.5 509,-254.5 550,-254.5 550,-235.5 509,-235.5"/>
<text text-anchor="middle" x="529.5" y="-242.5" font-family="Helvetica,sans-Serif" font-size="10.00" fill="#000000">string</text>
</g>
<!-- Node34&#45;&gt;Node35 -->
<g id="edge47" class="edge">
<title>Node34&#45;&gt;Node35</title>
<path fill="none" stroke="#191970" d="M564.0938,-296.8906C558.1114,-287.917 549.0253,-274.2879 541.6661,-263.2491"/>
<polygon fill="#191970" stroke="#191970" points="544.4558,-261.1239 535.9966,-254.7449 538.6314,-265.0068 544.4558,-261.1239"/>
</g>
<!-- Node36 -->
<g id="node37" class="node">
<title>Node36</title>
<polygon fill="#ffffff" stroke="#bfbfbf" points="568.5,-235.5 568.5,-254.5 632.5,-254.5 632.5,-235.5 568.5,-235.5"/>
<text text-anchor="middle" x="600.5" y="-242.5" font-family="Helvetica,sans-Serif" font-size="10.00" fill="#000000">glad/glad.h</text>
</g>
<!-- Node34&#45;&gt;Node36 -->
<g id="edge48" class="edge">
<title>Node34&#45;&gt;Node36</title>
<path fill="none" stroke="#191970" d="M575.1875,-296.8906C579.4773,-288.0965 585.9482,-274.8312 591.2734,-263.9145"/>
<polygon fill="#191970" stroke="#191970" points="594.5078,-265.2671 595.7464,-254.7449 588.2164,-262.1981 594.5078,-265.2671"/>
</g>
<!-- Node37 -->
<g id="node38" class="node">
<title>Node37</title>
<polygon fill="#ffffff" stroke="#bfbfbf" points="410.5,-235.5 410.5,-254.5 490.5,-254.5 490.5,-235.5 410.5,-235.5"/>
<text text-anchor="middle" x="450.5" y="-242.5" font-family="Helvetica,sans-Serif" font-size="10.00" fill="#000000">GLFW/glfw3.h</text>
</g>
<!-- Node34&#45;&gt;Node37 -->
<g id="edge49" class="edge">
<title>Node34&#45;&gt;Node37</title>
<path fill="none" stroke="#191970" d="M551.75,-296.8906C532.024,-286.7811 500.7688,-270.7628 478.2,-259.1962"/>
<polygon fill="#191970" stroke="#191970" points="479.614,-255.9881 469.1183,-254.5419 476.4213,-262.2176 479.614,-255.9881"/>
</g>
</g>
</svg>
