<?xml version="1.0" encoding="UTF-8" standalone="no"?>
<!DOCTYPE svg PUBLIC "-//W3C//DTD SVG 1.1//EN"
 "http://www.w3.org/Graphics/SVG/1.1/DTD/svg11.dtd">
<!-- Generated by graphviz version 2.40.1 (20161225.0304)
 -->
<!-- Title: kryne&#45;engine/src/Geometry/BufferAttribute.cpp Pages: 1 -->
<svg width="292pt" height="162pt"
 viewBox="0.00 0.00 292.00 162.00" xmlns="http://www.w3.org/2000/svg" xmlns:xlink="http://www.w3.org/1999/xlink">
<g id="graph0" class="graph" transform="scale(1 1) rotate(0) translate(4 158)">
<title>kryne&#45;engine/src/Geometry/BufferAttribute.cpp</title>
<polygon fill="#ffffff" stroke="transparent" points="-4,4 -4,-158 288,-158 288,4 -4,4"/>
<!-- Node0 -->
<g id="node1" class="node">
<title>Node0</title>
<polygon fill="#bfbfbf" stroke="#000000" points="51,-123.5 51,-153.5 185,-153.5 185,-123.5 51,-123.5"/>
<text text-anchor="start" x="59" y="-141.5" font-family="Helvetica,sans-Serif" font-size="10.00" fill="#000000">kryne&#45;engine/src/Geometry</text>
<text text-anchor="middle" x="118" y="-130.5" font-family="Helvetica,sans-Serif" font-size="10.00" fill="#000000">/BufferAttribute.cpp</text>
</g>
<!-- Node1 -->
<g id="node2" class="node">
<title>Node1</title>
<g id="a_node2"><a xlink:href="_buffer_attribute_8h.html" target="_top" xlink:title="kryne&#45;engine/Geometry\l/BufferAttribute.h">
<polygon fill="#ffffff" stroke="#000000" points="59,-56.5 59,-86.5 177,-86.5 177,-56.5 59,-56.5"/>
<text text-anchor="start" x="67" y="-74.5" font-family="Helvetica,sans-Serif" font-size="10.00" fill="#000000">kryne&#45;engine/Geometry</text>
<text text-anchor="middle" x="118" y="-63.5" font-family="Helvetica,sans-Serif" font-size="10.00" fill="#000000">/BufferAttribute.h</text>
</a>
</g>
</g>
<!-- Node0&#45;&gt;Node1 -->
<g id="edge1" class="edge">
<title>Node0&#45;&gt;Node1</title>
<path fill="none" stroke="#191970" d="M118,-123.2967C118,-115.5013 118,-105.7991 118,-96.9064"/>
<polygon fill="#191970" stroke="#191970" points="121.5001,-96.6431 118,-86.6432 114.5001,-96.6432 121.5001,-96.6431"/>
</g>
<!-- Node2 -->
<g id="node3" class="node">
<title>Node2</title>
<polygon fill="#ffffff" stroke="#bfbfbf" points="0,-.5 0,-19.5 44,-19.5 44,-.5 0,-.5"/>
<text text-anchor="middle" x="22" y="-7.5" font-family="Helvetica,sans-Serif" font-size="10.00" fill="#000000">vector</text>
</g>
<!-- Node1&#45;&gt;Node2 -->
<g id="edge2" class="edge">
<title>Node1&#45;&gt;Node2</title>
<path fill="none" stroke="#191970" d="M94.2697,-56.2977C79.4638,-46.8127 60.4772,-34.6495 45.6807,-25.1705"/>
<polygon fill="#191970" stroke="#191970" points="47.3925,-22.1105 37.0841,-19.6633 43.6165,-28.0047 47.3925,-22.1105"/>
</g>
<!-- Node3 -->
<g id="node4" class="node">
<title>Node3</title>
<polygon fill="#ffffff" stroke="#bfbfbf" points="62.5,-.5 62.5,-19.5 103.5,-19.5 103.5,-.5 62.5,-.5"/>
<text text-anchor="middle" x="83" y="-7.5" font-family="Helvetica,sans-Serif" font-size="10.00" fill="#000000">string</text>
</g>
<!-- Node1&#45;&gt;Node3 -->
<g id="edge3" class="edge">
<title>Node1&#45;&gt;Node3</title>
<path fill="none" stroke="#191970" d="M109.3483,-56.2977C104.5912,-47.9388 98.6502,-37.4997 93.6143,-28.6509"/>
<polygon fill="#191970" stroke="#191970" points="96.5921,-26.8069 88.6039,-19.8469 90.5083,-30.2692 96.5921,-26.8069"/>
</g>
<!-- Node4 -->
<g id="node5" class="node">
<title>Node4</title>
<polygon fill="#ffffff" stroke="#bfbfbf" points="122,-.5 122,-19.5 186,-19.5 186,-.5 122,-.5"/>
<text text-anchor="middle" x="154" y="-7.5" font-family="Helvetica,sans-Serif" font-size="10.00" fill="#000000">glad/glad.h</text>
</g>
<!-- Node1&#45;&gt;Node4 -->
<g id="edge4" class="edge">
<title>Node1&#45;&gt;Node4</title>
<path fill="none" stroke="#191970" d="M126.8989,-56.2977C131.7919,-47.9388 137.9026,-37.4997 143.0824,-28.6509"/>
<polygon fill="#191970" stroke="#191970" points="146.2047,-30.2452 148.2359,-19.8469 140.1635,-26.7089 146.2047,-30.2452"/>
</g>
<!-- Node5 -->
<g id="node6" class="node">
<title>Node5</title>
<polygon fill="#ffffff" stroke="#bfbfbf" points="204,-.5 204,-19.5 284,-19.5 284,-.5 204,-.5"/>
<text text-anchor="middle" x="244" y="-7.5" font-family="Helvetica,sans-Serif" font-size="10.00" fill="#000000">GLFW/glfw3.h</text>
</g>
<!-- Node1&#45;&gt;Node5 -->
<g id="edge5" class="edge">
<title>Node1&#45;&gt;Node5</title>
<path fill="none" stroke="#191970" d="M148.8231,-56.4554C169.1088,-46.554 195.4788,-33.683 215.3162,-24.0004"/>
<polygon fill="#191970" stroke="#191970" points="217.023,-27.062 224.4745,-19.5303 213.9526,-20.7714 217.023,-27.062"/>
</g>
</g>
</svg>
