<?xml version="1.0" encoding="UTF-8" standalone="no"?>
<!DOCTYPE svg PUBLIC "-//W3C//DTD SVG 1.1//EN"
 "http://www.w3.org/Graphics/SVG/1.1/DTD/svg11.dtd">
<!-- Generated by graphviz version 2.44.1 (20200629.0846)
 -->
<!-- Title: kryne&#45;engine/include/kryne&#45;engine/Geometry/BufferAttribute.h Pages: 1 -->
<svg width="1277pt" height="507pt"
 viewBox="0.00 0.00 1277.00 507.00" xmlns="http://www.w3.org/2000/svg" xmlns:xlink="http://www.w3.org/1999/xlink">
<g id="graph0" class="graph" transform="scale(1 1) rotate(0) translate(4 503)">
<title>kryne&#45;engine/include/kryne&#45;engine/Geometry/BufferAttribute.h</title>
<polygon fill="white" stroke="transparent" points="-4,4 -4,-503 1273,-503 1273,4 -4,4"/>
<!-- Node1 -->
<g id="node1" class="node">
<title>Node1</title>
<g id="a_node1"><a xlink:title=" ">
<polygon fill="#bfbfbf" stroke="black" points="128.5,-457.5 128.5,-498.5 249.5,-498.5 249.5,-457.5 128.5,-457.5"/>
<text text-anchor="start" x="136.5" y="-486.5" font-family="Helvetica,sans-Serif" font-size="10.00">kryne&#45;engine/include</text>
<text text-anchor="start" x="136.5" y="-475.5" font-family="Helvetica,sans-Serif" font-size="10.00">/kryne&#45;engine/Geometry</text>
<text text-anchor="middle" x="189" y="-464.5" font-family="Helvetica,sans-Serif" font-size="10.00">/BufferAttribute.h</text>
</a>
</g>
</g>
<!-- Node2 -->
<g id="node2" class="node">
<title>Node2</title>
<g id="a_node2"><a xlink:href="_geometry_8h.html" target="_top" xlink:title=" ">
<polygon fill="white" stroke="black" points="0,-229 0,-259 124,-259 124,-229 0,-229"/>
<text text-anchor="start" x="8" y="-247" font-family="Helvetica,sans-Serif" font-size="10.00">kryne&#45;engine/include</text>
<text text-anchor="middle" x="62" y="-236" font-family="Helvetica,sans-Serif" font-size="10.00">/KEModules/Geometry.h</text>
</a>
</g>
</g>
<!-- Node1&#45;&gt;Node2 -->
<g id="edge1" class="edge">
<title>Node1&#45;&gt;Node2</title>
<path fill="none" stroke="midnightblue" d="M149.48,-451.05C138.55,-442.47 127.4,-432.22 119,-421 80.5,-369.58 67.37,-291.08 63.46,-259.2"/>
<polygon fill="midnightblue" stroke="midnightblue" points="147.65,-454.06 157.74,-457.28 151.86,-448.47 147.65,-454.06"/>
</g>
<!-- Node3 -->
<g id="node3" class="node">
<title>Node3</title>
<g id="a_node3"><a xlink:href="_buffer_geometry_8h.html" target="_top" xlink:title=" ">
<polygon fill="white" stroke="black" points="128.5,-379.5 128.5,-420.5 249.5,-420.5 249.5,-379.5 128.5,-379.5"/>
<text text-anchor="start" x="136.5" y="-408.5" font-family="Helvetica,sans-Serif" font-size="10.00">kryne&#45;engine/include</text>
<text text-anchor="start" x="136.5" y="-397.5" font-family="Helvetica,sans-Serif" font-size="10.00">/kryne&#45;engine/Geometry</text>
<text text-anchor="middle" x="189" y="-386.5" font-family="Helvetica,sans-Serif" font-size="10.00">/BufferGeometry.h</text>
</a>
</g>
</g>
<!-- Node1&#45;&gt;Node3 -->
<g id="edge2" class="edge">
<title>Node1&#45;&gt;Node3</title>
<path fill="none" stroke="midnightblue" d="M189,-447.3C189,-438.3 189,-428.65 189,-420.51"/>
<polygon fill="midnightblue" stroke="midnightblue" points="185.5,-447.43 189,-457.43 192.5,-447.43 185.5,-447.43"/>
</g>
<!-- Node24 -->
<g id="node24" class="node">
<title>Node24</title>
<g id="a_node24"><a xlink:href="_buffer_attribute_8cpp.html" target="_top" xlink:title=" ">
<polygon fill="white" stroke="black" points="268,-385 268,-415 402,-415 402,-385 268,-385"/>
<text text-anchor="start" x="276" y="-403" font-family="Helvetica,sans-Serif" font-size="10.00">kryne&#45;engine/src/Geometry</text>
<text text-anchor="middle" x="335" y="-392" font-family="Helvetica,sans-Serif" font-size="10.00">/BufferAttribute.cpp</text>
</a>
</g>
</g>
<!-- Node1&#45;&gt;Node24 -->
<g id="edge29" class="edge">
<title>Node1&#45;&gt;Node24</title>
<path fill="none" stroke="midnightblue" d="M235.48,-452.81C259.26,-440.43 287.4,-425.78 307.67,-415.23"/>
<polygon fill="midnightblue" stroke="midnightblue" points="233.85,-449.71 226.6,-457.43 237.08,-455.92 233.85,-449.71"/>
</g>
<!-- Node3&#45;&gt;Node2 -->
<g id="edge3" class="edge">
<title>Node3&#45;&gt;Node2</title>
<path fill="none" stroke="midnightblue" d="M151.62,-373.23C140.36,-364.43 128.49,-354 119,-343 96,-316.31 77.29,-279.03 68.12,-259.02"/>
<polygon fill="midnightblue" stroke="midnightblue" points="149.59,-376.08 159.67,-379.34 153.82,-370.51 149.59,-376.08"/>
</g>
<!-- Node4 -->
<g id="node4" class="node">
<title>Node4</title>
<g id="a_node4"><a xlink:href="_box_buffer_geometry_8h.html" target="_top" xlink:title=" ">
<polygon fill="white" stroke="black" points="128.5,-301.5 128.5,-342.5 249.5,-342.5 249.5,-301.5 128.5,-301.5"/>
<text text-anchor="start" x="136.5" y="-330.5" font-family="Helvetica,sans-Serif" font-size="10.00">kryne&#45;engine/include</text>
<text text-anchor="start" x="136.5" y="-319.5" font-family="Helvetica,sans-Serif" font-size="10.00">/kryne&#45;engine/Geometry</text>
<text text-anchor="middle" x="189" y="-308.5" font-family="Helvetica,sans-Serif" font-size="10.00">/BoxBufferGeometry.h</text>
</a>
</g>
</g>
<!-- Node3&#45;&gt;Node4 -->
<g id="edge4" class="edge">
<title>Node3&#45;&gt;Node4</title>
<path fill="none" stroke="midnightblue" d="M189,-369.3C189,-360.3 189,-350.65 189,-342.51"/>
<polygon fill="midnightblue" stroke="midnightblue" points="185.5,-369.43 189,-379.43 192.5,-369.43 185.5,-369.43"/>
</g>
<!-- Node6 -->
<g id="node6" class="node">
<title>Node6</title>
<g id="a_node6"><a xlink:href="_shader_program_compiler_8h.html" target="_top" xlink:title=" ">
<polygon fill="white" stroke="black" points="268,-301.5 268,-342.5 402,-342.5 402,-301.5 268,-301.5"/>
<text text-anchor="start" x="276" y="-330.5" font-family="Helvetica,sans-Serif" font-size="10.00">kryne&#45;engine/include</text>
<text text-anchor="start" x="276" y="-319.5" font-family="Helvetica,sans-Serif" font-size="10.00">/kryne&#45;engine/Rendering</text>
<text text-anchor="middle" x="335" y="-308.5" font-family="Helvetica,sans-Serif" font-size="10.00">/ShaderProgramCompiler.h</text>
</a>
</g>
</g>
<!-- Node3&#45;&gt;Node6 -->
<g id="edge7" class="edge">
<title>Node3&#45;&gt;Node6</title>
<path fill="none" stroke="midnightblue" d="M235.55,-374.77C255.56,-364.35 278.64,-352.34 297.53,-342.51"/>
<polygon fill="midnightblue" stroke="midnightblue" points="233.85,-371.71 226.6,-379.43 237.08,-377.92 233.85,-371.71"/>
</g>
<!-- Node23 -->
<g id="node23" class="node">
<title>Node23</title>
<g id="a_node23"><a xlink:href="_buffer_geometry_8cpp.html" target="_top" xlink:title=" ">
<polygon fill="white" stroke="black" points="420,-307 420,-337 554,-337 554,-307 420,-307"/>
<text text-anchor="start" x="428" y="-325" font-family="Helvetica,sans-Serif" font-size="10.00">kryne&#45;engine/src/Geometry</text>
<text text-anchor="middle" x="487" y="-314" font-family="Helvetica,sans-Serif" font-size="10.00">/BufferGeometry.cpp</text>
</a>
</g>
</g>
<!-- Node3&#45;&gt;Node23 -->
<g id="edge28" class="edge">
<title>Node3&#45;&gt;Node23</title>
<path fill="none" stroke="midnightblue" d="M259.62,-378.89C327.84,-361.28 346.67,-359.08 411,-343 418.54,-341.11 426.5,-339.08 434.3,-337.05"/>
<polygon fill="midnightblue" stroke="midnightblue" points="258.46,-375.58 249.66,-381.49 260.22,-382.36 258.46,-375.58"/>
</g>
<!-- Node4&#45;&gt;Node2 -->
<g id="edge5" class="edge">
<title>Node4&#45;&gt;Node2</title>
<path fill="none" stroke="midnightblue" d="M147.47,-296.15C127.02,-283.91 103.1,-269.59 85.77,-259.23"/>
<polygon fill="midnightblue" stroke="midnightblue" points="145.92,-299.3 156.29,-301.43 149.51,-293.29 145.92,-299.3"/>
</g>
<!-- Node5 -->
<g id="node5" class="node">
<title>Node5</title>
<g id="a_node5"><a xlink:href="_box_buffer_geometry_8cpp.html" target="_top" xlink:title=" ">
<polygon fill="white" stroke="black" points="142,-229 142,-259 276,-259 276,-229 142,-229"/>
<text text-anchor="start" x="150" y="-247" font-family="Helvetica,sans-Serif" font-size="10.00">kryne&#45;engine/src/Geometry</text>
<text text-anchor="middle" x="209" y="-236" font-family="Helvetica,sans-Serif" font-size="10.00">/BoxBufferGeometry.cpp</text>
</a>
</g>
</g>
<!-- Node4&#45;&gt;Node5 -->
<g id="edge6" class="edge">
<title>Node4&#45;&gt;Node5</title>
<path fill="none" stroke="midnightblue" d="M196.73,-291.62C199.66,-280.5 202.86,-268.34 205.26,-259.23"/>
<polygon fill="midnightblue" stroke="midnightblue" points="193.31,-290.87 194.15,-301.43 200.08,-292.65 193.31,-290.87"/>
</g>
<!-- Node7 -->
<g id="node7" class="node">
<title>Node7</title>
<g id="a_node7"><a xlink:href="_rendering_8h.html" target="_top" xlink:title=" ">
<polygon fill="white" stroke="black" points="241.5,-0.5 241.5,-30.5 366.5,-30.5 366.5,-0.5 241.5,-0.5"/>
<text text-anchor="start" x="249.5" y="-18.5" font-family="Helvetica,sans-Serif" font-size="10.00">kryne&#45;engine/include</text>
<text text-anchor="middle" x="304" y="-7.5" font-family="Helvetica,sans-Serif" font-size="10.00">/KEModules/Rendering.h</text>
</a>
</g>
</g>
<!-- Node6&#45;&gt;Node7 -->
<g id="edge8" class="edge">
<title>Node6&#45;&gt;Node7</title>
<path fill="none" stroke="midnightblue" d="M331.97,-291.23C325.43,-227 310.2,-77.42 305.45,-30.7"/>
<polygon fill="midnightblue" stroke="midnightblue" points="328.52,-291.89 333.01,-301.49 335.48,-291.19 328.52,-291.89"/>
</g>
<!-- Node8 -->
<g id="node8" class="node">
<title>Node8</title>
<g id="a_node8"><a xlink:href="kryne-engine_2_material_2_material_8h.html" target="_top" xlink:title=" ">
<polygon fill="white" stroke="black" points="640.5,-223.5 640.5,-264.5 753.5,-264.5 753.5,-223.5 640.5,-223.5"/>
<text text-anchor="start" x="648.5" y="-252.5" font-family="Helvetica,sans-Serif" font-size="10.00">kryne&#45;engine/include</text>
<text text-anchor="start" x="648.5" y="-241.5" font-family="Helvetica,sans-Serif" font-size="10.00">/kryne&#45;engine/Material</text>
<text text-anchor="middle" x="697" y="-230.5" font-family="Helvetica,sans-Serif" font-size="10.00">/Material.h</text>
</a>
</g>
</g>
<!-- Node6&#45;&gt;Node8 -->
<g id="edge9" class="edge">
<title>Node6&#45;&gt;Node8</title>
<path fill="none" stroke="midnightblue" d="M411.9,-300.86C496.96,-281.57 584.62,-265.06 640.34,-254.99"/>
<polygon fill="midnightblue" stroke="midnightblue" points="411.05,-297.46 402.08,-303.1 412.61,-304.29 411.05,-297.46"/>
</g>
<!-- Node22 -->
<g id="node22" class="node">
<title>Node22</title>
<g id="a_node22"><a xlink:href="_shader_program_compiler_8cpp.html" target="_top" xlink:title=" ">
<polygon fill="white" stroke="black" points="772,-229 772,-259 916,-259 916,-229 772,-229"/>
<text text-anchor="start" x="780" y="-247" font-family="Helvetica,sans-Serif" font-size="10.00">kryne&#45;engine/src/Rendering</text>
<text text-anchor="middle" x="844" y="-236" font-family="Helvetica,sans-Serif" font-size="10.00">/ShaderProgramCompiler.cpp</text>
</a>
</g>
</g>
<!-- Node6&#45;&gt;Node22 -->
<g id="edge27" class="edge">
<title>Node6&#45;&gt;Node22</title>
<path fill="none" stroke="midnightblue" d="M411.93,-300.99C567.51,-273.66 611.24,-291.36 763,-265 772.28,-263.39 782.06,-261.31 791.51,-259.1"/>
<polygon fill="midnightblue" stroke="midnightblue" points="411.24,-297.55 402.01,-302.76 412.47,-304.44 411.24,-297.55"/>
</g>
<!-- Node9 -->
<g id="node9" class="node">
<title>Node9</title>
<g id="a_node9"><a xlink:href="_k_e_modules_2_material_8h.html" target="_top" xlink:title=" ">
<polygon fill="white" stroke="black" points="744,-0.5 744,-30.5 860,-30.5 860,-0.5 744,-0.5"/>
<text text-anchor="start" x="752" y="-18.5" font-family="Helvetica,sans-Serif" font-size="10.00">kryne&#45;engine/include</text>
<text text-anchor="middle" x="802" y="-7.5" font-family="Helvetica,sans-Serif" font-size="10.00">/KEModules/Material.h</text>
</a>
</g>
</g>
<!-- Node8&#45;&gt;Node9 -->
<g id="edge10" class="edge">
<title>Node8&#45;&gt;Node9</title>
<path fill="none" stroke="midnightblue" d="M712.09,-214.36C726.1,-187.43 747.24,-145.85 764,-109 776.43,-81.66 789.41,-49.03 796.53,-30.74"/>
<polygon fill="midnightblue" stroke="midnightblue" points="708.98,-212.76 707.45,-223.24 715.18,-216 708.98,-212.76"/>
</g>
<!-- Node10 -->
<g id="node10" class="node">
<title>Node10</title>
<g id="a_node10"><a xlink:href="_mesh_8h.html" target="_top" xlink:title=" ">
<polygon fill="white" stroke="black" points="549,-145.5 549,-186.5 673,-186.5 673,-145.5 549,-145.5"/>
<text text-anchor="start" x="557" y="-174.5" font-family="Helvetica,sans-Serif" font-size="10.00">kryne&#45;engine/include</text>
<text text-anchor="start" x="557" y="-163.5" font-family="Helvetica,sans-Serif" font-size="10.00">/kryne&#45;engine/3DObjects</text>
<text text-anchor="middle" x="611" y="-152.5" font-family="Helvetica,sans-Serif" font-size="10.00">/Mesh.h</text>
</a>
</g>
</g>
<!-- Node8&#45;&gt;Node10 -->
<g id="edge11" class="edge">
<title>Node8&#45;&gt;Node10</title>
<path fill="none" stroke="midnightblue" d="M667.33,-216.78C656.09,-206.84 643.49,-195.72 633.07,-186.51"/>
<polygon fill="midnightblue" stroke="midnightblue" points="665.04,-219.43 674.85,-223.43 669.68,-214.18 665.04,-219.43"/>
</g>
<!-- Node15 -->
<g id="node15" class="node">
<title>Node15</title>
<g id="a_node15"><a xlink:href="_mesh_material_common_8h.html" target="_top" xlink:title=" ">
<polygon fill="white" stroke="black" points="829.5,-145.5 829.5,-186.5 954.5,-186.5 954.5,-145.5 829.5,-145.5"/>
<text text-anchor="start" x="837.5" y="-174.5" font-family="Helvetica,sans-Serif" font-size="10.00">kryne&#45;engine/include</text>
<text text-anchor="start" x="837.5" y="-163.5" font-family="Helvetica,sans-Serif" font-size="10.00">/kryne&#45;engine/Material</text>
<text text-anchor="middle" x="892" y="-152.5" font-family="Helvetica,sans-Serif" font-size="10.00">/MeshMaterialCommon.h</text>
</a>
</g>
</g>
<!-- Node8&#45;&gt;Node15 -->
<g id="edge17" class="edge">
<title>Node8&#45;&gt;Node15</title>
<path fill="none" stroke="midnightblue" d="M756.66,-219.75C783.96,-209.11 815.94,-196.65 841.95,-186.51"/>
<polygon fill="midnightblue" stroke="midnightblue" points="755.26,-216.54 747.22,-223.43 757.81,-223.06 755.26,-216.54"/>
</g>
<!-- Node21 -->
<g id="node21" class="node">
<title>Node21</title>
<g id="a_node21"><a xlink:href="_material_8cpp.html" target="_top" xlink:title=" ">
<polygon fill="white" stroke="black" points="973,-151 973,-181 1099,-181 1099,-151 973,-151"/>
<text text-anchor="start" x="981" y="-169" font-family="Helvetica,sans-Serif" font-size="10.00">kryne&#45;engine/src/Material</text>
<text text-anchor="middle" x="1036" y="-158" font-family="Helvetica,sans-Serif" font-size="10.00">/Material.cpp</text>
</a>
</g>
</g>
<!-- Node8&#45;&gt;Node21 -->
<g id="edge26" class="edge">
<title>Node8&#45;&gt;Node21</title>
<path fill="none" stroke="midnightblue" d="M763.51,-223.02C852.98,-202.14 878.54,-206.48 964,-187 971.72,-185.24 979.84,-183.19 987.75,-181.07"/>
<polygon fill="midnightblue" stroke="midnightblue" points="762.69,-219.62 753.77,-225.34 764.3,-226.43 762.69,-219.62"/>
</g>
<!-- Node11 -->
<g id="node11" class="node">
<title>Node11</title>
<g id="a_node11"><a xlink:href="3_d_objects_8h.html" target="_top" xlink:title=" ">
<polygon fill="white" stroke="black" points="472.5,-73 472.5,-103 599.5,-103 599.5,-73 472.5,-73"/>
<text text-anchor="start" x="480.5" y="-91" font-family="Helvetica,sans-Serif" font-size="10.00">kryne&#45;engine/include</text>
<text text-anchor="middle" x="536" y="-80" font-family="Helvetica,sans-Serif" font-size="10.00">/KEModules/3DObjects.h</text>
</a>
</g>
</g>
<!-- Node10&#45;&gt;Node11 -->
<g id="edge12" class="edge">
<title>Node10&#45;&gt;Node11</title>
<path fill="none" stroke="midnightblue" d="M584.35,-137.99C572.76,-126.25 559.67,-112.99 550.04,-103.23"/>
<polygon fill="midnightblue" stroke="midnightblue" points="582.17,-140.77 591.69,-145.43 587.15,-135.85 582.17,-140.77"/>
</g>
<!-- Node12 -->
<g id="node12" class="node">
<title>Node12</title>
<g id="a_node12"><a xlink:href="_renderer_8h.html" target="_top" xlink:title=" ">
<polygon fill="white" stroke="black" points="332,-67.5 332,-108.5 454,-108.5 454,-67.5 332,-67.5"/>
<text text-anchor="start" x="340" y="-96.5" font-family="Helvetica,sans-Serif" font-size="10.00">kryne&#45;engine/include</text>
<text text-anchor="start" x="340" y="-85.5" font-family="Helvetica,sans-Serif" font-size="10.00">/kryne&#45;engine/Rendering</text>
<text text-anchor="middle" x="393" y="-74.5" font-family="Helvetica,sans-Serif" font-size="10.00">/Renderer.h</text>
</a>
</g>
</g>
<!-- Node10&#45;&gt;Node12 -->
<g id="edge13" class="edge">
<title>Node10&#45;&gt;Node12</title>
<path fill="none" stroke="midnightblue" d="M545.1,-142.03C514.41,-131.33 478.29,-118.73 448.95,-108.51"/>
<polygon fill="midnightblue" stroke="midnightblue" points="544.26,-145.44 554.86,-145.43 546.57,-138.83 544.26,-145.44"/>
</g>
<!-- Node14 -->
<g id="node14" class="node">
<title>Node14</title>
<g id="a_node14"><a xlink:href="_mesh_8cpp.html" target="_top" xlink:title=" ">
<polygon fill="white" stroke="black" points="617.5,-73 617.5,-103 754.5,-103 754.5,-73 617.5,-73"/>
<text text-anchor="start" x="625.5" y="-91" font-family="Helvetica,sans-Serif" font-size="10.00">kryne&#45;engine/src/3DObjects</text>
<text text-anchor="middle" x="686" y="-80" font-family="Helvetica,sans-Serif" font-size="10.00">/Mesh.cpp</text>
</a>
</g>
</g>
<!-- Node10&#45;&gt;Node14 -->
<g id="edge16" class="edge">
<title>Node10&#45;&gt;Node14</title>
<path fill="none" stroke="midnightblue" d="M637.65,-137.99C649.24,-126.25 662.33,-112.99 671.96,-103.23"/>
<polygon fill="midnightblue" stroke="midnightblue" points="634.85,-135.85 630.31,-145.43 639.83,-140.77 634.85,-135.85"/>
</g>
<!-- Node12&#45;&gt;Node7 -->
<g id="edge14" class="edge">
<title>Node12&#45;&gt;Node7</title>
<path fill="none" stroke="midnightblue" d="M360.35,-61.14C347.35,-50.84 332.9,-39.39 321.89,-30.67"/>
<polygon fill="midnightblue" stroke="midnightblue" points="358.2,-63.9 368.21,-67.36 362.54,-58.41 358.2,-63.9"/>
</g>
<!-- Node13 -->
<g id="node13" class="node">
<title>Node13</title>
<g id="a_node13"><a xlink:href="_renderer_8cpp.html" target="_top" xlink:title=" ">
<polygon fill="white" stroke="black" points="384.5,-0.5 384.5,-30.5 519.5,-30.5 519.5,-0.5 384.5,-0.5"/>
<text text-anchor="start" x="392.5" y="-18.5" font-family="Helvetica,sans-Serif" font-size="10.00">kryne&#45;engine/src/Rendering</text>
<text text-anchor="middle" x="452" y="-7.5" font-family="Helvetica,sans-Serif" font-size="10.00">/Renderer.cpp</text>
</a>
</g>
</g>
<!-- Node12&#45;&gt;Node13 -->
<g id="edge15" class="edge">
<title>Node12&#45;&gt;Node13</title>
<path fill="none" stroke="midnightblue" d="M416.07,-59.43C424.23,-49.68 433.08,-39.11 439.96,-30.89"/>
<polygon fill="midnightblue" stroke="midnightblue" points="413.17,-57.45 409.43,-67.36 418.54,-61.94 413.17,-57.45"/>
</g>
<!-- Node15&#45;&gt;Node9 -->
<g id="edge18" class="edge">
<title>Node15&#45;&gt;Node9</title>
<path fill="none" stroke="midnightblue" d="M863.43,-138.17C855.15,-129.42 846.58,-119.29 840,-109 823.63,-83.41 811.88,-49.58 806.09,-30.73"/>
<polygon fill="midnightblue" stroke="midnightblue" points="861.08,-140.77 870.57,-145.48 866.09,-135.88 861.08,-140.77"/>
</g>
<!-- Node16 -->
<g id="node16" class="node">
<title>Node16</title>
<g id="a_node16"><a xlink:href="_mesh_lambert_material_8h.html" target="_top" xlink:title=" ">
<polygon fill="white" stroke="black" points="849,-67.5 849,-108.5 971,-108.5 971,-67.5 849,-67.5"/>
<text text-anchor="start" x="857" y="-96.5" font-family="Helvetica,sans-Serif" font-size="10.00">kryne&#45;engine/include</text>
<text text-anchor="start" x="857" y="-85.5" font-family="Helvetica,sans-Serif" font-size="10.00">/kryne&#45;engine/Material</text>
<text text-anchor="middle" x="910" y="-74.5" font-family="Helvetica,sans-Serif" font-size="10.00">/MeshLambertMaterial.h</text>
</a>
</g>
</g>
<!-- Node15&#45;&gt;Node16 -->
<g id="edge19" class="edge">
<title>Node15&#45;&gt;Node16</title>
<path fill="none" stroke="midnightblue" d="M898.97,-135.59C901.12,-126.51 903.43,-116.74 905.38,-108.51"/>
<polygon fill="midnightblue" stroke="midnightblue" points="895.53,-134.89 896.64,-145.43 902.35,-136.5 895.53,-134.89"/>
</g>
<!-- Node18 -->
<g id="node18" class="node">
<title>Node18</title>
<g id="a_node18"><a xlink:href="_mesh_standard_material_8h.html" target="_top" xlink:title=" ">
<polygon fill="white" stroke="black" points="989.5,-67.5 989.5,-108.5 1114.5,-108.5 1114.5,-67.5 989.5,-67.5"/>
<text text-anchor="start" x="997.5" y="-96.5" font-family="Helvetica,sans-Serif" font-size="10.00">kryne&#45;engine/include</text>
<text text-anchor="start" x="997.5" y="-85.5" font-family="Helvetica,sans-Serif" font-size="10.00">/kryne&#45;engine/Material</text>
<text text-anchor="middle" x="1052" y="-74.5" font-family="Helvetica,sans-Serif" font-size="10.00">/MeshStandardMaterial.h</text>
</a>
</g>
</g>
<!-- Node15&#45;&gt;Node18 -->
<g id="edge22" class="edge">
<title>Node15&#45;&gt;Node18</title>
<path fill="none" stroke="midnightblue" d="M942.42,-141.05C964.49,-130.57 990.05,-118.42 1010.94,-108.51"/>
<polygon fill="midnightblue" stroke="midnightblue" points="940.74,-137.98 933.2,-145.43 943.74,-144.3 940.74,-137.98"/>
</g>
<!-- Node20 -->
<g id="node20" class="node">
<title>Node20</title>
<g id="a_node20"><a xlink:href="_mesh_material_common_8cpp.html" target="_top" xlink:title=" ">
<polygon fill="white" stroke="black" points="1133,-73 1133,-103 1269,-103 1269,-73 1133,-73"/>
<text text-anchor="start" x="1141" y="-91" font-family="Helvetica,sans-Serif" font-size="10.00">kryne&#45;engine/src/Material</text>
<text text-anchor="middle" x="1201" y="-80" font-family="Helvetica,sans-Serif" font-size="10.00">/MeshMaterialCommon.cpp</text>
</a>
</g>
</g>
<!-- Node15&#45;&gt;Node20 -->
<g id="edge25" class="edge">
<title>Node15&#45;&gt;Node20</title>
<path fill="none" stroke="midnightblue" d="M964.75,-144.87C1036.38,-127.12 1056.2,-125.43 1124,-109 1131.65,-107.15 1139.71,-105.13 1147.62,-103.11"/>
<polygon fill="midnightblue" stroke="midnightblue" points="963.63,-141.54 954.78,-147.36 965.33,-148.33 963.63,-141.54"/>
</g>
<!-- Node16&#45;&gt;Node9 -->
<g id="edge20" class="edge">
<title>Node16&#45;&gt;Node9</title>
<path fill="none" stroke="midnightblue" d="M871.27,-61.72C855.27,-51.27 837.32,-39.56 823.71,-30.67"/>
<polygon fill="midnightblue" stroke="midnightblue" points="869.63,-64.83 879.92,-67.36 873.46,-58.96 869.63,-64.83"/>
</g>
<!-- Node17 -->
<g id="node17" class="node">
<title>Node17</title>
<g id="a_node17"><a xlink:href="_mesh_lambert_material_8cpp.html" target="_top" xlink:title=" ">
<polygon fill="white" stroke="black" points="878,-0.5 878,-30.5 1010,-30.5 1010,-0.5 878,-0.5"/>
<text text-anchor="start" x="886" y="-18.5" font-family="Helvetica,sans-Serif" font-size="10.00">kryne&#45;engine/src/Material</text>
<text text-anchor="middle" x="944" y="-7.5" font-family="Helvetica,sans-Serif" font-size="10.00">/MeshLambertMaterial.cpp</text>
</a>
</g>
</g>
<!-- Node16&#45;&gt;Node17 -->
<g id="edge21" class="edge">
<title>Node16&#45;&gt;Node17</title>
<path fill="none" stroke="midnightblue" d="M923.86,-58.26C928.4,-48.84 933.26,-38.78 937.06,-30.89"/>
<polygon fill="midnightblue" stroke="midnightblue" points="920.66,-56.83 919.47,-67.36 926.97,-59.87 920.66,-56.83"/>
</g>
<!-- Node18&#45;&gt;Node9 -->
<g id="edge23" class="edge">
<title>Node18&#45;&gt;Node9</title>
<path fill="none" stroke="midnightblue" d="M979.57,-66.57C938.57,-55.01 888.36,-40.85 851.8,-30.54"/>
<polygon fill="midnightblue" stroke="midnightblue" points="978.66,-69.96 989.24,-69.3 980.56,-63.22 978.66,-69.96"/>
</g>
<!-- Node19 -->
<g id="node19" class="node">
<title>Node19</title>
<g id="a_node19"><a xlink:href="_mesh_standard_material_8cpp.html" target="_top" xlink:title=" ">
<polygon fill="white" stroke="black" points="1028,-0.5 1028,-30.5 1164,-30.5 1164,-0.5 1028,-0.5"/>
<text text-anchor="start" x="1036" y="-18.5" font-family="Helvetica,sans-Serif" font-size="10.00">kryne&#45;engine/src/Material</text>
<text text-anchor="middle" x="1096" y="-7.5" font-family="Helvetica,sans-Serif" font-size="10.00">/MeshStandardMaterial.cpp</text>
</a>
</g>
</g>
<!-- Node18&#45;&gt;Node19 -->
<g id="edge24" class="edge">
<title>Node18&#45;&gt;Node19</title>
<path fill="none" stroke="midnightblue" d="M1069.57,-58.85C1075.55,-49.26 1081.99,-38.94 1087.02,-30.89"/>
<polygon fill="midnightblue" stroke="midnightblue" points="1066.58,-57.03 1064.26,-67.36 1072.52,-60.73 1066.58,-57.03"/>
</g>
</g>
</svg>
