<?xml version="1.0" encoding="UTF-8" standalone="no"?>
<!DOCTYPE svg PUBLIC "-//W3C//DTD SVG 1.1//EN"
 "http://www.w3.org/Graphics/SVG/1.1/DTD/svg11.dtd">
<!-- Generated by graphviz version 2.40.1 (20161225.0304)
 -->
<!-- Title: kryne&#45;engine/src/Geometry/BufferGeometry.cpp Pages: 1 -->
<svg width="1585pt" height="464pt"
 viewBox="0.00 0.00 1585.00 464.00" xmlns="http://www.w3.org/2000/svg" xmlns:xlink="http://www.w3.org/1999/xlink">
<g id="graph0" class="graph" transform="scale(1 1) rotate(0) translate(4 460)">
<title>kryne&#45;engine/src/Geometry/BufferGeometry.cpp</title>
<polygon fill="#ffffff" stroke="transparent" points="-4,4 -4,-460 1581,-460 1581,4 -4,4"/>
<!-- Node0 -->
<g id="node1" class="node">
<title>Node0</title>
<polygon fill="#bfbfbf" stroke="#000000" points="585,-425.5 585,-455.5 719,-455.5 719,-425.5 585,-425.5"/>
<text text-anchor="start" x="593" y="-443.5" font-family="Helvetica,sans-Serif" font-size="10.00" fill="#000000">kryne&#45;engine/src/Geometry</text>
<text text-anchor="middle" x="652" y="-432.5" font-family="Helvetica,sans-Serif" font-size="10.00" fill="#000000">/BufferGeometry.cpp</text>
</g>
<!-- Node1 -->
<g id="node2" class="node">
<title>Node1</title>
<g id="a_node2"><a xlink:href="_buffer_geometry_8h.html" target="_top" xlink:title="kryne&#45;engine/Geometry\l/BufferGeometry.h">
<polygon fill="#ffffff" stroke="#000000" points="545,-358.5 545,-388.5 663,-388.5 663,-358.5 545,-358.5"/>
<text text-anchor="start" x="553" y="-376.5" font-family="Helvetica,sans-Serif" font-size="10.00" fill="#000000">kryne&#45;engine/Geometry</text>
<text text-anchor="middle" x="604" y="-365.5" font-family="Helvetica,sans-Serif" font-size="10.00" fill="#000000">/BufferGeometry.h</text>
</a>
</g>
</g>
<!-- Node0&#45;&gt;Node1 -->
<g id="edge1" class="edge">
<title>Node0&#45;&gt;Node1</title>
<path fill="none" stroke="#191970" d="M641.1081,-425.2967C635.0937,-416.9016 627.4951,-406.2952 620.7426,-396.8698"/>
<polygon fill="#191970" stroke="#191970" points="623.5179,-394.734 614.8488,-388.6432 617.8275,-398.8107 623.5179,-394.734"/>
</g>
<!-- Node33 -->
<g id="node34" class="node">
<title>Node33</title>
<polygon fill="#ffffff" stroke="#bfbfbf" points="681,-364 681,-383 721,-383 721,-364 681,-364"/>
<text text-anchor="middle" x="701" y="-371" font-family="Helvetica,sans-Serif" font-size="10.00" fill="#000000">utility</text>
</g>
<!-- Node0&#45;&gt;Node33 -->
<g id="edge40" class="edge">
<title>Node0&#45;&gt;Node33</title>
<path fill="none" stroke="#191970" d="M663.1189,-425.2967C670.5309,-415.1618 680.3,-401.804 688.061,-391.1921"/>
<polygon fill="#191970" stroke="#191970" points="690.9339,-393.1928 694.012,-383.055 685.2837,-389.0606 690.9339,-393.1928"/>
</g>
<!-- Node2 -->
<g id="node3" class="node">
<title>Node2</title>
<polygon fill="#ffffff" stroke="#bfbfbf" points="112,-297 112,-316 168,-316 168,-297 112,-297"/>
<text text-anchor="middle" x="140" y="-304" font-family="Helvetica,sans-Serif" font-size="10.00" fill="#000000">algorithm</text>
</g>
<!-- Node1&#45;&gt;Node2 -->
<g id="edge2" class="edge">
<title>Node1&#45;&gt;Node2</title>
<path fill="none" stroke="#191970" d="M544.8652,-370.6156C462.5323,-365.6245 309.1517,-352.778 182,-322 178.8272,-321.232 175.565,-320.2988 172.3282,-319.2753"/>
<polygon fill="#191970" stroke="#191970" points="173.4028,-315.9438 162.8082,-316.0086 171.1308,-322.5648 173.4028,-315.9438"/>
</g>
<!-- Node3 -->
<g id="node4" class="node">
<title>Node3</title>
<polygon fill="#ffffff" stroke="#bfbfbf" points="0,-56.5 0,-75.5 52,-75.5 52,-56.5 0,-56.5"/>
<text text-anchor="middle" x="26" y="-63.5" font-family="Helvetica,sans-Serif" font-size="10.00" fill="#000000">memory</text>
</g>
<!-- Node1&#45;&gt;Node3 -->
<g id="edge3" class="edge">
<title>Node1&#45;&gt;Node3</title>
<path fill="none" stroke="#191970" d="M544.6733,-367.3192C431.5155,-353.8758 196,-317.2212 196,-245 196,-245 196,-245 196,-189 196,-154.6771 103.8907,-104.2394 55.2724,-80.0075"/>
<polygon fill="#191970" stroke="#191970" points="56.6861,-76.8023 46.1688,-75.5231 53.5928,-83.0818 56.6861,-76.8023"/>
</g>
<!-- Node4 -->
<g id="node5" class="node">
<title>Node4</title>
<polygon fill="#ffffff" stroke="#bfbfbf" points="452,-56.5 452,-75.5 506,-75.5 506,-56.5 452,-56.5"/>
<text text-anchor="middle" x="479" y="-63.5" font-family="Helvetica,sans-Serif" font-size="10.00" fill="#000000">iostream</text>
</g>
<!-- Node1&#45;&gt;Node4 -->
<g id="edge4" class="edge">
<title>Node1&#45;&gt;Node4</title>
<path fill="none" stroke="#191970" d="M567.4728,-358.4067C550.8965,-349.9072 532.2942,-337.7928 520,-322 497.9805,-293.7143 496,-280.846 496,-245 496,-245 496,-245 496,-189 496,-152.1524 488.4211,-109.6754 483.3841,-85.5136"/>
<polygon fill="#191970" stroke="#191970" points="486.7552,-84.5427 481.2225,-75.5072 479.9131,-86.0209 486.7552,-84.5427"/>
</g>
<!-- Node5 -->
<g id="node6" class="node">
<title>Node5</title>
<polygon fill="#ffffff" stroke="#bfbfbf" points="562.5,-297 562.5,-316 645.5,-316 645.5,-297 562.5,-297"/>
<text text-anchor="middle" x="604" y="-304" font-family="Helvetica,sans-Serif" font-size="10.00" fill="#000000">unordered_map</text>
</g>
<!-- Node1&#45;&gt;Node5 -->
<g id="edge5" class="edge">
<title>Node1&#45;&gt;Node5</title>
<path fill="none" stroke="#191970" d="M604,-358.2967C604,-348.7699 604,-336.3954 604,-326.1306"/>
<polygon fill="#191970" stroke="#191970" points="607.5001,-326.0549 604,-316.055 600.5001,-326.055 607.5001,-326.0549"/>
</g>
<!-- Node6 -->
<g id="node7" class="node">
<title>Node6</title>
<polygon fill="#ffffff" stroke="#bfbfbf" points="411.5,-.5 411.5,-19.5 470.5,-19.5 470.5,-.5 411.5,-.5"/>
<text text-anchor="middle" x="441" y="-7.5" font-family="Helvetica,sans-Serif" font-size="10.00" fill="#000000">functional</text>
</g>
<!-- Node1&#45;&gt;Node6 -->
<g id="edge6" class="edge">
<title>Node1&#45;&gt;Node6</title>
<path fill="none" stroke="#191970" d="M584.41,-358.2854C573.63,-348.9223 560.88,-336.0473 553,-322 535.7549,-291.2579 534,-280.2487 534,-245 534,-245 534,-245 534,-127.5 534,-94.6194 534.5617,-82.4287 515,-56 504.8122,-42.2359 489.1645,-31.6498 474.8777,-24.1227"/>
<polygon fill="#191970" stroke="#191970" points="476.2725,-20.908 465.7569,-19.6153 473.1713,-27.1835 476.2725,-20.908"/>
</g>
<!-- Node7 -->
<g id="node8" class="node">
<title>Node7</title>
<polygon fill="#ffffff" stroke="#bfbfbf" points="663.5,-297 663.5,-316 738.5,-316 738.5,-297 663.5,-297"/>
<text text-anchor="middle" x="701" y="-304" font-family="Helvetica,sans-Serif" font-size="10.00" fill="#000000">glm/vec2.hpp</text>
</g>
<!-- Node1&#45;&gt;Node7 -->
<g id="edge7" class="edge">
<title>Node1&#45;&gt;Node7</title>
<path fill="none" stroke="#191970" d="M626.0108,-358.2967C641.7108,-347.4524 662.7528,-332.9182 678.551,-322.006"/>
<polygon fill="#191970" stroke="#191970" points="680.9278,-324.6181 687.1667,-316.055 676.9495,-318.8585 680.9278,-324.6181"/>
</g>
<!-- Node8 -->
<g id="node9" class="node">
<title>Node8</title>
<polygon fill="#ffffff" stroke="#bfbfbf" points="906.5,-179.5 906.5,-198.5 981.5,-198.5 981.5,-179.5 906.5,-179.5"/>
<text text-anchor="middle" x="944" y="-186.5" font-family="Helvetica,sans-Serif" font-size="10.00" fill="#000000">glm/vec3.hpp</text>
</g>
<!-- Node1&#45;&gt;Node8 -->
<g id="edge8" class="edge">
<title>Node1&#45;&gt;Node8</title>
<path fill="none" stroke="#191970" d="M659.3784,-358.427C693.7221,-348.1733 733.7441,-334.2881 747,-322 778.0759,-293.193 754.041,-262.8241 786,-235 802.5368,-220.6028 856.0436,-206.9333 896.2426,-198.2947"/>
<polygon fill="#191970" stroke="#191970" points="897.0811,-201.6949 906.1453,-196.2094 895.6387,-194.8451 897.0811,-201.6949"/>
</g>
<!-- Node9 -->
<g id="node10" class="node">
<title>Node9</title>
<polygon fill="#ffffff" stroke="#bfbfbf" points="999.5,-297 999.5,-316 1096.5,-316 1096.5,-297 999.5,-297"/>
<text text-anchor="middle" x="1048" y="-304" font-family="Helvetica,sans-Serif" font-size="10.00" fill="#000000">glm/geometric.hpp</text>
</g>
<!-- Node1&#45;&gt;Node9 -->
<g id="edge9" class="edge">
<title>Node1&#45;&gt;Node9</title>
<path fill="none" stroke="#191970" d="M663.2604,-359.5833C666.2097,-359.0191 669.1351,-358.4871 672,-358 812.2236,-334.1577 850.2418,-348.4341 990,-322 995.1174,-321.0321 1000.4469,-319.8515 1005.7106,-318.5781"/>
<polygon fill="#191970" stroke="#191970" points="1006.8481,-321.9004 1015.6789,-316.0465 1005.1251,-315.1158 1006.8481,-321.9004"/>
</g>
<!-- Node10 -->
<g id="node11" class="node">
<title>Node10</title>
<g id="a_node11"><a xlink:href="_dispatcher_8h.html" target="_top" xlink:title="kryne&#45;engine/Dispatch\l/Dispatcher.h">
<polygon fill="#ffffff" stroke="#000000" points="336,-291.5 336,-321.5 450,-321.5 450,-291.5 336,-291.5"/>
<text text-anchor="start" x="344" y="-309.5" font-family="Helvetica,sans-Serif" font-size="10.00" fill="#000000">kryne&#45;engine/Dispatch</text>
<text text-anchor="middle" x="393" y="-298.5" font-family="Helvetica,sans-Serif" font-size="10.00" fill="#000000">/Dispatcher.h</text>
</a>
</g>
</g>
<!-- Node1&#45;&gt;Node10 -->
<g id="edge10" class="edge">
<title>Node1&#45;&gt;Node10</title>
<path fill="none" stroke="#191970" d="M556.6475,-358.4639C525.1301,-348.456 483.544,-335.2509 450.1811,-324.657"/>
<polygon fill="#191970" stroke="#191970" points="451.1494,-321.2923 440.559,-321.6017 449.0308,-327.9641 451.1494,-321.2923"/>
</g>
<!-- Node22 -->
<g id="node23" class="node">
<title>Node22</title>
<g id="a_node23"><a xlink:href="_sphere_8hpp.html" target="_top" xlink:title="kryne&#45;engine/Math/Sphere.hpp">
<polygon fill="#ffffff" stroke="#000000" points="832.5,-297 832.5,-316 981.5,-316 981.5,-297 832.5,-297"/>
<text text-anchor="middle" x="907" y="-304" font-family="Helvetica,sans-Serif" font-size="10.00" fill="#000000">kryne&#45;engine/Math/Sphere.hpp</text>
</a>
</g>
</g>
<!-- Node1&#45;&gt;Node22 -->
<g id="edge28" class="edge">
<title>Node1&#45;&gt;Node22</title>
<path fill="none" stroke="#191970" d="M663.3315,-359.9452C666.2621,-359.2853 669.164,-358.634 672,-358 734.0281,-344.1342 805.3511,-328.5553 853.0005,-318.1995"/>
<polygon fill="#191970" stroke="#191970" points="853.7681,-321.6145 862.7972,-316.0715 852.2821,-314.774 853.7681,-321.6145"/>
</g>
<!-- Node28 -->
<g id="node29" class="node">
<title>Node28</title>
<g id="a_node29"><a xlink:href="_buffer_attribute_8h.html" target="_top" xlink:title="BufferAttribute.h">
<polygon fill="#ffffff" stroke="#000000" points="1341,-297 1341,-316 1429,-316 1429,-297 1341,-297"/>
<text text-anchor="middle" x="1385" y="-304" font-family="Helvetica,sans-Serif" font-size="10.00" fill="#000000">BufferAttribute.h</text>
</a>
</g>
</g>
<!-- Node1&#45;&gt;Node28 -->
<g id="edge35" class="edge">
<title>Node1&#45;&gt;Node28</title>
<path fill="none" stroke="#191970" d="M663.2375,-359.4397C666.1929,-358.9135 669.1258,-358.4288 672,-358 798.9368,-339.0609 1186.1523,-317.1091 1330.2311,-309.3744"/>
<polygon fill="#191970" stroke="#191970" points="1330.7844,-312.8499 1340.5831,-308.8207 1330.4104,-305.8599 1330.7844,-312.8499"/>
</g>
<!-- Node11 -->
<g id="node12" class="node">
<title>Node11</title>
<g id="a_node12"><a xlink:href="_synchronizable_pool_8h.html" target="_top" xlink:title="SynchronizablePool.h">
<polygon fill="#ffffff" stroke="#000000" points="318.5,-179.5 318.5,-198.5 429.5,-198.5 429.5,-179.5 318.5,-179.5"/>
<text text-anchor="middle" x="374" y="-186.5" font-family="Helvetica,sans-Serif" font-size="10.00" fill="#000000">SynchronizablePool.h</text>
</a>
</g>
</g>
<!-- Node10&#45;&gt;Node11 -->
<g id="edge11" class="edge">
<title>Node10&#45;&gt;Node11</title>
<path fill="none" stroke="#191970" d="M390.5161,-291.1389C387.0929,-269.9692 380.9237,-231.8174 377.1712,-208.6112"/>
<polygon fill="#191970" stroke="#191970" points="380.5973,-207.8725 375.5458,-198.5595 373.687,-208.99 380.5973,-207.8725"/>
</g>
<!-- Node19 -->
<g id="node20" class="node">
<title>Node19</title>
<g id="a_node20"><a xlink:href="_runner_pool_8h.html" target="_top" xlink:title="RunnerPool.h">
<polygon fill="#ffffff" stroke="#000000" points="224,-179.5 224,-198.5 300,-198.5 300,-179.5 224,-179.5"/>
<text text-anchor="middle" x="262" y="-186.5" font-family="Helvetica,sans-Serif" font-size="10.00" fill="#000000">RunnerPool.h</text>
</a>
</g>
</g>
<!-- Node10&#45;&gt;Node19 -->
<g id="edge22" class="edge">
<title>Node10&#45;&gt;Node19</title>
<path fill="none" stroke="#191970" d="M376.1422,-291.3795C351.4496,-269.2315 305.6276,-228.1316 280.196,-205.3209"/>
<polygon fill="#191970" stroke="#191970" points="282.4894,-202.6762 272.7081,-198.6046 277.8154,-207.8872 282.4894,-202.6762"/>
</g>
<!-- Node20 -->
<g id="node21" class="node">
<title>Node20</title>
<g id="a_node21"><a xlink:href="_main_pool_8h.html" target="_top" xlink:title="MainPool.h">
<polygon fill="#ffffff" stroke="#000000" points="402.5,-235.5 402.5,-254.5 467.5,-254.5 467.5,-235.5 402.5,-235.5"/>
<text text-anchor="middle" x="435" y="-242.5" font-family="Helvetica,sans-Serif" font-size="10.00" fill="#000000">MainPool.h</text>
</a>
</g>
</g>
<!-- Node10&#45;&gt;Node20 -->
<g id="edge24" class="edge">
<title>Node10&#45;&gt;Node20</title>
<path fill="none" stroke="#191970" d="M403.382,-291.2977C409.1513,-282.8498 416.3716,-272.2773 422.4553,-263.369"/>
<polygon fill="#191970" stroke="#191970" points="425.5259,-265.0788 428.2753,-254.8469 419.7453,-261.1311 425.5259,-265.0788"/>
</g>
<!-- Node12 -->
<g id="node13" class="node">
<title>Node12</title>
<g id="a_node13"><a xlink:href="_thread_pool_8h.html" target="_top" xlink:title="ThreadPool.h">
<polygon fill="#ffffff" stroke="#000000" points="242,-118 242,-137 316,-137 316,-118 242,-118"/>
<text text-anchor="middle" x="279" y="-125" font-family="Helvetica,sans-Serif" font-size="10.00" fill="#000000">ThreadPool.h</text>
</a>
</g>
</g>
<!-- Node11&#45;&gt;Node12 -->
<g id="edge12" class="edge">
<title>Node11&#45;&gt;Node12</title>
<path fill="none" stroke="#191970" d="M359.1563,-179.3906C343.9582,-169.5519 320.1152,-154.1167 302.3794,-142.6351"/>
<polygon fill="#191970" stroke="#191970" points="304.0361,-139.5382 293.7395,-137.0419 300.232,-145.4144 304.0361,-139.5382"/>
</g>
<!-- Node12&#45;&gt;Node3 -->
<g id="edge17" class="edge">
<title>Node12&#45;&gt;Node3</title>
<path fill="none" stroke="#191970" d="M241.7224,-118.9138C192.5996,-107.5641 107.8847,-87.8614 62.04,-76.1736"/>
<polygon fill="#191970" stroke="#191970" points="62.8951,-72.7796 52.3374,-73.6663 61.1437,-79.557 62.8951,-72.7796"/>
</g>
<!-- Node12&#45;&gt;Node4 -->
<g id="edge18" class="edge">
<title>Node12&#45;&gt;Node4</title>
<path fill="none" stroke="#191970" d="M310.25,-117.8906C345.9513,-106.9125 404.3118,-88.9666 442.1868,-77.3201"/>
<polygon fill="#191970" stroke="#191970" points="443.2894,-80.6428 451.819,-74.3582 441.2319,-73.952 443.2894,-80.6428"/>
</g>
<!-- Node13 -->
<g id="node14" class="node">
<title>Node13</title>
<polygon fill="#ffffff" stroke="#bfbfbf" points="70,-56.5 70,-75.5 114,-75.5 114,-56.5 70,-56.5"/>
<text text-anchor="middle" x="92" y="-63.5" font-family="Helvetica,sans-Serif" font-size="10.00" fill="#000000">thread</text>
</g>
<!-- Node12&#45;&gt;Node13 -->
<g id="edge13" class="edge">
<title>Node12&#45;&gt;Node13</title>
<path fill="none" stroke="#191970" d="M249.7813,-117.8906C215.5627,-106.6369 159.081,-88.0614 123.7907,-76.4552"/>
<polygon fill="#191970" stroke="#191970" points="124.5941,-73.0351 114.0012,-73.2357 122.4072,-79.6847 124.5941,-73.0351"/>
</g>
<!-- Node14 -->
<g id="node15" class="node">
<title>Node14</title>
<polygon fill="#ffffff" stroke="#bfbfbf" points="390,-56.5 390,-75.5 434,-75.5 434,-56.5 390,-56.5"/>
<text text-anchor="middle" x="412" y="-63.5" font-family="Helvetica,sans-Serif" font-size="10.00" fill="#000000">mutex</text>
</g>
<!-- Node12&#45;&gt;Node14 -->
<g id="edge14" class="edge">
<title>Node12&#45;&gt;Node14</title>
<path fill="none" stroke="#191970" d="M299.7813,-117.8906C321.8394,-107.6908 356.905,-91.4763 381.9669,-79.8875"/>
<polygon fill="#191970" stroke="#191970" points="383.7571,-82.9158 391.3647,-75.5419 380.8191,-76.5622 383.7571,-82.9158"/>
</g>
<!-- Node15 -->
<g id="node16" class="node">
<title>Node15</title>
<polygon fill="#ffffff" stroke="#bfbfbf" points="132.5,-56.5 132.5,-75.5 227.5,-75.5 227.5,-56.5 132.5,-56.5"/>
<text text-anchor="middle" x="180" y="-63.5" font-family="Helvetica,sans-Serif" font-size="10.00" fill="#000000">condition_variable</text>
</g>
<!-- Node12&#45;&gt;Node15 -->
<g id="edge15" class="edge">
<title>Node12&#45;&gt;Node15</title>
<path fill="none" stroke="#191970" d="M263.5313,-117.8906C247.5479,-107.9616 222.3897,-92.333 203.8567,-80.8201"/>
<polygon fill="#191970" stroke="#191970" points="205.7015,-77.8457 195.3601,-75.5419 202.0076,-83.7918 205.7015,-77.8457"/>
</g>
<!-- Node16 -->
<g id="node17" class="node">
<title>Node16</title>
<polygon fill="#ffffff" stroke="#bfbfbf" points="330.5,-56.5 330.5,-75.5 371.5,-75.5 371.5,-56.5 330.5,-56.5"/>
<text text-anchor="middle" x="351" y="-63.5" font-family="Helvetica,sans-Serif" font-size="10.00" fill="#000000">future</text>
</g>
<!-- Node12&#45;&gt;Node16 -->
<g id="edge16" class="edge">
<title>Node12&#45;&gt;Node16</title>
<path fill="none" stroke="#191970" d="M290.25,-117.8906C301.386,-108.3786 318.646,-93.6357 331.9268,-82.2917"/>
<polygon fill="#191970" stroke="#191970" points="334.2608,-84.9011 339.5914,-75.7449 329.7144,-79.5784 334.2608,-84.9011"/>
</g>
<!-- Node17 -->
<g id="node18" class="node">
<title>Node17</title>
<g id="a_node18"><a xlink:href="_base_pool_8h.html" target="_top" xlink:title="BasePool.h">
<polygon fill="#ffffff" stroke="#000000" points="245.5,-56.5 245.5,-75.5 312.5,-75.5 312.5,-56.5 245.5,-56.5"/>
<text text-anchor="middle" x="279" y="-63.5" font-family="Helvetica,sans-Serif" font-size="10.00" fill="#000000">BasePool.h</text>
</a>
</g>
</g>
<!-- Node12&#45;&gt;Node17 -->
<g id="edge19" class="edge">
<title>Node12&#45;&gt;Node17</title>
<path fill="none" stroke="#191970" d="M279,-117.8906C279,-109.3657 279,-96.6392 279,-85.9235"/>
<polygon fill="#191970" stroke="#191970" points="282.5001,-85.7448 279,-75.7449 275.5001,-85.7449 282.5001,-85.7448"/>
</g>
<!-- Node17&#45;&gt;Node6 -->
<g id="edge21" class="edge">
<title>Node17&#45;&gt;Node6</title>
<path fill="none" stroke="#191970" d="M306.8488,-56.3733C333.6703,-47.1016 374.4127,-33.0178 403.9598,-22.804"/>
<polygon fill="#191970" stroke="#191970" points="405.2069,-26.0762 413.5146,-19.5011 402.9198,-19.4603 405.2069,-26.0762"/>
</g>
<!-- Node18 -->
<g id="node19" class="node">
<title>Node18</title>
<polygon fill="#ffffff" stroke="#bfbfbf" points="257.5,-.5 257.5,-19.5 300.5,-19.5 300.5,-.5 257.5,-.5"/>
<text text-anchor="middle" x="279" y="-7.5" font-family="Helvetica,sans-Serif" font-size="10.00" fill="#000000">queue</text>
</g>
<!-- Node17&#45;&gt;Node18 -->
<g id="edge20" class="edge">
<title>Node17&#45;&gt;Node18</title>
<path fill="none" stroke="#191970" d="M279,-56.2455C279,-48.9382 279,-38.6944 279,-29.7046"/>
<polygon fill="#191970" stroke="#191970" points="282.5001,-29.6426 279,-19.6427 275.5001,-29.6427 282.5001,-29.6426"/>
</g>
<!-- Node19&#45;&gt;Node12 -->
<g id="edge23" class="edge">
<title>Node19&#45;&gt;Node12</title>
<path fill="none" stroke="#191970" d="M264.6563,-179.3906C267.0375,-170.776 270.6048,-157.8708 273.586,-147.0858"/>
<polygon fill="#191970" stroke="#191970" points="277.0154,-147.8159 276.3063,-137.2449 270.2684,-145.9509 277.0154,-147.8159"/>
</g>
<!-- Node20&#45;&gt;Node11 -->
<g id="edge27" class="edge">
<title>Node20&#45;&gt;Node11</title>
<path fill="none" stroke="#191970" d="M424.3746,-235.2455C415.4527,-227.0549 402.512,-215.1749 391.9808,-205.5069"/>
<polygon fill="#191970" stroke="#191970" points="394.2371,-202.8271 384.5036,-198.6427 389.5032,-207.9837 394.2371,-202.8271"/>
</g>
<!-- Node21 -->
<g id="node22" class="node">
<title>Node21</title>
<g id="a_node22"><a xlink:href="_multithreading_8hpp.html" target="_top" xlink:title="kryne&#45;engine/Utils\l/Multithreading.hpp">
<polygon fill="#ffffff" stroke="#000000" points="365.5,-112.5 365.5,-142.5 464.5,-142.5 464.5,-112.5 365.5,-112.5"/>
<text text-anchor="start" x="373.5" y="-130.5" font-family="Helvetica,sans-Serif" font-size="10.00" fill="#000000">kryne&#45;engine/Utils</text>
<text text-anchor="middle" x="415" y="-119.5" font-family="Helvetica,sans-Serif" font-size="10.00" fill="#000000">/Multithreading.hpp</text>
</a>
</g>
</g>
<!-- Node20&#45;&gt;Node21 -->
<g id="edge25" class="edge">
<title>Node20&#45;&gt;Node21</title>
<path fill="none" stroke="#191970" d="M436.9288,-235.4767C439.2124,-222.5353 442.2085,-198.7439 438,-179 436.0339,-169.7762 432.2917,-160.2033 428.3881,-151.8496"/>
<polygon fill="#191970" stroke="#191970" points="431.4203,-150.087 423.8282,-142.6971 425.1549,-153.2086 431.4203,-150.087"/>
</g>
<!-- Node21&#45;&gt;Node14 -->
<g id="edge26" class="edge">
<title>Node21&#45;&gt;Node14</title>
<path fill="none" stroke="#191970" d="M414.2584,-112.2977C413.8724,-104.3834 413.3953,-94.6043 412.9793,-86.0759"/>
<polygon fill="#191970" stroke="#191970" points="416.4635,-85.6645 412.4803,-75.8469 409.4718,-86.0056 416.4635,-85.6645"/>
</g>
<!-- Node23 -->
<g id="node24" class="node">
<title>Node23</title>
<polygon fill="#ffffff" stroke="#bfbfbf" points="795,-235.5 795,-254.5 881,-254.5 881,-235.5 795,-235.5"/>
<text text-anchor="middle" x="838" y="-242.5" font-family="Helvetica,sans-Serif" font-size="10.00" fill="#000000">glm/mat4x4.hpp</text>
</g>
<!-- Node22&#45;&gt;Node23 -->
<g id="edge29" class="edge">
<title>Node22&#45;&gt;Node23</title>
<path fill="none" stroke="#191970" d="M896.2188,-296.8906C885.6474,-287.4683 869.3175,-272.9134 856.6397,-261.6137"/>
<polygon fill="#191970" stroke="#191970" points="858.7272,-258.7858 848.9333,-254.7449 854.0696,-264.0114 858.7272,-258.7858"/>
</g>
<!-- Node24 -->
<g id="node25" class="node">
<title>Node24</title>
<polygon fill="#ffffff" stroke="#bfbfbf" points="899,-235.5 899,-254.5 991,-254.5 991,-235.5 899,-235.5"/>
<text text-anchor="middle" x="945" y="-242.5" font-family="Helvetica,sans-Serif" font-size="10.00" fill="#000000">glm/gtx/norm.hpp</text>
</g>
<!-- Node22&#45;&gt;Node24 -->
<g id="edge30" class="edge">
<title>Node22&#45;&gt;Node24</title>
<path fill="none" stroke="#191970" d="M912.9375,-296.8906C918.4267,-288.0068 926.7353,-274.5601 933.519,-263.5811"/>
<polygon fill="#191970" stroke="#191970" points="936.6998,-265.0917 938.9788,-254.7449 930.7449,-261.4122 936.6998,-265.0917"/>
</g>
<!-- Node25 -->
<g id="node26" class="node">
<title>Node25</title>
<polygon fill="#ffffff" stroke="#bfbfbf" points="1009,-235.5 1009,-254.5 1153,-254.5 1153,-235.5 1009,-235.5"/>
<text text-anchor="middle" x="1081" y="-242.5" font-family="Helvetica,sans-Serif" font-size="10.00" fill="#000000">glm/gtx/component_wise.hpp</text>
</g>
<!-- Node22&#45;&gt;Node25 -->
<g id="edge31" class="edge">
<title>Node22&#45;&gt;Node25</title>
<path fill="none" stroke="#191970" d="M934.1875,-296.8906C963.8117,-286.42 1011.3687,-269.6111 1044.2918,-257.9745"/>
<polygon fill="#191970" stroke="#191970" points="1045.7414,-261.1744 1054.0034,-254.5419 1043.4086,-254.5745 1045.7414,-261.1744"/>
</g>
<!-- Node26 -->
<g id="node27" class="node">
<title>Node26</title>
<g id="a_node27"><a xlink:href="_axis_aligned_box_8hpp.html" target="_top" xlink:title="AxisAlignedBox.hpp">
<polygon fill="#ffffff" stroke="#000000" points="1171,-235.5 1171,-254.5 1275,-254.5 1275,-235.5 1171,-235.5"/>
<text text-anchor="middle" x="1223" y="-242.5" font-family="Helvetica,sans-Serif" font-size="10.00" fill="#000000">AxisAlignedBox.hpp</text>
</a>
</g>
</g>
<!-- Node22&#45;&gt;Node26 -->
<g id="edge32" class="edge">
<title>Node22&#45;&gt;Node26</title>
<path fill="none" stroke="#191970" d="M956.0283,-296.9581C1012.1558,-286.0345 1104.0547,-268.1492 1164.0396,-256.4749"/>
<polygon fill="#191970" stroke="#191970" points="1164.9695,-259.8597 1174.1167,-254.5137 1163.6322,-252.9886 1164.9695,-259.8597"/>
</g>
<!-- Node26&#45;&gt;Node8 -->
<g id="edge33" class="edge">
<title>Node26&#45;&gt;Node8</title>
<path fill="none" stroke="#191970" d="M1175.3552,-235.4369C1123.9953,-225.1281 1042.7318,-208.8171 991.4483,-198.5237"/>
<polygon fill="#191970" stroke="#191970" points="992.1023,-195.0852 981.6091,-196.5488 990.7247,-201.9483 992.1023,-195.0852"/>
</g>
<!-- Node27 -->
<g id="node28" class="node">
<title>Node27</title>
<polygon fill="#ffffff" stroke="#bfbfbf" points="1177,-179.5 1177,-198.5 1269,-198.5 1269,-179.5 1177,-179.5"/>
<text text-anchor="middle" x="1223" y="-186.5" font-family="Helvetica,sans-Serif" font-size="10.00" fill="#000000">glm/common.hpp</text>
</g>
<!-- Node26&#45;&gt;Node27 -->
<g id="edge34" class="edge">
<title>Node26&#45;&gt;Node27</title>
<path fill="none" stroke="#191970" d="M1223,-235.2455C1223,-227.9382 1223,-217.6944 1223,-208.7046"/>
<polygon fill="#191970" stroke="#191970" points="1226.5001,-208.6426 1223,-198.6427 1219.5001,-208.6427 1226.5001,-208.6426"/>
</g>
<!-- Node29 -->
<g id="node30" class="node">
<title>Node29</title>
<polygon fill="#ffffff" stroke="#bfbfbf" points="1533,-235.5 1533,-254.5 1577,-254.5 1577,-235.5 1533,-235.5"/>
<text text-anchor="middle" x="1555" y="-242.5" font-family="Helvetica,sans-Serif" font-size="10.00" fill="#000000">vector</text>
</g>
<!-- Node28&#45;&gt;Node29 -->
<g id="edge36" class="edge">
<title>Node28&#45;&gt;Node29</title>
<path fill="none" stroke="#191970" d="M1411.5625,-296.8906C1441.7291,-285.9774 1490.9289,-268.1787 1523.1358,-256.5274"/>
<polygon fill="#191970" stroke="#191970" points="1524.7369,-259.6702 1532.9497,-252.977 1522.3555,-253.0877 1524.7369,-259.6702"/>
</g>
<!-- Node30 -->
<g id="node31" class="node">
<title>Node30</title>
<polygon fill="#ffffff" stroke="#bfbfbf" points="1293.5,-235.5 1293.5,-254.5 1334.5,-254.5 1334.5,-235.5 1293.5,-235.5"/>
<text text-anchor="middle" x="1314" y="-242.5" font-family="Helvetica,sans-Serif" font-size="10.00" fill="#000000">string</text>
</g>
<!-- Node28&#45;&gt;Node30 -->
<g id="edge37" class="edge">
<title>Node28&#45;&gt;Node30</title>
<path fill="none" stroke="#191970" d="M1373.9063,-296.8906C1363.0285,-287.4683 1346.2252,-272.9134 1333.18,-261.6137"/>
<polygon fill="#191970" stroke="#191970" points="1335.1004,-258.6466 1325.2502,-254.7449 1330.5173,-263.9377 1335.1004,-258.6466"/>
</g>
<!-- Node31 -->
<g id="node32" class="node">
<title>Node31</title>
<polygon fill="#ffffff" stroke="#bfbfbf" points="1353,-235.5 1353,-254.5 1417,-254.5 1417,-235.5 1353,-235.5"/>
<text text-anchor="middle" x="1385" y="-242.5" font-family="Helvetica,sans-Serif" font-size="10.00" fill="#000000">glad/glad.h</text>
</g>
<!-- Node28&#45;&gt;Node31 -->
<g id="edge38" class="edge">
<title>Node28&#45;&gt;Node31</title>
<path fill="none" stroke="#191970" d="M1385,-296.8906C1385,-288.3657 1385,-275.6392 1385,-264.9235"/>
<polygon fill="#191970" stroke="#191970" points="1388.5001,-264.7448 1385,-254.7449 1381.5001,-264.7449 1388.5001,-264.7448"/>
</g>
<!-- Node32 -->
<g id="node33" class="node">
<title>Node32</title>
<polygon fill="#ffffff" stroke="#bfbfbf" points="1435,-235.5 1435,-254.5 1515,-254.5 1515,-235.5 1435,-235.5"/>
<text text-anchor="middle" x="1475" y="-242.5" font-family="Helvetica,sans-Serif" font-size="10.00" fill="#000000">GLFW/glfw3.h</text>
</g>
<!-- Node28&#45;&gt;Node32 -->
<g id="edge39" class="edge">
<title>Node28&#45;&gt;Node32</title>
<path fill="none" stroke="#191970" d="M1399.0625,-296.8906C1413.3286,-287.1421 1435.635,-271.8994 1452.3872,-260.4521"/>
<polygon fill="#191970" stroke="#191970" points="1454.7545,-263.0736 1461.0362,-254.5419 1450.8051,-257.2941 1454.7545,-263.0736"/>
</g>
</g>
</svg>
