<?xml version="1.0" encoding="UTF-8" standalone="no"?>
<!DOCTYPE svg PUBLIC "-//W3C//DTD SVG 1.1//EN"
 "http://www.w3.org/Graphics/SVG/1.1/DTD/svg11.dtd">
<!-- Generated by graphviz version 2.40.1 (20161225.0304)
 -->
<!-- Title: kryne&#45;engine/src/Camera/Camera.cpp Pages: 1 -->
<svg width="2520pt" height="777pt"
 viewBox="0.00 0.00 2519.97 777.00" xmlns="http://www.w3.org/2000/svg" xmlns:xlink="http://www.w3.org/1999/xlink">
<g id="graph0" class="graph" transform="scale(1 1) rotate(0) translate(4 773)">
<title>kryne&#45;engine/src/Camera/Camera.cpp</title>
<polygon fill="#ffffff" stroke="transparent" points="-4,4 -4,-773 2515.9744,-773 2515.9744,4 -4,4"/>
<!-- Node0 -->
<g id="node1" class="node">
<title>Node0</title>
<polygon fill="#bfbfbf" stroke="#000000" points="1266.9744,-738.5 1266.9744,-768.5 1392.9744,-768.5 1392.9744,-738.5 1266.9744,-738.5"/>
<text text-anchor="start" x="1274.9744" y="-756.5" font-family="Helvetica,sans-Serif" font-size="10.00" fill="#000000">kryne&#45;engine/src/Camera</text>
<text text-anchor="middle" x="1329.9744" y="-745.5" font-family="Helvetica,sans-Serif" font-size="10.00" fill="#000000">/Camera.cpp</text>
</g>
<!-- Node1 -->
<g id="node2" class="node">
<title>Node1</title>
<g id="a_node2"><a xlink:href="kryne-engine_2_camera_2_camera_8h.html" target="_top" xlink:title="kryne&#45;engine/Camera\l/Camera.h">
<polygon fill="#ffffff" stroke="#000000" points="1274.9744,-671.5 1274.9744,-701.5 1384.9744,-701.5 1384.9744,-671.5 1274.9744,-671.5"/>
<text text-anchor="start" x="1282.9744" y="-689.5" font-family="Helvetica,sans-Serif" font-size="10.00" fill="#000000">kryne&#45;engine/Camera</text>
<text text-anchor="middle" x="1329.9744" y="-678.5" font-family="Helvetica,sans-Serif" font-size="10.00" fill="#000000">/Camera.h</text>
</a>
</g>
</g>
<!-- Node0&#45;&gt;Node1 -->
<g id="edge1" class="edge">
<title>Node0&#45;&gt;Node1</title>
<path fill="none" stroke="#191970" d="M1329.9744,-738.2967C1329.9744,-730.5013 1329.9744,-720.7991 1329.9744,-711.9064"/>
<polygon fill="#191970" stroke="#191970" points="1333.4745,-711.6431 1329.9744,-701.6432 1326.4745,-711.6432 1333.4745,-711.6431"/>
</g>
<!-- Node2 -->
<g id="node3" class="node">
<title>Node2</title>
<polygon fill="#ffffff" stroke="#bfbfbf" points="881.9744,-.5 881.9744,-19.5 933.9744,-19.5 933.9744,-.5 881.9744,-.5"/>
<text text-anchor="middle" x="907.9744" y="-7.5" font-family="Helvetica,sans-Serif" font-size="10.00" fill="#000000">memory</text>
</g>
<!-- Node1&#45;&gt;Node2 -->
<g id="edge2" class="edge">
<title>Node1&#45;&gt;Node2</title>
<path fill="none" stroke="#191970" d="M1274.8025,-684.3892C1029.0369,-674.6303 45.9744,-631.6775 45.9744,-569 45.9744,-569 45.9744,-569 45.9744,-384.5 45.9744,-328.579 97.6919,-337.4088 140.9744,-302 178.7484,-271.0977 185.4777,-258.997 227.9744,-235 418.6399,-127.335 477.0618,-118.3038 686.9744,-56 750.9733,-37.0046 827.6527,-22.9213 871.8008,-15.6236"/>
<polygon fill="#191970" stroke="#191970" points="872.4609,-19.0623 881.7682,-14.0002 871.3356,-12.1533 872.4609,-19.0623"/>
</g>
<!-- Node3 -->
<g id="node4" class="node">
<title>Node3</title>
<polygon fill="#ffffff" stroke="#bfbfbf" points="1733.9744,-559.5 1733.9744,-578.5 1819.9744,-578.5 1819.9744,-559.5 1733.9744,-559.5"/>
<text text-anchor="middle" x="1776.9744" y="-566.5" font-family="Helvetica,sans-Serif" font-size="10.00" fill="#000000">glm/mat4x4.hpp</text>
</g>
<!-- Node1&#45;&gt;Node3 -->
<g id="edge3" class="edge">
<title>Node1&#45;&gt;Node3</title>
<path fill="none" stroke="#191970" d="M1385.3019,-683.2295C1494.5997,-676.285 1730.0829,-658.7381 1757.9744,-635 1771.1436,-623.7919 1775.4895,-604.1002 1776.7827,-589.1346"/>
<polygon fill="#191970" stroke="#191970" points="1780.2936,-588.9852 1777.2721,-578.8304 1773.3015,-588.653 1780.2936,-588.9852"/>
</g>
<!-- Node4 -->
<g id="node5" class="node">
<title>Node4</title>
<g id="a_node5"><a xlink:href="_entity_8h.html" target="_top" xlink:title="kryne&#45;engine/Core/Entity.h">
<polygon fill="#ffffff" stroke="#000000" points="1001.4744,-615.5 1001.4744,-634.5 1134.4744,-634.5 1134.4744,-615.5 1001.4744,-615.5"/>
<text text-anchor="middle" x="1067.9744" y="-622.5" font-family="Helvetica,sans-Serif" font-size="10.00" fill="#000000">kryne&#45;engine/Core/Entity.h</text>
</a>
</g>
</g>
<!-- Node1&#45;&gt;Node4 -->
<g id="edge4" class="edge">
<title>Node1&#45;&gt;Node4</title>
<path fill="none" stroke="#191970" d="M1274.7311,-673.5326C1228.5313,-662.688 1163.1785,-647.3475 1118.3847,-636.833"/>
<polygon fill="#191970" stroke="#191970" points="1119.1266,-633.412 1108.5914,-634.5341 1117.5269,-640.2268 1119.1266,-633.412"/>
</g>
<!-- Node97 -->
<g id="node50" class="node">
<title>Node97</title>
<g id="a_node50"><a xlink:href="_projection_data_8hpp.html" target="_top" xlink:title="ProjectionData.hpp">
<polygon fill="#ffffff" stroke="#000000" points="1648.9744,-615.5 1648.9744,-634.5 1748.9744,-634.5 1748.9744,-615.5 1648.9744,-615.5"/>
<text text-anchor="middle" x="1698.9744" y="-622.5" font-family="Helvetica,sans-Serif" font-size="10.00" fill="#000000">ProjectionData.hpp</text>
</a>
</g>
</g>
<!-- Node1&#45;&gt;Node97 -->
<g id="edge99" class="edge">
<title>Node1&#45;&gt;Node97</title>
<path fill="none" stroke="#191970" d="M1385.2174,-677.2928C1453.2453,-665.9549 1568.3878,-646.7644 1638.6627,-635.0519"/>
<polygon fill="#191970" stroke="#191970" points="1639.4061,-638.4764 1648.6946,-633.38 1638.2553,-631.5717 1639.4061,-638.4764"/>
</g>
<!-- Node5 -->
<g id="node6" class="node">
<title>Node5</title>
<polygon fill="#ffffff" stroke="#bfbfbf" points="993.9744,-559.5 993.9744,-578.5 1039.9744,-578.5 1039.9744,-559.5 993.9744,-559.5"/>
<text text-anchor="middle" x="1016.9744" y="-566.5" font-family="Helvetica,sans-Serif" font-size="10.00" fill="#000000">atomic</text>
</g>
<!-- Node4&#45;&gt;Node5 -->
<g id="edge5" class="edge">
<title>Node4&#45;&gt;Node5</title>
<path fill="none" stroke="#191970" d="M1059.0909,-615.2455C1051.7778,-607.2155 1041.2353,-595.6394 1032.5277,-586.0781"/>
<polygon fill="#191970" stroke="#191970" points="1035.0772,-583.6795 1025.7561,-578.6427 1029.9018,-588.3928 1035.0772,-583.6795"/>
</g>
<!-- Node6 -->
<g id="node7" class="node">
<title>Node6</title>
<polygon fill="#ffffff" stroke="#bfbfbf" points="1317.9744,-241 1317.9744,-260 1361.9744,-260 1361.9744,-241 1317.9744,-241"/>
<text text-anchor="middle" x="1339.9744" y="-248" font-family="Helvetica,sans-Serif" font-size="10.00" fill="#000000">vector</text>
</g>
<!-- Node4&#45;&gt;Node6 -->
<g id="edge6" class="edge">
<title>Node4&#45;&gt;Node6</title>
<path fill="none" stroke="#191970" d="M1134.5434,-620.1795C1181.732,-614.7578 1245.5421,-603.2744 1296.9744,-579 1338.9696,-559.1796 1377.9744,-559.4375 1377.9744,-513 1377.9744,-513 1377.9744,-513 1377.9744,-384.5 1377.9744,-342.2065 1360.2368,-295.1555 1348.9987,-269.5895"/>
<polygon fill="#191970" stroke="#191970" points="1352.1085,-267.9726 1344.7871,-260.3143 1345.7348,-270.8667 1352.1085,-267.9726"/>
</g>
<!-- Node7 -->
<g id="node8" class="node">
<title>Node7</title>
<polygon fill="#ffffff" stroke="#bfbfbf" points="935.9744,-308 935.9744,-327 1013.9744,-327 1013.9744,-308 935.9744,-308"/>
<text text-anchor="middle" x="974.9744" y="-315" font-family="Helvetica,sans-Serif" font-size="10.00" fill="#000000">unordered_set</text>
</g>
<!-- Node4&#45;&gt;Node7 -->
<g id="edge7" class="edge">
<title>Node4&#45;&gt;Node7</title>
<path fill="none" stroke="#191970" d="M1086.8342,-615.4839C1121.4809,-596.5908 1189.8848,-551.9254 1168.9744,-503 1134.3515,-421.9906 1045.0653,-359.4651 1000.7341,-332.3028"/>
<polygon fill="#191970" stroke="#191970" points="1002.3667,-329.2006 991.9925,-327.0495 998.761,-335.2005 1002.3667,-329.2006"/>
</g>
<!-- Node8 -->
<g id="node9" class="node">
<title>Node8</title>
<polygon fill="#ffffff" stroke="#bfbfbf" points="56.9744,-.5 56.9744,-19.5 100.9744,-19.5 100.9744,-.5 56.9744,-.5"/>
<text text-anchor="middle" x="78.9744" y="-7.5" font-family="Helvetica,sans-Serif" font-size="10.00" fill="#000000">mutex</text>
</g>
<!-- Node4&#45;&gt;Node8 -->
<g id="edge8" class="edge">
<title>Node4&#45;&gt;Node8</title>
<path fill="none" stroke="#191970" d="M1001.1194,-622.4152C885.2706,-617.4308 639.8582,-604.6427 433.9744,-579 292.4353,-561.3714 238.2104,-599.7295 117.9744,-523 -14.6162,-438.3863 .9744,-346.2888 .9744,-189 .9744,-189 .9744,-189 .9744,-133 .9744,-97.7513 .7975,-85.5756 19.9744,-56 28.1393,-43.4077 40.9532,-32.8114 52.5561,-24.9747"/>
<polygon fill="#191970" stroke="#191970" points="54.5437,-27.8583 61.0957,-19.5324 50.7816,-21.9552 54.5437,-27.8583"/>
</g>
<!-- Node9 -->
<g id="node10" class="node">
<title>Node9</title>
<polygon fill="#ffffff" stroke="#bfbfbf" points="805.9744,-241 805.9744,-260 853.9744,-260 853.9744,-241 805.9744,-241"/>
<text text-anchor="middle" x="829.9744" y="-248" font-family="Helvetica,sans-Serif" font-size="10.00" fill="#000000">imgui.h</text>
</g>
<!-- Node4&#45;&gt;Node9 -->
<g id="edge9" class="edge">
<title>Node4&#45;&gt;Node9</title>
<path fill="none" stroke="#191970" d="M1001.4149,-622.4471C875.4801,-615.9904 610.3992,-594.0728 559.9744,-523 554.8309,-515.7504 555.4441,-510.6478 559.9744,-503 608.5321,-421.0288 666.3157,-449.0815 747.9744,-400 759.5963,-393.0146 843.5355,-344.9333 849.9744,-333 860.8558,-312.8334 851.1416,-286.7305 841.8357,-269.3413"/>
<polygon fill="#191970" stroke="#191970" points="844.5978,-267.126 836.5625,-260.2206 838.5377,-270.6296 844.5978,-267.126"/>
</g>
<!-- Node10 -->
<g id="node11" class="node">
<title>Node10</title>
<g id="a_node11"><a xlink:href="_transform_8h.html" target="_top" xlink:title="kryne&#45;engine/3DObjects\l/Transform.h">
<polygon fill="#ffffff" stroke="#000000" points="1555.9744,-436.5 1555.9744,-466.5 1677.9744,-466.5 1677.9744,-436.5 1555.9744,-436.5"/>
<text text-anchor="start" x="1563.9744" y="-454.5" font-family="Helvetica,sans-Serif" font-size="10.00" fill="#000000">kryne&#45;engine/3DObjects</text>
<text text-anchor="middle" x="1616.9744" y="-443.5" font-family="Helvetica,sans-Serif" font-size="10.00" fill="#000000">/Transform.h</text>
</a>
</g>
</g>
<!-- Node4&#45;&gt;Node10 -->
<g id="edge10" class="edge">
<title>Node4&#45;&gt;Node10</title>
<path fill="none" stroke="#191970" d="M1134.739,-617.809C1213.1272,-609.3001 1337.9337,-594.3416 1382.9744,-579 1458.9183,-553.1323 1538.4663,-501.2567 1582.647,-472.2835"/>
<polygon fill="#191970" stroke="#191970" points="1584.8167,-475.0463 1591.262,-466.6375 1580.9796,-469.1917 1584.8167,-475.0463"/>
</g>
<!-- Node44 -->
<g id="node25" class="node">
<title>Node44</title>
<g id="a_node25"><a xlink:href="_component_8h.html" target="_top" xlink:title="Component.h">
<polygon fill="#ffffff" stroke="#000000" points="766.4744,-308 766.4744,-327 841.4744,-327 841.4744,-308 766.4744,-308"/>
<text text-anchor="middle" x="803.9744" y="-315" font-family="Helvetica,sans-Serif" font-size="10.00" fill="#000000">Component.h</text>
</a>
</g>
</g>
<!-- Node4&#45;&gt;Node44 -->
<g id="edge31" class="edge">
<title>Node4&#45;&gt;Node44</title>
<path fill="none" stroke="#191970" d="M1001.2555,-622.6187C843.682,-616.472 460.6659,-599.1369 441.9744,-579 397.4605,-531.0438 424.0282,-474.4445 476.9744,-436 555.0184,-379.332 602.856,-439.208 690.9744,-400 726.8229,-384.0493 760.9869,-352.8264 782.4991,-333.6992"/>
<polygon fill="#191970" stroke="#191970" points="784.9007,-336.2482 790.1016,-327.0178 780.2796,-330.9902 784.9007,-336.2482"/>
</g>
<!-- Node45 -->
<g id="node27" class="node">
<title>Node45</title>
<g id="a_node27"><a xlink:href="_process_8h.html" target="_top" xlink:title="Process.h">
<polygon fill="#ffffff" stroke="#000000" points="729.4744,-559.5 729.4744,-578.5 790.4744,-578.5 790.4744,-559.5 729.4744,-559.5"/>
<text text-anchor="middle" x="759.9744" y="-566.5" font-family="Helvetica,sans-Serif" font-size="10.00" fill="#000000">Process.h</text>
</a>
</g>
</g>
<!-- Node4&#45;&gt;Node45 -->
<g id="edge36" class="edge">
<title>Node4&#45;&gt;Node45</title>
<path fill="none" stroke="#191970" d="M1010.1478,-615.4369C948.9564,-604.6957 854.1329,-587.4385 800.4561,-577.2612"/>
<polygon fill="#191970" stroke="#191970" points="801.089,-573.8189 790.6106,-575.3853 799.7788,-580.6952 801.089,-573.8189"/>
</g>
<!-- Node10&#45;&gt;Node2 -->
<g id="edge11" class="edge">
<title>Node10&#45;&gt;Node2</title>
<path fill="none" stroke="#191970" d="M1563.81,-436.4255C1544.5927,-428.4896 1524.356,-416.806 1510.9744,-400 1487.5369,-370.5648 1491.9744,-355.1265 1491.9744,-317.5 1491.9744,-317.5 1491.9744,-317.5 1491.9744,-133 1491.9744,-45.5788 1395.5036,-78.2999 1310.9744,-56 1179.1771,-21.2301 1016.2912,-12.7416 944.6776,-10.6693"/>
<polygon fill="#191970" stroke="#191970" points="944.4757,-7.1629 934.387,-10.3982 944.2913,-14.1604 944.4757,-7.1629"/>
</g>
<!-- Node10&#45;&gt;Node4 -->
<g id="edge30" class="edge">
<title>Node10&#45;&gt;Node4</title>
<path fill="none" stroke="#191970" d="M1601.7863,-466.6375C1567.4441,-493.9854 1482.1503,-551.3502 1400.9744,-579 1355.4139,-594.5186 1228.2358,-609.6453 1144.8252,-618.101"/>
<polygon fill="#191970" stroke="#191970" points="1144.2266,-614.6434 1134.6257,-619.1238 1144.9251,-621.6084 1144.2266,-614.6434"/>
</g>
<!-- Node10&#45;&gt;Node6 -->
<g id="edge12" class="edge">
<title>Node10&#45;&gt;Node6</title>
<path fill="none" stroke="#191970" d="M1557.0505,-436.4557C1531.2933,-428.2381 1501.7197,-416.3384 1477.9744,-400 1430.2351,-367.1521 1431.6964,-344.1922 1391.9744,-302 1380.7309,-290.0573 1367.6038,-277.0633 1357.352,-267.1153"/>
<polygon fill="#191970" stroke="#191970" points="1359.7788,-264.5933 1350.1517,-260.1696 1354.9189,-269.6313 1359.7788,-264.5933"/>
</g>
<!-- Node11 -->
<g id="node12" class="node">
<title>Node11</title>
<polygon fill="#ffffff" stroke="#bfbfbf" points="1520.4744,-375 1520.4744,-394 1563.4744,-394 1563.4744,-375 1520.4744,-375"/>
<text text-anchor="middle" x="1541.9744" y="-382" font-family="Helvetica,sans-Serif" font-size="10.00" fill="#000000">queue</text>
</g>
<!-- Node10&#45;&gt;Node11 -->
<g id="edge13" class="edge">
<title>Node10&#45;&gt;Node11</title>
<path fill="none" stroke="#191970" d="M1599.9558,-436.2967C1588.157,-425.7564 1572.4561,-411.7303 1560.3687,-400.9323"/>
<polygon fill="#191970" stroke="#191970" points="1562.4597,-398.107 1552.6703,-394.055 1557.7962,-403.3273 1562.4597,-398.107"/>
</g>
<!-- Node12 -->
<g id="node13" class="node">
<title>Node12</title>
<polygon fill="#ffffff" stroke="#bfbfbf" points="1581.9744,-375 1581.9744,-394 1651.9744,-394 1651.9744,-375 1581.9744,-375"/>
<text text-anchor="middle" x="1616.9744" y="-382" font-family="Helvetica,sans-Serif" font-size="10.00" fill="#000000">glm/glm.hpp</text>
</g>
<!-- Node10&#45;&gt;Node12 -->
<g id="edge14" class="edge">
<title>Node10&#45;&gt;Node12</title>
<path fill="none" stroke="#191970" d="M1616.9744,-436.2967C1616.9744,-426.7699 1616.9744,-414.3954 1616.9744,-404.1306"/>
<polygon fill="#191970" stroke="#191970" points="1620.4745,-404.0549 1616.9744,-394.055 1613.4745,-404.055 1620.4745,-404.0549"/>
</g>
<!-- Node13 -->
<g id="node14" class="node">
<title>Node13</title>
<polygon fill="#ffffff" stroke="#bfbfbf" points="1669.9744,-375 1669.9744,-394 1761.9744,-394 1761.9744,-375 1669.9744,-375"/>
<text text-anchor="middle" x="1715.9744" y="-382" font-family="Helvetica,sans-Serif" font-size="10.00" fill="#000000">glm/common.hpp</text>
</g>
<!-- Node10&#45;&gt;Node13 -->
<g id="edge15" class="edge">
<title>Node10&#45;&gt;Node13</title>
<path fill="none" stroke="#191970" d="M1639.439,-436.2967C1655.6125,-425.351 1677.3405,-410.6462 1693.5132,-399.701"/>
<polygon fill="#191970" stroke="#191970" points="1695.5359,-402.5584 1701.8559,-394.055 1691.6125,-396.7612 1695.5359,-402.5584"/>
</g>
<!-- Node14 -->
<g id="node15" class="node">
<title>Node14</title>
<polygon fill="#ffffff" stroke="#bfbfbf" points="1780.4744,-375 1780.4744,-394 1861.4744,-394 1861.4744,-375 1780.4744,-375"/>
<text text-anchor="middle" x="1820.9744" y="-382" font-family="Helvetica,sans-Serif" font-size="10.00" fill="#000000">glm/matrix.hpp</text>
</g>
<!-- Node10&#45;&gt;Node14 -->
<g id="edge16" class="edge">
<title>Node10&#45;&gt;Node14</title>
<path fill="none" stroke="#191970" d="M1662.756,-436.4639C1698.7875,-424.63 1748.4302,-408.3258 1782.4449,-397.1543"/>
<polygon fill="#191970" stroke="#191970" points="1783.6244,-400.4509 1792.0329,-394.0053 1781.4401,-393.8004 1783.6244,-400.4509"/>
</g>
<!-- Node15 -->
<g id="node16" class="node">
<title>Node15</title>
<polygon fill="#ffffff" stroke="#bfbfbf" points="2227.4744,-241 2227.4744,-260 2302.4744,-260 2302.4744,-241 2227.4744,-241"/>
<text text-anchor="middle" x="2264.9744" y="-248" font-family="Helvetica,sans-Serif" font-size="10.00" fill="#000000">glm/vec3.hpp</text>
</g>
<!-- Node10&#45;&gt;Node15 -->
<g id="edge17" class="edge">
<title>Node10&#45;&gt;Node15</title>
<path fill="none" stroke="#191970" d="M1678.245,-438.0746C1682.8776,-437.2936 1687.4922,-436.5882 1691.9744,-436 1761.3826,-426.8916 2272.9096,-450.8944 2320.9744,-400 2356.9813,-361.8734 2309.1709,-298.4376 2281.7731,-267.9326"/>
<polygon fill="#191970" stroke="#191970" points="2284.031,-265.2189 2274.6735,-260.2503 2278.8901,-269.9699 2284.031,-265.2189"/>
</g>
<!-- Node16 -->
<g id="node17" class="node">
<title>Node16</title>
<polygon fill="#ffffff" stroke="#bfbfbf" points="1879.9744,-375 1879.9744,-394 1995.9744,-394 1995.9744,-375 1879.9744,-375"/>
<text text-anchor="middle" x="1937.9744" y="-382" font-family="Helvetica,sans-Serif" font-size="10.00" fill="#000000">glm/gtc/quaternion.hpp</text>
</g>
<!-- Node10&#45;&gt;Node16 -->
<g id="edge18" class="edge">
<title>Node10&#45;&gt;Node16</title>
<path fill="none" stroke="#191970" d="M1678.3639,-438.7851C1682.9691,-437.8398 1687.5449,-436.9031 1691.9744,-436 1771.4871,-419.7881 1791.6581,-417.1468 1870.9744,-400 1876.3716,-398.8332 1882.0055,-397.5821 1887.6144,-396.3152"/>
<polygon fill="#191970" stroke="#191970" points="1888.655,-399.6679 1897.6268,-394.0327 1887.099,-392.843 1888.655,-399.6679"/>
</g>
<!-- Node17 -->
<g id="node18" class="node">
<title>Node17</title>
<polygon fill="#ffffff" stroke="#bfbfbf" points="2013.9744,-375 2013.9744,-394 2129.9744,-394 2129.9744,-375 2013.9744,-375"/>
<text text-anchor="middle" x="2071.9744" y="-382" font-family="Helvetica,sans-Serif" font-size="10.00" fill="#000000">glm/gtx/quaternion.hpp</text>
</g>
<!-- Node10&#45;&gt;Node17 -->
<g id="edge19" class="edge">
<title>Node10&#45;&gt;Node17</title>
<path fill="none" stroke="#191970" d="M1678.2872,-438.3639C1682.9101,-437.516 1687.5109,-436.7164 1691.9744,-436 1830.2329,-413.8078 1866.9868,-423.8184 2004.9744,-400 2011.2283,-398.9205 2017.7738,-397.621 2024.2201,-396.2394"/>
<polygon fill="#191970" stroke="#191970" points="2025.2088,-399.6052 2034.2123,-394.0206 2023.6913,-392.7717 2025.2088,-399.6052"/>
</g>
<!-- Node18 -->
<g id="node19" class="node">
<title>Node18</title>
<polygon fill="#ffffff" stroke="#bfbfbf" points="2367.9744,-375 2367.9744,-394 2511.9744,-394 2511.9744,-375 2367.9744,-375"/>
<text text-anchor="middle" x="2439.9744" y="-382" font-family="Helvetica,sans-Serif" font-size="10.00" fill="#000000">glm/gtc/matrix_transform.hpp</text>
</g>
<!-- Node10&#45;&gt;Node18 -->
<g id="edge20" class="edge">
<title>Node10&#45;&gt;Node18</title>
<path fill="none" stroke="#191970" d="M1678.2431,-438.0602C1682.8762,-437.2825 1687.4914,-436.5818 1691.9744,-436 1984.1807,-398.0764 2061.3087,-434.198 2353.9744,-400 2363.4806,-398.8892 2373.5241,-397.3846 2383.2629,-395.7477"/>
<polygon fill="#191970" stroke="#191970" points="2384.0152,-399.1695 2393.2661,-394.005 2382.8137,-392.2733 2384.0152,-399.1695"/>
</g>
<!-- Node19 -->
<g id="node20" class="node">
<title>Node19</title>
<g id="a_node20"><a xlink:href="_transform_8hpp.html" target="_top" xlink:title="kryne&#45;engine/Math/Transform.hpp">
<polygon fill="#ffffff" stroke="#000000" points="2148.4744,-375 2148.4744,-394 2311.4744,-394 2311.4744,-375 2148.4744,-375"/>
<text text-anchor="middle" x="2229.9744" y="-382" font-family="Helvetica,sans-Serif" font-size="10.00" fill="#000000">kryne&#45;engine/Math/Transform.hpp</text>
</a>
</g>
</g>
<!-- Node10&#45;&gt;Node19 -->
<g id="edge21" class="edge">
<title>Node10&#45;&gt;Node19</title>
<path fill="none" stroke="#191970" d="M1678.261,-438.1918C1682.89,-437.3836 1687.4993,-436.6401 1691.9744,-436 1889.276,-407.7771 1941.2081,-424.7573 2138.9744,-400 2148.5343,-398.8033 2158.6225,-397.3138 2168.4638,-395.7351"/>
<polygon fill="#191970" stroke="#191970" points="2169.2992,-399.1448 2178.5975,-394.0662 2168.1617,-392.2378 2169.2992,-399.1448"/>
</g>
<!-- Node21 -->
<g id="node22" class="node">
<title>Node21</title>
<g id="a_node22"><a xlink:href="_scene_8h.html" target="_top" xlink:title="Scene.h">
<polygon fill="#ffffff" stroke="#000000" points="1155.4744,-375 1155.4744,-394 1208.4744,-394 1208.4744,-375 1155.4744,-375"/>
<text text-anchor="middle" x="1181.9744" y="-382" font-family="Helvetica,sans-Serif" font-size="10.00" fill="#000000">Scene.h</text>
</a>
</g>
</g>
<!-- Node10&#45;&gt;Node21 -->
<g id="edge24" class="edge">
<title>Node10&#45;&gt;Node21</title>
<path fill="none" stroke="#191970" d="M1555.5721,-442.0426C1463.8298,-427.9122 1293.7733,-401.7196 1218.9447,-390.1943"/>
<polygon fill="#191970" stroke="#191970" points="1219.0324,-386.6666 1208.6161,-388.6034 1217.9667,-393.585 1219.0324,-386.6666"/>
</g>
<!-- Node19&#45;&gt;Node15 -->
<g id="edge22" class="edge">
<title>Node19&#45;&gt;Node15</title>
<path fill="none" stroke="#191970" d="M2233.2623,-374.6911C2236.6629,-364.3765 2242.0197,-347.6426 2245.9744,-333 2251.7038,-311.7868 2257.2211,-287.2143 2260.8202,-270.4406"/>
<polygon fill="#191970" stroke="#191970" points="2264.3387,-270.7191 2262.9844,-260.2111 2257.4903,-269.2701 2264.3387,-270.7191"/>
</g>
<!-- Node20 -->
<g id="node21" class="node">
<title>Node20</title>
<polygon fill="#ffffff" stroke="#bfbfbf" points="2150.9744,-308 2150.9744,-327 2236.9744,-327 2236.9744,-308 2150.9744,-308"/>
<text text-anchor="middle" x="2193.9744" y="-315" font-family="Helvetica,sans-Serif" font-size="10.00" fill="#000000">glm/mat3x3.hpp</text>
</g>
<!-- Node19&#45;&gt;Node20 -->
<g id="edge23" class="edge">
<title>Node19&#45;&gt;Node20</title>
<path fill="none" stroke="#191970" d="M2224.8165,-374.9005C2219.4165,-364.8505 2210.7989,-348.8122 2204.0438,-336.2403"/>
<polygon fill="#191970" stroke="#191970" points="2206.9391,-334.234 2199.1228,-327.0817 2200.7728,-337.5472 2206.9391,-334.234"/>
</g>
<!-- Node21&#45;&gt;Node2 -->
<g id="edge26" class="edge">
<title>Node21&#45;&gt;Node2</title>
<path fill="none" stroke="#191970" d="M1156.0863,-374.919C1122.5095,-362.2764 1067.444,-340.722 1060.9744,-333 1036.8103,-304.1582 1041.9744,-288.1265 1041.9744,-250.5 1041.9744,-250.5 1041.9744,-250.5 1041.9744,-133 1041.9744,-78.8837 981.9269,-42.1016 942.2252,-23.6966"/>
<polygon fill="#191970" stroke="#191970" points="943.4231,-20.3985 932.8647,-19.5194 940.5703,-26.7908 943.4231,-20.3985"/>
</g>
<!-- Node21&#45;&gt;Node4 -->
<g id="edge27" class="edge">
<title>Node21&#45;&gt;Node4</title>
<path fill="none" stroke="#191970" d="M1179.3044,-394.1539C1175.3944,-410.3761 1169.9029,-443.6202 1182.9744,-467 1197.5964,-493.1529 1225.5112,-476.759 1239.9744,-503 1256.2791,-532.582 1260.5434,-552.2072 1239.9744,-579 1227.9145,-594.7091 1184.8332,-606.2171 1144.8076,-613.7939"/>
<polygon fill="#191970" stroke="#191970" points="1143.9271,-610.3967 1134.7182,-615.6356 1145.1842,-617.2829 1143.9271,-610.3967"/>
</g>
<!-- Node21&#45;&gt;Node7 -->
<g id="edge25" class="edge">
<title>Node21&#45;&gt;Node7</title>
<path fill="none" stroke="#191970" d="M1157.3461,-374.9127C1151.9721,-372.8983 1146.2997,-370.8308 1140.9744,-369 1099.469,-354.7308 1051.5395,-340.051 1017.885,-330.0336"/>
<polygon fill="#191970" stroke="#191970" points="1018.504,-326.5666 1007.9216,-327.0801 1016.5145,-333.278 1018.504,-326.5666"/>
</g>
<!-- Node22 -->
<g id="node23" class="node">
<title>Node22</title>
<g id="a_node23"><a xlink:href="_environment_map_8hpp.html" target="_top" xlink:title="kryne&#45;engine/Textures\l/EnvironmentMap.hpp">
<polygon fill="#ffffff" stroke="#000000" points="1070.4744,-302.5 1070.4744,-332.5 1183.4744,-332.5 1183.4744,-302.5 1070.4744,-302.5"/>
<text text-anchor="start" x="1078.4744" y="-320.5" font-family="Helvetica,sans-Serif" font-size="10.00" fill="#000000">kryne&#45;engine/Textures</text>
<text text-anchor="middle" x="1126.9744" y="-309.5" font-family="Helvetica,sans-Serif" font-size="10.00" fill="#000000">/EnvironmentMap.hpp</text>
</a>
</g>
</g>
<!-- Node21&#45;&gt;Node22 -->
<g id="edge28" class="edge">
<title>Node21&#45;&gt;Node22</title>
<path fill="none" stroke="#191970" d="M1174.0943,-374.9005C1166.7093,-365.9043 1155.3856,-352.1099 1145.6897,-340.2986"/>
<polygon fill="#191970" stroke="#191970" points="1148.3559,-338.0303 1139.3057,-332.5218 1142.9454,-342.4718 1148.3559,-338.0303"/>
</g>
<!-- Node23 -->
<g id="node24" class="node">
<title>Node23</title>
<g id="a_node24"><a xlink:href="_cube_texture_8h.html" target="_top" xlink:title="CubeTexture.h">
<polygon fill="#ffffff" stroke="#ff0000" points="1086.4744,-241 1086.4744,-260 1167.4744,-260 1167.4744,-241 1086.4744,-241"/>
<text text-anchor="middle" x="1126.9744" y="-248" font-family="Helvetica,sans-Serif" font-size="10.00" fill="#000000">CubeTexture.h</text>
</a>
</g>
</g>
<!-- Node22&#45;&gt;Node23 -->
<g id="edge29" class="edge">
<title>Node22&#45;&gt;Node23</title>
<path fill="none" stroke="#191970" d="M1126.9744,-302.2967C1126.9744,-292.7699 1126.9744,-280.3954 1126.9744,-270.1306"/>
<polygon fill="#191970" stroke="#191970" points="1130.4745,-270.0549 1126.9744,-260.055 1123.4745,-270.055 1130.4745,-270.0549"/>
</g>
<!-- Node44&#45;&gt;Node4 -->
<g id="edge35" class="edge">
<title>Node44&#45;&gt;Node4</title>
<path fill="none" stroke="#191970" d="M800.5078,-327.0178C787.6885,-344.5995 749.4027,-382.0116 708.9744,-400 620.856,-439.208 573.0184,-379.332 494.9744,-436 442.0282,-474.4445 415.4605,-531.0438 459.9744,-579 477.918,-598.3311 831.6129,-615.0802 991.1622,-621.8277"/>
<polygon fill="#191970" stroke="#191970" points="991.2468,-625.3342 1001.3851,-622.2576 991.541,-618.3404 991.2468,-625.3342"/>
</g>
<!-- Node44&#45;&gt;Node6 -->
<g id="edge32" class="edge">
<title>Node44&#45;&gt;Node6</title>
<path fill="none" stroke="#191970" d="M841.6556,-312.7387C865.9985,-309.666 898.3575,-305.5873 926.9744,-302 1068.5284,-284.2553 1237.3953,-263.2486 1307.2475,-254.5663"/>
<polygon fill="#191970" stroke="#191970" points="1308.0969,-257.9878 1317.5889,-253.281 1307.2335,-251.0412 1308.0969,-257.9878"/>
</g>
<!-- Node44&#45;&gt;Node9 -->
<g id="edge33" class="edge">
<title>Node44&#45;&gt;Node9</title>
<path fill="none" stroke="#191970" d="M807.6996,-307.9005C811.561,-297.95 817.7004,-282.1292 822.5567,-269.6147"/>
<polygon fill="#191970" stroke="#191970" points="825.9013,-270.6706 826.2562,-260.0817 819.3754,-268.1381 825.9013,-270.6706"/>
</g>
<!-- Node26 -->
<g id="node26" class="node">
<title>Node26</title>
<polygon fill="#ffffff" stroke="#bfbfbf" points="493.4744,-241 493.4744,-260 534.4744,-260 534.4744,-241 493.4744,-241"/>
<text text-anchor="middle" x="513.9744" y="-248" font-family="Helvetica,sans-Serif" font-size="10.00" fill="#000000">string</text>
</g>
<!-- Node44&#45;&gt;Node26 -->
<g id="edge34" class="edge">
<title>Node44&#45;&gt;Node26</title>
<path fill="none" stroke="#191970" d="M766.3593,-308.8096C708.3137,-295.3991 598.035,-269.9209 544.5656,-257.5676"/>
<polygon fill="#191970" stroke="#191970" points="545.1927,-254.1204 534.6615,-255.2794 543.6169,-260.9407 545.1927,-254.1204"/>
</g>
<!-- Node45&#45;&gt;Node2 -->
<g id="edge37" class="edge">
<title>Node45&#45;&gt;Node2</title>
<path fill="none" stroke="#191970" d="M768.5474,-559.2921C776.1709,-550.3226 787.2721,-536.3976 794.9744,-523 860.321,-409.3339 907.9744,-381.6113 907.9744,-250.5 907.9744,-250.5 907.9744,-250.5 907.9744,-133 907.9744,-96.4994 907.9744,-53.906 907.9744,-29.6285"/>
<polygon fill="#191970" stroke="#191970" points="911.4745,-29.5691 907.9744,-19.5691 904.4745,-29.5692 911.4745,-29.5691"/>
</g>
<!-- Node45&#45;&gt;Node4 -->
<g id="edge62" class="edge">
<title>Node45&#45;&gt;Node4</title>
<path fill="none" stroke="#191970" d="M790.7253,-573.862C842.0239,-582.6389 945.4462,-601.3484 1010.508,-613.5389"/>
<polygon fill="#191970" stroke="#191970" points="1010.1324,-617.0295 1020.6068,-615.4369 1011.4254,-610.1499 1010.1324,-617.0295"/>
</g>
<!-- Node45&#45;&gt;Node7 -->
<g id="edge39" class="edge">
<title>Node45&#45;&gt;Node7</title>
<path fill="none" stroke="#191970" d="M779.5764,-559.3373C794.3746,-551.2605 814.3853,-538.571 827.9744,-523 856.3349,-490.5034 846.9891,-471.8476 870.9744,-436 897.2746,-396.6928 935.4481,-356.4647 957.4873,-334.4643"/>
<polygon fill="#191970" stroke="#191970" points="960.1684,-336.7356 964.8251,-327.219 955.2501,-331.7545 960.1684,-336.7356"/>
</g>
<!-- Node46 -->
<g id="node28" class="node">
<title>Node46</title>
<polygon fill="#ffffff" stroke="#bfbfbf" points="301.4744,-241 301.4744,-260 384.4744,-260 384.4744,-241 301.4744,-241"/>
<text text-anchor="middle" x="342.9744" y="-248" font-family="Helvetica,sans-Serif" font-size="10.00" fill="#000000">unordered_map</text>
</g>
<!-- Node45&#45;&gt;Node46 -->
<g id="edge38" class="edge">
<title>Node45&#45;&gt;Node46</title>
<path fill="none" stroke="#191970" d="M729.2042,-568.1951C622.3715,-564.5793 273.9744,-545.5759 273.9744,-451.5 273.9744,-451.5 273.9744,-451.5 273.9744,-384.5 273.9744,-346.8735 274.9852,-335.0476 292.9744,-302 300.3082,-288.5272 312.1494,-276.1039 322.4678,-266.8357"/>
<polygon fill="#191970" stroke="#191970" points="324.9877,-269.2856 330.3013,-260.1195 320.4314,-263.9714 324.9877,-269.2856"/>
</g>
<!-- Node27 -->
<g id="node29" class="node">
<title>Node27</title>
<polygon fill="#ffffff" stroke="#bfbfbf" points="304.9744,-.5 304.9744,-19.5 358.9744,-19.5 358.9744,-.5 304.9744,-.5"/>
<text text-anchor="middle" x="331.9744" y="-7.5" font-family="Helvetica,sans-Serif" font-size="10.00" fill="#000000">iostream</text>
</g>
<!-- Node45&#45;&gt;Node27 -->
<g id="edge40" class="edge">
<title>Node45&#45;&gt;Node27</title>
<path fill="none" stroke="#191970" d="M729.1939,-567.9129C623.6312,-563.9628 280.4835,-549.2082 238.9744,-523 148.1219,-465.637 102.849,-402.4547 140.9744,-302 174.4885,-213.6954 233.2091,-223.8878 281.9744,-143 304.5863,-105.4934 319.8829,-56.0418 327.1353,-29.2524"/>
<polygon fill="#191970" stroke="#191970" points="330.5258,-30.1209 329.673,-19.5605 323.7541,-28.3478 330.5258,-30.1209"/>
</g>
<!-- Node47 -->
<g id="node30" class="node">
<title>Node47</title>
<polygon fill="#ffffff" stroke="#bfbfbf" points="569.4744,-503.5 569.4744,-522.5 610.4744,-522.5 610.4744,-503.5 569.4744,-503.5"/>
<text text-anchor="middle" x="589.9744" y="-510.5" font-family="Helvetica,sans-Serif" font-size="10.00" fill="#000000">stack</text>
</g>
<!-- Node45&#45;&gt;Node47 -->
<g id="edge41" class="edge">
<title>Node45&#45;&gt;Node47</title>
<path fill="none" stroke="#191970" d="M730.2187,-559.4518C703.6024,-550.8759 663.2902,-537.8016 620.1037,-523.3471"/>
<polygon fill="#191970" stroke="#191970" points="621.149,-520.0061 610.5551,-520.1442 618.9228,-526.6428 621.149,-520.0061"/>
</g>
<!-- Node48 -->
<g id="node31" class="node">
<title>Node48</title>
<g id="a_node31"><a xlink:href="_system_types_8h.html" target="_top" xlink:title="kryne&#45;engine/enums\l/SystemTypes.h">
<polygon fill="#ffffff" stroke="#000000" points="879.9744,-436.5 879.9744,-466.5 983.9744,-466.5 983.9744,-436.5 879.9744,-436.5"/>
<text text-anchor="start" x="887.9744" y="-454.5" font-family="Helvetica,sans-Serif" font-size="10.00" fill="#000000">kryne&#45;engine/enums</text>
<text text-anchor="middle" x="931.9744" y="-443.5" font-family="Helvetica,sans-Serif" font-size="10.00" fill="#000000">/SystemTypes.h</text>
</a>
</g>
</g>
<!-- Node45&#45;&gt;Node48 -->
<g id="edge42" class="edge">
<title>Node45&#45;&gt;Node48</title>
<path fill="none" stroke="#191970" d="M790.4956,-559.5693C812.6736,-551.8409 842.747,-539.4915 865.9744,-523 884.9186,-509.5496 902.5567,-489.915 914.8245,-474.6229"/>
<polygon fill="#191970" stroke="#191970" points="917.6623,-476.6756 921.0616,-466.6409 912.1465,-472.3656 917.6623,-476.6756"/>
</g>
<!-- Node33 -->
<g id="node32" class="node">
<title>Node33</title>
<g id="a_node32"><a xlink:href="_dispatcher_8h.html" target="_top" xlink:title="kryne&#45;engine/Dispatch\l/Dispatcher.h">
<polygon fill="#ffffff" stroke="#000000" points="28.9744,-235.5 28.9744,-265.5 142.9744,-265.5 142.9744,-235.5 28.9744,-235.5"/>
<text text-anchor="start" x="36.9744" y="-253.5" font-family="Helvetica,sans-Serif" font-size="10.00" fill="#000000">kryne&#45;engine/Dispatch</text>
<text text-anchor="middle" x="85.9744" y="-242.5" font-family="Helvetica,sans-Serif" font-size="10.00" fill="#000000">/Dispatcher.h</text>
</a>
</g>
</g>
<!-- Node45&#45;&gt;Node33 -->
<g id="edge43" class="edge">
<title>Node45&#45;&gt;Node33</title>
<path fill="none" stroke="#191970" d="M729.2738,-568.6997C625.0523,-567.3476 285.6242,-560.1289 183.9744,-523 132.6544,-504.2547 83.9744,-506.1364 83.9744,-451.5 83.9744,-451.5 83.9744,-451.5 83.9744,-384.5 83.9744,-346.6692 84.7812,-302.8375 85.37,-275.8892"/>
<polygon fill="#191970" stroke="#191970" points="88.8717,-275.8483 85.5982,-265.7718 81.8735,-275.6903 88.8717,-275.8483"/>
</g>
<!-- Node49 -->
<g id="node38" class="node">
<title>Node49</title>
<g id="a_node38"><a xlink:href="_unique_ptr_vector_8hpp.html" target="_top" xlink:title="kryne&#45;engine/Utils\l/UniquePtrVector.hpp">
<polygon fill="#ffffff" stroke="#000000" points="1201.9744,-302.5 1201.9744,-332.5 1311.9744,-332.5 1311.9744,-302.5 1201.9744,-302.5"/>
<text text-anchor="start" x="1209.9744" y="-320.5" font-family="Helvetica,sans-Serif" font-size="10.00" fill="#000000">kryne&#45;engine/Utils</text>
<text text-anchor="middle" x="1256.9744" y="-309.5" font-family="Helvetica,sans-Serif" font-size="10.00" fill="#000000">/UniquePtrVector.hpp</text>
</a>
</g>
</g>
<!-- Node45&#45;&gt;Node49 -->
<g id="edge55" class="edge">
<title>Node45&#45;&gt;Node49</title>
<path fill="none" stroke="#191970" d="M790.6821,-568.0884C859.3725,-565.4996 1030.2932,-555.9937 1168.9744,-523 1238.6085,-506.4334 1279.0973,-525.7573 1319.9744,-467 1348.3239,-426.25 1307.7755,-370.7478 1279.7607,-340.122"/>
<polygon fill="#191970" stroke="#191970" points="1282.0152,-337.4112 1272.6087,-332.536 1276.9219,-342.2131 1282.0152,-337.4112"/>
</g>
<!-- Node50 -->
<g id="node39" class="node">
<title>Node50</title>
<g id="a_node39"><a xlink:href="_frame_time_8hpp.html" target="_top" xlink:title="kryne&#45;engine/Utils\l/FrameTime.hpp">
<polygon fill="#ffffff" stroke="#000000" points="150.4744,-302.5 150.4744,-332.5 245.4744,-332.5 245.4744,-302.5 150.4744,-302.5"/>
<text text-anchor="start" x="158.4744" y="-320.5" font-family="Helvetica,sans-Serif" font-size="10.00" fill="#000000">kryne&#45;engine/Utils</text>
<text text-anchor="middle" x="197.9744" y="-309.5" font-family="Helvetica,sans-Serif" font-size="10.00" fill="#000000">/FrameTime.hpp</text>
</a>
</g>
</g>
<!-- Node45&#45;&gt;Node50 -->
<g id="edge58" class="edge">
<title>Node45&#45;&gt;Node50</title>
<path fill="none" stroke="#191970" d="M729.123,-568.1407C625.7953,-564.9952 296.3514,-552.7041 259.9744,-523 205.2915,-478.3479 197.5885,-387.2446 197.2792,-342.8927"/>
<polygon fill="#191970" stroke="#191970" points="200.7802,-342.7001 197.3358,-332.6808 193.7803,-342.6613 200.7802,-342.7001"/>
</g>
<!-- Node52 -->
<g id="node41" class="node">
<title>Node52</title>
<g id="a_node41"><a xlink:href="_system_8h.html" target="_top" xlink:title="System.h">
<polygon fill="#ffffff" stroke="#000000" points="918.4744,-503.5 918.4744,-522.5 977.4744,-522.5 977.4744,-503.5 918.4744,-503.5"/>
<text text-anchor="middle" x="947.9744" y="-510.5" font-family="Helvetica,sans-Serif" font-size="10.00" fill="#000000">System.h</text>
</a>
</g>
</g>
<!-- Node45&#45;&gt;Node52 -->
<g id="edge63" class="edge">
<title>Node45&#45;&gt;Node52</title>
<path fill="none" stroke="#191970" d="M787.0507,-559.3733C818.9514,-549.2829 871.9242,-533.4931 908.3987,-523.1949"/>
<polygon fill="#191970" stroke="#191970" points="909.532,-526.5122 918.2177,-520.4452 907.6443,-519.7716 909.532,-526.5122"/>
</g>
<!-- Node53 -->
<g id="node42" class="node">
<title>Node53</title>
<g id="a_node42"><a xlink:href="_graphic_context_8h.html" target="_top" xlink:title="GraphicContext/GraphicContext.h">
<polygon fill="#ffffff" stroke="#000000" points="995.9744,-503.5 995.9744,-522.5 1159.9744,-522.5 1159.9744,-503.5 995.9744,-503.5"/>
<text text-anchor="middle" x="1077.9744" y="-510.5" font-family="Helvetica,sans-Serif" font-size="10.00" fill="#000000">GraphicContext/GraphicContext.h</text>
</a>
</g>
</g>
<!-- Node45&#45;&gt;Node53 -->
<g id="edge69" class="edge">
<title>Node45&#45;&gt;Node53</title>
<path fill="none" stroke="#191970" d="M790.7545,-563.5796C842.0524,-554.546 946.0744,-536.2277 1013.8453,-524.2932"/>
<polygon fill="#191970" stroke="#191970" points="1014.7422,-527.6892 1023.9836,-522.5078 1013.5281,-520.7952 1014.7422,-527.6892"/>
</g>
<!-- Node70 -->
<g id="node46" class="node">
<title>Node70</title>
<g id="a_node46"><a xlink:href="_render_mesh_8h.html" target="_top" xlink:title="kryne&#45;engine/Rendering\l/RenderMesh.h">
<polygon fill="#ffffff" stroke="#000000" points="385.4744,-369.5 385.4744,-399.5 504.4744,-399.5 504.4744,-369.5 385.4744,-369.5"/>
<text text-anchor="start" x="393.4744" y="-387.5" font-family="Helvetica,sans-Serif" font-size="10.00" fill="#000000">kryne&#45;engine/Rendering</text>
<text text-anchor="middle" x="444.9744" y="-376.5" font-family="Helvetica,sans-Serif" font-size="10.00" fill="#000000">/RenderMesh.h</text>
</a>
</g>
</g>
<!-- Node45&#45;&gt;Node70 -->
<g id="edge96" class="edge">
<title>Node45&#45;&gt;Node70</title>
<path fill="none" stroke="#191970" d="M729.2267,-564.3979C680.4843,-556.6964 588.1129,-540.3275 559.9744,-523 513.4276,-494.3367 476.8029,-440.1888 458.2703,-408.7598"/>
<polygon fill="#191970" stroke="#191970" points="461.1295,-406.7109 453.1087,-399.7887 455.0621,-410.2019 461.1295,-406.7109"/>
</g>
<!-- Node96 -->
<g id="node49" class="node">
<title>Node96</title>
<g id="a_node49"><a xlink:href="_u_i_renderer_8hpp.html" target="_top" xlink:title="kryne&#45;engine/UI/UIRenderer.hpp">
<polygon fill="#ffffff" stroke="#000000" points="627.9744,-503.5 627.9744,-522.5 785.9744,-522.5 785.9744,-503.5 627.9744,-503.5"/>
<text text-anchor="middle" x="706.9744" y="-510.5" font-family="Helvetica,sans-Serif" font-size="10.00" fill="#000000">kryne&#45;engine/UI/UIRenderer.hpp</text>
</a>
</g>
</g>
<!-- Node45&#45;&gt;Node96 -->
<g id="edge97" class="edge">
<title>Node45&#45;&gt;Node96</title>
<path fill="none" stroke="#191970" d="M745.4757,-559.2455C736.5083,-551.3761 725.4853,-540.101 717.3603,-530.6542"/>
<polygon fill="#191970" stroke="#191970" points="719.8759,-528.1998 710.8554,-522.6427 714.4416,-532.6121 719.8759,-528.1998"/>
</g>
<!-- Node34 -->
<g id="node33" class="node">
<title>Node34</title>
<g id="a_node33"><a xlink:href="_synchronizable_pool_8h.html" target="_top" xlink:title="SynchronizablePool.h">
<polygon fill="#ffffff" stroke="#000000" points="67.4744,-123.5 67.4744,-142.5 178.4744,-142.5 178.4744,-123.5 67.4744,-123.5"/>
<text text-anchor="middle" x="122.9744" y="-130.5" font-family="Helvetica,sans-Serif" font-size="10.00" fill="#000000">SynchronizablePool.h</text>
</a>
</g>
</g>
<!-- Node33&#45;&gt;Node34 -->
<g id="edge44" class="edge">
<title>Node33&#45;&gt;Node34</title>
<path fill="none" stroke="#191970" d="M91.1315,-235.2083C94.554,-224.9798 99.1104,-211.2082 102.9744,-199 107.8857,-183.4831 113.2205,-165.8355 117.1442,-152.6952"/>
<polygon fill="#191970" stroke="#191970" points="120.5723,-153.4462 120.0679,-142.8633 113.8627,-151.4508 120.5723,-153.4462"/>
</g>
<!-- Node41 -->
<g id="node35" class="node">
<title>Node41</title>
<g id="a_node35"><a xlink:href="_runner_pool_8h.html" target="_top" xlink:title="RunnerPool.h">
<polygon fill="#ffffff" stroke="#000000" points="196.9744,-123.5 196.9744,-142.5 272.9744,-142.5 272.9744,-123.5 196.9744,-123.5"/>
<text text-anchor="middle" x="234.9744" y="-130.5" font-family="Helvetica,sans-Serif" font-size="10.00" fill="#000000">RunnerPool.h</text>
</a>
</g>
</g>
<!-- Node33&#45;&gt;Node41 -->
<g id="edge49" class="edge">
<title>Node33&#45;&gt;Node41</title>
<path fill="none" stroke="#191970" d="M105.1485,-235.3795C133.3556,-213.1356 185.8039,-171.7754 214.6525,-149.0256"/>
<polygon fill="#191970" stroke="#191970" points="217.11,-151.5451 222.7949,-142.6046 212.7755,-146.0485 217.11,-151.5451"/>
</g>
<!-- Node42 -->
<g id="node36" class="node">
<title>Node42</title>
<g id="a_node36"><a xlink:href="_main_pool_8h.html" target="_top" xlink:title="MainPool.h">
<polygon fill="#ffffff" stroke="#000000" points="29.4744,-179.5 29.4744,-198.5 94.4744,-198.5 94.4744,-179.5 29.4744,-179.5"/>
<text text-anchor="middle" x="61.9744" y="-186.5" font-family="Helvetica,sans-Serif" font-size="10.00" fill="#000000">MainPool.h</text>
</a>
</g>
</g>
<!-- Node33&#45;&gt;Node42 -->
<g id="edge51" class="edge">
<title>Node33&#45;&gt;Node42</title>
<path fill="none" stroke="#191970" d="M80.0418,-235.2977C76.8492,-227.1166 72.879,-216.943 69.4741,-208.2179"/>
<polygon fill="#191970" stroke="#191970" points="72.7131,-206.8903 65.8171,-198.8469 66.1921,-209.4351 72.7131,-206.8903"/>
</g>
<!-- Node35 -->
<g id="node34" class="node">
<title>Node35</title>
<g id="a_node34"><a xlink:href="_thread_pool_8h.html" target="_top" xlink:title="ThreadPool.h">
<polygon fill="#ffffff" stroke="#ff0000" points="197.9744,-62 197.9744,-81 271.9744,-81 271.9744,-62 197.9744,-62"/>
<text text-anchor="middle" x="234.9744" y="-69" font-family="Helvetica,sans-Serif" font-size="10.00" fill="#000000">ThreadPool.h</text>
</a>
</g>
</g>
<!-- Node34&#45;&gt;Node35 -->
<g id="edge45" class="edge">
<title>Node34&#45;&gt;Node35</title>
<path fill="none" stroke="#191970" d="M140.4744,-123.3906C158.7209,-113.3713 187.5368,-97.5483 208.555,-86.0071"/>
<polygon fill="#191970" stroke="#191970" points="210.5165,-88.923 217.5973,-81.0419 207.1472,-82.7872 210.5165,-88.923"/>
</g>
<!-- Node35&#45;&gt;Node2 -->
<g id="edge47" class="edge">
<title>Node35&#45;&gt;Node2</title>
<path fill="none" stroke="#191970" d="M272.0616,-67.6094C303.0386,-64.3919 348.3716,-59.7575 387.9744,-56 569.4595,-38.7806 786.7814,-20.2217 871.5802,-13.059"/>
<polygon fill="#191970" stroke="#191970" points="872.0499,-16.5319 881.7202,-12.2035 871.4614,-9.5567 872.0499,-16.5319"/>
</g>
<!-- Node35&#45;&gt;Node8 -->
<g id="edge46" class="edge">
<title>Node35&#45;&gt;Node8</title>
<path fill="none" stroke="#191970" d="M210.5994,-61.8906C183.6529,-51.2675 140.1567,-34.1199 110.6035,-22.4692"/>
<polygon fill="#191970" stroke="#191970" points="111.7466,-19.1577 101.1597,-18.7461 109.1792,-25.6699 111.7466,-19.1577"/>
</g>
<!-- Node35&#45;&gt;Node27 -->
<g id="edge48" class="edge">
<title>Node35&#45;&gt;Node27</title>
<path fill="none" stroke="#191970" d="M250.1307,-61.8906C265.6487,-52.0519 289.9937,-36.6167 308.1029,-25.1351"/>
<polygon fill="#191970" stroke="#191970" points="310.3532,-27.8526 316.9246,-19.5419 306.6049,-21.9407 310.3532,-27.8526"/>
</g>
<!-- Node41&#45;&gt;Node35 -->
<g id="edge50" class="edge">
<title>Node41&#45;&gt;Node35</title>
<path fill="none" stroke="#191970" d="M234.9744,-123.3906C234.9744,-114.8657 234.9744,-102.1392 234.9744,-91.4235"/>
<polygon fill="#191970" stroke="#191970" points="238.4745,-91.2448 234.9744,-81.2449 231.4745,-91.2449 238.4745,-91.2448"/>
</g>
<!-- Node42&#45;&gt;Node34 -->
<g id="edge54" class="edge">
<title>Node42&#45;&gt;Node34</title>
<path fill="none" stroke="#191970" d="M72.5998,-179.2455C81.5217,-171.0549 94.4624,-159.1749 104.9936,-149.5069"/>
<polygon fill="#191970" stroke="#191970" points="107.4712,-151.9837 112.4708,-142.6427 102.7373,-146.8271 107.4712,-151.9837"/>
</g>
<!-- Node43 -->
<g id="node37" class="node">
<title>Node43</title>
<g id="a_node37"><a xlink:href="_multithreading_8hpp.html" target="_top" xlink:title="kryne&#45;engine/Utils\l/Multithreading.hpp">
<polygon fill="#ffffff" stroke="#000000" points="29.4744,-56.5 29.4744,-86.5 128.4744,-86.5 128.4744,-56.5 29.4744,-56.5"/>
<text text-anchor="start" x="37.4744" y="-74.5" font-family="Helvetica,sans-Serif" font-size="10.00" fill="#000000">kryne&#45;engine/Utils</text>
<text text-anchor="middle" x="78.9744" y="-63.5" font-family="Helvetica,sans-Serif" font-size="10.00" fill="#000000">/Multithreading.hpp</text>
</a>
</g>
</g>
<!-- Node42&#45;&gt;Node43 -->
<g id="edge52" class="edge">
<title>Node42&#45;&gt;Node43</title>
<path fill="none" stroke="#191970" d="M59.8233,-179.0564C57.3606,-166.0472 54.1317,-142.601 57.9744,-123 59.7635,-113.874 63.1788,-104.3254 66.7435,-95.9639"/>
<polygon fill="#191970" stroke="#191970" points="69.9614,-97.3423 70.9081,-86.7899 63.5874,-94.4487 69.9614,-97.3423"/>
</g>
<!-- Node43&#45;&gt;Node8 -->
<g id="edge53" class="edge">
<title>Node43&#45;&gt;Node8</title>
<path fill="none" stroke="#191970" d="M78.9744,-56.2977C78.9744,-48.3834 78.9744,-38.6043 78.9744,-30.0759"/>
<polygon fill="#191970" stroke="#191970" points="82.4745,-29.8469 78.9744,-19.8469 75.4745,-29.847 82.4745,-29.8469"/>
</g>
<!-- Node49&#45;&gt;Node2 -->
<g id="edge57" class="edge">
<title>Node49&#45;&gt;Node2</title>
<path fill="none" stroke="#191970" d="M1251.0474,-302.3394C1242.3045,-278.5731 1226.9744,-230.9234 1226.9744,-189 1226.9744,-189 1226.9744,-189 1226.9744,-133 1226.9744,-72.9476 1027.6783,-30.983 944.1386,-16.0305"/>
<polygon fill="#191970" stroke="#191970" points="944.5347,-12.5465 934.0795,-14.2608 943.3218,-19.4406 944.5347,-12.5465"/>
</g>
<!-- Node49&#45;&gt;Node6 -->
<g id="edge56" class="edge">
<title>Node49&#45;&gt;Node6</title>
<path fill="none" stroke="#191970" d="M1275.8084,-302.2967C1288.9913,-291.6551 1306.5759,-277.4602 1320.0028,-266.6217"/>
<polygon fill="#191970" stroke="#191970" points="1322.5549,-269.0596 1328.1377,-260.055 1318.158,-263.6128 1322.5549,-269.0596"/>
</g>
<!-- Node50&#45;&gt;Node26 -->
<g id="edge61" class="edge">
<title>Node50&#45;&gt;Node26</title>
<path fill="none" stroke="#191970" d="M245.6249,-307.3969C311.3879,-293.4535 428.0932,-268.709 483.3452,-256.9942"/>
<polygon fill="#191970" stroke="#191970" points="484.1756,-260.396 493.2322,-254.8979 482.7237,-253.5482 484.1756,-260.396"/>
</g>
<!-- Node50&#45;&gt;Node46 -->
<g id="edge60" class="edge">
<title>Node50&#45;&gt;Node46</title>
<path fill="none" stroke="#191970" d="M230.5152,-302.4639C255.1732,-291.0702 288.7992,-275.5327 312.845,-264.4219"/>
<polygon fill="#191970" stroke="#191970" points="314.5802,-267.4757 322.1898,-260.1039 311.6439,-261.1213 314.5802,-267.4757"/>
</g>
<!-- Node51 -->
<g id="node40" class="node">
<title>Node51</title>
<polygon fill="#ffffff" stroke="#bfbfbf" points="236.9744,-241 236.9744,-260 282.9744,-260 282.9744,-241 236.9744,-241"/>
<text text-anchor="middle" x="259.9744" y="-248" font-family="Helvetica,sans-Serif" font-size="10.00" fill="#000000">chrono</text>
</g>
<!-- Node50&#45;&gt;Node51 -->
<g id="edge59" class="edge">
<title>Node50&#45;&gt;Node51</title>
<path fill="none" stroke="#191970" d="M212.0432,-302.2967C221.6093,-291.9591 234.2782,-278.2684 244.1887,-267.5588"/>
<polygon fill="#191970" stroke="#191970" points="246.9095,-269.7718 251.1325,-260.055 241.7717,-265.0175 246.9095,-269.7718"/>
</g>
<!-- Node52&#45;&gt;Node4 -->
<g id="edge67" class="edge">
<title>Node52&#45;&gt;Node4</title>
<path fill="none" stroke="#191970" d="M975.6835,-522.6311C1001.9694,-532.2782 1038.9052,-547.3292 1048.9744,-559 1060.0373,-571.8226 1064.6731,-590.7327 1066.6081,-605.0285"/>
<polygon fill="#191970" stroke="#191970" points="1063.1587,-605.705 1067.652,-615.2998 1070.1228,-604.9971 1063.1587,-605.705"/>
</g>
<!-- Node52&#45;&gt;Node7 -->
<g id="edge64" class="edge">
<title>Node52&#45;&gt;Node7</title>
<path fill="none" stroke="#191970" d="M962.3481,-503.1853C973.0449,-494.9414 986.8153,-482.1035 992.9744,-467 1010.9974,-422.8034 994.1569,-365.6056 983.0145,-336.4318"/>
<polygon fill="#191970" stroke="#191970" points="986.2136,-335.0058 979.2424,-327.0276 979.7168,-337.6118 986.2136,-335.0058"/>
</g>
<!-- Node52&#45;&gt;Node21 -->
<g id="edge68" class="edge">
<title>Node52&#45;&gt;Node21</title>
<path fill="none" stroke="#191970" d="M965.5624,-503.3416C1006.3172,-480.9613 1107.4047,-425.4496 1155.601,-398.9828"/>
<polygon fill="#191970" stroke="#191970" points="1157.4209,-401.9765 1164.5015,-394.0952 1154.0514,-395.8408 1157.4209,-401.9765"/>
</g>
<!-- Node52&#45;&gt;Node45 -->
<g id="edge66" class="edge">
<title>Node52&#45;&gt;Node45</title>
<path fill="none" stroke="#191970" d="M921.169,-522.541C889.541,-532.5506 836.9375,-548.2364 800.3896,-558.568"/>
<polygon fill="#191970" stroke="#191970" points="799.2211,-555.2605 790.5377,-561.3309 801.1113,-562.0005 799.2211,-555.2605"/>
</g>
<!-- Node52&#45;&gt;Node48 -->
<g id="edge65" class="edge">
<title>Node52&#45;&gt;Node48</title>
<path fill="none" stroke="#191970" d="M945.4744,-503.3906C943.5897,-496.1463 940.9156,-485.8679 938.444,-476.3676"/>
<polygon fill="#191970" stroke="#191970" points="941.7936,-475.3412 935.8885,-466.5446 935.0191,-477.1037 941.7936,-475.3412"/>
</g>
<!-- Node54 -->
<g id="node43" class="node">
<title>Node54</title>
<g id="a_node43"><a xlink:href="_player_input_8h.html" target="_top" xlink:title="kryne&#45;engine/Input\l/PlayerInput.h">
<polygon fill="#ffffff" stroke="#ff0000" points="594.4744,-369.5 594.4744,-399.5 691.4744,-399.5 691.4744,-369.5 594.4744,-369.5"/>
<text text-anchor="start" x="602.4744" y="-387.5" font-family="Helvetica,sans-Serif" font-size="10.00" fill="#000000">kryne&#45;engine/Input</text>
<text text-anchor="middle" x="642.9744" y="-376.5" font-family="Helvetica,sans-Serif" font-size="10.00" fill="#000000">/PlayerInput.h</text>
</a>
</g>
</g>
<!-- Node53&#45;&gt;Node54 -->
<g id="edge70" class="edge">
<title>Node53&#45;&gt;Node54</title>
<path fill="none" stroke="#191970" d="M1070.5484,-503.2394C1057.1177,-486.3791 1027.0056,-452.066 992.9744,-436 942.5393,-412.1899 787.5079,-396.2432 701.6747,-388.9865"/>
<polygon fill="#191970" stroke="#191970" points="701.8178,-385.4864 691.5619,-388.1446 701.2371,-392.4622 701.8178,-385.4864"/>
</g>
<!-- Node57 -->
<g id="node45" class="node">
<title>Node57</title>
<g id="a_node45"><a xlink:href="_loop_renderer_8h.html" target="_top" xlink:title="kryne&#45;engine/Rendering\l/LoopRenderer.h">
<polygon fill="#ffffff" stroke="#ff0000" points="1192.4744,-436.5 1192.4744,-466.5 1311.4744,-466.5 1311.4744,-436.5 1192.4744,-436.5"/>
<text text-anchor="start" x="1200.4744" y="-454.5" font-family="Helvetica,sans-Serif" font-size="10.00" fill="#000000">kryne&#45;engine/Rendering</text>
<text text-anchor="middle" x="1251.9744" y="-443.5" font-family="Helvetica,sans-Serif" font-size="10.00" fill="#000000">/LoopRenderer.h</text>
</a>
</g>
</g>
<!-- Node53&#45;&gt;Node57 -->
<g id="edge76" class="edge">
<title>Node53&#45;&gt;Node57</title>
<path fill="none" stroke="#191970" d="M1105.1619,-503.3906C1130.346,-494.4893 1168.4903,-481.0073 1199.5862,-470.0165"/>
<polygon fill="#191970" stroke="#191970" points="1201.1472,-473.1771 1209.4092,-466.5446 1198.8144,-466.5772 1201.1472,-473.1771"/>
</g>
<!-- Node54&#45;&gt;Node2 -->
<g id="edge75" class="edge">
<title>Node54&#45;&gt;Node2</title>
<path fill="none" stroke="#191970" d="M675.7636,-369.4808C691.0765,-360.8736 708.2525,-348.6454 718.9744,-333 740.2447,-301.9625 737.9744,-288.1265 737.9744,-250.5 737.9744,-250.5 737.9744,-250.5 737.9744,-133 737.9744,-67.3941 822.1065,-33.222 871.9989,-18.7252"/>
<polygon fill="#191970" stroke="#191970" points="873.087,-22.0555 881.7845,-16.0053 871.2124,-15.3112 873.087,-22.0555"/>
</g>
<!-- Node54&#45;&gt;Node7 -->
<g id="edge72" class="edge">
<title>Node54&#45;&gt;Node7</title>
<path fill="none" stroke="#191970" d="M691.6056,-374.6859C754.2201,-362.0498 862.448,-340.2086 925.479,-327.4885"/>
<polygon fill="#191970" stroke="#191970" points="926.4599,-330.8612 935.5699,-325.4521 925.0751,-323.9996 926.4599,-330.8612"/>
</g>
<!-- Node54&#45;&gt;Node46 -->
<g id="edge73" class="edge">
<title>Node54&#45;&gt;Node46</title>
<path fill="none" stroke="#191970" d="M594.187,-371.1218C565.1026,-362.2207 527.9369,-349.1932 496.9744,-333 476.0975,-322.0814 474.3076,-313.9005 453.9744,-302 428.8997,-287.3245 398.937,-273.6311 376.4652,-264.0588"/>
<polygon fill="#191970" stroke="#191970" points="377.5962,-260.7377 367.0212,-260.0902 374.8843,-267.191 377.5962,-260.7377"/>
</g>
<!-- Node54&#45;&gt;Node27 -->
<g id="edge74" class="edge">
<title>Node54&#45;&gt;Node27</title>
<path fill="none" stroke="#191970" d="M644.6672,-369.2494C647.2743,-344.4056 651.9744,-293.6352 651.9744,-250.5 651.9744,-250.5 651.9744,-250.5 651.9744,-189 651.9744,-60.6515 453.4723,-23.4413 369.15,-13.4248"/>
<polygon fill="#191970" stroke="#191970" points="369.3096,-9.9208 358.9816,-12.2838 368.529,-16.8771 369.3096,-9.9208"/>
</g>
<!-- Node55 -->
<g id="node44" class="node">
<title>Node55</title>
<polygon fill="#ffffff" stroke="#bfbfbf" points="679.9744,-308 679.9744,-327 709.9744,-327 709.9744,-308 679.9744,-308"/>
<text text-anchor="middle" x="694.9744" y="-315" font-family="Helvetica,sans-Serif" font-size="10.00" fill="#000000">set</text>
</g>
<!-- Node54&#45;&gt;Node55 -->
<g id="edge71" class="edge">
<title>Node54&#45;&gt;Node55</title>
<path fill="none" stroke="#191970" d="M654.774,-369.2967C662.6399,-359.1618 673.0071,-345.804 681.2432,-335.1921"/>
<polygon fill="#191970" stroke="#191970" points="684.1923,-337.1008 687.5586,-327.055 678.6624,-332.8089 684.1923,-337.1008"/>
</g>
<!-- Node57&#45;&gt;Node1 -->
<g id="edge83" class="edge">
<title>Node57&#45;&gt;Node1</title>
<path fill="none" stroke="#191970" d="M1269.9597,-466.8912C1279.7881,-476.3133 1291.2881,-489.1883 1297.9744,-503 1323.2586,-555.229 1328.8196,-624.394 1329.8844,-661.0931"/>
<polygon fill="#191970" stroke="#191970" points="1326.3908,-661.4564 1330.0873,-671.3854 1333.3894,-661.3183 1326.3908,-661.4564"/>
</g>
<!-- Node57&#45;&gt;Node2 -->
<g id="edge80" class="edge">
<title>Node57&#45;&gt;Node2</title>
<path fill="none" stroke="#191970" d="M1286.6995,-436.3973C1344.4542,-408.6564 1453.9744,-343.7567 1453.9744,-250.5 1453.9744,-250.5 1453.9744,-250.5 1453.9744,-133 1453.9744,-80.5995 1066.302,-29.1745 944.2848,-14.2866"/>
<polygon fill="#191970" stroke="#191970" points="944.6573,-10.8062 934.3091,-13.0788 943.8159,-17.7555 944.6573,-10.8062"/>
</g>
<!-- Node57&#45;&gt;Node4 -->
<g id="edge82" class="edge">
<title>Node57&#45;&gt;Node4</title>
<path fill="none" stroke="#191970" d="M1262.1391,-466.7049C1278.0972,-492.6599 1304.5998,-545.9111 1277.9744,-579 1261.2412,-599.7953 1197.6515,-611.7128 1144.788,-618.1813"/>
<polygon fill="#191970" stroke="#191970" points="1144.2391,-614.7216 1134.716,-619.365 1145.0562,-621.6738 1144.2391,-614.7216"/>
</g>
<!-- Node57&#45;&gt;Node6 -->
<g id="edge77" class="edge">
<title>Node57&#45;&gt;Node6</title>
<path fill="none" stroke="#191970" d="M1262.9451,-436.1747C1278.1139,-414.3007 1305.3817,-372.4023 1320.9744,-333 1329.1376,-312.3719 1334.2797,-287.3892 1337.1254,-270.3577"/>
<polygon fill="#191970" stroke="#191970" points="1340.5894,-270.8594 1338.6725,-260.4394 1333.673,-269.7805 1340.5894,-270.8594"/>
</g>
<!-- Node57&#45;&gt;Node7 -->
<g id="edge78" class="edge">
<title>Node57&#45;&gt;Node7</title>
<path fill="none" stroke="#191970" d="M1217.2953,-436.4859C1196.2018,-426.9078 1168.9843,-413.7444 1145.9744,-400 1125.7483,-387.9184 1123.6095,-380.3691 1102.9744,-369 1074.3254,-353.2155 1039.8198,-339.617 1013.8573,-330.3636"/>
<polygon fill="#191970" stroke="#191970" points="1014.95,-327.0379 1004.3552,-327.0343 1012.6354,-333.6441 1014.95,-327.0379"/>
</g>
<!-- Node57&#45;&gt;Node21 -->
<g id="edge84" class="edge">
<title>Node57&#45;&gt;Node21</title>
<path fill="none" stroke="#191970" d="M1236.0903,-436.2967C1225.184,-425.8578 1210.7054,-411.9997 1199.4688,-401.2446"/>
<polygon fill="#191970" stroke="#191970" points="1201.6015,-398.4411 1191.9572,-394.055 1196.7613,-403.498 1201.6015,-398.4411"/>
</g>
<!-- Node57&#45;&gt;Node46 -->
<g id="edge79" class="edge">
<title>Node57&#45;&gt;Node46</title>
<path fill="none" stroke="#191970" d="M1192.3466,-447.5356C1034.17,-436.9334 613.9679,-408.1777 584.9744,-400 553.5046,-391.1238 480.71,-351.8241 453.9744,-333 437.5206,-321.4151 436.7616,-314.4781 420.9744,-302 403.9472,-288.5418 383.4208,-275.0886 367.6994,-265.3089"/>
<polygon fill="#191970" stroke="#191970" points="369.4138,-262.2544 359.0609,-260.0029 365.7501,-268.2191 369.4138,-262.2544"/>
</g>
<!-- Node57&#45;&gt;Node49 -->
<g id="edge81" class="edge">
<title>Node57&#45;&gt;Node49</title>
<path fill="none" stroke="#191970" d="M1252.5383,-436.389C1253.386,-413.6691 1254.9991,-370.438 1256.0289,-342.8405"/>
<polygon fill="#191970" stroke="#191970" points="1259.5296,-342.885 1256.405,-332.7614 1252.5344,-342.6239 1259.5296,-342.885"/>
</g>
<!-- Node57&#45;&gt;Node70 -->
<g id="edge85" class="edge">
<title>Node57&#45;&gt;Node70</title>
<path fill="none" stroke="#191970" d="M1192.4351,-447.7858C1029.6388,-437.5638 584.8356,-409.1677 518.9744,-400 517.5118,-399.7964 516.0349,-399.5808 514.5477,-399.3546"/>
<polygon fill="#191970" stroke="#191970" points="515.0618,-395.8922 504.6264,-397.7232 513.926,-402.7994 515.0618,-395.8922"/>
</g>
<!-- Node70&#45;&gt;Node1 -->
<g id="edge95" class="edge">
<title>Node70&#45;&gt;Node1</title>
<path fill="none" stroke="#191970" d="M437.5144,-399.6686C420.5693,-436.5366 384.3446,-531.314 433.9744,-579 493.8037,-636.4859 1068.129,-672.4426 1264.5142,-683.1382"/>
<polygon fill="#191970" stroke="#191970" points="1264.5133,-686.6432 1274.6876,-683.6881 1264.8911,-679.6534 1264.5133,-686.6432"/>
</g>
<!-- Node70&#45;&gt;Node44 -->
<g id="edge86" class="edge">
<title>Node70&#45;&gt;Node44</title>
<path fill="none" stroke="#191970" d="M504.659,-373.3611C575.2516,-360.1864 691.3446,-338.5201 756.2516,-326.4065"/>
<polygon fill="#191970" stroke="#191970" points="757.0264,-329.8224 766.2145,-324.5471 755.7421,-322.9412 757.0264,-329.8224"/>
</g>
<!-- Node71 -->
<g id="node47" class="node">
<title>Node71</title>
<g id="a_node47"><a xlink:href="_buffer_geometry_8h.html" target="_top" xlink:title="kryne&#45;engine/Geometry\l/BufferGeometry.h">
<polygon fill="#ffffff" stroke="#ff0000" points="505.9744,-302.5 505.9744,-332.5 623.9744,-332.5 623.9744,-302.5 505.9744,-302.5"/>
<text text-anchor="start" x="513.9744" y="-320.5" font-family="Helvetica,sans-Serif" font-size="10.00" fill="#000000">kryne&#45;engine/Geometry</text>
<text text-anchor="middle" x="564.9744" y="-309.5" font-family="Helvetica,sans-Serif" font-size="10.00" fill="#000000">/BufferGeometry.h</text>
</a>
</g>
</g>
<!-- Node70&#45;&gt;Node71 -->
<g id="edge87" class="edge">
<title>Node70&#45;&gt;Node71</title>
<path fill="none" stroke="#191970" d="M471.9048,-369.4639C488.6932,-360.0903 510.505,-347.9121 528.7927,-337.7015"/>
<polygon fill="#191970" stroke="#191970" points="530.6937,-340.6487 537.7188,-332.7177 527.2812,-334.5368 530.6937,-340.6487"/>
</g>
<!-- Node75 -->
<g id="node48" class="node">
<title>Node75</title>
<g id="a_node48"><a xlink:href="kryne-engine_2_material_2_material_8h.html" target="_top" xlink:title="kryne&#45;engine/Material\l/Material.h">
<polygon fill="#ffffff" stroke="#ff0000" points="301.9744,-302.5 301.9744,-332.5 411.9744,-332.5 411.9744,-302.5 301.9744,-302.5"/>
<text text-anchor="start" x="309.9744" y="-320.5" font-family="Helvetica,sans-Serif" font-size="10.00" fill="#000000">kryne&#45;engine/Material</text>
<text text-anchor="middle" x="356.9744" y="-309.5" font-family="Helvetica,sans-Serif" font-size="10.00" fill="#000000">/Material.h</text>
</a>
</g>
</g>
<!-- Node70&#45;&gt;Node75 -->
<g id="edge93" class="edge">
<title>Node70&#45;&gt;Node75</title>
<path fill="none" stroke="#191970" d="M425.0059,-369.2967C413.1919,-360.302 398.0438,-348.7687 385.0417,-338.8694"/>
<polygon fill="#191970" stroke="#191970" points="386.9406,-335.9162 376.864,-332.6432 382.7002,-341.4857 386.9406,-335.9162"/>
</g>
<!-- Node71&#45;&gt;Node2 -->
<g id="edge88" class="edge">
<title>Node71&#45;&gt;Node2</title>
<path fill="none" stroke="#191970" d="M569.6179,-302.2626C584.2229,-257.0174 633.7002,-122.4773 723.9744,-56 747.2686,-38.8463 825.2692,-23.5694 871.9044,-15.6741"/>
<polygon fill="#191970" stroke="#191970" points="872.6189,-19.1034 881.9101,-14.0118 871.4716,-12.1981 872.6189,-19.1034"/>
</g>
<!-- Node71&#45;&gt;Node15 -->
<g id="edge91" class="edge">
<title>Node71&#45;&gt;Node15</title>
<path fill="none" stroke="#191970" d="M623.9839,-307.6657C639.2496,-305.4531 655.691,-303.3599 670.9744,-302 982.6541,-274.2664 1986.5444,-255.3594 2217.3535,-251.3121"/>
<polygon fill="#191970" stroke="#191970" points="2217.5052,-254.8101 2227.4425,-251.1361 2217.383,-247.8112 2217.5052,-254.8101"/>
</g>
<!-- Node71&#45;&gt;Node46 -->
<g id="edge90" class="edge">
<title>Node71&#45;&gt;Node46</title>
<path fill="none" stroke="#191970" d="M515.1533,-302.4639C475.7742,-290.5792 421.4557,-274.1858 384.428,-263.0108"/>
<polygon fill="#191970" stroke="#191970" points="385.0543,-259.5439 374.4695,-260.0053 383.0318,-266.2454 385.0543,-259.5439"/>
</g>
<!-- Node71&#45;&gt;Node27 -->
<g id="edge89" class="edge">
<title>Node71&#45;&gt;Node27</title>
<path fill="none" stroke="#191970" d="M534.0515,-302.374C517.8149,-293.379 498.3611,-280.8326 483.9744,-266 411.1917,-190.9615 358.5402,-74.7082 339.6381,-29.1958"/>
<polygon fill="#191970" stroke="#191970" points="342.8631,-27.835 335.8417,-19.9008 336.3827,-30.4818 342.8631,-27.835"/>
</g>
<!-- Node71&#45;&gt;Node33 -->
<g id="edge92" class="edge">
<title>Node71&#45;&gt;Node33</title>
<path fill="none" stroke="#191970" d="M505.7592,-309.2173C416.281,-296.7016 247.1152,-273.0395 153.1545,-259.8968"/>
<polygon fill="#191970" stroke="#191970" points="153.579,-256.4222 143.1905,-258.5031 152.6092,-263.3547 153.579,-256.4222"/>
</g>
<!-- Node75&#45;&gt;Node45 -->
<g id="edge94" class="edge">
<title>Node75&#45;&gt;Node45</title>
<path fill="none" stroke="#191970" d="M357.4931,-332.6421C358.7287,-350.1159 362.7917,-379.1211 375.9744,-400 422.9256,-474.362 451.2028,-485.9782 530.9744,-523 592.6992,-551.6463 671.9,-562.5026 719.1435,-566.5828"/>
<polygon fill="#191970" stroke="#191970" points="719.045,-570.0861 729.2929,-567.3971 719.6049,-563.1085 719.045,-570.0861"/>
</g>
<!-- Node96&#45;&gt;Node45 -->
<g id="edge98" class="edge">
<title>Node96&#45;&gt;Node45</title>
<path fill="none" stroke="#191970" d="M721.3457,-522.6427C730.2935,-530.4797 741.3203,-541.7472 749.4727,-551.2112"/>
<polygon fill="#191970" stroke="#191970" points="746.9833,-553.6974 756.0094,-559.2455 752.4133,-549.2797 746.9833,-553.6974"/>
</g>
<!-- Node97&#45;&gt;Node3 -->
<g id="edge100" class="edge">
<title>Node97&#45;&gt;Node3</title>
<path fill="none" stroke="#191970" d="M1712.561,-615.2455C1724.3049,-606.814 1741.4943,-594.4729 1755.1626,-584.6598"/>
<polygon fill="#191970" stroke="#191970" points="1757.4615,-587.3179 1763.5435,-578.6427 1753.3791,-581.6316 1757.4615,-587.3179"/>
</g>
<!-- Node97&#45;&gt;Node18 -->
<g id="edge101" class="edge">
<title>Node97&#45;&gt;Node18</title>
<path fill="none" stroke="#191970" d="M1700.0024,-615.3379C1702.0695,-600.878 1708.0858,-573.7364 1724.9744,-559 1775.0725,-515.286 2216.3624,-427.3011 2379.6054,-395.9321"/>
<polygon fill="#191970" stroke="#191970" points="2380.3253,-399.3579 2389.4872,-394.0372 2379.0069,-392.4832 2380.3253,-399.3579"/>
</g>
</g>
</svg>
