<?xml version="1.0" encoding="UTF-8" standalone="no"?>
<!DOCTYPE svg PUBLIC "-//W3C//DTD SVG 1.1//EN"
 "http://www.w3.org/Graphics/SVG/1.1/DTD/svg11.dtd">
<!-- Generated by graphviz version 2.44.1 (20200629.0846)
 -->
<!-- Title: kryne&#45;engine/src/Camera/Camera.cpp Pages: 1 -->
<svg width="1260pt" height="341pt"
 viewBox="0.00 0.00 1260.45 341.00" xmlns="http://www.w3.org/2000/svg" xmlns:xlink="http://www.w3.org/1999/xlink">
<g id="graph0" class="graph" transform="scale(1 1) rotate(0) translate(4 337)">
<title>kryne&#45;engine/src/Camera/Camera.cpp</title>
<polygon fill="white" stroke="transparent" points="-4,4 -4,-337 1256.45,-337 1256.45,4 -4,4"/>
<!-- Node1 -->
<g id="node1" class="node">
<title>Node1</title>
<g id="a_node1"><a xlink:title=" ">
<polygon fill="#bfbfbf" stroke="black" points="1058.51,-302.5 1058.51,-332.5 1183.51,-332.5 1183.51,-302.5 1058.51,-302.5"/>
<text text-anchor="start" x="1066.51" y="-320.5" font-family="Helvetica,sans-Serif" font-size="10.00">kryne&#45;engine/src/Camera</text>
<text text-anchor="middle" x="1121.01" y="-309.5" font-family="Helvetica,sans-Serif" font-size="10.00">/Camera.cpp</text>
</a>
</g>
</g>
<!-- Node2 -->
<g id="node2" class="node">
<title>Node2</title>
<g id="a_node2"><a xlink:href="kryne-engine_2_camera_2_camera_8h.html" target="_top" xlink:title=" ">
<polygon fill="white" stroke="black" points="1066.51,-235.5 1066.51,-265.5 1175.51,-265.5 1175.51,-235.5 1066.51,-235.5"/>
<text text-anchor="start" x="1074.51" y="-253.5" font-family="Helvetica,sans-Serif" font-size="10.00">kryne&#45;engine/Camera</text>
<text text-anchor="middle" x="1121.01" y="-242.5" font-family="Helvetica,sans-Serif" font-size="10.00">/Camera.h</text>
</a>
</g>
</g>
<!-- Node1&#45;&gt;Node2 -->
<g id="edge1" class="edge">
<title>Node1&#45;&gt;Node2</title>
<path fill="none" stroke="midnightblue" d="M1121.01,-302.4C1121.01,-294.64 1121.01,-284.81 1121.01,-275.86"/>
<polygon fill="midnightblue" stroke="midnightblue" points="1124.51,-275.58 1121.01,-265.58 1117.51,-275.58 1124.51,-275.58"/>
</g>
<!-- Node3 -->
<g id="node3" class="node">
<title>Node3</title>
<g id="a_node3"><a xlink:title=" ">
<polygon fill="white" stroke="#bfbfbf" points="855.01,-0.5 855.01,-19.5 907.01,-19.5 907.01,-0.5 855.01,-0.5"/>
<text text-anchor="middle" x="881.01" y="-7.5" font-family="Helvetica,sans-Serif" font-size="10.00">memory</text>
</a>
</g>
</g>
<!-- Node2&#45;&gt;Node3 -->
<g id="edge2" class="edge">
<title>Node2&#45;&gt;Node3</title>
<path fill="none" stroke="midnightblue" d="M1150.31,-235.47C1196.92,-211.27 1279.19,-159.66 1243.01,-112 1203.14,-59.48 1000.59,-26.94 917.08,-15.56"/>
<polygon fill="midnightblue" stroke="midnightblue" points="917.42,-12.08 907.04,-14.22 916.49,-19.01 917.42,-12.08"/>
</g>
<!-- Node4 -->
<g id="node4" class="node">
<title>Node4</title>
<g id="a_node4"><a xlink:href="_object3_d_8h.html" target="_top" xlink:title=" ">
<polygon fill="white" stroke="black" points="606.51,-168.5 606.51,-198.5 727.51,-198.5 727.51,-168.5 606.51,-168.5"/>
<text text-anchor="start" x="614.51" y="-186.5" font-family="Helvetica,sans-Serif" font-size="10.00">kryne&#45;engine/3DObjects</text>
<text text-anchor="middle" x="667.01" y="-175.5" font-family="Helvetica,sans-Serif" font-size="10.00">/Object3D.h</text>
</a>
</g>
</g>
<!-- Node2&#45;&gt;Node4 -->
<g id="edge3" class="edge">
<title>Node2&#45;&gt;Node4</title>
<path fill="none" stroke="midnightblue" d="M1066.24,-241.66C983.95,-229.88 828.41,-207.61 737.67,-194.62"/>
<polygon fill="midnightblue" stroke="midnightblue" points="738.14,-191.15 727.75,-193.2 737.15,-198.08 738.14,-191.15"/>
</g>
<!-- Node21 -->
<g id="node21" class="node">
<title>Node21</title>
<g id="a_node21"><a xlink:href="_projection_data_8hpp.html" target="_top" xlink:title=" ">
<polygon fill="white" stroke="black" points="1071.51,-174 1071.51,-193 1170.51,-193 1170.51,-174 1071.51,-174"/>
<text text-anchor="middle" x="1121.01" y="-181" font-family="Helvetica,sans-Serif" font-size="10.00">ProjectionData.hpp</text>
</a>
</g>
</g>
<!-- Node2&#45;&gt;Node21 -->
<g id="edge26" class="edge">
<title>Node2&#45;&gt;Node21</title>
<path fill="none" stroke="midnightblue" d="M1121.01,-235.4C1121.01,-226.06 1121.01,-213.71 1121.01,-203.52"/>
<polygon fill="midnightblue" stroke="midnightblue" points="1124.51,-203.19 1121.01,-193.19 1117.51,-203.19 1124.51,-203.19"/>
</g>
<!-- Node4&#45;&gt;Node3 -->
<g id="edge4" class="edge">
<title>Node4&#45;&gt;Node3</title>
<path fill="none" stroke="midnightblue" d="M727.78,-175.75C761.87,-169.29 803.37,-156.67 833.01,-132 864.32,-105.94 875.33,-56.59 879.11,-29.67"/>
<polygon fill="midnightblue" stroke="midnightblue" points="882.6,-29.98 880.32,-19.64 875.65,-29.14 882.6,-29.98"/>
</g>
<!-- Node5 -->
<g id="node5" class="node">
<title>Node5</title>
<g id="a_node5"><a xlink:title=" ">
<polygon fill="white" stroke="#bfbfbf" points="811.01,-56.5 811.01,-75.5 853.01,-75.5 853.01,-56.5 811.01,-56.5"/>
<text text-anchor="middle" x="832.01" y="-63.5" font-family="Helvetica,sans-Serif" font-size="10.00">vector</text>
</a>
</g>
</g>
<!-- Node4&#45;&gt;Node5 -->
<g id="edge5" class="edge">
<title>Node4&#45;&gt;Node5</title>
<path fill="none" stroke="midnightblue" d="M727.68,-174.7C757.06,-167.96 790.72,-155.4 813.01,-132 824.78,-119.64 829.31,-100.39 831.03,-86.05"/>
<polygon fill="midnightblue" stroke="midnightblue" points="834.54,-86.07 831.88,-75.82 827.56,-85.49 834.54,-86.07"/>
</g>
<!-- Node6 -->
<g id="node6" class="node">
<title>Node6</title>
<g id="a_node6"><a xlink:title=" ">
<polygon fill="white" stroke="#bfbfbf" points="898.01,-112.5 898.01,-131.5 968.01,-131.5 968.01,-112.5 898.01,-112.5"/>
<text text-anchor="middle" x="933.01" y="-119.5" font-family="Helvetica,sans-Serif" font-size="10.00">glm/glm.hpp</text>
</a>
</g>
</g>
<!-- Node4&#45;&gt;Node6 -->
<g id="edge6" class="edge">
<title>Node4&#45;&gt;Node6</title>
<path fill="none" stroke="midnightblue" d="M727.7,-168.92C776.49,-158.01 843.94,-142.92 888.01,-133.07"/>
<polygon fill="midnightblue" stroke="midnightblue" points="888.86,-136.46 897.86,-130.86 887.33,-129.63 888.86,-136.46"/>
</g>
<!-- Node7 -->
<g id="node7" class="node">
<title>Node7</title>
<g id="a_node7"><a xlink:title=" ">
<polygon fill="white" stroke="#bfbfbf" points="15.01,-112.5 15.01,-131.5 107.01,-131.5 107.01,-112.5 15.01,-112.5"/>
<text text-anchor="middle" x="61.01" y="-119.5" font-family="Helvetica,sans-Serif" font-size="10.00">glm/common.hpp</text>
</a>
</g>
</g>
<!-- Node4&#45;&gt;Node7 -->
<g id="edge7" class="edge">
<title>Node4&#45;&gt;Node7</title>
<path fill="none" stroke="midnightblue" d="M606.11,-178.33C506.21,-171.19 301.07,-155.22 117.31,-132.08"/>
<polygon fill="midnightblue" stroke="midnightblue" points="117.55,-128.59 107.19,-130.8 116.66,-135.53 117.55,-128.59"/>
</g>
<!-- Node8 -->
<g id="node8" class="node">
<title>Node8</title>
<g id="a_node8"><a xlink:title=" ">
<polygon fill="white" stroke="#bfbfbf" points="125.51,-112.5 125.51,-131.5 206.51,-131.5 206.51,-112.5 125.51,-112.5"/>
<text text-anchor="middle" x="166.01" y="-119.5" font-family="Helvetica,sans-Serif" font-size="10.00">glm/matrix.hpp</text>
</a>
</g>
</g>
<!-- Node4&#45;&gt;Node8 -->
<g id="edge8" class="edge">
<title>Node4&#45;&gt;Node8</title>
<path fill="none" stroke="midnightblue" d="M606.15,-177.07C521.14,-169.19 361.8,-153.3 216.6,-132.15"/>
<polygon fill="midnightblue" stroke="midnightblue" points="217.01,-128.68 206.61,-130.69 216,-135.6 217.01,-128.68"/>
</g>
<!-- Node9 -->
<g id="node9" class="node">
<title>Node9</title>
<g id="a_node9"><a xlink:title=" ">
<polygon fill="white" stroke="#bfbfbf" points="60.01,-56.5 60.01,-75.5 134.01,-75.5 134.01,-56.5 60.01,-56.5"/>
<text text-anchor="middle" x="97.01" y="-63.5" font-family="Helvetica,sans-Serif" font-size="10.00">glm/vec3.hpp</text>
</a>
</g>
</g>
<!-- Node4&#45;&gt;Node9 -->
<g id="edge9" class="edge">
<title>Node4&#45;&gt;Node9</title>
<path fill="none" stroke="midnightblue" d="M606.39,-182.45C450.73,-181.7 46.34,-175.53 6.01,-132 -14.59,-109.77 23.76,-90.48 56.83,-78.82"/>
<polygon fill="midnightblue" stroke="midnightblue" points="58.05,-82.1 66.41,-75.59 55.82,-75.46 58.05,-82.1"/>
</g>
<!-- Node10 -->
<g id="node10" class="node">
<title>Node10</title>
<g id="a_node10"><a xlink:title=" ">
<polygon fill="white" stroke="#bfbfbf" points="404.01,-112.5 404.01,-131.5 520.01,-131.5 520.01,-112.5 404.01,-112.5"/>
<text text-anchor="middle" x="462.01" y="-119.5" font-family="Helvetica,sans-Serif" font-size="10.00">glm/gtc/quaternion.hpp</text>
</a>
</g>
</g>
<!-- Node4&#45;&gt;Node10 -->
<g id="edge10" class="edge">
<title>Node4&#45;&gt;Node10</title>
<path fill="none" stroke="midnightblue" d="M618.68,-168.47C582.85,-158.08 534.63,-144.08 501.19,-134.37"/>
<polygon fill="midnightblue" stroke="midnightblue" points="501.89,-130.93 491.31,-131.51 499.94,-137.66 501.89,-130.93"/>
</g>
<!-- Node11 -->
<g id="node11" class="node">
<title>Node11</title>
<g id="a_node11"><a xlink:title=" ">
<polygon fill="white" stroke="#bfbfbf" points="538.01,-112.5 538.01,-131.5 654.01,-131.5 654.01,-112.5 538.01,-112.5"/>
<text text-anchor="middle" x="596.01" y="-119.5" font-family="Helvetica,sans-Serif" font-size="10.00">glm/gtx/quaternion.hpp</text>
</a>
</g>
</g>
<!-- Node4&#45;&gt;Node11 -->
<g id="edge11" class="edge">
<title>Node4&#45;&gt;Node11</title>
<path fill="none" stroke="midnightblue" d="M650.18,-168.4C639.33,-159.31 625.23,-147.49 614.13,-138.19"/>
<polygon fill="midnightblue" stroke="midnightblue" points="616.25,-135.4 606.34,-131.66 611.75,-140.76 616.25,-135.4"/>
</g>
<!-- Node12 -->
<g id="node12" class="node">
<title>Node12</title>
<g id="a_node12"><a xlink:title=" ">
<polygon fill="white" stroke="#bfbfbf" points="986.51,-112.5 986.51,-131.5 1129.51,-131.5 1129.51,-112.5 986.51,-112.5"/>
<text text-anchor="middle" x="1058.01" y="-119.5" font-family="Helvetica,sans-Serif" font-size="10.00">glm/gtc/matrix_transform.hpp</text>
</a>
</g>
</g>
<!-- Node4&#45;&gt;Node12 -->
<g id="edge12" class="edge">
<title>Node4&#45;&gt;Node12</title>
<path fill="none" stroke="midnightblue" d="M727.67,-173.27C799.27,-162.37 917.92,-144.32 991.83,-133.07"/>
<polygon fill="midnightblue" stroke="midnightblue" points="992.6,-136.49 1001.96,-131.53 991.54,-129.57 992.6,-136.49"/>
</g>
<!-- Node13 -->
<g id="node13" class="node">
<title>Node13</title>
<g id="a_node13"><a xlink:href="_transform_8hpp.html" target="_top" xlink:title=" ">
<polygon fill="white" stroke="black" points="224.51,-112.5 224.51,-131.5 385.51,-131.5 385.51,-112.5 224.51,-112.5"/>
<text text-anchor="middle" x="305.01" y="-119.5" font-family="Helvetica,sans-Serif" font-size="10.00">kryne&#45;engine/Math/Transform.hpp</text>
</a>
</g>
</g>
<!-- Node4&#45;&gt;Node13 -->
<g id="edge13" class="edge">
<title>Node4&#45;&gt;Node13</title>
<path fill="none" stroke="midnightblue" d="M606.42,-172.54C539.98,-161.62 433.95,-144.19 366.97,-133.19"/>
<polygon fill="midnightblue" stroke="midnightblue" points="367.41,-129.71 356.98,-131.54 366.28,-136.62 367.41,-129.71"/>
</g>
<!-- Node15 -->
<g id="node15" class="node">
<title>Node15</title>
<g id="a_node15"><a xlink:href="_entity_8h.html" target="_top" xlink:title=" ">
<polygon fill="white" stroke="black" points="672.01,-112.5 672.01,-131.5 804.01,-131.5 804.01,-112.5 672.01,-112.5"/>
<text text-anchor="middle" x="738.01" y="-119.5" font-family="Helvetica,sans-Serif" font-size="10.00">kryne&#45;engine/Core/Entity.h</text>
</a>
</g>
</g>
<!-- Node4&#45;&gt;Node15 -->
<g id="edge16" class="edge">
<title>Node4&#45;&gt;Node15</title>
<path fill="none" stroke="midnightblue" d="M683.83,-168.4C694.68,-159.31 708.78,-147.49 719.88,-138.19"/>
<polygon fill="midnightblue" stroke="midnightblue" points="722.26,-140.76 727.67,-131.66 717.76,-135.4 722.26,-140.76"/>
</g>
<!-- Node13&#45;&gt;Node9 -->
<g id="edge14" class="edge">
<title>Node13&#45;&gt;Node9</title>
<path fill="none" stroke="midnightblue" d="M272.05,-112.44C236.22,-103.14 178.84,-88.25 139.62,-78.06"/>
<polygon fill="midnightblue" stroke="midnightblue" points="140.37,-74.64 129.81,-75.52 138.61,-81.42 140.37,-74.64"/>
</g>
<!-- Node14 -->
<g id="node14" class="node">
<title>Node14</title>
<g id="a_node14"><a xlink:title=" ">
<polygon fill="white" stroke="#bfbfbf" points="262.01,-56.5 262.01,-75.5 348.01,-75.5 348.01,-56.5 262.01,-56.5"/>
<text text-anchor="middle" x="305.01" y="-63.5" font-family="Helvetica,sans-Serif" font-size="10.00">glm/mat3x3.hpp</text>
</a>
</g>
</g>
<!-- Node13&#45;&gt;Node14 -->
<g id="edge15" class="edge">
<title>Node13&#45;&gt;Node14</title>
<path fill="none" stroke="midnightblue" d="M305.01,-112.08C305.01,-105.01 305.01,-94.86 305.01,-85.99"/>
<polygon fill="midnightblue" stroke="midnightblue" points="308.51,-85.75 305.01,-75.75 301.51,-85.75 308.51,-85.75"/>
</g>
<!-- Node15&#45;&gt;Node5 -->
<g id="edge18" class="edge">
<title>Node15&#45;&gt;Node5</title>
<path fill="none" stroke="midnightblue" d="M753.11,-112.32C767.91,-103.82 790.7,-90.73 807.99,-80.8"/>
<polygon fill="midnightblue" stroke="midnightblue" points="810.01,-83.67 816.94,-75.65 806.53,-77.6 810.01,-83.67"/>
</g>
<!-- Node16 -->
<g id="node16" class="node">
<title>Node16</title>
<g id="a_node16"><a xlink:title=" ">
<polygon fill="white" stroke="#bfbfbf" points="651.01,-56.5 651.01,-75.5 697.01,-75.5 697.01,-56.5 651.01,-56.5"/>
<text text-anchor="middle" x="674.01" y="-63.5" font-family="Helvetica,sans-Serif" font-size="10.00">atomic</text>
</a>
</g>
</g>
<!-- Node15&#45;&gt;Node16 -->
<g id="edge17" class="edge">
<title>Node15&#45;&gt;Node16</title>
<path fill="none" stroke="midnightblue" d="M727.72,-112.32C718.17,-104.26 703.73,-92.08 692.22,-82.37"/>
<polygon fill="midnightblue" stroke="midnightblue" points="694.38,-79.61 684.48,-75.83 689.86,-84.96 694.38,-79.61"/>
</g>
<!-- Node17 -->
<g id="node17" class="node">
<title>Node17</title>
<g id="a_node17"><a xlink:title=" ">
<polygon fill="white" stroke="#bfbfbf" points="715.01,-56.5 715.01,-75.5 793.01,-75.5 793.01,-56.5 715.01,-56.5"/>
<text text-anchor="middle" x="754.01" y="-63.5" font-family="Helvetica,sans-Serif" font-size="10.00">unordered_set</text>
</a>
</g>
</g>
<!-- Node15&#45;&gt;Node17 -->
<g id="edge19" class="edge">
<title>Node15&#45;&gt;Node17</title>
<path fill="none" stroke="midnightblue" d="M740.65,-112.08C742.79,-104.85 745.89,-94.41 748.56,-85.4"/>
<polygon fill="midnightblue" stroke="midnightblue" points="751.93,-86.33 751.41,-75.75 745.22,-84.34 751.93,-86.33"/>
</g>
<!-- Node18 -->
<g id="node18" class="node">
<title>Node18</title>
<g id="a_node18"><a xlink:href="_process_8h.html" target="_top" xlink:title=" ">
<polygon fill="white" stroke="black" points="479.51,-56.5 479.51,-75.5 540.51,-75.5 540.51,-56.5 479.51,-56.5"/>
<text text-anchor="middle" x="510.01" y="-63.5" font-family="Helvetica,sans-Serif" font-size="10.00">Process.h</text>
</a>
</g>
</g>
<!-- Node15&#45;&gt;Node18 -->
<g id="edge20" class="edge">
<title>Node15&#45;&gt;Node18</title>
<path fill="none" stroke="midnightblue" d="M696.79,-112.44C655.18,-103.07 591.51,-88.03 550.25,-77.84"/>
<polygon fill="midnightblue" stroke="midnightblue" points="551.08,-74.44 540.53,-75.43 549.39,-81.23 551.08,-74.44"/>
</g>
<!-- Node20 -->
<g id="node20" class="node">
<title>Node20</title>
<g id="a_node20"><a xlink:href="_component_8h.html" target="_top" xlink:title=" ">
<polygon fill="white" stroke="black" points="559.01,-56.5 559.01,-75.5 633.01,-75.5 633.01,-56.5 559.01,-56.5"/>
<text text-anchor="middle" x="596.01" y="-63.5" font-family="Helvetica,sans-Serif" font-size="10.00">Component.h</text>
</a>
</g>
</g>
<!-- Node15&#45;&gt;Node20 -->
<g id="edge24" class="edge">
<title>Node15&#45;&gt;Node20</title>
<path fill="none" stroke="midnightblue" d="M710.42,-112.44C684.99,-103.52 647.74,-89.44 622.62,-79.32"/>
<polygon fill="midnightblue" stroke="midnightblue" points="623.9,-76.06 613.32,-75.52 621.26,-82.54 623.9,-76.06"/>
</g>
<!-- Node18&#45;&gt;Node3 -->
<g id="edge21" class="edge">
<title>Node18&#45;&gt;Node3</title>
<path fill="none" stroke="midnightblue" d="M540.53,-57.85C543.72,-57.19 546.92,-56.56 550.01,-56 656.35,-36.85 783.22,-21.74 844.42,-14.93"/>
<polygon fill="midnightblue" stroke="midnightblue" points="845.15,-18.37 854.71,-13.79 844.39,-11.41 845.15,-18.37"/>
</g>
<!-- Node18&#45;&gt;Node15 -->
<g id="edge23" class="edge">
<title>Node18&#45;&gt;Node15</title>
<path fill="none" stroke="midnightblue" d="M540.52,-73.16C580.99,-82.13 652.21,-98.92 697.23,-110.03"/>
<polygon fill="midnightblue" stroke="midnightblue" points="696.42,-113.43 706.97,-112.44 698.11,-106.64 696.42,-113.43"/>
</g>
<!-- Node19 -->
<g id="node19" class="node">
<title>Node19</title>
<g id="a_node19"><a xlink:title=" ">
<polygon fill="white" stroke="#bfbfbf" points="468.51,-0.5 468.51,-19.5 551.51,-19.5 551.51,-0.5 468.51,-0.5"/>
<text text-anchor="middle" x="510.01" y="-7.5" font-family="Helvetica,sans-Serif" font-size="10.00">unordered_map</text>
</a>
</g>
</g>
<!-- Node18&#45;&gt;Node19 -->
<g id="edge22" class="edge">
<title>Node18&#45;&gt;Node19</title>
<path fill="none" stroke="midnightblue" d="M510.01,-56.08C510.01,-49.01 510.01,-38.86 510.01,-29.99"/>
<polygon fill="midnightblue" stroke="midnightblue" points="513.51,-29.75 510.01,-19.75 506.51,-29.75 513.51,-29.75"/>
</g>
<!-- Node20&#45;&gt;Node15 -->
<g id="edge25" class="edge">
<title>Node20&#45;&gt;Node15</title>
<path fill="none" stroke="midnightblue" d="M623.48,-75.52C648.88,-84.43 686.13,-98.5 711.27,-108.64"/>
<polygon fill="midnightblue" stroke="midnightblue" points="710.01,-111.9 720.59,-112.44 712.66,-105.42 710.01,-111.9"/>
</g>
<!-- Node21&#45;&gt;Node12 -->
<g id="edge28" class="edge">
<title>Node21&#45;&gt;Node12</title>
<path fill="none" stroke="midnightblue" d="M1111.98,-173.98C1102.25,-164.78 1086.55,-149.96 1074.58,-138.66"/>
<polygon fill="midnightblue" stroke="midnightblue" points="1076.69,-135.83 1067.02,-131.51 1071.88,-140.92 1076.69,-135.83"/>
</g>
<!-- Node22 -->
<g id="node22" class="node">
<title>Node22</title>
<g id="a_node22"><a xlink:title=" ">
<polygon fill="white" stroke="#bfbfbf" points="1148.01,-112.5 1148.01,-131.5 1234.01,-131.5 1234.01,-112.5 1148.01,-112.5"/>
<text text-anchor="middle" x="1191.01" y="-119.5" font-family="Helvetica,sans-Serif" font-size="10.00">glm/mat4x4.hpp</text>
</a>
</g>
</g>
<!-- Node21&#45;&gt;Node22 -->
<g id="edge27" class="edge">
<title>Node21&#45;&gt;Node22</title>
<path fill="none" stroke="midnightblue" d="M1131.04,-173.98C1142.06,-164.61 1159.97,-149.38 1173.35,-138.01"/>
<polygon fill="midnightblue" stroke="midnightblue" points="1175.64,-140.65 1181,-131.51 1171.11,-135.32 1175.64,-140.65"/>
</g>
</g>
</svg>
