<?xml version="1.0" encoding="UTF-8" standalone="no"?>
<!DOCTYPE svg PUBLIC "-//W3C//DTD SVG 1.1//EN"
 "http://www.w3.org/Graphics/SVG/1.1/DTD/svg11.dtd">
<!-- Generated by graphviz version 2.44.1 (20200629.0846)
 -->
<!-- Title: kryne&#45;engine/src/Camera/Camera.cpp Pages: 1 -->
<svg width="1233pt" height="285pt"
 viewBox="0.00 0.00 1233.00 285.00" xmlns="http://www.w3.org/2000/svg" xmlns:xlink="http://www.w3.org/1999/xlink">
<g id="graph0" class="graph" transform="scale(1 1) rotate(0) translate(4 281)">
<title>kryne&#45;engine/src/Camera/Camera.cpp</title>
<polygon fill="white" stroke="transparent" points="-4,4 -4,-281 1229,-281 1229,4 -4,4"/>
<!-- Node1 -->
<g id="node1" class="node">
<title>Node1</title>
<g id="a_node1"><a xlink:title=" ">
<polygon fill="#bfbfbf" stroke="black" points="370.5,-246.5 370.5,-276.5 495.5,-276.5 495.5,-246.5 370.5,-246.5"/>
<text text-anchor="start" x="378.5" y="-264.5" font-family="Helvetica,sans-Serif" font-size="10.00">kryne&#45;engine/src/Camera</text>
<text text-anchor="middle" x="433" y="-253.5" font-family="Helvetica,sans-Serif" font-size="10.00">/Camera.cpp</text>
</a>
</g>
</g>
<!-- Node2 -->
<g id="node2" class="node">
<title>Node2</title>
<g id="a_node2"><a xlink:href="kryne-engine_2_camera_2_camera_8h.html" target="_top" xlink:title=" ">
<polygon fill="white" stroke="black" points="378.5,-179.5 378.5,-209.5 487.5,-209.5 487.5,-179.5 378.5,-179.5"/>
<text text-anchor="start" x="386.5" y="-197.5" font-family="Helvetica,sans-Serif" font-size="10.00">kryne&#45;engine/Camera</text>
<text text-anchor="middle" x="433" y="-186.5" font-family="Helvetica,sans-Serif" font-size="10.00">/Camera.h</text>
</a>
</g>
</g>
<!-- Node1&#45;&gt;Node2 -->
<g id="edge1" class="edge">
<title>Node1&#45;&gt;Node2</title>
<path fill="none" stroke="midnightblue" d="M433,-246.4C433,-238.64 433,-228.81 433,-219.86"/>
<polygon fill="midnightblue" stroke="midnightblue" points="436.5,-219.58 433,-209.58 429.5,-219.58 436.5,-219.58"/>
</g>
<!-- Node3 -->
<g id="node3" class="node">
<title>Node3</title>
<g id="a_node3"><a xlink:title=" ">
<polygon fill="white" stroke="#bfbfbf" points="0,-56.5 0,-75.5 52,-75.5 52,-56.5 0,-56.5"/>
<text text-anchor="middle" x="26" y="-63.5" font-family="Helvetica,sans-Serif" font-size="10.00">memory</text>
</a>
</g>
</g>
<!-- Node2&#45;&gt;Node3 -->
<g id="edge2" class="edge">
<title>Node2&#45;&gt;Node3</title>
<path fill="none" stroke="midnightblue" d="M387.89,-179.48C306.45,-154.17 136.44,-101.33 62.1,-78.22"/>
<polygon fill="midnightblue" stroke="midnightblue" points="62.85,-74.79 52.26,-75.16 60.77,-81.47 62.85,-74.79"/>
</g>
<!-- Node4 -->
<g id="node4" class="node">
<title>Node4</title>
<g id="a_node4"><a xlink:href="_object3_d_8h.html" target="_top" xlink:title=" ">
<polygon fill="white" stroke="black" points="372.5,-112.5 372.5,-142.5 493.5,-142.5 493.5,-112.5 372.5,-112.5"/>
<text text-anchor="start" x="380.5" y="-130.5" font-family="Helvetica,sans-Serif" font-size="10.00">kryne&#45;engine/3DObjects</text>
<text text-anchor="middle" x="433" y="-119.5" font-family="Helvetica,sans-Serif" font-size="10.00">/Object3D.h</text>
</a>
</g>
</g>
<!-- Node2&#45;&gt;Node4 -->
<g id="edge3" class="edge">
<title>Node2&#45;&gt;Node4</title>
<path fill="none" stroke="midnightblue" d="M433,-179.4C433,-171.64 433,-161.81 433,-152.86"/>
<polygon fill="midnightblue" stroke="midnightblue" points="436.5,-152.58 433,-142.58 429.5,-152.58 436.5,-152.58"/>
</g>
<!-- Node16 -->
<g id="node16" class="node">
<title>Node16</title>
<g id="a_node16"><a xlink:href="_projection_data_8hpp.html" target="_top" xlink:title=" ">
<polygon fill="white" stroke="black" points="999.5,-118 999.5,-137 1098.5,-137 1098.5,-118 999.5,-118"/>
<text text-anchor="middle" x="1049" y="-125" font-family="Helvetica,sans-Serif" font-size="10.00">ProjectionData.hpp</text>
</a>
</g>
</g>
<!-- Node2&#45;&gt;Node16 -->
<g id="edge17" class="edge">
<title>Node2&#45;&gt;Node16</title>
<path fill="none" stroke="midnightblue" d="M487.67,-187.73C602.83,-175.58 869.59,-147.43 989.15,-134.82"/>
<polygon fill="midnightblue" stroke="midnightblue" points="989.64,-138.28 999.22,-133.75 988.91,-131.32 989.64,-138.28"/>
</g>
<!-- Node4&#45;&gt;Node3 -->
<g id="edge4" class="edge">
<title>Node4&#45;&gt;Node3</title>
<path fill="none" stroke="midnightblue" d="M372.4,-120.47C300.57,-112.84 177.13,-98.18 62.31,-76.07"/>
<polygon fill="midnightblue" stroke="midnightblue" points="62.78,-72.59 52.3,-74.11 61.44,-79.46 62.78,-72.59"/>
</g>
<!-- Node5 -->
<g id="node5" class="node">
<title>Node5</title>
<g id="a_node5"><a xlink:title=" ">
<polygon fill="white" stroke="#bfbfbf" points="70,-56.5 70,-75.5 116,-75.5 116,-56.5 70,-56.5"/>
<text text-anchor="middle" x="93" y="-63.5" font-family="Helvetica,sans-Serif" font-size="10.00">atomic</text>
</a>
</g>
</g>
<!-- Node4&#45;&gt;Node5 -->
<g id="edge5" class="edge">
<title>Node4&#45;&gt;Node5</title>
<path fill="none" stroke="midnightblue" d="M372.42,-118.61C312.23,-110.3 217.14,-95.95 126.26,-76.08"/>
<polygon fill="midnightblue" stroke="midnightblue" points="126.86,-72.63 116.34,-73.89 125.35,-79.47 126.86,-72.63"/>
</g>
<!-- Node6 -->
<g id="node6" class="node">
<title>Node6</title>
<g id="a_node6"><a xlink:title=" ">
<polygon fill="white" stroke="#bfbfbf" points="134,-56.5 134,-75.5 176,-75.5 176,-56.5 134,-56.5"/>
<text text-anchor="middle" x="155" y="-63.5" font-family="Helvetica,sans-Serif" font-size="10.00">vector</text>
</a>
</g>
</g>
<!-- Node4&#45;&gt;Node6 -->
<g id="edge6" class="edge">
<title>Node4&#45;&gt;Node6</title>
<path fill="none" stroke="midnightblue" d="M372.27,-115.72C324.11,-106.81 254.94,-93.22 185.97,-76.07"/>
<polygon fill="midnightblue" stroke="midnightblue" points="186.79,-72.67 176.24,-73.63 185.09,-79.46 186.79,-72.67"/>
</g>
<!-- Node7 -->
<g id="node7" class="node">
<title>Node7</title>
<g id="a_node7"><a xlink:title=" ">
<polygon fill="white" stroke="#bfbfbf" points="194,-56.5 194,-75.5 264,-75.5 264,-56.5 194,-56.5"/>
<text text-anchor="middle" x="229" y="-63.5" font-family="Helvetica,sans-Serif" font-size="10.00">glm/glm.hpp</text>
</a>
</g>
</g>
<!-- Node4&#45;&gt;Node7 -->
<g id="edge7" class="edge">
<title>Node4&#45;&gt;Node7</title>
<path fill="none" stroke="midnightblue" d="M384.91,-112.47C349.26,-102.08 301.27,-88.08 267.99,-78.37"/>
<polygon fill="midnightblue" stroke="midnightblue" points="268.74,-74.95 258.16,-75.51 266.78,-81.67 268.74,-74.95"/>
</g>
<!-- Node8 -->
<g id="node8" class="node">
<title>Node8</title>
<g id="a_node8"><a xlink:title=" ">
<polygon fill="white" stroke="#bfbfbf" points="282,-56.5 282,-75.5 374,-75.5 374,-56.5 282,-56.5"/>
<text text-anchor="middle" x="328" y="-63.5" font-family="Helvetica,sans-Serif" font-size="10.00">glm/common.hpp</text>
</a>
</g>
</g>
<!-- Node4&#45;&gt;Node8 -->
<g id="edge8" class="edge">
<title>Node4&#45;&gt;Node8</title>
<path fill="none" stroke="midnightblue" d="M408.12,-112.4C391.29,-102.86 369.16,-90.32 352.43,-80.84"/>
<polygon fill="midnightblue" stroke="midnightblue" points="353.7,-77.54 343.28,-75.66 350.25,-83.63 353.7,-77.54"/>
</g>
<!-- Node9 -->
<g id="node9" class="node">
<title>Node9</title>
<g id="a_node9"><a xlink:title=" ">
<polygon fill="white" stroke="#bfbfbf" points="392.5,-56.5 392.5,-75.5 473.5,-75.5 473.5,-56.5 392.5,-56.5"/>
<text text-anchor="middle" x="433" y="-63.5" font-family="Helvetica,sans-Serif" font-size="10.00">glm/matrix.hpp</text>
</a>
</g>
</g>
<!-- Node4&#45;&gt;Node9 -->
<g id="edge9" class="edge">
<title>Node4&#45;&gt;Node9</title>
<path fill="none" stroke="midnightblue" d="M433,-112.4C433,-104.47 433,-94.46 433,-85.86"/>
<polygon fill="midnightblue" stroke="midnightblue" points="436.5,-85.66 433,-75.66 429.5,-85.66 436.5,-85.66"/>
</g>
<!-- Node10 -->
<g id="node10" class="node">
<title>Node10</title>
<g id="a_node10"><a xlink:title=" ">
<polygon fill="white" stroke="#bfbfbf" points="605,-0.5 605,-19.5 679,-19.5 679,-0.5 605,-0.5"/>
<text text-anchor="middle" x="642" y="-7.5" font-family="Helvetica,sans-Serif" font-size="10.00">glm/vec3.hpp</text>
</a>
</g>
</g>
<!-- Node4&#45;&gt;Node10 -->
<g id="edge10" class="edge">
<title>Node4&#45;&gt;Node10</title>
<path fill="none" stroke="midnightblue" d="M447.5,-112.43C464.12,-96.91 492.73,-72.03 521,-56 546.36,-41.62 577.19,-30.24 601.38,-22.52"/>
<polygon fill="midnightblue" stroke="midnightblue" points="602.46,-25.85 610.97,-19.53 600.38,-19.16 602.46,-25.85"/>
</g>
<!-- Node11 -->
<g id="node11" class="node">
<title>Node11</title>
<g id="a_node11"><a xlink:title=" ">
<polygon fill="white" stroke="#bfbfbf" points="530,-56.5 530,-75.5 646,-75.5 646,-56.5 530,-56.5"/>
<text text-anchor="middle" x="588" y="-63.5" font-family="Helvetica,sans-Serif" font-size="10.00">glm/gtc/quaternion.hpp</text>
</a>
</g>
</g>
<!-- Node4&#45;&gt;Node11 -->
<g id="edge11" class="edge">
<title>Node4&#45;&gt;Node11</title>
<path fill="none" stroke="midnightblue" d="M469.73,-112.4C495.97,-102.33 530.93,-88.91 556.02,-79.28"/>
<polygon fill="midnightblue" stroke="midnightblue" points="557.36,-82.51 565.45,-75.66 554.86,-75.97 557.36,-82.51"/>
</g>
<!-- Node12 -->
<g id="node12" class="node">
<title>Node12</title>
<g id="a_node12"><a xlink:title=" ">
<polygon fill="white" stroke="#bfbfbf" points="664,-56.5 664,-75.5 780,-75.5 780,-56.5 664,-56.5"/>
<text text-anchor="middle" x="722" y="-63.5" font-family="Helvetica,sans-Serif" font-size="10.00">glm/gtx/quaternion.hpp</text>
</a>
</g>
</g>
<!-- Node4&#45;&gt;Node12 -->
<g id="edge12" class="edge">
<title>Node4&#45;&gt;Node12</title>
<path fill="none" stroke="midnightblue" d="M493.58,-114.03C546.08,-103.22 621.18,-87.76 670.74,-77.55"/>
<polygon fill="midnightblue" stroke="midnightblue" points="671.52,-80.97 680.61,-75.52 670.11,-74.11 671.52,-80.97"/>
</g>
<!-- Node13 -->
<g id="node13" class="node">
<title>Node13</title>
<g id="a_node13"><a xlink:title=" ">
<polygon fill="white" stroke="#bfbfbf" points="977.5,-56.5 977.5,-75.5 1120.5,-75.5 1120.5,-56.5 977.5,-56.5"/>
<text text-anchor="middle" x="1049" y="-63.5" font-family="Helvetica,sans-Serif" font-size="10.00">glm/gtc/matrix_transform.hpp</text>
</a>
</g>
</g>
<!-- Node4&#45;&gt;Node13 -->
<g id="edge13" class="edge">
<title>Node4&#45;&gt;Node13</title>
<path fill="none" stroke="midnightblue" d="M493.61,-121.11C590.98,-112.37 788.57,-94.35 967.34,-76.05"/>
<polygon fill="midnightblue" stroke="midnightblue" points="967.86,-79.52 977.45,-75.01 967.15,-72.55 967.86,-79.52"/>
</g>
<!-- Node14 -->
<g id="node14" class="node">
<title>Node14</title>
<g id="a_node14"><a xlink:href="_transform_8hpp.html" target="_top" xlink:title=" ">
<polygon fill="white" stroke="black" points="798.5,-56.5 798.5,-75.5 959.5,-75.5 959.5,-56.5 798.5,-56.5"/>
<text text-anchor="middle" x="879" y="-63.5" font-family="Helvetica,sans-Serif" font-size="10.00">kryne&#45;engine/Math/Transform.hpp</text>
</a>
</g>
</g>
<!-- Node4&#45;&gt;Node14 -->
<g id="edge14" class="edge">
<title>Node4&#45;&gt;Node14</title>
<path fill="none" stroke="midnightblue" d="M493.61,-118.41C574.6,-107.61 718,-88.48 805.19,-76.85"/>
<polygon fill="midnightblue" stroke="midnightblue" points="805.82,-80.29 815.27,-75.5 804.9,-73.35 805.82,-80.29"/>
</g>
<!-- Node14&#45;&gt;Node10 -->
<g id="edge15" class="edge">
<title>Node14&#45;&gt;Node10</title>
<path fill="none" stroke="midnightblue" d="M841.45,-56.44C800.19,-47.04 733.86,-31.93 689.13,-21.74"/>
<polygon fill="midnightblue" stroke="midnightblue" points="689.91,-18.33 679.38,-19.52 688.35,-25.15 689.91,-18.33"/>
</g>
<!-- Node15 -->
<g id="node15" class="node">
<title>Node15</title>
<g id="a_node15"><a xlink:title=" ">
<polygon fill="white" stroke="#bfbfbf" points="836,-0.5 836,-19.5 922,-19.5 922,-0.5 836,-0.5"/>
<text text-anchor="middle" x="879" y="-7.5" font-family="Helvetica,sans-Serif" font-size="10.00">glm/mat3x3.hpp</text>
</a>
</g>
</g>
<!-- Node14&#45;&gt;Node15 -->
<g id="edge16" class="edge">
<title>Node14&#45;&gt;Node15</title>
<path fill="none" stroke="midnightblue" d="M879,-56.08C879,-49.01 879,-38.86 879,-29.99"/>
<polygon fill="midnightblue" stroke="midnightblue" points="882.5,-29.75 879,-19.75 875.5,-29.75 882.5,-29.75"/>
</g>
<!-- Node16&#45;&gt;Node13 -->
<g id="edge19" class="edge">
<title>Node16&#45;&gt;Node13</title>
<path fill="none" stroke="midnightblue" d="M1049,-117.98C1049,-109.58 1049,-96.48 1049,-85.66"/>
<polygon fill="midnightblue" stroke="midnightblue" points="1052.5,-85.51 1049,-75.51 1045.5,-85.51 1052.5,-85.51"/>
</g>
<!-- Node17 -->
<g id="node17" class="node">
<title>Node17</title>
<g id="a_node17"><a xlink:title=" ">
<polygon fill="white" stroke="#bfbfbf" points="1139,-56.5 1139,-75.5 1225,-75.5 1225,-56.5 1139,-56.5"/>
<text text-anchor="middle" x="1182" y="-63.5" font-family="Helvetica,sans-Serif" font-size="10.00">glm/mat4x4.hpp</text>
</a>
</g>
</g>
<!-- Node16&#45;&gt;Node17 -->
<g id="edge18" class="edge">
<title>Node16&#45;&gt;Node17</title>
<path fill="none" stroke="midnightblue" d="M1068.06,-117.98C1090.47,-107.95 1127.91,-91.2 1153.71,-79.65"/>
<polygon fill="midnightblue" stroke="midnightblue" points="1155.28,-82.79 1162.98,-75.51 1152.42,-76.4 1155.28,-82.79"/>
</g>
</g>
</svg>
