<?xml version="1.0" encoding="UTF-8" standalone="no"?>
<!DOCTYPE svg PUBLIC "-//W3C//DTD SVG 1.1//EN"
 "http://www.w3.org/Graphics/SVG/1.1/DTD/svg11.dtd">
<!-- Generated by graphviz version 2.44.1 (20200629.0846)
 -->
<!-- Title: kryne&#45;engine/include/kryne&#45;engine/Core/Component.h Pages: 1 -->
<svg width="1699pt" height="641pt"
 viewBox="0.00 0.00 1699.00 641.00" xmlns="http://www.w3.org/2000/svg" xmlns:xlink="http://www.w3.org/1999/xlink">
<g id="graph0" class="graph" transform="scale(1 1) rotate(0) translate(4 637)">
<title>kryne&#45;engine/include/kryne&#45;engine/Core/Component.h</title>
<polygon fill="white" stroke="transparent" points="-4,4 -4,-637 1695,-637 1695,4 -4,4"/>
<!-- Node1 -->
<g id="node1" class="node">
<title>Node1</title>
<g id="a_node1"><a xlink:title=" ">
<polygon fill="#bfbfbf" stroke="black" points="1210,-602.5 1210,-632.5 1369,-632.5 1369,-602.5 1210,-602.5"/>
<text text-anchor="start" x="1218" y="-620.5" font-family="Helvetica,sans-Serif" font-size="10.00">kryne&#45;engine/include</text>
<text text-anchor="middle" x="1289.5" y="-609.5" font-family="Helvetica,sans-Serif" font-size="10.00">/kryne&#45;engine/Core/Component.h</text>
</a>
</g>
</g>
<!-- Node2 -->
<g id="node2" class="node">
<title>Node2</title>
<g id="a_node2"><a xlink:href="_entity_8h.html" target="_top" xlink:title=" ">
<polygon fill="white" stroke="black" points="1060,-535.5 1060,-565.5 1195,-565.5 1195,-535.5 1060,-535.5"/>
<text text-anchor="start" x="1068" y="-553.5" font-family="Helvetica,sans-Serif" font-size="10.00">kryne&#45;engine/include</text>
<text text-anchor="middle" x="1127.5" y="-542.5" font-family="Helvetica,sans-Serif" font-size="10.00">/kryne&#45;engine/Core/Entity.h</text>
</a>
</g>
</g>
<!-- Node1&#45;&gt;Node2 -->
<g id="edge1" class="edge">
<title>Node1&#45;&gt;Node2</title>
<path fill="none" stroke="midnightblue" d="M1238.99,-598.68C1212.02,-588.26 1179.82,-575.28 1156.91,-565.58"/>
<polygon fill="midnightblue" stroke="midnightblue" points="1238.08,-602.08 1248.67,-602.4 1240.59,-595.54 1238.08,-602.08"/>
</g>
<!-- Node33 -->
<g id="node33" class="node">
<title>Node33</title>
<g id="a_node33"><a xlink:href="_logic_component_8h.html" target="_top" xlink:title=" ">
<polygon fill="white" stroke="black" points="1479.5,-463 1479.5,-493 1661.5,-493 1661.5,-463 1479.5,-463"/>
<text text-anchor="start" x="1487.5" y="-481" font-family="Helvetica,sans-Serif" font-size="10.00">kryne&#45;engine/include</text>
<text text-anchor="middle" x="1570.5" y="-470" font-family="Helvetica,sans-Serif" font-size="10.00">/kryne&#45;engine/Core/LogicComponent.h</text>
</a>
</g>
</g>
<!-- Node1&#45;&gt;Node33 -->
<g id="edge47" class="edge">
<title>Node1&#45;&gt;Node33</title>
<path fill="none" stroke="midnightblue" d="M1299.94,-593.34C1309.47,-574.81 1325.3,-549.59 1346.5,-535 1359.67,-525.94 1443.38,-506.43 1504.62,-493.01"/>
<polygon fill="midnightblue" stroke="midnightblue" points="1296.79,-591.81 1295.53,-602.33 1303.08,-594.89 1296.79,-591.81"/>
</g>
<!-- Node35 -->
<g id="node35" class="node">
<title>Node35</title>
<g id="a_node35"><a xlink:href="_render_mesh_8h.html" target="_top" xlink:title=" ">
<polygon fill="white" stroke="black" points="1294.5,-457.5 1294.5,-498.5 1416.5,-498.5 1416.5,-457.5 1294.5,-457.5"/>
<text text-anchor="start" x="1302.5" y="-486.5" font-family="Helvetica,sans-Serif" font-size="10.00">kryne&#45;engine/include</text>
<text text-anchor="start" x="1302.5" y="-475.5" font-family="Helvetica,sans-Serif" font-size="10.00">/kryne&#45;engine/Rendering</text>
<text text-anchor="middle" x="1355.5" y="-464.5" font-family="Helvetica,sans-Serif" font-size="10.00">/RenderMesh.h</text>
</a>
</g>
</g>
<!-- Node1&#45;&gt;Node35 -->
<g id="edge51" class="edge">
<title>Node1&#45;&gt;Node35</title>
<path fill="none" stroke="midnightblue" d="M1294.23,-592.34C1298.05,-575.66 1304.33,-553.28 1313.5,-535 1320.04,-521.96 1329.68,-508.85 1338.07,-498.58"/>
<polygon fill="midnightblue" stroke="midnightblue" points="1290.75,-591.87 1292.06,-602.38 1297.59,-593.34 1290.75,-591.87"/>
</g>
<!-- Node37 -->
<g id="node37" class="node">
<title>Node37</title>
<g id="a_node37"><a xlink:href="_component_8cpp.html" target="_top" xlink:title=" ">
<polygon fill="white" stroke="black" points="1355.5,-535.5 1355.5,-565.5 1467.5,-565.5 1467.5,-535.5 1355.5,-535.5"/>
<text text-anchor="start" x="1363.5" y="-553.5" font-family="Helvetica,sans-Serif" font-size="10.00">kryne&#45;engine/src/Core</text>
<text text-anchor="middle" x="1411.5" y="-542.5" font-family="Helvetica,sans-Serif" font-size="10.00">/Component.cpp</text>
</a>
</g>
</g>
<!-- Node1&#45;&gt;Node37 -->
<g id="edge56" class="edge">
<title>Node1&#45;&gt;Node37</title>
<path fill="none" stroke="midnightblue" d="M1325.02,-597.57C1344.21,-587.35 1367.5,-574.94 1385.08,-565.58"/>
<polygon fill="midnightblue" stroke="midnightblue" points="1323.15,-594.6 1315.97,-602.4 1326.44,-600.78 1323.15,-594.6"/>
</g>
<!-- Node2&#45;&gt;Node1 -->
<g id="edge43" class="edge">
<title>Node2&#45;&gt;Node1</title>
<path fill="none" stroke="midnightblue" d="M1177.93,-569.29C1204.9,-579.71 1237.1,-592.69 1260.03,-602.4"/>
<polygon fill="midnightblue" stroke="midnightblue" points="1178.85,-565.89 1168.26,-565.58 1176.34,-572.43 1178.85,-565.89"/>
</g>
<!-- Node3 -->
<g id="node3" class="node">
<title>Node3</title>
<g id="a_node3"><a xlink:href="_scene_8h.html" target="_top" xlink:title=" ">
<polygon fill="white" stroke="black" points="395.5,-457.5 395.5,-498.5 519.5,-498.5 519.5,-457.5 395.5,-457.5"/>
<text text-anchor="start" x="403.5" y="-486.5" font-family="Helvetica,sans-Serif" font-size="10.00">kryne&#45;engine/include</text>
<text text-anchor="start" x="403.5" y="-475.5" font-family="Helvetica,sans-Serif" font-size="10.00">/kryne&#45;engine/3DObjects</text>
<text text-anchor="middle" x="457.5" y="-464.5" font-family="Helvetica,sans-Serif" font-size="10.00">/Scene.h</text>
</a>
</g>
</g>
<!-- Node2&#45;&gt;Node3 -->
<g id="edge2" class="edge">
<title>Node2&#45;&gt;Node3</title>
<path fill="none" stroke="midnightblue" d="M1049.65,-542.77C948.06,-533.8 764.8,-516.95 608.5,-499 579.21,-495.64 546.79,-491.41 519.52,-487.71"/>
<polygon fill="midnightblue" stroke="midnightblue" points="1049.56,-546.28 1059.82,-543.67 1050.17,-539.31 1049.56,-546.28"/>
</g>
<!-- Node5 -->
<g id="node5" class="node">
<title>Node5</title>
<g id="a_node5"><a xlink:href="_transform_8h.html" target="_top" xlink:title=" ">
<polygon fill="white" stroke="black" points="66.5,-379.5 66.5,-420.5 190.5,-420.5 190.5,-379.5 66.5,-379.5"/>
<text text-anchor="start" x="74.5" y="-408.5" font-family="Helvetica,sans-Serif" font-size="10.00">kryne&#45;engine/include</text>
<text text-anchor="start" x="74.5" y="-397.5" font-family="Helvetica,sans-Serif" font-size="10.00">/kryne&#45;engine/3DObjects</text>
<text text-anchor="middle" x="128.5" y="-386.5" font-family="Helvetica,sans-Serif" font-size="10.00">/Transform.h</text>
</a>
</g>
</g>
<!-- Node2&#45;&gt;Node5 -->
<g id="edge30" class="edge">
<title>Node2&#45;&gt;Node5</title>
<path fill="none" stroke="midnightblue" d="M1049.86,-547.26C884.65,-541.88 503.42,-526.57 377.5,-499 297.7,-481.53 209.75,-443.86 162.57,-420.65"/>
<polygon fill="midnightblue" stroke="midnightblue" points="1049.84,-550.76 1059.95,-547.59 1050.07,-543.77 1049.84,-550.76"/>
</g>
<!-- Node13 -->
<g id="node13" class="node">
<title>Node13</title>
<g id="a_node13"><a xlink:href="_process_8h.html" target="_top" xlink:title=" ">
<polygon fill="white" stroke="black" points="1085.5,-229 1085.5,-259 1231.5,-259 1231.5,-229 1085.5,-229"/>
<text text-anchor="start" x="1093.5" y="-247" font-family="Helvetica,sans-Serif" font-size="10.00">kryne&#45;engine/include</text>
<text text-anchor="middle" x="1158.5" y="-236" font-family="Helvetica,sans-Serif" font-size="10.00">/kryne&#45;engine/Core/Process.h</text>
</a>
</g>
</g>
<!-- Node2&#45;&gt;Node13 -->
<g id="edge44" class="edge">
<title>Node2&#45;&gt;Node13</title>
<path fill="none" stroke="midnightblue" d="M1126.11,-525.02C1128.23,-464.14 1144.46,-307.35 1153.98,-259.25"/>
<polygon fill="midnightblue" stroke="midnightblue" points="1122.61,-525.15 1125.88,-535.22 1129.6,-525.3 1122.61,-525.15"/>
</g>
<!-- Node14 -->
<g id="node14" class="node">
<title>Node14</title>
<g id="a_node14"><a xlink:href="_system_8h.html" target="_top" xlink:title=" ">
<polygon fill="white" stroke="black" points="1334,-151 1334,-181 1477,-181 1477,-151 1334,-151"/>
<text text-anchor="start" x="1342" y="-169" font-family="Helvetica,sans-Serif" font-size="10.00">kryne&#45;engine/include</text>
<text text-anchor="middle" x="1405.5" y="-158" font-family="Helvetica,sans-Serif" font-size="10.00">/kryne&#45;engine/Core/System.h</text>
</a>
</g>
</g>
<!-- Node2&#45;&gt;Node14 -->
<g id="edge45" class="edge">
<title>Node2&#45;&gt;Node14</title>
<path fill="none" stroke="midnightblue" d="M1205.52,-545.68C1282.81,-540.3 1394.06,-527.69 1425.5,-499 1458.79,-468.63 1451.5,-446.06 1451.5,-401 1451.5,-401 1451.5,-401 1451.5,-321 1451.5,-267.43 1425.62,-207.59 1412.69,-181.02"/>
<polygon fill="midnightblue" stroke="midnightblue" points="1205.07,-542.21 1195.32,-546.37 1205.54,-549.19 1205.07,-542.21"/>
</g>
<!-- Node25 -->
<g id="node25" class="node">
<title>Node25</title>
<g id="a_node25"><a xlink:href="kryne-engine_2_camera_2_camera_8h.html" target="_top" xlink:title=" ">
<polygon fill="white" stroke="black" points="617.5,-457.5 617.5,-498.5 729.5,-498.5 729.5,-457.5 617.5,-457.5"/>
<text text-anchor="start" x="625.5" y="-486.5" font-family="Helvetica,sans-Serif" font-size="10.00">kryne&#45;engine/include</text>
<text text-anchor="start" x="625.5" y="-475.5" font-family="Helvetica,sans-Serif" font-size="10.00">/kryne&#45;engine/Camera</text>
<text text-anchor="middle" x="673.5" y="-464.5" font-family="Helvetica,sans-Serif" font-size="10.00">/Camera.h</text>
</a>
</g>
</g>
<!-- Node2&#45;&gt;Node25 -->
<g id="edge31" class="edge">
<title>Node2&#45;&gt;Node25</title>
<path fill="none" stroke="midnightblue" d="M1049.54,-537.39C958.52,-523.26 810.21,-500.23 729.74,-487.73"/>
<polygon fill="midnightblue" stroke="midnightblue" points="1049.11,-540.87 1059.53,-538.95 1050.19,-533.95 1049.11,-540.87"/>
</g>
<!-- Node32 -->
<g id="node32" class="node">
<title>Node32</title>
<g id="a_node32"><a xlink:href="_entity_8cpp.html" target="_top" xlink:title=" ">
<polygon fill="white" stroke="black" points="1164.5,-463 1164.5,-493 1276.5,-493 1276.5,-463 1164.5,-463"/>
<text text-anchor="start" x="1172.5" y="-481" font-family="Helvetica,sans-Serif" font-size="10.00">kryne&#45;engine/src/Core</text>
<text text-anchor="middle" x="1220.5" y="-470" font-family="Helvetica,sans-Serif" font-size="10.00">/Entity.cpp</text>
</a>
</g>
</g>
<!-- Node2&#45;&gt;Node32 -->
<g id="edge46" class="edge">
<title>Node2&#45;&gt;Node32</title>
<path fill="none" stroke="midnightblue" d="M1154.4,-529.11C1169.67,-517.53 1188.41,-503.33 1202.03,-493"/>
<polygon fill="midnightblue" stroke="midnightblue" points="1152.17,-526.4 1146.32,-535.23 1156.4,-531.98 1152.17,-526.4"/>
</g>
<!-- Node4 -->
<g id="node4" class="node">
<title>Node4</title>
<g id="a_node4"><a xlink:href="3_d_objects_8h.html" target="_top" xlink:title=" ">
<polygon fill="white" stroke="black" points="155,-307 155,-337 282,-337 282,-307 155,-307"/>
<text text-anchor="start" x="163" y="-325" font-family="Helvetica,sans-Serif" font-size="10.00">kryne&#45;engine/include</text>
<text text-anchor="middle" x="218.5" y="-314" font-family="Helvetica,sans-Serif" font-size="10.00">/KEModules/3DObjects.h</text>
</a>
</g>
</g>
<!-- Node3&#45;&gt;Node4 -->
<g id="edge3" class="edge">
<title>Node3&#45;&gt;Node4</title>
<path fill="none" stroke="midnightblue" d="M385.48,-467.12C329.37,-457.93 257.72,-442.43 237.5,-421 215.85,-398.06 215.38,-358.21 216.92,-337.08"/>
<polygon fill="midnightblue" stroke="midnightblue" points="384.97,-470.58 395.4,-468.7 386.08,-463.67 384.97,-470.58"/>
</g>
<!-- Node3&#45;&gt;Node5 -->
<g id="edge4" class="edge">
<title>Node3&#45;&gt;Node5</title>
<path fill="none" stroke="midnightblue" d="M385.59,-461.87C334.86,-451.01 265.37,-435.74 204.5,-421 199.99,-419.91 195.34,-418.75 190.66,-417.57"/>
<polygon fill="midnightblue" stroke="midnightblue" points="384.97,-465.32 395.48,-463.99 386.43,-458.47 384.97,-465.32"/>
</g>
<!-- Node7 -->
<g id="node7" class="node">
<title>Node7</title>
<g id="a_node7"><a xlink:href="_loop_renderer_8h.html" target="_top" xlink:title=" ">
<polygon fill="white" stroke="black" points="701.5,-379.5 701.5,-420.5 823.5,-420.5 823.5,-379.5 701.5,-379.5"/>
<text text-anchor="start" x="709.5" y="-408.5" font-family="Helvetica,sans-Serif" font-size="10.00">kryne&#45;engine/include</text>
<text text-anchor="start" x="709.5" y="-397.5" font-family="Helvetica,sans-Serif" font-size="10.00">/kryne&#45;engine/Rendering</text>
<text text-anchor="middle" x="762.5" y="-386.5" font-family="Helvetica,sans-Serif" font-size="10.00">/LoopRenderer.h</text>
</a>
</g>
</g>
<!-- Node3&#45;&gt;Node7 -->
<g id="edge8" class="edge">
<title>Node3&#45;&gt;Node7</title>
<path fill="none" stroke="midnightblue" d="M529.46,-459.07C581.73,-446.04 651.69,-428.61 701.28,-416.25"/>
<polygon fill="midnightblue" stroke="midnightblue" points="528.45,-455.71 519.59,-461.53 530.14,-462.51 528.45,-455.71"/>
</g>
<!-- Node21 -->
<g id="node21" class="node">
<title>Node21</title>
<g id="a_node21"><a xlink:href="_renderer_8h.html" target="_top" xlink:title=" ">
<polygon fill="white" stroke="black" points="455.5,-301.5 455.5,-342.5 577.5,-342.5 577.5,-301.5 455.5,-301.5"/>
<text text-anchor="start" x="463.5" y="-330.5" font-family="Helvetica,sans-Serif" font-size="10.00">kryne&#45;engine/include</text>
<text text-anchor="start" x="463.5" y="-319.5" font-family="Helvetica,sans-Serif" font-size="10.00">/kryne&#45;engine/Rendering</text>
<text text-anchor="middle" x="516.5" y="-308.5" font-family="Helvetica,sans-Serif" font-size="10.00">/Renderer.h</text>
</a>
</g>
</g>
<!-- Node3&#45;&gt;Node21 -->
<g id="edge26" class="edge">
<title>Node3&#45;&gt;Node21</title>
<path fill="none" stroke="midnightblue" d="M507.94,-451.44C518.99,-443.3 529.25,-433.17 535.5,-421 548.32,-396.02 537.3,-363.41 527.49,-342.83"/>
<polygon fill="midnightblue" stroke="midnightblue" points="505.67,-448.75 499.38,-457.27 509.61,-454.53 505.67,-448.75"/>
</g>
<!-- Node24 -->
<g id="node24" class="node">
<title>Node24</title>
<g id="a_node24"><a xlink:href="_scene_8cpp.html" target="_top" xlink:title=" ">
<polygon fill="white" stroke="black" points="247,-385 247,-415 384,-415 384,-385 247,-385"/>
<text text-anchor="start" x="255" y="-403" font-family="Helvetica,sans-Serif" font-size="10.00">kryne&#45;engine/src/3DObjects</text>
<text text-anchor="middle" x="315.5" y="-392" font-family="Helvetica,sans-Serif" font-size="10.00">/Scene.cpp</text>
</a>
</g>
</g>
<!-- Node3&#45;&gt;Node24 -->
<g id="edge29" class="edge">
<title>Node3&#45;&gt;Node24</title>
<path fill="none" stroke="midnightblue" d="M411.99,-452.64C388.92,-440.3 361.71,-425.73 342.08,-415.23"/>
<polygon fill="midnightblue" stroke="midnightblue" points="410.46,-455.8 420.93,-457.43 413.77,-449.62 410.46,-455.8"/>
</g>
<!-- Node5&#45;&gt;Node2 -->
<g id="edge6" class="edge">
<title>Node5&#45;&gt;Node2</title>
<path fill="none" stroke="midnightblue" d="M184.5,-424.72C237.69,-448.06 320.22,-482.52 395.5,-499 521.54,-526.59 903.36,-541.91 1059.72,-547.28"/>
<polygon fill="midnightblue" stroke="midnightblue" points="185.81,-421.47 175.25,-420.65 182.99,-427.88 185.81,-421.47"/>
</g>
<!-- Node5&#45;&gt;Node4 -->
<g id="edge5" class="edge">
<title>Node5&#45;&gt;Node4</title>
<path fill="none" stroke="midnightblue" d="M159.69,-372.66C173.78,-360.76 189.87,-347.18 201.65,-337.23"/>
<polygon fill="midnightblue" stroke="midnightblue" points="157.06,-370.3 151.68,-379.43 161.58,-375.65 157.06,-370.3"/>
</g>
<!-- Node6 -->
<g id="node6" class="node">
<title>Node6</title>
<g id="a_node6"><a xlink:href="_transform_8cpp.html" target="_top" xlink:title=" ">
<polygon fill="white" stroke="black" points="0,-307 0,-337 137,-337 137,-307 0,-307"/>
<text text-anchor="start" x="8" y="-325" font-family="Helvetica,sans-Serif" font-size="10.00">kryne&#45;engine/src/3DObjects</text>
<text text-anchor="middle" x="68.5" y="-314" font-family="Helvetica,sans-Serif" font-size="10.00">/Transform.cpp</text>
</a>
</g>
</g>
<!-- Node5&#45;&gt;Node6 -->
<g id="edge7" class="edge">
<title>Node5&#45;&gt;Node6</title>
<path fill="none" stroke="midnightblue" d="M106.65,-371.32C97.51,-359.75 87.29,-346.8 79.73,-337.23"/>
<polygon fill="midnightblue" stroke="midnightblue" points="104.1,-373.75 113.05,-379.43 109.6,-369.41 104.1,-373.75"/>
</g>
<!-- Node8 -->
<g id="node8" class="node">
<title>Node8</title>
<g id="a_node8"><a xlink:href="_graphic_context_8h.html" target="_top" xlink:title=" ">
<polygon fill="white" stroke="black" points="805,-301.5 805,-342.5 974,-342.5 974,-301.5 805,-301.5"/>
<text text-anchor="start" x="813" y="-330.5" font-family="Helvetica,sans-Serif" font-size="10.00">kryne&#45;engine/include</text>
<text text-anchor="start" x="813" y="-319.5" font-family="Helvetica,sans-Serif" font-size="10.00">/kryne&#45;engine/Core/GraphicContext</text>
<text text-anchor="middle" x="889.5" y="-308.5" font-family="Helvetica,sans-Serif" font-size="10.00">/GraphicContext.h</text>
</a>
</g>
</g>
<!-- Node7&#45;&gt;Node8 -->
<g id="edge9" class="edge">
<title>Node7&#45;&gt;Node8</title>
<path fill="none" stroke="midnightblue" d="M803.94,-374.2C821.12,-363.92 840.77,-352.16 856.91,-342.51"/>
<polygon fill="midnightblue" stroke="midnightblue" points="801.99,-371.29 795.21,-379.43 805.58,-377.3 801.99,-371.29"/>
</g>
<!-- Node10 -->
<g id="node10" class="node">
<title>Node10</title>
<g id="a_node10"><a xlink:href="_open_g_l_renderer_8h.html" target="_top" xlink:title=" ">
<polygon fill="white" stroke="black" points="685.5,-145.5 685.5,-186.5 835.5,-186.5 835.5,-145.5 685.5,-145.5"/>
<text text-anchor="start" x="693.5" y="-174.5" font-family="Helvetica,sans-Serif" font-size="10.00">kryne&#45;engine/include</text>
<text text-anchor="start" x="693.5" y="-163.5" font-family="Helvetica,sans-Serif" font-size="10.00">/kryne&#45;engine/Rendering</text>
<text text-anchor="middle" x="760.5" y="-152.5" font-family="Helvetica,sans-Serif" font-size="10.00">/Renderers/OpenGLRenderer.h</text>
</a>
</g>
</g>
<!-- Node7&#45;&gt;Node10 -->
<g id="edge25" class="edge">
<title>Node7&#45;&gt;Node10</title>
<path fill="none" stroke="midnightblue" d="M695.62,-374.57C682.42,-366.58 670.26,-356.24 662.5,-343 629.61,-286.88 696.24,-219.4 735.15,-186.69"/>
<polygon fill="midnightblue" stroke="midnightblue" points="693.97,-377.66 704.41,-379.49 697.39,-371.55 693.97,-377.66"/>
</g>
<!-- Node9 -->
<g id="node9" class="node">
<title>Node9</title>
<g id="a_node9"><a xlink:href="_open_g_l_context_8h.html" target="_top" xlink:title=" ">
<polygon fill="white" stroke="black" points="741,-223.5 741,-264.5 910,-264.5 910,-223.5 741,-223.5"/>
<text text-anchor="start" x="749" y="-252.5" font-family="Helvetica,sans-Serif" font-size="10.00">kryne&#45;engine/include</text>
<text text-anchor="start" x="749" y="-241.5" font-family="Helvetica,sans-Serif" font-size="10.00">/kryne&#45;engine/Core/GraphicContext</text>
<text text-anchor="middle" x="825.5" y="-230.5" font-family="Helvetica,sans-Serif" font-size="10.00">/OpenGLContext.h</text>
</a>
</g>
</g>
<!-- Node8&#45;&gt;Node9 -->
<g id="edge10" class="edge">
<title>Node8&#45;&gt;Node9</title>
<path fill="none" stroke="midnightblue" d="M866.45,-293.63C858.33,-283.99 849.38,-273.36 841.93,-264.51"/>
<polygon fill="midnightblue" stroke="midnightblue" points="863.9,-296.03 873.02,-301.43 869.25,-291.52 863.9,-296.03"/>
</g>
<!-- Node8&#45;&gt;Node13 -->
<g id="edge15" class="edge">
<title>Node8&#45;&gt;Node13</title>
<path fill="none" stroke="midnightblue" d="M968.57,-298.66C1013.85,-285.87 1069.3,-270.2 1108.57,-259.11"/>
<polygon fill="midnightblue" stroke="midnightblue" points="967.45,-295.34 958.77,-301.43 969.35,-302.08 967.45,-295.34"/>
</g>
<!-- Node9&#45;&gt;Node10 -->
<g id="edge11" class="edge">
<title>Node9&#45;&gt;Node10</title>
<path fill="none" stroke="midnightblue" d="M795.84,-215.92C787.07,-206.2 778.04,-195.45 771.2,-186.51"/>
<polygon fill="midnightblue" stroke="midnightblue" points="793.42,-218.45 802.77,-223.43 798.56,-213.71 793.42,-218.45"/>
</g>
<!-- Node12 -->
<g id="node12" class="node">
<title>Node12</title>
<g id="a_node12"><a xlink:href="_open_g_l_context_8cpp.html" target="_top" xlink:title=" ">
<polygon fill="white" stroke="black" points="854,-151 854,-181 1033,-181 1033,-151 854,-151"/>
<text text-anchor="start" x="862" y="-169" font-family="Helvetica,sans-Serif" font-size="10.00">kryne&#45;engine/src/Core</text>
<text text-anchor="middle" x="943.5" y="-158" font-family="Helvetica,sans-Serif" font-size="10.00">/GraphicContext/OpenGLContext.cpp</text>
</a>
</g>
</g>
<!-- Node9&#45;&gt;Node12 -->
<g id="edge14" class="edge">
<title>Node9&#45;&gt;Node12</title>
<path fill="none" stroke="midnightblue" d="M864.34,-217.99C883.29,-205.78 905.39,-191.55 921.41,-181.23"/>
<polygon fill="midnightblue" stroke="midnightblue" points="862.4,-215.07 855.89,-223.43 866.19,-220.96 862.4,-215.07"/>
</g>
<!-- Node10&#45;&gt;Node9 -->
<g id="edge12" class="edge">
<title>Node10&#45;&gt;Node9</title>
<path fill="none" stroke="midnightblue" d="M790.1,-194.01C798.86,-203.72 807.89,-214.47 814.75,-223.43"/>
<polygon fill="midnightblue" stroke="midnightblue" points="792.52,-191.48 783.16,-186.51 787.38,-196.23 792.52,-191.48"/>
</g>
<!-- Node11 -->
<g id="node11" class="node">
<title>Node11</title>
<g id="a_node11"><a xlink:href="_open_g_l_renderer_8cpp.html" target="_top" xlink:title=" ">
<polygon fill="white" stroke="black" points="680,-73 680,-103 841,-103 841,-73 680,-73"/>
<text text-anchor="start" x="688" y="-91" font-family="Helvetica,sans-Serif" font-size="10.00">kryne&#45;engine/src/Rendering</text>
<text text-anchor="middle" x="760.5" y="-80" font-family="Helvetica,sans-Serif" font-size="10.00">/Renderers/OpenGLRenderer.cpp</text>
</a>
</g>
</g>
<!-- Node10&#45;&gt;Node11 -->
<g id="edge13" class="edge">
<title>Node10&#45;&gt;Node11</title>
<path fill="none" stroke="midnightblue" d="M760.5,-135.28C760.5,-124.25 760.5,-112.25 760.5,-103.23"/>
<polygon fill="midnightblue" stroke="midnightblue" points="757,-135.43 760.5,-145.43 764,-135.43 757,-135.43"/>
</g>
<!-- Node13&#45;&gt;Node2 -->
<g id="edge16" class="edge">
<title>Node13&#45;&gt;Node2</title>
<path fill="none" stroke="midnightblue" d="M1159.89,-269.44C1157.78,-330.28 1141.55,-487.07 1132.02,-535.22"/>
<polygon fill="midnightblue" stroke="midnightblue" points="1163.4,-269.32 1160.12,-259.25 1156.4,-269.17 1163.4,-269.32"/>
</g>
<!-- Node13&#45;&gt;Node14 -->
<g id="edge17" class="edge">
<title>Node13&#45;&gt;Node14</title>
<path fill="none" stroke="midnightblue" d="M1208.29,-225.91C1250.78,-212.39 1311.51,-193.74 1354.37,-181.07"/>
<polygon fill="midnightblue" stroke="midnightblue" points="1207.18,-222.59 1198.72,-228.97 1209.31,-229.26 1207.18,-222.59"/>
</g>
<!-- Node20 -->
<g id="node20" class="node">
<title>Node20</title>
<g id="a_node20"><a xlink:href="_process_8cpp.html" target="_top" xlink:title=" ">
<polygon fill="white" stroke="black" points="1102.5,-151 1102.5,-181 1214.5,-181 1214.5,-151 1102.5,-151"/>
<text text-anchor="start" x="1110.5" y="-169" font-family="Helvetica,sans-Serif" font-size="10.00">kryne&#45;engine/src/Core</text>
<text text-anchor="middle" x="1158.5" y="-158" font-family="Helvetica,sans-Serif" font-size="10.00">/Process.cpp</text>
</a>
</g>
</g>
<!-- Node13&#45;&gt;Node20 -->
<g id="edge24" class="edge">
<title>Node13&#45;&gt;Node20</title>
<path fill="none" stroke="midnightblue" d="M1158.5,-218.59C1158.5,-206.26 1158.5,-191.72 1158.5,-181.23"/>
<polygon fill="midnightblue" stroke="midnightblue" points="1155,-218.7 1158.5,-228.7 1162,-218.71 1155,-218.7"/>
</g>
<!-- Node14&#45;&gt;Node13 -->
<g id="edge18" class="edge">
<title>Node14&#45;&gt;Node13</title>
<path fill="none" stroke="midnightblue" d="M1355.55,-184.14C1313.02,-197.67 1252.29,-216.32 1209.47,-228.97"/>
<polygon fill="midnightblue" stroke="midnightblue" points="1356.68,-187.45 1365.14,-181.07 1354.55,-180.78 1356.68,-187.45"/>
</g>
<!-- Node15 -->
<g id="node15" class="node">
<title>Node15</title>
<g id="a_node15"><a xlink:href="_game_logic_components_runner_8h.html" target="_top" xlink:title=" ">
<polygon fill="white" stroke="black" points="1523,-67.5 1523,-108.5 1686,-108.5 1686,-67.5 1523,-67.5"/>
<text text-anchor="start" x="1531" y="-96.5" font-family="Helvetica,sans-Serif" font-size="10.00">kryne&#45;engine/include</text>
<text text-anchor="start" x="1531" y="-85.5" font-family="Helvetica,sans-Serif" font-size="10.00">/kryne&#45;engine/Systems</text>
<text text-anchor="middle" x="1604.5" y="-74.5" font-family="Helvetica,sans-Serif" font-size="10.00">/GameLogicComponentsRunner.h</text>
</a>
</g>
</g>
<!-- Node14&#45;&gt;Node15 -->
<g id="edge19" class="edge">
<title>Node14&#45;&gt;Node15</title>
<path fill="none" stroke="midnightblue" d="M1451.96,-147.26C1482.27,-135.68 1521.85,-120.56 1553.11,-108.63"/>
<polygon fill="midnightblue" stroke="midnightblue" points="1450.56,-144.05 1442.46,-150.88 1453.05,-150.58 1450.56,-144.05"/>
</g>
<!-- Node17 -->
<g id="node17" class="node">
<title>Node17</title>
<g id="a_node17"><a xlink:href="_transform_update_system_8h.html" target="_top" xlink:title=" ">
<polygon fill="white" stroke="black" points="1210,-67.5 1210,-108.5 1345,-108.5 1345,-67.5 1210,-67.5"/>
<text text-anchor="start" x="1218" y="-96.5" font-family="Helvetica,sans-Serif" font-size="10.00">kryne&#45;engine/include</text>
<text text-anchor="start" x="1218" y="-85.5" font-family="Helvetica,sans-Serif" font-size="10.00">/kryne&#45;engine/Systems</text>
<text text-anchor="middle" x="1277.5" y="-74.5" font-family="Helvetica,sans-Serif" font-size="10.00">/TransformUpdateSystem.h</text>
</a>
</g>
</g>
<!-- Node14&#45;&gt;Node17 -->
<g id="edge21" class="edge">
<title>Node14&#45;&gt;Node17</title>
<path fill="none" stroke="midnightblue" d="M1373.09,-145.75C1354.04,-134.44 1330,-120.17 1310.8,-108.77"/>
<polygon fill="midnightblue" stroke="midnightblue" points="1371.34,-148.79 1381.72,-150.88 1374.91,-142.77 1371.34,-148.79"/>
</g>
<!-- Node19 -->
<g id="node19" class="node">
<title>Node19</title>
<g id="a_node19"><a xlink:href="_system_8cpp.html" target="_top" xlink:title=" ">
<polygon fill="white" stroke="black" points="1363.5,-73 1363.5,-103 1475.5,-103 1475.5,-73 1363.5,-73"/>
<text text-anchor="start" x="1371.5" y="-91" font-family="Helvetica,sans-Serif" font-size="10.00">kryne&#45;engine/src/Core</text>
<text text-anchor="middle" x="1419.5" y="-80" font-family="Helvetica,sans-Serif" font-size="10.00">/System.cpp</text>
</a>
</g>
</g>
<!-- Node14&#45;&gt;Node19 -->
<g id="edge23" class="edge">
<title>Node14&#45;&gt;Node19</title>
<path fill="none" stroke="midnightblue" d="M1410,-140.59C1412.27,-128.26 1414.95,-113.72 1416.88,-103.23"/>
<polygon fill="midnightblue" stroke="midnightblue" points="1406.5,-140.24 1408.13,-150.7 1413.39,-141.5 1406.5,-140.24"/>
</g>
<!-- Node16 -->
<g id="node16" class="node">
<title>Node16</title>
<g id="a_node16"><a xlink:href="_game_logic_components_runner_8cpp.html" target="_top" xlink:title=" ">
<polygon fill="white" stroke="black" points="1518,-0.5 1518,-30.5 1691,-30.5 1691,-0.5 1518,-0.5"/>
<text text-anchor="start" x="1526" y="-18.5" font-family="Helvetica,sans-Serif" font-size="10.00">kryne&#45;engine/src/Systems</text>
<text text-anchor="middle" x="1604.5" y="-7.5" font-family="Helvetica,sans-Serif" font-size="10.00">/GameLogicComponentsRunner.cpp</text>
</a>
</g>
</g>
<!-- Node15&#45;&gt;Node16 -->
<g id="edge20" class="edge">
<title>Node15&#45;&gt;Node16</title>
<path fill="none" stroke="midnightblue" d="M1604.5,-57.08C1604.5,-48.01 1604.5,-38.45 1604.5,-30.89"/>
<polygon fill="midnightblue" stroke="midnightblue" points="1601,-57.36 1604.5,-67.36 1608,-57.36 1601,-57.36"/>
</g>
<!-- Node18 -->
<g id="node18" class="node">
<title>Node18</title>
<g id="a_node18"><a xlink:href="_transform_update_system_8cpp.html" target="_top" xlink:title=" ">
<polygon fill="white" stroke="black" points="1204.5,-0.5 1204.5,-30.5 1350.5,-30.5 1350.5,-0.5 1204.5,-0.5"/>
<text text-anchor="start" x="1212.5" y="-18.5" font-family="Helvetica,sans-Serif" font-size="10.00">kryne&#45;engine/src/Systems</text>
<text text-anchor="middle" x="1277.5" y="-7.5" font-family="Helvetica,sans-Serif" font-size="10.00">/TransformUpdateSystem.cpp</text>
</a>
</g>
</g>
<!-- Node17&#45;&gt;Node18 -->
<g id="edge22" class="edge">
<title>Node17&#45;&gt;Node18</title>
<path fill="none" stroke="midnightblue" d="M1277.5,-57.08C1277.5,-48.01 1277.5,-38.45 1277.5,-30.89"/>
<polygon fill="midnightblue" stroke="midnightblue" points="1274,-57.36 1277.5,-67.36 1281,-57.36 1274,-57.36"/>
</g>
<!-- Node22 -->
<g id="node22" class="node">
<title>Node22</title>
<g id="a_node22"><a xlink:href="_rendering_8h.html" target="_top" xlink:title=" ">
<polygon fill="white" stroke="black" points="452,-229 452,-259 577,-259 577,-229 452,-229"/>
<text text-anchor="start" x="460" y="-247" font-family="Helvetica,sans-Serif" font-size="10.00">kryne&#45;engine/include</text>
<text text-anchor="middle" x="514.5" y="-236" font-family="Helvetica,sans-Serif" font-size="10.00">/KEModules/Rendering.h</text>
</a>
</g>
</g>
<!-- Node21&#45;&gt;Node22 -->
<g id="edge27" class="edge">
<title>Node21&#45;&gt;Node22</title>
<path fill="none" stroke="midnightblue" d="M515.72,-291.28C515.43,-280.25 515.11,-268.25 514.87,-259.23"/>
<polygon fill="midnightblue" stroke="midnightblue" points="512.22,-291.52 515.98,-301.43 519.22,-291.34 512.22,-291.52"/>
</g>
<!-- Node23 -->
<g id="node23" class="node">
<title>Node23</title>
<g id="a_node23"><a xlink:href="_renderer_8cpp.html" target="_top" xlink:title=" ">
<polygon fill="white" stroke="black" points="299,-229 299,-259 434,-259 434,-229 299,-229"/>
<text text-anchor="start" x="307" y="-247" font-family="Helvetica,sans-Serif" font-size="10.00">kryne&#45;engine/src/Rendering</text>
<text text-anchor="middle" x="366.5" y="-236" font-family="Helvetica,sans-Serif" font-size="10.00">/Renderer.cpp</text>
</a>
</g>
</g>
<!-- Node21&#45;&gt;Node23 -->
<g id="edge28" class="edge">
<title>Node21&#45;&gt;Node23</title>
<path fill="none" stroke="midnightblue" d="M468.75,-296.81C444.31,-284.43 415.41,-269.78 394.58,-259.23"/>
<polygon fill="midnightblue" stroke="midnightblue" points="467.37,-300.03 477.87,-301.43 470.53,-293.79 467.37,-300.03"/>
</g>
<!-- Node25&#45;&gt;Node11 -->
<g id="edge42" class="edge">
<title>Node25&#45;&gt;Node11</title>
<path fill="none" stroke="midnightblue" d="M664.11,-447.51C646.34,-385.7 614.81,-240.4 676.5,-145 688.59,-126.31 709.35,-112.38 727.21,-103.09"/>
<polygon fill="midnightblue" stroke="midnightblue" points="660.83,-448.78 667.03,-457.38 667.54,-446.79 660.83,-448.78"/>
</g>
<!-- Node25&#45;&gt;Node21 -->
<g id="edge40" class="edge">
<title>Node25&#45;&gt;Node21</title>
<path fill="none" stroke="midnightblue" d="M646.11,-450.14C614.89,-419.51 564.59,-370.17 536.72,-342.83"/>
<polygon fill="midnightblue" stroke="midnightblue" points="644.03,-452.99 653.62,-457.5 648.93,-447.99 644.03,-452.99"/>
</g>
<!-- Node26 -->
<g id="node26" class="node">
<title>Node26</title>
<g id="a_node26"><a xlink:href="_k_e_modules_2_camera_8h.html" target="_top" xlink:title=" ">
<polygon fill="white" stroke="black" points="672,-307 672,-337 787,-337 787,-307 672,-307"/>
<text text-anchor="start" x="680" y="-325" font-family="Helvetica,sans-Serif" font-size="10.00">kryne&#45;engine/include</text>
<text text-anchor="middle" x="729.5" y="-314" font-family="Helvetica,sans-Serif" font-size="10.00">/KEModules/Camera.h</text>
</a>
</g>
</g>
<!-- Node25&#45;&gt;Node26 -->
<g id="edge32" class="edge">
<title>Node25&#45;&gt;Node26</title>
<path fill="none" stroke="midnightblue" d="M676.21,-447.18C678.75,-427.3 683.56,-400.9 692.5,-379 698.76,-363.68 709.46,-348.13 717.74,-337.31"/>
<polygon fill="midnightblue" stroke="midnightblue" points="672.72,-446.86 675.05,-457.2 679.68,-447.67 672.72,-446.86"/>
</g>
<!-- Node27 -->
<g id="node27" class="node">
<title>Node27</title>
<g id="a_node27"><a xlink:href="_mesh_8h.html" target="_top" xlink:title=" ">
<polygon fill="white" stroke="black" points="402.5,-379.5 402.5,-420.5 526.5,-420.5 526.5,-379.5 402.5,-379.5"/>
<text text-anchor="start" x="410.5" y="-408.5" font-family="Helvetica,sans-Serif" font-size="10.00">kryne&#45;engine/include</text>
<text text-anchor="start" x="410.5" y="-397.5" font-family="Helvetica,sans-Serif" font-size="10.00">/kryne&#45;engine/3DObjects</text>
<text text-anchor="middle" x="464.5" y="-386.5" font-family="Helvetica,sans-Serif" font-size="10.00">/Mesh.h</text>
</a>
</g>
</g>
<!-- Node25&#45;&gt;Node27 -->
<g id="edge33" class="edge">
<title>Node25&#45;&gt;Node27</title>
<path fill="none" stroke="midnightblue" d="M609.94,-453.89C580.6,-443.22 546.15,-430.69 518.14,-420.51"/>
<polygon fill="midnightblue" stroke="midnightblue" points="609.08,-457.3 619.68,-457.43 611.48,-450.72 609.08,-457.3"/>
</g>
<!-- Node29 -->
<g id="node29" class="node">
<title>Node29</title>
<g id="a_node29"><a xlink:href="_orbit_controls_component_8h.html" target="_top" xlink:title=" ">
<polygon fill="white" stroke="black" points="989.5,-379.5 989.5,-420.5 1123.5,-420.5 1123.5,-379.5 989.5,-379.5"/>
<text text-anchor="start" x="997.5" y="-408.5" font-family="Helvetica,sans-Serif" font-size="10.00">kryne&#45;engine/include</text>
<text text-anchor="start" x="997.5" y="-397.5" font-family="Helvetica,sans-Serif" font-size="10.00">/kryne&#45;engine/Camera</text>
<text text-anchor="middle" x="1056.5" y="-386.5" font-family="Helvetica,sans-Serif" font-size="10.00">/OrbitControlsComponent.h</text>
</a>
</g>
</g>
<!-- Node25&#45;&gt;Node29 -->
<g id="edge37" class="edge">
<title>Node25&#45;&gt;Node29</title>
<path fill="none" stroke="midnightblue" d="M739.57,-465.9C800.9,-455.32 894.65,-438.46 975.5,-421 980.03,-420.02 984.69,-418.98 989.39,-417.89"/>
<polygon fill="midnightblue" stroke="midnightblue" points="738.9,-462.46 729.64,-467.61 740.08,-469.36 738.9,-462.46"/>
</g>
<!-- Node31 -->
<g id="node31" class="node">
<title>Node31</title>
<g id="a_node31"><a xlink:href="_camera_8cpp.html" target="_top" xlink:title=" ">
<polygon fill="white" stroke="black" points="842,-385 842,-415 967,-415 967,-385 842,-385"/>
<text text-anchor="start" x="850" y="-403" font-family="Helvetica,sans-Serif" font-size="10.00">kryne&#45;engine/src/Camera</text>
<text text-anchor="middle" x="904.5" y="-392" font-family="Helvetica,sans-Serif" font-size="10.00">/Camera.cpp</text>
</a>
</g>
</g>
<!-- Node25&#45;&gt;Node31 -->
<g id="edge41" class="edge">
<title>Node25&#45;&gt;Node31</title>
<path fill="none" stroke="midnightblue" d="M739.49,-455.29C778.81,-442.35 827.58,-426.31 861.87,-415.03"/>
<polygon fill="midnightblue" stroke="midnightblue" points="738.12,-452.06 729.71,-458.51 740.31,-458.7 738.12,-452.06"/>
</g>
<!-- Node27&#45;&gt;Node4 -->
<g id="edge34" class="edge">
<title>Node27&#45;&gt;Node4</title>
<path fill="none" stroke="midnightblue" d="M392.61,-376.79C351.01,-363.94 299.91,-348.15 263.86,-337.01"/>
<polygon fill="midnightblue" stroke="midnightblue" points="391.84,-380.21 402.42,-379.82 393.9,-373.53 391.84,-380.21"/>
</g>
<!-- Node27&#45;&gt;Node21 -->
<g id="edge35" class="edge">
<title>Node27&#45;&gt;Node21</title>
<path fill="none" stroke="midnightblue" d="M483.63,-371.05C490.11,-361.57 497.22,-351.18 503.15,-342.51"/>
<polygon fill="midnightblue" stroke="midnightblue" points="480.65,-369.2 477.89,-379.43 486.43,-373.15 480.65,-369.2"/>
</g>
<!-- Node28 -->
<g id="node28" class="node">
<title>Node28</title>
<g id="a_node28"><a xlink:href="_mesh_8cpp.html" target="_top" xlink:title=" ">
<polygon fill="white" stroke="black" points="300,-307 300,-337 437,-337 437,-307 300,-307"/>
<text text-anchor="start" x="308" y="-325" font-family="Helvetica,sans-Serif" font-size="10.00">kryne&#45;engine/src/3DObjects</text>
<text text-anchor="middle" x="368.5" y="-314" font-family="Helvetica,sans-Serif" font-size="10.00">/Mesh.cpp</text>
</a>
</g>
</g>
<!-- Node27&#45;&gt;Node28 -->
<g id="edge36" class="edge">
<title>Node27&#45;&gt;Node28</title>
<path fill="none" stroke="midnightblue" d="M431.65,-372.99C416.52,-361.02 399.16,-347.27 386.47,-337.23"/>
<polygon fill="midnightblue" stroke="midnightblue" points="429.76,-375.97 439.78,-379.43 434.11,-370.48 429.76,-375.97"/>
</g>
<!-- Node29&#45;&gt;Node26 -->
<g id="edge38" class="edge">
<title>Node29&#45;&gt;Node26</title>
<path fill="none" stroke="midnightblue" d="M979.35,-379.87C978.06,-379.57 976.77,-379.28 975.5,-379 895.88,-361.22 874.63,-362.85 795.5,-343 788.42,-341.22 780.96,-339.16 773.71,-337.04"/>
<polygon fill="midnightblue" stroke="midnightblue" points="978.84,-383.34 989.37,-382.18 980.41,-376.52 978.84,-383.34"/>
</g>
<!-- Node30 -->
<g id="node30" class="node">
<title>Node30</title>
<g id="a_node30"><a xlink:href="_orbit_controls_component_8cpp.html" target="_top" xlink:title=" ">
<polygon fill="white" stroke="black" points="992,-307 992,-337 1137,-337 1137,-307 992,-307"/>
<text text-anchor="start" x="1000" y="-325" font-family="Helvetica,sans-Serif" font-size="10.00">kryne&#45;engine/src/Camera</text>
<text text-anchor="middle" x="1064.5" y="-314" font-family="Helvetica,sans-Serif" font-size="10.00">/OrbitControlsComponent.cpp</text>
</a>
</g>
</g>
<!-- Node29&#45;&gt;Node30 -->
<g id="edge39" class="edge">
<title>Node29&#45;&gt;Node30</title>
<path fill="none" stroke="midnightblue" d="M1059.63,-369.28C1060.79,-358.25 1062.05,-346.25 1063,-337.23"/>
<polygon fill="midnightblue" stroke="midnightblue" points="1056.13,-369.12 1058.56,-379.43 1063.09,-369.85 1056.13,-369.12"/>
</g>
<!-- Node33&#45;&gt;Node15 -->
<g id="edge49" class="edge">
<title>Node33&#45;&gt;Node15</title>
<path fill="none" stroke="midnightblue" d="M1584.81,-454.05C1590.42,-444.19 1596.47,-432.34 1600.5,-421 1615.36,-379.2 1619.5,-367.37 1619.5,-323 1619.5,-323 1619.5,-323 1619.5,-243 1619.5,-194.65 1612.08,-138.16 1607.68,-108.87"/>
<polygon fill="midnightblue" stroke="midnightblue" points="1581.71,-452.42 1579.65,-462.82 1587.74,-455.98 1581.71,-452.42"/>
</g>
<!-- Node33&#45;&gt;Node29 -->
<g id="edge48" class="edge">
<title>Node33&#45;&gt;Node29</title>
<path fill="none" stroke="midnightblue" d="M1469.46,-462.06C1367.15,-446.93 1211.81,-423.96 1123.71,-410.94"/>
<polygon fill="midnightblue" stroke="midnightblue" points="1469.09,-465.54 1479.5,-463.54 1470.11,-458.62 1469.09,-465.54"/>
</g>
<!-- Node34 -->
<g id="node34" class="node">
<title>Node34</title>
<g id="a_node34"><a xlink:href="_logic_component_8cpp.html" target="_top" xlink:title=" ">
<polygon fill="white" stroke="black" points="1479.5,-385 1479.5,-415 1591.5,-415 1591.5,-385 1479.5,-385"/>
<text text-anchor="start" x="1487.5" y="-403" font-family="Helvetica,sans-Serif" font-size="10.00">kryne&#45;engine/src/Core</text>
<text text-anchor="middle" x="1535.5" y="-392" font-family="Helvetica,sans-Serif" font-size="10.00">/LogicComponent.cpp</text>
</a>
</g>
</g>
<!-- Node33&#45;&gt;Node34 -->
<g id="edge50" class="edge">
<title>Node33&#45;&gt;Node34</title>
<path fill="none" stroke="midnightblue" d="M1559.6,-453.33C1553.85,-440.85 1546.98,-425.94 1542.05,-415.23"/>
<polygon fill="midnightblue" stroke="midnightblue" points="1556.55,-455.09 1563.92,-462.7 1562.91,-452.16 1556.55,-455.09"/>
</g>
<!-- Node35&#45;&gt;Node7 -->
<g id="edge53" class="edge">
<title>Node35&#45;&gt;Node7</title>
<path fill="none" stroke="midnightblue" d="M1284.29,-456.98C1084.93,-422.22 1028.05,-456.34 832.5,-421 829.64,-420.48 826.73,-419.9 823.8,-419.26"/>
<polygon fill="midnightblue" stroke="midnightblue" points="1283.74,-460.43 1294.2,-458.74 1284.97,-453.54 1283.74,-460.43"/>
</g>
<!-- Node35&#45;&gt;Node11 -->
<g id="edge54" class="edge">
<title>Node35&#45;&gt;Node11</title>
<path fill="none" stroke="midnightblue" d="M1308.87,-451.61C1297.35,-443.27 1286.14,-433.01 1278.5,-421 1254.68,-383.57 1259.5,-367.37 1259.5,-323 1259.5,-323 1259.5,-323 1259.5,-243 1259.5,-196.6 1259.88,-173.8 1223.5,-145 1165.97,-99.46 957.81,-90.33 841.16,-88.89"/>
<polygon fill="midnightblue" stroke="midnightblue" points="1307.03,-454.59 1317.26,-457.34 1310.97,-448.81 1307.03,-454.59"/>
</g>
<!-- Node35&#45;&gt;Node13 -->
<g id="edge52" class="edge">
<title>Node35&#45;&gt;Node13</title>
<path fill="none" stroke="midnightblue" d="M1289.23,-452.89C1273.34,-444.68 1257.52,-434.16 1245.5,-421 1206.76,-378.59 1224.76,-351.56 1197.5,-301 1189.4,-285.98 1178.08,-270.14 1169.71,-259.15"/>
<polygon fill="midnightblue" stroke="midnightblue" points="1288.04,-456.2 1298.56,-457.45 1291.11,-449.91 1288.04,-456.2"/>
</g>
<!-- Node36 -->
<g id="node36" class="node">
<title>Node36</title>
<g id="a_node36"><a xlink:href="_render_mesh_8cpp.html" target="_top" xlink:title=" ">
<polygon fill="white" stroke="black" points="1288,-385 1288,-415 1423,-415 1423,-385 1288,-385"/>
<text text-anchor="start" x="1296" y="-403" font-family="Helvetica,sans-Serif" font-size="10.00">kryne&#45;engine/src/Rendering</text>
<text text-anchor="middle" x="1355.5" y="-392" font-family="Helvetica,sans-Serif" font-size="10.00">/RenderMesh.cpp</text>
</a>
</g>
</g>
<!-- Node35&#45;&gt;Node36 -->
<g id="edge55" class="edge">
<title>Node35&#45;&gt;Node36</title>
<path fill="none" stroke="midnightblue" d="M1355.5,-447.28C1355.5,-436.25 1355.5,-424.25 1355.5,-415.23"/>
<polygon fill="midnightblue" stroke="midnightblue" points="1352,-447.43 1355.5,-457.43 1359,-447.43 1352,-447.43"/>
</g>
</g>
</svg>
