<?xml version="1.0" encoding="UTF-8" standalone="no"?>
<!DOCTYPE svg PUBLIC "-//W3C//DTD SVG 1.1//EN"
 "http://www.w3.org/Graphics/SVG/1.1/DTD/svg11.dtd">
<!-- Generated by graphviz version 2.44.1 (20200629.0846)
 -->
<!-- Title: kryne&#45;engine/include/kryne&#45;engine/Rendering/ShadowMapping/DirectionalShadowMapRendering.h Pages: 1 -->
<svg width="481pt" height="351pt"
 viewBox="0.00 0.00 480.50 351.00" xmlns="http://www.w3.org/2000/svg" xmlns:xlink="http://www.w3.org/1999/xlink">
<g id="graph0" class="graph" transform="scale(1 1) rotate(0) translate(4 347)">
<title>kryne&#45;engine/include/kryne&#45;engine/Rendering/ShadowMapping/DirectionalShadowMapRendering.h</title>
<polygon fill="white" stroke="transparent" points="-4,4 -4,-347 476.5,-347 476.5,4 -4,4"/>
<!-- Node1 -->
<g id="node1" class="node">
<title>Node1</title>
<g id="a_node1"><a xlink:title=" ">
<polygon fill="#bfbfbf" stroke="black" points="99.5,-290.5 99.5,-342.5 273.5,-342.5 273.5,-290.5 99.5,-290.5"/>
<text text-anchor="start" x="107.5" y="-330.5" font-family="Helvetica,sans-Serif" font-size="10.00">kryne&#45;engine/include</text>
<text text-anchor="start" x="107.5" y="-319.5" font-family="Helvetica,sans-Serif" font-size="10.00">/kryne&#45;engine/Rendering</text>
<text text-anchor="start" x="107.5" y="-308.5" font-family="Helvetica,sans-Serif" font-size="10.00">/ShadowMapping/DirectionalShadow</text>
<text text-anchor="middle" x="186.5" y="-297.5" font-family="Helvetica,sans-Serif" font-size="10.00">MapRendering.h</text>
</a>
</g>
</g>
<!-- Node2 -->
<g id="node2" class="node">
<title>Node2</title>
<g id="a_node2"><a xlink:href="_rendering_8h.html" target="_top" xlink:title=" ">
<polygon fill="white" stroke="black" points="0,-67.5 0,-97.5 125,-97.5 125,-67.5 0,-67.5"/>
<text text-anchor="start" x="8" y="-85.5" font-family="Helvetica,sans-Serif" font-size="10.00">kryne&#45;engine/include</text>
<text text-anchor="middle" x="62.5" y="-74.5" font-family="Helvetica,sans-Serif" font-size="10.00">/KEModules/Rendering.h</text>
</a>
</g>
</g>
<!-- Node1&#45;&gt;Node2 -->
<g id="edge1" class="edge">
<title>Node1&#45;&gt;Node2</title>
<path fill="none" stroke="midnightblue" d="M115.57,-285.01C103.12,-276.66 91.58,-266.41 83.5,-254 51.1,-204.28 56.38,-128.83 60.34,-97.7"/>
<polygon fill="midnightblue" stroke="midnightblue" points="113.97,-288.14 124.3,-290.49 117.69,-282.21 113.97,-288.14"/>
</g>
<!-- Node3 -->
<g id="node3" class="node">
<title>Node3</title>
<g id="a_node3"><a xlink:href="_shadow_map_handler_8h.html" target="_top" xlink:title=" ">
<polygon fill="white" stroke="black" points="92.5,-212.5 92.5,-253.5 280.5,-253.5 280.5,-212.5 92.5,-212.5"/>
<text text-anchor="start" x="100.5" y="-241.5" font-family="Helvetica,sans-Serif" font-size="10.00">kryne&#45;engine/include</text>
<text text-anchor="start" x="100.5" y="-230.5" font-family="Helvetica,sans-Serif" font-size="10.00">/kryne&#45;engine/Rendering</text>
<text text-anchor="middle" x="186.5" y="-219.5" font-family="Helvetica,sans-Serif" font-size="10.00">/ShadowMapping/ShadowMapHandler.h</text>
</a>
</g>
</g>
<!-- Node1&#45;&gt;Node3 -->
<g id="edge2" class="edge">
<title>Node1&#45;&gt;Node3</title>
<path fill="none" stroke="midnightblue" d="M186.5,-280.15C186.5,-271.05 186.5,-261.6 186.5,-253.63"/>
<polygon fill="midnightblue" stroke="midnightblue" points="183,-280.16 186.5,-290.16 190,-280.16 183,-280.16"/>
</g>
<!-- Node10 -->
<g id="node10" class="node">
<title>Node10</title>
<g id="a_node10"><a xlink:href="_directional_shadow_map_rendering_8cpp.html" target="_top" xlink:title=" ">
<polygon fill="white" stroke="black" points="298.5,-212.5 298.5,-253.5 472.5,-253.5 472.5,-212.5 298.5,-212.5"/>
<text text-anchor="start" x="306.5" y="-241.5" font-family="Helvetica,sans-Serif" font-size="10.00">kryne&#45;engine/src/Rendering</text>
<text text-anchor="start" x="306.5" y="-230.5" font-family="Helvetica,sans-Serif" font-size="10.00">/ShadowMapping/DirectionalShadow</text>
<text text-anchor="middle" x="385.5" y="-219.5" font-family="Helvetica,sans-Serif" font-size="10.00">MapRendering.cpp</text>
</a>
</g>
</g>
<!-- Node1&#45;&gt;Node10 -->
<g id="edge11" class="edge">
<title>Node1&#45;&gt;Node10</title>
<path fill="none" stroke="midnightblue" d="M256.9,-286.67C283.71,-275.69 313.61,-263.44 337.83,-253.52"/>
<polygon fill="midnightblue" stroke="midnightblue" points="255.49,-283.46 247.56,-290.49 258.14,-289.94 255.49,-283.46"/>
</g>
<!-- Node3&#45;&gt;Node2 -->
<g id="edge3" class="edge">
<title>Node3&#45;&gt;Node2</title>
<path fill="none" stroke="midnightblue" d="M150.91,-205.83C140.15,-197.02 128.75,-186.69 119.5,-176 97.77,-150.9 78.98,-116.59 69.36,-97.6"/>
<polygon fill="midnightblue" stroke="midnightblue" points="148.96,-208.76 158.96,-212.26 153.33,-203.29 148.96,-208.76"/>
</g>
<!-- Node4 -->
<g id="node4" class="node">
<title>Node4</title>
<g id="a_node4"><a xlink:href="_render_scene_8h.html" target="_top" xlink:title=" ">
<polygon fill="white" stroke="black" points="128.5,-134.5 128.5,-175.5 250.5,-175.5 250.5,-134.5 128.5,-134.5"/>
<text text-anchor="start" x="136.5" y="-163.5" font-family="Helvetica,sans-Serif" font-size="10.00">kryne&#45;engine/include</text>
<text text-anchor="start" x="136.5" y="-152.5" font-family="Helvetica,sans-Serif" font-size="10.00">/kryne&#45;engine/Rendering</text>
<text text-anchor="middle" x="189.5" y="-141.5" font-family="Helvetica,sans-Serif" font-size="10.00">/RenderScene.h</text>
</a>
</g>
</g>
<!-- Node3&#45;&gt;Node4 -->
<g id="edge4" class="edge">
<title>Node3&#45;&gt;Node4</title>
<path fill="none" stroke="midnightblue" d="M187.67,-202.3C188.03,-193.3 188.41,-183.65 188.73,-175.51"/>
<polygon fill="midnightblue" stroke="midnightblue" points="184.17,-202.3 187.27,-212.43 191.16,-202.57 184.17,-202.3"/>
</g>
<!-- Node9 -->
<g id="node9" class="node">
<title>Node9</title>
<g id="a_node9"><a xlink:href="_shadow_map_handler_8cpp.html" target="_top" xlink:title=" ">
<polygon fill="white" stroke="black" points="269,-140 269,-170 468,-170 468,-140 269,-140"/>
<text text-anchor="start" x="277" y="-158" font-family="Helvetica,sans-Serif" font-size="10.00">kryne&#45;engine/src/Rendering</text>
<text text-anchor="middle" x="368.5" y="-147" font-family="Helvetica,sans-Serif" font-size="10.00">/ShadowMapping/ShadowMapHandler.cpp</text>
</a>
</g>
</g>
<!-- Node3&#45;&gt;Node9 -->
<g id="edge10" class="edge">
<title>Node3&#45;&gt;Node9</title>
<path fill="none" stroke="midnightblue" d="M242.91,-208.45C272.98,-195.89 308.99,-180.85 334.72,-170.11"/>
<polygon fill="midnightblue" stroke="midnightblue" points="241.25,-205.34 233.37,-212.43 243.95,-211.8 241.25,-205.34"/>
</g>
<!-- Node4&#45;&gt;Node2 -->
<g id="edge5" class="edge">
<title>Node4&#45;&gt;Node2</title>
<path fill="none" stroke="midnightblue" d="M145.26,-129.44C126.12,-118.82 104.41,-106.76 88.03,-97.67"/>
<polygon fill="midnightblue" stroke="midnightblue" points="143.68,-132.57 154.12,-134.36 147.08,-126.45 143.68,-132.57"/>
</g>
<!-- Node5 -->
<g id="node5" class="node">
<title>Node5</title>
<g id="a_node5"><a xlink:href="_process_8h.html" target="_top" xlink:title=" ">
<polygon fill="white" stroke="black" points="143.5,-67.5 143.5,-97.5 289.5,-97.5 289.5,-67.5 143.5,-67.5"/>
<text text-anchor="start" x="151.5" y="-85.5" font-family="Helvetica,sans-Serif" font-size="10.00">kryne&#45;engine/include</text>
<text text-anchor="middle" x="216.5" y="-74.5" font-family="Helvetica,sans-Serif" font-size="10.00">/kryne&#45;engine/Core/Process.h</text>
</a>
</g>
</g>
<!-- Node4&#45;&gt;Node5 -->
<g id="edge6" class="edge">
<title>Node4&#45;&gt;Node5</title>
<path fill="none" stroke="midnightblue" d="M200.62,-124.97C204.19,-115.63 208,-105.7 210.99,-97.89"/>
<polygon fill="midnightblue" stroke="midnightblue" points="197.33,-123.77 197.02,-134.36 203.87,-126.28 197.33,-123.77"/>
</g>
<!-- Node8 -->
<g id="node8" class="node">
<title>Node8</title>
<g id="a_node8"><a xlink:href="_render_scene_8cpp.html" target="_top" xlink:title=" ">
<polygon fill="white" stroke="black" points="308,-67.5 308,-97.5 443,-97.5 443,-67.5 308,-67.5"/>
<text text-anchor="start" x="316" y="-85.5" font-family="Helvetica,sans-Serif" font-size="10.00">kryne&#45;engine/src/Rendering</text>
<text text-anchor="middle" x="375.5" y="-74.5" font-family="Helvetica,sans-Serif" font-size="10.00">/RenderScene.cpp</text>
</a>
</g>
</g>
<!-- Node4&#45;&gt;Node8 -->
<g id="edge9" class="edge">
<title>Node4&#45;&gt;Node8</title>
<path fill="none" stroke="midnightblue" d="M250.93,-130.72C279.86,-119.75 313.41,-107.03 338.41,-97.56"/>
<polygon fill="midnightblue" stroke="midnightblue" points="249.42,-127.54 241.31,-134.36 251.9,-134.09 249.42,-127.54"/>
</g>
<!-- Node6 -->
<g id="node6" class="node">
<title>Node6</title>
<g id="a_node6"><a xlink:href="_core_8h.html" target="_top" xlink:title=" ">
<polygon fill="white" stroke="black" points="99.5,-0.5 99.5,-30.5 205.5,-30.5 205.5,-0.5 99.5,-0.5"/>
<text text-anchor="start" x="107.5" y="-18.5" font-family="Helvetica,sans-Serif" font-size="10.00">kryne&#45;engine/include</text>
<text text-anchor="middle" x="152.5" y="-7.5" font-family="Helvetica,sans-Serif" font-size="10.00">/KEModules/Core.h</text>
</a>
</g>
</g>
<!-- Node5&#45;&gt;Node6 -->
<g id="edge7" class="edge">
<title>Node5&#45;&gt;Node6</title>
<path fill="none" stroke="midnightblue" d="M195.35,-60.02C185.82,-50.34 174.83,-39.17 166.36,-30.58"/>
<polygon fill="midnightblue" stroke="midnightblue" points="193.1,-62.73 202.61,-67.4 198.09,-57.81 193.1,-62.73"/>
</g>
<!-- Node7 -->
<g id="node7" class="node">
<title>Node7</title>
<g id="a_node7"><a xlink:href="_process_8cpp.html" target="_top" xlink:title=" ">
<polygon fill="white" stroke="black" points="223.5,-0.5 223.5,-30.5 335.5,-30.5 335.5,-0.5 223.5,-0.5"/>
<text text-anchor="start" x="231.5" y="-18.5" font-family="Helvetica,sans-Serif" font-size="10.00">kryne&#45;engine/src/Core</text>
<text text-anchor="middle" x="279.5" y="-7.5" font-family="Helvetica,sans-Serif" font-size="10.00">/Process.cpp</text>
</a>
</g>
</g>
<!-- Node5&#45;&gt;Node7 -->
<g id="edge8" class="edge">
<title>Node5&#45;&gt;Node7</title>
<path fill="none" stroke="midnightblue" d="M237.31,-60.02C246.7,-50.34 257.52,-39.17 265.86,-30.58"/>
<polygon fill="midnightblue" stroke="midnightblue" points="234.62,-57.78 230.17,-67.4 239.64,-62.65 234.62,-57.78"/>
</g>
</g>
</svg>
