<?xml version="1.0" encoding="UTF-8" standalone="no"?>
<!DOCTYPE svg PUBLIC "-//W3C//DTD SVG 1.1//EN"
 "http://www.w3.org/Graphics/SVG/1.1/DTD/svg11.dtd">
<!-- Generated by graphviz version 2.44.1 (20200629.0846)
 -->
<!-- Title: kryne&#45;engine/src/Light/DirectionalLight.cpp Pages: 1 -->
<svg width="1412pt" height="531pt"
 viewBox="0.00 0.00 1412.00 531.00" xmlns="http://www.w3.org/2000/svg" xmlns:xlink="http://www.w3.org/1999/xlink">
<g id="graph0" class="graph" transform="scale(1 1) rotate(0) translate(4 527)">
<title>kryne&#45;engine/src/Light/DirectionalLight.cpp</title>
<polygon fill="white" stroke="transparent" points="-4,4 -4,-527 1408,-527 1408,4 -4,4"/>
<!-- Node1 -->
<g id="node1" class="node">
<title>Node1</title>
<g id="a_node1"><a xlink:title=" ">
<polygon fill="#bfbfbf" stroke="black" points="760.5,-492.5 760.5,-522.5 873.5,-522.5 873.5,-492.5 760.5,-492.5"/>
<text text-anchor="start" x="768.5" y="-510.5" font-family="Helvetica,sans-Serif" font-size="10.00">kryne&#45;engine/src/Light</text>
<text text-anchor="middle" x="817" y="-499.5" font-family="Helvetica,sans-Serif" font-size="10.00">/DirectionalLight.cpp</text>
</a>
</g>
</g>
<!-- Node2 -->
<g id="node2" class="node">
<title>Node2</title>
<g id="a_node2"><a xlink:href="_directional_light_8h.html" target="_top" xlink:title=" ">
<polygon fill="white" stroke="black" points="726,-425.5 726,-455.5 822,-455.5 822,-425.5 726,-425.5"/>
<text text-anchor="start" x="734" y="-443.5" font-family="Helvetica,sans-Serif" font-size="10.00">kryne&#45;engine/Light</text>
<text text-anchor="middle" x="774" y="-432.5" font-family="Helvetica,sans-Serif" font-size="10.00">/DirectionalLight.h</text>
</a>
</g>
</g>
<!-- Node1&#45;&gt;Node2 -->
<g id="edge1" class="edge">
<title>Node1&#45;&gt;Node2</title>
<path fill="none" stroke="midnightblue" d="M807.67,-492.4C802.2,-484.13 795.17,-473.51 788.95,-464.1"/>
<polygon fill="midnightblue" stroke="midnightblue" points="791.75,-461.99 783.31,-455.58 785.91,-465.85 791.75,-461.99"/>
</g>
<!-- Node40 -->
<g id="node40" class="node">
<title>Node40</title>
<g id="a_node40"><a xlink:title=" ">
<polygon fill="white" stroke="#bfbfbf" points="840,-431 840,-450 880,-450 880,-431 840,-431"/>
<text text-anchor="middle" x="860" y="-438" font-family="Helvetica,sans-Serif" font-size="10.00">utility</text>
</a>
</g>
</g>
<!-- Node1&#45;&gt;Node40 -->
<g id="edge51" class="edge">
<title>Node1&#45;&gt;Node40</title>
<path fill="none" stroke="midnightblue" d="M826.33,-492.4C832.9,-482.46 841.74,-469.11 848.71,-458.57"/>
<polygon fill="midnightblue" stroke="midnightblue" points="851.65,-460.47 854.25,-450.19 845.81,-456.6 851.65,-460.47"/>
</g>
<!-- Node3 -->
<g id="node3" class="node">
<title>Node3</title>
<g id="a_node3"><a xlink:title=" ">
<polygon fill="white" stroke="#bfbfbf" points="0,-168.5 0,-187.5 74,-187.5 74,-168.5 0,-168.5"/>
<text text-anchor="middle" x="37" y="-175.5" font-family="Helvetica,sans-Serif" font-size="10.00">glm/vec3.hpp</text>
</a>
</g>
</g>
<!-- Node2&#45;&gt;Node3 -->
<g id="edge2" class="edge">
<title>Node2&#45;&gt;Node3</title>
<path fill="none" stroke="midnightblue" d="M725.71,-440.07C602.41,-439.02 271.74,-419.99 73,-255 55.31,-240.31 45.76,-214.93 41.03,-197.57"/>
<polygon fill="midnightblue" stroke="midnightblue" points="44.35,-196.41 38.58,-187.52 37.55,-198.06 44.35,-196.41"/>
</g>
<!-- Node4 -->
<g id="node4" class="node">
<title>Node4</title>
<g id="a_node4"><a xlink:title=" ">
<polygon fill="white" stroke="#bfbfbf" points="1112,-112.5 1112,-131.5 1154,-131.5 1154,-112.5 1112,-112.5"/>
<text text-anchor="middle" x="1133" y="-119.5" font-family="Helvetica,sans-Serif" font-size="10.00">vector</text>
</a>
</g>
</g>
<!-- Node2&#45;&gt;Node4 -->
<g id="edge3" class="edge">
<title>Node2&#45;&gt;Node4</title>
<path fill="none" stroke="midnightblue" d="M820.48,-425.5C909.65,-397.97 1096,-336.92 1096,-307.5 1096,-307.5 1096,-307.5 1096,-238.5 1096,-202.51 1112.5,-163.09 1123.46,-140.86"/>
<polygon fill="midnightblue" stroke="midnightblue" points="1126.72,-142.18 1128.16,-131.68 1120.49,-138.98 1126.72,-142.18"/>
</g>
<!-- Node5 -->
<g id="node5" class="node">
<title>Node5</title>
<g id="a_node5"><a xlink:href="_shader_8h.html" target="_top" xlink:title=" ">
<polygon fill="white" stroke="black" points="719,-358.5 719,-388.5 829,-388.5 829,-358.5 719,-358.5"/>
<text text-anchor="start" x="727" y="-376.5" font-family="Helvetica,sans-Serif" font-size="10.00">kryne&#45;engine/Material</text>
<text text-anchor="middle" x="774" y="-365.5" font-family="Helvetica,sans-Serif" font-size="10.00">/Shader.h</text>
</a>
</g>
</g>
<!-- Node2&#45;&gt;Node5 -->
<g id="edge4" class="edge">
<title>Node2&#45;&gt;Node5</title>
<path fill="none" stroke="midnightblue" d="M774,-425.4C774,-417.64 774,-407.81 774,-398.86"/>
<polygon fill="midnightblue" stroke="midnightblue" points="777.5,-398.58 774,-388.58 770.5,-398.58 777.5,-398.58"/>
</g>
<!-- Node6 -->
<g id="node6" class="node">
<title>Node6</title>
<g id="a_node6"><a xlink:title=" ">
<polygon fill="white" stroke="#bfbfbf" points="833.5,-297 833.5,-316 868.5,-316 868.5,-297 833.5,-297"/>
<text text-anchor="middle" x="851" y="-304" font-family="Helvetica,sans-Serif" font-size="10.00">map</text>
</a>
</g>
</g>
<!-- Node5&#45;&gt;Node6 -->
<g id="edge5" class="edge">
<title>Node5&#45;&gt;Node6</title>
<path fill="none" stroke="midnightblue" d="M790.71,-358.4C803.19,-347.86 820.23,-333.48 833.01,-322.69"/>
<polygon fill="midnightblue" stroke="midnightblue" points="835.32,-325.32 840.7,-316.19 830.8,-319.97 835.32,-325.32"/>
</g>
<!-- Node7 -->
<g id="node7" class="node">
<title>Node7</title>
<g id="a_node7"><a xlink:title=" ">
<polygon fill="white" stroke="#bfbfbf" points="409,-297 409,-316 461,-316 461,-297 409,-297"/>
<text text-anchor="middle" x="435" y="-304" font-family="Helvetica,sans-Serif" font-size="10.00">sstream</text>
</a>
</g>
</g>
<!-- Node5&#45;&gt;Node7 -->
<g id="edge6" class="edge">
<title>Node5&#45;&gt;Node7</title>
<path fill="none" stroke="midnightblue" d="M718.8,-367.16C657.24,-360.33 555.13,-346.36 470,-322 467.71,-321.34 465.36,-320.58 463.02,-319.76"/>
<polygon fill="midnightblue" stroke="midnightblue" points="464.2,-316.46 453.61,-316.13 461.68,-322.99 464.2,-316.46"/>
</g>
<!-- Node8 -->
<g id="node8" class="node">
<title>Node8</title>
<g id="a_node8"><a xlink:href="_dispatcher_8h.html" target="_top" xlink:title=" ">
<polygon fill="white" stroke="black" points="1142.5,-291.5 1142.5,-321.5 1255.5,-321.5 1255.5,-291.5 1142.5,-291.5"/>
<text text-anchor="start" x="1150.5" y="-309.5" font-family="Helvetica,sans-Serif" font-size="10.00">kryne&#45;engine/Dispatch</text>
<text text-anchor="middle" x="1199" y="-298.5" font-family="Helvetica,sans-Serif" font-size="10.00">/Dispatcher.h</text>
</a>
</g>
</g>
<!-- Node5&#45;&gt;Node8 -->
<g id="edge7" class="edge">
<title>Node5&#45;&gt;Node8</title>
<path fill="none" stroke="midnightblue" d="M829.13,-364.07C906.93,-352.17 1048.77,-330.48 1132.38,-317.69"/>
<polygon fill="midnightblue" stroke="midnightblue" points="1132.92,-321.15 1142.28,-316.18 1131.86,-314.23 1132.92,-321.15"/>
</g>
<!-- Node22 -->
<g id="node22" class="node">
<title>Node22</title>
<g id="a_node22"><a xlink:href="_uniforms_handler_8h.html" target="_top" xlink:title=" ">
<polygon fill="white" stroke="black" points="479,-297 479,-316 575,-316 575,-297 479,-297"/>
<text text-anchor="middle" x="527" y="-304" font-family="Helvetica,sans-Serif" font-size="10.00">UniformsHandler.h</text>
</a>
</g>
</g>
<!-- Node5&#45;&gt;Node22 -->
<g id="edge23" class="edge">
<title>Node5&#45;&gt;Node22</title>
<path fill="none" stroke="midnightblue" d="M720.71,-358.48C675.38,-346.55 611.15,-329.64 569.28,-318.63"/>
<polygon fill="midnightblue" stroke="midnightblue" points="569.97,-315.19 559.41,-316.03 568.19,-321.96 569.97,-315.19"/>
</g>
<!-- Node34 -->
<g id="node34" class="node">
<title>Node34</title>
<g id="a_node34"><a xlink:href="_shader_chunk_8h.html" target="_top" xlink:title=" ">
<polygon fill="white" stroke="black" points="732.5,-297 732.5,-316 815.5,-316 815.5,-297 732.5,-297"/>
<text text-anchor="middle" x="774" y="-304" font-family="Helvetica,sans-Serif" font-size="10.00">ShaderChunk.h</text>
</a>
</g>
</g>
<!-- Node5&#45;&gt;Node34 -->
<g id="edge40" class="edge">
<title>Node5&#45;&gt;Node34</title>
<path fill="none" stroke="midnightblue" d="M774,-358.4C774,-349.06 774,-336.71 774,-326.52"/>
<polygon fill="midnightblue" stroke="midnightblue" points="777.5,-326.19 774,-316.19 770.5,-326.19 777.5,-326.19"/>
</g>
<!-- Node9 -->
<g id="node9" class="node">
<title>Node9</title>
<g id="a_node9"><a xlink:href="_synchronizable_pool_8h.html" target="_top" xlink:title=" ">
<polygon fill="white" stroke="black" points="1144.5,-168.5 1144.5,-187.5 1255.5,-187.5 1255.5,-168.5 1144.5,-168.5"/>
<text text-anchor="middle" x="1200" y="-175.5" font-family="Helvetica,sans-Serif" font-size="10.00">SynchronizablePool.h</text>
</a>
</g>
</g>
<!-- Node8&#45;&gt;Node9 -->
<g id="edge8" class="edge">
<title>Node8&#45;&gt;Node9</title>
<path fill="none" stroke="midnightblue" d="M1199.11,-291.48C1199.29,-268.72 1199.65,-223.7 1199.85,-198.06"/>
<polygon fill="midnightblue" stroke="midnightblue" points="1203.35,-197.82 1199.93,-187.79 1196.35,-197.76 1203.35,-197.82"/>
</g>
<!-- Node20 -->
<g id="node20" class="node">
<title>Node20</title>
<g id="a_node20"><a xlink:href="_runner_pool_8h.html" target="_top" xlink:title=" ">
<polygon fill="white" stroke="black" points="1246.5,-230 1246.5,-249 1321.5,-249 1321.5,-230 1246.5,-230"/>
<text text-anchor="middle" x="1284" y="-237" font-family="Helvetica,sans-Serif" font-size="10.00">RunnerPool.h</text>
</a>
</g>
</g>
<!-- Node8&#45;&gt;Node20 -->
<g id="edge19" class="edge">
<title>Node8&#45;&gt;Node20</title>
<path fill="none" stroke="midnightblue" d="M1217.44,-291.4C1231.35,-280.76 1250.39,-266.2 1264.54,-255.38"/>
<polygon fill="midnightblue" stroke="midnightblue" points="1266.81,-258.05 1272.63,-249.19 1262.56,-252.49 1266.81,-258.05"/>
</g>
<!-- Node21 -->
<g id="node21" class="node">
<title>Node21</title>
<g id="a_node21"><a xlink:href="_main_pool_8h.html" target="_top" xlink:title=" ">
<polygon fill="white" stroke="black" points="1124.5,-230 1124.5,-249 1189.5,-249 1189.5,-230 1124.5,-230"/>
<text text-anchor="middle" x="1157" y="-237" font-family="Helvetica,sans-Serif" font-size="10.00">MainPool.h</text>
</a>
</g>
</g>
<!-- Node8&#45;&gt;Node21 -->
<g id="edge21" class="edge">
<title>Node8&#45;&gt;Node21</title>
<path fill="none" stroke="midnightblue" d="M1189.89,-291.4C1183.53,-281.56 1175.01,-268.38 1168.24,-257.89"/>
<polygon fill="midnightblue" stroke="midnightblue" points="1170.98,-255.69 1162.62,-249.19 1165.11,-259.49 1170.98,-255.69"/>
</g>
<!-- Node10 -->
<g id="node10" class="node">
<title>Node10</title>
<g id="a_node10"><a xlink:href="_thread_pool_8h.html" target="_top" xlink:title=" ">
<polygon fill="white" stroke="black" points="1172,-112.5 1172,-131.5 1246,-131.5 1246,-112.5 1172,-112.5"/>
<text text-anchor="middle" x="1209" y="-119.5" font-family="Helvetica,sans-Serif" font-size="10.00">ThreadPool.h</text>
</a>
</g>
</g>
<!-- Node9&#45;&gt;Node10 -->
<g id="edge9" class="edge">
<title>Node9&#45;&gt;Node10</title>
<path fill="none" stroke="midnightblue" d="M1201.49,-168.08C1202.68,-160.93 1204.39,-150.64 1205.88,-141.69"/>
<polygon fill="midnightblue" stroke="midnightblue" points="1209.35,-142.19 1207.54,-131.75 1202.45,-141.04 1209.35,-142.19"/>
</g>
<!-- Node11 -->
<g id="node11" class="node">
<title>Node11</title>
<g id="a_node11"><a xlink:title=" ">
<polygon fill="white" stroke="#bfbfbf" points="1360,-56.5 1360,-75.5 1404,-75.5 1404,-56.5 1360,-56.5"/>
<text text-anchor="middle" x="1382" y="-63.5" font-family="Helvetica,sans-Serif" font-size="10.00">thread</text>
</a>
</g>
</g>
<!-- Node10&#45;&gt;Node11 -->
<g id="edge10" class="edge">
<title>Node10&#45;&gt;Node11</title>
<path fill="none" stroke="midnightblue" d="M1236.41,-112.44C1267.28,-102.81 1317.36,-87.18 1350,-76.99"/>
<polygon fill="midnightblue" stroke="midnightblue" points="1351.43,-80.21 1359.93,-73.89 1349.34,-73.53 1351.43,-80.21"/>
</g>
<!-- Node12 -->
<g id="node12" class="node">
<title>Node12</title>
<g id="a_node12"><a xlink:title=" ">
<polygon fill="white" stroke="#bfbfbf" points="971,-56.5 971,-75.5 1015,-75.5 1015,-56.5 971,-56.5"/>
<text text-anchor="middle" x="993" y="-63.5" font-family="Helvetica,sans-Serif" font-size="10.00">mutex</text>
</a>
</g>
</g>
<!-- Node10&#45;&gt;Node12 -->
<g id="edge11" class="edge">
<title>Node10&#45;&gt;Node12</title>
<path fill="none" stroke="midnightblue" d="M1172.6,-112.49C1135.41,-103.7 1076.05,-89.42 1025,-76 1024.9,-75.97 1024.8,-75.95 1024.7,-75.92"/>
<polygon fill="midnightblue" stroke="midnightblue" points="1025.57,-72.53 1015.01,-73.3 1023.74,-79.29 1025.57,-72.53"/>
</g>
<!-- Node13 -->
<g id="node13" class="node">
<title>Node13</title>
<g id="a_node13"><a xlink:title=" ">
<polygon fill="white" stroke="#bfbfbf" points="1033.5,-56.5 1033.5,-75.5 1126.5,-75.5 1126.5,-56.5 1033.5,-56.5"/>
<text text-anchor="middle" x="1080" y="-63.5" font-family="Helvetica,sans-Serif" font-size="10.00">condition_variable</text>
</a>
</g>
</g>
<!-- Node10&#45;&gt;Node13 -->
<g id="edge12" class="edge">
<title>Node10&#45;&gt;Node13</title>
<path fill="none" stroke="midnightblue" d="M1188.56,-112.44C1167.33,-103.56 1133.9,-89.56 1109.75,-79.45"/>
<polygon fill="midnightblue" stroke="midnightblue" points="1110.92,-76.15 1100.34,-75.52 1108.22,-82.61 1110.92,-76.15"/>
</g>
<!-- Node14 -->
<g id="node14" class="node">
<title>Node14</title>
<g id="a_node14"><a xlink:title=" ">
<polygon fill="white" stroke="#bfbfbf" points="1144.5,-56.5 1144.5,-75.5 1185.5,-75.5 1185.5,-56.5 1144.5,-56.5"/>
<text text-anchor="middle" x="1165" y="-63.5" font-family="Helvetica,sans-Serif" font-size="10.00">future</text>
</a>
</g>
</g>
<!-- Node10&#45;&gt;Node14 -->
<g id="edge13" class="edge">
<title>Node10&#45;&gt;Node14</title>
<path fill="none" stroke="midnightblue" d="M1201.73,-112.08C1195.46,-104.38 1186.21,-93.03 1178.57,-83.65"/>
<polygon fill="midnightblue" stroke="midnightblue" points="1181.16,-81.29 1172.13,-75.75 1175.73,-85.71 1181.16,-81.29"/>
</g>
<!-- Node15 -->
<g id="node15" class="node">
<title>Node15</title>
<g id="a_node15"><a xlink:title=" ">
<polygon fill="white" stroke="#bfbfbf" points="1204,-56.5 1204,-75.5 1256,-75.5 1256,-56.5 1204,-56.5"/>
<text text-anchor="middle" x="1230" y="-63.5" font-family="Helvetica,sans-Serif" font-size="10.00">memory</text>
</a>
</g>
</g>
<!-- Node10&#45;&gt;Node15 -->
<g id="edge14" class="edge">
<title>Node10&#45;&gt;Node15</title>
<path fill="none" stroke="midnightblue" d="M1212.47,-112.08C1215.31,-104.77 1219.43,-94.18 1222.96,-85.1"/>
<polygon fill="midnightblue" stroke="midnightblue" points="1226.23,-86.34 1226.6,-75.75 1219.71,-83.8 1226.23,-86.34"/>
</g>
<!-- Node16 -->
<g id="node16" class="node">
<title>Node16</title>
<g id="a_node16"><a xlink:title=" ">
<polygon fill="white" stroke="#bfbfbf" points="874,-56.5 874,-75.5 928,-75.5 928,-56.5 874,-56.5"/>
<text text-anchor="middle" x="901" y="-63.5" font-family="Helvetica,sans-Serif" font-size="10.00">iostream</text>
</a>
</g>
</g>
<!-- Node10&#45;&gt;Node16 -->
<g id="edge15" class="edge">
<title>Node10&#45;&gt;Node16</title>
<path fill="none" stroke="midnightblue" d="M1171.86,-113.66C1168.86,-113.09 1165.88,-112.53 1163,-112 1083.12,-97.33 989.25,-81.56 938.38,-73.14"/>
<polygon fill="midnightblue" stroke="midnightblue" points="938.63,-69.63 928.19,-71.46 937.49,-76.54 938.63,-69.63"/>
</g>
<!-- Node17 -->
<g id="node17" class="node">
<title>Node17</title>
<g id="a_node17"><a xlink:href="_base_pool_8h.html" target="_top" xlink:title=" ">
<polygon fill="white" stroke="black" points="1274.5,-56.5 1274.5,-75.5 1341.5,-75.5 1341.5,-56.5 1274.5,-56.5"/>
<text text-anchor="middle" x="1308" y="-63.5" font-family="Helvetica,sans-Serif" font-size="10.00">BasePool.h</text>
</a>
</g>
</g>
<!-- Node10&#45;&gt;Node17 -->
<g id="edge16" class="edge">
<title>Node10&#45;&gt;Node17</title>
<path fill="none" stroke="midnightblue" d="M1224.91,-112.32C1240.64,-103.74 1264.94,-90.49 1283.21,-80.52"/>
<polygon fill="midnightblue" stroke="midnightblue" points="1285.03,-83.52 1292.13,-75.65 1281.68,-77.37 1285.03,-83.52"/>
</g>
<!-- Node18 -->
<g id="node18" class="node">
<title>Node18</title>
<g id="a_node18"><a xlink:title=" ">
<polygon fill="white" stroke="#bfbfbf" points="1251.5,-0.5 1251.5,-19.5 1294.5,-19.5 1294.5,-0.5 1251.5,-0.5"/>
<text text-anchor="middle" x="1273" y="-7.5" font-family="Helvetica,sans-Serif" font-size="10.00">queue</text>
</a>
</g>
</g>
<!-- Node17&#45;&gt;Node18 -->
<g id="edge17" class="edge">
<title>Node17&#45;&gt;Node18</title>
<path fill="none" stroke="midnightblue" d="M1302.22,-56.08C1297.33,-48.53 1290.17,-37.49 1284.17,-28.23"/>
<polygon fill="midnightblue" stroke="midnightblue" points="1287.05,-26.24 1278.67,-19.75 1281.17,-30.05 1287.05,-26.24"/>
</g>
<!-- Node19 -->
<g id="node19" class="node">
<title>Node19</title>
<g id="a_node19"><a xlink:title=" ">
<polygon fill="white" stroke="#bfbfbf" points="1313,-0.5 1313,-19.5 1371,-19.5 1371,-0.5 1313,-0.5"/>
<text text-anchor="middle" x="1342" y="-7.5" font-family="Helvetica,sans-Serif" font-size="10.00">functional</text>
</a>
</g>
</g>
<!-- Node17&#45;&gt;Node19 -->
<g id="edge18" class="edge">
<title>Node17&#45;&gt;Node19</title>
<path fill="none" stroke="midnightblue" d="M1313.61,-56.08C1318.37,-48.53 1325.32,-37.49 1331.15,-28.23"/>
<polygon fill="midnightblue" stroke="midnightblue" points="1334.12,-30.08 1336.49,-19.75 1328.2,-26.35 1334.12,-30.08"/>
</g>
<!-- Node20&#45;&gt;Node10 -->
<g id="edge20" class="edge">
<title>Node20&#45;&gt;Node10</title>
<path fill="none" stroke="midnightblue" d="M1283.41,-230C1282.08,-216.01 1277.89,-187.74 1265,-168 1256.87,-155.56 1244.18,-144.95 1232.93,-137.16"/>
<polygon fill="midnightblue" stroke="midnightblue" points="1234.62,-134.09 1224.34,-131.54 1230.79,-139.94 1234.62,-134.09"/>
</g>
<!-- Node21&#45;&gt;Node9 -->
<g id="edge22" class="edge">
<title>Node21&#45;&gt;Node9</title>
<path fill="none" stroke="midnightblue" d="M1163.16,-229.98C1169.61,-221.05 1179.9,-206.81 1187.97,-195.64"/>
<polygon fill="midnightblue" stroke="midnightblue" points="1190.83,-197.66 1193.85,-187.51 1185.16,-193.56 1190.83,-197.66"/>
</g>
<!-- Node23 -->
<g id="node23" class="node">
<title>Node23</title>
<g id="a_node23"><a xlink:title=" ">
<polygon fill="white" stroke="#bfbfbf" points="680.5,-168.5 680.5,-187.5 721.5,-187.5 721.5,-168.5 680.5,-168.5"/>
<text text-anchor="middle" x="701" y="-175.5" font-family="Helvetica,sans-Serif" font-size="10.00">string</text>
</a>
</g>
</g>
<!-- Node22&#45;&gt;Node23 -->
<g id="edge24" class="edge">
<title>Node22&#45;&gt;Node23</title>
<path fill="none" stroke="midnightblue" d="M537.72,-296.95C550.28,-286.93 571.69,-269.81 590,-255 606.95,-241.29 610.24,-236.64 628,-224 643.82,-212.74 662.47,-201.28 676.96,-192.73"/>
<polygon fill="midnightblue" stroke="midnightblue" points="678.93,-195.64 685.81,-187.58 675.41,-189.59 678.93,-195.64"/>
</g>
<!-- Node24 -->
<g id="node24" class="node">
<title>Node24</title>
<g id="a_node24"><a xlink:title=" ">
<polygon fill="white" stroke="#bfbfbf" points="636.5,-230 636.5,-249 719.5,-249 719.5,-230 636.5,-230"/>
<text text-anchor="middle" x="678" y="-237" font-family="Helvetica,sans-Serif" font-size="10.00">unordered_map</text>
</a>
</g>
</g>
<!-- Node22&#45;&gt;Node24 -->
<g id="edge25" class="edge">
<title>Node22&#45;&gt;Node24</title>
<path fill="none" stroke="midnightblue" d="M547.05,-296.87C573,-285.7 618.42,-266.15 648.36,-253.26"/>
<polygon fill="midnightblue" stroke="midnightblue" points="650.06,-256.34 657.87,-249.17 647.3,-249.91 650.06,-256.34"/>
</g>
<!-- Node25 -->
<g id="node25" class="node">
<title>Node25</title>
<g id="a_node25"><a xlink:title=" ">
<polygon fill="white" stroke="#bfbfbf" points="136,-168.5 136,-187.5 200,-187.5 200,-168.5 136,-168.5"/>
<text text-anchor="middle" x="168" y="-175.5" font-family="Helvetica,sans-Serif" font-size="10.00">glad/glad.h</text>
</a>
</g>
</g>
<!-- Node22&#45;&gt;Node25 -->
<g id="edge26" class="edge">
<title>Node22&#45;&gt;Node25</title>
<path fill="none" stroke="midnightblue" d="M497.02,-296.94C488.36,-294.72 478.85,-292.53 470,-291 427.44,-283.65 112.09,-286.92 83,-255 73.72,-244.82 75.89,-235.8 83,-224 92.58,-208.1 109.87,-197.52 126.36,-190.64"/>
<polygon fill="midnightblue" stroke="midnightblue" points="127.82,-193.83 135.92,-187.01 125.33,-187.29 127.82,-193.83"/>
</g>
<!-- Node26 -->
<g id="node26" class="node">
<title>Node26</title>
<g id="a_node26"><a xlink:title=" ">
<polygon fill="white" stroke="#bfbfbf" points="584,-168.5 584,-187.5 662,-187.5 662,-168.5 584,-168.5"/>
<text text-anchor="middle" x="623" y="-175.5" font-family="Helvetica,sans-Serif" font-size="10.00">GLFW/glfw3.h</text>
</a>
</g>
</g>
<!-- Node22&#45;&gt;Node26 -->
<g id="edge27" class="edge">
<title>Node22&#45;&gt;Node26</title>
<path fill="none" stroke="midnightblue" d="M533.6,-296.81C549.35,-276.04 589.4,-223.27 610.13,-195.96"/>
<polygon fill="midnightblue" stroke="midnightblue" points="613.1,-197.84 616.36,-187.76 607.52,-193.61 613.1,-197.84"/>
</g>
<!-- Node27 -->
<g id="node27" class="node">
<title>Node27</title>
<g id="a_node27"><a xlink:title=" ">
<polygon fill="white" stroke="#bfbfbf" points="92,-230 92,-249 178,-249 178,-230 92,-230"/>
<text text-anchor="middle" x="135" y="-237" font-family="Helvetica,sans-Serif" font-size="10.00">glm/mat4x4.hpp</text>
</a>
</g>
</g>
<!-- Node22&#45;&gt;Node27 -->
<g id="edge28" class="edge">
<title>Node22&#45;&gt;Node27</title>
<path fill="none" stroke="midnightblue" d="M496.39,-296.98C487.89,-294.81 478.63,-292.64 470,-291 345.44,-267.33 311.28,-280.09 187,-255 182.25,-254.04 177.31,-252.88 172.43,-251.64"/>
<polygon fill="midnightblue" stroke="midnightblue" points="173.18,-248.21 162.62,-249 171.37,-254.97 173.18,-248.21"/>
</g>
<!-- Node28 -->
<g id="node28" class="node">
<title>Node28</title>
<g id="a_node28"><a xlink:title=" ">
<polygon fill="white" stroke="#bfbfbf" points="196,-230 196,-249 302,-249 302,-230 196,-230"/>
<text text-anchor="middle" x="249" y="-237" font-family="Helvetica,sans-Serif" font-size="10.00">glm/gtc/type_ptr.hpp</text>
</a>
</g>
</g>
<!-- Node22&#45;&gt;Node28 -->
<g id="edge29" class="edge">
<title>Node22&#45;&gt;Node28</title>
<path fill="none" stroke="midnightblue" d="M494.18,-296.99C486.27,-294.99 477.84,-292.89 470,-291 399.55,-274.07 381.61,-271.25 311,-255 305.95,-253.84 300.66,-252.61 295.4,-251.39"/>
<polygon fill="midnightblue" stroke="midnightblue" points="295.91,-247.92 285.38,-249.05 294.32,-254.73 295.91,-247.92"/>
</g>
<!-- Node29 -->
<g id="node29" class="node">
<title>Node29</title>
<g id="a_node29"><a xlink:title=" ">
<polygon fill="white" stroke="#bfbfbf" points="320,-230 320,-249 410,-249 410,-230 320,-230"/>
<text text-anchor="middle" x="365" y="-237" font-family="Helvetica,sans-Serif" font-size="10.00">boost/variant.hpp</text>
</a>
</g>
</g>
<!-- Node22&#45;&gt;Node29 -->
<g id="edge30" class="edge">
<title>Node22&#45;&gt;Node29</title>
<path fill="none" stroke="midnightblue" d="M505.49,-296.87C477.33,-285.57 427.8,-265.7 395.7,-252.82"/>
<polygon fill="midnightblue" stroke="midnightblue" points="396.93,-249.54 386.34,-249.06 394.32,-256.04 396.93,-249.54"/>
</g>
<!-- Node30 -->
<g id="node30" class="node">
<title>Node30</title>
<g id="a_node30"><a xlink:href="_texture_8h.html" target="_top" xlink:title=" ">
<polygon fill="white" stroke="black" points="428.5,-224.5 428.5,-254.5 541.5,-254.5 541.5,-224.5 428.5,-224.5"/>
<text text-anchor="start" x="436.5" y="-242.5" font-family="Helvetica,sans-Serif" font-size="10.00">kryne&#45;engine/Textures</text>
<text text-anchor="middle" x="485" y="-231.5" font-family="Helvetica,sans-Serif" font-size="10.00">/Texture.h</text>
</a>
</g>
</g>
<!-- Node22&#45;&gt;Node30 -->
<g id="edge31" class="edge">
<title>Node22&#45;&gt;Node30</title>
<path fill="none" stroke="midnightblue" d="M521.34,-296.73C515.77,-288.12 507.04,-274.61 499.53,-262.99"/>
<polygon fill="midnightblue" stroke="midnightblue" points="502.47,-261.09 494.1,-254.59 496.59,-264.89 502.47,-261.09"/>
</g>
<!-- Node30&#45;&gt;Node3 -->
<g id="edge37" class="edge">
<title>Node30&#45;&gt;Node3</title>
<path fill="none" stroke="midnightblue" d="M428.19,-225.64C425.09,-225.06 422.01,-224.51 419,-224 355.64,-213.34 171.7,-193.28 84.25,-183.97"/>
<polygon fill="midnightblue" stroke="midnightblue" points="84.39,-180.47 74.08,-182.89 83.65,-187.43 84.39,-180.47"/>
</g>
<!-- Node30&#45;&gt;Node16 -->
<g id="edge34" class="edge">
<title>Node30&#45;&gt;Node16</title>
<path fill="none" stroke="midnightblue" d="M499.42,-224.44C516.28,-208.69 545.64,-183.38 575,-168 672.99,-116.68 801.44,-86.49 863.81,-73.91"/>
<polygon fill="midnightblue" stroke="midnightblue" points="864.82,-77.28 873.95,-71.91 863.46,-70.41 864.82,-77.28"/>
</g>
<!-- Node30&#45;&gt;Node23 -->
<g id="edge33" class="edge">
<title>Node30&#45;&gt;Node23</title>
<path fill="none" stroke="midnightblue" d="M538.42,-224.4C573.4,-215.07 620.34,-202.38 670.61,-188.06"/>
<polygon fill="midnightblue" stroke="midnightblue" points="671.71,-191.38 680.36,-185.27 669.79,-184.65 671.71,-191.38"/>
</g>
<!-- Node30&#45;&gt;Node25 -->
<g id="edge38" class="edge">
<title>Node30&#45;&gt;Node25</title>
<path fill="none" stroke="midnightblue" d="M428.15,-225.86C425.06,-225.22 421.99,-224.6 419,-224 345.84,-209.41 260.24,-194.53 210.27,-186.06"/>
<polygon fill="midnightblue" stroke="midnightblue" points="210.61,-182.57 200.17,-184.36 209.45,-189.47 210.61,-182.57"/>
</g>
<!-- Node30&#45;&gt;Node26 -->
<g id="edge39" class="edge">
<title>Node30&#45;&gt;Node26</title>
<path fill="none" stroke="midnightblue" d="M517.7,-224.4C540.75,-214.46 571.36,-201.26 593.63,-191.66"/>
<polygon fill="midnightblue" stroke="midnightblue" points="595.12,-194.83 602.92,-187.66 592.35,-188.4 595.12,-194.83"/>
</g>
<!-- Node31 -->
<g id="node31" class="node">
<title>Node31</title>
<g id="a_node31"><a xlink:title=" ">
<polygon fill="white" stroke="#bfbfbf" points="332,-168.5 332,-187.5 402,-187.5 402,-168.5 332,-168.5"/>
<text text-anchor="middle" x="367" y="-175.5" font-family="Helvetica,sans-Serif" font-size="10.00">stb_image.h</text>
</a>
</g>
</g>
<!-- Node30&#45;&gt;Node31 -->
<g id="edge32" class="edge">
<title>Node30&#45;&gt;Node31</title>
<path fill="none" stroke="midnightblue" d="M457.04,-224.4C437.68,-214.64 412.09,-201.74 393.14,-192.18"/>
<polygon fill="midnightblue" stroke="midnightblue" points="394.67,-189.04 384.17,-187.66 391.52,-195.29 394.67,-189.04"/>
</g>
<!-- Node32 -->
<g id="node32" class="node">
<title>Node32</title>
<g id="a_node32"><a xlink:title=" ">
<polygon fill="white" stroke="#bfbfbf" points="420.5,-168.5 420.5,-187.5 527.5,-187.5 527.5,-168.5 420.5,-168.5"/>
<text text-anchor="middle" x="474" y="-175.5" font-family="Helvetica,sans-Serif" font-size="10.00">boost/filesystem.hpp</text>
</a>
</g>
</g>
<!-- Node30&#45;&gt;Node32 -->
<g id="edge35" class="edge">
<title>Node30&#45;&gt;Node32</title>
<path fill="none" stroke="midnightblue" d="M482.39,-224.4C480.91,-216.38 479.03,-206.23 477.43,-197.57"/>
<polygon fill="midnightblue" stroke="midnightblue" points="480.86,-196.85 475.6,-187.66 473.98,-198.13 480.86,-196.85"/>
</g>
<!-- Node33 -->
<g id="node33" class="node">
<title>Node33</title>
<g id="a_node33"><a xlink:title=" ">
<polygon fill="white" stroke="#bfbfbf" points="240,-168.5 240,-187.5 314,-187.5 314,-168.5 240,-168.5"/>
<text text-anchor="middle" x="277" y="-175.5" font-family="Helvetica,sans-Serif" font-size="10.00">glm/vec2.hpp</text>
</a>
</g>
</g>
<!-- Node30&#45;&gt;Node33 -->
<g id="edge36" class="edge">
<title>Node30&#45;&gt;Node33</title>
<path fill="none" stroke="midnightblue" d="M435.97,-224.47C399.62,-214.08 350.69,-200.08 316.75,-190.37"/>
<polygon fill="midnightblue" stroke="midnightblue" points="317.31,-186.89 306.74,-187.51 315.39,-193.62 317.31,-186.89"/>
</g>
<!-- Node34&#45;&gt;Node16 -->
<g id="edge44" class="edge">
<title>Node34&#45;&gt;Node16</title>
<path fill="none" stroke="midnightblue" d="M789.09,-296.84C803.05,-288.05 823.36,-273.18 835,-255 870.46,-199.62 846.9,-172.36 873,-112 877.25,-102.18 883.41,-92 888.87,-83.81"/>
<polygon fill="midnightblue" stroke="midnightblue" points="891.79,-85.75 894.61,-75.54 886.03,-81.76 891.79,-85.75"/>
</g>
<!-- Node34&#45;&gt;Node23 -->
<g id="edge42" class="edge">
<title>Node34&#45;&gt;Node23</title>
<path fill="none" stroke="midnightblue" d="M769.42,-296.85C761.44,-281.88 744.38,-250.21 729,-224 723.52,-214.66 717.16,-204.39 711.89,-196.03"/>
<polygon fill="midnightblue" stroke="midnightblue" points="714.82,-194.11 706.5,-187.55 708.91,-197.86 714.82,-194.11"/>
</g>
<!-- Node34&#45;&gt;Node24 -->
<g id="edge41" class="edge">
<title>Node34&#45;&gt;Node24</title>
<path fill="none" stroke="midnightblue" d="M761.05,-296.73C745.15,-285.96 717.95,-267.55 699.03,-254.74"/>
<polygon fill="midnightblue" stroke="midnightblue" points="700.98,-251.84 690.74,-249.13 697.06,-257.63 700.98,-251.84"/>
</g>
<!-- Node35 -->
<g id="node35" class="node">
<title>Node35</title>
<g id="a_node35"><a xlink:title=" ">
<polygon fill="white" stroke="#bfbfbf" points="776.5,-230 776.5,-249 825.5,-249 825.5,-230 776.5,-230"/>
<text text-anchor="middle" x="801" y="-237" font-family="Helvetica,sans-Serif" font-size="10.00">fstream</text>
</a>
</g>
</g>
<!-- Node34&#45;&gt;Node35 -->
<g id="edge43" class="edge">
<title>Node34&#45;&gt;Node35</title>
<path fill="none" stroke="midnightblue" d="M777.64,-296.73C781.69,-286.99 788.34,-270.98 793.51,-258.53"/>
<polygon fill="midnightblue" stroke="midnightblue" points="796.81,-259.7 797.42,-249.13 790.35,-257.02 796.81,-259.7"/>
</g>
<!-- Node36 -->
<g id="node36" class="node">
<title>Node36</title>
<g id="a_node36"><a xlink:href="kryne-engine_2_utils_2_utils_8h.html" target="_top" xlink:title=" ">
<polygon fill="white" stroke="black" points="882.5,-224.5 882.5,-254.5 977.5,-254.5 977.5,-224.5 882.5,-224.5"/>
<text text-anchor="start" x="890.5" y="-242.5" font-family="Helvetica,sans-Serif" font-size="10.00">kryne&#45;engine/Utils</text>
<text text-anchor="middle" x="930" y="-231.5" font-family="Helvetica,sans-Serif" font-size="10.00">/Utils.h</text>
</a>
</g>
</g>
<!-- Node34&#45;&gt;Node36 -->
<g id="edge45" class="edge">
<title>Node34&#45;&gt;Node36</title>
<path fill="none" stroke="midnightblue" d="M794.72,-296.87C818.12,-287.12 856.87,-270.97 886.92,-258.45"/>
<polygon fill="midnightblue" stroke="midnightblue" points="888.45,-261.61 896.33,-254.53 885.76,-255.14 888.45,-261.61"/>
</g>
<!-- Node37 -->
<g id="node37" class="node">
<title>Node37</title>
<g id="a_node37"><a xlink:href="_string_utils_8hpp.html" target="_top" xlink:title=" ">
<polygon fill="white" stroke="black" points="882,-112.5 882,-131.5 962,-131.5 962,-112.5 882,-112.5"/>
<text text-anchor="middle" x="922" y="-119.5" font-family="Helvetica,sans-Serif" font-size="10.00">StringUtils.hpp</text>
</a>
</g>
</g>
<!-- Node36&#45;&gt;Node37 -->
<g id="edge46" class="edge">
<title>Node36&#45;&gt;Node37</title>
<path fill="none" stroke="midnightblue" d="M929.02,-224.34C927.58,-203.62 924.91,-165.02 923.31,-141.9"/>
<polygon fill="midnightblue" stroke="midnightblue" points="926.78,-141.4 922.6,-131.67 919.8,-141.89 926.78,-141.4"/>
</g>
<!-- Node38 -->
<g id="node38" class="node">
<title>Node38</title>
<g id="a_node38"><a xlink:href="_vector_mapping_8hpp.html" target="_top" xlink:title=" ">
<polygon fill="white" stroke="black" points="966.5,-168.5 966.5,-187.5 1067.5,-187.5 1067.5,-168.5 966.5,-168.5"/>
<text text-anchor="middle" x="1017" y="-175.5" font-family="Helvetica,sans-Serif" font-size="10.00">VectorMapping.hpp</text>
</a>
</g>
</g>
<!-- Node36&#45;&gt;Node38 -->
<g id="edge48" class="edge">
<title>Node36&#45;&gt;Node38</title>
<path fill="none" stroke="midnightblue" d="M950.62,-224.4C964.3,-215.04 982.21,-202.79 995.98,-193.38"/>
<polygon fill="midnightblue" stroke="midnightblue" points="998.06,-196.19 1004.34,-187.66 994.11,-190.41 998.06,-196.19"/>
</g>
<!-- Node37&#45;&gt;Node16 -->
<g id="edge47" class="edge">
<title>Node37&#45;&gt;Node16</title>
<path fill="none" stroke="midnightblue" d="M918.53,-112.08C915.69,-104.77 911.57,-94.18 908.04,-85.1"/>
<polygon fill="midnightblue" stroke="midnightblue" points="911.29,-83.8 904.4,-75.75 904.77,-86.34 911.29,-83.8"/>
</g>
<!-- Node38&#45;&gt;Node4 -->
<g id="edge49" class="edge">
<title>Node38&#45;&gt;Node4</title>
<path fill="none" stroke="midnightblue" d="M1035.38,-168.44C1054.22,-159.68 1083.73,-145.94 1105.38,-135.86"/>
<polygon fill="midnightblue" stroke="midnightblue" points="1107.12,-138.91 1114.71,-131.52 1104.16,-132.56 1107.12,-138.91"/>
</g>
<!-- Node39 -->
<g id="node39" class="node">
<title>Node39</title>
<g id="a_node39"><a xlink:title=" ">
<polygon fill="white" stroke="#bfbfbf" points="980.5,-112.5 980.5,-131.5 1093.5,-131.5 1093.5,-112.5 980.5,-112.5"/>
<text text-anchor="middle" x="1037" y="-119.5" font-family="Helvetica,sans-Serif" font-size="10.00">glm/detail/qualifier.hpp</text>
</a>
</g>
</g>
<!-- Node38&#45;&gt;Node39 -->
<g id="edge50" class="edge">
<title>Node38&#45;&gt;Node39</title>
<path fill="none" stroke="midnightblue" d="M1020.3,-168.08C1022.98,-160.85 1026.85,-150.41 1030.19,-141.4"/>
<polygon fill="midnightblue" stroke="midnightblue" points="1033.57,-142.34 1033.76,-131.75 1027,-139.91 1033.57,-142.34"/>
</g>
</g>
</svg>
