<?xml version="1.0" encoding="UTF-8" standalone="no"?>
<!DOCTYPE svg PUBLIC "-//W3C//DTD SVG 1.1//EN"
 "http://www.w3.org/Graphics/SVG/1.1/DTD/svg11.dtd">
<!-- Generated by graphviz version 2.40.1 (20161225.0304)
 -->
<!-- Title: kryne&#45;engine/include/kryne&#45;engine/Light/DirectionalLight.hpp Pages: 1 -->
<svg width="644pt" height="351pt"
 viewBox="0.00 0.00 643.50 351.00" xmlns="http://www.w3.org/2000/svg" xmlns:xlink="http://www.w3.org/1999/xlink">
<g id="graph0" class="graph" transform="scale(1 1) rotate(0) translate(4 347)">
<title>kryne&#45;engine/include/kryne&#45;engine/Light/DirectionalLight.hpp</title>
<polygon fill="#ffffff" stroke="transparent" points="-4,4 -4,-347 639.5,-347 639.5,4 -4,4"/>
<!-- Node99 -->
<g id="node1" class="node">
<title>Node99</title>
<polygon fill="#bfbfbf" stroke="#000000" points="419.5,-301.5 419.5,-342.5 568.5,-342.5 568.5,-301.5 419.5,-301.5"/>
<text text-anchor="start" x="427.5" y="-330.5" font-family="Helvetica,sans-Serif" font-size="10.00" fill="#000000">kryne&#45;engine/include</text>
<text text-anchor="start" x="427.5" y="-319.5" font-family="Helvetica,sans-Serif" font-size="10.00" fill="#000000">/kryne&#45;engine/Light/Directional</text>
<text text-anchor="middle" x="494" y="-308.5" font-family="Helvetica,sans-Serif" font-size="10.00" fill="#000000">Light.hpp</text>
</g>
<!-- Node100 -->
<g id="node2" class="node">
<title>Node100</title>
<g id="a_node2"><a xlink:href="_directional_light_shadow_camera_component_8hpp.html" target="_top" xlink:title="kryne&#45;engine/include\l/kryne&#45;engine/Light/Directional\lLightShadowCameraComponent.hpp">
<polygon fill="#ffffff" stroke="#000000" points="290,-223.5 290,-264.5 466,-264.5 466,-223.5 290,-223.5"/>
<text text-anchor="start" x="298" y="-252.5" font-family="Helvetica,sans-Serif" font-size="10.00" fill="#000000">kryne&#45;engine/include</text>
<text text-anchor="start" x="298" y="-241.5" font-family="Helvetica,sans-Serif" font-size="10.00" fill="#000000">/kryne&#45;engine/Light/Directional</text>
<text text-anchor="middle" x="378" y="-230.5" font-family="Helvetica,sans-Serif" font-size="10.00" fill="#000000">LightShadowCameraComponent.hpp</text>
</a>
</g>
</g>
<!-- Node99&#45;&gt;Node100 -->
<g id="edge1" class="edge">
<title>Node99&#45;&gt;Node100</title>
<path fill="none" stroke="#191970" d="M454.6066,-295.5113C439.5524,-285.3887 422.6277,-274.0083 408.5227,-264.5239"/>
<polygon fill="#191970" stroke="#191970" points="452.9672,-298.6267 463.2187,-301.3022 456.8732,-292.8177 452.9672,-298.6267"/>
</g>
<!-- Node102 -->
<g id="node4" class="node">
<title>Node102</title>
<g id="a_node4"><a xlink:href="_lighting_registry_system_8hpp.html" target="_top" xlink:title="kryne&#45;engine/include\l/kryne&#45;engine/Systems\l/LightingRegistrySystem.hpp">
<polygon fill="#ffffff" stroke="#000000" points="214.5,-67.5 214.5,-108.5 357.5,-108.5 357.5,-67.5 214.5,-67.5"/>
<text text-anchor="start" x="222.5" y="-96.5" font-family="Helvetica,sans-Serif" font-size="10.00" fill="#000000">kryne&#45;engine/include</text>
<text text-anchor="start" x="222.5" y="-85.5" font-family="Helvetica,sans-Serif" font-size="10.00" fill="#000000">/kryne&#45;engine/Systems</text>
<text text-anchor="middle" x="286" y="-74.5" font-family="Helvetica,sans-Serif" font-size="10.00" fill="#000000">/LightingRegistrySystem.hpp</text>
</a>
</g>
</g>
<!-- Node99&#45;&gt;Node102 -->
<g id="edge8" class="edge">
<title>Node99&#45;&gt;Node102</title>
<path fill="none" stroke="#191970" d="M499.833,-291.3552C505.3279,-252.6539 508.281,-186.16 474,-145 458.7756,-126.7206 404.3188,-111.4374 357.9074,-101.3128"/>
<polygon fill="#191970" stroke="#191970" points="496.3353,-291.0684 498.2446,-301.4898 503.2508,-292.1523 496.3353,-291.0684"/>
</g>
<!-- Node106 -->
<g id="node8" class="node">
<title>Node106</title>
<g id="a_node8"><a xlink:href="_directional_light_8cpp.html" target="_top" xlink:title="kryne&#45;engine/src/Light\l/DirectionalLight.cpp">
<polygon fill="#ffffff" stroke="#000000" points="522.5,-229 522.5,-259 635.5,-259 635.5,-229 522.5,-229"/>
<text text-anchor="start" x="530.5" y="-247" font-family="Helvetica,sans-Serif" font-size="10.00" fill="#000000">kryne&#45;engine/src/Light</text>
<text text-anchor="middle" x="579" y="-236" font-family="Helvetica,sans-Serif" font-size="10.00" fill="#000000">/DirectionalLight.cpp</text>
</a>
</g>
</g>
<!-- Node99&#45;&gt;Node106 -->
<g id="edge9" class="edge">
<title>Node99&#45;&gt;Node106</title>
<path fill="none" stroke="#191970" d="M524.1694,-294.3152C537.1199,-282.4312 551.7427,-269.0126 562.6284,-259.0233"/>
<polygon fill="#191970" stroke="#191970" points="521.78,-291.7574 516.7784,-301.0974 526.5128,-296.915 521.78,-291.7574"/>
</g>
<!-- Node101 -->
<g id="node3" class="node">
<title>Node101</title>
<g id="a_node3"><a xlink:href="_shadow_mapping_process_8hpp.html" target="_top" xlink:title="kryne&#45;engine/include\l/kryne&#45;engine/Rendering\l/Processes/ShadowMappingProcess.hpp">
<polygon fill="#ffffff" stroke="#000000" points="94,-145.5 94,-186.5 290,-186.5 290,-145.5 94,-145.5"/>
<text text-anchor="start" x="102" y="-174.5" font-family="Helvetica,sans-Serif" font-size="10.00" fill="#000000">kryne&#45;engine/include</text>
<text text-anchor="start" x="102" y="-163.5" font-family="Helvetica,sans-Serif" font-size="10.00" fill="#000000">/kryne&#45;engine/Rendering</text>
<text text-anchor="middle" x="192" y="-152.5" font-family="Helvetica,sans-Serif" font-size="10.00" fill="#000000">/Processes/ShadowMappingProcess.hpp</text>
</a>
</g>
</g>
<!-- Node100&#45;&gt;Node101 -->
<g id="edge2" class="edge">
<title>Node100&#45;&gt;Node101</title>
<path fill="none" stroke="#191970" d="M319.1989,-219.3415C294.0099,-208.7784 264.9321,-196.5844 240.9415,-186.5239"/>
<polygon fill="#191970" stroke="#191970" points="318.0682,-222.6626 328.6437,-223.3022 320.7754,-216.2072 318.0682,-222.6626"/>
</g>
<!-- Node105 -->
<g id="node7" class="node">
<title>Node105</title>
<g id="a_node7"><a xlink:href="_directional_light_shadow_camera_component_8cpp.html" target="_top" xlink:title="kryne&#45;engine/src/Light\l/DirectionalLightShadowCamera\lComponent.cpp">
<polygon fill="#ffffff" stroke="#000000" points="308.5,-145.5 308.5,-186.5 465.5,-186.5 465.5,-145.5 308.5,-145.5"/>
<text text-anchor="start" x="316.5" y="-174.5" font-family="Helvetica,sans-Serif" font-size="10.00" fill="#000000">kryne&#45;engine/src/Light</text>
<text text-anchor="start" x="316.5" y="-163.5" font-family="Helvetica,sans-Serif" font-size="10.00" fill="#000000">/DirectionalLightShadowCamera</text>
<text text-anchor="middle" x="387" y="-152.5" font-family="Helvetica,sans-Serif" font-size="10.00" fill="#000000">Component.cpp</text>
</a>
</g>
</g>
<!-- Node100&#45;&gt;Node105 -->
<g id="edge7" class="edge">
<title>Node100&#45;&gt;Node105</title>
<path fill="none" stroke="#191970" d="M381.5678,-213.0789C382.5903,-204.2178 383.6798,-194.7747 384.6127,-186.6898"/>
<polygon fill="#191970" stroke="#191970" points="378.0812,-212.7621 380.4118,-223.0974 385.0351,-213.5646 378.0812,-212.7621"/>
</g>
<!-- Node101&#45;&gt;Node102 -->
<g id="edge3" class="edge">
<title>Node101&#45;&gt;Node102</title>
<path fill="none" stroke="#191970" d="M218.9727,-138.229C230.2492,-128.4953 243.3608,-117.7414 255.0264,-108.6898"/>
<polygon fill="#191970" stroke="#191970" points="216.3482,-135.8751 211.1328,-145.0974 220.961,-141.1403 216.3482,-135.8751"/>
</g>
<!-- Node104 -->
<g id="node6" class="node">
<title>Node104</title>
<g id="a_node6"><a xlink:href="_shadow_mapping_process_8cpp.html" target="_top" xlink:title="kryne&#45;engine/src/Rendering\l/Processes/ShadowMappingProcess.cpp">
<polygon fill="#ffffff" stroke="#000000" points="0,-73 0,-103 196,-103 196,-73 0,-73"/>
<text text-anchor="start" x="8" y="-91" font-family="Helvetica,sans-Serif" font-size="10.00" fill="#000000">kryne&#45;engine/src/Rendering</text>
<text text-anchor="middle" x="98" y="-80" font-family="Helvetica,sans-Serif" font-size="10.00" fill="#000000">/Processes/ShadowMappingProcess.cpp</text>
</a>
</g>
</g>
<!-- Node101&#45;&gt;Node104 -->
<g id="edge6" class="edge">
<title>Node101&#45;&gt;Node104</title>
<path fill="none" stroke="#191970" d="M159.0373,-138.648C144.6171,-126.6823 128.2559,-113.106 116.105,-103.0233"/>
<polygon fill="#191970" stroke="#191970" points="156.8791,-141.4051 166.8097,-145.0974 161.3491,-136.0182 156.8791,-141.4051"/>
</g>
<!-- Node102&#45;&gt;Node101 -->
<g id="edge4" class="edge">
<title>Node102&#45;&gt;Node101</title>
<path fill="none" stroke="#191970" d="M259.7384,-115.1565C248.3078,-125.0475 234.893,-136.0613 222.9839,-145.3022"/>
<polygon fill="#191970" stroke="#191970" points="262.087,-117.752 267.2919,-108.5239 257.4683,-112.492 262.087,-117.752"/>
</g>
<!-- Node103 -->
<g id="node5" class="node">
<title>Node103</title>
<g id="a_node5"><a xlink:href="_lighting_registry_system_8cpp.html" target="_top" xlink:title="kryne&#45;engine/src/Systems\l/LightingRegistrySystem.cpp">
<polygon fill="#ffffff" stroke="#000000" points="214.5,-.5 214.5,-30.5 357.5,-30.5 357.5,-.5 214.5,-.5"/>
<text text-anchor="start" x="222.5" y="-18.5" font-family="Helvetica,sans-Serif" font-size="10.00" fill="#000000">kryne&#45;engine/src/Systems</text>
<text text-anchor="middle" x="286" y="-7.5" font-family="Helvetica,sans-Serif" font-size="10.00" fill="#000000">/LightingRegistrySystem.cpp</text>
</a>
</g>
</g>
<!-- Node102&#45;&gt;Node103 -->
<g id="edge5" class="edge">
<title>Node102&#45;&gt;Node103</title>
<path fill="none" stroke="#191970" d="M286,-57.3279C286,-48.0871 286,-38.3508 286,-30.5991"/>
<polygon fill="#191970" stroke="#191970" points="282.5001,-57.4183 286,-67.4183 289.5001,-57.4184 282.5001,-57.4183"/>
</g>
</g>
</svg>
