<?xml version="1.0" encoding="UTF-8" standalone="no"?>
<!DOCTYPE svg PUBLIC "-//W3C//DTD SVG 1.1//EN"
 "http://www.w3.org/Graphics/SVG/1.1/DTD/svg11.dtd">
<!-- Generated by graphviz version 2.44.1 (20200629.0846)
 -->
<!-- Title: kryne&#45;engine/include/kryne&#45;engine/Rendering/ShadowMapping/DirectionalShadowMapRendering.h Pages: 1 -->
<svg width="1562pt" height="519pt"
 viewBox="0.00 0.00 1562.39 519.00" xmlns="http://www.w3.org/2000/svg" xmlns:xlink="http://www.w3.org/1999/xlink">
<g id="graph0" class="graph" transform="scale(1 1) rotate(0) translate(4 515)">
<title>kryne&#45;engine/include/kryne&#45;engine/Rendering/ShadowMapping/DirectionalShadowMapRendering.h</title>
<polygon fill="white" stroke="transparent" points="-4,4 -4,-515 1558.39,-515 1558.39,4 -4,4"/>
<!-- Node1 -->
<g id="node1" class="node">
<title>Node1</title>
<g id="a_node1"><a xlink:title=" ">
<polygon fill="#bfbfbf" stroke="black" points="351.39,-458.5 351.39,-510.5 525.39,-510.5 525.39,-458.5 351.39,-458.5"/>
<text text-anchor="start" x="359.39" y="-498.5" font-family="Helvetica,sans-Serif" font-size="10.00">kryne&#45;engine/include</text>
<text text-anchor="start" x="359.39" y="-487.5" font-family="Helvetica,sans-Serif" font-size="10.00">/kryne&#45;engine/Rendering</text>
<text text-anchor="start" x="359.39" y="-476.5" font-family="Helvetica,sans-Serif" font-size="10.00">/ShadowMapping/DirectionalShadow</text>
<text text-anchor="middle" x="438.39" y="-465.5" font-family="Helvetica,sans-Serif" font-size="10.00">MapRendering.h</text>
</a>
</g>
</g>
<!-- Node2 -->
<g id="node2" class="node">
<title>Node2</title>
<g id="a_node2"><a xlink:href="_render_pass_8h.html" target="_top" xlink:title=" ">
<polygon fill="white" stroke="black" points="577.89,-391.5 577.89,-421.5 696.89,-421.5 696.89,-391.5 577.89,-391.5"/>
<text text-anchor="start" x="585.89" y="-409.5" font-family="Helvetica,sans-Serif" font-size="10.00">kryne&#45;engine/Rendering</text>
<text text-anchor="middle" x="637.39" y="-398.5" font-family="Helvetica,sans-Serif" font-size="10.00">/RenderPass.h</text>
</a>
</g>
</g>
<!-- Node1&#45;&gt;Node2 -->
<g id="edge1" class="edge">
<title>Node1&#45;&gt;Node2</title>
<path fill="none" stroke="midnightblue" d="M504.1,-458.4C532.51,-447.55 565.09,-435.11 590.92,-425.24"/>
<polygon fill="midnightblue" stroke="midnightblue" points="592.38,-428.43 600.47,-421.6 589.88,-421.9 592.38,-428.43"/>
</g>
<!-- Node36 -->
<g id="node36" class="node">
<title>Node36</title>
<g id="a_node36"><a xlink:href="_directional_light_8h.html" target="_top" xlink:title=" ">
<polygon fill="white" stroke="black" points="211.39,-257.5 211.39,-287.5 307.39,-287.5 307.39,-257.5 211.39,-257.5"/>
<text text-anchor="start" x="219.39" y="-275.5" font-family="Helvetica,sans-Serif" font-size="10.00">kryne&#45;engine/Light</text>
<text text-anchor="middle" x="259.39" y="-264.5" font-family="Helvetica,sans-Serif" font-size="10.00">/DirectionalLight.h</text>
</a>
</g>
</g>
<!-- Node1&#45;&gt;Node36 -->
<g id="edge62" class="edge">
<title>Node1&#45;&gt;Node36</title>
<path fill="none" stroke="midnightblue" d="M416.79,-458.17C381.38,-416.62 311.54,-334.68 278.09,-295.45"/>
<polygon fill="midnightblue" stroke="midnightblue" points="280.69,-293.09 271.54,-287.75 275.36,-297.63 280.69,-293.09"/>
</g>
<!-- Node3 -->
<g id="node3" class="node">
<title>Node3</title>
<g id="a_node3"><a xlink:href="_window_8h.html" target="_top" xlink:title=" ">
<polygon fill="white" stroke="black" points="424.89,-196 424.89,-215 565.89,-215 565.89,-196 424.89,-196"/>
<text text-anchor="middle" x="495.39" y="-203" font-family="Helvetica,sans-Serif" font-size="10.00">kryne&#45;engine/Core/Window.h</text>
</a>
</g>
</g>
<!-- Node2&#45;&gt;Node3 -->
<g id="edge2" class="edge">
<title>Node2&#45;&gt;Node3</title>
<path fill="none" stroke="midnightblue" d="M611.98,-391.47C597.5,-382.51 579.82,-369.8 567.39,-355 533.23,-314.34 510.8,-254.73 501.01,-224.91"/>
<polygon fill="midnightblue" stroke="midnightblue" points="504.24,-223.52 497.88,-215.04 497.57,-225.63 504.24,-223.52"/>
</g>
<!-- Node21 -->
<g id="node21" class="node">
<title>Node21</title>
<g id="a_node21"><a xlink:href="_hierarchical_node_8h.html" target="_top" xlink:title=" ">
<polygon fill="white" stroke="black" points="576.89,-324.5 576.89,-354.5 697.89,-354.5 697.89,-324.5 576.89,-324.5"/>
<text text-anchor="start" x="584.89" y="-342.5" font-family="Helvetica,sans-Serif" font-size="10.00">kryne&#45;engine/3DObjects</text>
<text text-anchor="middle" x="637.39" y="-331.5" font-family="Helvetica,sans-Serif" font-size="10.00">/HierarchicalNode.h</text>
</a>
</g>
</g>
<!-- Node2&#45;&gt;Node21 -->
<g id="edge24" class="edge">
<title>Node2&#45;&gt;Node21</title>
<path fill="none" stroke="midnightblue" d="M631.71,-391.4C630.68,-383.56 630.39,-373.6 630.84,-364.57"/>
<polygon fill="midnightblue" stroke="midnightblue" points="634.33,-364.84 631.71,-354.58 627.36,-364.24 634.33,-364.84"/>
</g>
<!-- Node22 -->
<g id="node22" class="node">
<title>Node22</title>
<g id="a_node22"><a xlink:href="3_d_objects_2_base_object_8h.html" target="_top" xlink:title=" ">
<polygon fill="white" stroke="black" points="680.89,-257.5 680.89,-287.5 801.89,-287.5 801.89,-257.5 680.89,-257.5"/>
<text text-anchor="start" x="688.89" y="-275.5" font-family="Helvetica,sans-Serif" font-size="10.00">kryne&#45;engine/3DObjects</text>
<text text-anchor="middle" x="741.39" y="-264.5" font-family="Helvetica,sans-Serif" font-size="10.00">/BaseObject.h</text>
</a>
</g>
</g>
<!-- Node2&#45;&gt;Node22 -->
<g id="edge61" class="edge">
<title>Node2&#45;&gt;Node22</title>
<path fill="none" stroke="midnightblue" d="M663.01,-391.4C677.3,-382.49 694.55,-369.87 706.39,-355 719.97,-337.94 729.23,-314.82 734.8,-297.56"/>
<polygon fill="midnightblue" stroke="midnightblue" points="738.25,-298.26 737.8,-287.67 731.55,-296.23 738.25,-298.26"/>
</g>
<!-- Node4 -->
<g id="node4" class="node">
<title>Node4</title>
<g id="a_node4"><a xlink:title=" ">
<polygon fill="white" stroke="#bfbfbf" points="33.39,-62 33.39,-81 75.39,-81 75.39,-62 33.39,-62"/>
<text text-anchor="middle" x="54.39" y="-69" font-family="Helvetica,sans-Serif" font-size="10.00">vector</text>
</a>
</g>
</g>
<!-- Node3&#45;&gt;Node4 -->
<g id="edge3" class="edge">
<title>Node3&#45;&gt;Node4</title>
<path fill="none" stroke="midnightblue" d="M428.85,-195.98C386.49,-188.76 331.33,-175.95 286.39,-154 266.49,-144.28 267.38,-132.52 247.39,-123 180.4,-91.1 154.48,-111.31 84.39,-87 82.77,-86.44 81.13,-85.82 79.49,-85.15"/>
<polygon fill="midnightblue" stroke="midnightblue" points="80.84,-81.92 70.29,-81.03 77.98,-88.31 80.84,-81.92"/>
</g>
<!-- Node5 -->
<g id="node5" class="node">
<title>Node5</title>
<g id="a_node5"><a xlink:title=" ">
<polygon fill="white" stroke="#bfbfbf" points="97.39,-129 97.39,-148 175.39,-148 175.39,-129 97.39,-129"/>
<text text-anchor="middle" x="136.39" y="-136" font-family="Helvetica,sans-Serif" font-size="10.00">unordered_set</text>
</a>
</g>
</g>
<!-- Node3&#45;&gt;Node5 -->
<g id="edge4" class="edge">
<title>Node3&#45;&gt;Node5</title>
<path fill="none" stroke="midnightblue" d="M426.63,-196C363.27,-187.53 266.86,-173.06 184.39,-154 180.44,-153.09 176.35,-152.03 172.29,-150.91"/>
<polygon fill="midnightblue" stroke="midnightblue" points="172.95,-147.46 162.37,-148.04 171.01,-154.18 172.95,-147.46"/>
</g>
<!-- Node6 -->
<g id="node6" class="node">
<title>Node6</title>
<g id="a_node6"><a xlink:title=" ">
<polygon fill="white" stroke="#bfbfbf" points="644.89,-129 644.89,-148 693.89,-148 693.89,-129 644.89,-129"/>
<text text-anchor="middle" x="669.39" y="-136" font-family="Helvetica,sans-Serif" font-size="10.00">cstdarg</text>
</a>
</g>
</g>
<!-- Node3&#45;&gt;Node6 -->
<g id="edge5" class="edge">
<title>Node3&#45;&gt;Node6</title>
<path fill="none" stroke="midnightblue" d="M518.49,-195.87C548.87,-184.52 602.4,-164.52 636.86,-151.65"/>
<polygon fill="midnightblue" stroke="midnightblue" points="638.32,-154.84 646.46,-148.06 635.87,-148.28 638.32,-154.84"/>
</g>
<!-- Node7 -->
<g id="node7" class="node">
<title>Node7</title>
<g id="a_node7"><a xlink:title=" ">
<polygon fill="white" stroke="#bfbfbf" points="193.89,-129 193.89,-148 238.89,-148 238.89,-129 193.89,-129"/>
<text text-anchor="middle" x="216.39" y="-136" font-family="Helvetica,sans-Serif" font-size="10.00">cstdlib</text>
</a>
</g>
</g>
<!-- Node3&#45;&gt;Node7 -->
<g id="edge6" class="edge">
<title>Node3&#45;&gt;Node7</title>
<path fill="none" stroke="midnightblue" d="M441.87,-195.99C392.41,-187.5 317.14,-173 253.39,-154 250.96,-153.28 248.46,-152.46 245.97,-151.6"/>
<polygon fill="midnightblue" stroke="midnightblue" points="247.12,-148.29 236.53,-148.1 244.69,-154.85 247.12,-148.29"/>
</g>
<!-- Node8 -->
<g id="node8" class="node">
<title>Node8</title>
<g id="a_node8"><a xlink:title=" ">
<polygon fill="white" stroke="#bfbfbf" points="1174.39,-0.5 1174.39,-19.5 1228.39,-19.5 1228.39,-0.5 1174.39,-0.5"/>
<text text-anchor="middle" x="1201.39" y="-7.5" font-family="Helvetica,sans-Serif" font-size="10.00">iostream</text>
</a>
</g>
</g>
<!-- Node3&#45;&gt;Node8 -->
<g id="edge7" class="edge">
<title>Node3&#45;&gt;Node8</title>
<path fill="none" stroke="midnightblue" d="M424.74,-204.11C266.07,-201.05 -95.57,-180.63 24.39,-56 64.83,-13.98 968.24,-11.12 1164.13,-10.99"/>
<polygon fill="midnightblue" stroke="midnightblue" points="1164.22,-14.49 1174.22,-10.99 1164.21,-7.49 1164.22,-14.49"/>
</g>
<!-- Node9 -->
<g id="node9" class="node">
<title>Node9</title>
<g id="a_node9"><a xlink:title=" ">
<polygon fill="white" stroke="#bfbfbf" points="575.39,-62 575.39,-81 639.39,-81 639.39,-62 575.39,-62"/>
<text text-anchor="middle" x="607.39" y="-69" font-family="Helvetica,sans-Serif" font-size="10.00">glad/glad.h</text>
</a>
</g>
</g>
<!-- Node3&#45;&gt;Node9 -->
<g id="edge8" class="edge">
<title>Node3&#45;&gt;Node9</title>
<path fill="none" stroke="midnightblue" d="M508.59,-195.99C522.18,-186.78 543.44,-171.1 558.39,-154 575.73,-134.15 590.5,-107.36 599.16,-90.01"/>
<polygon fill="midnightblue" stroke="midnightblue" points="602.31,-91.53 603.53,-81 596.01,-88.47 602.31,-91.53"/>
</g>
<!-- Node10 -->
<g id="node10" class="node">
<title>Node10</title>
<g id="a_node10"><a xlink:title=" ">
<polygon fill="white" stroke="#bfbfbf" points="657.39,-62 657.39,-81 735.39,-81 735.39,-62 657.39,-62"/>
<text text-anchor="middle" x="696.39" y="-69" font-family="Helvetica,sans-Serif" font-size="10.00">GLFW/glfw3.h</text>
</a>
</g>
</g>
<!-- Node3&#45;&gt;Node10 -->
<g id="edge9" class="edge">
<title>Node3&#45;&gt;Node10</title>
<path fill="none" stroke="midnightblue" d="M511.58,-195.87C529.47,-186.18 558.96,-169.76 583.39,-154 617.3,-132.12 655.01,-104.14 677.16,-87.31"/>
<polygon fill="midnightblue" stroke="midnightblue" points="679.29,-90.08 685.11,-81.23 675.04,-84.52 679.29,-90.08"/>
</g>
<!-- Node11 -->
<g id="node11" class="node">
<title>Node11</title>
<g id="a_node11"><a xlink:href="_additional_parameters_8h.html" target="_top" xlink:title=" ">
<polygon fill="white" stroke="black" points="1288.39,-129 1288.39,-148 1406.39,-148 1406.39,-129 1288.39,-129"/>
<text text-anchor="middle" x="1347.39" y="-136" font-family="Helvetica,sans-Serif" font-size="10.00">AdditionalParameters.h</text>
</a>
</g>
</g>
<!-- Node3&#45;&gt;Node11 -->
<g id="edge10" class="edge">
<title>Node3&#45;&gt;Node11</title>
<path fill="none" stroke="midnightblue" d="M566.08,-197.5C593.07,-194.95 624.14,-192.17 652.39,-190 913.88,-169.94 980.39,-179.79 1241.39,-154 1254.07,-152.75 1267.58,-151.12 1280.55,-149.42"/>
<polygon fill="midnightblue" stroke="midnightblue" points="1281.37,-152.84 1290.82,-148.04 1280.44,-145.9 1281.37,-152.84"/>
</g>
<!-- Node15 -->
<g id="node15" class="node">
<title>Node15</title>
<g id="a_node15"><a xlink:href="_old_camera_8h.html" target="_top" xlink:title=" ">
<polygon fill="white" stroke="black" points="440.89,-123.5 440.89,-153.5 549.89,-153.5 549.89,-123.5 440.89,-123.5"/>
<text text-anchor="start" x="448.89" y="-141.5" font-family="Helvetica,sans-Serif" font-size="10.00">kryne&#45;engine/Camera</text>
<text text-anchor="middle" x="495.39" y="-130.5" font-family="Helvetica,sans-Serif" font-size="10.00">/OldCamera.h</text>
</a>
</g>
</g>
<!-- Node3&#45;&gt;Node15 -->
<g id="edge14" class="edge">
<title>Node3&#45;&gt;Node15</title>
<path fill="none" stroke="midnightblue" d="M490.6,-195.73C488.87,-187.54 488.29,-174.92 488.83,-163.71"/>
<polygon fill="midnightblue" stroke="midnightblue" points="492.34,-163.85 489.71,-153.59 485.36,-163.25 492.34,-163.85"/>
</g>
<!-- Node12 -->
<g id="node12" class="node">
<title>Node12</title>
<g id="a_node12"><a xlink:title=" ">
<polygon fill="white" stroke="#bfbfbf" points="1468.89,-62 1468.89,-81 1503.89,-81 1503.89,-62 1468.89,-62"/>
<text text-anchor="middle" x="1486.39" y="-69" font-family="Helvetica,sans-Serif" font-size="10.00">map</text>
</a>
</g>
</g>
<!-- Node11&#45;&gt;Node12 -->
<g id="edge11" class="edge">
<title>Node11&#45;&gt;Node12</title>
<path fill="none" stroke="midnightblue" d="M1368.05,-128.91C1390.91,-119.27 1428.69,-102.88 1460.39,-87 1461.19,-86.59 1462.01,-86.18 1462.84,-85.75"/>
<polygon fill="midnightblue" stroke="midnightblue" points="1464.51,-88.83 1471.66,-81.01 1461.19,-82.66 1464.51,-88.83"/>
</g>
<!-- Node13 -->
<g id="node13" class="node">
<title>Node13</title>
<g id="a_node13"><a xlink:title=" ">
<polygon fill="white" stroke="#bfbfbf" points="1229.89,-62 1229.89,-81 1270.89,-81 1270.89,-62 1229.89,-62"/>
<text text-anchor="middle" x="1250.39" y="-69" font-family="Helvetica,sans-Serif" font-size="10.00">string</text>
</a>
</g>
</g>
<!-- Node11&#45;&gt;Node13 -->
<g id="edge12" class="edge">
<title>Node11&#45;&gt;Node13</title>
<path fill="none" stroke="midnightblue" d="M1334.3,-128.73C1318.23,-117.96 1290.75,-99.55 1271.64,-86.74"/>
<polygon fill="midnightblue" stroke="midnightblue" points="1273.52,-83.79 1263.26,-81.13 1269.62,-89.6 1273.52,-83.79"/>
</g>
<!-- Node14 -->
<g id="node14" class="node">
<title>Node14</title>
<g id="a_node14"><a xlink:title=" ">
<polygon fill="white" stroke="#bfbfbf" points="1522.39,-62 1522.39,-81 1554.39,-81 1554.39,-62 1522.39,-62"/>
<text text-anchor="middle" x="1538.39" y="-69" font-family="Helvetica,sans-Serif" font-size="10.00">any</text>
</a>
</g>
</g>
<!-- Node11&#45;&gt;Node14 -->
<g id="edge13" class="edge">
<title>Node11&#45;&gt;Node14</title>
<path fill="none" stroke="midnightblue" d="M1383.86,-128.99C1418.08,-120.4 1470.3,-105.75 1513.39,-87 1514.23,-86.63 1515.08,-86.24 1515.94,-85.84"/>
<polygon fill="midnightblue" stroke="midnightblue" points="1517.74,-88.84 1524.93,-81.06 1514.45,-82.66 1517.74,-88.84"/>
</g>
<!-- Node15&#45;&gt;Node3 -->
<g id="edge23" class="edge">
<title>Node15&#45;&gt;Node3</title>
<path fill="none" stroke="midnightblue" d="M501.06,-153.59C502.3,-163 502.47,-175.49 501.57,-185.74"/>
<polygon fill="midnightblue" stroke="midnightblue" points="498.09,-185.35 500.17,-195.73 505.02,-186.31 498.09,-185.35"/>
</g>
<!-- Node15&#45;&gt;Node4 -->
<g id="edge15" class="edge">
<title>Node15&#45;&gt;Node4</title>
<path fill="none" stroke="midnightblue" d="M440.66,-124.65C437.53,-124.05 434.42,-123.5 431.39,-123 278.39,-97.83 233.53,-129.37 84.39,-87 82.51,-86.47 80.6,-85.82 78.71,-85.1"/>
<polygon fill="midnightblue" stroke="midnightblue" points="80.12,-81.9 69.55,-81.09 77.31,-88.31 80.12,-81.9"/>
</g>
<!-- Node15&#45;&gt;Node9 -->
<g id="edge18" class="edge">
<title>Node15&#45;&gt;Node9</title>
<path fill="none" stroke="midnightblue" d="M519.69,-123.4C538.73,-112.34 565.07,-97.06 583.9,-86.13"/>
<polygon fill="midnightblue" stroke="midnightblue" points="585.84,-89.05 592.73,-81.01 582.32,-83 585.84,-89.05"/>
</g>
<!-- Node15&#45;&gt;Node10 -->
<g id="edge19" class="edge">
<title>Node15&#45;&gt;Node10</title>
<path fill="none" stroke="midnightblue" d="M539,-123.4C575.36,-111.64 626.53,-95.09 660.54,-84.09"/>
<polygon fill="midnightblue" stroke="midnightblue" points="661.64,-87.41 670.08,-81.01 659.49,-80.75 661.64,-87.41"/>
</g>
<!-- Node16 -->
<g id="node16" class="node">
<title>Node16</title>
<g id="a_node16"><a xlink:title=" ">
<polygon fill="white" stroke="#bfbfbf" points="343.39,-62 343.39,-81 395.39,-81 395.39,-62 343.39,-62"/>
<text text-anchor="middle" x="369.39" y="-69" font-family="Helvetica,sans-Serif" font-size="10.00">stdarg.h</text>
</a>
</g>
</g>
<!-- Node15&#45;&gt;Node16 -->
<g id="edge16" class="edge">
<title>Node15&#45;&gt;Node16</title>
<path fill="none" stroke="midnightblue" d="M468.05,-123.4C446.33,-112.19 416.18,-96.64 394.95,-85.69"/>
<polygon fill="midnightblue" stroke="midnightblue" points="396.37,-82.48 385.88,-81.01 393.16,-88.7 396.37,-82.48"/>
</g>
<!-- Node17 -->
<g id="node17" class="node">
<title>Node17</title>
<g id="a_node17"><a xlink:title=" ">
<polygon fill="white" stroke="#bfbfbf" points="277.39,-62 277.39,-81 325.39,-81 325.39,-62 277.39,-62"/>
<text text-anchor="middle" x="301.39" y="-69" font-family="Helvetica,sans-Serif" font-size="10.00">stdlib.h</text>
</a>
</g>
</g>
<!-- Node15&#45;&gt;Node17 -->
<g id="edge17" class="edge">
<title>Node15&#45;&gt;Node17</title>
<path fill="none" stroke="midnightblue" d="M445.58,-123.42C413.53,-113.98 371.14,-100.79 334.39,-87 332.77,-86.4 331.13,-85.75 329.47,-85.09"/>
<polygon fill="midnightblue" stroke="midnightblue" points="330.66,-81.79 320.09,-81.14 327.95,-88.24 330.66,-81.79"/>
</g>
<!-- Node18 -->
<g id="node18" class="node">
<title>Node18</title>
<g id="a_node18"><a xlink:title=" ">
<polygon fill="white" stroke="#bfbfbf" points="185.39,-62 185.39,-81 259.39,-81 259.39,-62 185.39,-62"/>
<text text-anchor="middle" x="222.39" y="-69" font-family="Helvetica,sans-Serif" font-size="10.00">glm/vec3.hpp</text>
</a>
</g>
</g>
<!-- Node15&#45;&gt;Node18 -->
<g id="edge20" class="edge">
<title>Node15&#45;&gt;Node18</title>
<path fill="none" stroke="midnightblue" d="M440.58,-125.06C437.47,-124.36 434.39,-123.67 431.39,-123 358.99,-106.8 340.06,-106.17 268.39,-87 264.97,-86.09 261.42,-85.08 257.88,-84.03"/>
<polygon fill="midnightblue" stroke="midnightblue" points="258.64,-80.6 248.06,-81.03 256.6,-87.3 258.64,-80.6"/>
</g>
<!-- Node19 -->
<g id="node19" class="node">
<title>Node19</title>
<g id="a_node19"><a xlink:title=" ">
<polygon fill="white" stroke="#bfbfbf" points="753.39,-62 753.39,-81 839.39,-81 839.39,-62 753.39,-62"/>
<text text-anchor="middle" x="796.39" y="-69" font-family="Helvetica,sans-Serif" font-size="10.00">glm/mat4x4.hpp</text>
</a>
</g>
</g>
<!-- Node15&#45;&gt;Node19 -->
<g id="edge21" class="edge">
<title>Node15&#45;&gt;Node19</title>
<path fill="none" stroke="midnightblue" d="M550.04,-127.59C600.65,-118.13 677.91,-102.99 744.39,-87 748.54,-86 752.86,-84.9 757.16,-83.76"/>
<polygon fill="midnightblue" stroke="midnightblue" points="758.32,-87.07 767.06,-81.08 756.49,-80.32 758.32,-87.07"/>
</g>
<!-- Node20 -->
<g id="node20" class="node">
<title>Node20</title>
<g id="a_node20"><a xlink:title=" ">
<polygon fill="white" stroke="#bfbfbf" points="413.89,-62 413.89,-81 556.89,-81 556.89,-62 413.89,-62"/>
<text text-anchor="middle" x="485.39" y="-69" font-family="Helvetica,sans-Serif" font-size="10.00">glm/gtc/matrix_transform.hpp</text>
</a>
</g>
</g>
<!-- Node15&#45;&gt;Node20 -->
<g id="edge22" class="edge">
<title>Node15&#45;&gt;Node20</title>
<path fill="none" stroke="midnightblue" d="M493.22,-123.4C491.76,-113.96 489.84,-101.45 488.26,-91.19"/>
<polygon fill="midnightblue" stroke="midnightblue" points="491.7,-90.55 486.72,-81.19 484.78,-91.61 491.7,-90.55"/>
</g>
<!-- Node21&#45;&gt;Node2 -->
<g id="edge26" class="edge">
<title>Node21&#45;&gt;Node2</title>
<path fill="none" stroke="midnightblue" d="M643.06,-354.58C644.09,-362.41 644.38,-372.37 643.93,-381.4"/>
<polygon fill="midnightblue" stroke="midnightblue" points="640.44,-381.13 643.06,-391.4 647.42,-381.74 640.44,-381.13"/>
</g>
<!-- Node21&#45;&gt;Node6 -->
<g id="edge25" class="edge">
<title>Node21&#45;&gt;Node6</title>
<path fill="none" stroke="midnightblue" d="M631.19,-324.37C620.23,-297.22 600.32,-236.35 619.39,-190 625.29,-175.63 637.49,-163.18 648.35,-154.24"/>
<polygon fill="midnightblue" stroke="midnightblue" points="650.51,-157 656.27,-148.11 646.22,-151.46 650.51,-157"/>
</g>
<!-- Node21&#45;&gt;Node11 -->
<g id="edge60" class="edge">
<title>Node21&#45;&gt;Node11</title>
<path fill="none" stroke="midnightblue" d="M697.91,-329.89C798.78,-314.52 1006.86,-278.49 1175.39,-221 1230.32,-202.26 1290.85,-170.86 1323.43,-153"/>
<polygon fill="midnightblue" stroke="midnightblue" points="1325.17,-156.04 1332.23,-148.14 1321.78,-149.92 1325.17,-156.04"/>
</g>
<!-- Node21&#45;&gt;Node22 -->
<g id="edge27" class="edge">
<title>Node21&#45;&gt;Node22</title>
<path fill="none" stroke="midnightblue" d="M659.95,-324.4C674.67,-315.2 694.08,-303.07 710.26,-292.95"/>
<polygon fill="midnightblue" stroke="midnightblue" points="712.24,-295.84 718.86,-287.58 708.53,-289.91 712.24,-295.84"/>
</g>
<!-- Node22&#45;&gt;Node9 -->
<g id="edge28" class="edge">
<title>Node22&#45;&gt;Node9</title>
<path fill="none" stroke="midnightblue" d="M697.16,-257.44C680.04,-249.59 662.22,-237.89 652.39,-221 645.45,-209.09 646.1,-202.26 652.39,-190 664.87,-165.63 689.9,-178.37 702.39,-154 708.67,-141.74 709.48,-134.81 702.39,-123 695.17,-110.99 663.76,-95.7 639.01,-85.11"/>
<polygon fill="midnightblue" stroke="midnightblue" points="640.15,-81.8 629.58,-81.16 637.45,-88.25 640.15,-81.8"/>
</g>
<!-- Node22&#45;&gt;Node10 -->
<g id="edge29" class="edge">
<title>Node22&#45;&gt;Node10</title>
<path fill="none" stroke="midnightblue" d="M801.92,-264.93C830.06,-258.5 861.06,-245.85 878.39,-221 886.27,-209.7 884.98,-202.1 878.39,-190 847.86,-133.96 777.85,-100.59 734.11,-84.46"/>
<polygon fill="midnightblue" stroke="midnightblue" points="735.25,-81.15 724.66,-81.09 732.9,-87.74 735.25,-81.15"/>
</g>
<!-- Node22&#45;&gt;Node11 -->
<g id="edge58" class="edge">
<title>Node22&#45;&gt;Node11</title>
<path fill="none" stroke="midnightblue" d="M801.99,-267.02C876.19,-260.69 1005.32,-246.88 1113.39,-221 1188.68,-202.97 1273.77,-170.01 1317.66,-152.02"/>
<polygon fill="midnightblue" stroke="midnightblue" points="1319.23,-155.16 1327.14,-148.11 1316.56,-148.69 1319.23,-155.16"/>
</g>
<!-- Node22&#45;&gt;Node19 -->
<g id="edge30" class="edge">
<title>Node22&#45;&gt;Node19</title>
<path fill="none" stroke="midnightblue" d="M802.15,-268.19C835.46,-262.89 874.17,-250.28 895.39,-221 930.22,-172.91 857.43,-113.61 818.62,-86.82"/>
<polygon fill="midnightblue" stroke="midnightblue" points="820.26,-83.71 810.01,-81.03 816.36,-89.52 820.26,-83.71"/>
</g>
<!-- Node23 -->
<g id="node23" class="node">
<title>Node23</title>
<g id="a_node23"><a xlink:title=" ">
<polygon fill="white" stroke="#bfbfbf" points="783.39,-196 783.39,-215 869.39,-215 869.39,-196 783.39,-196"/>
<text text-anchor="middle" x="826.39" y="-203" font-family="Helvetica,sans-Serif" font-size="10.00">glm/mat3x3.hpp</text>
</a>
</g>
</g>
<!-- Node22&#45;&gt;Node23 -->
<g id="edge31" class="edge">
<title>Node22&#45;&gt;Node23</title>
<path fill="none" stroke="midnightblue" d="M759.83,-257.4C773.74,-246.76 792.77,-232.2 806.93,-221.38"/>
<polygon fill="midnightblue" stroke="midnightblue" points="809.2,-224.05 815.02,-215.19 804.95,-218.49 809.2,-224.05"/>
</g>
<!-- Node24 -->
<g id="node24" class="node">
<title>Node24</title>
<g id="a_node24"><a xlink:href="_shader_8h.html" target="_top" xlink:title=" ">
<polygon fill="white" stroke="black" points="994.39,-190.5 994.39,-220.5 1104.39,-220.5 1104.39,-190.5 994.39,-190.5"/>
<text text-anchor="start" x="1002.39" y="-208.5" font-family="Helvetica,sans-Serif" font-size="10.00">kryne&#45;engine/Material</text>
<text text-anchor="middle" x="1049.39" y="-197.5" font-family="Helvetica,sans-Serif" font-size="10.00">/Shader.h</text>
</a>
</g>
</g>
<!-- Node22&#45;&gt;Node24 -->
<g id="edge32" class="edge">
<title>Node22&#45;&gt;Node24</title>
<path fill="none" stroke="midnightblue" d="M802.24,-258.66C854.78,-247.57 930.48,-231.59 984.24,-220.25"/>
<polygon fill="midnightblue" stroke="midnightblue" points="985.28,-223.6 994.35,-218.12 983.84,-216.76 985.28,-223.6"/>
</g>
<!-- Node33 -->
<g id="node33" class="node">
<title>Node33</title>
<g id="a_node33"><a xlink:href="_vertex_array_8h.html" target="_top" xlink:title=" ">
<polygon fill="white" stroke="black" points="295.89,-123.5 295.89,-153.5 422.89,-153.5 422.89,-123.5 295.89,-123.5"/>
<text text-anchor="start" x="303.89" y="-141.5" font-family="Helvetica,sans-Serif" font-size="10.00">kryne&#45;engine/Core/Vertex</text>
<text text-anchor="middle" x="359.39" y="-130.5" font-family="Helvetica,sans-Serif" font-size="10.00">Array.h</text>
</a>
</g>
</g>
<!-- Node22&#45;&gt;Node33 -->
<g id="edge50" class="edge">
<title>Node22&#45;&gt;Node33</title>
<path fill="none" stroke="midnightblue" d="M680.71,-267.82C598.9,-261.91 458.48,-248.09 415.39,-221 393.6,-207.31 378.13,-181.71 369.05,-162.85"/>
<polygon fill="midnightblue" stroke="midnightblue" points="372.21,-161.34 364.88,-153.69 365.84,-164.24 372.21,-161.34"/>
</g>
<!-- Node35 -->
<g id="node35" class="node">
<title>Node35</title>
<g id="a_node35"><a xlink:href="enums_2_base_object_8h.html" target="_top" xlink:title=" ">
<polygon fill="white" stroke="black" points="661.39,-190.5 661.39,-220.5 765.39,-220.5 765.39,-190.5 661.39,-190.5"/>
<text text-anchor="start" x="669.39" y="-208.5" font-family="Helvetica,sans-Serif" font-size="10.00">kryne&#45;engine/enums</text>
<text text-anchor="middle" x="713.39" y="-197.5" font-family="Helvetica,sans-Serif" font-size="10.00">/BaseObject.h</text>
</a>
</g>
</g>
<!-- Node22&#45;&gt;Node35 -->
<g id="edge59" class="edge">
<title>Node22&#45;&gt;Node35</title>
<path fill="none" stroke="midnightblue" d="M735.31,-257.4C731.86,-249.39 727.46,-239.16 723.5,-229.98"/>
<polygon fill="midnightblue" stroke="midnightblue" points="726.62,-228.38 719.45,-220.58 720.19,-231.15 726.62,-228.38"/>
</g>
<!-- Node24&#45;&gt;Node12 -->
<g id="edge33" class="edge">
<title>Node24&#45;&gt;Node12</title>
<path fill="none" stroke="midnightblue" d="M1104.59,-196.43C1144.23,-189.12 1198.07,-176.04 1241.39,-154 1260.81,-144.11 1259.67,-132.29 1279.39,-123 1353.58,-88.04 1383.41,-115.32 1460.39,-87 1461.59,-86.56 1462.8,-86.07 1464.01,-85.54"/>
<polygon fill="midnightblue" stroke="midnightblue" points="1465.65,-88.63 1473.01,-81.01 1462.5,-82.38 1465.65,-88.63"/>
</g>
<!-- Node25 -->
<g id="node25" class="node">
<title>Node25</title>
<g id="a_node25"><a xlink:title=" ">
<polygon fill="white" stroke="#bfbfbf" points="963.39,-129 963.39,-148 1015.39,-148 1015.39,-129 963.39,-129"/>
<text text-anchor="middle" x="989.39" y="-136" font-family="Helvetica,sans-Serif" font-size="10.00">sstream</text>
</a>
</g>
</g>
<!-- Node24&#45;&gt;Node25 -->
<g id="edge34" class="edge">
<title>Node24&#45;&gt;Node25</title>
<path fill="none" stroke="midnightblue" d="M1036.37,-190.4C1026.92,-180.16 1014.12,-166.3 1004.27,-155.62"/>
<polygon fill="midnightblue" stroke="midnightblue" points="1006.77,-153.17 997.41,-148.19 1001.62,-157.92 1006.77,-153.17"/>
</g>
<!-- Node26 -->
<g id="node26" class="node">
<title>Node26</title>
<g id="a_node26"><a xlink:href="_uniforms_handler_8h.html" target="_top" xlink:title=" ">
<polygon fill="white" stroke="black" points="1033.39,-129 1033.39,-148 1129.39,-148 1129.39,-129 1033.39,-129"/>
<text text-anchor="middle" x="1081.39" y="-136" font-family="Helvetica,sans-Serif" font-size="10.00">UniformsHandler.h</text>
</a>
</g>
</g>
<!-- Node24&#45;&gt;Node26 -->
<g id="edge35" class="edge">
<title>Node24&#45;&gt;Node26</title>
<path fill="none" stroke="midnightblue" d="M1056.33,-190.4C1061.12,-180.66 1067.53,-167.65 1072.67,-157.21"/>
<polygon fill="midnightblue" stroke="midnightblue" points="1075.83,-158.71 1077.11,-148.19 1069.55,-155.62 1075.83,-158.71"/>
</g>
<!-- Node30 -->
<g id="node30" class="node">
<title>Node30</title>
<g id="a_node30"><a xlink:href="_shader_chunk_8h.html" target="_top" xlink:title=" ">
<polygon fill="white" stroke="black" points="1148.89,-129 1148.89,-148 1231.89,-148 1231.89,-129 1148.89,-129"/>
<text text-anchor="middle" x="1190.39" y="-136" font-family="Helvetica,sans-Serif" font-size="10.00">ShaderChunk.h</text>
</a>
</g>
</g>
<!-- Node24&#45;&gt;Node30 -->
<g id="edge43" class="edge">
<title>Node24&#45;&gt;Node30</title>
<path fill="none" stroke="midnightblue" d="M1079.98,-190.4C1104.61,-179.04 1138.93,-163.22 1162.74,-152.24"/>
<polygon fill="midnightblue" stroke="midnightblue" points="1164.32,-155.37 1171.93,-148.01 1161.39,-149.02 1164.32,-155.37"/>
</g>
<!-- Node26&#45;&gt;Node9 -->
<g id="edge38" class="edge">
<title>Node26&#45;&gt;Node9</title>
<path fill="none" stroke="midnightblue" d="M1051.4,-128.95C1042.74,-126.74 1033.24,-124.54 1024.39,-123 859,-94.22 812.3,-123.26 648.39,-87 644.96,-86.24 641.44,-85.28 637.95,-84.22"/>
<polygon fill="midnightblue" stroke="midnightblue" points="638.97,-80.87 628.38,-81.03 636.76,-87.51 638.97,-80.87"/>
</g>
<!-- Node26&#45;&gt;Node10 -->
<g id="edge39" class="edge">
<title>Node26&#45;&gt;Node10</title>
<path fill="none" stroke="midnightblue" d="M1050.77,-128.99C1042.27,-126.82 1033.01,-124.65 1024.39,-123 901.14,-99.49 867.08,-113.23 744.39,-87 740.22,-86.11 735.89,-85.03 731.62,-83.86"/>
<polygon fill="midnightblue" stroke="midnightblue" points="732.42,-80.45 721.84,-81.04 730.48,-87.18 732.42,-80.45"/>
</g>
<!-- Node26&#45;&gt;Node13 -->
<g id="edge36" class="edge">
<title>Node26&#45;&gt;Node13</title>
<path fill="none" stroke="midnightblue" d="M1103.83,-128.87C1133.69,-117.38 1186.6,-97.03 1220.01,-84.18"/>
<polygon fill="midnightblue" stroke="midnightblue" points="1221.63,-87.31 1229.71,-80.45 1219.12,-80.78 1221.63,-87.31"/>
</g>
<!-- Node26&#45;&gt;Node19 -->
<g id="edge40" class="edge">
<title>Node26&#45;&gt;Node19</title>
<path fill="none" stroke="midnightblue" d="M1048.9,-128.95C1040.9,-126.93 1032.35,-124.83 1024.39,-123 946.56,-105.15 926,-105.73 848.39,-87 844.23,-86 839.91,-84.89 835.62,-83.75"/>
<polygon fill="midnightblue" stroke="midnightblue" points="836.29,-80.31 825.72,-81.07 834.45,-87.06 836.29,-80.31"/>
</g>
<!-- Node27 -->
<g id="node27" class="node">
<title>Node27</title>
<g id="a_node27"><a xlink:title=" ">
<polygon fill="white" stroke="#bfbfbf" points="1089.89,-62 1089.89,-81 1172.89,-81 1172.89,-62 1089.89,-62"/>
<text text-anchor="middle" x="1131.39" y="-69" font-family="Helvetica,sans-Serif" font-size="10.00">unordered_map</text>
</a>
</g>
</g>
<!-- Node26&#45;&gt;Node27 -->
<g id="edge37" class="edge">
<title>Node26&#45;&gt;Node27</title>
<path fill="none" stroke="midnightblue" d="M1088.13,-128.73C1095.93,-118.6 1108.93,-101.69 1118.65,-89.06"/>
<polygon fill="midnightblue" stroke="midnightblue" points="1121.43,-91.19 1124.75,-81.13 1115.88,-86.92 1121.43,-91.19"/>
</g>
<!-- Node28 -->
<g id="node28" class="node">
<title>Node28</title>
<g id="a_node28"><a xlink:title=" ">
<polygon fill="white" stroke="#bfbfbf" points="965.39,-62 965.39,-81 1071.39,-81 1071.39,-62 965.39,-62"/>
<text text-anchor="middle" x="1018.39" y="-69" font-family="Helvetica,sans-Serif" font-size="10.00">glm/gtc/type_ptr.hpp</text>
</a>
</g>
</g>
<!-- Node26&#45;&gt;Node28 -->
<g id="edge41" class="edge">
<title>Node26&#45;&gt;Node28</title>
<path fill="none" stroke="midnightblue" d="M1072.89,-128.73C1062.88,-118.4 1046.04,-101.04 1033.73,-88.33"/>
<polygon fill="midnightblue" stroke="midnightblue" points="1036.22,-85.87 1026.75,-81.13 1031.19,-90.74 1036.22,-85.87"/>
</g>
<!-- Node29 -->
<g id="node29" class="node">
<title>Node29</title>
<g id="a_node29"><a xlink:title=" ">
<polygon fill="white" stroke="#bfbfbf" points="857.39,-62 857.39,-81 947.39,-81 947.39,-62 857.39,-62"/>
<text text-anchor="middle" x="902.39" y="-69" font-family="Helvetica,sans-Serif" font-size="10.00">boost/variant.hpp</text>
</a>
</g>
</g>
<!-- Node26&#45;&gt;Node29 -->
<g id="edge42" class="edge">
<title>Node26&#45;&gt;Node29</title>
<path fill="none" stroke="midnightblue" d="M1057.62,-128.87C1026.24,-117.47 970.83,-97.35 935.4,-84.49"/>
<polygon fill="midnightblue" stroke="midnightblue" points="936.56,-81.19 925.97,-81.06 934.17,-87.77 936.56,-81.19"/>
</g>
<!-- Node30&#45;&gt;Node8 -->
<g id="edge47" class="edge">
<title>Node30&#45;&gt;Node8</title>
<path fill="none" stroke="midnightblue" d="M1191.14,-128.81C1192.91,-108.49 1197.34,-57.55 1199.75,-29.78"/>
<polygon fill="midnightblue" stroke="midnightblue" points="1203.25,-30.02 1200.62,-19.76 1196.27,-29.41 1203.25,-30.02"/>
</g>
<!-- Node30&#45;&gt;Node13 -->
<g id="edge45" class="edge">
<title>Node30&#45;&gt;Node13</title>
<path fill="none" stroke="midnightblue" d="M1198.48,-128.73C1207.92,-118.5 1223.74,-101.36 1235.44,-88.69"/>
<polygon fill="midnightblue" stroke="midnightblue" points="1238.21,-90.85 1242.42,-81.13 1233.07,-86.1 1238.21,-90.85"/>
</g>
<!-- Node30&#45;&gt;Node27 -->
<g id="edge44" class="edge">
<title>Node30&#45;&gt;Node27</title>
<path fill="none" stroke="midnightblue" d="M1182.43,-128.73C1173.14,-118.5 1157.59,-101.36 1146.08,-88.69"/>
<polygon fill="midnightblue" stroke="midnightblue" points="1148.53,-86.18 1139.22,-81.13 1143.35,-90.88 1148.53,-86.18"/>
</g>
<!-- Node31 -->
<g id="node31" class="node">
<title>Node31</title>
<g id="a_node31"><a xlink:title=" ">
<polygon fill="white" stroke="#bfbfbf" points="1401.89,-62 1401.89,-81 1450.89,-81 1450.89,-62 1401.89,-62"/>
<text text-anchor="middle" x="1426.39" y="-69" font-family="Helvetica,sans-Serif" font-size="10.00">fstream</text>
</a>
</g>
</g>
<!-- Node30&#45;&gt;Node31 -->
<g id="edge46" class="edge">
<title>Node30&#45;&gt;Node31</title>
<path fill="none" stroke="midnightblue" d="M1222.94,-128.99C1230.62,-127.01 1238.79,-124.91 1246.39,-123 1311.61,-106.57 1329.69,-108.61 1393.39,-87 1395.25,-86.37 1397.16,-85.67 1399.07,-84.93"/>
<polygon fill="midnightblue" stroke="midnightblue" points="1400.55,-88.11 1408.45,-81.05 1397.88,-81.64 1400.55,-88.11"/>
</g>
<!-- Node32 -->
<g id="node32" class="node">
<title>Node32</title>
<g id="a_node32"><a xlink:href="_string_utils_8hpp.html" target="_top" xlink:title=" ">
<polygon fill="white" stroke="black" points="1288.89,-56.5 1288.89,-86.5 1383.89,-86.5 1383.89,-56.5 1288.89,-56.5"/>
<text text-anchor="start" x="1296.89" y="-74.5" font-family="Helvetica,sans-Serif" font-size="10.00">kryne&#45;engine/Utils</text>
<text text-anchor="middle" x="1336.39" y="-63.5" font-family="Helvetica,sans-Serif" font-size="10.00">/StringUtils.hpp</text>
</a>
</g>
</g>
<!-- Node30&#45;&gt;Node32 -->
<g id="edge48" class="edge">
<title>Node30&#45;&gt;Node32</title>
<path fill="none" stroke="midnightblue" d="M1209.77,-128.87C1231.59,-119.16 1267.63,-103.11 1295.7,-90.61"/>
<polygon fill="midnightblue" stroke="midnightblue" points="1297.16,-93.79 1304.88,-86.53 1294.32,-87.4 1297.16,-93.79"/>
</g>
<!-- Node32&#45;&gt;Node8 -->
<g id="edge49" class="edge">
<title>Node32&#45;&gt;Node8</title>
<path fill="none" stroke="midnightblue" d="M1304.39,-56.4C1281.94,-46.51 1252.17,-33.38 1230.41,-23.79"/>
<polygon fill="midnightblue" stroke="midnightblue" points="1231.59,-20.49 1221.03,-19.66 1228.77,-26.89 1231.59,-20.49"/>
</g>
<!-- Node33&#45;&gt;Node4 -->
<g id="edge51" class="edge">
<title>Node33&#45;&gt;Node4</title>
<path fill="none" stroke="midnightblue" d="M295.54,-125.61C290.75,-124.73 285.99,-123.85 281.39,-123 193.85,-106.87 169,-114.62 84.39,-87 82.76,-86.47 81.11,-85.87 79.46,-85.22"/>
<polygon fill="midnightblue" stroke="midnightblue" points="80.81,-81.99 70.25,-81.15 77.98,-88.39 80.81,-81.99"/>
</g>
<!-- Node33&#45;&gt;Node9 -->
<g id="edge54" class="edge">
<title>Node33&#45;&gt;Node9</title>
<path fill="none" stroke="midnightblue" d="M422.9,-123.52C463.83,-114.12 518.05,-100.94 565.39,-87 568.33,-86.13 571.36,-85.19 574.4,-84.21"/>
<polygon fill="midnightblue" stroke="midnightblue" points="575.59,-87.5 583.96,-81.01 573.37,-80.86 575.59,-87.5"/>
</g>
<!-- Node33&#45;&gt;Node10 -->
<g id="edge55" class="edge">
<title>Node33&#45;&gt;Node10</title>
<path fill="none" stroke="midnightblue" d="M422.97,-124.57C425.81,-124.03 428.63,-123.51 431.39,-123 527.54,-105.35 553.17,-109.18 648.39,-87 652.33,-86.08 656.42,-85.02 660.48,-83.89"/>
<polygon fill="midnightblue" stroke="midnightblue" points="661.76,-87.17 670.39,-81.02 659.81,-80.44 661.76,-87.17"/>
</g>
<!-- Node33&#45;&gt;Node16 -->
<g id="edge52" class="edge">
<title>Node33&#45;&gt;Node16</title>
<path fill="none" stroke="midnightblue" d="M361.56,-123.4C363.01,-113.96 364.93,-101.45 366.51,-91.19"/>
<polygon fill="midnightblue" stroke="midnightblue" points="369.99,-91.61 368.05,-81.19 363.07,-90.55 369.99,-91.61"/>
</g>
<!-- Node33&#45;&gt;Node17 -->
<g id="edge53" class="edge">
<title>Node33&#45;&gt;Node17</title>
<path fill="none" stroke="midnightblue" d="M346.8,-123.4C337.76,-113.26 325.54,-99.57 316.05,-88.94"/>
<polygon fill="midnightblue" stroke="midnightblue" points="318.41,-86.33 309.14,-81.19 313.19,-90.99 318.41,-86.33"/>
</g>
<!-- Node33&#45;&gt;Node18 -->
<g id="edge57" class="edge">
<title>Node33&#45;&gt;Node18</title>
<path fill="none" stroke="midnightblue" d="M329.66,-123.4C305.83,-112.09 272.68,-96.36 249.55,-85.39"/>
<polygon fill="midnightblue" stroke="midnightblue" points="250.85,-82.13 240.32,-81.01 247.85,-88.46 250.85,-82.13"/>
</g>
<!-- Node34 -->
<g id="node34" class="node">
<title>Node34</title>
<g id="a_node34"><a xlink:title=" ">
<polygon fill="white" stroke="#bfbfbf" points="93.39,-62 93.39,-81 167.39,-81 167.39,-62 93.39,-62"/>
<text text-anchor="middle" x="130.39" y="-69" font-family="Helvetica,sans-Serif" font-size="10.00">glm/vec2.hpp</text>
</a>
</g>
</g>
<!-- Node33&#45;&gt;Node34 -->
<g id="edge56" class="edge">
<title>Node33&#45;&gt;Node34</title>
<path fill="none" stroke="midnightblue" d="M306.39,-123.42C269.77,-113.56 220,-99.89 176.39,-87 173.25,-86.07 170.01,-85.09 166.76,-84.1"/>
<polygon fill="midnightblue" stroke="midnightblue" points="167.68,-80.72 157.09,-81.1 165.61,-87.41 167.68,-80.72"/>
</g>
<!-- Node36&#45;&gt;Node4 -->
<g id="edge64" class="edge">
<title>Node36&#45;&gt;Node4</title>
<path fill="none" stroke="midnightblue" d="M211.34,-264.42C180.37,-257.73 140.88,-244.97 113.39,-221 74.09,-186.74 60.69,-122.76 56.35,-91.15"/>
<polygon fill="midnightblue" stroke="midnightblue" points="59.81,-90.59 55.12,-81.09 52.86,-91.44 59.81,-90.59"/>
</g>
<!-- Node36&#45;&gt;Node18 -->
<g id="edge63" class="edge">
<title>Node36&#45;&gt;Node18</title>
<path fill="none" stroke="midnightblue" d="M220.42,-257.45C179.1,-240.21 116.06,-206.6 88.39,-154 81.97,-141.81 80.55,-134.33 88.39,-123 91.38,-118.67 149.06,-97.97 187.76,-84.45"/>
<polygon fill="midnightblue" stroke="midnightblue" points="189.34,-87.61 197.63,-81.01 187.03,-81 189.34,-87.61"/>
</g>
<!-- Node36&#45;&gt;Node24 -->
<g id="edge65" class="edge">
<title>Node36&#45;&gt;Node24</title>
<path fill="none" stroke="midnightblue" d="M307.55,-267.62C411.69,-259.23 665.63,-238.7 878.39,-221 913.35,-218.09 952.33,-214.79 984.23,-212.07"/>
<polygon fill="midnightblue" stroke="midnightblue" points="984.66,-215.55 994.33,-211.21 984.07,-208.58 984.66,-215.55"/>
</g>
</g>
</svg>
