<?xml version="1.0" encoding="UTF-8" standalone="no"?>
<!DOCTYPE svg PUBLIC "-//W3C//DTD SVG 1.1//EN"
 "http://www.w3.org/Graphics/SVG/1.1/DTD/svg11.dtd">
<!-- Generated by graphviz version 2.44.1 (20200629.0846)
 -->
<!-- Title: kryne&#45;engine/src/Light/DirectionalLight.cpp Pages: 1 -->
<svg width="1210pt" height="643pt"
 viewBox="0.00 0.00 1210.00 643.00" xmlns="http://www.w3.org/2000/svg" xmlns:xlink="http://www.w3.org/1999/xlink">
<g id="graph0" class="graph" transform="scale(1 1) rotate(0) translate(4 639)">
<title>kryne&#45;engine/src/Light/DirectionalLight.cpp</title>
<polygon fill="white" stroke="transparent" points="-4,4 -4,-639 1206,-639 1206,4 -4,4"/>
<!-- Node1 -->
<g id="node1" class="node">
<title>Node1</title>
<g id="a_node1"><a xlink:title=" ">
<polygon fill="#bfbfbf" stroke="black" points="674.5,-604.5 674.5,-634.5 787.5,-634.5 787.5,-604.5 674.5,-604.5"/>
<text text-anchor="start" x="682.5" y="-622.5" font-family="Helvetica,sans-Serif" font-size="10.00">kryne&#45;engine/src/Light</text>
<text text-anchor="middle" x="731" y="-611.5" font-family="Helvetica,sans-Serif" font-size="10.00">/DirectionalLight.cpp</text>
</a>
</g>
</g>
<!-- Node2 -->
<g id="node2" class="node">
<title>Node2</title>
<g id="a_node2"><a xlink:href="_directional_light_8h.html" target="_top" xlink:title=" ">
<polygon fill="white" stroke="black" points="640,-537.5 640,-567.5 736,-567.5 736,-537.5 640,-537.5"/>
<text text-anchor="start" x="648" y="-555.5" font-family="Helvetica,sans-Serif" font-size="10.00">kryne&#45;engine/Light</text>
<text text-anchor="middle" x="688" y="-544.5" font-family="Helvetica,sans-Serif" font-size="10.00">/DirectionalLight.h</text>
</a>
</g>
</g>
<!-- Node1&#45;&gt;Node2 -->
<g id="edge1" class="edge">
<title>Node1&#45;&gt;Node2</title>
<path fill="none" stroke="midnightblue" d="M721.67,-604.4C716.2,-596.13 709.17,-585.51 702.95,-576.1"/>
<polygon fill="midnightblue" stroke="midnightblue" points="705.75,-573.99 697.31,-567.58 699.91,-577.85 705.75,-573.99"/>
</g>
<!-- Node41 -->
<g id="node41" class="node">
<title>Node41</title>
<g id="a_node41"><a xlink:title=" ">
<polygon fill="white" stroke="#bfbfbf" points="754,-543 754,-562 794,-562 794,-543 754,-543"/>
<text text-anchor="middle" x="774" y="-550" font-family="Helvetica,sans-Serif" font-size="10.00">utility</text>
</a>
</g>
</g>
<!-- Node1&#45;&gt;Node41 -->
<g id="edge53" class="edge">
<title>Node1&#45;&gt;Node41</title>
<path fill="none" stroke="midnightblue" d="M740.33,-604.4C746.9,-594.46 755.74,-581.11 762.71,-570.57"/>
<polygon fill="midnightblue" stroke="midnightblue" points="765.65,-572.47 768.25,-562.19 759.81,-568.6 765.65,-572.47"/>
</g>
<!-- Node3 -->
<g id="node3" class="node">
<title>Node3</title>
<g id="a_node3"><a xlink:title=" ">
<polygon fill="white" stroke="#bfbfbf" points="0,-286 0,-305 74,-305 74,-286 0,-286"/>
<text text-anchor="middle" x="37" y="-293" font-family="Helvetica,sans-Serif" font-size="10.00">glm/vec3.hpp</text>
</a>
</g>
</g>
<!-- Node2&#45;&gt;Node3 -->
<g id="edge2" class="edge">
<title>Node2&#45;&gt;Node3</title>
<path fill="none" stroke="midnightblue" d="M639.8,-547.85C547.83,-539.27 342.94,-512.23 191,-434 130.64,-402.92 75.3,-342.56 50.59,-313.26"/>
<polygon fill="midnightblue" stroke="midnightblue" points="53.01,-310.7 43.93,-305.23 47.62,-315.17 53.01,-310.7"/>
</g>
<!-- Node4 -->
<g id="node4" class="node">
<title>Node4</title>
<g id="a_node4"><a xlink:title=" ">
<polygon fill="white" stroke="#bfbfbf" points="1160,-224.5 1160,-243.5 1202,-243.5 1202,-224.5 1160,-224.5"/>
<text text-anchor="middle" x="1181" y="-231.5" font-family="Helvetica,sans-Serif" font-size="10.00">vector</text>
</a>
</g>
</g>
<!-- Node2&#45;&gt;Node4 -->
<g id="edge3" class="edge">
<title>Node2&#45;&gt;Node4</title>
<path fill="none" stroke="midnightblue" d="M736.18,-539.23C858.6,-508 1172,-427.8 1172,-425 1172,-425 1172,-425 1172,-361.5 1172,-323.11 1176.18,-278.32 1178.84,-253.67"/>
<polygon fill="midnightblue" stroke="midnightblue" points="1182.33,-253.9 1179.97,-243.57 1175.38,-253.12 1182.33,-253.9"/>
</g>
<!-- Node5 -->
<g id="node5" class="node">
<title>Node5</title>
<g id="a_node5"><a xlink:href="_shader_8h.html" target="_top" xlink:title=" ">
<polygon fill="white" stroke="black" points="633,-470.5 633,-500.5 743,-500.5 743,-470.5 633,-470.5"/>
<text text-anchor="start" x="641" y="-488.5" font-family="Helvetica,sans-Serif" font-size="10.00">kryne&#45;engine/Material</text>
<text text-anchor="middle" x="688" y="-477.5" font-family="Helvetica,sans-Serif" font-size="10.00">/Shader.h</text>
</a>
</g>
</g>
<!-- Node2&#45;&gt;Node5 -->
<g id="edge4" class="edge">
<title>Node2&#45;&gt;Node5</title>
<path fill="none" stroke="midnightblue" d="M688,-537.4C688,-529.64 688,-519.81 688,-510.86"/>
<polygon fill="midnightblue" stroke="midnightblue" points="691.5,-510.58 688,-500.58 684.5,-510.58 691.5,-510.58"/>
</g>
<!-- Node6 -->
<g id="node6" class="node">
<title>Node6</title>
<g id="a_node6"><a xlink:title=" ">
<polygon fill="white" stroke="#bfbfbf" points="670.5,-414.5 670.5,-433.5 705.5,-433.5 705.5,-414.5 670.5,-414.5"/>
<text text-anchor="middle" x="688" y="-421.5" font-family="Helvetica,sans-Serif" font-size="10.00">map</text>
</a>
</g>
</g>
<!-- Node5&#45;&gt;Node6 -->
<g id="edge5" class="edge">
<title>Node5&#45;&gt;Node6</title>
<path fill="none" stroke="midnightblue" d="M688,-470.4C688,-462.47 688,-452.46 688,-443.86"/>
<polygon fill="midnightblue" stroke="midnightblue" points="691.5,-443.66 688,-433.66 684.5,-443.66 691.5,-443.66"/>
</g>
<!-- Node7 -->
<g id="node7" class="node">
<title>Node7</title>
<g id="a_node7"><a xlink:title=" ">
<polygon fill="white" stroke="#bfbfbf" points="724,-414.5 724,-433.5 776,-433.5 776,-414.5 724,-414.5"/>
<text text-anchor="middle" x="750" y="-421.5" font-family="Helvetica,sans-Serif" font-size="10.00">sstream</text>
</a>
</g>
</g>
<!-- Node5&#45;&gt;Node7 -->
<g id="edge6" class="edge">
<title>Node5&#45;&gt;Node7</title>
<path fill="none" stroke="midnightblue" d="M702.69,-470.4C711.98,-461.49 724,-449.95 733.6,-440.74"/>
<polygon fill="midnightblue" stroke="midnightblue" points="736.19,-443.11 740.98,-433.66 731.34,-438.06 736.19,-443.11"/>
</g>
<!-- Node8 -->
<g id="node8" class="node">
<title>Node8</title>
<g id="a_node8"><a xlink:href="_dispatcher_8h.html" target="_top" xlink:title=" ">
<polygon fill="white" stroke="black" points="92.5,-280.5 92.5,-310.5 205.5,-310.5 205.5,-280.5 92.5,-280.5"/>
<text text-anchor="start" x="100.5" y="-298.5" font-family="Helvetica,sans-Serif" font-size="10.00">kryne&#45;engine/Dispatch</text>
<text text-anchor="middle" x="149" y="-287.5" font-family="Helvetica,sans-Serif" font-size="10.00">/Dispatcher.h</text>
</a>
</g>
</g>
<!-- Node5&#45;&gt;Node8 -->
<g id="edge7" class="edge">
<title>Node5&#45;&gt;Node8</title>
<path fill="none" stroke="midnightblue" d="M632.88,-482.36C506.38,-476.17 201.31,-453.56 139,-378 125.82,-362.02 130.82,-337.93 137.61,-320.08"/>
<polygon fill="midnightblue" stroke="midnightblue" points="140.93,-321.22 141.58,-310.65 134.48,-318.51 140.93,-321.22"/>
</g>
<!-- Node22 -->
<g id="node22" class="node">
<title>Node22</title>
<g id="a_node22"><a xlink:href="_uniforms_handler_8h.html" target="_top" xlink:title=" ">
<polygon fill="white" stroke="black" points="556,-414.5 556,-433.5 652,-433.5 652,-414.5 556,-414.5"/>
<text text-anchor="middle" x="604" y="-421.5" font-family="Helvetica,sans-Serif" font-size="10.00">UniformsHandler.h</text>
</a>
</g>
</g>
<!-- Node5&#45;&gt;Node22 -->
<g id="edge23" class="edge">
<title>Node5&#45;&gt;Node22</title>
<path fill="none" stroke="midnightblue" d="M668.09,-470.4C655.01,-461.13 637.92,-449.03 624.68,-439.65"/>
<polygon fill="midnightblue" stroke="midnightblue" points="626.41,-436.58 616.22,-433.66 622.36,-442.29 626.41,-436.58"/>
</g>
<!-- Node35 -->
<g id="node35" class="node">
<title>Node35</title>
<g id="a_node35"><a xlink:href="_shader_chunk_8h.html" target="_top" xlink:title=" ">
<polygon fill="white" stroke="black" points="835.5,-414.5 835.5,-433.5 918.5,-433.5 918.5,-414.5 835.5,-414.5"/>
<text text-anchor="middle" x="877" y="-421.5" font-family="Helvetica,sans-Serif" font-size="10.00">ShaderChunk.h</text>
</a>
</g>
</g>
<!-- Node5&#45;&gt;Node35 -->
<g id="edge42" class="edge">
<title>Node5&#45;&gt;Node35</title>
<path fill="none" stroke="midnightblue" d="M732.79,-470.4C765.45,-460.12 809.18,-446.35 839.89,-436.68"/>
<polygon fill="midnightblue" stroke="midnightblue" points="841.29,-439.91 849.77,-433.57 839.19,-433.24 841.29,-439.91"/>
</g>
<!-- Node9 -->
<g id="node9" class="node">
<title>Node9</title>
<g id="a_node9"><a xlink:href="_synchronizable_pool_8h.html" target="_top" xlink:title=" ">
<polygon fill="white" stroke="black" points="178.5,-168.5 178.5,-187.5 289.5,-187.5 289.5,-168.5 178.5,-168.5"/>
<text text-anchor="middle" x="234" y="-175.5" font-family="Helvetica,sans-Serif" font-size="10.00">SynchronizablePool.h</text>
</a>
</g>
</g>
<!-- Node8&#45;&gt;Node9 -->
<g id="edge8" class="edge">
<title>Node8&#45;&gt;Node9</title>
<path fill="none" stroke="midnightblue" d="M155.91,-280.35C163.38,-265.64 176.11,-242.25 190,-224 198,-213.48 208.27,-202.86 216.87,-194.57"/>
<polygon fill="midnightblue" stroke="midnightblue" points="219.3,-197.09 224.19,-187.69 214.5,-191.99 219.3,-197.09"/>
</g>
<!-- Node20 -->
<g id="node20" class="node">
<title>Node20</title>
<g id="a_node20"><a xlink:href="_runner_pool_8h.html" target="_top" xlink:title=" ">
<polygon fill="white" stroke="black" points="85.5,-168.5 85.5,-187.5 160.5,-187.5 160.5,-168.5 85.5,-168.5"/>
<text text-anchor="middle" x="123" y="-175.5" font-family="Helvetica,sans-Serif" font-size="10.00">RunnerPool.h</text>
</a>
</g>
</g>
<!-- Node8&#45;&gt;Node20 -->
<g id="edge19" class="edge">
<title>Node8&#45;&gt;Node20</title>
<path fill="none" stroke="midnightblue" d="M145.81,-280.34C141.13,-259.53 132.38,-220.66 127.18,-197.58"/>
<polygon fill="midnightblue" stroke="midnightblue" points="130.56,-196.66 124.95,-187.67 123.73,-198.19 130.56,-196.66"/>
</g>
<!-- Node21 -->
<g id="node21" class="node">
<title>Node21</title>
<g id="a_node21"><a xlink:href="_main_pool_8h.html" target="_top" xlink:title=" ">
<polygon fill="white" stroke="black" points="199.5,-224.5 199.5,-243.5 264.5,-243.5 264.5,-224.5 199.5,-224.5"/>
<text text-anchor="middle" x="232" y="-231.5" font-family="Helvetica,sans-Serif" font-size="10.00">MainPool.h</text>
</a>
</g>
</g>
<!-- Node8&#45;&gt;Node21 -->
<g id="edge21" class="edge">
<title>Node8&#45;&gt;Node21</title>
<path fill="none" stroke="midnightblue" d="M168.67,-280.4C181.6,-271.13 198.49,-259.03 211.57,-249.65"/>
<polygon fill="midnightblue" stroke="midnightblue" points="213.83,-252.33 219.92,-243.66 209.76,-246.64 213.83,-252.33"/>
</g>
<!-- Node10 -->
<g id="node10" class="node">
<title>Node10</title>
<g id="a_node10"><a xlink:href="_thread_pool_8h.html" target="_top" xlink:title=" ">
<polygon fill="white" stroke="black" points="197,-112.5 197,-131.5 271,-131.5 271,-112.5 197,-112.5"/>
<text text-anchor="middle" x="234" y="-119.5" font-family="Helvetica,sans-Serif" font-size="10.00">ThreadPool.h</text>
</a>
</g>
</g>
<!-- Node9&#45;&gt;Node10 -->
<g id="edge9" class="edge">
<title>Node9&#45;&gt;Node10</title>
<path fill="none" stroke="midnightblue" d="M234,-168.08C234,-161.01 234,-150.86 234,-141.99"/>
<polygon fill="midnightblue" stroke="midnightblue" points="237.5,-141.75 234,-131.75 230.5,-141.75 237.5,-141.75"/>
</g>
<!-- Node11 -->
<g id="node11" class="node">
<title>Node11</title>
<g id="a_node11"><a xlink:title=" ">
<polygon fill="white" stroke="#bfbfbf" points="249,-56.5 249,-75.5 293,-75.5 293,-56.5 249,-56.5"/>
<text text-anchor="middle" x="271" y="-63.5" font-family="Helvetica,sans-Serif" font-size="10.00">thread</text>
</a>
</g>
</g>
<!-- Node10&#45;&gt;Node11 -->
<g id="edge10" class="edge">
<title>Node10&#45;&gt;Node11</title>
<path fill="none" stroke="midnightblue" d="M240.11,-112.08C245.28,-104.53 252.85,-93.49 259.19,-84.23"/>
<polygon fill="midnightblue" stroke="midnightblue" points="262.24,-85.98 265,-75.75 256.46,-82.02 262.24,-85.98"/>
</g>
<!-- Node12 -->
<g id="node12" class="node">
<title>Node12</title>
<g id="a_node12"><a xlink:title=" ">
<polygon fill="white" stroke="#bfbfbf" points="311,-56.5 311,-75.5 355,-75.5 355,-56.5 311,-56.5"/>
<text text-anchor="middle" x="333" y="-63.5" font-family="Helvetica,sans-Serif" font-size="10.00">mutex</text>
</a>
</g>
</g>
<!-- Node10&#45;&gt;Node12 -->
<g id="edge11" class="edge">
<title>Node10&#45;&gt;Node12</title>
<path fill="none" stroke="midnightblue" d="M249.91,-112.32C265.64,-103.74 289.94,-90.49 308.21,-80.52"/>
<polygon fill="midnightblue" stroke="midnightblue" points="310.03,-83.52 317.13,-75.65 306.68,-77.37 310.03,-83.52"/>
</g>
<!-- Node13 -->
<g id="node13" class="node">
<title>Node13</title>
<g id="a_node13"><a xlink:title=" ">
<polygon fill="white" stroke="#bfbfbf" points="373.5,-56.5 373.5,-75.5 466.5,-75.5 466.5,-56.5 373.5,-56.5"/>
<text text-anchor="middle" x="420" y="-63.5" font-family="Helvetica,sans-Serif" font-size="10.00">condition_variable</text>
</a>
</g>
</g>
<!-- Node10&#45;&gt;Node13 -->
<g id="edge12" class="edge">
<title>Node10&#45;&gt;Node13</title>
<path fill="none" stroke="midnightblue" d="M263.47,-112.44C295.17,-103.24 345.73,-88.56 380.77,-78.39"/>
<polygon fill="midnightblue" stroke="midnightblue" points="382.04,-81.67 390.67,-75.52 380.09,-74.94 382.04,-81.67"/>
</g>
<!-- Node14 -->
<g id="node14" class="node">
<title>Node14</title>
<g id="a_node14"><a xlink:title=" ">
<polygon fill="white" stroke="#bfbfbf" points="33.5,-56.5 33.5,-75.5 74.5,-75.5 74.5,-56.5 33.5,-56.5"/>
<text text-anchor="middle" x="54" y="-63.5" font-family="Helvetica,sans-Serif" font-size="10.00">future</text>
</a>
</g>
</g>
<!-- Node10&#45;&gt;Node14 -->
<g id="edge13" class="edge">
<title>Node10&#45;&gt;Node14</title>
<path fill="none" stroke="midnightblue" d="M205.48,-112.44C172.42,-102.53 118.16,-86.25 84.34,-76.1"/>
<polygon fill="midnightblue" stroke="midnightblue" points="85.13,-72.69 74.55,-73.16 83.12,-79.39 85.13,-72.69"/>
</g>
<!-- Node15 -->
<g id="node15" class="node">
<title>Node15</title>
<g id="a_node15"><a xlink:title=" ">
<polygon fill="white" stroke="#bfbfbf" points="93,-56.5 93,-75.5 145,-75.5 145,-56.5 93,-56.5"/>
<text text-anchor="middle" x="119" y="-63.5" font-family="Helvetica,sans-Serif" font-size="10.00">memory</text>
</a>
</g>
</g>
<!-- Node10&#45;&gt;Node15 -->
<g id="edge14" class="edge">
<title>Node10&#45;&gt;Node15</title>
<path fill="none" stroke="midnightblue" d="M215.78,-112.44C197.1,-103.68 167.84,-89.94 146.38,-79.86"/>
<polygon fill="midnightblue" stroke="midnightblue" points="147.68,-76.6 137.14,-75.52 144.7,-82.93 147.68,-76.6"/>
</g>
<!-- Node16 -->
<g id="node16" class="node">
<title>Node16</title>
<g id="a_node16"><a xlink:title=" ">
<polygon fill="white" stroke="#bfbfbf" points="770,-56.5 770,-75.5 824,-75.5 824,-56.5 770,-56.5"/>
<text text-anchor="middle" x="797" y="-63.5" font-family="Helvetica,sans-Serif" font-size="10.00">iostream</text>
</a>
</g>
</g>
<!-- Node10&#45;&gt;Node16 -->
<g id="edge15" class="edge">
<title>Node10&#45;&gt;Node16</title>
<path fill="none" stroke="midnightblue" d="M271.38,-117.42C373.73,-107.6 657.71,-80.36 759.82,-70.57"/>
<polygon fill="midnightblue" stroke="midnightblue" points="760.34,-74.03 769.96,-69.59 759.68,-67.06 760.34,-74.03"/>
</g>
<!-- Node17 -->
<g id="node17" class="node">
<title>Node17</title>
<g id="a_node17"><a xlink:href="_base_pool_8h.html" target="_top" xlink:title=" ">
<polygon fill="white" stroke="black" points="163.5,-56.5 163.5,-75.5 230.5,-75.5 230.5,-56.5 163.5,-56.5"/>
<text text-anchor="middle" x="197" y="-63.5" font-family="Helvetica,sans-Serif" font-size="10.00">BasePool.h</text>
</a>
</g>
</g>
<!-- Node10&#45;&gt;Node17 -->
<g id="edge16" class="edge">
<title>Node10&#45;&gt;Node17</title>
<path fill="none" stroke="midnightblue" d="M227.89,-112.08C222.72,-104.53 215.15,-93.49 208.81,-84.23"/>
<polygon fill="midnightblue" stroke="midnightblue" points="211.54,-82.02 203,-75.75 205.76,-85.98 211.54,-82.02"/>
</g>
<!-- Node18 -->
<g id="node18" class="node">
<title>Node18</title>
<g id="a_node18"><a xlink:title=" ">
<polygon fill="white" stroke="#bfbfbf" points="141.5,-0.5 141.5,-19.5 184.5,-19.5 184.5,-0.5 141.5,-0.5"/>
<text text-anchor="middle" x="163" y="-7.5" font-family="Helvetica,sans-Serif" font-size="10.00">queue</text>
</a>
</g>
</g>
<!-- Node17&#45;&gt;Node18 -->
<g id="edge17" class="edge">
<title>Node17&#45;&gt;Node18</title>
<path fill="none" stroke="midnightblue" d="M191.39,-56.08C186.63,-48.53 179.68,-37.49 173.85,-28.23"/>
<polygon fill="midnightblue" stroke="midnightblue" points="176.8,-26.35 168.51,-19.75 170.88,-30.08 176.8,-26.35"/>
</g>
<!-- Node19 -->
<g id="node19" class="node">
<title>Node19</title>
<g id="a_node19"><a xlink:title=" ">
<polygon fill="white" stroke="#bfbfbf" points="203,-0.5 203,-19.5 261,-19.5 261,-0.5 203,-0.5"/>
<text text-anchor="middle" x="232" y="-7.5" font-family="Helvetica,sans-Serif" font-size="10.00">functional</text>
</a>
</g>
</g>
<!-- Node17&#45;&gt;Node19 -->
<g id="edge18" class="edge">
<title>Node17&#45;&gt;Node19</title>
<path fill="none" stroke="midnightblue" d="M202.78,-56.08C207.67,-48.53 214.83,-37.49 220.83,-28.23"/>
<polygon fill="midnightblue" stroke="midnightblue" points="223.83,-30.05 226.33,-19.75 217.95,-26.24 223.83,-30.05"/>
</g>
<!-- Node20&#45;&gt;Node10 -->
<g id="edge20" class="edge">
<title>Node20&#45;&gt;Node10</title>
<path fill="none" stroke="midnightblue" d="M140.83,-168.32C158.72,-159.62 186.48,-146.12 207.05,-136.11"/>
<polygon fill="midnightblue" stroke="midnightblue" points="208.75,-139.18 216.21,-131.65 205.69,-132.88 208.75,-139.18"/>
</g>
<!-- Node21&#45;&gt;Node9 -->
<g id="edge22" class="edge">
<title>Node21&#45;&gt;Node9</title>
<path fill="none" stroke="midnightblue" d="M232.33,-224.08C232.59,-217.01 232.97,-206.86 233.3,-197.99"/>
<polygon fill="midnightblue" stroke="midnightblue" points="236.8,-197.87 233.68,-187.75 229.81,-197.61 236.8,-197.87"/>
</g>
<!-- Node23 -->
<g id="node23" class="node">
<title>Node23</title>
<g id="a_node23"><a xlink:title=" ">
<polygon fill="white" stroke="#bfbfbf" points="853.5,-286 853.5,-305 894.5,-305 894.5,-286 853.5,-286"/>
<text text-anchor="middle" x="874" y="-293" font-family="Helvetica,sans-Serif" font-size="10.00">string</text>
</a>
</g>
</g>
<!-- Node22&#45;&gt;Node23 -->
<g id="edge24" class="edge">
<title>Node22&#45;&gt;Node23</title>
<path fill="none" stroke="midnightblue" d="M620.79,-414.41C637.09,-405.84 662.34,-391.97 683,-378 701.34,-365.59 702.35,-357.21 722,-347 772.16,-320.93 791.26,-331.37 844,-311 845.38,-310.47 846.79,-309.89 848.2,-309.3"/>
<polygon fill="midnightblue" stroke="midnightblue" points="849.74,-312.44 857.39,-305.12 846.84,-306.07 849.74,-312.44"/>
</g>
<!-- Node24 -->
<g id="node24" class="node">
<title>Node24</title>
<g id="a_node24"><a xlink:title=" ">
<polygon fill="white" stroke="#bfbfbf" points="730.5,-353 730.5,-372 813.5,-372 813.5,-353 730.5,-353"/>
<text text-anchor="middle" x="772" y="-360" font-family="Helvetica,sans-Serif" font-size="10.00">unordered_map</text>
</a>
</g>
</g>
<!-- Node22&#45;&gt;Node24 -->
<g id="edge25" class="edge">
<title>Node22&#45;&gt;Node24</title>
<path fill="none" stroke="midnightblue" d="M628.07,-414.48C657.01,-404.22 705.76,-386.96 738.4,-375.4"/>
<polygon fill="midnightblue" stroke="midnightblue" points="739.72,-378.65 747.97,-372.01 737.38,-372.05 739.72,-378.65"/>
</g>
<!-- Node25 -->
<g id="node25" class="node">
<title>Node25</title>
<g id="a_node25"><a xlink:title=" ">
<polygon fill="white" stroke="#bfbfbf" points="771,-286 771,-305 835,-305 835,-286 771,-286"/>
<text text-anchor="middle" x="803" y="-293" font-family="Helvetica,sans-Serif" font-size="10.00">glad/glad.h</text>
</a>
</g>
</g>
<!-- Node22&#45;&gt;Node25 -->
<g id="edge26" class="edge">
<title>Node22&#45;&gt;Node25</title>
<path fill="none" stroke="midnightblue" d="M612.74,-414.43C630.76,-396.86 671.74,-357.53 688,-347 702.41,-337.67 742.59,-320.72 771.39,-309.04"/>
<polygon fill="midnightblue" stroke="midnightblue" points="773.08,-312.14 781.05,-305.16 770.46,-305.65 773.08,-312.14"/>
</g>
<!-- Node26 -->
<g id="node26" class="node">
<title>Node26</title>
<g id="a_node26"><a xlink:title=" ">
<polygon fill="white" stroke="#bfbfbf" points="675,-286 675,-305 753,-305 753,-286 675,-286"/>
<text text-anchor="middle" x="714" y="-293" font-family="Helvetica,sans-Serif" font-size="10.00">GLFW/glfw3.h</text>
</a>
</g>
</g>
<!-- Node22&#45;&gt;Node26 -->
<g id="edge27" class="edge">
<title>Node22&#45;&gt;Node26</title>
<path fill="none" stroke="midnightblue" d="M607.95,-414.36C614.99,-399.53 630.8,-368.73 650,-347 662.26,-333.12 678.7,-320.24 691.85,-310.96"/>
<polygon fill="midnightblue" stroke="midnightblue" points="694.06,-313.69 700.33,-305.15 690.11,-307.91 694.06,-313.69"/>
</g>
<!-- Node27 -->
<g id="node27" class="node">
<title>Node27</title>
<g id="a_node27"><a xlink:title=" ">
<polygon fill="white" stroke="#bfbfbf" points="148,-353 148,-372 234,-372 234,-353 148,-353"/>
<text text-anchor="middle" x="191" y="-360" font-family="Helvetica,sans-Serif" font-size="10.00">glm/mat4x4.hpp</text>
</a>
</g>
</g>
<!-- Node22&#45;&gt;Node27 -->
<g id="edge28" class="edge">
<title>Node22&#45;&gt;Node27</title>
<path fill="none" stroke="midnightblue" d="M555.75,-419.27C486.18,-413.38 353.85,-400.24 243,-378 238.25,-377.05 233.3,-375.89 228.43,-374.65"/>
<polygon fill="midnightblue" stroke="midnightblue" points="229.18,-371.22 218.61,-372.02 227.37,-377.99 229.18,-371.22"/>
</g>
<!-- Node28 -->
<g id="node28" class="node">
<title>Node28</title>
<g id="a_node28"><a xlink:title=" ">
<polygon fill="white" stroke="#bfbfbf" points="252,-353 252,-372 358,-372 358,-353 252,-353"/>
<text text-anchor="middle" x="305" y="-360" font-family="Helvetica,sans-Serif" font-size="10.00">glm/gtc/type_ptr.hpp</text>
</a>
</g>
</g>
<!-- Node22&#45;&gt;Node28 -->
<g id="edge29" class="edge">
<title>Node22&#45;&gt;Node28</title>
<path fill="none" stroke="midnightblue" d="M555.77,-414.46C507.79,-405.81 432.15,-391.8 367,-378 361.59,-376.85 355.93,-375.6 350.32,-374.33"/>
<polygon fill="midnightblue" stroke="midnightblue" points="350.88,-370.87 340.35,-372.04 349.31,-377.69 350.88,-370.87"/>
</g>
<!-- Node29 -->
<g id="node29" class="node">
<title>Node29</title>
<g id="a_node29"><a xlink:title=" ">
<polygon fill="white" stroke="#bfbfbf" points="376,-353 376,-372 466,-372 466,-353 376,-353"/>
<text text-anchor="middle" x="421" y="-360" font-family="Helvetica,sans-Serif" font-size="10.00">boost/variant.hpp</text>
</a>
</g>
</g>
<!-- Node22&#45;&gt;Node29 -->
<g id="edge30" class="edge">
<title>Node22&#45;&gt;Node29</title>
<path fill="none" stroke="midnightblue" d="M577.78,-414.48C545.98,-404.14 492.23,-386.66 456.68,-375.1"/>
<polygon fill="midnightblue" stroke="midnightblue" points="457.76,-371.77 447.17,-372.01 455.6,-378.43 457.76,-371.77"/>
</g>
<!-- Node30 -->
<g id="node30" class="node">
<title>Node30</title>
<g id="a_node30"><a xlink:href="_texture_8h.html" target="_top" xlink:title=" ">
<polygon fill="white" stroke="black" points="484.5,-347.5 484.5,-377.5 597.5,-377.5 597.5,-347.5 484.5,-347.5"/>
<text text-anchor="start" x="492.5" y="-365.5" font-family="Helvetica,sans-Serif" font-size="10.00">kryne&#45;engine/Textures</text>
<text text-anchor="middle" x="541" y="-354.5" font-family="Helvetica,sans-Serif" font-size="10.00">/Texture.h</text>
</a>
</g>
</g>
<!-- Node22&#45;&gt;Node30 -->
<g id="edge31" class="edge">
<title>Node22&#45;&gt;Node30</title>
<path fill="none" stroke="midnightblue" d="M594.97,-414.48C586.76,-406.72 574.29,-394.94 563.41,-384.66"/>
<polygon fill="midnightblue" stroke="midnightblue" points="565.52,-381.84 555.85,-377.52 560.71,-386.93 565.52,-381.84"/>
</g>
<!-- Node30&#45;&gt;Node3 -->
<g id="edge38" class="edge">
<title>Node30&#45;&gt;Node3</title>
<path fill="none" stroke="midnightblue" d="M484.2,-348.55C481.1,-347.99 478.01,-347.47 475,-347 302.11,-320.18 254.52,-345.5 83,-311 78.84,-310.16 74.53,-309.09 70.29,-307.91"/>
<polygon fill="midnightblue" stroke="midnightblue" points="71.21,-304.53 60.62,-305.01 69.19,-311.23 71.21,-304.53"/>
</g>
<!-- Node30&#45;&gt;Node8 -->
<g id="edge41" class="edge">
<title>Node30&#45;&gt;Node8</title>
<path fill="none" stroke="midnightblue" d="M484.18,-348.72C481.08,-348.11 478,-347.54 475,-347 362.88,-326.98 330.97,-331.49 215.6,-311.2"/>
<polygon fill="midnightblue" stroke="midnightblue" points="216.12,-307.74 205.66,-309.43 214.89,-314.63 216.12,-307.74"/>
</g>
<!-- Node30&#45;&gt;Node16 -->
<g id="edge34" class="edge">
<title>Node30&#45;&gt;Node16</title>
<path fill="none" stroke="midnightblue" d="M579.23,-347.45C596.49,-339.28 615.72,-327.33 628,-311 648.93,-283.18 647,-269.82 647,-235 647,-235 647,-235 647,-177 647,-121.01 715.81,-90.4 760.22,-76.48"/>
<polygon fill="midnightblue" stroke="midnightblue" points="761.26,-79.82 769.84,-73.6 759.25,-73.12 761.26,-79.82"/>
</g>
<!-- Node30&#45;&gt;Node23 -->
<g id="edge33" class="edge">
<title>Node30&#45;&gt;Node23</title>
<path fill="none" stroke="midnightblue" d="M597.69,-356.91C659.43,-350.8 760.52,-337.53 844,-311 845.67,-310.47 847.36,-309.86 849.05,-309.2"/>
<polygon fill="midnightblue" stroke="midnightblue" points="850.73,-312.29 858.47,-305.05 847.9,-305.88 850.73,-312.29"/>
</g>
<!-- Node30&#45;&gt;Node25 -->
<g id="edge39" class="edge">
<title>Node30&#45;&gt;Node25</title>
<path fill="none" stroke="midnightblue" d="M597.78,-350.41C642.69,-341.18 706.81,-327.01 762,-311 764.79,-310.19 767.66,-309.3 770.53,-308.37"/>
<polygon fill="midnightblue" stroke="midnightblue" points="771.82,-311.63 780.17,-305.1 769.57,-305 771.82,-311.63"/>
</g>
<!-- Node30&#45;&gt;Node26 -->
<g id="edge40" class="edge">
<title>Node30&#45;&gt;Node26</title>
<path fill="none" stroke="midnightblue" d="M578.54,-347.4C609.3,-335.84 652.37,-319.66 681.63,-308.66"/>
<polygon fill="midnightblue" stroke="midnightblue" points="683.23,-311.8 691.36,-305.01 680.77,-305.25 683.23,-311.8"/>
</g>
<!-- Node31 -->
<g id="node31" class="node">
<title>Node31</title>
<g id="a_node31"><a xlink:title=" ">
<polygon fill="white" stroke="#bfbfbf" points="423,-286 423,-305 493,-305 493,-286 423,-286"/>
<text text-anchor="middle" x="458" y="-293" font-family="Helvetica,sans-Serif" font-size="10.00">stb_image.h</text>
</a>
</g>
</g>
<!-- Node30&#45;&gt;Node31 -->
<g id="edge32" class="edge">
<title>Node30&#45;&gt;Node31</title>
<path fill="none" stroke="midnightblue" d="M522.99,-347.4C509.41,-336.76 490.82,-322.2 477,-311.38"/>
<polygon fill="midnightblue" stroke="midnightblue" points="479.13,-308.6 469.1,-305.19 474.82,-314.12 479.13,-308.6"/>
</g>
<!-- Node32 -->
<g id="node32" class="node">
<title>Node32</title>
<g id="a_node32"><a xlink:title=" ">
<polygon fill="white" stroke="#bfbfbf" points="511.5,-286 511.5,-305 618.5,-305 618.5,-286 511.5,-286"/>
<text text-anchor="middle" x="565" y="-293" font-family="Helvetica,sans-Serif" font-size="10.00">boost/filesystem.hpp</text>
</a>
</g>
</g>
<!-- Node30&#45;&gt;Node32 -->
<g id="edge35" class="edge">
<title>Node30&#45;&gt;Node32</title>
<path fill="none" stroke="midnightblue" d="M546.21,-347.4C549.73,-337.86 554.41,-325.18 558.22,-314.86"/>
<polygon fill="midnightblue" stroke="midnightblue" points="561.61,-315.79 561.79,-305.19 555.04,-313.36 561.61,-315.79"/>
</g>
<!-- Node33 -->
<g id="node33" class="node">
<title>Node33</title>
<g id="a_node33"><a xlink:title=" ">
<polygon fill="white" stroke="#bfbfbf" points="223.5,-286 223.5,-305 312.5,-305 312.5,-286 223.5,-286"/>
<text text-anchor="middle" x="268" y="-293" font-family="Helvetica,sans-Serif" font-size="10.00">boost/format.hpp</text>
</a>
</g>
</g>
<!-- Node30&#45;&gt;Node33 -->
<g id="edge36" class="edge">
<title>Node30&#45;&gt;Node33</title>
<path fill="none" stroke="midnightblue" d="M484.15,-348.97C439.86,-339.08 376.89,-324.69 322,-311 317.7,-309.93 313.21,-308.78 308.75,-307.61"/>
<polygon fill="midnightblue" stroke="midnightblue" points="309.64,-304.22 299.08,-305.05 307.85,-310.99 309.64,-304.22"/>
</g>
<!-- Node34 -->
<g id="node34" class="node">
<title>Node34</title>
<g id="a_node34"><a xlink:title=" ">
<polygon fill="white" stroke="#bfbfbf" points="331,-286 331,-305 405,-305 405,-286 331,-286"/>
<text text-anchor="middle" x="368" y="-293" font-family="Helvetica,sans-Serif" font-size="10.00">glm/vec2.hpp</text>
</a>
</g>
</g>
<!-- Node30&#45;&gt;Node34 -->
<g id="edge37" class="edge">
<title>Node30&#45;&gt;Node34</title>
<path fill="none" stroke="midnightblue" d="M503.46,-347.4C472.7,-335.84 429.63,-319.66 400.37,-308.66"/>
<polygon fill="midnightblue" stroke="midnightblue" points="401.23,-305.25 390.64,-305.01 398.77,-311.8 401.23,-305.25"/>
</g>
<!-- Node35&#45;&gt;Node16 -->
<g id="edge46" class="edge">
<title>Node35&#45;&gt;Node16</title>
<path fill="none" stroke="midnightblue" d="M885.87,-414.41C904.7,-395.18 947,-346.45 947,-296.5 947,-296.5 947,-296.5 947,-177 947,-121.01 878.19,-90.4 833.78,-76.48"/>
<polygon fill="midnightblue" stroke="midnightblue" points="834.75,-73.12 824.16,-73.6 832.74,-79.82 834.75,-73.12"/>
</g>
<!-- Node35&#45;&gt;Node23 -->
<g id="edge44" class="edge">
<title>Node35&#45;&gt;Node23</title>
<path fill="none" stroke="midnightblue" d="M880.34,-414.2C883.55,-405.24 888.18,-390.88 890,-378 891.93,-364.36 892.11,-360.62 890,-347 888.3,-336.04 884.66,-324.2 881.27,-314.74"/>
<polygon fill="midnightblue" stroke="midnightblue" points="884.49,-313.36 877.68,-305.24 877.94,-315.83 884.49,-313.36"/>
</g>
<!-- Node35&#45;&gt;Node24 -->
<g id="edge43" class="edge">
<title>Node35&#45;&gt;Node24</title>
<path fill="none" stroke="midnightblue" d="M861.96,-414.48C844.72,-404.71 816.26,-388.58 795.97,-377.08"/>
<polygon fill="midnightblue" stroke="midnightblue" points="797.44,-373.89 787.02,-372.01 793.99,-379.98 797.44,-373.89"/>
</g>
<!-- Node36 -->
<g id="node36" class="node">
<title>Node36</title>
<g id="a_node36"><a xlink:title=" ">
<polygon fill="white" stroke="#bfbfbf" points="831.5,-353 831.5,-372 880.5,-372 880.5,-353 831.5,-353"/>
<text text-anchor="middle" x="856" y="-360" font-family="Helvetica,sans-Serif" font-size="10.00">fstream</text>
</a>
</g>
</g>
<!-- Node35&#45;&gt;Node36 -->
<g id="edge45" class="edge">
<title>Node35&#45;&gt;Node36</title>
<path fill="none" stroke="midnightblue" d="M873.99,-414.48C870.97,-405.9 866.21,-392.43 862.35,-381.48"/>
<polygon fill="midnightblue" stroke="midnightblue" points="865.63,-380.27 859,-372.01 859.03,-382.6 865.63,-380.27"/>
</g>
<!-- Node37 -->
<g id="node37" class="node">
<title>Node37</title>
<g id="a_node37"><a xlink:href="kryne-engine_2_utils_2_utils_8h.html" target="_top" xlink:title=" ">
<polygon fill="white" stroke="black" points="975.5,-347.5 975.5,-377.5 1070.5,-377.5 1070.5,-347.5 975.5,-347.5"/>
<text text-anchor="start" x="983.5" y="-365.5" font-family="Helvetica,sans-Serif" font-size="10.00">kryne&#45;engine/Utils</text>
<text text-anchor="middle" x="1023" y="-354.5" font-family="Helvetica,sans-Serif" font-size="10.00">/Utils.h</text>
</a>
</g>
</g>
<!-- Node35&#45;&gt;Node37 -->
<g id="edge47" class="edge">
<title>Node35&#45;&gt;Node37</title>
<path fill="none" stroke="midnightblue" d="M897.92,-414.48C918.99,-405.89 952.13,-392.38 979.01,-381.43"/>
<polygon fill="midnightblue" stroke="midnightblue" points="980.65,-384.54 988.59,-377.52 978.01,-378.06 980.65,-384.54"/>
</g>
<!-- Node38 -->
<g id="node38" class="node">
<title>Node38</title>
<g id="a_node38"><a xlink:href="_string_utils_8hpp.html" target="_top" xlink:title=" ">
<polygon fill="white" stroke="black" points="975,-168.5 975,-187.5 1055,-187.5 1055,-168.5 975,-168.5"/>
<text text-anchor="middle" x="1015" y="-175.5" font-family="Helvetica,sans-Serif" font-size="10.00">StringUtils.hpp</text>
</a>
</g>
</g>
<!-- Node37&#45;&gt;Node38 -->
<g id="edge48" class="edge">
<title>Node37&#45;&gt;Node38</title>
<path fill="none" stroke="midnightblue" d="M1022.39,-347.48C1020.97,-315.1 1017.46,-235.04 1015.84,-198.16"/>
<polygon fill="midnightblue" stroke="midnightblue" points="1019.32,-197.66 1015.39,-187.82 1012.33,-197.96 1019.32,-197.66"/>
</g>
<!-- Node39 -->
<g id="node39" class="node">
<title>Node39</title>
<g id="a_node39"><a xlink:href="_vector_mapping_8hpp.html" target="_top" xlink:title=" ">
<polygon fill="white" stroke="black" points="1034.5,-286 1034.5,-305 1135.5,-305 1135.5,-286 1034.5,-286"/>
<text text-anchor="middle" x="1085" y="-293" font-family="Helvetica,sans-Serif" font-size="10.00">VectorMapping.hpp</text>
</a>
</g>
</g>
<!-- Node37&#45;&gt;Node39 -->
<g id="edge50" class="edge">
<title>Node37&#45;&gt;Node39</title>
<path fill="none" stroke="midnightblue" d="M1036.45,-347.4C1046.22,-337.16 1059.44,-323.3 1069.62,-312.62"/>
<polygon fill="midnightblue" stroke="midnightblue" points="1072.34,-314.85 1076.71,-305.19 1067.27,-310.01 1072.34,-314.85"/>
</g>
<!-- Node38&#45;&gt;Node16 -->
<g id="edge49" class="edge">
<title>Node38&#45;&gt;Node16</title>
<path fill="none" stroke="midnightblue" d="M1010.24,-168.39C1002.05,-154.4 983.93,-126.79 961,-112 922.1,-86.92 869.33,-75.68 834.28,-70.74"/>
<polygon fill="midnightblue" stroke="midnightblue" points="834.37,-67.22 824,-69.4 833.47,-74.16 834.37,-67.22"/>
</g>
<!-- Node39&#45;&gt;Node4 -->
<g id="edge51" class="edge">
<title>Node39&#45;&gt;Node4</title>
<path fill="none" stroke="midnightblue" d="M1098.75,-285.98C1114.37,-276.3 1140.06,-260.37 1158.58,-248.89"/>
<polygon fill="midnightblue" stroke="midnightblue" points="1160.62,-251.75 1167.27,-243.51 1156.93,-245.8 1160.62,-251.75"/>
</g>
<!-- Node40 -->
<g id="node40" class="node">
<title>Node40</title>
<g id="a_node40"><a xlink:title=" ">
<polygon fill="white" stroke="#bfbfbf" points="1028.5,-224.5 1028.5,-243.5 1141.5,-243.5 1141.5,-224.5 1028.5,-224.5"/>
<text text-anchor="middle" x="1085" y="-231.5" font-family="Helvetica,sans-Serif" font-size="10.00">glm/detail/qualifier.hpp</text>
</a>
</g>
</g>
<!-- Node39&#45;&gt;Node40 -->
<g id="edge52" class="edge">
<title>Node39&#45;&gt;Node40</title>
<path fill="none" stroke="midnightblue" d="M1085,-285.98C1085,-277.58 1085,-264.48 1085,-253.66"/>
<polygon fill="midnightblue" stroke="midnightblue" points="1088.5,-253.51 1085,-243.51 1081.5,-253.51 1088.5,-253.51"/>
</g>
</g>
</svg>
