<?xml version="1.0" encoding="UTF-8" standalone="no"?>
<!DOCTYPE svg PUBLIC "-//W3C//DTD SVG 1.1//EN"
 "http://www.w3.org/Graphics/SVG/1.1/DTD/svg11.dtd">
<!-- Generated by graphviz version 2.40.1 (20161225.0304)
 -->
<!-- Title: kryne&#45;engine/src/Dispatch/Dispatcher.cpp Pages: 1 -->
<svg width="539pt" height="397pt"
 viewBox="0.00 0.00 538.50 397.00" xmlns="http://www.w3.org/2000/svg" xmlns:xlink="http://www.w3.org/1999/xlink">
<g id="graph0" class="graph" transform="scale(1 1) rotate(0) translate(4 393)">
<title>kryne&#45;engine/src/Dispatch/Dispatcher.cpp</title>
<polygon fill="#ffffff" stroke="transparent" points="-4,4 -4,-393 534.5,-393 534.5,4 -4,4"/>
<!-- Node0 -->
<g id="node1" class="node">
<title>Node0</title>
<polygon fill="#bfbfbf" stroke="#000000" points="290.5,-358.5 290.5,-388.5 421.5,-388.5 421.5,-358.5 290.5,-358.5"/>
<text text-anchor="start" x="298.5" y="-376.5" font-family="Helvetica,sans-Serif" font-size="10.00" fill="#000000">kryne&#45;engine/src/Dispatch</text>
<text text-anchor="middle" x="356" y="-365.5" font-family="Helvetica,sans-Serif" font-size="10.00" fill="#000000">/Dispatcher.cpp</text>
</g>
<!-- Node1 -->
<g id="node2" class="node">
<title>Node1</title>
<g id="a_node2"><a xlink:href="_dispatcher_8h.html" target="_top" xlink:title="kryne&#45;engine/Dispatch\l/Dispatcher.h">
<polygon fill="#ffffff" stroke="#000000" points="299,-291.5 299,-321.5 413,-321.5 413,-291.5 299,-291.5"/>
<text text-anchor="start" x="307" y="-309.5" font-family="Helvetica,sans-Serif" font-size="10.00" fill="#000000">kryne&#45;engine/Dispatch</text>
<text text-anchor="middle" x="356" y="-298.5" font-family="Helvetica,sans-Serif" font-size="10.00" fill="#000000">/Dispatcher.h</text>
</a>
</g>
</g>
<!-- Node0&#45;&gt;Node1 -->
<g id="edge1" class="edge">
<title>Node0&#45;&gt;Node1</title>
<path fill="none" stroke="#191970" d="M356,-358.2967C356,-350.5013 356,-340.7991 356,-331.9064"/>
<polygon fill="#191970" stroke="#191970" points="359.5001,-331.6431 356,-321.6432 352.5001,-331.6432 359.5001,-331.6431"/>
</g>
<!-- Node2 -->
<g id="node3" class="node">
<title>Node2</title>
<g id="a_node3"><a xlink:href="_synchronizable_pool_8h.html" target="_top" xlink:title="SynchronizablePool.h">
<polygon fill="#ffffff" stroke="#000000" points="331.5,-179.5 331.5,-198.5 442.5,-198.5 442.5,-179.5 331.5,-179.5"/>
<text text-anchor="middle" x="387" y="-186.5" font-family="Helvetica,sans-Serif" font-size="10.00" fill="#000000">SynchronizablePool.h</text>
</a>
</g>
</g>
<!-- Node1&#45;&gt;Node2 -->
<g id="edge2" class="edge">
<title>Node1&#45;&gt;Node2</title>
<path fill="none" stroke="#191970" d="M360.0527,-291.1389C365.6633,-269.873 375.7951,-231.4702 381.9092,-208.2956"/>
<polygon fill="#191970" stroke="#191970" points="385.311,-209.1215 384.4779,-198.5595 378.5426,-207.3357 385.311,-209.1215"/>
</g>
<!-- Node13 -->
<g id="node14" class="node">
<title>Node13</title>
<g id="a_node14"><a xlink:href="_runner_pool_8h.html" target="_top" xlink:title="RunnerPool.h">
<polygon fill="#ffffff" stroke="#000000" points="237,-179.5 237,-198.5 313,-198.5 313,-179.5 237,-179.5"/>
<text text-anchor="middle" x="275" y="-186.5" font-family="Helvetica,sans-Serif" font-size="10.00" fill="#000000">RunnerPool.h</text>
</a>
</g>
</g>
<!-- Node1&#45;&gt;Node13 -->
<g id="edge13" class="edge">
<title>Node1&#45;&gt;Node13</title>
<path fill="none" stroke="#191970" d="M345.4107,-291.1389C330.4854,-269.4881 303.3152,-230.0745 287.4447,-207.0525"/>
<polygon fill="#191970" stroke="#191970" points="290.1473,-204.8062 281.5899,-198.5595 284.384,-208.7793 290.1473,-204.8062"/>
</g>
<!-- Node14 -->
<g id="node15" class="node">
<title>Node14</title>
<g id="a_node15"><a xlink:href="_main_pool_8h.html" target="_top" xlink:title="MainPool.h">
<polygon fill="#ffffff" stroke="#000000" points="384.5,-235.5 384.5,-254.5 449.5,-254.5 449.5,-235.5 384.5,-235.5"/>
<text text-anchor="middle" x="417" y="-242.5" font-family="Helvetica,sans-Serif" font-size="10.00" fill="#000000">MainPool.h</text>
</a>
</g>
</g>
<!-- Node1&#45;&gt;Node14 -->
<g id="edge15" class="edge">
<title>Node1&#45;&gt;Node14</title>
<path fill="none" stroke="#191970" d="M371.0787,-291.2977C379.8989,-282.4052 391.0541,-271.1586 400.1612,-261.9769"/>
<polygon fill="#191970" stroke="#191970" points="402.6759,-264.4116 407.2331,-254.8469 397.706,-259.4821 402.6759,-264.4116"/>
</g>
<!-- Node3 -->
<g id="node4" class="node">
<title>Node3</title>
<g id="a_node4"><a xlink:href="_thread_pool_8h.html" target="_top" xlink:title="ThreadPool.h">
<polygon fill="#ffffff" stroke="#000000" points="238,-118 238,-137 312,-137 312,-118 238,-118"/>
<text text-anchor="middle" x="275" y="-125" font-family="Helvetica,sans-Serif" font-size="10.00" fill="#000000">ThreadPool.h</text>
</a>
</g>
</g>
<!-- Node2&#45;&gt;Node3 -->
<g id="edge3" class="edge">
<title>Node2&#45;&gt;Node3</title>
<path fill="none" stroke="#191970" d="M369.5,-179.3906C351.2535,-169.3713 322.4376,-153.5483 301.4194,-142.0071"/>
<polygon fill="#191970" stroke="#191970" points="302.8272,-138.7872 292.3771,-137.0419 299.458,-144.923 302.8272,-138.7872"/>
</g>
<!-- Node4 -->
<g id="node5" class="node">
<title>Node4</title>
<polygon fill="#ffffff" stroke="#bfbfbf" points="0,-56.5 0,-75.5 44,-75.5 44,-56.5 0,-56.5"/>
<text text-anchor="middle" x="22" y="-63.5" font-family="Helvetica,sans-Serif" font-size="10.00" fill="#000000">thread</text>
</g>
<!-- Node3&#45;&gt;Node4 -->
<g id="edge4" class="edge">
<title>Node3&#45;&gt;Node4</title>
<path fill="none" stroke="#191970" d="M237.8363,-119.8784C195.5393,-110.9844 124.2163,-95.323 54.1575,-76.1622"/>
<polygon fill="#191970" stroke="#191970" points="54.8543,-72.7237 44.2834,-73.4356 52.9911,-79.4712 54.8543,-72.7237"/>
</g>
<!-- Node5 -->
<g id="node6" class="node">
<title>Node5</title>
<polygon fill="#ffffff" stroke="#bfbfbf" points="463,-56.5 463,-75.5 507,-75.5 507,-56.5 463,-56.5"/>
<text text-anchor="middle" x="485" y="-63.5" font-family="Helvetica,sans-Serif" font-size="10.00" fill="#000000">mutex</text>
</g>
<!-- Node3&#45;&gt;Node5 -->
<g id="edge5" class="edge">
<title>Node3&#45;&gt;Node5</title>
<path fill="none" stroke="#191970" d="M308.8556,-117.9361C344.7118,-107.7529 402.9402,-91.0618 453,-76 453.101,-75.9696 453.2022,-75.9391 453.3036,-75.9086"/>
<polygon fill="#191970" stroke="#191970" points="454.4462,-79.2193 462.985,-72.9471 452.3985,-72.5254 454.4462,-79.2193"/>
</g>
<!-- Node6 -->
<g id="node7" class="node">
<title>Node6</title>
<polygon fill="#ffffff" stroke="#bfbfbf" points="62.5,-56.5 62.5,-75.5 157.5,-75.5 157.5,-56.5 62.5,-56.5"/>
<text text-anchor="middle" x="110" y="-63.5" font-family="Helvetica,sans-Serif" font-size="10.00" fill="#000000">condition_variable</text>
</g>
<!-- Node3&#45;&gt;Node6 -->
<g id="edge6" class="edge">
<title>Node3&#45;&gt;Node6</title>
<path fill="none" stroke="#191970" d="M249.2188,-117.8906C221.248,-107.4652 176.4181,-90.7559 145.214,-79.1252"/>
<polygon fill="#191970" stroke="#191970" points="146.1929,-75.7549 135.6002,-75.5419 143.7481,-82.3141 146.1929,-75.7549"/>
</g>
<!-- Node7 -->
<g id="node8" class="node">
<title>Node7</title>
<polygon fill="#ffffff" stroke="#bfbfbf" points="175.5,-56.5 175.5,-75.5 216.5,-75.5 216.5,-56.5 175.5,-56.5"/>
<text text-anchor="middle" x="196" y="-63.5" font-family="Helvetica,sans-Serif" font-size="10.00" fill="#000000">future</text>
</g>
<!-- Node3&#45;&gt;Node7 -->
<g id="edge7" class="edge">
<title>Node3&#45;&gt;Node7</title>
<path fill="none" stroke="#191970" d="M262.6563,-117.8906C250.2497,-108.2324 230.9157,-93.1812 216.2587,-81.771"/>
<polygon fill="#191970" stroke="#191970" points="218.2979,-78.923 208.2571,-75.5419 213.9979,-84.4466 218.2979,-78.923"/>
</g>
<!-- Node8 -->
<g id="node9" class="node">
<title>Node8</title>
<polygon fill="#ffffff" stroke="#bfbfbf" points="235,-56.5 235,-75.5 287,-75.5 287,-56.5 235,-56.5"/>
<text text-anchor="middle" x="261" y="-63.5" font-family="Helvetica,sans-Serif" font-size="10.00" fill="#000000">memory</text>
</g>
<!-- Node3&#45;&gt;Node8 -->
<g id="edge8" class="edge">
<title>Node3&#45;&gt;Node8</title>
<path fill="none" stroke="#191970" d="M272.8125,-117.8906C270.8514,-109.276 267.9137,-96.3708 265.4585,-85.5858"/>
<polygon fill="#191970" stroke="#191970" points="268.8507,-84.7185 263.2183,-75.7449 262.0254,-86.2723 268.8507,-84.7185"/>
</g>
<!-- Node9 -->
<g id="node10" class="node">
<title>Node9</title>
<polygon fill="#ffffff" stroke="#bfbfbf" points="305,-56.5 305,-75.5 359,-75.5 359,-56.5 305,-56.5"/>
<text text-anchor="middle" x="332" y="-63.5" font-family="Helvetica,sans-Serif" font-size="10.00" fill="#000000">iostream</text>
</g>
<!-- Node3&#45;&gt;Node9 -->
<g id="edge9" class="edge">
<title>Node3&#45;&gt;Node9</title>
<path fill="none" stroke="#191970" d="M283.9063,-117.8906C292.4728,-108.6478 305.6169,-94.466 316.0003,-83.2628"/>
<polygon fill="#191970" stroke="#191970" points="318.7375,-85.4584 322.9682,-75.7449 313.6035,-80.7 318.7375,-85.4584"/>
</g>
<!-- Node10 -->
<g id="node11" class="node">
<title>Node10</title>
<g id="a_node11"><a xlink:href="_base_pool_8h.html" target="_top" xlink:title="BasePool.h">
<polygon fill="#ffffff" stroke="#000000" points="377.5,-56.5 377.5,-75.5 444.5,-75.5 444.5,-56.5 377.5,-56.5"/>
<text text-anchor="middle" x="411" y="-63.5" font-family="Helvetica,sans-Serif" font-size="10.00" fill="#000000">BasePool.h</text>
</a>
</g>
</g>
<!-- Node3&#45;&gt;Node10 -->
<g id="edge10" class="edge">
<title>Node3&#45;&gt;Node10</title>
<path fill="none" stroke="#191970" d="M296.25,-117.8906C318.9055,-107.6457 354.9798,-91.3326 380.6291,-79.7339"/>
<polygon fill="#191970" stroke="#191970" points="382.2297,-82.8514 389.8992,-75.5419 379.3454,-76.4732 382.2297,-82.8514"/>
</g>
<!-- Node11 -->
<g id="node12" class="node">
<title>Node11</title>
<polygon fill="#ffffff" stroke="#bfbfbf" points="355.5,-.5 355.5,-19.5 398.5,-19.5 398.5,-.5 355.5,-.5"/>
<text text-anchor="middle" x="377" y="-7.5" font-family="Helvetica,sans-Serif" font-size="10.00" fill="#000000">queue</text>
</g>
<!-- Node10&#45;&gt;Node11 -->
<g id="edge11" class="edge">
<title>Node10&#45;&gt;Node11</title>
<path fill="none" stroke="#191970" d="M405.0777,-56.2455C400.3973,-48.5367 393.7327,-37.5598 388.0711,-28.2348"/>
<polygon fill="#191970" stroke="#191970" points="391.0361,-26.3741 382.8545,-19.6427 385.0525,-30.007 391.0361,-26.3741"/>
</g>
<!-- Node12 -->
<g id="node13" class="node">
<title>Node12</title>
<polygon fill="#ffffff" stroke="#bfbfbf" points="416.5,-.5 416.5,-19.5 475.5,-19.5 475.5,-.5 416.5,-.5"/>
<text text-anchor="middle" x="446" y="-7.5" font-family="Helvetica,sans-Serif" font-size="10.00" fill="#000000">functional</text>
</g>
<!-- Node10&#45;&gt;Node12 -->
<g id="edge12" class="edge">
<title>Node10&#45;&gt;Node12</title>
<path fill="none" stroke="#191970" d="M417.0965,-56.2455C421.9145,-48.5367 428.7751,-37.5598 434.6032,-28.2348"/>
<polygon fill="#191970" stroke="#191970" points="437.6413,-29.9777 439.9733,-19.6427 431.7053,-26.2677 437.6413,-29.9777"/>
</g>
<!-- Node13&#45;&gt;Node3 -->
<g id="edge14" class="edge">
<title>Node13&#45;&gt;Node3</title>
<path fill="none" stroke="#191970" d="M275,-179.3906C275,-170.8657 275,-158.1392 275,-147.4235"/>
<polygon fill="#191970" stroke="#191970" points="278.5001,-147.2448 275,-137.2449 271.5001,-147.2449 278.5001,-147.2448"/>
</g>
<!-- Node14&#45;&gt;Node2 -->
<g id="edge18" class="edge">
<title>Node14&#45;&gt;Node2</title>
<path fill="none" stroke="#191970" d="M411.7744,-235.2455C407.6877,-227.617 401.8865,-216.7881 396.925,-207.5267"/>
<polygon fill="#191970" stroke="#191970" points="399.9732,-205.8047 392.1657,-198.6427 393.8028,-209.1103 399.9732,-205.8047"/>
</g>
<!-- Node15 -->
<g id="node16" class="node">
<title>Node15</title>
<g id="a_node16"><a xlink:href="_multithreading_8hpp.html" target="_top" xlink:title="kryne&#45;engine/Utils\l/Multithreading.hpp">
<polygon fill="#ffffff" stroke="#000000" points="431.5,-112.5 431.5,-142.5 530.5,-142.5 530.5,-112.5 431.5,-112.5"/>
<text text-anchor="start" x="439.5" y="-130.5" font-family="Helvetica,sans-Serif" font-size="10.00" fill="#000000">kryne&#45;engine/Utils</text>
<text text-anchor="middle" x="481" y="-119.5" font-family="Helvetica,sans-Serif" font-size="10.00" fill="#000000">/Multithreading.hpp</text>
</a>
</g>
</g>
<!-- Node14&#45;&gt;Node15 -->
<g id="edge16" class="edge">
<title>Node14&#45;&gt;Node15</title>
<path fill="none" stroke="#191970" d="M425.2921,-235.2435C432.6736,-226.2412 443.4423,-212.2955 451,-199 459.5115,-184.0266 467.0087,-166.1605 472.3794,-152.0333"/>
<polygon fill="#191970" stroke="#191970" points="475.7182,-153.0954 475.8984,-142.5021 469.1515,-150.6709 475.7182,-153.0954"/>
</g>
<!-- Node15&#45;&gt;Node5 -->
<g id="edge17" class="edge">
<title>Node15&#45;&gt;Node5</title>
<path fill="none" stroke="#191970" d="M481.9888,-112.2977C482.5035,-104.3834 483.1396,-94.6043 483.6943,-86.0759"/>
<polygon fill="#191970" stroke="#191970" points="487.203,-86.053 484.3595,-75.8469 480.2178,-85.5986 487.203,-86.053"/>
</g>
</g>
</svg>
