<?xml version="1.0" encoding="UTF-8" standalone="no"?>
<!DOCTYPE svg PUBLIC "-//W3C//DTD SVG 1.1//EN"
 "http://www.w3.org/Graphics/SVG/1.1/DTD/svg11.dtd">
<!-- Generated by graphviz version 2.40.1 (20161225.0304)
 -->
<!-- Title: kryne&#45;engine/include/kryne&#45;engine/Core/Entity.h Pages: 1 -->
<svg width="2846pt" height="654pt"
 viewBox="0.00 0.00 2845.92 654.00" xmlns="http://www.w3.org/2000/svg" xmlns:xlink="http://www.w3.org/1999/xlink">
<g id="graph0" class="graph" transform="scale(1 1) rotate(0) translate(4 650)">
<title>kryne&#45;engine/include/kryne&#45;engine/Core/Entity.h</title>
<polygon fill="#ffffff" stroke="transparent" points="-4,4 -4,-650 2841.9166,-650 2841.9166,4 -4,4"/>
<!-- Node0 -->
<g id="node1" class="node">
<title>Node0</title>
<polygon fill="#bfbfbf" stroke="#000000" points="1508.8723,-615.5 1508.8723,-645.5 1644.8723,-645.5 1644.8723,-615.5 1508.8723,-615.5"/>
<text text-anchor="start" x="1516.8723" y="-633.5" font-family="Helvetica,sans-Serif" font-size="10.00" fill="#000000">kryne&#45;engine/include</text>
<text text-anchor="middle" x="1576.8723" y="-622.5" font-family="Helvetica,sans-Serif" font-size="10.00" fill="#000000">/kryne&#45;engine/Core/Entity.h</text>
</g>
<!-- Node1 -->
<g id="node2" class="node">
<title>Node1</title>
<polygon fill="#ffffff" stroke="#bfbfbf" points="995.8723,-559.5 995.8723,-578.5 1041.8723,-578.5 1041.8723,-559.5 995.8723,-559.5"/>
<text text-anchor="middle" x="1018.8723" y="-566.5" font-family="Helvetica,sans-Serif" font-size="10.00" fill="#000000">atomic</text>
</g>
<!-- Node0&#45;&gt;Node1 -->
<g id="edge1" class="edge">
<title>Node0&#45;&gt;Node1</title>
<path fill="none" stroke="#191970" d="M1508.5143,-627.3531C1408.4629,-621.9335 1216.5749,-608.4499 1055.8723,-579 1054.6206,-578.7706 1053.3494,-578.5197 1052.0686,-578.2517"/>
<polygon fill="#191970" stroke="#191970" points="1052.7622,-574.8194 1042.2266,-575.9385 1051.1605,-581.6337 1052.7622,-574.8194"/>
</g>
<!-- Node2 -->
<g id="node3" class="node">
<title>Node2</title>
<polygon fill="#ffffff" stroke="#bfbfbf" points="1410.8723,-241 1410.8723,-260 1454.8723,-260 1454.8723,-241 1410.8723,-241"/>
<text text-anchor="middle" x="1432.8723" y="-248" font-family="Helvetica,sans-Serif" font-size="10.00" fill="#000000">vector</text>
</g>
<!-- Node0&#45;&gt;Node2 -->
<g id="edge2" class="edge">
<title>Node0&#45;&gt;Node2</title>
<path fill="none" stroke="#191970" d="M1508.8267,-620.7711C1447.0757,-608.4423 1357.6933,-581.288 1303.8723,-523 1236.3608,-449.8851 1208.911,-382.1696 1267.8723,-302 1283.6815,-280.5042 1357.1509,-264.0211 1400.5412,-255.9595"/>
<polygon fill="#191970" stroke="#191970" points="1401.3935,-259.3623 1410.6114,-254.1391 1400.1482,-252.4739 1401.3935,-259.3623"/>
</g>
<!-- Node3 -->
<g id="node4" class="node">
<title>Node3</title>
<polygon fill="#ffffff" stroke="#bfbfbf" points="1276.8723,-308 1276.8723,-327 1354.8723,-327 1354.8723,-308 1276.8723,-308"/>
<text text-anchor="middle" x="1315.8723" y="-315" font-family="Helvetica,sans-Serif" font-size="10.00" fill="#000000">unordered_set</text>
</g>
<!-- Node0&#45;&gt;Node3 -->
<g id="edge3" class="edge">
<title>Node0&#45;&gt;Node3</title>
<path fill="none" stroke="#191970" d="M1508.6754,-620.8562C1410.203,-604.9857 1239.8723,-569.3847 1239.8723,-513 1239.8723,-513 1239.8723,-513 1239.8723,-451.5 1239.8723,-404.1632 1276.2004,-358.2294 1298.6238,-334.3856"/>
<polygon fill="#191970" stroke="#191970" points="1301.1684,-336.7892 1305.6226,-327.1761 1296.1458,-331.9133 1301.1684,-336.7892"/>
</g>
<!-- Node4 -->
<g id="node5" class="node">
<title>Node4</title>
<polygon fill="#ffffff" stroke="#bfbfbf" points="2737.8723,-.5 2737.8723,-19.5 2781.8723,-19.5 2781.8723,-.5 2737.8723,-.5"/>
<text text-anchor="middle" x="2759.8723" y="-7.5" font-family="Helvetica,sans-Serif" font-size="10.00" fill="#000000">mutex</text>
</g>
<!-- Node0&#45;&gt;Node4 -->
<g id="edge4" class="edge">
<title>Node0&#45;&gt;Node4</title>
<path fill="none" stroke="#191970" d="M1644.9032,-628.9758C1842.14,-624.2533 2411.8798,-608.3858 2595.8723,-579 2705.9609,-561.4175 2837.8723,-624.4838 2837.8723,-513 2837.8723,-513 2837.8723,-513 2837.8723,-133 2837.8723,-97.7513 2838.0492,-85.5756 2818.8723,-56 2810.7075,-43.4077 2797.8936,-32.8114 2786.2907,-24.9747"/>
<polygon fill="#191970" stroke="#191970" points="2788.0651,-21.9552 2777.751,-19.5324 2784.3031,-27.8583 2788.0651,-21.9552"/>
</g>
<!-- Node5 -->
<g id="node6" class="node">
<title>Node5</title>
<polygon fill="#ffffff" stroke="#bfbfbf" points="2712.8723,-241 2712.8723,-260 2760.8723,-260 2760.8723,-241 2712.8723,-241"/>
<text text-anchor="middle" x="2736.8723" y="-248" font-family="Helvetica,sans-Serif" font-size="10.00" fill="#000000">imgui.h</text>
</g>
<!-- Node0&#45;&gt;Node5 -->
<g id="edge5" class="edge">
<title>Node0&#45;&gt;Node5</title>
<path fill="none" stroke="#191970" d="M1645.0352,-629.2558C1788.1751,-625.9966 2130.3331,-614.8115 2414.8723,-579 2569.7643,-559.5056 2759.8723,-669.1139 2759.8723,-513 2759.8723,-513 2759.8723,-513 2759.8723,-384.5 2759.8723,-343.1928 2749.1244,-295.7421 2742.323,-269.85"/>
<polygon fill="#191970" stroke="#191970" points="2745.6888,-268.8888 2739.6926,-260.1541 2738.933,-270.7216 2745.6888,-268.8888"/>
</g>
<!-- Node6 -->
<g id="node7" class="node">
<title>Node6</title>
<g id="a_node7"><a xlink:href="_transform_8h.html" target="_top" xlink:title="kryne&#45;engine/3DObjects\l/Transform.h">
<polygon fill="#ffffff" stroke="#000000" points="626.8723,-436.5 626.8723,-466.5 748.8723,-466.5 748.8723,-436.5 626.8723,-436.5"/>
<text text-anchor="start" x="634.8723" y="-454.5" font-family="Helvetica,sans-Serif" font-size="10.00" fill="#000000">kryne&#45;engine/3DObjects</text>
<text text-anchor="middle" x="687.8723" y="-443.5" font-family="Helvetica,sans-Serif" font-size="10.00" fill="#000000">/Transform.h</text>
</a>
</g>
</g>
<!-- Node0&#45;&gt;Node6 -->
<g id="edge6" class="edge">
<title>Node0&#45;&gt;Node6</title>
<path fill="none" stroke="#191970" d="M1508.6142,-627.6885C1415.6875,-622.7154 1244.9581,-609.8143 1102.8723,-579 1074.9894,-572.953 1069.1091,-567.4961 1041.8723,-559 936.9175,-526.261 814.1383,-490.4093 744.149,-469.4904"/>
<polygon fill="#191970" stroke="#191970" points="744.798,-466.0312 734.2142,-466.5146 742.7893,-472.7369 744.798,-466.0312"/>
</g>
<!-- Node41 -->
<g id="node22" class="node">
<title>Node41</title>
<g id="a_node22"><a xlink:href="_component_8h.html" target="_top" xlink:title="Component.h">
<polygon fill="#ffffff" stroke="#000000" points="2656.3723,-308 2656.3723,-327 2731.3723,-327 2731.3723,-308 2656.3723,-308"/>
<text text-anchor="middle" x="2693.8723" y="-315" font-family="Helvetica,sans-Serif" font-size="10.00" fill="#000000">Component.h</text>
</a>
</g>
</g>
<!-- Node0&#45;&gt;Node41 -->
<g id="edge27" class="edge">
<title>Node0&#45;&gt;Node41</title>
<path fill="none" stroke="#191970" d="M1644.9071,-626.6056C1883.2857,-612.8813 2665.8723,-564.7926 2665.8723,-513 2665.8723,-513 2665.8723,-513 2665.8723,-451.5 2665.8723,-410.381 2674.751,-362.8611 2683.2446,-336.9065"/>
<polygon fill="#191970" stroke="#191970" points="2686.6536,-337.7782 2686.8341,-327.1849 2680.087,-335.3536 2686.6536,-337.7782"/>
</g>
<!-- Node42 -->
<g id="node24" class="node">
<title>Node42</title>
<g id="a_node24"><a xlink:href="_process_8h.html" target="_top" xlink:title="Process.h">
<polygon fill="#ffffff" stroke="#000000" points="1696.3723,-559.5 1696.3723,-578.5 1757.3723,-578.5 1757.3723,-559.5 1696.3723,-559.5"/>
<text text-anchor="middle" x="1726.8723" y="-566.5" font-family="Helvetica,sans-Serif" font-size="10.00" fill="#000000">Process.h</text>
</a>
</g>
</g>
<!-- Node0&#45;&gt;Node42 -->
<g id="edge32" class="edge">
<title>Node0&#45;&gt;Node42</title>
<path fill="none" stroke="#191970" d="M1607.6694,-615.4554C1631.2664,-605.284 1663.7973,-591.9787 1688.9791,-582.2155"/>
<polygon fill="#191970" stroke="#191970" points="1690.4988,-585.3812 1698.5806,-578.5303 1687.9905,-578.846 1690.4988,-585.3812"/>
</g>
<!-- Node6&#45;&gt;Node0 -->
<g id="edge26" class="edge">
<title>Node6&#45;&gt;Node0</title>
<path fill="none" stroke="#191970" d="M746.4148,-466.5146C820.0186,-486.8753 949.7558,-524.6508 1059.8723,-559 1087.1091,-567.4961 1092.9894,-572.953 1120.8723,-579 1251.8947,-607.415 1407.2737,-620.5977 1498.7173,-626.3779"/>
<polygon fill="#191970" stroke="#191970" points="1498.5299,-629.8729 1508.727,-626.9972 1498.9622,-622.8863 1498.5299,-629.8729"/>
</g>
<!-- Node6&#45;&gt;Node2 -->
<g id="edge8" class="edge">
<title>Node6&#45;&gt;Node2</title>
<path fill="none" stroke="#191970" d="M749.1292,-447.1049C831.3625,-440.3305 972.2859,-425.3914 1016.8723,-400 1065.9755,-372.0364 1048.7309,-329.8963 1097.8723,-302 1149.3287,-272.7895 1326.6809,-257.6908 1400.3697,-252.5589"/>
<polygon fill="#191970" stroke="#191970" points="1400.7225,-256.0431 1410.4623,-251.8736 1400.2482,-249.0592 1400.7225,-256.0431"/>
</g>
<!-- Node7 -->
<g id="node8" class="node">
<title>Node7</title>
<polygon fill="#ffffff" stroke="#bfbfbf" points="1508.8723,-.5 1508.8723,-19.5 1560.8723,-19.5 1560.8723,-.5 1508.8723,-.5"/>
<text text-anchor="middle" x="1534.8723" y="-7.5" font-family="Helvetica,sans-Serif" font-size="10.00" fill="#000000">memory</text>
</g>
<!-- Node6&#45;&gt;Node7 -->
<g id="edge7" class="edge">
<title>Node6&#45;&gt;Node7</title>
<path fill="none" stroke="#191970" d="M749.0553,-448.6603C825.6635,-443.8211 950.8805,-431.2538 983.8723,-400 1011.1881,-374.1233 1002.8723,-355.1265 1002.8723,-317.5 1002.8723,-317.5 1002.8723,-317.5 1002.8723,-133 1002.8723,-30.9725 1378.997,-13.5602 1498.7298,-10.602"/>
<polygon fill="#191970" stroke="#191970" points="1498.935,-14.0983 1508.8527,-10.3717 1498.7757,-7.1001 1498.935,-14.0983"/>
</g>
<!-- Node8 -->
<g id="node9" class="node">
<title>Node8</title>
<polygon fill="#ffffff" stroke="#bfbfbf" points="203.3723,-375 203.3723,-394 246.3723,-394 246.3723,-375 203.3723,-375"/>
<text text-anchor="middle" x="224.8723" y="-382" font-family="Helvetica,sans-Serif" font-size="10.00" fill="#000000">queue</text>
</g>
<!-- Node6&#45;&gt;Node8 -->
<g id="edge9" class="edge">
<title>Node6&#45;&gt;Node8</title>
<path fill="none" stroke="#191970" d="M626.612,-446.8104C524.4491,-438.553 323.793,-420.3535 255.8723,-400 254.208,-399.5013 252.5247,-398.9178 250.8479,-398.2752"/>
<polygon fill="#191970" stroke="#191970" points="252.053,-394.9808 241.4928,-394.1238 249.2137,-401.3791 252.053,-394.9808"/>
</g>
<!-- Node9 -->
<g id="node10" class="node">
<title>Node9</title>
<polygon fill="#ffffff" stroke="#bfbfbf" points="264.8723,-375 264.8723,-394 334.8723,-394 334.8723,-375 264.8723,-375"/>
<text text-anchor="middle" x="299.8723" y="-382" font-family="Helvetica,sans-Serif" font-size="10.00" fill="#000000">glm/glm.hpp</text>
</g>
<!-- Node6&#45;&gt;Node9 -->
<g id="edge10" class="edge">
<title>Node6&#45;&gt;Node9</title>
<path fill="none" stroke="#191970" d="M626.6004,-445.8794C557.2652,-438.702 441.3017,-424.22 343.8723,-400 340.6498,-399.1989 337.3309,-398.2568 334.0292,-397.2395"/>
<polygon fill="#191970" stroke="#191970" points="334.8819,-393.8354 324.2888,-394.0274 332.6896,-400.4832 334.8819,-393.8354"/>
</g>
<!-- Node10 -->
<g id="node11" class="node">
<title>Node10</title>
<polygon fill="#ffffff" stroke="#bfbfbf" points="352.8723,-375 352.8723,-394 444.8723,-394 444.8723,-375 352.8723,-375"/>
<text text-anchor="middle" x="398.8723" y="-382" font-family="Helvetica,sans-Serif" font-size="10.00" fill="#000000">glm/common.hpp</text>
</g>
<!-- Node6&#45;&gt;Node10 -->
<g id="edge11" class="edge">
<title>Node6&#45;&gt;Node10</title>
<path fill="none" stroke="#191970" d="M626.5507,-439.0207C579.2142,-429.1421 512.1757,-414.6182 453.8723,-400 449.8128,-398.9822 445.5975,-397.8788 441.3882,-396.7459"/>
<polygon fill="#191970" stroke="#191970" points="442.2228,-393.3456 431.6531,-394.0747 440.3705,-400.0961 442.2228,-393.3456"/>
</g>
<!-- Node11 -->
<g id="node12" class="node">
<title>Node11</title>
<polygon fill="#ffffff" stroke="#bfbfbf" points="463.3723,-375 463.3723,-394 544.3723,-394 544.3723,-375 463.3723,-375"/>
<text text-anchor="middle" x="503.8723" y="-382" font-family="Helvetica,sans-Serif" font-size="10.00" fill="#000000">glm/matrix.hpp</text>
</g>
<!-- Node6&#45;&gt;Node11 -->
<g id="edge12" class="edge">
<title>Node6&#45;&gt;Node11</title>
<path fill="none" stroke="#191970" d="M646.5791,-436.4639C614.3591,-424.7316 570.0722,-408.6054 539.4176,-397.4431"/>
<polygon fill="#191970" stroke="#191970" points="540.5704,-394.1381 529.9764,-394.0053 538.1753,-400.7156 540.5704,-394.1381"/>
</g>
<!-- Node12 -->
<g id="node13" class="node">
<title>Node12</title>
<polygon fill="#ffffff" stroke="#bfbfbf" points="30.3723,-241 30.3723,-260 105.3723,-260 105.3723,-241 30.3723,-241"/>
<text text-anchor="middle" x="67.8723" y="-248" font-family="Helvetica,sans-Serif" font-size="10.00" fill="#000000">glm/vec3.hpp</text>
</g>
<!-- Node6&#45;&gt;Node12 -->
<g id="edge13" class="edge">
<title>Node6&#45;&gt;Node12</title>
<path fill="none" stroke="#191970" d="M626.601,-449.0627C464.1887,-442.3072 33.5915,-422.3602 12.8723,-400 -22.6934,-361.6173 24.3597,-298.304 51.3324,-267.8803"/>
<polygon fill="#191970" stroke="#191970" points="54.1675,-269.9657 58.3222,-260.2195 48.9965,-265.2476 54.1675,-269.9657"/>
</g>
<!-- Node13 -->
<g id="node14" class="node">
<title>Node13</title>
<polygon fill="#ffffff" stroke="#bfbfbf" points="562.8723,-375 562.8723,-394 678.8723,-394 678.8723,-375 562.8723,-375"/>
<text text-anchor="middle" x="620.8723" y="-382" font-family="Helvetica,sans-Serif" font-size="10.00" fill="#000000">glm/gtc/quaternion.hpp</text>
</g>
<!-- Node6&#45;&gt;Node13 -->
<g id="edge14" class="edge">
<title>Node6&#45;&gt;Node13</title>
<path fill="none" stroke="#191970" d="M672.669,-436.2967C662.2301,-425.8578 648.372,-411.9997 637.617,-401.2446"/>
<polygon fill="#191970" stroke="#191970" points="639.9733,-398.6512 630.4273,-394.055 635.0235,-403.601 639.9733,-398.6512"/>
</g>
<!-- Node14 -->
<g id="node15" class="node">
<title>Node14</title>
<polygon fill="#ffffff" stroke="#bfbfbf" points="696.8723,-375 696.8723,-394 812.8723,-394 812.8723,-375 696.8723,-375"/>
<text text-anchor="middle" x="754.8723" y="-382" font-family="Helvetica,sans-Serif" font-size="10.00" fill="#000000">glm/gtx/quaternion.hpp</text>
</g>
<!-- Node6&#45;&gt;Node14 -->
<g id="edge15" class="edge">
<title>Node6&#45;&gt;Node14</title>
<path fill="none" stroke="#191970" d="M703.0757,-436.2967C713.5146,-425.8578 727.3727,-411.9997 738.1277,-401.2446"/>
<polygon fill="#191970" stroke="#191970" points="740.7212,-403.601 745.3174,-394.055 735.7714,-398.6512 740.7212,-403.601"/>
</g>
<!-- Node15 -->
<g id="node16" class="node">
<title>Node15</title>
<polygon fill="#ffffff" stroke="#bfbfbf" points="830.8723,-375 830.8723,-394 974.8723,-394 974.8723,-375 830.8723,-375"/>
<text text-anchor="middle" x="902.8723" y="-382" font-family="Helvetica,sans-Serif" font-size="10.00" fill="#000000">glm/gtc/matrix_transform.hpp</text>
</g>
<!-- Node6&#45;&gt;Node15 -->
<g id="edge16" class="edge">
<title>Node6&#45;&gt;Node15</title>
<path fill="none" stroke="#191970" d="M736.1225,-436.4639C774.2599,-424.5792 826.8657,-408.1858 862.7259,-397.0108"/>
<polygon fill="#191970" stroke="#191970" points="863.8645,-400.322 872.3703,-394.0053 861.7818,-393.639 863.8645,-400.322"/>
</g>
<!-- Node16 -->
<g id="node17" class="node">
<title>Node16</title>
<g id="a_node17"><a xlink:href="_transform_8hpp.html" target="_top" xlink:title="kryne&#45;engine/Math/Transform.hpp">
<polygon fill="#ffffff" stroke="#000000" points="22.3723,-375 22.3723,-394 185.3723,-394 185.3723,-375 22.3723,-375"/>
<text text-anchor="middle" x="103.8723" y="-382" font-family="Helvetica,sans-Serif" font-size="10.00" fill="#000000">kryne&#45;engine/Math/Transform.hpp</text>
</a>
</g>
</g>
<!-- Node6&#45;&gt;Node16 -->
<g id="edge17" class="edge">
<title>Node6&#45;&gt;Node16</title>
<path fill="none" stroke="#191970" d="M626.4882,-446.426C532.9261,-438.3932 349.12,-421.4366 193.8723,-400 184.7604,-398.7418 175.1562,-397.2579 165.7508,-395.7151"/>
<polygon fill="#191970" stroke="#191970" points="166.0962,-392.2243 155.6557,-394.0258 164.9408,-399.1283 166.0962,-392.2243"/>
</g>
<!-- Node18 -->
<g id="node19" class="node">
<title>Node18</title>
<g id="a_node19"><a xlink:href="_scene_8h.html" target="_top" xlink:title="Scene.h">
<polygon fill="#ffffff" stroke="#000000" points="1120.3723,-375 1120.3723,-394 1173.3723,-394 1173.3723,-375 1120.3723,-375"/>
<text text-anchor="middle" x="1146.8723" y="-382" font-family="Helvetica,sans-Serif" font-size="10.00" fill="#000000">Scene.h</text>
</a>
</g>
</g>
<!-- Node6&#45;&gt;Node18 -->
<g id="edge20" class="edge">
<title>Node6&#45;&gt;Node18</title>
<path fill="none" stroke="#191970" d="M748.9884,-443.4467C821.8916,-433.7194 947.4114,-416.589 1054.8723,-400 1073.1661,-397.1759 1093.4609,-393.7844 1110.3244,-390.8948"/>
<polygon fill="#191970" stroke="#191970" points="1111.0721,-394.3176 1120.3323,-389.17 1109.8832,-387.4193 1111.0721,-394.3176"/>
</g>
<!-- Node16&#45;&gt;Node12 -->
<g id="edge18" class="edge">
<title>Node16&#45;&gt;Node12</title>
<path fill="none" stroke="#191970" d="M100.3405,-374.7102C96.6958,-364.4112 90.979,-347.6899 86.8723,-333 80.9564,-311.8381 75.4704,-287.257 71.9297,-270.4673"/>
<polygon fill="#191970" stroke="#191970" points="75.264,-269.3081 69.8079,-260.2261 68.4095,-270.7283 75.264,-269.3081"/>
</g>
<!-- Node17 -->
<g id="node18" class="node">
<title>Node17</title>
<polygon fill="#ffffff" stroke="#bfbfbf" points="95.8723,-308 95.8723,-327 181.8723,-327 181.8723,-308 95.8723,-308"/>
<text text-anchor="middle" x="138.8723" y="-315" font-family="Helvetica,sans-Serif" font-size="10.00" fill="#000000">glm/mat3x3.hpp</text>
</g>
<!-- Node16&#45;&gt;Node17 -->
<g id="edge19" class="edge">
<title>Node16&#45;&gt;Node17</title>
<path fill="none" stroke="#191970" d="M108.887,-374.9005C114.137,-364.8505 122.5152,-348.8122 129.0826,-336.2403"/>
<polygon fill="#191970" stroke="#191970" points="132.339,-337.5657 133.867,-327.0817 126.1345,-334.3246 132.339,-337.5657"/>
</g>
<!-- Node18&#45;&gt;Node0 -->
<g id="edge23" class="edge">
<title>Node18&#45;&gt;Node0</title>
<path fill="none" stroke="#191970" d="M1147.5586,-394.1464C1150.4045,-426.3173 1164.2258,-530.6268 1225.8723,-579 1267.0457,-611.3082 1408.2447,-623.4168 1498.5157,-627.9066"/>
<polygon fill="#191970" stroke="#191970" points="1498.5619,-631.4126 1508.7171,-628.3924 1498.895,-624.4206 1498.5619,-631.4126"/>
</g>
<!-- Node18&#45;&gt;Node3 -->
<g id="edge21" class="edge">
<title>Node18&#45;&gt;Node3</title>
<path fill="none" stroke="#191970" d="M1171.0859,-374.9005C1200.2009,-363.3579 1249.2402,-343.9163 1282.0741,-330.8993"/>
<polygon fill="#191970" stroke="#191970" points="1283.6975,-334.0208 1291.7037,-327.0817 1281.1176,-327.5135 1283.6975,-334.0208"/>
</g>
<!-- Node18&#45;&gt;Node7 -->
<g id="edge22" class="edge">
<title>Node18&#45;&gt;Node7</title>
<path fill="none" stroke="#191970" d="M1134.4576,-374.8262C1123.1922,-365.3707 1106.9915,-349.9558 1097.8723,-333 1080.0502,-299.8621 1078.8723,-288.1265 1078.8723,-250.5 1078.8723,-250.5 1078.8723,-250.5 1078.8723,-133 1078.8723,-46.2069 1390.7099,-18.8477 1498.6339,-11.9779"/>
<polygon fill="#191970" stroke="#191970" points="1498.9515,-15.4651 1508.718,-11.3583 1498.5221,-8.4782 1498.9515,-15.4651"/>
</g>
<!-- Node19 -->
<g id="node20" class="node">
<title>Node19</title>
<g id="a_node20"><a xlink:href="_environment_map_8hpp.html" target="_top" xlink:title="kryne&#45;engine/Textures\l/EnvironmentMap.hpp">
<polygon fill="#ffffff" stroke="#000000" points="1107.3723,-302.5 1107.3723,-332.5 1220.3723,-332.5 1220.3723,-302.5 1107.3723,-302.5"/>
<text text-anchor="start" x="1115.3723" y="-320.5" font-family="Helvetica,sans-Serif" font-size="10.00" fill="#000000">kryne&#45;engine/Textures</text>
<text text-anchor="middle" x="1163.8723" y="-309.5" font-family="Helvetica,sans-Serif" font-size="10.00" fill="#000000">/EnvironmentMap.hpp</text>
</a>
</g>
</g>
<!-- Node18&#45;&gt;Node19 -->
<g id="edge24" class="edge">
<title>Node18&#45;&gt;Node19</title>
<path fill="none" stroke="#191970" d="M1149.308,-374.9005C1151.459,-366.4234 1154.6909,-353.6856 1157.5642,-342.3614"/>
<polygon fill="#191970" stroke="#191970" points="1160.9939,-343.0754 1160.0608,-332.5218 1154.2089,-341.3538 1160.9939,-343.0754"/>
</g>
<!-- Node20 -->
<g id="node21" class="node">
<title>Node20</title>
<g id="a_node21"><a xlink:href="_cube_texture_8h.html" target="_top" xlink:title="CubeTexture.h">
<polygon fill="#ffffff" stroke="#ff0000" points="1123.3723,-241 1123.3723,-260 1204.3723,-260 1204.3723,-241 1123.3723,-241"/>
<text text-anchor="middle" x="1163.8723" y="-248" font-family="Helvetica,sans-Serif" font-size="10.00" fill="#000000">CubeTexture.h</text>
</a>
</g>
</g>
<!-- Node19&#45;&gt;Node20 -->
<g id="edge25" class="edge">
<title>Node19&#45;&gt;Node20</title>
<path fill="none" stroke="#191970" d="M1163.8723,-302.2967C1163.8723,-292.7699 1163.8723,-280.3954 1163.8723,-270.1306"/>
<polygon fill="#191970" stroke="#191970" points="1167.3724,-270.0549 1163.8723,-260.055 1160.3724,-270.055 1167.3724,-270.0549"/>
</g>
<!-- Node41&#45;&gt;Node0 -->
<g id="edge31" class="edge">
<title>Node41&#45;&gt;Node0</title>
<path fill="none" stroke="#191970" d="M2696.251,-327.1849C2695.469,-349.1534 2683.8723,-404.5068 2683.8723,-451.5 2683.8723,-513 2683.8723,-513 2683.8723,-513 2683.8723,-564.5867 1907.4934,-612.4991 1655.0724,-626.4403"/>
<polygon fill="#191970" stroke="#191970" points="1654.674,-622.9568 1644.8812,-627.0004 1655.0582,-629.9463 1654.674,-622.9568"/>
</g>
<!-- Node41&#45;&gt;Node2 -->
<g id="edge28" class="edge">
<title>Node41&#45;&gt;Node2</title>
<path fill="none" stroke="#191970" d="M2669.8623,-307.9855C2662.8777,-305.6094 2655.1636,-303.3546 2647.8723,-302 2411.4966,-258.0864 1634.0654,-251.5472 1465.3595,-250.6387"/>
<polygon fill="#191970" stroke="#191970" points="1465.1573,-247.1378 1455.1396,-250.5867 1465.1216,-254.1377 1465.1573,-247.1378"/>
</g>
<!-- Node41&#45;&gt;Node5 -->
<g id="edge29" class="edge">
<title>Node41&#45;&gt;Node5</title>
<path fill="none" stroke="#191970" d="M2700.0332,-307.9005C2706.6109,-297.6515 2717.1856,-281.1747 2725.3216,-268.4976"/>
<polygon fill="#191970" stroke="#191970" points="2728.2672,-270.388 2730.7229,-260.0817 2722.3761,-266.6071 2728.2672,-270.388"/>
</g>
<!-- Node23 -->
<g id="node23" class="node">
<title>Node23</title>
<polygon fill="#ffffff" stroke="#bfbfbf" points="2638.3723,-241 2638.3723,-260 2679.3723,-260 2679.3723,-241 2638.3723,-241"/>
<text text-anchor="middle" x="2658.8723" y="-248" font-family="Helvetica,sans-Serif" font-size="10.00" fill="#000000">string</text>
</g>
<!-- Node41&#45;&gt;Node23 -->
<g id="edge30" class="edge">
<title>Node41&#45;&gt;Node23</title>
<path fill="none" stroke="#191970" d="M2688.8577,-307.9005C2683.6077,-297.8505 2675.2295,-281.8122 2668.6621,-269.2403"/>
<polygon fill="#191970" stroke="#191970" points="2671.6101,-267.3246 2663.8777,-260.0817 2665.4057,-270.5657 2671.6101,-267.3246"/>
</g>
<!-- Node42&#45;&gt;Node0 -->
<g id="edge58" class="edge">
<title>Node42&#45;&gt;Node0</title>
<path fill="none" stroke="#191970" d="M1708.6747,-578.5303C1688.8949,-587.3511 1656.7012,-600.7185 1629.0335,-611.6871"/>
<polygon fill="#191970" stroke="#191970" points="1627.4858,-608.5349 1619.4636,-615.4554 1630.0506,-615.0481 1627.4858,-608.5349"/>
</g>
<!-- Node42&#45;&gt;Node3 -->
<g id="edge35" class="edge">
<title>Node42&#45;&gt;Node3</title>
<path fill="none" stroke="#191970" d="M1696.0658,-567.1184C1634.3925,-562.8057 1498.5274,-550.3948 1461.8723,-523 1427.3234,-497.1792 1447.4789,-468.2802 1418.8723,-436 1399.4957,-414.135 1383.98,-421.1946 1363.8723,-400 1345.9487,-381.1075 1331.942,-354.3197 1323.7978,-336.4502"/>
<polygon fill="#191970" stroke="#191970" points="1326.9141,-334.8411 1319.6948,-327.0866 1320.5026,-337.6506 1326.9141,-334.8411"/>
</g>
<!-- Node42&#45;&gt;Node7 -->
<g id="edge33" class="edge">
<title>Node42&#45;&gt;Node7</title>
<path fill="none" stroke="#191970" d="M1696.1492,-562.3361C1665.8295,-555.0738 1618.6608,-541.9084 1580.8723,-523 1569.6266,-517.3729 1412.3504,-402.3406 1410.8723,-400 1374.7783,-342.8428 1382.8723,-318.0998 1382.8723,-250.5 1382.8723,-250.5 1382.8723,-250.5 1382.8723,-133 1382.8723,-73.5099 1454.1019,-37.8285 1499.0399,-21.2372"/>
<polygon fill="#191970" stroke="#191970" points="1500.4864,-24.4379 1508.7426,-17.7983 1498.1479,-17.8401 1500.4864,-24.4379"/>
</g>
<!-- Node43 -->
<g id="node25" class="node">
<title>Node43</title>
<polygon fill="#ffffff" stroke="#bfbfbf" points="2361.3723,-241 2361.3723,-260 2444.3723,-260 2444.3723,-241 2361.3723,-241"/>
<text text-anchor="middle" x="2402.8723" y="-248" font-family="Helvetica,sans-Serif" font-size="10.00" fill="#000000">unordered_map</text>
</g>
<!-- Node42&#45;&gt;Node43 -->
<g id="edge34" class="edge">
<title>Node42&#45;&gt;Node43</title>
<path fill="none" stroke="#191970" d="M1757.4613,-567.8078C1864.6432,-563.4554 2222.7726,-547.392 2334.8723,-523 2418.9845,-504.6979 2514.8723,-537.5804 2514.8723,-451.5 2514.8723,-451.5 2514.8723,-451.5 2514.8723,-384.5 2514.8723,-344.6701 2505.2643,-332.6866 2479.8723,-302 2467.0164,-286.4633 2448.2811,-273.7912 2432.5103,-264.9049"/>
<polygon fill="#191970" stroke="#191970" points="2434.0971,-261.7841 2423.6342,-260.1172 2430.7739,-267.945 2434.0971,-261.7841"/>
</g>
<!-- Node24 -->
<g id="node26" class="node">
<title>Node24</title>
<polygon fill="#ffffff" stroke="#bfbfbf" points="2191.8723,-.5 2191.8723,-19.5 2245.8723,-19.5 2245.8723,-.5 2191.8723,-.5"/>
<text text-anchor="middle" x="2218.8723" y="-7.5" font-family="Helvetica,sans-Serif" font-size="10.00" fill="#000000">iostream</text>
</g>
<!-- Node42&#45;&gt;Node24 -->
<g id="edge36" class="edge">
<title>Node42&#45;&gt;Node24</title>
<path fill="none" stroke="#191970" d="M1757.4251,-568.5804C1897.8241,-566.4797 2477.3837,-555.8694 2550.8723,-523 2659.8873,-474.2407 2673.7429,-431.7693 2740.8723,-333 2766.4051,-295.4329 2795.2024,-272.7041 2769.8723,-235 2649.6645,-56.0695 2359.4661,-19.3459 2256.159,-11.8814"/>
<polygon fill="#191970" stroke="#191970" points="2256.121,-8.3711 2245.9091,-11.1938 2255.6524,-15.3554 2256.121,-8.3711"/>
</g>
<!-- Node44 -->
<g id="node27" class="node">
<title>Node44</title>
<polygon fill="#ffffff" stroke="#bfbfbf" points="1643.3723,-503.5 1643.3723,-522.5 1684.3723,-522.5 1684.3723,-503.5 1643.3723,-503.5"/>
<text text-anchor="middle" x="1663.8723" y="-510.5" font-family="Helvetica,sans-Serif" font-size="10.00" fill="#000000">stack</text>
</g>
<!-- Node42&#45;&gt;Node44 -->
<g id="edge37" class="edge">
<title>Node42&#45;&gt;Node44</title>
<path fill="none" stroke="#191970" d="M1715.8986,-559.2455C1706.6841,-551.0549 1693.3191,-539.1749 1682.4426,-529.5069"/>
<polygon fill="#191970" stroke="#191970" points="1684.5198,-526.6704 1674.7203,-522.6427 1679.8692,-531.9023 1684.5198,-526.6704"/>
</g>
<!-- Node45 -->
<g id="node28" class="node">
<title>Node45</title>
<g id="a_node28"><a xlink:href="_system_types_8h.html" target="_top" xlink:title="kryne&#45;engine/enums\l/SystemTypes.h">
<polygon fill="#ffffff" stroke="#000000" points="1305.8723,-436.5 1305.8723,-466.5 1409.8723,-466.5 1409.8723,-436.5 1305.8723,-436.5"/>
<text text-anchor="start" x="1313.8723" y="-454.5" font-family="Helvetica,sans-Serif" font-size="10.00" fill="#000000">kryne&#45;engine/enums</text>
<text text-anchor="middle" x="1357.8723" y="-443.5" font-family="Helvetica,sans-Serif" font-size="10.00" fill="#000000">/SystemTypes.h</text>
</a>
</g>
</g>
<!-- Node42&#45;&gt;Node45 -->
<g id="edge38" class="edge">
<title>Node42&#45;&gt;Node45</title>
<path fill="none" stroke="#191970" d="M1696.213,-566.9222C1628.9734,-561.9556 1470.8093,-547.9164 1423.8723,-523 1402.8475,-511.839 1384.9723,-491.303 1373.1491,-475.0935"/>
<polygon fill="#191970" stroke="#191970" points="1375.8219,-472.8082 1367.2218,-466.6204 1370.086,-476.8207 1375.8219,-472.8082"/>
</g>
<!-- Node30 -->
<g id="node29" class="node">
<title>Node30</title>
<g id="a_node29"><a xlink:href="_dispatcher_8h.html" target="_top" xlink:title="kryne&#45;engine/Dispatch\l/Dispatcher.h">
<polygon fill="#ffffff" stroke="#000000" points="2228.8723,-235.5 2228.8723,-265.5 2342.8723,-265.5 2342.8723,-235.5 2228.8723,-235.5"/>
<text text-anchor="start" x="2236.8723" y="-253.5" font-family="Helvetica,sans-Serif" font-size="10.00" fill="#000000">kryne&#45;engine/Dispatch</text>
<text text-anchor="middle" x="2285.8723" y="-242.5" font-family="Helvetica,sans-Serif" font-size="10.00" fill="#000000">/Dispatcher.h</text>
</a>
</g>
</g>
<!-- Node42&#45;&gt;Node30 -->
<g id="edge39" class="edge">
<title>Node42&#45;&gt;Node30</title>
<path fill="none" stroke="#191970" d="M1757.6715,-567.4852C1898.8019,-560.1438 2476.8723,-525.5532 2476.8723,-451.5 2476.8723,-451.5 2476.8723,-451.5 2476.8723,-384.5 2476.8723,-346.8735 2483.6056,-329.4509 2457.8723,-302 2450.2755,-293.8961 2397.8139,-278.8504 2352.8041,-267.1056"/>
<polygon fill="#191970" stroke="#191970" points="2353.5954,-263.6951 2343.0374,-264.5776 2351.8413,-270.4718 2353.5954,-263.6951"/>
</g>
<!-- Node46 -->
<g id="node35" class="node">
<title>Node46</title>
<g id="a_node35"><a xlink:href="_unique_ptr_vector_8hpp.html" target="_top" xlink:title="kryne&#45;engine/Utils\l/UniquePtrVector.hpp">
<polygon fill="#ffffff" stroke="#000000" points="1419.8723,-369.5 1419.8723,-399.5 1529.8723,-399.5 1529.8723,-369.5 1419.8723,-369.5"/>
<text text-anchor="start" x="1427.8723" y="-387.5" font-family="Helvetica,sans-Serif" font-size="10.00" fill="#000000">kryne&#45;engine/Utils</text>
<text text-anchor="middle" x="1474.8723" y="-376.5" font-family="Helvetica,sans-Serif" font-size="10.00" fill="#000000">/UniquePtrVector.hpp</text>
</a>
</g>
</g>
<!-- Node42&#45;&gt;Node46 -->
<g id="edge51" class="edge">
<title>Node42&#45;&gt;Node46</title>
<path fill="none" stroke="#191970" d="M1699.7369,-559.4959C1659.9374,-544.5589 1584.9333,-512.5223 1533.8723,-467 1514.9568,-450.1362 1498.6628,-426.1605 1488.0208,-408.3984"/>
<polygon fill="#191970" stroke="#191970" points="1491.0413,-406.6301 1482.9869,-399.747 1484.991,-410.1506 1491.0413,-406.6301"/>
</g>
<!-- Node47 -->
<g id="node36" class="node">
<title>Node47</title>
<g id="a_node36"><a xlink:href="_frame_time_8hpp.html" target="_top" xlink:title="kryne&#45;engine/Utils\l/FrameTime.hpp">
<polygon fill="#ffffff" stroke="#000000" points="2543.3723,-302.5 2543.3723,-332.5 2638.3723,-332.5 2638.3723,-302.5 2543.3723,-302.5"/>
<text text-anchor="start" x="2551.3723" y="-320.5" font-family="Helvetica,sans-Serif" font-size="10.00" fill="#000000">kryne&#45;engine/Utils</text>
<text text-anchor="middle" x="2590.8723" y="-309.5" font-family="Helvetica,sans-Serif" font-size="10.00" fill="#000000">/FrameTime.hpp</text>
</a>
</g>
</g>
<!-- Node42&#45;&gt;Node47 -->
<g id="edge54" class="edge">
<title>Node42&#45;&gt;Node47</title>
<path fill="none" stroke="#191970" d="M1757.4717,-568.2206C1900.5603,-564.4528 2498.0332,-547.309 2528.8723,-523 2584.4511,-479.19 2591.6894,-387.292 2591.7222,-342.76"/>
<polygon fill="#191970" stroke="#191970" points="2595.2192,-342.4745 2591.6004,-332.5169 2588.2197,-342.5578 2595.2192,-342.4745"/>
</g>
<!-- Node49 -->
<g id="node38" class="node">
<title>Node49</title>
<g id="a_node38"><a xlink:href="_system_8h.html" target="_top" xlink:title="System.h">
<polygon fill="#ffffff" stroke="#000000" points="1312.3723,-503.5 1312.3723,-522.5 1371.3723,-522.5 1371.3723,-503.5 1312.3723,-503.5"/>
<text text-anchor="middle" x="1341.8723" y="-510.5" font-family="Helvetica,sans-Serif" font-size="10.00" fill="#000000">System.h</text>
</a>
</g>
</g>
<!-- Node42&#45;&gt;Node49 -->
<g id="edge59" class="edge">
<title>Node42&#45;&gt;Node49</title>
<path fill="none" stroke="#191970" d="M1696.3105,-566.3182C1636.6961,-560.3771 1501.5156,-545.0116 1381.7686,-523.8236"/>
<polygon fill="#191970" stroke="#191970" points="1382.1684,-520.3396 1371.7081,-522.0229 1380.935,-527.2301 1382.1684,-520.3396"/>
</g>
<!-- Node50 -->
<g id="node39" class="node">
<title>Node50</title>
<g id="a_node39"><a xlink:href="_graphic_context_8h.html" target="_top" xlink:title="GraphicContext/GraphicContext.h">
<polygon fill="#ffffff" stroke="#000000" points="1877.8723,-503.5 1877.8723,-522.5 2041.8723,-522.5 2041.8723,-503.5 1877.8723,-503.5"/>
<text text-anchor="middle" x="1959.8723" y="-510.5" font-family="Helvetica,sans-Serif" font-size="10.00" fill="#000000">GraphicContext/GraphicContext.h</text>
</a>
</g>
</g>
<!-- Node42&#45;&gt;Node50 -->
<g id="edge65" class="edge">
<title>Node42&#45;&gt;Node50</title>
<path fill="none" stroke="#191970" d="M1757.8129,-561.5636C1796.7938,-552.1948 1864.2569,-535.9805 1910.4227,-524.8849"/>
<polygon fill="#191970" stroke="#191970" points="1911.3161,-528.2699 1920.2213,-522.5299 1909.6802,-521.4637 1911.3161,-528.2699"/>
</g>
<!-- Node70 -->
<g id="node47" class="node">
<title>Node70</title>
<g id="a_node47"><a xlink:href="_render_mesh_8h.html" target="_top" xlink:title="kryne&#45;engine/Rendering\l/RenderMesh.h">
<polygon fill="#ffffff" stroke="#000000" points="2246.3723,-369.5 2246.3723,-399.5 2365.3723,-399.5 2365.3723,-369.5 2246.3723,-369.5"/>
<text text-anchor="start" x="2254.3723" y="-387.5" font-family="Helvetica,sans-Serif" font-size="10.00" fill="#000000">kryne&#45;engine/Rendering</text>
<text text-anchor="middle" x="2305.8723" y="-376.5" font-family="Helvetica,sans-Serif" font-size="10.00" fill="#000000">/RenderMesh.h</text>
</a>
</g>
</g>
<!-- Node42&#45;&gt;Node70 -->
<g id="edge97" class="edge">
<title>Node42&#45;&gt;Node70</title>
<path fill="none" stroke="#191970" d="M1757.6204,-568.25C1816.1578,-566.0409 1947.033,-557.3301 2050.8723,-523 2138.0498,-494.1784 2230.3439,-436.1969 2276.284,-405.1831"/>
<polygon fill="#191970" stroke="#191970" points="2278.2791,-408.059 2284.575,-399.5377 2274.3393,-402.2729 2278.2791,-408.059"/>
</g>
<!-- Node96 -->
<g id="node50" class="node">
<title>Node96</title>
<g id="a_node50"><a xlink:href="_u_i_renderer_8hpp.html" target="_top" xlink:title="kryne&#45;engine/UI/UIRenderer.hpp">
<polygon fill="#ffffff" stroke="#000000" points="1701.8723,-503.5 1701.8723,-522.5 1859.8723,-522.5 1859.8723,-503.5 1701.8723,-503.5"/>
<text text-anchor="middle" x="1780.8723" y="-510.5" font-family="Helvetica,sans-Serif" font-size="10.00" fill="#000000">kryne&#45;engine/UI/UIRenderer.hpp</text>
</a>
</g>
</g>
<!-- Node42&#45;&gt;Node96 -->
<g id="edge98" class="edge">
<title>Node42&#45;&gt;Node96</title>
<path fill="none" stroke="#191970" d="M1731.0116,-559.2455C1737.3281,-551.0549 1748.4671,-539.1749 1758.7381,-529.5069"/>
<polygon fill="#191970" stroke="#191970" points="1761.2593,-531.9459 1766.3289,-522.6427 1756.5642,-526.7539 1761.2593,-531.9459"/>
</g>
<!-- Node31 -->
<g id="node30" class="node">
<title>Node31</title>
<g id="a_node30"><a xlink:href="_synchronizable_pool_8h.html" target="_top" xlink:title="SynchronizablePool.h">
<polygon fill="#ffffff" stroke="#000000" points="2308.3723,-123.5 2308.3723,-142.5 2419.3723,-142.5 2419.3723,-123.5 2308.3723,-123.5"/>
<text text-anchor="middle" x="2363.8723" y="-130.5" font-family="Helvetica,sans-Serif" font-size="10.00" fill="#000000">SynchronizablePool.h</text>
</a>
</g>
</g>
<!-- Node30&#45;&gt;Node31 -->
<g id="edge40" class="edge">
<title>Node30&#45;&gt;Node31</title>
<path fill="none" stroke="#191970" d="M2292.3566,-235.3683C2299.0519,-220.4547 2310.2736,-197.3068 2322.8723,-179 2329.9502,-168.7154 2339.0955,-158.248 2346.9522,-149.9019"/>
<polygon fill="#191970" stroke="#191970" points="2349.5509,-152.2494 2353.9807,-142.6251 2344.5159,-147.3863 2349.5509,-152.2494"/>
</g>
<!-- Node38 -->
<g id="node32" class="node">
<title>Node38</title>
<g id="a_node32"><a xlink:href="_runner_pool_8h.html" target="_top" xlink:title="RunnerPool.h">
<polygon fill="#ffffff" stroke="#000000" points="2213.8723,-123.5 2213.8723,-142.5 2289.8723,-142.5 2289.8723,-123.5 2213.8723,-123.5"/>
<text text-anchor="middle" x="2251.8723" y="-130.5" font-family="Helvetica,sans-Serif" font-size="10.00" fill="#000000">RunnerPool.h</text>
</a>
</g>
</g>
<!-- Node30&#45;&gt;Node38 -->
<g id="edge45" class="edge">
<title>Node30&#45;&gt;Node38</title>
<path fill="none" stroke="#191970" d="M2281.4274,-235.1389C2275.2739,-213.873 2264.1616,-175.4702 2257.4558,-152.2956"/>
<polygon fill="#191970" stroke="#191970" points="2260.7802,-151.1925 2254.6385,-142.5595 2254.0561,-153.1383 2260.7802,-151.1925"/>
</g>
<!-- Node39 -->
<g id="node33" class="node">
<title>Node39</title>
<g id="a_node33"><a xlink:href="_main_pool_8h.html" target="_top" xlink:title="MainPool.h">
<polygon fill="#ffffff" stroke="#000000" points="2331.3723,-179.5 2331.3723,-198.5 2396.3723,-198.5 2396.3723,-179.5 2331.3723,-179.5"/>
<text text-anchor="middle" x="2363.8723" y="-186.5" font-family="Helvetica,sans-Serif" font-size="10.00" fill="#000000">MainPool.h</text>
</a>
</g>
</g>
<!-- Node30&#45;&gt;Node39 -->
<g id="edge47" class="edge">
<title>Node30&#45;&gt;Node39</title>
<path fill="none" stroke="#191970" d="M2305.1532,-235.2977C2316.7699,-226.1384 2331.5542,-214.4816 2343.3815,-205.1562"/>
<polygon fill="#191970" stroke="#191970" points="2345.6979,-207.787 2351.3836,-198.8469 2341.3638,-202.2901 2345.6979,-207.787"/>
</g>
<!-- Node32 -->
<g id="node31" class="node">
<title>Node32</title>
<g id="a_node31"><a xlink:href="_thread_pool_8h.html" target="_top" xlink:title="ThreadPool.h">
<polygon fill="#ffffff" stroke="#ff0000" points="2214.8723,-62 2214.8723,-81 2288.8723,-81 2288.8723,-62 2214.8723,-62"/>
<text text-anchor="middle" x="2251.8723" y="-69" font-family="Helvetica,sans-Serif" font-size="10.00" fill="#000000">ThreadPool.h</text>
</a>
</g>
</g>
<!-- Node31&#45;&gt;Node32 -->
<g id="edge41" class="edge">
<title>Node31&#45;&gt;Node32</title>
<path fill="none" stroke="#191970" d="M2346.3723,-123.3906C2328.1258,-113.3713 2299.31,-97.5483 2278.2918,-86.0071"/>
<polygon fill="#191970" stroke="#191970" points="2279.6996,-82.7872 2269.2495,-81.0419 2276.3303,-88.923 2279.6996,-82.7872"/>
</g>
<!-- Node32&#45;&gt;Node4 -->
<g id="edge42" class="edge">
<title>Node32&#45;&gt;Node4</title>
<path fill="none" stroke="#191970" d="M2289.2268,-66.9778C2384.8963,-55.3957 2637.5173,-24.8127 2727.4858,-13.9208"/>
<polygon fill="#191970" stroke="#191970" points="2728.123,-17.3693 2737.6298,-12.6927 2727.2816,-10.4201 2728.123,-17.3693"/>
</g>
<!-- Node32&#45;&gt;Node7 -->
<g id="edge43" class="edge">
<title>Node32&#45;&gt;Node7</title>
<path fill="none" stroke="#191970" d="M2214.8331,-68.323C2091.1171,-57.7114 1693.1067,-23.5724 1570.8997,-13.0902"/>
<polygon fill="#191970" stroke="#191970" points="1571.1933,-9.6026 1560.9307,-12.2351 1570.595,-16.577 1571.1933,-9.6026"/>
</g>
<!-- Node32&#45;&gt;Node24 -->
<g id="edge44" class="edge">
<title>Node32&#45;&gt;Node24</title>
<path fill="none" stroke="#191970" d="M2246.7161,-61.8906C2241.9491,-53.0068 2234.7338,-39.5601 2228.8427,-28.5811"/>
<polygon fill="#191970" stroke="#191970" points="2231.9136,-26.9016 2224.1013,-19.7449 2225.7455,-30.2114 2231.9136,-26.9016"/>
</g>
<!-- Node38&#45;&gt;Node32 -->
<g id="edge46" class="edge">
<title>Node38&#45;&gt;Node32</title>
<path fill="none" stroke="#191970" d="M2251.8723,-123.3906C2251.8723,-114.8657 2251.8723,-102.1392 2251.8723,-91.4235"/>
<polygon fill="#191970" stroke="#191970" points="2255.3724,-91.2448 2251.8723,-81.2449 2248.3724,-91.2449 2255.3724,-91.2448"/>
</g>
<!-- Node39&#45;&gt;Node31 -->
<g id="edge50" class="edge">
<title>Node39&#45;&gt;Node31</title>
<path fill="none" stroke="#191970" d="M2363.8723,-179.2455C2363.8723,-171.9382 2363.8723,-161.6944 2363.8723,-152.7046"/>
<polygon fill="#191970" stroke="#191970" points="2367.3724,-152.6426 2363.8723,-142.6427 2360.3724,-152.6427 2367.3724,-152.6426"/>
</g>
<!-- Node40 -->
<g id="node34" class="node">
<title>Node40</title>
<g id="a_node34"><a xlink:href="_multithreading_8hpp.html" target="_top" xlink:title="kryne&#45;engine/Utils\l/Multithreading.hpp">
<polygon fill="#ffffff" stroke="#000000" points="2710.3723,-56.5 2710.3723,-86.5 2809.3723,-86.5 2809.3723,-56.5 2710.3723,-56.5"/>
<text text-anchor="start" x="2718.3723" y="-74.5" font-family="Helvetica,sans-Serif" font-size="10.00" fill="#000000">kryne&#45;engine/Utils</text>
<text text-anchor="middle" x="2759.8723" y="-63.5" font-family="Helvetica,sans-Serif" font-size="10.00" fill="#000000">/Multithreading.hpp</text>
</a>
</g>
</g>
<!-- Node39&#45;&gt;Node40 -->
<g id="edge48" class="edge">
<title>Node39&#45;&gt;Node40</title>
<path fill="none" stroke="#191970" d="M2395.9432,-179.484C2462.2732,-159.8028 2615.4231,-114.3606 2700.3864,-89.1505"/>
<polygon fill="#191970" stroke="#191970" points="2701.5569,-92.4541 2710.1482,-86.254 2699.5657,-85.7433 2701.5569,-92.4541"/>
</g>
<!-- Node40&#45;&gt;Node4 -->
<g id="edge49" class="edge">
<title>Node40&#45;&gt;Node4</title>
<path fill="none" stroke="#191970" d="M2759.8723,-56.2977C2759.8723,-48.3834 2759.8723,-38.6043 2759.8723,-30.0759"/>
<polygon fill="#191970" stroke="#191970" points="2763.3724,-29.8469 2759.8723,-19.8469 2756.3724,-29.847 2763.3724,-29.8469"/>
</g>
<!-- Node46&#45;&gt;Node2 -->
<g id="edge52" class="edge">
<title>Node46&#45;&gt;Node2</title>
<path fill="none" stroke="#191970" d="M1464.0407,-369.4781C1457.4487,-359.587 1449.4434,-346.0903 1444.8723,-333 1437.7389,-312.5716 1434.8446,-287.8673 1433.6711,-270.8481"/>
<polygon fill="#191970" stroke="#191970" points="1437.1429,-270.2345 1433.1026,-260.4404 1430.1533,-270.6164 1437.1429,-270.2345"/>
</g>
<!-- Node46&#45;&gt;Node7 -->
<g id="edge53" class="edge">
<title>Node46&#45;&gt;Node7</title>
<path fill="none" stroke="#191970" d="M1479.0104,-369.36C1485.3832,-344.6714 1496.8723,-294.1144 1496.8723,-250.5 1496.8723,-250.5 1496.8723,-250.5 1496.8723,-133 1496.8723,-94.6461 1513.9475,-52.4423 1525.2058,-28.7843"/>
<polygon fill="#191970" stroke="#191970" points="1528.4646,-30.0892 1529.7475,-19.5723 1522.1862,-26.9938 1528.4646,-30.0892"/>
</g>
<!-- Node47&#45;&gt;Node23 -->
<g id="edge57" class="edge">
<title>Node47&#45;&gt;Node23</title>
<path fill="none" stroke="#191970" d="M2606.3026,-302.2967C2616.8973,-291.8578 2630.9622,-277.9997 2641.8778,-267.2446"/>
<polygon fill="#191970" stroke="#191970" points="2644.508,-269.5666 2649.1748,-260.055 2639.595,-264.5804 2644.508,-269.5666"/>
</g>
<!-- Node47&#45;&gt;Node43 -->
<g id="edge56" class="edge">
<title>Node47&#45;&gt;Node43</title>
<path fill="none" stroke="#191970" d="M2548.6815,-302.4639C2515.761,-290.7316 2470.5113,-274.6054 2439.1903,-263.4431"/>
<polygon fill="#191970" stroke="#191970" points="2440.1386,-260.0655 2429.5439,-260.0053 2437.7886,-266.6593 2440.1386,-260.0655"/>
</g>
<!-- Node48 -->
<g id="node37" class="node">
<title>Node48</title>
<polygon fill="#ffffff" stroke="#bfbfbf" points="2567.8723,-241 2567.8723,-260 2613.8723,-260 2613.8723,-241 2567.8723,-241"/>
<text text-anchor="middle" x="2590.8723" y="-248" font-family="Helvetica,sans-Serif" font-size="10.00" fill="#000000">chrono</text>
</g>
<!-- Node47&#45;&gt;Node48 -->
<g id="edge55" class="edge">
<title>Node47&#45;&gt;Node48</title>
<path fill="none" stroke="#191970" d="M2590.8723,-302.2967C2590.8723,-292.7699 2590.8723,-280.3954 2590.8723,-270.1306"/>
<polygon fill="#191970" stroke="#191970" points="2594.3724,-270.0549 2590.8723,-260.055 2587.3724,-270.055 2594.3724,-270.0549"/>
</g>
<!-- Node49&#45;&gt;Node0 -->
<g id="edge63" class="edge">
<title>Node49&#45;&gt;Node0</title>
<path fill="none" stroke="#191970" d="M1361.0816,-522.6046C1399.5078,-541.8177 1486.5216,-585.3246 1537.5431,-610.8354"/>
<polygon fill="#191970" stroke="#191970" points="1536.1217,-614.0378 1546.6313,-615.3795 1539.2523,-607.7768 1536.1217,-614.0378"/>
</g>
<!-- Node49&#45;&gt;Node3 -->
<g id="edge60" class="edge">
<title>Node49&#45;&gt;Node3</title>
<path fill="none" stroke="#191970" d="M1327.4986,-503.1853C1316.8018,-494.9414 1303.0314,-482.1035 1296.8723,-467 1278.8347,-422.7674 1296.1901,-365.5849 1307.629,-336.4229"/>
<polygon fill="#191970" stroke="#191970" points="1310.9285,-337.6022 1311.4992,-327.0227 1304.4556,-334.9372 1310.9285,-337.6022"/>
</g>
<!-- Node49&#45;&gt;Node18 -->
<g id="edge64" class="edge">
<title>Node49&#45;&gt;Node18</title>
<path fill="none" stroke="#191970" d="M1324.5875,-503.3433C1308.6179,-494.2958 1284.3414,-480.2214 1263.8723,-467 1229.4385,-444.7585 1190.8103,-416.9325 1167.6846,-399.9494"/>
<polygon fill="#191970" stroke="#191970" points="1169.7477,-397.122 1159.6216,-394.0056 1165.5941,-402.7565 1169.7477,-397.122"/>
</g>
<!-- Node49&#45;&gt;Node42 -->
<g id="edge62" class="edge">
<title>Node49&#45;&gt;Node42</title>
<path fill="none" stroke="#191970" d="M1371.8034,-518.2687C1379.4342,-519.9221 1387.4719,-521.6626 1394.8723,-523 1499.3451,-541.8795 1623.1041,-556.7151 1686.0119,-564.0228"/>
<polygon fill="#191970" stroke="#191970" points="1685.9669,-567.5409 1696.3032,-565.2148 1686.7724,-560.5874 1685.9669,-567.5409"/>
</g>
<!-- Node49&#45;&gt;Node45 -->
<g id="edge61" class="edge">
<title>Node49&#45;&gt;Node45</title>
<path fill="none" stroke="#191970" d="M1344.3723,-503.3906C1346.257,-496.1463 1348.9311,-485.8679 1351.4027,-476.3676"/>
<polygon fill="#191970" stroke="#191970" points="1354.8277,-477.1037 1353.9583,-466.5446 1348.0532,-475.3412 1354.8277,-477.1037"/>
</g>
<!-- Node51 -->
<g id="node40" class="node">
<title>Node51</title>
<g id="a_node40"><a xlink:href="_player_input_8h.html" target="_top" xlink:title="kryne&#45;engine/Input\l/PlayerInput.h">
<polygon fill="#ffffff" stroke="#ff0000" points="1798.3723,-369.5 1798.3723,-399.5 1895.3723,-399.5 1895.3723,-369.5 1798.3723,-369.5"/>
<text text-anchor="start" x="1806.3723" y="-387.5" font-family="Helvetica,sans-Serif" font-size="10.00" fill="#000000">kryne&#45;engine/Input</text>
<text text-anchor="middle" x="1846.8723" y="-376.5" font-family="Helvetica,sans-Serif" font-size="10.00" fill="#000000">/PlayerInput.h</text>
</a>
</g>
</g>
<!-- Node50&#45;&gt;Node51 -->
<g id="edge66" class="edge">
<title>Node50&#45;&gt;Node51</title>
<path fill="none" stroke="#191970" d="M1951.379,-503.3416C1933.627,-483.1547 1892.1709,-436.012 1867.1356,-407.5427"/>
<polygon fill="#191970" stroke="#191970" points="1869.4723,-404.8998 1860.2403,-399.7016 1864.2157,-409.5224 1869.4723,-404.8998"/>
</g>
<!-- Node54 -->
<g id="node45" class="node">
<title>Node54</title>
<g id="a_node45"><a xlink:href="_loop_renderer_8h.html" target="_top" xlink:title="kryne&#45;engine/Rendering\l/LoopRenderer.h">
<polygon fill="#ffffff" stroke="#ff0000" points="1542.3723,-436.5 1542.3723,-466.5 1661.3723,-466.5 1661.3723,-436.5 1542.3723,-436.5"/>
<text text-anchor="start" x="1550.3723" y="-454.5" font-family="Helvetica,sans-Serif" font-size="10.00" fill="#000000">kryne&#45;engine/Rendering</text>
<text text-anchor="middle" x="1601.8723" y="-443.5" font-family="Helvetica,sans-Serif" font-size="10.00" fill="#000000">/LoopRenderer.h</text>
</a>
</g>
</g>
<!-- Node50&#45;&gt;Node54 -->
<g id="edge75" class="edge">
<title>Node50&#45;&gt;Node54</title>
<path fill="none" stroke="#191970" d="M1904.3276,-503.4581C1841.6536,-492.6915 1739.6099,-475.1616 1671.6203,-463.4818"/>
<polygon fill="#191970" stroke="#191970" points="1671.877,-459.9747 1661.4288,-461.7311 1670.6918,-466.8737 1671.877,-459.9747"/>
</g>
<!-- Node51&#45;&gt;Node3 -->
<g id="edge68" class="edge">
<title>Node51&#45;&gt;Node3</title>
<path fill="none" stroke="#191970" d="M1798.342,-378.3766C1697.4769,-365.6497 1466.1734,-336.4645 1364.8898,-323.6849"/>
<polygon fill="#191970" stroke="#191970" points="1365.2847,-320.207 1354.9252,-322.4276 1364.4083,-327.152 1365.2847,-320.207"/>
</g>
<!-- Node51&#45;&gt;Node7 -->
<g id="edge71" class="edge">
<title>Node51&#45;&gt;Node7</title>
<path fill="none" stroke="#191970" d="M1798.1303,-374.5293C1773.0403,-367.0445 1743.8245,-354.2961 1724.8723,-333 1699.4858,-304.4738 1700.8723,-288.6867 1700.8723,-250.5 1700.8723,-250.5 1700.8723,-250.5 1700.8723,-133 1700.8723,-68.8729 1619.9103,-34.3249 1571.0694,-19.3179"/>
<polygon fill="#191970" stroke="#191970" points="1571.7568,-15.8719 1561.1755,-16.4086 1569.7819,-22.5876 1571.7568,-15.8719"/>
</g>
<!-- Node51&#45;&gt;Node43 -->
<g id="edge69" class="edge">
<title>Node51&#45;&gt;Node43</title>
<path fill="none" stroke="#191970" d="M1895.6158,-381.3565C1989.0053,-374.8401 2189.5932,-358.3206 2253.8723,-333 2275.7927,-324.3652 2276.6462,-314.0816 2296.8723,-302 2320.9389,-287.6245 2349.6083,-273.8844 2371.0594,-264.2176"/>
<polygon fill="#191970" stroke="#191970" points="2372.6527,-267.3395 2380.365,-260.0751 2369.8059,-260.9446 2372.6527,-267.3395"/>
</g>
<!-- Node51&#45;&gt;Node24 -->
<g id="edge70" class="edge">
<title>Node51&#45;&gt;Node24</title>
<path fill="none" stroke="#191970" d="M1805.8065,-369.4322C1788.6046,-361.1605 1769.8592,-349.2249 1757.8723,-333 1735.5141,-302.7368 1738.8723,-288.1265 1738.8723,-250.5 1738.8723,-250.5 1738.8723,-250.5 1738.8723,-133 1738.8723,-41.7454 2068.5374,-17.2659 2181.4574,-11.5577"/>
<polygon fill="#191970" stroke="#191970" points="2181.8712,-15.0418 2191.6902,-11.0622 2181.5326,-8.05 2181.8712,-15.0418"/>
</g>
<!-- Node52 -->
<g id="node41" class="node">
<title>Node52</title>
<polygon fill="#ffffff" stroke="#bfbfbf" points="1766.8723,-308 1766.8723,-327 1796.8723,-327 1796.8723,-308 1766.8723,-308"/>
<text text-anchor="middle" x="1781.8723" y="-315" font-family="Helvetica,sans-Serif" font-size="10.00" fill="#000000">set</text>
</g>
<!-- Node51&#45;&gt;Node52 -->
<g id="edge67" class="edge">
<title>Node51&#45;&gt;Node52</title>
<path fill="none" stroke="#191970" d="M1832.1228,-369.2967C1821.9955,-358.8578 1808.5511,-344.9997 1798.1171,-334.2446"/>
<polygon fill="#191970" stroke="#191970" points="1800.6173,-331.7953 1791.1421,-327.055 1795.5932,-336.6695 1800.6173,-331.7953"/>
</g>
<!-- Node28 -->
<g id="node42" class="node">
<title>Node28</title>
<polygon fill="#ffffff" stroke="#bfbfbf" points="1814.8723,-308 1814.8723,-327 1878.8723,-327 1878.8723,-308 1814.8723,-308"/>
<text text-anchor="middle" x="1846.8723" y="-315" font-family="Helvetica,sans-Serif" font-size="10.00" fill="#000000">glad/glad.h</text>
</g>
<!-- Node51&#45;&gt;Node28 -->
<g id="edge72" class="edge">
<title>Node51&#45;&gt;Node28</title>
<path fill="none" stroke="#191970" d="M1846.8723,-369.2967C1846.8723,-359.7699 1846.8723,-347.3954 1846.8723,-337.1306"/>
<polygon fill="#191970" stroke="#191970" points="1850.3724,-337.0549 1846.8723,-327.055 1843.3724,-337.055 1850.3724,-337.0549"/>
</g>
<!-- Node29 -->
<g id="node43" class="node">
<title>Node29</title>
<polygon fill="#ffffff" stroke="#bfbfbf" points="1896.8723,-308 1896.8723,-327 1976.8723,-327 1976.8723,-308 1896.8723,-308"/>
<text text-anchor="middle" x="1936.8723" y="-315" font-family="Helvetica,sans-Serif" font-size="10.00" fill="#000000">GLFW/glfw3.h</text>
</g>
<!-- Node51&#45;&gt;Node29 -->
<g id="edge73" class="edge">
<title>Node51&#45;&gt;Node29</title>
<path fill="none" stroke="#191970" d="M1867.2947,-369.2967C1881.7256,-358.5537 1901.0208,-344.1895 1915.6311,-333.3129"/>
<polygon fill="#191970" stroke="#191970" points="1918.106,-335.8339 1924.0373,-327.055 1913.9259,-330.219 1918.106,-335.8339"/>
</g>
<!-- Node53 -->
<g id="node44" class="node">
<title>Node53</title>
<polygon fill="#ffffff" stroke="#bfbfbf" points="1994.8723,-308 1994.8723,-327 2108.8723,-327 2108.8723,-308 1994.8723,-308"/>
<text text-anchor="middle" x="2051.8723" y="-315" font-family="Helvetica,sans-Serif" font-size="10.00" fill="#000000">boost/lexical_cast.hpp</text>
</g>
<!-- Node51&#45;&gt;Node53 -->
<g id="edge74" class="edge">
<title>Node51&#45;&gt;Node53</title>
<path fill="none" stroke="#191970" d="M1892.8783,-369.4639C1929.0865,-357.63 1978.9725,-341.3258 2013.1539,-330.1543"/>
<polygon fill="#191970" stroke="#191970" points="2014.3711,-333.4388 2022.789,-327.0053 2012.1965,-326.7851 2014.3711,-333.4388"/>
</g>
<!-- Node54&#45;&gt;Node0 -->
<g id="edge81" class="edge">
<title>Node54&#45;&gt;Node0</title>
<path fill="none" stroke="#191970" d="M1599.7462,-466.7228C1595.452,-497.4699 1585.7045,-567.2614 1580.4266,-605.0514"/>
<polygon fill="#191970" stroke="#191970" points="1576.9208,-604.8505 1579.0038,-615.2386 1583.8535,-605.8188 1576.9208,-604.8505"/>
</g>
<!-- Node54&#45;&gt;Node2 -->
<g id="edge76" class="edge">
<title>Node54&#45;&gt;Node2</title>
<path fill="none" stroke="#191970" d="M1590.8336,-436.324C1578.5162,-419.5633 1557.8224,-391.9149 1538.8723,-369 1508.1653,-331.8682 1470.0491,-290.2771 1448.9059,-267.5731"/>
<polygon fill="#191970" stroke="#191970" points="1451.3139,-265.0238 1441.9294,-260.1063 1446.1991,-269.8027 1451.3139,-265.0238"/>
</g>
<!-- Node54&#45;&gt;Node3 -->
<g id="edge77" class="edge">
<title>Node54&#45;&gt;Node3</title>
<path fill="none" stroke="#191970" d="M1542.0596,-442.5469C1503.0523,-435.0161 1451.9495,-421.8695 1410.8723,-400 1378.9596,-383.0096 1348.6027,-353.5048 1331.1289,-334.7688"/>
<polygon fill="#191970" stroke="#191970" points="1333.58,-332.2624 1324.2545,-327.2339 1328.4088,-336.9804 1333.58,-332.2624"/>
</g>
<!-- Node54&#45;&gt;Node7 -->
<g id="edge79" class="edge">
<title>Node54&#45;&gt;Node7</title>
<path fill="none" stroke="#191970" d="M1594.8712,-436.4437C1584.7404,-414.208 1565.8935,-371.1026 1553.8723,-333 1542.5515,-297.117 1534.8723,-288.1265 1534.8723,-250.5 1534.8723,-250.5 1534.8723,-250.5 1534.8723,-133 1534.8723,-96.4994 1534.8723,-53.906 1534.8723,-29.6285"/>
<polygon fill="#191970" stroke="#191970" points="1538.3724,-29.5691 1534.8723,-19.5691 1531.3724,-29.5692 1538.3724,-29.5691"/>
</g>
<!-- Node54&#45;&gt;Node18 -->
<g id="edge85" class="edge">
<title>Node54&#45;&gt;Node18</title>
<path fill="none" stroke="#191970" d="M1541.9212,-442.672C1446.3903,-428.6048 1262.4118,-401.5135 1183.8741,-389.9486"/>
<polygon fill="#191970" stroke="#191970" points="1183.9153,-386.417 1173.5121,-388.4228 1182.8955,-393.3423 1183.9153,-386.417"/>
</g>
<!-- Node54&#45;&gt;Node43 -->
<g id="edge78" class="edge">
<title>Node54&#45;&gt;Node43</title>
<path fill="none" stroke="#191970" d="M1661.3793,-444.9105C1806.6259,-428.243 2175.6545,-382.2169 2288.8723,-333 2309.823,-323.8925 2311.4253,-315.4753 2329.8723,-302 2346.7783,-289.6505 2366.1518,-276.0059 2380.6903,-265.8656"/>
<polygon fill="#191970" stroke="#191970" points="2382.8428,-268.6318 2389.0525,-260.0475 2378.8449,-262.8857 2382.8428,-268.6318"/>
</g>
<!-- Node54&#45;&gt;Node46 -->
<g id="edge80" class="edge">
<title>Node54&#45;&gt;Node46</title>
<path fill="none" stroke="#191970" d="M1573.3711,-436.4639C1555.441,-427.0047 1532.097,-414.6894 1512.6353,-404.4222"/>
<polygon fill="#191970" stroke="#191970" points="1514.1957,-401.2882 1503.7179,-399.7177 1510.9294,-407.4795 1514.1957,-401.2882"/>
</g>
<!-- Node68 -->
<g id="node46" class="node">
<title>Node68</title>
<g id="a_node46"><a xlink:href="kryne-engine_2_camera_2_camera_8h.html" target="_top" xlink:title="kryne&#45;engine/Camera\l/Camera.h">
<polygon fill="#ffffff" stroke="#ff0000" points="1562.8723,-302.5 1562.8723,-332.5 1672.8723,-332.5 1672.8723,-302.5 1562.8723,-302.5"/>
<text text-anchor="start" x="1570.8723" y="-320.5" font-family="Helvetica,sans-Serif" font-size="10.00" fill="#000000">kryne&#45;engine/Camera</text>
<text text-anchor="middle" x="1617.8723" y="-309.5" font-family="Helvetica,sans-Serif" font-size="10.00" fill="#000000">/Camera.h</text>
</a>
</g>
</g>
<!-- Node54&#45;&gt;Node68 -->
<g id="edge82" class="edge">
<title>Node54&#45;&gt;Node68</title>
<path fill="none" stroke="#191970" d="M1604.4834,-436.2088C1606.1718,-425.9806 1608.3334,-412.2089 1609.8723,-400 1612.2703,-380.9757 1614.3394,-359.4044 1615.7723,-343.0918"/>
<polygon fill="#191970" stroke="#191970" points="1619.2931,-342.9966 1616.6589,-332.7345 1612.3186,-342.3996 1619.2931,-342.9966"/>
</g>
<!-- Node54&#45;&gt;Node70 -->
<g id="edge86" class="edge">
<title>Node54&#45;&gt;Node70</title>
<path fill="none" stroke="#191970" d="M1661.6508,-449.1035C1773.8891,-444.0528 2023.6247,-430.2008 2231.8723,-400 2233.3337,-399.7881 2234.8096,-399.5648 2236.2958,-399.3317"/>
<polygon fill="#191970" stroke="#191970" points="2236.9309,-402.7741 2246.2119,-397.6641 2235.7699,-395.871 2236.9309,-402.7741"/>
</g>
<!-- Node68&#45;&gt;Node0 -->
<g id="edge84" class="edge">
<title>Node68&#45;&gt;Node0</title>
<path fill="none" stroke="#191970" d="M1630.6167,-332.5481C1652.0018,-359.7244 1690.8949,-418.6613 1670.8723,-467 1662.2132,-487.905 1647.7635,-484.4039 1634.8723,-503 1628.6305,-512.0041 1602.435,-571.5132 1587.4716,-605.9595"/>
<polygon fill="#191970" stroke="#191970" points="1584.1649,-604.7879 1583.3988,-615.355 1590.5874,-607.5721 1584.1649,-604.7879"/>
</g>
<!-- Node68&#45;&gt;Node7 -->
<g id="edge83" class="edge">
<title>Node68&#45;&gt;Node7</title>
<path fill="none" stroke="#191970" d="M1608.7659,-302.28C1595.6168,-278.819 1572.8723,-232.0201 1572.8723,-189 1572.8723,-189 1572.8723,-189 1572.8723,-133 1572.8723,-94.6461 1555.7971,-52.4423 1544.5389,-28.7843"/>
<polygon fill="#191970" stroke="#191970" points="1547.5585,-26.9938 1539.9972,-19.5723 1541.2801,-30.0892 1547.5585,-26.9938"/>
</g>
<!-- Node70&#45;&gt;Node41 -->
<g id="edge87" class="edge">
<title>Node70&#45;&gt;Node41</title>
<path fill="none" stroke="#191970" d="M2365.4894,-378.7325C2434.2175,-371.3458 2550.2608,-356.6013 2647.8723,-333 2651.2512,-332.183 2654.7356,-331.2269 2658.2036,-330.1977"/>
<polygon fill="#191970" stroke="#191970" points="2659.3504,-333.506 2667.8332,-327.1583 2657.2435,-326.8306 2659.3504,-333.506"/>
</g>
<!-- Node70&#45;&gt;Node68 -->
<g id="edge96" class="edge">
<title>Node70&#45;&gt;Node68</title>
<path fill="none" stroke="#191970" d="M2246.2395,-379.2217C2145.5405,-370.2354 1935.3999,-351.168 1757.8723,-333 1733.5026,-330.506 1706.7677,-327.5905 1683.2503,-324.9651"/>
<polygon fill="#191970" stroke="#191970" points="1683.3669,-321.4564 1673.0393,-323.821 1682.5873,-328.4128 1683.3669,-321.4564"/>
</g>
<!-- Node71 -->
<g id="node48" class="node">
<title>Node71</title>
<g id="a_node48"><a xlink:href="_buffer_geometry_8h.html" target="_top" xlink:title="kryne&#45;engine/Geometry\l/BufferGeometry.h">
<polygon fill="#ffffff" stroke="#ff0000" points="2126.8723,-302.5 2126.8723,-332.5 2244.8723,-332.5 2244.8723,-302.5 2126.8723,-302.5"/>
<text text-anchor="start" x="2134.8723" y="-320.5" font-family="Helvetica,sans-Serif" font-size="10.00" fill="#000000">kryne&#45;engine/Geometry</text>
<text text-anchor="middle" x="2185.8723" y="-309.5" font-family="Helvetica,sans-Serif" font-size="10.00" fill="#000000">/BufferGeometry.h</text>
</a>
</g>
</g>
<!-- Node70&#45;&gt;Node71 -->
<g id="edge88" class="edge">
<title>Node70&#45;&gt;Node71</title>
<path fill="none" stroke="#191970" d="M2278.942,-369.4639C2262.1536,-360.0903 2240.3417,-347.9121 2222.0541,-337.7015"/>
<polygon fill="#191970" stroke="#191970" points="2223.5655,-334.5368 2213.128,-332.7177 2220.153,-340.6487 2223.5655,-334.5368"/>
</g>
<!-- Node75 -->
<g id="node49" class="node">
<title>Node75</title>
<g id="a_node49"><a xlink:href="kryne-engine_2_material_2_material_8h.html" target="_top" xlink:title="kryne&#45;engine/Material\l/Material.h">
<polygon fill="#ffffff" stroke="#ff0000" points="2338.8723,-302.5 2338.8723,-332.5 2448.8723,-332.5 2448.8723,-302.5 2338.8723,-302.5"/>
<text text-anchor="start" x="2346.8723" y="-320.5" font-family="Helvetica,sans-Serif" font-size="10.00" fill="#000000">kryne&#45;engine/Material</text>
<text text-anchor="middle" x="2393.8723" y="-309.5" font-family="Helvetica,sans-Serif" font-size="10.00" fill="#000000">/Material.h</text>
</a>
</g>
</g>
<!-- Node70&#45;&gt;Node75 -->
<g id="edge94" class="edge">
<title>Node70&#45;&gt;Node75</title>
<path fill="none" stroke="#191970" d="M2325.8409,-369.2967C2337.6548,-360.302 2352.8029,-348.7687 2365.8051,-338.8694"/>
<polygon fill="#191970" stroke="#191970" points="2368.1466,-341.4857 2373.9828,-332.6432 2363.9062,-335.9162 2368.1466,-341.4857"/>
</g>
<!-- Node71&#45;&gt;Node7 -->
<g id="edge89" class="edge">
<title>Node71&#45;&gt;Node7</title>
<path fill="none" stroke="#191970" d="M2142.8757,-302.4791C2078.0745,-278.5067 1962.8723,-230.1083 1962.8723,-189 1962.8723,-189 1962.8723,-189 1962.8723,-133 1962.8723,-51.7958 1674.6849,-21.0388 1571.266,-12.6158"/>
<polygon fill="#191970" stroke="#191970" points="1571.2462,-9.1034 1561.0014,-11.8042 1570.6944,-16.0816 1571.2462,-9.1034"/>
</g>
<!-- Node71&#45;&gt;Node12 -->
<g id="edge92" class="edge">
<title>Node71&#45;&gt;Node12</title>
<path fill="none" stroke="#191970" d="M2126.6577,-303.2731C2123.6963,-302.7909 2120.7558,-302.3612 2117.8723,-302 1913.6321,-276.4162 405.3868,-255.027 115.8605,-251.1328"/>
<polygon fill="#191970" stroke="#191970" points="115.7359,-247.6309 105.6898,-250.9965 115.642,-254.6303 115.7359,-247.6309"/>
</g>
<!-- Node71&#45;&gt;Node43 -->
<g id="edge91" class="edge">
<title>Node71&#45;&gt;Node43</title>
<path fill="none" stroke="#191970" d="M2234.5714,-302.4639C2273.0635,-290.5792 2326.1587,-274.1858 2362.3524,-263.0108"/>
<polygon fill="#191970" stroke="#191970" points="2363.5642,-266.2997 2372.0866,-260.0053 2361.4991,-259.6113 2363.5642,-266.2997"/>
</g>
<!-- Node71&#45;&gt;Node24 -->
<g id="edge90" class="edge">
<title>Node71&#45;&gt;Node24</title>
<path fill="none" stroke="#191970" d="M2185.8723,-302.4649C2185.8723,-278.4731 2185.8723,-230.0486 2185.8723,-189 2185.8723,-189 2185.8723,-189 2185.8723,-133 2185.8723,-95.0591 2200.7008,-52.7146 2210.4777,-28.9189"/>
<polygon fill="#191970" stroke="#191970" points="2213.7277,-30.22 2214.4218,-19.6479 2207.2864,-27.4796 2213.7277,-30.22"/>
</g>
<!-- Node71&#45;&gt;Node30 -->
<g id="edge93" class="edge">
<title>Node71&#45;&gt;Node30</title>
<path fill="none" stroke="#191970" d="M2208.5639,-302.2967C2222.2445,-293.1306 2239.8597,-281.3285 2254.8193,-271.3055"/>
<polygon fill="#191970" stroke="#191970" points="2256.911,-274.1171 2263.2706,-265.6432 2253.0147,-268.3017 2256.911,-274.1171"/>
</g>
<!-- Node75&#45;&gt;Node42 -->
<g id="edge95" class="edge">
<title>Node75&#45;&gt;Node42</title>
<path fill="none" stroke="#191970" d="M2394.3049,-332.6847C2394.0161,-350.7375 2390.8949,-380.8272 2374.8723,-400 2285.8816,-506.4871 2221.7746,-486.5439 2087.8723,-523 1974.4556,-553.8787 1835.2236,-564.1708 1767.6007,-567.4899"/>
<polygon fill="#191970" stroke="#191970" points="1767.2042,-564.0044 1757.3774,-567.9648 1767.5291,-570.9969 1767.2042,-564.0044"/>
</g>
<!-- Node96&#45;&gt;Node42 -->
<g id="edge99" class="edge">
<title>Node96&#45;&gt;Node42</title>
<path fill="none" stroke="#191970" d="M1776.8192,-522.6427C1770.5468,-530.7995 1759.4259,-542.6727 1749.1471,-552.3607"/>
<polygon fill="#191970" stroke="#191970" points="1746.6077,-549.9384 1741.5453,-559.2455 1751.3068,-555.1268 1746.6077,-549.9384"/>
</g>
</g>
</svg>
