<?xml version="1.0" encoding="UTF-8" standalone="no"?>
<!DOCTYPE svg PUBLIC "-//W3C//DTD SVG 1.1//EN"
 "http://www.w3.org/Graphics/SVG/1.1/DTD/svg11.dtd">
<!-- Generated by graphviz version 2.44.1 (20200629.0846)
 -->
<!-- Title: kryne&#45;engine/src/Core/Entity.cpp Pages: 1 -->
<svg width="2236pt" height="822pt"
 viewBox="0.00 0.00 2235.50 822.00" xmlns="http://www.w3.org/2000/svg" xmlns:xlink="http://www.w3.org/1999/xlink">
<g id="graph0" class="graph" transform="scale(1 1) rotate(0) translate(4 818)">
<title>kryne&#45;engine/src/Core/Entity.cpp</title>
<polygon fill="white" stroke="transparent" points="-4,4 -4,-818 2231.5,-818 2231.5,4 -4,4"/>
<!-- Node1 -->
<g id="node1" class="node">
<title>Node1</title>
<g id="a_node1"><a xlink:title=" ">
<polygon fill="#bfbfbf" stroke="black" points="881,-783.5 881,-813.5 993,-813.5 993,-783.5 881,-783.5"/>
<text text-anchor="start" x="889" y="-801.5" font-family="Helvetica,sans-Serif" font-size="10.00">kryne&#45;engine/src/Core</text>
<text text-anchor="middle" x="937" y="-790.5" font-family="Helvetica,sans-Serif" font-size="10.00">/Entity.cpp</text>
</a>
</g>
</g>
<!-- Node2 -->
<g id="node2" class="node">
<title>Node2</title>
<g id="a_node2"><a xlink:href="_entity_8h.html" target="_top" xlink:title=" ">
<polygon fill="white" stroke="black" points="871,-727.5 871,-746.5 1003,-746.5 1003,-727.5 871,-727.5"/>
<text text-anchor="middle" x="937" y="-734.5" font-family="Helvetica,sans-Serif" font-size="10.00">kryne&#45;engine/Core/Entity.h</text>
</a>
</g>
</g>
<!-- Node1&#45;&gt;Node2 -->
<g id="edge1" class="edge">
<title>Node1&#45;&gt;Node2</title>
<path fill="none" stroke="midnightblue" d="M937,-783.4C937,-775.47 937,-765.46 937,-756.86"/>
<polygon fill="midnightblue" stroke="midnightblue" points="940.5,-756.66 937,-746.66 933.5,-756.66 940.5,-756.66"/>
</g>
<!-- Node3 -->
<g id="node3" class="node">
<title>Node3</title>
<g id="a_node3"><a xlink:title=" ">
<polygon fill="white" stroke="#bfbfbf" points="742,-671.5 742,-690.5 788,-690.5 788,-671.5 742,-671.5"/>
<text text-anchor="middle" x="765" y="-678.5" font-family="Helvetica,sans-Serif" font-size="10.00">atomic</text>
</a>
</g>
</g>
<!-- Node2&#45;&gt;Node3 -->
<g id="edge2" class="edge">
<title>Node2&#45;&gt;Node3</title>
<path fill="none" stroke="midnightblue" d="M909.75,-727.44C879.49,-717.94 830.65,-702.61 798.18,-692.42"/>
<polygon fill="midnightblue" stroke="midnightblue" points="798.85,-688.96 788.27,-689.3 796.76,-695.64 798.85,-688.96"/>
</g>
<!-- Node4 -->
<g id="node4" class="node">
<title>Node4</title>
<g id="a_node4"><a xlink:title=" ">
<polygon fill="white" stroke="#bfbfbf" points="898,-353 898,-372 940,-372 940,-353 898,-353"/>
<text text-anchor="middle" x="919" y="-360" font-family="Helvetica,sans-Serif" font-size="10.00">vector</text>
</a>
</g>
</g>
<!-- Node2&#45;&gt;Node4 -->
<g id="edge3" class="edge">
<title>Node2&#45;&gt;Node4</title>
<path fill="none" stroke="midnightblue" d="M927.41,-727.34C909.33,-710.02 872,-669.03 872,-626 872,-626 872,-626 872,-495.5 872,-458.31 877.63,-448.71 891,-414 895.49,-402.35 902.23,-390.09 907.98,-380.57"/>
<polygon fill="midnightblue" stroke="midnightblue" points="910.95,-382.42 913.27,-372.08 905.01,-378.71 910.95,-382.42"/>
</g>
<!-- Node5 -->
<g id="node5" class="node">
<title>Node5</title>
<g id="a_node5"><a xlink:title=" ">
<polygon fill="white" stroke="#bfbfbf" points="910,-286 910,-305 988,-305 988,-286 910,-286"/>
<text text-anchor="middle" x="949" y="-293" font-family="Helvetica,sans-Serif" font-size="10.00">unordered_set</text>
</a>
</g>
</g>
<!-- Node2&#45;&gt;Node5 -->
<g id="edge4" class="edge">
<title>Node2&#45;&gt;Node5</title>
<path fill="none" stroke="midnightblue" d="M954.94,-727.25C984.45,-711.45 1040,-675.19 1040,-626 1040,-626 1040,-626 1040,-428.5 1040,-391.2 1040.95,-377.85 1020,-347 1009.23,-331.15 991.73,-318.61 976.8,-310"/>
<polygon fill="midnightblue" stroke="midnightblue" points="978.37,-306.87 967.92,-305.15 975.02,-313.01 978.37,-306.87"/>
</g>
<!-- Node6 -->
<g id="node6" class="node">
<title>Node6</title>
<g id="a_node6"><a xlink:href="_transform_8h.html" target="_top" xlink:title=" ">
<polygon fill="white" stroke="black" points="627.5,-414.5 627.5,-444.5 748.5,-444.5 748.5,-414.5 627.5,-414.5"/>
<text text-anchor="start" x="635.5" y="-432.5" font-family="Helvetica,sans-Serif" font-size="10.00">kryne&#45;engine/3DObjects</text>
<text text-anchor="middle" x="688" y="-421.5" font-family="Helvetica,sans-Serif" font-size="10.00">/Transform.h</text>
</a>
</g>
</g>
<!-- Node2&#45;&gt;Node6 -->
<g id="edge5" class="edge">
<title>Node2&#45;&gt;Node6</title>
<path fill="none" stroke="midnightblue" d="M907.25,-727.45C888.36,-719.97 864.9,-707.68 849,-691 826.65,-667.55 816,-658.4 816,-626 816,-626 816,-626 816,-562.5 816,-509.37 761.9,-470.89 723.93,-449.63"/>
<polygon fill="midnightblue" stroke="midnightblue" points="725.12,-446.29 714.67,-444.59 721.78,-452.44 725.12,-446.29"/>
</g>
<!-- Node19 -->
<g id="node19" class="node">
<title>Node19</title>
<g id="a_node19"><a xlink:href="_component_8h.html" target="_top" xlink:title=" ">
<polygon fill="white" stroke="black" points="900,-420 900,-439 974,-439 974,-420 900,-420"/>
<text text-anchor="middle" x="937" y="-427" font-family="Helvetica,sans-Serif" font-size="10.00">Component.h</text>
</a>
</g>
</g>
<!-- Node2&#45;&gt;Node19 -->
<g id="edge23" class="edge">
<title>Node2&#45;&gt;Node19</title>
<path fill="none" stroke="midnightblue" d="M932.16,-727.44C928,-708.94 928,-663.81 928,-626 928,-626 928,-626 928,-562.5 928,-522.16 928,-474.88 930.93,-449.28"/>
<polygon fill="midnightblue" stroke="midnightblue" points="934.42,-449.57 932.49,-439.15 927.51,-448.5 934.42,-449.57"/>
</g>
<!-- Node20 -->
<g id="node20" class="node">
<title>Node20</title>
<g id="a_node20"><a xlink:href="_process_8h.html" target="_top" xlink:title=" ">
<polygon fill="white" stroke="black" points="1458.5,-671.5 1458.5,-690.5 1519.5,-690.5 1519.5,-671.5 1458.5,-671.5"/>
<text text-anchor="middle" x="1489" y="-678.5" font-family="Helvetica,sans-Serif" font-size="10.00">Process.h</text>
</a>
</g>
</g>
<!-- Node2&#45;&gt;Node20 -->
<g id="edge26" class="edge">
<title>Node2&#45;&gt;Node20</title>
<path fill="none" stroke="midnightblue" d="M1003.06,-729.08C1118.6,-717.48 1353.85,-694.5 1448.41,-685.62"/>
<polygon fill="midnightblue" stroke="midnightblue" points="1448.81,-689.1 1458.44,-684.68 1448.15,-682.13 1448.81,-689.1"/>
</g>
<!-- Node6&#45;&gt;Node2 -->
<g id="edge22" class="edge">
<title>Node6&#45;&gt;Node2</title>
<path fill="none" stroke="midnightblue" d="M726.96,-444.59C770.35,-464.47 834,-504.87 834,-562.5 834,-626 834,-626 834,-626 834,-658.4 844.65,-667.55 867,-691 880.04,-704.68 898.17,-715.41 912.85,-722.96"/>
<polygon fill="midnightblue" stroke="midnightblue" points="911.4,-726.14 921.91,-727.45 914.51,-719.87 911.4,-726.14"/>
</g>
<!-- Node6&#45;&gt;Node4 -->
<g id="edge7" class="edge">
<title>Node6&#45;&gt;Node4</title>
<path fill="none" stroke="midnightblue" d="M748.69,-415.19C787.73,-406.06 839.34,-392.92 884,-378 885.92,-377.36 887.88,-376.66 889.85,-375.93"/>
<polygon fill="midnightblue" stroke="midnightblue" points="891.53,-379.03 899.56,-372.12 888.97,-372.52 891.53,-379.03"/>
</g>
<!-- Node7 -->
<g id="node7" class="node">
<title>Node7</title>
<g id="a_node7"><a xlink:title=" ">
<polygon fill="white" stroke="#bfbfbf" points="1203,-56.5 1203,-75.5 1255,-75.5 1255,-56.5 1203,-56.5"/>
<text text-anchor="middle" x="1229" y="-63.5" font-family="Helvetica,sans-Serif" font-size="10.00">memory</text>
</a>
</g>
</g>
<!-- Node6&#45;&gt;Node7 -->
<g id="edge6" class="edge">
<title>Node6&#45;&gt;Node7</title>
<path fill="none" stroke="midnightblue" d="M748.55,-416.64C771.75,-409.19 796.56,-397.2 813,-378 837.19,-349.74 832,-333.69 832,-296.5 832,-296.5 832,-296.5 832,-177 832,-102.47 1095.11,-76.39 1192.94,-69.26"/>
<polygon fill="midnightblue" stroke="midnightblue" points="1193.22,-72.75 1202.95,-68.56 1192.73,-65.77 1193.22,-72.75"/>
</g>
<!-- Node8 -->
<g id="node8" class="node">
<title>Node8</title>
<g id="a_node8"><a xlink:title=" ">
<polygon fill="white" stroke="#bfbfbf" points="1038.5,-0.5 1038.5,-19.5 1081.5,-19.5 1081.5,-0.5 1038.5,-0.5"/>
<text text-anchor="middle" x="1060" y="-7.5" font-family="Helvetica,sans-Serif" font-size="10.00">queue</text>
</a>
</g>
</g>
<!-- Node6&#45;&gt;Node8 -->
<g id="edge8" class="edge">
<title>Node6&#45;&gt;Node8</title>
<path fill="none" stroke="midnightblue" d="M627.1,-426.58C496.25,-421.91 197.33,-408.04 163,-378 135.01,-353.51 144,-333.69 144,-296.5 144,-296.5 144,-296.5 144,-121 144,-29.99 865.99,-13.88 1028,-11.41"/>
<polygon fill="midnightblue" stroke="midnightblue" points="1028.31,-14.9 1038.26,-11.26 1028.21,-7.9 1028.31,-14.9"/>
</g>
<!-- Node9 -->
<g id="node9" class="node">
<title>Node9</title>
<g id="a_node9"><a xlink:title=" ">
<polygon fill="white" stroke="#bfbfbf" points="390,-353 390,-372 460,-372 460,-353 390,-353"/>
<text text-anchor="middle" x="425" y="-360" font-family="Helvetica,sans-Serif" font-size="10.00">glm/glm.hpp</text>
</a>
</g>
</g>
<!-- Node6&#45;&gt;Node9 -->
<g id="edge9" class="edge">
<title>Node6&#45;&gt;Node9</title>
<path fill="none" stroke="midnightblue" d="M627.2,-416.05C583.04,-406.62 521.99,-392.81 469,-378 465.82,-377.11 462.54,-376.14 459.26,-375.13"/>
<polygon fill="midnightblue" stroke="midnightblue" points="460.14,-371.73 449.55,-372.03 458.01,-378.4 460.14,-371.73"/>
</g>
<!-- Node10 -->
<g id="node10" class="node">
<title>Node10</title>
<g id="a_node10"><a xlink:title=" ">
<polygon fill="white" stroke="#bfbfbf" points="478,-353 478,-372 570,-372 570,-353 478,-353"/>
<text text-anchor="middle" x="524" y="-360" font-family="Helvetica,sans-Serif" font-size="10.00">glm/common.hpp</text>
</a>
</g>
</g>
<!-- Node6&#45;&gt;Node10 -->
<g id="edge10" class="edge">
<title>Node6&#45;&gt;Node10</title>
<path fill="none" stroke="midnightblue" d="M652.41,-414.4C623.38,-402.89 582.78,-386.8 555.05,-375.81"/>
<polygon fill="midnightblue" stroke="midnightblue" points="556.05,-372.44 545.46,-372.01 553.47,-378.95 556.05,-372.44"/>
</g>
<!-- Node11 -->
<g id="node11" class="node">
<title>Node11</title>
<g id="a_node11"><a xlink:title=" ">
<polygon fill="white" stroke="#bfbfbf" points="588.5,-353 588.5,-372 669.5,-372 669.5,-353 588.5,-353"/>
<text text-anchor="middle" x="629" y="-360" font-family="Helvetica,sans-Serif" font-size="10.00">glm/matrix.hpp</text>
</a>
</g>
</g>
<!-- Node6&#45;&gt;Node11 -->
<g id="edge11" class="edge">
<title>Node6&#45;&gt;Node11</title>
<path fill="none" stroke="midnightblue" d="M675.2,-414.4C665.91,-404.16 653.32,-390.3 643.63,-379.62"/>
<polygon fill="midnightblue" stroke="midnightblue" points="646.2,-377.25 636.89,-372.19 641.02,-381.95 646.2,-377.25"/>
</g>
<!-- Node12 -->
<g id="node12" class="node">
<title>Node12</title>
<g id="a_node12"><a xlink:title=" ">
<polygon fill="white" stroke="#bfbfbf" points="325,-286 325,-305 399,-305 399,-286 325,-286"/>
<text text-anchor="middle" x="362" y="-293" font-family="Helvetica,sans-Serif" font-size="10.00">glm/vec3.hpp</text>
</a>
</g>
</g>
<!-- Node6&#45;&gt;Node12 -->
<g id="edge12" class="edge">
<title>Node6&#45;&gt;Node12</title>
<path fill="none" stroke="midnightblue" d="M627.3,-426.32C548.17,-422.2 415.75,-410.53 381,-378 363.96,-362.05 360.82,-334.02 360.85,-315.36"/>
<polygon fill="midnightblue" stroke="midnightblue" points="364.36,-315.24 361.18,-305.14 357.36,-315.02 364.36,-315.24"/>
</g>
<!-- Node13 -->
<g id="node13" class="node">
<title>Node13</title>
<g id="a_node13"><a xlink:title=" ">
<polygon fill="white" stroke="#bfbfbf" points="688,-353 688,-372 804,-372 804,-353 688,-353"/>
<text text-anchor="middle" x="746" y="-360" font-family="Helvetica,sans-Serif" font-size="10.00">glm/gtc/quaternion.hpp</text>
</a>
</g>
</g>
<!-- Node6&#45;&gt;Node13 -->
<g id="edge13" class="edge">
<title>Node6&#45;&gt;Node13</title>
<path fill="none" stroke="midnightblue" d="M700.59,-414.4C709.63,-404.26 721.85,-390.57 731.33,-379.94"/>
<polygon fill="midnightblue" stroke="midnightblue" points="734.2,-381.99 738.24,-372.19 728.97,-377.33 734.2,-381.99"/>
</g>
<!-- Node14 -->
<g id="node14" class="node">
<title>Node14</title>
<g id="a_node14"><a xlink:title=" ">
<polygon fill="white" stroke="#bfbfbf" points="0,-353 0,-372 116,-372 116,-353 0,-353"/>
<text text-anchor="middle" x="58" y="-360" font-family="Helvetica,sans-Serif" font-size="10.00">glm/gtx/quaternion.hpp</text>
</a>
</g>
</g>
<!-- Node6&#45;&gt;Node14 -->
<g id="edge14" class="edge">
<title>Node6&#45;&gt;Node14</title>
<path fill="none" stroke="midnightblue" d="M627.47,-425.18C524.77,-419.06 310,-404.19 130,-378 122.28,-376.88 114.14,-375.46 106.22,-373.96"/>
<polygon fill="midnightblue" stroke="midnightblue" points="106.84,-370.52 96.35,-372.03 105.49,-377.38 106.84,-370.52"/>
</g>
<!-- Node15 -->
<g id="node15" class="node">
<title>Node15</title>
<g id="a_node15"><a xlink:title=" ">
<polygon fill="white" stroke="#bfbfbf" points="860.5,-224.5 860.5,-243.5 1003.5,-243.5 1003.5,-224.5 860.5,-224.5"/>
<text text-anchor="middle" x="932" y="-231.5" font-family="Helvetica,sans-Serif" font-size="10.00">glm/gtc/matrix_transform.hpp</text>
</a>
</g>
</g>
<!-- Node6&#45;&gt;Node15 -->
<g id="edge15" class="edge">
<title>Node6&#45;&gt;Node15</title>
<path fill="none" stroke="midnightblue" d="M748.63,-420.07C780.4,-413.13 818.33,-400.57 846,-378 884.7,-346.42 874.58,-322.39 901,-280 906.9,-270.54 913.91,-260.28 919.77,-251.96"/>
<polygon fill="midnightblue" stroke="midnightblue" points="922.63,-253.98 925.58,-243.8 916.93,-249.92 922.63,-253.98"/>
</g>
<!-- Node16 -->
<g id="node16" class="node">
<title>Node16</title>
<g id="a_node16"><a xlink:href="_transform_8hpp.html" target="_top" xlink:title=" ">
<polygon fill="white" stroke="black" points="172.5,-353 172.5,-372 333.5,-372 333.5,-353 172.5,-353"/>
<text text-anchor="middle" x="253" y="-360" font-family="Helvetica,sans-Serif" font-size="10.00">kryne&#45;engine/Math/Transform.hpp</text>
</a>
</g>
</g>
<!-- Node6&#45;&gt;Node16 -->
<g id="edge16" class="edge">
<title>Node6&#45;&gt;Node16</title>
<path fill="none" stroke="midnightblue" d="M627.49,-419.59C559.49,-409.55 445.81,-392.73 348,-378 338.51,-376.57 328.49,-375.05 318.65,-373.56"/>
<polygon fill="midnightblue" stroke="midnightblue" points="318.92,-370.06 308.5,-372.01 317.86,-376.98 318.92,-370.06"/>
</g>
<!-- Node18 -->
<g id="node18" class="node">
<title>Node18</title>
<g id="a_node18"><a xlink:href="_scene_8h.html" target="_top" xlink:title=" ">
<polygon fill="white" stroke="black" points="958.5,-353 958.5,-372 1011.5,-372 1011.5,-353 958.5,-353"/>
<text text-anchor="middle" x="985" y="-360" font-family="Helvetica,sans-Serif" font-size="10.00">Scene.h</text>
</a>
</g>
</g>
<!-- Node6&#45;&gt;Node18 -->
<g id="edge19" class="edge">
<title>Node6&#45;&gt;Node18</title>
<path fill="none" stroke="midnightblue" d="M748.65,-420.14C802.06,-411.99 881.61,-397.89 949,-378 951.43,-377.28 953.93,-376.46 956.41,-375.59"/>
<polygon fill="midnightblue" stroke="midnightblue" points="957.7,-378.84 965.81,-372.02 955.22,-372.29 957.7,-378.84"/>
</g>
<!-- Node16&#45;&gt;Node12 -->
<g id="edge17" class="edge">
<title>Node16&#45;&gt;Node12</title>
<path fill="none" stroke="midnightblue" d="M267.7,-352.73C285.92,-341.87 317.2,-323.22 338.7,-310.39"/>
<polygon fill="midnightblue" stroke="midnightblue" points="340.74,-313.26 347.53,-305.13 337.15,-307.24 340.74,-313.26"/>
</g>
<!-- Node17 -->
<g id="node17" class="node">
<title>Node17</title>
<g id="a_node17"><a xlink:title=" ">
<polygon fill="white" stroke="#bfbfbf" points="210,-286 210,-305 296,-305 296,-286 210,-286"/>
<text text-anchor="middle" x="253" y="-293" font-family="Helvetica,sans-Serif" font-size="10.00">glm/mat3x3.hpp</text>
</a>
</g>
</g>
<!-- Node16&#45;&gt;Node17 -->
<g id="edge18" class="edge">
<title>Node16&#45;&gt;Node17</title>
<path fill="none" stroke="midnightblue" d="M253,-352.73C253,-343.18 253,-327.62 253,-315.28"/>
<polygon fill="midnightblue" stroke="midnightblue" points="256.5,-315.13 253,-305.13 249.5,-315.13 256.5,-315.13"/>
</g>
<!-- Node18&#45;&gt;Node2 -->
<g id="edge21" class="edge">
<title>Node18&#45;&gt;Node2</title>
<path fill="none" stroke="midnightblue" d="M986.88,-372.1C991.31,-393.08 1002,-448.59 1002,-495.5 1002,-626 1002,-626 1002,-626 1002,-663.82 973.16,-700.06 953.91,-720.04"/>
<polygon fill="midnightblue" stroke="midnightblue" points="951.2,-717.8 946.59,-727.34 956.14,-722.76 951.2,-717.8"/>
</g>
<!-- Node18&#45;&gt;Node5 -->
<g id="edge20" class="edge">
<title>Node18&#45;&gt;Node5</title>
<path fill="none" stroke="midnightblue" d="M980.14,-352.73C974.69,-342.89 965.7,-326.66 958.78,-314.16"/>
<polygon fill="midnightblue" stroke="midnightblue" points="961.69,-312.18 953.78,-305.13 955.56,-315.57 961.69,-312.18"/>
</g>
<!-- Node19&#45;&gt;Node2 -->
<g id="edge25" class="edge">
<title>Node19&#45;&gt;Node2</title>
<path fill="none" stroke="midnightblue" d="M941.51,-439.15C946,-460.24 946,-515.98 946,-562.5 946,-626 946,-626 946,-626 946,-658.2 946,-695.7 943.43,-717.55"/>
<polygon fill="midnightblue" stroke="midnightblue" points="939.97,-717.01 941.84,-727.44 946.88,-718.13 939.97,-717.01"/>
</g>
<!-- Node19&#45;&gt;Node4 -->
<g id="edge24" class="edge">
<title>Node19&#45;&gt;Node4</title>
<path fill="none" stroke="midnightblue" d="M934.57,-419.73C931.9,-410.09 927.53,-394.3 924.1,-381.91"/>
<polygon fill="midnightblue" stroke="midnightblue" points="927.43,-380.83 921.39,-372.13 920.68,-382.7 927.43,-380.83"/>
</g>
<!-- Node20&#45;&gt;Node2 -->
<g id="edge30" class="edge">
<title>Node20&#45;&gt;Node2</title>
<path fill="none" stroke="midnightblue" d="M1458.26,-685.35C1373.73,-694 1136.46,-717.25 1013.28,-729"/>
<polygon fill="midnightblue" stroke="midnightblue" points="1012.79,-725.53 1003.16,-729.96 1013.45,-732.5 1012.79,-725.53"/>
</g>
<!-- Node20&#45;&gt;Node7 -->
<g id="edge27" class="edge">
<title>Node20&#45;&gt;Node7</title>
<path fill="none" stroke="midnightblue" d="M1485.39,-671.2C1479.61,-657.89 1467.27,-632.36 1451,-615 1341.73,-498.46 1286.42,-501.87 1153,-414 1128.29,-397.73 1119.67,-397.01 1097,-378 1065.91,-351.93 1049.8,-348.78 1035,-311 994.81,-208.4 1141.27,-114.66 1202.9,-80.58"/>
<polygon fill="midnightblue" stroke="midnightblue" points="1204.9,-83.48 1212.02,-75.64 1201.56,-77.33 1204.9,-83.48"/>
</g>
<!-- Node21 -->
<g id="node21" class="node">
<title>Node21</title>
<g id="a_node21"><a xlink:title=" ">
<polygon fill="white" stroke="#bfbfbf" points="1388.5,-286 1388.5,-305 1471.5,-305 1471.5,-286 1388.5,-286"/>
<text text-anchor="middle" x="1430" y="-293" font-family="Helvetica,sans-Serif" font-size="10.00">unordered_map</text>
</a>
</g>
</g>
<!-- Node20&#45;&gt;Node21 -->
<g id="edge28" class="edge">
<title>Node20&#45;&gt;Node21</title>
<path fill="none" stroke="midnightblue" d="M1491.41,-671.39C1496.52,-652.3 1508,-604.94 1508,-564.5 1508,-564.5 1508,-564.5 1508,-428.5 1508,-391.31 1508.31,-378.79 1489,-347 1480.1,-332.35 1465.49,-319.8 1453.03,-310.87"/>
<polygon fill="midnightblue" stroke="midnightblue" points="1454.69,-307.76 1444.46,-305.03 1450.75,-313.55 1454.69,-307.76"/>
</g>
<!-- Node22 -->
<g id="node22" class="node">
<title>Node22</title>
<g id="a_node22"><a xlink:title=" ">
<polygon fill="white" stroke="#bfbfbf" points="1694,-56.5 1694,-75.5 1748,-75.5 1748,-56.5 1694,-56.5"/>
<text text-anchor="middle" x="1721" y="-63.5" font-family="Helvetica,sans-Serif" font-size="10.00">iostream</text>
</a>
</g>
</g>
<!-- Node20&#45;&gt;Node22 -->
<g id="edge29" class="edge">
<title>Node20&#45;&gt;Node22</title>
<path fill="none" stroke="midnightblue" d="M1519.52,-671.81C1606.1,-648.38 1847,-581.64 1847,-564.5 1847,-564.5 1847,-564.5 1847,-428.5 1847,-378.67 1883.2,-375.61 1924,-347 1956.92,-323.92 1984.94,-344.62 2007,-311 2014.56,-299.48 2013.18,-292.31 2007,-280 1953.07,-172.6 1816.49,-105.61 1753.6,-79.5"/>
<polygon fill="midnightblue" stroke="midnightblue" points="1754.75,-76.18 1744.17,-75.66 1752.11,-82.67 1754.75,-76.18"/>
</g>
<!-- Node23 -->
<g id="node23" class="node">
<title>Node23</title>
<g id="a_node23"><a xlink:href="_system_8h.html" target="_top" xlink:title=" ">
<polygon fill="white" stroke="black" points="1913.5,-615.5 1913.5,-634.5 1972.5,-634.5 1972.5,-615.5 1913.5,-615.5"/>
<text text-anchor="middle" x="1943" y="-622.5" font-family="Helvetica,sans-Serif" font-size="10.00">System.h</text>
</a>
</g>
</g>
<!-- Node20&#45;&gt;Node23 -->
<g id="edge31" class="edge">
<title>Node20&#45;&gt;Node23</title>
<path fill="none" stroke="midnightblue" d="M1519.74,-677.19C1587.22,-671.34 1752.4,-656.58 1890,-635 1894.16,-634.35 1898.52,-633.57 1902.9,-632.75"/>
<polygon fill="midnightblue" stroke="midnightblue" points="1903.9,-636.12 1913.06,-630.79 1902.58,-629.25 1903.9,-636.12"/>
</g>
<!-- Node25 -->
<g id="node25" class="node">
<title>Node25</title>
<g id="a_node25"><a xlink:href="_dispatcher_8h.html" target="_top" xlink:title=" ">
<polygon fill="white" stroke="black" points="2054.5,-280.5 2054.5,-310.5 2167.5,-310.5 2167.5,-280.5 2054.5,-280.5"/>
<text text-anchor="start" x="2062.5" y="-298.5" font-family="Helvetica,sans-Serif" font-size="10.00">kryne&#45;engine/Dispatch</text>
<text text-anchor="middle" x="2111" y="-287.5" font-family="Helvetica,sans-Serif" font-size="10.00">/Dispatcher.h</text>
</a>
</g>
</g>
<!-- Node20&#45;&gt;Node25 -->
<g id="edge35" class="edge">
<title>Node20&#45;&gt;Node25</title>
<path fill="none" stroke="midnightblue" d="M1519.58,-672.05C1521.41,-671.67 1523.22,-671.32 1525,-671 1598.94,-657.86 1802.36,-681.91 1861,-635 1886.85,-614.32 1885,-597.6 1885,-564.5 1885,-564.5 1885,-564.5 1885,-428.5 1885,-387.84 1995.43,-339.53 2061.9,-314.13"/>
<polygon fill="midnightblue" stroke="midnightblue" points="2063.26,-317.36 2071.38,-310.55 2060.78,-310.81 2063.26,-317.36"/>
</g>
<!-- Node36 -->
<g id="node35" class="node">
<title>Node36</title>
<g id="a_node35"><a xlink:href="_graphic_context_8h.html" target="_top" xlink:title=" ">
<polygon fill="white" stroke="black" points="1278.5,-615.5 1278.5,-634.5 1441.5,-634.5 1441.5,-615.5 1278.5,-615.5"/>
<text text-anchor="middle" x="1360" y="-622.5" font-family="Helvetica,sans-Serif" font-size="10.00">GraphicContext/GraphicContext.h</text>
</a>
</g>
</g>
<!-- Node20&#45;&gt;Node36 -->
<g id="edge50" class="edge">
<title>Node20&#45;&gt;Node36</title>
<path fill="none" stroke="midnightblue" d="M1468.56,-671.44C1447.33,-662.56 1413.9,-648.56 1389.75,-638.45"/>
<polygon fill="midnightblue" stroke="midnightblue" points="1390.92,-635.15 1380.34,-634.52 1388.22,-641.61 1390.92,-635.15"/>
</g>
<!-- Node44 -->
<g id="node43" class="node">
<title>Node44</title>
<g id="a_node43"><a xlink:href="_render_mesh_8h.html" target="_top" xlink:title=" ">
<polygon fill="white" stroke="black" points="1068.5,-481.5 1068.5,-511.5 1187.5,-511.5 1187.5,-481.5 1068.5,-481.5"/>
<text text-anchor="start" x="1076.5" y="-499.5" font-family="Helvetica,sans-Serif" font-size="10.00">kryne&#45;engine/Rendering</text>
<text text-anchor="middle" x="1128" y="-488.5" font-family="Helvetica,sans-Serif" font-size="10.00">/RenderMesh.h</text>
</a>
</g>
</g>
<!-- Node20&#45;&gt;Node44 -->
<g id="edge81" class="edge">
<title>Node20&#45;&gt;Node44</title>
<path fill="none" stroke="midnightblue" d="M1458.31,-675.34C1382.25,-663.12 1188.26,-627.73 1148,-579 1134.7,-562.91 1130.03,-539.3 1128.48,-521.63"/>
<polygon fill="midnightblue" stroke="midnightblue" points="1131.97,-521.29 1127.88,-511.52 1124.98,-521.71 1131.97,-521.29"/>
</g>
<!-- Node23&#45;&gt;Node2 -->
<g id="edge34" class="edge">
<title>Node23&#45;&gt;Node2</title>
<path fill="none" stroke="midnightblue" d="M1913.22,-632.31C1908.47,-633.25 1903.61,-634.18 1899,-635 1735.25,-664.12 1694.26,-672.24 1529,-691 1344.52,-711.94 1126.56,-725.69 1013.57,-732"/>
<polygon fill="midnightblue" stroke="midnightblue" points="1013.09,-728.52 1003.3,-732.57 1013.47,-735.51 1013.09,-728.52"/>
</g>
<!-- Node23&#45;&gt;Node20 -->
<g id="edge33" class="edge">
<title>Node23&#45;&gt;Node20</title>
<path fill="none" stroke="midnightblue" d="M1913.16,-634.15C1911.42,-634.45 1909.69,-634.73 1908,-635 1770.34,-656.59 1605.05,-671.36 1529.73,-677.2"/>
<polygon fill="midnightblue" stroke="midnightblue" points="1529.42,-673.71 1519.72,-677.97 1529.95,-680.69 1529.42,-673.71"/>
</g>
<!-- Node24 -->
<g id="node24" class="node">
<title>Node24</title>
<g id="a_node24"><a xlink:href="_system_types_8h.html" target="_top" xlink:title=" ">
<polygon fill="white" stroke="black" points="1913,-548.5 1913,-578.5 2017,-578.5 2017,-548.5 1913,-548.5"/>
<text text-anchor="start" x="1921" y="-566.5" font-family="Helvetica,sans-Serif" font-size="10.00">kryne&#45;engine/enums</text>
<text text-anchor="middle" x="1965" y="-555.5" font-family="Helvetica,sans-Serif" font-size="10.00">/SystemTypes.h</text>
</a>
</g>
</g>
<!-- Node23&#45;&gt;Node24 -->
<g id="edge32" class="edge">
<title>Node23&#45;&gt;Node24</title>
<path fill="none" stroke="midnightblue" d="M1946.15,-615.48C1948.8,-608.32 1952.71,-597.75 1956.28,-588.08"/>
<polygon fill="midnightblue" stroke="midnightblue" points="1959.63,-589.12 1959.82,-578.52 1953.06,-586.69 1959.63,-589.12"/>
</g>
<!-- Node26 -->
<g id="node26" class="node">
<title>Node26</title>
<g id="a_node26"><a xlink:href="_synchronizable_pool_8h.html" target="_top" xlink:title=" ">
<polygon fill="white" stroke="black" points="2116.5,-168.5 2116.5,-187.5 2227.5,-187.5 2227.5,-168.5 2116.5,-168.5"/>
<text text-anchor="middle" x="2172" y="-175.5" font-family="Helvetica,sans-Serif" font-size="10.00">SynchronizablePool.h</text>
</a>
</g>
</g>
<!-- Node25&#45;&gt;Node26 -->
<g id="edge36" class="edge">
<title>Node25&#45;&gt;Node26</title>
<path fill="none" stroke="midnightblue" d="M2113.06,-280.25C2115.63,-265.46 2120.98,-242.01 2131,-224 2137.07,-213.08 2146.28,-202.65 2154.43,-194.59"/>
<polygon fill="midnightblue" stroke="midnightblue" points="2156.92,-197.05 2161.79,-187.64 2152.11,-191.96 2156.92,-197.05"/>
</g>
<!-- Node34 -->
<g id="node33" class="node">
<title>Node34</title>
<g id="a_node33"><a xlink:href="_runner_pool_8h.html" target="_top" xlink:title=" ">
<polygon fill="white" stroke="black" points="2023.5,-168.5 2023.5,-187.5 2098.5,-187.5 2098.5,-168.5 2023.5,-168.5"/>
<text text-anchor="middle" x="2061" y="-175.5" font-family="Helvetica,sans-Serif" font-size="10.00">RunnerPool.h</text>
</a>
</g>
</g>
<!-- Node25&#45;&gt;Node34 -->
<g id="edge46" class="edge">
<title>Node25&#45;&gt;Node34</title>
<path fill="none" stroke="midnightblue" d="M2104.87,-280.34C2095.78,-259.34 2078.73,-219.96 2068.77,-196.96"/>
<polygon fill="midnightblue" stroke="midnightblue" points="2071.94,-195.46 2064.75,-187.67 2065.51,-198.24 2071.94,-195.46"/>
</g>
<!-- Node35 -->
<g id="node34" class="node">
<title>Node35</title>
<g id="a_node34"><a xlink:href="_main_pool_8h.html" target="_top" xlink:title=" ">
<polygon fill="white" stroke="black" points="2139.5,-224.5 2139.5,-243.5 2204.5,-243.5 2204.5,-224.5 2139.5,-224.5"/>
<text text-anchor="middle" x="2172" y="-231.5" font-family="Helvetica,sans-Serif" font-size="10.00">MainPool.h</text>
</a>
</g>
</g>
<!-- Node25&#45;&gt;Node35 -->
<g id="edge48" class="edge">
<title>Node25&#45;&gt;Node35</title>
<path fill="none" stroke="midnightblue" d="M2125.46,-280.4C2134.59,-271.49 2146.42,-259.95 2155.86,-250.74"/>
<polygon fill="midnightblue" stroke="midnightblue" points="2158.41,-253.15 2163.12,-243.66 2153.52,-248.13 2158.41,-253.15"/>
</g>
<!-- Node27 -->
<g id="node27" class="node">
<title>Node27</title>
<g id="a_node27"><a xlink:href="_thread_pool_8h.html" target="_top" xlink:title=" ">
<polygon fill="white" stroke="black" points="2023,-112.5 2023,-131.5 2097,-131.5 2097,-112.5 2023,-112.5"/>
<text text-anchor="middle" x="2060" y="-119.5" font-family="Helvetica,sans-Serif" font-size="10.00">ThreadPool.h</text>
</a>
</g>
</g>
<!-- Node26&#45;&gt;Node27 -->
<g id="edge37" class="edge">
<title>Node26&#45;&gt;Node27</title>
<path fill="none" stroke="midnightblue" d="M2154.01,-168.32C2135.96,-159.62 2107.95,-146.12 2087.2,-136.11"/>
<polygon fill="midnightblue" stroke="midnightblue" points="2088.48,-132.84 2077.95,-131.65 2085.44,-139.15 2088.48,-132.84"/>
</g>
<!-- Node27&#45;&gt;Node7 -->
<g id="edge42" class="edge">
<title>Node27&#45;&gt;Node7</title>
<path fill="none" stroke="midnightblue" d="M2022.95,-118.59C1885.11,-109.64 1402.82,-78.29 1265.65,-69.38"/>
<polygon fill="midnightblue" stroke="midnightblue" points="1265.48,-65.86 1255.28,-68.71 1265.03,-72.85 1265.48,-65.86"/>
</g>
<!-- Node27&#45;&gt;Node22 -->
<g id="edge43" class="edge">
<title>Node27&#45;&gt;Node22</title>
<path fill="none" stroke="midnightblue" d="M2022.97,-114.38C2018.27,-113.56 2013.52,-112.75 2009,-112 1918.96,-97.02 1812.82,-80.81 1757.98,-72.54"/>
<polygon fill="midnightblue" stroke="midnightblue" points="1758.44,-69.07 1748.03,-71.04 1757.4,-75.99 1758.44,-69.07"/>
</g>
<!-- Node28 -->
<g id="node28" class="node">
<title>Node28</title>
<g id="a_node28"><a xlink:title=" ">
<polygon fill="white" stroke="#bfbfbf" points="2075,-56.5 2075,-75.5 2119,-75.5 2119,-56.5 2075,-56.5"/>
<text text-anchor="middle" x="2097" y="-63.5" font-family="Helvetica,sans-Serif" font-size="10.00">thread</text>
</a>
</g>
</g>
<!-- Node27&#45;&gt;Node28 -->
<g id="edge38" class="edge">
<title>Node27&#45;&gt;Node28</title>
<path fill="none" stroke="midnightblue" d="M2066.11,-112.08C2071.28,-104.53 2078.85,-93.49 2085.19,-84.23"/>
<polygon fill="midnightblue" stroke="midnightblue" points="2088.24,-85.98 2091,-75.75 2082.46,-82.02 2088.24,-85.98"/>
</g>
<!-- Node29 -->
<g id="node29" class="node">
<title>Node29</title>
<g id="a_node29"><a xlink:title=" ">
<polygon fill="white" stroke="#bfbfbf" points="2137,-56.5 2137,-75.5 2181,-75.5 2181,-56.5 2137,-56.5"/>
<text text-anchor="middle" x="2159" y="-63.5" font-family="Helvetica,sans-Serif" font-size="10.00">mutex</text>
</a>
</g>
</g>
<!-- Node27&#45;&gt;Node29 -->
<g id="edge39" class="edge">
<title>Node27&#45;&gt;Node29</title>
<path fill="none" stroke="midnightblue" d="M2075.91,-112.32C2091.64,-103.74 2115.94,-90.49 2134.21,-80.52"/>
<polygon fill="midnightblue" stroke="midnightblue" points="2136.03,-83.52 2143.13,-75.65 2132.68,-77.37 2136.03,-83.52"/>
</g>
<!-- Node30 -->
<g id="node30" class="node">
<title>Node30</title>
<g id="a_node30"><a xlink:title=" ">
<polygon fill="white" stroke="#bfbfbf" points="1819.5,-56.5 1819.5,-75.5 1912.5,-75.5 1912.5,-56.5 1819.5,-56.5"/>
<text text-anchor="middle" x="1866" y="-63.5" font-family="Helvetica,sans-Serif" font-size="10.00">condition_variable</text>
</a>
</g>
</g>
<!-- Node27&#45;&gt;Node30 -->
<g id="edge40" class="edge">
<title>Node27&#45;&gt;Node30</title>
<path fill="none" stroke="midnightblue" d="M2029.26,-112.44C1996.06,-103.2 1943.01,-88.44 1906.44,-78.26"/>
<polygon fill="midnightblue" stroke="midnightblue" points="1907.17,-74.83 1896.6,-75.52 1905.29,-81.57 1907.17,-74.83"/>
</g>
<!-- Node31 -->
<g id="node31" class="node">
<title>Node31</title>
<g id="a_node31"><a xlink:title=" ">
<polygon fill="white" stroke="#bfbfbf" points="1930.5,-56.5 1930.5,-75.5 1971.5,-75.5 1971.5,-56.5 1930.5,-56.5"/>
<text text-anchor="middle" x="1951" y="-63.5" font-family="Helvetica,sans-Serif" font-size="10.00">future</text>
</a>
</g>
</g>
<!-- Node27&#45;&gt;Node31 -->
<g id="edge41" class="edge">
<title>Node27&#45;&gt;Node31</title>
<path fill="none" stroke="midnightblue" d="M2042.49,-112.32C2024.93,-103.62 1997.67,-90.12 1977.47,-80.11"/>
<polygon fill="midnightblue" stroke="midnightblue" points="1978.98,-76.96 1968.47,-75.65 1975.88,-83.23 1978.98,-76.96"/>
</g>
<!-- Node32 -->
<g id="node32" class="node">
<title>Node32</title>
<g id="a_node32"><a xlink:href="_base_pool_8h.html" target="_top" xlink:title=" ">
<polygon fill="white" stroke="red" points="1989.5,-56.5 1989.5,-75.5 2056.5,-75.5 2056.5,-56.5 1989.5,-56.5"/>
<text text-anchor="middle" x="2023" y="-63.5" font-family="Helvetica,sans-Serif" font-size="10.00">BasePool.h</text>
</a>
</g>
</g>
<!-- Node27&#45;&gt;Node32 -->
<g id="edge44" class="edge">
<title>Node27&#45;&gt;Node32</title>
<path fill="none" stroke="midnightblue" d="M2053.89,-112.08C2048.72,-104.53 2041.15,-93.49 2034.81,-84.23"/>
<polygon fill="midnightblue" stroke="midnightblue" points="2037.54,-82.02 2029,-75.75 2031.76,-85.98 2037.54,-82.02"/>
</g>
<!-- Node32&#45;&gt;Node8 -->
<g id="edge45" class="edge">
<title>Node32&#45;&gt;Node8</title>
<path fill="none" stroke="midnightblue" d="M1989.16,-57.25C1986.41,-56.78 1983.66,-56.35 1981,-56 1634.65,-10.73 1209.66,-9.94 1091.67,-10.69"/>
<polygon fill="midnightblue" stroke="midnightblue" points="1091.51,-7.19 1081.53,-10.77 1091.56,-14.19 1091.51,-7.19"/>
</g>
<!-- Node34&#45;&gt;Node27 -->
<g id="edge47" class="edge">
<title>Node34&#45;&gt;Node27</title>
<path fill="none" stroke="midnightblue" d="M2060.83,-168.08C2060.7,-161.01 2060.52,-150.86 2060.35,-141.99"/>
<polygon fill="midnightblue" stroke="midnightblue" points="2063.85,-141.68 2060.16,-131.75 2056.85,-141.81 2063.85,-141.68"/>
</g>
<!-- Node35&#45;&gt;Node26 -->
<g id="edge49" class="edge">
<title>Node35&#45;&gt;Node26</title>
<path fill="none" stroke="midnightblue" d="M2172,-224.08C2172,-217.01 2172,-206.86 2172,-197.99"/>
<polygon fill="midnightblue" stroke="midnightblue" points="2175.5,-197.75 2172,-187.75 2168.5,-197.75 2175.5,-197.75"/>
</g>
<!-- Node37 -->
<g id="node36" class="node">
<title>Node37</title>
<g id="a_node36"><a xlink:href="_player_input_8h.html" target="_top" xlink:title=" ">
<polygon fill="white" stroke="black" points="1554,-347.5 1554,-377.5 1650,-377.5 1650,-347.5 1554,-347.5"/>
<text text-anchor="start" x="1562" y="-365.5" font-family="Helvetica,sans-Serif" font-size="10.00">kryne&#45;engine/Input</text>
<text text-anchor="middle" x="1602" y="-354.5" font-family="Helvetica,sans-Serif" font-size="10.00">/PlayerInput.h</text>
</a>
</g>
</g>
<!-- Node36&#45;&gt;Node37 -->
<g id="edge51" class="edge">
<title>Node36&#45;&gt;Node37</title>
<path fill="none" stroke="midnightblue" d="M1368.05,-615.33C1401.67,-579.14 1531.44,-439.45 1581.83,-385.21"/>
<polygon fill="midnightblue" stroke="midnightblue" points="1584.7,-387.27 1588.94,-377.56 1579.57,-382.5 1584.7,-387.27"/>
</g>
<!-- Node43 -->
<g id="node42" class="node">
<title>Node43</title>
<g id="a_node42"><a xlink:href="_loop_renderer_8h.html" target="_top" xlink:title=" ">
<polygon fill="white" stroke="black" points="1156.5,-548.5 1156.5,-578.5 1275.5,-578.5 1275.5,-548.5 1156.5,-548.5"/>
<text text-anchor="start" x="1164.5" y="-566.5" font-family="Helvetica,sans-Serif" font-size="10.00">kryne&#45;engine/Rendering</text>
<text text-anchor="middle" x="1216" y="-555.5" font-family="Helvetica,sans-Serif" font-size="10.00">/LoopRenderer.h</text>
</a>
</g>
</g>
<!-- Node36&#45;&gt;Node43 -->
<g id="edge61" class="edge">
<title>Node36&#45;&gt;Node43</title>
<path fill="none" stroke="midnightblue" d="M1339.37,-615.48C1318.59,-606.89 1285.9,-593.38 1259.39,-582.43"/>
<polygon fill="midnightblue" stroke="midnightblue" points="1260.52,-579.11 1249.94,-578.52 1257.84,-585.58 1260.52,-579.11"/>
</g>
<!-- Node37&#45;&gt;Node5 -->
<g id="edge53" class="edge">
<title>Node37&#45;&gt;Node5</title>
<path fill="none" stroke="midnightblue" d="M1553.95,-354.81C1533.9,-352.16 1510.35,-349.21 1489,-347 1287.67,-326.11 1235.88,-335.85 1035,-311 1023.03,-309.52 1010.17,-307.55 998.15,-305.55"/>
<polygon fill="midnightblue" stroke="midnightblue" points="998.73,-302.1 988.28,-303.87 997.55,-309 998.73,-302.1"/>
</g>
<!-- Node37&#45;&gt;Node7 -->
<g id="edge56" class="edge">
<title>Node37&#45;&gt;Node7</title>
<path fill="none" stroke="midnightblue" d="M1599.92,-347.43C1596.74,-329.98 1589.23,-300.1 1573,-280 1486.79,-173.2 1331.78,-105.35 1263.22,-79.21"/>
<polygon fill="midnightblue" stroke="midnightblue" points="1264.34,-75.89 1253.75,-75.65 1261.88,-82.44 1264.34,-75.89"/>
</g>
<!-- Node37&#45;&gt;Node21 -->
<g id="edge54" class="edge">
<title>Node37&#45;&gt;Node21</title>
<path fill="none" stroke="midnightblue" d="M1564.68,-347.4C1534.1,-335.84 1491.27,-319.66 1462.18,-308.66"/>
<polygon fill="midnightblue" stroke="midnightblue" points="1463.1,-305.27 1452.51,-305.01 1460.63,-311.82 1463.1,-305.27"/>
</g>
<!-- Node37&#45;&gt;Node22 -->
<g id="edge55" class="edge">
<title>Node37&#45;&gt;Node22</title>
<path fill="none" stroke="midnightblue" d="M1607.27,-347.31C1615.38,-324.14 1630,-276.61 1630,-235 1630,-235 1630,-235 1630,-177 1630,-134.47 1670.89,-99.53 1697.85,-81.12"/>
<polygon fill="midnightblue" stroke="midnightblue" points="1699.94,-83.93 1706.38,-75.52 1696.1,-78.08 1699.94,-83.93"/>
</g>
<!-- Node38 -->
<g id="node37" class="node">
<title>Node38</title>
<g id="a_node37"><a xlink:title=" ">
<polygon fill="white" stroke="#bfbfbf" points="1886,-286 1886,-305 1916,-305 1916,-286 1886,-286"/>
<text text-anchor="middle" x="1901" y="-293" font-family="Helvetica,sans-Serif" font-size="10.00">set</text>
</a>
</g>
</g>
<!-- Node37&#45;&gt;Node38 -->
<g id="edge52" class="edge">
<title>Node37&#45;&gt;Node38</title>
<path fill="none" stroke="midnightblue" d="M1650.12,-357.95C1706.15,-352.63 1800.75,-339.92 1877,-311 1877.88,-310.67 1878.76,-310.3 1879.63,-309.91"/>
<polygon fill="midnightblue" stroke="midnightblue" points="1881.55,-312.86 1888.73,-305.07 1878.26,-306.68 1881.55,-312.86"/>
</g>
<!-- Node39 -->
<g id="node38" class="node">
<title>Node39</title>
<g id="a_node38"><a xlink:title=" ">
<polygon fill="white" stroke="#bfbfbf" points="1934,-286 1934,-305 1998,-305 1998,-286 1934,-286"/>
<text text-anchor="middle" x="1966" y="-293" font-family="Helvetica,sans-Serif" font-size="10.00">glad/glad.h</text>
</a>
</g>
</g>
<!-- Node37&#45;&gt;Node39 -->
<g id="edge57" class="edge">
<title>Node37&#45;&gt;Node39</title>
<path fill="none" stroke="midnightblue" d="M1650.17,-356.78C1713.78,-349.91 1828.98,-335.26 1925,-311 1928.05,-310.23 1931.19,-309.33 1934.32,-308.35"/>
<polygon fill="midnightblue" stroke="midnightblue" points="1935.72,-311.57 1944.1,-305.09 1933.51,-304.93 1935.72,-311.57"/>
</g>
<!-- Node40 -->
<g id="node39" class="node">
<title>Node40</title>
<g id="a_node39"><a xlink:title=" ">
<polygon fill="white" stroke="#bfbfbf" points="1658,-286 1658,-305 1736,-305 1736,-286 1658,-286"/>
<text text-anchor="middle" x="1697" y="-293" font-family="Helvetica,sans-Serif" font-size="10.00">GLFW/glfw3.h</text>
</a>
</g>
</g>
<!-- Node37&#45;&gt;Node40 -->
<g id="edge58" class="edge">
<title>Node37&#45;&gt;Node40</title>
<path fill="none" stroke="midnightblue" d="M1622.61,-347.4C1638.4,-336.6 1660.09,-321.76 1675.97,-310.89"/>
<polygon fill="midnightblue" stroke="midnightblue" points="1678.29,-313.54 1684.57,-305.01 1674.34,-307.77 1678.29,-313.54"/>
</g>
<!-- Node41 -->
<g id="node40" class="node">
<title>Node41</title>
<g id="a_node40"><a xlink:title=" ">
<polygon fill="white" stroke="#bfbfbf" points="1754,-286 1754,-305 1868,-305 1868,-286 1754,-286"/>
<text text-anchor="middle" x="1811" y="-293" font-family="Helvetica,sans-Serif" font-size="10.00">boost/lexical_cast.hpp</text>
</a>
</g>
</g>
<!-- Node37&#45;&gt;Node41 -->
<g id="edge59" class="edge">
<title>Node37&#45;&gt;Node41</title>
<path fill="none" stroke="midnightblue" d="M1647.09,-347.48C1684.88,-335.72 1738.19,-319.14 1773.64,-308.12"/>
<polygon fill="midnightblue" stroke="midnightblue" points="1775.07,-311.34 1783.58,-305.03 1772.99,-304.66 1775.07,-311.34"/>
</g>
<!-- Node42 -->
<g id="node41" class="node">
<title>Node42</title>
<g id="a_node41"><a xlink:title=" ">
<polygon fill="white" stroke="#bfbfbf" points="1490,-286 1490,-305 1564,-305 1564,-286 1490,-286"/>
<text text-anchor="middle" x="1527" y="-293" font-family="Helvetica,sans-Serif" font-size="10.00">glm/vec2.hpp</text>
</a>
</g>
</g>
<!-- Node37&#45;&gt;Node42 -->
<g id="edge60" class="edge">
<title>Node37&#45;&gt;Node42</title>
<path fill="none" stroke="midnightblue" d="M1585.73,-347.4C1573.68,-336.96 1557.29,-322.75 1544.88,-312"/>
<polygon fill="midnightblue" stroke="midnightblue" points="1546.88,-309.1 1537.03,-305.19 1542.3,-314.39 1546.88,-309.1"/>
</g>
<!-- Node43&#45;&gt;Node18 -->
<g id="edge62" class="edge">
<title>Node43&#45;&gt;Node18</title>
<path fill="none" stroke="midnightblue" d="M1216.07,-548.37C1215.46,-530.88 1212.06,-500.94 1197,-481 1152.49,-422.06 1069.36,-388.71 1021.49,-373.56"/>
<polygon fill="midnightblue" stroke="midnightblue" points="1022.42,-370.19 1011.84,-370.6 1020.37,-376.88 1022.42,-370.19"/>
</g>
<!-- Node43&#45;&gt;Node44 -->
<g id="edge63" class="edge">
<title>Node43&#45;&gt;Node44</title>
<path fill="none" stroke="midnightblue" d="M1196.91,-548.4C1184.68,-539.37 1168.63,-527.51 1155.1,-517.52"/>
<polygon fill="midnightblue" stroke="midnightblue" points="1157.18,-514.7 1147.06,-511.58 1153.02,-520.33 1157.18,-514.7"/>
</g>
<!-- Node44&#45;&gt;Node19 -->
<g id="edge64" class="edge">
<title>Node44&#45;&gt;Node19</title>
<path fill="none" stroke="midnightblue" d="M1086.56,-481.4C1052.15,-469.69 1003.8,-453.23 971.48,-442.23"/>
<polygon fill="midnightblue" stroke="midnightblue" points="972.59,-438.92 962,-439.01 970.34,-445.54 972.59,-438.92"/>
</g>
<!-- Node45 -->
<g id="node44" class="node">
<title>Node45</title>
<g id="a_node44"><a xlink:href="_i_render_mesh_8hpp.html" target="_top" xlink:title=" ">
<polygon fill="white" stroke="black" points="1282,-420 1282,-439 1374,-439 1374,-420 1282,-420"/>
<text text-anchor="middle" x="1328" y="-427" font-family="Helvetica,sans-Serif" font-size="10.00">IRenderMesh.hpp</text>
</a>
</g>
</g>
<!-- Node44&#45;&gt;Node45 -->
<g id="edge65" class="edge">
<title>Node44&#45;&gt;Node45</title>
<path fill="none" stroke="midnightblue" d="M1171.4,-481.4C1207.42,-469.69 1258.06,-453.23 1291.9,-442.23"/>
<polygon fill="midnightblue" stroke="midnightblue" points="1293.4,-445.43 1301.82,-439.01 1291.23,-438.77 1293.4,-445.43"/>
</g>
<!-- Node46 -->
<g id="node45" class="node">
<title>Node46</title>
<g id="a_node45"><a xlink:href="_i_camera_8hpp.html" target="_top" xlink:title=" ">
<polygon fill="white" stroke="black" points="1106.5,-347.5 1106.5,-377.5 1215.5,-377.5 1215.5,-347.5 1106.5,-347.5"/>
<text text-anchor="start" x="1114.5" y="-365.5" font-family="Helvetica,sans-Serif" font-size="10.00">kryne&#45;engine/Camera</text>
<text text-anchor="middle" x="1161" y="-354.5" font-family="Helvetica,sans-Serif" font-size="10.00">/ICamera.hpp</text>
</a>
</g>
</g>
<!-- Node45&#45;&gt;Node46 -->
<g id="edge66" class="edge">
<title>Node45&#45;&gt;Node46</title>
<path fill="none" stroke="midnightblue" d="M1305.82,-419.87C1280.66,-410.07 1238.92,-393.83 1206.71,-381.29"/>
<polygon fill="midnightblue" stroke="midnightblue" points="1207.63,-377.89 1197.04,-377.53 1205.09,-384.42 1207.63,-377.89"/>
</g>
<!-- Node49 -->
<g id="node48" class="node">
<title>Node49</title>
<g id="a_node48"><a xlink:href="_buffer_geometry_8h.html" target="_top" xlink:title=" ">
<polygon fill="white" stroke="red" points="1362,-347.5 1362,-377.5 1480,-377.5 1480,-347.5 1362,-347.5"/>
<text text-anchor="start" x="1370" y="-365.5" font-family="Helvetica,sans-Serif" font-size="10.00">kryne&#45;engine/Geometry</text>
<text text-anchor="middle" x="1421" y="-354.5" font-family="Helvetica,sans-Serif" font-size="10.00">/BufferGeometry.h</text>
</a>
</g>
</g>
<!-- Node45&#45;&gt;Node49 -->
<g id="edge72" class="edge">
<title>Node45&#45;&gt;Node49</title>
<path fill="none" stroke="midnightblue" d="M1340.54,-419.73C1353.72,-410.53 1374.88,-395.73 1392.2,-383.63"/>
<polygon fill="midnightblue" stroke="midnightblue" points="1394.65,-386.19 1400.84,-377.59 1390.64,-380.45 1394.65,-386.19"/>
</g>
<!-- Node54 -->
<g id="node50" class="node">
<title>Node54</title>
<g id="a_node50"><a xlink:href="kryne-engine_2_material_2_material_8h.html" target="_top" xlink:title=" ">
<polygon fill="white" stroke="red" points="1234,-347.5 1234,-377.5 1344,-377.5 1344,-347.5 1234,-347.5"/>
<text text-anchor="start" x="1242" y="-365.5" font-family="Helvetica,sans-Serif" font-size="10.00">kryne&#45;engine/Material</text>
<text text-anchor="middle" x="1289" y="-354.5" font-family="Helvetica,sans-Serif" font-size="10.00">/Material.h</text>
</a>
</g>
</g>
<!-- Node45&#45;&gt;Node54 -->
<g id="edge80" class="edge">
<title>Node45&#45;&gt;Node54</title>
<path fill="none" stroke="midnightblue" d="M1322.74,-419.73C1317.62,-411.2 1309.62,-397.87 1302.7,-386.33"/>
<polygon fill="midnightblue" stroke="midnightblue" points="1305.6,-384.36 1297.45,-377.59 1299.6,-387.96 1305.6,-384.36"/>
</g>
<!-- Node46&#45;&gt;Node7 -->
<g id="edge67" class="edge">
<title>Node46&#45;&gt;Node7</title>
<path fill="none" stroke="midnightblue" d="M1170.45,-347.39C1184.69,-324.73 1210,-278.34 1210,-235 1210,-235 1210,-235 1210,-177 1210,-144.49 1218.16,-107.35 1223.78,-85.61"/>
<polygon fill="midnightblue" stroke="midnightblue" points="1227.22,-86.32 1226.44,-75.75 1220.46,-84.5 1227.22,-86.32"/>
</g>
<!-- Node47 -->
<g id="node46" class="node">
<title>Node47</title>
<g id="a_node46"><a xlink:title=" ">
<polygon fill="white" stroke="#bfbfbf" points="1073,-224.5 1073,-243.5 1159,-243.5 1159,-224.5 1073,-224.5"/>
<text text-anchor="middle" x="1116" y="-231.5" font-family="Helvetica,sans-Serif" font-size="10.00">glm/mat4x4.hpp</text>
</a>
</g>
</g>
<!-- Node46&#45;&gt;Node47 -->
<g id="edge68" class="edge">
<title>Node46&#45;&gt;Node47</title>
<path fill="none" stroke="midnightblue" d="M1162.04,-347.35C1162.74,-330.6 1162.2,-302.2 1153,-280 1148.47,-269.07 1140.35,-258.73 1132.87,-250.72"/>
<polygon fill="midnightblue" stroke="midnightblue" points="1135.29,-248.19 1125.76,-243.56 1130.32,-253.13 1135.29,-248.19"/>
</g>
<!-- Node48 -->
<g id="node47" class="node">
<title>Node48</title>
<g id="a_node47"><a xlink:href="_projection_data_8hpp.html" target="_top" xlink:title=" ">
<polygon fill="white" stroke="black" points="1044.5,-286 1044.5,-305 1143.5,-305 1143.5,-286 1044.5,-286"/>
<text text-anchor="middle" x="1094" y="-293" font-family="Helvetica,sans-Serif" font-size="10.00">ProjectionData.hpp</text>
</a>
</g>
</g>
<!-- Node46&#45;&gt;Node48 -->
<g id="edge69" class="edge">
<title>Node46&#45;&gt;Node48</title>
<path fill="none" stroke="midnightblue" d="M1146.46,-347.4C1135.81,-337.06 1121.34,-323.02 1110.3,-312.31"/>
<polygon fill="midnightblue" stroke="midnightblue" points="1112.58,-309.65 1102.96,-305.19 1107.7,-314.67 1112.58,-309.65"/>
</g>
<!-- Node48&#45;&gt;Node15 -->
<g id="edge71" class="edge">
<title>Node48&#45;&gt;Node15</title>
<path fill="none" stroke="midnightblue" d="M1070.79,-285.98C1043,-275.77 996.28,-258.61 964.81,-247.05"/>
<polygon fill="midnightblue" stroke="midnightblue" points="965.76,-243.67 955.17,-243.51 963.35,-250.24 965.76,-243.67"/>
</g>
<!-- Node48&#45;&gt;Node47 -->
<g id="edge70" class="edge">
<title>Node48&#45;&gt;Node47</title>
<path fill="none" stroke="midnightblue" d="M1097.15,-285.98C1100.32,-277.4 1105.3,-263.93 1109.35,-252.98"/>
<polygon fill="midnightblue" stroke="midnightblue" points="1112.67,-254.1 1112.85,-243.51 1106.1,-251.67 1112.67,-254.1"/>
</g>
<!-- Node49&#45;&gt;Node7 -->
<g id="edge74" class="edge">
<title>Node49&#45;&gt;Node7</title>
<path fill="none" stroke="midnightblue" d="M1361.84,-348.36C1324.26,-338.88 1280.27,-325.26 1267,-311 1243.28,-285.51 1248,-269.82 1248,-235 1248,-235 1248,-235 1248,-177 1248,-144.49 1239.84,-107.35 1234.22,-85.61"/>
<polygon fill="midnightblue" stroke="midnightblue" points="1237.54,-84.5 1231.56,-75.75 1230.78,-86.32 1237.54,-84.5"/>
</g>
<!-- Node49&#45;&gt;Node12 -->
<g id="edge78" class="edge">
<title>Node49&#45;&gt;Node12</title>
<path fill="none" stroke="midnightblue" d="M1361.76,-348.29C1358.8,-347.81 1355.87,-347.38 1353,-347 1167.08,-322.6 580.75,-303.18 409.44,-297.91"/>
<polygon fill="midnightblue" stroke="midnightblue" points="409.34,-294.41 399.23,-297.6 409.12,-301.41 409.34,-294.41"/>
</g>
<!-- Node49&#45;&gt;Node21 -->
<g id="edge76" class="edge">
<title>Node49&#45;&gt;Node21</title>
<path fill="none" stroke="midnightblue" d="M1422.95,-347.4C1424.26,-337.96 1425.99,-325.45 1427.41,-315.19"/>
<polygon fill="midnightblue" stroke="midnightblue" points="1430.89,-315.58 1428.8,-305.19 1423.96,-314.62 1430.89,-315.58"/>
</g>
<!-- Node49&#45;&gt;Node22 -->
<g id="edge75" class="edge">
<title>Node49&#45;&gt;Node22</title>
<path fill="none" stroke="midnightblue" d="M1404.99,-347.22C1388.64,-330.83 1367.33,-303.22 1380,-280 1445.45,-160.03 1610.25,-98.98 1684.15,-76.9"/>
<polygon fill="midnightblue" stroke="midnightblue" points="1685.33,-80.2 1693.95,-74.04 1683.37,-73.48 1685.33,-80.2"/>
</g>
<!-- Node49&#45;&gt;Node25 -->
<g id="edge79" class="edge">
<title>Node49&#45;&gt;Node25</title>
<path fill="none" stroke="midnightblue" d="M1480.24,-354.1C1500.73,-351.67 1523.86,-349.06 1545,-347 1749.99,-327.04 1802.25,-333.23 2007,-311 2019.04,-309.69 2031.82,-308.09 2044.17,-306.43"/>
<polygon fill="midnightblue" stroke="midnightblue" points="2044.97,-309.85 2054.4,-305.03 2044.02,-302.92 2044.97,-309.85"/>
</g>
<!-- Node49&#45;&gt;Node42 -->
<g id="edge77" class="edge">
<title>Node49&#45;&gt;Node42</title>
<path fill="none" stroke="midnightblue" d="M1444,-347.4C1461.94,-336.39 1486.72,-321.2 1504.52,-310.28"/>
<polygon fill="midnightblue" stroke="midnightblue" points="1506.43,-313.22 1513.13,-305.01 1502.77,-307.25 1506.43,-313.22"/>
</g>
<!-- Node50 -->
<g id="node49" class="node">
<title>Node50</title>
<g id="a_node49"><a xlink:title=" ">
<polygon fill="white" stroke="#bfbfbf" points="1276,-286 1276,-305 1332,-305 1332,-286 1276,-286"/>
<text text-anchor="middle" x="1304" y="-293" font-family="Helvetica,sans-Serif" font-size="10.00">algorithm</text>
</a>
</g>
</g>
<!-- Node49&#45;&gt;Node50 -->
<g id="edge73" class="edge">
<title>Node49&#45;&gt;Node50</title>
<path fill="none" stroke="midnightblue" d="M1395.61,-347.4C1375.63,-336.29 1347.96,-320.92 1328.27,-309.98"/>
<polygon fill="midnightblue" stroke="midnightblue" points="1329.75,-306.8 1319.31,-305.01 1326.35,-312.92 1329.75,-306.8"/>
</g>
</g>
</svg>
