<?xml version="1.0" encoding="UTF-8" standalone="no"?>
<!DOCTYPE svg PUBLIC "-//W3C//DTD SVG 1.1//EN"
 "http://www.w3.org/Graphics/SVG/1.1/DTD/svg11.dtd">
<!-- Generated by graphviz version 2.44.1 (20200629.0846)
 -->
<!-- Title: kryne&#45;engine/include/kryne&#45;engine/Core/Entity.h Pages: 1 -->
<svg width="1675pt" height="652pt"
 viewBox="0.00 0.00 1674.50 652.00" xmlns="http://www.w3.org/2000/svg" xmlns:xlink="http://www.w3.org/1999/xlink">
<g id="graph0" class="graph" transform="scale(1 1) rotate(0) translate(4 648)">
<title>kryne&#45;engine/include/kryne&#45;engine/Core/Entity.h</title>
<polygon fill="white" stroke="transparent" points="-4,4 -4,-648 1670.5,-648 1670.5,4 -4,4"/>
<!-- Node1 -->
<g id="node1" class="node">
<title>Node1</title>
<g id="a_node1"><a xlink:title=" ">
<polygon fill="#bfbfbf" stroke="black" points="1061,-613.5 1061,-643.5 1196,-643.5 1196,-613.5 1061,-613.5"/>
<text text-anchor="start" x="1069" y="-631.5" font-family="Helvetica,sans-Serif" font-size="10.00">kryne&#45;engine/include</text>
<text text-anchor="middle" x="1128.5" y="-620.5" font-family="Helvetica,sans-Serif" font-size="10.00">/kryne&#45;engine/Core/Entity.h</text>
</a>
</g>
</g>
<!-- Node2 -->
<g id="node2" class="node">
<title>Node2</title>
<g id="a_node2"><a xlink:href="_scene_8h.html" target="_top" xlink:title=" ">
<polygon fill="white" stroke="black" points="392.5,-535.5 392.5,-576.5 516.5,-576.5 516.5,-535.5 392.5,-535.5"/>
<text text-anchor="start" x="400.5" y="-564.5" font-family="Helvetica,sans-Serif" font-size="10.00">kryne&#45;engine/include</text>
<text text-anchor="start" x="400.5" y="-553.5" font-family="Helvetica,sans-Serif" font-size="10.00">/kryne&#45;engine/3DObjects</text>
<text text-anchor="middle" x="454.5" y="-542.5" font-family="Helvetica,sans-Serif" font-size="10.00">/Scene.h</text>
</a>
</g>
</g>
<!-- Node1&#45;&gt;Node2 -->
<g id="edge1" class="edge">
<title>Node1&#45;&gt;Node2</title>
<path fill="none" stroke="midnightblue" d="M1050.61,-621.01C947.68,-612.21 760.77,-595.46 601.5,-577 573.61,-573.77 542.82,-569.66 516.66,-566.01"/>
<polygon fill="midnightblue" stroke="midnightblue" points="1050.35,-624.5 1060.61,-621.86 1050.94,-617.52 1050.35,-624.5"/>
</g>
<!-- Node4 -->
<g id="node4" class="node">
<title>Node4</title>
<g id="a_node4"><a xlink:href="_transform_8h.html" target="_top" xlink:title=" ">
<polygon fill="white" stroke="black" points="64.5,-457.5 64.5,-498.5 188.5,-498.5 188.5,-457.5 64.5,-457.5"/>
<text text-anchor="start" x="72.5" y="-486.5" font-family="Helvetica,sans-Serif" font-size="10.00">kryne&#45;engine/include</text>
<text text-anchor="start" x="72.5" y="-475.5" font-family="Helvetica,sans-Serif" font-size="10.00">/kryne&#45;engine/3DObjects</text>
<text text-anchor="middle" x="126.5" y="-464.5" font-family="Helvetica,sans-Serif" font-size="10.00">/Transform.h</text>
</a>
</g>
</g>
<!-- Node1&#45;&gt;Node4 -->
<g id="edge29" class="edge">
<title>Node1&#45;&gt;Node4</title>
<path fill="none" stroke="midnightblue" d="M1050.77,-625.3C884.85,-619.99 501.16,-604.79 374.5,-577 294.97,-559.55 207.38,-521.87 160.4,-498.65"/>
<polygon fill="midnightblue" stroke="midnightblue" points="1050.8,-628.8 1060.9,-625.62 1051.02,-621.81 1050.8,-628.8"/>
</g>
<!-- Node6 -->
<g id="node6" class="node">
<title>Node6</title>
<g id="a_node6"><a xlink:href="_loop_renderer_8h.html" target="_top" xlink:title=" ">
<polygon fill="white" stroke="black" points="855.5,-379.5 855.5,-420.5 977.5,-420.5 977.5,-379.5 855.5,-379.5"/>
<text text-anchor="start" x="863.5" y="-408.5" font-family="Helvetica,sans-Serif" font-size="10.00">kryne&#45;engine/include</text>
<text text-anchor="start" x="863.5" y="-397.5" font-family="Helvetica,sans-Serif" font-size="10.00">/kryne&#45;engine/Rendering</text>
<text text-anchor="middle" x="916.5" y="-386.5" font-family="Helvetica,sans-Serif" font-size="10.00">/LoopRenderer.h</text>
</a>
</g>
</g>
<!-- Node1&#45;&gt;Node6 -->
<g id="edge56" class="edge">
<title>Node1&#45;&gt;Node6</title>
<path fill="none" stroke="midnightblue" d="M1085.03,-609.18C1042.09,-588.75 978,-551.53 943.5,-499 927.61,-474.81 921,-441.39 918.3,-420.5"/>
<polygon fill="midnightblue" stroke="midnightblue" points="1083.57,-612.36 1094.11,-613.4 1086.52,-606.01 1083.57,-612.36"/>
</g>
<!-- Node12 -->
<g id="node12" class="node">
<title>Node12</title>
<g id="a_node12"><a xlink:href="_process_8h.html" target="_top" xlink:title=" ">
<polygon fill="white" stroke="black" points="1314.5,-229 1314.5,-259 1460.5,-259 1460.5,-229 1314.5,-229"/>
<text text-anchor="start" x="1322.5" y="-247" font-family="Helvetica,sans-Serif" font-size="10.00">kryne&#45;engine/include</text>
<text text-anchor="middle" x="1387.5" y="-236" font-family="Helvetica,sans-Serif" font-size="10.00">/kryne&#45;engine/Core/Process.h</text>
</a>
</g>
</g>
<!-- Node1&#45;&gt;Node12 -->
<g id="edge55" class="edge">
<title>Node1&#45;&gt;Node12</title>
<path fill="none" stroke="midnightblue" d="M1206.37,-622.88C1296.5,-612.71 1432.5,-580.49 1432.5,-479 1432.5,-479 1432.5,-479 1432.5,-399 1432.5,-344.89 1402.44,-285.8 1390.91,-259.28"/>
<polygon fill="midnightblue" stroke="midnightblue" points="1205.74,-619.42 1196.17,-623.96 1206.48,-626.39 1205.74,-619.42"/>
</g>
<!-- Node13 -->
<g id="node13" class="node">
<title>Node13</title>
<g id="a_node13"><a xlink:href="_system_8h.html" target="_top" xlink:title=" ">
<polygon fill="white" stroke="black" points="1399,-151 1399,-181 1542,-181 1542,-151 1399,-151"/>
<text text-anchor="start" x="1407" y="-169" font-family="Helvetica,sans-Serif" font-size="10.00">kryne&#45;engine/include</text>
<text text-anchor="middle" x="1470.5" y="-158" font-family="Helvetica,sans-Serif" font-size="10.00">/kryne&#45;engine/Core/System.h</text>
</a>
</g>
</g>
<!-- Node1&#45;&gt;Node13 -->
<g id="edge54" class="edge">
<title>Node1&#45;&gt;Node13</title>
<path fill="none" stroke="midnightblue" d="M1206.51,-621.16C1281.54,-613.82 1388.57,-599.75 1423.5,-577 1467.29,-548.47 1488.5,-531.27 1488.5,-479 1488.5,-479 1488.5,-479 1488.5,-321 1488.5,-269.32 1478.38,-208.53 1473.31,-181.37"/>
<polygon fill="midnightblue" stroke="midnightblue" points="1205.77,-617.71 1196.15,-622.15 1206.43,-624.68 1205.77,-617.71"/>
</g>
<!-- Node24 -->
<g id="node24" class="node">
<title>Node24</title>
<g id="a_node24"><a xlink:href="kryne-engine_2_camera_2_camera_8h.html" target="_top" xlink:title=" ">
<polygon fill="white" stroke="black" points="610.5,-535.5 610.5,-576.5 722.5,-576.5 722.5,-535.5 610.5,-535.5"/>
<text text-anchor="start" x="618.5" y="-564.5" font-family="Helvetica,sans-Serif" font-size="10.00">kryne&#45;engine/include</text>
<text text-anchor="start" x="618.5" y="-553.5" font-family="Helvetica,sans-Serif" font-size="10.00">/kryne&#45;engine/Camera</text>
<text text-anchor="middle" x="666.5" y="-542.5" font-family="Helvetica,sans-Serif" font-size="10.00">/Camera.h</text>
</a>
</g>
</g>
<!-- Node1&#45;&gt;Node24 -->
<g id="edge30" class="edge">
<title>Node1&#45;&gt;Node24</title>
<path fill="none" stroke="midnightblue" d="M1050.92,-615.66C958.09,-601.5 804.9,-578.12 722.73,-565.58"/>
<polygon fill="midnightblue" stroke="midnightblue" points="1050.41,-619.12 1060.83,-617.17 1051.47,-612.2 1050.41,-619.12"/>
</g>
<!-- Node31 -->
<g id="node31" class="node">
<title>Node31</title>
<g id="a_node31"><a xlink:href="_component_8h.html" target="_top" xlink:title=" ">
<polygon fill="white" stroke="black" points="1049,-541 1049,-571 1208,-571 1208,-541 1049,-541"/>
<text text-anchor="start" x="1057" y="-559" font-family="Helvetica,sans-Serif" font-size="10.00">kryne&#45;engine/include</text>
<text text-anchor="middle" x="1128.5" y="-548" font-family="Helvetica,sans-Serif" font-size="10.00">/kryne&#45;engine/Core/Component.h</text>
</a>
</g>
</g>
<!-- Node1&#45;&gt;Node31 -->
<g id="edge42" class="edge">
<title>Node1&#45;&gt;Node31</title>
<path fill="none" stroke="midnightblue" d="M1122.05,-603.23C1121.45,-592.57 1121.75,-580.41 1122.95,-571.25"/>
<polygon fill="midnightblue" stroke="midnightblue" points="1118.57,-603.59 1122.95,-613.23 1125.54,-602.96 1118.57,-603.59"/>
</g>
<!-- Node37 -->
<g id="node37" class="node">
<title>Node37</title>
<g id="a_node37"><a xlink:href="_entity_8cpp.html" target="_top" xlink:title=" ">
<polygon fill="white" stroke="black" points="1516.5,-541 1516.5,-571 1628.5,-571 1628.5,-541 1516.5,-541"/>
<text text-anchor="start" x="1524.5" y="-559" font-family="Helvetica,sans-Serif" font-size="10.00">kryne&#45;engine/src/Core</text>
<text text-anchor="middle" x="1572.5" y="-548" font-family="Helvetica,sans-Serif" font-size="10.00">/Entity.cpp</text>
</a>
</g>
</g>
<!-- Node1&#45;&gt;Node37 -->
<g id="edge57" class="edge">
<title>Node1&#45;&gt;Node37</title>
<path fill="none" stroke="midnightblue" d="M1206.2,-620.31C1282.23,-612.5 1401.08,-598.22 1502.5,-577 1510.42,-575.34 1518.75,-573.27 1526.8,-571.08"/>
<polygon fill="midnightblue" stroke="midnightblue" points="1205.82,-616.83 1196.22,-621.32 1206.52,-623.79 1205.82,-616.83"/>
</g>
<!-- Node3 -->
<g id="node3" class="node">
<title>Node3</title>
<g id="a_node3"><a xlink:href="3_d_objects_8h.html" target="_top" xlink:title=" ">
<polygon fill="white" stroke="black" points="155,-385 155,-415 282,-415 282,-385 155,-385"/>
<text text-anchor="start" x="163" y="-403" font-family="Helvetica,sans-Serif" font-size="10.00">kryne&#45;engine/include</text>
<text text-anchor="middle" x="218.5" y="-392" font-family="Helvetica,sans-Serif" font-size="10.00">/KEModules/3DObjects.h</text>
</a>
</g>
</g>
<!-- Node2&#45;&gt;Node3 -->
<g id="edge2" class="edge">
<title>Node2&#45;&gt;Node3</title>
<path fill="none" stroke="midnightblue" d="M382.43,-545.13C326.55,-535.98 255.38,-520.51 235.5,-499 214.17,-475.92 214.57,-436.13 216.59,-415.05"/>
<polygon fill="midnightblue" stroke="midnightblue" points="381.89,-548.59 392.31,-546.71 382.99,-541.68 381.89,-548.59"/>
</g>
<!-- Node2&#45;&gt;Node4 -->
<g id="edge3" class="edge">
<title>Node2&#45;&gt;Node4</title>
<path fill="none" stroke="midnightblue" d="M382.62,-539.8C332.12,-528.93 263.03,-513.68 202.5,-499 197.99,-497.91 193.34,-496.75 188.66,-495.57"/>
<polygon fill="midnightblue" stroke="midnightblue" points="381.96,-543.24 392.47,-541.91 383.42,-536.39 381.96,-543.24"/>
</g>
<!-- Node2&#45;&gt;Node6 -->
<g id="edge7" class="edge">
<title>Node2&#45;&gt;Node6</title>
<path fill="none" stroke="midnightblue" d="M522.64,-532.29C613.31,-502.06 772.08,-449.14 857.73,-420.59"/>
<polygon fill="midnightblue" stroke="midnightblue" points="521.39,-529.01 513.01,-535.5 523.61,-535.65 521.39,-529.01"/>
</g>
<!-- Node20 -->
<g id="node20" class="node">
<title>Node20</title>
<g id="a_node20"><a xlink:href="_renderer_8h.html" target="_top" xlink:title=" ">
<polygon fill="white" stroke="black" points="457.5,-379.5 457.5,-420.5 579.5,-420.5 579.5,-379.5 457.5,-379.5"/>
<text text-anchor="start" x="465.5" y="-408.5" font-family="Helvetica,sans-Serif" font-size="10.00">kryne&#45;engine/include</text>
<text text-anchor="start" x="465.5" y="-397.5" font-family="Helvetica,sans-Serif" font-size="10.00">/kryne&#45;engine/Rendering</text>
<text text-anchor="middle" x="518.5" y="-386.5" font-family="Helvetica,sans-Serif" font-size="10.00">/Renderer.h</text>
</a>
</g>
</g>
<!-- Node2&#45;&gt;Node20 -->
<g id="edge25" class="edge">
<title>Node2&#45;&gt;Node20</title>
<path fill="none" stroke="midnightblue" d="M505.24,-529.79C516.57,-521.61 527.1,-511.38 533.5,-499 546.38,-474.08 536.78,-441.16 528.1,-420.54"/>
<polygon fill="midnightblue" stroke="midnightblue" points="503.26,-526.91 496.9,-535.38 507.16,-532.72 503.26,-526.91"/>
</g>
<!-- Node23 -->
<g id="node23" class="node">
<title>Node23</title>
<g id="a_node23"><a xlink:href="_scene_8cpp.html" target="_top" xlink:title=" ">
<polygon fill="white" stroke="black" points="245,-463 245,-493 382,-493 382,-463 245,-463"/>
<text text-anchor="start" x="253" y="-481" font-family="Helvetica,sans-Serif" font-size="10.00">kryne&#45;engine/src/3DObjects</text>
<text text-anchor="middle" x="313.5" y="-470" font-family="Helvetica,sans-Serif" font-size="10.00">/Scene.cpp</text>
</a>
</g>
</g>
<!-- Node2&#45;&gt;Node23 -->
<g id="edge28" class="edge">
<title>Node2&#45;&gt;Node23</title>
<path fill="none" stroke="midnightblue" d="M409.31,-530.64C386.4,-518.3 359.39,-503.73 339.89,-493.23"/>
<polygon fill="midnightblue" stroke="midnightblue" points="407.73,-533.76 418.19,-535.43 411.05,-527.6 407.73,-533.76"/>
</g>
<!-- Node4&#45;&gt;Node1 -->
<g id="edge5" class="edge">
<title>Node4&#45;&gt;Node1</title>
<path fill="none" stroke="midnightblue" d="M182.3,-502.73C235.28,-526.08 317.48,-560.54 392.5,-577 519.36,-604.84 904.05,-620.03 1060.92,-625.33"/>
<polygon fill="midnightblue" stroke="midnightblue" points="183.64,-499.5 173.08,-498.65 180.81,-505.9 183.64,-499.5"/>
</g>
<!-- Node4&#45;&gt;Node3 -->
<g id="edge4" class="edge">
<title>Node4&#45;&gt;Node3</title>
<path fill="none" stroke="midnightblue" d="M157.98,-450.99C172.48,-439.02 189.12,-425.27 201.28,-415.23"/>
<polygon fill="midnightblue" stroke="midnightblue" points="155.67,-448.36 150.19,-457.43 160.13,-453.76 155.67,-448.36"/>
</g>
<!-- Node5 -->
<g id="node5" class="node">
<title>Node5</title>
<g id="a_node5"><a xlink:href="_transform_8cpp.html" target="_top" xlink:title=" ">
<polygon fill="white" stroke="black" points="0,-385 0,-415 137,-415 137,-385 0,-385"/>
<text text-anchor="start" x="8" y="-403" font-family="Helvetica,sans-Serif" font-size="10.00">kryne&#45;engine/src/3DObjects</text>
<text text-anchor="middle" x="68.5" y="-392" font-family="Helvetica,sans-Serif" font-size="10.00">/Transform.cpp</text>
</a>
</g>
</g>
<!-- Node4&#45;&gt;Node5 -->
<g id="edge6" class="edge">
<title>Node4&#45;&gt;Node5</title>
<path fill="none" stroke="midnightblue" d="M105.37,-449.32C96.55,-437.75 86.67,-424.8 79.36,-415.23"/>
<polygon fill="midnightblue" stroke="midnightblue" points="102.71,-451.6 111.56,-457.43 108.28,-447.36 102.71,-451.6"/>
</g>
<!-- Node7 -->
<g id="node7" class="node">
<title>Node7</title>
<g id="a_node7"><a xlink:href="_graphic_context_8h.html" target="_top" xlink:title=" ">
<polygon fill="white" stroke="black" points="930,-301.5 930,-342.5 1099,-342.5 1099,-301.5 930,-301.5"/>
<text text-anchor="start" x="938" y="-330.5" font-family="Helvetica,sans-Serif" font-size="10.00">kryne&#45;engine/include</text>
<text text-anchor="start" x="938" y="-319.5" font-family="Helvetica,sans-Serif" font-size="10.00">/kryne&#45;engine/Core/GraphicContext</text>
<text text-anchor="middle" x="1014.5" y="-308.5" font-family="Helvetica,sans-Serif" font-size="10.00">/GraphicContext.h</text>
</a>
</g>
</g>
<!-- Node6&#45;&gt;Node7 -->
<g id="edge8" class="edge">
<title>Node6&#45;&gt;Node7</title>
<path fill="none" stroke="midnightblue" d="M949.94,-373.06C962.85,-363.06 977.36,-351.8 989.35,-342.51"/>
<polygon fill="midnightblue" stroke="midnightblue" points="947.49,-370.53 941.74,-379.43 951.78,-376.07 947.49,-370.53"/>
</g>
<!-- Node9 -->
<g id="node9" class="node">
<title>Node9</title>
<g id="a_node9"><a xlink:href="_open_g_l_renderer_8h.html" target="_top" xlink:title=" ">
<polygon fill="white" stroke="black" points="826.5,-145.5 826.5,-186.5 976.5,-186.5 976.5,-145.5 826.5,-145.5"/>
<text text-anchor="start" x="834.5" y="-174.5" font-family="Helvetica,sans-Serif" font-size="10.00">kryne&#45;engine/include</text>
<text text-anchor="start" x="834.5" y="-163.5" font-family="Helvetica,sans-Serif" font-size="10.00">/kryne&#45;engine/Rendering</text>
<text text-anchor="middle" x="901.5" y="-152.5" font-family="Helvetica,sans-Serif" font-size="10.00">/Renderers/OpenGLRenderer.h</text>
</a>
</g>
</g>
<!-- Node6&#45;&gt;Node9 -->
<g id="edge24" class="edge">
<title>Node6&#45;&gt;Node9</title>
<path fill="none" stroke="midnightblue" d="M914.57,-369.11C911.45,-320.94 905.41,-227.44 902.78,-186.73"/>
<polygon fill="midnightblue" stroke="midnightblue" points="911.08,-369.47 915.22,-379.22 918.07,-369.01 911.08,-369.47"/>
</g>
<!-- Node8 -->
<g id="node8" class="node">
<title>Node8</title>
<g id="a_node8"><a xlink:href="_open_g_l_context_8h.html" target="_top" xlink:title=" ">
<polygon fill="white" stroke="black" points="930,-223.5 930,-264.5 1099,-264.5 1099,-223.5 930,-223.5"/>
<text text-anchor="start" x="938" y="-252.5" font-family="Helvetica,sans-Serif" font-size="10.00">kryne&#45;engine/include</text>
<text text-anchor="start" x="938" y="-241.5" font-family="Helvetica,sans-Serif" font-size="10.00">/kryne&#45;engine/Core/GraphicContext</text>
<text text-anchor="middle" x="1014.5" y="-230.5" font-family="Helvetica,sans-Serif" font-size="10.00">/OpenGLContext.h</text>
</a>
</g>
</g>
<!-- Node7&#45;&gt;Node8 -->
<g id="edge9" class="edge">
<title>Node7&#45;&gt;Node8</title>
<path fill="none" stroke="midnightblue" d="M1014.5,-291.3C1014.5,-282.3 1014.5,-272.65 1014.5,-264.51"/>
<polygon fill="midnightblue" stroke="midnightblue" points="1011,-291.43 1014.5,-301.43 1018,-291.43 1011,-291.43"/>
</g>
<!-- Node7&#45;&gt;Node12 -->
<g id="edge14" class="edge">
<title>Node7&#45;&gt;Node12</title>
<path fill="none" stroke="midnightblue" d="M1109.04,-301.74C1174.4,-288.42 1259.86,-271.01 1318.78,-259"/>
<polygon fill="midnightblue" stroke="midnightblue" points="1108.24,-298.33 1099.14,-303.75 1109.64,-305.19 1108.24,-298.33"/>
</g>
<!-- Node8&#45;&gt;Node9 -->
<g id="edge10" class="edge">
<title>Node8&#45;&gt;Node9</title>
<path fill="none" stroke="midnightblue" d="M970.82,-217.92C955.04,-207.7 937.88,-196.07 924.52,-186.51"/>
<polygon fill="midnightblue" stroke="midnightblue" points="969.1,-220.98 979.41,-223.43 972.88,-215.08 969.1,-220.98"/>
</g>
<!-- Node11 -->
<g id="node11" class="node">
<title>Node11</title>
<g id="a_node11"><a xlink:href="_open_g_l_context_8cpp.html" target="_top" xlink:title=" ">
<polygon fill="white" stroke="black" points="995,-151 995,-181 1174,-181 1174,-151 995,-151"/>
<text text-anchor="start" x="1003" y="-169" font-family="Helvetica,sans-Serif" font-size="10.00">kryne&#45;engine/src/Core</text>
<text text-anchor="middle" x="1084.5" y="-158" font-family="Helvetica,sans-Serif" font-size="10.00">/GraphicContext/OpenGLContext.cpp</text>
</a>
</g>
</g>
<!-- Node8&#45;&gt;Node11 -->
<g id="edge13" class="edge">
<title>Node8&#45;&gt;Node11</title>
<path fill="none" stroke="midnightblue" d="M1039.38,-215.99C1050.19,-204.25 1062.4,-190.99 1071.4,-181.23"/>
<polygon fill="midnightblue" stroke="midnightblue" points="1036.73,-213.7 1032.53,-223.43 1041.88,-218.44 1036.73,-213.7"/>
</g>
<!-- Node9&#45;&gt;Node8 -->
<g id="edge11" class="edge">
<title>Node9&#45;&gt;Node8</title>
<path fill="none" stroke="midnightblue" d="M945.07,-192.01C960.85,-202.22 978.01,-213.85 991.39,-223.43"/>
<polygon fill="midnightblue" stroke="midnightblue" points="946.79,-188.95 936.48,-186.51 943.01,-194.85 946.79,-188.95"/>
</g>
<!-- Node10 -->
<g id="node10" class="node">
<title>Node10</title>
<g id="a_node10"><a xlink:href="_open_g_l_renderer_8cpp.html" target="_top" xlink:title=" ">
<polygon fill="white" stroke="black" points="821,-73 821,-103 982,-103 982,-73 821,-73"/>
<text text-anchor="start" x="829" y="-91" font-family="Helvetica,sans-Serif" font-size="10.00">kryne&#45;engine/src/Rendering</text>
<text text-anchor="middle" x="901.5" y="-80" font-family="Helvetica,sans-Serif" font-size="10.00">/Renderers/OpenGLRenderer.cpp</text>
</a>
</g>
</g>
<!-- Node9&#45;&gt;Node10 -->
<g id="edge12" class="edge">
<title>Node9&#45;&gt;Node10</title>
<path fill="none" stroke="midnightblue" d="M901.5,-135.28C901.5,-124.25 901.5,-112.25 901.5,-103.23"/>
<polygon fill="midnightblue" stroke="midnightblue" points="898,-135.43 901.5,-145.43 905,-135.43 898,-135.43"/>
</g>
<!-- Node12&#45;&gt;Node1 -->
<g id="edge15" class="edge">
<title>Node12&#45;&gt;Node1</title>
<path fill="none" stroke="midnightblue" d="M1407.04,-267.56C1425.81,-296.83 1450.5,-349.96 1450.5,-399 1450.5,-479 1450.5,-479 1450.5,-479 1450.5,-589.07 1290.56,-617.66 1196.05,-625.01"/>
<polygon fill="midnightblue" stroke="midnightblue" points="1409.94,-265.6 1401.44,-259.28 1404.14,-269.52 1409.94,-265.6"/>
</g>
<!-- Node12&#45;&gt;Node13 -->
<g id="edge16" class="edge">
<title>Node12&#45;&gt;Node13</title>
<path fill="none" stroke="midnightblue" d="M1404.8,-221.53C1417.88,-208.63 1435.67,-192.57 1449.56,-181.23"/>
<polygon fill="midnightblue" stroke="midnightblue" points="1402.25,-219.14 1397.7,-228.7 1407.22,-224.06 1402.25,-219.14"/>
</g>
<!-- Node19 -->
<g id="node19" class="node">
<title>Node19</title>
<g id="a_node19"><a xlink:href="_process_8cpp.html" target="_top" xlink:title=" ">
<polygon fill="white" stroke="black" points="1268.5,-151 1268.5,-181 1380.5,-181 1380.5,-151 1268.5,-151"/>
<text text-anchor="start" x="1276.5" y="-169" font-family="Helvetica,sans-Serif" font-size="10.00">kryne&#45;engine/src/Core</text>
<text text-anchor="middle" x="1324.5" y="-158" font-family="Helvetica,sans-Serif" font-size="10.00">/Process.cpp</text>
</a>
</g>
</g>
<!-- Node12&#45;&gt;Node19 -->
<g id="edge23" class="edge">
<title>Node12&#45;&gt;Node19</title>
<path fill="none" stroke="midnightblue" d="M1369.1,-220.81C1358.51,-208.03 1345.52,-192.36 1336.3,-181.23"/>
<polygon fill="midnightblue" stroke="midnightblue" points="1366.57,-223.24 1375.65,-228.7 1371.96,-218.77 1366.57,-223.24"/>
</g>
<!-- Node13&#45;&gt;Node12 -->
<g id="edge17" class="edge">
<title>Node13&#45;&gt;Node12</title>
<path fill="none" stroke="midnightblue" d="M1453.28,-188.39C1440.21,-201.28 1422.42,-217.35 1408.52,-228.7"/>
<polygon fill="midnightblue" stroke="midnightblue" points="1455.82,-190.8 1460.36,-181.23 1450.84,-185.88 1455.82,-190.8"/>
</g>
<!-- Node14 -->
<g id="node14" class="node">
<title>Node14</title>
<g id="a_node14"><a xlink:href="_game_logic_components_runner_8h.html" target="_top" xlink:title=" ">
<polygon fill="white" stroke="black" points="1177,-67.5 1177,-108.5 1340,-108.5 1340,-67.5 1177,-67.5"/>
<text text-anchor="start" x="1185" y="-96.5" font-family="Helvetica,sans-Serif" font-size="10.00">kryne&#45;engine/include</text>
<text text-anchor="start" x="1185" y="-85.5" font-family="Helvetica,sans-Serif" font-size="10.00">/kryne&#45;engine/Systems</text>
<text text-anchor="middle" x="1258.5" y="-74.5" font-family="Helvetica,sans-Serif" font-size="10.00">/GameLogicComponentsRunner.h</text>
</a>
</g>
</g>
<!-- Node13&#45;&gt;Node14 -->
<g id="edge18" class="edge">
<title>Node13&#45;&gt;Node14</title>
<path fill="none" stroke="midnightblue" d="M1421.43,-147.41C1389.08,-135.81 1346.69,-120.61 1313.25,-108.63"/>
<polygon fill="midnightblue" stroke="midnightblue" points="1420.53,-150.8 1431.12,-150.88 1422.89,-144.21 1420.53,-150.8"/>
</g>
<!-- Node16 -->
<g id="node16" class="node">
<title>Node16</title>
<g id="a_node16"><a xlink:href="_transform_update_system_8h.html" target="_top" xlink:title=" ">
<polygon fill="white" stroke="black" points="1526,-67.5 1526,-108.5 1661,-108.5 1661,-67.5 1526,-67.5"/>
<text text-anchor="start" x="1534" y="-96.5" font-family="Helvetica,sans-Serif" font-size="10.00">kryne&#45;engine/include</text>
<text text-anchor="start" x="1534" y="-85.5" font-family="Helvetica,sans-Serif" font-size="10.00">/kryne&#45;engine/Systems</text>
<text text-anchor="middle" x="1593.5" y="-74.5" font-family="Helvetica,sans-Serif" font-size="10.00">/TransformUpdateSystem.h</text>
</a>
</g>
</g>
<!-- Node13&#45;&gt;Node16 -->
<g id="edge20" class="edge">
<title>Node13&#45;&gt;Node16</title>
<path fill="none" stroke="midnightblue" d="M1501.9,-145.6C1520.16,-134.31 1543.13,-120.12 1561.5,-108.77"/>
<polygon fill="midnightblue" stroke="midnightblue" points="1500.01,-142.65 1493.35,-150.88 1503.69,-148.6 1500.01,-142.65"/>
</g>
<!-- Node18 -->
<g id="node18" class="node">
<title>Node18</title>
<g id="a_node18"><a xlink:href="_system_8cpp.html" target="_top" xlink:title=" ">
<polygon fill="white" stroke="black" points="1395.5,-73 1395.5,-103 1507.5,-103 1507.5,-73 1395.5,-73"/>
<text text-anchor="start" x="1403.5" y="-91" font-family="Helvetica,sans-Serif" font-size="10.00">kryne&#45;engine/src/Core</text>
<text text-anchor="middle" x="1451.5" y="-80" font-family="Helvetica,sans-Serif" font-size="10.00">/System.cpp</text>
</a>
</g>
</g>
<!-- Node13&#45;&gt;Node18 -->
<g id="edge22" class="edge">
<title>Node13&#45;&gt;Node18</title>
<path fill="none" stroke="midnightblue" d="M1464.49,-140.96C1461.39,-128.55 1457.71,-113.83 1455.06,-103.23"/>
<polygon fill="midnightblue" stroke="midnightblue" points="1461.11,-141.85 1466.93,-150.7 1467.9,-140.15 1461.11,-141.85"/>
</g>
<!-- Node15 -->
<g id="node15" class="node">
<title>Node15</title>
<g id="a_node15"><a xlink:href="_game_logic_components_runner_8cpp.html" target="_top" xlink:title=" ">
<polygon fill="white" stroke="black" points="1172,-0.5 1172,-30.5 1345,-30.5 1345,-0.5 1172,-0.5"/>
<text text-anchor="start" x="1180" y="-18.5" font-family="Helvetica,sans-Serif" font-size="10.00">kryne&#45;engine/src/Systems</text>
<text text-anchor="middle" x="1258.5" y="-7.5" font-family="Helvetica,sans-Serif" font-size="10.00">/GameLogicComponentsRunner.cpp</text>
</a>
</g>
</g>
<!-- Node14&#45;&gt;Node15 -->
<g id="edge19" class="edge">
<title>Node14&#45;&gt;Node15</title>
<path fill="none" stroke="midnightblue" d="M1258.5,-57.08C1258.5,-48.01 1258.5,-38.45 1258.5,-30.89"/>
<polygon fill="midnightblue" stroke="midnightblue" points="1255,-57.36 1258.5,-67.36 1262,-57.36 1255,-57.36"/>
</g>
<!-- Node17 -->
<g id="node17" class="node">
<title>Node17</title>
<g id="a_node17"><a xlink:href="_transform_update_system_8cpp.html" target="_top" xlink:title=" ">
<polygon fill="white" stroke="black" points="1520.5,-0.5 1520.5,-30.5 1666.5,-30.5 1666.5,-0.5 1520.5,-0.5"/>
<text text-anchor="start" x="1528.5" y="-18.5" font-family="Helvetica,sans-Serif" font-size="10.00">kryne&#45;engine/src/Systems</text>
<text text-anchor="middle" x="1593.5" y="-7.5" font-family="Helvetica,sans-Serif" font-size="10.00">/TransformUpdateSystem.cpp</text>
</a>
</g>
</g>
<!-- Node16&#45;&gt;Node17 -->
<g id="edge21" class="edge">
<title>Node16&#45;&gt;Node17</title>
<path fill="none" stroke="midnightblue" d="M1593.5,-57.08C1593.5,-48.01 1593.5,-38.45 1593.5,-30.89"/>
<polygon fill="midnightblue" stroke="midnightblue" points="1590,-57.36 1593.5,-67.36 1597,-57.36 1590,-57.36"/>
</g>
<!-- Node21 -->
<g id="node21" class="node">
<title>Node21</title>
<g id="a_node21"><a xlink:href="_rendering_8h.html" target="_top" xlink:title=" ">
<polygon fill="white" stroke="black" points="196,-307 196,-337 321,-337 321,-307 196,-307"/>
<text text-anchor="start" x="204" y="-325" font-family="Helvetica,sans-Serif" font-size="10.00">kryne&#45;engine/include</text>
<text text-anchor="middle" x="258.5" y="-314" font-family="Helvetica,sans-Serif" font-size="10.00">/KEModules/Rendering.h</text>
</a>
</g>
</g>
<!-- Node20&#45;&gt;Node21 -->
<g id="edge26" class="edge">
<title>Node20&#45;&gt;Node21</title>
<path fill="none" stroke="midnightblue" d="M447.58,-378.27C402.89,-365.21 346.36,-348.68 306.81,-337.12"/>
<polygon fill="midnightblue" stroke="midnightblue" points="446.63,-381.64 457.21,-381.09 448.6,-374.92 446.63,-381.64"/>
</g>
<!-- Node22 -->
<g id="node22" class="node">
<title>Node22</title>
<g id="a_node22"><a xlink:href="_renderer_8cpp.html" target="_top" xlink:title=" ">
<polygon fill="white" stroke="black" points="339,-307 339,-337 474,-337 474,-307 339,-307"/>
<text text-anchor="start" x="347" y="-325" font-family="Helvetica,sans-Serif" font-size="10.00">kryne&#45;engine/src/Rendering</text>
<text text-anchor="middle" x="406.5" y="-314" font-family="Helvetica,sans-Serif" font-size="10.00">/Renderer.cpp</text>
</a>
</g>
</g>
<!-- Node20&#45;&gt;Node22 -->
<g id="edge27" class="edge">
<title>Node20&#45;&gt;Node22</title>
<path fill="none" stroke="midnightblue" d="M481.15,-373.66C463.27,-361.53 442.54,-347.45 427.46,-337.23"/>
<polygon fill="midnightblue" stroke="midnightblue" points="479.42,-376.71 489.66,-379.43 483.35,-370.92 479.42,-376.71"/>
</g>
<!-- Node24&#45;&gt;Node10 -->
<g id="edge41" class="edge">
<title>Node24&#45;&gt;Node10</title>
<path fill="none" stroke="midnightblue" d="M696.49,-528.18C722.58,-503.09 759.31,-463.23 779.5,-421 798.64,-380.97 798.5,-367.37 798.5,-323 798.5,-323 798.5,-323 798.5,-243 798.5,-198.63 792.92,-181.94 817.5,-145 829.83,-126.47 850.6,-112.54 868.4,-103.21"/>
<polygon fill="midnightblue" stroke="midnightblue" points="693.96,-525.75 689.09,-535.17 698.77,-530.84 693.96,-525.75"/>
</g>
<!-- Node24&#45;&gt;Node20 -->
<g id="edge39" class="edge">
<title>Node24&#45;&gt;Node20</title>
<path fill="none" stroke="midnightblue" d="M640.68,-528.14C611.25,-497.51 563.83,-448.17 537.56,-420.83"/>
<polygon fill="midnightblue" stroke="midnightblue" points="638.3,-530.71 647.76,-535.5 643.35,-525.86 638.3,-530.71"/>
</g>
<!-- Node25 -->
<g id="node25" class="node">
<title>Node25</title>
<g id="a_node25"><a xlink:href="_k_e_modules_2_camera_8h.html" target="_top" xlink:title=" ">
<polygon fill="white" stroke="black" points="492,-307 492,-337 607,-337 607,-307 492,-307"/>
<text text-anchor="start" x="500" y="-325" font-family="Helvetica,sans-Serif" font-size="10.00">kryne&#45;engine/include</text>
<text text-anchor="middle" x="549.5" y="-314" font-family="Helvetica,sans-Serif" font-size="10.00">/KEModules/Camera.h</text>
</a>
</g>
</g>
<!-- Node24&#45;&gt;Node25 -->
<g id="edge31" class="edge">
<title>Node24&#45;&gt;Node25</title>
<path fill="none" stroke="midnightblue" d="M655.49,-525.65C641.68,-490.02 616.41,-428.57 588.5,-379 580.13,-364.13 568.84,-348.27 560.56,-337.24"/>
<polygon fill="midnightblue" stroke="midnightblue" points="652.39,-527.32 659.24,-535.4 658.92,-524.81 652.39,-527.32"/>
</g>
<!-- Node26 -->
<g id="node26" class="node">
<title>Node26</title>
<g id="a_node26"><a xlink:href="_mesh_8h.html" target="_top" xlink:title=" ">
<polygon fill="white" stroke="black" points="400.5,-457.5 400.5,-498.5 524.5,-498.5 524.5,-457.5 400.5,-457.5"/>
<text text-anchor="start" x="408.5" y="-486.5" font-family="Helvetica,sans-Serif" font-size="10.00">kryne&#45;engine/include</text>
<text text-anchor="start" x="408.5" y="-475.5" font-family="Helvetica,sans-Serif" font-size="10.00">/kryne&#45;engine/3DObjects</text>
<text text-anchor="middle" x="462.5" y="-464.5" font-family="Helvetica,sans-Serif" font-size="10.00">/Mesh.h</text>
</a>
</g>
</g>
<!-- Node24&#45;&gt;Node26 -->
<g id="edge32" class="edge">
<title>Node24&#45;&gt;Node26</title>
<path fill="none" stroke="midnightblue" d="M604.46,-531.89C575.82,-521.22 542.19,-508.69 514.86,-498.51"/>
<polygon fill="midnightblue" stroke="midnightblue" points="603.37,-535.22 613.96,-535.43 605.82,-528.66 603.37,-535.22"/>
</g>
<!-- Node28 -->
<g id="node28" class="node">
<title>Node28</title>
<g id="a_node28"><a xlink:href="_orbit_controls_component_8h.html" target="_top" xlink:title=" ">
<polygon fill="white" stroke="black" points="636.5,-379.5 636.5,-420.5 770.5,-420.5 770.5,-379.5 636.5,-379.5"/>
<text text-anchor="start" x="644.5" y="-408.5" font-family="Helvetica,sans-Serif" font-size="10.00">kryne&#45;engine/include</text>
<text text-anchor="start" x="644.5" y="-397.5" font-family="Helvetica,sans-Serif" font-size="10.00">/kryne&#45;engine/Camera</text>
<text text-anchor="middle" x="703.5" y="-386.5" font-family="Helvetica,sans-Serif" font-size="10.00">/OrbitControlsComponent.h</text>
</a>
</g>
</g>
<!-- Node24&#45;&gt;Node28 -->
<g id="edge36" class="edge">
<title>Node24&#45;&gt;Node28</title>
<path fill="none" stroke="midnightblue" d="M673.52,-525.77C680.91,-495.02 692.33,-447.47 698.74,-420.83"/>
<polygon fill="midnightblue" stroke="midnightblue" points="670.12,-524.95 671.19,-535.5 676.93,-526.59 670.12,-524.95"/>
</g>
<!-- Node30 -->
<g id="node30" class="node">
<title>Node30</title>
<g id="a_node30"><a xlink:href="_camera_8cpp.html" target="_top" xlink:title=" ">
<polygon fill="white" stroke="black" points="771,-463 771,-493 896,-493 896,-463 771,-463"/>
<text text-anchor="start" x="779" y="-481" font-family="Helvetica,sans-Serif" font-size="10.00">kryne&#45;engine/src/Camera</text>
<text text-anchor="middle" x="833.5" y="-470" font-family="Helvetica,sans-Serif" font-size="10.00">/Camera.cpp</text>
</a>
</g>
</g>
<!-- Node24&#45;&gt;Node30 -->
<g id="edge40" class="edge">
<title>Node24&#45;&gt;Node30</title>
<path fill="none" stroke="midnightblue" d="M718.62,-531.28C746.14,-518.76 778.99,-503.81 802.5,-493.11"/>
<polygon fill="midnightblue" stroke="midnightblue" points="717.16,-528.1 709.51,-535.43 720.06,-534.47 717.16,-528.1"/>
</g>
<!-- Node26&#45;&gt;Node3 -->
<g id="edge33" class="edge">
<title>Node26&#45;&gt;Node3</title>
<path fill="none" stroke="midnightblue" d="M390.6,-454.61C349.5,-441.8 299.22,-426.14 263.64,-415.06"/>
<polygon fill="midnightblue" stroke="midnightblue" points="389.71,-457.99 400.3,-457.63 391.79,-451.31 389.71,-457.99"/>
</g>
<!-- Node26&#45;&gt;Node20 -->
<g id="edge34" class="edge">
<title>Node26&#45;&gt;Node20</title>
<path fill="none" stroke="midnightblue" d="M482.88,-449.34C489.93,-439.78 497.67,-429.27 504.13,-420.51"/>
<polygon fill="midnightblue" stroke="midnightblue" points="480.04,-447.3 476.92,-457.43 485.67,-451.45 480.04,-447.3"/>
</g>
<!-- Node27 -->
<g id="node27" class="node">
<title>Node27</title>
<g id="a_node27"><a xlink:href="_mesh_8cpp.html" target="_top" xlink:title=" ">
<polygon fill="white" stroke="black" points="302,-385 302,-415 439,-415 439,-385 302,-385"/>
<text text-anchor="start" x="310" y="-403" font-family="Helvetica,sans-Serif" font-size="10.00">kryne&#45;engine/src/3DObjects</text>
<text text-anchor="middle" x="370.5" y="-392" font-family="Helvetica,sans-Serif" font-size="10.00">/Mesh.cpp</text>
</a>
</g>
</g>
<!-- Node26&#45;&gt;Node27 -->
<g id="edge35" class="edge">
<title>Node26&#45;&gt;Node27</title>
<path fill="none" stroke="midnightblue" d="M431.02,-450.99C416.52,-439.02 399.88,-425.27 387.72,-415.23"/>
<polygon fill="midnightblue" stroke="midnightblue" points="428.87,-453.76 438.81,-457.43 433.33,-448.36 428.87,-453.76"/>
</g>
<!-- Node28&#45;&gt;Node25 -->
<g id="edge37" class="edge">
<title>Node28&#45;&gt;Node25</title>
<path fill="none" stroke="midnightblue" d="M654.81,-374.97C629.65,-362.55 599.81,-347.83 578.33,-337.23"/>
<polygon fill="midnightblue" stroke="midnightblue" points="653.32,-378.14 663.84,-379.43 656.42,-371.86 653.32,-378.14"/>
</g>
<!-- Node29 -->
<g id="node29" class="node">
<title>Node29</title>
<g id="a_node29"><a xlink:href="_orbit_controls_component_8cpp.html" target="_top" xlink:title=" ">
<polygon fill="white" stroke="black" points="625,-307 625,-337 770,-337 770,-307 625,-307"/>
<text text-anchor="start" x="633" y="-325" font-family="Helvetica,sans-Serif" font-size="10.00">kryne&#45;engine/src/Camera</text>
<text text-anchor="middle" x="697.5" y="-314" font-family="Helvetica,sans-Serif" font-size="10.00">/OrbitControlsComponent.cpp</text>
</a>
</g>
</g>
<!-- Node28&#45;&gt;Node29 -->
<g id="edge38" class="edge">
<title>Node28&#45;&gt;Node29</title>
<path fill="none" stroke="midnightblue" d="M701.15,-369.28C700.28,-358.25 699.34,-346.25 698.62,-337.23"/>
<polygon fill="midnightblue" stroke="midnightblue" points="697.68,-369.73 701.95,-379.43 704.66,-369.18 697.68,-369.73"/>
</g>
<!-- Node31&#45;&gt;Node1 -->
<g id="edge47" class="edge">
<title>Node31&#45;&gt;Node1</title>
<path fill="none" stroke="midnightblue" d="M1134.95,-581.24C1135.55,-591.91 1135.25,-604.06 1134.05,-613.23"/>
<polygon fill="midnightblue" stroke="midnightblue" points="1138.43,-580.89 1134.05,-571.25 1131.46,-581.52 1138.43,-580.89"/>
</g>
<!-- Node32 -->
<g id="node32" class="node">
<title>Node32</title>
<g id="a_node32"><a xlink:href="_logic_component_8h.html" target="_top" xlink:title=" ">
<polygon fill="white" stroke="black" points="952.5,-463 952.5,-493 1134.5,-493 1134.5,-463 952.5,-463"/>
<text text-anchor="start" x="960.5" y="-481" font-family="Helvetica,sans-Serif" font-size="10.00">kryne&#45;engine/include</text>
<text text-anchor="middle" x="1043.5" y="-470" font-family="Helvetica,sans-Serif" font-size="10.00">/kryne&#45;engine/Core/LogicComponent.h</text>
</a>
</g>
</g>
<!-- Node31&#45;&gt;Node32 -->
<g id="edge43" class="edge">
<title>Node31&#45;&gt;Node32</title>
<path fill="none" stroke="midnightblue" d="M1104.89,-533.89C1090.4,-520.93 1072.22,-504.68 1059.42,-493.23"/>
<polygon fill="midnightblue" stroke="midnightblue" points="1102.72,-536.65 1112.51,-540.7 1107.39,-531.43 1102.72,-536.65"/>
</g>
<!-- Node34 -->
<g id="node34" class="node">
<title>Node34</title>
<g id="a_node34"><a xlink:href="_render_mesh_8h.html" target="_top" xlink:title=" ">
<polygon fill="white" stroke="black" points="1152.5,-457.5 1152.5,-498.5 1274.5,-498.5 1274.5,-457.5 1152.5,-457.5"/>
<text text-anchor="start" x="1160.5" y="-486.5" font-family="Helvetica,sans-Serif" font-size="10.00">kryne&#45;engine/include</text>
<text text-anchor="start" x="1160.5" y="-475.5" font-family="Helvetica,sans-Serif" font-size="10.00">/kryne&#45;engine/Rendering</text>
<text text-anchor="middle" x="1213.5" y="-464.5" font-family="Helvetica,sans-Serif" font-size="10.00">/RenderMesh.h</text>
</a>
</g>
</g>
<!-- Node31&#45;&gt;Node34 -->
<g id="edge48" class="edge">
<title>Node31&#45;&gt;Node34</title>
<path fill="none" stroke="midnightblue" d="M1152.14,-533.86C1164.46,-522.85 1179.42,-509.47 1191.49,-498.68"/>
<polygon fill="midnightblue" stroke="midnightblue" points="1149.61,-531.43 1144.49,-540.7 1154.28,-536.65 1149.61,-531.43"/>
</g>
<!-- Node36 -->
<g id="node36" class="node">
<title>Node36</title>
<g id="a_node36"><a xlink:href="_component_8cpp.html" target="_top" xlink:title=" ">
<polygon fill="white" stroke="black" points="1292.5,-463 1292.5,-493 1404.5,-493 1404.5,-463 1292.5,-463"/>
<text text-anchor="start" x="1300.5" y="-481" font-family="Helvetica,sans-Serif" font-size="10.00">kryne&#45;engine/src/Core</text>
<text text-anchor="middle" x="1348.5" y="-470" font-family="Helvetica,sans-Serif" font-size="10.00">/Component.cpp</text>
</a>
</g>
</g>
<!-- Node31&#45;&gt;Node36 -->
<g id="edge53" class="edge">
<title>Node31&#45;&gt;Node36</title>
<path fill="none" stroke="midnightblue" d="M1178.71,-537.65C1217.79,-524.16 1271.32,-505.66 1307.76,-493.07"/>
<polygon fill="midnightblue" stroke="midnightblue" points="1177.42,-534.4 1169.11,-540.97 1179.7,-541.01 1177.42,-534.4"/>
</g>
<!-- Node32&#45;&gt;Node14 -->
<g id="edge45" class="edge">
<title>Node32&#45;&gt;Node14</title>
<path fill="none" stroke="midnightblue" d="M1076.16,-457.35C1090.01,-447.75 1105.47,-435.21 1116.5,-421 1196.48,-318.01 1240.23,-163.21 1253.83,-108.78"/>
<polygon fill="midnightblue" stroke="midnightblue" points="1074.17,-454.47 1067.8,-462.93 1078.06,-460.29 1074.17,-454.47"/>
</g>
<!-- Node32&#45;&gt;Node28 -->
<g id="edge44" class="edge">
<title>Node32&#45;&gt;Node28</title>
<path fill="none" stroke="midnightblue" d="M970.69,-460.73C911.37,-447.46 828.26,-428.89 770.55,-415.99"/>
<polygon fill="midnightblue" stroke="midnightblue" points="970.22,-464.21 980.74,-462.97 971.75,-457.37 970.22,-464.21"/>
</g>
<!-- Node33 -->
<g id="node33" class="node">
<title>Node33</title>
<g id="a_node33"><a xlink:href="_logic_component_8cpp.html" target="_top" xlink:title=" ">
<polygon fill="white" stroke="black" points="995.5,-385 995.5,-415 1107.5,-415 1107.5,-385 995.5,-385"/>
<text text-anchor="start" x="1003.5" y="-403" font-family="Helvetica,sans-Serif" font-size="10.00">kryne&#45;engine/src/Core</text>
<text text-anchor="middle" x="1051.5" y="-392" font-family="Helvetica,sans-Serif" font-size="10.00">/LogicComponent.cpp</text>
</a>
</g>
</g>
<!-- Node32&#45;&gt;Node33 -->
<g id="edge46" class="edge">
<title>Node32&#45;&gt;Node33</title>
<path fill="none" stroke="midnightblue" d="M1046.07,-452.59C1047.37,-440.26 1048.9,-425.72 1050,-415.23"/>
<polygon fill="midnightblue" stroke="midnightblue" points="1042.57,-452.39 1045,-462.7 1049.53,-453.13 1042.57,-452.39"/>
</g>
<!-- Node34&#45;&gt;Node6 -->
<g id="edge50" class="edge">
<title>Node34&#45;&gt;Node6</title>
<path fill="none" stroke="midnightblue" d="M1142.7,-456.86C1072.5,-439.1 1052.85,-438.07 986.5,-421 983.56,-420.24 980.56,-419.45 977.53,-418.64"/>
<polygon fill="midnightblue" stroke="midnightblue" points="1141.91,-460.27 1152.47,-459.36 1143.65,-453.49 1141.91,-460.27"/>
</g>
<!-- Node34&#45;&gt;Node10 -->
<g id="edge51" class="edge">
<title>Node34&#45;&gt;Node10</title>
<path fill="none" stroke="midnightblue" d="M1210.08,-446.96C1206.85,-415.95 1202.5,-366.16 1202.5,-323 1202.5,-323 1202.5,-323 1202.5,-243 1202.5,-198.63 1214.8,-176.44 1183.5,-145 1155.77,-117.14 1055.42,-102.37 982.3,-95.12"/>
<polygon fill="midnightblue" stroke="midnightblue" points="1206.62,-447.53 1211.17,-457.1 1213.58,-446.78 1206.62,-447.53"/>
</g>
<!-- Node34&#45;&gt;Node12 -->
<g id="edge49" class="edge">
<title>Node34&#45;&gt;Node12</title>
<path fill="none" stroke="midnightblue" d="M1224.62,-447.93C1233.01,-427.72 1245.6,-400.64 1260.5,-379 1293.94,-330.42 1344.92,-282.45 1370.95,-259.31"/>
<polygon fill="midnightblue" stroke="midnightblue" points="1221.36,-446.67 1220.85,-457.25 1227.84,-449.29 1221.36,-446.67"/>
</g>
<!-- Node35 -->
<g id="node35" class="node">
<title>Node35</title>
<g id="a_node35"><a xlink:href="_render_mesh_8cpp.html" target="_top" xlink:title=" ">
<polygon fill="white" stroke="black" points="1269,-385 1269,-415 1404,-415 1404,-385 1269,-385"/>
<text text-anchor="start" x="1277" y="-403" font-family="Helvetica,sans-Serif" font-size="10.00">kryne&#45;engine/src/Rendering</text>
<text text-anchor="middle" x="1336.5" y="-392" font-family="Helvetica,sans-Serif" font-size="10.00">/RenderMesh.cpp</text>
</a>
</g>
</g>
<!-- Node34&#45;&gt;Node35 -->
<g id="edge52" class="edge">
<title>Node34&#45;&gt;Node35</title>
<path fill="none" stroke="midnightblue" d="M1253.72,-452.15C1273.53,-439.91 1296.7,-425.59 1313.48,-415.23"/>
<polygon fill="midnightblue" stroke="midnightblue" points="1251.84,-449.19 1245.18,-457.43 1255.52,-455.15 1251.84,-449.19"/>
</g>
</g>
</svg>
