<?xml version="1.0" encoding="UTF-8" standalone="no"?>
<!DOCTYPE svg PUBLIC "-//W3C//DTD SVG 1.1//EN"
 "http://www.w3.org/Graphics/SVG/1.1/DTD/svg11.dtd">
<!-- Generated by graphviz version 2.44.1 (20200629.0846)
 -->
<!-- Title: kryne&#45;engine/include/kryne&#45;engine/RenderTargets/FinalPostProcess.h Pages: 1 -->
<svg width="329pt" height="195pt"
 viewBox="0.00 0.00 329.00 195.00" xmlns="http://www.w3.org/2000/svg" xmlns:xlink="http://www.w3.org/1999/xlink">
<g id="graph0" class="graph" transform="scale(1 1) rotate(0) translate(4 191)">
<title>kryne&#45;engine/include/kryne&#45;engine/RenderTargets/FinalPostProcess.h</title>
<polygon fill="white" stroke="transparent" points="-4,4 -4,-191 325,-191 325,4 -4,4"/>
<!-- Node1 -->
<g id="node1" class="node">
<title>Node1</title>
<g id="a_node1"><a xlink:title=" ">
<polygon fill="#bfbfbf" stroke="black" points="90,-145.5 90,-186.5 231,-186.5 231,-145.5 90,-145.5"/>
<text text-anchor="start" x="98" y="-174.5" font-family="Helvetica,sans-Serif" font-size="10.00">kryne&#45;engine/include</text>
<text text-anchor="start" x="98" y="-163.5" font-family="Helvetica,sans-Serif" font-size="10.00">/kryne&#45;engine/RenderTargets</text>
<text text-anchor="middle" x="160.5" y="-152.5" font-family="Helvetica,sans-Serif" font-size="10.00">/FinalPostProcess.h</text>
</a>
</g>
</g>
<!-- Node2 -->
<g id="node2" class="node">
<title>Node2</title>
<g id="a_node2"><a xlink:href="_post_process_8h.html" target="_top" xlink:title=" ">
<polygon fill="white" stroke="black" points="7,-67.5 7,-108.5 148,-108.5 148,-67.5 7,-67.5"/>
<text text-anchor="start" x="15" y="-96.5" font-family="Helvetica,sans-Serif" font-size="10.00">kryne&#45;engine/include</text>
<text text-anchor="start" x="15" y="-85.5" font-family="Helvetica,sans-Serif" font-size="10.00">/kryne&#45;engine/RenderTargets</text>
<text text-anchor="middle" x="77.5" y="-74.5" font-family="Helvetica,sans-Serif" font-size="10.00">/PostProcess.h</text>
</a>
</g>
</g>
<!-- Node1&#45;&gt;Node2 -->
<g id="edge1" class="edge">
<title>Node1&#45;&gt;Node2</title>
<path fill="none" stroke="midnightblue" d="M131.55,-138.49C120.78,-128.63 108.76,-117.63 98.8,-108.51"/>
<polygon fill="midnightblue" stroke="midnightblue" points="129.39,-141.26 139.13,-145.43 134.11,-136.09 129.39,-141.26"/>
</g>
<!-- Node4 -->
<g id="node4" class="node">
<title>Node4</title>
<g id="a_node4"><a xlink:href="_final_post_process_8cpp.html" target="_top" xlink:title=" ">
<polygon fill="white" stroke="black" points="166,-73 166,-103 321,-103 321,-73 166,-73"/>
<text text-anchor="start" x="174" y="-91" font-family="Helvetica,sans-Serif" font-size="10.00">kryne&#45;engine/src/RenderTargets</text>
<text text-anchor="middle" x="243.5" y="-80" font-family="Helvetica,sans-Serif" font-size="10.00">/FinalPostProcess.cpp</text>
</a>
</g>
</g>
<!-- Node1&#45;&gt;Node4 -->
<g id="edge3" class="edge">
<title>Node1&#45;&gt;Node4</title>
<path fill="none" stroke="midnightblue" d="M189.27,-138.66C202.26,-126.76 217.1,-113.18 227.96,-103.23"/>
<polygon fill="midnightblue" stroke="midnightblue" points="186.89,-136.09 181.87,-145.43 191.61,-141.26 186.89,-136.09"/>
</g>
<!-- Node3 -->
<g id="node3" class="node">
<title>Node3</title>
<g id="a_node3"><a xlink:href="_post_process_8cpp.html" target="_top" xlink:title=" ">
<polygon fill="white" stroke="black" points="0,-0.5 0,-30.5 155,-30.5 155,-0.5 0,-0.5"/>
<text text-anchor="start" x="8" y="-18.5" font-family="Helvetica,sans-Serif" font-size="10.00">kryne&#45;engine/src/RenderTargets</text>
<text text-anchor="middle" x="77.5" y="-7.5" font-family="Helvetica,sans-Serif" font-size="10.00">/PostProcess.cpp</text>
</a>
</g>
</g>
<!-- Node2&#45;&gt;Node3 -->
<g id="edge2" class="edge">
<title>Node2&#45;&gt;Node3</title>
<path fill="none" stroke="midnightblue" d="M77.5,-57.08C77.5,-48.01 77.5,-38.45 77.5,-30.89"/>
<polygon fill="midnightblue" stroke="midnightblue" points="74,-57.36 77.5,-67.36 81,-57.36 74,-57.36"/>
</g>
</g>
</svg>
