<?xml version="1.0" encoding="UTF-8" standalone="no"?>
<!DOCTYPE svg PUBLIC "-//W3C//DTD SVG 1.1//EN"
 "http://www.w3.org/Graphics/SVG/1.1/DTD/svg11.dtd">
<!-- Generated by graphviz version 2.44.1 (20200629.0846)
 -->
<!-- Title: kryne&#45;engine/src/RenderTargets/FinalPostProcess.cpp Pages: 1 -->
<svg width="1579pt" height="643pt"
 viewBox="0.00 0.00 1579.44 643.00" xmlns="http://www.w3.org/2000/svg" xmlns:xlink="http://www.w3.org/1999/xlink">
<g id="graph0" class="graph" transform="scale(1 1) rotate(0) translate(4 639)">
<title>kryne&#45;engine/src/RenderTargets/FinalPostProcess.cpp</title>
<polygon fill="white" stroke="transparent" points="-4,4 -4,-639 1575.44,-639 1575.44,4 -4,4"/>
<!-- Node1 -->
<g id="node1" class="node">
<title>Node1</title>
<g id="a_node1"><a xlink:title=" ">
<polygon fill="#bfbfbf" stroke="black" points="827.44,-604.5 827.44,-634.5 982.44,-634.5 982.44,-604.5 827.44,-604.5"/>
<text text-anchor="start" x="835.44" y="-622.5" font-family="Helvetica,sans-Serif" font-size="10.00">kryne&#45;engine/src/RenderTargets</text>
<text text-anchor="middle" x="904.94" y="-611.5" font-family="Helvetica,sans-Serif" font-size="10.00">/FinalPostProcess.cpp</text>
</a>
</g>
</g>
<!-- Node2 -->
<g id="node2" class="node">
<title>Node2</title>
<g id="a_node2"><a xlink:href="_final_post_process_8h.html" target="_top" xlink:title=" ">
<polygon fill="white" stroke="black" points="835.94,-537.5 835.94,-567.5 973.94,-567.5 973.94,-537.5 835.94,-537.5"/>
<text text-anchor="start" x="843.94" y="-555.5" font-family="Helvetica,sans-Serif" font-size="10.00">kryne&#45;engine/RenderTargets</text>
<text text-anchor="middle" x="904.94" y="-544.5" font-family="Helvetica,sans-Serif" font-size="10.00">/FinalPostProcess.h</text>
</a>
</g>
</g>
<!-- Node1&#45;&gt;Node2 -->
<g id="edge1" class="edge">
<title>Node1&#45;&gt;Node2</title>
<path fill="none" stroke="midnightblue" d="M904.94,-604.4C904.94,-596.64 904.94,-586.81 904.94,-577.86"/>
<polygon fill="midnightblue" stroke="midnightblue" points="908.44,-577.58 904.94,-567.58 901.44,-577.58 908.44,-577.58"/>
</g>
<!-- Node3 -->
<g id="node3" class="node">
<title>Node3</title>
<g id="a_node3"><a xlink:title=" ">
<polygon fill="white" stroke="#bfbfbf" points="154.44,-414.5 154.44,-433.5 189.44,-433.5 189.44,-414.5 154.44,-414.5"/>
<text text-anchor="middle" x="171.94" y="-421.5" font-family="Helvetica,sans-Serif" font-size="10.00">map</text>
</a>
</g>
</g>
<!-- Node2&#45;&gt;Node3 -->
<g id="edge2" class="edge">
<title>Node2&#45;&gt;Node3</title>
<path fill="none" stroke="midnightblue" d="M835.82,-540.84C771.18,-530.81 671.96,-515.24 585.94,-501 416.49,-472.96 369.15,-477.47 199.21,-434.01"/>
<polygon fill="midnightblue" stroke="midnightblue" points="200,-430.6 189.44,-431.49 198.25,-437.38 200,-430.6"/>
</g>
<!-- Node4 -->
<g id="node4" class="node">
<title>Node4</title>
<g id="a_node4"><a xlink:href="_shader_8h.html" target="_top" xlink:title=" ">
<polygon fill="white" stroke="black" points="594.94,-470.5 594.94,-500.5 704.94,-500.5 704.94,-470.5 594.94,-470.5"/>
<text text-anchor="start" x="602.94" y="-488.5" font-family="Helvetica,sans-Serif" font-size="10.00">kryne&#45;engine/Material</text>
<text text-anchor="middle" x="649.94" y="-477.5" font-family="Helvetica,sans-Serif" font-size="10.00">/Shader.h</text>
</a>
</g>
</g>
<!-- Node2&#45;&gt;Node4 -->
<g id="edge3" class="edge">
<title>Node2&#45;&gt;Node4</title>
<path fill="none" stroke="midnightblue" d="M849.92,-537.48C810.34,-527.39 756.81,-513.74 715.09,-503.11"/>
<polygon fill="midnightblue" stroke="midnightblue" points="715.85,-499.69 705.29,-500.61 714.12,-506.47 715.85,-499.69"/>
</g>
<!-- Node41 -->
<g id="node41" class="node">
<title>Node41</title>
<g id="a_node41"><a xlink:href="_vertex_array_8h.html" target="_top" xlink:title=" ">
<polygon fill="white" stroke="black" points="1015.44,-347.5 1015.44,-377.5 1142.44,-377.5 1142.44,-347.5 1015.44,-347.5"/>
<text text-anchor="start" x="1023.44" y="-365.5" font-family="Helvetica,sans-Serif" font-size="10.00">kryne&#45;engine/Core/Vertex</text>
<text text-anchor="middle" x="1078.94" y="-354.5" font-family="Helvetica,sans-Serif" font-size="10.00">Array.h</text>
</a>
</g>
</g>
<!-- Node2&#45;&gt;Node41 -->
<g id="edge52" class="edge">
<title>Node2&#45;&gt;Node41</title>
<path fill="none" stroke="midnightblue" d="M925.94,-537.49C939.48,-527.98 957.08,-514.69 970.94,-501 1008.16,-464.24 1044.22,-414.66 1063.8,-386.18"/>
<polygon fill="midnightblue" stroke="midnightblue" points="1066.83,-387.95 1069.56,-377.71 1061.04,-384.01 1066.83,-387.95"/>
</g>
<!-- Node44 -->
<g id="node44" class="node">
<title>Node44</title>
<g id="a_node44"><a xlink:href="_geometric_shapes_8h.html" target="_top" xlink:title=" ">
<polygon fill="white" stroke="black" points="1257.44,-347.5 1257.44,-377.5 1400.44,-377.5 1400.44,-347.5 1257.44,-347.5"/>
<text text-anchor="start" x="1265.44" y="-365.5" font-family="Helvetica,sans-Serif" font-size="10.00">kryne&#45;engine/Core/Geometric</text>
<text text-anchor="middle" x="1328.94" y="-354.5" font-family="Helvetica,sans-Serif" font-size="10.00">Shapes.h</text>
</a>
</g>
</g>
<!-- Node2&#45;&gt;Node44 -->
<g id="edge60" class="edge">
<title>Node2&#45;&gt;Node44</title>
<path fill="none" stroke="midnightblue" d="M936.81,-537.37C1012.65,-503.74 1203.82,-418.98 1288.03,-381.64"/>
<polygon fill="midnightblue" stroke="midnightblue" points="1289.55,-384.79 1297.28,-377.54 1286.72,-378.39 1289.55,-384.79"/>
</g>
<!-- Node47 -->
<g id="node47" class="node">
<title>Node47</title>
<g id="a_node47"><a xlink:href="_texture2_d_8h.html" target="_top" xlink:title=" ">
<polygon fill="white" stroke="black" points="848.44,-470.5 848.44,-500.5 961.44,-500.5 961.44,-470.5 848.44,-470.5"/>
<text text-anchor="start" x="856.44" y="-488.5" font-family="Helvetica,sans-Serif" font-size="10.00">kryne&#45;engine/Textures</text>
<text text-anchor="middle" x="904.94" y="-477.5" font-family="Helvetica,sans-Serif" font-size="10.00">/Texture2D.h</text>
</a>
</g>
</g>
<!-- Node2&#45;&gt;Node47 -->
<g id="edge66" class="edge">
<title>Node2&#45;&gt;Node47</title>
<path fill="none" stroke="midnightblue" d="M904.94,-537.4C904.94,-529.64 904.94,-519.81 904.94,-510.86"/>
<polygon fill="midnightblue" stroke="midnightblue" points="908.44,-510.58 904.94,-500.58 901.44,-510.58 908.44,-510.58"/>
</g>
<!-- Node4&#45;&gt;Node3 -->
<g id="edge4" class="edge">
<title>Node4&#45;&gt;Node3</title>
<path fill="none" stroke="midnightblue" d="M594.67,-482.27C510.75,-478.04 346.29,-466.35 199.76,-433.99"/>
<polygon fill="midnightblue" stroke="midnightblue" points="200.21,-430.51 189.69,-431.73 198.68,-437.34 200.21,-430.51"/>
</g>
<!-- Node5 -->
<g id="node5" class="node">
<title>Node5</title>
<g id="a_node5"><a xlink:title=" ">
<polygon fill="white" stroke="#bfbfbf" points="669.94,-414.5 669.94,-433.5 721.94,-433.5 721.94,-414.5 669.94,-414.5"/>
<text text-anchor="middle" x="695.94" y="-421.5" font-family="Helvetica,sans-Serif" font-size="10.00">sstream</text>
</a>
</g>
</g>
<!-- Node4&#45;&gt;Node5 -->
<g id="edge5" class="edge">
<title>Node4&#45;&gt;Node5</title>
<path fill="none" stroke="midnightblue" d="M660.84,-470.4C667.52,-461.75 676.11,-450.64 683.12,-441.58"/>
<polygon fill="midnightblue" stroke="midnightblue" points="685.9,-443.71 689.24,-433.66 680.36,-439.43 685.9,-443.71"/>
</g>
<!-- Node6 -->
<g id="node6" class="node">
<title>Node6</title>
<g id="a_node6"><a xlink:href="_dispatcher_8h.html" target="_top" xlink:title=" ">
<polygon fill="white" stroke="black" points="684.44,-280.5 684.44,-310.5 797.44,-310.5 797.44,-280.5 684.44,-280.5"/>
<text text-anchor="start" x="692.44" y="-298.5" font-family="Helvetica,sans-Serif" font-size="10.00">kryne&#45;engine/Dispatch</text>
<text text-anchor="middle" x="740.94" y="-287.5" font-family="Helvetica,sans-Serif" font-size="10.00">/Dispatcher.h</text>
</a>
</g>
</g>
<!-- Node4&#45;&gt;Node6 -->
<g id="edge6" class="edge">
<title>Node4&#45;&gt;Node6</title>
<path fill="none" stroke="midnightblue" d="M704.96,-471.69C752.14,-457.47 817.2,-429.43 847.94,-378 855,-366.17 855.31,-358.64 847.94,-347 838.42,-331.99 823.12,-321.36 807.02,-313.86"/>
<polygon fill="midnightblue" stroke="midnightblue" points="808.06,-310.5 797.49,-309.79 805.32,-316.94 808.06,-310.5"/>
</g>
<!-- Node20 -->
<g id="node20" class="node">
<title>Node20</title>
<g id="a_node20"><a xlink:href="_uniforms_handler_8h.html" target="_top" xlink:title=" ">
<polygon fill="white" stroke="black" points="555.94,-414.5 555.94,-433.5 651.94,-433.5 651.94,-414.5 555.94,-414.5"/>
<text text-anchor="middle" x="603.94" y="-421.5" font-family="Helvetica,sans-Serif" font-size="10.00">UniformsHandler.h</text>
</a>
</g>
</g>
<!-- Node4&#45;&gt;Node20 -->
<g id="edge22" class="edge">
<title>Node4&#45;&gt;Node20</title>
<path fill="none" stroke="midnightblue" d="M639.03,-470.4C632.35,-461.75 623.76,-450.64 616.75,-441.58"/>
<polygon fill="midnightblue" stroke="midnightblue" points="619.52,-439.43 610.63,-433.66 613.98,-443.71 619.52,-439.43"/>
</g>
<!-- Node34 -->
<g id="node34" class="node">
<title>Node34</title>
<g id="a_node34"><a xlink:href="_shader_chunk_8h.html" target="_top" xlink:title=" ">
<polygon fill="white" stroke="black" points="207.44,-414.5 207.44,-433.5 290.44,-433.5 290.44,-414.5 207.44,-414.5"/>
<text text-anchor="middle" x="248.94" y="-421.5" font-family="Helvetica,sans-Serif" font-size="10.00">ShaderChunk.h</text>
</a>
</g>
</g>
<!-- Node4&#45;&gt;Node34 -->
<g id="edge41" class="edge">
<title>Node4&#45;&gt;Node34</title>
<path fill="none" stroke="midnightblue" d="M594.6,-476.29C516.93,-464.76 376.62,-443.95 300.85,-432.7"/>
<polygon fill="midnightblue" stroke="midnightblue" points="301,-429.19 290.6,-431.18 299.97,-436.11 301,-429.19"/>
</g>
<!-- Node7 -->
<g id="node7" class="node">
<title>Node7</title>
<g id="a_node7"><a xlink:href="_synchronizable_pool_8h.html" target="_top" xlink:title=" ">
<polygon fill="white" stroke="black" points="596.44,-168.5 596.44,-187.5 707.44,-187.5 707.44,-168.5 596.44,-168.5"/>
<text text-anchor="middle" x="651.94" y="-175.5" font-family="Helvetica,sans-Serif" font-size="10.00">SynchronizablePool.h</text>
</a>
</g>
</g>
<!-- Node6&#45;&gt;Node7 -->
<g id="edge7" class="edge">
<title>Node6&#45;&gt;Node7</title>
<path fill="none" stroke="midnightblue" d="M711.01,-280.41C695.97,-271.87 678.69,-259.61 667.94,-244 658.56,-230.39 654.66,-211.85 653.05,-198.05"/>
<polygon fill="midnightblue" stroke="midnightblue" points="656.51,-197.45 652.17,-187.79 649.54,-198.05 656.51,-197.45"/>
</g>
<!-- Node18 -->
<g id="node18" class="node">
<title>Node18</title>
<g id="a_node18"><a xlink:href="_runner_pool_8h.html" target="_top" xlink:title=" ">
<polygon fill="white" stroke="black" points="730.44,-168.5 730.44,-187.5 805.44,-187.5 805.44,-168.5 730.44,-168.5"/>
<text text-anchor="middle" x="767.94" y="-175.5" font-family="Helvetica,sans-Serif" font-size="10.00">RunnerPool.h</text>
</a>
</g>
</g>
<!-- Node6&#45;&gt;Node18 -->
<g id="edge18" class="edge">
<title>Node6&#45;&gt;Node18</title>
<path fill="none" stroke="midnightblue" d="M744.25,-280.34C749.11,-259.53 758.2,-220.66 763.59,-197.58"/>
<polygon fill="midnightblue" stroke="midnightblue" points="767.04,-198.2 765.91,-187.67 760.23,-196.61 767.04,-198.2"/>
</g>
<!-- Node19 -->
<g id="node19" class="node">
<title>Node19</title>
<g id="a_node19"><a xlink:href="_main_pool_8h.html" target="_top" xlink:title=" ">
<polygon fill="white" stroke="black" points="677.44,-224.5 677.44,-243.5 742.44,-243.5 742.44,-224.5 677.44,-224.5"/>
<text text-anchor="middle" x="709.94" y="-231.5" font-family="Helvetica,sans-Serif" font-size="10.00">MainPool.h</text>
</a>
</g>
</g>
<!-- Node6&#45;&gt;Node19 -->
<g id="edge20" class="edge">
<title>Node6&#45;&gt;Node19</title>
<path fill="none" stroke="midnightblue" d="M733.59,-280.4C729.27,-272.11 723.77,-261.55 719.16,-252.71"/>
<polygon fill="midnightblue" stroke="midnightblue" points="722.17,-250.91 714.45,-243.66 715.96,-254.14 722.17,-250.91"/>
</g>
<!-- Node8 -->
<g id="node8" class="node">
<title>Node8</title>
<g id="a_node8"><a xlink:href="_thread_pool_8h.html" target="_top" xlink:title=" ">
<polygon fill="white" stroke="black" points="614.94,-112.5 614.94,-131.5 688.94,-131.5 688.94,-112.5 614.94,-112.5"/>
<text text-anchor="middle" x="651.94" y="-119.5" font-family="Helvetica,sans-Serif" font-size="10.00">ThreadPool.h</text>
</a>
</g>
</g>
<!-- Node7&#45;&gt;Node8 -->
<g id="edge8" class="edge">
<title>Node7&#45;&gt;Node8</title>
<path fill="none" stroke="midnightblue" d="M651.94,-168.08C651.94,-161.01 651.94,-150.86 651.94,-141.99"/>
<polygon fill="midnightblue" stroke="midnightblue" points="655.44,-141.75 651.94,-131.75 648.44,-141.75 655.44,-141.75"/>
</g>
<!-- Node9 -->
<g id="node9" class="node">
<title>Node9</title>
<g id="a_node9"><a xlink:title=" ">
<polygon fill="white" stroke="#bfbfbf" points="742.94,-56.5 742.94,-75.5 786.94,-75.5 786.94,-56.5 742.94,-56.5"/>
<text text-anchor="middle" x="764.94" y="-63.5" font-family="Helvetica,sans-Serif" font-size="10.00">thread</text>
</a>
</g>
</g>
<!-- Node8&#45;&gt;Node9 -->
<g id="edge9" class="edge">
<title>Node8&#45;&gt;Node9</title>
<path fill="none" stroke="midnightblue" d="M669.84,-112.44C688.19,-103.68 716.94,-89.94 738.03,-79.86"/>
<polygon fill="midnightblue" stroke="midnightblue" points="739.6,-82.99 747.11,-75.52 736.58,-76.67 739.6,-82.99"/>
</g>
<!-- Node10 -->
<g id="node10" class="node">
<title>Node10</title>
<g id="a_node10"><a xlink:title=" ">
<polygon fill="white" stroke="#bfbfbf" points="804.94,-56.5 804.94,-75.5 848.94,-75.5 848.94,-56.5 804.94,-56.5"/>
<text text-anchor="middle" x="826.94" y="-63.5" font-family="Helvetica,sans-Serif" font-size="10.00">mutex</text>
</a>
</g>
</g>
<!-- Node8&#45;&gt;Node10 -->
<g id="edge10" class="edge">
<title>Node8&#45;&gt;Node10</title>
<path fill="none" stroke="midnightblue" d="M679.67,-112.44C711.11,-102.74 762.28,-86.95 795.27,-76.77"/>
<polygon fill="midnightblue" stroke="midnightblue" points="796.35,-80.1 804.88,-73.81 794.29,-73.41 796.35,-80.1"/>
</g>
<!-- Node11 -->
<g id="node11" class="node">
<title>Node11</title>
<g id="a_node11"><a xlink:title=" ">
<polygon fill="white" stroke="#bfbfbf" points="416.44,-56.5 416.44,-75.5 509.44,-75.5 509.44,-56.5 416.44,-56.5"/>
<text text-anchor="middle" x="462.94" y="-63.5" font-family="Helvetica,sans-Serif" font-size="10.00">condition_variable</text>
</a>
</g>
</g>
<!-- Node8&#45;&gt;Node11 -->
<g id="edge11" class="edge">
<title>Node8&#45;&gt;Node11</title>
<path fill="none" stroke="midnightblue" d="M621.99,-112.44C589.78,-103.24 538.4,-88.56 502.79,-78.39"/>
<polygon fill="midnightblue" stroke="midnightblue" points="503.32,-74.9 492.74,-75.52 501.4,-81.63 503.32,-74.9"/>
</g>
<!-- Node12 -->
<g id="node12" class="node">
<title>Node12</title>
<g id="a_node12"><a xlink:title=" ">
<polygon fill="white" stroke="#bfbfbf" points="527.44,-56.5 527.44,-75.5 568.44,-75.5 568.44,-56.5 527.44,-56.5"/>
<text text-anchor="middle" x="547.94" y="-63.5" font-family="Helvetica,sans-Serif" font-size="10.00">future</text>
</a>
</g>
</g>
<!-- Node8&#45;&gt;Node12 -->
<g id="edge12" class="edge">
<title>Node8&#45;&gt;Node12</title>
<path fill="none" stroke="midnightblue" d="M635.23,-112.32C618.62,-103.7 592.93,-90.36 573.72,-80.39"/>
<polygon fill="midnightblue" stroke="midnightblue" points="575.09,-77.16 564.6,-75.65 571.87,-83.37 575.09,-77.16"/>
</g>
<!-- Node13 -->
<g id="node13" class="node">
<title>Node13</title>
<g id="a_node13"><a xlink:title=" ">
<polygon fill="white" stroke="#bfbfbf" points="586.94,-56.5 586.94,-75.5 638.94,-75.5 638.94,-56.5 586.94,-56.5"/>
<text text-anchor="middle" x="612.94" y="-63.5" font-family="Helvetica,sans-Serif" font-size="10.00">memory</text>
</a>
</g>
</g>
<!-- Node8&#45;&gt;Node13 -->
<g id="edge13" class="edge">
<title>Node8&#45;&gt;Node13</title>
<path fill="none" stroke="midnightblue" d="M645.5,-112.08C639.99,-104.46 631.91,-93.26 625.17,-83.94"/>
<polygon fill="midnightblue" stroke="midnightblue" points="627.95,-81.81 619.26,-75.75 622.27,-85.91 627.95,-81.81"/>
</g>
<!-- Node14 -->
<g id="node14" class="node">
<title>Node14</title>
<g id="a_node14"><a xlink:title=" ">
<polygon fill="white" stroke="#bfbfbf" points="182.94,-56.5 182.94,-75.5 236.94,-75.5 236.94,-56.5 182.94,-56.5"/>
<text text-anchor="middle" x="209.94" y="-63.5" font-family="Helvetica,sans-Serif" font-size="10.00">iostream</text>
</a>
</g>
</g>
<!-- Node8&#45;&gt;Node14 -->
<g id="edge14" class="edge">
<title>Node8&#45;&gt;Node14</title>
<path fill="none" stroke="midnightblue" d="M614.63,-116.44C531.2,-106.25 330.35,-81.71 247.07,-71.54"/>
<polygon fill="midnightblue" stroke="midnightblue" points="247.4,-68.05 237.05,-70.31 246.56,-75 247.4,-68.05"/>
</g>
<!-- Node15 -->
<g id="node15" class="node">
<title>Node15</title>
<g id="a_node15"><a xlink:href="_base_pool_8h.html" target="_top" xlink:title=" ">
<polygon fill="white" stroke="black" points="657.44,-56.5 657.44,-75.5 724.44,-75.5 724.44,-56.5 657.44,-56.5"/>
<text text-anchor="middle" x="690.94" y="-63.5" font-family="Helvetica,sans-Serif" font-size="10.00">BasePool.h</text>
</a>
</g>
</g>
<!-- Node8&#45;&gt;Node15 -->
<g id="edge15" class="edge">
<title>Node8&#45;&gt;Node15</title>
<path fill="none" stroke="midnightblue" d="M658.38,-112.08C663.89,-104.46 671.97,-93.26 678.7,-83.94"/>
<polygon fill="midnightblue" stroke="midnightblue" points="681.6,-85.91 684.62,-75.75 675.92,-81.81 681.6,-85.91"/>
</g>
<!-- Node16 -->
<g id="node16" class="node">
<title>Node16</title>
<g id="a_node16"><a xlink:title=" ">
<polygon fill="white" stroke="#bfbfbf" points="634.44,-0.5 634.44,-19.5 677.44,-19.5 677.44,-0.5 634.44,-0.5"/>
<text text-anchor="middle" x="655.94" y="-7.5" font-family="Helvetica,sans-Serif" font-size="10.00">queue</text>
</a>
</g>
</g>
<!-- Node15&#45;&gt;Node16 -->
<g id="edge16" class="edge">
<title>Node15&#45;&gt;Node16</title>
<path fill="none" stroke="midnightblue" d="M685.16,-56.08C680.26,-48.53 673.11,-37.49 667.1,-28.23"/>
<polygon fill="midnightblue" stroke="midnightblue" points="669.98,-26.24 661.61,-19.75 664.11,-30.05 669.98,-26.24"/>
</g>
<!-- Node17 -->
<g id="node17" class="node">
<title>Node17</title>
<g id="a_node17"><a xlink:title=" ">
<polygon fill="white" stroke="#bfbfbf" points="695.94,-0.5 695.94,-19.5 753.94,-19.5 753.94,-0.5 695.94,-0.5"/>
<text text-anchor="middle" x="724.94" y="-7.5" font-family="Helvetica,sans-Serif" font-size="10.00">functional</text>
</a>
</g>
</g>
<!-- Node15&#45;&gt;Node17 -->
<g id="edge17" class="edge">
<title>Node15&#45;&gt;Node17</title>
<path fill="none" stroke="midnightblue" d="M696.55,-56.08C701.3,-48.53 708.25,-37.49 714.09,-28.23"/>
<polygon fill="midnightblue" stroke="midnightblue" points="717.06,-30.08 719.43,-19.75 711.14,-26.35 717.06,-30.08"/>
</g>
<!-- Node18&#45;&gt;Node8 -->
<g id="edge19" class="edge">
<title>Node18&#45;&gt;Node8</title>
<path fill="none" stroke="midnightblue" d="M749.56,-168.44C730.72,-159.68 701.21,-145.94 679.56,-135.86"/>
<polygon fill="midnightblue" stroke="midnightblue" points="680.77,-132.56 670.23,-131.52 677.82,-138.91 680.77,-132.56"/>
</g>
<!-- Node19&#45;&gt;Node7 -->
<g id="edge21" class="edge">
<title>Node19&#45;&gt;Node7</title>
<path fill="none" stroke="midnightblue" d="M700.62,-224.32C692.04,-216.34 679.12,-204.31 668.75,-194.65"/>
<polygon fill="midnightblue" stroke="midnightblue" points="671.13,-192.09 661.42,-187.83 666.36,-197.21 671.13,-192.09"/>
</g>
<!-- Node21 -->
<g id="node21" class="node">
<title>Node21</title>
<g id="a_node21"><a xlink:title=" ">
<polygon fill="white" stroke="#bfbfbf" points="266.44,-286 266.44,-305 307.44,-305 307.44,-286 266.44,-286"/>
<text text-anchor="middle" x="286.94" y="-293" font-family="Helvetica,sans-Serif" font-size="10.00">string</text>
</a>
</g>
</g>
<!-- Node20&#45;&gt;Node21 -->
<g id="edge23" class="edge">
<title>Node20&#45;&gt;Node21</title>
<path fill="none" stroke="midnightblue" d="M555.74,-420.51C508.74,-416.46 436.3,-405.85 379.94,-378 371.2,-373.69 328.11,-334.53 303.77,-312.1"/>
<polygon fill="midnightblue" stroke="midnightblue" points="306.03,-309.42 296.31,-305.21 301.28,-314.56 306.03,-309.42"/>
</g>
<!-- Node22 -->
<g id="node22" class="node">
<title>Node22</title>
<g id="a_node22"><a xlink:title=" ">
<polygon fill="white" stroke="#bfbfbf" points="249.44,-353 249.44,-372 332.44,-372 332.44,-353 249.44,-353"/>
<text text-anchor="middle" x="290.94" y="-360" font-family="Helvetica,sans-Serif" font-size="10.00">unordered_map</text>
</a>
</g>
</g>
<!-- Node20&#45;&gt;Node22 -->
<g id="edge24" class="edge">
<title>Node20&#45;&gt;Node22</title>
<path fill="none" stroke="midnightblue" d="M555.87,-415.76C504.07,-407.69 419.32,-393.68 346.94,-378 342.16,-376.96 337.17,-375.8 332.23,-374.59"/>
<polygon fill="midnightblue" stroke="midnightblue" points="332.78,-371.12 322.23,-372.07 331.07,-377.91 332.78,-371.12"/>
</g>
<!-- Node23 -->
<g id="node23" class="node">
<title>Node23</title>
<g id="a_node23"><a xlink:title=" ">
<polygon fill="white" stroke="#bfbfbf" points="815.94,-286 815.94,-305 879.94,-305 879.94,-286 815.94,-286"/>
<text text-anchor="middle" x="847.94" y="-293" font-family="Helvetica,sans-Serif" font-size="10.00">glad/glad.h</text>
</a>
</g>
</g>
<!-- Node20&#45;&gt;Node23 -->
<g id="edge25" class="edge">
<title>Node20&#45;&gt;Node23</title>
<path fill="none" stroke="midnightblue" d="M651.95,-414.94C722.13,-403.04 844.79,-381.78 847.94,-378 862.4,-360.63 858.81,-333.2 854.07,-315.03"/>
<polygon fill="midnightblue" stroke="midnightblue" points="857.39,-313.92 851.2,-305.32 850.68,-315.9 857.39,-313.92"/>
</g>
<!-- Node24 -->
<g id="node24" class="node">
<title>Node24</title>
<g id="a_node24"><a xlink:title=" ">
<polygon fill="white" stroke="#bfbfbf" points="897.94,-286 897.94,-305 975.94,-305 975.94,-286 897.94,-286"/>
<text text-anchor="middle" x="936.94" y="-293" font-family="Helvetica,sans-Serif" font-size="10.00">GLFW/glfw3.h</text>
</a>
</g>
</g>
<!-- Node20&#45;&gt;Node24 -->
<g id="edge26" class="edge">
<title>Node20&#45;&gt;Node24</title>
<path fill="none" stroke="midnightblue" d="M652.03,-415.19C726.64,-403.02 862.27,-380.64 866.94,-378 893.89,-362.74 915.33,-332.98 927.07,-313.96"/>
<polygon fill="midnightblue" stroke="midnightblue" points="930.21,-315.51 932.3,-305.12 924.19,-311.95 930.21,-315.51"/>
</g>
<!-- Node25 -->
<g id="node25" class="node">
<title>Node25</title>
<g id="a_node25"><a xlink:title=" ">
<polygon fill="white" stroke="#bfbfbf" points="388.94,-353 388.94,-372 474.94,-372 474.94,-353 388.94,-353"/>
<text text-anchor="middle" x="431.94" y="-360" font-family="Helvetica,sans-Serif" font-size="10.00">glm/mat4x4.hpp</text>
</a>
</g>
</g>
<!-- Node20&#45;&gt;Node25 -->
<g id="edge27" class="edge">
<title>Node20&#45;&gt;Node25</title>
<path fill="none" stroke="midnightblue" d="M579.29,-414.48C549.66,-404.22 499.75,-386.96 466.33,-375.4"/>
<polygon fill="midnightblue" stroke="midnightblue" points="467.13,-371.97 456.53,-372.01 464.84,-378.59 467.13,-371.97"/>
</g>
<!-- Node26 -->
<g id="node26" class="node">
<title>Node26</title>
<g id="a_node26"><a xlink:title=" ">
<polygon fill="white" stroke="#bfbfbf" points="492.94,-353 492.94,-372 598.94,-372 598.94,-353 492.94,-353"/>
<text text-anchor="middle" x="545.94" y="-360" font-family="Helvetica,sans-Serif" font-size="10.00">glm/gtc/type_ptr.hpp</text>
</a>
</g>
</g>
<!-- Node20&#45;&gt;Node26 -->
<g id="edge28" class="edge">
<title>Node20&#45;&gt;Node26</title>
<path fill="none" stroke="midnightblue" d="M595.63,-414.48C586.75,-405.37 572.49,-390.74 561.52,-379.48"/>
<polygon fill="midnightblue" stroke="midnightblue" points="563.72,-376.73 554.23,-372.01 558.7,-381.61 563.72,-376.73"/>
</g>
<!-- Node27 -->
<g id="node27" class="node">
<title>Node27</title>
<g id="a_node27"><a xlink:title=" ">
<polygon fill="white" stroke="#bfbfbf" points="616.94,-353 616.94,-372 706.94,-372 706.94,-353 616.94,-353"/>
<text text-anchor="middle" x="661.94" y="-360" font-family="Helvetica,sans-Serif" font-size="10.00">boost/variant.hpp</text>
</a>
</g>
</g>
<!-- Node20&#45;&gt;Node27 -->
<g id="edge29" class="edge">
<title>Node20&#45;&gt;Node27</title>
<path fill="none" stroke="midnightblue" d="M612.25,-414.48C621.12,-405.37 635.38,-390.74 646.36,-379.48"/>
<polygon fill="midnightblue" stroke="midnightblue" points="649.17,-381.61 653.64,-372.01 644.16,-376.73 649.17,-381.61"/>
</g>
<!-- Node28 -->
<g id="node28" class="node">
<title>Node28</title>
<g id="a_node28"><a xlink:href="_texture_8h.html" target="_top" xlink:title=" ">
<polygon fill="white" stroke="black" points="725.44,-347.5 725.44,-377.5 838.44,-377.5 838.44,-347.5 725.44,-347.5"/>
<text text-anchor="start" x="733.44" y="-365.5" font-family="Helvetica,sans-Serif" font-size="10.00">kryne&#45;engine/Textures</text>
<text text-anchor="middle" x="781.94" y="-354.5" font-family="Helvetica,sans-Serif" font-size="10.00">/Texture.h</text>
</a>
</g>
</g>
<!-- Node20&#45;&gt;Node28 -->
<g id="edge30" class="edge">
<title>Node20&#45;&gt;Node28</title>
<path fill="none" stroke="midnightblue" d="M629.44,-414.48C655.69,-405.7 697.31,-391.79 730.44,-380.71"/>
<polygon fill="midnightblue" stroke="midnightblue" points="731.61,-384.01 739.99,-377.52 729.39,-377.37 731.61,-384.01"/>
</g>
<!-- Node28&#45;&gt;Node6 -->
<g id="edge40" class="edge">
<title>Node28&#45;&gt;Node6</title>
<path fill="none" stroke="midnightblue" d="M773.04,-347.4C767.83,-339.13 761.13,-328.51 755.19,-319.1"/>
<polygon fill="midnightblue" stroke="midnightblue" points="758.11,-317.17 749.82,-310.58 752.19,-320.9 758.11,-317.17"/>
</g>
<!-- Node28&#45;&gt;Node14 -->
<g id="edge33" class="edge">
<title>Node28&#45;&gt;Node14</title>
<path fill="none" stroke="midnightblue" d="M725.13,-348.58C722.03,-348.01 718.95,-347.48 715.94,-347 636.32,-334.33 415.94,-363.71 354.94,-311 328.59,-288.24 335.94,-269.82 335.94,-235 335.94,-235 335.94,-235 335.94,-177 335.94,-127.95 281.09,-95.74 243.76,-79.5"/>
<polygon fill="midnightblue" stroke="midnightblue" points="244.81,-76.14 234.23,-75.53 242.12,-82.61 244.81,-76.14"/>
</g>
<!-- Node28&#45;&gt;Node21 -->
<g id="edge32" class="edge">
<title>Node28&#45;&gt;Node21</title>
<path fill="none" stroke="midnightblue" d="M725.14,-348.55C722.03,-347.99 718.95,-347.47 715.94,-347 542.17,-320.08 492.66,-353.13 321.94,-311 319.42,-310.38 316.85,-309.61 314.31,-308.74"/>
<polygon fill="midnightblue" stroke="midnightblue" points="315.34,-305.39 304.75,-305.09 312.84,-311.93 315.34,-305.39"/>
</g>
<!-- Node28&#45;&gt;Node23 -->
<g id="edge38" class="edge">
<title>Node28&#45;&gt;Node23</title>
<path fill="none" stroke="midnightblue" d="M796.26,-347.4C806.75,-337.06 821,-323.02 831.88,-312.31"/>
<polygon fill="midnightblue" stroke="midnightblue" points="834.44,-314.71 839.11,-305.19 829.53,-309.72 834.44,-314.71"/>
</g>
<!-- Node28&#45;&gt;Node24 -->
<g id="edge39" class="edge">
<title>Node28&#45;&gt;Node24</title>
<path fill="none" stroke="midnightblue" d="M815.57,-347.4C842.89,-335.94 881.04,-319.94 907.24,-308.95"/>
<polygon fill="midnightblue" stroke="midnightblue" points="908.78,-312.1 916.65,-305.01 906.07,-305.65 908.78,-312.1"/>
</g>
<!-- Node29 -->
<g id="node29" class="node">
<title>Node29</title>
<g id="a_node29"><a xlink:title=" ">
<polygon fill="white" stroke="#bfbfbf" points="363.94,-286 363.94,-305 433.94,-305 433.94,-286 363.94,-286"/>
<text text-anchor="middle" x="398.94" y="-293" font-family="Helvetica,sans-Serif" font-size="10.00">stb_image.h</text>
</a>
</g>
</g>
<!-- Node28&#45;&gt;Node29 -->
<g id="edge31" class="edge">
<title>Node28&#45;&gt;Node29</title>
<path fill="none" stroke="midnightblue" d="M725.12,-348.69C722.02,-348.1 718.94,-347.53 715.94,-347 595.39,-325.85 562.24,-338.27 442.94,-311 439.27,-310.16 435.48,-309.15 431.72,-308.05"/>
<polygon fill="midnightblue" stroke="midnightblue" points="432.59,-304.65 422,-305 430.49,-311.33 432.59,-304.65"/>
</g>
<!-- Node30 -->
<g id="node30" class="node">
<title>Node30</title>
<g id="a_node30"><a xlink:title=" ">
<polygon fill="white" stroke="#bfbfbf" points="452.44,-286 452.44,-305 559.44,-305 559.44,-286 452.44,-286"/>
<text text-anchor="middle" x="505.94" y="-293" font-family="Helvetica,sans-Serif" font-size="10.00">boost/filesystem.hpp</text>
</a>
</g>
</g>
<!-- Node28&#45;&gt;Node30 -->
<g id="edge34" class="edge">
<title>Node28&#45;&gt;Node30</title>
<path fill="none" stroke="midnightblue" d="M725.42,-348.19C674.18,-336.12 599.59,-318.56 551.92,-307.33"/>
<polygon fill="midnightblue" stroke="midnightblue" points="552.71,-303.92 542.17,-305.03 551.1,-310.73 552.71,-303.92"/>
</g>
<!-- Node31 -->
<g id="node31" class="node">
<title>Node31</title>
<g id="a_node31"><a xlink:title=" ">
<polygon fill="white" stroke="#bfbfbf" points="577.44,-286 577.44,-305 666.44,-305 666.44,-286 577.44,-286"/>
<text text-anchor="middle" x="621.94" y="-293" font-family="Helvetica,sans-Serif" font-size="10.00">boost/format.hpp</text>
</a>
</g>
</g>
<!-- Node28&#45;&gt;Node31 -->
<g id="edge35" class="edge">
<title>Node28&#45;&gt;Node31</title>
<path fill="none" stroke="midnightblue" d="M747.22,-347.4C718.9,-335.89 679.28,-319.8 652.23,-308.81"/>
<polygon fill="midnightblue" stroke="midnightblue" points="653.46,-305.53 642.88,-305.01 650.82,-312.01 653.46,-305.53"/>
</g>
<!-- Node32 -->
<g id="node32" class="node">
<title>Node32</title>
<g id="a_node32"><a xlink:title=" ">
<polygon fill="white" stroke="#bfbfbf" points="993.94,-286 993.94,-305 1067.94,-305 1067.94,-286 993.94,-286"/>
<text text-anchor="middle" x="1030.94" y="-293" font-family="Helvetica,sans-Serif" font-size="10.00">glm/vec2.hpp</text>
</a>
</g>
</g>
<!-- Node28&#45;&gt;Node32 -->
<g id="edge36" class="edge">
<title>Node28&#45;&gt;Node32</title>
<path fill="none" stroke="midnightblue" d="M838.62,-348.39C879.47,-338.7 935.82,-324.84 984.94,-311 988.26,-310.06 991.71,-309.05 995.15,-308.01"/>
<polygon fill="midnightblue" stroke="midnightblue" points="996.22,-311.35 1004.75,-305.06 994.16,-304.66 996.22,-311.35"/>
</g>
<!-- Node33 -->
<g id="node33" class="node">
<title>Node33</title>
<g id="a_node33"><a xlink:title=" ">
<polygon fill="white" stroke="#bfbfbf" points="1259.94,-286 1259.94,-305 1333.94,-305 1333.94,-286 1259.94,-286"/>
<text text-anchor="middle" x="1296.94" y="-293" font-family="Helvetica,sans-Serif" font-size="10.00">glm/vec3.hpp</text>
</a>
</g>
</g>
<!-- Node28&#45;&gt;Node33 -->
<g id="edge37" class="edge">
<title>Node28&#45;&gt;Node33</title>
<path fill="none" stroke="midnightblue" d="M838.54,-355.86C921.05,-347.41 1079.1,-330.38 1212.94,-311 1224.95,-309.26 1237.89,-307.15 1249.93,-305.08"/>
<polygon fill="midnightblue" stroke="midnightblue" points="1250.54,-308.52 1259.79,-303.36 1249.34,-301.63 1250.54,-308.52"/>
</g>
<!-- Node34&#45;&gt;Node14 -->
<g id="edge45" class="edge">
<title>Node34&#45;&gt;Node14</title>
<path fill="none" stroke="midnightblue" d="M207.35,-415.38C142.5,-403.42 24.3,-381.25 20.94,-378 -5.81,-352.15 1.94,-333.69 1.94,-296.5 1.94,-296.5 1.94,-296.5 1.94,-177 1.94,-100.7 112.67,-77.18 172.54,-70.04"/>
<polygon fill="midnightblue" stroke="midnightblue" points="173.18,-73.49 182.74,-68.93 172.42,-66.53 173.18,-73.49"/>
</g>
<!-- Node34&#45;&gt;Node21 -->
<g id="edge43" class="edge">
<title>Node34&#45;&gt;Node21</title>
<path fill="none" stroke="midnightblue" d="M220.92,-414.4C203.76,-407.51 183.19,-395.98 172.94,-378 166.11,-366.03 165.42,-358.55 172.94,-347 182.54,-332.25 225.94,-315.86 256.33,-305.87"/>
<polygon fill="midnightblue" stroke="midnightblue" points="257.62,-309.13 266.07,-302.74 255.48,-302.47 257.62,-309.13"/>
</g>
<!-- Node34&#45;&gt;Node22 -->
<g id="edge42" class="edge">
<title>Node34&#45;&gt;Node22</title>
<path fill="none" stroke="midnightblue" d="M254.95,-414.48C261.19,-405.64 271.11,-391.59 278.95,-380.48"/>
<polygon fill="midnightblue" stroke="midnightblue" points="282.02,-382.2 284.93,-372.01 276.3,-378.16 282.02,-382.2"/>
</g>
<!-- Node35 -->
<g id="node35" class="node">
<title>Node35</title>
<g id="a_node35"><a xlink:title=" ">
<polygon fill="white" stroke="#bfbfbf" points="182.44,-353 182.44,-372 231.44,-372 231.44,-353 182.44,-353"/>
<text text-anchor="middle" x="206.94" y="-360" font-family="Helvetica,sans-Serif" font-size="10.00">fstream</text>
</a>
</g>
</g>
<!-- Node34&#45;&gt;Node35 -->
<g id="edge44" class="edge">
<title>Node34&#45;&gt;Node35</title>
<path fill="none" stroke="midnightblue" d="M242.92,-414.48C236.68,-405.64 226.76,-391.59 218.92,-380.48"/>
<polygon fill="midnightblue" stroke="midnightblue" points="221.57,-378.16 212.94,-372.01 215.85,-382.2 221.57,-378.16"/>
</g>
<!-- Node36 -->
<g id="node36" class="node">
<title>Node36</title>
<g id="a_node36"><a xlink:href="kryne-engine_2_utils_2_utils_8h.html" target="_top" xlink:title=" ">
<polygon fill="white" stroke="black" points="30.44,-347.5 30.44,-377.5 125.44,-377.5 125.44,-347.5 30.44,-347.5"/>
<text text-anchor="start" x="38.44" y="-365.5" font-family="Helvetica,sans-Serif" font-size="10.00">kryne&#45;engine/Utils</text>
<text text-anchor="middle" x="77.94" y="-354.5" font-family="Helvetica,sans-Serif" font-size="10.00">/Utils.h</text>
</a>
</g>
</g>
<!-- Node34&#45;&gt;Node36 -->
<g id="edge46" class="edge">
<title>Node34&#45;&gt;Node36</title>
<path fill="none" stroke="midnightblue" d="M224.44,-414.48C199.33,-405.74 159.58,-391.91 127.81,-380.86"/>
<polygon fill="midnightblue" stroke="midnightblue" points="128.83,-377.5 118.24,-377.52 126.53,-384.11 128.83,-377.5"/>
</g>
<!-- Node37 -->
<g id="node37" class="node">
<title>Node37</title>
<g id="a_node37"><a xlink:href="_string_utils_8hpp.html" target="_top" xlink:title=" ">
<polygon fill="white" stroke="black" points="105.94,-168.5 105.94,-187.5 185.94,-187.5 185.94,-168.5 105.94,-168.5"/>
<text text-anchor="middle" x="145.94" y="-175.5" font-family="Helvetica,sans-Serif" font-size="10.00">StringUtils.hpp</text>
</a>
</g>
</g>
<!-- Node36&#45;&gt;Node37 -->
<g id="edge47" class="edge">
<title>Node36&#45;&gt;Node37</title>
<path fill="none" stroke="midnightblue" d="M79.54,-347.2C82.84,-321.49 91.84,-266.18 111.94,-224 116.88,-213.63 124.42,-203.32 131.16,-195.19"/>
<polygon fill="midnightblue" stroke="midnightblue" points="133.83,-197.45 137.73,-187.59 128.54,-192.87 133.83,-197.45"/>
</g>
<!-- Node38 -->
<g id="node38" class="node">
<title>Node38</title>
<g id="a_node38"><a xlink:href="_vector_mapping_8hpp.html" target="_top" xlink:title=" ">
<polygon fill="white" stroke="black" points="127.44,-286 127.44,-305 228.44,-305 228.44,-286 127.44,-286"/>
<text text-anchor="middle" x="177.94" y="-293" font-family="Helvetica,sans-Serif" font-size="10.00">VectorMapping.hpp</text>
</a>
</g>
</g>
<!-- Node36&#45;&gt;Node38 -->
<g id="edge49" class="edge">
<title>Node36&#45;&gt;Node38</title>
<path fill="none" stroke="midnightblue" d="M99.63,-347.4C116.4,-336.5 139.51,-321.48 156.27,-310.58"/>
<polygon fill="midnightblue" stroke="midnightblue" points="158.37,-313.39 164.85,-305.01 154.56,-307.52 158.37,-313.39"/>
</g>
<!-- Node37&#45;&gt;Node14 -->
<g id="edge48" class="edge">
<title>Node37&#45;&gt;Node14</title>
<path fill="none" stroke="midnightblue" d="M150.96,-168.37C161.47,-150.3 185.98,-108.18 199.87,-84.31"/>
<polygon fill="midnightblue" stroke="midnightblue" points="202.93,-86 204.94,-75.59 196.88,-82.47 202.93,-86"/>
</g>
<!-- Node39 -->
<g id="node39" class="node">
<title>Node39</title>
<g id="a_node39"><a xlink:title=" ">
<polygon fill="white" stroke="#bfbfbf" points="1210.94,-224.5 1210.94,-243.5 1252.94,-243.5 1252.94,-224.5 1210.94,-224.5"/>
<text text-anchor="middle" x="1231.94" y="-231.5" font-family="Helvetica,sans-Serif" font-size="10.00">vector</text>
</a>
</g>
</g>
<!-- Node38&#45;&gt;Node39 -->
<g id="edge50" class="edge">
<title>Node38&#45;&gt;Node39</title>
<path fill="none" stroke="midnightblue" d="M218.37,-285.99C230.7,-283.69 244.33,-281.44 256.94,-280 626.68,-237.73 1079.61,-234.87 1200.87,-234.91"/>
<polygon fill="midnightblue" stroke="midnightblue" points="1200.92,-238.41 1210.93,-234.92 1200.93,-231.41 1200.92,-238.41"/>
</g>
<!-- Node40 -->
<g id="node40" class="node">
<title>Node40</title>
<g id="a_node40"><a xlink:title=" ">
<polygon fill="white" stroke="#bfbfbf" points="121.44,-224.5 121.44,-243.5 234.44,-243.5 234.44,-224.5 121.44,-224.5"/>
<text text-anchor="middle" x="177.94" y="-231.5" font-family="Helvetica,sans-Serif" font-size="10.00">glm/detail/qualifier.hpp</text>
</a>
</g>
</g>
<!-- Node38&#45;&gt;Node40 -->
<g id="edge51" class="edge">
<title>Node38&#45;&gt;Node40</title>
<path fill="none" stroke="midnightblue" d="M177.94,-285.98C177.94,-277.58 177.94,-264.48 177.94,-253.66"/>
<polygon fill="midnightblue" stroke="midnightblue" points="181.44,-253.51 177.94,-243.51 174.44,-253.51 181.44,-253.51"/>
</g>
<!-- Node41&#45;&gt;Node23 -->
<g id="edge56" class="edge">
<title>Node41&#45;&gt;Node23</title>
<path fill="none" stroke="midnightblue" d="M1021.23,-347.44C983.39,-337.91 932.96,-324.61 888.94,-311 886.32,-310.19 883.63,-309.32 880.92,-308.42"/>
<polygon fill="midnightblue" stroke="midnightblue" points="881.84,-305.04 871.24,-305.11 879.57,-311.66 881.84,-305.04"/>
</g>
<!-- Node41&#45;&gt;Node24 -->
<g id="edge57" class="edge">
<title>Node41&#45;&gt;Node24</title>
<path fill="none" stroke="midnightblue" d="M1048.12,-347.4C1023.32,-336.04 988.76,-320.22 964.78,-309.24"/>
<polygon fill="midnightblue" stroke="midnightblue" points="966.07,-305.99 955.52,-305.01 963.16,-312.35 966.07,-305.99"/>
</g>
<!-- Node41&#45;&gt;Node32 -->
<g id="edge58" class="edge">
<title>Node41&#45;&gt;Node32</title>
<path fill="none" stroke="midnightblue" d="M1068.52,-347.4C1061.11,-337.36 1051.12,-323.84 1043.31,-313.25"/>
<polygon fill="midnightblue" stroke="midnightblue" points="1046.11,-311.16 1037.36,-305.19 1040.48,-315.32 1046.11,-311.16"/>
</g>
<!-- Node41&#45;&gt;Node33 -->
<g id="edge59" class="edge">
<title>Node41&#45;&gt;Node33</title>
<path fill="none" stroke="midnightblue" d="M1125.97,-347.48C1165.56,-335.67 1221.47,-319 1258.44,-307.98"/>
<polygon fill="midnightblue" stroke="midnightblue" points="1259.75,-311.24 1268.33,-305.03 1257.75,-304.53 1259.75,-311.24"/>
</g>
<!-- Node41&#45;&gt;Node39 -->
<g id="edge53" class="edge">
<title>Node41&#45;&gt;Node39</title>
<path fill="none" stroke="midnightblue" d="M1142.57,-350.79C1167.7,-343.51 1194.83,-331.33 1212.94,-311 1226.9,-295.32 1230.93,-270.92 1231.93,-254.01"/>
<polygon fill="midnightblue" stroke="midnightblue" points="1235.44,-253.8 1232.23,-243.7 1228.44,-253.6 1235.44,-253.8"/>
</g>
<!-- Node42 -->
<g id="node42" class="node">
<title>Node42</title>
<g id="a_node42"><a xlink:title=" ">
<polygon fill="white" stroke="#bfbfbf" points="1151.94,-286 1151.94,-305 1203.94,-305 1203.94,-286 1151.94,-286"/>
<text text-anchor="middle" x="1177.94" y="-293" font-family="Helvetica,sans-Serif" font-size="10.00">stdarg.h</text>
</a>
</g>
</g>
<!-- Node41&#45;&gt;Node42 -->
<g id="edge54" class="edge">
<title>Node41&#45;&gt;Node42</title>
<path fill="none" stroke="midnightblue" d="M1100.42,-347.4C1117.02,-336.5 1139.89,-321.48 1156.49,-310.58"/>
<polygon fill="midnightblue" stroke="midnightblue" points="1158.54,-313.42 1164.98,-305.01 1154.7,-307.57 1158.54,-313.42"/>
</g>
<!-- Node43 -->
<g id="node43" class="node">
<title>Node43</title>
<g id="a_node43"><a xlink:title=" ">
<polygon fill="white" stroke="#bfbfbf" points="1085.94,-286 1085.94,-305 1133.94,-305 1133.94,-286 1085.94,-286"/>
<text text-anchor="middle" x="1109.94" y="-293" font-family="Helvetica,sans-Serif" font-size="10.00">stdlib.h</text>
</a>
</g>
</g>
<!-- Node41&#45;&gt;Node43 -->
<g id="edge55" class="edge">
<title>Node41&#45;&gt;Node43</title>
<path fill="none" stroke="midnightblue" d="M1085.66,-347.4C1090.26,-337.76 1096.38,-324.91 1101.33,-314.54"/>
<polygon fill="midnightblue" stroke="midnightblue" points="1104.64,-315.73 1105.79,-305.19 1098.33,-312.71 1104.64,-315.73"/>
</g>
<!-- Node44&#45;&gt;Node32 -->
<g id="edge63" class="edge">
<title>Node44&#45;&gt;Node32</title>
<path fill="none" stroke="midnightblue" d="M1257.33,-349.27C1206.63,-340.1 1137.22,-326.49 1076.94,-311 1073.51,-310.12 1069.96,-309.13 1066.42,-308.1"/>
<polygon fill="midnightblue" stroke="midnightblue" points="1067.17,-304.67 1056.58,-305.12 1065.14,-311.37 1067.17,-304.67"/>
</g>
<!-- Node44&#45;&gt;Node33 -->
<g id="edge64" class="edge">
<title>Node44&#45;&gt;Node33</title>
<path fill="none" stroke="midnightblue" d="M1321.99,-347.4C1317.2,-337.66 1310.79,-324.65 1305.66,-314.21"/>
<polygon fill="midnightblue" stroke="midnightblue" points="1308.77,-312.62 1301.22,-305.19 1302.49,-315.71 1308.77,-312.62"/>
</g>
<!-- Node44&#45;&gt;Node39 -->
<g id="edge61" class="edge">
<title>Node44&#45;&gt;Node39</title>
<path fill="none" stroke="midnightblue" d="M1337.08,-347.25C1345.8,-329.88 1356.65,-300.36 1342.94,-280 1325.27,-253.78 1289.43,-242.83 1263.24,-238.26"/>
<polygon fill="midnightblue" stroke="midnightblue" points="1263.45,-234.75 1253.04,-236.71 1262.4,-241.67 1263.45,-234.75"/>
</g>
<!-- Node45 -->
<g id="node45" class="node">
<title>Node45</title>
<g id="a_node45"><a xlink:title=" ">
<polygon fill="white" stroke="#bfbfbf" points="1389.94,-286 1389.94,-305 1433.94,-305 1433.94,-286 1389.94,-286"/>
<text text-anchor="middle" x="1411.94" y="-293" font-family="Helvetica,sans-Serif" font-size="10.00">cmath</text>
</a>
</g>
</g>
<!-- Node44&#45;&gt;Node45 -->
<g id="edge62" class="edge">
<title>Node44&#45;&gt;Node45</title>
<path fill="none" stroke="midnightblue" d="M1346.95,-347.4C1360.53,-336.76 1379.12,-322.2 1392.93,-311.38"/>
<polygon fill="midnightblue" stroke="midnightblue" points="1395.12,-314.12 1400.83,-305.19 1390.8,-308.6 1395.12,-314.12"/>
</g>
<!-- Node46 -->
<g id="node46" class="node">
<title>Node46</title>
<g id="a_node46"><a xlink:href="_cube_vertex_data_8h.html" target="_top" xlink:title=" ">
<polygon fill="white" stroke="black" points="1452.44,-280.5 1452.44,-310.5 1571.44,-310.5 1571.44,-280.5 1452.44,-280.5"/>
<text text-anchor="start" x="1460.44" y="-298.5" font-family="Helvetica,sans-Serif" font-size="10.00">kryne&#45;engine/Constants</text>
<text text-anchor="middle" x="1511.94" y="-287.5" font-family="Helvetica,sans-Serif" font-size="10.00">/CubeVertexData.h</text>
</a>
</g>
</g>
<!-- Node44&#45;&gt;Node46 -->
<g id="edge65" class="edge">
<title>Node44&#45;&gt;Node46</title>
<path fill="none" stroke="midnightblue" d="M1368.64,-347.4C1396.22,-337.6 1433.16,-324.48 1462.62,-314.02"/>
<polygon fill="midnightblue" stroke="midnightblue" points="1464.05,-317.22 1472.31,-310.58 1461.71,-310.63 1464.05,-317.22"/>
</g>
<!-- Node47&#45;&gt;Node28 -->
<g id="edge67" class="edge">
<title>Node47&#45;&gt;Node28</title>
<path fill="none" stroke="midnightblue" d="M890.34,-470.14C868.89,-449.04 828.69,-409.49 803.73,-384.94"/>
<polygon fill="midnightblue" stroke="midnightblue" points="806.09,-382.35 796.51,-377.84 801.18,-387.34 806.09,-382.35"/>
</g>
</g>
</svg>
