<?xml version="1.0" encoding="UTF-8" standalone="no"?>
<!DOCTYPE svg PUBLIC "-//W3C//DTD SVG 1.1//EN"
 "http://www.w3.org/Graphics/SVG/1.1/DTD/svg11.dtd">
<!-- Generated by graphviz version 2.40.1 (20161225.0304)
 -->
<!-- Title: kryne&#45;engine/include/kryne&#45;engine/Camera/FirstPersonCamera.h Pages: 1 -->
<svg width="925pt" height="274pt"
 viewBox="0.00 0.00 925.00 274.00" xmlns="http://www.w3.org/2000/svg" xmlns:xlink="http://www.w3.org/1999/xlink">
<g id="graph0" class="graph" transform="scale(1 1) rotate(0) translate(4 270)">
<title>kryne&#45;engine/include/kryne&#45;engine/Camera/FirstPersonCamera.h</title>
<polygon fill="#ffffff" stroke="transparent" points="-4,4 -4,-270 921,-270 921,4 -4,4"/>
<!-- Node0 -->
<g id="node1" class="node">
<title>Node0</title>
<polygon fill="#bfbfbf" stroke="#000000" points="116.5,-224.5 116.5,-265.5 229.5,-265.5 229.5,-224.5 116.5,-224.5"/>
<text text-anchor="start" x="124.5" y="-253.5" font-family="Helvetica,sans-Serif" font-size="10.00" fill="#000000">kryne&#45;engine/include</text>
<text text-anchor="start" x="124.5" y="-242.5" font-family="Helvetica,sans-Serif" font-size="10.00" fill="#000000">/kryne&#45;engine/Camera</text>
<text text-anchor="middle" x="173" y="-231.5" font-family="Helvetica,sans-Serif" font-size="10.00" fill="#000000">/FirstPersonCamera.h</text>
</g>
<!-- Node1 -->
<g id="node2" class="node">
<title>Node1</title>
<polygon fill="#ffffff" stroke="#bfbfbf" points="0,-168.5 0,-187.5 46,-187.5 46,-168.5 0,-168.5"/>
<text text-anchor="middle" x="23" y="-175.5" font-family="Helvetica,sans-Serif" font-size="10.00" fill="#000000">chrono</text>
</g>
<!-- Node0&#45;&gt;Node1 -->
<g id="edge1" class="edge">
<title>Node0&#45;&gt;Node1</title>
<path fill="none" stroke="#191970" d="M126.7711,-224.3511C103.1398,-213.7958 75.0168,-201.2342 54.0125,-191.8523"/>
<polygon fill="#191970" stroke="#191970" points="55.1729,-188.5373 44.6149,-187.6546 52.318,-194.9287 55.1729,-188.5373"/>
</g>
<!-- Node2 -->
<g id="node3" class="node">
<title>Node2</title>
<polygon fill="#ffffff" stroke="#bfbfbf" points="64,-168.5 64,-187.5 120,-187.5 120,-168.5 64,-168.5"/>
<text text-anchor="middle" x="92" y="-175.5" font-family="Helvetica,sans-Serif" font-size="10.00" fill="#000000">algorithm</text>
</g>
<!-- Node0&#45;&gt;Node2 -->
<g id="edge2" class="edge">
<title>Node0&#45;&gt;Node2</title>
<path fill="none" stroke="#191970" d="M147.8151,-224.168C136.1207,-214.4949 122.4284,-203.1692 111.5322,-194.1562"/>
<polygon fill="#191970" stroke="#191970" points="113.7605,-191.4573 103.8241,-187.7805 109.2989,-196.8512 113.7605,-191.4573"/>
</g>
<!-- Node3 -->
<g id="node4" class="node">
<title>Node3</title>
<polygon fill="#ffffff" stroke="#bfbfbf" points="138,-168.5 138,-187.5 208,-187.5 208,-168.5 138,-168.5"/>
<text text-anchor="middle" x="173" y="-175.5" font-family="Helvetica,sans-Serif" font-size="10.00" fill="#000000">glm/glm.hpp</text>
</g>
<!-- Node0&#45;&gt;Node3 -->
<g id="edge3" class="edge">
<title>Node0&#45;&gt;Node3</title>
<path fill="none" stroke="#191970" d="M173,-224.168C173,-215.8226 173,-206.2471 173,-197.9879"/>
<polygon fill="#191970" stroke="#191970" points="176.5001,-197.7804 173,-187.7805 169.5001,-197.7805 176.5001,-197.7804"/>
</g>
<!-- Node4 -->
<g id="node5" class="node">
<title>Node4</title>
<polygon fill="#ffffff" stroke="#bfbfbf" points="226.5,-168.5 226.5,-187.5 351.5,-187.5 351.5,-168.5 226.5,-168.5"/>
<text text-anchor="middle" x="289" y="-175.5" font-family="Helvetica,sans-Serif" font-size="10.00" fill="#000000">glm/gtx/euler_angles.hpp</text>
</g>
<!-- Node0&#45;&gt;Node4 -->
<g id="edge4" class="edge">
<title>Node0&#45;&gt;Node4</title>
<path fill="none" stroke="#191970" d="M208.7503,-224.3511C226.4464,-214.1301 247.3994,-202.0279 263.4572,-192.7532"/>
<polygon fill="#191970" stroke="#191970" points="265.3757,-195.687 272.2845,-187.6546 261.8746,-189.6254 265.3757,-195.687"/>
</g>
<!-- Node5 -->
<g id="node6" class="node">
<title>Node5</title>
<g id="a_node6"><a xlink:href="_old_camera_8h.html" target="_top" xlink:title="OldCamera.h">
<polygon fill="#ffffff" stroke="#000000" points="370,-168.5 370,-187.5 444,-187.5 444,-168.5 370,-168.5"/>
<text text-anchor="middle" x="407" y="-175.5" font-family="Helvetica,sans-Serif" font-size="10.00" fill="#000000">OldCamera.h</text>
</a>
</g>
</g>
<!-- Node0&#45;&gt;Node5 -->
<g id="edge5" class="edge">
<title>Node0&#45;&gt;Node5</title>
<path fill="none" stroke="#191970" d="M229.6449,-228.7812C270.9915,-216.9426 326.1862,-201.139 363.9551,-190.3248"/>
<polygon fill="#191970" stroke="#191970" points="364.9903,-193.6691 373.6405,-187.5516 363.0634,-186.9396 364.9903,-193.6691"/>
</g>
<!-- Node6 -->
<g id="node7" class="node">
<title>Node6</title>
<polygon fill="#ffffff" stroke="#bfbfbf" points="65,-56.5 65,-75.5 109,-75.5 109,-56.5 65,-56.5"/>
<text text-anchor="middle" x="87" y="-63.5" font-family="Helvetica,sans-Serif" font-size="10.00" fill="#000000">vector</text>
</g>
<!-- Node5&#45;&gt;Node6 -->
<g id="edge6" class="edge">
<title>Node5&#45;&gt;Node6</title>
<path fill="none" stroke="#191970" d="M369.9368,-170.1001C322.968,-159.9031 244.7792,-142.2555 217,-132 178.7223,-117.8686 137.1037,-95.3639 111.5296,-80.6345"/>
<polygon fill="#191970" stroke="#191970" points="113.272,-77.599 102.8695,-75.5897 109.7485,-83.6476 113.272,-77.599"/>
</g>
<!-- Node7 -->
<g id="node8" class="node">
<title>Node7</title>
<polygon fill="#ffffff" stroke="#bfbfbf" points="439,-112.5 439,-131.5 491,-131.5 491,-112.5 439,-112.5"/>
<text text-anchor="middle" x="465" y="-119.5" font-family="Helvetica,sans-Serif" font-size="10.00" fill="#000000">stdarg.h</text>
</g>
<!-- Node5&#45;&gt;Node7 -->
<g id="edge7" class="edge">
<title>Node5&#45;&gt;Node7</title>
<path fill="none" stroke="#191970" d="M417.1028,-168.2455C425.5028,-160.1352 437.6494,-148.4075 447.6084,-138.7919"/>
<polygon fill="#191970" stroke="#191970" points="450.25,-141.1066 455.0129,-131.6427 445.3878,-136.0707 450.25,-141.1066"/>
</g>
<!-- Node8 -->
<g id="node9" class="node">
<title>Node8</title>
<polygon fill="#ffffff" stroke="#bfbfbf" points="509,-112.5 509,-131.5 557,-131.5 557,-112.5 509,-112.5"/>
<text text-anchor="middle" x="533" y="-119.5" font-family="Helvetica,sans-Serif" font-size="10.00" fill="#000000">stdlib.h</text>
</g>
<!-- Node5&#45;&gt;Node8 -->
<g id="edge8" class="edge">
<title>Node5&#45;&gt;Node8</title>
<path fill="none" stroke="#191970" d="M428.6602,-168.3733C448.9772,-159.3435 479.564,-145.7494 502.375,-135.6111"/>
<polygon fill="#191970" stroke="#191970" points="503.9059,-138.7609 511.6225,-131.5011 501.0628,-132.3642 503.9059,-138.7609"/>
</g>
<!-- Node9 -->
<g id="node10" class="node">
<title>Node9</title>
<polygon fill="#ffffff" stroke="#bfbfbf" points="127,-56.5 127,-75.5 191,-75.5 191,-56.5 127,-56.5"/>
<text text-anchor="middle" x="159" y="-63.5" font-family="Helvetica,sans-Serif" font-size="10.00" fill="#000000">glad/glad.h</text>
</g>
<!-- Node5&#45;&gt;Node9 -->
<g id="edge9" class="edge">
<title>Node5&#45;&gt;Node9</title>
<path fill="none" stroke="#191970" d="M369.9584,-168.4067C331.3518,-158.1476 273.6536,-142.0077 253,-132 225.0875,-118.4751 196.3913,-97.0197 178.1686,-82.2641"/>
<polygon fill="#191970" stroke="#191970" points="180.0557,-79.2839 170.1135,-75.6228 175.6027,-84.6848 180.0557,-79.2839"/>
</g>
<!-- Node10 -->
<g id="node11" class="node">
<title>Node10</title>
<polygon fill="#ffffff" stroke="#bfbfbf" points="209,-56.5 209,-75.5 289,-75.5 289,-56.5 209,-56.5"/>
<text text-anchor="middle" x="249" y="-63.5" font-family="Helvetica,sans-Serif" font-size="10.00" fill="#000000">GLFW/glfw3.h</text>
</g>
<!-- Node5&#45;&gt;Node10 -->
<g id="edge10" class="edge">
<title>Node5&#45;&gt;Node10</title>
<path fill="none" stroke="#191970" d="M369.9768,-169.8718C333.8226,-161.2311 282.2261,-146.7963 268,-132 256.1462,-119.6711 251.611,-100.438 249.9145,-85.9082"/>
<polygon fill="#191970" stroke="#191970" points="253.4001,-85.5875 249.0963,-75.9062 246.4234,-86.1582 253.4001,-85.5875"/>
</g>
<!-- Node11 -->
<g id="node12" class="node">
<title>Node11</title>
<polygon fill="#ffffff" stroke="#bfbfbf" points="575.5,-112.5 575.5,-131.5 650.5,-131.5 650.5,-112.5 575.5,-112.5"/>
<text text-anchor="middle" x="613" y="-119.5" font-family="Helvetica,sans-Serif" font-size="10.00" fill="#000000">glm/vec3.hpp</text>
</g>
<!-- Node5&#45;&gt;Node11 -->
<g id="edge11" class="edge">
<title>Node5&#45;&gt;Node11</title>
<path fill="none" stroke="#191970" d="M442.4127,-168.3733C477.2605,-158.9001 530.5882,-144.4032 568.3293,-134.1435"/>
<polygon fill="#191970" stroke="#191970" points="569.3178,-137.5019 578.0494,-131.5011 567.4815,-130.747 569.3178,-137.5019"/>
</g>
<!-- Node12 -->
<g id="node13" class="node">
<title>Node12</title>
<polygon fill="#ffffff" stroke="#bfbfbf" points="669,-112.5 669,-131.5 755,-131.5 755,-112.5 669,-112.5"/>
<text text-anchor="middle" x="712" y="-119.5" font-family="Helvetica,sans-Serif" font-size="10.00" fill="#000000">glm/mat4x4.hpp</text>
</g>
<!-- Node5&#45;&gt;Node12 -->
<g id="edge12" class="edge">
<title>Node5&#45;&gt;Node12</title>
<path fill="none" stroke="#191970" d="M444.3165,-171.3372C491.7621,-162.839 576.476,-147.576 658.8454,-132.2028"/>
<polygon fill="#191970" stroke="#191970" points="659.6895,-135.6057 668.8762,-130.3279 658.4033,-128.7249 659.6895,-135.6057"/>
</g>
<!-- Node13 -->
<g id="node14" class="node">
<title>Node13</title>
<polygon fill="#ffffff" stroke="#bfbfbf" points="773,-112.5 773,-131.5 917,-131.5 917,-112.5 773,-112.5"/>
<text text-anchor="middle" x="845" y="-119.5" font-family="Helvetica,sans-Serif" font-size="10.00" fill="#000000">glm/gtc/matrix_transform.hpp</text>
</g>
<!-- Node5&#45;&gt;Node13 -->
<g id="edge13" class="edge">
<title>Node5&#45;&gt;Node13</title>
<path fill="none" stroke="#191970" d="M444.3436,-173.2255C514.4044,-164.2679 667.0737,-144.7486 762.4171,-132.5585"/>
<polygon fill="#191970" stroke="#191970" points="763.1288,-135.9961 772.6041,-131.2561 762.241,-129.0527 763.1288,-135.9961"/>
</g>
<!-- Node14 -->
<g id="node15" class="node">
<title>Node14</title>
<g id="a_node15"><a xlink:href="_window_8h.html" target="_top" xlink:title="kryne&#45;engine/Core/Window.h">
<polygon fill="#ffffff" stroke="#000000" points="277.5,-112.5 277.5,-131.5 420.5,-131.5 420.5,-112.5 277.5,-112.5"/>
<text text-anchor="middle" x="349" y="-119.5" font-family="Helvetica,sans-Serif" font-size="10.00" fill="#000000">kryne&#45;engine/Core/Window.h</text>
</a>
</g>
</g>
<!-- Node5&#45;&gt;Node14 -->
<g id="edge14" class="edge">
<title>Node5&#45;&gt;Node14</title>
<path fill="none" stroke="#191970" d="M391.6303,-168.2455C381.8616,-160.2958 369.6848,-148.8706 360.6885,-139.3656"/>
<polygon fill="#191970" stroke="#191970" points="363.0317,-136.7369 353.7419,-131.6427 357.8273,-141.4182 363.0317,-136.7369"/>
</g>
<!-- Node14&#45;&gt;Node5 -->
<g id="edge26" class="edge">
<title>Node14&#45;&gt;Node5</title>
<path fill="none" stroke="#191970" d="M364.2322,-131.6427C374.0766,-139.6396 386.4048,-151.2085 395.457,-160.7884"/>
<polygon fill="#191970" stroke="#191970" points="392.8745,-163.1509 402.164,-168.2455 398.0791,-158.4698 392.8745,-163.1509"/>
</g>
<!-- Node14&#45;&gt;Node6 -->
<g id="edge15" class="edge">
<title>Node14&#45;&gt;Node6</title>
<path fill="none" stroke="#191970" d="M291.6243,-112.4759C246.9227,-104.6236 183.1689,-92.4827 119.1237,-76.0803"/>
<polygon fill="#191970" stroke="#191970" points="119.8192,-72.6449 109.2607,-73.5205 118.0607,-79.4204 119.8192,-72.6449"/>
</g>
<!-- Node14&#45;&gt;Node9 -->
<g id="edge20" class="edge">
<title>Node14&#45;&gt;Node9</title>
<path fill="none" stroke="#191970" d="M316.3378,-112.3733C284.4702,-102.9807 235.8469,-88.6496 201.093,-78.4064"/>
<polygon fill="#191970" stroke="#191970" points="201.8175,-74.9711 191.236,-75.5011 199.8385,-81.6855 201.8175,-74.9711"/>
</g>
<!-- Node14&#45;&gt;Node10 -->
<g id="edge21" class="edge">
<title>Node14&#45;&gt;Node10</title>
<path fill="none" stroke="#191970" d="M331.5813,-112.2455C315.9515,-103.4928 292.7981,-90.527 274.9815,-80.5496"/>
<polygon fill="#191970" stroke="#191970" points="276.6543,-77.475 266.2191,-75.6427 273.234,-83.5825 276.6543,-77.475"/>
</g>
<!-- Node15 -->
<g id="node16" class="node">
<title>Node15</title>
<polygon fill="#ffffff" stroke="#bfbfbf" points="443,-56.5 443,-75.5 521,-75.5 521,-56.5 443,-56.5"/>
<text text-anchor="middle" x="482" y="-63.5" font-family="Helvetica,sans-Serif" font-size="10.00" fill="#000000">unordered_set</text>
</g>
<!-- Node14&#45;&gt;Node15 -->
<g id="edge16" class="edge">
<title>Node14&#45;&gt;Node15</title>
<path fill="none" stroke="#191970" d="M371.8635,-112.3733C393.405,-103.3032 425.8838,-89.6279 449.9956,-79.4755"/>
<polygon fill="#191970" stroke="#191970" points="451.5767,-82.6075 459.4348,-75.5011 448.8603,-76.156 451.5767,-82.6075"/>
</g>
<!-- Node16 -->
<g id="node17" class="node">
<title>Node16</title>
<polygon fill="#ffffff" stroke="#bfbfbf" points="539.5,-56.5 539.5,-75.5 588.5,-75.5 588.5,-56.5 539.5,-56.5"/>
<text text-anchor="middle" x="564" y="-63.5" font-family="Helvetica,sans-Serif" font-size="10.00" fill="#000000">cstdarg</text>
</g>
<!-- Node14&#45;&gt;Node16 -->
<g id="edge17" class="edge">
<title>Node14&#45;&gt;Node16</title>
<path fill="none" stroke="#191970" d="M388.302,-112.4587C422.9593,-103.9452 475.0567,-90.9065 529.3483,-76.109"/>
<polygon fill="#191970" stroke="#191970" points="530.4276,-79.4424 539.148,-73.4252 528.5786,-72.691 530.4276,-79.4424"/>
</g>
<!-- Node17 -->
<g id="node18" class="node">
<title>Node17</title>
<polygon fill="#ffffff" stroke="#bfbfbf" points="606.5,-56.5 606.5,-75.5 651.5,-75.5 651.5,-56.5 606.5,-56.5"/>
<text text-anchor="middle" x="629" y="-63.5" font-family="Helvetica,sans-Serif" font-size="10.00" fill="#000000">cstdlib</text>
</g>
<!-- Node14&#45;&gt;Node17 -->
<g id="edge18" class="edge">
<title>Node14&#45;&gt;Node17</title>
<path fill="none" stroke="#191970" d="M413.2032,-112.4825C461.4097,-104.8008 529.1658,-92.8716 596.4845,-76.1601"/>
<polygon fill="#191970" stroke="#191970" points="597.569,-79.4964 606.4112,-73.6598 595.8592,-72.7084 597.569,-79.4964"/>
</g>
<!-- Node18 -->
<g id="node19" class="node">
<title>Node18</title>
<polygon fill="#ffffff" stroke="#bfbfbf" points="670,-56.5 670,-75.5 724,-75.5 724,-56.5 670,-56.5"/>
<text text-anchor="middle" x="697" y="-63.5" font-family="Helvetica,sans-Serif" font-size="10.00" fill="#000000">iostream</text>
</g>
<!-- Node14&#45;&gt;Node18 -->
<g id="edge19" class="edge">
<title>Node14&#45;&gt;Node18</title>
<path fill="none" stroke="#191970" d="M420.7377,-112.4791C493.6588,-102.6241 602.754,-87.3504 659.9141,-75.9759"/>
<polygon fill="#191970" stroke="#191970" points="660.8775,-79.3509 669.9623,-73.8996 659.4609,-72.4957 660.8775,-79.3509"/>
</g>
<!-- Node19 -->
<g id="node20" class="node">
<title>Node19</title>
<g id="a_node20"><a xlink:href="_additional_parameters_8h.html" target="_top" xlink:title="AdditionalParameters.h">
<polygon fill="#ffffff" stroke="#000000" points="307,-56.5 307,-75.5 425,-75.5 425,-56.5 307,-56.5"/>
<text text-anchor="middle" x="366" y="-63.5" font-family="Helvetica,sans-Serif" font-size="10.00" fill="#000000">AdditionalParameters.h</text>
</a>
</g>
</g>
<!-- Node14&#45;&gt;Node19 -->
<g id="edge22" class="edge">
<title>Node14&#45;&gt;Node19</title>
<path fill="none" stroke="#191970" d="M351.9612,-112.2455C354.2038,-104.8579 357.3577,-94.4689 360.1081,-85.4087"/>
<polygon fill="#191970" stroke="#191970" points="363.517,-86.2282 363.0728,-75.6427 356.8188,-84.1948 363.517,-86.2282"/>
</g>
<!-- Node20 -->
<g id="node21" class="node">
<title>Node20</title>
<polygon fill="#ffffff" stroke="#bfbfbf" points="292.5,-.5 292.5,-19.5 327.5,-19.5 327.5,-.5 292.5,-.5"/>
<text text-anchor="middle" x="310" y="-7.5" font-family="Helvetica,sans-Serif" font-size="10.00" fill="#000000">map</text>
</g>
<!-- Node19&#45;&gt;Node20 -->
<g id="edge23" class="edge">
<title>Node19&#45;&gt;Node20</title>
<path fill="none" stroke="#191970" d="M356.2455,-56.2455C348.1352,-48.1352 336.4075,-36.4075 326.7919,-26.7919"/>
<polygon fill="#191970" stroke="#191970" points="329.1887,-24.2389 319.6427,-19.6427 324.2389,-29.1887 329.1887,-24.2389"/>
</g>
<!-- Node21 -->
<g id="node22" class="node">
<title>Node21</title>
<polygon fill="#ffffff" stroke="#bfbfbf" points="345.5,-.5 345.5,-19.5 386.5,-19.5 386.5,-.5 345.5,-.5"/>
<text text-anchor="middle" x="366" y="-7.5" font-family="Helvetica,sans-Serif" font-size="10.00" fill="#000000">string</text>
</g>
<!-- Node19&#45;&gt;Node21 -->
<g id="edge24" class="edge">
<title>Node19&#45;&gt;Node21</title>
<path fill="none" stroke="#191970" d="M366,-56.2455C366,-48.9382 366,-38.6944 366,-29.7046"/>
<polygon fill="#191970" stroke="#191970" points="369.5001,-29.6426 366,-19.6427 362.5001,-29.6427 369.5001,-29.6426"/>
</g>
<!-- Node22 -->
<g id="node23" class="node">
<title>Node22</title>
<polygon fill="#ffffff" stroke="#bfbfbf" points="405,-.5 405,-19.5 437,-19.5 437,-.5 405,-.5"/>
<text text-anchor="middle" x="421" y="-7.5" font-family="Helvetica,sans-Serif" font-size="10.00" fill="#000000">any</text>
</g>
<!-- Node19&#45;&gt;Node22 -->
<g id="edge25" class="edge">
<title>Node19&#45;&gt;Node22</title>
<path fill="none" stroke="#191970" d="M375.5803,-56.2455C383.5458,-48.1352 395.0641,-36.4075 404.5079,-26.7919"/>
<polygon fill="#191970" stroke="#191970" points="407.0195,-29.2297 411.5295,-19.6427 402.0253,-24.3247 407.0195,-29.2297"/>
</g>
</g>
</svg>
