<?xml version="1.0" encoding="UTF-8" standalone="no"?>
<!DOCTYPE svg PUBLIC "-//W3C//DTD SVG 1.1//EN"
 "http://www.w3.org/Graphics/SVG/1.1/DTD/svg11.dtd">
<!-- Generated by graphviz version 2.44.1 (20200629.0846)
 -->
<!-- Title: kryne&#45;engine/src/Systems/GameLogicComponentsRunner.cpp Pages: 1 -->
<svg width="2235pt" height="889pt"
 viewBox="0.00 0.00 2235.00 889.00" xmlns="http://www.w3.org/2000/svg" xmlns:xlink="http://www.w3.org/1999/xlink">
<g id="graph0" class="graph" transform="scale(1 1) rotate(0) translate(4 885)">
<title>kryne&#45;engine/src/Systems/GameLogicComponentsRunner.cpp</title>
<polygon fill="white" stroke="transparent" points="-4,4 -4,-885 2231,-885 2231,4 -4,4"/>
<!-- Node1 -->
<g id="node1" class="node">
<title>Node1</title>
<g id="a_node1"><a xlink:title=" ">
<polygon fill="#bfbfbf" stroke="black" points="1411.5,-850.5 1411.5,-880.5 1584.5,-880.5 1584.5,-850.5 1411.5,-850.5"/>
<text text-anchor="start" x="1419.5" y="-868.5" font-family="Helvetica,sans-Serif" font-size="10.00">kryne&#45;engine/src/Systems</text>
<text text-anchor="middle" x="1498" y="-857.5" font-family="Helvetica,sans-Serif" font-size="10.00">/GameLogicComponentsRunner.cpp</text>
</a>
</g>
</g>
<!-- Node2 -->
<g id="node2" class="node">
<title>Node2</title>
<g id="a_node2"><a xlink:href="_game_logic_components_runner_8h.html" target="_top" xlink:title=" ">
<polygon fill="white" stroke="black" points="1416.5,-783.5 1416.5,-813.5 1579.5,-813.5 1579.5,-783.5 1416.5,-783.5"/>
<text text-anchor="start" x="1424.5" y="-801.5" font-family="Helvetica,sans-Serif" font-size="10.00">kryne&#45;engine/Systems</text>
<text text-anchor="middle" x="1498" y="-790.5" font-family="Helvetica,sans-Serif" font-size="10.00">/GameLogicComponentsRunner.h</text>
</a>
</g>
</g>
<!-- Node1&#45;&gt;Node2 -->
<g id="edge1" class="edge">
<title>Node1&#45;&gt;Node2</title>
<path fill="none" stroke="midnightblue" d="M1498,-850.4C1498,-842.64 1498,-832.81 1498,-823.86"/>
<polygon fill="midnightblue" stroke="midnightblue" points="1501.5,-823.58 1498,-813.58 1494.5,-823.58 1501.5,-823.58"/>
</g>
<!-- Node3 -->
<g id="node3" class="node">
<title>Node3</title>
<g id="a_node3"><a xlink:href="_system_8h.html" target="_top" xlink:title=" ">
<polygon fill="white" stroke="black" points="1348,-727.5 1348,-746.5 1488,-746.5 1488,-727.5 1348,-727.5"/>
<text text-anchor="middle" x="1418" y="-734.5" font-family="Helvetica,sans-Serif" font-size="10.00">kryne&#45;engine/Core/System.h</text>
</a>
</g>
</g>
<!-- Node2&#45;&gt;Node3 -->
<g id="edge2" class="edge">
<title>Node2&#45;&gt;Node3</title>
<path fill="none" stroke="midnightblue" d="M1479.04,-783.4C1466.58,-774.13 1450.3,-762.03 1437.69,-752.65"/>
<polygon fill="midnightblue" stroke="midnightblue" points="1439.75,-749.82 1429.64,-746.66 1435.58,-755.43 1439.75,-749.82"/>
</g>
<!-- Node74 -->
<g id="node50" class="node">
<title>Node74</title>
<g id="a_node50"><a xlink:href="_logic_component_8h.html" target="_top" xlink:title=" ">
<polygon fill="white" stroke="black" points="1210.5,-604.5 1210.5,-623.5 1389.5,-623.5 1389.5,-604.5 1210.5,-604.5"/>
<text text-anchor="middle" x="1300" y="-611.5" font-family="Helvetica,sans-Serif" font-size="10.00">kryne&#45;engine/Core/LogicComponent.h</text>
</a>
</g>
</g>
<!-- Node2&#45;&gt;Node74 -->
<g id="edge79" class="edge">
<title>Node2&#45;&gt;Node74</title>
<path fill="none" stroke="midnightblue" d="M1513.58,-783.21C1540.83,-756.53 1591.28,-698.37 1559,-660 1538.57,-635.72 1463.91,-624.54 1399.97,-619.39"/>
<polygon fill="midnightblue" stroke="midnightblue" points="1400.05,-615.89 1389.81,-618.61 1399.51,-622.87 1400.05,-615.89"/>
</g>
<!-- Node4 -->
<g id="node4" class="node">
<title>Node4</title>
<g id="a_node4"><a xlink:href="_system_types_8h.html" target="_top" xlink:title=" ">
<polygon fill="white" stroke="black" points="1446,-660.5 1446,-690.5 1550,-690.5 1550,-660.5 1446,-660.5"/>
<text text-anchor="start" x="1454" y="-678.5" font-family="Helvetica,sans-Serif" font-size="10.00">kryne&#45;engine/enums</text>
<text text-anchor="middle" x="1498" y="-667.5" font-family="Helvetica,sans-Serif" font-size="10.00">/SystemTypes.h</text>
</a>
</g>
</g>
<!-- Node3&#45;&gt;Node4 -->
<g id="edge3" class="edge">
<title>Node3&#45;&gt;Node4</title>
<path fill="none" stroke="midnightblue" d="M1429.46,-727.48C1440.2,-719.49 1456.65,-707.25 1470.75,-696.77"/>
<polygon fill="midnightblue" stroke="midnightblue" points="1473.21,-699.3 1479.15,-690.52 1469.03,-693.68 1473.21,-699.3"/>
</g>
<!-- Node5 -->
<g id="node5" class="node">
<title>Node5</title>
<g id="a_node5"><a xlink:href="_process_8h.html" target="_top" xlink:title=" ">
<polygon fill="white" stroke="black" points="1054.5,-666 1054.5,-685 1115.5,-685 1115.5,-666 1054.5,-666"/>
<text text-anchor="middle" x="1085" y="-673" font-family="Helvetica,sans-Serif" font-size="10.00">Process.h</text>
</a>
</g>
</g>
<!-- Node3&#45;&gt;Node5 -->
<g id="edge4" class="edge">
<title>Node3&#45;&gt;Node5</title>
<path fill="none" stroke="midnightblue" d="M1365.39,-727.48C1298.8,-716.02 1185.74,-695.82 1125.48,-684.59"/>
<polygon fill="midnightblue" stroke="midnightblue" points="1126.04,-681.14 1115.57,-682.74 1124.75,-688.02 1126.04,-681.14"/>
</g>
<!-- Node9 -->
<g id="node9" class="node">
<title>Node9</title>
<g id="a_node9"><a xlink:href="_entity_8h.html" target="_top" xlink:title=" ">
<polygon fill="white" stroke="black" points="1275,-353 1275,-372 1325,-372 1325,-353 1275,-353"/>
<text text-anchor="middle" x="1300" y="-360" font-family="Helvetica,sans-Serif" font-size="10.00">Entity.h</text>
</a>
</g>
</g>
<!-- Node3&#45;&gt;Node9 -->
<g id="edge78" class="edge">
<title>Node3&#45;&gt;Node9</title>
<path fill="none" stroke="midnightblue" d="M1418,-727.49C1418,-707.74 1418,-657.22 1418,-615 1418,-615 1418,-615 1418,-484.5 1418,-433.27 1363.12,-395.64 1328.21,-376.89"/>
<polygon fill="midnightblue" stroke="midnightblue" points="1329.45,-373.59 1318.96,-372.1 1326.23,-379.8 1329.45,-373.59"/>
</g>
<!-- Node5&#45;&gt;Node3 -->
<g id="edge34" class="edge">
<title>Node5&#45;&gt;Node3</title>
<path fill="none" stroke="midnightblue" d="M1115.64,-681.28C1172.55,-690.86 1294.75,-712.61 1365.19,-725.62"/>
<polygon fill="midnightblue" stroke="midnightblue" points="1364.72,-729.09 1375.19,-727.48 1365.99,-722.21 1364.72,-729.09"/>
</g>
<!-- Node6 -->
<g id="node6" class="node">
<title>Node6</title>
<g id="a_node6"><a xlink:title=" ">
<polygon fill="white" stroke="#bfbfbf" points="908,-56.5 908,-75.5 960,-75.5 960,-56.5 908,-56.5"/>
<text text-anchor="middle" x="934" y="-63.5" font-family="Helvetica,sans-Serif" font-size="10.00">memory</text>
</a>
</g>
</g>
<!-- Node5&#45;&gt;Node6 -->
<g id="edge5" class="edge">
<title>Node5&#45;&gt;Node6</title>
<path fill="none" stroke="midnightblue" d="M1090.19,-665.74C1101.23,-646.27 1126,-597.64 1126,-553.5 1126,-553.5 1126,-553.5 1126,-484.5 1126,-393.37 1160.41,-356.58 1111,-280 1092.89,-251.92 1069.33,-266.9 1045,-244 1018.46,-219.02 965.18,-124.18 943.5,-84.56"/>
<polygon fill="midnightblue" stroke="midnightblue" points="946.56,-82.86 938.71,-75.75 940.42,-86.21 946.56,-82.86"/>
</g>
<!-- Node7 -->
<g id="node7" class="node">
<title>Node7</title>
<g id="a_node7"><a xlink:title=" ">
<polygon fill="white" stroke="#bfbfbf" points="762.5,-286 762.5,-305 845.5,-305 845.5,-286 762.5,-286"/>
<text text-anchor="middle" x="804" y="-293" font-family="Helvetica,sans-Serif" font-size="10.00">unordered_map</text>
</a>
</g>
</g>
<!-- Node5&#45;&gt;Node7 -->
<g id="edge6" class="edge">
<title>Node5&#45;&gt;Node7</title>
<path fill="none" stroke="midnightblue" d="M1065.08,-665.83C1000.83,-636.61 798.95,-534.7 725,-378 719.12,-365.54 718.38,-359.08 725,-347 734.48,-329.69 752.69,-317.46 769.24,-309.36"/>
<polygon fill="midnightblue" stroke="midnightblue" points="771.05,-312.39 778.72,-305.07 768.16,-306.01 771.05,-312.39"/>
</g>
<!-- Node8 -->
<g id="node8" class="node">
<title>Node8</title>
<g id="a_node8"><a xlink:title=" ">
<polygon fill="white" stroke="#bfbfbf" points="241,-56.5 241,-75.5 295,-75.5 295,-56.5 241,-56.5"/>
<text text-anchor="middle" x="268" y="-63.5" font-family="Helvetica,sans-Serif" font-size="10.00">iostream</text>
</a>
</g>
</g>
<!-- Node5&#45;&gt;Node8 -->
<g id="edge7" class="edge">
<title>Node5&#45;&gt;Node8</title>
<path fill="none" stroke="midnightblue" d="M1054.28,-674.39C877.71,-673.33 0,-662.6 0,-553.5 0,-553.5 0,-553.5 0,-177 0,-78.49 156.88,-66.33 230.59,-66.05"/>
<polygon fill="midnightblue" stroke="midnightblue" points="230.82,-69.55 240.83,-66.09 230.84,-62.55 230.82,-69.55"/>
</g>
<!-- Node5&#45;&gt;Node9 -->
<g id="edge8" class="edge">
<title>Node5&#45;&gt;Node9</title>
<path fill="none" stroke="midnightblue" d="M1092.59,-665.79C1112.94,-647.84 1164,-604.15 1164,-553.5 1164,-553.5 1164,-553.5 1164,-484.5 1164,-430.37 1225.23,-393.07 1265.67,-375.33"/>
<polygon fill="midnightblue" stroke="midnightblue" points="1267.08,-378.53 1274.95,-371.44 1264.38,-372.08 1267.08,-378.53"/>
</g>
<!-- Node26 -->
<g id="node26" class="node">
<title>Node26</title>
<g id="a_node26"><a xlink:href="_dispatcher_8h.html" target="_top" xlink:title=" ">
<polygon fill="white" stroke="black" points="462.5,-280.5 462.5,-310.5 575.5,-310.5 575.5,-280.5 462.5,-280.5"/>
<text text-anchor="start" x="470.5" y="-298.5" font-family="Helvetica,sans-Serif" font-size="10.00">kryne&#45;engine/Dispatch</text>
<text text-anchor="middle" x="519" y="-287.5" font-family="Helvetica,sans-Serif" font-size="10.00">/Dispatcher.h</text>
</a>
</g>
</g>
<!-- Node5&#45;&gt;Node26 -->
<g id="edge35" class="edge">
<title>Node5&#45;&gt;Node26</title>
<path fill="none" stroke="midnightblue" d="M1054.46,-674.01C943.76,-671.93 568.19,-662.09 532,-624 451.78,-539.54 491.54,-380.74 510.7,-320.5"/>
<polygon fill="midnightblue" stroke="midnightblue" points="514.1,-321.35 513.89,-310.75 507.45,-319.16 514.1,-321.35"/>
</g>
<!-- Node37 -->
<g id="node36" class="node">
<title>Node37</title>
<g id="a_node36"><a xlink:href="_graphic_context_8h.html" target="_top" xlink:title=" ">
<polygon fill="white" stroke="black" points="541.5,-604.5 541.5,-623.5 704.5,-623.5 704.5,-604.5 541.5,-604.5"/>
<text text-anchor="middle" x="623" y="-611.5" font-family="Helvetica,sans-Serif" font-size="10.00">GraphicContext/GraphicContext.h</text>
</a>
</g>
</g>
<!-- Node5&#45;&gt;Node37 -->
<g id="edge50" class="edge">
<title>Node5&#45;&gt;Node37</title>
<path fill="none" stroke="midnightblue" d="M1054.33,-670.55C982.75,-661.33 802.92,-638.17 699.47,-624.85"/>
<polygon fill="midnightblue" stroke="midnightblue" points="699.76,-621.36 689.39,-623.55 698.86,-628.3 699.76,-621.36"/>
</g>
<!-- Node45 -->
<g id="node44" class="node">
<title>Node45</title>
<g id="a_node44"><a xlink:href="_render_mesh_8h.html" target="_top" xlink:title=" ">
<polygon fill="white" stroke="black" points="928.5,-470.5 928.5,-500.5 1047.5,-500.5 1047.5,-470.5 928.5,-470.5"/>
<text text-anchor="start" x="936.5" y="-488.5" font-family="Helvetica,sans-Serif" font-size="10.00">kryne&#45;engine/Rendering</text>
<text text-anchor="middle" x="988" y="-477.5" font-family="Helvetica,sans-Serif" font-size="10.00">/RenderMesh.h</text>
</a>
</g>
</g>
<!-- Node5&#45;&gt;Node45 -->
<g id="edge77" class="edge">
<title>Node5&#45;&gt;Node45</title>
<path fill="none" stroke="midnightblue" d="M1080.58,-665.93C1066.38,-638.41 1021.59,-551.59 999.94,-509.64"/>
<polygon fill="midnightblue" stroke="midnightblue" points="1003.02,-507.99 995.33,-500.7 996.8,-511.2 1003.02,-507.99"/>
</g>
<!-- Node9&#45;&gt;Node5 -->
<g id="edge33" class="edge">
<title>Node9&#45;&gt;Node5</title>
<path fill="none" stroke="midnightblue" d="M1284.09,-372.07C1251.59,-388.22 1182,-426.79 1182,-484.5 1182,-553.5 1182,-553.5 1182,-553.5 1182,-599.4 1140.07,-639.59 1111.13,-660.08"/>
<polygon fill="midnightblue" stroke="midnightblue" points="1108.98,-657.31 1102.63,-665.79 1112.88,-663.12 1108.98,-657.31"/>
</g>
<!-- Node10 -->
<g id="node10" class="node">
<title>Node10</title>
<g id="a_node10"><a xlink:title=" ">
<polygon fill="white" stroke="#bfbfbf" points="1277,-286 1277,-305 1323,-305 1323,-286 1277,-286"/>
<text text-anchor="middle" x="1300" y="-293" font-family="Helvetica,sans-Serif" font-size="10.00">atomic</text>
</a>
</g>
</g>
<!-- Node9&#45;&gt;Node10 -->
<g id="edge9" class="edge">
<title>Node9&#45;&gt;Node10</title>
<path fill="none" stroke="midnightblue" d="M1300,-352.73C1300,-343.18 1300,-327.62 1300,-315.28"/>
<polygon fill="midnightblue" stroke="midnightblue" points="1303.5,-315.13 1300,-305.13 1296.5,-315.13 1303.5,-315.13"/>
</g>
<!-- Node11 -->
<g id="node11" class="node">
<title>Node11</title>
<g id="a_node11"><a xlink:title=" ">
<polygon fill="white" stroke="#bfbfbf" points="2185,-224.5 2185,-243.5 2227,-243.5 2227,-224.5 2185,-224.5"/>
<text text-anchor="middle" x="2206" y="-231.5" font-family="Helvetica,sans-Serif" font-size="10.00">vector</text>
</a>
</g>
</g>
<!-- Node9&#45;&gt;Node11 -->
<g id="edge10" class="edge">
<title>Node9&#45;&gt;Node11</title>
<path fill="none" stroke="midnightblue" d="M1325.12,-359.2C1429.54,-349.43 1839.29,-308.79 2171,-244 2172.28,-243.75 2173.59,-243.48 2174.9,-243.2"/>
<polygon fill="midnightblue" stroke="midnightblue" points="2176.06,-246.52 2184.99,-240.83 2174.46,-239.71 2176.06,-246.52"/>
</g>
<!-- Node12 -->
<g id="node12" class="node">
<title>Node12</title>
<g id="a_node12"><a xlink:title=" ">
<polygon fill="white" stroke="#bfbfbf" points="1042,-168.5 1042,-187.5 1120,-187.5 1120,-168.5 1042,-168.5"/>
<text text-anchor="middle" x="1081" y="-175.5" font-family="Helvetica,sans-Serif" font-size="10.00">unordered_set</text>
</a>
</g>
</g>
<!-- Node9&#45;&gt;Node12 -->
<g id="edge11" class="edge">
<title>Node9&#45;&gt;Node12</title>
<path fill="none" stroke="midnightblue" d="M1289.73,-352.94C1255.24,-324.2 1143.27,-230.89 1099.13,-194.11"/>
<polygon fill="midnightblue" stroke="midnightblue" points="1101.17,-191.25 1091.25,-187.54 1096.69,-196.63 1101.17,-191.25"/>
</g>
<!-- Node13 -->
<g id="node13" class="node">
<title>Node13</title>
<g id="a_node13"><a xlink:href="_transform_8h.html" target="_top" xlink:title=" ">
<polygon fill="white" stroke="black" points="1438.5,-280.5 1438.5,-310.5 1559.5,-310.5 1559.5,-280.5 1438.5,-280.5"/>
<text text-anchor="start" x="1446.5" y="-298.5" font-family="Helvetica,sans-Serif" font-size="10.00">kryne&#45;engine/3DObjects</text>
<text text-anchor="middle" x="1499" y="-287.5" font-family="Helvetica,sans-Serif" font-size="10.00">/Transform.h</text>
</a>
</g>
</g>
<!-- Node9&#45;&gt;Node13 -->
<g id="edge12" class="edge">
<title>Node9&#45;&gt;Node13</title>
<path fill="none" stroke="midnightblue" d="M1321.67,-352.87C1350.11,-342.88 1400.77,-326.2 1440.74,-313.56"/>
<polygon fill="midnightblue" stroke="midnightblue" points="1441.9,-316.87 1450.38,-310.53 1439.79,-310.19 1441.9,-316.87"/>
</g>
<!-- Node25 -->
<g id="node25" class="node">
<title>Node25</title>
<g id="a_node25"><a xlink:href="_component_8h.html" target="_top" xlink:title=" ">
<polygon fill="white" stroke="black" points="1263,-414.5 1263,-433.5 1337,-433.5 1337,-414.5 1263,-414.5"/>
<text text-anchor="middle" x="1300" y="-421.5" font-family="Helvetica,sans-Serif" font-size="10.00">Component.h</text>
</a>
</g>
</g>
<!-- Node9&#45;&gt;Node25 -->
<g id="edge30" class="edge">
<title>Node9&#45;&gt;Node25</title>
<path fill="none" stroke="midnightblue" d="M1304.9,-372.01C1306.73,-380.4 1307.2,-393.5 1306.32,-404.32"/>
<polygon fill="midnightblue" stroke="midnightblue" points="1302.81,-404.09 1304.9,-414.48 1309.75,-405.05 1302.81,-404.09"/>
</g>
<!-- Node13&#45;&gt;Node6 -->
<g id="edge13" class="edge">
<title>Node13&#45;&gt;Node6</title>
<path fill="none" stroke="midnightblue" d="M1559.7,-290.48C1710.53,-280.35 2090.91,-253.88 2100,-244 2106.02,-237.46 2102.61,-232.5 2100,-224 2091.17,-195.25 2087.92,-183.26 2062,-168 1965.8,-111.38 1152.58,-75.73 970.2,-68.41"/>
<polygon fill="midnightblue" stroke="midnightblue" points="970.19,-64.9 960.06,-68 969.92,-71.9 970.19,-64.9"/>
</g>
<!-- Node13&#45;&gt;Node9 -->
<g id="edge29" class="edge">
<title>Node13&#45;&gt;Node9</title>
<path fill="none" stroke="midnightblue" d="M1461.79,-310.5C1425.48,-322.9 1370.84,-340.67 1335.22,-351.63"/>
<polygon fill="midnightblue" stroke="midnightblue" points="1333.81,-348.4 1325.26,-354.67 1335.85,-355.1 1333.81,-348.4"/>
</g>
<!-- Node13&#45;&gt;Node11 -->
<g id="edge14" class="edge">
<title>Node13&#45;&gt;Node11</title>
<path fill="none" stroke="midnightblue" d="M1559.66,-293.52C1678,-290.83 1947.63,-280.82 2171,-244 2172.25,-243.79 2173.53,-243.56 2174.81,-243.31"/>
<polygon fill="midnightblue" stroke="midnightblue" points="2175.65,-246.71 2184.66,-241.13 2174.13,-239.88 2175.65,-246.71"/>
</g>
<!-- Node14 -->
<g id="node14" class="node">
<title>Node14</title>
<g id="a_node14"><a xlink:title=" ">
<polygon fill="white" stroke="#bfbfbf" points="1430.5,-0.5 1430.5,-19.5 1473.5,-19.5 1473.5,-0.5 1430.5,-0.5"/>
<text text-anchor="middle" x="1452" y="-7.5" font-family="Helvetica,sans-Serif" font-size="10.00">queue</text>
</a>
</g>
</g>
<!-- Node13&#45;&gt;Node14 -->
<g id="edge15" class="edge">
<title>Node13&#45;&gt;Node14</title>
<path fill="none" stroke="midnightblue" d="M1559.52,-290.98C1710.13,-282.04 2091.39,-258.13 2115,-244 2144.51,-226.33 2157,-213.39 2157,-179 2157,-179 2157,-179 2157,-121 2157,-51.95 1622.23,-19.74 1484.2,-12.57"/>
<polygon fill="midnightblue" stroke="midnightblue" points="1484.04,-9.06 1473.87,-12.05 1483.68,-16.05 1484.04,-9.06"/>
</g>
<!-- Node15 -->
<g id="node15" class="node">
<title>Node15</title>
<g id="a_node15"><a xlink:title=" ">
<polygon fill="white" stroke="#bfbfbf" points="1202,-224.5 1202,-243.5 1272,-243.5 1272,-224.5 1202,-224.5"/>
<text text-anchor="middle" x="1237" y="-231.5" font-family="Helvetica,sans-Serif" font-size="10.00">glm/glm.hpp</text>
</a>
</g>
</g>
<!-- Node13&#45;&gt;Node15 -->
<g id="edge16" class="edge">
<title>Node13&#45;&gt;Node15</title>
<path fill="none" stroke="midnightblue" d="M1438.23,-280.7C1390.51,-269.86 1325.13,-255.02 1282.02,-245.22"/>
<polygon fill="midnightblue" stroke="midnightblue" points="1282.62,-241.77 1272.1,-242.97 1281.07,-248.6 1282.62,-241.77"/>
</g>
<!-- Node16 -->
<g id="node16" class="node">
<title>Node16</title>
<g id="a_node16"><a xlink:title=" ">
<polygon fill="white" stroke="#bfbfbf" points="1290,-224.5 1290,-243.5 1382,-243.5 1382,-224.5 1290,-224.5"/>
<text text-anchor="middle" x="1336" y="-231.5" font-family="Helvetica,sans-Serif" font-size="10.00">glm/common.hpp</text>
</a>
</g>
</g>
<!-- Node13&#45;&gt;Node16 -->
<g id="edge17" class="edge">
<title>Node13&#45;&gt;Node16</title>
<path fill="none" stroke="midnightblue" d="M1460.37,-280.4C1432.66,-270.28 1395.69,-256.79 1369.28,-247.15"/>
<polygon fill="midnightblue" stroke="midnightblue" points="1370.31,-243.8 1359.72,-243.66 1367.91,-250.37 1370.31,-243.8"/>
</g>
<!-- Node17 -->
<g id="node17" class="node">
<title>Node17</title>
<g id="a_node17"><a xlink:title=" ">
<polygon fill="white" stroke="#bfbfbf" points="1400.5,-224.5 1400.5,-243.5 1481.5,-243.5 1481.5,-224.5 1400.5,-224.5"/>
<text text-anchor="middle" x="1441" y="-231.5" font-family="Helvetica,sans-Serif" font-size="10.00">glm/matrix.hpp</text>
</a>
</g>
</g>
<!-- Node13&#45;&gt;Node17 -->
<g id="edge18" class="edge">
<title>Node13&#45;&gt;Node17</title>
<path fill="none" stroke="midnightblue" d="M1485.25,-280.4C1476.65,-271.58 1465.55,-260.18 1456.61,-251.02"/>
<polygon fill="midnightblue" stroke="midnightblue" points="1458.93,-248.38 1449.44,-243.66 1453.91,-253.26 1458.93,-248.38"/>
</g>
<!-- Node18 -->
<g id="node18" class="node">
<title>Node18</title>
<g id="a_node18"><a xlink:title=" ">
<polygon fill="white" stroke="#bfbfbf" points="1138,-168.5 1138,-187.5 1212,-187.5 1212,-168.5 1138,-168.5"/>
<text text-anchor="middle" x="1175" y="-175.5" font-family="Helvetica,sans-Serif" font-size="10.00">glm/vec3.hpp</text>
</a>
</g>
</g>
<!-- Node13&#45;&gt;Node18 -->
<g id="edge19" class="edge">
<title>Node13&#45;&gt;Node18</title>
<path fill="none" stroke="midnightblue" d="M1438.17,-287.99C1354.18,-278.48 1210.97,-260.15 1193,-244 1180.09,-232.4 1176.1,-212.44 1175.02,-197.69"/>
<polygon fill="midnightblue" stroke="midnightblue" points="1178.52,-197.53 1174.67,-187.66 1171.52,-197.77 1178.52,-197.53"/>
</g>
<!-- Node19 -->
<g id="node19" class="node">
<title>Node19</title>
<g id="a_node19"><a xlink:title=" ">
<polygon fill="white" stroke="#bfbfbf" points="1500,-224.5 1500,-243.5 1616,-243.5 1616,-224.5 1500,-224.5"/>
<text text-anchor="middle" x="1558" y="-231.5" font-family="Helvetica,sans-Serif" font-size="10.00">glm/gtc/quaternion.hpp</text>
</a>
</g>
</g>
<!-- Node13&#45;&gt;Node19 -->
<g id="edge20" class="edge">
<title>Node13&#45;&gt;Node19</title>
<path fill="none" stroke="midnightblue" d="M1512.98,-280.4C1521.73,-271.58 1533.03,-260.18 1542.12,-251.02"/>
<polygon fill="midnightblue" stroke="midnightblue" points="1544.86,-253.22 1549.41,-243.66 1539.89,-248.29 1544.86,-253.22"/>
</g>
<!-- Node20 -->
<g id="node20" class="node">
<title>Node20</title>
<g id="a_node20"><a xlink:title=" ">
<polygon fill="white" stroke="#bfbfbf" points="1634,-224.5 1634,-243.5 1750,-243.5 1750,-224.5 1634,-224.5"/>
<text text-anchor="middle" x="1692" y="-231.5" font-family="Helvetica,sans-Serif" font-size="10.00">glm/gtx/quaternion.hpp</text>
</a>
</g>
</g>
<!-- Node13&#45;&gt;Node20 -->
<g id="edge21" class="edge">
<title>Node13&#45;&gt;Node20</title>
<path fill="none" stroke="midnightblue" d="M1544.74,-280.4C1578.23,-270.07 1623.13,-256.23 1654.52,-246.56"/>
<polygon fill="midnightblue" stroke="midnightblue" points="1655.67,-249.86 1664.2,-243.57 1653.61,-243.17 1655.67,-249.86"/>
</g>
<!-- Node21 -->
<g id="node21" class="node">
<title>Node21</title>
<g id="a_node21"><a xlink:title=" ">
<polygon fill="white" stroke="#bfbfbf" points="1768.5,-224.5 1768.5,-243.5 1911.5,-243.5 1911.5,-224.5 1768.5,-224.5"/>
<text text-anchor="middle" x="1840" y="-231.5" font-family="Helvetica,sans-Serif" font-size="10.00">glm/gtc/matrix_transform.hpp</text>
</a>
</g>
</g>
<!-- Node13&#45;&gt;Node21 -->
<g id="edge22" class="edge">
<title>Node13&#45;&gt;Node21</title>
<path fill="none" stroke="midnightblue" d="M1559.57,-283.93C1622.12,-273.02 1719.07,-256.1 1781.02,-245.29"/>
<polygon fill="midnightblue" stroke="midnightblue" points="1781.78,-248.71 1791.03,-243.54 1780.58,-241.82 1781.78,-248.71"/>
</g>
<!-- Node22 -->
<g id="node22" class="node">
<title>Node22</title>
<g id="a_node22"><a xlink:href="_transform_8hpp.html" target="_top" xlink:title=" ">
<polygon fill="white" stroke="black" points="1929.5,-224.5 1929.5,-243.5 2090.5,-243.5 2090.5,-224.5 1929.5,-224.5"/>
<text text-anchor="middle" x="2010" y="-231.5" font-family="Helvetica,sans-Serif" font-size="10.00">kryne&#45;engine/Math/Transform.hpp</text>
</a>
</g>
</g>
<!-- Node13&#45;&gt;Node22 -->
<g id="edge23" class="edge">
<title>Node13&#45;&gt;Node22</title>
<path fill="none" stroke="midnightblue" d="M1559.63,-287.44C1650.84,-276.82 1823.63,-256.7 1926.63,-244.71"/>
<polygon fill="midnightblue" stroke="midnightblue" points="1927.16,-248.17 1936.69,-243.54 1926.35,-241.22 1927.16,-248.17"/>
</g>
<!-- Node24 -->
<g id="node24" class="node">
<title>Node24</title>
<g id="a_node24"><a xlink:href="_scene_8h.html" target="_top" xlink:title=" ">
<polygon fill="white" stroke="black" points="1054.5,-224.5 1054.5,-243.5 1107.5,-243.5 1107.5,-224.5 1054.5,-224.5"/>
<text text-anchor="middle" x="1081" y="-231.5" font-family="Helvetica,sans-Serif" font-size="10.00">Scene.h</text>
</a>
</g>
</g>
<!-- Node13&#45;&gt;Node24 -->
<g id="edge26" class="edge">
<title>Node13&#45;&gt;Node24</title>
<path fill="none" stroke="midnightblue" d="M1438.22,-285.85C1350.17,-273.31 1189.8,-250.49 1117.76,-240.23"/>
<polygon fill="midnightblue" stroke="midnightblue" points="1118.19,-236.76 1107.79,-238.81 1117.2,-243.69 1118.19,-236.76"/>
</g>
<!-- Node22&#45;&gt;Node18 -->
<g id="edge24" class="edge">
<title>Node22&#45;&gt;Node18</title>
<path fill="none" stroke="midnightblue" d="M1929.48,-224.71C1926.62,-224.46 1923.79,-224.22 1921,-224 1657.37,-202.73 1340.57,-186.8 1222.44,-181.19"/>
<polygon fill="midnightblue" stroke="midnightblue" points="1222.45,-177.69 1212.3,-180.71 1222.12,-184.68 1222.45,-177.69"/>
</g>
<!-- Node23 -->
<g id="node23" class="node">
<title>Node23</title>
<g id="a_node23"><a xlink:title=" ">
<polygon fill="white" stroke="#bfbfbf" points="1967,-168.5 1967,-187.5 2053,-187.5 2053,-168.5 1967,-168.5"/>
<text text-anchor="middle" x="2010" y="-175.5" font-family="Helvetica,sans-Serif" font-size="10.00">glm/mat3x3.hpp</text>
</a>
</g>
</g>
<!-- Node22&#45;&gt;Node23 -->
<g id="edge25" class="edge">
<title>Node22&#45;&gt;Node23</title>
<path fill="none" stroke="midnightblue" d="M2010,-224.08C2010,-217.01 2010,-206.86 2010,-197.99"/>
<polygon fill="midnightblue" stroke="midnightblue" points="2013.5,-197.75 2010,-187.75 2006.5,-197.75 2013.5,-197.75"/>
</g>
<!-- Node24&#45;&gt;Node9 -->
<g id="edge28" class="edge">
<title>Node24&#45;&gt;Node9</title>
<path fill="none" stroke="midnightblue" d="M1093.16,-243.7C1117.62,-261.13 1172.12,-299.65 1192,-311 1217.41,-325.51 1247.68,-339.39 1269.71,-348.92"/>
<polygon fill="midnightblue" stroke="midnightblue" points="1268.63,-352.26 1279.2,-352.97 1271.38,-345.82 1268.63,-352.26"/>
</g>
<!-- Node24&#45;&gt;Node12 -->
<g id="edge27" class="edge">
<title>Node24&#45;&gt;Node12</title>
<path fill="none" stroke="midnightblue" d="M1081,-224.08C1081,-217.01 1081,-206.86 1081,-197.99"/>
<polygon fill="midnightblue" stroke="midnightblue" points="1084.5,-197.75 1081,-187.75 1077.5,-197.75 1084.5,-197.75"/>
</g>
<!-- Node25&#45;&gt;Node9 -->
<g id="edge32" class="edge">
<title>Node25&#45;&gt;Node9</title>
<path fill="none" stroke="midnightblue" d="M1295.1,-414.48C1293.27,-406.08 1292.8,-392.98 1293.69,-382.16"/>
<polygon fill="midnightblue" stroke="midnightblue" points="1297.19,-382.4 1295.1,-372.01 1290.25,-381.43 1297.19,-382.4"/>
</g>
<!-- Node25&#45;&gt;Node11 -->
<g id="edge31" class="edge">
<title>Node25&#45;&gt;Node11</title>
<path fill="none" stroke="midnightblue" d="M1337.14,-416.19C1428.82,-399.31 1673.14,-353.75 1876,-311 2007.56,-283.28 2040.32,-275.63 2171,-244 2172.27,-243.69 2173.56,-243.38 2174.87,-243.05"/>
<polygon fill="midnightblue" stroke="midnightblue" points="2176.08,-246.36 2184.93,-240.52 2174.37,-239.57 2176.08,-246.36"/>
</g>
<!-- Node27 -->
<g id="node27" class="node">
<title>Node27</title>
<g id="a_node27"><a xlink:href="_synchronizable_pool_8h.html" target="_top" xlink:title=" ">
<polygon fill="white" stroke="black" points="470.5,-168.5 470.5,-187.5 581.5,-187.5 581.5,-168.5 470.5,-168.5"/>
<text text-anchor="middle" x="526" y="-175.5" font-family="Helvetica,sans-Serif" font-size="10.00">SynchronizablePool.h</text>
</a>
</g>
</g>
<!-- Node26&#45;&gt;Node27 -->
<g id="edge36" class="edge">
<title>Node26&#45;&gt;Node27</title>
<path fill="none" stroke="midnightblue" d="M507.06,-280.34C496.65,-266.21 484.2,-243.81 491,-224 494.72,-213.16 502.23,-202.92 509.35,-194.96"/>
<polygon fill="midnightblue" stroke="midnightblue" points="512.05,-197.19 516.44,-187.55 507,-192.35 512.05,-197.19"/>
</g>
<!-- Node35 -->
<g id="node34" class="node">
<title>Node35</title>
<g id="a_node34"><a xlink:href="_runner_pool_8h.html" target="_top" xlink:title=" ">
<polygon fill="white" stroke="black" points="638.5,-168.5 638.5,-187.5 713.5,-187.5 713.5,-168.5 638.5,-168.5"/>
<text text-anchor="middle" x="676" y="-175.5" font-family="Helvetica,sans-Serif" font-size="10.00">RunnerPool.h</text>
</a>
</g>
</g>
<!-- Node26&#45;&gt;Node35 -->
<g id="edge46" class="edge">
<title>Node26&#45;&gt;Node35</title>
<path fill="none" stroke="midnightblue" d="M538.25,-280.34C568.21,-258.3 625.7,-216.01 656.07,-193.66"/>
<polygon fill="midnightblue" stroke="midnightblue" points="658.23,-196.41 664.22,-187.67 654.09,-190.78 658.23,-196.41"/>
</g>
<!-- Node36 -->
<g id="node35" class="node">
<title>Node36</title>
<g id="a_node35"><a xlink:href="_main_pool_8h.html" target="_top" xlink:title=" ">
<polygon fill="white" stroke="black" points="500.5,-224.5 500.5,-243.5 565.5,-243.5 565.5,-224.5 500.5,-224.5"/>
<text text-anchor="middle" x="533" y="-231.5" font-family="Helvetica,sans-Serif" font-size="10.00">MainPool.h</text>
</a>
</g>
</g>
<!-- Node26&#45;&gt;Node36 -->
<g id="edge48" class="edge">
<title>Node26&#45;&gt;Node36</title>
<path fill="none" stroke="midnightblue" d="M522.32,-280.4C524.21,-272.38 526.59,-262.23 528.63,-253.57"/>
<polygon fill="midnightblue" stroke="midnightblue" points="532.08,-254.19 530.96,-243.66 525.27,-252.59 532.08,-254.19"/>
</g>
<!-- Node28 -->
<g id="node28" class="node">
<title>Node28</title>
<g id="a_node28"><a xlink:href="_thread_pool_8h.html" target="_top" xlink:title=" ">
<polygon fill="white" stroke="black" points="638,-112.5 638,-131.5 712,-131.5 712,-112.5 638,-112.5"/>
<text text-anchor="middle" x="675" y="-119.5" font-family="Helvetica,sans-Serif" font-size="10.00">ThreadPool.h</text>
</a>
</g>
</g>
<!-- Node27&#45;&gt;Node28 -->
<g id="edge37" class="edge">
<title>Node27&#45;&gt;Node28</title>
<path fill="none" stroke="midnightblue" d="M549.61,-168.44C574.46,-159.44 613.77,-145.19 641.75,-135.05"/>
<polygon fill="midnightblue" stroke="midnightblue" points="643.29,-138.21 651.5,-131.52 640.91,-131.63 643.29,-138.21"/>
</g>
<!-- Node28&#45;&gt;Node6 -->
<g id="edge42" class="edge">
<title>Node28&#45;&gt;Node6</title>
<path fill="none" stroke="midnightblue" d="M712.11,-113.26C761.73,-102.92 849.12,-84.7 898.11,-74.48"/>
<polygon fill="midnightblue" stroke="midnightblue" points="898.88,-77.9 907.96,-72.43 897.45,-71.04 898.88,-77.9"/>
</g>
<!-- Node28&#45;&gt;Node8 -->
<g id="edge43" class="edge">
<title>Node28&#45;&gt;Node8</title>
<path fill="none" stroke="midnightblue" d="M637.99,-114.25C633.29,-113.46 628.53,-112.69 624,-112 508.18,-94.47 370.44,-78.42 305.47,-71.12"/>
<polygon fill="midnightblue" stroke="midnightblue" points="305.63,-67.62 295.31,-69.99 304.86,-74.58 305.63,-67.62"/>
</g>
<!-- Node29 -->
<g id="node29" class="node">
<title>Node29</title>
<g id="a_node29"><a xlink:title=" ">
<polygon fill="white" stroke="#bfbfbf" points="815,-56.5 815,-75.5 859,-75.5 859,-56.5 815,-56.5"/>
<text text-anchor="middle" x="837" y="-63.5" font-family="Helvetica,sans-Serif" font-size="10.00">thread</text>
</a>
</g>
</g>
<!-- Node28&#45;&gt;Node29 -->
<g id="edge38" class="edge">
<title>Node28&#45;&gt;Node29</title>
<path fill="none" stroke="midnightblue" d="M700.67,-112.44C728.96,-103.01 774.52,-87.83 805.09,-77.64"/>
<polygon fill="midnightblue" stroke="midnightblue" points="806.45,-80.87 814.83,-74.39 804.24,-74.23 806.45,-80.87"/>
</g>
<!-- Node30 -->
<g id="node30" class="node">
<title>Node30</title>
<g id="a_node30"><a xlink:title=" ">
<polygon fill="white" stroke="#bfbfbf" points="497,-56.5 497,-75.5 541,-75.5 541,-56.5 497,-56.5"/>
<text text-anchor="middle" x="519" y="-63.5" font-family="Helvetica,sans-Serif" font-size="10.00">mutex</text>
</a>
</g>
</g>
<!-- Node28&#45;&gt;Node30 -->
<g id="edge39" class="edge">
<title>Node28&#45;&gt;Node30</title>
<path fill="none" stroke="midnightblue" d="M650.28,-112.44C623.38,-103.13 580.29,-88.22 550.87,-78.03"/>
<polygon fill="midnightblue" stroke="midnightblue" points="551.68,-74.61 541.08,-74.64 549.39,-81.22 551.68,-74.61"/>
</g>
<!-- Node31 -->
<g id="node31" class="node">
<title>Node31</title>
<g id="a_node31"><a xlink:title=" ">
<polygon fill="white" stroke="#bfbfbf" points="559.5,-56.5 559.5,-75.5 652.5,-75.5 652.5,-56.5 559.5,-56.5"/>
<text text-anchor="middle" x="606" y="-63.5" font-family="Helvetica,sans-Serif" font-size="10.00">condition_variable</text>
</a>
</g>
</g>
<!-- Node28&#45;&gt;Node31 -->
<g id="edge40" class="edge">
<title>Node28&#45;&gt;Node31</title>
<path fill="none" stroke="midnightblue" d="M663.91,-112.32C653.51,-104.18 637.74,-91.84 625.28,-82.09"/>
<polygon fill="midnightblue" stroke="midnightblue" points="627.32,-79.24 617.29,-75.83 623.01,-84.75 627.32,-79.24"/>
</g>
<!-- Node32 -->
<g id="node32" class="node">
<title>Node32</title>
<g id="a_node32"><a xlink:title=" ">
<polygon fill="white" stroke="#bfbfbf" points="670.5,-56.5 670.5,-75.5 711.5,-75.5 711.5,-56.5 670.5,-56.5"/>
<text text-anchor="middle" x="691" y="-63.5" font-family="Helvetica,sans-Serif" font-size="10.00">future</text>
</a>
</g>
</g>
<!-- Node28&#45;&gt;Node32 -->
<g id="edge41" class="edge">
<title>Node28&#45;&gt;Node32</title>
<path fill="none" stroke="midnightblue" d="M677.64,-112.08C679.79,-104.85 682.88,-94.41 685.55,-85.4"/>
<polygon fill="midnightblue" stroke="midnightblue" points="688.92,-86.33 688.41,-75.75 682.21,-84.34 688.92,-86.33"/>
</g>
<!-- Node33 -->
<g id="node33" class="node">
<title>Node33</title>
<g id="a_node33"><a xlink:href="_base_pool_8h.html" target="_top" xlink:title=" ">
<polygon fill="white" stroke="red" points="729.5,-56.5 729.5,-75.5 796.5,-75.5 796.5,-56.5 729.5,-56.5"/>
<text text-anchor="middle" x="763" y="-63.5" font-family="Helvetica,sans-Serif" font-size="10.00">BasePool.h</text>
</a>
</g>
</g>
<!-- Node28&#45;&gt;Node33 -->
<g id="edge44" class="edge">
<title>Node28&#45;&gt;Node33</title>
<path fill="none" stroke="midnightblue" d="M689.14,-112.32C702.87,-103.9 723.94,-90.97 740.06,-81.07"/>
<polygon fill="midnightblue" stroke="midnightblue" points="742.2,-83.87 748.9,-75.65 738.54,-77.9 742.2,-83.87"/>
</g>
<!-- Node33&#45;&gt;Node14 -->
<g id="edge45" class="edge">
<title>Node33&#45;&gt;Node14</title>
<path fill="none" stroke="midnightblue" d="M796.72,-57.49C799.85,-56.93 802.98,-56.42 806,-56 1040.32,-23.47 1325.88,-14.02 1420.14,-11.68"/>
<polygon fill="midnightblue" stroke="midnightblue" points="1420.51,-15.17 1430.42,-11.43 1420.34,-8.17 1420.51,-15.17"/>
</g>
<!-- Node35&#45;&gt;Node28 -->
<g id="edge47" class="edge">
<title>Node35&#45;&gt;Node28</title>
<path fill="none" stroke="midnightblue" d="M675.83,-168.08C675.7,-161.01 675.52,-150.86 675.35,-141.99"/>
<polygon fill="midnightblue" stroke="midnightblue" points="678.85,-141.68 675.16,-131.75 671.85,-141.81 678.85,-141.68"/>
</g>
<!-- Node36&#45;&gt;Node27 -->
<g id="edge49" class="edge">
<title>Node36&#45;&gt;Node27</title>
<path fill="none" stroke="midnightblue" d="M531.84,-224.08C530.92,-216.93 529.58,-206.64 528.42,-197.69"/>
<polygon fill="midnightblue" stroke="midnightblue" points="531.89,-197.22 527.13,-187.75 524.95,-198.12 531.89,-197.22"/>
</g>
<!-- Node38 -->
<g id="node37" class="node">
<title>Node38</title>
<g id="a_node37"><a xlink:href="_player_input_8h.html" target="_top" xlink:title=" ">
<polygon fill="white" stroke="black" points="343,-347.5 343,-377.5 439,-377.5 439,-347.5 343,-347.5"/>
<text text-anchor="start" x="351" y="-365.5" font-family="Helvetica,sans-Serif" font-size="10.00">kryne&#45;engine/Input</text>
<text text-anchor="middle" x="391" y="-354.5" font-family="Helvetica,sans-Serif" font-size="10.00">/PlayerInput.h</text>
</a>
</g>
</g>
<!-- Node37&#45;&gt;Node38 -->
<g id="edge51" class="edge">
<title>Node37&#45;&gt;Node38</title>
<path fill="none" stroke="midnightblue" d="M612.74,-604.35C602.41,-595.52 586.18,-581.25 573,-568 509.91,-504.55 441.18,-423.83 409.23,-385.55"/>
<polygon fill="midnightblue" stroke="midnightblue" points="411.72,-383.07 402.63,-377.62 406.34,-387.55 411.72,-383.07"/>
</g>
<!-- Node44 -->
<g id="node43" class="node">
<title>Node44</title>
<g id="a_node43"><a xlink:href="_loop_renderer_8h.html" target="_top" xlink:title=" ">
<polygon fill="white" stroke="black" points="582.5,-537.5 582.5,-567.5 701.5,-567.5 701.5,-537.5 582.5,-537.5"/>
<text text-anchor="start" x="590.5" y="-555.5" font-family="Helvetica,sans-Serif" font-size="10.00">kryne&#45;engine/Rendering</text>
<text text-anchor="middle" x="642" y="-544.5" font-family="Helvetica,sans-Serif" font-size="10.00">/LoopRenderer.h</text>
</a>
</g>
</g>
<!-- Node37&#45;&gt;Node44 -->
<g id="edge61" class="edge">
<title>Node37&#45;&gt;Node44</title>
<path fill="none" stroke="midnightblue" d="M625.72,-604.48C628.01,-597.32 631.38,-586.75 634.47,-577.08"/>
<polygon fill="midnightblue" stroke="midnightblue" points="637.81,-578.11 637.52,-567.52 631.15,-575.98 637.81,-578.11"/>
</g>
<!-- Node38&#45;&gt;Node6 -->
<g id="edge56" class="edge">
<title>Node38&#45;&gt;Node6</title>
<path fill="none" stroke="midnightblue" d="M398.45,-347.14C403.47,-337.15 410.06,-323.45 415,-311 439.6,-248.94 409.88,-210.94 461,-168 505.67,-130.49 664.04,-144.55 721,-132 785.7,-117.74 859.23,-93.45 900.77,-78.94"/>
<polygon fill="midnightblue" stroke="midnightblue" points="902.1,-82.18 910.37,-75.56 899.78,-75.58 902.1,-82.18"/>
</g>
<!-- Node38&#45;&gt;Node7 -->
<g id="edge54" class="edge">
<title>Node38&#45;&gt;Node7</title>
<path fill="none" stroke="midnightblue" d="M439.09,-356.93C508.79,-349.83 641.7,-334.47 753,-311 757.48,-310.06 762.14,-308.93 766.75,-307.73"/>
<polygon fill="midnightblue" stroke="midnightblue" points="767.92,-311.04 776.65,-305.03 766.08,-304.29 767.92,-311.04"/>
</g>
<!-- Node38&#45;&gt;Node8 -->
<g id="edge55" class="edge">
<title>Node38&#45;&gt;Node8</title>
<path fill="none" stroke="midnightblue" d="M342.77,-360.59C260.51,-358.04 98,-348.28 57,-311 31.24,-287.58 38,-269.82 38,-235 38,-235 38,-235 38,-177 38,-92.72 165.23,-72.96 230.43,-68.37"/>
<polygon fill="midnightblue" stroke="midnightblue" points="230.95,-71.84 240.71,-67.73 230.52,-64.85 230.95,-71.84"/>
</g>
<!-- Node38&#45;&gt;Node12 -->
<g id="edge53" class="edge">
<title>Node38&#45;&gt;Node12</title>
<path fill="none" stroke="midnightblue" d="M439.03,-353.88C479.11,-346.37 537.04,-332.81 584,-311 605.7,-300.92 606.12,-289.68 628,-280 766.64,-218.66 946.19,-192.93 1031.62,-183.6"/>
<polygon fill="midnightblue" stroke="midnightblue" points="1032.24,-187.05 1041.81,-182.51 1031.5,-180.09 1032.24,-187.05"/>
</g>
<!-- Node39 -->
<g id="node38" class="node">
<title>Node39</title>
<g id="a_node38"><a xlink:title=" ">
<polygon fill="white" stroke="#bfbfbf" points="66,-286 66,-305 96,-305 96,-286 66,-286"/>
<text text-anchor="middle" x="81" y="-293" font-family="Helvetica,sans-Serif" font-size="10.00">set</text>
</a>
</g>
</g>
<!-- Node38&#45;&gt;Node39 -->
<g id="edge52" class="edge">
<title>Node38&#45;&gt;Node39</title>
<path fill="none" stroke="midnightblue" d="M342.77,-358.41C284.74,-353.47 185.13,-341.08 105,-311 104.12,-310.67 103.24,-310.31 102.36,-309.92"/>
<polygon fill="midnightblue" stroke="midnightblue" points="103.73,-306.69 93.26,-305.09 100.45,-312.87 103.73,-306.69"/>
</g>
<!-- Node40 -->
<g id="node39" class="node">
<title>Node40</title>
<g id="a_node39"><a xlink:title=" ">
<polygon fill="white" stroke="#bfbfbf" points="114,-286 114,-305 178,-305 178,-286 114,-286"/>
<text text-anchor="middle" x="146" y="-293" font-family="Helvetica,sans-Serif" font-size="10.00">glad/glad.h</text>
</a>
</g>
</g>
<!-- Node38&#45;&gt;Node40 -->
<g id="edge57" class="edge">
<title>Node38&#45;&gt;Node40</title>
<path fill="none" stroke="midnightblue" d="M342.83,-350.97C301.26,-341.55 239.77,-326.82 187,-311 184.22,-310.17 181.35,-309.26 178.48,-308.31"/>
<polygon fill="midnightblue" stroke="midnightblue" points="179.45,-304.94 168.86,-305.03 177.19,-311.57 179.45,-304.94"/>
</g>
<!-- Node41 -->
<g id="node40" class="node">
<title>Node41</title>
<g id="a_node40"><a xlink:title=" ">
<polygon fill="white" stroke="#bfbfbf" points="196,-286 196,-305 274,-305 274,-286 196,-286"/>
<text text-anchor="middle" x="235" y="-293" font-family="Helvetica,sans-Serif" font-size="10.00">GLFW/glfw3.h</text>
</a>
</g>
</g>
<!-- Node38&#45;&gt;Node41 -->
<g id="edge58" class="edge">
<title>Node38&#45;&gt;Node41</title>
<path fill="none" stroke="midnightblue" d="M357.15,-347.4C329.66,-335.94 291.25,-319.94 264.89,-308.95"/>
<polygon fill="midnightblue" stroke="midnightblue" points="265.99,-305.62 255.42,-305.01 263.3,-312.08 265.99,-305.62"/>
</g>
<!-- Node42 -->
<g id="node41" class="node">
<title>Node42</title>
<g id="a_node41"><a xlink:title=" ">
<polygon fill="white" stroke="#bfbfbf" points="292,-286 292,-305 406,-305 406,-286 292,-286"/>
<text text-anchor="middle" x="349" y="-293" font-family="Helvetica,sans-Serif" font-size="10.00">boost/lexical_cast.hpp</text>
</a>
</g>
</g>
<!-- Node38&#45;&gt;Node42 -->
<g id="edge59" class="edge">
<title>Node38&#45;&gt;Node42</title>
<path fill="none" stroke="midnightblue" d="M381.89,-347.4C375.53,-337.56 367.01,-324.38 360.24,-313.89"/>
<polygon fill="midnightblue" stroke="midnightblue" points="362.98,-311.69 354.62,-305.19 357.11,-315.49 362.98,-311.69"/>
</g>
<!-- Node43 -->
<g id="node42" class="node">
<title>Node43</title>
<g id="a_node42"><a xlink:title=" ">
<polygon fill="white" stroke="#bfbfbf" points="670,-286 670,-305 744,-305 744,-286 670,-286"/>
<text text-anchor="middle" x="707" y="-293" font-family="Helvetica,sans-Serif" font-size="10.00">glm/vec2.hpp</text>
</a>
</g>
</g>
<!-- Node38&#45;&gt;Node43 -->
<g id="edge60" class="edge">
<title>Node38&#45;&gt;Node43</title>
<path fill="none" stroke="midnightblue" d="M439.34,-351.56C499.16,-339.25 600.35,-318.44 659.69,-306.23"/>
<polygon fill="midnightblue" stroke="midnightblue" points="660.47,-309.65 669.55,-304.2 659.05,-302.79 660.47,-309.65"/>
</g>
<!-- Node44&#45;&gt;Node24 -->
<g id="edge62" class="edge">
<title>Node44&#45;&gt;Node24</title>
<path fill="none" stroke="midnightblue" d="M642,-537.46C642,-514.12 642,-465.85 642,-425 642,-425 642,-425 642,-361.5 642,-324.31 633.14,-304.64 661,-280 689.46,-254.83 947.06,-240.92 1044.18,-236.54"/>
<polygon fill="midnightblue" stroke="midnightblue" points="1044.57,-240.02 1054.4,-236.08 1044.26,-233.03 1044.57,-240.02"/>
</g>
<!-- Node44&#45;&gt;Node45 -->
<g id="edge63" class="edge">
<title>Node44&#45;&gt;Node45</title>
<path fill="none" stroke="midnightblue" d="M701.87,-540.25C762.09,-528.94 854.88,-511.51 918.35,-499.58"/>
<polygon fill="midnightblue" stroke="midnightblue" points="919.1,-503.01 928.28,-497.72 917.81,-496.13 919.1,-503.01"/>
</g>
<!-- Node45&#45;&gt;Node25 -->
<g id="edge64" class="edge">
<title>Node45&#45;&gt;Node25</title>
<path fill="none" stroke="midnightblue" d="M1047.79,-473.1C1107.46,-461.72 1197.96,-444.46 1252.78,-434.01"/>
<polygon fill="midnightblue" stroke="midnightblue" points="1253.74,-437.38 1262.91,-432.07 1252.43,-430.51 1253.74,-437.38"/>
</g>
<!-- Node46 -->
<g id="node45" class="node">
<title>Node46</title>
<g id="a_node45"><a xlink:href="_i_render_mesh_8hpp.html" target="_top" xlink:title=" ">
<polygon fill="white" stroke="black" points="899,-414.5 899,-433.5 991,-433.5 991,-414.5 899,-414.5"/>
<text text-anchor="middle" x="945" y="-421.5" font-family="Helvetica,sans-Serif" font-size="10.00">IRenderMesh.hpp</text>
</a>
</g>
</g>
<!-- Node45&#45;&gt;Node46 -->
<g id="edge65" class="edge">
<title>Node45&#45;&gt;Node46</title>
<path fill="none" stroke="midnightblue" d="M977.81,-470.4C971.63,-461.84 963.7,-450.87 957.18,-441.86"/>
<polygon fill="midnightblue" stroke="midnightblue" points="959.95,-439.71 951.26,-433.66 954.28,-443.81 959.95,-439.71"/>
</g>
<!-- Node47 -->
<g id="node46" class="node">
<title>Node47</title>
<g id="a_node46"><a xlink:href="_i_camera_8hpp.html" target="_top" xlink:title=" ">
<polygon fill="white" stroke="red" points="998.5,-347.5 998.5,-377.5 1107.5,-377.5 1107.5,-347.5 998.5,-347.5"/>
<text text-anchor="start" x="1006.5" y="-365.5" font-family="Helvetica,sans-Serif" font-size="10.00">kryne&#45;engine/Camera</text>
<text text-anchor="middle" x="1053" y="-354.5" font-family="Helvetica,sans-Serif" font-size="10.00">/ICamera.hpp</text>
</a>
</g>
</g>
<!-- Node46&#45;&gt;Node47 -->
<g id="edge66" class="edge">
<title>Node46&#45;&gt;Node47</title>
<path fill="none" stroke="midnightblue" d="M960.47,-414.48C975.58,-406.15 999.08,-393.21 1018.61,-382.45"/>
<polygon fill="midnightblue" stroke="midnightblue" points="1020.48,-385.41 1027.55,-377.52 1017.1,-379.28 1020.48,-385.41"/>
</g>
<!-- Node50 -->
<g id="node48" class="node">
<title>Node50</title>
<g id="a_node48"><a xlink:href="_buffer_geometry_8h.html" target="_top" xlink:title=" ">
<polygon fill="white" stroke="red" points="734,-347.5 734,-377.5 852,-377.5 852,-347.5 734,-347.5"/>
<text text-anchor="start" x="742" y="-365.5" font-family="Helvetica,sans-Serif" font-size="10.00">kryne&#45;engine/Geometry</text>
<text text-anchor="middle" x="793" y="-354.5" font-family="Helvetica,sans-Serif" font-size="10.00">/BufferGeometry.h</text>
</a>
</g>
</g>
<!-- Node46&#45;&gt;Node50 -->
<g id="edge69" class="edge">
<title>Node46&#45;&gt;Node50</title>
<path fill="none" stroke="midnightblue" d="M923.22,-414.48C901.19,-405.85 866.48,-392.26 838.43,-381.29"/>
<polygon fill="midnightblue" stroke="midnightblue" points="839.41,-377.91 828.82,-377.52 836.86,-384.43 839.41,-377.91"/>
</g>
<!-- Node55 -->
<g id="node49" class="node">
<title>Node55</title>
<g id="a_node49"><a xlink:href="kryne-engine_2_material_2_material_8h.html" target="_top" xlink:title=" ">
<polygon fill="white" stroke="red" points="870,-347.5 870,-377.5 980,-377.5 980,-347.5 870,-347.5"/>
<text text-anchor="start" x="878" y="-365.5" font-family="Helvetica,sans-Serif" font-size="10.00">kryne&#45;engine/Material</text>
<text text-anchor="middle" x="925" y="-354.5" font-family="Helvetica,sans-Serif" font-size="10.00">/Material.h</text>
</a>
</g>
</g>
<!-- Node46&#45;&gt;Node55 -->
<g id="edge76" class="edge">
<title>Node46&#45;&gt;Node55</title>
<path fill="none" stroke="midnightblue" d="M942.13,-414.48C939.73,-407.32 936.18,-396.75 932.93,-387.08"/>
<polygon fill="midnightblue" stroke="midnightblue" points="936.22,-385.89 929.71,-377.52 929.58,-388.12 936.22,-385.89"/>
</g>
<!-- Node47&#45;&gt;Node6 -->
<g id="edge67" class="edge">
<title>Node47&#45;&gt;Node6</title>
<path fill="none" stroke="midnightblue" d="M1038.14,-347.4C1028.5,-337.75 1016.08,-324.33 1007,-311 956.94,-237.55 940.48,-128.99 935.73,-85.76"/>
<polygon fill="midnightblue" stroke="midnightblue" points="939.21,-85.4 934.72,-75.8 932.24,-86.11 939.21,-85.4"/>
</g>
<!-- Node48 -->
<g id="node47" class="node">
<title>Node48</title>
<g id="a_node47"><a xlink:title=" ">
<polygon fill="white" stroke="#bfbfbf" points="1016,-286 1016,-305 1102,-305 1102,-286 1016,-286"/>
<text text-anchor="middle" x="1059" y="-293" font-family="Helvetica,sans-Serif" font-size="10.00">glm/mat4x4.hpp</text>
</a>
</g>
</g>
<!-- Node47&#45;&gt;Node48 -->
<g id="edge68" class="edge">
<title>Node47&#45;&gt;Node48</title>
<path fill="none" stroke="midnightblue" d="M1054.3,-347.4C1055.17,-337.96 1056.33,-325.45 1057.27,-315.19"/>
<polygon fill="midnightblue" stroke="midnightblue" points="1060.76,-315.47 1058.2,-305.19 1053.79,-314.83 1060.76,-315.47"/>
</g>
<!-- Node50&#45;&gt;Node6 -->
<g id="edge70" class="edge">
<title>Node50&#45;&gt;Node6</title>
<path fill="none" stroke="midnightblue" d="M835.21,-347.44C853.69,-339.38 874.26,-327.51 888,-311 910.66,-283.77 912,-270.42 912,-235 912,-235 912,-235 912,-177 912,-144.33 921.45,-107.24 927.96,-85.55"/>
<polygon fill="midnightblue" stroke="midnightblue" points="931.39,-86.31 931.03,-75.72 924.71,-84.22 931.39,-86.31"/>
</g>
<!-- Node50&#45;&gt;Node7 -->
<g id="edge72" class="edge">
<title>Node50&#45;&gt;Node7</title>
<path fill="none" stroke="midnightblue" d="M795.39,-347.4C796.98,-337.96 799.1,-325.45 800.84,-315.19"/>
<polygon fill="midnightblue" stroke="midnightblue" points="804.31,-315.64 802.53,-305.19 797.41,-314.47 804.31,-315.64"/>
</g>
<!-- Node50&#45;&gt;Node8 -->
<g id="edge71" class="edge">
<title>Node50&#45;&gt;Node8</title>
<path fill="none" stroke="midnightblue" d="M819.14,-347.37C832.21,-338.76 846.74,-326.43 854,-311 859.86,-298.53 861.68,-291.44 854,-280 793.77,-190.31 727.16,-233.14 629,-188 611.3,-179.86 608.03,-175.39 590,-168 489.55,-126.84 365.83,-92.35 305.15,-76.44"/>
<polygon fill="midnightblue" stroke="midnightblue" points="305.82,-73 295.26,-73.87 304.06,-79.77 305.82,-73"/>
</g>
<!-- Node50&#45;&gt;Node18 -->
<g id="edge74" class="edge">
<title>Node50&#45;&gt;Node18</title>
<path fill="none" stroke="midnightblue" d="M838.97,-347.45C865.22,-338.6 898.32,-326.02 926,-311 983.59,-279.76 986.96,-254.39 1045,-224 1072.65,-209.53 1105.94,-198.11 1131.91,-190.39"/>
<polygon fill="midnightblue" stroke="midnightblue" points="1133.2,-193.66 1141.83,-187.52 1131.25,-186.94 1133.2,-193.66"/>
</g>
<!-- Node50&#45;&gt;Node26 -->
<g id="edge75" class="edge">
<title>Node50&#45;&gt;Node26</title>
<path fill="none" stroke="midnightblue" d="M733.88,-347.48C690.21,-337.11 630.71,-323 585.4,-312.25"/>
<polygon fill="midnightblue" stroke="midnightblue" points="586.21,-308.85 575.67,-309.94 584.59,-315.66 586.21,-308.85"/>
</g>
<!-- Node50&#45;&gt;Node43 -->
<g id="edge73" class="edge">
<title>Node50&#45;&gt;Node43</title>
<path fill="none" stroke="midnightblue" d="M774.34,-347.4C760.27,-336.76 741.01,-322.2 726.69,-311.38"/>
<polygon fill="midnightblue" stroke="midnightblue" points="728.59,-308.43 718.5,-305.19 724.37,-314.02 728.59,-308.43"/>
</g>
<!-- Node74&#45;&gt;Node25 -->
<g id="edge80" class="edge">
<title>Node74&#45;&gt;Node25</title>
<path fill="none" stroke="midnightblue" d="M1300,-604.43C1300,-575.93 1300,-483.82 1300,-443.83"/>
<polygon fill="midnightblue" stroke="midnightblue" points="1303.5,-443.62 1300,-433.62 1296.5,-443.62 1303.5,-443.62"/>
</g>
</g>
</svg>
