<?xml version="1.0" encoding="UTF-8" standalone="no"?>
<!DOCTYPE svg PUBLIC "-//W3C//DTD SVG 1.1//EN"
 "http://www.w3.org/Graphics/SVG/1.1/DTD/svg11.dtd">
<!-- Generated by graphviz version 2.44.1 (20200629.0846)
 -->
<!-- Title: kryne&#45;engine/include/kryne&#45;engine/Core/GeometricShapes.h Pages: 1 -->
<svg width="303pt" height="351pt"
 viewBox="0.00 0.00 302.50 351.00" xmlns="http://www.w3.org/2000/svg" xmlns:xlink="http://www.w3.org/1999/xlink">
<g id="graph0" class="graph" transform="scale(1 1) rotate(0) translate(4 347)">
<title>kryne&#45;engine/include/kryne&#45;engine/Core/GeometricShapes.h</title>
<polygon fill="white" stroke="transparent" points="-4,4 -4,-347 298.5,-347 298.5,4 -4,4"/>
<!-- Node1 -->
<g id="node1" class="node">
<title>Node1</title>
<g id="a_node1"><a xlink:title=" ">
<polygon fill="#bfbfbf" stroke="black" points="75,-301.5 75,-342.5 221,-342.5 221,-301.5 75,-301.5"/>
<text text-anchor="start" x="83" y="-330.5" font-family="Helvetica,sans-Serif" font-size="10.00">kryne&#45;engine/include</text>
<text text-anchor="start" x="83" y="-319.5" font-family="Helvetica,sans-Serif" font-size="10.00">/kryne&#45;engine/Core/Geometric</text>
<text text-anchor="middle" x="148" y="-308.5" font-family="Helvetica,sans-Serif" font-size="10.00">Shapes.h</text>
</a>
</g>
</g>
<!-- Node2 -->
<g id="node2" class="node">
<title>Node2</title>
<g id="a_node2"><a xlink:href="_skybox_8h.html" target="_top" xlink:title=" ">
<polygon fill="white" stroke="black" points="11,-223.5 11,-264.5 135,-264.5 135,-223.5 11,-223.5"/>
<text text-anchor="start" x="19" y="-252.5" font-family="Helvetica,sans-Serif" font-size="10.00">kryne&#45;engine/include</text>
<text text-anchor="start" x="19" y="-241.5" font-family="Helvetica,sans-Serif" font-size="10.00">/kryne&#45;engine/3DObjects</text>
<text text-anchor="middle" x="73" y="-230.5" font-family="Helvetica,sans-Serif" font-size="10.00">/Skybox.h</text>
</a>
</g>
</g>
<!-- Node1&#45;&gt;Node2 -->
<g id="edge1" class="edge">
<title>Node1&#45;&gt;Node2</title>
<path fill="none" stroke="midnightblue" d="M121.56,-294.2C111.9,-284.42 101.16,-273.54 92.25,-264.51"/>
<polygon fill="midnightblue" stroke="midnightblue" points="119.17,-296.77 128.69,-301.43 124.15,-291.85 119.17,-296.77"/>
</g>
<!-- Node6 -->
<g id="node6" class="node">
<title>Node6</title>
<g id="a_node6"><a xlink:href="_final_post_process_8h.html" target="_top" xlink:title=" ">
<polygon fill="white" stroke="black" points="153.5,-223.5 153.5,-264.5 294.5,-264.5 294.5,-223.5 153.5,-223.5"/>
<text text-anchor="start" x="161.5" y="-252.5" font-family="Helvetica,sans-Serif" font-size="10.00">kryne&#45;engine/include</text>
<text text-anchor="start" x="161.5" y="-241.5" font-family="Helvetica,sans-Serif" font-size="10.00">/kryne&#45;engine/RenderTargets</text>
<text text-anchor="middle" x="224" y="-230.5" font-family="Helvetica,sans-Serif" font-size="10.00">/FinalPostProcess.h</text>
</a>
</g>
</g>
<!-- Node1&#45;&gt;Node6 -->
<g id="edge5" class="edge">
<title>Node1&#45;&gt;Node6</title>
<path fill="none" stroke="midnightblue" d="M174.8,-294.2C184.58,-284.42 195.46,-273.54 204.49,-264.51"/>
<polygon fill="midnightblue" stroke="midnightblue" points="172.17,-291.88 167.57,-301.43 177.12,-296.83 172.17,-291.88"/>
</g>
<!-- Node3 -->
<g id="node3" class="node">
<title>Node3</title>
<g id="a_node3"><a xlink:href="_main_renderer_8h.html" target="_top" xlink:title=" ">
<polygon fill="white" stroke="black" points="12,-145.5 12,-186.5 134,-186.5 134,-145.5 12,-145.5"/>
<text text-anchor="start" x="20" y="-174.5" font-family="Helvetica,sans-Serif" font-size="10.00">kryne&#45;engine/include</text>
<text text-anchor="start" x="20" y="-163.5" font-family="Helvetica,sans-Serif" font-size="10.00">/kryne&#45;engine/Rendering</text>
<text text-anchor="middle" x="73" y="-152.5" font-family="Helvetica,sans-Serif" font-size="10.00">/MainRenderer.h</text>
</a>
</g>
</g>
<!-- Node2&#45;&gt;Node3 -->
<g id="edge2" class="edge">
<title>Node2&#45;&gt;Node3</title>
<path fill="none" stroke="midnightblue" d="M73,-213.3C73,-204.3 73,-194.65 73,-186.51"/>
<polygon fill="midnightblue" stroke="midnightblue" points="69.5,-213.43 73,-223.43 76.5,-213.43 69.5,-213.43"/>
</g>
<!-- Node4 -->
<g id="node4" class="node">
<title>Node4</title>
<g id="a_node4"><a xlink:href="_render_scene_8h.html" target="_top" xlink:title=" ">
<polygon fill="white" stroke="black" points="12,-67.5 12,-108.5 134,-108.5 134,-67.5 12,-67.5"/>
<text text-anchor="start" x="20" y="-96.5" font-family="Helvetica,sans-Serif" font-size="10.00">kryne&#45;engine/include</text>
<text text-anchor="start" x="20" y="-85.5" font-family="Helvetica,sans-Serif" font-size="10.00">/kryne&#45;engine/Rendering</text>
<text text-anchor="middle" x="73" y="-74.5" font-family="Helvetica,sans-Serif" font-size="10.00">/RenderScene.h</text>
</a>
</g>
</g>
<!-- Node3&#45;&gt;Node4 -->
<g id="edge3" class="edge">
<title>Node3&#45;&gt;Node4</title>
<path fill="none" stroke="midnightblue" d="M73,-135.3C73,-126.3 73,-116.65 73,-108.51"/>
<polygon fill="midnightblue" stroke="midnightblue" points="69.5,-135.43 73,-145.43 76.5,-135.43 69.5,-135.43"/>
</g>
<!-- Node5 -->
<g id="node5" class="node">
<title>Node5</title>
<g id="a_node5"><a xlink:href="_process_8h.html" target="_top" xlink:title=" ">
<polygon fill="white" stroke="black" points="0,-0.5 0,-30.5 146,-30.5 146,-0.5 0,-0.5"/>
<text text-anchor="start" x="8" y="-18.5" font-family="Helvetica,sans-Serif" font-size="10.00">kryne&#45;engine/include</text>
<text text-anchor="middle" x="73" y="-7.5" font-family="Helvetica,sans-Serif" font-size="10.00">/kryne&#45;engine/Core/Process.h</text>
</a>
</g>
</g>
<!-- Node4&#45;&gt;Node5 -->
<g id="edge4" class="edge">
<title>Node4&#45;&gt;Node5</title>
<path fill="none" stroke="midnightblue" d="M73,-57.08C73,-48.01 73,-38.45 73,-30.89"/>
<polygon fill="midnightblue" stroke="midnightblue" points="69.5,-57.36 73,-67.36 76.5,-57.36 69.5,-57.36"/>
</g>
<!-- Node7 -->
<g id="node7" class="node">
<title>Node7</title>
<g id="a_node7"><a xlink:href="_post_process_8h.html" target="_top" xlink:title=" ">
<polygon fill="white" stroke="black" points="153.5,-145.5 153.5,-186.5 294.5,-186.5 294.5,-145.5 153.5,-145.5"/>
<text text-anchor="start" x="161.5" y="-174.5" font-family="Helvetica,sans-Serif" font-size="10.00">kryne&#45;engine/include</text>
<text text-anchor="start" x="161.5" y="-163.5" font-family="Helvetica,sans-Serif" font-size="10.00">/kryne&#45;engine/RenderTargets</text>
<text text-anchor="middle" x="224" y="-152.5" font-family="Helvetica,sans-Serif" font-size="10.00">/PostProcess.h</text>
</a>
</g>
</g>
<!-- Node6&#45;&gt;Node7 -->
<g id="edge6" class="edge">
<title>Node6&#45;&gt;Node7</title>
<path fill="none" stroke="midnightblue" d="M224,-213.3C224,-204.3 224,-194.65 224,-186.51"/>
<polygon fill="midnightblue" stroke="midnightblue" points="220.5,-213.43 224,-223.43 227.5,-213.43 220.5,-213.43"/>
</g>
</g>
</svg>
