<?xml version="1.0" encoding="UTF-8" standalone="no"?>
<!DOCTYPE svg PUBLIC "-//W3C//DTD SVG 1.1//EN"
 "http://www.w3.org/Graphics/SVG/1.1/DTD/svg11.dtd">
<!-- Generated by graphviz version 2.44.1 (20200629.0846)
 -->
<!-- Title: kryne&#45;engine/include/KEModules/Geometry.h Pages: 1 -->
<svg width="1609pt" height="531pt"
 viewBox="0.00 0.00 1608.50 531.00" xmlns="http://www.w3.org/2000/svg" xmlns:xlink="http://www.w3.org/1999/xlink">
<g id="graph0" class="graph" transform="scale(1 1) rotate(0) translate(4 527)">
<title>kryne&#45;engine/include/KEModules/Geometry.h</title>
<polygon fill="white" stroke="transparent" points="-4,4 -4,-527 1604.5,-527 1604.5,4 -4,4"/>
<!-- Node1 -->
<g id="node1" class="node">
<title>Node1</title>
<g id="a_node1"><a xlink:title=" ">
<polygon fill="#bfbfbf" stroke="black" points="744.5,-492.5 744.5,-522.5 868.5,-522.5 868.5,-492.5 744.5,-492.5"/>
<text text-anchor="start" x="752.5" y="-510.5" font-family="Helvetica,sans-Serif" font-size="10.00">kryne&#45;engine/include</text>
<text text-anchor="middle" x="806.5" y="-499.5" font-family="Helvetica,sans-Serif" font-size="10.00">/KEModules/Geometry.h</text>
</a>
</g>
</g>
<!-- Node2 -->
<g id="node2" class="node">
<title>Node2</title>
<g id="a_node2"><a xlink:href="_box_buffer_geometry_8h.html" target="_top" xlink:title=" ">
<polygon fill="white" stroke="black" points="355.5,-425.5 355.5,-455.5 473.5,-455.5 473.5,-425.5 355.5,-425.5"/>
<text text-anchor="start" x="363.5" y="-443.5" font-family="Helvetica,sans-Serif" font-size="10.00">kryne&#45;engine/Geometry</text>
<text text-anchor="middle" x="414.5" y="-432.5" font-family="Helvetica,sans-Serif" font-size="10.00">/BoxBufferGeometry.h</text>
</a>
</g>
</g>
<!-- Node1&#45;&gt;Node2 -->
<g id="edge1" class="edge">
<title>Node1&#45;&gt;Node2</title>
<path fill="none" stroke="midnightblue" d="M744.39,-496.2C673.46,-484.44 557.72,-465.25 483.89,-453.01"/>
<polygon fill="midnightblue" stroke="midnightblue" points="484.19,-449.51 473.76,-451.33 483.05,-456.41 484.19,-449.51"/>
</g>
<!-- Node26 -->
<g id="node26" class="node">
<title>Node26</title>
<g id="a_node26"><a xlink:href="_buffer_geometry_8h.html" target="_top" xlink:title=" ">
<polygon fill="white" stroke="black" points="760.5,-364 760.5,-383 852.5,-383 852.5,-364 760.5,-364"/>
<text text-anchor="middle" x="806.5" y="-371" font-family="Helvetica,sans-Serif" font-size="10.00">BufferGeometry.h</text>
</a>
</g>
</g>
<!-- Node1&#45;&gt;Node26 -->
<g id="edge52" class="edge">
<title>Node1&#45;&gt;Node26</title>
<path fill="none" stroke="midnightblue" d="M806.5,-492.37C806.5,-468.5 806.5,-420.18 806.5,-393.41"/>
<polygon fill="midnightblue" stroke="midnightblue" points="810,-393.1 806.5,-383.1 803,-393.1 810,-393.1"/>
</g>
<!-- Node36 -->
<g id="node36" class="node">
<title>Node36</title>
<g id="a_node36"><a xlink:href="_buffer_attribute_8h.html" target="_top" xlink:title=" ">
<polygon fill="white" stroke="black" points="1376.5,-297 1376.5,-316 1462.5,-316 1462.5,-297 1376.5,-297"/>
<text text-anchor="middle" x="1419.5" y="-304" font-family="Helvetica,sans-Serif" font-size="10.00">BufferAttribute.h</text>
</a>
</g>
</g>
<!-- Node1&#45;&gt;Node36 -->
<g id="edge51" class="edge">
<title>Node1&#45;&gt;Node36</title>
<path fill="none" stroke="midnightblue" d="M850.09,-492.35C965.49,-454.89 1277.33,-353.65 1383.52,-319.18"/>
<polygon fill="midnightblue" stroke="midnightblue" points="1384.71,-322.47 1393.14,-316.06 1382.55,-315.82 1384.71,-322.47"/>
</g>
<!-- Node3 -->
<g id="node3" class="node">
<title>Node3</title>
<g id="a_node3"><a xlink:title=" ">
<polygon fill="white" stroke="#bfbfbf" points="488.5,-297 488.5,-316 562.5,-316 562.5,-297 488.5,-297"/>
<text text-anchor="middle" x="525.5" y="-304" font-family="Helvetica,sans-Serif" font-size="10.00">glm/vec2.hpp</text>
</a>
</g>
</g>
<!-- Node2&#45;&gt;Node3 -->
<g id="edge2" class="edge">
<title>Node2&#45;&gt;Node3</title>
<path fill="none" stroke="midnightblue" d="M426.38,-425.37C447.08,-400.76 489.66,-350.12 511.66,-323.96"/>
<polygon fill="midnightblue" stroke="midnightblue" points="514.51,-326 518.27,-316.1 509.16,-321.5 514.51,-326"/>
</g>
<!-- Node4 -->
<g id="node4" class="node">
<title>Node4</title>
<g id="a_node4"><a xlink:title=" ">
<polygon fill="white" stroke="#bfbfbf" points="654.5,-179.5 654.5,-198.5 728.5,-198.5 728.5,-179.5 654.5,-179.5"/>
<text text-anchor="middle" x="691.5" y="-186.5" font-family="Helvetica,sans-Serif" font-size="10.00">glm/vec3.hpp</text>
</a>
</g>
</g>
<!-- Node2&#45;&gt;Node4 -->
<g id="edge3" class="edge">
<title>Node2&#45;&gt;Node4</title>
<path fill="none" stroke="midnightblue" d="M413.31,-425.42C411.38,-408.5 406.5,-379.66 394.5,-358 383.68,-338.48 367.89,-342.68 359.5,-322 344.95,-286.17 334.06,-264.12 359.5,-235 395.88,-193.36 561.33,-188.75 644.08,-189.13"/>
<polygon fill="midnightblue" stroke="midnightblue" points="644.2,-192.63 654.23,-189.21 644.25,-185.63 644.2,-192.63"/>
</g>
<!-- Node5 -->
<g id="node5" class="node">
<title>Node5</title>
<g id="a_node5"><a xlink:href="_cube_vertex_data_8h.html" target="_top" xlink:title=" ">
<polygon fill="white" stroke="black" points="154,-358.5 154,-388.5 273,-388.5 273,-358.5 154,-358.5"/>
<text text-anchor="start" x="162" y="-376.5" font-family="Helvetica,sans-Serif" font-size="10.00">kryne&#45;engine/Constants</text>
<text text-anchor="middle" x="213.5" y="-365.5" font-family="Helvetica,sans-Serif" font-size="10.00">/CubeVertexData.h</text>
</a>
</g>
</g>
<!-- Node2&#45;&gt;Node5 -->
<g id="edge4" class="edge">
<title>Node2&#45;&gt;Node5</title>
<path fill="none" stroke="midnightblue" d="M370.89,-425.4C340.33,-415.52 299.32,-402.25 266.82,-391.74"/>
<polygon fill="midnightblue" stroke="midnightblue" points="267.62,-388.32 257.03,-388.58 265.47,-394.98 267.62,-388.32"/>
</g>
<!-- Node6 -->
<g id="node6" class="node">
<title>Node6</title>
<g id="a_node6"><a xlink:href="kryne-engine_2_utils_2_utils_8h.html" target="_top" xlink:title=" ">
<polygon fill="white" stroke="black" points="291,-358.5 291,-388.5 386,-388.5 386,-358.5 291,-358.5"/>
<text text-anchor="start" x="299" y="-376.5" font-family="Helvetica,sans-Serif" font-size="10.00">kryne&#45;engine/Utils</text>
<text text-anchor="middle" x="338.5" y="-365.5" font-family="Helvetica,sans-Serif" font-size="10.00">/Utils.h</text>
</a>
</g>
</g>
<!-- Node2&#45;&gt;Node6 -->
<g id="edge5" class="edge">
<title>Node2&#45;&gt;Node6</title>
<path fill="none" stroke="midnightblue" d="M398.01,-425.4C387.65,-416.54 374.12,-404.96 362.57,-395.09"/>
<polygon fill="midnightblue" stroke="midnightblue" points="364.83,-392.42 354.96,-388.58 360.28,-397.74 364.83,-392.42"/>
</g>
<!-- Node12 -->
<g id="node12" class="node">
<title>Node12</title>
<g id="a_node12"><a xlink:href="_dispatcher_8h.html" target="_top" xlink:title=" ">
<polygon fill="white" stroke="black" points="87,-291.5 87,-321.5 200,-321.5 200,-291.5 87,-291.5"/>
<text text-anchor="start" x="95" y="-309.5" font-family="Helvetica,sans-Serif" font-size="10.00">kryne&#45;engine/Dispatch</text>
<text text-anchor="middle" x="143.5" y="-298.5" font-family="Helvetica,sans-Serif" font-size="10.00">/Dispatcher.h</text>
</a>
</g>
</g>
<!-- Node2&#45;&gt;Node12 -->
<g id="edge11" class="edge">
<title>Node2&#45;&gt;Node12</title>
<path fill="none" stroke="midnightblue" d="M355.2,-436.92C284.03,-432.43 170.93,-420.44 144.5,-389 131.33,-373.34 132.72,-349.36 136.42,-331.46"/>
<polygon fill="midnightblue" stroke="midnightblue" points="139.83,-332.28 138.78,-321.74 133.02,-330.63 139.83,-332.28"/>
</g>
<!-- Node2&#45;&gt;Node26 -->
<g id="edge29" class="edge">
<title>Node2&#45;&gt;Node26</title>
<path fill="none" stroke="midnightblue" d="M473.61,-429.7C548.58,-417.27 676.92,-395.99 750.42,-383.8"/>
<polygon fill="midnightblue" stroke="midnightblue" points="751.12,-387.23 760.41,-382.14 749.97,-380.33 751.12,-387.23"/>
</g>
<!-- Node7 -->
<g id="node7" class="node">
<title>Node7</title>
<g id="a_node7"><a xlink:href="_string_utils_8hpp.html" target="_top" xlink:title=" ">
<polygon fill="white" stroke="black" points="362.5,-118 362.5,-137 442.5,-137 442.5,-118 362.5,-118"/>
<text text-anchor="middle" x="402.5" y="-125" font-family="Helvetica,sans-Serif" font-size="10.00">StringUtils.hpp</text>
</a>
</g>
</g>
<!-- Node6&#45;&gt;Node7 -->
<g id="edge6" class="edge">
<title>Node6&#45;&gt;Node7</title>
<path fill="none" stroke="midnightblue" d="M333.75,-358.44C325.95,-333.1 312.62,-278.36 326.5,-235 338.2,-198.47 367.53,-163.79 386.15,-144.42"/>
<polygon fill="midnightblue" stroke="midnightblue" points="388.85,-146.66 393.39,-137.09 383.87,-141.74 388.85,-146.66"/>
</g>
<!-- Node9 -->
<g id="node9" class="node">
<title>Node9</title>
<g id="a_node9"><a xlink:href="_vector_mapping_8hpp.html" target="_top" xlink:title=" ">
<polygon fill="white" stroke="black" points="369,-297 369,-316 470,-316 470,-297 369,-297"/>
<text text-anchor="middle" x="419.5" y="-304" font-family="Helvetica,sans-Serif" font-size="10.00">VectorMapping.hpp</text>
</a>
</g>
</g>
<!-- Node6&#45;&gt;Node9 -->
<g id="edge8" class="edge">
<title>Node6&#45;&gt;Node9</title>
<path fill="none" stroke="midnightblue" d="M356.08,-358.4C369.21,-347.86 387.13,-333.48 400.57,-322.69"/>
<polygon fill="midnightblue" stroke="midnightblue" points="403.06,-325.18 408.67,-316.19 398.68,-319.72 403.06,-325.18"/>
</g>
<!-- Node8 -->
<g id="node8" class="node">
<title>Node8</title>
<g id="a_node8"><a xlink:title=" ">
<polygon fill="white" stroke="#bfbfbf" points="454.5,-56.5 454.5,-75.5 508.5,-75.5 508.5,-56.5 454.5,-56.5"/>
<text text-anchor="middle" x="481.5" y="-63.5" font-family="Helvetica,sans-Serif" font-size="10.00">iostream</text>
</a>
</g>
</g>
<!-- Node7&#45;&gt;Node8 -->
<g id="edge7" class="edge">
<title>Node7&#45;&gt;Node8</title>
<path fill="none" stroke="midnightblue" d="M413.82,-117.98C426.37,-108.52 446.85,-93.1 462,-81.69"/>
<polygon fill="midnightblue" stroke="midnightblue" points="464.32,-84.32 470.2,-75.51 460.11,-78.73 464.32,-84.32"/>
</g>
<!-- Node10 -->
<g id="node10" class="node">
<title>Node10</title>
<g id="a_node10"><a xlink:title=" ">
<polygon fill="white" stroke="#bfbfbf" points="1320.5,-235.5 1320.5,-254.5 1362.5,-254.5 1362.5,-235.5 1320.5,-235.5"/>
<text text-anchor="middle" x="1341.5" y="-242.5" font-family="Helvetica,sans-Serif" font-size="10.00">vector</text>
</a>
</g>
</g>
<!-- Node9&#45;&gt;Node10 -->
<g id="edge9" class="edge">
<title>Node9&#45;&gt;Node10</title>
<path fill="none" stroke="midnightblue" d="M449.8,-296.98C459.24,-294.65 469.74,-292.39 479.5,-291 828.79,-241.33 921.04,-285.84 1272.5,-255 1284.85,-253.92 1298.38,-252.26 1310.16,-250.65"/>
<polygon fill="midnightblue" stroke="midnightblue" points="1310.99,-254.07 1320.41,-249.22 1310.02,-247.14 1310.99,-254.07"/>
</g>
<!-- Node11 -->
<g id="node11" class="node">
<title>Node11</title>
<g id="a_node11"><a xlink:title=" ">
<polygon fill="white" stroke="#bfbfbf" points="369,-235.5 369,-254.5 482,-254.5 482,-235.5 369,-235.5"/>
<text text-anchor="middle" x="425.5" y="-242.5" font-family="Helvetica,sans-Serif" font-size="10.00">glm/detail/qualifier.hpp</text>
</a>
</g>
</g>
<!-- Node9&#45;&gt;Node11 -->
<g id="edge10" class="edge">
<title>Node9&#45;&gt;Node11</title>
<path fill="none" stroke="midnightblue" d="M420.36,-296.98C421.21,-288.58 422.53,-275.48 423.62,-264.66"/>
<polygon fill="midnightblue" stroke="midnightblue" points="427.12,-264.81 424.64,-254.51 420.16,-264.11 427.12,-264.81"/>
</g>
<!-- Node13 -->
<g id="node13" class="node">
<title>Node13</title>
<g id="a_node13"><a xlink:href="_synchronizable_pool_8h.html" target="_top" xlink:title=" ">
<polygon fill="white" stroke="black" points="70,-179.5 70,-198.5 181,-198.5 181,-179.5 70,-179.5"/>
<text text-anchor="middle" x="125.5" y="-186.5" font-family="Helvetica,sans-Serif" font-size="10.00">SynchronizablePool.h</text>
</a>
</g>
</g>
<!-- Node12&#45;&gt;Node13 -->
<g id="edge12" class="edge">
<title>Node12&#45;&gt;Node13</title>
<path fill="none" stroke="midnightblue" d="M141.29,-291.34C138.05,-270.53 131.99,-231.66 128.4,-208.58"/>
<polygon fill="midnightblue" stroke="midnightblue" points="131.85,-208.01 126.85,-198.67 124.93,-209.09 131.85,-208.01"/>
</g>
<!-- Node23 -->
<g id="node23" class="node">
<title>Node23</title>
<g id="a_node23"><a xlink:href="_runner_pool_8h.html" target="_top" xlink:title=" ">
<polygon fill="white" stroke="black" points="199,-179.5 199,-198.5 274,-198.5 274,-179.5 199,-179.5"/>
<text text-anchor="middle" x="236.5" y="-186.5" font-family="Helvetica,sans-Serif" font-size="10.00">RunnerPool.h</text>
</a>
</g>
</g>
<!-- Node12&#45;&gt;Node23 -->
<g id="edge23" class="edge">
<title>Node12&#45;&gt;Node23</title>
<path fill="none" stroke="midnightblue" d="M154.9,-291.34C172.12,-269.96 204.67,-229.53 223.03,-206.73"/>
<polygon fill="midnightblue" stroke="midnightblue" points="225.97,-208.65 229.52,-198.67 220.52,-204.26 225.97,-208.65"/>
</g>
<!-- Node24 -->
<g id="node24" class="node">
<title>Node24</title>
<g id="a_node24"><a xlink:href="_main_pool_8h.html" target="_top" xlink:title=" ">
<polygon fill="white" stroke="black" points="50,-235.5 50,-254.5 115,-254.5 115,-235.5 50,-235.5"/>
<text text-anchor="middle" x="82.5" y="-242.5" font-family="Helvetica,sans-Serif" font-size="10.00">MainPool.h</text>
</a>
</g>
</g>
<!-- Node12&#45;&gt;Node24 -->
<g id="edge25" class="edge">
<title>Node12&#45;&gt;Node24</title>
<path fill="none" stroke="midnightblue" d="M129.04,-291.4C119.91,-282.49 108.08,-270.95 98.64,-261.74"/>
<polygon fill="midnightblue" stroke="midnightblue" points="100.98,-259.13 91.38,-254.66 96.09,-264.15 100.98,-259.13"/>
</g>
<!-- Node14 -->
<g id="node14" class="node">
<title>Node14</title>
<g id="a_node14"><a xlink:href="_thread_pool_8h.html" target="_top" xlink:title=" ">
<polygon fill="white" stroke="black" points="199.5,-118 199.5,-137 273.5,-137 273.5,-118 199.5,-118"/>
<text text-anchor="middle" x="236.5" y="-125" font-family="Helvetica,sans-Serif" font-size="10.00">ThreadPool.h</text>
</a>
</g>
</g>
<!-- Node13&#45;&gt;Node14 -->
<g id="edge13" class="edge">
<title>Node13&#45;&gt;Node14</title>
<path fill="none" stroke="midnightblue" d="M141.4,-179.48C159.78,-169.62 190.26,-153.29 211.74,-141.77"/>
<polygon fill="midnightblue" stroke="midnightblue" points="213.47,-144.82 220.63,-137.01 210.16,-138.65 213.47,-144.82"/>
</g>
<!-- Node14&#45;&gt;Node8 -->
<g id="edge19" class="edge">
<title>Node14&#45;&gt;Node8</title>
<path fill="none" stroke="midnightblue" d="M271.83,-117.93C313.22,-107.88 383.84,-90.74 444.5,-76 444.6,-75.98 444.7,-75.95 444.8,-75.93"/>
<polygon fill="midnightblue" stroke="midnightblue" points="445.53,-79.35 454.42,-73.59 443.88,-72.55 445.53,-79.35"/>
</g>
<!-- Node15 -->
<g id="node15" class="node">
<title>Node15</title>
<g id="a_node15"><a xlink:title=" ">
<polygon fill="white" stroke="#bfbfbf" points="280.5,-56.5 280.5,-75.5 324.5,-75.5 324.5,-56.5 280.5,-56.5"/>
<text text-anchor="middle" x="302.5" y="-63.5" font-family="Helvetica,sans-Serif" font-size="10.00">thread</text>
</a>
</g>
</g>
<!-- Node14&#45;&gt;Node15 -->
<g id="edge14" class="edge">
<title>Node14&#45;&gt;Node15</title>
<path fill="none" stroke="midnightblue" d="M245.96,-117.98C256.25,-108.7 272.92,-93.67 285.49,-82.33"/>
<polygon fill="midnightblue" stroke="midnightblue" points="287.98,-84.8 293.06,-75.51 283.29,-79.61 287.98,-84.8"/>
</g>
<!-- Node16 -->
<g id="node16" class="node">
<title>Node16</title>
<g id="a_node16"><a xlink:title=" ">
<polygon fill="white" stroke="#bfbfbf" points="58.5,-56.5 58.5,-75.5 102.5,-75.5 102.5,-56.5 58.5,-56.5"/>
<text text-anchor="middle" x="80.5" y="-63.5" font-family="Helvetica,sans-Serif" font-size="10.00">mutex</text>
</a>
</g>
</g>
<!-- Node14&#45;&gt;Node16 -->
<g id="edge15" class="edge">
<title>Node14&#45;&gt;Node16</title>
<path fill="none" stroke="midnightblue" d="M214.15,-117.98C187.51,-107.81 142.79,-90.76 112.49,-79.2"/>
<polygon fill="midnightblue" stroke="midnightblue" points="113.4,-75.8 102.81,-75.51 110.91,-82.34 113.4,-75.8"/>
</g>
<!-- Node17 -->
<g id="node17" class="node">
<title>Node17</title>
<g id="a_node17"><a xlink:title=" ">
<polygon fill="white" stroke="#bfbfbf" points="343,-56.5 343,-75.5 436,-75.5 436,-56.5 343,-56.5"/>
<text text-anchor="middle" x="389.5" y="-63.5" font-family="Helvetica,sans-Serif" font-size="10.00">condition_variable</text>
</a>
</g>
</g>
<!-- Node14&#45;&gt;Node17 -->
<g id="edge16" class="edge">
<title>Node14&#45;&gt;Node17</title>
<path fill="none" stroke="midnightblue" d="M258.42,-117.98C284.55,-107.81 328.41,-90.76 358.13,-79.2"/>
<polygon fill="midnightblue" stroke="midnightblue" points="359.57,-82.4 367.62,-75.51 357.03,-75.87 359.57,-82.4"/>
</g>
<!-- Node18 -->
<g id="node18" class="node">
<title>Node18</title>
<g id="a_node18"><a xlink:title=" ">
<polygon fill="white" stroke="#bfbfbf" points="136,-56.5 136,-75.5 177,-75.5 177,-56.5 136,-56.5"/>
<text text-anchor="middle" x="156.5" y="-63.5" font-family="Helvetica,sans-Serif" font-size="10.00">future</text>
</a>
</g>
</g>
<!-- Node14&#45;&gt;Node18 -->
<g id="edge17" class="edge">
<title>Node14&#45;&gt;Node18</title>
<path fill="none" stroke="midnightblue" d="M225.04,-117.98C212.33,-108.52 191.59,-93.1 176.25,-81.69"/>
<polygon fill="midnightblue" stroke="midnightblue" points="178.05,-78.67 167.94,-75.51 173.88,-84.29 178.05,-78.67"/>
</g>
<!-- Node19 -->
<g id="node19" class="node">
<title>Node19</title>
<g id="a_node19"><a xlink:title=" ">
<polygon fill="white" stroke="#bfbfbf" points="650.5,-56.5 650.5,-75.5 702.5,-75.5 702.5,-56.5 650.5,-56.5"/>
<text text-anchor="middle" x="676.5" y="-63.5" font-family="Helvetica,sans-Serif" font-size="10.00">memory</text>
</a>
</g>
</g>
<!-- Node14&#45;&gt;Node19 -->
<g id="edge18" class="edge">
<title>Node14&#45;&gt;Node19</title>
<path fill="none" stroke="midnightblue" d="M273.63,-121.48C356.9,-110.22 557.66,-83.07 640.17,-71.91"/>
<polygon fill="midnightblue" stroke="midnightblue" points="640.87,-75.35 650.31,-70.54 639.93,-68.41 640.87,-75.35"/>
</g>
<!-- Node20 -->
<g id="node20" class="node">
<title>Node20</title>
<g id="a_node20"><a xlink:href="_base_pool_8h.html" target="_top" xlink:title=" ">
<polygon fill="white" stroke="black" points="195,-56.5 195,-75.5 262,-75.5 262,-56.5 195,-56.5"/>
<text text-anchor="middle" x="228.5" y="-63.5" font-family="Helvetica,sans-Serif" font-size="10.00">BasePool.h</text>
</a>
</g>
</g>
<!-- Node14&#45;&gt;Node20 -->
<g id="edge20" class="edge">
<title>Node14&#45;&gt;Node20</title>
<path fill="none" stroke="midnightblue" d="M235.35,-117.98C234.23,-109.58 232.46,-96.48 231.01,-85.66"/>
<polygon fill="midnightblue" stroke="midnightblue" points="234.45,-84.95 229.64,-75.51 227.51,-85.89 234.45,-84.95"/>
</g>
<!-- Node21 -->
<g id="node21" class="node">
<title>Node21</title>
<g id="a_node21"><a xlink:title=" ">
<polygon fill="white" stroke="#bfbfbf" points="207,-0.5 207,-19.5 250,-19.5 250,-0.5 207,-0.5"/>
<text text-anchor="middle" x="228.5" y="-7.5" font-family="Helvetica,sans-Serif" font-size="10.00">queue</text>
</a>
</g>
</g>
<!-- Node20&#45;&gt;Node21 -->
<g id="edge21" class="edge">
<title>Node20&#45;&gt;Node21</title>
<path fill="none" stroke="midnightblue" d="M228.5,-56.08C228.5,-49.01 228.5,-38.86 228.5,-29.99"/>
<polygon fill="midnightblue" stroke="midnightblue" points="232,-29.75 228.5,-19.75 225,-29.75 232,-29.75"/>
</g>
<!-- Node22 -->
<g id="node22" class="node">
<title>Node22</title>
<g id="a_node22"><a xlink:title=" ">
<polygon fill="white" stroke="#bfbfbf" points="743.5,-0.5 743.5,-19.5 801.5,-19.5 801.5,-0.5 743.5,-0.5"/>
<text text-anchor="middle" x="772.5" y="-7.5" font-family="Helvetica,sans-Serif" font-size="10.00">functional</text>
</a>
</g>
</g>
<!-- Node20&#45;&gt;Node22 -->
<g id="edge22" class="edge">
<title>Node20&#45;&gt;Node22</title>
<path fill="none" stroke="midnightblue" d="M262.23,-57.55C265.36,-56.98 268.48,-56.45 271.5,-56 442.34,-30.54 648.26,-17.56 733.07,-12.97"/>
<polygon fill="midnightblue" stroke="midnightblue" points="733.48,-16.46 743.28,-12.43 733.1,-9.47 733.48,-16.46"/>
</g>
<!-- Node23&#45;&gt;Node14 -->
<g id="edge24" class="edge">
<title>Node23&#45;&gt;Node14</title>
<path fill="none" stroke="midnightblue" d="M236.5,-179.48C236.5,-171.08 236.5,-157.98 236.5,-147.16"/>
<polygon fill="midnightblue" stroke="midnightblue" points="240,-147.01 236.5,-137.01 233,-147.01 240,-147.01"/>
</g>
<!-- Node24&#45;&gt;Node13 -->
<g id="edge28" class="edge">
<title>Node24&#45;&gt;Node13</title>
<path fill="none" stroke="midnightblue" d="M89.6,-235.08C95.74,-227.38 104.77,-216.03 112.24,-206.65"/>
<polygon fill="midnightblue" stroke="midnightblue" points="115.04,-208.75 118.53,-198.75 109.56,-204.39 115.04,-208.75"/>
</g>
<!-- Node25 -->
<g id="node25" class="node">
<title>Node25</title>
<g id="a_node25"><a xlink:href="_multithreading_8hpp.html" target="_top" xlink:title=" ">
<polygon fill="white" stroke="black" points="0,-112.5 0,-142.5 99,-142.5 99,-112.5 0,-112.5"/>
<text text-anchor="start" x="8" y="-130.5" font-family="Helvetica,sans-Serif" font-size="10.00">kryne&#45;engine/Utils</text>
<text text-anchor="middle" x="49.5" y="-119.5" font-family="Helvetica,sans-Serif" font-size="10.00">/Multithreading.hpp</text>
</a>
</g>
</g>
<!-- Node24&#45;&gt;Node25 -->
<g id="edge26" class="edge">
<title>Node24&#45;&gt;Node25</title>
<path fill="none" stroke="midnightblue" d="M77.3,-235.36C72.22,-226.53 64.67,-212.27 60.5,-199 55.78,-183.99 53.03,-166.51 51.47,-152.72"/>
<polygon fill="midnightblue" stroke="midnightblue" points="54.93,-152.16 50.45,-142.56 47.96,-152.86 54.93,-152.16"/>
</g>
<!-- Node25&#45;&gt;Node16 -->
<g id="edge27" class="edge">
<title>Node25&#45;&gt;Node16</title>
<path fill="none" stroke="midnightblue" d="M56.85,-112.4C61.17,-104.11 66.67,-93.55 71.27,-84.71"/>
<polygon fill="midnightblue" stroke="midnightblue" points="74.47,-86.14 75.99,-75.66 68.26,-82.91 74.47,-86.14"/>
</g>
<!-- Node26&#45;&gt;Node3 -->
<g id="edge35" class="edge">
<title>Node26&#45;&gt;Node3</title>
<path fill="none" stroke="midnightblue" d="M763.93,-363.96C717.62,-354.49 641.52,-338.36 576.5,-322 572.43,-320.98 568.2,-319.86 563.98,-318.71"/>
<polygon fill="midnightblue" stroke="midnightblue" points="564.85,-315.32 554.28,-316.01 562.97,-322.06 564.85,-315.32"/>
</g>
<!-- Node26&#45;&gt;Node4 -->
<g id="edge36" class="edge">
<title>Node26&#45;&gt;Node4</title>
<path fill="none" stroke="midnightblue" d="M812.5,-363.89C822.66,-348.15 840.73,-314.2 825.5,-291 803.44,-257.38 774.33,-279.57 742.5,-255 725.53,-241.9 710.98,-221.93 701.82,-207.59"/>
<polygon fill="midnightblue" stroke="midnightblue" points="704.59,-205.4 696.38,-198.71 698.62,-209.06 704.59,-205.4"/>
</g>
<!-- Node26&#45;&gt;Node8 -->
<g id="edge32" class="edge">
<title>Node26&#45;&gt;Node8</title>
<path fill="none" stroke="midnightblue" d="M760.08,-366.16C708.72,-358.21 630.41,-343.03 609.5,-322 584.95,-297.31 590.5,-280.82 590.5,-246 590.5,-246 590.5,-246 590.5,-188 590.5,-138.59 539.71,-100.26 507.47,-80.9"/>
<polygon fill="midnightblue" stroke="midnightblue" points="508.94,-77.71 498.53,-75.73 505.44,-83.76 508.94,-77.71"/>
</g>
<!-- Node26&#45;&gt;Node12 -->
<g id="edge38" class="edge">
<title>Node26&#45;&gt;Node12</title>
<path fill="none" stroke="midnightblue" d="M760.41,-367.98C645.35,-356.7 345.14,-327.27 210.52,-314.07"/>
<polygon fill="midnightblue" stroke="midnightblue" points="210.64,-310.57 200.34,-313.07 209.95,-317.53 210.64,-310.57"/>
</g>
<!-- Node26&#45;&gt;Node19 -->
<g id="edge31" class="edge">
<title>Node26&#45;&gt;Node19</title>
<path fill="none" stroke="midnightblue" d="M815.93,-363.59C831.01,-348.21 857.42,-315.96 842.5,-291 825.15,-261.99 799.05,-279.25 775.5,-255 749.19,-227.91 754.98,-212.48 737.5,-179 719.9,-145.3 698.47,-106.42 686.26,-84.47"/>
<polygon fill="midnightblue" stroke="midnightblue" points="689.28,-82.69 681.35,-75.66 683.16,-86.1 689.28,-82.69"/>
</g>
<!-- Node26&#45;&gt;Node22 -->
<g id="edge34" class="edge">
<title>Node26&#45;&gt;Node22</title>
<path fill="none" stroke="midnightblue" d="M852.87,-366.95C958.74,-353.36 1213.67,-315.04 1272.5,-255 1293.65,-233.41 1292.5,-220.23 1292.5,-190 1292.5,-190 1292.5,-190 1292.5,-126.5 1292.5,-28.09 933.1,-13.48 811.88,-11.35"/>
<polygon fill="midnightblue" stroke="midnightblue" points="811.63,-7.85 801.57,-11.19 811.52,-14.85 811.63,-7.85"/>
</g>
<!-- Node27 -->
<g id="node27" class="node">
<title>Node27</title>
<g id="a_node27"><a xlink:title=" ">
<polygon fill="white" stroke="#bfbfbf" points="1302.5,-297 1302.5,-316 1358.5,-316 1358.5,-297 1302.5,-297"/>
<text text-anchor="middle" x="1330.5" y="-304" font-family="Helvetica,sans-Serif" font-size="10.00">algorithm</text>
</a>
</g>
</g>
<!-- Node26&#45;&gt;Node27 -->
<g id="edge30" class="edge">
<title>Node26&#45;&gt;Node27</title>
<path fill="none" stroke="midnightblue" d="M852.58,-371.16C939.02,-367.88 1131,-356.96 1288.5,-322 1291.92,-321.24 1295.44,-320.3 1298.93,-319.25"/>
<polygon fill="midnightblue" stroke="midnightblue" points="1300.11,-322.55 1308.54,-316.14 1297.95,-315.89 1300.11,-322.55"/>
</g>
<!-- Node28 -->
<g id="node28" class="node">
<title>Node28</title>
<g id="a_node28"><a xlink:title=" ">
<polygon fill="white" stroke="#bfbfbf" points="619,-297 619,-316 702,-316 702,-297 619,-297"/>
<text text-anchor="middle" x="660.5" y="-304" font-family="Helvetica,sans-Serif" font-size="10.00">unordered_map</text>
</a>
</g>
</g>
<!-- Node26&#45;&gt;Node28 -->
<g id="edge33" class="edge">
<title>Node26&#45;&gt;Node28</title>
<path fill="none" stroke="midnightblue" d="M787.11,-363.87C762.02,-352.7 718.11,-333.15 689.16,-320.26"/>
<polygon fill="midnightblue" stroke="midnightblue" points="690.53,-317.04 679.97,-316.17 687.68,-323.43 690.53,-317.04"/>
</g>
<!-- Node29 -->
<g id="node29" class="node">
<title>Node29</title>
<g id="a_node29"><a xlink:title=" ">
<polygon fill="white" stroke="#bfbfbf" points="720,-297 720,-316 817,-316 817,-297 720,-297"/>
<text text-anchor="middle" x="768.5" y="-304" font-family="Helvetica,sans-Serif" font-size="10.00">glm/geometric.hpp</text>
</a>
</g>
</g>
<!-- Node26&#45;&gt;Node29 -->
<g id="edge37" class="edge">
<title>Node26&#45;&gt;Node29</title>
<path fill="none" stroke="midnightblue" d="M801.38,-363.73C795.56,-353.79 785.94,-337.34 778.61,-324.79"/>
<polygon fill="midnightblue" stroke="midnightblue" points="781.61,-322.99 773.54,-316.13 775.57,-326.53 781.61,-322.99"/>
</g>
<!-- Node30 -->
<g id="node30" class="node">
<title>Node30</title>
<g id="a_node30"><a xlink:href="_sphere_8hpp.html" target="_top" xlink:title=" ">
<polygon fill="white" stroke="black" points="912,-297 912,-316 1061,-316 1061,-297 912,-297"/>
<text text-anchor="middle" x="986.5" y="-304" font-family="Helvetica,sans-Serif" font-size="10.00">kryne&#45;engine/Math/Sphere.hpp</text>
</a>
</g>
</g>
<!-- Node26&#45;&gt;Node30 -->
<g id="edge39" class="edge">
<title>Node26&#45;&gt;Node30</title>
<path fill="none" stroke="midnightblue" d="M830.4,-363.87C861.96,-352.47 917.68,-332.35 953.31,-319.49"/>
<polygon fill="midnightblue" stroke="midnightblue" points="954.57,-322.75 962.79,-316.06 952.19,-316.17 954.57,-322.75"/>
</g>
<!-- Node26&#45;&gt;Node36 -->
<g id="edge46" class="edge">
<title>Node26&#45;&gt;Node36</title>
<path fill="none" stroke="midnightblue" d="M852.7,-371.19C949.11,-367.82 1178.48,-356.56 1367.5,-322 1372.37,-321.11 1377.45,-319.97 1382.44,-318.72"/>
<polygon fill="midnightblue" stroke="midnightblue" points="1383.7,-322 1392.46,-316.05 1381.9,-315.24 1383.7,-322"/>
</g>
<!-- Node31 -->
<g id="node31" class="node">
<title>Node31</title>
<g id="a_node31"><a xlink:title=" ">
<polygon fill="white" stroke="#bfbfbf" points="906.5,-235.5 906.5,-254.5 992.5,-254.5 992.5,-235.5 906.5,-235.5"/>
<text text-anchor="middle" x="949.5" y="-242.5" font-family="Helvetica,sans-Serif" font-size="10.00">glm/mat4x4.hpp</text>
</a>
</g>
</g>
<!-- Node30&#45;&gt;Node31 -->
<g id="edge40" class="edge">
<title>Node30&#45;&gt;Node31</title>
<path fill="none" stroke="midnightblue" d="M981.2,-296.98C975.76,-288.23 967.14,-274.37 960.26,-263.31"/>
<polygon fill="midnightblue" stroke="midnightblue" points="963.04,-261.15 954.79,-254.51 957.1,-264.85 963.04,-261.15"/>
</g>
<!-- Node32 -->
<g id="node32" class="node">
<title>Node32</title>
<g id="a_node32"><a xlink:title=" ">
<polygon fill="white" stroke="#bfbfbf" points="1010.5,-235.5 1010.5,-254.5 1102.5,-254.5 1102.5,-235.5 1010.5,-235.5"/>
<text text-anchor="middle" x="1056.5" y="-242.5" font-family="Helvetica,sans-Serif" font-size="10.00">glm/gtx/norm.hpp</text>
</a>
</g>
</g>
<!-- Node30&#45;&gt;Node32 -->
<g id="edge41" class="edge">
<title>Node30&#45;&gt;Node32</title>
<path fill="none" stroke="midnightblue" d="M996.53,-296.98C1007.55,-287.61 1025.46,-272.38 1038.84,-261.01"/>
<polygon fill="midnightblue" stroke="midnightblue" points="1041.14,-263.65 1046.49,-254.51 1036.6,-258.32 1041.14,-263.65"/>
</g>
<!-- Node33 -->
<g id="node33" class="node">
<title>Node33</title>
<g id="a_node33"><a xlink:title=" ">
<polygon fill="white" stroke="#bfbfbf" points="1121,-235.5 1121,-254.5 1264,-254.5 1264,-235.5 1121,-235.5"/>
<text text-anchor="middle" x="1192.5" y="-242.5" font-family="Helvetica,sans-Serif" font-size="10.00">glm/gtx/component_wise.hpp</text>
</a>
</g>
</g>
<!-- Node30&#45;&gt;Node33 -->
<g id="edge42" class="edge">
<title>Node30&#45;&gt;Node33</title>
<path fill="none" stroke="midnightblue" d="M1016.01,-296.98C1052.12,-286.55 1113.35,-268.86 1153.35,-257.31"/>
<polygon fill="midnightblue" stroke="midnightblue" points="1154.4,-260.65 1163.04,-254.51 1152.46,-253.92 1154.4,-260.65"/>
</g>
<!-- Node34 -->
<g id="node34" class="node">
<title>Node34</title>
<g id="a_node34"><a xlink:href="_axis_aligned_box_8hpp.html" target="_top" xlink:title=" ">
<polygon fill="white" stroke="black" points="784.5,-235.5 784.5,-254.5 888.5,-254.5 888.5,-235.5 784.5,-235.5"/>
<text text-anchor="middle" x="836.5" y="-242.5" font-family="Helvetica,sans-Serif" font-size="10.00">AxisAlignedBox.hpp</text>
</a>
</g>
</g>
<!-- Node30&#45;&gt;Node34 -->
<g id="edge43" class="edge">
<title>Node30&#45;&gt;Node34</title>
<path fill="none" stroke="midnightblue" d="M965.01,-296.98C939.39,-286.81 896.39,-269.76 867.26,-258.2"/>
<polygon fill="midnightblue" stroke="midnightblue" points="868.54,-254.94 857.95,-254.51 865.96,-261.45 868.54,-254.94"/>
</g>
<!-- Node34&#45;&gt;Node4 -->
<g id="edge44" class="edge">
<title>Node34&#45;&gt;Node4</title>
<path fill="none" stroke="midnightblue" d="M813.52,-235.44C789.34,-226.44 751.08,-212.19 723.85,-202.05"/>
<polygon fill="midnightblue" stroke="midnightblue" points="724.96,-198.73 714.37,-198.52 722.52,-205.29 724.96,-198.73"/>
</g>
<!-- Node35 -->
<g id="node35" class="node">
<title>Node35</title>
<g id="a_node35"><a xlink:title=" ">
<polygon fill="white" stroke="#bfbfbf" points="790.5,-179.5 790.5,-198.5 882.5,-198.5 882.5,-179.5 790.5,-179.5"/>
<text text-anchor="middle" x="836.5" y="-186.5" font-family="Helvetica,sans-Serif" font-size="10.00">glm/common.hpp</text>
</a>
</g>
</g>
<!-- Node34&#45;&gt;Node35 -->
<g id="edge45" class="edge">
<title>Node34&#45;&gt;Node35</title>
<path fill="none" stroke="midnightblue" d="M836.5,-235.08C836.5,-228.01 836.5,-217.86 836.5,-208.99"/>
<polygon fill="midnightblue" stroke="midnightblue" points="840,-208.75 836.5,-198.75 833,-208.75 840,-208.75"/>
</g>
<!-- Node36&#45;&gt;Node10 -->
<g id="edge47" class="edge">
<title>Node36&#45;&gt;Node10</title>
<path fill="none" stroke="midnightblue" d="M1408.32,-296.98C1395.93,-287.52 1375.71,-272.1 1360.75,-260.69"/>
<polygon fill="midnightblue" stroke="midnightblue" points="1362.73,-257.79 1352.65,-254.51 1358.48,-263.36 1362.73,-257.79"/>
</g>
<!-- Node37 -->
<g id="node37" class="node">
<title>Node37</title>
<g id="a_node37"><a xlink:title=" ">
<polygon fill="white" stroke="#bfbfbf" points="1381,-235.5 1381,-254.5 1422,-254.5 1422,-235.5 1381,-235.5"/>
<text text-anchor="middle" x="1401.5" y="-242.5" font-family="Helvetica,sans-Serif" font-size="10.00">string</text>
</a>
</g>
</g>
<!-- Node36&#45;&gt;Node37 -->
<g id="edge48" class="edge">
<title>Node36&#45;&gt;Node37</title>
<path fill="none" stroke="midnightblue" d="M1416.92,-296.98C1414.35,-288.49 1410.33,-275.2 1407.04,-264.32"/>
<polygon fill="midnightblue" stroke="midnightblue" points="1410.32,-263.07 1404.07,-254.51 1403.62,-265.09 1410.32,-263.07"/>
</g>
<!-- Node38 -->
<g id="node38" class="node">
<title>Node38</title>
<g id="a_node38"><a xlink:title=" ">
<polygon fill="white" stroke="#bfbfbf" points="1440.5,-235.5 1440.5,-254.5 1504.5,-254.5 1504.5,-235.5 1440.5,-235.5"/>
<text text-anchor="middle" x="1472.5" y="-242.5" font-family="Helvetica,sans-Serif" font-size="10.00">glad/glad.h</text>
</a>
</g>
</g>
<!-- Node36&#45;&gt;Node38 -->
<g id="edge49" class="edge">
<title>Node36&#45;&gt;Node38</title>
<path fill="none" stroke="midnightblue" d="M1427.09,-296.98C1435.2,-287.87 1448.23,-273.24 1458.26,-261.98"/>
<polygon fill="midnightblue" stroke="midnightblue" points="1460.88,-264.3 1464.92,-254.51 1455.66,-259.65 1460.88,-264.3"/>
</g>
<!-- Node39 -->
<g id="node39" class="node">
<title>Node39</title>
<g id="a_node39"><a xlink:title=" ">
<polygon fill="white" stroke="#bfbfbf" points="1522.5,-235.5 1522.5,-254.5 1600.5,-254.5 1600.5,-235.5 1522.5,-235.5"/>
<text text-anchor="middle" x="1561.5" y="-242.5" font-family="Helvetica,sans-Serif" font-size="10.00">GLFW/glfw3.h</text>
</a>
</g>
</g>
<!-- Node36&#45;&gt;Node39 -->
<g id="edge50" class="edge">
<title>Node36&#45;&gt;Node39</title>
<path fill="none" stroke="midnightblue" d="M1439.85,-296.98C1463.89,-286.9 1504.1,-270.05 1531.66,-258.5"/>
<polygon fill="midnightblue" stroke="midnightblue" points="1533.32,-261.6 1541.19,-254.51 1530.62,-255.15 1533.32,-261.6"/>
</g>
</g>
</svg>
