<?xml version="1.0" encoding="UTF-8" standalone="no"?>
<!DOCTYPE svg PUBLIC "-//W3C//DTD SVG 1.1//EN"
 "http://www.w3.org/Graphics/SVG/1.1/DTD/svg11.dtd">
<!-- Generated by graphviz version 2.44.1 (20200629.0846)
 -->
<!-- Title: kryne&#45;engine/include/kryne&#45;engine/Core/GeometricShapes.h Pages: 1 -->
<svg width="434pt" height="117pt"
 viewBox="0.00 0.00 433.50 117.00" xmlns="http://www.w3.org/2000/svg" xmlns:xlink="http://www.w3.org/1999/xlink">
<g id="graph0" class="graph" transform="scale(1 1) rotate(0) translate(4 113)">
<title>kryne&#45;engine/include/kryne&#45;engine/Core/GeometricShapes.h</title>
<polygon fill="white" stroke="transparent" points="-4,4 -4,-113 429.5,-113 429.5,4 -4,4"/>
<!-- Node1 -->
<g id="node1" class="node">
<title>Node1</title>
<g id="a_node1"><a xlink:title=" ">
<polygon fill="#bfbfbf" stroke="black" points="86,-67.5 86,-108.5 232,-108.5 232,-67.5 86,-67.5"/>
<text text-anchor="start" x="94" y="-96.5" font-family="Helvetica,sans-Serif" font-size="10.00">kryne&#45;engine/include</text>
<text text-anchor="start" x="94" y="-85.5" font-family="Helvetica,sans-Serif" font-size="10.00">/kryne&#45;engine/Core/Geometric</text>
<text text-anchor="middle" x="159" y="-74.5" font-family="Helvetica,sans-Serif" font-size="10.00">Shapes.h</text>
</a>
</g>
</g>
<!-- Node2 -->
<g id="node2" class="node">
<title>Node2</title>
<g id="a_node2"><a xlink:title=" ">
<polygon fill="white" stroke="#bfbfbf" points="0,-6 0,-25 42,-25 42,-6 0,-6"/>
<text text-anchor="middle" x="21" y="-13" font-family="Helvetica,sans-Serif" font-size="10.00">vector</text>
</a>
</g>
</g>
<!-- Node1&#45;&gt;Node2 -->
<g id="edge1" class="edge">
<title>Node1&#45;&gt;Node2</title>
<path fill="none" stroke="midnightblue" d="M120.56,-67.36C97.15,-55.4 67.86,-40.44 47.13,-29.85"/>
<polygon fill="midnightblue" stroke="midnightblue" points="48.48,-26.61 37.98,-25.17 45.29,-32.84 48.48,-26.61"/>
</g>
<!-- Node3 -->
<g id="node3" class="node">
<title>Node3</title>
<g id="a_node3"><a xlink:title=" ">
<polygon fill="white" stroke="#bfbfbf" points="60,-6 60,-25 104,-25 104,-6 60,-6"/>
<text text-anchor="middle" x="82" y="-13" font-family="Helvetica,sans-Serif" font-size="10.00">cmath</text>
</a>
</g>
</g>
<!-- Node1&#45;&gt;Node3 -->
<g id="edge2" class="edge">
<title>Node1&#45;&gt;Node3</title>
<path fill="none" stroke="midnightblue" d="M137.55,-67.36C125.38,-56.21 110.35,-42.46 99,-32.06"/>
<polygon fill="midnightblue" stroke="midnightblue" points="101.21,-29.34 91.47,-25.17 96.49,-34.51 101.21,-29.34"/>
</g>
<!-- Node4 -->
<g id="node4" class="node">
<title>Node4</title>
<g id="a_node4"><a xlink:title=" ">
<polygon fill="white" stroke="#bfbfbf" points="122,-6 122,-25 196,-25 196,-6 122,-6"/>
<text text-anchor="middle" x="159" y="-13" font-family="Helvetica,sans-Serif" font-size="10.00">glm/vec2.hpp</text>
</a>
</g>
</g>
<!-- Node1&#45;&gt;Node4 -->
<g id="edge3" class="edge">
<title>Node1&#45;&gt;Node4</title>
<path fill="none" stroke="midnightblue" d="M159,-67.36C159,-57.3 159,-45.1 159,-35.18"/>
<polygon fill="midnightblue" stroke="midnightblue" points="162.5,-35.17 159,-25.17 155.5,-35.17 162.5,-35.17"/>
</g>
<!-- Node5 -->
<g id="node5" class="node">
<title>Node5</title>
<g id="a_node5"><a xlink:title=" ">
<polygon fill="white" stroke="#bfbfbf" points="214,-6 214,-25 288,-25 288,-6 214,-6"/>
<text text-anchor="middle" x="251" y="-13" font-family="Helvetica,sans-Serif" font-size="10.00">glm/vec3.hpp</text>
</a>
</g>
</g>
<!-- Node1&#45;&gt;Node5 -->
<g id="edge4" class="edge">
<title>Node1&#45;&gt;Node5</title>
<path fill="none" stroke="midnightblue" d="M184.63,-67.36C199.46,-56 217.82,-41.92 231.48,-31.46"/>
<polygon fill="midnightblue" stroke="midnightblue" points="233.87,-34.03 239.68,-25.17 229.62,-28.48 233.87,-34.03"/>
</g>
<!-- Node6 -->
<g id="node6" class="node">
<title>Node6</title>
<g id="a_node6"><a xlink:href="_cube_vertex_data_8h.html" target="_top" xlink:title=" ">
<polygon fill="white" stroke="black" points="306.5,-0.5 306.5,-30.5 425.5,-30.5 425.5,-0.5 306.5,-0.5"/>
<text text-anchor="start" x="314.5" y="-18.5" font-family="Helvetica,sans-Serif" font-size="10.00">kryne&#45;engine/Constants</text>
<text text-anchor="middle" x="366" y="-7.5" font-family="Helvetica,sans-Serif" font-size="10.00">/CubeVertexData.h</text>
</a>
</g>
</g>
<!-- Node1&#45;&gt;Node6 -->
<g id="edge5" class="edge">
<title>Node1&#45;&gt;Node6</title>
<path fill="none" stroke="midnightblue" d="M216.39,-67.46C247.24,-56.95 284.96,-44.1 314.81,-33.93"/>
<polygon fill="midnightblue" stroke="midnightblue" points="316.27,-37.13 324.61,-30.6 314.01,-30.51 316.27,-37.13"/>
</g>
</g>
</svg>
