<?xml version="1.0" encoding="UTF-8" standalone="no"?>
<!DOCTYPE svg PUBLIC "-//W3C//DTD SVG 1.1//EN"
 "http://www.w3.org/Graphics/SVG/1.1/DTD/svg11.dtd">
<!-- Generated by graphviz version 2.40.1 (20161225.0304)
 -->
<!-- Title: kryne&#45;engine/include/kryne&#45;engine/Core/GeometricShapes.h Pages: 1 -->
<svg width="438pt" height="117pt"
 viewBox="0.00 0.00 438.00 117.00" xmlns="http://www.w3.org/2000/svg" xmlns:xlink="http://www.w3.org/1999/xlink">
<g id="graph0" class="graph" transform="scale(1 1) rotate(0) translate(4 113)">
<title>kryne&#45;engine/include/kryne&#45;engine/Core/GeometricShapes.h</title>
<polygon fill="#ffffff" stroke="transparent" points="-4,4 -4,-113 434,-113 434,4 -4,4"/>
<!-- Node0 -->
<g id="node1" class="node">
<title>Node0</title>
<polygon fill="#bfbfbf" stroke="#000000" points="88.5,-67.5 88.5,-108.5 235.5,-108.5 235.5,-67.5 88.5,-67.5"/>
<text text-anchor="start" x="96.5" y="-96.5" font-family="Helvetica,sans-Serif" font-size="10.00" fill="#000000">kryne&#45;engine/include</text>
<text text-anchor="start" x="96.5" y="-85.5" font-family="Helvetica,sans-Serif" font-size="10.00" fill="#000000">/kryne&#45;engine/Core/Geometric</text>
<text text-anchor="middle" x="162" y="-74.5" font-family="Helvetica,sans-Serif" font-size="10.00" fill="#000000">Shapes.h</text>
</g>
<!-- Node1 -->
<g id="node2" class="node">
<title>Node1</title>
<polygon fill="#ffffff" stroke="#bfbfbf" points="0,-6 0,-25 44,-25 44,-6 0,-6"/>
<text text-anchor="middle" x="22" y="-13" font-family="Helvetica,sans-Serif" font-size="10.00" fill="#000000">vector</text>
</g>
<!-- Node0&#45;&gt;Node1 -->
<g id="edge1" class="edge">
<title>Node0&#45;&gt;Node1</title>
<path fill="none" stroke="#191970" d="M122.2561,-67.4183C98.9817,-55.3655 70.1815,-40.4511 49.4293,-29.7045"/>
<polygon fill="#191970" stroke="#191970" points="50.9991,-26.576 40.5096,-25.0853 47.7801,-32.7919 50.9991,-26.576"/>
</g>
<!-- Node2 -->
<g id="node3" class="node">
<title>Node2</title>
<polygon fill="#ffffff" stroke="#bfbfbf" points="62,-6 62,-25 106,-25 106,-6 62,-6"/>
<text text-anchor="middle" x="84" y="-13" font-family="Helvetica,sans-Serif" font-size="10.00" fill="#000000">cmath</text>
</g>
<!-- Node0&#45;&gt;Node2 -->
<g id="edge2" class="edge">
<title>Node0&#45;&gt;Node2</title>
<path fill="none" stroke="#191970" d="M139.857,-67.4183C127.8244,-56.2342 113.1409,-42.5861 101.849,-32.0904"/>
<polygon fill="#191970" stroke="#191970" points="104.02,-29.3299 94.3125,-25.0853 99.2543,-34.4571 104.02,-29.3299"/>
</g>
<!-- Node3 -->
<g id="node4" class="node">
<title>Node3</title>
<polygon fill="#ffffff" stroke="#bfbfbf" points="124.5,-6 124.5,-25 199.5,-25 199.5,-6 124.5,-6"/>
<text text-anchor="middle" x="162" y="-13" font-family="Helvetica,sans-Serif" font-size="10.00" fill="#000000">glm/vec2.hpp</text>
</g>
<!-- Node0&#45;&gt;Node3 -->
<g id="edge3" class="edge">
<title>Node0&#45;&gt;Node3</title>
<path fill="none" stroke="#191970" d="M162,-67.4183C162,-57.32 162,-45.213 162,-35.2314"/>
<polygon fill="#191970" stroke="#191970" points="165.5001,-35.0853 162,-25.0853 158.5001,-35.0854 165.5001,-35.0853"/>
</g>
<!-- Node4 -->
<g id="node5" class="node">
<title>Node4</title>
<polygon fill="#ffffff" stroke="#bfbfbf" points="217.5,-6 217.5,-25 292.5,-25 292.5,-6 217.5,-6"/>
<text text-anchor="middle" x="255" y="-13" font-family="Helvetica,sans-Serif" font-size="10.00" fill="#000000">glm/vec3.hpp</text>
</g>
<!-- Node0&#45;&gt;Node4 -->
<g id="edge4" class="edge">
<title>Node0&#45;&gt;Node4</title>
<path fill="none" stroke="#191970" d="M188.4013,-67.4183C203.0264,-56.017 220.9362,-42.0551 234.4982,-31.4826"/>
<polygon fill="#191970" stroke="#191970" points="236.9695,-33.9939 242.7043,-25.0853 232.6657,-28.4733 236.9695,-33.9939"/>
</g>
<!-- Node5 -->
<g id="node6" class="node">
<title>Node5</title>
<g id="a_node6"><a xlink:href="_cube_vertex_data_8h.html" target="_top" xlink:title="kryne&#45;engine/Constants\l/CubeVertexData.h">
<polygon fill="#ffffff" stroke="#000000" points="310,-.5 310,-30.5 430,-30.5 430,-.5 310,-.5"/>
<text text-anchor="start" x="318" y="-18.5" font-family="Helvetica,sans-Serif" font-size="10.00" fill="#000000">kryne&#45;engine/Constants</text>
<text text-anchor="middle" x="370" y="-7.5" font-family="Helvetica,sans-Serif" font-size="10.00" fill="#000000">/CubeVertexData.h</text>
</a>
</g>
</g>
<!-- Node0&#45;&gt;Node5 -->
<g id="edge5" class="edge">
<title>Node0&#45;&gt;Node5</title>
<path fill="none" stroke="#191970" d="M221.0481,-67.4183C251.2621,-56.887 287.744,-44.171 317.0407,-33.9594"/>
<polygon fill="#191970" stroke="#191970" points="318.3904,-37.1955 326.6812,-30.5991 316.0864,-30.5856 318.3904,-37.1955"/>
</g>
</g>
</svg>
