<?xml version="1.0" encoding="UTF-8" standalone="no"?>
<!DOCTYPE svg PUBLIC "-//W3C//DTD SVG 1.1//EN"
 "http://www.w3.org/Graphics/SVG/1.1/DTD/svg11.dtd">
<!-- Generated by graphviz version 2.44.1 (20200629.0846)
 -->
<!-- Title: kryne&#45;engine/include/KEModules/Geometry.h Pages: 1 -->
<svg width="1481pt" height="520pt"
 viewBox="0.00 0.00 1480.50 520.00" xmlns="http://www.w3.org/2000/svg" xmlns:xlink="http://www.w3.org/1999/xlink">
<g id="graph0" class="graph" transform="scale(1 1) rotate(0) translate(4 516)">
<title>kryne&#45;engine/include/KEModules/Geometry.h</title>
<polygon fill="white" stroke="transparent" points="-4,4 -4,-516 1476.5,-516 1476.5,4 -4,4"/>
<!-- Node1 -->
<g id="node1" class="node">
<title>Node1</title>
<g id="a_node1"><a xlink:title=" ">
<polygon fill="#bfbfbf" stroke="black" points="770,-481.5 770,-511.5 894,-511.5 894,-481.5 770,-481.5"/>
<text text-anchor="start" x="778" y="-499.5" font-family="Helvetica,sans-Serif" font-size="10.00">kryne&#45;engine/include</text>
<text text-anchor="middle" x="832" y="-488.5" font-family="Helvetica,sans-Serif" font-size="10.00">/KEModules/Geometry.h</text>
</a>
</g>
</g>
<!-- Node2 -->
<g id="node2" class="node">
<title>Node2</title>
<g id="a_node2"><a xlink:href="_box_buffer_geometry_8h.html" target="_top" xlink:title=" ">
<polygon fill="white" stroke="black" points="356,-414.5 356,-444.5 474,-444.5 474,-414.5 356,-414.5"/>
<text text-anchor="start" x="364" y="-432.5" font-family="Helvetica,sans-Serif" font-size="10.00">kryne&#45;engine/Geometry</text>
<text text-anchor="middle" x="415" y="-421.5" font-family="Helvetica,sans-Serif" font-size="10.00">/BoxBufferGeometry.h</text>
</a>
</g>
</g>
<!-- Node1&#45;&gt;Node2 -->
<g id="edge1" class="edge">
<title>Node1&#45;&gt;Node2</title>
<path fill="none" stroke="midnightblue" d="M769.57,-485.77C692.98,-473.83 563.55,-453.66 484.06,-441.26"/>
<polygon fill="midnightblue" stroke="midnightblue" points="484.56,-437.8 474.14,-439.72 483.48,-444.72 484.56,-437.8"/>
</g>
<!-- Node25 -->
<g id="node25" class="node">
<title>Node25</title>
<g id="a_node25"><a xlink:href="_buffer_geometry_8h.html" target="_top" xlink:title=" ">
<polygon fill="white" stroke="black" points="786,-353 786,-372 878,-372 878,-353 786,-353"/>
<text text-anchor="middle" x="832" y="-360" font-family="Helvetica,sans-Serif" font-size="10.00">BufferGeometry.h</text>
</a>
</g>
</g>
<!-- Node1&#45;&gt;Node25 -->
<g id="edge48" class="edge">
<title>Node1&#45;&gt;Node25</title>
<path fill="none" stroke="midnightblue" d="M832,-481.37C832,-457.5 832,-409.18 832,-382.41"/>
<polygon fill="midnightblue" stroke="midnightblue" points="835.5,-382.1 832,-372.1 828.5,-382.1 835.5,-382.1"/>
</g>
<!-- Node33 -->
<g id="node33" class="node">
<title>Node33</title>
<g id="a_node33"><a xlink:href="_buffer_attribute_8h.html" target="_top" xlink:title=" ">
<polygon fill="white" stroke="black" points="1331,-286 1331,-305 1417,-305 1417,-286 1331,-286"/>
<text text-anchor="middle" x="1374" y="-293" font-family="Helvetica,sans-Serif" font-size="10.00">BufferAttribute.h</text>
</a>
</g>
</g>
<!-- Node1&#45;&gt;Node33 -->
<g id="edge47" class="edge">
<title>Node1&#45;&gt;Node33</title>
<path fill="none" stroke="midnightblue" d="M870.54,-481.35C972.17,-444.04 1246.08,-343.47 1341.04,-308.6"/>
<polygon fill="midnightblue" stroke="midnightblue" points="1342.51,-311.79 1350.69,-305.06 1340.1,-305.22 1342.51,-311.79"/>
</g>
<!-- Node3 -->
<g id="node3" class="node">
<title>Node3</title>
<g id="a_node3"><a xlink:title=" ">
<polygon fill="white" stroke="#bfbfbf" points="443,-286 443,-305 517,-305 517,-286 443,-286"/>
<text text-anchor="middle" x="480" y="-293" font-family="Helvetica,sans-Serif" font-size="10.00">glm/vec2.hpp</text>
</a>
</g>
</g>
<!-- Node2&#45;&gt;Node3 -->
<g id="edge2" class="edge">
<title>Node2&#45;&gt;Node3</title>
<path fill="none" stroke="midnightblue" d="M421.96,-414.37C433.87,-390.18 458.15,-340.88 471.21,-314.35"/>
<polygon fill="midnightblue" stroke="midnightblue" points="474.49,-315.61 475.77,-305.1 468.21,-312.52 474.49,-315.61"/>
</g>
<!-- Node4 -->
<g id="node4" class="node">
<title>Node4</title>
<g id="a_node4"><a xlink:title=" ">
<polygon fill="white" stroke="#bfbfbf" points="420,-224.5 420,-243.5 494,-243.5 494,-224.5 420,-224.5"/>
<text text-anchor="middle" x="457" y="-231.5" font-family="Helvetica,sans-Serif" font-size="10.00">glm/vec3.hpp</text>
</a>
</g>
</g>
<!-- Node2&#45;&gt;Node4 -->
<g id="edge3" class="edge">
<title>Node2&#45;&gt;Node4</title>
<path fill="none" stroke="midnightblue" d="M415.2,-414.24C415.94,-387.37 419.26,-327.68 434,-280 436.95,-270.47 441.82,-260.52 446.32,-252.41"/>
<polygon fill="midnightblue" stroke="midnightblue" points="449.45,-253.98 451.47,-243.58 443.41,-250.45 449.45,-253.98"/>
</g>
<!-- Node5 -->
<g id="node5" class="node">
<title>Node5</title>
<g id="a_node5"><a xlink:href="_cube_vertex_data_8h.html" target="_top" xlink:title=" ">
<polygon fill="white" stroke="black" points="115.5,-347.5 115.5,-377.5 234.5,-377.5 234.5,-347.5 115.5,-347.5"/>
<text text-anchor="start" x="123.5" y="-365.5" font-family="Helvetica,sans-Serif" font-size="10.00">kryne&#45;engine/Constants</text>
<text text-anchor="middle" x="175" y="-354.5" font-family="Helvetica,sans-Serif" font-size="10.00">/CubeVertexData.h</text>
</a>
</g>
</g>
<!-- Node2&#45;&gt;Node5 -->
<g id="edge4" class="edge">
<title>Node2&#45;&gt;Node5</title>
<path fill="none" stroke="midnightblue" d="M363.22,-414.48C326.13,-404.43 276.01,-390.86 236.82,-380.24"/>
<polygon fill="midnightblue" stroke="midnightblue" points="237.67,-376.85 227.1,-377.61 235.84,-383.6 237.67,-376.85"/>
</g>
<!-- Node6 -->
<g id="node6" class="node">
<title>Node6</title>
<g id="a_node6"><a xlink:href="kryne-engine_2_utils_2_utils_8h.html" target="_top" xlink:title=" ">
<polygon fill="white" stroke="black" points="291.5,-347.5 291.5,-377.5 386.5,-377.5 386.5,-347.5 291.5,-347.5"/>
<text text-anchor="start" x="299.5" y="-365.5" font-family="Helvetica,sans-Serif" font-size="10.00">kryne&#45;engine/Utils</text>
<text text-anchor="middle" x="339" y="-354.5" font-family="Helvetica,sans-Serif" font-size="10.00">/Utils.h</text>
</a>
</g>
</g>
<!-- Node2&#45;&gt;Node6 -->
<g id="edge5" class="edge">
<title>Node2&#45;&gt;Node6</title>
<path fill="none" stroke="midnightblue" d="M398.51,-414.4C388.15,-405.54 374.62,-393.96 363.07,-384.09"/>
<polygon fill="midnightblue" stroke="midnightblue" points="365.33,-381.42 355.46,-377.58 360.78,-386.74 365.33,-381.42"/>
</g>
<!-- Node12 -->
<g id="node12" class="node">
<title>Node12</title>
<g id="a_node12"><a xlink:href="_dispatcher_8h.html" target="_top" xlink:title=" ">
<polygon fill="white" stroke="black" points="197.5,-280.5 197.5,-310.5 310.5,-310.5 310.5,-280.5 197.5,-280.5"/>
<text text-anchor="start" x="205.5" y="-298.5" font-family="Helvetica,sans-Serif" font-size="10.00">kryne&#45;engine/Dispatch</text>
<text text-anchor="middle" x="254" y="-287.5" font-family="Helvetica,sans-Serif" font-size="10.00">/Dispatcher.h</text>
</a>
</g>
</g>
<!-- Node2&#45;&gt;Node12 -->
<g id="edge11" class="edge">
<title>Node2&#45;&gt;Node12</title>
<path fill="none" stroke="midnightblue" d="M355.71,-417.79C330.11,-410.45 301.59,-398.23 282,-378 267.02,-362.53 260.03,-338.69 256.79,-320.78"/>
<polygon fill="midnightblue" stroke="midnightblue" points="260.23,-320.13 255.24,-310.78 253.31,-321.2 260.23,-320.13"/>
</g>
<!-- Node2&#45;&gt;Node25 -->
<g id="edge27" class="edge">
<title>Node2&#45;&gt;Node25</title>
<path fill="none" stroke="midnightblue" d="M474.3,-419.26C554.57,-406.74 696.79,-384.58 775.55,-372.3"/>
<polygon fill="midnightblue" stroke="midnightblue" points="776.43,-375.7 785.77,-370.71 775.35,-368.79 776.43,-375.7"/>
</g>
<!-- Node7 -->
<g id="node7" class="node">
<title>Node7</title>
<g id="a_node7"><a xlink:href="_string_utils_8hpp.html" target="_top" xlink:title=" ">
<polygon fill="white" stroke="black" points="299,-168.5 299,-187.5 379,-187.5 379,-168.5 299,-168.5"/>
<text text-anchor="middle" x="339" y="-175.5" font-family="Helvetica,sans-Serif" font-size="10.00">StringUtils.hpp</text>
</a>
</g>
</g>
<!-- Node6&#45;&gt;Node7 -->
<g id="edge6" class="edge">
<title>Node6&#45;&gt;Node7</title>
<path fill="none" stroke="midnightblue" d="M339,-347.48C339,-315.1 339,-235.04 339,-198.16"/>
<polygon fill="midnightblue" stroke="midnightblue" points="342.5,-197.82 339,-187.82 335.5,-197.82 342.5,-197.82"/>
</g>
<!-- Node9 -->
<g id="node9" class="node">
<title>Node9</title>
<g id="a_node9"><a xlink:href="_vector_mapping_8hpp.html" target="_top" xlink:title=" ">
<polygon fill="white" stroke="black" points="811.5,-286 811.5,-305 912.5,-305 912.5,-286 811.5,-286"/>
<text text-anchor="middle" x="862" y="-293" font-family="Helvetica,sans-Serif" font-size="10.00">VectorMapping.hpp</text>
</a>
</g>
</g>
<!-- Node6&#45;&gt;Node9 -->
<g id="edge8" class="edge">
<title>Node6&#45;&gt;Node9</title>
<path fill="none" stroke="midnightblue" d="M386.59,-356.55C466.11,-348.13 630.99,-330.09 770,-311 780.2,-309.6 791.01,-308 801.51,-306.38"/>
<polygon fill="midnightblue" stroke="midnightblue" points="802.1,-309.83 811.44,-304.84 801.02,-302.92 802.1,-309.83"/>
</g>
<!-- Node8 -->
<g id="node8" class="node">
<title>Node8</title>
<g id="a_node8"><a xlink:title=" ">
<polygon fill="white" stroke="#bfbfbf" points="380,-56.5 380,-75.5 434,-75.5 434,-56.5 380,-56.5"/>
<text text-anchor="middle" x="407" y="-63.5" font-family="Helvetica,sans-Serif" font-size="10.00">iostream</text>
</a>
</g>
</g>
<!-- Node7&#45;&gt;Node8 -->
<g id="edge7" class="edge">
<title>Node7&#45;&gt;Node8</title>
<path fill="none" stroke="midnightblue" d="M344.34,-168.37C355.51,-150.3 381.55,-108.18 396.3,-84.31"/>
<polygon fill="midnightblue" stroke="midnightblue" points="399.41,-85.94 401.69,-75.59 393.45,-82.26 399.41,-85.94"/>
</g>
<!-- Node10 -->
<g id="node10" class="node">
<title>Node10</title>
<g id="a_node10"><a xlink:title=" ">
<polygon fill="white" stroke="#bfbfbf" points="1019,-224.5 1019,-243.5 1061,-243.5 1061,-224.5 1019,-224.5"/>
<text text-anchor="middle" x="1040" y="-231.5" font-family="Helvetica,sans-Serif" font-size="10.00">vector</text>
</a>
</g>
</g>
<!-- Node9&#45;&gt;Node10 -->
<g id="edge9" class="edge">
<title>Node9&#45;&gt;Node10</title>
<path fill="none" stroke="midnightblue" d="M887.5,-285.98C919.7,-275.21 975.03,-256.72 1009.45,-245.21"/>
<polygon fill="midnightblue" stroke="midnightblue" points="1010.62,-248.51 1018.99,-242.02 1008.4,-241.87 1010.62,-248.51"/>
</g>
<!-- Node11 -->
<g id="node11" class="node">
<title>Node11</title>
<g id="a_node11"><a xlink:title=" ">
<polygon fill="white" stroke="#bfbfbf" points="887.5,-224.5 887.5,-243.5 1000.5,-243.5 1000.5,-224.5 887.5,-224.5"/>
<text text-anchor="middle" x="944" y="-231.5" font-family="Helvetica,sans-Serif" font-size="10.00">glm/detail/qualifier.hpp</text>
</a>
</g>
</g>
<!-- Node9&#45;&gt;Node11 -->
<g id="edge10" class="edge">
<title>Node9&#45;&gt;Node11</title>
<path fill="none" stroke="midnightblue" d="M873.75,-285.98C886.78,-276.52 908.04,-261.1 923.76,-249.69"/>
<polygon fill="midnightblue" stroke="midnightblue" points="926.23,-252.21 932.27,-243.51 922.12,-246.55 926.23,-252.21"/>
</g>
<!-- Node13 -->
<g id="node13" class="node">
<title>Node13</title>
<g id="a_node13"><a xlink:href="_synchronizable_pool_8h.html" target="_top" xlink:title=" ">
<polygon fill="white" stroke="black" points="76.5,-168.5 76.5,-187.5 187.5,-187.5 187.5,-168.5 76.5,-168.5"/>
<text text-anchor="middle" x="132" y="-175.5" font-family="Helvetica,sans-Serif" font-size="10.00">SynchronizablePool.h</text>
</a>
</g>
</g>
<!-- Node12&#45;&gt;Node13 -->
<g id="edge12" class="edge">
<title>Node12&#45;&gt;Node13</title>
<path fill="none" stroke="midnightblue" d="M205.74,-280.42C186.3,-272.55 165.17,-260.84 151,-244 140.01,-230.94 135.37,-211.79 133.42,-197.65"/>
<polygon fill="midnightblue" stroke="midnightblue" points="136.89,-197.18 132.36,-187.61 129.93,-197.92 136.89,-197.18"/>
</g>
<!-- Node23 -->
<g id="node23" class="node">
<title>Node23</title>
<g id="a_node23"><a xlink:href="_runner_pool_8h.html" target="_top" xlink:title=" ">
<polygon fill="white" stroke="black" points="205.5,-168.5 205.5,-187.5 280.5,-187.5 280.5,-168.5 205.5,-168.5"/>
<text text-anchor="middle" x="243" y="-175.5" font-family="Helvetica,sans-Serif" font-size="10.00">RunnerPool.h</text>
</a>
</g>
</g>
<!-- Node12&#45;&gt;Node23 -->
<g id="edge23" class="edge">
<title>Node12&#45;&gt;Node23</title>
<path fill="none" stroke="midnightblue" d="M252.65,-280.34C250.68,-259.62 247,-221.02 244.8,-197.9"/>
<polygon fill="midnightblue" stroke="midnightblue" points="248.26,-197.29 243.83,-187.67 241.29,-197.96 248.26,-197.29"/>
</g>
<!-- Node24 -->
<g id="node24" class="node">
<title>Node24</title>
<g id="a_node24"><a xlink:href="_main_pool_8h.html" target="_top" xlink:title=" ">
<polygon fill="white" stroke="black" points="160.5,-224.5 160.5,-243.5 225.5,-243.5 225.5,-224.5 160.5,-224.5"/>
<text text-anchor="middle" x="193" y="-231.5" font-family="Helvetica,sans-Serif" font-size="10.00">MainPool.h</text>
</a>
</g>
</g>
<!-- Node12&#45;&gt;Node24 -->
<g id="edge25" class="edge">
<title>Node12&#45;&gt;Node24</title>
<path fill="none" stroke="midnightblue" d="M239.54,-280.4C230.41,-271.49 218.58,-259.95 209.14,-250.74"/>
<polygon fill="midnightblue" stroke="midnightblue" points="211.48,-248.13 201.88,-243.66 206.59,-253.15 211.48,-248.13"/>
</g>
<!-- Node14 -->
<g id="node14" class="node">
<title>Node14</title>
<g id="a_node14"><a xlink:href="_thread_pool_8h.html" target="_top" xlink:title=" ">
<polygon fill="white" stroke="black" points="206,-112.5 206,-131.5 280,-131.5 280,-112.5 206,-112.5"/>
<text text-anchor="middle" x="243" y="-119.5" font-family="Helvetica,sans-Serif" font-size="10.00">ThreadPool.h</text>
</a>
</g>
</g>
<!-- Node13&#45;&gt;Node14 -->
<g id="edge13" class="edge">
<title>Node13&#45;&gt;Node14</title>
<path fill="none" stroke="midnightblue" d="M149.83,-168.32C167.72,-159.62 195.48,-146.12 216.05,-136.11"/>
<polygon fill="midnightblue" stroke="midnightblue" points="217.75,-139.18 225.21,-131.65 214.69,-132.88 217.75,-139.18"/>
</g>
<!-- Node14&#45;&gt;Node8 -->
<g id="edge19" class="edge">
<title>Node14&#45;&gt;Node8</title>
<path fill="none" stroke="midnightblue" d="M268.99,-112.44C296.7,-103.32 340.75,-88.81 371.62,-78.65"/>
<polygon fill="midnightblue" stroke="midnightblue" points="372.73,-81.97 381.14,-75.52 370.54,-75.32 372.73,-81.97"/>
</g>
<!-- Node15 -->
<g id="node15" class="node">
<title>Node15</title>
<g id="a_node15"><a xlink:title=" ">
<polygon fill="white" stroke="#bfbfbf" points="318,-56.5 318,-75.5 362,-75.5 362,-56.5 318,-56.5"/>
<text text-anchor="middle" x="340" y="-63.5" font-family="Helvetica,sans-Serif" font-size="10.00">thread</text>
</a>
</g>
</g>
<!-- Node14&#45;&gt;Node15 -->
<g id="edge14" class="edge">
<title>Node14&#45;&gt;Node15</title>
<path fill="none" stroke="midnightblue" d="M258.58,-112.32C274,-103.74 297.81,-90.49 315.71,-80.52"/>
<polygon fill="midnightblue" stroke="midnightblue" points="317.42,-83.58 324.45,-75.65 314.01,-77.46 317.42,-83.58"/>
</g>
<!-- Node16 -->
<g id="node16" class="node">
<title>Node16</title>
<g id="a_node16"><a xlink:title=" ">
<polygon fill="white" stroke="#bfbfbf" points="0,-56.5 0,-75.5 44,-75.5 44,-56.5 0,-56.5"/>
<text text-anchor="middle" x="22" y="-63.5" font-family="Helvetica,sans-Serif" font-size="10.00">mutex</text>
</a>
</g>
</g>
<!-- Node14&#45;&gt;Node16 -->
<g id="edge15" class="edge">
<title>Node14&#45;&gt;Node16</title>
<path fill="none" stroke="midnightblue" d="M205.73,-112.75C169.34,-104.57 112.2,-91.39 54.03,-76.18"/>
<polygon fill="midnightblue" stroke="midnightblue" points="54.88,-72.78 44.31,-73.62 53.09,-79.55 54.88,-72.78"/>
</g>
<!-- Node17 -->
<g id="node17" class="node">
<title>Node17</title>
<g id="a_node17"><a xlink:title=" ">
<polygon fill="white" stroke="#bfbfbf" points="62.5,-56.5 62.5,-75.5 155.5,-75.5 155.5,-56.5 62.5,-56.5"/>
<text text-anchor="middle" x="109" y="-63.5" font-family="Helvetica,sans-Serif" font-size="10.00">condition_variable</text>
</a>
</g>
</g>
<!-- Node14&#45;&gt;Node17 -->
<g id="edge16" class="edge">
<title>Node14&#45;&gt;Node17</title>
<path fill="none" stroke="midnightblue" d="M221.77,-112.44C199.62,-103.52 164.68,-89.44 139.56,-79.32"/>
<polygon fill="midnightblue" stroke="midnightblue" points="140.72,-76.01 130.13,-75.52 138.1,-82.5 140.72,-76.01"/>
</g>
<!-- Node18 -->
<g id="node18" class="node">
<title>Node18</title>
<g id="a_node18"><a xlink:title=" ">
<polygon fill="white" stroke="#bfbfbf" points="173.5,-56.5 173.5,-75.5 214.5,-75.5 214.5,-56.5 173.5,-56.5"/>
<text text-anchor="middle" x="194" y="-63.5" font-family="Helvetica,sans-Serif" font-size="10.00">future</text>
</a>
</g>
</g>
<!-- Node14&#45;&gt;Node18 -->
<g id="edge17" class="edge">
<title>Node14&#45;&gt;Node18</title>
<path fill="none" stroke="midnightblue" d="M234.91,-112.08C227.84,-104.3 217.41,-92.8 208.85,-83.37"/>
<polygon fill="midnightblue" stroke="midnightblue" points="211.25,-80.8 201.94,-75.75 206.07,-85.51 211.25,-80.8"/>
</g>
<!-- Node19 -->
<g id="node19" class="node">
<title>Node19</title>
<g id="a_node19"><a xlink:title=" ">
<polygon fill="white" stroke="#bfbfbf" points="757,-56.5 757,-75.5 809,-75.5 809,-56.5 757,-56.5"/>
<text text-anchor="middle" x="783" y="-63.5" font-family="Helvetica,sans-Serif" font-size="10.00">memory</text>
</a>
</g>
</g>
<!-- Node14&#45;&gt;Node19 -->
<g id="edge18" class="edge">
<title>Node14&#45;&gt;Node19</title>
<path fill="none" stroke="midnightblue" d="M280.12,-117.29C379.21,-107.38 649.07,-80.39 746.94,-70.61"/>
<polygon fill="midnightblue" stroke="midnightblue" points="747.33,-74.08 756.93,-69.61 746.64,-67.12 747.33,-74.08"/>
</g>
<!-- Node20 -->
<g id="node20" class="node">
<title>Node20</title>
<g id="a_node20"><a xlink:href="_base_pool_8h.html" target="_top" xlink:title=" ">
<polygon fill="white" stroke="black" points="232.5,-56.5 232.5,-75.5 299.5,-75.5 299.5,-56.5 232.5,-56.5"/>
<text text-anchor="middle" x="266" y="-63.5" font-family="Helvetica,sans-Serif" font-size="10.00">BasePool.h</text>
</a>
</g>
</g>
<!-- Node14&#45;&gt;Node20 -->
<g id="edge20" class="edge">
<title>Node14&#45;&gt;Node20</title>
<path fill="none" stroke="midnightblue" d="M246.8,-112.08C249.91,-104.77 254.42,-94.18 258.29,-85.1"/>
<polygon fill="midnightblue" stroke="midnightblue" points="261.57,-86.32 262.27,-75.75 255.13,-83.58 261.57,-86.32"/>
</g>
<!-- Node21 -->
<g id="node21" class="node">
<title>Node21</title>
<g id="a_node21"><a xlink:title=" ">
<polygon fill="white" stroke="#bfbfbf" points="244.5,-0.5 244.5,-19.5 287.5,-19.5 287.5,-0.5 244.5,-0.5"/>
<text text-anchor="middle" x="266" y="-7.5" font-family="Helvetica,sans-Serif" font-size="10.00">queue</text>
</a>
</g>
</g>
<!-- Node20&#45;&gt;Node21 -->
<g id="edge21" class="edge">
<title>Node20&#45;&gt;Node21</title>
<path fill="none" stroke="midnightblue" d="M266,-56.08C266,-49.01 266,-38.86 266,-29.99"/>
<polygon fill="midnightblue" stroke="midnightblue" points="269.5,-29.75 266,-19.75 262.5,-29.75 269.5,-29.75"/>
</g>
<!-- Node22 -->
<g id="node22" class="node">
<title>Node22</title>
<g id="a_node22"><a xlink:title=" ">
<polygon fill="white" stroke="#bfbfbf" points="702,-0.5 702,-19.5 760,-19.5 760,-0.5 702,-0.5"/>
<text text-anchor="middle" x="731" y="-7.5" font-family="Helvetica,sans-Serif" font-size="10.00">functional</text>
</a>
</g>
</g>
<!-- Node20&#45;&gt;Node22 -->
<g id="edge22" class="edge">
<title>Node20&#45;&gt;Node22</title>
<path fill="none" stroke="midnightblue" d="M299.74,-57.6C302.86,-57.02 305.99,-56.47 309,-56 448.95,-33.95 616.76,-19.63 691.61,-13.88"/>
<polygon fill="midnightblue" stroke="midnightblue" points="692.26,-17.34 701.96,-13.09 691.72,-10.36 692.26,-17.34"/>
</g>
<!-- Node23&#45;&gt;Node14 -->
<g id="edge24" class="edge">
<title>Node23&#45;&gt;Node14</title>
<path fill="none" stroke="midnightblue" d="M243,-168.08C243,-161.01 243,-150.86 243,-141.99"/>
<polygon fill="midnightblue" stroke="midnightblue" points="246.5,-141.75 243,-131.75 239.5,-141.75 246.5,-141.75"/>
</g>
<!-- Node24&#45;&gt;Node13 -->
<g id="edge26" class="edge">
<title>Node24&#45;&gt;Node13</title>
<path fill="none" stroke="midnightblue" d="M183.2,-224.32C174.18,-216.34 160.59,-204.31 149.68,-194.65"/>
<polygon fill="midnightblue" stroke="midnightblue" points="151.79,-191.84 141.98,-187.83 147.15,-197.08 151.79,-191.84"/>
</g>
<!-- Node25&#45;&gt;Node3 -->
<g id="edge33" class="edge">
<title>Node25&#45;&gt;Node3</title>
<path fill="none" stroke="midnightblue" d="M785.8,-355.37C726.45,-347.13 620.43,-331.15 531,-311 526.64,-310.02 522.1,-308.89 517.6,-307.7"/>
<polygon fill="midnightblue" stroke="midnightblue" points="518.48,-304.31 507.92,-305.04 516.63,-311.06 518.48,-304.31"/>
</g>
<!-- Node25&#45;&gt;Node4 -->
<g id="edge34" class="edge">
<title>Node25&#45;&gt;Node4</title>
<path fill="none" stroke="midnightblue" d="M785.76,-356.95C738.04,-350.99 662.28,-337.95 602,-311 580.49,-301.38 579.44,-291.71 559,-280 536.63,-267.19 509.92,-255.53 489.45,-247.29"/>
<polygon fill="midnightblue" stroke="midnightblue" points="490.53,-243.95 479.95,-243.52 487.96,-250.46 490.53,-243.95"/>
</g>
<!-- Node25&#45;&gt;Node8 -->
<g id="edge30" class="edge">
<title>Node25&#45;&gt;Node8</title>
<path fill="none" stroke="midnightblue" d="M785.52,-360.78C729.07,-358.19 632.32,-348.11 559,-311 541.05,-301.91 543.37,-290.15 526,-280 479.76,-252.98 443.2,-286.8 411,-244 375.48,-196.79 391.04,-120.7 401,-85.71"/>
<polygon fill="midnightblue" stroke="midnightblue" points="404.43,-86.46 403.97,-75.88 397.73,-84.44 404.43,-86.46"/>
</g>
<!-- Node25&#45;&gt;Node12 -->
<g id="edge36" class="edge">
<title>Node25&#45;&gt;Node12</title>
<path fill="none" stroke="midnightblue" d="M785.68,-356.29C683.64,-344.82 439.17,-317.32 320.66,-304"/>
<polygon fill="midnightblue" stroke="midnightblue" points="320.95,-300.51 310.62,-302.87 320.17,-307.46 320.95,-300.51"/>
</g>
<!-- Node25&#45;&gt;Node19 -->
<g id="edge29" class="edge">
<title>Node25&#45;&gt;Node19</title>
<path fill="none" stroke="midnightblue" d="M878.24,-359.13C952.24,-352.56 1089,-327.87 1089,-235 1089,-235 1089,-235 1089,-177 1089,-120.27 900.4,-84.82 819.33,-72.2"/>
<polygon fill="midnightblue" stroke="midnightblue" points="819.5,-68.68 809.09,-70.64 818.45,-75.6 819.5,-68.68"/>
</g>
<!-- Node25&#45;&gt;Node22 -->
<g id="edge32" class="edge">
<title>Node25&#45;&gt;Node22</title>
<path fill="none" stroke="midnightblue" d="M878.09,-361.8C961.06,-359.65 1127,-341.99 1127,-235 1127,-235 1127,-235 1127,-121 1127,-47.43 870.08,-21.01 770.12,-13.52"/>
<polygon fill="midnightblue" stroke="midnightblue" points="770.35,-10.02 760.12,-12.79 769.84,-17.01 770.35,-10.02"/>
</g>
<!-- Node26 -->
<g id="node26" class="node">
<title>Node26</title>
<g id="a_node26"><a xlink:title=" ">
<polygon fill="white" stroke="#bfbfbf" points="1155,-286 1155,-305 1211,-305 1211,-286 1155,-286"/>
<text text-anchor="middle" x="1183" y="-293" font-family="Helvetica,sans-Serif" font-size="10.00">algorithm</text>
</a>
</g>
</g>
<!-- Node25&#45;&gt;Node26 -->
<g id="edge28" class="edge">
<title>Node25&#45;&gt;Node26</title>
<path fill="none" stroke="midnightblue" d="M878.05,-356.46C938.87,-349.24 1049.03,-334.21 1141,-311 1144.22,-310.19 1147.54,-309.24 1150.84,-308.22"/>
<polygon fill="midnightblue" stroke="midnightblue" points="1152.13,-311.48 1160.54,-305.04 1149.95,-304.83 1152.13,-311.48"/>
</g>
<!-- Node27 -->
<g id="node27" class="node">
<title>Node27</title>
<g id="a_node27"><a xlink:title=" ">
<polygon fill="white" stroke="#bfbfbf" points="1229.5,-286 1229.5,-305 1312.5,-305 1312.5,-286 1229.5,-286"/>
<text text-anchor="middle" x="1271" y="-293" font-family="Helvetica,sans-Serif" font-size="10.00">unordered_map</text>
</a>
</g>
</g>
<!-- Node25&#45;&gt;Node27 -->
<g id="edge31" class="edge">
<title>Node25&#45;&gt;Node27</title>
<path fill="none" stroke="midnightblue" d="M878.06,-357.72C951.1,-351.24 1097.75,-336.19 1220,-311 1224.53,-310.07 1229.26,-308.94 1233.92,-307.73"/>
<polygon fill="midnightblue" stroke="midnightblue" points="1235.2,-311.01 1243.92,-305 1233.35,-304.26 1235.2,-311.01"/>
</g>
<!-- Node28 -->
<g id="node28" class="node">
<title>Node28</title>
<g id="a_node28"><a xlink:title=" ">
<polygon fill="white" stroke="#bfbfbf" points="930.5,-286 930.5,-305 1027.5,-305 1027.5,-286 930.5,-286"/>
<text text-anchor="middle" x="979" y="-293" font-family="Helvetica,sans-Serif" font-size="10.00">glm/geometric.hpp</text>
</a>
</g>
</g>
<!-- Node25&#45;&gt;Node28 -->
<g id="edge35" class="edge">
<title>Node25&#45;&gt;Node28</title>
<path fill="none" stroke="midnightblue" d="M851.52,-352.87C876.78,-341.7 921,-322.15 950.14,-309.26"/>
<polygon fill="midnightblue" stroke="midnightblue" points="951.67,-312.41 959.4,-305.17 948.84,-306.01 951.67,-312.41"/>
</g>
<!-- Node29 -->
<g id="node29" class="node">
<title>Node29</title>
<g id="a_node29"><a xlink:href="_sphere_8hpp.html" target="_top" xlink:title=" ">
<polygon fill="white" stroke="black" points="611.5,-286 611.5,-305 760.5,-305 760.5,-286 611.5,-286"/>
<text text-anchor="middle" x="686" y="-293" font-family="Helvetica,sans-Serif" font-size="10.00">kryne&#45;engine/Math/Sphere.hpp</text>
</a>
</g>
</g>
<!-- Node25&#45;&gt;Node29 -->
<g id="edge37" class="edge">
<title>Node25&#45;&gt;Node29</title>
<path fill="none" stroke="midnightblue" d="M812.61,-352.87C787.52,-341.7 743.61,-322.15 714.66,-309.26"/>
<polygon fill="midnightblue" stroke="midnightblue" points="716.03,-306.04 705.47,-305.17 713.18,-312.43 716.03,-306.04"/>
</g>
<!-- Node25&#45;&gt;Node33 -->
<g id="edge42" class="edge">
<title>Node25&#45;&gt;Node33</title>
<path fill="none" stroke="midnightblue" d="M878.31,-359.34C965.71,-354.7 1160.67,-341.58 1322,-311 1326.81,-310.09 1331.82,-308.94 1336.76,-307.7"/>
<polygon fill="midnightblue" stroke="midnightblue" points="1337.92,-311.01 1346.68,-305.05 1336.11,-304.25 1337.92,-311.01"/>
</g>
<!-- Node29&#45;&gt;Node4 -->
<g id="edge38" class="edge">
<title>Node29&#45;&gt;Node4</title>
<path fill="none" stroke="midnightblue" d="M653.19,-285.98C612.8,-275.48 544.12,-257.64 499.67,-246.09"/>
<polygon fill="midnightblue" stroke="midnightblue" points="500.31,-242.64 489.75,-243.51 498.55,-249.41 500.31,-242.64"/>
</g>
<!-- Node30 -->
<g id="node30" class="node">
<title>Node30</title>
<g id="a_node30"><a xlink:title=" ">
<polygon fill="white" stroke="#bfbfbf" points="512,-224.5 512,-243.5 598,-243.5 598,-224.5 512,-224.5"/>
<text text-anchor="middle" x="555" y="-231.5" font-family="Helvetica,sans-Serif" font-size="10.00">glm/mat4x4.hpp</text>
</a>
</g>
</g>
<!-- Node29&#45;&gt;Node30 -->
<g id="edge39" class="edge">
<title>Node29&#45;&gt;Node30</title>
<path fill="none" stroke="midnightblue" d="M667.23,-285.98C645.15,-275.95 608.28,-259.2 582.86,-247.65"/>
<polygon fill="midnightblue" stroke="midnightblue" points="584.29,-244.46 573.73,-243.51 581.39,-250.83 584.29,-244.46"/>
</g>
<!-- Node31 -->
<g id="node31" class="node">
<title>Node31</title>
<g id="a_node31"><a xlink:title=" ">
<polygon fill="white" stroke="#bfbfbf" points="616,-224.5 616,-243.5 708,-243.5 708,-224.5 616,-224.5"/>
<text text-anchor="middle" x="662" y="-231.5" font-family="Helvetica,sans-Serif" font-size="10.00">glm/gtx/norm.hpp</text>
</a>
</g>
</g>
<!-- Node29&#45;&gt;Node31 -->
<g id="edge40" class="edge">
<title>Node29&#45;&gt;Node31</title>
<path fill="none" stroke="midnightblue" d="M682.56,-285.98C679.1,-277.4 673.67,-263.93 669.25,-252.98"/>
<polygon fill="midnightblue" stroke="midnightblue" points="672.42,-251.47 665.43,-243.51 665.93,-254.09 672.42,-251.47"/>
</g>
<!-- Node32 -->
<g id="node32" class="node">
<title>Node32</title>
<g id="a_node32"><a xlink:title=" ">
<polygon fill="white" stroke="#bfbfbf" points="726.5,-224.5 726.5,-243.5 869.5,-243.5 869.5,-224.5 726.5,-224.5"/>
<text text-anchor="middle" x="798" y="-231.5" font-family="Helvetica,sans-Serif" font-size="10.00">glm/gtx/component_wise.hpp</text>
</a>
</g>
</g>
<!-- Node29&#45;&gt;Node32 -->
<g id="edge41" class="edge">
<title>Node29&#45;&gt;Node32</title>
<path fill="none" stroke="midnightblue" d="M702.05,-285.98C720.59,-276.12 751.34,-259.79 773.02,-248.27"/>
<polygon fill="midnightblue" stroke="midnightblue" points="774.79,-251.29 781.98,-243.51 771.51,-245.11 774.79,-251.29"/>
</g>
<!-- Node33&#45;&gt;Node10 -->
<g id="edge43" class="edge">
<title>Node33&#45;&gt;Node10</title>
<path fill="none" stroke="midnightblue" d="M1345.54,-285.93C1337.93,-283.82 1329.69,-281.68 1322,-280 1231.6,-260.25 1123.12,-245.38 1070.98,-238.77"/>
<polygon fill="midnightblue" stroke="midnightblue" points="1071.38,-235.29 1061.03,-237.52 1070.51,-242.24 1071.38,-235.29"/>
</g>
<!-- Node34 -->
<g id="node34" class="node">
<title>Node34</title>
<g id="a_node34"><a xlink:title=" ">
<polygon fill="white" stroke="#bfbfbf" points="1431.5,-224.5 1431.5,-243.5 1472.5,-243.5 1472.5,-224.5 1431.5,-224.5"/>
<text text-anchor="middle" x="1452" y="-231.5" font-family="Helvetica,sans-Serif" font-size="10.00">string</text>
</a>
</g>
</g>
<!-- Node33&#45;&gt;Node34 -->
<g id="edge44" class="edge">
<title>Node33&#45;&gt;Node34</title>
<path fill="none" stroke="midnightblue" d="M1385.18,-285.98C1397.57,-276.52 1417.79,-261.1 1432.75,-249.69"/>
<polygon fill="midnightblue" stroke="midnightblue" points="1435.02,-252.36 1440.85,-243.51 1430.77,-246.79 1435.02,-252.36"/>
</g>
<!-- Node35 -->
<g id="node35" class="node">
<title>Node35</title>
<g id="a_node35"><a xlink:title=" ">
<polygon fill="white" stroke="#bfbfbf" points="1253,-224.5 1253,-243.5 1317,-243.5 1317,-224.5 1253,-224.5"/>
<text text-anchor="middle" x="1285" y="-231.5" font-family="Helvetica,sans-Serif" font-size="10.00">glad/glad.h</text>
</a>
</g>
</g>
<!-- Node33&#45;&gt;Node35 -->
<g id="edge45" class="edge">
<title>Node33&#45;&gt;Node35</title>
<path fill="none" stroke="midnightblue" d="M1361.25,-285.98C1346.97,-276.43 1323.6,-260.81 1306.49,-249.37"/>
<polygon fill="midnightblue" stroke="midnightblue" points="1307.99,-246.16 1297.73,-243.51 1304.1,-251.98 1307.99,-246.16"/>
</g>
<!-- Node36 -->
<g id="node36" class="node">
<title>Node36</title>
<g id="a_node36"><a xlink:title=" ">
<polygon fill="white" stroke="#bfbfbf" points="1335,-224.5 1335,-243.5 1413,-243.5 1413,-224.5 1335,-224.5"/>
<text text-anchor="middle" x="1374" y="-231.5" font-family="Helvetica,sans-Serif" font-size="10.00">GLFW/glfw3.h</text>
</a>
</g>
</g>
<!-- Node33&#45;&gt;Node36 -->
<g id="edge46" class="edge">
<title>Node33&#45;&gt;Node36</title>
<path fill="none" stroke="midnightblue" d="M1374,-285.98C1374,-277.58 1374,-264.48 1374,-253.66"/>
<polygon fill="midnightblue" stroke="midnightblue" points="1377.5,-253.51 1374,-243.51 1370.5,-253.51 1377.5,-253.51"/>
</g>
</g>
</svg>
