<?xml version="1.0" encoding="UTF-8" standalone="no"?>
<!DOCTYPE svg PUBLIC "-//W3C//DTD SVG 1.1//EN"
 "http://www.w3.org/Graphics/SVG/1.1/DTD/svg11.dtd">
<!-- Generated by graphviz version 2.44.1 (20200629.0846)
 -->
<!-- Title: kryne&#45;engine/include/kryne&#45;engine/Core/GraphicContext/GraphicContext.h Pages: 1 -->
<svg width="1988pt" height="485pt"
 viewBox="0.00 0.00 1987.50 485.00" xmlns="http://www.w3.org/2000/svg" xmlns:xlink="http://www.w3.org/1999/xlink">
<g id="graph0" class="graph" transform="scale(1 1) rotate(0) translate(4 481)">
<title>kryne&#45;engine/include/kryne&#45;engine/Core/GraphicContext/GraphicContext.h</title>
<polygon fill="white" stroke="transparent" points="-4,4 -4,-481 1983.5,-481 1983.5,4 -4,4"/>
<!-- Node1 -->
<g id="node1" class="node">
<title>Node1</title>
<g id="a_node1"><a xlink:title=" ">
<polygon fill="#bfbfbf" stroke="black" points="306,-435.5 306,-476.5 475,-476.5 475,-435.5 306,-435.5"/>
<text text-anchor="start" x="314" y="-464.5" font-family="Helvetica,sans-Serif" font-size="10.00">kryne&#45;engine/include</text>
<text text-anchor="start" x="314" y="-453.5" font-family="Helvetica,sans-Serif" font-size="10.00">/kryne&#45;engine/Core/GraphicContext</text>
<text text-anchor="middle" x="390.5" y="-442.5" font-family="Helvetica,sans-Serif" font-size="10.00">/GraphicContext.h</text>
</a>
</g>
</g>
<!-- Node2 -->
<g id="node2" class="node">
<title>Node2</title>
<g id="a_node2"><a xlink:href="_open_g_l_context_8h.html" target="_top" xlink:title=" ">
<polygon fill="white" stroke="black" points="142,-145.5 142,-186.5 311,-186.5 311,-145.5 142,-145.5"/>
<text text-anchor="start" x="150" y="-174.5" font-family="Helvetica,sans-Serif" font-size="10.00">kryne&#45;engine/include</text>
<text text-anchor="start" x="150" y="-163.5" font-family="Helvetica,sans-Serif" font-size="10.00">/kryne&#45;engine/Core/GraphicContext</text>
<text text-anchor="middle" x="226.5" y="-152.5" font-family="Helvetica,sans-Serif" font-size="10.00">/OpenGLContext.h</text>
</a>
</g>
</g>
<!-- Node1&#45;&gt;Node2 -->
<g id="edge1" class="edge">
<title>Node1&#45;&gt;Node2</title>
<path fill="none" stroke="midnightblue" d="M374.27,-426.49C341.03,-368.13 265.99,-236.35 237.63,-186.55"/>
<polygon fill="midnightblue" stroke="midnightblue" points="371.24,-428.25 379.23,-435.2 377.32,-424.78 371.24,-428.25"/>
</g>
<!-- Node6 -->
<g id="node6" class="node">
<title>Node6</title>
<g id="a_node6"><a xlink:href="_process_8h.html" target="_top" xlink:title=" ">
<polygon fill="white" stroke="black" points="1258.5,-368.5 1258.5,-398.5 1404.5,-398.5 1404.5,-368.5 1258.5,-368.5"/>
<text text-anchor="start" x="1266.5" y="-386.5" font-family="Helvetica,sans-Serif" font-size="10.00">kryne&#45;engine/include</text>
<text text-anchor="middle" x="1331.5" y="-375.5" font-family="Helvetica,sans-Serif" font-size="10.00">/kryne&#45;engine/Core/Process.h</text>
</a>
</g>
</g>
<!-- Node1&#45;&gt;Node6 -->
<g id="edge6" class="edge">
<title>Node1&#45;&gt;Node6</title>
<path fill="none" stroke="midnightblue" d="M485.39,-447.89C673.39,-433.81 1089.53,-402.63 1258.28,-389.99"/>
<polygon fill="midnightblue" stroke="midnightblue" points="484.96,-444.41 475.25,-448.65 485.48,-451.39 484.96,-444.41"/>
</g>
<!-- Node3 -->
<g id="node3" class="node">
<title>Node3</title>
<g id="a_node3"><a xlink:href="_open_g_l_renderer_8h.html" target="_top" xlink:title=" ">
<polygon fill="white" stroke="black" points="197.5,-67.5 197.5,-108.5 347.5,-108.5 347.5,-67.5 197.5,-67.5"/>
<text text-anchor="start" x="205.5" y="-96.5" font-family="Helvetica,sans-Serif" font-size="10.00">kryne&#45;engine/include</text>
<text text-anchor="start" x="205.5" y="-85.5" font-family="Helvetica,sans-Serif" font-size="10.00">/kryne&#45;engine/Rendering</text>
<text text-anchor="middle" x="272.5" y="-74.5" font-family="Helvetica,sans-Serif" font-size="10.00">/Renderers/OpenGLRenderer.h</text>
</a>
</g>
</g>
<!-- Node2&#45;&gt;Node3 -->
<g id="edge2" class="edge">
<title>Node2&#45;&gt;Node3</title>
<path fill="none" stroke="midnightblue" d="M237.21,-136.47C242.47,-127.14 248.8,-117.01 254.71,-108.51"/>
<polygon fill="midnightblue" stroke="midnightblue" points="234.04,-134.97 232.36,-145.43 240.2,-138.3 234.04,-134.97"/>
</g>
<!-- Node5 -->
<g id="node5" class="node">
<title>Node5</title>
<g id="a_node5"><a xlink:href="_open_g_l_context_8cpp.html" target="_top" xlink:title=" ">
<polygon fill="white" stroke="black" points="0,-73 0,-103 179,-103 179,-73 0,-73"/>
<text text-anchor="start" x="8" y="-91" font-family="Helvetica,sans-Serif" font-size="10.00">kryne&#45;engine/src/Core</text>
<text text-anchor="middle" x="89.5" y="-80" font-family="Helvetica,sans-Serif" font-size="10.00">/GraphicContext/OpenGLContext.cpp</text>
</a>
</g>
</g>
<!-- Node2&#45;&gt;Node5 -->
<g id="edge5" class="edge">
<title>Node2&#45;&gt;Node5</title>
<path fill="none" stroke="midnightblue" d="M182.3,-140.48C160.1,-128.17 134,-113.69 115.14,-103.23"/>
<polygon fill="midnightblue" stroke="midnightblue" points="180.78,-143.64 191.22,-145.43 184.17,-137.52 180.78,-143.64"/>
</g>
<!-- Node3&#45;&gt;Node2 -->
<g id="edge3" class="edge">
<title>Node3&#45;&gt;Node2</title>
<path fill="none" stroke="midnightblue" d="M261.83,-117.46C256.57,-126.78 250.25,-136.92 244.33,-145.43"/>
<polygon fill="midnightblue" stroke="midnightblue" points="265,-118.97 266.68,-108.51 258.84,-115.64 265,-118.97"/>
</g>
<!-- Node4 -->
<g id="node4" class="node">
<title>Node4</title>
<g id="a_node4"><a xlink:href="_open_g_l_renderer_8cpp.html" target="_top" xlink:title=" ">
<polygon fill="white" stroke="black" points="192,-0.5 192,-30.5 353,-30.5 353,-0.5 192,-0.5"/>
<text text-anchor="start" x="200" y="-18.5" font-family="Helvetica,sans-Serif" font-size="10.00">kryne&#45;engine/src/Rendering</text>
<text text-anchor="middle" x="272.5" y="-7.5" font-family="Helvetica,sans-Serif" font-size="10.00">/Renderers/OpenGLRenderer.cpp</text>
</a>
</g>
</g>
<!-- Node3&#45;&gt;Node4 -->
<g id="edge4" class="edge">
<title>Node3&#45;&gt;Node4</title>
<path fill="none" stroke="midnightblue" d="M272.5,-57.08C272.5,-48.01 272.5,-38.45 272.5,-30.89"/>
<polygon fill="midnightblue" stroke="midnightblue" points="269,-57.36 272.5,-67.36 276,-57.36 269,-57.36"/>
</g>
<!-- Node7 -->
<g id="node7" class="node">
<title>Node7</title>
<g id="a_node7"><a xlink:href="_entity_8h.html" target="_top" xlink:title=" ">
<polygon fill="white" stroke="black" points="1212,-301.5 1212,-331.5 1347,-331.5 1347,-301.5 1212,-301.5"/>
<text text-anchor="start" x="1220" y="-319.5" font-family="Helvetica,sans-Serif" font-size="10.00">kryne&#45;engine/include</text>
<text text-anchor="middle" x="1279.5" y="-308.5" font-family="Helvetica,sans-Serif" font-size="10.00">/kryne&#45;engine/Core/Entity.h</text>
</a>
</g>
</g>
<!-- Node6&#45;&gt;Node7 -->
<g id="edge7" class="edge">
<title>Node6&#45;&gt;Node7</title>
<path fill="none" stroke="midnightblue" d="M1307.68,-360.74C1299.36,-351.12 1290.78,-340.09 1285.09,-331.58"/>
<polygon fill="midnightblue" stroke="midnightblue" points="1305.26,-363.28 1314.54,-368.4 1310.47,-358.61 1305.26,-363.28"/>
</g>
<!-- Node30 -->
<g id="node30" class="node">
<title>Node30</title>
<g id="a_node30"><a xlink:href="_system_8h.html" target="_top" xlink:title=" ">
<polygon fill="white" stroke="black" points="1508,-229 1508,-259 1651,-259 1651,-229 1508,-229"/>
<text text-anchor="start" x="1516" y="-247" font-family="Helvetica,sans-Serif" font-size="10.00">kryne&#45;engine/include</text>
<text text-anchor="middle" x="1579.5" y="-236" font-family="Helvetica,sans-Serif" font-size="10.00">/kryne&#45;engine/Core/System.h</text>
</a>
</g>
</g>
<!-- Node6&#45;&gt;Node30 -->
<g id="edge48" class="edge">
<title>Node6&#45;&gt;Node30</title>
<path fill="none" stroke="midnightblue" d="M1341.52,-360.1C1354.79,-341.9 1378.16,-316.74 1403.5,-301 1423.3,-288.69 1478.78,-271.18 1522.3,-259.02"/>
<polygon fill="midnightblue" stroke="midnightblue" points="1338.6,-358.18 1335.86,-368.41 1344.39,-362.12 1338.6,-358.18"/>
</g>
<!-- Node35 -->
<g id="node35" class="node">
<title>Node35</title>
<g id="a_node35"><a xlink:href="_process_8cpp.html" target="_top" xlink:title=" ">
<polygon fill="white" stroke="black" points="1421.5,-301.5 1421.5,-331.5 1533.5,-331.5 1533.5,-301.5 1421.5,-301.5"/>
<text text-anchor="start" x="1429.5" y="-319.5" font-family="Helvetica,sans-Serif" font-size="10.00">kryne&#45;engine/src/Core</text>
<text text-anchor="middle" x="1477.5" y="-308.5" font-family="Helvetica,sans-Serif" font-size="10.00">/Process.cpp</text>
</a>
</g>
</g>
<!-- Node6&#45;&gt;Node35 -->
<g id="edge49" class="edge">
<title>Node6&#45;&gt;Node35</title>
<path fill="none" stroke="midnightblue" d="M1372.45,-364.27C1395.7,-353.92 1424.37,-341.15 1445.88,-331.58"/>
<polygon fill="midnightblue" stroke="midnightblue" points="1370.89,-361.13 1363.18,-368.4 1373.74,-367.53 1370.89,-361.13"/>
</g>
<!-- Node7&#45;&gt;Node6 -->
<g id="edge41" class="edge">
<title>Node7&#45;&gt;Node6</title>
<path fill="none" stroke="midnightblue" d="M1303.3,-339.23C1311.62,-348.85 1320.2,-359.88 1325.9,-368.4"/>
<polygon fill="midnightblue" stroke="midnightblue" points="1305.72,-336.69 1296.44,-331.58 1300.5,-341.36 1305.72,-336.69"/>
</g>
<!-- Node8 -->
<g id="node8" class="node">
<title>Node8</title>
<g id="a_node8"><a xlink:href="_scene_8h.html" target="_top" xlink:title=" ">
<polygon fill="white" stroke="black" points="552.5,-223.5 552.5,-264.5 676.5,-264.5 676.5,-223.5 552.5,-223.5"/>
<text text-anchor="start" x="560.5" y="-252.5" font-family="Helvetica,sans-Serif" font-size="10.00">kryne&#45;engine/include</text>
<text text-anchor="start" x="560.5" y="-241.5" font-family="Helvetica,sans-Serif" font-size="10.00">/kryne&#45;engine/3DObjects</text>
<text text-anchor="middle" x="614.5" y="-230.5" font-family="Helvetica,sans-Serif" font-size="10.00">/Scene.h</text>
</a>
</g>
</g>
<!-- Node7&#45;&gt;Node8 -->
<g id="edge8" class="edge">
<title>Node7&#45;&gt;Node8</title>
<path fill="none" stroke="midnightblue" d="M1201.6,-307.34C1106.81,-297.39 941.9,-280.06 800.5,-265 759.32,-260.62 713.03,-255.64 676.92,-251.74"/>
<polygon fill="midnightblue" stroke="midnightblue" points="1201.36,-310.83 1211.67,-308.39 1202.09,-303.87 1201.36,-310.83"/>
</g>
<!-- Node10 -->
<g id="node10" class="node">
<title>Node10</title>
<g id="a_node10"><a xlink:href="_transform_8h.html" target="_top" xlink:title=" ">
<polygon fill="white" stroke="black" points="507.5,-145.5 507.5,-186.5 631.5,-186.5 631.5,-145.5 507.5,-145.5"/>
<text text-anchor="start" x="515.5" y="-174.5" font-family="Helvetica,sans-Serif" font-size="10.00">kryne&#45;engine/include</text>
<text text-anchor="start" x="515.5" y="-163.5" font-family="Helvetica,sans-Serif" font-size="10.00">/kryne&#45;engine/3DObjects</text>
<text text-anchor="middle" x="569.5" y="-152.5" font-family="Helvetica,sans-Serif" font-size="10.00">/Transform.h</text>
</a>
</g>
</g>
<!-- Node7&#45;&gt;Node10 -->
<g id="edge21" class="edge">
<title>Node7&#45;&gt;Node10</title>
<path fill="none" stroke="midnightblue" d="M1201.78,-304.5C1140.71,-294.97 1053.83,-280.33 978.5,-265 854.7,-239.8 711.59,-205.01 631.63,-184.38"/>
<polygon fill="midnightblue" stroke="midnightblue" points="1201.31,-307.97 1211.73,-306.05 1202.39,-301.05 1201.31,-307.97"/>
</g>
<!-- Node17 -->
<g id="node17" class="node">
<title>Node17</title>
<g id="a_node17"><a xlink:href="kryne-engine_2_camera_2_camera_8h.html" target="_top" xlink:title=" ">
<polygon fill="white" stroke="black" points="996.5,-223.5 996.5,-264.5 1108.5,-264.5 1108.5,-223.5 996.5,-223.5"/>
<text text-anchor="start" x="1004.5" y="-252.5" font-family="Helvetica,sans-Serif" font-size="10.00">kryne&#45;engine/include</text>
<text text-anchor="start" x="1004.5" y="-241.5" font-family="Helvetica,sans-Serif" font-size="10.00">/kryne&#45;engine/Camera</text>
<text text-anchor="middle" x="1052.5" y="-230.5" font-family="Helvetica,sans-Serif" font-size="10.00">/Camera.h</text>
</a>
</g>
</g>
<!-- Node7&#45;&gt;Node17 -->
<g id="edge22" class="edge">
<title>Node7&#45;&gt;Node17</title>
<path fill="none" stroke="midnightblue" d="M1224.77,-298.5C1189.67,-287.6 1144.21,-273.48 1108.81,-262.49"/>
<polygon fill="midnightblue" stroke="midnightblue" points="1223.79,-301.86 1234.38,-301.49 1225.87,-295.18 1223.79,-301.86"/>
</g>
<!-- Node24 -->
<g id="node24" class="node">
<title>Node24</title>
<g id="a_node24"><a xlink:href="_component_8h.html" target="_top" xlink:title=" ">
<polygon fill="white" stroke="black" points="1200,-229 1200,-259 1359,-259 1359,-229 1200,-229"/>
<text text-anchor="start" x="1208" y="-247" font-family="Helvetica,sans-Serif" font-size="10.00">kryne&#45;engine/include</text>
<text text-anchor="middle" x="1279.5" y="-236" font-family="Helvetica,sans-Serif" font-size="10.00">/kryne&#45;engine/Core/Component.h</text>
</a>
</g>
</g>
<!-- Node7&#45;&gt;Node24 -->
<g id="edge33" class="edge">
<title>Node7&#45;&gt;Node24</title>
<path fill="none" stroke="midnightblue" d="M1273.05,-291.23C1272.45,-280.57 1272.75,-268.41 1273.95,-259.25"/>
<polygon fill="midnightblue" stroke="midnightblue" points="1269.57,-291.59 1273.95,-301.23 1276.54,-290.96 1269.57,-291.59"/>
</g>
<!-- Node7&#45;&gt;Node30 -->
<g id="edge42" class="edge">
<title>Node7&#45;&gt;Node30</title>
<path fill="none" stroke="midnightblue" d="M1351.15,-299.27C1393.96,-289.5 1449.38,-276.73 1498.5,-265 1506.39,-263.12 1514.7,-261.1 1522.88,-259.1"/>
<polygon fill="midnightblue" stroke="midnightblue" points="1350.36,-295.86 1341.39,-301.5 1351.92,-302.69 1350.36,-295.86"/>
</g>
<!-- Node34 -->
<g id="node34" class="node">
<title>Node34</title>
<g id="a_node34"><a xlink:href="_entity_8cpp.html" target="_top" xlink:title=" ">
<polygon fill="white" stroke="black" points="1377.5,-229 1377.5,-259 1489.5,-259 1489.5,-229 1377.5,-229"/>
<text text-anchor="start" x="1385.5" y="-247" font-family="Helvetica,sans-Serif" font-size="10.00">kryne&#45;engine/src/Core</text>
<text text-anchor="middle" x="1433.5" y="-236" font-family="Helvetica,sans-Serif" font-size="10.00">/Entity.cpp</text>
</a>
</g>
</g>
<!-- Node7&#45;&gt;Node34 -->
<g id="edge47" class="edge">
<title>Node7&#45;&gt;Node34</title>
<path fill="none" stroke="midnightblue" d="M1319.5,-297.19C1345.49,-285.29 1378.85,-270.02 1402.76,-259.07"/>
<polygon fill="midnightblue" stroke="midnightblue" points="1317.93,-294.06 1310.29,-301.4 1320.84,-300.42 1317.93,-294.06"/>
</g>
<!-- Node9 -->
<g id="node9" class="node">
<title>Node9</title>
<g id="a_node9"><a xlink:href="3_d_objects_8h.html" target="_top" xlink:title=" ">
<polygon fill="white" stroke="black" points="419,-73 419,-103 546,-103 546,-73 419,-73"/>
<text text-anchor="start" x="427" y="-91" font-family="Helvetica,sans-Serif" font-size="10.00">kryne&#45;engine/include</text>
<text text-anchor="middle" x="482.5" y="-80" font-family="Helvetica,sans-Serif" font-size="10.00">/KEModules/3DObjects.h</text>
</a>
</g>
</g>
<!-- Node8&#45;&gt;Node9 -->
<g id="edge9" class="edge">
<title>Node8&#45;&gt;Node9</title>
<path fill="none" stroke="midnightblue" d="M542.96,-221.5C526.07,-213.24 509.73,-202.04 498.5,-187 479.93,-162.14 479.57,-123.79 480.98,-103.21"/>
<polygon fill="midnightblue" stroke="midnightblue" points="541.83,-224.83 552.38,-225.79 544.73,-218.46 541.83,-224.83"/>
</g>
<!-- Node8&#45;&gt;Node10 -->
<g id="edge10" class="edge">
<title>Node8&#45;&gt;Node10</title>
<path fill="none" stroke="midnightblue" d="M597.78,-214.76C592.21,-205.35 586.14,-195.1 581.05,-186.51"/>
<polygon fill="midnightblue" stroke="midnightblue" points="594.8,-216.61 602.91,-223.43 600.83,-213.04 594.8,-216.61"/>
</g>
<!-- Node12 -->
<g id="node12" class="node">
<title>Node12</title>
<g id="a_node12"><a xlink:href="_loop_renderer_8h.html" target="_top" xlink:title=" ">
<polygon fill="white" stroke="black" points="329.5,-145.5 329.5,-186.5 451.5,-186.5 451.5,-145.5 329.5,-145.5"/>
<text text-anchor="start" x="337.5" y="-174.5" font-family="Helvetica,sans-Serif" font-size="10.00">kryne&#45;engine/include</text>
<text text-anchor="start" x="337.5" y="-163.5" font-family="Helvetica,sans-Serif" font-size="10.00">/kryne&#45;engine/Rendering</text>
<text text-anchor="middle" x="390.5" y="-152.5" font-family="Helvetica,sans-Serif" font-size="10.00">/LoopRenderer.h</text>
</a>
</g>
</g>
<!-- Node8&#45;&gt;Node12 -->
<g id="edge14" class="edge">
<title>Node8&#45;&gt;Node12</title>
<path fill="none" stroke="midnightblue" d="M547.2,-220.17C515.58,-209.44 478.27,-196.78 447.99,-186.51"/>
<polygon fill="midnightblue" stroke="midnightblue" points="546.22,-223.53 556.81,-223.43 548.47,-216.9 546.22,-223.53"/>
</g>
<!-- Node13 -->
<g id="node13" class="node">
<title>Node13</title>
<g id="a_node13"><a xlink:href="_renderer_8h.html" target="_top" xlink:title=" ">
<polygon fill="white" stroke="black" points="724.5,-67.5 724.5,-108.5 846.5,-108.5 846.5,-67.5 724.5,-67.5"/>
<text text-anchor="start" x="732.5" y="-96.5" font-family="Helvetica,sans-Serif" font-size="10.00">kryne&#45;engine/include</text>
<text text-anchor="start" x="732.5" y="-85.5" font-family="Helvetica,sans-Serif" font-size="10.00">/kryne&#45;engine/Rendering</text>
<text text-anchor="middle" x="785.5" y="-74.5" font-family="Helvetica,sans-Serif" font-size="10.00">/Renderer.h</text>
</a>
</g>
</g>
<!-- Node8&#45;&gt;Node13 -->
<g id="edge17" class="edge">
<title>Node8&#45;&gt;Node13</title>
<path fill="none" stroke="midnightblue" d="M628.49,-214.35C639.93,-193.16 657.74,-164.69 679.5,-145 696.09,-129.99 717.44,-117.71 736.62,-108.51"/>
<polygon fill="midnightblue" stroke="midnightblue" points="625.38,-212.74 623.83,-223.22 631.58,-215.99 625.38,-212.74"/>
</g>
<!-- Node16 -->
<g id="node16" class="node">
<title>Node16</title>
<g id="a_node16"><a xlink:href="_scene_8cpp.html" target="_top" xlink:title=" ">
<polygon fill="white" stroke="black" points="688,-151 688,-181 825,-181 825,-151 688,-151"/>
<text text-anchor="start" x="696" y="-169" font-family="Helvetica,sans-Serif" font-size="10.00">kryne&#45;engine/src/3DObjects</text>
<text text-anchor="middle" x="756.5" y="-158" font-family="Helvetica,sans-Serif" font-size="10.00">/Scene.cpp</text>
</a>
</g>
</g>
<!-- Node8&#45;&gt;Node16 -->
<g id="edge20" class="edge">
<title>Node8&#45;&gt;Node16</title>
<path fill="none" stroke="midnightblue" d="M660.01,-218.64C683.08,-206.3 710.29,-191.73 729.92,-181.23"/>
<polygon fill="midnightblue" stroke="midnightblue" points="658.23,-215.62 651.07,-223.43 661.54,-221.8 658.23,-215.62"/>
</g>
<!-- Node10&#45;&gt;Node7 -->
<g id="edge12" class="edge">
<title>Node10&#45;&gt;Node7</title>
<path fill="none" stroke="midnightblue" d="M641.47,-183.66C726.28,-204.2 871.26,-239.51 996.5,-265 1069.98,-279.95 1154.44,-294.25 1211.9,-303.79"/>
<polygon fill="midnightblue" stroke="midnightblue" points="642.23,-180.25 631.68,-181.3 640.58,-187.05 642.23,-180.25"/>
</g>
<!-- Node10&#45;&gt;Node9 -->
<g id="edge11" class="edge">
<title>Node10&#45;&gt;Node9</title>
<path fill="none" stroke="midnightblue" d="M539.35,-138.66C525.73,-126.76 510.17,-113.18 498.78,-103.23"/>
<polygon fill="midnightblue" stroke="midnightblue" points="537.26,-141.49 547.1,-145.43 541.87,-136.21 537.26,-141.49"/>
</g>
<!-- Node11 -->
<g id="node11" class="node">
<title>Node11</title>
<g id="a_node11"><a xlink:href="_transform_8cpp.html" target="_top" xlink:title=" ">
<polygon fill="white" stroke="black" points="564,-73 564,-103 701,-103 701,-73 564,-73"/>
<text text-anchor="start" x="572" y="-91" font-family="Helvetica,sans-Serif" font-size="10.00">kryne&#45;engine/src/3DObjects</text>
<text text-anchor="middle" x="632.5" y="-80" font-family="Helvetica,sans-Serif" font-size="10.00">/Transform.cpp</text>
</a>
</g>
</g>
<!-- Node10&#45;&gt;Node11 -->
<g id="edge13" class="edge">
<title>Node10&#45;&gt;Node11</title>
<path fill="none" stroke="midnightblue" d="M592.17,-137.65C601.83,-126 612.69,-112.9 620.71,-103.23"/>
<polygon fill="midnightblue" stroke="midnightblue" points="589.41,-135.5 585.72,-145.43 594.8,-139.96 589.41,-135.5"/>
</g>
<!-- Node12&#45;&gt;Node1 -->
<g id="edge15" class="edge">
<title>Node12&#45;&gt;Node1</title>
<path fill="none" stroke="midnightblue" d="M390.5,-196.68C390.5,-255.51 390.5,-385.55 390.5,-435.2"/>
<polygon fill="midnightblue" stroke="midnightblue" points="394,-196.55 390.5,-186.55 387,-196.55 394,-196.55"/>
</g>
<!-- Node12&#45;&gt;Node3 -->
<g id="edge16" class="edge">
<title>Node12&#45;&gt;Node3</title>
<path fill="none" stroke="midnightblue" d="M351.56,-139.92C335.7,-129.7 317.64,-118.07 302.78,-108.51"/>
<polygon fill="midnightblue" stroke="midnightblue" points="349.81,-142.96 360.11,-145.43 353.6,-137.07 349.81,-142.96"/>
</g>
<!-- Node14 -->
<g id="node14" class="node">
<title>Node14</title>
<g id="a_node14"><a xlink:href="_rendering_8h.html" target="_top" xlink:title=" ">
<polygon fill="white" stroke="black" points="627,-0.5 627,-30.5 752,-30.5 752,-0.5 627,-0.5"/>
<text text-anchor="start" x="635" y="-18.5" font-family="Helvetica,sans-Serif" font-size="10.00">kryne&#45;engine/include</text>
<text text-anchor="middle" x="689.5" y="-7.5" font-family="Helvetica,sans-Serif" font-size="10.00">/KEModules/Rendering.h</text>
</a>
</g>
</g>
<!-- Node13&#45;&gt;Node14 -->
<g id="edge18" class="edge">
<title>Node13&#45;&gt;Node14</title>
<path fill="none" stroke="midnightblue" d="M750.68,-61.43C736.56,-51.06 720.79,-39.48 708.8,-30.67"/>
<polygon fill="midnightblue" stroke="midnightblue" points="748.63,-64.26 758.76,-67.36 752.77,-58.62 748.63,-64.26"/>
</g>
<!-- Node15 -->
<g id="node15" class="node">
<title>Node15</title>
<g id="a_node15"><a xlink:href="_renderer_8cpp.html" target="_top" xlink:title=" ">
<polygon fill="white" stroke="black" points="770,-0.5 770,-30.5 905,-30.5 905,-0.5 770,-0.5"/>
<text text-anchor="start" x="778" y="-18.5" font-family="Helvetica,sans-Serif" font-size="10.00">kryne&#45;engine/src/Rendering</text>
<text text-anchor="middle" x="837.5" y="-7.5" font-family="Helvetica,sans-Serif" font-size="10.00">/Renderer.cpp</text>
</a>
</g>
</g>
<!-- Node13&#45;&gt;Node15 -->
<g id="edge19" class="edge">
<title>Node13&#45;&gt;Node15</title>
<path fill="none" stroke="midnightblue" d="M806.05,-59.14C813.18,-49.47 820.89,-39.02 826.88,-30.89"/>
<polygon fill="midnightblue" stroke="midnightblue" points="803.1,-57.24 799.98,-67.36 808.74,-61.39 803.1,-57.24"/>
</g>
<!-- Node17&#45;&gt;Node13 -->
<g id="edge31" class="edge">
<title>Node17&#45;&gt;Node13</title>
<path fill="none" stroke="midnightblue" d="M1037.12,-214.52C1023.83,-192.49 1002.65,-162.82 976.5,-145 973.68,-143.08 901.36,-122.13 846.54,-106.42"/>
<polygon fill="midnightblue" stroke="midnightblue" points="1034.26,-216.57 1042.33,-223.44 1040.31,-213.04 1034.26,-216.57"/>
</g>
<!-- Node18 -->
<g id="node18" class="node">
<title>Node18</title>
<g id="a_node18"><a xlink:href="_k_e_modules_2_camera_8h.html" target="_top" xlink:title=" ">
<polygon fill="white" stroke="black" points="976,-0.5 976,-30.5 1091,-30.5 1091,-0.5 976,-0.5"/>
<text text-anchor="start" x="984" y="-18.5" font-family="Helvetica,sans-Serif" font-size="10.00">kryne&#45;engine/include</text>
<text text-anchor="middle" x="1033.5" y="-7.5" font-family="Helvetica,sans-Serif" font-size="10.00">/KEModules/Camera.h</text>
</a>
</g>
</g>
<!-- Node17&#45;&gt;Node18 -->
<g id="edge23" class="edge">
<title>Node17&#45;&gt;Node18</title>
<path fill="none" stroke="midnightblue" d="M1050,-213.24C1045.86,-163.85 1037.72,-66.81 1034.68,-30.58"/>
<polygon fill="midnightblue" stroke="midnightblue" points="1046.52,-213.62 1050.85,-223.3 1053.5,-213.04 1046.52,-213.62"/>
</g>
<!-- Node19 -->
<g id="node19" class="node">
<title>Node19</title>
<g id="a_node19"><a xlink:href="_mesh_8h.html" target="_top" xlink:title=" ">
<polygon fill="white" stroke="black" points="843.5,-145.5 843.5,-186.5 967.5,-186.5 967.5,-145.5 843.5,-145.5"/>
<text text-anchor="start" x="851.5" y="-174.5" font-family="Helvetica,sans-Serif" font-size="10.00">kryne&#45;engine/include</text>
<text text-anchor="start" x="851.5" y="-163.5" font-family="Helvetica,sans-Serif" font-size="10.00">/kryne&#45;engine/3DObjects</text>
<text text-anchor="middle" x="905.5" y="-152.5" font-family="Helvetica,sans-Serif" font-size="10.00">/Mesh.h</text>
</a>
</g>
</g>
<!-- Node17&#45;&gt;Node19 -->
<g id="edge24" class="edge">
<title>Node17&#45;&gt;Node19</title>
<path fill="none" stroke="midnightblue" d="M1005.63,-218.77C985.48,-208.35 962.24,-196.34 943.23,-186.51"/>
<polygon fill="midnightblue" stroke="midnightblue" points="1004.15,-221.94 1014.64,-223.43 1007.37,-215.73 1004.15,-221.94"/>
</g>
<!-- Node21 -->
<g id="node21" class="node">
<title>Node21</title>
<g id="a_node21"><a xlink:href="_orbit_controls_component_8h.html" target="_top" xlink:title=" ">
<polygon fill="white" stroke="black" points="1088.5,-67.5 1088.5,-108.5 1222.5,-108.5 1222.5,-67.5 1088.5,-67.5"/>
<text text-anchor="start" x="1096.5" y="-96.5" font-family="Helvetica,sans-Serif" font-size="10.00">kryne&#45;engine/include</text>
<text text-anchor="start" x="1096.5" y="-85.5" font-family="Helvetica,sans-Serif" font-size="10.00">/kryne&#45;engine/Camera</text>
<text text-anchor="middle" x="1155.5" y="-74.5" font-family="Helvetica,sans-Serif" font-size="10.00">/OrbitControlsComponent.h</text>
</a>
</g>
</g>
<!-- Node17&#45;&gt;Node21 -->
<g id="edge28" class="edge">
<title>Node17&#45;&gt;Node21</title>
<path fill="none" stroke="midnightblue" d="M1060.23,-213.52C1066.51,-193.06 1076.76,-165.85 1091.5,-145 1101.3,-131.14 1115.21,-118.43 1127.56,-108.63"/>
<polygon fill="midnightblue" stroke="midnightblue" points="1056.83,-212.67 1057.38,-223.25 1063.55,-214.63 1056.83,-212.67"/>
</g>
<!-- Node23 -->
<g id="node23" class="node">
<title>Node23</title>
<g id="a_node23"><a xlink:href="_camera_8cpp.html" target="_top" xlink:title=" ">
<polygon fill="white" stroke="black" points="1100,-151 1100,-181 1225,-181 1225,-151 1100,-151"/>
<text text-anchor="start" x="1108" y="-169" font-family="Helvetica,sans-Serif" font-size="10.00">kryne&#45;engine/src/Camera</text>
<text text-anchor="middle" x="1162.5" y="-158" font-family="Helvetica,sans-Serif" font-size="10.00">/Camera.cpp</text>
</a>
</g>
</g>
<!-- Node17&#45;&gt;Node23 -->
<g id="edge32" class="edge">
<title>Node17&#45;&gt;Node23</title>
<path fill="none" stroke="midnightblue" d="M1089.18,-217.66C1106.74,-205.53 1127.11,-191.45 1141.91,-181.23"/>
<polygon fill="midnightblue" stroke="midnightblue" points="1087.07,-214.86 1080.83,-223.43 1091.04,-220.62 1087.07,-214.86"/>
</g>
<!-- Node19&#45;&gt;Node9 -->
<g id="edge25" class="edge">
<title>Node19&#45;&gt;Node9</title>
<path fill="none" stroke="midnightblue" d="M833.47,-144.95C710.22,-120.65 674.98,-132.95 555.5,-109 547.25,-107.35 538.57,-105.27 530.18,-103.09"/>
<polygon fill="midnightblue" stroke="midnightblue" points="832.79,-148.38 843.29,-146.92 834.17,-141.52 832.79,-148.38"/>
</g>
<!-- Node19&#45;&gt;Node13 -->
<g id="edge26" class="edge">
<title>Node19&#45;&gt;Node13</title>
<path fill="none" stroke="midnightblue" d="M865.9,-139.92C849.77,-129.7 831.4,-118.07 816.3,-108.51"/>
<polygon fill="midnightblue" stroke="midnightblue" points="864.28,-143.03 874.6,-145.43 868.02,-137.12 864.28,-143.03"/>
</g>
<!-- Node20 -->
<g id="node20" class="node">
<title>Node20</title>
<g id="a_node20"><a xlink:href="_mesh_8cpp.html" target="_top" xlink:title=" ">
<polygon fill="white" stroke="black" points="865,-73 865,-103 1002,-103 1002,-73 865,-73"/>
<text text-anchor="start" x="873" y="-91" font-family="Helvetica,sans-Serif" font-size="10.00">kryne&#45;engine/src/3DObjects</text>
<text text-anchor="middle" x="933.5" y="-80" font-family="Helvetica,sans-Serif" font-size="10.00">/Mesh.cpp</text>
</a>
</g>
</g>
<!-- Node19&#45;&gt;Node20 -->
<g id="edge27" class="edge">
<title>Node19&#45;&gt;Node20</title>
<path fill="none" stroke="midnightblue" d="M916.2,-135.96C920.33,-124.75 924.87,-112.43 928.26,-103.23"/>
<polygon fill="midnightblue" stroke="midnightblue" points="912.88,-134.83 912.71,-145.43 919.45,-137.25 912.88,-134.83"/>
</g>
<!-- Node21&#45;&gt;Node18 -->
<g id="edge29" class="edge">
<title>Node21&#45;&gt;Node18</title>
<path fill="none" stroke="midnightblue" d="M1112.75,-62.3C1094.43,-51.71 1073.69,-39.72 1058.02,-30.67"/>
<polygon fill="midnightblue" stroke="midnightblue" points="1111.11,-65.39 1121.52,-67.36 1114.61,-59.33 1111.11,-65.39"/>
</g>
<!-- Node22 -->
<g id="node22" class="node">
<title>Node22</title>
<g id="a_node22"><a xlink:href="_orbit_controls_component_8cpp.html" target="_top" xlink:title=" ">
<polygon fill="white" stroke="black" points="1109,-0.5 1109,-30.5 1254,-30.5 1254,-0.5 1109,-0.5"/>
<text text-anchor="start" x="1117" y="-18.5" font-family="Helvetica,sans-Serif" font-size="10.00">kryne&#45;engine/src/Camera</text>
<text text-anchor="middle" x="1181.5" y="-7.5" font-family="Helvetica,sans-Serif" font-size="10.00">/OrbitControlsComponent.cpp</text>
</a>
</g>
</g>
<!-- Node21&#45;&gt;Node22 -->
<g id="edge30" class="edge">
<title>Node21&#45;&gt;Node22</title>
<path fill="none" stroke="midnightblue" d="M1166.21,-57.97C1169.65,-48.63 1173.31,-38.7 1176.19,-30.89"/>
<polygon fill="midnightblue" stroke="midnightblue" points="1162.92,-56.77 1162.74,-67.36 1169.49,-59.19 1162.92,-56.77"/>
</g>
<!-- Node24&#45;&gt;Node7 -->
<g id="edge34" class="edge">
<title>Node24&#45;&gt;Node7</title>
<path fill="none" stroke="midnightblue" d="M1285.95,-269.24C1286.55,-279.91 1286.25,-292.06 1285.05,-301.23"/>
<polygon fill="midnightblue" stroke="midnightblue" points="1289.43,-268.89 1285.05,-259.25 1282.46,-269.52 1289.43,-268.89"/>
</g>
<!-- Node25 -->
<g id="node25" class="node">
<title>Node25</title>
<g id="a_node25"><a xlink:href="_logic_component_8h.html" target="_top" xlink:title=" ">
<polygon fill="white" stroke="black" points="1243.5,-151 1243.5,-181 1425.5,-181 1425.5,-151 1243.5,-151"/>
<text text-anchor="start" x="1251.5" y="-169" font-family="Helvetica,sans-Serif" font-size="10.00">kryne&#45;engine/include</text>
<text text-anchor="middle" x="1334.5" y="-158" font-family="Helvetica,sans-Serif" font-size="10.00">/kryne&#45;engine/Core/LogicComponent.h</text>
</a>
</g>
</g>
<!-- Node24&#45;&gt;Node25 -->
<g id="edge35" class="edge">
<title>Node24&#45;&gt;Node25</title>
<path fill="none" stroke="midnightblue" d="M1295.83,-220.44C1305.02,-207.73 1316.22,-192.25 1324.2,-181.23"/>
<polygon fill="midnightblue" stroke="midnightblue" points="1292.87,-218.55 1289.85,-228.7 1298.54,-222.66 1292.87,-218.55"/>
</g>
<!-- Node27 -->
<g id="node27" class="node">
<title>Node27</title>
<g id="a_node27"><a xlink:href="_render_mesh_8h.html" target="_top" xlink:title=" ">
<polygon fill="white" stroke="black" points="1443.5,-145.5 1443.5,-186.5 1565.5,-186.5 1565.5,-145.5 1443.5,-145.5"/>
<text text-anchor="start" x="1451.5" y="-174.5" font-family="Helvetica,sans-Serif" font-size="10.00">kryne&#45;engine/include</text>
<text text-anchor="start" x="1451.5" y="-163.5" font-family="Helvetica,sans-Serif" font-size="10.00">/kryne&#45;engine/Rendering</text>
<text text-anchor="middle" x="1504.5" y="-152.5" font-family="Helvetica,sans-Serif" font-size="10.00">/RenderMesh.h</text>
</a>
</g>
</g>
<!-- Node24&#45;&gt;Node27 -->
<g id="edge38" class="edge">
<title>Node24&#45;&gt;Node27</title>
<path fill="none" stroke="midnightblue" d="M1330.91,-225.64C1365.41,-213.98 1410.92,-198.61 1446.68,-186.53"/>
<polygon fill="midnightblue" stroke="midnightblue" points="1329.38,-222.46 1321.03,-228.97 1331.62,-229.09 1329.38,-222.46"/>
</g>
<!-- Node29 -->
<g id="node29" class="node">
<title>Node29</title>
<g id="a_node29"><a xlink:href="_component_8cpp.html" target="_top" xlink:title=" ">
<polygon fill="white" stroke="black" points="1583.5,-151 1583.5,-181 1695.5,-181 1695.5,-151 1583.5,-151"/>
<text text-anchor="start" x="1591.5" y="-169" font-family="Helvetica,sans-Serif" font-size="10.00">kryne&#45;engine/src/Core</text>
<text text-anchor="middle" x="1639.5" y="-158" font-family="Helvetica,sans-Serif" font-size="10.00">/Component.cpp</text>
</a>
</g>
</g>
<!-- Node24&#45;&gt;Node29 -->
<g id="edge40" class="edge">
<title>Node24&#45;&gt;Node29</title>
<path fill="none" stroke="midnightblue" d="M1350.01,-226.83C1356.26,-225.5 1362.49,-224.2 1368.5,-223 1459.64,-204.81 1484.13,-208.71 1574.5,-187 1581.62,-185.29 1589.1,-183.24 1596.35,-181.1"/>
<polygon fill="midnightblue" stroke="midnightblue" points="1349.25,-223.41 1340.22,-228.95 1350.73,-230.25 1349.25,-223.41"/>
</g>
<!-- Node25&#45;&gt;Node21 -->
<g id="edge36" class="edge">
<title>Node25&#45;&gt;Node21</title>
<path fill="none" stroke="midnightblue" d="M1292,-146.96C1264.83,-135.42 1229.6,-120.46 1201.73,-108.63"/>
<polygon fill="midnightblue" stroke="midnightblue" points="1290.68,-150.2 1301.25,-150.88 1293.41,-143.75 1290.68,-150.2"/>
</g>
<!-- Node26 -->
<g id="node26" class="node">
<title>Node26</title>
<g id="a_node26"><a xlink:href="_logic_component_8cpp.html" target="_top" xlink:title=" ">
<polygon fill="white" stroke="black" points="1278.5,-73 1278.5,-103 1390.5,-103 1390.5,-73 1278.5,-73"/>
<text text-anchor="start" x="1286.5" y="-91" font-family="Helvetica,sans-Serif" font-size="10.00">kryne&#45;engine/src/Core</text>
<text text-anchor="middle" x="1334.5" y="-80" font-family="Helvetica,sans-Serif" font-size="10.00">/LogicComponent.cpp</text>
</a>
</g>
</g>
<!-- Node25&#45;&gt;Node26 -->
<g id="edge37" class="edge">
<title>Node25&#45;&gt;Node26</title>
<path fill="none" stroke="midnightblue" d="M1334.5,-140.59C1334.5,-128.26 1334.5,-113.72 1334.5,-103.23"/>
<polygon fill="midnightblue" stroke="midnightblue" points="1331,-140.7 1334.5,-150.7 1338,-140.71 1331,-140.7"/>
</g>
<!-- Node28 -->
<g id="node28" class="node">
<title>Node28</title>
<g id="a_node28"><a xlink:href="_render_mesh_8cpp.html" target="_top" xlink:title=" ">
<polygon fill="white" stroke="black" points="1437,-73 1437,-103 1572,-103 1572,-73 1437,-73"/>
<text text-anchor="start" x="1445" y="-91" font-family="Helvetica,sans-Serif" font-size="10.00">kryne&#45;engine/src/Rendering</text>
<text text-anchor="middle" x="1504.5" y="-80" font-family="Helvetica,sans-Serif" font-size="10.00">/RenderMesh.cpp</text>
</a>
</g>
</g>
<!-- Node27&#45;&gt;Node28 -->
<g id="edge39" class="edge">
<title>Node27&#45;&gt;Node28</title>
<path fill="none" stroke="midnightblue" d="M1504.5,-135.28C1504.5,-124.25 1504.5,-112.25 1504.5,-103.23"/>
<polygon fill="midnightblue" stroke="midnightblue" points="1501,-135.43 1504.5,-145.43 1508,-135.43 1501,-135.43"/>
</g>
<!-- Node30&#45;&gt;Node6 -->
<g id="edge43" class="edge">
<title>Node30&#45;&gt;Node6</title>
<path fill="none" stroke="midnightblue" d="M1526.92,-261.97C1488.33,-273.88 1439.76,-289.65 1421.5,-301 1392.02,-319.32 1365.19,-350.39 1348.21,-368.41"/>
<polygon fill="midnightblue" stroke="midnightblue" points="1527.96,-265.31 1536.49,-259.02 1525.9,-258.62 1527.96,-265.31"/>
</g>
<!-- Node31 -->
<g id="node31" class="node">
<title>Node31</title>
<g id="a_node31"><a xlink:href="_transform_update_system_8h.html" target="_top" xlink:title=" ">
<polygon fill="white" stroke="black" points="1714,-145.5 1714,-186.5 1849,-186.5 1849,-145.5 1714,-145.5"/>
<text text-anchor="start" x="1722" y="-174.5" font-family="Helvetica,sans-Serif" font-size="10.00">kryne&#45;engine/include</text>
<text text-anchor="start" x="1722" y="-163.5" font-family="Helvetica,sans-Serif" font-size="10.00">/kryne&#45;engine/Systems</text>
<text text-anchor="middle" x="1781.5" y="-152.5" font-family="Helvetica,sans-Serif" font-size="10.00">/TransformUpdateSystem.h</text>
</a>
</g>
</g>
<!-- Node30&#45;&gt;Node31 -->
<g id="edge44" class="edge">
<title>Node30&#45;&gt;Node31</title>
<path fill="none" stroke="midnightblue" d="M1626.66,-225.26C1657.42,-213.68 1697.61,-198.56 1729.33,-186.63"/>
<polygon fill="midnightblue" stroke="midnightblue" points="1625.15,-222.09 1617.02,-228.88 1627.61,-228.64 1625.15,-222.09"/>
</g>
<!-- Node33 -->
<g id="node33" class="node">
<title>Node33</title>
<g id="a_node33"><a xlink:href="_system_8cpp.html" target="_top" xlink:title=" ">
<polygon fill="white" stroke="black" points="1867.5,-151 1867.5,-181 1979.5,-181 1979.5,-151 1867.5,-151"/>
<text text-anchor="start" x="1875.5" y="-169" font-family="Helvetica,sans-Serif" font-size="10.00">kryne&#45;engine/src/Core</text>
<text text-anchor="middle" x="1923.5" y="-158" font-family="Helvetica,sans-Serif" font-size="10.00">/System.cpp</text>
</a>
</g>
</g>
<!-- Node30&#45;&gt;Node33 -->
<g id="edge46" class="edge">
<title>Node30&#45;&gt;Node33</title>
<path fill="none" stroke="midnightblue" d="M1660.89,-228.89C1716.8,-218.66 1792.54,-203.72 1858.5,-187 1865.48,-185.23 1872.83,-183.17 1879.96,-181.05"/>
<polygon fill="midnightblue" stroke="midnightblue" points="1660.25,-225.45 1651.04,-230.69 1661.51,-232.34 1660.25,-225.45"/>
</g>
<!-- Node32 -->
<g id="node32" class="node">
<title>Node32</title>
<g id="a_node32"><a xlink:href="_transform_update_system_8cpp.html" target="_top" xlink:title=" ">
<polygon fill="white" stroke="black" points="1708.5,-73 1708.5,-103 1854.5,-103 1854.5,-73 1708.5,-73"/>
<text text-anchor="start" x="1716.5" y="-91" font-family="Helvetica,sans-Serif" font-size="10.00">kryne&#45;engine/src/Systems</text>
<text text-anchor="middle" x="1781.5" y="-80" font-family="Helvetica,sans-Serif" font-size="10.00">/TransformUpdateSystem.cpp</text>
</a>
</g>
</g>
<!-- Node31&#45;&gt;Node32 -->
<g id="edge45" class="edge">
<title>Node31&#45;&gt;Node32</title>
<path fill="none" stroke="midnightblue" d="M1781.5,-135.28C1781.5,-124.25 1781.5,-112.25 1781.5,-103.23"/>
<polygon fill="midnightblue" stroke="midnightblue" points="1778,-135.43 1781.5,-145.43 1785,-135.43 1778,-135.43"/>
</g>
</g>
</svg>
