<?xml version="1.0" encoding="UTF-8" standalone="no"?>
<!DOCTYPE svg PUBLIC "-//W3C//DTD SVG 1.1//EN"
 "http://www.w3.org/Graphics/SVG/1.1/DTD/svg11.dtd">
<!-- Generated by graphviz version 2.44.1 (20200629.0846)
 -->
<!-- Title: kryne&#45;engine/include/kryne&#45;engine/3DObjects/HierarchicalNode.h Pages: 1 -->
<svg width="607pt" height="507pt"
 viewBox="0.00 0.00 606.50 507.00" xmlns="http://www.w3.org/2000/svg" xmlns:xlink="http://www.w3.org/1999/xlink">
<g id="graph0" class="graph" transform="scale(1 1) rotate(0) translate(4 503)">
<title>kryne&#45;engine/include/kryne&#45;engine/3DObjects/HierarchicalNode.h</title>
<polygon fill="white" stroke="transparent" points="-4,4 -4,-503 602.5,-503 602.5,4 -4,4"/>
<!-- Node1 -->
<g id="node1" class="node">
<title>Node1</title>
<g id="a_node1"><a xlink:title=" ">
<polygon fill="#bfbfbf" stroke="black" points="313,-457.5 313,-498.5 437,-498.5 437,-457.5 313,-457.5"/>
<text text-anchor="start" x="321" y="-486.5" font-family="Helvetica,sans-Serif" font-size="10.00">kryne&#45;engine/include</text>
<text text-anchor="start" x="321" y="-475.5" font-family="Helvetica,sans-Serif" font-size="10.00">/kryne&#45;engine/3DObjects</text>
<text text-anchor="middle" x="375" y="-464.5" font-family="Helvetica,sans-Serif" font-size="10.00">/HierarchicalNode.h</text>
</a>
</g>
</g>
<!-- Node2 -->
<g id="node2" class="node">
<title>Node2</title>
<g id="a_node2"><a xlink:href="_render_pass_8h.html" target="_top" xlink:title=" ">
<polygon fill="white" stroke="black" points="270,-379.5 270,-420.5 392,-420.5 392,-379.5 270,-379.5"/>
<text text-anchor="start" x="278" y="-408.5" font-family="Helvetica,sans-Serif" font-size="10.00">kryne&#45;engine/include</text>
<text text-anchor="start" x="278" y="-397.5" font-family="Helvetica,sans-Serif" font-size="10.00">/kryne&#45;engine/Rendering</text>
<text text-anchor="middle" x="331" y="-386.5" font-family="Helvetica,sans-Serif" font-size="10.00">/RenderPass.h</text>
</a>
</g>
</g>
<!-- Node1&#45;&gt;Node2 -->
<g id="edge1" class="edge">
<title>Node1&#45;&gt;Node2</title>
<path fill="none" stroke="midnightblue" d="M352.1,-448.76C346.26,-439.35 340.51,-429.1 336.31,-420.51"/>
<polygon fill="midnightblue" stroke="midnightblue" points="349.33,-450.91 357.68,-457.43 355.21,-447.12 349.33,-450.91"/>
</g>
<!-- Node10 -->
<g id="node10" class="node">
<title>Node10</title>
<g id="a_node10"><a xlink:href="_shadow_map_handler_8h.html" target="_top" xlink:title=" ">
<polygon fill="white" stroke="black" points="381,-212.5 381,-253.5 569,-253.5 569,-212.5 381,-212.5"/>
<text text-anchor="start" x="389" y="-241.5" font-family="Helvetica,sans-Serif" font-size="10.00">kryne&#45;engine/include</text>
<text text-anchor="start" x="389" y="-230.5" font-family="Helvetica,sans-Serif" font-size="10.00">/kryne&#45;engine/Rendering</text>
<text text-anchor="middle" x="475" y="-219.5" font-family="Helvetica,sans-Serif" font-size="10.00">/ShadowMapping/ShadowMapHandler.h</text>
</a>
</g>
</g>
<!-- Node1&#45;&gt;Node10 -->
<g id="edge14" class="edge">
<title>Node1&#45;&gt;Node10</title>
<path fill="none" stroke="midnightblue" d="M388.8,-448.11C392.84,-439.44 397.19,-429.87 401,-421 426.98,-360.53 454.82,-287.72 467.7,-253.53"/>
<polygon fill="midnightblue" stroke="midnightblue" points="385.51,-446.89 384.42,-457.43 391.84,-449.87 385.51,-446.89"/>
</g>
<!-- Node13 -->
<g id="node13" class="node">
<title>Node13</title>
<g id="a_node13"><a xlink:href="_hierarchical_node_8cpp.html" target="_top" xlink:title=" ">
<polygon fill="white" stroke="black" points="461.5,-385 461.5,-415 598.5,-415 598.5,-385 461.5,-385"/>
<text text-anchor="start" x="469.5" y="-403" font-family="Helvetica,sans-Serif" font-size="10.00">kryne&#45;engine/src/3DObjects</text>
<text text-anchor="middle" x="530" y="-392" font-family="Helvetica,sans-Serif" font-size="10.00">/HierarchicalNode.cpp</text>
</a>
</g>
</g>
<!-- Node1&#45;&gt;Node13 -->
<g id="edge15" class="edge">
<title>Node1&#45;&gt;Node13</title>
<path fill="none" stroke="midnightblue" d="M424.01,-452.97C449.33,-440.55 479.37,-425.83 500.99,-415.23"/>
<polygon fill="midnightblue" stroke="midnightblue" points="422.35,-449.88 414.92,-457.43 425.44,-456.17 422.35,-449.88"/>
</g>
<!-- Node2&#45;&gt;Node1 -->
<g id="edge2" class="edge">
<title>Node2&#45;&gt;Node1</title>
<path fill="none" stroke="midnightblue" d="M353.85,-429.17C359.7,-438.57 365.45,-448.83 369.66,-457.43"/>
<polygon fill="midnightblue" stroke="midnightblue" points="356.63,-427.02 348.27,-420.51 350.75,-430.81 356.63,-427.02"/>
</g>
<!-- Node3 -->
<g id="node3" class="node">
<title>Node3</title>
<g id="a_node3"><a xlink:href="_main_renderer_8h.html" target="_top" xlink:title=" ">
<polygon fill="white" stroke="black" points="42,-296 42,-337 164,-337 164,-296 42,-296"/>
<text text-anchor="start" x="50" y="-325" font-family="Helvetica,sans-Serif" font-size="10.00">kryne&#45;engine/include</text>
<text text-anchor="start" x="50" y="-314" font-family="Helvetica,sans-Serif" font-size="10.00">/kryne&#45;engine/Rendering</text>
<text text-anchor="middle" x="103" y="-303" font-family="Helvetica,sans-Serif" font-size="10.00">/MainRenderer.h</text>
</a>
</g>
</g>
<!-- Node2&#45;&gt;Node3 -->
<g id="edge3" class="edge">
<title>Node2&#45;&gt;Node3</title>
<path fill="none" stroke="midnightblue" d="M266.89,-376.08C232.44,-363.77 190.43,-348.75 157.56,-337"/>
<polygon fill="midnightblue" stroke="midnightblue" points="265.79,-379.41 276.39,-379.48 268.15,-372.82 265.79,-379.41"/>
</g>
<!-- Node9 -->
<g id="node9" class="node">
<title>Node9</title>
<g id="a_node9"><a xlink:href="_directional_shadow_map_rendering_8h.html" target="_top" xlink:title=" ">
<polygon fill="white" stroke="black" points="231,-290.5 231,-342.5 405,-342.5 405,-290.5 231,-290.5"/>
<text text-anchor="start" x="239" y="-330.5" font-family="Helvetica,sans-Serif" font-size="10.00">kryne&#45;engine/include</text>
<text text-anchor="start" x="239" y="-319.5" font-family="Helvetica,sans-Serif" font-size="10.00">/kryne&#45;engine/Rendering</text>
<text text-anchor="start" x="239" y="-308.5" font-family="Helvetica,sans-Serif" font-size="10.00">/ShadowMapping/DirectionalShadow</text>
<text text-anchor="middle" x="318" y="-297.5" font-family="Helvetica,sans-Serif" font-size="10.00">MapRendering.h</text>
</a>
</g>
</g>
<!-- Node2&#45;&gt;Node9 -->
<g id="edge9" class="edge">
<title>Node2&#45;&gt;Node9</title>
<path fill="none" stroke="midnightblue" d="M326.23,-369.12C324.84,-360.41 323.34,-350.99 322,-342.61"/>
<polygon fill="midnightblue" stroke="midnightblue" points="322.82,-369.95 327.85,-379.27 329.73,-368.84 322.82,-369.95"/>
</g>
<!-- Node4 -->
<g id="node4" class="node">
<title>Node4</title>
<g id="a_node4"><a xlink:href="_render_scene_8h.html" target="_top" xlink:title=" ">
<polygon fill="white" stroke="black" points="91,-134.5 91,-175.5 213,-175.5 213,-134.5 91,-134.5"/>
<text text-anchor="start" x="99" y="-163.5" font-family="Helvetica,sans-Serif" font-size="10.00">kryne&#45;engine/include</text>
<text text-anchor="start" x="99" y="-152.5" font-family="Helvetica,sans-Serif" font-size="10.00">/kryne&#45;engine/Rendering</text>
<text text-anchor="middle" x="152" y="-141.5" font-family="Helvetica,sans-Serif" font-size="10.00">/RenderScene.h</text>
</a>
</g>
</g>
<!-- Node3&#45;&gt;Node4 -->
<g id="edge4" class="edge">
<title>Node3&#45;&gt;Node4</title>
<path fill="none" stroke="midnightblue" d="M57.7,-290.05C45.08,-280.51 32.94,-268.42 26,-254 17.91,-237.18 15.83,-227.65 26,-212 40.54,-189.62 66.32,-176.11 90.79,-167.99"/>
<polygon fill="midnightblue" stroke="midnightblue" points="55.83,-293.01 66.01,-295.95 59.88,-287.31 55.83,-293.01"/>
</g>
<!-- Node8 -->
<g id="node8" class="node">
<title>Node8</title>
<g id="a_node8"><a xlink:href="_main_renderer_8cpp.html" target="_top" xlink:title=" ">
<polygon fill="white" stroke="black" points="35.5,-218 35.5,-248 170.5,-248 170.5,-218 35.5,-218"/>
<text text-anchor="start" x="43.5" y="-236" font-family="Helvetica,sans-Serif" font-size="10.00">kryne&#45;engine/src/Rendering</text>
<text text-anchor="middle" x="103" y="-225" font-family="Helvetica,sans-Serif" font-size="10.00">/MainRenderer.cpp</text>
</a>
</g>
</g>
<!-- Node3&#45;&gt;Node8 -->
<g id="edge8" class="edge">
<title>Node3&#45;&gt;Node8</title>
<path fill="none" stroke="midnightblue" d="M103,-285.53C103,-272.76 103,-258.47 103,-248.18"/>
<polygon fill="midnightblue" stroke="midnightblue" points="99.5,-285.77 103,-295.77 106.5,-285.77 99.5,-285.77"/>
</g>
<!-- Node5 -->
<g id="node5" class="node">
<title>Node5</title>
<g id="a_node5"><a xlink:href="_process_8h.html" target="_top" xlink:title=" ">
<polygon fill="white" stroke="black" points="0,-67.5 0,-97.5 146,-97.5 146,-67.5 0,-67.5"/>
<text text-anchor="start" x="8" y="-85.5" font-family="Helvetica,sans-Serif" font-size="10.00">kryne&#45;engine/include</text>
<text text-anchor="middle" x="73" y="-74.5" font-family="Helvetica,sans-Serif" font-size="10.00">/kryne&#45;engine/Core/Process.h</text>
</a>
</g>
</g>
<!-- Node4&#45;&gt;Node5 -->
<g id="edge5" class="edge">
<title>Node4&#45;&gt;Node5</title>
<path fill="none" stroke="midnightblue" d="M122.36,-127.55C111,-117.41 98.47,-106.23 88.88,-97.67"/>
<polygon fill="midnightblue" stroke="midnightblue" points="120.2,-130.31 129.99,-134.36 124.86,-125.09 120.2,-130.31"/>
</g>
<!-- Node7 -->
<g id="node7" class="node">
<title>Node7</title>
<g id="a_node7"><a xlink:href="_render_scene_8cpp.html" target="_top" xlink:title=" ">
<polygon fill="white" stroke="black" points="164.5,-67.5 164.5,-97.5 299.5,-97.5 299.5,-67.5 164.5,-67.5"/>
<text text-anchor="start" x="172.5" y="-85.5" font-family="Helvetica,sans-Serif" font-size="10.00">kryne&#45;engine/src/Rendering</text>
<text text-anchor="middle" x="232" y="-74.5" font-family="Helvetica,sans-Serif" font-size="10.00">/RenderScene.cpp</text>
</a>
</g>
</g>
<!-- Node4&#45;&gt;Node7 -->
<g id="edge7" class="edge">
<title>Node4&#45;&gt;Node7</title>
<path fill="none" stroke="midnightblue" d="M182.01,-127.55C193.52,-117.41 206.21,-106.23 215.92,-97.67"/>
<polygon fill="midnightblue" stroke="midnightblue" points="179.47,-125.12 174.28,-134.36 184.1,-130.38 179.47,-125.12"/>
</g>
<!-- Node6 -->
<g id="node6" class="node">
<title>Node6</title>
<g id="a_node6"><a xlink:href="_process_8cpp.html" target="_top" xlink:title=" ">
<polygon fill="white" stroke="black" points="17,-0.5 17,-30.5 129,-30.5 129,-0.5 17,-0.5"/>
<text text-anchor="start" x="25" y="-18.5" font-family="Helvetica,sans-Serif" font-size="10.00">kryne&#45;engine/src/Core</text>
<text text-anchor="middle" x="73" y="-7.5" font-family="Helvetica,sans-Serif" font-size="10.00">/Process.cpp</text>
</a>
</g>
</g>
<!-- Node5&#45;&gt;Node6 -->
<g id="edge6" class="edge">
<title>Node5&#45;&gt;Node6</title>
<path fill="none" stroke="midnightblue" d="M73,-57.11C73,-48.15 73,-38.32 73,-30.58"/>
<polygon fill="midnightblue" stroke="midnightblue" points="69.5,-57.4 73,-67.4 76.5,-57.4 69.5,-57.4"/>
</g>
<!-- Node9&#45;&gt;Node10 -->
<g id="edge10" class="edge">
<title>Node9&#45;&gt;Node10</title>
<path fill="none" stroke="midnightblue" d="M375.38,-285.71C396,-275.01 418.71,-263.22 437.24,-253.6"/>
<polygon fill="midnightblue" stroke="midnightblue" points="373.65,-282.67 366.39,-290.38 376.87,-288.88 373.65,-282.67"/>
</g>
<!-- Node12 -->
<g id="node12" class="node">
<title>Node12</title>
<g id="a_node12"><a xlink:href="_directional_shadow_map_rendering_8cpp.html" target="_top" xlink:title=" ">
<polygon fill="white" stroke="black" points="189,-212.5 189,-253.5 363,-253.5 363,-212.5 189,-212.5"/>
<text text-anchor="start" x="197" y="-241.5" font-family="Helvetica,sans-Serif" font-size="10.00">kryne&#45;engine/src/Rendering</text>
<text text-anchor="start" x="197" y="-230.5" font-family="Helvetica,sans-Serif" font-size="10.00">/ShadowMapping/DirectionalShadow</text>
<text text-anchor="middle" x="276" y="-219.5" font-family="Helvetica,sans-Serif" font-size="10.00">MapRendering.cpp</text>
</a>
</g>
</g>
<!-- Node9&#45;&gt;Node12 -->
<g id="edge13" class="edge">
<title>Node9&#45;&gt;Node12</title>
<path fill="none" stroke="midnightblue" d="M300.23,-281.03C295.41,-271.67 290.35,-261.85 286.12,-253.63"/>
<polygon fill="midnightblue" stroke="midnightblue" points="297.25,-282.87 304.94,-290.16 303.47,-279.67 297.25,-282.87"/>
</g>
<!-- Node10&#45;&gt;Node4 -->
<g id="edge11" class="edge">
<title>Node10&#45;&gt;Node4</title>
<path fill="none" stroke="midnightblue" d="M381.85,-210.08C327.63,-197.33 260.81,-181.6 213.22,-170.4"/>
<polygon fill="midnightblue" stroke="midnightblue" points="381.28,-213.54 391.82,-212.43 382.89,-206.73 381.28,-213.54"/>
</g>
<!-- Node11 -->
<g id="node11" class="node">
<title>Node11</title>
<g id="a_node11"><a xlink:href="_shadow_map_handler_8cpp.html" target="_top" xlink:title=" ">
<polygon fill="white" stroke="black" points="375.5,-140 375.5,-170 574.5,-170 574.5,-140 375.5,-140"/>
<text text-anchor="start" x="383.5" y="-158" font-family="Helvetica,sans-Serif" font-size="10.00">kryne&#45;engine/src/Rendering</text>
<text text-anchor="middle" x="475" y="-147" font-family="Helvetica,sans-Serif" font-size="10.00">/ShadowMapping/ShadowMapHandler.cpp</text>
</a>
</g>
</g>
<!-- Node10&#45;&gt;Node11 -->
<g id="edge12" class="edge">
<title>Node10&#45;&gt;Node11</title>
<path fill="none" stroke="midnightblue" d="M475,-202.28C475,-191.25 475,-179.25 475,-170.23"/>
<polygon fill="midnightblue" stroke="midnightblue" points="471.5,-202.43 475,-212.43 478.5,-202.43 471.5,-202.43"/>
</g>
</g>
</svg>
