<?xml version="1.0" encoding="UTF-8" standalone="no"?>
<!DOCTYPE svg PUBLIC "-//W3C//DTD SVG 1.1//EN"
 "http://www.w3.org/Graphics/SVG/1.1/DTD/svg11.dtd">
<!-- Generated by graphviz version 2.44.1 (20200629.0846)
 -->
<!-- Title: kryne&#45;engine/include/kryne&#45;engine/3DObjects/HierarchicalNode.h Pages: 1 -->
<svg width="1449pt" height="374pt"
 viewBox="0.00 0.00 1449.00 374.00" xmlns="http://www.w3.org/2000/svg" xmlns:xlink="http://www.w3.org/1999/xlink">
<g id="graph0" class="graph" transform="scale(1 1) rotate(0) translate(4 370)">
<title>kryne&#45;engine/include/kryne&#45;engine/3DObjects/HierarchicalNode.h</title>
<polygon fill="white" stroke="transparent" points="-4,4 -4,-370 1445,-370 1445,4 -4,4"/>
<!-- Node1 -->
<g id="node1" class="node">
<title>Node1</title>
<g id="a_node1"><a xlink:title=" ">
<polygon fill="#bfbfbf" stroke="black" points="557,-324.5 557,-365.5 681,-365.5 681,-324.5 557,-324.5"/>
<text text-anchor="start" x="565" y="-353.5" font-family="Helvetica,sans-Serif" font-size="10.00">kryne&#45;engine/include</text>
<text text-anchor="start" x="565" y="-342.5" font-family="Helvetica,sans-Serif" font-size="10.00">/kryne&#45;engine/3DObjects</text>
<text text-anchor="middle" x="619" y="-331.5" font-family="Helvetica,sans-Serif" font-size="10.00">/HierarchicalNode.h</text>
</a>
</g>
</g>
<!-- Node2 -->
<g id="node2" class="node">
<title>Node2</title>
<g id="a_node2"><a xlink:title=" ">
<polygon fill="white" stroke="#bfbfbf" points="44.5,-62 44.5,-81 93.5,-81 93.5,-62 44.5,-62"/>
<text text-anchor="middle" x="69" y="-69" font-family="Helvetica,sans-Serif" font-size="10.00">cstdarg</text>
</a>
</g>
</g>
<!-- Node1&#45;&gt;Node2 -->
<g id="edge1" class="edge">
<title>Node1&#45;&gt;Node2</title>
<path fill="none" stroke="midnightblue" d="M579.45,-324.47C473.32,-272.09 184.35,-129.44 95.41,-85.54"/>
<polygon fill="midnightblue" stroke="midnightblue" points="96.78,-82.31 86.27,-81.02 93.69,-88.59 96.78,-82.31"/>
</g>
<!-- Node3 -->
<g id="node3" class="node">
<title>Node3</title>
<g id="a_node3"><a xlink:href="_render_pass_8h.html" target="_top" xlink:title=" ">
<polygon fill="white" stroke="black" points="559.5,-257.5 559.5,-287.5 678.5,-287.5 678.5,-257.5 559.5,-257.5"/>
<text text-anchor="start" x="567.5" y="-275.5" font-family="Helvetica,sans-Serif" font-size="10.00">kryne&#45;engine/Rendering</text>
<text text-anchor="middle" x="619" y="-264.5" font-family="Helvetica,sans-Serif" font-size="10.00">/RenderPass.h</text>
</a>
</g>
</g>
<!-- Node1&#45;&gt;Node3 -->
<g id="edge2" class="edge">
<title>Node1&#45;&gt;Node3</title>
<path fill="none" stroke="midnightblue" d="M612.88,-324.36C612.18,-316.23 612.06,-306.7 612.53,-298.11"/>
<polygon fill="midnightblue" stroke="midnightblue" points="616.04,-298.16 613.44,-287.89 609.07,-297.54 616.04,-298.16"/>
</g>
<!-- Node11 -->
<g id="node11" class="node">
<title>Node11</title>
<g id="a_node11"><a xlink:href="_additional_parameters_8h.html" target="_top" xlink:title=" ">
<polygon fill="white" stroke="black" points="1258,-62 1258,-81 1376,-81 1376,-62 1258,-62"/>
<text text-anchor="middle" x="1317" y="-69" font-family="Helvetica,sans-Serif" font-size="10.00">AdditionalParameters.h</text>
</a>
</g>
</g>
<!-- Node1&#45;&gt;Node11 -->
<g id="edge58" class="edge">
<title>Node1&#45;&gt;Node11</title>
<path fill="none" stroke="midnightblue" d="M681.23,-327.92C787.04,-299.51 1007.6,-235.65 1183,-154 1225.21,-134.35 1270.82,-104.59 1296.45,-86.99"/>
<polygon fill="midnightblue" stroke="midnightblue" points="1298.73,-89.67 1304.95,-81.1 1294.74,-83.92 1298.73,-89.67"/>
</g>
<!-- Node21 -->
<g id="node21" class="node">
<title>Node21</title>
<g id="a_node21"><a xlink:href="3_d_objects_2_base_object_8h.html" target="_top" xlink:title=" ">
<polygon fill="white" stroke="black" points="646.5,-190.5 646.5,-220.5 767.5,-220.5 767.5,-190.5 646.5,-190.5"/>
<text text-anchor="start" x="654.5" y="-208.5" font-family="Helvetica,sans-Serif" font-size="10.00">kryne&#45;engine/3DObjects</text>
<text text-anchor="middle" x="707" y="-197.5" font-family="Helvetica,sans-Serif" font-size="10.00">/BaseObject.h</text>
</a>
</g>
</g>
<!-- Node1&#45;&gt;Node21 -->
<g id="edge57" class="edge">
<title>Node1&#45;&gt;Node21</title>
<path fill="none" stroke="midnightblue" d="M651.59,-324.43C664.74,-314.97 678.92,-302.52 688,-288 698.81,-270.72 703.48,-247.91 705.49,-230.81"/>
<polygon fill="midnightblue" stroke="midnightblue" points="709,-230.81 706.46,-220.52 702.04,-230.15 709,-230.81"/>
</g>
<!-- Node3&#45;&gt;Node1 -->
<g id="edge25" class="edge">
<title>Node3&#45;&gt;Node1</title>
<path fill="none" stroke="midnightblue" d="M624.56,-287.89C625.56,-295.53 625.93,-305.21 625.67,-314.38"/>
<polygon fill="midnightblue" stroke="midnightblue" points="622.18,-314.18 625.12,-324.36 629.17,-314.57 622.18,-314.18"/>
</g>
<!-- Node4 -->
<g id="node4" class="node">
<title>Node4</title>
<g id="a_node4"><a xlink:href="_window_8h.html" target="_top" xlink:title=" ">
<polygon fill="white" stroke="black" points="391.5,-129 391.5,-148 532.5,-148 532.5,-129 391.5,-129"/>
<text text-anchor="middle" x="462" y="-136" font-family="Helvetica,sans-Serif" font-size="10.00">kryne&#45;engine/Core/Window.h</text>
</a>
</g>
</g>
<!-- Node3&#45;&gt;Node4 -->
<g id="edge3" class="edge">
<title>Node3&#45;&gt;Node4</title>
<path fill="none" stroke="midnightblue" d="M602.2,-257.37C572.41,-232.33 510.59,-180.35 479.98,-154.62"/>
<polygon fill="midnightblue" stroke="midnightblue" points="482.13,-151.85 472.23,-148.1 477.63,-157.21 482.13,-151.85"/>
</g>
<!-- Node3&#45;&gt;Node21 -->
<g id="edge26" class="edge">
<title>Node3&#45;&gt;Node21</title>
<path fill="none" stroke="midnightblue" d="M638.09,-257.4C650.32,-248.37 666.37,-236.51 679.9,-226.52"/>
<polygon fill="midnightblue" stroke="midnightblue" points="681.98,-229.33 687.94,-220.58 677.82,-223.7 681.98,-229.33"/>
</g>
<!-- Node4&#45;&gt;Node2 -->
<g id="edge6" class="edge">
<title>Node4&#45;&gt;Node2</title>
<path fill="none" stroke="midnightblue" d="M391.28,-131.9C319.2,-125.16 204.57,-111.54 108,-87 105.02,-86.24 101.94,-85.33 98.9,-84.35"/>
<polygon fill="midnightblue" stroke="midnightblue" points="99.98,-81.02 89.38,-81.02 97.66,-87.62 99.98,-81.02"/>
</g>
<!-- Node5 -->
<g id="node5" class="node">
<title>Node5</title>
<g id="a_node5"><a xlink:title=" ">
<polygon fill="white" stroke="#bfbfbf" points="92,-0.5 92,-19.5 134,-19.5 134,-0.5 92,-0.5"/>
<text text-anchor="middle" x="113" y="-7.5" font-family="Helvetica,sans-Serif" font-size="10.00">vector</text>
</a>
</g>
</g>
<!-- Node4&#45;&gt;Node5 -->
<g id="edge4" class="edge">
<title>Node4&#45;&gt;Node5</title>
<path fill="none" stroke="midnightblue" d="M391.31,-134.59C308.61,-129.81 178.24,-117.54 141,-87 123.88,-72.96 117.22,-47.43 114.64,-29.86"/>
<polygon fill="midnightblue" stroke="midnightblue" points="118.09,-29.2 113.46,-19.66 111.13,-30 118.09,-29.2"/>
</g>
<!-- Node6 -->
<g id="node6" class="node">
<title>Node6</title>
<g id="a_node6"><a xlink:title=" ">
<polygon fill="white" stroke="#bfbfbf" points="423,-62 423,-81 501,-81 501,-62 423,-62"/>
<text text-anchor="middle" x="462" y="-69" font-family="Helvetica,sans-Serif" font-size="10.00">unordered_set</text>
</a>
</g>
</g>
<!-- Node4&#45;&gt;Node6 -->
<g id="edge5" class="edge">
<title>Node4&#45;&gt;Node6</title>
<path fill="none" stroke="midnightblue" d="M462,-128.73C462,-119.18 462,-103.62 462,-91.28"/>
<polygon fill="midnightblue" stroke="midnightblue" points="465.5,-91.13 462,-81.13 458.5,-91.13 465.5,-91.13"/>
</g>
<!-- Node7 -->
<g id="node7" class="node">
<title>Node7</title>
<g id="a_node7"><a xlink:title=" ">
<polygon fill="white" stroke="#bfbfbf" points="519.5,-62 519.5,-81 564.5,-81 564.5,-62 519.5,-62"/>
<text text-anchor="middle" x="542" y="-69" font-family="Helvetica,sans-Serif" font-size="10.00">cstdlib</text>
</a>
</g>
</g>
<!-- Node4&#45;&gt;Node7 -->
<g id="edge7" class="edge">
<title>Node4&#45;&gt;Node7</title>
<path fill="none" stroke="midnightblue" d="M472.79,-128.73C485.74,-118.21 507.69,-100.38 523.39,-87.62"/>
<polygon fill="midnightblue" stroke="midnightblue" points="525.83,-90.15 531.38,-81.13 521.41,-84.72 525.83,-90.15"/>
</g>
<!-- Node8 -->
<g id="node8" class="node">
<title>Node8</title>
<g id="a_node8"><a xlink:title=" ">
<polygon fill="white" stroke="#bfbfbf" points="932,-0.5 932,-19.5 986,-19.5 986,-0.5 932,-0.5"/>
<text text-anchor="middle" x="959" y="-7.5" font-family="Helvetica,sans-Serif" font-size="10.00">iostream</text>
</a>
</g>
</g>
<!-- Node4&#45;&gt;Node8 -->
<g id="edge8" class="edge">
<title>Node4&#45;&gt;Node8</title>
<path fill="none" stroke="midnightblue" d="M495.77,-128.9C585.37,-106.1 828.66,-44.18 921.92,-20.44"/>
<polygon fill="midnightblue" stroke="midnightblue" points="922.93,-23.79 931.76,-17.93 921.21,-17.01 922.93,-23.79"/>
</g>
<!-- Node9 -->
<g id="node9" class="node">
<title>Node9</title>
<g id="a_node9"><a xlink:title=" ">
<polygon fill="white" stroke="#bfbfbf" points="542,-0.5 542,-19.5 606,-19.5 606,-0.5 542,-0.5"/>
<text text-anchor="middle" x="574" y="-7.5" font-family="Helvetica,sans-Serif" font-size="10.00">glad/glad.h</text>
</a>
</g>
</g>
<!-- Node4&#45;&gt;Node9 -->
<g id="edge9" class="edge">
<title>Node4&#45;&gt;Node9</title>
<path fill="none" stroke="midnightblue" d="M508.6,-128.96C532.49,-121.96 559.53,-109.39 574,-87 584.94,-70.07 582.82,-46.29 579.34,-29.85"/>
<polygon fill="midnightblue" stroke="midnightblue" points="582.65,-28.69 576.85,-19.83 575.86,-30.38 582.65,-28.69"/>
</g>
<!-- Node10 -->
<g id="node10" class="node">
<title>Node10</title>
<g id="a_node10"><a xlink:title=" ">
<polygon fill="white" stroke="#bfbfbf" points="624,-0.5 624,-19.5 702,-19.5 702,-0.5 624,-0.5"/>
<text text-anchor="middle" x="663" y="-7.5" font-family="Helvetica,sans-Serif" font-size="10.00">GLFW/glfw3.h</text>
</a>
</g>
</g>
<!-- Node4&#45;&gt;Node10 -->
<g id="edge10" class="edge">
<title>Node4&#45;&gt;Node10</title>
<path fill="none" stroke="midnightblue" d="M495.77,-128.92C523.25,-120.92 562.22,-107.15 592,-87 615.97,-70.78 637.76,-45.07 650.7,-28.12"/>
<polygon fill="midnightblue" stroke="midnightblue" points="653.79,-29.83 656.94,-19.72 648.17,-25.66 653.79,-29.83"/>
</g>
<!-- Node4&#45;&gt;Node11 -->
<g id="edge11" class="edge">
<title>Node4&#45;&gt;Node11</title>
<path fill="none" stroke="midnightblue" d="M503.37,-128.98C515.75,-126.71 529.38,-124.48 542,-123 837.74,-88.38 914.58,-115.2 1211,-87 1223.97,-85.77 1237.78,-84.12 1251.01,-82.38"/>
<polygon fill="midnightblue" stroke="midnightblue" points="1251.54,-85.84 1260.99,-81.04 1250.61,-78.9 1251.54,-85.84"/>
</g>
<!-- Node15 -->
<g id="node15" class="node">
<title>Node15</title>
<g id="a_node15"><a xlink:href="_old_camera_8h.html" target="_top" xlink:title=" ">
<polygon fill="white" stroke="black" points="295.5,-56.5 295.5,-86.5 404.5,-86.5 404.5,-56.5 295.5,-56.5"/>
<text text-anchor="start" x="303.5" y="-74.5" font-family="Helvetica,sans-Serif" font-size="10.00">kryne&#45;engine/Camera</text>
<text text-anchor="middle" x="350" y="-63.5" font-family="Helvetica,sans-Serif" font-size="10.00">/OldCamera.h</text>
</a>
</g>
</g>
<!-- Node4&#45;&gt;Node15 -->
<g id="edge15" class="edge">
<title>Node4&#45;&gt;Node15</title>
<path fill="none" stroke="midnightblue" d="M442.37,-128.87C424.28,-119.52 397.57,-104.32 377.44,-92.05"/>
<polygon fill="midnightblue" stroke="midnightblue" points="379.05,-88.93 368.7,-86.65 375.37,-94.89 379.05,-88.93"/>
</g>
<!-- Node12 -->
<g id="node12" class="node">
<title>Node12</title>
<g id="a_node12"><a xlink:title=" ">
<polygon fill="white" stroke="#bfbfbf" points="1355.5,-0.5 1355.5,-19.5 1390.5,-19.5 1390.5,-0.5 1355.5,-0.5"/>
<text text-anchor="middle" x="1373" y="-7.5" font-family="Helvetica,sans-Serif" font-size="10.00">map</text>
</a>
</g>
</g>
<!-- Node11&#45;&gt;Node12 -->
<g id="edge12" class="edge">
<title>Node11&#45;&gt;Node12</title>
<path fill="none" stroke="midnightblue" d="M1325.02,-61.98C1333.59,-52.87 1347.36,-38.24 1357.96,-26.98"/>
<polygon fill="midnightblue" stroke="midnightblue" points="1360.69,-29.19 1364.99,-19.51 1355.59,-24.39 1360.69,-29.19"/>
</g>
<!-- Node13 -->
<g id="node13" class="node">
<title>Node13</title>
<g id="a_node13"><a xlink:title=" ">
<polygon fill="white" stroke="#bfbfbf" points="1296.5,-0.5 1296.5,-19.5 1337.5,-19.5 1337.5,-0.5 1296.5,-0.5"/>
<text text-anchor="middle" x="1317" y="-7.5" font-family="Helvetica,sans-Serif" font-size="10.00">string</text>
</a>
</g>
</g>
<!-- Node11&#45;&gt;Node13 -->
<g id="edge13" class="edge">
<title>Node11&#45;&gt;Node13</title>
<path fill="none" stroke="midnightblue" d="M1317,-61.98C1317,-53.58 1317,-40.48 1317,-29.66"/>
<polygon fill="midnightblue" stroke="midnightblue" points="1320.5,-29.51 1317,-19.51 1313.5,-29.51 1320.5,-29.51"/>
</g>
<!-- Node14 -->
<g id="node14" class="node">
<title>Node14</title>
<g id="a_node14"><a xlink:title=" ">
<polygon fill="white" stroke="#bfbfbf" points="1409,-0.5 1409,-19.5 1441,-19.5 1441,-0.5 1409,-0.5"/>
<text text-anchor="middle" x="1425" y="-7.5" font-family="Helvetica,sans-Serif" font-size="10.00">any</text>
</a>
</g>
</g>
<!-- Node11&#45;&gt;Node14 -->
<g id="edge14" class="edge">
<title>Node11&#45;&gt;Node14</title>
<path fill="none" stroke="midnightblue" d="M1332.47,-61.98C1350.28,-52.17 1379.74,-35.93 1400.63,-24.42"/>
<polygon fill="midnightblue" stroke="midnightblue" points="1402.49,-27.4 1409.55,-19.51 1399.11,-21.27 1402.49,-27.4"/>
</g>
<!-- Node15&#45;&gt;Node4 -->
<g id="edge24" class="edge">
<title>Node15&#45;&gt;Node4</title>
<path fill="none" stroke="midnightblue" d="M379.95,-86.59C400.01,-97.4 425.64,-112.27 442.99,-123.15"/>
<polygon fill="midnightblue" stroke="midnightblue" points="441.38,-126.28 451.68,-128.73 445.16,-120.39 441.38,-126.28"/>
</g>
<!-- Node15&#45;&gt;Node5 -->
<g id="edge16" class="edge">
<title>Node15&#45;&gt;Node5</title>
<path fill="none" stroke="midnightblue" d="M295.32,-57.98C255.76,-48.74 200.81,-35.51 144.12,-20.21"/>
<polygon fill="midnightblue" stroke="midnightblue" points="144.83,-16.77 134.27,-17.53 143,-23.53 144.83,-16.77"/>
</g>
<!-- Node15&#45;&gt;Node9 -->
<g id="edge19" class="edge">
<title>Node15&#45;&gt;Node9</title>
<path fill="none" stroke="midnightblue" d="M402.8,-56.47C442.29,-45.99 495.56,-31.84 532.13,-22.12"/>
<polygon fill="midnightblue" stroke="midnightblue" points="533.21,-25.46 541.98,-19.51 531.41,-18.69 533.21,-25.46"/>
</g>
<!-- Node15&#45;&gt;Node10 -->
<g id="edge20" class="edge">
<title>Node15&#45;&gt;Node10</title>
<path fill="none" stroke="midnightblue" d="M404.78,-57.92C407.89,-57.25 410.99,-56.61 414,-56 499.82,-38.6 524.05,-36.5 613.88,-20.19"/>
<polygon fill="midnightblue" stroke="midnightblue" points="614.76,-23.58 623.97,-18.35 613.51,-16.7 614.76,-23.58"/>
</g>
<!-- Node16 -->
<g id="node16" class="node">
<title>Node16</title>
<g id="a_node16"><a xlink:title=" ">
<polygon fill="white" stroke="#bfbfbf" points="310,-0.5 310,-19.5 362,-19.5 362,-0.5 310,-0.5"/>
<text text-anchor="middle" x="336" y="-7.5" font-family="Helvetica,sans-Serif" font-size="10.00">stdarg.h</text>
</a>
</g>
</g>
<!-- Node15&#45;&gt;Node16 -->
<g id="edge17" class="edge">
<title>Node15&#45;&gt;Node16</title>
<path fill="none" stroke="midnightblue" d="M346.68,-56.4C344.79,-48.38 342.41,-38.23 340.37,-29.57"/>
<polygon fill="midnightblue" stroke="midnightblue" points="343.73,-28.59 338.04,-19.66 336.92,-30.19 343.73,-28.59"/>
</g>
<!-- Node17 -->
<g id="node17" class="node">
<title>Node17</title>
<g id="a_node17"><a xlink:title=" ">
<polygon fill="white" stroke="#bfbfbf" points="152,-0.5 152,-19.5 200,-19.5 200,-0.5 152,-0.5"/>
<text text-anchor="middle" x="176" y="-7.5" font-family="Helvetica,sans-Serif" font-size="10.00">stdlib.h</text>
</a>
</g>
</g>
<!-- Node15&#45;&gt;Node17 -->
<g id="edge18" class="edge">
<title>Node15&#45;&gt;Node17</title>
<path fill="none" stroke="midnightblue" d="M308.76,-56.4C278.56,-46.07 238.06,-32.22 209.77,-22.55"/>
<polygon fill="midnightblue" stroke="midnightblue" points="210.9,-19.24 200.31,-19.31 208.64,-25.86 210.9,-19.24"/>
</g>
<!-- Node18 -->
<g id="node18" class="node">
<title>Node18</title>
<g id="a_node18"><a xlink:title=" ">
<polygon fill="white" stroke="#bfbfbf" points="218,-0.5 218,-19.5 292,-19.5 292,-0.5 218,-0.5"/>
<text text-anchor="middle" x="255" y="-7.5" font-family="Helvetica,sans-Serif" font-size="10.00">glm/vec3.hpp</text>
</a>
</g>
</g>
<!-- Node15&#45;&gt;Node18 -->
<g id="edge21" class="edge">
<title>Node15&#45;&gt;Node18</title>
<path fill="none" stroke="midnightblue" d="M327.49,-56.4C312.4,-46.95 292.61,-34.56 277.53,-25.11"/>
<polygon fill="midnightblue" stroke="midnightblue" points="279.16,-22 268.82,-19.66 275.44,-27.93 279.16,-22"/>
</g>
<!-- Node19 -->
<g id="node19" class="node">
<title>Node19</title>
<g id="a_node19"><a xlink:title=" ">
<polygon fill="white" stroke="#bfbfbf" points="720,-0.5 720,-19.5 806,-19.5 806,-0.5 720,-0.5"/>
<text text-anchor="middle" x="763" y="-7.5" font-family="Helvetica,sans-Serif" font-size="10.00">glm/mat4x4.hpp</text>
</a>
</g>
</g>
<!-- Node15&#45;&gt;Node19 -->
<g id="edge22" class="edge">
<title>Node15&#45;&gt;Node19</title>
<path fill="none" stroke="midnightblue" d="M404.74,-57.71C407.87,-57.1 410.97,-56.53 414,-56 541.81,-33.83 577.71,-39.07 709.8,-20.1"/>
<polygon fill="midnightblue" stroke="midnightblue" points="710.51,-23.54 719.9,-18.63 709.5,-16.61 710.51,-23.54"/>
</g>
<!-- Node20 -->
<g id="node20" class="node">
<title>Node20</title>
<g id="a_node20"><a xlink:title=" ">
<polygon fill="white" stroke="#bfbfbf" points="380.5,-0.5 380.5,-19.5 523.5,-19.5 523.5,-0.5 380.5,-0.5"/>
<text text-anchor="middle" x="452" y="-7.5" font-family="Helvetica,sans-Serif" font-size="10.00">glm/gtc/matrix_transform.hpp</text>
</a>
</g>
</g>
<!-- Node15&#45;&gt;Node20 -->
<g id="edge23" class="edge">
<title>Node15&#45;&gt;Node20</title>
<path fill="none" stroke="midnightblue" d="M374.17,-56.4C390.52,-46.86 412.01,-34.32 428.27,-24.84"/>
<polygon fill="midnightblue" stroke="midnightblue" points="430.28,-27.72 437.16,-19.66 426.76,-21.67 430.28,-27.72"/>
</g>
<!-- Node21&#45;&gt;Node9 -->
<g id="edge27" class="edge">
<title>Node21&#45;&gt;Node9</title>
<path fill="none" stroke="midnightblue" d="M697.22,-190.27C673.22,-155.35 611.49,-65.54 585.65,-27.94"/>
<polygon fill="midnightblue" stroke="midnightblue" points="588.44,-25.84 579.9,-19.58 582.68,-29.8 588.44,-25.84"/>
</g>
<!-- Node21&#45;&gt;Node10 -->
<g id="edge28" class="edge">
<title>Node21&#45;&gt;Node10</title>
<path fill="none" stroke="midnightblue" d="M703.76,-190.27C695.93,-155.8 675.92,-67.81 667.18,-29.4"/>
<polygon fill="midnightblue" stroke="midnightblue" points="670.58,-28.55 664.95,-19.58 663.75,-30.1 670.58,-28.55"/>
</g>
<!-- Node21&#45;&gt;Node11 -->
<g id="edge55" class="edge">
<title>Node21&#45;&gt;Node11</title>
<path fill="none" stroke="midnightblue" d="M767.84,-202.61C850.46,-198.83 1002.17,-187.53 1127,-154 1188.79,-137.4 1256.64,-104.41 1292.16,-85.9"/>
<polygon fill="midnightblue" stroke="midnightblue" points="1294.08,-88.84 1301.29,-81.08 1290.81,-82.65 1294.08,-88.84"/>
</g>
<!-- Node21&#45;&gt;Node19 -->
<g id="edge29" class="edge">
<title>Node21&#45;&gt;Node19</title>
<path fill="none" stroke="midnightblue" d="M767.8,-198.72C797.13,-192.52 829.81,-179.83 848,-154 879.57,-109.15 817.53,-52.15 783.39,-25.71"/>
<polygon fill="midnightblue" stroke="midnightblue" points="785.47,-22.9 775.38,-19.67 781.26,-28.48 785.47,-22.9"/>
</g>
<!-- Node22 -->
<g id="node22" class="node">
<title>Node22</title>
<g id="a_node22"><a xlink:title=" ">
<polygon fill="white" stroke="#bfbfbf" points="551,-129 551,-148 637,-148 637,-129 551,-129"/>
<text text-anchor="middle" x="594" y="-136" font-family="Helvetica,sans-Serif" font-size="10.00">glm/mat3x3.hpp</text>
</a>
</g>
</g>
<!-- Node21&#45;&gt;Node22 -->
<g id="edge30" class="edge">
<title>Node21&#45;&gt;Node22</title>
<path fill="none" stroke="midnightblue" d="M682.48,-190.4C663.27,-179.34 636.7,-164.06 617.7,-153.13"/>
<polygon fill="midnightblue" stroke="midnightblue" points="619.2,-149.96 608.79,-148.01 615.71,-156.03 619.2,-149.96"/>
</g>
<!-- Node23 -->
<g id="node23" class="node">
<title>Node23</title>
<g id="a_node23"><a xlink:href="_shader_8h.html" target="_top" xlink:title=" ">
<polygon fill="white" stroke="black" points="1008,-123.5 1008,-153.5 1118,-153.5 1118,-123.5 1008,-123.5"/>
<text text-anchor="start" x="1016" y="-141.5" font-family="Helvetica,sans-Serif" font-size="10.00">kryne&#45;engine/Material</text>
<text text-anchor="middle" x="1063" y="-130.5" font-family="Helvetica,sans-Serif" font-size="10.00">/Shader.h</text>
</a>
</g>
</g>
<!-- Node21&#45;&gt;Node23 -->
<g id="edge31" class="edge">
<title>Node21&#45;&gt;Node23</title>
<path fill="none" stroke="midnightblue" d="M767.79,-193.4C831.7,-181.73 931.88,-163.44 997.5,-151.46"/>
<polygon fill="midnightblue" stroke="midnightblue" points="998.52,-154.83 1007.72,-149.59 997.26,-147.95 998.52,-154.83"/>
</g>
<!-- Node31 -->
<g id="node31" class="node">
<title>Node31</title>
<g id="a_node31"><a xlink:href="_vertex_array_8h.html" target="_top" xlink:title=" ">
<polygon fill="white" stroke="black" points="150.5,-56.5 150.5,-86.5 277.5,-86.5 277.5,-56.5 150.5,-56.5"/>
<text text-anchor="start" x="158.5" y="-74.5" font-family="Helvetica,sans-Serif" font-size="10.00">kryne&#45;engine/Core/Vertex</text>
<text text-anchor="middle" x="214" y="-63.5" font-family="Helvetica,sans-Serif" font-size="10.00">Array.h</text>
</a>
</g>
</g>
<!-- Node21&#45;&gt;Node31 -->
<g id="edge47" class="edge">
<title>Node21&#45;&gt;Node31</title>
<path fill="none" stroke="midnightblue" d="M646.48,-200.5C580.28,-194.88 471.65,-182.02 382,-154 332.36,-138.49 278.97,-110.41 246.01,-91.61"/>
<polygon fill="midnightblue" stroke="midnightblue" points="247.69,-88.54 237.28,-86.57 244.19,-94.6 247.69,-88.54"/>
</g>
<!-- Node33 -->
<g id="node33" class="node">
<title>Node33</title>
<g id="a_node33"><a xlink:href="enums_2_base_object_8h.html" target="_top" xlink:title=" ">
<polygon fill="white" stroke="black" points="735,-123.5 735,-153.5 839,-153.5 839,-123.5 735,-123.5"/>
<text text-anchor="start" x="743" y="-141.5" font-family="Helvetica,sans-Serif" font-size="10.00">kryne&#45;engine/enums</text>
<text text-anchor="middle" x="787" y="-130.5" font-family="Helvetica,sans-Serif" font-size="10.00">/BaseObject.h</text>
</a>
</g>
</g>
<!-- Node21&#45;&gt;Node33 -->
<g id="edge56" class="edge">
<title>Node21&#45;&gt;Node33</title>
<path fill="none" stroke="midnightblue" d="M724.36,-190.4C735.26,-181.54 749.51,-169.96 761.66,-160.09"/>
<polygon fill="midnightblue" stroke="midnightblue" points="764.12,-162.6 769.68,-153.58 759.71,-157.17 764.12,-162.6"/>
</g>
<!-- Node23&#45;&gt;Node12 -->
<g id="edge32" class="edge">
<title>Node23&#45;&gt;Node12</title>
<path fill="none" stroke="midnightblue" d="M1118.04,-123.79C1146.78,-115.39 1181.92,-103.14 1211,-87 1230.06,-76.43 1230.04,-66.76 1249,-56 1253.38,-53.51 1310.42,-33.15 1345.59,-20.68"/>
<polygon fill="midnightblue" stroke="midnightblue" points="1347.04,-23.88 1355.3,-17.25 1344.7,-17.29 1347.04,-23.88"/>
</g>
<!-- Node24 -->
<g id="node24" class="node">
<title>Node24</title>
<g id="a_node24"><a xlink:title=" ">
<polygon fill="white" stroke="#bfbfbf" points="1037,-62 1037,-81 1089,-81 1089,-62 1037,-62"/>
<text text-anchor="middle" x="1063" y="-69" font-family="Helvetica,sans-Serif" font-size="10.00">sstream</text>
</a>
</g>
</g>
<!-- Node23&#45;&gt;Node24 -->
<g id="edge33" class="edge">
<title>Node23&#45;&gt;Node24</title>
<path fill="none" stroke="midnightblue" d="M1063,-123.4C1063,-114.06 1063,-101.71 1063,-91.52"/>
<polygon fill="midnightblue" stroke="midnightblue" points="1066.5,-91.19 1063,-81.19 1059.5,-91.19 1066.5,-91.19"/>
</g>
<!-- Node25 -->
<g id="node25" class="node">
<title>Node25</title>
<g id="a_node25"><a xlink:href="_uniforms_handler_8h.html" target="_top" xlink:title=" ">
<polygon fill="white" stroke="black" points="901,-62 901,-81 997,-81 997,-62 901,-62"/>
<text text-anchor="middle" x="949" y="-69" font-family="Helvetica,sans-Serif" font-size="10.00">UniformsHandler.h</text>
</a>
</g>
</g>
<!-- Node23&#45;&gt;Node25 -->
<g id="edge34" class="edge">
<title>Node23&#45;&gt;Node25</title>
<path fill="none" stroke="midnightblue" d="M1038.26,-123.4C1018.79,-112.29 991.83,-96.92 972.65,-85.98"/>
<polygon fill="midnightblue" stroke="midnightblue" points="974.34,-82.92 963.92,-81.01 970.87,-89 974.34,-82.92"/>
</g>
<!-- Node29 -->
<g id="node29" class="node">
<title>Node29</title>
<g id="a_node29"><a xlink:href="_shader_chunk_8h.html" target="_top" xlink:title=" ">
<polygon fill="white" stroke="black" points="1118.5,-62 1118.5,-81 1201.5,-81 1201.5,-62 1118.5,-62"/>
<text text-anchor="middle" x="1160" y="-69" font-family="Helvetica,sans-Serif" font-size="10.00">ShaderChunk.h</text>
</a>
</g>
</g>
<!-- Node23&#45;&gt;Node29 -->
<g id="edge42" class="edge">
<title>Node23&#45;&gt;Node29</title>
<path fill="none" stroke="midnightblue" d="M1084.05,-123.4C1100.31,-112.5 1122.72,-97.48 1138.98,-86.58"/>
<polygon fill="midnightblue" stroke="midnightblue" points="1140.95,-89.48 1147.3,-81.01 1137.05,-83.67 1140.95,-89.48"/>
</g>
<!-- Node25&#45;&gt;Node9 -->
<g id="edge37" class="edge">
<title>Node25&#45;&gt;Node9</title>
<path fill="none" stroke="midnightblue" d="M900.99,-64.26C837.93,-55.83 723.54,-39.77 616.22,-20.13"/>
<polygon fill="midnightblue" stroke="midnightblue" points="616.66,-16.65 606.19,-18.28 615.39,-23.53 616.66,-16.65"/>
</g>
<!-- Node25&#45;&gt;Node10 -->
<g id="edge38" class="edge">
<title>Node25&#45;&gt;Node10</title>
<path fill="none" stroke="midnightblue" d="M908.02,-61.98C856.26,-51.21 767.28,-32.69 711.98,-21.19"/>
<polygon fill="midnightblue" stroke="midnightblue" points="712.57,-17.74 702.06,-19.13 711.14,-24.59 712.57,-17.74"/>
</g>
<!-- Node25&#45;&gt;Node13 -->
<g id="edge35" class="edge">
<title>Node25&#45;&gt;Node13</title>
<path fill="none" stroke="midnightblue" d="M993.64,-61.95C1004.84,-59.91 1016.85,-57.79 1028,-56 1140.03,-37.97 1172.38,-44.96 1286.39,-20.08"/>
<polygon fill="midnightblue" stroke="midnightblue" points="1287.2,-23.48 1296.2,-17.9 1285.68,-16.65 1287.2,-23.48"/>
</g>
<!-- Node25&#45;&gt;Node19 -->
<g id="edge39" class="edge">
<title>Node25&#45;&gt;Node19</title>
<path fill="none" stroke="midnightblue" d="M922.35,-61.98C890.03,-51.64 835.4,-34.16 799.27,-22.6"/>
<polygon fill="midnightblue" stroke="midnightblue" points="800.19,-19.22 789.6,-19.51 798.06,-25.89 800.19,-19.22"/>
</g>
<!-- Node26 -->
<g id="node26" class="node">
<title>Node26</title>
<g id="a_node26"><a xlink:title=" ">
<polygon fill="white" stroke="#bfbfbf" points="1128.5,-0.5 1128.5,-19.5 1211.5,-19.5 1211.5,-0.5 1128.5,-0.5"/>
<text text-anchor="middle" x="1170" y="-7.5" font-family="Helvetica,sans-Serif" font-size="10.00">unordered_map</text>
</a>
</g>
</g>
<!-- Node25&#45;&gt;Node26 -->
<g id="edge36" class="edge">
<title>Node25&#45;&gt;Node26</title>
<path fill="none" stroke="midnightblue" d="M980.66,-61.98C1019.56,-51.5 1085.64,-33.71 1128.55,-22.16"/>
<polygon fill="midnightblue" stroke="midnightblue" points="1129.65,-25.49 1138.39,-19.51 1127.83,-18.73 1129.65,-25.49"/>
</g>
<!-- Node27 -->
<g id="node27" class="node">
<title>Node27</title>
<g id="a_node27"><a xlink:title=" ">
<polygon fill="white" stroke="#bfbfbf" points="1004,-0.5 1004,-19.5 1110,-19.5 1110,-0.5 1004,-0.5"/>
<text text-anchor="middle" x="1057" y="-7.5" font-family="Helvetica,sans-Serif" font-size="10.00">glm/gtc/type_ptr.hpp</text>
</a>
</g>
</g>
<!-- Node25&#45;&gt;Node27 -->
<g id="edge40" class="edge">
<title>Node25&#45;&gt;Node27</title>
<path fill="none" stroke="midnightblue" d="M964.47,-61.98C982.28,-52.17 1011.74,-35.93 1032.63,-24.42"/>
<polygon fill="midnightblue" stroke="midnightblue" points="1034.49,-27.4 1041.55,-19.51 1031.11,-21.27 1034.49,-27.4"/>
</g>
<!-- Node28 -->
<g id="node28" class="node">
<title>Node28</title>
<g id="a_node28"><a xlink:title=" ">
<polygon fill="white" stroke="#bfbfbf" points="824,-0.5 824,-19.5 914,-19.5 914,-0.5 824,-0.5"/>
<text text-anchor="middle" x="869" y="-7.5" font-family="Helvetica,sans-Serif" font-size="10.00">boost/variant.hpp</text>
</a>
</g>
</g>
<!-- Node25&#45;&gt;Node28 -->
<g id="edge41" class="edge">
<title>Node25&#45;&gt;Node28</title>
<path fill="none" stroke="midnightblue" d="M937.54,-61.98C924.83,-52.52 904.09,-37.1 888.75,-25.69"/>
<polygon fill="midnightblue" stroke="midnightblue" points="890.55,-22.67 880.44,-19.51 886.38,-28.29 890.55,-22.67"/>
</g>
<!-- Node29&#45;&gt;Node8 -->
<g id="edge46" class="edge">
<title>Node29&#45;&gt;Node8</title>
<path fill="none" stroke="midnightblue" d="M1131.2,-61.98C1095.63,-51.44 1035.04,-33.51 996.04,-21.96"/>
<polygon fill="midnightblue" stroke="midnightblue" points="996.72,-18.52 986.14,-19.03 994.73,-25.23 996.72,-18.52"/>
</g>
<!-- Node29&#45;&gt;Node13 -->
<g id="edge44" class="edge">
<title>Node29&#45;&gt;Node13</title>
<path fill="none" stroke="midnightblue" d="M1182.49,-61.98C1209.77,-51.64 1255.85,-34.17 1286.36,-22.61"/>
<polygon fill="midnightblue" stroke="midnightblue" points="1287.94,-25.76 1296.05,-18.94 1285.46,-19.21 1287.94,-25.76"/>
</g>
<!-- Node29&#45;&gt;Node26 -->
<g id="edge43" class="edge">
<title>Node29&#45;&gt;Node26</title>
<path fill="none" stroke="midnightblue" d="M1161.43,-61.98C1162.84,-53.58 1165.05,-40.48 1166.86,-29.66"/>
<polygon fill="midnightblue" stroke="midnightblue" points="1170.36,-29.95 1168.57,-19.51 1163.46,-28.79 1170.36,-29.95"/>
</g>
<!-- Node30 -->
<g id="node30" class="node">
<title>Node30</title>
<g id="a_node30"><a xlink:title=" ">
<polygon fill="white" stroke="#bfbfbf" points="1229.5,-0.5 1229.5,-19.5 1278.5,-19.5 1278.5,-0.5 1229.5,-0.5"/>
<text text-anchor="middle" x="1254" y="-7.5" font-family="Helvetica,sans-Serif" font-size="10.00">fstream</text>
</a>
</g>
</g>
<!-- Node29&#45;&gt;Node30 -->
<g id="edge45" class="edge">
<title>Node29&#45;&gt;Node30</title>
<path fill="none" stroke="midnightblue" d="M1173.47,-61.98C1188.68,-52.34 1213.69,-36.52 1231.8,-25.05"/>
<polygon fill="midnightblue" stroke="midnightblue" points="1233.98,-27.81 1240.56,-19.51 1230.24,-21.9 1233.98,-27.81"/>
</g>
<!-- Node31&#45;&gt;Node5 -->
<g id="edge48" class="edge">
<title>Node31&#45;&gt;Node5</title>
<path fill="none" stroke="midnightblue" d="M190.06,-56.4C173.87,-46.86 152.59,-34.32 136.5,-24.84"/>
<polygon fill="midnightblue" stroke="midnightblue" points="138.09,-21.72 127.7,-19.66 134.54,-27.75 138.09,-21.72"/>
</g>
<!-- Node31&#45;&gt;Node9 -->
<g id="edge51" class="edge">
<title>Node31&#45;&gt;Node9</title>
<path fill="none" stroke="midnightblue" d="M277.57,-57.5C280.42,-56.98 283.24,-56.48 286,-56 392.1,-37.6 422.12,-39.76 531.67,-20.13"/>
<polygon fill="midnightblue" stroke="midnightblue" points="532.6,-23.52 541.81,-18.29 531.35,-16.63 532.6,-23.52"/>
</g>
<!-- Node31&#45;&gt;Node10 -->
<g id="edge52" class="edge">
<title>Node31&#45;&gt;Node10</title>
<path fill="none" stroke="midnightblue" d="M277.55,-57.38C280.4,-56.89 283.23,-56.43 286,-56 428.09,-33.96 467.73,-41.22 613.53,-20.11"/>
<polygon fill="midnightblue" stroke="midnightblue" points="614.36,-23.53 623.75,-18.61 613.35,-16.6 614.36,-23.53"/>
</g>
<!-- Node31&#45;&gt;Node16 -->
<g id="edge49" class="edge">
<title>Node31&#45;&gt;Node16</title>
<path fill="none" stroke="midnightblue" d="M242.91,-56.4C263.02,-46.59 289.62,-33.62 309.24,-24.05"/>
<polygon fill="midnightblue" stroke="midnightblue" points="310.79,-27.19 318.25,-19.66 307.73,-20.9 310.79,-27.19"/>
</g>
<!-- Node31&#45;&gt;Node17 -->
<g id="edge50" class="edge">
<title>Node31&#45;&gt;Node17</title>
<path fill="none" stroke="midnightblue" d="M204.99,-56.4C199.59,-47.93 192.67,-37.1 186.95,-28.14"/>
<polygon fill="midnightblue" stroke="midnightblue" points="189.86,-26.2 181.53,-19.66 183.96,-29.97 189.86,-26.2"/>
</g>
<!-- Node31&#45;&gt;Node18 -->
<g id="edge54" class="edge">
<title>Node31&#45;&gt;Node18</title>
<path fill="none" stroke="midnightblue" d="M223.72,-56.4C229.55,-47.93 237.02,-37.1 243.19,-28.14"/>
<polygon fill="midnightblue" stroke="midnightblue" points="246.24,-29.88 249.03,-19.66 240.48,-25.91 246.24,-29.88"/>
</g>
<!-- Node32 -->
<g id="node32" class="node">
<title>Node32</title>
<g id="a_node32"><a xlink:title=" ">
<polygon fill="white" stroke="#bfbfbf" points="0,-0.5 0,-19.5 74,-19.5 74,-0.5 0,-0.5"/>
<text text-anchor="middle" x="37" y="-7.5" font-family="Helvetica,sans-Serif" font-size="10.00">glm/vec2.hpp</text>
</a>
</g>
</g>
<!-- Node31&#45;&gt;Node32 -->
<g id="edge53" class="edge">
<title>Node31&#45;&gt;Node32</title>
<path fill="none" stroke="midnightblue" d="M172.05,-56.4C141.6,-46.16 100.87,-32.47 72.13,-22.81"/>
<polygon fill="midnightblue" stroke="midnightblue" points="73.09,-19.44 62.5,-19.57 70.86,-26.07 73.09,-19.44"/>
</g>
</g>
</svg>
