<?xml version="1.0" encoding="UTF-8" standalone="no"?>
<!DOCTYPE svg PUBLIC "-//W3C//DTD SVG 1.1//EN"
 "http://www.w3.org/Graphics/SVG/1.1/DTD/svg11.dtd">
<!-- Generated by graphviz version 2.44.1 (20200629.0846)
 -->
<!-- Title: kryne&#45;engine/include/kryne&#45;engine/3DObjects/HierarchicalNode.h Pages: 1 -->
<svg width="1807pt" height="486pt"
 viewBox="0.00 0.00 1806.50 486.00" xmlns="http://www.w3.org/2000/svg" xmlns:xlink="http://www.w3.org/1999/xlink">
<g id="graph0" class="graph" transform="scale(1 1) rotate(0) translate(4 482)">
<title>kryne&#45;engine/include/kryne&#45;engine/3DObjects/HierarchicalNode.h</title>
<polygon fill="white" stroke="transparent" points="-4,4 -4,-482 1802.5,-482 1802.5,4 -4,4"/>
<!-- Node1 -->
<g id="node1" class="node">
<title>Node1</title>
<g id="a_node1"><a xlink:title=" ">
<polygon fill="#bfbfbf" stroke="black" points="535.5,-436.5 535.5,-477.5 659.5,-477.5 659.5,-436.5 535.5,-436.5"/>
<text text-anchor="start" x="543.5" y="-465.5" font-family="Helvetica,sans-Serif" font-size="10.00">kryne&#45;engine/include</text>
<text text-anchor="start" x="543.5" y="-454.5" font-family="Helvetica,sans-Serif" font-size="10.00">/kryne&#45;engine/3DObjects</text>
<text text-anchor="middle" x="597.5" y="-443.5" font-family="Helvetica,sans-Serif" font-size="10.00">/HierarchicalNode.h</text>
</a>
</g>
</g>
<!-- Node2 -->
<g id="node2" class="node">
<title>Node2</title>
<g id="a_node2"><a xlink:title=" ">
<polygon fill="white" stroke="#bfbfbf" points="0,-118 0,-137 49,-137 49,-118 0,-118"/>
<text text-anchor="middle" x="24.5" y="-125" font-family="Helvetica,sans-Serif" font-size="10.00">cstdarg</text>
</a>
</g>
</g>
<!-- Node1&#45;&gt;Node2 -->
<g id="edge1" class="edge">
<title>Node1&#45;&gt;Node2</title>
<path fill="none" stroke="midnightblue" d="M535.31,-452.71C396.9,-443.7 75.5,-412.63 75.5,-318.5 75.5,-318.5 75.5,-318.5 75.5,-249.5 75.5,-209.81 51.91,-168.13 36.81,-145.53"/>
<polygon fill="midnightblue" stroke="midnightblue" points="39.53,-143.31 30.96,-137.08 33.77,-147.29 39.53,-143.31"/>
</g>
<!-- Node3 -->
<g id="node3" class="node">
<title>Node3</title>
<g id="a_node3"><a xlink:href="_render_pass_8h.html" target="_top" xlink:title=" ">
<polygon fill="white" stroke="black" points="538,-369.5 538,-399.5 657,-399.5 657,-369.5 538,-369.5"/>
<text text-anchor="start" x="546" y="-387.5" font-family="Helvetica,sans-Serif" font-size="10.00">kryne&#45;engine/Rendering</text>
<text text-anchor="middle" x="597.5" y="-376.5" font-family="Helvetica,sans-Serif" font-size="10.00">/RenderPass.h</text>
</a>
</g>
</g>
<!-- Node1&#45;&gt;Node3 -->
<g id="edge2" class="edge">
<title>Node1&#45;&gt;Node3</title>
<path fill="none" stroke="midnightblue" d="M591.38,-436.36C590.68,-428.23 590.56,-418.7 591.03,-410.11"/>
<polygon fill="midnightblue" stroke="midnightblue" points="594.54,-410.16 591.94,-399.89 587.57,-409.54 594.54,-410.16"/>
</g>
<!-- Node11 -->
<g id="node11" class="node">
<title>Node11</title>
<g id="a_node11"><a xlink:href="_additional_parameters_8h.html" target="_top" xlink:title=" ">
<polygon fill="white" stroke="black" points="1680.5,-118 1680.5,-137 1798.5,-137 1798.5,-118 1680.5,-118"/>
<text text-anchor="middle" x="1739.5" y="-125" font-family="Helvetica,sans-Serif" font-size="10.00">AdditionalParameters.h</text>
</a>
</g>
</g>
<!-- Node1&#45;&gt;Node11 -->
<g id="edge73" class="edge">
<title>Node1&#45;&gt;Node11</title>
<path fill="none" stroke="midnightblue" d="M659.55,-455.09C897.23,-450.81 1736.5,-427.92 1736.5,-318.5 1736.5,-318.5 1736.5,-318.5 1736.5,-249.5 1736.5,-213.2 1737.87,-170.8 1738.75,-147.06"/>
<polygon fill="midnightblue" stroke="midnightblue" points="1742.25,-147.13 1739.14,-137.01 1735.26,-146.86 1742.25,-147.13"/>
</g>
<!-- Node21 -->
<g id="node21" class="node">
<title>Node21</title>
<g id="a_node21"><a xlink:href="3_d_objects_2_base_object_8h.html" target="_top" xlink:title=" ">
<polygon fill="white" stroke="black" points="625,-302.5 625,-332.5 746,-332.5 746,-302.5 625,-302.5"/>
<text text-anchor="start" x="633" y="-320.5" font-family="Helvetica,sans-Serif" font-size="10.00">kryne&#45;engine/3DObjects</text>
<text text-anchor="middle" x="685.5" y="-309.5" font-family="Helvetica,sans-Serif" font-size="10.00">/BaseObject.h</text>
</a>
</g>
</g>
<!-- Node1&#45;&gt;Node21 -->
<g id="edge72" class="edge">
<title>Node1&#45;&gt;Node21</title>
<path fill="none" stroke="midnightblue" d="M630.09,-436.43C643.24,-426.97 657.42,-414.52 666.5,-400 677.31,-382.72 681.98,-359.91 683.99,-342.81"/>
<polygon fill="midnightblue" stroke="midnightblue" points="687.5,-342.81 684.96,-332.52 680.54,-342.15 687.5,-342.81"/>
</g>
<!-- Node3&#45;&gt;Node1 -->
<g id="edge25" class="edge">
<title>Node3&#45;&gt;Node1</title>
<path fill="none" stroke="midnightblue" d="M603.06,-399.89C604.06,-407.53 604.43,-417.21 604.17,-426.38"/>
<polygon fill="midnightblue" stroke="midnightblue" points="600.68,-426.18 603.62,-436.36 607.67,-426.57 600.68,-426.18"/>
</g>
<!-- Node4 -->
<g id="node4" class="node">
<title>Node4</title>
<g id="a_node4"><a xlink:href="_window_8h.html" target="_top" xlink:title=" ">
<polygon fill="white" stroke="black" points="180,-179.5 180,-198.5 321,-198.5 321,-179.5 180,-179.5"/>
<text text-anchor="middle" x="250.5" y="-186.5" font-family="Helvetica,sans-Serif" font-size="10.00">kryne&#45;engine/Core/Window.h</text>
</a>
</g>
</g>
<!-- Node3&#45;&gt;Node4 -->
<g id="edge3" class="edge">
<title>Node3&#45;&gt;Node4</title>
<path fill="none" stroke="midnightblue" d="M556.01,-369.42C502.61,-350.31 408.06,-313.08 335.5,-266 308.67,-248.59 281.85,-222.89 265.71,-206.29"/>
<polygon fill="midnightblue" stroke="midnightblue" points="268.14,-203.76 258.7,-198.95 263.08,-208.6 268.14,-203.76"/>
</g>
<!-- Node3&#45;&gt;Node21 -->
<g id="edge26" class="edge">
<title>Node3&#45;&gt;Node21</title>
<path fill="none" stroke="midnightblue" d="M616.59,-369.4C628.82,-360.37 644.87,-348.51 658.4,-338.52"/>
<polygon fill="midnightblue" stroke="midnightblue" points="660.48,-341.33 666.44,-332.58 656.32,-335.7 660.48,-341.33"/>
</g>
<!-- Node4&#45;&gt;Node2 -->
<g id="edge6" class="edge">
<title>Node4&#45;&gt;Node2</title>
<path fill="none" stroke="midnightblue" d="M208.89,-179.49C170.74,-171.33 112.85,-158.05 63.5,-143 60.93,-142.22 58.29,-141.36 55.65,-140.46"/>
<polygon fill="midnightblue" stroke="midnightblue" points="56.8,-137.15 46.21,-137.09 54.45,-143.75 56.8,-137.15"/>
</g>
<!-- Node5 -->
<g id="node5" class="node">
<title>Node5</title>
<g id="a_node5"><a xlink:title=" ">
<polygon fill="white" stroke="#bfbfbf" points="481.5,-0.5 481.5,-19.5 523.5,-19.5 523.5,-0.5 481.5,-0.5"/>
<text text-anchor="middle" x="502.5" y="-7.5" font-family="Helvetica,sans-Serif" font-size="10.00">vector</text>
</a>
</g>
</g>
<!-- Node4&#45;&gt;Node5 -->
<g id="edge4" class="edge">
<title>Node4&#45;&gt;Node5</title>
<path fill="none" stroke="midnightblue" d="M197.6,-179.46C158.07,-171.87 108.82,-159.44 96.5,-143 71.6,-109.78 95.61,-78.5 130.5,-56 186.63,-19.8 392.06,-12.72 471.16,-11.34"/>
<polygon fill="midnightblue" stroke="midnightblue" points="471.51,-14.83 481.45,-11.18 471.4,-7.83 471.51,-14.83"/>
</g>
<!-- Node6 -->
<g id="node6" class="node">
<title>Node6</title>
<g id="a_node6"><a xlink:title=" ">
<polygon fill="white" stroke="#bfbfbf" points="105.5,-118 105.5,-137 183.5,-137 183.5,-118 105.5,-118"/>
<text text-anchor="middle" x="144.5" y="-125" font-family="Helvetica,sans-Serif" font-size="10.00">unordered_set</text>
</a>
</g>
</g>
<!-- Node4&#45;&gt;Node6 -->
<g id="edge5" class="edge">
<title>Node4&#45;&gt;Node6</title>
<path fill="none" stroke="midnightblue" d="M235.31,-179.48C217.84,-169.67 188.92,-153.43 168.42,-141.92"/>
<polygon fill="midnightblue" stroke="midnightblue" points="170.09,-138.85 159.66,-137.01 166.67,-144.96 170.09,-138.85"/>
</g>
<!-- Node7 -->
<g id="node7" class="node">
<title>Node7</title>
<g id="a_node7"><a xlink:title=" ">
<polygon fill="white" stroke="#bfbfbf" points="202,-118 202,-137 247,-137 247,-118 202,-118"/>
<text text-anchor="middle" x="224.5" y="-125" font-family="Helvetica,sans-Serif" font-size="10.00">cstdlib</text>
</a>
</g>
</g>
<!-- Node4&#45;&gt;Node7 -->
<g id="edge7" class="edge">
<title>Node4&#45;&gt;Node7</title>
<path fill="none" stroke="midnightblue" d="M246.77,-179.48C243.03,-170.9 237.14,-157.43 232.36,-146.48"/>
<polygon fill="midnightblue" stroke="midnightblue" points="235.43,-144.77 228.22,-137.01 229.02,-147.57 235.43,-144.77"/>
</g>
<!-- Node8 -->
<g id="node8" class="node">
<title>Node8</title>
<g id="a_node8"><a xlink:title=" ">
<polygon fill="white" stroke="#bfbfbf" points="1189.5,-0.5 1189.5,-19.5 1243.5,-19.5 1243.5,-0.5 1189.5,-0.5"/>
<text text-anchor="middle" x="1216.5" y="-7.5" font-family="Helvetica,sans-Serif" font-size="10.00">iostream</text>
</a>
</g>
</g>
<!-- Node4&#45;&gt;Node8 -->
<g id="edge8" class="edge">
<title>Node4&#45;&gt;Node8</title>
<path fill="none" stroke="midnightblue" d="M254.52,-179.11C260.74,-163.89 270.56,-132.53 256.5,-112 231.45,-75.44 188.55,-112.56 163.5,-76 158.48,-68.67 157.35,-62.42 163.5,-56 199.34,-18.6 995.98,-12.15 1179.17,-11.16"/>
<polygon fill="midnightblue" stroke="midnightblue" points="1179.4,-14.66 1189.38,-11.11 1179.36,-7.66 1179.4,-14.66"/>
</g>
<!-- Node9 -->
<g id="node9" class="node">
<title>Node9</title>
<g id="a_node9"><a xlink:title=" ">
<polygon fill="white" stroke="#bfbfbf" points="838.5,-56.5 838.5,-75.5 902.5,-75.5 902.5,-56.5 838.5,-56.5"/>
<text text-anchor="middle" x="870.5" y="-63.5" font-family="Helvetica,sans-Serif" font-size="10.00">glad/glad.h</text>
</a>
</g>
</g>
<!-- Node4&#45;&gt;Node9 -->
<g id="edge9" class="edge">
<title>Node4&#45;&gt;Node9</title>
<path fill="none" stroke="midnightblue" d="M321.04,-186.35C441.2,-182.78 680.19,-172.16 758.5,-143 780.58,-134.78 782.07,-125.33 801.5,-112 816.93,-101.42 834.6,-89.9 848.2,-81.17"/>
<polygon fill="midnightblue" stroke="midnightblue" points="850.35,-83.95 856.89,-75.61 846.58,-78.05 850.35,-83.95"/>
</g>
<!-- Node10 -->
<g id="node10" class="node">
<title>Node10</title>
<g id="a_node10"><a xlink:title=" ">
<polygon fill="white" stroke="#bfbfbf" points="612.5,-56.5 612.5,-75.5 690.5,-75.5 690.5,-56.5 612.5,-56.5"/>
<text text-anchor="middle" x="651.5" y="-63.5" font-family="Helvetica,sans-Serif" font-size="10.00">GLFW/glfw3.h</text>
</a>
</g>
</g>
<!-- Node4&#45;&gt;Node10 -->
<g id="edge10" class="edge">
<title>Node4&#45;&gt;Node10</title>
<path fill="none" stroke="midnightblue" d="M321.03,-183.56C372.01,-178.38 441.62,-167.19 498.5,-143 520.18,-133.78 520.9,-123.43 541.5,-112 565.44,-98.72 594.11,-87.12 616.18,-79.02"/>
<polygon fill="midnightblue" stroke="midnightblue" points="617.59,-82.23 625.81,-75.55 615.22,-75.65 617.59,-82.23"/>
</g>
<!-- Node4&#45;&gt;Node11 -->
<g id="edge11" class="edge">
<title>Node4&#45;&gt;Node11</title>
<path fill="none" stroke="midnightblue" d="M321.31,-187.3C521.54,-184.96 1108.87,-175.6 1595.5,-143 1619.96,-141.36 1646.69,-138.87 1670.41,-136.4"/>
<polygon fill="midnightblue" stroke="midnightblue" points="1670.8,-139.88 1680.37,-135.35 1670.06,-132.92 1670.8,-139.88"/>
</g>
<!-- Node15 -->
<g id="node15" class="node">
<title>Node15</title>
<g id="a_node15"><a xlink:href="_old_camera_8h.html" target="_top" xlink:title=" ">
<polygon fill="white" stroke="black" points="380,-112.5 380,-142.5 489,-142.5 489,-112.5 380,-112.5"/>
<text text-anchor="start" x="388" y="-130.5" font-family="Helvetica,sans-Serif" font-size="10.00">kryne&#45;engine/Camera</text>
<text text-anchor="middle" x="434.5" y="-119.5" font-family="Helvetica,sans-Serif" font-size="10.00">/OldCamera.h</text>
</a>
</g>
</g>
<!-- Node4&#45;&gt;Node15 -->
<g id="edge15" class="edge">
<title>Node4&#45;&gt;Node15</title>
<path fill="none" stroke="midnightblue" d="M271.96,-179.48C297.29,-170.66 340.14,-156.67 375.54,-145.57"/>
<polygon fill="midnightblue" stroke="midnightblue" points="376.8,-148.84 385.3,-142.52 374.72,-142.16 376.8,-148.84"/>
</g>
<!-- Node12 -->
<g id="node12" class="node">
<title>Node12</title>
<g id="a_node12"><a xlink:title=" ">
<polygon fill="white" stroke="#bfbfbf" points="1657,-56.5 1657,-75.5 1692,-75.5 1692,-56.5 1657,-56.5"/>
<text text-anchor="middle" x="1674.5" y="-63.5" font-family="Helvetica,sans-Serif" font-size="10.00">map</text>
</a>
</g>
</g>
<!-- Node11&#45;&gt;Node12 -->
<g id="edge12" class="edge">
<title>Node11&#45;&gt;Node12</title>
<path fill="none" stroke="midnightblue" d="M1730.19,-117.98C1720.05,-108.7 1703.64,-93.67 1691.25,-82.33"/>
<polygon fill="midnightblue" stroke="midnightblue" points="1693.54,-79.68 1683.8,-75.51 1688.81,-84.84 1693.54,-79.68"/>
</g>
<!-- Node13 -->
<g id="node13" class="node">
<title>Node13</title>
<g id="a_node13"><a xlink:title=" ">
<polygon fill="white" stroke="#bfbfbf" points="1295,-56.5 1295,-75.5 1336,-75.5 1336,-56.5 1295,-56.5"/>
<text text-anchor="middle" x="1315.5" y="-63.5" font-family="Helvetica,sans-Serif" font-size="10.00">string</text>
</a>
</g>
</g>
<!-- Node11&#45;&gt;Node13 -->
<g id="edge13" class="edge">
<title>Node11&#45;&gt;Node13</title>
<path fill="none" stroke="midnightblue" d="M1680.41,-119.73C1605.88,-110.92 1473.87,-94.48 1361.5,-76 1356.54,-75.18 1351.3,-74.24 1346.2,-73.27"/>
<polygon fill="midnightblue" stroke="midnightblue" points="1346.55,-69.78 1336.06,-71.3 1345.21,-76.65 1346.55,-69.78"/>
</g>
<!-- Node14 -->
<g id="node14" class="node">
<title>Node14</title>
<g id="a_node14"><a xlink:title=" ">
<polygon fill="white" stroke="#bfbfbf" points="1723.5,-56.5 1723.5,-75.5 1755.5,-75.5 1755.5,-56.5 1723.5,-56.5"/>
<text text-anchor="middle" x="1739.5" y="-63.5" font-family="Helvetica,sans-Serif" font-size="10.00">any</text>
</a>
</g>
</g>
<!-- Node11&#45;&gt;Node14 -->
<g id="edge14" class="edge">
<title>Node11&#45;&gt;Node14</title>
<path fill="none" stroke="midnightblue" d="M1739.5,-117.98C1739.5,-109.58 1739.5,-96.48 1739.5,-85.66"/>
<polygon fill="midnightblue" stroke="midnightblue" points="1743,-85.51 1739.5,-75.51 1736,-85.51 1743,-85.51"/>
</g>
<!-- Node15&#45;&gt;Node4 -->
<g id="edge24" class="edge">
<title>Node15&#45;&gt;Node4</title>
<path fill="none" stroke="midnightblue" d="M396.96,-142.52C366.3,-152.87 323.16,-166.78 291.58,-176.48"/>
<polygon fill="midnightblue" stroke="midnightblue" points="290.31,-173.21 281.76,-179.48 292.35,-179.91 290.31,-173.21"/>
</g>
<!-- Node15&#45;&gt;Node5 -->
<g id="edge16" class="edge">
<title>Node15&#45;&gt;Node5</title>
<path fill="none" stroke="midnightblue" d="M382.52,-112.47C351.19,-102.84 315.64,-89.43 306.5,-76 301.5,-68.65 300.96,-62.95 306.5,-56 326.71,-30.62 420.89,-18.37 470.98,-13.57"/>
<polygon fill="midnightblue" stroke="midnightblue" points="471.6,-17.02 481.24,-12.63 470.97,-10.05 471.6,-17.02"/>
</g>
<!-- Node15&#45;&gt;Node9 -->
<g id="edge19" class="edge">
<title>Node15&#45;&gt;Node9</title>
<path fill="none" stroke="midnightblue" d="M489.04,-121.08C563.51,-113.33 701.36,-97.77 828.42,-76.06"/>
<polygon fill="midnightblue" stroke="midnightblue" points="829.07,-79.5 838.32,-74.35 827.87,-72.6 829.07,-79.5"/>
</g>
<!-- Node15&#45;&gt;Node10 -->
<g id="edge20" class="edge">
<title>Node15&#45;&gt;Node10</title>
<path fill="none" stroke="midnightblue" d="M485.65,-112.47C523.74,-102.03 575.07,-87.96 610.48,-78.25"/>
<polygon fill="midnightblue" stroke="midnightblue" points="611.76,-81.53 620.48,-75.51 609.91,-74.78 611.76,-81.53"/>
</g>
<!-- Node16 -->
<g id="node16" class="node">
<title>Node16</title>
<g id="a_node16"><a xlink:title=" ">
<polygon fill="white" stroke="#bfbfbf" points="476.5,-56.5 476.5,-75.5 528.5,-75.5 528.5,-56.5 476.5,-56.5"/>
<text text-anchor="middle" x="502.5" y="-63.5" font-family="Helvetica,sans-Serif" font-size="10.00">stdarg.h</text>
</a>
</g>
</g>
<!-- Node15&#45;&gt;Node16 -->
<g id="edge17" class="edge">
<title>Node15&#45;&gt;Node16</title>
<path fill="none" stroke="midnightblue" d="M450.62,-112.4C460.9,-103.4 474.25,-91.72 484.83,-82.47"/>
<polygon fill="midnightblue" stroke="midnightblue" points="487.38,-84.88 492.61,-75.66 482.77,-79.61 487.38,-84.88"/>
</g>
<!-- Node17 -->
<g id="node17" class="node">
<title>Node17</title>
<g id="a_node17"><a xlink:title=" ">
<polygon fill="white" stroke="#bfbfbf" points="546.5,-56.5 546.5,-75.5 594.5,-75.5 594.5,-56.5 546.5,-56.5"/>
<text text-anchor="middle" x="570.5" y="-63.5" font-family="Helvetica,sans-Serif" font-size="10.00">stdlib.h</text>
</a>
</g>
</g>
<!-- Node15&#45;&gt;Node17 -->
<g id="edge18" class="edge">
<title>Node15&#45;&gt;Node17</title>
<path fill="none" stroke="midnightblue" d="M466.73,-112.4C489.34,-102.51 519.34,-89.38 541.26,-79.79"/>
<polygon fill="midnightblue" stroke="midnightblue" points="542.95,-82.87 550.71,-75.66 540.15,-76.46 542.95,-82.87"/>
</g>
<!-- Node18 -->
<g id="node18" class="node">
<title>Node18</title>
<g id="a_node18"><a xlink:title=" ">
<polygon fill="white" stroke="#bfbfbf" points="746.5,-56.5 746.5,-75.5 820.5,-75.5 820.5,-56.5 746.5,-56.5"/>
<text text-anchor="middle" x="783.5" y="-63.5" font-family="Helvetica,sans-Serif" font-size="10.00">glm/vec3.hpp</text>
</a>
</g>
</g>
<!-- Node15&#45;&gt;Node18 -->
<g id="edge21" class="edge">
<title>Node15&#45;&gt;Node18</title>
<path fill="none" stroke="midnightblue" d="M489.03,-117.2C557.09,-105.6 672.34,-85.95 736.62,-74.99"/>
<polygon fill="midnightblue" stroke="midnightblue" points="737.21,-78.44 746.48,-73.31 736.04,-71.54 737.21,-78.44"/>
</g>
<!-- Node19 -->
<g id="node19" class="node">
<title>Node19</title>
<g id="a_node19"><a xlink:title=" ">
<polygon fill="white" stroke="#bfbfbf" points="172.5,-56.5 172.5,-75.5 258.5,-75.5 258.5,-56.5 172.5,-56.5"/>
<text text-anchor="middle" x="215.5" y="-63.5" font-family="Helvetica,sans-Serif" font-size="10.00">glm/mat4x4.hpp</text>
</a>
</g>
</g>
<!-- Node15&#45;&gt;Node19 -->
<g id="edge22" class="edge">
<title>Node15&#45;&gt;Node19</title>
<path fill="none" stroke="midnightblue" d="M382.88,-112.47C344.44,-102.03 292.64,-87.96 256.9,-78.25"/>
<polygon fill="midnightblue" stroke="midnightblue" points="257.38,-74.75 246.81,-75.51 255.54,-81.51 257.38,-74.75"/>
</g>
<!-- Node20 -->
<g id="node20" class="node">
<title>Node20</title>
<g id="a_node20"><a xlink:title=" ">
<polygon fill="white" stroke="#bfbfbf" points="315,-56.5 315,-75.5 458,-75.5 458,-56.5 315,-56.5"/>
<text text-anchor="middle" x="386.5" y="-63.5" font-family="Helvetica,sans-Serif" font-size="10.00">glm/gtc/matrix_transform.hpp</text>
</a>
</g>
</g>
<!-- Node15&#45;&gt;Node20 -->
<g id="edge23" class="edge">
<title>Node15&#45;&gt;Node20</title>
<path fill="none" stroke="midnightblue" d="M423.12,-112.4C416.15,-103.75 407.19,-92.64 399.87,-83.58"/>
<polygon fill="midnightblue" stroke="midnightblue" points="402.49,-81.24 393.48,-75.66 397.04,-85.64 402.49,-81.24"/>
</g>
<!-- Node21&#45;&gt;Node9 -->
<g id="edge27" class="edge">
<title>Node21&#45;&gt;Node9</title>
<path fill="none" stroke="midnightblue" d="M746.05,-310.19C775.11,-303.85 807.64,-291.19 826.5,-266 867.59,-211.11 811.37,-176.17 835.5,-112 839.53,-101.27 847.08,-91.05 854.13,-83.06"/>
<polygon fill="midnightblue" stroke="midnightblue" points="856.83,-85.3 861.14,-75.62 851.73,-80.5 856.83,-85.3"/>
</g>
<!-- Node21&#45;&gt;Node10 -->
<g id="edge28" class="edge">
<title>Node21&#45;&gt;Node10</title>
<path fill="none" stroke="midnightblue" d="M624.91,-306.54C601.34,-299.38 576.64,-287.09 562.5,-266 536.96,-227.9 553.52,-188.23 602.5,-112 609.94,-100.43 621.06,-89.88 630.83,-81.91"/>
<polygon fill="midnightblue" stroke="midnightblue" points="633.19,-84.51 638.94,-75.61 628.9,-78.98 633.19,-84.51"/>
</g>
<!-- Node21&#45;&gt;Node11 -->
<g id="edge70" class="edge">
<title>Node21&#45;&gt;Node11</title>
<path fill="none" stroke="midnightblue" d="M746.16,-312.77C843.89,-306.29 1042.09,-291.17 1208.5,-266 1353.89,-244.01 1390.63,-237.67 1532.5,-199 1595.64,-181.79 1667.61,-155.79 1707.89,-140.64"/>
<polygon fill="midnightblue" stroke="midnightblue" points="1709.31,-143.85 1717.42,-137.04 1706.83,-137.3 1709.31,-143.85"/>
</g>
<!-- Node21&#45;&gt;Node19 -->
<g id="edge29" class="edge">
<title>Node21&#45;&gt;Node19</title>
<path fill="none" stroke="midnightblue" d="M641.25,-302.49C613.57,-293.21 577.42,-280.19 546.5,-266 445.03,-219.45 422.44,-201.73 327.5,-143 294.65,-122.68 257.82,-97.13 235.66,-81.43"/>
<polygon fill="midnightblue" stroke="midnightblue" points="237.56,-78.49 227.38,-75.55 233.5,-84.2 237.56,-78.49"/>
</g>
<!-- Node22 -->
<g id="node22" class="node">
<title>Node22</title>
<g id="a_node22"><a xlink:title=" ">
<polygon fill="white" stroke="#bfbfbf" points="571.5,-241 571.5,-260 657.5,-260 657.5,-241 571.5,-241"/>
<text text-anchor="middle" x="614.5" y="-248" font-family="Helvetica,sans-Serif" font-size="10.00">glm/mat3x3.hpp</text>
</a>
</g>
</g>
<!-- Node21&#45;&gt;Node22 -->
<g id="edge30" class="edge">
<title>Node21&#45;&gt;Node22</title>
<path fill="none" stroke="midnightblue" d="M670.09,-302.4C658.69,-291.96 643.17,-277.75 631.43,-267"/>
<polygon fill="midnightblue" stroke="midnightblue" points="633.74,-264.37 624,-260.19 629.01,-269.53 633.74,-264.37"/>
</g>
<!-- Node23 -->
<g id="node23" class="node">
<title>Node23</title>
<g id="a_node23"><a xlink:href="_shader_8h.html" target="_top" xlink:title=" ">
<polygon fill="white" stroke="black" points="1089.5,-235.5 1089.5,-265.5 1199.5,-265.5 1199.5,-235.5 1089.5,-235.5"/>
<text text-anchor="start" x="1097.5" y="-253.5" font-family="Helvetica,sans-Serif" font-size="10.00">kryne&#45;engine/Material</text>
<text text-anchor="middle" x="1144.5" y="-242.5" font-family="Helvetica,sans-Serif" font-size="10.00">/Shader.h</text>
</a>
</g>
</g>
<!-- Node21&#45;&gt;Node23 -->
<g id="edge31" class="edge">
<title>Node21&#45;&gt;Node23</title>
<path fill="none" stroke="midnightblue" d="M746.45,-307.87C832.98,-295.62 990.75,-273.27 1079.46,-260.71"/>
<polygon fill="midnightblue" stroke="midnightblue" points="1079.99,-264.17 1089.4,-259.3 1079.01,-257.24 1079.99,-264.17"/>
</g>
<!-- Node39 -->
<g id="node39" class="node">
<title>Node39</title>
<g id="a_node39"><a xlink:href="_vertex_array_8h.html" target="_top" xlink:title=" ">
<polygon fill="white" stroke="black" points="622,-112.5 622,-142.5 749,-142.5 749,-112.5 622,-112.5"/>
<text text-anchor="start" x="630" y="-130.5" font-family="Helvetica,sans-Serif" font-size="10.00">kryne&#45;engine/Core/Vertex</text>
<text text-anchor="middle" x="685.5" y="-119.5" font-family="Helvetica,sans-Serif" font-size="10.00">Array.h</text>
</a>
</g>
</g>
<!-- Node21&#45;&gt;Node39 -->
<g id="edge62" class="edge">
<title>Node21&#45;&gt;Node39</title>
<path fill="none" stroke="midnightblue" d="M685.5,-302.37C685.5,-270.44 685.5,-192.44 685.5,-152.67"/>
<polygon fill="midnightblue" stroke="midnightblue" points="689,-152.54 685.5,-142.54 682,-152.54 689,-152.54"/>
</g>
<!-- Node40 -->
<g id="node40" class="node">
<title>Node40</title>
<g id="a_node40"><a xlink:href="enums_2_base_object_8h.html" target="_top" xlink:title=" ">
<polygon fill="white" stroke="black" points="713.5,-235.5 713.5,-265.5 817.5,-265.5 817.5,-235.5 713.5,-235.5"/>
<text text-anchor="start" x="721.5" y="-253.5" font-family="Helvetica,sans-Serif" font-size="10.00">kryne&#45;engine/enums</text>
<text text-anchor="middle" x="765.5" y="-242.5" font-family="Helvetica,sans-Serif" font-size="10.00">/BaseObject.h</text>
</a>
</g>
</g>
<!-- Node21&#45;&gt;Node40 -->
<g id="edge71" class="edge">
<title>Node21&#45;&gt;Node40</title>
<path fill="none" stroke="midnightblue" d="M702.86,-302.4C713.76,-293.54 728.01,-281.96 740.16,-272.09"/>
<polygon fill="midnightblue" stroke="midnightblue" points="742.62,-274.6 748.18,-265.58 738.21,-269.17 742.62,-274.6"/>
</g>
<!-- Node23&#45;&gt;Node12 -->
<g id="edge32" class="edge">
<title>Node23&#45;&gt;Node12</title>
<path fill="none" stroke="midnightblue" d="M1199.69,-246.03C1268.13,-240.66 1387.83,-227.79 1486.5,-199 1544.94,-181.95 1563.03,-179.84 1611.5,-143 1633.17,-126.53 1652.2,-101.24 1663.53,-84.42"/>
<polygon fill="midnightblue" stroke="midnightblue" points="1666.73,-85.91 1669.27,-75.62 1660.87,-82.08 1666.73,-85.91"/>
</g>
<!-- Node24 -->
<g id="node24" class="node">
<title>Node24</title>
<g id="a_node24"><a xlink:title=" ">
<polygon fill="white" stroke="#bfbfbf" points="1026.5,-179.5 1026.5,-198.5 1078.5,-198.5 1078.5,-179.5 1026.5,-179.5"/>
<text text-anchor="middle" x="1052.5" y="-186.5" font-family="Helvetica,sans-Serif" font-size="10.00">sstream</text>
</a>
</g>
</g>
<!-- Node23&#45;&gt;Node24 -->
<g id="edge33" class="edge">
<title>Node23&#45;&gt;Node24</title>
<path fill="none" stroke="midnightblue" d="M1122.7,-235.4C1108.09,-225.95 1088.93,-213.56 1074.32,-204.11"/>
<polygon fill="midnightblue" stroke="midnightblue" points="1076.18,-201.15 1065.89,-198.66 1072.38,-207.03 1076.18,-201.15"/>
</g>
<!-- Node25 -->
<g id="node25" class="node">
<title>Node25</title>
<g id="a_node25"><a xlink:href="_uniforms_handler_8h.html" target="_top" xlink:title=" ">
<polygon fill="white" stroke="black" points="1096.5,-179.5 1096.5,-198.5 1192.5,-198.5 1192.5,-179.5 1096.5,-179.5"/>
<text text-anchor="middle" x="1144.5" y="-186.5" font-family="Helvetica,sans-Serif" font-size="10.00">UniformsHandler.h</text>
</a>
</g>
</g>
<!-- Node23&#45;&gt;Node25 -->
<g id="edge34" class="edge">
<title>Node23&#45;&gt;Node25</title>
<path fill="none" stroke="midnightblue" d="M1144.5,-235.4C1144.5,-227.47 1144.5,-217.46 1144.5,-208.86"/>
<polygon fill="midnightblue" stroke="midnightblue" points="1148,-208.66 1144.5,-198.66 1141,-208.66 1148,-208.66"/>
</g>
<!-- Node33 -->
<g id="node33" class="node">
<title>Node33</title>
<g id="a_node33"><a xlink:href="_shader_chunk_8h.html" target="_top" xlink:title=" ">
<polygon fill="white" stroke="black" points="1394,-179.5 1394,-198.5 1477,-198.5 1477,-179.5 1394,-179.5"/>
<text text-anchor="middle" x="1435.5" y="-186.5" font-family="Helvetica,sans-Serif" font-size="10.00">ShaderChunk.h</text>
</a>
</g>
</g>
<!-- Node23&#45;&gt;Node33 -->
<g id="edge51" class="edge">
<title>Node23&#45;&gt;Node33</title>
<path fill="none" stroke="midnightblue" d="M1199.58,-238.24C1252.56,-227.4 1332.05,-211.15 1383.85,-200.56"/>
<polygon fill="midnightblue" stroke="midnightblue" points="1384.73,-203.95 1393.83,-198.52 1383.33,-197.09 1384.73,-203.95"/>
</g>
<!-- Node25&#45;&gt;Node9 -->
<g id="edge37" class="edge">
<title>Node25&#45;&gt;Node9</title>
<path fill="none" stroke="midnightblue" d="M1161.13,-179.46C1173.99,-171.84 1190.84,-159.36 1198.5,-143 1204.34,-130.52 1207.62,-122.33 1198.5,-112 1157.88,-65.97 990.84,-84.97 913.04,-75.84"/>
<polygon fill="midnightblue" stroke="midnightblue" points="913.07,-72.31 902.67,-74.35 912.08,-79.24 913.07,-72.31"/>
</g>
<!-- Node25&#45;&gt;Node10 -->
<g id="edge38" class="edge">
<title>Node25&#45;&gt;Node10</title>
<path fill="none" stroke="midnightblue" d="M1096.34,-180.11C1093.35,-179.71 1090.39,-179.34 1087.5,-179 1035.04,-172.88 649.41,-181.74 613.5,-143 597.21,-125.43 616.89,-99.56 633.45,-83"/>
<polygon fill="midnightblue" stroke="midnightblue" points="636.31,-85.11 641.16,-75.69 631.49,-80.03 636.31,-85.11"/>
</g>
<!-- Node25&#45;&gt;Node13 -->
<g id="edge35" class="edge">
<title>Node25&#45;&gt;Node13</title>
<path fill="none" stroke="midnightblue" d="M1164.68,-179.37C1182.87,-171.18 1209.98,-157.92 1231.5,-143 1257.61,-124.89 1284.22,-99.37 1300.3,-83"/>
<polygon fill="midnightblue" stroke="midnightblue" points="1302.86,-85.4 1307.3,-75.78 1297.83,-80.53 1302.86,-85.4"/>
</g>
<!-- Node25&#45;&gt;Node19 -->
<g id="edge39" class="edge">
<title>Node25&#45;&gt;Node19</title>
<path fill="none" stroke="midnightblue" d="M1096.35,-180.03C1093.36,-179.65 1090.39,-179.3 1087.5,-179 929.04,-162.55 522.11,-194.93 371.5,-143 348.88,-135.2 348.52,-123.42 327.5,-112 302.96,-98.66 273.62,-87.01 251.12,-78.91"/>
<polygon fill="midnightblue" stroke="midnightblue" points="252.22,-75.59 241.62,-75.56 249.88,-82.19 252.22,-75.59"/>
</g>
<!-- Node26 -->
<g id="node26" class="node">
<title>Node26</title>
<g id="a_node26"><a xlink:title=" ">
<polygon fill="white" stroke="#bfbfbf" points="1284,-118 1284,-137 1367,-137 1367,-118 1284,-118"/>
<text text-anchor="middle" x="1325.5" y="-125" font-family="Helvetica,sans-Serif" font-size="10.00">unordered_map</text>
</a>
</g>
</g>
<!-- Node25&#45;&gt;Node26 -->
<g id="edge36" class="edge">
<title>Node25&#45;&gt;Node26</title>
<path fill="none" stroke="midnightblue" d="M1170.43,-179.48C1201.75,-169.18 1254.59,-151.81 1289.76,-140.25"/>
<polygon fill="midnightblue" stroke="midnightblue" points="1291.21,-143.46 1299.62,-137.01 1289.02,-136.81 1291.21,-143.46"/>
</g>
<!-- Node27 -->
<g id="node27" class="node">
<title>Node27</title>
<g id="a_node27"><a xlink:title=" ">
<polygon fill="white" stroke="#bfbfbf" points="975.5,-118 975.5,-137 1081.5,-137 1081.5,-118 975.5,-118"/>
<text text-anchor="middle" x="1028.5" y="-125" font-family="Helvetica,sans-Serif" font-size="10.00">glm/gtc/type_ptr.hpp</text>
</a>
</g>
</g>
<!-- Node25&#45;&gt;Node27 -->
<g id="edge40" class="edge">
<title>Node25&#45;&gt;Node27</title>
<path fill="none" stroke="midnightblue" d="M1127.88,-179.48C1108.58,-169.58 1076.54,-153.14 1054.07,-141.62"/>
<polygon fill="midnightblue" stroke="midnightblue" points="1055.58,-138.46 1045.09,-137.01 1052.39,-144.69 1055.58,-138.46"/>
</g>
<!-- Node28 -->
<g id="node28" class="node">
<title>Node28</title>
<g id="a_node28"><a xlink:title=" ">
<polygon fill="white" stroke="#bfbfbf" points="1099.5,-118 1099.5,-137 1189.5,-137 1189.5,-118 1099.5,-118"/>
<text text-anchor="middle" x="1144.5" y="-125" font-family="Helvetica,sans-Serif" font-size="10.00">boost/variant.hpp</text>
</a>
</g>
</g>
<!-- Node25&#45;&gt;Node28 -->
<g id="edge41" class="edge">
<title>Node25&#45;&gt;Node28</title>
<path fill="none" stroke="midnightblue" d="M1144.5,-179.48C1144.5,-171.08 1144.5,-157.98 1144.5,-147.16"/>
<polygon fill="midnightblue" stroke="midnightblue" points="1148,-147.01 1144.5,-137.01 1141,-147.01 1148,-147.01"/>
</g>
<!-- Node29 -->
<g id="node29" class="node">
<title>Node29</title>
<g id="a_node29"><a xlink:href="_texture_8h.html" target="_top" xlink:title=" ">
<polygon fill="white" stroke="black" points="844,-112.5 844,-142.5 957,-142.5 957,-112.5 844,-112.5"/>
<text text-anchor="start" x="852" y="-130.5" font-family="Helvetica,sans-Serif" font-size="10.00">kryne&#45;engine/Textures</text>
<text text-anchor="middle" x="900.5" y="-119.5" font-family="Helvetica,sans-Serif" font-size="10.00">/Texture.h</text>
</a>
</g>
</g>
<!-- Node25&#45;&gt;Node29 -->
<g id="edge42" class="edge">
<title>Node25&#45;&gt;Node29</title>
<path fill="none" stroke="midnightblue" d="M1109.54,-179.48C1072.47,-170.43 1013.01,-155.94 966.97,-144.71"/>
<polygon fill="midnightblue" stroke="midnightblue" points="967.61,-141.26 957.07,-142.29 965.95,-148.06 967.61,-141.26"/>
</g>
<!-- Node29&#45;&gt;Node8 -->
<g id="edge45" class="edge">
<title>Node29&#45;&gt;Node8</title>
<path fill="none" stroke="midnightblue" d="M929.91,-112.36C950.58,-102.35 978.82,-88.54 1003.5,-76 1020.51,-67.35 1023.69,-62.87 1041.5,-56 1087.59,-38.23 1143.18,-25.29 1179.16,-17.97"/>
<polygon fill="midnightblue" stroke="midnightblue" points="1180.09,-21.35 1189.21,-15.97 1178.72,-14.49 1180.09,-21.35"/>
</g>
<!-- Node29&#45;&gt;Node9 -->
<g id="edge49" class="edge">
<title>Node29&#45;&gt;Node9</title>
<path fill="none" stroke="midnightblue" d="M893.39,-112.4C889.21,-104.11 883.89,-93.55 879.43,-84.71"/>
<polygon fill="midnightblue" stroke="midnightblue" points="882.49,-83.01 874.87,-75.66 876.24,-86.16 882.49,-83.01"/>
</g>
<!-- Node29&#45;&gt;Node10 -->
<g id="edge50" class="edge">
<title>Node29&#45;&gt;Node10</title>
<path fill="none" stroke="midnightblue" d="M844,-113C799.59,-102.39 738.54,-87.8 697.18,-77.92"/>
<polygon fill="midnightblue" stroke="midnightblue" points="697.92,-74.49 687.38,-75.57 696.29,-81.3 697.92,-74.49"/>
</g>
<!-- Node29&#45;&gt;Node13 -->
<g id="edge44" class="edge">
<title>Node29&#45;&gt;Node13</title>
<path fill="none" stroke="midnightblue" d="M957.32,-113.67C960.42,-113.08 963.49,-112.52 966.5,-112 1094.07,-90.09 1127.27,-93.6 1255.5,-76 1265.05,-74.69 1275.45,-73.16 1284.86,-71.75"/>
<polygon fill="midnightblue" stroke="midnightblue" points="1285.61,-75.17 1294.97,-70.21 1284.56,-68.25 1285.61,-75.17"/>
</g>
<!-- Node29&#45;&gt;Node18 -->
<g id="edge48" class="edge">
<title>Node29&#45;&gt;Node18</title>
<path fill="none" stroke="midnightblue" d="M872.77,-112.4C853.67,-102.68 828.44,-89.86 809.68,-80.31"/>
<polygon fill="midnightblue" stroke="midnightblue" points="811.02,-77.07 800.52,-75.66 807.85,-83.31 811.02,-77.07"/>
</g>
<!-- Node30 -->
<g id="node30" class="node">
<title>Node30</title>
<g id="a_node30"><a xlink:title=" ">
<polygon fill="white" stroke="#bfbfbf" points="1050.5,-56.5 1050.5,-75.5 1120.5,-75.5 1120.5,-56.5 1050.5,-56.5"/>
<text text-anchor="middle" x="1085.5" y="-63.5" font-family="Helvetica,sans-Serif" font-size="10.00">stb_image.h</text>
</a>
</g>
</g>
<!-- Node29&#45;&gt;Node30 -->
<g id="edge43" class="edge">
<title>Node29&#45;&gt;Node30</title>
<path fill="none" stroke="midnightblue" d="M944.34,-112.4C976.31,-102.12 1019.12,-88.35 1049.18,-78.68"/>
<polygon fill="midnightblue" stroke="midnightblue" points="1050.4,-81.96 1058.85,-75.57 1048.26,-75.3 1050.4,-81.96"/>
</g>
<!-- Node31 -->
<g id="node31" class="node">
<title>Node31</title>
<g id="a_node31"><a xlink:title=" ">
<polygon fill="white" stroke="#bfbfbf" points="1139,-56.5 1139,-75.5 1246,-75.5 1246,-56.5 1139,-56.5"/>
<text text-anchor="middle" x="1192.5" y="-63.5" font-family="Helvetica,sans-Serif" font-size="10.00">boost/filesystem.hpp</text>
</a>
</g>
</g>
<!-- Node29&#45;&gt;Node31 -->
<g id="edge46" class="edge">
<title>Node29&#45;&gt;Node31</title>
<path fill="none" stroke="midnightblue" d="M957.01,-114.01C960.22,-113.32 963.4,-112.65 966.5,-112 1025.11,-99.73 1092.44,-86.42 1138.26,-77.49"/>
<polygon fill="midnightblue" stroke="midnightblue" points="1139.13,-80.89 1148.28,-75.54 1137.79,-74.01 1139.13,-80.89"/>
</g>
<!-- Node32 -->
<g id="node32" class="node">
<title>Node32</title>
<g id="a_node32"><a xlink:title=" ">
<polygon fill="white" stroke="#bfbfbf" points="920.5,-56.5 920.5,-75.5 994.5,-75.5 994.5,-56.5 920.5,-56.5"/>
<text text-anchor="middle" x="957.5" y="-63.5" font-family="Helvetica,sans-Serif" font-size="10.00">glm/vec2.hpp</text>
</a>
</g>
</g>
<!-- Node29&#45;&gt;Node32 -->
<g id="edge47" class="edge">
<title>Node29&#45;&gt;Node32</title>
<path fill="none" stroke="midnightblue" d="M914.01,-112.4C922.46,-103.58 933.38,-92.18 942.16,-83.02"/>
<polygon fill="midnightblue" stroke="midnightblue" points="944.82,-85.3 949.21,-75.66 939.76,-80.46 944.82,-85.3"/>
</g>
<!-- Node33&#45;&gt;Node8 -->
<g id="edge55" class="edge">
<title>Node33&#45;&gt;Node8</title>
<path fill="none" stroke="midnightblue" d="M1477.1,-182.05C1519.57,-175.02 1581.21,-161.86 1595.5,-143 1606.31,-128.73 1594.61,-62.96 1587.5,-56 1563.92,-32.91 1343.44,-18.1 1253.96,-12.99"/>
<polygon fill="midnightblue" stroke="midnightblue" points="1253.9,-9.48 1243.72,-12.41 1253.51,-16.47 1253.9,-9.48"/>
</g>
<!-- Node33&#45;&gt;Node13 -->
<g id="edge53" class="edge">
<title>Node33&#45;&gt;Node13</title>
<path fill="none" stroke="midnightblue" d="M1439.95,-179.07C1446.85,-163.8 1457.92,-132.35 1443.5,-112 1432.02,-95.8 1380.17,-81.42 1346.08,-73.49"/>
<polygon fill="midnightblue" stroke="midnightblue" points="1346.66,-70.04 1336.14,-71.24 1345.12,-76.86 1346.66,-70.04"/>
</g>
<!-- Node33&#45;&gt;Node26 -->
<g id="edge52" class="edge">
<title>Node33&#45;&gt;Node26</title>
<path fill="none" stroke="midnightblue" d="M1419.74,-179.48C1401.52,-169.62 1371.33,-153.29 1350.03,-141.77"/>
<polygon fill="midnightblue" stroke="midnightblue" points="1351.69,-138.69 1341.23,-137.01 1348.36,-144.85 1351.69,-138.69"/>
</g>
<!-- Node34 -->
<g id="node34" class="node">
<title>Node34</title>
<g id="a_node34"><a xlink:title=" ">
<polygon fill="white" stroke="#bfbfbf" points="1385,-118 1385,-137 1434,-137 1434,-118 1385,-118"/>
<text text-anchor="middle" x="1409.5" y="-125" font-family="Helvetica,sans-Serif" font-size="10.00">fstream</text>
</a>
</g>
</g>
<!-- Node33&#45;&gt;Node34 -->
<g id="edge54" class="edge">
<title>Node33&#45;&gt;Node34</title>
<path fill="none" stroke="midnightblue" d="M1431.77,-179.48C1428.03,-170.9 1422.14,-157.43 1417.36,-146.48"/>
<polygon fill="midnightblue" stroke="midnightblue" points="1420.43,-144.77 1413.22,-137.01 1414.02,-147.57 1420.43,-144.77"/>
</g>
<!-- Node35 -->
<g id="node35" class="node">
<title>Node35</title>
<g id="a_node35"><a xlink:href="kryne-engine_2_utils_2_utils_8h.html" target="_top" xlink:title=" ">
<polygon fill="white" stroke="black" points="1491,-112.5 1491,-142.5 1586,-142.5 1586,-112.5 1491,-112.5"/>
<text text-anchor="start" x="1499" y="-130.5" font-family="Helvetica,sans-Serif" font-size="10.00">kryne&#45;engine/Utils</text>
<text text-anchor="middle" x="1538.5" y="-119.5" font-family="Helvetica,sans-Serif" font-size="10.00">/Utils.h</text>
</a>
</g>
</g>
<!-- Node33&#45;&gt;Node35 -->
<g id="edge56" class="edge">
<title>Node33&#45;&gt;Node35</title>
<path fill="none" stroke="midnightblue" d="M1450.26,-179.48C1464.6,-171.19 1486.87,-158.32 1505.45,-147.59"/>
<polygon fill="midnightblue" stroke="midnightblue" points="1507.32,-150.56 1514.22,-142.52 1503.82,-144.49 1507.32,-150.56"/>
</g>
<!-- Node36 -->
<g id="node36" class="node">
<title>Node36</title>
<g id="a_node36"><a xlink:href="_string_utils_8hpp.html" target="_top" xlink:title=" ">
<polygon fill="white" stroke="black" points="1370.5,-56.5 1370.5,-75.5 1450.5,-75.5 1450.5,-56.5 1370.5,-56.5"/>
<text text-anchor="middle" x="1410.5" y="-63.5" font-family="Helvetica,sans-Serif" font-size="10.00">StringUtils.hpp</text>
</a>
</g>
</g>
<!-- Node35&#45;&gt;Node36 -->
<g id="edge57" class="edge">
<title>Node35&#45;&gt;Node36</title>
<path fill="none" stroke="midnightblue" d="M1508.17,-112.4C1486.98,-102.55 1458.91,-89.5 1438.3,-79.92"/>
<polygon fill="midnightblue" stroke="midnightblue" points="1439.67,-76.7 1429.13,-75.66 1436.72,-83.05 1439.67,-76.7"/>
</g>
<!-- Node37 -->
<g id="node37" class="node">
<title>Node37</title>
<g id="a_node37"><a xlink:href="_vector_mapping_8hpp.html" target="_top" xlink:title=" ">
<polygon fill="white" stroke="black" points="1477,-56.5 1477,-75.5 1578,-75.5 1578,-56.5 1477,-56.5"/>
<text text-anchor="middle" x="1527.5" y="-63.5" font-family="Helvetica,sans-Serif" font-size="10.00">VectorMapping.hpp</text>
</a>
</g>
</g>
<!-- Node35&#45;&gt;Node37 -->
<g id="edge59" class="edge">
<title>Node35&#45;&gt;Node37</title>
<path fill="none" stroke="midnightblue" d="M1535.89,-112.4C1534.41,-104.38 1532.53,-94.23 1530.93,-85.57"/>
<polygon fill="midnightblue" stroke="midnightblue" points="1534.36,-84.85 1529.1,-75.66 1527.48,-86.13 1534.36,-84.85"/>
</g>
<!-- Node36&#45;&gt;Node8 -->
<g id="edge58" class="edge">
<title>Node36&#45;&gt;Node8</title>
<path fill="none" stroke="midnightblue" d="M1379.76,-56.44C1345.48,-46.9 1290.06,-31.47 1253.45,-21.28"/>
<polygon fill="midnightblue" stroke="midnightblue" points="1254.23,-17.87 1243.65,-18.56 1252.35,-24.61 1254.23,-17.87"/>
</g>
<!-- Node37&#45;&gt;Node5 -->
<g id="edge60" class="edge">
<title>Node37&#45;&gt;Node5</title>
<path fill="none" stroke="midnightblue" d="M1476.68,-57.8C1470.89,-57.12 1465.07,-56.5 1459.5,-56 1096.83,-23.53 654.61,-13.69 534.1,-11.52"/>
<polygon fill="midnightblue" stroke="midnightblue" points="533.82,-8.01 523.76,-11.33 533.7,-15.01 533.82,-8.01"/>
</g>
<!-- Node38 -->
<g id="node38" class="node">
<title>Node38</title>
<g id="a_node38"><a xlink:title=" ">
<polygon fill="white" stroke="#bfbfbf" points="1471,-0.5 1471,-19.5 1584,-19.5 1584,-0.5 1471,-0.5"/>
<text text-anchor="middle" x="1527.5" y="-7.5" font-family="Helvetica,sans-Serif" font-size="10.00">glm/detail/qualifier.hpp</text>
</a>
</g>
</g>
<!-- Node37&#45;&gt;Node38 -->
<g id="edge61" class="edge">
<title>Node37&#45;&gt;Node38</title>
<path fill="none" stroke="midnightblue" d="M1527.5,-56.08C1527.5,-49.01 1527.5,-38.86 1527.5,-29.99"/>
<polygon fill="midnightblue" stroke="midnightblue" points="1531,-29.75 1527.5,-19.75 1524,-29.75 1531,-29.75"/>
</g>
<!-- Node39&#45;&gt;Node5 -->
<g id="edge63" class="edge">
<title>Node39&#45;&gt;Node5</title>
<path fill="none" stroke="midnightblue" d="M694.26,-112.49C702.69,-97.03 712.41,-72.2 699.5,-56 679.08,-30.39 583.65,-18.2 533.49,-13.48"/>
<polygon fill="midnightblue" stroke="midnightblue" points="533.79,-9.99 523.52,-12.58 533.16,-16.96 533.79,-9.99"/>
</g>
<!-- Node39&#45;&gt;Node9 -->
<g id="edge66" class="edge">
<title>Node39&#45;&gt;Node9</title>
<path fill="none" stroke="midnightblue" d="M729.34,-112.4C761.31,-102.12 804.12,-88.35 834.18,-78.68"/>
<polygon fill="midnightblue" stroke="midnightblue" points="835.4,-81.96 843.85,-75.57 833.26,-75.3 835.4,-81.96"/>
</g>
<!-- Node39&#45;&gt;Node10 -->
<g id="edge67" class="edge">
<title>Node39&#45;&gt;Node10</title>
<path fill="none" stroke="midnightblue" d="M677.44,-112.4C672.65,-104.02 666.54,-93.33 661.46,-84.42"/>
<polygon fill="midnightblue" stroke="midnightblue" points="664.45,-82.6 656.45,-75.66 658.37,-86.08 664.45,-82.6"/>
</g>
<!-- Node39&#45;&gt;Node16 -->
<g id="edge64" class="edge">
<title>Node39&#45;&gt;Node16</title>
<path fill="none" stroke="midnightblue" d="M642.13,-112.4C610.41,-102.09 567.91,-88.27 538.16,-78.59"/>
<polygon fill="midnightblue" stroke="midnightblue" points="539.19,-75.25 528.59,-75.48 537.02,-81.9 539.19,-75.25"/>
</g>
<!-- Node39&#45;&gt;Node17 -->
<g id="edge65" class="edge">
<title>Node39&#45;&gt;Node17</title>
<path fill="none" stroke="midnightblue" d="M658.25,-112.4C639.47,-102.68 614.67,-89.86 596.23,-80.31"/>
<polygon fill="midnightblue" stroke="midnightblue" points="597.72,-77.14 587.23,-75.66 594.51,-83.36 597.72,-77.14"/>
</g>
<!-- Node39&#45;&gt;Node18 -->
<g id="edge69" class="edge">
<title>Node39&#45;&gt;Node18</title>
<path fill="none" stroke="midnightblue" d="M708.72,-112.4C724.29,-102.95 744.7,-90.56 760.26,-81.11"/>
<polygon fill="midnightblue" stroke="midnightblue" points="762.51,-83.84 769.24,-75.66 758.88,-77.86 762.51,-83.84"/>
</g>
<!-- Node39&#45;&gt;Node32 -->
<g id="edge68" class="edge">
<title>Node39&#45;&gt;Node32</title>
<path fill="none" stroke="midnightblue" d="M749.27,-112.55C798.66,-101.75 865.94,-87.03 910.5,-77.28"/>
<polygon fill="midnightblue" stroke="midnightblue" points="911.46,-80.65 920.48,-75.1 909.96,-73.82 911.46,-80.65"/>
</g>
</g>
</svg>
