<?xml version="1.0" encoding="UTF-8" standalone="no"?>
<!DOCTYPE svg PUBLIC "-//W3C//DTD SVG 1.1//EN"
 "http://www.w3.org/Graphics/SVG/1.1/DTD/svg11.dtd">
<!-- Generated by graphviz version 2.44.1 (20200629.0846)
 -->
<!-- Title: kryne&#45;engine/include/kryne&#45;engine/Camera/ICamera.hpp Pages: 1 -->
<svg width="1716pt" height="797pt"
 viewBox="0.00 0.00 1716.45 797.00" xmlns="http://www.w3.org/2000/svg" xmlns:xlink="http://www.w3.org/1999/xlink">
<g id="graph0" class="graph" transform="scale(1 1) rotate(0) translate(4 793)">
<title>kryne&#45;engine/include/kryne&#45;engine/Camera/ICamera.hpp</title>
<polygon fill="white" stroke="transparent" points="-4,4 -4,-793 1712.45,-793 1712.45,4 -4,4"/>
<!-- Node1 -->
<g id="node1" class="node">
<title>Node1</title>
<g id="a_node1"><a xlink:title=" ">
<polygon fill="#bfbfbf" stroke="black" points="522.5,-747.5 522.5,-788.5 634.5,-788.5 634.5,-747.5 522.5,-747.5"/>
<text text-anchor="start" x="530.5" y="-776.5" font-family="Helvetica,sans-Serif" font-size="10.00">kryne&#45;engine/include</text>
<text text-anchor="start" x="530.5" y="-765.5" font-family="Helvetica,sans-Serif" font-size="10.00">/kryne&#45;engine/Camera</text>
<text text-anchor="middle" x="578.5" y="-754.5" font-family="Helvetica,sans-Serif" font-size="10.00">/ICamera.hpp</text>
</a>
</g>
</g>
<!-- Node2 -->
<g id="node2" class="node">
<title>Node2</title>
<g id="a_node2"><a xlink:href="kryne-engine_2_camera_2_camera_8h.html" target="_top" xlink:title=" ">
<polygon fill="white" stroke="black" points="344.5,-379.5 344.5,-420.5 456.5,-420.5 456.5,-379.5 344.5,-379.5"/>
<text text-anchor="start" x="352.5" y="-408.5" font-family="Helvetica,sans-Serif" font-size="10.00">kryne&#45;engine/include</text>
<text text-anchor="start" x="352.5" y="-397.5" font-family="Helvetica,sans-Serif" font-size="10.00">/kryne&#45;engine/Camera</text>
<text text-anchor="middle" x="400.5" y="-386.5" font-family="Helvetica,sans-Serif" font-size="10.00">/Camera.h</text>
</a>
</g>
</g>
<!-- Node1&#45;&gt;Node2 -->
<g id="edge1" class="edge">
<title>Node1&#45;&gt;Node2</title>
<path fill="none" stroke="midnightblue" d="M564.94,-737.91C552.02,-707.46 534.5,-657.91 534.5,-613 534.5,-613 534.5,-613 534.5,-538.5 534.5,-484 479.84,-443.03 440.34,-420.54"/>
<polygon fill="midnightblue" stroke="midnightblue" points="561.75,-739.33 568.95,-747.09 568.16,-736.53 561.75,-739.33"/>
</g>
<!-- Node14 -->
<g id="node14" class="node">
<title>Node14</title>
<g id="a_node14"><a xlink:href="_i_render_mesh_8hpp.html" target="_top" xlink:title=" ">
<polygon fill="white" stroke="black" points="723.5,-669.5 723.5,-710.5 845.5,-710.5 845.5,-669.5 723.5,-669.5"/>
<text text-anchor="start" x="731.5" y="-698.5" font-family="Helvetica,sans-Serif" font-size="10.00">kryne&#45;engine/include</text>
<text text-anchor="start" x="731.5" y="-687.5" font-family="Helvetica,sans-Serif" font-size="10.00">/kryne&#45;engine/Rendering</text>
<text text-anchor="middle" x="784.5" y="-676.5" font-family="Helvetica,sans-Serif" font-size="10.00">/IRenderMesh.hpp</text>
</a>
</g>
</g>
<!-- Node1&#45;&gt;Node14 -->
<g id="edge15" class="edge">
<title>Node1&#45;&gt;Node14</title>
<path fill="none" stroke="midnightblue" d="M641.15,-743.89C670.07,-733.22 704.02,-720.69 731.63,-710.51"/>
<polygon fill="midnightblue" stroke="midnightblue" points="639.72,-740.68 631.55,-747.43 642.14,-747.25 639.72,-740.68"/>
</g>
<!-- Node3 -->
<g id="node3" class="node">
<title>Node3</title>
<g id="a_node3"><a xlink:href="_k_e_modules_2_camera_8h.html" target="_top" xlink:title=" ">
<polygon fill="white" stroke="black" points="515,-151 515,-181 630,-181 630,-151 515,-151"/>
<text text-anchor="start" x="523" y="-169" font-family="Helvetica,sans-Serif" font-size="10.00">kryne&#45;engine/include</text>
<text text-anchor="middle" x="572.5" y="-158" font-family="Helvetica,sans-Serif" font-size="10.00">/KEModules/Camera.h</text>
</a>
</g>
</g>
<!-- Node2&#45;&gt;Node3 -->
<g id="edge2" class="edge">
<title>Node2&#45;&gt;Node3</title>
<path fill="none" stroke="midnightblue" d="M398.99,-368.86C398.7,-330.63 403.84,-264.67 438.5,-223 457.69,-199.93 487.99,-186.21 514.93,-178.13"/>
<polygon fill="midnightblue" stroke="midnightblue" points="395.5,-369.4 399.21,-379.32 402.5,-369.25 395.5,-369.4"/>
</g>
<!-- Node4 -->
<g id="node4" class="node">
<title>Node4</title>
<g id="a_node4"><a xlink:href="_mesh_8h.html" target="_top" xlink:title=" ">
<polygon fill="white" stroke="black" points="229.5,-301.5 229.5,-342.5 353.5,-342.5 353.5,-301.5 229.5,-301.5"/>
<text text-anchor="start" x="237.5" y="-330.5" font-family="Helvetica,sans-Serif" font-size="10.00">kryne&#45;engine/include</text>
<text text-anchor="start" x="237.5" y="-319.5" font-family="Helvetica,sans-Serif" font-size="10.00">/kryne&#45;engine/3DObjects</text>
<text text-anchor="middle" x="291.5" y="-308.5" font-family="Helvetica,sans-Serif" font-size="10.00">/Mesh.h</text>
</a>
</g>
</g>
<!-- Node2&#45;&gt;Node4 -->
<g id="edge3" class="edge">
<title>Node2&#45;&gt;Node4</title>
<path fill="none" stroke="midnightblue" d="M364.12,-373.64C349.57,-363.49 333.07,-351.98 319.48,-342.51"/>
<polygon fill="midnightblue" stroke="midnightblue" points="362.23,-376.58 372.43,-379.43 366.23,-370.84 362.23,-376.58"/>
</g>
<!-- Node6 -->
<g id="node6" class="node">
<title>Node6</title>
<g id="a_node6"><a xlink:href="_renderer_8h.html" target="_top" xlink:title=" ">
<polygon fill="white" stroke="black" points="75.5,-223.5 75.5,-264.5 197.5,-264.5 197.5,-223.5 75.5,-223.5"/>
<text text-anchor="start" x="83.5" y="-252.5" font-family="Helvetica,sans-Serif" font-size="10.00">kryne&#45;engine/include</text>
<text text-anchor="start" x="83.5" y="-241.5" font-family="Helvetica,sans-Serif" font-size="10.00">/kryne&#45;engine/Rendering</text>
<text text-anchor="middle" x="136.5" y="-230.5" font-family="Helvetica,sans-Serif" font-size="10.00">/Renderer.h</text>
</a>
</g>
</g>
<!-- Node2&#45;&gt;Node6 -->
<g id="edge12" class="edge">
<title>Node2&#45;&gt;Node6</title>
<path fill="none" stroke="midnightblue" d="M334.16,-395.44C288.64,-389.92 229.16,-376.28 187.5,-343 162.32,-322.89 148.23,-286.97 141.51,-264.65"/>
<polygon fill="midnightblue" stroke="midnightblue" points="333.91,-398.93 344.24,-396.56 334.68,-391.98 333.91,-398.93"/>
</g>
<!-- Node10 -->
<g id="node10" class="node">
<title>Node10</title>
<g id="a_node10"><a xlink:href="_orbit_controls_component_8h.html" target="_top" xlink:title=" ">
<polygon fill="white" stroke="black" points="757.5,-223.5 757.5,-264.5 891.5,-264.5 891.5,-223.5 757.5,-223.5"/>
<text text-anchor="start" x="765.5" y="-252.5" font-family="Helvetica,sans-Serif" font-size="10.00">kryne&#45;engine/include</text>
<text text-anchor="start" x="765.5" y="-241.5" font-family="Helvetica,sans-Serif" font-size="10.00">/kryne&#45;engine/Camera</text>
<text text-anchor="middle" x="824.5" y="-230.5" font-family="Helvetica,sans-Serif" font-size="10.00">/OrbitControlsComponent.h</text>
</a>
</g>
</g>
<!-- Node2&#45;&gt;Node10 -->
<g id="edge9" class="edge">
<title>Node2&#45;&gt;Node10</title>
<path fill="none" stroke="midnightblue" d="M466.91,-388.63C505.4,-380.48 553.59,-366.44 591.5,-343 613.17,-329.6 608.81,-314.35 630.5,-301 641.64,-294.14 705.73,-276.25 757.24,-262.51"/>
<polygon fill="midnightblue" stroke="midnightblue" points="465.94,-385.26 456.84,-390.68 467.34,-392.12 465.94,-385.26"/>
</g>
<!-- Node12 -->
<g id="node12" class="node">
<title>Node12</title>
<g id="a_node12"><a xlink:href="_camera_8cpp.html" target="_top" xlink:title=" ">
<polygon fill="white" stroke="black" points="10,-307 10,-337 135,-337 135,-307 10,-307"/>
<text text-anchor="start" x="18" y="-325" font-family="Helvetica,sans-Serif" font-size="10.00">kryne&#45;engine/src/Camera</text>
<text text-anchor="middle" x="72.5" y="-314" font-family="Helvetica,sans-Serif" font-size="10.00">/Camera.cpp</text>
</a>
</g>
</g>
<!-- Node2&#45;&gt;Node12 -->
<g id="edge13" class="edge">
<title>Node2&#45;&gt;Node12</title>
<path fill="none" stroke="midnightblue" d="M334.2,-384.86C283.51,-373.9 211.96,-358.07 149.5,-343 141.71,-341.12 133.5,-339.07 125.46,-337.01"/>
<polygon fill="midnightblue" stroke="midnightblue" points="333.53,-388.3 344.05,-386.99 335.01,-381.46 333.53,-388.3"/>
</g>
<!-- Node13 -->
<g id="node13" class="node">
<title>Node13</title>
<g id="a_node13"><a xlink:href="_open_g_l_renderer_8cpp.html" target="_top" xlink:title=" ">
<polygon fill="white" stroke="black" points="1324,-0.5 1324,-30.5 1485,-30.5 1485,-0.5 1324,-0.5"/>
<text text-anchor="start" x="1332" y="-18.5" font-family="Helvetica,sans-Serif" font-size="10.00">kryne&#45;engine/src/Rendering</text>
<text text-anchor="middle" x="1404.5" y="-7.5" font-family="Helvetica,sans-Serif" font-size="10.00">/Renderers/OpenGLRenderer.cpp</text>
</a>
</g>
</g>
<!-- Node2&#45;&gt;Node13 -->
<g id="edge14" class="edge">
<title>Node2&#45;&gt;Node13</title>
<path fill="none" stroke="midnightblue" d="M394.59,-369.04C389.02,-338.11 381.5,-288.38 381.5,-245 381.5,-245 381.5,-245 381.5,-165 381.5,-69.94 1082.24,-30.51 1323.8,-19.74"/>
<polygon fill="midnightblue" stroke="midnightblue" points="391.21,-369.97 396.47,-379.16 398.09,-368.69 391.21,-369.97"/>
</g>
<!-- Node5 -->
<g id="node5" class="node">
<title>Node5</title>
<g id="a_node5"><a xlink:href="3_d_objects_8h.html" target="_top" xlink:title=" ">
<polygon fill="white" stroke="black" points="612,-229 612,-259 739,-259 739,-229 612,-229"/>
<text text-anchor="start" x="620" y="-247" font-family="Helvetica,sans-Serif" font-size="10.00">kryne&#45;engine/include</text>
<text text-anchor="middle" x="675.5" y="-236" font-family="Helvetica,sans-Serif" font-size="10.00">/KEModules/3DObjects.h</text>
</a>
</g>
</g>
<!-- Node4&#45;&gt;Node5 -->
<g id="edge4" class="edge">
<title>Node4&#45;&gt;Node5</title>
<path fill="none" stroke="midnightblue" d="M363.67,-309.88C426.94,-299.69 521.24,-283.41 602.5,-265 610.32,-263.23 618.55,-261.17 626.57,-259.05"/>
<polygon fill="midnightblue" stroke="midnightblue" points="363.11,-306.42 353.79,-311.46 364.21,-313.34 363.11,-306.42"/>
</g>
<!-- Node4&#45;&gt;Node6 -->
<g id="edge5" class="edge">
<title>Node4&#45;&gt;Node6</title>
<path fill="none" stroke="midnightblue" d="M242.37,-296.91C221.05,-286.46 196.42,-274.38 176.28,-264.51"/>
<polygon fill="midnightblue" stroke="midnightblue" points="241.06,-300.17 251.58,-301.43 244.15,-293.88 241.06,-300.17"/>
</g>
<!-- Node9 -->
<g id="node9" class="node">
<title>Node9</title>
<g id="a_node9"><a xlink:href="_mesh_8cpp.html" target="_top" xlink:title=" ">
<polygon fill="white" stroke="black" points="216,-229 216,-259 353,-259 353,-229 216,-229"/>
<text text-anchor="start" x="224" y="-247" font-family="Helvetica,sans-Serif" font-size="10.00">kryne&#45;engine/src/3DObjects</text>
<text text-anchor="middle" x="284.5" y="-236" font-family="Helvetica,sans-Serif" font-size="10.00">/Mesh.cpp</text>
</a>
</g>
</g>
<!-- Node4&#45;&gt;Node9 -->
<g id="edge8" class="edge">
<title>Node4&#45;&gt;Node9</title>
<path fill="none" stroke="midnightblue" d="M288.76,-291.28C287.75,-280.25 286.64,-268.25 285.81,-259.23"/>
<polygon fill="midnightblue" stroke="midnightblue" points="285.29,-291.79 289.7,-301.43 292.27,-291.15 285.29,-291.79"/>
</g>
<!-- Node7 -->
<g id="node7" class="node">
<title>Node7</title>
<g id="a_node7"><a xlink:href="_rendering_8h.html" target="_top" xlink:title=" ">
<polygon fill="white" stroke="black" points="0,-151 0,-181 125,-181 125,-151 0,-151"/>
<text text-anchor="start" x="8" y="-169" font-family="Helvetica,sans-Serif" font-size="10.00">kryne&#45;engine/include</text>
<text text-anchor="middle" x="62.5" y="-158" font-family="Helvetica,sans-Serif" font-size="10.00">/KEModules/Rendering.h</text>
</a>
</g>
</g>
<!-- Node6&#45;&gt;Node7 -->
<g id="edge6" class="edge">
<title>Node6&#45;&gt;Node7</title>
<path fill="none" stroke="midnightblue" d="M110.2,-215.99C98.77,-204.25 85.86,-190.99 76.35,-181.23"/>
<polygon fill="midnightblue" stroke="midnightblue" points="107.96,-218.71 117.44,-223.43 112.97,-213.82 107.96,-218.71"/>
</g>
<!-- Node8 -->
<g id="node8" class="node">
<title>Node8</title>
<g id="a_node8"><a xlink:href="_renderer_8cpp.html" target="_top" xlink:title=" ">
<polygon fill="white" stroke="black" points="143,-151 143,-181 278,-181 278,-151 143,-151"/>
<text text-anchor="start" x="151" y="-169" font-family="Helvetica,sans-Serif" font-size="10.00">kryne&#45;engine/src/Rendering</text>
<text text-anchor="middle" x="210.5" y="-158" font-family="Helvetica,sans-Serif" font-size="10.00">/Renderer.cpp</text>
</a>
</g>
</g>
<!-- Node6&#45;&gt;Node8 -->
<g id="edge7" class="edge">
<title>Node6&#45;&gt;Node8</title>
<path fill="none" stroke="midnightblue" d="M162.8,-215.99C174.23,-204.25 187.14,-190.99 196.65,-181.23"/>
<polygon fill="midnightblue" stroke="midnightblue" points="160.03,-213.82 155.56,-223.43 165.04,-218.71 160.03,-213.82"/>
</g>
<!-- Node10&#45;&gt;Node3 -->
<g id="edge10" class="edge">
<title>Node10&#45;&gt;Node3</title>
<path fill="none" stroke="midnightblue" d="M749.89,-220.5C707.57,-207.73 655.91,-192.15 619.27,-181.11"/>
<polygon fill="midnightblue" stroke="midnightblue" points="749.02,-223.89 759.6,-223.43 751.04,-217.19 749.02,-223.89"/>
</g>
<!-- Node11 -->
<g id="node11" class="node">
<title>Node11</title>
<g id="a_node11"><a xlink:href="_orbit_controls_component_8cpp.html" target="_top" xlink:title=" ">
<polygon fill="white" stroke="black" points="747,-151 747,-181 892,-181 892,-151 747,-151"/>
<text text-anchor="start" x="755" y="-169" font-family="Helvetica,sans-Serif" font-size="10.00">kryne&#45;engine/src/Camera</text>
<text text-anchor="middle" x="819.5" y="-158" font-family="Helvetica,sans-Serif" font-size="10.00">/OrbitControlsComponent.cpp</text>
</a>
</g>
</g>
<!-- Node10&#45;&gt;Node11 -->
<g id="edge11" class="edge">
<title>Node10&#45;&gt;Node11</title>
<path fill="none" stroke="midnightblue" d="M822.54,-213.28C821.82,-202.25 821.03,-190.25 820.44,-181.23"/>
<polygon fill="midnightblue" stroke="midnightblue" points="819.06,-213.68 823.21,-223.43 826.05,-213.22 819.06,-213.68"/>
</g>
<!-- Node15 -->
<g id="node15" class="node">
<title>Node15</title>
<g id="a_node15"><a xlink:href="_render_mesh_8h.html" target="_top" xlink:title=" ">
<polygon fill="white" stroke="black" points="1200.5,-591.5 1200.5,-632.5 1322.5,-632.5 1322.5,-591.5 1200.5,-591.5"/>
<text text-anchor="start" x="1208.5" y="-620.5" font-family="Helvetica,sans-Serif" font-size="10.00">kryne&#45;engine/include</text>
<text text-anchor="start" x="1208.5" y="-609.5" font-family="Helvetica,sans-Serif" font-size="10.00">/kryne&#45;engine/Rendering</text>
<text text-anchor="middle" x="1261.5" y="-598.5" font-family="Helvetica,sans-Serif" font-size="10.00">/RenderMesh.h</text>
</a>
</g>
</g>
<!-- Node14&#45;&gt;Node15 -->
<g id="edge16" class="edge">
<title>Node14&#45;&gt;Node15</title>
<path fill="none" stroke="midnightblue" d="M855.83,-677.63C949.43,-662.72 1112.11,-636.8 1200.35,-622.74"/>
<polygon fill="midnightblue" stroke="midnightblue" points="855.21,-674.19 845.88,-679.22 856.31,-681.1 855.21,-674.19"/>
</g>
<!-- Node15&#45;&gt;Node13 -->
<g id="edge58" class="edge">
<title>Node15&#45;&gt;Node13</title>
<path fill="none" stroke="midnightblue" d="M1333.07,-603.79C1458.65,-589.13 1705.5,-550.52 1705.5,-473.5 1705.5,-473.5 1705.5,-473.5 1705.5,-165 1705.5,-120.55 1717.3,-98.06 1685.5,-67 1657.62,-39.77 1557.97,-26.94 1485.23,-21.09"/>
<polygon fill="midnightblue" stroke="midnightblue" points="1332.31,-600.35 1322.77,-604.97 1333.1,-607.3 1332.31,-600.35"/>
</g>
<!-- Node16 -->
<g id="node16" class="node">
<title>Node16</title>
<g id="a_node16"><a xlink:href="_process_8h.html" target="_top" xlink:title=" ">
<polygon fill="white" stroke="black" points="861.5,-524.5 861.5,-554.5 1007.5,-554.5 1007.5,-524.5 861.5,-524.5"/>
<text text-anchor="start" x="869.5" y="-542.5" font-family="Helvetica,sans-Serif" font-size="10.00">kryne&#45;engine/include</text>
<text text-anchor="middle" x="934.5" y="-531.5" font-family="Helvetica,sans-Serif" font-size="10.00">/kryne&#45;engine/Core/Process.h</text>
</a>
</g>
</g>
<!-- Node15&#45;&gt;Node16 -->
<g id="edge17" class="edge">
<title>Node15&#45;&gt;Node16</title>
<path fill="none" stroke="midnightblue" d="M1190.4,-595.67C1133.6,-583.43 1054.66,-566.41 999.52,-554.52"/>
<polygon fill="midnightblue" stroke="midnightblue" points="1189.86,-599.14 1200.38,-597.82 1191.34,-592.29 1189.86,-599.14"/>
</g>
<!-- Node21 -->
<g id="node21" class="node">
<title>Node21</title>
<g id="a_node21"><a xlink:href="_loop_renderer_8h.html" target="_top" xlink:title=" ">
<polygon fill="white" stroke="black" points="1473.5,-301.5 1473.5,-342.5 1595.5,-342.5 1595.5,-301.5 1473.5,-301.5"/>
<text text-anchor="start" x="1481.5" y="-330.5" font-family="Helvetica,sans-Serif" font-size="10.00">kryne&#45;engine/include</text>
<text text-anchor="start" x="1481.5" y="-319.5" font-family="Helvetica,sans-Serif" font-size="10.00">/kryne&#45;engine/Rendering</text>
<text text-anchor="middle" x="1534.5" y="-308.5" font-family="Helvetica,sans-Serif" font-size="10.00">/LoopRenderer.h</text>
</a>
</g>
</g>
<!-- Node15&#45;&gt;Node21 -->
<g id="edge57" class="edge">
<title>Node15&#45;&gt;Node21</title>
<path fill="none" stroke="midnightblue" d="M1332.04,-587.51C1350.71,-579.15 1369.97,-568.4 1385.5,-555 1457.8,-492.6 1507.9,-386.56 1526.49,-342.8"/>
<polygon fill="midnightblue" stroke="midnightblue" points="1330.45,-584.38 1322.65,-591.55 1333.22,-590.82 1330.45,-584.38"/>
</g>
<!-- Node39 -->
<g id="node39" class="node">
<title>Node39</title>
<g id="a_node39"><a xlink:href="_render_mesh_8cpp.html" target="_top" xlink:title=" ">
<polygon fill="white" stroke="black" points="1242,-524.5 1242,-554.5 1377,-554.5 1377,-524.5 1242,-524.5"/>
<text text-anchor="start" x="1250" y="-542.5" font-family="Helvetica,sans-Serif" font-size="10.00">kryne&#45;engine/src/Rendering</text>
<text text-anchor="middle" x="1309.5" y="-531.5" font-family="Helvetica,sans-Serif" font-size="10.00">/RenderMesh.cpp</text>
</a>
</g>
</g>
<!-- Node15&#45;&gt;Node39 -->
<g id="edge59" class="edge">
<title>Node15&#45;&gt;Node39</title>
<path fill="none" stroke="midnightblue" d="M1280.67,-582.85C1287.19,-573.26 1294.22,-562.94 1299.7,-554.89"/>
<polygon fill="midnightblue" stroke="midnightblue" points="1277.61,-581.13 1274.87,-591.36 1283.39,-585.07 1277.61,-581.13"/>
</g>
<!-- Node17 -->
<g id="node17" class="node">
<title>Node17</title>
<g id="a_node17"><a xlink:href="_entity_8h.html" target="_top" xlink:title=" ">
<polygon fill="white" stroke="black" points="867,-457.5 867,-487.5 1002,-487.5 1002,-457.5 867,-457.5"/>
<text text-anchor="start" x="875" y="-475.5" font-family="Helvetica,sans-Serif" font-size="10.00">kryne&#45;engine/include</text>
<text text-anchor="middle" x="934.5" y="-464.5" font-family="Helvetica,sans-Serif" font-size="10.00">/kryne&#45;engine/Core/Entity.h</text>
</a>
</g>
</g>
<!-- Node16&#45;&gt;Node17 -->
<g id="edge18" class="edge">
<title>Node16&#45;&gt;Node17</title>
<path fill="none" stroke="midnightblue" d="M927.95,-514.4C927.51,-505.37 927.8,-495.41 928.83,-487.58"/>
<polygon fill="midnightblue" stroke="midnightblue" points="924.47,-514.74 928.82,-524.4 931.44,-514.13 924.47,-514.74"/>
</g>
<!-- Node33 -->
<g id="node33" class="node">
<title>Node33</title>
<g id="a_node33"><a xlink:href="_system_8h.html" target="_top" xlink:title=" ">
<polygon fill="white" stroke="black" points="624,-385 624,-415 767,-415 767,-385 624,-385"/>
<text text-anchor="start" x="632" y="-403" font-family="Helvetica,sans-Serif" font-size="10.00">kryne&#45;engine/include</text>
<text text-anchor="middle" x="695.5" y="-392" font-family="Helvetica,sans-Serif" font-size="10.00">/kryne&#45;engine/Core/System.h</text>
</a>
</g>
</g>
<!-- Node16&#45;&gt;Node33 -->
<g id="edge55" class="edge">
<title>Node16&#45;&gt;Node33</title>
<path fill="none" stroke="midnightblue" d="M896.71,-519.54C845.41,-491.59 755.88,-439.99 715.74,-415.12"/>
<polygon fill="midnightblue" stroke="midnightblue" points="895.06,-522.62 905.52,-524.3 898.39,-516.47 895.06,-522.62"/>
</g>
<!-- Node38 -->
<g id="node38" class="node">
<title>Node38</title>
<g id="a_node38"><a xlink:href="_process_8cpp.html" target="_top" xlink:title=" ">
<polygon fill="white" stroke="black" points="1020.5,-457.5 1020.5,-487.5 1132.5,-487.5 1132.5,-457.5 1020.5,-457.5"/>
<text text-anchor="start" x="1028.5" y="-475.5" font-family="Helvetica,sans-Serif" font-size="10.00">kryne&#45;engine/src/Core</text>
<text text-anchor="middle" x="1076.5" y="-464.5" font-family="Helvetica,sans-Serif" font-size="10.00">/Process.cpp</text>
</a>
</g>
</g>
<!-- Node16&#45;&gt;Node38 -->
<g id="edge56" class="edge">
<title>Node16&#45;&gt;Node38</title>
<path fill="none" stroke="midnightblue" d="M974.63,-520.13C997.19,-509.8 1024.92,-497.11 1045.75,-487.58"/>
<polygon fill="midnightblue" stroke="midnightblue" points="972.95,-517.05 965.31,-524.4 975.86,-523.42 972.95,-517.05"/>
</g>
<!-- Node17&#45;&gt;Node2 -->
<g id="edge37" class="edge">
<title>Node17&#45;&gt;Node2</title>
<path fill="none" stroke="midnightblue" d="M856.93,-461.26C748.06,-446.89 552.53,-421.07 456.64,-408.41"/>
<polygon fill="midnightblue" stroke="midnightblue" points="856.5,-464.73 866.87,-462.57 857.41,-457.79 856.5,-464.73"/>
</g>
<!-- Node17&#45;&gt;Node16 -->
<g id="edge47" class="edge">
<title>Node17&#45;&gt;Node16</title>
<path fill="none" stroke="midnightblue" d="M941.04,-497.57C941.49,-506.6 941.21,-516.56 940.18,-524.4"/>
<polygon fill="midnightblue" stroke="midnightblue" points="944.53,-497.24 940.17,-487.58 937.55,-497.84 944.53,-497.24"/>
</g>
<!-- Node18 -->
<g id="node18" class="node">
<title>Node18</title>
<g id="a_node18"><a xlink:href="_scene_8h.html" target="_top" xlink:title=" ">
<polygon fill="white" stroke="black" points="971.5,-379.5 971.5,-420.5 1095.5,-420.5 1095.5,-379.5 971.5,-379.5"/>
<text text-anchor="start" x="979.5" y="-408.5" font-family="Helvetica,sans-Serif" font-size="10.00">kryne&#45;engine/include</text>
<text text-anchor="start" x="979.5" y="-397.5" font-family="Helvetica,sans-Serif" font-size="10.00">/kryne&#45;engine/3DObjects</text>
<text text-anchor="middle" x="1033.5" y="-386.5" font-family="Helvetica,sans-Serif" font-size="10.00">/Scene.h</text>
</a>
</g>
</g>
<!-- Node17&#45;&gt;Node18 -->
<g id="edge19" class="edge">
<title>Node17&#45;&gt;Node18</title>
<path fill="none" stroke="midnightblue" d="M962.99,-451.21C976.51,-441.58 992.6,-430.12 1005.99,-420.59"/>
<polygon fill="midnightblue" stroke="midnightblue" points="960.65,-448.58 954.53,-457.23 964.71,-454.28 960.65,-448.58"/>
</g>
<!-- Node19 -->
<g id="node19" class="node">
<title>Node19</title>
<g id="a_node19"><a xlink:href="_transform_8h.html" target="_top" xlink:title=" ">
<polygon fill="white" stroke="black" points="807.5,-301.5 807.5,-342.5 931.5,-342.5 931.5,-301.5 807.5,-301.5"/>
<text text-anchor="start" x="815.5" y="-330.5" font-family="Helvetica,sans-Serif" font-size="10.00">kryne&#45;engine/include</text>
<text text-anchor="start" x="815.5" y="-319.5" font-family="Helvetica,sans-Serif" font-size="10.00">/kryne&#45;engine/3DObjects</text>
<text text-anchor="middle" x="869.5" y="-308.5" font-family="Helvetica,sans-Serif" font-size="10.00">/Transform.h</text>
</a>
</g>
</g>
<!-- Node17&#45;&gt;Node19 -->
<g id="edge36" class="edge">
<title>Node17&#45;&gt;Node19</title>
<path fill="none" stroke="midnightblue" d="M921.97,-447.54C915.64,-428.44 907.97,-401.3 897.5,-379 891.51,-366.24 882.91,-353.03 876.47,-342.65"/>
<polygon fill="midnightblue" stroke="midnightblue" points="918.76,-448.96 925.37,-457.24 925.37,-446.65 918.76,-448.96"/>
</g>
<!-- Node27 -->
<g id="node27" class="node">
<title>Node27</title>
<g id="a_node27"><a xlink:href="_component_8h.html" target="_top" xlink:title=" ">
<polygon fill="white" stroke="black" points="1134,-385 1134,-415 1293,-415 1293,-385 1134,-385"/>
<text text-anchor="start" x="1142" y="-403" font-family="Helvetica,sans-Serif" font-size="10.00">kryne&#45;engine/include</text>
<text text-anchor="middle" x="1213.5" y="-392" font-family="Helvetica,sans-Serif" font-size="10.00">/kryne&#45;engine/Core/Component.h</text>
</a>
</g>
</g>
<!-- Node17&#45;&gt;Node27 -->
<g id="edge38" class="edge">
<title>Node17&#45;&gt;Node27</title>
<path fill="none" stroke="midnightblue" d="M994.39,-454.89C1040.95,-442.79 1105.22,-426.58 1152.15,-415.11"/>
<polygon fill="midnightblue" stroke="midnightblue" points="993.23,-451.58 984.44,-457.49 995,-458.35 993.23,-451.58"/>
</g>
<!-- Node17&#45;&gt;Node33 -->
<g id="edge48" class="edge">
<title>Node17&#45;&gt;Node33</title>
<path fill="none" stroke="midnightblue" d="M877.17,-454.59C836.27,-442.52 781.89,-426.48 743.32,-415.11"/>
<polygon fill="midnightblue" stroke="midnightblue" points="876.41,-458.01 887,-457.49 878.39,-451.3 876.41,-458.01"/>
</g>
<!-- Node37 -->
<g id="node37" class="node">
<title>Node37</title>
<g id="a_node37"><a xlink:href="_entity_8cpp.html" target="_top" xlink:title=" ">
<polygon fill="white" stroke="black" points="785.5,-385 785.5,-415 897.5,-415 897.5,-385 785.5,-385"/>
<text text-anchor="start" x="793.5" y="-403" font-family="Helvetica,sans-Serif" font-size="10.00">kryne&#45;engine/src/Core</text>
<text text-anchor="middle" x="841.5" y="-392" font-family="Helvetica,sans-Serif" font-size="10.00">/Entity.cpp</text>
</a>
</g>
</g>
<!-- Node17&#45;&gt;Node37 -->
<g id="edge54" class="edge">
<title>Node17&#45;&gt;Node37</title>
<path fill="none" stroke="midnightblue" d="M907.6,-451.11C892.33,-439.53 873.59,-425.33 859.97,-415"/>
<polygon fill="midnightblue" stroke="midnightblue" points="905.6,-453.98 915.68,-457.23 909.83,-448.4 905.6,-453.98"/>
</g>
<!-- Node18&#45;&gt;Node5 -->
<g id="edge20" class="edge">
<title>Node18&#45;&gt;Node5</title>
<path fill="none" stroke="midnightblue" d="M1006.66,-372.12C997.63,-362.96 987.56,-352.61 978.5,-343 961.23,-324.68 962.47,-313.3 940.5,-301 864.74,-258.59 833.11,-284.49 748.5,-265 740.69,-263.2 732.46,-261.12 724.44,-259"/>
<polygon fill="midnightblue" stroke="midnightblue" points="1004.44,-374.85 1013.96,-379.49 1009.41,-369.92 1004.44,-374.85"/>
</g>
<!-- Node18&#45;&gt;Node6 -->
<g id="edge34" class="edge">
<title>Node18&#45;&gt;Node6</title>
<path fill="none" stroke="midnightblue" d="M961.03,-386.26C943.24,-383.5 924.22,-380.86 906.5,-379 830.59,-371.05 288.5,-377.66 220.5,-343 199.1,-332.09 202.06,-319.3 186.5,-301 176.12,-288.79 164.17,-275.38 154.55,-264.75"/>
<polygon fill="midnightblue" stroke="midnightblue" points="960.91,-389.78 971.33,-387.89 962.01,-382.87 960.91,-389.78"/>
</g>
<!-- Node18&#45;&gt;Node19 -->
<g id="edge21" class="edge">
<title>Node18&#45;&gt;Node19</title>
<path fill="none" stroke="midnightblue" d="M982.12,-375.19C959.43,-364.67 933.09,-352.47 911.59,-342.51"/>
<polygon fill="midnightblue" stroke="midnightblue" points="980.72,-378.4 991.27,-379.43 983.66,-372.05 980.72,-378.4"/>
</g>
<!-- Node18&#45;&gt;Node21 -->
<g id="edge25" class="edge">
<title>Node18&#45;&gt;Node21</title>
<path fill="none" stroke="midnightblue" d="M1105.85,-382.34C1112.14,-381.12 1118.42,-379.99 1124.5,-379 1274.49,-354.65 1315.33,-371.98 1464.5,-343 1467.35,-342.45 1470.26,-341.83 1473.19,-341.17"/>
<polygon fill="midnightblue" stroke="midnightblue" points="1105.1,-378.92 1095.98,-384.31 1106.48,-385.78 1105.1,-378.92"/>
</g>
<!-- Node26 -->
<g id="node26" class="node">
<title>Node26</title>
<g id="a_node26"><a xlink:href="_scene_8cpp.html" target="_top" xlink:title=" ">
<polygon fill="white" stroke="black" points="988,-307 988,-337 1125,-337 1125,-307 988,-307"/>
<text text-anchor="start" x="996" y="-325" font-family="Helvetica,sans-Serif" font-size="10.00">kryne&#45;engine/src/3DObjects</text>
<text text-anchor="middle" x="1056.5" y="-314" font-family="Helvetica,sans-Serif" font-size="10.00">/Scene.cpp</text>
</a>
</g>
</g>
<!-- Node18&#45;&gt;Node26 -->
<g id="edge35" class="edge">
<title>Node18&#45;&gt;Node26</title>
<path fill="none" stroke="midnightblue" d="M1042.39,-369.62C1045.76,-358.5 1049.44,-346.34 1052.19,-337.23"/>
<polygon fill="midnightblue" stroke="midnightblue" points="1038.97,-368.84 1039.42,-379.43 1045.67,-370.87 1038.97,-368.84"/>
</g>
<!-- Node19&#45;&gt;Node5 -->
<g id="edge22" class="edge">
<title>Node19&#45;&gt;Node5</title>
<path fill="none" stroke="midnightblue" d="M810.21,-297.77C777.98,-285.15 739.17,-269.94 711.51,-259.11"/>
<polygon fill="midnightblue" stroke="midnightblue" points="808.95,-301.04 819.54,-301.43 811.51,-294.52 808.95,-301.04"/>
</g>
<!-- Node19&#45;&gt;Node17 -->
<g id="edge23" class="edge">
<title>Node19&#45;&gt;Node17</title>
<path fill="none" stroke="midnightblue" d="M898.64,-350.64C904.92,-359.4 910.96,-369.33 915.5,-379 927.91,-405.43 936.38,-438.66 937.71,-457.24"/>
<polygon fill="midnightblue" stroke="midnightblue" points="901.4,-348.5 892.57,-342.65 895.83,-352.73 901.4,-348.5"/>
</g>
<!-- Node20 -->
<g id="node20" class="node">
<title>Node20</title>
<g id="a_node20"><a xlink:href="_transform_8cpp.html" target="_top" xlink:title=" ">
<polygon fill="white" stroke="black" points="1091,-229 1091,-259 1228,-259 1228,-229 1091,-229"/>
<text text-anchor="start" x="1099" y="-247" font-family="Helvetica,sans-Serif" font-size="10.00">kryne&#45;engine/src/3DObjects</text>
<text text-anchor="middle" x="1159.5" y="-236" font-family="Helvetica,sans-Serif" font-size="10.00">/Transform.cpp</text>
</a>
</g>
</g>
<!-- Node19&#45;&gt;Node20 -->
<g id="edge24" class="edge">
<title>Node19&#45;&gt;Node20</title>
<path fill="none" stroke="midnightblue" d="M941.65,-302.09C992.49,-288.77 1059.48,-271.21 1105.68,-259.11"/>
<polygon fill="midnightblue" stroke="midnightblue" points="940.5,-298.78 931.71,-304.7 942.27,-305.55 940.5,-298.78"/>
</g>
<!-- Node22 -->
<g id="node22" class="node">
<title>Node22</title>
<g id="a_node22"><a xlink:href="_graphic_context_8h.html" target="_top" xlink:title=" ">
<polygon fill="white" stroke="black" points="1450,-223.5 1450,-264.5 1619,-264.5 1619,-223.5 1450,-223.5"/>
<text text-anchor="start" x="1458" y="-252.5" font-family="Helvetica,sans-Serif" font-size="10.00">kryne&#45;engine/include</text>
<text text-anchor="start" x="1458" y="-241.5" font-family="Helvetica,sans-Serif" font-size="10.00">/kryne&#45;engine/Core/GraphicContext</text>
<text text-anchor="middle" x="1534.5" y="-230.5" font-family="Helvetica,sans-Serif" font-size="10.00">/GraphicContext.h</text>
</a>
</g>
</g>
<!-- Node21&#45;&gt;Node22 -->
<g id="edge26" class="edge">
<title>Node21&#45;&gt;Node22</title>
<path fill="none" stroke="midnightblue" d="M1534.5,-291.3C1534.5,-282.3 1534.5,-272.65 1534.5,-264.51"/>
<polygon fill="midnightblue" stroke="midnightblue" points="1531,-291.43 1534.5,-301.43 1538,-291.43 1531,-291.43"/>
</g>
<!-- Node24 -->
<g id="node24" class="node">
<title>Node24</title>
<g id="a_node24"><a xlink:href="_open_g_l_renderer_8h.html" target="_top" xlink:title=" ">
<polygon fill="white" stroke="black" points="1329.5,-67.5 1329.5,-108.5 1479.5,-108.5 1479.5,-67.5 1329.5,-67.5"/>
<text text-anchor="start" x="1337.5" y="-96.5" font-family="Helvetica,sans-Serif" font-size="10.00">kryne&#45;engine/include</text>
<text text-anchor="start" x="1337.5" y="-85.5" font-family="Helvetica,sans-Serif" font-size="10.00">/kryne&#45;engine/Rendering</text>
<text text-anchor="middle" x="1404.5" y="-74.5" font-family="Helvetica,sans-Serif" font-size="10.00">/Renderers/OpenGLRenderer.h</text>
</a>
</g>
</g>
<!-- Node21&#45;&gt;Node24 -->
<g id="edge33" class="edge">
<title>Node21&#45;&gt;Node24</title>
<path fill="none" stroke="midnightblue" d="M1476.17,-296.41C1462.67,-288.22 1449.61,-277.83 1440.5,-265 1406.27,-216.82 1402.99,-143.53 1403.6,-108.7"/>
<polygon fill="midnightblue" stroke="midnightblue" points="1474.65,-299.57 1485.07,-301.47 1478.11,-293.48 1474.65,-299.57"/>
</g>
<!-- Node22&#45;&gt;Node16 -->
<g id="edge32" class="edge">
<title>Node22&#45;&gt;Node16</title>
<path fill="none" stroke="midnightblue" d="M1579.01,-270.79C1589.26,-279.03 1598.81,-289.16 1604.5,-301 1612.59,-317.82 1615.55,-327.96 1604.5,-343 1532.94,-440.4 1166.02,-504.72 1007.54,-528.37"/>
<polygon fill="midnightblue" stroke="midnightblue" points="1580.81,-267.76 1570.7,-264.58 1576.62,-273.37 1580.81,-267.76"/>
</g>
<!-- Node23 -->
<g id="node23" class="node">
<title>Node23</title>
<g id="a_node23"><a xlink:href="_open_g_l_context_8h.html" target="_top" xlink:title=" ">
<polygon fill="white" stroke="black" points="1439,-145.5 1439,-186.5 1608,-186.5 1608,-145.5 1439,-145.5"/>
<text text-anchor="start" x="1447" y="-174.5" font-family="Helvetica,sans-Serif" font-size="10.00">kryne&#45;engine/include</text>
<text text-anchor="start" x="1447" y="-163.5" font-family="Helvetica,sans-Serif" font-size="10.00">/kryne&#45;engine/Core/GraphicContext</text>
<text text-anchor="middle" x="1523.5" y="-152.5" font-family="Helvetica,sans-Serif" font-size="10.00">/OpenGLContext.h</text>
</a>
</g>
</g>
<!-- Node22&#45;&gt;Node23 -->
<g id="edge27" class="edge">
<title>Node22&#45;&gt;Node23</title>
<path fill="none" stroke="midnightblue" d="M1530.2,-213.3C1528.9,-204.3 1527.5,-194.65 1526.32,-186.51"/>
<polygon fill="midnightblue" stroke="midnightblue" points="1526.77,-214.03 1531.67,-223.43 1533.7,-213.03 1526.77,-214.03"/>
</g>
<!-- Node23&#45;&gt;Node24 -->
<g id="edge28" class="edge">
<title>Node23&#45;&gt;Node24</title>
<path fill="none" stroke="midnightblue" d="M1478.3,-140.2C1461.59,-129.92 1443.3,-118.16 1429.06,-108.51"/>
<polygon fill="midnightblue" stroke="midnightblue" points="1476.51,-143.21 1486.87,-145.43 1480.15,-137.23 1476.51,-143.21"/>
</g>
<!-- Node25 -->
<g id="node25" class="node">
<title>Node25</title>
<g id="a_node25"><a xlink:href="_open_g_l_context_8cpp.html" target="_top" xlink:title=" ">
<polygon fill="white" stroke="black" points="1498,-73 1498,-103 1677,-103 1677,-73 1498,-73"/>
<text text-anchor="start" x="1506" y="-91" font-family="Helvetica,sans-Serif" font-size="10.00">kryne&#45;engine/src/Core</text>
<text text-anchor="middle" x="1587.5" y="-80" font-family="Helvetica,sans-Serif" font-size="10.00">/GraphicContext/OpenGLContext.cpp</text>
</a>
</g>
</g>
<!-- Node23&#45;&gt;Node25 -->
<g id="edge31" class="edge">
<title>Node23&#45;&gt;Node25</title>
<path fill="none" stroke="midnightblue" d="M1546.53,-137.65C1556.34,-126 1567.38,-112.9 1575.52,-103.23"/>
<polygon fill="midnightblue" stroke="midnightblue" points="1543.75,-135.52 1539.98,-145.43 1549.1,-140.03 1543.75,-135.52"/>
</g>
<!-- Node24&#45;&gt;Node13 -->
<g id="edge30" class="edge">
<title>Node24&#45;&gt;Node13</title>
<path fill="none" stroke="midnightblue" d="M1404.5,-57.08C1404.5,-48.01 1404.5,-38.45 1404.5,-30.89"/>
<polygon fill="midnightblue" stroke="midnightblue" points="1401,-57.36 1404.5,-67.36 1408,-57.36 1401,-57.36"/>
</g>
<!-- Node24&#45;&gt;Node23 -->
<g id="edge29" class="edge">
<title>Node24&#45;&gt;Node23</title>
<path fill="none" stroke="midnightblue" d="M1449.59,-113.73C1466.29,-124.01 1484.58,-135.77 1498.84,-145.43"/>
<polygon fill="midnightblue" stroke="midnightblue" points="1451.38,-110.72 1441.02,-108.51 1447.74,-116.7 1451.38,-110.72"/>
</g>
<!-- Node27&#45;&gt;Node15 -->
<g id="edge45" class="edge">
<title>Node27&#45;&gt;Node15</title>
<path fill="none" stroke="midnightblue" d="M1213.87,-425.62C1214.93,-456.5 1218.8,-510.77 1232.5,-555 1236.42,-567.65 1243.11,-580.86 1249.08,-591.26"/>
<polygon fill="midnightblue" stroke="midnightblue" points="1217.36,-425.27 1213.59,-415.37 1210.36,-425.46 1217.36,-425.27"/>
</g>
<!-- Node27&#45;&gt;Node17 -->
<g id="edge44" class="edge">
<title>Node27&#45;&gt;Node17</title>
<path fill="none" stroke="midnightblue" d="M1153.52,-417.63C1106.84,-429.76 1042.4,-446.02 995.47,-457.49"/>
<polygon fill="midnightblue" stroke="midnightblue" points="1154.41,-421.02 1163.2,-415.11 1152.64,-414.24 1154.41,-421.02"/>
</g>
<!-- Node28 -->
<g id="node28" class="node">
<title>Node28</title>
<g id="a_node28"><a xlink:href="_logic_component_8h.html" target="_top" xlink:title=" ">
<polygon fill="white" stroke="black" points="1143.5,-307 1143.5,-337 1325.5,-337 1325.5,-307 1143.5,-307"/>
<text text-anchor="start" x="1151.5" y="-325" font-family="Helvetica,sans-Serif" font-size="10.00">kryne&#45;engine/include</text>
<text text-anchor="middle" x="1234.5" y="-314" font-family="Helvetica,sans-Serif" font-size="10.00">/kryne&#45;engine/Core/LogicComponent.h</text>
</a>
</g>
</g>
<!-- Node27&#45;&gt;Node28 -->
<g id="edge39" class="edge">
<title>Node27&#45;&gt;Node28</title>
<path fill="none" stroke="midnightblue" d="M1220.14,-374.96C1223.57,-362.55 1227.64,-347.83 1230.57,-337.23"/>
<polygon fill="midnightblue" stroke="midnightblue" points="1216.74,-374.13 1217.45,-384.7 1223.49,-376 1216.74,-374.13"/>
</g>
<!-- Node32 -->
<g id="node32" class="node">
<title>Node32</title>
<g id="a_node32"><a xlink:href="_component_8cpp.html" target="_top" xlink:title=" ">
<polygon fill="white" stroke="black" points="1343.5,-307 1343.5,-337 1455.5,-337 1455.5,-307 1343.5,-307"/>
<text text-anchor="start" x="1351.5" y="-325" font-family="Helvetica,sans-Serif" font-size="10.00">kryne&#45;engine/src/Core</text>
<text text-anchor="middle" x="1399.5" y="-314" font-family="Helvetica,sans-Serif" font-size="10.00">/Component.cpp</text>
</a>
</g>
</g>
<!-- Node27&#45;&gt;Node32 -->
<g id="edge46" class="edge">
<title>Node27&#45;&gt;Node32</title>
<path fill="none" stroke="midnightblue" d="M1257.44,-381.05C1290.36,-367.59 1334.79,-349.44 1365.14,-337.04"/>
<polygon fill="midnightblue" stroke="midnightblue" points="1255.98,-377.86 1248.05,-384.88 1258.63,-384.34 1255.98,-377.86"/>
</g>
<!-- Node28&#45;&gt;Node10 -->
<g id="edge40" class="edge">
<title>Node28&#45;&gt;Node10</title>
<path fill="none" stroke="midnightblue" d="M1155.73,-305.07C1148.22,-303.65 1140.72,-302.27 1133.5,-301 1030.31,-282.82 1003.08,-286.36 900.5,-265 897.56,-264.39 894.57,-263.73 891.55,-263.05"/>
<polygon fill="midnightblue" stroke="midnightblue" points="1155.09,-308.51 1165.57,-306.95 1156.41,-301.63 1155.09,-308.51"/>
</g>
<!-- Node29 -->
<g id="node29" class="node">
<title>Node29</title>
<g id="a_node29"><a xlink:href="_game_logic_components_runner_8h.html" target="_top" xlink:title=" ">
<polygon fill="white" stroke="black" points="910,-223.5 910,-264.5 1073,-264.5 1073,-223.5 910,-223.5"/>
<text text-anchor="start" x="918" y="-252.5" font-family="Helvetica,sans-Serif" font-size="10.00">kryne&#45;engine/include</text>
<text text-anchor="start" x="918" y="-241.5" font-family="Helvetica,sans-Serif" font-size="10.00">/kryne&#45;engine/Systems</text>
<text text-anchor="middle" x="991.5" y="-230.5" font-family="Helvetica,sans-Serif" font-size="10.00">/GameLogicComponentsRunner.h</text>
</a>
</g>
</g>
<!-- Node28&#45;&gt;Node29 -->
<g id="edge41" class="edge">
<title>Node28&#45;&gt;Node29</title>
<path fill="none" stroke="midnightblue" d="M1179.94,-303.94C1142.56,-292.25 1092.9,-276.71 1053.94,-264.53"/>
<polygon fill="midnightblue" stroke="midnightblue" points="1179.06,-307.33 1189.65,-306.97 1181.15,-300.65 1179.06,-307.33"/>
</g>
<!-- Node31 -->
<g id="node31" class="node">
<title>Node31</title>
<g id="a_node31"><a xlink:href="_logic_component_8cpp.html" target="_top" xlink:title=" ">
<polygon fill="white" stroke="black" points="1246.5,-229 1246.5,-259 1358.5,-259 1358.5,-229 1246.5,-229"/>
<text text-anchor="start" x="1254.5" y="-247" font-family="Helvetica,sans-Serif" font-size="10.00">kryne&#45;engine/src/Core</text>
<text text-anchor="middle" x="1302.5" y="-236" font-family="Helvetica,sans-Serif" font-size="10.00">/LogicComponent.cpp</text>
</a>
</g>
</g>
<!-- Node28&#45;&gt;Node31 -->
<g id="edge43" class="edge">
<title>Node28&#45;&gt;Node31</title>
<path fill="none" stroke="midnightblue" d="M1254.03,-299.17C1265.52,-286.33 1279.72,-270.47 1289.77,-259.23"/>
<polygon fill="midnightblue" stroke="midnightblue" points="1251.35,-296.92 1247.29,-306.7 1256.57,-301.59 1251.35,-296.92"/>
</g>
<!-- Node30 -->
<g id="node30" class="node">
<title>Node30</title>
<g id="a_node30"><a xlink:href="_game_logic_components_runner_8cpp.html" target="_top" xlink:title=" ">
<polygon fill="white" stroke="black" points="910,-151 910,-181 1083,-181 1083,-151 910,-151"/>
<text text-anchor="start" x="918" y="-169" font-family="Helvetica,sans-Serif" font-size="10.00">kryne&#45;engine/src/Systems</text>
<text text-anchor="middle" x="996.5" y="-158" font-family="Helvetica,sans-Serif" font-size="10.00">/GameLogicComponentsRunner.cpp</text>
</a>
</g>
</g>
<!-- Node29&#45;&gt;Node30 -->
<g id="edge42" class="edge">
<title>Node29&#45;&gt;Node30</title>
<path fill="none" stroke="midnightblue" d="M993.46,-213.28C994.18,-202.25 994.97,-190.25 995.56,-181.23"/>
<polygon fill="midnightblue" stroke="midnightblue" points="989.95,-213.22 992.79,-223.43 996.94,-213.68 989.95,-213.22"/>
</g>
<!-- Node33&#45;&gt;Node16 -->
<g id="edge49" class="edge">
<title>Node33&#45;&gt;Node16</title>
<path fill="none" stroke="midnightblue" d="M733.45,-420.05C784.72,-447.99 873.97,-499.43 914.13,-524.3"/>
<polygon fill="midnightblue" stroke="midnightblue" points="734.8,-416.8 724.34,-415.12 731.47,-422.96 734.8,-416.8"/>
</g>
<!-- Node33&#45;&gt;Node29 -->
<g id="edge50" class="edge">
<title>Node33&#45;&gt;Node29</title>
<path fill="none" stroke="midnightblue" d="M721.15,-378.17C733.38,-367.92 748.03,-355.17 760.5,-343 778.51,-325.42 777.16,-314.35 798.5,-301 817.54,-289.09 866.25,-275 909.96,-263.93"/>
<polygon fill="midnightblue" stroke="midnightblue" points="718.58,-375.75 713.12,-384.83 723.05,-381.13 718.58,-375.75"/>
</g>
<!-- Node34 -->
<g id="node34" class="node">
<title>Node34</title>
<g id="a_node34"><a xlink:href="_transform_update_system_8h.html" target="_top" xlink:title=" ">
<polygon fill="white" stroke="black" points="448,-301.5 448,-342.5 583,-342.5 583,-301.5 448,-301.5"/>
<text text-anchor="start" x="456" y="-330.5" font-family="Helvetica,sans-Serif" font-size="10.00">kryne&#45;engine/include</text>
<text text-anchor="start" x="456" y="-319.5" font-family="Helvetica,sans-Serif" font-size="10.00">/kryne&#45;engine/Systems</text>
<text text-anchor="middle" x="515.5" y="-308.5" font-family="Helvetica,sans-Serif" font-size="10.00">/TransformUpdateSystem.h</text>
</a>
</g>
</g>
<!-- Node33&#45;&gt;Node34 -->
<g id="edge51" class="edge">
<title>Node33&#45;&gt;Node34</title>
<path fill="none" stroke="midnightblue" d="M652.77,-380.96C625.44,-369.42 590.01,-354.46 561.99,-342.63"/>
<polygon fill="midnightblue" stroke="midnightblue" points="651.49,-384.22 662.07,-384.88 654.21,-377.77 651.49,-384.22"/>
</g>
<!-- Node36 -->
<g id="node36" class="node">
<title>Node36</title>
<g id="a_node36"><a xlink:href="_system_8cpp.html" target="_top" xlink:title=" ">
<polygon fill="white" stroke="black" points="639.5,-307 639.5,-337 751.5,-337 751.5,-307 639.5,-307"/>
<text text-anchor="start" x="647.5" y="-325" font-family="Helvetica,sans-Serif" font-size="10.00">kryne&#45;engine/src/Core</text>
<text text-anchor="middle" x="695.5" y="-314" font-family="Helvetica,sans-Serif" font-size="10.00">/System.cpp</text>
</a>
</g>
</g>
<!-- Node33&#45;&gt;Node36 -->
<g id="edge53" class="edge">
<title>Node33&#45;&gt;Node36</title>
<path fill="none" stroke="midnightblue" d="M695.5,-374.59C695.5,-362.26 695.5,-347.72 695.5,-337.23"/>
<polygon fill="midnightblue" stroke="midnightblue" points="692,-374.7 695.5,-384.7 699,-374.71 692,-374.7"/>
</g>
<!-- Node35 -->
<g id="node35" class="node">
<title>Node35</title>
<g id="a_node35"><a xlink:href="_transform_update_system_8cpp.html" target="_top" xlink:title=" ">
<polygon fill="white" stroke="black" points="447.5,-229 447.5,-259 593.5,-259 593.5,-229 447.5,-229"/>
<text text-anchor="start" x="455.5" y="-247" font-family="Helvetica,sans-Serif" font-size="10.00">kryne&#45;engine/src/Systems</text>
<text text-anchor="middle" x="520.5" y="-236" font-family="Helvetica,sans-Serif" font-size="10.00">/TransformUpdateSystem.cpp</text>
</a>
</g>
</g>
<!-- Node34&#45;&gt;Node35 -->
<g id="edge52" class="edge">
<title>Node34&#45;&gt;Node35</title>
<path fill="none" stroke="midnightblue" d="M517.46,-291.28C518.18,-280.25 518.97,-268.25 519.56,-259.23"/>
<polygon fill="midnightblue" stroke="midnightblue" points="513.95,-291.22 516.79,-301.43 520.94,-291.68 513.95,-291.22"/>
</g>
</g>
</svg>
