<?xml version="1.0" encoding="UTF-8" standalone="no"?>
<!DOCTYPE svg PUBLIC "-//W3C//DTD SVG 1.1//EN"
 "http://www.w3.org/Graphics/SVG/1.1/DTD/svg11.dtd">
<!-- Generated by graphviz version 2.44.1 (20200629.0846)
 -->
<!-- Title: kryne&#45;engine/include/kryne&#45;engine/Camera/ICamera.hpp Pages: 1 -->
<svg width="1771pt" height="797pt"
 viewBox="0.00 0.00 1770.50 797.00" xmlns="http://www.w3.org/2000/svg" xmlns:xlink="http://www.w3.org/1999/xlink">
<g id="graph0" class="graph" transform="scale(1 1) rotate(0) translate(4 793)">
<title>kryne&#45;engine/include/kryne&#45;engine/Camera/ICamera.hpp</title>
<polygon fill="white" stroke="transparent" points="-4,4 -4,-793 1766.5,-793 1766.5,4 -4,4"/>
<!-- Node1 -->
<g id="node1" class="node">
<title>Node1</title>
<g id="a_node1"><a xlink:title=" ">
<polygon fill="#bfbfbf" stroke="black" points="590.5,-747.5 590.5,-788.5 702.5,-788.5 702.5,-747.5 590.5,-747.5"/>
<text text-anchor="start" x="598.5" y="-776.5" font-family="Helvetica,sans-Serif" font-size="10.00">kryne&#45;engine/include</text>
<text text-anchor="start" x="598.5" y="-765.5" font-family="Helvetica,sans-Serif" font-size="10.00">/kryne&#45;engine/Camera</text>
<text text-anchor="middle" x="646.5" y="-754.5" font-family="Helvetica,sans-Serif" font-size="10.00">/ICamera.hpp</text>
</a>
</g>
</g>
<!-- Node2 -->
<g id="node2" class="node">
<title>Node2</title>
<g id="a_node2"><a xlink:href="kryne-engine_2_camera_2_camera_8h.html" target="_top" xlink:title=" ">
<polygon fill="white" stroke="black" points="407.5,-379.5 407.5,-420.5 519.5,-420.5 519.5,-379.5 407.5,-379.5"/>
<text text-anchor="start" x="415.5" y="-408.5" font-family="Helvetica,sans-Serif" font-size="10.00">kryne&#45;engine/include</text>
<text text-anchor="start" x="415.5" y="-397.5" font-family="Helvetica,sans-Serif" font-size="10.00">/kryne&#45;engine/Camera</text>
<text text-anchor="middle" x="463.5" y="-386.5" font-family="Helvetica,sans-Serif" font-size="10.00">/Camera.h</text>
</a>
</g>
</g>
<!-- Node1&#45;&gt;Node2 -->
<g id="edge1" class="edge">
<title>Node1&#45;&gt;Node2</title>
<path fill="none" stroke="midnightblue" d="M632.94,-737.91C620.02,-707.46 602.5,-657.91 602.5,-613 602.5,-613 602.5,-613 602.5,-538.5 602.5,-483.34 546.49,-442.81 505.58,-420.55"/>
<polygon fill="midnightblue" stroke="midnightblue" points="629.75,-739.33 636.95,-747.09 636.16,-736.53 629.75,-739.33"/>
</g>
<!-- Node14 -->
<g id="node14" class="node">
<title>Node14</title>
<g id="a_node14"><a xlink:href="_i_render_mesh_8hpp.html" target="_top" xlink:title=" ">
<polygon fill="white" stroke="black" points="784.5,-669.5 784.5,-710.5 906.5,-710.5 906.5,-669.5 784.5,-669.5"/>
<text text-anchor="start" x="792.5" y="-698.5" font-family="Helvetica,sans-Serif" font-size="10.00">kryne&#45;engine/include</text>
<text text-anchor="start" x="792.5" y="-687.5" font-family="Helvetica,sans-Serif" font-size="10.00">/kryne&#45;engine/Rendering</text>
<text text-anchor="middle" x="845.5" y="-676.5" font-family="Helvetica,sans-Serif" font-size="10.00">/IRenderMesh.hpp</text>
</a>
</g>
</g>
<!-- Node1&#45;&gt;Node14 -->
<g id="edge15" class="edge">
<title>Node1&#45;&gt;Node14</title>
<path fill="none" stroke="midnightblue" d="M707.38,-743.75C735.24,-733.11 767.87,-720.65 794.43,-710.51"/>
<polygon fill="midnightblue" stroke="midnightblue" points="705.84,-740.59 697.75,-747.43 708.34,-747.13 705.84,-740.59"/>
</g>
<!-- Node3 -->
<g id="node3" class="node">
<title>Node3</title>
<g id="a_node3"><a xlink:href="_k_e_modules_2_camera_8h.html" target="_top" xlink:title=" ">
<polygon fill="white" stroke="black" points="191,-151 191,-181 306,-181 306,-151 191,-151"/>
<text text-anchor="start" x="199" y="-169" font-family="Helvetica,sans-Serif" font-size="10.00">kryne&#45;engine/include</text>
<text text-anchor="middle" x="248.5" y="-158" font-family="Helvetica,sans-Serif" font-size="10.00">/KEModules/Camera.h</text>
</a>
</g>
</g>
<!-- Node2&#45;&gt;Node3 -->
<g id="edge2" class="edge">
<title>Node2&#45;&gt;Node3</title>
<path fill="none" stroke="midnightblue" d="M397.53,-391.49C325.66,-379.21 215.23,-347.26 172.5,-265 163.89,-248.44 164.08,-239.66 172.5,-223 181.89,-204.42 200.67,-190.5 217.21,-181.18"/>
<polygon fill="midnightblue" stroke="midnightblue" points="396.97,-394.94 407.4,-393.09 398.09,-388.03 396.97,-394.94"/>
</g>
<!-- Node4 -->
<g id="node4" class="node">
<title>Node4</title>
<g id="a_node4"><a xlink:href="_mesh_8h.html" target="_top" xlink:title=" ">
<polygon fill="white" stroke="black" points="292.5,-301.5 292.5,-342.5 416.5,-342.5 416.5,-301.5 292.5,-301.5"/>
<text text-anchor="start" x="300.5" y="-330.5" font-family="Helvetica,sans-Serif" font-size="10.00">kryne&#45;engine/include</text>
<text text-anchor="start" x="300.5" y="-319.5" font-family="Helvetica,sans-Serif" font-size="10.00">/kryne&#45;engine/3DObjects</text>
<text text-anchor="middle" x="354.5" y="-308.5" font-family="Helvetica,sans-Serif" font-size="10.00">/Mesh.h</text>
</a>
</g>
</g>
<!-- Node2&#45;&gt;Node4 -->
<g id="edge3" class="edge">
<title>Node2&#45;&gt;Node4</title>
<path fill="none" stroke="midnightblue" d="M427.12,-373.64C412.57,-363.49 396.07,-351.98 382.48,-342.51"/>
<polygon fill="midnightblue" stroke="midnightblue" points="425.23,-376.58 435.43,-379.43 429.23,-370.84 425.23,-376.58"/>
</g>
<!-- Node6 -->
<g id="node6" class="node">
<title>Node6</title>
<g id="a_node6"><a xlink:href="_renderer_8h.html" target="_top" xlink:title=" ">
<polygon fill="white" stroke="black" points="337.5,-223.5 337.5,-264.5 459.5,-264.5 459.5,-223.5 337.5,-223.5"/>
<text text-anchor="start" x="345.5" y="-252.5" font-family="Helvetica,sans-Serif" font-size="10.00">kryne&#45;engine/include</text>
<text text-anchor="start" x="345.5" y="-241.5" font-family="Helvetica,sans-Serif" font-size="10.00">/kryne&#45;engine/Rendering</text>
<text text-anchor="middle" x="398.5" y="-230.5" font-family="Helvetica,sans-Serif" font-size="10.00">/Renderer.h</text>
</a>
</g>
</g>
<!-- Node2&#45;&gt;Node6 -->
<g id="edge12" class="edge">
<title>Node2&#45;&gt;Node6</title>
<path fill="none" stroke="midnightblue" d="M452.83,-369.7C445.53,-350.1 435.4,-323.81 425.5,-301 420.17,-288.72 413.67,-275.2 408.38,-264.52"/>
<polygon fill="midnightblue" stroke="midnightblue" points="449.63,-371.13 456.38,-379.29 456.19,-368.7 449.63,-371.13"/>
</g>
<!-- Node10 -->
<g id="node10" class="node">
<title>Node10</title>
<g id="a_node10"><a xlink:href="_orbit_controls_component_8h.html" target="_top" xlink:title=" ">
<polygon fill="white" stroke="black" points="661.5,-223.5 661.5,-264.5 795.5,-264.5 795.5,-223.5 661.5,-223.5"/>
<text text-anchor="start" x="669.5" y="-252.5" font-family="Helvetica,sans-Serif" font-size="10.00">kryne&#45;engine/include</text>
<text text-anchor="start" x="669.5" y="-241.5" font-family="Helvetica,sans-Serif" font-size="10.00">/kryne&#45;engine/Camera</text>
<text text-anchor="middle" x="728.5" y="-230.5" font-family="Helvetica,sans-Serif" font-size="10.00">/OrbitControlsComponent.h</text>
</a>
</g>
</g>
<!-- Node2&#45;&gt;Node10 -->
<g id="edge9" class="edge">
<title>Node2&#45;&gt;Node10</title>
<path fill="none" stroke="midnightblue" d="M500.32,-373.6C530.66,-353.07 575.12,-323.93 615.5,-301 638.44,-287.97 664.82,-274.8 686.32,-264.51"/>
<polygon fill="midnightblue" stroke="midnightblue" points="498.07,-370.9 491.76,-379.41 502,-376.69 498.07,-370.9"/>
</g>
<!-- Node12 -->
<g id="node12" class="node">
<title>Node12</title>
<g id="a_node12"><a xlink:href="_camera_8cpp.html" target="_top" xlink:title=" ">
<polygon fill="white" stroke="black" points="0,-307 0,-337 125,-337 125,-307 0,-307"/>
<text text-anchor="start" x="8" y="-325" font-family="Helvetica,sans-Serif" font-size="10.00">kryne&#45;engine/src/Camera</text>
<text text-anchor="middle" x="62.5" y="-314" font-family="Helvetica,sans-Serif" font-size="10.00">/Camera.cpp</text>
</a>
</g>
</g>
<!-- Node2&#45;&gt;Node12 -->
<g id="edge13" class="edge">
<title>Node2&#45;&gt;Node12</title>
<path fill="none" stroke="midnightblue" d="M397.11,-389.18C331.4,-379.07 228.08,-362.13 139.5,-343 131.26,-341.22 122.58,-339.16 114.13,-337.04"/>
<polygon fill="midnightblue" stroke="midnightblue" points="396.91,-392.69 407.33,-390.74 397.97,-385.77 396.91,-392.69"/>
</g>
<!-- Node13 -->
<g id="node13" class="node">
<title>Node13</title>
<g id="a_node13"><a xlink:href="_open_g_l_renderer_8cpp.html" target="_top" xlink:title=" ">
<polygon fill="white" stroke="black" points="955,-0.5 955,-30.5 1116,-30.5 1116,-0.5 955,-0.5"/>
<text text-anchor="start" x="963" y="-18.5" font-family="Helvetica,sans-Serif" font-size="10.00">kryne&#45;engine/src/Rendering</text>
<text text-anchor="middle" x="1035.5" y="-7.5" font-family="Helvetica,sans-Serif" font-size="10.00">/Renderers/OpenGLRenderer.cpp</text>
</a>
</g>
</g>
<!-- Node2&#45;&gt;Node13 -->
<g id="edge14" class="edge">
<title>Node2&#45;&gt;Node13</title>
<path fill="none" stroke="midnightblue" d="M463.73,-369.1C465.49,-331.39 473.54,-266.27 506.5,-223 614.94,-80.66 835.52,-36.36 954.72,-22.62"/>
<polygon fill="midnightblue" stroke="midnightblue" points="460.22,-369.3 463.38,-379.42 467.22,-369.54 460.22,-369.3"/>
</g>
<!-- Node5 -->
<g id="node5" class="node">
<title>Node5</title>
<g id="a_node5"><a xlink:href="3_d_objects_8h.html" target="_top" xlink:title=" ">
<polygon fill="white" stroke="black" points="516,-229 516,-259 643,-259 643,-229 516,-229"/>
<text text-anchor="start" x="524" y="-247" font-family="Helvetica,sans-Serif" font-size="10.00">kryne&#45;engine/include</text>
<text text-anchor="middle" x="579.5" y="-236" font-family="Helvetica,sans-Serif" font-size="10.00">/KEModules/3DObjects.h</text>
</a>
</g>
</g>
<!-- Node4&#45;&gt;Node5 -->
<g id="edge4" class="edge">
<title>Node4&#45;&gt;Node5</title>
<path fill="none" stroke="midnightblue" d="M422.31,-298.1C459.87,-285.41 505.38,-270.04 537.74,-259.11"/>
<polygon fill="midnightblue" stroke="midnightblue" points="420.8,-294.91 412.44,-301.43 423.04,-301.54 420.8,-294.91"/>
</g>
<!-- Node4&#45;&gt;Node6 -->
<g id="edge5" class="edge">
<title>Node4&#45;&gt;Node6</title>
<path fill="none" stroke="midnightblue" d="M370.85,-292.76C376.3,-283.35 382.23,-273.1 387.21,-264.51"/>
<polygon fill="midnightblue" stroke="midnightblue" points="367.81,-291.02 365.83,-301.43 373.87,-294.53 367.81,-291.02"/>
</g>
<!-- Node9 -->
<g id="node9" class="node">
<title>Node9</title>
<g id="a_node9"><a xlink:href="_mesh_8cpp.html" target="_top" xlink:title=" ">
<polygon fill="white" stroke="black" points="182,-229 182,-259 319,-259 319,-229 182,-229"/>
<text text-anchor="start" x="190" y="-247" font-family="Helvetica,sans-Serif" font-size="10.00">kryne&#45;engine/src/3DObjects</text>
<text text-anchor="middle" x="250.5" y="-236" font-family="Helvetica,sans-Serif" font-size="10.00">/Mesh.cpp</text>
</a>
</g>
</g>
<!-- Node4&#45;&gt;Node9 -->
<g id="edge8" class="edge">
<title>Node4&#45;&gt;Node9</title>
<path fill="none" stroke="midnightblue" d="M319.36,-295.32C302.87,-283.27 283.84,-269.36 269.97,-259.23"/>
<polygon fill="midnightblue" stroke="midnightblue" points="317.58,-298.35 327.72,-301.43 321.71,-292.7 317.58,-298.35"/>
</g>
<!-- Node7 -->
<g id="node7" class="node">
<title>Node7</title>
<g id="a_node7"><a xlink:href="_rendering_8h.html" target="_top" xlink:title=" ">
<polygon fill="white" stroke="black" points="48,-151 48,-181 173,-181 173,-151 48,-151"/>
<text text-anchor="start" x="56" y="-169" font-family="Helvetica,sans-Serif" font-size="10.00">kryne&#45;engine/include</text>
<text text-anchor="middle" x="110.5" y="-158" font-family="Helvetica,sans-Serif" font-size="10.00">/KEModules/Rendering.h</text>
</a>
</g>
</g>
<!-- Node6&#45;&gt;Node7 -->
<g id="edge6" class="edge">
<title>Node6&#45;&gt;Node7</title>
<path fill="none" stroke="midnightblue" d="M327.8,-223.08C327.7,-223.05 327.6,-223.03 327.5,-223 262.88,-205.94 246.12,-204.06 181.5,-187 174.44,-185.14 167.01,-183.11 159.71,-181.09"/>
<polygon fill="midnightblue" stroke="midnightblue" points="326.78,-226.43 337.34,-225.64 328.59,-219.67 326.78,-226.43"/>
</g>
<!-- Node8 -->
<g id="node8" class="node">
<title>Node8</title>
<g id="a_node8"><a xlink:href="_renderer_8cpp.html" target="_top" xlink:title=" ">
<polygon fill="white" stroke="black" points="324,-151 324,-181 459,-181 459,-151 324,-151"/>
<text text-anchor="start" x="332" y="-169" font-family="Helvetica,sans-Serif" font-size="10.00">kryne&#45;engine/src/Rendering</text>
<text text-anchor="middle" x="391.5" y="-158" font-family="Helvetica,sans-Serif" font-size="10.00">/Renderer.cpp</text>
</a>
</g>
</g>
<!-- Node6&#45;&gt;Node8 -->
<g id="edge7" class="edge">
<title>Node6&#45;&gt;Node8</title>
<path fill="none" stroke="midnightblue" d="M395.76,-213.28C394.75,-202.25 393.64,-190.25 392.81,-181.23"/>
<polygon fill="midnightblue" stroke="midnightblue" points="392.29,-213.79 396.7,-223.43 399.27,-213.15 392.29,-213.79"/>
</g>
<!-- Node10&#45;&gt;Node3 -->
<g id="edge10" class="edge">
<title>Node10&#45;&gt;Node3</title>
<path fill="none" stroke="midnightblue" d="M651.81,-223.06C651.7,-223.04 651.6,-223.02 651.5,-223 503.31,-195.99 462.12,-216.97 314.5,-187 306.76,-185.43 298.62,-183.34 290.8,-181.1"/>
<polygon fill="midnightblue" stroke="midnightblue" points="650.95,-226.45 661.44,-224.96 652.31,-219.59 650.95,-226.45"/>
</g>
<!-- Node11 -->
<g id="node11" class="node">
<title>Node11</title>
<g id="a_node11"><a xlink:href="_orbit_controls_component_8cpp.html" target="_top" xlink:title=" ">
<polygon fill="white" stroke="black" points="656,-151 656,-181 801,-181 801,-151 656,-151"/>
<text text-anchor="start" x="664" y="-169" font-family="Helvetica,sans-Serif" font-size="10.00">kryne&#45;engine/src/Camera</text>
<text text-anchor="middle" x="728.5" y="-158" font-family="Helvetica,sans-Serif" font-size="10.00">/OrbitControlsComponent.cpp</text>
</a>
</g>
</g>
<!-- Node10&#45;&gt;Node11 -->
<g id="edge11" class="edge">
<title>Node10&#45;&gt;Node11</title>
<path fill="none" stroke="midnightblue" d="M728.5,-213.28C728.5,-202.25 728.5,-190.25 728.5,-181.23"/>
<polygon fill="midnightblue" stroke="midnightblue" points="725,-213.43 728.5,-223.43 732,-213.43 725,-213.43"/>
</g>
<!-- Node15 -->
<g id="node15" class="node">
<title>Node15</title>
<g id="a_node15"><a xlink:href="_render_mesh_8h.html" target="_top" xlink:title=" ">
<polygon fill="white" stroke="black" points="1110.5,-591.5 1110.5,-632.5 1232.5,-632.5 1232.5,-591.5 1110.5,-591.5"/>
<text text-anchor="start" x="1118.5" y="-620.5" font-family="Helvetica,sans-Serif" font-size="10.00">kryne&#45;engine/include</text>
<text text-anchor="start" x="1118.5" y="-609.5" font-family="Helvetica,sans-Serif" font-size="10.00">/kryne&#45;engine/Rendering</text>
<text text-anchor="middle" x="1171.5" y="-598.5" font-family="Helvetica,sans-Serif" font-size="10.00">/RenderMesh.h</text>
</a>
</g>
</g>
<!-- Node14&#45;&gt;Node15 -->
<g id="edge16" class="edge">
<title>Node14&#45;&gt;Node15</title>
<path fill="none" stroke="midnightblue" d="M916.63,-672.42C974.55,-658.92 1055.45,-640.06 1110.46,-627.23"/>
<polygon fill="midnightblue" stroke="midnightblue" points="915.76,-669.03 906.82,-674.7 917.35,-675.84 915.76,-669.03"/>
</g>
<!-- Node15&#45;&gt;Node13 -->
<g id="edge59" class="edge">
<title>Node15&#45;&gt;Node13</title>
<path fill="none" stroke="midnightblue" d="M1242.56,-609.31C1399.63,-603.66 1762.5,-579.16 1762.5,-473.5 1762.5,-473.5 1762.5,-473.5 1762.5,-165 1762.5,-34.25 1305.36,-17.48 1116.08,-16.15"/>
<polygon fill="midnightblue" stroke="midnightblue" points="1242.39,-605.82 1232.52,-609.66 1242.64,-612.81 1242.39,-605.82"/>
</g>
<!-- Node16 -->
<g id="node16" class="node">
<title>Node16</title>
<g id="a_node16"><a xlink:href="_process_8h.html" target="_top" xlink:title=" ">
<polygon fill="white" stroke="black" points="1048.5,-524.5 1048.5,-554.5 1194.5,-554.5 1194.5,-524.5 1048.5,-524.5"/>
<text text-anchor="start" x="1056.5" y="-542.5" font-family="Helvetica,sans-Serif" font-size="10.00">kryne&#45;engine/include</text>
<text text-anchor="middle" x="1121.5" y="-531.5" font-family="Helvetica,sans-Serif" font-size="10.00">/kryne&#45;engine/Core/Process.h</text>
</a>
</g>
</g>
<!-- Node15&#45;&gt;Node16 -->
<g id="edge17" class="edge">
<title>Node15&#45;&gt;Node16</title>
<path fill="none" stroke="midnightblue" d="M1151.74,-583.14C1144.88,-573.47 1137.48,-563.02 1131.71,-554.89"/>
<polygon fill="midnightblue" stroke="midnightblue" points="1148.93,-585.23 1157.57,-591.36 1154.64,-581.18 1148.93,-585.23"/>
</g>
<!-- Node21 -->
<g id="node21" class="node">
<title>Node21</title>
<g id="a_node21"><a xlink:href="_loop_renderer_8h.html" target="_top" xlink:title=" ">
<polygon fill="white" stroke="black" points="922.5,-301.5 922.5,-342.5 1044.5,-342.5 1044.5,-301.5 922.5,-301.5"/>
<text text-anchor="start" x="930.5" y="-330.5" font-family="Helvetica,sans-Serif" font-size="10.00">kryne&#45;engine/include</text>
<text text-anchor="start" x="930.5" y="-319.5" font-family="Helvetica,sans-Serif" font-size="10.00">/kryne&#45;engine/Rendering</text>
<text text-anchor="middle" x="983.5" y="-308.5" font-family="Helvetica,sans-Serif" font-size="10.00">/LoopRenderer.h</text>
</a>
</g>
</g>
<!-- Node15&#45;&gt;Node21 -->
<g id="edge58" class="edge">
<title>Node15&#45;&gt;Node21</title>
<path fill="none" stroke="midnightblue" d="M1100.55,-605.52C998.41,-593.08 817.84,-552.58 778.5,-421 773.15,-403.12 767.13,-393.8 778.5,-379 816.33,-329.76 853.64,-359.53 913.5,-343 916.42,-342.19 919.41,-341.36 922.43,-340.52"/>
<polygon fill="midnightblue" stroke="midnightblue" points="1100.15,-608.99 1110.49,-606.67 1100.96,-602.04 1100.15,-608.99"/>
</g>
<!-- Node39 -->
<g id="node39" class="node">
<title>Node39</title>
<g id="a_node39"><a xlink:href="_render_mesh_8cpp.html" target="_top" xlink:title=" ">
<polygon fill="white" stroke="black" points="1251,-524.5 1251,-554.5 1386,-554.5 1386,-524.5 1251,-524.5"/>
<text text-anchor="start" x="1259" y="-542.5" font-family="Helvetica,sans-Serif" font-size="10.00">kryne&#45;engine/src/Rendering</text>
<text text-anchor="middle" x="1318.5" y="-531.5" font-family="Helvetica,sans-Serif" font-size="10.00">/RenderMesh.cpp</text>
</a>
</g>
</g>
<!-- Node15&#45;&gt;Node39 -->
<g id="edge60" class="edge">
<title>Node15&#45;&gt;Node39</title>
<path fill="none" stroke="midnightblue" d="M1221.51,-587.02C1243.95,-576.25 1269.65,-563.93 1288.95,-554.67"/>
<polygon fill="midnightblue" stroke="midnightblue" points="1219.95,-583.88 1212.45,-591.36 1222.98,-590.19 1219.95,-583.88"/>
</g>
<!-- Node17 -->
<g id="node17" class="node">
<title>Node17</title>
<g id="a_node17"><a xlink:href="_entity_8h.html" target="_top" xlink:title=" ">
<polygon fill="white" stroke="black" points="832,-457.5 832,-487.5 967,-487.5 967,-457.5 832,-457.5"/>
<text text-anchor="start" x="840" y="-475.5" font-family="Helvetica,sans-Serif" font-size="10.00">kryne&#45;engine/include</text>
<text text-anchor="middle" x="899.5" y="-464.5" font-family="Helvetica,sans-Serif" font-size="10.00">/kryne&#45;engine/Core/Entity.h</text>
</a>
</g>
</g>
<!-- Node16&#45;&gt;Node17 -->
<g id="edge18" class="edge">
<title>Node16&#45;&gt;Node17</title>
<path fill="none" stroke="midnightblue" d="M1058.18,-521.71C1020.95,-511.14 974.94,-497.63 942.01,-487.61"/>
<polygon fill="midnightblue" stroke="midnightblue" points="1057.36,-525.12 1067.93,-524.48 1059.27,-518.38 1057.36,-525.12"/>
</g>
<!-- Node33 -->
<g id="node33" class="node">
<title>Node33</title>
<g id="a_node33"><a xlink:href="_system_8h.html" target="_top" xlink:title=" ">
<polygon fill="white" stroke="black" points="1101,-385 1101,-415 1244,-415 1244,-385 1101,-385"/>
<text text-anchor="start" x="1109" y="-403" font-family="Helvetica,sans-Serif" font-size="10.00">kryne&#45;engine/include</text>
<text text-anchor="middle" x="1172.5" y="-392" font-family="Helvetica,sans-Serif" font-size="10.00">/kryne&#45;engine/Core/System.h</text>
</a>
</g>
</g>
<!-- Node16&#45;&gt;Node33 -->
<g id="edge56" class="edge">
<title>Node16&#45;&gt;Node33</title>
<path fill="none" stroke="midnightblue" d="M1125.19,-514.29C1133.6,-485.61 1151.29,-438.78 1162.86,-415.33"/>
<polygon fill="midnightblue" stroke="midnightblue" points="1121.72,-513.73 1122.46,-524.3 1128.47,-515.58 1121.72,-513.73"/>
</g>
<!-- Node38 -->
<g id="node38" class="node">
<title>Node38</title>
<g id="a_node38"><a xlink:href="_process_8cpp.html" target="_top" xlink:title=" ">
<polygon fill="white" stroke="black" points="985.5,-457.5 985.5,-487.5 1097.5,-487.5 1097.5,-457.5 985.5,-457.5"/>
<text text-anchor="start" x="993.5" y="-475.5" font-family="Helvetica,sans-Serif" font-size="10.00">kryne&#45;engine/src/Core</text>
<text text-anchor="middle" x="1041.5" y="-464.5" font-family="Helvetica,sans-Serif" font-size="10.00">/Process.cpp</text>
</a>
</g>
</g>
<!-- Node16&#45;&gt;Node38 -->
<g id="edge57" class="edge">
<title>Node16&#45;&gt;Node38</title>
<path fill="none" stroke="midnightblue" d="M1096.13,-517.88C1083.97,-508.01 1069.72,-496.43 1058.82,-487.58"/>
<polygon fill="midnightblue" stroke="midnightblue" points="1094.17,-520.81 1104.14,-524.4 1098.59,-515.37 1094.17,-520.81"/>
</g>
<!-- Node17&#45;&gt;Node2 -->
<g id="edge37" class="edge">
<title>Node17&#45;&gt;Node2</title>
<path fill="none" stroke="midnightblue" d="M821.79,-458.93C734.92,-444.89 596.39,-422.49 519.52,-410.06"/>
<polygon fill="midnightblue" stroke="midnightblue" points="821.42,-462.42 831.85,-460.56 822.54,-455.51 821.42,-462.42"/>
</g>
<!-- Node17&#45;&gt;Node16 -->
<g id="edge53" class="edge">
<title>Node17&#45;&gt;Node16</title>
<path fill="none" stroke="midnightblue" d="M963.14,-490.38C1000.43,-500.97 1046.42,-514.47 1079.27,-524.48"/>
<polygon fill="midnightblue" stroke="midnightblue" points="963.95,-486.97 953.37,-487.61 962.04,-493.7 963.95,-486.97"/>
</g>
<!-- Node18 -->
<g id="node18" class="node">
<title>Node18</title>
<g id="a_node18"><a xlink:href="_scene_8h.html" target="_top" xlink:title=" ">
<polygon fill="white" stroke="black" points="607.5,-379.5 607.5,-420.5 731.5,-420.5 731.5,-379.5 607.5,-379.5"/>
<text text-anchor="start" x="615.5" y="-408.5" font-family="Helvetica,sans-Serif" font-size="10.00">kryne&#45;engine/include</text>
<text text-anchor="start" x="615.5" y="-397.5" font-family="Helvetica,sans-Serif" font-size="10.00">/kryne&#45;engine/3DObjects</text>
<text text-anchor="middle" x="669.5" y="-386.5" font-family="Helvetica,sans-Serif" font-size="10.00">/Scene.h</text>
</a>
</g>
</g>
<!-- Node17&#45;&gt;Node18 -->
<g id="edge19" class="edge">
<title>Node17&#45;&gt;Node18</title>
<path fill="none" stroke="midnightblue" d="M844.04,-454.5C810.15,-444.11 766.73,-430.8 731.68,-420.06"/>
<polygon fill="midnightblue" stroke="midnightblue" points="843.2,-457.9 853.78,-457.49 845.25,-451.21 843.2,-457.9"/>
</g>
<!-- Node19 -->
<g id="node19" class="node">
<title>Node19</title>
<g id="a_node19"><a xlink:href="_transform_8h.html" target="_top" xlink:title=" ">
<polygon fill="white" stroke="black" points="780.5,-301.5 780.5,-342.5 904.5,-342.5 904.5,-301.5 780.5,-301.5"/>
<text text-anchor="start" x="788.5" y="-330.5" font-family="Helvetica,sans-Serif" font-size="10.00">kryne&#45;engine/include</text>
<text text-anchor="start" x="788.5" y="-319.5" font-family="Helvetica,sans-Serif" font-size="10.00">/kryne&#45;engine/3DObjects</text>
<text text-anchor="middle" x="842.5" y="-308.5" font-family="Helvetica,sans-Serif" font-size="10.00">/Transform.h</text>
</a>
</g>
</g>
<!-- Node17&#45;&gt;Node19 -->
<g id="edge36" class="edge">
<title>Node17&#45;&gt;Node19</title>
<path fill="none" stroke="midnightblue" d="M901.08,-447.44C904.98,-428.07 909.51,-400.62 899.5,-379 892.68,-364.27 879.87,-352 868.01,-342.74"/>
<polygon fill="midnightblue" stroke="midnightblue" points="897.64,-446.78 899.07,-457.27 904.5,-448.18 897.64,-446.78"/>
</g>
<!-- Node17&#45;&gt;Node21 -->
<g id="edge54" class="edge">
<title>Node17&#45;&gt;Node21</title>
<path fill="none" stroke="midnightblue" d="M915.6,-448.85C921.47,-440.28 928.01,-430.33 933.5,-421 949.1,-394.5 964.86,-362.57 974.4,-342.52"/>
<polygon fill="midnightblue" stroke="midnightblue" points="912.62,-447 909.79,-457.21 918.37,-450.99 912.62,-447"/>
</g>
<!-- Node27 -->
<g id="node27" class="node">
<title>Node27</title>
<g id="a_node27"><a xlink:href="_component_8h.html" target="_top" xlink:title=" ">
<polygon fill="white" stroke="black" points="1262,-385 1262,-415 1421,-415 1421,-385 1262,-385"/>
<text text-anchor="start" x="1270" y="-403" font-family="Helvetica,sans-Serif" font-size="10.00">kryne&#45;engine/include</text>
<text text-anchor="middle" x="1341.5" y="-392" font-family="Helvetica,sans-Serif" font-size="10.00">/kryne&#45;engine/Core/Component.h</text>
</a>
</g>
</g>
<!-- Node17&#45;&gt;Node27 -->
<g id="edge38" class="edge">
<title>Node17&#45;&gt;Node27</title>
<path fill="none" stroke="midnightblue" d="M974.75,-455.88C1091.93,-437.77 1125.62,-442.19 1244.5,-421 1254.22,-419.27 1264.48,-417.18 1274.57,-415.01"/>
<polygon fill="midnightblue" stroke="midnightblue" points="974,-452.45 964.66,-457.46 975.08,-459.37 974,-452.45"/>
</g>
<!-- Node17&#45;&gt;Node33 -->
<g id="edge47" class="edge">
<title>Node17&#45;&gt;Node33</title>
<path fill="none" stroke="midnightblue" d="M963.51,-454.97C1010.39,-442.86 1073.35,-426.6 1117.87,-415.11"/>
<polygon fill="midnightblue" stroke="midnightblue" points="962.57,-451.6 953.76,-457.49 964.32,-458.38 962.57,-451.6"/>
</g>
<!-- Node37 -->
<g id="node37" class="node">
<title>Node37</title>
<g id="a_node37"><a xlink:href="_entity_8cpp.html" target="_top" xlink:title=" ">
<polygon fill="white" stroke="black" points="787.5,-385 787.5,-415 899.5,-415 899.5,-385 787.5,-385"/>
<text text-anchor="start" x="795.5" y="-403" font-family="Helvetica,sans-Serif" font-size="10.00">kryne&#45;engine/src/Core</text>
<text text-anchor="middle" x="843.5" y="-392" font-family="Helvetica,sans-Serif" font-size="10.00">/Entity.cpp</text>
</a>
</g>
</g>
<!-- Node17&#45;&gt;Node37 -->
<g id="edge55" class="edge">
<title>Node17&#45;&gt;Node37</title>
<path fill="none" stroke="midnightblue" d="M881.8,-449.21C872.97,-438.1 862.55,-424.99 854.82,-415.25"/>
<polygon fill="midnightblue" stroke="midnightblue" points="879.21,-451.58 888.17,-457.23 884.69,-447.23 879.21,-451.58"/>
</g>
<!-- Node18&#45;&gt;Node5 -->
<g id="edge20" class="edge">
<title>Node18&#45;&gt;Node5</title>
<path fill="none" stroke="midnightblue" d="M639.33,-372.25C630.78,-363.56 622.04,-353.45 615.5,-343 598.37,-315.66 587.66,-278.96 582.72,-259.13"/>
<polygon fill="midnightblue" stroke="midnightblue" points="637.13,-375 646.72,-379.5 642.03,-370 637.13,-375"/>
</g>
<!-- Node18&#45;&gt;Node6 -->
<g id="edge34" class="edge">
<title>Node18&#45;&gt;Node6</title>
<path fill="none" stroke="midnightblue" d="M626.25,-374.42C572.59,-343.93 482.2,-292.56 432.97,-264.59"/>
<polygon fill="midnightblue" stroke="midnightblue" points="624.75,-377.6 635.18,-379.5 628.21,-371.51 624.75,-377.6"/>
</g>
<!-- Node18&#45;&gt;Node19 -->
<g id="edge21" class="edge">
<title>Node18&#45;&gt;Node19</title>
<path fill="none" stroke="midnightblue" d="M723.38,-375.33C747.39,-364.78 775.32,-352.51 798.1,-342.51"/>
<polygon fill="midnightblue" stroke="midnightblue" points="721.8,-372.2 714.05,-379.43 724.62,-378.61 721.8,-372.2"/>
</g>
<!-- Node18&#45;&gt;Node21 -->
<g id="edge25" class="edge">
<title>Node18&#45;&gt;Node21</title>
<path fill="none" stroke="midnightblue" d="M741.66,-379.92C742.95,-379.61 744.23,-379.3 745.5,-379 819.78,-361.28 839.41,-361.5 913.5,-343 916.44,-342.27 919.45,-341.49 922.48,-340.69"/>
<polygon fill="midnightblue" stroke="midnightblue" points="740.52,-376.6 731.65,-382.39 742.2,-383.39 740.52,-376.6"/>
</g>
<!-- Node26 -->
<g id="node26" class="node">
<title>Node26</title>
<g id="a_node26"><a xlink:href="_scene_8cpp.html" target="_top" xlink:title=" ">
<polygon fill="white" stroke="black" points="625,-307 625,-337 762,-337 762,-307 625,-307"/>
<text text-anchor="start" x="633" y="-325" font-family="Helvetica,sans-Serif" font-size="10.00">kryne&#45;engine/src/3DObjects</text>
<text text-anchor="middle" x="693.5" y="-314" font-family="Helvetica,sans-Serif" font-size="10.00">/Scene.cpp</text>
</a>
</g>
</g>
<!-- Node18&#45;&gt;Node26 -->
<g id="edge35" class="edge">
<title>Node18&#45;&gt;Node26</title>
<path fill="none" stroke="midnightblue" d="M678.78,-369.62C682.29,-358.5 686.13,-346.34 689.01,-337.23"/>
<polygon fill="midnightblue" stroke="midnightblue" points="675.35,-368.84 675.68,-379.43 682.03,-370.95 675.35,-368.84"/>
</g>
<!-- Node19&#45;&gt;Node5 -->
<g id="edge22" class="edge">
<title>Node19&#45;&gt;Node5</title>
<path fill="none" stroke="midnightblue" d="M770.43,-300.17C725.22,-287.11 668.16,-270.62 628.24,-259.08"/>
<polygon fill="midnightblue" stroke="midnightblue" points="769.59,-303.58 780.17,-302.99 771.54,-296.85 769.59,-303.58"/>
</g>
<!-- Node19&#45;&gt;Node17 -->
<g id="edge23" class="edge">
<title>Node19&#45;&gt;Node17</title>
<path fill="none" stroke="midnightblue" d="M892.91,-349C903.01,-357.29 912.12,-367.38 917.5,-379 929.36,-404.62 920.8,-438.44 911.32,-457.27"/>
<polygon fill="midnightblue" stroke="midnightblue" points="894.74,-345.99 884.66,-342.74 890.51,-351.57 894.74,-345.99"/>
</g>
<!-- Node20 -->
<g id="node20" class="node">
<title>Node20</title>
<g id="a_node20"><a xlink:href="_transform_8cpp.html" target="_top" xlink:title=" ">
<polygon fill="white" stroke="black" points="814,-229 814,-259 951,-259 951,-229 814,-229"/>
<text text-anchor="start" x="822" y="-247" font-family="Helvetica,sans-Serif" font-size="10.00">kryne&#45;engine/src/3DObjects</text>
<text text-anchor="middle" x="882.5" y="-236" font-family="Helvetica,sans-Serif" font-size="10.00">/Transform.cpp</text>
</a>
</g>
</g>
<!-- Node19&#45;&gt;Node20 -->
<g id="edge24" class="edge">
<title>Node19&#45;&gt;Node20</title>
<path fill="none" stroke="midnightblue" d="M857.6,-292.3C863.55,-281 870.12,-268.52 875.01,-259.23"/>
<polygon fill="midnightblue" stroke="midnightblue" points="854.36,-290.95 852.8,-301.43 860.56,-294.21 854.36,-290.95"/>
</g>
<!-- Node22 -->
<g id="node22" class="node">
<title>Node22</title>
<g id="a_node22"><a xlink:href="_graphic_context_8h.html" target="_top" xlink:title=" ">
<polygon fill="white" stroke="black" points="1008,-223.5 1008,-264.5 1177,-264.5 1177,-223.5 1008,-223.5"/>
<text text-anchor="start" x="1016" y="-252.5" font-family="Helvetica,sans-Serif" font-size="10.00">kryne&#45;engine/include</text>
<text text-anchor="start" x="1016" y="-241.5" font-family="Helvetica,sans-Serif" font-size="10.00">/kryne&#45;engine/Core/GraphicContext</text>
<text text-anchor="middle" x="1092.5" y="-230.5" font-family="Helvetica,sans-Serif" font-size="10.00">/GraphicContext.h</text>
</a>
</g>
</g>
<!-- Node21&#45;&gt;Node22 -->
<g id="edge26" class="edge">
<title>Node21&#45;&gt;Node22</title>
<path fill="none" stroke="midnightblue" d="M1019.88,-295.64C1034.43,-285.49 1050.93,-273.98 1064.52,-264.51"/>
<polygon fill="midnightblue" stroke="midnightblue" points="1017.77,-292.84 1011.57,-301.43 1021.77,-298.58 1017.77,-292.84"/>
</g>
<!-- Node24 -->
<g id="node24" class="node">
<title>Node24</title>
<g id="a_node24"><a xlink:href="_open_g_l_renderer_8h.html" target="_top" xlink:title=" ">
<polygon fill="white" stroke="black" points="960.5,-67.5 960.5,-108.5 1110.5,-108.5 1110.5,-67.5 960.5,-67.5"/>
<text text-anchor="start" x="968.5" y="-96.5" font-family="Helvetica,sans-Serif" font-size="10.00">kryne&#45;engine/include</text>
<text text-anchor="start" x="968.5" y="-85.5" font-family="Helvetica,sans-Serif" font-size="10.00">/kryne&#45;engine/Rendering</text>
<text text-anchor="middle" x="1035.5" y="-74.5" font-family="Helvetica,sans-Serif" font-size="10.00">/Renderers/OpenGLRenderer.h</text>
</a>
</g>
</g>
<!-- Node21&#45;&gt;Node24 -->
<g id="edge33" class="edge">
<title>Node21&#45;&gt;Node24</title>
<path fill="none" stroke="midnightblue" d="M981.96,-291.12C981.06,-255.37 982.6,-194.17 999.5,-145 1004.01,-131.88 1012.2,-118.76 1019.63,-108.52"/>
<polygon fill="midnightblue" stroke="midnightblue" points="978.47,-291.48 982.3,-301.36 985.46,-291.25 978.47,-291.48"/>
</g>
<!-- Node22&#45;&gt;Node16 -->
<g id="edge32" class="edge">
<title>Node22&#45;&gt;Node16</title>
<path fill="none" stroke="midnightblue" d="M1091.87,-274.88C1091.72,-283.32 1091.58,-292.52 1091.5,-301 1091.02,-354.33 1082.33,-368.64 1092.5,-421 1095.77,-437.85 1101.81,-440.48 1106.5,-457 1113.1,-480.25 1117.5,-508.09 1119.74,-524.47"/>
<polygon fill="midnightblue" stroke="midnightblue" points="1095.37,-274.76 1092.06,-264.7 1088.37,-274.63 1095.37,-274.76"/>
</g>
<!-- Node23 -->
<g id="node23" class="node">
<title>Node23</title>
<g id="a_node23"><a xlink:href="_open_g_l_context_8h.html" target="_top" xlink:title=" ">
<polygon fill="white" stroke="black" points="1008,-145.5 1008,-186.5 1177,-186.5 1177,-145.5 1008,-145.5"/>
<text text-anchor="start" x="1016" y="-174.5" font-family="Helvetica,sans-Serif" font-size="10.00">kryne&#45;engine/include</text>
<text text-anchor="start" x="1016" y="-163.5" font-family="Helvetica,sans-Serif" font-size="10.00">/kryne&#45;engine/Core/GraphicContext</text>
<text text-anchor="middle" x="1092.5" y="-152.5" font-family="Helvetica,sans-Serif" font-size="10.00">/OpenGLContext.h</text>
</a>
</g>
</g>
<!-- Node22&#45;&gt;Node23 -->
<g id="edge27" class="edge">
<title>Node22&#45;&gt;Node23</title>
<path fill="none" stroke="midnightblue" d="M1092.5,-213.3C1092.5,-204.3 1092.5,-194.65 1092.5,-186.51"/>
<polygon fill="midnightblue" stroke="midnightblue" points="1089,-213.43 1092.5,-223.43 1096,-213.43 1089,-213.43"/>
</g>
<!-- Node23&#45;&gt;Node24 -->
<g id="edge28" class="edge">
<title>Node23&#45;&gt;Node24</title>
<path fill="none" stroke="midnightblue" d="M1065.46,-137.63C1057.79,-127.99 1049.99,-117.36 1044.15,-108.51"/>
<polygon fill="midnightblue" stroke="midnightblue" points="1062.8,-139.9 1071.83,-145.43 1068.22,-135.47 1062.8,-139.9"/>
</g>
<!-- Node25 -->
<g id="node25" class="node">
<title>Node25</title>
<g id="a_node25"><a xlink:href="_open_g_l_context_8cpp.html" target="_top" xlink:title=" ">
<polygon fill="white" stroke="black" points="1129,-73 1129,-103 1308,-103 1308,-73 1129,-73"/>
<text text-anchor="start" x="1137" y="-91" font-family="Helvetica,sans-Serif" font-size="10.00">kryne&#45;engine/src/Core</text>
<text text-anchor="middle" x="1218.5" y="-80" font-family="Helvetica,sans-Serif" font-size="10.00">/GraphicContext/OpenGLContext.cpp</text>
</a>
</g>
</g>
<!-- Node23&#45;&gt;Node25 -->
<g id="edge31" class="edge">
<title>Node23&#45;&gt;Node25</title>
<path fill="none" stroke="midnightblue" d="M1133.7,-140.15C1153.99,-127.91 1177.73,-113.59 1194.92,-103.23"/>
<polygon fill="midnightblue" stroke="midnightblue" points="1131.7,-137.27 1124.95,-145.43 1135.32,-143.26 1131.7,-137.27"/>
</g>
<!-- Node24&#45;&gt;Node13 -->
<g id="edge30" class="edge">
<title>Node24&#45;&gt;Node13</title>
<path fill="none" stroke="midnightblue" d="M1035.5,-57.08C1035.5,-48.01 1035.5,-38.45 1035.5,-30.89"/>
<polygon fill="midnightblue" stroke="midnightblue" points="1032,-57.36 1035.5,-67.36 1039,-57.36 1032,-57.36"/>
</g>
<!-- Node24&#45;&gt;Node23 -->
<g id="edge29" class="edge">
<title>Node24&#45;&gt;Node23</title>
<path fill="none" stroke="midnightblue" d="M1062.48,-116.3C1070.16,-125.93 1077.96,-136.56 1083.81,-145.43"/>
<polygon fill="midnightblue" stroke="midnightblue" points="1065.15,-114.03 1056.11,-108.51 1059.73,-118.46 1065.15,-114.03"/>
</g>
<!-- Node27&#45;&gt;Node15 -->
<g id="edge45" class="edge">
<title>Node27&#45;&gt;Node15</title>
<path fill="none" stroke="midnightblue" d="M1323.76,-422.91C1290.52,-463.97 1219.35,-551.89 1187.49,-591.24"/>
<polygon fill="midnightblue" stroke="midnightblue" points="1326.5,-425.1 1330.07,-415.12 1321.05,-420.69 1326.5,-425.1"/>
</g>
<!-- Node27&#45;&gt;Node17 -->
<g id="edge44" class="edge">
<title>Node27&#45;&gt;Node17</title>
<path fill="none" stroke="midnightblue" d="M1282.06,-417.21C1275.49,-418.57 1268.88,-419.86 1262.5,-421 1140.28,-442.78 1108.11,-437.5 985.5,-457 979.59,-457.94 973.44,-458.99 967.25,-460.07"/>
<polygon fill="midnightblue" stroke="midnightblue" points="1283.26,-420.53 1292.3,-415.01 1281.79,-413.68 1283.26,-420.53"/>
</g>
<!-- Node28 -->
<g id="node28" class="node">
<title>Node28</title>
<g id="a_node28"><a xlink:href="_logic_component_8h.html" target="_top" xlink:title=" ">
<polygon fill="white" stroke="black" points="1422.5,-307 1422.5,-337 1604.5,-337 1604.5,-307 1422.5,-307"/>
<text text-anchor="start" x="1430.5" y="-325" font-family="Helvetica,sans-Serif" font-size="10.00">kryne&#45;engine/include</text>
<text text-anchor="middle" x="1513.5" y="-314" font-family="Helvetica,sans-Serif" font-size="10.00">/kryne&#45;engine/Core/LogicComponent.h</text>
</a>
</g>
</g>
<!-- Node27&#45;&gt;Node28 -->
<g id="edge39" class="edge">
<title>Node27&#45;&gt;Node28</title>
<path fill="none" stroke="midnightblue" d="M1382.92,-380.7C1413.28,-367.28 1453.9,-349.34 1481.72,-337.04"/>
<polygon fill="midnightblue" stroke="midnightblue" points="1381.18,-377.64 1373.45,-384.88 1384.01,-384.04 1381.18,-377.64"/>
</g>
<!-- Node32 -->
<g id="node32" class="node">
<title>Node32</title>
<g id="a_node32"><a xlink:href="_component_8cpp.html" target="_top" xlink:title=" ">
<polygon fill="white" stroke="black" points="1622.5,-307 1622.5,-337 1734.5,-337 1734.5,-307 1622.5,-307"/>
<text text-anchor="start" x="1630.5" y="-325" font-family="Helvetica,sans-Serif" font-size="10.00">kryne&#45;engine/src/Core</text>
<text text-anchor="middle" x="1678.5" y="-314" font-family="Helvetica,sans-Serif" font-size="10.00">/Component.cpp</text>
</a>
</g>
</g>
<!-- Node27&#45;&gt;Node32 -->
<g id="edge46" class="edge">
<title>Node27&#45;&gt;Node32</title>
<path fill="none" stroke="midnightblue" d="M1429.76,-383.04C1483.22,-372.83 1552.62,-358.6 1613.5,-343 1620.48,-341.21 1627.82,-339.14 1634.96,-337.02"/>
<polygon fill="midnightblue" stroke="midnightblue" points="1428.8,-379.66 1419.63,-384.97 1430.1,-386.54 1428.8,-379.66"/>
</g>
<!-- Node28&#45;&gt;Node10 -->
<g id="edge40" class="edge">
<title>Node28&#45;&gt;Node10</title>
<path fill="none" stroke="midnightblue" d="M1414.27,-305.64C1401.25,-303.91 1388.07,-302.3 1375.5,-301 1122.58,-274.74 1055.53,-305.55 804.5,-265 801.67,-264.54 798.8,-264.03 795.9,-263.46"/>
<polygon fill="midnightblue" stroke="midnightblue" points="1413.8,-309.1 1424.18,-306.98 1414.74,-302.17 1413.8,-309.1"/>
</g>
<!-- Node29 -->
<g id="node29" class="node">
<title>Node29</title>
<g id="a_node29"><a xlink:href="_game_logic_components_runner_8h.html" target="_top" xlink:title=" ">
<polygon fill="white" stroke="black" points="1377,-223.5 1377,-264.5 1540,-264.5 1540,-223.5 1377,-223.5"/>
<text text-anchor="start" x="1385" y="-252.5" font-family="Helvetica,sans-Serif" font-size="10.00">kryne&#45;engine/include</text>
<text text-anchor="start" x="1385" y="-241.5" font-family="Helvetica,sans-Serif" font-size="10.00">/kryne&#45;engine/Systems</text>
<text text-anchor="middle" x="1458.5" y="-230.5" font-family="Helvetica,sans-Serif" font-size="10.00">/GameLogicComponentsRunner.h</text>
</a>
</g>
</g>
<!-- Node28&#45;&gt;Node29 -->
<g id="edge41" class="edge">
<title>Node28&#45;&gt;Node29</title>
<path fill="none" stroke="midnightblue" d="M1497.28,-298.59C1489.5,-287.84 1480.25,-275.06 1472.74,-264.68"/>
<polygon fill="midnightblue" stroke="midnightblue" points="1494.46,-300.66 1503.15,-306.7 1500.13,-296.55 1494.46,-300.66"/>
</g>
<!-- Node31 -->
<g id="node31" class="node">
<title>Node31</title>
<g id="a_node31"><a xlink:href="_logic_component_8cpp.html" target="_top" xlink:title=" ">
<polygon fill="white" stroke="black" points="1558.5,-229 1558.5,-259 1670.5,-259 1670.5,-229 1558.5,-229"/>
<text text-anchor="start" x="1566.5" y="-247" font-family="Helvetica,sans-Serif" font-size="10.00">kryne&#45;engine/src/Core</text>
<text text-anchor="middle" x="1614.5" y="-236" font-family="Helvetica,sans-Serif" font-size="10.00">/LogicComponent.cpp</text>
</a>
</g>
</g>
<!-- Node28&#45;&gt;Node31 -->
<g id="edge43" class="edge">
<title>Node28&#45;&gt;Node31</title>
<path fill="none" stroke="midnightblue" d="M1540.6,-300.61C1557.97,-287.54 1580.09,-270.89 1595.59,-259.23"/>
<polygon fill="midnightblue" stroke="midnightblue" points="1538.38,-297.9 1532.5,-306.7 1542.59,-303.49 1538.38,-297.9"/>
</g>
<!-- Node30 -->
<g id="node30" class="node">
<title>Node30</title>
<g id="a_node30"><a xlink:href="_game_logic_components_runner_8cpp.html" target="_top" xlink:title=" ">
<polygon fill="white" stroke="black" points="1372,-151 1372,-181 1545,-181 1545,-151 1372,-151"/>
<text text-anchor="start" x="1380" y="-169" font-family="Helvetica,sans-Serif" font-size="10.00">kryne&#45;engine/src/Systems</text>
<text text-anchor="middle" x="1458.5" y="-158" font-family="Helvetica,sans-Serif" font-size="10.00">/GameLogicComponentsRunner.cpp</text>
</a>
</g>
</g>
<!-- Node29&#45;&gt;Node30 -->
<g id="edge42" class="edge">
<title>Node29&#45;&gt;Node30</title>
<path fill="none" stroke="midnightblue" d="M1458.5,-213.28C1458.5,-202.25 1458.5,-190.25 1458.5,-181.23"/>
<polygon fill="midnightblue" stroke="midnightblue" points="1455,-213.43 1458.5,-223.43 1462,-213.43 1455,-213.43"/>
</g>
<!-- Node33&#45;&gt;Node16 -->
<g id="edge48" class="edge">
<title>Node33&#45;&gt;Node16</title>
<path fill="none" stroke="midnightblue" d="M1168.87,-424.99C1160.48,-453.7 1142.67,-500.84 1131.07,-524.3"/>
<polygon fill="midnightblue" stroke="midnightblue" points="1172.25,-425.89 1171.51,-415.33 1165.5,-424.05 1172.25,-425.89"/>
</g>
<!-- Node33&#45;&gt;Node29 -->
<g id="edge49" class="edge">
<title>Node33&#45;&gt;Node29</title>
<path fill="none" stroke="midnightblue" d="M1236.18,-382.4C1293.42,-367.34 1369.41,-346.89 1375.5,-343 1383.91,-337.63 1421.14,-291.86 1442.77,-264.81"/>
<polygon fill="midnightblue" stroke="midnightblue" points="1235.24,-379.03 1226.46,-384.96 1237.02,-385.8 1235.24,-379.03"/>
</g>
<!-- Node34 -->
<g id="node34" class="node">
<title>Node34</title>
<g id="a_node34"><a xlink:href="_transform_update_system_8h.html" target="_top" xlink:title=" ">
<polygon fill="white" stroke="black" points="1231,-301.5 1231,-342.5 1366,-342.5 1366,-301.5 1231,-301.5"/>
<text text-anchor="start" x="1239" y="-330.5" font-family="Helvetica,sans-Serif" font-size="10.00">kryne&#45;engine/include</text>
<text text-anchor="start" x="1239" y="-319.5" font-family="Helvetica,sans-Serif" font-size="10.00">/kryne&#45;engine/Systems</text>
<text text-anchor="middle" x="1298.5" y="-308.5" font-family="Helvetica,sans-Serif" font-size="10.00">/TransformUpdateSystem.h</text>
</a>
</g>
</g>
<!-- Node33&#45;&gt;Node34 -->
<g id="edge50" class="edge">
<title>Node33&#45;&gt;Node34</title>
<path fill="none" stroke="midnightblue" d="M1204.66,-379.6C1223.37,-368.31 1246.9,-354.12 1265.72,-342.77"/>
<polygon fill="midnightblue" stroke="midnightblue" points="1202.66,-376.72 1195.9,-384.88 1206.28,-382.72 1202.66,-376.72"/>
</g>
<!-- Node36 -->
<g id="node36" class="node">
<title>Node36</title>
<g id="a_node36"><a xlink:href="_system_8cpp.html" target="_top" xlink:title=" ">
<polygon fill="white" stroke="black" points="1100.5,-307 1100.5,-337 1212.5,-337 1212.5,-307 1100.5,-307"/>
<text text-anchor="start" x="1108.5" y="-325" font-family="Helvetica,sans-Serif" font-size="10.00">kryne&#45;engine/src/Core</text>
<text text-anchor="middle" x="1156.5" y="-314" font-family="Helvetica,sans-Serif" font-size="10.00">/System.cpp</text>
</a>
</g>
</g>
<!-- Node33&#45;&gt;Node36 -->
<g id="edge52" class="edge">
<title>Node33&#45;&gt;Node36</title>
<path fill="none" stroke="midnightblue" d="M1167.36,-374.59C1164.76,-362.26 1161.7,-347.72 1159.5,-337.23"/>
<polygon fill="midnightblue" stroke="midnightblue" points="1164.01,-375.64 1169.49,-384.7 1170.86,-374.2 1164.01,-375.64"/>
</g>
<!-- Node35 -->
<g id="node35" class="node">
<title>Node35</title>
<g id="a_node35"><a xlink:href="_transform_update_system_8cpp.html" target="_top" xlink:title=" ">
<polygon fill="white" stroke="black" points="1212.5,-229 1212.5,-259 1358.5,-259 1358.5,-229 1212.5,-229"/>
<text text-anchor="start" x="1220.5" y="-247" font-family="Helvetica,sans-Serif" font-size="10.00">kryne&#45;engine/src/Systems</text>
<text text-anchor="middle" x="1285.5" y="-236" font-family="Helvetica,sans-Serif" font-size="10.00">/TransformUpdateSystem.cpp</text>
</a>
</g>
</g>
<!-- Node34&#45;&gt;Node35 -->
<g id="edge51" class="edge">
<title>Node34&#45;&gt;Node35</title>
<path fill="none" stroke="midnightblue" d="M1293.42,-291.28C1291.53,-280.25 1289.48,-268.25 1287.93,-259.23"/>
<polygon fill="midnightblue" stroke="midnightblue" points="1290.02,-292.16 1295.15,-301.43 1296.92,-290.98 1290.02,-292.16"/>
</g>
</g>
</svg>
