<?xml version="1.0" encoding="UTF-8" standalone="no"?>
<!DOCTYPE svg PUBLIC "-//W3C//DTD SVG 1.1//EN"
 "http://www.w3.org/Graphics/SVG/1.1/DTD/svg11.dtd">
<!-- Generated by graphviz version 2.44.1 (20200629.0846)
 -->
<!-- Title: kryne&#45;engine/include/kryne&#45;engine/Core/IEntity.h Pages: 1 -->
<svg width="544pt" height="106pt"
 viewBox="0.00 0.00 543.50 106.00" xmlns="http://www.w3.org/2000/svg" xmlns:xlink="http://www.w3.org/1999/xlink">
<g id="graph0" class="graph" transform="scale(1 1) rotate(0) translate(4 102)">
<title>kryne&#45;engine/include/kryne&#45;engine/Core/IEntity.h</title>
<polygon fill="white" stroke="transparent" points="-4,4 -4,-102 539.5,-102 539.5,4 -4,4"/>
<!-- Node1 -->
<g id="node1" class="node">
<title>Node1</title>
<g id="a_node1"><a xlink:title=" ">
<polygon fill="#bfbfbf" stroke="black" points="159.5,-67.5 159.5,-97.5 296.5,-97.5 296.5,-67.5 159.5,-67.5"/>
<text text-anchor="start" x="167.5" y="-85.5" font-family="Helvetica,sans-Serif" font-size="10.00">kryne&#45;engine/include</text>
<text text-anchor="middle" x="228" y="-74.5" font-family="Helvetica,sans-Serif" font-size="10.00">/kryne&#45;engine/Core/IEntity.h</text>
</a>
</g>
</g>
<!-- Node2 -->
<g id="node2" class="node">
<title>Node2</title>
<g id="a_node2"><a xlink:title=" ">
<polygon fill="white" stroke="#bfbfbf" points="0,-6 0,-25 42,-25 42,-6 0,-6"/>
<text text-anchor="middle" x="21" y="-13" font-family="Helvetica,sans-Serif" font-size="10.00">vector</text>
</a>
</g>
</g>
<!-- Node1&#45;&gt;Node2 -->
<g id="edge1" class="edge">
<title>Node1&#45;&gt;Node2</title>
<path fill="none" stroke="midnightblue" d="M169.38,-67.49C134.51,-58.49 89.67,-45.74 51,-31 49.61,-30.47 48.21,-29.9 46.79,-29.31"/>
<polygon fill="midnightblue" stroke="midnightblue" points="48.15,-26.08 37.59,-25.15 45.26,-32.46 48.15,-26.08"/>
</g>
<!-- Node3 -->
<g id="node3" class="node">
<title>Node3</title>
<g id="a_node3"><a xlink:title=" ">
<polygon fill="white" stroke="#bfbfbf" points="60,-6 60,-25 112,-25 112,-6 60,-6"/>
<text text-anchor="middle" x="86" y="-13" font-family="Helvetica,sans-Serif" font-size="10.00">memory</text>
</a>
</g>
</g>
<!-- Node1&#45;&gt;Node3 -->
<g id="edge2" class="edge">
<title>Node1&#45;&gt;Node3</title>
<path fill="none" stroke="midnightblue" d="M197.19,-67.4C172.38,-56.04 137.82,-40.22 113.84,-29.24"/>
<polygon fill="midnightblue" stroke="midnightblue" points="115.13,-25.99 104.58,-25.01 112.22,-32.35 115.13,-25.99"/>
</g>
<!-- Node4 -->
<g id="node4" class="node">
<title>Node4</title>
<g id="a_node4"><a xlink:title=" ">
<polygon fill="white" stroke="#bfbfbf" points="130,-6 130,-25 208,-25 208,-6 130,-6"/>
<text text-anchor="middle" x="169" y="-13" font-family="Helvetica,sans-Serif" font-size="10.00">unordered_set</text>
</a>
</g>
</g>
<!-- Node1&#45;&gt;Node4 -->
<g id="edge3" class="edge">
<title>Node1&#45;&gt;Node4</title>
<path fill="none" stroke="midnightblue" d="M215.2,-67.4C205.91,-57.16 193.32,-43.3 183.63,-32.62"/>
<polygon fill="midnightblue" stroke="midnightblue" points="186.2,-30.25 176.89,-25.19 181.02,-34.95 186.2,-30.25"/>
</g>
<!-- Node5 -->
<g id="node5" class="node">
<title>Node5</title>
<g id="a_node5"><a xlink:href="_i_transform_8hpp.html" target="_top" xlink:title=" ">
<polygon fill="white" stroke="black" points="226.5,-0.5 226.5,-30.5 347.5,-30.5 347.5,-0.5 226.5,-0.5"/>
<text text-anchor="start" x="234.5" y="-18.5" font-family="Helvetica,sans-Serif" font-size="10.00">kryne&#45;engine/3DObjects</text>
<text text-anchor="middle" x="287" y="-7.5" font-family="Helvetica,sans-Serif" font-size="10.00">/ITransform.hpp</text>
</a>
</g>
</g>
<!-- Node1&#45;&gt;Node5 -->
<g id="edge4" class="edge">
<title>Node1&#45;&gt;Node5</title>
<path fill="none" stroke="midnightblue" d="M240.8,-67.4C248.53,-58.88 258.55,-47.85 267.27,-38.23"/>
<polygon fill="midnightblue" stroke="midnightblue" points="270.09,-40.33 274.22,-30.58 264.91,-35.63 270.09,-40.33"/>
</g>
<!-- Node6 -->
<g id="node6" class="node">
<title>Node6</title>
<g id="a_node6"><a xlink:href="_i_process_8hpp.html" target="_top" xlink:title=" ">
<polygon fill="white" stroke="black" points="366,-6 366,-25 440,-25 440,-6 366,-6"/>
<text text-anchor="middle" x="403" y="-13" font-family="Helvetica,sans-Serif" font-size="10.00">IProcess.hpp</text>
</a>
</g>
</g>
<!-- Node1&#45;&gt;Node6 -->
<g id="edge5" class="edge">
<title>Node1&#45;&gt;Node6</title>
<path fill="none" stroke="midnightblue" d="M265.97,-67.4C297.22,-55.79 341.04,-39.51 370.64,-28.52"/>
<polygon fill="midnightblue" stroke="midnightblue" points="371.94,-31.77 380.1,-25.01 369.5,-25.21 371.94,-31.77"/>
</g>
<!-- Node7 -->
<g id="node7" class="node">
<title>Node7</title>
<g id="a_node7"><a xlink:href="_i_component_8h.html" target="_top" xlink:title=" ">
<polygon fill="white" stroke="black" points="458.5,-6 458.5,-25 535.5,-25 535.5,-6 458.5,-6"/>
<text text-anchor="middle" x="497" y="-13" font-family="Helvetica,sans-Serif" font-size="10.00">IComponent.h</text>
</a>
</g>
</g>
<!-- Node1&#45;&gt;Node7 -->
<g id="edge6" class="edge">
<title>Node1&#45;&gt;Node7</title>
<path fill="none" stroke="midnightblue" d="M295.02,-67.44C338.99,-57.91 397.64,-44.61 449,-31 452.62,-30.04 456.38,-28.99 460.13,-27.92"/>
<polygon fill="midnightblue" stroke="midnightblue" points="461.33,-31.21 469.93,-25.03 459.35,-24.5 461.33,-31.21"/>
</g>
</g>
</svg>
