<?xml version="1.0" encoding="UTF-8" standalone="no"?>
<!DOCTYPE svg PUBLIC "-//W3C//DTD SVG 1.1//EN"
 "http://www.w3.org/Graphics/SVG/1.1/DTD/svg11.dtd">
<!-- Generated by graphviz version 2.44.1 (20200629.0846)
 -->
<!-- Title: kryne&#45;engine/include/kryne&#45;engine/Core/IProcess.hpp Pages: 1 -->
<svg width="1676pt" height="652pt"
 viewBox="0.00 0.00 1675.56 652.00" xmlns="http://www.w3.org/2000/svg" xmlns:xlink="http://www.w3.org/1999/xlink">
<g id="graph0" class="graph" transform="scale(1 1) rotate(0) translate(4 648)">
<title>kryne&#45;engine/include/kryne&#45;engine/Core/IProcess.hpp</title>
<polygon fill="white" stroke="transparent" points="-4,4 -4,-648 1671.56,-648 1671.56,4 -4,4"/>
<!-- Node1 -->
<g id="node1" class="node">
<title>Node1</title>
<g id="a_node1"><a xlink:title=" ">
<polygon fill="#bfbfbf" stroke="black" points="1251.5,-613.5 1251.5,-643.5 1409.5,-643.5 1409.5,-613.5 1251.5,-613.5"/>
<text text-anchor="start" x="1259.5" y="-631.5" font-family="Helvetica,sans-Serif" font-size="10.00">kryne&#45;engine/include</text>
<text text-anchor="middle" x="1330.5" y="-620.5" font-family="Helvetica,sans-Serif" font-size="10.00">/kryne&#45;engine/Core/IProcess.hpp</text>
</a>
</g>
</g>
<!-- Node2 -->
<g id="node2" class="node">
<title>Node2</title>
<g id="a_node2"><a xlink:href="_i_entity_8h.html" target="_top" xlink:title=" ">
<polygon fill="white" stroke="black" points="840,-546.5 840,-576.5 977,-576.5 977,-546.5 840,-546.5"/>
<text text-anchor="start" x="848" y="-564.5" font-family="Helvetica,sans-Serif" font-size="10.00">kryne&#45;engine/include</text>
<text text-anchor="middle" x="908.5" y="-553.5" font-family="Helvetica,sans-Serif" font-size="10.00">/kryne&#45;engine/Core/IEntity.h</text>
</a>
</g>
</g>
<!-- Node1&#45;&gt;Node2 -->
<g id="edge1" class="edge">
<title>Node1&#45;&gt;Node2</title>
<path fill="none" stroke="midnightblue" d="M1241.2,-613.75C1162.33,-601.6 1048.98,-584.14 977.05,-573.06"/>
<polygon fill="midnightblue" stroke="midnightblue" points="1240.71,-617.21 1251.13,-615.27 1241.77,-610.29 1240.71,-617.21"/>
</g>
<!-- Node11 -->
<g id="node11" class="node">
<title>Node11</title>
<g id="a_node11"><a xlink:href="_process_8h.html" target="_top" xlink:title=" ">
<polygon fill="white" stroke="black" points="1337.5,-162 1337.5,-192 1483.5,-192 1483.5,-162 1337.5,-162"/>
<text text-anchor="start" x="1345.5" y="-180" font-family="Helvetica,sans-Serif" font-size="10.00">kryne&#45;engine/include</text>
<text text-anchor="middle" x="1410.5" y="-169" font-family="Helvetica,sans-Serif" font-size="10.00">/kryne&#45;engine/Core/Process.h</text>
</a>
</g>
</g>
<!-- Node1&#45;&gt;Node11 -->
<g id="edge50" class="edge">
<title>Node1&#45;&gt;Node11</title>
<path fill="none" stroke="midnightblue" d="M1369.74,-608.3C1409.29,-585.88 1464.5,-544.77 1464.5,-490 1464.5,-490 1464.5,-490 1464.5,-410 1464.5,-325.43 1430.04,-227.93 1416.18,-192.12"/>
<polygon fill="midnightblue" stroke="midnightblue" points="1367.66,-605.46 1360.57,-613.33 1371.02,-611.59 1367.66,-605.46"/>
</g>
<!-- Node33 -->
<g id="node33" class="node">
<title>Node33</title>
<g id="a_node33"><a xlink:href="_system_8h.html" target="_top" xlink:title=" ">
<polygon fill="white" stroke="black" points="1259,-396 1259,-426 1402,-426 1402,-396 1259,-396"/>
<text text-anchor="start" x="1267" y="-414" font-family="Helvetica,sans-Serif" font-size="10.00">kryne&#45;engine/include</text>
<text text-anchor="middle" x="1330.5" y="-403" font-family="Helvetica,sans-Serif" font-size="10.00">/kryne&#45;engine/Core/System.h</text>
</a>
</g>
</g>
<!-- Node1&#45;&gt;Node33 -->
<g id="edge51" class="edge">
<title>Node1&#45;&gt;Node33</title>
<path fill="none" stroke="midnightblue" d="M1330.5,-603.28C1330.5,-558.11 1330.5,-462.32 1330.5,-426.19"/>
<polygon fill="midnightblue" stroke="midnightblue" points="1327,-603.36 1330.5,-613.36 1334,-603.36 1327,-603.36"/>
</g>
<!-- Node3 -->
<g id="node3" class="node">
<title>Node3</title>
<g id="a_node3"><a xlink:href="_scene_8h.html" target="_top" xlink:title=" ">
<polygon fill="white" stroke="black" points="894.5,-390.5 894.5,-431.5 1018.5,-431.5 1018.5,-390.5 894.5,-390.5"/>
<text text-anchor="start" x="902.5" y="-419.5" font-family="Helvetica,sans-Serif" font-size="10.00">kryne&#45;engine/include</text>
<text text-anchor="start" x="902.5" y="-408.5" font-family="Helvetica,sans-Serif" font-size="10.00">/kryne&#45;engine/3DObjects</text>
<text text-anchor="middle" x="956.5" y="-397.5" font-family="Helvetica,sans-Serif" font-size="10.00">/Scene.h</text>
</a>
</g>
</g>
<!-- Node2&#45;&gt;Node3 -->
<g id="edge2" class="edge">
<title>Node2&#45;&gt;Node3</title>
<path fill="none" stroke="midnightblue" d="M916.27,-536.46C925.71,-507.26 941.45,-458.56 950.18,-431.55"/>
<polygon fill="midnightblue" stroke="midnightblue" points="912.85,-535.67 913.1,-546.26 919.51,-537.82 912.85,-535.67"/>
</g>
<!-- Node17 -->
<g id="node17" class="node">
<title>Node17</title>
<g id="a_node17"><a xlink:href="_transform_8h.html" target="_top" xlink:title=" ">
<polygon fill="white" stroke="black" points="789.5,-468.5 789.5,-509.5 913.5,-509.5 913.5,-468.5 789.5,-468.5"/>
<text text-anchor="start" x="797.5" y="-497.5" font-family="Helvetica,sans-Serif" font-size="10.00">kryne&#45;engine/include</text>
<text text-anchor="start" x="797.5" y="-486.5" font-family="Helvetica,sans-Serif" font-size="10.00">/kryne&#45;engine/3DObjects</text>
<text text-anchor="middle" x="851.5" y="-475.5" font-family="Helvetica,sans-Serif" font-size="10.00">/Transform.h</text>
</a>
</g>
</g>
<!-- Node2&#45;&gt;Node17 -->
<g id="edge18" class="edge">
<title>Node2&#45;&gt;Node17</title>
<path fill="none" stroke="midnightblue" d="M890.52,-538.26C883.08,-529.06 874.53,-518.49 867.34,-509.59"/>
<polygon fill="midnightblue" stroke="midnightblue" points="887.96,-540.66 896.97,-546.23 893.4,-536.26 887.96,-540.66"/>
</g>
<!-- Node18 -->
<g id="node18" class="node">
<title>Node18</title>
<g id="a_node18"><a xlink:href="_component_8h.html" target="_top" xlink:title=" ">
<polygon fill="white" stroke="black" points="323,-396 323,-426 482,-426 482,-396 323,-396"/>
<text text-anchor="start" x="331" y="-414" font-family="Helvetica,sans-Serif" font-size="10.00">kryne&#45;engine/include</text>
<text text-anchor="middle" x="402.5" y="-403" font-family="Helvetica,sans-Serif" font-size="10.00">/kryne&#45;engine/Core/Component.h</text>
</a>
</g>
</g>
<!-- Node2&#45;&gt;Node18 -->
<g id="edge31" class="edge">
<title>Node2&#45;&gt;Node18</title>
<path fill="none" stroke="midnightblue" d="M848.09,-543.11C825.72,-535.06 800.86,-524.1 780.5,-510 759.8,-495.67 764.6,-480.05 742.5,-468 731.11,-461.79 578.99,-438.27 482.12,-423.76"/>
<polygon fill="midnightblue" stroke="midnightblue" points="847.25,-546.52 857.84,-546.49 849.54,-539.91 847.25,-546.52"/>
</g>
<!-- Node28 -->
<g id="node28" class="node">
<title>Node28</title>
<g id="a_node28"><a xlink:href="_entity_8h.html" target="_top" xlink:title=" ">
<polygon fill="white" stroke="black" points="1091,-474 1091,-504 1226,-504 1226,-474 1091,-474"/>
<text text-anchor="start" x="1099" y="-492" font-family="Helvetica,sans-Serif" font-size="10.00">kryne&#45;engine/include</text>
<text text-anchor="middle" x="1158.5" y="-481" font-family="Helvetica,sans-Serif" font-size="10.00">/kryne&#45;engine/Core/Entity.h</text>
</a>
</g>
</g>
<!-- Node2&#45;&gt;Node28 -->
<g id="edge32" class="edge">
<title>Node2&#45;&gt;Node28</title>
<path fill="none" stroke="midnightblue" d="M967.93,-543.74C1010.77,-531.66 1067.96,-515.53 1108.48,-504.11"/>
<polygon fill="midnightblue" stroke="midnightblue" points="966.87,-540.4 958.19,-546.49 968.77,-547.14 966.87,-540.4"/>
</g>
<!-- Node38 -->
<g id="node38" class="node">
<title>Node38</title>
<g id="a_node38"><a xlink:href="_i_entity_8cpp.html" target="_top" xlink:title=" ">
<polygon fill="white" stroke="black" points="585.5,-474 585.5,-504 733.5,-504 733.5,-474 585.5,-474"/>
<text text-anchor="start" x="593.5" y="-492" font-family="Helvetica,sans-Serif" font-size="10.00">kryne&#45;engine/include</text>
<text text-anchor="middle" x="659.5" y="-481" font-family="Helvetica,sans-Serif" font-size="10.00">/kryne&#45;engine/Core/IEntity.cpp</text>
</a>
</g>
</g>
<!-- Node2&#45;&gt;Node38 -->
<g id="edge49" class="edge">
<title>Node2&#45;&gt;Node38</title>
<path fill="none" stroke="midnightblue" d="M849.31,-543.74C806.63,-531.66 749.68,-515.53 709.32,-504.11"/>
<polygon fill="midnightblue" stroke="midnightblue" points="848.43,-547.13 859.01,-546.49 850.34,-540.4 848.43,-547.13"/>
</g>
<!-- Node4 -->
<g id="node4" class="node">
<title>Node4</title>
<g id="a_node4"><a xlink:href="3_d_objects_8h.html" target="_top" xlink:title=" ">
<polygon fill="white" stroke="black" points="785,-240 785,-270 912,-270 912,-240 785,-240"/>
<text text-anchor="start" x="793" y="-258" font-family="Helvetica,sans-Serif" font-size="10.00">kryne&#45;engine/include</text>
<text text-anchor="middle" x="848.5" y="-247" font-family="Helvetica,sans-Serif" font-size="10.00">/KEModules/3DObjects.h</text>
</a>
</g>
</g>
<!-- Node3&#45;&gt;Node4 -->
<g id="edge3" class="edge">
<title>Node3&#45;&gt;Node4</title>
<path fill="none" stroke="midnightblue" d="M937.01,-382.2C913.93,-349.3 876.39,-295.77 858.54,-270.32"/>
<polygon fill="midnightblue" stroke="midnightblue" points="934.21,-384.32 942.82,-390.5 939.95,-380.3 934.21,-384.32"/>
</g>
<!-- Node5 -->
<g id="node5" class="node">
<title>Node5</title>
<g id="a_node5"><a xlink:href="_loop_renderer_8h.html" target="_top" xlink:title=" ">
<polygon fill="white" stroke="black" points="1146.5,-312.5 1146.5,-353.5 1268.5,-353.5 1268.5,-312.5 1146.5,-312.5"/>
<text text-anchor="start" x="1154.5" y="-341.5" font-family="Helvetica,sans-Serif" font-size="10.00">kryne&#45;engine/include</text>
<text text-anchor="start" x="1154.5" y="-330.5" font-family="Helvetica,sans-Serif" font-size="10.00">/kryne&#45;engine/Rendering</text>
<text text-anchor="middle" x="1207.5" y="-319.5" font-family="Helvetica,sans-Serif" font-size="10.00">/LoopRenderer.h</text>
</a>
</g>
</g>
<!-- Node3&#45;&gt;Node5 -->
<g id="edge4" class="edge">
<title>Node3&#45;&gt;Node5</title>
<path fill="none" stroke="midnightblue" d="M1028.33,-388.25C1065.57,-376.97 1110.58,-363.35 1146.17,-352.57"/>
<polygon fill="midnightblue" stroke="midnightblue" points="1027.1,-384.97 1018.54,-391.21 1029.13,-391.67 1027.1,-384.97"/>
</g>
<!-- Node13 -->
<g id="node13" class="node">
<title>Node13</title>
<g id="a_node13"><a xlink:href="_renderer_8h.html" target="_top" xlink:title=" ">
<polygon fill="white" stroke="black" points="930.5,-234.5 930.5,-275.5 1052.5,-275.5 1052.5,-234.5 930.5,-234.5"/>
<text text-anchor="start" x="938.5" y="-263.5" font-family="Helvetica,sans-Serif" font-size="10.00">kryne&#45;engine/include</text>
<text text-anchor="start" x="938.5" y="-252.5" font-family="Helvetica,sans-Serif" font-size="10.00">/kryne&#45;engine/Rendering</text>
<text text-anchor="middle" x="991.5" y="-241.5" font-family="Helvetica,sans-Serif" font-size="10.00">/Renderer.h</text>
</a>
</g>
</g>
<!-- Node3&#45;&gt;Node13 -->
<g id="edge14" class="edge">
<title>Node3&#45;&gt;Node13</title>
<path fill="none" stroke="midnightblue" d="M963.24,-380.36C970.23,-349.61 980.96,-302.36 986.99,-275.83"/>
<polygon fill="midnightblue" stroke="midnightblue" points="959.74,-379.97 960.93,-390.5 966.56,-381.52 959.74,-379.97"/>
</g>
<!-- Node16 -->
<g id="node16" class="node">
<title>Node16</title>
<g id="a_node16"><a xlink:href="_scene_8cpp.html" target="_top" xlink:title=" ">
<polygon fill="white" stroke="black" points="991,-318 991,-348 1128,-348 1128,-318 991,-318"/>
<text text-anchor="start" x="999" y="-336" font-family="Helvetica,sans-Serif" font-size="10.00">kryne&#45;engine/src/3DObjects</text>
<text text-anchor="middle" x="1059.5" y="-325" font-family="Helvetica,sans-Serif" font-size="10.00">/Scene.cpp</text>
</a>
</g>
</g>
<!-- Node3&#45;&gt;Node16 -->
<g id="edge17" class="edge">
<title>Node3&#45;&gt;Node16</title>
<path fill="none" stroke="midnightblue" d="M991.3,-384.32C1007.63,-372.27 1026.48,-358.36 1040.22,-348.23"/>
<polygon fill="midnightblue" stroke="midnightblue" points="988.99,-381.67 983.03,-390.43 993.15,-387.31 988.99,-381.67"/>
</g>
<!-- Node6 -->
<g id="node6" class="node">
<title>Node6</title>
<g id="a_node6"><a xlink:href="_graphic_context_8h.html" target="_top" xlink:title=" ">
<polygon fill="white" stroke="black" points="1072,-234.5 1072,-275.5 1241,-275.5 1241,-234.5 1072,-234.5"/>
<text text-anchor="start" x="1080" y="-263.5" font-family="Helvetica,sans-Serif" font-size="10.00">kryne&#45;engine/include</text>
<text text-anchor="start" x="1080" y="-252.5" font-family="Helvetica,sans-Serif" font-size="10.00">/kryne&#45;engine/Core/GraphicContext</text>
<text text-anchor="middle" x="1156.5" y="-241.5" font-family="Helvetica,sans-Serif" font-size="10.00">/GraphicContext.h</text>
</a>
</g>
</g>
<!-- Node5&#45;&gt;Node6 -->
<g id="edge5" class="edge">
<title>Node5&#45;&gt;Node6</title>
<path fill="none" stroke="midnightblue" d="M1188.74,-304.05C1182.38,-294.57 1175.41,-284.18 1169.59,-275.51"/>
<polygon fill="midnightblue" stroke="midnightblue" points="1185.89,-306.07 1194.37,-312.43 1191.7,-302.17 1185.89,-306.07"/>
</g>
<!-- Node8 -->
<g id="node8" class="node">
<title>Node8</title>
<g id="a_node8"><a xlink:href="_open_g_l_renderer_8h.html" target="_top" xlink:title=" ">
<polygon fill="white" stroke="black" points="1154.5,-78.5 1154.5,-119.5 1304.5,-119.5 1304.5,-78.5 1154.5,-78.5"/>
<text text-anchor="start" x="1162.5" y="-107.5" font-family="Helvetica,sans-Serif" font-size="10.00">kryne&#45;engine/include</text>
<text text-anchor="start" x="1162.5" y="-96.5" font-family="Helvetica,sans-Serif" font-size="10.00">/kryne&#45;engine/Rendering</text>
<text text-anchor="middle" x="1229.5" y="-85.5" font-family="Helvetica,sans-Serif" font-size="10.00">/Renderers/OpenGLRenderer.h</text>
</a>
</g>
</g>
<!-- Node5&#45;&gt;Node8 -->
<g id="edge13" class="edge">
<title>Node5&#45;&gt;Node8</title>
<path fill="none" stroke="midnightblue" d="M1234.12,-304.69C1240.77,-296.17 1247,-286.29 1250.5,-276 1267.65,-225.5 1260.02,-208.48 1250.5,-156 1248.24,-143.54 1243.36,-130.23 1238.88,-119.72"/>
<polygon fill="midnightblue" stroke="midnightblue" points="1231.4,-302.49 1227.69,-312.41 1236.78,-306.97 1231.4,-302.49"/>
</g>
<!-- Node7 -->
<g id="node7" class="node">
<title>Node7</title>
<g id="a_node7"><a xlink:href="_open_g_l_context_8h.html" target="_top" xlink:title=" ">
<polygon fill="white" stroke="black" points="1072,-156.5 1072,-197.5 1241,-197.5 1241,-156.5 1072,-156.5"/>
<text text-anchor="start" x="1080" y="-185.5" font-family="Helvetica,sans-Serif" font-size="10.00">kryne&#45;engine/include</text>
<text text-anchor="start" x="1080" y="-174.5" font-family="Helvetica,sans-Serif" font-size="10.00">/kryne&#45;engine/Core/GraphicContext</text>
<text text-anchor="middle" x="1156.5" y="-163.5" font-family="Helvetica,sans-Serif" font-size="10.00">/OpenGLContext.h</text>
</a>
</g>
</g>
<!-- Node6&#45;&gt;Node7 -->
<g id="edge6" class="edge">
<title>Node6&#45;&gt;Node7</title>
<path fill="none" stroke="midnightblue" d="M1156.5,-224.3C1156.5,-215.3 1156.5,-205.65 1156.5,-197.51"/>
<polygon fill="midnightblue" stroke="midnightblue" points="1153,-224.43 1156.5,-234.43 1160,-224.43 1153,-224.43"/>
</g>
<!-- Node6&#45;&gt;Node11 -->
<g id="edge11" class="edge">
<title>Node6&#45;&gt;Node11</title>
<path fill="none" stroke="midnightblue" d="M1231.7,-231.5C1274.36,-218.73 1326.43,-203.15 1363.35,-192.11"/>
<polygon fill="midnightblue" stroke="midnightblue" points="1230.49,-228.21 1221.91,-234.43 1232.49,-234.91 1230.49,-228.21"/>
</g>
<!-- Node7&#45;&gt;Node8 -->
<g id="edge7" class="edge">
<title>Node7&#45;&gt;Node8</title>
<path fill="none" stroke="midnightblue" d="M1176.02,-148.92C1184.88,-139.2 1195.38,-128.45 1204.78,-119.51"/>
<polygon fill="midnightblue" stroke="midnightblue" points="1173.36,-146.64 1169.31,-156.43 1178.58,-151.3 1173.36,-146.64"/>
</g>
<!-- Node10 -->
<g id="node10" class="node">
<title>Node10</title>
<g id="a_node10"><a xlink:href="_open_g_l_context_8cpp.html" target="_top" xlink:title=" ">
<polygon fill="white" stroke="black" points="957,-84 957,-114 1136,-114 1136,-84 957,-84"/>
<text text-anchor="start" x="965" y="-102" font-family="Helvetica,sans-Serif" font-size="10.00">kryne&#45;engine/src/Core</text>
<text text-anchor="middle" x="1046.5" y="-91" font-family="Helvetica,sans-Serif" font-size="10.00">/GraphicContext/OpenGLContext.cpp</text>
</a>
</g>
</g>
<!-- Node7&#45;&gt;Node10 -->
<g id="edge10" class="edge">
<title>Node7&#45;&gt;Node10</title>
<path fill="none" stroke="midnightblue" d="M1119.82,-150.66C1102.26,-138.53 1081.89,-124.45 1067.09,-114.23"/>
<polygon fill="midnightblue" stroke="midnightblue" points="1117.96,-153.62 1128.17,-156.43 1121.93,-147.86 1117.96,-153.62"/>
</g>
<!-- Node8&#45;&gt;Node7 -->
<g id="edge8" class="edge">
<title>Node8&#45;&gt;Node7</title>
<path fill="none" stroke="midnightblue" d="M1210.05,-127.01C1201.19,-136.72 1190.69,-147.47 1181.29,-156.43"/>
<polygon fill="midnightblue" stroke="midnightblue" points="1212.7,-129.3 1216.75,-119.51 1207.48,-124.64 1212.7,-129.3"/>
</g>
<!-- Node9 -->
<g id="node9" class="node">
<title>Node9</title>
<g id="a_node9"><a xlink:href="_open_g_l_renderer_8cpp.html" target="_top" xlink:title=" ">
<polygon fill="white" stroke="black" points="1149,-0.5 1149,-41.5 1310,-41.5 1310,-0.5 1149,-0.5"/>
<text text-anchor="start" x="1157" y="-29.5" font-family="Helvetica,sans-Serif" font-size="10.00">kryne&#45;engine/include</text>
<text text-anchor="start" x="1157" y="-18.5" font-family="Helvetica,sans-Serif" font-size="10.00">/kryne&#45;engine/Rendering</text>
<text text-anchor="middle" x="1229.5" y="-7.5" font-family="Helvetica,sans-Serif" font-size="10.00">/Renderers/OpenGLRenderer.cpp</text>
</a>
</g>
</g>
<!-- Node8&#45;&gt;Node9 -->
<g id="edge9" class="edge">
<title>Node8&#45;&gt;Node9</title>
<path fill="none" stroke="midnightblue" d="M1229.5,-68.3C1229.5,-59.3 1229.5,-49.65 1229.5,-41.51"/>
<polygon fill="midnightblue" stroke="midnightblue" points="1226,-68.43 1229.5,-78.43 1233,-68.43 1226,-68.43"/>
</g>
<!-- Node12 -->
<g id="node12" class="node">
<title>Node12</title>
<g id="a_node12"><a xlink:href="_process_8cpp.html" target="_top" xlink:title=" ">
<polygon fill="white" stroke="black" points="1354.5,-84 1354.5,-114 1466.5,-114 1466.5,-84 1354.5,-84"/>
<text text-anchor="start" x="1362.5" y="-102" font-family="Helvetica,sans-Serif" font-size="10.00">kryne&#45;engine/src/Core</text>
<text text-anchor="middle" x="1410.5" y="-91" font-family="Helvetica,sans-Serif" font-size="10.00">/Process.cpp</text>
</a>
</g>
</g>
<!-- Node11&#45;&gt;Node12 -->
<g id="edge12" class="edge">
<title>Node11&#45;&gt;Node12</title>
<path fill="none" stroke="midnightblue" d="M1410.5,-151.59C1410.5,-139.26 1410.5,-124.72 1410.5,-114.23"/>
<polygon fill="midnightblue" stroke="midnightblue" points="1407,-151.7 1410.5,-161.7 1414,-151.71 1407,-151.7"/>
</g>
<!-- Node14 -->
<g id="node14" class="node">
<title>Node14</title>
<g id="a_node14"><a xlink:href="_rendering_8h.html" target="_top" xlink:title=" ">
<polygon fill="white" stroke="black" points="929,-162 929,-192 1054,-192 1054,-162 929,-162"/>
<text text-anchor="start" x="937" y="-180" font-family="Helvetica,sans-Serif" font-size="10.00">kryne&#45;engine/include</text>
<text text-anchor="middle" x="991.5" y="-169" font-family="Helvetica,sans-Serif" font-size="10.00">/KEModules/Rendering.h</text>
</a>
</g>
</g>
<!-- Node13&#45;&gt;Node14 -->
<g id="edge15" class="edge">
<title>Node13&#45;&gt;Node14</title>
<path fill="none" stroke="midnightblue" d="M991.5,-224.28C991.5,-213.25 991.5,-201.25 991.5,-192.23"/>
<polygon fill="midnightblue" stroke="midnightblue" points="988,-224.43 991.5,-234.43 995,-224.43 988,-224.43"/>
</g>
<!-- Node15 -->
<g id="node15" class="node">
<title>Node15</title>
<g id="a_node15"><a xlink:href="_renderer_8cpp.html" target="_top" xlink:title=" ">
<polygon fill="white" stroke="black" points="776,-162 776,-192 911,-192 911,-162 776,-162"/>
<text text-anchor="start" x="784" y="-180" font-family="Helvetica,sans-Serif" font-size="10.00">kryne&#45;engine/src/Rendering</text>
<text text-anchor="middle" x="843.5" y="-169" font-family="Helvetica,sans-Serif" font-size="10.00">/Renderer.cpp</text>
</a>
</g>
</g>
<!-- Node13&#45;&gt;Node15 -->
<g id="edge16" class="edge">
<title>Node13&#45;&gt;Node15</title>
<path fill="none" stroke="midnightblue" d="M944.39,-229.81C920.28,-217.43 891.76,-202.78 871.2,-192.23"/>
<polygon fill="midnightblue" stroke="midnightblue" points="942.89,-232.97 953.39,-234.43 946.09,-226.75 942.89,-232.97"/>
</g>
<!-- Node17&#45;&gt;Node3 -->
<g id="edge20" class="edge">
<title>Node17&#45;&gt;Node3</title>
<path fill="none" stroke="midnightblue" d="M886.94,-462.35C900.86,-452.27 916.58,-440.89 929.55,-431.51"/>
<polygon fill="midnightblue" stroke="midnightblue" points="884.59,-459.73 878.54,-468.43 888.69,-465.4 884.59,-459.73"/>
</g>
<!-- Node17&#45;&gt;Node4 -->
<g id="edge19" class="edge">
<title>Node17&#45;&gt;Node4</title>
<path fill="none" stroke="midnightblue" d="M851.11,-457.94C850.46,-407.38 849.16,-307.24 848.68,-270.2"/>
<polygon fill="midnightblue" stroke="midnightblue" points="847.62,-458.27 851.24,-468.22 854.61,-458.18 847.62,-458.27"/>
</g>
<!-- Node17&#45;&gt;Node18 -->
<g id="edge21" class="edge">
<title>Node17&#45;&gt;Node18</title>
<path fill="none" stroke="midnightblue" d="M779.36,-468.81C778.07,-468.53 776.78,-468.26 775.5,-468 761.27,-465.07 587.45,-439.28 482.19,-423.74"/>
<polygon fill="midnightblue" stroke="midnightblue" points="778.89,-472.29 789.42,-471.08 780.43,-465.47 778.89,-472.29"/>
</g>
<!-- Node27 -->
<g id="node27" class="node">
<title>Node27</title>
<g id="a_node27"><a xlink:href="_transform_8cpp.html" target="_top" xlink:title=" ">
<polygon fill="white" stroke="black" points="547,-396 547,-426 684,-426 684,-396 547,-396"/>
<text text-anchor="start" x="555" y="-414" font-family="Helvetica,sans-Serif" font-size="10.00">kryne&#45;engine/src/3DObjects</text>
<text text-anchor="middle" x="615.5" y="-403" font-family="Helvetica,sans-Serif" font-size="10.00">/Transform.cpp</text>
</a>
</g>
</g>
<!-- Node17&#45;&gt;Node27 -->
<g id="edge30" class="edge">
<title>Node17&#45;&gt;Node27</title>
<path fill="none" stroke="midnightblue" d="M781.13,-465.34C741.59,-452.6 693.47,-437.11 659.3,-426.11"/>
<polygon fill="midnightblue" stroke="midnightblue" points="780.13,-468.69 790.72,-468.43 782.28,-462.03 780.13,-468.69"/>
</g>
<!-- Node19 -->
<g id="node19" class="node">
<title>Node19</title>
<g id="a_node19"><a xlink:href="_logic_component_8h.html" target="_top" xlink:title=" ">
<polygon fill="white" stroke="black" points="146.5,-318 146.5,-348 328.5,-348 328.5,-318 146.5,-318"/>
<text text-anchor="start" x="154.5" y="-336" font-family="Helvetica,sans-Serif" font-size="10.00">kryne&#45;engine/include</text>
<text text-anchor="middle" x="237.5" y="-325" font-family="Helvetica,sans-Serif" font-size="10.00">/kryne&#45;engine/Core/LogicComponent.h</text>
</a>
</g>
</g>
<!-- Node18&#45;&gt;Node19 -->
<g id="edge22" class="edge">
<title>Node18&#45;&gt;Node19</title>
<path fill="none" stroke="midnightblue" d="M362.77,-391.7C333.64,-378.28 294.68,-360.34 267.98,-348.04"/>
<polygon fill="midnightblue" stroke="midnightblue" points="361.3,-394.88 371.85,-395.88 364.23,-388.52 361.3,-394.88"/>
</g>
<!-- Node24 -->
<g id="node24" class="node">
<title>Node24</title>
<g id="a_node24"><a xlink:href="_render_mesh_8h.html" target="_top" xlink:title=" ">
<polygon fill="white" stroke="black" points="6.5,-312.5 6.5,-353.5 128.5,-353.5 128.5,-312.5 6.5,-312.5"/>
<text text-anchor="start" x="14.5" y="-341.5" font-family="Helvetica,sans-Serif" font-size="10.00">kryne&#45;engine/include</text>
<text text-anchor="start" x="14.5" y="-330.5" font-family="Helvetica,sans-Serif" font-size="10.00">/kryne&#45;engine/Rendering</text>
<text text-anchor="middle" x="67.5" y="-319.5" font-family="Helvetica,sans-Serif" font-size="10.00">/RenderMesh.h</text>
</a>
</g>
</g>
<!-- Node18&#45;&gt;Node24 -->
<g id="edge27" class="edge">
<title>Node18&#45;&gt;Node24</title>
<path fill="none" stroke="midnightblue" d="M319.44,-394C267.04,-383.53 198.06,-369.03 137.5,-354 134.56,-353.27 131.55,-352.5 128.52,-351.71"/>
<polygon fill="midnightblue" stroke="midnightblue" points="318.87,-397.46 329.36,-395.98 320.23,-390.59 318.87,-397.46"/>
</g>
<!-- Node26 -->
<g id="node26" class="node">
<title>Node26</title>
<g id="a_node26"><a xlink:href="_component_8cpp.html" target="_top" xlink:title=" ">
<polygon fill="white" stroke="black" points="346.5,-318 346.5,-348 458.5,-348 458.5,-318 346.5,-318"/>
<text text-anchor="start" x="354.5" y="-336" font-family="Helvetica,sans-Serif" font-size="10.00">kryne&#45;engine/src/Core</text>
<text text-anchor="middle" x="402.5" y="-325" font-family="Helvetica,sans-Serif" font-size="10.00">/Component.cpp</text>
</a>
</g>
</g>
<!-- Node18&#45;&gt;Node26 -->
<g id="edge29" class="edge">
<title>Node18&#45;&gt;Node26</title>
<path fill="none" stroke="midnightblue" d="M402.5,-385.59C402.5,-373.26 402.5,-358.72 402.5,-348.23"/>
<polygon fill="midnightblue" stroke="midnightblue" points="399,-385.7 402.5,-395.7 406,-385.71 399,-385.7"/>
</g>
<!-- Node20 -->
<g id="node20" class="node">
<title>Node20</title>
<g id="a_node20"><a xlink:href="_orbit_controls_component_8h.html" target="_top" xlink:title=" ">
<polygon fill="white" stroke="black" points="402.5,-234.5 402.5,-275.5 536.5,-275.5 536.5,-234.5 402.5,-234.5"/>
<text text-anchor="start" x="410.5" y="-263.5" font-family="Helvetica,sans-Serif" font-size="10.00">kryne&#45;engine/include</text>
<text text-anchor="start" x="410.5" y="-252.5" font-family="Helvetica,sans-Serif" font-size="10.00">/kryne&#45;engine/Camera</text>
<text text-anchor="middle" x="469.5" y="-241.5" font-family="Helvetica,sans-Serif" font-size="10.00">/OrbitControlsComponent.h</text>
</a>
</g>
</g>
<!-- Node19&#45;&gt;Node20 -->
<g id="edge23" class="edge">
<title>Node19&#45;&gt;Node20</title>
<path fill="none" stroke="midnightblue" d="M290.05,-314.79C325.68,-303.11 372.85,-287.66 409.88,-275.53"/>
<polygon fill="midnightblue" stroke="midnightblue" points="288.74,-311.53 280.32,-317.97 290.92,-318.18 288.74,-311.53"/>
</g>
<!-- Node23 -->
<g id="node23" class="node">
<title>Node23</title>
<g id="a_node23"><a xlink:href="_logic_component_8cpp.html" target="_top" xlink:title=" ">
<polygon fill="white" stroke="black" points="181.5,-240 181.5,-270 293.5,-270 293.5,-240 181.5,-240"/>
<text text-anchor="start" x="189.5" y="-258" font-family="Helvetica,sans-Serif" font-size="10.00">kryne&#45;engine/src/Core</text>
<text text-anchor="middle" x="237.5" y="-247" font-family="Helvetica,sans-Serif" font-size="10.00">/LogicComponent.cpp</text>
</a>
</g>
</g>
<!-- Node19&#45;&gt;Node23 -->
<g id="edge26" class="edge">
<title>Node19&#45;&gt;Node23</title>
<path fill="none" stroke="midnightblue" d="M237.5,-307.59C237.5,-295.26 237.5,-280.72 237.5,-270.23"/>
<polygon fill="midnightblue" stroke="midnightblue" points="234,-307.7 237.5,-317.7 241,-307.71 234,-307.7"/>
</g>
<!-- Node21 -->
<g id="node21" class="node">
<title>Node21</title>
<g id="a_node21"><a xlink:href="_k_e_modules_2_camera_8h.html" target="_top" xlink:title=" ">
<polygon fill="white" stroke="black" points="544,-162 544,-192 659,-192 659,-162 544,-162"/>
<text text-anchor="start" x="552" y="-180" font-family="Helvetica,sans-Serif" font-size="10.00">kryne&#45;engine/include</text>
<text text-anchor="middle" x="601.5" y="-169" font-family="Helvetica,sans-Serif" font-size="10.00">/KEModules/Camera.h</text>
</a>
</g>
</g>
<!-- Node20&#45;&gt;Node21 -->
<g id="edge24" class="edge">
<title>Node20&#45;&gt;Node21</title>
<path fill="none" stroke="midnightblue" d="M512.37,-229.31C533.7,-217.04 558.7,-202.64 576.79,-192.23"/>
<polygon fill="midnightblue" stroke="midnightblue" points="510.41,-226.41 503.49,-234.43 513.91,-232.47 510.41,-226.41"/>
</g>
<!-- Node22 -->
<g id="node22" class="node">
<title>Node22</title>
<g id="a_node22"><a xlink:href="_orbit_controls_component_8cpp.html" target="_top" xlink:title=" ">
<polygon fill="white" stroke="black" points="381,-162 381,-192 526,-192 526,-162 381,-162"/>
<text text-anchor="start" x="389" y="-180" font-family="Helvetica,sans-Serif" font-size="10.00">kryne&#45;engine/src/Camera</text>
<text text-anchor="middle" x="453.5" y="-169" font-family="Helvetica,sans-Serif" font-size="10.00">/OrbitControlsComponent.cpp</text>
</a>
</g>
</g>
<!-- Node20&#45;&gt;Node22 -->
<g id="edge25" class="edge">
<title>Node20&#45;&gt;Node22</title>
<path fill="none" stroke="midnightblue" d="M463.32,-224.62C460.97,-213.5 458.41,-201.34 456.49,-192.23"/>
<polygon fill="midnightblue" stroke="midnightblue" points="459.89,-225.36 465.38,-234.43 466.74,-223.92 459.89,-225.36"/>
</g>
<!-- Node25 -->
<g id="node25" class="node">
<title>Node25</title>
<g id="a_node25"><a xlink:href="_render_mesh_8cpp.html" target="_top" xlink:title=" ">
<polygon fill="white" stroke="black" points="0,-240 0,-270 135,-270 135,-240 0,-240"/>
<text text-anchor="start" x="8" y="-258" font-family="Helvetica,sans-Serif" font-size="10.00">kryne&#45;engine/src/Rendering</text>
<text text-anchor="middle" x="67.5" y="-247" font-family="Helvetica,sans-Serif" font-size="10.00">/RenderMesh.cpp</text>
</a>
</g>
</g>
<!-- Node24&#45;&gt;Node25 -->
<g id="edge28" class="edge">
<title>Node24&#45;&gt;Node25</title>
<path fill="none" stroke="midnightblue" d="M67.5,-302.28C67.5,-291.25 67.5,-279.25 67.5,-270.23"/>
<polygon fill="midnightblue" stroke="midnightblue" points="64,-302.43 67.5,-312.43 71,-302.43 64,-302.43"/>
</g>
<!-- Node28&#45;&gt;Node11 -->
<g id="edge42" class="edge">
<title>Node28&#45;&gt;Node11</title>
<path fill="none" stroke="midnightblue" d="M1236.58,-477.58C1359.75,-459.39 1590.26,-417.58 1639.5,-354 1672.2,-311.78 1678.59,-275.91 1645.5,-234 1625.55,-208.74 1545.03,-193.64 1483.76,-185.59"/>
<polygon fill="midnightblue" stroke="midnightblue" points="1235.84,-474.15 1226.45,-479.06 1236.85,-481.08 1235.84,-474.15"/>
</g>
<!-- Node29 -->
<g id="node29" class="node">
<title>Node29</title>
<g id="a_node29"><a xlink:href="kryne-engine_2_camera_2_camera_8h.html" target="_top" xlink:title=" ">
<polygon fill="white" stroke="black" points="702.5,-390.5 702.5,-431.5 814.5,-431.5 814.5,-390.5 702.5,-390.5"/>
<text text-anchor="start" x="710.5" y="-419.5" font-family="Helvetica,sans-Serif" font-size="10.00">kryne&#45;engine/include</text>
<text text-anchor="start" x="710.5" y="-408.5" font-family="Helvetica,sans-Serif" font-size="10.00">/kryne&#45;engine/Camera</text>
<text text-anchor="middle" x="758.5" y="-397.5" font-family="Helvetica,sans-Serif" font-size="10.00">/Camera.h</text>
</a>
</g>
</g>
<!-- Node28&#45;&gt;Node29 -->
<g id="edge33" class="edge">
<title>Node28&#45;&gt;Node29</title>
<path fill="none" stroke="midnightblue" d="M1080.37,-473.16C1002.25,-458.31 884.04,-435.85 814.72,-422.68"/>
<polygon fill="midnightblue" stroke="midnightblue" points="1080.17,-476.68 1090.65,-475.11 1081.47,-469.8 1080.17,-476.68"/>
</g>
<!-- Node28&#45;&gt;Node33 -->
<g id="edge43" class="edge">
<title>Node28&#45;&gt;Node33</title>
<path fill="none" stroke="midnightblue" d="M1199.92,-469.7C1230.28,-456.28 1270.9,-438.34 1298.72,-426.04"/>
<polygon fill="midnightblue" stroke="midnightblue" points="1198.18,-466.64 1190.45,-473.88 1201.01,-473.04 1198.18,-466.64"/>
</g>
<!-- Node37 -->
<g id="node37" class="node">
<title>Node37</title>
<g id="a_node37"><a xlink:href="_entity_8cpp.html" target="_top" xlink:title=" ">
<polygon fill="white" stroke="black" points="1102.5,-396 1102.5,-426 1214.5,-426 1214.5,-396 1102.5,-396"/>
<text text-anchor="start" x="1110.5" y="-414" font-family="Helvetica,sans-Serif" font-size="10.00">kryne&#45;engine/src/Core</text>
<text text-anchor="middle" x="1158.5" y="-403" font-family="Helvetica,sans-Serif" font-size="10.00">/Entity.cpp</text>
</a>
</g>
</g>
<!-- Node28&#45;&gt;Node37 -->
<g id="edge48" class="edge">
<title>Node28&#45;&gt;Node37</title>
<path fill="none" stroke="midnightblue" d="M1158.5,-463.59C1158.5,-451.26 1158.5,-436.72 1158.5,-426.23"/>
<polygon fill="midnightblue" stroke="midnightblue" points="1155,-463.7 1158.5,-473.7 1162,-463.71 1155,-463.7"/>
</g>
<!-- Node29&#45;&gt;Node13 -->
<g id="edge40" class="edge">
<title>Node29&#45;&gt;Node13</title>
<path fill="none" stroke="midnightblue" d="M796.55,-384.85C842.78,-354.3 919.8,-303.39 961.86,-275.59"/>
<polygon fill="midnightblue" stroke="midnightblue" points="794.42,-382.06 788.01,-390.5 798.28,-387.9 794.42,-382.06"/>
</g>
<!-- Node29&#45;&gt;Node20 -->
<g id="edge39" class="edge">
<title>Node29&#45;&gt;Node20</title>
<path fill="none" stroke="midnightblue" d="M692.33,-389.99C608.36,-372.29 568.83,-406.5 506.5,-354 483.13,-334.32 474.5,-298.26 471.33,-275.8"/>
<polygon fill="midnightblue" stroke="midnightblue" points="691.7,-393.44 702.23,-392.28 693.28,-386.62 691.7,-393.44"/>
</g>
<!-- Node29&#45;&gt;Node21 -->
<g id="edge34" class="edge">
<title>Node29&#45;&gt;Node21</title>
<path fill="none" stroke="midnightblue" d="M722.87,-384.15C711.18,-375.09 698.4,-364.53 687.5,-354 679.34,-346.11 626.46,-286.21 621.5,-276 608.01,-248.19 603.61,-211.68 602.18,-192"/>
<polygon fill="midnightblue" stroke="midnightblue" points="721.07,-387.18 731.15,-390.46 725.32,-381.61 721.07,-387.18"/>
</g>
<!-- Node30 -->
<g id="node30" class="node">
<title>Node30</title>
<g id="a_node30"><a xlink:href="_mesh_8h.html" target="_top" xlink:title=" ">
<polygon fill="white" stroke="black" points="696.5,-312.5 696.5,-353.5 820.5,-353.5 820.5,-312.5 696.5,-312.5"/>
<text text-anchor="start" x="704.5" y="-341.5" font-family="Helvetica,sans-Serif" font-size="10.00">kryne&#45;engine/include</text>
<text text-anchor="start" x="704.5" y="-330.5" font-family="Helvetica,sans-Serif" font-size="10.00">/kryne&#45;engine/3DObjects</text>
<text text-anchor="middle" x="758.5" y="-319.5" font-family="Helvetica,sans-Serif" font-size="10.00">/Mesh.h</text>
</a>
</g>
</g>
<!-- Node29&#45;&gt;Node30 -->
<g id="edge35" class="edge">
<title>Node29&#45;&gt;Node30</title>
<path fill="none" stroke="midnightblue" d="M758.5,-380.3C758.5,-371.3 758.5,-361.65 758.5,-353.51"/>
<polygon fill="midnightblue" stroke="midnightblue" points="755,-380.43 758.5,-390.43 762,-380.43 755,-380.43"/>
</g>
<!-- Node32 -->
<g id="node32" class="node">
<title>Node32</title>
<g id="a_node32"><a xlink:href="_camera_8cpp.html" target="_top" xlink:title=" ">
<polygon fill="white" stroke="black" points="515,-318 515,-348 640,-348 640,-318 515,-318"/>
<text text-anchor="start" x="523" y="-336" font-family="Helvetica,sans-Serif" font-size="10.00">kryne&#45;engine/src/Camera</text>
<text text-anchor="middle" x="577.5" y="-325" font-family="Helvetica,sans-Serif" font-size="10.00">/Camera.cpp</text>
</a>
</g>
</g>
<!-- Node29&#45;&gt;Node32 -->
<g id="edge41" class="edge">
<title>Node29&#45;&gt;Node32</title>
<path fill="none" stroke="midnightblue" d="M702.4,-386.45C672.49,-373.89 636.69,-358.85 611.1,-348.11"/>
<polygon fill="midnightblue" stroke="midnightblue" points="701.31,-389.78 711.89,-390.43 704.02,-383.33 701.31,-389.78"/>
</g>
<!-- Node30&#45;&gt;Node4 -->
<g id="edge36" class="edge">
<title>Node30&#45;&gt;Node4</title>
<path fill="none" stroke="midnightblue" d="M789.69,-305.66C803.78,-293.76 819.87,-280.18 831.65,-270.23"/>
<polygon fill="midnightblue" stroke="midnightblue" points="787.06,-303.3 781.68,-312.43 791.58,-308.65 787.06,-303.3"/>
</g>
<!-- Node30&#45;&gt;Node13 -->
<g id="edge37" class="edge">
<title>Node30&#45;&gt;Node13</title>
<path fill="none" stroke="midnightblue" d="M828.08,-309.3C861.06,-298.55 900.07,-285.82 931.7,-275.51"/>
<polygon fill="midnightblue" stroke="midnightblue" points="826.92,-306 818.5,-312.43 829.1,-312.65 826.92,-306"/>
</g>
<!-- Node31 -->
<g id="node31" class="node">
<title>Node31</title>
<g id="a_node31"><a xlink:href="_mesh_8cpp.html" target="_top" xlink:title=" ">
<polygon fill="white" stroke="black" points="630,-240 630,-270 767,-270 767,-240 630,-240"/>
<text text-anchor="start" x="638" y="-258" font-family="Helvetica,sans-Serif" font-size="10.00">kryne&#45;engine/src/3DObjects</text>
<text text-anchor="middle" x="698.5" y="-247" font-family="Helvetica,sans-Serif" font-size="10.00">/Mesh.cpp</text>
</a>
</g>
</g>
<!-- Node30&#45;&gt;Node31 -->
<g id="edge38" class="edge">
<title>Node30&#45;&gt;Node31</title>
<path fill="none" stroke="midnightblue" d="M736.65,-304.32C727.51,-292.75 717.29,-279.8 709.73,-270.23"/>
<polygon fill="midnightblue" stroke="midnightblue" points="734.1,-306.75 743.05,-312.43 739.6,-302.41 734.1,-306.75"/>
</g>
<!-- Node33&#45;&gt;Node11 -->
<g id="edge44" class="edge">
<title>Node33&#45;&gt;Node11</title>
<path fill="none" stroke="midnightblue" d="M1320.87,-386.11C1314.15,-365.97 1307.67,-336.58 1315.5,-312 1331.34,-262.27 1373.08,-215.17 1395.59,-192.34"/>
<polygon fill="midnightblue" stroke="midnightblue" points="1317.65,-387.5 1324.33,-395.73 1324.24,-385.13 1317.65,-387.5"/>
</g>
<!-- Node34 -->
<g id="node34" class="node">
<title>Node34</title>
<g id="a_node34"><a xlink:href="_transform_update_system_8h.html" target="_top" xlink:title=" ">
<polygon fill="white" stroke="black" points="1495,-312.5 1495,-353.5 1630,-353.5 1630,-312.5 1495,-312.5"/>
<text text-anchor="start" x="1503" y="-341.5" font-family="Helvetica,sans-Serif" font-size="10.00">kryne&#45;engine/include</text>
<text text-anchor="start" x="1503" y="-330.5" font-family="Helvetica,sans-Serif" font-size="10.00">/kryne&#45;engine/Systems</text>
<text text-anchor="middle" x="1562.5" y="-319.5" font-family="Helvetica,sans-Serif" font-size="10.00">/TransformUpdateSystem.h</text>
</a>
</g>
</g>
<!-- Node33&#45;&gt;Node34 -->
<g id="edge45" class="edge">
<title>Node33&#45;&gt;Node34</title>
<path fill="none" stroke="midnightblue" d="M1383.05,-392.79C1418.68,-381.11 1465.85,-365.66 1502.88,-353.53"/>
<polygon fill="midnightblue" stroke="midnightblue" points="1381.74,-389.53 1373.32,-395.97 1383.92,-396.18 1381.74,-389.53"/>
</g>
<!-- Node36 -->
<g id="node36" class="node">
<title>Node36</title>
<g id="a_node36"><a xlink:href="_system_8cpp.html" target="_top" xlink:title=" ">
<polygon fill="white" stroke="black" points="1324.5,-318 1324.5,-348 1436.5,-348 1436.5,-318 1324.5,-318"/>
<text text-anchor="start" x="1332.5" y="-336" font-family="Helvetica,sans-Serif" font-size="10.00">kryne&#45;engine/src/Core</text>
<text text-anchor="middle" x="1380.5" y="-325" font-family="Helvetica,sans-Serif" font-size="10.00">/System.cpp</text>
</a>
</g>
</g>
<!-- Node33&#45;&gt;Node36 -->
<g id="edge47" class="edge">
<title>Node33&#45;&gt;Node36</title>
<path fill="none" stroke="midnightblue" d="M1345.58,-387.07C1353.9,-374.44 1363.96,-359.15 1371.14,-348.23"/>
<polygon fill="midnightblue" stroke="midnightblue" points="1342.48,-385.43 1339.9,-395.7 1348.32,-389.27 1342.48,-385.43"/>
</g>
<!-- Node35 -->
<g id="node35" class="node">
<title>Node35</title>
<g id="a_node35"><a xlink:href="_transform_update_system_8cpp.html" target="_top" xlink:title=" ">
<polygon fill="white" stroke="black" points="1490.5,-240 1490.5,-270 1636.5,-270 1636.5,-240 1490.5,-240"/>
<text text-anchor="start" x="1498.5" y="-258" font-family="Helvetica,sans-Serif" font-size="10.00">kryne&#45;engine/src/Systems</text>
<text text-anchor="middle" x="1563.5" y="-247" font-family="Helvetica,sans-Serif" font-size="10.00">/TransformUpdateSystem.cpp</text>
</a>
</g>
</g>
<!-- Node34&#45;&gt;Node35 -->
<g id="edge46" class="edge">
<title>Node34&#45;&gt;Node35</title>
<path fill="none" stroke="midnightblue" d="M1562.89,-302.28C1563.04,-291.25 1563.19,-279.25 1563.31,-270.23"/>
<polygon fill="midnightblue" stroke="midnightblue" points="1559.39,-302.38 1562.76,-312.43 1566.39,-302.48 1559.39,-302.38"/>
</g>
</g>
</svg>
