<?xml version="1.0" encoding="UTF-8" standalone="no"?>
<!DOCTYPE svg PUBLIC "-//W3C//DTD SVG 1.1//EN"
 "http://www.w3.org/Graphics/SVG/1.1/DTD/svg11.dtd">
<!-- Generated by graphviz version 2.40.1 (20161225.0304)
 -->
<!-- Title: kryne&#45;engine/include/KEModules/Input.h Pages: 1 -->
<svg width="784pt" height="162pt"
 viewBox="0.00 0.00 783.50 162.00" xmlns="http://www.w3.org/2000/svg" xmlns:xlink="http://www.w3.org/1999/xlink">
<g id="graph0" class="graph" transform="scale(1 1) rotate(0) translate(4 158)">
<title>kryne&#45;engine/include/KEModules/Input.h</title>
<polygon fill="#ffffff" stroke="transparent" points="-4,4 -4,-158 779.5,-158 779.5,4 -4,4"/>
<!-- Node0 -->
<g id="node1" class="node">
<title>Node0</title>
<polygon fill="#bfbfbf" stroke="#000000" points="291,-123.5 291,-153.5 397,-153.5 397,-123.5 291,-123.5"/>
<text text-anchor="start" x="299" y="-141.5" font-family="Helvetica,sans-Serif" font-size="10.00" fill="#000000">kryne&#45;engine/include</text>
<text text-anchor="middle" x="344" y="-130.5" font-family="Helvetica,sans-Serif" font-size="10.00" fill="#000000">/KEModules/Input.h</text>
</g>
<!-- Node1 -->
<g id="node2" class="node">
<title>Node1</title>
<g id="a_node2"><a xlink:href="_player_input_8h.html" target="_top" xlink:title="kryne&#45;engine/Input\l/PlayerInput.h">
<polygon fill="#ffffff" stroke="#000000" points="295.5,-56.5 295.5,-86.5 392.5,-86.5 392.5,-56.5 295.5,-56.5"/>
<text text-anchor="start" x="303.5" y="-74.5" font-family="Helvetica,sans-Serif" font-size="10.00" fill="#000000">kryne&#45;engine/Input</text>
<text text-anchor="middle" x="344" y="-63.5" font-family="Helvetica,sans-Serif" font-size="10.00" fill="#000000">/PlayerInput.h</text>
</a>
</g>
</g>
<!-- Node0&#45;&gt;Node1 -->
<g id="edge1" class="edge">
<title>Node0&#45;&gt;Node1</title>
<path fill="none" stroke="#191970" d="M344,-123.2967C344,-115.5013 344,-105.7991 344,-96.9064"/>
<polygon fill="#191970" stroke="#191970" points="347.5001,-96.6431 344,-86.6432 340.5001,-96.6432 347.5001,-96.6431"/>
</g>
<!-- Node2 -->
<g id="node3" class="node">
<title>Node2</title>
<polygon fill="#ffffff" stroke="#bfbfbf" points="0,-.5 0,-19.5 30,-19.5 30,-.5 0,-.5"/>
<text text-anchor="middle" x="15" y="-7.5" font-family="Helvetica,sans-Serif" font-size="10.00" fill="#000000">set</text>
</g>
<!-- Node1&#45;&gt;Node2 -->
<g id="edge2" class="edge">
<title>Node1&#45;&gt;Node2</title>
<path fill="none" stroke="#191970" d="M295.4338,-66.7494C236.627,-60.2409 134.6673,-46.5304 39.7958,-19.6926"/>
<polygon fill="#191970" stroke="#191970" points="40.6266,-16.2896 30.0482,-16.8808 38.6864,-23.0154 40.6266,-16.2896"/>
</g>
<!-- Node3 -->
<g id="node4" class="node">
<title>Node3</title>
<polygon fill="#ffffff" stroke="#bfbfbf" points="48,-.5 48,-19.5 126,-19.5 126,-.5 48,-.5"/>
<text text-anchor="middle" x="87" y="-7.5" font-family="Helvetica,sans-Serif" font-size="10.00" fill="#000000">unordered_set</text>
</g>
<!-- Node1&#45;&gt;Node3 -->
<g id="edge3" class="edge">
<title>Node1&#45;&gt;Node3</title>
<path fill="none" stroke="#191970" d="M295.3581,-59.86C249.7656,-48.9497 181.9516,-32.7219 136.1839,-21.7697"/>
<polygon fill="#191970" stroke="#191970" points="136.7371,-18.3033 126.1971,-19.3799 135.108,-25.1111 136.7371,-18.3033"/>
</g>
<!-- Node4 -->
<g id="node5" class="node">
<title>Node4</title>
<polygon fill="#ffffff" stroke="#bfbfbf" points="144.5,-.5 144.5,-19.5 227.5,-19.5 227.5,-.5 144.5,-.5"/>
<text text-anchor="middle" x="186" y="-7.5" font-family="Helvetica,sans-Serif" font-size="10.00" fill="#000000">unordered_map</text>
</g>
<!-- Node1&#45;&gt;Node4 -->
<g id="edge4" class="edge">
<title>Node1&#45;&gt;Node4</title>
<path fill="none" stroke="#191970" d="M305.3489,-56.4554C279.2174,-46.284 245.0347,-32.9787 219.9519,-23.2155"/>
<polygon fill="#191970" stroke="#191970" points="221.0729,-19.8961 210.4844,-19.5303 218.5338,-26.4193 221.0729,-19.8961"/>
</g>
<!-- Node5 -->
<g id="node6" class="node">
<title>Node5</title>
<polygon fill="#ffffff" stroke="#bfbfbf" points="246,-.5 246,-19.5 300,-19.5 300,-.5 246,-.5"/>
<text text-anchor="middle" x="273" y="-7.5" font-family="Helvetica,sans-Serif" font-size="10.00" fill="#000000">iostream</text>
</g>
<!-- Node1&#45;&gt;Node5 -->
<g id="edge5" class="edge">
<title>Node1&#45;&gt;Node5</title>
<path fill="none" stroke="#191970" d="M326.4494,-56.2977C315.9779,-47.2274 302.6789,-35.7077 291.9662,-26.4285"/>
<polygon fill="#191970" stroke="#191970" points="294.2182,-23.7487 284.368,-19.8469 289.6351,-29.0398 294.2182,-23.7487"/>
</g>
<!-- Node6 -->
<g id="node7" class="node">
<title>Node6</title>
<polygon fill="#ffffff" stroke="#bfbfbf" points="318,-.5 318,-19.5 370,-19.5 370,-.5 318,-.5"/>
<text text-anchor="middle" x="344" y="-7.5" font-family="Helvetica,sans-Serif" font-size="10.00" fill="#000000">memory</text>
</g>
<!-- Node1&#45;&gt;Node6 -->
<g id="edge6" class="edge">
<title>Node1&#45;&gt;Node6</title>
<path fill="none" stroke="#191970" d="M344,-56.2977C344,-48.3834 344,-38.6043 344,-30.0759"/>
<polygon fill="#191970" stroke="#191970" points="347.5001,-29.8469 344,-19.8469 340.5001,-29.847 347.5001,-29.8469"/>
</g>
<!-- Node7 -->
<g id="node8" class="node">
<title>Node7</title>
<polygon fill="#ffffff" stroke="#bfbfbf" points="388,-.5 388,-19.5 452,-19.5 452,-.5 388,-.5"/>
<text text-anchor="middle" x="420" y="-7.5" font-family="Helvetica,sans-Serif" font-size="10.00" fill="#000000">glad/glad.h</text>
</g>
<!-- Node1&#45;&gt;Node7 -->
<g id="edge7" class="edge">
<title>Node1&#45;&gt;Node7</title>
<path fill="none" stroke="#191970" d="M362.7865,-56.2977C374.1053,-47.1384 388.5105,-35.4816 400.0346,-26.1562"/>
<polygon fill="#191970" stroke="#191970" points="402.2595,-28.8583 407.8314,-19.8469 397.8561,-23.4167 402.2595,-28.8583"/>
</g>
<!-- Node8 -->
<g id="node9" class="node">
<title>Node8</title>
<polygon fill="#ffffff" stroke="#bfbfbf" points="470,-.5 470,-19.5 550,-19.5 550,-.5 470,-.5"/>
<text text-anchor="middle" x="510" y="-7.5" font-family="Helvetica,sans-Serif" font-size="10.00" fill="#000000">GLFW/glfw3.h</text>
</g>
<!-- Node1&#45;&gt;Node8 -->
<g id="edge8" class="edge">
<title>Node1&#45;&gt;Node8</title>
<path fill="none" stroke="#191970" d="M384.6082,-56.4554C412.1842,-46.239 448.2942,-32.8609 474.6782,-23.0861"/>
<polygon fill="#191970" stroke="#191970" points="476.1147,-26.2864 484.2759,-19.5303 473.6828,-19.7224 476.1147,-26.2864"/>
</g>
<!-- Node9 -->
<g id="node10" class="node">
<title>Node9</title>
<polygon fill="#ffffff" stroke="#bfbfbf" points="568,-.5 568,-19.5 682,-19.5 682,-.5 568,-.5"/>
<text text-anchor="middle" x="625" y="-7.5" font-family="Helvetica,sans-Serif" font-size="10.00" fill="#000000">boost/lexical_cast.hpp</text>
</g>
<!-- Node1&#45;&gt;Node9 -->
<g id="edge9" class="edge">
<title>Node1&#45;&gt;Node9</title>
<path fill="none" stroke="#191970" d="M392.6257,-60.8577C442.5482,-49.9316 520.0286,-32.9742 571.6197,-21.6829"/>
<polygon fill="#191970" stroke="#191970" points="572.5565,-25.0608 581.5769,-19.5036 571.0598,-18.2226 572.5565,-25.0608"/>
</g>
<!-- Node10 -->
<g id="node11" class="node">
<title>Node10</title>
<polygon fill="#ffffff" stroke="#bfbfbf" points="700.5,-.5 700.5,-19.5 775.5,-19.5 775.5,-.5 700.5,-.5"/>
<text text-anchor="middle" x="738" y="-7.5" font-family="Helvetica,sans-Serif" font-size="10.00" fill="#000000">glm/vec2.hpp</text>
</g>
<!-- Node1&#45;&gt;Node10 -->
<g id="edge10" class="edge">
<title>Node1&#45;&gt;Node10</title>
<path fill="none" stroke="#191970" d="M392.7172,-65.2441C458.0272,-56.6422 577.7858,-40.1166 690.1763,-20.0564"/>
<polygon fill="#191970" stroke="#191970" points="691.1079,-23.4451 700.3307,-18.2305 689.8691,-16.5556 691.1079,-23.4451"/>
</g>
</g>
</svg>
