<?xml version="1.0" encoding="UTF-8" standalone="no"?>
<!DOCTYPE svg PUBLIC "-//W3C//DTD SVG 1.1//EN"
 "http://www.w3.org/Graphics/SVG/1.1/DTD/svg11.dtd">
<!-- Generated by graphviz version 2.44.1 (20200629.0846)
 -->
<!-- Title: kryne&#45;engine/include/KEModules/Material.h Pages: 1 -->
<svg width="1748pt" height="788pt"
 viewBox="0.00 0.00 1748.00 788.00" xmlns="http://www.w3.org/2000/svg" xmlns:xlink="http://www.w3.org/1999/xlink">
<g id="graph0" class="graph" transform="scale(1 1) rotate(0) translate(4 784)">
<title>kryne&#45;engine/include/KEModules/Material.h</title>
<polygon fill="white" stroke="transparent" points="-4,4 -4,-784 1744,-784 1744,4 -4,4"/>
<!-- Node1 -->
<g id="node1" class="node">
<title>Node1</title>
<g id="a_node1"><a xlink:title=" ">
<polygon fill="#bfbfbf" stroke="black" points="925.5,-749.5 925.5,-779.5 1041.5,-779.5 1041.5,-749.5 925.5,-749.5"/>
<text text-anchor="start" x="933.5" y="-767.5" font-family="Helvetica,sans-Serif" font-size="10.00">kryne&#45;engine/include</text>
<text text-anchor="middle" x="983.5" y="-756.5" font-family="Helvetica,sans-Serif" font-size="10.00">/KEModules/Material.h</text>
</a>
</g>
</g>
<!-- Node2 -->
<g id="node2" class="node">
<title>Node2</title>
<g id="a_node2"><a xlink:href="kryne-engine_2_material_2_material_8h.html" target="_top" xlink:title=" ">
<polygon fill="white" stroke="black" points="590.5,-559.5 590.5,-589.5 700.5,-589.5 700.5,-559.5 590.5,-559.5"/>
<text text-anchor="start" x="598.5" y="-577.5" font-family="Helvetica,sans-Serif" font-size="10.00">kryne&#45;engine/Material</text>
<text text-anchor="middle" x="645.5" y="-566.5" font-family="Helvetica,sans-Serif" font-size="10.00">/Material.h</text>
</a>
</g>
</g>
<!-- Node1&#45;&gt;Node2 -->
<g id="edge1" class="edge">
<title>Node1&#45;&gt;Node2</title>
<path fill="none" stroke="midnightblue" d="M925.31,-763.6C872.46,-761.05 794.45,-750.43 738.5,-713 696.36,-684.8 668.21,-630.41 654.73,-599.15"/>
<polygon fill="midnightblue" stroke="midnightblue" points="657.94,-597.76 650.87,-589.88 651.48,-600.45 657.94,-597.76"/>
</g>
<!-- Node6 -->
<g id="node6" class="node">
<title>Node6</title>
<g id="a_node6"><a xlink:href="_shader_8h.html" target="_top" xlink:title=" ">
<polygon fill="white" stroke="black" points="697.5,-425.5 697.5,-455.5 807.5,-455.5 807.5,-425.5 697.5,-425.5"/>
<text text-anchor="start" x="705.5" y="-443.5" font-family="Helvetica,sans-Serif" font-size="10.00">kryne&#45;engine/Material</text>
<text text-anchor="middle" x="752.5" y="-432.5" font-family="Helvetica,sans-Serif" font-size="10.00">/Shader.h</text>
</a>
</g>
</g>
<!-- Node1&#45;&gt;Node6 -->
<g id="edge78" class="edge">
<title>Node1&#45;&gt;Node6</title>
<path fill="none" stroke="midnightblue" d="M925.24,-756.46C870.21,-748.64 792.99,-734.25 771.5,-713 746.74,-688.52 752.5,-671.82 752.5,-637 752.5,-637 752.5,-637 752.5,-573.5 752.5,-536 752.5,-492.51 752.5,-466.01"/>
<polygon fill="midnightblue" stroke="midnightblue" points="756,-465.76 752.5,-455.76 749,-465.76 756,-465.76"/>
</g>
<!-- Node23 -->
<g id="node18" class="node">
<title>Node23</title>
<g id="a_node18"><a xlink:href="_uniforms_handler_8h.html" target="_top" xlink:title=" ">
<polygon fill="white" stroke="black" points="1064.5,-364 1064.5,-383 1160.5,-383 1160.5,-364 1064.5,-364"/>
<text text-anchor="middle" x="1112.5" y="-371" font-family="Helvetica,sans-Serif" font-size="10.00">UniformsHandler.h</text>
</a>
</g>
</g>
<!-- Node1&#45;&gt;Node23 -->
<g id="edge80" class="edge">
<title>Node1&#45;&gt;Node23</title>
<path fill="none" stroke="midnightblue" d="M1017.84,-749.34C1035.48,-740.78 1056.38,-728.52 1071.5,-713 1098.28,-685.51 1112.5,-675.38 1112.5,-637 1112.5,-637 1112.5,-637 1112.5,-506.5 1112.5,-466.16 1112.5,-418.88 1112.5,-393.28"/>
<polygon fill="midnightblue" stroke="midnightblue" points="1116,-393.15 1112.5,-383.15 1109,-393.15 1116,-393.15"/>
</g>
<!-- Node37 -->
<g id="node32" class="node">
<title>Node37</title>
<g id="a_node32"><a xlink:href="_shader_chunk_8h.html" target="_top" xlink:title=" ">
<polygon fill="white" stroke="black" points="1457,-364 1457,-383 1540,-383 1540,-364 1457,-364"/>
<text text-anchor="middle" x="1498.5" y="-371" font-family="Helvetica,sans-Serif" font-size="10.00">ShaderChunk.h</text>
</a>
</g>
</g>
<!-- Node1&#45;&gt;Node37 -->
<g id="edge79" class="edge">
<title>Node1&#45;&gt;Node37</title>
<path fill="none" stroke="midnightblue" d="M1041.84,-758.46C1158.51,-746.77 1409.5,-712.8 1409.5,-637 1409.5,-637 1409.5,-637 1409.5,-506.5 1409.5,-456.87 1453.29,-411.92 1479.44,-389.5"/>
<polygon fill="midnightblue" stroke="midnightblue" points="1481.77,-392.12 1487.23,-383.04 1477.3,-386.73 1481.77,-392.12"/>
</g>
<!-- Node51 -->
<g id="node47" class="node">
<title>Node51</title>
<g id="a_node47"><a xlink:href="_mesh_lambert_material_8h.html" target="_top" xlink:title=" ">
<polygon fill="white" stroke="black" points="780.5,-682.5 780.5,-712.5 902.5,-712.5 902.5,-682.5 780.5,-682.5"/>
<text text-anchor="start" x="788.5" y="-700.5" font-family="Helvetica,sans-Serif" font-size="10.00">kryne&#45;engine/Material</text>
<text text-anchor="middle" x="841.5" y="-689.5" font-family="Helvetica,sans-Serif" font-size="10.00">/MeshLambertMaterial.h</text>
</a>
</g>
</g>
<!-- Node1&#45;&gt;Node51 -->
<g id="edge70" class="edge">
<title>Node1&#45;&gt;Node51</title>
<path fill="none" stroke="midnightblue" d="M952.69,-749.4C931.85,-739.86 904.12,-727.16 881.57,-716.84"/>
<polygon fill="midnightblue" stroke="midnightblue" points="882.8,-713.56 872.25,-712.58 879.89,-719.92 882.8,-713.56"/>
</g>
<!-- Node52 -->
<g id="node48" class="node">
<title>Node52</title>
<g id="a_node48"><a xlink:href="_mesh_material_common_8h.html" target="_top" xlink:title=" ">
<polygon fill="white" stroke="black" points="922.5,-626.5 922.5,-645.5 1044.5,-645.5 1044.5,-626.5 922.5,-626.5"/>
<text text-anchor="middle" x="983.5" y="-633.5" font-family="Helvetica,sans-Serif" font-size="10.00">MeshMaterialCommon.h</text>
</a>
</g>
</g>
<!-- Node1&#45;&gt;Node52 -->
<g id="edge75" class="edge">
<title>Node1&#45;&gt;Node52</title>
<path fill="none" stroke="midnightblue" d="M1016.09,-749.44C1030.97,-741.16 1047.12,-729.12 1055.5,-713 1061.86,-700.78 1062.18,-694.05 1055.5,-682 1047.41,-667.41 1032.4,-656.92 1018.16,-649.76"/>
<polygon fill="midnightblue" stroke="midnightblue" points="1019.55,-646.55 1009,-645.53 1016.61,-652.9 1019.55,-646.55"/>
</g>
<!-- Node54 -->
<g id="node50" class="node">
<title>Node54</title>
<g id="a_node50"><a xlink:href="_mesh_standard_material_8h.html" target="_top" xlink:title=" ">
<polygon fill="white" stroke="black" points="921,-682.5 921,-712.5 1046,-712.5 1046,-682.5 921,-682.5"/>
<text text-anchor="start" x="929" y="-700.5" font-family="Helvetica,sans-Serif" font-size="10.00">kryne&#45;engine/Material</text>
<text text-anchor="middle" x="983.5" y="-689.5" font-family="Helvetica,sans-Serif" font-size="10.00">/MeshStandardMaterial.h</text>
</a>
</g>
</g>
<!-- Node1&#45;&gt;Node54 -->
<g id="edge76" class="edge">
<title>Node1&#45;&gt;Node54</title>
<path fill="none" stroke="midnightblue" d="M983.5,-749.4C983.5,-741.64 983.5,-731.81 983.5,-722.86"/>
<polygon fill="midnightblue" stroke="midnightblue" points="987,-722.58 983.5,-712.58 980,-722.58 987,-722.58"/>
</g>
<!-- Node3 -->
<g id="node3" class="node">
<title>Node3</title>
<g id="a_node3"><a xlink:href="_material_side_8h.html" target="_top" xlink:title=" ">
<polygon fill="white" stroke="black" points="432.5,-492.5 432.5,-522.5 536.5,-522.5 536.5,-492.5 432.5,-492.5"/>
<text text-anchor="start" x="440.5" y="-510.5" font-family="Helvetica,sans-Serif" font-size="10.00">kryne&#45;engine/enums</text>
<text text-anchor="middle" x="484.5" y="-499.5" font-family="Helvetica,sans-Serif" font-size="10.00">/MaterialSide.h</text>
</a>
</g>
</g>
<!-- Node2&#45;&gt;Node3 -->
<g id="edge2" class="edge">
<title>Node2&#45;&gt;Node3</title>
<path fill="none" stroke="midnightblue" d="M610.57,-559.4C586.62,-549.73 554.65,-536.82 528.9,-526.43"/>
<polygon fill="midnightblue" stroke="midnightblue" points="529.95,-523.07 519.37,-522.58 527.33,-529.57 529.95,-523.07"/>
</g>
<!-- Node4 -->
<g id="node4" class="node">
<title>Node4</title>
<g id="a_node4"><a xlink:href="_shader_program_compiler_8h.html" target="_top" xlink:title=" ">
<polygon fill="white" stroke="black" points="554.5,-492.5 554.5,-522.5 688.5,-522.5 688.5,-492.5 554.5,-492.5"/>
<text text-anchor="start" x="562.5" y="-510.5" font-family="Helvetica,sans-Serif" font-size="10.00">kryne&#45;engine/Rendering</text>
<text text-anchor="middle" x="621.5" y="-499.5" font-family="Helvetica,sans-Serif" font-size="10.00">/ShaderProgramCompiler.h</text>
</a>
</g>
</g>
<!-- Node2&#45;&gt;Node4 -->
<g id="edge3" class="edge">
<title>Node2&#45;&gt;Node4</title>
<path fill="none" stroke="midnightblue" d="M640.29,-559.4C637.34,-551.39 633.56,-541.16 630.17,-531.98"/>
<polygon fill="midnightblue" stroke="midnightblue" points="633.44,-530.75 626.7,-522.58 626.88,-533.17 633.44,-530.75"/>
</g>
<!-- Node5 -->
<g id="node5" class="node">
<title>Node5</title>
<g id="a_node5"><a xlink:title=" ">
<polygon fill="white" stroke="#bfbfbf" points="0,-431 0,-450 41,-450 41,-431 0,-431"/>
<text text-anchor="middle" x="20.5" y="-438" font-family="Helvetica,sans-Serif" font-size="10.00">regex</text>
</a>
</g>
</g>
<!-- Node4&#45;&gt;Node5 -->
<g id="edge4" class="edge">
<title>Node4&#45;&gt;Node5</title>
<path fill="none" stroke="midnightblue" d="M554.43,-493.27C551.42,-492.81 548.43,-492.39 545.5,-492 329,-463.49 267.96,-506.43 55.5,-456 52.83,-455.37 50.11,-454.56 47.41,-453.64"/>
<polygon fill="midnightblue" stroke="midnightblue" points="48.53,-450.32 37.94,-450.01 46.02,-456.86 48.53,-450.32"/>
</g>
<!-- Node4&#45;&gt;Node6 -->
<g id="edge5" class="edge">
<title>Node4&#45;&gt;Node6</title>
<path fill="none" stroke="midnightblue" d="M649.93,-492.4C668.98,-482.94 694.28,-470.39 714.98,-460.12"/>
<polygon fill="midnightblue" stroke="midnightblue" points="716.73,-463.16 724.13,-455.58 713.62,-456.89 716.73,-463.16"/>
</g>
<!-- Node9 -->
<g id="node9" class="node">
<title>Node9</title>
<g id="a_node9"><a xlink:href="_dispatcher_8h.html" target="_top" xlink:title=" ">
<polygon fill="white" stroke="black" points="131,-224.5 131,-254.5 244,-254.5 244,-224.5 131,-224.5"/>
<text text-anchor="start" x="139" y="-242.5" font-family="Helvetica,sans-Serif" font-size="10.00">kryne&#45;engine/Dispatch</text>
<text text-anchor="middle" x="187.5" y="-231.5" font-family="Helvetica,sans-Serif" font-size="10.00">/Dispatcher.h</text>
</a>
</g>
</g>
<!-- Node4&#45;&gt;Node9 -->
<g id="edge69" class="edge">
<title>Node4&#45;&gt;Node9</title>
<path fill="none" stroke="midnightblue" d="M564.51,-492.48C472.65,-469.29 296.57,-422.21 241.5,-389 205.44,-367.25 190.62,-360.91 174.5,-322 166.83,-303.47 171.43,-280.85 177.18,-264.14"/>
<polygon fill="midnightblue" stroke="midnightblue" points="180.53,-265.18 180.81,-254.59 173.98,-262.69 180.53,-265.18"/>
</g>
<!-- Node44 -->
<g id="node39" class="node">
<title>Node44</title>
<g id="a_node39"><a xlink:href="_buffer_geometry_8h.html" target="_top" xlink:title=" ">
<polygon fill="white" stroke="black" points="544.5,-358.5 544.5,-388.5 662.5,-388.5 662.5,-358.5 544.5,-358.5"/>
<text text-anchor="start" x="552.5" y="-376.5" font-family="Helvetica,sans-Serif" font-size="10.00">kryne&#45;engine/Geometry</text>
<text text-anchor="middle" x="603.5" y="-365.5" font-family="Helvetica,sans-Serif" font-size="10.00">/BufferGeometry.h</text>
</a>
</g>
</g>
<!-- Node4&#45;&gt;Node44 -->
<g id="edge49" class="edge">
<title>Node4&#45;&gt;Node44</title>
<path fill="none" stroke="midnightblue" d="M619.57,-492.37C616.52,-469.94 610.51,-425.92 606.77,-398.49"/>
<polygon fill="midnightblue" stroke="midnightblue" points="610.23,-397.96 605.41,-388.52 603.3,-398.91 610.23,-397.96"/>
</g>
<!-- Node7 -->
<g id="node7" class="node">
<title>Node7</title>
<g id="a_node7"><a xlink:title=" ">
<polygon fill="white" stroke="#bfbfbf" points="704,-364 704,-383 739,-383 739,-364 704,-364"/>
<text text-anchor="middle" x="721.5" y="-371" font-family="Helvetica,sans-Serif" font-size="10.00">map</text>
</a>
</g>
</g>
<!-- Node6&#45;&gt;Node7 -->
<g id="edge6" class="edge">
<title>Node6&#45;&gt;Node7</title>
<path fill="none" stroke="midnightblue" d="M745.77,-425.4C741.18,-415.76 735.05,-402.91 730.1,-392.54"/>
<polygon fill="midnightblue" stroke="midnightblue" points="733.11,-390.71 725.65,-383.19 726.79,-393.73 733.11,-390.71"/>
</g>
<!-- Node8 -->
<g id="node8" class="node">
<title>Node8</title>
<g id="a_node8"><a xlink:title=" ">
<polygon fill="white" stroke="#bfbfbf" points="757.5,-364 757.5,-383 809.5,-383 809.5,-364 757.5,-364"/>
<text text-anchor="middle" x="783.5" y="-371" font-family="Helvetica,sans-Serif" font-size="10.00">sstream</text>
</a>
</g>
</g>
<!-- Node6&#45;&gt;Node8 -->
<g id="edge7" class="edge">
<title>Node6&#45;&gt;Node8</title>
<path fill="none" stroke="midnightblue" d="M759.23,-425.4C763.82,-415.76 769.95,-402.91 774.9,-392.54"/>
<polygon fill="midnightblue" stroke="midnightblue" points="778.21,-393.73 779.35,-383.19 771.89,-390.71 778.21,-393.73"/>
</g>
<!-- Node6&#45;&gt;Node9 -->
<g id="edge8" class="edge">
<title>Node6&#45;&gt;Node9</title>
<path fill="none" stroke="midnightblue" d="M697.33,-436.49C568.3,-428.2 252.87,-400.18 188.5,-322 175.55,-306.28 176.85,-282.47 180.46,-264.64"/>
<polygon fill="midnightblue" stroke="midnightblue" points="183.92,-265.23 182.84,-254.69 177.11,-263.6 183.92,-265.23"/>
</g>
<!-- Node6&#45;&gt;Node23 -->
<g id="edge19" class="edge">
<title>Node6&#45;&gt;Node23</title>
<path fill="none" stroke="midnightblue" d="M807.57,-429.56C874.55,-417.46 987.06,-397.15 1055.08,-384.87"/>
<polygon fill="midnightblue" stroke="midnightblue" points="1055.97,-388.26 1065.19,-383.04 1054.73,-381.37 1055.97,-388.26"/>
</g>
<!-- Node6&#45;&gt;Node37 -->
<g id="edge38" class="edge">
<title>Node6&#45;&gt;Node37</title>
<path fill="none" stroke="midnightblue" d="M807.66,-434.69C946.95,-422.56 1311.42,-390.8 1446.85,-379"/>
<polygon fill="midnightblue" stroke="midnightblue" points="1447.3,-382.47 1456.96,-378.12 1446.69,-375.5 1447.3,-382.47"/>
</g>
<!-- Node10 -->
<g id="node10" class="node">
<title>Node10</title>
<g id="a_node10"><a xlink:href="_synchronizable_pool_8h.html" target="_top" xlink:title=" ">
<polygon fill="white" stroke="black" points="224,-112.5 224,-131.5 335,-131.5 335,-112.5 224,-112.5"/>
<text text-anchor="middle" x="279.5" y="-119.5" font-family="Helvetica,sans-Serif" font-size="10.00">SynchronizablePool.h</text>
</a>
</g>
</g>
<!-- Node9&#45;&gt;Node10 -->
<g id="edge9" class="edge">
<title>Node9&#45;&gt;Node10</title>
<path fill="none" stroke="midnightblue" d="M194.94,-224.27C202.98,-209.49 216.66,-186.06 231.5,-168 240.36,-157.21 251.7,-146.47 261.13,-138.19"/>
<polygon fill="midnightblue" stroke="midnightblue" points="263.5,-140.77 268.82,-131.6 258.95,-135.45 263.5,-140.77"/>
</g>
<!-- Node21 -->
<g id="node16" class="node">
<title>Node21</title>
<g id="a_node16"><a xlink:href="_runner_pool_8h.html" target="_top" xlink:title=" ">
<polygon fill="white" stroke="black" points="131,-112.5 131,-131.5 206,-131.5 206,-112.5 131,-112.5"/>
<text text-anchor="middle" x="168.5" y="-119.5" font-family="Helvetica,sans-Serif" font-size="10.00">RunnerPool.h</text>
</a>
</g>
</g>
<!-- Node9&#45;&gt;Node21 -->
<g id="edge15" class="edge">
<title>Node9&#45;&gt;Node21</title>
<path fill="none" stroke="midnightblue" d="M185.17,-224.34C181.75,-203.53 175.35,-164.66 171.56,-141.58"/>
<polygon fill="midnightblue" stroke="midnightblue" points="175,-140.97 169.93,-131.67 168.1,-142.1 175,-140.97"/>
</g>
<!-- Node22 -->
<g id="node17" class="node">
<title>Node22</title>
<g id="a_node17"><a xlink:href="_main_pool_8h.html" target="_top" xlink:title=" ">
<polygon fill="white" stroke="black" points="241,-168.5 241,-187.5 306,-187.5 306,-168.5 241,-168.5"/>
<text text-anchor="middle" x="273.5" y="-175.5" font-family="Helvetica,sans-Serif" font-size="10.00">MainPool.h</text>
</a>
</g>
</g>
<!-- Node9&#45;&gt;Node22 -->
<g id="edge17" class="edge">
<title>Node9&#45;&gt;Node22</title>
<path fill="none" stroke="midnightblue" d="M207.88,-224.4C221.41,-215.04 239.11,-202.79 252.72,-193.38"/>
<polygon fill="midnightblue" stroke="midnightblue" points="254.75,-196.23 260.99,-187.66 250.77,-190.47 254.75,-196.23"/>
</g>
<!-- Node11 -->
<g id="node11" class="node">
<title>Node11</title>
<g id="a_node11"><a xlink:href="_thread_pool_8h.html" target="_top" xlink:title=" ">
<polygon fill="white" stroke="red" points="222.5,-56.5 222.5,-75.5 296.5,-75.5 296.5,-56.5 222.5,-56.5"/>
<text text-anchor="middle" x="259.5" y="-63.5" font-family="Helvetica,sans-Serif" font-size="10.00">ThreadPool.h</text>
</a>
</g>
</g>
<!-- Node10&#45;&gt;Node11 -->
<g id="edge10" class="edge">
<title>Node10&#45;&gt;Node11</title>
<path fill="none" stroke="midnightblue" d="M276.2,-112.08C273.52,-104.85 269.65,-94.41 266.31,-85.4"/>
<polygon fill="midnightblue" stroke="midnightblue" points="269.5,-83.91 262.74,-75.75 262.93,-86.34 269.5,-83.91"/>
</g>
<!-- Node12 -->
<g id="node12" class="node">
<title>Node12</title>
<g id="a_node12"><a xlink:title=" ">
<polygon fill="white" stroke="#bfbfbf" points="206.5,-0.5 206.5,-19.5 250.5,-19.5 250.5,-0.5 206.5,-0.5"/>
<text text-anchor="middle" x="228.5" y="-7.5" font-family="Helvetica,sans-Serif" font-size="10.00">thread</text>
</a>
</g>
</g>
<!-- Node11&#45;&gt;Node12 -->
<g id="edge11" class="edge">
<title>Node11&#45;&gt;Node12</title>
<path fill="none" stroke="midnightblue" d="M254.38,-56.08C250.09,-48.61 243.84,-37.72 238.56,-28.52"/>
<polygon fill="midnightblue" stroke="midnightblue" points="241.54,-26.68 233.52,-19.75 235.47,-30.17 241.54,-26.68"/>
</g>
<!-- Node13 -->
<g id="node13" class="node">
<title>Node13</title>
<g id="a_node13"><a xlink:title=" ">
<polygon fill="white" stroke="#bfbfbf" points="268.5,-0.5 268.5,-19.5 312.5,-19.5 312.5,-0.5 268.5,-0.5"/>
<text text-anchor="middle" x="290.5" y="-7.5" font-family="Helvetica,sans-Serif" font-size="10.00">mutex</text>
</a>
</g>
</g>
<!-- Node11&#45;&gt;Node13 -->
<g id="edge12" class="edge">
<title>Node11&#45;&gt;Node13</title>
<path fill="none" stroke="midnightblue" d="M264.62,-56.08C268.91,-48.61 275.16,-37.72 280.44,-28.52"/>
<polygon fill="midnightblue" stroke="midnightblue" points="283.53,-30.17 285.48,-19.75 277.46,-26.68 283.53,-30.17"/>
</g>
<!-- Node16 -->
<g id="node14" class="node">
<title>Node16</title>
<g id="a_node14"><a xlink:title=" ">
<polygon fill="white" stroke="#bfbfbf" points="96.5,-0.5 96.5,-19.5 148.5,-19.5 148.5,-0.5 96.5,-0.5"/>
<text text-anchor="middle" x="122.5" y="-7.5" font-family="Helvetica,sans-Serif" font-size="10.00">memory</text>
</a>
</g>
</g>
<!-- Node11&#45;&gt;Node16 -->
<g id="edge13" class="edge">
<title>Node11&#45;&gt;Node16</title>
<path fill="none" stroke="midnightblue" d="M237.79,-56.44C215.15,-47.52 179.43,-33.44 153.75,-23.32"/>
<polygon fill="midnightblue" stroke="midnightblue" points="154.69,-19.93 144.11,-19.52 152.13,-26.44 154.69,-19.93"/>
</g>
<!-- Node17 -->
<g id="node15" class="node">
<title>Node17</title>
<g id="a_node15"><a xlink:title=" ">
<polygon fill="white" stroke="#bfbfbf" points="1380.5,-0.5 1380.5,-19.5 1434.5,-19.5 1434.5,-0.5 1380.5,-0.5"/>
<text text-anchor="middle" x="1407.5" y="-7.5" font-family="Helvetica,sans-Serif" font-size="10.00">iostream</text>
</a>
</g>
</g>
<!-- Node11&#45;&gt;Node17 -->
<g id="edge14" class="edge">
<title>Node11&#45;&gt;Node17</title>
<path fill="none" stroke="midnightblue" d="M296.72,-63.25C470.05,-55.1 1196.99,-20.9 1370.29,-12.75"/>
<polygon fill="midnightblue" stroke="midnightblue" points="1370.62,-16.24 1380.44,-12.27 1370.29,-9.25 1370.62,-16.24"/>
</g>
<!-- Node21&#45;&gt;Node11 -->
<g id="edge16" class="edge">
<title>Node21&#45;&gt;Node11</title>
<path fill="none" stroke="midnightblue" d="M183.12,-112.32C197.45,-103.82 219.51,-90.73 236.25,-80.8"/>
<polygon fill="midnightblue" stroke="midnightblue" points="238.1,-83.77 244.92,-75.65 234.53,-77.75 238.1,-83.77"/>
</g>
<!-- Node22&#45;&gt;Node10 -->
<g id="edge18" class="edge">
<title>Node22&#45;&gt;Node10</title>
<path fill="none" stroke="midnightblue" d="M274.49,-168.08C275.29,-160.93 276.43,-150.64 277.42,-141.69"/>
<polygon fill="midnightblue" stroke="midnightblue" points="280.9,-142.08 278.53,-131.75 273.94,-141.3 280.9,-142.08"/>
</g>
<!-- Node24 -->
<g id="node19" class="node">
<title>Node24</title>
<g id="a_node19"><a xlink:title=" ">
<polygon fill="white" stroke="#bfbfbf" points="1436,-230 1436,-249 1477,-249 1477,-230 1436,-230"/>
<text text-anchor="middle" x="1456.5" y="-237" font-family="Helvetica,sans-Serif" font-size="10.00">string</text>
</a>
</g>
</g>
<!-- Node23&#45;&gt;Node24 -->
<g id="edge20" class="edge">
<title>Node23&#45;&gt;Node24</title>
<path fill="none" stroke="midnightblue" d="M1160.58,-371.74C1242.09,-369.41 1402.37,-359.99 1441.5,-322 1458.08,-305.9 1459.76,-277.91 1458.71,-259.29"/>
<polygon fill="midnightblue" stroke="midnightblue" points="1462.18,-258.76 1457.81,-249.1 1455.2,-259.37 1462.18,-258.76"/>
</g>
<!-- Node25 -->
<g id="node20" class="node">
<title>Node25</title>
<g id="a_node20"><a xlink:title=" ">
<polygon fill="white" stroke="#bfbfbf" points="1071,-297 1071,-316 1154,-316 1154,-297 1071,-297"/>
<text text-anchor="middle" x="1112.5" y="-304" font-family="Helvetica,sans-Serif" font-size="10.00">unordered_map</text>
</a>
</g>
</g>
<!-- Node23&#45;&gt;Node25 -->
<g id="edge21" class="edge">
<title>Node23&#45;&gt;Node25</title>
<path fill="none" stroke="midnightblue" d="M1112.5,-363.73C1112.5,-354.18 1112.5,-338.62 1112.5,-326.28"/>
<polygon fill="midnightblue" stroke="midnightblue" points="1116,-326.13 1112.5,-316.13 1109,-326.13 1116,-326.13"/>
</g>
<!-- Node26 -->
<g id="node21" class="node">
<title>Node26</title>
<g id="a_node21"><a xlink:title=" ">
<polygon fill="white" stroke="#bfbfbf" points="898.5,-230 898.5,-249 962.5,-249 962.5,-230 898.5,-230"/>
<text text-anchor="middle" x="930.5" y="-237" font-family="Helvetica,sans-Serif" font-size="10.00">glad/glad.h</text>
</a>
</g>
</g>
<!-- Node23&#45;&gt;Node26 -->
<g id="edge22" class="edge">
<title>Node23&#45;&gt;Node26</title>
<path fill="none" stroke="midnightblue" d="M1064.43,-372.66C1023.99,-369.98 968.01,-359.14 937.5,-322 923.17,-304.55 923.94,-277.34 926.58,-259.22"/>
<polygon fill="midnightblue" stroke="midnightblue" points="930.04,-259.74 928.35,-249.28 923.15,-258.52 930.04,-259.74"/>
</g>
<!-- Node27 -->
<g id="node22" class="node">
<title>Node27</title>
<g id="a_node22"><a xlink:title=" ">
<polygon fill="white" stroke="#bfbfbf" points="980.5,-230 980.5,-249 1058.5,-249 1058.5,-230 980.5,-230"/>
<text text-anchor="middle" x="1019.5" y="-237" font-family="Helvetica,sans-Serif" font-size="10.00">GLFW/glfw3.h</text>
</a>
</g>
</g>
<!-- Node23&#45;&gt;Node27 -->
<g id="edge23" class="edge">
<title>Node23&#45;&gt;Node27</title>
<path fill="none" stroke="midnightblue" d="M1160.66,-365.68C1219.28,-355.4 1306.39,-332.59 1271.5,-291 1241.91,-255.73 1112.28,-265.67 1067.5,-255 1063.61,-254.07 1059.57,-253.01 1055.56,-251.89"/>
<polygon fill="midnightblue" stroke="midnightblue" points="1056.33,-248.47 1045.75,-249.04 1054.38,-255.2 1056.33,-248.47"/>
</g>
<!-- Node28 -->
<g id="node23" class="node">
<title>Node28</title>
<g id="a_node23"><a xlink:title=" ">
<polygon fill="white" stroke="#bfbfbf" points="534.5,-230 534.5,-249 620.5,-249 620.5,-230 534.5,-230"/>
<text text-anchor="middle" x="577.5" y="-237" font-family="Helvetica,sans-Serif" font-size="10.00">glm/mat4x4.hpp</text>
</a>
</g>
</g>
<!-- Node23&#45;&gt;Node28 -->
<g id="edge24" class="edge">
<title>Node23&#45;&gt;Node28</title>
<path fill="none" stroke="midnightblue" d="M1064.35,-367.86C1001.69,-361.13 889.13,-346.69 795.5,-322 725.48,-303.53 646.65,-270.98 605.67,-253.11"/>
<polygon fill="midnightblue" stroke="midnightblue" points="606.89,-249.83 596.33,-249.01 604.08,-256.23 606.89,-249.83"/>
</g>
<!-- Node29 -->
<g id="node24" class="node">
<title>Node29</title>
<g id="a_node24"><a xlink:title=" ">
<polygon fill="white" stroke="#bfbfbf" points="946.5,-297 946.5,-316 1052.5,-316 1052.5,-297 946.5,-297"/>
<text text-anchor="middle" x="999.5" y="-304" font-family="Helvetica,sans-Serif" font-size="10.00">glm/gtc/type_ptr.hpp</text>
</a>
</g>
</g>
<!-- Node23&#45;&gt;Node29 -->
<g id="edge25" class="edge">
<title>Node23&#45;&gt;Node29</title>
<path fill="none" stroke="midnightblue" d="M1097.26,-363.73C1078.28,-352.82 1045.65,-334.05 1023.35,-321.22"/>
<polygon fill="midnightblue" stroke="midnightblue" points="1024.91,-318.08 1014.5,-316.13 1021.42,-324.15 1024.91,-318.08"/>
</g>
<!-- Node30 -->
<g id="node25" class="node">
<title>Node30</title>
<g id="a_node25"><a xlink:title=" ">
<polygon fill="white" stroke="#bfbfbf" points="1172.5,-297 1172.5,-316 1262.5,-316 1262.5,-297 1172.5,-297"/>
<text text-anchor="middle" x="1217.5" y="-304" font-family="Helvetica,sans-Serif" font-size="10.00">boost/variant.hpp</text>
</a>
</g>
</g>
<!-- Node23&#45;&gt;Node30 -->
<g id="edge26" class="edge">
<title>Node23&#45;&gt;Node30</title>
<path fill="none" stroke="midnightblue" d="M1126.66,-363.73C1144.21,-352.87 1174.34,-334.22 1195.06,-321.39"/>
<polygon fill="midnightblue" stroke="midnightblue" points="1196.9,-324.37 1203.56,-316.13 1193.22,-318.41 1196.9,-324.37"/>
</g>
<!-- Node31 -->
<g id="node26" class="node">
<title>Node31</title>
<g id="a_node26"><a xlink:href="_texture_8h.html" target="_top" xlink:title=" ">
<polygon fill="white" stroke="black" points="1319,-291.5 1319,-321.5 1432,-321.5 1432,-291.5 1319,-291.5"/>
<text text-anchor="start" x="1327" y="-309.5" font-family="Helvetica,sans-Serif" font-size="10.00">kryne&#45;engine/Textures</text>
<text text-anchor="middle" x="1375.5" y="-298.5" font-family="Helvetica,sans-Serif" font-size="10.00">/Texture.h</text>
</a>
</g>
</g>
<!-- Node23&#45;&gt;Node31 -->
<g id="edge27" class="edge">
<title>Node23&#45;&gt;Node31</title>
<path fill="none" stroke="midnightblue" d="M1147.15,-363.94C1188.17,-353.8 1257.39,-336.69 1308.89,-323.96"/>
<polygon fill="midnightblue" stroke="midnightblue" points="1309.75,-327.36 1318.61,-321.56 1308.07,-320.56 1309.75,-327.36"/>
</g>
<!-- Node31&#45;&gt;Node9 -->
<g id="edge37" class="edge">
<title>Node31&#45;&gt;Node9</title>
<path fill="none" stroke="midnightblue" d="M1318.95,-296.54C1303.59,-294.4 1286.94,-292.35 1271.5,-291 823.79,-251.98 704.39,-310.93 254.29,-254.91"/>
<polygon fill="midnightblue" stroke="midnightblue" points="254.63,-251.43 244.27,-253.65 253.75,-258.37 254.63,-251.43"/>
</g>
<!-- Node31&#45;&gt;Node17 -->
<g id="edge30" class="edge">
<title>Node31&#45;&gt;Node17</title>
<path fill="none" stroke="midnightblue" d="M1381.52,-291.38C1390.79,-268.31 1407.5,-220.91 1407.5,-179 1407.5,-179 1407.5,-179 1407.5,-121 1407.5,-88.95 1407.5,-51.64 1407.5,-29.75"/>
<polygon fill="midnightblue" stroke="midnightblue" points="1411,-29.56 1407.5,-19.56 1404,-29.56 1411,-29.56"/>
</g>
<!-- Node31&#45;&gt;Node24 -->
<g id="edge29" class="edge">
<title>Node31&#45;&gt;Node24</title>
<path fill="none" stroke="midnightblue" d="M1393.08,-291.4C1406.21,-280.86 1424.13,-266.48 1437.57,-255.69"/>
<polygon fill="midnightblue" stroke="midnightblue" points="1440.06,-258.18 1445.67,-249.19 1435.68,-252.72 1440.06,-258.18"/>
</g>
<!-- Node31&#45;&gt;Node26 -->
<g id="edge35" class="edge">
<title>Node31&#45;&gt;Node26</title>
<path fill="none" stroke="midnightblue" d="M1318.85,-297.4C1303.49,-295.26 1286.87,-292.99 1271.5,-291 1138.33,-273.73 1102.26,-285.57 971.5,-255 968.27,-254.24 964.93,-253.32 961.63,-252.31"/>
<polygon fill="midnightblue" stroke="midnightblue" points="962.53,-248.92 951.94,-249.08 960.32,-255.56 962.53,-248.92"/>
</g>
<!-- Node31&#45;&gt;Node27 -->
<g id="edge36" class="edge">
<title>Node31&#45;&gt;Node27</title>
<path fill="none" stroke="midnightblue" d="M1318.97,-293.69C1314.08,-292.75 1309.21,-291.84 1304.5,-291 1199.61,-272.33 1171.43,-278.46 1067.5,-255 1063.39,-254.07 1059.12,-252.98 1054.9,-251.81"/>
<polygon fill="midnightblue" stroke="midnightblue" points="1055.81,-248.43 1045.23,-249.01 1053.86,-255.15 1055.81,-248.43"/>
</g>
<!-- Node32 -->
<g id="node27" class="node">
<title>Node32</title>
<g id="a_node27"><a xlink:title=" ">
<polygon fill="white" stroke="#bfbfbf" points="1076.5,-230 1076.5,-249 1146.5,-249 1146.5,-230 1076.5,-230"/>
<text text-anchor="middle" x="1111.5" y="-237" font-family="Helvetica,sans-Serif" font-size="10.00">stb_image.h</text>
</a>
</g>
</g>
<!-- Node31&#45;&gt;Node32 -->
<g id="edge28" class="edge">
<title>Node31&#45;&gt;Node32</title>
<path fill="none" stroke="midnightblue" d="M1318.91,-293.83C1274.49,-284.35 1211.23,-270.1 1156.5,-255 1153.15,-254.08 1149.69,-253.06 1146.23,-252.01"/>
<polygon fill="midnightblue" stroke="midnightblue" points="1147.2,-248.65 1136.61,-249.01 1145.11,-255.33 1147.2,-248.65"/>
</g>
<!-- Node33 -->
<g id="node28" class="node">
<title>Node33</title>
<g id="a_node28"><a xlink:title=" ">
<polygon fill="white" stroke="#bfbfbf" points="1165,-230 1165,-249 1272,-249 1272,-230 1165,-230"/>
<text text-anchor="middle" x="1218.5" y="-237" font-family="Helvetica,sans-Serif" font-size="10.00">boost/filesystem.hpp</text>
</a>
</g>
</g>
<!-- Node31&#45;&gt;Node33 -->
<g id="edge31" class="edge">
<title>Node31&#45;&gt;Node33</title>
<path fill="none" stroke="midnightblue" d="M1341.43,-291.4C1313.76,-279.94 1275.11,-263.94 1248.58,-252.95"/>
<polygon fill="midnightblue" stroke="midnightblue" points="1249.63,-249.6 1239.05,-249.01 1246.95,-256.07 1249.63,-249.6"/>
</g>
<!-- Node34 -->
<g id="node29" class="node">
<title>Node34</title>
<g id="a_node29"><a xlink:title=" ">
<polygon fill="white" stroke="#bfbfbf" points="1290,-230 1290,-249 1379,-249 1379,-230 1290,-230"/>
<text text-anchor="middle" x="1334.5" y="-237" font-family="Helvetica,sans-Serif" font-size="10.00">boost/format.hpp</text>
</a>
</g>
</g>
<!-- Node31&#45;&gt;Node34 -->
<g id="edge32" class="edge">
<title>Node31&#45;&gt;Node34</title>
<path fill="none" stroke="midnightblue" d="M1366.6,-291.4C1360.4,-281.56 1352.08,-268.38 1345.47,-257.89"/>
<polygon fill="midnightblue" stroke="midnightblue" points="1348.28,-255.79 1339.98,-249.19 1342.36,-259.52 1348.28,-255.79"/>
</g>
<!-- Node35 -->
<g id="node30" class="node">
<title>Node35</title>
<g id="a_node30"><a xlink:title=" ">
<polygon fill="white" stroke="#bfbfbf" points="806.5,-230 806.5,-249 880.5,-249 880.5,-230 806.5,-230"/>
<text text-anchor="middle" x="843.5" y="-237" font-family="Helvetica,sans-Serif" font-size="10.00">glm/vec2.hpp</text>
</a>
</g>
</g>
<!-- Node31&#45;&gt;Node35 -->
<g id="edge33" class="edge">
<title>Node31&#45;&gt;Node35</title>
<path fill="none" stroke="midnightblue" d="M1318.88,-297.14C1303.53,-295 1286.89,-292.8 1271.5,-291 1102.12,-271.22 1056.64,-288.82 889.5,-255 885.55,-254.2 881.46,-253.19 877.42,-252.07"/>
<polygon fill="midnightblue" stroke="midnightblue" points="878.18,-248.65 867.6,-249.15 876.18,-255.36 878.18,-248.65"/>
</g>
<!-- Node36 -->
<g id="node31" class="node">
<title>Node36</title>
<g id="a_node31"><a xlink:title=" ">
<polygon fill="white" stroke="#bfbfbf" points="638.5,-230 638.5,-249 712.5,-249 712.5,-230 638.5,-230"/>
<text text-anchor="middle" x="675.5" y="-237" font-family="Helvetica,sans-Serif" font-size="10.00">glm/vec3.hpp</text>
</a>
</g>
</g>
<!-- Node31&#45;&gt;Node36 -->
<g id="edge34" class="edge">
<title>Node31&#45;&gt;Node36</title>
<path fill="none" stroke="midnightblue" d="M1318.91,-296.95C1303.55,-294.81 1286.91,-292.66 1271.5,-291 1061.44,-268.4 1007.78,-275.47 797.5,-255 772.74,-252.59 745.22,-249.37 722.59,-246.57"/>
<polygon fill="midnightblue" stroke="midnightblue" points="722.92,-243.08 712.56,-245.32 722.05,-250.03 722.92,-243.08"/>
</g>
<!-- Node37&#45;&gt;Node17 -->
<g id="edge42" class="edge">
<title>Node37&#45;&gt;Node17</title>
<path fill="none" stroke="midnightblue" d="M1540.3,-365.92C1569.29,-359.35 1606.96,-346.53 1631.5,-322 1658.91,-294.6 1662.5,-279.25 1662.5,-240.5 1662.5,-240.5 1662.5,-240.5 1662.5,-121 1662.5,-27.45 1516,-12.52 1445.08,-10.77"/>
<polygon fill="midnightblue" stroke="midnightblue" points="1444.85,-7.27 1434.79,-10.6 1444.73,-14.27 1444.85,-7.27"/>
</g>
<!-- Node37&#45;&gt;Node24 -->
<g id="edge40" class="edge">
<title>Node37&#45;&gt;Node24</title>
<path fill="none" stroke="midnightblue" d="M1496.13,-363.89C1492,-348.96 1483.08,-317.37 1474.5,-291 1470.99,-280.2 1466.73,-268.21 1463.24,-258.63"/>
<polygon fill="midnightblue" stroke="midnightblue" points="1466.44,-257.2 1459.7,-249.03 1459.87,-259.62 1466.44,-257.2"/>
</g>
<!-- Node37&#45;&gt;Node25 -->
<g id="edge39" class="edge">
<title>Node37&#45;&gt;Node25</title>
<path fill="none" stroke="midnightblue" d="M1456.93,-367.96C1393.3,-360.63 1268.12,-344.66 1163.5,-322 1159.08,-321.04 1154.48,-319.92 1149.92,-318.73"/>
<polygon fill="midnightblue" stroke="midnightblue" points="1150.7,-315.31 1140.13,-316.05 1148.85,-322.06 1150.7,-315.31"/>
</g>
<!-- Node38 -->
<g id="node33" class="node">
<title>Node38</title>
<g id="a_node33"><a xlink:title=" ">
<polygon fill="white" stroke="#bfbfbf" points="1691,-297 1691,-316 1740,-316 1740,-297 1691,-297"/>
<text text-anchor="middle" x="1715.5" y="-304" font-family="Helvetica,sans-Serif" font-size="10.00">fstream</text>
</a>
</g>
</g>
<!-- Node37&#45;&gt;Node38 -->
<g id="edge41" class="edge">
<title>Node37&#45;&gt;Node38</title>
<path fill="none" stroke="midnightblue" d="M1531.54,-363.97C1567.46,-354.5 1626.43,-338.38 1676.5,-322 1678.9,-321.21 1681.38,-320.37 1683.86,-319.5"/>
<polygon fill="midnightblue" stroke="midnightblue" points="1685.11,-322.77 1693.33,-316.09 1682.74,-316.19 1685.11,-322.77"/>
</g>
<!-- Node39 -->
<g id="node34" class="node">
<title>Node39</title>
<g id="a_node34"><a xlink:href="kryne-engine_2_utils_2_utils_8h.html" target="_top" xlink:title=" ">
<polygon fill="white" stroke="black" points="1527,-291.5 1527,-321.5 1622,-321.5 1622,-291.5 1527,-291.5"/>
<text text-anchor="start" x="1535" y="-309.5" font-family="Helvetica,sans-Serif" font-size="10.00">kryne&#45;engine/Utils</text>
<text text-anchor="middle" x="1574.5" y="-298.5" font-family="Helvetica,sans-Serif" font-size="10.00">/Utils.h</text>
</a>
</g>
</g>
<!-- Node37&#45;&gt;Node39 -->
<g id="edge43" class="edge">
<title>Node37&#45;&gt;Node39</title>
<path fill="none" stroke="midnightblue" d="M1508.75,-363.73C1519.32,-354.7 1536.18,-340.27 1550.18,-328.3"/>
<polygon fill="midnightblue" stroke="midnightblue" points="1552.7,-330.75 1558.03,-321.59 1548.15,-325.43 1552.7,-330.75"/>
</g>
<!-- Node40 -->
<g id="node35" class="node">
<title>Node40</title>
<g id="a_node35"><a xlink:href="_string_utils_8hpp.html" target="_top" xlink:title=" ">
<polygon fill="white" stroke="black" points="1517.5,-112.5 1517.5,-131.5 1597.5,-131.5 1597.5,-112.5 1517.5,-112.5"/>
<text text-anchor="middle" x="1557.5" y="-119.5" font-family="Helvetica,sans-Serif" font-size="10.00">StringUtils.hpp</text>
</a>
</g>
</g>
<!-- Node39&#45;&gt;Node40 -->
<g id="edge44" class="edge">
<title>Node39&#45;&gt;Node40</title>
<path fill="none" stroke="midnightblue" d="M1586.04,-291.49C1593.19,-281.88 1601.7,-268.46 1605.5,-255 1616.01,-217.79 1620.87,-203.48 1605.5,-168 1600.23,-155.84 1589.88,-145.46 1580.14,-137.74"/>
<polygon fill="midnightblue" stroke="midnightblue" points="1582,-134.77 1571.87,-131.67 1577.86,-140.41 1582,-134.77"/>
</g>
<!-- Node41 -->
<g id="node36" class="node">
<title>Node41</title>
<g id="a_node36"><a xlink:href="_vector_mapping_8hpp.html" target="_top" xlink:title=" ">
<polygon fill="white" stroke="black" points="1495,-230 1495,-249 1596,-249 1596,-230 1495,-230"/>
<text text-anchor="middle" x="1545.5" y="-237" font-family="Helvetica,sans-Serif" font-size="10.00">VectorMapping.hpp</text>
</a>
</g>
</g>
<!-- Node39&#45;&gt;Node41 -->
<g id="edge46" class="edge">
<title>Node39&#45;&gt;Node41</title>
<path fill="none" stroke="midnightblue" d="M1568.21,-291.4C1563.91,-281.76 1558.18,-268.91 1553.55,-258.54"/>
<polygon fill="midnightblue" stroke="midnightblue" points="1556.65,-256.9 1549.38,-249.19 1550.26,-259.75 1556.65,-256.9"/>
</g>
<!-- Node40&#45;&gt;Node17 -->
<g id="edge45" class="edge">
<title>Node40&#45;&gt;Node17</title>
<path fill="none" stroke="midnightblue" d="M1545.73,-112.37C1520.1,-93.57 1459,-48.77 1427.32,-25.53"/>
<polygon fill="midnightblue" stroke="midnightblue" points="1429.35,-22.68 1419.22,-19.59 1425.21,-28.33 1429.35,-22.68"/>
</g>
<!-- Node42 -->
<g id="node37" class="node">
<title>Node42</title>
<g id="a_node37"><a xlink:title=" ">
<polygon fill="white" stroke="#bfbfbf" points="1053.5,-168.5 1053.5,-187.5 1095.5,-187.5 1095.5,-168.5 1053.5,-168.5"/>
<text text-anchor="middle" x="1074.5" y="-175.5" font-family="Helvetica,sans-Serif" font-size="10.00">vector</text>
</a>
</g>
</g>
<!-- Node41&#45;&gt;Node42 -->
<g id="edge47" class="edge">
<title>Node41&#45;&gt;Node42</title>
<path fill="none" stroke="midnightblue" d="M1514.13,-229.97C1505.25,-227.78 1495.54,-225.6 1486.5,-224 1345.6,-199.1 1174.99,-185.73 1105.85,-181"/>
<polygon fill="midnightblue" stroke="midnightblue" points="1105.86,-177.5 1095.65,-180.32 1105.39,-184.48 1105.86,-177.5"/>
</g>
<!-- Node43 -->
<g id="node38" class="node">
<title>Node43</title>
<g id="a_node38"><a xlink:title=" ">
<polygon fill="white" stroke="#bfbfbf" points="1483,-168.5 1483,-187.5 1596,-187.5 1596,-168.5 1483,-168.5"/>
<text text-anchor="middle" x="1539.5" y="-175.5" font-family="Helvetica,sans-Serif" font-size="10.00">glm/detail/qualifier.hpp</text>
</a>
</g>
</g>
<!-- Node41&#45;&gt;Node43 -->
<g id="edge48" class="edge">
<title>Node41&#45;&gt;Node43</title>
<path fill="none" stroke="midnightblue" d="M1544.64,-229.98C1543.79,-221.58 1542.47,-208.48 1541.38,-197.66"/>
<polygon fill="midnightblue" stroke="midnightblue" points="1544.84,-197.11 1540.36,-187.51 1537.88,-197.81 1544.84,-197.11"/>
</g>
<!-- Node44&#45;&gt;Node9 -->
<g id="edge58" class="edge">
<title>Node44&#45;&gt;Node9</title>
<path fill="none" stroke="midnightblue" d="M544.43,-372.72C446.93,-371.83 258.22,-364.5 209.5,-322 193.34,-307.91 188.47,-283.31 187.26,-264.81"/>
<polygon fill="midnightblue" stroke="midnightblue" points="190.75,-264.62 186.91,-254.75 183.76,-264.87 190.75,-264.62"/>
</g>
<!-- Node44&#45;&gt;Node16 -->
<g id="edge51" class="edge">
<title>Node44&#45;&gt;Node16</title>
<path fill="none" stroke="midnightblue" d="M544.2,-370.03C444.9,-365.11 249.84,-351.87 188.5,-322 121.82,-289.52 102.5,-253.16 102.5,-179 102.5,-179 102.5,-179 102.5,-121 102.5,-88.44 111.09,-51.32 117.01,-29.59"/>
<polygon fill="midnightblue" stroke="midnightblue" points="120.44,-30.32 119.8,-19.74 113.71,-28.41 120.44,-30.32"/>
</g>
<!-- Node44&#45;&gt;Node17 -->
<g id="edge52" class="edge">
<title>Node44&#45;&gt;Node17</title>
<path fill="none" stroke="midnightblue" d="M622.1,-358.48C634.57,-348.76 651.09,-335.23 664.5,-322 715.73,-271.45 740.5,-250.97 740.5,-179 740.5,-179 740.5,-179 740.5,-121 740.5,-56.73 1228.82,-21.91 1369.81,-13.2"/>
<polygon fill="midnightblue" stroke="midnightblue" points="1370.34,-16.67 1380.11,-12.57 1369.91,-9.68 1370.34,-16.67"/>
</g>
<!-- Node44&#45;&gt;Node25 -->
<g id="edge53" class="edge">
<title>Node44&#45;&gt;Node25</title>
<path fill="none" stroke="midnightblue" d="M662.66,-362.54C673.24,-360.91 684.19,-359.33 694.5,-358 857.06,-337.1 900.48,-352.53 1061.5,-322 1066.28,-321.09 1071.26,-319.94 1076.15,-318.69"/>
<polygon fill="midnightblue" stroke="midnightblue" points="1077.25,-322.02 1085.98,-316.01 1075.41,-315.26 1077.25,-322.02"/>
</g>
<!-- Node44&#45;&gt;Node35 -->
<g id="edge55" class="edge">
<title>Node44&#45;&gt;Node35</title>
<path fill="none" stroke="midnightblue" d="M662.45,-358.47C690.84,-350.25 724.67,-338.25 752.5,-322 782.99,-304.19 812.31,-275.07 829.09,-256.89"/>
<polygon fill="midnightblue" stroke="midnightblue" points="831.77,-259.15 835.87,-249.38 826.57,-254.46 831.77,-259.15"/>
</g>
<!-- Node44&#45;&gt;Node36 -->
<g id="edge56" class="edge">
<title>Node44&#45;&gt;Node36</title>
<path fill="none" stroke="midnightblue" d="M616.23,-358.23C624.46,-348.5 635,-335.07 642.5,-322 654.22,-301.58 663.8,-276.19 669.56,-259.22"/>
<polygon fill="midnightblue" stroke="midnightblue" points="672.98,-260.02 672.78,-249.43 666.33,-257.84 672.98,-260.02"/>
</g>
<!-- Node45 -->
<g id="node40" class="node">
<title>Node45</title>
<g id="a_node40"><a xlink:title=" ">
<polygon fill="white" stroke="#bfbfbf" points="386.5,-297 386.5,-316 442.5,-316 442.5,-297 386.5,-297"/>
<text text-anchor="middle" x="414.5" y="-304" font-family="Helvetica,sans-Serif" font-size="10.00">algorithm</text>
</a>
</g>
</g>
<!-- Node44&#45;&gt;Node45 -->
<g id="edge50" class="edge">
<title>Node44&#45;&gt;Node45</title>
<path fill="none" stroke="midnightblue" d="M559.06,-358.42C528.64,-348.61 487.45,-335.01 451.5,-322 449.6,-321.31 447.66,-320.59 445.69,-319.86"/>
<polygon fill="midnightblue" stroke="midnightblue" points="446.54,-316.44 435.95,-316.13 444.04,-322.97 446.54,-316.44"/>
</g>
<!-- Node20 -->
<g id="node41" class="node">
<title>Node20</title>
<g id="a_node41"><a xlink:title=" ">
<polygon fill="white" stroke="#bfbfbf" points="460.5,-297 460.5,-316 518.5,-316 518.5,-297 460.5,-297"/>
<text text-anchor="middle" x="489.5" y="-304" font-family="Helvetica,sans-Serif" font-size="10.00">functional</text>
</a>
</g>
</g>
<!-- Node44&#45;&gt;Node20 -->
<g id="edge54" class="edge">
<title>Node44&#45;&gt;Node20</title>
<path fill="none" stroke="midnightblue" d="M578.76,-358.4C559.29,-347.29 532.33,-331.92 513.15,-320.98"/>
<polygon fill="midnightblue" stroke="midnightblue" points="514.84,-317.92 504.42,-316.01 511.37,-324 514.84,-317.92"/>
</g>
<!-- Node46 -->
<g id="node42" class="node">
<title>Node46</title>
<g id="a_node42"><a xlink:title=" ">
<polygon fill="white" stroke="#bfbfbf" points="537,-297 537,-316 634,-316 634,-297 537,-297"/>
<text text-anchor="middle" x="585.5" y="-304" font-family="Helvetica,sans-Serif" font-size="10.00">glm/geometric.hpp</text>
</a>
</g>
</g>
<!-- Node44&#45;&gt;Node46 -->
<g id="edge57" class="edge">
<title>Node44&#45;&gt;Node46</title>
<path fill="none" stroke="midnightblue" d="M599.59,-358.4C596.95,-348.86 593.44,-336.18 590.58,-325.86"/>
<polygon fill="midnightblue" stroke="midnightblue" points="593.95,-324.9 587.91,-316.19 587.2,-326.77 593.95,-324.9"/>
</g>
<!-- Node47 -->
<g id="node43" class="node">
<title>Node47</title>
<g id="a_node43"><a xlink:href="_sphere_8hpp.html" target="_top" xlink:title=" ">
<polygon fill="white" stroke="black" points="219,-297 219,-316 368,-316 368,-297 219,-297"/>
<text text-anchor="middle" x="293.5" y="-304" font-family="Helvetica,sans-Serif" font-size="10.00">kryne&#45;engine/Math/Sphere.hpp</text>
</a>
</g>
</g>
<!-- Node44&#45;&gt;Node47 -->
<g id="edge59" class="edge">
<title>Node44&#45;&gt;Node47</title>
<path fill="none" stroke="midnightblue" d="M544.46,-360.12C486.41,-347.95 398.76,-329.57 343.9,-318.07"/>
<polygon fill="midnightblue" stroke="midnightblue" points="344.55,-314.63 334.05,-316 343.12,-321.48 344.55,-314.63"/>
</g>
<!-- Node50 -->
<g id="node46" class="node">
<title>Node50</title>
<g id="a_node46"><a xlink:href="_buffer_attribute_8h.html" target="_top" xlink:title=" ">
<polygon fill="white" stroke="black" points="804.5,-297 804.5,-316 890.5,-316 890.5,-297 804.5,-297"/>
<text text-anchor="middle" x="847.5" y="-304" font-family="Helvetica,sans-Serif" font-size="10.00">BufferAttribute.h</text>
</a>
</g>
</g>
<!-- Node44&#45;&gt;Node50 -->
<g id="edge64" class="edge">
<title>Node44&#45;&gt;Node50</title>
<path fill="none" stroke="midnightblue" d="M656.14,-358.48C700.92,-346.55 764.37,-329.64 805.73,-318.63"/>
<polygon fill="midnightblue" stroke="midnightblue" points="806.72,-321.98 815.48,-316.03 804.92,-315.22 806.72,-321.98"/>
</g>
<!-- Node47&#45;&gt;Node28 -->
<g id="edge61" class="edge">
<title>Node47&#45;&gt;Node28</title>
<path fill="none" stroke="midnightblue" d="M335.8,-296.94C382.24,-287.38 458.92,-271.13 524.5,-255 528.67,-253.97 533.01,-252.86 537.33,-251.72"/>
<polygon fill="midnightblue" stroke="midnightblue" points="538.55,-255.02 547.3,-249.05 536.74,-248.26 538.55,-255.02"/>
</g>
<!-- Node47&#45;&gt;Node36 -->
<g id="edge60" class="edge">
<title>Node47&#45;&gt;Node36</title>
<path fill="none" stroke="midnightblue" d="M341.43,-296.98C353.22,-294.95 365.81,-292.84 377.5,-291 489.26,-273.38 519.18,-280.09 629.5,-255 633.34,-254.13 637.32,-253.08 641.26,-251.97"/>
<polygon fill="midnightblue" stroke="midnightblue" points="642.31,-255.31 650.88,-249.08 640.29,-248.6 642.31,-255.31"/>
</g>
<!-- Node48 -->
<g id="node44" class="node">
<title>Node48</title>
<g id="a_node44"><a xlink:title=" ">
<polygon fill="white" stroke="#bfbfbf" points="262.5,-230 262.5,-249 354.5,-249 354.5,-230 262.5,-230"/>
<text text-anchor="middle" x="308.5" y="-237" font-family="Helvetica,sans-Serif" font-size="10.00">glm/gtx/norm.hpp</text>
</a>
</g>
</g>
<!-- Node47&#45;&gt;Node48 -->
<g id="edge62" class="edge">
<title>Node47&#45;&gt;Node48</title>
<path fill="none" stroke="midnightblue" d="M295.52,-296.73C297.75,-287.09 301.39,-271.3 304.25,-258.91"/>
<polygon fill="midnightblue" stroke="midnightblue" points="307.67,-259.66 306.51,-249.13 300.85,-258.08 307.67,-259.66"/>
</g>
<!-- Node49 -->
<g id="node45" class="node">
<title>Node49</title>
<g id="a_node45"><a xlink:title=" ">
<polygon fill="white" stroke="#bfbfbf" points="373,-230 373,-249 516,-249 516,-230 373,-230"/>
<text text-anchor="middle" x="444.5" y="-237" font-family="Helvetica,sans-Serif" font-size="10.00">glm/gtx/component_wise.hpp</text>
</a>
</g>
</g>
<!-- Node47&#45;&gt;Node49 -->
<g id="edge63" class="edge">
<title>Node47&#45;&gt;Node49</title>
<path fill="none" stroke="midnightblue" d="M313.55,-296.87C339.5,-285.7 384.92,-266.15 414.86,-253.26"/>
<polygon fill="midnightblue" stroke="midnightblue" points="416.56,-256.34 424.37,-249.17 413.8,-249.91 416.56,-256.34"/>
</g>
<!-- Node50&#45;&gt;Node24 -->
<g id="edge66" class="edge">
<title>Node50&#45;&gt;Node24</title>
<path fill="none" stroke="midnightblue" d="M890.89,-297.79C905.65,-295.36 922.26,-292.83 937.5,-291 1137.14,-266.99 1189.52,-284.03 1388.5,-255 1400.75,-253.21 1414.11,-250.53 1425.71,-247.95"/>
<polygon fill="midnightblue" stroke="midnightblue" points="1426.83,-251.29 1435.79,-245.65 1425.27,-244.47 1426.83,-251.29"/>
</g>
<!-- Node50&#45;&gt;Node26 -->
<g id="edge67" class="edge">
<title>Node50&#45;&gt;Node26</title>
<path fill="none" stroke="midnightblue" d="M858.69,-296.73C872.13,-286.21 894.9,-268.38 911.2,-255.62"/>
<polygon fill="midnightblue" stroke="midnightblue" points="913.77,-258.05 919.48,-249.13 909.45,-252.54 913.77,-258.05"/>
</g>
<!-- Node50&#45;&gt;Node27 -->
<g id="edge68" class="edge">
<title>Node50&#45;&gt;Node27</title>
<path fill="none" stroke="midnightblue" d="M870.34,-296.87C900.37,-285.52 953.28,-265.52 987.34,-252.65"/>
<polygon fill="midnightblue" stroke="midnightblue" points="988.72,-255.87 996.84,-249.06 986.25,-249.32 988.72,-255.87"/>
</g>
<!-- Node50&#45;&gt;Node42 -->
<g id="edge65" class="edge">
<title>Node50&#45;&gt;Node42</title>
<path fill="none" stroke="midnightblue" d="M835.17,-296.83C814.5,-281.28 777.06,-248.02 797.5,-224 828.75,-187.26 977.33,-180.43 1043.08,-179.23"/>
<polygon fill="midnightblue" stroke="midnightblue" points="1043.31,-182.72 1053.25,-179.07 1043.2,-175.72 1043.31,-182.72"/>
</g>
<!-- Node51&#45;&gt;Node52 -->
<g id="edge71" class="edge">
<title>Node51&#45;&gt;Node52</title>
<path fill="none" stroke="midnightblue" d="M875.15,-682.4C898.98,-672.42 930.65,-659.15 953.59,-649.53"/>
<polygon fill="midnightblue" stroke="midnightblue" points="954.97,-652.75 962.84,-645.66 952.26,-646.29 954.97,-652.75"/>
</g>
<!-- Node52&#45;&gt;Node2 -->
<g id="edge74" class="edge">
<title>Node52&#45;&gt;Node2</title>
<path fill="none" stroke="midnightblue" d="M935.07,-626.48C876.16,-616.1 776.46,-598.55 710.8,-587"/>
<polygon fill="midnightblue" stroke="midnightblue" points="711.02,-583.48 700.57,-585.19 709.81,-590.37 711.02,-583.48"/>
</g>
<!-- Node52&#45;&gt;Node31 -->
<g id="edge73" class="edge">
<title>Node52&#45;&gt;Node31</title>
<path fill="none" stroke="midnightblue" d="M1044.73,-635.09C1132.21,-631.63 1282.5,-610.8 1282.5,-508.5 1282.5,-508.5 1282.5,-508.5 1282.5,-439.5 1282.5,-393.32 1321.01,-351.91 1348.47,-328.26"/>
<polygon fill="midnightblue" stroke="midnightblue" points="1350.79,-330.88 1356.23,-321.79 1346.31,-325.5 1350.79,-330.88"/>
</g>
<!-- Node53 -->
<g id="node49" class="node">
<title>Node53</title>
<g id="a_node49"><a xlink:title=" ">
<polygon fill="white" stroke="#bfbfbf" points="958.5,-565 958.5,-584 1008.5,-584 1008.5,-565 958.5,-565"/>
<text text-anchor="middle" x="983.5" y="-572" font-family="Helvetica,sans-Serif" font-size="10.00">optional</text>
</a>
</g>
</g>
<!-- Node52&#45;&gt;Node53 -->
<g id="edge72" class="edge">
<title>Node52&#45;&gt;Node53</title>
<path fill="none" stroke="midnightblue" d="M983.5,-626.48C983.5,-618.08 983.5,-604.98 983.5,-594.16"/>
<polygon fill="midnightblue" stroke="midnightblue" points="987,-594.01 983.5,-584.01 980,-594.01 987,-594.01"/>
</g>
<!-- Node54&#45;&gt;Node52 -->
<g id="edge77" class="edge">
<title>Node54&#45;&gt;Node52</title>
<path fill="none" stroke="midnightblue" d="M983.5,-682.4C983.5,-674.47 983.5,-664.46 983.5,-655.86"/>
<polygon fill="midnightblue" stroke="midnightblue" points="987,-655.66 983.5,-645.66 980,-655.66 987,-655.66"/>
</g>
</g>
</svg>
