<?xml version="1.0" encoding="UTF-8" standalone="no"?>
<!DOCTYPE svg PUBLIC "-//W3C//DTD SVG 1.1//EN"
 "http://www.w3.org/Graphics/SVG/1.1/DTD/svg11.dtd">
<!-- Generated by graphviz version 2.40.1 (20161225.0304)
 -->
<!-- Title: kryne&#45;engine/include/KEModules/Light.h Pages: 1 -->
<svg width="1303pt" height="721pt"
 viewBox="0.00 0.00 1302.50 721.00" xmlns="http://www.w3.org/2000/svg" xmlns:xlink="http://www.w3.org/1999/xlink">
<g id="graph0" class="graph" transform="scale(1 1) rotate(0) translate(4 717)">
<title>kryne&#45;engine/include/KEModules/Light.h</title>
<polygon fill="#ffffff" stroke="transparent" points="-4,4 -4,-717 1298.5,-717 1298.5,4 -4,4"/>
<!-- Node0 -->
<g id="node1" class="node">
<title>Node0</title>
<polygon fill="#bfbfbf" stroke="#000000" points="628.5,-682.5 628.5,-712.5 734.5,-712.5 734.5,-682.5 628.5,-682.5"/>
<text text-anchor="start" x="636.5" y="-700.5" font-family="Helvetica,sans-Serif" font-size="10.00" fill="#000000">kryne&#45;engine/include</text>
<text text-anchor="middle" x="681.5" y="-689.5" font-family="Helvetica,sans-Serif" font-size="10.00" fill="#000000">/KEModules/Light.h</text>
</g>
<!-- Node1 -->
<g id="node2" class="node">
<title>Node1</title>
<g id="a_node2"><a xlink:href="_old_directional_light_8h.html" target="_top" xlink:title="kryne&#45;engine/Light\l/OldDirectionalLight.h">
<polygon fill="#ffffff" stroke="#000000" points="703.5,-548.5 703.5,-578.5 813.5,-578.5 813.5,-548.5 703.5,-548.5"/>
<text text-anchor="start" x="711.5" y="-566.5" font-family="Helvetica,sans-Serif" font-size="10.00" fill="#000000">kryne&#45;engine/Light</text>
<text text-anchor="middle" x="758.5" y="-555.5" font-family="Helvetica,sans-Serif" font-size="10.00" fill="#000000">/OldDirectionalLight.h</text>
</a>
</g>
</g>
<!-- Node0&#45;&gt;Node1 -->
<g id="edge1" class="edge">
<title>Node0&#45;&gt;Node1</title>
<path fill="none" stroke="#191970" d="M704.4815,-682.4351C716.6561,-673.2957 730.8418,-660.5919 739.5,-646 749.8362,-628.5803 754.55,-606.0072 756.6994,-588.8775"/>
<polygon fill="#191970" stroke="#191970" points="760.2237,-588.8236 757.7749,-578.5157 753.2611,-588.1009 760.2237,-588.8236"/>
</g>
<!-- Node41 -->
<g id="node42" class="node">
<title>Node41</title>
<g id="a_node42"><a xlink:href="_lighting_registry_8h.html" target="_top" xlink:title="kryne&#45;engine/Light\l/LightingRegistry.h">
<polygon fill="#ffffff" stroke="#000000" points="632.5,-615.5 632.5,-645.5 730.5,-645.5 730.5,-615.5 632.5,-615.5"/>
<text text-anchor="start" x="640.5" y="-633.5" font-family="Helvetica,sans-Serif" font-size="10.00" fill="#000000">kryne&#45;engine/Light</text>
<text text-anchor="middle" x="681.5" y="-622.5" font-family="Helvetica,sans-Serif" font-size="10.00" fill="#000000">/LightingRegistry.h</text>
</a>
</g>
</g>
<!-- Node0&#45;&gt;Node41 -->
<g id="edge55" class="edge">
<title>Node0&#45;&gt;Node41</title>
<path fill="none" stroke="#191970" d="M681.5,-682.2967C681.5,-674.5013 681.5,-664.7991 681.5,-655.9064"/>
<polygon fill="#191970" stroke="#191970" points="685.0001,-655.6431 681.5,-645.6432 678.0001,-655.6432 685.0001,-655.6431"/>
</g>
<!-- Node42 -->
<g id="node43" class="node">
<title>Node42</title>
<g id="a_node43"><a xlink:href="_old_point_light_8h.html" target="_top" xlink:title="OldPointLight.h">
<polygon fill="#ffffff" stroke="#000000" points="401,-554 401,-573 484,-573 484,-554 401,-554"/>
<text text-anchor="middle" x="442.5" y="-561" font-family="Helvetica,sans-Serif" font-size="10.00" fill="#000000">OldPointLight.h</text>
</a>
</g>
</g>
<!-- Node0&#45;&gt;Node42 -->
<g id="edge63" class="edge">
<title>Node0&#45;&gt;Node42</title>
<path fill="none" stroke="#191970" d="M654.5482,-682.389C608.2754,-656.4452 514.3,-603.7561 468.6117,-578.1401"/>
<polygon fill="#191970" stroke="#191970" points="470.0641,-574.9418 459.6298,-573.1042 466.6407,-581.0476 470.0641,-574.9418"/>
</g>
<!-- Node2 -->
<g id="node3" class="node">
<title>Node2</title>
<polygon fill="#ffffff" stroke="#bfbfbf" points="823,-297 823,-316 898,-316 898,-297 823,-297"/>
<text text-anchor="middle" x="860.5" y="-304" font-family="Helvetica,sans-Serif" font-size="10.00" fill="#000000">glm/vec3.hpp</text>
</g>
<!-- Node1&#45;&gt;Node2 -->
<g id="edge2" class="edge">
<title>Node1&#45;&gt;Node2</title>
<path fill="none" stroke="#191970" d="M764.5751,-548.1931C782.2358,-503.6951 833.5373,-374.4353 852.9435,-325.5395"/>
<polygon fill="#191970" stroke="#191970" points="856.2383,-326.7254 856.6742,-316.1395 849.732,-324.1431 856.2383,-326.7254"/>
</g>
<!-- Node3 -->
<g id="node4" class="node">
<title>Node3</title>
<polygon fill="#ffffff" stroke="#bfbfbf" points="1014.5,-235.5 1014.5,-254.5 1058.5,-254.5 1058.5,-235.5 1014.5,-235.5"/>
<text text-anchor="middle" x="1036.5" y="-242.5" font-family="Helvetica,sans-Serif" font-size="10.00" fill="#000000">vector</text>
</g>
<!-- Node1&#45;&gt;Node3 -->
<g id="edge3" class="edge">
<title>Node1&#45;&gt;Node3</title>
<path fill="none" stroke="#191970" d="M813.6359,-556.9277C882.4238,-545.8492 999.2802,-517.0934 1067.5,-445 1115.3668,-394.4152 1070.5313,-302.2723 1047.8464,-263.2447"/>
<polygon fill="#191970" stroke="#191970" points="1050.7656,-261.3069 1042.6263,-254.5244 1044.7595,-264.9023 1050.7656,-261.3069"/>
</g>
<!-- Node4 -->
<g id="node5" class="node">
<title>Node4</title>
<g id="a_node5"><a xlink:href="_shader_8h.html" target="_top" xlink:title="kryne&#45;engine/Material\l/Shader.h">
<polygon fill="#ffffff" stroke="#000000" points="642.5,-481.5 642.5,-511.5 752.5,-511.5 752.5,-481.5 642.5,-481.5"/>
<text text-anchor="start" x="650.5" y="-499.5" font-family="Helvetica,sans-Serif" font-size="10.00" fill="#000000">kryne&#45;engine/Material</text>
<text text-anchor="middle" x="697.5" y="-488.5" font-family="Helvetica,sans-Serif" font-size="10.00" fill="#000000">/Shader.h</text>
</a>
</g>
</g>
<!-- Node1&#45;&gt;Node4 -->
<g id="edge4" class="edge">
<title>Node1&#45;&gt;Node4</title>
<path fill="none" stroke="#191970" d="M744.6582,-548.2967C736.8589,-539.7303 726.9634,-528.8614 718.253,-519.2943"/>
<polygon fill="#191970" stroke="#191970" points="720.6074,-516.6813 711.2871,-511.6432 715.4313,-521.3939 720.6074,-516.6813"/>
</g>
<!-- Node5 -->
<g id="node6" class="node">
<title>Node5</title>
<polygon fill="#ffffff" stroke="#bfbfbf" points="680,-425.5 680,-444.5 715,-444.5 715,-425.5 680,-425.5"/>
<text text-anchor="middle" x="697.5" y="-432.5" font-family="Helvetica,sans-Serif" font-size="10.00" fill="#000000">map</text>
</g>
<!-- Node4&#45;&gt;Node5 -->
<g id="edge5" class="edge">
<title>Node4&#45;&gt;Node5</title>
<path fill="none" stroke="#191970" d="M697.5,-481.2977C697.5,-473.3834 697.5,-463.6043 697.5,-455.0759"/>
<polygon fill="#191970" stroke="#191970" points="701.0001,-454.8469 697.5,-444.8469 694.0001,-454.847 701.0001,-454.8469"/>
</g>
<!-- Node6 -->
<g id="node7" class="node">
<title>Node6</title>
<polygon fill="#ffffff" stroke="#bfbfbf" points="733.5,-425.5 733.5,-444.5 785.5,-444.5 785.5,-425.5 733.5,-425.5"/>
<text text-anchor="middle" x="759.5" y="-432.5" font-family="Helvetica,sans-Serif" font-size="10.00" fill="#000000">sstream</text>
</g>
<!-- Node4&#45;&gt;Node6 -->
<g id="edge6" class="edge">
<title>Node4&#45;&gt;Node6</title>
<path fill="none" stroke="#191970" d="M712.8258,-481.2977C721.7907,-472.4052 733.1288,-461.1586 742.3851,-451.9769"/>
<polygon fill="#191970" stroke="#191970" points="744.9382,-454.3742 749.573,-444.8469 740.0085,-449.4045 744.9382,-454.3742"/>
</g>
<!-- Node7 -->
<g id="node8" class="node">
<title>Node7</title>
<g id="a_node8"><a xlink:href="_dispatcher_8h.html" target="_top" xlink:title="kryne&#45;engine/Dispatch\l/Dispatcher.h">
<polygon fill="#ffffff" stroke="#000000" points="18.5,-291.5 18.5,-321.5 132.5,-321.5 132.5,-291.5 18.5,-291.5"/>
<text text-anchor="start" x="26.5" y="-309.5" font-family="Helvetica,sans-Serif" font-size="10.00" fill="#000000">kryne&#45;engine/Dispatch</text>
<text text-anchor="middle" x="75.5" y="-298.5" font-family="Helvetica,sans-Serif" font-size="10.00" fill="#000000">/Dispatcher.h</text>
</a>
</g>
</g>
<!-- Node4&#45;&gt;Node7 -->
<g id="edge7" class="edge">
<title>Node4&#45;&gt;Node7</title>
<path fill="none" stroke="#191970" d="M642.4352,-488.7219C553.518,-475.0933 373.7106,-443.0833 229.5,-389 185.361,-372.4466 138.0541,-345.5841 107.6951,-327.0317"/>
<polygon fill="#191970" stroke="#191970" points="109.1868,-323.8392 98.8397,-321.5614 105.5079,-329.7946 109.1868,-323.8392"/>
</g>
<!-- Node22 -->
<g id="node23" class="node">
<title>Node22</title>
<g id="a_node23"><a xlink:href="_uniforms_handler_8h.html" target="_top" xlink:title="UniformsHandler.h">
<polygon fill="#ffffff" stroke="#000000" points="563.5,-425.5 563.5,-444.5 661.5,-444.5 661.5,-425.5 563.5,-425.5"/>
<text text-anchor="middle" x="612.5" y="-432.5" font-family="Helvetica,sans-Serif" font-size="10.00" fill="#000000">UniformsHandler.h</text>
</a>
</g>
</g>
<!-- Node4&#45;&gt;Node22 -->
<g id="edge25" class="edge">
<title>Node4&#45;&gt;Node22</title>
<path fill="none" stroke="#191970" d="M676.4888,-481.2977C663.7066,-472.0495 647.4054,-460.2551 634.4552,-450.8853"/>
<polygon fill="#191970" stroke="#191970" points="636.263,-447.8732 626.1096,-444.8469 632.1597,-453.5445 636.263,-447.8732"/>
</g>
<!-- Node35 -->
<g id="node36" class="node">
<title>Node35</title>
<g id="a_node36"><a xlink:href="_shader_chunk_8h.html" target="_top" xlink:title="ShaderChunk.h">
<polygon fill="#ffffff" stroke="#000000" points="974.5,-425.5 974.5,-444.5 1058.5,-444.5 1058.5,-425.5 974.5,-425.5"/>
<text text-anchor="middle" x="1016.5" y="-432.5" font-family="Helvetica,sans-Serif" font-size="10.00" fill="#000000">ShaderChunk.h</text>
</a>
</g>
</g>
<!-- Node4&#45;&gt;Node35 -->
<g id="edge44" class="edge">
<title>Node4&#45;&gt;Node35</title>
<path fill="none" stroke="#191970" d="M752.7014,-485.8577C812.0844,-474.4093 905.8146,-456.339 964.0926,-445.1036"/>
<polygon fill="#191970" stroke="#191970" points="965.0348,-448.4865 974.1914,-443.1567 963.7096,-441.6131 965.0348,-448.4865"/>
</g>
<!-- Node8 -->
<g id="node9" class="node">
<title>Node8</title>
<g id="a_node9"><a xlink:href="_synchronizable_pool_8h.html" target="_top" xlink:title="SynchronizablePool.h">
<polygon fill="#ffffff" stroke="#000000" points="47,-179.5 47,-198.5 158,-198.5 158,-179.5 47,-179.5"/>
<text text-anchor="middle" x="102.5" y="-186.5" font-family="Helvetica,sans-Serif" font-size="10.00" fill="#000000">SynchronizablePool.h</text>
</a>
</g>
</g>
<!-- Node7&#45;&gt;Node8 -->
<g id="edge8" class="edge">
<title>Node7&#45;&gt;Node8</title>
<path fill="none" stroke="#191970" d="M79.0298,-291.1389C83.8943,-269.9692 92.6611,-231.8174 97.9936,-208.6112"/>
<polygon fill="#191970" stroke="#191970" points="101.4749,-209.0893 100.3034,-198.5595 94.6527,-207.5216 101.4749,-209.0893"/>
</g>
<!-- Node19 -->
<g id="node20" class="node">
<title>Node19</title>
<g id="a_node20"><a xlink:href="_runner_pool_8h.html" target="_top" xlink:title="RunnerPool.h">
<polygon fill="#ffffff" stroke="#000000" points="176.5,-179.5 176.5,-198.5 252.5,-198.5 252.5,-179.5 176.5,-179.5"/>
<text text-anchor="middle" x="214.5" y="-186.5" font-family="Helvetica,sans-Serif" font-size="10.00" fill="#000000">RunnerPool.h</text>
</a>
</g>
</g>
<!-- Node7&#45;&gt;Node19 -->
<g id="edge19" class="edge">
<title>Node7&#45;&gt;Node19</title>
<path fill="none" stroke="#191970" d="M93.3873,-291.3795C119.5878,-269.2315 168.2081,-228.1316 195.1928,-205.3209"/>
<polygon fill="#191970" stroke="#191970" points="197.7605,-207.7333 203.1379,-198.6046 193.2414,-202.3874 197.7605,-207.7333"/>
</g>
<!-- Node20 -->
<g id="node21" class="node">
<title>Node20</title>
<g id="a_node21"><a xlink:href="_main_pool_8h.html" target="_top" xlink:title="MainPool.h">
<polygon fill="#ffffff" stroke="#000000" points="9,-235.5 9,-254.5 74,-254.5 74,-235.5 9,-235.5"/>
<text text-anchor="middle" x="41.5" y="-242.5" font-family="Helvetica,sans-Serif" font-size="10.00" fill="#000000">MainPool.h</text>
</a>
</g>
</g>
<!-- Node7&#45;&gt;Node20 -->
<g id="edge21" class="edge">
<title>Node7&#45;&gt;Node20</title>
<path fill="none" stroke="#191970" d="M67.0955,-291.2977C62.4743,-282.9388 56.7031,-272.4997 51.8111,-263.6509"/>
<polygon fill="#191970" stroke="#191970" points="54.8452,-261.9051 46.9438,-254.8469 48.7191,-265.292 54.8452,-261.9051"/>
</g>
<!-- Node9 -->
<g id="node10" class="node">
<title>Node9</title>
<g id="a_node10"><a xlink:href="_thread_pool_8h.html" target="_top" xlink:title="ThreadPool.h">
<polygon fill="#ffffff" stroke="#000000" points="177.5,-118 177.5,-137 251.5,-137 251.5,-118 177.5,-118"/>
<text text-anchor="middle" x="214.5" y="-125" font-family="Helvetica,sans-Serif" font-size="10.00" fill="#000000">ThreadPool.h</text>
</a>
</g>
</g>
<!-- Node8&#45;&gt;Node9 -->
<g id="edge9" class="edge">
<title>Node8&#45;&gt;Node9</title>
<path fill="none" stroke="#191970" d="M120,-179.3906C138.2465,-169.3713 167.0624,-153.5483 188.0806,-142.0071"/>
<polygon fill="#191970" stroke="#191970" points="190.042,-144.923 197.1229,-137.0419 186.6728,-138.7872 190.042,-144.923"/>
</g>
<!-- Node10 -->
<g id="node11" class="node">
<title>Node10</title>
<polygon fill="#ffffff" stroke="#bfbfbf" points="258.5,-56.5 258.5,-75.5 302.5,-75.5 302.5,-56.5 258.5,-56.5"/>
<text text-anchor="middle" x="280.5" y="-63.5" font-family="Helvetica,sans-Serif" font-size="10.00" fill="#000000">thread</text>
</g>
<!-- Node9&#45;&gt;Node10 -->
<g id="edge10" class="edge">
<title>Node9&#45;&gt;Node10</title>
<path fill="none" stroke="#191970" d="M224.8125,-117.8906C234.9242,-108.4683 250.5442,-93.9134 262.6707,-82.6137"/>
<polygon fill="#191970" stroke="#191970" points="265.112,-85.1228 270.0421,-75.7449 260.3399,-80.0015 265.112,-85.1228"/>
</g>
<!-- Node11 -->
<g id="node12" class="node">
<title>Node11</title>
<polygon fill="#ffffff" stroke="#bfbfbf" points="43.5,-56.5 43.5,-75.5 87.5,-75.5 87.5,-56.5 43.5,-56.5"/>
<text text-anchor="middle" x="65.5" y="-63.5" font-family="Helvetica,sans-Serif" font-size="10.00" fill="#000000">mutex</text>
</g>
<!-- Node9&#45;&gt;Node11 -->
<g id="edge11" class="edge">
<title>Node9&#45;&gt;Node11</title>
<path fill="none" stroke="#191970" d="M191.2188,-117.8906C165.8861,-107.4345 125.2397,-90.6577 97.0514,-79.0229"/>
<polygon fill="#191970" stroke="#191970" points="98.2249,-75.7209 87.6459,-75.1408 95.5541,-82.1914 98.2249,-75.7209"/>
</g>
<!-- Node12 -->
<g id="node13" class="node">
<title>Node12</title>
<polygon fill="#ffffff" stroke="#bfbfbf" points="321,-56.5 321,-75.5 416,-75.5 416,-56.5 321,-56.5"/>
<text text-anchor="middle" x="368.5" y="-63.5" font-family="Helvetica,sans-Serif" font-size="10.00" fill="#000000">condition_variable</text>
</g>
<!-- Node9&#45;&gt;Node12 -->
<g id="edge12" class="edge">
<title>Node9&#45;&gt;Node12</title>
<path fill="none" stroke="#191970" d="M238.5625,-117.8906C264.5556,-107.5103 306.1478,-90.9004 335.2547,-79.2766"/>
<polygon fill="#191970" stroke="#191970" points="336.6177,-82.5011 344.6065,-75.5419 334.0215,-76.0003 336.6177,-82.5011"/>
</g>
<!-- Node13 -->
<g id="node14" class="node">
<title>Node13</title>
<polygon fill="#ffffff" stroke="#bfbfbf" points="114,-56.5 114,-75.5 155,-75.5 155,-56.5 114,-56.5"/>
<text text-anchor="middle" x="134.5" y="-63.5" font-family="Helvetica,sans-Serif" font-size="10.00" fill="#000000">future</text>
</g>
<!-- Node9&#45;&gt;Node13 -->
<g id="edge13" class="edge">
<title>Node9&#45;&gt;Node13</title>
<path fill="none" stroke="#191970" d="M202,-117.8906C189.4364,-108.2324 169.8577,-93.1812 155.0151,-81.771"/>
<polygon fill="#191970" stroke="#191970" points="156.9735,-78.8618 146.9122,-75.5419 152.7072,-84.4115 156.9735,-78.8618"/>
</g>
<!-- Node14 -->
<g id="node15" class="node">
<title>Node14</title>
<polygon fill="#ffffff" stroke="#bfbfbf" points="1068.5,-56.5 1068.5,-75.5 1120.5,-75.5 1120.5,-56.5 1068.5,-56.5"/>
<text text-anchor="middle" x="1094.5" y="-63.5" font-family="Helvetica,sans-Serif" font-size="10.00" fill="#000000">memory</text>
</g>
<!-- Node9&#45;&gt;Node14 -->
<g id="edge14" class="edge">
<title>Node9&#45;&gt;Node14</title>
<path fill="none" stroke="#191970" d="M251.7504,-124.8967C395.7031,-114.8364 914.711,-78.5648 1057.7648,-68.5673"/>
<polygon fill="#191970" stroke="#191970" points="1058.435,-72.0291 1068.1666,-67.8403 1057.9469,-65.0461 1058.435,-72.0291"/>
</g>
<!-- Node15 -->
<g id="node16" class="node">
<title>Node15</title>
<polygon fill="#ffffff" stroke="#bfbfbf" points="797.5,-56.5 797.5,-75.5 851.5,-75.5 851.5,-56.5 797.5,-56.5"/>
<text text-anchor="middle" x="824.5" y="-63.5" font-family="Helvetica,sans-Serif" font-size="10.00" fill="#000000">iostream</text>
</g>
<!-- Node9&#45;&gt;Node15 -->
<g id="edge15" class="edge">
<title>Node9&#45;&gt;Node15</title>
<path fill="none" stroke="#191970" d="M242.5754,-117.9734C250.2545,-115.6867 258.6308,-113.4806 266.5,-112 367.0383,-93.0842 679.4876,-74.1758 787.399,-68.0509"/>
<polygon fill="#191970" stroke="#191970" points="787.6965,-71.5398 797.4835,-67.482 787.3022,-64.5509 787.6965,-71.5398"/>
</g>
<!-- Node16 -->
<g id="node17" class="node">
<title>Node16</title>
<g id="a_node17"><a xlink:href="_base_pool_8h.html" target="_top" xlink:title="BasePool.h">
<polygon fill="#ffffff" stroke="#000000" points="173,-56.5 173,-75.5 240,-75.5 240,-56.5 173,-56.5"/>
<text text-anchor="middle" x="206.5" y="-63.5" font-family="Helvetica,sans-Serif" font-size="10.00" fill="#000000">BasePool.h</text>
</a>
</g>
</g>
<!-- Node9&#45;&gt;Node16 -->
<g id="edge16" class="edge">
<title>Node9&#45;&gt;Node16</title>
<path fill="none" stroke="#191970" d="M213.25,-117.8906C212.1411,-109.3657 210.4856,-96.6392 209.0917,-85.9235"/>
<polygon fill="#191970" stroke="#191970" points="212.5284,-85.2098 207.7676,-75.7449 205.5869,-86.1128 212.5284,-85.2098"/>
</g>
<!-- Node17 -->
<g id="node18" class="node">
<title>Node17</title>
<polygon fill="#ffffff" stroke="#bfbfbf" points="151,-.5 151,-19.5 194,-19.5 194,-.5 151,-.5"/>
<text text-anchor="middle" x="172.5" y="-7.5" font-family="Helvetica,sans-Serif" font-size="10.00" fill="#000000">queue</text>
</g>
<!-- Node16&#45;&gt;Node17 -->
<g id="edge17" class="edge">
<title>Node16&#45;&gt;Node17</title>
<path fill="none" stroke="#191970" d="M200.5777,-56.2455C195.8973,-48.5367 189.2327,-37.5598 183.5711,-28.2348"/>
<polygon fill="#191970" stroke="#191970" points="186.5361,-26.3741 178.3545,-19.6427 180.5525,-30.007 186.5361,-26.3741"/>
</g>
<!-- Node18 -->
<g id="node19" class="node">
<title>Node18</title>
<polygon fill="#ffffff" stroke="#bfbfbf" points="212,-.5 212,-19.5 271,-19.5 271,-.5 212,-.5"/>
<text text-anchor="middle" x="241.5" y="-7.5" font-family="Helvetica,sans-Serif" font-size="10.00" fill="#000000">functional</text>
</g>
<!-- Node16&#45;&gt;Node18 -->
<g id="edge18" class="edge">
<title>Node16&#45;&gt;Node18</title>
<path fill="none" stroke="#191970" d="M212.5965,-56.2455C217.4145,-48.5367 224.2751,-37.5598 230.1032,-28.2348"/>
<polygon fill="#191970" stroke="#191970" points="233.1413,-29.9777 235.4733,-19.6427 227.2053,-26.2677 233.1413,-29.9777"/>
</g>
<!-- Node19&#45;&gt;Node9 -->
<g id="edge20" class="edge">
<title>Node19&#45;&gt;Node9</title>
<path fill="none" stroke="#191970" d="M214.5,-179.3906C214.5,-170.8657 214.5,-158.1392 214.5,-147.4235"/>
<polygon fill="#191970" stroke="#191970" points="218.0001,-147.2448 214.5,-137.2449 211.0001,-147.2449 218.0001,-147.2448"/>
</g>
<!-- Node20&#45;&gt;Node8 -->
<g id="edge24" class="edge">
<title>Node20&#45;&gt;Node8</title>
<path fill="none" stroke="#191970" d="M52.1254,-235.2455C61.0473,-227.0549 73.988,-215.1749 84.5192,-205.5069"/>
<polygon fill="#191970" stroke="#191970" points="86.9968,-207.9837 91.9964,-198.6427 82.2629,-202.8271 86.9968,-207.9837"/>
</g>
<!-- Node21 -->
<g id="node22" class="node">
<title>Node21</title>
<g id="a_node22"><a xlink:href="_multithreading_8hpp.html" target="_top" xlink:title="kryne&#45;engine/Utils\l/Multithreading.hpp">
<polygon fill="#ffffff" stroke="#000000" points="0,-112.5 0,-142.5 99,-142.5 99,-112.5 0,-112.5"/>
<text text-anchor="start" x="8" y="-130.5" font-family="Helvetica,sans-Serif" font-size="10.00" fill="#000000">kryne&#45;engine/Utils</text>
<text text-anchor="middle" x="49.5" y="-119.5" font-family="Helvetica,sans-Serif" font-size="10.00" fill="#000000">/Multithreading.hpp</text>
</a>
</g>
</g>
<!-- Node20&#45;&gt;Node21 -->
<g id="edge22" class="edge">
<title>Node20&#45;&gt;Node21</title>
<path fill="none" stroke="#191970" d="M40.394,-235.1456C39.4089,-225.8422 38.0422,-211.4936 37.5,-199 37.1146,-190.1195 36.4848,-187.8307 37.5,-179 38.5027,-170.2786 40.4306,-160.887 42.4527,-152.5427"/>
<polygon fill="#191970" stroke="#191970" points="45.8925,-153.2201 45.0018,-142.6628 39.1144,-151.4713 45.8925,-153.2201"/>
</g>
<!-- Node21&#45;&gt;Node11 -->
<g id="edge23" class="edge">
<title>Node21&#45;&gt;Node11</title>
<path fill="none" stroke="#191970" d="M53.4551,-112.2977C55.5372,-104.2945 58.1155,-94.3843 60.3517,-85.7889"/>
<polygon fill="#191970" stroke="#191970" points="63.8076,-86.406 62.9382,-75.8469 57.0331,-84.6435 63.8076,-86.406"/>
</g>
<!-- Node23 -->
<g id="node24" class="node">
<title>Node23</title>
<polygon fill="#ffffff" stroke="#bfbfbf" points="916,-297 916,-316 957,-316 957,-297 916,-297"/>
<text text-anchor="middle" x="936.5" y="-304" font-family="Helvetica,sans-Serif" font-size="10.00" fill="#000000">string</text>
</g>
<!-- Node22&#45;&gt;Node23 -->
<g id="edge26" class="edge">
<title>Node22&#45;&gt;Node23</title>
<path fill="none" stroke="#191970" d="M658.2236,-425.4694C692.7435,-417.5805 740.9331,-405.0731 781.5,-389 840.4652,-365.6373 851.5318,-351.8374 907.5,-322 908.1801,-321.6374 908.8691,-321.27 909.5642,-320.8993"/>
<polygon fill="#191970" stroke="#191970" points="911.5398,-323.8121 918.7127,-316.0147 908.2428,-317.6371 911.5398,-323.8121"/>
</g>
<!-- Node24 -->
<g id="node25" class="node">
<title>Node24</title>
<polygon fill="#ffffff" stroke="#bfbfbf" points="887,-364 887,-383 970,-383 970,-364 887,-364"/>
<text text-anchor="middle" x="928.5" y="-371" font-family="Helvetica,sans-Serif" font-size="10.00" fill="#000000">unordered_map</text>
</g>
<!-- Node22&#45;&gt;Node24 -->
<g id="edge27" class="edge">
<title>Node22&#45;&gt;Node24</title>
<path fill="none" stroke="#191970" d="M661.7401,-426.5483C731.3447,-414.5614 852.325,-393.566 872.5,-389 876.9367,-387.9959 881.548,-386.8646 886.1347,-385.6821"/>
<polygon fill="#191970" stroke="#191970" points="887.2954,-388.995 896.059,-383.041 885.4952,-382.2305 887.2954,-388.995"/>
</g>
<!-- Node25 -->
<g id="node26" class="node">
<title>Node25</title>
<polygon fill="#ffffff" stroke="#bfbfbf" points="188.5,-297 188.5,-316 252.5,-316 252.5,-297 188.5,-297"/>
<text text-anchor="middle" x="220.5" y="-304" font-family="Helvetica,sans-Serif" font-size="10.00" fill="#000000">glad/glad.h</text>
</g>
<!-- Node22&#45;&gt;Node25 -->
<g id="edge28" class="edge">
<title>Node22&#45;&gt;Node25</title>
<path fill="none" stroke="#191970" d="M563.1579,-431.3215C471.1702,-424.074 280.5789,-407.0749 256.5,-389 236.441,-373.9426 227.3836,-345.3375 223.4174,-326.0908"/>
<polygon fill="#191970" stroke="#191970" points="226.8222,-325.2462 221.6258,-316.0133 219.9303,-326.4715 226.8222,-325.2462"/>
</g>
<!-- Node26 -->
<g id="node27" class="node">
<title>Node26</title>
<polygon fill="#ffffff" stroke="#bfbfbf" points="724.5,-297 724.5,-316 804.5,-316 804.5,-297 724.5,-297"/>
<text text-anchor="middle" x="764.5" y="-304" font-family="Helvetica,sans-Serif" font-size="10.00" fill="#000000">GLFW/glfw3.h</text>
</g>
<!-- Node22&#45;&gt;Node26 -->
<g id="edge29" class="edge">
<title>Node22&#45;&gt;Node26</title>
<path fill="none" stroke="#191970" d="M661.6032,-426.4856C700.7797,-418.5812 751.0839,-405.5511 763.5,-389 777.0169,-370.9814 774.305,-343.9697 770.2018,-325.8122"/>
<polygon fill="#191970" stroke="#191970" points="773.5671,-324.846 767.6687,-316.0449 766.7912,-326.6033 773.5671,-324.846"/>
</g>
<!-- Node27 -->
<g id="node28" class="node">
<title>Node27</title>
<polygon fill="#ffffff" stroke="#bfbfbf" points="668.5,-364 668.5,-383 754.5,-383 754.5,-364 668.5,-364"/>
<text text-anchor="middle" x="711.5" y="-371" font-family="Helvetica,sans-Serif" font-size="10.00" fill="#000000">glm/mat4x4.hpp</text>
</g>
<!-- Node22&#45;&gt;Node27 -->
<g id="edge30" class="edge">
<title>Node22&#45;&gt;Node27</title>
<path fill="none" stroke="#191970" d="M627.9688,-425.3906C643.9521,-415.4616 669.1103,-399.833 687.6433,-388.3201"/>
<polygon fill="#191970" stroke="#191970" points="689.4924,-391.2918 696.1399,-383.0419 685.7985,-385.3457 689.4924,-391.2918"/>
</g>
<!-- Node28 -->
<g id="node29" class="node">
<title>Node28</title>
<polygon fill="#ffffff" stroke="#bfbfbf" points="434.5,-364 434.5,-383 540.5,-383 540.5,-364 434.5,-364"/>
<text text-anchor="middle" x="487.5" y="-371" font-family="Helvetica,sans-Serif" font-size="10.00" fill="#000000">glm/gtc/type_ptr.hpp</text>
</g>
<!-- Node22&#45;&gt;Node28 -->
<g id="edge31" class="edge">
<title>Node22&#45;&gt;Node28</title>
<path fill="none" stroke="#191970" d="M592.9688,-425.3906C572.3292,-415.2359 539.5724,-399.1196 516.0398,-387.5416"/>
<polygon fill="#191970" stroke="#191970" points="517.412,-384.3161 506.8941,-383.0419 514.3218,-390.5971 517.412,-384.3161"/>
</g>
<!-- Node29 -->
<g id="node30" class="node">
<title>Node29</title>
<polygon fill="#ffffff" stroke="#bfbfbf" points="558.5,-364 558.5,-383 650.5,-383 650.5,-364 558.5,-364"/>
<text text-anchor="middle" x="604.5" y="-371" font-family="Helvetica,sans-Serif" font-size="10.00" fill="#000000">boost/variant.hpp</text>
</g>
<!-- Node22&#45;&gt;Node29 -->
<g id="edge32" class="edge">
<title>Node22&#45;&gt;Node29</title>
<path fill="none" stroke="#191970" d="M611.25,-425.3906C610.1411,-416.8657 608.4856,-404.1392 607.0917,-393.4235"/>
<polygon fill="#191970" stroke="#191970" points="610.5284,-392.7098 605.7676,-383.2449 603.5869,-393.6128 610.5284,-392.7098"/>
</g>
<!-- Node30 -->
<g id="node31" class="node">
<title>Node30</title>
<g id="a_node31"><a xlink:href="_texture_8h.html" target="_top" xlink:title="kryne&#45;engine/Textures\l/Texture.h">
<polygon fill="#ffffff" stroke="#000000" points="265,-358.5 265,-388.5 378,-388.5 378,-358.5 265,-358.5"/>
<text text-anchor="start" x="273" y="-376.5" font-family="Helvetica,sans-Serif" font-size="10.00" fill="#000000">kryne&#45;engine/Textures</text>
<text text-anchor="middle" x="321.5" y="-365.5" font-family="Helvetica,sans-Serif" font-size="10.00" fill="#000000">/Texture.h</text>
</a>
</g>
</g>
<!-- Node22&#45;&gt;Node30 -->
<g id="edge33" class="edge">
<title>Node22&#45;&gt;Node30</title>
<path fill="none" stroke="#191970" d="M567.3505,-425.4581C519.4088,-415.3261 443.1268,-399.2046 388.2432,-387.6055"/>
<polygon fill="#191970" stroke="#191970" points="388.7636,-384.1383 378.256,-385.4948 387.3161,-390.987 388.7636,-384.1383"/>
</g>
<!-- Node30&#45;&gt;Node2 -->
<g id="edge40" class="edge">
<title>Node30&#45;&gt;Node2</title>
<path fill="none" stroke="#191970" d="M378.3457,-360.4106C383.1197,-359.5183 387.8843,-358.6982 392.5,-358 578.1818,-329.9141 629.5218,-359.6639 813.5,-322 817.3668,-321.2084 821.3592,-320.2018 825.3077,-319.0828"/>
<polygon fill="#191970" stroke="#191970" points="826.4022,-322.4081 834.9355,-316.1284 824.3487,-315.7161 826.4022,-322.4081"/>
</g>
<!-- Node30&#45;&gt;Node7 -->
<g id="edge43" class="edge">
<title>Node30&#45;&gt;Node7</title>
<path fill="none" stroke="#191970" d="M266.2928,-358.4639C229.0743,-348.3272 179.8127,-334.9104 140.6684,-324.2491"/>
<polygon fill="#191970" stroke="#191970" points="141.5163,-320.8526 130.948,-321.6017 139.6768,-327.6066 141.5163,-320.8526"/>
</g>
<!-- Node30&#45;&gt;Node15 -->
<g id="edge36" class="edge">
<title>Node30&#45;&gt;Node15</title>
<path fill="none" stroke="#191970" d="M313.203,-358.1795C301.2227,-334.5872 280.5,-287.6191 280.5,-245 280.5,-245 280.5,-245 280.5,-189 280.5,-136.9585 664.147,-85.5803 787.0815,-70.4527"/>
<polygon fill="#191970" stroke="#191970" points="787.6481,-73.9096 797.1501,-69.2233 786.7996,-66.9612 787.6481,-73.9096"/>
</g>
<!-- Node30&#45;&gt;Node23 -->
<g id="edge35" class="edge">
<title>Node30&#45;&gt;Node23</title>
<path fill="none" stroke="#191970" d="M378.0759,-364.2975C393.4333,-362.0102 410.0792,-359.7227 425.5,-358 638.9909,-334.1507 701.2082,-381.9238 907.5,-322 908.9733,-321.572 910.4569,-321.0631 911.9324,-320.4949"/>
<polygon fill="#191970" stroke="#191970" points="913.7627,-323.5039 921.3566,-316.1158 910.8129,-317.1557 913.7627,-323.5039"/>
</g>
<!-- Node30&#45;&gt;Node25 -->
<g id="edge41" class="edge">
<title>Node30&#45;&gt;Node25</title>
<path fill="none" stroke="#191970" d="M298.8336,-358.4639C282.3451,-347.526 260.0996,-332.769 243.5278,-321.7759"/>
<polygon fill="#191970" stroke="#191970" points="245.2455,-318.7153 234.9776,-316.1039 241.3759,-324.5485 245.2455,-318.7153"/>
</g>
<!-- Node30&#45;&gt;Node26 -->
<g id="edge42" class="edge">
<title>Node30&#45;&gt;Node26</title>
<path fill="none" stroke="#191970" d="M378.3662,-360.5406C383.1357,-359.6196 387.8937,-358.7574 392.5,-358 535.0306,-334.5643 574.1893,-351.9247 715.5,-322 719.4621,-321.161 723.5596,-320.1322 727.62,-319.0073"/>
<polygon fill="#191970" stroke="#191970" points="728.9457,-322.2649 737.5382,-316.0666 726.9558,-315.5537 728.9457,-322.2649"/>
</g>
<!-- Node31 -->
<g id="node32" class="node">
<title>Node31</title>
<polygon fill="#ffffff" stroke="#bfbfbf" points="402.5,-297 402.5,-316 472.5,-316 472.5,-297 402.5,-297"/>
<text text-anchor="middle" x="437.5" y="-304" font-family="Helvetica,sans-Serif" font-size="10.00" fill="#000000">stb_image.h</text>
</g>
<!-- Node30&#45;&gt;Node31 -->
<g id="edge34" class="edge">
<title>Node30&#45;&gt;Node31</title>
<path fill="none" stroke="#191970" d="M347.5327,-358.4639C366.8206,-347.3234 392.9678,-332.2212 412.1028,-321.1691"/>
<polygon fill="#191970" stroke="#191970" points="413.9635,-324.1363 420.8723,-316.1039 410.4624,-318.0747 413.9635,-324.1363"/>
</g>
<!-- Node32 -->
<g id="node33" class="node">
<title>Node32</title>
<polygon fill="#ffffff" stroke="#bfbfbf" points="491,-297 491,-316 598,-316 598,-297 491,-297"/>
<text text-anchor="middle" x="544.5" y="-304" font-family="Helvetica,sans-Serif" font-size="10.00" fill="#000000">boost/filesystem.hpp</text>
</g>
<!-- Node30&#45;&gt;Node32 -->
<g id="edge37" class="edge">
<title>Node30&#45;&gt;Node32</title>
<path fill="none" stroke="#191970" d="M371.5456,-358.4639C411.102,-346.5792 465.6652,-330.1858 502.8597,-319.0108"/>
<polygon fill="#191970" stroke="#191970" points="504.293,-322.2348 512.863,-316.0053 502.2788,-315.5308 504.293,-322.2348"/>
</g>
<!-- Node33 -->
<g id="node34" class="node">
<title>Node33</title>
<polygon fill="#ffffff" stroke="#bfbfbf" points="616.5,-297 616.5,-316 706.5,-316 706.5,-297 616.5,-297"/>
<text text-anchor="middle" x="661.5" y="-304" font-family="Helvetica,sans-Serif" font-size="10.00" fill="#000000">boost/format.hpp</text>
</g>
<!-- Node30&#45;&gt;Node33 -->
<g id="edge38" class="edge">
<title>Node30&#45;&gt;Node33</title>
<path fill="none" stroke="#191970" d="M378.0298,-360.8973C382.9178,-359.887 387.7923,-358.9074 392.5,-358 487.6346,-339.6623 513.0071,-343.3997 607.5,-322 611.8446,-321.0161 616.3578,-319.8899 620.841,-318.7035"/>
<polygon fill="#191970" stroke="#191970" points="621.8151,-322.0657 630.5309,-316.042 619.961,-315.3157 621.8151,-322.0657"/>
</g>
<!-- Node34 -->
<g id="node35" class="node">
<title>Node34</title>
<polygon fill="#ffffff" stroke="#bfbfbf" points="309,-297 309,-316 384,-316 384,-297 309,-297"/>
<text text-anchor="middle" x="346.5" y="-304" font-family="Helvetica,sans-Serif" font-size="10.00" fill="#000000">glm/vec2.hpp</text>
</g>
<!-- Node30&#45;&gt;Node34 -->
<g id="edge39" class="edge">
<title>Node30&#45;&gt;Node34</title>
<path fill="none" stroke="#191970" d="M327.1729,-358.2967C330.8033,-348.5672 335.542,-335.8675 339.4185,-325.4784"/>
<polygon fill="#191970" stroke="#191970" points="342.7179,-326.6476 342.9347,-316.055 336.1596,-324.2004 342.7179,-326.6476"/>
</g>
<!-- Node35&#45;&gt;Node15 -->
<g id="edge48" class="edge">
<title>Node35&#45;&gt;Node15</title>
<path fill="none" stroke="#191970" d="M1058.606,-431.587C1115.4681,-426.1087 1212.5772,-413.4014 1237.5,-389 1264.3857,-362.6768 1256.5,-344.1265 1256.5,-306.5 1256.5,-306.5 1256.5,-306.5 1256.5,-189 1256.5,-107.2002 966.3693,-76.8655 861.6387,-68.58"/>
<polygon fill="#191970" stroke="#191970" points="861.7622,-65.0793 851.5235,-67.8032 861.2261,-72.0588 861.7622,-65.0793"/>
</g>
<!-- Node35&#45;&gt;Node23 -->
<g id="edge46" class="edge">
<title>Node35&#45;&gt;Node23</title>
<path fill="none" stroke="#191970" d="M1012.773,-425.3549C1006.7837,-410.3637 994.1878,-380.8236 979.5,-358 971.6996,-345.8789 961.3926,-333.4422 952.8252,-323.8274"/>
<polygon fill="#191970" stroke="#191970" points="955.1764,-321.2116 945.8507,-316.1834 950.0053,-325.9297 955.1764,-321.2116"/>
</g>
<!-- Node35&#45;&gt;Node24 -->
<g id="edge45" class="edge">
<title>Node35&#45;&gt;Node24</title>
<path fill="none" stroke="#191970" d="M1002.75,-425.3906C988.8009,-415.6421 966.9902,-400.3994 950.6103,-388.9521"/>
<polygon fill="#191970" stroke="#191970" points="952.3551,-385.9015 942.1534,-383.0419 948.3452,-391.6392 952.3551,-385.9015"/>
</g>
<!-- Node36 -->
<g id="node37" class="node">
<title>Node36</title>
<polygon fill="#ffffff" stroke="#bfbfbf" points="1026.5,-364 1026.5,-383 1076.5,-383 1076.5,-364 1026.5,-364"/>
<text text-anchor="middle" x="1051.5" y="-371" font-family="Helvetica,sans-Serif" font-size="10.00" fill="#000000">fstream</text>
</g>
<!-- Node35&#45;&gt;Node36 -->
<g id="edge47" class="edge">
<title>Node35&#45;&gt;Node36</title>
<path fill="none" stroke="#191970" d="M1021.9688,-425.3906C1027.0246,-416.5068 1034.6772,-403.0601 1040.9254,-392.0811"/>
<polygon fill="#191970" stroke="#191970" points="1044.0498,-393.6672 1045.9541,-383.2449 1037.966,-390.2048 1044.0498,-393.6672"/>
</g>
<!-- Node37 -->
<g id="node38" class="node">
<title>Node37</title>
<g id="a_node38"><a xlink:href="kryne-engine_2_utils_2_utils_8h.html" target="_top" xlink:title="kryne&#45;engine/Utils\l/Utils.h">
<polygon fill="#ffffff" stroke="#000000" points="1133,-358.5 1133,-388.5 1228,-388.5 1228,-358.5 1133,-358.5"/>
<text text-anchor="start" x="1141" y="-376.5" font-family="Helvetica,sans-Serif" font-size="10.00" fill="#000000">kryne&#45;engine/Utils</text>
<text text-anchor="middle" x="1180.5" y="-365.5" font-family="Helvetica,sans-Serif" font-size="10.00" fill="#000000">/Utils.h</text>
</a>
</g>
</g>
<!-- Node35&#45;&gt;Node37 -->
<g id="edge49" class="edge">
<title>Node35&#45;&gt;Node37</title>
<path fill="none" stroke="#191970" d="M1042.125,-425.3906C1065.759,-416.5279 1101.5028,-403.1239 1130.7416,-392.1594"/>
<polygon fill="#191970" stroke="#191970" points="1132.2467,-395.333 1140.3811,-388.5446 1129.7888,-388.7787 1132.2467,-395.333"/>
</g>
<!-- Node38 -->
<g id="node39" class="node">
<title>Node38</title>
<g id="a_node39"><a xlink:href="_string_utils_8hpp.html" target="_top" xlink:title="StringUtils.hpp">
<polygon fill="#ffffff" stroke="#000000" points="1056,-179.5 1056,-198.5 1137,-198.5 1137,-179.5 1056,-179.5"/>
<text text-anchor="middle" x="1096.5" y="-186.5" font-family="Helvetica,sans-Serif" font-size="10.00" fill="#000000">StringUtils.hpp</text>
</a>
</g>
</g>
<!-- Node37&#45;&gt;Node38 -->
<g id="edge50" class="edge">
<title>Node37&#45;&gt;Node38</title>
<path fill="none" stroke="#191970" d="M1188.6411,-358.3441C1201.9726,-331.2404 1224.5931,-273.6885 1199.5,-235 1187.6858,-216.7849 1166.7884,-205.7194 1146.8902,-199.0272"/>
<polygon fill="#191970" stroke="#191970" points="1147.8327,-195.6555 1137.2464,-196.0811 1145.7875,-202.3501 1147.8327,-195.6555"/>
</g>
<!-- Node39 -->
<g id="node40" class="node">
<title>Node39</title>
<g id="a_node40"><a xlink:href="_vector_mapping_8hpp.html" target="_top" xlink:title="VectorMapping.hpp">
<polygon fill="#ffffff" stroke="#000000" points="1089,-297 1089,-316 1190,-316 1190,-297 1089,-297"/>
<text text-anchor="middle" x="1139.5" y="-304" font-family="Helvetica,sans-Serif" font-size="10.00" fill="#000000">VectorMapping.hpp</text>
</a>
</g>
</g>
<!-- Node37&#45;&gt;Node39 -->
<g id="edge52" class="edge">
<title>Node37&#45;&gt;Node39</title>
<path fill="none" stroke="#191970" d="M1171.1965,-358.2967C1165.1186,-348.3645 1157.1466,-335.3371 1150.7181,-324.8321"/>
<polygon fill="#191970" stroke="#191970" points="1153.5522,-322.7578 1145.3471,-316.055 1147.5814,-326.4115 1153.5522,-322.7578"/>
</g>
<!-- Node38&#45;&gt;Node15 -->
<g id="edge51" class="edge">
<title>Node38&#45;&gt;Node15</title>
<path fill="none" stroke="#191970" d="M1075.1566,-179.3484C1027.1903,-157.6577 910.723,-104.9905 855.0809,-79.8289"/>
<polygon fill="#191970" stroke="#191970" points="856.2981,-76.5381 845.7442,-75.6068 853.4138,-82.9163 856.2981,-76.5381"/>
</g>
<!-- Node39&#45;&gt;Node3 -->
<g id="edge53" class="edge">
<title>Node39&#45;&gt;Node3</title>
<path fill="none" stroke="#191970" d="M1123.4063,-296.8906C1106.7772,-286.9616 1080.6024,-271.333 1061.3206,-259.8201"/>
<polygon fill="#191970" stroke="#191970" points="1062.861,-256.6634 1052.4807,-254.5419 1059.2724,-262.6736 1062.861,-256.6634"/>
</g>
<!-- Node40 -->
<g id="node41" class="node">
<title>Node40</title>
<polygon fill="#ffffff" stroke="#bfbfbf" points="1076.5,-235.5 1076.5,-254.5 1190.5,-254.5 1190.5,-235.5 1076.5,-235.5"/>
<text text-anchor="middle" x="1133.5" y="-242.5" font-family="Helvetica,sans-Serif" font-size="10.00" fill="#000000">glm/detail/qualifier.hpp</text>
</g>
<!-- Node39&#45;&gt;Node40 -->
<g id="edge54" class="edge">
<title>Node39&#45;&gt;Node40</title>
<path fill="none" stroke="#191970" d="M1138.5625,-296.8906C1137.7308,-288.3657 1136.4892,-275.6392 1135.4438,-264.9235"/>
<polygon fill="#191970" stroke="#191970" points="1138.9053,-264.3577 1134.4507,-254.7449 1131.9383,-265.0375 1138.9053,-264.3577"/>
</g>
<!-- Node41&#45;&gt;Node1 -->
<g id="edge57" class="edge">
<title>Node41&#45;&gt;Node1</title>
<path fill="none" stroke="#191970" d="M698.9725,-615.2967C709.1128,-606.4733 722.0604,-595.2072 733.289,-585.4368"/>
<polygon fill="#191970" stroke="#191970" points="735.8502,-587.8478 741.0967,-578.6432 731.2552,-582.567 735.8502,-587.8478"/>
</g>
<!-- Node41&#45;&gt;Node14 -->
<g id="edge56" class="edge">
<title>Node41&#45;&gt;Node14</title>
<path fill="none" stroke="#191970" d="M730.6281,-624.9821C876.0907,-607.9881 1294.5,-554.1003 1294.5,-496.5 1294.5,-496.5 1294.5,-496.5 1294.5,-189 1294.5,-113.0182 1188.4686,-82.4746 1130.8127,-71.4827"/>
<polygon fill="#191970" stroke="#191970" points="1131.1086,-67.9798 1120.6465,-69.6513 1129.8675,-74.8689 1131.1086,-67.9798"/>
</g>
<!-- Node41&#45;&gt;Node42 -->
<g id="edge58" class="edge">
<title>Node41&#45;&gt;Node42</title>
<path fill="none" stroke="#191970" d="M632.2688,-616.6988C589.3473,-604.6664 527.6679,-587.3755 486.3995,-575.8066"/>
<polygon fill="#191970" stroke="#191970" points="487.2033,-572.397 476.6298,-573.0678 485.3138,-579.1372 487.2033,-572.397"/>
</g>
<!-- Node42&#45;&gt;Node2 -->
<g id="edge59" class="edge">
<title>Node42&#45;&gt;Node2</title>
<path fill="none" stroke="#191970" d="M437.3417,-553.7523C420.8827,-521.1672 373.6505,-414.8829 425.5,-358 483.8332,-294.0039 728.7301,-339.6729 813.5,-322 817.3639,-321.1945 821.3544,-320.1789 825.3018,-319.0547"/>
<polygon fill="#191970" stroke="#191970" points="826.3991,-322.3791 834.9283,-316.0939 824.3413,-315.6884 826.3991,-322.3791"/>
</g>
<!-- Node42&#45;&gt;Node3 -->
<g id="edge61" class="edge">
<title>Node42&#45;&gt;Node3</title>
<path fill="none" stroke="#191970" d="M401.7959,-553.9492C323.7015,-534.4357 160.5,-487.3893 160.5,-435 160.5,-435 160.5,-435 160.5,-373.5 160.5,-335.8735 150.6982,-315.2118 179.5,-291 195.5979,-277.4675 850.2001,-252.0138 1004.2679,-246.2022"/>
<polygon fill="#191970" stroke="#191970" points="1004.6187,-249.6916 1014.4801,-245.8182 1004.3556,-242.6965 1004.6187,-249.6916"/>
</g>
<!-- Node42&#45;&gt;Node4 -->
<g id="edge60" class="edge">
<title>Node42&#45;&gt;Node4</title>
<path fill="none" stroke="#191970" d="M478.7645,-553.9717C518.6427,-543.4939 583.5267,-526.4459 632.2923,-513.633"/>
<polygon fill="#191970" stroke="#191970" points="633.346,-516.975 642.1283,-511.0486 631.5671,-510.2048 633.346,-516.975"/>
</g>
<!-- Node43 -->
<g id="node44" class="node">
<title>Node43</title>
<polygon fill="#ffffff" stroke="#bfbfbf" points="76.5,-487 76.5,-506 132.5,-506 132.5,-487 76.5,-487"/>
<text text-anchor="middle" x="104.5" y="-494" font-family="Helvetica,sans-Serif" font-size="10.00" fill="#000000">algorithm</text>
</g>
<!-- Node42&#45;&gt;Node43 -->
<g id="edge62" class="edge">
<title>Node42&#45;&gt;Node43</title>
<path fill="none" stroke="#191970" d="M400.803,-558.6686C343.0244,-551.4278 235.6525,-535.9937 146.5,-512 143.6855,-511.2425 140.7944,-510.3744 137.9094,-509.4442"/>
<polygon fill="#191970" stroke="#191970" points="138.8397,-506.0629 128.245,-506.1137 136.5589,-512.6809 138.8397,-506.0629"/>
</g>
</g>
</svg>
