<?xml version="1.0" encoding="UTF-8" standalone="no"?>
<!DOCTYPE svg PUBLIC "-//W3C//DTD SVG 1.1//EN"
 "http://www.w3.org/Graphics/SVG/1.1/DTD/svg11.dtd">
<!-- Generated by graphviz version 2.44.1 (20200629.0846)
 -->
<!-- Title: kryne&#45;engine/src/Light/LightingRegistry.cpp Pages: 1 -->
<svg width="1353pt" height="587pt"
 viewBox="0.00 0.00 1353.00 587.00" xmlns="http://www.w3.org/2000/svg" xmlns:xlink="http://www.w3.org/1999/xlink">
<g id="graph0" class="graph" transform="scale(1 1) rotate(0) translate(4 583)">
<title>kryne&#45;engine/src/Light/LightingRegistry.cpp</title>
<polygon fill="white" stroke="transparent" points="-4,4 -4,-583 1349,-583 1349,4 -4,4"/>
<!-- Node1 -->
<g id="node1" class="node">
<title>Node1</title>
<g id="a_node1"><a xlink:title=" ">
<polygon fill="#bfbfbf" stroke="black" points="308.5,-548.5 308.5,-578.5 421.5,-578.5 421.5,-548.5 308.5,-548.5"/>
<text text-anchor="start" x="316.5" y="-566.5" font-family="Helvetica,sans-Serif" font-size="10.00">kryne&#45;engine/src/Light</text>
<text text-anchor="middle" x="365" y="-555.5" font-family="Helvetica,sans-Serif" font-size="10.00">/LightingRegistry.cpp</text>
</a>
</g>
</g>
<!-- Node2 -->
<g id="node2" class="node">
<title>Node2</title>
<g id="a_node2"><a xlink:href="_lighting_registry_8h.html" target="_top" xlink:title=" ">
<polygon fill="white" stroke="black" points="316,-481.5 316,-511.5 414,-511.5 414,-481.5 316,-481.5"/>
<text text-anchor="start" x="324" y="-499.5" font-family="Helvetica,sans-Serif" font-size="10.00">kryne&#45;engine/Light</text>
<text text-anchor="middle" x="365" y="-488.5" font-family="Helvetica,sans-Serif" font-size="10.00">/LightingRegistry.h</text>
</a>
</g>
</g>
<!-- Node1&#45;&gt;Node2 -->
<g id="edge1" class="edge">
<title>Node1&#45;&gt;Node2</title>
<path fill="none" stroke="midnightblue" d="M365,-548.4C365,-540.64 365,-530.81 365,-521.86"/>
<polygon fill="midnightblue" stroke="midnightblue" points="368.5,-521.58 365,-511.58 361.5,-521.58 368.5,-521.58"/>
</g>
<!-- Node3 -->
<g id="node3" class="node">
<title>Node3</title>
<g id="a_node3"><a xlink:title=" ">
<polygon fill="white" stroke="#bfbfbf" points="0,-0.5 0,-19.5 52,-19.5 52,-0.5 0,-0.5"/>
<text text-anchor="middle" x="26" y="-7.5" font-family="Helvetica,sans-Serif" font-size="10.00">memory</text>
</a>
</g>
</g>
<!-- Node2&#45;&gt;Node3 -->
<g id="edge2" class="edge">
<title>Node2&#45;&gt;Node3</title>
<path fill="none" stroke="midnightblue" d="M315.71,-488.43C221.69,-473.55 26,-435.27 26,-374.5 26,-374.5 26,-374.5 26,-121 26,-88.95 26,-51.64 26,-29.75"/>
<polygon fill="midnightblue" stroke="midnightblue" points="29.5,-29.56 26,-19.56 22.5,-29.56 29.5,-29.56"/>
</g>
<!-- Node4 -->
<g id="node4" class="node">
<title>Node4</title>
<g id="a_node4"><a xlink:href="_directional_light_8h.html" target="_top" xlink:title=" ">
<polygon fill="white" stroke="black" points="542,-425.5 542,-444.5 634,-444.5 634,-425.5 542,-425.5"/>
<text text-anchor="middle" x="588" y="-432.5" font-family="Helvetica,sans-Serif" font-size="10.00">DirectionalLight.h</text>
</a>
</g>
</g>
<!-- Node2&#45;&gt;Node4 -->
<g id="edge3" class="edge">
<title>Node2&#45;&gt;Node4</title>
<path fill="none" stroke="midnightblue" d="M414.21,-482.37C453.72,-471.83 508.6,-457.19 546.05,-447.19"/>
<polygon fill="midnightblue" stroke="midnightblue" points="547.36,-450.47 556.12,-444.51 545.56,-443.7 547.36,-450.47"/>
</g>
<!-- Node41 -->
<g id="node41" class="node">
<title>Node41</title>
<g id="a_node41"><a xlink:href="_point_light_8h.html" target="_top" xlink:title=" ">
<polygon fill="white" stroke="black" points="331,-425.5 331,-444.5 399,-444.5 399,-425.5 331,-425.5"/>
<text text-anchor="middle" x="365" y="-432.5" font-family="Helvetica,sans-Serif" font-size="10.00">PointLight.h</text>
</a>
</g>
</g>
<!-- Node2&#45;&gt;Node41 -->
<g id="edge57" class="edge">
<title>Node2&#45;&gt;Node41</title>
<path fill="none" stroke="midnightblue" d="M365,-481.4C365,-473.47 365,-463.46 365,-454.86"/>
<polygon fill="midnightblue" stroke="midnightblue" points="368.5,-454.66 365,-444.66 361.5,-454.66 368.5,-454.66"/>
</g>
<!-- Node5 -->
<g id="node5" class="node">
<title>Node5</title>
<g id="a_node5"><a xlink:title=" ">
<polygon fill="white" stroke="#bfbfbf" points="277,-168.5 277,-187.5 351,-187.5 351,-168.5 277,-168.5"/>
<text text-anchor="middle" x="314" y="-175.5" font-family="Helvetica,sans-Serif" font-size="10.00">glm/vec3.hpp</text>
</a>
</g>
</g>
<!-- Node4&#45;&gt;Node5 -->
<g id="edge4" class="edge">
<title>Node4&#45;&gt;Node5</title>
<path fill="none" stroke="midnightblue" d="M575.18,-425.32C539.85,-401.04 439.07,-329.31 369,-255 351.6,-236.55 335.03,-212.43 324.7,-196.36"/>
<polygon fill="midnightblue" stroke="midnightblue" points="327.43,-194.12 319.13,-187.52 321.5,-197.85 327.43,-194.12"/>
</g>
<!-- Node6 -->
<g id="node6" class="node">
<title>Node6</title>
<g id="a_node6"><a xlink:title=" ">
<polygon fill="white" stroke="#bfbfbf" points="1303,-112.5 1303,-131.5 1345,-131.5 1345,-112.5 1303,-112.5"/>
<text text-anchor="middle" x="1324" y="-119.5" font-family="Helvetica,sans-Serif" font-size="10.00">vector</text>
</a>
</g>
</g>
<!-- Node4&#45;&gt;Node6 -->
<g id="edge5" class="edge">
<title>Node4&#45;&gt;Node6</title>
<path fill="none" stroke="midnightblue" d="M634.07,-434.18C786.01,-434.37 1264.63,-431.54 1318,-389 1347.53,-365.46 1342,-345.26 1342,-307.5 1342,-307.5 1342,-307.5 1342,-238.5 1342,-203.95 1334.04,-164.28 1328.71,-141.57"/>
<polygon fill="midnightblue" stroke="midnightblue" points="1332.05,-140.51 1326.28,-131.62 1325.25,-142.17 1332.05,-140.51"/>
</g>
<!-- Node7 -->
<g id="node7" class="node">
<title>Node7</title>
<g id="a_node7"><a xlink:href="_shader_8h.html" target="_top" xlink:title=" ">
<polygon fill="white" stroke="black" points="565,-358.5 565,-388.5 675,-388.5 675,-358.5 565,-358.5"/>
<text text-anchor="start" x="573" y="-376.5" font-family="Helvetica,sans-Serif" font-size="10.00">kryne&#45;engine/Material</text>
<text text-anchor="middle" x="620" y="-365.5" font-family="Helvetica,sans-Serif" font-size="10.00">/Shader.h</text>
</a>
</g>
</g>
<!-- Node4&#45;&gt;Node7 -->
<g id="edge6" class="edge">
<title>Node4&#45;&gt;Node7</title>
<path fill="none" stroke="midnightblue" d="M592.58,-425.48C596.51,-418.17 602.36,-407.3 607.64,-397.47"/>
<polygon fill="midnightblue" stroke="midnightblue" points="610.8,-398.99 612.46,-388.52 604.64,-395.67 610.8,-398.99"/>
</g>
<!-- Node8 -->
<g id="node8" class="node">
<title>Node8</title>
<g id="a_node8"><a xlink:title=" ">
<polygon fill="white" stroke="#bfbfbf" points="686.5,-297 686.5,-316 721.5,-316 721.5,-297 686.5,-297"/>
<text text-anchor="middle" x="704" y="-304" font-family="Helvetica,sans-Serif" font-size="10.00">map</text>
</a>
</g>
</g>
<!-- Node7&#45;&gt;Node8 -->
<g id="edge7" class="edge">
<title>Node7&#45;&gt;Node8</title>
<path fill="none" stroke="midnightblue" d="M638.23,-358.4C651.97,-347.76 670.78,-333.2 684.77,-322.38"/>
<polygon fill="midnightblue" stroke="midnightblue" points="687,-325.08 692.76,-316.19 682.71,-319.55 687,-325.08"/>
</g>
<!-- Node9 -->
<g id="node9" class="node">
<title>Node9</title>
<g id="a_node9"><a xlink:title=" ">
<polygon fill="white" stroke="#bfbfbf" points="740,-297 740,-316 792,-316 792,-297 740,-297"/>
<text text-anchor="middle" x="766" y="-304" font-family="Helvetica,sans-Serif" font-size="10.00">sstream</text>
</a>
</g>
</g>
<!-- Node7&#45;&gt;Node9 -->
<g id="edge8" class="edge">
<title>Node7&#45;&gt;Node9</title>
<path fill="none" stroke="midnightblue" d="M651.68,-358.4C677.3,-346.99 713.04,-331.08 737.7,-320.1"/>
<polygon fill="midnightblue" stroke="midnightblue" points="739.18,-323.27 746.89,-316.01 736.33,-316.88 739.18,-323.27"/>
</g>
<!-- Node10 -->
<g id="node10" class="node">
<title>Node10</title>
<g id="a_node10"><a xlink:href="_dispatcher_8h.html" target="_top" xlink:title=" ">
<polygon fill="white" stroke="black" points="117.5,-291.5 117.5,-321.5 230.5,-321.5 230.5,-291.5 117.5,-291.5"/>
<text text-anchor="start" x="125.5" y="-309.5" font-family="Helvetica,sans-Serif" font-size="10.00">kryne&#45;engine/Dispatch</text>
<text text-anchor="middle" x="174" y="-298.5" font-family="Helvetica,sans-Serif" font-size="10.00">/Dispatcher.h</text>
</a>
</g>
</g>
<!-- Node7&#45;&gt;Node10 -->
<g id="edge9" class="edge">
<title>Node7&#45;&gt;Node10</title>
<path fill="none" stroke="midnightblue" d="M564.86,-364.46C482.84,-352.51 328.9,-330.08 240.67,-317.22"/>
<polygon fill="midnightblue" stroke="midnightblue" points="241.17,-313.75 230.77,-315.77 240.16,-320.68 241.17,-313.75"/>
</g>
<!-- Node23 -->
<g id="node23" class="node">
<title>Node23</title>
<g id="a_node23"><a xlink:href="_uniforms_handler_8h.html" target="_top" xlink:title=" ">
<polygon fill="white" stroke="black" points="572,-297 572,-316 668,-316 668,-297 572,-297"/>
<text text-anchor="middle" x="620" y="-304" font-family="Helvetica,sans-Serif" font-size="10.00">UniformsHandler.h</text>
</a>
</g>
</g>
<!-- Node7&#45;&gt;Node23 -->
<g id="edge29" class="edge">
<title>Node7&#45;&gt;Node23</title>
<path fill="none" stroke="midnightblue" d="M620,-358.4C620,-349.06 620,-336.71 620,-326.52"/>
<polygon fill="midnightblue" stroke="midnightblue" points="623.5,-326.19 620,-316.19 616.5,-326.19 623.5,-326.19"/>
</g>
<!-- Node35 -->
<g id="node35" class="node">
<title>Node35</title>
<g id="a_node35"><a xlink:href="_shader_chunk_8h.html" target="_top" xlink:title=" ">
<polygon fill="white" stroke="black" points="1021.5,-297 1021.5,-316 1104.5,-316 1104.5,-297 1021.5,-297"/>
<text text-anchor="middle" x="1063" y="-304" font-family="Helvetica,sans-Serif" font-size="10.00">ShaderChunk.h</text>
</a>
</g>
</g>
<!-- Node7&#45;&gt;Node35 -->
<g id="edge46" class="edge">
<title>Node7&#45;&gt;Node35</title>
<path fill="none" stroke="midnightblue" d="M675.21,-364.4C761.49,-351.74 927.09,-327.44 1011.22,-315.1"/>
<polygon fill="midnightblue" stroke="midnightblue" points="1011.92,-318.53 1021.31,-313.62 1010.9,-311.61 1011.92,-318.53"/>
</g>
<!-- Node11 -->
<g id="node11" class="node">
<title>Node11</title>
<g id="a_node11"><a xlink:href="_synchronizable_pool_8h.html" target="_top" xlink:title=" ">
<polygon fill="white" stroke="black" points="147.5,-168.5 147.5,-187.5 258.5,-187.5 258.5,-168.5 147.5,-168.5"/>
<text text-anchor="middle" x="203" y="-175.5" font-family="Helvetica,sans-Serif" font-size="10.00">SynchronizablePool.h</text>
</a>
</g>
</g>
<!-- Node10&#45;&gt;Node11 -->
<g id="edge10" class="edge">
<title>Node10&#45;&gt;Node11</title>
<path fill="none" stroke="midnightblue" d="M169.62,-291.22C165.27,-274.6 160.26,-246.55 168,-224 171.72,-213.16 179.23,-202.92 186.35,-194.96"/>
<polygon fill="midnightblue" stroke="midnightblue" points="189.05,-197.19 193.44,-187.55 184,-192.35 189.05,-197.19"/>
</g>
<!-- Node20 -->
<g id="node20" class="node">
<title>Node20</title>
<g id="a_node20"><a xlink:href="_runner_pool_8h.html" target="_top" xlink:title=" ">
<polygon fill="white" stroke="black" points="54.5,-168.5 54.5,-187.5 129.5,-187.5 129.5,-168.5 54.5,-168.5"/>
<text text-anchor="middle" x="92" y="-175.5" font-family="Helvetica,sans-Serif" font-size="10.00">RunnerPool.h</text>
</a>
</g>
</g>
<!-- Node10&#45;&gt;Node20 -->
<g id="edge22" class="edge">
<title>Node10&#45;&gt;Node20</title>
<path fill="none" stroke="midnightblue" d="M164.91,-291.48C149.83,-268.21 119.66,-221.66 103.25,-196.36"/>
<polygon fill="midnightblue" stroke="midnightblue" points="106.07,-194.28 97.7,-187.79 100.2,-198.08 106.07,-194.28"/>
</g>
<!-- Node22 -->
<g id="node22" class="node">
<title>Node22</title>
<g id="a_node22"><a xlink:href="_main_pool_8h.html" target="_top" xlink:title=" ">
<polygon fill="white" stroke="black" points="177.5,-230 177.5,-249 242.5,-249 242.5,-230 177.5,-230"/>
<text text-anchor="middle" x="210" y="-237" font-family="Helvetica,sans-Serif" font-size="10.00">MainPool.h</text>
</a>
</g>
</g>
<!-- Node10&#45;&gt;Node22 -->
<g id="edge27" class="edge">
<title>Node10&#45;&gt;Node22</title>
<path fill="none" stroke="midnightblue" d="M181.81,-291.4C187.2,-281.66 194.41,-268.65 200.19,-258.21"/>
<polygon fill="midnightblue" stroke="midnightblue" points="203.4,-259.64 205.18,-249.19 197.28,-256.25 203.4,-259.64"/>
</g>
<!-- Node12 -->
<g id="node12" class="node">
<title>Node12</title>
<g id="a_node12"><a xlink:href="_base_pool_8h.html" target="_top" xlink:title=" ">
<polygon fill="white" stroke="black" points="157.5,-56.5 157.5,-75.5 224.5,-75.5 224.5,-56.5 157.5,-56.5"/>
<text text-anchor="middle" x="191" y="-63.5" font-family="Helvetica,sans-Serif" font-size="10.00">BasePool.h</text>
</a>
</g>
</g>
<!-- Node11&#45;&gt;Node12 -->
<g id="edge11" class="edge">
<title>Node11&#45;&gt;Node12</title>
<path fill="none" stroke="midnightblue" d="M202.06,-168.37C200.12,-150.62 195.65,-109.67 193.03,-85.6"/>
<polygon fill="midnightblue" stroke="midnightblue" points="196.5,-85.15 191.94,-75.59 189.54,-85.91 196.5,-85.15"/>
</g>
<!-- Node19 -->
<g id="node19" class="node">
<title>Node19</title>
<g id="a_node19"><a xlink:href="_synchronizable_child_pool_8h.html" target="_top" xlink:title=" ">
<polygon fill="white" stroke="black" points="219.5,-112.5 219.5,-131.5 352.5,-131.5 352.5,-112.5 219.5,-112.5"/>
<text text-anchor="middle" x="286" y="-119.5" font-family="Helvetica,sans-Serif" font-size="10.00">SynchronizableChildPool.h</text>
</a>
</g>
</g>
<!-- Node11&#45;&gt;Node19 -->
<g id="edge19" class="edge">
<title>Node11&#45;&gt;Node19</title>
<path fill="none" stroke="midnightblue" d="M211.22,-168.32C222.45,-159.82 242.29,-146.73 258.82,-136.8"/>
<polygon fill="midnightblue" stroke="midnightblue" points="260.73,-139.73 267.59,-131.65 257.19,-133.69 260.73,-139.73"/>
</g>
<!-- Node12&#45;&gt;Node3 -->
<g id="edge17" class="edge">
<title>Node12&#45;&gt;Node3</title>
<path fill="none" stroke="midnightblue" d="M164.86,-56.44C136.98,-47.32 92.65,-32.81 61.6,-22.65"/>
<polygon fill="midnightblue" stroke="midnightblue" points="62.62,-19.3 52.02,-19.52 60.44,-25.95 62.62,-19.3"/>
</g>
<!-- Node13 -->
<g id="node13" class="node">
<title>Node13</title>
<g id="a_node13"><a xlink:title=" ">
<polygon fill="white" stroke="#bfbfbf" points="130,-0.5 130,-19.5 174,-19.5 174,-0.5 130,-0.5"/>
<text text-anchor="middle" x="152" y="-7.5" font-family="Helvetica,sans-Serif" font-size="10.00">thread</text>
</a>
</g>
</g>
<!-- Node12&#45;&gt;Node13 -->
<g id="edge12" class="edge">
<title>Node12&#45;&gt;Node13</title>
<path fill="none" stroke="midnightblue" d="M184.56,-56.08C179.05,-48.46 170.97,-37.26 164.24,-27.94"/>
<polygon fill="midnightblue" stroke="midnightblue" points="167.01,-25.81 158.32,-19.75 161.34,-29.91 167.01,-25.81"/>
</g>
<!-- Node14 -->
<g id="node14" class="node">
<title>Node14</title>
<g id="a_node14"><a xlink:title=" ">
<polygon fill="white" stroke="#bfbfbf" points="192,-0.5 192,-19.5 236,-19.5 236,-0.5 192,-0.5"/>
<text text-anchor="middle" x="214" y="-7.5" font-family="Helvetica,sans-Serif" font-size="10.00">mutex</text>
</a>
</g>
</g>
<!-- Node12&#45;&gt;Node14 -->
<g id="edge13" class="edge">
<title>Node12&#45;&gt;Node14</title>
<path fill="none" stroke="midnightblue" d="M194.8,-56.08C197.91,-48.77 202.42,-38.18 206.29,-29.1"/>
<polygon fill="midnightblue" stroke="midnightblue" points="209.57,-30.32 210.27,-19.75 203.13,-27.58 209.57,-30.32"/>
</g>
<!-- Node15 -->
<g id="node15" class="node">
<title>Node15</title>
<g id="a_node15"><a xlink:title=" ">
<polygon fill="white" stroke="#bfbfbf" points="254.5,-0.5 254.5,-19.5 347.5,-19.5 347.5,-0.5 254.5,-0.5"/>
<text text-anchor="middle" x="301" y="-7.5" font-family="Helvetica,sans-Serif" font-size="10.00">condition_variable</text>
</a>
</g>
</g>
<!-- Node12&#45;&gt;Node15 -->
<g id="edge14" class="edge">
<title>Node12&#45;&gt;Node15</title>
<path fill="none" stroke="midnightblue" d="M208.67,-56.32C226.39,-47.62 253.9,-34.12 274.29,-24.11"/>
<polygon fill="midnightblue" stroke="midnightblue" points="275.94,-27.2 283.37,-19.65 272.85,-20.92 275.94,-27.2"/>
</g>
<!-- Node16 -->
<g id="node16" class="node">
<title>Node16</title>
<g id="a_node16"><a xlink:title=" ">
<polygon fill="white" stroke="#bfbfbf" points="365.5,-0.5 365.5,-19.5 408.5,-19.5 408.5,-0.5 365.5,-0.5"/>
<text text-anchor="middle" x="387" y="-7.5" font-family="Helvetica,sans-Serif" font-size="10.00">queue</text>
</a>
</g>
</g>
<!-- Node12&#45;&gt;Node16 -->
<g id="edge15" class="edge">
<title>Node12&#45;&gt;Node16</title>
<path fill="none" stroke="midnightblue" d="M222.98,-56.44C254.31,-48.03 303.63,-34.67 355.6,-20.08"/>
<polygon fill="midnightblue" stroke="midnightblue" points="356.66,-23.42 365.33,-17.34 354.76,-16.68 356.66,-23.42"/>
</g>
<!-- Node17 -->
<g id="node17" class="node">
<title>Node17</title>
<g id="a_node17"><a xlink:title=" ">
<polygon fill="white" stroke="#bfbfbf" points="70.5,-0.5 70.5,-19.5 111.5,-19.5 111.5,-0.5 70.5,-0.5"/>
<text text-anchor="middle" x="91" y="-7.5" font-family="Helvetica,sans-Serif" font-size="10.00">future</text>
</a>
</g>
</g>
<!-- Node12&#45;&gt;Node17 -->
<g id="edge16" class="edge">
<title>Node12&#45;&gt;Node17</title>
<path fill="none" stroke="midnightblue" d="M174.93,-56.32C159.04,-47.74 134.49,-34.49 116.04,-24.52"/>
<polygon fill="midnightblue" stroke="midnightblue" points="117.49,-21.33 107.03,-19.65 114.16,-27.49 117.49,-21.33"/>
</g>
<!-- Node18 -->
<g id="node18" class="node">
<title>Node18</title>
<g id="a_node18"><a xlink:title=" ">
<polygon fill="white" stroke="#bfbfbf" points="745,-0.5 745,-19.5 799,-19.5 799,-0.5 745,-0.5"/>
<text text-anchor="middle" x="772" y="-7.5" font-family="Helvetica,sans-Serif" font-size="10.00">iostream</text>
</a>
</g>
</g>
<!-- Node12&#45;&gt;Node18 -->
<g id="edge18" class="edge">
<title>Node12&#45;&gt;Node18</title>
<path fill="none" stroke="midnightblue" d="M224.75,-61.86C326.25,-52.43 628.27,-24.36 734.52,-14.48"/>
<polygon fill="midnightblue" stroke="midnightblue" points="735.12,-17.94 744.76,-13.53 734.47,-10.97 735.12,-17.94"/>
</g>
<!-- Node19&#45;&gt;Node11 -->
<g id="edge21" class="edge">
<title>Node19&#45;&gt;Node11</title>
<path fill="none" stroke="midnightblue" d="M277.57,-131.83C266.3,-140.34 246.6,-153.34 230.17,-163.21"/>
<polygon fill="midnightblue" stroke="midnightblue" points="228.31,-160.25 221.45,-168.32 231.85,-166.28 228.31,-160.25"/>
</g>
<!-- Node19&#45;&gt;Node12 -->
<g id="edge20" class="edge">
<title>Node19&#45;&gt;Node12</title>
<path fill="none" stroke="midnightblue" d="M270.74,-112.32C255.78,-103.82 232.75,-90.73 215.27,-80.8"/>
<polygon fill="midnightblue" stroke="midnightblue" points="216.65,-77.55 206.23,-75.65 213.19,-83.64 216.65,-77.55"/>
</g>
<!-- Node20&#45;&gt;Node12 -->
<g id="edge23" class="edge">
<title>Node20&#45;&gt;Node12</title>
<path fill="none" stroke="midnightblue" d="M100.13,-168.45C108.65,-159.45 122.39,-144.84 134,-132 148.7,-115.75 165.18,-96.89 176.62,-83.68"/>
<polygon fill="midnightblue" stroke="midnightblue" points="179.45,-85.76 183.34,-75.91 174.15,-81.18 179.45,-85.76"/>
</g>
<!-- Node21 -->
<g id="node21" class="node">
<title>Node21</title>
<g id="a_node21"><a xlink:href="_child_pool_8h.html" target="_top" xlink:title=" ">
<polygon fill="white" stroke="black" points="59,-112.5 59,-131.5 125,-131.5 125,-112.5 59,-112.5"/>
<text text-anchor="middle" x="92" y="-119.5" font-family="Helvetica,sans-Serif" font-size="10.00">ChildPool.h</text>
</a>
</g>
</g>
<!-- Node20&#45;&gt;Node21 -->
<g id="edge24" class="edge">
<title>Node20&#45;&gt;Node21</title>
<path fill="none" stroke="midnightblue" d="M86.83,-168.08C85.32,-160.93 84.89,-150.64 85.54,-141.69"/>
<polygon fill="midnightblue" stroke="midnightblue" points="89.02,-142.13 86.87,-131.75 82.08,-141.2 89.02,-142.13"/>
</g>
<!-- Node21&#45;&gt;Node12 -->
<g id="edge25" class="edge">
<title>Node21&#45;&gt;Node12</title>
<path fill="none" stroke="midnightblue" d="M107.91,-112.32C123.64,-103.74 147.94,-90.49 166.21,-80.52"/>
<polygon fill="midnightblue" stroke="midnightblue" points="168.03,-83.52 175.13,-75.65 164.68,-77.37 168.03,-83.52"/>
</g>
<!-- Node21&#45;&gt;Node20 -->
<g id="edge26" class="edge">
<title>Node21&#45;&gt;Node20</title>
<path fill="none" stroke="midnightblue" d="M97.13,-131.75C98.66,-138.86 99.1,-149.14 98.47,-158.1"/>
<polygon fill="midnightblue" stroke="midnightblue" points="94.99,-157.71 97.17,-168.08 101.93,-158.62 94.99,-157.71"/>
</g>
<!-- Node22&#45;&gt;Node11 -->
<g id="edge28" class="edge">
<title>Node22&#45;&gt;Node11</title>
<path fill="none" stroke="midnightblue" d="M209,-229.98C208.01,-221.58 206.47,-208.48 205.2,-197.66"/>
<polygon fill="midnightblue" stroke="midnightblue" points="208.65,-197.03 204,-187.51 201.69,-197.85 208.65,-197.03"/>
</g>
<!-- Node24 -->
<g id="node24" class="node">
<title>Node24</title>
<g id="a_node24"><a xlink:title=" ">
<polygon fill="white" stroke="#bfbfbf" points="891.5,-168.5 891.5,-187.5 932.5,-187.5 932.5,-168.5 891.5,-168.5"/>
<text text-anchor="middle" x="912" y="-175.5" font-family="Helvetica,sans-Serif" font-size="10.00">string</text>
</a>
</g>
</g>
<!-- Node23&#45;&gt;Node24 -->
<g id="edge30" class="edge">
<title>Node23&#45;&gt;Node24</title>
<path fill="none" stroke="midnightblue" d="M652.17,-296.96C660.26,-294.91 668.93,-292.8 677,-291 760.04,-272.5 794.93,-303.25 865,-255 885.32,-241.01 898.53,-215.08 905.62,-197.44"/>
<polygon fill="midnightblue" stroke="midnightblue" points="909.04,-198.3 909.26,-187.71 902.48,-195.85 909.04,-198.3"/>
</g>
<!-- Node25 -->
<g id="node25" class="node">
<title>Node25</title>
<g id="a_node25"><a xlink:title=" ">
<polygon fill="white" stroke="#bfbfbf" points="932.5,-230 932.5,-249 1015.5,-249 1015.5,-230 932.5,-230"/>
<text text-anchor="middle" x="974" y="-237" font-family="Helvetica,sans-Serif" font-size="10.00">unordered_map</text>
</a>
</g>
</g>
<!-- Node23&#45;&gt;Node25 -->
<g id="edge31" class="edge">
<title>Node23&#45;&gt;Node25</title>
<path fill="none" stroke="midnightblue" d="M651.23,-296.95C659.56,-294.84 668.59,-292.69 677,-291 783.17,-269.62 811.88,-276.6 918,-255 923.04,-253.97 928.3,-252.78 933.49,-251.52"/>
<polygon fill="midnightblue" stroke="midnightblue" points="934.48,-254.89 943.33,-249.06 932.78,-248.1 934.48,-254.89"/>
</g>
<!-- Node26 -->
<g id="node26" class="node">
<title>Node26</title>
<g id="a_node26"><a xlink:title=" ">
<polygon fill="white" stroke="#bfbfbf" points="369,-168.5 369,-187.5 433,-187.5 433,-168.5 369,-168.5"/>
<text text-anchor="middle" x="401" y="-175.5" font-family="Helvetica,sans-Serif" font-size="10.00">glad/glad.h</text>
</a>
</g>
</g>
<!-- Node23&#45;&gt;Node26 -->
<g id="edge32" class="edge">
<title>Node23&#45;&gt;Node26</title>
<path fill="none" stroke="midnightblue" d="M571.86,-302.41C508.63,-297.23 402.82,-284.33 379,-255 365.12,-237.91 377.25,-212.42 388.26,-195.75"/>
<polygon fill="midnightblue" stroke="midnightblue" points="391.17,-197.7 394.09,-187.51 385.45,-193.65 391.17,-197.7"/>
</g>
<!-- Node27 -->
<g id="node27" class="node">
<title>Node27</title>
<g id="a_node27"><a xlink:title=" ">
<polygon fill="white" stroke="#bfbfbf" points="795,-168.5 795,-187.5 873,-187.5 873,-168.5 795,-168.5"/>
<text text-anchor="middle" x="834" y="-175.5" font-family="Helvetica,sans-Serif" font-size="10.00">GLFW/glfw3.h</text>
</a>
</g>
</g>
<!-- Node23&#45;&gt;Node27 -->
<g id="edge33" class="edge">
<title>Node23&#45;&gt;Node27</title>
<path fill="none" stroke="midnightblue" d="M652.5,-296.99C660.49,-294.96 669.04,-292.85 677,-291 752.22,-273.48 798.37,-315 847,-255 860.26,-238.64 852.31,-213.68 844.21,-196.87"/>
<polygon fill="midnightblue" stroke="midnightblue" points="847.09,-194.83 839.34,-187.61 840.9,-198.09 847.09,-194.83"/>
</g>
<!-- Node28 -->
<g id="node28" class="node">
<title>Node28</title>
<g id="a_node28"><a xlink:title=" ">
<polygon fill="white" stroke="#bfbfbf" points="520,-230 520,-249 606,-249 606,-230 520,-230"/>
<text text-anchor="middle" x="563" y="-237" font-family="Helvetica,sans-Serif" font-size="10.00">glm/mat4x4.hpp</text>
</a>
</g>
</g>
<!-- Node23&#45;&gt;Node28 -->
<g id="edge34" class="edge">
<title>Node23&#45;&gt;Node28</title>
<path fill="none" stroke="midnightblue" d="M612.31,-296.73C603.34,-286.5 588.31,-269.36 577.2,-256.69"/>
<polygon fill="midnightblue" stroke="midnightblue" points="579.79,-254.34 570.57,-249.13 574.53,-258.95 579.79,-254.34"/>
</g>
<!-- Node29 -->
<g id="node29" class="node">
<title>Node29</title>
<g id="a_node29"><a xlink:title=" ">
<polygon fill="white" stroke="#bfbfbf" points="624,-230 624,-249 730,-249 730,-230 624,-230"/>
<text text-anchor="middle" x="677" y="-237" font-family="Helvetica,sans-Serif" font-size="10.00">glm/gtc/type_ptr.hpp</text>
</a>
</g>
</g>
<!-- Node23&#45;&gt;Node29 -->
<g id="edge35" class="edge">
<title>Node23&#45;&gt;Node29</title>
<path fill="none" stroke="midnightblue" d="M627.69,-296.73C636.66,-286.5 651.69,-269.36 662.8,-256.69"/>
<polygon fill="midnightblue" stroke="midnightblue" points="665.47,-258.95 669.43,-249.13 660.21,-254.34 665.47,-258.95"/>
</g>
<!-- Node30 -->
<g id="node30" class="node">
<title>Node30</title>
<g id="a_node30"><a xlink:title=" ">
<polygon fill="white" stroke="#bfbfbf" points="748,-230 748,-249 838,-249 838,-230 748,-230"/>
<text text-anchor="middle" x="793" y="-237" font-family="Helvetica,sans-Serif" font-size="10.00">boost/variant.hpp</text>
</a>
</g>
</g>
<!-- Node23&#45;&gt;Node30 -->
<g id="edge36" class="edge">
<title>Node23&#45;&gt;Node30</title>
<path fill="none" stroke="midnightblue" d="M642.97,-296.87C673.17,-285.52 726.4,-265.52 760.66,-252.65"/>
<polygon fill="midnightblue" stroke="midnightblue" points="762.08,-255.86 770.21,-249.06 759.62,-249.3 762.08,-255.86"/>
</g>
<!-- Node31 -->
<g id="node31" class="node">
<title>Node31</title>
<g id="a_node31"><a xlink:href="_texture_8h.html" target="_top" xlink:title=" ">
<polygon fill="white" stroke="black" points="388.5,-224.5 388.5,-254.5 501.5,-254.5 501.5,-224.5 388.5,-224.5"/>
<text text-anchor="start" x="396.5" y="-242.5" font-family="Helvetica,sans-Serif" font-size="10.00">kryne&#45;engine/Textures</text>
<text text-anchor="middle" x="445" y="-231.5" font-family="Helvetica,sans-Serif" font-size="10.00">/Texture.h</text>
</a>
</g>
</g>
<!-- Node23&#45;&gt;Node31 -->
<g id="edge37" class="edge">
<title>Node23&#45;&gt;Node31</title>
<path fill="none" stroke="midnightblue" d="M596.76,-296.87C570.27,-287.03 526.28,-270.69 492.46,-258.13"/>
<polygon fill="midnightblue" stroke="midnightblue" points="493.36,-254.73 482.77,-254.53 490.92,-261.29 493.36,-254.73"/>
</g>
<!-- Node31&#45;&gt;Node5 -->
<g id="edge43" class="edge">
<title>Node31&#45;&gt;Node5</title>
<path fill="none" stroke="midnightblue" d="M413.95,-224.4C392.27,-214.55 363.54,-201.5 342.45,-191.92"/>
<polygon fill="midnightblue" stroke="midnightblue" points="343.61,-188.61 333.06,-187.66 340.72,-194.98 343.61,-188.61"/>
</g>
<!-- Node31&#45;&gt;Node18 -->
<g id="edge40" class="edge">
<title>Node31&#45;&gt;Node18</title>
<path fill="none" stroke="midnightblue" d="M449.18,-224.25C454.31,-208.8 464.32,-184.2 480,-168 554.36,-91.18 674.55,-43.18 734.9,-22.62"/>
<polygon fill="midnightblue" stroke="midnightblue" points="736.38,-25.82 744.76,-19.33 734.17,-19.18 736.38,-25.82"/>
</g>
<!-- Node31&#45;&gt;Node24 -->
<g id="edge39" class="edge">
<title>Node31&#45;&gt;Node24</title>
<path fill="none" stroke="midnightblue" d="M501.8,-225.57C504.91,-225 507.99,-224.48 511,-224 671.44,-198.68 717.65,-219.12 881.54,-187.67"/>
<polygon fill="midnightblue" stroke="midnightblue" points="882.33,-191.08 891.48,-185.73 880.99,-184.21 882.33,-191.08"/>
</g>
<!-- Node31&#45;&gt;Node26 -->
<g id="edge44" class="edge">
<title>Node31&#45;&gt;Node26</title>
<path fill="none" stroke="midnightblue" d="M434.57,-224.4C428.24,-215.84 420.13,-204.87 413.47,-195.86"/>
<polygon fill="midnightblue" stroke="midnightblue" points="416.16,-193.62 407.4,-187.66 410.53,-197.78 416.16,-193.62"/>
</g>
<!-- Node31&#45;&gt;Node27 -->
<g id="edge45" class="edge">
<title>Node31&#45;&gt;Node27</title>
<path fill="none" stroke="midnightblue" d="M501.82,-225.69C504.92,-225.1 508,-224.53 511,-224 631.98,-202.8 663.67,-207.1 785,-188 785.1,-187.98 785.2,-187.97 785.3,-187.95"/>
<polygon fill="midnightblue" stroke="midnightblue" points="785.69,-191.44 794.98,-186.35 784.54,-184.53 785.69,-191.44"/>
</g>
<!-- Node32 -->
<g id="node32" class="node">
<title>Node32</title>
<g id="a_node32"><a xlink:title=" ">
<polygon fill="white" stroke="#bfbfbf" points="581,-168.5 581,-187.5 651,-187.5 651,-168.5 581,-168.5"/>
<text text-anchor="middle" x="616" y="-175.5" font-family="Helvetica,sans-Serif" font-size="10.00">stb_image.h</text>
</a>
</g>
</g>
<!-- Node31&#45;&gt;Node32 -->
<g id="edge38" class="edge">
<title>Node31&#45;&gt;Node32</title>
<path fill="none" stroke="midnightblue" d="M485.52,-224.4C514.73,-214.24 553.72,-200.67 581.45,-191.02"/>
<polygon fill="midnightblue" stroke="midnightblue" points="582.82,-194.25 591.12,-187.66 580.52,-187.64 582.82,-194.25"/>
</g>
<!-- Node33 -->
<g id="node33" class="node">
<title>Node33</title>
<g id="a_node33"><a xlink:title=" ">
<polygon fill="white" stroke="#bfbfbf" points="669.5,-168.5 669.5,-187.5 776.5,-187.5 776.5,-168.5 669.5,-168.5"/>
<text text-anchor="middle" x="723" y="-175.5" font-family="Helvetica,sans-Serif" font-size="10.00">boost/filesystem.hpp</text>
</a>
</g>
</g>
<!-- Node31&#45;&gt;Node33 -->
<g id="edge41" class="edge">
<title>Node31&#45;&gt;Node33</title>
<path fill="none" stroke="midnightblue" d="M501.52,-226.06C504.73,-225.36 507.9,-224.67 511,-224 566.16,-212.09 629.45,-198.69 672.41,-189.63"/>
<polygon fill="midnightblue" stroke="midnightblue" points="673.28,-193.03 682.34,-187.54 671.83,-186.18 673.28,-193.03"/>
</g>
<!-- Node34 -->
<g id="node34" class="node">
<title>Node34</title>
<g id="a_node34"><a xlink:title=" ">
<polygon fill="white" stroke="#bfbfbf" points="489,-168.5 489,-187.5 563,-187.5 563,-168.5 489,-168.5"/>
<text text-anchor="middle" x="526" y="-175.5" font-family="Helvetica,sans-Serif" font-size="10.00">glm/vec2.hpp</text>
</a>
</g>
</g>
<!-- Node31&#45;&gt;Node34 -->
<g id="edge42" class="edge">
<title>Node31&#45;&gt;Node34</title>
<path fill="none" stroke="midnightblue" d="M464.2,-224.4C476.82,-215.13 493.29,-203.03 506.06,-193.65"/>
<polygon fill="midnightblue" stroke="midnightblue" points="508.23,-196.4 514.21,-187.66 504.08,-190.76 508.23,-196.4"/>
</g>
<!-- Node35&#45;&gt;Node18 -->
<g id="edge50" class="edge">
<title>Node35&#45;&gt;Node18</title>
<path fill="none" stroke="midnightblue" d="M1065.18,-296.98C1070.17,-276.69 1082,-223.86 1082,-179 1082,-179 1082,-179 1082,-121 1082,-63.7 891.53,-28.64 809.19,-16.16"/>
<polygon fill="midnightblue" stroke="midnightblue" points="809.64,-12.69 799.24,-14.69 808.62,-19.62 809.64,-12.69"/>
</g>
<!-- Node35&#45;&gt;Node24 -->
<g id="edge48" class="edge">
<title>Node35&#45;&gt;Node24</title>
<path fill="none" stroke="midnightblue" d="M1061.03,-296.63C1056.92,-280.14 1045.97,-244.6 1024,-224 1001.26,-202.68 967.13,-190.94 942.53,-184.85"/>
<polygon fill="midnightblue" stroke="midnightblue" points="943.16,-181.4 932.63,-182.57 941.59,-188.23 943.16,-181.4"/>
</g>
<!-- Node35&#45;&gt;Node25 -->
<g id="edge47" class="edge">
<title>Node35&#45;&gt;Node25</title>
<path fill="none" stroke="midnightblue" d="M1051,-296.73C1036.45,-286.11 1011.72,-268.05 994.22,-255.26"/>
<polygon fill="midnightblue" stroke="midnightblue" points="995.95,-252.2 985.81,-249.13 991.82,-257.85 995.95,-252.2"/>
</g>
<!-- Node36 -->
<g id="node36" class="node">
<title>Node36</title>
<g id="a_node36"><a xlink:title=" ">
<polygon fill="white" stroke="#bfbfbf" points="1110.5,-230 1110.5,-249 1159.5,-249 1159.5,-230 1110.5,-230"/>
<text text-anchor="middle" x="1135" y="-237" font-family="Helvetica,sans-Serif" font-size="10.00">fstream</text>
</a>
</g>
</g>
<!-- Node35&#45;&gt;Node36 -->
<g id="edge49" class="edge">
<title>Node35&#45;&gt;Node36</title>
<path fill="none" stroke="midnightblue" d="M1072.71,-296.73C1084.26,-286.31 1103.75,-268.71 1117.86,-255.97"/>
<polygon fill="midnightblue" stroke="midnightblue" points="1120.37,-258.43 1125.44,-249.13 1115.68,-253.23 1120.37,-258.43"/>
</g>
<!-- Node37 -->
<g id="node37" class="node">
<title>Node37</title>
<g id="a_node37"><a xlink:href="kryne-engine_2_utils_2_utils_8h.html" target="_top" xlink:title=" ">
<polygon fill="white" stroke="black" points="1177.5,-224.5 1177.5,-254.5 1272.5,-254.5 1272.5,-224.5 1177.5,-224.5"/>
<text text-anchor="start" x="1185.5" y="-242.5" font-family="Helvetica,sans-Serif" font-size="10.00">kryne&#45;engine/Utils</text>
<text text-anchor="middle" x="1225" y="-231.5" font-family="Helvetica,sans-Serif" font-size="10.00">/Utils.h</text>
</a>
</g>
</g>
<!-- Node35&#45;&gt;Node37 -->
<g id="edge51" class="edge">
<title>Node35&#45;&gt;Node37</title>
<path fill="none" stroke="midnightblue" d="M1084.51,-296.87C1108.93,-287.07 1149.41,-270.83 1180.66,-258.29"/>
<polygon fill="midnightblue" stroke="midnightblue" points="1182.06,-261.5 1190.04,-254.53 1179.45,-255 1182.06,-261.5"/>
</g>
<!-- Node38 -->
<g id="node38" class="node">
<title>Node38</title>
<g id="a_node38"><a xlink:href="_string_utils_8hpp.html" target="_top" xlink:title=" ">
<polygon fill="white" stroke="black" points="1110,-56.5 1110,-75.5 1190,-75.5 1190,-56.5 1110,-56.5"/>
<text text-anchor="middle" x="1150" y="-63.5" font-family="Helvetica,sans-Serif" font-size="10.00">StringUtils.hpp</text>
</a>
</g>
</g>
<!-- Node37&#45;&gt;Node38 -->
<g id="edge52" class="edge">
<title>Node37&#45;&gt;Node38</title>
<path fill="none" stroke="midnightblue" d="M1200.63,-224.32C1187.85,-215.55 1173.18,-203.08 1165,-188 1147.31,-155.4 1146.81,-110.73 1148.25,-85.79"/>
<polygon fill="midnightblue" stroke="midnightblue" points="1151.76,-85.79 1149.03,-75.56 1144.78,-85.26 1151.76,-85.79"/>
</g>
<!-- Node39 -->
<g id="node39" class="node">
<title>Node39</title>
<g id="a_node39"><a xlink:href="_vector_mapping_8hpp.html" target="_top" xlink:title=" ">
<polygon fill="white" stroke="black" points="1174.5,-168.5 1174.5,-187.5 1275.5,-187.5 1275.5,-168.5 1174.5,-168.5"/>
<text text-anchor="middle" x="1225" y="-175.5" font-family="Helvetica,sans-Serif" font-size="10.00">VectorMapping.hpp</text>
</a>
</g>
</g>
<!-- Node37&#45;&gt;Node39 -->
<g id="edge54" class="edge">
<title>Node37&#45;&gt;Node39</title>
<path fill="none" stroke="midnightblue" d="M1225,-224.4C1225,-216.47 1225,-206.46 1225,-197.86"/>
<polygon fill="midnightblue" stroke="midnightblue" points="1228.5,-197.66 1225,-187.66 1221.5,-197.66 1228.5,-197.66"/>
</g>
<!-- Node38&#45;&gt;Node18 -->
<g id="edge53" class="edge">
<title>Node38&#45;&gt;Node18</title>
<path fill="none" stroke="midnightblue" d="M1109.91,-58.19C1105.23,-57.44 1100.51,-56.69 1096,-56 992.47,-40.19 869.95,-23.8 809.54,-15.88"/>
<polygon fill="midnightblue" stroke="midnightblue" points="809.71,-12.37 799.34,-14.54 808.81,-19.31 809.71,-12.37"/>
</g>
<!-- Node39&#45;&gt;Node6 -->
<g id="edge55" class="edge">
<title>Node39&#45;&gt;Node6</title>
<path fill="none" stroke="midnightblue" d="M1240.91,-168.32C1256.64,-159.74 1280.94,-146.49 1299.21,-136.52"/>
<polygon fill="midnightblue" stroke="midnightblue" points="1301.03,-139.52 1308.13,-131.65 1297.68,-133.37 1301.03,-139.52"/>
</g>
<!-- Node40 -->
<g id="node40" class="node">
<title>Node40</title>
<g id="a_node40"><a xlink:title=" ">
<polygon fill="white" stroke="#bfbfbf" points="1171.5,-112.5 1171.5,-131.5 1284.5,-131.5 1284.5,-112.5 1171.5,-112.5"/>
<text text-anchor="middle" x="1228" y="-119.5" font-family="Helvetica,sans-Serif" font-size="10.00">glm/detail/qualifier.hpp</text>
</a>
</g>
</g>
<!-- Node39&#45;&gt;Node40 -->
<g id="edge56" class="edge">
<title>Node39&#45;&gt;Node40</title>
<path fill="none" stroke="midnightblue" d="M1225.5,-168.08C1225.89,-161.01 1226.45,-150.86 1226.95,-141.99"/>
<polygon fill="midnightblue" stroke="midnightblue" points="1230.45,-141.93 1227.51,-131.75 1223.46,-141.54 1230.45,-141.93"/>
</g>
<!-- Node41&#45;&gt;Node5 -->
<g id="edge58" class="edge">
<title>Node41&#45;&gt;Node5</title>
<path fill="none" stroke="midnightblue" d="M341.21,-425.5C325.28,-418.41 305.54,-406.61 296,-389 261.59,-325.48 290.96,-235.03 306.2,-196.97"/>
<polygon fill="midnightblue" stroke="midnightblue" points="309.45,-198.27 310.06,-187.69 302.99,-195.58 309.45,-198.27"/>
</g>
<!-- Node41&#45;&gt;Node6 -->
<g id="edge60" class="edge">
<title>Node41&#45;&gt;Node6</title>
<path fill="none" stroke="midnightblue" d="M399.25,-431.23C568.13,-417.33 1304,-354.1 1304,-307.5 1304,-307.5 1304,-307.5 1304,-238.5 1304,-203.86 1312.84,-164.21 1318.77,-141.54"/>
<polygon fill="midnightblue" stroke="midnightblue" points="1322.22,-142.17 1321.47,-131.61 1315.47,-140.34 1322.22,-142.17"/>
</g>
<!-- Node41&#45;&gt;Node7 -->
<g id="edge59" class="edge">
<title>Node41&#45;&gt;Node7</title>
<path fill="none" stroke="midnightblue" d="M399.13,-426.04C438.74,-416.79 504.97,-401.34 554.6,-389.76"/>
<polygon fill="midnightblue" stroke="midnightblue" points="555.66,-393.11 564.6,-387.43 554.07,-386.29 555.66,-393.11"/>
</g>
<!-- Node42 -->
<g id="node42" class="node">
<title>Node42</title>
<g id="a_node42"><a xlink:title=" ">
<polygon fill="white" stroke="#bfbfbf" points="305,-364 305,-383 361,-383 361,-364 305,-364"/>
<text text-anchor="middle" x="333" y="-371" font-family="Helvetica,sans-Serif" font-size="10.00">algorithm</text>
</a>
</g>
</g>
<!-- Node41&#45;&gt;Node42 -->
<g id="edge61" class="edge">
<title>Node41&#45;&gt;Node42</title>
<path fill="none" stroke="midnightblue" d="M360.42,-425.48C355.76,-416.82 348.41,-403.15 342.49,-392.15"/>
<polygon fill="midnightblue" stroke="midnightblue" points="345.4,-390.16 337.58,-383.01 339.23,-393.47 345.4,-390.16"/>
</g>
</g>
</svg>
