<?xml version="1.0" encoding="UTF-8" standalone="no"?>
<!DOCTYPE svg PUBLIC "-//W3C//DTD SVG 1.1//EN"
 "http://www.w3.org/Graphics/SVG/1.1/DTD/svg11.dtd">
<!-- Generated by graphviz version 2.44.1 (20200629.0846)
 -->
<!-- Title: kryne&#45;engine/include/kryne&#45;engine/Light/LightingRegistry.h Pages: 1 -->
<svg width="673pt" height="340pt"
 viewBox="0.00 0.00 672.50 340.00" xmlns="http://www.w3.org/2000/svg" xmlns:xlink="http://www.w3.org/1999/xlink">
<g id="graph0" class="graph" transform="scale(1 1) rotate(0) translate(4 336)">
<title>kryne&#45;engine/include/kryne&#45;engine/Light/LightingRegistry.h</title>
<polygon fill="white" stroke="transparent" points="-4,4 -4,-336 668.5,-336 668.5,4 -4,4"/>
<!-- Node1 -->
<g id="node1" class="node">
<title>Node1</title>
<g id="a_node1"><a xlink:title=" ">
<polygon fill="#bfbfbf" stroke="black" points="249,-290.5 249,-331.5 385,-331.5 385,-290.5 249,-290.5"/>
<text text-anchor="start" x="257" y="-319.5" font-family="Helvetica,sans-Serif" font-size="10.00">kryne&#45;engine/include</text>
<text text-anchor="start" x="257" y="-308.5" font-family="Helvetica,sans-Serif" font-size="10.00">/kryne&#45;engine/Light/Lighting</text>
<text text-anchor="middle" x="317" y="-297.5" font-family="Helvetica,sans-Serif" font-size="10.00">Registry.h</text>
</a>
</g>
</g>
<!-- Node2 -->
<g id="node2" class="node">
<title>Node2</title>
<g id="a_node2"><a xlink:href="_light_8h.html" target="_top" xlink:title=" ">
<polygon fill="white" stroke="black" points="43,-218 43,-248 149,-248 149,-218 43,-218"/>
<text text-anchor="start" x="51" y="-236" font-family="Helvetica,sans-Serif" font-size="10.00">kryne&#45;engine/include</text>
<text text-anchor="middle" x="96" y="-225" font-family="Helvetica,sans-Serif" font-size="10.00">/KEModules/Light.h</text>
</a>
</g>
</g>
<!-- Node1&#45;&gt;Node2 -->
<g id="edge1" class="edge">
<title>Node1&#45;&gt;Node2</title>
<path fill="none" stroke="midnightblue" d="M250.4,-287.1C213.5,-274.41 168.81,-259.04 137.02,-248.11"/>
<polygon fill="midnightblue" stroke="midnightblue" points="249.49,-290.49 260.09,-290.43 251.77,-283.87 249.49,-290.49"/>
</g>
<!-- Node3 -->
<g id="node3" class="node">
<title>Node3</title>
<g id="a_node3"><a xlink:href="_main_renderer_8h.html" target="_top" xlink:title=" ">
<polygon fill="white" stroke="black" points="167,-212.5 167,-253.5 289,-253.5 289,-212.5 167,-212.5"/>
<text text-anchor="start" x="175" y="-241.5" font-family="Helvetica,sans-Serif" font-size="10.00">kryne&#45;engine/include</text>
<text text-anchor="start" x="175" y="-230.5" font-family="Helvetica,sans-Serif" font-size="10.00">/kryne&#45;engine/Rendering</text>
<text text-anchor="middle" x="228" y="-219.5" font-family="Helvetica,sans-Serif" font-size="10.00">/MainRenderer.h</text>
</a>
</g>
</g>
<!-- Node1&#45;&gt;Node3 -->
<g id="edge2" class="edge">
<title>Node1&#45;&gt;Node3</title>
<path fill="none" stroke="midnightblue" d="M286.29,-283.78C274.66,-273.84 261.63,-262.72 250.84,-253.51"/>
<polygon fill="midnightblue" stroke="midnightblue" points="284.2,-286.6 294.08,-290.43 288.75,-281.27 284.2,-286.6"/>
</g>
<!-- Node5 -->
<g id="node5" class="node">
<title>Node5</title>
<g id="a_node5"><a xlink:href="_render_scene_8h.html" target="_top" xlink:title=" ">
<polygon fill="white" stroke="black" points="256,-134.5 256,-175.5 378,-175.5 378,-134.5 256,-134.5"/>
<text text-anchor="start" x="264" y="-163.5" font-family="Helvetica,sans-Serif" font-size="10.00">kryne&#45;engine/include</text>
<text text-anchor="start" x="264" y="-152.5" font-family="Helvetica,sans-Serif" font-size="10.00">/kryne&#45;engine/Rendering</text>
<text text-anchor="middle" x="317" y="-141.5" font-family="Helvetica,sans-Serif" font-size="10.00">/RenderScene.h</text>
</a>
</g>
</g>
<!-- Node1&#45;&gt;Node5 -->
<g id="edge11" class="edge">
<title>Node1&#45;&gt;Node5</title>
<path fill="none" stroke="midnightblue" d="M317,-280.36C317,-249.61 317,-202.36 317,-175.83"/>
<polygon fill="midnightblue" stroke="midnightblue" points="313.5,-280.5 317,-290.5 320.5,-280.5 313.5,-280.5"/>
</g>
<!-- Node11 -->
<g id="node11" class="node">
<title>Node11</title>
<g id="a_node11"><a xlink:href="_shadow_map_handler_8h.html" target="_top" xlink:title=" ">
<polygon fill="white" stroke="black" points="345,-212.5 345,-253.5 533,-253.5 533,-212.5 345,-212.5"/>
<text text-anchor="start" x="353" y="-241.5" font-family="Helvetica,sans-Serif" font-size="10.00">kryne&#45;engine/include</text>
<text text-anchor="start" x="353" y="-230.5" font-family="Helvetica,sans-Serif" font-size="10.00">/kryne&#45;engine/Rendering</text>
<text text-anchor="middle" x="439" y="-219.5" font-family="Helvetica,sans-Serif" font-size="10.00">/ShadowMapping/ShadowMapHandler.h</text>
</a>
</g>
</g>
<!-- Node1&#45;&gt;Node11 -->
<g id="edge12" class="edge">
<title>Node1&#45;&gt;Node11</title>
<path fill="none" stroke="midnightblue" d="M357.26,-284.92C373.66,-274.7 392.33,-263.07 407.69,-253.51"/>
<polygon fill="midnightblue" stroke="midnightblue" points="355.06,-282.17 348.42,-290.43 358.76,-288.11 355.06,-282.17"/>
</g>
<!-- Node13 -->
<g id="node13" class="node">
<title>Node13</title>
<g id="a_node13"><a xlink:href="_lighting_registry_8cpp.html" target="_top" xlink:title=" ">
<polygon fill="white" stroke="black" points="551.5,-218 551.5,-248 664.5,-248 664.5,-218 551.5,-218"/>
<text text-anchor="start" x="559.5" y="-236" font-family="Helvetica,sans-Serif" font-size="10.00">kryne&#45;engine/src/Light</text>
<text text-anchor="middle" x="608" y="-225" font-family="Helvetica,sans-Serif" font-size="10.00">/LightingRegistry.cpp</text>
</a>
</g>
</g>
<!-- Node1&#45;&gt;Node13 -->
<g id="edge16" class="edge">
<title>Node1&#45;&gt;Node13</title>
<path fill="none" stroke="midnightblue" d="M395.09,-291.59C438.5,-281.1 493.4,-267.4 542,-254 548.69,-252.15 555.74,-250.12 562.64,-248.07"/>
<polygon fill="midnightblue" stroke="midnightblue" points="394.07,-288.23 385.17,-293.98 395.71,-295.04 394.07,-288.23"/>
</g>
<!-- Node4 -->
<g id="node4" class="node">
<title>Node4</title>
<g id="a_node4"><a xlink:href="_rendering_8h.html" target="_top" xlink:title=" ">
<polygon fill="white" stroke="black" points="360.5,-67.5 360.5,-97.5 485.5,-97.5 485.5,-67.5 360.5,-67.5"/>
<text text-anchor="start" x="368.5" y="-85.5" font-family="Helvetica,sans-Serif" font-size="10.00">kryne&#45;engine/include</text>
<text text-anchor="middle" x="423" y="-74.5" font-family="Helvetica,sans-Serif" font-size="10.00">/KEModules/Rendering.h</text>
</a>
</g>
</g>
<!-- Node3&#45;&gt;Node4 -->
<g id="edge3" class="edge">
<title>Node3&#45;&gt;Node4</title>
<path fill="none" stroke="midnightblue" d="M226.06,-202.2C226.3,-180.66 230.28,-152.26 247,-134 255.1,-125.15 314.88,-109.17 362.55,-97.55"/>
<polygon fill="midnightblue" stroke="midnightblue" points="222.56,-202.49 226.21,-212.44 229.56,-202.39 222.56,-202.49"/>
</g>
<!-- Node3&#45;&gt;Node5 -->
<g id="edge4" class="edge">
<title>Node3&#45;&gt;Node5</title>
<path fill="none" stroke="midnightblue" d="M258.71,-205.78C270.34,-195.84 283.37,-184.72 294.16,-175.51"/>
<polygon fill="midnightblue" stroke="midnightblue" points="256.25,-203.27 250.92,-212.43 260.8,-208.6 256.25,-203.27"/>
</g>
<!-- Node10 -->
<g id="node10" class="node">
<title>Node10</title>
<g id="a_node10"><a xlink:href="_main_renderer_8cpp.html" target="_top" xlink:title=" ">
<polygon fill="white" stroke="black" points="64.5,-140 64.5,-170 199.5,-170 199.5,-140 64.5,-140"/>
<text text-anchor="start" x="72.5" y="-158" font-family="Helvetica,sans-Serif" font-size="10.00">kryne&#45;engine/src/Rendering</text>
<text text-anchor="middle" x="132" y="-147" font-family="Helvetica,sans-Serif" font-size="10.00">/MainRenderer.cpp</text>
</a>
</g>
</g>
<!-- Node3&#45;&gt;Node10 -->
<g id="edge10" class="edge">
<title>Node3&#45;&gt;Node10</title>
<path fill="none" stroke="midnightblue" d="M195.15,-205.99C180.02,-194.02 162.66,-180.27 149.97,-170.23"/>
<polygon fill="midnightblue" stroke="midnightblue" points="193.26,-208.97 203.28,-212.43 197.61,-203.48 193.26,-208.97"/>
</g>
<!-- Node5&#45;&gt;Node4 -->
<g id="edge5" class="edge">
<title>Node5&#45;&gt;Node4</title>
<path fill="none" stroke="midnightblue" d="M355.01,-128.72C370.72,-118.27 388.33,-106.56 401.69,-97.67"/>
<polygon fill="midnightblue" stroke="midnightblue" points="352.92,-125.91 346.53,-134.36 356.79,-131.74 352.92,-125.91"/>
</g>
<!-- Node6 -->
<g id="node6" class="node">
<title>Node6</title>
<g id="a_node6"><a xlink:href="_process_8h.html" target="_top" xlink:title=" ">
<polygon fill="white" stroke="black" points="43,-67.5 43,-97.5 189,-97.5 189,-67.5 43,-67.5"/>
<text text-anchor="start" x="51" y="-85.5" font-family="Helvetica,sans-Serif" font-size="10.00">kryne&#45;engine/include</text>
<text text-anchor="middle" x="116" y="-74.5" font-family="Helvetica,sans-Serif" font-size="10.00">/kryne&#45;engine/Core/Process.h</text>
</a>
</g>
</g>
<!-- Node5&#45;&gt;Node6 -->
<g id="edge6" class="edge">
<title>Node5&#45;&gt;Node6</title>
<path fill="none" stroke="midnightblue" d="M251.7,-131.1C220.23,-120.06 183.5,-107.17 156.19,-97.6"/>
<polygon fill="midnightblue" stroke="midnightblue" points="250.68,-134.45 261.28,-134.46 253,-127.84 250.68,-134.45"/>
</g>
<!-- Node9 -->
<g id="node9" class="node">
<title>Node9</title>
<g id="a_node9"><a xlink:href="_render_scene_8cpp.html" target="_top" xlink:title=" ">
<polygon fill="white" stroke="black" points="207.5,-67.5 207.5,-97.5 342.5,-97.5 342.5,-67.5 207.5,-67.5"/>
<text text-anchor="start" x="215.5" y="-85.5" font-family="Helvetica,sans-Serif" font-size="10.00">kryne&#45;engine/src/Rendering</text>
<text text-anchor="middle" x="275" y="-74.5" font-family="Helvetica,sans-Serif" font-size="10.00">/RenderScene.cpp</text>
</a>
</g>
</g>
<!-- Node5&#45;&gt;Node9 -->
<g id="edge9" class="edge">
<title>Node5&#45;&gt;Node9</title>
<path fill="none" stroke="midnightblue" d="M300.05,-125.55C294.39,-116.05 288.32,-105.86 283.57,-97.89"/>
<polygon fill="midnightblue" stroke="midnightblue" points="297.18,-127.56 305.3,-134.36 303.19,-123.98 297.18,-127.56"/>
</g>
<!-- Node7 -->
<g id="node7" class="node">
<title>Node7</title>
<g id="a_node7"><a xlink:href="_core_8h.html" target="_top" xlink:title=" ">
<polygon fill="white" stroke="black" points="0,-0.5 0,-30.5 106,-30.5 106,-0.5 0,-0.5"/>
<text text-anchor="start" x="8" y="-18.5" font-family="Helvetica,sans-Serif" font-size="10.00">kryne&#45;engine/include</text>
<text text-anchor="middle" x="53" y="-7.5" font-family="Helvetica,sans-Serif" font-size="10.00">/KEModules/Core.h</text>
</a>
</g>
</g>
<!-- Node6&#45;&gt;Node7 -->
<g id="edge7" class="edge">
<title>Node6&#45;&gt;Node7</title>
<path fill="none" stroke="midnightblue" d="M95.19,-60.02C85.8,-50.34 74.98,-39.17 66.64,-30.58"/>
<polygon fill="midnightblue" stroke="midnightblue" points="92.86,-62.65 102.33,-67.4 97.88,-57.78 92.86,-62.65"/>
</g>
<!-- Node8 -->
<g id="node8" class="node">
<title>Node8</title>
<g id="a_node8"><a xlink:href="_process_8cpp.html" target="_top" xlink:title=" ">
<polygon fill="white" stroke="black" points="124,-0.5 124,-30.5 236,-30.5 236,-0.5 124,-0.5"/>
<text text-anchor="start" x="132" y="-18.5" font-family="Helvetica,sans-Serif" font-size="10.00">kryne&#45;engine/src/Core</text>
<text text-anchor="middle" x="180" y="-7.5" font-family="Helvetica,sans-Serif" font-size="10.00">/Process.cpp</text>
</a>
</g>
</g>
<!-- Node6&#45;&gt;Node8 -->
<g id="edge8" class="edge">
<title>Node6&#45;&gt;Node8</title>
<path fill="none" stroke="midnightblue" d="M137.15,-60.02C146.68,-50.34 157.67,-39.17 166.14,-30.58"/>
<polygon fill="midnightblue" stroke="midnightblue" points="134.41,-57.81 129.89,-67.4 139.4,-62.73 134.41,-57.81"/>
</g>
<!-- Node11&#45;&gt;Node4 -->
<g id="edge13" class="edge">
<title>Node11&#45;&gt;Node4</title>
<path fill="none" stroke="midnightblue" d="M435.79,-202.22C432.37,-170.42 427.08,-121.4 424.51,-97.53"/>
<polygon fill="midnightblue" stroke="midnightblue" points="432.32,-202.71 436.88,-212.28 439.28,-201.96 432.32,-202.71"/>
</g>
<!-- Node11&#45;&gt;Node5 -->
<g id="edge14" class="edge">
<title>Node11&#45;&gt;Node5</title>
<path fill="none" stroke="midnightblue" d="M398.74,-206.92C382.34,-196.7 363.67,-185.07 348.31,-175.51"/>
<polygon fill="midnightblue" stroke="midnightblue" points="397.24,-210.11 407.58,-212.43 400.94,-204.17 397.24,-210.11"/>
</g>
<!-- Node12 -->
<g id="node12" class="node">
<title>Node12</title>
<g id="a_node12"><a xlink:href="_shadow_map_handler_8cpp.html" target="_top" xlink:title=" ">
<polygon fill="white" stroke="black" points="451.5,-140 451.5,-170 650.5,-170 650.5,-140 451.5,-140"/>
<text text-anchor="start" x="459.5" y="-158" font-family="Helvetica,sans-Serif" font-size="10.00">kryne&#45;engine/src/Rendering</text>
<text text-anchor="middle" x="551" y="-147" font-family="Helvetica,sans-Serif" font-size="10.00">/ShadowMapping/ShadowMapHandler.cpp</text>
</a>
</g>
</g>
<!-- Node11&#45;&gt;Node12 -->
<g id="edge15" class="edge">
<title>Node11&#45;&gt;Node12</title>
<path fill="none" stroke="midnightblue" d="M476.35,-206.66C494.23,-194.53 514.96,-180.45 530.04,-170.23"/>
<polygon fill="midnightblue" stroke="midnightblue" points="474.15,-203.92 467.84,-212.43 478.08,-209.71 474.15,-203.92"/>
</g>
</g>
</svg>
