<?xml version="1.0" encoding="UTF-8" standalone="no"?>
<!DOCTYPE svg PUBLIC "-//W3C//DTD SVG 1.1//EN"
 "http://www.w3.org/Graphics/SVG/1.1/DTD/svg11.dtd">
<!-- Generated by graphviz version 2.44.1 (20200629.0846)
 -->
<!-- Title: kryne&#45;engine/include/kryne&#45;engine/Light/LightingRegistry.h Pages: 1 -->
<svg width="944pt" height="352pt"
 viewBox="0.00 0.00 944.00 352.00" xmlns="http://www.w3.org/2000/svg" xmlns:xlink="http://www.w3.org/1999/xlink">
<g id="graph0" class="graph" transform="scale(1 1) rotate(0) translate(4 348)">
<title>kryne&#45;engine/include/kryne&#45;engine/Light/LightingRegistry.h</title>
<polygon fill="white" stroke="transparent" points="-4,4 -4,-348 940,-348 940,4 -4,4"/>
<!-- Node1 -->
<g id="node1" class="node">
<title>Node1</title>
<g id="a_node1"><a xlink:title=" ">
<polygon fill="#bfbfbf" stroke="black" points="48,-302.5 48,-343.5 184,-343.5 184,-302.5 48,-302.5"/>
<text text-anchor="start" x="56" y="-331.5" font-family="Helvetica,sans-Serif" font-size="10.00">kryne&#45;engine/include</text>
<text text-anchor="start" x="56" y="-320.5" font-family="Helvetica,sans-Serif" font-size="10.00">/kryne&#45;engine/Light/Lighting</text>
<text text-anchor="middle" x="116" y="-309.5" font-family="Helvetica,sans-Serif" font-size="10.00">Registry.h</text>
</a>
</g>
</g>
<!-- Node2 -->
<g id="node2" class="node">
<title>Node2</title>
<g id="a_node2"><a xlink:title=" ">
<polygon fill="white" stroke="#bfbfbf" points="0,-246.5 0,-265.5 52,-265.5 52,-246.5 0,-246.5"/>
<text text-anchor="middle" x="26" y="-253.5" font-family="Helvetica,sans-Serif" font-size="10.00">memory</text>
</a>
</g>
</g>
<!-- Node1&#45;&gt;Node2 -->
<g id="edge1" class="edge">
<title>Node1&#45;&gt;Node2</title>
<path fill="none" stroke="midnightblue" d="M89,-302.5C75.33,-292.63 59.01,-280.84 46.41,-271.74"/>
<polygon fill="midnightblue" stroke="midnightblue" points="48.14,-268.67 37.98,-265.65 44.04,-274.34 48.14,-268.67"/>
</g>
<!-- Node3 -->
<g id="node3" class="node">
<title>Node3</title>
<g id="a_node3"><a xlink:href="_directional_light_8h.html" target="_top" xlink:title=" ">
<polygon fill="white" stroke="black" points="70,-246.5 70,-265.5 162,-265.5 162,-246.5 70,-246.5"/>
<text text-anchor="middle" x="116" y="-253.5" font-family="Helvetica,sans-Serif" font-size="10.00">DirectionalLight.h</text>
</a>
</g>
</g>
<!-- Node1&#45;&gt;Node3 -->
<g id="edge2" class="edge">
<title>Node1&#45;&gt;Node3</title>
<path fill="none" stroke="midnightblue" d="M116,-302.5C116,-294.07 116,-284.24 116,-275.87"/>
<polygon fill="midnightblue" stroke="midnightblue" points="119.5,-275.65 116,-265.65 112.5,-275.65 119.5,-275.65"/>
</g>
<!-- Node21 -->
<g id="node21" class="node">
<title>Node21</title>
<g id="a_node21"><a xlink:href="_point_light_8h.html" target="_top" xlink:title=" ">
<polygon fill="white" stroke="black" points="180,-246.5 180,-265.5 248,-265.5 248,-246.5 180,-246.5"/>
<text text-anchor="middle" x="214" y="-253.5" font-family="Helvetica,sans-Serif" font-size="10.00">PointLight.h</text>
</a>
</g>
</g>
<!-- Node1&#45;&gt;Node21 -->
<g id="edge23" class="edge">
<title>Node1&#45;&gt;Node21</title>
<path fill="none" stroke="midnightblue" d="M145.4,-302.5C160.57,-292.44 178.74,-280.38 192.57,-271.21"/>
<polygon fill="midnightblue" stroke="midnightblue" points="194.56,-274.1 200.95,-265.65 190.69,-268.26 194.56,-274.1"/>
</g>
<!-- Node4 -->
<g id="node4" class="node">
<title>Node4</title>
<g id="a_node4"><a xlink:title=" ">
<polygon fill="white" stroke="#bfbfbf" points="7,-185 7,-204 81,-204 81,-185 7,-185"/>
<text text-anchor="middle" x="44" y="-192" font-family="Helvetica,sans-Serif" font-size="10.00">glm/vec3.hpp</text>
</a>
</g>
</g>
<!-- Node3&#45;&gt;Node4 -->
<g id="edge3" class="edge">
<title>Node3&#45;&gt;Node4</title>
<path fill="none" stroke="midnightblue" d="M105.68,-246.48C94.35,-237.11 75.93,-221.88 62.16,-210.51"/>
<polygon fill="midnightblue" stroke="midnightblue" points="64.23,-207.68 54.3,-204.01 59.78,-213.08 64.23,-207.68"/>
</g>
<!-- Node5 -->
<g id="node5" class="node">
<title>Node5</title>
<g id="a_node5"><a xlink:title=" ">
<polygon fill="white" stroke="#bfbfbf" points="99,-185 99,-204 141,-204 141,-185 99,-185"/>
<text text-anchor="middle" x="120" y="-192" font-family="Helvetica,sans-Serif" font-size="10.00">vector</text>
</a>
</g>
</g>
<!-- Node3&#45;&gt;Node5 -->
<g id="edge4" class="edge">
<title>Node3&#45;&gt;Node5</title>
<path fill="none" stroke="midnightblue" d="M116.57,-246.48C117.14,-238.08 118.02,-224.98 118.75,-214.16"/>
<polygon fill="midnightblue" stroke="midnightblue" points="122.25,-214.22 119.43,-204.01 115.26,-213.75 122.25,-214.22"/>
</g>
<!-- Node6 -->
<g id="node6" class="node">
<title>Node6</title>
<g id="a_node6"><a xlink:href="_shader_8h.html" target="_top" xlink:title=" ">
<polygon fill="white" stroke="black" points="159,-179.5 159,-209.5 269,-209.5 269,-179.5 159,-179.5"/>
<text text-anchor="start" x="167" y="-197.5" font-family="Helvetica,sans-Serif" font-size="10.00">kryne&#45;engine/Material</text>
<text text-anchor="middle" x="214" y="-186.5" font-family="Helvetica,sans-Serif" font-size="10.00">/Shader.h</text>
</a>
</g>
</g>
<!-- Node3&#45;&gt;Node6 -->
<g id="edge5" class="edge">
<title>Node3&#45;&gt;Node6</title>
<path fill="none" stroke="midnightblue" d="M130.04,-246.48C143.56,-238.27 164.49,-225.56 182.07,-214.88"/>
<polygon fill="midnightblue" stroke="midnightblue" points="184.17,-217.7 190.9,-209.52 180.54,-211.72 184.17,-217.7"/>
</g>
<!-- Node7 -->
<g id="node7" class="node">
<title>Node7</title>
<g id="a_node7"><a xlink:title=" ">
<polygon fill="white" stroke="#bfbfbf" points="91.5,-123.5 91.5,-142.5 126.5,-142.5 126.5,-123.5 91.5,-123.5"/>
<text text-anchor="middle" x="109" y="-130.5" font-family="Helvetica,sans-Serif" font-size="10.00">map</text>
</a>
</g>
</g>
<!-- Node6&#45;&gt;Node7 -->
<g id="edge6" class="edge">
<title>Node6&#45;&gt;Node7</title>
<path fill="none" stroke="midnightblue" d="M189.12,-179.4C172.29,-169.86 150.16,-157.32 133.43,-147.84"/>
<polygon fill="midnightblue" stroke="midnightblue" points="134.7,-144.54 124.28,-142.66 131.25,-150.63 134.7,-144.54"/>
</g>
<!-- Node8 -->
<g id="node8" class="node">
<title>Node8</title>
<g id="a_node8"><a xlink:title=" ">
<polygon fill="white" stroke="#bfbfbf" points="145,-123.5 145,-142.5 197,-142.5 197,-123.5 145,-123.5"/>
<text text-anchor="middle" x="171" y="-130.5" font-family="Helvetica,sans-Serif" font-size="10.00">sstream</text>
</a>
</g>
</g>
<!-- Node6&#45;&gt;Node8 -->
<g id="edge7" class="edge">
<title>Node6&#45;&gt;Node8</title>
<path fill="none" stroke="midnightblue" d="M203.81,-179.4C197.63,-170.84 189.7,-159.87 183.18,-150.86"/>
<polygon fill="midnightblue" stroke="midnightblue" points="185.95,-148.71 177.26,-142.66 180.28,-152.81 185.95,-148.71"/>
</g>
<!-- Node9 -->
<g id="node9" class="node">
<title>Node9</title>
<g id="a_node9"><a xlink:href="_uniforms_handler_8h.html" target="_top" xlink:title=" ">
<polygon fill="white" stroke="black" points="468,-123.5 468,-142.5 564,-142.5 564,-123.5 468,-123.5"/>
<text text-anchor="middle" x="516" y="-130.5" font-family="Helvetica,sans-Serif" font-size="10.00">UniformsHandler.h</text>
</a>
</g>
</g>
<!-- Node6&#45;&gt;Node9 -->
<g id="edge8" class="edge">
<title>Node6&#45;&gt;Node9</title>
<path fill="none" stroke="midnightblue" d="M269.13,-180.88C272.13,-180.23 275.1,-179.6 278,-179 339.31,-166.26 409.82,-153.12 458.08,-144.35"/>
<polygon fill="midnightblue" stroke="midnightblue" points="458.82,-147.77 468.03,-142.55 457.57,-140.89 458.82,-147.77"/>
</g>
<!-- Node17 -->
<g id="node17" class="node">
<title>Node17</title>
<g id="a_node17"><a xlink:href="_shader_chunk_8h.html" target="_top" xlink:title=" ">
<polygon fill="white" stroke="black" points="215.5,-123.5 215.5,-142.5 298.5,-142.5 298.5,-123.5 215.5,-123.5"/>
<text text-anchor="middle" x="257" y="-130.5" font-family="Helvetica,sans-Serif" font-size="10.00">ShaderChunk.h</text>
</a>
</g>
</g>
<!-- Node6&#45;&gt;Node17 -->
<g id="edge16" class="edge">
<title>Node6&#45;&gt;Node17</title>
<path fill="none" stroke="midnightblue" d="M224.19,-179.4C230.37,-170.84 238.3,-159.87 244.82,-150.86"/>
<polygon fill="midnightblue" stroke="midnightblue" points="247.72,-152.81 250.74,-142.66 242.05,-148.71 247.72,-152.81"/>
</g>
<!-- Node10 -->
<g id="node10" class="node">
<title>Node10</title>
<g id="a_node10"><a xlink:title=" ">
<polygon fill="white" stroke="#bfbfbf" points="279.5,-62 279.5,-81 320.5,-81 320.5,-62 279.5,-62"/>
<text text-anchor="middle" x="300" y="-69" font-family="Helvetica,sans-Serif" font-size="10.00">string</text>
</a>
</g>
</g>
<!-- Node9&#45;&gt;Node10 -->
<g id="edge9" class="edge">
<title>Node9&#45;&gt;Node10</title>
<path fill="none" stroke="midnightblue" d="M468.56,-123.43C430.48,-115.86 375.98,-103.46 330,-87 328.57,-86.49 327.12,-85.93 325.66,-85.34"/>
<polygon fill="midnightblue" stroke="midnightblue" points="326.79,-82.01 316.23,-81.12 323.94,-88.4 326.79,-82.01"/>
</g>
<!-- Node11 -->
<g id="node11" class="node">
<title>Node11</title>
<g id="a_node11"><a xlink:title=" ">
<polygon fill="white" stroke="#bfbfbf" points="338.5,-62 338.5,-81 421.5,-81 421.5,-62 338.5,-62"/>
<text text-anchor="middle" x="380" y="-69" font-family="Helvetica,sans-Serif" font-size="10.00">unordered_map</text>
</a>
</g>
</g>
<!-- Node9&#45;&gt;Node11 -->
<g id="edge10" class="edge">
<title>Node9&#45;&gt;Node11</title>
<path fill="none" stroke="midnightblue" d="M496.51,-123.48C473.59,-113.45 435.31,-96.7 408.92,-85.15"/>
<polygon fill="midnightblue" stroke="midnightblue" points="410.01,-81.81 399.45,-81.01 407.21,-88.22 410.01,-81.81"/>
</g>
<!-- Node12 -->
<g id="node12" class="node">
<title>Node12</title>
<g id="a_node12"><a xlink:title=" ">
<polygon fill="white" stroke="#bfbfbf" points="440,-62 440,-81 504,-81 504,-62 440,-62"/>
<text text-anchor="middle" x="472" y="-69" font-family="Helvetica,sans-Serif" font-size="10.00">glad/glad.h</text>
</a>
</g>
</g>
<!-- Node9&#45;&gt;Node12 -->
<g id="edge11" class="edge">
<title>Node9&#45;&gt;Node12</title>
<path fill="none" stroke="midnightblue" d="M509.7,-123.48C503.1,-114.55 492.56,-100.31 484.31,-89.14"/>
<polygon fill="midnightblue" stroke="midnightblue" points="487.05,-86.97 478.29,-81.01 481.42,-91.13 487.05,-86.97"/>
</g>
<!-- Node13 -->
<g id="node13" class="node">
<title>Node13</title>
<g id="a_node13"><a xlink:title=" ">
<polygon fill="white" stroke="#bfbfbf" points="522,-62 522,-81 600,-81 600,-62 522,-62"/>
<text text-anchor="middle" x="561" y="-69" font-family="Helvetica,sans-Serif" font-size="10.00">GLFW/glfw3.h</text>
</a>
</g>
</g>
<!-- Node9&#45;&gt;Node13 -->
<g id="edge12" class="edge">
<title>Node9&#45;&gt;Node13</title>
<path fill="none" stroke="midnightblue" d="M522.45,-123.48C529.2,-114.55 539.97,-100.31 548.41,-89.14"/>
<polygon fill="midnightblue" stroke="midnightblue" points="551.32,-91.1 554.56,-81.01 545.74,-86.87 551.32,-91.1"/>
</g>
<!-- Node14 -->
<g id="node14" class="node">
<title>Node14</title>
<g id="a_node14"><a xlink:title=" ">
<polygon fill="white" stroke="#bfbfbf" points="618,-62 618,-81 704,-81 704,-62 618,-62"/>
<text text-anchor="middle" x="661" y="-69" font-family="Helvetica,sans-Serif" font-size="10.00">glm/mat4x4.hpp</text>
</a>
</g>
</g>
<!-- Node9&#45;&gt;Node14 -->
<g id="edge13" class="edge">
<title>Node9&#45;&gt;Node14</title>
<path fill="none" stroke="midnightblue" d="M536.77,-123.48C561.43,-113.36 602.75,-96.4 630.9,-84.85"/>
<polygon fill="midnightblue" stroke="midnightblue" points="632.34,-88.04 640.26,-81.01 629.68,-81.57 632.34,-88.04"/>
</g>
<!-- Node15 -->
<g id="node15" class="node">
<title>Node15</title>
<g id="a_node15"><a xlink:title=" ">
<polygon fill="white" stroke="#bfbfbf" points="722,-62 722,-81 828,-81 828,-62 722,-62"/>
<text text-anchor="middle" x="775" y="-69" font-family="Helvetica,sans-Serif" font-size="10.00">glm/gtc/type_ptr.hpp</text>
</a>
</g>
</g>
<!-- Node9&#45;&gt;Node15 -->
<g id="edge14" class="edge">
<title>Node9&#45;&gt;Node15</title>
<path fill="none" stroke="midnightblue" d="M553.78,-123.43C593.45,-114.42 657.63,-99.8 713,-87 718.05,-85.83 723.34,-84.6 728.6,-83.38"/>
<polygon fill="midnightblue" stroke="midnightblue" points="729.67,-86.72 738.62,-81.04 728.08,-79.91 729.67,-86.72"/>
</g>
<!-- Node16 -->
<g id="node16" class="node">
<title>Node16</title>
<g id="a_node16"><a xlink:title=" ">
<polygon fill="white" stroke="#bfbfbf" points="846,-62 846,-81 936,-81 936,-62 846,-62"/>
<text text-anchor="middle" x="891" y="-69" font-family="Helvetica,sans-Serif" font-size="10.00">boost/variant.hpp</text>
</a>
</g>
</g>
<!-- Node9&#45;&gt;Node16 -->
<g id="edge15" class="edge">
<title>Node9&#45;&gt;Node16</title>
<path fill="none" stroke="midnightblue" d="M564.17,-127.12C627.24,-120.3 741.05,-106.53 837,-87 841.8,-86.02 846.81,-84.87 851.75,-83.64"/>
<polygon fill="midnightblue" stroke="midnightblue" points="852.92,-86.95 861.73,-81.06 851.17,-80.18 852.92,-86.95"/>
</g>
<!-- Node17&#45;&gt;Node10 -->
<g id="edge18" class="edge">
<title>Node17&#45;&gt;Node10</title>
<path fill="none" stroke="midnightblue" d="M263.16,-123.48C269.61,-114.55 279.9,-100.31 287.97,-89.14"/>
<polygon fill="midnightblue" stroke="midnightblue" points="290.83,-91.16 293.85,-81.01 285.16,-87.06 290.83,-91.16"/>
</g>
<!-- Node17&#45;&gt;Node11 -->
<g id="edge17" class="edge">
<title>Node17&#45;&gt;Node11</title>
<path fill="none" stroke="midnightblue" d="M274.62,-123.48C295.17,-113.53 329.36,-96.99 353.21,-85.46"/>
<polygon fill="midnightblue" stroke="midnightblue" points="354.93,-88.51 362.41,-81.01 351.88,-82.21 354.93,-88.51"/>
</g>
<!-- Node18 -->
<g id="node18" class="node">
<title>Node18</title>
<g id="a_node18"><a xlink:title=" ">
<polygon fill="white" stroke="#bfbfbf" points="60.5,-62 60.5,-81 109.5,-81 109.5,-62 60.5,-62"/>
<text text-anchor="middle" x="85" y="-69" font-family="Helvetica,sans-Serif" font-size="10.00">fstream</text>
</a>
</g>
</g>
<!-- Node17&#45;&gt;Node18 -->
<g id="edge19" class="edge">
<title>Node17&#45;&gt;Node18</title>
<path fill="none" stroke="midnightblue" d="M230.93,-123.43C204.05,-114.54 160.98,-100.13 124,-87 121.76,-86.2 119.45,-85.37 117.13,-84.53"/>
<polygon fill="midnightblue" stroke="midnightblue" points="118.24,-81.21 107.64,-81.05 115.82,-87.78 118.24,-81.21"/>
</g>
<!-- Node19 -->
<g id="node19" class="node">
<title>Node19</title>
<g id="a_node19"><a xlink:title=" ">
<polygon fill="white" stroke="#bfbfbf" points="149,-0.5 149,-19.5 203,-19.5 203,-0.5 149,-0.5"/>
<text text-anchor="middle" x="176" y="-7.5" font-family="Helvetica,sans-Serif" font-size="10.00">iostream</text>
</a>
</g>
</g>
<!-- Node17&#45;&gt;Node19 -->
<g id="edge20" class="edge">
<title>Node17&#45;&gt;Node19</title>
<path fill="none" stroke="midnightblue" d="M215.29,-124.15C194.3,-117.86 170.67,-106.68 158,-87 146.57,-69.25 155.7,-44.98 164.61,-28.69"/>
<polygon fill="midnightblue" stroke="midnightblue" points="167.85,-30.09 169.94,-19.7 161.83,-26.51 167.85,-30.09"/>
</g>
<!-- Node20 -->
<g id="node20" class="node">
<title>Node20</title>
<g id="a_node20"><a xlink:href="_string_utils_8hpp.html" target="_top" xlink:title=" ">
<polygon fill="white" stroke="black" points="166.5,-56.5 166.5,-86.5 261.5,-86.5 261.5,-56.5 166.5,-56.5"/>
<text text-anchor="start" x="174.5" y="-74.5" font-family="Helvetica,sans-Serif" font-size="10.00">kryne&#45;engine/Utils</text>
<text text-anchor="middle" x="214" y="-63.5" font-family="Helvetica,sans-Serif" font-size="10.00">/StringUtils.hpp</text>
</a>
</g>
</g>
<!-- Node17&#45;&gt;Node20 -->
<g id="edge21" class="edge">
<title>Node17&#45;&gt;Node20</title>
<path fill="none" stroke="midnightblue" d="M250.84,-123.48C245.45,-116.02 237.38,-104.85 230.17,-94.87"/>
<polygon fill="midnightblue" stroke="midnightblue" points="232.83,-92.58 224.13,-86.52 227.15,-96.68 232.83,-92.58"/>
</g>
<!-- Node20&#45;&gt;Node19 -->
<g id="edge22" class="edge">
<title>Node20&#45;&gt;Node19</title>
<path fill="none" stroke="midnightblue" d="M204.99,-56.4C199.59,-47.93 192.67,-37.1 186.95,-28.14"/>
<polygon fill="midnightblue" stroke="midnightblue" points="189.86,-26.2 181.53,-19.66 183.96,-29.97 189.86,-26.2"/>
</g>
<!-- Node21&#45;&gt;Node4 -->
<g id="edge24" class="edge">
<title>Node21&#45;&gt;Node4</title>
<path fill="none" stroke="midnightblue" d="M189.64,-246.48C160.36,-236.22 111.03,-218.96 78,-207.4"/>
<polygon fill="midnightblue" stroke="midnightblue" points="78.91,-204.01 68.31,-204.01 76.59,-210.62 78.91,-204.01"/>
</g>
<!-- Node21&#45;&gt;Node5 -->
<g id="edge26" class="edge">
<title>Node21&#45;&gt;Node5</title>
<path fill="none" stroke="midnightblue" d="M200.53,-246.48C185.32,-236.84 160.31,-221.02 142.2,-209.55"/>
<polygon fill="midnightblue" stroke="midnightblue" points="143.76,-206.4 133.44,-204.01 140.02,-212.31 143.76,-206.4"/>
</g>
<!-- Node21&#45;&gt;Node6 -->
<g id="edge25" class="edge">
<title>Node21&#45;&gt;Node6</title>
<path fill="none" stroke="midnightblue" d="M214,-246.48C214,-239.47 214,-229.19 214,-219.7"/>
<polygon fill="midnightblue" stroke="midnightblue" points="217.5,-219.52 214,-209.52 210.5,-219.52 217.5,-219.52"/>
</g>
<!-- Node22 -->
<g id="node22" class="node">
<title>Node22</title>
<g id="a_node22"><a xlink:title=" ">
<polygon fill="white" stroke="#bfbfbf" points="287,-185 287,-204 343,-204 343,-185 287,-185"/>
<text text-anchor="middle" x="315" y="-192" font-family="Helvetica,sans-Serif" font-size="10.00">algorithm</text>
</a>
</g>
</g>
<!-- Node21&#45;&gt;Node22 -->
<g id="edge27" class="edge">
<title>Node21&#45;&gt;Node22</title>
<path fill="none" stroke="midnightblue" d="M228.47,-246.48C244.97,-236.75 272.18,-220.73 291.68,-209.24"/>
<polygon fill="midnightblue" stroke="midnightblue" points="293.72,-212.1 300.56,-204.01 290.16,-206.07 293.72,-212.1"/>
</g>
</g>
</svg>
