<?xml version="1.0" encoding="UTF-8" standalone="no"?>
<!DOCTYPE svg PUBLIC "-//W3C//DTD SVG 1.1//EN"
 "http://www.w3.org/Graphics/SVG/1.1/DTD/svg11.dtd">
<!-- Generated by graphviz version 2.44.1 (20200629.0846)
 -->
<!-- Title: kryne&#45;engine/src/Light/LightingRegistry.cpp Pages: 1 -->
<svg width="1320pt" height="699pt"
 viewBox="0.00 0.00 1320.00 699.00" xmlns="http://www.w3.org/2000/svg" xmlns:xlink="http://www.w3.org/1999/xlink">
<g id="graph0" class="graph" transform="scale(1 1) rotate(0) translate(4 695)">
<title>kryne&#45;engine/src/Light/LightingRegistry.cpp</title>
<polygon fill="white" stroke="transparent" points="-4,4 -4,-695 1316,-695 1316,4 -4,4"/>
<!-- Node1 -->
<g id="node1" class="node">
<title>Node1</title>
<g id="a_node1"><a xlink:title=" ">
<polygon fill="#bfbfbf" stroke="black" points="149.5,-660.5 149.5,-690.5 262.5,-690.5 262.5,-660.5 149.5,-660.5"/>
<text text-anchor="start" x="157.5" y="-678.5" font-family="Helvetica,sans-Serif" font-size="10.00">kryne&#45;engine/src/Light</text>
<text text-anchor="middle" x="206" y="-667.5" font-family="Helvetica,sans-Serif" font-size="10.00">/LightingRegistry.cpp</text>
</a>
</g>
</g>
<!-- Node2 -->
<g id="node2" class="node">
<title>Node2</title>
<g id="a_node2"><a xlink:href="_lighting_registry_8h.html" target="_top" xlink:title=" ">
<polygon fill="white" stroke="black" points="157,-593.5 157,-623.5 255,-623.5 255,-593.5 157,-593.5"/>
<text text-anchor="start" x="165" y="-611.5" font-family="Helvetica,sans-Serif" font-size="10.00">kryne&#45;engine/Light</text>
<text text-anchor="middle" x="206" y="-600.5" font-family="Helvetica,sans-Serif" font-size="10.00">/LightingRegistry.h</text>
</a>
</g>
</g>
<!-- Node1&#45;&gt;Node2 -->
<g id="edge1" class="edge">
<title>Node1&#45;&gt;Node2</title>
<path fill="none" stroke="midnightblue" d="M206,-660.4C206,-652.64 206,-642.81 206,-633.86"/>
<polygon fill="midnightblue" stroke="midnightblue" points="209.5,-633.58 206,-623.58 202.5,-633.58 209.5,-633.58"/>
</g>
<!-- Node3 -->
<g id="node3" class="node">
<title>Node3</title>
<g id="a_node3"><a xlink:title=" ">
<polygon fill="white" stroke="#bfbfbf" points="123,-56.5 123,-75.5 175,-75.5 175,-56.5 123,-56.5"/>
<text text-anchor="middle" x="149" y="-63.5" font-family="Helvetica,sans-Serif" font-size="10.00">memory</text>
</a>
</g>
</g>
<!-- Node2&#45;&gt;Node3 -->
<g id="edge2" class="edge">
<title>Node2&#45;&gt;Node3</title>
<path fill="none" stroke="midnightblue" d="M156.92,-600.57C95.99,-588.89 0,-558.98 0,-486.5 0,-486.5 0,-486.5 0,-177 0,-121.07 68.79,-90.36 112.89,-76.42"/>
<polygon fill="midnightblue" stroke="midnightblue" points="114.14,-79.7 122.7,-73.46 112.12,-73 114.14,-79.7"/>
</g>
<!-- Node4 -->
<g id="node4" class="node">
<title>Node4</title>
<g id="a_node4"><a xlink:href="_directional_light_8h.html" target="_top" xlink:title=" ">
<polygon fill="white" stroke="black" points="464,-537.5 464,-556.5 556,-556.5 556,-537.5 464,-537.5"/>
<text text-anchor="middle" x="510" y="-544.5" font-family="Helvetica,sans-Serif" font-size="10.00">DirectionalLight.h</text>
</a>
</g>
</g>
<!-- Node2&#45;&gt;Node4 -->
<g id="edge3" class="edge">
<title>Node2&#45;&gt;Node4</title>
<path fill="none" stroke="midnightblue" d="M255.18,-597.87C310.35,-587.08 399.53,-569.62 456.43,-558.48"/>
<polygon fill="midnightblue" stroke="midnightblue" points="457.17,-561.91 466.32,-556.55 455.83,-555.04 457.17,-561.91"/>
</g>
<!-- Node42 -->
<g id="node42" class="node">
<title>Node42</title>
<g id="a_node42"><a xlink:href="_point_light_8h.html" target="_top" xlink:title=" ">
<polygon fill="white" stroke="black" points="172,-537.5 172,-556.5 240,-556.5 240,-537.5 172,-537.5"/>
<text text-anchor="middle" x="206" y="-544.5" font-family="Helvetica,sans-Serif" font-size="10.00">PointLight.h</text>
</a>
</g>
</g>
<!-- Node2&#45;&gt;Node42 -->
<g id="edge55" class="edge">
<title>Node2&#45;&gt;Node42</title>
<path fill="none" stroke="midnightblue" d="M206,-593.4C206,-585.47 206,-575.46 206,-566.86"/>
<polygon fill="midnightblue" stroke="midnightblue" points="209.5,-566.66 206,-556.66 202.5,-566.66 209.5,-566.66"/>
</g>
<!-- Node5 -->
<g id="node5" class="node">
<title>Node5</title>
<g id="a_node5"><a xlink:title=" ">
<polygon fill="white" stroke="#bfbfbf" points="1238,-286 1238,-305 1312,-305 1312,-286 1238,-286"/>
<text text-anchor="middle" x="1275" y="-293" font-family="Helvetica,sans-Serif" font-size="10.00">glm/vec3.hpp</text>
</a>
</g>
</g>
<!-- Node4&#45;&gt;Node5 -->
<g id="edge4" class="edge">
<title>Node4&#45;&gt;Node5</title>
<path fill="none" stroke="midnightblue" d="M556.02,-545.83C701.61,-544.89 1145.64,-538.91 1197,-501 1257.92,-456.03 1271.26,-357.17 1274.18,-315.55"/>
<polygon fill="midnightblue" stroke="midnightblue" points="1277.68,-315.61 1274.76,-305.43 1270.69,-315.21 1277.68,-315.61"/>
</g>
<!-- Node6 -->
<g id="node6" class="node">
<title>Node6</title>
<g id="a_node6"><a xlink:title=" ">
<polygon fill="white" stroke="#bfbfbf" points="109,-224.5 109,-243.5 151,-243.5 151,-224.5 109,-224.5"/>
<text text-anchor="middle" x="130" y="-231.5" font-family="Helvetica,sans-Serif" font-size="10.00">vector</text>
</a>
</g>
</g>
<!-- Node4&#45;&gt;Node6 -->
<g id="edge5" class="edge">
<title>Node4&#45;&gt;Node6</title>
<path fill="none" stroke="midnightblue" d="M463.67,-540.33C366.44,-527.15 150,-490.44 150,-425 150,-425 150,-425 150,-361.5 150,-322.55 140.64,-277.68 134.72,-253.22"/>
<polygon fill="midnightblue" stroke="midnightblue" points="138.12,-252.37 132.29,-243.52 131.33,-254.07 138.12,-252.37"/>
</g>
<!-- Node7 -->
<g id="node7" class="node">
<title>Node7</title>
<g id="a_node7"><a xlink:href="_shader_8h.html" target="_top" xlink:title=" ">
<polygon fill="white" stroke="black" points="549,-470.5 549,-500.5 659,-500.5 659,-470.5 549,-470.5"/>
<text text-anchor="start" x="557" y="-488.5" font-family="Helvetica,sans-Serif" font-size="10.00">kryne&#45;engine/Material</text>
<text text-anchor="middle" x="604" y="-477.5" font-family="Helvetica,sans-Serif" font-size="10.00">/Shader.h</text>
</a>
</g>
</g>
<!-- Node4&#45;&gt;Node7 -->
<g id="edge6" class="edge">
<title>Node4&#45;&gt;Node7</title>
<path fill="none" stroke="midnightblue" d="M523.47,-537.48C536.44,-529.27 556.51,-516.56 573.38,-505.88"/>
<polygon fill="midnightblue" stroke="midnightblue" points="575.27,-508.83 581.85,-500.52 571.52,-502.91 575.27,-508.83"/>
</g>
<!-- Node8 -->
<g id="node8" class="node">
<title>Node8</title>
<g id="a_node8"><a xlink:title=" ">
<polygon fill="white" stroke="#bfbfbf" points="670.5,-414.5 670.5,-433.5 705.5,-433.5 705.5,-414.5 670.5,-414.5"/>
<text text-anchor="middle" x="688" y="-421.5" font-family="Helvetica,sans-Serif" font-size="10.00">map</text>
</a>
</g>
</g>
<!-- Node7&#45;&gt;Node8 -->
<g id="edge7" class="edge">
<title>Node7&#45;&gt;Node8</title>
<path fill="none" stroke="midnightblue" d="M623.91,-470.4C636.99,-461.13 654.08,-449.03 667.32,-439.65"/>
<polygon fill="midnightblue" stroke="midnightblue" points="669.64,-442.29 675.78,-433.66 665.59,-436.58 669.64,-442.29"/>
</g>
<!-- Node9 -->
<g id="node9" class="node">
<title>Node9</title>
<g id="a_node9"><a xlink:title=" ">
<polygon fill="white" stroke="#bfbfbf" points="724,-414.5 724,-433.5 776,-433.5 776,-414.5 724,-414.5"/>
<text text-anchor="middle" x="750" y="-421.5" font-family="Helvetica,sans-Serif" font-size="10.00">sstream</text>
</a>
</g>
</g>
<!-- Node7&#45;&gt;Node9 -->
<g id="edge8" class="edge">
<title>Node7&#45;&gt;Node9</title>
<path fill="none" stroke="midnightblue" d="M638.6,-470.4C663.1,-460.42 695.66,-447.15 719.25,-437.53"/>
<polygon fill="midnightblue" stroke="midnightblue" points="720.82,-440.67 728.76,-433.66 718.17,-434.19 720.82,-440.67"/>
</g>
<!-- Node10 -->
<g id="node10" class="node">
<title>Node10</title>
<g id="a_node10"><a xlink:href="_dispatcher_8h.html" target="_top" xlink:title=" ">
<polygon fill="white" stroke="black" points="1106.5,-280.5 1106.5,-310.5 1219.5,-310.5 1219.5,-280.5 1106.5,-280.5"/>
<text text-anchor="start" x="1114.5" y="-298.5" font-family="Helvetica,sans-Serif" font-size="10.00">kryne&#45;engine/Dispatch</text>
<text text-anchor="middle" x="1163" y="-287.5" font-family="Helvetica,sans-Serif" font-size="10.00">/Dispatcher.h</text>
</a>
</g>
</g>
<!-- Node7&#45;&gt;Node10 -->
<g id="edge9" class="edge">
<title>Node7&#45;&gt;Node10</title>
<path fill="none" stroke="midnightblue" d="M659.3,-478.26C774.75,-464.38 1036.78,-428.18 1110,-378 1130.65,-363.85 1145.17,-338.73 1153.72,-320.11"/>
<polygon fill="midnightblue" stroke="midnightblue" points="1156.99,-321.37 1157.76,-310.8 1150.57,-318.58 1156.99,-321.37"/>
</g>
<!-- Node23 -->
<g id="node23" class="node">
<title>Node23</title>
<g id="a_node23"><a xlink:href="_uniforms_handler_8h.html" target="_top" xlink:title=" ">
<polygon fill="white" stroke="black" points="556,-414.5 556,-433.5 652,-433.5 652,-414.5 556,-414.5"/>
<text text-anchor="middle" x="604" y="-421.5" font-family="Helvetica,sans-Serif" font-size="10.00">UniformsHandler.h</text>
</a>
</g>
</g>
<!-- Node7&#45;&gt;Node23 -->
<g id="edge25" class="edge">
<title>Node7&#45;&gt;Node23</title>
<path fill="none" stroke="midnightblue" d="M604,-470.4C604,-462.47 604,-452.46 604,-443.86"/>
<polygon fill="midnightblue" stroke="midnightblue" points="607.5,-443.66 604,-433.66 600.5,-443.66 607.5,-443.66"/>
</g>
<!-- Node36 -->
<g id="node36" class="node">
<title>Node36</title>
<g id="a_node36"><a xlink:href="_shader_chunk_8h.html" target="_top" xlink:title=" ">
<polygon fill="white" stroke="black" points="346.5,-414.5 346.5,-433.5 429.5,-433.5 429.5,-414.5 346.5,-414.5"/>
<text text-anchor="middle" x="388" y="-421.5" font-family="Helvetica,sans-Serif" font-size="10.00">ShaderChunk.h</text>
</a>
</g>
</g>
<!-- Node7&#45;&gt;Node36 -->
<g id="edge44" class="edge">
<title>Node7&#45;&gt;Node36</title>
<path fill="none" stroke="midnightblue" d="M553.08,-470.47C515.17,-460.03 464.08,-445.96 428.83,-436.25"/>
<polygon fill="midnightblue" stroke="midnightblue" points="429.45,-432.79 418.88,-433.51 427.59,-439.54 429.45,-432.79"/>
</g>
<!-- Node11 -->
<g id="node11" class="node">
<title>Node11</title>
<g id="a_node11"><a xlink:href="_synchronizable_pool_8h.html" target="_top" xlink:title=" ">
<polygon fill="white" stroke="black" points="1176.5,-168.5 1176.5,-187.5 1287.5,-187.5 1287.5,-168.5 1176.5,-168.5"/>
<text text-anchor="middle" x="1232" y="-175.5" font-family="Helvetica,sans-Serif" font-size="10.00">SynchronizablePool.h</text>
</a>
</g>
</g>
<!-- Node10&#45;&gt;Node11 -->
<g id="edge10" class="edge">
<title>Node10&#45;&gt;Node11</title>
<path fill="none" stroke="midnightblue" d="M1184.51,-280.38C1196.5,-271.39 1210.65,-258.68 1219,-244 1227.09,-229.78 1230.2,-211.3 1231.37,-197.69"/>
<polygon fill="midnightblue" stroke="midnightblue" points="1234.87,-197.78 1231.97,-187.59 1227.89,-197.37 1234.87,-197.78"/>
</g>
<!-- Node21 -->
<g id="node21" class="node">
<title>Node21</title>
<g id="a_node21"><a xlink:href="_runner_pool_8h.html" target="_top" xlink:title=" ">
<polygon fill="white" stroke="black" points="1083.5,-168.5 1083.5,-187.5 1158.5,-187.5 1158.5,-168.5 1083.5,-168.5"/>
<text text-anchor="middle" x="1121" y="-175.5" font-family="Helvetica,sans-Serif" font-size="10.00">RunnerPool.h</text>
</a>
</g>
</g>
<!-- Node10&#45;&gt;Node21 -->
<g id="edge21" class="edge">
<title>Node10&#45;&gt;Node21</title>
<path fill="none" stroke="midnightblue" d="M1154.15,-280.39C1148.29,-270.52 1140.82,-256.85 1136,-244 1130.34,-228.9 1126.4,-211 1123.98,-197.81"/>
<polygon fill="midnightblue" stroke="midnightblue" points="1127.37,-196.89 1122.25,-187.62 1120.47,-198.07 1127.37,-196.89"/>
</g>
<!-- Node22 -->
<g id="node22" class="node">
<title>Node22</title>
<g id="a_node22"><a xlink:href="_main_pool_8h.html" target="_top" xlink:title=" ">
<polygon fill="white" stroke="black" points="1144.5,-224.5 1144.5,-243.5 1209.5,-243.5 1209.5,-224.5 1144.5,-224.5"/>
<text text-anchor="middle" x="1177" y="-231.5" font-family="Helvetica,sans-Serif" font-size="10.00">MainPool.h</text>
</a>
</g>
</g>
<!-- Node10&#45;&gt;Node22 -->
<g id="edge23" class="edge">
<title>Node10&#45;&gt;Node22</title>
<path fill="none" stroke="midnightblue" d="M1166.32,-280.4C1168.21,-272.38 1170.59,-262.23 1172.63,-253.57"/>
<polygon fill="midnightblue" stroke="midnightblue" points="1176.08,-254.19 1174.96,-243.66 1169.27,-252.59 1176.08,-254.19"/>
</g>
<!-- Node12 -->
<g id="node12" class="node">
<title>Node12</title>
<g id="a_node12"><a xlink:href="_thread_pool_8h.html" target="_top" xlink:title=" ">
<polygon fill="white" stroke="black" points="1083,-112.5 1083,-131.5 1157,-131.5 1157,-112.5 1083,-112.5"/>
<text text-anchor="middle" x="1120" y="-119.5" font-family="Helvetica,sans-Serif" font-size="10.00">ThreadPool.h</text>
</a>
</g>
</g>
<!-- Node11&#45;&gt;Node12 -->
<g id="edge11" class="edge">
<title>Node11&#45;&gt;Node12</title>
<path fill="none" stroke="midnightblue" d="M1214.01,-168.32C1195.96,-159.62 1167.95,-146.12 1147.2,-136.11"/>
<polygon fill="midnightblue" stroke="midnightblue" points="1148.48,-132.84 1137.95,-131.65 1145.44,-139.15 1148.48,-132.84"/>
</g>
<!-- Node12&#45;&gt;Node3 -->
<g id="edge16" class="edge">
<title>Node12&#45;&gt;Node3</title>
<path fill="none" stroke="midnightblue" d="M1082.83,-118.93C928.43,-110.35 338.7,-77.55 185.53,-69.03"/>
<polygon fill="midnightblue" stroke="midnightblue" points="185.44,-65.52 175.27,-68.46 185.06,-72.51 185.44,-65.52"/>
</g>
<!-- Node13 -->
<g id="node13" class="node">
<title>Node13</title>
<g id="a_node13"><a xlink:title=" ">
<polygon fill="white" stroke="#bfbfbf" points="1172,-56.5 1172,-75.5 1216,-75.5 1216,-56.5 1172,-56.5"/>
<text text-anchor="middle" x="1194" y="-63.5" font-family="Helvetica,sans-Serif" font-size="10.00">thread</text>
</a>
</g>
</g>
<!-- Node12&#45;&gt;Node13 -->
<g id="edge12" class="edge">
<title>Node12&#45;&gt;Node13</title>
<path fill="none" stroke="midnightblue" d="M1131.89,-112.32C1143.15,-104.11 1160.29,-91.6 1173.71,-81.81"/>
<polygon fill="midnightblue" stroke="midnightblue" points="1175.88,-84.56 1181.89,-75.83 1171.75,-78.9 1175.88,-84.56"/>
</g>
<!-- Node14 -->
<g id="node14" class="node">
<title>Node14</title>
<g id="a_node14"><a xlink:title=" ">
<polygon fill="white" stroke="#bfbfbf" points="1234,-56.5 1234,-75.5 1278,-75.5 1278,-56.5 1234,-56.5"/>
<text text-anchor="middle" x="1256" y="-63.5" font-family="Helvetica,sans-Serif" font-size="10.00">mutex</text>
</a>
</g>
</g>
<!-- Node12&#45;&gt;Node14 -->
<g id="edge13" class="edge">
<title>Node12&#45;&gt;Node14</title>
<path fill="none" stroke="midnightblue" d="M1141.55,-112.44C1164.03,-103.52 1199.49,-89.44 1224.98,-79.32"/>
<polygon fill="midnightblue" stroke="midnightblue" points="1226.55,-82.46 1234.55,-75.52 1223.97,-75.95 1226.55,-82.46"/>
</g>
<!-- Node15 -->
<g id="node15" class="node">
<title>Node15</title>
<g id="a_node15"><a xlink:title=" ">
<polygon fill="white" stroke="#bfbfbf" points="916.5,-56.5 916.5,-75.5 1009.5,-75.5 1009.5,-56.5 916.5,-56.5"/>
<text text-anchor="middle" x="963" y="-63.5" font-family="Helvetica,sans-Serif" font-size="10.00">condition_variable</text>
</a>
</g>
</g>
<!-- Node12&#45;&gt;Node15 -->
<g id="edge14" class="edge">
<title>Node12&#45;&gt;Node15</title>
<path fill="none" stroke="midnightblue" d="M1095.12,-112.44C1068.71,-103.36 1026.78,-88.94 997.26,-78.78"/>
<polygon fill="midnightblue" stroke="midnightblue" points="998.36,-75.46 987.76,-75.52 996.08,-82.08 998.36,-75.46"/>
</g>
<!-- Node16 -->
<g id="node16" class="node">
<title>Node16</title>
<g id="a_node16"><a xlink:title=" ">
<polygon fill="white" stroke="#bfbfbf" points="1027.5,-56.5 1027.5,-75.5 1068.5,-75.5 1068.5,-56.5 1027.5,-56.5"/>
<text text-anchor="middle" x="1048" y="-63.5" font-family="Helvetica,sans-Serif" font-size="10.00">future</text>
</a>
</g>
</g>
<!-- Node12&#45;&gt;Node16 -->
<g id="edge15" class="edge">
<title>Node12&#45;&gt;Node16</title>
<path fill="none" stroke="midnightblue" d="M1108.43,-112.32C1097.58,-104.18 1081.12,-91.84 1068.12,-82.09"/>
<polygon fill="midnightblue" stroke="midnightblue" points="1069.88,-79.03 1059.78,-75.83 1065.68,-84.63 1069.88,-79.03"/>
</g>
<!-- Node17 -->
<g id="node17" class="node">
<title>Node17</title>
<g id="a_node17"><a xlink:title=" ">
<polygon fill="white" stroke="#bfbfbf" points="583,-56.5 583,-75.5 637,-75.5 637,-56.5 583,-56.5"/>
<text text-anchor="middle" x="610" y="-63.5" font-family="Helvetica,sans-Serif" font-size="10.00">iostream</text>
</a>
</g>
</g>
<!-- Node12&#45;&gt;Node17 -->
<g id="edge17" class="edge">
<title>Node12&#45;&gt;Node17</title>
<path fill="none" stroke="midnightblue" d="M1082.73,-114.08C1078.11,-113.33 1073.45,-112.61 1069,-112 913.11,-90.64 726.09,-75.56 647.59,-69.7"/>
<polygon fill="midnightblue" stroke="midnightblue" points="647.48,-66.18 637.25,-68.94 646.96,-73.16 647.48,-66.18"/>
</g>
<!-- Node18 -->
<g id="node18" class="node">
<title>Node18</title>
<g id="a_node18"><a xlink:href="_base_pool_8h.html" target="_top" xlink:title=" ">
<polygon fill="white" stroke="black" points="1086.5,-56.5 1086.5,-75.5 1153.5,-75.5 1153.5,-56.5 1086.5,-56.5"/>
<text text-anchor="middle" x="1120" y="-63.5" font-family="Helvetica,sans-Serif" font-size="10.00">BasePool.h</text>
</a>
</g>
</g>
<!-- Node12&#45;&gt;Node18 -->
<g id="edge18" class="edge">
<title>Node12&#45;&gt;Node18</title>
<path fill="none" stroke="midnightblue" d="M1120,-112.08C1120,-105.01 1120,-94.86 1120,-85.99"/>
<polygon fill="midnightblue" stroke="midnightblue" points="1123.5,-85.75 1120,-75.75 1116.5,-85.75 1123.5,-85.75"/>
</g>
<!-- Node19 -->
<g id="node19" class="node">
<title>Node19</title>
<g id="a_node19"><a xlink:title=" ">
<polygon fill="white" stroke="#bfbfbf" points="1063.5,-0.5 1063.5,-19.5 1106.5,-19.5 1106.5,-0.5 1063.5,-0.5"/>
<text text-anchor="middle" x="1085" y="-7.5" font-family="Helvetica,sans-Serif" font-size="10.00">queue</text>
</a>
</g>
</g>
<!-- Node18&#45;&gt;Node19 -->
<g id="edge19" class="edge">
<title>Node18&#45;&gt;Node19</title>
<path fill="none" stroke="midnightblue" d="M1114.22,-56.08C1109.33,-48.53 1102.17,-37.49 1096.17,-28.23"/>
<polygon fill="midnightblue" stroke="midnightblue" points="1099.05,-26.24 1090.67,-19.75 1093.17,-30.05 1099.05,-26.24"/>
</g>
<!-- Node20 -->
<g id="node20" class="node">
<title>Node20</title>
<g id="a_node20"><a xlink:title=" ">
<polygon fill="white" stroke="#bfbfbf" points="1125,-0.5 1125,-19.5 1183,-19.5 1183,-0.5 1125,-0.5"/>
<text text-anchor="middle" x="1154" y="-7.5" font-family="Helvetica,sans-Serif" font-size="10.00">functional</text>
</a>
</g>
</g>
<!-- Node18&#45;&gt;Node20 -->
<g id="edge20" class="edge">
<title>Node18&#45;&gt;Node20</title>
<path fill="none" stroke="midnightblue" d="M1125.61,-56.08C1130.37,-48.53 1137.32,-37.49 1143.15,-28.23"/>
<polygon fill="midnightblue" stroke="midnightblue" points="1146.12,-30.08 1148.49,-19.75 1140.2,-26.35 1146.12,-30.08"/>
</g>
<!-- Node21&#45;&gt;Node12 -->
<g id="edge22" class="edge">
<title>Node21&#45;&gt;Node12</title>
<path fill="none" stroke="midnightblue" d="M1120.83,-168.08C1120.7,-161.01 1120.52,-150.86 1120.35,-141.99"/>
<polygon fill="midnightblue" stroke="midnightblue" points="1123.85,-141.68 1120.16,-131.75 1116.85,-141.81 1123.85,-141.68"/>
</g>
<!-- Node22&#45;&gt;Node11 -->
<g id="edge24" class="edge">
<title>Node22&#45;&gt;Node11</title>
<path fill="none" stroke="midnightblue" d="M1186.08,-224.08C1194.17,-216.14 1206.2,-204.34 1215.91,-194.8"/>
<polygon fill="midnightblue" stroke="midnightblue" points="1218.4,-197.25 1223.09,-187.75 1213.5,-192.26 1218.4,-197.25"/>
</g>
<!-- Node24 -->
<g id="node24" class="node">
<title>Node24</title>
<g id="a_node24"><a xlink:title=" ">
<polygon fill="white" stroke="#bfbfbf" points="416.5,-286 416.5,-305 457.5,-305 457.5,-286 416.5,-286"/>
<text text-anchor="middle" x="437" y="-293" font-family="Helvetica,sans-Serif" font-size="10.00">string</text>
</a>
</g>
</g>
<!-- Node23&#45;&gt;Node24 -->
<g id="edge26" class="edge">
<title>Node23&#45;&gt;Node24</title>
<path fill="none" stroke="midnightblue" d="M595.72,-414.26C579.03,-396.74 541.71,-358.07 527,-347 515.85,-338.61 484.95,-321.74 462.47,-309.81"/>
<polygon fill="midnightblue" stroke="midnightblue" points="463.9,-306.61 453.43,-305.04 460.64,-312.8 463.9,-306.61"/>
</g>
<!-- Node25 -->
<g id="node25" class="node">
<title>Node25</title>
<g id="a_node25"><a xlink:title=" ">
<polygon fill="white" stroke="#bfbfbf" points="435.5,-353 435.5,-372 518.5,-372 518.5,-353 435.5,-353"/>
<text text-anchor="middle" x="477" y="-360" font-family="Helvetica,sans-Serif" font-size="10.00">unordered_map</text>
</a>
</g>
</g>
<!-- Node23&#45;&gt;Node25 -->
<g id="edge27" class="edge">
<title>Node23&#45;&gt;Node25</title>
<path fill="none" stroke="midnightblue" d="M585.8,-414.48C564.49,-404.49 528.97,-387.85 504.34,-376.31"/>
<polygon fill="midnightblue" stroke="midnightblue" points="505.7,-373.08 495.16,-372.01 502.73,-379.42 505.7,-373.08"/>
</g>
<!-- Node26 -->
<g id="node26" class="node">
<title>Node26</title>
<g id="a_node26"><a xlink:title=" ">
<polygon fill="white" stroke="#bfbfbf" points="572,-286 572,-305 636,-305 636,-286 572,-286"/>
<text text-anchor="middle" x="604" y="-293" font-family="Helvetica,sans-Serif" font-size="10.00">glad/glad.h</text>
</a>
</g>
</g>
<!-- Node23&#45;&gt;Node26 -->
<g id="edge28" class="edge">
<title>Node23&#45;&gt;Node26</title>
<path fill="none" stroke="midnightblue" d="M604,-414.31C604,-393.99 604,-343.05 604,-315.28"/>
<polygon fill="midnightblue" stroke="midnightblue" points="607.5,-315.26 604,-305.26 600.5,-315.26 607.5,-315.26"/>
</g>
<!-- Node27 -->
<g id="node27" class="node">
<title>Node27</title>
<g id="a_node27"><a xlink:title=" ">
<polygon fill="white" stroke="#bfbfbf" points="476,-286 476,-305 554,-305 554,-286 476,-286"/>
<text text-anchor="middle" x="515" y="-293" font-family="Helvetica,sans-Serif" font-size="10.00">GLFW/glfw3.h</text>
</a>
</g>
</g>
<!-- Node23&#45;&gt;Node27 -->
<g id="edge29" class="edge">
<title>Node23&#45;&gt;Node27</title>
<path fill="none" stroke="midnightblue" d="M599.82,-414.18C592.74,-399.61 577.54,-369.84 561,-347 552.09,-334.69 540.57,-322.06 531.29,-312.5"/>
<polygon fill="midnightblue" stroke="midnightblue" points="533.66,-309.91 524.13,-305.28 528.69,-314.84 533.66,-309.91"/>
</g>
<!-- Node28 -->
<g id="node28" class="node">
<title>Node28</title>
<g id="a_node28"><a xlink:title=" ">
<polygon fill="white" stroke="#bfbfbf" points="883,-353 883,-372 969,-372 969,-353 883,-353"/>
<text text-anchor="middle" x="926" y="-360" font-family="Helvetica,sans-Serif" font-size="10.00">glm/mat4x4.hpp</text>
</a>
</g>
</g>
<!-- Node23&#45;&gt;Node28 -->
<g id="edge30" class="edge">
<title>Node23&#45;&gt;Node28</title>
<path fill="none" stroke="midnightblue" d="M652.17,-415.26C723.93,-403.68 852.78,-382.71 874,-378 878.44,-377.01 883.07,-375.88 887.66,-374.69"/>
<polygon fill="midnightblue" stroke="midnightblue" points="888.78,-378.01 897.53,-372.03 886.96,-371.25 888.78,-378.01"/>
</g>
<!-- Node29 -->
<g id="node29" class="node">
<title>Node29</title>
<g id="a_node29"><a xlink:title=" ">
<polygon fill="white" stroke="#bfbfbf" points="651,-353 651,-372 757,-372 757,-353 651,-353"/>
<text text-anchor="middle" x="704" y="-360" font-family="Helvetica,sans-Serif" font-size="10.00">glm/gtc/type_ptr.hpp</text>
</a>
</g>
</g>
<!-- Node23&#45;&gt;Node29 -->
<g id="edge31" class="edge">
<title>Node23&#45;&gt;Node29</title>
<path fill="none" stroke="midnightblue" d="M618.33,-414.48C634.66,-404.75 661.6,-388.73 680.91,-377.24"/>
<polygon fill="midnightblue" stroke="midnightblue" points="682.89,-380.13 689.7,-372.01 679.32,-374.11 682.89,-380.13"/>
</g>
<!-- Node30 -->
<g id="node30" class="node">
<title>Node30</title>
<g id="a_node30"><a xlink:title=" ">
<polygon fill="white" stroke="#bfbfbf" points="775,-353 775,-372 865,-372 865,-353 775,-353"/>
<text text-anchor="middle" x="820" y="-360" font-family="Helvetica,sans-Serif" font-size="10.00">boost/variant.hpp</text>
</a>
</g>
</g>
<!-- Node23&#45;&gt;Node30 -->
<g id="edge32" class="edge">
<title>Node23&#45;&gt;Node30</title>
<path fill="none" stroke="midnightblue" d="M634.95,-414.48C672.88,-404.03 737.28,-386.29 779.22,-374.73"/>
<polygon fill="midnightblue" stroke="midnightblue" points="780.4,-378.04 789.11,-372.01 778.54,-371.29 780.4,-378.04"/>
</g>
<!-- Node31 -->
<g id="node31" class="node">
<title>Node31</title>
<g id="a_node31"><a xlink:href="_texture_8h.html" target="_top" xlink:title=" ">
<polygon fill="white" stroke="black" points="987.5,-347.5 987.5,-377.5 1100.5,-377.5 1100.5,-347.5 987.5,-347.5"/>
<text text-anchor="start" x="995.5" y="-365.5" font-family="Helvetica,sans-Serif" font-size="10.00">kryne&#45;engine/Textures</text>
<text text-anchor="middle" x="1044" y="-354.5" font-family="Helvetica,sans-Serif" font-size="10.00">/Texture.h</text>
</a>
</g>
</g>
<!-- Node23&#45;&gt;Node31 -->
<g id="edge33" class="edge">
<title>Node23&#45;&gt;Node31</title>
<path fill="none" stroke="midnightblue" d="M652.18,-415.24C655.16,-414.81 658.12,-414.39 661,-414 798.35,-395.37 836.43,-400.97 977.31,-378"/>
<polygon fill="midnightblue" stroke="midnightblue" points="977.89,-381.45 987.19,-376.37 976.75,-374.55 977.89,-381.45"/>
</g>
<!-- Node31&#45;&gt;Node5 -->
<g id="edge40" class="edge">
<title>Node31&#45;&gt;Node5</title>
<path fill="none" stroke="midnightblue" d="M1097.59,-347.46C1134.61,-337.62 1184.92,-323.96 1229,-311 1232.13,-310.08 1235.38,-309.1 1238.63,-308.11"/>
<polygon fill="midnightblue" stroke="midnightblue" points="1239.78,-311.42 1248.3,-305.11 1237.71,-304.73 1239.78,-311.42"/>
</g>
<!-- Node31&#45;&gt;Node10 -->
<g id="edge43" class="edge">
<title>Node31&#45;&gt;Node10</title>
<path fill="none" stroke="midnightblue" d="M1069.82,-347.4C1086.97,-338.03 1109.7,-325.62 1128.41,-315.39"/>
<polygon fill="midnightblue" stroke="midnightblue" points="1130.13,-318.44 1137.23,-310.58 1126.78,-312.3 1130.13,-318.44"/>
</g>
<!-- Node31&#45;&gt;Node17 -->
<g id="edge36" class="edge">
<title>Node31&#45;&gt;Node17</title>
<path fill="none" stroke="midnightblue" d="M1052.21,-347.39C1061.04,-330.17 1072.15,-300.79 1059,-280 965.18,-131.65 736.91,-84.57 647.14,-71.49"/>
<polygon fill="midnightblue" stroke="midnightblue" points="647.53,-68.01 637.14,-70.09 646.56,-74.94 647.53,-68.01"/>
</g>
<!-- Node31&#45;&gt;Node24 -->
<g id="edge35" class="edge">
<title>Node31&#45;&gt;Node24</title>
<path fill="none" stroke="midnightblue" d="M987.21,-348.47C984.11,-347.93 981.02,-347.44 978,-347 752.66,-314.49 687.01,-369.59 467,-311 465.07,-310.49 463.12,-309.85 461.18,-309.13"/>
<polygon fill="midnightblue" stroke="midnightblue" points="462.39,-305.84 451.83,-305.04 459.59,-312.25 462.39,-305.84"/>
</g>
<!-- Node31&#45;&gt;Node26 -->
<g id="edge41" class="edge">
<title>Node31&#45;&gt;Node26</title>
<path fill="none" stroke="midnightblue" d="M987.19,-348.61C984.09,-348.03 981.01,-347.49 978,-347 831.09,-322.99 790.15,-344.04 645,-311 641.76,-310.26 638.42,-309.35 635.12,-308.35"/>
<polygon fill="midnightblue" stroke="midnightblue" points="636.02,-304.96 625.43,-305.13 633.82,-311.6 636.02,-304.96"/>
</g>
<!-- Node31&#45;&gt;Node27 -->
<g id="edge42" class="edge">
<title>Node31&#45;&gt;Node27</title>
<path fill="none" stroke="midnightblue" d="M987.21,-348.53C984.1,-347.98 981.02,-347.46 978,-347 794.98,-319.08 744.81,-345.96 563,-311 558.55,-310.14 553.93,-309.04 549.39,-307.82"/>
<polygon fill="midnightblue" stroke="midnightblue" points="550.25,-304.42 539.67,-305.02 548.31,-311.15 550.25,-304.42"/>
</g>
<!-- Node32 -->
<g id="node32" class="node">
<title>Node32</title>
<g id="a_node32"><a xlink:title=" ">
<polygon fill="white" stroke="#bfbfbf" points="854,-286 854,-305 924,-305 924,-286 854,-286"/>
<text text-anchor="middle" x="889" y="-293" font-family="Helvetica,sans-Serif" font-size="10.00">stb_image.h</text>
</a>
</g>
</g>
<!-- Node31&#45;&gt;Node32 -->
<g id="edge34" class="edge">
<title>Node31&#45;&gt;Node32</title>
<path fill="none" stroke="midnightblue" d="M1010.37,-347.4C983.05,-335.94 944.89,-319.94 918.69,-308.95"/>
<polygon fill="midnightblue" stroke="midnightblue" points="919.86,-305.65 909.29,-305.01 917.15,-312.1 919.86,-305.65"/>
</g>
<!-- Node33 -->
<g id="node33" class="node">
<title>Node33</title>
<g id="a_node33"><a xlink:title=" ">
<polygon fill="white" stroke="#bfbfbf" points="942.5,-286 942.5,-305 1049.5,-305 1049.5,-286 942.5,-286"/>
<text text-anchor="middle" x="996" y="-293" font-family="Helvetica,sans-Serif" font-size="10.00">boost/filesystem.hpp</text>
</a>
</g>
</g>
<!-- Node31&#45;&gt;Node33 -->
<g id="edge37" class="edge">
<title>Node31&#45;&gt;Node33</title>
<path fill="none" stroke="midnightblue" d="M1033.58,-347.4C1026.17,-337.36 1016.19,-323.84 1008.37,-313.25"/>
<polygon fill="midnightblue" stroke="midnightblue" points="1011.18,-311.16 1002.42,-305.19 1005.55,-315.32 1011.18,-311.16"/>
</g>
<!-- Node34 -->
<g id="node34" class="node">
<title>Node34</title>
<g id="a_node34"><a xlink:title=" ">
<polygon fill="white" stroke="#bfbfbf" points="654.5,-286 654.5,-305 743.5,-305 743.5,-286 654.5,-286"/>
<text text-anchor="middle" x="699" y="-293" font-family="Helvetica,sans-Serif" font-size="10.00">boost/format.hpp</text>
</a>
</g>
</g>
<!-- Node31&#45;&gt;Node34 -->
<g id="edge38" class="edge">
<title>Node31&#45;&gt;Node34</title>
<path fill="none" stroke="midnightblue" d="M987.16,-348.79C984.07,-348.17 981,-347.57 978,-347 878.5,-328.13 852.04,-332.16 753,-311 748.27,-309.99 743.33,-308.82 738.44,-307.6"/>
<polygon fill="midnightblue" stroke="midnightblue" points="739.13,-304.16 728.57,-305.03 737.37,-310.93 739.13,-304.16"/>
</g>
<!-- Node35 -->
<g id="node35" class="node">
<title>Node35</title>
<g id="a_node35"><a xlink:title=" ">
<polygon fill="white" stroke="#bfbfbf" points="762,-286 762,-305 836,-305 836,-286 762,-286"/>
<text text-anchor="middle" x="799" y="-293" font-family="Helvetica,sans-Serif" font-size="10.00">glm/vec2.hpp</text>
</a>
</g>
</g>
<!-- Node31&#45;&gt;Node35 -->
<g id="edge39" class="edge">
<title>Node31&#45;&gt;Node35</title>
<path fill="none" stroke="midnightblue" d="M987.16,-347.99C947.23,-338.27 892.66,-324.55 845,-311 841.68,-310.06 838.23,-309.04 834.79,-308"/>
<polygon fill="midnightblue" stroke="midnightblue" points="835.78,-304.64 825.19,-305.04 833.72,-311.33 835.78,-304.64"/>
</g>
<!-- Node36&#45;&gt;Node17 -->
<g id="edge48" class="edge">
<title>Node36&#45;&gt;Node17</title>
<path fill="none" stroke="midnightblue" d="M385.82,-414.48C380.83,-394.19 369,-341.36 369,-296.5 369,-296.5 369,-296.5 369,-177 369,-88.59 504.87,-70.93 572.57,-67.62"/>
<polygon fill="midnightblue" stroke="midnightblue" points="572.97,-71.11 582.82,-67.2 572.69,-64.11 572.97,-71.11"/>
</g>
<!-- Node36&#45;&gt;Node24 -->
<g id="edge46" class="edge">
<title>Node36&#45;&gt;Node24</title>
<path fill="none" stroke="midnightblue" d="M391.37,-414.31C399.27,-393.9 419.14,-342.6 429.87,-314.91"/>
<polygon fill="midnightblue" stroke="midnightblue" points="433.26,-315.84 433.61,-305.26 426.73,-313.32 433.26,-315.84"/>
</g>
<!-- Node36&#45;&gt;Node25 -->
<g id="edge45" class="edge">
<title>Node36&#45;&gt;Node25</title>
<path fill="none" stroke="midnightblue" d="M400.75,-414.48C415.03,-404.93 438.4,-389.31 455.51,-377.87"/>
<polygon fill="midnightblue" stroke="midnightblue" points="457.9,-380.48 464.27,-372.01 454.01,-374.66 457.9,-380.48"/>
</g>
<!-- Node37 -->
<g id="node37" class="node">
<title>Node37</title>
<g id="a_node37"><a xlink:title=" ">
<polygon fill="white" stroke="#bfbfbf" points="178.5,-353 178.5,-372 227.5,-372 227.5,-353 178.5,-353"/>
<text text-anchor="middle" x="203" y="-360" font-family="Helvetica,sans-Serif" font-size="10.00">fstream</text>
</a>
</g>
</g>
<!-- Node36&#45;&gt;Node37 -->
<g id="edge47" class="edge">
<title>Node36&#45;&gt;Node37</title>
<path fill="none" stroke="midnightblue" d="M354.7,-414.44C323.64,-406.15 276.19,-392.71 236,-378 234.34,-377.39 232.65,-376.75 230.95,-376.07"/>
<polygon fill="midnightblue" stroke="midnightblue" points="231.91,-372.68 221.33,-372.05 229.21,-379.13 231.91,-372.68"/>
</g>
<!-- Node38 -->
<g id="node38" class="node">
<title>Node38</title>
<g id="a_node38"><a xlink:href="kryne-engine_2_utils_2_utils_8h.html" target="_top" xlink:title=" ">
<polygon fill="white" stroke="black" points="245.5,-347.5 245.5,-377.5 340.5,-377.5 340.5,-347.5 245.5,-347.5"/>
<text text-anchor="start" x="253.5" y="-365.5" font-family="Helvetica,sans-Serif" font-size="10.00">kryne&#45;engine/Utils</text>
<text text-anchor="middle" x="293" y="-354.5" font-family="Helvetica,sans-Serif" font-size="10.00">/Utils.h</text>
</a>
</g>
</g>
<!-- Node36&#45;&gt;Node38 -->
<g id="edge49" class="edge">
<title>Node36&#45;&gt;Node38</title>
<path fill="none" stroke="midnightblue" d="M374.39,-414.48C361.28,-406.27 340.99,-393.56 323.95,-382.88"/>
<polygon fill="midnightblue" stroke="midnightblue" points="325.72,-379.86 315.39,-377.52 322.01,-385.8 325.72,-379.86"/>
</g>
<!-- Node39 -->
<g id="node39" class="node">
<title>Node39</title>
<g id="a_node39"><a xlink:href="_string_utils_8hpp.html" target="_top" xlink:title=" ">
<polygon fill="white" stroke="black" points="261,-168.5 261,-187.5 341,-187.5 341,-168.5 261,-168.5"/>
<text text-anchor="middle" x="301" y="-175.5" font-family="Helvetica,sans-Serif" font-size="10.00">StringUtils.hpp</text>
</a>
</g>
</g>
<!-- Node38&#45;&gt;Node39 -->
<g id="edge50" class="edge">
<title>Node38&#45;&gt;Node39</title>
<path fill="none" stroke="midnightblue" d="M293.61,-347.48C295.03,-315.1 298.54,-235.04 300.16,-198.16"/>
<polygon fill="midnightblue" stroke="midnightblue" points="303.67,-197.96 300.61,-187.82 296.68,-197.66 303.67,-197.96"/>
</g>
<!-- Node40 -->
<g id="node40" class="node">
<title>Node40</title>
<g id="a_node40"><a xlink:href="_vector_mapping_8hpp.html" target="_top" xlink:title=" ">
<polygon fill="white" stroke="black" points="178.5,-286 178.5,-305 279.5,-305 279.5,-286 178.5,-286"/>
<text text-anchor="middle" x="229" y="-293" font-family="Helvetica,sans-Serif" font-size="10.00">VectorMapping.hpp</text>
</a>
</g>
</g>
<!-- Node38&#45;&gt;Node40 -->
<g id="edge52" class="edge">
<title>Node38&#45;&gt;Node40</title>
<path fill="none" stroke="midnightblue" d="M279.11,-347.4C269.04,-337.16 255.38,-323.3 244.87,-312.62"/>
<polygon fill="midnightblue" stroke="midnightblue" points="247.07,-309.86 237.56,-305.19 242.08,-314.78 247.07,-309.86"/>
</g>
<!-- Node39&#45;&gt;Node17 -->
<g id="edge51" class="edge">
<title>Node39&#45;&gt;Node17</title>
<path fill="none" stroke="midnightblue" d="M305.61,-168.15C313.59,-153.81 331.4,-125.7 355,-112 391.38,-90.87 510.88,-76.58 572.5,-70.43"/>
<polygon fill="midnightblue" stroke="midnightblue" points="572.98,-73.9 582.59,-69.44 572.3,-66.93 572.98,-73.9"/>
</g>
<!-- Node40&#45;&gt;Node6 -->
<g id="edge53" class="edge">
<title>Node40&#45;&gt;Node6</title>
<path fill="none" stroke="midnightblue" d="M214.82,-285.98C198.64,-276.25 171.97,-260.23 152.86,-248.74"/>
<polygon fill="midnightblue" stroke="midnightblue" points="154.53,-245.66 144.16,-243.51 150.93,-251.66 154.53,-245.66"/>
</g>
<!-- Node41 -->
<g id="node41" class="node">
<title>Node41</title>
<g id="a_node41"><a xlink:title=" ">
<polygon fill="white" stroke="#bfbfbf" points="169.5,-224.5 169.5,-243.5 282.5,-243.5 282.5,-224.5 169.5,-224.5"/>
<text text-anchor="middle" x="226" y="-231.5" font-family="Helvetica,sans-Serif" font-size="10.00">glm/detail/qualifier.hpp</text>
</a>
</g>
</g>
<!-- Node40&#45;&gt;Node41 -->
<g id="edge54" class="edge">
<title>Node40&#45;&gt;Node41</title>
<path fill="none" stroke="midnightblue" d="M228.57,-285.98C228.15,-277.58 227.49,-264.48 226.94,-253.66"/>
<polygon fill="midnightblue" stroke="midnightblue" points="230.43,-253.32 226.43,-243.51 223.44,-253.67 230.43,-253.32"/>
</g>
<!-- Node42&#45;&gt;Node5 -->
<g id="edge56" class="edge">
<title>Node42&#45;&gt;Node5</title>
<path fill="none" stroke="midnightblue" d="M240.21,-544.71C351.34,-539.78 711.42,-517.9 995,-434 1060.45,-414.63 1076.69,-407.99 1138,-378 1180.47,-357.22 1227.28,-327.88 1253.71,-310.65"/>
<polygon fill="midnightblue" stroke="midnightblue" points="1255.73,-313.51 1262.17,-305.1 1251.89,-307.66 1255.73,-313.51"/>
</g>
<!-- Node42&#45;&gt;Node6 -->
<g id="edge58" class="edge">
<title>Node42&#45;&gt;Node6</title>
<path fill="none" stroke="midnightblue" d="M185.43,-537.5C169.78,-530.04 148.81,-517.76 136,-501 114.49,-472.86 112,-460.42 112,-425 112,-425 112,-425 112,-361.5 112,-322.82 120.35,-278.14 125.68,-253.58"/>
<polygon fill="midnightblue" stroke="midnightblue" points="129.16,-254.05 127.94,-243.53 122.33,-252.52 129.16,-254.05"/>
</g>
<!-- Node42&#45;&gt;Node7 -->
<g id="edge57" class="edge">
<title>Node42&#45;&gt;Node7</title>
<path fill="none" stroke="midnightblue" d="M240.28,-540.88C306.59,-530.96 453.43,-509.01 538.87,-496.24"/>
<polygon fill="midnightblue" stroke="midnightblue" points="539.6,-499.67 548.97,-494.73 538.57,-492.74 539.6,-499.67"/>
</g>
<!-- Node43 -->
<g id="node43" class="node">
<title>Node43</title>
<g id="a_node43"><a xlink:title=" ">
<polygon fill="white" stroke="#bfbfbf" points="28,-476 28,-495 84,-495 84,-476 28,-476"/>
<text text-anchor="middle" x="56" y="-483" font-family="Helvetica,sans-Serif" font-size="10.00">algorithm</text>
</a>
</g>
</g>
<!-- Node42&#45;&gt;Node43 -->
<g id="edge59" class="edge">
<title>Node42&#45;&gt;Node43</title>
<path fill="none" stroke="midnightblue" d="M184.51,-537.48C158.89,-527.31 115.89,-510.26 86.76,-498.7"/>
<polygon fill="midnightblue" stroke="midnightblue" points="88.04,-495.44 77.45,-495.01 85.46,-501.95 88.04,-495.44"/>
</g>
</g>
</svg>
