<?xml version="1.0" encoding="UTF-8" standalone="no"?>
<!DOCTYPE svg PUBLIC "-//W3C//DTD SVG 1.1//EN"
 "http://www.w3.org/Graphics/SVG/1.1/DTD/svg11.dtd">
<!-- Generated by graphviz version 2.44.1 (20200629.0846)
 -->
<!-- Title: kryne&#45;engine/include/KEModules/Light.h Pages: 1 -->
<svg width="1300pt" height="721pt"
 viewBox="0.00 0.00 1299.50 721.00" xmlns="http://www.w3.org/2000/svg" xmlns:xlink="http://www.w3.org/1999/xlink">
<g id="graph0" class="graph" transform="scale(1 1) rotate(0) translate(4 717)">
<title>kryne&#45;engine/include/KEModules/Light.h</title>
<polygon fill="white" stroke="transparent" points="-4,4 -4,-717 1295.5,-717 1295.5,4 -4,4"/>
<!-- Node1 -->
<g id="node1" class="node">
<title>Node1</title>
<g id="a_node1"><a xlink:title=" ">
<polygon fill="#bfbfbf" stroke="black" points="655.5,-682.5 655.5,-712.5 761.5,-712.5 761.5,-682.5 655.5,-682.5"/>
<text text-anchor="start" x="663.5" y="-700.5" font-family="Helvetica,sans-Serif" font-size="10.00">kryne&#45;engine/include</text>
<text text-anchor="middle" x="708.5" y="-689.5" font-family="Helvetica,sans-Serif" font-size="10.00">/KEModules/Light.h</text>
</a>
</g>
</g>
<!-- Node2 -->
<g id="node2" class="node">
<title>Node2</title>
<g id="a_node2"><a xlink:href="_old_directional_light_8h.html" target="_top" xlink:title=" ">
<polygon fill="white" stroke="black" points="730.5,-548.5 730.5,-578.5 840.5,-578.5 840.5,-548.5 730.5,-548.5"/>
<text text-anchor="start" x="738.5" y="-566.5" font-family="Helvetica,sans-Serif" font-size="10.00">kryne&#45;engine/Light</text>
<text text-anchor="middle" x="785.5" y="-555.5" font-family="Helvetica,sans-Serif" font-size="10.00">/OldDirectionalLight.h</text>
</a>
</g>
</g>
<!-- Node1&#45;&gt;Node2 -->
<g id="edge1" class="edge">
<title>Node1&#45;&gt;Node2</title>
<path fill="none" stroke="midnightblue" d="M730.6,-682.44C742.96,-673.47 757.62,-660.76 766.5,-646 776.95,-628.64 781.65,-606.01 783.77,-589"/>
<polygon fill="midnightblue" stroke="midnightblue" points="787.28,-589.05 784.82,-578.75 780.32,-588.34 787.28,-589.05"/>
</g>
<!-- Node42 -->
<g id="node42" class="node">
<title>Node42</title>
<g id="a_node42"><a xlink:href="_lighting_registry_8h.html" target="_top" xlink:title=" ">
<polygon fill="white" stroke="black" points="659.5,-615.5 659.5,-645.5 757.5,-645.5 757.5,-615.5 659.5,-615.5"/>
<text text-anchor="start" x="667.5" y="-633.5" font-family="Helvetica,sans-Serif" font-size="10.00">kryne&#45;engine/Light</text>
<text text-anchor="middle" x="708.5" y="-622.5" font-family="Helvetica,sans-Serif" font-size="10.00">/LightingRegistry.h</text>
</a>
</g>
</g>
<!-- Node1&#45;&gt;Node42 -->
<g id="edge55" class="edge">
<title>Node1&#45;&gt;Node42</title>
<path fill="none" stroke="midnightblue" d="M708.5,-682.4C708.5,-674.64 708.5,-664.81 708.5,-655.86"/>
<polygon fill="midnightblue" stroke="midnightblue" points="712,-655.58 708.5,-645.58 705,-655.58 712,-655.58"/>
</g>
<!-- Node43 -->
<g id="node43" class="node">
<title>Node43</title>
<g id="a_node43"><a xlink:href="_old_point_light_8h.html" target="_top" xlink:title=" ">
<polygon fill="white" stroke="black" points="428,-554 428,-573 511,-573 511,-554 428,-554"/>
<text text-anchor="middle" x="469.5" y="-561" font-family="Helvetica,sans-Serif" font-size="10.00">OldPointLight.h</text>
</a>
</g>
</g>
<!-- Node1&#45;&gt;Node43 -->
<g id="edge63" class="edge">
<title>Node1&#45;&gt;Node43</title>
<path fill="none" stroke="midnightblue" d="M682.92,-682.37C636.6,-656.79 539.43,-603.12 493.95,-578"/>
<polygon fill="midnightblue" stroke="midnightblue" points="495.51,-574.87 485.07,-573.1 492.13,-581 495.51,-574.87"/>
</g>
<!-- Node3 -->
<g id="node3" class="node">
<title>Node3</title>
<g id="a_node3"><a xlink:title=" ">
<polygon fill="white" stroke="#bfbfbf" points="816.5,-297 816.5,-316 890.5,-316 890.5,-297 816.5,-297"/>
<text text-anchor="middle" x="853.5" y="-304" font-family="Helvetica,sans-Serif" font-size="10.00">glm/vec3.hpp</text>
</a>
</g>
</g>
<!-- Node2&#45;&gt;Node3 -->
<g id="edge2" class="edge">
<title>Node2&#45;&gt;Node3</title>
<path fill="none" stroke="midnightblue" d="M789.25,-548.43C800.77,-505.23 835.63,-374.5 848.58,-325.93"/>
<polygon fill="midnightblue" stroke="midnightblue" points="852,-326.72 851.19,-316.16 845.23,-324.92 852,-326.72"/>
</g>
<!-- Node4 -->
<g id="node4" class="node">
<title>Node4</title>
<g id="a_node4"><a xlink:title=" ">
<polygon fill="white" stroke="#bfbfbf" points="1013.5,-235.5 1013.5,-254.5 1055.5,-254.5 1055.5,-235.5 1013.5,-235.5"/>
<text text-anchor="middle" x="1034.5" y="-242.5" font-family="Helvetica,sans-Serif" font-size="10.00">vector</text>
</a>
</g>
</g>
<!-- Node2&#45;&gt;Node4 -->
<g id="edge3" class="edge">
<title>Node2&#45;&gt;Node4</title>
<path fill="none" stroke="midnightblue" d="M840.6,-553.47C903.34,-540.37 1004.86,-510.11 1064.5,-445 1111.51,-393.68 1067.2,-301.74 1045.22,-263.46"/>
<polygon fill="midnightblue" stroke="midnightblue" points="1048.05,-261.38 1039.94,-254.56 1042.03,-264.94 1048.05,-261.38"/>
</g>
<!-- Node5 -->
<g id="node5" class="node">
<title>Node5</title>
<g id="a_node5"><a xlink:href="_shader_8h.html" target="_top" xlink:title=" ">
<polygon fill="white" stroke="black" points="639.5,-481.5 639.5,-511.5 749.5,-511.5 749.5,-481.5 639.5,-481.5"/>
<text text-anchor="start" x="647.5" y="-499.5" font-family="Helvetica,sans-Serif" font-size="10.00">kryne&#45;engine/Material</text>
<text text-anchor="middle" x="694.5" y="-488.5" font-family="Helvetica,sans-Serif" font-size="10.00">/Shader.h</text>
</a>
</g>
</g>
<!-- Node2&#45;&gt;Node5 -->
<g id="edge4" class="edge">
<title>Node2&#45;&gt;Node5</title>
<path fill="none" stroke="midnightblue" d="M765.75,-548.4C753.11,-539.37 736.52,-527.51 722.53,-517.52"/>
<polygon fill="midnightblue" stroke="midnightblue" points="724.38,-514.54 714.21,-511.58 720.31,-520.24 724.38,-514.54"/>
</g>
<!-- Node6 -->
<g id="node6" class="node">
<title>Node6</title>
<g id="a_node6"><a xlink:title=" ">
<polygon fill="white" stroke="#bfbfbf" points="677,-425.5 677,-444.5 712,-444.5 712,-425.5 677,-425.5"/>
<text text-anchor="middle" x="694.5" y="-432.5" font-family="Helvetica,sans-Serif" font-size="10.00">map</text>
</a>
</g>
</g>
<!-- Node5&#45;&gt;Node6 -->
<g id="edge5" class="edge">
<title>Node5&#45;&gt;Node6</title>
<path fill="none" stroke="midnightblue" d="M694.5,-481.4C694.5,-473.47 694.5,-463.46 694.5,-454.86"/>
<polygon fill="midnightblue" stroke="midnightblue" points="698,-454.66 694.5,-444.66 691,-454.66 698,-454.66"/>
</g>
<!-- Node7 -->
<g id="node7" class="node">
<title>Node7</title>
<g id="a_node7"><a xlink:title=" ">
<polygon fill="white" stroke="#bfbfbf" points="730.5,-425.5 730.5,-444.5 782.5,-444.5 782.5,-425.5 730.5,-425.5"/>
<text text-anchor="middle" x="756.5" y="-432.5" font-family="Helvetica,sans-Serif" font-size="10.00">sstream</text>
</a>
</g>
</g>
<!-- Node5&#45;&gt;Node7 -->
<g id="edge6" class="edge">
<title>Node5&#45;&gt;Node7</title>
<path fill="none" stroke="midnightblue" d="M709.19,-481.4C718.48,-472.49 730.5,-460.95 740.1,-451.74"/>
<polygon fill="midnightblue" stroke="midnightblue" points="742.69,-454.11 747.48,-444.66 737.84,-449.06 742.69,-454.11"/>
</g>
<!-- Node8 -->
<g id="node8" class="node">
<title>Node8</title>
<g id="a_node8"><a xlink:href="_dispatcher_8h.html" target="_top" xlink:title=" ">
<polygon fill="white" stroke="black" points="18,-291.5 18,-321.5 131,-321.5 131,-291.5 18,-291.5"/>
<text text-anchor="start" x="26" y="-309.5" font-family="Helvetica,sans-Serif" font-size="10.00">kryne&#45;engine/Dispatch</text>
<text text-anchor="middle" x="74.5" y="-298.5" font-family="Helvetica,sans-Serif" font-size="10.00">/Dispatcher.h</text>
</a>
</g>
</g>
<!-- Node5&#45;&gt;Node8 -->
<g id="edge7" class="edge">
<title>Node5&#45;&gt;Node8</title>
<path fill="none" stroke="midnightblue" d="M639.34,-487.7C550.72,-474.1 372.03,-442.32 228.5,-389 183.79,-372.39 135.73,-345.32 105.41,-326.98"/>
<polygon fill="midnightblue" stroke="midnightblue" points="106.95,-323.82 96.59,-321.59 103.3,-329.79 106.95,-323.82"/>
</g>
<!-- Node23 -->
<g id="node23" class="node">
<title>Node23</title>
<g id="a_node23"><a xlink:href="_uniforms_handler_8h.html" target="_top" xlink:title=" ">
<polygon fill="white" stroke="black" points="562.5,-425.5 562.5,-444.5 658.5,-444.5 658.5,-425.5 562.5,-425.5"/>
<text text-anchor="middle" x="610.5" y="-432.5" font-family="Helvetica,sans-Serif" font-size="10.00">UniformsHandler.h</text>
</a>
</g>
</g>
<!-- Node5&#45;&gt;Node23 -->
<g id="edge25" class="edge">
<title>Node5&#45;&gt;Node23</title>
<path fill="none" stroke="midnightblue" d="M674.59,-481.4C661.51,-472.13 644.42,-460.03 631.18,-450.65"/>
<polygon fill="midnightblue" stroke="midnightblue" points="632.91,-447.58 622.72,-444.66 628.86,-453.29 632.91,-447.58"/>
</g>
<!-- Node36 -->
<g id="node36" class="node">
<title>Node36</title>
<g id="a_node36"><a xlink:href="_shader_chunk_8h.html" target="_top" xlink:title=" ">
<polygon fill="white" stroke="black" points="972,-425.5 972,-444.5 1055,-444.5 1055,-425.5 972,-425.5"/>
<text text-anchor="middle" x="1013.5" y="-432.5" font-family="Helvetica,sans-Serif" font-size="10.00">ShaderChunk.h</text>
</a>
</g>
</g>
<!-- Node5&#45;&gt;Node36 -->
<g id="edge44" class="edge">
<title>Node5&#45;&gt;Node36</title>
<path fill="none" stroke="midnightblue" d="M749.7,-485.2C809.25,-474.1 903.35,-456.55 961.59,-445.68"/>
<polygon fill="midnightblue" stroke="midnightblue" points="962.49,-449.08 971.67,-443.8 961.2,-442.19 962.49,-449.08"/>
</g>
<!-- Node9 -->
<g id="node9" class="node">
<title>Node9</title>
<g id="a_node9"><a xlink:href="_synchronizable_pool_8h.html" target="_top" xlink:title=" ">
<polygon fill="white" stroke="black" points="47,-179.5 47,-198.5 158,-198.5 158,-179.5 47,-179.5"/>
<text text-anchor="middle" x="102.5" y="-186.5" font-family="Helvetica,sans-Serif" font-size="10.00">SynchronizablePool.h</text>
</a>
</g>
</g>
<!-- Node8&#45;&gt;Node9 -->
<g id="edge8" class="edge">
<title>Node8&#45;&gt;Node9</title>
<path fill="none" stroke="midnightblue" d="M77.93,-291.34C82.98,-270.53 92.4,-231.66 97.99,-208.58"/>
<polygon fill="midnightblue" stroke="midnightblue" points="101.44,-209.21 100.4,-198.67 94.64,-207.56 101.44,-209.21"/>
</g>
<!-- Node20 -->
<g id="node20" class="node">
<title>Node20</title>
<g id="a_node20"><a xlink:href="_runner_pool_8h.html" target="_top" xlink:title=" ">
<polygon fill="white" stroke="black" points="176,-179.5 176,-198.5 251,-198.5 251,-179.5 176,-179.5"/>
<text text-anchor="middle" x="213.5" y="-186.5" font-family="Helvetica,sans-Serif" font-size="10.00">RunnerPool.h</text>
</a>
</g>
</g>
<!-- Node8&#45;&gt;Node20 -->
<g id="edge19" class="edge">
<title>Node8&#45;&gt;Node20</title>
<path fill="none" stroke="midnightblue" d="M91.54,-291.34C117.84,-269.49 168.09,-227.73 195.15,-205.24"/>
<polygon fill="midnightblue" stroke="midnightblue" points="197.61,-207.75 203.07,-198.67 193.14,-202.37 197.61,-207.75"/>
</g>
<!-- Node21 -->
<g id="node21" class="node">
<title>Node21</title>
<g id="a_node21"><a xlink:href="_main_pool_8h.html" target="_top" xlink:title=" ">
<polygon fill="white" stroke="black" points="9,-235.5 9,-254.5 74,-254.5 74,-235.5 9,-235.5"/>
<text text-anchor="middle" x="41.5" y="-242.5" font-family="Helvetica,sans-Serif" font-size="10.00">MainPool.h</text>
</a>
</g>
</g>
<!-- Node8&#45;&gt;Node21 -->
<g id="edge21" class="edge">
<title>Node8&#45;&gt;Node21</title>
<path fill="none" stroke="midnightblue" d="M66.68,-291.4C62.03,-283.02 56.1,-272.33 51.16,-263.42"/>
<polygon fill="midnightblue" stroke="midnightblue" points="54.21,-261.71 46.3,-254.66 48.09,-265.1 54.21,-261.71"/>
</g>
<!-- Node10 -->
<g id="node10" class="node">
<title>Node10</title>
<g id="a_node10"><a xlink:href="_thread_pool_8h.html" target="_top" xlink:title=" ">
<polygon fill="white" stroke="black" points="176.5,-118 176.5,-137 250.5,-137 250.5,-118 176.5,-118"/>
<text text-anchor="middle" x="213.5" y="-125" font-family="Helvetica,sans-Serif" font-size="10.00">ThreadPool.h</text>
</a>
</g>
</g>
<!-- Node9&#45;&gt;Node10 -->
<g id="edge9" class="edge">
<title>Node9&#45;&gt;Node10</title>
<path fill="none" stroke="midnightblue" d="M118.4,-179.48C136.78,-169.62 167.26,-153.29 188.74,-141.77"/>
<polygon fill="midnightblue" stroke="midnightblue" points="190.47,-144.82 197.63,-137.01 187.16,-138.65 190.47,-144.82"/>
</g>
<!-- Node11 -->
<g id="node11" class="node">
<title>Node11</title>
<g id="a_node11"><a xlink:title=" ">
<polygon fill="white" stroke="#bfbfbf" points="257.5,-56.5 257.5,-75.5 301.5,-75.5 301.5,-56.5 257.5,-56.5"/>
<text text-anchor="middle" x="279.5" y="-63.5" font-family="Helvetica,sans-Serif" font-size="10.00">thread</text>
</a>
</g>
</g>
<!-- Node10&#45;&gt;Node11 -->
<g id="edge10" class="edge">
<title>Node10&#45;&gt;Node11</title>
<path fill="none" stroke="midnightblue" d="M222.96,-117.98C233.25,-108.7 249.92,-93.67 262.49,-82.33"/>
<polygon fill="midnightblue" stroke="midnightblue" points="264.98,-84.8 270.06,-75.51 260.29,-79.61 264.98,-84.8"/>
</g>
<!-- Node12 -->
<g id="node12" class="node">
<title>Node12</title>
<g id="a_node12"><a xlink:title=" ">
<polygon fill="white" stroke="#bfbfbf" points="42.5,-56.5 42.5,-75.5 86.5,-75.5 86.5,-56.5 42.5,-56.5"/>
<text text-anchor="middle" x="64.5" y="-63.5" font-family="Helvetica,sans-Serif" font-size="10.00">mutex</text>
</a>
</g>
</g>
<!-- Node10&#45;&gt;Node12 -->
<g id="edge11" class="edge">
<title>Node10&#45;&gt;Node12</title>
<path fill="none" stroke="midnightblue" d="M192.15,-117.98C166.81,-107.86 124.36,-90.9 95.43,-79.35"/>
<polygon fill="midnightblue" stroke="midnightblue" points="96.39,-75.97 85.81,-75.51 93.8,-82.47 96.39,-75.97"/>
</g>
<!-- Node13 -->
<g id="node13" class="node">
<title>Node13</title>
<g id="a_node13"><a xlink:title=" ">
<polygon fill="white" stroke="#bfbfbf" points="320,-56.5 320,-75.5 413,-75.5 413,-56.5 320,-56.5"/>
<text text-anchor="middle" x="366.5" y="-63.5" font-family="Helvetica,sans-Serif" font-size="10.00">condition_variable</text>
</a>
</g>
</g>
<!-- Node10&#45;&gt;Node13 -->
<g id="edge12" class="edge">
<title>Node10&#45;&gt;Node13</title>
<path fill="none" stroke="midnightblue" d="M235.42,-117.98C261.55,-107.81 305.41,-90.76 335.13,-79.2"/>
<polygon fill="midnightblue" stroke="midnightblue" points="336.57,-82.4 344.62,-75.51 334.03,-75.87 336.57,-82.4"/>
</g>
<!-- Node14 -->
<g id="node14" class="node">
<title>Node14</title>
<g id="a_node14"><a xlink:title=" ">
<polygon fill="white" stroke="#bfbfbf" points="113,-56.5 113,-75.5 154,-75.5 154,-56.5 113,-56.5"/>
<text text-anchor="middle" x="133.5" y="-63.5" font-family="Helvetica,sans-Serif" font-size="10.00">future</text>
</a>
</g>
</g>
<!-- Node10&#45;&gt;Node14 -->
<g id="edge13" class="edge">
<title>Node10&#45;&gt;Node14</title>
<path fill="none" stroke="midnightblue" d="M202.04,-117.98C189.33,-108.52 168.59,-93.1 153.25,-81.69"/>
<polygon fill="midnightblue" stroke="midnightblue" points="155.05,-78.67 144.94,-75.51 150.88,-84.29 155.05,-78.67"/>
</g>
<!-- Node15 -->
<g id="node15" class="node">
<title>Node15</title>
<g id="a_node15"><a xlink:title=" ">
<polygon fill="white" stroke="#bfbfbf" points="1066.5,-56.5 1066.5,-75.5 1118.5,-75.5 1118.5,-56.5 1066.5,-56.5"/>
<text text-anchor="middle" x="1092.5" y="-63.5" font-family="Helvetica,sans-Serif" font-size="10.00">memory</text>
</a>
</g>
</g>
<!-- Node10&#45;&gt;Node15 -->
<g id="edge14" class="edge">
<title>Node10&#45;&gt;Node15</title>
<path fill="none" stroke="midnightblue" d="M250.71,-123.98C394.5,-114.25 912.92,-79.16 1055.81,-69.48"/>
<polygon fill="midnightblue" stroke="midnightblue" points="1056.46,-72.95 1066.2,-68.78 1055.98,-65.96 1056.46,-72.95"/>
</g>
<!-- Node16 -->
<g id="node16" class="node">
<title>Node16</title>
<g id="a_node16"><a xlink:title=" ">
<polygon fill="white" stroke="#bfbfbf" points="794.5,-56.5 794.5,-75.5 848.5,-75.5 848.5,-56.5 794.5,-56.5"/>
<text text-anchor="middle" x="821.5" y="-63.5" font-family="Helvetica,sans-Serif" font-size="10.00">iostream</text>
</a>
</g>
</g>
<!-- Node10&#45;&gt;Node16 -->
<g id="edge15" class="edge">
<title>Node10&#45;&gt;Node16</title>
<path fill="none" stroke="midnightblue" d="M240.26,-117.98C248.3,-115.71 257.2,-113.48 265.5,-112 458.58,-77.59 694.13,-69.46 784.12,-67.57"/>
<polygon fill="midnightblue" stroke="midnightblue" points="784.43,-71.06 794.36,-67.36 784.29,-64.06 784.43,-71.06"/>
</g>
<!-- Node17 -->
<g id="node17" class="node">
<title>Node17</title>
<g id="a_node17"><a xlink:href="_base_pool_8h.html" target="_top" xlink:title=" ">
<polygon fill="white" stroke="black" points="172,-56.5 172,-75.5 239,-75.5 239,-56.5 172,-56.5"/>
<text text-anchor="middle" x="205.5" y="-63.5" font-family="Helvetica,sans-Serif" font-size="10.00">BasePool.h</text>
</a>
</g>
</g>
<!-- Node10&#45;&gt;Node17 -->
<g id="edge16" class="edge">
<title>Node10&#45;&gt;Node17</title>
<path fill="none" stroke="midnightblue" d="M212.35,-117.98C211.23,-109.58 209.46,-96.48 208.01,-85.66"/>
<polygon fill="midnightblue" stroke="midnightblue" points="211.45,-84.95 206.64,-75.51 204.51,-85.89 211.45,-84.95"/>
</g>
<!-- Node18 -->
<g id="node18" class="node">
<title>Node18</title>
<g id="a_node18"><a xlink:title=" ">
<polygon fill="white" stroke="#bfbfbf" points="150,-0.5 150,-19.5 193,-19.5 193,-0.5 150,-0.5"/>
<text text-anchor="middle" x="171.5" y="-7.5" font-family="Helvetica,sans-Serif" font-size="10.00">queue</text>
</a>
</g>
</g>
<!-- Node17&#45;&gt;Node18 -->
<g id="edge17" class="edge">
<title>Node17&#45;&gt;Node18</title>
<path fill="none" stroke="midnightblue" d="M199.89,-56.08C195.13,-48.53 188.18,-37.49 182.35,-28.23"/>
<polygon fill="midnightblue" stroke="midnightblue" points="185.3,-26.35 177.01,-19.75 179.38,-30.08 185.3,-26.35"/>
</g>
<!-- Node19 -->
<g id="node19" class="node">
<title>Node19</title>
<g id="a_node19"><a xlink:title=" ">
<polygon fill="white" stroke="#bfbfbf" points="211.5,-0.5 211.5,-19.5 269.5,-19.5 269.5,-0.5 211.5,-0.5"/>
<text text-anchor="middle" x="240.5" y="-7.5" font-family="Helvetica,sans-Serif" font-size="10.00">functional</text>
</a>
</g>
</g>
<!-- Node17&#45;&gt;Node19 -->
<g id="edge18" class="edge">
<title>Node17&#45;&gt;Node19</title>
<path fill="none" stroke="midnightblue" d="M211.28,-56.08C216.17,-48.53 223.33,-37.49 229.33,-28.23"/>
<polygon fill="midnightblue" stroke="midnightblue" points="232.33,-30.05 234.83,-19.75 226.45,-26.24 232.33,-30.05"/>
</g>
<!-- Node20&#45;&gt;Node10 -->
<g id="edge20" class="edge">
<title>Node20&#45;&gt;Node10</title>
<path fill="none" stroke="midnightblue" d="M213.5,-179.48C213.5,-171.08 213.5,-157.98 213.5,-147.16"/>
<polygon fill="midnightblue" stroke="midnightblue" points="217,-147.01 213.5,-137.01 210,-147.01 217,-147.01"/>
</g>
<!-- Node21&#45;&gt;Node9 -->
<g id="edge24" class="edge">
<title>Node21&#45;&gt;Node9</title>
<path fill="none" stroke="midnightblue" d="M51.3,-235.32C60.32,-227.34 73.91,-215.31 84.82,-205.65"/>
<polygon fill="midnightblue" stroke="midnightblue" points="87.35,-208.08 92.52,-198.83 82.71,-202.84 87.35,-208.08"/>
</g>
<!-- Node22 -->
<g id="node22" class="node">
<title>Node22</title>
<g id="a_node22"><a xlink:href="_multithreading_8hpp.html" target="_top" xlink:title=" ">
<polygon fill="white" stroke="black" points="0,-112.5 0,-142.5 99,-142.5 99,-112.5 0,-112.5"/>
<text text-anchor="start" x="8" y="-130.5" font-family="Helvetica,sans-Serif" font-size="10.00">kryne&#45;engine/Utils</text>
<text text-anchor="middle" x="49.5" y="-119.5" font-family="Helvetica,sans-Serif" font-size="10.00">/Multithreading.hpp</text>
</a>
</g>
</g>
<!-- Node21&#45;&gt;Node22 -->
<g id="edge22" class="edge">
<title>Node21&#45;&gt;Node22</title>
<path fill="none" stroke="midnightblue" d="M40.51,-235.39C39.52,-226.34 38.06,-211.69 37.5,-199 37.11,-190.12 36.47,-187.83 37.5,-179 38.52,-170.32 40.49,-160.96 42.54,-152.69"/>
<polygon fill="midnightblue" stroke="midnightblue" points="45.95,-153.49 45.12,-142.92 39.18,-151.7 45.95,-153.49"/>
</g>
<!-- Node22&#45;&gt;Node12 -->
<g id="edge23" class="edge">
<title>Node22&#45;&gt;Node12</title>
<path fill="none" stroke="midnightblue" d="M53.05,-112.4C55.08,-104.38 57.63,-94.23 59.82,-85.57"/>
<polygon fill="midnightblue" stroke="midnightblue" points="63.27,-86.21 62.32,-75.66 56.48,-84.5 63.27,-86.21"/>
</g>
<!-- Node24 -->
<g id="node24" class="node">
<title>Node24</title>
<g id="a_node24"><a xlink:title=" ">
<polygon fill="white" stroke="#bfbfbf" points="909,-297 909,-316 950,-316 950,-297 909,-297"/>
<text text-anchor="middle" x="929.5" y="-304" font-family="Helvetica,sans-Serif" font-size="10.00">string</text>
</a>
</g>
</g>
<!-- Node23&#45;&gt;Node24 -->
<g id="edge26" class="edge">
<title>Node23&#45;&gt;Node24</title>
<path fill="none" stroke="midnightblue" d="M653.15,-425.47C687.65,-417.88 737.11,-405.45 778.5,-389 826.5,-369.92 878.75,-339.3 907.48,-321.52"/>
<polygon fill="midnightblue" stroke="midnightblue" points="909.65,-324.29 916.27,-316.02 905.94,-318.35 909.65,-324.29"/>
</g>
<!-- Node25 -->
<g id="node25" class="node">
<title>Node25</title>
<g id="a_node25"><a xlink:title=" ">
<polygon fill="white" stroke="#bfbfbf" points="884,-364 884,-383 967,-383 967,-364 884,-364"/>
<text text-anchor="middle" x="925.5" y="-371" font-family="Helvetica,sans-Serif" font-size="10.00">unordered_map</text>
</a>
</g>
</g>
<!-- Node23&#45;&gt;Node25 -->
<g id="edge27" class="edge">
<title>Node23&#45;&gt;Node25</title>
<path fill="none" stroke="midnightblue" d="M658.53,-426.14C721.93,-415.67 830.13,-397.5 869.5,-389 874.47,-387.93 879.65,-386.71 884.78,-385.45"/>
<polygon fill="midnightblue" stroke="midnightblue" points="885.66,-388.84 894.51,-383.01 883.95,-382.05 885.66,-388.84"/>
</g>
<!-- Node26 -->
<g id="node26" class="node">
<title>Node26</title>
<g id="a_node26"><a xlink:title=" ">
<polygon fill="white" stroke="#bfbfbf" points="187.5,-297 187.5,-316 251.5,-316 251.5,-297 187.5,-297"/>
<text text-anchor="middle" x="219.5" y="-304" font-family="Helvetica,sans-Serif" font-size="10.00">glad/glad.h</text>
</a>
</g>
</g>
<!-- Node23&#45;&gt;Node26 -->
<g id="edge28" class="edge">
<title>Node23&#45;&gt;Node26</title>
<path fill="none" stroke="midnightblue" d="M562.37,-430.53C471.07,-423.56 279.66,-407.01 255.5,-389 235.28,-373.93 226.22,-345.01 222.3,-325.98"/>
<polygon fill="midnightblue" stroke="midnightblue" points="225.74,-325.34 220.54,-316.11 218.85,-326.57 225.74,-325.34"/>
</g>
<!-- Node27 -->
<g id="node27" class="node">
<title>Node27</title>
<g id="a_node27"><a xlink:title=" ">
<polygon fill="white" stroke="#bfbfbf" points="720.5,-297 720.5,-316 798.5,-316 798.5,-297 720.5,-297"/>
<text text-anchor="middle" x="759.5" y="-304" font-family="Helvetica,sans-Serif" font-size="10.00">GLFW/glfw3.h</text>
</a>
</g>
</g>
<!-- Node23&#45;&gt;Node27 -->
<g id="edge29" class="edge">
<title>Node23&#45;&gt;Node27</title>
<path fill="none" stroke="midnightblue" d="M658.55,-425.96C697.6,-418.33 748.17,-405.58 760.5,-389 773.93,-370.95 770.29,-343.88 765.61,-325.96"/>
<polygon fill="midnightblue" stroke="midnightblue" points="768.9,-324.74 762.7,-316.15 762.18,-326.73 768.9,-324.74"/>
</g>
<!-- Node28 -->
<g id="node28" class="node">
<title>Node28</title>
<g id="a_node28"><a xlink:title=" ">
<polygon fill="white" stroke="#bfbfbf" points="665.5,-364 665.5,-383 751.5,-383 751.5,-364 665.5,-364"/>
<text text-anchor="middle" x="708.5" y="-371" font-family="Helvetica,sans-Serif" font-size="10.00">glm/mat4x4.hpp</text>
</a>
</g>
</g>
<!-- Node23&#45;&gt;Node28 -->
<g id="edge30" class="edge">
<title>Node23&#45;&gt;Node28</title>
<path fill="none" stroke="midnightblue" d="M624.54,-425.48C640.55,-415.75 666.95,-399.73 685.87,-388.24"/>
<polygon fill="midnightblue" stroke="midnightblue" points="687.75,-391.19 694.49,-383.01 684.12,-385.21 687.75,-391.19"/>
</g>
<!-- Node29 -->
<g id="node29" class="node">
<title>Node29</title>
<g id="a_node29"><a xlink:title=" ">
<polygon fill="white" stroke="#bfbfbf" points="433.5,-364 433.5,-383 539.5,-383 539.5,-364 433.5,-364"/>
<text text-anchor="middle" x="486.5" y="-371" font-family="Helvetica,sans-Serif" font-size="10.00">glm/gtc/type_ptr.hpp</text>
</a>
</g>
</g>
<!-- Node23&#45;&gt;Node29 -->
<g id="edge31" class="edge">
<title>Node23&#45;&gt;Node29</title>
<path fill="none" stroke="midnightblue" d="M592.73,-425.48C572.02,-415.53 537.55,-398.99 513.51,-387.46"/>
<polygon fill="midnightblue" stroke="midnightblue" points="514.76,-384.18 504.23,-383.01 511.73,-390.49 514.76,-384.18"/>
</g>
<!-- Node30 -->
<g id="node30" class="node">
<title>Node30</title>
<g id="a_node30"><a xlink:title=" ">
<polygon fill="white" stroke="#bfbfbf" points="557.5,-364 557.5,-383 647.5,-383 647.5,-364 557.5,-364"/>
<text text-anchor="middle" x="602.5" y="-371" font-family="Helvetica,sans-Serif" font-size="10.00">boost/variant.hpp</text>
</a>
</g>
</g>
<!-- Node23&#45;&gt;Node30 -->
<g id="edge32" class="edge">
<title>Node23&#45;&gt;Node30</title>
<path fill="none" stroke="midnightblue" d="M609.35,-425.48C608.23,-417.08 606.46,-403.98 605.01,-393.16"/>
<polygon fill="midnightblue" stroke="midnightblue" points="608.45,-392.45 603.64,-383.01 601.51,-393.39 608.45,-392.45"/>
</g>
<!-- Node31 -->
<g id="node31" class="node">
<title>Node31</title>
<g id="a_node31"><a xlink:href="_texture_8h.html" target="_top" xlink:title=" ">
<polygon fill="white" stroke="black" points="264,-358.5 264,-388.5 377,-388.5 377,-358.5 264,-358.5"/>
<text text-anchor="start" x="272" y="-376.5" font-family="Helvetica,sans-Serif" font-size="10.00">kryne&#45;engine/Textures</text>
<text text-anchor="middle" x="320.5" y="-365.5" font-family="Helvetica,sans-Serif" font-size="10.00">/Texture.h</text>
</a>
</g>
</g>
<!-- Node23&#45;&gt;Node31 -->
<g id="edge33" class="edge">
<title>Node23&#45;&gt;Node31</title>
<path fill="none" stroke="midnightblue" d="M568.95,-425.48C521.45,-415.73 443.04,-399.64 387.02,-388.15"/>
<polygon fill="midnightblue" stroke="midnightblue" points="387.68,-384.71 377.18,-386.13 386.27,-391.57 387.68,-384.71"/>
</g>
<!-- Node31&#45;&gt;Node3 -->
<g id="edge40" class="edge">
<title>Node31&#45;&gt;Node3</title>
<path fill="none" stroke="midnightblue" d="M377.37,-360.29C382.13,-359.44 386.89,-358.67 391.5,-358 575.16,-331.39 625.47,-358.11 807.5,-322 811.66,-321.18 815.97,-320.11 820.21,-318.93"/>
<polygon fill="midnightblue" stroke="midnightblue" points="821.31,-322.26 829.88,-316.03 819.3,-315.55 821.31,-322.26"/>
</g>
<!-- Node31&#45;&gt;Node8 -->
<g id="edge43" class="edge">
<title>Node31&#45;&gt;Node8</title>
<path fill="none" stroke="midnightblue" d="M267.42,-358.48C229.32,-348.41 177.82,-334.8 137.61,-324.17"/>
<polygon fill="midnightblue" stroke="midnightblue" points="138.47,-320.78 127.9,-321.61 136.68,-327.55 138.47,-320.78"/>
</g>
<!-- Node31&#45;&gt;Node16 -->
<g id="edge36" class="edge">
<title>Node31&#45;&gt;Node16</title>
<path fill="none" stroke="midnightblue" d="M312.59,-358.19C300.68,-335.24 279.5,-288.48 279.5,-246 279.5,-246 279.5,-246 279.5,-188 279.5,-84.36 661.74,-69.46 784.22,-67.34"/>
<polygon fill="midnightblue" stroke="midnightblue" points="784.31,-70.84 794.25,-67.19 784.2,-63.84 784.31,-70.84"/>
</g>
<!-- Node31&#45;&gt;Node24 -->
<g id="edge35" class="edge">
<title>Node31&#45;&gt;Node24</title>
<path fill="none" stroke="midnightblue" d="M377.09,-363.95C392.45,-361.81 409.09,-359.66 424.5,-358 635,-335.37 695.06,-377.03 899.5,-322 901.43,-321.48 903.38,-320.84 905.32,-320.12"/>
<polygon fill="midnightblue" stroke="midnightblue" points="906.91,-323.24 914.67,-316.02 904.1,-316.83 906.91,-323.24"/>
</g>
<!-- Node31&#45;&gt;Node26 -->
<g id="edge41" class="edge">
<title>Node31&#45;&gt;Node26</title>
<path fill="none" stroke="midnightblue" d="M298.58,-358.4C281.65,-347.5 258.31,-332.48 241.38,-321.58"/>
<polygon fill="midnightblue" stroke="midnightblue" points="243.02,-318.48 232.72,-316.01 239.23,-324.36 243.02,-318.48"/>
</g>
<!-- Node31&#45;&gt;Node27 -->
<g id="edge42" class="edge">
<title>Node31&#45;&gt;Node27</title>
<path fill="none" stroke="midnightblue" d="M377.38,-360.42C382.15,-359.55 386.9,-358.73 391.5,-358 532.86,-335.66 571.31,-350.81 711.5,-322 715.72,-321.13 720.1,-320.06 724.43,-318.89"/>
<polygon fill="midnightblue" stroke="midnightblue" points="725.67,-322.18 734.31,-316.05 723.73,-315.45 725.67,-322.18"/>
</g>
<!-- Node32 -->
<g id="node32" class="node">
<title>Node32</title>
<g id="a_node32"><a xlink:title=" ">
<polygon fill="white" stroke="#bfbfbf" points="399.5,-297 399.5,-316 469.5,-316 469.5,-297 399.5,-297"/>
<text text-anchor="middle" x="434.5" y="-304" font-family="Helvetica,sans-Serif" font-size="10.00">stb_image.h</text>
</a>
</g>
</g>
<!-- Node31&#45;&gt;Node32 -->
<g id="edge34" class="edge">
<title>Node31&#45;&gt;Node32</title>
<path fill="none" stroke="midnightblue" d="M345.24,-358.4C364.71,-347.29 391.67,-331.92 410.85,-320.98"/>
<polygon fill="midnightblue" stroke="midnightblue" points="412.63,-324 419.58,-316.01 409.16,-317.92 412.63,-324"/>
</g>
<!-- Node33 -->
<g id="node33" class="node">
<title>Node33</title>
<g id="a_node33"><a xlink:title=" ">
<polygon fill="white" stroke="#bfbfbf" points="488,-297 488,-316 595,-316 595,-297 488,-297"/>
<text text-anchor="middle" x="541.5" y="-304" font-family="Helvetica,sans-Serif" font-size="10.00">boost/filesystem.hpp</text>
</a>
</g>
</g>
<!-- Node31&#45;&gt;Node33 -->
<g id="edge37" class="edge">
<title>Node31&#45;&gt;Node33</title>
<path fill="none" stroke="midnightblue" d="M368.18,-358.48C408.31,-346.67 465,-330 502.47,-318.98"/>
<polygon fill="midnightblue" stroke="midnightblue" points="503.9,-322.21 512.5,-316.03 501.92,-315.49 503.9,-322.21"/>
</g>
<!-- Node34 -->
<g id="node34" class="node">
<title>Node34</title>
<g id="a_node34"><a xlink:title=" ">
<polygon fill="white" stroke="#bfbfbf" points="613,-297 613,-316 702,-316 702,-297 613,-297"/>
<text text-anchor="middle" x="657.5" y="-304" font-family="Helvetica,sans-Serif" font-size="10.00">boost/format.hpp</text>
</a>
</g>
</g>
<!-- Node31&#45;&gt;Node34 -->
<g id="edge38" class="edge">
<title>Node31&#45;&gt;Node34</title>
<path fill="none" stroke="midnightblue" d="M377.05,-360.77C381.93,-359.81 386.8,-358.88 391.5,-358 485.88,-340.39 510.75,-342.69 604.5,-322 609.15,-320.97 613.99,-319.8 618.79,-318.57"/>
<polygon fill="midnightblue" stroke="midnightblue" points="619.7,-321.95 628.47,-316 617.91,-315.18 619.7,-321.95"/>
</g>
<!-- Node35 -->
<g id="node35" class="node">
<title>Node35</title>
<g id="a_node35"><a xlink:title=" ">
<polygon fill="white" stroke="#bfbfbf" points="307.5,-297 307.5,-316 381.5,-316 381.5,-297 307.5,-297"/>
<text text-anchor="middle" x="344.5" y="-304" font-family="Helvetica,sans-Serif" font-size="10.00">glm/vec2.hpp</text>
</a>
</g>
</g>
<!-- Node31&#45;&gt;Node35 -->
<g id="edge39" class="edge">
<title>Node31&#45;&gt;Node35</title>
<path fill="none" stroke="midnightblue" d="M325.71,-358.4C329.23,-348.86 333.91,-336.18 337.72,-325.86"/>
<polygon fill="midnightblue" stroke="midnightblue" points="341.11,-326.79 341.29,-316.19 334.54,-324.36 341.11,-326.79"/>
</g>
<!-- Node36&#45;&gt;Node16 -->
<g id="edge48" class="edge">
<title>Node36&#45;&gt;Node16</title>
<path fill="none" stroke="midnightblue" d="M1055.11,-430.82C1111.88,-425.63 1209.44,-413.36 1234.5,-389 1261.17,-363.07 1253.5,-344.69 1253.5,-307.5 1253.5,-307.5 1253.5,-307.5 1253.5,-188 1253.5,-106.3 963.37,-77.24 858.64,-69.42"/>
<polygon fill="midnightblue" stroke="midnightblue" points="858.75,-65.92 848.52,-68.69 858.24,-72.9 858.75,-65.92"/>
</g>
<!-- Node36&#45;&gt;Node24 -->
<g id="edge46" class="edge">
<title>Node36&#45;&gt;Node24</title>
<path fill="none" stroke="midnightblue" d="M1010.18,-425.11C1004.48,-410.43 991.94,-380.51 976.5,-358 967.82,-345.35 956.05,-332.71 946.47,-323.24"/>
<polygon fill="midnightblue" stroke="midnightblue" points="948.68,-320.51 939.04,-316.1 943.83,-325.56 948.68,-320.51"/>
</g>
<!-- Node36&#45;&gt;Node25 -->
<g id="edge45" class="edge">
<title>Node36&#45;&gt;Node25</title>
<path fill="none" stroke="midnightblue" d="M1000.89,-425.48C986.78,-415.93 963.67,-400.31 946.75,-388.87"/>
<polygon fill="midnightblue" stroke="midnightblue" points="948.33,-385.71 938.08,-383.01 944.41,-391.51 948.33,-385.71"/>
</g>
<!-- Node37 -->
<g id="node37" class="node">
<title>Node37</title>
<g id="a_node37"><a xlink:title=" ">
<polygon fill="white" stroke="#bfbfbf" points="1024,-364 1024,-383 1073,-383 1073,-364 1024,-364"/>
<text text-anchor="middle" x="1048.5" y="-371" font-family="Helvetica,sans-Serif" font-size="10.00">fstream</text>
</a>
</g>
</g>
<!-- Node36&#45;&gt;Node37 -->
<g id="edge47" class="edge">
<title>Node36&#45;&gt;Node37</title>
<path fill="none" stroke="midnightblue" d="M1018.51,-425.48C1023.66,-416.73 1031.81,-402.87 1038.32,-391.81"/>
<polygon fill="midnightblue" stroke="midnightblue" points="1041.44,-393.4 1043.49,-383.01 1035.41,-389.85 1041.44,-393.4"/>
</g>
<!-- Node38 -->
<g id="node38" class="node">
<title>Node38</title>
<g id="a_node38"><a xlink:href="kryne-engine_2_utils_2_utils_8h.html" target="_top" xlink:title=" ">
<polygon fill="white" stroke="black" points="1130,-358.5 1130,-388.5 1225,-388.5 1225,-358.5 1130,-358.5"/>
<text text-anchor="start" x="1138" y="-376.5" font-family="Helvetica,sans-Serif" font-size="10.00">kryne&#45;engine/Utils</text>
<text text-anchor="middle" x="1177.5" y="-365.5" font-family="Helvetica,sans-Serif" font-size="10.00">/Utils.h</text>
</a>
</g>
</g>
<!-- Node36&#45;&gt;Node38 -->
<g id="edge49" class="edge">
<title>Node36&#45;&gt;Node38</title>
<path fill="none" stroke="midnightblue" d="M1037,-425.48C1060.97,-416.78 1098.87,-403.03 1129.27,-392"/>
<polygon fill="midnightblue" stroke="midnightblue" points="1130.64,-395.22 1138.85,-388.52 1128.25,-388.64 1130.64,-395.22"/>
</g>
<!-- Node39 -->
<g id="node39" class="node">
<title>Node39</title>
<g id="a_node39"><a xlink:href="_string_utils_8hpp.html" target="_top" xlink:title=" ">
<polygon fill="white" stroke="black" points="963.5,-118 963.5,-137 1043.5,-137 1043.5,-118 963.5,-118"/>
<text text-anchor="middle" x="1003.5" y="-125" font-family="Helvetica,sans-Serif" font-size="10.00">StringUtils.hpp</text>
</a>
</g>
</g>
<!-- Node38&#45;&gt;Node39 -->
<g id="edge50" class="edge">
<title>Node38&#45;&gt;Node39</title>
<path fill="none" stroke="midnightblue" d="M1184.88,-358.49C1197.57,-332.27 1220.02,-274.84 1196.5,-235 1165.33,-182.19 1097.56,-153.77 1051.22,-139.89"/>
<polygon fill="midnightblue" stroke="midnightblue" points="1051.97,-136.46 1041.39,-137.07 1050.04,-143.19 1051.97,-136.46"/>
</g>
<!-- Node40 -->
<g id="node40" class="node">
<title>Node40</title>
<g id="a_node40"><a xlink:href="_vector_mapping_8hpp.html" target="_top" xlink:title=" ">
<polygon fill="white" stroke="black" points="1086,-297 1086,-316 1187,-316 1187,-297 1086,-297"/>
<text text-anchor="middle" x="1136.5" y="-304" font-family="Helvetica,sans-Serif" font-size="10.00">VectorMapping.hpp</text>
</a>
</g>
</g>
<!-- Node38&#45;&gt;Node40 -->
<g id="edge52" class="edge">
<title>Node38&#45;&gt;Node40</title>
<path fill="none" stroke="midnightblue" d="M1168.6,-358.4C1162.4,-348.56 1154.08,-335.38 1147.47,-324.89"/>
<polygon fill="midnightblue" stroke="midnightblue" points="1150.28,-322.79 1141.98,-316.19 1144.36,-326.52 1150.28,-322.79"/>
</g>
<!-- Node39&#45;&gt;Node16 -->
<g id="edge51" class="edge">
<title>Node39&#45;&gt;Node16</title>
<path fill="none" stroke="midnightblue" d="M977.42,-117.98C945.93,-107.68 892.8,-90.31 857.44,-78.75"/>
<polygon fill="midnightblue" stroke="midnightblue" points="858.12,-75.29 847.53,-75.51 855.95,-81.94 858.12,-75.29"/>
</g>
<!-- Node40&#45;&gt;Node4 -->
<g id="edge53" class="edge">
<title>Node40&#45;&gt;Node4</title>
<path fill="none" stroke="midnightblue" d="M1121.89,-296.98C1105.15,-287.21 1077.5,-271.08 1057.78,-259.58"/>
<polygon fill="midnightblue" stroke="midnightblue" points="1059.49,-256.52 1049.09,-254.51 1055.96,-262.57 1059.49,-256.52"/>
</g>
<!-- Node41 -->
<g id="node41" class="node">
<title>Node41</title>
<g id="a_node41"><a xlink:title=" ">
<polygon fill="white" stroke="#bfbfbf" points="1074,-235.5 1074,-254.5 1187,-254.5 1187,-235.5 1074,-235.5"/>
<text text-anchor="middle" x="1130.5" y="-242.5" font-family="Helvetica,sans-Serif" font-size="10.00">glm/detail/qualifier.hpp</text>
</a>
</g>
</g>
<!-- Node40&#45;&gt;Node41 -->
<g id="edge54" class="edge">
<title>Node40&#45;&gt;Node41</title>
<path fill="none" stroke="midnightblue" d="M1135.64,-296.98C1134.79,-288.58 1133.47,-275.48 1132.38,-264.66"/>
<polygon fill="midnightblue" stroke="midnightblue" points="1135.84,-264.11 1131.36,-254.51 1128.88,-264.81 1135.84,-264.11"/>
</g>
<!-- Node42&#45;&gt;Node2 -->
<g id="edge57" class="edge">
<title>Node42&#45;&gt;Node2</title>
<path fill="none" stroke="midnightblue" d="M725.21,-615.4C735.7,-606.54 749.42,-594.96 761.11,-585.09"/>
<polygon fill="midnightblue" stroke="midnightblue" points="763.44,-587.7 768.82,-578.58 758.93,-582.35 763.44,-587.7"/>
</g>
<!-- Node42&#45;&gt;Node15 -->
<g id="edge56" class="edge">
<title>Node42&#45;&gt;Node15</title>
<path fill="none" stroke="midnightblue" d="M757.7,-628.81C898.26,-625.53 1291.5,-606.6 1291.5,-497.5 1291.5,-497.5 1291.5,-497.5 1291.5,-188 1291.5,-112.63 1186,-82.87 1128.63,-72.26"/>
<polygon fill="midnightblue" stroke="midnightblue" points="1128.97,-68.76 1118.52,-70.49 1127.77,-75.66 1128.97,-68.76"/>
</g>
<!-- Node42&#45;&gt;Node43 -->
<g id="edge58" class="edge">
<title>Node42&#45;&gt;Node43</title>
<path fill="none" stroke="midnightblue" d="M659.27,-616.11C615.34,-604.16 551.75,-586.87 510.52,-575.66"/>
<polygon fill="midnightblue" stroke="midnightblue" points="511.37,-572.26 500.8,-573.01 509.53,-579.01 511.37,-572.26"/>
</g>
<!-- Node43&#45;&gt;Node3 -->
<g id="edge59" class="edge">
<title>Node43&#45;&gt;Node3</title>
<path fill="none" stroke="midnightblue" d="M462.99,-553.77C440.65,-522.71 371.39,-416.33 424.5,-358 482.05,-294.79 723.71,-338.94 807.5,-322 811.45,-321.2 815.54,-320.19 819.58,-319.08"/>
<polygon fill="midnightblue" stroke="midnightblue" points="820.82,-322.36 829.4,-316.15 818.82,-315.65 820.82,-322.36"/>
</g>
<!-- Node43&#45;&gt;Node4 -->
<g id="edge61" class="edge">
<title>Node43&#45;&gt;Node4</title>
<path fill="none" stroke="midnightblue" d="M427.69,-554.56C343.08,-537.3 159.5,-493.26 159.5,-436 159.5,-436 159.5,-436 159.5,-372.5 159.5,-335.31 149.98,-314.88 178.5,-291 210.71,-264.03 852.32,-249.62 1003.01,-246.6"/>
<polygon fill="midnightblue" stroke="midnightblue" points="1003.46,-250.1 1013.39,-246.4 1003.32,-243.1 1003.46,-250.1"/>
</g>
<!-- Node43&#45;&gt;Node5 -->
<g id="edge60" class="edge">
<title>Node43&#45;&gt;Node5</title>
<path fill="none" stroke="midnightblue" d="M499.38,-553.87C534.16,-543.82 592.44,-526.99 636.26,-514.32"/>
<polygon fill="midnightblue" stroke="midnightblue" points="637.31,-517.67 645.94,-511.53 635.36,-510.94 637.31,-517.67"/>
</g>
<!-- Node44 -->
<g id="node44" class="node">
<title>Node44</title>
<g id="a_node44"><a xlink:title=" ">
<polygon fill="white" stroke="#bfbfbf" points="75.5,-487 75.5,-506 131.5,-506 131.5,-487 75.5,-487"/>
<text text-anchor="middle" x="103.5" y="-494" font-family="Helvetica,sans-Serif" font-size="10.00">algorithm</text>
</a>
</g>
</g>
<!-- Node43&#45;&gt;Node44 -->
<g id="edge62" class="edge">
<title>Node43&#45;&gt;Node44</title>
<path fill="none" stroke="midnightblue" d="M427.86,-558.41C365.73,-551.76 245.36,-536.81 145.5,-512 142.28,-511.2 138.96,-510.26 135.66,-509.25"/>
<polygon fill="midnightblue" stroke="midnightblue" points="136.54,-505.86 125.95,-506.07 134.36,-512.51 136.54,-505.86"/>
</g>
</g>
</svg>
