<?xml version="1.0" encoding="UTF-8" standalone="no"?>
<!DOCTYPE svg PUBLIC "-//W3C//DTD SVG 1.1//EN"
 "http://www.w3.org/Graphics/SVG/1.1/DTD/svg11.dtd">
<!-- Generated by graphviz version 2.44.1 (20200629.0846)
 -->
<!-- Title: kryne&#45;engine/src/Core/LogicComponent.cpp Pages: 1 -->
<svg width="1964pt" height="934pt"
 viewBox="0.00 0.00 1964.00 934.00" xmlns="http://www.w3.org/2000/svg" xmlns:xlink="http://www.w3.org/1999/xlink">
<g id="graph0" class="graph" transform="scale(1 1) rotate(0) translate(4 930)">
<title>kryne&#45;engine/src/Core/LogicComponent.cpp</title>
<polygon fill="white" stroke="transparent" points="-4,4 -4,-930 1960,-930 1960,4 -4,4"/>
<!-- Node1 -->
<g id="node1" class="node">
<title>Node1</title>
<g id="a_node1"><a xlink:title=" ">
<polygon fill="#bfbfbf" stroke="black" points="781,-895.5 781,-925.5 893,-925.5 893,-895.5 781,-895.5"/>
<text text-anchor="start" x="789" y="-913.5" font-family="Helvetica,sans-Serif" font-size="10.00">kryne&#45;engine/src/Core</text>
<text text-anchor="middle" x="837" y="-902.5" font-family="Helvetica,sans-Serif" font-size="10.00">/LogicComponent.cpp</text>
</a>
</g>
</g>
<!-- Node2 -->
<g id="node2" class="node">
<title>Node2</title>
<g id="a_node2"><a xlink:href="_logic_component_8h.html" target="_top" xlink:title=" ">
<polygon fill="white" stroke="black" points="747.5,-839.5 747.5,-858.5 926.5,-858.5 926.5,-839.5 747.5,-839.5"/>
<text text-anchor="middle" x="837" y="-846.5" font-family="Helvetica,sans-Serif" font-size="10.00">kryne&#45;engine/Core/LogicComponent.h</text>
</a>
</g>
</g>
<!-- Node1&#45;&gt;Node2 -->
<g id="edge1" class="edge">
<title>Node1&#45;&gt;Node2</title>
<path fill="none" stroke="midnightblue" d="M837,-895.4C837,-887.47 837,-877.46 837,-868.86"/>
<polygon fill="midnightblue" stroke="midnightblue" points="840.5,-868.66 837,-858.66 833.5,-868.66 840.5,-868.66"/>
</g>
<!-- Node3 -->
<g id="node3" class="node">
<title>Node3</title>
<g id="a_node3"><a xlink:href="_component_8h.html" target="_top" xlink:title=" ">
<polygon fill="white" stroke="black" points="800,-783.5 800,-802.5 874,-802.5 874,-783.5 800,-783.5"/>
<text text-anchor="middle" x="837" y="-790.5" font-family="Helvetica,sans-Serif" font-size="10.00">Component.h</text>
</a>
</g>
</g>
<!-- Node2&#45;&gt;Node3 -->
<g id="edge2" class="edge">
<title>Node2&#45;&gt;Node3</title>
<path fill="none" stroke="midnightblue" d="M837,-839.08C837,-832.01 837,-821.86 837,-812.99"/>
<polygon fill="midnightblue" stroke="midnightblue" points="840.5,-812.75 837,-802.75 833.5,-812.75 840.5,-812.75"/>
</g>
<!-- Node4 -->
<g id="node4" class="node">
<title>Node4</title>
<g id="a_node4"><a xlink:title=" ">
<polygon fill="white" stroke="#bfbfbf" points="865,-487 865,-506 907,-506 907,-487 865,-487"/>
<text text-anchor="middle" x="886" y="-494" font-family="Helvetica,sans-Serif" font-size="10.00">vector</text>
</a>
</g>
</g>
<!-- Node3&#45;&gt;Node4 -->
<g id="edge3" class="edge">
<title>Node3&#45;&gt;Node4</title>
<path fill="none" stroke="midnightblue" d="M857.64,-783.42C890.5,-768.23 951,-733.29 951,-682 951,-682 951,-682 951,-624 951,-580.43 920.12,-536.82 900.93,-513.93"/>
<polygon fill="midnightblue" stroke="midnightblue" points="903.43,-511.47 894.23,-506.21 898.14,-516.06 903.43,-511.47"/>
</g>
<!-- Node5 -->
<g id="node5" class="node">
<title>Node5</title>
<g id="a_node5"><a xlink:href="_entity_8h.html" target="_top" xlink:title=" ">
<polygon fill="white" stroke="black" points="774,-727.5 774,-746.5 824,-746.5 824,-727.5 774,-727.5"/>
<text text-anchor="middle" x="799" y="-734.5" font-family="Helvetica,sans-Serif" font-size="10.00">Entity.h</text>
</a>
</g>
</g>
<!-- Node3&#45;&gt;Node5 -->
<g id="edge4" class="edge">
<title>Node3&#45;&gt;Node5</title>
<path fill="none" stroke="midnightblue" d="M825.56,-783.08C818.73,-775.61 810.66,-764.72 804.96,-755.52"/>
<polygon fill="midnightblue" stroke="midnightblue" points="807.98,-753.75 800.03,-746.75 801.88,-757.18 807.98,-753.75"/>
</g>
<!-- Node5&#45;&gt;Node3 -->
<g id="edge27" class="edge">
<title>Node5&#45;&gt;Node3</title>
<path fill="none" stroke="midnightblue" d="M810.29,-746.75C817.1,-754.17 825.17,-765.05 830.91,-774.27"/>
<polygon fill="midnightblue" stroke="midnightblue" points="827.92,-776.1 835.89,-783.08 834.01,-772.66 827.92,-776.1"/>
</g>
<!-- Node5&#45;&gt;Node4 -->
<g id="edge6" class="edge">
<title>Node5&#45;&gt;Node4</title>
<path fill="none" stroke="midnightblue" d="M804.29,-727.39C814.57,-710.33 837.44,-670.78 851,-635 866.66,-593.68 877.56,-542.76 882.68,-515.98"/>
<polygon fill="midnightblue" stroke="midnightblue" points="886.13,-516.55 884.52,-506.08 879.25,-515.27 886.13,-516.55"/>
</g>
<!-- Node6 -->
<g id="node6" class="node">
<title>Node6</title>
<g id="a_node6"><a xlink:title=" ">
<polygon fill="white" stroke="#bfbfbf" points="725,-671.5 725,-690.5 771,-690.5 771,-671.5 725,-671.5"/>
<text text-anchor="middle" x="748" y="-678.5" font-family="Helvetica,sans-Serif" font-size="10.00">atomic</text>
</a>
</g>
</g>
<!-- Node5&#45;&gt;Node6 -->
<g id="edge5" class="edge">
<title>Node5&#45;&gt;Node6</title>
<path fill="none" stroke="midnightblue" d="M790.58,-727.08C783.15,-719.22 772.15,-707.57 763.19,-698.08"/>
<polygon fill="midnightblue" stroke="midnightblue" points="765.68,-695.62 756.26,-690.75 760.59,-700.42 765.68,-695.62"/>
</g>
<!-- Node7 -->
<g id="node7" class="node">
<title>Node7</title>
<g id="a_node7"><a xlink:title=" ">
<polygon fill="white" stroke="#bfbfbf" points="28,-297 28,-316 106,-316 106,-297 28,-297"/>
<text text-anchor="middle" x="67" y="-304" font-family="Helvetica,sans-Serif" font-size="10.00">unordered_set</text>
</a>
</g>
</g>
<!-- Node5&#45;&gt;Node7 -->
<g id="edge7" class="edge">
<title>Node5&#45;&gt;Node7</title>
<path fill="none" stroke="midnightblue" d="M773.8,-734.93C645.09,-729.15 67,-699.09 67,-626 67,-626 67,-626 67,-434 67,-395.7 67,-350.88 67,-326.2"/>
<polygon fill="midnightblue" stroke="midnightblue" points="70.5,-326.09 67,-316.09 63.5,-326.09 70.5,-326.09"/>
</g>
<!-- Node8 -->
<g id="node8" class="node">
<title>Node8</title>
<g id="a_node8"><a xlink:title=" ">
<polygon fill="white" stroke="#bfbfbf" points="1545,-56.5 1545,-75.5 1589,-75.5 1589,-56.5 1545,-56.5"/>
<text text-anchor="middle" x="1567" y="-63.5" font-family="Helvetica,sans-Serif" font-size="10.00">mutex</text>
</a>
</g>
</g>
<!-- Node5&#45;&gt;Node8 -->
<g id="edge8" class="edge">
<title>Node5&#45;&gt;Node8</title>
<path fill="none" stroke="midnightblue" d="M824.24,-734.96C993.44,-727.87 1956,-684.89 1956,-626 1956,-626 1956,-626 1956,-372.5 1956,-191.24 1691.52,-101.19 1598.72,-75.17"/>
<polygon fill="midnightblue" stroke="midnightblue" points="1599.6,-71.78 1589.03,-72.52 1597.75,-78.54 1599.6,-71.78"/>
</g>
<!-- Node9 -->
<g id="node9" class="node">
<title>Node9</title>
<g id="a_node9"><a xlink:href="_transform_8h.html" target="_top" xlink:title=" ">
<polygon fill="white" stroke="black" points="1040.5,-548.5 1040.5,-578.5 1161.5,-578.5 1161.5,-548.5 1040.5,-548.5"/>
<text text-anchor="start" x="1048.5" y="-566.5" font-family="Helvetica,sans-Serif" font-size="10.00">kryne&#45;engine/3DObjects</text>
<text text-anchor="middle" x="1101" y="-555.5" font-family="Helvetica,sans-Serif" font-size="10.00">/Transform.h</text>
</a>
</g>
</g>
<!-- Node5&#45;&gt;Node9 -->
<g id="edge9" class="edge">
<title>Node5&#45;&gt;Node9</title>
<path fill="none" stroke="midnightblue" d="M810.83,-727.5C852.88,-701.16 994.49,-620.5 1063.19,-583.46"/>
<polygon fill="midnightblue" stroke="midnightblue" points="1065.22,-586.34 1072.38,-578.53 1061.92,-580.17 1065.22,-586.34"/>
</g>
<!-- Node22 -->
<g id="node22" class="node">
<title>Node22</title>
<g id="a_node22"><a xlink:href="_process_8h.html" target="_top" xlink:title=" ">
<polygon fill="white" stroke="black" points="645.5,-671.5 645.5,-690.5 706.5,-690.5 706.5,-671.5 645.5,-671.5"/>
<text text-anchor="middle" x="676" y="-678.5" font-family="Helvetica,sans-Serif" font-size="10.00">Process.h</text>
</a>
</g>
</g>
<!-- Node5&#45;&gt;Node22 -->
<g id="edge28" class="edge">
<title>Node5&#45;&gt;Node22</title>
<path fill="none" stroke="midnightblue" d="M774.42,-727.44C752.53,-718.68 720.98,-704.94 699.44,-694.86"/>
<polygon fill="midnightblue" stroke="midnightblue" points="700.85,-691.65 690.32,-690.52 697.84,-697.97 700.85,-691.65"/>
</g>
<!-- Node9&#45;&gt;Node4 -->
<g id="edge11" class="edge">
<title>Node9&#45;&gt;Node4</title>
<path fill="none" stroke="midnightblue" d="M1044.12,-548.4C1008.43,-539.1 961.64,-526.06 921,-512 919.09,-511.34 917.13,-510.63 915.17,-509.89"/>
<polygon fill="midnightblue" stroke="midnightblue" points="916.05,-506.47 905.46,-506.05 913.47,-512.98 916.05,-506.47"/>
</g>
<!-- Node9&#45;&gt;Node5 -->
<g id="edge26" class="edge">
<title>Node9&#45;&gt;Node5</title>
<path fill="none" stroke="midnightblue" d="M1080.21,-578.53C1026.87,-610.98 886.15,-690.88 826.33,-722.65"/>
<polygon fill="midnightblue" stroke="midnightblue" points="824.35,-719.74 817.12,-727.5 827.6,-725.94 824.35,-719.74"/>
</g>
<!-- Node10 -->
<g id="node10" class="node">
<title>Node10</title>
<g id="a_node10"><a xlink:title=" ">
<polygon fill="white" stroke="#bfbfbf" points="832,-56.5 832,-75.5 884,-75.5 884,-56.5 832,-56.5"/>
<text text-anchor="middle" x="858" y="-63.5" font-family="Helvetica,sans-Serif" font-size="10.00">memory</text>
</a>
</g>
</g>
<!-- Node9&#45;&gt;Node10 -->
<g id="edge10" class="edge">
<title>Node9&#45;&gt;Node10</title>
<path fill="none" stroke="midnightblue" d="M1040.42,-548.69C1019.5,-541.1 997.66,-529.51 983,-512 866.62,-372.98 986.33,-273.01 903,-112 897.01,-100.43 886.99,-89.97 877.93,-82.06"/>
<polygon fill="midnightblue" stroke="midnightblue" points="879.96,-79.19 870.01,-75.54 875.51,-84.6 879.96,-79.19"/>
</g>
<!-- Node11 -->
<g id="node11" class="node">
<title>Node11</title>
<g id="a_node11"><a xlink:title=" ">
<polygon fill="white" stroke="#bfbfbf" points="1489.5,-0.5 1489.5,-19.5 1532.5,-19.5 1532.5,-0.5 1489.5,-0.5"/>
<text text-anchor="middle" x="1511" y="-7.5" font-family="Helvetica,sans-Serif" font-size="10.00">queue</text>
</a>
</g>
</g>
<!-- Node9&#45;&gt;Node11 -->
<g id="edge12" class="edge">
<title>Node9&#45;&gt;Node11</title>
<path fill="none" stroke="midnightblue" d="M1161.72,-562.71C1338.31,-562.77 1842.8,-558.81 1899,-512 1925.75,-489.72 1918,-470.82 1918,-436 1918,-436 1918,-436 1918,-121 1918,-43.39 1638.68,-18.87 1542.83,-12.75"/>
<polygon fill="midnightblue" stroke="midnightblue" points="1542.79,-9.24 1532.59,-12.12 1542.36,-16.23 1542.79,-9.24"/>
</g>
<!-- Node12 -->
<g id="node12" class="node">
<title>Node12</title>
<g id="a_node12"><a xlink:title=" ">
<polygon fill="white" stroke="#bfbfbf" points="1001,-487 1001,-506 1071,-506 1071,-487 1001,-487"/>
<text text-anchor="middle" x="1036" y="-494" font-family="Helvetica,sans-Serif" font-size="10.00">glm/glm.hpp</text>
</a>
</g>
</g>
<!-- Node9&#45;&gt;Node12 -->
<g id="edge13" class="edge">
<title>Node9&#45;&gt;Node12</title>
<path fill="none" stroke="midnightblue" d="M1086.9,-548.4C1076.56,-538.06 1062.52,-524.02 1051.81,-513.31"/>
<polygon fill="midnightblue" stroke="midnightblue" points="1054.24,-510.79 1044.69,-506.19 1049.29,-515.74 1054.24,-510.79"/>
</g>
<!-- Node13 -->
<g id="node13" class="node">
<title>Node13</title>
<g id="a_node13"><a xlink:title=" ">
<polygon fill="white" stroke="#bfbfbf" points="1089,-487 1089,-506 1181,-506 1181,-487 1089,-487"/>
<text text-anchor="middle" x="1135" y="-494" font-family="Helvetica,sans-Serif" font-size="10.00">glm/common.hpp</text>
</a>
</g>
</g>
<!-- Node9&#45;&gt;Node13 -->
<g id="edge14" class="edge">
<title>Node9&#45;&gt;Node13</title>
<path fill="none" stroke="midnightblue" d="M1108.38,-548.4C1113.47,-538.66 1120.28,-525.65 1125.73,-515.21"/>
<polygon fill="midnightblue" stroke="midnightblue" points="1128.92,-516.68 1130.45,-506.19 1122.72,-513.43 1128.92,-516.68"/>
</g>
<!-- Node14 -->
<g id="node14" class="node">
<title>Node14</title>
<g id="a_node14"><a xlink:title=" ">
<polygon fill="white" stroke="#bfbfbf" points="1199.5,-487 1199.5,-506 1280.5,-506 1280.5,-487 1199.5,-487"/>
<text text-anchor="middle" x="1240" y="-494" font-family="Helvetica,sans-Serif" font-size="10.00">glm/matrix.hpp</text>
</a>
</g>
</g>
<!-- Node9&#45;&gt;Node14 -->
<g id="edge15" class="edge">
<title>Node9&#45;&gt;Node14</title>
<path fill="none" stroke="midnightblue" d="M1131.16,-548.4C1155.44,-537.04 1189.28,-521.22 1212.75,-510.24"/>
<polygon fill="midnightblue" stroke="midnightblue" points="1214.23,-513.41 1221.81,-506.01 1211.27,-507.07 1214.23,-513.41"/>
</g>
<!-- Node15 -->
<g id="node15" class="node">
<title>Node15</title>
<g id="a_node15"><a xlink:title=" ">
<polygon fill="white" stroke="#bfbfbf" points="1079,-297 1079,-316 1153,-316 1153,-297 1079,-297"/>
<text text-anchor="middle" x="1116" y="-304" font-family="Helvetica,sans-Serif" font-size="10.00">glm/vec3.hpp</text>
</a>
</g>
</g>
<!-- Node9&#45;&gt;Node15 -->
<g id="edge16" class="edge">
<title>Node9&#45;&gt;Node15</title>
<path fill="none" stroke="midnightblue" d="M1040.84,-548.45C1021.93,-540.89 1003.12,-529.4 992,-512 984.58,-500.39 987.79,-494.12 992,-481 1013.39,-414.29 1070.9,-351.41 1099.45,-323.14"/>
<polygon fill="midnightblue" stroke="midnightblue" points="1101.95,-325.59 1106.68,-316.11 1097.07,-320.58 1101.95,-325.59"/>
</g>
<!-- Node16 -->
<g id="node16" class="node">
<title>Node16</title>
<g id="a_node16"><a xlink:title=" ">
<polygon fill="white" stroke="#bfbfbf" points="1478,-487 1478,-506 1594,-506 1594,-487 1478,-487"/>
<text text-anchor="middle" x="1536" y="-494" font-family="Helvetica,sans-Serif" font-size="10.00">glm/gtc/quaternion.hpp</text>
</a>
</g>
</g>
<!-- Node9&#45;&gt;Node16 -->
<g id="edge17" class="edge">
<title>Node9&#45;&gt;Node16</title>
<path fill="none" stroke="midnightblue" d="M1161.78,-555.61C1234.93,-546.98 1361.36,-531 1469,-512 1475.38,-510.87 1482.08,-509.57 1488.68,-508.21"/>
<polygon fill="midnightblue" stroke="midnightblue" points="1489.83,-511.55 1498.89,-506.06 1488.38,-504.7 1489.83,-511.55"/>
</g>
<!-- Node17 -->
<g id="node17" class="node">
<title>Node17</title>
<g id="a_node17"><a xlink:title=" ">
<polygon fill="white" stroke="#bfbfbf" points="1612,-487 1612,-506 1728,-506 1728,-487 1612,-487"/>
<text text-anchor="middle" x="1670" y="-494" font-family="Helvetica,sans-Serif" font-size="10.00">glm/gtx/quaternion.hpp</text>
</a>
</g>
</g>
<!-- Node9&#45;&gt;Node17 -->
<g id="edge18" class="edge">
<title>Node9&#45;&gt;Node17</title>
<path fill="none" stroke="midnightblue" d="M1161.56,-558.62C1256.18,-552.07 1444.67,-537.01 1603,-512 1609.87,-510.91 1617.1,-509.57 1624.16,-508.14"/>
<polygon fill="midnightblue" stroke="midnightblue" points="1625.26,-511.48 1634.33,-506 1623.82,-504.63 1625.26,-511.48"/>
</g>
<!-- Node18 -->
<g id="node18" class="node">
<title>Node18</title>
<g id="a_node18"><a xlink:title=" ">
<polygon fill="white" stroke="#bfbfbf" points="1746.5,-487 1746.5,-506 1889.5,-506 1889.5,-487 1746.5,-487"/>
<text text-anchor="middle" x="1818" y="-494" font-family="Helvetica,sans-Serif" font-size="10.00">glm/gtc/matrix_transform.hpp</text>
</a>
</g>
</g>
<!-- Node9&#45;&gt;Node18 -->
<g id="edge19" class="edge">
<title>Node9&#45;&gt;Node18</title>
<path fill="none" stroke="midnightblue" d="M1161.71,-559.66C1275.1,-553.92 1526.63,-539.12 1737,-512 1746.05,-510.83 1755.63,-509.35 1764.91,-507.77"/>
<polygon fill="midnightblue" stroke="midnightblue" points="1765.58,-511.21 1774.82,-506.04 1764.37,-504.31 1765.58,-511.21"/>
</g>
<!-- Node19 -->
<g id="node19" class="node">
<title>Node19</title>
<g id="a_node19"><a xlink:href="_transform_8hpp.html" target="_top" xlink:title=" ">
<polygon fill="white" stroke="black" points="1298.5,-487 1298.5,-506 1459.5,-506 1459.5,-487 1298.5,-487"/>
<text text-anchor="middle" x="1379" y="-494" font-family="Helvetica,sans-Serif" font-size="10.00">kryne&#45;engine/Math/Transform.hpp</text>
</a>
</g>
</g>
<!-- Node9&#45;&gt;Node19 -->
<g id="edge20" class="edge">
<title>Node9&#45;&gt;Node19</title>
<path fill="none" stroke="midnightblue" d="M1160.98,-548.48C1212.43,-536.45 1285.52,-519.36 1332.6,-508.35"/>
<polygon fill="midnightblue" stroke="midnightblue" points="1333.58,-511.71 1342.52,-506.03 1331.99,-504.9 1333.58,-511.71"/>
</g>
<!-- Node21 -->
<g id="node21" class="node">
<title>Node21</title>
<g id="a_node21"><a xlink:href="_scene_8h.html" target="_top" xlink:title=" ">
<polygon fill="white" stroke="black" points="176.5,-487 176.5,-506 229.5,-506 229.5,-487 176.5,-487"/>
<text text-anchor="middle" x="203" y="-494" font-family="Helvetica,sans-Serif" font-size="10.00">Scene.h</text>
</a>
</g>
</g>
<!-- Node9&#45;&gt;Node21 -->
<g id="edge23" class="edge">
<title>Node9&#45;&gt;Node21</title>
<path fill="none" stroke="midnightblue" d="M1040.26,-559.18C863.4,-549.44 356.5,-521.1 282,-512 268.13,-510.31 253.01,-507.72 239.75,-505.19"/>
<polygon fill="midnightblue" stroke="midnightblue" points="240.06,-501.69 229.57,-503.2 238.71,-508.55 240.06,-501.69"/>
</g>
<!-- Node19&#45;&gt;Node15 -->
<g id="edge21" class="edge">
<title>Node19&#45;&gt;Node15</title>
<path fill="none" stroke="midnightblue" d="M1367.02,-486.93C1325.68,-457.39 1188.77,-359.52 1136.51,-322.16"/>
<polygon fill="midnightblue" stroke="midnightblue" points="1138.22,-319.08 1128.05,-316.12 1134.15,-324.78 1138.22,-319.08"/>
</g>
<!-- Node20 -->
<g id="node20" class="node">
<title>Node20</title>
<g id="a_node20"><a xlink:title=" ">
<polygon fill="white" stroke="#bfbfbf" points="1336,-425.5 1336,-444.5 1422,-444.5 1422,-425.5 1336,-425.5"/>
<text text-anchor="middle" x="1379" y="-432.5" font-family="Helvetica,sans-Serif" font-size="10.00">glm/mat3x3.hpp</text>
</a>
</g>
</g>
<!-- Node19&#45;&gt;Node20 -->
<g id="edge22" class="edge">
<title>Node19&#45;&gt;Node20</title>
<path fill="none" stroke="midnightblue" d="M1379,-486.98C1379,-478.58 1379,-465.48 1379,-454.66"/>
<polygon fill="midnightblue" stroke="midnightblue" points="1382.5,-454.51 1379,-444.51 1375.5,-454.51 1382.5,-454.51"/>
</g>
<!-- Node21&#45;&gt;Node5 -->
<g id="edge25" class="edge">
<title>Node21&#45;&gt;Node5</title>
<path fill="none" stroke="midnightblue" d="M208.17,-506.32C227.65,-538.55 300.27,-650.13 395,-691 461.09,-719.51 678.38,-731.16 763.94,-734.71"/>
<polygon fill="midnightblue" stroke="midnightblue" points="763.8,-738.21 773.93,-735.12 764.08,-731.22 763.8,-738.21"/>
</g>
<!-- Node21&#45;&gt;Node7 -->
<g id="edge24" class="edge">
<title>Node21&#45;&gt;Node7</title>
<path fill="none" stroke="midnightblue" d="M198.76,-486.97C187.44,-464.62 154.97,-403.02 119,-358 108.83,-345.28 95.66,-332.51 85.11,-323"/>
<polygon fill="midnightblue" stroke="midnightblue" points="87.14,-320.12 77.33,-316.13 82.51,-325.37 87.14,-320.12"/>
</g>
<!-- Node22&#45;&gt;Node5 -->
<g id="edge33" class="edge">
<title>Node22&#45;&gt;Node5</title>
<path fill="none" stroke="midnightblue" d="M700.82,-690.65C722.6,-699.39 753.8,-712.97 775.25,-723"/>
<polygon fill="midnightblue" stroke="midnightblue" points="773.82,-726.19 784.35,-727.32 776.82,-719.87 773.82,-726.19"/>
</g>
<!-- Node22&#45;&gt;Node10 -->
<g id="edge29" class="edge">
<title>Node22&#45;&gt;Node10</title>
<path fill="none" stroke="midnightblue" d="M675.6,-671.46C674.91,-649.68 675.26,-590.75 696,-548 706.57,-526.22 834.3,-410.72 845,-389 858.34,-361.93 851.85,-351.89 856,-322 865.46,-253.93 874.06,-236.61 870,-168 868.29,-139.13 863.86,-105.87 860.88,-85.64"/>
<polygon fill="midnightblue" stroke="midnightblue" points="864.33,-84.98 859.37,-75.62 857.4,-86.03 864.33,-84.98"/>
</g>
<!-- Node23 -->
<g id="node23" class="node">
<title>Node23</title>
<g id="a_node23"><a xlink:title=" ">
<polygon fill="white" stroke="#bfbfbf" points="650.5,-297 650.5,-316 733.5,-316 733.5,-297 650.5,-297"/>
<text text-anchor="middle" x="692" y="-304" font-family="Helvetica,sans-Serif" font-size="10.00">unordered_map</text>
</a>
</g>
</g>
<!-- Node22&#45;&gt;Node23 -->
<g id="edge30" class="edge">
<title>Node22&#45;&gt;Node23</title>
<path fill="none" stroke="midnightblue" d="M645.33,-675.7C619.34,-670.47 582.9,-659.13 561,-635 539.11,-610.89 541,-597.07 541,-564.5 541,-564.5 541,-564.5 541,-434 541,-399.18 536.91,-384.06 560,-358 566.69,-350.45 619.31,-331.74 656.05,-319.34"/>
<polygon fill="midnightblue" stroke="midnightblue" points="657.57,-322.52 665.94,-316.02 655.35,-315.89 657.57,-322.52"/>
</g>
<!-- Node24 -->
<g id="node24" class="node">
<title>Node24</title>
<g id="a_node24"><a xlink:title=" ">
<polygon fill="white" stroke="#bfbfbf" points="407,-56.5 407,-75.5 461,-75.5 461,-56.5 407,-56.5"/>
<text text-anchor="middle" x="434" y="-63.5" font-family="Helvetica,sans-Serif" font-size="10.00">iostream</text>
</a>
</g>
</g>
<!-- Node22&#45;&gt;Node24 -->
<g id="edge31" class="edge">
<title>Node22&#45;&gt;Node24</title>
<path fill="none" stroke="midnightblue" d="M645.05,-679.85C584.84,-678.7 448.4,-671.85 341,-635 226.18,-595.6 105,-618.89 105,-497.5 105,-497.5 105,-497.5 105,-434 105,-371.24 46.29,-378.51 19,-322 3.86,-290.65 0,-280.82 0,-246 0,-246 0,-246 0,-182.5 0,-100.71 291.47,-75.41 396.69,-68.94"/>
<polygon fill="midnightblue" stroke="midnightblue" points="397.08,-72.42 406.85,-68.33 396.66,-65.43 397.08,-72.42"/>
</g>
<!-- Node25 -->
<g id="node25" class="node">
<title>Node25</title>
<g id="a_node25"><a xlink:title=" ">
<polygon fill="white" stroke="#bfbfbf" points="569.5,-615.5 569.5,-634.5 610.5,-634.5 610.5,-615.5 569.5,-615.5"/>
<text text-anchor="middle" x="590" y="-622.5" font-family="Helvetica,sans-Serif" font-size="10.00">stack</text>
</a>
</g>
</g>
<!-- Node22&#45;&gt;Node25 -->
<g id="edge32" class="edge">
<title>Node22&#45;&gt;Node25</title>
<path fill="none" stroke="midnightblue" d="M662.18,-671.32C648.77,-662.9 628.18,-649.97 612.41,-640.07"/>
<polygon fill="midnightblue" stroke="midnightblue" points="614.11,-637.01 603.78,-634.65 610.39,-642.94 614.11,-637.01"/>
</g>
<!-- Node26 -->
<g id="node26" class="node">
<title>Node26</title>
<g id="a_node26"><a xlink:href="_system_8h.html" target="_top" xlink:title=" ">
<polygon fill="white" stroke="black" points="716.5,-615.5 716.5,-634.5 775.5,-634.5 775.5,-615.5 716.5,-615.5"/>
<text text-anchor="middle" x="746" y="-622.5" font-family="Helvetica,sans-Serif" font-size="10.00">System.h</text>
</a>
</g>
</g>
<!-- Node22&#45;&gt;Node26 -->
<g id="edge34" class="edge">
<title>Node22&#45;&gt;Node26</title>
<path fill="none" stroke="midnightblue" d="M682.13,-671.32C691.14,-662.98 707.38,-650.21 721.35,-640.35"/>
<polygon fill="midnightblue" stroke="midnightblue" points="723.4,-643.19 729.67,-634.65 719.44,-637.42 723.4,-643.19"/>
</g>
<!-- Node28 -->
<g id="node28" class="node">
<title>Node28</title>
<g id="a_node28"><a xlink:href="_dispatcher_8h.html" target="_top" xlink:title=" ">
<polygon fill="white" stroke="black" points="947.5,-291.5 947.5,-321.5 1060.5,-321.5 1060.5,-291.5 947.5,-291.5"/>
<text text-anchor="start" x="955.5" y="-309.5" font-family="Helvetica,sans-Serif" font-size="10.00">kryne&#45;engine/Dispatch</text>
<text text-anchor="middle" x="1004" y="-298.5" font-family="Helvetica,sans-Serif" font-size="10.00">/Dispatcher.h</text>
</a>
</g>
</g>
<!-- Node22&#45;&gt;Node28 -->
<g id="edge38" class="edge">
<title>Node22&#45;&gt;Node28</title>
<path fill="none" stroke="midnightblue" d="M706.58,-673.07C730.15,-666.48 762.43,-654.59 785,-635 841.91,-585.59 817.37,-545.72 856,-481 892.1,-420.51 949.51,-360.3 981.17,-329.19"/>
<polygon fill="midnightblue" stroke="midnightblue" points="983.91,-331.41 988.64,-321.93 979.03,-326.39 983.91,-331.41"/>
</g>
<!-- Node38 -->
<g id="node37" class="node">
<title>Node38</title>
<g id="a_node37"><a xlink:href="_graphic_context_8h.html" target="_top" xlink:title=" ">
<polygon fill="white" stroke="black" points="349.5,-615.5 349.5,-634.5 512.5,-634.5 512.5,-615.5 349.5,-615.5"/>
<text text-anchor="middle" x="431" y="-622.5" font-family="Helvetica,sans-Serif" font-size="10.00">GraphicContext/GraphicContext.h</text>
</a>
</g>
</g>
<!-- Node22&#45;&gt;Node38 -->
<g id="edge53" class="edge">
<title>Node22&#45;&gt;Node38</title>
<path fill="none" stroke="midnightblue" d="M645.47,-673.27C603.82,-664.09 528.77,-647.55 479.41,-636.67"/>
<polygon fill="midnightblue" stroke="midnightblue" points="480.12,-633.24 469.6,-634.51 478.61,-640.08 480.12,-633.24"/>
</g>
<!-- Node47 -->
<g id="node46" class="node">
<title>Node47</title>
<g id="a_node46"><a xlink:href="_render_mesh_8h.html" target="_top" xlink:title=" ">
<polygon fill="white" stroke="black" points="597.5,-481.5 597.5,-511.5 716.5,-511.5 716.5,-481.5 597.5,-481.5"/>
<text text-anchor="start" x="605.5" y="-499.5" font-family="Helvetica,sans-Serif" font-size="10.00">kryne&#45;engine/Rendering</text>
<text text-anchor="middle" x="657" y="-488.5" font-family="Helvetica,sans-Serif" font-size="10.00">/RenderMesh.h</text>
</a>
</g>
</g>
<!-- Node22&#45;&gt;Node47 -->
<g id="edge82" class="edge">
<title>Node22&#45;&gt;Node47</title>
<path fill="none" stroke="midnightblue" d="M672.77,-671.18C669.66,-662.21 665.1,-647.84 663,-635 656.58,-595.83 655.97,-549.6 656.33,-521.96"/>
<polygon fill="midnightblue" stroke="midnightblue" points="659.83,-521.73 656.52,-511.67 652.83,-521.6 659.83,-521.73"/>
</g>
<!-- Node26&#45;&gt;Node5 -->
<g id="edge37" class="edge">
<title>Node26&#45;&gt;Node5</title>
<path fill="none" stroke="midnightblue" d="M754.08,-634.66C761.73,-643.28 773.05,-657.18 780,-671 787.42,-685.77 792.43,-703.93 795.43,-717.29"/>
<polygon fill="midnightblue" stroke="midnightblue" points="792.02,-718.13 797.48,-727.21 798.88,-716.71 792.02,-718.13"/>
</g>
<!-- Node26&#45;&gt;Node22 -->
<g id="edge36" class="edge">
<title>Node26&#45;&gt;Node22</title>
<path fill="none" stroke="midnightblue" d="M739.7,-634.83C730.65,-643.18 714.52,-655.86 700.63,-665.66"/>
<polygon fill="midnightblue" stroke="midnightblue" points="698.63,-662.79 692.36,-671.32 702.59,-668.56 698.63,-662.79"/>
</g>
<!-- Node27 -->
<g id="node27" class="node">
<title>Node27</title>
<g id="a_node27"><a xlink:href="_system_types_8h.html" target="_top" xlink:title=" ">
<polygon fill="white" stroke="black" points="705,-548.5 705,-578.5 809,-578.5 809,-548.5 705,-548.5"/>
<text text-anchor="start" x="713" y="-566.5" font-family="Helvetica,sans-Serif" font-size="10.00">kryne&#45;engine/enums</text>
<text text-anchor="middle" x="757" y="-555.5" font-family="Helvetica,sans-Serif" font-size="10.00">/SystemTypes.h</text>
</a>
</g>
</g>
<!-- Node26&#45;&gt;Node27 -->
<g id="edge35" class="edge">
<title>Node26&#45;&gt;Node27</title>
<path fill="none" stroke="midnightblue" d="M747.58,-615.48C748.88,-608.4 750.81,-597.97 752.58,-588.39"/>
<polygon fill="midnightblue" stroke="midnightblue" points="756.03,-588.99 754.41,-578.52 749.15,-587.72 756.03,-588.99"/>
</g>
<!-- Node29 -->
<g id="node29" class="node">
<title>Node29</title>
<g id="a_node29"><a xlink:href="_synchronizable_pool_8h.html" target="_top" xlink:title=" ">
<polygon fill="white" stroke="black" points="962.5,-174 962.5,-193 1073.5,-193 1073.5,-174 962.5,-174"/>
<text text-anchor="middle" x="1018" y="-181" font-family="Helvetica,sans-Serif" font-size="10.00">SynchronizablePool.h</text>
</a>
</g>
</g>
<!-- Node28&#45;&gt;Node29 -->
<g id="edge39" class="edge">
<title>Node28&#45;&gt;Node29</title>
<path fill="none" stroke="midnightblue" d="M992.31,-291.26C982.13,-277.08 970.03,-254.64 977,-235 981.67,-221.83 991.41,-209.59 1000.22,-200.46"/>
<polygon fill="midnightblue" stroke="midnightblue" points="1002.86,-202.78 1007.58,-193.29 997.97,-197.77 1002.86,-202.78"/>
</g>
<!-- Node36 -->
<g id="node35" class="node">
<title>Node36</title>
<g id="a_node35"><a xlink:href="_runner_pool_8h.html" target="_top" xlink:title=" ">
<polygon fill="white" stroke="black" points="1068.5,-235.5 1068.5,-254.5 1143.5,-254.5 1143.5,-235.5 1068.5,-235.5"/>
<text text-anchor="middle" x="1106" y="-242.5" font-family="Helvetica,sans-Serif" font-size="10.00">RunnerPool.h</text>
</a>
</g>
</g>
<!-- Node28&#45;&gt;Node36 -->
<g id="edge49" class="edge">
<title>Node28&#45;&gt;Node36</title>
<path fill="none" stroke="midnightblue" d="M1028.17,-291.4C1044.52,-281.86 1066.01,-269.32 1082.27,-259.84"/>
<polygon fill="midnightblue" stroke="midnightblue" points="1084.28,-262.72 1091.16,-254.66 1080.76,-256.67 1084.28,-262.72"/>
</g>
<!-- Node37 -->
<g id="node36" class="node">
<title>Node37</title>
<g id="a_node36"><a xlink:href="_main_pool_8h.html" target="_top" xlink:title=" ">
<polygon fill="white" stroke="black" points="985.5,-235.5 985.5,-254.5 1050.5,-254.5 1050.5,-235.5 985.5,-235.5"/>
<text text-anchor="middle" x="1018" y="-242.5" font-family="Helvetica,sans-Serif" font-size="10.00">MainPool.h</text>
</a>
</g>
</g>
<!-- Node28&#45;&gt;Node37 -->
<g id="edge51" class="edge">
<title>Node28&#45;&gt;Node37</title>
<path fill="none" stroke="midnightblue" d="M1007.32,-291.4C1009.21,-283.38 1011.59,-273.23 1013.63,-264.57"/>
<polygon fill="midnightblue" stroke="midnightblue" points="1017.08,-265.19 1015.96,-254.66 1010.27,-263.59 1017.08,-265.19"/>
</g>
<!-- Node30 -->
<g id="node30" class="node">
<title>Node30</title>
<g id="a_node30"><a xlink:href="_thread_pool_8h.html" target="_top" xlink:title=" ">
<polygon fill="white" stroke="black" points="1024,-112.5 1024,-131.5 1098,-131.5 1098,-112.5 1024,-112.5"/>
<text text-anchor="middle" x="1061" y="-119.5" font-family="Helvetica,sans-Serif" font-size="10.00">ThreadPool.h</text>
</a>
</g>
</g>
<!-- Node29&#45;&gt;Node30 -->
<g id="edge40" class="edge">
<title>Node29&#45;&gt;Node30</title>
<path fill="none" stroke="midnightblue" d="M1024.16,-173.98C1030.61,-165.05 1040.9,-150.81 1048.97,-139.64"/>
<polygon fill="midnightblue" stroke="midnightblue" points="1051.83,-141.66 1054.85,-131.51 1046.16,-137.56 1051.83,-141.66"/>
</g>
<!-- Node30&#45;&gt;Node8 -->
<g id="edge42" class="edge">
<title>Node30&#45;&gt;Node8</title>
<path fill="none" stroke="midnightblue" d="M1098.21,-117.03C1193.5,-106.86 1445.13,-80.01 1534.74,-70.44"/>
<polygon fill="midnightblue" stroke="midnightblue" points="1535.27,-73.91 1544.85,-69.36 1534.53,-66.95 1535.27,-73.91"/>
</g>
<!-- Node30&#45;&gt;Node10 -->
<g id="edge45" class="edge">
<title>Node30&#45;&gt;Node10</title>
<path fill="none" stroke="midnightblue" d="M1028.83,-112.44C992.09,-102.67 932.14,-86.72 893.9,-76.55"/>
<polygon fill="midnightblue" stroke="midnightblue" points="894.77,-73.16 884.21,-73.97 892.97,-79.92 894.77,-73.16"/>
</g>
<!-- Node30&#45;&gt;Node24 -->
<g id="edge46" class="edge">
<title>Node30&#45;&gt;Node24</title>
<path fill="none" stroke="midnightblue" d="M1023.66,-117.78C912.18,-108.18 582.63,-79.8 471.26,-70.21"/>
<polygon fill="midnightblue" stroke="midnightblue" points="471.44,-66.71 461.18,-69.34 470.84,-73.69 471.44,-66.71"/>
</g>
<!-- Node31 -->
<g id="node31" class="node">
<title>Node31</title>
<g id="a_node31"><a xlink:title=" ">
<polygon fill="white" stroke="#bfbfbf" points="1113,-56.5 1113,-75.5 1157,-75.5 1157,-56.5 1113,-56.5"/>
<text text-anchor="middle" x="1135" y="-63.5" font-family="Helvetica,sans-Serif" font-size="10.00">thread</text>
</a>
</g>
</g>
<!-- Node30&#45;&gt;Node31 -->
<g id="edge41" class="edge">
<title>Node30&#45;&gt;Node31</title>
<path fill="none" stroke="midnightblue" d="M1072.89,-112.32C1084.15,-104.11 1101.29,-91.6 1114.71,-81.81"/>
<polygon fill="midnightblue" stroke="midnightblue" points="1116.88,-84.56 1122.89,-75.83 1112.75,-78.9 1116.88,-84.56"/>
</g>
<!-- Node32 -->
<g id="node32" class="node">
<title>Node32</title>
<g id="a_node32"><a xlink:title=" ">
<polygon fill="white" stroke="#bfbfbf" points="1175.5,-56.5 1175.5,-75.5 1268.5,-75.5 1268.5,-56.5 1175.5,-56.5"/>
<text text-anchor="middle" x="1222" y="-63.5" font-family="Helvetica,sans-Serif" font-size="10.00">condition_variable</text>
</a>
</g>
</g>
<!-- Node30&#45;&gt;Node32 -->
<g id="edge43" class="edge">
<title>Node30&#45;&gt;Node32</title>
<path fill="none" stroke="midnightblue" d="M1086.51,-112.44C1113.6,-103.36 1156.59,-88.94 1186.87,-78.78"/>
<polygon fill="midnightblue" stroke="midnightblue" points="1188.24,-82.01 1196.61,-75.52 1186.01,-75.38 1188.24,-82.01"/>
</g>
<!-- Node33 -->
<g id="node33" class="node">
<title>Node33</title>
<g id="a_node33"><a xlink:title=" ">
<polygon fill="white" stroke="#bfbfbf" points="968.5,-56.5 968.5,-75.5 1009.5,-75.5 1009.5,-56.5 968.5,-56.5"/>
<text text-anchor="middle" x="989" y="-63.5" font-family="Helvetica,sans-Serif" font-size="10.00">future</text>
</a>
</g>
</g>
<!-- Node30&#45;&gt;Node33 -->
<g id="edge44" class="edge">
<title>Node30&#45;&gt;Node33</title>
<path fill="none" stroke="midnightblue" d="M1049.43,-112.32C1038.58,-104.18 1022.12,-91.84 1009.12,-82.09"/>
<polygon fill="midnightblue" stroke="midnightblue" points="1010.88,-79.03 1000.78,-75.83 1006.68,-84.63 1010.88,-79.03"/>
</g>
<!-- Node34 -->
<g id="node34" class="node">
<title>Node34</title>
<g id="a_node34"><a xlink:href="_base_pool_8h.html" target="_top" xlink:title=" ">
<polygon fill="white" stroke="red" points="1027.5,-56.5 1027.5,-75.5 1094.5,-75.5 1094.5,-56.5 1027.5,-56.5"/>
<text text-anchor="middle" x="1061" y="-63.5" font-family="Helvetica,sans-Serif" font-size="10.00">BasePool.h</text>
</a>
</g>
</g>
<!-- Node30&#45;&gt;Node34 -->
<g id="edge47" class="edge">
<title>Node30&#45;&gt;Node34</title>
<path fill="none" stroke="midnightblue" d="M1061,-112.08C1061,-105.01 1061,-94.86 1061,-85.99"/>
<polygon fill="midnightblue" stroke="midnightblue" points="1064.5,-85.75 1061,-75.75 1057.5,-85.75 1064.5,-85.75"/>
</g>
<!-- Node34&#45;&gt;Node11 -->
<g id="edge48" class="edge">
<title>Node34&#45;&gt;Node11</title>
<path fill="none" stroke="midnightblue" d="M1094.74,-57.62C1097.87,-57.03 1100.99,-56.48 1104,-56 1242.94,-33.83 1410.31,-19.04 1479.11,-13.48"/>
<polygon fill="midnightblue" stroke="midnightblue" points="1479.59,-16.95 1489.28,-12.66 1479.03,-9.97 1479.59,-16.95"/>
</g>
<!-- Node36&#45;&gt;Node30 -->
<g id="edge50" class="edge">
<title>Node36&#45;&gt;Node30</title>
<path fill="none" stroke="midnightblue" d="M1103.88,-235.41C1100.27,-221.17 1092.37,-191.87 1083,-168 1079.38,-158.79 1074.64,-148.88 1070.48,-140.71"/>
<polygon fill="midnightblue" stroke="midnightblue" points="1073.54,-139.02 1065.81,-131.77 1067.34,-142.26 1073.54,-139.02"/>
</g>
<!-- Node37&#45;&gt;Node29 -->
<g id="edge52" class="edge">
<title>Node37&#45;&gt;Node29</title>
<path fill="none" stroke="midnightblue" d="M1018,-235.48C1018,-227.08 1018,-213.98 1018,-203.16"/>
<polygon fill="midnightblue" stroke="midnightblue" points="1021.5,-203.01 1018,-193.01 1014.5,-203.01 1021.5,-203.01"/>
</g>
<!-- Node39 -->
<g id="node38" class="node">
<title>Node39</title>
<g id="a_node38"><a xlink:href="_player_input_8h.html" target="_top" xlink:title=" ">
<polygon fill="white" stroke="black" points="333,-358.5 333,-388.5 429,-388.5 429,-358.5 333,-358.5"/>
<text text-anchor="start" x="341" y="-376.5" font-family="Helvetica,sans-Serif" font-size="10.00">kryne&#45;engine/Input</text>
<text text-anchor="middle" x="381" y="-365.5" font-family="Helvetica,sans-Serif" font-size="10.00">/PlayerInput.h</text>
</a>
</g>
</g>
<!-- Node38&#45;&gt;Node39 -->
<g id="edge54" class="edge">
<title>Node38&#45;&gt;Node39</title>
<path fill="none" stroke="midnightblue" d="M429.44,-615.28C425.41,-592.93 414.27,-531.76 404,-481 398.26,-452.61 391.15,-420.08 386.37,-398.52"/>
<polygon fill="midnightblue" stroke="midnightblue" points="389.76,-397.6 384.17,-388.6 382.92,-399.12 389.76,-397.6"/>
</g>
<!-- Node45 -->
<g id="node44" class="node">
<title>Node45</title>
<g id="a_node44"><a xlink:href="_loop_renderer_8h.html" target="_top" xlink:title=" ">
<polygon fill="white" stroke="black" points="283.5,-548.5 283.5,-578.5 402.5,-578.5 402.5,-548.5 283.5,-548.5"/>
<text text-anchor="start" x="291.5" y="-566.5" font-family="Helvetica,sans-Serif" font-size="10.00">kryne&#45;engine/Rendering</text>
<text text-anchor="middle" x="343" y="-555.5" font-family="Helvetica,sans-Serif" font-size="10.00">/LoopRenderer.h</text>
</a>
</g>
</g>
<!-- Node38&#45;&gt;Node45 -->
<g id="edge64" class="edge">
<title>Node38&#45;&gt;Node45</title>
<path fill="none" stroke="midnightblue" d="M418.39,-615.48C406.36,-607.34 387.8,-594.79 372.1,-584.18"/>
<polygon fill="midnightblue" stroke="midnightblue" points="373.98,-581.22 363.74,-578.52 370.06,-587.02 373.98,-581.22"/>
</g>
<!-- Node39&#45;&gt;Node7 -->
<g id="edge56" class="edge">
<title>Node39&#45;&gt;Node7</title>
<path fill="none" stroke="midnightblue" d="M332.62,-364.9C279.05,-356.11 190.33,-340.47 115,-322 111.16,-321.06 107.18,-320 103.22,-318.88"/>
<polygon fill="midnightblue" stroke="midnightblue" points="104.1,-315.5 93.52,-316.06 102.14,-322.22 104.1,-315.5"/>
</g>
<!-- Node39&#45;&gt;Node10 -->
<g id="edge59" class="edge">
<title>Node39&#45;&gt;Node10</title>
<path fill="none" stroke="midnightblue" d="M429.03,-365.08C456.73,-358.36 490.1,-345.7 511,-322 534.03,-295.88 530,-280.82 530,-246 530,-246 530,-246 530,-182.5 530,-121.14 736.8,-84.4 821.99,-71.87"/>
<polygon fill="midnightblue" stroke="midnightblue" points="822.59,-75.32 831.99,-70.43 821.59,-68.39 822.59,-75.32"/>
</g>
<!-- Node39&#45;&gt;Node23 -->
<g id="edge57" class="edge">
<title>Node39&#45;&gt;Node23</title>
<path fill="none" stroke="midnightblue" d="M429.18,-364.41C481.58,-355.32 567.65,-339.52 641,-322 645.13,-321.01 649.43,-319.91 653.7,-318.77"/>
<polygon fill="midnightblue" stroke="midnightblue" points="654.81,-322.09 663.52,-316.06 652.95,-315.34 654.81,-322.09"/>
</g>
<!-- Node39&#45;&gt;Node24 -->
<g id="edge58" class="edge">
<title>Node39&#45;&gt;Node24</title>
<path fill="none" stroke="midnightblue" d="M332.64,-371.75C292.02,-368.47 235.27,-357.26 201,-322 176.73,-297.03 182,-280.82 182,-246 182,-246 182,-246 182,-182.5 182,-89.34 326.07,-71.03 396.34,-67.64"/>
<polygon fill="midnightblue" stroke="midnightblue" points="396.7,-71.12 406.55,-67.22 396.42,-64.13 396.7,-71.12"/>
</g>
<!-- Node40 -->
<g id="node39" class="node">
<title>Node40</title>
<g id="a_node39"><a xlink:title=" ">
<polygon fill="white" stroke="#bfbfbf" points="124,-297 124,-316 154,-316 154,-297 124,-297"/>
<text text-anchor="middle" x="139" y="-304" font-family="Helvetica,sans-Serif" font-size="10.00">set</text>
</a>
</g>
</g>
<!-- Node39&#45;&gt;Node40 -->
<g id="edge55" class="edge">
<title>Node39&#45;&gt;Node40</title>
<path fill="none" stroke="midnightblue" d="M332.7,-364.35C288.92,-356.19 223.01,-341.97 168,-322 166.4,-321.42 164.77,-320.77 163.15,-320.08"/>
<polygon fill="midnightblue" stroke="midnightblue" points="164.6,-316.9 154.06,-315.85 161.65,-323.25 164.6,-316.9"/>
</g>
<!-- Node41 -->
<g id="node40" class="node">
<title>Node41</title>
<g id="a_node40"><a xlink:title=" ">
<polygon fill="white" stroke="#bfbfbf" points="210,-297 210,-316 274,-316 274,-297 210,-297"/>
<text text-anchor="middle" x="242" y="-304" font-family="Helvetica,sans-Serif" font-size="10.00">glad/glad.h</text>
</a>
</g>
</g>
<!-- Node39&#45;&gt;Node41 -->
<g id="edge60" class="edge">
<title>Node39&#45;&gt;Node41</title>
<path fill="none" stroke="midnightblue" d="M350.84,-358.4C326.56,-347.04 292.72,-331.22 269.25,-320.24"/>
<polygon fill="midnightblue" stroke="midnightblue" points="270.73,-317.07 260.19,-316.01 267.77,-323.41 270.73,-317.07"/>
</g>
<!-- Node42 -->
<g id="node41" class="node">
<title>Node42</title>
<g id="a_node41"><a xlink:title=" ">
<polygon fill="white" stroke="#bfbfbf" points="292,-297 292,-316 370,-316 370,-297 292,-297"/>
<text text-anchor="middle" x="331" y="-304" font-family="Helvetica,sans-Serif" font-size="10.00">GLFW/glfw3.h</text>
</a>
</g>
</g>
<!-- Node39&#45;&gt;Node42 -->
<g id="edge61" class="edge">
<title>Node39&#45;&gt;Node42</title>
<path fill="none" stroke="midnightblue" d="M370.15,-358.4C362.43,-348.36 352.03,-334.84 343.89,-324.25"/>
<polygon fill="midnightblue" stroke="midnightblue" points="346.56,-321.99 337.69,-316.19 341.01,-326.25 346.56,-321.99"/>
</g>
<!-- Node43 -->
<g id="node42" class="node">
<title>Node43</title>
<g id="a_node42"><a xlink:title=" ">
<polygon fill="white" stroke="#bfbfbf" points="388,-297 388,-316 502,-316 502,-297 388,-297"/>
<text text-anchor="middle" x="445" y="-304" font-family="Helvetica,sans-Serif" font-size="10.00">boost/lexical_cast.hpp</text>
</a>
</g>
</g>
<!-- Node39&#45;&gt;Node43 -->
<g id="edge62" class="edge">
<title>Node39&#45;&gt;Node43</title>
<path fill="none" stroke="midnightblue" d="M394.89,-358.4C404.96,-348.16 418.62,-334.3 429.13,-323.62"/>
<polygon fill="midnightblue" stroke="midnightblue" points="431.92,-325.78 436.44,-316.19 426.93,-320.86 431.92,-325.78"/>
</g>
<!-- Node44 -->
<g id="node43" class="node">
<title>Node44</title>
<g id="a_node43"><a xlink:title=" ">
<polygon fill="white" stroke="#bfbfbf" points="558,-297 558,-316 632,-316 632,-297 558,-297"/>
<text text-anchor="middle" x="595" y="-304" font-family="Helvetica,sans-Serif" font-size="10.00">glm/vec2.hpp</text>
</a>
</g>
</g>
<!-- Node39&#45;&gt;Node44 -->
<g id="edge63" class="edge">
<title>Node39&#45;&gt;Node44</title>
<path fill="none" stroke="midnightblue" d="M427.17,-358.48C466.03,-346.67 520.92,-330 557.21,-318.98"/>
<polygon fill="midnightblue" stroke="midnightblue" points="558.37,-322.28 566.92,-316.03 556.34,-315.59 558.37,-322.28"/>
</g>
<!-- Node45&#45;&gt;Node4 -->
<g id="edge65" class="edge">
<title>Node45&#45;&gt;Node4</title>
<path fill="none" stroke="midnightblue" d="M402.66,-555.36C517.84,-541.57 767.18,-511.72 854.79,-501.24"/>
<polygon fill="midnightblue" stroke="midnightblue" points="855.38,-504.69 864.89,-500.03 854.54,-497.74 855.38,-504.69"/>
</g>
<!-- Node45&#45;&gt;Node5 -->
<g id="edge67" class="edge">
<title>Node45&#45;&gt;Node5</title>
<path fill="none" stroke="midnightblue" d="M337.71,-578.64C332.89,-594.22 328.27,-619.16 341,-635 394.28,-701.3 665.62,-726.65 763.63,-733.74"/>
<polygon fill="midnightblue" stroke="midnightblue" points="763.68,-737.25 773.9,-734.46 764.17,-730.27 763.68,-737.25"/>
</g>
<!-- Node45&#45;&gt;Node21 -->
<g id="edge68" class="edge">
<title>Node45&#45;&gt;Node21</title>
<path fill="none" stroke="midnightblue" d="M312.62,-548.4C288.17,-537.04 254.09,-521.22 230.45,-510.24"/>
<polygon fill="midnightblue" stroke="midnightblue" points="231.87,-507.04 221.32,-506.01 228.92,-513.39 231.87,-507.04"/>
</g>
<!-- Node46 -->
<g id="node45" class="node">
<title>Node46</title>
<g id="a_node45"><a xlink:href="_render_mode_8h.html" target="_top" xlink:title=" ">
<polygon fill="white" stroke="black" points="291,-481.5 291,-511.5 395,-511.5 395,-481.5 291,-481.5"/>
<text text-anchor="start" x="299" y="-499.5" font-family="Helvetica,sans-Serif" font-size="10.00">kryne&#45;engine/enums</text>
<text text-anchor="middle" x="343" y="-488.5" font-family="Helvetica,sans-Serif" font-size="10.00">/RenderMode.h</text>
</a>
</g>
</g>
<!-- Node45&#45;&gt;Node46 -->
<g id="edge66" class="edge">
<title>Node45&#45;&gt;Node46</title>
<path fill="none" stroke="midnightblue" d="M343,-548.4C343,-540.64 343,-530.81 343,-521.86"/>
<polygon fill="midnightblue" stroke="midnightblue" points="346.5,-521.58 343,-511.58 339.5,-521.58 346.5,-521.58"/>
</g>
<!-- Node45&#45;&gt;Node47 -->
<g id="edge69" class="edge">
<title>Node45&#45;&gt;Node47</title>
<path fill="none" stroke="midnightblue" d="M402.8,-550.12C455.4,-539.23 531.99,-523.38 587.35,-511.92"/>
<polygon fill="midnightblue" stroke="midnightblue" points="588.34,-515.29 597.42,-509.83 586.92,-508.43 588.34,-515.29"/>
</g>
<!-- Node47&#45;&gt;Node3 -->
<g id="edge70" class="edge">
<title>Node47&#45;&gt;Node3</title>
<path fill="none" stroke="midnightblue" d="M716.57,-506.01C781.12,-518.98 875,-550.49 875,-624 875,-682 875,-682 875,-682 875,-716.19 858.4,-753.24 847.14,-774.43"/>
<polygon fill="midnightblue" stroke="midnightblue" points="844.05,-772.78 842.28,-783.23 850.18,-776.17 844.05,-772.78"/>
</g>
<!-- Node48 -->
<g id="node47" class="node">
<title>Node48</title>
<g id="a_node47"><a xlink:href="_i_render_mesh_8hpp.html" target="_top" xlink:title=" ">
<polygon fill="white" stroke="black" points="646,-425.5 646,-444.5 738,-444.5 738,-425.5 646,-425.5"/>
<text text-anchor="middle" x="692" y="-432.5" font-family="Helvetica,sans-Serif" font-size="10.00">IRenderMesh.hpp</text>
</a>
</g>
</g>
<!-- Node47&#45;&gt;Node48 -->
<g id="edge71" class="edge">
<title>Node47&#45;&gt;Node48</title>
<path fill="none" stroke="midnightblue" d="M665.29,-481.4C670.22,-473.02 676.51,-462.33 681.75,-453.42"/>
<polygon fill="midnightblue" stroke="midnightblue" points="684.85,-455.05 686.91,-444.66 678.82,-451.5 684.85,-455.05"/>
</g>
<!-- Node49 -->
<g id="node48" class="node">
<title>Node49</title>
<g id="a_node48"><a xlink:href="_i_camera_8hpp.html" target="_top" xlink:title=" ">
<polygon fill="white" stroke="red" points="751.5,-168.5 751.5,-198.5 860.5,-198.5 860.5,-168.5 751.5,-168.5"/>
<text text-anchor="start" x="759.5" y="-186.5" font-family="Helvetica,sans-Serif" font-size="10.00">kryne&#45;engine/Camera</text>
<text text-anchor="middle" x="806" y="-175.5" font-family="Helvetica,sans-Serif" font-size="10.00">/ICamera.hpp</text>
</a>
</g>
</g>
<!-- Node48&#45;&gt;Node49 -->
<g id="edge72" class="edge">
<title>Node48&#45;&gt;Node49</title>
<path fill="none" stroke="midnightblue" d="M738.21,-431.4C767.98,-427.05 804.63,-416.07 824,-389 863.28,-334.11 834.59,-248.51 817,-207.68"/>
<polygon fill="midnightblue" stroke="midnightblue" points="820.19,-206.25 812.92,-198.54 813.8,-209.1 820.19,-206.25"/>
</g>
<!-- Node52 -->
<g id="node49" class="node">
<title>Node52</title>
<g id="a_node49"><a xlink:href="_buffer_geometry_8h.html" target="_top" xlink:title=" ">
<polygon fill="white" stroke="red" points="697,-358.5 697,-388.5 815,-388.5 815,-358.5 697,-358.5"/>
<text text-anchor="start" x="705" y="-376.5" font-family="Helvetica,sans-Serif" font-size="10.00">kryne&#45;engine/Geometry</text>
<text text-anchor="middle" x="756" y="-365.5" font-family="Helvetica,sans-Serif" font-size="10.00">/BufferGeometry.h</text>
</a>
</g>
</g>
<!-- Node48&#45;&gt;Node52 -->
<g id="edge74" class="edge">
<title>Node48&#45;&gt;Node52</title>
<path fill="none" stroke="midnightblue" d="M701.17,-425.48C709.59,-417.64 722.42,-405.71 733.56,-395.37"/>
<polygon fill="midnightblue" stroke="midnightblue" points="735.98,-397.9 740.92,-388.52 731.21,-392.77 735.98,-397.9"/>
</g>
<!-- Node60 -->
<g id="node50" class="node">
<title>Node60</title>
<g id="a_node50"><a xlink:href="kryne-engine_2_material_2_material_8h.html" target="_top" xlink:title=" ">
<polygon fill="white" stroke="red" points="569,-358.5 569,-388.5 679,-388.5 679,-358.5 569,-358.5"/>
<text text-anchor="start" x="577" y="-376.5" font-family="Helvetica,sans-Serif" font-size="10.00">kryne&#45;engine/Material</text>
<text text-anchor="middle" x="624" y="-365.5" font-family="Helvetica,sans-Serif" font-size="10.00">/Material.h</text>
</a>
</g>
</g>
<!-- Node48&#45;&gt;Node60 -->
<g id="edge81" class="edge">
<title>Node48&#45;&gt;Node60</title>
<path fill="none" stroke="midnightblue" d="M682.26,-425.48C673.31,-417.64 659.67,-405.71 647.85,-395.37"/>
<polygon fill="midnightblue" stroke="midnightblue" points="649.86,-392.47 640.03,-388.52 645.25,-397.74 649.86,-392.47"/>
</g>
<!-- Node49&#45;&gt;Node10 -->
<g id="edge73" class="edge">
<title>Node49&#45;&gt;Node10</title>
<path fill="none" stroke="midnightblue" d="M812.38,-168.34C821.83,-147.34 839.56,-107.96 849.92,-84.96"/>
<polygon fill="midnightblue" stroke="midnightblue" points="853.18,-86.22 854.1,-75.67 846.8,-83.35 853.18,-86.22"/>
</g>
<!-- Node52&#45;&gt;Node10 -->
<g id="edge75" class="edge">
<title>Node52&#45;&gt;Node10</title>
<path fill="none" stroke="midnightblue" d="M763.28,-358.35C767.94,-348.46 773.56,-334.78 776,-322 778.58,-308.47 778.36,-304.57 776,-291 766.3,-235.24 719.66,-219.56 743,-168 761.21,-127.76 804.25,-97.2 832.2,-80.71"/>
<polygon fill="midnightblue" stroke="midnightblue" points="834.1,-83.66 841.05,-75.66 830.63,-77.58 834.1,-83.66"/>
</g>
<!-- Node52&#45;&gt;Node15 -->
<g id="edge79" class="edge">
<title>Node52&#45;&gt;Node15</title>
<path fill="none" stroke="midnightblue" d="M815.24,-365.59C878.75,-357.58 982.29,-342.76 1070,-322 1073.64,-321.14 1077.4,-320.14 1081.14,-319.07"/>
<polygon fill="midnightblue" stroke="midnightblue" points="1082.31,-322.38 1090.88,-316.15 1080.29,-315.67 1082.31,-322.38"/>
</g>
<!-- Node52&#45;&gt;Node23 -->
<g id="edge77" class="edge">
<title>Node52&#45;&gt;Node23</title>
<path fill="none" stroke="midnightblue" d="M742.11,-358.4C732.04,-348.16 718.38,-334.3 707.87,-323.62"/>
<polygon fill="midnightblue" stroke="midnightblue" points="710.07,-320.86 700.56,-316.19 705.08,-325.78 710.07,-320.86"/>
</g>
<!-- Node52&#45;&gt;Node24 -->
<g id="edge76" class="edge">
<title>Node52&#45;&gt;Node24</title>
<path fill="none" stroke="midnightblue" d="M756.89,-358.42C757.32,-341.23 755.82,-311.88 743,-291 674.86,-180.07 529.28,-107.46 465.28,-79.7"/>
<polygon fill="midnightblue" stroke="midnightblue" points="466.31,-76.34 455.74,-75.63 463.56,-82.77 466.31,-76.34"/>
</g>
<!-- Node52&#45;&gt;Node28 -->
<g id="edge80" class="edge">
<title>Node52&#45;&gt;Node28</title>
<path fill="none" stroke="midnightblue" d="M809.51,-358.48C847.92,-348.41 899.84,-334.8 940.38,-324.17"/>
<polygon fill="midnightblue" stroke="midnightblue" points="941.38,-327.53 950.16,-321.61 939.6,-320.76 941.38,-327.53"/>
</g>
<!-- Node52&#45;&gt;Node44 -->
<g id="edge78" class="edge">
<title>Node52&#45;&gt;Node44</title>
<path fill="none" stroke="midnightblue" d="M721.07,-358.4C692.57,-346.89 652.71,-330.8 625.48,-319.81"/>
<polygon fill="midnightblue" stroke="midnightblue" points="626.65,-316.51 616.07,-316.01 624.03,-323 626.65,-316.51"/>
</g>
</g>
</svg>
