<?xml version="1.0" encoding="UTF-8" standalone="no"?>
<!DOCTYPE svg PUBLIC "-//W3C//DTD SVG 1.1//EN"
 "http://www.w3.org/Graphics/SVG/1.1/DTD/svg11.dtd">
<!-- Generated by graphviz version 2.44.1 (20200629.0846)
 -->
<!-- Title: kryne&#45;engine/src/Dispatch/MainPool.cpp Pages: 1 -->
<svg width="488pt" height="330pt"
 viewBox="0.00 0.00 488.00 330.00" xmlns="http://www.w3.org/2000/svg" xmlns:xlink="http://www.w3.org/1999/xlink">
<g id="graph0" class="graph" transform="scale(1 1) rotate(0) translate(4 326)">
<title>kryne&#45;engine/src/Dispatch/MainPool.cpp</title>
<polygon fill="white" stroke="transparent" points="-4,4 -4,-326 484,-326 484,4 -4,4"/>
<!-- Node1 -->
<g id="node1" class="node">
<title>Node1</title>
<g id="a_node1"><a xlink:title=" ">
<polygon fill="#bfbfbf" stroke="black" points="240,-291.5 240,-321.5 370,-321.5 370,-291.5 240,-291.5"/>
<text text-anchor="start" x="248" y="-309.5" font-family="Helvetica,sans-Serif" font-size="10.00">kryne&#45;engine/src/Dispatch</text>
<text text-anchor="middle" x="305" y="-298.5" font-family="Helvetica,sans-Serif" font-size="10.00">/MainPool.cpp</text>
</a>
</g>
</g>
<!-- Node2 -->
<g id="node2" class="node">
<title>Node2</title>
<g id="a_node2"><a xlink:href="_main_pool_8h.html" target="_top" xlink:title=" ">
<polygon fill="white" stroke="black" points="248.5,-224.5 248.5,-254.5 361.5,-254.5 361.5,-224.5 248.5,-224.5"/>
<text text-anchor="start" x="256.5" y="-242.5" font-family="Helvetica,sans-Serif" font-size="10.00">kryne&#45;engine/Dispatch</text>
<text text-anchor="middle" x="305" y="-231.5" font-family="Helvetica,sans-Serif" font-size="10.00">/MainPool.h</text>
</a>
</g>
</g>
<!-- Node1&#45;&gt;Node2 -->
<g id="edge1" class="edge">
<title>Node1&#45;&gt;Node2</title>
<path fill="none" stroke="midnightblue" d="M305,-291.4C305,-283.64 305,-273.81 305,-264.86"/>
<polygon fill="midnightblue" stroke="midnightblue" points="308.5,-264.58 305,-254.58 301.5,-264.58 308.5,-264.58"/>
</g>
<!-- Node3 -->
<g id="node3" class="node">
<title>Node3</title>
<g id="a_node3"><a xlink:href="_synchronizable_pool_8h.html" target="_top" xlink:title=" ">
<polygon fill="white" stroke="black" points="249.5,-168.5 249.5,-187.5 360.5,-187.5 360.5,-168.5 249.5,-168.5"/>
<text text-anchor="middle" x="305" y="-175.5" font-family="Helvetica,sans-Serif" font-size="10.00">SynchronizablePool.h</text>
</a>
</g>
</g>
<!-- Node2&#45;&gt;Node3 -->
<g id="edge2" class="edge">
<title>Node2&#45;&gt;Node3</title>
<path fill="none" stroke="midnightblue" d="M305,-224.4C305,-216.47 305,-206.46 305,-197.86"/>
<polygon fill="midnightblue" stroke="midnightblue" points="308.5,-197.66 305,-187.66 301.5,-197.66 308.5,-197.66"/>
</g>
<!-- Node4 -->
<g id="node4" class="node">
<title>Node4</title>
<g id="a_node4"><a xlink:href="_base_pool_8h.html" target="_top" xlink:title=" ">
<polygon fill="white" stroke="black" points="223.5,-56.5 223.5,-75.5 290.5,-75.5 290.5,-56.5 223.5,-56.5"/>
<text text-anchor="middle" x="257" y="-63.5" font-family="Helvetica,sans-Serif" font-size="10.00">BasePool.h</text>
</a>
</g>
</g>
<!-- Node3&#45;&gt;Node4 -->
<g id="edge3" class="edge">
<title>Node3&#45;&gt;Node4</title>
<path fill="none" stroke="midnightblue" d="M276.98,-168.4C259.83,-161.51 239.25,-149.98 229,-132 220.02,-116.24 230.71,-97.03 241.37,-83.6"/>
<polygon fill="midnightblue" stroke="midnightblue" points="244.3,-85.57 248.17,-75.7 238.99,-81 244.3,-85.57"/>
</g>
<!-- Node12 -->
<g id="node12" class="node">
<title>Node12</title>
<g id="a_node12"><a xlink:href="_synchronizable_child_pool_8h.html" target="_top" xlink:title=" ">
<polygon fill="white" stroke="black" points="238.5,-112.5 238.5,-131.5 371.5,-131.5 371.5,-112.5 238.5,-112.5"/>
<text text-anchor="middle" x="305" y="-119.5" font-family="Helvetica,sans-Serif" font-size="10.00">SynchronizableChildPool.h</text>
</a>
</g>
</g>
<!-- Node3&#45;&gt;Node12 -->
<g id="edge11" class="edge">
<title>Node3&#45;&gt;Node12</title>
<path fill="none" stroke="midnightblue" d="M299.83,-168.08C298.32,-160.93 297.89,-150.64 298.54,-141.69"/>
<polygon fill="midnightblue" stroke="midnightblue" points="302.02,-142.13 299.87,-131.75 295.08,-141.2 302.02,-142.13"/>
</g>
<!-- Node5 -->
<g id="node5" class="node">
<title>Node5</title>
<g id="a_node5"><a xlink:title=" ">
<polygon fill="white" stroke="#bfbfbf" points="0,-0.5 0,-19.5 44,-19.5 44,-0.5 0,-0.5"/>
<text text-anchor="middle" x="22" y="-7.5" font-family="Helvetica,sans-Serif" font-size="10.00">thread</text>
</a>
</g>
</g>
<!-- Node4&#45;&gt;Node5 -->
<g id="edge4" class="edge">
<title>Node4&#45;&gt;Node5</title>
<path fill="none" stroke="midnightblue" d="M223.27,-58.26C184.67,-50.4 119.34,-36.63 54.31,-20.21"/>
<polygon fill="midnightblue" stroke="midnightblue" points="54.86,-16.74 44.3,-17.66 53.13,-23.52 54.86,-16.74"/>
</g>
<!-- Node6 -->
<g id="node6" class="node">
<title>Node6</title>
<g id="a_node6"><a xlink:title=" ">
<polygon fill="white" stroke="#bfbfbf" points="62,-0.5 62,-19.5 106,-19.5 106,-0.5 62,-0.5"/>
<text text-anchor="middle" x="84" y="-7.5" font-family="Helvetica,sans-Serif" font-size="10.00">mutex</text>
</a>
</g>
</g>
<!-- Node4&#45;&gt;Node6 -->
<g id="edge5" class="edge">
<title>Node4&#45;&gt;Node6</title>
<path fill="none" stroke="midnightblue" d="M229.59,-56.44C198.72,-46.81 148.64,-31.18 116,-20.99"/>
<polygon fill="midnightblue" stroke="midnightblue" points="116.66,-17.53 106.07,-17.89 114.57,-24.21 116.66,-17.53"/>
</g>
<!-- Node7 -->
<g id="node7" class="node">
<title>Node7</title>
<g id="a_node7"><a xlink:title=" ">
<polygon fill="white" stroke="#bfbfbf" points="124.5,-0.5 124.5,-19.5 217.5,-19.5 217.5,-0.5 124.5,-0.5"/>
<text text-anchor="middle" x="171" y="-7.5" font-family="Helvetica,sans-Serif" font-size="10.00">condition_variable</text>
</a>
</g>
</g>
<!-- Node4&#45;&gt;Node7 -->
<g id="edge6" class="edge">
<title>Node4&#45;&gt;Node7</title>
<path fill="none" stroke="midnightblue" d="M243.18,-56.32C229.77,-47.9 209.18,-34.97 193.41,-25.07"/>
<polygon fill="midnightblue" stroke="midnightblue" points="195.11,-22.01 184.78,-19.65 191.39,-27.94 195.11,-22.01"/>
</g>
<!-- Node8 -->
<g id="node8" class="node">
<title>Node8</title>
<g id="a_node8"><a xlink:title=" ">
<polygon fill="white" stroke="#bfbfbf" points="235.5,-0.5 235.5,-19.5 278.5,-19.5 278.5,-0.5 235.5,-0.5"/>
<text text-anchor="middle" x="257" y="-7.5" font-family="Helvetica,sans-Serif" font-size="10.00">queue</text>
</a>
</g>
</g>
<!-- Node4&#45;&gt;Node8 -->
<g id="edge7" class="edge">
<title>Node4&#45;&gt;Node8</title>
<path fill="none" stroke="midnightblue" d="M257,-56.08C257,-49.01 257,-38.86 257,-29.99"/>
<polygon fill="midnightblue" stroke="midnightblue" points="260.5,-29.75 257,-19.75 253.5,-29.75 260.5,-29.75"/>
</g>
<!-- Node9 -->
<g id="node9" class="node">
<title>Node9</title>
<g id="a_node9"><a xlink:title=" ">
<polygon fill="white" stroke="#bfbfbf" points="296.5,-0.5 296.5,-19.5 337.5,-19.5 337.5,-0.5 296.5,-0.5"/>
<text text-anchor="middle" x="317" y="-7.5" font-family="Helvetica,sans-Serif" font-size="10.00">future</text>
</a>
</g>
</g>
<!-- Node4&#45;&gt;Node9 -->
<g id="edge8" class="edge">
<title>Node4&#45;&gt;Node9</title>
<path fill="none" stroke="midnightblue" d="M266.64,-56.32C275.51,-48.34 288.87,-36.31 299.61,-26.65"/>
<polygon fill="midnightblue" stroke="midnightblue" points="302.09,-29.13 307.18,-19.83 297.41,-23.92 302.09,-29.13"/>
</g>
<!-- Node10 -->
<g id="node10" class="node">
<title>Node10</title>
<g id="a_node10"><a xlink:title=" ">
<polygon fill="white" stroke="#bfbfbf" points="356,-0.5 356,-19.5 408,-19.5 408,-0.5 356,-0.5"/>
<text text-anchor="middle" x="382" y="-7.5" font-family="Helvetica,sans-Serif" font-size="10.00">memory</text>
</a>
</g>
</g>
<!-- Node4&#45;&gt;Node10 -->
<g id="edge9" class="edge">
<title>Node4&#45;&gt;Node10</title>
<path fill="none" stroke="midnightblue" d="M276.81,-56.44C297.29,-47.6 329.48,-33.69 352.86,-23.59"/>
<polygon fill="midnightblue" stroke="midnightblue" points="354.49,-26.7 362.29,-19.52 351.72,-20.27 354.49,-26.7"/>
</g>
<!-- Node11 -->
<g id="node11" class="node">
<title>Node11</title>
<g id="a_node11"><a xlink:title=" ">
<polygon fill="white" stroke="#bfbfbf" points="426,-0.5 426,-19.5 480,-19.5 480,-0.5 426,-0.5"/>
<text text-anchor="middle" x="453" y="-7.5" font-family="Helvetica,sans-Serif" font-size="10.00">iostream</text>
</a>
</g>
</g>
<!-- Node4&#45;&gt;Node11 -->
<g id="edge10" class="edge">
<title>Node4&#45;&gt;Node11</title>
<path fill="none" stroke="midnightblue" d="M288.06,-56.44C322.79,-46.87 379,-31.39 415.99,-21.2"/>
<polygon fill="midnightblue" stroke="midnightblue" points="417.16,-24.5 425.88,-18.47 415.31,-17.75 417.16,-24.5"/>
</g>
<!-- Node12&#45;&gt;Node3 -->
<g id="edge13" class="edge">
<title>Node12&#45;&gt;Node3</title>
<path fill="none" stroke="midnightblue" d="M310.13,-131.75C311.66,-138.86 312.1,-149.14 311.47,-158.1"/>
<polygon fill="midnightblue" stroke="midnightblue" points="307.99,-157.71 310.17,-168.08 314.93,-158.62 307.99,-157.71"/>
</g>
<!-- Node12&#45;&gt;Node4 -->
<g id="edge12" class="edge">
<title>Node12&#45;&gt;Node4</title>
<path fill="none" stroke="midnightblue" d="M297.07,-112.08C290.15,-104.3 279.93,-92.8 271.55,-83.37"/>
<polygon fill="midnightblue" stroke="midnightblue" points="274.04,-80.9 264.78,-75.75 268.81,-85.55 274.04,-80.9"/>
</g>
</g>
</svg>
