<?xml version="1.0" encoding="UTF-8" standalone="no"?>
<!DOCTYPE svg PUBLIC "-//W3C//DTD SVG 1.1//EN"
 "http://www.w3.org/Graphics/SVG/1.1/DTD/svg11.dtd">
<!-- Generated by graphviz version 2.44.1 (20200629.0846)
 -->
<!-- Title: kryne&#45;engine/src/Material/Material.cpp Pages: 1 -->
<svg width="1750pt" height="676pt"
 viewBox="0.00 0.00 1750.00 676.00" xmlns="http://www.w3.org/2000/svg" xmlns:xlink="http://www.w3.org/1999/xlink">
<g id="graph0" class="graph" transform="scale(1 1) rotate(0) translate(4 672)">
<title>kryne&#45;engine/src/Material/Material.cpp</title>
<polygon fill="white" stroke="transparent" points="-4,4 -4,-672 1746,-672 1746,4 -4,4"/>
<!-- Node1 -->
<g id="node1" class="node">
<title>Node1</title>
<g id="a_node1"><a xlink:title=" ">
<polygon fill="#bfbfbf" stroke="black" points="9,-637.5 9,-667.5 135,-667.5 135,-637.5 9,-637.5"/>
<text text-anchor="start" x="17" y="-655.5" font-family="Helvetica,sans-Serif" font-size="10.00">kryne&#45;engine/src/Material</text>
<text text-anchor="middle" x="72" y="-644.5" font-family="Helvetica,sans-Serif" font-size="10.00">/Material.cpp</text>
</a>
</g>
</g>
<!-- Node2 -->
<g id="node2" class="node">
<title>Node2</title>
<g id="a_node2"><a xlink:title=" ">
<polygon fill="white" stroke="#bfbfbf" points="0,-576 0,-595 48,-595 48,-576 0,-576"/>
<text text-anchor="middle" x="24" y="-583" font-family="Helvetica,sans-Serif" font-size="10.00">imgui.h</text>
</a>
</g>
</g>
<!-- Node1&#45;&gt;Node2 -->
<g id="edge1" class="edge">
<title>Node1&#45;&gt;Node2</title>
<path fill="none" stroke="midnightblue" d="M61.58,-637.4C54.17,-627.36 44.19,-613.84 36.37,-603.25"/>
<polygon fill="midnightblue" stroke="midnightblue" points="39.18,-601.16 30.42,-595.19 33.55,-605.32 39.18,-601.16"/>
</g>
<!-- Node3 -->
<g id="node3" class="node">
<title>Node3</title>
<g id="a_node3"><a xlink:href="kryne-engine_2_material_2_material_8h.html" target="_top" xlink:title=" ">
<polygon fill="white" stroke="black" points="66,-570.5 66,-600.5 176,-600.5 176,-570.5 66,-570.5"/>
<text text-anchor="start" x="74" y="-588.5" font-family="Helvetica,sans-Serif" font-size="10.00">kryne&#45;engine/Material</text>
<text text-anchor="middle" x="121" y="-577.5" font-family="Helvetica,sans-Serif" font-size="10.00">/Material.h</text>
</a>
</g>
</g>
<!-- Node1&#45;&gt;Node3 -->
<g id="edge2" class="edge">
<title>Node1&#45;&gt;Node3</title>
<path fill="none" stroke="midnightblue" d="M82.63,-637.4C88.92,-629.05 97.04,-618.29 104.18,-608.81"/>
<polygon fill="midnightblue" stroke="midnightblue" points="107.16,-610.67 110.39,-600.58 101.57,-606.45 107.16,-610.67"/>
</g>
<!-- Node4 -->
<g id="node4" class="node">
<title>Node4</title>
<g id="a_node4"><a xlink:href="_material_side_8h.html" target="_top" xlink:title=" ">
<polygon fill="white" stroke="black" points="1,-503.5 1,-533.5 105,-533.5 105,-503.5 1,-503.5"/>
<text text-anchor="start" x="9" y="-521.5" font-family="Helvetica,sans-Serif" font-size="10.00">kryne&#45;engine/enums</text>
<text text-anchor="middle" x="53" y="-510.5" font-family="Helvetica,sans-Serif" font-size="10.00">/MaterialSide.h</text>
</a>
</g>
</g>
<!-- Node3&#45;&gt;Node4 -->
<g id="edge3" class="edge">
<title>Node3&#45;&gt;Node4</title>
<path fill="none" stroke="midnightblue" d="M106.25,-570.4C97.16,-561.71 85.33,-550.4 75.13,-540.66"/>
<polygon fill="midnightblue" stroke="midnightblue" points="77.37,-537.96 67.73,-533.58 72.54,-543.02 77.37,-537.96"/>
</g>
<!-- Node5 -->
<g id="node5" class="node">
<title>Node5</title>
<g id="a_node5"><a xlink:href="_shader_program_compiler_8h.html" target="_top" xlink:title=" ">
<polygon fill="white" stroke="black" points="123,-503.5 123,-533.5 257,-533.5 257,-503.5 123,-503.5"/>
<text text-anchor="start" x="131" y="-521.5" font-family="Helvetica,sans-Serif" font-size="10.00">kryne&#45;engine/Rendering</text>
<text text-anchor="middle" x="190" y="-510.5" font-family="Helvetica,sans-Serif" font-size="10.00">/ShaderProgramCompiler.h</text>
</a>
</g>
</g>
<!-- Node3&#45;&gt;Node5 -->
<g id="edge4" class="edge">
<title>Node3&#45;&gt;Node5</title>
<path fill="none" stroke="midnightblue" d="M135.97,-570.4C145.19,-561.71 157.19,-550.4 167.54,-540.66"/>
<polygon fill="midnightblue" stroke="midnightblue" points="170.18,-542.98 175.06,-533.58 165.38,-537.89 170.18,-542.98"/>
</g>
<!-- Node6 -->
<g id="node6" class="node">
<title>Node6</title>
<g id="a_node6"><a xlink:title=" ">
<polygon fill="white" stroke="#bfbfbf" points="30.5,-442 30.5,-461 71.5,-461 71.5,-442 30.5,-442"/>
<text text-anchor="middle" x="51" y="-449" font-family="Helvetica,sans-Serif" font-size="10.00">regex</text>
</a>
</g>
</g>
<!-- Node5&#45;&gt;Node6 -->
<g id="edge5" class="edge">
<title>Node5&#45;&gt;Node6</title>
<path fill="none" stroke="midnightblue" d="M159.84,-503.4C135.56,-492.04 101.72,-476.22 78.25,-465.24"/>
<polygon fill="midnightblue" stroke="midnightblue" points="79.73,-462.07 69.19,-461.01 76.77,-468.41 79.73,-462.07"/>
</g>
<!-- Node7 -->
<g id="node7" class="node">
<title>Node7</title>
<g id="a_node7"><a xlink:href="_shader_8h.html" target="_top" xlink:title=" ">
<polygon fill="white" stroke="black" points="419,-436.5 419,-466.5 529,-466.5 529,-436.5 419,-436.5"/>
<text text-anchor="start" x="427" y="-454.5" font-family="Helvetica,sans-Serif" font-size="10.00">kryne&#45;engine/Material</text>
<text text-anchor="middle" x="474" y="-443.5" font-family="Helvetica,sans-Serif" font-size="10.00">/Shader.h</text>
</a>
</g>
</g>
<!-- Node5&#45;&gt;Node7 -->
<g id="edge6" class="edge">
<title>Node5&#45;&gt;Node7</title>
<path fill="none" stroke="midnightblue" d="M251.27,-503.48C297.71,-492.85 361.38,-478.28 408.76,-467.43"/>
<polygon fill="midnightblue" stroke="midnightblue" points="409.64,-470.82 418.61,-465.18 408.08,-464 409.64,-470.82"/>
</g>
<!-- Node10 -->
<g id="node10" class="node">
<title>Node10</title>
<g id="a_node10"><a xlink:href="_dispatcher_8h.html" target="_top" xlink:title=" ">
<polygon fill="white" stroke="black" points="143.5,-235.5 143.5,-265.5 256.5,-265.5 256.5,-235.5 143.5,-235.5"/>
<text text-anchor="start" x="151.5" y="-253.5" font-family="Helvetica,sans-Serif" font-size="10.00">kryne&#45;engine/Dispatch</text>
<text text-anchor="middle" x="200" y="-242.5" font-family="Helvetica,sans-Serif" font-size="10.00">/Dispatcher.h</text>
</a>
</g>
</g>
<!-- Node5&#45;&gt;Node10 -->
<g id="edge74" class="edge">
<title>Node5&#45;&gt;Node10</title>
<path fill="none" stroke="midnightblue" d="M182.06,-503.32C163.4,-468.01 120.47,-373.79 150,-302 154.68,-290.62 163.31,-280.43 172.1,-272.25"/>
<polygon fill="midnightblue" stroke="midnightblue" points="174.51,-274.79 179.76,-265.59 169.92,-269.5 174.51,-274.79"/>
</g>
<!-- Node46 -->
<g id="node41" class="node">
<title>Node46</title>
<g id="a_node41"><a xlink:href="_buffer_geometry_8h.html" target="_top" xlink:title=" ">
<polygon fill="white" stroke="black" points="1162,-369.5 1162,-399.5 1280,-399.5 1280,-369.5 1162,-369.5"/>
<text text-anchor="start" x="1170" y="-387.5" font-family="Helvetica,sans-Serif" font-size="10.00">kryne&#45;engine/Geometry</text>
<text text-anchor="middle" x="1221" y="-376.5" font-family="Helvetica,sans-Serif" font-size="10.00">/BufferGeometry.h</text>
</a>
</g>
</g>
<!-- Node5&#45;&gt;Node46 -->
<g id="edge52" class="edge">
<title>Node5&#45;&gt;Node46</title>
<path fill="none" stroke="midnightblue" d="M257.25,-508.89C443.29,-485.07 963.46,-418.47 1151.81,-394.36"/>
<polygon fill="midnightblue" stroke="midnightblue" points="1152.39,-397.81 1161.86,-393.07 1151.5,-390.87 1152.39,-397.81"/>
</g>
<!-- Node8 -->
<g id="node8" class="node">
<title>Node8</title>
<g id="a_node8"><a xlink:title=" ">
<polygon fill="white" stroke="#bfbfbf" points="658.5,-375 658.5,-394 693.5,-394 693.5,-375 658.5,-375"/>
<text text-anchor="middle" x="676" y="-382" font-family="Helvetica,sans-Serif" font-size="10.00">map</text>
</a>
</g>
</g>
<!-- Node7&#45;&gt;Node8 -->
<g id="edge7" class="edge">
<title>Node7&#45;&gt;Node8</title>
<path fill="none" stroke="midnightblue" d="M529.01,-437.82C563.99,-428.98 609.91,-415.93 649,-400 650.03,-399.58 651.08,-399.13 652.13,-398.66"/>
<polygon fill="midnightblue" stroke="midnightblue" points="654.01,-401.63 661.42,-394.06 650.9,-395.36 654.01,-401.63"/>
</g>
<!-- Node9 -->
<g id="node9" class="node">
<title>Node9</title>
<g id="a_node9"><a xlink:title=" ">
<polygon fill="white" stroke="#bfbfbf" points="712,-375 712,-394 764,-394 764,-375 712,-375"/>
<text text-anchor="middle" x="738" y="-382" font-family="Helvetica,sans-Serif" font-size="10.00">sstream</text>
</a>
</g>
</g>
<!-- Node7&#45;&gt;Node9 -->
<g id="edge8" class="edge">
<title>Node7&#45;&gt;Node9</title>
<path fill="none" stroke="midnightblue" d="M529.31,-441.13C576.14,-432.52 644.75,-418.33 703,-400 705.14,-399.33 707.33,-398.57 709.52,-397.78"/>
<polygon fill="midnightblue" stroke="midnightblue" points="710.92,-400.99 718.97,-394.09 708.38,-394.47 710.92,-400.99"/>
</g>
<!-- Node7&#45;&gt;Node10 -->
<g id="edge9" class="edge">
<title>Node7&#45;&gt;Node10</title>
<path fill="none" stroke="midnightblue" d="M418.96,-449.79C342.78,-445.36 208.75,-424.26 157,-333 145.67,-313.03 160.56,-289.84 175.83,-273.31"/>
<polygon fill="midnightblue" stroke="midnightblue" points="178.72,-275.36 183.24,-265.78 173.74,-270.45 178.72,-275.36"/>
</g>
<!-- Node25 -->
<g id="node21" class="node">
<title>Node25</title>
<g id="a_node21"><a xlink:href="_uniforms_handler_8h.html" target="_top" xlink:title=" ">
<polygon fill="white" stroke="black" points="544,-375 544,-394 640,-394 640,-375 544,-375"/>
<text text-anchor="middle" x="592" y="-382" font-family="Helvetica,sans-Serif" font-size="10.00">UniformsHandler.h</text>
</a>
</g>
</g>
<!-- Node7&#45;&gt;Node25 -->
<g id="edge23" class="edge">
<title>Node7&#45;&gt;Node25</title>
<path fill="none" stroke="midnightblue" d="M499.6,-436.4C519.85,-425.24 547.92,-409.78 567.79,-398.83"/>
<polygon fill="midnightblue" stroke="midnightblue" points="569.49,-401.9 576.56,-394.01 566.11,-395.77 569.49,-401.9"/>
</g>
<!-- Node39 -->
<g id="node35" class="node">
<title>Node39</title>
<g id="a_node35"><a xlink:href="_shader_chunk_8h.html" target="_top" xlink:title=" ">
<polygon fill="white" stroke="black" points="277.5,-375 277.5,-394 360.5,-394 360.5,-375 277.5,-375"/>
<text text-anchor="middle" x="319" y="-382" font-family="Helvetica,sans-Serif" font-size="10.00">ShaderChunk.h</text>
</a>
</g>
</g>
<!-- Node7&#45;&gt;Node39 -->
<g id="edge42" class="edge">
<title>Node7&#45;&gt;Node39</title>
<path fill="none" stroke="midnightblue" d="M440.37,-436.4C413.05,-424.94 374.89,-408.94 348.69,-397.95"/>
<polygon fill="midnightblue" stroke="midnightblue" points="349.86,-394.65 339.29,-394.01 347.15,-401.1 349.86,-394.65"/>
</g>
<!-- Node11 -->
<g id="node11" class="node">
<title>Node11</title>
<g id="a_node11"><a xlink:href="_synchronizable_pool_8h.html" target="_top" xlink:title=" ">
<polygon fill="white" stroke="black" points="409.5,-123.5 409.5,-142.5 520.5,-142.5 520.5,-123.5 409.5,-123.5"/>
<text text-anchor="middle" x="465" y="-130.5" font-family="Helvetica,sans-Serif" font-size="10.00">SynchronizablePool.h</text>
</a>
</g>
</g>
<!-- Node10&#45;&gt;Node11 -->
<g id="edge10" class="edge">
<title>Node10&#45;&gt;Node11</title>
<path fill="none" stroke="midnightblue" d="M232.23,-235.45C284.34,-212.74 386.29,-168.3 436.15,-146.57"/>
<polygon fill="midnightblue" stroke="midnightblue" points="437.63,-149.75 445.4,-142.54 434.84,-143.33 437.63,-149.75"/>
</g>
<!-- Node22 -->
<g id="node18" class="node">
<title>Node22</title>
<g id="a_node18"><a xlink:href="_runner_pool_8h.html" target="_top" xlink:title=" ">
<polygon fill="white" stroke="black" points="228.5,-123.5 228.5,-142.5 303.5,-142.5 303.5,-123.5 228.5,-123.5"/>
<text text-anchor="middle" x="266" y="-130.5" font-family="Helvetica,sans-Serif" font-size="10.00">RunnerPool.h</text>
</a>
</g>
</g>
<!-- Node10&#45;&gt;Node22 -->
<g id="edge17" class="edge">
<title>Node10&#45;&gt;Node22</title>
<path fill="none" stroke="midnightblue" d="M208.09,-235.34C220.15,-214.24 242.8,-174.6 255.92,-151.65"/>
<polygon fill="midnightblue" stroke="midnightblue" points="259.12,-153.09 261.05,-142.67 253.05,-149.62 259.12,-153.09"/>
</g>
<!-- Node23 -->
<g id="node19" class="node">
<title>Node23</title>
<g id="a_node19"><a xlink:href="_main_pool_8h.html" target="_top" xlink:title=" ">
<polygon fill="white" stroke="black" points="432.5,-179.5 432.5,-198.5 497.5,-198.5 497.5,-179.5 432.5,-179.5"/>
<text text-anchor="middle" x="465" y="-186.5" font-family="Helvetica,sans-Serif" font-size="10.00">MainPool.h</text>
</a>
</g>
</g>
<!-- Node10&#45;&gt;Node23 -->
<g id="edge19" class="edge">
<title>Node10&#45;&gt;Node23</title>
<path fill="none" stroke="midnightblue" d="M256.52,-236.81C306.16,-225.66 377.29,-209.69 422.3,-199.59"/>
<polygon fill="midnightblue" stroke="midnightblue" points="423.33,-202.94 432.32,-197.34 421.8,-196.11 423.33,-202.94"/>
</g>
<!-- Node12 -->
<g id="node12" class="node">
<title>Node12</title>
<g id="a_node12"><a xlink:href="_thread_pool_8h.html" target="_top" xlink:title=" ">
<polygon fill="white" stroke="red" points="995,-62 995,-81 1069,-81 1069,-62 995,-62"/>
<text text-anchor="middle" x="1032" y="-69" font-family="Helvetica,sans-Serif" font-size="10.00">ThreadPool.h</text>
</a>
</g>
</g>
<!-- Node11&#45;&gt;Node12 -->
<g id="edge11" class="edge">
<title>Node11&#45;&gt;Node12</title>
<path fill="none" stroke="midnightblue" d="M520.66,-126.16C632.07,-114.47 880.7,-88.38 984.77,-77.46"/>
<polygon fill="midnightblue" stroke="midnightblue" points="985.38,-80.91 994.96,-76.39 984.65,-73.95 985.38,-80.91"/>
</g>
<!-- Node13 -->
<g id="node13" class="node">
<title>Node13</title>
<g id="a_node13"><a xlink:title=" ">
<polygon fill="white" stroke="#bfbfbf" points="1021,-0.5 1021,-19.5 1065,-19.5 1065,-0.5 1021,-0.5"/>
<text text-anchor="middle" x="1043" y="-7.5" font-family="Helvetica,sans-Serif" font-size="10.00">thread</text>
</a>
</g>
</g>
<!-- Node12&#45;&gt;Node13 -->
<g id="edge12" class="edge">
<title>Node12&#45;&gt;Node13</title>
<path fill="none" stroke="midnightblue" d="M1033.58,-61.98C1035.13,-53.58 1037.55,-40.48 1039.55,-29.66"/>
<polygon fill="midnightblue" stroke="midnightblue" points="1043.05,-29.98 1041.43,-19.51 1036.17,-28.71 1043.05,-29.98"/>
</g>
<!-- Node14 -->
<g id="node14" class="node">
<title>Node14</title>
<g id="a_node14"><a xlink:title=" ">
<polygon fill="white" stroke="#bfbfbf" points="1104,-0.5 1104,-19.5 1148,-19.5 1148,-0.5 1104,-0.5"/>
<text text-anchor="middle" x="1126" y="-7.5" font-family="Helvetica,sans-Serif" font-size="10.00">mutex</text>
</a>
</g>
</g>
<!-- Node12&#45;&gt;Node14 -->
<g id="edge13" class="edge">
<title>Node12&#45;&gt;Node14</title>
<path fill="none" stroke="midnightblue" d="M1045.47,-61.98C1060.68,-52.34 1085.69,-36.52 1103.8,-25.05"/>
<polygon fill="midnightblue" stroke="midnightblue" points="1105.98,-27.81 1112.56,-19.51 1102.24,-21.9 1105.98,-27.81"/>
</g>
<!-- Node15 -->
<g id="node15" class="node">
<title>Node15</title>
<g id="a_node15"><a xlink:title=" ">
<polygon fill="white" stroke="#bfbfbf" points="909.5,-0.5 909.5,-19.5 1002.5,-19.5 1002.5,-0.5 909.5,-0.5"/>
<text text-anchor="middle" x="956" y="-7.5" font-family="Helvetica,sans-Serif" font-size="10.00">condition_variable</text>
</a>
</g>
</g>
<!-- Node12&#45;&gt;Node15 -->
<g id="edge14" class="edge">
<title>Node12&#45;&gt;Node15</title>
<path fill="none" stroke="midnightblue" d="M1021.11,-61.98C1009.03,-52.52 989.33,-37.1 974.76,-25.69"/>
<polygon fill="midnightblue" stroke="midnightblue" points="976.9,-22.92 966.87,-19.51 972.59,-28.43 976.9,-22.92"/>
</g>
<!-- Node17 -->
<g id="node16" class="node">
<title>Node17</title>
<g id="a_node16"><a xlink:title=" ">
<polygon fill="white" stroke="#bfbfbf" points="1327,-0.5 1327,-19.5 1379,-19.5 1379,-0.5 1327,-0.5"/>
<text text-anchor="middle" x="1353" y="-7.5" font-family="Helvetica,sans-Serif" font-size="10.00">memory</text>
</a>
</g>
</g>
<!-- Node12&#45;&gt;Node17 -->
<g id="edge15" class="edge">
<title>Node12&#45;&gt;Node17</title>
<path fill="none" stroke="midnightblue" d="M1057.68,-61.88C1064.56,-59.77 1072.02,-57.64 1079,-56 1163.07,-36.23 1263.67,-22.09 1316.48,-15.38"/>
<polygon fill="midnightblue" stroke="midnightblue" points="1317.21,-18.82 1326.7,-14.11 1316.34,-11.87 1317.21,-18.82"/>
</g>
<!-- Node18 -->
<g id="node17" class="node">
<title>Node18</title>
<g id="a_node17"><a xlink:title=" ">
<polygon fill="white" stroke="#bfbfbf" points="757,-0.5 757,-19.5 811,-19.5 811,-0.5 757,-0.5"/>
<text text-anchor="middle" x="784" y="-7.5" font-family="Helvetica,sans-Serif" font-size="10.00">iostream</text>
</a>
</g>
</g>
<!-- Node12&#45;&gt;Node18 -->
<g id="edge16" class="edge">
<title>Node12&#45;&gt;Node18</title>
<path fill="none" stroke="midnightblue" d="M1002.94,-61.95C995.79,-59.93 988.13,-57.83 981,-56 925.63,-41.81 860.93,-27.46 821.22,-18.89"/>
<polygon fill="midnightblue" stroke="midnightblue" points="821.71,-15.42 811.19,-16.74 820.24,-22.26 821.71,-15.42"/>
</g>
<!-- Node22&#45;&gt;Node12 -->
<g id="edge18" class="edge">
<title>Node22&#45;&gt;Node12</title>
<path fill="none" stroke="midnightblue" d="M303.72,-129.07C430.93,-119.19 843.98,-87.1 984.61,-76.18"/>
<polygon fill="midnightblue" stroke="midnightblue" points="984.95,-79.67 994.65,-75.4 984.41,-72.69 984.95,-79.67"/>
</g>
<!-- Node23&#45;&gt;Node11 -->
<g id="edge22" class="edge">
<title>Node23&#45;&gt;Node11</title>
<path fill="none" stroke="midnightblue" d="M465,-179.08C465,-172.01 465,-161.86 465,-152.99"/>
<polygon fill="midnightblue" stroke="midnightblue" points="468.5,-152.75 465,-142.75 461.5,-152.75 468.5,-152.75"/>
</g>
<!-- Node24 -->
<g id="node20" class="node">
<title>Node24</title>
<g id="a_node20"><a xlink:href="_multithreading_8hpp.html" target="_top" xlink:title=" ">
<polygon fill="white" stroke="black" points="1087.5,-56.5 1087.5,-86.5 1186.5,-86.5 1186.5,-56.5 1087.5,-56.5"/>
<text text-anchor="start" x="1095.5" y="-74.5" font-family="Helvetica,sans-Serif" font-size="10.00">kryne&#45;engine/Utils</text>
<text text-anchor="middle" x="1137" y="-63.5" font-family="Helvetica,sans-Serif" font-size="10.00">/Multithreading.hpp</text>
</a>
</g>
</g>
<!-- Node23&#45;&gt;Node24 -->
<g id="edge20" class="edge">
<title>Node23&#45;&gt;Node24</title>
<path fill="none" stroke="midnightblue" d="M497.62,-182.97C604.8,-166.39 946.2,-113.13 1077.65,-86.95"/>
<polygon fill="midnightblue" stroke="midnightblue" points="1078.38,-90.38 1087.49,-84.96 1076.99,-83.52 1078.38,-90.38"/>
</g>
<!-- Node24&#45;&gt;Node14 -->
<g id="edge21" class="edge">
<title>Node24&#45;&gt;Node14</title>
<path fill="none" stroke="midnightblue" d="M1134.39,-56.4C1132.91,-48.38 1131.03,-38.23 1129.43,-29.57"/>
<polygon fill="midnightblue" stroke="midnightblue" points="1132.86,-28.85 1127.6,-19.66 1125.98,-30.13 1132.86,-28.85"/>
</g>
<!-- Node26 -->
<g id="node22" class="node">
<title>Node26</title>
<g id="a_node22"><a xlink:title=" ">
<polygon fill="white" stroke="#bfbfbf" points="393.5,-241 393.5,-260 434.5,-260 434.5,-241 393.5,-241"/>
<text text-anchor="middle" x="414" y="-248" font-family="Helvetica,sans-Serif" font-size="10.00">string</text>
</a>
</g>
</g>
<!-- Node25&#45;&gt;Node26 -->
<g id="edge24" class="edge">
<title>Node25&#45;&gt;Node26</title>
<path fill="none" stroke="midnightblue" d="M543.97,-376.47C496.8,-368.47 429.69,-353.76 414,-333 400.44,-315.05 403.72,-287.96 408.16,-270.01"/>
<polygon fill="midnightblue" stroke="midnightblue" points="411.59,-270.75 410.93,-260.17 404.85,-268.85 411.59,-270.75"/>
</g>
<!-- Node27 -->
<g id="node23" class="node">
<title>Node27</title>
<g id="a_node23"><a xlink:title=" ">
<polygon fill="white" stroke="#bfbfbf" points="655.5,-308 655.5,-327 738.5,-327 738.5,-308 655.5,-308"/>
<text text-anchor="middle" x="697" y="-315" font-family="Helvetica,sans-Serif" font-size="10.00">unordered_map</text>
</a>
</g>
</g>
<!-- Node25&#45;&gt;Node27 -->
<g id="edge25" class="edge">
<title>Node25&#45;&gt;Node27</title>
<path fill="none" stroke="midnightblue" d="M606.16,-374.73C623.71,-363.87 653.84,-345.22 674.56,-332.39"/>
<polygon fill="midnightblue" stroke="midnightblue" points="676.4,-335.37 683.06,-327.13 672.72,-329.41 676.4,-335.37"/>
</g>
<!-- Node28 -->
<g id="node24" class="node">
<title>Node28</title>
<g id="a_node24"><a xlink:title=" ">
<polygon fill="white" stroke="#bfbfbf" points="946,-241 946,-260 1010,-260 1010,-241 946,-241"/>
<text text-anchor="middle" x="978" y="-248" font-family="Helvetica,sans-Serif" font-size="10.00">glad/glad.h</text>
</a>
</g>
</g>
<!-- Node25&#45;&gt;Node28 -->
<g id="edge26" class="edge">
<title>Node25&#45;&gt;Node28</title>
<path fill="none" stroke="midnightblue" d="M622.21,-374.99C631.1,-372.75 640.89,-370.53 650,-369 695.1,-361.43 1029.11,-366.72 1060,-333 1083.08,-307.81 1039.22,-280.09 1007.24,-264.34"/>
<polygon fill="midnightblue" stroke="midnightblue" points="1008.72,-261.17 998.19,-260.04 1005.72,-267.49 1008.72,-261.17"/>
</g>
<!-- Node29 -->
<g id="node25" class="node">
<title>Node29</title>
<g id="a_node25"><a xlink:title=" ">
<polygon fill="white" stroke="#bfbfbf" points="850,-241 850,-260 928,-260 928,-241 850,-241"/>
<text text-anchor="middle" x="889" y="-248" font-family="Helvetica,sans-Serif" font-size="10.00">GLFW/glfw3.h</text>
</a>
</g>
</g>
<!-- Node25&#45;&gt;Node29 -->
<g id="edge27" class="edge">
<title>Node25&#45;&gt;Node29</title>
<path fill="none" stroke="midnightblue" d="M623.47,-374.96C632.03,-372.82 641.34,-370.66 650,-369 709.02,-357.7 878.44,-378.23 918,-333 934.31,-314.35 917.55,-285.88 903.57,-268"/>
<polygon fill="midnightblue" stroke="midnightblue" points="906.16,-265.64 897.09,-260.16 900.77,-270.1 906.16,-265.64"/>
</g>
<!-- Node30 -->
<g id="node26" class="node">
<title>Node30</title>
<g id="a_node26"><a xlink:title=" ">
<polygon fill="white" stroke="#bfbfbf" points="1158,-241 1158,-260 1244,-260 1244,-241 1158,-241"/>
<text text-anchor="middle" x="1201" y="-248" font-family="Helvetica,sans-Serif" font-size="10.00">glm/mat4x4.hpp</text>
</a>
</g>
</g>
<!-- Node25&#45;&gt;Node30 -->
<g id="edge28" class="edge">
<title>Node25&#45;&gt;Node30</title>
<path fill="none" stroke="midnightblue" d="M622.21,-374.97C631.1,-372.73 640.89,-370.51 650,-369 837.88,-337.8 897,-395.22 1077,-333 1119.32,-318.37 1161.33,-286.04 1183.94,-266.79"/>
<polygon fill="midnightblue" stroke="midnightblue" points="1186.37,-269.32 1191.62,-260.11 1181.78,-264.03 1186.37,-269.32"/>
</g>
<!-- Node31 -->
<g id="node27" class="node">
<title>Node31</title>
<g id="a_node27"><a xlink:title=" ">
<polygon fill="white" stroke="#bfbfbf" points="423,-308 423,-327 529,-327 529,-308 423,-308"/>
<text text-anchor="middle" x="476" y="-315" font-family="Helvetica,sans-Serif" font-size="10.00">glm/gtc/type_ptr.hpp</text>
</a>
</g>
</g>
<!-- Node25&#45;&gt;Node31 -->
<g id="edge29" class="edge">
<title>Node25&#45;&gt;Node31</title>
<path fill="none" stroke="midnightblue" d="M576.36,-374.73C556.79,-363.77 523.08,-344.88 500.18,-332.05"/>
<polygon fill="midnightblue" stroke="midnightblue" points="501.83,-328.96 491.4,-327.13 498.41,-335.07 501.83,-328.96"/>
</g>
<!-- Node32 -->
<g id="node28" class="node">
<title>Node32</title>
<g id="a_node28"><a xlink:title=" ">
<polygon fill="white" stroke="#bfbfbf" points="547,-308 547,-327 637,-327 637,-308 547,-308"/>
<text text-anchor="middle" x="592" y="-315" font-family="Helvetica,sans-Serif" font-size="10.00">boost/variant.hpp</text>
</a>
</g>
</g>
<!-- Node25&#45;&gt;Node32 -->
<g id="edge30" class="edge">
<title>Node25&#45;&gt;Node32</title>
<path fill="none" stroke="midnightblue" d="M592,-374.73C592,-365.18 592,-349.62 592,-337.28"/>
<polygon fill="midnightblue" stroke="midnightblue" points="595.5,-337.13 592,-327.13 588.5,-337.13 595.5,-337.13"/>
</g>
<!-- Node33 -->
<g id="node29" class="node">
<title>Node33</title>
<g id="a_node29"><a xlink:href="_texture_8h.html" target="_top" xlink:title=" ">
<polygon fill="white" stroke="black" points="795.5,-302.5 795.5,-332.5 908.5,-332.5 908.5,-302.5 795.5,-302.5"/>
<text text-anchor="start" x="803.5" y="-320.5" font-family="Helvetica,sans-Serif" font-size="10.00">kryne&#45;engine/Textures</text>
<text text-anchor="middle" x="852" y="-309.5" font-family="Helvetica,sans-Serif" font-size="10.00">/Texture.h</text>
</a>
</g>
</g>
<!-- Node25&#45;&gt;Node33 -->
<g id="edge31" class="edge">
<title>Node25&#45;&gt;Node33</title>
<path fill="none" stroke="midnightblue" d="M626.26,-374.94C666.72,-364.82 734.95,-347.76 785.83,-335.04"/>
<polygon fill="midnightblue" stroke="midnightblue" points="786.91,-338.38 795.76,-332.56 785.21,-331.59 786.91,-338.38"/>
</g>
<!-- Node33&#45;&gt;Node10 -->
<g id="edge41" class="edge">
<title>Node33&#45;&gt;Node10</title>
<path fill="none" stroke="midnightblue" d="M795.15,-304.2C790.37,-303.38 785.61,-302.63 781,-302 556.88,-271.42 494.85,-297.93 266.72,-265.94"/>
<polygon fill="midnightblue" stroke="midnightblue" points="267.18,-262.47 256.79,-264.53 266.19,-269.4 267.18,-262.47"/>
</g>
<!-- Node33&#45;&gt;Node18 -->
<g id="edge34" class="edge">
<title>Node33&#45;&gt;Node18</title>
<path fill="none" stroke="midnightblue" d="M838.24,-302.28C818.37,-280.17 784,-235.38 784,-190 784,-190 784,-190 784,-132 784,-95.71 784,-53.31 784,-29.56"/>
<polygon fill="midnightblue" stroke="midnightblue" points="787.5,-29.51 784,-19.51 780.5,-29.51 787.5,-29.51"/>
</g>
<!-- Node33&#45;&gt;Node26 -->
<g id="edge33" class="edge">
<title>Node33&#45;&gt;Node26</title>
<path fill="none" stroke="midnightblue" d="M795.12,-304.39C790.35,-303.52 785.6,-302.71 781,-302 632.15,-278.9 588.83,-307.38 444,-266 442.12,-265.46 440.22,-264.82 438.33,-264.1"/>
<polygon fill="midnightblue" stroke="midnightblue" points="439.73,-260.89 429.17,-260.08 436.92,-267.3 439.73,-260.89"/>
</g>
<!-- Node33&#45;&gt;Node28 -->
<g id="edge39" class="edge">
<title>Node33&#45;&gt;Node28</title>
<path fill="none" stroke="midnightblue" d="M879.34,-302.4C901.06,-291.19 931.2,-275.64 952.44,-264.69"/>
<polygon fill="midnightblue" stroke="midnightblue" points="954.23,-267.7 961.51,-260.01 951.02,-261.48 954.23,-267.7"/>
</g>
<!-- Node33&#45;&gt;Node29 -->
<g id="edge40" class="edge">
<title>Node33&#45;&gt;Node29</title>
<path fill="none" stroke="midnightblue" d="M860.03,-302.4C865.63,-292.56 873.13,-279.38 879.1,-268.89"/>
<polygon fill="midnightblue" stroke="midnightblue" points="882.15,-270.62 884.05,-260.19 876.06,-267.15 882.15,-270.62"/>
</g>
<!-- Node34 -->
<g id="node30" class="node">
<title>Node34</title>
<g id="a_node30"><a xlink:title=" ">
<polygon fill="white" stroke="#bfbfbf" points="560,-241 560,-260 630,-260 630,-241 560,-241"/>
<text text-anchor="middle" x="595" y="-248" font-family="Helvetica,sans-Serif" font-size="10.00">stb_image.h</text>
</a>
</g>
</g>
<!-- Node33&#45;&gt;Node34 -->
<g id="edge32" class="edge">
<title>Node33&#45;&gt;Node34</title>
<path fill="none" stroke="midnightblue" d="M795.45,-304.29C752.57,-294.72 692.29,-280.63 640,-266 636.84,-265.12 633.57,-264.15 630.29,-263.16"/>
<polygon fill="midnightblue" stroke="midnightblue" points="631.19,-259.77 620.6,-260.13 629.1,-266.45 631.19,-259.77"/>
</g>
<!-- Node35 -->
<g id="node31" class="node">
<title>Node35</title>
<g id="a_node31"><a xlink:title=" ">
<polygon fill="white" stroke="#bfbfbf" points="648.5,-241 648.5,-260 755.5,-260 755.5,-241 648.5,-241"/>
<text text-anchor="middle" x="702" y="-248" font-family="Helvetica,sans-Serif" font-size="10.00">boost/filesystem.hpp</text>
</a>
</g>
</g>
<!-- Node33&#45;&gt;Node35 -->
<g id="edge35" class="edge">
<title>Node33&#45;&gt;Node35</title>
<path fill="none" stroke="midnightblue" d="M819.45,-302.4C793.13,-290.99 756.41,-275.08 731.07,-264.1"/>
<polygon fill="midnightblue" stroke="midnightblue" points="732.2,-260.77 721.63,-260.01 729.42,-267.19 732.2,-260.77"/>
</g>
<!-- Node36 -->
<g id="node32" class="node">
<title>Node36</title>
<g id="a_node32"><a xlink:title=" ">
<polygon fill="white" stroke="#bfbfbf" points="452.5,-241 452.5,-260 541.5,-260 541.5,-241 452.5,-241"/>
<text text-anchor="middle" x="497" y="-248" font-family="Helvetica,sans-Serif" font-size="10.00">boost/format.hpp</text>
</a>
</g>
</g>
<!-- Node33&#45;&gt;Node36 -->
<g id="edge36" class="edge">
<title>Node33&#45;&gt;Node36</title>
<path fill="none" stroke="midnightblue" d="M795.46,-304.71C790.58,-303.76 785.7,-302.85 781,-302 679.17,-283.64 652.22,-287.45 551,-266 546.26,-265 541.32,-263.83 536.44,-262.61"/>
<polygon fill="midnightblue" stroke="midnightblue" points="537.13,-259.18 526.57,-260.05 535.37,-265.95 537.13,-259.18"/>
</g>
<!-- Node37 -->
<g id="node33" class="node">
<title>Node37</title>
<g id="a_node33"><a xlink:title=" ">
<polygon fill="white" stroke="#bfbfbf" points="1066,-241 1066,-260 1140,-260 1140,-241 1066,-241"/>
<text text-anchor="middle" x="1103" y="-248" font-family="Helvetica,sans-Serif" font-size="10.00">glm/vec2.hpp</text>
</a>
</g>
</g>
<!-- Node33&#45;&gt;Node37 -->
<g id="edge37" class="edge">
<title>Node33&#45;&gt;Node37</title>
<path fill="none" stroke="midnightblue" d="M906.15,-302.48C952.32,-290.52 1017.77,-273.57 1060.3,-262.56"/>
<polygon fill="midnightblue" stroke="midnightblue" points="1061.26,-265.92 1070.07,-260.03 1059.51,-259.15 1061.26,-265.92"/>
</g>
<!-- Node38 -->
<g id="node34" class="node">
<title>Node38</title>
<g id="a_node34"><a xlink:title=" ">
<polygon fill="white" stroke="#bfbfbf" points="1308,-179.5 1308,-198.5 1382,-198.5 1382,-179.5 1308,-179.5"/>
<text text-anchor="middle" x="1345" y="-186.5" font-family="Helvetica,sans-Serif" font-size="10.00">glm/vec3.hpp</text>
</a>
</g>
</g>
<!-- Node33&#45;&gt;Node38 -->
<g id="edge38" class="edge">
<title>Node33&#45;&gt;Node38</title>
<path fill="none" stroke="midnightblue" d="M844.18,-302.41C835.34,-284.39 824.23,-253.33 841,-235 871.47,-201.69 1177.92,-192.86 1297.54,-190.67"/>
<polygon fill="midnightblue" stroke="midnightblue" points="1297.91,-194.17 1307.84,-190.49 1297.78,-187.17 1297.91,-194.17"/>
</g>
<!-- Node39&#45;&gt;Node18 -->
<g id="edge46" class="edge">
<title>Node39&#45;&gt;Node18</title>
<path fill="none" stroke="midnightblue" d="M277.42,-380.79C204.69,-373.56 62,-347.18 62,-251.5 62,-251.5 62,-251.5 62,-132 62,-61.94 597.56,-22.81 746.16,-13.3"/>
<polygon fill="midnightblue" stroke="midnightblue" points="746.82,-16.76 756.58,-12.64 746.38,-9.78 746.82,-16.76"/>
</g>
<!-- Node39&#45;&gt;Node26 -->
<g id="edge44" class="edge">
<title>Node39&#45;&gt;Node26</title>
<path fill="none" stroke="midnightblue" d="M325.23,-374.84C340.8,-353.21 381.61,-296.51 402.02,-268.15"/>
<polygon fill="midnightblue" stroke="midnightblue" points="404.87,-270.18 407.87,-260.02 399.19,-266.09 404.87,-270.18"/>
</g>
<!-- Node39&#45;&gt;Node27 -->
<g id="edge43" class="edge">
<title>Node39&#45;&gt;Node27</title>
<path fill="none" stroke="midnightblue" d="M360.6,-378.75C423.02,-371.25 544.42,-355.19 646,-333 650.42,-332.03 655.02,-330.91 659.57,-329.71"/>
<polygon fill="midnightblue" stroke="midnightblue" points="660.64,-333.05 669.37,-327.03 658.8,-326.29 660.64,-333.05"/>
</g>
<!-- Node40 -->
<g id="node36" class="node">
<title>Node40</title>
<g id="a_node36"><a xlink:title=" ">
<polygon fill="white" stroke="#bfbfbf" points="166.5,-308 166.5,-327 215.5,-327 215.5,-308 166.5,-308"/>
<text text-anchor="middle" x="191" y="-315" font-family="Helvetica,sans-Serif" font-size="10.00">fstream</text>
</a>
</g>
</g>
<!-- Node39&#45;&gt;Node40 -->
<g id="edge45" class="edge">
<title>Node39&#45;&gt;Node40</title>
<path fill="none" stroke="midnightblue" d="M302,-374.87C280.29,-363.84 242.51,-344.66 217.13,-331.77"/>
<polygon fill="midnightblue" stroke="midnightblue" points="218.57,-328.57 208.07,-327.17 215.4,-334.82 218.57,-328.57"/>
</g>
<!-- Node41 -->
<g id="node37" class="node">
<title>Node41</title>
<g id="a_node37"><a xlink:href="kryne-engine_2_utils_2_utils_8h.html" target="_top" xlink:title=" ">
<polygon fill="white" stroke="black" points="233.5,-302.5 233.5,-332.5 328.5,-332.5 328.5,-302.5 233.5,-302.5"/>
<text text-anchor="start" x="241.5" y="-320.5" font-family="Helvetica,sans-Serif" font-size="10.00">kryne&#45;engine/Utils</text>
<text text-anchor="middle" x="281" y="-309.5" font-family="Helvetica,sans-Serif" font-size="10.00">/Utils.h</text>
</a>
</g>
</g>
<!-- Node39&#45;&gt;Node41 -->
<g id="edge47" class="edge">
<title>Node39&#45;&gt;Node41</title>
<path fill="none" stroke="midnightblue" d="M313.88,-374.73C308.89,-366.2 301.1,-352.87 294.35,-341.33"/>
<polygon fill="midnightblue" stroke="midnightblue" points="297.31,-339.46 289.24,-332.59 291.26,-342.99 297.31,-339.46"/>
</g>
<!-- Node42 -->
<g id="node38" class="node">
<title>Node42</title>
<g id="a_node38"><a xlink:href="_string_utils_8hpp.html" target="_top" xlink:title=" ">
<polygon fill="white" stroke="black" points="383,-62 383,-81 463,-81 463,-62 383,-62"/>
<text text-anchor="middle" x="423" y="-69" font-family="Helvetica,sans-Serif" font-size="10.00">StringUtils.hpp</text>
</a>
</g>
</g>
<!-- Node41&#45;&gt;Node42 -->
<g id="edge48" class="edge">
<title>Node41&#45;&gt;Node42</title>
<path fill="none" stroke="midnightblue" d="M233.25,-303.09C192.68,-291.23 140.08,-274.51 134,-266 126,-254.79 129.61,-248.06 134,-235 153.93,-175.77 166.8,-157.36 219,-123 265.41,-92.45 328.8,-80.38 372.54,-75.61"/>
<polygon fill="midnightblue" stroke="midnightblue" points="373.06,-79.07 382.66,-74.6 372.36,-72.11 373.06,-79.07"/>
</g>
<!-- Node43 -->
<g id="node39" class="node">
<title>Node43</title>
<g id="a_node39"><a xlink:href="_vector_mapping_8hpp.html" target="_top" xlink:title=" ">
<polygon fill="white" stroke="red" points="274.5,-241 274.5,-260 375.5,-260 375.5,-241 274.5,-241"/>
<text text-anchor="middle" x="325" y="-248" font-family="Helvetica,sans-Serif" font-size="10.00">VectorMapping.hpp</text>
</a>
</g>
</g>
<!-- Node41&#45;&gt;Node43 -->
<g id="edge50" class="edge">
<title>Node41&#45;&gt;Node43</title>
<path fill="none" stroke="midnightblue" d="M290.55,-302.4C297.27,-292.46 306.31,-279.11 313.44,-268.57"/>
<polygon fill="midnightblue" stroke="midnightblue" points="316.41,-270.44 319.11,-260.19 310.61,-266.51 316.41,-270.44"/>
</g>
<!-- Node42&#45;&gt;Node18 -->
<g id="edge49" class="edge">
<title>Node42&#45;&gt;Node18</title>
<path fill="none" stroke="midnightblue" d="M463.01,-63.91C533.38,-52.31 678.3,-28.42 746.7,-17.15"/>
<polygon fill="midnightblue" stroke="midnightblue" points="747.31,-20.59 756.61,-15.51 746.17,-13.69 747.31,-20.59"/>
</g>
<!-- Node44 -->
<g id="node40" class="node">
<title>Node44</title>
<g id="a_node40"><a xlink:title=" ">
<polygon fill="white" stroke="#bfbfbf" points="538,-179.5 538,-198.5 580,-198.5 580,-179.5 538,-179.5"/>
<text text-anchor="middle" x="559" y="-186.5" font-family="Helvetica,sans-Serif" font-size="10.00">vector</text>
</a>
</g>
</g>
<!-- Node43&#45;&gt;Node44 -->
<g id="edge51" class="edge">
<title>Node43&#45;&gt;Node44</title>
<path fill="none" stroke="midnightblue" d="M358.53,-240.98C403.8,-229.46 483.88,-209.1 527.88,-197.91"/>
<polygon fill="midnightblue" stroke="midnightblue" points="528.9,-201.26 537.73,-195.41 527.18,-194.48 528.9,-201.26"/>
</g>
<!-- Node46&#45;&gt;Node10 -->
<g id="edge61" class="edge">
<title>Node46&#45;&gt;Node10</title>
<path fill="none" stroke="midnightblue" d="M1161.79,-380.63C1059.29,-375 853.37,-360.57 787,-333 766.55,-324.51 768.62,-310.07 748,-302 650.81,-263.96 387.75,-280.55 266.98,-265.88"/>
<polygon fill="midnightblue" stroke="midnightblue" points="267.16,-262.37 256.79,-264.51 266.23,-269.31 267.16,-262.37"/>
</g>
<!-- Node46&#45;&gt;Node17 -->
<g id="edge54" class="edge">
<title>Node46&#45;&gt;Node17</title>
<path fill="none" stroke="midnightblue" d="M1280.33,-382.26C1387.03,-379.15 1606.37,-368.52 1673,-333 1714.88,-310.67 1742,-298.96 1742,-251.5 1742,-251.5 1742,-251.5 1742,-132 1742,-58.55 1485.91,-24.63 1389.3,-14.45"/>
<polygon fill="midnightblue" stroke="midnightblue" points="1389.43,-10.95 1379.13,-13.41 1388.72,-17.91 1389.43,-10.95"/>
</g>
<!-- Node46&#45;&gt;Node18 -->
<g id="edge55" class="edge">
<title>Node46&#45;&gt;Node18</title>
<path fill="none" stroke="midnightblue" d="M1215.15,-369.25C1209.18,-352.41 1202.08,-323.92 1212,-302 1222,-279.91 1243,-288.09 1253,-266 1258.68,-253.45 1260.35,-246.65 1253,-235 1227.17,-194.05 914.99,-64.31 814.76,-23.45"/>
<polygon fill="midnightblue" stroke="midnightblue" points="815.79,-20.09 805.21,-19.56 813.15,-26.57 815.79,-20.09"/>
</g>
<!-- Node46&#45;&gt;Node27 -->
<g id="edge56" class="edge">
<title>Node46&#45;&gt;Node27</title>
<path fill="none" stroke="midnightblue" d="M1161.87,-379.9C1072.69,-373.84 898.72,-359.58 753,-333 747.63,-332.02 742.01,-330.8 736.5,-329.49"/>
<polygon fill="midnightblue" stroke="midnightblue" points="737.3,-326.09 726.76,-327.06 735.61,-332.88 737.3,-326.09"/>
</g>
<!-- Node46&#45;&gt;Node37 -->
<g id="edge58" class="edge">
<title>Node46&#45;&gt;Node37</title>
<path fill="none" stroke="midnightblue" d="M1208.37,-369.37C1186.27,-344.65 1140.71,-293.68 1117.41,-267.62"/>
<polygon fill="midnightblue" stroke="midnightblue" points="1119.96,-265.22 1110.69,-260.1 1114.74,-269.89 1119.96,-265.22"/>
</g>
<!-- Node46&#45;&gt;Node38 -->
<g id="edge59" class="edge">
<title>Node46&#45;&gt;Node38</title>
<path fill="none" stroke="midnightblue" d="M1280.04,-382.79C1382.06,-380.53 1586.08,-371.23 1645,-333 1674.09,-314.12 1675.78,-299.43 1685,-266 1688.66,-252.72 1694.13,-245.32 1685,-235 1643.25,-187.83 1471.67,-207.43 1392.24,-198.83"/>
<polygon fill="midnightblue" stroke="midnightblue" points="1392.49,-195.34 1382.12,-197.5 1391.57,-202.28 1392.49,-195.34"/>
</g>
<!-- Node47 -->
<g id="node42" class="node">
<title>Node47</title>
<g id="a_node42"><a xlink:title=" ">
<polygon fill="white" stroke="#bfbfbf" points="1221,-308 1221,-327 1277,-327 1277,-308 1221,-308"/>
<text text-anchor="middle" x="1249" y="-315" font-family="Helvetica,sans-Serif" font-size="10.00">algorithm</text>
</a>
</g>
</g>
<!-- Node46&#45;&gt;Node47 -->
<g id="edge53" class="edge">
<title>Node46&#45;&gt;Node47</title>
<path fill="none" stroke="midnightblue" d="M1227.08,-369.4C1231.23,-359.76 1236.76,-346.91 1241.23,-336.54"/>
<polygon fill="midnightblue" stroke="midnightblue" points="1244.51,-337.76 1245.25,-327.19 1238.08,-334.99 1244.51,-337.76"/>
</g>
<!-- Node21 -->
<g id="node43" class="node">
<title>Node21</title>
<g id="a_node43"><a xlink:title=" ">
<polygon fill="white" stroke="#bfbfbf" points="1295,-308 1295,-327 1353,-327 1353,-308 1295,-308"/>
<text text-anchor="middle" x="1324" y="-315" font-family="Helvetica,sans-Serif" font-size="10.00">functional</text>
</a>
</g>
</g>
<!-- Node46&#45;&gt;Node21 -->
<g id="edge57" class="edge">
<title>Node46&#45;&gt;Node21</title>
<path fill="none" stroke="midnightblue" d="M1243.35,-369.4C1260.62,-358.5 1284.42,-343.48 1301.68,-332.58"/>
<polygon fill="midnightblue" stroke="midnightblue" points="1303.93,-335.3 1310.52,-327.01 1300.19,-329.38 1303.93,-335.3"/>
</g>
<!-- Node48 -->
<g id="node44" class="node">
<title>Node48</title>
<g id="a_node44"><a xlink:title=" ">
<polygon fill="white" stroke="#bfbfbf" points="1371.5,-308 1371.5,-327 1468.5,-327 1468.5,-308 1371.5,-308"/>
<text text-anchor="middle" x="1420" y="-315" font-family="Helvetica,sans-Serif" font-size="10.00">glm/geometric.hpp</text>
</a>
</g>
</g>
<!-- Node46&#45;&gt;Node48 -->
<g id="edge60" class="edge">
<title>Node46&#45;&gt;Node48</title>
<path fill="none" stroke="midnightblue" d="M1264.18,-369.4C1300.02,-357.69 1350.41,-341.23 1384.08,-330.23"/>
<polygon fill="midnightblue" stroke="midnightblue" points="1385.54,-333.44 1393.96,-327.01 1383.36,-326.78 1385.54,-333.44"/>
</g>
<!-- Node49 -->
<g id="node45" class="node">
<title>Node49</title>
<g id="a_node45"><a xlink:href="_sphere_8hpp.html" target="_top" xlink:title=" ">
<polygon fill="white" stroke="black" points="1486.5,-308 1486.5,-327 1635.5,-327 1635.5,-308 1486.5,-308"/>
<text text-anchor="middle" x="1561" y="-315" font-family="Helvetica,sans-Serif" font-size="10.00">kryne&#45;engine/Math/Sphere.hpp</text>
</a>
</g>
</g>
<!-- Node46&#45;&gt;Node49 -->
<g id="edge62" class="edge">
<title>Node46&#45;&gt;Node49</title>
<path fill="none" stroke="midnightblue" d="M1280.22,-372.18C1344.02,-359.98 1444.69,-340.74 1506.57,-328.91"/>
<polygon fill="midnightblue" stroke="midnightblue" points="1507.36,-332.32 1516.53,-327 1506.05,-325.44 1507.36,-332.32"/>
</g>
<!-- Node54 -->
<g id="node50" class="node">
<title>Node54</title>
<g id="a_node50"><a xlink:href="_buffer_attribute_8h.html" target="_top" xlink:title=" ">
<polygon fill="white" stroke="black" points="965,-308 965,-327 1051,-327 1051,-308 965,-308"/>
<text text-anchor="middle" x="1008" y="-315" font-family="Helvetica,sans-Serif" font-size="10.00">BufferAttribute.h</text>
</a>
</g>
</g>
<!-- Node46&#45;&gt;Node54 -->
<g id="edge69" class="edge">
<title>Node46&#45;&gt;Node54</title>
<path fill="none" stroke="midnightblue" d="M1175.04,-369.48C1136.37,-357.67 1081.73,-341 1045.62,-329.98"/>
<polygon fill="midnightblue" stroke="midnightblue" points="1046.53,-326.6 1035.95,-327.03 1044.49,-333.3 1046.53,-326.6"/>
</g>
<!-- Node49&#45;&gt;Node30 -->
<g id="edge63" class="edge">
<title>Node49&#45;&gt;Node30</title>
<path fill="none" stroke="midnightblue" d="M1513.57,-307.94C1446.42,-295.81 1324.03,-273.71 1253.98,-261.07"/>
<polygon fill="midnightblue" stroke="midnightblue" points="1254.5,-257.6 1244.04,-259.27 1253.26,-264.49 1254.5,-257.6"/>
</g>
<!-- Node50 -->
<g id="node46" class="node">
<title>Node50</title>
<g id="a_node46"><a xlink:title=" ">
<polygon fill="white" stroke="#bfbfbf" points="1584,-241 1584,-260 1676,-260 1676,-241 1584,-241"/>
<text text-anchor="middle" x="1630" y="-248" font-family="Helvetica,sans-Serif" font-size="10.00">glm/gtx/norm.hpp</text>
</a>
</g>
</g>
<!-- Node49&#45;&gt;Node50 -->
<g id="edge64" class="edge">
<title>Node49&#45;&gt;Node50</title>
<path fill="none" stroke="midnightblue" d="M1570.31,-307.73C1581.27,-297.4 1599.71,-280.04 1613.19,-267.33"/>
<polygon fill="midnightblue" stroke="midnightblue" points="1615.96,-269.53 1620.84,-260.13 1611.16,-264.44 1615.96,-269.53"/>
</g>
<!-- Node51 -->
<g id="node47" class="node">
<title>Node51</title>
<g id="a_node47"><a xlink:title=" ">
<polygon fill="white" stroke="#bfbfbf" points="1422.5,-241 1422.5,-260 1565.5,-260 1565.5,-241 1422.5,-241"/>
<text text-anchor="middle" x="1494" y="-248" font-family="Helvetica,sans-Serif" font-size="10.00">glm/gtx/component_wise.hpp</text>
</a>
</g>
</g>
<!-- Node49&#45;&gt;Node51 -->
<g id="edge65" class="edge">
<title>Node49&#45;&gt;Node51</title>
<path fill="none" stroke="midnightblue" d="M1551.96,-307.73C1541.32,-297.4 1523.42,-280.04 1510.32,-267.33"/>
<polygon fill="midnightblue" stroke="midnightblue" points="1512.51,-264.58 1502.89,-260.13 1507.63,-269.6 1512.51,-264.58"/>
</g>
<!-- Node52 -->
<g id="node48" class="node">
<title>Node52</title>
<g id="a_node48"><a xlink:href="_axis_aligned_box_8hpp.html" target="_top" xlink:title=" ">
<polygon fill="white" stroke="black" points="1300,-241 1300,-260 1404,-260 1404,-241 1300,-241"/>
<text text-anchor="middle" x="1352" y="-248" font-family="Helvetica,sans-Serif" font-size="10.00">AxisAlignedBox.hpp</text>
</a>
</g>
</g>
<!-- Node49&#45;&gt;Node52 -->
<g id="edge66" class="edge">
<title>Node49&#45;&gt;Node52</title>
<path fill="none" stroke="midnightblue" d="M1533.25,-307.87C1496.21,-296.35 1430.53,-275.92 1389.22,-263.08"/>
<polygon fill="midnightblue" stroke="midnightblue" points="1390.12,-259.69 1379.54,-260.06 1388.04,-266.38 1390.12,-259.69"/>
</g>
<!-- Node52&#45;&gt;Node38 -->
<g id="edge67" class="edge">
<title>Node52&#45;&gt;Node38</title>
<path fill="none" stroke="midnightblue" d="M1351,-240.98C1350.01,-232.58 1348.47,-219.48 1347.2,-208.66"/>
<polygon fill="midnightblue" stroke="midnightblue" points="1350.65,-208.03 1346,-198.51 1343.69,-208.85 1350.65,-208.03"/>
</g>
<!-- Node53 -->
<g id="node49" class="node">
<title>Node53</title>
<g id="a_node49"><a xlink:title=" ">
<polygon fill="white" stroke="#bfbfbf" points="1400,-179.5 1400,-198.5 1492,-198.5 1492,-179.5 1400,-179.5"/>
<text text-anchor="middle" x="1446" y="-186.5" font-family="Helvetica,sans-Serif" font-size="10.00">glm/common.hpp</text>
</a>
</g>
</g>
<!-- Node52&#45;&gt;Node53 -->
<g id="edge68" class="edge">
<title>Node52&#45;&gt;Node53</title>
<path fill="none" stroke="midnightblue" d="M1365.47,-240.98C1380.68,-231.34 1405.69,-215.52 1423.8,-204.05"/>
<polygon fill="midnightblue" stroke="midnightblue" points="1425.98,-206.81 1432.56,-198.51 1422.24,-200.9 1425.98,-206.81"/>
</g>
<!-- Node54&#45;&gt;Node26 -->
<g id="edge71" class="edge">
<title>Node54&#45;&gt;Node26</title>
<path fill="none" stroke="midnightblue" d="M964.61,-308.76C949.86,-306.32 933.25,-303.8 918,-302 708.19,-277.18 648.01,-320.93 444,-266 442.07,-265.48 440.12,-264.84 438.18,-264.12"/>
<polygon fill="midnightblue" stroke="midnightblue" points="439.4,-260.83 428.83,-260.02 436.59,-267.24 439.4,-260.83"/>
</g>
<!-- Node54&#45;&gt;Node28 -->
<g id="edge72" class="edge">
<title>Node54&#45;&gt;Node28</title>
<path fill="none" stroke="midnightblue" d="M1003.95,-307.73C999.46,-297.99 992.07,-281.98 986.32,-269.53"/>
<polygon fill="midnightblue" stroke="midnightblue" points="989.35,-267.74 981.98,-260.13 982.99,-270.67 989.35,-267.74"/>
</g>
<!-- Node54&#45;&gt;Node29 -->
<g id="edge73" class="edge">
<title>Node54&#45;&gt;Node29</title>
<path fill="none" stroke="midnightblue" d="M991.95,-307.73C971.88,-296.77 937.3,-277.88 913.81,-265.05"/>
<polygon fill="midnightblue" stroke="midnightblue" points="915.25,-261.85 904.79,-260.13 911.89,-267.99 915.25,-261.85"/>
</g>
<!-- Node54&#45;&gt;Node44 -->
<g id="edge70" class="edge">
<title>Node54&#45;&gt;Node44</title>
<path fill="none" stroke="midnightblue" d="M1013.17,-307.57C1022.02,-291 1037.42,-255.31 1019,-235 990.23,-203.28 689.51,-193.17 590.45,-190.69"/>
<polygon fill="midnightblue" stroke="midnightblue" points="590.27,-187.18 580.19,-190.44 590.1,-194.18 590.27,-187.18"/>
</g>
</g>
</svg>
