<?xml version="1.0" encoding="UTF-8" standalone="no"?>
<!DOCTYPE svg PUBLIC "-//W3C//DTD SVG 1.1//EN"
 "http://www.w3.org/Graphics/SVG/1.1/DTD/svg11.dtd">
<!-- Generated by graphviz version 2.44.1 (20200629.0846)
 -->
<!-- Title: kryne&#45;engine/include/kryne&#45;engine/enums/MaterialSide.h Pages: 1 -->
<svg width="372pt" height="351pt"
 viewBox="0.00 0.00 371.50 351.00" xmlns="http://www.w3.org/2000/svg" xmlns:xlink="http://www.w3.org/1999/xlink">
<g id="graph0" class="graph" transform="scale(1 1) rotate(0) translate(4 347)">
<title>kryne&#45;engine/include/kryne&#45;engine/enums/MaterialSide.h</title>
<polygon fill="white" stroke="transparent" points="-4,4 -4,-347 367.5,-347 367.5,4 -4,4"/>
<!-- Node1 -->
<g id="node1" class="node">
<title>Node1</title>
<g id="a_node1"><a xlink:title=" ">
<polygon fill="#bfbfbf" stroke="black" points="162,-301.5 162,-342.5 307,-342.5 307,-301.5 162,-301.5"/>
<text text-anchor="start" x="170" y="-330.5" font-family="Helvetica,sans-Serif" font-size="10.00">kryne&#45;engine/include</text>
<text text-anchor="start" x="170" y="-319.5" font-family="Helvetica,sans-Serif" font-size="10.00">/kryne&#45;engine/enums/Material</text>
<text text-anchor="middle" x="234.5" y="-308.5" font-family="Helvetica,sans-Serif" font-size="10.00">Side.h</text>
</a>
</g>
</g>
<!-- Node2 -->
<g id="node2" class="node">
<title>Node2</title>
<g id="a_node2"><a xlink:href="_material_8h.html" target="_top" xlink:title=" ">
<polygon fill="white" stroke="black" points="110,-223.5 110,-264.5 223,-264.5 223,-223.5 110,-223.5"/>
<text text-anchor="start" x="118" y="-252.5" font-family="Helvetica,sans-Serif" font-size="10.00">kryne&#45;engine/include</text>
<text text-anchor="start" x="118" y="-241.5" font-family="Helvetica,sans-Serif" font-size="10.00">/kryne&#45;engine/Material</text>
<text text-anchor="middle" x="166.5" y="-230.5" font-family="Helvetica,sans-Serif" font-size="10.00">/Material.h</text>
</a>
</g>
</g>
<!-- Node1&#45;&gt;Node2 -->
<g id="edge1" class="edge">
<title>Node1&#45;&gt;Node2</title>
<path fill="none" stroke="midnightblue" d="M210.27,-293.92C201.58,-284.2 191.96,-273.45 183.95,-264.51"/>
<polygon fill="midnightblue" stroke="midnightblue" points="207.71,-296.31 216.99,-301.43 212.93,-291.64 207.71,-296.31"/>
</g>
<!-- Node8 -->
<g id="node8" class="node">
<title>Node8</title>
<g id="a_node8"><a xlink:href="_rendering_state_8hpp.html" target="_top" xlink:title=" ">
<polygon fill="white" stroke="black" points="241.5,-223.5 241.5,-264.5 363.5,-264.5 363.5,-223.5 241.5,-223.5"/>
<text text-anchor="start" x="249.5" y="-252.5" font-family="Helvetica,sans-Serif" font-size="10.00">kryne&#45;engine/include</text>
<text text-anchor="start" x="249.5" y="-241.5" font-family="Helvetica,sans-Serif" font-size="10.00">/kryne&#45;engine/Rendering</text>
<text text-anchor="middle" x="302.5" y="-230.5" font-family="Helvetica,sans-Serif" font-size="10.00">/RenderingState.hpp</text>
</a>
</g>
</g>
<!-- Node1&#45;&gt;Node8 -->
<g id="edge7" class="edge">
<title>Node1&#45;&gt;Node8</title>
<path fill="none" stroke="midnightblue" d="M258.73,-293.92C267.42,-284.2 277.04,-273.45 285.05,-264.51"/>
<polygon fill="midnightblue" stroke="midnightblue" points="256.07,-291.64 252.01,-301.43 261.29,-296.31 256.07,-291.64"/>
</g>
<!-- Node3 -->
<g id="node3" class="node">
<title>Node3</title>
<g id="a_node3"><a xlink:href="_mesh_8h.html" target="_top" xlink:title=" ">
<polygon fill="white" stroke="black" points="6.5,-145.5 6.5,-186.5 130.5,-186.5 130.5,-145.5 6.5,-145.5"/>
<text text-anchor="start" x="14.5" y="-174.5" font-family="Helvetica,sans-Serif" font-size="10.00">kryne&#45;engine/include</text>
<text text-anchor="start" x="14.5" y="-163.5" font-family="Helvetica,sans-Serif" font-size="10.00">/kryne&#45;engine/3DObjects</text>
<text text-anchor="middle" x="68.5" y="-152.5" font-family="Helvetica,sans-Serif" font-size="10.00">/Mesh.h</text>
</a>
</g>
</g>
<!-- Node2&#45;&gt;Node3 -->
<g id="edge2" class="edge">
<title>Node2&#45;&gt;Node3</title>
<path fill="none" stroke="midnightblue" d="M133.06,-217.06C120.15,-207.06 105.64,-195.8 93.65,-186.51"/>
<polygon fill="midnightblue" stroke="midnightblue" points="131.22,-220.07 141.26,-223.43 135.51,-214.53 131.22,-220.07"/>
</g>
<!-- Node7 -->
<g id="node7" class="node">
<title>Node7</title>
<g id="a_node7"><a xlink:href="_material_8cpp.html" target="_top" xlink:title=" ">
<polygon fill="white" stroke="black" points="148.5,-151 148.5,-181 274.5,-181 274.5,-151 148.5,-151"/>
<text text-anchor="start" x="156.5" y="-169" font-family="Helvetica,sans-Serif" font-size="10.00">kryne&#45;engine/src/Material</text>
<text text-anchor="middle" x="211.5" y="-158" font-family="Helvetica,sans-Serif" font-size="10.00">/Material.cpp</text>
</a>
</g>
</g>
<!-- Node2&#45;&gt;Node7 -->
<g id="edge6" class="edge">
<title>Node2&#45;&gt;Node7</title>
<path fill="none" stroke="midnightblue" d="M183.29,-214.64C190.04,-203.25 197.52,-190.62 203.08,-181.23"/>
<polygon fill="midnightblue" stroke="midnightblue" points="180.17,-213.04 178.09,-223.43 186.2,-216.61 180.17,-213.04"/>
</g>
<!-- Node4 -->
<g id="node4" class="node">
<title>Node4</title>
<g id="a_node4"><a xlink:href="_renderer_8h.html" target="_top" xlink:title=" ">
<polygon fill="white" stroke="black" points="198.5,-67.5 198.5,-108.5 320.5,-108.5 320.5,-67.5 198.5,-67.5"/>
<text text-anchor="start" x="206.5" y="-96.5" font-family="Helvetica,sans-Serif" font-size="10.00">kryne&#45;engine/include</text>
<text text-anchor="start" x="206.5" y="-85.5" font-family="Helvetica,sans-Serif" font-size="10.00">/kryne&#45;engine/Rendering</text>
<text text-anchor="middle" x="259.5" y="-74.5" font-family="Helvetica,sans-Serif" font-size="10.00">/Renderer.h</text>
</a>
</g>
</g>
<!-- Node3&#45;&gt;Node4 -->
<g id="edge3" class="edge">
<title>Node3&#45;&gt;Node4</title>
<path fill="none" stroke="midnightblue" d="M127.29,-141.61C153.95,-131 185.11,-118.6 210.48,-108.51"/>
<polygon fill="midnightblue" stroke="midnightblue" points="125.68,-138.48 117.69,-145.43 128.27,-144.98 125.68,-138.48"/>
</g>
<!-- Node6 -->
<g id="node6" class="node">
<title>Node6</title>
<g id="a_node6"><a xlink:href="_mesh_8cpp.html" target="_top" xlink:title=" ">
<polygon fill="white" stroke="black" points="0,-73 0,-103 137,-103 137,-73 0,-73"/>
<text text-anchor="start" x="8" y="-91" font-family="Helvetica,sans-Serif" font-size="10.00">kryne&#45;engine/src/3DObjects</text>
<text text-anchor="middle" x="68.5" y="-80" font-family="Helvetica,sans-Serif" font-size="10.00">/Mesh.cpp</text>
</a>
</g>
</g>
<!-- Node3&#45;&gt;Node6 -->
<g id="edge5" class="edge">
<title>Node3&#45;&gt;Node6</title>
<path fill="none" stroke="midnightblue" d="M68.5,-135.28C68.5,-124.25 68.5,-112.25 68.5,-103.23"/>
<polygon fill="midnightblue" stroke="midnightblue" points="65,-135.43 68.5,-145.43 72,-135.43 65,-135.43"/>
</g>
<!-- Node5 -->
<g id="node5" class="node">
<title>Node5</title>
<g id="a_node5"><a xlink:href="_renderer_8cpp.html" target="_top" xlink:title=" ">
<polygon fill="white" stroke="black" points="192,-0.5 192,-30.5 327,-30.5 327,-0.5 192,-0.5"/>
<text text-anchor="start" x="200" y="-18.5" font-family="Helvetica,sans-Serif" font-size="10.00">kryne&#45;engine/src/Rendering</text>
<text text-anchor="middle" x="259.5" y="-7.5" font-family="Helvetica,sans-Serif" font-size="10.00">/Renderer.cpp</text>
</a>
</g>
</g>
<!-- Node4&#45;&gt;Node5 -->
<g id="edge4" class="edge">
<title>Node4&#45;&gt;Node5</title>
<path fill="none" stroke="midnightblue" d="M259.5,-57.08C259.5,-48.01 259.5,-38.45 259.5,-30.89"/>
<polygon fill="midnightblue" stroke="midnightblue" points="256,-57.36 259.5,-67.36 263,-57.36 256,-57.36"/>
</g>
<!-- Node8&#45;&gt;Node4 -->
<g id="edge8" class="edge">
<title>Node8&#45;&gt;Node4</title>
<path fill="none" stroke="midnightblue" d="M298.43,-213.28C295.33,-193.63 290.41,-167.47 283.5,-145 279.68,-132.56 273.99,-119.15 269.11,-108.57"/>
<polygon fill="midnightblue" stroke="midnightblue" points="294.97,-213.81 299.93,-223.17 301.89,-212.76 294.97,-213.81"/>
</g>
</g>
</svg>
