<?xml version="1.0" encoding="UTF-8" standalone="no"?>
<!DOCTYPE svg PUBLIC "-//W3C//DTD SVG 1.1//EN"
 "http://www.w3.org/Graphics/SVG/1.1/DTD/svg11.dtd">
<!-- Generated by graphviz version 2.40.1 (20161225.0304)
 -->
<!-- Title: kryne&#45;engine/include/kryne&#45;engine/Material/MeshLambertMaterial.h Pages: 1 -->
<svg width="274pt" height="117pt"
 viewBox="0.00 0.00 274.00 117.00" xmlns="http://www.w3.org/2000/svg" xmlns:xlink="http://www.w3.org/1999/xlink">
<g id="graph0" class="graph" transform="scale(1 1) rotate(0) translate(4 113)">
<title>kryne&#45;engine/include/kryne&#45;engine/Material/MeshLambertMaterial.h</title>
<polygon fill="#ffffff" stroke="transparent" points="-4,4 -4,-113 270,-113 270,4 -4,4"/>
<!-- Node100 -->
<g id="node1" class="node">
<title>Node100</title>
<polygon fill="#bfbfbf" stroke="#000000" points="68,-67.5 68,-108.5 190,-108.5 190,-67.5 68,-67.5"/>
<text text-anchor="start" x="76" y="-96.5" font-family="Helvetica,sans-Serif" font-size="10.00" fill="#000000">kryne&#45;engine/include</text>
<text text-anchor="start" x="76" y="-85.5" font-family="Helvetica,sans-Serif" font-size="10.00" fill="#000000">/kryne&#45;engine/Material</text>
<text text-anchor="middle" x="129" y="-74.5" font-family="Helvetica,sans-Serif" font-size="10.00" fill="#000000">/MeshLambertMaterial.h</text>
</g>
<!-- Node101 -->
<g id="node2" class="node">
<title>Node101</title>
<g id="a_node2"><a xlink:href="_k_e_modules_2_material_8h.html" target="_top" xlink:title="kryne&#45;engine/include\l/KEModules/Material.h">
<polygon fill="#ffffff" stroke="#000000" points="0,-.5 0,-30.5 116,-30.5 116,-.5 0,-.5"/>
<text text-anchor="start" x="8" y="-18.5" font-family="Helvetica,sans-Serif" font-size="10.00" fill="#000000">kryne&#45;engine/include</text>
<text text-anchor="middle" x="58" y="-7.5" font-family="Helvetica,sans-Serif" font-size="10.00" fill="#000000">/KEModules/Material.h</text>
</a>
</g>
</g>
<!-- Node100&#45;&gt;Node101 -->
<g id="edge1" class="edge">
<title>Node100&#45;&gt;Node101</title>
<path fill="none" stroke="#191970" d="M101.5739,-59.9945C91.7765,-49.9901 81.1127,-39.101 72.7867,-30.5991"/>
<polygon fill="#191970" stroke="#191970" points="99.3467,-62.7226 108.8442,-67.4183 104.348,-57.8248 99.3467,-62.7226"/>
</g>
<!-- Node102 -->
<g id="node3" class="node">
<title>Node102</title>
<g id="a_node3"><a xlink:href="_mesh_lambert_material_8cpp.html" target="_top" xlink:title="kryne&#45;engine/src/Material\l/MeshLambertMaterial.cpp">
<polygon fill="#ffffff" stroke="#000000" points="134,-.5 134,-30.5 266,-30.5 266,-.5 134,-.5"/>
<text text-anchor="start" x="142" y="-18.5" font-family="Helvetica,sans-Serif" font-size="10.00" fill="#000000">kryne&#45;engine/src/Material</text>
<text text-anchor="middle" x="200" y="-7.5" font-family="Helvetica,sans-Serif" font-size="10.00" fill="#000000">/MeshLambertMaterial.cpp</text>
</a>
</g>
</g>
<!-- Node100&#45;&gt;Node102 -->
<g id="edge2" class="edge">
<title>Node100&#45;&gt;Node102</title>
<path fill="none" stroke="#191970" d="M156.4261,-59.9945C166.2235,-49.9901 176.8873,-39.101 185.2133,-30.5991"/>
<polygon fill="#191970" stroke="#191970" points="153.652,-57.8248 149.1558,-67.4183 158.6533,-62.7226 153.652,-57.8248"/>
</g>
</g>
</svg>
