<?xml version="1.0" encoding="UTF-8" standalone="no"?>
<!DOCTYPE svg PUBLIC "-//W3C//DTD SVG 1.1//EN"
 "http://www.w3.org/Graphics/SVG/1.1/DTD/svg11.dtd">
<!-- Generated by graphviz version 2.44.1 (20200629.0846)
 -->
<!-- Title: kryne&#45;engine/include/kryne&#45;engine/3DObjects/Mesh.h Pages: 1 -->
<svg width="3027pt" height="430pt"
 viewBox="0.00 0.00 3027.00 430.00" xmlns="http://www.w3.org/2000/svg" xmlns:xlink="http://www.w3.org/1999/xlink">
<g id="graph0" class="graph" transform="scale(1 1) rotate(0) translate(4 426)">
<title>kryne&#45;engine/include/kryne&#45;engine/3DObjects/Mesh.h</title>
<polygon fill="white" stroke="transparent" points="-4,4 -4,-426 3023,-426 3023,4 -4,4"/>
<!-- Node1 -->
<g id="node1" class="node">
<title>Node1</title>
<g id="a_node1"><a xlink:title=" ">
<polygon fill="#bfbfbf" stroke="black" points="725,-380.5 725,-421.5 849,-421.5 849,-380.5 725,-380.5"/>
<text text-anchor="start" x="733" y="-409.5" font-family="Helvetica,sans-Serif" font-size="10.00">kryne&#45;engine/include</text>
<text text-anchor="start" x="733" y="-398.5" font-family="Helvetica,sans-Serif" font-size="10.00">/kryne&#45;engine/3DObjects</text>
<text text-anchor="middle" x="787" y="-387.5" font-family="Helvetica,sans-Serif" font-size="10.00">/Mesh.h</text>
</a>
</g>
</g>
<!-- Node2 -->
<g id="node2" class="node">
<title>Node2</title>
<g id="a_node2"><a xlink:href="kryne-engine_2_material_2_material_8h.html" target="_top" xlink:title=" ">
<polygon fill="white" stroke="black" points="266,-313.5 266,-343.5 376,-343.5 376,-313.5 266,-313.5"/>
<text text-anchor="start" x="274" y="-331.5" font-family="Helvetica,sans-Serif" font-size="10.00">kryne&#45;engine/Material</text>
<text text-anchor="middle" x="321" y="-320.5" font-family="Helvetica,sans-Serif" font-size="10.00">/Material.h</text>
</a>
</g>
</g>
<!-- Node1&#45;&gt;Node2 -->
<g id="edge1" class="edge">
<title>Node1&#45;&gt;Node2</title>
<path fill="none" stroke="midnightblue" d="M724.64,-390.57C636.4,-377.22 475.88,-352.93 386.15,-339.36"/>
<polygon fill="midnightblue" stroke="midnightblue" points="386.51,-335.87 376.1,-337.84 385.46,-342.79 386.51,-335.87"/>
</g>
<!-- Node51 -->
<g id="node28" class="node">
<title>Node51</title>
<g id="a_node28"><a xlink:href="kryne-engine_2_camera_2_camera_8h.html" target="_top" xlink:title=" ">
<polygon fill="white" stroke="black" points="1330.5,-313.5 1330.5,-343.5 1439.5,-343.5 1439.5,-313.5 1330.5,-313.5"/>
<text text-anchor="start" x="1338.5" y="-331.5" font-family="Helvetica,sans-Serif" font-size="10.00">kryne&#45;engine/Camera</text>
<text text-anchor="middle" x="1385" y="-320.5" font-family="Helvetica,sans-Serif" font-size="10.00">/Camera.h</text>
</a>
</g>
</g>
<!-- Node1&#45;&gt;Node51 -->
<g id="edge35" class="edge">
<title>Node1&#45;&gt;Node51</title>
<path fill="none" stroke="midnightblue" d="M849.02,-392.69C962.86,-379.27 1204.07,-350.83 1320.05,-337.16"/>
<polygon fill="midnightblue" stroke="midnightblue" points="1320.68,-340.61 1330.2,-335.96 1319.86,-333.66 1320.68,-340.61"/>
</g>
<!-- Node3 -->
<g id="node3" class="node">
<title>Node3</title>
<g id="a_node3"><a xlink:href="_material_side_8h.html" target="_top" xlink:title=" ">
<polygon fill="white" stroke="black" points="132,-246.5 132,-276.5 236,-276.5 236,-246.5 132,-246.5"/>
<text text-anchor="start" x="140" y="-264.5" font-family="Helvetica,sans-Serif" font-size="10.00">kryne&#45;engine/enums</text>
<text text-anchor="middle" x="184" y="-253.5" font-family="Helvetica,sans-Serif" font-size="10.00">/MaterialSide.h</text>
</a>
</g>
</g>
<!-- Node2&#45;&gt;Node3 -->
<g id="edge2" class="edge">
<title>Node2&#45;&gt;Node3</title>
<path fill="none" stroke="midnightblue" d="M291.27,-313.4C271.26,-303.9 244.65,-291.28 222.95,-280.98"/>
<polygon fill="midnightblue" stroke="midnightblue" points="224.2,-277.7 213.67,-276.58 221.2,-284.03 224.2,-277.7"/>
</g>
<!-- Node4 -->
<g id="node4" class="node">
<title>Node4</title>
<g id="a_node4"><a xlink:href="_shader_program_compiler_8h.html" target="_top" xlink:title=" ">
<polygon fill="white" stroke="black" points="254,-246.5 254,-276.5 388,-276.5 388,-246.5 254,-246.5"/>
<text text-anchor="start" x="262" y="-264.5" font-family="Helvetica,sans-Serif" font-size="10.00">kryne&#45;engine/Rendering</text>
<text text-anchor="middle" x="321" y="-253.5" font-family="Helvetica,sans-Serif" font-size="10.00">/ShaderProgramCompiler.h</text>
</a>
</g>
</g>
<!-- Node2&#45;&gt;Node4 -->
<g id="edge3" class="edge">
<title>Node2&#45;&gt;Node4</title>
<path fill="none" stroke="midnightblue" d="M321,-313.4C321,-305.64 321,-295.81 321,-286.86"/>
<polygon fill="midnightblue" stroke="midnightblue" points="324.5,-286.58 321,-276.58 317.5,-286.58 324.5,-286.58"/>
</g>
<!-- Node5 -->
<g id="node5" class="node">
<title>Node5</title>
<g id="a_node5"><a xlink:title=" ">
<polygon fill="white" stroke="#bfbfbf" points="123.5,-185 123.5,-204 164.5,-204 164.5,-185 123.5,-185"/>
<text text-anchor="middle" x="144" y="-192" font-family="Helvetica,sans-Serif" font-size="10.00">regex</text>
</a>
</g>
</g>
<!-- Node4&#45;&gt;Node5 -->
<g id="edge4" class="edge">
<title>Node4&#45;&gt;Node5</title>
<path fill="none" stroke="midnightblue" d="M275.45,-246.4C246.15,-236.96 207.44,-223.77 174,-210 172.8,-209.5 171.57,-208.98 170.34,-208.45"/>
<polygon fill="midnightblue" stroke="midnightblue" points="171.52,-205.14 160.97,-204.14 168.6,-211.5 171.52,-205.14"/>
</g>
<!-- Node6 -->
<g id="node6" class="node">
<title>Node6</title>
<g id="a_node6"><a xlink:href="_shader_8h.html" target="_top" xlink:title=" ">
<polygon fill="white" stroke="black" points="183,-179.5 183,-209.5 293,-209.5 293,-179.5 183,-179.5"/>
<text text-anchor="start" x="191" y="-197.5" font-family="Helvetica,sans-Serif" font-size="10.00">kryne&#45;engine/Material</text>
<text text-anchor="middle" x="238" y="-186.5" font-family="Helvetica,sans-Serif" font-size="10.00">/Shader.h</text>
</a>
</g>
</g>
<!-- Node4&#45;&gt;Node6 -->
<g id="edge5" class="edge">
<title>Node4&#45;&gt;Node6</title>
<path fill="none" stroke="midnightblue" d="M302.99,-246.4C291.57,-237.45 276.61,-225.74 263.92,-215.8"/>
<polygon fill="midnightblue" stroke="midnightblue" points="266.01,-212.99 255.97,-209.58 261.69,-218.5 266.01,-212.99"/>
</g>
<!-- Node9 -->
<g id="node9" class="node">
<title>Node9</title>
<g id="a_node9"><a xlink:href="_dispatcher_8h.html" target="_top" xlink:title=" ">
<polygon fill="white" stroke="black" points="123.5,-112.5 123.5,-142.5 236.5,-142.5 236.5,-112.5 123.5,-112.5"/>
<text text-anchor="start" x="131.5" y="-130.5" font-family="Helvetica,sans-Serif" font-size="10.00">kryne&#45;engine/Dispatch</text>
<text text-anchor="middle" x="180" y="-119.5" font-family="Helvetica,sans-Serif" font-size="10.00">/Dispatcher.h</text>
</a>
</g>
</g>
<!-- Node4&#45;&gt;Node9 -->
<g id="edge34" class="edge">
<title>Node4&#45;&gt;Node9</title>
<path fill="none" stroke="midnightblue" d="M321.43,-246.4C321.22,-228.65 318.26,-198.16 302,-179 292.68,-168.02 263.11,-155.65 235.41,-145.9"/>
<polygon fill="midnightblue" stroke="midnightblue" points="236.32,-142.51 225.73,-142.56 234.05,-149.13 236.32,-142.51"/>
</g>
<!-- Node44 -->
<g id="node18" class="node">
<title>Node44</title>
<g id="a_node18"><a xlink:href="_buffer_geometry_8h.html" target="_top" xlink:title=" ">
<polygon fill="white" stroke="black" points="714,-179.5 714,-209.5 832,-209.5 832,-179.5 714,-179.5"/>
<text text-anchor="start" x="722" y="-197.5" font-family="Helvetica,sans-Serif" font-size="10.00">kryne&#45;engine/Geometry</text>
<text text-anchor="middle" x="773" y="-186.5" font-family="Helvetica,sans-Serif" font-size="10.00">/BufferGeometry.h</text>
</a>
</g>
</g>
<!-- Node4&#45;&gt;Node44 -->
<g id="edge19" class="edge">
<title>Node4&#45;&gt;Node44</title>
<path fill="none" stroke="midnightblue" d="M388.18,-250.84C472.9,-238.66 617.83,-217.81 703.59,-205.48"/>
<polygon fill="midnightblue" stroke="midnightblue" points="704.35,-208.91 713.75,-204.02 703.35,-201.98 704.35,-208.91"/>
</g>
<!-- Node7 -->
<g id="node7" class="node">
<title>Node7</title>
<g id="a_node7"><a xlink:title=" ">
<polygon fill="white" stroke="#bfbfbf" points="70.5,-118 70.5,-137 105.5,-137 105.5,-118 70.5,-118"/>
<text text-anchor="middle" x="88" y="-125" font-family="Helvetica,sans-Serif" font-size="10.00">map</text>
</a>
</g>
</g>
<!-- Node6&#45;&gt;Node7 -->
<g id="edge6" class="edge">
<title>Node6&#45;&gt;Node7</title>
<path fill="none" stroke="midnightblue" d="M200.04,-179.42C175.22,-169.89 142.29,-156.59 114,-143 113.18,-142.61 112.36,-142.2 111.53,-141.79"/>
<polygon fill="midnightblue" stroke="midnightblue" points="113.16,-138.69 102.68,-137.1 109.88,-144.87 113.16,-138.69"/>
</g>
<!-- Node8 -->
<g id="node8" class="node">
<title>Node8</title>
<g id="a_node8"><a xlink:title=" ">
<polygon fill="white" stroke="#bfbfbf" points="0,-118 0,-137 52,-137 52,-118 0,-118"/>
<text text-anchor="middle" x="26" y="-125" font-family="Helvetica,sans-Serif" font-size="10.00">sstream</text>
</a>
</g>
</g>
<!-- Node6&#45;&gt;Node8 -->
<g id="edge7" class="edge">
<title>Node6&#45;&gt;Node8</title>
<path fill="none" stroke="midnightblue" d="M182.87,-179.52C147.69,-170.17 101.28,-157.04 61,-143 59.09,-142.33 57.13,-141.62 55.17,-140.88"/>
<polygon fill="midnightblue" stroke="midnightblue" points="56.06,-137.46 45.47,-137.03 53.47,-143.97 56.06,-137.46"/>
</g>
<!-- Node6&#45;&gt;Node9 -->
<g id="edge8" class="edge">
<title>Node6&#45;&gt;Node9</title>
<path fill="none" stroke="midnightblue" d="M225.41,-179.4C217.81,-170.88 207.97,-159.85 199.39,-150.23"/>
<polygon fill="midnightblue" stroke="midnightblue" points="201.83,-147.71 192.56,-142.58 196.61,-152.37 201.83,-147.71"/>
</g>
<!-- Node23 -->
<g id="node13" class="node">
<title>Node23</title>
<g id="a_node13"><a xlink:href="_uniforms_handler_8h.html" target="_top" xlink:title=" ">
<polygon fill="white" stroke="red" points="394,-118 394,-137 490,-137 490,-118 394,-118"/>
<text text-anchor="middle" x="442" y="-125" font-family="Helvetica,sans-Serif" font-size="10.00">UniformsHandler.h</text>
</a>
</g>
</g>
<!-- Node6&#45;&gt;Node23 -->
<g id="edge13" class="edge">
<title>Node6&#45;&gt;Node23</title>
<path fill="none" stroke="midnightblue" d="M282.01,-179.48C318.9,-167.72 370.93,-151.14 405.53,-140.12"/>
<polygon fill="midnightblue" stroke="midnightblue" points="406.77,-143.4 415.23,-137.03 404.64,-136.73 406.77,-143.4"/>
</g>
<!-- Node37 -->
<g id="node16" class="node">
<title>Node37</title>
<g id="a_node16"><a xlink:href="_shader_chunk_8h.html" target="_top" xlink:title=" ">
<polygon fill="white" stroke="red" points="254.5,-118 254.5,-137 337.5,-137 337.5,-118 254.5,-118"/>
<text text-anchor="middle" x="296" y="-125" font-family="Helvetica,sans-Serif" font-size="10.00">ShaderChunk.h</text>
</a>
</g>
</g>
<!-- Node6&#45;&gt;Node37 -->
<g id="edge16" class="edge">
<title>Node6&#45;&gt;Node37</title>
<path fill="none" stroke="midnightblue" d="M250.59,-179.4C259.63,-169.26 271.85,-155.57 281.33,-144.94"/>
<polygon fill="midnightblue" stroke="midnightblue" points="284.2,-146.99 288.24,-137.19 278.97,-142.33 284.2,-146.99"/>
</g>
<!-- Node10 -->
<g id="node10" class="node">
<title>Node10</title>
<g id="a_node10"><a xlink:href="_synchronizable_pool_8h.html" target="_top" xlink:title=" ">
<polygon fill="white" stroke="red" points="113.5,-0.5 113.5,-19.5 224.5,-19.5 224.5,-0.5 113.5,-0.5"/>
<text text-anchor="middle" x="169" y="-7.5" font-family="Helvetica,sans-Serif" font-size="10.00">SynchronizablePool.h</text>
</a>
</g>
</g>
<!-- Node9&#45;&gt;Node10 -->
<g id="edge9" class="edge">
<title>Node9&#45;&gt;Node10</title>
<path fill="none" stroke="midnightblue" d="M199.81,-112.29C216.44,-98.49 236.01,-76.65 226,-56 219.6,-42.8 207.25,-32.3 195.67,-24.78"/>
<polygon fill="midnightblue" stroke="midnightblue" points="197.45,-21.77 187.08,-19.61 193.84,-27.77 197.45,-21.77"/>
</g>
<!-- Node21 -->
<g id="node11" class="node">
<title>Node21</title>
<g id="a_node11"><a xlink:href="_runner_pool_8h.html" target="_top" xlink:title=" ">
<polygon fill="white" stroke="red" points="142.5,-56.5 142.5,-75.5 217.5,-75.5 217.5,-56.5 142.5,-56.5"/>
<text text-anchor="middle" x="180" y="-63.5" font-family="Helvetica,sans-Serif" font-size="10.00">RunnerPool.h</text>
</a>
</g>
</g>
<!-- Node9&#45;&gt;Node21 -->
<g id="edge10" class="edge">
<title>Node9&#45;&gt;Node21</title>
<path fill="none" stroke="midnightblue" d="M180,-112.4C180,-104.47 180,-94.46 180,-85.86"/>
<polygon fill="midnightblue" stroke="midnightblue" points="183.5,-85.66 180,-75.66 176.5,-85.66 183.5,-85.66"/>
</g>
<!-- Node22 -->
<g id="node12" class="node">
<title>Node22</title>
<g id="a_node12"><a xlink:href="_main_pool_8h.html" target="_top" xlink:title=" ">
<polygon fill="white" stroke="black" points="59.5,-56.5 59.5,-75.5 124.5,-75.5 124.5,-56.5 59.5,-56.5"/>
<text text-anchor="middle" x="92" y="-63.5" font-family="Helvetica,sans-Serif" font-size="10.00">MainPool.h</text>
</a>
</g>
</g>
<!-- Node9&#45;&gt;Node22 -->
<g id="edge11" class="edge">
<title>Node9&#45;&gt;Node22</title>
<path fill="none" stroke="midnightblue" d="M159.15,-112.4C145.3,-103.04 127.19,-90.79 113.26,-81.38"/>
<polygon fill="midnightblue" stroke="midnightblue" points="115.05,-78.36 104.8,-75.66 111.13,-84.16 115.05,-78.36"/>
</g>
<!-- Node22&#45;&gt;Node10 -->
<g id="edge12" class="edge">
<title>Node22&#45;&gt;Node10</title>
<path fill="none" stroke="midnightblue" d="M104.37,-56.32C116.16,-48.06 134.13,-35.45 148.14,-25.63"/>
<polygon fill="midnightblue" stroke="midnightblue" points="150.48,-28.26 156.66,-19.65 146.46,-22.53 150.48,-28.26"/>
</g>
<!-- Node25 -->
<g id="node14" class="node">
<title>Node25</title>
<g id="a_node14"><a xlink:title=" ">
<polygon fill="white" stroke="#bfbfbf" points="362.5,-56.5 362.5,-75.5 445.5,-75.5 445.5,-56.5 362.5,-56.5"/>
<text text-anchor="middle" x="404" y="-63.5" font-family="Helvetica,sans-Serif" font-size="10.00">unordered_map</text>
</a>
</g>
</g>
<!-- Node23&#45;&gt;Node25 -->
<g id="edge14" class="edge">
<title>Node23&#45;&gt;Node25</title>
<path fill="none" stroke="midnightblue" d="M436.56,-117.98C430.91,-109.14 421.94,-95.09 414.84,-83.98"/>
<polygon fill="midnightblue" stroke="midnightblue" points="417.77,-82.05 409.43,-75.51 411.87,-85.82 417.77,-82.05"/>
</g>
<!-- Node28 -->
<g id="node15" class="node">
<title>Node28</title>
<g id="a_node15"><a xlink:title=" ">
<polygon fill="white" stroke="#bfbfbf" points="1082,-56.5 1082,-75.5 1168,-75.5 1168,-56.5 1082,-56.5"/>
<text text-anchor="middle" x="1125" y="-63.5" font-family="Helvetica,sans-Serif" font-size="10.00">glm/mat4x4.hpp</text>
</a>
</g>
</g>
<!-- Node23&#45;&gt;Node28 -->
<g id="edge15" class="edge">
<title>Node23&#45;&gt;Node28</title>
<path fill="none" stroke="midnightblue" d="M471.07,-118C479.97,-115.7 489.82,-113.45 499,-112 746.23,-72.98 812.01,-101.45 1061,-76 1064.45,-75.65 1068.01,-75.25 1071.59,-74.82"/>
<polygon fill="midnightblue" stroke="midnightblue" points="1072.19,-78.27 1081.68,-73.54 1071.32,-71.33 1072.19,-78.27"/>
</g>
<!-- Node37&#45;&gt;Node25 -->
<g id="edge17" class="edge">
<title>Node37&#45;&gt;Node25</title>
<path fill="none" stroke="midnightblue" d="M311.47,-117.98C329.28,-108.17 358.74,-91.93 379.63,-80.42"/>
<polygon fill="midnightblue" stroke="midnightblue" points="381.49,-83.4 388.55,-75.51 378.11,-77.27 381.49,-83.4"/>
</g>
<!-- Node17 -->
<g id="node17" class="node">
<title>Node17</title>
<g id="a_node17"><a xlink:title=" ">
<polygon fill="white" stroke="#bfbfbf" points="887,-56.5 887,-75.5 941,-75.5 941,-56.5 887,-56.5"/>
<text text-anchor="middle" x="914" y="-63.5" font-family="Helvetica,sans-Serif" font-size="10.00">iostream</text>
</a>
</g>
</g>
<!-- Node37&#45;&gt;Node17 -->
<g id="edge18" class="edge">
<title>Node37&#45;&gt;Node17</title>
<path fill="none" stroke="midnightblue" d="M337.56,-119.05C352.48,-116.56 369.46,-113.92 385,-112 568.96,-89.22 790.36,-74.46 876.84,-69.18"/>
<polygon fill="midnightblue" stroke="midnightblue" points="877.18,-72.66 886.95,-68.57 876.76,-65.68 877.18,-72.66"/>
</g>
<!-- Node44&#45;&gt;Node9 -->
<g id="edge28" class="edge">
<title>Node44&#45;&gt;Node9</title>
<path fill="none" stroke="midnightblue" d="M713.7,-190.24C617.51,-184.41 421.38,-170.35 246.53,-143.13"/>
<polygon fill="midnightblue" stroke="midnightblue" points="247.06,-139.67 236.64,-141.57 245.97,-146.58 247.06,-139.67"/>
</g>
<!-- Node44&#45;&gt;Node25 -->
<g id="edge23" class="edge">
<title>Node44&#45;&gt;Node25</title>
<path fill="none" stroke="midnightblue" d="M713.99,-190.05C610.78,-183.4 406.35,-167.31 385,-143 370.61,-126.62 381.7,-100.95 391.99,-84.05"/>
<polygon fill="midnightblue" stroke="midnightblue" points="394.92,-85.96 397.46,-75.68 389.06,-82.13 394.92,-85.96"/>
</g>
<!-- Node44&#45;&gt;Node17 -->
<g id="edge22" class="edge">
<title>Node44&#45;&gt;Node17</title>
<path fill="none" stroke="midnightblue" d="M802.48,-179.41C819.5,-170.42 840.71,-157.71 857,-143 876.24,-125.63 893.34,-100.95 903.67,-84.47"/>
<polygon fill="midnightblue" stroke="midnightblue" points="906.72,-86.2 908.94,-75.84 900.75,-82.55 906.72,-86.2"/>
</g>
<!-- Node45 -->
<g id="node19" class="node">
<title>Node45</title>
<g id="a_node19"><a xlink:title=" ">
<polygon fill="white" stroke="#bfbfbf" points="792,-118 792,-137 848,-137 848,-118 792,-118"/>
<text text-anchor="middle" x="820" y="-125" font-family="Helvetica,sans-Serif" font-size="10.00">algorithm</text>
</a>
</g>
</g>
<!-- Node44&#45;&gt;Node45 -->
<g id="edge20" class="edge">
<title>Node44&#45;&gt;Node45</title>
<path fill="none" stroke="midnightblue" d="M783.2,-179.4C790.38,-169.46 800.04,-156.11 807.66,-145.57"/>
<polygon fill="midnightblue" stroke="midnightblue" points="810.69,-147.35 813.71,-137.19 805.02,-143.25 810.69,-147.35"/>
</g>
<!-- Node16 -->
<g id="node20" class="node">
<title>Node16</title>
<g id="a_node20"><a xlink:title=" ">
<polygon fill="white" stroke="#bfbfbf" points="1380,-118 1380,-137 1432,-137 1432,-118 1380,-118"/>
<text text-anchor="middle" x="1406" y="-125" font-family="Helvetica,sans-Serif" font-size="10.00">memory</text>
</a>
</g>
</g>
<!-- Node44&#45;&gt;Node16 -->
<g id="edge21" class="edge">
<title>Node44&#45;&gt;Node16</title>
<path fill="none" stroke="midnightblue" d="M832.28,-190.82C962.49,-184.55 1269.89,-167.58 1371,-143 1373.52,-142.39 1376.09,-141.62 1378.63,-140.76"/>
<polygon fill="midnightblue" stroke="midnightblue" points="1380.09,-143.95 1388.19,-137.12 1377.6,-137.41 1380.09,-143.95"/>
</g>
<!-- Node20 -->
<g id="node21" class="node">
<title>Node20</title>
<g id="a_node21"><a xlink:title=" ">
<polygon fill="white" stroke="#bfbfbf" points="508,-118 508,-137 566,-137 566,-118 508,-118"/>
<text text-anchor="middle" x="537" y="-125" font-family="Helvetica,sans-Serif" font-size="10.00">functional</text>
</a>
</g>
</g>
<!-- Node44&#45;&gt;Node20 -->
<g id="edge24" class="edge">
<title>Node44&#45;&gt;Node20</title>
<path fill="none" stroke="midnightblue" d="M713.58,-180.23C674,-170.93 620.99,-157.59 575,-143 572.59,-142.23 570.1,-141.4 567.61,-140.53"/>
<polygon fill="midnightblue" stroke="midnightblue" points="568.75,-137.21 558.15,-137.06 566.34,-143.79 568.75,-137.21"/>
</g>
<!-- Node35 -->
<g id="node22" class="node">
<title>Node35</title>
<g id="a_node22"><a xlink:title=" ">
<polygon fill="white" stroke="#bfbfbf" points="584,-118 584,-137 658,-137 658,-118 584,-118"/>
<text text-anchor="middle" x="621" y="-125" font-family="Helvetica,sans-Serif" font-size="10.00">glm/vec2.hpp</text>
</a>
</g>
</g>
<!-- Node44&#45;&gt;Node35 -->
<g id="edge25" class="edge">
<title>Node44&#45;&gt;Node35</title>
<path fill="none" stroke="midnightblue" d="M740.02,-179.4C713.23,-167.94 675.81,-151.94 650.12,-140.95"/>
<polygon fill="midnightblue" stroke="midnightblue" points="651.46,-137.72 640.89,-137.01 648.71,-144.16 651.46,-137.72"/>
</g>
<!-- Node36 -->
<g id="node23" class="node">
<title>Node36</title>
<g id="a_node23"><a xlink:title=" ">
<polygon fill="white" stroke="#bfbfbf" points="1207,-56.5 1207,-75.5 1281,-75.5 1281,-56.5 1207,-56.5"/>
<text text-anchor="middle" x="1244" y="-63.5" font-family="Helvetica,sans-Serif" font-size="10.00">glm/vec3.hpp</text>
</a>
</g>
</g>
<!-- Node44&#45;&gt;Node36 -->
<g id="edge26" class="edge">
<title>Node44&#45;&gt;Node36</title>
<path fill="none" stroke="midnightblue" d="M832.14,-194.05C938.3,-193.88 1155.53,-187.86 1214,-143 1231.81,-129.34 1239.07,-103.52 1242.01,-85.8"/>
<polygon fill="midnightblue" stroke="midnightblue" points="1245.49,-86.15 1243.36,-75.77 1238.56,-85.21 1245.49,-86.15"/>
</g>
<!-- Node46 -->
<g id="node24" class="node">
<title>Node46</title>
<g id="a_node24"><a xlink:title=" ">
<polygon fill="white" stroke="#bfbfbf" points="676.5,-118 676.5,-137 773.5,-137 773.5,-118 676.5,-118"/>
<text text-anchor="middle" x="725" y="-125" font-family="Helvetica,sans-Serif" font-size="10.00">glm/geometric.hpp</text>
</a>
</g>
</g>
<!-- Node44&#45;&gt;Node46 -->
<g id="edge27" class="edge">
<title>Node44&#45;&gt;Node46</title>
<path fill="none" stroke="midnightblue" d="M762.58,-179.4C755.17,-169.36 745.19,-155.84 737.37,-145.25"/>
<polygon fill="midnightblue" stroke="midnightblue" points="740.18,-143.16 731.42,-137.19 734.55,-147.32 740.18,-143.16"/>
</g>
<!-- Node47 -->
<g id="node25" class="node">
<title>Node47</title>
<g id="a_node25"><a xlink:href="_sphere_8hpp.html" target="_top" xlink:title=" ">
<polygon fill="white" stroke="red" points="1056.5,-118 1056.5,-137 1205.5,-137 1205.5,-118 1056.5,-118"/>
<text text-anchor="middle" x="1131" y="-125" font-family="Helvetica,sans-Serif" font-size="10.00">kryne&#45;engine/Math/Sphere.hpp</text>
</a>
</g>
</g>
<!-- Node44&#45;&gt;Node47 -->
<g id="edge29" class="edge">
<title>Node44&#45;&gt;Node47</title>
<path fill="none" stroke="midnightblue" d="M832.12,-182.77C899.27,-170.57 1008.09,-150.82 1074.25,-138.8"/>
<polygon fill="midnightblue" stroke="midnightblue" points="1074.87,-142.25 1084.09,-137.02 1073.62,-135.36 1074.87,-142.25"/>
</g>
<!-- Node50 -->
<g id="node26" class="node">
<title>Node50</title>
<g id="a_node26"><a xlink:href="_buffer_attribute_8h.html" target="_top" xlink:title=" ">
<polygon fill="white" stroke="red" points="966,-56.5 966,-75.5 1052,-75.5 1052,-56.5 966,-56.5"/>
<text text-anchor="middle" x="1009" y="-63.5" font-family="Helvetica,sans-Serif" font-size="10.00">BufferAttribute.h</text>
</a>
</g>
</g>
<!-- Node44&#45;&gt;Node50 -->
<g id="edge32" class="edge">
<title>Node44&#45;&gt;Node50</title>
<path fill="none" stroke="midnightblue" d="M807.35,-179.35C829.79,-169.78 859.55,-156.47 885,-143 922.2,-123.31 963.54,-97.04 987.84,-81.1"/>
<polygon fill="midnightblue" stroke="midnightblue" points="989.86,-83.97 996.28,-75.54 986.01,-78.12 989.86,-83.97"/>
</g>
<!-- Node47&#45;&gt;Node28 -->
<g id="edge31" class="edge">
<title>Node47&#45;&gt;Node28</title>
<path fill="none" stroke="midnightblue" d="M1130.14,-117.98C1129.29,-109.58 1127.97,-96.48 1126.88,-85.66"/>
<polygon fill="midnightblue" stroke="midnightblue" points="1130.34,-85.11 1125.86,-75.51 1123.38,-85.81 1130.34,-85.11"/>
</g>
<!-- Node47&#45;&gt;Node36 -->
<g id="edge30" class="edge">
<title>Node47&#45;&gt;Node36</title>
<path fill="none" stroke="midnightblue" d="M1147.19,-117.98C1165.9,-108.12 1196.92,-91.79 1218.8,-80.27"/>
<polygon fill="midnightblue" stroke="midnightblue" points="1220.62,-83.27 1227.84,-75.51 1217.36,-77.07 1220.62,-83.27"/>
</g>
<!-- Node42 -->
<g id="node27" class="node">
<title>Node42</title>
<g id="a_node27"><a xlink:title=" ">
<polygon fill="white" stroke="#bfbfbf" points="2184,-0.5 2184,-19.5 2226,-19.5 2226,-0.5 2184,-0.5"/>
<text text-anchor="middle" x="2205" y="-7.5" font-family="Helvetica,sans-Serif" font-size="10.00">vector</text>
</a>
</g>
</g>
<!-- Node50&#45;&gt;Node42 -->
<g id="edge33" class="edge">
<title>Node50&#45;&gt;Node42</title>
<path fill="none" stroke="midnightblue" d="M1052.31,-58.31C1059.22,-57.42 1066.29,-56.6 1073,-56 1507.9,-16.88 2039.84,-11.77 2173.43,-11.1"/>
<polygon fill="midnightblue" stroke="midnightblue" points="2173.76,-14.6 2183.74,-11.05 2173.73,-7.6 2173.76,-14.6"/>
</g>
<!-- Node51&#45;&gt;Node16 -->
<g id="edge36" class="edge">
<title>Node51&#45;&gt;Node16</title>
<path fill="none" stroke="midnightblue" d="M1386.51,-313.19C1390.23,-277.99 1399.81,-187.17 1403.99,-147.51"/>
<polygon fill="midnightblue" stroke="midnightblue" points="1407.5,-147.67 1405.07,-137.36 1400.53,-146.94 1407.5,-147.67"/>
</g>
<!-- Node52 -->
<g id="node29" class="node">
<title>Node52</title>
<g id="a_node29"><a xlink:href="_entity_8h.html" target="_top" xlink:title=" ">
<polygon fill="white" stroke="black" points="2380,-252 2380,-271 2512,-271 2512,-252 2380,-252"/>
<text text-anchor="middle" x="2446" y="-259" font-family="Helvetica,sans-Serif" font-size="10.00">kryne&#45;engine/Core/Entity.h</text>
</a>
</g>
</g>
<!-- Node51&#45;&gt;Node52 -->
<g id="edge37" class="edge">
<title>Node51&#45;&gt;Node52</title>
<path fill="none" stroke="midnightblue" d="M1439.81,-324.14C1615.72,-313.37 2166.37,-279.63 2369.63,-267.18"/>
<polygon fill="midnightblue" stroke="midnightblue" points="2370.15,-270.65 2379.91,-266.55 2369.72,-263.67 2370.15,-270.65"/>
</g>
<!-- Node78 -->
<g id="node49" class="node">
<title>Node78</title>
<g id="a_node49"><a xlink:href="_i_camera_8hpp.html" target="_top" xlink:title=" ">
<polygon fill="white" stroke="black" points="1260.5,-179.5 1260.5,-209.5 1369.5,-209.5 1369.5,-179.5 1260.5,-179.5"/>
<text text-anchor="start" x="1268.5" y="-197.5" font-family="Helvetica,sans-Serif" font-size="10.00">kryne&#45;engine/Camera</text>
<text text-anchor="middle" x="1315" y="-186.5" font-family="Helvetica,sans-Serif" font-size="10.00">/ICamera.hpp</text>
</a>
</g>
</g>
<!-- Node51&#45;&gt;Node78 -->
<g id="edge75" class="edge">
<title>Node51&#45;&gt;Node78</title>
<path fill="none" stroke="midnightblue" d="M1377.51,-313.37C1365.46,-290.65 1341.65,-245.75 1327.14,-218.4"/>
<polygon fill="midnightblue" stroke="midnightblue" points="1330.21,-216.72 1322.44,-209.52 1324.03,-220 1330.21,-216.72"/>
</g>
<!-- Node52&#45;&gt;Node42 -->
<g id="edge39" class="edge">
<title>Node52&#45;&gt;Node42</title>
<path fill="none" stroke="midnightblue" d="M2500.18,-252C2596.52,-235.65 2791.29,-196.64 2831,-143 2839.2,-131.93 2837.63,-124.08 2831,-112 2808.69,-71.36 2786.93,-70.81 2743,-56 2647.98,-23.97 2336,-14.05 2236.08,-11.65"/>
<polygon fill="midnightblue" stroke="midnightblue" points="2236.1,-8.15 2226.02,-11.42 2235.94,-15.15 2236.1,-8.15"/>
</g>
<!-- Node53 -->
<g id="node30" class="node">
<title>Node53</title>
<g id="a_node30"><a xlink:title=" ">
<polygon fill="white" stroke="#bfbfbf" points="2866,-185 2866,-204 2912,-204 2912,-185 2866,-185"/>
<text text-anchor="middle" x="2889" y="-192" font-family="Helvetica,sans-Serif" font-size="10.00">atomic</text>
</a>
</g>
</g>
<!-- Node52&#45;&gt;Node53 -->
<g id="edge38" class="edge">
<title>Node52&#45;&gt;Node53</title>
<path fill="none" stroke="midnightblue" d="M2512.33,-257.34C2593.5,-252.31 2734.62,-239.8 2852,-210 2854.67,-209.32 2857.4,-208.51 2860.11,-207.61"/>
<polygon fill="midnightblue" stroke="midnightblue" points="2861.52,-210.82 2869.71,-204.11 2859.12,-204.24 2861.52,-210.82"/>
</g>
<!-- Node54 -->
<g id="node31" class="node">
<title>Node54</title>
<g id="a_node31"><a xlink:title=" ">
<polygon fill="white" stroke="#bfbfbf" points="2941,-56.5 2941,-75.5 3019,-75.5 3019,-56.5 2941,-56.5"/>
<text text-anchor="middle" x="2980" y="-63.5" font-family="Helvetica,sans-Serif" font-size="10.00">unordered_set</text>
</a>
</g>
</g>
<!-- Node52&#45;&gt;Node54 -->
<g id="edge40" class="edge">
<title>Node52&#45;&gt;Node54</title>
<path fill="none" stroke="midnightblue" d="M2512.17,-259.16C2648.78,-255.7 2951.86,-244.21 2983,-210 3014.12,-175.82 2998.4,-115.74 2987.5,-85.5"/>
<polygon fill="midnightblue" stroke="midnightblue" points="2990.64,-83.9 2983.8,-75.81 2984.1,-86.4 2990.64,-83.9"/>
</g>
<!-- Node13 -->
<g id="node32" class="node">
<title>Node13</title>
<g id="a_node32"><a xlink:title=" ">
<polygon fill="white" stroke="#bfbfbf" points="2930,-185 2930,-204 2974,-204 2974,-185 2930,-185"/>
<text text-anchor="middle" x="2952" y="-192" font-family="Helvetica,sans-Serif" font-size="10.00">mutex</text>
</a>
</g>
</g>
<!-- Node52&#45;&gt;Node13 -->
<g id="edge41" class="edge">
<title>Node52&#45;&gt;Node13</title>
<path fill="none" stroke="midnightblue" d="M2512.21,-260.32C2605.19,-258.53 2779,-249.56 2921,-210 2922.93,-209.46 2924.89,-208.81 2926.84,-208.09"/>
<polygon fill="midnightblue" stroke="midnightblue" points="2928.46,-211.21 2936.3,-204.07 2925.73,-204.76 2928.46,-211.21"/>
</g>
<!-- Node55 -->
<g id="node33" class="node">
<title>Node55</title>
<g id="a_node33"><a xlink:href="_transform_8h.html" target="_top" xlink:title=" ">
<polygon fill="white" stroke="black" points="2385.5,-179.5 2385.5,-209.5 2506.5,-209.5 2506.5,-179.5 2385.5,-179.5"/>
<text text-anchor="start" x="2393.5" y="-197.5" font-family="Helvetica,sans-Serif" font-size="10.00">kryne&#45;engine/3DObjects</text>
<text text-anchor="middle" x="2446" y="-186.5" font-family="Helvetica,sans-Serif" font-size="10.00">/Transform.h</text>
</a>
</g>
</g>
<!-- Node52&#45;&gt;Node55 -->
<g id="edge42" class="edge">
<title>Node52&#45;&gt;Node55</title>
<path fill="none" stroke="midnightblue" d="M2441.21,-251.73C2439.49,-243.54 2438.9,-230.92 2439.45,-219.71"/>
<polygon fill="midnightblue" stroke="midnightblue" points="2442.95,-219.85 2440.32,-209.59 2435.98,-219.25 2442.95,-219.85"/>
</g>
<!-- Node65 -->
<g id="node43" class="node">
<title>Node65</title>
<g id="a_node43"><a xlink:href="_component_8h.html" target="_top" xlink:title=" ">
<polygon fill="white" stroke="black" points="1519,-56.5 1519,-75.5 1593,-75.5 1593,-56.5 1519,-56.5"/>
<text text-anchor="middle" x="1556" y="-63.5" font-family="Helvetica,sans-Serif" font-size="10.00">Component.h</text>
</a>
</g>
</g>
<!-- Node52&#45;&gt;Node65 -->
<g id="edge59" class="edge">
<title>Node52&#45;&gt;Node65</title>
<path fill="none" stroke="midnightblue" d="M2379.84,-258.59C2218.72,-253.4 1809.96,-237.56 1677,-210 1590.14,-192 1540.12,-215.49 1489,-143 1481.06,-131.74 1482.94,-124.37 1489,-112 1495.59,-98.55 1508.34,-87.97 1521.09,-80.46"/>
<polygon fill="midnightblue" stroke="midnightblue" points="1523.12,-83.34 1530.28,-75.53 1519.81,-77.17 1523.12,-83.34"/>
</g>
<!-- Node66 -->
<g id="node44" class="node">
<title>Node66</title>
<g id="a_node44"><a xlink:href="_process_8h.html" target="_top" xlink:title=" ">
<polygon fill="white" stroke="black" points="1694.5,-185 1694.5,-204 1755.5,-204 1755.5,-185 1694.5,-185"/>
<text text-anchor="middle" x="1725" y="-192" font-family="Helvetica,sans-Serif" font-size="10.00">Process.h</text>
</a>
</g>
</g>
<!-- Node52&#45;&gt;Node66 -->
<g id="edge62" class="edge">
<title>Node52&#45;&gt;Node66</title>
<path fill="none" stroke="midnightblue" d="M2379.91,-254.9C2233.32,-242.03 1884.83,-210.6 1765.68,-199.48"/>
<polygon fill="midnightblue" stroke="midnightblue" points="1765.81,-195.98 1755.53,-198.53 1765.16,-202.95 1765.81,-195.98"/>
</g>
<!-- Node55&#45;&gt;Node16 -->
<g id="edge43" class="edge">
<title>Node55&#45;&gt;Node16</title>
<path fill="none" stroke="midnightblue" d="M2385.38,-192.44C2234.84,-189.33 1831.97,-178.12 1498,-143 1479.49,-141.05 1459.02,-137.93 1442.11,-135.07"/>
<polygon fill="midnightblue" stroke="midnightblue" points="1442.53,-131.59 1432.08,-133.34 1441.34,-138.49 1442.53,-131.59"/>
</g>
<!-- Node55&#45;&gt;Node36 -->
<g id="edge49" class="edge">
<title>Node55&#45;&gt;Node36</title>
<path fill="none" stroke="midnightblue" d="M2385.45,-194.03C2314.45,-192.57 2194.61,-183.52 2101,-143 2080.68,-134.2 2082.72,-119.81 2062,-112 1909.39,-54.5 1491.6,-88.59 1329,-76 1316.75,-75.05 1303.53,-73.77 1291.25,-72.48"/>
<polygon fill="midnightblue" stroke="midnightblue" points="1291.51,-68.99 1281.2,-71.4 1290.76,-75.95 1291.51,-68.99"/>
</g>
<!-- Node55&#45;&gt;Node42 -->
<g id="edge44" class="edge">
<title>Node55&#45;&gt;Node42</title>
<path fill="none" stroke="midnightblue" d="M2506.55,-194.37C2600.54,-194.29 2774.85,-187.89 2814,-143 2823.06,-132.62 2822.91,-122.51 2814,-112 2738.47,-22.91 2350.06,-12.31 2236.33,-11.13"/>
<polygon fill="midnightblue" stroke="midnightblue" points="2236.23,-7.63 2226.2,-11.04 2236.17,-14.62 2236.23,-7.63"/>
</g>
<!-- Node55&#45;&gt;Node52 -->
<g id="edge58" class="edge">
<title>Node55&#45;&gt;Node52</title>
<path fill="none" stroke="midnightblue" d="M2451.68,-209.59C2452.91,-219 2453.08,-231.49 2452.18,-241.74"/>
<polygon fill="midnightblue" stroke="midnightblue" points="2448.7,-241.35 2450.79,-251.73 2455.64,-242.31 2448.7,-241.35"/>
</g>
<!-- Node19 -->
<g id="node34" class="node">
<title>Node19</title>
<g id="a_node34"><a xlink:title=" ">
<polygon fill="white" stroke="#bfbfbf" points="2656.5,-118 2656.5,-137 2699.5,-137 2699.5,-118 2656.5,-118"/>
<text text-anchor="middle" x="2678" y="-125" font-family="Helvetica,sans-Serif" font-size="10.00">queue</text>
</a>
</g>
</g>
<!-- Node55&#45;&gt;Node19 -->
<g id="edge45" class="edge">
<title>Node55&#45;&gt;Node19</title>
<path fill="none" stroke="midnightblue" d="M2506.7,-181.43C2547.05,-172.63 2600.9,-159.4 2647,-143 2648.62,-142.42 2650.26,-141.8 2651.91,-141.13"/>
<polygon fill="midnightblue" stroke="midnightblue" points="2653.43,-144.29 2661.19,-137.08 2650.63,-137.87 2653.43,-144.29"/>
</g>
<!-- Node56 -->
<g id="node35" class="node">
<title>Node56</title>
<g id="a_node35"><a xlink:title=" ">
<polygon fill="white" stroke="#bfbfbf" points="2718,-118 2718,-137 2788,-137 2788,-118 2718,-118"/>
<text text-anchor="middle" x="2753" y="-125" font-family="Helvetica,sans-Serif" font-size="10.00">glm/glm.hpp</text>
</a>
</g>
</g>
<!-- Node55&#45;&gt;Node56 -->
<g id="edge46" class="edge">
<title>Node55&#45;&gt;Node56</title>
<path fill="none" stroke="midnightblue" d="M2506.55,-184.15C2560.18,-175.33 2640.37,-160.82 2709,-143 2712.37,-142.12 2715.86,-141.13 2719.33,-140.08"/>
<polygon fill="midnightblue" stroke="midnightblue" points="2720.48,-143.39 2728.96,-137.04 2718.37,-136.72 2720.48,-143.39"/>
</g>
<!-- Node57 -->
<g id="node36" class="node">
<title>Node57</title>
<g id="a_node36"><a xlink:title=" ">
<polygon fill="white" stroke="#bfbfbf" points="1961,-118 1961,-137 2053,-137 2053,-118 1961,-118"/>
<text text-anchor="middle" x="2007" y="-125" font-family="Helvetica,sans-Serif" font-size="10.00">glm/common.hpp</text>
</a>
</g>
</g>
<!-- Node55&#45;&gt;Node57 -->
<g id="edge47" class="edge">
<title>Node55&#45;&gt;Node57</title>
<path fill="none" stroke="midnightblue" d="M2385.3,-187.39C2310.2,-179.38 2178.58,-163.86 2067,-143 2061.26,-141.93 2055.25,-140.66 2049.34,-139.32"/>
<polygon fill="midnightblue" stroke="midnightblue" points="2050.1,-135.9 2039.56,-137.03 2048.5,-142.71 2050.1,-135.9"/>
</g>
<!-- Node58 -->
<g id="node37" class="node">
<title>Node58</title>
<g id="a_node37"><a xlink:title=" ">
<polygon fill="white" stroke="#bfbfbf" points="2288.5,-118 2288.5,-137 2369.5,-137 2369.5,-118 2288.5,-118"/>
<text text-anchor="middle" x="2329" y="-125" font-family="Helvetica,sans-Serif" font-size="10.00">glm/matrix.hpp</text>
</a>
</g>
</g>
<!-- Node55&#45;&gt;Node58 -->
<g id="edge48" class="edge">
<title>Node55&#45;&gt;Node58</title>
<path fill="none" stroke="midnightblue" d="M2420.61,-179.4C2400.63,-168.29 2372.96,-152.92 2353.27,-141.98"/>
<polygon fill="midnightblue" stroke="midnightblue" points="2354.75,-138.8 2344.31,-137.01 2351.35,-144.92 2354.75,-138.8"/>
</g>
<!-- Node59 -->
<g id="node38" class="node">
<title>Node59</title>
<g id="a_node38"><a xlink:title=" ">
<polygon fill="white" stroke="#bfbfbf" points="2388,-118 2388,-137 2504,-137 2504,-118 2388,-118"/>
<text text-anchor="middle" x="2446" y="-125" font-family="Helvetica,sans-Serif" font-size="10.00">glm/gtc/quaternion.hpp</text>
</a>
</g>
</g>
<!-- Node55&#45;&gt;Node59 -->
<g id="edge50" class="edge">
<title>Node55&#45;&gt;Node59</title>
<path fill="none" stroke="midnightblue" d="M2446,-179.4C2446,-170.06 2446,-157.71 2446,-147.52"/>
<polygon fill="midnightblue" stroke="midnightblue" points="2449.5,-147.19 2446,-137.19 2442.5,-147.19 2449.5,-147.19"/>
</g>
<!-- Node60 -->
<g id="node39" class="node">
<title>Node60</title>
<g id="a_node39"><a xlink:title=" ">
<polygon fill="white" stroke="#bfbfbf" points="2522,-118 2522,-137 2638,-137 2638,-118 2522,-118"/>
<text text-anchor="middle" x="2580" y="-125" font-family="Helvetica,sans-Serif" font-size="10.00">glm/gtx/quaternion.hpp</text>
</a>
</g>
</g>
<!-- Node55&#45;&gt;Node60 -->
<g id="edge51" class="edge">
<title>Node55&#45;&gt;Node60</title>
<path fill="none" stroke="midnightblue" d="M2475.08,-179.4C2498.38,-168.09 2530.81,-152.36 2553.43,-141.39"/>
<polygon fill="midnightblue" stroke="midnightblue" points="2554.99,-144.52 2562.46,-137.01 2551.94,-138.22 2554.99,-144.52"/>
</g>
<!-- Node61 -->
<g id="node40" class="node">
<title>Node61</title>
<g id="a_node40"><a xlink:title=" ">
<polygon fill="white" stroke="#bfbfbf" points="1338.5,-56.5 1338.5,-75.5 1481.5,-75.5 1481.5,-56.5 1338.5,-56.5"/>
<text text-anchor="middle" x="1410" y="-63.5" font-family="Helvetica,sans-Serif" font-size="10.00">glm/gtc/matrix_transform.hpp</text>
</a>
</g>
</g>
<!-- Node55&#45;&gt;Node61 -->
<g id="edge52" class="edge">
<title>Node55&#45;&gt;Node61</title>
<path fill="none" stroke="midnightblue" d="M2506.72,-193.91C2597.05,-193.07 2760.16,-185.52 2797,-143 2806.02,-132.59 2806.61,-121.88 2797,-112 2772.07,-86.36 1545.7,-78.1 1510,-76 1504.09,-75.65 1497.99,-75.24 1491.85,-74.78"/>
<polygon fill="midnightblue" stroke="midnightblue" points="1491.76,-71.26 1481.52,-73.98 1491.22,-78.24 1491.76,-71.26"/>
</g>
<!-- Node62 -->
<g id="node41" class="node">
<title>Node62</title>
<g id="a_node41"><a xlink:href="_transform_8hpp.html" target="_top" xlink:title=" ">
<polygon fill="white" stroke="red" points="2109.5,-118 2109.5,-137 2270.5,-137 2270.5,-118 2109.5,-118"/>
<text text-anchor="middle" x="2190" y="-125" font-family="Helvetica,sans-Serif" font-size="10.00">kryne&#45;engine/Math/Transform.hpp</text>
</a>
</g>
</g>
<!-- Node55&#45;&gt;Node62 -->
<g id="edge53" class="edge">
<title>Node55&#45;&gt;Node62</title>
<path fill="none" stroke="midnightblue" d="M2390.77,-179.48C2343.68,-167.52 2276.93,-150.57 2233.55,-139.56"/>
<polygon fill="midnightblue" stroke="midnightblue" points="2234.14,-136.1 2223.59,-137.03 2232.42,-142.88 2234.14,-136.1"/>
</g>
<!-- Node64 -->
<g id="node42" class="node">
<title>Node64</title>
<g id="a_node42"><a xlink:href="_scene_8h.html" target="_top" xlink:title=" ">
<polygon fill="white" stroke="black" points="2920.5,-118 2920.5,-137 2973.5,-137 2973.5,-118 2920.5,-118"/>
<text text-anchor="middle" x="2947" y="-125" font-family="Helvetica,sans-Serif" font-size="10.00">Scene.h</text>
</a>
</g>
</g>
<!-- Node55&#45;&gt;Node64 -->
<g id="edge55" class="edge">
<title>Node55&#45;&gt;Node64</title>
<path fill="none" stroke="midnightblue" d="M2506.61,-187.45C2588.72,-178.98 2739.78,-162.42 2868,-143 2881.82,-140.91 2896.92,-138.23 2910.19,-135.75"/>
<polygon fill="midnightblue" stroke="midnightblue" points="2911.2,-139.12 2920.38,-133.81 2909.9,-132.24 2911.2,-139.12"/>
</g>
<!-- Node62&#45;&gt;Node36 -->
<g id="edge54" class="edge">
<title>Node62&#45;&gt;Node36</title>
<path fill="none" stroke="midnightblue" d="M2140.82,-117.99C2126.12,-115.72 2109.94,-113.49 2095,-112 1755.86,-78.24 1668.83,-101.95 1329,-76 1316.75,-75.06 1303.53,-73.79 1291.25,-72.5"/>
<polygon fill="midnightblue" stroke="midnightblue" points="1291.51,-69.01 1281.19,-71.41 1290.76,-75.97 1291.51,-69.01"/>
</g>
<!-- Node64&#45;&gt;Node52 -->
<g id="edge57" class="edge">
<title>Node64&#45;&gt;Node52</title>
<path fill="none" stroke="midnightblue" d="M2930.42,-137.08C2912.1,-146.72 2881.92,-163.1 2857,-179 2837.14,-191.67 2835.87,-201.25 2814,-210 2718.3,-248.28 2598.66,-258.44 2522.27,-260.68"/>
<polygon fill="midnightblue" stroke="midnightblue" points="2522.16,-257.18 2512.25,-260.94 2522.34,-264.18 2522.16,-257.18"/>
</g>
<!-- Node64&#45;&gt;Node54 -->
<g id="edge56" class="edge">
<title>Node64&#45;&gt;Node54</title>
<path fill="none" stroke="midnightblue" d="M2951.73,-117.98C2956.58,-109.23 2964.27,-95.37 2970.4,-84.31"/>
<polygon fill="midnightblue" stroke="midnightblue" points="2973.49,-85.95 2975.28,-75.51 2967.37,-82.56 2973.49,-85.95"/>
</g>
<!-- Node65&#45;&gt;Node42 -->
<g id="edge60" class="edge">
<title>Node65&#45;&gt;Node42</title>
<path fill="none" stroke="midnightblue" d="M1593.22,-61.9C1709.62,-52.22 2065.38,-22.62 2173.5,-13.62"/>
<polygon fill="midnightblue" stroke="midnightblue" points="2174.07,-17.09 2183.74,-12.77 2173.49,-10.11 2174.07,-17.09"/>
</g>
<!-- Node65&#45;&gt;Node52 -->
<g id="edge61" class="edge">
<title>Node65&#45;&gt;Node52</title>
<path fill="none" stroke="midnightblue" d="M1544.94,-75.53C1532.9,-83 1515.19,-95.29 1507,-112 1500.94,-124.37 1499.06,-131.74 1507,-143 1558.12,-215.49 1608.14,-192 1695,-210 1822.86,-236.5 2205.74,-252.17 2369.95,-257.94"/>
<polygon fill="midnightblue" stroke="midnightblue" points="2369.86,-261.44 2379.97,-258.29 2370.1,-254.45 2369.86,-261.44"/>
</g>
<!-- Node66&#45;&gt;Node9 -->
<g id="edge71" class="edge">
<title>Node66&#45;&gt;Node9</title>
<path fill="none" stroke="midnightblue" d="M1694.46,-192.12C1634.16,-189.41 1495.56,-183.29 1379,-179 878.41,-160.57 747.01,-205.57 246.62,-143.04"/>
<polygon fill="midnightblue" stroke="midnightblue" points="246.97,-139.56 236.61,-141.79 246.1,-146.51 246.97,-139.56"/>
</g>
<!-- Node66&#45;&gt;Node25 -->
<g id="edge64" class="edge">
<title>Node66&#45;&gt;Node25</title>
<path fill="none" stroke="midnightblue" d="M1694.1,-192.16C1571.64,-186.72 1120.33,-165.55 979,-143 923.75,-134.19 912.1,-121.68 857,-112 712.78,-86.66 540.04,-74.43 455.6,-69.6"/>
<polygon fill="midnightblue" stroke="midnightblue" points="455.69,-66.1 445.51,-69.04 455.29,-73.09 455.69,-66.1"/>
</g>
<!-- Node66&#45;&gt;Node17 -->
<g id="edge65" class="edge">
<title>Node66&#45;&gt;Node17</title>
<path fill="none" stroke="midnightblue" d="M1694.36,-192.02C1570.38,-185.9 1109.43,-162.09 1047,-143 1003.06,-129.56 957.85,-99.64 933.1,-81.61"/>
<polygon fill="midnightblue" stroke="midnightblue" points="935.06,-78.71 924.94,-75.56 930.89,-84.33 935.06,-78.71"/>
</g>
<!-- Node66&#45;&gt;Node16 -->
<g id="edge63" class="edge">
<title>Node66&#45;&gt;Node16</title>
<path fill="none" stroke="midnightblue" d="M1694.41,-187.27C1635.32,-175.23 1505.74,-148.82 1442.36,-135.91"/>
<polygon fill="midnightblue" stroke="midnightblue" points="1442.91,-132.45 1432.41,-133.88 1441.51,-139.31 1442.91,-132.45"/>
</g>
<!-- Node66&#45;&gt;Node52 -->
<g id="edge67" class="edge">
<title>Node66&#45;&gt;Node52</title>
<path fill="none" stroke="midnightblue" d="M1755.63,-198.01C1861.49,-207.13 2213.16,-238.79 2369.74,-253.22"/>
<polygon fill="midnightblue" stroke="midnightblue" points="2369.49,-256.72 2379.77,-254.15 2370.13,-249.74 2369.49,-256.72"/>
</g>
<!-- Node67 -->
<g id="node45" class="node">
<title>Node67</title>
<g id="a_node45"><a xlink:title=" ">
<polygon fill="white" stroke="#bfbfbf" points="1824.5,-118 1824.5,-137 1865.5,-137 1865.5,-118 1824.5,-118"/>
<text text-anchor="middle" x="1845" y="-125" font-family="Helvetica,sans-Serif" font-size="10.00">stack</text>
</a>
</g>
</g>
<!-- Node66&#45;&gt;Node67 -->
<g id="edge66" class="edge">
<title>Node66&#45;&gt;Node67</title>
<path fill="none" stroke="midnightblue" d="M1741.18,-184.73C1761.43,-173.77 1796.3,-154.88 1819.99,-142.05"/>
<polygon fill="midnightblue" stroke="midnightblue" points="1821.95,-144.97 1829.07,-137.13 1818.61,-138.81 1821.95,-144.97"/>
</g>
<!-- Node68 -->
<g id="node46" class="node">
<title>Node68</title>
<g id="a_node46"><a xlink:href="_system_8h.html" target="_top" xlink:title=" ">
<polygon fill="white" stroke="red" points="1883.5,-118 1883.5,-137 1942.5,-137 1942.5,-118 1883.5,-118"/>
<text text-anchor="middle" x="1913" y="-125" font-family="Helvetica,sans-Serif" font-size="10.00">System.h</text>
</a>
</g>
</g>
<!-- Node66&#45;&gt;Node68 -->
<g id="edge68" class="edge">
<title>Node66&#45;&gt;Node68</title>
<path fill="none" stroke="midnightblue" d="M1745.12,-184.88C1772.74,-175.07 1823.07,-158.41 1866,-143 1868.53,-142.09 1871.15,-141.13 1873.8,-140.16"/>
<polygon fill="midnightblue" stroke="midnightblue" points="1875.28,-143.35 1883.47,-136.63 1872.87,-136.77 1875.28,-143.35"/>
</g>
<!-- Node70 -->
<g id="node47" class="node">
<title>Node70</title>
<g id="a_node47"><a xlink:href="_graphic_context_8h.html" target="_top" xlink:title=" ">
<polygon fill="white" stroke="red" points="1643.5,-118 1643.5,-137 1806.5,-137 1806.5,-118 1643.5,-118"/>
<text text-anchor="middle" x="1725" y="-125" font-family="Helvetica,sans-Serif" font-size="10.00">GraphicContext/GraphicContext.h</text>
</a>
</g>
</g>
<!-- Node66&#45;&gt;Node70 -->
<g id="edge72" class="edge">
<title>Node66&#45;&gt;Node70</title>
<path fill="none" stroke="midnightblue" d="M1725,-184.73C1725,-175.18 1725,-159.62 1725,-147.28"/>
<polygon fill="midnightblue" stroke="midnightblue" points="1728.5,-147.13 1725,-137.13 1721.5,-147.13 1728.5,-147.13"/>
</g>
<!-- Node76 -->
<g id="node48" class="node">
<title>Node76</title>
<g id="a_node48"><a xlink:href="_render_mesh_8h.html" target="_top" xlink:title=" ">
<polygon fill="white" stroke="red" points="1506.5,-112.5 1506.5,-142.5 1625.5,-142.5 1625.5,-112.5 1506.5,-112.5"/>
<text text-anchor="start" x="1514.5" y="-130.5" font-family="Helvetica,sans-Serif" font-size="10.00">kryne&#45;engine/Rendering</text>
<text text-anchor="middle" x="1566" y="-119.5" font-family="Helvetica,sans-Serif" font-size="10.00">/RenderMesh.h</text>
</a>
</g>
</g>
<!-- Node66&#45;&gt;Node76 -->
<g id="edge73" class="edge">
<title>Node66&#45;&gt;Node76</title>
<path fill="none" stroke="midnightblue" d="M1703.89,-184.87C1680.03,-175.12 1640.53,-158.97 1609.91,-146.45"/>
<polygon fill="midnightblue" stroke="midnightblue" points="1610.9,-143.07 1600.31,-142.53 1608.25,-149.55 1610.9,-143.07"/>
</g>
<!-- Node68&#45;&gt;Node52 -->
<g id="edge70" class="edge">
<title>Node68&#45;&gt;Node52</title>
<path fill="none" stroke="midnightblue" d="M1934.7,-137.11C1940.29,-139.17 1946.33,-141.28 1952,-143 2109.94,-190.95 2301.1,-231.61 2392.4,-250"/>
<polygon fill="midnightblue" stroke="midnightblue" points="2391.75,-253.44 2402.24,-251.97 2393.12,-246.57 2391.75,-253.44"/>
</g>
<!-- Node68&#45;&gt;Node66 -->
<g id="edge69" class="edge">
<title>Node68&#45;&gt;Node66</title>
<path fill="none" stroke="midnightblue" d="M1899.7,-137.08C1894.74,-139.07 1889.18,-141.14 1884,-143 1844.04,-157.34 1797.67,-172.77 1765.21,-182.75"/>
<polygon fill="midnightblue" stroke="midnightblue" points="1764.16,-179.41 1755.6,-185.66 1766.19,-186.11 1764.16,-179.41"/>
</g>
<!-- Node76&#45;&gt;Node65 -->
<g id="edge74" class="edge">
<title>Node76&#45;&gt;Node65</title>
<path fill="none" stroke="midnightblue" d="M1563.63,-112.4C1562.28,-104.38 1560.58,-94.23 1559.12,-85.57"/>
<polygon fill="midnightblue" stroke="midnightblue" points="1562.56,-84.94 1557.46,-75.66 1555.66,-86.1 1562.56,-84.94"/>
</g>
<!-- Node78&#45;&gt;Node28 -->
<g id="edge77" class="edge">
<title>Node78&#45;&gt;Node28</title>
<path fill="none" stroke="midnightblue" d="M1260.33,-191.17C1189.96,-186.88 1073.56,-175.03 1047,-143 1038.21,-132.39 1040.11,-123.93 1047,-112 1055.68,-96.98 1071.49,-86.52 1086.62,-79.5"/>
<polygon fill="midnightblue" stroke="midnightblue" points="1088.05,-82.69 1095.88,-75.56 1085.31,-76.25 1088.05,-82.69"/>
</g>
<!-- Node78&#45;&gt;Node16 -->
<g id="edge76" class="edge">
<title>Node78&#45;&gt;Node16</title>
<path fill="none" stroke="midnightblue" d="M1334.75,-179.4C1349.86,-168.6 1370.64,-153.76 1385.86,-142.89"/>
<polygon fill="midnightblue" stroke="midnightblue" points="1387.99,-145.67 1394.09,-137.01 1383.92,-139.97 1387.99,-145.67"/>
</g>
<!-- Node79 -->
<g id="node50" class="node">
<title>Node79</title>
<g id="a_node50"><a xlink:href="_projection_data_8hpp.html" target="_top" xlink:title=" ">
<polygon fill="white" stroke="black" points="1262.5,-118 1262.5,-137 1361.5,-137 1361.5,-118 1262.5,-118"/>
<text text-anchor="middle" x="1312" y="-125" font-family="Helvetica,sans-Serif" font-size="10.00">ProjectionData.hpp</text>
</a>
</g>
</g>
<!-- Node78&#45;&gt;Node79 -->
<g id="edge78" class="edge">
<title>Node78&#45;&gt;Node79</title>
<path fill="none" stroke="midnightblue" d="M1314.35,-179.4C1313.91,-169.96 1313.34,-157.45 1312.86,-147.19"/>
<polygon fill="midnightblue" stroke="midnightblue" points="1316.36,-147.02 1312.4,-137.19 1309.37,-147.35 1316.36,-147.02"/>
</g>
<!-- Node79&#45;&gt;Node28 -->
<g id="edge79" class="edge">
<title>Node79&#45;&gt;Node28</title>
<path fill="none" stroke="midnightblue" d="M1285.21,-117.98C1252.71,-107.64 1197.79,-90.16 1161.46,-78.6"/>
<polygon fill="midnightblue" stroke="midnightblue" points="1162.33,-75.21 1151.74,-75.51 1160.21,-81.88 1162.33,-75.21"/>
</g>
<!-- Node79&#45;&gt;Node61 -->
<g id="edge80" class="edge">
<title>Node79&#45;&gt;Node61</title>
<path fill="none" stroke="midnightblue" d="M1326.04,-117.98C1342.05,-108.25 1368.45,-92.23 1387.37,-80.74"/>
<polygon fill="midnightblue" stroke="midnightblue" points="1389.25,-83.69 1395.99,-75.51 1385.62,-77.71 1389.25,-83.69"/>
</g>
</g>
</svg>
