<?xml version="1.0" encoding="UTF-8" standalone="no"?>
<!DOCTYPE svg PUBLIC "-//W3C//DTD SVG 1.1//EN"
 "http://www.w3.org/Graphics/SVG/1.1/DTD/svg11.dtd">
<!-- Generated by graphviz version 2.40.1 (20161225.0304)
 -->
<!-- Title: kryne&#45;engine/include/kryne&#45;engine/Material/MeshStandardMaterial.h Pages: 1 -->
<svg width="278pt" height="117pt"
 viewBox="0.00 0.00 278.00 117.00" xmlns="http://www.w3.org/2000/svg" xmlns:xlink="http://www.w3.org/1999/xlink">
<g id="graph0" class="graph" transform="scale(1 1) rotate(0) translate(4 113)">
<title>kryne&#45;engine/include/kryne&#45;engine/Material/MeshStandardMaterial.h</title>
<polygon fill="#ffffff" stroke="transparent" points="-4,4 -4,-113 274,-113 274,4 -4,4"/>
<!-- Node100 -->
<g id="node1" class="node">
<title>Node100</title>
<polygon fill="#bfbfbf" stroke="#000000" points="67.5,-67.5 67.5,-108.5 192.5,-108.5 192.5,-67.5 67.5,-67.5"/>
<text text-anchor="start" x="75.5" y="-96.5" font-family="Helvetica,sans-Serif" font-size="10.00" fill="#000000">kryne&#45;engine/include</text>
<text text-anchor="start" x="75.5" y="-85.5" font-family="Helvetica,sans-Serif" font-size="10.00" fill="#000000">/kryne&#45;engine/Material</text>
<text text-anchor="middle" x="130" y="-74.5" font-family="Helvetica,sans-Serif" font-size="10.00" fill="#000000">/MeshStandardMaterial.h</text>
</g>
<!-- Node101 -->
<g id="node2" class="node">
<title>Node101</title>
<g id="a_node2"><a xlink:href="_k_e_modules_2_material_8h.html" target="_top" xlink:title="kryne&#45;engine/include\l/KEModules/Material.h">
<polygon fill="#ffffff" stroke="#000000" points="0,-.5 0,-30.5 116,-30.5 116,-.5 0,-.5"/>
<text text-anchor="start" x="8" y="-18.5" font-family="Helvetica,sans-Serif" font-size="10.00" fill="#000000">kryne&#45;engine/include</text>
<text text-anchor="middle" x="58" y="-7.5" font-family="Helvetica,sans-Serif" font-size="10.00" fill="#000000">/KEModules/Material.h</text>
</a>
</g>
</g>
<!-- Node100&#45;&gt;Node101 -->
<g id="edge1" class="edge">
<title>Node100&#45;&gt;Node101</title>
<path fill="none" stroke="#191970" d="M102.4796,-60.2885C92.4645,-50.2038 81.521,-39.1843 72.995,-30.5991"/>
<polygon fill="#191970" stroke="#191970" points="100.0303,-62.7891 109.5603,-67.4183 104.9971,-57.8565 100.0303,-62.7891"/>
</g>
<!-- Node102 -->
<g id="node3" class="node">
<title>Node102</title>
<g id="a_node3"><a xlink:href="_mesh_standard_material_8cpp.html" target="_top" xlink:title="kryne&#45;engine/src/Material\l/MeshStandardMaterial.cpp">
<polygon fill="#ffffff" stroke="#000000" points="134,-.5 134,-30.5 270,-30.5 270,-.5 134,-.5"/>
<text text-anchor="start" x="142" y="-18.5" font-family="Helvetica,sans-Serif" font-size="10.00" fill="#000000">kryne&#45;engine/src/Material</text>
<text text-anchor="middle" x="202" y="-7.5" font-family="Helvetica,sans-Serif" font-size="10.00" fill="#000000">/MeshStandardMaterial.cpp</text>
</a>
</g>
</g>
<!-- Node100&#45;&gt;Node102 -->
<g id="edge2" class="edge">
<title>Node100&#45;&gt;Node102</title>
<path fill="none" stroke="#191970" d="M157.5204,-60.2885C167.5355,-50.2038 178.479,-39.1843 187.005,-30.5991"/>
<polygon fill="#191970" stroke="#191970" points="155.0029,-57.8565 150.4397,-67.4183 159.9697,-62.7891 155.0029,-57.8565"/>
</g>
</g>
</svg>
