<?xml version="1.0" encoding="UTF-8" standalone="no"?>
<!DOCTYPE svg PUBLIC "-//W3C//DTD SVG 1.1//EN"
 "http://www.w3.org/Graphics/SVG/1.1/DTD/svg11.dtd">
<!-- Generated by graphviz version 2.44.1 (20200629.0846)
 -->
<!-- Title: kryne&#45;engine/include/kryne&#45;engine/3DObjects/Mesh.h Pages: 1 -->
<svg width="2037pt" height="486pt"
 viewBox="0.00 0.00 2036.63 486.00" xmlns="http://www.w3.org/2000/svg" xmlns:xlink="http://www.w3.org/1999/xlink">
<g id="graph0" class="graph" transform="scale(1 1) rotate(0) translate(4 482)">
<title>kryne&#45;engine/include/kryne&#45;engine/3DObjects/Mesh.h</title>
<polygon fill="white" stroke="transparent" points="-4,4 -4,-482 2032.63,-482 2032.63,4 -4,4"/>
<!-- Node1 -->
<g id="node1" class="node">
<title>Node1</title>
<g id="a_node1"><a xlink:title=" ">
<polygon fill="#bfbfbf" stroke="black" points="727.63,-436.5 727.63,-477.5 851.63,-477.5 851.63,-436.5 727.63,-436.5"/>
<text text-anchor="start" x="735.63" y="-465.5" font-family="Helvetica,sans-Serif" font-size="10.00">kryne&#45;engine/include</text>
<text text-anchor="start" x="735.63" y="-454.5" font-family="Helvetica,sans-Serif" font-size="10.00">/kryne&#45;engine/3DObjects</text>
<text text-anchor="middle" x="789.63" y="-443.5" font-family="Helvetica,sans-Serif" font-size="10.00">/Mesh.h</text>
</a>
</g>
</g>
<!-- Node2 -->
<g id="node2" class="node">
<title>Node2</title>
<g id="a_node2"><a xlink:href="_material_8h.html" target="_top" xlink:title=" ">
<polygon fill="white" stroke="black" points="693.63,-369.5 693.63,-399.5 803.63,-399.5 803.63,-369.5 693.63,-369.5"/>
<text text-anchor="start" x="701.63" y="-387.5" font-family="Helvetica,sans-Serif" font-size="10.00">kryne&#45;engine/Material</text>
<text text-anchor="middle" x="748.63" y="-376.5" font-family="Helvetica,sans-Serif" font-size="10.00">/Material.h</text>
</a>
</g>
</g>
<!-- Node1&#45;&gt;Node2 -->
<g id="edge1" class="edge">
<title>Node1&#45;&gt;Node2</title>
<path fill="none" stroke="midnightblue" d="M778.21,-436.36C773.22,-427.77 767.32,-417.64 762.11,-408.68"/>
<polygon fill="midnightblue" stroke="midnightblue" points="765.05,-406.78 757,-399.89 759,-410.3 765.05,-406.78"/>
</g>
<!-- Node33 -->
<g id="node33" class="node">
<title>Node33</title>
<g id="a_node33"><a xlink:href="_camera_8h.html" target="_top" xlink:title=" ">
<polygon fill="white" stroke="black" points="901.13,-302.5 901.13,-332.5 1010.13,-332.5 1010.13,-302.5 901.13,-302.5"/>
<text text-anchor="start" x="909.13" y="-320.5" font-family="Helvetica,sans-Serif" font-size="10.00">kryne&#45;engine/Camera</text>
<text text-anchor="middle" x="955.63" y="-309.5" font-family="Helvetica,sans-Serif" font-size="10.00">/Camera.h</text>
</a>
</g>
</g>
<!-- Node1&#45;&gt;Node33 -->
<g id="edge41" class="edge">
<title>Node1&#45;&gt;Node33</title>
<path fill="none" stroke="midnightblue" d="M813.41,-436.3C844.52,-410.53 898.79,-365.59 930.53,-339.29"/>
<polygon fill="midnightblue" stroke="midnightblue" points="933,-341.79 938.47,-332.72 928.54,-336.4 933,-341.79"/>
</g>
<!-- Node3 -->
<g id="node3" class="node">
<title>Node3</title>
<g id="a_node3"><a xlink:href="_material_side_8h.html" target="_top" xlink:title=" ">
<polygon fill="white" stroke="black" points="559.63,-302.5 559.63,-332.5 663.63,-332.5 663.63,-302.5 559.63,-302.5"/>
<text text-anchor="start" x="567.63" y="-320.5" font-family="Helvetica,sans-Serif" font-size="10.00">kryne&#45;engine/enums</text>
<text text-anchor="middle" x="611.63" y="-309.5" font-family="Helvetica,sans-Serif" font-size="10.00">/MaterialSide.h</text>
</a>
</g>
</g>
<!-- Node2&#45;&gt;Node3 -->
<g id="edge2" class="edge">
<title>Node2&#45;&gt;Node3</title>
<path fill="none" stroke="midnightblue" d="M718.9,-369.4C698.89,-359.9 672.28,-347.28 650.58,-336.98"/>
<polygon fill="midnightblue" stroke="midnightblue" points="651.84,-333.7 641.3,-332.58 648.83,-340.03 651.84,-333.7"/>
</g>
<!-- Node4 -->
<g id="node4" class="node">
<title>Node4</title>
<g id="a_node4"><a xlink:href="_shader_program_compiler_8h.html" target="_top" xlink:title=" ">
<polygon fill="white" stroke="black" points="681.63,-302.5 681.63,-332.5 815.63,-332.5 815.63,-302.5 681.63,-302.5"/>
<text text-anchor="start" x="689.63" y="-320.5" font-family="Helvetica,sans-Serif" font-size="10.00">kryne&#45;engine/Rendering</text>
<text text-anchor="middle" x="748.63" y="-309.5" font-family="Helvetica,sans-Serif" font-size="10.00">/ShaderProgramCompiler.h</text>
</a>
</g>
</g>
<!-- Node2&#45;&gt;Node4 -->
<g id="edge3" class="edge">
<title>Node2&#45;&gt;Node4</title>
<path fill="none" stroke="midnightblue" d="M748.63,-369.4C748.63,-361.64 748.63,-351.81 748.63,-342.86"/>
<polygon fill="midnightblue" stroke="midnightblue" points="752.13,-342.58 748.63,-332.58 745.13,-342.58 752.13,-342.58"/>
</g>
<!-- Node5 -->
<g id="node5" class="node">
<title>Node5</title>
<g id="a_node5"><a xlink:title=" ">
<polygon fill="white" stroke="#bfbfbf" points="795.13,-241 795.13,-260 836.13,-260 836.13,-241 795.13,-241"/>
<text text-anchor="middle" x="815.63" y="-248" font-family="Helvetica,sans-Serif" font-size="10.00">regex</text>
</a>
</g>
</g>
<!-- Node4&#45;&gt;Node5 -->
<g id="edge4" class="edge">
<title>Node4&#45;&gt;Node5</title>
<path fill="none" stroke="midnightblue" d="M763.17,-302.4C773.82,-292.06 788.29,-278.02 799.34,-267.31"/>
<polygon fill="midnightblue" stroke="midnightblue" points="801.93,-269.67 806.67,-260.19 797.05,-264.65 801.93,-269.67"/>
</g>
<!-- Node6 -->
<g id="node6" class="node">
<title>Node6</title>
<g id="a_node6"><a xlink:href="_shader_8h.html" target="_top" xlink:title=" ">
<polygon fill="white" stroke="black" points="666.63,-235.5 666.63,-265.5 776.63,-265.5 776.63,-235.5 666.63,-235.5"/>
<text text-anchor="start" x="674.63" y="-253.5" font-family="Helvetica,sans-Serif" font-size="10.00">kryne&#45;engine/Material</text>
<text text-anchor="middle" x="721.63" y="-242.5" font-family="Helvetica,sans-Serif" font-size="10.00">/Shader.h</text>
</a>
</g>
</g>
<!-- Node4&#45;&gt;Node6 -->
<g id="edge5" class="edge">
<title>Node4&#45;&gt;Node6</title>
<path fill="none" stroke="midnightblue" d="M742.77,-302.4C739.45,-294.39 735.2,-284.16 731.38,-274.98"/>
<polygon fill="midnightblue" stroke="midnightblue" points="734.55,-273.47 727.48,-265.58 728.08,-276.15 734.55,-273.47"/>
</g>
<!-- Node25 -->
<g id="node25" class="node">
<title>Node25</title>
<g id="a_node25"><a xlink:href="_buffer_geometry_8h.html" target="_top" xlink:title=" ">
<polygon fill="white" stroke="black" points="296.63,-235.5 296.63,-265.5 414.63,-265.5 414.63,-235.5 296.63,-235.5"/>
<text text-anchor="start" x="304.63" y="-253.5" font-family="Helvetica,sans-Serif" font-size="10.00">kryne&#45;engine/Geometry</text>
<text text-anchor="middle" x="355.63" y="-242.5" font-family="Helvetica,sans-Serif" font-size="10.00">/BufferGeometry.h</text>
</a>
</g>
</g>
<!-- Node4&#45;&gt;Node25 -->
<g id="edge27" class="edge">
<title>Node4&#45;&gt;Node25</title>
<path fill="none" stroke="midnightblue" d="M681.51,-303.58C678.51,-303.04 675.54,-302.51 672.63,-302 587.44,-287.09 489.03,-271.7 424.75,-261.89"/>
<polygon fill="midnightblue" stroke="midnightblue" points="425.14,-258.41 414.73,-260.36 424.09,-265.33 425.14,-258.41"/>
</g>
<!-- Node7 -->
<g id="node7" class="node">
<title>Node7</title>
<g id="a_node7"><a xlink:title=" ">
<polygon fill="white" stroke="#bfbfbf" points="837.13,-179.5 837.13,-198.5 872.13,-198.5 872.13,-179.5 837.13,-179.5"/>
<text text-anchor="middle" x="854.63" y="-186.5" font-family="Helvetica,sans-Serif" font-size="10.00">map</text>
</a>
</g>
</g>
<!-- Node6&#45;&gt;Node7 -->
<g id="edge6" class="edge">
<title>Node6&#45;&gt;Node7</title>
<path fill="none" stroke="midnightblue" d="M753.15,-235.4C775.8,-225.27 806.02,-211.75 827.57,-202.1"/>
<polygon fill="midnightblue" stroke="midnightblue" points="829.11,-205.25 836.81,-197.97 826.25,-198.86 829.11,-205.25"/>
</g>
<!-- Node8 -->
<g id="node8" class="node">
<title>Node8</title>
<g id="a_node8"><a xlink:title=" ">
<polygon fill="white" stroke="#bfbfbf" points="766.63,-179.5 766.63,-198.5 818.63,-198.5 818.63,-179.5 766.63,-179.5"/>
<text text-anchor="middle" x="792.63" y="-186.5" font-family="Helvetica,sans-Serif" font-size="10.00">sstream</text>
</a>
</g>
</g>
<!-- Node6&#45;&gt;Node8 -->
<g id="edge7" class="edge">
<title>Node6&#45;&gt;Node8</title>
<path fill="none" stroke="midnightblue" d="M738.46,-235.4C749.31,-226.31 763.41,-214.49 774.5,-205.19"/>
<polygon fill="midnightblue" stroke="midnightblue" points="776.88,-207.76 782.3,-198.66 772.39,-202.4 776.88,-207.76"/>
</g>
<!-- Node9 -->
<g id="node9" class="node">
<title>Node9</title>
<g id="a_node9"><a xlink:href="_uniforms_handler_8h.html" target="_top" xlink:title=" ">
<polygon fill="white" stroke="black" points="474.63,-179.5 474.63,-198.5 570.63,-198.5 570.63,-179.5 474.63,-179.5"/>
<text text-anchor="middle" x="522.63" y="-186.5" font-family="Helvetica,sans-Serif" font-size="10.00">UniformsHandler.h</text>
</a>
</g>
</g>
<!-- Node6&#45;&gt;Node9 -->
<g id="edge8" class="edge">
<title>Node6&#45;&gt;Node9</title>
<path fill="none" stroke="midnightblue" d="M674.72,-235.47C639.94,-225.08 593.13,-211.08 560.67,-201.37"/>
<polygon fill="midnightblue" stroke="midnightblue" points="561.66,-198.02 551.08,-198.51 559.66,-204.72 561.66,-198.02"/>
</g>
<!-- Node17 -->
<g id="node17" class="node">
<title>Node17</title>
<g id="a_node17"><a xlink:href="_shader_chunk_8h.html" target="_top" xlink:title=" ">
<polygon fill="white" stroke="black" points="627.13,-179.5 627.13,-198.5 710.13,-198.5 710.13,-179.5 627.13,-179.5"/>
<text text-anchor="middle" x="668.63" y="-186.5" font-family="Helvetica,sans-Serif" font-size="10.00">ShaderChunk.h</text>
</a>
</g>
</g>
<!-- Node6&#45;&gt;Node17 -->
<g id="edge16" class="edge">
<title>Node6&#45;&gt;Node17</title>
<path fill="none" stroke="midnightblue" d="M709.07,-235.4C701.29,-226.66 691.27,-215.41 683.15,-206.3"/>
<polygon fill="midnightblue" stroke="midnightblue" points="685.61,-203.8 676.34,-198.66 680.38,-208.45 685.61,-203.8"/>
</g>
<!-- Node10 -->
<g id="node10" class="node">
<title>Node10</title>
<g id="a_node10"><a xlink:title=" ">
<polygon fill="white" stroke="#bfbfbf" points="373.13,-118 373.13,-137 414.13,-137 414.13,-118 373.13,-118"/>
<text text-anchor="middle" x="393.63" y="-125" font-family="Helvetica,sans-Serif" font-size="10.00">string</text>
</a>
</g>
</g>
<!-- Node9&#45;&gt;Node10 -->
<g id="edge9" class="edge">
<title>Node9&#45;&gt;Node10</title>
<path fill="none" stroke="midnightblue" d="M503.22,-179.34C483.21,-170.38 451.15,-155.9 423.63,-143 422.48,-142.46 421.31,-141.91 420.13,-141.35"/>
<polygon fill="midnightblue" stroke="midnightblue" points="421.58,-138.16 411.05,-137 418.56,-144.48 421.58,-138.16"/>
</g>
<!-- Node11 -->
<g id="node11" class="node">
<title>Node11</title>
<g id="a_node11"><a xlink:title=" ">
<polygon fill="white" stroke="#bfbfbf" points="557.13,-118 557.13,-137 640.13,-137 640.13,-118 557.13,-118"/>
<text text-anchor="middle" x="598.63" y="-125" font-family="Helvetica,sans-Serif" font-size="10.00">unordered_map</text>
</a>
</g>
</g>
<!-- Node9&#45;&gt;Node11 -->
<g id="edge10" class="edge">
<title>Node9&#45;&gt;Node11</title>
<path fill="none" stroke="midnightblue" d="M533.52,-179.48C545.6,-170.02 565.3,-154.6 579.87,-143.19"/>
<polygon fill="midnightblue" stroke="midnightblue" points="582.05,-145.93 587.76,-137.01 577.73,-140.42 582.05,-145.93"/>
</g>
<!-- Node12 -->
<g id="node12" class="node">
<title>Node12</title>
<g id="a_node12"><a xlink:title=" ">
<polygon fill="white" stroke="#bfbfbf" points="86.63,-118 86.63,-137 150.63,-137 150.63,-118 86.63,-118"/>
<text text-anchor="middle" x="118.63" y="-125" font-family="Helvetica,sans-Serif" font-size="10.00">glad/glad.h</text>
</a>
</g>
</g>
<!-- Node9&#45;&gt;Node12 -->
<g id="edge11" class="edge">
<title>Node9&#45;&gt;Node12</title>
<path fill="none" stroke="midnightblue" d="M474.54,-180.4C471.19,-179.91 467.86,-179.44 464.63,-179 329.39,-160.53 292.57,-173.95 159.63,-143 156.4,-142.25 153.06,-141.32 149.76,-140.31"/>
<polygon fill="midnightblue" stroke="midnightblue" points="150.66,-136.92 140.07,-137.09 148.45,-143.57 150.66,-136.92"/>
</g>
<!-- Node13 -->
<g id="node13" class="node">
<title>Node13</title>
<g id="a_node13"><a xlink:title=" ">
<polygon fill="white" stroke="#bfbfbf" points="168.63,-118 168.63,-137 246.63,-137 246.63,-118 168.63,-118"/>
<text text-anchor="middle" x="207.63" y="-125" font-family="Helvetica,sans-Serif" font-size="10.00">GLFW/glfw3.h</text>
</a>
</g>
</g>
<!-- Node9&#45;&gt;Node13 -->
<g id="edge12" class="edge">
<title>Node9&#45;&gt;Node13</title>
<path fill="none" stroke="midnightblue" d="M474.41,-180.21C403.31,-168.68 276.51,-147.89 255.63,-143 251.69,-142.08 247.6,-141.01 243.54,-139.88"/>
<polygon fill="midnightblue" stroke="midnightblue" points="244.21,-136.43 233.63,-137.01 242.25,-143.16 244.21,-136.43"/>
</g>
<!-- Node14 -->
<g id="node14" class="node">
<title>Node14</title>
<g id="a_node14"><a xlink:title=" ">
<polygon fill="white" stroke="#bfbfbf" points="658.63,-118 658.63,-137 744.63,-137 744.63,-118 658.63,-118"/>
<text text-anchor="middle" x="701.63" y="-125" font-family="Helvetica,sans-Serif" font-size="10.00">glm/mat4x4.hpp</text>
</a>
</g>
</g>
<!-- Node9&#45;&gt;Node14 -->
<g id="edge13" class="edge">
<title>Node9&#45;&gt;Node14</title>
<path fill="none" stroke="midnightblue" d="M548.28,-179.48C579.25,-169.18 631.5,-151.81 666.28,-140.25"/>
<polygon fill="midnightblue" stroke="midnightblue" points="667.65,-143.48 676.03,-137.01 665.44,-136.84 667.65,-143.48"/>
</g>
<!-- Node15 -->
<g id="node15" class="node">
<title>Node15</title>
<g id="a_node15"><a xlink:title=" ">
<polygon fill="white" stroke="#bfbfbf" points="432.63,-118 432.63,-137 538.63,-137 538.63,-118 432.63,-118"/>
<text text-anchor="middle" x="485.63" y="-125" font-family="Helvetica,sans-Serif" font-size="10.00">glm/gtc/type_ptr.hpp</text>
</a>
</g>
</g>
<!-- Node9&#45;&gt;Node15 -->
<g id="edge14" class="edge">
<title>Node9&#45;&gt;Node15</title>
<path fill="none" stroke="midnightblue" d="M517.33,-179.48C511.89,-170.73 503.27,-156.87 496.39,-145.81"/>
<polygon fill="midnightblue" stroke="midnightblue" points="499.18,-143.65 490.92,-137.01 493.23,-147.35 499.18,-143.65"/>
</g>
<!-- Node16 -->
<g id="node16" class="node">
<title>Node16</title>
<g id="a_node16"><a xlink:title=" ">
<polygon fill="white" stroke="#bfbfbf" points="264.63,-118 264.63,-137 354.63,-137 354.63,-118 264.63,-118"/>
<text text-anchor="middle" x="309.63" y="-125" font-family="Helvetica,sans-Serif" font-size="10.00">boost/variant.hpp</text>
</a>
</g>
</g>
<!-- Node9&#45;&gt;Node16 -->
<g id="edge15" class="edge">
<title>Node9&#45;&gt;Node16</title>
<path fill="none" stroke="midnightblue" d="M492.11,-179.48C454.71,-169.03 391.2,-151.29 349.84,-139.73"/>
<polygon fill="midnightblue" stroke="midnightblue" points="350.67,-136.33 340.09,-137.01 348.78,-143.07 350.67,-136.33"/>
</g>
<!-- Node17&#45;&gt;Node10 -->
<g id="edge18" class="edge">
<title>Node17&#45;&gt;Node10</title>
<path fill="none" stroke="midnightblue" d="M627.05,-183.81C577.62,-178.05 493.1,-165.71 423.63,-143 422.01,-142.47 420.36,-141.87 418.71,-141.22"/>
<polygon fill="midnightblue" stroke="midnightblue" points="420.05,-137.99 409.49,-137.15 417.23,-144.39 420.05,-137.99"/>
</g>
<!-- Node17&#45;&gt;Node11 -->
<g id="edge17" class="edge">
<title>Node17&#45;&gt;Node11</title>
<path fill="none" stroke="midnightblue" d="M658.6,-179.48C647.58,-170.11 629.67,-154.88 616.29,-143.51"/>
<polygon fill="midnightblue" stroke="midnightblue" points="618.53,-140.82 608.64,-137.01 613.99,-146.15 618.53,-140.82"/>
</g>
<!-- Node18 -->
<g id="node18" class="node">
<title>Node18</title>
<g id="a_node18"><a xlink:title=" ">
<polygon fill="white" stroke="#bfbfbf" points="801.13,-118 801.13,-137 850.13,-137 850.13,-118 801.13,-118"/>
<text text-anchor="middle" x="825.63" y="-125" font-family="Helvetica,sans-Serif" font-size="10.00">fstream</text>
</a>
</g>
</g>
<!-- Node17&#45;&gt;Node18 -->
<g id="edge19" class="edge">
<title>Node17&#45;&gt;Node18</title>
<path fill="none" stroke="midnightblue" d="M691.13,-179.48C717.94,-169.31 762.95,-152.26 793.44,-140.7"/>
<polygon fill="midnightblue" stroke="midnightblue" points="795.07,-143.83 803.18,-137.01 792.59,-137.28 795.07,-143.83"/>
</g>
<!-- Node19 -->
<g id="node19" class="node">
<title>Node19</title>
<g id="a_node19"><a xlink:title=" ">
<polygon fill="white" stroke="#bfbfbf" points="745.63,-0.5 745.63,-19.5 799.63,-19.5 799.63,-0.5 745.63,-0.5"/>
<text text-anchor="middle" x="772.63" y="-7.5" font-family="Helvetica,sans-Serif" font-size="10.00">iostream</text>
</a>
</g>
</g>
<!-- Node17&#45;&gt;Node19 -->
<g id="edge20" class="edge">
<title>Node17&#45;&gt;Node19</title>
<path fill="none" stroke="midnightblue" d="M699.79,-179.39C718.4,-172.6 740.85,-161.16 753.63,-143 777.66,-108.88 777.27,-57.37 774.94,-29.87"/>
<polygon fill="midnightblue" stroke="midnightblue" points="778.39,-29.26 773.88,-19.68 771.43,-29.98 778.39,-29.26"/>
</g>
<!-- Node20 -->
<g id="node20" class="node">
<title>Node20</title>
<g id="a_node20"><a xlink:href="_utils_8h.html" target="_top" xlink:title=" ">
<polygon fill="white" stroke="black" points="868.13,-112.5 868.13,-142.5 963.13,-142.5 963.13,-112.5 868.13,-112.5"/>
<text text-anchor="start" x="876.13" y="-130.5" font-family="Helvetica,sans-Serif" font-size="10.00">kryne&#45;engine/Utils</text>
<text text-anchor="middle" x="915.63" y="-119.5" font-family="Helvetica,sans-Serif" font-size="10.00">/Utils.h</text>
</a>
</g>
</g>
<!-- Node17&#45;&gt;Node20 -->
<g id="edge21" class="edge">
<title>Node17&#45;&gt;Node20</title>
<path fill="none" stroke="midnightblue" d="M705.45,-179.47C741.74,-171.02 799.02,-157.57 858.17,-143.09"/>
<polygon fill="midnightblue" stroke="midnightblue" points="859.18,-146.45 868.06,-140.66 857.51,-139.65 859.18,-146.45"/>
</g>
<!-- Node21 -->
<g id="node21" class="node">
<title>Node21</title>
<g id="a_node21"><a xlink:href="_string_utils_8hpp.html" target="_top" xlink:title=" ">
<polygon fill="white" stroke="black" points="800.63,-56.5 800.63,-75.5 880.63,-75.5 880.63,-56.5 800.63,-56.5"/>
<text text-anchor="middle" x="840.63" y="-63.5" font-family="Helvetica,sans-Serif" font-size="10.00">StringUtils.hpp</text>
</a>
</g>
</g>
<!-- Node20&#45;&gt;Node21 -->
<g id="edge22" class="edge">
<title>Node20&#45;&gt;Node21</title>
<path fill="none" stroke="midnightblue" d="M897.86,-112.4C886.28,-103.22 871.21,-91.26 859.44,-81.92"/>
<polygon fill="midnightblue" stroke="midnightblue" points="861.55,-79.13 851.54,-75.66 857.2,-84.61 861.55,-79.13"/>
</g>
<!-- Node22 -->
<g id="node22" class="node">
<title>Node22</title>
<g id="a_node22"><a xlink:href="_vector_mapping_8hpp.html" target="_top" xlink:title=" ">
<polygon fill="white" stroke="black" points="1895.13,-56.5 1895.13,-75.5 1996.13,-75.5 1996.13,-56.5 1895.13,-56.5"/>
<text text-anchor="middle" x="1945.63" y="-63.5" font-family="Helvetica,sans-Serif" font-size="10.00">VectorMapping.hpp</text>
</a>
</g>
</g>
<!-- Node20&#45;&gt;Node22 -->
<g id="edge24" class="edge">
<title>Node20&#45;&gt;Node22</title>
<path fill="none" stroke="midnightblue" d="M963.24,-123.75C1131.38,-114.04 1697.19,-81.35 1884.7,-70.52"/>
<polygon fill="midnightblue" stroke="midnightblue" points="1885.14,-74 1894.92,-69.93 1884.73,-67.01 1885.14,-74"/>
</g>
<!-- Node21&#45;&gt;Node19 -->
<g id="edge23" class="edge">
<title>Node21&#45;&gt;Node19</title>
<path fill="none" stroke="midnightblue" d="M829.71,-56.32C819.46,-48.18 803.91,-35.84 791.63,-26.09"/>
<polygon fill="midnightblue" stroke="midnightblue" points="793.76,-23.31 783.76,-19.83 789.41,-28.79 793.76,-23.31"/>
</g>
<!-- Node23 -->
<g id="node23" class="node">
<title>Node23</title>
<g id="a_node23"><a xlink:title=" ">
<polygon fill="white" stroke="#bfbfbf" points="1836.63,-0.5 1836.63,-19.5 1878.63,-19.5 1878.63,-0.5 1836.63,-0.5"/>
<text text-anchor="middle" x="1857.63" y="-7.5" font-family="Helvetica,sans-Serif" font-size="10.00">vector</text>
</a>
</g>
</g>
<!-- Node22&#45;&gt;Node23 -->
<g id="edge25" class="edge">
<title>Node22&#45;&gt;Node23</title>
<path fill="none" stroke="midnightblue" d="M1931.49,-56.32C1917.76,-47.9 1896.69,-34.97 1880.57,-25.07"/>
<polygon fill="midnightblue" stroke="midnightblue" points="1882.09,-21.9 1871.73,-19.65 1878.43,-27.87 1882.09,-21.9"/>
</g>
<!-- Node24 -->
<g id="node24" class="node">
<title>Node24</title>
<g id="a_node24"><a xlink:title=" ">
<polygon fill="white" stroke="#bfbfbf" points="1897.13,-0.5 1897.13,-19.5 2010.13,-19.5 2010.13,-0.5 1897.13,-0.5"/>
<text text-anchor="middle" x="1953.63" y="-7.5" font-family="Helvetica,sans-Serif" font-size="10.00">glm/detail/qualifier.hpp</text>
</a>
</g>
</g>
<!-- Node22&#45;&gt;Node24 -->
<g id="edge26" class="edge">
<title>Node22&#45;&gt;Node24</title>
<path fill="none" stroke="midnightblue" d="M1946.95,-56.08C1948.01,-48.93 1949.54,-38.64 1950.86,-29.69"/>
<polygon fill="midnightblue" stroke="midnightblue" points="1954.33,-30.16 1952.33,-19.75 1947.41,-29.13 1954.33,-30.16"/>
</g>
<!-- Node25&#45;&gt;Node11 -->
<g id="edge31" class="edge">
<title>Node25&#45;&gt;Node11</title>
<path fill="none" stroke="midnightblue" d="M414.9,-243.08C473.08,-235.6 556.37,-221.32 579.63,-199 593.47,-185.72 597.59,-163.52 598.64,-147.57"/>
<polygon fill="midnightblue" stroke="midnightblue" points="602.15,-147.39 598.96,-137.29 595.15,-147.17 602.15,-147.39"/>
</g>
<!-- Node25&#45;&gt;Node19 -->
<g id="edge30" class="edge">
<title>Node25&#45;&gt;Node19</title>
<path fill="none" stroke="midnightblue" d="M296.59,-249.95C206.4,-249.23 40.83,-241.92 3.63,-199 -2.19,-192.28 0.75,-187.41 3.63,-179 15.85,-143.34 23.02,-130.9 55.63,-112 173.45,-43.7 605.4,-18.67 735.38,-12.58"/>
<polygon fill="midnightblue" stroke="midnightblue" points="735.79,-16.07 745.62,-12.12 735.47,-9.08 735.79,-16.07"/>
</g>
<!-- Node26 -->
<g id="node26" class="node">
<title>Node26</title>
<g id="a_node26"><a xlink:title=" ">
<polygon fill="white" stroke="#bfbfbf" points="116.63,-179.5 116.63,-198.5 172.63,-198.5 172.63,-179.5 116.63,-179.5"/>
<text text-anchor="middle" x="144.63" y="-186.5" font-family="Helvetica,sans-Serif" font-size="10.00">algorithm</text>
</a>
</g>
</g>
<!-- Node25&#45;&gt;Node26 -->
<g id="edge28" class="edge">
<title>Node25&#45;&gt;Node26</title>
<path fill="none" stroke="midnightblue" d="M305.89,-235.47C268.08,-224.81 216.85,-210.37 182.37,-200.64"/>
<polygon fill="midnightblue" stroke="midnightblue" points="183.25,-197.25 172.68,-197.91 181.35,-203.99 183.25,-197.25"/>
</g>
<!-- Node27 -->
<g id="node27" class="node">
<title>Node27</title>
<g id="a_node27"><a xlink:title=" ">
<polygon fill="white" stroke="#bfbfbf" points="890.63,-179.5 890.63,-198.5 942.63,-198.5 942.63,-179.5 890.63,-179.5"/>
<text text-anchor="middle" x="916.63" y="-186.5" font-family="Helvetica,sans-Serif" font-size="10.00">memory</text>
</a>
</g>
</g>
<!-- Node25&#45;&gt;Node27 -->
<g id="edge29" class="edge">
<title>Node25&#45;&gt;Node27</title>
<path fill="none" stroke="midnightblue" d="M414.67,-246.7C510.43,-241.52 705.6,-228.35 880.48,-198.74"/>
<polygon fill="midnightblue" stroke="midnightblue" points="881.12,-202.18 890.38,-197.04 879.93,-195.28 881.12,-202.18"/>
</g>
<!-- Node28 -->
<g id="node28" class="node">
<title>Node28</title>
<g id="a_node28"><a xlink:title=" ">
<polygon fill="white" stroke="#bfbfbf" points="190.63,-179.5 190.63,-198.5 248.63,-198.5 248.63,-179.5 190.63,-179.5"/>
<text text-anchor="middle" x="219.63" y="-186.5" font-family="Helvetica,sans-Serif" font-size="10.00">functional</text>
</a>
</g>
</g>
<!-- Node25&#45;&gt;Node28 -->
<g id="edge32" class="edge">
<title>Node25&#45;&gt;Node28</title>
<path fill="none" stroke="midnightblue" d="M323.4,-235.4C300.79,-225.51 270.79,-212.38 248.87,-202.79"/>
<polygon fill="midnightblue" stroke="midnightblue" points="249.98,-199.46 239.42,-198.66 247.18,-205.87 249.98,-199.46"/>
</g>
<!-- Node29 -->
<g id="node29" class="node">
<title>Node29</title>
<g id="a_node29"><a xlink:title=" ">
<polygon fill="white" stroke="#bfbfbf" points="266.63,-179.5 266.63,-198.5 340.63,-198.5 340.63,-179.5 266.63,-179.5"/>
<text text-anchor="middle" x="303.63" y="-186.5" font-family="Helvetica,sans-Serif" font-size="10.00">glm/vec2.hpp</text>
</a>
</g>
</g>
<!-- Node25&#45;&gt;Node29 -->
<g id="edge33" class="edge">
<title>Node25&#45;&gt;Node29</title>
<path fill="none" stroke="midnightblue" d="M343.31,-235.4C335.67,-226.66 325.84,-215.41 317.87,-206.3"/>
<polygon fill="midnightblue" stroke="midnightblue" points="320.41,-203.88 311.2,-198.66 315.14,-208.49 320.41,-203.88"/>
</g>
<!-- Node30 -->
<g id="node30" class="node">
<title>Node30</title>
<g id="a_node30"><a xlink:title=" ">
<polygon fill="white" stroke="#bfbfbf" points="1611.63,-118 1611.63,-137 1685.63,-137 1685.63,-118 1611.63,-118"/>
<text text-anchor="middle" x="1648.63" y="-125" font-family="Helvetica,sans-Serif" font-size="10.00">glm/vec3.hpp</text>
</a>
</g>
</g>
<!-- Node25&#45;&gt;Node30 -->
<g id="edge34" class="edge">
<title>Node25&#45;&gt;Node30</title>
<path fill="none" stroke="midnightblue" d="M414.8,-247.34C487.77,-243.3 614.88,-231.78 718.63,-199 737.21,-193.13 738.83,-184.11 757.63,-179 918.93,-135.18 1441.26,-129.35 1601.47,-128.6"/>
<polygon fill="midnightblue" stroke="midnightblue" points="1601.51,-132.1 1611.49,-128.56 1601.48,-125.1 1601.51,-132.1"/>
</g>
<!-- Node31 -->
<g id="node31" class="node">
<title>Node31</title>
<g id="a_node31"><a xlink:title=" ">
<polygon fill="white" stroke="#bfbfbf" points="359.13,-179.5 359.13,-198.5 456.13,-198.5 456.13,-179.5 359.13,-179.5"/>
<text text-anchor="middle" x="407.63" y="-186.5" font-family="Helvetica,sans-Serif" font-size="10.00">glm/geometric.hpp</text>
</a>
</g>
</g>
<!-- Node25&#45;&gt;Node31 -->
<g id="edge35" class="edge">
<title>Node25&#45;&gt;Node31</title>
<path fill="none" stroke="midnightblue" d="M367.95,-235.4C375.59,-226.66 385.42,-215.41 393.39,-206.3"/>
<polygon fill="midnightblue" stroke="midnightblue" points="396.12,-208.49 400.06,-198.66 390.85,-203.88 396.12,-208.49"/>
</g>
<!-- Node32 -->
<g id="node32" class="node">
<title>Node32</title>
<g id="a_node32"><a xlink:href="_buffer_attribute_8h.html" target="_top" xlink:title=" ">
<polygon fill="white" stroke="black" points="12.63,-179.5 12.63,-198.5 98.63,-198.5 98.63,-179.5 12.63,-179.5"/>
<text text-anchor="middle" x="55.63" y="-186.5" font-family="Helvetica,sans-Serif" font-size="10.00">BufferAttribute.h</text>
</a>
</g>
</g>
<!-- Node25&#45;&gt;Node32 -->
<g id="edge36" class="edge">
<title>Node25&#45;&gt;Node32</title>
<path fill="none" stroke="midnightblue" d="M296.36,-237.74C241.77,-226.92 161.5,-211 108.9,-200.57"/>
<polygon fill="midnightblue" stroke="midnightblue" points="109.26,-197.07 98.77,-198.56 107.89,-203.93 109.26,-197.07"/>
</g>
<!-- Node32&#45;&gt;Node10 -->
<g id="edge38" class="edge">
<title>Node32&#45;&gt;Node10</title>
<path fill="none" stroke="midnightblue" d="M98.74,-180.43C101.75,-179.94 104.73,-179.45 107.63,-179 221.14,-161.2 253.7,-176.4 363.63,-143 365.31,-142.49 367,-141.9 368.69,-141.25"/>
<polygon fill="midnightblue" stroke="midnightblue" points="370.37,-144.34 378.12,-137.13 367.56,-137.93 370.37,-144.34"/>
</g>
<!-- Node32&#45;&gt;Node12 -->
<g id="edge39" class="edge">
<title>Node32&#45;&gt;Node12</title>
<path fill="none" stroke="midnightblue" d="M64.66,-179.48C74.39,-170.28 90.09,-155.46 102.05,-144.16"/>
<polygon fill="midnightblue" stroke="midnightblue" points="104.75,-146.42 109.62,-137.01 99.95,-141.33 104.75,-146.42"/>
</g>
<!-- Node32&#45;&gt;Node13 -->
<g id="edge40" class="edge">
<title>Node32&#45;&gt;Node13</title>
<path fill="none" stroke="midnightblue" d="M77.41,-179.48C103.37,-169.31 146.94,-152.26 176.47,-140.7"/>
<polygon fill="midnightblue" stroke="midnightblue" points="177.86,-143.91 185.89,-137.01 175.31,-137.4 177.86,-143.91"/>
</g>
<!-- Node32&#45;&gt;Node23 -->
<g id="edge37" class="edge">
<title>Node32&#45;&gt;Node23</title>
<path fill="none" stroke="midnightblue" d="M55.18,-179.18C54.89,-162.9 56.9,-128.31 77.63,-112 113.12,-84.08 844.55,-78.51 889.63,-76 1258.57,-55.44 1706.05,-22.38 1826.52,-13.35"/>
<polygon fill="midnightblue" stroke="midnightblue" points="1826.82,-16.84 1836.52,-12.6 1826.29,-9.86 1826.82,-16.84"/>
</g>
<!-- Node33&#45;&gt;Node27 -->
<g id="edge42" class="edge">
<title>Node33&#45;&gt;Node27</title>
<path fill="none" stroke="midnightblue" d="M949.34,-302.1C945.11,-292.1 939.61,-278.39 935.63,-266 929.4,-246.62 923.96,-223.92 920.52,-208.41"/>
<polygon fill="midnightblue" stroke="midnightblue" points="923.92,-207.57 918.38,-198.54 917.07,-209.05 923.92,-207.57"/>
</g>
<!-- Node34 -->
<g id="node34" class="node">
<title>Node34</title>
<g id="a_node34"><a xlink:href="_object3_d_8h.html" target="_top" xlink:title=" ">
<polygon fill="white" stroke="black" points="1435.13,-235.5 1435.13,-265.5 1556.13,-265.5 1556.13,-235.5 1435.13,-235.5"/>
<text text-anchor="start" x="1443.13" y="-253.5" font-family="Helvetica,sans-Serif" font-size="10.00">kryne&#45;engine/3DObjects</text>
<text text-anchor="middle" x="1495.63" y="-242.5" font-family="Helvetica,sans-Serif" font-size="10.00">/Object3D.h</text>
</a>
</g>
</g>
<!-- Node33&#45;&gt;Node34 -->
<g id="edge43" class="edge">
<title>Node33&#45;&gt;Node34</title>
<path fill="none" stroke="midnightblue" d="M1010.38,-309.91C1108.83,-298.06 1315.61,-273.17 1424.73,-260.03"/>
<polygon fill="midnightblue" stroke="midnightblue" points="1425.47,-263.47 1434.98,-258.8 1424.64,-256.52 1425.47,-263.47"/>
</g>
<!-- Node44 -->
<g id="node44" class="node">
<title>Node44</title>
<g id="a_node44"><a xlink:href="_projection_data_8hpp.html" target="_top" xlink:title=" ">
<polygon fill="white" stroke="black" points="945.13,-241 945.13,-260 1044.13,-260 1044.13,-241 945.13,-241"/>
<text text-anchor="middle" x="994.63" y="-248" font-family="Helvetica,sans-Serif" font-size="10.00">ProjectionData.hpp</text>
</a>
</g>
</g>
<!-- Node33&#45;&gt;Node44 -->
<g id="edge57" class="edge">
<title>Node33&#45;&gt;Node44</title>
<path fill="none" stroke="midnightblue" d="M964.09,-302.4C969.99,-292.56 977.9,-279.38 984.2,-268.89"/>
<polygon fill="midnightblue" stroke="midnightblue" points="987.27,-270.57 989.41,-260.19 981.27,-266.97 987.27,-270.57"/>
</g>
<!-- Node34&#45;&gt;Node23 -->
<g id="edge46" class="edge">
<title>Node34&#45;&gt;Node23</title>
<path fill="none" stroke="midnightblue" d="M1556.25,-249.69C1646.46,-248.56 1809.56,-240.63 1847.63,-199 1890.81,-151.78 1873.8,-66.85 1863.4,-29.49"/>
<polygon fill="midnightblue" stroke="midnightblue" points="1866.65,-28.12 1860.46,-19.52 1859.94,-30.1 1866.65,-28.12"/>
</g>
<!-- Node34&#45;&gt;Node27 -->
<g id="edge44" class="edge">
<title>Node34&#45;&gt;Node27</title>
<path fill="none" stroke="midnightblue" d="M1434.83,-243.89C1339.77,-235.02 1150.19,-216.91 989.63,-199 977.78,-197.68 964.85,-196.12 953.22,-194.68"/>
<polygon fill="midnightblue" stroke="midnightblue" points="953.33,-191.17 942.97,-193.4 952.46,-198.11 953.33,-191.17"/>
</g>
<!-- Node34&#45;&gt;Node30 -->
<g id="edge50" class="edge">
<title>Node34&#45;&gt;Node30</title>
<path fill="none" stroke="midnightblue" d="M1556.34,-239.4C1582.18,-232.19 1610.67,-219.9 1629.63,-199 1642.52,-184.8 1646.81,-162.76 1648.16,-147.11"/>
<polygon fill="midnightblue" stroke="midnightblue" points="1651.66,-147.22 1648.71,-137.04 1644.67,-146.84 1651.66,-147.22"/>
</g>
<!-- Node35 -->
<g id="node35" class="node">
<title>Node35</title>
<g id="a_node35"><a xlink:title=" ">
<polygon fill="white" stroke="#bfbfbf" points="1894.63,-179.5 1894.63,-198.5 1940.63,-198.5 1940.63,-179.5 1894.63,-179.5"/>
<text text-anchor="middle" x="1917.63" y="-186.5" font-family="Helvetica,sans-Serif" font-size="10.00">atomic</text>
</a>
</g>
</g>
<!-- Node34&#45;&gt;Node35 -->
<g id="edge45" class="edge">
<title>Node34&#45;&gt;Node35</title>
<path fill="none" stroke="midnightblue" d="M1556.3,-243.59C1632.43,-235.71 1766.81,-220.24 1880.63,-199 1881.91,-198.76 1883.21,-198.51 1884.52,-198.24"/>
<polygon fill="midnightblue" stroke="midnightblue" points="1885.61,-201.58 1894.62,-196 1884.1,-194.75 1885.61,-201.58"/>
</g>
<!-- Node36 -->
<g id="node36" class="node">
<title>Node36</title>
<g id="a_node36"><a xlink:title=" ">
<polygon fill="white" stroke="#bfbfbf" points="1958.63,-179.5 1958.63,-198.5 2028.63,-198.5 2028.63,-179.5 1958.63,-179.5"/>
<text text-anchor="middle" x="1993.63" y="-186.5" font-family="Helvetica,sans-Serif" font-size="10.00">glm/glm.hpp</text>
</a>
</g>
</g>
<!-- Node34&#45;&gt;Node36 -->
<g id="edge47" class="edge">
<title>Node34&#45;&gt;Node36</title>
<path fill="none" stroke="midnightblue" d="M1556.45,-244.51C1641.81,-237.11 1802.19,-221.77 1948.55,-199.04"/>
<polygon fill="midnightblue" stroke="midnightblue" points="1949.28,-202.47 1958.62,-197.46 1948.2,-195.55 1949.28,-202.47"/>
</g>
<!-- Node37 -->
<g id="node37" class="node">
<title>Node37</title>
<g id="a_node37"><a xlink:title=" ">
<polygon fill="white" stroke="#bfbfbf" points="1160.63,-179.5 1160.63,-198.5 1252.63,-198.5 1252.63,-179.5 1160.63,-179.5"/>
<text text-anchor="middle" x="1206.63" y="-186.5" font-family="Helvetica,sans-Serif" font-size="10.00">glm/common.hpp</text>
</a>
</g>
</g>
<!-- Node34&#45;&gt;Node37 -->
<g id="edge48" class="edge">
<title>Node34&#45;&gt;Node37</title>
<path fill="none" stroke="midnightblue" d="M1435.05,-237.03C1382.55,-226.22 1307.45,-210.76 1257.89,-200.55"/>
<polygon fill="midnightblue" stroke="midnightblue" points="1258.52,-197.11 1248.02,-198.52 1257.11,-203.97 1258.52,-197.11"/>
</g>
<!-- Node38 -->
<g id="node38" class="node">
<title>Node38</title>
<g id="a_node38"><a xlink:title=" ">
<polygon fill="white" stroke="#bfbfbf" points="1271.13,-179.5 1271.13,-198.5 1352.13,-198.5 1352.13,-179.5 1271.13,-179.5"/>
<text text-anchor="middle" x="1311.63" y="-186.5" font-family="Helvetica,sans-Serif" font-size="10.00">glm/matrix.hpp</text>
</a>
</g>
</g>
<!-- Node34&#45;&gt;Node38 -->
<g id="edge49" class="edge">
<title>Node34&#45;&gt;Node38</title>
<path fill="none" stroke="midnightblue" d="M1452.03,-235.4C1420.23,-225.12 1377.66,-211.35 1347.76,-201.68"/>
<polygon fill="midnightblue" stroke="midnightblue" points="1348.73,-198.32 1338.14,-198.57 1346.57,-204.98 1348.73,-198.32"/>
</g>
<!-- Node39 -->
<g id="node39" class="node">
<title>Node39</title>
<g id="a_node39"><a xlink:title=" ">
<polygon fill="white" stroke="#bfbfbf" points="1370.63,-179.5 1370.63,-198.5 1486.63,-198.5 1486.63,-179.5 1370.63,-179.5"/>
<text text-anchor="middle" x="1428.63" y="-186.5" font-family="Helvetica,sans-Serif" font-size="10.00">glm/gtc/quaternion.hpp</text>
</a>
</g>
</g>
<!-- Node34&#45;&gt;Node39 -->
<g id="edge51" class="edge">
<title>Node34&#45;&gt;Node39</title>
<path fill="none" stroke="midnightblue" d="M1479.75,-235.4C1469.62,-226.4 1456.47,-214.72 1446.05,-205.47"/>
<polygon fill="midnightblue" stroke="midnightblue" points="1448.18,-202.68 1438.38,-198.66 1443.53,-207.92 1448.18,-202.68"/>
</g>
<!-- Node40 -->
<g id="node40" class="node">
<title>Node40</title>
<g id="a_node40"><a xlink:title=" ">
<polygon fill="white" stroke="#bfbfbf" points="1504.63,-179.5 1504.63,-198.5 1620.63,-198.5 1620.63,-179.5 1504.63,-179.5"/>
<text text-anchor="middle" x="1562.63" y="-186.5" font-family="Helvetica,sans-Serif" font-size="10.00">glm/gtx/quaternion.hpp</text>
</a>
</g>
</g>
<!-- Node34&#45;&gt;Node40 -->
<g id="edge52" class="edge">
<title>Node34&#45;&gt;Node40</title>
<path fill="none" stroke="midnightblue" d="M1511.51,-235.4C1521.65,-226.4 1534.79,-214.72 1545.22,-205.47"/>
<polygon fill="midnightblue" stroke="midnightblue" points="1547.73,-207.92 1552.88,-198.66 1543.08,-202.68 1547.73,-207.92"/>
</g>
<!-- Node41 -->
<g id="node41" class="node">
<title>Node41</title>
<g id="a_node41"><a xlink:title=" ">
<polygon fill="white" stroke="#bfbfbf" points="999.13,-179.5 999.13,-198.5 1142.13,-198.5 1142.13,-179.5 999.13,-179.5"/>
<text text-anchor="middle" x="1070.63" y="-186.5" font-family="Helvetica,sans-Serif" font-size="10.00">glm/gtc/matrix_transform.hpp</text>
</a>
</g>
</g>
<!-- Node34&#45;&gt;Node41 -->
<g id="edge53" class="edge">
<title>Node34&#45;&gt;Node41</title>
<path fill="none" stroke="midnightblue" d="M1434.74,-240.98C1357.18,-230.12 1223.4,-211.39 1141.39,-199.91"/>
<polygon fill="midnightblue" stroke="midnightblue" points="1141.8,-196.43 1131.41,-198.51 1140.83,-203.36 1141.8,-196.43"/>
</g>
<!-- Node42 -->
<g id="node42" class="node">
<title>Node42</title>
<g id="a_node42"><a xlink:href="_transform_8hpp.html" target="_top" xlink:title=" ">
<polygon fill="white" stroke="black" points="1677.13,-179.5 1677.13,-198.5 1838.13,-198.5 1838.13,-179.5 1677.13,-179.5"/>
<text text-anchor="middle" x="1757.63" y="-186.5" font-family="Helvetica,sans-Serif" font-size="10.00">kryne&#45;engine/Math/Transform.hpp</text>
</a>
</g>
</g>
<!-- Node34&#45;&gt;Node42 -->
<g id="edge54" class="edge">
<title>Node34&#45;&gt;Node42</title>
<path fill="none" stroke="midnightblue" d="M1556.4,-235.7C1603.14,-225.08 1666.82,-210.62 1709.93,-200.83"/>
<polygon fill="midnightblue" stroke="midnightblue" points="1710.91,-204.2 1719.88,-198.57 1709.36,-197.37 1710.91,-204.2"/>
</g>
<!-- Node42&#45;&gt;Node30 -->
<g id="edge55" class="edge">
<title>Node42&#45;&gt;Node30</title>
<path fill="none" stroke="midnightblue" d="M1742.01,-179.48C1724.05,-169.67 1694.31,-153.43 1673.22,-141.92"/>
<polygon fill="midnightblue" stroke="midnightblue" points="1674.67,-138.73 1664.22,-137.01 1671.32,-144.87 1674.67,-138.73"/>
</g>
<!-- Node43 -->
<g id="node43" class="node">
<title>Node43</title>
<g id="a_node43"><a xlink:title=" ">
<polygon fill="white" stroke="#bfbfbf" points="1714.63,-118 1714.63,-137 1800.63,-137 1800.63,-118 1714.63,-118"/>
<text text-anchor="middle" x="1757.63" y="-125" font-family="Helvetica,sans-Serif" font-size="10.00">glm/mat3x3.hpp</text>
</a>
</g>
</g>
<!-- Node42&#45;&gt;Node43 -->
<g id="edge56" class="edge">
<title>Node42&#45;&gt;Node43</title>
<path fill="none" stroke="midnightblue" d="M1757.63,-179.48C1757.63,-171.08 1757.63,-157.98 1757.63,-147.16"/>
<polygon fill="midnightblue" stroke="midnightblue" points="1761.13,-147.01 1757.63,-137.01 1754.13,-147.01 1761.13,-147.01"/>
</g>
<!-- Node44&#45;&gt;Node14 -->
<g id="edge58" class="edge">
<title>Node44&#45;&gt;Node14</title>
<path fill="none" stroke="midnightblue" d="M991.98,-240.98C986.82,-225.89 973.94,-194.63 951.63,-179 935.68,-167.82 823.54,-148.15 754.98,-136.94"/>
<polygon fill="midnightblue" stroke="midnightblue" points="755.22,-133.44 744.78,-135.29 754.09,-140.35 755.22,-133.44"/>
</g>
<!-- Node44&#45;&gt;Node41 -->
<g id="edge59" class="edge">
<title>Node44&#45;&gt;Node41</title>
<path fill="none" stroke="midnightblue" d="M1005.52,-240.98C1017.6,-231.52 1037.3,-216.1 1051.87,-204.69"/>
<polygon fill="midnightblue" stroke="midnightblue" points="1054.05,-207.43 1059.76,-198.51 1049.73,-201.92 1054.05,-207.43"/>
</g>
</g>
</svg>
