<?xml version="1.0" encoding="UTF-8" standalone="no"?>
<!DOCTYPE svg PUBLIC "-//W3C//DTD SVG 1.1//EN"
 "http://www.w3.org/Graphics/SVG/1.1/DTD/svg11.dtd">
<!-- Generated by graphviz version 2.44.1 (20200629.0846)
 -->
<!-- Title: kryne&#45;engine/src/3DObjects/Mesh.cpp Pages: 1 -->
<svg width="1999pt" height="553pt"
 viewBox="0.00 0.00 1998.50 553.00" xmlns="http://www.w3.org/2000/svg" xmlns:xlink="http://www.w3.org/1999/xlink">
<g id="graph0" class="graph" transform="scale(1 1) rotate(0) translate(4 549)">
<title>kryne&#45;engine/src/3DObjects/Mesh.cpp</title>
<polygon fill="white" stroke="transparent" points="-4,4 -4,-549 1994.5,-549 1994.5,4 -4,4"/>
<!-- Node1 -->
<g id="node1" class="node">
<title>Node1</title>
<g id="a_node1"><a xlink:title=" ">
<polygon fill="#bfbfbf" stroke="black" points="813,-514.5 813,-544.5 950,-544.5 950,-514.5 813,-514.5"/>
<text text-anchor="start" x="821" y="-532.5" font-family="Helvetica,sans-Serif" font-size="10.00">kryne&#45;engine/src/3DObjects</text>
<text text-anchor="middle" x="881.5" y="-521.5" font-family="Helvetica,sans-Serif" font-size="10.00">/Mesh.cpp</text>
</a>
</g>
</g>
<!-- Node2 -->
<g id="node2" class="node">
<title>Node2</title>
<g id="a_node2"><a xlink:href="_mesh_8h.html" target="_top" xlink:title=" ">
<polygon fill="white" stroke="black" points="821,-447.5 821,-477.5 942,-477.5 942,-447.5 821,-447.5"/>
<text text-anchor="start" x="829" y="-465.5" font-family="Helvetica,sans-Serif" font-size="10.00">kryne&#45;engine/3DObjects</text>
<text text-anchor="middle" x="881.5" y="-454.5" font-family="Helvetica,sans-Serif" font-size="10.00">/Mesh.h</text>
</a>
</g>
</g>
<!-- Node1&#45;&gt;Node2 -->
<g id="edge1" class="edge">
<title>Node1&#45;&gt;Node2</title>
<path fill="none" stroke="midnightblue" d="M881.5,-514.4C881.5,-506.64 881.5,-496.81 881.5,-487.86"/>
<polygon fill="midnightblue" stroke="midnightblue" points="885,-487.58 881.5,-477.58 878,-487.58 885,-487.58"/>
</g>
<!-- Node3 -->
<g id="node3" class="node">
<title>Node3</title>
<g id="a_node3"><a xlink:href="kryne-engine_2_material_2_material_8h.html" target="_top" xlink:title=" ">
<polygon fill="white" stroke="black" points="762.5,-380.5 762.5,-410.5 872.5,-410.5 872.5,-380.5 762.5,-380.5"/>
<text text-anchor="start" x="770.5" y="-398.5" font-family="Helvetica,sans-Serif" font-size="10.00">kryne&#45;engine/Material</text>
<text text-anchor="middle" x="817.5" y="-387.5" font-family="Helvetica,sans-Serif" font-size="10.00">/Material.h</text>
</a>
</g>
</g>
<!-- Node2&#45;&gt;Node3 -->
<g id="edge2" class="edge">
<title>Node2&#45;&gt;Node3</title>
<path fill="none" stroke="midnightblue" d="M867.61,-447.4C859.14,-438.79 848.15,-427.63 838.61,-417.94"/>
<polygon fill="midnightblue" stroke="midnightblue" points="840.87,-415.25 831.36,-410.58 835.88,-420.16 840.87,-415.25"/>
</g>
<!-- Node37 -->
<g id="node35" class="node">
<title>Node37</title>
<g id="a_node35"><a xlink:href="kryne-engine_2_camera_2_camera_8h.html" target="_top" xlink:title=" ">
<polygon fill="white" stroke="black" points="1193,-380.5 1193,-410.5 1302,-410.5 1302,-380.5 1193,-380.5"/>
<text text-anchor="start" x="1201" y="-398.5" font-family="Helvetica,sans-Serif" font-size="10.00">kryne&#45;engine/Camera</text>
<text text-anchor="middle" x="1247.5" y="-387.5" font-family="Helvetica,sans-Serif" font-size="10.00">/Camera.h</text>
</a>
</g>
</g>
<!-- Node2&#45;&gt;Node37 -->
<g id="edge48" class="edge">
<title>Node2&#45;&gt;Node37</title>
<path fill="none" stroke="midnightblue" d="M942.35,-450.69C1008.76,-438.9 1114.68,-420.09 1182.63,-408.02"/>
<polygon fill="midnightblue" stroke="midnightblue" points="1183.56,-411.41 1192.79,-406.22 1182.33,-404.52 1183.56,-411.41"/>
</g>
<!-- Node4 -->
<g id="node4" class="node">
<title>Node4</title>
<g id="a_node4"><a xlink:href="_material_side_8h.html" target="_top" xlink:title=" ">
<polygon fill="white" stroke="black" points="765.5,-313.5 765.5,-343.5 869.5,-343.5 869.5,-313.5 765.5,-313.5"/>
<text text-anchor="start" x="773.5" y="-331.5" font-family="Helvetica,sans-Serif" font-size="10.00">kryne&#45;engine/enums</text>
<text text-anchor="middle" x="817.5" y="-320.5" font-family="Helvetica,sans-Serif" font-size="10.00">/MaterialSide.h</text>
</a>
</g>
</g>
<!-- Node3&#45;&gt;Node4 -->
<g id="edge3" class="edge">
<title>Node3&#45;&gt;Node4</title>
<path fill="none" stroke="midnightblue" d="M817.5,-380.4C817.5,-372.64 817.5,-362.81 817.5,-353.86"/>
<polygon fill="midnightblue" stroke="midnightblue" points="821,-353.58 817.5,-343.58 814,-353.58 821,-353.58"/>
</g>
<!-- Node5 -->
<g id="node5" class="node">
<title>Node5</title>
<g id="a_node5"><a xlink:href="_shader_program_compiler_8h.html" target="_top" xlink:title=" ">
<polygon fill="white" stroke="black" points="613.5,-313.5 613.5,-343.5 747.5,-343.5 747.5,-313.5 613.5,-313.5"/>
<text text-anchor="start" x="621.5" y="-331.5" font-family="Helvetica,sans-Serif" font-size="10.00">kryne&#45;engine/Rendering</text>
<text text-anchor="middle" x="680.5" y="-320.5" font-family="Helvetica,sans-Serif" font-size="10.00">/ShaderProgramCompiler.h</text>
</a>
</g>
</g>
<!-- Node3&#45;&gt;Node5 -->
<g id="edge4" class="edge">
<title>Node3&#45;&gt;Node5</title>
<path fill="none" stroke="midnightblue" d="M787.77,-380.4C767.76,-370.9 741.15,-358.28 719.45,-347.98"/>
<polygon fill="midnightblue" stroke="midnightblue" points="720.7,-344.7 710.17,-343.58 717.7,-351.03 720.7,-344.7"/>
</g>
<!-- Node6 -->
<g id="node6" class="node">
<title>Node6</title>
<g id="a_node6"><a xlink:title=" ">
<polygon fill="white" stroke="#bfbfbf" points="709,-252 709,-271 750,-271 750,-252 709,-252"/>
<text text-anchor="middle" x="729.5" y="-259" font-family="Helvetica,sans-Serif" font-size="10.00">regex</text>
</a>
</g>
</g>
<!-- Node5&#45;&gt;Node6 -->
<g id="edge5" class="edge">
<title>Node5&#45;&gt;Node6</title>
<path fill="none" stroke="midnightblue" d="M691.13,-313.4C698.7,-303.36 708.89,-289.84 716.87,-279.25"/>
<polygon fill="midnightblue" stroke="midnightblue" points="719.72,-281.29 722.95,-271.19 714.13,-277.07 719.72,-281.29"/>
</g>
<!-- Node7 -->
<g id="node7" class="node">
<title>Node7</title>
<g id="a_node7"><a xlink:href="_shader_8h.html" target="_top" xlink:title=" ">
<polygon fill="white" stroke="black" points="542.5,-246.5 542.5,-276.5 652.5,-276.5 652.5,-246.5 542.5,-246.5"/>
<text text-anchor="start" x="550.5" y="-264.5" font-family="Helvetica,sans-Serif" font-size="10.00">kryne&#45;engine/Material</text>
<text text-anchor="middle" x="597.5" y="-253.5" font-family="Helvetica,sans-Serif" font-size="10.00">/Shader.h</text>
</a>
</g>
</g>
<!-- Node5&#45;&gt;Node7 -->
<g id="edge6" class="edge">
<title>Node5&#45;&gt;Node7</title>
<path fill="none" stroke="midnightblue" d="M662.49,-313.4C651.07,-304.45 636.11,-292.74 623.42,-282.8"/>
<polygon fill="midnightblue" stroke="midnightblue" points="625.51,-279.99 615.47,-276.58 621.19,-285.5 625.51,-279.99"/>
</g>
<!-- Node31 -->
<g id="node28" class="node">
<title>Node31</title>
<g id="a_node28"><a xlink:href="_buffer_geometry_8h.html" target="_top" xlink:title=" ">
<polygon fill="white" stroke="black" points="1089.5,-179.5 1089.5,-209.5 1207.5,-209.5 1207.5,-179.5 1089.5,-179.5"/>
<text text-anchor="start" x="1097.5" y="-197.5" font-family="Helvetica,sans-Serif" font-size="10.00">kryne&#45;engine/Geometry</text>
<text text-anchor="middle" x="1148.5" y="-186.5" font-family="Helvetica,sans-Serif" font-size="10.00">/BufferGeometry.h</text>
</a>
</g>
</g>
<!-- Node5&#45;&gt;Node31 -->
<g id="edge34" class="edge">
<title>Node5&#45;&gt;Node31</title>
<path fill="none" stroke="midnightblue" d="M679.3,-313.26C678.6,-294.78 680.5,-262.9 699.5,-246 727.3,-221.28 960.5,-205.46 1079.38,-198.93"/>
<polygon fill="midnightblue" stroke="midnightblue" points="1079.68,-202.42 1089.48,-198.38 1079.3,-195.43 1079.68,-202.42"/>
</g>
<!-- Node8 -->
<g id="node8" class="node">
<title>Node8</title>
<g id="a_node8"><a xlink:title=" ">
<polygon fill="white" stroke="#bfbfbf" points="645,-185 645,-204 680,-204 680,-185 645,-185"/>
<text text-anchor="middle" x="662.5" y="-192" font-family="Helvetica,sans-Serif" font-size="10.00">map</text>
</a>
</g>
</g>
<!-- Node7&#45;&gt;Node8 -->
<g id="edge7" class="edge">
<title>Node7&#45;&gt;Node8</title>
<path fill="none" stroke="midnightblue" d="M611.6,-246.4C621.94,-236.06 635.98,-222.02 646.69,-211.31"/>
<polygon fill="midnightblue" stroke="midnightblue" points="649.21,-213.74 653.81,-204.19 644.26,-208.79 649.21,-213.74"/>
</g>
<!-- Node9 -->
<g id="node9" class="node">
<title>Node9</title>
<g id="a_node9"><a xlink:title=" ">
<polygon fill="white" stroke="#bfbfbf" points="698.5,-185 698.5,-204 750.5,-204 750.5,-185 698.5,-185"/>
<text text-anchor="middle" x="724.5" y="-192" font-family="Helvetica,sans-Serif" font-size="10.00">sstream</text>
</a>
</g>
</g>
<!-- Node7&#45;&gt;Node9 -->
<g id="edge8" class="edge">
<title>Node7&#45;&gt;Node9</title>
<path fill="none" stroke="midnightblue" d="M625.06,-246.4C646.95,-235.19 677.33,-219.64 698.74,-208.69"/>
<polygon fill="midnightblue" stroke="midnightblue" points="700.57,-211.68 707.88,-204.01 697.38,-205.45 700.57,-211.68"/>
</g>
<!-- Node10 -->
<g id="node10" class="node">
<title>Node10</title>
<g id="a_node10"><a xlink:href="_uniforms_handler_8h.html" target="_top" xlink:title=" ">
<polygon fill="white" stroke="black" points="530.5,-185 530.5,-204 626.5,-204 626.5,-185 530.5,-185"/>
<text text-anchor="middle" x="578.5" y="-192" font-family="Helvetica,sans-Serif" font-size="10.00">UniformsHandler.h</text>
</a>
</g>
</g>
<!-- Node7&#45;&gt;Node10 -->
<g id="edge9" class="edge">
<title>Node7&#45;&gt;Node10</title>
<path fill="none" stroke="midnightblue" d="M593.38,-246.4C590.59,-236.86 586.88,-224.18 583.87,-213.86"/>
<polygon fill="midnightblue" stroke="midnightblue" points="587.21,-212.81 581.04,-204.19 580.49,-214.77 587.21,-212.81"/>
</g>
<!-- Node24 -->
<g id="node24" class="node">
<title>Node24</title>
<g id="a_node24"><a xlink:href="_shader_chunk_8h.html" target="_top" xlink:title=" ">
<polygon fill="white" stroke="black" points="150,-185 150,-204 233,-204 233,-185 150,-185"/>
<text text-anchor="middle" x="191.5" y="-192" font-family="Helvetica,sans-Serif" font-size="10.00">ShaderChunk.h</text>
</a>
</g>
</g>
<!-- Node7&#45;&gt;Node24 -->
<g id="edge26" class="edge">
<title>Node7&#45;&gt;Node24</title>
<path fill="none" stroke="midnightblue" d="M542.32,-251.67C463.47,-239.04 319.64,-216.01 242.92,-203.73"/>
<polygon fill="midnightblue" stroke="midnightblue" points="243.43,-200.27 233,-202.14 242.32,-207.18 243.43,-200.27"/>
</g>
<!-- Node11 -->
<g id="node11" class="node">
<title>Node11</title>
<g id="a_node11"><a xlink:title=" ">
<polygon fill="white" stroke="#bfbfbf" points="284,-56.5 284,-75.5 325,-75.5 325,-56.5 284,-56.5"/>
<text text-anchor="middle" x="304.5" y="-63.5" font-family="Helvetica,sans-Serif" font-size="10.00">string</text>
</a>
</g>
</g>
<!-- Node10&#45;&gt;Node11 -->
<g id="edge10" class="edge">
<title>Node10&#45;&gt;Node11</title>
<path fill="none" stroke="midnightblue" d="M530.35,-192.39C455.62,-189.54 317.11,-179.36 286.5,-143 272.63,-126.53 282.9,-101.24 292.69,-84.42"/>
<polygon fill="midnightblue" stroke="midnightblue" points="295.86,-85.95 298.22,-75.62 289.94,-82.23 295.86,-85.95"/>
</g>
<!-- Node12 -->
<g id="node12" class="node">
<title>Node12</title>
<g id="a_node12"><a xlink:title=" ">
<polygon fill="white" stroke="#bfbfbf" points="840,-118 840,-137 923,-137 923,-118 840,-118"/>
<text text-anchor="middle" x="881.5" y="-125" font-family="Helvetica,sans-Serif" font-size="10.00">unordered_map</text>
</a>
</g>
</g>
<!-- Node10&#45;&gt;Node12 -->
<g id="edge11" class="edge">
<title>Node10&#45;&gt;Node12</title>
<path fill="none" stroke="midnightblue" d="M610.37,-185C618.53,-182.93 627.32,-180.79 635.5,-179 721.59,-160.13 744.69,-163.07 830.5,-143 834.68,-142.02 839.04,-140.92 843.36,-139.77"/>
<polygon fill="midnightblue" stroke="midnightblue" points="844.59,-143.06 853.3,-137.03 842.73,-136.31 844.59,-143.06"/>
</g>
<!-- Node13 -->
<g id="node13" class="node">
<title>Node13</title>
<g id="a_node13"><a xlink:title=" ">
<polygon fill="white" stroke="#bfbfbf" points="730.5,-56.5 730.5,-75.5 794.5,-75.5 794.5,-56.5 730.5,-56.5"/>
<text text-anchor="middle" x="762.5" y="-63.5" font-family="Helvetica,sans-Serif" font-size="10.00">glad/glad.h</text>
</a>
</g>
</g>
<!-- Node10&#45;&gt;Node13 -->
<g id="edge12" class="edge">
<title>Node10&#45;&gt;Node13</title>
<path fill="none" stroke="midnightblue" d="M596.95,-184.84C616.18,-175.5 646.88,-159.72 671.5,-143 699.01,-124.31 728.04,-98.94 745.72,-82.77"/>
<polygon fill="midnightblue" stroke="midnightblue" points="748.46,-85 753.42,-75.64 743.71,-79.86 748.46,-85"/>
</g>
<!-- Node14 -->
<g id="node14" class="node">
<title>Node14</title>
<g id="a_node14"><a xlink:title=" ">
<polygon fill="white" stroke="#bfbfbf" points="634.5,-56.5 634.5,-75.5 712.5,-75.5 712.5,-56.5 634.5,-56.5"/>
<text text-anchor="middle" x="673.5" y="-63.5" font-family="Helvetica,sans-Serif" font-size="10.00">GLFW/glfw3.h</text>
</a>
</g>
</g>
<!-- Node10&#45;&gt;Node14 -->
<g id="edge13" class="edge">
<title>Node10&#45;&gt;Node14</title>
<path fill="none" stroke="midnightblue" d="M596.49,-184.97C612.58,-176.47 635.7,-161.96 649.5,-143 661.94,-125.91 668.08,-102.16 671.01,-85.78"/>
<polygon fill="midnightblue" stroke="midnightblue" points="674.48,-86.21 672.56,-75.79 667.57,-85.13 674.48,-86.21"/>
</g>
<!-- Node15 -->
<g id="node15" class="node">
<title>Node15</title>
<g id="a_node15"><a xlink:title=" ">
<polygon fill="white" stroke="#bfbfbf" points="735.5,-118 735.5,-137 821.5,-137 821.5,-118 735.5,-118"/>
<text text-anchor="middle" x="778.5" y="-125" font-family="Helvetica,sans-Serif" font-size="10.00">glm/mat4x4.hpp</text>
</a>
</g>
</g>
<!-- Node10&#45;&gt;Node15 -->
<g id="edge14" class="edge">
<title>Node10&#45;&gt;Node15</title>
<path fill="none" stroke="midnightblue" d="M605.06,-184.87C640.42,-173.38 703.09,-153.01 742.63,-140.16"/>
<polygon fill="midnightblue" stroke="midnightblue" points="743.72,-143.48 752.15,-137.06 741.56,-136.83 743.72,-143.48"/>
</g>
<!-- Node16 -->
<g id="node16" class="node">
<title>Node16</title>
<g id="a_node16"><a xlink:title=" ">
<polygon fill="white" stroke="#bfbfbf" points="295.5,-118 295.5,-137 401.5,-137 401.5,-118 295.5,-118"/>
<text text-anchor="middle" x="348.5" y="-125" font-family="Helvetica,sans-Serif" font-size="10.00">glm/gtc/type_ptr.hpp</text>
</a>
</g>
</g>
<!-- Node10&#45;&gt;Node16 -->
<g id="edge15" class="edge">
<title>Node10&#45;&gt;Node16</title>
<path fill="none" stroke="midnightblue" d="M547.96,-184.87C506.95,-173.28 434,-152.66 388.6,-139.83"/>
<polygon fill="midnightblue" stroke="midnightblue" points="389.38,-136.42 378.8,-137.06 387.47,-143.15 389.38,-136.42"/>
</g>
<!-- Node17 -->
<g id="node17" class="node">
<title>Node17</title>
<g id="a_node17"><a xlink:title=" ">
<polygon fill="white" stroke="#bfbfbf" points="419.5,-118 419.5,-137 509.5,-137 509.5,-118 419.5,-118"/>
<text text-anchor="middle" x="464.5" y="-125" font-family="Helvetica,sans-Serif" font-size="10.00">boost/variant.hpp</text>
</a>
</g>
</g>
<!-- Node10&#45;&gt;Node17 -->
<g id="edge16" class="edge">
<title>Node10&#45;&gt;Node17</title>
<path fill="none" stroke="midnightblue" d="M563.13,-184.73C543.98,-173.82 511.06,-155.05 488.56,-142.22"/>
<polygon fill="midnightblue" stroke="midnightblue" points="490.05,-139.04 479.63,-137.13 486.58,-145.12 490.05,-139.04"/>
</g>
<!-- Node18 -->
<g id="node18" class="node">
<title>Node18</title>
<g id="a_node18"><a xlink:href="_texture_8h.html" target="_top" xlink:title=" ">
<polygon fill="white" stroke="black" points="528,-112.5 528,-142.5 641,-142.5 641,-112.5 528,-112.5"/>
<text text-anchor="start" x="536" y="-130.5" font-family="Helvetica,sans-Serif" font-size="10.00">kryne&#45;engine/Textures</text>
<text text-anchor="middle" x="584.5" y="-119.5" font-family="Helvetica,sans-Serif" font-size="10.00">/Texture.h</text>
</a>
</g>
</g>
<!-- Node10&#45;&gt;Node18 -->
<g id="edge17" class="edge">
<title>Node10&#45;&gt;Node18</title>
<path fill="none" stroke="midnightblue" d="M579.31,-184.73C580.07,-176.54 581.23,-163.92 582.26,-152.71"/>
<polygon fill="midnightblue" stroke="midnightblue" points="585.77,-152.87 583.2,-142.59 578.8,-152.22 585.77,-152.87"/>
</g>
<!-- Node18&#45;&gt;Node11 -->
<g id="edge19" class="edge">
<title>Node18&#45;&gt;Node11</title>
<path fill="none" stroke="midnightblue" d="M527.98,-114.05C524.77,-113.35 521.6,-112.67 518.5,-112 453.28,-97.98 376.78,-82.01 335.2,-73.37"/>
<polygon fill="midnightblue" stroke="midnightblue" points="335.67,-69.89 325.17,-71.28 334.25,-76.74 335.67,-69.89"/>
</g>
<!-- Node18&#45;&gt;Node13 -->
<g id="edge24" class="edge">
<title>Node18&#45;&gt;Node13</title>
<path fill="none" stroke="midnightblue" d="M626.68,-112.4C657.31,-102.16 698.27,-88.47 727.17,-78.81"/>
<polygon fill="midnightblue" stroke="midnightblue" points="728.48,-82.06 736.86,-75.57 726.27,-75.42 728.48,-82.06"/>
</g>
<!-- Node18&#45;&gt;Node14 -->
<g id="edge25" class="edge">
<title>Node18&#45;&gt;Node14</title>
<path fill="none" stroke="midnightblue" d="M605.59,-112.4C619.59,-103.04 637.91,-90.79 651.99,-81.38"/>
<polygon fill="midnightblue" stroke="midnightblue" points="654.18,-84.13 660.55,-75.66 650.29,-78.31 654.18,-84.13"/>
</g>
<!-- Node19 -->
<g id="node19" class="node">
<title>Node19</title>
<g id="a_node19"><a xlink:title=" ">
<polygon fill="white" stroke="#bfbfbf" points="546.5,-56.5 546.5,-75.5 616.5,-75.5 616.5,-56.5 546.5,-56.5"/>
<text text-anchor="middle" x="581.5" y="-63.5" font-family="Helvetica,sans-Serif" font-size="10.00">stb_image.h</text>
</a>
</g>
</g>
<!-- Node18&#45;&gt;Node19 -->
<g id="edge18" class="edge">
<title>Node18&#45;&gt;Node19</title>
<path fill="none" stroke="midnightblue" d="M583.79,-112.4C583.39,-104.47 582.88,-94.46 582.45,-85.86"/>
<polygon fill="midnightblue" stroke="midnightblue" points="585.94,-85.47 581.94,-75.66 578.94,-85.82 585.94,-85.47"/>
</g>
<!-- Node20 -->
<g id="node20" class="node">
<title>Node20</title>
<g id="a_node20"><a xlink:title=" ">
<polygon fill="white" stroke="#bfbfbf" points="346.5,-0.5 346.5,-19.5 400.5,-19.5 400.5,-0.5 346.5,-0.5"/>
<text text-anchor="middle" x="373.5" y="-7.5" font-family="Helvetica,sans-Serif" font-size="10.00">iostream</text>
</a>
</g>
</g>
<!-- Node18&#45;&gt;Node20 -->
<g id="edge20" class="edge">
<title>Node18&#45;&gt;Node20</title>
<path fill="none" stroke="midnightblue" d="M570.42,-112.35C554.26,-96.76 526.37,-71.82 498.5,-56 470.7,-40.22 436.36,-28.34 410.71,-20.76"/>
<polygon fill="midnightblue" stroke="midnightblue" points="411.57,-17.36 400.99,-17.97 409.64,-24.09 411.57,-17.36"/>
</g>
<!-- Node21 -->
<g id="node21" class="node">
<title>Node21</title>
<g id="a_node21"><a xlink:title=" ">
<polygon fill="white" stroke="#bfbfbf" points="383,-56.5 383,-75.5 490,-75.5 490,-56.5 383,-56.5"/>
<text text-anchor="middle" x="436.5" y="-63.5" font-family="Helvetica,sans-Serif" font-size="10.00">boost/filesystem.hpp</text>
</a>
</g>
</g>
<!-- Node18&#45;&gt;Node21 -->
<g id="edge21" class="edge">
<title>Node18&#45;&gt;Node21</title>
<path fill="none" stroke="midnightblue" d="M549.43,-112.4C524.48,-102.37 491.29,-89.03 467.36,-79.4"/>
<polygon fill="midnightblue" stroke="midnightblue" points="468.62,-76.14 458.04,-75.66 466.01,-82.64 468.62,-76.14"/>
</g>
<!-- Node22 -->
<g id="node22" class="node">
<title>Node22</title>
<g id="a_node22"><a xlink:title=" ">
<polygon fill="white" stroke="#bfbfbf" points="1036.5,-56.5 1036.5,-75.5 1110.5,-75.5 1110.5,-56.5 1036.5,-56.5"/>
<text text-anchor="middle" x="1073.5" y="-63.5" font-family="Helvetica,sans-Serif" font-size="10.00">glm/vec2.hpp</text>
</a>
</g>
</g>
<!-- Node18&#45;&gt;Node22 -->
<g id="edge22" class="edge">
<title>Node18&#45;&gt;Node22</title>
<path fill="none" stroke="midnightblue" d="M641.07,-119.62C738.39,-107.78 935.72,-83.76 1026.22,-72.75"/>
<polygon fill="midnightblue" stroke="midnightblue" points="1026.69,-76.22 1036.19,-71.54 1025.84,-69.27 1026.69,-76.22"/>
</g>
<!-- Node23 -->
<g id="node23" class="node">
<title>Node23</title>
<g id="a_node23"><a xlink:title=" ">
<polygon fill="white" stroke="#bfbfbf" points="1393.5,-56.5 1393.5,-75.5 1467.5,-75.5 1467.5,-56.5 1393.5,-56.5"/>
<text text-anchor="middle" x="1430.5" y="-63.5" font-family="Helvetica,sans-Serif" font-size="10.00">glm/vec3.hpp</text>
</a>
</g>
</g>
<!-- Node18&#45;&gt;Node23 -->
<g id="edge23" class="edge">
<title>Node18&#45;&gt;Node23</title>
<path fill="none" stroke="midnightblue" d="M641.12,-120.22C667.11,-117.47 698.35,-114.34 726.5,-112 973.57,-91.5 1270.1,-75.28 1383.38,-69.39"/>
<polygon fill="midnightblue" stroke="midnightblue" points="1383.64,-72.88 1393.44,-68.87 1383.28,-65.89 1383.64,-72.88"/>
</g>
<!-- Node24&#45;&gt;Node11 -->
<g id="edge28" class="edge">
<title>Node24&#45;&gt;Node11</title>
<path fill="none" stroke="midnightblue" d="M197.15,-184.97C207.49,-169.65 230.5,-136.74 253.5,-112 263.43,-101.33 275.64,-90.48 285.62,-82.12"/>
<polygon fill="midnightblue" stroke="midnightblue" points="287.89,-84.78 293.39,-75.73 283.44,-79.38 287.89,-84.78"/>
</g>
<!-- Node24&#45;&gt;Node12 -->
<g id="edge27" class="edge">
<title>Node24&#45;&gt;Node12</title>
<path fill="none" stroke="midnightblue" d="M233.08,-191.29C355.78,-184.61 714.95,-163.78 830.5,-143 835.34,-142.13 840.38,-140.99 845.33,-139.73"/>
<polygon fill="midnightblue" stroke="midnightblue" points="846.53,-143.03 855.26,-137.03 844.7,-136.28 846.53,-143.03"/>
</g>
<!-- Node24&#45;&gt;Node20 -->
<g id="edge30" class="edge">
<title>Node24&#45;&gt;Node20</title>
<path fill="none" stroke="midnightblue" d="M157.07,-184.97C135.58,-177.67 109.58,-164.77 96.5,-143 74.18,-105.86 103.51,-78.57 140.5,-56 201.77,-18.62 287.56,-11.27 336.11,-10.4"/>
<polygon fill="midnightblue" stroke="midnightblue" points="336.21,-13.9 346.18,-10.3 336.14,-6.9 336.21,-13.9"/>
</g>
<!-- Node25 -->
<g id="node25" class="node">
<title>Node25</title>
<g id="a_node25"><a xlink:title=" ">
<polygon fill="white" stroke="#bfbfbf" points="0,-118 0,-137 49,-137 49,-118 0,-118"/>
<text text-anchor="middle" x="24.5" y="-125" font-family="Helvetica,sans-Serif" font-size="10.00">fstream</text>
</a>
</g>
</g>
<!-- Node24&#45;&gt;Node25 -->
<g id="edge29" class="edge">
<title>Node24&#45;&gt;Node25</title>
<path fill="none" stroke="midnightblue" d="M169.32,-184.87C140.3,-173.57 89.23,-153.7 56.15,-140.82"/>
<polygon fill="midnightblue" stroke="midnightblue" points="57.09,-137.43 46.5,-137.06 54.55,-143.95 57.09,-137.43"/>
</g>
<!-- Node26 -->
<g id="node26" class="node">
<title>Node26</title>
<g id="a_node26"><a xlink:href="kryne-engine_2_utils_2_utils_8h.html" target="_top" xlink:title=" ">
<polygon fill="white" stroke="red" points="106,-112.5 106,-142.5 201,-142.5 201,-112.5 106,-112.5"/>
<text text-anchor="start" x="114" y="-130.5" font-family="Helvetica,sans-Serif" font-size="10.00">kryne&#45;engine/Utils</text>
<text text-anchor="middle" x="153.5" y="-119.5" font-family="Helvetica,sans-Serif" font-size="10.00">/Utils.h</text>
</a>
</g>
</g>
<!-- Node24&#45;&gt;Node26 -->
<g id="edge31" class="edge">
<title>Node24&#45;&gt;Node26</title>
<path fill="none" stroke="midnightblue" d="M186.38,-184.73C181.39,-176.2 173.6,-162.87 166.85,-151.33"/>
<polygon fill="midnightblue" stroke="midnightblue" points="169.81,-149.46 161.74,-142.59 163.76,-152.99 169.81,-149.46"/>
</g>
<!-- Node27 -->
<g id="node27" class="node">
<title>Node27</title>
<g id="a_node27"><a xlink:href="_string_utils_8hpp.html" target="_top" xlink:title=" ">
<polygon fill="white" stroke="black" points="149.5,-56.5 149.5,-75.5 229.5,-75.5 229.5,-56.5 149.5,-56.5"/>
<text text-anchor="middle" x="189.5" y="-63.5" font-family="Helvetica,sans-Serif" font-size="10.00">StringUtils.hpp</text>
</a>
</g>
</g>
<!-- Node26&#45;&gt;Node27 -->
<g id="edge32" class="edge">
<title>Node26&#45;&gt;Node27</title>
<path fill="none" stroke="midnightblue" d="M162.03,-112.4C167.1,-104.02 173.57,-93.33 178.96,-84.42"/>
<polygon fill="midnightblue" stroke="midnightblue" points="182.08,-86.03 184.26,-75.66 176.09,-82.4 182.08,-86.03"/>
</g>
<!-- Node27&#45;&gt;Node20 -->
<g id="edge33" class="edge">
<title>Node27&#45;&gt;Node20</title>
<path fill="none" stroke="midnightblue" d="M218.66,-56.44C250.57,-47.08 301.8,-32.04 336.52,-21.85"/>
<polygon fill="midnightblue" stroke="midnightblue" points="337.67,-25.16 346.28,-18.99 335.7,-18.45 337.67,-25.16"/>
</g>
<!-- Node31&#45;&gt;Node12 -->
<g id="edge38" class="edge">
<title>Node31&#45;&gt;Node12</title>
<path fill="none" stroke="midnightblue" d="M1089.18,-180.43C1045.68,-170.65 985.25,-156.66 932.5,-143 928.6,-141.99 924.55,-140.9 920.5,-139.79"/>
<polygon fill="midnightblue" stroke="midnightblue" points="921.14,-136.34 910.56,-137.02 919.25,-143.08 921.14,-136.34"/>
</g>
<!-- Node31&#45;&gt;Node20 -->
<g id="edge37" class="edge">
<title>Node31&#45;&gt;Node20</title>
<path fill="none" stroke="midnightblue" d="M1207.67,-179.71C1254.27,-168.25 1312.5,-152.36 1319.5,-143 1327.75,-131.96 1327.83,-122.98 1319.5,-112 1263.72,-38.45 1210.53,-71.31 1119.5,-56 850.79,-10.81 520.92,-9.48 411.07,-10.46"/>
<polygon fill="midnightblue" stroke="midnightblue" points="410.8,-6.96 400.83,-10.56 410.87,-13.96 410.8,-6.96"/>
</g>
<!-- Node31&#45;&gt;Node22 -->
<g id="edge40" class="edge">
<title>Node31&#45;&gt;Node22</title>
<path fill="none" stroke="midnightblue" d="M1201.41,-179.44C1243.46,-167.73 1296.25,-151.63 1302.5,-143 1310.58,-131.84 1311.25,-122.64 1302.5,-112 1279.93,-84.57 1180.83,-73.6 1120.64,-69.42"/>
<polygon fill="midnightblue" stroke="midnightblue" points="1120.81,-65.92 1110.6,-68.76 1120.35,-72.9 1120.81,-65.92"/>
</g>
<!-- Node31&#45;&gt;Node23 -->
<g id="edge41" class="edge">
<title>Node31&#45;&gt;Node23</title>
<path fill="none" stroke="midnightblue" d="M1207.57,-180.76C1273.03,-166.57 1369.95,-145.3 1373.5,-143 1395.73,-128.63 1412.49,-102.4 1421.9,-84.84"/>
<polygon fill="midnightblue" stroke="midnightblue" points="1425.16,-86.15 1426.58,-75.65 1418.92,-82.97 1425.16,-86.15"/>
</g>
<!-- Node32 -->
<g id="node29" class="node">
<title>Node32</title>
<g id="a_node29"><a xlink:title=" ">
<polygon fill="white" stroke="#bfbfbf" points="1045.5,-118 1045.5,-137 1101.5,-137 1101.5,-118 1045.5,-118"/>
<text text-anchor="middle" x="1073.5" y="-125" font-family="Helvetica,sans-Serif" font-size="10.00">algorithm</text>
</a>
</g>
</g>
<!-- Node31&#45;&gt;Node32 -->
<g id="edge35" class="edge">
<title>Node31&#45;&gt;Node32</title>
<path fill="none" stroke="midnightblue" d="M1132.23,-179.4C1120.18,-168.96 1103.79,-154.75 1091.38,-144"/>
<polygon fill="midnightblue" stroke="midnightblue" points="1093.38,-141.1 1083.53,-137.19 1088.8,-146.39 1093.38,-141.1"/>
</g>
<!-- Node33 -->
<g id="node30" class="node">
<title>Node33</title>
<g id="a_node30"><a xlink:title=" ">
<polygon fill="white" stroke="#bfbfbf" points="1674.5,-118 1674.5,-137 1726.5,-137 1726.5,-118 1674.5,-118"/>
<text text-anchor="middle" x="1700.5" y="-125" font-family="Helvetica,sans-Serif" font-size="10.00">memory</text>
</a>
</g>
</g>
<!-- Node31&#45;&gt;Node33 -->
<g id="edge36" class="edge">
<title>Node31&#45;&gt;Node33</title>
<path fill="none" stroke="midnightblue" d="M1207.77,-180.47C1210.72,-179.95 1213.64,-179.45 1216.5,-179 1382.81,-152.67 1583.52,-136.73 1664.27,-130.96"/>
<polygon fill="midnightblue" stroke="midnightblue" points="1664.67,-134.44 1674.4,-130.24 1664.18,-127.46 1664.67,-134.44"/>
</g>
<!-- Node34 -->
<g id="node31" class="node">
<title>Node34</title>
<g id="a_node31"><a xlink:title=" ">
<polygon fill="white" stroke="#bfbfbf" points="1119.5,-118 1119.5,-137 1177.5,-137 1177.5,-118 1119.5,-118"/>
<text text-anchor="middle" x="1148.5" y="-125" font-family="Helvetica,sans-Serif" font-size="10.00">functional</text>
</a>
</g>
</g>
<!-- Node31&#45;&gt;Node34 -->
<g id="edge39" class="edge">
<title>Node31&#45;&gt;Node34</title>
<path fill="none" stroke="midnightblue" d="M1148.5,-179.4C1148.5,-170.06 1148.5,-157.71 1148.5,-147.52"/>
<polygon fill="midnightblue" stroke="midnightblue" points="1152,-147.19 1148.5,-137.19 1145,-147.19 1152,-147.19"/>
</g>
<!-- Node35 -->
<g id="node32" class="node">
<title>Node35</title>
<g id="a_node32"><a xlink:title=" ">
<polygon fill="white" stroke="#bfbfbf" points="1196,-118 1196,-137 1293,-137 1293,-118 1196,-118"/>
<text text-anchor="middle" x="1244.5" y="-125" font-family="Helvetica,sans-Serif" font-size="10.00">glm/geometric.hpp</text>
</a>
</g>
</g>
<!-- Node31&#45;&gt;Node35 -->
<g id="edge42" class="edge">
<title>Node31&#45;&gt;Node35</title>
<path fill="none" stroke="midnightblue" d="M1169.33,-179.4C1185.28,-168.6 1207.2,-153.76 1223.25,-142.89"/>
<polygon fill="midnightblue" stroke="midnightblue" points="1225.62,-145.51 1231.94,-137.01 1221.69,-139.72 1225.62,-145.51"/>
</g>
<!-- Node36 -->
<g id="node33" class="node">
<title>Node36</title>
<g id="a_node33"><a xlink:href="_buffer_attribute_8h.html" target="_top" xlink:title=" ">
<polygon fill="white" stroke="black" points="941.5,-118 941.5,-137 1027.5,-137 1027.5,-118 941.5,-118"/>
<text text-anchor="middle" x="984.5" y="-125" font-family="Helvetica,sans-Serif" font-size="10.00">BufferAttribute.h</text>
</a>
</g>
</g>
<!-- Node31&#45;&gt;Node36 -->
<g id="edge43" class="edge">
<title>Node31&#45;&gt;Node36</title>
<path fill="none" stroke="midnightblue" d="M1112.91,-179.4C1083.88,-167.89 1043.28,-151.8 1015.55,-140.81"/>
<polygon fill="midnightblue" stroke="midnightblue" points="1016.55,-137.44 1005.96,-137.01 1013.97,-143.95 1016.55,-137.44"/>
</g>
<!-- Node36&#45;&gt;Node11 -->
<g id="edge45" class="edge">
<title>Node36&#45;&gt;Node11</title>
<path fill="none" stroke="midnightblue" d="M957.5,-117.98C949.23,-115.68 940.06,-113.43 931.5,-112 686.39,-71 620.85,-100.08 373.5,-76 360.95,-74.78 347.15,-73.06 335.22,-71.44"/>
<polygon fill="midnightblue" stroke="midnightblue" points="335.68,-67.97 325.29,-70.07 334.72,-74.91 335.68,-67.97"/>
</g>
<!-- Node36&#45;&gt;Node13 -->
<g id="edge46" class="edge">
<title>Node36&#45;&gt;Node13</title>
<path fill="none" stroke="midnightblue" d="M953.4,-117.95C946.21,-115.99 938.59,-113.91 931.5,-112 888.33,-100.35 838.9,-87.21 804.7,-78.15"/>
<polygon fill="midnightblue" stroke="midnightblue" points="805.16,-74.65 794.6,-75.48 803.37,-81.42 805.16,-74.65"/>
</g>
<!-- Node36&#45;&gt;Node14 -->
<g id="edge47" class="edge">
<title>Node36&#45;&gt;Node14</title>
<path fill="none" stroke="midnightblue" d="M955.19,-117.93C947.52,-115.84 939.23,-113.72 931.5,-112 842.12,-92.16 816.4,-92.67 722.45,-76.13"/>
<polygon fill="midnightblue" stroke="midnightblue" points="722.98,-72.67 712.52,-74.37 721.76,-79.57 722.98,-72.67"/>
</g>
<!-- Node29 -->
<g id="node34" class="node">
<title>Node29</title>
<g id="a_node34"><a xlink:title=" ">
<polygon fill="white" stroke="#bfbfbf" points="1948.5,-56.5 1948.5,-75.5 1990.5,-75.5 1990.5,-56.5 1948.5,-56.5"/>
<text text-anchor="middle" x="1969.5" y="-63.5" font-family="Helvetica,sans-Serif" font-size="10.00">vector</text>
</a>
</g>
</g>
<!-- Node36&#45;&gt;Node29 -->
<g id="edge44" class="edge">
<title>Node36&#45;&gt;Node29</title>
<path fill="none" stroke="midnightblue" d="M1010.7,-117.96C1018.88,-115.63 1027.99,-113.37 1036.5,-112 1215.93,-83.03 1796.48,-70.29 1938.12,-67.57"/>
<polygon fill="midnightblue" stroke="midnightblue" points="1938.35,-71.07 1948.28,-67.38 1938.22,-64.07 1938.35,-71.07"/>
</g>
<!-- Node37&#45;&gt;Node33 -->
<g id="edge49" class="edge">
<title>Node37&#45;&gt;Node33</title>
<path fill="none" stroke="midnightblue" d="M1302.2,-393.09C1441.29,-388.19 1802.38,-366.9 1871.5,-277 1886.43,-257.59 1868.97,-191.75 1857.5,-179 1826.73,-144.81 1772.76,-133.64 1736.82,-130.07"/>
<polygon fill="midnightblue" stroke="midnightblue" points="1737,-126.57 1726.74,-129.22 1736.41,-133.55 1737,-126.57"/>
</g>
<!-- Node38 -->
<g id="node36" class="node">
<title>Node38</title>
<g id="a_node36"><a xlink:href="_transform_8h.html" target="_top" xlink:title=" ">
<polygon fill="white" stroke="black" points="1489,-313.5 1489,-343.5 1610,-343.5 1610,-313.5 1489,-313.5"/>
<text text-anchor="start" x="1497" y="-331.5" font-family="Helvetica,sans-Serif" font-size="10.00">kryne&#45;engine/3DObjects</text>
<text text-anchor="middle" x="1549.5" y="-320.5" font-family="Helvetica,sans-Serif" font-size="10.00">/Transform.h</text>
</a>
</g>
</g>
<!-- Node37&#45;&gt;Node38 -->
<g id="edge50" class="edge">
<title>Node37&#45;&gt;Node38</title>
<path fill="none" stroke="midnightblue" d="M1302.19,-382.73C1351.8,-372.05 1425.2,-356.25 1479.16,-344.64"/>
<polygon fill="midnightblue" stroke="midnightblue" points="1479.96,-348.05 1489,-342.52 1478.48,-341.21 1479.96,-348.05"/>
</g>
<!-- Node52 -->
<g id="node50" class="node">
<title>Node52</title>
<g id="a_node50"><a xlink:href="_projection_data_8hpp.html" target="_top" xlink:title=" ">
<polygon fill="white" stroke="black" points="888,-319 888,-338 987,-338 987,-319 888,-319"/>
<text text-anchor="middle" x="937.5" y="-326" font-family="Helvetica,sans-Serif" font-size="10.00">ProjectionData.hpp</text>
</a>
</g>
</g>
<!-- Node37&#45;&gt;Node52 -->
<g id="edge74" class="edge">
<title>Node37&#45;&gt;Node52</title>
<path fill="none" stroke="midnightblue" d="M1192.79,-383.03C1135.03,-370.92 1044.7,-351.98 988.42,-340.18"/>
<polygon fill="midnightblue" stroke="midnightblue" points="988.82,-336.69 978.32,-338.06 987.39,-343.54 988.82,-336.69"/>
</g>
<!-- Node38&#45;&gt;Node23 -->
<g id="edge56" class="edge">
<title>Node38&#45;&gt;Node23</title>
<path fill="none" stroke="midnightblue" d="M1610.08,-327C1693.87,-324.87 1838.53,-315.54 1871.5,-277 1886.71,-259.22 1869.6,-195.35 1857.5,-179 1820.69,-129.28 1794.14,-131.71 1735.5,-112 1647.49,-82.41 1538.72,-72.26 1477.72,-68.79"/>
<polygon fill="midnightblue" stroke="midnightblue" points="1477.8,-65.29 1467.63,-68.25 1477.43,-72.28 1477.8,-65.29"/>
</g>
<!-- Node38&#45;&gt;Node33 -->
<g id="edge51" class="edge">
<title>Node38&#45;&gt;Node33</title>
<path fill="none" stroke="midnightblue" d="M1610.27,-326.38C1690.11,-323.47 1823.82,-313.18 1854.5,-277 1871.99,-256.37 1848.07,-191.7 1836.5,-179 1810.67,-150.65 1767.45,-138.16 1736.66,-132.69"/>
<polygon fill="midnightblue" stroke="midnightblue" points="1737.17,-129.23 1726.74,-131.09 1736.06,-136.14 1737.17,-129.23"/>
</g>
<!-- Node38&#45;&gt;Node29 -->
<g id="edge52" class="edge">
<title>Node38&#45;&gt;Node29</title>
<path fill="none" stroke="midnightblue" d="M1610.14,-325.6C1695.61,-321.74 1845.76,-310.3 1887.5,-277 1948.74,-228.14 1964.35,-127.29 1968.24,-85.63"/>
<polygon fill="midnightblue" stroke="midnightblue" points="1971.74,-85.79 1969.06,-75.54 1964.76,-85.23 1971.74,-85.79"/>
</g>
<!-- Node39 -->
<g id="node37" class="node">
<title>Node39</title>
<g id="a_node37"><a xlink:title=" ">
<polygon fill="white" stroke="#bfbfbf" points="1775.5,-252 1775.5,-271 1845.5,-271 1845.5,-252 1775.5,-252"/>
<text text-anchor="middle" x="1810.5" y="-259" font-family="Helvetica,sans-Serif" font-size="10.00">glm/glm.hpp</text>
</a>
</g>
</g>
<!-- Node38&#45;&gt;Node39 -->
<g id="edge53" class="edge">
<title>Node38&#45;&gt;Node39</title>
<path fill="none" stroke="midnightblue" d="M1610.2,-314.9C1653.92,-305.46 1714.17,-291.68 1766.5,-277 1769.68,-276.11 1772.96,-275.13 1776.24,-274.12"/>
<polygon fill="midnightblue" stroke="midnightblue" points="1777.49,-277.4 1785.95,-271.02 1775.36,-270.73 1777.49,-277.4"/>
</g>
<!-- Node40 -->
<g id="node38" class="node">
<title>Node40</title>
<g id="a_node38"><a xlink:title=" ">
<polygon fill="white" stroke="#bfbfbf" points="1147.5,-252 1147.5,-271 1239.5,-271 1239.5,-252 1147.5,-252"/>
<text text-anchor="middle" x="1193.5" y="-259" font-family="Helvetica,sans-Serif" font-size="10.00">glm/common.hpp</text>
</a>
</g>
</g>
<!-- Node38&#45;&gt;Node40 -->
<g id="edge54" class="edge">
<title>Node38&#45;&gt;Node40</title>
<path fill="none" stroke="midnightblue" d="M1488.87,-318.87C1428.07,-309.85 1331.89,-294.57 1249.5,-277 1244.53,-275.94 1239.34,-274.73 1234.21,-273.48"/>
<polygon fill="midnightblue" stroke="midnightblue" points="1235.04,-270.08 1224.49,-271.03 1233.33,-276.87 1235.04,-270.08"/>
</g>
<!-- Node41 -->
<g id="node39" class="node">
<title>Node41</title>
<g id="a_node39"><a xlink:title=" ">
<polygon fill="white" stroke="#bfbfbf" points="1258,-252 1258,-271 1339,-271 1339,-252 1258,-252"/>
<text text-anchor="middle" x="1298.5" y="-259" font-family="Helvetica,sans-Serif" font-size="10.00">glm/matrix.hpp</text>
</a>
</g>
</g>
<!-- Node38&#45;&gt;Node41 -->
<g id="edge55" class="edge">
<title>Node38&#45;&gt;Node41</title>
<path fill="none" stroke="midnightblue" d="M1491.3,-313.47C1451.09,-303.63 1396.43,-289.97 1348.5,-277 1344.73,-275.98 1340.81,-274.89 1336.9,-273.79"/>
<polygon fill="midnightblue" stroke="midnightblue" points="1337.85,-270.42 1327.27,-271.04 1335.92,-277.15 1337.85,-270.42"/>
</g>
<!-- Node42 -->
<g id="node40" class="node">
<title>Node42</title>
<g id="a_node40"><a xlink:title=" ">
<polygon fill="white" stroke="#bfbfbf" points="1357.5,-252 1357.5,-271 1473.5,-271 1473.5,-252 1357.5,-252"/>
<text text-anchor="middle" x="1415.5" y="-259" font-family="Helvetica,sans-Serif" font-size="10.00">glm/gtc/quaternion.hpp</text>
</a>
</g>
</g>
<!-- Node38&#45;&gt;Node42 -->
<g id="edge57" class="edge">
<title>Node38&#45;&gt;Node42</title>
<path fill="none" stroke="midnightblue" d="M1520.42,-313.4C1497.12,-302.09 1464.69,-286.36 1442.07,-275.39"/>
<polygon fill="midnightblue" stroke="midnightblue" points="1443.56,-272.22 1433.04,-271.01 1440.51,-278.52 1443.56,-272.22"/>
</g>
<!-- Node43 -->
<g id="node41" class="node">
<title>Node43</title>
<g id="a_node41"><a xlink:title=" ">
<polygon fill="white" stroke="#bfbfbf" points="1491.5,-252 1491.5,-271 1607.5,-271 1607.5,-252 1491.5,-252"/>
<text text-anchor="middle" x="1549.5" y="-259" font-family="Helvetica,sans-Serif" font-size="10.00">glm/gtx/quaternion.hpp</text>
</a>
</g>
</g>
<!-- Node38&#45;&gt;Node43 -->
<g id="edge58" class="edge">
<title>Node38&#45;&gt;Node43</title>
<path fill="none" stroke="midnightblue" d="M1549.5,-313.4C1549.5,-304.06 1549.5,-291.71 1549.5,-281.52"/>
<polygon fill="midnightblue" stroke="midnightblue" points="1553,-281.19 1549.5,-271.19 1546,-281.19 1553,-281.19"/>
</g>
<!-- Node44 -->
<g id="node42" class="node">
<title>Node44</title>
<g id="a_node42"><a xlink:title=" ">
<polygon fill="white" stroke="#bfbfbf" points="807,-252 807,-271 950,-271 950,-252 807,-252"/>
<text text-anchor="middle" x="878.5" y="-259" font-family="Helvetica,sans-Serif" font-size="10.00">glm/gtc/matrix_transform.hpp</text>
</a>
</g>
</g>
<!-- Node38&#45;&gt;Node44 -->
<g id="edge59" class="edge">
<title>Node38&#45;&gt;Node44</title>
<path fill="none" stroke="midnightblue" d="M1488.89,-324.21C1381.62,-317.96 1151.43,-302.67 958.5,-277 949.76,-275.84 940.52,-274.38 931.54,-272.84"/>
<polygon fill="midnightblue" stroke="midnightblue" points="932.02,-269.37 921.56,-271.07 930.8,-276.26 932.02,-269.37"/>
</g>
<!-- Node45 -->
<g id="node43" class="node">
<title>Node45</title>
<g id="a_node43"><a xlink:href="_transform_8hpp.html" target="_top" xlink:title=" ">
<polygon fill="white" stroke="black" points="968,-252 968,-271 1129,-271 1129,-252 968,-252"/>
<text text-anchor="middle" x="1048.5" y="-259" font-family="Helvetica,sans-Serif" font-size="10.00">kryne&#45;engine/Math/Transform.hpp</text>
</a>
</g>
</g>
<!-- Node38&#45;&gt;Node45 -->
<g id="edge60" class="edge">
<title>Node38&#45;&gt;Node45</title>
<path fill="none" stroke="midnightblue" d="M1488.82,-320.76C1408.55,-311.69 1262.7,-294.63 1138.5,-277 1129.08,-275.66 1119.12,-274.15 1109.4,-272.63"/>
<polygon fill="midnightblue" stroke="midnightblue" points="1109.8,-269.15 1099.38,-271.04 1108.71,-276.06 1109.8,-269.15"/>
</g>
<!-- Node47 -->
<g id="node45" class="node">
<title>Node47</title>
<g id="a_node45"><a xlink:href="_entity_8h.html" target="_top" xlink:title=" ">
<polygon fill="white" stroke="black" points="1625.5,-252 1625.5,-271 1757.5,-271 1757.5,-252 1625.5,-252"/>
<text text-anchor="middle" x="1691.5" y="-259" font-family="Helvetica,sans-Serif" font-size="10.00">kryne&#45;engine/Core/Entity.h</text>
</a>
</g>
</g>
<!-- Node38&#45;&gt;Node47 -->
<g id="edge63" class="edge">
<title>Node38&#45;&gt;Node47</title>
<path fill="none" stroke="midnightblue" d="M1574.63,-313.4C1598.16,-301.94 1633.19,-285.94 1658.85,-274.95"/>
<polygon fill="midnightblue" stroke="midnightblue" points="1660.33,-278.12 1668.18,-271.01 1657.61,-271.68 1660.33,-278.12"/>
</g>
<!-- Node45&#45;&gt;Node23 -->
<g id="edge61" class="edge">
<title>Node45&#45;&gt;Node23</title>
<path fill="none" stroke="midnightblue" d="M1097.95,-251.97C1173.61,-238.83 1310.45,-214.66 1320.5,-210 1363.19,-190.2 1375.18,-181.32 1402.5,-143 1414.97,-125.51 1422.53,-101.83 1426.59,-85.58"/>
<polygon fill="midnightblue" stroke="midnightblue" points="1430.04,-86.21 1428.87,-75.68 1423.22,-84.64 1430.04,-86.21"/>
</g>
<!-- Node46 -->
<g id="node44" class="node">
<title>Node46</title>
<g id="a_node44"><a xlink:title=" ">
<polygon fill="white" stroke="#bfbfbf" points="1225.5,-185 1225.5,-204 1311.5,-204 1311.5,-185 1225.5,-185"/>
<text text-anchor="middle" x="1268.5" y="-192" font-family="Helvetica,sans-Serif" font-size="10.00">glm/mat3x3.hpp</text>
</a>
</g>
</g>
<!-- Node45&#45;&gt;Node46 -->
<g id="edge62" class="edge">
<title>Node45&#45;&gt;Node46</title>
<path fill="none" stroke="midnightblue" d="M1077.71,-251.87C1116.86,-240.3 1186.43,-219.75 1229.87,-206.91"/>
<polygon fill="midnightblue" stroke="midnightblue" points="1230.92,-210.25 1239.52,-204.06 1228.93,-203.54 1230.92,-210.25"/>
</g>
<!-- Node47&#45;&gt;Node29 -->
<g id="edge65" class="edge">
<title>Node47&#45;&gt;Node29</title>
<path fill="none" stroke="midnightblue" d="M1732.34,-251.93C1762.79,-244.25 1804.47,-230.91 1836.5,-210 1890.04,-175.05 1936.88,-113.99 1957.83,-84.25"/>
<polygon fill="midnightblue" stroke="midnightblue" points="1960.88,-85.99 1963.7,-75.77 1955.13,-82 1960.88,-85.99"/>
</g>
<!-- Node47&#45;&gt;Node38 -->
<g id="edge67" class="edge">
<title>Node47&#45;&gt;Node38</title>
<path fill="none" stroke="midnightblue" d="M1677.65,-271.01C1658.6,-280.68 1623.94,-296.76 1595.4,-309.3"/>
<polygon fill="midnightblue" stroke="midnightblue" points="1593.76,-306.19 1585.99,-313.4 1596.56,-312.61 1593.76,-306.19"/>
</g>
<!-- Node48 -->
<g id="node46" class="node">
<title>Node48</title>
<g id="a_node46"><a xlink:title=" ">
<polygon fill="white" stroke="#bfbfbf" points="1685.5,-185 1685.5,-204 1731.5,-204 1731.5,-185 1685.5,-185"/>
<text text-anchor="middle" x="1708.5" y="-192" font-family="Helvetica,sans-Serif" font-size="10.00">atomic</text>
</a>
</g>
</g>
<!-- Node47&#45;&gt;Node48 -->
<g id="edge64" class="edge">
<title>Node47&#45;&gt;Node48</title>
<path fill="none" stroke="midnightblue" d="M1693.79,-251.73C1696.32,-242.09 1700.44,-226.3 1703.69,-213.91"/>
<polygon fill="midnightblue" stroke="midnightblue" points="1707.1,-214.69 1706.24,-204.13 1700.33,-212.92 1707.1,-214.69"/>
</g>
<!-- Node49 -->
<g id="node47" class="node">
<title>Node49</title>
<g id="a_node47"><a xlink:title=" ">
<polygon fill="white" stroke="#bfbfbf" points="1749.5,-185 1749.5,-204 1827.5,-204 1827.5,-185 1749.5,-185"/>
<text text-anchor="middle" x="1788.5" y="-192" font-family="Helvetica,sans-Serif" font-size="10.00">unordered_set</text>
</a>
</g>
</g>
<!-- Node47&#45;&gt;Node49 -->
<g id="edge66" class="edge">
<title>Node47&#45;&gt;Node49</title>
<path fill="none" stroke="midnightblue" d="M1704.58,-251.73C1720.65,-240.96 1748.13,-222.55 1767.25,-209.74"/>
<polygon fill="midnightblue" stroke="midnightblue" points="1769.27,-212.6 1775.63,-204.13 1765.37,-206.79 1769.27,-212.6"/>
</g>
<!-- Node50 -->
<g id="node48" class="node">
<title>Node50</title>
<g id="a_node48"><a xlink:href="_component_8h.html" target="_top" xlink:title=" ">
<polygon fill="white" stroke="black" points="1593.5,-185 1593.5,-204 1667.5,-204 1667.5,-185 1593.5,-185"/>
<text text-anchor="middle" x="1630.5" y="-192" font-family="Helvetica,sans-Serif" font-size="10.00">Component.h</text>
</a>
</g>
</g>
<!-- Node47&#45;&gt;Node50 -->
<g id="edge68" class="edge">
<title>Node47&#45;&gt;Node50</title>
<path fill="none" stroke="midnightblue" d="M1678.48,-251.73C1666.84,-241.6 1650.58,-224.69 1640.07,-212.06"/>
<polygon fill="midnightblue" stroke="midnightblue" points="1642.77,-209.83 1633.84,-204.13 1637.26,-214.15 1642.77,-209.83"/>
</g>
<!-- Node51 -->
<g id="node49" class="node">
<title>Node51</title>
<g id="a_node49"><a xlink:href="_process_8h.html" target="_top" xlink:title=" ">
<polygon fill="white" stroke="black" points="1514,-185 1514,-204 1575,-204 1575,-185 1514,-185"/>
<text text-anchor="middle" x="1544.5" y="-192" font-family="Helvetica,sans-Serif" font-size="10.00">Process.h</text>
</a>
</g>
</g>
<!-- Node47&#45;&gt;Node51 -->
<g id="edge70" class="edge">
<title>Node47&#45;&gt;Node51</title>
<path fill="none" stroke="midnightblue" d="M1667.22,-251.87C1639.82,-240.8 1595.89,-221.49 1568.58,-208.6"/>
<polygon fill="midnightblue" stroke="midnightblue" points="1569.86,-205.33 1559.33,-204.17 1566.84,-211.64 1569.86,-205.33"/>
</g>
<!-- Node50&#45;&gt;Node47 -->
<g id="edge69" class="edge">
<title>Node50&#45;&gt;Node47</title>
<path fill="none" stroke="midnightblue" d="M1643.36,-204.13C1654.96,-214.2 1671.22,-231.1 1681.79,-243.77"/>
<polygon fill="midnightblue" stroke="midnightblue" points="1679.12,-246.05 1688.06,-251.73 1684.62,-241.71 1679.12,-246.05"/>
</g>
<!-- Node51&#45;&gt;Node12 -->
<g id="edge72" class="edge">
<title>Node51&#45;&gt;Node12</title>
<path fill="none" stroke="midnightblue" d="M1513.84,-191.32C1397.91,-183.04 990,-153.44 932.5,-143 927.66,-142.12 922.62,-140.98 917.67,-139.72"/>
<polygon fill="midnightblue" stroke="midnightblue" points="918.31,-136.26 907.74,-137.02 916.47,-143.02 918.31,-136.26"/>
</g>
<!-- Node51&#45;&gt;Node33 -->
<g id="edge71" class="edge">
<title>Node51&#45;&gt;Node33</title>
<path fill="none" stroke="midnightblue" d="M1565.22,-184.87C1592.14,-173.65 1639.36,-153.98 1670.28,-141.09"/>
<polygon fill="midnightblue" stroke="midnightblue" points="1671.81,-144.24 1679.7,-137.17 1669.12,-137.78 1671.81,-144.24"/>
</g>
<!-- Node51&#45;&gt;Node47 -->
<g id="edge73" class="edge">
<title>Node51&#45;&gt;Node47</title>
<path fill="none" stroke="midnightblue" d="M1568.61,-204.06C1596.02,-215.13 1640.12,-234.52 1667.48,-247.43"/>
<polygon fill="midnightblue" stroke="midnightblue" points="1666.21,-250.7 1676.74,-251.87 1669.23,-244.39 1666.21,-250.7"/>
</g>
<!-- Node52&#45;&gt;Node15 -->
<g id="edge75" class="edge">
<title>Node52&#45;&gt;Node15</title>
<path fill="none" stroke="midnightblue" d="M901.05,-318.94C864.16,-309.51 810.72,-293.48 797.5,-277 767.22,-239.24 770.94,-177.84 775.22,-147.17"/>
<polygon fill="midnightblue" stroke="midnightblue" points="778.71,-147.46 776.81,-137.04 771.8,-146.37 778.71,-147.46"/>
</g>
<!-- Node52&#45;&gt;Node44 -->
<g id="edge76" class="edge">
<title>Node52&#45;&gt;Node44</title>
<path fill="none" stroke="midnightblue" d="M929.54,-318.73C920.25,-308.5 904.7,-291.36 893.2,-278.69"/>
<polygon fill="midnightblue" stroke="midnightblue" points="895.64,-276.18 886.33,-271.13 890.46,-280.88 895.64,-276.18"/>
</g>
</g>
</svg>
