<?xml version="1.0" encoding="UTF-8" standalone="no"?>
<!DOCTYPE svg PUBLIC "-//W3C//DTD SVG 1.1//EN"
 "http://www.w3.org/Graphics/SVG/1.1/DTD/svg11.dtd">
<!-- Generated by graphviz version 2.44.1 (20200629.0846)
 -->
<!-- Title: kryne&#45;engine/include/kryne&#45;engine/Material/MeshMaterialCommon.h Pages: 1 -->
<svg width="1856pt" height="732pt"
 viewBox="0.00 0.00 1855.52 732.00" xmlns="http://www.w3.org/2000/svg" xmlns:xlink="http://www.w3.org/1999/xlink">
<g id="graph0" class="graph" transform="scale(1 1) rotate(0) translate(4 728)">
<title>kryne&#45;engine/include/kryne&#45;engine/Material/MeshMaterialCommon.h</title>
<polygon fill="white" stroke="transparent" points="-4,4 -4,-728 1851.52,-728 1851.52,4 -4,4"/>
<!-- Node1 -->
<g id="node1" class="node">
<title>Node1</title>
<g id="a_node1"><a xlink:title=" ">
<polygon fill="#bfbfbf" stroke="black" points="588.48,-682.5 588.48,-723.5 713.48,-723.5 713.48,-682.5 588.48,-682.5"/>
<text text-anchor="start" x="596.48" y="-711.5" font-family="Helvetica,sans-Serif" font-size="10.00">kryne&#45;engine/include</text>
<text text-anchor="start" x="596.48" y="-700.5" font-family="Helvetica,sans-Serif" font-size="10.00">/kryne&#45;engine/Material</text>
<text text-anchor="middle" x="650.98" y="-689.5" font-family="Helvetica,sans-Serif" font-size="10.00">/MeshMaterialCommon.h</text>
</a>
</g>
</g>
<!-- Node2 -->
<g id="node2" class="node">
<title>Node2</title>
<g id="a_node2"><a xlink:title=" ">
<polygon fill="white" stroke="#bfbfbf" points="552.98,-626.5 552.98,-645.5 602.98,-645.5 602.98,-626.5 552.98,-626.5"/>
<text text-anchor="middle" x="577.98" y="-633.5" font-family="Helvetica,sans-Serif" font-size="10.00">optional</text>
</a>
</g>
</g>
<!-- Node1&#45;&gt;Node2 -->
<g id="edge1" class="edge">
<title>Node1&#45;&gt;Node2</title>
<path fill="none" stroke="midnightblue" d="M629.08,-682.5C618.32,-672.92 605.53,-661.53 595.44,-652.54"/>
<polygon fill="midnightblue" stroke="midnightblue" points="597.49,-649.69 587.7,-645.65 592.84,-654.92 597.49,-649.69"/>
</g>
<!-- Node3 -->
<g id="node3" class="node">
<title>Node3</title>
<g id="a_node3"><a xlink:href="_texture_8h.html" target="_top" xlink:title=" ">
<polygon fill="white" stroke="black" points="944.48,-358.5 944.48,-388.5 1057.48,-388.5 1057.48,-358.5 944.48,-358.5"/>
<text text-anchor="start" x="952.48" y="-376.5" font-family="Helvetica,sans-Serif" font-size="10.00">kryne&#45;engine/Textures</text>
<text text-anchor="middle" x="1000.98" y="-365.5" font-family="Helvetica,sans-Serif" font-size="10.00">/Texture.h</text>
</a>
</g>
</g>
<!-- Node1&#45;&gt;Node3 -->
<g id="edge2" class="edge">
<title>Node1&#45;&gt;Node3</title>
<path fill="none" stroke="midnightblue" d="M713.69,-697.73C789.19,-688.79 905.98,-661.12 905.98,-575.5 905.98,-575.5 905.98,-575.5 905.98,-506.5 905.98,-459.99 945.32,-418.68 973.37,-395.13"/>
<polygon fill="midnightblue" stroke="midnightblue" points="975.74,-397.71 981.3,-388.69 971.33,-392.28 975.74,-397.71"/>
</g>
<!-- Node27 -->
<g id="node27" class="node">
<title>Node27</title>
<g id="a_node27"><a xlink:href="kryne-engine_2_material_2_material_8h.html" target="_top" xlink:title=" ">
<polygon fill="white" stroke="black" points="621.48,-626.5 621.48,-645.5 680.48,-645.5 680.48,-626.5 621.48,-626.5"/>
<text text-anchor="middle" x="650.98" y="-633.5" font-family="Helvetica,sans-Serif" font-size="10.00">Material.h</text>
</a>
</g>
</g>
<!-- Node1&#45;&gt;Node27 -->
<g id="edge30" class="edge">
<title>Node1&#45;&gt;Node27</title>
<path fill="none" stroke="midnightblue" d="M650.98,-682.5C650.98,-674.07 650.98,-664.24 650.98,-655.87"/>
<polygon fill="midnightblue" stroke="midnightblue" points="654.48,-655.65 650.98,-645.65 647.48,-655.65 654.48,-655.65"/>
</g>
<!-- Node4 -->
<g id="node4" class="node">
<title>Node4</title>
<g id="a_node4"><a xlink:title=" ">
<polygon fill="white" stroke="#bfbfbf" points="748.98,-297 748.98,-316 818.98,-316 818.98,-297 748.98,-297"/>
<text text-anchor="middle" x="783.98" y="-304" font-family="Helvetica,sans-Serif" font-size="10.00">stb_image.h</text>
</a>
</g>
</g>
<!-- Node3&#45;&gt;Node4 -->
<g id="edge3" class="edge">
<title>Node3&#45;&gt;Node4</title>
<path fill="none" stroke="midnightblue" d="M951.25,-358.47C916.61,-348.58 869.36,-334.85 827.98,-322 825.08,-321.1 822.07,-320.15 819.06,-319.18"/>
<polygon fill="midnightblue" stroke="midnightblue" points="820.12,-315.84 809.53,-316.08 817.95,-322.5 820.12,-315.84"/>
</g>
<!-- Node5 -->
<g id="node5" class="node">
<title>Node5</title>
<g id="a_node5"><a xlink:title=" ">
<polygon fill="white" stroke="#bfbfbf" points="451.48,-297 451.48,-316 492.48,-316 492.48,-297 451.48,-297"/>
<text text-anchor="middle" x="471.98" y="-304" font-family="Helvetica,sans-Serif" font-size="10.00">string</text>
</a>
</g>
</g>
<!-- Node3&#45;&gt;Node5 -->
<g id="edge4" class="edge">
<title>Node3&#45;&gt;Node5</title>
<path fill="none" stroke="midnightblue" d="M944.37,-364.11C929.01,-361.97 912.37,-359.77 896.98,-358 721.86,-337.82 671.85,-369.11 501.98,-322 500.26,-321.52 498.51,-320.95 496.77,-320.31"/>
<polygon fill="midnightblue" stroke="midnightblue" points="497.7,-316.89 487.13,-316.13 494.92,-323.32 497.7,-316.89"/>
</g>
<!-- Node6 -->
<g id="node6" class="node">
<title>Node6</title>
<g id="a_node6"><a xlink:title=" ">
<polygon fill="white" stroke="#bfbfbf" points="772.98,-56.5 772.98,-75.5 826.98,-75.5 826.98,-56.5 772.98,-56.5"/>
<text text-anchor="middle" x="799.98" y="-63.5" font-family="Helvetica,sans-Serif" font-size="10.00">iostream</text>
</a>
</g>
</g>
<!-- Node3&#45;&gt;Node6 -->
<g id="edge5" class="edge">
<title>Node3&#45;&gt;Node6</title>
<path fill="none" stroke="midnightblue" d="M1023.31,-358.43C1035.83,-349.44 1050.74,-336.74 1059.98,-322 1078.54,-292.41 1079.98,-280.93 1079.98,-246 1079.98,-246 1079.98,-246 1079.98,-188 1079.98,-83.43 913.39,-68.19 837.21,-66.68"/>
<polygon fill="midnightblue" stroke="midnightblue" points="837.13,-63.18 827.08,-66.56 837.04,-70.18 837.13,-63.18"/>
</g>
<!-- Node7 -->
<g id="node7" class="node">
<title>Node7</title>
<g id="a_node7"><a xlink:title=" ">
<polygon fill="white" stroke="#bfbfbf" points="837.48,-297 837.48,-316 944.48,-316 944.48,-297 837.48,-297"/>
<text text-anchor="middle" x="890.98" y="-304" font-family="Helvetica,sans-Serif" font-size="10.00">boost/filesystem.hpp</text>
</a>
</g>
</g>
<!-- Node3&#45;&gt;Node7 -->
<g id="edge6" class="edge">
<title>Node3&#45;&gt;Node7</title>
<path fill="none" stroke="midnightblue" d="M977.11,-358.4C958.41,-347.34 932.54,-332.06 914.05,-321.13"/>
<polygon fill="midnightblue" stroke="midnightblue" points="915.77,-318.08 905.38,-316.01 912.21,-324.11 915.77,-318.08"/>
</g>
<!-- Node8 -->
<g id="node8" class="node">
<title>Node8</title>
<g id="a_node8"><a xlink:title=" ">
<polygon fill="white" stroke="#bfbfbf" points="962.48,-297 962.48,-316 1051.48,-316 1051.48,-297 962.48,-297"/>
<text text-anchor="middle" x="1006.98" y="-304" font-family="Helvetica,sans-Serif" font-size="10.00">boost/format.hpp</text>
</a>
</g>
</g>
<!-- Node3&#45;&gt;Node8 -->
<g id="edge7" class="edge">
<title>Node3&#45;&gt;Node8</title>
<path fill="none" stroke="midnightblue" d="M1002.28,-358.4C1003.15,-348.96 1004.31,-336.45 1005.25,-326.19"/>
<polygon fill="midnightblue" stroke="midnightblue" points="1008.74,-326.47 1006.18,-316.19 1001.77,-325.83 1008.74,-326.47"/>
</g>
<!-- Node9 -->
<g id="node9" class="node">
<title>Node9</title>
<g id="a_node9"><a xlink:title=" ">
<polygon fill="white" stroke="#bfbfbf" points="1145.98,-297 1145.98,-316 1219.98,-316 1219.98,-297 1145.98,-297"/>
<text text-anchor="middle" x="1182.98" y="-304" font-family="Helvetica,sans-Serif" font-size="10.00">glm/vec2.hpp</text>
</a>
</g>
</g>
<!-- Node3&#45;&gt;Node9 -->
<g id="edge8" class="edge">
<title>Node3&#45;&gt;Node9</title>
<path fill="none" stroke="midnightblue" d="M1040.47,-358.4C1073.11,-346.74 1118.94,-330.37 1149.73,-319.38"/>
<polygon fill="midnightblue" stroke="midnightblue" points="1150.92,-322.67 1159.16,-316.01 1148.57,-316.07 1150.92,-322.67"/>
</g>
<!-- Node10 -->
<g id="node10" class="node">
<title>Node10</title>
<g id="a_node10"><a xlink:title=" ">
<polygon fill="white" stroke="#bfbfbf" points="1470.98,-235.5 1470.98,-254.5 1544.98,-254.5 1544.98,-235.5 1470.98,-235.5"/>
<text text-anchor="middle" x="1507.98" y="-242.5" font-family="Helvetica,sans-Serif" font-size="10.00">glm/vec3.hpp</text>
</a>
</g>
</g>
<!-- Node3&#45;&gt;Node10 -->
<g id="edge9" class="edge">
<title>Node3&#45;&gt;Node10</title>
<path fill="none" stroke="midnightblue" d="M1029.18,-358.38C1047.9,-348.72 1072.82,-335.29 1093.98,-322 1113.93,-309.46 1115.04,-299.58 1136.98,-291 1194.98,-268.33 1374.57,-254.36 1460.82,-248.78"/>
<polygon fill="midnightblue" stroke="midnightblue" points="1461.1,-252.27 1470.86,-248.15 1460.66,-245.29 1461.1,-252.27"/>
</g>
<!-- Node11 -->
<g id="node11" class="node">
<title>Node11</title>
<g id="a_node11"><a xlink:title=" ">
<polygon fill="white" stroke="#bfbfbf" points="570.98,-297 570.98,-316 634.98,-316 634.98,-297 570.98,-297"/>
<text text-anchor="middle" x="602.98" y="-304" font-family="Helvetica,sans-Serif" font-size="10.00">glad/glad.h</text>
</a>
</g>
</g>
<!-- Node3&#45;&gt;Node11 -->
<g id="edge10" class="edge">
<title>Node3&#45;&gt;Node11</title>
<path fill="none" stroke="midnightblue" d="M944.32,-364.56C844.55,-350.56 647.61,-322.89 643.98,-322 640.93,-321.25 637.78,-320.36 634.65,-319.4"/>
<polygon fill="midnightblue" stroke="midnightblue" points="635.46,-315.98 624.86,-316.15 633.25,-322.62 635.46,-315.98"/>
</g>
<!-- Node12 -->
<g id="node12" class="node">
<title>Node12</title>
<g id="a_node12"><a xlink:title=" ">
<polygon fill="white" stroke="#bfbfbf" points="652.98,-297 652.98,-316 730.98,-316 730.98,-297 652.98,-297"/>
<text text-anchor="middle" x="691.98" y="-304" font-family="Helvetica,sans-Serif" font-size="10.00">GLFW/glfw3.h</text>
</a>
</g>
</g>
<!-- Node3&#45;&gt;Node12 -->
<g id="edge11" class="edge">
<title>Node3&#45;&gt;Node12</title>
<path fill="none" stroke="midnightblue" d="M944.41,-360.87C939.53,-359.89 934.67,-358.92 929.98,-358 845.65,-341.4 823.46,-342.46 739.98,-322 736.14,-321.06 732.16,-320 728.2,-318.88"/>
<polygon fill="midnightblue" stroke="midnightblue" points="729.08,-315.5 718.5,-316.06 727.12,-322.22 729.08,-315.5"/>
</g>
<!-- Node13 -->
<g id="node13" class="node">
<title>Node13</title>
<g id="a_node13"><a xlink:href="_dispatcher_8h.html" target="_top" xlink:title=" ">
<polygon fill="white" stroke="black" points="135.48,-291.5 135.48,-321.5 248.48,-321.5 248.48,-291.5 135.48,-291.5"/>
<text text-anchor="start" x="143.48" y="-309.5" font-family="Helvetica,sans-Serif" font-size="10.00">kryne&#45;engine/Dispatch</text>
<text text-anchor="middle" x="191.98" y="-298.5" font-family="Helvetica,sans-Serif" font-size="10.00">/Dispatcher.h</text>
</a>
</g>
</g>
<!-- Node3&#45;&gt;Node13 -->
<g id="edge12" class="edge">
<title>Node3&#45;&gt;Node13</title>
<path fill="none" stroke="midnightblue" d="M944.39,-363.91C929.03,-361.77 912.39,-359.62 896.98,-358 774.33,-345.07 409.65,-321.31 258.62,-311.7"/>
<polygon fill="midnightblue" stroke="midnightblue" points="258.76,-308.2 248.56,-311.06 258.32,-315.19 258.76,-308.2"/>
</g>
<!-- Node14 -->
<g id="node14" class="node">
<title>Node14</title>
<g id="a_node14"><a xlink:href="_synchronizable_pool_8h.html" target="_top" xlink:title=" ">
<polygon fill="white" stroke="black" points="106.48,-179.5 106.48,-198.5 217.48,-198.5 217.48,-179.5 106.48,-179.5"/>
<text text-anchor="middle" x="161.98" y="-186.5" font-family="Helvetica,sans-Serif" font-size="10.00">SynchronizablePool.h</text>
</a>
</g>
</g>
<!-- Node13&#45;&gt;Node14 -->
<g id="edge13" class="edge">
<title>Node13&#45;&gt;Node14</title>
<path fill="none" stroke="midnightblue" d="M188.3,-291.34C182.9,-270.53 172.8,-231.66 166.81,-208.58"/>
<polygon fill="midnightblue" stroke="midnightblue" points="170.13,-207.47 164.23,-198.67 163.36,-209.23 170.13,-207.47"/>
</g>
<!-- Node24 -->
<g id="node24" class="node">
<title>Node24</title>
<g id="a_node24"><a xlink:href="_runner_pool_8h.html" target="_top" xlink:title=" ">
<polygon fill="white" stroke="black" points="235.48,-179.5 235.48,-198.5 310.48,-198.5 310.48,-179.5 235.48,-179.5"/>
<text text-anchor="middle" x="272.98" y="-186.5" font-family="Helvetica,sans-Serif" font-size="10.00">RunnerPool.h</text>
</a>
</g>
</g>
<!-- Node13&#45;&gt;Node24 -->
<g id="edge24" class="edge">
<title>Node13&#45;&gt;Node24</title>
<path fill="none" stroke="midnightblue" d="M201.91,-291.34C216.84,-270.05 245.01,-229.89 261.03,-207.03"/>
<polygon fill="midnightblue" stroke="midnightblue" points="264.02,-208.87 266.9,-198.67 258.29,-204.85 264.02,-208.87"/>
</g>
<!-- Node25 -->
<g id="node25" class="node">
<title>Node25</title>
<g id="a_node25"><a xlink:href="_main_pool_8h.html" target="_top" xlink:title=" ">
<polygon fill="white" stroke="black" points="98.48,-235.5 98.48,-254.5 163.48,-254.5 163.48,-235.5 98.48,-235.5"/>
<text text-anchor="middle" x="130.98" y="-242.5" font-family="Helvetica,sans-Serif" font-size="10.00">MainPool.h</text>
</a>
</g>
</g>
<!-- Node13&#45;&gt;Node25 -->
<g id="edge26" class="edge">
<title>Node13&#45;&gt;Node25</title>
<path fill="none" stroke="midnightblue" d="M177.52,-291.4C168.39,-282.49 156.56,-270.95 147.12,-261.74"/>
<polygon fill="midnightblue" stroke="midnightblue" points="149.46,-259.13 139.86,-254.66 144.57,-264.15 149.46,-259.13"/>
</g>
<!-- Node15 -->
<g id="node15" class="node">
<title>Node15</title>
<g id="a_node15"><a xlink:href="_thread_pool_8h.html" target="_top" xlink:title=" ">
<polygon fill="white" stroke="black" points="235.98,-118 235.98,-137 309.98,-137 309.98,-118 235.98,-118"/>
<text text-anchor="middle" x="272.98" y="-125" font-family="Helvetica,sans-Serif" font-size="10.00">ThreadPool.h</text>
</a>
</g>
</g>
<!-- Node14&#45;&gt;Node15 -->
<g id="edge14" class="edge">
<title>Node14&#45;&gt;Node15</title>
<path fill="none" stroke="midnightblue" d="M177.88,-179.48C196.26,-169.62 226.74,-153.29 248.22,-141.77"/>
<polygon fill="midnightblue" stroke="midnightblue" points="249.95,-144.82 257.11,-137.01 246.64,-138.65 249.95,-144.82"/>
</g>
<!-- Node15&#45;&gt;Node6 -->
<g id="edge20" class="edge">
<title>Node15&#45;&gt;Node6</title>
<path fill="none" stroke="midnightblue" d="M300.02,-117.98C307.99,-115.74 316.78,-113.52 324.98,-112 408.98,-96.44 665.99,-76.74 762.68,-69.67"/>
<polygon fill="midnightblue" stroke="midnightblue" points="763.14,-73.15 772.86,-68.93 762.63,-66.17 763.14,-73.15"/>
</g>
<!-- Node16 -->
<g id="node16" class="node">
<title>Node16</title>
<g id="a_node16"><a xlink:title=" ">
<polygon fill="white" stroke="#bfbfbf" points="163.98,-56.5 163.98,-75.5 207.98,-75.5 207.98,-56.5 163.98,-56.5"/>
<text text-anchor="middle" x="185.98" y="-63.5" font-family="Helvetica,sans-Serif" font-size="10.00">thread</text>
</a>
</g>
</g>
<!-- Node15&#45;&gt;Node16 -->
<g id="edge15" class="edge">
<title>Node15&#45;&gt;Node16</title>
<path fill="none" stroke="midnightblue" d="M260.51,-117.98C246.56,-108.43 223.72,-92.81 206.99,-81.37"/>
<polygon fill="midnightblue" stroke="midnightblue" points="208.65,-78.27 198.42,-75.51 204.7,-84.04 208.65,-78.27"/>
</g>
<!-- Node17 -->
<g id="node17" class="node">
<title>Node17</title>
<g id="a_node17"><a xlink:title=" ">
<polygon fill="white" stroke="#bfbfbf" points="90.98,-56.5 90.98,-75.5 134.98,-75.5 134.98,-56.5 90.98,-56.5"/>
<text text-anchor="middle" x="112.98" y="-63.5" font-family="Helvetica,sans-Serif" font-size="10.00">mutex</text>
</a>
</g>
</g>
<!-- Node15&#45;&gt;Node17 -->
<g id="edge16" class="edge">
<title>Node15&#45;&gt;Node17</title>
<path fill="none" stroke="midnightblue" d="M250.06,-117.98C222.38,-107.68 175.68,-90.31 144.59,-78.75"/>
<polygon fill="midnightblue" stroke="midnightblue" points="145.68,-75.43 135.09,-75.22 143.24,-81.99 145.68,-75.43"/>
</g>
<!-- Node18 -->
<g id="node18" class="node">
<title>Node18</title>
<g id="a_node18"><a xlink:title=" ">
<polygon fill="white" stroke="#bfbfbf" points="226.48,-56.5 226.48,-75.5 319.48,-75.5 319.48,-56.5 226.48,-56.5"/>
<text text-anchor="middle" x="272.98" y="-63.5" font-family="Helvetica,sans-Serif" font-size="10.00">condition_variable</text>
</a>
</g>
</g>
<!-- Node15&#45;&gt;Node18 -->
<g id="edge17" class="edge">
<title>Node15&#45;&gt;Node18</title>
<path fill="none" stroke="midnightblue" d="M272.98,-117.98C272.98,-109.58 272.98,-96.48 272.98,-85.66"/>
<polygon fill="midnightblue" stroke="midnightblue" points="276.48,-85.51 272.98,-75.51 269.48,-85.51 276.48,-85.51"/>
</g>
<!-- Node19 -->
<g id="node19" class="node">
<title>Node19</title>
<g id="a_node19"><a xlink:title=" ">
<polygon fill="white" stroke="#bfbfbf" points="337.48,-56.5 337.48,-75.5 378.48,-75.5 378.48,-56.5 337.48,-56.5"/>
<text text-anchor="middle" x="357.98" y="-63.5" font-family="Helvetica,sans-Serif" font-size="10.00">future</text>
</a>
</g>
</g>
<!-- Node15&#45;&gt;Node19 -->
<g id="edge18" class="edge">
<title>Node15&#45;&gt;Node19</title>
<path fill="none" stroke="midnightblue" d="M285.16,-117.98C298.79,-108.43 321.11,-92.81 337.45,-81.37"/>
<polygon fill="midnightblue" stroke="midnightblue" points="339.64,-84.11 345.82,-75.51 335.62,-78.38 339.64,-84.11"/>
</g>
<!-- Node20 -->
<g id="node20" class="node">
<title>Node20</title>
<g id="a_node20"><a xlink:title=" ">
<polygon fill="white" stroke="#bfbfbf" points="1007.98,-56.5 1007.98,-75.5 1059.98,-75.5 1059.98,-56.5 1007.98,-56.5"/>
<text text-anchor="middle" x="1033.98" y="-63.5" font-family="Helvetica,sans-Serif" font-size="10.00">memory</text>
</a>
</g>
</g>
<!-- Node15&#45;&gt;Node20 -->
<g id="edge19" class="edge">
<title>Node15&#45;&gt;Node20</title>
<path fill="none" stroke="midnightblue" d="M310.2,-123.59C439.65,-113.47 869.32,-79.87 997.55,-69.85"/>
<polygon fill="midnightblue" stroke="midnightblue" points="997.94,-73.33 1007.63,-69.06 997.39,-66.35 997.94,-73.33"/>
</g>
<!-- Node21 -->
<g id="node21" class="node">
<title>Node21</title>
<g id="a_node21"><a xlink:href="_base_pool_8h.html" target="_top" xlink:title=" ">
<polygon fill="white" stroke="black" points="584.48,-56.5 584.48,-75.5 651.48,-75.5 651.48,-56.5 584.48,-56.5"/>
<text text-anchor="middle" x="617.98" y="-63.5" font-family="Helvetica,sans-Serif" font-size="10.00">BasePool.h</text>
</a>
</g>
</g>
<!-- Node15&#45;&gt;Node21 -->
<g id="edge21" class="edge">
<title>Node15&#45;&gt;Node21</title>
<path fill="none" stroke="midnightblue" d="M301.16,-117.98C308.84,-115.84 317.19,-113.68 324.98,-112 412.6,-93.13 516.61,-79.11 574.16,-72.07"/>
<polygon fill="midnightblue" stroke="midnightblue" points="574.84,-75.51 584.35,-70.84 574,-68.56 574.84,-75.51"/>
</g>
<!-- Node22 -->
<g id="node22" class="node">
<title>Node22</title>
<g id="a_node22"><a xlink:title=" ">
<polygon fill="white" stroke="#bfbfbf" points="596.48,-0.5 596.48,-19.5 639.48,-19.5 639.48,-0.5 596.48,-0.5"/>
<text text-anchor="middle" x="617.98" y="-7.5" font-family="Helvetica,sans-Serif" font-size="10.00">queue</text>
</a>
</g>
</g>
<!-- Node21&#45;&gt;Node22 -->
<g id="edge22" class="edge">
<title>Node21&#45;&gt;Node22</title>
<path fill="none" stroke="midnightblue" d="M617.98,-56.08C617.98,-49.01 617.98,-38.86 617.98,-29.99"/>
<polygon fill="midnightblue" stroke="midnightblue" points="621.48,-29.75 617.98,-19.75 614.48,-29.75 621.48,-29.75"/>
</g>
<!-- Node23 -->
<g id="node23" class="node">
<title>Node23</title>
<g id="a_node23"><a xlink:title=" ">
<polygon fill="white" stroke="#bfbfbf" points="1033.98,-0.5 1033.98,-19.5 1091.98,-19.5 1091.98,-0.5 1033.98,-0.5"/>
<text text-anchor="middle" x="1062.98" y="-7.5" font-family="Helvetica,sans-Serif" font-size="10.00">functional</text>
</a>
</g>
</g>
<!-- Node21&#45;&gt;Node23 -->
<g id="edge23" class="edge">
<title>Node21&#45;&gt;Node23</title>
<path fill="none" stroke="midnightblue" d="M651.79,-60.9C732.79,-51.07 937.58,-26.22 1023.78,-15.76"/>
<polygon fill="midnightblue" stroke="midnightblue" points="1024.43,-19.2 1033.93,-14.52 1023.58,-12.26 1024.43,-19.2"/>
</g>
<!-- Node24&#45;&gt;Node15 -->
<g id="edge25" class="edge">
<title>Node24&#45;&gt;Node15</title>
<path fill="none" stroke="midnightblue" d="M272.98,-179.48C272.98,-171.08 272.98,-157.98 272.98,-147.16"/>
<polygon fill="midnightblue" stroke="midnightblue" points="276.48,-147.01 272.98,-137.01 269.48,-147.01 276.48,-147.01"/>
</g>
<!-- Node25&#45;&gt;Node14 -->
<g id="edge29" class="edge">
<title>Node25&#45;&gt;Node14</title>
<path fill="none" stroke="midnightblue" d="M136.1,-235.08C140.39,-227.61 146.64,-216.72 151.92,-207.52"/>
<polygon fill="midnightblue" stroke="midnightblue" points="155.01,-209.17 156.96,-198.75 148.94,-205.68 155.01,-209.17"/>
</g>
<!-- Node26 -->
<g id="node26" class="node">
<title>Node26</title>
<g id="a_node26"><a xlink:href="_multithreading_8hpp.html" target="_top" xlink:title=" ">
<polygon fill="white" stroke="black" points="40.48,-112.5 40.48,-142.5 139.48,-142.5 139.48,-112.5 40.48,-112.5"/>
<text text-anchor="start" x="48.48" y="-130.5" font-family="Helvetica,sans-Serif" font-size="10.00">kryne&#45;engine/Utils</text>
<text text-anchor="middle" x="89.98" y="-119.5" font-family="Helvetica,sans-Serif" font-size="10.00">/Multithreading.hpp</text>
</a>
</g>
</g>
<!-- Node25&#45;&gt;Node26 -->
<g id="edge27" class="edge">
<title>Node25&#45;&gt;Node26</title>
<path fill="none" stroke="midnightblue" d="M122.02,-235.28C113.95,-226.82 102.55,-213.22 96.98,-199 91.25,-184.36 89.5,-166.76 89.18,-152.81"/>
<polygon fill="midnightblue" stroke="midnightblue" points="92.68,-152.53 89.18,-142.53 85.68,-152.53 92.68,-152.53"/>
</g>
<!-- Node26&#45;&gt;Node17 -->
<g id="edge28" class="edge">
<title>Node26&#45;&gt;Node17</title>
<path fill="none" stroke="midnightblue" d="M95.43,-112.4C98.6,-104.2 102.63,-93.78 106.02,-84.99"/>
<polygon fill="midnightblue" stroke="midnightblue" points="109.29,-86.25 109.63,-75.66 102.76,-83.72 109.29,-86.25"/>
</g>
<!-- Node28 -->
<g id="node28" class="node">
<title>Node28</title>
<g id="a_node28"><a xlink:href="_material_side_8h.html" target="_top" xlink:title=" ">
<polygon fill="white" stroke="black" points="598.98,-559.5 598.98,-589.5 702.98,-589.5 702.98,-559.5 598.98,-559.5"/>
<text text-anchor="start" x="606.98" y="-577.5" font-family="Helvetica,sans-Serif" font-size="10.00">kryne&#45;engine/enums</text>
<text text-anchor="middle" x="650.98" y="-566.5" font-family="Helvetica,sans-Serif" font-size="10.00">/MaterialSide.h</text>
</a>
</g>
</g>
<!-- Node27&#45;&gt;Node28 -->
<g id="edge31" class="edge">
<title>Node27&#45;&gt;Node28</title>
<path fill="none" stroke="midnightblue" d="M650.98,-626.48C650.98,-619.47 650.98,-609.19 650.98,-599.7"/>
<polygon fill="midnightblue" stroke="midnightblue" points="654.48,-599.52 650.98,-589.52 647.48,-599.52 654.48,-599.52"/>
</g>
<!-- Node29 -->
<g id="node29" class="node">
<title>Node29</title>
<g id="a_node29"><a xlink:href="_shader_program_compiler_8h.html" target="_top" xlink:title=" ">
<polygon fill="white" stroke="black" points="299.98,-559.5 299.98,-589.5 433.98,-589.5 433.98,-559.5 299.98,-559.5"/>
<text text-anchor="start" x="307.98" y="-577.5" font-family="Helvetica,sans-Serif" font-size="10.00">kryne&#45;engine/Rendering</text>
<text text-anchor="middle" x="366.98" y="-566.5" font-family="Helvetica,sans-Serif" font-size="10.00">/ShaderProgramCompiler.h</text>
</a>
</g>
</g>
<!-- Node27&#45;&gt;Node29 -->
<g id="edge32" class="edge">
<title>Node27&#45;&gt;Node29</title>
<path fill="none" stroke="midnightblue" d="M621.19,-628.05C618.08,-627.35 614.97,-626.65 611.98,-626 555.93,-613.76 492.49,-600.7 444.21,-590.93"/>
<polygon fill="midnightblue" stroke="midnightblue" points="444.64,-587.45 434.14,-588.9 443.25,-594.31 444.64,-587.45"/>
</g>
<!-- Node29&#45;&gt;Node13 -->
<g id="edge74" class="edge">
<title>Node29&#45;&gt;Node13</title>
<path fill="none" stroke="midnightblue" d="M299.79,-565.7C249.6,-558.45 179.94,-545.3 121.98,-523 67.13,-501.9 37.17,-507.01 7.98,-456 -27.24,-394.45 68.86,-348.34 135.09,-324.87"/>
<polygon fill="midnightblue" stroke="midnightblue" points="136.32,-328.15 144.63,-321.57 134.03,-321.53 136.32,-328.15"/>
</g>
<!-- Node30 -->
<g id="node30" class="node">
<title>Node30</title>
<g id="a_node30"><a xlink:title=" ">
<polygon fill="white" stroke="#bfbfbf" points="346.48,-498 346.48,-517 387.48,-517 387.48,-498 346.48,-498"/>
<text text-anchor="middle" x="366.98" y="-505" font-family="Helvetica,sans-Serif" font-size="10.00">regex</text>
</a>
</g>
</g>
<!-- Node29&#45;&gt;Node30 -->
<g id="edge33" class="edge">
<title>Node29&#45;&gt;Node30</title>
<path fill="none" stroke="midnightblue" d="M366.98,-559.4C366.98,-550.06 366.98,-537.71 366.98,-527.52"/>
<polygon fill="midnightblue" stroke="midnightblue" points="370.48,-527.19 366.98,-517.19 363.48,-527.19 370.48,-527.19"/>
</g>
<!-- Node31 -->
<g id="node31" class="node">
<title>Node31</title>
<g id="a_node31"><a xlink:href="_shader_8h.html" target="_top" xlink:title=" ">
<polygon fill="white" stroke="black" points="130.98,-492.5 130.98,-522.5 240.98,-522.5 240.98,-492.5 130.98,-492.5"/>
<text text-anchor="start" x="138.98" y="-510.5" font-family="Helvetica,sans-Serif" font-size="10.00">kryne&#45;engine/Material</text>
<text text-anchor="middle" x="185.98" y="-499.5" font-family="Helvetica,sans-Serif" font-size="10.00">/Shader.h</text>
</a>
</g>
</g>
<!-- Node29&#45;&gt;Node31 -->
<g id="edge34" class="edge">
<title>Node29&#45;&gt;Node31</title>
<path fill="none" stroke="midnightblue" d="M327.71,-559.4C300.43,-549.6 263.9,-536.48 234.75,-526.02"/>
<polygon fill="midnightblue" stroke="midnightblue" points="235.77,-522.66 225.18,-522.58 233.41,-529.25 235.77,-522.66"/>
</g>
<!-- Node46 -->
<g id="node42" class="node">
<title>Node46</title>
<g id="a_node42"><a xlink:href="_buffer_geometry_8h.html" target="_top" xlink:title=" ">
<polygon fill="white" stroke="black" points="1215.98,-425.5 1215.98,-455.5 1333.98,-455.5 1333.98,-425.5 1215.98,-425.5"/>
<text text-anchor="start" x="1223.98" y="-443.5" font-family="Helvetica,sans-Serif" font-size="10.00">kryne&#45;engine/Geometry</text>
<text text-anchor="middle" x="1274.98" y="-432.5" font-family="Helvetica,sans-Serif" font-size="10.00">/BufferGeometry.h</text>
</a>
</g>
</g>
<!-- Node29&#45;&gt;Node46 -->
<g id="edge53" class="edge">
<title>Node29&#45;&gt;Node46</title>
<path fill="none" stroke="midnightblue" d="M434.12,-563.74C601.58,-539.4 1036.42,-476.18 1205.91,-451.54"/>
<polygon fill="midnightblue" stroke="midnightblue" points="1206.57,-454.98 1215.97,-450.08 1205.57,-448.05 1206.57,-454.98"/>
</g>
<!-- Node31&#45;&gt;Node13 -->
<g id="edge37" class="edge">
<title>Node31&#45;&gt;Node13</title>
<path fill="none" stroke="midnightblue" d="M177.95,-492.23C168.15,-475.36 150.57,-446.84 131.98,-425 116.69,-407.04 102.44,-410.61 92.98,-389 87.45,-376.38 85.78,-369.75 92.98,-358 101.7,-343.76 115.84,-333.38 130.73,-325.87"/>
<polygon fill="midnightblue" stroke="midnightblue" points="132.46,-328.93 140.07,-321.56 129.52,-322.58 132.46,-328.93"/>
</g>
<!-- Node32 -->
<g id="node32" class="node">
<title>Node32</title>
<g id="a_node32"><a xlink:title=" ">
<polygon fill="white" stroke="#bfbfbf" points="17.48,-431 17.48,-450 52.48,-450 52.48,-431 17.48,-431"/>
<text text-anchor="middle" x="34.98" y="-438" font-family="Helvetica,sans-Serif" font-size="10.00">map</text>
</a>
</g>
</g>
<!-- Node31&#45;&gt;Node32 -->
<g id="edge35" class="edge">
<title>Node31&#45;&gt;Node32</title>
<path fill="none" stroke="midnightblue" d="M148.64,-492.49C123.79,-482.87 90.58,-469.46 61.98,-456 61.14,-455.6 60.28,-455.19 59.42,-454.77"/>
<polygon fill="midnightblue" stroke="midnightblue" points="60.75,-451.52 50.26,-450.07 57.55,-457.75 60.75,-451.52"/>
</g>
<!-- Node33 -->
<g id="node33" class="node">
<title>Node33</title>
<g id="a_node33"><a xlink:title=" ">
<polygon fill="white" stroke="#bfbfbf" points="70.98,-431 70.98,-450 122.98,-450 122.98,-431 70.98,-431"/>
<text text-anchor="middle" x="96.98" y="-438" font-family="Helvetica,sans-Serif" font-size="10.00">sstream</text>
</a>
</g>
</g>
<!-- Node31&#45;&gt;Node33 -->
<g id="edge36" class="edge">
<title>Node31&#45;&gt;Node33</title>
<path fill="none" stroke="midnightblue" d="M166.67,-492.4C152.02,-481.7 131.94,-467.03 117.1,-456.19"/>
<polygon fill="midnightblue" stroke="midnightblue" points="118.77,-453.08 108.63,-450.01 114.64,-458.73 118.77,-453.08"/>
</g>
<!-- Node34 -->
<g id="node34" class="node">
<title>Node34</title>
<g id="a_node34"><a xlink:href="_uniforms_handler_8h.html" target="_top" xlink:title=" ">
<polygon fill="white" stroke="black" points="687.98,-431 687.98,-450 783.98,-450 783.98,-431 687.98,-431"/>
<text text-anchor="middle" x="735.98" y="-438" font-family="Helvetica,sans-Serif" font-size="10.00">UniformsHandler.h</text>
</a>
</g>
</g>
<!-- Node31&#45;&gt;Node34 -->
<g id="edge38" class="edge">
<title>Node31&#45;&gt;Node34</title>
<path fill="none" stroke="midnightblue" d="M240.98,-500C345.35,-487.67 571.21,-460.97 677.91,-448.36"/>
<polygon fill="midnightblue" stroke="midnightblue" points="678.34,-451.84 687.86,-447.19 677.52,-444.89 678.34,-451.84"/>
</g>
<!-- Node39 -->
<g id="node39" class="node">
<title>Node39</title>
<g id="a_node39"><a xlink:href="_shader_chunk_8h.html" target="_top" xlink:title=" ">
<polygon fill="white" stroke="black" points="179.48,-431 179.48,-450 262.48,-450 262.48,-431 179.48,-431"/>
<text text-anchor="middle" x="220.98" y="-438" font-family="Helvetica,sans-Serif" font-size="10.00">ShaderChunk.h</text>
</a>
</g>
</g>
<!-- Node31&#45;&gt;Node39 -->
<g id="edge47" class="edge">
<title>Node31&#45;&gt;Node39</title>
<path fill="none" stroke="midnightblue" d="M193.57,-492.4C198.82,-482.66 205.82,-469.65 211.44,-459.21"/>
<polygon fill="midnightblue" stroke="midnightblue" points="214.64,-460.66 216.3,-450.19 208.48,-457.34 214.64,-460.66"/>
</g>
<!-- Node34&#45;&gt;Node3 -->
<g id="edge46" class="edge">
<title>Node34&#45;&gt;Node3</title>
<path fill="none" stroke="midnightblue" d="M770.9,-430.94C812.42,-420.75 882.64,-403.53 934.61,-390.78"/>
<polygon fill="midnightblue" stroke="midnightblue" points="935.54,-394.16 944.42,-388.37 933.87,-387.36 935.54,-394.16"/>
</g>
<!-- Node34&#45;&gt;Node5 -->
<g id="edge39" class="edge">
<title>Node34&#45;&gt;Node5</title>
<path fill="none" stroke="midnightblue" d="M732.5,-430.97C725.16,-414.09 706.36,-376.47 677.98,-358 611.07,-314.44 577.62,-347.57 501.98,-322 500.36,-321.45 498.71,-320.84 497.07,-320.18"/>
<polygon fill="midnightblue" stroke="midnightblue" points="498.42,-316.95 487.86,-316.08 495.58,-323.35 498.42,-316.95"/>
</g>
<!-- Node34&#45;&gt;Node11 -->
<g id="edge41" class="edge">
<title>Node34&#45;&gt;Node11</title>
<path fill="none" stroke="midnightblue" d="M741.18,-430.97C750.13,-415.05 766.03,-380.41 749.98,-358 721,-317.56 690.99,-338.29 643.98,-322 641.61,-321.18 639.16,-320.32 636.7,-319.46"/>
<polygon fill="midnightblue" stroke="midnightblue" points="637.84,-316.15 627.24,-316.14 635.52,-322.76 637.84,-316.15"/>
</g>
<!-- Node34&#45;&gt;Node12 -->
<g id="edge42" class="edge">
<title>Node34&#45;&gt;Node12</title>
<path fill="none" stroke="midnightblue" d="M784.14,-433.11C843.11,-423.28 931.19,-400.94 896.98,-358 852.37,-302.01 809.17,-340.36 739.98,-322 736.36,-321.04 732.6,-319.99 728.85,-318.91"/>
<polygon fill="midnightblue" stroke="midnightblue" points="729.63,-315.5 719.05,-316.03 727.65,-322.21 729.63,-315.5"/>
</g>
<!-- Node35 -->
<g id="node35" class="node">
<title>Node35</title>
<g id="a_node35"><a xlink:title=" ">
<polygon fill="white" stroke="#bfbfbf" points="586.48,-364 586.48,-383 669.48,-383 669.48,-364 586.48,-364"/>
<text text-anchor="middle" x="627.98" y="-371" font-family="Helvetica,sans-Serif" font-size="10.00">unordered_map</text>
</a>
</g>
</g>
<!-- Node34&#45;&gt;Node35 -->
<g id="edge40" class="edge">
<title>Node34&#45;&gt;Node35</title>
<path fill="none" stroke="midnightblue" d="M721.41,-430.73C703.36,-419.87 672.37,-401.22 651.06,-388.39"/>
<polygon fill="midnightblue" stroke="midnightblue" points="652.69,-385.29 642.31,-383.13 649.08,-391.28 652.69,-385.29"/>
</g>
<!-- Node36 -->
<g id="node36" class="node">
<title>Node36</title>
<g id="a_node36"><a xlink:title=" ">
<polygon fill="white" stroke="#bfbfbf" points="1237.98,-297 1237.98,-316 1323.98,-316 1323.98,-297 1237.98,-297"/>
<text text-anchor="middle" x="1280.98" y="-304" font-family="Helvetica,sans-Serif" font-size="10.00">glm/mat4x4.hpp</text>
</a>
</g>
</g>
<!-- Node34&#45;&gt;Node36 -->
<g id="edge43" class="edge">
<title>Node34&#45;&gt;Node36</title>
<path fill="none" stroke="midnightblue" d="M784,-439.77C850.2,-438.48 971.97,-430.05 1065.98,-389 1086.27,-380.14 1085.29,-368.14 1104.98,-358 1108.08,-356.4 1189.91,-333.19 1240.88,-318.8"/>
<polygon fill="midnightblue" stroke="midnightblue" points="1241.96,-322.13 1250.63,-316.05 1240.06,-315.39 1241.96,-322.13"/>
</g>
<!-- Node37 -->
<g id="node37" class="node">
<title>Node37</title>
<g id="a_node37"><a xlink:title=" ">
<polygon fill="white" stroke="#bfbfbf" points="461.98,-364 461.98,-383 567.98,-383 567.98,-364 461.98,-364"/>
<text text-anchor="middle" x="514.98" y="-371" font-family="Helvetica,sans-Serif" font-size="10.00">glm/gtc/type_ptr.hpp</text>
</a>
</g>
</g>
<!-- Node34&#45;&gt;Node37 -->
<g id="edge44" class="edge">
<title>Node34&#45;&gt;Node37</title>
<path fill="none" stroke="midnightblue" d="M706.63,-430.87C667.31,-419.3 597.43,-398.75 553.79,-385.91"/>
<polygon fill="midnightblue" stroke="midnightblue" points="554.68,-382.53 544.1,-383.06 552.7,-389.24 554.68,-382.53"/>
</g>
<!-- Node38 -->
<g id="node38" class="node">
<title>Node38</title>
<g id="a_node38"><a xlink:title=" ">
<polygon fill="white" stroke="#bfbfbf" points="353.98,-364 353.98,-383 443.98,-383 443.98,-364 353.98,-364"/>
<text text-anchor="middle" x="398.98" y="-371" font-family="Helvetica,sans-Serif" font-size="10.00">boost/variant.hpp</text>
</a>
</g>
</g>
<!-- Node34&#45;&gt;Node38 -->
<g id="edge45" class="edge">
<title>Node34&#45;&gt;Node38</title>
<path fill="none" stroke="midnightblue" d="M687.91,-432.21C631.41,-423.35 534.94,-407.28 452.98,-389 448.31,-387.96 443.44,-386.78 438.61,-385.56"/>
<polygon fill="midnightblue" stroke="midnightblue" points="439.42,-382.15 428.86,-383.01 437.65,-388.92 439.42,-382.15"/>
</g>
<!-- Node39&#45;&gt;Node5 -->
<g id="edge49" class="edge">
<title>Node39&#45;&gt;Node5</title>
<path fill="none" stroke="midnightblue" d="M206.97,-430.79C183.99,-415.44 142.85,-382.87 163.98,-358 181.87,-336.94 366.77,-317.38 441.2,-310.3"/>
<polygon fill="midnightblue" stroke="midnightblue" points="441.72,-313.77 451.34,-309.35 441.06,-306.8 441.72,-313.77"/>
</g>
<!-- Node39&#45;&gt;Node6 -->
<g id="edge51" class="edge">
<title>Node39&#45;&gt;Node6</title>
<path fill="none" stroke="midnightblue" d="M201.65,-430.84C185.86,-422.59 164.63,-408.53 154.98,-389 148.88,-376.65 147.02,-369.25 154.98,-358 182.75,-318.76 212.5,-340.24 256.98,-322 460.28,-238.63 697.29,-119.48 774.37,-80.15"/>
<polygon fill="midnightblue" stroke="midnightblue" points="776.05,-83.22 783.36,-75.55 772.87,-76.99 776.05,-83.22"/>
</g>
<!-- Node39&#45;&gt;Node35 -->
<g id="edge48" class="edge">
<title>Node39&#45;&gt;Node35</title>
<path fill="none" stroke="midnightblue" d="M262.68,-435.45C329.5,-428.53 464.47,-412.86 576.98,-389 581.46,-388.05 586.12,-386.92 590.72,-385.72"/>
<polygon fill="midnightblue" stroke="midnightblue" points="591.9,-389.03 600.62,-383.02 590.06,-382.28 591.9,-389.03"/>
</g>
<!-- Node40 -->
<g id="node40" class="node">
<title>Node40</title>
<g id="a_node40"><a xlink:title=" ">
<polygon fill="white" stroke="#bfbfbf" points="286.48,-364 286.48,-383 335.48,-383 335.48,-364 286.48,-364"/>
<text text-anchor="middle" x="310.98" y="-371" font-family="Helvetica,sans-Serif" font-size="10.00">fstream</text>
</a>
</g>
</g>
<!-- Node39&#45;&gt;Node40 -->
<g id="edge50" class="edge">
<title>Node39&#45;&gt;Node40</title>
<path fill="none" stroke="midnightblue" d="M233.12,-430.73C247.83,-420.11 272.84,-402.05 290.54,-389.26"/>
<polygon fill="midnightblue" stroke="midnightblue" points="292.98,-391.82 299.03,-383.13 288.88,-386.14 292.98,-391.82"/>
</g>
<!-- Node41 -->
<g id="node41" class="node">
<title>Node41</title>
<g id="a_node41"><a xlink:href="kryne-engine_2_utils_2_utils_8h.html" target="_top" xlink:title=" ">
<polygon fill="white" stroke="red" points="173.48,-358.5 173.48,-388.5 268.48,-388.5 268.48,-358.5 173.48,-358.5"/>
<text text-anchor="start" x="181.48" y="-376.5" font-family="Helvetica,sans-Serif" font-size="10.00">kryne&#45;engine/Utils</text>
<text text-anchor="middle" x="220.98" y="-365.5" font-family="Helvetica,sans-Serif" font-size="10.00">/Utils.h</text>
</a>
</g>
</g>
<!-- Node39&#45;&gt;Node41 -->
<g id="edge52" class="edge">
<title>Node39&#45;&gt;Node41</title>
<path fill="none" stroke="midnightblue" d="M220.98,-430.73C220.98,-422.54 220.98,-409.92 220.98,-398.71"/>
<polygon fill="midnightblue" stroke="midnightblue" points="224.48,-398.59 220.98,-388.59 217.48,-398.59 224.48,-398.59"/>
</g>
<!-- Node46&#45;&gt;Node6 -->
<g id="edge56" class="edge">
<title>Node46&#45;&gt;Node6</title>
<path fill="none" stroke="midnightblue" d="M1290.19,-425.26C1312.63,-402.64 1351.98,-356.05 1351.98,-307.5 1351.98,-307.5 1351.98,-307.5 1351.98,-188 1351.98,-135.21 961.81,-85.66 837.53,-71.21"/>
<polygon fill="midnightblue" stroke="midnightblue" points="837.69,-67.71 827.35,-70.04 836.89,-74.66 837.69,-67.71"/>
</g>
<!-- Node46&#45;&gt;Node9 -->
<g id="edge59" class="edge">
<title>Node46&#45;&gt;Node9</title>
<path fill="none" stroke="midnightblue" d="M1284.32,-425.42C1294.43,-408.24 1307.43,-378.89 1293.98,-358 1285.4,-344.66 1248.84,-329.64 1219.99,-319.47"/>
<polygon fill="midnightblue" stroke="midnightblue" points="1220.76,-316.03 1210.16,-316.09 1218.48,-322.65 1220.76,-316.03"/>
</g>
<!-- Node46&#45;&gt;Node10 -->
<g id="edge60" class="edge">
<title>Node46&#45;&gt;Node10</title>
<path fill="none" stroke="midnightblue" d="M1334.27,-436.72C1466.91,-429.1 1780.72,-402.72 1840.98,-322 1849.22,-310.96 1850.05,-301.37 1840.98,-291 1804.44,-249.19 1638.12,-244.68 1555.23,-245.11"/>
<polygon fill="midnightblue" stroke="midnightblue" points="1555.04,-241.61 1545.07,-245.19 1555.09,-248.61 1555.04,-241.61"/>
</g>
<!-- Node46&#45;&gt;Node13 -->
<g id="edge62" class="edge">
<title>Node46&#45;&gt;Node13</title>
<path fill="none" stroke="midnightblue" d="M1215.93,-436.34C1124.63,-430.78 943.95,-417.07 792.98,-389 740.94,-379.32 730.03,-367.66 677.98,-358 529.66,-330.48 352.88,-316.83 258.76,-311.05"/>
<polygon fill="midnightblue" stroke="midnightblue" points="258.72,-307.54 248.52,-310.44 258.3,-314.53 258.72,-307.54"/>
</g>
<!-- Node46&#45;&gt;Node20 -->
<g id="edge55" class="edge">
<title>Node46&#45;&gt;Node20</title>
<path fill="none" stroke="midnightblue" d="M1315.1,-425.39C1332.97,-417.26 1352.88,-405.36 1365.98,-389 1389.58,-359.53 1389.98,-345.26 1389.98,-307.5 1389.98,-307.5 1389.98,-307.5 1389.98,-188 1389.98,-152.58 1393.08,-134.81 1365.98,-112 1321.84,-74.83 1146.68,-68.25 1070.12,-67.16"/>
<polygon fill="midnightblue" stroke="midnightblue" points="1070.03,-63.66 1059.99,-67.05 1069.95,-70.66 1070.03,-63.66"/>
</g>
<!-- Node46&#45;&gt;Node23 -->
<g id="edge58" class="edge">
<title>Node46&#45;&gt;Node23</title>
<path fill="none" stroke="midnightblue" d="M1326.39,-425.47C1347.81,-417.56 1371.66,-405.81 1388.98,-389 1417.79,-361.02 1427.98,-347.66 1427.98,-307.5 1427.98,-307.5 1427.98,-307.5 1427.98,-126.5 1427.98,-58.75 1196.52,-25.66 1102.24,-14.99"/>
<polygon fill="midnightblue" stroke="midnightblue" points="1102.56,-11.51 1092.23,-13.89 1101.79,-18.46 1102.56,-11.51"/>
</g>
<!-- Node46&#45;&gt;Node35 -->
<g id="edge57" class="edge">
<title>Node46&#45;&gt;Node35</title>
<path fill="none" stroke="midnightblue" d="M1215.85,-437.73C1108.97,-433.82 876.84,-421.97 683.98,-389 678.47,-388.06 672.72,-386.84 667.08,-385.51"/>
<polygon fill="midnightblue" stroke="midnightblue" points="667.68,-382.06 657.13,-383.04 665.99,-388.85 667.68,-382.06"/>
</g>
<!-- Node47 -->
<g id="node43" class="node">
<title>Node47</title>
<g id="a_node43"><a xlink:title=" ">
<polygon fill="white" stroke="#bfbfbf" points="1113.98,-364 1113.98,-383 1169.98,-383 1169.98,-364 1113.98,-364"/>
<text text-anchor="middle" x="1141.98" y="-371" font-family="Helvetica,sans-Serif" font-size="10.00">algorithm</text>
</a>
</g>
</g>
<!-- Node46&#45;&gt;Node47 -->
<g id="edge54" class="edge">
<title>Node46&#45;&gt;Node47</title>
<path fill="none" stroke="midnightblue" d="M1246.12,-425.4C1223.09,-414.14 1191.09,-398.5 1168.66,-387.54"/>
<polygon fill="midnightblue" stroke="midnightblue" points="1169.91,-384.25 1159.39,-383.01 1166.83,-390.54 1169.91,-384.25"/>
</g>
<!-- Node48 -->
<g id="node44" class="node">
<title>Node48</title>
<g id="a_node44"><a xlink:title=" ">
<polygon fill="white" stroke="#bfbfbf" points="1188.48,-364 1188.48,-383 1285.48,-383 1285.48,-364 1188.48,-364"/>
<text text-anchor="middle" x="1236.98" y="-371" font-family="Helvetica,sans-Serif" font-size="10.00">glm/geometric.hpp</text>
</a>
</g>
</g>
<!-- Node46&#45;&gt;Node48 -->
<g id="edge61" class="edge">
<title>Node46&#45;&gt;Node48</title>
<path fill="none" stroke="midnightblue" d="M1266.73,-425.4C1260.99,-415.56 1253.28,-402.38 1247.15,-391.89"/>
<polygon fill="midnightblue" stroke="midnightblue" points="1250.13,-390.06 1242.06,-383.19 1244.09,-393.59 1250.13,-390.06"/>
</g>
<!-- Node49 -->
<g id="node45" class="node">
<title>Node49</title>
<g id="a_node45"><a xlink:href="_sphere_8hpp.html" target="_top" xlink:title=" ">
<polygon fill="white" stroke="black" points="1456.48,-364 1456.48,-383 1605.48,-383 1605.48,-364 1456.48,-364"/>
<text text-anchor="middle" x="1530.98" y="-371" font-family="Helvetica,sans-Serif" font-size="10.00">kryne&#45;engine/Math/Sphere.hpp</text>
</a>
</g>
</g>
<!-- Node46&#45;&gt;Node49 -->
<g id="edge63" class="edge">
<title>Node46&#45;&gt;Node49</title>
<path fill="none" stroke="midnightblue" d="M1330.21,-425.48C1377.3,-413.52 1444.05,-396.57 1487.43,-385.56"/>
<polygon fill="midnightblue" stroke="midnightblue" points="1488.56,-388.88 1497.39,-383.03 1486.84,-382.1 1488.56,-388.88"/>
</g>
<!-- Node54 -->
<g id="node49" class="node">
<title>Node54</title>
<g id="a_node49"><a xlink:href="_buffer_attribute_8h.html" target="_top" xlink:title=" ">
<polygon fill="white" stroke="black" points="801.98,-364 801.98,-383 887.98,-383 887.98,-364 801.98,-364"/>
<text text-anchor="middle" x="844.98" y="-371" font-family="Helvetica,sans-Serif" font-size="10.00">BufferAttribute.h</text>
</a>
</g>
</g>
<!-- Node46&#45;&gt;Node54 -->
<g id="edge69" class="edge">
<title>Node46&#45;&gt;Node54</title>
<path fill="none" stroke="midnightblue" d="M1215.68,-430.92C1147.8,-421.04 1033.32,-404.22 934.98,-389 923.01,-387.15 910.14,-385.1 898,-383.15"/>
<polygon fill="midnightblue" stroke="midnightblue" points="898.42,-379.68 888,-381.54 897.31,-386.59 898.42,-379.68"/>
</g>
<!-- Node49&#45;&gt;Node36 -->
<g id="edge64" class="edge">
<title>Node49&#45;&gt;Node36</title>
<path fill="none" stroke="midnightblue" d="M1498.04,-363.94C1453.26,-352.29 1373.11,-331.45 1323.74,-318.62"/>
<polygon fill="midnightblue" stroke="midnightblue" points="1324.55,-315.21 1313.99,-316.08 1322.79,-321.99 1324.55,-315.21"/>
</g>
<!-- Node50 -->
<g id="node46" class="node">
<title>Node50</title>
<g id="a_node46"><a xlink:title=" ">
<polygon fill="white" stroke="#bfbfbf" points="1739.98,-297 1739.98,-316 1831.98,-316 1831.98,-297 1739.98,-297"/>
<text text-anchor="middle" x="1785.98" y="-304" font-family="Helvetica,sans-Serif" font-size="10.00">glm/gtx/norm.hpp</text>
</a>
</g>
</g>
<!-- Node49&#45;&gt;Node50 -->
<g id="edge65" class="edge">
<title>Node49&#45;&gt;Node50</title>
<path fill="none" stroke="midnightblue" d="M1565.34,-363.94C1605.2,-353.98 1672.9,-336.99 1730.98,-322 1735.12,-320.93 1739.44,-319.81 1743.75,-318.68"/>
<polygon fill="midnightblue" stroke="midnightblue" points="1744.93,-321.99 1753.71,-316.07 1743.15,-315.22 1744.93,-321.99"/>
</g>
<!-- Node51 -->
<g id="node47" class="node">
<title>Node51</title>
<g id="a_node47"><a xlink:title=" ">
<polygon fill="white" stroke="#bfbfbf" points="1578.48,-297 1578.48,-316 1721.48,-316 1721.48,-297 1578.48,-297"/>
<text text-anchor="middle" x="1649.98" y="-304" font-family="Helvetica,sans-Serif" font-size="10.00">glm/gtx/component_wise.hpp</text>
</a>
</g>
</g>
<!-- Node49&#45;&gt;Node51 -->
<g id="edge66" class="edge">
<title>Node49&#45;&gt;Node51</title>
<path fill="none" stroke="midnightblue" d="M1547.03,-363.73C1567.1,-352.77 1601.68,-333.88 1625.17,-321.05"/>
<polygon fill="midnightblue" stroke="midnightblue" points="1627.09,-323.99 1634.19,-316.13 1623.73,-317.85 1627.09,-323.99"/>
</g>
<!-- Node52 -->
<g id="node48" class="node">
<title>Node52</title>
<g id="a_node48"><a xlink:href="_axis_aligned_box_8hpp.html" target="_top" xlink:title=" ">
<polygon fill="white" stroke="red" points="1455.98,-297 1455.98,-316 1559.98,-316 1559.98,-297 1455.98,-297"/>
<text text-anchor="middle" x="1507.98" y="-304" font-family="Helvetica,sans-Serif" font-size="10.00">AxisAlignedBox.hpp</text>
</a>
</g>
</g>
<!-- Node49&#45;&gt;Node52 -->
<g id="edge67" class="edge">
<title>Node49&#45;&gt;Node52</title>
<path fill="none" stroke="midnightblue" d="M1527.88,-363.73C1524.46,-354.09 1518.88,-338.3 1514.49,-325.91"/>
<polygon fill="midnightblue" stroke="midnightblue" points="1517.67,-324.39 1511.03,-316.13 1511.07,-326.72 1517.67,-324.39"/>
</g>
<!-- Node52&#45;&gt;Node10 -->
<g id="edge68" class="edge">
<title>Node52&#45;&gt;Node10</title>
<path fill="none" stroke="midnightblue" d="M1507.98,-296.98C1507.98,-288.58 1507.98,-275.48 1507.98,-264.66"/>
<polygon fill="midnightblue" stroke="midnightblue" points="1511.48,-264.51 1507.98,-254.51 1504.48,-264.51 1511.48,-264.51"/>
</g>
<!-- Node54&#45;&gt;Node5 -->
<g id="edge71" class="edge">
<title>Node54&#45;&gt;Node5</title>
<path fill="none" stroke="midnightblue" d="M801.95,-365.86C785.68,-363.37 766.98,-360.53 749.98,-358 639.82,-341.6 608.47,-354.62 501.98,-322 500.31,-321.49 498.61,-320.89 496.92,-320.25"/>
<polygon fill="midnightblue" stroke="midnightblue" points="498.06,-316.92 487.49,-316.11 495.25,-323.33 498.06,-316.92"/>
</g>
<!-- Node54&#45;&gt;Node11 -->
<g id="edge72" class="edge">
<title>Node54&#45;&gt;Node11</title>
<path fill="none" stroke="midnightblue" d="M811.53,-363.97C803.8,-362 795.6,-359.92 787.98,-358 724.01,-341.87 707.15,-341.02 643.98,-322 641.2,-321.16 638.33,-320.25 635.46,-319.3"/>
<polygon fill="midnightblue" stroke="midnightblue" points="636.43,-315.94 625.84,-316.02 634.17,-322.56 636.43,-315.94"/>
</g>
<!-- Node54&#45;&gt;Node12 -->
<g id="edge73" class="edge">
<title>Node54&#45;&gt;Node12</title>
<path fill="none" stroke="midnightblue" d="M824.66,-363.87C798.26,-352.65 751.95,-332.98 721.62,-320.09"/>
<polygon fill="midnightblue" stroke="midnightblue" points="722.95,-316.86 712.38,-316.17 720.22,-323.3 722.95,-316.86"/>
</g>
<!-- Node44 -->
<g id="node50" class="node">
<title>Node44</title>
<g id="a_node50"><a xlink:title=" ">
<polygon fill="white" stroke="#bfbfbf" points="510.98,-297 510.98,-316 552.98,-316 552.98,-297 510.98,-297"/>
<text text-anchor="middle" x="531.98" y="-304" font-family="Helvetica,sans-Serif" font-size="10.00">vector</text>
</a>
</g>
</g>
<!-- Node54&#45;&gt;Node44 -->
<g id="edge70" class="edge">
<title>Node54&#45;&gt;Node44</title>
<path fill="none" stroke="midnightblue" d="M801.87,-365.48C728.35,-353.39 584.44,-329.28 561.98,-322 560.32,-321.46 558.63,-320.85 556.94,-320.18"/>
<polygon fill="midnightblue" stroke="midnightblue" points="558.09,-316.86 547.53,-316.01 555.25,-323.26 558.09,-316.86"/>
</g>
</g>
</svg>
