<?xml version="1.0" encoding="UTF-8" standalone="no"?>
<!DOCTYPE svg PUBLIC "-//W3C//DTD SVG 1.1//EN"
 "http://www.w3.org/Graphics/SVG/1.1/DTD/svg11.dtd">
<!-- Generated by graphviz version 2.40.1 (20161225.0304)
 -->
<!-- Title: kryne&#45;engine/include/kryne&#45;engine/3DObjects/Mesh.h Pages: 1 -->
<svg width="432pt" height="195pt"
 viewBox="0.00 0.00 432.00 195.00" xmlns="http://www.w3.org/2000/svg" xmlns:xlink="http://www.w3.org/1999/xlink">
<g id="graph0" class="graph" transform="scale(1 1) rotate(0) translate(4 191)">
<title>kryne&#45;engine/include/kryne&#45;engine/3DObjects/Mesh.h</title>
<polygon fill="#ffffff" stroke="transparent" points="-4,4 -4,-191 428,-191 428,4 -4,4"/>
<!-- Node98 -->
<g id="node1" class="node">
<title>Node98</title>
<polygon fill="#bfbfbf" stroke="#000000" points="144.5,-145.5 144.5,-186.5 269.5,-186.5 269.5,-145.5 144.5,-145.5"/>
<text text-anchor="start" x="152.5" y="-174.5" font-family="Helvetica,sans-Serif" font-size="10.00" fill="#000000">kryne&#45;engine/include</text>
<text text-anchor="start" x="152.5" y="-163.5" font-family="Helvetica,sans-Serif" font-size="10.00" fill="#000000">/kryne&#45;engine/3DObjects</text>
<text text-anchor="middle" x="207" y="-152.5" font-family="Helvetica,sans-Serif" font-size="10.00" fill="#000000">/Mesh.h</text>
</g>
<!-- Node99 -->
<g id="node2" class="node">
<title>Node99</title>
<g id="a_node2"><a xlink:href="3_d_objects_8h.html" target="_top" xlink:title="kryne&#45;engine/include\l/KEModules/3DObjects.h">
<polygon fill="#ffffff" stroke="#000000" points="0,-73 0,-103 128,-103 128,-73 0,-73"/>
<text text-anchor="start" x="8" y="-91" font-family="Helvetica,sans-Serif" font-size="10.00" fill="#000000">kryne&#45;engine/include</text>
<text text-anchor="middle" x="64" y="-80" font-family="Helvetica,sans-Serif" font-size="10.00" fill="#000000">/KEModules/3DObjects.h</text>
</a>
</g>
</g>
<!-- Node98&#45;&gt;Node99 -->
<g id="edge1" class="edge">
<title>Node98&#45;&gt;Node99</title>
<path fill="none" stroke="#191970" d="M160.251,-140.5005C137.5792,-128.1341 111.1198,-113.7017 91.687,-103.102"/>
<polygon fill="#191970" stroke="#191970" points="158.5991,-143.5863 169.0541,-145.3022 161.9511,-137.441 158.5991,-143.5863"/>
</g>
<!-- Node100 -->
<g id="node3" class="node">
<title>Node100</title>
<g id="a_node3"><a xlink:href="_renderer_8h.html" target="_top" xlink:title="kryne&#45;engine/include\l/kryne&#45;engine/Rendering\l/Renderer.h">
<polygon fill="#ffffff" stroke="#000000" points="146,-67.5 146,-108.5 268,-108.5 268,-67.5 146,-67.5"/>
<text text-anchor="start" x="154" y="-96.5" font-family="Helvetica,sans-Serif" font-size="10.00" fill="#000000">kryne&#45;engine/include</text>
<text text-anchor="start" x="154" y="-85.5" font-family="Helvetica,sans-Serif" font-size="10.00" fill="#000000">/kryne&#45;engine/Rendering</text>
<text text-anchor="middle" x="207" y="-74.5" font-family="Helvetica,sans-Serif" font-size="10.00" fill="#000000">/Renderer.h</text>
</a>
</g>
</g>
<!-- Node98&#45;&gt;Node100 -->
<g id="edge2" class="edge">
<title>Node98&#45;&gt;Node100</title>
<path fill="none" stroke="#191970" d="M207,-135.0789C207,-126.2178 207,-116.7747 207,-108.6898"/>
<polygon fill="#191970" stroke="#191970" points="203.5001,-135.0974 207,-145.0974 210.5001,-135.0975 203.5001,-135.0974"/>
</g>
<!-- Node103 -->
<g id="node6" class="node">
<title>Node103</title>
<g id="a_node6"><a xlink:href="_mesh_8cpp.html" target="_top" xlink:title="kryne&#45;engine/src/3DObjects\l/Mesh.cpp">
<polygon fill="#ffffff" stroke="#000000" points="286,-73 286,-103 424,-103 424,-73 286,-73"/>
<text text-anchor="start" x="294" y="-91" font-family="Helvetica,sans-Serif" font-size="10.00" fill="#000000">kryne&#45;engine/src/3DObjects</text>
<text text-anchor="middle" x="355" y="-80" font-family="Helvetica,sans-Serif" font-size="10.00" fill="#000000">/Mesh.cpp</text>
</a>
</g>
</g>
<!-- Node98&#45;&gt;Node103 -->
<g id="edge5" class="edge">
<title>Node98&#45;&gt;Node103</title>
<path fill="none" stroke="#191970" d="M255.3836,-140.5005C278.8481,-128.1341 306.2326,-113.7017 326.3449,-103.102"/>
<polygon fill="#191970" stroke="#191970" points="253.4875,-137.5435 246.2727,-145.3022 256.7512,-143.7361 253.4875,-137.5435"/>
</g>
<!-- Node101 -->
<g id="node4" class="node">
<title>Node101</title>
<g id="a_node4"><a xlink:href="_rendering_8h.html" target="_top" xlink:title="kryne&#45;engine/include\l/KEModules/Rendering.h">
<polygon fill="#ffffff" stroke="#000000" points="69.5,-.5 69.5,-30.5 194.5,-30.5 194.5,-.5 69.5,-.5"/>
<text text-anchor="start" x="77.5" y="-18.5" font-family="Helvetica,sans-Serif" font-size="10.00" fill="#000000">kryne&#45;engine/include</text>
<text text-anchor="middle" x="132" y="-7.5" font-family="Helvetica,sans-Serif" font-size="10.00" fill="#000000">/KEModules/Rendering.h</text>
</a>
</g>
</g>
<!-- Node100&#45;&gt;Node101 -->
<g id="edge3" class="edge">
<title>Node100&#45;&gt;Node101</title>
<path fill="none" stroke="#191970" d="M178.3329,-60.2885C167.9005,-50.2038 156.501,-39.1843 147.6198,-30.5991"/>
<polygon fill="#191970" stroke="#191970" points="176.0861,-62.9846 185.7086,-67.4183 180.9513,-57.9516 176.0861,-62.9846"/>
</g>
<!-- Node102 -->
<g id="node5" class="node">
<title>Node102</title>
<g id="a_node5"><a xlink:href="_renderer_8cpp.html" target="_top" xlink:title="kryne&#45;engine/src/Rendering\l/Renderer.cpp">
<polygon fill="#ffffff" stroke="#000000" points="213,-.5 213,-30.5 349,-30.5 349,-.5 213,-.5"/>
<text text-anchor="start" x="221" y="-18.5" font-family="Helvetica,sans-Serif" font-size="10.00" fill="#000000">kryne&#45;engine/src/Rendering</text>
<text text-anchor="middle" x="281" y="-7.5" font-family="Helvetica,sans-Serif" font-size="10.00" fill="#000000">/Renderer.cpp</text>
</a>
</g>
</g>
<!-- Node100&#45;&gt;Node102 -->
<g id="edge4" class="edge">
<title>Node100&#45;&gt;Node102</title>
<path fill="none" stroke="#191970" d="M235.2848,-60.2885C245.5782,-50.2038 256.8257,-39.1843 265.5885,-30.5991"/>
<polygon fill="#191970" stroke="#191970" points="232.7012,-57.9199 228.0075,-67.4183 237.6,-62.9201 232.7012,-57.9199"/>
</g>
</g>
</svg>
