<?xml version="1.0" encoding="UTF-8" standalone="no"?>
<!DOCTYPE svg PUBLIC "-//W3C//DTD SVG 1.1//EN"
 "http://www.w3.org/Graphics/SVG/1.1/DTD/svg11.dtd">
<!-- Generated by graphviz version 2.44.1 (20200629.0846)
 -->
<!-- Title: kryne&#45;engine/include/kryne&#45;engine/3DObjects/Model/ModelLoader.h Pages: 1 -->
<svg width="1685pt" height="352pt"
 viewBox="0.00 0.00 1684.50 352.00" xmlns="http://www.w3.org/2000/svg" xmlns:xlink="http://www.w3.org/1999/xlink">
<g id="graph0" class="graph" transform="scale(1 1) rotate(0) translate(4 348)">
<title>kryne&#45;engine/include/kryne&#45;engine/3DObjects/Model/ModelLoader.h</title>
<polygon fill="white" stroke="transparent" points="-4,4 -4,-348 1680.5,-348 1680.5,4 -4,4"/>
<!-- Node1 -->
<g id="node1" class="node">
<title>Node1</title>
<g id="a_node1"><a xlink:title=" ">
<polygon fill="#bfbfbf" stroke="black" points="1103,-302.5 1103,-343.5 1227,-343.5 1227,-302.5 1103,-302.5"/>
<text text-anchor="start" x="1111" y="-331.5" font-family="Helvetica,sans-Serif" font-size="10.00">kryne&#45;engine/include</text>
<text text-anchor="start" x="1111" y="-320.5" font-family="Helvetica,sans-Serif" font-size="10.00">/kryne&#45;engine/3DObjects</text>
<text text-anchor="middle" x="1165" y="-309.5" font-family="Helvetica,sans-Serif" font-size="10.00">/Model/ModelLoader.h</text>
</a>
</g>
</g>
<!-- Node2 -->
<g id="node2" class="node">
<title>Node2</title>
<g id="a_node2"><a xlink:title=" ">
<polygon fill="white" stroke="#bfbfbf" points="698,-56.5 698,-75.5 740,-75.5 740,-56.5 698,-56.5"/>
<text text-anchor="middle" x="719" y="-63.5" font-family="Helvetica,sans-Serif" font-size="10.00">vector</text>
</a>
</g>
</g>
<!-- Node1&#45;&gt;Node2 -->
<g id="edge1" class="edge">
<title>Node1&#45;&gt;Node2</title>
<path fill="none" stroke="midnightblue" d="M1102.74,-319.2C1005.3,-312.41 813.53,-289.2 674,-210 628.76,-184.32 581.07,-155.24 610,-112 619.06,-98.45 659.02,-84.35 687.93,-75.62"/>
<polygon fill="midnightblue" stroke="midnightblue" points="689.03,-78.95 697.63,-72.77 687.05,-72.23 689.03,-78.95"/>
</g>
<!-- Node3 -->
<g id="node3" class="node">
<title>Node3</title>
<g id="a_node3"><a xlink:title=" ">
<polygon fill="white" stroke="#bfbfbf" points="808.5,-56.5 808.5,-75.5 843.5,-75.5 843.5,-56.5 808.5,-56.5"/>
<text text-anchor="middle" x="826" y="-63.5" font-family="Helvetica,sans-Serif" font-size="10.00">map</text>
</a>
</g>
</g>
<!-- Node1&#45;&gt;Node3 -->
<g id="edge2" class="edge">
<title>Node1&#45;&gt;Node3</title>
<path fill="none" stroke="midnightblue" d="M1102.85,-304.51C1045.59,-286.55 959.92,-254.86 895,-210 861.37,-186.76 848.54,-180.38 832,-143 823.98,-124.89 823.29,-101.97 824.1,-86.07"/>
<polygon fill="midnightblue" stroke="midnightblue" points="827.6,-86.13 824.87,-75.89 820.62,-85.6 827.6,-86.13"/>
</g>
<!-- Node4 -->
<g id="node4" class="node">
<title>Node4</title>
<g id="a_node4"><a xlink:title=" ">
<polygon fill="white" stroke="#bfbfbf" points="1241.5,-0.5 1241.5,-19.5 1282.5,-19.5 1282.5,-0.5 1241.5,-0.5"/>
<text text-anchor="middle" x="1262" y="-7.5" font-family="Helvetica,sans-Serif" font-size="10.00">string</text>
</a>
</g>
</g>
<!-- Node1&#45;&gt;Node4 -->
<g id="edge3" class="edge">
<title>Node1&#45;&gt;Node4</title>
<path fill="none" stroke="midnightblue" d="M1227.01,-316.89C1300.18,-307.07 1412,-278.49 1412,-195.5 1412,-195.5 1412,-195.5 1412,-126.5 1412,-66.58 1335.94,-33.43 1292.14,-19.31"/>
<polygon fill="midnightblue" stroke="midnightblue" points="1293.13,-15.95 1282.54,-16.35 1291.07,-22.64 1293.13,-15.95"/>
</g>
<!-- Node5 -->
<g id="node5" class="node">
<title>Node5</title>
<g id="a_node5"><a xlink:title=" ">
<polygon fill="white" stroke="#bfbfbf" points="1440.5,-246.5 1440.5,-265.5 1545.5,-265.5 1545.5,-246.5 1440.5,-246.5"/>
<text text-anchor="middle" x="1493" y="-253.5" font-family="Helvetica,sans-Serif" font-size="10.00">assimp/Importer.hpp</text>
</a>
</g>
</g>
<!-- Node1&#45;&gt;Node5 -->
<g id="edge4" class="edge">
<title>Node1&#45;&gt;Node5</title>
<path fill="none" stroke="midnightblue" d="M1227.08,-309.7C1288.58,-297.51 1381.75,-279.05 1439.91,-267.52"/>
<polygon fill="midnightblue" stroke="midnightblue" points="1440.86,-270.9 1449.99,-265.52 1439.5,-264.03 1440.86,-270.9"/>
</g>
<!-- Node6 -->
<g id="node6" class="node">
<title>Node6</title>
<g id="a_node6"><a xlink:title=" ">
<polygon fill="white" stroke="#bfbfbf" points="1298,-185 1298,-204 1384,-204 1384,-185 1298,-185"/>
<text text-anchor="middle" x="1341" y="-192" font-family="Helvetica,sans-Serif" font-size="10.00">assimp/scene.h</text>
</a>
</g>
</g>
<!-- Node1&#45;&gt;Node6 -->
<g id="edge5" class="edge">
<title>Node1&#45;&gt;Node6</title>
<path fill="none" stroke="midnightblue" d="M1192.5,-302.23C1227.87,-276.81 1288.53,-233.22 1320.26,-210.41"/>
<polygon fill="midnightblue" stroke="midnightblue" points="1322.69,-212.97 1328.76,-204.29 1318.6,-207.29 1322.69,-212.97"/>
</g>
<!-- Node7 -->
<g id="node7" class="node">
<title>Node7</title>
<g id="a_node7"><a xlink:title=" ">
<polygon fill="white" stroke="#bfbfbf" points="1563.5,-246.5 1563.5,-265.5 1676.5,-265.5 1676.5,-246.5 1563.5,-246.5"/>
<text text-anchor="middle" x="1620" y="-253.5" font-family="Helvetica,sans-Serif" font-size="10.00">assimp/postprocess.h</text>
</a>
</g>
</g>
<!-- Node1&#45;&gt;Node7 -->
<g id="edge6" class="edge">
<title>Node1&#45;&gt;Node7</title>
<path fill="none" stroke="midnightblue" d="M1227.31,-313.1C1312.76,-300.89 1465.68,-279.05 1553.35,-266.52"/>
<polygon fill="midnightblue" stroke="midnightblue" points="1554.04,-269.96 1563.45,-265.08 1553.05,-263.03 1554.04,-269.96"/>
</g>
<!-- Node8 -->
<g id="node8" class="node">
<title>Node8</title>
<g id="a_node8"><a xlink:href="3_d_objects_2_base_object_8h.html" target="_top" xlink:title=" ">
<polygon fill="white" stroke="black" points="251.5,-179.5 251.5,-209.5 372.5,-209.5 372.5,-179.5 251.5,-179.5"/>
<text text-anchor="start" x="259.5" y="-197.5" font-family="Helvetica,sans-Serif" font-size="10.00">kryne&#45;engine/3DObjects</text>
<text text-anchor="middle" x="312" y="-186.5" font-family="Helvetica,sans-Serif" font-size="10.00">/BaseObject.h</text>
</a>
</g>
</g>
<!-- Node1&#45;&gt;Node8 -->
<g id="edge7" class="edge">
<title>Node1&#45;&gt;Node8</title>
<path fill="none" stroke="midnightblue" d="M1102.56,-320.97C988.53,-318.1 739.42,-307.21 534,-266 471.52,-253.46 401.84,-229.65 357.5,-213.19"/>
<polygon fill="midnightblue" stroke="midnightblue" points="358.48,-209.82 347.89,-209.59 356.03,-216.37 358.48,-209.82"/>
</g>
<!-- Node30 -->
<g id="node30" class="node">
<title>Node30</title>
<g id="a_node30"><a xlink:href="_model_mesh_8h.html" target="_top" xlink:title=" ">
<polygon fill="white" stroke="black" points="1094.5,-246.5 1094.5,-265.5 1169.5,-265.5 1169.5,-246.5 1094.5,-246.5"/>
<text text-anchor="middle" x="1132" y="-253.5" font-family="Helvetica,sans-Serif" font-size="10.00">ModelMesh.h</text>
</a>
</g>
</g>
<!-- Node1&#45;&gt;Node30 -->
<g id="edge41" class="edge">
<title>Node1&#45;&gt;Node30</title>
<path fill="none" stroke="midnightblue" d="M1155.1,-302.5C1150.62,-293.68 1145.37,-283.34 1141.01,-274.74"/>
<polygon fill="midnightblue" stroke="midnightblue" points="1144.04,-272.98 1136.39,-265.65 1137.8,-276.15 1144.04,-272.98"/>
</g>
<!-- Node9 -->
<g id="node9" class="node">
<title>Node9</title>
<g id="a_node9"><a xlink:title=" ">
<polygon fill="white" stroke="#bfbfbf" points="223,-0.5 223,-19.5 287,-19.5 287,-0.5 223,-0.5"/>
<text text-anchor="middle" x="255" y="-7.5" font-family="Helvetica,sans-Serif" font-size="10.00">glad/glad.h</text>
</a>
</g>
</g>
<!-- Node8&#45;&gt;Node9 -->
<g id="edge8" class="edge">
<title>Node8&#45;&gt;Node9</title>
<path fill="none" stroke="midnightblue" d="M302.86,-179.25C292.03,-162.65 273.15,-134.63 255,-112 241.42,-95.07 229.87,-96.23 222,-76 215.3,-58.78 226.98,-40.06 238.25,-27.15"/>
<polygon fill="midnightblue" stroke="midnightblue" points="241.08,-29.25 245.4,-19.58 235.99,-24.44 241.08,-29.25"/>
</g>
<!-- Node10 -->
<g id="node10" class="node">
<title>Node10</title>
<g id="a_node10"><a xlink:title=" ">
<polygon fill="white" stroke="#bfbfbf" points="651,-0.5 651,-19.5 729,-19.5 729,-0.5 651,-0.5"/>
<text text-anchor="middle" x="690" y="-7.5" font-family="Helvetica,sans-Serif" font-size="10.00">GLFW/glfw3.h</text>
</a>
</g>
</g>
<!-- Node8&#45;&gt;Node10 -->
<g id="edge9" class="edge">
<title>Node8&#45;&gt;Node10</title>
<path fill="none" stroke="midnightblue" d="M309.03,-179.42C304.04,-151.51 297.56,-89.02 331,-56 373.72,-13.81 552.85,-9.54 640.83,-10.08"/>
<polygon fill="midnightblue" stroke="midnightblue" points="640.8,-13.58 650.83,-10.16 640.86,-6.58 640.8,-13.58"/>
</g>
<!-- Node11 -->
<g id="node11" class="node">
<title>Node11</title>
<g id="a_node11"><a xlink:title=" ">
<polygon fill="white" stroke="#bfbfbf" points="95,-0.5 95,-19.5 181,-19.5 181,-0.5 95,-0.5"/>
<text text-anchor="middle" x="138" y="-7.5" font-family="Helvetica,sans-Serif" font-size="10.00">glm/mat4x4.hpp</text>
</a>
</g>
</g>
<!-- Node8&#45;&gt;Node11 -->
<g id="edge10" class="edge">
<title>Node8&#45;&gt;Node11</title>
<path fill="none" stroke="midnightblue" d="M251.47,-184.38C205.38,-176.05 147.47,-162.12 133,-143 107.83,-109.75 120.94,-57.12 130.65,-29.43"/>
<polygon fill="midnightblue" stroke="midnightblue" points="134.02,-30.42 134.24,-19.83 127.46,-27.97 134.02,-30.42"/>
</g>
<!-- Node12 -->
<g id="node12" class="node">
<title>Node12</title>
<g id="a_node12"><a xlink:title=" ">
<polygon fill="white" stroke="#bfbfbf" points="0,-118 0,-137 86,-137 86,-118 0,-118"/>
<text text-anchor="middle" x="43" y="-125" font-family="Helvetica,sans-Serif" font-size="10.00">glm/mat3x3.hpp</text>
</a>
</g>
</g>
<!-- Node8&#45;&gt;Node12 -->
<g id="edge11" class="edge">
<title>Node8&#45;&gt;Node12</title>
<path fill="none" stroke="midnightblue" d="M252.09,-179.49C209.6,-169.48 151.25,-155.62 100,-143 95.41,-141.87 90.61,-140.67 85.84,-139.47"/>
<polygon fill="midnightblue" stroke="midnightblue" points="86.69,-136.08 76.13,-137.02 84.97,-142.86 86.69,-136.08"/>
</g>
<!-- Node13 -->
<g id="node13" class="node">
<title>Node13</title>
<g id="a_node13"><a xlink:href="_shader_8h.html" target="_top" xlink:title=" ">
<polygon fill="white" stroke="black" points="864,-112.5 864,-142.5 974,-142.5 974,-112.5 864,-112.5"/>
<text text-anchor="start" x="872" y="-130.5" font-family="Helvetica,sans-Serif" font-size="10.00">kryne&#45;engine/Material</text>
<text text-anchor="middle" x="919" y="-119.5" font-family="Helvetica,sans-Serif" font-size="10.00">/Shader.h</text>
</a>
</g>
</g>
<!-- Node8&#45;&gt;Node13 -->
<g id="edge12" class="edge">
<title>Node8&#45;&gt;Node13</title>
<path fill="none" stroke="midnightblue" d="M372.7,-187C487.5,-174.71 735.51,-148.15 853.74,-135.49"/>
<polygon fill="midnightblue" stroke="midnightblue" points="854.17,-138.96 863.74,-134.42 853.43,-132 854.17,-138.96"/>
</g>
<!-- Node22 -->
<g id="node22" class="node">
<title>Node22</title>
<g id="a_node22"><a xlink:href="_vertex_array_8h.html" target="_top" xlink:title=" ">
<polygon fill="white" stroke="black" points="392.5,-112.5 392.5,-142.5 519.5,-142.5 519.5,-112.5 392.5,-112.5"/>
<text text-anchor="start" x="400.5" y="-130.5" font-family="Helvetica,sans-Serif" font-size="10.00">kryne&#45;engine/Core/Vertex</text>
<text text-anchor="middle" x="456" y="-119.5" font-family="Helvetica,sans-Serif" font-size="10.00">Array.h</text>
</a>
</g>
</g>
<!-- Node8&#45;&gt;Node22 -->
<g id="edge28" class="edge">
<title>Node8&#45;&gt;Node22</title>
<path fill="none" stroke="midnightblue" d="M343.25,-179.4C364.47,-169.81 392.75,-157.05 415.68,-146.7"/>
<polygon fill="midnightblue" stroke="midnightblue" points="417.14,-149.88 424.82,-142.58 414.26,-143.5 417.14,-149.88"/>
</g>
<!-- Node27 -->
<g id="node27" class="node">
<title>Node27</title>
<g id="a_node27"><a xlink:href="_additional_parameters_8h.html" target="_top" xlink:title=" ">
<polygon fill="white" stroke="black" points="628.5,-112.5 628.5,-142.5 769.5,-142.5 769.5,-112.5 628.5,-112.5"/>
<text text-anchor="start" x="636.5" y="-130.5" font-family="Helvetica,sans-Serif" font-size="10.00">kryne&#45;engine/Core/Additional</text>
<text text-anchor="middle" x="699" y="-119.5" font-family="Helvetica,sans-Serif" font-size="10.00">Parameters.h</text>
</a>
</g>
</g>
<!-- Node8&#45;&gt;Node27 -->
<g id="edge36" class="edge">
<title>Node8&#45;&gt;Node27</title>
<path fill="none" stroke="midnightblue" d="M372.89,-183.27C439.07,-172.16 545.11,-154.35 618.21,-142.07"/>
<polygon fill="midnightblue" stroke="midnightblue" points="619.01,-145.48 628.29,-140.38 617.85,-138.58 619.01,-145.48"/>
</g>
<!-- Node29 -->
<g id="node29" class="node">
<title>Node29</title>
<g id="a_node29"><a xlink:href="enums_2_base_object_8h.html" target="_top" xlink:title=" ">
<polygon fill="white" stroke="black" points="142,-112.5 142,-142.5 246,-142.5 246,-112.5 142,-112.5"/>
<text text-anchor="start" x="150" y="-130.5" font-family="Helvetica,sans-Serif" font-size="10.00">kryne&#45;engine/enums</text>
<text text-anchor="middle" x="194" y="-119.5" font-family="Helvetica,sans-Serif" font-size="10.00">/BaseObject.h</text>
</a>
</g>
</g>
<!-- Node8&#45;&gt;Node29 -->
<g id="edge40" class="edge">
<title>Node8&#45;&gt;Node29</title>
<path fill="none" stroke="midnightblue" d="M286.4,-179.4C269.46,-170.07 247.06,-157.73 228.55,-147.53"/>
<polygon fill="midnightblue" stroke="midnightblue" points="230,-144.34 219.55,-142.58 226.62,-150.47 230,-144.34"/>
</g>
<!-- Node13&#45;&gt;Node3 -->
<g id="edge13" class="edge">
<title>Node13&#45;&gt;Node3</title>
<path fill="none" stroke="midnightblue" d="M896.96,-112.4C882.19,-102.95 862.82,-90.56 848.05,-81.11"/>
<polygon fill="midnightblue" stroke="midnightblue" points="849.84,-78.1 839.53,-75.66 846.07,-84 849.84,-78.1"/>
</g>
<!-- Node14 -->
<g id="node14" class="node">
<title>Node14</title>
<g id="a_node14"><a xlink:title=" ">
<polygon fill="white" stroke="#bfbfbf" points="862,-56.5 862,-75.5 914,-75.5 914,-56.5 862,-56.5"/>
<text text-anchor="middle" x="888" y="-63.5" font-family="Helvetica,sans-Serif" font-size="10.00">sstream</text>
</a>
</g>
</g>
<!-- Node13&#45;&gt;Node14 -->
<g id="edge14" class="edge">
<title>Node13&#45;&gt;Node14</title>
<path fill="none" stroke="midnightblue" d="M911.65,-112.4C907.33,-104.11 901.83,-93.55 897.23,-84.71"/>
<polygon fill="midnightblue" stroke="midnightblue" points="900.24,-82.91 892.51,-75.66 894.03,-86.14 900.24,-82.91"/>
</g>
<!-- Node15 -->
<g id="node15" class="node">
<title>Node15</title>
<g id="a_node15"><a xlink:href="_uniforms_handler_8h.html" target="_top" xlink:title=" ">
<polygon fill="white" stroke="black" points="970,-56.5 970,-75.5 1066,-75.5 1066,-56.5 970,-56.5"/>
<text text-anchor="middle" x="1018" y="-63.5" font-family="Helvetica,sans-Serif" font-size="10.00">UniformsHandler.h</text>
</a>
</g>
</g>
<!-- Node13&#45;&gt;Node15 -->
<g id="edge15" class="edge">
<title>Node13&#45;&gt;Node15</title>
<path fill="none" stroke="midnightblue" d="M942.46,-112.4C958.33,-102.86 979.19,-90.32 994.97,-80.84"/>
<polygon fill="midnightblue" stroke="midnightblue" points="996.83,-83.81 1003.59,-75.66 993.22,-77.81 996.83,-83.81"/>
</g>
<!-- Node19 -->
<g id="node19" class="node">
<title>Node19</title>
<g id="a_node19"><a xlink:href="_shader_chunk_8h.html" target="_top" xlink:title=" ">
<polygon fill="white" stroke="black" points="1084.5,-56.5 1084.5,-75.5 1167.5,-75.5 1167.5,-56.5 1084.5,-56.5"/>
<text text-anchor="middle" x="1126" y="-63.5" font-family="Helvetica,sans-Serif" font-size="10.00">ShaderChunk.h</text>
</a>
</g>
</g>
<!-- Node13&#45;&gt;Node19 -->
<g id="edge23" class="edge">
<title>Node13&#45;&gt;Node19</title>
<path fill="none" stroke="midnightblue" d="M967.79,-112.47C1003.97,-102.08 1052.67,-88.08 1086.44,-78.37"/>
<polygon fill="midnightblue" stroke="midnightblue" points="1087.76,-81.63 1096.41,-75.51 1085.83,-74.91 1087.76,-81.63"/>
</g>
<!-- Node15&#45;&gt;Node4 -->
<g id="edge16" class="edge">
<title>Node15&#45;&gt;Node4</title>
<path fill="none" stroke="midnightblue" d="M1064.18,-56.46C1105.57,-48.54 1168.13,-35.92 1231.62,-19.92"/>
<polygon fill="midnightblue" stroke="midnightblue" points="1232.58,-23.29 1241.41,-17.43 1230.85,-16.5 1232.58,-23.29"/>
</g>
<!-- Node15&#45;&gt;Node9 -->
<g id="edge18" class="edge">
<title>Node15&#45;&gt;Node9</title>
<path fill="none" stroke="midnightblue" d="M969.69,-60.17C954.73,-58.74 938.19,-57.23 923,-56 686.66,-36.85 402.81,-19.64 297.24,-13.45"/>
<polygon fill="midnightblue" stroke="midnightblue" points="297.19,-9.94 287,-12.85 296.78,-16.92 297.19,-9.94"/>
</g>
<!-- Node15&#45;&gt;Node10 -->
<g id="edge19" class="edge">
<title>Node15&#45;&gt;Node10</title>
<path fill="none" stroke="midnightblue" d="M969.95,-57.09C908.26,-46.93 801.75,-29.4 739.41,-19.13"/>
<polygon fill="midnightblue" stroke="midnightblue" points="739.86,-15.66 729.42,-17.49 738.72,-22.57 739.86,-15.66"/>
</g>
<!-- Node15&#45;&gt;Node11 -->
<g id="edge20" class="edge">
<title>Node15&#45;&gt;Node11</title>
<path fill="none" stroke="midnightblue" d="M969.71,-60.01C954.75,-58.58 938.2,-57.11 923,-56 608.31,-33.12 528.4,-46.57 214,-20 206.72,-19.38 199.06,-18.62 191.52,-17.79"/>
<polygon fill="midnightblue" stroke="midnightblue" points="191.68,-14.29 181.35,-16.64 190.9,-21.25 191.68,-14.29"/>
</g>
<!-- Node16 -->
<g id="node16" class="node">
<title>Node16</title>
<g id="a_node16"><a xlink:title=" ">
<polygon fill="white" stroke="#bfbfbf" points="1000.5,-0.5 1000.5,-19.5 1083.5,-19.5 1083.5,-0.5 1000.5,-0.5"/>
<text text-anchor="middle" x="1042" y="-7.5" font-family="Helvetica,sans-Serif" font-size="10.00">unordered_map</text>
</a>
</g>
</g>
<!-- Node15&#45;&gt;Node16 -->
<g id="edge17" class="edge">
<title>Node15&#45;&gt;Node16</title>
<path fill="none" stroke="midnightblue" d="M1021.96,-56.08C1025.21,-48.77 1029.92,-38.18 1033.95,-29.1"/>
<polygon fill="midnightblue" stroke="midnightblue" points="1037.25,-30.31 1038.11,-19.75 1030.85,-27.47 1037.25,-30.31"/>
</g>
<!-- Node17 -->
<g id="node17" class="node">
<title>Node17</title>
<g id="a_node17"><a xlink:title=" ">
<polygon fill="white" stroke="#bfbfbf" points="876,-0.5 876,-19.5 982,-19.5 982,-0.5 876,-0.5"/>
<text text-anchor="middle" x="929" y="-7.5" font-family="Helvetica,sans-Serif" font-size="10.00">glm/gtc/type_ptr.hpp</text>
</a>
</g>
</g>
<!-- Node15&#45;&gt;Node17 -->
<g id="edge21" class="edge">
<title>Node15&#45;&gt;Node17</title>
<path fill="none" stroke="midnightblue" d="M1003.7,-56.32C989.82,-47.9 968.51,-34.97 952.2,-25.07"/>
<polygon fill="midnightblue" stroke="midnightblue" points="953.63,-21.85 943.26,-19.65 950,-27.83 953.63,-21.85"/>
</g>
<!-- Node18 -->
<g id="node18" class="node">
<title>Node18</title>
<g id="a_node18"><a xlink:title=" ">
<polygon fill="white" stroke="#bfbfbf" points="768,-0.5 768,-19.5 858,-19.5 858,-0.5 768,-0.5"/>
<text text-anchor="middle" x="813" y="-7.5" font-family="Helvetica,sans-Serif" font-size="10.00">boost/variant.hpp</text>
</a>
</g>
</g>
<!-- Node15&#45;&gt;Node18 -->
<g id="edge22" class="edge">
<title>Node15&#45;&gt;Node18</title>
<path fill="none" stroke="midnightblue" d="M985.52,-56.44C950.28,-47.16 893.9,-32.31 855.24,-22.13"/>
<polygon fill="midnightblue" stroke="midnightblue" points="855.89,-18.68 845.33,-19.52 854.11,-25.45 855.89,-18.68"/>
</g>
<!-- Node19&#45;&gt;Node4 -->
<g id="edge25" class="edge">
<title>Node19&#45;&gt;Node4</title>
<path fill="none" stroke="midnightblue" d="M1147.55,-56.44C1170.3,-47.41 1206.32,-33.11 1231.88,-22.96"/>
<polygon fill="midnightblue" stroke="midnightblue" points="1233.44,-26.11 1241.44,-19.16 1230.86,-19.6 1233.44,-26.11"/>
</g>
<!-- Node19&#45;&gt;Node16 -->
<g id="edge24" class="edge">
<title>Node19&#45;&gt;Node16</title>
<path fill="none" stroke="midnightblue" d="M1112.5,-56.32C1099.4,-47.9 1079.29,-34.97 1063.89,-25.07"/>
<polygon fill="midnightblue" stroke="midnightblue" points="1065.77,-22.12 1055.46,-19.65 1061.98,-28.01 1065.77,-22.12"/>
</g>
<!-- Node20 -->
<g id="node20" class="node">
<title>Node20</title>
<g id="a_node20"><a xlink:title=" ">
<polygon fill="white" stroke="#bfbfbf" points="1101.5,-0.5 1101.5,-19.5 1150.5,-19.5 1150.5,-0.5 1101.5,-0.5"/>
<text text-anchor="middle" x="1126" y="-7.5" font-family="Helvetica,sans-Serif" font-size="10.00">fstream</text>
</a>
</g>
</g>
<!-- Node19&#45;&gt;Node20 -->
<g id="edge26" class="edge">
<title>Node19&#45;&gt;Node20</title>
<path fill="none" stroke="midnightblue" d="M1126,-56.08C1126,-49.01 1126,-38.86 1126,-29.99"/>
<polygon fill="midnightblue" stroke="midnightblue" points="1129.5,-29.75 1126,-19.75 1122.5,-29.75 1129.5,-29.75"/>
</g>
<!-- Node21 -->
<g id="node21" class="node">
<title>Node21</title>
<g id="a_node21"><a xlink:title=" ">
<polygon fill="white" stroke="#bfbfbf" points="1169,-0.5 1169,-19.5 1223,-19.5 1223,-0.5 1169,-0.5"/>
<text text-anchor="middle" x="1196" y="-7.5" font-family="Helvetica,sans-Serif" font-size="10.00">iostream</text>
</a>
</g>
</g>
<!-- Node19&#45;&gt;Node21 -->
<g id="edge27" class="edge">
<title>Node19&#45;&gt;Node21</title>
<path fill="none" stroke="midnightblue" d="M1137.25,-56.32C1147.8,-48.18 1163.8,-35.84 1176.44,-26.09"/>
<polygon fill="midnightblue" stroke="midnightblue" points="1178.77,-28.71 1184.55,-19.83 1174.49,-23.17 1178.77,-28.71"/>
</g>
<!-- Node22&#45;&gt;Node2 -->
<g id="edge29" class="edge">
<title>Node22&#45;&gt;Node2</title>
<path fill="none" stroke="midnightblue" d="M519.52,-113.03C565.33,-103.17 628.6,-89.25 684,-76 685.27,-75.7 686.56,-75.38 687.87,-75.06"/>
<polygon fill="midnightblue" stroke="midnightblue" points="689.08,-78.37 697.93,-72.54 687.38,-71.58 689.08,-78.37"/>
</g>
<!-- Node22&#45;&gt;Node9 -->
<g id="edge32" class="edge">
<title>Node22&#45;&gt;Node9</title>
<path fill="none" stroke="midnightblue" d="M411.24,-112.4C386.64,-103.68 356.11,-91.25 331,-76 307.96,-62.01 284.91,-41.08 270.34,-26.78"/>
<polygon fill="midnightblue" stroke="midnightblue" points="272.72,-24.2 263.17,-19.6 267.76,-29.15 272.72,-24.2"/>
</g>
<!-- Node22&#45;&gt;Node10 -->
<g id="edge33" class="edge">
<title>Node22&#45;&gt;Node10</title>
<path fill="none" stroke="midnightblue" d="M519.58,-112.56C572.28,-100.59 640.25,-84.03 651,-76 666.78,-64.21 677.44,-43.99 683.57,-29.22"/>
<polygon fill="midnightblue" stroke="midnightblue" points="686.93,-30.23 687.24,-19.63 680.4,-27.72 686.93,-30.23"/>
</g>
<!-- Node23 -->
<g id="node23" class="node">
<title>Node23</title>
<g id="a_node23"><a xlink:title=" ">
<polygon fill="white" stroke="#bfbfbf" points="340,-56.5 340,-75.5 392,-75.5 392,-56.5 340,-56.5"/>
<text text-anchor="middle" x="366" y="-63.5" font-family="Helvetica,sans-Serif" font-size="10.00">stdarg.h</text>
</a>
</g>
</g>
<!-- Node22&#45;&gt;Node23 -->
<g id="edge30" class="edge">
<title>Node22&#45;&gt;Node23</title>
<path fill="none" stroke="midnightblue" d="M434.67,-112.4C420.51,-103.04 401.99,-90.79 387.75,-81.38"/>
<polygon fill="midnightblue" stroke="midnightblue" points="389.37,-78.25 379.1,-75.66 385.51,-84.09 389.37,-78.25"/>
</g>
<!-- Node24 -->
<g id="node24" class="node">
<title>Node24</title>
<g id="a_node24"><a xlink:title=" ">
<polygon fill="white" stroke="#bfbfbf" points="410,-56.5 410,-75.5 458,-75.5 458,-56.5 410,-56.5"/>
<text text-anchor="middle" x="434" y="-63.5" font-family="Helvetica,sans-Serif" font-size="10.00">stdlib.h</text>
</a>
</g>
</g>
<!-- Node22&#45;&gt;Node24 -->
<g id="edge31" class="edge">
<title>Node22&#45;&gt;Node24</title>
<path fill="none" stroke="midnightblue" d="M450.79,-112.4C447.79,-104.29 443.99,-94.01 440.76,-85.28"/>
<polygon fill="midnightblue" stroke="midnightblue" points="443.95,-83.82 437.2,-75.66 437.39,-86.25 443.95,-83.82"/>
</g>
<!-- Node25 -->
<g id="node25" class="node">
<title>Node25</title>
<g id="a_node25"><a xlink:title=" ">
<polygon fill="white" stroke="#bfbfbf" points="476,-56.5 476,-75.5 550,-75.5 550,-56.5 476,-56.5"/>
<text text-anchor="middle" x="513" y="-63.5" font-family="Helvetica,sans-Serif" font-size="10.00">glm/vec2.hpp</text>
</a>
</g>
</g>
<!-- Node22&#45;&gt;Node25 -->
<g id="edge34" class="edge">
<title>Node22&#45;&gt;Node25</title>
<path fill="none" stroke="midnightblue" d="M469.51,-112.4C477.96,-103.58 488.88,-92.18 497.66,-83.02"/>
<polygon fill="midnightblue" stroke="midnightblue" points="500.32,-85.3 504.71,-75.66 495.26,-80.46 500.32,-85.3"/>
</g>
<!-- Node26 -->
<g id="node26" class="node">
<title>Node26</title>
<g id="a_node26"><a xlink:title=" ">
<polygon fill="white" stroke="#bfbfbf" points="568,-56.5 568,-75.5 642,-75.5 642,-56.5 568,-56.5"/>
<text text-anchor="middle" x="605" y="-63.5" font-family="Helvetica,sans-Serif" font-size="10.00">glm/vec3.hpp</text>
</a>
</g>
</g>
<!-- Node22&#45;&gt;Node26 -->
<g id="edge35" class="edge">
<title>Node22&#45;&gt;Node26</title>
<path fill="none" stroke="midnightblue" d="M491.31,-112.4C516.42,-102.37 549.84,-89.03 573.94,-79.4"/>
<polygon fill="midnightblue" stroke="midnightblue" points="575.33,-82.62 583.32,-75.66 572.73,-76.12 575.33,-82.62"/>
</g>
<!-- Node27&#45;&gt;Node3 -->
<g id="edge37" class="edge">
<title>Node27&#45;&gt;Node3</title>
<path fill="none" stroke="midnightblue" d="M729.1,-112.4C750.37,-102.43 778.64,-89.19 799.16,-79.58"/>
<polygon fill="midnightblue" stroke="midnightblue" points="800.69,-82.72 808.26,-75.31 797.72,-76.39 800.69,-82.72"/>
</g>
<!-- Node27&#45;&gt;Node4 -->
<g id="edge38" class="edge">
<title>Node27&#45;&gt;Node4</title>
<path fill="none" stroke="midnightblue" d="M769.64,-119.53C900.37,-106.57 1167.64,-79.73 1177,-76 1204.63,-64.99 1230.94,-42.33 1246.78,-26.9"/>
<polygon fill="midnightblue" stroke="midnightblue" points="1249.49,-29.14 1254.06,-19.59 1244.53,-24.2 1249.49,-29.14"/>
</g>
<!-- Node28 -->
<g id="node28" class="node">
<title>Node28</title>
<g id="a_node28"><a xlink:title=" ">
<polygon fill="white" stroke="#bfbfbf" points="758,-56.5 758,-75.5 790,-75.5 790,-56.5 758,-56.5"/>
<text text-anchor="middle" x="774" y="-63.5" font-family="Helvetica,sans-Serif" font-size="10.00">any</text>
</a>
</g>
</g>
<!-- Node27&#45;&gt;Node28 -->
<g id="edge39" class="edge">
<title>Node27&#45;&gt;Node28</title>
<path fill="none" stroke="midnightblue" d="M716.77,-112.4C728.35,-103.22 743.42,-91.26 755.2,-81.92"/>
<polygon fill="midnightblue" stroke="midnightblue" points="757.43,-84.61 763.09,-75.66 753.08,-79.13 757.43,-84.61"/>
</g>
<!-- Node30&#45;&gt;Node2 -->
<g id="edge42" class="edge">
<title>Node30&#45;&gt;Node2</title>
<path fill="none" stroke="midnightblue" d="M1094.45,-252.75C986.47,-245.43 679.09,-218.22 620,-143 611.49,-132.17 612.54,-123.58 620,-112 627.89,-99.75 662.23,-85.92 688.27,-76.87"/>
<polygon fill="midnightblue" stroke="midnightblue" points="689.43,-80.17 697.77,-73.64 687.18,-73.54 689.43,-80.17"/>
</g>
<!-- Node30&#45;&gt;Node3 -->
<g id="edge43" class="edge">
<title>Node30&#45;&gt;Node3</title>
<path fill="none" stroke="midnightblue" d="M1094.42,-249.61C1035.62,-239.26 921.7,-211.27 855,-143 839.76,-127.41 832.36,-102.98 828.88,-86.05"/>
<polygon fill="midnightblue" stroke="midnightblue" points="832.24,-84.96 827.05,-75.72 825.35,-86.18 832.24,-84.96"/>
</g>
<!-- Node30&#45;&gt;Node4 -->
<g id="edge44" class="edge">
<title>Node30&#45;&gt;Node4</title>
<path fill="none" stroke="midnightblue" d="M1155.74,-246.37C1177.61,-238.08 1210.71,-224.68 1238,-210 1243.93,-206.81 1335.82,-148.93 1339,-143 1345.15,-131.53 1342.4,-66.69 1336,-56 1326.22,-39.65 1308,-28.46 1292.08,-21.33"/>
<polygon fill="midnightblue" stroke="midnightblue" points="1293.14,-17.98 1282.56,-17.4 1290.47,-24.45 1293.14,-17.98"/>
</g>
<!-- Node30&#45;&gt;Node6 -->
<g id="edge45" class="edge">
<title>Node30&#45;&gt;Node6</title>
<path fill="none" stroke="midnightblue" d="M1161.94,-246.48C1198.57,-236.05 1260.7,-218.36 1301.28,-206.81"/>
<polygon fill="midnightblue" stroke="midnightblue" points="1302.45,-210.11 1311.11,-204.01 1300.53,-203.38 1302.45,-210.11"/>
</g>
<!-- Node30&#45;&gt;Node22 -->
<g id="edge47" class="edge">
<title>Node30&#45;&gt;Node22</title>
<path fill="none" stroke="midnightblue" d="M1094.15,-253.69C990.02,-249.79 700.97,-236.79 610,-210 563.45,-196.29 514.78,-167.77 484.91,-148.37"/>
<polygon fill="midnightblue" stroke="midnightblue" points="486.55,-145.26 476.27,-142.67 482.69,-151.1 486.55,-145.26"/>
</g>
<!-- Node31 -->
<g id="node31" class="node">
<title>Node31</title>
<g id="a_node31"><a xlink:title=" ">
<polygon fill="white" stroke="#bfbfbf" points="1159,-185 1159,-204 1229,-204 1229,-185 1159,-185"/>
<text text-anchor="middle" x="1194" y="-192" font-family="Helvetica,sans-Serif" font-size="10.00">glm/glm.hpp</text>
</a>
</g>
</g>
<!-- Node30&#45;&gt;Node31 -->
<g id="edge46" class="edge">
<title>Node30&#45;&gt;Node31</title>
<path fill="none" stroke="midnightblue" d="M1140.88,-246.48C1150.46,-237.28 1165.91,-222.46 1177.69,-211.16"/>
<polygon fill="midnightblue" stroke="midnightblue" points="1180.34,-213.46 1185.13,-204.01 1175.49,-208.41 1180.34,-213.46"/>
</g>
<!-- Node32 -->
<g id="node32" class="node">
<title>Node32</title>
<g id="a_node32"><a xlink:href="_texture2_d_8h.html" target="_top" xlink:title=" ">
<polygon fill="white" stroke="black" points="1027.5,-179.5 1027.5,-209.5 1140.5,-209.5 1140.5,-179.5 1027.5,-179.5"/>
<text text-anchor="start" x="1035.5" y="-197.5" font-family="Helvetica,sans-Serif" font-size="10.00">kryne&#45;engine/Textures</text>
<text text-anchor="middle" x="1084" y="-186.5" font-family="Helvetica,sans-Serif" font-size="10.00">/Texture2D.h</text>
</a>
</g>
</g>
<!-- Node30&#45;&gt;Node32 -->
<g id="edge48" class="edge">
<title>Node30&#45;&gt;Node32</title>
<path fill="none" stroke="midnightblue" d="M1125.12,-246.48C1119.05,-238.94 1109.92,-227.63 1101.8,-217.57"/>
<polygon fill="midnightblue" stroke="midnightblue" points="1104.32,-215.11 1095.31,-209.52 1098.87,-219.5 1104.32,-215.11"/>
</g>
<!-- Node32&#45;&gt;Node4 -->
<g id="edge51" class="edge">
<title>Node32&#45;&gt;Node4</title>
<path fill="none" stroke="midnightblue" d="M1103.14,-179.47C1115.99,-169.74 1133.05,-156.2 1147,-143 1187.47,-104.68 1228.97,-53.53 1249.26,-27.59"/>
<polygon fill="midnightblue" stroke="midnightblue" points="1252.15,-29.57 1255.51,-19.53 1246.62,-25.28 1252.15,-29.57"/>
</g>
<!-- Node32&#45;&gt;Node9 -->
<g id="edge54" class="edge">
<title>Node32&#45;&gt;Node9</title>
<path fill="none" stroke="midnightblue" d="M1027.32,-193.79C882.07,-193.84 499.71,-189.41 383,-143 326.79,-120.65 283.66,-59.06 265.05,-28.57"/>
<polygon fill="midnightblue" stroke="midnightblue" points="267.99,-26.67 259.88,-19.85 261.97,-30.24 267.99,-26.67"/>
</g>
<!-- Node32&#45;&gt;Node10 -->
<g id="edge55" class="edge">
<title>Node32&#45;&gt;Node10</title>
<path fill="none" stroke="midnightblue" d="M1066.22,-179.31C1053.74,-169.28 1036.73,-155.46 1022,-143 977.28,-105.16 975.59,-81.79 923,-56 891.33,-40.47 797.8,-25.59 739.32,-17.43"/>
<polygon fill="midnightblue" stroke="midnightblue" points="739.57,-13.93 729.18,-16.03 738.61,-20.86 739.57,-13.93"/>
</g>
<!-- Node32&#45;&gt;Node13 -->
<g id="edge56" class="edge">
<title>Node32&#45;&gt;Node13</title>
<path fill="none" stroke="midnightblue" d="M1048.2,-179.4C1023.55,-169.69 990.61,-156.71 964.16,-146.29"/>
<polygon fill="midnightblue" stroke="midnightblue" points="965.32,-142.99 954.73,-142.58 962.75,-149.5 965.32,-142.99"/>
</g>
<!-- Node32&#45;&gt;Node21 -->
<g id="edge52" class="edge">
<title>Node32&#45;&gt;Node21</title>
<path fill="none" stroke="midnightblue" d="M1140.52,-181.07C1143.73,-180.37 1146.9,-179.67 1150,-179 1224.19,-162.85 1269.3,-202.08 1317,-143 1341.29,-112.92 1339.07,-87.75 1317,-56 1311.92,-48.69 1266.57,-33.13 1232.87,-22.37"/>
<polygon fill="midnightblue" stroke="midnightblue" points="1233.88,-19.02 1223.29,-19.34 1231.76,-25.69 1233.88,-19.02"/>
</g>
<!-- Node33 -->
<g id="node33" class="node">
<title>Node33</title>
<g id="a_node33"><a xlink:href="stb__image_8h.html" target="_top" xlink:title=" ">
<polygon fill="white" stroke="black" points="1194.5,-112.5 1194.5,-142.5 1307.5,-142.5 1307.5,-112.5 1194.5,-112.5"/>
<text text-anchor="start" x="1202.5" y="-130.5" font-family="Helvetica,sans-Serif" font-size="10.00">kryne&#45;engine/Textures</text>
<text text-anchor="middle" x="1251" y="-119.5" font-family="Helvetica,sans-Serif" font-size="10.00">/stb_image.h</text>
</a>
</g>
</g>
<!-- Node32&#45;&gt;Node33 -->
<g id="edge49" class="edge">
<title>Node32&#45;&gt;Node33</title>
<path fill="none" stroke="midnightblue" d="M1120.24,-179.4C1145.18,-169.69 1178.53,-156.71 1205.3,-146.29"/>
<polygon fill="midnightblue" stroke="midnightblue" points="1206.78,-149.47 1214.83,-142.58 1204.25,-142.94 1206.78,-149.47"/>
</g>
<!-- Node35 -->
<g id="node35" class="node">
<title>Node35</title>
<g id="a_node35"><a xlink:title=" ">
<polygon fill="white" stroke="#bfbfbf" points="1030.5,-118 1030.5,-137 1137.5,-137 1137.5,-118 1030.5,-118"/>
<text text-anchor="middle" x="1084" y="-125" font-family="Helvetica,sans-Serif" font-size="10.00">boost/filesystem.hpp</text>
</a>
</g>
</g>
<!-- Node32&#45;&gt;Node35 -->
<g id="edge53" class="edge">
<title>Node32&#45;&gt;Node35</title>
<path fill="none" stroke="midnightblue" d="M1084,-179.4C1084,-170.06 1084,-157.71 1084,-147.52"/>
<polygon fill="midnightblue" stroke="midnightblue" points="1087.5,-147.19 1084,-137.19 1080.5,-147.19 1087.5,-147.19"/>
</g>
<!-- Node34 -->
<g id="node34" class="node">
<title>Node34</title>
<g id="a_node34"><a xlink:title=" ">
<polygon fill="white" stroke="#bfbfbf" points="1262,-56.5 1262,-75.5 1308,-75.5 1308,-56.5 1262,-56.5"/>
<text text-anchor="middle" x="1285" y="-63.5" font-family="Helvetica,sans-Serif" font-size="10.00">stdio.h</text>
</a>
</g>
</g>
<!-- Node33&#45;&gt;Node34 -->
<g id="edge50" class="edge">
<title>Node33&#45;&gt;Node34</title>
<path fill="none" stroke="midnightblue" d="M1259.06,-112.4C1263.85,-104.02 1269.96,-93.33 1275.04,-84.42"/>
<polygon fill="midnightblue" stroke="midnightblue" points="1278.13,-86.08 1280.05,-75.66 1272.05,-82.6 1278.13,-86.08"/>
</g>
</g>
</svg>
