<?xml version="1.0" encoding="UTF-8" standalone="no"?>
<!DOCTYPE svg PUBLIC "-//W3C//DTD SVG 1.1//EN"
 "http://www.w3.org/Graphics/SVG/1.1/DTD/svg11.dtd">
<!-- Generated by graphviz version 2.44.1 (20200629.0846)
 -->
<!-- Title: kryne&#45;engine/src/3DObjects/Model/ModelMesh.cpp Pages: 1 -->
<svg width="893pt" height="296pt"
 viewBox="0.00 0.00 892.50 296.00" xmlns="http://www.w3.org/2000/svg" xmlns:xlink="http://www.w3.org/1999/xlink">
<g id="graph0" class="graph" transform="scale(1 1) rotate(0) translate(4 292)">
<title>kryne&#45;engine/src/3DObjects/Model/ModelMesh.cpp</title>
<polygon fill="white" stroke="transparent" points="-4,4 -4,-292 888.5,-292 888.5,4 -4,4"/>
<!-- Node1 -->
<g id="node1" class="node">
<title>Node1</title>
<g id="a_node1"><a xlink:title=" ">
<polygon fill="#bfbfbf" stroke="black" points="505.5,-257.5 505.5,-287.5 642.5,-287.5 642.5,-257.5 505.5,-257.5"/>
<text text-anchor="start" x="513.5" y="-275.5" font-family="Helvetica,sans-Serif" font-size="10.00">kryne&#45;engine/src/3DObjects</text>
<text text-anchor="middle" x="574" y="-264.5" font-family="Helvetica,sans-Serif" font-size="10.00">/Model/ModelMesh.cpp</text>
</a>
</g>
</g>
<!-- Node2 -->
<g id="node2" class="node">
<title>Node2</title>
<g id="a_node2"><a xlink:href="_model_mesh_8h.html" target="_top" xlink:title=" ">
<polygon fill="white" stroke="black" points="513.5,-190.5 513.5,-220.5 634.5,-220.5 634.5,-190.5 513.5,-190.5"/>
<text text-anchor="start" x="521.5" y="-208.5" font-family="Helvetica,sans-Serif" font-size="10.00">kryne&#45;engine/3DObjects</text>
<text text-anchor="middle" x="574" y="-197.5" font-family="Helvetica,sans-Serif" font-size="10.00">/Model/ModelMesh.h</text>
</a>
</g>
</g>
<!-- Node1&#45;&gt;Node2 -->
<g id="edge1" class="edge">
<title>Node1&#45;&gt;Node2</title>
<path fill="none" stroke="midnightblue" d="M574,-257.4C574,-249.64 574,-239.81 574,-230.86"/>
<polygon fill="midnightblue" stroke="midnightblue" points="577.5,-230.58 574,-220.58 570.5,-230.58 577.5,-230.58"/>
</g>
<!-- Node3 -->
<g id="node3" class="node">
<title>Node3</title>
<g id="a_node3"><a xlink:title=" ">
<polygon fill="white" stroke="#bfbfbf" points="0,-0.5 0,-19.5 42,-19.5 42,-0.5 0,-0.5"/>
<text text-anchor="middle" x="21" y="-7.5" font-family="Helvetica,sans-Serif" font-size="10.00">vector</text>
</a>
</g>
</g>
<!-- Node2&#45;&gt;Node3 -->
<g id="edge2" class="edge">
<title>Node2&#45;&gt;Node3</title>
<path fill="none" stroke="midnightblue" d="M513.36,-193.33C469.41,-184.52 408.85,-170.92 357,-154 238.18,-115.21 103.08,-51.35 47.26,-24.04"/>
<polygon fill="midnightblue" stroke="midnightblue" points="48.6,-20.8 38.08,-19.53 45.51,-27.08 48.6,-20.8"/>
</g>
<!-- Node4 -->
<g id="node4" class="node">
<title>Node4</title>
<g id="a_node4"><a xlink:title=" ">
<polygon fill="white" stroke="#bfbfbf" points="602.5,-129 602.5,-148 637.5,-148 637.5,-129 602.5,-129"/>
<text text-anchor="middle" x="620" y="-136" font-family="Helvetica,sans-Serif" font-size="10.00">map</text>
</a>
</g>
</g>
<!-- Node2&#45;&gt;Node4 -->
<g id="edge3" class="edge">
<title>Node2&#45;&gt;Node4</title>
<path fill="none" stroke="midnightblue" d="M583.98,-190.4C591.01,-180.46 600.46,-167.11 607.92,-156.57"/>
<polygon fill="midnightblue" stroke="midnightblue" points="610.93,-158.38 613.85,-148.19 605.21,-154.34 610.93,-158.38"/>
</g>
<!-- Node5 -->
<g id="node5" class="node">
<title>Node5</title>
<g id="a_node5"><a xlink:title=" ">
<polygon fill="white" stroke="#bfbfbf" points="843.5,-0.5 843.5,-19.5 884.5,-19.5 884.5,-0.5 843.5,-0.5"/>
<text text-anchor="middle" x="864" y="-7.5" font-family="Helvetica,sans-Serif" font-size="10.00">string</text>
</a>
</g>
</g>
<!-- Node2&#45;&gt;Node5 -->
<g id="edge4" class="edge">
<title>Node2&#45;&gt;Node5</title>
<path fill="none" stroke="midnightblue" d="M573.77,-190.39C574.22,-172.62 577.59,-142.13 594,-123 610.54,-103.72 766.37,-46.09 833.49,-21.89"/>
<polygon fill="midnightblue" stroke="midnightblue" points="834.87,-25.11 843.09,-18.44 832.5,-18.53 834.87,-25.11"/>
</g>
<!-- Node6 -->
<g id="node6" class="node">
<title>Node6</title>
<g id="a_node6"><a xlink:title=" ">
<polygon fill="white" stroke="#bfbfbf" points="656,-129 656,-148 742,-148 742,-129 656,-129"/>
<text text-anchor="middle" x="699" y="-136" font-family="Helvetica,sans-Serif" font-size="10.00">assimp/scene.h</text>
</a>
</g>
</g>
<!-- Node2&#45;&gt;Node6 -->
<g id="edge5" class="edge">
<title>Node2&#45;&gt;Node6</title>
<path fill="none" stroke="midnightblue" d="M601.12,-190.4C622.67,-179.19 652.57,-163.64 673.64,-152.69"/>
<polygon fill="midnightblue" stroke="midnightblue" points="675.38,-155.73 682.64,-148.01 672.15,-149.52 675.38,-155.73"/>
</g>
<!-- Node7 -->
<g id="node7" class="node">
<title>Node7</title>
<g id="a_node7"><a xlink:title=" ">
<polygon fill="white" stroke="#bfbfbf" points="760,-129 760,-148 830,-148 830,-129 760,-129"/>
<text text-anchor="middle" x="795" y="-136" font-family="Helvetica,sans-Serif" font-size="10.00">glm/glm.hpp</text>
</a>
</g>
</g>
<!-- Node2&#45;&gt;Node7 -->
<g id="edge6" class="edge">
<title>Node2&#45;&gt;Node7</title>
<path fill="none" stroke="midnightblue" d="M625.28,-190.46C660.71,-180.62 708.85,-166.95 751,-154 753.9,-153.11 756.91,-152.16 759.92,-151.2"/>
<polygon fill="midnightblue" stroke="midnightblue" points="761.03,-154.52 769.46,-148.11 758.87,-147.86 761.03,-154.52"/>
</g>
<!-- Node8 -->
<g id="node8" class="node">
<title>Node8</title>
<g id="a_node8"><a xlink:href="_vertex_array_8h.html" target="_top" xlink:title=" ">
<polygon fill="white" stroke="black" points="212.5,-56.5 212.5,-86.5 339.5,-86.5 339.5,-56.5 212.5,-56.5"/>
<text text-anchor="start" x="220.5" y="-74.5" font-family="Helvetica,sans-Serif" font-size="10.00">kryne&#45;engine/Core/Vertex</text>
<text text-anchor="middle" x="276" y="-63.5" font-family="Helvetica,sans-Serif" font-size="10.00">Array.h</text>
</a>
</g>
</g>
<!-- Node2&#45;&gt;Node8 -->
<g id="edge7" class="edge">
<title>Node2&#45;&gt;Node8</title>
<path fill="none" stroke="midnightblue" d="M525.21,-190.5C495.46,-181.37 456.95,-168.48 424,-154 382.14,-135.6 336.39,-109.4 307,-91.71"/>
<polygon fill="midnightblue" stroke="midnightblue" points="308.79,-88.7 298.43,-86.51 305.16,-94.69 308.79,-88.7"/>
</g>
<!-- Node15 -->
<g id="node15" class="node">
<title>Node15</title>
<g id="a_node15"><a xlink:href="_texture2_d_8h.html" target="_top" xlink:title=" ">
<polygon fill="white" stroke="black" points="432.5,-123.5 432.5,-153.5 545.5,-153.5 545.5,-123.5 432.5,-123.5"/>
<text text-anchor="start" x="440.5" y="-141.5" font-family="Helvetica,sans-Serif" font-size="10.00">kryne&#45;engine/Textures</text>
<text text-anchor="middle" x="489" y="-130.5" font-family="Helvetica,sans-Serif" font-size="10.00">/Texture2D.h</text>
</a>
</g>
</g>
<!-- Node2&#45;&gt;Node15 -->
<g id="edge15" class="edge">
<title>Node2&#45;&gt;Node15</title>
<path fill="none" stroke="midnightblue" d="M555.56,-190.4C543.86,-181.45 528.54,-169.74 515.55,-159.8"/>
<polygon fill="midnightblue" stroke="midnightblue" points="517.48,-156.87 507.41,-153.58 513.23,-162.43 517.48,-156.87"/>
</g>
<!-- Node8&#45;&gt;Node3 -->
<g id="edge8" class="edge">
<title>Node8&#45;&gt;Node3</title>
<path fill="none" stroke="midnightblue" d="M212.19,-57.43C169.37,-48.38 111.51,-35.58 52.17,-20.18"/>
<polygon fill="midnightblue" stroke="midnightblue" points="52.81,-16.72 42.25,-17.58 51.04,-23.5 52.81,-16.72"/>
</g>
<!-- Node9 -->
<g id="node9" class="node">
<title>Node9</title>
<g id="a_node9"><a xlink:title=" ">
<polygon fill="white" stroke="#bfbfbf" points="126,-0.5 126,-19.5 178,-19.5 178,-0.5 126,-0.5"/>
<text text-anchor="middle" x="152" y="-7.5" font-family="Helvetica,sans-Serif" font-size="10.00">stdarg.h</text>
</a>
</g>
</g>
<!-- Node8&#45;&gt;Node9 -->
<g id="edge9" class="edge">
<title>Node8&#45;&gt;Node9</title>
<path fill="none" stroke="midnightblue" d="M246.61,-56.4C226.18,-46.59 199.14,-33.62 179.2,-24.05"/>
<polygon fill="midnightblue" stroke="midnightblue" points="180.57,-20.83 170.04,-19.66 177.54,-27.14 180.57,-20.83"/>
</g>
<!-- Node10 -->
<g id="node10" class="node">
<title>Node10</title>
<g id="a_node10"><a xlink:title=" ">
<polygon fill="white" stroke="#bfbfbf" points="60,-0.5 60,-19.5 108,-19.5 108,-0.5 60,-0.5"/>
<text text-anchor="middle" x="84" y="-7.5" font-family="Helvetica,sans-Serif" font-size="10.00">stdlib.h</text>
</a>
</g>
</g>
<!-- Node8&#45;&gt;Node10 -->
<g id="edge10" class="edge">
<title>Node8&#45;&gt;Node10</title>
<path fill="none" stroke="midnightblue" d="M230.5,-56.4C195.88,-45.67 149,-31.14 117.7,-21.44"/>
<polygon fill="midnightblue" stroke="midnightblue" points="118.7,-18.09 108.11,-18.47 116.63,-24.78 118.7,-18.09"/>
</g>
<!-- Node11 -->
<g id="node11" class="node">
<title>Node11</title>
<g id="a_node11"><a xlink:title=" ">
<polygon fill="white" stroke="#bfbfbf" points="288,-0.5 288,-19.5 352,-19.5 352,-0.5 288,-0.5"/>
<text text-anchor="middle" x="320" y="-7.5" font-family="Helvetica,sans-Serif" font-size="10.00">glad/glad.h</text>
</a>
</g>
</g>
<!-- Node8&#45;&gt;Node11 -->
<g id="edge11" class="edge">
<title>Node8&#45;&gt;Node11</title>
<path fill="none" stroke="midnightblue" d="M286.43,-56.4C292.76,-47.84 300.87,-36.87 307.53,-27.86"/>
<polygon fill="midnightblue" stroke="midnightblue" points="310.47,-29.78 313.6,-19.66 304.84,-25.62 310.47,-29.78"/>
</g>
<!-- Node12 -->
<g id="node12" class="node">
<title>Node12</title>
<g id="a_node12"><a xlink:title=" ">
<polygon fill="white" stroke="#bfbfbf" points="370,-0.5 370,-19.5 448,-19.5 448,-0.5 370,-0.5"/>
<text text-anchor="middle" x="409" y="-7.5" font-family="Helvetica,sans-Serif" font-size="10.00">GLFW/glfw3.h</text>
</a>
</g>
</g>
<!-- Node8&#45;&gt;Node12 -->
<g id="edge12" class="edge">
<title>Node8&#45;&gt;Node12</title>
<path fill="none" stroke="midnightblue" d="M307.52,-56.4C329.64,-46.51 358.97,-33.38 380.41,-23.79"/>
<polygon fill="midnightblue" stroke="midnightblue" points="381.95,-26.94 389.65,-19.66 379.09,-20.55 381.95,-26.94"/>
</g>
<!-- Node13 -->
<g id="node13" class="node">
<title>Node13</title>
<g id="a_node13"><a xlink:title=" ">
<polygon fill="white" stroke="#bfbfbf" points="466,-0.5 466,-19.5 540,-19.5 540,-0.5 466,-0.5"/>
<text text-anchor="middle" x="503" y="-7.5" font-family="Helvetica,sans-Serif" font-size="10.00">glm/vec2.hpp</text>
</a>
</g>
</g>
<!-- Node8&#45;&gt;Node13 -->
<g id="edge13" class="edge">
<title>Node8&#45;&gt;Node13</title>
<path fill="none" stroke="midnightblue" d="M329.51,-56.47C369.53,-45.99 423.51,-31.84 460.57,-22.12"/>
<polygon fill="midnightblue" stroke="midnightblue" points="461.76,-25.43 470.55,-19.51 459.99,-18.66 461.76,-25.43"/>
</g>
<!-- Node14 -->
<g id="node14" class="node">
<title>Node14</title>
<g id="a_node14"><a xlink:title=" ">
<polygon fill="white" stroke="#bfbfbf" points="196,-0.5 196,-19.5 270,-19.5 270,-0.5 196,-0.5"/>
<text text-anchor="middle" x="233" y="-7.5" font-family="Helvetica,sans-Serif" font-size="10.00">glm/vec3.hpp</text>
</a>
</g>
</g>
<!-- Node8&#45;&gt;Node14 -->
<g id="edge14" class="edge">
<title>Node8&#45;&gt;Node14</title>
<path fill="none" stroke="midnightblue" d="M265.81,-56.4C259.63,-47.84 251.7,-36.87 245.18,-27.86"/>
<polygon fill="midnightblue" stroke="midnightblue" points="247.95,-25.71 239.26,-19.66 242.28,-29.81 247.95,-25.71"/>
</g>
<!-- Node16 -->
<g id="node16" class="node">
<title>Node16</title>
<g id="a_node16"><a xlink:href="_texture_8h.html" target="_top" xlink:title=" ">
<polygon fill="white" stroke="black" points="474.5,-62 474.5,-81 531.5,-81 531.5,-62 474.5,-62"/>
<text text-anchor="middle" x="503" y="-69" font-family="Helvetica,sans-Serif" font-size="10.00">Texture.h</text>
</a>
</g>
</g>
<!-- Node15&#45;&gt;Node16 -->
<g id="edge16" class="edge">
<title>Node15&#45;&gt;Node16</title>
<path fill="none" stroke="midnightblue" d="M492.04,-123.4C494.07,-113.96 496.76,-101.45 498.97,-91.19"/>
<polygon fill="midnightblue" stroke="midnightblue" points="502.44,-91.71 501.13,-81.19 495.6,-90.23 502.44,-91.71"/>
</g>
<!-- Node16&#45;&gt;Node5 -->
<g id="edge18" class="edge">
<title>Node16&#45;&gt;Node5</title>
<path fill="none" stroke="midnightblue" d="M531.56,-62.53C540.6,-60.19 550.67,-57.79 560,-56 677.86,-33.38 712.76,-45.67 833.23,-20.08"/>
<polygon fill="midnightblue" stroke="midnightblue" points="834.17,-23.46 843.2,-17.92 832.69,-16.62 834.17,-23.46"/>
</g>
<!-- Node16&#45;&gt;Node11 -->
<g id="edge23" class="edge">
<title>Node16&#45;&gt;Node11</title>
<path fill="none" stroke="midnightblue" d="M476.78,-61.98C444.98,-51.64 391.23,-34.16 355.68,-22.6"/>
<polygon fill="midnightblue" stroke="midnightblue" points="356.76,-19.27 346.17,-19.51 354.6,-25.93 356.76,-19.27"/>
</g>
<!-- Node16&#45;&gt;Node12 -->
<g id="edge24" class="edge">
<title>Node16&#45;&gt;Node12</title>
<path fill="none" stroke="midnightblue" d="M489.53,-61.98C474.32,-52.34 449.31,-36.52 431.2,-25.05"/>
<polygon fill="midnightblue" stroke="midnightblue" points="432.76,-21.9 422.44,-19.51 429.02,-27.81 432.76,-21.9"/>
</g>
<!-- Node16&#45;&gt;Node13 -->
<g id="edge21" class="edge">
<title>Node16&#45;&gt;Node13</title>
<path fill="none" stroke="midnightblue" d="M503,-61.98C503,-53.58 503,-40.48 503,-29.66"/>
<polygon fill="midnightblue" stroke="midnightblue" points="506.5,-29.51 503,-19.51 499.5,-29.51 506.5,-29.51"/>
</g>
<!-- Node16&#45;&gt;Node14 -->
<g id="edge22" class="edge">
<title>Node16&#45;&gt;Node14</title>
<path fill="none" stroke="midnightblue" d="M474.36,-64.19C428.11,-54 336.5,-33.81 280.4,-21.45"/>
<polygon fill="midnightblue" stroke="midnightblue" points="280.88,-17.97 270.36,-19.23 279.37,-24.8 280.88,-17.97"/>
</g>
<!-- Node17 -->
<g id="node17" class="node">
<title>Node17</title>
<g id="a_node17"><a xlink:title=" ">
<polygon fill="white" stroke="#bfbfbf" points="558,-0.5 558,-19.5 628,-19.5 628,-0.5 558,-0.5"/>
<text text-anchor="middle" x="593" y="-7.5" font-family="Helvetica,sans-Serif" font-size="10.00">stb_image.h</text>
</a>
</g>
</g>
<!-- Node16&#45;&gt;Node17 -->
<g id="edge17" class="edge">
<title>Node16&#45;&gt;Node17</title>
<path fill="none" stroke="midnightblue" d="M515.89,-61.98C530.46,-52.34 554.4,-36.52 571.75,-25.05"/>
<polygon fill="midnightblue" stroke="midnightblue" points="573.72,-27.94 580.13,-19.51 569.86,-22.1 573.72,-27.94"/>
</g>
<!-- Node18 -->
<g id="node18" class="node">
<title>Node18</title>
<g id="a_node18"><a xlink:title=" ">
<polygon fill="white" stroke="#bfbfbf" points="646,-0.5 646,-19.5 700,-19.5 700,-0.5 646,-0.5"/>
<text text-anchor="middle" x="673" y="-7.5" font-family="Helvetica,sans-Serif" font-size="10.00">iostream</text>
</a>
</g>
</g>
<!-- Node16&#45;&gt;Node18 -->
<g id="edge19" class="edge">
<title>Node16&#45;&gt;Node18</title>
<path fill="none" stroke="midnightblue" d="M527.36,-61.98C556.64,-51.72 605.97,-34.46 639,-22.9"/>
<polygon fill="midnightblue" stroke="midnightblue" points="640.41,-26.12 648.69,-19.51 638.09,-19.51 640.41,-26.12"/>
</g>
<!-- Node19 -->
<g id="node19" class="node">
<title>Node19</title>
<g id="a_node19"><a xlink:title=" ">
<polygon fill="white" stroke="#bfbfbf" points="718.5,-0.5 718.5,-19.5 825.5,-19.5 825.5,-0.5 718.5,-0.5"/>
<text text-anchor="middle" x="772" y="-7.5" font-family="Helvetica,sans-Serif" font-size="10.00">boost/filesystem.hpp</text>
</a>
</g>
</g>
<!-- Node16&#45;&gt;Node19 -->
<g id="edge20" class="edge">
<title>Node16&#45;&gt;Node19</title>
<path fill="none" stroke="midnightblue" d="M531.65,-62.97C540.7,-60.66 550.75,-58.16 560,-56 614.11,-43.38 676.33,-30.35 719.3,-21.58"/>
<polygon fill="midnightblue" stroke="midnightblue" points="720.15,-24.98 729.25,-19.55 718.76,-18.12 720.15,-24.98"/>
</g>
</g>
</svg>
