<?xml version="1.0" encoding="UTF-8" standalone="no"?>
<!DOCTYPE svg PUBLIC "-//W3C//DTD SVG 1.1//EN"
 "http://www.w3.org/Graphics/SVG/1.1/DTD/svg11.dtd">
<!-- Generated by graphviz version 2.44.1 (20200629.0846)
 -->
<!-- Title: kryne&#45;engine/include/kryne&#45;engine/3DObjects/Model/ModelMesh.h Pages: 1 -->
<svg width="1352pt" height="430pt"
 viewBox="0.00 0.00 1352.00 430.00" xmlns="http://www.w3.org/2000/svg" xmlns:xlink="http://www.w3.org/1999/xlink">
<g id="graph0" class="graph" transform="scale(1 1) rotate(0) translate(4 426)">
<title>kryne&#45;engine/include/kryne&#45;engine/3DObjects/Model/ModelMesh.h</title>
<polygon fill="white" stroke="transparent" points="-4,4 -4,-426 1348,-426 1348,4 -4,4"/>
<!-- Node1 -->
<g id="node1" class="node">
<title>Node1</title>
<g id="a_node1"><a xlink:title=" ">
<polygon fill="#bfbfbf" stroke="black" points="1034,-380.5 1034,-421.5 1158,-421.5 1158,-380.5 1034,-380.5"/>
<text text-anchor="start" x="1042" y="-409.5" font-family="Helvetica,sans-Serif" font-size="10.00">kryne&#45;engine/include</text>
<text text-anchor="start" x="1042" y="-398.5" font-family="Helvetica,sans-Serif" font-size="10.00">/kryne&#45;engine/3DObjects</text>
<text text-anchor="middle" x="1096" y="-387.5" font-family="Helvetica,sans-Serif" font-size="10.00">/Model/ModelMesh.h</text>
</a>
</g>
</g>
<!-- Node2 -->
<g id="node2" class="node">
<title>Node2</title>
<g id="a_node2"><a xlink:title=" ">
<polygon fill="white" stroke="#bfbfbf" points="267,-0.5 267,-19.5 309,-19.5 309,-0.5 267,-0.5"/>
<text text-anchor="middle" x="288" y="-7.5" font-family="Helvetica,sans-Serif" font-size="10.00">vector</text>
</a>
</g>
</g>
<!-- Node1&#45;&gt;Node2 -->
<g id="edge1" class="edge">
<title>Node1&#45;&gt;Node2</title>
<path fill="none" stroke="midnightblue" d="M1033.93,-398.79C802.08,-393.48 0,-367.49 0,-262.5 0,-262.5 0,-262.5 0,-126.5 0,-71.69 181.97,-31.04 256.62,-16.67"/>
<polygon fill="midnightblue" stroke="midnightblue" points="257.65,-20.03 266.82,-14.74 256.35,-13.16 257.65,-20.03"/>
</g>
<!-- Node3 -->
<g id="node3" class="node">
<title>Node3</title>
<g id="a_node3"><a xlink:title=" ">
<polygon fill="white" stroke="#bfbfbf" points="1078.5,-185 1078.5,-204 1113.5,-204 1113.5,-185 1078.5,-185"/>
<text text-anchor="middle" x="1096" y="-192" font-family="Helvetica,sans-Serif" font-size="10.00">map</text>
</a>
</g>
</g>
<!-- Node1&#45;&gt;Node3 -->
<g id="edge2" class="edge">
<title>Node1&#45;&gt;Node3</title>
<path fill="none" stroke="midnightblue" d="M1096,-380.39C1096,-341.07 1096,-253.06 1096,-214.36"/>
<polygon fill="midnightblue" stroke="midnightblue" points="1099.5,-214.04 1096,-204.04 1092.5,-214.04 1099.5,-214.04"/>
</g>
<!-- Node4 -->
<g id="node4" class="node">
<title>Node4</title>
<g id="a_node4"><a xlink:title=" ">
<polygon fill="white" stroke="#bfbfbf" points="922.5,-118 922.5,-137 963.5,-137 963.5,-118 922.5,-118"/>
<text text-anchor="middle" x="943" y="-125" font-family="Helvetica,sans-Serif" font-size="10.00">string</text>
</a>
</g>
</g>
<!-- Node1&#45;&gt;Node4 -->
<g id="edge3" class="edge">
<title>Node1&#45;&gt;Node4</title>
<path fill="none" stroke="midnightblue" d="M1106.83,-380.36C1128.32,-338.44 1170.38,-239.1 1123,-179 1080.55,-125.16 1037.57,-166.05 973,-143 971.57,-142.49 970.12,-141.93 968.66,-141.34"/>
<polygon fill="midnightblue" stroke="midnightblue" points="969.79,-138.01 959.23,-137.13 966.94,-144.4 969.79,-138.01"/>
</g>
<!-- Node5 -->
<g id="node5" class="node">
<title>Node5</title>
<g id="a_node5"><a xlink:title=" ">
<polygon fill="white" stroke="#bfbfbf" points="1170,-319 1170,-338 1256,-338 1256,-319 1170,-319"/>
<text text-anchor="middle" x="1213" y="-326" font-family="Helvetica,sans-Serif" font-size="10.00">assimp/scene.h</text>
</a>
</g>
</g>
<!-- Node1&#45;&gt;Node5 -->
<g id="edge4" class="edge">
<title>Node1&#45;&gt;Node5</title>
<path fill="none" stroke="midnightblue" d="M1128.59,-380.36C1147.99,-368.67 1172.15,-354.12 1189.64,-343.57"/>
<polygon fill="midnightblue" stroke="midnightblue" points="1191.85,-346.33 1198.61,-338.17 1188.23,-340.34 1191.85,-346.33"/>
</g>
<!-- Node6 -->
<g id="node6" class="node">
<title>Node6</title>
<g id="a_node6"><a xlink:title=" ">
<polygon fill="white" stroke="#bfbfbf" points="1274,-319 1274,-338 1344,-338 1344,-319 1274,-319"/>
<text text-anchor="middle" x="1309" y="-326" font-family="Helvetica,sans-Serif" font-size="10.00">glm/glm.hpp</text>
</a>
</g>
</g>
<!-- Node1&#45;&gt;Node6 -->
<g id="edge5" class="edge">
<title>Node1&#45;&gt;Node6</title>
<path fill="none" stroke="midnightblue" d="M1155.05,-380.46C1193.04,-367.88 1241.17,-351.95 1273.4,-341.28"/>
<polygon fill="midnightblue" stroke="midnightblue" points="1274.89,-344.48 1283.28,-338.01 1272.69,-337.83 1274.89,-344.48"/>
</g>
<!-- Node7 -->
<g id="node7" class="node">
<title>Node7</title>
<g id="a_node7"><a xlink:href="_vertex_array_8h.html" target="_top" xlink:title=" ">
<polygon fill="white" stroke="black" points="243.5,-179.5 243.5,-209.5 370.5,-209.5 370.5,-179.5 243.5,-179.5"/>
<text text-anchor="start" x="251.5" y="-197.5" font-family="Helvetica,sans-Serif" font-size="10.00">kryne&#45;engine/Core/Vertex</text>
<text text-anchor="middle" x="307" y="-186.5" font-family="Helvetica,sans-Serif" font-size="10.00">Array.h</text>
</a>
</g>
</g>
<!-- Node1&#45;&gt;Node7 -->
<g id="edge6" class="edge">
<title>Node1&#45;&gt;Node7</title>
<path fill="none" stroke="midnightblue" d="M1033.67,-397.22C947.36,-392.21 787.11,-378.73 655,-344 578.85,-323.98 563.45,-307.84 491,-277 441.42,-255.9 384.8,-230.64 347.62,-213.9"/>
<polygon fill="midnightblue" stroke="midnightblue" points="348.69,-210.54 338.13,-209.62 345.81,-216.92 348.69,-210.54"/>
</g>
<!-- Node14 -->
<g id="node14" class="node">
<title>Node14</title>
<g id="a_node14"><a xlink:href="_texture2_d_8h.html" target="_top" xlink:title=" ">
<polygon fill="white" stroke="black" points="663.5,-313.5 663.5,-343.5 776.5,-343.5 776.5,-313.5 663.5,-313.5"/>
<text text-anchor="start" x="671.5" y="-331.5" font-family="Helvetica,sans-Serif" font-size="10.00">kryne&#45;engine/Textures</text>
<text text-anchor="middle" x="720" y="-320.5" font-family="Helvetica,sans-Serif" font-size="10.00">/Texture2D.h</text>
</a>
</g>
</g>
<!-- Node1&#45;&gt;Node14 -->
<g id="edge14" class="edge">
<title>Node1&#45;&gt;Node14</title>
<path fill="none" stroke="midnightblue" d="M1033.91,-388.36C965.72,-375.57 856.63,-355.12 786.67,-342"/>
<polygon fill="midnightblue" stroke="midnightblue" points="787.11,-338.52 776.64,-340.12 785.82,-345.4 787.11,-338.52"/>
</g>
<!-- Node7&#45;&gt;Node2 -->
<g id="edge7" class="edge">
<title>Node7&#45;&gt;Node2</title>
<path fill="none" stroke="midnightblue" d="M305.54,-179.48C302.17,-147.1 293.83,-67.04 289.99,-30.16"/>
<polygon fill="midnightblue" stroke="midnightblue" points="293.43,-29.4 288.92,-19.82 286.47,-30.13 293.43,-29.4"/>
</g>
<!-- Node8 -->
<g id="node8" class="node">
<title>Node8</title>
<g id="a_node8"><a xlink:title=" ">
<polygon fill="white" stroke="#bfbfbf" points="316,-118 316,-137 368,-137 368,-118 316,-118"/>
<text text-anchor="middle" x="342" y="-125" font-family="Helvetica,sans-Serif" font-size="10.00">stdarg.h</text>
</a>
</g>
</g>
<!-- Node7&#45;&gt;Node8 -->
<g id="edge8" class="edge">
<title>Node7&#45;&gt;Node8</title>
<path fill="none" stroke="midnightblue" d="M314.59,-179.4C319.84,-169.66 326.84,-156.65 332.46,-146.21"/>
<polygon fill="midnightblue" stroke="midnightblue" points="335.66,-147.66 337.32,-137.19 329.5,-144.34 335.66,-147.66"/>
</g>
<!-- Node9 -->
<g id="node9" class="node">
<title>Node9</title>
<g id="a_node9"><a xlink:title=" ">
<polygon fill="white" stroke="#bfbfbf" points="28,-118 28,-137 76,-137 76,-118 28,-118"/>
<text text-anchor="middle" x="52" y="-125" font-family="Helvetica,sans-Serif" font-size="10.00">stdlib.h</text>
</a>
</g>
</g>
<!-- Node7&#45;&gt;Node9 -->
<g id="edge9" class="edge">
<title>Node7&#45;&gt;Node9</title>
<path fill="none" stroke="midnightblue" d="M243.45,-182.38C198.58,-173.73 137.36,-160.28 85,-143 83.13,-142.38 81.22,-141.7 79.31,-140.97"/>
<polygon fill="midnightblue" stroke="midnightblue" points="80.49,-137.67 69.91,-137.11 77.83,-144.15 80.49,-137.67"/>
</g>
<!-- Node10 -->
<g id="node10" class="node">
<title>Node10</title>
<g id="a_node10"><a xlink:title=" ">
<polygon fill="white" stroke="#bfbfbf" points="386,-118 386,-137 450,-137 450,-118 386,-118"/>
<text text-anchor="middle" x="418" y="-125" font-family="Helvetica,sans-Serif" font-size="10.00">glad/glad.h</text>
</a>
</g>
</g>
<!-- Node7&#45;&gt;Node10 -->
<g id="edge10" class="edge">
<title>Node7&#45;&gt;Node10</title>
<path fill="none" stroke="midnightblue" d="M331.09,-179.4C349.96,-168.34 376.06,-153.06 394.72,-142.13"/>
<polygon fill="midnightblue" stroke="midnightblue" points="396.61,-145.08 403.47,-137.01 393.07,-139.04 396.61,-145.08"/>
</g>
<!-- Node11 -->
<g id="node11" class="node">
<title>Node11</title>
<g id="a_node11"><a xlink:title=" ">
<polygon fill="white" stroke="#bfbfbf" points="468,-118 468,-137 546,-137 546,-118 468,-118"/>
<text text-anchor="middle" x="507" y="-125" font-family="Helvetica,sans-Serif" font-size="10.00">GLFW/glfw3.h</text>
</a>
</g>
</g>
<!-- Node7&#45;&gt;Node11 -->
<g id="edge11" class="edge">
<title>Node7&#45;&gt;Node11</title>
<path fill="none" stroke="midnightblue" d="M350.4,-179.4C386.42,-167.69 437.06,-151.23 470.9,-140.23"/>
<polygon fill="midnightblue" stroke="midnightblue" points="472.4,-143.43 480.82,-137.01 470.23,-136.77 472.4,-143.43"/>
</g>
<!-- Node12 -->
<g id="node12" class="node">
<title>Node12</title>
<g id="a_node12"><a xlink:title=" ">
<polygon fill="white" stroke="#bfbfbf" points="94,-118 94,-137 168,-137 168,-118 94,-118"/>
<text text-anchor="middle" x="131" y="-125" font-family="Helvetica,sans-Serif" font-size="10.00">glm/vec2.hpp</text>
</a>
</g>
</g>
<!-- Node7&#45;&gt;Node12 -->
<g id="edge12" class="edge">
<title>Node7&#45;&gt;Node12</title>
<path fill="none" stroke="midnightblue" d="M268.81,-179.4C237.38,-167.79 193.32,-151.51 163.54,-140.52"/>
<polygon fill="midnightblue" stroke="midnightblue" points="164.63,-137.19 154.03,-137.01 162.2,-143.75 164.63,-137.19"/>
</g>
<!-- Node13 -->
<g id="node13" class="node">
<title>Node13</title>
<g id="a_node13"><a xlink:title=" ">
<polygon fill="white" stroke="#bfbfbf" points="186,-118 186,-137 260,-137 260,-118 186,-118"/>
<text text-anchor="middle" x="223" y="-125" font-family="Helvetica,sans-Serif" font-size="10.00">glm/vec3.hpp</text>
</a>
</g>
</g>
<!-- Node7&#45;&gt;Node13 -->
<g id="edge13" class="edge">
<title>Node7&#45;&gt;Node13</title>
<path fill="none" stroke="midnightblue" d="M288.77,-179.4C275.03,-168.76 256.22,-154.2 242.23,-143.38"/>
<polygon fill="midnightblue" stroke="midnightblue" points="244.29,-140.55 234.24,-137.19 240,-146.08 244.29,-140.55"/>
</g>
<!-- Node14&#45;&gt;Node4 -->
<g id="edge17" class="edge">
<title>Node14&#45;&gt;Node4</title>
<path fill="none" stroke="midnightblue" d="M776.62,-315.75C800.93,-308.22 828.04,-296.12 847,-277 879.89,-243.83 858.16,-217.23 885,-179 894.88,-164.93 909.49,-152.24 921.58,-143.1"/>
<polygon fill="midnightblue" stroke="midnightblue" points="923.8,-145.81 929.83,-137.1 919.68,-140.15 923.8,-145.81"/>
</g>
<!-- Node14&#45;&gt;Node10 -->
<g id="edge20" class="edge">
<title>Node14&#45;&gt;Node10</title>
<path fill="none" stroke="midnightblue" d="M663.08,-322.1C623.31,-316.1 570.49,-303.48 531,-277 479.99,-242.8 442.56,-177.82 426.57,-146.4"/>
<polygon fill="midnightblue" stroke="midnightblue" points="429.56,-144.53 421.98,-137.12 423.28,-147.64 429.56,-144.53"/>
</g>
<!-- Node14&#45;&gt;Node11 -->
<g id="edge21" class="edge">
<title>Node14&#45;&gt;Node11</title>
<path fill="none" stroke="midnightblue" d="M663.19,-322.85C628.42,-317.17 585.3,-304.62 557,-277 520.59,-241.46 510.69,-178.59 508,-147.29"/>
<polygon fill="midnightblue" stroke="midnightblue" points="511.49,-147.03 507.3,-137.3 504.51,-147.52 511.49,-147.03"/>
</g>
<!-- Node15 -->
<g id="node15" class="node">
<title>Node15</title>
<g id="a_node15"><a xlink:href="stb__image_8h.html" target="_top" xlink:title=" ">
<polygon fill="white" stroke="black" points="599.5,-246.5 599.5,-276.5 712.5,-276.5 712.5,-246.5 599.5,-246.5"/>
<text text-anchor="start" x="607.5" y="-264.5" font-family="Helvetica,sans-Serif" font-size="10.00">kryne&#45;engine/Textures</text>
<text text-anchor="middle" x="656" y="-253.5" font-family="Helvetica,sans-Serif" font-size="10.00">/stb_image.h</text>
</a>
</g>
</g>
<!-- Node14&#45;&gt;Node15 -->
<g id="edge15" class="edge">
<title>Node14&#45;&gt;Node15</title>
<path fill="none" stroke="midnightblue" d="M706.11,-313.4C697.64,-304.79 686.65,-293.63 677.11,-283.94"/>
<polygon fill="midnightblue" stroke="midnightblue" points="679.37,-281.25 669.86,-276.58 674.38,-286.16 679.37,-281.25"/>
</g>
<!-- Node17 -->
<g id="node17" class="node">
<title>Node17</title>
<g id="a_node17"><a xlink:title=" ">
<polygon fill="white" stroke="#bfbfbf" points="623,-0.5 623,-19.5 677,-19.5 677,-0.5 623,-0.5"/>
<text text-anchor="middle" x="650" y="-7.5" font-family="Helvetica,sans-Serif" font-size="10.00">iostream</text>
</a>
</g>
</g>
<!-- Node14&#45;&gt;Node17 -->
<g id="edge18" class="edge">
<title>Node14&#45;&gt;Node17</title>
<path fill="none" stroke="midnightblue" d="M663.24,-320.07C636.63,-313.43 607.27,-300.84 591,-277 535.58,-195.79 555.93,-143.39 601,-56 607.22,-43.93 618.06,-33.46 627.97,-25.66"/>
<polygon fill="midnightblue" stroke="midnightblue" points="630.32,-28.27 636.29,-19.52 626.17,-22.64 630.32,-28.27"/>
</g>
<!-- Node18 -->
<g id="node18" class="node">
<title>Node18</title>
<g id="a_node18"><a xlink:title=" ">
<polygon fill="white" stroke="#bfbfbf" points="730.5,-252 730.5,-271 837.5,-271 837.5,-252 730.5,-252"/>
<text text-anchor="middle" x="784" y="-259" font-family="Helvetica,sans-Serif" font-size="10.00">boost/filesystem.hpp</text>
</a>
</g>
</g>
<!-- Node14&#45;&gt;Node18 -->
<g id="edge19" class="edge">
<title>Node14&#45;&gt;Node18</title>
<path fill="none" stroke="midnightblue" d="M733.89,-313.4C743.96,-303.16 757.62,-289.3 768.13,-278.62"/>
<polygon fill="midnightblue" stroke="midnightblue" points="770.92,-280.78 775.44,-271.19 765.93,-275.86 770.92,-280.78"/>
</g>
<!-- Node19 -->
<g id="node19" class="node">
<title>Node19</title>
<g id="a_node19"><a xlink:href="_shader_8h.html" target="_top" xlink:title=" ">
<polygon fill="white" stroke="black" points="894,-246.5 894,-276.5 1004,-276.5 1004,-246.5 894,-246.5"/>
<text text-anchor="start" x="902" y="-264.5" font-family="Helvetica,sans-Serif" font-size="10.00">kryne&#45;engine/Material</text>
<text text-anchor="middle" x="949" y="-253.5" font-family="Helvetica,sans-Serif" font-size="10.00">/Shader.h</text>
</a>
</g>
</g>
<!-- Node14&#45;&gt;Node19 -->
<g id="edge22" class="edge">
<title>Node14&#45;&gt;Node19</title>
<path fill="none" stroke="midnightblue" d="M769.41,-313.48C804.65,-303.47 852.22,-289.97 889.54,-279.38"/>
<polygon fill="midnightblue" stroke="midnightblue" points="890.62,-282.71 899.29,-276.61 888.71,-275.97 890.62,-282.71"/>
</g>
<!-- Node16 -->
<g id="node16" class="node">
<title>Node16</title>
<g id="a_node16"><a xlink:title=" ">
<polygon fill="white" stroke="#bfbfbf" points="633,-185 633,-204 679,-204 679,-185 633,-185"/>
<text text-anchor="middle" x="656" y="-192" font-family="Helvetica,sans-Serif" font-size="10.00">stdio.h</text>
</a>
</g>
</g>
<!-- Node15&#45;&gt;Node16 -->
<g id="edge16" class="edge">
<title>Node15&#45;&gt;Node16</title>
<path fill="none" stroke="midnightblue" d="M656,-246.4C656,-237.06 656,-224.71 656,-214.52"/>
<polygon fill="midnightblue" stroke="midnightblue" points="659.5,-214.19 656,-204.19 652.5,-214.19 659.5,-214.19"/>
</g>
<!-- Node19&#45;&gt;Node3 -->
<g id="edge23" class="edge">
<title>Node19&#45;&gt;Node3</title>
<path fill="none" stroke="midnightblue" d="M984.83,-246.45C1008.89,-236.77 1041.16,-223.3 1069,-210 1069.84,-209.6 1070.69,-209.18 1071.55,-208.76"/>
<polygon fill="midnightblue" stroke="midnightblue" points="1073.43,-211.73 1080.71,-204.04 1070.22,-205.51 1073.43,-211.73"/>
</g>
<!-- Node20 -->
<g id="node20" class="node">
<title>Node20</title>
<g id="a_node20"><a xlink:title=" ">
<polygon fill="white" stroke="#bfbfbf" points="1008,-185 1008,-204 1060,-204 1060,-185 1008,-185"/>
<text text-anchor="middle" x="1034" y="-192" font-family="Helvetica,sans-Serif" font-size="10.00">sstream</text>
</a>
</g>
</g>
<!-- Node19&#45;&gt;Node20 -->
<g id="edge24" class="edge">
<title>Node19&#45;&gt;Node20</title>
<path fill="none" stroke="midnightblue" d="M967.44,-246.4C981.35,-235.76 1000.39,-221.2 1014.54,-210.38"/>
<polygon fill="midnightblue" stroke="midnightblue" points="1016.81,-213.05 1022.63,-204.19 1012.56,-207.49 1016.81,-213.05"/>
</g>
<!-- Node21 -->
<g id="node21" class="node">
<title>Node21</title>
<g id="a_node21"><a xlink:href="_uniforms_handler_8h.html" target="_top" xlink:title=" ">
<polygon fill="white" stroke="black" points="894,-185 894,-204 990,-204 990,-185 894,-185"/>
<text text-anchor="middle" x="942" y="-192" font-family="Helvetica,sans-Serif" font-size="10.00">UniformsHandler.h</text>
</a>
</g>
</g>
<!-- Node19&#45;&gt;Node21 -->
<g id="edge25" class="edge">
<title>Node19&#45;&gt;Node21</title>
<path fill="none" stroke="midnightblue" d="M947.48,-246.4C946.47,-236.96 945.12,-224.45 944.01,-214.19"/>
<polygon fill="midnightblue" stroke="midnightblue" points="947.49,-213.76 942.94,-204.19 940.53,-214.51 947.49,-213.76"/>
</g>
<!-- Node26 -->
<g id="node26" class="node">
<title>Node26</title>
<g id="a_node26"><a xlink:href="_shader_chunk_8h.html" target="_top" xlink:title=" ">
<polygon fill="white" stroke="black" points="752.5,-185 752.5,-204 835.5,-204 835.5,-185 752.5,-185"/>
<text text-anchor="middle" x="794" y="-192" font-family="Helvetica,sans-Serif" font-size="10.00">ShaderChunk.h</text>
</a>
</g>
</g>
<!-- Node19&#45;&gt;Node26 -->
<g id="edge33" class="edge">
<title>Node19&#45;&gt;Node26</title>
<path fill="none" stroke="midnightblue" d="M915.37,-246.4C888.05,-234.94 849.89,-218.94 823.69,-207.95"/>
<polygon fill="midnightblue" stroke="midnightblue" points="824.86,-204.65 814.29,-204.01 822.15,-211.1 824.86,-204.65"/>
</g>
<!-- Node21&#45;&gt;Node4 -->
<g id="edge26" class="edge">
<title>Node21&#45;&gt;Node4</title>
<path fill="none" stroke="midnightblue" d="M942.13,-184.73C942.28,-175.18 942.52,-159.62 942.71,-147.28"/>
<polygon fill="midnightblue" stroke="midnightblue" points="946.21,-147.18 942.87,-137.13 939.21,-147.07 946.21,-147.18"/>
</g>
<!-- Node21&#45;&gt;Node10 -->
<g id="edge28" class="edge">
<title>Node21&#45;&gt;Node10</title>
<path fill="none" stroke="midnightblue" d="M893.72,-185.74C878.19,-183.39 860.89,-180.93 845,-179 673.95,-158.26 627.28,-180.01 459,-143 455.58,-142.25 452.05,-141.29 448.57,-140.23"/>
<polygon fill="midnightblue" stroke="midnightblue" points="449.58,-136.88 438.99,-137.04 447.37,-143.52 449.58,-136.88"/>
</g>
<!-- Node21&#45;&gt;Node11 -->
<g id="edge29" class="edge">
<title>Node21&#45;&gt;Node11</title>
<path fill="none" stroke="midnightblue" d="M893.66,-186.22C878.12,-183.89 860.84,-181.32 845,-179 733.49,-162.67 705.37,-160.26 594,-143 581.82,-141.11 568.71,-138.98 556.44,-136.94"/>
<polygon fill="midnightblue" stroke="midnightblue" points="556.82,-133.46 546.38,-135.26 555.67,-140.36 556.82,-133.46"/>
</g>
<!-- Node22 -->
<g id="node22" class="node">
<title>Node22</title>
<g id="a_node22"><a xlink:title=" ">
<polygon fill="white" stroke="#bfbfbf" points="821.5,-118 821.5,-137 904.5,-137 904.5,-118 821.5,-118"/>
<text text-anchor="middle" x="863" y="-125" font-family="Helvetica,sans-Serif" font-size="10.00">unordered_map</text>
</a>
</g>
</g>
<!-- Node21&#45;&gt;Node22 -->
<g id="edge27" class="edge">
<title>Node21&#45;&gt;Node22</title>
<path fill="none" stroke="midnightblue" d="M931.35,-184.73C918.55,-174.21 896.88,-156.38 881.37,-143.62"/>
<polygon fill="midnightblue" stroke="midnightblue" points="883.43,-140.78 873.49,-137.13 878.98,-146.18 883.43,-140.78"/>
</g>
<!-- Node23 -->
<g id="node23" class="node">
<title>Node23</title>
<g id="a_node23"><a xlink:title=" ">
<polygon fill="white" stroke="#bfbfbf" points="1090,-118 1090,-137 1176,-137 1176,-118 1090,-118"/>
<text text-anchor="middle" x="1133" y="-125" font-family="Helvetica,sans-Serif" font-size="10.00">glm/mat4x4.hpp</text>
</a>
</g>
</g>
<!-- Node21&#45;&gt;Node23 -->
<g id="edge30" class="edge">
<title>Node21&#45;&gt;Node23</title>
<path fill="none" stroke="midnightblue" d="M967.36,-184.87C1000.99,-173.42 1060.48,-153.18 1098.26,-140.32"/>
<polygon fill="midnightblue" stroke="midnightblue" points="1099.5,-143.6 1107.84,-137.06 1097.24,-136.97 1099.5,-143.6"/>
</g>
<!-- Node24 -->
<g id="node24" class="node">
<title>Node24</title>
<g id="a_node24"><a xlink:title=" ">
<polygon fill="white" stroke="#bfbfbf" points="1194,-118 1194,-137 1300,-137 1300,-118 1194,-118"/>
<text text-anchor="middle" x="1247" y="-125" font-family="Helvetica,sans-Serif" font-size="10.00">glm/gtc/type_ptr.hpp</text>
</a>
</g>
</g>
<!-- Node21&#45;&gt;Node24 -->
<g id="edge31" class="edge">
<title>Node21&#45;&gt;Node24</title>
<path fill="none" stroke="midnightblue" d="M974.18,-184.97C982.26,-182.92 990.93,-180.81 999,-179 1081.17,-160.61 1102.66,-160.59 1185,-143 1190.41,-141.85 1196.06,-140.59 1201.67,-139.31"/>
<polygon fill="midnightblue" stroke="midnightblue" points="1202.68,-142.67 1211.64,-137.02 1201.11,-135.85 1202.68,-142.67"/>
</g>
<!-- Node25 -->
<g id="node25" class="node">
<title>Node25</title>
<g id="a_node25"><a xlink:title=" ">
<polygon fill="white" stroke="#bfbfbf" points="982,-118 982,-137 1072,-137 1072,-118 982,-118"/>
<text text-anchor="middle" x="1027" y="-125" font-family="Helvetica,sans-Serif" font-size="10.00">boost/variant.hpp</text>
</a>
</g>
</g>
<!-- Node21&#45;&gt;Node25 -->
<g id="edge32" class="edge">
<title>Node21&#45;&gt;Node25</title>
<path fill="none" stroke="midnightblue" d="M953.46,-184.73C967.36,-174.11 990.98,-156.05 1007.69,-143.26"/>
<polygon fill="midnightblue" stroke="midnightblue" points="1009.9,-145.98 1015.72,-137.13 1005.65,-140.42 1009.9,-145.98"/>
</g>
<!-- Node26&#45;&gt;Node4 -->
<g id="edge35" class="edge">
<title>Node26&#45;&gt;Node4</title>
<path fill="none" stroke="midnightblue" d="M815.43,-184.98C839.57,-175.26 879.91,-158.68 914,-143 915,-142.54 916.01,-142.07 917.03,-141.59"/>
<polygon fill="midnightblue" stroke="midnightblue" points="918.76,-144.64 926.22,-137.12 915.7,-138.34 918.76,-144.64"/>
</g>
<!-- Node26&#45;&gt;Node17 -->
<g id="edge37" class="edge">
<title>Node26&#45;&gt;Node17</title>
<path fill="none" stroke="midnightblue" d="M793.66,-184.95C792.69,-169.31 788.87,-135.52 774,-112 749.2,-72.79 703.94,-41.73 675.5,-24.89"/>
<polygon fill="midnightblue" stroke="midnightblue" points="676.96,-21.7 666.55,-19.73 673.47,-27.76 676.96,-21.7"/>
</g>
<!-- Node26&#45;&gt;Node22 -->
<g id="edge34" class="edge">
<title>Node26&#45;&gt;Node22</title>
<path fill="none" stroke="midnightblue" d="M803.31,-184.73C814.27,-174.4 832.71,-157.04 846.19,-144.33"/>
<polygon fill="midnightblue" stroke="midnightblue" points="848.96,-146.53 853.84,-137.13 844.16,-141.44 848.96,-146.53"/>
</g>
<!-- Node27 -->
<g id="node27" class="node">
<title>Node27</title>
<g id="a_node27"><a xlink:title=" ">
<polygon fill="white" stroke="#bfbfbf" points="715.5,-118 715.5,-137 764.5,-137 764.5,-118 715.5,-118"/>
<text text-anchor="middle" x="740" y="-125" font-family="Helvetica,sans-Serif" font-size="10.00">fstream</text>
</a>
</g>
</g>
<!-- Node26&#45;&gt;Node27 -->
<g id="edge36" class="edge">
<title>Node26&#45;&gt;Node27</title>
<path fill="none" stroke="midnightblue" d="M786.72,-184.73C778.3,-174.6 764.25,-157.69 753.75,-145.06"/>
<polygon fill="midnightblue" stroke="midnightblue" points="756.25,-142.58 747.17,-137.13 750.87,-147.06 756.25,-142.58"/>
</g>
<!-- Node28 -->
<g id="node28" class="node">
<title>Node28</title>
<g id="a_node28"><a xlink:href="_utils_8h.html" target="_top" xlink:title=" ">
<polygon fill="white" stroke="black" points="602.5,-112.5 602.5,-142.5 697.5,-142.5 697.5,-112.5 602.5,-112.5"/>
<text text-anchor="start" x="610.5" y="-130.5" font-family="Helvetica,sans-Serif" font-size="10.00">kryne&#45;engine/Utils</text>
<text text-anchor="middle" x="650" y="-119.5" font-family="Helvetica,sans-Serif" font-size="10.00">/Utils.h</text>
</a>
</g>
</g>
<!-- Node26&#45;&gt;Node28 -->
<g id="edge38" class="edge">
<title>Node26&#45;&gt;Node28</title>
<path fill="none" stroke="midnightblue" d="M774.88,-184.87C753.46,-175.2 718.12,-159.25 690.49,-146.78"/>
<polygon fill="midnightblue" stroke="midnightblue" points="691.63,-143.45 681.08,-142.53 688.75,-149.83 691.63,-143.45"/>
</g>
<!-- Node29 -->
<g id="node29" class="node">
<title>Node29</title>
<g id="a_node29"><a xlink:href="_string_utils_8hpp.html" target="_top" xlink:title=" ">
<polygon fill="white" stroke="black" points="610,-56.5 610,-75.5 690,-75.5 690,-56.5 610,-56.5"/>
<text text-anchor="middle" x="650" y="-63.5" font-family="Helvetica,sans-Serif" font-size="10.00">StringUtils.hpp</text>
</a>
</g>
</g>
<!-- Node28&#45;&gt;Node29 -->
<g id="edge39" class="edge">
<title>Node28&#45;&gt;Node29</title>
<path fill="none" stroke="midnightblue" d="M650,-112.4C650,-104.47 650,-94.46 650,-85.86"/>
<polygon fill="midnightblue" stroke="midnightblue" points="653.5,-85.66 650,-75.66 646.5,-85.66 653.5,-85.66"/>
</g>
<!-- Node30 -->
<g id="node30" class="node">
<title>Node30</title>
<g id="a_node30"><a xlink:href="_vector_mapping_8hpp.html" target="_top" xlink:title=" ">
<polygon fill="white" stroke="black" points="389.5,-56.5 389.5,-75.5 490.5,-75.5 490.5,-56.5 389.5,-56.5"/>
<text text-anchor="middle" x="440" y="-63.5" font-family="Helvetica,sans-Serif" font-size="10.00">VectorMapping.hpp</text>
</a>
</g>
</g>
<!-- Node28&#45;&gt;Node30 -->
<g id="edge41" class="edge">
<title>Node28&#45;&gt;Node30</title>
<path fill="none" stroke="midnightblue" d="M602.35,-113C565.45,-102.54 514.92,-88.23 480.09,-78.36"/>
<polygon fill="midnightblue" stroke="midnightblue" points="480.83,-74.93 470.26,-75.57 478.92,-81.67 480.83,-74.93"/>
</g>
<!-- Node29&#45;&gt;Node17 -->
<g id="edge40" class="edge">
<title>Node29&#45;&gt;Node17</title>
<path fill="none" stroke="midnightblue" d="M650,-56.08C650,-49.01 650,-38.86 650,-29.99"/>
<polygon fill="midnightblue" stroke="midnightblue" points="653.5,-29.75 650,-19.75 646.5,-29.75 653.5,-29.75"/>
</g>
<!-- Node30&#45;&gt;Node2 -->
<g id="edge42" class="edge">
<title>Node30&#45;&gt;Node2</title>
<path fill="none" stroke="midnightblue" d="M415.92,-56.44C389.56,-47.08 347.24,-32.05 318.56,-21.86"/>
<polygon fill="midnightblue" stroke="midnightblue" points="319.63,-18.52 309.04,-18.47 317.29,-25.12 319.63,-18.52"/>
</g>
<!-- Node31 -->
<g id="node31" class="node">
<title>Node31</title>
<g id="a_node31"><a xlink:title=" ">
<polygon fill="white" stroke="#bfbfbf" points="383.5,-0.5 383.5,-19.5 496.5,-19.5 496.5,-0.5 383.5,-0.5"/>
<text text-anchor="middle" x="440" y="-7.5" font-family="Helvetica,sans-Serif" font-size="10.00">glm/detail/qualifier.hpp</text>
</a>
</g>
</g>
<!-- Node30&#45;&gt;Node31 -->
<g id="edge43" class="edge">
<title>Node30&#45;&gt;Node31</title>
<path fill="none" stroke="midnightblue" d="M440,-56.08C440,-49.01 440,-38.86 440,-29.99"/>
<polygon fill="midnightblue" stroke="midnightblue" points="443.5,-29.75 440,-19.75 436.5,-29.75 443.5,-29.75"/>
</g>
</g>
</svg>
