<?xml version="1.0" encoding="UTF-8" standalone="no"?>
<!DOCTYPE svg PUBLIC "-//W3C//DTD SVG 1.1//EN"
 "http://www.w3.org/Graphics/SVG/1.1/DTD/svg11.dtd">
<!-- Generated by graphviz version 2.44.1 (20200629.0846)
 -->
<!-- Title: kryne&#45;engine/src/3DObjects/Model/ModelMesh.cpp Pages: 1 -->
<svg width="1096pt" height="598pt"
 viewBox="0.00 0.00 1096.00 598.00" xmlns="http://www.w3.org/2000/svg" xmlns:xlink="http://www.w3.org/1999/xlink">
<g id="graph0" class="graph" transform="scale(1 1) rotate(0) translate(4 594)">
<title>kryne&#45;engine/src/3DObjects/Model/ModelMesh.cpp</title>
<polygon fill="white" stroke="transparent" points="-4,4 -4,-594 1092,-594 1092,4 -4,4"/>
<!-- Node1 -->
<g id="node1" class="node">
<title>Node1</title>
<g id="a_node1"><a xlink:title=" ">
<polygon fill="#bfbfbf" stroke="black" points="467.5,-559.5 467.5,-589.5 604.5,-589.5 604.5,-559.5 467.5,-559.5"/>
<text text-anchor="start" x="475.5" y="-577.5" font-family="Helvetica,sans-Serif" font-size="10.00">kryne&#45;engine/src/3DObjects</text>
<text text-anchor="middle" x="536" y="-566.5" font-family="Helvetica,sans-Serif" font-size="10.00">/Model/ModelMesh.cpp</text>
</a>
</g>
</g>
<!-- Node2 -->
<g id="node2" class="node">
<title>Node2</title>
<g id="a_node2"><a xlink:href="_model_mesh_8h.html" target="_top" xlink:title=" ">
<polygon fill="white" stroke="black" points="475.5,-492.5 475.5,-522.5 596.5,-522.5 596.5,-492.5 475.5,-492.5"/>
<text text-anchor="start" x="483.5" y="-510.5" font-family="Helvetica,sans-Serif" font-size="10.00">kryne&#45;engine/3DObjects</text>
<text text-anchor="middle" x="536" y="-499.5" font-family="Helvetica,sans-Serif" font-size="10.00">/Model/ModelMesh.h</text>
</a>
</g>
</g>
<!-- Node1&#45;&gt;Node2 -->
<g id="edge1" class="edge">
<title>Node1&#45;&gt;Node2</title>
<path fill="none" stroke="midnightblue" d="M536,-559.4C536,-551.64 536,-541.81 536,-532.86"/>
<polygon fill="midnightblue" stroke="midnightblue" points="539.5,-532.58 536,-522.58 532.5,-532.58 539.5,-532.58"/>
</g>
<!-- Node3 -->
<g id="node3" class="node">
<title>Node3</title>
<g id="a_node3"><a xlink:title=" ">
<polygon fill="white" stroke="#bfbfbf" points="0,-297 0,-316 42,-316 42,-297 0,-297"/>
<text text-anchor="middle" x="21" y="-304" font-family="Helvetica,sans-Serif" font-size="10.00">vector</text>
</a>
</g>
</g>
<!-- Node2&#45;&gt;Node3 -->
<g id="edge2" class="edge">
<title>Node2&#45;&gt;Node3</title>
<path fill="none" stroke="midnightblue" d="M490.11,-492.41C458.7,-482.6 416.16,-469 379,-456 230.36,-404 193.88,-388.21 51,-322 49.85,-321.47 48.67,-320.92 47.49,-320.36"/>
<polygon fill="midnightblue" stroke="midnightblue" points="48.94,-317.17 38.4,-316.03 45.93,-323.49 48.94,-317.17"/>
</g>
<!-- Node4 -->
<g id="node4" class="node">
<title>Node4</title>
<g id="a_node4"><a xlink:title=" ">
<polygon fill="white" stroke="#bfbfbf" points="610.5,-431 610.5,-450 645.5,-450 645.5,-431 610.5,-431"/>
<text text-anchor="middle" x="628" y="-438" font-family="Helvetica,sans-Serif" font-size="10.00">map</text>
</a>
</g>
</g>
<!-- Node2&#45;&gt;Node4 -->
<g id="edge3" class="edge">
<title>Node2&#45;&gt;Node4</title>
<path fill="none" stroke="midnightblue" d="M555.96,-492.4C571.25,-481.6 592.25,-466.76 607.64,-455.89"/>
<polygon fill="midnightblue" stroke="midnightblue" points="609.81,-458.64 615.96,-450.01 605.77,-452.92 609.81,-458.64"/>
</g>
<!-- Node5 -->
<g id="node5" class="node">
<title>Node5</title>
<g id="a_node5"><a xlink:title=" ">
<polygon fill="white" stroke="#bfbfbf" points="558.5,-297 558.5,-316 599.5,-316 599.5,-297 558.5,-297"/>
<text text-anchor="middle" x="579" y="-304" font-family="Helvetica,sans-Serif" font-size="10.00">string</text>
</a>
</g>
</g>
<!-- Node2&#45;&gt;Node5 -->
<g id="edge4" class="edge">
<title>Node2&#45;&gt;Node5</title>
<path fill="none" stroke="midnightblue" d="M507.09,-492.45C493.15,-483.99 477.8,-471.78 470,-456 463.9,-443.65 464.97,-437.83 470,-425 487.62,-380.09 531.38,-342.11 557.78,-322.28"/>
<polygon fill="midnightblue" stroke="midnightblue" points="560,-324.99 566.01,-316.26 555.87,-319.34 560,-324.99"/>
</g>
<!-- Node6 -->
<g id="node6" class="node">
<title>Node6</title>
<g id="a_node6"><a xlink:title=" ">
<polygon fill="white" stroke="#bfbfbf" points="664,-431 664,-450 750,-450 750,-431 664,-431"/>
<text text-anchor="middle" x="707" y="-438" font-family="Helvetica,sans-Serif" font-size="10.00">assimp/scene.h</text>
</a>
</g>
</g>
<!-- Node2&#45;&gt;Node6 -->
<g id="edge5" class="edge">
<title>Node2&#45;&gt;Node6</title>
<path fill="none" stroke="midnightblue" d="M573.1,-492.4C603.51,-480.84 646.08,-464.66 675,-453.66"/>
<polygon fill="midnightblue" stroke="midnightblue" points="676.52,-456.83 684.62,-450.01 674.03,-450.29 676.52,-456.83"/>
</g>
<!-- Node7 -->
<g id="node7" class="node">
<title>Node7</title>
<g id="a_node7"><a xlink:title=" ">
<polygon fill="white" stroke="#bfbfbf" points="768,-431 768,-450 838,-450 838,-431 768,-431"/>
<text text-anchor="middle" x="803" y="-438" font-family="Helvetica,sans-Serif" font-size="10.00">glm/glm.hpp</text>
</a>
</g>
</g>
<!-- Node2&#45;&gt;Node7 -->
<g id="edge6" class="edge">
<title>Node2&#45;&gt;Node7</title>
<path fill="none" stroke="midnightblue" d="M596.97,-494.34C642.01,-484.95 704.68,-471.06 759,-456 762.18,-455.12 765.47,-454.15 768.75,-453.14"/>
<polygon fill="midnightblue" stroke="midnightblue" points="769.99,-456.42 778.46,-450.05 767.87,-449.75 769.99,-456.42"/>
</g>
<!-- Node8 -->
<g id="node8" class="node">
<title>Node8</title>
<g id="a_node8"><a xlink:href="_vertex_array_8h.html" target="_top" xlink:title=" ">
<polygon fill="white" stroke="black" points="211.5,-358.5 211.5,-388.5 338.5,-388.5 338.5,-358.5 211.5,-358.5"/>
<text text-anchor="start" x="219.5" y="-376.5" font-family="Helvetica,sans-Serif" font-size="10.00">kryne&#45;engine/Core/Vertex</text>
<text text-anchor="middle" x="275" y="-365.5" font-family="Helvetica,sans-Serif" font-size="10.00">Array.h</text>
</a>
</g>
</g>
<!-- Node2&#45;&gt;Node8 -->
<g id="edge7" class="edge">
<title>Node2&#45;&gt;Node8</title>
<path fill="none" stroke="midnightblue" d="M508.07,-492.37C460.68,-468.41 364.54,-419.78 311.75,-393.09"/>
<polygon fill="midnightblue" stroke="midnightblue" points="313.23,-389.91 302.73,-388.52 310.07,-396.16 313.23,-389.91"/>
</g>
<!-- Node15 -->
<g id="node15" class="node">
<title>Node15</title>
<g id="a_node15"><a xlink:href="_texture2_d_8h.html" target="_top" xlink:title=" ">
<polygon fill="white" stroke="black" points="479.5,-425.5 479.5,-455.5 592.5,-455.5 592.5,-425.5 479.5,-425.5"/>
<text text-anchor="start" x="487.5" y="-443.5" font-family="Helvetica,sans-Serif" font-size="10.00">kryne&#45;engine/Textures</text>
<text text-anchor="middle" x="536" y="-432.5" font-family="Helvetica,sans-Serif" font-size="10.00">/Texture2D.h</text>
</a>
</g>
</g>
<!-- Node2&#45;&gt;Node15 -->
<g id="edge15" class="edge">
<title>Node2&#45;&gt;Node15</title>
<path fill="none" stroke="midnightblue" d="M536,-492.4C536,-484.64 536,-474.81 536,-465.86"/>
<polygon fill="midnightblue" stroke="midnightblue" points="539.5,-465.58 536,-455.58 532.5,-465.58 539.5,-465.58"/>
</g>
<!-- Node8&#45;&gt;Node3 -->
<g id="edge8" class="edge">
<title>Node8&#45;&gt;Node3</title>
<path fill="none" stroke="midnightblue" d="M211.16,-362.12C165.74,-353.78 103.69,-340.4 51,-322 49.39,-321.44 47.74,-320.81 46.1,-320.14"/>
<polygon fill="midnightblue" stroke="midnightblue" points="47.46,-316.91 36.9,-316.02 44.6,-323.3 47.46,-316.91"/>
</g>
<!-- Node9 -->
<g id="node9" class="node">
<title>Node9</title>
<g id="a_node9"><a xlink:title=" ">
<polygon fill="white" stroke="#bfbfbf" points="60,-297 60,-316 112,-316 112,-297 60,-297"/>
<text text-anchor="middle" x="86" y="-304" font-family="Helvetica,sans-Serif" font-size="10.00">stdarg.h</text>
</a>
</g>
</g>
<!-- Node8&#45;&gt;Node9 -->
<g id="edge9" class="edge">
<title>Node8&#45;&gt;Node9</title>
<path fill="none" stroke="midnightblue" d="M229.2,-358.48C198.41,-348.81 157.01,-335.34 121,-322 119.15,-321.31 117.25,-320.59 115.34,-319.85"/>
<polygon fill="midnightblue" stroke="midnightblue" points="116.47,-316.53 105.89,-316.04 113.86,-323.02 116.47,-316.53"/>
</g>
<!-- Node10 -->
<g id="node10" class="node">
<title>Node10</title>
<g id="a_node10"><a xlink:title=" ">
<polygon fill="white" stroke="#bfbfbf" points="130,-297 130,-316 178,-316 178,-297 130,-297"/>
<text text-anchor="middle" x="154" y="-304" font-family="Helvetica,sans-Serif" font-size="10.00">stdlib.h</text>
</a>
</g>
</g>
<!-- Node8&#45;&gt;Node10 -->
<g id="edge10" class="edge">
<title>Node8&#45;&gt;Node10</title>
<path fill="none" stroke="midnightblue" d="M248.74,-358.4C227.98,-347.24 199.2,-331.78 178.82,-320.83"/>
<polygon fill="midnightblue" stroke="midnightblue" points="180.3,-317.66 169.84,-316.01 176.99,-323.82 180.3,-317.66"/>
</g>
<!-- Node11 -->
<g id="node11" class="node">
<title>Node11</title>
<g id="a_node11"><a xlink:title=" ">
<polygon fill="white" stroke="#bfbfbf" points="380,-297 380,-316 444,-316 444,-297 380,-297"/>
<text text-anchor="middle" x="412" y="-304" font-family="Helvetica,sans-Serif" font-size="10.00">glad/glad.h</text>
</a>
</g>
</g>
<!-- Node8&#45;&gt;Node11 -->
<g id="edge11" class="edge">
<title>Node8&#45;&gt;Node11</title>
<path fill="none" stroke="midnightblue" d="M304.73,-358.4C328.55,-347.09 361.71,-331.36 384.83,-320.39"/>
<polygon fill="midnightblue" stroke="midnightblue" points="386.54,-323.46 394.07,-316.01 383.53,-317.13 386.54,-323.46"/>
</g>
<!-- Node12 -->
<g id="node12" class="node">
<title>Node12</title>
<g id="a_node12"><a xlink:title=" ">
<polygon fill="white" stroke="#bfbfbf" points="462,-297 462,-316 540,-316 540,-297 462,-297"/>
<text text-anchor="middle" x="501" y="-304" font-family="Helvetica,sans-Serif" font-size="10.00">GLFW/glfw3.h</text>
</a>
</g>
</g>
<!-- Node8&#45;&gt;Node12 -->
<g id="edge12" class="edge">
<title>Node8&#45;&gt;Node12</title>
<path fill="none" stroke="midnightblue" d="M325.32,-358.47C361,-348.46 410,-334.59 453,-322 456.36,-321.02 459.85,-319.98 463.34,-318.94"/>
<polygon fill="midnightblue" stroke="midnightblue" points="464.53,-322.24 473.1,-316.01 462.52,-315.53 464.53,-322.24"/>
</g>
<!-- Node13 -->
<g id="node13" class="node">
<title>Node13</title>
<g id="a_node13"><a xlink:title=" ">
<polygon fill="white" stroke="#bfbfbf" points="196,-297 196,-316 270,-316 270,-297 196,-297"/>
<text text-anchor="middle" x="233" y="-304" font-family="Helvetica,sans-Serif" font-size="10.00">glm/vec2.hpp</text>
</a>
</g>
</g>
<!-- Node8&#45;&gt;Node13 -->
<g id="edge13" class="edge">
<title>Node8&#45;&gt;Node13</title>
<path fill="none" stroke="midnightblue" d="M265.89,-358.4C259.53,-348.56 251.01,-335.38 244.24,-324.89"/>
<polygon fill="midnightblue" stroke="midnightblue" points="246.98,-322.69 238.62,-316.19 241.11,-326.49 246.98,-322.69"/>
</g>
<!-- Node14 -->
<g id="node14" class="node">
<title>Node14</title>
<g id="a_node14"><a xlink:title=" ">
<polygon fill="white" stroke="#bfbfbf" points="288,-297 288,-316 362,-316 362,-297 288,-297"/>
<text text-anchor="middle" x="325" y="-304" font-family="Helvetica,sans-Serif" font-size="10.00">glm/vec3.hpp</text>
</a>
</g>
</g>
<!-- Node8&#45;&gt;Node14 -->
<g id="edge14" class="edge">
<title>Node8&#45;&gt;Node14</title>
<path fill="none" stroke="midnightblue" d="M285.85,-358.4C293.57,-348.36 303.97,-334.84 312.11,-324.25"/>
<polygon fill="midnightblue" stroke="midnightblue" points="314.99,-326.25 318.31,-316.19 309.44,-321.99 314.99,-326.25"/>
</g>
<!-- Node16 -->
<g id="node16" class="node">
<title>Node16</title>
<g id="a_node16"><a xlink:href="_texture_8h.html" target="_top" xlink:title=" ">
<polygon fill="white" stroke="black" points="550.5,-364 550.5,-383 607.5,-383 607.5,-364 550.5,-364"/>
<text text-anchor="middle" x="579" y="-371" font-family="Helvetica,sans-Serif" font-size="10.00">Texture.h</text>
</a>
</g>
</g>
<!-- Node15&#45;&gt;Node16 -->
<g id="edge16" class="edge">
<title>Node15&#45;&gt;Node16</title>
<path fill="none" stroke="midnightblue" d="M545.33,-425.4C551.9,-415.46 560.74,-402.11 567.71,-391.57"/>
<polygon fill="midnightblue" stroke="midnightblue" points="570.65,-393.47 573.25,-383.19 564.81,-389.6 570.65,-393.47"/>
</g>
<!-- Node16&#45;&gt;Node5 -->
<g id="edge18" class="edge">
<title>Node16&#45;&gt;Node5</title>
<path fill="none" stroke="midnightblue" d="M579,-363.73C579,-354.18 579,-338.62 579,-326.28"/>
<polygon fill="midnightblue" stroke="midnightblue" points="582.5,-326.13 579,-316.13 575.5,-326.13 582.5,-326.13"/>
</g>
<!-- Node16&#45;&gt;Node11 -->
<g id="edge24" class="edge">
<title>Node16&#45;&gt;Node11</title>
<path fill="none" stroke="midnightblue" d="M556.82,-363.87C527.8,-352.57 476.73,-332.7 443.65,-319.82"/>
<polygon fill="midnightblue" stroke="midnightblue" points="444.59,-316.43 434,-316.06 442.05,-322.95 444.59,-316.43"/>
</g>
<!-- Node16&#45;&gt;Node12 -->
<g id="edge25" class="edge">
<title>Node16&#45;&gt;Node12</title>
<path fill="none" stroke="midnightblue" d="M568.48,-363.73C555.85,-353.21 534.46,-335.38 519.14,-322.62"/>
<polygon fill="midnightblue" stroke="midnightblue" points="521.28,-319.84 511.35,-316.13 516.79,-325.22 521.28,-319.84"/>
</g>
<!-- Node16&#45;&gt;Node13 -->
<g id="edge22" class="edge">
<title>Node16&#45;&gt;Node13</title>
<path fill="none" stroke="midnightblue" d="M550.19,-369C496.43,-362.18 377.34,-345.66 279,-322 275.37,-321.13 271.6,-320.12 267.86,-319.04"/>
<polygon fill="midnightblue" stroke="midnightblue" points="268.72,-315.65 258.13,-316.11 266.7,-322.35 268.72,-315.65"/>
</g>
<!-- Node16&#45;&gt;Node14 -->
<g id="edge23" class="edge">
<title>Node16&#45;&gt;Node14</title>
<path fill="none" stroke="midnightblue" d="M550.24,-366.16C509.96,-357.14 434.54,-339.71 371,-322 367.67,-321.07 364.22,-320.07 360.78,-319.03"/>
<polygon fill="midnightblue" stroke="midnightblue" points="361.77,-315.68 351.18,-316.09 359.71,-322.37 361.77,-315.68"/>
</g>
<!-- Node17 -->
<g id="node17" class="node">
<title>Node17</title>
<g id="a_node17"><a xlink:title=" ">
<polygon fill="white" stroke="#bfbfbf" points="981,-297 981,-316 1051,-316 1051,-297 981,-297"/>
<text text-anchor="middle" x="1016" y="-304" font-family="Helvetica,sans-Serif" font-size="10.00">stb_image.h</text>
</a>
</g>
</g>
<!-- Node16&#45;&gt;Node17 -->
<g id="edge17" class="edge">
<title>Node16&#45;&gt;Node17</title>
<path fill="none" stroke="midnightblue" d="M607.93,-370.68C673.43,-366.14 837.83,-352.44 972,-322 975.67,-321.17 979.46,-320.16 983.22,-319.06"/>
<polygon fill="midnightblue" stroke="midnightblue" points="984.44,-322.34 992.94,-316.01 982.35,-315.66 984.44,-322.34"/>
</g>
<!-- Node18 -->
<g id="node18" class="node">
<title>Node18</title>
<g id="a_node18"><a xlink:title=" ">
<polygon fill="white" stroke="#bfbfbf" points="1034,-56.5 1034,-75.5 1088,-75.5 1088,-56.5 1034,-56.5"/>
<text text-anchor="middle" x="1061" y="-63.5" font-family="Helvetica,sans-Serif" font-size="10.00">iostream</text>
</a>
</g>
</g>
<!-- Node16&#45;&gt;Node18 -->
<g id="edge19" class="edge">
<title>Node16&#45;&gt;Node18</title>
<path fill="none" stroke="midnightblue" d="M607.71,-371.38C706.13,-367.28 1025.73,-351.77 1060,-322 1086.29,-299.17 1079,-280.82 1079,-246 1079,-246 1079,-246 1079,-188 1079,-151.5 1070.89,-109.47 1065.55,-85.79"/>
<polygon fill="midnightblue" stroke="midnightblue" points="1068.89,-84.68 1063.21,-75.74 1062.07,-86.27 1068.89,-84.68"/>
</g>
<!-- Node19 -->
<g id="node19" class="node">
<title>Node19</title>
<g id="a_node19"><a xlink:title=" ">
<polygon fill="white" stroke="#bfbfbf" points="748.5,-297 748.5,-316 855.5,-316 855.5,-297 748.5,-297"/>
<text text-anchor="middle" x="802" y="-304" font-family="Helvetica,sans-Serif" font-size="10.00">boost/filesystem.hpp</text>
</a>
</g>
</g>
<!-- Node16&#45;&gt;Node19 -->
<g id="edge20" class="edge">
<title>Node16&#45;&gt;Node19</title>
<path fill="none" stroke="midnightblue" d="M607.7,-364.14C647.2,-352.62 718.48,-331.84 762.85,-318.91"/>
<polygon fill="midnightblue" stroke="midnightblue" points="764.08,-322.2 772.71,-316.04 762.13,-315.48 764.08,-322.2"/>
</g>
<!-- Node20 -->
<g id="node20" class="node">
<title>Node20</title>
<g id="a_node20"><a xlink:title=" ">
<polygon fill="white" stroke="#bfbfbf" points="873.5,-297 873.5,-316 962.5,-316 962.5,-297 873.5,-297"/>
<text text-anchor="middle" x="918" y="-304" font-family="Helvetica,sans-Serif" font-size="10.00">boost/format.hpp</text>
</a>
</g>
</g>
<!-- Node16&#45;&gt;Node20 -->
<g id="edge21" class="edge">
<title>Node16&#45;&gt;Node20</title>
<path fill="none" stroke="midnightblue" d="M607.89,-368.23C659.54,-360.41 771.05,-342.67 864,-322 868.67,-320.96 873.54,-319.79 878.37,-318.56"/>
<polygon fill="midnightblue" stroke="midnightblue" points="879.33,-321.93 888.12,-316.02 877.56,-315.16 879.33,-321.93"/>
</g>
<!-- Node21 -->
<g id="node21" class="node">
<title>Node21</title>
<g id="a_node21"><a xlink:href="_dispatcher_8h.html" target="_top" xlink:title=" ">
<polygon fill="white" stroke="black" points="617.5,-291.5 617.5,-321.5 730.5,-321.5 730.5,-291.5 617.5,-291.5"/>
<text text-anchor="start" x="625.5" y="-309.5" font-family="Helvetica,sans-Serif" font-size="10.00">kryne&#45;engine/Dispatch</text>
<text text-anchor="middle" x="674" y="-298.5" font-family="Helvetica,sans-Serif" font-size="10.00">/Dispatcher.h</text>
</a>
</g>
</g>
<!-- Node16&#45;&gt;Node21 -->
<g id="edge26" class="edge">
<title>Node16&#45;&gt;Node21</title>
<path fill="none" stroke="midnightblue" d="M591.81,-363.73C605.39,-354.44 627.29,-339.46 645.07,-327.3"/>
<polygon fill="midnightblue" stroke="midnightblue" points="647.13,-330.12 653.41,-321.59 643.18,-324.35 647.13,-330.12"/>
</g>
<!-- Node22 -->
<g id="node22" class="node">
<title>Node22</title>
<g id="a_node22"><a xlink:href="_synchronizable_pool_8h.html" target="_top" xlink:title=" ">
<polygon fill="white" stroke="black" points="627.5,-179.5 627.5,-198.5 738.5,-198.5 738.5,-179.5 627.5,-179.5"/>
<text text-anchor="middle" x="683" y="-186.5" font-family="Helvetica,sans-Serif" font-size="10.00">SynchronizablePool.h</text>
</a>
</g>
</g>
<!-- Node21&#45;&gt;Node22 -->
<g id="edge27" class="edge">
<title>Node21&#45;&gt;Node22</title>
<path fill="none" stroke="midnightblue" d="M675.1,-291.34C676.72,-270.62 679.73,-232.02 681.53,-208.9"/>
<polygon fill="midnightblue" stroke="midnightblue" points="685.04,-208.91 682.32,-198.67 678.06,-208.37 685.04,-208.91"/>
</g>
<!-- Node32 -->
<g id="node32" class="node">
<title>Node32</title>
<g id="a_node32"><a xlink:href="_runner_pool_8h.html" target="_top" xlink:title=" ">
<polygon fill="white" stroke="black" points="720.5,-235.5 720.5,-254.5 795.5,-254.5 795.5,-235.5 720.5,-235.5"/>
<text text-anchor="middle" x="758" y="-242.5" font-family="Helvetica,sans-Serif" font-size="10.00">RunnerPool.h</text>
</a>
</g>
</g>
<!-- Node21&#45;&gt;Node32 -->
<g id="edge38" class="edge">
<title>Node21&#45;&gt;Node32</title>
<path fill="none" stroke="midnightblue" d="M693.91,-291.4C706.99,-282.13 724.08,-270.03 737.32,-260.65"/>
<polygon fill="midnightblue" stroke="midnightblue" points="739.64,-263.29 745.78,-254.66 735.59,-257.58 739.64,-263.29"/>
</g>
<!-- Node33 -->
<g id="node33" class="node">
<title>Node33</title>
<g id="a_node33"><a xlink:href="_main_pool_8h.html" target="_top" xlink:title=" ">
<polygon fill="white" stroke="black" points="589.5,-235.5 589.5,-254.5 654.5,-254.5 654.5,-235.5 589.5,-235.5"/>
<text text-anchor="middle" x="622" y="-242.5" font-family="Helvetica,sans-Serif" font-size="10.00">MainPool.h</text>
</a>
</g>
</g>
<!-- Node21&#45;&gt;Node33 -->
<g id="edge40" class="edge">
<title>Node21&#45;&gt;Node33</title>
<path fill="none" stroke="midnightblue" d="M661.68,-291.4C654.04,-282.66 644.21,-271.41 636.24,-262.3"/>
<polygon fill="midnightblue" stroke="midnightblue" points="638.78,-259.88 629.57,-254.66 633.51,-264.49 638.78,-259.88"/>
</g>
<!-- Node23 -->
<g id="node23" class="node">
<title>Node23</title>
<g id="a_node23"><a xlink:href="_thread_pool_8h.html" target="_top" xlink:title=" ">
<polygon fill="white" stroke="black" points="731,-118 731,-137 805,-137 805,-118 731,-118"/>
<text text-anchor="middle" x="768" y="-125" font-family="Helvetica,sans-Serif" font-size="10.00">ThreadPool.h</text>
</a>
</g>
</g>
<!-- Node22&#45;&gt;Node23 -->
<g id="edge28" class="edge">
<title>Node22&#45;&gt;Node23</title>
<path fill="none" stroke="midnightblue" d="M695.18,-179.48C708.81,-169.93 731.13,-154.31 747.47,-142.87"/>
<polygon fill="midnightblue" stroke="midnightblue" points="749.66,-145.61 755.84,-137.01 745.64,-139.88 749.66,-145.61"/>
</g>
<!-- Node23&#45;&gt;Node18 -->
<g id="edge34" class="edge">
<title>Node23&#45;&gt;Node18</title>
<path fill="none" stroke="midnightblue" d="M805.11,-118.96C861.36,-107.54 967.58,-85.97 1023.85,-74.54"/>
<polygon fill="midnightblue" stroke="midnightblue" points="1024.65,-77.95 1033.76,-72.53 1023.26,-71.09 1024.65,-77.95"/>
</g>
<!-- Node24 -->
<g id="node24" class="node">
<title>Node24</title>
<g id="a_node24"><a xlink:title=" ">
<polygon fill="white" stroke="#bfbfbf" points="963,-56.5 963,-75.5 1007,-75.5 1007,-56.5 963,-56.5"/>
<text text-anchor="middle" x="985" y="-63.5" font-family="Helvetica,sans-Serif" font-size="10.00">thread</text>
</a>
</g>
</g>
<!-- Node23&#45;&gt;Node24 -->
<g id="edge29" class="edge">
<title>Node23&#45;&gt;Node24</title>
<path fill="none" stroke="midnightblue" d="M800.3,-117.91C835.48,-108.52 893.65,-92.87 953.07,-76.23"/>
<polygon fill="midnightblue" stroke="midnightblue" points="954.32,-79.51 963,-73.44 952.42,-72.77 954.32,-79.51"/>
</g>
<!-- Node25 -->
<g id="node25" class="node">
<title>Node25</title>
<g id="a_node25"><a xlink:title=" ">
<polygon fill="white" stroke="#bfbfbf" points="574,-56.5 574,-75.5 618,-75.5 618,-56.5 574,-56.5"/>
<text text-anchor="middle" x="596" y="-63.5" font-family="Helvetica,sans-Serif" font-size="10.00">mutex</text>
</a>
</g>
</g>
<!-- Node23&#45;&gt;Node25 -->
<g id="edge30" class="edge">
<title>Node23&#45;&gt;Node25</title>
<path fill="none" stroke="midnightblue" d="M743.36,-117.98C712.97,-107.46 661.25,-89.57 627.87,-78.02"/>
<polygon fill="midnightblue" stroke="midnightblue" points="628.74,-74.62 618.14,-74.66 626.45,-81.24 628.74,-74.62"/>
</g>
<!-- Node26 -->
<g id="node26" class="node">
<title>Node26</title>
<g id="a_node26"><a xlink:title=" ">
<polygon fill="white" stroke="#bfbfbf" points="636.5,-56.5 636.5,-75.5 729.5,-75.5 729.5,-56.5 636.5,-56.5"/>
<text text-anchor="middle" x="683" y="-63.5" font-family="Helvetica,sans-Serif" font-size="10.00">condition_variable</text>
</a>
</g>
</g>
<!-- Node23&#45;&gt;Node26 -->
<g id="edge31" class="edge">
<title>Node23&#45;&gt;Node26</title>
<path fill="none" stroke="midnightblue" d="M755.82,-117.98C742.19,-108.43 719.87,-92.81 703.53,-81.37"/>
<polygon fill="midnightblue" stroke="midnightblue" points="705.36,-78.38 695.16,-75.51 701.34,-84.11 705.36,-78.38"/>
</g>
<!-- Node27 -->
<g id="node27" class="node">
<title>Node27</title>
<g id="a_node27"><a xlink:title=" ">
<polygon fill="white" stroke="#bfbfbf" points="747.5,-56.5 747.5,-75.5 788.5,-75.5 788.5,-56.5 747.5,-56.5"/>
<text text-anchor="middle" x="768" y="-63.5" font-family="Helvetica,sans-Serif" font-size="10.00">future</text>
</a>
</g>
</g>
<!-- Node23&#45;&gt;Node27 -->
<g id="edge32" class="edge">
<title>Node23&#45;&gt;Node27</title>
<path fill="none" stroke="midnightblue" d="M768,-117.98C768,-109.58 768,-96.48 768,-85.66"/>
<polygon fill="midnightblue" stroke="midnightblue" points="771.5,-85.51 768,-75.51 764.5,-85.51 771.5,-85.51"/>
</g>
<!-- Node28 -->
<g id="node28" class="node">
<title>Node28</title>
<g id="a_node28"><a xlink:title=" ">
<polygon fill="white" stroke="#bfbfbf" points="807,-56.5 807,-75.5 859,-75.5 859,-56.5 807,-56.5"/>
<text text-anchor="middle" x="833" y="-63.5" font-family="Helvetica,sans-Serif" font-size="10.00">memory</text>
</a>
</g>
</g>
<!-- Node23&#45;&gt;Node28 -->
<g id="edge33" class="edge">
<title>Node23&#45;&gt;Node28</title>
<path fill="none" stroke="midnightblue" d="M777.31,-117.98C787.45,-108.7 803.86,-93.67 816.25,-82.33"/>
<polygon fill="midnightblue" stroke="midnightblue" points="818.69,-84.84 823.7,-75.51 813.96,-79.68 818.69,-84.84"/>
</g>
<!-- Node29 -->
<g id="node29" class="node">
<title>Node29</title>
<g id="a_node29"><a xlink:href="_base_pool_8h.html" target="_top" xlink:title=" ">
<polygon fill="white" stroke="black" points="877.5,-56.5 877.5,-75.5 944.5,-75.5 944.5,-56.5 877.5,-56.5"/>
<text text-anchor="middle" x="911" y="-63.5" font-family="Helvetica,sans-Serif" font-size="10.00">BasePool.h</text>
</a>
</g>
</g>
<!-- Node23&#45;&gt;Node29 -->
<g id="edge35" class="edge">
<title>Node23&#45;&gt;Node29</title>
<path fill="none" stroke="midnightblue" d="M788.49,-117.98C812.81,-107.86 853.55,-90.9 881.32,-79.35"/>
<polygon fill="midnightblue" stroke="midnightblue" points="882.66,-82.58 890.55,-75.51 879.97,-76.12 882.66,-82.58"/>
</g>
<!-- Node30 -->
<g id="node30" class="node">
<title>Node30</title>
<g id="a_node30"><a xlink:title=" ">
<polygon fill="white" stroke="#bfbfbf" points="854.5,-0.5 854.5,-19.5 897.5,-19.5 897.5,-0.5 854.5,-0.5"/>
<text text-anchor="middle" x="876" y="-7.5" font-family="Helvetica,sans-Serif" font-size="10.00">queue</text>
</a>
</g>
</g>
<!-- Node29&#45;&gt;Node30 -->
<g id="edge36" class="edge">
<title>Node29&#45;&gt;Node30</title>
<path fill="none" stroke="midnightblue" d="M905.22,-56.08C900.33,-48.53 893.17,-37.49 887.17,-28.23"/>
<polygon fill="midnightblue" stroke="midnightblue" points="890.05,-26.24 881.67,-19.75 884.17,-30.05 890.05,-26.24"/>
</g>
<!-- Node31 -->
<g id="node31" class="node">
<title>Node31</title>
<g id="a_node31"><a xlink:title=" ">
<polygon fill="white" stroke="#bfbfbf" points="916,-0.5 916,-19.5 974,-19.5 974,-0.5 916,-0.5"/>
<text text-anchor="middle" x="945" y="-7.5" font-family="Helvetica,sans-Serif" font-size="10.00">functional</text>
</a>
</g>
</g>
<!-- Node29&#45;&gt;Node31 -->
<g id="edge37" class="edge">
<title>Node29&#45;&gt;Node31</title>
<path fill="none" stroke="midnightblue" d="M916.61,-56.08C921.37,-48.53 928.32,-37.49 934.15,-28.23"/>
<polygon fill="midnightblue" stroke="midnightblue" points="937.12,-30.08 939.49,-19.75 931.2,-26.35 937.12,-30.08"/>
</g>
<!-- Node32&#45;&gt;Node23 -->
<g id="edge39" class="edge">
<title>Node32&#45;&gt;Node23</title>
<path fill="none" stroke="midnightblue" d="M758.75,-235.32C760.36,-216.76 764.16,-172.84 766.36,-147.47"/>
<polygon fill="midnightblue" stroke="midnightblue" points="769.86,-147.55 767.24,-137.28 762.89,-146.94 769.86,-147.55"/>
</g>
<!-- Node33&#45;&gt;Node22 -->
<g id="edge43" class="edge">
<title>Node33&#45;&gt;Node22</title>
<path fill="none" stroke="midnightblue" d="M631.8,-235.32C640.82,-227.34 654.41,-215.31 665.32,-205.65"/>
<polygon fill="midnightblue" stroke="midnightblue" points="667.85,-208.08 673.02,-198.83 663.21,-202.84 667.85,-208.08"/>
</g>
<!-- Node34 -->
<g id="node34" class="node">
<title>Node34</title>
<g id="a_node34"><a xlink:href="_multithreading_8hpp.html" target="_top" xlink:title=" ">
<polygon fill="white" stroke="black" points="547.5,-112.5 547.5,-142.5 646.5,-142.5 646.5,-112.5 547.5,-112.5"/>
<text text-anchor="start" x="555.5" y="-130.5" font-family="Helvetica,sans-Serif" font-size="10.00">kryne&#45;engine/Utils</text>
<text text-anchor="middle" x="597" y="-119.5" font-family="Helvetica,sans-Serif" font-size="10.00">/Multithreading.hpp</text>
</a>
</g>
</g>
<!-- Node33&#45;&gt;Node34 -->
<g id="edge41" class="edge">
<title>Node33&#45;&gt;Node34</title>
<path fill="none" stroke="midnightblue" d="M620.12,-235.32C616.37,-217.97 607.81,-178.46 602.23,-152.66"/>
<polygon fill="midnightblue" stroke="midnightblue" points="605.58,-151.58 600.04,-142.55 598.73,-153.06 605.58,-151.58"/>
</g>
<!-- Node34&#45;&gt;Node25 -->
<g id="edge42" class="edge">
<title>Node34&#45;&gt;Node25</title>
<path fill="none" stroke="midnightblue" d="M596.76,-112.4C596.63,-104.47 596.46,-94.46 596.32,-85.86"/>
<polygon fill="midnightblue" stroke="midnightblue" points="599.81,-85.6 596.15,-75.66 592.81,-85.72 599.81,-85.6"/>
</g>
</g>
</svg>
