<?xml version="1.0" encoding="UTF-8" standalone="no"?>
<!DOCTYPE svg PUBLIC "-//W3C//DTD SVG 1.1//EN"
 "http://www.w3.org/Graphics/SVG/1.1/DTD/svg11.dtd">
<!-- Generated by graphviz version 2.44.1 (20200629.0846)
 -->
<!-- Title: kryne&#45;engine/include/kryne&#45;engine/3DObjects/Object3D.h Pages: 1 -->
<svg width="1129pt" height="162pt"
 viewBox="0.00 0.00 1128.50 162.00" xmlns="http://www.w3.org/2000/svg" xmlns:xlink="http://www.w3.org/1999/xlink">
<g id="graph0" class="graph" transform="scale(1 1) rotate(0) translate(4 158)">
<title>kryne&#45;engine/include/kryne&#45;engine/3DObjects/Object3D.h</title>
<polygon fill="white" stroke="transparent" points="-4,4 -4,-158 1124.5,-158 1124.5,4 -4,4"/>
<!-- Node1 -->
<g id="node1" class="node">
<title>Node1</title>
<g id="a_node1"><a xlink:title=" ">
<polygon fill="#bfbfbf" stroke="black" points="371,-112.5 371,-153.5 495,-153.5 495,-112.5 371,-112.5"/>
<text text-anchor="start" x="379" y="-141.5" font-family="Helvetica,sans-Serif" font-size="10.00">kryne&#45;engine/include</text>
<text text-anchor="start" x="379" y="-130.5" font-family="Helvetica,sans-Serif" font-size="10.00">/kryne&#45;engine/3DObjects</text>
<text text-anchor="middle" x="433" y="-119.5" font-family="Helvetica,sans-Serif" font-size="10.00">/Object3D.h</text>
</a>
</g>
</g>
<!-- Node2 -->
<g id="node2" class="node">
<title>Node2</title>
<g id="a_node2"><a xlink:title=" ">
<polygon fill="white" stroke="#bfbfbf" points="0,-56.5 0,-75.5 52,-75.5 52,-56.5 0,-56.5"/>
<text text-anchor="middle" x="26" y="-63.5" font-family="Helvetica,sans-Serif" font-size="10.00">memory</text>
</a>
</g>
</g>
<!-- Node1&#45;&gt;Node2 -->
<g id="edge1" class="edge">
<title>Node1&#45;&gt;Node2</title>
<path fill="none" stroke="midnightblue" d="M370.79,-124.61C298.74,-115.61 176.34,-98.96 62.26,-76.09"/>
<polygon fill="midnightblue" stroke="midnightblue" points="62.8,-72.63 52.31,-74.07 61.41,-79.49 62.8,-72.63"/>
</g>
<!-- Node3 -->
<g id="node3" class="node">
<title>Node3</title>
<g id="a_node3"><a xlink:title=" ">
<polygon fill="white" stroke="#bfbfbf" points="70,-56.5 70,-75.5 116,-75.5 116,-56.5 70,-56.5"/>
<text text-anchor="middle" x="93" y="-63.5" font-family="Helvetica,sans-Serif" font-size="10.00">atomic</text>
</a>
</g>
</g>
<!-- Node1&#45;&gt;Node3 -->
<g id="edge2" class="edge">
<title>Node1&#45;&gt;Node3</title>
<path fill="none" stroke="midnightblue" d="M371,-122.49C310.74,-112.85 216.51,-96.72 125.89,-76.03"/>
<polygon fill="midnightblue" stroke="midnightblue" points="126.54,-72.59 116.01,-73.75 124.96,-79.41 126.54,-72.59"/>
</g>
<!-- Node4 -->
<g id="node4" class="node">
<title>Node4</title>
<g id="a_node4"><a xlink:title=" ">
<polygon fill="white" stroke="#bfbfbf" points="134,-56.5 134,-75.5 176,-75.5 176,-56.5 134,-56.5"/>
<text text-anchor="middle" x="155" y="-63.5" font-family="Helvetica,sans-Serif" font-size="10.00">vector</text>
</a>
</g>
</g>
<!-- Node1&#45;&gt;Node4 -->
<g id="edge3" class="edge">
<title>Node1&#45;&gt;Node4</title>
<path fill="none" stroke="midnightblue" d="M370.8,-119.2C322.82,-109.05 254.62,-94 186.33,-76.22"/>
<polygon fill="midnightblue" stroke="midnightblue" points="186.81,-72.73 176.25,-73.57 185.04,-79.5 186.81,-72.73"/>
</g>
<!-- Node5 -->
<g id="node5" class="node">
<title>Node5</title>
<g id="a_node5"><a xlink:title=" ">
<polygon fill="white" stroke="#bfbfbf" points="194,-56.5 194,-75.5 264,-75.5 264,-56.5 194,-56.5"/>
<text text-anchor="middle" x="229" y="-63.5" font-family="Helvetica,sans-Serif" font-size="10.00">glm/glm.hpp</text>
</a>
</g>
</g>
<!-- Node1&#45;&gt;Node5 -->
<g id="edge4" class="edge">
<title>Node1&#45;&gt;Node5</title>
<path fill="none" stroke="midnightblue" d="M371.79,-112.5C337.25,-101.49 295.24,-88.11 265.76,-78.71"/>
<polygon fill="midnightblue" stroke="midnightblue" points="266.48,-75.27 255.89,-75.57 264.35,-81.94 266.48,-75.27"/>
</g>
<!-- Node6 -->
<g id="node6" class="node">
<title>Node6</title>
<g id="a_node6"><a xlink:title=" ">
<polygon fill="white" stroke="#bfbfbf" points="282,-56.5 282,-75.5 374,-75.5 374,-56.5 282,-56.5"/>
<text text-anchor="middle" x="328" y="-63.5" font-family="Helvetica,sans-Serif" font-size="10.00">glm/common.hpp</text>
</a>
</g>
</g>
<!-- Node1&#45;&gt;Node6 -->
<g id="edge5" class="edge">
<title>Node1&#45;&gt;Node6</title>
<path fill="none" stroke="midnightblue" d="M401.5,-112.5C385.09,-102.34 365.4,-90.16 350.54,-80.95"/>
<polygon fill="midnightblue" stroke="midnightblue" points="352.32,-77.94 341.98,-75.65 348.64,-83.89 352.32,-77.94"/>
</g>
<!-- Node7 -->
<g id="node7" class="node">
<title>Node7</title>
<g id="a_node7"><a xlink:title=" ">
<polygon fill="white" stroke="#bfbfbf" points="392.5,-56.5 392.5,-75.5 473.5,-75.5 473.5,-56.5 392.5,-56.5"/>
<text text-anchor="middle" x="433" y="-63.5" font-family="Helvetica,sans-Serif" font-size="10.00">glm/matrix.hpp</text>
</a>
</g>
</g>
<!-- Node1&#45;&gt;Node7 -->
<g id="edge6" class="edge">
<title>Node1&#45;&gt;Node7</title>
<path fill="none" stroke="midnightblue" d="M433,-112.5C433,-104.07 433,-94.24 433,-85.87"/>
<polygon fill="midnightblue" stroke="midnightblue" points="436.5,-85.65 433,-75.65 429.5,-85.65 436.5,-85.65"/>
</g>
<!-- Node8 -->
<g id="node8" class="node">
<title>Node8</title>
<g id="a_node8"><a xlink:title=" ">
<polygon fill="white" stroke="#bfbfbf" points="685,-0.5 685,-19.5 759,-19.5 759,-0.5 685,-0.5"/>
<text text-anchor="middle" x="722" y="-7.5" font-family="Helvetica,sans-Serif" font-size="10.00">glm/vec3.hpp</text>
</a>
</g>
</g>
<!-- Node1&#45;&gt;Node8 -->
<g id="edge7" class="edge">
<title>Node1&#45;&gt;Node8</title>
<path fill="none" stroke="midnightblue" d="M450.23,-112.41C466.69,-94.96 493.05,-70.07 521,-56 570.13,-31.27 632.79,-20.01 674.98,-14.97"/>
<polygon fill="midnightblue" stroke="midnightblue" points="675.43,-18.44 684.98,-13.84 674.65,-11.48 675.43,-18.44"/>
</g>
<!-- Node9 -->
<g id="node9" class="node">
<title>Node9</title>
<g id="a_node9"><a xlink:title=" ">
<polygon fill="white" stroke="#bfbfbf" points="530,-56.5 530,-75.5 646,-75.5 646,-56.5 530,-56.5"/>
<text text-anchor="middle" x="588" y="-63.5" font-family="Helvetica,sans-Serif" font-size="10.00">glm/gtc/quaternion.hpp</text>
</a>
</g>
</g>
<!-- Node1&#45;&gt;Node9 -->
<g id="edge8" class="edge">
<title>Node1&#45;&gt;Node9</title>
<path fill="none" stroke="midnightblue" d="M479.51,-112.5C504.98,-101.81 535.81,-88.89 558.09,-79.54"/>
<polygon fill="midnightblue" stroke="midnightblue" points="559.5,-82.75 567.37,-75.65 556.79,-76.29 559.5,-82.75"/>
</g>
<!-- Node10 -->
<g id="node10" class="node">
<title>Node10</title>
<g id="a_node10"><a xlink:title=" ">
<polygon fill="white" stroke="#bfbfbf" points="664,-56.5 664,-75.5 780,-75.5 780,-56.5 664,-56.5"/>
<text text-anchor="middle" x="722" y="-63.5" font-family="Helvetica,sans-Serif" font-size="10.00">glm/gtx/quaternion.hpp</text>
</a>
</g>
</g>
<!-- Node1&#45;&gt;Node10 -->
<g id="edge9" class="edge">
<title>Node1&#45;&gt;Node10</title>
<path fill="none" stroke="midnightblue" d="M495.35,-117.98C548.95,-105.92 625.14,-88.79 674.07,-77.78"/>
<polygon fill="midnightblue" stroke="midnightblue" points="675.09,-81.14 684.08,-75.53 673.56,-74.31 675.09,-81.14"/>
</g>
<!-- Node11 -->
<g id="node11" class="node">
<title>Node11</title>
<g id="a_node11"><a xlink:title=" ">
<polygon fill="white" stroke="#bfbfbf" points="798.5,-56.5 798.5,-75.5 941.5,-75.5 941.5,-56.5 798.5,-56.5"/>
<text text-anchor="middle" x="870" y="-63.5" font-family="Helvetica,sans-Serif" font-size="10.00">glm/gtc/matrix_transform.hpp</text>
</a>
</g>
</g>
<!-- Node1&#45;&gt;Node11 -->
<g id="edge10" class="edge">
<title>Node1&#45;&gt;Node11</title>
<path fill="none" stroke="midnightblue" d="M495.15,-122.76C576.55,-110.65 718.76,-89.5 802.66,-77.02"/>
<polygon fill="midnightblue" stroke="midnightblue" points="803.21,-80.47 812.59,-75.54 802.18,-73.55 803.21,-80.47"/>
</g>
<!-- Node12 -->
<g id="node12" class="node">
<title>Node12</title>
<g id="a_node12"><a xlink:href="_transform_8hpp.html" target="_top" xlink:title=" ">
<polygon fill="white" stroke="black" points="959.5,-56.5 959.5,-75.5 1120.5,-75.5 1120.5,-56.5 959.5,-56.5"/>
<text text-anchor="middle" x="1040" y="-63.5" font-family="Helvetica,sans-Serif" font-size="10.00">kryne&#45;engine/Math/Transform.hpp</text>
</a>
</g>
</g>
<!-- Node1&#45;&gt;Node12 -->
<g id="edge11" class="edge">
<title>Node1&#45;&gt;Node12</title>
<path fill="none" stroke="midnightblue" d="M495.11,-125.35C602.97,-113.8 825.29,-89.99 950.04,-76.63"/>
<polygon fill="midnightblue" stroke="midnightblue" points="950.76,-80.08 960.33,-75.53 950.01,-73.12 950.76,-80.08"/>
</g>
<!-- Node12&#45;&gt;Node8 -->
<g id="edge12" class="edge">
<title>Node12&#45;&gt;Node8</title>
<path fill="none" stroke="midnightblue" d="M989.61,-56.44C929.14,-46.18 828.53,-29.09 769.42,-19.05"/>
<polygon fill="midnightblue" stroke="midnightblue" points="769.68,-15.55 759.24,-17.32 768.51,-22.45 769.68,-15.55"/>
</g>
<!-- Node13 -->
<g id="node13" class="node">
<title>Node13</title>
<g id="a_node13"><a xlink:title=" ">
<polygon fill="white" stroke="#bfbfbf" points="997,-0.5 997,-19.5 1083,-19.5 1083,-0.5 997,-0.5"/>
<text text-anchor="middle" x="1040" y="-7.5" font-family="Helvetica,sans-Serif" font-size="10.00">glm/mat3x3.hpp</text>
</a>
</g>
</g>
<!-- Node12&#45;&gt;Node13 -->
<g id="edge13" class="edge">
<title>Node12&#45;&gt;Node13</title>
<path fill="none" stroke="midnightblue" d="M1040,-56.08C1040,-49.01 1040,-38.86 1040,-29.99"/>
<polygon fill="midnightblue" stroke="midnightblue" points="1043.5,-29.75 1040,-19.75 1036.5,-29.75 1043.5,-29.75"/>
</g>
</g>
</svg>
