<?xml version="1.0" encoding="UTF-8" standalone="no"?>
<!DOCTYPE svg PUBLIC "-//W3C//DTD SVG 1.1//EN"
 "http://www.w3.org/Graphics/SVG/1.1/DTD/svg11.dtd">
<!-- Generated by graphviz version 2.44.1 (20200629.0846)
 -->
<!-- Title: kryne&#45;engine/include/kryne&#45;engine/3DObjects/Object3D.h Pages: 1 -->
<svg width="1065pt" height="162pt"
 viewBox="0.00 0.00 1064.50 162.00" xmlns="http://www.w3.org/2000/svg" xmlns:xlink="http://www.w3.org/1999/xlink">
<g id="graph0" class="graph" transform="scale(1 1) rotate(0) translate(4 158)">
<title>kryne&#45;engine/include/kryne&#45;engine/3DObjects/Object3D.h</title>
<polygon fill="white" stroke="transparent" points="-4,4 -4,-158 1060.5,-158 1060.5,4 -4,4"/>
<!-- Node1 -->
<g id="node1" class="node">
<title>Node1</title>
<g id="a_node1"><a xlink:title=" ">
<polygon fill="#bfbfbf" stroke="black" points="341,-112.5 341,-153.5 465,-153.5 465,-112.5 341,-112.5"/>
<text text-anchor="start" x="349" y="-141.5" font-family="Helvetica,sans-Serif" font-size="10.00">kryne&#45;engine/include</text>
<text text-anchor="start" x="349" y="-130.5" font-family="Helvetica,sans-Serif" font-size="10.00">/kryne&#45;engine/3DObjects</text>
<text text-anchor="middle" x="403" y="-119.5" font-family="Helvetica,sans-Serif" font-size="10.00">/Object3D.h</text>
</a>
</g>
</g>
<!-- Node2 -->
<g id="node2" class="node">
<title>Node2</title>
<g id="a_node2"><a xlink:title=" ">
<polygon fill="white" stroke="#bfbfbf" points="0,-56.5 0,-75.5 52,-75.5 52,-56.5 0,-56.5"/>
<text text-anchor="middle" x="26" y="-63.5" font-family="Helvetica,sans-Serif" font-size="10.00">memory</text>
</a>
</g>
</g>
<!-- Node1&#45;&gt;Node2 -->
<g id="edge1" class="edge">
<title>Node1&#45;&gt;Node2</title>
<path fill="none" stroke="midnightblue" d="M340.91,-123.54C274.29,-114.07 165.23,-97.48 62.26,-76.12"/>
<polygon fill="midnightblue" stroke="midnightblue" points="62.82,-72.66 52.31,-74.04 61.38,-79.51 62.82,-72.66"/>
</g>
<!-- Node3 -->
<g id="node3" class="node">
<title>Node3</title>
<g id="a_node3"><a xlink:title=" ">
<polygon fill="white" stroke="#bfbfbf" points="70,-56.5 70,-75.5 112,-75.5 112,-56.5 70,-56.5"/>
<text text-anchor="middle" x="91" y="-63.5" font-family="Helvetica,sans-Serif" font-size="10.00">vector</text>
</a>
</g>
</g>
<!-- Node1&#45;&gt;Node3 -->
<g id="edge2" class="edge">
<title>Node1&#45;&gt;Node3</title>
<path fill="none" stroke="midnightblue" d="M340.73,-121.4C285.58,-111.61 202.74,-95.93 122.06,-76.08"/>
<polygon fill="midnightblue" stroke="midnightblue" points="122.78,-72.66 112.24,-73.64 121.1,-79.45 122.78,-72.66"/>
</g>
<!-- Node4 -->
<g id="node4" class="node">
<title>Node4</title>
<g id="a_node4"><a xlink:title=" ">
<polygon fill="white" stroke="#bfbfbf" points="130,-56.5 130,-75.5 200,-75.5 200,-56.5 130,-56.5"/>
<text text-anchor="middle" x="165" y="-63.5" font-family="Helvetica,sans-Serif" font-size="10.00">glm/glm.hpp</text>
</a>
</g>
</g>
<!-- Node1&#45;&gt;Node4 -->
<g id="edge3" class="edge">
<title>Node1&#45;&gt;Node4</title>
<path fill="none" stroke="midnightblue" d="M340.78,-115.01C298.35,-103.42 243.35,-88.4 206.26,-78.27"/>
<polygon fill="midnightblue" stroke="midnightblue" points="206.87,-74.81 196.3,-75.55 205.03,-81.56 206.87,-74.81"/>
</g>
<!-- Node5 -->
<g id="node5" class="node">
<title>Node5</title>
<g id="a_node5"><a xlink:title=" ">
<polygon fill="white" stroke="#bfbfbf" points="218,-56.5 218,-75.5 310,-75.5 310,-56.5 218,-56.5"/>
<text text-anchor="middle" x="264" y="-63.5" font-family="Helvetica,sans-Serif" font-size="10.00">glm/common.hpp</text>
</a>
</g>
</g>
<!-- Node1&#45;&gt;Node5 -->
<g id="edge4" class="edge">
<title>Node1&#45;&gt;Node5</title>
<path fill="none" stroke="midnightblue" d="M361.3,-112.5C338.75,-101.96 311.54,-89.23 291.64,-79.92"/>
<polygon fill="midnightblue" stroke="midnightblue" points="293.04,-76.72 282.5,-75.65 290.08,-83.06 293.04,-76.72"/>
</g>
<!-- Node6 -->
<g id="node6" class="node">
<title>Node6</title>
<g id="a_node6"><a xlink:title=" ">
<polygon fill="white" stroke="#bfbfbf" points="328.5,-56.5 328.5,-75.5 409.5,-75.5 409.5,-56.5 328.5,-56.5"/>
<text text-anchor="middle" x="369" y="-63.5" font-family="Helvetica,sans-Serif" font-size="10.00">glm/matrix.hpp</text>
</a>
</g>
</g>
<!-- Node1&#45;&gt;Node6 -->
<g id="edge5" class="edge">
<title>Node1&#45;&gt;Node6</title>
<path fill="none" stroke="midnightblue" d="M392.8,-112.5C388.19,-103.68 382.78,-93.34 378.28,-84.74"/>
<polygon fill="midnightblue" stroke="midnightblue" points="381.26,-82.89 373.53,-75.65 375.06,-86.14 381.26,-82.89"/>
</g>
<!-- Node7 -->
<g id="node7" class="node">
<title>Node7</title>
<g id="a_node7"><a xlink:title=" ">
<polygon fill="white" stroke="#bfbfbf" points="621,-0.5 621,-19.5 695,-19.5 695,-0.5 621,-0.5"/>
<text text-anchor="middle" x="658" y="-7.5" font-family="Helvetica,sans-Serif" font-size="10.00">glm/vec3.hpp</text>
</a>
</g>
</g>
<!-- Node1&#45;&gt;Node7 -->
<g id="edge6" class="edge">
<title>Node1&#45;&gt;Node7</title>
<path fill="none" stroke="midnightblue" d="M411.83,-112.33C420.72,-94.82 436.11,-69.89 457,-56 503.32,-25.21 567.55,-15.22 610.83,-12.13"/>
<polygon fill="midnightblue" stroke="midnightblue" points="611.05,-15.62 620.81,-11.51 610.61,-8.63 611.05,-15.62"/>
</g>
<!-- Node8 -->
<g id="node8" class="node">
<title>Node8</title>
<g id="a_node8"><a xlink:title=" ">
<polygon fill="white" stroke="#bfbfbf" points="466,-56.5 466,-75.5 582,-75.5 582,-56.5 466,-56.5"/>
<text text-anchor="middle" x="524" y="-63.5" font-family="Helvetica,sans-Serif" font-size="10.00">glm/gtc/quaternion.hpp</text>
</a>
</g>
</g>
<!-- Node1&#45;&gt;Node8 -->
<g id="edge7" class="edge">
<title>Node1&#45;&gt;Node8</title>
<path fill="none" stroke="midnightblue" d="M439.3,-112.5C458.57,-102.15 481.75,-89.69 498.99,-80.43"/>
<polygon fill="midnightblue" stroke="midnightblue" points="500.74,-83.47 507.89,-75.65 497.43,-77.3 500.74,-83.47"/>
</g>
<!-- Node9 -->
<g id="node9" class="node">
<title>Node9</title>
<g id="a_node9"><a xlink:title=" ">
<polygon fill="white" stroke="#bfbfbf" points="600,-56.5 600,-75.5 716,-75.5 716,-56.5 600,-56.5"/>
<text text-anchor="middle" x="658" y="-63.5" font-family="Helvetica,sans-Serif" font-size="10.00">glm/gtx/quaternion.hpp</text>
</a>
</g>
</g>
<!-- Node1&#45;&gt;Node9 -->
<g id="edge8" class="edge">
<title>Node1&#45;&gt;Node9</title>
<path fill="none" stroke="midnightblue" d="M465.05,-116.18C511.5,-104.34 573.83,-88.45 614.92,-77.98"/>
<polygon fill="midnightblue" stroke="midnightblue" points="615.81,-81.37 624.63,-75.51 614.08,-74.58 615.81,-81.37"/>
</g>
<!-- Node10 -->
<g id="node10" class="node">
<title>Node10</title>
<g id="a_node10"><a xlink:title=" ">
<polygon fill="white" stroke="#bfbfbf" points="734.5,-56.5 734.5,-75.5 877.5,-75.5 877.5,-56.5 734.5,-56.5"/>
<text text-anchor="middle" x="806" y="-63.5" font-family="Helvetica,sans-Serif" font-size="10.00">glm/gtc/matrix_transform.hpp</text>
</a>
</g>
</g>
<!-- Node1&#45;&gt;Node10 -->
<g id="edge9" class="edge">
<title>Node1&#45;&gt;Node10</title>
<path fill="none" stroke="midnightblue" d="M465.09,-121.99C540.63,-109.8 667.44,-89.35 743.27,-77.12"/>
<polygon fill="midnightblue" stroke="midnightblue" points="743.85,-80.57 753.17,-75.52 742.74,-73.66 743.85,-80.57"/>
</g>
<!-- Node11 -->
<g id="node11" class="node">
<title>Node11</title>
<g id="a_node11"><a xlink:href="_transform_8hpp.html" target="_top" xlink:title=" ">
<polygon fill="white" stroke="black" points="895.5,-56.5 895.5,-75.5 1056.5,-75.5 1056.5,-56.5 895.5,-56.5"/>
<text text-anchor="middle" x="976" y="-63.5" font-family="Helvetica,sans-Serif" font-size="10.00">kryne&#45;engine/Math/Transform.hpp</text>
</a>
</g>
</g>
<!-- Node1&#45;&gt;Node11 -->
<g id="edge10" class="edge">
<title>Node1&#45;&gt;Node11</title>
<path fill="none" stroke="midnightblue" d="M465.14,-124.95C568.17,-113.26 774.55,-89.85 890.99,-76.64"/>
<polygon fill="midnightblue" stroke="midnightblue" points="891.4,-80.12 900.94,-75.51 890.61,-73.16 891.4,-80.12"/>
</g>
<!-- Node11&#45;&gt;Node7 -->
<g id="edge11" class="edge">
<title>Node11&#45;&gt;Node7</title>
<path fill="none" stroke="midnightblue" d="M925.61,-56.44C865.14,-46.18 764.53,-29.09 705.42,-19.05"/>
<polygon fill="midnightblue" stroke="midnightblue" points="705.68,-15.55 695.24,-17.32 704.51,-22.45 705.68,-15.55"/>
</g>
<!-- Node12 -->
<g id="node12" class="node">
<title>Node12</title>
<g id="a_node12"><a xlink:title=" ">
<polygon fill="white" stroke="#bfbfbf" points="933,-0.5 933,-19.5 1019,-19.5 1019,-0.5 933,-0.5"/>
<text text-anchor="middle" x="976" y="-7.5" font-family="Helvetica,sans-Serif" font-size="10.00">glm/mat3x3.hpp</text>
</a>
</g>
</g>
<!-- Node11&#45;&gt;Node12 -->
<g id="edge12" class="edge">
<title>Node11&#45;&gt;Node12</title>
<path fill="none" stroke="midnightblue" d="M976,-56.08C976,-49.01 976,-38.86 976,-29.99"/>
<polygon fill="midnightblue" stroke="midnightblue" points="979.5,-29.75 976,-19.75 972.5,-29.75 979.5,-29.75"/>
</g>
</g>
</svg>
