<?xml version="1.0" encoding="UTF-8" standalone="no"?>
<!DOCTYPE svg PUBLIC "-//W3C//DTD SVG 1.1//EN"
 "http://www.w3.org/Graphics/SVG/1.1/DTD/svg11.dtd">
<!-- Generated by graphviz version 2.40.1 (20161225.0304)
 -->
<!-- Title: kryne&#45;engine/include/kryne&#45;engine/Camera/OldCamera.h Pages: 1 -->
<svg width="860pt" height="218pt"
 viewBox="0.00 0.00 860.00 218.00" xmlns="http://www.w3.org/2000/svg" xmlns:xlink="http://www.w3.org/1999/xlink">
<g id="graph0" class="graph" transform="scale(1 1) rotate(0) translate(4 214)">
<title>kryne&#45;engine/include/kryne&#45;engine/Camera/OldCamera.h</title>
<polygon fill="#ffffff" stroke="transparent" points="-4,4 -4,-214 856,-214 856,4 -4,4"/>
<!-- Node0 -->
<g id="node1" class="node">
<title>Node0</title>
<polygon fill="#bfbfbf" stroke="#000000" points="285.5,-168.5 285.5,-209.5 398.5,-209.5 398.5,-168.5 285.5,-168.5"/>
<text text-anchor="start" x="293.5" y="-197.5" font-family="Helvetica,sans-Serif" font-size="10.00" fill="#000000">kryne&#45;engine/include</text>
<text text-anchor="start" x="293.5" y="-186.5" font-family="Helvetica,sans-Serif" font-size="10.00" fill="#000000">/kryne&#45;engine/Camera</text>
<text text-anchor="middle" x="342" y="-175.5" font-family="Helvetica,sans-Serif" font-size="10.00" fill="#000000">/OldCamera.h</text>
</g>
<!-- Node1 -->
<g id="node2" class="node">
<title>Node1</title>
<polygon fill="#ffffff" stroke="#bfbfbf" points="0,-56.5 0,-75.5 44,-75.5 44,-56.5 0,-56.5"/>
<text text-anchor="middle" x="22" y="-63.5" font-family="Helvetica,sans-Serif" font-size="10.00" fill="#000000">vector</text>
</g>
<!-- Node0&#45;&gt;Node1 -->
<g id="edge1" class="edge">
<title>Node0&#45;&gt;Node1</title>
<path fill="none" stroke="#191970" d="M285.3986,-174.8629C247.1388,-164.6194 195.8043,-149.5275 152,-132 114.3264,-116.9256 72.857,-94.849 47.1196,-80.4514"/>
<polygon fill="#191970" stroke="#191970" points="48.8143,-77.389 38.3853,-75.5217 45.3736,-83.485 48.8143,-77.389"/>
</g>
<!-- Node2 -->
<g id="node3" class="node">
<title>Node2</title>
<polygon fill="#ffffff" stroke="#bfbfbf" points="374,-112.5 374,-131.5 426,-131.5 426,-112.5 374,-112.5"/>
<text text-anchor="middle" x="400" y="-119.5" font-family="Helvetica,sans-Serif" font-size="10.00" fill="#000000">stdarg.h</text>
</g>
<!-- Node0&#45;&gt;Node2 -->
<g id="edge2" class="edge">
<title>Node0&#45;&gt;Node2</title>
<path fill="none" stroke="#191970" d="M360.0336,-168.168C367.9969,-158.9691 377.254,-148.2756 384.8526,-139.4979"/>
<polygon fill="#191970" stroke="#191970" points="387.6345,-141.6319 391.5333,-131.7805 382.3421,-137.0503 387.6345,-141.6319"/>
</g>
<!-- Node3 -->
<g id="node4" class="node">
<title>Node3</title>
<polygon fill="#ffffff" stroke="#bfbfbf" points="444,-112.5 444,-131.5 492,-131.5 492,-112.5 444,-112.5"/>
<text text-anchor="middle" x="468" y="-119.5" font-family="Helvetica,sans-Serif" font-size="10.00" fill="#000000">stdlib.h</text>
</g>
<!-- Node0&#45;&gt;Node3 -->
<g id="edge3" class="edge">
<title>Node0&#45;&gt;Node3</title>
<path fill="none" stroke="#191970" d="M380.8323,-168.3511C400.2335,-158.0346 423.2389,-145.8015 440.7429,-136.4939"/>
<polygon fill="#191970" stroke="#191970" points="442.6574,-139.4399 449.8435,-131.6546 439.3709,-133.2594 442.6574,-139.4399"/>
</g>
<!-- Node4 -->
<g id="node5" class="node">
<title>Node4</title>
<polygon fill="#ffffff" stroke="#bfbfbf" points="62,-56.5 62,-75.5 126,-75.5 126,-56.5 62,-56.5"/>
<text text-anchor="middle" x="94" y="-63.5" font-family="Helvetica,sans-Serif" font-size="10.00" fill="#000000">glad/glad.h</text>
</g>
<!-- Node0&#45;&gt;Node4 -->
<g id="edge4" class="edge">
<title>Node0&#45;&gt;Node4</title>
<path fill="none" stroke="#191970" d="M285.2683,-171.905C255.5141,-161.9787 218.9229,-148.2297 188,-132 160.6879,-117.6655 132.0615,-96.5565 113.6812,-82.0938"/>
<polygon fill="#191970" stroke="#191970" points="115.5302,-79.0913 105.5319,-75.5866 111.1624,-84.5615 115.5302,-79.0913"/>
</g>
<!-- Node5 -->
<g id="node6" class="node">
<title>Node5</title>
<polygon fill="#ffffff" stroke="#bfbfbf" points="144,-56.5 144,-75.5 224,-75.5 224,-56.5 144,-56.5"/>
<text text-anchor="middle" x="184" y="-63.5" font-family="Helvetica,sans-Serif" font-size="10.00" fill="#000000">GLFW/glfw3.h</text>
</g>
<!-- Node0&#45;&gt;Node5 -->
<g id="edge5" class="edge">
<title>Node0&#45;&gt;Node5</title>
<path fill="none" stroke="#191970" d="M285.425,-178.0715C257.0743,-169.862 224.33,-155.7881 203,-132 191.6941,-119.3912 187.085,-100.4576 185.2219,-86.0986"/>
<polygon fill="#191970" stroke="#191970" points="188.671,-85.396 184.241,-75.7718 181.7024,-86.058 188.671,-85.396"/>
</g>
<!-- Node6 -->
<g id="node7" class="node">
<title>Node6</title>
<polygon fill="#ffffff" stroke="#bfbfbf" points="510.5,-112.5 510.5,-131.5 585.5,-131.5 585.5,-112.5 510.5,-112.5"/>
<text text-anchor="middle" x="548" y="-119.5" font-family="Helvetica,sans-Serif" font-size="10.00" fill="#000000">glm/vec3.hpp</text>
</g>
<!-- Node0&#45;&gt;Node6 -->
<g id="edge6" class="edge">
<title>Node0&#45;&gt;Node6</title>
<path fill="none" stroke="#191970" d="M398.5629,-170.6033C433.6007,-159.2075 477.7058,-144.8627 508.8933,-134.7192"/>
<polygon fill="#191970" stroke="#191970" points="510.1103,-138.0039 518.5374,-131.5825 507.9452,-131.3471 510.1103,-138.0039"/>
</g>
<!-- Node7 -->
<g id="node8" class="node">
<title>Node7</title>
<polygon fill="#ffffff" stroke="#bfbfbf" points="604,-112.5 604,-131.5 690,-131.5 690,-112.5 604,-112.5"/>
<text text-anchor="middle" x="647" y="-119.5" font-family="Helvetica,sans-Serif" font-size="10.00" fill="#000000">glm/mat4x4.hpp</text>
</g>
<!-- Node0&#45;&gt;Node7 -->
<g id="edge7" class="edge">
<title>Node0&#45;&gt;Node7</title>
<path fill="none" stroke="#191970" d="M398.6534,-176.5548C454.605,-164.2638 539.5047,-145.6137 594.1116,-133.6181"/>
<polygon fill="#191970" stroke="#191970" points="594.9254,-137.0229 603.9415,-131.4587 593.4234,-130.1859 594.9254,-137.0229"/>
</g>
<!-- Node8 -->
<g id="node9" class="node">
<title>Node8</title>
<polygon fill="#ffffff" stroke="#bfbfbf" points="708,-112.5 708,-131.5 852,-131.5 852,-112.5 708,-112.5"/>
<text text-anchor="middle" x="780" y="-119.5" font-family="Helvetica,sans-Serif" font-size="10.00" fill="#000000">glm/gtc/matrix_transform.hpp</text>
</g>
<!-- Node0&#45;&gt;Node8 -->
<g id="edge8" class="edge">
<title>Node0&#45;&gt;Node8</title>
<path fill="none" stroke="#191970" d="M398.8118,-180.3096C477.8537,-168.2187 621.0234,-146.3183 707.6207,-133.0717"/>
<polygon fill="#191970" stroke="#191970" points="708.2775,-136.512 717.6333,-131.5401 707.219,-129.5925 708.2775,-136.512"/>
</g>
<!-- Node9 -->
<g id="node10" class="node">
<title>Node9</title>
<g id="a_node10"><a xlink:href="_window_8h.html" target="_top" xlink:title="kryne&#45;engine/Core/Window.h">
<polygon fill="#ffffff" stroke="#000000" points="212.5,-112.5 212.5,-131.5 355.5,-131.5 355.5,-112.5 212.5,-112.5"/>
<text text-anchor="middle" x="284" y="-119.5" font-family="Helvetica,sans-Serif" font-size="10.00" fill="#000000">kryne&#45;engine/Core/Window.h</text>
</a>
</g>
</g>
<!-- Node0&#45;&gt;Node9 -->
<g id="edge9" class="edge">
<title>Node0&#45;&gt;Node9</title>
<path fill="none" stroke="#191970" d="M317.665,-168.168C309.1975,-159.1587 300.2359,-148.7159 293.5536,-140.0432"/>
<polygon fill="#191970" stroke="#191970" points="296.2499,-137.8003 287.5313,-131.7805 290.5929,-141.9233 296.2499,-137.8003"/>
</g>
<!-- Node9&#45;&gt;Node0 -->
<g id="edge21" class="edge">
<title>Node9&#45;&gt;Node0</title>
<path fill="none" stroke="#191970" d="M297.402,-131.7805C305.3255,-139.2824 315.2257,-150.0431 323.7698,-160.2126"/>
<polygon fill="#191970" stroke="#191970" points="321.2311,-162.6372 330.2677,-168.168 326.6525,-158.2091 321.2311,-162.6372"/>
</g>
<!-- Node9&#45;&gt;Node1 -->
<g id="edge10" class="edge">
<title>Node9&#45;&gt;Node1</title>
<path fill="none" stroke="#191970" d="M226.6243,-112.4759C181.9227,-104.6236 118.1689,-92.4827 54.1237,-76.0803"/>
<polygon fill="#191970" stroke="#191970" points="54.8192,-72.6449 44.2607,-73.5205 53.0607,-79.4204 54.8192,-72.6449"/>
</g>
<!-- Node9&#45;&gt;Node4 -->
<g id="edge15" class="edge">
<title>Node9&#45;&gt;Node4</title>
<path fill="none" stroke="#191970" d="M251.3378,-112.3733C219.4702,-102.9807 170.8469,-88.6496 136.093,-78.4064"/>
<polygon fill="#191970" stroke="#191970" points="136.8175,-74.9711 126.236,-75.5011 134.8385,-81.6855 136.8175,-74.9711"/>
</g>
<!-- Node9&#45;&gt;Node5 -->
<g id="edge16" class="edge">
<title>Node9&#45;&gt;Node5</title>
<path fill="none" stroke="#191970" d="M266.5813,-112.2455C250.9515,-103.4928 227.7981,-90.527 209.9815,-80.5496"/>
<polygon fill="#191970" stroke="#191970" points="211.6543,-77.475 201.2191,-75.6427 208.234,-83.5825 211.6543,-77.475"/>
</g>
<!-- Node10 -->
<g id="node11" class="node">
<title>Node10</title>
<polygon fill="#ffffff" stroke="#bfbfbf" points="378,-56.5 378,-75.5 456,-75.5 456,-56.5 378,-56.5"/>
<text text-anchor="middle" x="417" y="-63.5" font-family="Helvetica,sans-Serif" font-size="10.00" fill="#000000">unordered_set</text>
</g>
<!-- Node9&#45;&gt;Node10 -->
<g id="edge11" class="edge">
<title>Node9&#45;&gt;Node10</title>
<path fill="none" stroke="#191970" d="M306.8635,-112.3733C328.405,-103.3032 360.8838,-89.6279 384.9956,-79.4755"/>
<polygon fill="#191970" stroke="#191970" points="386.5767,-82.6075 394.4348,-75.5011 383.8603,-76.156 386.5767,-82.6075"/>
</g>
<!-- Node11 -->
<g id="node12" class="node">
<title>Node11</title>
<polygon fill="#ffffff" stroke="#bfbfbf" points="474.5,-56.5 474.5,-75.5 523.5,-75.5 523.5,-56.5 474.5,-56.5"/>
<text text-anchor="middle" x="499" y="-63.5" font-family="Helvetica,sans-Serif" font-size="10.00" fill="#000000">cstdarg</text>
</g>
<!-- Node9&#45;&gt;Node11 -->
<g id="edge12" class="edge">
<title>Node9&#45;&gt;Node11</title>
<path fill="none" stroke="#191970" d="M323.302,-112.4587C357.9593,-103.9452 410.0567,-90.9065 464.3483,-76.109"/>
<polygon fill="#191970" stroke="#191970" points="465.4276,-79.4424 474.148,-73.4252 463.5786,-72.691 465.4276,-79.4424"/>
</g>
<!-- Node12 -->
<g id="node13" class="node">
<title>Node12</title>
<polygon fill="#ffffff" stroke="#bfbfbf" points="541.5,-56.5 541.5,-75.5 586.5,-75.5 586.5,-56.5 541.5,-56.5"/>
<text text-anchor="middle" x="564" y="-63.5" font-family="Helvetica,sans-Serif" font-size="10.00" fill="#000000">cstdlib</text>
</g>
<!-- Node9&#45;&gt;Node12 -->
<g id="edge13" class="edge">
<title>Node9&#45;&gt;Node12</title>
<path fill="none" stroke="#191970" d="M348.2032,-112.4825C396.4097,-104.8008 464.1658,-92.8716 531.4845,-76.1601"/>
<polygon fill="#191970" stroke="#191970" points="532.569,-79.4964 541.4112,-73.6598 530.8592,-72.7084 532.569,-79.4964"/>
</g>
<!-- Node13 -->
<g id="node14" class="node">
<title>Node13</title>
<polygon fill="#ffffff" stroke="#bfbfbf" points="605,-56.5 605,-75.5 659,-75.5 659,-56.5 605,-56.5"/>
<text text-anchor="middle" x="632" y="-63.5" font-family="Helvetica,sans-Serif" font-size="10.00" fill="#000000">iostream</text>
</g>
<!-- Node9&#45;&gt;Node13 -->
<g id="edge14" class="edge">
<title>Node9&#45;&gt;Node13</title>
<path fill="none" stroke="#191970" d="M355.7377,-112.4791C428.6588,-102.6241 537.754,-87.3504 594.9141,-75.9759"/>
<polygon fill="#191970" stroke="#191970" points="595.8775,-79.3509 604.9623,-73.8996 594.4609,-72.4957 595.8775,-79.3509"/>
</g>
<!-- Node14 -->
<g id="node15" class="node">
<title>Node14</title>
<g id="a_node15"><a xlink:href="_additional_parameters_8h.html" target="_top" xlink:title="AdditionalParameters.h">
<polygon fill="#ffffff" stroke="#000000" points="242,-56.5 242,-75.5 360,-75.5 360,-56.5 242,-56.5"/>
<text text-anchor="middle" x="301" y="-63.5" font-family="Helvetica,sans-Serif" font-size="10.00" fill="#000000">AdditionalParameters.h</text>
</a>
</g>
</g>
<!-- Node9&#45;&gt;Node14 -->
<g id="edge17" class="edge">
<title>Node9&#45;&gt;Node14</title>
<path fill="none" stroke="#191970" d="M286.9612,-112.2455C289.2038,-104.8579 292.3577,-94.4689 295.1081,-85.4087"/>
<polygon fill="#191970" stroke="#191970" points="298.517,-86.2282 298.0728,-75.6427 291.8188,-84.1948 298.517,-86.2282"/>
</g>
<!-- Node15 -->
<g id="node16" class="node">
<title>Node15</title>
<polygon fill="#ffffff" stroke="#bfbfbf" points="227.5,-.5 227.5,-19.5 262.5,-19.5 262.5,-.5 227.5,-.5"/>
<text text-anchor="middle" x="245" y="-7.5" font-family="Helvetica,sans-Serif" font-size="10.00" fill="#000000">map</text>
</g>
<!-- Node14&#45;&gt;Node15 -->
<g id="edge18" class="edge">
<title>Node14&#45;&gt;Node15</title>
<path fill="none" stroke="#191970" d="M291.2455,-56.2455C283.1352,-48.1352 271.4075,-36.4075 261.7919,-26.7919"/>
<polygon fill="#191970" stroke="#191970" points="264.1887,-24.2389 254.6427,-19.6427 259.2389,-29.1887 264.1887,-24.2389"/>
</g>
<!-- Node16 -->
<g id="node17" class="node">
<title>Node16</title>
<polygon fill="#ffffff" stroke="#bfbfbf" points="280.5,-.5 280.5,-19.5 321.5,-19.5 321.5,-.5 280.5,-.5"/>
<text text-anchor="middle" x="301" y="-7.5" font-family="Helvetica,sans-Serif" font-size="10.00" fill="#000000">string</text>
</g>
<!-- Node14&#45;&gt;Node16 -->
<g id="edge19" class="edge">
<title>Node14&#45;&gt;Node16</title>
<path fill="none" stroke="#191970" d="M301,-56.2455C301,-48.9382 301,-38.6944 301,-29.7046"/>
<polygon fill="#191970" stroke="#191970" points="304.5001,-29.6426 301,-19.6427 297.5001,-29.6427 304.5001,-29.6426"/>
</g>
<!-- Node17 -->
<g id="node18" class="node">
<title>Node17</title>
<polygon fill="#ffffff" stroke="#bfbfbf" points="340,-.5 340,-19.5 372,-19.5 372,-.5 340,-.5"/>
<text text-anchor="middle" x="356" y="-7.5" font-family="Helvetica,sans-Serif" font-size="10.00" fill="#000000">any</text>
</g>
<!-- Node14&#45;&gt;Node17 -->
<g id="edge20" class="edge">
<title>Node14&#45;&gt;Node17</title>
<path fill="none" stroke="#191970" d="M310.5803,-56.2455C318.5458,-48.1352 330.0641,-36.4075 339.5079,-26.7919"/>
<polygon fill="#191970" stroke="#191970" points="342.0195,-29.2297 346.5295,-19.6427 337.0253,-24.3247 342.0195,-29.2297"/>
</g>
</g>
</svg>
