<?xml version="1.0" encoding="UTF-8" standalone="no"?>
<!DOCTYPE svg PUBLIC "-//W3C//DTD SVG 1.1//EN"
 "http://www.w3.org/Graphics/SVG/1.1/DTD/svg11.dtd">
<!-- Generated by graphviz version 2.40.1 (20161225.0304)
 -->
<!-- Title: kryne&#45;engine/src/Light/OldDirectionalLight.cpp Pages: 1 -->
<svg width="1206pt" height="654pt"
 viewBox="0.00 0.00 1205.50 654.00" xmlns="http://www.w3.org/2000/svg" xmlns:xlink="http://www.w3.org/1999/xlink">
<g id="graph0" class="graph" transform="scale(1 1) rotate(0) translate(4 650)">
<title>kryne&#45;engine/src/Light/OldDirectionalLight.cpp</title>
<polygon fill="#ffffff" stroke="transparent" points="-4,4 -4,-650 1201.5,-650 1201.5,4 -4,4"/>
<!-- Node0 -->
<g id="node1" class="node">
<title>Node0</title>
<polygon fill="#bfbfbf" stroke="#000000" points="618,-615.5 618,-645.5 739,-645.5 739,-615.5 618,-615.5"/>
<text text-anchor="start" x="626" y="-633.5" font-family="Helvetica,sans-Serif" font-size="10.00" fill="#000000">kryne&#45;engine/src/Light</text>
<text text-anchor="middle" x="678.5" y="-622.5" font-family="Helvetica,sans-Serif" font-size="10.00" fill="#000000">/OldDirectionalLight.cpp</text>
</g>
<!-- Node1 -->
<g id="node2" class="node">
<title>Node1</title>
<g id="a_node2"><a xlink:href="_old_directional_light_8h.html" target="_top" xlink:title="kryne&#45;engine/Light\l/OldDirectionalLight.h">
<polygon fill="#ffffff" stroke="#000000" points="577.5,-548.5 577.5,-578.5 687.5,-578.5 687.5,-548.5 577.5,-548.5"/>
<text text-anchor="start" x="585.5" y="-566.5" font-family="Helvetica,sans-Serif" font-size="10.00" fill="#000000">kryne&#45;engine/Light</text>
<text text-anchor="middle" x="632.5" y="-555.5" font-family="Helvetica,sans-Serif" font-size="10.00" fill="#000000">/OldDirectionalLight.h</text>
</a>
</g>
</g>
<!-- Node0&#45;&gt;Node1 -->
<g id="edge1" class="edge">
<title>Node0&#45;&gt;Node1</title>
<path fill="none" stroke="#191970" d="M668.0619,-615.2967C662.3569,-606.9873 655.1646,-596.5115 648.7433,-587.1587"/>
<polygon fill="#191970" stroke="#191970" points="651.4423,-584.9062 642.8968,-578.6432 645.6715,-588.8682 651.4423,-584.9062"/>
</g>
<!-- Node41 -->
<g id="node42" class="node">
<title>Node41</title>
<polygon fill="#ffffff" stroke="#bfbfbf" points="705.5,-554 705.5,-573 745.5,-573 745.5,-554 705.5,-554"/>
<text text-anchor="middle" x="725.5" y="-561" font-family="Helvetica,sans-Serif" font-size="10.00" fill="#000000">utility</text>
</g>
<!-- Node0&#45;&gt;Node41 -->
<g id="edge55" class="edge">
<title>Node0&#45;&gt;Node41</title>
<path fill="none" stroke="#191970" d="M689.165,-615.2967C696.2035,-605.2631 705.4577,-592.0709 712.8652,-581.5113"/>
<polygon fill="#191970" stroke="#191970" points="715.9197,-583.2516 718.7973,-573.055 710.1891,-579.2316 715.9197,-583.2516"/>
</g>
<!-- Node2 -->
<g id="node3" class="node">
<title>Node2</title>
<polygon fill="#ffffff" stroke="#bfbfbf" points="0,-297 0,-316 75,-316 75,-297 0,-297"/>
<text text-anchor="middle" x="37.5" y="-304" font-family="Helvetica,sans-Serif" font-size="10.00" fill="#000000">glm/vec3.hpp</text>
</g>
<!-- Node1&#45;&gt;Node2 -->
<g id="edge2" class="edge">
<title>Node1&#45;&gt;Node2</title>
<path fill="none" stroke="#191970" d="M577.2859,-558.7838C451.94,-546.992 151.1277,-512.2344 78.5,-445 44.8863,-413.8825 38.3672,-356.6575 37.3907,-326.4248"/>
<polygon fill="#191970" stroke="#191970" points="40.8882,-326.2182 37.2429,-316.2702 33.8889,-326.3201 40.8882,-326.2182"/>
</g>
<!-- Node3 -->
<g id="node4" class="node">
<title>Node3</title>
<polygon fill="#ffffff" stroke="#bfbfbf" points="1153.5,-235.5 1153.5,-254.5 1197.5,-254.5 1197.5,-235.5 1153.5,-235.5"/>
<text text-anchor="middle" x="1175.5" y="-242.5" font-family="Helvetica,sans-Serif" font-size="10.00" fill="#000000">vector</text>
</g>
<!-- Node1&#45;&gt;Node3 -->
<g id="edge3" class="edge">
<title>Node1&#45;&gt;Node3</title>
<path fill="none" stroke="#191970" d="M687.6566,-550.1356C690.6478,-549.4127 693.6105,-548.6972 696.5,-548 800.9235,-522.8019 1166.5,-542.4207 1166.5,-435 1166.5,-435 1166.5,-435 1166.5,-373.5 1166.5,-334.9069 1170.5897,-289.953 1173.2554,-264.7512"/>
<polygon fill="#191970" stroke="#191970" points="1176.7515,-264.9771 1174.3601,-254.6557 1169.793,-264.2156 1176.7515,-264.9771"/>
</g>
<!-- Node4 -->
<g id="node5" class="node">
<title>Node4</title>
<g id="a_node5"><a xlink:href="_shader_8h.html" target="_top" xlink:title="kryne&#45;engine/Material\l/Shader.h">
<polygon fill="#ffffff" stroke="#000000" points="577.5,-481.5 577.5,-511.5 687.5,-511.5 687.5,-481.5 577.5,-481.5"/>
<text text-anchor="start" x="585.5" y="-499.5" font-family="Helvetica,sans-Serif" font-size="10.00" fill="#000000">kryne&#45;engine/Material</text>
<text text-anchor="middle" x="632.5" y="-488.5" font-family="Helvetica,sans-Serif" font-size="10.00" fill="#000000">/Shader.h</text>
</a>
</g>
</g>
<!-- Node1&#45;&gt;Node4 -->
<g id="edge4" class="edge">
<title>Node1&#45;&gt;Node4</title>
<path fill="none" stroke="#191970" d="M632.5,-548.2967C632.5,-540.5013 632.5,-530.7991 632.5,-521.9064"/>
<polygon fill="#191970" stroke="#191970" points="636.0001,-521.6431 632.5,-511.6432 629.0001,-521.6432 636.0001,-521.6431"/>
</g>
<!-- Node5 -->
<g id="node6" class="node">
<title>Node5</title>
<polygon fill="#ffffff" stroke="#bfbfbf" points="952,-425.5 952,-444.5 987,-444.5 987,-425.5 952,-425.5"/>
<text text-anchor="middle" x="969.5" y="-432.5" font-family="Helvetica,sans-Serif" font-size="10.00" fill="#000000">map</text>
</g>
<!-- Node4&#45;&gt;Node5 -->
<g id="edge5" class="edge">
<title>Node4&#45;&gt;Node5</title>
<path fill="none" stroke="#191970" d="M687.7674,-490.5358C748.2198,-483.2972 847.9435,-469.2603 942.2418,-444.627"/>
<polygon fill="#191970" stroke="#191970" points="943.1703,-448.0018 951.9363,-442.0514 941.3729,-441.2365 943.1703,-448.0018"/>
</g>
<!-- Node6 -->
<g id="node7" class="node">
<title>Node6</title>
<polygon fill="#ffffff" stroke="#bfbfbf" points="87.5,-425.5 87.5,-444.5 139.5,-444.5 139.5,-425.5 87.5,-425.5"/>
<text text-anchor="middle" x="113.5" y="-432.5" font-family="Helvetica,sans-Serif" font-size="10.00" fill="#000000">sstream</text>
</g>
<!-- Node4&#45;&gt;Node6 -->
<g id="edge6" class="edge">
<title>Node4&#45;&gt;Node6</title>
<path fill="none" stroke="#191970" d="M577.1947,-493.0416C487.658,-486.8862 305.6348,-472.0622 153.5,-445 152.2314,-444.7743 150.9435,-444.531 149.6452,-444.2735"/>
<polygon fill="#191970" stroke="#191970" points="150.1558,-440.8025 139.6387,-442.0836 148.6592,-447.6406 150.1558,-440.8025"/>
</g>
<!-- Node7 -->
<g id="node8" class="node">
<title>Node7</title>
<g id="a_node8"><a xlink:href="_dispatcher_8h.html" target="_top" xlink:title="kryne&#45;engine/Dispatch\l/Dispatcher.h">
<polygon fill="#ffffff" stroke="#000000" points="93.5,-291.5 93.5,-321.5 207.5,-321.5 207.5,-291.5 93.5,-291.5"/>
<text text-anchor="start" x="101.5" y="-309.5" font-family="Helvetica,sans-Serif" font-size="10.00" fill="#000000">kryne&#45;engine/Dispatch</text>
<text text-anchor="middle" x="150.5" y="-298.5" font-family="Helvetica,sans-Serif" font-size="10.00" fill="#000000">/Dispatcher.h</text>
</a>
</g>
</g>
<!-- Node4&#45;&gt;Node7 -->
<g id="edge7" class="edge">
<title>Node4&#45;&gt;Node7</title>
<path fill="none" stroke="#191970" d="M577.1071,-489.3744C471.3006,-474.7838 245.6935,-438.6489 186.5,-389 169.2044,-374.4932 159.9652,-350.0899 155.1973,-331.5776"/>
<polygon fill="#191970" stroke="#191970" points="158.5867,-330.699 152.9326,-321.739 151.7651,-332.2693 158.5867,-330.699"/>
</g>
<!-- Node22 -->
<g id="node23" class="node">
<title>Node22</title>
<g id="a_node23"><a xlink:href="_uniforms_handler_8h.html" target="_top" xlink:title="UniformsHandler.h">
<polygon fill="#ffffff" stroke="#000000" points="583.5,-425.5 583.5,-444.5 681.5,-444.5 681.5,-425.5 583.5,-425.5"/>
<text text-anchor="middle" x="632.5" y="-432.5" font-family="Helvetica,sans-Serif" font-size="10.00" fill="#000000">UniformsHandler.h</text>
</a>
</g>
</g>
<!-- Node4&#45;&gt;Node22 -->
<g id="edge25" class="edge">
<title>Node4&#45;&gt;Node22</title>
<path fill="none" stroke="#191970" d="M632.5,-481.2977C632.5,-473.3834 632.5,-463.6043 632.5,-455.0759"/>
<polygon fill="#191970" stroke="#191970" points="636.0001,-454.8469 632.5,-444.8469 629.0001,-454.847 636.0001,-454.8469"/>
</g>
<!-- Node35 -->
<g id="node36" class="node">
<title>Node35</title>
<g id="a_node36"><a xlink:href="_shader_chunk_8h.html" target="_top" xlink:title="ShaderChunk.h">
<polygon fill="#ffffff" stroke="#000000" points="849.5,-425.5 849.5,-444.5 933.5,-444.5 933.5,-425.5 849.5,-425.5"/>
<text text-anchor="middle" x="891.5" y="-432.5" font-family="Helvetica,sans-Serif" font-size="10.00" fill="#000000">ShaderChunk.h</text>
</a>
</g>
</g>
<!-- Node4&#45;&gt;Node35 -->
<g id="edge44" class="edge">
<title>Node4&#45;&gt;Node35</title>
<path fill="none" stroke="#191970" d="M687.7443,-483.3821C733.228,-472.582 797.1699,-457.3988 841.2332,-446.9359"/>
<polygon fill="#191970" stroke="#191970" points="842.2293,-450.2968 851.1501,-444.5811 840.612,-443.4862 842.2293,-450.2968"/>
</g>
<!-- Node8 -->
<g id="node9" class="node">
<title>Node8</title>
<g id="a_node9"><a xlink:href="_synchronizable_pool_8h.html" target="_top" xlink:title="SynchronizablePool.h">
<polygon fill="#ffffff" stroke="#000000" points="126,-179.5 126,-198.5 237,-198.5 237,-179.5 126,-179.5"/>
<text text-anchor="middle" x="181.5" y="-186.5" font-family="Helvetica,sans-Serif" font-size="10.00" fill="#000000">SynchronizablePool.h</text>
</a>
</g>
</g>
<!-- Node7&#45;&gt;Node8 -->
<g id="edge8" class="edge">
<title>Node7&#45;&gt;Node8</title>
<path fill="none" stroke="#191970" d="M154.5527,-291.1389C160.1633,-269.873 170.2951,-231.4702 176.4092,-208.2956"/>
<polygon fill="#191970" stroke="#191970" points="179.811,-209.1215 178.9779,-198.5595 173.0426,-207.3357 179.811,-209.1215"/>
</g>
<!-- Node19 -->
<g id="node20" class="node">
<title>Node19</title>
<g id="a_node20"><a xlink:href="_runner_pool_8h.html" target="_top" xlink:title="RunnerPool.h">
<polygon fill="#ffffff" stroke="#000000" points="255.5,-179.5 255.5,-198.5 331.5,-198.5 331.5,-179.5 255.5,-179.5"/>
<text text-anchor="middle" x="293.5" y="-186.5" font-family="Helvetica,sans-Serif" font-size="10.00" fill="#000000">RunnerPool.h</text>
</a>
</g>
</g>
<!-- Node7&#45;&gt;Node19 -->
<g id="edge19" class="edge">
<title>Node7&#45;&gt;Node19</title>
<path fill="none" stroke="#191970" d="M168.902,-291.3795C195.9732,-269.1356 246.3095,-227.7754 273.9965,-205.0256"/>
<polygon fill="#191970" stroke="#191970" points="276.3066,-207.6574 281.811,-198.6046 271.8626,-202.249 276.3066,-207.6574"/>
</g>
<!-- Node20 -->
<g id="node21" class="node">
<title>Node20</title>
<g id="a_node21"><a xlink:href="_main_pool_8h.html" target="_top" xlink:title="MainPool.h">
<polygon fill="#ffffff" stroke="#000000" points="88,-235.5 88,-254.5 153,-254.5 153,-235.5 88,-235.5"/>
<text text-anchor="middle" x="120.5" y="-242.5" font-family="Helvetica,sans-Serif" font-size="10.00" fill="#000000">MainPool.h</text>
</a>
</g>
</g>
<!-- Node7&#45;&gt;Node20 -->
<g id="edge21" class="edge">
<title>Node7&#45;&gt;Node20</title>
<path fill="none" stroke="#191970" d="M143.0843,-291.2977C139.0501,-283.0277 134.0227,-272.7215 129.736,-263.9339"/>
<polygon fill="#191970" stroke="#191970" points="132.8334,-262.3001 125.3034,-254.8469 126.542,-265.3691 132.8334,-262.3001"/>
</g>
<!-- Node9 -->
<g id="node10" class="node">
<title>Node9</title>
<g id="a_node10"><a xlink:href="_thread_pool_8h.html" target="_top" xlink:title="ThreadPool.h">
<polygon fill="#ffffff" stroke="#000000" points="256.5,-118 256.5,-137 330.5,-137 330.5,-118 256.5,-118"/>
<text text-anchor="middle" x="293.5" y="-125" font-family="Helvetica,sans-Serif" font-size="10.00" fill="#000000">ThreadPool.h</text>
</a>
</g>
</g>
<!-- Node8&#45;&gt;Node9 -->
<g id="edge9" class="edge">
<title>Node8&#45;&gt;Node9</title>
<path fill="none" stroke="#191970" d="M199,-179.3906C217.2465,-169.3713 246.0624,-153.5483 267.0806,-142.0071"/>
<polygon fill="#191970" stroke="#191970" points="269.042,-144.923 276.1229,-137.0419 265.6728,-138.7872 269.042,-144.923"/>
</g>
<!-- Node10 -->
<g id="node11" class="node">
<title>Node10</title>
<polygon fill="#ffffff" stroke="#bfbfbf" points="293.5,-56.5 293.5,-75.5 337.5,-75.5 337.5,-56.5 293.5,-56.5"/>
<text text-anchor="middle" x="315.5" y="-63.5" font-family="Helvetica,sans-Serif" font-size="10.00" fill="#000000">thread</text>
</g>
<!-- Node9&#45;&gt;Node10 -->
<g id="edge10" class="edge">
<title>Node9&#45;&gt;Node10</title>
<path fill="none" stroke="#191970" d="M296.9375,-117.8906C300.0513,-109.1862 304.732,-96.1015 308.614,-85.2494"/>
<polygon fill="#191970" stroke="#191970" points="311.9412,-86.3394 312.014,-75.7449 305.3503,-83.9817 311.9412,-86.3394"/>
</g>
<!-- Node11 -->
<g id="node12" class="node">
<title>Node11</title>
<polygon fill="#ffffff" stroke="#bfbfbf" points="75.5,-56.5 75.5,-75.5 119.5,-75.5 119.5,-56.5 75.5,-56.5"/>
<text text-anchor="middle" x="97.5" y="-63.5" font-family="Helvetica,sans-Serif" font-size="10.00" fill="#000000">mutex</text>
</g>
<!-- Node9&#45;&gt;Node11 -->
<g id="edge11" class="edge">
<title>Node9&#45;&gt;Node11</title>
<path fill="none" stroke="#191970" d="M262.4535,-117.9061C231.2118,-108.2307 181.396,-92.7456 129.2643,-76.2235"/>
<polygon fill="#191970" stroke="#191970" points="130.0974,-72.8159 119.5072,-73.1276 127.9803,-79.4881 130.0974,-72.8159"/>
</g>
<!-- Node12 -->
<g id="node13" class="node">
<title>Node12</title>
<polygon fill="#ffffff" stroke="#bfbfbf" points="356,-56.5 356,-75.5 451,-75.5 451,-56.5 356,-56.5"/>
<text text-anchor="middle" x="403.5" y="-63.5" font-family="Helvetica,sans-Serif" font-size="10.00" fill="#000000">condition_variable</text>
</g>
<!-- Node9&#45;&gt;Node12 -->
<g id="edge12" class="edge">
<title>Node9&#45;&gt;Node12</title>
<path fill="none" stroke="#191970" d="M310.6875,-117.8906C328.6082,-107.8713 356.9095,-92.0483 377.5523,-80.5071"/>
<polygon fill="#191970" stroke="#191970" points="379.4128,-83.4769 386.4332,-75.5419 375.9967,-77.367 379.4128,-83.4769"/>
</g>
<!-- Node13 -->
<g id="node14" class="node">
<title>Node13</title>
<polygon fill="#ffffff" stroke="#bfbfbf" points="469,-56.5 469,-75.5 510,-75.5 510,-56.5 469,-56.5"/>
<text text-anchor="middle" x="489.5" y="-63.5" font-family="Helvetica,sans-Serif" font-size="10.00" fill="#000000">future</text>
</g>
<!-- Node9&#45;&gt;Node13 -->
<g id="edge13" class="edge">
<title>Node9&#45;&gt;Node13</title>
<path fill="none" stroke="#191970" d="M325.614,-117.9391C357.3372,-108.4192 407.4648,-93.1754 459.2487,-76.3455"/>
<polygon fill="#191970" stroke="#191970" points="460.512,-79.615 468.9331,-73.1856 458.3406,-72.9603 460.512,-79.615"/>
</g>
<!-- Node14 -->
<g id="node15" class="node">
<title>Node14</title>
<polygon fill="#ffffff" stroke="#bfbfbf" points="137.5,-56.5 137.5,-75.5 189.5,-75.5 189.5,-56.5 137.5,-56.5"/>
<text text-anchor="middle" x="163.5" y="-63.5" font-family="Helvetica,sans-Serif" font-size="10.00" fill="#000000">memory</text>
</g>
<!-- Node9&#45;&gt;Node14 -->
<g id="edge14" class="edge">
<title>Node9&#45;&gt;Node14</title>
<path fill="none" stroke="#191970" d="M273.1875,-117.8906C251.6269,-107.6908 217.3522,-91.4763 192.8556,-79.8875"/>
<polygon fill="#191970" stroke="#191970" points="194.2061,-76.6545 183.6699,-75.5419 191.2126,-82.9822 194.2061,-76.6545"/>
</g>
<!-- Node15 -->
<g id="node16" class="node">
<title>Node15</title>
<polygon fill="#ffffff" stroke="#bfbfbf" points="763.5,-56.5 763.5,-75.5 817.5,-75.5 817.5,-56.5 763.5,-56.5"/>
<text text-anchor="middle" x="790.5" y="-63.5" font-family="Helvetica,sans-Serif" font-size="10.00" fill="#000000">iostream</text>
</g>
<!-- Node9&#45;&gt;Node15 -->
<g id="edge15" class="edge">
<title>Node9&#45;&gt;Node15</title>
<path fill="none" stroke="#191970" d="M330.8558,-122.8775C423.1297,-111.4593 661.0212,-82.022 753.2177,-70.6134"/>
<polygon fill="#191970" stroke="#191970" points="753.717,-74.0784 763.2115,-69.3767 752.8573,-67.1314 753.717,-74.0784"/>
</g>
<!-- Node16 -->
<g id="node17" class="node">
<title>Node16</title>
<g id="a_node17"><a xlink:href="_base_pool_8h.html" target="_top" xlink:title="BasePool.h">
<polygon fill="#ffffff" stroke="#000000" points="208,-56.5 208,-75.5 275,-75.5 275,-56.5 208,-56.5"/>
<text text-anchor="middle" x="241.5" y="-63.5" font-family="Helvetica,sans-Serif" font-size="10.00" fill="#000000">BasePool.h</text>
</a>
</g>
</g>
<!-- Node9&#45;&gt;Node16 -->
<g id="edge16" class="edge">
<title>Node9&#45;&gt;Node16</title>
<path fill="none" stroke="#191970" d="M285.375,-117.8906C277.6358,-108.7376 265.8013,-94.7409 256.3728,-83.59"/>
<polygon fill="#191970" stroke="#191970" points="258.8689,-81.1213 249.7396,-75.7449 253.5235,-85.6409 258.8689,-81.1213"/>
</g>
<!-- Node17 -->
<g id="node18" class="node">
<title>Node17</title>
<polygon fill="#ffffff" stroke="#bfbfbf" points="186,-.5 186,-19.5 229,-19.5 229,-.5 186,-.5"/>
<text text-anchor="middle" x="207.5" y="-7.5" font-family="Helvetica,sans-Serif" font-size="10.00" fill="#000000">queue</text>
</g>
<!-- Node16&#45;&gt;Node17 -->
<g id="edge17" class="edge">
<title>Node16&#45;&gt;Node17</title>
<path fill="none" stroke="#191970" d="M235.5777,-56.2455C230.8973,-48.5367 224.2327,-37.5598 218.5711,-28.2348"/>
<polygon fill="#191970" stroke="#191970" points="221.5361,-26.3741 213.3545,-19.6427 215.5525,-30.007 221.5361,-26.3741"/>
</g>
<!-- Node18 -->
<g id="node19" class="node">
<title>Node18</title>
<polygon fill="#ffffff" stroke="#bfbfbf" points="247,-.5 247,-19.5 306,-19.5 306,-.5 247,-.5"/>
<text text-anchor="middle" x="276.5" y="-7.5" font-family="Helvetica,sans-Serif" font-size="10.00" fill="#000000">functional</text>
</g>
<!-- Node16&#45;&gt;Node18 -->
<g id="edge18" class="edge">
<title>Node16&#45;&gt;Node18</title>
<path fill="none" stroke="#191970" d="M247.5965,-56.2455C252.4145,-48.5367 259.2751,-37.5598 265.1032,-28.2348"/>
<polygon fill="#191970" stroke="#191970" points="268.1413,-29.9777 270.4733,-19.6427 262.2053,-26.2677 268.1413,-29.9777"/>
</g>
<!-- Node19&#45;&gt;Node9 -->
<g id="edge20" class="edge">
<title>Node19&#45;&gt;Node9</title>
<path fill="none" stroke="#191970" d="M293.5,-179.3906C293.5,-170.8657 293.5,-158.1392 293.5,-147.4235"/>
<polygon fill="#191970" stroke="#191970" points="297.0001,-147.2448 293.5,-137.2449 290.0001,-147.2449 297.0001,-147.2448"/>
</g>
<!-- Node20&#45;&gt;Node8 -->
<g id="edge24" class="edge">
<title>Node20&#45;&gt;Node8</title>
<path fill="none" stroke="#191970" d="M131.1254,-235.2455C140.0473,-227.0549 152.988,-215.1749 163.5192,-205.5069"/>
<polygon fill="#191970" stroke="#191970" points="165.9968,-207.9837 170.9964,-198.6427 161.2629,-202.8271 165.9968,-207.9837"/>
</g>
<!-- Node21 -->
<g id="node22" class="node">
<title>Node21</title>
<g id="a_node22"><a xlink:href="_multithreading_8hpp.html" target="_top" xlink:title="kryne&#45;engine/Utils\l/Multithreading.hpp">
<polygon fill="#ffffff" stroke="#000000" points="48,-112.5 48,-142.5 147,-142.5 147,-112.5 48,-112.5"/>
<text text-anchor="start" x="56" y="-130.5" font-family="Helvetica,sans-Serif" font-size="10.00" fill="#000000">kryne&#45;engine/Utils</text>
<text text-anchor="middle" x="97.5" y="-119.5" font-family="Helvetica,sans-Serif" font-size="10.00" fill="#000000">/Multithreading.hpp</text>
</a>
</g>
</g>
<!-- Node20&#45;&gt;Node21 -->
<g id="edge22" class="edge">
<title>Node20&#45;&gt;Node21</title>
<path fill="none" stroke="#191970" d="M118.6178,-235.3845C115.11,-217.4644 107.4707,-178.4375 102.4069,-152.5681"/>
<polygon fill="#191970" stroke="#191970" points="105.834,-151.8557 100.4781,-142.7143 98.9644,-153.2004 105.834,-151.8557"/>
</g>
<!-- Node21&#45;&gt;Node11 -->
<g id="edge23" class="edge">
<title>Node21&#45;&gt;Node11</title>
<path fill="none" stroke="#191970" d="M97.5,-112.2977C97.5,-104.3834 97.5,-94.6043 97.5,-86.0759"/>
<polygon fill="#191970" stroke="#191970" points="101.0001,-85.8469 97.5,-75.8469 94.0001,-85.847 101.0001,-85.8469"/>
</g>
<!-- Node23 -->
<g id="node24" class="node">
<title>Node23</title>
<polygon fill="#ffffff" stroke="#bfbfbf" points="860,-297 860,-316 901,-316 901,-297 860,-297"/>
<text text-anchor="middle" x="880.5" y="-304" font-family="Helvetica,sans-Serif" font-size="10.00" fill="#000000">string</text>
</g>
<!-- Node22&#45;&gt;Node23 -->
<g id="edge26" class="edge">
<title>Node22&#45;&gt;Node23</title>
<path fill="none" stroke="#191970" d="M656.5777,-425.3654C676.8672,-416.8588 706.3645,-403.5703 730.5,-389 750.0572,-377.1936 751.8765,-369.696 771.5,-358 804.6443,-338.2454 815.794,-338.8607 850.5,-322 851.3305,-321.5965 852.1724,-321.184 853.0211,-320.7651"/>
<polygon fill="#191970" stroke="#191970" points="854.815,-323.7804 862.1683,-316.1529 851.6634,-317.53 854.815,-323.7804"/>
</g>
<!-- Node24 -->
<g id="node25" class="node">
<title>Node24</title>
<polygon fill="#ffffff" stroke="#bfbfbf" points="780,-364 780,-383 863,-383 863,-364 780,-364"/>
<text text-anchor="middle" x="821.5" y="-371" font-family="Helvetica,sans-Serif" font-size="10.00" fill="#000000">unordered_map</text>
</g>
<!-- Node22&#45;&gt;Node24 -->
<g id="edge27" class="edge">
<title>Node22&#45;&gt;Node24</title>
<path fill="none" stroke="#191970" d="M662.0313,-425.3906C694.4866,-414.8298 746.7581,-397.8208 782.5486,-386.1747"/>
<polygon fill="#191970" stroke="#191970" points="783.7499,-389.4645 792.1761,-383.0419 781.5839,-382.808 783.7499,-389.4645"/>
</g>
<!-- Node25 -->
<g id="node26" class="node">
<title>Node25</title>
<polygon fill="#ffffff" stroke="#bfbfbf" points="777.5,-297 777.5,-316 841.5,-316 841.5,-297 777.5,-297"/>
<text text-anchor="middle" x="809.5" y="-304" font-family="Helvetica,sans-Serif" font-size="10.00" fill="#000000">glad/glad.h</text>
</g>
<!-- Node22&#45;&gt;Node25 -->
<g id="edge28" class="edge">
<title>Node22&#45;&gt;Node25</title>
<path fill="none" stroke="#191970" d="M645.3958,-425.4673C665.1662,-410.8702 704.1794,-382.133 737.5,-358 754.3013,-345.8314 773.4025,-332.177 787.7069,-321.9868"/>
<polygon fill="#191970" stroke="#191970" points="789.8126,-324.7842 795.9302,-316.134 785.7535,-319.0812 789.8126,-324.7842"/>
</g>
<!-- Node26 -->
<g id="node27" class="node">
<title>Node26</title>
<polygon fill="#ffffff" stroke="#bfbfbf" points="679.5,-297 679.5,-316 759.5,-316 759.5,-297 679.5,-297"/>
<text text-anchor="middle" x="719.5" y="-304" font-family="Helvetica,sans-Serif" font-size="10.00" fill="#000000">GLFW/glfw3.h</text>
</g>
<!-- Node22&#45;&gt;Node26 -->
<g id="edge29" class="edge">
<title>Node22&#45;&gt;Node26</title>
<path fill="none" stroke="#191970" d="M639.0391,-425.3416C653.5247,-403.9463 688.5107,-352.2715 707.218,-324.6407"/>
<polygon fill="#191970" stroke="#191970" points="710.1768,-326.5133 712.885,-316.2705 704.3804,-322.5889 710.1768,-326.5133"/>
</g>
<!-- Node27 -->
<g id="node28" class="node">
<title>Node27</title>
<polygon fill="#ffffff" stroke="#bfbfbf" points="195.5,-364 195.5,-383 281.5,-383 281.5,-364 195.5,-364"/>
<text text-anchor="middle" x="238.5" y="-371" font-family="Helvetica,sans-Serif" font-size="10.00" fill="#000000">glm/mat4x4.hpp</text>
</g>
<!-- Node22&#45;&gt;Node27 -->
<g id="edge30" class="edge">
<title>Node22&#45;&gt;Node27</title>
<path fill="none" stroke="#191970" d="M583.38,-430.8218C516.5779,-424.5891 393.5871,-411.1551 290.5,-389 286.3037,-388.0981 281.9539,-387.0263 277.6382,-385.8736"/>
<polygon fill="#191970" stroke="#191970" points="278.2928,-382.4219 267.7184,-383.0791 276.3947,-389.1596 278.2928,-382.4219"/>
</g>
<!-- Node28 -->
<g id="node29" class="node">
<title>Node28</title>
<polygon fill="#ffffff" stroke="#bfbfbf" points="299.5,-364 299.5,-383 405.5,-383 405.5,-364 299.5,-364"/>
<text text-anchor="middle" x="352.5" y="-371" font-family="Helvetica,sans-Serif" font-size="10.00" fill="#000000">glm/gtc/type_ptr.hpp</text>
</g>
<!-- Node22&#45;&gt;Node28 -->
<g id="edge31" class="edge">
<title>Node22&#45;&gt;Node28</title>
<path fill="none" stroke="#191970" d="M584.7587,-425.4558C540.5174,-416.4857 472.924,-402.4621 414.5,-389 409.7495,-387.9054 404.8034,-386.7299 399.8687,-385.5336"/>
<polygon fill="#191970" stroke="#191970" points="400.3679,-382.0523 389.8218,-383.068 398.6994,-388.8506 400.3679,-382.0523"/>
</g>
<!-- Node29 -->
<g id="node30" class="node">
<title>Node29</title>
<polygon fill="#ffffff" stroke="#bfbfbf" points="423.5,-364 423.5,-383 515.5,-383 515.5,-364 423.5,-364"/>
<text text-anchor="middle" x="469.5" y="-371" font-family="Helvetica,sans-Serif" font-size="10.00" fill="#000000">boost/variant.hpp</text>
</g>
<!-- Node22&#45;&gt;Node29 -->
<g id="edge32" class="edge">
<title>Node22&#45;&gt;Node29</title>
<path fill="none" stroke="#191970" d="M607.0313,-425.3906C579.3995,-414.9652 535.1131,-398.2559 504.2872,-386.6252"/>
<polygon fill="#191970" stroke="#191970" points="505.3817,-383.2974 494.7899,-383.0419 502.9106,-389.8467 505.3817,-383.2974"/>
</g>
<!-- Node30 -->
<g id="node31" class="node">
<title>Node30</title>
<g id="a_node31"><a xlink:href="_texture_8h.html" target="_top" xlink:title="kryne&#45;engine/Textures\l/Texture.h">
<polygon fill="#ffffff" stroke="#000000" points="534,-358.5 534,-388.5 647,-388.5 647,-358.5 534,-358.5"/>
<text text-anchor="start" x="542" y="-376.5" font-family="Helvetica,sans-Serif" font-size="10.00" fill="#000000">kryne&#45;engine/Textures</text>
<text text-anchor="middle" x="590.5" y="-365.5" font-family="Helvetica,sans-Serif" font-size="10.00" fill="#000000">/Texture.h</text>
</a>
</g>
</g>
<!-- Node22&#45;&gt;Node30 -->
<g id="edge33" class="edge">
<title>Node22&#45;&gt;Node30</title>
<path fill="none" stroke="#191970" d="M625.9375,-425.3906C620.727,-417.761 613.2181,-406.7658 606.4523,-396.8588"/>
<polygon fill="#191970" stroke="#191970" points="609.3043,-394.8287 600.7744,-388.5446 603.5237,-398.7765 609.3043,-394.8287"/>
</g>
<!-- Node30&#45;&gt;Node2 -->
<g id="edge40" class="edge">
<title>Node30&#45;&gt;Node2</title>
<path fill="none" stroke="#191970" d="M533.7244,-359.5996C530.6127,-359.0151 527.523,-358.4759 524.5,-358 330.6783,-327.4859 276.7941,-360.9992 84.5,-322 80.6318,-321.2155 76.6385,-320.2134 72.6894,-319.0972"/>
<polygon fill="#191970" stroke="#191970" points="73.6476,-315.7302 63.0609,-316.146 71.5962,-322.4229 73.6476,-315.7302"/>
</g>
<!-- Node30&#45;&gt;Node7 -->
<g id="edge43" class="edge">
<title>Node30&#45;&gt;Node7</title>
<path fill="none" stroke="#191970" d="M533.7031,-359.7279C530.5969,-359.1102 527.5142,-358.5289 524.5,-358 392.3593,-334.8136 354.609,-345.0093 217.8198,-321.9156"/>
<polygon fill="#191970" stroke="#191970" points="218.2454,-318.4375 207.7972,-320.1944 217.0605,-325.3365 218.2454,-318.4375"/>
</g>
<!-- Node30&#45;&gt;Node15 -->
<g id="edge36" class="edge">
<title>Node30&#45;&gt;Node15</title>
<path fill="none" stroke="#191970" d="M606.1392,-358.1058C615.0747,-348.49 625.8007,-335.4192 632.5,-322 648.2442,-290.4629 651.5,-280.2487 651.5,-245 651.5,-245 651.5,-245 651.5,-189 651.5,-133.9602 713.3792,-97.6106 754.5643,-79.5128"/>
<polygon fill="#191970" stroke="#191970" points="756.1802,-82.6296 764.028,-75.5118 753.4544,-76.1821 756.1802,-82.6296"/>
</g>
<!-- Node30&#45;&gt;Node23 -->
<g id="edge35" class="edge">
<title>Node30&#45;&gt;Node23</title>
<path fill="none" stroke="#191970" d="M647.2466,-366.9407C700.7484,-359.6711 782.626,-345.7212 850.5,-322 851.9181,-321.5044 853.353,-320.9527 854.7869,-320.3611"/>
<polygon fill="#191970" stroke="#191970" points="856.4618,-323.4421 864.0515,-316.0498 853.5084,-317.0957 856.4618,-323.4421"/>
</g>
<!-- Node30&#45;&gt;Node25 -->
<g id="edge41" class="edge">
<title>Node30&#45;&gt;Node25</title>
<path fill="none" stroke="#191970" d="M646.9722,-358.4024C682.1459,-348.6928 728.2116,-335.42 768.5,-322 770.9006,-321.2004 773.3692,-320.347 775.8477,-319.4673"/>
<polygon fill="#191970" stroke="#191970" points="777.1413,-322.721 785.3331,-316.0021 774.7393,-316.1461 777.1413,-322.721"/>
</g>
<!-- Node30&#45;&gt;Node26 -->
<g id="edge42" class="edge">
<title>Node30&#45;&gt;Node26</title>
<path fill="none" stroke="#191970" d="M619.4501,-358.4639C641.1922,-347.1715 670.7716,-331.8086 692.1227,-320.7192"/>
<polygon fill="#191970" stroke="#191970" points="693.7477,-323.8192 701.0089,-316.1039 690.5212,-317.6071 693.7477,-323.8192"/>
</g>
<!-- Node31 -->
<g id="node32" class="node">
<title>Node31</title>
<polygon fill="#ffffff" stroke="#bfbfbf" points="319.5,-297 319.5,-316 389.5,-316 389.5,-297 319.5,-297"/>
<text text-anchor="middle" x="354.5" y="-304" font-family="Helvetica,sans-Serif" font-size="10.00" fill="#000000">stb_image.h</text>
</g>
<!-- Node30&#45;&gt;Node31 -->
<g id="edge34" class="edge">
<title>Node30&#45;&gt;Node31</title>
<path fill="none" stroke="#191970" d="M533.7972,-359.2955C495.6457,-349.4729 444.3196,-335.7438 399.5,-322 396.7597,-321.1597 393.9359,-320.2626 391.1014,-319.3394"/>
<polygon fill="#191970" stroke="#191970" points="392.1232,-315.9907 381.5294,-316.1452 389.9073,-322.6307 392.1232,-315.9907"/>
</g>
<!-- Node32 -->
<g id="node33" class="node">
<title>Node32</title>
<polygon fill="#ffffff" stroke="#bfbfbf" points="408,-297 408,-316 515,-316 515,-297 408,-297"/>
<text text-anchor="middle" x="461.5" y="-304" font-family="Helvetica,sans-Serif" font-size="10.00" fill="#000000">boost/filesystem.hpp</text>
</g>
<!-- Node30&#45;&gt;Node32 -->
<g id="edge37" class="edge">
<title>Node30&#45;&gt;Node32</title>
<path fill="none" stroke="#191970" d="M561.5499,-358.4639C539.8078,-347.1715 510.2284,-331.8086 488.8773,-320.7192"/>
<polygon fill="#191970" stroke="#191970" points="490.4788,-317.6071 479.9911,-316.1039 487.2523,-323.8192 490.4788,-317.6071"/>
</g>
<!-- Node33 -->
<g id="node34" class="node">
<title>Node33</title>
<polygon fill="#ffffff" stroke="#bfbfbf" points="533.5,-297 533.5,-316 623.5,-316 623.5,-297 533.5,-297"/>
<text text-anchor="middle" x="578.5" y="-304" font-family="Helvetica,sans-Serif" font-size="10.00" fill="#000000">boost/format.hpp</text>
</g>
<!-- Node30&#45;&gt;Node33 -->
<g id="edge38" class="edge">
<title>Node30&#45;&gt;Node33</title>
<path fill="none" stroke="#191970" d="M587.777,-358.2967C586.0707,-348.7699 583.8544,-336.3954 582.0159,-326.1306"/>
<polygon fill="#191970" stroke="#191970" points="585.4196,-325.2813 580.2113,-316.055 578.5292,-326.5154 585.4196,-325.2813"/>
</g>
<!-- Node34 -->
<g id="node35" class="node">
<title>Node34</title>
<polygon fill="#ffffff" stroke="#bfbfbf" points="226,-297 226,-316 301,-316 301,-297 226,-297"/>
<text text-anchor="middle" x="263.5" y="-304" font-family="Helvetica,sans-Serif" font-size="10.00" fill="#000000">glm/vec2.hpp</text>
</g>
<!-- Node30&#45;&gt;Node34 -->
<g id="edge39" class="edge">
<title>Node30&#45;&gt;Node34</title>
<path fill="none" stroke="#191970" d="M533.6689,-359.9097C530.5715,-359.2451 527.5,-358.604 524.5,-358 429.9495,-338.9649 404.123,-345.1702 310.5,-322 307.0596,-321.1486 303.5076,-320.1691 299.9693,-319.1249"/>
<polygon fill="#191970" stroke="#191970" points="300.7264,-315.6949 290.138,-316.0636 298.6452,-322.3784 300.7264,-315.6949"/>
</g>
<!-- Node35&#45;&gt;Node15 -->
<g id="edge48" class="edge">
<title>Node35&#45;&gt;Node15</title>
<path fill="none" stroke="#191970" d="M896.4678,-425.2942C906.7682,-404.2416 929.5,-352.5628 929.5,-306.5 929.5,-306.5 929.5,-306.5 929.5,-189 929.5,-133.9602 867.6208,-97.6106 826.4357,-79.5128"/>
<polygon fill="#191970" stroke="#191970" points="827.5456,-76.1821 816.972,-75.5118 824.8198,-82.6296 827.5456,-76.1821"/>
</g>
<!-- Node35&#45;&gt;Node23 -->
<g id="edge46" class="edge">
<title>Node35&#45;&gt;Node23</title>
<path fill="none" stroke="#191970" d="M890.6732,-425.3416C888.8815,-404.4114 884.6093,-354.504 882.21,-326.4762"/>
<polygon fill="#191970" stroke="#191970" points="885.6766,-325.9355 881.3364,-316.2705 878.7021,-326.5326 885.6766,-325.9355"/>
</g>
<!-- Node35&#45;&gt;Node24 -->
<g id="edge45" class="edge">
<title>Node35&#45;&gt;Node24</title>
<path fill="none" stroke="#191970" d="M880.5625,-425.3906C869.838,-415.9683 853.2713,-401.4134 840.4099,-390.1137"/>
<polygon fill="#191970" stroke="#191970" points="842.4143,-387.2158 832.5917,-383.2449 837.7941,-392.4745 842.4143,-387.2158"/>
</g>
<!-- Node36 -->
<g id="node37" class="node">
<title>Node36</title>
<polygon fill="#ffffff" stroke="#bfbfbf" points="957.5,-364 957.5,-383 1007.5,-383 1007.5,-364 957.5,-364"/>
<text text-anchor="middle" x="982.5" y="-371" font-family="Helvetica,sans-Serif" font-size="10.00" fill="#000000">fstream</text>
</g>
<!-- Node35&#45;&gt;Node36 -->
<g id="edge47" class="edge">
<title>Node35&#45;&gt;Node36</title>
<path fill="none" stroke="#191970" d="M905.7188,-425.3906C920.1434,-415.6421 942.6976,-400.3994 959.636,-388.9521"/>
<polygon fill="#191970" stroke="#191970" points="962.0556,-391.5412 968.3811,-383.0419 958.1359,-385.7415 962.0556,-391.5412"/>
</g>
<!-- Node37 -->
<g id="node38" class="node">
<title>Node37</title>
<g id="a_node38"><a xlink:href="kryne-engine_2_utils_2_utils_8h.html" target="_top" xlink:title="kryne&#45;engine/Utils\l/Utils.h">
<polygon fill="#ffffff" stroke="#000000" points="1026,-358.5 1026,-388.5 1121,-388.5 1121,-358.5 1026,-358.5"/>
<text text-anchor="start" x="1034" y="-376.5" font-family="Helvetica,sans-Serif" font-size="10.00" fill="#000000">kryne&#45;engine/Utils</text>
<text text-anchor="middle" x="1073.5" y="-365.5" font-family="Helvetica,sans-Serif" font-size="10.00" fill="#000000">/Utils.h</text>
</a>
</g>
</g>
<!-- Node35&#45;&gt;Node37 -->
<g id="edge49" class="edge">
<title>Node35&#45;&gt;Node37</title>
<path fill="none" stroke="#191970" d="M919.9375,-425.3906C946.3935,-416.4508 986.5233,-402.8905 1019.1251,-391.8739"/>
<polygon fill="#191970" stroke="#191970" points="1020.6245,-395.0618 1028.9778,-388.5446 1018.3836,-388.4301 1020.6245,-395.0618"/>
</g>
<!-- Node38 -->
<g id="node39" class="node">
<title>Node38</title>
<g id="a_node39"><a xlink:href="_string_utils_8hpp.html" target="_top" xlink:title="StringUtils.hpp">
<polygon fill="#ffffff" stroke="#000000" points="958,-179.5 958,-198.5 1039,-198.5 1039,-179.5 958,-179.5"/>
<text text-anchor="middle" x="998.5" y="-186.5" font-family="Helvetica,sans-Serif" font-size="10.00" fill="#000000">StringUtils.hpp</text>
</a>
</g>
</g>
<!-- Node37&#45;&gt;Node38 -->
<g id="edge50" class="edge">
<title>Node37&#45;&gt;Node38</title>
<path fill="none" stroke="#191970" d="M1051.7305,-358.3309C1040.2788,-349.1588 1027.0789,-336.4572 1019.5,-322 1000.3161,-285.4059 997.6119,-235.9429 997.7761,-208.8253"/>
<polygon fill="#191970" stroke="#191970" points="1001.2784,-208.7433 997.9824,-198.6742 994.2799,-208.601 1001.2784,-208.7433"/>
</g>
<!-- Node39 -->
<g id="node40" class="node">
<title>Node39</title>
<g id="a_node40"><a xlink:href="_vector_mapping_8hpp.html" target="_top" xlink:title="VectorMapping.hpp">
<polygon fill="#ffffff" stroke="#000000" points="1028,-297 1028,-316 1129,-316 1129,-297 1028,-297"/>
<text text-anchor="middle" x="1078.5" y="-304" font-family="Helvetica,sans-Serif" font-size="10.00" fill="#000000">VectorMapping.hpp</text>
</a>
</g>
</g>
<!-- Node37&#45;&gt;Node39 -->
<g id="edge52" class="edge">
<title>Node37&#45;&gt;Node39</title>
<path fill="none" stroke="#191970" d="M1074.6346,-358.2967C1075.3455,-348.7699 1076.269,-336.3954 1077.035,-326.1306"/>
<polygon fill="#191970" stroke="#191970" points="1080.5329,-326.2877 1077.7869,-316.055 1073.5524,-325.7667 1080.5329,-326.2877"/>
</g>
<!-- Node38&#45;&gt;Node15 -->
<g id="edge51" class="edge">
<title>Node38&#45;&gt;Node15</title>
<path fill="none" stroke="#191970" d="M994.2354,-179.393C986.5032,-163.0773 968.613,-129.9778 943.5,-112 908.9031,-87.2329 860.8325,-75.6308 827.8576,-70.3091"/>
<polygon fill="#191970" stroke="#191970" points="828.1257,-66.8104 817.7181,-68.7933 827.0907,-73.7335 828.1257,-66.8104"/>
</g>
<!-- Node39&#45;&gt;Node3 -->
<g id="edge53" class="edge">
<title>Node39&#45;&gt;Node3</title>
<path fill="none" stroke="#191970" d="M1093.6563,-296.8906C1109.1743,-287.0519 1133.5193,-271.6167 1151.6284,-260.1351"/>
<polygon fill="#191970" stroke="#191970" points="1153.8787,-262.8526 1160.4502,-254.5419 1150.1304,-256.9407 1153.8787,-262.8526"/>
</g>
<!-- Node40 -->
<g id="node41" class="node">
<title>Node40</title>
<polygon fill="#ffffff" stroke="#bfbfbf" points="1021.5,-235.5 1021.5,-254.5 1135.5,-254.5 1135.5,-235.5 1021.5,-235.5"/>
<text text-anchor="middle" x="1078.5" y="-242.5" font-family="Helvetica,sans-Serif" font-size="10.00" fill="#000000">glm/detail/qualifier.hpp</text>
</g>
<!-- Node39&#45;&gt;Node40 -->
<g id="edge54" class="edge">
<title>Node39&#45;&gt;Node40</title>
<path fill="none" stroke="#191970" d="M1078.5,-296.8906C1078.5,-288.3657 1078.5,-275.6392 1078.5,-264.9235"/>
<polygon fill="#191970" stroke="#191970" points="1082.0001,-264.7448 1078.5,-254.7449 1075.0001,-264.7449 1082.0001,-264.7448"/>
</g>
</g>
</svg>
