<?xml version="1.0" encoding="UTF-8" standalone="no"?>
<!DOCTYPE svg PUBLIC "-//W3C//DTD SVG 1.1//EN"
 "http://www.w3.org/Graphics/SVG/1.1/DTD/svg11.dtd">
<!-- Generated by graphviz version 2.44.1 (20200629.0846)
 -->
<!-- Title: kryne&#45;engine/include/kryne&#45;engine/Camera/OldCamera.h Pages: 1 -->
<svg width="1930pt" height="585pt"
 viewBox="0.00 0.00 1929.50 585.00" xmlns="http://www.w3.org/2000/svg" xmlns:xlink="http://www.w3.org/1999/xlink">
<g id="graph0" class="graph" transform="scale(1 1) rotate(0) translate(4 581)">
<title>kryne&#45;engine/include/kryne&#45;engine/Camera/OldCamera.h</title>
<polygon fill="white" stroke="transparent" points="-4,4 -4,-581 1925.5,-581 1925.5,4 -4,4"/>
<!-- Node1 -->
<g id="node1" class="node">
<title>Node1</title>
<g id="a_node1"><a xlink:title=" ">
<polygon fill="#bfbfbf" stroke="black" points="470.5,-535.5 470.5,-576.5 582.5,-576.5 582.5,-535.5 470.5,-535.5"/>
<text text-anchor="start" x="478.5" y="-564.5" font-family="Helvetica,sans-Serif" font-size="10.00">kryne&#45;engine/include</text>
<text text-anchor="start" x="478.5" y="-553.5" font-family="Helvetica,sans-Serif" font-size="10.00">/kryne&#45;engine/Camera</text>
<text text-anchor="middle" x="526.5" y="-542.5" font-family="Helvetica,sans-Serif" font-size="10.00">/OldCamera.h</text>
</a>
</g>
</g>
<!-- Node2 -->
<g id="node2" class="node">
<title>Node2</title>
<g id="a_node2"><a xlink:href="_k_e_modules_2_camera_8h.html" target="_top" xlink:title=" ">
<polygon fill="white" stroke="black" points="143,-385 143,-415 258,-415 258,-385 143,-385"/>
<text text-anchor="start" x="151" y="-403" font-family="Helvetica,sans-Serif" font-size="10.00">kryne&#45;engine/include</text>
<text text-anchor="middle" x="200.5" y="-392" font-family="Helvetica,sans-Serif" font-size="10.00">/KEModules/Camera.h</text>
</a>
</g>
</g>
<!-- Node1&#45;&gt;Node2 -->
<g id="edge1" class="edge">
<title>Node1&#45;&gt;Node2</title>
<path fill="none" stroke="midnightblue" d="M460.15,-551.61C407.93,-546.31 335.12,-532.86 280.5,-499 271.54,-493.44 231.02,-441.1 211.32,-415.27"/>
<polygon fill="midnightblue" stroke="midnightblue" points="460.02,-555.11 470.3,-552.57 460.68,-548.15 460.02,-555.11"/>
</g>
<!-- Node3 -->
<g id="node3" class="node">
<title>Node3</title>
<g id="a_node3"><a xlink:href="_basic_camera_8h.html" target="_top" xlink:title=" ">
<polygon fill="white" stroke="black" points="121.5,-457.5 121.5,-498.5 233.5,-498.5 233.5,-457.5 121.5,-457.5"/>
<text text-anchor="start" x="129.5" y="-486.5" font-family="Helvetica,sans-Serif" font-size="10.00">kryne&#45;engine/include</text>
<text text-anchor="start" x="129.5" y="-475.5" font-family="Helvetica,sans-Serif" font-size="10.00">/kryne&#45;engine/Camera</text>
<text text-anchor="middle" x="177.5" y="-464.5" font-family="Helvetica,sans-Serif" font-size="10.00">/BasicCamera.h</text>
</a>
</g>
</g>
<!-- Node1&#45;&gt;Node3 -->
<g id="edge2" class="edge">
<title>Node1&#45;&gt;Node3</title>
<path fill="none" stroke="midnightblue" d="M460.44,-543.29C403.7,-532.86 319.85,-516.57 247.5,-499 242.96,-497.9 238.26,-496.69 233.56,-495.44"/>
<polygon fill="midnightblue" stroke="midnightblue" points="459.9,-546.74 470.36,-545.1 461.16,-539.86 459.9,-546.74"/>
</g>
<!-- Node5 -->
<g id="node5" class="node">
<title>Node5</title>
<g id="a_node5"><a xlink:href="_first_person_camera_8h.html" target="_top" xlink:title=" ">
<polygon fill="white" stroke="black" points="289.5,-457.5 289.5,-498.5 401.5,-498.5 401.5,-457.5 289.5,-457.5"/>
<text text-anchor="start" x="297.5" y="-486.5" font-family="Helvetica,sans-Serif" font-size="10.00">kryne&#45;engine/include</text>
<text text-anchor="start" x="297.5" y="-475.5" font-family="Helvetica,sans-Serif" font-size="10.00">/kryne&#45;engine/Camera</text>
<text text-anchor="middle" x="345.5" y="-464.5" font-family="Helvetica,sans-Serif" font-size="10.00">/FirstPersonCamera.h</text>
</a>
</g>
</g>
<!-- Node1&#45;&gt;Node5 -->
<g id="edge5" class="edge">
<title>Node1&#45;&gt;Node5</title>
<path fill="none" stroke="midnightblue" d="M470.46,-531.47C445.27,-520.89 415.89,-508.56 391.95,-498.51"/>
<polygon fill="midnightblue" stroke="midnightblue" points="469.31,-534.78 479.89,-535.43 472.02,-528.33 469.31,-534.78"/>
</g>
<!-- Node7 -->
<g id="node7" class="node">
<title>Node7</title>
<g id="a_node7"><a xlink:href="_trackball_camera_8h.html" target="_top" xlink:title=" ">
<polygon fill="white" stroke="black" points="425.5,-457.5 425.5,-498.5 537.5,-498.5 537.5,-457.5 425.5,-457.5"/>
<text text-anchor="start" x="433.5" y="-486.5" font-family="Helvetica,sans-Serif" font-size="10.00">kryne&#45;engine/include</text>
<text text-anchor="start" x="433.5" y="-475.5" font-family="Helvetica,sans-Serif" font-size="10.00">/kryne&#45;engine/Camera</text>
<text text-anchor="middle" x="481.5" y="-464.5" font-family="Helvetica,sans-Serif" font-size="10.00">/TrackballCamera.h</text>
</a>
</g>
</g>
<!-- Node1&#45;&gt;Node7 -->
<g id="edge8" class="edge">
<title>Node1&#45;&gt;Node7</title>
<path fill="none" stroke="midnightblue" d="M509.78,-526.76C504.21,-517.35 498.14,-507.1 493.05,-498.51"/>
<polygon fill="midnightblue" stroke="midnightblue" points="506.8,-528.61 514.91,-535.43 512.83,-525.04 506.8,-528.61"/>
</g>
<!-- Node9 -->
<g id="node9" class="node">
<title>Node9</title>
<g id="a_node9"><a xlink:href="_old_process_8h.html" target="_top" xlink:title=" ">
<polygon fill="white" stroke="black" points="568,-67.5 568,-97.5 729,-97.5 729,-67.5 568,-67.5"/>
<text text-anchor="start" x="576" y="-85.5" font-family="Helvetica,sans-Serif" font-size="10.00">kryne&#45;engine/include</text>
<text text-anchor="middle" x="648.5" y="-74.5" font-family="Helvetica,sans-Serif" font-size="10.00">/kryne&#45;engine/Core/OldProcess.h</text>
</a>
</g>
</g>
<!-- Node1&#45;&gt;Node9 -->
<g id="edge11" class="edge">
<title>Node1&#45;&gt;Node9</title>
<path fill="none" stroke="midnightblue" d="M540.67,-525.97C554.19,-495.57 572.5,-446.07 572.5,-401 572.5,-401 572.5,-401 572.5,-232 572.5,-177.55 613.49,-122.99 635.26,-97.84"/>
<polygon fill="midnightblue" stroke="midnightblue" points="537.45,-524.59 536.48,-535.14 543.82,-527.5 537.45,-524.59"/>
</g>
<!-- Node12 -->
<g id="node12" class="node">
<title>Node12</title>
<g id="a_node12"><a xlink:href="_window_8h.html" target="_top" xlink:title=" ">
<polygon fill="white" stroke="black" points="1048.5,-463 1048.5,-493 1192.5,-493 1192.5,-463 1048.5,-463"/>
<text text-anchor="start" x="1056.5" y="-481" font-family="Helvetica,sans-Serif" font-size="10.00">kryne&#45;engine/include</text>
<text text-anchor="middle" x="1120.5" y="-470" font-family="Helvetica,sans-Serif" font-size="10.00">/kryne&#45;engine/Core/Window.h</text>
</a>
</g>
</g>
<!-- Node1&#45;&gt;Node12 -->
<g id="edge14" class="edge">
<title>Node1&#45;&gt;Node12</title>
<path fill="none" stroke="midnightblue" d="M592.91,-545.92C705.4,-531.15 932.28,-502.13 1048.46,-487.64"/>
<polygon fill="midnightblue" stroke="midnightblue" points="592.18,-542.49 582.72,-547.26 593.09,-549.43 592.18,-542.49"/>
</g>
<!-- Node22 -->
<g id="node22" class="node">
<title>Node22</title>
<g id="a_node22"><a xlink:href="_main_renderer_8h.html" target="_top" xlink:title=" ">
<polygon fill="white" stroke="black" points="759.5,-296 759.5,-337 881.5,-337 881.5,-296 759.5,-296"/>
<text text-anchor="start" x="767.5" y="-325" font-family="Helvetica,sans-Serif" font-size="10.00">kryne&#45;engine/include</text>
<text text-anchor="start" x="767.5" y="-314" font-family="Helvetica,sans-Serif" font-size="10.00">/kryne&#45;engine/Rendering</text>
<text text-anchor="middle" x="820.5" y="-303" font-family="Helvetica,sans-Serif" font-size="10.00">/MainRenderer.h</text>
</a>
</g>
</g>
<!-- Node1&#45;&gt;Node22 -->
<g id="edge45" class="edge">
<title>Node1&#45;&gt;Node22</title>
<path fill="none" stroke="midnightblue" d="M558.73,-528.96C618.06,-481.04 743.32,-379.85 796.16,-337.16"/>
<polygon fill="midnightblue" stroke="midnightblue" points="556.39,-526.36 550.81,-535.36 560.79,-531.8 556.39,-526.36"/>
</g>
<!-- Node3&#45;&gt;Node2 -->
<g id="edge3" class="edge">
<title>Node3&#45;&gt;Node2</title>
<path fill="none" stroke="midnightblue" d="M186.39,-447.62C189.76,-436.5 193.44,-424.34 196.19,-415.23"/>
<polygon fill="midnightblue" stroke="midnightblue" points="182.97,-446.84 183.42,-457.43 189.67,-448.87 182.97,-446.84"/>
</g>
<!-- Node4 -->
<g id="node4" class="node">
<title>Node4</title>
<g id="a_node4"><a xlink:href="_basic_camera_8cpp.html" target="_top" xlink:title=" ">
<polygon fill="white" stroke="black" points="0,-385 0,-415 125,-415 125,-385 0,-385"/>
<text text-anchor="start" x="8" y="-403" font-family="Helvetica,sans-Serif" font-size="10.00">kryne&#45;engine/src/Camera</text>
<text text-anchor="middle" x="62.5" y="-392" font-family="Helvetica,sans-Serif" font-size="10.00">/BasicCamera.cpp</text>
</a>
</g>
</g>
<!-- Node3&#45;&gt;Node4 -->
<g id="edge4" class="edge">
<title>Node3&#45;&gt;Node4</title>
<path fill="none" stroke="midnightblue" d="M139.15,-451.66C120.8,-439.53 99.5,-425.45 84.03,-415.23"/>
<polygon fill="midnightblue" stroke="midnightblue" points="137.61,-454.83 147.88,-457.43 141.47,-448.99 137.61,-454.83"/>
</g>
<!-- Node5&#45;&gt;Node2 -->
<g id="edge6" class="edge">
<title>Node5&#45;&gt;Node2</title>
<path fill="none" stroke="midnightblue" d="M299.03,-452.64C275.47,-440.3 247.69,-425.73 227.64,-415.23"/>
<polygon fill="midnightblue" stroke="midnightblue" points="297.68,-455.89 308.16,-457.43 300.93,-449.69 297.68,-455.89"/>
</g>
<!-- Node6 -->
<g id="node6" class="node">
<title>Node6</title>
<g id="a_node6"><a xlink:href="_first_person_camera_8cpp.html" target="_top" xlink:title=" ">
<polygon fill="white" stroke="black" points="276,-385 276,-415 401,-415 401,-385 276,-385"/>
<text text-anchor="start" x="284" y="-403" font-family="Helvetica,sans-Serif" font-size="10.00">kryne&#45;engine/src/Camera</text>
<text text-anchor="middle" x="338.5" y="-392" font-family="Helvetica,sans-Serif" font-size="10.00">/FirstPersonCamera.cpp</text>
</a>
</g>
</g>
<!-- Node5&#45;&gt;Node6 -->
<g id="edge7" class="edge">
<title>Node5&#45;&gt;Node6</title>
<path fill="none" stroke="midnightblue" d="M342.76,-447.28C341.75,-436.25 340.64,-424.25 339.81,-415.23"/>
<polygon fill="midnightblue" stroke="midnightblue" points="339.29,-447.79 343.7,-457.43 346.27,-447.15 339.29,-447.79"/>
</g>
<!-- Node7&#45;&gt;Node2 -->
<g id="edge9" class="edge">
<title>Node7&#45;&gt;Node2</title>
<path fill="none" stroke="midnightblue" d="M415.53,-458.35C413.84,-457.89 412.16,-457.44 410.5,-457 346.74,-440.05 330.09,-438.57 266.5,-421 259.81,-419.15 252.76,-417.11 245.86,-415.07"/>
<polygon fill="midnightblue" stroke="midnightblue" points="414.78,-461.77 425.35,-461.02 416.62,-455.01 414.78,-461.77"/>
</g>
<!-- Node8 -->
<g id="node8" class="node">
<title>Node8</title>
<g id="a_node8"><a xlink:href="_trackball_camera_8cpp.html" target="_top" xlink:title=" ">
<polygon fill="white" stroke="black" points="419,-385 419,-415 544,-415 544,-385 419,-385"/>
<text text-anchor="start" x="427" y="-403" font-family="Helvetica,sans-Serif" font-size="10.00">kryne&#45;engine/src/Camera</text>
<text text-anchor="middle" x="481.5" y="-392" font-family="Helvetica,sans-Serif" font-size="10.00">/TrackballCamera.cpp</text>
</a>
</g>
</g>
<!-- Node7&#45;&gt;Node8 -->
<g id="edge10" class="edge">
<title>Node7&#45;&gt;Node8</title>
<path fill="none" stroke="midnightblue" d="M481.5,-447.28C481.5,-436.25 481.5,-424.25 481.5,-415.23"/>
<polygon fill="midnightblue" stroke="midnightblue" points="478,-447.43 481.5,-457.43 485,-447.43 478,-447.43"/>
</g>
<!-- Node10 -->
<g id="node10" class="node">
<title>Node10</title>
<g id="a_node10"><a xlink:href="_core_8h.html" target="_top" xlink:title=" ">
<polygon fill="white" stroke="black" points="1295.5,-0.5 1295.5,-30.5 1401.5,-30.5 1401.5,-0.5 1295.5,-0.5"/>
<text text-anchor="start" x="1303.5" y="-18.5" font-family="Helvetica,sans-Serif" font-size="10.00">kryne&#45;engine/include</text>
<text text-anchor="middle" x="1348.5" y="-7.5" font-family="Helvetica,sans-Serif" font-size="10.00">/KEModules/Core.h</text>
</a>
</g>
</g>
<!-- Node9&#45;&gt;Node10 -->
<g id="edge12" class="edge">
<title>Node9&#45;&gt;Node10</title>
<path fill="none" stroke="midnightblue" d="M739.5,-66.81C950.64,-41.31 1190.59,-25.65 1295.23,-19.48"/>
<polygon fill="midnightblue" stroke="midnightblue" points="738.97,-63.35 729.47,-68.03 739.82,-70.3 738.97,-63.35"/>
</g>
<!-- Node11 -->
<g id="node11" class="node">
<title>Node11</title>
<g id="a_node11"><a xlink:href="_old_process_8cpp.html" target="_top" xlink:title=" ">
<polygon fill="white" stroke="black" points="592.5,-0.5 592.5,-30.5 704.5,-30.5 704.5,-0.5 592.5,-0.5"/>
<text text-anchor="start" x="600.5" y="-18.5" font-family="Helvetica,sans-Serif" font-size="10.00">kryne&#45;engine/src/Core</text>
<text text-anchor="middle" x="648.5" y="-7.5" font-family="Helvetica,sans-Serif" font-size="10.00">/OldProcess.cpp</text>
</a>
</g>
</g>
<!-- Node9&#45;&gt;Node11 -->
<g id="edge13" class="edge">
<title>Node9&#45;&gt;Node11</title>
<path fill="none" stroke="midnightblue" d="M648.5,-57.11C648.5,-48.15 648.5,-38.32 648.5,-30.58"/>
<polygon fill="midnightblue" stroke="midnightblue" points="645,-57.4 648.5,-67.4 652,-57.4 645,-57.4"/>
</g>
<!-- Node12&#45;&gt;Node1 -->
<g id="edge16" class="edge">
<title>Node12&#45;&gt;Node1</title>
<path fill="none" stroke="midnightblue" d="M1038.38,-490.14C915.77,-506.17 688.17,-535.25 582.72,-548.32"/>
<polygon fill="midnightblue" stroke="midnightblue" points="1039,-493.59 1048.47,-488.82 1038.1,-486.65 1039,-493.59"/>
</g>
<!-- Node12&#45;&gt;Node9 -->
<g id="edge17" class="edge">
<title>Node12&#45;&gt;Node9</title>
<path fill="none" stroke="midnightblue" d="M1038.1,-474.3C968.09,-469.47 866.25,-456.32 784.5,-421 714.77,-390.87 648.5,-393.46 648.5,-317.5 648.5,-317.5 648.5,-317.5 648.5,-232 648.5,-182.76 648.5,-124.33 648.5,-97.84"/>
<polygon fill="midnightblue" stroke="midnightblue" points="1037.98,-477.8 1048.19,-474.96 1038.44,-470.82 1037.98,-477.8"/>
</g>
<!-- Node12&#45;&gt;Node10 -->
<g id="edge15" class="edge">
<title>Node12&#45;&gt;Node10</title>
<path fill="none" stroke="midnightblue" d="M1202.74,-475.93C1358.95,-472.97 1692.54,-461.9 1799.5,-421 1865.92,-395.6 1921.5,-388.61 1921.5,-317.5 1921.5,-317.5 1921.5,-317.5 1921.5,-154 1921.5,-47.67 1543.68,-23.36 1401.64,-17.98"/>
<polygon fill="midnightblue" stroke="midnightblue" points="1202.65,-472.43 1192.71,-476.11 1202.77,-479.43 1202.65,-472.43"/>
</g>
<!-- Node13 -->
<g id="node13" class="node">
<title>Node13</title>
<g id="a_node13"><a xlink:href="_old_render_pass_8h.html" target="_top" xlink:title=" ">
<polygon fill="white" stroke="black" points="1059.5,-379.5 1059.5,-420.5 1181.5,-420.5 1181.5,-379.5 1059.5,-379.5"/>
<text text-anchor="start" x="1067.5" y="-408.5" font-family="Helvetica,sans-Serif" font-size="10.00">kryne&#45;engine/include</text>
<text text-anchor="start" x="1067.5" y="-397.5" font-family="Helvetica,sans-Serif" font-size="10.00">/kryne&#45;engine/Rendering</text>
<text text-anchor="middle" x="1120.5" y="-386.5" font-family="Helvetica,sans-Serif" font-size="10.00">/OldRenderPass.h</text>
</a>
</g>
</g>
<!-- Node12&#45;&gt;Node13 -->
<g id="edge18" class="edge">
<title>Node12&#45;&gt;Node13</title>
<path fill="none" stroke="midnightblue" d="M1120.5,-452.66C1120.5,-442.33 1120.5,-430.44 1120.5,-420.68"/>
<polygon fill="midnightblue" stroke="midnightblue" points="1117,-452.7 1120.5,-462.7 1124,-452.71 1117,-452.7"/>
</g>
<!-- Node17 -->
<g id="node17" class="node">
<title>Node17</title>
<g id="a_node17"><a xlink:href="_shadow_map_handler_8h.html" target="_top" xlink:title=" ">
<polygon fill="white" stroke="black" points="1245.5,-212.5 1245.5,-253.5 1433.5,-253.5 1433.5,-212.5 1245.5,-212.5"/>
<text text-anchor="start" x="1253.5" y="-241.5" font-family="Helvetica,sans-Serif" font-size="10.00">kryne&#45;engine/include</text>
<text text-anchor="start" x="1253.5" y="-230.5" font-family="Helvetica,sans-Serif" font-size="10.00">/kryne&#45;engine/Rendering</text>
<text text-anchor="middle" x="1339.5" y="-219.5" font-family="Helvetica,sans-Serif" font-size="10.00">/ShadowMapping/ShadowMapHandler.h</text>
</a>
</g>
</g>
<!-- Node12&#45;&gt;Node17 -->
<g id="edge43" class="edge">
<title>Node12&#45;&gt;Node17</title>
<path fill="none" stroke="midnightblue" d="M1202.36,-463.67C1250.49,-454.07 1304.89,-439.55 1320.5,-421 1361.05,-372.81 1351.26,-291 1343.98,-253.65"/>
<polygon fill="midnightblue" stroke="midnightblue" points="1201.66,-460.24 1192.51,-465.58 1203,-467.11 1201.66,-460.24"/>
</g>
<!-- Node18 -->
<g id="node18" class="node">
<title>Node18</title>
<g id="a_node18"><a xlink:href="_render_scene_8h.html" target="_top" xlink:title=" ">
<polygon fill="white" stroke="black" points="715.5,-134.5 715.5,-175.5 837.5,-175.5 837.5,-134.5 715.5,-134.5"/>
<text text-anchor="start" x="723.5" y="-163.5" font-family="Helvetica,sans-Serif" font-size="10.00">kryne&#45;engine/include</text>
<text text-anchor="start" x="723.5" y="-152.5" font-family="Helvetica,sans-Serif" font-size="10.00">/kryne&#45;engine/Rendering</text>
<text text-anchor="middle" x="776.5" y="-141.5" font-family="Helvetica,sans-Serif" font-size="10.00">/RenderScene.h</text>
</a>
</g>
</g>
<!-- Node12&#45;&gt;Node18 -->
<g id="edge42" class="edge">
<title>Node12&#45;&gt;Node18</title>
<path fill="none" stroke="midnightblue" d="M1038.29,-470.73C952.9,-459.6 821.98,-428.71 750.5,-343 712.97,-298 717.29,-267.7 735.5,-212 739.88,-198.6 748.82,-185.75 757.24,-175.75"/>
<polygon fill="midnightblue" stroke="midnightblue" points="1038.12,-474.23 1048.47,-471.99 1038.98,-467.29 1038.12,-474.23"/>
</g>
<!-- Node26 -->
<g id="node26" class="node">
<title>Node26</title>
<g id="a_node26"><a xlink:href="_renderer_8h.html" target="_top" xlink:title=" ">
<polygon fill="white" stroke="black" points="1668.5,-379.5 1668.5,-420.5 1790.5,-420.5 1790.5,-379.5 1668.5,-379.5"/>
<text text-anchor="start" x="1676.5" y="-408.5" font-family="Helvetica,sans-Serif" font-size="10.00">kryne&#45;engine/include</text>
<text text-anchor="start" x="1676.5" y="-397.5" font-family="Helvetica,sans-Serif" font-size="10.00">/kryne&#45;engine/Rendering</text>
<text text-anchor="middle" x="1729.5" y="-386.5" font-family="Helvetica,sans-Serif" font-size="10.00">/Renderer.h</text>
</a>
</g>
</g>
<!-- Node12&#45;&gt;Node26 -->
<g id="edge39" class="edge">
<title>Node12&#45;&gt;Node26</title>
<path fill="none" stroke="midnightblue" d="M1202.94,-466.71C1326.85,-451.25 1558.26,-422.37 1668.32,-408.64"/>
<polygon fill="midnightblue" stroke="midnightblue" points="1202.24,-463.27 1192.75,-467.98 1203.11,-470.22 1202.24,-463.27"/>
</g>
<!-- Node28 -->
<g id="node28" class="node">
<title>Node28</title>
<g id="a_node28"><a xlink:href="_window_8cpp.html" target="_top" xlink:title=" ">
<polygon fill="white" stroke="black" points="1199.5,-385 1199.5,-415 1311.5,-415 1311.5,-385 1199.5,-385"/>
<text text-anchor="start" x="1207.5" y="-403" font-family="Helvetica,sans-Serif" font-size="10.00">kryne&#45;engine/src/Core</text>
<text text-anchor="middle" x="1255.5" y="-392" font-family="Helvetica,sans-Serif" font-size="10.00">/Window.cpp</text>
</a>
</g>
</g>
<!-- Node12&#45;&gt;Node28 -->
<g id="edge44" class="edge">
<title>Node12&#45;&gt;Node28</title>
<path fill="none" stroke="midnightblue" d="M1154.57,-457.82C1178.22,-444.51 1209.19,-427.07 1230.56,-415.04"/>
<polygon fill="midnightblue" stroke="midnightblue" points="1152.57,-454.93 1145.58,-462.88 1156.01,-461.03 1152.57,-454.93"/>
</g>
<!-- Node14 -->
<g id="node14" class="node">
<title>Node14</title>
<g id="a_node14"><a xlink:href="_rendering_8h.html" target="_top" xlink:title=" ">
<polygon fill="white" stroke="black" points="1535,-67.5 1535,-97.5 1660,-97.5 1660,-67.5 1535,-67.5"/>
<text text-anchor="start" x="1543" y="-85.5" font-family="Helvetica,sans-Serif" font-size="10.00">kryne&#45;engine/include</text>
<text text-anchor="middle" x="1597.5" y="-74.5" font-family="Helvetica,sans-Serif" font-size="10.00">/KEModules/Rendering.h</text>
</a>
</g>
</g>
<!-- Node13&#45;&gt;Node14 -->
<g id="edge19" class="edge">
<title>Node13&#45;&gt;Node14</title>
<path fill="none" stroke="midnightblue" d="M1191.9,-379.11C1294.19,-364.22 1517.5,-386.52 1592.5,-343 1675.67,-294.73 1688.9,-221.27 1648.5,-134 1641.75,-119.41 1628.85,-106.7 1617.72,-97.68"/>
<polygon fill="midnightblue" stroke="midnightblue" points="1191.1,-375.69 1181.8,-380.78 1192.24,-382.6 1191.1,-375.69"/>
</g>
<!-- Node15 -->
<g id="node15" class="node">
<title>Node15</title>
<g id="a_node15"><a xlink:href="_hierarchical_node_8h.html" target="_top" xlink:title=" ">
<polygon fill="white" stroke="black" points="1058.5,-296 1058.5,-337 1182.5,-337 1182.5,-296 1058.5,-296"/>
<text text-anchor="start" x="1066.5" y="-325" font-family="Helvetica,sans-Serif" font-size="10.00">kryne&#45;engine/include</text>
<text text-anchor="start" x="1066.5" y="-314" font-family="Helvetica,sans-Serif" font-size="10.00">/kryne&#45;engine/3DObjects</text>
<text text-anchor="middle" x="1120.5" y="-303" font-family="Helvetica,sans-Serif" font-size="10.00">/HierarchicalNode.h</text>
</a>
</g>
</g>
<!-- Node13&#45;&gt;Node15 -->
<g id="edge20" class="edge">
<title>Node13&#45;&gt;Node15</title>
<path fill="none" stroke="midnightblue" d="M1113.97,-369.06C1113.53,-358.38 1113.75,-346.63 1114.64,-337.05"/>
<polygon fill="midnightblue" stroke="midnightblue" points="1110.49,-369.52 1114.62,-379.27 1117.47,-369.07 1110.49,-369.52"/>
</g>
<!-- Node13&#45;&gt;Node22 -->
<g id="edge31" class="edge">
<title>Node13&#45;&gt;Node22</title>
<path fill="none" stroke="midnightblue" d="M1049.46,-379.7C998.44,-365.84 930.37,-347.35 881.74,-334.14"/>
<polygon fill="midnightblue" stroke="midnightblue" points="1048.86,-383.16 1059.43,-382.41 1050.7,-376.41 1048.86,-383.16"/>
</g>
<!-- Node24 -->
<g id="node24" class="node">
<title>Node24</title>
<g id="a_node24"><a xlink:href="_directional_shadow_map_rendering_8h.html" target="_top" xlink:title=" ">
<polygon fill="white" stroke="black" points="1409.5,-290.5 1409.5,-342.5 1583.5,-342.5 1583.5,-290.5 1409.5,-290.5"/>
<text text-anchor="start" x="1417.5" y="-330.5" font-family="Helvetica,sans-Serif" font-size="10.00">kryne&#45;engine/include</text>
<text text-anchor="start" x="1417.5" y="-319.5" font-family="Helvetica,sans-Serif" font-size="10.00">/kryne&#45;engine/Rendering</text>
<text text-anchor="start" x="1417.5" y="-308.5" font-family="Helvetica,sans-Serif" font-size="10.00">/ShadowMapping/DirectionalShadow</text>
<text text-anchor="middle" x="1496.5" y="-297.5" font-family="Helvetica,sans-Serif" font-size="10.00">MapRendering.h</text>
</a>
</g>
</g>
<!-- Node13&#45;&gt;Node24 -->
<g id="edge35" class="edge">
<title>Node13&#45;&gt;Node24</title>
<path fill="none" stroke="midnightblue" d="M1191.64,-378.81C1270.68,-359.83 1350.44,-344.09 1409.37,-333.09"/>
<polygon fill="midnightblue" stroke="midnightblue" points="1190.4,-375.51 1181.51,-381.26 1192.05,-382.31 1190.4,-375.51"/>
</g>
<!-- Node15&#45;&gt;Node13 -->
<g id="edge22" class="edge">
<title>Node15&#45;&gt;Node13</title>
<path fill="none" stroke="midnightblue" d="M1127.03,-347.23C1127.47,-357.9 1127.25,-369.66 1126.38,-379.27"/>
<polygon fill="midnightblue" stroke="midnightblue" points="1130.5,-346.8 1126.36,-337.05 1123.52,-347.25 1130.5,-346.8"/>
</g>
<!-- Node16 -->
<g id="node16" class="node">
<title>Node16</title>
<g id="a_node16"><a xlink:href="3_d_objects_8h.html" target="_top" xlink:title=" ">
<polygon fill="white" stroke="black" points="945,-218 945,-248 1072,-248 1072,-218 945,-218"/>
<text text-anchor="start" x="953" y="-236" font-family="Helvetica,sans-Serif" font-size="10.00">kryne&#45;engine/include</text>
<text text-anchor="middle" x="1008.5" y="-225" font-family="Helvetica,sans-Serif" font-size="10.00">/KEModules/3DObjects.h</text>
</a>
</g>
</g>
<!-- Node15&#45;&gt;Node16 -->
<g id="edge21" class="edge">
<title>Node15&#45;&gt;Node16</title>
<path fill="none" stroke="midnightblue" d="M1085.5,-290.03C1066.43,-276.16 1043.58,-259.53 1027.74,-248"/>
<polygon fill="midnightblue" stroke="midnightblue" points="1083.53,-292.92 1093.67,-295.98 1087.65,-287.26 1083.53,-292.92"/>
</g>
<!-- Node15&#45;&gt;Node17 -->
<g id="edge23" class="edge">
<title>Node15&#45;&gt;Node17</title>
<path fill="none" stroke="midnightblue" d="M1182.51,-292.42C1215.51,-280.14 1255.66,-265.2 1287.09,-253.5"/>
<polygon fill="midnightblue" stroke="midnightblue" points="1181.11,-289.21 1172.96,-295.98 1183.55,-295.77 1181.11,-289.21"/>
</g>
<!-- Node21 -->
<g id="node21" class="node">
<title>Node21</title>
<g id="a_node21"><a xlink:href="_hierarchical_node_8cpp.html" target="_top" xlink:title=" ">
<polygon fill="white" stroke="black" points="1090,-218 1090,-248 1227,-248 1227,-218 1090,-218"/>
<text text-anchor="start" x="1098" y="-236" font-family="Helvetica,sans-Serif" font-size="10.00">kryne&#45;engine/src/3DObjects</text>
<text text-anchor="middle" x="1158.5" y="-225" font-family="Helvetica,sans-Serif" font-size="10.00">/HierarchicalNode.cpp</text>
</a>
</g>
</g>
<!-- Node15&#45;&gt;Node21 -->
<g id="edge30" class="edge">
<title>Node15&#45;&gt;Node21</title>
<path fill="none" stroke="midnightblue" d="M1133.94,-286.67C1140.03,-273.62 1146.95,-258.78 1151.89,-248.18"/>
<polygon fill="midnightblue" stroke="midnightblue" points="1130.75,-285.23 1129.7,-295.77 1137.1,-288.19 1130.75,-285.23"/>
</g>
<!-- Node17&#45;&gt;Node14 -->
<g id="edge24" class="edge">
<title>Node17&#45;&gt;Node14</title>
<path fill="none" stroke="midnightblue" d="M1387.84,-207.9C1406.63,-198.28 1428.23,-186.92 1447.5,-176 1493.82,-149.76 1546.47,-116.46 1575.45,-97.81"/>
<polygon fill="midnightblue" stroke="midnightblue" points="1386.19,-204.82 1378.87,-212.47 1389.37,-211.05 1386.19,-204.82"/>
</g>
<!-- Node17&#45;&gt;Node18 -->
<g id="edge25" class="edge">
<title>Node17&#45;&gt;Node18</title>
<path fill="none" stroke="midnightblue" d="M1235.81,-212.05C1235.7,-212.03 1235.6,-212.02 1235.5,-212 1093.54,-189.72 925.69,-171.22 837.57,-162.1"/>
<polygon fill="midnightblue" stroke="midnightblue" points="1235.02,-215.47 1245.45,-213.61 1236.14,-208.56 1235.02,-215.47"/>
</g>
<!-- Node20 -->
<g id="node20" class="node">
<title>Node20</title>
<g id="a_node20"><a xlink:href="_shadow_map_handler_8cpp.html" target="_top" xlink:title=" ">
<polygon fill="white" stroke="black" points="1240,-140 1240,-170 1439,-170 1439,-140 1240,-140"/>
<text text-anchor="start" x="1248" y="-158" font-family="Helvetica,sans-Serif" font-size="10.00">kryne&#45;engine/src/Rendering</text>
<text text-anchor="middle" x="1339.5" y="-147" font-family="Helvetica,sans-Serif" font-size="10.00">/ShadowMapping/ShadowMapHandler.cpp</text>
</a>
</g>
</g>
<!-- Node17&#45;&gt;Node20 -->
<g id="edge29" class="edge">
<title>Node17&#45;&gt;Node20</title>
<path fill="none" stroke="midnightblue" d="M1339.5,-202.28C1339.5,-191.25 1339.5,-179.25 1339.5,-170.23"/>
<polygon fill="midnightblue" stroke="midnightblue" points="1336,-202.43 1339.5,-212.43 1343,-202.43 1336,-202.43"/>
</g>
<!-- Node18&#45;&gt;Node9 -->
<g id="edge27" class="edge">
<title>Node18&#45;&gt;Node9</title>
<path fill="none" stroke="midnightblue" d="M731.91,-129.44C712.62,-118.82 690.74,-106.76 674.23,-97.67"/>
<polygon fill="midnightblue" stroke="midnightblue" points="730.4,-132.6 740.84,-134.36 733.77,-126.47 730.4,-132.6"/>
</g>
<!-- Node18&#45;&gt;Node14 -->
<g id="edge26" class="edge">
<title>Node18&#45;&gt;Node14</title>
<path fill="none" stroke="midnightblue" d="M847.87,-141.59C865.68,-138.79 884.75,-136.05 902.5,-134 1134.75,-107.18 1412.4,-92.07 1534.56,-86.28"/>
<polygon fill="midnightblue" stroke="midnightblue" points="846.88,-138.2 837.56,-143.24 847.99,-145.12 846.88,-138.2"/>
</g>
<!-- Node19 -->
<g id="node19" class="node">
<title>Node19</title>
<g id="a_node19"><a xlink:href="_render_scene_8cpp.html" target="_top" xlink:title=" ">
<polygon fill="white" stroke="black" points="747,-67.5 747,-97.5 882,-97.5 882,-67.5 747,-67.5"/>
<text text-anchor="start" x="755" y="-85.5" font-family="Helvetica,sans-Serif" font-size="10.00">kryne&#45;engine/src/Rendering</text>
<text text-anchor="middle" x="814.5" y="-74.5" font-family="Helvetica,sans-Serif" font-size="10.00">/RenderScene.cpp</text>
</a>
</g>
</g>
<!-- Node18&#45;&gt;Node19 -->
<g id="edge28" class="edge">
<title>Node18&#45;&gt;Node19</title>
<path fill="none" stroke="midnightblue" d="M791.83,-125.55C796.95,-116.05 802.45,-105.86 806.74,-97.89"/>
<polygon fill="midnightblue" stroke="midnightblue" points="788.75,-123.9 787.09,-134.36 794.91,-127.22 788.75,-123.9"/>
</g>
<!-- Node22&#45;&gt;Node14 -->
<g id="edge32" class="edge">
<title>Node22&#45;&gt;Node14</title>
<path fill="none" stroke="midnightblue" d="M854.66,-289.55C868.06,-278.94 883.35,-266.28 896.5,-254 915.11,-236.61 913.66,-225.11 935.5,-212 1036.83,-151.2 1390.01,-106.38 1534.83,-90.15"/>
<polygon fill="midnightblue" stroke="midnightblue" points="852.3,-286.95 846.59,-295.87 856.62,-292.46 852.3,-286.95"/>
</g>
<!-- Node22&#45;&gt;Node18 -->
<g id="edge33" class="edge">
<title>Node22&#45;&gt;Node18</title>
<path fill="none" stroke="midnightblue" d="M775.2,-290.05C762.58,-280.51 750.44,-268.42 743.5,-254 730.97,-227.95 747.25,-195.91 761.06,-175.71"/>
<polygon fill="midnightblue" stroke="midnightblue" points="773.33,-293.01 783.51,-295.95 777.38,-287.31 773.33,-293.01"/>
</g>
<!-- Node23 -->
<g id="node23" class="node">
<title>Node23</title>
<g id="a_node23"><a xlink:href="_main_renderer_8cpp.html" target="_top" xlink:title=" ">
<polygon fill="white" stroke="black" points="753,-218 753,-248 888,-248 888,-218 753,-218"/>
<text text-anchor="start" x="761" y="-236" font-family="Helvetica,sans-Serif" font-size="10.00">kryne&#45;engine/src/Rendering</text>
<text text-anchor="middle" x="820.5" y="-225" font-family="Helvetica,sans-Serif" font-size="10.00">/MainRenderer.cpp</text>
</a>
</g>
</g>
<!-- Node22&#45;&gt;Node23 -->
<g id="edge34" class="edge">
<title>Node22&#45;&gt;Node23</title>
<path fill="none" stroke="midnightblue" d="M820.5,-285.53C820.5,-272.76 820.5,-258.47 820.5,-248.18"/>
<polygon fill="midnightblue" stroke="midnightblue" points="817,-285.77 820.5,-295.77 824,-285.77 817,-285.77"/>
</g>
<!-- Node24&#45;&gt;Node14 -->
<g id="edge36" class="edge">
<title>Node24&#45;&gt;Node14</title>
<path fill="none" stroke="midnightblue" d="M1593.04,-289.84C1609.46,-281.13 1624.44,-269.5 1634.5,-254 1667.32,-203.44 1626.76,-128.46 1607.07,-97.57"/>
<polygon fill="midnightblue" stroke="midnightblue" points="1591.22,-286.83 1583.79,-294.38 1594.31,-293.11 1591.22,-286.83"/>
</g>
<!-- Node24&#45;&gt;Node17 -->
<g id="edge37" class="edge">
<title>Node24&#45;&gt;Node17</title>
<path fill="none" stroke="midnightblue" d="M1439.12,-285.71C1418.5,-275.01 1395.79,-263.22 1377.26,-253.6"/>
<polygon fill="midnightblue" stroke="midnightblue" points="1437.63,-288.88 1448.11,-290.38 1440.85,-282.67 1437.63,-288.88"/>
</g>
<!-- Node25 -->
<g id="node25" class="node">
<title>Node25</title>
<g id="a_node25"><a xlink:href="_directional_shadow_map_rendering_8cpp.html" target="_top" xlink:title=" ">
<polygon fill="white" stroke="black" points="1451.5,-212.5 1451.5,-253.5 1625.5,-253.5 1625.5,-212.5 1451.5,-212.5"/>
<text text-anchor="start" x="1459.5" y="-241.5" font-family="Helvetica,sans-Serif" font-size="10.00">kryne&#45;engine/src/Rendering</text>
<text text-anchor="start" x="1459.5" y="-230.5" font-family="Helvetica,sans-Serif" font-size="10.00">/ShadowMapping/DirectionalShadow</text>
<text text-anchor="middle" x="1538.5" y="-219.5" font-family="Helvetica,sans-Serif" font-size="10.00">MapRendering.cpp</text>
</a>
</g>
</g>
<!-- Node24&#45;&gt;Node25 -->
<g id="edge38" class="edge">
<title>Node24&#45;&gt;Node25</title>
<path fill="none" stroke="midnightblue" d="M1514.27,-281.03C1519.09,-271.67 1524.15,-261.85 1528.38,-253.63"/>
<polygon fill="midnightblue" stroke="midnightblue" points="1511.03,-279.67 1509.56,-290.16 1517.25,-282.87 1511.03,-279.67"/>
</g>
<!-- Node26&#45;&gt;Node14 -->
<g id="edge40" class="edge">
<title>Node26&#45;&gt;Node14</title>
<path fill="none" stroke="midnightblue" d="M1735.6,-369.5C1744.73,-316.92 1755.89,-205.82 1705.5,-134 1693.37,-116.72 1673.76,-105.19 1654.56,-97.58"/>
<polygon fill="midnightblue" stroke="midnightblue" points="1732.13,-369.03 1733.77,-379.5 1739.01,-370.29 1732.13,-369.03"/>
</g>
<!-- Node27 -->
<g id="node27" class="node">
<title>Node27</title>
<g id="a_node27"><a xlink:href="_renderer_8cpp.html" target="_top" xlink:title=" ">
<polygon fill="white" stroke="black" points="1758,-301.5 1758,-331.5 1893,-331.5 1893,-301.5 1758,-301.5"/>
<text text-anchor="start" x="1766" y="-319.5" font-family="Helvetica,sans-Serif" font-size="10.00">kryne&#45;engine/src/Rendering</text>
<text text-anchor="middle" x="1825.5" y="-308.5" font-family="Helvetica,sans-Serif" font-size="10.00">/Renderer.cpp</text>
</a>
</g>
</g>
<!-- Node26&#45;&gt;Node27 -->
<g id="edge41" class="edge">
<title>Node26&#45;&gt;Node27</title>
<path fill="none" stroke="midnightblue" d="M1760.8,-372.43C1776.78,-358.86 1795.59,-342.9 1808.79,-331.68"/>
<polygon fill="midnightblue" stroke="midnightblue" points="1758.1,-370.13 1752.74,-379.27 1762.63,-375.47 1758.1,-370.13"/>
</g>
</g>
</svg>
