<?xml version="1.0" encoding="UTF-8" standalone="no"?>
<!DOCTYPE svg PUBLIC "-//W3C//DTD SVG 1.1//EN"
 "http://www.w3.org/Graphics/SVG/1.1/DTD/svg11.dtd">
<!-- Generated by graphviz version 2.40.1 (20161225.0304)
 -->
<!-- Title: kryne&#45;engine/include/kryne&#45;engine/Light/OldPointLight.h Pages: 1 -->
<svg width="737pt" height="418pt"
 viewBox="0.00 0.00 737.00 418.00" xmlns="http://www.w3.org/2000/svg" xmlns:xlink="http://www.w3.org/1999/xlink">
<g id="graph0" class="graph" transform="scale(1 1) rotate(0) translate(4 414)">
<title>kryne&#45;engine/include/kryne&#45;engine/Light/OldPointLight.h</title>
<polygon fill="#ffffff" stroke="transparent" points="-4,4 -4,-414 733,-414 733,4 -4,4"/>
<!-- Node41 -->
<g id="node1" class="node">
<title>Node41</title>
<polygon fill="#bfbfbf" stroke="#000000" points="153,-368.5 153,-409.5 293,-409.5 293,-368.5 153,-368.5"/>
<text text-anchor="start" x="161" y="-397.5" font-family="Helvetica,sans-Serif" font-size="10.00" fill="#000000">kryne&#45;engine/include</text>
<text text-anchor="start" x="161" y="-386.5" font-family="Helvetica,sans-Serif" font-size="10.00" fill="#000000">/kryne&#45;engine/Light/OldPoint</text>
<text text-anchor="middle" x="223" y="-375.5" font-family="Helvetica,sans-Serif" font-size="10.00" fill="#000000">Light.h</text>
</g>
<!-- Node42 -->
<g id="node2" class="node">
<title>Node42</title>
<g id="a_node2"><a xlink:href="_light_8h.html" target="_top" xlink:title="kryne&#45;engine/include\l/KEModules/Light.h">
<polygon fill="#ffffff" stroke="#000000" points="0,-218 0,-248 106,-248 106,-218 0,-218"/>
<text text-anchor="start" x="8" y="-236" font-family="Helvetica,sans-Serif" font-size="10.00" fill="#000000">kryne&#45;engine/include</text>
<text text-anchor="middle" x="53" y="-225" font-family="Helvetica,sans-Serif" font-size="10.00" fill="#000000">/KEModules/Light.h</text>
</a>
</g>
</g>
<!-- Node41&#45;&gt;Node42 -->
<g id="edge1" class="edge">
<title>Node41&#45;&gt;Node42</title>
<path fill="none" stroke="#191970" d="M183.975,-362.2007C171.472,-353.0715 157.8142,-342.5078 146,-332 115.164,-304.5739 83.0277,-268.3817 65.7785,-248.2245"/>
<polygon fill="#191970" stroke="#191970" points="182.2492,-365.2709 192.4097,-368.2734 186.3392,-359.5901 182.2492,-365.2709"/>
</g>
<!-- Node43 -->
<g id="node3" class="node">
<title>Node43</title>
<g id="a_node3"><a xlink:href="_lighting_registry_8h.html" target="_top" xlink:title="kryne&#45;engine/include\l/kryne&#45;engine/Light/Lighting\lRegistry.h">
<polygon fill="#ffffff" stroke="#000000" points="155,-290.5 155,-331.5 291,-331.5 291,-290.5 155,-290.5"/>
<text text-anchor="start" x="163" y="-319.5" font-family="Helvetica,sans-Serif" font-size="10.00" fill="#000000">kryne&#45;engine/include</text>
<text text-anchor="start" x="163" y="-308.5" font-family="Helvetica,sans-Serif" font-size="10.00" fill="#000000">/kryne&#45;engine/Light/Lighting</text>
<text text-anchor="middle" x="223" y="-297.5" font-family="Helvetica,sans-Serif" font-size="10.00" fill="#000000">Registry.h</text>
</a>
</g>
</g>
<!-- Node41&#45;&gt;Node43 -->
<g id="edge2" class="edge">
<title>Node41&#45;&gt;Node43</title>
<path fill="none" stroke="#191970" d="M223,-358.0789C223,-349.2178 223,-339.7747 223,-331.6898"/>
<polygon fill="#191970" stroke="#191970" points="219.5001,-358.0974 223,-368.0974 226.5001,-358.0975 219.5001,-358.0974"/>
</g>
<!-- Node55 -->
<g id="node15" class="node">
<title>Node55</title>
<g id="a_node15"><a xlink:href="_old_point_light_8cpp.html" target="_top" xlink:title="kryne&#45;engine/src/Light\l/OldPointLight.cpp">
<polygon fill="#ffffff" stroke="#000000" points="309.5,-296 309.5,-326 422.5,-326 422.5,-296 309.5,-296"/>
<text text-anchor="start" x="317.5" y="-314" font-family="Helvetica,sans-Serif" font-size="10.00" fill="#000000">kryne&#45;engine/src/Light</text>
<text text-anchor="middle" x="366" y="-303" font-family="Helvetica,sans-Serif" font-size="10.00" fill="#000000">/OldPointLight.cpp</text>
</a>
</g>
</g>
<!-- Node41&#45;&gt;Node55 -->
<g id="edge19" class="edge">
<title>Node41&#45;&gt;Node55</title>
<path fill="none" stroke="#191970" d="M269.749,-363.5005C292.4208,-351.1341 318.8802,-336.7017 338.313,-326.102"/>
<polygon fill="#191970" stroke="#191970" points="268.0489,-360.441 260.9459,-368.3022 271.4009,-366.5863 268.0489,-360.441"/>
</g>
<!-- Node43&#45;&gt;Node42 -->
<g id="edge3" class="edge">
<title>Node43&#45;&gt;Node42</title>
<path fill="none" stroke="#191970" d="M168.4952,-285.9919C141.3083,-273.5179 109.3232,-258.8424 85.9147,-248.102"/>
<polygon fill="#191970" stroke="#191970" points="167.3409,-289.3131 177.8894,-290.3022 170.2601,-282.9508 167.3409,-289.3131"/>
</g>
<!-- Node44 -->
<g id="node4" class="node">
<title>Node44</title>
<g id="a_node4"><a xlink:href="_main_renderer_8h.html" target="_top" xlink:title="kryne&#45;engine/include\l/kryne&#45;engine/Rendering\l/MainRenderer.h">
<polygon fill="#ffffff" stroke="#000000" points="504,-212.5 504,-253.5 626,-253.5 626,-212.5 504,-212.5"/>
<text text-anchor="start" x="512" y="-241.5" font-family="Helvetica,sans-Serif" font-size="10.00" fill="#000000">kryne&#45;engine/include</text>
<text text-anchor="start" x="512" y="-230.5" font-family="Helvetica,sans-Serif" font-size="10.00" fill="#000000">/kryne&#45;engine/Rendering</text>
<text text-anchor="middle" x="565" y="-219.5" font-family="Helvetica,sans-Serif" font-size="10.00" fill="#000000">/MainRenderer.h</text>
</a>
</g>
</g>
<!-- Node43&#45;&gt;Node44 -->
<g id="edge4" class="edge">
<title>Node43&#45;&gt;Node44</title>
<path fill="none" stroke="#191970" d="M301.337,-289.7902C387.6946,-270.6668 412.4279,-273.9451 495,-254 497.8366,-253.3148 500.7286,-252.5832 503.643,-251.8191"/>
<polygon fill="#191970" stroke="#191970" points="300.3455,-286.4257 291.359,-292.0377 301.8837,-293.2547 300.3455,-286.4257"/>
</g>
<!-- Node46 -->
<g id="node6" class="node">
<title>Node46</title>
<g id="a_node6"><a xlink:href="_render_scene_8h.html" target="_top" xlink:title="kryne&#45;engine/include\l/kryne&#45;engine/Rendering\l/RenderScene.h">
<polygon fill="#ffffff" stroke="#000000" points="157,-134.5 157,-175.5 279,-175.5 279,-134.5 157,-134.5"/>
<text text-anchor="start" x="165" y="-163.5" font-family="Helvetica,sans-Serif" font-size="10.00" fill="#000000">kryne&#45;engine/include</text>
<text text-anchor="start" x="165" y="-152.5" font-family="Helvetica,sans-Serif" font-size="10.00" fill="#000000">/kryne&#45;engine/Rendering</text>
<text text-anchor="middle" x="218" y="-141.5" font-family="Helvetica,sans-Serif" font-size="10.00" fill="#000000">/RenderScene.h</text>
</a>
</g>
</g>
<!-- Node43&#45;&gt;Node46 -->
<g id="edge13" class="edge">
<title>Node43&#45;&gt;Node46</title>
<path fill="none" stroke="#191970" d="M237.5005,-281.2458C240.9936,-272.657 244.2268,-263.1333 246,-254 249.5577,-235.6755 250.2247,-230.1823 246,-212 243.0306,-199.2203 236.7716,-186.0052 230.9229,-175.5209"/>
<polygon fill="#191970" stroke="#191970" points="234.2663,-279.907 233.5103,-290.4749 240.6915,-282.685 234.2663,-279.907"/>
</g>
<!-- Node52 -->
<g id="node12" class="node">
<title>Node52</title>
<g id="a_node12"><a xlink:href="_shadow_map_handler_8h.html" target="_top" xlink:title="kryne&#45;engine/include\l/kryne&#45;engine/Rendering\l/ShadowMapping/ShadowMapHandler.h">
<polygon fill="#ffffff" stroke="#000000" points="294.5,-212.5 294.5,-253.5 485.5,-253.5 485.5,-212.5 294.5,-212.5"/>
<text text-anchor="start" x="302.5" y="-241.5" font-family="Helvetica,sans-Serif" font-size="10.00" fill="#000000">kryne&#45;engine/include</text>
<text text-anchor="start" x="302.5" y="-230.5" font-family="Helvetica,sans-Serif" font-size="10.00" fill="#000000">/kryne&#45;engine/Rendering</text>
<text text-anchor="middle" x="390" y="-219.5" font-family="Helvetica,sans-Serif" font-size="10.00" fill="#000000">/ShadowMapping/ShadowMapHandler.h</text>
</a>
</g>
</g>
<!-- Node43&#45;&gt;Node52 -->
<g id="edge14" class="edge">
<title>Node43&#45;&gt;Node52</title>
<path fill="none" stroke="#191970" d="M276.3931,-286.0619C298.8701,-275.5637 324.7077,-263.4958 346.0579,-253.5239"/>
<polygon fill="#191970" stroke="#191970" points="274.8938,-282.8992 267.3145,-290.3022 277.8561,-289.2415 274.8938,-282.8992"/>
</g>
<!-- Node54 -->
<g id="node14" class="node">
<title>Node54</title>
<g id="a_node14"><a xlink:href="_lighting_registry_8cpp.html" target="_top" xlink:title="kryne&#45;engine/src/Light\l/LightingRegistry.cpp">
<polygon fill="#ffffff" stroke="#000000" points="124.5,-218 124.5,-248 237.5,-248 237.5,-218 124.5,-218"/>
<text text-anchor="start" x="132.5" y="-236" font-family="Helvetica,sans-Serif" font-size="10.00" fill="#000000">kryne&#45;engine/src/Light</text>
<text text-anchor="middle" x="181" y="-225" font-family="Helvetica,sans-Serif" font-size="10.00" fill="#000000">/LightingRegistry.cpp</text>
</a>
</g>
</g>
<!-- Node43&#45;&gt;Node54 -->
<g id="edge18" class="edge">
<title>Node43&#45;&gt;Node54</title>
<path fill="none" stroke="#191970" d="M206.8617,-281.0289C200.8344,-269.8353 194.2417,-257.5916 189.2212,-248.2679"/>
<polygon fill="#191970" stroke="#191970" points="203.9221,-282.9521 211.7448,-290.0974 210.0854,-279.6333 203.9221,-282.9521"/>
</g>
<!-- Node45 -->
<g id="node5" class="node">
<title>Node45</title>
<g id="a_node5"><a xlink:href="_rendering_8h.html" target="_top" xlink:title="kryne&#45;engine/include\l/KEModules/Rendering.h">
<polygon fill="#ffffff" stroke="#000000" points="464.5,-67.5 464.5,-97.5 589.5,-97.5 589.5,-67.5 464.5,-67.5"/>
<text text-anchor="start" x="472.5" y="-85.5" font-family="Helvetica,sans-Serif" font-size="10.00" fill="#000000">kryne&#45;engine/include</text>
<text text-anchor="middle" x="527" y="-74.5" font-family="Helvetica,sans-Serif" font-size="10.00" fill="#000000">/KEModules/Rendering.h</text>
</a>
</g>
</g>
<!-- Node44&#45;&gt;Node45 -->
<g id="edge5" class="edge">
<title>Node44&#45;&gt;Node45</title>
<path fill="none" stroke="#191970" d="M557.856,-202.5851C553.193,-182.9735 546.8975,-156.94 541,-134 537.8625,-121.7958 534.1074,-108.0239 531.2764,-97.7943"/>
<polygon fill="#191970" stroke="#191970" points="554.4895,-203.5575 560.2002,-212.4815 561.301,-201.944 554.4895,-203.5575"/>
</g>
<!-- Node44&#45;&gt;Node46 -->
<g id="edge6" class="edge">
<title>Node44&#45;&gt;Node46</title>
<path fill="none" stroke="#191970" d="M493.7004,-211.8291C402.3154,-190.9846 375.7766,-196.7212 288,-176 285.1599,-175.3295 282.265,-174.61 279.3482,-173.8557"/>
<polygon fill="#191970" stroke="#191970" points="493.1188,-215.2871 503.6518,-214.1443 494.705,-208.4692 493.1188,-215.2871"/>
</g>
<!-- Node51 -->
<g id="node11" class="node">
<title>Node51</title>
<g id="a_node11"><a xlink:href="_main_renderer_8cpp.html" target="_top" xlink:title="kryne&#45;engine/src/Rendering\l/MainRenderer.cpp">
<polygon fill="#ffffff" stroke="#000000" points="593,-140 593,-170 729,-170 729,-140 593,-140"/>
<text text-anchor="start" x="601" y="-158" font-family="Helvetica,sans-Serif" font-size="10.00" fill="#000000">kryne&#45;engine/src/Rendering</text>
<text text-anchor="middle" x="661" y="-147" font-family="Helvetica,sans-Serif" font-size="10.00" fill="#000000">/MainRenderer.cpp</text>
</a>
</g>
</g>
<!-- Node44&#45;&gt;Node51 -->
<g id="edge12" class="edge">
<title>Node44&#45;&gt;Node51</title>
<path fill="none" stroke="#191970" d="M598.4187,-205.8473C613.1669,-193.8644 629.9444,-180.2327 642.4129,-170.102"/>
<polygon fill="#191970" stroke="#191970" points="596.0283,-203.2798 590.4742,-212.3022 600.4424,-208.7127 596.0283,-203.2798"/>
</g>
<!-- Node46&#45;&gt;Node45 -->
<g id="edge7" class="edge">
<title>Node46&#45;&gt;Node45</title>
<path fill="none" stroke="#191970" d="M289.0208,-133.8233C354.0394,-117.3175 418.252,-103.8055 464.2825,-94.6005"/>
<polygon fill="#191970" stroke="#191970" points="287.8226,-130.5171 279.0036,-136.3887 289.5594,-137.2982 287.8226,-130.5171"/>
</g>
<!-- Node47 -->
<g id="node7" class="node">
<title>Node47</title>
<g id="a_node7"><a xlink:href="_old_process_8h.html" target="_top" xlink:title="kryne&#45;engine/include\l/kryne&#45;engine/Core/OldProcess.h">
<polygon fill="#ffffff" stroke="#000000" points="211.5,-67.5 211.5,-97.5 372.5,-97.5 372.5,-67.5 211.5,-67.5"/>
<text text-anchor="start" x="219.5" y="-85.5" font-family="Helvetica,sans-Serif" font-size="10.00" fill="#000000">kryne&#45;engine/include</text>
<text text-anchor="middle" x="292" y="-74.5" font-family="Helvetica,sans-Serif" font-size="10.00" fill="#000000">/kryne&#45;engine/Core/OldProcess.h</text>
</a>
</g>
</g>
<!-- Node46&#45;&gt;Node47 -->
<g id="edge8" class="edge">
<title>Node46&#45;&gt;Node47</title>
<path fill="none" stroke="#191970" d="M246.2848,-127.2885C256.5782,-117.2038 267.8257,-106.1843 276.5885,-97.5991"/>
<polygon fill="#191970" stroke="#191970" points="243.7012,-124.9199 239.0075,-134.4183 248.6,-129.9201 243.7012,-124.9199"/>
</g>
<!-- Node50 -->
<g id="node10" class="node">
<title>Node50</title>
<g id="a_node10"><a xlink:href="_render_scene_8cpp.html" target="_top" xlink:title="kryne&#45;engine/src/Rendering\l/RenderScene.cpp">
<polygon fill="#ffffff" stroke="#000000" points="57,-67.5 57,-97.5 193,-97.5 193,-67.5 57,-67.5"/>
<text text-anchor="start" x="65" y="-85.5" font-family="Helvetica,sans-Serif" font-size="10.00" fill="#000000">kryne&#45;engine/src/Rendering</text>
<text text-anchor="middle" x="125" y="-74.5" font-family="Helvetica,sans-Serif" font-size="10.00" fill="#000000">/RenderScene.cpp</text>
</a>
</g>
</g>
<!-- Node46&#45;&gt;Node50 -->
<g id="edge11" class="edge">
<title>Node46&#45;&gt;Node50</title>
<path fill="none" stroke="#191970" d="M183.58,-128.1672C170.3427,-117.8478 155.702,-106.4344 144.3685,-97.5991"/>
<polygon fill="#191970" stroke="#191970" points="181.5601,-131.0304 191.5987,-134.4183 185.8639,-125.5097 181.5601,-131.0304"/>
</g>
<!-- Node48 -->
<g id="node8" class="node">
<title>Node48</title>
<g id="a_node8"><a xlink:href="_core_8h.html" target="_top" xlink:title="kryne&#45;engine/include\l/KEModules/Core.h">
<polygon fill="#ffffff" stroke="#000000" points="175,-.5 175,-30.5 281,-30.5 281,-.5 175,-.5"/>
<text text-anchor="start" x="183" y="-18.5" font-family="Helvetica,sans-Serif" font-size="10.00" fill="#000000">kryne&#45;engine/include</text>
<text text-anchor="middle" x="228" y="-7.5" font-family="Helvetica,sans-Serif" font-size="10.00" fill="#000000">/KEModules/Core.h</text>
</a>
</g>
</g>
<!-- Node47&#45;&gt;Node48 -->
<g id="edge9" class="edge">
<title>Node47&#45;&gt;Node48</title>
<path fill="none" stroke="#191970" d="M270.4361,-59.9253C261.2254,-50.2828 250.7193,-39.2843 242.4651,-30.6432"/>
<polygon fill="#191970" stroke="#191970" points="268.0392,-62.4831 277.4774,-67.2967 273.101,-57.648 268.0392,-62.4831"/>
</g>
<!-- Node49 -->
<g id="node9" class="node">
<title>Node49</title>
<g id="a_node9"><a xlink:href="_old_process_8cpp.html" target="_top" xlink:title="kryne&#45;engine/src/Core\l/OldProcess.cpp">
<polygon fill="#ffffff" stroke="#000000" points="299.5,-.5 299.5,-30.5 412.5,-30.5 412.5,-.5 299.5,-.5"/>
<text text-anchor="start" x="307.5" y="-18.5" font-family="Helvetica,sans-Serif" font-size="10.00" fill="#000000">kryne&#45;engine/src/Core</text>
<text text-anchor="middle" x="356" y="-7.5" font-family="Helvetica,sans-Serif" font-size="10.00" fill="#000000">/OldProcess.cpp</text>
</a>
</g>
</g>
<!-- Node47&#45;&gt;Node49 -->
<g id="edge10" class="edge">
<title>Node47&#45;&gt;Node49</title>
<path fill="none" stroke="#191970" d="M313.5639,-59.9253C322.7746,-50.2828 333.2807,-39.2843 341.5349,-30.6432"/>
<polygon fill="#191970" stroke="#191970" points="310.899,-57.648 306.5226,-67.2967 315.9608,-62.4831 310.899,-57.648"/>
</g>
<!-- Node52&#45;&gt;Node45 -->
<g id="edge15" class="edge">
<title>Node52&#45;&gt;Node45</title>
<path fill="none" stroke="#191970" d="M467.9598,-207.9565C483.137,-199.8929 497.5552,-189.4402 508,-176 525.7875,-153.1113 528.1349,-117.8232 527.8395,-97.7838"/>
<polygon fill="#191970" stroke="#191970" points="466.3553,-204.8455 458.9604,-212.4327 469.4727,-211.113 466.3553,-204.8455"/>
</g>
<!-- Node52&#45;&gt;Node46 -->
<g id="edge16" class="edge">
<title>Node52&#45;&gt;Node46</title>
<path fill="none" stroke="#191970" d="M335.0083,-208.0619C311.8583,-197.5637 285.2472,-185.4958 263.2577,-175.5239"/>
<polygon fill="#191970" stroke="#191970" points="333.8059,-211.3597 344.3587,-212.3022 336.697,-204.9846 333.8059,-211.3597"/>
</g>
<!-- Node53 -->
<g id="node13" class="node">
<title>Node53</title>
<g id="a_node13"><a xlink:href="_shadow_map_handler_8cpp.html" target="_top" xlink:title="kryne&#45;engine/src/Rendering\l/ShadowMapping/ShadowMapHandler.cpp">
<polygon fill="#ffffff" stroke="#000000" points="297.5,-140 297.5,-170 498.5,-170 498.5,-140 297.5,-140"/>
<text text-anchor="start" x="305.5" y="-158" font-family="Helvetica,sans-Serif" font-size="10.00" fill="#000000">kryne&#45;engine/src/Rendering</text>
<text text-anchor="middle" x="398" y="-147" font-family="Helvetica,sans-Serif" font-size="10.00" fill="#000000">/ShadowMapping/ShadowMapHandler.cpp</text>
</a>
</g>
</g>
<!-- Node52&#45;&gt;Node53 -->
<g id="edge17" class="edge">
<title>Node52&#45;&gt;Node53</title>
<path fill="none" stroke="#191970" d="M393.1776,-202.0187C394.2971,-191.1033 395.5065,-179.3119 396.4341,-170.2679"/>
<polygon fill="#191970" stroke="#191970" points="389.6825,-201.7925 392.1439,-212.0974 396.646,-202.5067 389.6825,-201.7925"/>
</g>
</g>
</svg>
