<?xml version="1.0" encoding="UTF-8" standalone="no"?>
<!DOCTYPE svg PUBLIC "-//W3C//DTD SVG 1.1//EN"
 "http://www.w3.org/Graphics/SVG/1.1/DTD/svg11.dtd">
<!-- Generated by graphviz version 2.44.1 (20200629.0846)
 -->
<!-- Title: kryne&#45;engine/src/Light/OldPointLight.cpp Pages: 1 -->
<svg width="1237pt" height="654pt"
 viewBox="0.00 0.00 1237.00 654.00" xmlns="http://www.w3.org/2000/svg" xmlns:xlink="http://www.w3.org/1999/xlink">
<g id="graph0" class="graph" transform="scale(1 1) rotate(0) translate(4 650)">
<title>kryne&#45;engine/src/Light/OldPointLight.cpp</title>
<polygon fill="white" stroke="transparent" points="-4,4 -4,-650 1233,-650 1233,4 -4,4"/>
<!-- Node1 -->
<g id="node1" class="node">
<title>Node1</title>
<g id="a_node1"><a xlink:title=" ">
<polygon fill="#bfbfbf" stroke="black" points="958.5,-615.5 958.5,-645.5 1071.5,-645.5 1071.5,-615.5 958.5,-615.5"/>
<text text-anchor="start" x="966.5" y="-633.5" font-family="Helvetica,sans-Serif" font-size="10.00">kryne&#45;engine/src/Light</text>
<text text-anchor="middle" x="1015" y="-622.5" font-family="Helvetica,sans-Serif" font-size="10.00">/OldPointLight.cpp</text>
</a>
</g>
</g>
<!-- Node2 -->
<g id="node2" class="node">
<title>Node2</title>
<g id="a_node2"><a xlink:href="_old_point_light_8h.html" target="_top" xlink:title=" ">
<polygon fill="white" stroke="black" points="967,-548.5 967,-578.5 1063,-578.5 1063,-548.5 967,-548.5"/>
<text text-anchor="start" x="975" y="-566.5" font-family="Helvetica,sans-Serif" font-size="10.00">kryne&#45;engine/Light</text>
<text text-anchor="middle" x="1015" y="-555.5" font-family="Helvetica,sans-Serif" font-size="10.00">/OldPointLight.h</text>
</a>
</g>
</g>
<!-- Node1&#45;&gt;Node2 -->
<g id="edge1" class="edge">
<title>Node1&#45;&gt;Node2</title>
<path fill="none" stroke="midnightblue" d="M1015,-615.4C1015,-607.64 1015,-597.81 1015,-588.86"/>
<polygon fill="midnightblue" stroke="midnightblue" points="1018.5,-588.58 1015,-578.58 1011.5,-588.58 1018.5,-588.58"/>
</g>
<!-- Node3 -->
<g id="node3" class="node">
<title>Node3</title>
<g id="a_node3"><a xlink:title=" ">
<polygon fill="white" stroke="#bfbfbf" points="0,-297 0,-316 74,-316 74,-297 0,-297"/>
<text text-anchor="middle" x="37" y="-304" font-family="Helvetica,sans-Serif" font-size="10.00">glm/vec3.hpp</text>
</a>
</g>
</g>
<!-- Node2&#45;&gt;Node3 -->
<g id="edge2" class="edge">
<title>Node2&#45;&gt;Node3</title>
<path fill="none" stroke="midnightblue" d="M966.97,-558.09C852.18,-546.78 553.57,-512.72 313,-445 248.89,-426.95 233.69,-418.56 174,-389 131.63,-368.02 84.79,-338.74 58.32,-321.59"/>
<polygon fill="midnightblue" stroke="midnightblue" points="60.14,-318.59 49.85,-316.06 56.31,-324.45 60.14,-318.59"/>
</g>
<!-- Node4 -->
<g id="node4" class="node">
<title>Node4</title>
<g id="a_node4"><a xlink:href="_shader_8h.html" target="_top" xlink:title=" ">
<polygon fill="white" stroke="black" points="888,-481.5 888,-511.5 998,-511.5 998,-481.5 888,-481.5"/>
<text text-anchor="start" x="896" y="-499.5" font-family="Helvetica,sans-Serif" font-size="10.00">kryne&#45;engine/Material</text>
<text text-anchor="middle" x="943" y="-488.5" font-family="Helvetica,sans-Serif" font-size="10.00">/Shader.h</text>
</a>
</g>
</g>
<!-- Node2&#45;&gt;Node4 -->
<g id="edge3" class="edge">
<title>Node2&#45;&gt;Node4</title>
<path fill="none" stroke="midnightblue" d="M999.38,-548.4C989.66,-539.62 976.99,-528.18 966.12,-518.37"/>
<polygon fill="midnightblue" stroke="midnightblue" points="968.36,-515.68 958.59,-511.58 963.67,-520.88 968.36,-515.68"/>
</g>
<!-- Node40 -->
<g id="node40" class="node">
<title>Node40</title>
<g id="a_node40"><a xlink:title=" ">
<polygon fill="white" stroke="#bfbfbf" points="1141,-235.5 1141,-254.5 1183,-254.5 1183,-235.5 1141,-235.5"/>
<text text-anchor="middle" x="1162" y="-242.5" font-family="Helvetica,sans-Serif" font-size="10.00">vector</text>
</a>
</g>
</g>
<!-- Node2&#45;&gt;Node40 -->
<g id="edge54" class="edge">
<title>Node2&#45;&gt;Node40</title>
<path fill="none" stroke="midnightblue" d="M1047.13,-548.41C1085.63,-529.1 1145,-490.48 1145,-436 1145,-436 1145,-436 1145,-372.5 1145,-333.86 1152.89,-289.16 1157.92,-264.59"/>
<polygon fill="midnightblue" stroke="midnightblue" points="1161.4,-265.04 1160.05,-254.54 1154.55,-263.59 1161.4,-265.04"/>
</g>
<!-- Node42 -->
<g id="node42" class="node">
<title>Node42</title>
<g id="a_node42"><a xlink:title=" ">
<polygon fill="white" stroke="#bfbfbf" points="1173,-487 1173,-506 1229,-506 1229,-487 1173,-487"/>
<text text-anchor="middle" x="1201" y="-494" font-family="Helvetica,sans-Serif" font-size="10.00">algorithm</text>
</a>
</g>
</g>
<!-- Node2&#45;&gt;Node42 -->
<g id="edge55" class="edge">
<title>Node2&#45;&gt;Node42</title>
<path fill="none" stroke="midnightblue" d="M1055.36,-548.4C1088.72,-536.74 1135.55,-520.37 1167.02,-509.38"/>
<polygon fill="midnightblue" stroke="midnightblue" points="1168.37,-512.61 1176.66,-506.01 1166.06,-506 1168.37,-512.61"/>
</g>
<!-- Node5 -->
<g id="node5" class="node">
<title>Node5</title>
<g id="a_node5"><a xlink:title=" ">
<polygon fill="white" stroke="#bfbfbf" points="963.5,-425.5 963.5,-444.5 998.5,-444.5 998.5,-425.5 963.5,-425.5"/>
<text text-anchor="middle" x="981" y="-432.5" font-family="Helvetica,sans-Serif" font-size="10.00">map</text>
</a>
</g>
</g>
<!-- Node4&#45;&gt;Node5 -->
<g id="edge4" class="edge">
<title>Node4&#45;&gt;Node5</title>
<path fill="none" stroke="midnightblue" d="M952.01,-481.4C957.41,-472.93 964.33,-462.1 970.05,-453.14"/>
<polygon fill="midnightblue" stroke="midnightblue" points="973.04,-454.97 975.47,-444.66 967.14,-451.2 973.04,-454.97"/>
</g>
<!-- Node6 -->
<g id="node6" class="node">
<title>Node6</title>
<g id="a_node6"><a xlink:title=" ">
<polygon fill="white" stroke="#bfbfbf" points="1017,-425.5 1017,-444.5 1069,-444.5 1069,-425.5 1017,-425.5"/>
<text text-anchor="middle" x="1043" y="-432.5" font-family="Helvetica,sans-Serif" font-size="10.00">sstream</text>
</a>
</g>
</g>
<!-- Node4&#45;&gt;Node6 -->
<g id="edge5" class="edge">
<title>Node4&#45;&gt;Node6</title>
<path fill="none" stroke="midnightblue" d="M966.7,-481.4C982.73,-471.86 1003.8,-459.32 1019.74,-449.84"/>
<polygon fill="midnightblue" stroke="midnightblue" points="1021.64,-452.78 1028.45,-444.66 1018.07,-446.76 1021.64,-452.78"/>
</g>
<!-- Node7 -->
<g id="node7" class="node">
<title>Node7</title>
<g id="a_node7"><a xlink:href="_dispatcher_8h.html" target="_top" xlink:title=" ">
<polygon fill="white" stroke="black" points="92.5,-291.5 92.5,-321.5 205.5,-321.5 205.5,-291.5 92.5,-291.5"/>
<text text-anchor="start" x="100.5" y="-309.5" font-family="Helvetica,sans-Serif" font-size="10.00">kryne&#45;engine/Dispatch</text>
<text text-anchor="middle" x="149" y="-298.5" font-family="Helvetica,sans-Serif" font-size="10.00">/Dispatcher.h</text>
</a>
</g>
</g>
<!-- Node4&#45;&gt;Node7 -->
<g id="edge6" class="edge">
<title>Node4&#45;&gt;Node7</title>
<path fill="none" stroke="midnightblue" d="M887.98,-492.98C737.84,-485.26 324.68,-458.11 210,-389 187.21,-375.26 170.13,-349.49 159.92,-330.6"/>
<polygon fill="midnightblue" stroke="midnightblue" points="163.03,-328.99 155.34,-321.7 156.81,-332.19 163.03,-328.99"/>
</g>
<!-- Node22 -->
<g id="node22" class="node">
<title>Node22</title>
<g id="a_node22"><a xlink:href="_uniforms_handler_8h.html" target="_top" xlink:title=" ">
<polygon fill="white" stroke="black" points="574,-425.5 574,-444.5 670,-444.5 670,-425.5 574,-425.5"/>
<text text-anchor="middle" x="622" y="-432.5" font-family="Helvetica,sans-Serif" font-size="10.00">UniformsHandler.h</text>
</a>
</g>
</g>
<!-- Node4&#45;&gt;Node22 -->
<g id="edge24" class="edge">
<title>Node4&#45;&gt;Node22</title>
<path fill="none" stroke="midnightblue" d="M887.82,-485.27C829.1,-474.39 736.72,-457.26 677.78,-446.34"/>
<polygon fill="midnightblue" stroke="midnightblue" points="678.37,-442.89 667.9,-444.51 677.09,-449.77 678.37,-442.89"/>
</g>
<!-- Node35 -->
<g id="node35" class="node">
<title>Node35</title>
<g id="a_node35"><a xlink:href="_shader_chunk_8h.html" target="_top" xlink:title=" ">
<polygon fill="white" stroke="black" points="862.5,-425.5 862.5,-444.5 945.5,-444.5 945.5,-425.5 862.5,-425.5"/>
<text text-anchor="middle" x="904" y="-432.5" font-family="Helvetica,sans-Serif" font-size="10.00">ShaderChunk.h</text>
</a>
</g>
</g>
<!-- Node4&#45;&gt;Node35 -->
<g id="edge43" class="edge">
<title>Node4&#45;&gt;Node35</title>
<path fill="none" stroke="midnightblue" d="M933.76,-481.4C928.21,-472.93 921.11,-462.1 915.23,-453.14"/>
<polygon fill="midnightblue" stroke="midnightblue" points="918.08,-451.1 909.67,-444.66 912.23,-454.94 918.08,-451.1"/>
</g>
<!-- Node8 -->
<g id="node8" class="node">
<title>Node8</title>
<g id="a_node8"><a xlink:href="_synchronizable_pool_8h.html" target="_top" xlink:title=" ">
<polygon fill="white" stroke="black" points="124.5,-179.5 124.5,-198.5 235.5,-198.5 235.5,-179.5 124.5,-179.5"/>
<text text-anchor="middle" x="180" y="-186.5" font-family="Helvetica,sans-Serif" font-size="10.00">SynchronizablePool.h</text>
</a>
</g>
</g>
<!-- Node7&#45;&gt;Node8 -->
<g id="edge7" class="edge">
<title>Node7&#45;&gt;Node8</title>
<path fill="none" stroke="midnightblue" d="M152.8,-291.34C158.39,-270.53 168.82,-231.66 175.01,-208.58"/>
<polygon fill="midnightblue" stroke="midnightblue" points="178.46,-209.23 177.67,-198.67 171.7,-207.42 178.46,-209.23"/>
</g>
<!-- Node19 -->
<g id="node19" class="node">
<title>Node19</title>
<g id="a_node19"><a xlink:href="_runner_pool_8h.html" target="_top" xlink:title=" ">
<polygon fill="white" stroke="black" points="253.5,-179.5 253.5,-198.5 328.5,-198.5 328.5,-179.5 253.5,-179.5"/>
<text text-anchor="middle" x="291" y="-186.5" font-family="Helvetica,sans-Serif" font-size="10.00">RunnerPool.h</text>
</a>
</g>
</g>
<!-- Node7&#45;&gt;Node19 -->
<g id="edge18" class="edge">
<title>Node7&#45;&gt;Node19</title>
<path fill="none" stroke="midnightblue" d="M166.41,-291.34C193.28,-269.49 244.61,-227.73 272.26,-205.24"/>
<polygon fill="midnightblue" stroke="midnightblue" points="274.79,-207.69 280.34,-198.67 270.38,-202.26 274.79,-207.69"/>
</g>
<!-- Node20 -->
<g id="node20" class="node">
<title>Node20</title>
<g id="a_node20"><a xlink:href="_main_pool_8h.html" target="_top" xlink:title=" ">
<polygon fill="white" stroke="black" points="86.5,-235.5 86.5,-254.5 151.5,-254.5 151.5,-235.5 86.5,-235.5"/>
<text text-anchor="middle" x="119" y="-242.5" font-family="Helvetica,sans-Serif" font-size="10.00">MainPool.h</text>
</a>
</g>
</g>
<!-- Node7&#45;&gt;Node20 -->
<g id="edge20" class="edge">
<title>Node7&#45;&gt;Node20</title>
<path fill="none" stroke="midnightblue" d="M141.89,-291.4C137.71,-283.11 132.39,-272.55 127.93,-263.71"/>
<polygon fill="midnightblue" stroke="midnightblue" points="130.99,-262.01 123.37,-254.66 124.74,-265.16 130.99,-262.01"/>
</g>
<!-- Node9 -->
<g id="node9" class="node">
<title>Node9</title>
<g id="a_node9"><a xlink:href="_thread_pool_8h.html" target="_top" xlink:title=" ">
<polygon fill="white" stroke="black" points="254,-118 254,-137 328,-137 328,-118 254,-118"/>
<text text-anchor="middle" x="291" y="-125" font-family="Helvetica,sans-Serif" font-size="10.00">ThreadPool.h</text>
</a>
</g>
</g>
<!-- Node8&#45;&gt;Node9 -->
<g id="edge8" class="edge">
<title>Node8&#45;&gt;Node9</title>
<path fill="none" stroke="midnightblue" d="M195.9,-179.48C214.28,-169.62 244.76,-153.29 266.24,-141.77"/>
<polygon fill="midnightblue" stroke="midnightblue" points="267.97,-144.82 275.13,-137.01 264.66,-138.65 267.97,-144.82"/>
</g>
<!-- Node10 -->
<g id="node10" class="node">
<title>Node10</title>
<g id="a_node10"><a xlink:title=" ">
<polygon fill="white" stroke="#bfbfbf" points="352,-56.5 352,-75.5 396,-75.5 396,-56.5 352,-56.5"/>
<text text-anchor="middle" x="374" y="-63.5" font-family="Helvetica,sans-Serif" font-size="10.00">thread</text>
</a>
</g>
</g>
<!-- Node9&#45;&gt;Node10 -->
<g id="edge9" class="edge">
<title>Node9&#45;&gt;Node10</title>
<path fill="none" stroke="midnightblue" d="M302.89,-117.98C316.2,-108.43 338,-92.81 353.96,-81.37"/>
<polygon fill="midnightblue" stroke="midnightblue" points="356.04,-84.18 362.13,-75.51 351.96,-78.49 356.04,-84.18"/>
</g>
<!-- Node11 -->
<g id="node11" class="node">
<title>Node11</title>
<g id="a_node11"><a xlink:title=" ">
<polygon fill="white" stroke="#bfbfbf" points="74,-56.5 74,-75.5 118,-75.5 118,-56.5 74,-56.5"/>
<text text-anchor="middle" x="96" y="-63.5" font-family="Helvetica,sans-Serif" font-size="10.00">mutex</text>
</a>
</g>
</g>
<!-- Node9&#45;&gt;Node11 -->
<g id="edge10" class="edge">
<title>Node9&#45;&gt;Node11</title>
<path fill="none" stroke="midnightblue" d="M263.06,-117.98C227.35,-107.08 165.66,-88.25 128.06,-76.78"/>
<polygon fill="midnightblue" stroke="midnightblue" points="128.73,-73.33 118.14,-73.76 126.69,-80.02 128.73,-73.33"/>
</g>
<!-- Node12 -->
<g id="node12" class="node">
<title>Node12</title>
<g id="a_node12"><a xlink:title=" ">
<polygon fill="white" stroke="#bfbfbf" points="414.5,-56.5 414.5,-75.5 507.5,-75.5 507.5,-56.5 414.5,-56.5"/>
<text text-anchor="middle" x="461" y="-63.5" font-family="Helvetica,sans-Serif" font-size="10.00">condition_variable</text>
</a>
</g>
</g>
<!-- Node9&#45;&gt;Node12 -->
<g id="edge11" class="edge">
<title>Node9&#45;&gt;Node12</title>
<path fill="none" stroke="midnightblue" d="M315.36,-117.98C344.64,-107.72 393.97,-90.46 427,-78.9"/>
<polygon fill="midnightblue" stroke="midnightblue" points="428.41,-82.12 436.69,-75.51 426.09,-75.51 428.41,-82.12"/>
</g>
<!-- Node13 -->
<g id="node13" class="node">
<title>Node13</title>
<g id="a_node13"><a xlink:title=" ">
<polygon fill="white" stroke="#bfbfbf" points="136.5,-56.5 136.5,-75.5 177.5,-75.5 177.5,-56.5 136.5,-56.5"/>
<text text-anchor="middle" x="157" y="-63.5" font-family="Helvetica,sans-Serif" font-size="10.00">future</text>
</a>
</g>
</g>
<!-- Node9&#45;&gt;Node13 -->
<g id="edge12" class="edge">
<title>Node9&#45;&gt;Node13</title>
<path fill="none" stroke="midnightblue" d="M271.8,-117.98C249.21,-107.95 211.5,-91.2 185.5,-79.65"/>
<polygon fill="midnightblue" stroke="midnightblue" points="186.72,-76.37 176.16,-75.51 183.88,-82.77 186.72,-76.37"/>
</g>
<!-- Node14 -->
<g id="node14" class="node">
<title>Node14</title>
<g id="a_node14"><a xlink:title=" ">
<polygon fill="white" stroke="#bfbfbf" points="196,-56.5 196,-75.5 248,-75.5 248,-56.5 196,-56.5"/>
<text text-anchor="middle" x="222" y="-63.5" font-family="Helvetica,sans-Serif" font-size="10.00">memory</text>
</a>
</g>
</g>
<!-- Node9&#45;&gt;Node14 -->
<g id="edge13" class="edge">
<title>Node9&#45;&gt;Node14</title>
<path fill="none" stroke="midnightblue" d="M281.11,-117.98C270.35,-108.7 252.93,-93.67 239.78,-82.33"/>
<polygon fill="midnightblue" stroke="midnightblue" points="241.73,-79.39 231.87,-75.51 237.16,-84.69 241.73,-79.39"/>
</g>
<!-- Node15 -->
<g id="node15" class="node">
<title>Node15</title>
<g id="a_node15"><a xlink:title=" ">
<polygon fill="white" stroke="#bfbfbf" points="806,-56.5 806,-75.5 860,-75.5 860,-56.5 806,-56.5"/>
<text text-anchor="middle" x="833" y="-63.5" font-family="Helvetica,sans-Serif" font-size="10.00">iostream</text>
</a>
</g>
</g>
<!-- Node9&#45;&gt;Node15 -->
<g id="edge14" class="edge">
<title>Node9&#45;&gt;Node15</title>
<path fill="none" stroke="midnightblue" d="M328.25,-122.41C427.36,-111.53 696.69,-81.96 795.77,-71.09"/>
<polygon fill="midnightblue" stroke="midnightblue" points="796.35,-74.54 805.91,-69.97 795.59,-67.59 796.35,-74.54"/>
</g>
<!-- Node16 -->
<g id="node16" class="node">
<title>Node16</title>
<g id="a_node16"><a xlink:href="_base_pool_8h.html" target="_top" xlink:title=" ">
<polygon fill="white" stroke="black" points="266.5,-56.5 266.5,-75.5 333.5,-75.5 333.5,-56.5 266.5,-56.5"/>
<text text-anchor="middle" x="300" y="-63.5" font-family="Helvetica,sans-Serif" font-size="10.00">BasePool.h</text>
</a>
</g>
</g>
<!-- Node9&#45;&gt;Node16 -->
<g id="edge15" class="edge">
<title>Node9&#45;&gt;Node16</title>
<path fill="none" stroke="midnightblue" d="M292.29,-117.98C293.56,-109.58 295.54,-96.48 297.18,-85.66"/>
<polygon fill="midnightblue" stroke="midnightblue" points="300.68,-85.92 298.71,-75.51 293.76,-84.87 300.68,-85.92"/>
</g>
<!-- Node17 -->
<g id="node17" class="node">
<title>Node17</title>
<g id="a_node17"><a xlink:title=" ">
<polygon fill="white" stroke="#bfbfbf" points="243.5,-0.5 243.5,-19.5 286.5,-19.5 286.5,-0.5 243.5,-0.5"/>
<text text-anchor="middle" x="265" y="-7.5" font-family="Helvetica,sans-Serif" font-size="10.00">queue</text>
</a>
</g>
</g>
<!-- Node16&#45;&gt;Node17 -->
<g id="edge16" class="edge">
<title>Node16&#45;&gt;Node17</title>
<path fill="none" stroke="midnightblue" d="M294.22,-56.08C289.33,-48.53 282.17,-37.49 276.17,-28.23"/>
<polygon fill="midnightblue" stroke="midnightblue" points="279.05,-26.24 270.67,-19.75 273.17,-30.05 279.05,-26.24"/>
</g>
<!-- Node18 -->
<g id="node18" class="node">
<title>Node18</title>
<g id="a_node18"><a xlink:title=" ">
<polygon fill="white" stroke="#bfbfbf" points="305,-0.5 305,-19.5 363,-19.5 363,-0.5 305,-0.5"/>
<text text-anchor="middle" x="334" y="-7.5" font-family="Helvetica,sans-Serif" font-size="10.00">functional</text>
</a>
</g>
</g>
<!-- Node16&#45;&gt;Node18 -->
<g id="edge17" class="edge">
<title>Node16&#45;&gt;Node18</title>
<path fill="none" stroke="midnightblue" d="M305.61,-56.08C310.37,-48.53 317.32,-37.49 323.15,-28.23"/>
<polygon fill="midnightblue" stroke="midnightblue" points="326.12,-30.08 328.49,-19.75 320.2,-26.35 326.12,-30.08"/>
</g>
<!-- Node19&#45;&gt;Node9 -->
<g id="edge19" class="edge">
<title>Node19&#45;&gt;Node9</title>
<path fill="none" stroke="midnightblue" d="M291,-179.48C291,-171.08 291,-157.98 291,-147.16"/>
<polygon fill="midnightblue" stroke="midnightblue" points="294.5,-147.01 291,-137.01 287.5,-147.01 294.5,-147.01"/>
</g>
<!-- Node20&#45;&gt;Node8 -->
<g id="edge23" class="edge">
<title>Node20&#45;&gt;Node8</title>
<path fill="none" stroke="midnightblue" d="M128.8,-235.32C137.82,-227.34 151.41,-215.31 162.32,-205.65"/>
<polygon fill="midnightblue" stroke="midnightblue" points="164.85,-208.08 170.02,-198.83 160.21,-202.84 164.85,-208.08"/>
</g>
<!-- Node21 -->
<g id="node21" class="node">
<title>Node21</title>
<g id="a_node21"><a xlink:href="_multithreading_8hpp.html" target="_top" xlink:title=" ">
<polygon fill="white" stroke="black" points="46.5,-112.5 46.5,-142.5 145.5,-142.5 145.5,-112.5 46.5,-112.5"/>
<text text-anchor="start" x="54.5" y="-130.5" font-family="Helvetica,sans-Serif" font-size="10.00">kryne&#45;engine/Utils</text>
<text text-anchor="middle" x="96" y="-119.5" font-family="Helvetica,sans-Serif" font-size="10.00">/Multithreading.hpp</text>
</a>
</g>
</g>
<!-- Node20&#45;&gt;Node21 -->
<g id="edge21" class="edge">
<title>Node20&#45;&gt;Node21</title>
<path fill="none" stroke="midnightblue" d="M117.27,-235.32C113.82,-217.97 105.95,-178.46 100.81,-152.66"/>
<polygon fill="midnightblue" stroke="midnightblue" points="104.18,-151.67 98.8,-142.55 97.32,-153.04 104.18,-151.67"/>
</g>
<!-- Node21&#45;&gt;Node11 -->
<g id="edge22" class="edge">
<title>Node21&#45;&gt;Node11</title>
<path fill="none" stroke="midnightblue" d="M96,-112.4C96,-104.47 96,-94.46 96,-85.86"/>
<polygon fill="midnightblue" stroke="midnightblue" points="99.5,-85.66 96,-75.66 92.5,-85.66 99.5,-85.66"/>
</g>
<!-- Node23 -->
<g id="node23" class="node">
<title>Node23</title>
<g id="a_node23"><a xlink:title=" ">
<polygon fill="white" stroke="#bfbfbf" points="853.5,-297 853.5,-316 894.5,-316 894.5,-297 853.5,-297"/>
<text text-anchor="middle" x="874" y="-304" font-family="Helvetica,sans-Serif" font-size="10.00">string</text>
</a>
</g>
</g>
<!-- Node22&#45;&gt;Node23 -->
<g id="edge25" class="edge">
<title>Node22&#45;&gt;Node23</title>
<path fill="none" stroke="midnightblue" d="M645.16,-425.35C666.09,-417.14 697.46,-403.88 723,-389 743.05,-377.32 745,-369.76 765,-358 798.26,-338.44 809.07,-338.4 844,-322 845.15,-321.46 846.32,-320.91 847.5,-320.35"/>
<polygon fill="midnightblue" stroke="midnightblue" points="849.07,-323.48 856.58,-316 846.05,-317.16 849.07,-323.48"/>
</g>
<!-- Node24 -->
<g id="node24" class="node">
<title>Node24</title>
<g id="a_node24"><a xlink:title=" ">
<polygon fill="white" stroke="#bfbfbf" points="773.5,-364 773.5,-383 856.5,-383 856.5,-364 773.5,-364"/>
<text text-anchor="middle" x="815" y="-371" font-family="Helvetica,sans-Serif" font-size="10.00">unordered_map</text>
</a>
</g>
</g>
<!-- Node22&#45;&gt;Node24 -->
<g id="edge26" class="edge">
<title>Node22&#45;&gt;Node24</title>
<path fill="none" stroke="midnightblue" d="M649.65,-425.48C683.19,-415.14 739.87,-397.66 777.37,-386.1"/>
<polygon fill="midnightblue" stroke="midnightblue" points="778.87,-389.3 787.4,-383.01 776.81,-382.61 778.87,-389.3"/>
</g>
<!-- Node25 -->
<g id="node25" class="node">
<title>Node25</title>
<g id="a_node25"><a xlink:title=" ">
<polygon fill="white" stroke="#bfbfbf" points="771,-297 771,-316 835,-316 835,-297 771,-297"/>
<text text-anchor="middle" x="803" y="-304" font-family="Helvetica,sans-Serif" font-size="10.00">glad/glad.h</text>
</a>
</g>
</g>
<!-- Node22&#45;&gt;Node25 -->
<g id="edge27" class="edge">
<title>Node22&#45;&gt;Node25</title>
<path fill="none" stroke="midnightblue" d="M634.72,-425.47C648.06,-416.49 669.6,-401.9 688,-389 707.29,-375.47 711.8,-371.65 731,-358 748.31,-345.69 768.07,-331.84 782.51,-321.77"/>
<polygon fill="midnightblue" stroke="midnightblue" points="784.54,-324.62 790.74,-316.03 780.53,-318.88 784.54,-324.62"/>
</g>
<!-- Node26 -->
<g id="node26" class="node">
<title>Node26</title>
<g id="a_node26"><a xlink:title=" ">
<polygon fill="white" stroke="#bfbfbf" points="224,-297 224,-316 302,-316 302,-297 224,-297"/>
<text text-anchor="middle" x="263" y="-304" font-family="Helvetica,sans-Serif" font-size="10.00">GLFW/glfw3.h</text>
</a>
</g>
</g>
<!-- Node22&#45;&gt;Node26 -->
<g id="edge28" class="edge">
<title>Node22&#45;&gt;Node26</title>
<path fill="none" stroke="midnightblue" d="M573.78,-432.14C472.13,-427.72 243.23,-414.98 220,-389 202.18,-369.07 225.95,-340.43 244.61,-322.94"/>
<polygon fill="midnightblue" stroke="midnightblue" points="247.03,-325.47 252.15,-316.19 242.37,-320.25 247.03,-325.47"/>
</g>
<!-- Node27 -->
<g id="node27" class="node">
<title>Node27</title>
<g id="a_node27"><a xlink:title=" ">
<polygon fill="white" stroke="#bfbfbf" points="229,-364 229,-383 315,-383 315,-364 229,-364"/>
<text text-anchor="middle" x="272" y="-371" font-family="Helvetica,sans-Serif" font-size="10.00">glm/mat4x4.hpp</text>
</a>
</g>
</g>
<!-- Node22&#45;&gt;Node27 -->
<g id="edge29" class="edge">
<title>Node22&#45;&gt;Node27</title>
<path fill="none" stroke="midnightblue" d="M573.93,-428.58C514.76,-421.48 411.36,-407.7 324,-389 319.5,-388.04 314.81,-386.91 310.17,-385.71"/>
<polygon fill="midnightblue" stroke="midnightblue" points="310.75,-382.25 300.18,-383.03 308.93,-389.01 310.75,-382.25"/>
</g>
<!-- Node28 -->
<g id="node28" class="node">
<title>Node28</title>
<g id="a_node28"><a xlink:title=" ">
<polygon fill="white" stroke="#bfbfbf" points="333,-364 333,-383 439,-383 439,-364 333,-364"/>
<text text-anchor="middle" x="386" y="-371" font-family="Helvetica,sans-Serif" font-size="10.00">glm/gtc/type_ptr.hpp</text>
</a>
</g>
</g>
<!-- Node22&#45;&gt;Node28 -->
<g id="edge30" class="edge">
<title>Node22&#45;&gt;Node28</title>
<path fill="none" stroke="midnightblue" d="M588.19,-425.48C546.48,-414.96 475.49,-397.06 429.69,-385.51"/>
<polygon fill="midnightblue" stroke="midnightblue" points="430.3,-382.06 419.75,-383.01 428.59,-388.85 430.3,-382.06"/>
</g>
<!-- Node29 -->
<g id="node29" class="node">
<title>Node29</title>
<g id="a_node29"><a xlink:title=" ">
<polygon fill="white" stroke="#bfbfbf" points="457,-364 457,-383 547,-383 547,-364 457,-364"/>
<text text-anchor="middle" x="502" y="-371" font-family="Helvetica,sans-Serif" font-size="10.00">boost/variant.hpp</text>
</a>
</g>
</g>
<!-- Node22&#45;&gt;Node29 -->
<g id="edge31" class="edge">
<title>Node22&#45;&gt;Node29</title>
<path fill="none" stroke="midnightblue" d="M604.81,-425.48C584.76,-415.53 551.4,-398.99 528.14,-387.46"/>
<polygon fill="midnightblue" stroke="midnightblue" points="529.68,-384.32 519.16,-383.01 526.57,-390.59 529.68,-384.32"/>
</g>
<!-- Node30 -->
<g id="node30" class="node">
<title>Node30</title>
<g id="a_node30"><a xlink:href="_texture_8h.html" target="_top" xlink:title=" ">
<polygon fill="white" stroke="black" points="565.5,-358.5 565.5,-388.5 678.5,-388.5 678.5,-358.5 565.5,-358.5"/>
<text text-anchor="start" x="573.5" y="-376.5" font-family="Helvetica,sans-Serif" font-size="10.00">kryne&#45;engine/Textures</text>
<text text-anchor="middle" x="622" y="-365.5" font-family="Helvetica,sans-Serif" font-size="10.00">/Texture.h</text>
</a>
</g>
</g>
<!-- Node22&#45;&gt;Node30 -->
<g id="edge32" class="edge">
<title>Node22&#45;&gt;Node30</title>
<path fill="none" stroke="midnightblue" d="M622,-425.48C622,-418.47 622,-408.19 622,-398.7"/>
<polygon fill="midnightblue" stroke="midnightblue" points="625.5,-398.52 622,-388.52 618.5,-398.52 625.5,-398.52"/>
</g>
<!-- Node30&#45;&gt;Node3 -->
<g id="edge39" class="edge">
<title>Node30&#45;&gt;Node3</title>
<path fill="none" stroke="midnightblue" d="M565.21,-359.49C562.1,-358.95 559.02,-358.44 556,-358 347.42,-327.3 290.01,-361.95 83,-322 78.84,-321.2 74.52,-320.14 70.28,-318.97"/>
<polygon fill="midnightblue" stroke="midnightblue" points="71.19,-315.59 60.61,-316.08 69.19,-322.3 71.19,-315.59"/>
</g>
<!-- Node30&#45;&gt;Node7 -->
<g id="edge42" class="edge">
<title>Node30&#45;&gt;Node7</title>
<path fill="none" stroke="midnightblue" d="M565.2,-359.6C562.09,-359.03 559.01,-358.49 556,-358 408.8,-334.14 367.21,-345.86 215.93,-322.02"/>
<polygon fill="midnightblue" stroke="midnightblue" points="216.23,-318.53 205.8,-320.4 215.13,-325.44 216.23,-318.53"/>
</g>
<!-- Node30&#45;&gt;Node15 -->
<g id="edge35" class="edge">
<title>Node30&#45;&gt;Node15</title>
<path fill="none" stroke="midnightblue" d="M670.38,-358.48C689.62,-350.63 710.37,-338.93 724,-322 745.84,-294.88 743,-280.82 743,-246 743,-246 743,-246 743,-188 743,-142.13 785.15,-102.37 811.76,-81.85"/>
<polygon fill="midnightblue" stroke="midnightblue" points="814.17,-84.42 820.11,-75.64 809.99,-78.8 814.17,-84.42"/>
</g>
<!-- Node30&#45;&gt;Node23 -->
<g id="edge34" class="edge">
<title>Node30&#45;&gt;Node23</title>
<path fill="none" stroke="midnightblue" d="M678.64,-363.28C724.1,-355.01 789.16,-341.21 844,-322 845.61,-321.43 847.26,-320.81 848.9,-320.14"/>
<polygon fill="midnightblue" stroke="midnightblue" points="850.4,-323.3 858.09,-316.01 847.54,-316.91 850.4,-323.3"/>
</g>
<!-- Node30&#45;&gt;Node25 -->
<g id="edge40" class="edge">
<title>Node30&#45;&gt;Node25</title>
<path fill="none" stroke="midnightblue" d="M661.27,-358.4C693.59,-346.79 738.91,-330.51 769.53,-319.52"/>
<polygon fill="midnightblue" stroke="midnightblue" points="771.08,-322.68 779.31,-316.01 768.72,-316.09 771.08,-322.68"/>
</g>
<!-- Node30&#45;&gt;Node26 -->
<g id="edge41" class="edge">
<title>Node30&#45;&gt;Node26</title>
<path fill="none" stroke="midnightblue" d="M565.17,-359.75C562.07,-359.14 559,-358.55 556,-358 447.74,-338.18 418.41,-345.98 311,-322 306.89,-321.08 302.62,-319.99 298.4,-318.83"/>
<polygon fill="midnightblue" stroke="midnightblue" points="299.3,-315.45 288.72,-316.03 297.36,-322.17 299.3,-315.45"/>
</g>
<!-- Node31 -->
<g id="node31" class="node">
<title>Node31</title>
<g id="a_node31"><a xlink:title=" ">
<polygon fill="white" stroke="#bfbfbf" points="320,-297 320,-316 390,-316 390,-297 320,-297"/>
<text text-anchor="middle" x="355" y="-304" font-family="Helvetica,sans-Serif" font-size="10.00">stb_image.h</text>
</a>
</g>
</g>
<!-- Node30&#45;&gt;Node31 -->
<g id="edge33" class="edge">
<title>Node30&#45;&gt;Node31</title>
<path fill="none" stroke="midnightblue" d="M565.39,-359.89C505,-346.4 415.87,-326.35 400,-322 396.65,-321.08 393.18,-320.07 389.73,-319.02"/>
<polygon fill="midnightblue" stroke="midnightblue" points="390.7,-315.66 380.11,-316.02 388.61,-322.34 390.7,-315.66"/>
</g>
<!-- Node32 -->
<g id="node32" class="node">
<title>Node32</title>
<g id="a_node32"><a xlink:title=" ">
<polygon fill="white" stroke="#bfbfbf" points="408.5,-297 408.5,-316 515.5,-316 515.5,-297 408.5,-297"/>
<text text-anchor="middle" x="462" y="-304" font-family="Helvetica,sans-Serif" font-size="10.00">boost/filesystem.hpp</text>
</a>
</g>
</g>
<!-- Node30&#45;&gt;Node32 -->
<g id="edge36" class="edge">
<title>Node30&#45;&gt;Node32</title>
<path fill="none" stroke="midnightblue" d="M587.28,-358.4C558.96,-346.89 519.35,-330.8 492.29,-319.81"/>
<polygon fill="midnightblue" stroke="midnightblue" points="493.52,-316.53 482.94,-316.01 490.89,-323.01 493.52,-316.53"/>
</g>
<!-- Node33 -->
<g id="node33" class="node">
<title>Node33</title>
<g id="a_node33"><a xlink:title=" ">
<polygon fill="white" stroke="#bfbfbf" points="533.5,-297 533.5,-316 622.5,-316 622.5,-297 533.5,-297"/>
<text text-anchor="middle" x="578" y="-304" font-family="Helvetica,sans-Serif" font-size="10.00">boost/format.hpp</text>
</a>
</g>
</g>
<!-- Node30&#45;&gt;Node33 -->
<g id="edge37" class="edge">
<title>Node30&#45;&gt;Node33</title>
<path fill="none" stroke="midnightblue" d="M612.45,-358.4C605.73,-348.46 596.69,-335.11 589.56,-324.57"/>
<polygon fill="midnightblue" stroke="midnightblue" points="592.39,-322.51 583.89,-316.19 586.59,-326.44 592.39,-322.51"/>
</g>
<!-- Node34 -->
<g id="node34" class="node">
<title>Node34</title>
<g id="a_node34"><a xlink:title=" ">
<polygon fill="white" stroke="#bfbfbf" points="641,-297 641,-316 715,-316 715,-297 641,-297"/>
<text text-anchor="middle" x="678" y="-304" font-family="Helvetica,sans-Serif" font-size="10.00">glm/vec2.hpp</text>
</a>
</g>
</g>
<!-- Node30&#45;&gt;Node34 -->
<g id="edge38" class="edge">
<title>Node30&#45;&gt;Node34</title>
<path fill="none" stroke="midnightblue" d="M634.15,-358.4C642.88,-348.26 654.68,-334.57 663.84,-323.94"/>
<polygon fill="midnightblue" stroke="midnightblue" points="666.63,-326.06 670.51,-316.19 661.33,-321.49 666.63,-326.06"/>
</g>
<!-- Node35&#45;&gt;Node15 -->
<g id="edge47" class="edge">
<title>Node35&#45;&gt;Node15</title>
<path fill="none" stroke="midnightblue" d="M906.18,-425.48C911.17,-405.19 923,-352.36 923,-307.5 923,-307.5 923,-307.5 923,-188 923,-142.13 880.85,-102.37 854.24,-81.85"/>
<polygon fill="midnightblue" stroke="midnightblue" points="856.01,-78.8 845.89,-75.64 851.83,-84.42 856.01,-78.8"/>
</g>
<!-- Node35&#45;&gt;Node23 -->
<g id="edge45" class="edge">
<title>Node35&#45;&gt;Node23</title>
<path fill="none" stroke="midnightblue" d="M901.94,-425.31C897.12,-404.99 885.04,-354.05 878.45,-326.28"/>
<polygon fill="midnightblue" stroke="midnightblue" points="881.79,-325.18 876.08,-316.26 874.98,-326.79 881.79,-325.18"/>
</g>
<!-- Node35&#45;&gt;Node24 -->
<g id="edge44" class="edge">
<title>Node35&#45;&gt;Node24</title>
<path fill="none" stroke="midnightblue" d="M891.25,-425.48C876.97,-415.93 853.6,-400.31 836.49,-388.87"/>
<polygon fill="midnightblue" stroke="midnightblue" points="837.99,-385.66 827.73,-383.01 834.1,-391.48 837.99,-385.66"/>
</g>
<!-- Node36 -->
<g id="node36" class="node">
<title>Node36</title>
<g id="a_node36"><a xlink:title=" ">
<polygon fill="white" stroke="#bfbfbf" points="951.5,-364 951.5,-383 1000.5,-383 1000.5,-364 951.5,-364"/>
<text text-anchor="middle" x="976" y="-371" font-family="Helvetica,sans-Serif" font-size="10.00">fstream</text>
</a>
</g>
</g>
<!-- Node35&#45;&gt;Node36 -->
<g id="edge46" class="edge">
<title>Node35&#45;&gt;Node36</title>
<path fill="none" stroke="midnightblue" d="M914.32,-425.48C925.65,-416.11 944.07,-400.88 957.84,-389.51"/>
<polygon fill="midnightblue" stroke="midnightblue" points="960.22,-392.08 965.7,-383.01 955.77,-386.68 960.22,-392.08"/>
</g>
<!-- Node37 -->
<g id="node37" class="node">
<title>Node37</title>
<g id="a_node37"><a xlink:href="kryne-engine_2_utils_2_utils_8h.html" target="_top" xlink:title=" ">
<polygon fill="white" stroke="black" points="1018.5,-358.5 1018.5,-388.5 1113.5,-388.5 1113.5,-358.5 1018.5,-358.5"/>
<text text-anchor="start" x="1026.5" y="-376.5" font-family="Helvetica,sans-Serif" font-size="10.00">kryne&#45;engine/Utils</text>
<text text-anchor="middle" x="1066" y="-365.5" font-family="Helvetica,sans-Serif" font-size="10.00">/Utils.h</text>
</a>
</g>
</g>
<!-- Node35&#45;&gt;Node37 -->
<g id="edge48" class="edge">
<title>Node35&#45;&gt;Node37</title>
<path fill="none" stroke="midnightblue" d="M927.21,-425.48C950.89,-416.78 988.33,-403.03 1018.36,-392"/>
<polygon fill="midnightblue" stroke="midnightblue" points="1019.64,-395.26 1027.82,-388.52 1017.23,-388.69 1019.64,-395.26"/>
</g>
<!-- Node38 -->
<g id="node38" class="node">
<title>Node38</title>
<g id="a_node38"><a xlink:href="_string_utils_8hpp.html" target="_top" xlink:title=" ">
<polygon fill="white" stroke="black" points="951,-118 951,-137 1031,-137 1031,-118 951,-118"/>
<text text-anchor="middle" x="991" y="-125" font-family="Helvetica,sans-Serif" font-size="10.00">StringUtils.hpp</text>
</a>
</g>
</g>
<!-- Node37&#45;&gt;Node38 -->
<g id="edge49" class="edge">
<title>Node37&#45;&gt;Node38</title>
<path fill="none" stroke="midnightblue" d="M1041.83,-358.34C1029.2,-349.57 1014.79,-337.1 1007,-322 977.17,-264.15 983.24,-183.48 988.02,-147.33"/>
<polygon fill="midnightblue" stroke="midnightblue" points="991.51,-147.64 989.48,-137.24 984.58,-146.63 991.51,-147.64"/>
</g>
<!-- Node39 -->
<g id="node39" class="node">
<title>Node39</title>
<g id="a_node39"><a xlink:href="_vector_mapping_8hpp.html" target="_top" xlink:title=" ">
<polygon fill="white" stroke="black" points="1015.5,-297 1015.5,-316 1116.5,-316 1116.5,-297 1015.5,-297"/>
<text text-anchor="middle" x="1066" y="-304" font-family="Helvetica,sans-Serif" font-size="10.00">VectorMapping.hpp</text>
</a>
</g>
</g>
<!-- Node37&#45;&gt;Node39 -->
<g id="edge51" class="edge">
<title>Node37&#45;&gt;Node39</title>
<path fill="none" stroke="midnightblue" d="M1066,-358.4C1066,-349.06 1066,-336.71 1066,-326.52"/>
<polygon fill="midnightblue" stroke="midnightblue" points="1069.5,-326.19 1066,-316.19 1062.5,-326.19 1069.5,-326.19"/>
</g>
<!-- Node38&#45;&gt;Node15 -->
<g id="edge50" class="edge">
<title>Node38&#45;&gt;Node15</title>
<path fill="none" stroke="midnightblue" d="M968.36,-117.98C941.26,-107.77 895.69,-90.61 865,-79.05"/>
<polygon fill="midnightblue" stroke="midnightblue" points="866.19,-75.76 855.6,-75.51 863.72,-82.31 866.19,-75.76"/>
</g>
<!-- Node39&#45;&gt;Node40 -->
<g id="edge52" class="edge">
<title>Node39&#45;&gt;Node40</title>
<path fill="none" stroke="midnightblue" d="M1079.75,-296.98C1095.37,-287.3 1121.06,-271.37 1139.58,-259.89"/>
<polygon fill="midnightblue" stroke="midnightblue" points="1141.62,-262.75 1148.27,-254.51 1137.93,-256.8 1141.62,-262.75"/>
</g>
<!-- Node41 -->
<g id="node41" class="node">
<title>Node41</title>
<g id="a_node41"><a xlink:title=" ">
<polygon fill="white" stroke="#bfbfbf" points="1009.5,-235.5 1009.5,-254.5 1122.5,-254.5 1122.5,-235.5 1009.5,-235.5"/>
<text text-anchor="middle" x="1066" y="-242.5" font-family="Helvetica,sans-Serif" font-size="10.00">glm/detail/qualifier.hpp</text>
</a>
</g>
</g>
<!-- Node39&#45;&gt;Node41 -->
<g id="edge53" class="edge">
<title>Node39&#45;&gt;Node41</title>
<path fill="none" stroke="midnightblue" d="M1066,-296.98C1066,-288.58 1066,-275.48 1066,-264.66"/>
<polygon fill="midnightblue" stroke="midnightblue" points="1069.5,-264.51 1066,-254.51 1062.5,-264.51 1069.5,-264.51"/>
</g>
</g>
</svg>
