<?xml version="1.0" encoding="UTF-8" standalone="no"?>
<!DOCTYPE svg PUBLIC "-//W3C//DTD SVG 1.1//EN"
 "http://www.w3.org/Graphics/SVG/1.1/DTD/svg11.dtd">
<!-- Generated by graphviz version 2.40.1 (20161225.0304)
 -->
<!-- Title: kryne&#45;engine/include/kryne&#45;engine/Rendering/OpenGL/OpenGLRenderer.h Pages: 1 -->
<svg width="372pt" height="273pt"
 viewBox="0.00 0.00 372.00 273.00" xmlns="http://www.w3.org/2000/svg" xmlns:xlink="http://www.w3.org/1999/xlink">
<g id="graph0" class="graph" transform="scale(1 1) rotate(0) translate(4 269)">
<title>kryne&#45;engine/include/kryne&#45;engine/Rendering/OpenGL/OpenGLRenderer.h</title>
<polygon fill="#ffffff" stroke="transparent" points="-4,4 -4,-269 368,-269 368,4 -4,4"/>
<!-- Node105 -->
<g id="node1" class="node">
<title>Node105</title>
<polygon fill="#bfbfbf" stroke="#000000" points="198.5,-223.5 198.5,-264.5 341.5,-264.5 341.5,-223.5 198.5,-223.5"/>
<text text-anchor="start" x="206.5" y="-252.5" font-family="Helvetica,sans-Serif" font-size="10.00" fill="#000000">kryne&#45;engine/include</text>
<text text-anchor="start" x="206.5" y="-241.5" font-family="Helvetica,sans-Serif" font-size="10.00" fill="#000000">/kryne&#45;engine/Rendering</text>
<text text-anchor="middle" x="270" y="-230.5" font-family="Helvetica,sans-Serif" font-size="10.00" fill="#000000">/OpenGL/OpenGLRenderer.h</text>
</g>
<!-- Node106 -->
<g id="node2" class="node">
<title>Node106</title>
<g id="a_node2"><a xlink:href="_open_g_l_context_8h.html" target="_top" xlink:title="kryne&#45;engine/include\l/kryne&#45;engine/Core/GraphicContext\l/OpenGLContext.h">
<polygon fill="#ffffff" stroke="#000000" points="5,-145.5 5,-186.5 175,-186.5 175,-145.5 5,-145.5"/>
<text text-anchor="start" x="13" y="-174.5" font-family="Helvetica,sans-Serif" font-size="10.00" fill="#000000">kryne&#45;engine/include</text>
<text text-anchor="start" x="13" y="-163.5" font-family="Helvetica,sans-Serif" font-size="10.00" fill="#000000">/kryne&#45;engine/Core/GraphicContext</text>
<text text-anchor="middle" x="90" y="-152.5" font-family="Helvetica,sans-Serif" font-size="10.00" fill="#000000">/OpenGLContext.h</text>
</a>
</g>
</g>
<!-- Node105&#45;&gt;Node106 -->
<g id="edge1" class="edge">
<title>Node105&#45;&gt;Node106</title>
<path fill="none" stroke="#191970" d="M212.7734,-219.2018C188.4715,-208.671 160.4772,-196.5401 137.3627,-186.5239"/>
<polygon fill="#191970" stroke="#191970" points="211.6687,-222.5375 222.2359,-223.3022 214.452,-216.1146 211.6687,-222.5375"/>
</g>
<!-- Node110 -->
<g id="node6" class="node">
<title>Node110</title>
<g id="a_node6"><a xlink:href="_open_g_l_renderer_8cpp.html" target="_top" xlink:title="kryne&#45;engine/src/Rendering\l/OpenGL/OpenGLRenderer.cpp">
<polygon fill="#ffffff" stroke="#000000" points="193.5,-151 193.5,-181 346.5,-181 346.5,-151 193.5,-151"/>
<text text-anchor="start" x="201.5" y="-169" font-family="Helvetica,sans-Serif" font-size="10.00" fill="#000000">kryne&#45;engine/src/Rendering</text>
<text text-anchor="middle" x="270" y="-158" font-family="Helvetica,sans-Serif" font-size="10.00" fill="#000000">/OpenGL/OpenGLRenderer.cpp</text>
</a>
</g>
</g>
<!-- Node105&#45;&gt;Node110 -->
<g id="edge7" class="edge">
<title>Node105&#45;&gt;Node110</title>
<path fill="none" stroke="#191970" d="M270,-213.0187C270,-202.1033 270,-190.3119 270,-181.2679"/>
<polygon fill="#191970" stroke="#191970" points="266.5001,-213.0974 270,-223.0974 273.5001,-213.0975 266.5001,-213.0974"/>
</g>
<!-- Node107 -->
<g id="node3" class="node">
<title>Node107</title>
<g id="a_node3"><a xlink:href="_open_g_l_framebuffer_8h.html" target="_top" xlink:title="kryne&#45;engine/include\l/kryne&#45;engine/Rendering\l/OpenGL/OpenGLFramebuffer.h">
<polygon fill="#ffffff" stroke="#000000" points="160.5,-67.5 160.5,-108.5 315.5,-108.5 315.5,-67.5 160.5,-67.5"/>
<text text-anchor="start" x="168.5" y="-96.5" font-family="Helvetica,sans-Serif" font-size="10.00" fill="#000000">kryne&#45;engine/include</text>
<text text-anchor="start" x="168.5" y="-85.5" font-family="Helvetica,sans-Serif" font-size="10.00" fill="#000000">/kryne&#45;engine/Rendering</text>
<text text-anchor="middle" x="238" y="-74.5" font-family="Helvetica,sans-Serif" font-size="10.00" fill="#000000">/OpenGL/OpenGLFramebuffer.h</text>
</a>
</g>
</g>
<!-- Node106&#45;&gt;Node107 -->
<g id="edge2" class="edge">
<title>Node106&#45;&gt;Node107</title>
<path fill="none" stroke="#191970" d="M138.3836,-140.5005C158.0511,-130.1352 180.4725,-118.3185 199.0573,-108.5239"/>
<polygon fill="#191970" stroke="#191970" points="136.4875,-137.5435 129.2727,-145.3022 139.7512,-143.7361 136.4875,-137.5435"/>
</g>
<!-- Node108 -->
<g id="node4" class="node">
<title>Node108</title>
<g id="a_node4"><a xlink:href="_open_g_l_context_8cpp.html" target="_top" xlink:title="kryne&#45;engine/src/Core\l/GraphicContext/OpenGLContext.cpp">
<polygon fill="#ffffff" stroke="#000000" points="0,-.5 0,-30.5 180,-30.5 180,-.5 0,-.5"/>
<text text-anchor="start" x="8" y="-18.5" font-family="Helvetica,sans-Serif" font-size="10.00" fill="#000000">kryne&#45;engine/src/Core</text>
<text text-anchor="middle" x="90" y="-7.5" font-family="Helvetica,sans-Serif" font-size="10.00" fill="#000000">/GraphicContext/OpenGLContext.cpp</text>
</a>
</g>
</g>
<!-- Node106&#45;&gt;Node108 -->
<g id="edge6" class="edge">
<title>Node106&#45;&gt;Node108</title>
<path fill="none" stroke="#191970" d="M90,-135.3177C90,-103.5786 90,-55.3026 90,-30.8485"/>
<polygon fill="#191970" stroke="#191970" points="86.5001,-135.3891 90,-145.3892 93.5001,-135.3892 86.5001,-135.3891"/>
</g>
<!-- Node107&#45;&gt;Node105 -->
<g id="edge3" class="edge">
<title>Node107&#45;&gt;Node105</title>
<path fill="none" stroke="#191970" d="M321.3589,-113.4156C335.1236,-121.3388 347.6178,-131.642 356,-145 365.9218,-160.8115 364.8301,-170.5539 356,-187 347.6962,-202.4658 333.1471,-214.4437 318.3511,-223.3376"/>
<polygon fill="#191970" stroke="#191970" points="322.6358,-110.1314 312.1605,-108.5444 319.3598,-116.3175 322.6358,-110.1314"/>
</g>
<!-- Node107&#45;&gt;Node108 -->
<g id="edge4" class="edge">
<title>Node107&#45;&gt;Node108</title>
<path fill="none" stroke="#191970" d="M186.7786,-62.9084C164.8128,-52.1482 139.88,-39.9345 120.823,-30.5991"/>
<polygon fill="#191970" stroke="#191970" points="185.4649,-66.1622 195.985,-67.4183 188.5444,-59.876 185.4649,-66.1622"/>
</g>
<!-- Node109 -->
<g id="node5" class="node">
<title>Node109</title>
<g id="a_node5"><a xlink:href="_open_g_l_framebuffer_8cpp.html" target="_top" xlink:title="kryne&#45;engine/src/Rendering\l/OpenGL/OpenGLFramebuffer.cpp">
<polygon fill="#ffffff" stroke="#000000" points="198,-.5 198,-30.5 364,-30.5 364,-.5 198,-.5"/>
<text text-anchor="start" x="206" y="-18.5" font-family="Helvetica,sans-Serif" font-size="10.00" fill="#000000">kryne&#45;engine/src/Rendering</text>
<text text-anchor="middle" x="281" y="-7.5" font-family="Helvetica,sans-Serif" font-size="10.00" fill="#000000">/OpenGL/OpenGLFramebuffer.cpp</text>
</a>
</g>
</g>
<!-- Node107&#45;&gt;Node109 -->
<g id="edge5" class="edge">
<title>Node107&#45;&gt;Node109</title>
<path fill="none" stroke="#191970" d="M255.3105,-58.8136C261.0482,-49.1397 267.1999,-38.7676 272.0447,-30.5991"/>
<polygon fill="#191970" stroke="#191970" points="252.298,-57.0319 250.2071,-67.4183 258.3187,-60.6028 252.298,-57.0319"/>
</g>
</g>
</svg>
