<?xml version="1.0" encoding="UTF-8" standalone="no"?>
<!DOCTYPE svg PUBLIC "-//W3C//DTD SVG 1.1//EN"
 "http://www.w3.org/Graphics/SVG/1.1/DTD/svg11.dtd">
<!-- Generated by graphviz version 2.44.1 (20200629.0846)
 -->
<!-- Title: kryne&#45;engine/include/kryne&#45;engine/Rendering/OpenGL/OpenGLFramebuffer.h Pages: 1 -->
<svg width="404pt" height="273pt"
 viewBox="0.00 0.00 403.50 273.00" xmlns="http://www.w3.org/2000/svg" xmlns:xlink="http://www.w3.org/1999/xlink">
<g id="graph0" class="graph" transform="scale(1 1) rotate(0) translate(4 269)">
<title>kryne&#45;engine/include/kryne&#45;engine/Rendering/OpenGL/OpenGLFramebuffer.h</title>
<polygon fill="white" stroke="transparent" points="-4,4 -4,-269 399.5,-269 399.5,4 -4,4"/>
<!-- Node1 -->
<g id="node1" class="node">
<title>Node1</title>
<g id="a_node1"><a xlink:title=" ">
<polygon fill="#bfbfbf" stroke="black" points="170,-223.5 170,-264.5 324,-264.5 324,-223.5 170,-223.5"/>
<text text-anchor="start" x="178" y="-252.5" font-family="Helvetica,sans-Serif" font-size="10.00">kryne&#45;engine/include</text>
<text text-anchor="start" x="178" y="-241.5" font-family="Helvetica,sans-Serif" font-size="10.00">/kryne&#45;engine/Rendering</text>
<text text-anchor="middle" x="247" y="-230.5" font-family="Helvetica,sans-Serif" font-size="10.00">/OpenGL/OpenGLFramebuffer.h</text>
</a>
</g>
</g>
<!-- Node2 -->
<g id="node2" class="node">
<title>Node2</title>
<g id="a_node2"><a xlink:href="_open_g_l_renderer_8h.html" target="_top" xlink:title=" ">
<polygon fill="white" stroke="black" points="5,-145.5 5,-186.5 147,-186.5 147,-145.5 5,-145.5"/>
<text text-anchor="start" x="13" y="-174.5" font-family="Helvetica,sans-Serif" font-size="10.00">kryne&#45;engine/include</text>
<text text-anchor="start" x="13" y="-163.5" font-family="Helvetica,sans-Serif" font-size="10.00">/kryne&#45;engine/Rendering</text>
<text text-anchor="middle" x="76" y="-152.5" font-family="Helvetica,sans-Serif" font-size="10.00">/OpenGL/OpenGLRenderer.h</text>
</a>
</g>
</g>
<!-- Node1&#45;&gt;Node2 -->
<g id="edge1" class="edge">
<title>Node1&#45;&gt;Node2</title>
<path fill="none" stroke="midnightblue" d="M193.74,-219.33C170.01,-208.78 142.4,-196.51 119.89,-186.51"/>
<polygon fill="midnightblue" stroke="midnightblue" points="192.4,-222.57 202.96,-223.43 195.25,-216.17 192.4,-222.57"/>
</g>
<!-- Node6 -->
<g id="node6" class="node">
<title>Node6</title>
<g id="a_node6"><a xlink:href="_open_g_l_framebuffer_8cpp.html" target="_top" xlink:title=" ">
<polygon fill="white" stroke="black" points="165,-151 165,-181 329,-181 329,-151 165,-151"/>
<text text-anchor="start" x="173" y="-169" font-family="Helvetica,sans-Serif" font-size="10.00">kryne&#45;engine/src/Rendering</text>
<text text-anchor="middle" x="247" y="-158" font-family="Helvetica,sans-Serif" font-size="10.00">/OpenGL/OpenGLFramebuffer.cpp</text>
</a>
</g>
</g>
<!-- Node1&#45;&gt;Node6 -->
<g id="edge6" class="edge">
<title>Node1&#45;&gt;Node6</title>
<path fill="none" stroke="midnightblue" d="M247,-213.28C247,-202.25 247,-190.25 247,-181.23"/>
<polygon fill="midnightblue" stroke="midnightblue" points="243.5,-213.43 247,-223.43 250.5,-213.43 243.5,-213.43"/>
</g>
<!-- Node3 -->
<g id="node3" class="node">
<title>Node3</title>
<g id="a_node3"><a xlink:href="_open_g_l_context_8h.html" target="_top" xlink:title=" ">
<polygon fill="white" stroke="black" points="221.5,-67.5 221.5,-108.5 390.5,-108.5 390.5,-67.5 221.5,-67.5"/>
<text text-anchor="start" x="229.5" y="-96.5" font-family="Helvetica,sans-Serif" font-size="10.00">kryne&#45;engine/include</text>
<text text-anchor="start" x="229.5" y="-85.5" font-family="Helvetica,sans-Serif" font-size="10.00">/kryne&#45;engine/Core/GraphicContext</text>
<text text-anchor="middle" x="306" y="-74.5" font-family="Helvetica,sans-Serif" font-size="10.00">/OpenGLContext.h</text>
</a>
</g>
</g>
<!-- Node2&#45;&gt;Node3 -->
<g id="edge2" class="edge">
<title>Node2&#45;&gt;Node3</title>
<path fill="none" stroke="midnightblue" d="M145.11,-142.17C177.57,-131.44 215.88,-118.78 246.97,-108.51"/>
<polygon fill="midnightblue" stroke="midnightblue" points="143.63,-138.97 135.23,-145.43 145.82,-145.61 143.63,-138.97"/>
</g>
<!-- Node5 -->
<g id="node5" class="node">
<title>Node5</title>
<g id="a_node5"><a xlink:href="_open_g_l_renderer_8cpp.html" target="_top" xlink:title=" ">
<polygon fill="white" stroke="black" points="0,-73 0,-103 152,-103 152,-73 0,-73"/>
<text text-anchor="start" x="8" y="-91" font-family="Helvetica,sans-Serif" font-size="10.00">kryne&#45;engine/src/Rendering</text>
<text text-anchor="middle" x="76" y="-80" font-family="Helvetica,sans-Serif" font-size="10.00">/OpenGL/OpenGLRenderer.cpp</text>
</a>
</g>
</g>
<!-- Node2&#45;&gt;Node5 -->
<g id="edge5" class="edge">
<title>Node2&#45;&gt;Node5</title>
<path fill="none" stroke="midnightblue" d="M76,-135.28C76,-124.25 76,-112.25 76,-103.23"/>
<polygon fill="midnightblue" stroke="midnightblue" points="72.5,-135.43 76,-145.43 79.5,-135.43 72.5,-135.43"/>
</g>
<!-- Node3&#45;&gt;Node1 -->
<g id="edge3" class="edge">
<title>Node3&#45;&gt;Node1</title>
<path fill="none" stroke="midnightblue" d="M326.99,-117.17C339.33,-137.43 350.32,-164.95 338,-187 329.13,-202.87 313.72,-214.8 298.07,-223.47"/>
<polygon fill="midnightblue" stroke="midnightblue" points="329.87,-115.18 321.5,-108.7 324,-118.99 329.87,-115.18"/>
</g>
<!-- Node4 -->
<g id="node4" class="node">
<title>Node4</title>
<g id="a_node4"><a xlink:href="_open_g_l_context_8cpp.html" target="_top" xlink:title=" ">
<polygon fill="white" stroke="black" points="216.5,-0.5 216.5,-30.5 395.5,-30.5 395.5,-0.5 216.5,-0.5"/>
<text text-anchor="start" x="224.5" y="-18.5" font-family="Helvetica,sans-Serif" font-size="10.00">kryne&#45;engine/src/Core</text>
<text text-anchor="middle" x="306" y="-7.5" font-family="Helvetica,sans-Serif" font-size="10.00">/GraphicContext/OpenGLContext.cpp</text>
</a>
</g>
</g>
<!-- Node3&#45;&gt;Node4 -->
<g id="edge4" class="edge">
<title>Node3&#45;&gt;Node4</title>
<path fill="none" stroke="midnightblue" d="M306,-57.08C306,-48.01 306,-38.45 306,-30.89"/>
<polygon fill="midnightblue" stroke="midnightblue" points="302.5,-57.36 306,-67.36 309.5,-57.36 302.5,-57.36"/>
</g>
</g>
</svg>
