<?xml version="1.0" encoding="UTF-8" standalone="no"?>
<!DOCTYPE svg PUBLIC "-//W3C//DTD SVG 1.1//EN"
 "http://www.w3.org/Graphics/SVG/1.1/DTD/svg11.dtd">
<!-- Generated by graphviz version 2.44.1 (20200629.0846)
 -->
<!-- Title: kryne&#45;engine/include/kryne&#45;engine/Camera/PerspectiveProjectionData.hpp Pages: 1 -->
<svg width="256pt" height="162pt"
 viewBox="0.00 0.00 255.50 162.00" xmlns="http://www.w3.org/2000/svg" xmlns:xlink="http://www.w3.org/1999/xlink">
<g id="graph0" class="graph" transform="scale(1 1) rotate(0) translate(4 158)">
<title>kryne&#45;engine/include/kryne&#45;engine/Camera/PerspectiveProjectionData.hpp</title>
<polygon fill="white" stroke="transparent" points="-4,4 -4,-158 251.5,-158 251.5,4 -4,4"/>
<!-- Node1 -->
<g id="node1" class="node">
<title>Node1</title>
<g id="a_node1"><a xlink:title=" ">
<polygon fill="#bfbfbf" stroke="black" points="33,-112.5 33,-153.5 185,-153.5 185,-112.5 33,-112.5"/>
<text text-anchor="start" x="41" y="-141.5" font-family="Helvetica,sans-Serif" font-size="10.00">kryne&#45;engine/include</text>
<text text-anchor="start" x="41" y="-130.5" font-family="Helvetica,sans-Serif" font-size="10.00">/kryne&#45;engine/Camera</text>
<text text-anchor="middle" x="109" y="-119.5" font-family="Helvetica,sans-Serif" font-size="10.00">/PerspectiveProjectionData.hpp</text>
</a>
</g>
</g>
<!-- Node2 -->
<g id="node2" class="node">
<title>Node2</title>
<g id="a_node2"><a xlink:href="_projection_data_8hpp.html" target="_top" xlink:title=" ">
<polygon fill="white" stroke="black" points="59.5,-56.5 59.5,-75.5 158.5,-75.5 158.5,-56.5 59.5,-56.5"/>
<text text-anchor="middle" x="109" y="-63.5" font-family="Helvetica,sans-Serif" font-size="10.00">ProjectionData.hpp</text>
</a>
</g>
</g>
<!-- Node1&#45;&gt;Node2 -->
<g id="edge1" class="edge">
<title>Node1&#45;&gt;Node2</title>
<path fill="none" stroke="midnightblue" d="M109,-112.5C109,-104.07 109,-94.24 109,-85.87"/>
<polygon fill="midnightblue" stroke="midnightblue" points="112.5,-85.65 109,-75.65 105.5,-85.65 112.5,-85.65"/>
</g>
<!-- Node3 -->
<g id="node3" class="node">
<title>Node3</title>
<g id="a_node3"><a xlink:title=" ">
<polygon fill="white" stroke="#bfbfbf" points="0,-0.5 0,-19.5 86,-19.5 86,-0.5 0,-0.5"/>
<text text-anchor="middle" x="43" y="-7.5" font-family="Helvetica,sans-Serif" font-size="10.00">glm/mat4x4.hpp</text>
</a>
</g>
</g>
<!-- Node2&#45;&gt;Node3 -->
<g id="edge2" class="edge">
<title>Node2&#45;&gt;Node3</title>
<path fill="none" stroke="midnightblue" d="M98.4,-56.32C88.54,-48.26 73.65,-36.08 61.78,-26.37"/>
<polygon fill="midnightblue" stroke="midnightblue" points="63.75,-23.46 53.8,-19.83 59.32,-28.88 63.75,-23.46"/>
</g>
<!-- Node4 -->
<g id="node4" class="node">
<title>Node4</title>
<g id="a_node4"><a xlink:title=" ">
<polygon fill="white" stroke="#bfbfbf" points="104.5,-0.5 104.5,-19.5 247.5,-19.5 247.5,-0.5 104.5,-0.5"/>
<text text-anchor="middle" x="176" y="-7.5" font-family="Helvetica,sans-Serif" font-size="10.00">glm/gtc/matrix_transform.hpp</text>
</a>
</g>
</g>
<!-- Node2&#45;&gt;Node4 -->
<g id="edge3" class="edge">
<title>Node2&#45;&gt;Node4</title>
<path fill="none" stroke="midnightblue" d="M119.76,-56.32C129.77,-48.26 144.89,-36.08 156.93,-26.37"/>
<polygon fill="midnightblue" stroke="midnightblue" points="159.45,-28.83 165.04,-19.83 155.06,-23.38 159.45,-28.83"/>
</g>
</g>
</svg>
