<?xml version="1.0" encoding="UTF-8" standalone="no"?>
<!DOCTYPE svg PUBLIC "-//W3C//DTD SVG 1.1//EN"
 "http://www.w3.org/Graphics/SVG/1.1/DTD/svg11.dtd">
<!-- Generated by graphviz version 2.44.1 (20200629.0846)
 -->
<!-- Title: kryne&#45;engine/src/Input/PlayerInput.cpp Pages: 1 -->
<svg width="780pt" height="162pt"
 viewBox="0.00 0.00 780.00 162.00" xmlns="http://www.w3.org/2000/svg" xmlns:xlink="http://www.w3.org/1999/xlink">
<g id="graph0" class="graph" transform="scale(1 1) rotate(0) translate(4 158)">
<title>kryne&#45;engine/src/Input/PlayerInput.cpp</title>
<polygon fill="white" stroke="transparent" points="-4,4 -4,-158 776,-158 776,4 -4,4"/>
<!-- Node1 -->
<g id="node1" class="node">
<title>Node1</title>
<g id="a_node1"><a xlink:title=" ">
<polygon fill="#bfbfbf" stroke="black" points="287.5,-123.5 287.5,-153.5 400.5,-153.5 400.5,-123.5 287.5,-123.5"/>
<text text-anchor="start" x="295.5" y="-141.5" font-family="Helvetica,sans-Serif" font-size="10.00">kryne&#45;engine/src/Input</text>
<text text-anchor="middle" x="344" y="-130.5" font-family="Helvetica,sans-Serif" font-size="10.00">/PlayerInput.cpp</text>
</a>
</g>
</g>
<!-- Node2 -->
<g id="node2" class="node">
<title>Node2</title>
<g id="a_node2"><a xlink:href="_player_input_8h.html" target="_top" xlink:title=" ">
<polygon fill="white" stroke="black" points="296,-56.5 296,-86.5 392,-86.5 392,-56.5 296,-56.5"/>
<text text-anchor="start" x="304" y="-74.5" font-family="Helvetica,sans-Serif" font-size="10.00">kryne&#45;engine/Input</text>
<text text-anchor="middle" x="344" y="-63.5" font-family="Helvetica,sans-Serif" font-size="10.00">/PlayerInput.h</text>
</a>
</g>
</g>
<!-- Node1&#45;&gt;Node2 -->
<g id="edge1" class="edge">
<title>Node1&#45;&gt;Node2</title>
<path fill="none" stroke="midnightblue" d="M344,-123.4C344,-115.64 344,-105.81 344,-96.86"/>
<polygon fill="midnightblue" stroke="midnightblue" points="347.5,-96.58 344,-86.58 340.5,-96.58 347.5,-96.58"/>
</g>
<!-- Node3 -->
<g id="node3" class="node">
<title>Node3</title>
<g id="a_node3"><a xlink:title=" ">
<polygon fill="white" stroke="#bfbfbf" points="0,-0.5 0,-19.5 30,-19.5 30,-0.5 0,-0.5"/>
<text text-anchor="middle" x="15" y="-7.5" font-family="Helvetica,sans-Serif" font-size="10.00">set</text>
</a>
</g>
</g>
<!-- Node2&#45;&gt;Node3 -->
<g id="edge2" class="edge">
<title>Node2&#45;&gt;Node3</title>
<path fill="none" stroke="midnightblue" d="M295.84,-65.46C237.22,-58.69 135.24,-44.82 39.89,-19.79"/>
<polygon fill="midnightblue" stroke="midnightblue" points="40.65,-16.37 30.09,-17.17 38.85,-23.13 40.65,-16.37"/>
</g>
<!-- Node4 -->
<g id="node4" class="node">
<title>Node4</title>
<g id="a_node4"><a xlink:title=" ">
<polygon fill="white" stroke="#bfbfbf" points="48,-0.5 48,-19.5 126,-19.5 126,-0.5 48,-0.5"/>
<text text-anchor="middle" x="87" y="-7.5" font-family="Helvetica,sans-Serif" font-size="10.00">unordered_set</text>
</a>
</g>
</g>
<!-- Node2&#45;&gt;Node4 -->
<g id="edge3" class="edge">
<title>Node2&#45;&gt;Node4</title>
<path fill="none" stroke="midnightblue" d="M295.96,-59.38C249.63,-48.65 179.96,-32.52 133.99,-21.88"/>
<polygon fill="midnightblue" stroke="midnightblue" points="134.51,-18.41 123.98,-19.56 132.94,-25.23 134.51,-18.41"/>
</g>
<!-- Node5 -->
<g id="node5" class="node">
<title>Node5</title>
<g id="a_node5"><a xlink:title=" ">
<polygon fill="white" stroke="#bfbfbf" points="144.5,-0.5 144.5,-19.5 227.5,-19.5 227.5,-0.5 144.5,-0.5"/>
<text text-anchor="middle" x="186" y="-7.5" font-family="Helvetica,sans-Serif" font-size="10.00">unordered_map</text>
</a>
</g>
</g>
<!-- Node2&#45;&gt;Node5 -->
<g id="edge4" class="edge">
<title>Node2&#45;&gt;Node5</title>
<path fill="none" stroke="midnightblue" d="M306.56,-56.4C279.81,-46.33 244.18,-32.91 218.6,-23.28"/>
<polygon fill="midnightblue" stroke="midnightblue" points="219.58,-19.91 208.99,-19.66 217.12,-26.46 219.58,-19.91"/>
</g>
<!-- Node6 -->
<g id="node6" class="node">
<title>Node6</title>
<g id="a_node6"><a xlink:title=" ">
<polygon fill="white" stroke="#bfbfbf" points="246,-0.5 246,-19.5 300,-19.5 300,-0.5 246,-0.5"/>
<text text-anchor="middle" x="273" y="-7.5" font-family="Helvetica,sans-Serif" font-size="10.00">iostream</text>
</a>
</g>
</g>
<!-- Node2&#45;&gt;Node6 -->
<g id="edge5" class="edge">
<title>Node2&#45;&gt;Node6</title>
<path fill="none" stroke="midnightblue" d="M327.17,-56.4C316.33,-47.31 302.22,-35.49 291.13,-26.19"/>
<polygon fill="midnightblue" stroke="midnightblue" points="293.24,-23.4 283.33,-19.66 288.75,-28.76 293.24,-23.4"/>
</g>
<!-- Node7 -->
<g id="node7" class="node">
<title>Node7</title>
<g id="a_node7"><a xlink:title=" ">
<polygon fill="white" stroke="#bfbfbf" points="318,-0.5 318,-19.5 370,-19.5 370,-0.5 318,-0.5"/>
<text text-anchor="middle" x="344" y="-7.5" font-family="Helvetica,sans-Serif" font-size="10.00">memory</text>
</a>
</g>
</g>
<!-- Node2&#45;&gt;Node7 -->
<g id="edge6" class="edge">
<title>Node2&#45;&gt;Node7</title>
<path fill="none" stroke="midnightblue" d="M344,-56.4C344,-48.47 344,-38.46 344,-29.86"/>
<polygon fill="midnightblue" stroke="midnightblue" points="347.5,-29.66 344,-19.66 340.5,-29.66 347.5,-29.66"/>
</g>
<!-- Node8 -->
<g id="node8" class="node">
<title>Node8</title>
<g id="a_node8"><a xlink:title=" ">
<polygon fill="white" stroke="#bfbfbf" points="388,-0.5 388,-19.5 452,-19.5 452,-0.5 388,-0.5"/>
<text text-anchor="middle" x="420" y="-7.5" font-family="Helvetica,sans-Serif" font-size="10.00">glad/glad.h</text>
</a>
</g>
</g>
<!-- Node2&#45;&gt;Node8 -->
<g id="edge7" class="edge">
<title>Node2&#45;&gt;Node8</title>
<path fill="none" stroke="midnightblue" d="M362.01,-56.4C373.74,-47.22 389.02,-35.26 400.94,-25.92"/>
<polygon fill="midnightblue" stroke="midnightblue" points="403.22,-28.58 408.94,-19.66 398.91,-23.07 403.22,-28.58"/>
</g>
<!-- Node9 -->
<g id="node9" class="node">
<title>Node9</title>
<g id="a_node9"><a xlink:title=" ">
<polygon fill="white" stroke="#bfbfbf" points="470,-0.5 470,-19.5 548,-19.5 548,-0.5 470,-0.5"/>
<text text-anchor="middle" x="509" y="-7.5" font-family="Helvetica,sans-Serif" font-size="10.00">GLFW/glfw3.h</text>
</a>
</g>
</g>
<!-- Node2&#45;&gt;Node9 -->
<g id="edge8" class="edge">
<title>Node2&#45;&gt;Node9</title>
<path fill="none" stroke="midnightblue" d="M383.1,-56.4C411.16,-46.28 448.57,-32.79 475.31,-23.15"/>
<polygon fill="midnightblue" stroke="midnightblue" points="476.77,-26.34 484.99,-19.66 474.4,-19.76 476.77,-26.34"/>
</g>
<!-- Node10 -->
<g id="node10" class="node">
<title>Node10</title>
<g id="a_node10"><a xlink:title=" ">
<polygon fill="white" stroke="#bfbfbf" points="566,-0.5 566,-19.5 680,-19.5 680,-0.5 566,-0.5"/>
<text text-anchor="middle" x="623" y="-7.5" font-family="Helvetica,sans-Serif" font-size="10.00">boost/lexical_cast.hpp</text>
</a>
</g>
</g>
<!-- Node2&#45;&gt;Node10 -->
<g id="edge9" class="edge">
<title>Node2&#45;&gt;Node10</title>
<path fill="none" stroke="midnightblue" d="M392.28,-60.2C442.87,-49.41 521.96,-32.55 573.14,-21.63"/>
<polygon fill="midnightblue" stroke="midnightblue" points="573.94,-25.04 582.99,-19.53 572.48,-18.2 573.94,-25.04"/>
</g>
<!-- Node11 -->
<g id="node11" class="node">
<title>Node11</title>
<g id="a_node11"><a xlink:title=" ">
<polygon fill="white" stroke="#bfbfbf" points="698,-0.5 698,-19.5 772,-19.5 772,-0.5 698,-0.5"/>
<text text-anchor="middle" x="735" y="-7.5" font-family="Helvetica,sans-Serif" font-size="10.00">glm/vec2.hpp</text>
</a>
</g>
</g>
<!-- Node2&#45;&gt;Node11 -->
<g id="edge10" class="edge">
<title>Node2&#45;&gt;Node11</title>
<path fill="none" stroke="midnightblue" d="M392.11,-64.2C456.94,-55.54 576.14,-39.05 687.78,-20.14"/>
<polygon fill="midnightblue" stroke="midnightblue" points="688.6,-23.55 697.87,-18.42 687.43,-16.65 688.6,-23.55"/>
</g>
</g>
</svg>
