<?xml version="1.0" encoding="UTF-8" standalone="no"?>
<!DOCTYPE svg PUBLIC "-//W3C//DTD SVG 1.1//EN"
 "http://www.w3.org/Graphics/SVG/1.1/DTD/svg11.dtd">
<!-- Generated by graphviz version 2.40.1 (20161225.0304)
 -->
<!-- Title: kryne&#45;engine/src/Geometry/PlaneBufferGeometry.cpp Pages: 1 -->
<svg width="1245pt" height="531pt"
 viewBox="0.00 0.00 1245.00 531.00" xmlns="http://www.w3.org/2000/svg" xmlns:xlink="http://www.w3.org/1999/xlink">
<g id="graph0" class="graph" transform="scale(1 1) rotate(0) translate(4 527)">
<title>kryne&#45;engine/src/Geometry/PlaneBufferGeometry.cpp</title>
<polygon fill="#ffffff" stroke="transparent" points="-4,4 -4,-527 1241,-527 1241,4 -4,4"/>
<!-- Node0 -->
<g id="node1" class="node">
<title>Node0</title>
<polygon fill="#bfbfbf" stroke="#000000" points="284,-492.5 284,-522.5 418,-522.5 418,-492.5 284,-492.5"/>
<text text-anchor="start" x="292" y="-510.5" font-family="Helvetica,sans-Serif" font-size="10.00" fill="#000000">kryne&#45;engine/src/Geometry</text>
<text text-anchor="middle" x="351" y="-499.5" font-family="Helvetica,sans-Serif" font-size="10.00" fill="#000000">/PlaneBufferGeometry.cpp</text>
</g>
<!-- Node1 -->
<g id="node2" class="node">
<title>Node1</title>
<g id="a_node2"><a xlink:href="_plane_buffer_geometry_8h.html" target="_top" xlink:title="kryne&#45;engine/Geometry\l/PlaneBufferGeometry.h">
<polygon fill="#ffffff" stroke="#000000" points="290,-425.5 290,-455.5 412,-455.5 412,-425.5 290,-425.5"/>
<text text-anchor="start" x="298" y="-443.5" font-family="Helvetica,sans-Serif" font-size="10.00" fill="#000000">kryne&#45;engine/Geometry</text>
<text text-anchor="middle" x="351" y="-432.5" font-family="Helvetica,sans-Serif" font-size="10.00" fill="#000000">/PlaneBufferGeometry.h</text>
</a>
</g>
</g>
<!-- Node0&#45;&gt;Node1 -->
<g id="edge1" class="edge">
<title>Node0&#45;&gt;Node1</title>
<path fill="none" stroke="#191970" d="M351,-492.2967C351,-484.5013 351,-474.7991 351,-465.9064"/>
<polygon fill="#191970" stroke="#191970" points="354.5001,-465.6431 351,-455.6432 347.5001,-465.6432 354.5001,-465.6431"/>
</g>
<!-- Node2 -->
<g id="node3" class="node">
<title>Node2</title>
<g id="a_node3"><a xlink:href="_vector_mapping_8hpp.html" target="_top" xlink:title="kryne&#45;engine/Utils\l/VectorMapping.hpp">
<polygon fill="#ffffff" stroke="#000000" points="90,-358.5 90,-388.5 194,-388.5 194,-358.5 90,-358.5"/>
<text text-anchor="start" x="98" y="-376.5" font-family="Helvetica,sans-Serif" font-size="10.00" fill="#000000">kryne&#45;engine/Utils</text>
<text text-anchor="middle" x="142" y="-365.5" font-family="Helvetica,sans-Serif" font-size="10.00" fill="#000000">/VectorMapping.hpp</text>
</a>
</g>
</g>
<!-- Node1&#45;&gt;Node2 -->
<g id="edge2" class="edge">
<title>Node1&#45;&gt;Node2</title>
<path fill="none" stroke="#191970" d="M304.0963,-425.4639C272.8777,-415.456 231.6858,-402.2509 198.6391,-391.657"/>
<polygon fill="#191970" stroke="#191970" points="199.6994,-388.3215 189.1083,-388.6017 197.5624,-394.9874 199.6994,-388.3215"/>
</g>
<!-- Node5 -->
<g id="node6" class="node">
<title>Node5</title>
<g id="a_node6"><a xlink:href="_buffer_geometry_8h.html" target="_top" xlink:title="BufferGeometry.h">
<polygon fill="#ffffff" stroke="#000000" points="562,-364 562,-383 656,-383 656,-364 562,-364"/>
<text text-anchor="middle" x="609" y="-371" font-family="Helvetica,sans-Serif" font-size="10.00" fill="#000000">BufferGeometry.h</text>
</a>
</g>
</g>
<!-- Node1&#45;&gt;Node5 -->
<g id="edge5" class="edge">
<title>Node1&#45;&gt;Node5</title>
<path fill="none" stroke="#191970" d="M408.9002,-425.4639C455.2518,-413.4269 519.4136,-396.7647 562.4694,-385.5835"/>
<polygon fill="#191970" stroke="#191970" points="563.5984,-388.9065 572.3976,-383.0053 561.8388,-382.1313 563.5984,-388.9065"/>
</g>
<!-- Node3 -->
<g id="node4" class="node">
<title>Node3</title>
<polygon fill="#ffffff" stroke="#bfbfbf" points="135,-235.5 135,-254.5 179,-254.5 179,-235.5 135,-235.5"/>
<text text-anchor="middle" x="157" y="-242.5" font-family="Helvetica,sans-Serif" font-size="10.00" fill="#000000">vector</text>
</g>
<!-- Node2&#45;&gt;Node3 -->
<g id="edge3" class="edge">
<title>Node2&#45;&gt;Node3</title>
<path fill="none" stroke="#191970" d="M143.7796,-358.2548C146.4971,-334.9744 151.6816,-290.5607 154.6873,-264.8117"/>
<polygon fill="#191970" stroke="#191970" points="158.1804,-265.0742 155.8635,-254.7358 151.2276,-264.2625 158.1804,-265.0742"/>
</g>
<!-- Node4 -->
<g id="node5" class="node">
<title>Node4</title>
<polygon fill="#ffffff" stroke="#bfbfbf" points="0,-297 0,-316 114,-316 114,-297 0,-297"/>
<text text-anchor="middle" x="57" y="-304" font-family="Helvetica,sans-Serif" font-size="10.00" fill="#000000">glm/detail/qualifier.hpp</text>
</g>
<!-- Node2&#45;&gt;Node4 -->
<g id="edge4" class="edge">
<title>Node2&#45;&gt;Node4</title>
<path fill="none" stroke="#191970" d="M122.7122,-358.2967C109.0831,-347.5537 90.8598,-333.1895 77.0612,-322.3129"/>
<polygon fill="#191970" stroke="#191970" points="79.1422,-319.4967 69.122,-316.055 74.8089,-324.9942 79.1422,-319.4967"/>
</g>
<!-- Node6 -->
<g id="node7" class="node">
<title>Node6</title>
<polygon fill="#ffffff" stroke="#bfbfbf" points="392,-297 392,-316 448,-316 448,-297 392,-297"/>
<text text-anchor="middle" x="420" y="-304" font-family="Helvetica,sans-Serif" font-size="10.00" fill="#000000">algorithm</text>
</g>
<!-- Node5&#45;&gt;Node6 -->
<g id="edge6" class="edge">
<title>Node5&#45;&gt;Node6</title>
<path fill="none" stroke="#191970" d="M581.3167,-363.9546C551.7309,-353.7174 503.4768,-336.9178 462,-322 459.7785,-321.201 457.4928,-320.3734 455.1895,-319.5352"/>
<polygon fill="#191970" stroke="#191970" points="456.3347,-316.2273 445.7409,-316.0762 453.9282,-322.8007 456.3347,-316.2273"/>
</g>
<!-- Node7 -->
<g id="node8" class="node">
<title>Node7</title>
<polygon fill="#ffffff" stroke="#bfbfbf" points="157,-56.5 157,-75.5 209,-75.5 209,-56.5 157,-56.5"/>
<text text-anchor="middle" x="183" y="-63.5" font-family="Helvetica,sans-Serif" font-size="10.00" fill="#000000">memory</text>
</g>
<!-- Node5&#45;&gt;Node7 -->
<g id="edge7" class="edge">
<title>Node5&#45;&gt;Node7</title>
<path fill="none" stroke="#191970" d="M579.0248,-363.8575C555.7848,-355.37 523.6589,-341.3388 500,-322 462.6293,-291.4531 471.1551,-266.9764 435,-235 410.8433,-213.6353 399.2168,-216.2987 372,-199 309.5211,-159.2892 238.9239,-107.7307 204.3673,-82.0319"/>
<polygon fill="#191970" stroke="#191970" points="206.1065,-78.9627 195.9982,-75.7888 201.921,-84.5736 206.1065,-78.9627"/>
</g>
<!-- Node8 -->
<g id="node9" class="node">
<title>Node8</title>
<polygon fill="#ffffff" stroke="#bfbfbf" points="609,-56.5 609,-75.5 663,-75.5 663,-56.5 609,-56.5"/>
<text text-anchor="middle" x="636" y="-63.5" font-family="Helvetica,sans-Serif" font-size="10.00" fill="#000000">iostream</text>
</g>
<!-- Node5&#45;&gt;Node8 -->
<g id="edge8" class="edge">
<title>Node5&#45;&gt;Node8</title>
<path fill="none" stroke="#191970" d="M614.7522,-363.8907C626.679,-343.0256 653,-291.6896 653,-245 653,-245 653,-245 653,-189 653,-152.1524 645.4211,-109.6754 640.3841,-85.5136"/>
<polygon fill="#191970" stroke="#191970" points="643.7552,-84.5427 638.2225,-75.5072 636.9131,-86.0209 643.7552,-84.5427"/>
</g>
<!-- Node9 -->
<g id="node10" class="node">
<title>Node9</title>
<polygon fill="#ffffff" stroke="#bfbfbf" points="923.5,-297 923.5,-316 1006.5,-316 1006.5,-297 923.5,-297"/>
<text text-anchor="middle" x="965" y="-304" font-family="Helvetica,sans-Serif" font-size="10.00" fill="#000000">unordered_map</text>
</g>
<!-- Node5&#45;&gt;Node9 -->
<g id="edge9" class="edge">
<title>Node5&#45;&gt;Node9</title>
<path fill="none" stroke="#191970" d="M656.1367,-367.4465C716.384,-359.2746 823.6992,-343.2541 914,-322 917.8917,-321.084 921.9224,-320.0357 925.9343,-318.9259"/>
<polygon fill="#191970" stroke="#191970" points="927.1434,-322.2198 935.7783,-316.0807 925.1997,-315.495 927.1434,-322.2198"/>
</g>
<!-- Node10 -->
<g id="node11" class="node">
<title>Node10</title>
<polygon fill="#ffffff" stroke="#bfbfbf" points="537.5,-.5 537.5,-19.5 596.5,-19.5 596.5,-.5 537.5,-.5"/>
<text text-anchor="middle" x="567" y="-7.5" font-family="Helvetica,sans-Serif" font-size="10.00" fill="#000000">functional</text>
</g>
<!-- Node5&#45;&gt;Node10 -->
<g id="edge10" class="edge">
<title>Node5&#45;&gt;Node10</title>
<path fill="none" stroke="#191970" d="M620.7486,-363.8792C643.4223,-344.1509 691,-296.6054 691,-245 691,-245 691,-245 691,-127.5 691,-94.6194 693.403,-80.9609 672,-56 655.2612,-36.4786 628.6705,-24.9446 606.4373,-18.3083"/>
<polygon fill="#191970" stroke="#191970" points="607.1502,-14.8743 596.5797,-15.5927 605.291,-21.6229 607.1502,-14.8743"/>
</g>
<!-- Node11 -->
<g id="node12" class="node">
<title>Node11</title>
<polygon fill="#ffffff" stroke="#bfbfbf" points="1024.5,-297 1024.5,-316 1099.5,-316 1099.5,-297 1024.5,-297"/>
<text text-anchor="middle" x="1062" y="-304" font-family="Helvetica,sans-Serif" font-size="10.00" fill="#000000">glm/vec2.hpp</text>
</g>
<!-- Node5&#45;&gt;Node11 -->
<g id="edge11" class="edge">
<title>Node5&#45;&gt;Node11</title>
<path fill="none" stroke="#191970" d="M656.2273,-370.588C732.6336,-365.1951 887.7448,-351.4135 1016,-322 1019.473,-321.2035 1023.0536,-320.2473 1026.6115,-319.2059"/>
<polygon fill="#191970" stroke="#191970" points="1027.9799,-322.4447 1036.4703,-316.107 1025.8809,-315.7668 1027.9799,-322.4447"/>
</g>
<!-- Node12 -->
<g id="node13" class="node">
<title>Node12</title>
<polygon fill="#ffffff" stroke="#bfbfbf" points="830.5,-179.5 830.5,-198.5 905.5,-198.5 905.5,-179.5 830.5,-179.5"/>
<text text-anchor="middle" x="868" y="-186.5" font-family="Helvetica,sans-Serif" font-size="10.00" fill="#000000">glm/vec3.hpp</text>
</g>
<!-- Node5&#45;&gt;Node12 -->
<g id="edge12" class="edge">
<title>Node5&#45;&gt;Node12</title>
<path fill="none" stroke="#191970" d="M636.7403,-363.9679C657.6678,-355.6166 685.934,-341.7127 705,-322 734.986,-290.997 716.1168,-264.0484 748,-235 768.2214,-216.5765 796.5988,-205.2489 820.6815,-198.4462"/>
<polygon fill="#191970" stroke="#191970" points="821.5866,-201.8272 830.3585,-195.8854 819.7958,-195.0602 821.5866,-201.8272"/>
</g>
<!-- Node13 -->
<g id="node14" class="node">
<title>Node13</title>
<polygon fill="#ffffff" stroke="#bfbfbf" points="170.5,-297 170.5,-316 267.5,-316 267.5,-297 170.5,-297"/>
<text text-anchor="middle" x="219" y="-304" font-family="Helvetica,sans-Serif" font-size="10.00" fill="#000000">glm/geometric.hpp</text>
</g>
<!-- Node5&#45;&gt;Node13 -->
<g id="edge13" class="edge">
<title>Node5&#45;&gt;Node13</title>
<path fill="none" stroke="#191970" d="M561.9786,-367.8215C497.3841,-359.6541 377.7406,-343.2107 277,-322 272.2159,-320.9927 267.2378,-319.8342 262.2974,-318.6137"/>
<polygon fill="#191970" stroke="#191970" points="262.8393,-315.1396 252.2836,-316.0499 261.103,-321.9209 262.8393,-315.1396"/>
</g>
<!-- Node14 -->
<g id="node15" class="node">
<title>Node14</title>
<g id="a_node15"><a xlink:href="_dispatcher_8h.html" target="_top" xlink:title="kryne&#45;engine/Dispatch\l/Dispatcher.h">
<polygon fill="#ffffff" stroke="#000000" points="509,-291.5 509,-321.5 623,-321.5 623,-291.5 509,-291.5"/>
<text text-anchor="start" x="517" y="-309.5" font-family="Helvetica,sans-Serif" font-size="10.00" fill="#000000">kryne&#45;engine/Dispatch</text>
<text text-anchor="middle" x="566" y="-298.5" font-family="Helvetica,sans-Serif" font-size="10.00" fill="#000000">/Dispatcher.h</text>
</a>
</g>
</g>
<!-- Node5&#45;&gt;Node14 -->
<g id="edge14" class="edge">
<title>Node5&#45;&gt;Node14</title>
<path fill="none" stroke="#191970" d="M602.8391,-363.9005C597.1765,-355.0773 588.5517,-341.6387 581.0707,-329.9822"/>
<polygon fill="#191970" stroke="#191970" points="583.9877,-328.0472 575.6408,-321.5218 578.0965,-331.8281 583.9877,-328.0472"/>
</g>
<!-- Node26 -->
<g id="node27" class="node">
<title>Node26</title>
<g id="a_node27"><a xlink:href="_sphere_8hpp.html" target="_top" xlink:title="kryne&#45;engine/Math/Sphere.hpp">
<polygon fill="#ffffff" stroke="#000000" points="756.5,-297 756.5,-316 905.5,-316 905.5,-297 756.5,-297"/>
<text text-anchor="middle" x="831" y="-304" font-family="Helvetica,sans-Serif" font-size="10.00" fill="#000000">kryne&#45;engine/Math/Sphere.hpp</text>
</a>
</g>
</g>
<!-- Node5&#45;&gt;Node26 -->
<g id="edge32" class="edge">
<title>Node5&#45;&gt;Node26</title>
<path fill="none" stroke="#191970" d="M640.8072,-363.9005C679.9596,-352.0843 746.5404,-331.9901 789.6333,-318.9845"/>
<polygon fill="#191970" stroke="#191970" points="790.6896,-322.3218 799.2518,-316.0817 788.667,-315.6203 790.6896,-322.3218"/>
</g>
<!-- Node32 -->
<g id="node33" class="node">
<title>Node32</title>
<g id="a_node33"><a xlink:href="_buffer_attribute_8h.html" target="_top" xlink:title="BufferAttribute.h">
<polygon fill="#ffffff" stroke="#000000" points="286,-297 286,-316 374,-316 374,-297 286,-297"/>
<text text-anchor="middle" x="330" y="-304" font-family="Helvetica,sans-Serif" font-size="10.00" fill="#000000">BufferAttribute.h</text>
</a>
</g>
</g>
<!-- Node5&#45;&gt;Node32 -->
<g id="edge39" class="edge">
<title>Node5&#45;&gt;Node32</title>
<path fill="none" stroke="#191970" d="M563.3522,-363.9463C517.5644,-354.1643 445.1219,-338.1461 383,-322 379.1944,-321.0109 375.2477,-319.9408 371.3029,-318.8412"/>
<polygon fill="#191970" stroke="#191970" points="372.1583,-315.4457 361.5822,-316.0759 370.243,-322.1786 372.1583,-315.4457"/>
</g>
<!-- Node15 -->
<g id="node16" class="node">
<title>Node15</title>
<g id="a_node16"><a xlink:href="_synchronizable_pool_8h.html" target="_top" xlink:title="SynchronizablePool.h">
<polygon fill="#ffffff" stroke="#000000" points="475.5,-179.5 475.5,-198.5 586.5,-198.5 586.5,-179.5 475.5,-179.5"/>
<text text-anchor="middle" x="531" y="-186.5" font-family="Helvetica,sans-Serif" font-size="10.00" fill="#000000">SynchronizablePool.h</text>
</a>
</g>
</g>
<!-- Node14&#45;&gt;Node15 -->
<g id="edge15" class="edge">
<title>Node14&#45;&gt;Node15</title>
<path fill="none" stroke="#191970" d="M561.1553,-291.202C557.9378,-280.9708 553.6503,-267.1986 550,-255 545.3532,-239.4716 540.284,-221.8247 536.5512,-208.6877"/>
<polygon fill="#191970" stroke="#191970" points="539.8603,-207.5272 533.7686,-198.8588 533.125,-209.4341 539.8603,-207.5272"/>
</g>
<!-- Node23 -->
<g id="node24" class="node">
<title>Node23</title>
<g id="a_node24"><a xlink:href="_runner_pool_8h.html" target="_top" xlink:title="RunnerPool.h">
<polygon fill="#ffffff" stroke="#000000" points="381,-179.5 381,-198.5 457,-198.5 457,-179.5 381,-179.5"/>
<text text-anchor="middle" x="419" y="-186.5" font-family="Helvetica,sans-Serif" font-size="10.00" fill="#000000">RunnerPool.h</text>
</a>
</g>
</g>
<!-- Node14&#45;&gt;Node23 -->
<g id="edge26" class="edge">
<title>Node14&#45;&gt;Node23</title>
<path fill="none" stroke="#191970" d="M547.0833,-291.3795C519.2548,-269.1356 467.5105,-227.7754 439.0491,-205.0256"/>
<polygon fill="#191970" stroke="#191970" points="441.0126,-202.1144 431.016,-198.6046 436.642,-207.5823 441.0126,-202.1144"/>
</g>
<!-- Node24 -->
<g id="node25" class="node">
<title>Node24</title>
<g id="a_node25"><a xlink:href="_main_pool_8h.html" target="_top" xlink:title="MainPool.h">
<polygon fill="#ffffff" stroke="#000000" points="559.5,-235.5 559.5,-254.5 624.5,-254.5 624.5,-235.5 559.5,-235.5"/>
<text text-anchor="middle" x="592" y="-242.5" font-family="Helvetica,sans-Serif" font-size="10.00" fill="#000000">MainPool.h</text>
</a>
</g>
</g>
<!-- Node14&#45;&gt;Node24 -->
<g id="edge28" class="edge">
<title>Node14&#45;&gt;Node24</title>
<path fill="none" stroke="#191970" d="M572.427,-291.2977C575.8857,-283.1166 580.1867,-272.943 583.8754,-264.2179"/>
<polygon fill="#191970" stroke="#191970" points="587.1668,-265.4205 587.8371,-254.8469 580.7193,-262.6947 587.1668,-265.4205"/>
</g>
<!-- Node16 -->
<g id="node17" class="node">
<title>Node16</title>
<g id="a_node17"><a xlink:href="_thread_pool_8h.html" target="_top" xlink:title="ThreadPool.h">
<polygon fill="#ffffff" stroke="#000000" points="409,-118 409,-137 483,-137 483,-118 409,-118"/>
<text text-anchor="middle" x="446" y="-125" font-family="Helvetica,sans-Serif" font-size="10.00" fill="#000000">ThreadPool.h</text>
</a>
</g>
</g>
<!-- Node15&#45;&gt;Node16 -->
<g id="edge16" class="edge">
<title>Node15&#45;&gt;Node16</title>
<path fill="none" stroke="#191970" d="M517.7188,-179.3906C504.2452,-169.6421 483.178,-154.3994 467.3565,-142.9521"/>
<polygon fill="#191970" stroke="#191970" points="469.3414,-140.0682 459.188,-137.0419 465.2381,-145.7394 469.3414,-140.0682"/>
</g>
<!-- Node16&#45;&gt;Node7 -->
<g id="edge21" class="edge">
<title>Node16&#45;&gt;Node7</title>
<path fill="none" stroke="#191970" d="M408.7247,-119.7525C365.3957,-110.5988 291.5326,-94.5387 219.078,-76.1805"/>
<polygon fill="#191970" stroke="#191970" points="219.8851,-72.7743 209.3302,-73.6943 218.155,-79.5572 219.8851,-72.7743"/>
</g>
<!-- Node16&#45;&gt;Node8 -->
<g id="edge22" class="edge">
<title>Node16&#45;&gt;Node8</title>
<path fill="none" stroke="#191970" d="M475.6875,-117.8906C509.0778,-107.0827 563.3319,-89.5215 599.3397,-77.8664"/>
<polygon fill="#191970" stroke="#191970" points="600.5433,-81.1556 608.9794,-74.7461 598.3875,-74.4958 600.5433,-81.1556"/>
</g>
<!-- Node17 -->
<g id="node18" class="node">
<title>Node17</title>
<polygon fill="#ffffff" stroke="#bfbfbf" points="485,-56.5 485,-75.5 529,-75.5 529,-56.5 485,-56.5"/>
<text text-anchor="middle" x="507" y="-63.5" font-family="Helvetica,sans-Serif" font-size="10.00" fill="#000000">thread</text>
</g>
<!-- Node16&#45;&gt;Node17 -->
<g id="edge17" class="edge">
<title>Node16&#45;&gt;Node17</title>
<path fill="none" stroke="#191970" d="M455.5313,-117.8906C464.7879,-108.5581 479.039,-94.1902 490.2003,-82.9374"/>
<polygon fill="#191970" stroke="#191970" points="492.7772,-85.3095 497.3344,-75.7449 487.8072,-80.38 492.7772,-85.3095"/>
</g>
<!-- Node18 -->
<g id="node19" class="node">
<title>Node18</title>
<polygon fill="#ffffff" stroke="#bfbfbf" points="547,-56.5 547,-75.5 591,-75.5 591,-56.5 547,-56.5"/>
<text text-anchor="middle" x="569" y="-63.5" font-family="Helvetica,sans-Serif" font-size="10.00" fill="#000000">mutex</text>
</g>
<!-- Node16&#45;&gt;Node18 -->
<g id="edge18" class="edge">
<title>Node16&#45;&gt;Node18</title>
<path fill="none" stroke="#191970" d="M465.2188,-117.8906C485.5281,-107.7359 517.7607,-91.6196 540.9168,-80.0416"/>
<polygon fill="#191970" stroke="#191970" points="542.5372,-83.1446 549.9162,-75.5419 539.4067,-76.8836 542.5372,-83.1446"/>
</g>
<!-- Node19 -->
<g id="node20" class="node">
<title>Node19</title>
<polygon fill="#ffffff" stroke="#bfbfbf" points="227.5,-56.5 227.5,-75.5 322.5,-75.5 322.5,-56.5 227.5,-56.5"/>
<text text-anchor="middle" x="275" y="-63.5" font-family="Helvetica,sans-Serif" font-size="10.00" fill="#000000">condition_variable</text>
</g>
<!-- Node16&#45;&gt;Node19 -->
<g id="edge19" class="edge">
<title>Node16&#45;&gt;Node19</title>
<path fill="none" stroke="#191970" d="M419.2813,-117.8906C390.1679,-107.42 343.4308,-90.6111 311.0753,-78.9745"/>
<polygon fill="#191970" stroke="#191970" points="312.1256,-75.6328 301.5311,-75.5419 309.7565,-82.2197 312.1256,-75.6328"/>
</g>
<!-- Node20 -->
<g id="node21" class="node">
<title>Node20</title>
<polygon fill="#ffffff" stroke="#bfbfbf" points="425.5,-56.5 425.5,-75.5 466.5,-75.5 466.5,-56.5 425.5,-56.5"/>
<text text-anchor="middle" x="446" y="-63.5" font-family="Helvetica,sans-Serif" font-size="10.00" fill="#000000">future</text>
</g>
<!-- Node16&#45;&gt;Node20 -->
<g id="edge20" class="edge">
<title>Node16&#45;&gt;Node20</title>
<path fill="none" stroke="#191970" d="M446,-117.8906C446,-109.3657 446,-96.6392 446,-85.9235"/>
<polygon fill="#191970" stroke="#191970" points="449.5001,-85.7448 446,-75.7449 442.5001,-85.7449 449.5001,-85.7448"/>
</g>
<!-- Node21 -->
<g id="node22" class="node">
<title>Node21</title>
<g id="a_node22"><a xlink:href="_base_pool_8h.html" target="_top" xlink:title="BasePool.h">
<polygon fill="#ffffff" stroke="#000000" points="340.5,-56.5 340.5,-75.5 407.5,-75.5 407.5,-56.5 340.5,-56.5"/>
<text text-anchor="middle" x="374" y="-63.5" font-family="Helvetica,sans-Serif" font-size="10.00" fill="#000000">BasePool.h</text>
</a>
</g>
</g>
<!-- Node16&#45;&gt;Node21 -->
<g id="edge23" class="edge">
<title>Node16&#45;&gt;Node21</title>
<path fill="none" stroke="#191970" d="M434.75,-117.8906C423.614,-108.3786 406.354,-93.6357 393.0732,-82.2917"/>
<polygon fill="#191970" stroke="#191970" points="395.2856,-79.5784 385.4086,-75.7449 390.7392,-84.9011 395.2856,-79.5784"/>
</g>
<!-- Node21&#45;&gt;Node10 -->
<g id="edge25" class="edge">
<title>Node21&#45;&gt;Node10</title>
<path fill="none" stroke="#191970" d="M407.1779,-56.3733C440.5296,-46.6961 491.9488,-31.7765 527.412,-21.4867"/>
<polygon fill="#191970" stroke="#191970" points="528.7863,-24.7323 537.4149,-18.5843 526.8356,-18.0096 528.7863,-24.7323"/>
</g>
<!-- Node22 -->
<g id="node23" class="node">
<title>Node22</title>
<polygon fill="#ffffff" stroke="#bfbfbf" points="352.5,-.5 352.5,-19.5 395.5,-19.5 395.5,-.5 352.5,-.5"/>
<text text-anchor="middle" x="374" y="-7.5" font-family="Helvetica,sans-Serif" font-size="10.00" fill="#000000">queue</text>
</g>
<!-- Node21&#45;&gt;Node22 -->
<g id="edge24" class="edge">
<title>Node21&#45;&gt;Node22</title>
<path fill="none" stroke="#191970" d="M374,-56.2455C374,-48.9382 374,-38.6944 374,-29.7046"/>
<polygon fill="#191970" stroke="#191970" points="377.5001,-29.6426 374,-19.6427 370.5001,-29.6427 377.5001,-29.6426"/>
</g>
<!-- Node23&#45;&gt;Node16 -->
<g id="edge27" class="edge">
<title>Node23&#45;&gt;Node16</title>
<path fill="none" stroke="#191970" d="M423.2188,-179.3906C427.0796,-170.5965 432.9034,-157.3312 437.6961,-146.4145"/>
<polygon fill="#191970" stroke="#191970" points="440.9066,-147.8083 441.7218,-137.2449 434.4971,-144.9943 440.9066,-147.8083"/>
</g>
<!-- Node24&#45;&gt;Node15 -->
<g id="edge31" class="edge">
<title>Node24&#45;&gt;Node15</title>
<path fill="none" stroke="#191970" d="M581.3746,-235.2455C572.4527,-227.0549 559.512,-215.1749 548.9808,-205.5069"/>
<polygon fill="#191970" stroke="#191970" points="551.2371,-202.8271 541.5036,-198.6427 546.5032,-207.9837 551.2371,-202.8271"/>
</g>
<!-- Node25 -->
<g id="node26" class="node">
<title>Node25</title>
<g id="a_node26"><a xlink:href="_multithreading_8hpp.html" target="_top" xlink:title="kryne&#45;engine/Utils\l/Multithreading.hpp">
<polygon fill="#ffffff" stroke="#000000" points="522.5,-112.5 522.5,-142.5 621.5,-142.5 621.5,-112.5 522.5,-112.5"/>
<text text-anchor="start" x="530.5" y="-130.5" font-family="Helvetica,sans-Serif" font-size="10.00" fill="#000000">kryne&#45;engine/Utils</text>
<text text-anchor="middle" x="572" y="-119.5" font-family="Helvetica,sans-Serif" font-size="10.00" fill="#000000">/Multithreading.hpp</text>
</a>
</g>
</g>
<!-- Node24&#45;&gt;Node25 -->
<g id="edge29" class="edge">
<title>Node24&#45;&gt;Node25</title>
<path fill="none" stroke="#191970" d="M593.9288,-235.4767C596.2124,-222.5353 599.2085,-198.7439 595,-179 593.0339,-169.7762 589.2917,-160.2033 585.3881,-151.8496"/>
<polygon fill="#191970" stroke="#191970" points="588.4203,-150.087 580.8282,-142.6971 582.1549,-153.2086 588.4203,-150.087"/>
</g>
<!-- Node25&#45;&gt;Node18 -->
<g id="edge30" class="edge">
<title>Node25&#45;&gt;Node18</title>
<path fill="none" stroke="#191970" d="M571.2584,-112.2977C570.8724,-104.3834 570.3953,-94.6043 569.9793,-86.0759"/>
<polygon fill="#191970" stroke="#191970" points="573.4635,-85.6645 569.4803,-75.8469 566.4718,-86.0056 573.4635,-85.6645"/>
</g>
<!-- Node27 -->
<g id="node28" class="node">
<title>Node27</title>
<polygon fill="#ffffff" stroke="#bfbfbf" points="1151,-235.5 1151,-254.5 1237,-254.5 1237,-235.5 1151,-235.5"/>
<text text-anchor="middle" x="1194" y="-242.5" font-family="Helvetica,sans-Serif" font-size="10.00" fill="#000000">glm/mat4x4.hpp</text>
</g>
<!-- Node26&#45;&gt;Node27 -->
<g id="edge33" class="edge">
<title>Node26&#45;&gt;Node27</title>
<path fill="none" stroke="#191970" d="M881.6012,-296.9497C892.6024,-294.9331 904.1841,-292.8552 915,-291 1012.5331,-274.2702 1039.7064,-272.7312 1140.8645,-255.155"/>
<polygon fill="#191970" stroke="#191970" points="1141.6416,-258.5723 1150.8898,-253.403 1140.4365,-251.6768 1141.6416,-258.5723"/>
</g>
<!-- Node28 -->
<g id="node29" class="node">
<title>Node28</title>
<polygon fill="#ffffff" stroke="#bfbfbf" points="757,-235.5 757,-254.5 849,-254.5 849,-235.5 757,-235.5"/>
<text text-anchor="middle" x="803" y="-242.5" font-family="Helvetica,sans-Serif" font-size="10.00" fill="#000000">glm/gtx/norm.hpp</text>
</g>
<!-- Node26&#45;&gt;Node28 -->
<g id="edge34" class="edge">
<title>Node26&#45;&gt;Node28</title>
<path fill="none" stroke="#191970" d="M826.625,-296.8906C822.6212,-288.0965 816.5817,-274.8312 811.6115,-263.9145"/>
<polygon fill="#191970" stroke="#191970" points="814.7657,-262.3957 807.4367,-254.7449 808.3949,-265.2963 814.7657,-262.3957"/>
</g>
<!-- Node29 -->
<g id="node30" class="node">
<title>Node29</title>
<polygon fill="#ffffff" stroke="#bfbfbf" points="867,-235.5 867,-254.5 1011,-254.5 1011,-235.5 867,-235.5"/>
<text text-anchor="middle" x="939" y="-242.5" font-family="Helvetica,sans-Serif" font-size="10.00" fill="#000000">glm/gtx/component_wise.hpp</text>
</g>
<!-- Node26&#45;&gt;Node29 -->
<g id="edge35" class="edge">
<title>Node26&#45;&gt;Node29</title>
<path fill="none" stroke="#191970" d="M847.875,-296.8906C865.4698,-286.8713 893.2566,-271.0483 913.5241,-259.5071"/>
<polygon fill="#191970" stroke="#191970" points="915.2856,-262.5318 922.2435,-254.5419 911.8217,-256.4489 915.2856,-262.5318"/>
</g>
<!-- Node30 -->
<g id="node31" class="node">
<title>Node30</title>
<g id="a_node31"><a xlink:href="_axis_aligned_box_8hpp.html" target="_top" xlink:title="AxisAlignedBox.hpp">
<polygon fill="#ffffff" stroke="#000000" points="1029,-235.5 1029,-254.5 1133,-254.5 1133,-235.5 1029,-235.5"/>
<text text-anchor="middle" x="1081" y="-242.5" font-family="Helvetica,sans-Serif" font-size="10.00" fill="#000000">AxisAlignedBox.hpp</text>
</a>
</g>
</g>
<!-- Node26&#45;&gt;Node30 -->
<g id="edge36" class="edge">
<title>Node26&#45;&gt;Node30</title>
<path fill="none" stroke="#191970" d="M869.7882,-296.9581C913.5784,-286.1857 984.8909,-268.6428 1032.3696,-256.9631"/>
<polygon fill="#191970" stroke="#191970" points="1033.2464,-260.3518 1042.1208,-254.5643 1031.5742,-253.5545 1033.2464,-260.3518"/>
</g>
<!-- Node30&#45;&gt;Node12 -->
<g id="edge37" class="edge">
<title>Node30&#45;&gt;Node12</title>
<path fill="none" stroke="#191970" d="M1044.384,-235.3733C1008.352,-225.9001 953.2122,-211.4032 914.1886,-201.1435"/>
<polygon fill="#191970" stroke="#191970" points="914.6995,-197.6589 904.1382,-198.5011 912.9196,-204.4289 914.6995,-197.6589"/>
</g>
<!-- Node31 -->
<g id="node32" class="node">
<title>Node31</title>
<polygon fill="#ffffff" stroke="#bfbfbf" points="1035,-179.5 1035,-198.5 1127,-198.5 1127,-179.5 1035,-179.5"/>
<text text-anchor="middle" x="1081" y="-186.5" font-family="Helvetica,sans-Serif" font-size="10.00" fill="#000000">glm/common.hpp</text>
</g>
<!-- Node30&#45;&gt;Node31 -->
<g id="edge38" class="edge">
<title>Node30&#45;&gt;Node31</title>
<path fill="none" stroke="#191970" d="M1081,-235.2455C1081,-227.9382 1081,-217.6944 1081,-208.7046"/>
<polygon fill="#191970" stroke="#191970" points="1084.5001,-208.6426 1081,-198.6427 1077.5001,-208.6427 1084.5001,-208.6426"/>
</g>
<!-- Node32&#45;&gt;Node3 -->
<g id="edge40" class="edge">
<title>Node32&#45;&gt;Node3</title>
<path fill="none" stroke="#191970" d="M302.9688,-296.8906C272.0508,-285.8996 221.4864,-267.9243 188.7277,-256.2789"/>
<polygon fill="#191970" stroke="#191970" points="189.7691,-252.9346 179.1744,-252.8828 187.4243,-259.5302 189.7691,-252.9346"/>
</g>
<!-- Node33 -->
<g id="node34" class="node">
<title>Node33</title>
<polygon fill="#ffffff" stroke="#bfbfbf" points="385.5,-235.5 385.5,-254.5 426.5,-254.5 426.5,-235.5 385.5,-235.5"/>
<text text-anchor="middle" x="406" y="-242.5" font-family="Helvetica,sans-Serif" font-size="10.00" fill="#000000">string</text>
</g>
<!-- Node32&#45;&gt;Node33 -->
<g id="edge41" class="edge">
<title>Node32&#45;&gt;Node33</title>
<path fill="none" stroke="#191970" d="M341.875,-296.8906C353.6297,-287.3786 371.8486,-272.6357 385.8672,-261.2917"/>
<polygon fill="#191970" stroke="#191970" points="388.3856,-263.7562 393.9576,-254.7449 383.9822,-258.3146 388.3856,-263.7562"/>
</g>
<!-- Node34 -->
<g id="node35" class="node">
<title>Node34</title>
<polygon fill="#ffffff" stroke="#bfbfbf" points="205,-235.5 205,-254.5 269,-254.5 269,-235.5 205,-235.5"/>
<text text-anchor="middle" x="237" y="-242.5" font-family="Helvetica,sans-Serif" font-size="10.00" fill="#000000">glad/glad.h</text>
</g>
<!-- Node32&#45;&gt;Node34 -->
<g id="edge42" class="edge">
<title>Node32&#45;&gt;Node34</title>
<path fill="none" stroke="#191970" d="M315.4688,-296.8906C300.5906,-287.0519 277.2496,-271.6167 259.8872,-260.1351"/>
<polygon fill="#191970" stroke="#191970" points="261.701,-257.1385 251.4292,-254.5419 257.8398,-262.9773 261.701,-257.1385"/>
</g>
<!-- Node35 -->
<g id="node36" class="node">
<title>Node35</title>
<polygon fill="#ffffff" stroke="#bfbfbf" points="287,-235.5 287,-254.5 367,-254.5 367,-235.5 287,-235.5"/>
<text text-anchor="middle" x="327" y="-242.5" font-family="Helvetica,sans-Serif" font-size="10.00" fill="#000000">GLFW/glfw3.h</text>
</g>
<!-- Node32&#45;&gt;Node35 -->
<g id="edge43" class="edge">
<title>Node32&#45;&gt;Node35</title>
<path fill="none" stroke="#191970" d="M329.5313,-296.8906C329.1154,-288.3657 328.4946,-275.6392 327.9719,-264.9235"/>
<polygon fill="#191970" stroke="#191970" points="331.4585,-264.5624 327.4754,-254.7449 324.4668,-264.9035 331.4585,-264.5624"/>
</g>
</g>
</svg>
