<?xml version="1.0" encoding="UTF-8" standalone="no"?>
<!DOCTYPE svg PUBLIC "-//W3C//DTD SVG 1.1//EN"
 "http://www.w3.org/Graphics/SVG/1.1/DTD/svg11.dtd">
<!-- Generated by graphviz version 2.44.1 (20200629.0846)
 -->
<!-- Title: kryne&#45;engine/include/kryne&#45;engine/Light/PointLight.h Pages: 1 -->
<svg width="1449pt" height="464pt"
 viewBox="0.00 0.00 1448.50 464.00" xmlns="http://www.w3.org/2000/svg" xmlns:xlink="http://www.w3.org/1999/xlink">
<g id="graph0" class="graph" transform="scale(1 1) rotate(0) translate(4 460)">
<title>kryne&#45;engine/include/kryne&#45;engine/Light/PointLight.h</title>
<polygon fill="white" stroke="transparent" points="-4,4 -4,-460 1444.5,-460 1444.5,4 -4,4"/>
<!-- Node1 -->
<g id="node1" class="node">
<title>Node1</title>
<g id="a_node1"><a xlink:title=" ">
<polygon fill="#bfbfbf" stroke="black" points="1260.5,-425.5 1260.5,-455.5 1414.5,-455.5 1414.5,-425.5 1260.5,-425.5"/>
<text text-anchor="start" x="1268.5" y="-443.5" font-family="Helvetica,sans-Serif" font-size="10.00">kryne&#45;engine/include</text>
<text text-anchor="middle" x="1337.5" y="-432.5" font-family="Helvetica,sans-Serif" font-size="10.00">/kryne&#45;engine/Light/PointLight.h</text>
</a>
</g>
</g>
<!-- Node2 -->
<g id="node2" class="node">
<title>Node2</title>
<g id="a_node2"><a xlink:title=" ">
<polygon fill="white" stroke="#bfbfbf" points="1247.5,-168.5 1247.5,-187.5 1321.5,-187.5 1321.5,-168.5 1247.5,-168.5"/>
<text text-anchor="middle" x="1284.5" y="-175.5" font-family="Helvetica,sans-Serif" font-size="10.00">glm/vec3.hpp</text>
</a>
</g>
</g>
<!-- Node1&#45;&gt;Node2 -->
<g id="edge1" class="edge">
<title>Node1&#45;&gt;Node2</title>
<path fill="none" stroke="midnightblue" d="M1334.65,-425.49C1325.73,-381.67 1298.36,-247.13 1288.28,-197.58"/>
<polygon fill="midnightblue" stroke="midnightblue" points="1291.68,-196.73 1286.25,-187.63 1284.82,-198.12 1291.68,-196.73"/>
</g>
<!-- Node3 -->
<g id="node3" class="node">
<title>Node3</title>
<g id="a_node3"><a xlink:href="_shader_8h.html" target="_top" xlink:title=" ">
<polygon fill="white" stroke="black" points="631.5,-358.5 631.5,-388.5 741.5,-388.5 741.5,-358.5 631.5,-358.5"/>
<text text-anchor="start" x="639.5" y="-376.5" font-family="Helvetica,sans-Serif" font-size="10.00">kryne&#45;engine/Material</text>
<text text-anchor="middle" x="686.5" y="-365.5" font-family="Helvetica,sans-Serif" font-size="10.00">/Shader.h</text>
</a>
</g>
</g>
<!-- Node1&#45;&gt;Node3 -->
<g id="edge2" class="edge">
<title>Node1&#45;&gt;Node3</title>
<path fill="none" stroke="midnightblue" d="M1260.27,-431.79C1131,-418.88 873.11,-393.13 752.08,-381.05"/>
<polygon fill="midnightblue" stroke="midnightblue" points="752.15,-377.54 741.85,-380.03 751.45,-384.5 752.15,-377.54"/>
</g>
<!-- Node37 -->
<g id="node37" class="node">
<title>Node37</title>
<g id="a_node37"><a xlink:title=" ">
<polygon fill="white" stroke="#bfbfbf" points="691.5,-112.5 691.5,-131.5 733.5,-131.5 733.5,-112.5 691.5,-112.5"/>
<text text-anchor="middle" x="712.5" y="-119.5" font-family="Helvetica,sans-Serif" font-size="10.00">vector</text>
</a>
</g>
</g>
<!-- Node1&#45;&gt;Node37 -->
<g id="edge53" class="edge">
<title>Node1&#45;&gt;Node37</title>
<path fill="none" stroke="midnightblue" d="M1340.9,-425.34C1346.36,-401.27 1356.5,-350.8 1356.5,-307.5 1356.5,-307.5 1356.5,-307.5 1356.5,-238.5 1356.5,-205.1 1357.19,-188.08 1330.5,-168 1283.35,-132.52 863.09,-124.8 743.89,-123.32"/>
<polygon fill="midnightblue" stroke="midnightblue" points="743.67,-119.82 733.63,-123.2 743.59,-126.82 743.67,-119.82"/>
</g>
<!-- Node39 -->
<g id="node39" class="node">
<title>Node39</title>
<g id="a_node39"><a xlink:title=" ">
<polygon fill="white" stroke="#bfbfbf" points="1384.5,-364 1384.5,-383 1440.5,-383 1440.5,-364 1384.5,-364"/>
<text text-anchor="middle" x="1412.5" y="-371" font-family="Helvetica,sans-Serif" font-size="10.00">algorithm</text>
</a>
</g>
</g>
<!-- Node1&#45;&gt;Node39 -->
<g id="edge54" class="edge">
<title>Node1&#45;&gt;Node39</title>
<path fill="none" stroke="midnightblue" d="M1353.77,-425.4C1365.82,-414.96 1382.21,-400.75 1394.62,-390"/>
<polygon fill="midnightblue" stroke="midnightblue" points="1397.2,-392.39 1402.47,-383.19 1392.62,-387.1 1397.2,-392.39"/>
</g>
<!-- Node4 -->
<g id="node4" class="node">
<title>Node4</title>
<g id="a_node4"><a xlink:title=" ">
<polygon fill="white" stroke="#bfbfbf" points="884,-297 884,-316 919,-316 919,-297 884,-297"/>
<text text-anchor="middle" x="901.5" y="-304" font-family="Helvetica,sans-Serif" font-size="10.00">map</text>
</a>
</g>
</g>
<!-- Node3&#45;&gt;Node4 -->
<g id="edge3" class="edge">
<title>Node3&#45;&gt;Node4</title>
<path fill="none" stroke="midnightblue" d="M741.87,-361.16C779.9,-352.53 831.15,-339.2 874.5,-322 875.54,-321.59 876.59,-321.15 877.64,-320.68"/>
<polygon fill="midnightblue" stroke="midnightblue" points="879.51,-323.66 886.94,-316.11 876.42,-317.38 879.51,-323.66"/>
</g>
<!-- Node5 -->
<g id="node5" class="node">
<title>Node5</title>
<g id="a_node5"><a xlink:title=" ">
<polygon fill="white" stroke="#bfbfbf" points="484.5,-297 484.5,-316 536.5,-316 536.5,-297 484.5,-297"/>
<text text-anchor="middle" x="510.5" y="-304" font-family="Helvetica,sans-Serif" font-size="10.00">sstream</text>
</a>
</g>
</g>
<!-- Node3&#45;&gt;Node5 -->
<g id="edge4" class="edge">
<title>Node3&#45;&gt;Node5</title>
<path fill="none" stroke="midnightblue" d="M645.58,-358.44C617.33,-348.59 578.98,-334.92 545.5,-322 543.85,-321.37 542.17,-320.7 540.47,-320.03"/>
<polygon fill="midnightblue" stroke="midnightblue" points="541.37,-316.62 530.79,-316.1 538.74,-323.1 541.37,-316.62"/>
</g>
<!-- Node6 -->
<g id="node6" class="node">
<title>Node6</title>
<g id="a_node6"><a xlink:href="_dispatcher_8h.html" target="_top" xlink:title=" ">
<polygon fill="white" stroke="black" points="225,-291.5 225,-321.5 338,-321.5 338,-291.5 225,-291.5"/>
<text text-anchor="start" x="233" y="-309.5" font-family="Helvetica,sans-Serif" font-size="10.00">kryne&#45;engine/Dispatch</text>
<text text-anchor="middle" x="281.5" y="-298.5" font-family="Helvetica,sans-Serif" font-size="10.00">/Dispatcher.h</text>
</a>
</g>
</g>
<!-- Node3&#45;&gt;Node6 -->
<g id="edge5" class="edge">
<title>Node3&#45;&gt;Node6</title>
<path fill="none" stroke="midnightblue" d="M631.46,-363.67C557.88,-351.86 427.56,-330.94 348.39,-318.24"/>
<polygon fill="midnightblue" stroke="midnightblue" points="348.48,-314.71 338.05,-316.58 347.37,-321.62 348.48,-314.71"/>
</g>
<!-- Node20 -->
<g id="node20" class="node">
<title>Node20</title>
<g id="a_node20"><a xlink:href="_uniforms_handler_8h.html" target="_top" xlink:title=" ">
<polygon fill="white" stroke="black" points="769.5,-297 769.5,-316 865.5,-316 865.5,-297 769.5,-297"/>
<text text-anchor="middle" x="817.5" y="-304" font-family="Helvetica,sans-Serif" font-size="10.00">UniformsHandler.h</text>
</a>
</g>
</g>
<!-- Node3&#45;&gt;Node20 -->
<g id="edge25" class="edge">
<title>Node3&#45;&gt;Node20</title>
<path fill="none" stroke="midnightblue" d="M714.93,-358.4C737.61,-347.14 769.13,-331.5 791.22,-320.54"/>
<polygon fill="midnightblue" stroke="midnightblue" points="792.95,-323.59 800.36,-316.01 789.84,-317.32 792.95,-323.59"/>
</g>
<!-- Node32 -->
<g id="node32" class="node">
<title>Node32</title>
<g id="a_node32"><a xlink:href="_shader_chunk_8h.html" target="_top" xlink:title=" ">
<polygon fill="white" stroke="black" points="555,-297 555,-316 638,-316 638,-297 555,-297"/>
<text text-anchor="middle" x="596.5" y="-304" font-family="Helvetica,sans-Serif" font-size="10.00">ShaderChunk.h</text>
</a>
</g>
</g>
<!-- Node3&#45;&gt;Node32 -->
<g id="edge42" class="edge">
<title>Node3&#45;&gt;Node32</title>
<path fill="none" stroke="midnightblue" d="M666.97,-358.4C652.02,-347.6 631.47,-332.76 616.42,-321.89"/>
<polygon fill="midnightblue" stroke="midnightblue" points="618.43,-319.02 608.28,-316.01 614.34,-324.7 618.43,-319.02"/>
</g>
<!-- Node7 -->
<g id="node7" class="node">
<title>Node7</title>
<g id="a_node7"><a xlink:href="_synchronizable_pool_8h.html" target="_top" xlink:title=" ">
<polygon fill="white" stroke="black" points="134,-168.5 134,-187.5 245,-187.5 245,-168.5 134,-168.5"/>
<text text-anchor="middle" x="189.5" y="-175.5" font-family="Helvetica,sans-Serif" font-size="10.00">SynchronizablePool.h</text>
</a>
</g>
</g>
<!-- Node6&#45;&gt;Node7 -->
<g id="edge6" class="edge">
<title>Node6&#45;&gt;Node7</title>
<path fill="none" stroke="midnightblue" d="M251.6,-291.39C236.56,-282.85 219.29,-270.59 208.5,-255 196.68,-237.92 192.2,-214.16 190.51,-197.78"/>
<polygon fill="midnightblue" stroke="midnightblue" points="194,-197.48 189.73,-187.79 187.02,-198.03 194,-197.48"/>
</g>
<!-- Node17 -->
<g id="node17" class="node">
<title>Node17</title>
<g id="a_node17"><a xlink:href="_runner_pool_8h.html" target="_top" xlink:title=" ">
<polygon fill="white" stroke="black" points="274,-168.5 274,-187.5 349,-187.5 349,-168.5 274,-168.5"/>
<text text-anchor="middle" x="311.5" y="-175.5" font-family="Helvetica,sans-Serif" font-size="10.00">RunnerPool.h</text>
</a>
</g>
</g>
<!-- Node6&#45;&gt;Node17 -->
<g id="edge18" class="edge">
<title>Node6&#45;&gt;Node17</title>
<path fill="none" stroke="midnightblue" d="M284.83,-291.48C290.25,-268.62 300.99,-223.3 307.06,-197.71"/>
<polygon fill="midnightblue" stroke="midnightblue" points="310.51,-198.33 309.42,-187.79 303.7,-196.71 310.51,-198.33"/>
</g>
<!-- Node19 -->
<g id="node19" class="node">
<title>Node19</title>
<g id="a_node19"><a xlink:href="_main_pool_8h.html" target="_top" xlink:title=" ">
<polygon fill="white" stroke="black" points="218,-230 218,-249 283,-249 283,-230 218,-230"/>
<text text-anchor="middle" x="250.5" y="-237" font-family="Helvetica,sans-Serif" font-size="10.00">MainPool.h</text>
</a>
</g>
</g>
<!-- Node6&#45;&gt;Node19 -->
<g id="edge23" class="edge">
<title>Node6&#45;&gt;Node19</title>
<path fill="none" stroke="midnightblue" d="M274.77,-291.4C270.18,-281.76 264.05,-268.91 259.1,-258.54"/>
<polygon fill="midnightblue" stroke="midnightblue" points="262.11,-256.71 254.65,-249.19 255.79,-259.73 262.11,-256.71"/>
</g>
<!-- Node8 -->
<g id="node8" class="node">
<title>Node8</title>
<g id="a_node8"><a xlink:href="_base_pool_8h.html" target="_top" xlink:title=" ">
<polygon fill="white" stroke="black" points="179,-56.5 179,-75.5 246,-75.5 246,-56.5 179,-56.5"/>
<text text-anchor="middle" x="212.5" y="-63.5" font-family="Helvetica,sans-Serif" font-size="10.00">BasePool.h</text>
</a>
</g>
</g>
<!-- Node7&#45;&gt;Node8 -->
<g id="edge7" class="edge">
<title>Node7&#45;&gt;Node8</title>
<path fill="none" stroke="midnightblue" d="M191.3,-168.37C195.02,-150.62 203.58,-109.67 208.61,-85.6"/>
<polygon fill="midnightblue" stroke="midnightblue" points="212.08,-86.1 210.7,-75.59 205.23,-84.66 212.08,-86.1"/>
</g>
<!-- Node16 -->
<g id="node16" class="node">
<title>Node16</title>
<g id="a_node16"><a xlink:href="_synchronizable_child_pool_8h.html" target="_top" xlink:title=" ">
<polygon fill="white" stroke="black" points="51,-112.5 51,-131.5 184,-131.5 184,-112.5 51,-112.5"/>
<text text-anchor="middle" x="117.5" y="-119.5" font-family="Helvetica,sans-Serif" font-size="10.00">SynchronizableChildPool.h</text>
</a>
</g>
</g>
<!-- Node7&#45;&gt;Node16 -->
<g id="edge15" class="edge">
<title>Node7&#45;&gt;Node16</title>
<path fill="none" stroke="midnightblue" d="M172.82,-168.32C160.32,-160.26 143.73,-148.08 131.83,-138.37"/>
<polygon fill="midnightblue" stroke="midnightblue" points="134.02,-135.63 124.13,-131.83 129.49,-140.97 134.02,-135.63"/>
</g>
<!-- Node9 -->
<g id="node9" class="node">
<title>Node9</title>
<g id="a_node9"><a xlink:title=" ">
<polygon fill="white" stroke="#bfbfbf" points="190.5,-0.5 190.5,-19.5 234.5,-19.5 234.5,-0.5 190.5,-0.5"/>
<text text-anchor="middle" x="212.5" y="-7.5" font-family="Helvetica,sans-Serif" font-size="10.00">thread</text>
</a>
</g>
</g>
<!-- Node8&#45;&gt;Node9 -->
<g id="edge8" class="edge">
<title>Node8&#45;&gt;Node9</title>
<path fill="none" stroke="midnightblue" d="M212.5,-56.08C212.5,-49.01 212.5,-38.86 212.5,-29.99"/>
<polygon fill="midnightblue" stroke="midnightblue" points="216,-29.75 212.5,-19.75 209,-29.75 216,-29.75"/>
</g>
<!-- Node10 -->
<g id="node10" class="node">
<title>Node10</title>
<g id="a_node10"><a xlink:title=" ">
<polygon fill="white" stroke="#bfbfbf" points="252.5,-0.5 252.5,-19.5 296.5,-19.5 296.5,-0.5 252.5,-0.5"/>
<text text-anchor="middle" x="274.5" y="-7.5" font-family="Helvetica,sans-Serif" font-size="10.00">mutex</text>
</a>
</g>
</g>
<!-- Node8&#45;&gt;Node10 -->
<g id="edge9" class="edge">
<title>Node8&#45;&gt;Node10</title>
<path fill="none" stroke="midnightblue" d="M222.46,-56.32C231.63,-48.34 245.44,-36.31 256.53,-26.65"/>
<polygon fill="midnightblue" stroke="midnightblue" points="259.12,-29.04 264.36,-19.83 254.52,-23.76 259.12,-29.04"/>
</g>
<!-- Node11 -->
<g id="node11" class="node">
<title>Node11</title>
<g id="a_node11"><a xlink:title=" ">
<polygon fill="white" stroke="#bfbfbf" points="315,-0.5 315,-19.5 408,-19.5 408,-0.5 315,-0.5"/>
<text text-anchor="middle" x="361.5" y="-7.5" font-family="Helvetica,sans-Serif" font-size="10.00">condition_variable</text>
</a>
</g>
</g>
<!-- Node8&#45;&gt;Node11 -->
<g id="edge10" class="edge">
<title>Node8&#45;&gt;Node11</title>
<path fill="none" stroke="midnightblue" d="M236.11,-56.44C260.96,-47.44 300.27,-33.19 328.25,-23.05"/>
<polygon fill="midnightblue" stroke="midnightblue" points="329.79,-26.21 338,-19.52 327.41,-19.63 329.79,-26.21"/>
</g>
<!-- Node12 -->
<g id="node12" class="node">
<title>Node12</title>
<g id="a_node12"><a xlink:title=" ">
<polygon fill="white" stroke="#bfbfbf" points="0,-0.5 0,-19.5 43,-19.5 43,-0.5 0,-0.5"/>
<text text-anchor="middle" x="21.5" y="-7.5" font-family="Helvetica,sans-Serif" font-size="10.00">queue</text>
</a>
</g>
</g>
<!-- Node8&#45;&gt;Node12 -->
<g id="edge11" class="edge">
<title>Node8&#45;&gt;Node12</title>
<path fill="none" stroke="midnightblue" d="M181.28,-56.46C150.78,-48.08 102.78,-34.78 52.8,-20.34"/>
<polygon fill="midnightblue" stroke="midnightblue" points="53.69,-16.96 43.12,-17.54 51.75,-23.68 53.69,-16.96"/>
</g>
<!-- Node13 -->
<g id="node13" class="node">
<title>Node13</title>
<g id="a_node13"><a xlink:title=" ">
<polygon fill="white" stroke="#bfbfbf" points="61,-0.5 61,-19.5 102,-19.5 102,-0.5 61,-0.5"/>
<text text-anchor="middle" x="81.5" y="-7.5" font-family="Helvetica,sans-Serif" font-size="10.00">future</text>
</a>
</g>
</g>
<!-- Node8&#45;&gt;Node13 -->
<g id="edge12" class="edge">
<title>Node8&#45;&gt;Node13</title>
<path fill="none" stroke="midnightblue" d="M191.74,-56.44C170.18,-47.56 136.24,-33.56 111.71,-23.45"/>
<polygon fill="midnightblue" stroke="midnightblue" points="112.74,-20.09 102.16,-19.52 110.07,-26.56 112.74,-20.09"/>
</g>
<!-- Node14 -->
<g id="node14" class="node">
<title>Node14</title>
<g id="a_node14"><a xlink:title=" ">
<polygon fill="white" stroke="#bfbfbf" points="120.5,-0.5 120.5,-19.5 172.5,-19.5 172.5,-0.5 120.5,-0.5"/>
<text text-anchor="middle" x="146.5" y="-7.5" font-family="Helvetica,sans-Serif" font-size="10.00">memory</text>
</a>
</g>
</g>
<!-- Node8&#45;&gt;Node14 -->
<g id="edge13" class="edge">
<title>Node8&#45;&gt;Node14</title>
<path fill="none" stroke="midnightblue" d="M201.9,-56.32C192.04,-48.26 177.15,-36.08 165.28,-26.37"/>
<polygon fill="midnightblue" stroke="midnightblue" points="167.25,-23.46 157.3,-19.83 162.82,-28.88 167.25,-23.46"/>
</g>
<!-- Node15 -->
<g id="node15" class="node">
<title>Node15</title>
<g id="a_node15"><a xlink:title=" ">
<polygon fill="white" stroke="#bfbfbf" points="426.5,-0.5 426.5,-19.5 480.5,-19.5 480.5,-0.5 426.5,-0.5"/>
<text text-anchor="middle" x="453.5" y="-7.5" font-family="Helvetica,sans-Serif" font-size="10.00">iostream</text>
</a>
</g>
</g>
<!-- Node8&#45;&gt;Node15 -->
<g id="edge14" class="edge">
<title>Node8&#45;&gt;Node15</title>
<path fill="none" stroke="midnightblue" d="M246.12,-57.82C286.6,-49.11 356.61,-33.89 416.5,-20 416.6,-19.98 416.7,-19.95 416.8,-19.93"/>
<polygon fill="midnightblue" stroke="midnightblue" points="417.51,-23.36 426.44,-17.65 415.9,-16.55 417.51,-23.36"/>
</g>
<!-- Node16&#45;&gt;Node7 -->
<g id="edge17" class="edge">
<title>Node16&#45;&gt;Node7</title>
<path fill="none" stroke="midnightblue" d="M134.15,-131.65C146.71,-139.76 163.43,-152.04 175.35,-161.78"/>
<polygon fill="midnightblue" stroke="midnightblue" points="173.16,-164.51 183.05,-168.32 177.7,-159.18 173.16,-164.51"/>
</g>
<!-- Node16&#45;&gt;Node8 -->
<g id="edge16" class="edge">
<title>Node16&#45;&gt;Node8</title>
<path fill="none" stroke="midnightblue" d="M132.76,-112.32C147.72,-103.82 170.75,-90.73 188.23,-80.8"/>
<polygon fill="midnightblue" stroke="midnightblue" points="190.31,-83.64 197.27,-75.65 186.85,-77.55 190.31,-83.64"/>
</g>
<!-- Node17&#45;&gt;Node8 -->
<g id="edge19" class="edge">
<title>Node17&#45;&gt;Node8</title>
<path fill="none" stroke="midnightblue" d="M303.37,-168.45C294.85,-159.45 281.11,-144.84 269.5,-132 254.8,-115.75 238.32,-96.89 226.88,-83.68"/>
<polygon fill="midnightblue" stroke="midnightblue" points="229.35,-81.18 220.16,-75.91 224.05,-85.76 229.35,-81.18"/>
</g>
<!-- Node18 -->
<g id="node18" class="node">
<title>Node18</title>
<g id="a_node18"><a xlink:href="_child_pool_8h.html" target="_top" xlink:title=" ">
<polygon fill="white" stroke="black" points="278.5,-112.5 278.5,-131.5 344.5,-131.5 344.5,-112.5 278.5,-112.5"/>
<text text-anchor="middle" x="311.5" y="-119.5" font-family="Helvetica,sans-Serif" font-size="10.00">ChildPool.h</text>
</a>
</g>
</g>
<!-- Node17&#45;&gt;Node18 -->
<g id="edge20" class="edge">
<title>Node17&#45;&gt;Node18</title>
<path fill="none" stroke="midnightblue" d="M306.33,-168.08C304.82,-160.93 304.39,-150.64 305.04,-141.69"/>
<polygon fill="midnightblue" stroke="midnightblue" points="308.52,-142.13 306.37,-131.75 301.58,-141.2 308.52,-142.13"/>
</g>
<!-- Node18&#45;&gt;Node8 -->
<g id="edge21" class="edge">
<title>Node18&#45;&gt;Node8</title>
<path fill="none" stroke="midnightblue" d="M295.59,-112.32C279.86,-103.74 255.56,-90.49 237.29,-80.52"/>
<polygon fill="midnightblue" stroke="midnightblue" points="238.82,-77.37 228.37,-75.65 235.47,-83.52 238.82,-77.37"/>
</g>
<!-- Node18&#45;&gt;Node17 -->
<g id="edge22" class="edge">
<title>Node18&#45;&gt;Node17</title>
<path fill="none" stroke="midnightblue" d="M316.63,-131.75C318.16,-138.86 318.6,-149.14 317.97,-158.1"/>
<polygon fill="midnightblue" stroke="midnightblue" points="314.49,-157.71 316.67,-168.08 321.43,-158.62 314.49,-157.71"/>
</g>
<!-- Node19&#45;&gt;Node7 -->
<g id="edge24" class="edge">
<title>Node19&#45;&gt;Node7</title>
<path fill="none" stroke="midnightblue" d="M241.76,-229.98C232.34,-220.78 217.14,-205.96 205.55,-194.66"/>
<polygon fill="midnightblue" stroke="midnightblue" points="207.83,-191.99 198.22,-187.51 202.94,-197 207.83,-191.99"/>
</g>
<!-- Node21 -->
<g id="node21" class="node">
<title>Node21</title>
<g id="a_node21"><a xlink:title=" ">
<polygon fill="white" stroke="#bfbfbf" points="647,-168.5 647,-187.5 688,-187.5 688,-168.5 647,-168.5"/>
<text text-anchor="middle" x="667.5" y="-175.5" font-family="Helvetica,sans-Serif" font-size="10.00">string</text>
</a>
</g>
</g>
<!-- Node20&#45;&gt;Node21 -->
<g id="edge26" class="edge">
<title>Node20&#45;&gt;Node21</title>
<path fill="none" stroke="midnightblue" d="M807.19,-296.81C782.04,-275.59 717.26,-220.96 685.54,-194.22"/>
<polygon fill="midnightblue" stroke="midnightblue" points="687.78,-191.53 677.88,-187.76 683.27,-196.88 687.78,-191.53"/>
</g>
<!-- Node22 -->
<g id="node22" class="node">
<title>Node22</title>
<g id="a_node22"><a xlink:title=" ">
<polygon fill="white" stroke="#bfbfbf" points="625,-230 625,-249 708,-249 708,-230 625,-230"/>
<text text-anchor="middle" x="666.5" y="-237" font-family="Helvetica,sans-Serif" font-size="10.00">unordered_map</text>
</a>
</g>
</g>
<!-- Node20&#45;&gt;Node22 -->
<g id="edge27" class="edge">
<title>Node20&#45;&gt;Node22</title>
<path fill="none" stroke="midnightblue" d="M797.45,-296.87C771.5,-285.7 726.08,-266.15 696.14,-253.26"/>
<polygon fill="midnightblue" stroke="midnightblue" points="697.2,-249.91 686.63,-249.17 694.44,-256.34 697.2,-249.91"/>
</g>
<!-- Node23 -->
<g id="node23" class="node">
<title>Node23</title>
<g id="a_node23"><a xlink:title=" ">
<polygon fill="white" stroke="#bfbfbf" points="706.5,-168.5 706.5,-187.5 770.5,-187.5 770.5,-168.5 706.5,-168.5"/>
<text text-anchor="middle" x="738.5" y="-175.5" font-family="Helvetica,sans-Serif" font-size="10.00">glad/glad.h</text>
</a>
</g>
</g>
<!-- Node20&#45;&gt;Node23 -->
<g id="edge28" class="edge">
<title>Node20&#45;&gt;Node23</title>
<path fill="none" stroke="midnightblue" d="M812.07,-296.81C799.16,-276.13 766.44,-223.73 749.31,-196.32"/>
<polygon fill="midnightblue" stroke="midnightblue" points="752.23,-194.38 743.97,-187.76 746.3,-198.09 752.23,-194.38"/>
</g>
<!-- Node24 -->
<g id="node24" class="node">
<title>Node24</title>
<g id="a_node24"><a xlink:title=" ">
<polygon fill="white" stroke="#bfbfbf" points="1136.5,-168.5 1136.5,-187.5 1214.5,-187.5 1214.5,-168.5 1136.5,-168.5"/>
<text text-anchor="middle" x="1175.5" y="-175.5" font-family="Helvetica,sans-Serif" font-size="10.00">GLFW/glfw3.h</text>
</a>
</g>
</g>
<!-- Node20&#45;&gt;Node24 -->
<g id="edge29" class="edge">
<title>Node20&#45;&gt;Node24</title>
<path fill="none" stroke="midnightblue" d="M848.02,-296.95C856.83,-294.73 866.5,-292.54 875.5,-291 917.96,-283.76 1232.49,-286.84 1261.5,-255 1270.78,-244.82 1268.64,-235.79 1261.5,-224 1252.09,-208.46 1235.35,-198.02 1219.12,-191.15"/>
<polygon fill="midnightblue" stroke="midnightblue" points="1220.27,-187.85 1209.68,-187.51 1217.75,-194.37 1220.27,-187.85"/>
</g>
<!-- Node25 -->
<g id="node25" class="node">
<title>Node25</title>
<g id="a_node25"><a xlink:title=" ">
<polygon fill="white" stroke="#bfbfbf" points="934.5,-230 934.5,-249 1020.5,-249 1020.5,-230 934.5,-230"/>
<text text-anchor="middle" x="977.5" y="-237" font-family="Helvetica,sans-Serif" font-size="10.00">glm/mat4x4.hpp</text>
</a>
</g>
</g>
<!-- Node20&#45;&gt;Node25 -->
<g id="edge30" class="edge">
<title>Node20&#45;&gt;Node25</title>
<path fill="none" stroke="midnightblue" d="M838.75,-296.87C866.44,-285.62 915.06,-265.87 946.77,-252.99"/>
<polygon fill="midnightblue" stroke="midnightblue" points="948.47,-256.07 956.42,-249.06 945.84,-249.58 948.47,-256.07"/>
</g>
<!-- Node26 -->
<g id="node26" class="node">
<title>Node26</title>
<g id="a_node26"><a xlink:title=" ">
<polygon fill="white" stroke="#bfbfbf" points="1038.5,-230 1038.5,-249 1144.5,-249 1144.5,-230 1038.5,-230"/>
<text text-anchor="middle" x="1091.5" y="-237" font-family="Helvetica,sans-Serif" font-size="10.00">glm/gtc/type_ptr.hpp</text>
</a>
</g>
</g>
<!-- Node20&#45;&gt;Node26 -->
<g id="edge31" class="edge">
<title>Node20&#45;&gt;Node26</title>
<path fill="none" stroke="midnightblue" d="M851.21,-296.98C859.17,-294.99 867.63,-292.9 875.5,-291 876.02,-290.87 981.89,-266.12 1045.2,-251.32"/>
<polygon fill="midnightblue" stroke="midnightblue" points="1046.03,-254.72 1054.97,-249.04 1044.44,-247.91 1046.03,-254.72"/>
</g>
<!-- Node27 -->
<g id="node27" class="node">
<title>Node27</title>
<g id="a_node27"><a xlink:title=" ">
<polygon fill="white" stroke="#bfbfbf" points="1162.5,-230 1162.5,-249 1252.5,-249 1252.5,-230 1162.5,-230"/>
<text text-anchor="middle" x="1207.5" y="-237" font-family="Helvetica,sans-Serif" font-size="10.00">boost/variant.hpp</text>
</a>
</g>
</g>
<!-- Node20&#45;&gt;Node27 -->
<g id="edge32" class="edge">
<title>Node20&#45;&gt;Node27</title>
<path fill="none" stroke="midnightblue" d="M848.96,-296.93C857.52,-294.79 866.83,-292.64 875.5,-291 997.92,-267.85 1031.29,-279.21 1153.5,-255 1158.49,-254.01 1163.7,-252.82 1168.83,-251.55"/>
<polygon fill="midnightblue" stroke="midnightblue" points="1169.72,-254.94 1178.52,-249.04 1167.96,-248.16 1169.72,-254.94"/>
</g>
<!-- Node28 -->
<g id="node28" class="node">
<title>Node28</title>
<g id="a_node28"><a xlink:href="_texture_8h.html" target="_top" xlink:title=" ">
<polygon fill="white" stroke="black" points="803,-224.5 803,-254.5 916,-254.5 916,-224.5 803,-224.5"/>
<text text-anchor="start" x="811" y="-242.5" font-family="Helvetica,sans-Serif" font-size="10.00">kryne&#45;engine/Textures</text>
<text text-anchor="middle" x="859.5" y="-231.5" font-family="Helvetica,sans-Serif" font-size="10.00">/Texture.h</text>
</a>
</g>
</g>
<!-- Node20&#45;&gt;Node28 -->
<g id="edge33" class="edge">
<title>Node20&#45;&gt;Node28</title>
<path fill="none" stroke="midnightblue" d="M823.16,-296.73C828.73,-288.12 837.46,-274.61 844.97,-262.99"/>
<polygon fill="midnightblue" stroke="midnightblue" points="847.91,-264.89 850.4,-254.59 842.03,-261.09 847.91,-264.89"/>
</g>
<!-- Node28&#45;&gt;Node2 -->
<g id="edge39" class="edge">
<title>Node28&#45;&gt;Node2</title>
<path fill="none" stroke="midnightblue" d="M916.31,-225.66C919.42,-225.07 922.49,-224.51 925.5,-224 1057.02,-201.66 1091.28,-205.74 1223.5,-188 1227.98,-187.4 1232.64,-186.75 1237.3,-186.09"/>
<polygon fill="midnightblue" stroke="midnightblue" points="1238.03,-189.52 1247.43,-184.63 1237.03,-182.59 1238.03,-189.52"/>
</g>
<!-- Node28&#45;&gt;Node15 -->
<g id="edge36" class="edge">
<title>Node28&#45;&gt;Node15</title>
<path fill="none" stroke="midnightblue" d="M848.02,-224.46C823.71,-195.03 767.27,-128.24 742.5,-112 661.11,-58.64 548.3,-29.94 490.66,-17.93"/>
<polygon fill="midnightblue" stroke="midnightblue" points="491.05,-14.43 480.55,-15.87 489.66,-21.29 491.05,-14.43"/>
</g>
<!-- Node28&#45;&gt;Node21 -->
<g id="edge35" class="edge">
<title>Node28&#45;&gt;Node21</title>
<path fill="none" stroke="midnightblue" d="M814,-224.4C778.13,-213.28 729.12,-198.1 697.88,-188.41"/>
<polygon fill="midnightblue" stroke="midnightblue" points="698.6,-184.97 688.01,-185.36 696.53,-191.66 698.6,-184.97"/>
</g>
<!-- Node28&#45;&gt;Node23 -->
<g id="edge40" class="edge">
<title>Node28&#45;&gt;Node23</title>
<path fill="none" stroke="midnightblue" d="M830.82,-224.4C810.98,-214.64 784.74,-201.74 765.31,-192.18"/>
<polygon fill="midnightblue" stroke="midnightblue" points="766.62,-188.93 756.11,-187.66 763.54,-195.21 766.62,-188.93"/>
</g>
<!-- Node28&#45;&gt;Node24 -->
<g id="edge41" class="edge">
<title>Node28&#45;&gt;Node24</title>
<path fill="none" stroke="midnightblue" d="M916.35,-225.87C919.44,-225.22 922.51,-224.6 925.5,-224 963.09,-216.49 1064.89,-198.43 1126.38,-187.61"/>
<polygon fill="midnightblue" stroke="midnightblue" points="1127.01,-191.06 1136.25,-185.88 1125.8,-184.16 1127.01,-191.06"/>
</g>
<!-- Node29 -->
<g id="node29" class="node">
<title>Node29</title>
<g id="a_node29"><a xlink:title=" ">
<polygon fill="white" stroke="#bfbfbf" points="918.5,-168.5 918.5,-187.5 988.5,-187.5 988.5,-168.5 918.5,-168.5"/>
<text text-anchor="middle" x="953.5" y="-175.5" font-family="Helvetica,sans-Serif" font-size="10.00">stb_image.h</text>
</a>
</g>
</g>
<!-- Node28&#45;&gt;Node29 -->
<g id="edge34" class="edge">
<title>Node28&#45;&gt;Node29</title>
<path fill="none" stroke="midnightblue" d="M881.78,-224.4C896.7,-214.95 916.28,-202.56 931.21,-193.11"/>
<polygon fill="midnightblue" stroke="midnightblue" points="933.24,-195.96 939.82,-187.66 929.5,-190.05 933.24,-195.96"/>
</g>
<!-- Node30 -->
<g id="node30" class="node">
<title>Node30</title>
<g id="a_node30"><a xlink:title=" ">
<polygon fill="white" stroke="#bfbfbf" points="1007,-168.5 1007,-187.5 1114,-187.5 1114,-168.5 1007,-168.5"/>
<text text-anchor="middle" x="1060.5" y="-175.5" font-family="Helvetica,sans-Serif" font-size="10.00">boost/filesystem.hpp</text>
</a>
</g>
</g>
<!-- Node28&#45;&gt;Node30 -->
<g id="edge37" class="edge">
<title>Node28&#45;&gt;Node30</title>
<path fill="none" stroke="midnightblue" d="M906.88,-224.47C942.01,-214.08 989.29,-200.08 1022.08,-190.37"/>
<polygon fill="midnightblue" stroke="midnightblue" points="1023.17,-193.7 1031.76,-187.51 1021.18,-186.99 1023.17,-193.7"/>
</g>
<!-- Node31 -->
<g id="node31" class="node">
<title>Node31</title>
<g id="a_node31"><a xlink:title=" ">
<polygon fill="white" stroke="#bfbfbf" points="826.5,-168.5 826.5,-187.5 900.5,-187.5 900.5,-168.5 826.5,-168.5"/>
<text text-anchor="middle" x="863.5" y="-175.5" font-family="Helvetica,sans-Serif" font-size="10.00">glm/vec2.hpp</text>
</a>
</g>
</g>
<!-- Node28&#45;&gt;Node31 -->
<g id="edge38" class="edge">
<title>Node28&#45;&gt;Node31</title>
<path fill="none" stroke="midnightblue" d="M860.45,-224.4C860.98,-216.47 861.65,-206.46 862.23,-197.86"/>
<polygon fill="midnightblue" stroke="midnightblue" points="865.74,-197.87 862.92,-187.66 858.76,-197.4 865.74,-197.87"/>
</g>
<!-- Node32&#45;&gt;Node15 -->
<g id="edge46" class="edge">
<title>Node32&#45;&gt;Node15</title>
<path fill="none" stroke="midnightblue" d="M567.16,-296.94C560.08,-294.94 552.53,-292.85 545.5,-291 479.61,-273.68 444.86,-302.98 396.5,-255 371.78,-230.48 377.5,-213.82 377.5,-179 377.5,-179 377.5,-179 377.5,-121 377.5,-89.72 386.56,-81.63 404.5,-56 412.39,-44.73 423.55,-34.21 433.22,-26.17"/>
<polygon fill="midnightblue" stroke="midnightblue" points="435.58,-28.77 441.22,-19.8 431.22,-23.29 435.58,-28.77"/>
</g>
<!-- Node32&#45;&gt;Node21 -->
<g id="edge44" class="edge">
<title>Node32&#45;&gt;Node21</title>
<path fill="none" stroke="midnightblue" d="M596.78,-297C597.64,-281.43 601.16,-247.75 615.5,-224 622.83,-211.86 634.55,-201.3 645.01,-193.47"/>
<polygon fill="midnightblue" stroke="midnightblue" points="647.23,-196.19 653.37,-187.55 643.19,-190.47 647.23,-196.19"/>
</g>
<!-- Node32&#45;&gt;Node22 -->
<g id="edge43" class="edge">
<title>Node32&#45;&gt;Node22</title>
<path fill="none" stroke="midnightblue" d="M605.94,-296.73C617.17,-286.31 636.12,-268.71 649.84,-255.97"/>
<polygon fill="midnightblue" stroke="midnightblue" points="652.26,-258.5 657.21,-249.13 647.5,-253.37 652.26,-258.5"/>
</g>
<!-- Node33 -->
<g id="node33" class="node">
<title>Node33</title>
<g id="a_node33"><a xlink:title=" ">
<polygon fill="white" stroke="#bfbfbf" points="519,-230 519,-249 568,-249 568,-230 519,-230"/>
<text text-anchor="middle" x="543.5" y="-237" font-family="Helvetica,sans-Serif" font-size="10.00">fstream</text>
</a>
</g>
</g>
<!-- Node32&#45;&gt;Node33 -->
<g id="edge45" class="edge">
<title>Node32&#45;&gt;Node33</title>
<path fill="none" stroke="midnightblue" d="M589.35,-296.73C581.09,-286.6 567.3,-269.69 557,-257.06"/>
<polygon fill="midnightblue" stroke="midnightblue" points="559.57,-254.67 550.53,-249.13 554.14,-259.09 559.57,-254.67"/>
</g>
<!-- Node34 -->
<g id="node34" class="node">
<title>Node34</title>
<g id="a_node34"><a xlink:href="kryne-engine_2_utils_2_utils_8h.html" target="_top" xlink:title=" ">
<polygon fill="white" stroke="black" points="406,-224.5 406,-254.5 501,-254.5 501,-224.5 406,-224.5"/>
<text text-anchor="start" x="414" y="-242.5" font-family="Helvetica,sans-Serif" font-size="10.00">kryne&#45;engine/Utils</text>
<text text-anchor="middle" x="453.5" y="-231.5" font-family="Helvetica,sans-Serif" font-size="10.00">/Utils.h</text>
</a>
</g>
</g>
<!-- Node32&#45;&gt;Node34 -->
<g id="edge47" class="edge">
<title>Node32&#45;&gt;Node34</title>
<path fill="none" stroke="midnightblue" d="M577.51,-296.87C556.24,-287.2 521.15,-271.25 493.71,-258.78"/>
<polygon fill="midnightblue" stroke="midnightblue" points="494.91,-255.48 484.36,-254.53 492.02,-261.85 494.91,-255.48"/>
</g>
<!-- Node35 -->
<g id="node35" class="node">
<title>Node35</title>
<g id="a_node35"><a xlink:href="_string_utils_8hpp.html" target="_top" xlink:title=" ">
<polygon fill="white" stroke="black" points="413.5,-56.5 413.5,-75.5 493.5,-75.5 493.5,-56.5 413.5,-56.5"/>
<text text-anchor="middle" x="453.5" y="-63.5" font-family="Helvetica,sans-Serif" font-size="10.00">StringUtils.hpp</text>
</a>
</g>
</g>
<!-- Node34&#45;&gt;Node35 -->
<g id="edge48" class="edge">
<title>Node34&#45;&gt;Node35</title>
<path fill="none" stroke="midnightblue" d="M453.5,-224.47C453.5,-193.7 453.5,-120.33 453.5,-85.7"/>
<polygon fill="midnightblue" stroke="midnightblue" points="457,-85.56 453.5,-75.56 450,-85.56 457,-85.56"/>
</g>
<!-- Node36 -->
<g id="node36" class="node">
<title>Node36</title>
<g id="a_node36"><a xlink:href="_vector_mapping_8hpp.html" target="_top" xlink:title=" ">
<polygon fill="white" stroke="black" points="510,-168.5 510,-187.5 611,-187.5 611,-168.5 510,-168.5"/>
<text text-anchor="middle" x="560.5" y="-175.5" font-family="Helvetica,sans-Serif" font-size="10.00">VectorMapping.hpp</text>
</a>
</g>
</g>
<!-- Node34&#45;&gt;Node36 -->
<g id="edge50" class="edge">
<title>Node34&#45;&gt;Node36</title>
<path fill="none" stroke="midnightblue" d="M478.86,-224.4C496.17,-214.77 518.98,-202.09 536.08,-192.58"/>
<polygon fill="midnightblue" stroke="midnightblue" points="537.89,-195.58 544.93,-187.66 534.49,-189.46 537.89,-195.58"/>
</g>
<!-- Node35&#45;&gt;Node15 -->
<g id="edge49" class="edge">
<title>Node35&#45;&gt;Node15</title>
<path fill="none" stroke="midnightblue" d="M453.5,-56.08C453.5,-49.01 453.5,-38.86 453.5,-29.99"/>
<polygon fill="midnightblue" stroke="midnightblue" points="457,-29.75 453.5,-19.75 450,-29.75 457,-29.75"/>
</g>
<!-- Node36&#45;&gt;Node37 -->
<g id="edge51" class="edge">
<title>Node36&#45;&gt;Node37</title>
<path fill="none" stroke="midnightblue" d="M584.58,-168.44C610.94,-159.08 653.26,-144.05 681.94,-133.86"/>
<polygon fill="midnightblue" stroke="midnightblue" points="683.21,-137.12 691.46,-130.47 680.87,-130.52 683.21,-137.12"/>
</g>
<!-- Node38 -->
<g id="node38" class="node">
<title>Node38</title>
<g id="a_node38"><a xlink:title=" ">
<polygon fill="white" stroke="#bfbfbf" points="504,-112.5 504,-131.5 617,-131.5 617,-112.5 504,-112.5"/>
<text text-anchor="middle" x="560.5" y="-119.5" font-family="Helvetica,sans-Serif" font-size="10.00">glm/detail/qualifier.hpp</text>
</a>
</g>
</g>
<!-- Node36&#45;&gt;Node38 -->
<g id="edge52" class="edge">
<title>Node36&#45;&gt;Node38</title>
<path fill="none" stroke="midnightblue" d="M560.5,-168.08C560.5,-161.01 560.5,-150.86 560.5,-141.99"/>
<polygon fill="midnightblue" stroke="midnightblue" points="564,-141.75 560.5,-131.75 557,-141.75 564,-141.75"/>
</g>
</g>
</svg>
