<?xml version="1.0" encoding="UTF-8" standalone="no"?>
<!DOCTYPE svg PUBLIC "-//W3C//DTD SVG 1.1//EN"
 "http://www.w3.org/Graphics/SVG/1.1/DTD/svg11.dtd">
<!-- Generated by graphviz version 2.44.1 (20200629.0846)
 -->
<!-- Title: kryne&#45;engine/include/kryne&#45;engine/Light/PointLight.h Pages: 1 -->
<svg width="1238pt" height="576pt"
 viewBox="0.00 0.00 1238.00 576.00" xmlns="http://www.w3.org/2000/svg" xmlns:xlink="http://www.w3.org/1999/xlink">
<g id="graph0" class="graph" transform="scale(1 1) rotate(0) translate(4 572)">
<title>kryne&#45;engine/include/kryne&#45;engine/Light/PointLight.h</title>
<polygon fill="white" stroke="transparent" points="-4,4 -4,-572 1234,-572 1234,4 -4,4"/>
<!-- Node1 -->
<g id="node1" class="node">
<title>Node1</title>
<g id="a_node1"><a xlink:title=" ">
<polygon fill="#bfbfbf" stroke="black" points="880,-537.5 880,-567.5 1034,-567.5 1034,-537.5 880,-537.5"/>
<text text-anchor="start" x="888" y="-555.5" font-family="Helvetica,sans-Serif" font-size="10.00">kryne&#45;engine/include</text>
<text text-anchor="middle" x="957" y="-544.5" font-family="Helvetica,sans-Serif" font-size="10.00">/kryne&#45;engine/Light/PointLight.h</text>
</a>
</g>
</g>
<!-- Node2 -->
<g id="node2" class="node">
<title>Node2</title>
<g id="a_node2"><a xlink:title=" ">
<polygon fill="white" stroke="#bfbfbf" points="0,-286 0,-305 74,-305 74,-286 0,-286"/>
<text text-anchor="middle" x="37" y="-293" font-family="Helvetica,sans-Serif" font-size="10.00">glm/vec3.hpp</text>
</a>
</g>
</g>
<!-- Node1&#45;&gt;Node2 -->
<g id="edge1" class="edge">
<title>Node1&#45;&gt;Node2</title>
<path fill="none" stroke="midnightblue" d="M879.91,-551.71C740.47,-549.47 439.54,-532.46 210,-434 142.32,-404.97 78.87,-342.17 51.36,-312.56"/>
<polygon fill="midnightblue" stroke="midnightblue" points="53.91,-310.16 44.58,-305.15 48.74,-314.89 53.91,-310.16"/>
</g>
<!-- Node3 -->
<g id="node3" class="node">
<title>Node3</title>
<g id="a_node3"><a xlink:href="_shader_8h.html" target="_top" xlink:title=" ">
<polygon fill="white" stroke="black" points="711,-470.5 711,-500.5 821,-500.5 821,-470.5 711,-470.5"/>
<text text-anchor="start" x="719" y="-488.5" font-family="Helvetica,sans-Serif" font-size="10.00">kryne&#45;engine/Material</text>
<text text-anchor="middle" x="766" y="-477.5" font-family="Helvetica,sans-Serif" font-size="10.00">/Shader.h</text>
</a>
</g>
</g>
<!-- Node1&#45;&gt;Node3 -->
<g id="edge2" class="edge">
<title>Node1&#45;&gt;Node3</title>
<path fill="none" stroke="midnightblue" d="M915.56,-537.4C886.65,-527.56 847.89,-514.37 817.07,-503.88"/>
<polygon fill="midnightblue" stroke="midnightblue" points="817.96,-500.48 807.36,-500.58 815.7,-507.11 817.96,-500.48"/>
</g>
<!-- Node38 -->
<g id="node38" class="node">
<title>Node38</title>
<g id="a_node38"><a xlink:title=" ">
<polygon fill="white" stroke="#bfbfbf" points="1145,-224.5 1145,-243.5 1187,-243.5 1187,-224.5 1145,-224.5"/>
<text text-anchor="middle" x="1166" y="-231.5" font-family="Helvetica,sans-Serif" font-size="10.00">vector</text>
</a>
</g>
</g>
<!-- Node1&#45;&gt;Node38 -->
<g id="edge51" class="edge">
<title>Node1&#45;&gt;Node38</title>
<path fill="none" stroke="midnightblue" d="M1019.15,-537.43C1074.23,-520.84 1146,-487.29 1146,-425 1146,-425 1146,-425 1146,-361.5 1146,-322.55 1155.36,-277.68 1161.28,-253.22"/>
<polygon fill="midnightblue" stroke="midnightblue" points="1164.67,-254.07 1163.71,-243.52 1157.88,-252.37 1164.67,-254.07"/>
</g>
<!-- Node40 -->
<g id="node40" class="node">
<title>Node40</title>
<g id="a_node40"><a xlink:title=" ">
<polygon fill="white" stroke="#bfbfbf" points="1174,-476 1174,-495 1230,-495 1230,-476 1174,-476"/>
<text text-anchor="middle" x="1202" y="-483" font-family="Helvetica,sans-Serif" font-size="10.00">algorithm</text>
</a>
</g>
</g>
<!-- Node1&#45;&gt;Node40 -->
<g id="edge52" class="edge">
<title>Node1&#45;&gt;Node40</title>
<path fill="none" stroke="midnightblue" d="M1019.58,-537.45C1059.91,-528.02 1113.34,-514.83 1160,-501 1162.77,-500.18 1165.64,-499.29 1168.5,-498.36"/>
<polygon fill="midnightblue" stroke="midnightblue" points="1169.75,-501.63 1178.13,-495.15 1167.54,-494.99 1169.75,-501.63"/>
</g>
<!-- Node4 -->
<g id="node4" class="node">
<title>Node4</title>
<g id="a_node4"><a xlink:title=" ">
<polygon fill="white" stroke="#bfbfbf" points="717.5,-414.5 717.5,-433.5 752.5,-433.5 752.5,-414.5 717.5,-414.5"/>
<text text-anchor="middle" x="735" y="-421.5" font-family="Helvetica,sans-Serif" font-size="10.00">map</text>
</a>
</g>
</g>
<!-- Node3&#45;&gt;Node4 -->
<g id="edge3" class="edge">
<title>Node3&#45;&gt;Node4</title>
<path fill="none" stroke="midnightblue" d="M758.65,-470.4C754.33,-462.11 748.83,-451.55 744.23,-442.71"/>
<polygon fill="midnightblue" stroke="midnightblue" points="747.24,-440.91 739.51,-433.66 741.03,-444.14 747.24,-440.91"/>
</g>
<!-- Node5 -->
<g id="node5" class="node">
<title>Node5</title>
<g id="a_node5"><a xlink:title=" ">
<polygon fill="white" stroke="#bfbfbf" points="771,-414.5 771,-433.5 823,-433.5 823,-414.5 771,-414.5"/>
<text text-anchor="middle" x="797" y="-421.5" font-family="Helvetica,sans-Serif" font-size="10.00">sstream</text>
</a>
</g>
</g>
<!-- Node3&#45;&gt;Node5 -->
<g id="edge4" class="edge">
<title>Node3&#45;&gt;Node5</title>
<path fill="none" stroke="midnightblue" d="M773.35,-470.4C777.67,-462.11 783.17,-451.55 787.77,-442.71"/>
<polygon fill="midnightblue" stroke="midnightblue" points="790.97,-444.14 792.49,-433.66 784.76,-440.91 790.97,-444.14"/>
</g>
<!-- Node6 -->
<g id="node6" class="node">
<title>Node6</title>
<g id="a_node6"><a xlink:href="_dispatcher_8h.html" target="_top" xlink:title=" ">
<polygon fill="white" stroke="black" points="92.5,-280.5 92.5,-310.5 205.5,-310.5 205.5,-280.5 92.5,-280.5"/>
<text text-anchor="start" x="100.5" y="-298.5" font-family="Helvetica,sans-Serif" font-size="10.00">kryne&#45;engine/Dispatch</text>
<text text-anchor="middle" x="149" y="-287.5" font-family="Helvetica,sans-Serif" font-size="10.00">/Dispatcher.h</text>
</a>
</g>
</g>
<!-- Node3&#45;&gt;Node6 -->
<g id="edge5" class="edge">
<title>Node3&#45;&gt;Node6</title>
<path fill="none" stroke="midnightblue" d="M710.89,-483.51C573.85,-479.78 223.52,-462.04 151,-378 137.63,-362.5 138.73,-338.51 142.21,-320.56"/>
<polygon fill="midnightblue" stroke="midnightblue" points="145.63,-321.33 144.45,-310.8 138.8,-319.76 145.63,-321.33"/>
</g>
<!-- Node20 -->
<g id="node20" class="node">
<title>Node20</title>
<g id="a_node20"><a xlink:href="_uniforms_handler_8h.html" target="_top" xlink:title=" ">
<polygon fill="white" stroke="black" points="590,-414.5 590,-433.5 686,-433.5 686,-414.5 590,-414.5"/>
<text text-anchor="middle" x="638" y="-421.5" font-family="Helvetica,sans-Serif" font-size="10.00">UniformsHandler.h</text>
</a>
</g>
</g>
<!-- Node3&#45;&gt;Node20 -->
<g id="edge21" class="edge">
<title>Node3&#45;&gt;Node20</title>
<path fill="none" stroke="midnightblue" d="M735.67,-470.4C714.48,-460.55 686.41,-447.5 665.8,-437.92"/>
<polygon fill="midnightblue" stroke="midnightblue" points="667.17,-434.7 656.63,-433.66 664.22,-441.05 667.17,-434.7"/>
</g>
<!-- Node33 -->
<g id="node33" class="node">
<title>Node33</title>
<g id="a_node33"><a xlink:href="_shader_chunk_8h.html" target="_top" xlink:title=" ">
<polygon fill="white" stroke="black" points="854.5,-414.5 854.5,-433.5 937.5,-433.5 937.5,-414.5 854.5,-414.5"/>
<text text-anchor="middle" x="896" y="-421.5" font-family="Helvetica,sans-Serif" font-size="10.00">ShaderChunk.h</text>
</a>
</g>
</g>
<!-- Node3&#45;&gt;Node33 -->
<g id="edge40" class="edge">
<title>Node3&#45;&gt;Node33</title>
<path fill="none" stroke="midnightblue" d="M796.81,-470.4C818.33,-460.55 846.84,-447.5 867.77,-437.92"/>
<polygon fill="midnightblue" stroke="midnightblue" points="869.45,-441 877.08,-433.66 866.53,-434.64 869.45,-441"/>
</g>
<!-- Node7 -->
<g id="node7" class="node">
<title>Node7</title>
<g id="a_node7"><a xlink:href="_synchronizable_pool_8h.html" target="_top" xlink:title=" ">
<polygon fill="white" stroke="black" points="178.5,-168.5 178.5,-187.5 289.5,-187.5 289.5,-168.5 178.5,-168.5"/>
<text text-anchor="middle" x="234" y="-175.5" font-family="Helvetica,sans-Serif" font-size="10.00">SynchronizablePool.h</text>
</a>
</g>
</g>
<!-- Node6&#45;&gt;Node7 -->
<g id="edge6" class="edge">
<title>Node6&#45;&gt;Node7</title>
<path fill="none" stroke="midnightblue" d="M155.91,-280.35C163.38,-265.64 176.11,-242.25 190,-224 198,-213.48 208.27,-202.86 216.87,-194.57"/>
<polygon fill="midnightblue" stroke="midnightblue" points="219.3,-197.09 224.19,-187.69 214.5,-191.99 219.3,-197.09"/>
</g>
<!-- Node18 -->
<g id="node18" class="node">
<title>Node18</title>
<g id="a_node18"><a xlink:href="_runner_pool_8h.html" target="_top" xlink:title=" ">
<polygon fill="white" stroke="black" points="85.5,-168.5 85.5,-187.5 160.5,-187.5 160.5,-168.5 85.5,-168.5"/>
<text text-anchor="middle" x="123" y="-175.5" font-family="Helvetica,sans-Serif" font-size="10.00">RunnerPool.h</text>
</a>
</g>
</g>
<!-- Node6&#45;&gt;Node18 -->
<g id="edge17" class="edge">
<title>Node6&#45;&gt;Node18</title>
<path fill="none" stroke="midnightblue" d="M145.81,-280.34C141.13,-259.53 132.38,-220.66 127.18,-197.58"/>
<polygon fill="midnightblue" stroke="midnightblue" points="130.56,-196.66 124.95,-187.67 123.73,-198.19 130.56,-196.66"/>
</g>
<!-- Node19 -->
<g id="node19" class="node">
<title>Node19</title>
<g id="a_node19"><a xlink:href="_main_pool_8h.html" target="_top" xlink:title=" ">
<polygon fill="white" stroke="black" points="199.5,-224.5 199.5,-243.5 264.5,-243.5 264.5,-224.5 199.5,-224.5"/>
<text text-anchor="middle" x="232" y="-231.5" font-family="Helvetica,sans-Serif" font-size="10.00">MainPool.h</text>
</a>
</g>
</g>
<!-- Node6&#45;&gt;Node19 -->
<g id="edge19" class="edge">
<title>Node6&#45;&gt;Node19</title>
<path fill="none" stroke="midnightblue" d="M168.67,-280.4C181.6,-271.13 198.49,-259.03 211.57,-249.65"/>
<polygon fill="midnightblue" stroke="midnightblue" points="213.83,-252.33 219.92,-243.66 209.76,-246.64 213.83,-252.33"/>
</g>
<!-- Node8 -->
<g id="node8" class="node">
<title>Node8</title>
<g id="a_node8"><a xlink:href="_thread_pool_8h.html" target="_top" xlink:title=" ">
<polygon fill="white" stroke="black" points="197,-112.5 197,-131.5 271,-131.5 271,-112.5 197,-112.5"/>
<text text-anchor="middle" x="234" y="-119.5" font-family="Helvetica,sans-Serif" font-size="10.00">ThreadPool.h</text>
</a>
</g>
</g>
<!-- Node7&#45;&gt;Node8 -->
<g id="edge7" class="edge">
<title>Node7&#45;&gt;Node8</title>
<path fill="none" stroke="midnightblue" d="M234,-168.08C234,-161.01 234,-150.86 234,-141.99"/>
<polygon fill="midnightblue" stroke="midnightblue" points="237.5,-141.75 234,-131.75 230.5,-141.75 237.5,-141.75"/>
</g>
<!-- Node9 -->
<g id="node9" class="node">
<title>Node9</title>
<g id="a_node9"><a xlink:title=" ">
<polygon fill="white" stroke="#bfbfbf" points="249,-56.5 249,-75.5 293,-75.5 293,-56.5 249,-56.5"/>
<text text-anchor="middle" x="271" y="-63.5" font-family="Helvetica,sans-Serif" font-size="10.00">thread</text>
</a>
</g>
</g>
<!-- Node8&#45;&gt;Node9 -->
<g id="edge8" class="edge">
<title>Node8&#45;&gt;Node9</title>
<path fill="none" stroke="midnightblue" d="M240.11,-112.08C245.28,-104.53 252.85,-93.49 259.19,-84.23"/>
<polygon fill="midnightblue" stroke="midnightblue" points="262.24,-85.98 265,-75.75 256.46,-82.02 262.24,-85.98"/>
</g>
<!-- Node10 -->
<g id="node10" class="node">
<title>Node10</title>
<g id="a_node10"><a xlink:title=" ">
<polygon fill="white" stroke="#bfbfbf" points="311,-56.5 311,-75.5 355,-75.5 355,-56.5 311,-56.5"/>
<text text-anchor="middle" x="333" y="-63.5" font-family="Helvetica,sans-Serif" font-size="10.00">mutex</text>
</a>
</g>
</g>
<!-- Node8&#45;&gt;Node10 -->
<g id="edge9" class="edge">
<title>Node8&#45;&gt;Node10</title>
<path fill="none" stroke="midnightblue" d="M249.91,-112.32C265.64,-103.74 289.94,-90.49 308.21,-80.52"/>
<polygon fill="midnightblue" stroke="midnightblue" points="310.03,-83.52 317.13,-75.65 306.68,-77.37 310.03,-83.52"/>
</g>
<!-- Node11 -->
<g id="node11" class="node">
<title>Node11</title>
<g id="a_node11"><a xlink:title=" ">
<polygon fill="white" stroke="#bfbfbf" points="373.5,-56.5 373.5,-75.5 466.5,-75.5 466.5,-56.5 373.5,-56.5"/>
<text text-anchor="middle" x="420" y="-63.5" font-family="Helvetica,sans-Serif" font-size="10.00">condition_variable</text>
</a>
</g>
</g>
<!-- Node8&#45;&gt;Node11 -->
<g id="edge10" class="edge">
<title>Node8&#45;&gt;Node11</title>
<path fill="none" stroke="midnightblue" d="M263.47,-112.44C295.17,-103.24 345.73,-88.56 380.77,-78.39"/>
<polygon fill="midnightblue" stroke="midnightblue" points="382.04,-81.67 390.67,-75.52 380.09,-74.94 382.04,-81.67"/>
</g>
<!-- Node12 -->
<g id="node12" class="node">
<title>Node12</title>
<g id="a_node12"><a xlink:title=" ">
<polygon fill="white" stroke="#bfbfbf" points="33.5,-56.5 33.5,-75.5 74.5,-75.5 74.5,-56.5 33.5,-56.5"/>
<text text-anchor="middle" x="54" y="-63.5" font-family="Helvetica,sans-Serif" font-size="10.00">future</text>
</a>
</g>
</g>
<!-- Node8&#45;&gt;Node12 -->
<g id="edge11" class="edge">
<title>Node8&#45;&gt;Node12</title>
<path fill="none" stroke="midnightblue" d="M205.48,-112.44C172.42,-102.53 118.16,-86.25 84.34,-76.1"/>
<polygon fill="midnightblue" stroke="midnightblue" points="85.13,-72.69 74.55,-73.16 83.12,-79.39 85.13,-72.69"/>
</g>
<!-- Node13 -->
<g id="node13" class="node">
<title>Node13</title>
<g id="a_node13"><a xlink:title=" ">
<polygon fill="white" stroke="#bfbfbf" points="93,-56.5 93,-75.5 145,-75.5 145,-56.5 93,-56.5"/>
<text text-anchor="middle" x="119" y="-63.5" font-family="Helvetica,sans-Serif" font-size="10.00">memory</text>
</a>
</g>
</g>
<!-- Node8&#45;&gt;Node13 -->
<g id="edge12" class="edge">
<title>Node8&#45;&gt;Node13</title>
<path fill="none" stroke="midnightblue" d="M215.78,-112.44C197.1,-103.68 167.84,-89.94 146.38,-79.86"/>
<polygon fill="midnightblue" stroke="midnightblue" points="147.68,-76.6 137.14,-75.52 144.7,-82.93 147.68,-76.6"/>
</g>
<!-- Node14 -->
<g id="node14" class="node">
<title>Node14</title>
<g id="a_node14"><a xlink:title=" ">
<polygon fill="white" stroke="#bfbfbf" points="770,-56.5 770,-75.5 824,-75.5 824,-56.5 770,-56.5"/>
<text text-anchor="middle" x="797" y="-63.5" font-family="Helvetica,sans-Serif" font-size="10.00">iostream</text>
</a>
</g>
</g>
<!-- Node8&#45;&gt;Node14 -->
<g id="edge13" class="edge">
<title>Node8&#45;&gt;Node14</title>
<path fill="none" stroke="midnightblue" d="M271.38,-117.42C373.73,-107.6 657.71,-80.36 759.82,-70.57"/>
<polygon fill="midnightblue" stroke="midnightblue" points="760.34,-74.03 769.96,-69.59 759.68,-67.06 760.34,-74.03"/>
</g>
<!-- Node15 -->
<g id="node15" class="node">
<title>Node15</title>
<g id="a_node15"><a xlink:href="_base_pool_8h.html" target="_top" xlink:title=" ">
<polygon fill="white" stroke="black" points="163.5,-56.5 163.5,-75.5 230.5,-75.5 230.5,-56.5 163.5,-56.5"/>
<text text-anchor="middle" x="197" y="-63.5" font-family="Helvetica,sans-Serif" font-size="10.00">BasePool.h</text>
</a>
</g>
</g>
<!-- Node8&#45;&gt;Node15 -->
<g id="edge14" class="edge">
<title>Node8&#45;&gt;Node15</title>
<path fill="none" stroke="midnightblue" d="M227.89,-112.08C222.72,-104.53 215.15,-93.49 208.81,-84.23"/>
<polygon fill="midnightblue" stroke="midnightblue" points="211.54,-82.02 203,-75.75 205.76,-85.98 211.54,-82.02"/>
</g>
<!-- Node16 -->
<g id="node16" class="node">
<title>Node16</title>
<g id="a_node16"><a xlink:title=" ">
<polygon fill="white" stroke="#bfbfbf" points="141.5,-0.5 141.5,-19.5 184.5,-19.5 184.5,-0.5 141.5,-0.5"/>
<text text-anchor="middle" x="163" y="-7.5" font-family="Helvetica,sans-Serif" font-size="10.00">queue</text>
</a>
</g>
</g>
<!-- Node15&#45;&gt;Node16 -->
<g id="edge15" class="edge">
<title>Node15&#45;&gt;Node16</title>
<path fill="none" stroke="midnightblue" d="M191.39,-56.08C186.63,-48.53 179.68,-37.49 173.85,-28.23"/>
<polygon fill="midnightblue" stroke="midnightblue" points="176.8,-26.35 168.51,-19.75 170.88,-30.08 176.8,-26.35"/>
</g>
<!-- Node17 -->
<g id="node17" class="node">
<title>Node17</title>
<g id="a_node17"><a xlink:title=" ">
<polygon fill="white" stroke="#bfbfbf" points="203,-0.5 203,-19.5 261,-19.5 261,-0.5 203,-0.5"/>
<text text-anchor="middle" x="232" y="-7.5" font-family="Helvetica,sans-Serif" font-size="10.00">functional</text>
</a>
</g>
</g>
<!-- Node15&#45;&gt;Node17 -->
<g id="edge16" class="edge">
<title>Node15&#45;&gt;Node17</title>
<path fill="none" stroke="midnightblue" d="M202.78,-56.08C207.67,-48.53 214.83,-37.49 220.83,-28.23"/>
<polygon fill="midnightblue" stroke="midnightblue" points="223.83,-30.05 226.33,-19.75 217.95,-26.24 223.83,-30.05"/>
</g>
<!-- Node18&#45;&gt;Node8 -->
<g id="edge18" class="edge">
<title>Node18&#45;&gt;Node8</title>
<path fill="none" stroke="midnightblue" d="M140.83,-168.32C158.72,-159.62 186.48,-146.12 207.05,-136.11"/>
<polygon fill="midnightblue" stroke="midnightblue" points="208.75,-139.18 216.21,-131.65 205.69,-132.88 208.75,-139.18"/>
</g>
<!-- Node19&#45;&gt;Node7 -->
<g id="edge20" class="edge">
<title>Node19&#45;&gt;Node7</title>
<path fill="none" stroke="midnightblue" d="M232.33,-224.08C232.59,-217.01 232.97,-206.86 233.3,-197.99"/>
<polygon fill="midnightblue" stroke="midnightblue" points="236.8,-197.87 233.68,-187.75 229.81,-197.61 236.8,-197.87"/>
</g>
<!-- Node21 -->
<g id="node21" class="node">
<title>Node21</title>
<g id="a_node21"><a xlink:title=" ">
<polygon fill="white" stroke="#bfbfbf" points="853.5,-286 853.5,-305 894.5,-305 894.5,-286 853.5,-286"/>
<text text-anchor="middle" x="874" y="-293" font-family="Helvetica,sans-Serif" font-size="10.00">string</text>
</a>
</g>
</g>
<!-- Node20&#45;&gt;Node21 -->
<g id="edge22" class="edge">
<title>Node20&#45;&gt;Node21</title>
<path fill="none" stroke="midnightblue" d="M650.13,-414.27C662.39,-405.37 681.76,-391.05 698,-378 714.46,-364.77 715.61,-357.37 734,-347 778.8,-321.73 796.29,-330.24 844,-311 845.37,-310.45 846.77,-309.86 848.18,-309.25"/>
<polygon fill="midnightblue" stroke="midnightblue" points="849.73,-312.39 857.36,-305.03 846.81,-306.02 849.73,-312.39"/>
</g>
<!-- Node22 -->
<g id="node22" class="node">
<title>Node22</title>
<g id="a_node22"><a xlink:title=" ">
<polygon fill="white" stroke="#bfbfbf" points="742.5,-353 742.5,-372 825.5,-372 825.5,-353 742.5,-353"/>
<text text-anchor="middle" x="784" y="-360" font-family="Helvetica,sans-Serif" font-size="10.00">unordered_map</text>
</a>
</g>
</g>
<!-- Node20&#45;&gt;Node22 -->
<g id="edge23" class="edge">
<title>Node20&#45;&gt;Node22</title>
<path fill="none" stroke="midnightblue" d="M658.92,-414.48C683.75,-404.36 725.34,-387.4 753.69,-375.85"/>
<polygon fill="midnightblue" stroke="midnightblue" points="755.18,-379.02 763.12,-372.01 752.54,-372.54 755.18,-379.02"/>
</g>
<!-- Node23 -->
<g id="node23" class="node">
<title>Node23</title>
<g id="a_node23"><a xlink:title=" ">
<polygon fill="white" stroke="#bfbfbf" points="771,-286 771,-305 835,-305 835,-286 771,-286"/>
<text text-anchor="middle" x="803" y="-293" font-family="Helvetica,sans-Serif" font-size="10.00">glad/glad.h</text>
</a>
</g>
</g>
<!-- Node20&#45;&gt;Node23 -->
<g id="edge24" class="edge">
<title>Node20&#45;&gt;Node23</title>
<path fill="none" stroke="midnightblue" d="M643.19,-414.46C652.78,-399.24 674.66,-367.12 700,-347 720.73,-330.53 747.71,-317.55 768.86,-308.87"/>
<polygon fill="midnightblue" stroke="midnightblue" points="770.41,-312.02 778.41,-305.08 767.83,-305.52 770.41,-312.02"/>
</g>
<!-- Node24 -->
<g id="node24" class="node">
<title>Node24</title>
<g id="a_node24"><a xlink:title=" ">
<polygon fill="white" stroke="#bfbfbf" points="675,-286 675,-305 753,-305 753,-286 675,-286"/>
<text text-anchor="middle" x="714" y="-293" font-family="Helvetica,sans-Serif" font-size="10.00">GLFW/glfw3.h</text>
</a>
</g>
</g>
<!-- Node20&#45;&gt;Node24 -->
<g id="edge25" class="edge">
<title>Node20&#45;&gt;Node24</title>
<path fill="none" stroke="midnightblue" d="M639.29,-414.45C641.8,-399.75 648.34,-369.14 662,-347 670.43,-333.35 683.36,-320.77 694.22,-311.58"/>
<polygon fill="midnightblue" stroke="midnightblue" points="696.45,-314.27 702.01,-305.25 692.04,-308.84 696.45,-314.27"/>
</g>
<!-- Node25 -->
<g id="node25" class="node">
<title>Node25</title>
<g id="a_node25"><a xlink:title=" ">
<polygon fill="white" stroke="#bfbfbf" points="160,-353 160,-372 246,-372 246,-353 160,-353"/>
<text text-anchor="middle" x="203" y="-360" font-family="Helvetica,sans-Serif" font-size="10.00">glm/mat4x4.hpp</text>
</a>
</g>
</g>
<!-- Node20&#45;&gt;Node25 -->
<g id="edge26" class="edge">
<title>Node20&#45;&gt;Node25</title>
<path fill="none" stroke="midnightblue" d="M589.86,-419.75C516.91,-414.29 374.23,-401.48 255,-378 250.25,-377.06 245.3,-375.92 240.42,-374.68"/>
<polygon fill="midnightblue" stroke="midnightblue" points="241.17,-371.26 230.61,-372.05 239.36,-378.02 241.17,-371.26"/>
</g>
<!-- Node26 -->
<g id="node26" class="node">
<title>Node26</title>
<g id="a_node26"><a xlink:title=" ">
<polygon fill="white" stroke="#bfbfbf" points="264,-353 264,-372 370,-372 370,-353 264,-353"/>
<text text-anchor="middle" x="317" y="-360" font-family="Helvetica,sans-Serif" font-size="10.00">glm/gtc/type_ptr.hpp</text>
</a>
</g>
</g>
<!-- Node20&#45;&gt;Node26 -->
<g id="edge27" class="edge">
<title>Node20&#45;&gt;Node26</title>
<path fill="none" stroke="midnightblue" d="M589.63,-415.45C537.49,-407.12 452.12,-392.89 379,-378 373.52,-376.88 367.78,-375.64 362.1,-374.37"/>
<polygon fill="midnightblue" stroke="midnightblue" points="362.54,-370.88 352.01,-372.06 360.97,-377.7 362.54,-370.88"/>
</g>
<!-- Node27 -->
<g id="node27" class="node">
<title>Node27</title>
<g id="a_node27"><a xlink:title=" ">
<polygon fill="white" stroke="#bfbfbf" points="388,-353 388,-372 478,-372 478,-353 388,-353"/>
<text text-anchor="middle" x="433" y="-360" font-family="Helvetica,sans-Serif" font-size="10.00">boost/variant.hpp</text>
</a>
</g>
</g>
<!-- Node20&#45;&gt;Node27 -->
<g id="edge28" class="edge">
<title>Node20&#45;&gt;Node27</title>
<path fill="none" stroke="midnightblue" d="M608.63,-414.48C572.7,-404.05 511.77,-386.36 471.96,-374.81"/>
<polygon fill="midnightblue" stroke="midnightblue" points="472.9,-371.44 462.32,-372.01 470.95,-378.16 472.9,-371.44"/>
</g>
<!-- Node28 -->
<g id="node28" class="node">
<title>Node28</title>
<g id="a_node28"><a xlink:href="_texture_8h.html" target="_top" xlink:title=" ">
<polygon fill="white" stroke="black" points="496.5,-347.5 496.5,-377.5 609.5,-377.5 609.5,-347.5 496.5,-347.5"/>
<text text-anchor="start" x="504.5" y="-365.5" font-family="Helvetica,sans-Serif" font-size="10.00">kryne&#45;engine/Textures</text>
<text text-anchor="middle" x="553" y="-354.5" font-family="Helvetica,sans-Serif" font-size="10.00">/Texture.h</text>
</a>
</g>
</g>
<!-- Node20&#45;&gt;Node28 -->
<g id="edge29" class="edge">
<title>Node20&#45;&gt;Node28</title>
<path fill="none" stroke="midnightblue" d="M625.82,-414.48C614.31,-406.42 596.6,-394.02 581.53,-383.47"/>
<polygon fill="midnightblue" stroke="midnightblue" points="583.23,-380.39 573.03,-377.52 579.22,-386.12 583.23,-380.39"/>
</g>
<!-- Node28&#45;&gt;Node2 -->
<g id="edge36" class="edge">
<title>Node28&#45;&gt;Node2</title>
<path fill="none" stroke="midnightblue" d="M496.2,-348.54C493.1,-347.98 490.01,-347.46 487,-347 308.83,-319.6 259.78,-346.3 83,-311 78.84,-310.17 74.53,-309.1 70.29,-307.92"/>
<polygon fill="midnightblue" stroke="midnightblue" points="71.2,-304.54 60.62,-305.02 69.19,-311.25 71.2,-304.54"/>
</g>
<!-- Node28&#45;&gt;Node6 -->
<g id="edge39" class="edge">
<title>Node28&#45;&gt;Node6</title>
<path fill="none" stroke="midnightblue" d="M496.18,-348.69C493.08,-348.1 490,-347.53 487,-347 369.64,-326.41 336.25,-332.02 215.65,-311.2"/>
<polygon fill="midnightblue" stroke="midnightblue" points="216.12,-307.73 205.66,-309.45 214.91,-314.62 216.12,-307.73"/>
</g>
<!-- Node28&#45;&gt;Node14 -->
<g id="edge32" class="edge">
<title>Node28&#45;&gt;Node14</title>
<path fill="none" stroke="midnightblue" d="M584.1,-347.36C599.46,-338.88 617,-326.68 628,-311 647.99,-282.49 647,-269.82 647,-235 647,-235 647,-235 647,-177 647,-121.01 715.81,-90.4 760.22,-76.48"/>
<polygon fill="midnightblue" stroke="midnightblue" points="761.26,-79.82 769.84,-73.6 759.25,-73.12 761.26,-79.82"/>
</g>
<!-- Node28&#45;&gt;Node21 -->
<g id="edge31" class="edge">
<title>Node28&#45;&gt;Node21</title>
<path fill="none" stroke="midnightblue" d="M609.63,-356.39C669.1,-349.93 764.8,-336.46 844,-311 845.67,-310.46 847.36,-309.85 849.04,-309.19"/>
<polygon fill="midnightblue" stroke="midnightblue" points="850.73,-312.27 858.46,-305.02 847.9,-305.87 850.73,-312.27"/>
</g>
<!-- Node28&#45;&gt;Node23 -->
<g id="edge37" class="edge">
<title>Node28&#45;&gt;Node23</title>
<path fill="none" stroke="midnightblue" d="M609.75,-349.45C652.02,-340.07 711,-326.13 762,-311 764.78,-310.17 767.65,-309.27 770.52,-308.33"/>
<polygon fill="midnightblue" stroke="midnightblue" points="771.81,-311.59 780.15,-305.05 769.56,-304.96 771.81,-311.59"/>
</g>
<!-- Node28&#45;&gt;Node24 -->
<g id="edge38" class="edge">
<title>Node28&#45;&gt;Node24</title>
<path fill="none" stroke="midnightblue" d="M587.93,-347.4C616.43,-335.89 656.29,-319.8 683.52,-308.81"/>
<polygon fill="midnightblue" stroke="midnightblue" points="684.97,-312 692.93,-305.01 682.35,-305.51 684.97,-312"/>
</g>
<!-- Node29 -->
<g id="node29" class="node">
<title>Node29</title>
<g id="a_node29"><a xlink:title=" ">
<polygon fill="white" stroke="#bfbfbf" points="423,-286 423,-305 493,-305 493,-286 423,-286"/>
<text text-anchor="middle" x="458" y="-293" font-family="Helvetica,sans-Serif" font-size="10.00">stb_image.h</text>
</a>
</g>
</g>
<!-- Node28&#45;&gt;Node29 -->
<g id="edge30" class="edge">
<title>Node28&#45;&gt;Node29</title>
<path fill="none" stroke="midnightblue" d="M532.39,-347.4C516.6,-336.6 494.91,-321.76 479.03,-310.89"/>
<polygon fill="midnightblue" stroke="midnightblue" points="480.66,-307.77 470.43,-305.01 476.71,-313.54 480.66,-307.77"/>
</g>
<!-- Node30 -->
<g id="node30" class="node">
<title>Node30</title>
<g id="a_node30"><a xlink:title=" ">
<polygon fill="white" stroke="#bfbfbf" points="511.5,-286 511.5,-305 618.5,-305 618.5,-286 511.5,-286"/>
<text text-anchor="middle" x="565" y="-293" font-family="Helvetica,sans-Serif" font-size="10.00">boost/filesystem.hpp</text>
</a>
</g>
</g>
<!-- Node28&#45;&gt;Node30 -->
<g id="edge33" class="edge">
<title>Node28&#45;&gt;Node30</title>
<path fill="none" stroke="midnightblue" d="M555.6,-347.4C557.35,-337.96 559.66,-325.45 561.55,-315.19"/>
<polygon fill="midnightblue" stroke="midnightblue" points="565.02,-315.66 563.39,-305.19 558.14,-314.39 565.02,-315.66"/>
</g>
<!-- Node31 -->
<g id="node31" class="node">
<title>Node31</title>
<g id="a_node31"><a xlink:title=" ">
<polygon fill="white" stroke="#bfbfbf" points="223.5,-286 223.5,-305 312.5,-305 312.5,-286 223.5,-286"/>
<text text-anchor="middle" x="268" y="-293" font-family="Helvetica,sans-Serif" font-size="10.00">boost/format.hpp</text>
</a>
</g>
</g>
<!-- Node28&#45;&gt;Node31 -->
<g id="edge34" class="edge">
<title>Node28&#45;&gt;Node31</title>
<path fill="none" stroke="midnightblue" d="M496.48,-349.08C493.27,-348.37 490.09,-347.68 487,-347 413.68,-330.95 394.93,-328.74 322,-311 317.64,-309.94 313.09,-308.79 308.56,-307.61"/>
<polygon fill="midnightblue" stroke="midnightblue" points="309.34,-304.2 298.78,-305.03 307.55,-310.97 309.34,-304.2"/>
</g>
<!-- Node32 -->
<g id="node32" class="node">
<title>Node32</title>
<g id="a_node32"><a xlink:title=" ">
<polygon fill="white" stroke="#bfbfbf" points="331,-286 331,-305 405,-305 405,-286 331,-286"/>
<text text-anchor="middle" x="368" y="-293" font-family="Helvetica,sans-Serif" font-size="10.00">glm/vec2.hpp</text>
</a>
</g>
</g>
<!-- Node28&#45;&gt;Node32 -->
<g id="edge35" class="edge">
<title>Node28&#45;&gt;Node32</title>
<path fill="none" stroke="midnightblue" d="M512.86,-347.4C479.68,-335.74 433.1,-319.37 401.8,-308.38"/>
<polygon fill="midnightblue" stroke="midnightblue" points="402.81,-305.02 392.21,-305.01 400.49,-311.62 402.81,-305.02"/>
</g>
<!-- Node33&#45;&gt;Node14 -->
<g id="edge44" class="edge">
<title>Node33&#45;&gt;Node14</title>
<path fill="none" stroke="midnightblue" d="M900.8,-414.28C905.53,-405.39 912.64,-391.09 917,-378 937.53,-316.39 947,-299.94 947,-235 947,-235 947,-235 947,-177 947,-121.01 878.19,-90.4 833.78,-76.48"/>
<polygon fill="midnightblue" stroke="midnightblue" points="834.75,-73.12 824.16,-73.6 832.74,-79.82 834.75,-73.12"/>
</g>
<!-- Node33&#45;&gt;Node21 -->
<g id="edge42" class="edge">
<title>Node33&#45;&gt;Node21</title>
<path fill="none" stroke="midnightblue" d="M898.48,-414.41C902.2,-400.15 908.17,-370.83 902,-347 898.91,-335.06 892.33,-322.94 886.32,-313.56"/>
<polygon fill="midnightblue" stroke="midnightblue" points="889.16,-311.52 880.65,-305.21 883.37,-315.45 889.16,-311.52"/>
</g>
<!-- Node33&#45;&gt;Node22 -->
<g id="edge41" class="edge">
<title>Node33&#45;&gt;Node22</title>
<path fill="none" stroke="midnightblue" d="M879.95,-414.48C861.41,-404.62 830.66,-388.29 808.98,-376.77"/>
<polygon fill="midnightblue" stroke="midnightblue" points="810.49,-373.61 800.02,-372.01 807.21,-379.79 810.49,-373.61"/>
</g>
<!-- Node34 -->
<g id="node34" class="node">
<title>Node34</title>
<g id="a_node34"><a xlink:title=" ">
<polygon fill="white" stroke="#bfbfbf" points="843.5,-353 843.5,-372 892.5,-372 892.5,-353 843.5,-353"/>
<text text-anchor="middle" x="868" y="-360" font-family="Helvetica,sans-Serif" font-size="10.00">fstream</text>
</a>
</g>
</g>
<!-- Node33&#45;&gt;Node34 -->
<g id="edge43" class="edge">
<title>Node33&#45;&gt;Node34</title>
<path fill="none" stroke="midnightblue" d="M891.99,-414.48C887.91,-405.82 881.48,-392.15 876.3,-381.15"/>
<polygon fill="midnightblue" stroke="midnightblue" points="879.43,-379.57 872,-372.01 873.1,-382.55 879.43,-379.57"/>
</g>
<!-- Node35 -->
<g id="node35" class="node">
<title>Node35</title>
<g id="a_node35"><a xlink:href="kryne-engine_2_utils_2_utils_8h.html" target="_top" xlink:title=" ">
<polygon fill="white" stroke="black" points="987.5,-347.5 987.5,-377.5 1082.5,-377.5 1082.5,-347.5 987.5,-347.5"/>
<text text-anchor="start" x="995.5" y="-365.5" font-family="Helvetica,sans-Serif" font-size="10.00">kryne&#45;engine/Utils</text>
<text text-anchor="middle" x="1035" y="-354.5" font-family="Helvetica,sans-Serif" font-size="10.00">/Utils.h</text>
</a>
</g>
</g>
<!-- Node33&#45;&gt;Node35 -->
<g id="edge45" class="edge">
<title>Node33&#45;&gt;Node35</title>
<path fill="none" stroke="midnightblue" d="M915.92,-414.48C935.88,-405.93 967.25,-392.5 992.78,-381.57"/>
<polygon fill="midnightblue" stroke="midnightblue" points="994.42,-384.68 1002.24,-377.52 991.67,-378.24 994.42,-384.68"/>
</g>
<!-- Node36 -->
<g id="node36" class="node">
<title>Node36</title>
<g id="a_node36"><a xlink:href="_string_utils_8hpp.html" target="_top" xlink:title=" ">
<polygon fill="white" stroke="black" points="975,-168.5 975,-187.5 1055,-187.5 1055,-168.5 975,-168.5"/>
<text text-anchor="middle" x="1015" y="-175.5" font-family="Helvetica,sans-Serif" font-size="10.00">StringUtils.hpp</text>
</a>
</g>
</g>
<!-- Node35&#45;&gt;Node36 -->
<g id="edge46" class="edge">
<title>Node35&#45;&gt;Node36</title>
<path fill="none" stroke="midnightblue" d="M1025.12,-347.21C1018.98,-337.48 1011.58,-324.04 1008,-311 997.76,-273.69 1000.78,-262.46 1005,-224 1005.97,-215.14 1007.99,-205.47 1009.96,-197.38"/>
<polygon fill="midnightblue" stroke="midnightblue" points="1013.39,-198.09 1012.52,-187.53 1006.62,-196.33 1013.39,-198.09"/>
</g>
<!-- Node37 -->
<g id="node37" class="node">
<title>Node37</title>
<g id="a_node37"><a xlink:href="_vector_mapping_8hpp.html" target="_top" xlink:title=" ">
<polygon fill="white" stroke="black" points="1016.5,-286 1016.5,-305 1117.5,-305 1117.5,-286 1016.5,-286"/>
<text text-anchor="middle" x="1067" y="-293" font-family="Helvetica,sans-Serif" font-size="10.00">VectorMapping.hpp</text>
</a>
</g>
</g>
<!-- Node35&#45;&gt;Node37 -->
<g id="edge48" class="edge">
<title>Node35&#45;&gt;Node37</title>
<path fill="none" stroke="midnightblue" d="M1041.94,-347.4C1046.74,-337.66 1053.14,-324.65 1058.28,-314.21"/>
<polygon fill="midnightblue" stroke="midnightblue" points="1061.44,-315.71 1062.72,-305.19 1055.16,-312.62 1061.44,-315.71"/>
</g>
<!-- Node36&#45;&gt;Node14 -->
<g id="edge47" class="edge">
<title>Node36&#45;&gt;Node14</title>
<path fill="none" stroke="midnightblue" d="M1010.24,-168.39C1002.05,-154.4 983.93,-126.79 961,-112 922.1,-86.92 869.33,-75.68 834.28,-70.74"/>
<polygon fill="midnightblue" stroke="midnightblue" points="834.37,-67.22 824,-69.4 833.47,-74.16 834.37,-67.22"/>
</g>
<!-- Node37&#45;&gt;Node38 -->
<g id="edge49" class="edge">
<title>Node37&#45;&gt;Node38</title>
<path fill="none" stroke="midnightblue" d="M1081.18,-285.98C1097.36,-276.25 1124.03,-260.23 1143.14,-248.74"/>
<polygon fill="midnightblue" stroke="midnightblue" points="1145.07,-251.66 1151.84,-243.51 1141.47,-245.66 1145.07,-251.66"/>
</g>
<!-- Node39 -->
<g id="node39" class="node">
<title>Node39</title>
<g id="a_node39"><a xlink:title=" ">
<polygon fill="white" stroke="#bfbfbf" points="1013.5,-224.5 1013.5,-243.5 1126.5,-243.5 1126.5,-224.5 1013.5,-224.5"/>
<text text-anchor="middle" x="1070" y="-231.5" font-family="Helvetica,sans-Serif" font-size="10.00">glm/detail/qualifier.hpp</text>
</a>
</g>
</g>
<!-- Node37&#45;&gt;Node39 -->
<g id="edge50" class="edge">
<title>Node37&#45;&gt;Node39</title>
<path fill="none" stroke="midnightblue" d="M1067.43,-285.98C1067.85,-277.58 1068.51,-264.48 1069.06,-253.66"/>
<polygon fill="midnightblue" stroke="midnightblue" points="1072.56,-253.67 1069.57,-243.51 1065.57,-253.32 1072.56,-253.67"/>
</g>
</g>
</svg>
