<?xml version="1.0" encoding="UTF-8" standalone="no"?>
<!DOCTYPE svg PUBLIC "-//W3C//DTD SVG 1.1//EN"
 "http://www.w3.org/Graphics/SVG/1.1/DTD/svg11.dtd">
<!-- Generated by graphviz version 2.44.1 (20200629.0846)
 -->
<!-- Title: kryne&#45;engine/include/kryne&#45;engine/RenderTargets/PostProcess.h Pages: 1 -->
<svg width="1537pt" height="542pt"
 viewBox="0.00 0.00 1537.00 542.00" xmlns="http://www.w3.org/2000/svg" xmlns:xlink="http://www.w3.org/1999/xlink">
<g id="graph0" class="graph" transform="scale(1 1) rotate(0) translate(4 538)">
<title>kryne&#45;engine/include/kryne&#45;engine/RenderTargets/PostProcess.h</title>
<polygon fill="white" stroke="transparent" points="-4,4 -4,-538 1533,-538 1533,4 -4,4"/>
<!-- Node1 -->
<g id="node1" class="node">
<title>Node1</title>
<g id="a_node1"><a xlink:title=" ">
<polygon fill="#bfbfbf" stroke="black" points="694,-492.5 694,-533.5 835,-533.5 835,-492.5 694,-492.5"/>
<text text-anchor="start" x="702" y="-521.5" font-family="Helvetica,sans-Serif" font-size="10.00">kryne&#45;engine/include</text>
<text text-anchor="start" x="702" y="-510.5" font-family="Helvetica,sans-Serif" font-size="10.00">/kryne&#45;engine/RenderTargets</text>
<text text-anchor="middle" x="764.5" y="-499.5" font-family="Helvetica,sans-Serif" font-size="10.00">/PostProcess.h</text>
</a>
</g>
</g>
<!-- Node2 -->
<g id="node2" class="node">
<title>Node2</title>
<g id="a_node2"><a xlink:href="_texture2_d_8h.html" target="_top" xlink:title=" ">
<polygon fill="white" stroke="black" points="601,-369.5 601,-399.5 714,-399.5 714,-369.5 601,-369.5"/>
<text text-anchor="start" x="609" y="-387.5" font-family="Helvetica,sans-Serif" font-size="10.00">kryne&#45;engine/Textures</text>
<text text-anchor="middle" x="657.5" y="-376.5" font-family="Helvetica,sans-Serif" font-size="10.00">/Texture2D.h</text>
</a>
</g>
</g>
<!-- Node1&#45;&gt;Node2 -->
<g id="edge1" class="edge">
<title>Node1&#45;&gt;Node2</title>
<path fill="none" stroke="midnightblue" d="M747.78,-492.23C728.33,-469.24 696.3,-431.37 676.08,-407.47"/>
<polygon fill="midnightblue" stroke="midnightblue" points="678.59,-405.02 669.46,-399.64 673.25,-409.54 678.59,-405.02"/>
</g>
<!-- Node12 -->
<g id="node12" class="node">
<title>Node12</title>
<g id="a_node12"><a xlink:href="_final_post_process_8h.html" target="_top" xlink:title=" ">
<polygon fill="white" stroke="black" points="778.5,-436.5 778.5,-455.5 880.5,-455.5 880.5,-436.5 778.5,-436.5"/>
<text text-anchor="middle" x="829.5" y="-443.5" font-family="Helvetica,sans-Serif" font-size="10.00">FinalPostProcess.h</text>
</a>
</g>
</g>
<!-- Node1&#45;&gt;Node12 -->
<g id="edge11" class="edge">
<title>Node1&#45;&gt;Node12</title>
<path fill="none" stroke="midnightblue" d="M784,-492.5C793.49,-483.01 804.74,-471.76 813.69,-462.81"/>
<polygon fill="midnightblue" stroke="midnightblue" points="816.25,-465.2 820.85,-455.65 811.3,-460.25 816.25,-465.2"/>
</g>
<!-- Node3 -->
<g id="node3" class="node">
<title>Node3</title>
<g id="a_node3"><a xlink:href="_texture_8h.html" target="_top" xlink:title=" ">
<polygon fill="white" stroke="black" points="613,-241 613,-260 670,-260 670,-241 613,-241"/>
<text text-anchor="middle" x="641.5" y="-248" font-family="Helvetica,sans-Serif" font-size="10.00">Texture.h</text>
</a>
</g>
</g>
<!-- Node2&#45;&gt;Node3 -->
<g id="edge2" class="edge">
<title>Node2&#45;&gt;Node3</title>
<path fill="none" stroke="midnightblue" d="M655.79,-369.37C652.88,-345.4 646.98,-296.75 643.75,-270.06"/>
<polygon fill="midnightblue" stroke="midnightblue" points="647.22,-269.6 642.54,-260.1 640.27,-270.45 647.22,-269.6"/>
</g>
<!-- Node4 -->
<g id="node4" class="node">
<title>Node4</title>
<g id="a_node4"><a xlink:title=" ">
<polygon fill="white" stroke="#bfbfbf" points="521.5,-174 521.5,-193 591.5,-193 591.5,-174 521.5,-174"/>
<text text-anchor="middle" x="556.5" y="-181" font-family="Helvetica,sans-Serif" font-size="10.00">stb_image.h</text>
</a>
</g>
</g>
<!-- Node3&#45;&gt;Node4 -->
<g id="edge3" class="edge">
<title>Node3&#45;&gt;Node4</title>
<path fill="none" stroke="midnightblue" d="M630.04,-240.73C616.14,-230.11 592.52,-212.05 575.81,-199.26"/>
<polygon fill="midnightblue" stroke="midnightblue" points="577.85,-196.42 567.78,-193.13 573.6,-201.98 577.85,-196.42"/>
</g>
<!-- Node5 -->
<g id="node5" class="node">
<title>Node5</title>
<g id="a_node5"><a xlink:title=" ">
<polygon fill="white" stroke="#bfbfbf" points="462,-174 462,-193 503,-193 503,-174 462,-174"/>
<text text-anchor="middle" x="482.5" y="-181" font-family="Helvetica,sans-Serif" font-size="10.00">string</text>
</a>
</g>
</g>
<!-- Node3&#45;&gt;Node5 -->
<g id="edge4" class="edge">
<title>Node3&#45;&gt;Node5</title>
<path fill="none" stroke="midnightblue" d="M617.97,-240.91C591.94,-231.27 548.87,-214.88 512.5,-199 511.31,-198.48 510.09,-197.94 508.87,-197.38"/>
<polygon fill="midnightblue" stroke="midnightblue" points="510.07,-194.08 499.53,-193.01 507.1,-200.42 510.07,-194.08"/>
</g>
<!-- Node6 -->
<g id="node6" class="node">
<title>Node6</title>
<g id="a_node6"><a xlink:title=" ">
<polygon fill="white" stroke="#bfbfbf" points="299.5,-56.5 299.5,-75.5 353.5,-75.5 353.5,-56.5 299.5,-56.5"/>
<text text-anchor="middle" x="326.5" y="-63.5" font-family="Helvetica,sans-Serif" font-size="10.00">iostream</text>
</a>
</g>
</g>
<!-- Node3&#45;&gt;Node6 -->
<g id="edge5" class="edge">
<title>Node3&#45;&gt;Node6</title>
<path fill="none" stroke="midnightblue" d="M660.59,-240.9C683.34,-230.22 719.2,-211.83 726.5,-199 733.31,-187.03 734.97,-178.87 726.5,-168 703.83,-138.9 458.57,-91.22 363.69,-73.72"/>
<polygon fill="midnightblue" stroke="midnightblue" points="364.13,-70.24 353.67,-71.88 362.87,-77.13 364.13,-70.24"/>
</g>
<!-- Node7 -->
<g id="node7" class="node">
<title>Node7</title>
<g id="a_node7"><a xlink:title=" ">
<polygon fill="white" stroke="#bfbfbf" points="610,-174 610,-193 717,-193 717,-174 610,-174"/>
<text text-anchor="middle" x="663.5" y="-181" font-family="Helvetica,sans-Serif" font-size="10.00">boost/filesystem.hpp</text>
</a>
</g>
</g>
<!-- Node3&#45;&gt;Node7 -->
<g id="edge6" class="edge">
<title>Node3&#45;&gt;Node7</title>
<path fill="none" stroke="midnightblue" d="M644.47,-240.73C647.73,-231.09 653.08,-215.3 657.27,-202.91"/>
<polygon fill="midnightblue" stroke="midnightblue" points="660.69,-203.72 660.58,-193.13 654.06,-201.48 660.69,-203.72"/>
</g>
<!-- Node8 -->
<g id="node8" class="node">
<title>Node8</title>
<g id="a_node8"><a xlink:title=" ">
<polygon fill="white" stroke="#bfbfbf" points="1125.5,-174 1125.5,-193 1199.5,-193 1199.5,-174 1125.5,-174"/>
<text text-anchor="middle" x="1162.5" y="-181" font-family="Helvetica,sans-Serif" font-size="10.00">glm/vec2.hpp</text>
</a>
</g>
</g>
<!-- Node3&#45;&gt;Node8 -->
<g id="edge7" class="edge">
<title>Node3&#45;&gt;Node8</title>
<path fill="none" stroke="midnightblue" d="M660.9,-240.92C666.77,-238.65 673.31,-236.43 679.5,-235 852.98,-194.88 901.96,-222.16 1078.5,-199 1090.54,-197.42 1103.48,-195.36 1115.52,-193.3"/>
<polygon fill="midnightblue" stroke="midnightblue" points="1116.14,-196.75 1125.38,-191.57 1114.93,-189.85 1116.14,-196.75"/>
</g>
<!-- Node9 -->
<g id="node9" class="node">
<title>Node9</title>
<g id="a_node9"><a xlink:title=" ">
<polygon fill="white" stroke="#bfbfbf" points="1217.5,-174 1217.5,-193 1291.5,-193 1291.5,-174 1217.5,-174"/>
<text text-anchor="middle" x="1254.5" y="-181" font-family="Helvetica,sans-Serif" font-size="10.00">glm/vec3.hpp</text>
</a>
</g>
</g>
<!-- Node3&#45;&gt;Node9 -->
<g id="edge8" class="edge">
<title>Node3&#45;&gt;Node9</title>
<path fill="none" stroke="midnightblue" d="M660.49,-240.99C666.46,-238.66 673.15,-236.39 679.5,-235 909.67,-184.44 976.94,-242.73 1208.5,-199 1212.67,-198.21 1216.98,-197.17 1221.23,-196"/>
<polygon fill="midnightblue" stroke="midnightblue" points="1222.32,-199.33 1230.9,-193.12 1220.32,-192.62 1222.32,-199.33"/>
</g>
<!-- Node10 -->
<g id="node10" class="node">
<title>Node10</title>
<g id="a_node10"><a xlink:title=" ">
<polygon fill="white" stroke="#bfbfbf" points="773.5,-174 773.5,-193 837.5,-193 837.5,-174 773.5,-174"/>
<text text-anchor="middle" x="805.5" y="-181" font-family="Helvetica,sans-Serif" font-size="10.00">glad/glad.h</text>
</a>
</g>
</g>
<!-- Node3&#45;&gt;Node10 -->
<g id="edge9" class="edge">
<title>Node3&#45;&gt;Node10</title>
<path fill="none" stroke="midnightblue" d="M663.28,-240.87C691.78,-229.57 741.93,-209.7 774.42,-196.82"/>
<polygon fill="midnightblue" stroke="midnightblue" points="775.89,-200 783.89,-193.06 773.31,-193.49 775.89,-200"/>
</g>
<!-- Node11 -->
<g id="node11" class="node">
<title>Node11</title>
<g id="a_node11"><a xlink:title=" ">
<polygon fill="white" stroke="#bfbfbf" points="855.5,-174 855.5,-193 933.5,-193 933.5,-174 855.5,-174"/>
<text text-anchor="middle" x="894.5" y="-181" font-family="Helvetica,sans-Serif" font-size="10.00">GLFW/glfw3.h</text>
</a>
</g>
</g>
<!-- Node3&#45;&gt;Node11 -->
<g id="edge10" class="edge">
<title>Node3&#45;&gt;Node11</title>
<path fill="none" stroke="midnightblue" d="M662.21,-240.94C667.77,-238.83 673.81,-236.69 679.5,-235 752.29,-213.4 772.99,-217.99 846.5,-199 850.17,-198.05 853.98,-197.01 857.78,-195.92"/>
<polygon fill="midnightblue" stroke="midnightblue" points="859.09,-199.19 867.7,-193.02 857.12,-192.47 859.09,-199.19"/>
</g>
<!-- Node12&#45;&gt;Node2 -->
<g id="edge66" class="edge">
<title>Node12&#45;&gt;Node2</title>
<path fill="none" stroke="midnightblue" d="M804.86,-436.48C779.6,-427.74 739.62,-413.91 707.67,-402.86"/>
<polygon fill="midnightblue" stroke="midnightblue" points="708.63,-399.48 698.04,-399.52 706.34,-406.1 708.63,-399.48"/>
</g>
<!-- Node13 -->
<g id="node13" class="node">
<title>Node13</title>
<g id="a_node13"><a xlink:title=" ">
<polygon fill="white" stroke="#bfbfbf" points="854,-308 854,-327 889,-327 889,-308 854,-308"/>
<text text-anchor="middle" x="871.5" y="-315" font-family="Helvetica,sans-Serif" font-size="10.00">map</text>
</a>
</g>
</g>
<!-- Node12&#45;&gt;Node13 -->
<g id="edge12" class="edge">
<title>Node12&#45;&gt;Node13</title>
<path fill="none" stroke="midnightblue" d="M834.46,-436.28C839.35,-427.39 846.76,-413.08 851.5,-400 859.08,-379.08 864.74,-354.11 868.06,-337.37"/>
<polygon fill="midnightblue" stroke="midnightblue" points="871.56,-337.72 869.99,-327.25 864.68,-336.41 871.56,-337.72"/>
</g>
<!-- Node14 -->
<g id="node14" class="node">
<title>Node14</title>
<g id="a_node14"><a xlink:href="_shader_8h.html" target="_top" xlink:title=" ">
<polygon fill="white" stroke="black" points="732.5,-369.5 732.5,-399.5 842.5,-399.5 842.5,-369.5 732.5,-369.5"/>
<text text-anchor="start" x="740.5" y="-387.5" font-family="Helvetica,sans-Serif" font-size="10.00">kryne&#45;engine/Material</text>
<text text-anchor="middle" x="787.5" y="-376.5" font-family="Helvetica,sans-Serif" font-size="10.00">/Shader.h</text>
</a>
</g>
</g>
<!-- Node12&#45;&gt;Node14 -->
<g id="edge13" class="edge">
<title>Node12&#45;&gt;Node14</title>
<path fill="none" stroke="midnightblue" d="M823.48,-436.48C818.22,-429.02 810.34,-417.85 803.29,-407.87"/>
<polygon fill="midnightblue" stroke="midnightblue" points="806.02,-405.67 797.4,-399.52 800.31,-409.71 806.02,-405.67"/>
</g>
<!-- Node41 -->
<g id="node41" class="node">
<title>Node41</title>
<g id="a_node41"><a xlink:href="_vertex_array_8h.html" target="_top" xlink:title=" ">
<polygon fill="white" stroke="black" points="1101,-235.5 1101,-265.5 1228,-265.5 1228,-235.5 1101,-235.5"/>
<text text-anchor="start" x="1109" y="-253.5" font-family="Helvetica,sans-Serif" font-size="10.00">kryne&#45;engine/Core/Vertex</text>
<text text-anchor="middle" x="1164.5" y="-242.5" font-family="Helvetica,sans-Serif" font-size="10.00">Array.h</text>
</a>
</g>
</g>
<!-- Node12&#45;&gt;Node41 -->
<g id="edge52" class="edge">
<title>Node12&#45;&gt;Node41</title>
<path fill="none" stroke="midnightblue" d="M844.33,-436.44C894.62,-407.39 1059.55,-312.12 1131,-270.85"/>
<polygon fill="midnightblue" stroke="midnightblue" points="1133.13,-273.66 1140.04,-265.63 1129.63,-267.6 1133.13,-273.66"/>
</g>
<!-- Node44 -->
<g id="node44" class="node">
<title>Node44</title>
<g id="a_node44"><a xlink:href="_geometric_shapes_8h.html" target="_top" xlink:title=" ">
<polygon fill="white" stroke="black" points="1247,-235.5 1247,-265.5 1390,-265.5 1390,-235.5 1247,-235.5"/>
<text text-anchor="start" x="1255" y="-253.5" font-family="Helvetica,sans-Serif" font-size="10.00">kryne&#45;engine/Core/Geometric</text>
<text text-anchor="middle" x="1318.5" y="-242.5" font-family="Helvetica,sans-Serif" font-size="10.00">Shapes.h</text>
</a>
</g>
</g>
<!-- Node12&#45;&gt;Node44 -->
<g id="edge60" class="edge">
<title>Node12&#45;&gt;Node44</title>
<path fill="none" stroke="midnightblue" d="M851.56,-436.41C874.72,-427.37 912.19,-412.74 944.5,-400 1063.53,-353.08 1203.66,-297.29 1273.78,-269.34"/>
<polygon fill="midnightblue" stroke="midnightblue" points="1275.21,-272.54 1283.2,-265.58 1272.62,-266.04 1275.21,-272.54"/>
</g>
<!-- Node14&#45;&gt;Node13 -->
<g id="edge14" class="edge">
<title>Node14&#45;&gt;Node13</title>
<path fill="none" stroke="midnightblue" d="M805.73,-369.4C819.47,-358.76 838.28,-344.2 852.27,-333.38"/>
<polygon fill="midnightblue" stroke="midnightblue" points="854.5,-336.08 860.26,-327.19 850.21,-330.55 854.5,-336.08"/>
</g>
<!-- Node15 -->
<g id="node15" class="node">
<title>Node15</title>
<g id="a_node15"><a xlink:title=" ">
<polygon fill="white" stroke="#bfbfbf" points="669.5,-308 669.5,-327 721.5,-327 721.5,-308 669.5,-308"/>
<text text-anchor="middle" x="695.5" y="-315" font-family="Helvetica,sans-Serif" font-size="10.00">sstream</text>
</a>
</g>
</g>
<!-- Node14&#45;&gt;Node15 -->
<g id="edge15" class="edge">
<title>Node14&#45;&gt;Node15</title>
<path fill="none" stroke="midnightblue" d="M767.54,-369.4C752.25,-358.6 731.25,-343.76 715.86,-332.89"/>
<polygon fill="midnightblue" stroke="midnightblue" points="717.73,-329.92 707.54,-327.01 713.69,-335.64 717.73,-329.92"/>
</g>
<!-- Node16 -->
<g id="node16" class="node">
<title>Node16</title>
<g id="a_node16"><a xlink:href="_dispatcher_8h.html" target="_top" xlink:title=" ">
<polygon fill="white" stroke="black" points="429,-302.5 429,-332.5 542,-332.5 542,-302.5 429,-302.5"/>
<text text-anchor="start" x="437" y="-320.5" font-family="Helvetica,sans-Serif" font-size="10.00">kryne&#45;engine/Dispatch</text>
<text text-anchor="middle" x="485.5" y="-309.5" font-family="Helvetica,sans-Serif" font-size="10.00">/Dispatcher.h</text>
</a>
</g>
</g>
<!-- Node14&#45;&gt;Node16 -->
<g id="edge16" class="edge">
<title>Node14&#45;&gt;Node16</title>
<path fill="none" stroke="midnightblue" d="M732.35,-370.96C729.36,-370.29 726.39,-369.63 723.5,-369 665.72,-356.33 599.94,-342.41 552.2,-332.4"/>
<polygon fill="midnightblue" stroke="midnightblue" points="552.8,-328.95 542.29,-330.32 551.36,-335.8 552.8,-328.95"/>
</g>
<!-- Node29 -->
<g id="node29" class="node">
<title>Node29</title>
<g id="a_node29"><a xlink:href="_uniforms_handler_8h.html" target="_top" xlink:title=" ">
<polygon fill="white" stroke="black" points="739.5,-308 739.5,-327 835.5,-327 835.5,-308 739.5,-308"/>
<text text-anchor="middle" x="787.5" y="-315" font-family="Helvetica,sans-Serif" font-size="10.00">UniformsHandler.h</text>
</a>
</g>
</g>
<!-- Node14&#45;&gt;Node29 -->
<g id="edge32" class="edge">
<title>Node14&#45;&gt;Node29</title>
<path fill="none" stroke="midnightblue" d="M787.5,-369.4C787.5,-360.06 787.5,-347.71 787.5,-337.52"/>
<polygon fill="midnightblue" stroke="midnightblue" points="791,-337.19 787.5,-327.19 784,-337.19 791,-337.19"/>
</g>
<!-- Node34 -->
<g id="node34" class="node">
<title>Node34</title>
<g id="a_node34"><a xlink:href="_shader_chunk_8h.html" target="_top" xlink:title=" ">
<polygon fill="white" stroke="black" points="192,-308 192,-327 275,-327 275,-308 192,-308"/>
<text text-anchor="middle" x="233.5" y="-315" font-family="Helvetica,sans-Serif" font-size="10.00">ShaderChunk.h</text>
</a>
</g>
</g>
<!-- Node14&#45;&gt;Node34 -->
<g id="edge41" class="edge">
<title>Node14&#45;&gt;Node34</title>
<path fill="none" stroke="midnightblue" d="M732.42,-370.58C729.41,-370.01 726.42,-369.48 723.5,-369 640.11,-355.31 393.46,-332.66 285.31,-323.04"/>
<polygon fill="midnightblue" stroke="midnightblue" points="285.55,-319.55 275.28,-322.15 284.94,-326.52 285.55,-319.55"/>
</g>
<!-- Node17 -->
<g id="node17" class="node">
<title>Node17</title>
<g id="a_node17"><a xlink:href="_synchronizable_pool_8h.html" target="_top" xlink:title=" ">
<polygon fill="white" stroke="black" points="294,-174 294,-193 405,-193 405,-174 294,-174"/>
<text text-anchor="middle" x="349.5" y="-181" font-family="Helvetica,sans-Serif" font-size="10.00">SynchronizablePool.h</text>
</a>
</g>
</g>
<!-- Node16&#45;&gt;Node17 -->
<g id="edge17" class="edge">
<title>Node16&#45;&gt;Node17</title>
<path fill="none" stroke="midnightblue" d="M478.85,-302.46C470.1,-285.06 453.33,-255.22 432.5,-235 416.47,-219.44 394.8,-206.46 377.63,-197.56"/>
<polygon fill="midnightblue" stroke="midnightblue" points="379.12,-194.39 368.61,-193.04 375.98,-200.65 379.12,-194.39"/>
</g>
<!-- Node27 -->
<g id="node27" class="node">
<title>Node27</title>
<g id="a_node27"><a xlink:href="_runner_pool_8h.html" target="_top" xlink:title=" ">
<polygon fill="white" stroke="black" points="481,-241 481,-260 556,-260 556,-241 481,-241"/>
<text text-anchor="middle" x="518.5" y="-248" font-family="Helvetica,sans-Serif" font-size="10.00">RunnerPool.h</text>
</a>
</g>
</g>
<!-- Node16&#45;&gt;Node27 -->
<g id="edge28" class="edge">
<title>Node16&#45;&gt;Node27</title>
<path fill="none" stroke="midnightblue" d="M492.66,-302.4C497.6,-292.66 504.21,-279.65 509.51,-269.21"/>
<polygon fill="midnightblue" stroke="midnightblue" points="512.68,-270.7 514.09,-260.19 506.44,-267.53 512.68,-270.7"/>
</g>
<!-- Node28 -->
<g id="node28" class="node">
<title>Node28</title>
<g id="a_node28"><a xlink:href="_main_pool_8h.html" target="_top" xlink:title=" ">
<polygon fill="white" stroke="black" points="219,-241 219,-260 284,-260 284,-241 219,-241"/>
<text text-anchor="middle" x="251.5" y="-248" font-family="Helvetica,sans-Serif" font-size="10.00">MainPool.h</text>
</a>
</g>
</g>
<!-- Node16&#45;&gt;Node28 -->
<g id="edge30" class="edge">
<title>Node16&#45;&gt;Node28</title>
<path fill="none" stroke="midnightblue" d="M435.01,-302.48C392.25,-290.6 331.73,-273.79 292.06,-262.77"/>
<polygon fill="midnightblue" stroke="midnightblue" points="292.78,-259.33 282.2,-260.03 290.9,-266.08 292.78,-259.33"/>
</g>
<!-- Node18 -->
<g id="node18" class="node">
<title>Node18</title>
<g id="a_node18"><a xlink:href="_thread_pool_8h.html" target="_top" xlink:title=" ">
<polygon fill="white" stroke="black" points="651.5,-112.5 651.5,-131.5 725.5,-131.5 725.5,-112.5 651.5,-112.5"/>
<text text-anchor="middle" x="688.5" y="-119.5" font-family="Helvetica,sans-Serif" font-size="10.00">ThreadPool.h</text>
</a>
</g>
</g>
<!-- Node17&#45;&gt;Node18 -->
<g id="edge18" class="edge">
<title>Node17&#45;&gt;Node18</title>
<path fill="none" stroke="midnightblue" d="M389.43,-173.95C399.25,-171.93 409.74,-169.83 419.5,-168 497.11,-153.48 587.75,-138.78 641.51,-130.3"/>
<polygon fill="midnightblue" stroke="midnightblue" points="642.1,-133.75 651.43,-128.74 641.01,-126.83 642.1,-133.75"/>
</g>
<!-- Node18&#45;&gt;Node6 -->
<g id="edge24" class="edge">
<title>Node18&#45;&gt;Node6</title>
<path fill="none" stroke="midnightblue" d="M651.48,-114.33C646.78,-113.52 642.03,-112.73 637.5,-112 538.87,-96.17 422.23,-79.96 363.8,-72.02"/>
<polygon fill="midnightblue" stroke="midnightblue" points="363.96,-68.51 353.58,-70.63 363.02,-75.44 363.96,-68.51"/>
</g>
<!-- Node19 -->
<g id="node19" class="node">
<title>Node19</title>
<g id="a_node19"><a xlink:title=" ">
<polygon fill="white" stroke="#bfbfbf" points="850.5,-56.5 850.5,-75.5 894.5,-75.5 894.5,-56.5 850.5,-56.5"/>
<text text-anchor="middle" x="872.5" y="-63.5" font-family="Helvetica,sans-Serif" font-size="10.00">thread</text>
</a>
</g>
</g>
<!-- Node18&#45;&gt;Node19 -->
<g id="edge19" class="edge">
<title>Node18&#45;&gt;Node19</title>
<path fill="none" stroke="midnightblue" d="M717.66,-112.44C751.23,-102.59 806.18,-86.46 840.8,-76.3"/>
<polygon fill="midnightblue" stroke="midnightblue" points="841.8,-79.66 850.41,-73.48 839.83,-72.94 841.8,-79.66"/>
</g>
<!-- Node20 -->
<g id="node20" class="node">
<title>Node20</title>
<g id="a_node20"><a xlink:title=" ">
<polygon fill="white" stroke="#bfbfbf" points="461.5,-56.5 461.5,-75.5 505.5,-75.5 505.5,-56.5 461.5,-56.5"/>
<text text-anchor="middle" x="483.5" y="-63.5" font-family="Helvetica,sans-Serif" font-size="10.00">mutex</text>
</a>
</g>
</g>
<!-- Node18&#45;&gt;Node20 -->
<g id="edge20" class="edge">
<title>Node18&#45;&gt;Node20</title>
<path fill="none" stroke="midnightblue" d="M654.96,-112.48C620.07,-103.58 563.88,-89.09 515.5,-76 515.4,-75.97 515.3,-75.95 515.2,-75.92"/>
<polygon fill="midnightblue" stroke="midnightblue" points="516.09,-72.53 505.52,-73.25 514.23,-79.28 516.09,-72.53"/>
</g>
<!-- Node21 -->
<g id="node21" class="node">
<title>Node21</title>
<g id="a_node21"><a xlink:title=" ">
<polygon fill="white" stroke="#bfbfbf" points="524,-56.5 524,-75.5 617,-75.5 617,-56.5 524,-56.5"/>
<text text-anchor="middle" x="570.5" y="-63.5" font-family="Helvetica,sans-Serif" font-size="10.00">condition_variable</text>
</a>
</g>
</g>
<!-- Node18&#45;&gt;Node21 -->
<g id="edge21" class="edge">
<title>Node18&#45;&gt;Node21</title>
<path fill="none" stroke="midnightblue" d="M669.8,-112.44C650.56,-103.64 620.35,-89.81 598.3,-79.72"/>
<polygon fill="midnightblue" stroke="midnightblue" points="599.66,-76.5 589.11,-75.52 596.75,-82.86 599.66,-76.5"/>
</g>
<!-- Node22 -->
<g id="node22" class="node">
<title>Node22</title>
<g id="a_node22"><a xlink:title=" ">
<polygon fill="white" stroke="#bfbfbf" points="635,-56.5 635,-75.5 676,-75.5 676,-56.5 635,-56.5"/>
<text text-anchor="middle" x="655.5" y="-63.5" font-family="Helvetica,sans-Serif" font-size="10.00">future</text>
</a>
</g>
</g>
<!-- Node18&#45;&gt;Node22 -->
<g id="edge22" class="edge">
<title>Node18&#45;&gt;Node22</title>
<path fill="none" stroke="midnightblue" d="M683.05,-112.08C678.49,-104.61 671.83,-93.72 666.21,-84.52"/>
<polygon fill="midnightblue" stroke="midnightblue" points="669.05,-82.46 660.85,-75.75 663.08,-86.11 669.05,-82.46"/>
</g>
<!-- Node23 -->
<g id="node23" class="node">
<title>Node23</title>
<g id="a_node23"><a xlink:title=" ">
<polygon fill="white" stroke="#bfbfbf" points="694.5,-56.5 694.5,-75.5 746.5,-75.5 746.5,-56.5 694.5,-56.5"/>
<text text-anchor="middle" x="720.5" y="-63.5" font-family="Helvetica,sans-Serif" font-size="10.00">memory</text>
</a>
</g>
</g>
<!-- Node18&#45;&gt;Node23 -->
<g id="edge23" class="edge">
<title>Node18&#45;&gt;Node23</title>
<path fill="none" stroke="midnightblue" d="M693.78,-112.08C698.21,-104.61 704.66,-93.72 710.12,-84.52"/>
<polygon fill="midnightblue" stroke="midnightblue" points="713.23,-86.14 715.31,-75.75 707.21,-82.57 713.23,-86.14"/>
</g>
<!-- Node24 -->
<g id="node24" class="node">
<title>Node24</title>
<g id="a_node24"><a xlink:href="_base_pool_8h.html" target="_top" xlink:title=" ">
<polygon fill="white" stroke="black" points="765,-56.5 765,-75.5 832,-75.5 832,-56.5 765,-56.5"/>
<text text-anchor="middle" x="798.5" y="-63.5" font-family="Helvetica,sans-Serif" font-size="10.00">BasePool.h</text>
</a>
</g>
</g>
<!-- Node18&#45;&gt;Node24 -->
<g id="edge25" class="edge">
<title>Node18&#45;&gt;Node24</title>
<path fill="none" stroke="midnightblue" d="M706.17,-112.32C723.89,-103.62 751.4,-90.12 771.79,-80.11"/>
<polygon fill="midnightblue" stroke="midnightblue" points="773.44,-83.2 780.87,-75.65 770.35,-76.92 773.44,-83.2"/>
</g>
<!-- Node25 -->
<g id="node25" class="node">
<title>Node25</title>
<g id="a_node25"><a xlink:title=" ">
<polygon fill="white" stroke="#bfbfbf" points="742,-0.5 742,-19.5 785,-19.5 785,-0.5 742,-0.5"/>
<text text-anchor="middle" x="763.5" y="-7.5" font-family="Helvetica,sans-Serif" font-size="10.00">queue</text>
</a>
</g>
</g>
<!-- Node24&#45;&gt;Node25 -->
<g id="edge26" class="edge">
<title>Node24&#45;&gt;Node25</title>
<path fill="none" stroke="midnightblue" d="M792.72,-56.08C787.83,-48.53 780.67,-37.49 774.67,-28.23"/>
<polygon fill="midnightblue" stroke="midnightblue" points="777.55,-26.24 769.17,-19.75 771.67,-30.05 777.55,-26.24"/>
</g>
<!-- Node26 -->
<g id="node26" class="node">
<title>Node26</title>
<g id="a_node26"><a xlink:title=" ">
<polygon fill="white" stroke="#bfbfbf" points="803.5,-0.5 803.5,-19.5 861.5,-19.5 861.5,-0.5 803.5,-0.5"/>
<text text-anchor="middle" x="832.5" y="-7.5" font-family="Helvetica,sans-Serif" font-size="10.00">functional</text>
</a>
</g>
</g>
<!-- Node24&#45;&gt;Node26 -->
<g id="edge27" class="edge">
<title>Node24&#45;&gt;Node26</title>
<path fill="none" stroke="midnightblue" d="M804.11,-56.08C808.87,-48.53 815.82,-37.49 821.65,-28.23"/>
<polygon fill="midnightblue" stroke="midnightblue" points="824.62,-30.08 826.99,-19.75 818.7,-26.35 824.62,-30.08"/>
</g>
<!-- Node27&#45;&gt;Node18 -->
<g id="edge29" class="edge">
<title>Node27&#45;&gt;Node18</title>
<path fill="none" stroke="midnightblue" d="M502.39,-240.89C476.5,-225.96 430.68,-194.37 452.5,-168 475.94,-139.67 579.02,-129.02 640.94,-125.13"/>
<polygon fill="midnightblue" stroke="midnightblue" points="641.47,-128.61 651.24,-124.52 641.06,-121.62 641.47,-128.61"/>
</g>
<!-- Node28&#45;&gt;Node17 -->
<g id="edge31" class="edge">
<title>Node28&#45;&gt;Node17</title>
<path fill="none" stroke="midnightblue" d="M264.72,-240.73C280.95,-229.96 308.72,-211.55 328.03,-198.74"/>
<polygon fill="midnightblue" stroke="midnightblue" points="330.09,-201.57 336.49,-193.13 326.22,-195.74 330.09,-201.57"/>
</g>
<!-- Node29&#45;&gt;Node3 -->
<g id="edge40" class="edge">
<title>Node29&#45;&gt;Node3</title>
<path fill="none" stroke="midnightblue" d="M768.11,-307.87C743.02,-296.7 699.11,-277.15 670.16,-264.26"/>
<polygon fill="midnightblue" stroke="midnightblue" points="671.53,-261.04 660.97,-260.17 668.68,-267.43 671.53,-261.04"/>
</g>
<!-- Node29&#45;&gt;Node5 -->
<g id="edge33" class="edge">
<title>Node29&#45;&gt;Node5</title>
<path fill="none" stroke="midnightblue" d="M753.82,-307.98C704.72,-295.45 617.87,-272.8 604.5,-266 584.76,-255.96 583.66,-247.67 565.5,-235 546.24,-221.56 523.38,-207.81 506.53,-198.05"/>
<polygon fill="midnightblue" stroke="midnightblue" points="508.27,-195.01 497.85,-193.07 504.79,-201.08 508.27,-195.01"/>
</g>
<!-- Node29&#45;&gt;Node10 -->
<g id="edge35" class="edge">
<title>Node29&#45;&gt;Node10</title>
<path fill="none" stroke="midnightblue" d="M788.68,-307.84C791.57,-286.67 799.03,-231.95 802.97,-203.03"/>
<polygon fill="midnightblue" stroke="midnightblue" points="806.45,-203.4 804.34,-193.02 799.52,-202.46 806.45,-203.4"/>
</g>
<!-- Node29&#45;&gt;Node11 -->
<g id="edge36" class="edge">
<title>Node29&#45;&gt;Node11</title>
<path fill="none" stroke="midnightblue" d="M794.52,-307.84C812.06,-286.21 858.01,-229.51 881,-201.15"/>
<polygon fill="midnightblue" stroke="midnightblue" points="884.01,-202.99 887.59,-193.02 878.58,-198.59 884.01,-202.99"/>
</g>
<!-- Node30 -->
<g id="node30" class="node">
<title>Node30</title>
<g id="a_node30"><a xlink:title=" ">
<polygon fill="white" stroke="#bfbfbf" points="341,-241 341,-260 424,-260 424,-241 341,-241"/>
<text text-anchor="middle" x="382.5" y="-248" font-family="Helvetica,sans-Serif" font-size="10.00">unordered_map</text>
</a>
</g>
</g>
<!-- Node29&#45;&gt;Node30 -->
<g id="edge34" class="edge">
<title>Node29&#45;&gt;Node30</title>
<path fill="none" stroke="midnightblue" d="M756.58,-307.97C748.16,-305.83 739.02,-303.67 730.5,-302 616.89,-279.69 586.99,-283.21 472.5,-266 460.03,-264.13 446.6,-262.01 434.02,-259.99"/>
<polygon fill="midnightblue" stroke="midnightblue" points="434.57,-256.54 424.14,-258.4 433.46,-263.45 434.57,-256.54"/>
</g>
<!-- Node31 -->
<g id="node31" class="node">
<title>Node31</title>
<g id="a_node31"><a xlink:title=" ">
<polygon fill="white" stroke="#bfbfbf" points="872.5,-241 872.5,-260 958.5,-260 958.5,-241 872.5,-241"/>
<text text-anchor="middle" x="915.5" y="-248" font-family="Helvetica,sans-Serif" font-size="10.00">glm/mat4x4.hpp</text>
</a>
</g>
</g>
<!-- Node29&#45;&gt;Node31 -->
<g id="edge37" class="edge">
<title>Node29&#45;&gt;Node31</title>
<path fill="none" stroke="midnightblue" d="M804.5,-307.87C826.21,-296.84 863.99,-277.66 889.37,-264.77"/>
<polygon fill="midnightblue" stroke="midnightblue" points="891.1,-267.82 898.43,-260.17 887.93,-261.57 891.1,-267.82"/>
</g>
<!-- Node32 -->
<g id="node32" class="node">
<title>Node32</title>
<g id="a_node32"><a xlink:title=" ">
<polygon fill="white" stroke="#bfbfbf" points="976.5,-241 976.5,-260 1082.5,-260 1082.5,-241 976.5,-241"/>
<text text-anchor="middle" x="1029.5" y="-248" font-family="Helvetica,sans-Serif" font-size="10.00">glm/gtc/type_ptr.hpp</text>
</a>
</g>
</g>
<!-- Node29&#45;&gt;Node32 -->
<g id="edge38" class="edge">
<title>Node29&#45;&gt;Node32</title>
<path fill="none" stroke="midnightblue" d="M819.39,-307.94C862.64,-296.32 939.99,-275.54 987.81,-262.7"/>
<polygon fill="midnightblue" stroke="midnightblue" points="988.79,-266.06 997.54,-260.08 986.98,-259.3 988.79,-266.06"/>
</g>
<!-- Node33 -->
<g id="node33" class="node">
<title>Node33</title>
<g id="a_node33"><a xlink:title=" ">
<polygon fill="white" stroke="#bfbfbf" points="688.5,-241 688.5,-260 778.5,-260 778.5,-241 688.5,-241"/>
<text text-anchor="middle" x="733.5" y="-248" font-family="Helvetica,sans-Serif" font-size="10.00">boost/variant.hpp</text>
</a>
</g>
</g>
<!-- Node29&#45;&gt;Node33 -->
<g id="edge39" class="edge">
<title>Node29&#45;&gt;Node33</title>
<path fill="none" stroke="midnightblue" d="M780.22,-307.73C771.8,-297.6 757.75,-280.69 747.25,-268.06"/>
<polygon fill="midnightblue" stroke="midnightblue" points="749.75,-265.58 740.67,-260.13 744.37,-270.06 749.75,-265.58"/>
</g>
<!-- Node34&#45;&gt;Node5 -->
<g id="edge43" class="edge">
<title>Node34&#45;&gt;Node5</title>
<path fill="none" stroke="midnightblue" d="M243.73,-307.82C267.85,-287.38 326.59,-237.73 331.5,-235 370.55,-213.25 420.52,-198.82 452.03,-191.15"/>
<polygon fill="midnightblue" stroke="midnightblue" points="453.04,-194.51 461.97,-188.81 451.43,-187.7 453.04,-194.51"/>
</g>
<!-- Node34&#45;&gt;Node6 -->
<g id="edge45" class="edge">
<title>Node34&#45;&gt;Node6</title>
<path fill="none" stroke="midnightblue" d="M191.73,-313.46C159.82,-308.68 117.81,-296.57 96.5,-266 76.94,-237.94 21.34,-203.82 97.5,-112 121.43,-83.16 230.35,-72.5 288.94,-68.81"/>
<polygon fill="midnightblue" stroke="midnightblue" points="289.48,-72.28 299.26,-68.2 289.07,-65.29 289.48,-72.28"/>
</g>
<!-- Node34&#45;&gt;Node30 -->
<g id="edge42" class="edge">
<title>Node34&#45;&gt;Node30</title>
<path fill="none" stroke="midnightblue" d="M253.29,-307.87C278.89,-296.7 323.71,-277.15 353.25,-264.26"/>
<polygon fill="midnightblue" stroke="midnightblue" points="354.87,-267.37 362.63,-260.17 352.07,-260.96 354.87,-267.37"/>
</g>
<!-- Node35 -->
<g id="node35" class="node">
<title>Node35</title>
<g id="a_node35"><a xlink:title=" ">
<polygon fill="white" stroke="#bfbfbf" points="0,-241 0,-260 49,-260 49,-241 0,-241"/>
<text text-anchor="middle" x="24.5" y="-248" font-family="Helvetica,sans-Serif" font-size="10.00">fstream</text>
</a>
</g>
</g>
<!-- Node34&#45;&gt;Node35 -->
<g id="edge44" class="edge">
<title>Node34&#45;&gt;Node35</title>
<path fill="none" stroke="midnightblue" d="M202.59,-307.99C168.38,-298.42 111.68,-282.09 63.5,-266 61.1,-265.2 58.63,-264.35 56.15,-263.47"/>
<polygon fill="midnightblue" stroke="midnightblue" points="57.28,-260.16 46.68,-260.04 54.89,-266.74 57.28,-260.16"/>
</g>
<!-- Node36 -->
<g id="node36" class="node">
<title>Node36</title>
<g id="a_node36"><a xlink:href="kryne-engine_2_utils_2_utils_8h.html" target="_top" xlink:title=" ">
<polygon fill="white" stroke="black" points="106,-235.5 106,-265.5 201,-265.5 201,-235.5 106,-235.5"/>
<text text-anchor="start" x="114" y="-253.5" font-family="Helvetica,sans-Serif" font-size="10.00">kryne&#45;engine/Utils</text>
<text text-anchor="middle" x="153.5" y="-242.5" font-family="Helvetica,sans-Serif" font-size="10.00">/Utils.h</text>
</a>
</g>
</g>
<!-- Node34&#45;&gt;Node36 -->
<g id="edge46" class="edge">
<title>Node34&#45;&gt;Node36</title>
<path fill="none" stroke="midnightblue" d="M222.71,-307.73C211.48,-298.61 193.5,-284 178.69,-271.96"/>
<polygon fill="midnightblue" stroke="midnightblue" points="180.81,-269.18 170.84,-265.59 176.39,-274.61 180.81,-269.18"/>
</g>
<!-- Node37 -->
<g id="node37" class="node">
<title>Node37</title>
<g id="a_node37"><a xlink:href="_string_utils_8hpp.html" target="_top" xlink:title=" ">
<polygon fill="white" stroke="black" points="106.5,-112.5 106.5,-131.5 186.5,-131.5 186.5,-112.5 106.5,-112.5"/>
<text text-anchor="middle" x="146.5" y="-119.5" font-family="Helvetica,sans-Serif" font-size="10.00">StringUtils.hpp</text>
</a>
</g>
</g>
<!-- Node36&#45;&gt;Node37 -->
<g id="edge47" class="edge">
<title>Node36&#45;&gt;Node37</title>
<path fill="none" stroke="midnightblue" d="M152.72,-235.48C151.46,-212.72 148.97,-167.7 147.55,-142.06"/>
<polygon fill="midnightblue" stroke="midnightblue" points="151.03,-141.58 146.99,-131.79 144.04,-141.97 151.03,-141.58"/>
</g>
<!-- Node38 -->
<g id="node38" class="node">
<title>Node38</title>
<g id="a_node38"><a xlink:href="_vector_mapping_8hpp.html" target="_top" xlink:title=" ">
<polygon fill="white" stroke="black" points="175,-174 175,-193 276,-193 276,-174 175,-174"/>
<text text-anchor="middle" x="225.5" y="-181" font-family="Helvetica,sans-Serif" font-size="10.00">VectorMapping.hpp</text>
</a>
</g>
</g>
<!-- Node36&#45;&gt;Node38 -->
<g id="edge49" class="edge">
<title>Node36&#45;&gt;Node38</title>
<path fill="none" stroke="midnightblue" d="M169.12,-235.4C180.68,-224.96 196.42,-210.75 208.33,-200"/>
<polygon fill="midnightblue" stroke="midnightblue" points="210.79,-202.49 215.87,-193.19 206.1,-197.3 210.79,-202.49"/>
</g>
<!-- Node37&#45;&gt;Node6 -->
<g id="edge48" class="edge">
<title>Node37&#45;&gt;Node6</title>
<path fill="none" stroke="midnightblue" d="M175.02,-112.44C205.93,-103.17 255.36,-88.34 289.29,-78.16"/>
<polygon fill="midnightblue" stroke="midnightblue" points="290.72,-81.39 299.29,-75.16 288.71,-74.68 290.72,-81.39"/>
</g>
<!-- Node39 -->
<g id="node39" class="node">
<title>Node39</title>
<g id="a_node39"><a xlink:title=" ">
<polygon fill="white" stroke="#bfbfbf" points="1076.5,-112.5 1076.5,-131.5 1118.5,-131.5 1118.5,-112.5 1076.5,-112.5"/>
<text text-anchor="middle" x="1097.5" y="-119.5" font-family="Helvetica,sans-Serif" font-size="10.00">vector</text>
</a>
</g>
</g>
<!-- Node38&#45;&gt;Node39 -->
<g id="edge50" class="edge">
<title>Node38&#45;&gt;Node39</title>
<path fill="none" stroke="midnightblue" d="M255.6,-173.96C264.81,-171.66 275.01,-169.42 284.5,-168 439.53,-144.86 936.06,-128.04 1066.09,-123.96"/>
<polygon fill="midnightblue" stroke="midnightblue" points="1066.28,-127.45 1076.17,-123.64 1066.07,-120.46 1066.28,-127.45"/>
</g>
<!-- Node40 -->
<g id="node40" class="node">
<title>Node40</title>
<g id="a_node40"><a xlink:title=" ">
<polygon fill="white" stroke="#bfbfbf" points="205,-112.5 205,-131.5 318,-131.5 318,-112.5 205,-112.5"/>
<text text-anchor="middle" x="261.5" y="-119.5" font-family="Helvetica,sans-Serif" font-size="10.00">glm/detail/qualifier.hpp</text>
</a>
</g>
</g>
<!-- Node38&#45;&gt;Node40 -->
<g id="edge51" class="edge">
<title>Node38&#45;&gt;Node40</title>
<path fill="none" stroke="midnightblue" d="M230.66,-173.98C235.95,-165.23 244.34,-151.37 251.03,-140.31"/>
<polygon fill="midnightblue" stroke="midnightblue" points="254.17,-141.88 256.35,-131.51 248.18,-138.25 254.17,-141.88"/>
</g>
<!-- Node41&#45;&gt;Node8 -->
<g id="edge58" class="edge">
<title>Node41&#45;&gt;Node8</title>
<path fill="none" stroke="midnightblue" d="M1164.07,-235.4C1163.78,-226.06 1163.4,-213.71 1163.09,-203.52"/>
<polygon fill="midnightblue" stroke="midnightblue" points="1166.57,-203.08 1162.77,-193.19 1159.58,-203.3 1166.57,-203.08"/>
</g>
<!-- Node41&#45;&gt;Node9 -->
<g id="edge59" class="edge">
<title>Node41&#45;&gt;Node9</title>
<path fill="none" stroke="midnightblue" d="M1184.03,-235.4C1198.98,-224.6 1219.53,-209.76 1234.58,-198.89"/>
<polygon fill="midnightblue" stroke="midnightblue" points="1236.66,-201.7 1242.72,-193.01 1232.57,-196.02 1236.66,-201.7"/>
</g>
<!-- Node41&#45;&gt;Node10 -->
<g id="edge56" class="edge">
<title>Node41&#45;&gt;Node10</title>
<path fill="none" stroke="midnightblue" d="M1100.83,-236.66C1097.68,-236.08 1094.56,-235.53 1091.5,-235 983.05,-216.27 953.33,-225.47 846.5,-199 843.45,-198.24 840.3,-197.35 837.18,-196.38"/>
<polygon fill="midnightblue" stroke="midnightblue" points="837.98,-192.96 827.39,-193.12 835.77,-199.6 837.98,-192.96"/>
</g>
<!-- Node41&#45;&gt;Node11 -->
<g id="edge57" class="edge">
<title>Node41&#45;&gt;Node11</title>
<path fill="none" stroke="midnightblue" d="M1100.58,-236.19C1056.06,-226.63 995.42,-213 942.5,-199 938.88,-198.04 935.12,-197 931.37,-195.92"/>
<polygon fill="midnightblue" stroke="midnightblue" points="932.15,-192.5 921.57,-193.04 930.17,-199.22 932.15,-192.5"/>
</g>
<!-- Node41&#45;&gt;Node39 -->
<g id="edge53" class="edge">
<title>Node41&#45;&gt;Node39</title>
<path fill="none" stroke="midnightblue" d="M1147.04,-235.28C1136.71,-225.98 1124.19,-212.99 1116.5,-199 1106.7,-181.16 1101.86,-158.2 1099.54,-142.21"/>
<polygon fill="midnightblue" stroke="midnightblue" points="1102.97,-141.45 1098.25,-131.97 1096.02,-142.32 1102.97,-141.45"/>
</g>
<!-- Node42 -->
<g id="node42" class="node">
<title>Node42</title>
<g id="a_node42"><a xlink:title=" ">
<polygon fill="white" stroke="#bfbfbf" points="1017.5,-174 1017.5,-193 1069.5,-193 1069.5,-174 1017.5,-174"/>
<text text-anchor="middle" x="1043.5" y="-181" font-family="Helvetica,sans-Serif" font-size="10.00">stdarg.h</text>
</a>
</g>
</g>
<!-- Node41&#45;&gt;Node42 -->
<g id="edge54" class="edge">
<title>Node41&#45;&gt;Node42</title>
<path fill="none" stroke="midnightblue" d="M1138.24,-235.4C1117.48,-224.24 1088.7,-208.78 1068.32,-197.83"/>
<polygon fill="midnightblue" stroke="midnightblue" points="1069.8,-194.66 1059.34,-193.01 1066.49,-200.82 1069.8,-194.66"/>
</g>
<!-- Node43 -->
<g id="node43" class="node">
<title>Node43</title>
<g id="a_node43"><a xlink:title=" ">
<polygon fill="white" stroke="#bfbfbf" points="951.5,-174 951.5,-193 999.5,-193 999.5,-174 951.5,-174"/>
<text text-anchor="middle" x="975.5" y="-181" font-family="Helvetica,sans-Serif" font-size="10.00">stdlib.h</text>
</a>
</g>
</g>
<!-- Node41&#45;&gt;Node43 -->
<g id="edge55" class="edge">
<title>Node41&#45;&gt;Node43</title>
<path fill="none" stroke="midnightblue" d="M1116.97,-235.48C1085.84,-225.96 1044.42,-212.67 1008.5,-199 1006.89,-198.39 1005.25,-197.74 1003.6,-197.07"/>
<polygon fill="midnightblue" stroke="midnightblue" points="1004.79,-193.77 994.21,-193.11 1002.06,-200.22 1004.79,-193.77"/>
</g>
<!-- Node44&#45;&gt;Node8 -->
<g id="edge63" class="edge">
<title>Node44&#45;&gt;Node8</title>
<path fill="none" stroke="midnightblue" d="M1284.65,-235.4C1257.16,-223.94 1218.75,-207.94 1192.39,-196.95"/>
<polygon fill="midnightblue" stroke="midnightblue" points="1193.49,-193.62 1182.92,-193.01 1190.8,-200.08 1193.49,-193.62"/>
</g>
<!-- Node44&#45;&gt;Node9 -->
<g id="edge64" class="edge">
<title>Node44&#45;&gt;Node9</title>
<path fill="none" stroke="midnightblue" d="M1304.61,-235.4C1294.54,-225.16 1280.88,-211.3 1270.37,-200.62"/>
<polygon fill="midnightblue" stroke="midnightblue" points="1272.57,-197.86 1263.06,-193.19 1267.58,-202.78 1272.57,-197.86"/>
</g>
<!-- Node44&#45;&gt;Node39 -->
<g id="edge61" class="edge">
<title>Node44&#45;&gt;Node39</title>
<path fill="none" stroke="midnightblue" d="M1319.63,-235.26C1320.23,-217.08 1318.32,-185.84 1300.5,-168 1276.68,-144.16 1179.61,-131.16 1128.82,-125.87"/>
<polygon fill="midnightblue" stroke="midnightblue" points="1129.03,-122.37 1118.73,-124.85 1128.33,-129.33 1129.03,-122.37"/>
</g>
<!-- Node45 -->
<g id="node45" class="node">
<title>Node45</title>
<g id="a_node45"><a xlink:title=" ">
<polygon fill="white" stroke="#bfbfbf" points="1347.5,-174 1347.5,-193 1391.5,-193 1391.5,-174 1347.5,-174"/>
<text text-anchor="middle" x="1369.5" y="-181" font-family="Helvetica,sans-Serif" font-size="10.00">cmath</text>
</a>
</g>
</g>
<!-- Node44&#45;&gt;Node45 -->
<g id="edge62" class="edge">
<title>Node44&#45;&gt;Node45</title>
<path fill="none" stroke="midnightblue" d="M1329.57,-235.4C1337.44,-225.36 1348.05,-211.84 1356.35,-201.25"/>
<polygon fill="midnightblue" stroke="midnightblue" points="1359.26,-203.22 1362.68,-193.19 1353.75,-198.9 1359.26,-203.22"/>
</g>
<!-- Node46 -->
<g id="node46" class="node">
<title>Node46</title>
<g id="a_node46"><a xlink:href="_cube_vertex_data_8h.html" target="_top" xlink:title=" ">
<polygon fill="white" stroke="black" points="1410,-168.5 1410,-198.5 1529,-198.5 1529,-168.5 1410,-168.5"/>
<text text-anchor="start" x="1418" y="-186.5" font-family="Helvetica,sans-Serif" font-size="10.00">kryne&#45;engine/Constants</text>
<text text-anchor="middle" x="1469.5" y="-175.5" font-family="Helvetica,sans-Serif" font-size="10.00">/CubeVertexData.h</text>
</a>
</g>
</g>
<!-- Node44&#45;&gt;Node46 -->
<g id="edge65" class="edge">
<title>Node44&#45;&gt;Node46</title>
<path fill="none" stroke="midnightblue" d="M1351.26,-235.4C1373.62,-225.77 1403.44,-212.94 1427.54,-202.56"/>
<polygon fill="midnightblue" stroke="midnightblue" points="1429,-205.75 1436.8,-198.58 1426.23,-199.32 1429,-205.75"/>
</g>
</g>
</svg>
