<?xml version="1.0" encoding="UTF-8" standalone="no"?>
<!DOCTYPE svg PUBLIC "-//W3C//DTD SVG 1.1//EN"
 "http://www.w3.org/Graphics/SVG/1.1/DTD/svg11.dtd">
<!-- Generated by graphviz version 2.44.1 (20200629.0846)
 -->
<!-- Title: kryne&#45;engine/include/kryne&#45;engine/RenderTargets/PostProcess.h Pages: 1 -->
<svg width="1297pt" height="352pt"
 viewBox="0.00 0.00 1297.00 352.00" xmlns="http://www.w3.org/2000/svg" xmlns:xlink="http://www.w3.org/1999/xlink">
<g id="graph0" class="graph" transform="scale(1 1) rotate(0) translate(4 348)">
<title>kryne&#45;engine/include/kryne&#45;engine/RenderTargets/PostProcess.h</title>
<polygon fill="white" stroke="transparent" points="-4,4 -4,-348 1293,-348 1293,4 -4,4"/>
<!-- Node1 -->
<g id="node1" class="node">
<title>Node1</title>
<g id="a_node1"><a xlink:title=" ">
<polygon fill="#bfbfbf" stroke="black" points="469.5,-302.5 469.5,-343.5 610.5,-343.5 610.5,-302.5 469.5,-302.5"/>
<text text-anchor="start" x="477.5" y="-331.5" font-family="Helvetica,sans-Serif" font-size="10.00">kryne&#45;engine/include</text>
<text text-anchor="start" x="477.5" y="-320.5" font-family="Helvetica,sans-Serif" font-size="10.00">/kryne&#45;engine/RenderTargets</text>
<text text-anchor="middle" x="540" y="-309.5" font-family="Helvetica,sans-Serif" font-size="10.00">/PostProcess.h</text>
</a>
</g>
</g>
<!-- Node2 -->
<g id="node2" class="node">
<title>Node2</title>
<g id="a_node2"><a xlink:href="_texture2_d_8h.html" target="_top" xlink:title=" ">
<polygon fill="white" stroke="black" points="362.5,-179.5 362.5,-209.5 475.5,-209.5 475.5,-179.5 362.5,-179.5"/>
<text text-anchor="start" x="370.5" y="-197.5" font-family="Helvetica,sans-Serif" font-size="10.00">kryne&#45;engine/Textures</text>
<text text-anchor="middle" x="419" y="-186.5" font-family="Helvetica,sans-Serif" font-size="10.00">/Texture2D.h</text>
</a>
</g>
</g>
<!-- Node1&#45;&gt;Node2 -->
<g id="edge1" class="edge">
<title>Node1&#45;&gt;Node2</title>
<path fill="none" stroke="midnightblue" d="M521.09,-302.23C499,-279.13 462.56,-241.04 439.71,-217.16"/>
<polygon fill="midnightblue" stroke="midnightblue" points="441.97,-214.45 432.53,-209.64 436.91,-219.29 441.97,-214.45"/>
</g>
<!-- Node20 -->
<g id="node20" class="node">
<title>Node20</title>
<g id="a_node20"><a xlink:href="_final_post_process_8h.html" target="_top" xlink:title=" ">
<polygon fill="white" stroke="black" points="532,-246.5 532,-265.5 634,-265.5 634,-246.5 532,-246.5"/>
<text text-anchor="middle" x="583" y="-253.5" font-family="Helvetica,sans-Serif" font-size="10.00">FinalPostProcess.h</text>
</a>
</g>
</g>
<!-- Node1&#45;&gt;Node20 -->
<g id="edge25" class="edge">
<title>Node1&#45;&gt;Node20</title>
<path fill="none" stroke="midnightblue" d="M552.9,-302.5C558.86,-293.49 565.87,-282.89 571.63,-274.19"/>
<polygon fill="midnightblue" stroke="midnightblue" points="574.68,-275.92 577.28,-265.65 568.84,-272.06 574.68,-275.92"/>
</g>
<!-- Node3 -->
<g id="node3" class="node">
<title>Node3</title>
<g id="a_node3"><a xlink:href="stb__image_8h.html" target="_top" xlink:title=" ">
<polygon fill="white" stroke="black" points="95.5,-112.5 95.5,-142.5 208.5,-142.5 208.5,-112.5 95.5,-112.5"/>
<text text-anchor="start" x="103.5" y="-130.5" font-family="Helvetica,sans-Serif" font-size="10.00">kryne&#45;engine/Textures</text>
<text text-anchor="middle" x="152" y="-119.5" font-family="Helvetica,sans-Serif" font-size="10.00">/stb_image.h</text>
</a>
</g>
</g>
<!-- Node2&#45;&gt;Node3 -->
<g id="edge2" class="edge">
<title>Node2&#45;&gt;Node3</title>
<path fill="none" stroke="midnightblue" d="M362.38,-179.72C320.25,-169.46 262.64,-155.43 218.35,-144.65"/>
<polygon fill="midnightblue" stroke="midnightblue" points="219.09,-141.23 208.54,-142.26 217.43,-148.03 219.09,-141.23"/>
</g>
<!-- Node5 -->
<g id="node5" class="node">
<title>Node5</title>
<g id="a_node5"><a xlink:title=" ">
<polygon fill="white" stroke="#bfbfbf" points="240.5,-0.5 240.5,-19.5 281.5,-19.5 281.5,-0.5 240.5,-0.5"/>
<text text-anchor="middle" x="261" y="-7.5" font-family="Helvetica,sans-Serif" font-size="10.00">string</text>
</a>
</g>
</g>
<!-- Node2&#45;&gt;Node5 -->
<g id="edge4" class="edge">
<title>Node2&#45;&gt;Node5</title>
<path fill="none" stroke="midnightblue" d="M362.42,-188.12C331.77,-182.11 295.96,-169.48 275,-143 248.98,-110.13 252.87,-57.31 257.3,-29.5"/>
<polygon fill="midnightblue" stroke="midnightblue" points="260.77,-30.01 259.09,-19.55 253.88,-28.77 260.77,-30.01"/>
</g>
<!-- Node6 -->
<g id="node6" class="node">
<title>Node6</title>
<g id="a_node6"><a xlink:title=" ">
<polygon fill="white" stroke="#bfbfbf" points="0,-0.5 0,-19.5 54,-19.5 54,-0.5 0,-0.5"/>
<text text-anchor="middle" x="27" y="-7.5" font-family="Helvetica,sans-Serif" font-size="10.00">iostream</text>
</a>
</g>
</g>
<!-- Node2&#45;&gt;Node6 -->
<g id="edge5" class="edge">
<title>Node2&#45;&gt;Node6</title>
<path fill="none" stroke="midnightblue" d="M362.23,-191.36C278.79,-187.15 128.34,-175.22 86,-143 49.14,-114.95 34.77,-58.77 29.61,-29.57"/>
<polygon fill="midnightblue" stroke="midnightblue" points="33.04,-28.83 28.01,-19.5 26.12,-29.93 33.04,-28.83"/>
</g>
<!-- Node7 -->
<g id="node7" class="node">
<title>Node7</title>
<g id="a_node7"><a xlink:title=" ">
<polygon fill="white" stroke="#bfbfbf" points="283.5,-118 283.5,-137 390.5,-137 390.5,-118 283.5,-118"/>
<text text-anchor="middle" x="337" y="-125" font-family="Helvetica,sans-Serif" font-size="10.00">boost/filesystem.hpp</text>
</a>
</g>
</g>
<!-- Node2&#45;&gt;Node7 -->
<g id="edge6" class="edge">
<title>Node2&#45;&gt;Node7</title>
<path fill="none" stroke="midnightblue" d="M401.21,-179.4C387.92,-168.86 369.77,-154.48 356.16,-143.69"/>
<polygon fill="midnightblue" stroke="midnightblue" points="357.98,-140.66 347.97,-137.19 353.63,-146.15 357.98,-140.66"/>
</g>
<!-- Node8 -->
<g id="node8" class="node">
<title>Node8</title>
<g id="a_node8"><a xlink:title=" ">
<polygon fill="white" stroke="#bfbfbf" points="732,-0.5 732,-19.5 796,-19.5 796,-0.5 732,-0.5"/>
<text text-anchor="middle" x="764" y="-7.5" font-family="Helvetica,sans-Serif" font-size="10.00">glad/glad.h</text>
</a>
</g>
</g>
<!-- Node2&#45;&gt;Node8 -->
<g id="edge7" class="edge">
<title>Node2&#45;&gt;Node8</title>
<path fill="none" stroke="midnightblue" d="M470.3,-179.43C499.15,-170.65 535.4,-158.14 566,-143 636.02,-108.35 710.63,-52.87 744.85,-26.23"/>
<polygon fill="midnightblue" stroke="midnightblue" points="747.31,-28.75 753.02,-19.82 742.99,-23.24 747.31,-28.75"/>
</g>
<!-- Node9 -->
<g id="node9" class="node">
<title>Node9</title>
<g id="a_node9"><a xlink:title=" ">
<polygon fill="white" stroke="#bfbfbf" points="636,-0.5 636,-19.5 714,-19.5 714,-0.5 636,-0.5"/>
<text text-anchor="middle" x="675" y="-7.5" font-family="Helvetica,sans-Serif" font-size="10.00">GLFW/glfw3.h</text>
</a>
</g>
</g>
<!-- Node2&#45;&gt;Node9 -->
<g id="edge8" class="edge">
<title>Node2&#45;&gt;Node9</title>
<path fill="none" stroke="midnightblue" d="M416.63,-179.13C412.91,-151.25 409.22,-89.61 442,-56 442.81,-55.17 557.68,-33.26 625.81,-20.32"/>
<polygon fill="midnightblue" stroke="midnightblue" points="626.74,-23.71 635.91,-18.4 625.43,-16.83 626.74,-23.71"/>
</g>
<!-- Node10 -->
<g id="node10" class="node">
<title>Node10</title>
<g id="a_node10"><a xlink:href="_shader_8h.html" target="_top" xlink:title=" ">
<polygon fill="white" stroke="black" points="447,-112.5 447,-142.5 557,-142.5 557,-112.5 447,-112.5"/>
<text text-anchor="start" x="455" y="-130.5" font-family="Helvetica,sans-Serif" font-size="10.00">kryne&#45;engine/Material</text>
<text text-anchor="middle" x="502" y="-119.5" font-family="Helvetica,sans-Serif" font-size="10.00">/Shader.h</text>
</a>
</g>
</g>
<!-- Node2&#45;&gt;Node10 -->
<g id="edge9" class="edge">
<title>Node2&#45;&gt;Node10</title>
<path fill="none" stroke="midnightblue" d="M437.01,-179.4C448.43,-170.45 463.39,-158.74 476.08,-148.8"/>
<polygon fill="midnightblue" stroke="midnightblue" points="478.31,-151.5 484.03,-142.58 473.99,-145.99 478.31,-151.5"/>
</g>
<!-- Node4 -->
<g id="node4" class="node">
<title>Node4</title>
<g id="a_node4"><a xlink:title=" ">
<polygon fill="white" stroke="#bfbfbf" points="77,-56.5 77,-75.5 123,-75.5 123,-56.5 77,-56.5"/>
<text text-anchor="middle" x="100" y="-63.5" font-family="Helvetica,sans-Serif" font-size="10.00">stdio.h</text>
</a>
</g>
</g>
<!-- Node3&#45;&gt;Node4 -->
<g id="edge3" class="edge">
<title>Node3&#45;&gt;Node4</title>
<path fill="none" stroke="midnightblue" d="M139.68,-112.4C132.04,-103.66 122.21,-92.41 114.24,-83.3"/>
<polygon fill="midnightblue" stroke="midnightblue" points="116.78,-80.88 107.57,-75.66 111.51,-85.49 116.78,-80.88"/>
</g>
<!-- Node11 -->
<g id="node11" class="node">
<title>Node11</title>
<g id="a_node11"><a xlink:title=" ">
<polygon fill="white" stroke="#bfbfbf" points="521.5,-56.5 521.5,-75.5 556.5,-75.5 556.5,-56.5 521.5,-56.5"/>
<text text-anchor="middle" x="539" y="-63.5" font-family="Helvetica,sans-Serif" font-size="10.00">map</text>
</a>
</g>
</g>
<!-- Node10&#45;&gt;Node11 -->
<g id="edge10" class="edge">
<title>Node10&#45;&gt;Node11</title>
<path fill="none" stroke="midnightblue" d="M510.77,-112.4C515.98,-104.02 522.63,-93.33 528.17,-84.42"/>
<polygon fill="midnightblue" stroke="midnightblue" points="531.31,-86 533.62,-75.66 525.36,-82.3 531.31,-86"/>
</g>
<!-- Node12 -->
<g id="node12" class="node">
<title>Node12</title>
<g id="a_node12"><a xlink:title=" ">
<polygon fill="white" stroke="#bfbfbf" points="451,-56.5 451,-75.5 503,-75.5 503,-56.5 451,-56.5"/>
<text text-anchor="middle" x="477" y="-63.5" font-family="Helvetica,sans-Serif" font-size="10.00">sstream</text>
</a>
</g>
</g>
<!-- Node10&#45;&gt;Node12 -->
<g id="edge11" class="edge">
<title>Node10&#45;&gt;Node12</title>
<path fill="none" stroke="midnightblue" d="M496.08,-112.4C492.63,-104.2 488.25,-93.78 484.56,-84.99"/>
<polygon fill="midnightblue" stroke="midnightblue" points="487.74,-83.52 480.64,-75.66 481.28,-86.23 487.74,-83.52"/>
</g>
<!-- Node13 -->
<g id="node13" class="node">
<title>Node13</title>
<g id="a_node13"><a xlink:href="_uniforms_handler_8h.html" target="_top" xlink:title=" ">
<polygon fill="white" stroke="black" points="297,-56.5 297,-75.5 393,-75.5 393,-56.5 297,-56.5"/>
<text text-anchor="middle" x="345" y="-63.5" font-family="Helvetica,sans-Serif" font-size="10.00">UniformsHandler.h</text>
</a>
</g>
</g>
<!-- Node10&#45;&gt;Node13 -->
<g id="edge12" class="edge">
<title>Node10&#45;&gt;Node13</title>
<path fill="none" stroke="midnightblue" d="M464.79,-112.4C438.22,-102.33 402.81,-88.91 377.39,-79.28"/>
<polygon fill="midnightblue" stroke="midnightblue" points="378.44,-75.93 367.84,-75.66 375.96,-82.47 378.44,-75.93"/>
</g>
<!-- Node18 -->
<g id="node18" class="node">
<title>Node18</title>
<g id="a_node18"><a xlink:href="_shader_chunk_8h.html" target="_top" xlink:title=" ">
<polygon fill="white" stroke="black" points="141.5,-56.5 141.5,-75.5 224.5,-75.5 224.5,-56.5 141.5,-56.5"/>
<text text-anchor="middle" x="183" y="-63.5" font-family="Helvetica,sans-Serif" font-size="10.00">ShaderChunk.h</text>
</a>
</g>
</g>
<!-- Node10&#45;&gt;Node18 -->
<g id="edge20" class="edge">
<title>Node10&#45;&gt;Node18</title>
<path fill="none" stroke="midnightblue" d="M446.8,-116.2C387.25,-105.1 293.15,-87.55 234.91,-76.68"/>
<polygon fill="midnightblue" stroke="midnightblue" points="235.3,-73.19 224.83,-74.8 234.01,-80.08 235.3,-73.19"/>
</g>
<!-- Node13&#45;&gt;Node5 -->
<g id="edge13" class="edge">
<title>Node13&#45;&gt;Node5</title>
<path fill="none" stroke="midnightblue" d="M331.5,-56.32C318.4,-47.9 298.29,-34.97 282.89,-25.07"/>
<polygon fill="midnightblue" stroke="midnightblue" points="284.77,-22.12 274.46,-19.65 280.98,-28.01 284.77,-22.12"/>
</g>
<!-- Node13&#45;&gt;Node8 -->
<g id="edge15" class="edge">
<title>Node13&#45;&gt;Node8</title>
<path fill="none" stroke="midnightblue" d="M393.01,-59.88C476.13,-50.91 644.57,-32.31 721.59,-20.06"/>
<polygon fill="midnightblue" stroke="midnightblue" points="722.53,-23.45 731.83,-18.37 721.39,-16.54 722.53,-23.45"/>
</g>
<!-- Node13&#45;&gt;Node9 -->
<g id="edge16" class="edge">
<title>Node13&#45;&gt;Node9</title>
<path fill="none" stroke="midnightblue" d="M393.22,-57.71C447.39,-49.43 538.2,-35.29 626.11,-20.12"/>
<polygon fill="midnightblue" stroke="midnightblue" points="626.73,-23.56 635.98,-18.41 625.53,-16.67 626.73,-23.56"/>
</g>
<!-- Node14 -->
<g id="node14" class="node">
<title>Node14</title>
<g id="a_node14"><a xlink:title=" ">
<polygon fill="white" stroke="#bfbfbf" points="139.5,-0.5 139.5,-19.5 222.5,-19.5 222.5,-0.5 139.5,-0.5"/>
<text text-anchor="middle" x="181" y="-7.5" font-family="Helvetica,sans-Serif" font-size="10.00">unordered_map</text>
</a>
</g>
</g>
<!-- Node13&#45;&gt;Node14 -->
<g id="edge14" class="edge">
<title>Node13&#45;&gt;Node14</title>
<path fill="none" stroke="midnightblue" d="M319.01,-56.44C291.3,-47.32 247.25,-32.81 216.38,-22.65"/>
<polygon fill="midnightblue" stroke="midnightblue" points="217.46,-19.32 206.86,-19.52 215.27,-25.97 217.46,-19.32"/>
</g>
<!-- Node15 -->
<g id="node15" class="node">
<title>Node15</title>
<g id="a_node15"><a xlink:title=" ">
<polygon fill="white" stroke="#bfbfbf" points="408,-0.5 408,-19.5 494,-19.5 494,-0.5 408,-0.5"/>
<text text-anchor="middle" x="451" y="-7.5" font-family="Helvetica,sans-Serif" font-size="10.00">glm/mat4x4.hpp</text>
</a>
</g>
</g>
<!-- Node13&#45;&gt;Node15 -->
<g id="edge17" class="edge">
<title>Node13&#45;&gt;Node15</title>
<path fill="none" stroke="midnightblue" d="M362.03,-56.32C379.03,-47.66 405.38,-34.24 424.99,-24.25"/>
<polygon fill="midnightblue" stroke="midnightblue" points="426.69,-27.31 434.01,-19.65 423.51,-21.08 426.69,-27.31"/>
</g>
<!-- Node16 -->
<g id="node16" class="node">
<title>Node16</title>
<g id="a_node16"><a xlink:title=" ">
<polygon fill="white" stroke="#bfbfbf" points="512,-0.5 512,-19.5 618,-19.5 618,-0.5 512,-0.5"/>
<text text-anchor="middle" x="565" y="-7.5" font-family="Helvetica,sans-Serif" font-size="10.00">glm/gtc/type_ptr.hpp</text>
</a>
</g>
</g>
<!-- Node13&#45;&gt;Node16 -->
<g id="edge18" class="edge">
<title>Node13&#45;&gt;Node16</title>
<path fill="none" stroke="midnightblue" d="M379.86,-56.44C417.92,-47.1 478.96,-32.12 520.46,-21.93"/>
<polygon fill="midnightblue" stroke="midnightblue" points="521.43,-25.3 530.3,-19.52 519.76,-18.5 521.43,-25.3"/>
</g>
<!-- Node17 -->
<g id="node17" class="node">
<title>Node17</title>
<g id="a_node17"><a xlink:title=" ">
<polygon fill="white" stroke="#bfbfbf" points="300,-0.5 300,-19.5 390,-19.5 390,-0.5 300,-0.5"/>
<text text-anchor="middle" x="345" y="-7.5" font-family="Helvetica,sans-Serif" font-size="10.00">boost/variant.hpp</text>
</a>
</g>
</g>
<!-- Node13&#45;&gt;Node17 -->
<g id="edge19" class="edge">
<title>Node13&#45;&gt;Node17</title>
<path fill="none" stroke="midnightblue" d="M345,-56.08C345,-49.01 345,-38.86 345,-29.99"/>
<polygon fill="midnightblue" stroke="midnightblue" points="348.5,-29.75 345,-19.75 341.5,-29.75 348.5,-29.75"/>
</g>
<!-- Node18&#45;&gt;Node5 -->
<g id="edge22" class="edge">
<title>Node18&#45;&gt;Node5</title>
<path fill="none" stroke="midnightblue" d="M195.53,-56.32C207.59,-47.98 226.03,-35.21 240.27,-25.35"/>
<polygon fill="midnightblue" stroke="midnightblue" points="242.27,-28.22 248.5,-19.65 238.28,-22.47 242.27,-28.22"/>
</g>
<!-- Node18&#45;&gt;Node6 -->
<g id="edge24" class="edge">
<title>Node18&#45;&gt;Node6</title>
<path fill="none" stroke="midnightblue" d="M158.28,-56.44C132.15,-47.4 90.74,-33.06 61.42,-22.92"/>
<polygon fill="midnightblue" stroke="midnightblue" points="62.2,-19.48 51.6,-19.52 59.91,-26.1 62.2,-19.48"/>
</g>
<!-- Node18&#45;&gt;Node14 -->
<g id="edge21" class="edge">
<title>Node18&#45;&gt;Node14</title>
<path fill="none" stroke="midnightblue" d="M182.67,-56.08C182.41,-49.01 182.03,-38.86 181.7,-29.99"/>
<polygon fill="midnightblue" stroke="midnightblue" points="185.19,-29.61 181.32,-19.75 178.2,-29.87 185.19,-29.61"/>
</g>
<!-- Node19 -->
<g id="node19" class="node">
<title>Node19</title>
<g id="a_node19"><a xlink:title=" ">
<polygon fill="white" stroke="#bfbfbf" points="72.5,-0.5 72.5,-19.5 121.5,-19.5 121.5,-0.5 72.5,-0.5"/>
<text text-anchor="middle" x="97" y="-7.5" font-family="Helvetica,sans-Serif" font-size="10.00">fstream</text>
</a>
</g>
</g>
<!-- Node18&#45;&gt;Node19 -->
<g id="edge23" class="edge">
<title>Node18&#45;&gt;Node19</title>
<path fill="none" stroke="midnightblue" d="M169.18,-56.32C155.77,-47.9 135.18,-34.97 119.41,-25.07"/>
<polygon fill="midnightblue" stroke="midnightblue" points="121.11,-22.01 110.78,-19.65 117.39,-27.94 121.11,-22.01"/>
</g>
<!-- Node20&#45;&gt;Node2 -->
<g id="edge42" class="edge">
<title>Node20&#45;&gt;Node2</title>
<path fill="none" stroke="midnightblue" d="M559.5,-246.48C535.53,-237.78 497.63,-224.03 467.23,-213"/>
<polygon fill="midnightblue" stroke="midnightblue" points="468.25,-209.64 457.65,-209.52 465.86,-216.22 468.25,-209.64"/>
</g>
<!-- Node20&#45;&gt;Node10 -->
<g id="edge27" class="edge">
<title>Node20&#45;&gt;Node10</title>
<path fill="none" stroke="midnightblue" d="M577.43,-246.31C565.05,-226.96 534.88,-179.85 516.67,-151.41"/>
<polygon fill="midnightblue" stroke="midnightblue" points="519.55,-149.42 511.21,-142.89 513.66,-153.2 519.55,-149.42"/>
</g>
<!-- Node20&#45;&gt;Node11 -->
<g id="edge26" class="edge">
<title>Node20&#45;&gt;Node11</title>
<path fill="none" stroke="midnightblue" d="M583.21,-246.34C583.52,-223.63 582.66,-160.73 566,-112 562.65,-102.21 556.96,-92.25 551.67,-84.2"/>
<polygon fill="midnightblue" stroke="midnightblue" points="554.37,-81.96 545.79,-75.75 548.63,-85.96 554.37,-81.96"/>
</g>
<!-- Node21 -->
<g id="node21" class="node">
<title>Node21</title>
<g id="a_node21"><a xlink:href="_vertex_array_8h.html" target="_top" xlink:title=" ">
<polygon fill="white" stroke="black" points="1008.5,-179.5 1008.5,-209.5 1135.5,-209.5 1135.5,-179.5 1008.5,-179.5"/>
<text text-anchor="start" x="1016.5" y="-197.5" font-family="Helvetica,sans-Serif" font-size="10.00">kryne&#45;engine/Core/Vertex</text>
<text text-anchor="middle" x="1072" y="-186.5" font-family="Helvetica,sans-Serif" font-size="10.00">Array.h</text>
</a>
</g>
</g>
<!-- Node20&#45;&gt;Node21 -->
<g id="edge28" class="edge">
<title>Node20&#45;&gt;Node21</title>
<path fill="none" stroke="midnightblue" d="M634.41,-248.74C721.41,-238.16 897.98,-216.67 998.19,-204.48"/>
<polygon fill="midnightblue" stroke="midnightblue" points="998.74,-207.94 1008.24,-203.26 997.89,-200.99 998.74,-207.94"/>
</g>
<!-- Node27 -->
<g id="node27" class="node">
<title>Node27</title>
<g id="a_node27"><a xlink:href="_geometric_shapes_8h.html" target="_top" xlink:title=" ">
<polygon fill="white" stroke="black" points="769.5,-179.5 769.5,-209.5 912.5,-209.5 912.5,-179.5 769.5,-179.5"/>
<text text-anchor="start" x="777.5" y="-197.5" font-family="Helvetica,sans-Serif" font-size="10.00">kryne&#45;engine/Core/Geometric</text>
<text text-anchor="middle" x="841" y="-186.5" font-family="Helvetica,sans-Serif" font-size="10.00">Shapes.h</text>
</a>
</g>
</g>
<!-- Node20&#45;&gt;Node27 -->
<g id="edge36" class="edge">
<title>Node20&#45;&gt;Node27</title>
<path fill="none" stroke="midnightblue" d="M619.97,-246.48C659.07,-237.46 721.72,-223.01 770.36,-211.79"/>
<polygon fill="midnightblue" stroke="midnightblue" points="771.24,-215.18 780.19,-209.52 769.66,-208.36 771.24,-215.18"/>
</g>
<!-- Node21&#45;&gt;Node8 -->
<g id="edge32" class="edge">
<title>Node21&#45;&gt;Node8</title>
<path fill="none" stroke="midnightblue" d="M1090.81,-179.37C1101.27,-170.29 1113.3,-157.49 1119,-143 1133.15,-107.02 1144.56,-85.01 1119,-56 1098.58,-32.83 895.64,-18.5 806.09,-13.26"/>
<polygon fill="midnightblue" stroke="midnightblue" points="806.19,-9.76 796,-12.68 805.79,-16.75 806.19,-9.76"/>
</g>
<!-- Node21&#45;&gt;Node9 -->
<g id="edge33" class="edge">
<title>Node21&#45;&gt;Node9</title>
<path fill="none" stroke="midnightblue" d="M1080.45,-179.21C1089.68,-161.54 1101.24,-131.43 1086,-112 1074.68,-97.56 830.66,-44.13 724.08,-21.38"/>
<polygon fill="midnightblue" stroke="midnightblue" points="724.72,-17.93 714.21,-19.27 723.26,-24.78 724.72,-17.93"/>
</g>
<!-- Node22 -->
<g id="node22" class="node">
<title>Node22</title>
<g id="a_node22"><a xlink:title=" ">
<polygon fill="white" stroke="#bfbfbf" points="851,-118 851,-137 893,-137 893,-118 851,-118"/>
<text text-anchor="middle" x="872" y="-125" font-family="Helvetica,sans-Serif" font-size="10.00">vector</text>
</a>
</g>
</g>
<!-- Node21&#45;&gt;Node22 -->
<g id="edge29" class="edge">
<title>Node21&#45;&gt;Node22</title>
<path fill="none" stroke="midnightblue" d="M1016.5,-179.45C982.91,-170.35 939.47,-157.51 902,-143 900.62,-142.46 899.21,-141.89 897.8,-141.29"/>
<polygon fill="midnightblue" stroke="midnightblue" points="899.16,-138.07 888.61,-137.12 896.26,-144.44 899.16,-138.07"/>
</g>
<!-- Node23 -->
<g id="node23" class="node">
<title>Node23</title>
<g id="a_node23"><a xlink:title=" ">
<polygon fill="white" stroke="#bfbfbf" points="1171,-118 1171,-137 1223,-137 1223,-118 1171,-118"/>
<text text-anchor="middle" x="1197" y="-125" font-family="Helvetica,sans-Serif" font-size="10.00">stdarg.h</text>
</a>
</g>
</g>
<!-- Node21&#45;&gt;Node23 -->
<g id="edge30" class="edge">
<title>Node21&#45;&gt;Node23</title>
<path fill="none" stroke="midnightblue" d="M1099.12,-179.4C1120.67,-168.19 1150.57,-152.64 1171.64,-141.69"/>
<polygon fill="midnightblue" stroke="midnightblue" points="1173.38,-144.73 1180.64,-137.01 1170.15,-138.52 1173.38,-144.73"/>
</g>
<!-- Node24 -->
<g id="node24" class="node">
<title>Node24</title>
<g id="a_node24"><a xlink:title=" ">
<polygon fill="white" stroke="#bfbfbf" points="1241,-118 1241,-137 1289,-137 1289,-118 1241,-118"/>
<text text-anchor="middle" x="1265" y="-125" font-family="Helvetica,sans-Serif" font-size="10.00">stdlib.h</text>
</a>
</g>
</g>
<!-- Node21&#45;&gt;Node24 -->
<g id="edge31" class="edge">
<title>Node21&#45;&gt;Node24</title>
<path fill="none" stroke="midnightblue" d="M1121.13,-179.49C1153.03,-170.04 1195.33,-156.8 1232,-143 1233.61,-142.39 1235.26,-141.75 1236.91,-141.09"/>
<polygon fill="midnightblue" stroke="midnightblue" points="1238.44,-144.24 1246.3,-137.14 1235.72,-137.79 1238.44,-144.24"/>
</g>
<!-- Node25 -->
<g id="node25" class="node">
<title>Node25</title>
<g id="a_node25"><a xlink:title=" ">
<polygon fill="white" stroke="#bfbfbf" points="911,-118 911,-137 985,-137 985,-118 911,-118"/>
<text text-anchor="middle" x="948" y="-125" font-family="Helvetica,sans-Serif" font-size="10.00">glm/vec2.hpp</text>
</a>
</g>
</g>
<!-- Node21&#45;&gt;Node25 -->
<g id="edge34" class="edge">
<title>Node21&#45;&gt;Node25</title>
<path fill="none" stroke="midnightblue" d="M1045.09,-179.4C1023.72,-168.19 994.05,-152.64 973.15,-141.69"/>
<polygon fill="midnightblue" stroke="midnightblue" points="974.71,-138.55 964.23,-137.01 971.46,-144.75 974.71,-138.55"/>
</g>
<!-- Node26 -->
<g id="node26" class="node">
<title>Node26</title>
<g id="a_node26"><a xlink:title=" ">
<polygon fill="white" stroke="#bfbfbf" points="1003,-118 1003,-137 1077,-137 1077,-118 1003,-118"/>
<text text-anchor="middle" x="1040" y="-125" font-family="Helvetica,sans-Serif" font-size="10.00">glm/vec3.hpp</text>
</a>
</g>
</g>
<!-- Node21&#45;&gt;Node26 -->
<g id="edge35" class="edge">
<title>Node21&#45;&gt;Node26</title>
<path fill="none" stroke="midnightblue" d="M1065.06,-179.4C1060.26,-169.66 1053.86,-156.65 1048.72,-146.21"/>
<polygon fill="midnightblue" stroke="midnightblue" points="1051.84,-144.62 1044.28,-137.19 1045.56,-147.71 1051.84,-144.62"/>
</g>
<!-- Node27&#45;&gt;Node22 -->
<g id="edge37" class="edge">
<title>Node27&#45;&gt;Node22</title>
<path fill="none" stroke="midnightblue" d="M847.73,-179.4C852.32,-169.76 858.45,-156.91 863.4,-146.54"/>
<polygon fill="midnightblue" stroke="midnightblue" points="866.71,-147.73 867.85,-137.19 860.39,-144.71 866.71,-147.73"/>
</g>
<!-- Node27&#45;&gt;Node25 -->
<g id="edge39" class="edge">
<title>Node27&#45;&gt;Node25</title>
<path fill="none" stroke="midnightblue" d="M864.22,-179.4C882.33,-168.39 907.34,-153.2 925.31,-142.28"/>
<polygon fill="midnightblue" stroke="midnightblue" points="927.27,-145.19 934,-137.01 923.63,-139.21 927.27,-145.19"/>
</g>
<!-- Node27&#45;&gt;Node26 -->
<g id="edge40" class="edge">
<title>Node27&#45;&gt;Node26</title>
<path fill="none" stroke="midnightblue" d="M884.18,-179.4C920.02,-167.69 970.41,-151.23 1004.08,-140.23"/>
<polygon fill="midnightblue" stroke="midnightblue" points="1005.54,-143.44 1013.96,-137.01 1003.36,-136.78 1005.54,-143.44"/>
</g>
<!-- Node28 -->
<g id="node28" class="node">
<title>Node28</title>
<g id="a_node28"><a xlink:title=" ">
<polygon fill="white" stroke="#bfbfbf" points="789,-118 789,-137 833,-137 833,-118 789,-118"/>
<text text-anchor="middle" x="811" y="-125" font-family="Helvetica,sans-Serif" font-size="10.00">cmath</text>
</a>
</g>
</g>
<!-- Node27&#45;&gt;Node28 -->
<g id="edge38" class="edge">
<title>Node27&#45;&gt;Node28</title>
<path fill="none" stroke="midnightblue" d="M834.49,-179.4C830.04,-169.76 824.11,-156.91 819.32,-146.54"/>
<polygon fill="midnightblue" stroke="midnightblue" points="822.38,-144.81 815.01,-137.19 816.03,-147.74 822.38,-144.81"/>
</g>
<!-- Node29 -->
<g id="node29" class="node">
<title>Node29</title>
<g id="a_node29"><a xlink:href="_cube_vertex_data_8h.html" target="_top" xlink:title=" ">
<polygon fill="white" stroke="black" points="651.5,-112.5 651.5,-142.5 770.5,-142.5 770.5,-112.5 651.5,-112.5"/>
<text text-anchor="start" x="659.5" y="-130.5" font-family="Helvetica,sans-Serif" font-size="10.00">kryne&#45;engine/Constants</text>
<text text-anchor="middle" x="711" y="-119.5" font-family="Helvetica,sans-Serif" font-size="10.00">/CubeVertexData.h</text>
</a>
</g>
</g>
<!-- Node27&#45;&gt;Node29 -->
<g id="edge41" class="edge">
<title>Node27&#45;&gt;Node29</title>
<path fill="none" stroke="midnightblue" d="M812.79,-179.4C793.88,-169.94 768.78,-157.39 748.23,-147.12"/>
<polygon fill="midnightblue" stroke="midnightblue" points="749.66,-143.92 739.15,-142.58 746.53,-150.18 749.66,-143.92"/>
</g>
</g>
</svg>
