<?xml version="1.0" encoding="UTF-8" standalone="no"?>
<!DOCTYPE svg PUBLIC "-//W3C//DTD SVG 1.1//EN"
 "http://www.w3.org/Graphics/SVG/1.1/DTD/svg11.dtd">
<!-- Generated by graphviz version 2.44.1 (20200629.0846)
 -->
<!-- Title: kryne&#45;engine/src/RenderTargets/PostProcess.cpp Pages: 1 -->
<svg width="1487pt" height="598pt"
 viewBox="0.00 0.00 1486.68 598.00" xmlns="http://www.w3.org/2000/svg" xmlns:xlink="http://www.w3.org/1999/xlink">
<g id="graph0" class="graph" transform="scale(1 1) rotate(0) translate(4 594)">
<title>kryne&#45;engine/src/RenderTargets/PostProcess.cpp</title>
<polygon fill="white" stroke="transparent" points="-4,4 -4,-594 1482.68,-594 1482.68,4 -4,4"/>
<!-- Node1 -->
<g id="node1" class="node">
<title>Node1</title>
<g id="a_node1"><a xlink:title=" ">
<polygon fill="#bfbfbf" stroke="black" points="191,-559.5 191,-589.5 346,-589.5 346,-559.5 191,-559.5"/>
<text text-anchor="start" x="199" y="-577.5" font-family="Helvetica,sans-Serif" font-size="10.00">kryne&#45;engine/src/RenderTargets</text>
<text text-anchor="middle" x="268.5" y="-566.5" font-family="Helvetica,sans-Serif" font-size="10.00">/PostProcess.cpp</text>
</a>
</g>
</g>
<!-- Node2 -->
<g id="node2" class="node">
<title>Node2</title>
<g id="a_node2"><a xlink:href="_geometric_shapes_8h.html" target="_top" xlink:title=" ">
<polygon fill="white" stroke="black" points="88,-235.5 88,-265.5 231,-265.5 231,-235.5 88,-235.5"/>
<text text-anchor="start" x="96" y="-253.5" font-family="Helvetica,sans-Serif" font-size="10.00">kryne&#45;engine/Core/Geometric</text>
<text text-anchor="middle" x="159.5" y="-242.5" font-family="Helvetica,sans-Serif" font-size="10.00">Shapes.h</text>
</a>
</g>
</g>
<!-- Node1&#45;&gt;Node2 -->
<g id="edge1" class="edge">
<title>Node1&#45;&gt;Node2</title>
<path fill="none" stroke="midnightblue" d="M257.24,-559.26C240.63,-536.78 211.5,-491.08 211.5,-447 211.5,-447 211.5,-447 211.5,-383.5 211.5,-342.92 189.96,-299.89 174.61,-274.38"/>
<polygon fill="midnightblue" stroke="midnightblue" points="177.53,-272.46 169.28,-265.81 171.59,-276.15 177.53,-272.46"/>
</g>
<!-- Node8 -->
<g id="node8" class="node">
<title>Node8</title>
<g id="a_node8"><a xlink:href="_post_process_8h.html" target="_top" xlink:title=" ">
<polygon fill="white" stroke="black" points="511.5,-492.5 511.5,-522.5 649.5,-522.5 649.5,-492.5 511.5,-492.5"/>
<text text-anchor="start" x="519.5" y="-510.5" font-family="Helvetica,sans-Serif" font-size="10.00">kryne&#45;engine/RenderTargets</text>
<text text-anchor="middle" x="580.5" y="-499.5" font-family="Helvetica,sans-Serif" font-size="10.00">/PostProcess.h</text>
</a>
</g>
</g>
<!-- Node1&#45;&gt;Node8 -->
<g id="edge7" class="edge">
<title>Node1&#45;&gt;Node8</title>
<path fill="none" stroke="midnightblue" d="M335.82,-559.48C384.94,-549.24 451.63,-535.35 502.98,-524.65"/>
<polygon fill="midnightblue" stroke="midnightblue" points="503.96,-528.02 513.04,-522.55 502.53,-521.17 503.96,-528.02"/>
</g>
<!-- Node3 -->
<g id="node3" class="node">
<title>Node3</title>
<g id="a_node3"><a xlink:title=" ">
<polygon fill="white" stroke="#bfbfbf" points="226.5,-112.5 226.5,-131.5 268.5,-131.5 268.5,-112.5 226.5,-112.5"/>
<text text-anchor="middle" x="247.5" y="-119.5" font-family="Helvetica,sans-Serif" font-size="10.00">vector</text>
</a>
</g>
</g>
<!-- Node2&#45;&gt;Node3 -->
<g id="edge2" class="edge">
<title>Node2&#45;&gt;Node3</title>
<path fill="none" stroke="midnightblue" d="M169.25,-235.48C185.51,-212.1 218.11,-165.25 235.66,-140.02"/>
<polygon fill="midnightblue" stroke="midnightblue" points="238.55,-142 241.39,-131.79 232.8,-138 238.55,-142"/>
</g>
<!-- Node4 -->
<g id="node4" class="node">
<title>Node4</title>
<g id="a_node4"><a xlink:title=" ">
<polygon fill="white" stroke="#bfbfbf" points="137.5,-174 137.5,-193 181.5,-193 181.5,-174 137.5,-174"/>
<text text-anchor="middle" x="159.5" y="-181" font-family="Helvetica,sans-Serif" font-size="10.00">cmath</text>
</a>
</g>
</g>
<!-- Node2&#45;&gt;Node4 -->
<g id="edge3" class="edge">
<title>Node2&#45;&gt;Node4</title>
<path fill="none" stroke="midnightblue" d="M159.5,-235.4C159.5,-226.06 159.5,-213.71 159.5,-203.52"/>
<polygon fill="midnightblue" stroke="midnightblue" points="163,-203.19 159.5,-193.19 156,-203.19 163,-203.19"/>
</g>
<!-- Node5 -->
<g id="node5" class="node">
<title>Node5</title>
<g id="a_node5"><a xlink:title=" ">
<polygon fill="white" stroke="#bfbfbf" points="275.5,-174 275.5,-193 349.5,-193 349.5,-174 275.5,-174"/>
<text text-anchor="middle" x="312.5" y="-181" font-family="Helvetica,sans-Serif" font-size="10.00">glm/vec2.hpp</text>
</a>
</g>
</g>
<!-- Node2&#45;&gt;Node5 -->
<g id="edge4" class="edge">
<title>Node2&#45;&gt;Node5</title>
<path fill="none" stroke="midnightblue" d="M192.7,-235.4C219.66,-223.94 257.33,-207.94 283.19,-196.95"/>
<polygon fill="midnightblue" stroke="midnightblue" points="284.64,-200.14 292.48,-193.01 281.9,-193.7 284.64,-200.14"/>
</g>
<!-- Node6 -->
<g id="node6" class="node">
<title>Node6</title>
<g id="a_node6"><a xlink:title=" ">
<polygon fill="white" stroke="#bfbfbf" points="367.5,-174 367.5,-193 441.5,-193 441.5,-174 367.5,-174"/>
<text text-anchor="middle" x="404.5" y="-181" font-family="Helvetica,sans-Serif" font-size="10.00">glm/vec3.hpp</text>
</a>
</g>
</g>
<!-- Node2&#45;&gt;Node6 -->
<g id="edge5" class="edge">
<title>Node2&#45;&gt;Node6</title>
<path fill="none" stroke="midnightblue" d="M218.51,-235.46C258.23,-225.78 311.7,-212.3 358.5,-199 361.82,-198.06 365.27,-197.04 368.71,-196"/>
<polygon fill="midnightblue" stroke="midnightblue" points="369.78,-199.33 378.31,-193.04 367.72,-192.64 369.78,-199.33"/>
</g>
<!-- Node7 -->
<g id="node7" class="node">
<title>Node7</title>
<g id="a_node7"><a xlink:href="_cube_vertex_data_8h.html" target="_top" xlink:title=" ">
<polygon fill="white" stroke="black" points="0,-168.5 0,-198.5 119,-198.5 119,-168.5 0,-168.5"/>
<text text-anchor="start" x="8" y="-186.5" font-family="Helvetica,sans-Serif" font-size="10.00">kryne&#45;engine/Constants</text>
<text text-anchor="middle" x="59.5" y="-175.5" font-family="Helvetica,sans-Serif" font-size="10.00">/CubeVertexData.h</text>
</a>
</g>
</g>
<!-- Node2&#45;&gt;Node7 -->
<g id="edge6" class="edge">
<title>Node2&#45;&gt;Node7</title>
<path fill="none" stroke="midnightblue" d="M137.8,-235.4C123.78,-226.28 105.33,-214.29 89.86,-204.24"/>
<polygon fill="midnightblue" stroke="midnightblue" points="91.45,-201.09 81.16,-198.58 87.63,-206.96 91.45,-201.09"/>
</g>
<!-- Node9 -->
<g id="node9" class="node">
<title>Node9</title>
<g id="a_node9"><a xlink:href="_texture2_d_8h.html" target="_top" xlink:title=" ">
<polygon fill="white" stroke="black" points="737,-369.5 737,-399.5 850,-399.5 850,-369.5 737,-369.5"/>
<text text-anchor="start" x="745" y="-387.5" font-family="Helvetica,sans-Serif" font-size="10.00">kryne&#45;engine/Textures</text>
<text text-anchor="middle" x="793.5" y="-376.5" font-family="Helvetica,sans-Serif" font-size="10.00">/Texture2D.h</text>
</a>
</g>
</g>
<!-- Node8&#45;&gt;Node9 -->
<g id="edge8" class="edge">
<title>Node8&#45;&gt;Node9</title>
<path fill="none" stroke="midnightblue" d="M605.35,-492.38C643.59,-470.66 716.92,-429 759.87,-404.6"/>
<polygon fill="midnightblue" stroke="midnightblue" points="761.84,-407.51 768.81,-399.53 758.38,-401.42 761.84,-407.51"/>
</g>
<!-- Node17 -->
<g id="node17" class="node">
<title>Node17</title>
<g id="a_node17"><a xlink:href="_final_post_process_8h.html" target="_top" xlink:title=" ">
<polygon fill="white" stroke="black" points="529.5,-436.5 529.5,-455.5 631.5,-455.5 631.5,-436.5 529.5,-436.5"/>
<text text-anchor="middle" x="580.5" y="-443.5" font-family="Helvetica,sans-Serif" font-size="10.00">FinalPostProcess.h</text>
</a>
</g>
</g>
<!-- Node8&#45;&gt;Node17 -->
<g id="edge18" class="edge">
<title>Node8&#45;&gt;Node17</title>
<path fill="none" stroke="midnightblue" d="M580.5,-492.4C580.5,-484.47 580.5,-474.46 580.5,-465.86"/>
<polygon fill="midnightblue" stroke="midnightblue" points="584,-465.66 580.5,-455.66 577,-465.66 584,-465.66"/>
</g>
<!-- Node10 -->
<g id="node10" class="node">
<title>Node10</title>
<g id="a_node10"><a xlink:href="_texture_8h.html" target="_top" xlink:title=" ">
<polygon fill="white" stroke="black" points="807,-241 807,-260 864,-260 864,-241 807,-241"/>
<text text-anchor="middle" x="835.5" y="-248" font-family="Helvetica,sans-Serif" font-size="10.00">Texture.h</text>
</a>
</g>
</g>
<!-- Node9&#45;&gt;Node10 -->
<g id="edge9" class="edge">
<title>Node9&#45;&gt;Node10</title>
<path fill="none" stroke="midnightblue" d="M797.99,-369.37C805.66,-345.29 821.24,-296.31 829.71,-269.7"/>
<polygon fill="midnightblue" stroke="midnightblue" points="833.07,-270.69 832.76,-260.1 826.4,-268.57 833.07,-270.69"/>
</g>
<!-- Node10&#45;&gt;Node5 -->
<g id="edge14" class="edge">
<title>Node10&#45;&gt;Node5</title>
<path fill="none" stroke="midnightblue" d="M806.95,-245.65C783.91,-242.59 750.64,-238.3 721.5,-235 560.4,-216.77 517.32,-231.54 358.5,-199 354.55,-198.19 350.46,-197.17 346.43,-196.06"/>
<polygon fill="midnightblue" stroke="midnightblue" points="347.19,-192.63 336.6,-193.13 345.19,-199.34 347.19,-192.63"/>
</g>
<!-- Node10&#45;&gt;Node6 -->
<g id="edge15" class="edge">
<title>Node10&#45;&gt;Node6</title>
<path fill="none" stroke="midnightblue" d="M807,-245.83C719.36,-234.53 459.25,-200.94 450.5,-199 446.65,-198.15 442.67,-197.12 438.73,-196.01"/>
<polygon fill="midnightblue" stroke="midnightblue" points="439.7,-192.65 429.11,-193.13 437.69,-199.35 439.7,-192.65"/>
</g>
<!-- Node11 -->
<g id="node11" class="node">
<title>Node11</title>
<g id="a_node11"><a xlink:title=" ">
<polygon fill="white" stroke="#bfbfbf" points="903.5,-174 903.5,-193 973.5,-193 973.5,-174 903.5,-174"/>
<text text-anchor="middle" x="938.5" y="-181" font-family="Helvetica,sans-Serif" font-size="10.00">stb_image.h</text>
</a>
</g>
</g>
<!-- Node10&#45;&gt;Node11 -->
<g id="edge10" class="edge">
<title>Node10&#45;&gt;Node11</title>
<path fill="none" stroke="midnightblue" d="M849.39,-240.73C866.53,-229.92 895.9,-211.38 916.21,-198.57"/>
<polygon fill="midnightblue" stroke="midnightblue" points="918.24,-201.42 924.83,-193.13 914.5,-195.5 918.24,-201.42"/>
</g>
<!-- Node12 -->
<g id="node12" class="node">
<title>Node12</title>
<g id="a_node12"><a xlink:title=" ">
<polygon fill="white" stroke="#bfbfbf" points="1030,-174 1030,-193 1071,-193 1071,-174 1030,-174"/>
<text text-anchor="middle" x="1050.5" y="-181" font-family="Helvetica,sans-Serif" font-size="10.00">string</text>
</a>
</g>
</g>
<!-- Node10&#45;&gt;Node12 -->
<g id="edge11" class="edge">
<title>Node10&#45;&gt;Node12</title>
<path fill="none" stroke="midnightblue" d="M859.97,-240.93C866,-238.9 872.46,-236.81 878.5,-235 938.81,-216.93 955.84,-219.09 1015.5,-199 1017.42,-198.35 1019.38,-197.65 1021.35,-196.92"/>
<polygon fill="midnightblue" stroke="midnightblue" points="1023.03,-200.02 1031.06,-193.1 1020.47,-193.51 1023.03,-200.02"/>
</g>
<!-- Node13 -->
<g id="node13" class="node">
<title>Node13</title>
<g id="a_node13"><a xlink:title=" ">
<polygon fill="white" stroke="#bfbfbf" points="1279.5,-56.5 1279.5,-75.5 1333.5,-75.5 1333.5,-56.5 1279.5,-56.5"/>
<text text-anchor="middle" x="1306.5" y="-63.5" font-family="Helvetica,sans-Serif" font-size="10.00">iostream</text>
</a>
</g>
</g>
<!-- Node10&#45;&gt;Node13 -->
<g id="edge12" class="edge">
<title>Node10&#45;&gt;Node13</title>
<path fill="none" stroke="midnightblue" d="M854.2,-240.86C858.83,-238.84 863.81,-236.76 868.5,-235 918.23,-216.29 935.59,-223.95 982.5,-199 1002.05,-188.6 1002.13,-178.73 1021.5,-168 1104.92,-121.76 1213.49,-90.28 1269.49,-75.9"/>
<polygon fill="midnightblue" stroke="midnightblue" points="1270.48,-79.26 1279.31,-73.42 1268.76,-72.48 1270.48,-79.26"/>
</g>
<!-- Node14 -->
<g id="node14" class="node">
<title>Node14</title>
<g id="a_node14"><a xlink:title=" ">
<polygon fill="white" stroke="#bfbfbf" points="778,-174 778,-193 885,-193 885,-174 778,-174"/>
<text text-anchor="middle" x="831.5" y="-181" font-family="Helvetica,sans-Serif" font-size="10.00">boost/filesystem.hpp</text>
</a>
</g>
</g>
<!-- Node10&#45;&gt;Node14 -->
<g id="edge13" class="edge">
<title>Node10&#45;&gt;Node14</title>
<path fill="none" stroke="midnightblue" d="M834.96,-240.73C834.37,-231.18 833.41,-215.62 832.66,-203.28"/>
<polygon fill="midnightblue" stroke="midnightblue" points="836.14,-202.89 832.03,-193.13 829.15,-203.32 836.14,-202.89"/>
</g>
<!-- Node15 -->
<g id="node15" class="node">
<title>Node15</title>
<g id="a_node15"><a xlink:title=" ">
<polygon fill="white" stroke="#bfbfbf" points="599.5,-174 599.5,-193 663.5,-193 663.5,-174 599.5,-174"/>
<text text-anchor="middle" x="631.5" y="-181" font-family="Helvetica,sans-Serif" font-size="10.00">glad/glad.h</text>
</a>
</g>
</g>
<!-- Node10&#45;&gt;Node15 -->
<g id="edge16" class="edge">
<title>Node10&#45;&gt;Node15</title>
<path fill="none" stroke="midnightblue" d="M806.83,-240.99C774.19,-231.22 719.32,-214.53 672.5,-199 670.05,-198.19 667.53,-197.34 665,-196.47"/>
<polygon fill="midnightblue" stroke="midnightblue" points="665.89,-193.07 655.29,-193.09 663.59,-199.68 665.89,-193.07"/>
</g>
<!-- Node16 -->
<g id="node16" class="node">
<title>Node16</title>
<g id="a_node16"><a xlink:title=" ">
<polygon fill="white" stroke="#bfbfbf" points="681.5,-174 681.5,-193 759.5,-193 759.5,-174 681.5,-174"/>
<text text-anchor="middle" x="720.5" y="-181" font-family="Helvetica,sans-Serif" font-size="10.00">GLFW/glfw3.h</text>
</a>
</g>
</g>
<!-- Node10&#45;&gt;Node16 -->
<g id="edge17" class="edge">
<title>Node10&#45;&gt;Node16</title>
<path fill="none" stroke="midnightblue" d="M819.99,-240.73C800.59,-229.77 767.17,-210.88 744.47,-198.05"/>
<polygon fill="midnightblue" stroke="midnightblue" points="746.19,-195 735.76,-193.13 742.75,-201.09 746.19,-195"/>
</g>
<!-- Node17&#45;&gt;Node2 -->
<g id="edge67" class="edge">
<title>Node17&#45;&gt;Node2</title>
<path fill="none" stroke="midnightblue" d="M560.3,-436.35C539.49,-427.4 506.13,-412.94 477.5,-400 376.3,-354.27 258.02,-298.39 198.27,-269.99"/>
<polygon fill="midnightblue" stroke="midnightblue" points="199.73,-266.81 189.2,-265.67 196.73,-273.13 199.73,-266.81"/>
</g>
<!-- Node17&#45;&gt;Node9 -->
<g id="edge68" class="edge">
<title>Node17&#45;&gt;Node9</title>
<path fill="none" stroke="midnightblue" d="M611.02,-436.48C642.9,-427.57 693.73,-413.37 733.66,-402.22"/>
<polygon fill="midnightblue" stroke="midnightblue" points="734.61,-405.58 743.3,-399.52 732.73,-398.84 734.61,-405.58"/>
</g>
<!-- Node18 -->
<g id="node18" class="node">
<title>Node18</title>
<g id="a_node18"><a xlink:title=" ">
<polygon fill="white" stroke="#bfbfbf" points="569,-308 569,-327 604,-327 604,-308 569,-308"/>
<text text-anchor="middle" x="586.5" y="-315" font-family="Helvetica,sans-Serif" font-size="10.00">map</text>
</a>
</g>
</g>
<!-- Node17&#45;&gt;Node18 -->
<g id="edge19" class="edge">
<title>Node17&#45;&gt;Node18</title>
<path fill="none" stroke="midnightblue" d="M580.91,-436.31C581.88,-415.99 584.29,-365.05 585.61,-337.28"/>
<polygon fill="midnightblue" stroke="midnightblue" points="589.11,-337.41 586.08,-327.26 582.11,-337.08 589.11,-337.41"/>
</g>
<!-- Node19 -->
<g id="node19" class="node">
<title>Node19</title>
<g id="a_node19"><a xlink:href="_shader_8h.html" target="_top" xlink:title=" ">
<polygon fill="white" stroke="black" points="608.5,-369.5 608.5,-399.5 718.5,-399.5 718.5,-369.5 608.5,-369.5"/>
<text text-anchor="start" x="616.5" y="-387.5" font-family="Helvetica,sans-Serif" font-size="10.00">kryne&#45;engine/Material</text>
<text text-anchor="middle" x="663.5" y="-376.5" font-family="Helvetica,sans-Serif" font-size="10.00">/Shader.h</text>
</a>
</g>
</g>
<!-- Node17&#45;&gt;Node19 -->
<g id="edge20" class="edge">
<title>Node17&#45;&gt;Node19</title>
<path fill="none" stroke="midnightblue" d="M592.39,-436.48C603.63,-428.42 620.92,-416.02 635.64,-405.47"/>
<polygon fill="midnightblue" stroke="midnightblue" points="637.85,-408.19 643.94,-399.52 633.77,-402.5 637.85,-408.19"/>
</g>
<!-- Node45 -->
<g id="node45" class="node">
<title>Node45</title>
<g id="a_node45"><a xlink:href="_vertex_array_8h.html" target="_top" xlink:title=" ">
<polygon fill="white" stroke="black" points="249,-235.5 249,-265.5 376,-265.5 376,-235.5 249,-235.5"/>
<text text-anchor="start" x="257" y="-253.5" font-family="Helvetica,sans-Serif" font-size="10.00">kryne&#45;engine/Core/Vertex</text>
<text text-anchor="middle" x="312.5" y="-242.5" font-family="Helvetica,sans-Serif" font-size="10.00">Array.h</text>
</a>
</g>
</g>
<!-- Node17&#45;&gt;Node45 -->
<g id="edge59" class="edge">
<title>Node17&#45;&gt;Node45</title>
<path fill="none" stroke="midnightblue" d="M568.64,-436.44C528.65,-407.56 398.07,-313.29 340.36,-271.62"/>
<polygon fill="midnightblue" stroke="midnightblue" points="342.23,-268.65 332.07,-265.63 338.13,-274.32 342.23,-268.65"/>
</g>
<!-- Node19&#45;&gt;Node18 -->
<g id="edge21" class="edge">
<title>Node19&#45;&gt;Node18</title>
<path fill="none" stroke="midnightblue" d="M646.79,-369.4C634.31,-358.86 617.27,-344.48 604.49,-333.69"/>
<polygon fill="midnightblue" stroke="midnightblue" points="606.7,-330.97 596.8,-327.19 602.18,-336.32 606.7,-330.97"/>
</g>
<!-- Node20 -->
<g id="node20" class="node">
<title>Node20</title>
<g id="a_node20"><a xlink:title=" ">
<polygon fill="white" stroke="#bfbfbf" points="627.5,-308 627.5,-327 679.5,-327 679.5,-308 627.5,-308"/>
<text text-anchor="middle" x="653.5" y="-315" font-family="Helvetica,sans-Serif" font-size="10.00">sstream</text>
</a>
</g>
</g>
<!-- Node19&#45;&gt;Node20 -->
<g id="edge22" class="edge">
<title>Node19&#45;&gt;Node20</title>
<path fill="none" stroke="midnightblue" d="M661.33,-369.4C659.88,-359.96 657.95,-347.45 656.38,-337.19"/>
<polygon fill="midnightblue" stroke="midnightblue" points="659.82,-336.55 654.84,-327.19 652.9,-337.61 659.82,-336.55"/>
</g>
<!-- Node21 -->
<g id="node21" class="node">
<title>Node21</title>
<g id="a_node21"><a xlink:href="_dispatcher_8h.html" target="_top" xlink:title=" ">
<polygon fill="white" stroke="black" points="946,-302.5 946,-332.5 1059,-332.5 1059,-302.5 946,-302.5"/>
<text text-anchor="start" x="954" y="-320.5" font-family="Helvetica,sans-Serif" font-size="10.00">kryne&#45;engine/Dispatch</text>
<text text-anchor="middle" x="1002.5" y="-309.5" font-family="Helvetica,sans-Serif" font-size="10.00">/Dispatcher.h</text>
</a>
</g>
</g>
<!-- Node19&#45;&gt;Node21 -->
<g id="edge23" class="edge">
<title>Node19&#45;&gt;Node21</title>
<path fill="none" stroke="midnightblue" d="M718.63,-370.86C721.63,-370.22 724.6,-369.59 727.5,-369 798.34,-354.48 879.86,-339.75 935.64,-329.98"/>
<polygon fill="midnightblue" stroke="midnightblue" points="936.5,-333.39 945.75,-328.22 935.3,-326.49 936.5,-333.39"/>
</g>
<!-- Node34 -->
<g id="node34" class="node">
<title>Node34</title>
<g id="a_node34"><a xlink:href="_uniforms_handler_8h.html" target="_top" xlink:title=" ">
<polygon fill="white" stroke="black" points="697.5,-308 697.5,-327 793.5,-327 793.5,-308 697.5,-308"/>
<text text-anchor="middle" x="745.5" y="-315" font-family="Helvetica,sans-Serif" font-size="10.00">UniformsHandler.h</text>
</a>
</g>
</g>
<!-- Node19&#45;&gt;Node34 -->
<g id="edge39" class="edge">
<title>Node19&#45;&gt;Node34</title>
<path fill="none" stroke="midnightblue" d="M681.29,-369.4C694.58,-358.86 712.73,-344.48 726.34,-333.69"/>
<polygon fill="midnightblue" stroke="midnightblue" points="728.87,-336.15 734.53,-327.19 724.52,-330.66 728.87,-336.15"/>
</g>
<!-- Node39 -->
<g id="node39" class="node">
<title>Node39</title>
<g id="a_node39"><a xlink:href="_shader_chunk_8h.html" target="_top" xlink:title=" ">
<polygon fill="white" stroke="black" points="1231,-308 1231,-327 1314,-327 1314,-308 1231,-308"/>
<text text-anchor="middle" x="1272.5" y="-315" font-family="Helvetica,sans-Serif" font-size="10.00">ShaderChunk.h</text>
</a>
</g>
</g>
<!-- Node19&#45;&gt;Node39 -->
<g id="edge48" class="edge">
<title>Node19&#45;&gt;Node39</title>
<path fill="none" stroke="midnightblue" d="M718.57,-370.54C721.58,-369.98 724.57,-369.46 727.5,-369 821.78,-354.02 1103.82,-331.44 1220.79,-322.42"/>
<polygon fill="midnightblue" stroke="midnightblue" points="1221.22,-325.9 1230.92,-321.65 1220.68,-318.92 1221.22,-325.9"/>
</g>
<!-- Node22 -->
<g id="node22" class="node">
<title>Node22</title>
<g id="a_node22"><a xlink:href="_synchronizable_pool_8h.html" target="_top" xlink:title=" ">
<polygon fill="white" stroke="black" points="1128,-174 1128,-193 1239,-193 1239,-174 1128,-174"/>
<text text-anchor="middle" x="1183.5" y="-181" font-family="Helvetica,sans-Serif" font-size="10.00">SynchronizablePool.h</text>
</a>
</g>
</g>
<!-- Node21&#45;&gt;Node22 -->
<g id="edge24" class="edge">
<title>Node21&#45;&gt;Node22</title>
<path fill="none" stroke="midnightblue" d="M1059.46,-308.78C1108.44,-300.84 1173.65,-286.69 1189.5,-266 1203.34,-247.92 1197.47,-220.48 1191.16,-202.52"/>
<polygon fill="midnightblue" stroke="midnightblue" points="1194.42,-201.24 1187.54,-193.18 1187.89,-203.77 1194.42,-201.24"/>
</g>
<!-- Node32 -->
<g id="node32" class="node">
<title>Node32</title>
<g id="a_node32"><a xlink:href="_runner_pool_8h.html" target="_top" xlink:title=" ">
<polygon fill="white" stroke="black" points="921,-241 921,-260 996,-260 996,-241 921,-241"/>
<text text-anchor="middle" x="958.5" y="-248" font-family="Helvetica,sans-Serif" font-size="10.00">RunnerPool.h</text>
</a>
</g>
</g>
<!-- Node21&#45;&gt;Node32 -->
<g id="edge35" class="edge">
<title>Node21&#45;&gt;Node32</title>
<path fill="none" stroke="midnightblue" d="M992.95,-302.4C986.23,-292.46 977.19,-279.11 970.06,-268.57"/>
<polygon fill="midnightblue" stroke="midnightblue" points="972.89,-266.51 964.39,-260.19 967.09,-270.44 972.89,-266.51"/>
</g>
<!-- Node33 -->
<g id="node33" class="node">
<title>Node33</title>
<g id="a_node33"><a xlink:href="_main_pool_8h.html" target="_top" xlink:title=" ">
<polygon fill="white" stroke="black" points="1014,-241 1014,-260 1079,-260 1079,-241 1014,-241"/>
<text text-anchor="middle" x="1046.5" y="-248" font-family="Helvetica,sans-Serif" font-size="10.00">MainPool.h</text>
</a>
</g>
</g>
<!-- Node21&#45;&gt;Node33 -->
<g id="edge37" class="edge">
<title>Node21&#45;&gt;Node33</title>
<path fill="none" stroke="midnightblue" d="M1012.05,-302.4C1018.77,-292.46 1027.81,-279.11 1034.94,-268.57"/>
<polygon fill="midnightblue" stroke="midnightblue" points="1037.91,-270.44 1040.61,-260.19 1032.11,-266.51 1037.91,-270.44"/>
</g>
<!-- Node23 -->
<g id="node23" class="node">
<title>Node23</title>
<g id="a_node23"><a xlink:href="_thread_pool_8h.html" target="_top" xlink:title=" ">
<polygon fill="white" stroke="black" points="940.5,-112.5 940.5,-131.5 1014.5,-131.5 1014.5,-112.5 940.5,-112.5"/>
<text text-anchor="middle" x="977.5" y="-119.5" font-family="Helvetica,sans-Serif" font-size="10.00">ThreadPool.h</text>
</a>
</g>
</g>
<!-- Node22&#45;&gt;Node23 -->
<g id="edge25" class="edge">
<title>Node22&#45;&gt;Node23</title>
<path fill="none" stroke="midnightblue" d="M1153.99,-173.98C1117.88,-163.55 1056.65,-145.86 1016.65,-134.31"/>
<polygon fill="midnightblue" stroke="midnightblue" points="1017.54,-130.92 1006.96,-131.51 1015.6,-137.65 1017.54,-130.92"/>
</g>
<!-- Node23&#45;&gt;Node13 -->
<g id="edge31" class="edge">
<title>Node23&#45;&gt;Node13</title>
<path fill="none" stroke="midnightblue" d="M1014.54,-114.4C1019.23,-113.58 1023.98,-112.76 1028.5,-112 1114.6,-97.44 1215.86,-81.29 1269.23,-72.86"/>
<polygon fill="midnightblue" stroke="midnightblue" points="1269.92,-76.3 1279.25,-71.28 1268.83,-69.38 1269.92,-76.3"/>
</g>
<!-- Node24 -->
<g id="node24" class="node">
<title>Node24</title>
<g id="a_node24"><a xlink:title=" ">
<polygon fill="white" stroke="#bfbfbf" points="1140.5,-56.5 1140.5,-75.5 1184.5,-75.5 1184.5,-56.5 1140.5,-56.5"/>
<text text-anchor="middle" x="1162.5" y="-63.5" font-family="Helvetica,sans-Serif" font-size="10.00">thread</text>
</a>
</g>
</g>
<!-- Node23&#45;&gt;Node24 -->
<g id="edge26" class="edge">
<title>Node23&#45;&gt;Node24</title>
<path fill="none" stroke="midnightblue" d="M1006.81,-112.44C1040.57,-102.59 1095.82,-86.46 1130.62,-76.3"/>
<polygon fill="midnightblue" stroke="midnightblue" points="1131.67,-79.64 1140.29,-73.48 1129.71,-72.92 1131.67,-79.64"/>
</g>
<!-- Node25 -->
<g id="node25" class="node">
<title>Node25</title>
<g id="a_node25"><a xlink:title=" ">
<polygon fill="white" stroke="#bfbfbf" points="751.5,-56.5 751.5,-75.5 795.5,-75.5 795.5,-56.5 751.5,-56.5"/>
<text text-anchor="middle" x="773.5" y="-63.5" font-family="Helvetica,sans-Serif" font-size="10.00">mutex</text>
</a>
</g>
</g>
<!-- Node23&#45;&gt;Node25 -->
<g id="edge27" class="edge">
<title>Node23&#45;&gt;Node25</title>
<path fill="none" stroke="midnightblue" d="M943.61,-112.48C910.66,-104.14 858.95,-90.87 805.48,-76.22"/>
<polygon fill="midnightblue" stroke="midnightblue" points="806.4,-72.84 795.83,-73.56 804.54,-79.59 806.4,-72.84"/>
</g>
<!-- Node26 -->
<g id="node26" class="node">
<title>Node26</title>
<g id="a_node26"><a xlink:title=" ">
<polygon fill="white" stroke="#bfbfbf" points="814,-56.5 814,-75.5 907,-75.5 907,-56.5 814,-56.5"/>
<text text-anchor="middle" x="860.5" y="-63.5" font-family="Helvetica,sans-Serif" font-size="10.00">condition_variable</text>
</a>
</g>
</g>
<!-- Node23&#45;&gt;Node26 -->
<g id="edge28" class="edge">
<title>Node23&#45;&gt;Node26</title>
<path fill="none" stroke="midnightblue" d="M958.96,-112.44C939.88,-103.64 909.93,-89.81 888.06,-79.72"/>
<polygon fill="midnightblue" stroke="midnightblue" points="889.5,-76.53 878.95,-75.52 886.57,-82.88 889.5,-76.53"/>
</g>
<!-- Node27 -->
<g id="node27" class="node">
<title>Node27</title>
<g id="a_node27"><a xlink:title=" ">
<polygon fill="white" stroke="#bfbfbf" points="925,-56.5 925,-75.5 966,-75.5 966,-56.5 925,-56.5"/>
<text text-anchor="middle" x="945.5" y="-63.5" font-family="Helvetica,sans-Serif" font-size="10.00">future</text>
</a>
</g>
</g>
<!-- Node23&#45;&gt;Node27 -->
<g id="edge29" class="edge">
<title>Node23&#45;&gt;Node27</title>
<path fill="none" stroke="midnightblue" d="M972.22,-112.08C967.79,-104.61 961.34,-93.72 955.88,-84.52"/>
<polygon fill="midnightblue" stroke="midnightblue" points="958.79,-82.57 950.69,-75.75 952.77,-86.14 958.79,-82.57"/>
</g>
<!-- Node28 -->
<g id="node28" class="node">
<title>Node28</title>
<g id="a_node28"><a xlink:title=" ">
<polygon fill="white" stroke="#bfbfbf" points="984.5,-56.5 984.5,-75.5 1036.5,-75.5 1036.5,-56.5 984.5,-56.5"/>
<text text-anchor="middle" x="1010.5" y="-63.5" font-family="Helvetica,sans-Serif" font-size="10.00">memory</text>
</a>
</g>
</g>
<!-- Node23&#45;&gt;Node28 -->
<g id="edge30" class="edge">
<title>Node23&#45;&gt;Node28</title>
<path fill="none" stroke="midnightblue" d="M982.95,-112.08C987.51,-104.61 994.17,-93.72 999.79,-84.52"/>
<polygon fill="midnightblue" stroke="midnightblue" points="1002.92,-86.11 1005.15,-75.75 996.95,-82.46 1002.92,-86.11"/>
</g>
<!-- Node29 -->
<g id="node29" class="node">
<title>Node29</title>
<g id="a_node29"><a xlink:href="_base_pool_8h.html" target="_top" xlink:title=" ">
<polygon fill="white" stroke="black" points="1055,-56.5 1055,-75.5 1122,-75.5 1122,-56.5 1055,-56.5"/>
<text text-anchor="middle" x="1088.5" y="-63.5" font-family="Helvetica,sans-Serif" font-size="10.00">BasePool.h</text>
</a>
</g>
</g>
<!-- Node23&#45;&gt;Node29 -->
<g id="edge32" class="edge">
<title>Node23&#45;&gt;Node29</title>
<path fill="none" stroke="midnightblue" d="M995.33,-112.32C1013.22,-103.62 1040.98,-90.12 1061.55,-80.11"/>
<polygon fill="midnightblue" stroke="midnightblue" points="1063.25,-83.18 1070.71,-75.65 1060.19,-76.88 1063.25,-83.18"/>
</g>
<!-- Node30 -->
<g id="node30" class="node">
<title>Node30</title>
<g id="a_node30"><a xlink:title=" ">
<polygon fill="white" stroke="#bfbfbf" points="1032,-0.5 1032,-19.5 1075,-19.5 1075,-0.5 1032,-0.5"/>
<text text-anchor="middle" x="1053.5" y="-7.5" font-family="Helvetica,sans-Serif" font-size="10.00">queue</text>
</a>
</g>
</g>
<!-- Node29&#45;&gt;Node30 -->
<g id="edge33" class="edge">
<title>Node29&#45;&gt;Node30</title>
<path fill="none" stroke="midnightblue" d="M1082.72,-56.08C1077.83,-48.53 1070.67,-37.49 1064.67,-28.23"/>
<polygon fill="midnightblue" stroke="midnightblue" points="1067.55,-26.24 1059.17,-19.75 1061.67,-30.05 1067.55,-26.24"/>
</g>
<!-- Node31 -->
<g id="node31" class="node">
<title>Node31</title>
<g id="a_node31"><a xlink:title=" ">
<polygon fill="white" stroke="#bfbfbf" points="1093.5,-0.5 1093.5,-19.5 1151.5,-19.5 1151.5,-0.5 1093.5,-0.5"/>
<text text-anchor="middle" x="1122.5" y="-7.5" font-family="Helvetica,sans-Serif" font-size="10.00">functional</text>
</a>
</g>
</g>
<!-- Node29&#45;&gt;Node31 -->
<g id="edge34" class="edge">
<title>Node29&#45;&gt;Node31</title>
<path fill="none" stroke="midnightblue" d="M1094.11,-56.08C1098.87,-48.53 1105.82,-37.49 1111.65,-28.23"/>
<polygon fill="midnightblue" stroke="midnightblue" points="1114.62,-30.08 1116.99,-19.75 1108.7,-26.35 1114.62,-30.08"/>
</g>
<!-- Node32&#45;&gt;Node23 -->
<g id="edge36" class="edge">
<title>Node32&#45;&gt;Node23</title>
<path fill="none" stroke="midnightblue" d="M983.14,-240.96C1017.1,-228.94 1074.78,-207.55 1080.5,-199 1088.16,-187.55 1088.04,-179.53 1080.5,-168 1067.95,-148.83 1045.25,-137.78 1024.35,-131.43"/>
<polygon fill="midnightblue" stroke="midnightblue" points="1025.17,-128.03 1014.6,-128.75 1023.32,-134.78 1025.17,-128.03"/>
</g>
<!-- Node33&#45;&gt;Node22 -->
<g id="edge38" class="edge">
<title>Node33&#45;&gt;Node22</title>
<path fill="none" stroke="midnightblue" d="M1064.69,-240.87C1088.03,-229.8 1128.73,-210.49 1155.89,-197.6"/>
<polygon fill="midnightblue" stroke="midnightblue" points="1157.7,-200.62 1165.23,-193.17 1154.7,-194.29 1157.7,-200.62"/>
</g>
<!-- Node34&#45;&gt;Node10 -->
<g id="edge47" class="edge">
<title>Node34&#45;&gt;Node10</title>
<path fill="none" stroke="midnightblue" d="M757.64,-307.73C772.35,-297.11 797.36,-279.05 815.06,-266.26"/>
<polygon fill="midnightblue" stroke="midnightblue" points="817.5,-268.82 823.55,-260.13 813.4,-263.14 817.5,-268.82"/>
</g>
<!-- Node34&#45;&gt;Node12 -->
<g id="edge40" class="edge">
<title>Node34&#45;&gt;Node12</title>
<path fill="none" stroke="midnightblue" d="M773.58,-307.98C800.06,-299.34 840.37,-284.61 872.5,-266 891.66,-254.9 892.09,-245.66 911.5,-235 954.37,-211.45 969.77,-216.37 1015.5,-199 1017.15,-198.37 1018.84,-197.72 1020.54,-197.05"/>
<polygon fill="midnightblue" stroke="midnightblue" points="1022.26,-200.13 1030.22,-193.14 1019.64,-193.64 1022.26,-200.13"/>
</g>
<!-- Node34&#45;&gt;Node15 -->
<g id="edge42" class="edge">
<title>Node34&#45;&gt;Node15</title>
<path fill="none" stroke="midnightblue" d="M745.06,-307.92C743.83,-291.92 739.15,-257.15 721.5,-235 707.62,-217.58 685.99,-205.17 667.42,-197.01"/>
<polygon fill="midnightblue" stroke="midnightblue" points="668.62,-193.72 658.04,-193.13 665.94,-200.19 668.62,-193.72"/>
</g>
<!-- Node34&#45;&gt;Node16 -->
<g id="edge43" class="edge">
<title>Node34&#45;&gt;Node16</title>
<path fill="none" stroke="midnightblue" d="M748.72,-307.72C753.8,-292.55 762.31,-260.6 754.5,-235 750.71,-222.59 742.74,-210.47 735.46,-201.21"/>
<polygon fill="midnightblue" stroke="midnightblue" points="737.96,-198.74 728.86,-193.3 732.58,-203.22 737.96,-198.74"/>
</g>
<!-- Node35 -->
<g id="node35" class="node">
<title>Node35</title>
<g id="a_node35"><a xlink:title=" ">
<polygon fill="white" stroke="#bfbfbf" points="1097,-241 1097,-260 1180,-260 1180,-241 1097,-241"/>
<text text-anchor="middle" x="1138.5" y="-248" font-family="Helvetica,sans-Serif" font-size="10.00">unordered_map</text>
</a>
</g>
</g>
<!-- Node34&#45;&gt;Node35 -->
<g id="edge41" class="edge">
<title>Node34&#45;&gt;Node35</title>
<path fill="none" stroke="midnightblue" d="M793.59,-311.51C860.28,-304.12 984.4,-288.65 1088.5,-266 1092.89,-265.04 1097.46,-263.91 1101.98,-262.71"/>
<polygon fill="midnightblue" stroke="midnightblue" points="1102.99,-266.06 1111.68,-260 1101.11,-259.32 1102.99,-266.06"/>
</g>
<!-- Node36 -->
<g id="node36" class="node">
<title>Node36</title>
<g id="a_node36"><a xlink:title=" ">
<polygon fill="white" stroke="#bfbfbf" points="626.5,-241 626.5,-260 712.5,-260 712.5,-241 626.5,-241"/>
<text text-anchor="middle" x="669.5" y="-248" font-family="Helvetica,sans-Serif" font-size="10.00">glm/mat4x4.hpp</text>
</a>
</g>
</g>
<!-- Node34&#45;&gt;Node36 -->
<g id="edge44" class="edge">
<title>Node34&#45;&gt;Node36</title>
<path fill="none" stroke="midnightblue" d="M735.25,-307.73C723.06,-297.31 702.48,-279.71 687.59,-266.97"/>
<polygon fill="midnightblue" stroke="midnightblue" points="689.46,-263.97 679.59,-260.13 684.91,-269.29 689.46,-263.97"/>
</g>
<!-- Node37 -->
<g id="node37" class="node">
<title>Node37</title>
<g id="a_node37"><a xlink:title=" ">
<polygon fill="white" stroke="#bfbfbf" points="394.5,-241 394.5,-260 500.5,-260 500.5,-241 394.5,-241"/>
<text text-anchor="middle" x="447.5" y="-248" font-family="Helvetica,sans-Serif" font-size="10.00">glm/gtc/type_ptr.hpp</text>
</a>
</g>
</g>
<!-- Node34&#45;&gt;Node37 -->
<g id="edge45" class="edge">
<title>Node34&#45;&gt;Node37</title>
<path fill="none" stroke="midnightblue" d="M713.01,-307.93C705.02,-305.91 696.47,-303.81 688.5,-302 609.37,-283.99 588.8,-283.24 509.5,-266 504.17,-264.84 498.58,-263.59 493.05,-262.32"/>
<polygon fill="midnightblue" stroke="midnightblue" points="493.72,-258.89 483.19,-260.05 492.15,-265.71 493.72,-258.89"/>
</g>
<!-- Node38 -->
<g id="node38" class="node">
<title>Node38</title>
<g id="a_node38"><a xlink:title=" ">
<polygon fill="white" stroke="#bfbfbf" points="518.5,-241 518.5,-260 608.5,-260 608.5,-241 518.5,-241"/>
<text text-anchor="middle" x="563.5" y="-248" font-family="Helvetica,sans-Serif" font-size="10.00">boost/variant.hpp</text>
</a>
</g>
</g>
<!-- Node34&#45;&gt;Node38 -->
<g id="edge46" class="edge">
<title>Node34&#45;&gt;Node38</title>
<path fill="none" stroke="midnightblue" d="M721.33,-307.87C689.42,-296.47 633.09,-276.35 597.06,-263.49"/>
<polygon fill="midnightblue" stroke="midnightblue" points="598.07,-260.13 587.48,-260.06 595.72,-266.72 598.07,-260.13"/>
</g>
<!-- Node39&#45;&gt;Node12 -->
<g id="edge50" class="edge">
<title>Node39&#45;&gt;Node12</title>
<path fill="none" stroke="midnightblue" d="M1265.68,-307.64C1252.59,-291.18 1222.3,-255.67 1189.5,-235 1155.26,-213.42 1110.48,-199.27 1081.13,-191.58"/>
<polygon fill="midnightblue" stroke="midnightblue" points="1081.61,-188.09 1071.06,-189.04 1079.9,-194.88 1081.61,-188.09"/>
</g>
<!-- Node39&#45;&gt;Node13 -->
<g id="edge52" class="edge">
<title>Node39&#45;&gt;Node13</title>
<path fill="none" stroke="midnightblue" d="M1314.01,-310.26C1360.24,-302.36 1430.59,-287.19 1446.5,-266 1467.43,-238.13 1510.18,-205.59 1438.5,-112 1416.31,-83.03 1374.49,-72.57 1343.85,-68.87"/>
<polygon fill="midnightblue" stroke="midnightblue" points="1343.83,-65.35 1333.53,-67.83 1343.12,-72.32 1343.83,-65.35"/>
</g>
<!-- Node39&#45;&gt;Node35 -->
<g id="edge49" class="edge">
<title>Node39&#45;&gt;Node35</title>
<path fill="none" stroke="midnightblue" d="M1254.71,-307.87C1231.88,-296.8 1192.07,-277.49 1165.5,-264.6"/>
<polygon fill="midnightblue" stroke="midnightblue" points="1166.89,-261.38 1156.37,-260.17 1163.84,-267.68 1166.89,-261.38"/>
</g>
<!-- Node40 -->
<g id="node40" class="node">
<title>Node40</title>
<g id="a_node40"><a xlink:title=" ">
<polygon fill="white" stroke="#bfbfbf" points="1275,-241 1275,-260 1324,-260 1324,-241 1275,-241"/>
<text text-anchor="middle" x="1299.5" y="-248" font-family="Helvetica,sans-Serif" font-size="10.00">fstream</text>
</a>
</g>
</g>
<!-- Node39&#45;&gt;Node40 -->
<g id="edge51" class="edge">
<title>Node39&#45;&gt;Node40</title>
<path fill="none" stroke="midnightblue" d="M1276.14,-307.73C1280.19,-297.99 1286.84,-281.98 1292.01,-269.53"/>
<polygon fill="midnightblue" stroke="midnightblue" points="1295.31,-270.7 1295.92,-260.13 1288.85,-268.02 1295.31,-270.7"/>
</g>
<!-- Node41 -->
<g id="node41" class="node">
<title>Node41</title>
<g id="a_node41"><a xlink:href="kryne-engine_2_utils_2_utils_8h.html" target="_top" xlink:title=" ">
<polygon fill="white" stroke="black" points="1342,-235.5 1342,-265.5 1437,-265.5 1437,-235.5 1342,-235.5"/>
<text text-anchor="start" x="1350" y="-253.5" font-family="Helvetica,sans-Serif" font-size="10.00">kryne&#45;engine/Utils</text>
<text text-anchor="middle" x="1389.5" y="-242.5" font-family="Helvetica,sans-Serif" font-size="10.00">/Utils.h</text>
</a>
</g>
</g>
<!-- Node39&#45;&gt;Node41 -->
<g id="edge53" class="edge">
<title>Node39&#45;&gt;Node41</title>
<path fill="none" stroke="midnightblue" d="M1288.28,-307.73C1305.38,-298.23 1333.2,-282.78 1355.35,-270.47"/>
<polygon fill="midnightblue" stroke="midnightblue" points="1357.1,-273.51 1364.14,-265.59 1353.7,-267.39 1357.1,-273.51"/>
</g>
<!-- Node42 -->
<g id="node42" class="node">
<title>Node42</title>
<g id="a_node42"><a xlink:href="_string_utils_8hpp.html" target="_top" xlink:title=" ">
<polygon fill="white" stroke="black" points="1349.5,-112.5 1349.5,-131.5 1429.5,-131.5 1429.5,-112.5 1349.5,-112.5"/>
<text text-anchor="middle" x="1389.5" y="-119.5" font-family="Helvetica,sans-Serif" font-size="10.00">StringUtils.hpp</text>
</a>
</g>
</g>
<!-- Node41&#45;&gt;Node42 -->
<g id="edge54" class="edge">
<title>Node41&#45;&gt;Node42</title>
<path fill="none" stroke="midnightblue" d="M1389.5,-235.48C1389.5,-212.72 1389.5,-167.7 1389.5,-142.06"/>
<polygon fill="midnightblue" stroke="midnightblue" points="1393,-141.79 1389.5,-131.79 1386,-141.79 1393,-141.79"/>
</g>
<!-- Node43 -->
<g id="node43" class="node">
<title>Node43</title>
<g id="a_node43"><a xlink:href="_vector_mapping_8hpp.html" target="_top" xlink:title=" ">
<polygon fill="white" stroke="black" points="1257,-174 1257,-193 1358,-193 1358,-174 1257,-174"/>
<text text-anchor="middle" x="1307.5" y="-181" font-family="Helvetica,sans-Serif" font-size="10.00">VectorMapping.hpp</text>
</a>
</g>
</g>
<!-- Node41&#45;&gt;Node43 -->
<g id="edge56" class="edge">
<title>Node41&#45;&gt;Node43</title>
<path fill="none" stroke="midnightblue" d="M1371.71,-235.4C1358.42,-224.86 1340.27,-210.48 1326.66,-199.69"/>
<polygon fill="midnightblue" stroke="midnightblue" points="1328.48,-196.66 1318.47,-193.19 1324.13,-202.15 1328.48,-196.66"/>
</g>
<!-- Node42&#45;&gt;Node13 -->
<g id="edge55" class="edge">
<title>Node42&#45;&gt;Node13</title>
<path fill="none" stroke="midnightblue" d="M1376.16,-112.32C1363.34,-103.98 1343.72,-91.21 1328.56,-81.35"/>
<polygon fill="midnightblue" stroke="midnightblue" points="1330.09,-78.17 1319.8,-75.65 1326.28,-84.04 1330.09,-78.17"/>
</g>
<!-- Node43&#45;&gt;Node3 -->
<g id="edge57" class="edge">
<title>Node43&#45;&gt;Node3</title>
<path fill="none" stroke="midnightblue" d="M1277.71,-173.97C1268.43,-171.64 1258.11,-169.38 1248.5,-168 1054.48,-140.07 426.33,-126.44 278.75,-123.58"/>
<polygon fill="midnightblue" stroke="midnightblue" points="278.65,-120.08 268.58,-123.38 278.52,-127.08 278.65,-120.08"/>
</g>
<!-- Node44 -->
<g id="node44" class="node">
<title>Node44</title>
<g id="a_node44"><a xlink:title=" ">
<polygon fill="white" stroke="#bfbfbf" points="1218,-112.5 1218,-131.5 1331,-131.5 1331,-112.5 1218,-112.5"/>
<text text-anchor="middle" x="1274.5" y="-119.5" font-family="Helvetica,sans-Serif" font-size="10.00">glm/detail/qualifier.hpp</text>
</a>
</g>
</g>
<!-- Node43&#45;&gt;Node44 -->
<g id="edge58" class="edge">
<title>Node43&#45;&gt;Node44</title>
<path fill="none" stroke="midnightblue" d="M1302.77,-173.98C1297.92,-165.23 1290.23,-151.37 1284.1,-140.31"/>
<polygon fill="midnightblue" stroke="midnightblue" points="1287.13,-138.56 1279.22,-131.51 1281.01,-141.95 1287.13,-138.56"/>
</g>
<!-- Node45&#45;&gt;Node3 -->
<g id="edge60" class="edge">
<title>Node45&#45;&gt;Node3</title>
<path fill="none" stroke="midnightblue" d="M295.78,-235.15C285.89,-225.79 273.89,-212.8 266.5,-199 256.89,-181.06 252.02,-158.12 249.63,-142.16"/>
<polygon fill="midnightblue" stroke="midnightblue" points="253.07,-141.4 248.31,-131.94 246.12,-142.31 253.07,-141.4"/>
</g>
<!-- Node45&#45;&gt;Node5 -->
<g id="edge65" class="edge">
<title>Node45&#45;&gt;Node5</title>
<path fill="none" stroke="midnightblue" d="M312.5,-235.4C312.5,-226.06 312.5,-213.71 312.5,-203.52"/>
<polygon fill="midnightblue" stroke="midnightblue" points="316,-203.19 312.5,-193.19 309,-203.19 316,-203.19"/>
</g>
<!-- Node45&#45;&gt;Node6 -->
<g id="edge66" class="edge">
<title>Node45&#45;&gt;Node6</title>
<path fill="none" stroke="midnightblue" d="M332.46,-235.4C347.75,-224.6 368.75,-209.76 384.14,-198.89"/>
<polygon fill="midnightblue" stroke="midnightblue" points="386.31,-201.64 392.46,-193.01 382.27,-195.92 386.31,-201.64"/>
</g>
<!-- Node45&#45;&gt;Node15 -->
<g id="edge63" class="edge">
<title>Node45&#45;&gt;Node15</title>
<path fill="none" stroke="midnightblue" d="M376.19,-236.78C379.34,-236.17 382.45,-235.58 385.5,-235 474.68,-218.16 498.44,-220.97 586.5,-199 589.95,-198.14 593.52,-197.16 597.07,-196.11"/>
<polygon fill="midnightblue" stroke="midnightblue" points="598.39,-199.37 606.91,-193.08 596.33,-192.68 598.39,-199.37"/>
</g>
<!-- Node45&#45;&gt;Node16 -->
<g id="edge64" class="edge">
<title>Node45&#45;&gt;Node16</title>
<path fill="none" stroke="midnightblue" d="M376.15,-236.58C379.31,-236.03 382.44,-235.5 385.5,-235 512.4,-214.46 546.74,-225.68 672.5,-199 676.67,-198.12 681,-197.04 685.27,-195.88"/>
<polygon fill="midnightblue" stroke="midnightblue" points="686.41,-199.19 695.05,-193.06 684.47,-192.47 686.41,-199.19"/>
</g>
<!-- Node46 -->
<g id="node46" class="node">
<title>Node46</title>
<g id="a_node46"><a xlink:title=" ">
<polygon fill="white" stroke="#bfbfbf" points="459.5,-174 459.5,-193 511.5,-193 511.5,-174 459.5,-174"/>
<text text-anchor="middle" x="485.5" y="-181" font-family="Helvetica,sans-Serif" font-size="10.00">stdarg.h</text>
</a>
</g>
</g>
<!-- Node45&#45;&gt;Node46 -->
<g id="edge61" class="edge">
<title>Node45&#45;&gt;Node46</title>
<path fill="none" stroke="midnightblue" d="M352.22,-235.46C379.89,-225.56 417.58,-211.84 450.5,-199 452.14,-198.36 453.83,-197.69 455.52,-197.02"/>
<polygon fill="midnightblue" stroke="midnightblue" points="457.26,-200.09 465.2,-193.08 454.62,-193.6 457.26,-200.09"/>
</g>
<!-- Node47 -->
<g id="node47" class="node">
<title>Node47</title>
<g id="a_node47"><a xlink:title=" ">
<polygon fill="white" stroke="#bfbfbf" points="529.5,-174 529.5,-193 577.5,-193 577.5,-174 529.5,-174"/>
<text text-anchor="middle" x="553.5" y="-181" font-family="Helvetica,sans-Serif" font-size="10.00">stdlib.h</text>
</a>
</g>
</g>
<!-- Node45&#45;&gt;Node47 -->
<g id="edge62" class="edge">
<title>Node45&#45;&gt;Node47</title>
<path fill="none" stroke="midnightblue" d="M375.61,-235.46C426.56,-223.89 493.97,-207.97 520.5,-199 522.37,-198.37 524.27,-197.67 526.18,-196.94"/>
<polygon fill="midnightblue" stroke="midnightblue" points="527.66,-200.11 535.57,-193.06 524.99,-193.64 527.66,-200.11"/>
</g>
</g>
</svg>
