<?xml version="1.0" encoding="UTF-8" standalone="no"?>
<!DOCTYPE svg PUBLIC "-//W3C//DTD SVG 1.1//EN"
 "http://www.w3.org/Graphics/SVG/1.1/DTD/svg11.dtd">
<!-- Generated by graphviz version 2.44.1 (20200629.0846)
 -->
<!-- Title: kryne&#45;engine/include/kryne&#45;engine/Camera/ProjectionData.hpp Pages: 1 -->
<svg width="1739pt" height="819pt"
 viewBox="0.00 0.00 1738.50 819.00" xmlns="http://www.w3.org/2000/svg" xmlns:xlink="http://www.w3.org/1999/xlink">
<g id="graph0" class="graph" transform="scale(1 1) rotate(0) translate(4 815)">
<title>kryne&#45;engine/include/kryne&#45;engine/Camera/ProjectionData.hpp</title>
<polygon fill="white" stroke="transparent" points="-4,4 -4,-815 1734.5,-815 1734.5,4 -4,4"/>
<!-- Node1 -->
<g id="node1" class="node">
<title>Node1</title>
<g id="a_node1"><a xlink:title=" ">
<polygon fill="#bfbfbf" stroke="black" points="1494.5,-769.5 1494.5,-810.5 1606.5,-810.5 1606.5,-769.5 1494.5,-769.5"/>
<text text-anchor="start" x="1502.5" y="-798.5" font-family="Helvetica,sans-Serif" font-size="10.00">kryne&#45;engine/include</text>
<text text-anchor="start" x="1502.5" y="-787.5" font-family="Helvetica,sans-Serif" font-size="10.00">/kryne&#45;engine/Camera</text>
<text text-anchor="middle" x="1550.5" y="-776.5" font-family="Helvetica,sans-Serif" font-size="10.00">/ProjectionData.hpp</text>
</a>
</g>
</g>
<!-- Node2 -->
<g id="node2" class="node">
<title>Node2</title>
<g id="a_node2"><a xlink:href="_k_e_modules_2_camera_8h.html" target="_top" xlink:title=" ">
<polygon fill="white" stroke="black" points="1474,-0.5 1474,-30.5 1589,-30.5 1589,-0.5 1474,-0.5"/>
<text text-anchor="start" x="1482" y="-18.5" font-family="Helvetica,sans-Serif" font-size="10.00">kryne&#45;engine/include</text>
<text text-anchor="middle" x="1531.5" y="-7.5" font-family="Helvetica,sans-Serif" font-size="10.00">/KEModules/Camera.h</text>
</a>
</g>
</g>
<!-- Node1&#45;&gt;Node2 -->
<g id="edge1" class="edge">
<title>Node1&#45;&gt;Node2</title>
<path fill="none" stroke="midnightblue" d="M1550.5,-758.91C1550.5,-727.87 1550.5,-678.05 1550.5,-635 1550.5,-635 1550.5,-635 1550.5,-165 1550.5,-115.36 1539.92,-57.13 1534.55,-30.76"/>
<polygon fill="midnightblue" stroke="midnightblue" points="1547,-759.06 1550.5,-769.07 1554,-759.07 1547,-759.06"/>
</g>
<!-- Node3 -->
<g id="node3" class="node">
<title>Node3</title>
<g id="a_node3"><a xlink:href="_i_camera_8hpp.html" target="_top" xlink:title=" ">
<polygon fill="white" stroke="black" points="917.5,-691.5 917.5,-732.5 1029.5,-732.5 1029.5,-691.5 917.5,-691.5"/>
<text text-anchor="start" x="925.5" y="-720.5" font-family="Helvetica,sans-Serif" font-size="10.00">kryne&#45;engine/include</text>
<text text-anchor="start" x="925.5" y="-709.5" font-family="Helvetica,sans-Serif" font-size="10.00">/kryne&#45;engine/Camera</text>
<text text-anchor="middle" x="973.5" y="-698.5" font-family="Helvetica,sans-Serif" font-size="10.00">/ICamera.hpp</text>
</a>
</g>
</g>
<!-- Node1&#45;&gt;Node3 -->
<g id="edge2" class="edge">
<title>Node1&#45;&gt;Node3</title>
<path fill="none" stroke="midnightblue" d="M1484.36,-780.29C1369.9,-765.21 1136.92,-734.52 1029.74,-720.41"/>
<polygon fill="midnightblue" stroke="midnightblue" points="1484.02,-783.77 1494.39,-781.61 1484.93,-776.83 1484.02,-783.77"/>
</g>
<!-- Node39 -->
<g id="node39" class="node">
<title>Node39</title>
<g id="a_node39"><a xlink:href="_perspective_projection_data_8hpp.html" target="_top" xlink:title=" ">
<polygon fill="white" stroke="black" points="1578.5,-613.5 1578.5,-654.5 1730.5,-654.5 1730.5,-613.5 1578.5,-613.5"/>
<text text-anchor="start" x="1586.5" y="-642.5" font-family="Helvetica,sans-Serif" font-size="10.00">kryne&#45;engine/include</text>
<text text-anchor="start" x="1586.5" y="-631.5" font-family="Helvetica,sans-Serif" font-size="10.00">/kryne&#45;engine/Camera</text>
<text text-anchor="middle" x="1654.5" y="-620.5" font-family="Helvetica,sans-Serif" font-size="10.00">/PerspectiveProjectionData.hpp</text>
</a>
</g>
</g>
<!-- Node1&#45;&gt;Node39 -->
<g id="edge57" class="edge">
<title>Node1&#45;&gt;Node39</title>
<path fill="none" stroke="midnightblue" d="M1569.44,-760.96C1590.17,-730.26 1622.88,-681.82 1641.11,-654.83"/>
<polygon fill="midnightblue" stroke="midnightblue" points="1566.37,-759.25 1563.67,-769.5 1572.17,-763.17 1566.37,-759.25"/>
</g>
<!-- Node4 -->
<g id="node4" class="node">
<title>Node4</title>
<g id="a_node4"><a xlink:href="kryne-engine_2_camera_2_camera_8h.html" target="_top" xlink:title=" ">
<polygon fill="white" stroke="black" points="1146.5,-223.5 1146.5,-264.5 1258.5,-264.5 1258.5,-223.5 1146.5,-223.5"/>
<text text-anchor="start" x="1154.5" y="-252.5" font-family="Helvetica,sans-Serif" font-size="10.00">kryne&#45;engine/include</text>
<text text-anchor="start" x="1154.5" y="-241.5" font-family="Helvetica,sans-Serif" font-size="10.00">/kryne&#45;engine/Camera</text>
<text text-anchor="middle" x="1202.5" y="-230.5" font-family="Helvetica,sans-Serif" font-size="10.00">/Camera.h</text>
</a>
</g>
</g>
<!-- Node3&#45;&gt;Node4 -->
<g id="edge3" class="edge">
<title>Node3&#45;&gt;Node4</title>
<path fill="none" stroke="midnightblue" d="M979.41,-681.04C984.98,-650.11 992.5,-600.38 992.5,-557 992.5,-557 992.5,-557 992.5,-399 992.5,-322.48 1084.29,-279.83 1146.5,-259.71"/>
<polygon fill="midnightblue" stroke="midnightblue" points="975.91,-680.69 977.53,-691.16 982.79,-681.97 975.91,-680.69"/>
</g>
<!-- Node14 -->
<g id="node14" class="node">
<title>Node14</title>
<g id="a_node14"><a xlink:href="_i_render_mesh_8hpp.html" target="_top" xlink:title=" ">
<polygon fill="white" stroke="black" points="628.5,-613.5 628.5,-654.5 750.5,-654.5 750.5,-613.5 628.5,-613.5"/>
<text text-anchor="start" x="636.5" y="-642.5" font-family="Helvetica,sans-Serif" font-size="10.00">kryne&#45;engine/include</text>
<text text-anchor="start" x="636.5" y="-631.5" font-family="Helvetica,sans-Serif" font-size="10.00">/kryne&#45;engine/Rendering</text>
<text text-anchor="middle" x="689.5" y="-620.5" font-family="Helvetica,sans-Serif" font-size="10.00">/IRenderMesh.hpp</text>
</a>
</g>
</g>
<!-- Node3&#45;&gt;Node14 -->
<g id="edge16" class="edge">
<title>Node3&#45;&gt;Node14</title>
<path fill="none" stroke="midnightblue" d="M907.56,-693.35C860.3,-680.71 797.1,-663.79 750.91,-651.43"/>
<polygon fill="midnightblue" stroke="midnightblue" points="906.83,-696.78 917.39,-695.98 908.64,-690.02 906.83,-696.78"/>
</g>
<!-- Node15 -->
<g id="node15" class="node">
<title>Node15</title>
<g id="a_node15"><a xlink:href="_loop_renderer_8h.html" target="_top" xlink:title=" ">
<polygon fill="white" stroke="black" points="628.5,-535.5 628.5,-576.5 750.5,-576.5 750.5,-535.5 628.5,-535.5"/>
<text text-anchor="start" x="636.5" y="-564.5" font-family="Helvetica,sans-Serif" font-size="10.00">kryne&#45;engine/include</text>
<text text-anchor="start" x="636.5" y="-553.5" font-family="Helvetica,sans-Serif" font-size="10.00">/kryne&#45;engine/Rendering</text>
<text text-anchor="middle" x="689.5" y="-542.5" font-family="Helvetica,sans-Serif" font-size="10.00">/LoopRenderer.h</text>
</a>
</g>
</g>
<!-- Node3&#45;&gt;Node15 -->
<g id="edge56" class="edge">
<title>Node3&#45;&gt;Node15</title>
<path fill="none" stroke="midnightblue" d="M928.52,-686.61C872.34,-656.14 777.32,-604.62 725.62,-576.59"/>
<polygon fill="midnightblue" stroke="midnightblue" points="927.07,-689.81 937.53,-691.5 930.41,-683.65 927.07,-689.81"/>
</g>
<!-- Node4&#45;&gt;Node2 -->
<g id="edge4" class="edge">
<title>Node4&#45;&gt;Node2</title>
<path fill="none" stroke="midnightblue" d="M1269.03,-238.46C1344.54,-231.92 1461.29,-217.16 1492.5,-187 1536.39,-144.58 1535.4,-63.67 1532.95,-30.85"/>
<polygon fill="midnightblue" stroke="midnightblue" points="1268.34,-235.01 1258.67,-239.33 1268.92,-241.98 1268.34,-235.01"/>
</g>
<!-- Node5 -->
<g id="node5" class="node">
<title>Node5</title>
<g id="a_node5"><a xlink:href="_mesh_8h.html" target="_top" xlink:title=" ">
<polygon fill="white" stroke="black" points="1140.5,-145.5 1140.5,-186.5 1264.5,-186.5 1264.5,-145.5 1140.5,-145.5"/>
<text text-anchor="start" x="1148.5" y="-174.5" font-family="Helvetica,sans-Serif" font-size="10.00">kryne&#45;engine/include</text>
<text text-anchor="start" x="1148.5" y="-163.5" font-family="Helvetica,sans-Serif" font-size="10.00">/kryne&#45;engine/3DObjects</text>
<text text-anchor="middle" x="1202.5" y="-152.5" font-family="Helvetica,sans-Serif" font-size="10.00">/Mesh.h</text>
</a>
</g>
</g>
<!-- Node4&#45;&gt;Node5 -->
<g id="edge5" class="edge">
<title>Node4&#45;&gt;Node5</title>
<path fill="none" stroke="midnightblue" d="M1202.5,-213.3C1202.5,-204.3 1202.5,-194.65 1202.5,-186.51"/>
<polygon fill="midnightblue" stroke="midnightblue" points="1199,-213.43 1202.5,-223.43 1206,-213.43 1199,-213.43"/>
</g>
<!-- Node7 -->
<g id="node7" class="node">
<title>Node7</title>
<g id="a_node7"><a xlink:href="_renderer_8h.html" target="_top" xlink:title=" ">
<polygon fill="white" stroke="black" points="1269.5,-67.5 1269.5,-108.5 1391.5,-108.5 1391.5,-67.5 1269.5,-67.5"/>
<text text-anchor="start" x="1277.5" y="-96.5" font-family="Helvetica,sans-Serif" font-size="10.00">kryne&#45;engine/include</text>
<text text-anchor="start" x="1277.5" y="-85.5" font-family="Helvetica,sans-Serif" font-size="10.00">/kryne&#45;engine/Rendering</text>
<text text-anchor="middle" x="1330.5" y="-74.5" font-family="Helvetica,sans-Serif" font-size="10.00">/Renderer.h</text>
</a>
</g>
</g>
<!-- Node4&#45;&gt;Node7 -->
<g id="edge14" class="edge">
<title>Node4&#45;&gt;Node7</title>
<path fill="none" stroke="midnightblue" d="M1267.74,-218.61C1282.28,-210.5 1296.37,-200.1 1306.5,-187 1324.19,-164.14 1329.04,-130.04 1330.26,-108.68"/>
<polygon fill="midnightblue" stroke="midnightblue" points="1265.9,-215.63 1258.66,-223.37 1269.15,-221.83 1265.9,-215.63"/>
</g>
<!-- Node11 -->
<g id="node11" class="node">
<title>Node11</title>
<g id="a_node11"><a xlink:href="_orbit_controls_component_8h.html" target="_top" xlink:title=" ">
<polygon fill="white" stroke="black" points="634.5,-67.5 634.5,-108.5 768.5,-108.5 768.5,-67.5 634.5,-67.5"/>
<text text-anchor="start" x="642.5" y="-96.5" font-family="Helvetica,sans-Serif" font-size="10.00">kryne&#45;engine/include</text>
<text text-anchor="start" x="642.5" y="-85.5" font-family="Helvetica,sans-Serif" font-size="10.00">/kryne&#45;engine/Camera</text>
<text text-anchor="middle" x="701.5" y="-74.5" font-family="Helvetica,sans-Serif" font-size="10.00">/OrbitControlsComponent.h</text>
</a>
</g>
</g>
<!-- Node4&#45;&gt;Node11 -->
<g id="edge11" class="edge">
<title>Node4&#45;&gt;Node11</title>
<path fill="none" stroke="midnightblue" d="M1167.98,-217.48C1132.17,-191.5 1078.16,-153.82 1054.5,-145 938.18,-101.61 899.33,-132.85 777.5,-109 774.55,-108.42 771.55,-107.8 768.53,-107.14"/>
<polygon fill="midnightblue" stroke="midnightblue" points="1166.07,-220.43 1176.22,-223.49 1170.2,-214.77 1166.07,-220.43"/>
</g>
<!-- Node13 -->
<g id="node13" class="node">
<title>Node13</title>
<g id="a_node13"><a xlink:href="_camera_8cpp.html" target="_top" xlink:title=" ">
<polygon fill="white" stroke="black" points="1359,-151 1359,-181 1484,-181 1484,-151 1359,-151"/>
<text text-anchor="start" x="1367" y="-169" font-family="Helvetica,sans-Serif" font-size="10.00">kryne&#45;engine/src/Camera</text>
<text text-anchor="middle" x="1421.5" y="-158" font-family="Helvetica,sans-Serif" font-size="10.00">/Camera.cpp</text>
</a>
</g>
</g>
<!-- Node4&#45;&gt;Node13 -->
<g id="edge15" class="edge">
<title>Node4&#45;&gt;Node13</title>
<path fill="none" stroke="midnightblue" d="M1268.25,-220.18C1304.95,-207.45 1349.5,-191.99 1381.09,-181.02"/>
<polygon fill="midnightblue" stroke="midnightblue" points="1266.91,-216.94 1258.61,-223.53 1269.21,-223.55 1266.91,-216.94"/>
</g>
<!-- Node6 -->
<g id="node6" class="node">
<title>Node6</title>
<g id="a_node6"><a xlink:href="3_d_objects_8h.html" target="_top" xlink:title=" ">
<polygon fill="white" stroke="black" points="969,-73 969,-103 1096,-103 1096,-73 969,-73"/>
<text text-anchor="start" x="977" y="-91" font-family="Helvetica,sans-Serif" font-size="10.00">kryne&#45;engine/include</text>
<text text-anchor="middle" x="1032.5" y="-80" font-family="Helvetica,sans-Serif" font-size="10.00">/KEModules/3DObjects.h</text>
</a>
</g>
</g>
<!-- Node5&#45;&gt;Node6 -->
<g id="edge6" class="edge">
<title>Node5&#45;&gt;Node6</title>
<path fill="none" stroke="midnightblue" d="M1149.45,-141.28C1121.43,-128.76 1087.98,-113.81 1064.05,-103.11"/>
<polygon fill="midnightblue" stroke="midnightblue" points="1148.16,-144.54 1158.72,-145.43 1151.02,-138.15 1148.16,-144.54"/>
</g>
<!-- Node5&#45;&gt;Node7 -->
<g id="edge7" class="edge">
<title>Node5&#45;&gt;Node7</title>
<path fill="none" stroke="midnightblue" d="M1244.26,-140.2C1261.59,-129.92 1281.39,-118.16 1297.65,-108.51"/>
<polygon fill="midnightblue" stroke="midnightblue" points="1242.27,-137.31 1235.46,-145.43 1245.85,-143.33 1242.27,-137.31"/>
</g>
<!-- Node10 -->
<g id="node10" class="node">
<title>Node10</title>
<g id="a_node10"><a xlink:href="_mesh_8cpp.html" target="_top" xlink:title=" ">
<polygon fill="white" stroke="black" points="1114,-73 1114,-103 1251,-103 1251,-73 1114,-73"/>
<text text-anchor="start" x="1122" y="-91" font-family="Helvetica,sans-Serif" font-size="10.00">kryne&#45;engine/src/3DObjects</text>
<text text-anchor="middle" x="1182.5" y="-80" font-family="Helvetica,sans-Serif" font-size="10.00">/Mesh.cpp</text>
</a>
</g>
</g>
<!-- Node5&#45;&gt;Node10 -->
<g id="edge10" class="edge">
<title>Node5&#45;&gt;Node10</title>
<path fill="none" stroke="midnightblue" d="M1194.77,-135.62C1191.84,-124.5 1188.64,-112.34 1186.24,-103.23"/>
<polygon fill="midnightblue" stroke="midnightblue" points="1191.42,-136.65 1197.35,-145.43 1198.19,-134.87 1191.42,-136.65"/>
</g>
<!-- Node8 -->
<g id="node8" class="node">
<title>Node8</title>
<g id="a_node8"><a xlink:href="_rendering_8h.html" target="_top" xlink:title=" ">
<polygon fill="white" stroke="black" points="1149,-0.5 1149,-30.5 1274,-30.5 1274,-0.5 1149,-0.5"/>
<text text-anchor="start" x="1157" y="-18.5" font-family="Helvetica,sans-Serif" font-size="10.00">kryne&#45;engine/include</text>
<text text-anchor="middle" x="1211.5" y="-7.5" font-family="Helvetica,sans-Serif" font-size="10.00">/KEModules/Rendering.h</text>
</a>
</g>
</g>
<!-- Node7&#45;&gt;Node8 -->
<g id="edge8" class="edge">
<title>Node7&#45;&gt;Node8</title>
<path fill="none" stroke="midnightblue" d="M1288.31,-62.01C1270.56,-51.49 1250.56,-39.64 1235.42,-30.67"/>
<polygon fill="midnightblue" stroke="midnightblue" points="1286.96,-65.28 1297.35,-67.36 1290.53,-59.25 1286.96,-65.28"/>
</g>
<!-- Node9 -->
<g id="node9" class="node">
<title>Node9</title>
<g id="a_node9"><a xlink:href="_renderer_8cpp.html" target="_top" xlink:title=" ">
<polygon fill="white" stroke="black" points="1292,-0.5 1292,-30.5 1427,-30.5 1427,-0.5 1292,-0.5"/>
<text text-anchor="start" x="1300" y="-18.5" font-family="Helvetica,sans-Serif" font-size="10.00">kryne&#45;engine/src/Rendering</text>
<text text-anchor="middle" x="1359.5" y="-7.5" font-family="Helvetica,sans-Serif" font-size="10.00">/Renderer.cpp</text>
</a>
</g>
</g>
<!-- Node7&#45;&gt;Node9 -->
<g id="edge9" class="edge">
<title>Node7&#45;&gt;Node9</title>
<path fill="none" stroke="midnightblue" d="M1342.44,-57.97C1346.28,-48.63 1350.37,-38.7 1353.58,-30.89"/>
<polygon fill="midnightblue" stroke="midnightblue" points="1339.15,-56.78 1338.58,-67.36 1345.62,-59.45 1339.15,-56.78"/>
</g>
<!-- Node11&#45;&gt;Node2 -->
<g id="edge12" class="edge">
<title>Node11&#45;&gt;Node2</title>
<path fill="none" stroke="midnightblue" d="M778.85,-66.96C1068.59,-22.37 1147.42,-60.57 1435.5,-31 1447.99,-29.72 1461.34,-27.95 1474,-26.1"/>
<polygon fill="midnightblue" stroke="midnightblue" points="778.24,-63.51 768.89,-68.51 779.31,-70.43 778.24,-63.51"/>
</g>
<!-- Node12 -->
<g id="node12" class="node">
<title>Node12</title>
<g id="a_node12"><a xlink:href="_orbit_controls_component_8cpp.html" target="_top" xlink:title=" ">
<polygon fill="white" stroke="black" points="629,-0.5 629,-30.5 774,-30.5 774,-0.5 629,-0.5"/>
<text text-anchor="start" x="637" y="-18.5" font-family="Helvetica,sans-Serif" font-size="10.00">kryne&#45;engine/src/Camera</text>
<text text-anchor="middle" x="701.5" y="-7.5" font-family="Helvetica,sans-Serif" font-size="10.00">/OrbitControlsComponent.cpp</text>
</a>
</g>
</g>
<!-- Node11&#45;&gt;Node12 -->
<g id="edge13" class="edge">
<title>Node11&#45;&gt;Node12</title>
<path fill="none" stroke="midnightblue" d="M701.5,-57.08C701.5,-48.01 701.5,-38.45 701.5,-30.89"/>
<polygon fill="midnightblue" stroke="midnightblue" points="698,-57.36 701.5,-67.36 705,-57.36 698,-57.36"/>
</g>
<!-- Node14&#45;&gt;Node15 -->
<g id="edge17" class="edge">
<title>Node14&#45;&gt;Node15</title>
<path fill="none" stroke="midnightblue" d="M689.5,-603.3C689.5,-594.3 689.5,-584.65 689.5,-576.51"/>
<polygon fill="midnightblue" stroke="midnightblue" points="686,-603.43 689.5,-613.43 693,-603.43 686,-603.43"/>
</g>
<!-- Node30 -->
<g id="node30" class="node">
<title>Node30</title>
<g id="a_node30"><a xlink:href="_render_mesh_8h.html" target="_top" xlink:title=" ">
<polygon fill="white" stroke="black" points="12.5,-145.5 12.5,-186.5 134.5,-186.5 134.5,-145.5 12.5,-145.5"/>
<text text-anchor="start" x="20.5" y="-174.5" font-family="Helvetica,sans-Serif" font-size="10.00">kryne&#45;engine/include</text>
<text text-anchor="start" x="20.5" y="-163.5" font-family="Helvetica,sans-Serif" font-size="10.00">/kryne&#45;engine/Rendering</text>
<text text-anchor="middle" x="73.5" y="-152.5" font-family="Helvetica,sans-Serif" font-size="10.00">/RenderMesh.h</text>
</a>
</g>
</g>
<!-- Node14&#45;&gt;Node30 -->
<g id="edge55" class="edge">
<title>Node14&#45;&gt;Node30</title>
<path fill="none" stroke="midnightblue" d="M618.11,-629.71C458.86,-620.44 88.5,-587.23 88.5,-479 88.5,-479 88.5,-479 88.5,-321 88.5,-272.65 81.08,-216.16 76.68,-186.87"/>
<polygon fill="midnightblue" stroke="midnightblue" points="618.1,-633.22 628.29,-630.29 618.5,-626.23 618.1,-633.22"/>
</g>
<!-- Node16 -->
<g id="node16" class="node">
<title>Node16</title>
<g id="a_node16"><a xlink:href="_graphic_context_8h.html" target="_top" xlink:title=" ">
<polygon fill="white" stroke="black" points="546,-457.5 546,-498.5 715,-498.5 715,-457.5 546,-457.5"/>
<text text-anchor="start" x="554" y="-486.5" font-family="Helvetica,sans-Serif" font-size="10.00">kryne&#45;engine/include</text>
<text text-anchor="start" x="554" y="-475.5" font-family="Helvetica,sans-Serif" font-size="10.00">/kryne&#45;engine/Core/GraphicContext</text>
<text text-anchor="middle" x="630.5" y="-464.5" font-family="Helvetica,sans-Serif" font-size="10.00">/GraphicContext.h</text>
</a>
</g>
</g>
<!-- Node15&#45;&gt;Node16 -->
<g id="edge18" class="edge">
<title>Node15&#45;&gt;Node16</title>
<path fill="none" stroke="midnightblue" d="M668.03,-527.34C660.6,-517.78 652.45,-507.27 645.64,-498.51"/>
<polygon fill="midnightblue" stroke="midnightblue" points="665.41,-529.68 674.31,-535.43 670.94,-525.38 665.41,-529.68"/>
</g>
<!-- Node18 -->
<g id="node18" class="node">
<title>Node18</title>
<g id="a_node18"><a xlink:href="_open_g_l_renderer_8h.html" target="_top" xlink:title=" ">
<polygon fill="white" stroke="black" points="152.5,-301.5 152.5,-342.5 302.5,-342.5 302.5,-301.5 152.5,-301.5"/>
<text text-anchor="start" x="160.5" y="-330.5" font-family="Helvetica,sans-Serif" font-size="10.00">kryne&#45;engine/include</text>
<text text-anchor="start" x="160.5" y="-319.5" font-family="Helvetica,sans-Serif" font-size="10.00">/kryne&#45;engine/Rendering</text>
<text text-anchor="middle" x="227.5" y="-308.5" font-family="Helvetica,sans-Serif" font-size="10.00">/Renderers/OpenGLRenderer.h</text>
</a>
</g>
</g>
<!-- Node15&#45;&gt;Node18 -->
<g id="edge54" class="edge">
<title>Node15&#45;&gt;Node18</title>
<path fill="none" stroke="midnightblue" d="M618.33,-544.05C534.97,-528.38 395.92,-493.08 298.5,-421 270.29,-400.13 248.67,-364.79 237.05,-342.73"/>
<polygon fill="midnightblue" stroke="midnightblue" points="617.74,-547.5 628.21,-545.87 619.01,-540.62 617.74,-547.5"/>
</g>
<!-- Node17 -->
<g id="node17" class="node">
<title>Node17</title>
<g id="a_node17"><a xlink:href="_open_g_l_context_8h.html" target="_top" xlink:title=" ">
<polygon fill="white" stroke="black" points="308,-379.5 308,-420.5 477,-420.5 477,-379.5 308,-379.5"/>
<text text-anchor="start" x="316" y="-408.5" font-family="Helvetica,sans-Serif" font-size="10.00">kryne&#45;engine/include</text>
<text text-anchor="start" x="316" y="-397.5" font-family="Helvetica,sans-Serif" font-size="10.00">/kryne&#45;engine/Core/GraphicContext</text>
<text text-anchor="middle" x="392.5" y="-386.5" font-family="Helvetica,sans-Serif" font-size="10.00">/OpenGLContext.h</text>
</a>
</g>
</g>
<!-- Node16&#45;&gt;Node17 -->
<g id="edge19" class="edge">
<title>Node16&#45;&gt;Node17</title>
<path fill="none" stroke="midnightblue" d="M559.43,-454.3C525.74,-443.55 485.89,-430.82 453.58,-420.51"/>
<polygon fill="midnightblue" stroke="midnightblue" points="558.62,-457.72 569.21,-457.43 560.75,-451.05 558.62,-457.72"/>
</g>
<!-- Node21 -->
<g id="node21" class="node">
<title>Node21</title>
<g id="a_node21"><a xlink:href="_process_8h.html" target="_top" xlink:title=" ">
<polygon fill="white" stroke="black" points="557.5,-385 557.5,-415 703.5,-415 703.5,-385 557.5,-385"/>
<text text-anchor="start" x="565.5" y="-403" font-family="Helvetica,sans-Serif" font-size="10.00">kryne&#45;engine/include</text>
<text text-anchor="middle" x="630.5" y="-392" font-family="Helvetica,sans-Serif" font-size="10.00">/kryne&#45;engine/Core/Process.h</text>
</a>
</g>
</g>
<!-- Node16&#45;&gt;Node21 -->
<g id="edge24" class="edge">
<title>Node16&#45;&gt;Node21</title>
<path fill="none" stroke="midnightblue" d="M630.5,-447.28C630.5,-436.25 630.5,-424.25 630.5,-415.23"/>
<polygon fill="midnightblue" stroke="midnightblue" points="627,-447.43 630.5,-457.43 634,-447.43 627,-447.43"/>
</g>
<!-- Node17&#45;&gt;Node18 -->
<g id="edge20" class="edge">
<title>Node17&#45;&gt;Node18</title>
<path fill="none" stroke="midnightblue" d="M334.81,-375.33C311.22,-364.78 284.69,-352.51 263.87,-342.51"/>
<polygon fill="midnightblue" stroke="midnightblue" points="333.46,-378.56 344.02,-379.43 336.31,-372.17 333.46,-378.56"/>
</g>
<!-- Node20 -->
<g id="node20" class="node">
<title>Node20</title>
<g id="a_node20"><a xlink:href="_open_g_l_context_8cpp.html" target="_top" xlink:title=" ">
<polygon fill="white" stroke="black" points="321,-307 321,-337 500,-337 500,-307 321,-307"/>
<text text-anchor="start" x="329" y="-325" font-family="Helvetica,sans-Serif" font-size="10.00">kryne&#45;engine/src/Core</text>
<text text-anchor="middle" x="410.5" y="-314" font-family="Helvetica,sans-Serif" font-size="10.00">/GraphicContext/OpenGLContext.cpp</text>
</a>
</g>
</g>
<!-- Node17&#45;&gt;Node20 -->
<g id="edge23" class="edge">
<title>Node17&#45;&gt;Node20</title>
<path fill="none" stroke="midnightblue" d="M399.46,-369.62C402.09,-358.5 404.97,-346.34 407.13,-337.23"/>
<polygon fill="midnightblue" stroke="midnightblue" points="396.03,-368.89 397.14,-379.43 402.85,-370.5 396.03,-368.89"/>
</g>
<!-- Node18&#45;&gt;Node17 -->
<g id="edge21" class="edge">
<title>Node18&#45;&gt;Node17</title>
<path fill="none" stroke="midnightblue" d="M285.04,-346.6C308.61,-357.14 335.15,-369.41 356,-379.43"/>
<polygon fill="midnightblue" stroke="midnightblue" points="286.39,-343.37 275.83,-342.51 283.54,-349.77 286.39,-343.37"/>
</g>
<!-- Node19 -->
<g id="node19" class="node">
<title>Node19</title>
<g id="a_node19"><a xlink:href="_open_g_l_renderer_8cpp.html" target="_top" xlink:title=" ">
<polygon fill="white" stroke="black" points="147,-229 147,-259 308,-259 308,-229 147,-229"/>
<text text-anchor="start" x="155" y="-247" font-family="Helvetica,sans-Serif" font-size="10.00">kryne&#45;engine/src/Rendering</text>
<text text-anchor="middle" x="227.5" y="-236" font-family="Helvetica,sans-Serif" font-size="10.00">/Renderers/OpenGLRenderer.cpp</text>
</a>
</g>
</g>
<!-- Node18&#45;&gt;Node19 -->
<g id="edge22" class="edge">
<title>Node18&#45;&gt;Node19</title>
<path fill="none" stroke="midnightblue" d="M227.5,-291.28C227.5,-280.25 227.5,-268.25 227.5,-259.23"/>
<polygon fill="midnightblue" stroke="midnightblue" points="224,-291.43 227.5,-301.43 231,-291.43 224,-291.43"/>
</g>
<!-- Node22 -->
<g id="node22" class="node">
<title>Node22</title>
<g id="a_node22"><a xlink:href="_entity_8h.html" target="_top" xlink:title=" ">
<polygon fill="white" stroke="black" points="705,-307 705,-337 840,-337 840,-307 705,-307"/>
<text text-anchor="start" x="713" y="-325" font-family="Helvetica,sans-Serif" font-size="10.00">kryne&#45;engine/include</text>
<text text-anchor="middle" x="772.5" y="-314" font-family="Helvetica,sans-Serif" font-size="10.00">/kryne&#45;engine/Core/Entity.h</text>
</a>
</g>
</g>
<!-- Node21&#45;&gt;Node22 -->
<g id="edge25" class="edge">
<title>Node21&#45;&gt;Node22</title>
<path fill="none" stroke="midnightblue" d="M660.38,-379.82C684.03,-366.51 716.8,-349.07 740.89,-337.04"/>
<polygon fill="midnightblue" stroke="midnightblue" points="658.45,-376.89 651.49,-384.88 661.91,-382.98 658.45,-376.89"/>
</g>
<!-- Node33 -->
<g id="node33" class="node">
<title>Node33</title>
<g id="a_node33"><a xlink:href="_system_8h.html" target="_top" xlink:title=" ">
<polygon fill="white" stroke="black" points="341,-229 341,-259 484,-259 484,-229 341,-229"/>
<text text-anchor="start" x="349" y="-247" font-family="Helvetica,sans-Serif" font-size="10.00">kryne&#45;engine/include</text>
<text text-anchor="middle" x="412.5" y="-236" font-family="Helvetica,sans-Serif" font-size="10.00">/kryne&#45;engine/Core/System.h</text>
</a>
</g>
</g>
<!-- Node21&#45;&gt;Node33 -->
<g id="edge52" class="edge">
<title>Node21&#45;&gt;Node33</title>
<path fill="none" stroke="midnightblue" d="M600.51,-378.62C574.32,-358 535.46,-325.73 499.5,-301 476.92,-285.48 449.86,-269.94 431.76,-259.19"/>
<polygon fill="midnightblue" stroke="midnightblue" points="598.51,-381.5 608.55,-384.88 602.81,-375.98 598.51,-381.5"/>
</g>
<!-- Node38 -->
<g id="node38" class="node">
<title>Node38</title>
<g id="a_node38"><a xlink:href="_process_8cpp.html" target="_top" xlink:title=" ">
<polygon fill="white" stroke="black" points="574.5,-307 574.5,-337 686.5,-337 686.5,-307 574.5,-307"/>
<text text-anchor="start" x="582.5" y="-325" font-family="Helvetica,sans-Serif" font-size="10.00">kryne&#45;engine/src/Core</text>
<text text-anchor="middle" x="630.5" y="-314" font-family="Helvetica,sans-Serif" font-size="10.00">/Process.cpp</text>
</a>
</g>
</g>
<!-- Node21&#45;&gt;Node38 -->
<g id="edge53" class="edge">
<title>Node21&#45;&gt;Node38</title>
<path fill="none" stroke="midnightblue" d="M630.5,-374.59C630.5,-362.26 630.5,-347.72 630.5,-337.23"/>
<polygon fill="midnightblue" stroke="midnightblue" points="627,-374.7 630.5,-384.7 634,-374.71 627,-374.7"/>
</g>
<!-- Node22&#45;&gt;Node4 -->
<g id="edge36" class="edge">
<title>Node22&#45;&gt;Node4</title>
<path fill="none" stroke="midnightblue" d="M850.06,-307.29C935.38,-292.21 1070.44,-268.34 1146.2,-254.95"/>
<polygon fill="midnightblue" stroke="midnightblue" points="849.4,-303.85 840.16,-309.04 850.62,-310.75 849.4,-303.85"/>
</g>
<!-- Node22&#45;&gt;Node21 -->
<g id="edge45" class="edge">
<title>Node22&#45;&gt;Node21</title>
<path fill="none" stroke="midnightblue" d="M742.77,-342.1C719.16,-355.39 686.39,-372.83 662.26,-384.88"/>
<polygon fill="midnightblue" stroke="midnightblue" points="744.68,-345.03 751.64,-337.04 741.22,-338.95 744.68,-345.03"/>
</g>
<!-- Node23 -->
<g id="node23" class="node">
<title>Node23</title>
<g id="a_node23"><a xlink:href="_scene_8h.html" target="_top" xlink:title=" ">
<polygon fill="white" stroke="black" points="890.5,-223.5 890.5,-264.5 1014.5,-264.5 1014.5,-223.5 890.5,-223.5"/>
<text text-anchor="start" x="898.5" y="-252.5" font-family="Helvetica,sans-Serif" font-size="10.00">kryne&#45;engine/include</text>
<text text-anchor="start" x="898.5" y="-241.5" font-family="Helvetica,sans-Serif" font-size="10.00">/kryne&#45;engine/3DObjects</text>
<text text-anchor="middle" x="952.5" y="-230.5" font-family="Helvetica,sans-Serif" font-size="10.00">/Scene.h</text>
</a>
</g>
</g>
<!-- Node22&#45;&gt;Node23 -->
<g id="edge26" class="edge">
<title>Node22&#45;&gt;Node23</title>
<path fill="none" stroke="midnightblue" d="M815.23,-302.96C842.56,-291.42 877.99,-276.46 906.01,-264.63"/>
<polygon fill="midnightblue" stroke="midnightblue" points="813.79,-299.77 805.93,-306.88 816.51,-306.22 813.79,-299.77"/>
</g>
<!-- Node24 -->
<g id="node24" class="node">
<title>Node24</title>
<g id="a_node24"><a xlink:href="_transform_8h.html" target="_top" xlink:title=" ">
<polygon fill="white" stroke="black" points="766.5,-145.5 766.5,-186.5 890.5,-186.5 890.5,-145.5 766.5,-145.5"/>
<text text-anchor="start" x="774.5" y="-174.5" font-family="Helvetica,sans-Serif" font-size="10.00">kryne&#45;engine/include</text>
<text text-anchor="start" x="774.5" y="-163.5" font-family="Helvetica,sans-Serif" font-size="10.00">/kryne&#45;engine/3DObjects</text>
<text text-anchor="middle" x="828.5" y="-152.5" font-family="Helvetica,sans-Serif" font-size="10.00">/Transform.h</text>
</a>
</g>
</g>
<!-- Node22&#45;&gt;Node24 -->
<g id="edge35" class="edge">
<title>Node22&#45;&gt;Node24</title>
<path fill="none" stroke="midnightblue" d="M777.3,-297.15C781.71,-287.37 787.29,-275.83 791.5,-265 801.83,-238.45 810.24,-206.53 817.3,-186.5"/>
<polygon fill="midnightblue" stroke="midnightblue" points="773.97,-296.03 773.23,-306.6 780.4,-298.8 773.97,-296.03"/>
</g>
<!-- Node27 -->
<g id="node27" class="node">
<title>Node27</title>
<g id="a_node27"><a xlink:href="_component_8h.html" target="_top" xlink:title=" ">
<polygon fill="white" stroke="black" points="502,-229 502,-259 661,-259 661,-229 502,-229"/>
<text text-anchor="start" x="510" y="-247" font-family="Helvetica,sans-Serif" font-size="10.00">kryne&#45;engine/include</text>
<text text-anchor="middle" x="581.5" y="-236" font-family="Helvetica,sans-Serif" font-size="10.00">/kryne&#45;engine/Core/Component.h</text>
</a>
</g>
</g>
<!-- Node22&#45;&gt;Node27 -->
<g id="edge37" class="edge">
<title>Node22&#45;&gt;Node27</title>
<path fill="none" stroke="midnightblue" d="M722,-303.22C686.77,-289.75 641.04,-271.5 611.41,-259.04"/>
<polygon fill="midnightblue" stroke="midnightblue" points="721.04,-306.6 731.63,-306.88 723.53,-300.06 721.04,-306.6"/>
</g>
<!-- Node22&#45;&gt;Node33 -->
<g id="edge46" class="edge">
<title>Node22&#45;&gt;Node33</title>
<path fill="none" stroke="midnightblue" d="M710.89,-304.54C705.7,-303.29 700.52,-302.09 695.5,-301 605.98,-281.47 582.11,-284.12 492.5,-265 484.1,-263.21 475.24,-261.16 466.6,-259.07"/>
<polygon fill="midnightblue" stroke="midnightblue" points="710.31,-308 720.86,-306.99 711.99,-301.21 710.31,-308"/>
</g>
<!-- Node37 -->
<g id="node37" class="node">
<title>Node37</title>
<g id="a_node37"><a xlink:href="_entity_8cpp.html" target="_top" xlink:title=" ">
<polygon fill="white" stroke="black" points="679.5,-229 679.5,-259 791.5,-259 791.5,-229 679.5,-229"/>
<text text-anchor="start" x="687.5" y="-247" font-family="Helvetica,sans-Serif" font-size="10.00">kryne&#45;engine/src/Core</text>
<text text-anchor="middle" x="735.5" y="-236" font-family="Helvetica,sans-Serif" font-size="10.00">/Entity.cpp</text>
</a>
</g>
</g>
<!-- Node22&#45;&gt;Node37 -->
<g id="edge51" class="edge">
<title>Node22&#45;&gt;Node37</title>
<path fill="none" stroke="midnightblue" d="M761.16,-297.7C755.04,-285.14 747.69,-270.04 742.43,-259.23"/>
<polygon fill="midnightblue" stroke="midnightblue" points="758.02,-299.25 765.54,-306.7 764.31,-296.18 758.02,-299.25"/>
</g>
<!-- Node23&#45;&gt;Node6 -->
<g id="edge27" class="edge">
<title>Node23&#45;&gt;Node6</title>
<path fill="none" stroke="midnightblue" d="M1021.12,-218.56C1034.42,-210.59 1046.65,-200.26 1054.5,-187 1070.31,-160.29 1053.5,-123.34 1041.78,-103.31"/>
<polygon fill="midnightblue" stroke="midnightblue" points="1019.31,-215.56 1012.26,-223.47 1022.7,-221.69 1019.31,-215.56"/>
</g>
<!-- Node23&#45;&gt;Node7 -->
<g id="edge33" class="edge">
<title>Node23&#45;&gt;Node7</title>
<path fill="none" stroke="midnightblue" d="M1024.66,-233.68C1112.98,-221.78 1253.36,-201.03 1273.5,-187 1287.71,-177.1 1309.32,-134.49 1321.44,-108.83"/>
<polygon fill="midnightblue" stroke="midnightblue" points="1024.14,-230.22 1014.69,-235.02 1025.07,-237.16 1024.14,-230.22"/>
</g>
<!-- Node23&#45;&gt;Node15 -->
<g id="edge32" class="edge">
<title>Node23&#45;&gt;Node15</title>
<path fill="none" stroke="midnightblue" d="M929.22,-272.44C877.05,-333.93 751.81,-481.55 706.35,-535.14"/>
<polygon fill="midnightblue" stroke="midnightblue" points="931.99,-274.59 935.79,-264.7 926.65,-270.06 931.99,-274.59"/>
</g>
<!-- Node23&#45;&gt;Node24 -->
<g id="edge28" class="edge">
<title>Node23&#45;&gt;Node24</title>
<path fill="none" stroke="midnightblue" d="M911.58,-217.92C894.91,-207.7 875.93,-196.07 860.32,-186.51"/>
<polygon fill="midnightblue" stroke="midnightblue" points="910.21,-221.19 920.57,-223.43 913.87,-215.22 910.21,-221.19"/>
</g>
<!-- Node26 -->
<g id="node26" class="node">
<title>Node26</title>
<g id="a_node26"><a xlink:href="_scene_8cpp.html" target="_top" xlink:title=" ">
<polygon fill="white" stroke="black" points="909,-151 909,-181 1046,-181 1046,-151 909,-151"/>
<text text-anchor="start" x="917" y="-169" font-family="Helvetica,sans-Serif" font-size="10.00">kryne&#45;engine/src/3DObjects</text>
<text text-anchor="middle" x="977.5" y="-158" font-family="Helvetica,sans-Serif" font-size="10.00">/Scene.cpp</text>
</a>
</g>
</g>
<!-- Node23&#45;&gt;Node26 -->
<g id="edge34" class="edge">
<title>Node23&#45;&gt;Node26</title>
<path fill="none" stroke="midnightblue" d="M962.16,-213.62C965.82,-202.5 969.82,-190.34 972.82,-181.23"/>
<polygon fill="midnightblue" stroke="midnightblue" points="958.74,-212.84 958.94,-223.43 965.39,-215.02 958.74,-212.84"/>
</g>
<!-- Node24&#45;&gt;Node6 -->
<g id="edge29" class="edge">
<title>Node24&#45;&gt;Node6</title>
<path fill="none" stroke="midnightblue" d="M890.41,-141.93C924.39,-129.28 965.42,-113.99 994.64,-103.11"/>
<polygon fill="midnightblue" stroke="midnightblue" points="889.18,-138.66 881.04,-145.43 891.63,-145.22 889.18,-138.66"/>
</g>
<!-- Node24&#45;&gt;Node22 -->
<g id="edge30" class="edge">
<title>Node24&#45;&gt;Node22</title>
<path fill="none" stroke="midnightblue" d="M829.25,-196.42C825.63,-216.13 818.25,-242.49 809.5,-265 803.83,-279.59 795.68,-295.48 788.03,-306.6"/>
<polygon fill="midnightblue" stroke="midnightblue" points="832.71,-196.93 830.82,-186.5 825.8,-195.83 832.71,-196.93"/>
</g>
<!-- Node25 -->
<g id="node25" class="node">
<title>Node25</title>
<g id="a_node25"><a xlink:href="_transform_8cpp.html" target="_top" xlink:title=" ">
<polygon fill="white" stroke="black" points="787,-73 787,-103 924,-103 924,-73 787,-73"/>
<text text-anchor="start" x="795" y="-91" font-family="Helvetica,sans-Serif" font-size="10.00">kryne&#45;engine/src/3DObjects</text>
<text text-anchor="middle" x="855.5" y="-80" font-family="Helvetica,sans-Serif" font-size="10.00">/Transform.cpp</text>
</a>
</g>
</g>
<!-- Node24&#45;&gt;Node25 -->
<g id="edge31" class="edge">
<title>Node24&#45;&gt;Node25</title>
<path fill="none" stroke="midnightblue" d="M838.82,-135.96C842.8,-124.75 847.18,-112.43 850.45,-103.23"/>
<polygon fill="midnightblue" stroke="midnightblue" points="835.5,-134.83 835.45,-145.43 842.1,-137.18 835.5,-134.83"/>
</g>
<!-- Node27&#45;&gt;Node22 -->
<g id="edge38" class="edge">
<title>Node27&#45;&gt;Node22</title>
<path fill="none" stroke="midnightblue" d="M631.79,-262.7C666.98,-276.15 712.71,-294.41 742.41,-306.88"/>
<polygon fill="midnightblue" stroke="midnightblue" points="632.76,-259.32 622.17,-259.04 630.27,-265.87 632.76,-259.32"/>
</g>
<!-- Node28 -->
<g id="node28" class="node">
<title>Node28</title>
<g id="a_node28"><a xlink:href="_logic_component_8h.html" target="_top" xlink:title=" ">
<polygon fill="white" stroke="black" points="436.5,-151 436.5,-181 618.5,-181 618.5,-151 436.5,-151"/>
<text text-anchor="start" x="444.5" y="-169" font-family="Helvetica,sans-Serif" font-size="10.00">kryne&#45;engine/include</text>
<text text-anchor="middle" x="527.5" y="-158" font-family="Helvetica,sans-Serif" font-size="10.00">/kryne&#45;engine/Core/LogicComponent.h</text>
</a>
</g>
</g>
<!-- Node27&#45;&gt;Node28 -->
<g id="edge39" class="edge">
<title>Node27&#45;&gt;Node28</title>
<path fill="none" stroke="midnightblue" d="M565.47,-220.44C556.44,-207.73 545.44,-192.25 537.61,-181.23"/>
<polygon fill="midnightblue" stroke="midnightblue" points="562.7,-222.58 571.34,-228.7 568.4,-218.53 562.7,-222.58"/>
</g>
<!-- Node27&#45;&gt;Node30 -->
<g id="edge42" class="edge">
<title>Node27&#45;&gt;Node30</title>
<path fill="none" stroke="midnightblue" d="M513.97,-226.95C506.74,-225.49 499.48,-224.14 492.5,-223 338.61,-197.86 296.61,-216.53 143.5,-187 140.65,-186.45 137.74,-185.84 134.81,-185.18"/>
<polygon fill="midnightblue" stroke="midnightblue" points="513.26,-230.38 523.76,-228.98 514.69,-223.52 513.26,-230.38"/>
</g>
<!-- Node32 -->
<g id="node32" class="node">
<title>Node32</title>
<g id="a_node32"><a xlink:href="_component_8cpp.html" target="_top" xlink:title=" ">
<polygon fill="white" stroke="black" points="636.5,-151 636.5,-181 748.5,-181 748.5,-151 636.5,-151"/>
<text text-anchor="start" x="644.5" y="-169" font-family="Helvetica,sans-Serif" font-size="10.00">kryne&#45;engine/src/Core</text>
<text text-anchor="middle" x="692.5" y="-158" font-family="Helvetica,sans-Serif" font-size="10.00">/Component.cpp</text>
</a>
</g>
</g>
<!-- Node27&#45;&gt;Node32 -->
<g id="edge44" class="edge">
<title>Node27&#45;&gt;Node32</title>
<path fill="none" stroke="midnightblue" d="M610.55,-223.11C629.86,-209.89 654.74,-192.86 671.99,-181.04"/>
<polygon fill="midnightblue" stroke="midnightblue" points="608.39,-220.35 602.12,-228.88 612.35,-226.12 608.39,-220.35"/>
</g>
<!-- Node28&#45;&gt;Node11 -->
<g id="edge40" class="edge">
<title>Node28&#45;&gt;Node11</title>
<path fill="none" stroke="midnightblue" d="M569.16,-146.81C595.52,-135.29 629.59,-120.41 656.56,-108.63"/>
<polygon fill="midnightblue" stroke="midnightblue" points="567.58,-143.67 559.82,-150.88 570.39,-150.09 567.58,-143.67"/>
</g>
<!-- Node29 -->
<g id="node29" class="node">
<title>Node29</title>
<g id="a_node29"><a xlink:href="_logic_component_8cpp.html" target="_top" xlink:title=" ">
<polygon fill="white" stroke="black" points="471.5,-73 471.5,-103 583.5,-103 583.5,-73 471.5,-73"/>
<text text-anchor="start" x="479.5" y="-91" font-family="Helvetica,sans-Serif" font-size="10.00">kryne&#45;engine/src/Core</text>
<text text-anchor="middle" x="527.5" y="-80" font-family="Helvetica,sans-Serif" font-size="10.00">/LogicComponent.cpp</text>
</a>
</g>
</g>
<!-- Node28&#45;&gt;Node29 -->
<g id="edge41" class="edge">
<title>Node28&#45;&gt;Node29</title>
<path fill="none" stroke="midnightblue" d="M527.5,-140.59C527.5,-128.26 527.5,-113.72 527.5,-103.23"/>
<polygon fill="midnightblue" stroke="midnightblue" points="524,-140.7 527.5,-150.7 531,-140.71 524,-140.7"/>
</g>
<!-- Node31 -->
<g id="node31" class="node">
<title>Node31</title>
<g id="a_node31"><a xlink:href="_render_mesh_8cpp.html" target="_top" xlink:title=" ">
<polygon fill="white" stroke="black" points="0,-73 0,-103 135,-103 135,-73 0,-73"/>
<text text-anchor="start" x="8" y="-91" font-family="Helvetica,sans-Serif" font-size="10.00">kryne&#45;engine/src/Rendering</text>
<text text-anchor="middle" x="67.5" y="-80" font-family="Helvetica,sans-Serif" font-size="10.00">/RenderMesh.cpp</text>
</a>
</g>
</g>
<!-- Node30&#45;&gt;Node31 -->
<g id="edge43" class="edge">
<title>Node30&#45;&gt;Node31</title>
<path fill="none" stroke="midnightblue" d="M71.15,-135.28C70.28,-124.25 69.34,-112.25 68.62,-103.23"/>
<polygon fill="midnightblue" stroke="midnightblue" points="67.68,-135.73 71.95,-145.43 74.66,-135.18 67.68,-135.73"/>
</g>
<!-- Node33&#45;&gt;Node21 -->
<g id="edge47" class="edge">
<title>Node33&#45;&gt;Node21</title>
<path fill="none" stroke="midnightblue" d="M455.68,-263.86C475.17,-274.19 498.01,-287.6 517.5,-301 557.35,-328.4 600.76,-365.08 620.5,-384.88"/>
<polygon fill="midnightblue" stroke="midnightblue" points="457.18,-260.69 446.69,-259.19 453.95,-266.9 457.18,-260.69"/>
</g>
<!-- Node34 -->
<g id="node34" class="node">
<title>Node34</title>
<g id="a_node34"><a xlink:href="_transform_update_system_8h.html" target="_top" xlink:title=" ">
<polygon fill="white" stroke="black" points="153,-145.5 153,-186.5 288,-186.5 288,-145.5 153,-145.5"/>
<text text-anchor="start" x="161" y="-174.5" font-family="Helvetica,sans-Serif" font-size="10.00">kryne&#45;engine/include</text>
<text text-anchor="start" x="161" y="-163.5" font-family="Helvetica,sans-Serif" font-size="10.00">/kryne&#45;engine/Systems</text>
<text text-anchor="middle" x="220.5" y="-152.5" font-family="Helvetica,sans-Serif" font-size="10.00">/TransformUpdateSystem.h</text>
</a>
</g>
</g>
<!-- Node33&#45;&gt;Node34 -->
<g id="edge48" class="edge">
<title>Node33&#45;&gt;Node34</title>
<path fill="none" stroke="midnightblue" d="M367.3,-225.11C338.1,-213.55 300.11,-198.51 270.09,-186.63"/>
<polygon fill="midnightblue" stroke="midnightblue" points="366.25,-228.46 376.84,-228.88 368.83,-221.95 366.25,-228.46"/>
</g>
<!-- Node36 -->
<g id="node36" class="node">
<title>Node36</title>
<g id="a_node36"><a xlink:href="_system_8cpp.html" target="_top" xlink:title=" ">
<polygon fill="white" stroke="black" points="306.5,-151 306.5,-181 418.5,-181 418.5,-151 306.5,-151"/>
<text text-anchor="start" x="314.5" y="-169" font-family="Helvetica,sans-Serif" font-size="10.00">kryne&#45;engine/src/Core</text>
<text text-anchor="middle" x="362.5" y="-158" font-family="Helvetica,sans-Serif" font-size="10.00">/System.cpp</text>
</a>
</g>
</g>
<!-- Node33&#45;&gt;Node36 -->
<g id="edge50" class="edge">
<title>Node33&#45;&gt;Node36</title>
<path fill="none" stroke="midnightblue" d="M397.42,-220.07C389.1,-207.44 379.04,-192.15 371.86,-181.23"/>
<polygon fill="midnightblue" stroke="midnightblue" points="394.68,-222.27 403.1,-228.7 400.52,-218.43 394.68,-222.27"/>
</g>
<!-- Node35 -->
<g id="node35" class="node">
<title>Node35</title>
<g id="a_node35"><a xlink:href="_transform_update_system_8cpp.html" target="_top" xlink:title=" ">
<polygon fill="white" stroke="black" points="153.5,-73 153.5,-103 299.5,-103 299.5,-73 153.5,-73"/>
<text text-anchor="start" x="161.5" y="-91" font-family="Helvetica,sans-Serif" font-size="10.00">kryne&#45;engine/src/Systems</text>
<text text-anchor="middle" x="226.5" y="-80" font-family="Helvetica,sans-Serif" font-size="10.00">/TransformUpdateSystem.cpp</text>
</a>
</g>
</g>
<!-- Node34&#45;&gt;Node35 -->
<g id="edge49" class="edge">
<title>Node34&#45;&gt;Node35</title>
<path fill="none" stroke="midnightblue" d="M222.85,-135.28C223.72,-124.25 224.66,-112.25 225.38,-103.23"/>
<polygon fill="midnightblue" stroke="midnightblue" points="219.34,-135.18 222.05,-145.43 226.32,-135.73 219.34,-135.18"/>
</g>
<!-- Node39&#45;&gt;Node2 -->
<g id="edge58" class="edge">
<title>Node39&#45;&gt;Node2</title>
<path fill="none" stroke="midnightblue" d="M1644.37,-603.71C1634.67,-573.03 1621.5,-523.22 1621.5,-479 1621.5,-479 1621.5,-479 1621.5,-165 1621.5,-108.63 1573.48,-55.37 1547.59,-30.76"/>
<polygon fill="midnightblue" stroke="midnightblue" points="1641.08,-604.93 1647.5,-613.35 1647.74,-602.76 1641.08,-604.93"/>
</g>
</g>
</svg>
