<?xml version="1.0" encoding="UTF-8" standalone="no"?>
<!DOCTYPE svg PUBLIC "-//W3C//DTD SVG 1.1//EN"
 "http://www.w3.org/Graphics/SVG/1.1/DTD/svg11.dtd">
<!-- Generated by graphviz version 2.44.1 (20200629.0846)
 -->
<!-- Title: kryne&#45;engine/include/kryne&#45;engine/Camera/ProjectionData.hpp Pages: 1 -->
<svg width="1868pt" height="875pt"
 viewBox="0.00 0.00 1868.00 875.00" xmlns="http://www.w3.org/2000/svg" xmlns:xlink="http://www.w3.org/1999/xlink">
<g id="graph0" class="graph" transform="scale(1 1) rotate(0) translate(4 871)">
<title>kryne&#45;engine/include/kryne&#45;engine/Camera/ProjectionData.hpp</title>
<polygon fill="white" stroke="transparent" points="-4,4 -4,-871 1864,-871 1864,4 -4,4"/>
<!-- Node1 -->
<g id="node1" class="node">
<title>Node1</title>
<g id="a_node1"><a xlink:title=" ">
<polygon fill="#bfbfbf" stroke="black" points="124,-825.5 124,-866.5 236,-866.5 236,-825.5 124,-825.5"/>
<text text-anchor="start" x="132" y="-854.5" font-family="Helvetica,sans-Serif" font-size="10.00">kryne&#45;engine/include</text>
<text text-anchor="start" x="132" y="-843.5" font-family="Helvetica,sans-Serif" font-size="10.00">/kryne&#45;engine/Camera</text>
<text text-anchor="middle" x="180" y="-832.5" font-family="Helvetica,sans-Serif" font-size="10.00">/ProjectionData.hpp</text>
</a>
</g>
</g>
<!-- Node2 -->
<g id="node2" class="node">
<title>Node2</title>
<g id="a_node2"><a xlink:href="_k_e_modules_2_camera_8h.html" target="_top" xlink:title=" ">
<polygon fill="white" stroke="black" points="141.5,-151 141.5,-181 256.5,-181 256.5,-151 141.5,-151"/>
<text text-anchor="start" x="149.5" y="-169" font-family="Helvetica,sans-Serif" font-size="10.00">kryne&#45;engine/include</text>
<text text-anchor="middle" x="199" y="-158" font-family="Helvetica,sans-Serif" font-size="10.00">/KEModules/Camera.h</text>
</a>
</g>
</g>
<!-- Node1&#45;&gt;Node2 -->
<g id="edge1" class="edge">
<title>Node1&#45;&gt;Node2</title>
<path fill="none" stroke="midnightblue" d="M180,-814.91C180,-783.87 180,-734.05 180,-691 180,-691 180,-691 180,-321 180,-269.28 190.69,-208.51 196.03,-181.36"/>
<polygon fill="midnightblue" stroke="midnightblue" points="176.5,-815.06 180,-825.07 183.5,-815.07 176.5,-815.06"/>
</g>
<!-- Node3 -->
<g id="node3" class="node">
<title>Node3</title>
<g id="a_node3"><a xlink:href="_perspective_projection_data_8hpp.html" target="_top" xlink:title=" ">
<polygon fill="white" stroke="black" points="0,-669.5 0,-710.5 152,-710.5 152,-669.5 0,-669.5"/>
<text text-anchor="start" x="8" y="-698.5" font-family="Helvetica,sans-Serif" font-size="10.00">kryne&#45;engine/include</text>
<text text-anchor="start" x="8" y="-687.5" font-family="Helvetica,sans-Serif" font-size="10.00">/kryne&#45;engine/Camera</text>
<text text-anchor="middle" x="76" y="-676.5" font-family="Helvetica,sans-Serif" font-size="10.00">/PerspectiveProjectionData.hpp</text>
</a>
</g>
</g>
<!-- Node1&#45;&gt;Node3 -->
<g id="edge2" class="edge">
<title>Node1&#45;&gt;Node3</title>
<path fill="none" stroke="midnightblue" d="M161.06,-816.96C140.33,-786.26 107.62,-737.82 89.39,-710.83"/>
<polygon fill="midnightblue" stroke="midnightblue" points="158.33,-819.17 166.83,-825.5 164.13,-815.25 158.33,-819.17"/>
</g>
<!-- Node4 -->
<g id="node4" class="node">
<title>Node4</title>
<g id="a_node4"><a xlink:href="_i_camera_8hpp.html" target="_top" xlink:title=" ">
<polygon fill="white" stroke="black" points="472,-747.5 472,-788.5 584,-788.5 584,-747.5 472,-747.5"/>
<text text-anchor="start" x="480" y="-776.5" font-family="Helvetica,sans-Serif" font-size="10.00">kryne&#45;engine/include</text>
<text text-anchor="start" x="480" y="-765.5" font-family="Helvetica,sans-Serif" font-size="10.00">/kryne&#45;engine/Camera</text>
<text text-anchor="middle" x="528" y="-754.5" font-family="Helvetica,sans-Serif" font-size="10.00">/ICamera.hpp</text>
</a>
</g>
</g>
<!-- Node1&#45;&gt;Node4 -->
<g id="edge4" class="edge">
<title>Node1&#45;&gt;Node4</title>
<path fill="none" stroke="midnightblue" d="M246.08,-830.57C311.37,-816.31 410.15,-794.74 471.78,-781.28"/>
<polygon fill="midnightblue" stroke="midnightblue" points="245.32,-827.15 236.3,-832.7 246.82,-833.99 245.32,-827.15"/>
</g>
<!-- Node3&#45;&gt;Node2 -->
<g id="edge3" class="edge">
<title>Node3&#45;&gt;Node2</title>
<path fill="none" stroke="midnightblue" d="M86.58,-659.41C96.23,-629.74 109,-582.55 109,-540.5 109,-540.5 109,-540.5 109,-321 109,-262.47 158.06,-206.43 183.73,-181.1"/>
<polygon fill="midnightblue" stroke="midnightblue" points="83.18,-658.54 83.32,-669.14 89.82,-660.77 83.18,-658.54"/>
</g>
<!-- Node5 -->
<g id="node5" class="node">
<title>Node5</title>
<g id="a_node5"><a xlink:href="kryne-engine_2_camera_2_camera_8h.html" target="_top" xlink:title=" ">
<polygon fill="white" stroke="black" points="472,-379.5 472,-420.5 584,-420.5 584,-379.5 472,-379.5"/>
<text text-anchor="start" x="480" y="-408.5" font-family="Helvetica,sans-Serif" font-size="10.00">kryne&#45;engine/include</text>
<text text-anchor="start" x="480" y="-397.5" font-family="Helvetica,sans-Serif" font-size="10.00">/kryne&#45;engine/Camera</text>
<text text-anchor="middle" x="528" y="-386.5" font-family="Helvetica,sans-Serif" font-size="10.00">/Camera.h</text>
</a>
</g>
</g>
<!-- Node4&#45;&gt;Node5 -->
<g id="edge5" class="edge">
<title>Node4&#45;&gt;Node5</title>
<path fill="none" stroke="midnightblue" d="M528,-736.91C528,-705.87 528,-656.05 528,-613 528,-613 528,-613 528,-538.5 528,-496.49 528,-447.25 528,-420.58"/>
<polygon fill="midnightblue" stroke="midnightblue" points="524.5,-737.06 528,-747.07 531.5,-737.07 524.5,-737.06"/>
</g>
<!-- Node16 -->
<g id="node16" class="node">
<title>Node16</title>
<g id="a_node16"><a xlink:href="_i_render_mesh_8hpp.html" target="_top" xlink:title=" ">
<polygon fill="white" stroke="black" points="850,-669.5 850,-710.5 972,-710.5 972,-669.5 850,-669.5"/>
<text text-anchor="start" x="858" y="-698.5" font-family="Helvetica,sans-Serif" font-size="10.00">kryne&#45;engine/include</text>
<text text-anchor="start" x="858" y="-687.5" font-family="Helvetica,sans-Serif" font-size="10.00">/kryne&#45;engine/Rendering</text>
<text text-anchor="middle" x="911" y="-676.5" font-family="Helvetica,sans-Serif" font-size="10.00">/IRenderMesh.hpp</text>
</a>
</g>
</g>
<!-- Node4&#45;&gt;Node16 -->
<g id="edge19" class="edge">
<title>Node4&#45;&gt;Node16</title>
<path fill="none" stroke="midnightblue" d="M593.96,-753.91C665.9,-739.64 780.08,-716.98 850,-703.11"/>
<polygon fill="midnightblue" stroke="midnightblue" points="593.23,-750.49 584.1,-755.87 594.59,-757.35 593.23,-750.49"/>
</g>
<!-- Node5&#45;&gt;Node2 -->
<g id="edge6" class="edge">
<title>Node5&#45;&gt;Node2</title>
<path fill="none" stroke="midnightblue" d="M461.5,-394.58C385.68,-388.15 268.18,-373.49 237,-343 191.85,-298.86 194.29,-214.8 197.33,-181.3"/>
<polygon fill="midnightblue" stroke="midnightblue" points="461.65,-398.11 471.9,-395.44 462.22,-391.13 461.65,-398.11"/>
</g>
<!-- Node6 -->
<g id="node6" class="node">
<title>Node6</title>
<g id="a_node6"><a xlink:href="_mesh_8h.html" target="_top" xlink:title=" ">
<polygon fill="white" stroke="black" points="466,-301.5 466,-342.5 590,-342.5 590,-301.5 466,-301.5"/>
<text text-anchor="start" x="474" y="-330.5" font-family="Helvetica,sans-Serif" font-size="10.00">kryne&#45;engine/include</text>
<text text-anchor="start" x="474" y="-319.5" font-family="Helvetica,sans-Serif" font-size="10.00">/kryne&#45;engine/3DObjects</text>
<text text-anchor="middle" x="528" y="-308.5" font-family="Helvetica,sans-Serif" font-size="10.00">/Mesh.h</text>
</a>
</g>
</g>
<!-- Node5&#45;&gt;Node6 -->
<g id="edge7" class="edge">
<title>Node5&#45;&gt;Node6</title>
<path fill="none" stroke="midnightblue" d="M528,-369.3C528,-360.3 528,-350.65 528,-342.51"/>
<polygon fill="midnightblue" stroke="midnightblue" points="524.5,-369.43 528,-379.43 531.5,-369.43 524.5,-369.43"/>
</g>
<!-- Node8 -->
<g id="node8" class="node">
<title>Node8</title>
<g id="a_node8"><a xlink:href="_renderer_8h.html" target="_top" xlink:title=" ">
<polygon fill="white" stroke="black" points="312,-223.5 312,-264.5 434,-264.5 434,-223.5 312,-223.5"/>
<text text-anchor="start" x="320" y="-252.5" font-family="Helvetica,sans-Serif" font-size="10.00">kryne&#45;engine/include</text>
<text text-anchor="start" x="320" y="-241.5" font-family="Helvetica,sans-Serif" font-size="10.00">/kryne&#45;engine/Rendering</text>
<text text-anchor="middle" x="373" y="-230.5" font-family="Helvetica,sans-Serif" font-size="10.00">/Renderer.h</text>
</a>
</g>
</g>
<!-- Node5&#45;&gt;Node8 -->
<g id="edge16" class="edge">
<title>Node5&#45;&gt;Node8</title>
<path fill="none" stroke="midnightblue" d="M468.44,-374.72C452.68,-366.33 436.58,-355.76 424,-343 401.78,-320.47 387.02,-286.27 379.33,-264.8"/>
<polygon fill="midnightblue" stroke="midnightblue" points="467.15,-377.99 477.65,-379.41 470.33,-371.75 467.15,-377.99"/>
</g>
<!-- Node12 -->
<g id="node12" class="node">
<title>Node12</title>
<g id="a_node12"><a xlink:href="_orbit_controls_component_8h.html" target="_top" xlink:title=" ">
<polygon fill="white" stroke="black" points="947,-223.5 947,-264.5 1081,-264.5 1081,-223.5 947,-223.5"/>
<text text-anchor="start" x="955" y="-252.5" font-family="Helvetica,sans-Serif" font-size="10.00">kryne&#45;engine/include</text>
<text text-anchor="start" x="955" y="-241.5" font-family="Helvetica,sans-Serif" font-size="10.00">/kryne&#45;engine/Camera</text>
<text text-anchor="middle" x="1014" y="-230.5" font-family="Helvetica,sans-Serif" font-size="10.00">/OrbitControlsComponent.h</text>
</a>
</g>
</g>
<!-- Node5&#45;&gt;Node12 -->
<g id="edge13" class="edge">
<title>Node5&#45;&gt;Node12</title>
<path fill="none" stroke="midnightblue" d="M573.36,-374.63C626,-346.42 706.6,-303.47 714,-301 809.65,-269.08 839.35,-285.86 938,-265 940.94,-264.38 943.93,-263.72 946.95,-263.03"/>
<polygon fill="midnightblue" stroke="midnightblue" points="571.68,-371.56 564.52,-379.37 574.99,-377.73 571.68,-371.56"/>
</g>
<!-- Node14 -->
<g id="node14" class="node">
<title>Node14</title>
<g id="a_node14"><a xlink:href="_camera_8cpp.html" target="_top" xlink:title=" ">
<polygon fill="white" stroke="black" points="246.5,-307 246.5,-337 371.5,-337 371.5,-307 246.5,-307"/>
<text text-anchor="start" x="254.5" y="-325" font-family="Helvetica,sans-Serif" font-size="10.00">kryne&#45;engine/src/Camera</text>
<text text-anchor="middle" x="309" y="-314" font-family="Helvetica,sans-Serif" font-size="10.00">/Camera.cpp</text>
</a>
</g>
</g>
<!-- Node5&#45;&gt;Node14 -->
<g id="edge17" class="edge">
<title>Node5&#45;&gt;Node14</title>
<path fill="none" stroke="midnightblue" d="M462.25,-376.18C425.55,-363.45 381,-347.99 349.41,-337.02"/>
<polygon fill="midnightblue" stroke="midnightblue" points="461.29,-379.55 471.89,-379.53 463.59,-372.94 461.29,-379.55"/>
</g>
<!-- Node15 -->
<g id="node15" class="node">
<title>Node15</title>
<g id="a_node15"><a xlink:href="_open_g_l_renderer_8cpp.html" target="_top" xlink:title=" ">
<polygon fill="white" stroke="black" points="1084.5,-0.5 1084.5,-30.5 1245.5,-30.5 1245.5,-0.5 1084.5,-0.5"/>
<text text-anchor="start" x="1092.5" y="-18.5" font-family="Helvetica,sans-Serif" font-size="10.00">kryne&#45;engine/src/Rendering</text>
<text text-anchor="middle" x="1165" y="-7.5" font-family="Helvetica,sans-Serif" font-size="10.00">/Renderers/OpenGLRenderer.cpp</text>
</a>
</g>
</g>
<!-- Node5&#45;&gt;Node15 -->
<g id="edge18" class="edge">
<title>Node5&#45;&gt;Node15</title>
<path fill="none" stroke="midnightblue" d="M570.73,-373.22C581.45,-364.83 591.9,-354.64 599,-343 622.09,-305.11 618,-289.37 618,-245 618,-245 618,-245 618,-165 618,-69.55 932.13,-33.49 1084.29,-21.62"/>
<polygon fill="midnightblue" stroke="midnightblue" points="568.5,-370.51 562.54,-379.27 572.66,-376.14 568.5,-370.51"/>
</g>
<!-- Node7 -->
<g id="node7" class="node">
<title>Node7</title>
<g id="a_node7"><a xlink:href="3_d_objects_8h.html" target="_top" xlink:title=" ">
<polygon fill="white" stroke="black" points="646.5,-229 646.5,-259 773.5,-259 773.5,-229 646.5,-229"/>
<text text-anchor="start" x="654.5" y="-247" font-family="Helvetica,sans-Serif" font-size="10.00">kryne&#45;engine/include</text>
<text text-anchor="middle" x="710" y="-236" font-family="Helvetica,sans-Serif" font-size="10.00">/KEModules/3DObjects.h</text>
</a>
</g>
</g>
<!-- Node6&#45;&gt;Node7 -->
<g id="edge8" class="edge">
<title>Node6&#45;&gt;Node7</title>
<path fill="none" stroke="midnightblue" d="M584.41,-297.45C614.48,-284.89 650.49,-269.85 676.22,-259.11"/>
<polygon fill="midnightblue" stroke="midnightblue" points="582.75,-294.34 574.87,-301.43 585.45,-300.8 582.75,-294.34"/>
</g>
<!-- Node6&#45;&gt;Node8 -->
<g id="edge9" class="edge">
<title>Node6&#45;&gt;Node8</title>
<path fill="none" stroke="midnightblue" d="M478.87,-296.91C457.55,-286.46 432.92,-274.38 412.78,-264.51"/>
<polygon fill="midnightblue" stroke="midnightblue" points="477.56,-300.17 488.08,-301.43 480.65,-293.88 477.56,-300.17"/>
</g>
<!-- Node11 -->
<g id="node11" class="node">
<title>Node11</title>
<g id="a_node11"><a xlink:href="_mesh_8cpp.html" target="_top" xlink:title=" ">
<polygon fill="white" stroke="black" points="452.5,-229 452.5,-259 589.5,-259 589.5,-229 452.5,-229"/>
<text text-anchor="start" x="460.5" y="-247" font-family="Helvetica,sans-Serif" font-size="10.00">kryne&#45;engine/src/3DObjects</text>
<text text-anchor="middle" x="521" y="-236" font-family="Helvetica,sans-Serif" font-size="10.00">/Mesh.cpp</text>
</a>
</g>
</g>
<!-- Node6&#45;&gt;Node11 -->
<g id="edge12" class="edge">
<title>Node6&#45;&gt;Node11</title>
<path fill="none" stroke="midnightblue" d="M525.26,-291.28C524.25,-280.25 523.14,-268.25 522.31,-259.23"/>
<polygon fill="midnightblue" stroke="midnightblue" points="521.79,-291.79 526.2,-301.43 528.77,-291.15 521.79,-291.79"/>
</g>
<!-- Node9 -->
<g id="node9" class="node">
<title>Node9</title>
<g id="a_node9"><a xlink:href="_rendering_8h.html" target="_top" xlink:title=" ">
<polygon fill="white" stroke="black" points="302.5,-151 302.5,-181 427.5,-181 427.5,-151 302.5,-151"/>
<text text-anchor="start" x="310.5" y="-169" font-family="Helvetica,sans-Serif" font-size="10.00">kryne&#45;engine/include</text>
<text text-anchor="middle" x="365" y="-158" font-family="Helvetica,sans-Serif" font-size="10.00">/KEModules/Rendering.h</text>
</a>
</g>
</g>
<!-- Node8&#45;&gt;Node9 -->
<g id="edge10" class="edge">
<title>Node8&#45;&gt;Node9</title>
<path fill="none" stroke="midnightblue" d="M369.87,-213.28C368.71,-202.25 367.45,-190.25 366.5,-181.23"/>
<polygon fill="midnightblue" stroke="midnightblue" points="366.41,-213.85 370.94,-223.43 373.37,-213.12 366.41,-213.85"/>
</g>
<!-- Node10 -->
<g id="node10" class="node">
<title>Node10</title>
<g id="a_node10"><a xlink:href="_renderer_8cpp.html" target="_top" xlink:title=" ">
<polygon fill="white" stroke="black" points="445.5,-151 445.5,-181 580.5,-181 580.5,-151 445.5,-151"/>
<text text-anchor="start" x="453.5" y="-169" font-family="Helvetica,sans-Serif" font-size="10.00">kryne&#45;engine/src/Rendering</text>
<text text-anchor="middle" x="513" y="-158" font-family="Helvetica,sans-Serif" font-size="10.00">/Renderer.cpp</text>
</a>
</g>
</g>
<!-- Node8&#45;&gt;Node10 -->
<g id="edge11" class="edge">
<title>Node8&#45;&gt;Node10</title>
<path fill="none" stroke="midnightblue" d="M417.87,-218.64C440.61,-206.3 467.44,-191.73 486.8,-181.23"/>
<polygon fill="midnightblue" stroke="midnightblue" points="416.17,-215.58 409.05,-223.43 419.51,-221.73 416.17,-215.58"/>
</g>
<!-- Node12&#45;&gt;Node2 -->
<g id="edge14" class="edge">
<title>Node12&#45;&gt;Node2</title>
<path fill="none" stroke="midnightblue" d="M936.42,-222.92C652.57,-179.32 574.25,-224.54 293,-187 281.18,-185.42 268.62,-183.16 256.67,-180.73"/>
<polygon fill="midnightblue" stroke="midnightblue" points="936.18,-226.43 946.6,-224.51 937.26,-219.51 936.18,-226.43"/>
</g>
<!-- Node13 -->
<g id="node13" class="node">
<title>Node13</title>
<g id="a_node13"><a xlink:href="_orbit_controls_component_8cpp.html" target="_top" xlink:title=" ">
<polygon fill="white" stroke="black" points="935.5,-151 935.5,-181 1080.5,-181 1080.5,-151 935.5,-151"/>
<text text-anchor="start" x="943.5" y="-169" font-family="Helvetica,sans-Serif" font-size="10.00">kryne&#45;engine/src/Camera</text>
<text text-anchor="middle" x="1008" y="-158" font-family="Helvetica,sans-Serif" font-size="10.00">/OrbitControlsComponent.cpp</text>
</a>
</g>
</g>
<!-- Node12&#45;&gt;Node13 -->
<g id="edge15" class="edge">
<title>Node12&#45;&gt;Node13</title>
<path fill="none" stroke="midnightblue" d="M1011.65,-213.28C1010.78,-202.25 1009.84,-190.25 1009.12,-181.23"/>
<polygon fill="midnightblue" stroke="midnightblue" points="1008.18,-213.73 1012.45,-223.43 1015.16,-213.18 1008.18,-213.73"/>
</g>
<!-- Node17 -->
<g id="node17" class="node">
<title>Node17</title>
<g id="a_node17"><a xlink:href="_render_mesh_8h.html" target="_top" xlink:title=" ">
<polygon fill="white" stroke="black" points="1144,-591.5 1144,-632.5 1266,-632.5 1266,-591.5 1144,-591.5"/>
<text text-anchor="start" x="1152" y="-620.5" font-family="Helvetica,sans-Serif" font-size="10.00">kryne&#45;engine/include</text>
<text text-anchor="start" x="1152" y="-609.5" font-family="Helvetica,sans-Serif" font-size="10.00">/kryne&#45;engine/Rendering</text>
<text text-anchor="middle" x="1205" y="-598.5" font-family="Helvetica,sans-Serif" font-size="10.00">/RenderMesh.h</text>
</a>
</g>
</g>
<!-- Node16&#45;&gt;Node17 -->
<g id="edge20" class="edge">
<title>Node16&#45;&gt;Node17</title>
<path fill="none" stroke="midnightblue" d="M982.25,-670.58C1031.65,-657.81 1096.75,-640.98 1143.8,-628.82"/>
<polygon fill="midnightblue" stroke="midnightblue" points="981.08,-667.27 972.27,-673.16 982.83,-674.05 981.08,-667.27"/>
</g>
<!-- Node17&#45;&gt;Node15 -->
<g id="edge62" class="edge">
<title>Node17&#45;&gt;Node15</title>
<path fill="none" stroke="midnightblue" d="M1276.12,-610.94C1445.73,-608.89 1860,-591.78 1860,-473.5 1860,-473.5 1860,-473.5 1860,-165 1860,-40.61 1428.88,-20.04 1245.74,-16.92"/>
<polygon fill="midnightblue" stroke="midnightblue" points="1275.99,-607.44 1266.03,-611.05 1276.07,-614.44 1275.99,-607.44"/>
</g>
<!-- Node18 -->
<g id="node18" class="node">
<title>Node18</title>
<g id="a_node18"><a xlink:href="_process_8h.html" target="_top" xlink:title=" ">
<polygon fill="white" stroke="black" points="1053,-524.5 1053,-554.5 1199,-554.5 1199,-524.5 1053,-524.5"/>
<text text-anchor="start" x="1061" y="-542.5" font-family="Helvetica,sans-Serif" font-size="10.00">kryne&#45;engine/include</text>
<text text-anchor="middle" x="1126" y="-531.5" font-family="Helvetica,sans-Serif" font-size="10.00">/kryne&#45;engine/Core/Process.h</text>
</a>
</g>
</g>
<!-- Node17&#45;&gt;Node18 -->
<g id="edge21" class="edge">
<title>Node17&#45;&gt;Node18</title>
<path fill="none" stroke="midnightblue" d="M1175.36,-584.55C1164,-574.41 1151.47,-563.23 1141.88,-554.67"/>
<polygon fill="midnightblue" stroke="midnightblue" points="1173.2,-587.31 1182.99,-591.36 1177.86,-582.09 1173.2,-587.31"/>
</g>
<!-- Node23 -->
<g id="node23" class="node">
<title>Node23</title>
<g id="a_node23"><a xlink:href="_loop_renderer_8h.html" target="_top" xlink:title=" ">
<polygon fill="white" stroke="black" points="1020,-301.5 1020,-342.5 1142,-342.5 1142,-301.5 1020,-301.5"/>
<text text-anchor="start" x="1028" y="-330.5" font-family="Helvetica,sans-Serif" font-size="10.00">kryne&#45;engine/include</text>
<text text-anchor="start" x="1028" y="-319.5" font-family="Helvetica,sans-Serif" font-size="10.00">/kryne&#45;engine/Rendering</text>
<text text-anchor="middle" x="1081" y="-308.5" font-family="Helvetica,sans-Serif" font-size="10.00">/LoopRenderer.h</text>
</a>
</g>
</g>
<!-- Node17&#45;&gt;Node23 -->
<g id="edge61" class="edge">
<title>Node17&#45;&gt;Node23</title>
<path fill="none" stroke="midnightblue" d="M1133.73,-605.22C1060.44,-594.99 950.13,-566.62 900,-488 873.48,-446.41 942.86,-384.23 949,-379 969.37,-361.65 995.91,-348.99 1019.84,-340.15"/>
<polygon fill="midnightblue" stroke="midnightblue" points="1133.44,-608.72 1143.82,-606.55 1134.36,-601.78 1133.44,-608.72"/>
</g>
<!-- Node41 -->
<g id="node41" class="node">
<title>Node41</title>
<g id="a_node41"><a xlink:href="_render_mesh_8cpp.html" target="_top" xlink:title=" ">
<polygon fill="white" stroke="black" points="1217.5,-524.5 1217.5,-554.5 1352.5,-554.5 1352.5,-524.5 1217.5,-524.5"/>
<text text-anchor="start" x="1225.5" y="-542.5" font-family="Helvetica,sans-Serif" font-size="10.00">kryne&#45;engine/src/Rendering</text>
<text text-anchor="middle" x="1285" y="-531.5" font-family="Helvetica,sans-Serif" font-size="10.00">/RenderMesh.cpp</text>
</a>
</g>
</g>
<!-- Node17&#45;&gt;Node41 -->
<g id="edge63" class="edge">
<title>Node17&#45;&gt;Node41</title>
<path fill="none" stroke="midnightblue" d="M1235.01,-584.55C1246.52,-574.41 1259.21,-563.23 1268.92,-554.67"/>
<polygon fill="midnightblue" stroke="midnightblue" points="1232.47,-582.12 1227.28,-591.36 1237.1,-587.38 1232.47,-582.12"/>
</g>
<!-- Node19 -->
<g id="node19" class="node">
<title>Node19</title>
<g id="a_node19"><a xlink:href="_entity_8h.html" target="_top" xlink:title=" ">
<polygon fill="white" stroke="black" points="1039.5,-457.5 1039.5,-487.5 1174.5,-487.5 1174.5,-457.5 1039.5,-457.5"/>
<text text-anchor="start" x="1047.5" y="-475.5" font-family="Helvetica,sans-Serif" font-size="10.00">kryne&#45;engine/include</text>
<text text-anchor="middle" x="1107" y="-464.5" font-family="Helvetica,sans-Serif" font-size="10.00">/kryne&#45;engine/Core/Entity.h</text>
</a>
</g>
</g>
<!-- Node18&#45;&gt;Node19 -->
<g id="edge22" class="edge">
<title>Node18&#45;&gt;Node19</title>
<path fill="none" stroke="midnightblue" d="M1112.61,-514.99C1109.44,-505.8 1106.73,-495.58 1105.44,-487.58"/>
<polygon fill="midnightblue" stroke="midnightblue" points="1109.37,-516.3 1116.2,-524.4 1115.91,-513.81 1109.37,-516.3"/>
</g>
<!-- Node35 -->
<g id="node35" class="node">
<title>Node35</title>
<g id="a_node35"><a xlink:href="_system_8h.html" target="_top" xlink:title=" ">
<polygon fill="white" stroke="black" points="1198.5,-385 1198.5,-415 1341.5,-415 1341.5,-385 1198.5,-385"/>
<text text-anchor="start" x="1206.5" y="-403" font-family="Helvetica,sans-Serif" font-size="10.00">kryne&#45;engine/include</text>
<text text-anchor="middle" x="1270" y="-392" font-family="Helvetica,sans-Serif" font-size="10.00">/kryne&#45;engine/Core/System.h</text>
</a>
</g>
</g>
<!-- Node18&#45;&gt;Node35 -->
<g id="edge59" class="edge">
<title>Node18&#45;&gt;Node35</title>
<path fill="none" stroke="midnightblue" d="M1162,-519.68C1177.33,-511.52 1194.62,-500.85 1208,-488 1230.32,-466.56 1246.89,-433.78 1258.02,-415.18"/>
<polygon fill="midnightblue" stroke="midnightblue" points="1160.05,-516.75 1152.77,-524.44 1163.26,-522.98 1160.05,-516.75"/>
</g>
<!-- Node40 -->
<g id="node40" class="node">
<title>Node40</title>
<g id="a_node40"><a xlink:href="_process_8cpp.html" target="_top" xlink:title=" ">
<polygon fill="white" stroke="black" points="909,-457.5 909,-487.5 1021,-487.5 1021,-457.5 909,-457.5"/>
<text text-anchor="start" x="917" y="-475.5" font-family="Helvetica,sans-Serif" font-size="10.00">kryne&#45;engine/src/Core</text>
<text text-anchor="middle" x="965" y="-464.5" font-family="Helvetica,sans-Serif" font-size="10.00">/Process.cpp</text>
</a>
</g>
</g>
<!-- Node18&#45;&gt;Node40 -->
<g id="edge60" class="edge">
<title>Node18&#45;&gt;Node40</title>
<path fill="none" stroke="midnightblue" d="M1081.52,-520.54C1055.76,-510.14 1023.8,-497.24 999.87,-487.58"/>
<polygon fill="midnightblue" stroke="midnightblue" points="1080.48,-523.9 1091.07,-524.4 1083.1,-517.41 1080.48,-523.9"/>
</g>
<!-- Node19&#45;&gt;Node5 -->
<g id="edge41" class="edge">
<title>Node19&#45;&gt;Node5</title>
<path fill="none" stroke="midnightblue" d="M1029.26,-457.04C957.58,-447.37 699.62,-419.44 584.24,-407.03"/>
<polygon fill="midnightblue" stroke="midnightblue" points="1029.05,-460.55 1039.44,-458.48 1030.03,-453.62 1029.05,-460.55"/>
</g>
<!-- Node19&#45;&gt;Node18 -->
<g id="edge51" class="edge">
<title>Node19&#45;&gt;Node18</title>
<path fill="none" stroke="midnightblue" d="M1120.38,-496.98C1123.55,-506.16 1126.27,-516.39 1127.56,-524.4"/>
<polygon fill="midnightblue" stroke="midnightblue" points="1123.62,-495.67 1116.79,-487.58 1117.08,-498.17 1123.62,-495.67"/>
</g>
<!-- Node20 -->
<g id="node20" class="node">
<title>Node20</title>
<g id="a_node20"><a xlink:href="_scene_8h.html" target="_top" xlink:title=" ">
<polygon fill="white" stroke="black" points="729,-379.5 729,-420.5 853,-420.5 853,-379.5 729,-379.5"/>
<text text-anchor="start" x="737" y="-408.5" font-family="Helvetica,sans-Serif" font-size="10.00">kryne&#45;engine/include</text>
<text text-anchor="start" x="737" y="-397.5" font-family="Helvetica,sans-Serif" font-size="10.00">/kryne&#45;engine/3DObjects</text>
<text text-anchor="middle" x="791" y="-386.5" font-family="Helvetica,sans-Serif" font-size="10.00">/Scene.h</text>
</a>
</g>
</g>
<!-- Node19&#45;&gt;Node20 -->
<g id="edge23" class="edge">
<title>Node19&#45;&gt;Node20</title>
<path fill="none" stroke="midnightblue" d="M1034.2,-455.26C979.42,-443.04 905.15,-426.47 853.15,-414.87"/>
<polygon fill="midnightblue" stroke="midnightblue" points="1033.67,-458.73 1044.19,-457.49 1035.19,-451.89 1033.67,-458.73"/>
</g>
<!-- Node21 -->
<g id="node21" class="node">
<title>Node21</title>
<g id="a_node21"><a xlink:href="_transform_8h.html" target="_top" xlink:title=" ">
<polygon fill="white" stroke="black" points="878,-301.5 878,-342.5 1002,-342.5 1002,-301.5 878,-301.5"/>
<text text-anchor="start" x="886" y="-330.5" font-family="Helvetica,sans-Serif" font-size="10.00">kryne&#45;engine/include</text>
<text text-anchor="start" x="886" y="-319.5" font-family="Helvetica,sans-Serif" font-size="10.00">/kryne&#45;engine/3DObjects</text>
<text text-anchor="middle" x="940" y="-308.5" font-family="Helvetica,sans-Serif" font-size="10.00">/Transform.h</text>
</a>
</g>
</g>
<!-- Node19&#45;&gt;Node21 -->
<g id="edge40" class="edge">
<title>Node19&#45;&gt;Node21</title>
<path fill="none" stroke="midnightblue" d="M1098.34,-447.6C1093.89,-427.06 1087.26,-397.87 1070,-379 1059.03,-367 1025.63,-353.37 995.37,-342.56"/>
<polygon fill="midnightblue" stroke="midnightblue" points="1094.93,-448.43 1100.5,-457.44 1101.77,-446.93 1094.93,-448.43"/>
</g>
<!-- Node29 -->
<g id="node29" class="node">
<title>Node29</title>
<g id="a_node29"><a xlink:href="_component_8h.html" target="_top" xlink:title=" ">
<polygon fill="white" stroke="black" points="1359.5,-385 1359.5,-415 1518.5,-415 1518.5,-385 1359.5,-385"/>
<text text-anchor="start" x="1367.5" y="-403" font-family="Helvetica,sans-Serif" font-size="10.00">kryne&#45;engine/include</text>
<text text-anchor="middle" x="1439" y="-392" font-family="Helvetica,sans-Serif" font-size="10.00">/kryne&#45;engine/Core/Component.h</text>
</a>
</g>
</g>
<!-- Node19&#45;&gt;Node29 -->
<g id="edge42" class="edge">
<title>Node19&#45;&gt;Node29</title>
<path fill="none" stroke="midnightblue" d="M1178.92,-455.4C1225.46,-445.67 1287.26,-432.88 1342,-421 1350.73,-419.11 1359.93,-417.06 1369.07,-415.03"/>
<polygon fill="midnightblue" stroke="midnightblue" points="1178,-452.02 1168.93,-457.49 1179.44,-458.87 1178,-452.02"/>
</g>
<!-- Node19&#45;&gt;Node35 -->
<g id="edge52" class="edge">
<title>Node19&#45;&gt;Node35</title>
<path fill="none" stroke="midnightblue" d="M1148.98,-453.34C1176.54,-441.42 1212.05,-426.07 1237.46,-415.07"/>
<polygon fill="midnightblue" stroke="midnightblue" points="1147.38,-450.22 1139.59,-457.4 1150.16,-456.65 1147.38,-450.22"/>
</g>
<!-- Node39 -->
<g id="node39" class="node">
<title>Node39</title>
<g id="a_node39"><a xlink:href="_entity_8cpp.html" target="_top" xlink:title=" ">
<polygon fill="white" stroke="black" points="958,-385 958,-415 1070,-415 1070,-385 958,-385"/>
<text text-anchor="start" x="966" y="-403" font-family="Helvetica,sans-Serif" font-size="10.00">kryne&#45;engine/src/Core</text>
<text text-anchor="middle" x="1014" y="-392" font-family="Helvetica,sans-Serif" font-size="10.00">/Entity.cpp</text>
</a>
</g>
</g>
<!-- Node19&#45;&gt;Node39 -->
<g id="edge58" class="edge">
<title>Node19&#45;&gt;Node39</title>
<path fill="none" stroke="midnightblue" d="M1080.1,-451.11C1064.83,-439.53 1046.09,-425.33 1032.47,-415"/>
<polygon fill="midnightblue" stroke="midnightblue" points="1078.1,-453.98 1088.18,-457.23 1082.33,-448.4 1078.1,-453.98"/>
</g>
<!-- Node20&#45;&gt;Node7 -->
<g id="edge24" class="edge">
<title>Node20&#45;&gt;Node7</title>
<path fill="none" stroke="midnightblue" d="M741.85,-373.38C730.81,-365.2 720.46,-355.08 714,-343 699.7,-316.28 703.35,-279.34 706.9,-259.31"/>
<polygon fill="midnightblue" stroke="midnightblue" points="740.16,-376.46 750.38,-379.25 744.13,-370.69 740.16,-376.46"/>
</g>
<!-- Node20&#45;&gt;Node8 -->
<g id="edge38" class="edge">
<title>Node20&#45;&gt;Node8</title>
<path fill="none" stroke="midnightblue" d="M718.64,-393C634.05,-384.94 500.12,-368.59 457,-343 436.58,-330.89 439.34,-319.12 424,-301 413.55,-288.65 401.37,-275.24 391.53,-264.64"/>
<polygon fill="midnightblue" stroke="midnightblue" points="718.42,-396.5 728.7,-393.94 719.07,-389.53 718.42,-396.5"/>
</g>
<!-- Node20&#45;&gt;Node21 -->
<g id="edge25" class="edge">
<title>Node20&#45;&gt;Node21</title>
<path fill="none" stroke="midnightblue" d="M838.51,-374.77C858.93,-364.35 882.49,-352.34 901.76,-342.51"/>
<polygon fill="midnightblue" stroke="midnightblue" points="836.69,-371.77 829.37,-379.43 839.87,-378 836.69,-371.77"/>
</g>
<!-- Node20&#45;&gt;Node23 -->
<g id="edge29" class="edge">
<title>Node20&#45;&gt;Node23</title>
<path fill="none" stroke="midnightblue" d="M863.18,-379.98C864.46,-379.65 865.74,-379.32 867,-379 930.9,-362.61 947.28,-360.06 1011,-343 1013.93,-342.22 1016.93,-341.4 1019.95,-340.57"/>
<polygon fill="midnightblue" stroke="midnightblue" points="862,-376.67 853.2,-382.57 863.76,-383.45 862,-376.67"/>
</g>
<!-- Node28 -->
<g id="node28" class="node">
<title>Node28</title>
<g id="a_node28"><a xlink:href="_scene_8cpp.html" target="_top" xlink:title=" ">
<polygon fill="white" stroke="black" points="722.5,-307 722.5,-337 859.5,-337 859.5,-307 722.5,-307"/>
<text text-anchor="start" x="730.5" y="-325" font-family="Helvetica,sans-Serif" font-size="10.00">kryne&#45;engine/src/3DObjects</text>
<text text-anchor="middle" x="791" y="-314" font-family="Helvetica,sans-Serif" font-size="10.00">/Scene.cpp</text>
</a>
</g>
</g>
<!-- Node20&#45;&gt;Node28 -->
<g id="edge39" class="edge">
<title>Node20&#45;&gt;Node28</title>
<path fill="none" stroke="midnightblue" d="M791,-369.28C791,-358.25 791,-346.25 791,-337.23"/>
<polygon fill="midnightblue" stroke="midnightblue" points="787.5,-369.43 791,-379.43 794.5,-369.43 787.5,-369.43"/>
</g>
<!-- Node21&#45;&gt;Node7 -->
<g id="edge26" class="edge">
<title>Node21&#45;&gt;Node7</title>
<path fill="none" stroke="midnightblue" d="M871.17,-298.26C832.68,-285.54 785.91,-270.08 752.69,-259.11"/>
<polygon fill="midnightblue" stroke="midnightblue" points="870.18,-301.61 880.77,-301.43 872.37,-294.97 870.18,-301.61"/>
</g>
<!-- Node21&#45;&gt;Node19 -->
<g id="edge27" class="edge">
<title>Node21&#45;&gt;Node19</title>
<path fill="none" stroke="midnightblue" d="M1011.51,-342.64C1043.79,-353.44 1077.05,-367.03 1088,-379 1108.27,-401.16 1113.88,-437.56 1112.35,-457.44"/>
<polygon fill="midnightblue" stroke="midnightblue" points="1012.6,-339.31 1002.01,-339.53 1010.42,-345.96 1012.6,-339.31"/>
</g>
<!-- Node22 -->
<g id="node22" class="node">
<title>Node22</title>
<g id="a_node22"><a xlink:href="_transform_8cpp.html" target="_top" xlink:title=" ">
<polygon fill="white" stroke="black" points="791.5,-229 791.5,-259 928.5,-259 928.5,-229 791.5,-229"/>
<text text-anchor="start" x="799.5" y="-247" font-family="Helvetica,sans-Serif" font-size="10.00">kryne&#45;engine/src/3DObjects</text>
<text text-anchor="middle" x="860" y="-236" font-family="Helvetica,sans-Serif" font-size="10.00">/Transform.cpp</text>
</a>
</g>
</g>
<!-- Node21&#45;&gt;Node22 -->
<g id="edge28" class="edge">
<title>Node21&#45;&gt;Node22</title>
<path fill="none" stroke="midnightblue" d="M911.92,-294.32C899.48,-282.51 885.35,-269.08 874.97,-259.23"/>
<polygon fill="midnightblue" stroke="midnightblue" points="909.74,-297.08 919.4,-301.43 914.56,-292 909.74,-297.08"/>
</g>
<!-- Node24 -->
<g id="node24" class="node">
<title>Node24</title>
<g id="a_node24"><a xlink:href="_graphic_context_8h.html" target="_top" xlink:title=" ">
<polygon fill="white" stroke="black" points="1137.5,-223.5 1137.5,-264.5 1306.5,-264.5 1306.5,-223.5 1137.5,-223.5"/>
<text text-anchor="start" x="1145.5" y="-252.5" font-family="Helvetica,sans-Serif" font-size="10.00">kryne&#45;engine/include</text>
<text text-anchor="start" x="1145.5" y="-241.5" font-family="Helvetica,sans-Serif" font-size="10.00">/kryne&#45;engine/Core/GraphicContext</text>
<text text-anchor="middle" x="1222" y="-230.5" font-family="Helvetica,sans-Serif" font-size="10.00">/GraphicContext.h</text>
</a>
</g>
</g>
<!-- Node23&#45;&gt;Node24 -->
<g id="edge30" class="edge">
<title>Node23&#45;&gt;Node24</title>
<path fill="none" stroke="midnightblue" d="M1126.22,-296.63C1145.49,-286.24 1167.66,-274.29 1185.81,-264.51"/>
<polygon fill="midnightblue" stroke="midnightblue" points="1124.45,-293.6 1117.31,-301.43 1127.77,-299.76 1124.45,-293.6"/>
</g>
<!-- Node26 -->
<g id="node26" class="node">
<title>Node26</title>
<g id="a_node26"><a xlink:href="_open_g_l_renderer_8h.html" target="_top" xlink:title=" ">
<polygon fill="white" stroke="black" points="1090,-67.5 1090,-108.5 1240,-108.5 1240,-67.5 1090,-67.5"/>
<text text-anchor="start" x="1098" y="-96.5" font-family="Helvetica,sans-Serif" font-size="10.00">kryne&#45;engine/include</text>
<text text-anchor="start" x="1098" y="-85.5" font-family="Helvetica,sans-Serif" font-size="10.00">/kryne&#45;engine/Rendering</text>
<text text-anchor="middle" x="1165" y="-74.5" font-family="Helvetica,sans-Serif" font-size="10.00">/Renderers/OpenGLRenderer.h</text>
</a>
</g>
</g>
<!-- Node23&#45;&gt;Node26 -->
<g id="edge37" class="edge">
<title>Node23&#45;&gt;Node26</title>
<path fill="none" stroke="midnightblue" d="M1086.26,-291.08C1093.21,-255.28 1107.17,-194.03 1129,-145 1134.69,-132.22 1143.04,-119.01 1150.27,-108.64"/>
<polygon fill="midnightblue" stroke="midnightblue" points="1082.74,-290.85 1084.33,-301.33 1089.62,-292.15 1082.74,-290.85"/>
</g>
<!-- Node24&#45;&gt;Node18 -->
<g id="edge36" class="edge">
<title>Node24&#45;&gt;Node18</title>
<path fill="none" stroke="midnightblue" d="M1202.23,-273.41C1197.31,-281.91 1192.69,-291.5 1190,-301 1184.34,-321 1192.92,-469.22 1184,-488 1176.79,-503.2 1162.62,-515.67 1150.1,-524.42"/>
<polygon fill="midnightblue" stroke="midnightblue" points="1205.34,-275.03 1207.6,-264.67 1199.38,-271.36 1205.34,-275.03"/>
</g>
<!-- Node25 -->
<g id="node25" class="node">
<title>Node25</title>
<g id="a_node25"><a xlink:href="_open_g_l_context_8h.html" target="_top" xlink:title=" ">
<polygon fill="white" stroke="black" points="1137.5,-145.5 1137.5,-186.5 1306.5,-186.5 1306.5,-145.5 1137.5,-145.5"/>
<text text-anchor="start" x="1145.5" y="-174.5" font-family="Helvetica,sans-Serif" font-size="10.00">kryne&#45;engine/include</text>
<text text-anchor="start" x="1145.5" y="-163.5" font-family="Helvetica,sans-Serif" font-size="10.00">/kryne&#45;engine/Core/GraphicContext</text>
<text text-anchor="middle" x="1222" y="-152.5" font-family="Helvetica,sans-Serif" font-size="10.00">/OpenGLContext.h</text>
</a>
</g>
</g>
<!-- Node24&#45;&gt;Node25 -->
<g id="edge31" class="edge">
<title>Node24&#45;&gt;Node25</title>
<path fill="none" stroke="midnightblue" d="M1222,-213.3C1222,-204.3 1222,-194.65 1222,-186.51"/>
<polygon fill="midnightblue" stroke="midnightblue" points="1218.5,-213.43 1222,-223.43 1225.5,-213.43 1218.5,-213.43"/>
</g>
<!-- Node25&#45;&gt;Node26 -->
<g id="edge32" class="edge">
<title>Node25&#45;&gt;Node26</title>
<path fill="none" stroke="midnightblue" d="M1194.96,-137.63C1187.29,-127.99 1179.49,-117.36 1173.65,-108.51"/>
<polygon fill="midnightblue" stroke="midnightblue" points="1192.3,-139.9 1201.33,-145.43 1197.72,-135.47 1192.3,-139.9"/>
</g>
<!-- Node27 -->
<g id="node27" class="node">
<title>Node27</title>
<g id="a_node27"><a xlink:href="_open_g_l_context_8cpp.html" target="_top" xlink:title=" ">
<polygon fill="white" stroke="black" points="1258.5,-73 1258.5,-103 1437.5,-103 1437.5,-73 1258.5,-73"/>
<text text-anchor="start" x="1266.5" y="-91" font-family="Helvetica,sans-Serif" font-size="10.00">kryne&#45;engine/src/Core</text>
<text text-anchor="middle" x="1348" y="-80" font-family="Helvetica,sans-Serif" font-size="10.00">/GraphicContext/OpenGLContext.cpp</text>
</a>
</g>
</g>
<!-- Node25&#45;&gt;Node27 -->
<g id="edge35" class="edge">
<title>Node25&#45;&gt;Node27</title>
<path fill="none" stroke="midnightblue" d="M1263.2,-140.15C1283.49,-127.91 1307.23,-113.59 1324.42,-103.23"/>
<polygon fill="midnightblue" stroke="midnightblue" points="1261.2,-137.27 1254.45,-145.43 1264.82,-143.26 1261.2,-137.27"/>
</g>
<!-- Node26&#45;&gt;Node15 -->
<g id="edge34" class="edge">
<title>Node26&#45;&gt;Node15</title>
<path fill="none" stroke="midnightblue" d="M1165,-57.08C1165,-48.01 1165,-38.45 1165,-30.89"/>
<polygon fill="midnightblue" stroke="midnightblue" points="1161.5,-57.36 1165,-67.36 1168.5,-57.36 1161.5,-57.36"/>
</g>
<!-- Node26&#45;&gt;Node25 -->
<g id="edge33" class="edge">
<title>Node26&#45;&gt;Node25</title>
<path fill="none" stroke="midnightblue" d="M1191.98,-116.3C1199.66,-125.93 1207.46,-136.56 1213.31,-145.43"/>
<polygon fill="midnightblue" stroke="midnightblue" points="1194.65,-114.03 1185.61,-108.51 1189.23,-118.46 1194.65,-114.03"/>
</g>
<!-- Node29&#45;&gt;Node17 -->
<g id="edge49" class="edge">
<title>Node29&#45;&gt;Node17</title>
<path fill="none" stroke="midnightblue" d="M1433.11,-424.98C1423.66,-458.6 1401.98,-519.59 1362,-555 1335.25,-578.7 1297.77,-592.56 1266.14,-600.57"/>
<polygon fill="midnightblue" stroke="midnightblue" points="1436.55,-425.65 1435.76,-415.09 1429.79,-423.84 1436.55,-425.65"/>
</g>
<!-- Node29&#45;&gt;Node19 -->
<g id="edge48" class="edge">
<title>Node29&#45;&gt;Node19</title>
<path fill="none" stroke="midnightblue" d="M1376.74,-417.31C1371.09,-418.57 1365.45,-419.82 1360,-421 1297.54,-434.56 1225.9,-449.29 1174.75,-459.32"/>
<polygon fill="midnightblue" stroke="midnightblue" points="1377.88,-420.64 1386.87,-415.03 1376.34,-413.82 1377.88,-420.64"/>
</g>
<!-- Node30 -->
<g id="node30" class="node">
<title>Node30</title>
<g id="a_node30"><a xlink:href="_logic_component_8h.html" target="_top" xlink:title=" ">
<polygon fill="white" stroke="black" points="1520,-307 1520,-337 1702,-337 1702,-307 1520,-307"/>
<text text-anchor="start" x="1528" y="-325" font-family="Helvetica,sans-Serif" font-size="10.00">kryne&#45;engine/include</text>
<text text-anchor="middle" x="1611" y="-314" font-family="Helvetica,sans-Serif" font-size="10.00">/kryne&#45;engine/Core/LogicComponent.h</text>
</a>
</g>
</g>
<!-- Node29&#45;&gt;Node30 -->
<g id="edge43" class="edge">
<title>Node29&#45;&gt;Node30</title>
<path fill="none" stroke="midnightblue" d="M1480.42,-380.7C1510.78,-367.28 1551.4,-349.34 1579.22,-337.04"/>
<polygon fill="midnightblue" stroke="midnightblue" points="1478.68,-377.64 1470.95,-384.88 1481.51,-384.04 1478.68,-377.64"/>
</g>
<!-- Node34 -->
<g id="node34" class="node">
<title>Node34</title>
<g id="a_node34"><a xlink:href="_component_8cpp.html" target="_top" xlink:title=" ">
<polygon fill="white" stroke="black" points="1720,-307 1720,-337 1832,-337 1832,-307 1720,-307"/>
<text text-anchor="start" x="1728" y="-325" font-family="Helvetica,sans-Serif" font-size="10.00">kryne&#45;engine/src/Core</text>
<text text-anchor="middle" x="1776" y="-314" font-family="Helvetica,sans-Serif" font-size="10.00">/Component.cpp</text>
</a>
</g>
</g>
<!-- Node29&#45;&gt;Node34 -->
<g id="edge50" class="edge">
<title>Node29&#45;&gt;Node34</title>
<path fill="none" stroke="midnightblue" d="M1527.26,-383.04C1580.72,-372.83 1650.12,-358.6 1711,-343 1717.98,-341.21 1725.32,-339.14 1732.46,-337.02"/>
<polygon fill="midnightblue" stroke="midnightblue" points="1526.3,-379.66 1517.13,-384.97 1527.6,-386.54 1526.3,-379.66"/>
</g>
<!-- Node30&#45;&gt;Node12 -->
<g id="edge44" class="edge">
<title>Node30&#45;&gt;Node12</title>
<path fill="none" stroke="midnightblue" d="M1509.85,-305.87C1497.45,-304.15 1484.94,-302.49 1473,-301 1320.46,-281.97 1281.26,-286.18 1129,-265 1113.44,-262.84 1096.77,-260.15 1081.07,-257.45"/>
<polygon fill="midnightblue" stroke="midnightblue" points="1509.38,-309.34 1519.76,-307.26 1510.35,-302.41 1509.38,-309.34"/>
</g>
<!-- Node31 -->
<g id="node31" class="node">
<title>Node31</title>
<g id="a_node31"><a xlink:href="_game_logic_components_runner_8h.html" target="_top" xlink:title=" ">
<polygon fill="white" stroke="black" points="1489.5,-223.5 1489.5,-264.5 1652.5,-264.5 1652.5,-223.5 1489.5,-223.5"/>
<text text-anchor="start" x="1497.5" y="-252.5" font-family="Helvetica,sans-Serif" font-size="10.00">kryne&#45;engine/include</text>
<text text-anchor="start" x="1497.5" y="-241.5" font-family="Helvetica,sans-Serif" font-size="10.00">/kryne&#45;engine/Systems</text>
<text text-anchor="middle" x="1571" y="-230.5" font-family="Helvetica,sans-Serif" font-size="10.00">/GameLogicComponentsRunner.h</text>
</a>
</g>
</g>
<!-- Node30&#45;&gt;Node31 -->
<g id="edge45" class="edge">
<title>Node30&#45;&gt;Node31</title>
<path fill="none" stroke="midnightblue" d="M1598.7,-297.63C1593.15,-287.08 1586.66,-274.75 1581.36,-264.68"/>
<polygon fill="midnightblue" stroke="midnightblue" points="1595.72,-299.49 1603.48,-306.7 1601.92,-296.23 1595.72,-299.49"/>
</g>
<!-- Node33 -->
<g id="node33" class="node">
<title>Node33</title>
<g id="a_node33"><a xlink:href="_logic_component_8cpp.html" target="_top" xlink:title=" ">
<polygon fill="white" stroke="black" points="1671,-229 1671,-259 1783,-259 1783,-229 1671,-229"/>
<text text-anchor="start" x="1679" y="-247" font-family="Helvetica,sans-Serif" font-size="10.00">kryne&#45;engine/src/Core</text>
<text text-anchor="middle" x="1727" y="-236" font-family="Helvetica,sans-Serif" font-size="10.00">/LogicComponent.cpp</text>
</a>
</g>
</g>
<!-- Node30&#45;&gt;Node33 -->
<g id="edge47" class="edge">
<title>Node30&#45;&gt;Node33</title>
<path fill="none" stroke="midnightblue" d="M1641.09,-301.29C1661.3,-288.05 1687.45,-270.91 1705.57,-259.04"/>
<polygon fill="midnightblue" stroke="midnightblue" points="1638.99,-298.48 1632.55,-306.88 1642.83,-304.33 1638.99,-298.48"/>
</g>
<!-- Node32 -->
<g id="node32" class="node">
<title>Node32</title>
<g id="a_node32"><a xlink:href="_game_logic_components_runner_8cpp.html" target="_top" xlink:title=" ">
<polygon fill="white" stroke="black" points="1484.5,-151 1484.5,-181 1657.5,-181 1657.5,-151 1484.5,-151"/>
<text text-anchor="start" x="1492.5" y="-169" font-family="Helvetica,sans-Serif" font-size="10.00">kryne&#45;engine/src/Systems</text>
<text text-anchor="middle" x="1571" y="-158" font-family="Helvetica,sans-Serif" font-size="10.00">/GameLogicComponentsRunner.cpp</text>
</a>
</g>
</g>
<!-- Node31&#45;&gt;Node32 -->
<g id="edge46" class="edge">
<title>Node31&#45;&gt;Node32</title>
<path fill="none" stroke="midnightblue" d="M1571,-213.28C1571,-202.25 1571,-190.25 1571,-181.23"/>
<polygon fill="midnightblue" stroke="midnightblue" points="1567.5,-213.43 1571,-223.43 1574.5,-213.43 1567.5,-213.43"/>
</g>
<!-- Node35&#45;&gt;Node18 -->
<g id="edge53" class="edge">
<title>Node35&#45;&gt;Node18</title>
<path fill="none" stroke="midnightblue" d="M1266.95,-424.84C1259.58,-443.75 1244.84,-469.91 1226,-488 1209.84,-503.52 1187.98,-515.85 1168.72,-524.44"/>
<polygon fill="midnightblue" stroke="midnightblue" points="1270.33,-425.77 1270.27,-415.18 1263.71,-423.5 1270.33,-425.77"/>
</g>
<!-- Node35&#45;&gt;Node31 -->
<g id="edge54" class="edge">
<title>Node35&#45;&gt;Node31</title>
<path fill="none" stroke="midnightblue" d="M1337.14,-382.47C1391.58,-368.73 1461.15,-350.3 1473,-343 1494.43,-329.79 1493.34,-318.94 1511,-301 1523.3,-288.51 1537.63,-275.1 1549.2,-264.53"/>
<polygon fill="midnightblue" stroke="midnightblue" points="1336.01,-379.14 1327.17,-384.97 1337.72,-385.93 1336.01,-379.14"/>
</g>
<!-- Node36 -->
<g id="node36" class="node">
<title>Node36</title>
<g id="a_node36"><a xlink:href="_transform_update_system_8h.html" target="_top" xlink:title=" ">
<polygon fill="white" stroke="black" points="1198.5,-301.5 1198.5,-342.5 1333.5,-342.5 1333.5,-301.5 1198.5,-301.5"/>
<text text-anchor="start" x="1206.5" y="-330.5" font-family="Helvetica,sans-Serif" font-size="10.00">kryne&#45;engine/include</text>
<text text-anchor="start" x="1206.5" y="-319.5" font-family="Helvetica,sans-Serif" font-size="10.00">/kryne&#45;engine/Systems</text>
<text text-anchor="middle" x="1266" y="-308.5" font-family="Helvetica,sans-Serif" font-size="10.00">/TransformUpdateSystem.h</text>
</a>
</g>
</g>
<!-- Node35&#45;&gt;Node36 -->
<g id="edge55" class="edge">
<title>Node35&#45;&gt;Node36</title>
<path fill="none" stroke="midnightblue" d="M1268.72,-374.66C1268.18,-364.33 1267.55,-352.44 1267.04,-342.68"/>
<polygon fill="midnightblue" stroke="midnightblue" points="1265.23,-374.9 1269.25,-384.7 1272.22,-374.53 1265.23,-374.9"/>
</g>
<!-- Node38 -->
<g id="node38" class="node">
<title>Node38</title>
<g id="a_node38"><a xlink:href="_system_8cpp.html" target="_top" xlink:title=" ">
<polygon fill="white" stroke="black" points="1352,-307 1352,-337 1464,-337 1464,-307 1352,-307"/>
<text text-anchor="start" x="1360" y="-325" font-family="Helvetica,sans-Serif" font-size="10.00">kryne&#45;engine/src/Core</text>
<text text-anchor="middle" x="1408" y="-314" font-family="Helvetica,sans-Serif" font-size="10.00">/System.cpp</text>
</a>
</g>
</g>
<!-- Node35&#45;&gt;Node38 -->
<g id="edge57" class="edge">
<title>Node35&#45;&gt;Node38</title>
<path fill="none" stroke="midnightblue" d="M1304.5,-380C1328.72,-366.66 1360.57,-349.12 1382.5,-337.04"/>
<polygon fill="midnightblue" stroke="midnightblue" points="1302.7,-376.99 1295.63,-384.88 1306.08,-383.12 1302.7,-376.99"/>
</g>
<!-- Node37 -->
<g id="node37" class="node">
<title>Node37</title>
<g id="a_node37"><a xlink:href="_transform_update_system_8cpp.html" target="_top" xlink:title=" ">
<polygon fill="white" stroke="black" points="1325,-229 1325,-259 1471,-259 1471,-229 1325,-229"/>
<text text-anchor="start" x="1333" y="-247" font-family="Helvetica,sans-Serif" font-size="10.00">kryne&#45;engine/src/Systems</text>
<text text-anchor="middle" x="1398" y="-236" font-family="Helvetica,sans-Serif" font-size="10.00">/TransformUpdateSystem.cpp</text>
</a>
</g>
</g>
<!-- Node36&#45;&gt;Node37 -->
<g id="edge56" class="edge">
<title>Node36&#45;&gt;Node37</title>
<path fill="none" stroke="midnightblue" d="M1308.87,-296.31C1330.2,-284.04 1355.2,-269.64 1373.29,-259.23"/>
<polygon fill="midnightblue" stroke="midnightblue" points="1306.91,-293.41 1299.99,-301.43 1310.41,-299.47 1306.91,-293.41"/>
</g>
</g>
</svg>
