<?xml version="1.0" encoding="UTF-8" standalone="no"?>
<!DOCTYPE svg PUBLIC "-//W3C//DTD SVG 1.1//EN"
 "http://www.w3.org/Graphics/SVG/1.1/DTD/svg11.dtd">
<!-- Generated by graphviz version 2.44.1 (20200629.0846)
 -->
<!-- Title: kryne&#45;engine/include/kryne&#45;engine/Camera/ProjectionData.hpp Pages: 1 -->
<svg width="787pt" height="351pt"
 viewBox="0.00 0.00 787.00 351.00" xmlns="http://www.w3.org/2000/svg" xmlns:xlink="http://www.w3.org/1999/xlink">
<g id="graph0" class="graph" transform="scale(1 1) rotate(0) translate(4 347)">
<title>kryne&#45;engine/include/kryne&#45;engine/Camera/ProjectionData.hpp</title>
<polygon fill="white" stroke="transparent" points="-4,4 -4,-347 783,-347 783,4 -4,4"/>
<!-- Node1 -->
<g id="node1" class="node">
<title>Node1</title>
<g id="a_node1"><a xlink:title=" ">
<polygon fill="#bfbfbf" stroke="black" points="87.5,-301.5 87.5,-342.5 199.5,-342.5 199.5,-301.5 87.5,-301.5"/>
<text text-anchor="start" x="95.5" y="-330.5" font-family="Helvetica,sans-Serif" font-size="10.00">kryne&#45;engine/include</text>
<text text-anchor="start" x="95.5" y="-319.5" font-family="Helvetica,sans-Serif" font-size="10.00">/kryne&#45;engine/Camera</text>
<text text-anchor="middle" x="143.5" y="-308.5" font-family="Helvetica,sans-Serif" font-size="10.00">/ProjectionData.hpp</text>
</a>
</g>
</g>
<!-- Node2 -->
<g id="node2" class="node">
<title>Node2</title>
<g id="a_node2"><a xlink:href="_k_e_modules_2_camera_8h.html" target="_top" xlink:title=" ">
<polygon fill="white" stroke="black" points="0,-73 0,-103 115,-103 115,-73 0,-73"/>
<text text-anchor="start" x="8" y="-91" font-family="Helvetica,sans-Serif" font-size="10.00">kryne&#45;engine/include</text>
<text text-anchor="middle" x="57.5" y="-80" font-family="Helvetica,sans-Serif" font-size="10.00">/KEModules/Camera.h</text>
</a>
</g>
</g>
<!-- Node1&#45;&gt;Node2 -->
<g id="edge1" class="edge">
<title>Node1&#45;&gt;Node2</title>
<path fill="none" stroke="midnightblue" d="M87.98,-295.75C76.2,-287.67 65.28,-277.5 58.5,-265 29.51,-211.55 44.99,-134.85 53.32,-103.34"/>
<polygon fill="midnightblue" stroke="midnightblue" points="86.34,-298.86 96.66,-301.26 90.1,-292.95 86.34,-298.86"/>
</g>
<!-- Node3 -->
<g id="node3" class="node">
<title>Node3</title>
<g id="a_node3"><a xlink:href="kryne-engine_2_camera_2_camera_8h.html" target="_top" xlink:title=" ">
<polygon fill="white" stroke="black" points="258.5,-223.5 258.5,-264.5 370.5,-264.5 370.5,-223.5 258.5,-223.5"/>
<text text-anchor="start" x="266.5" y="-252.5" font-family="Helvetica,sans-Serif" font-size="10.00">kryne&#45;engine/include</text>
<text text-anchor="start" x="266.5" y="-241.5" font-family="Helvetica,sans-Serif" font-size="10.00">/kryne&#45;engine/Camera</text>
<text text-anchor="middle" x="314.5" y="-230.5" font-family="Helvetica,sans-Serif" font-size="10.00">/Camera.h</text>
</a>
</g>
</g>
<!-- Node1&#45;&gt;Node3 -->
<g id="edge2" class="edge">
<title>Node1&#45;&gt;Node3</title>
<path fill="none" stroke="midnightblue" d="M196.76,-297.33C220.49,-286.78 248.1,-274.51 270.61,-264.51"/>
<polygon fill="midnightblue" stroke="midnightblue" points="195.25,-294.17 187.54,-301.43 198.1,-300.57 195.25,-294.17"/>
</g>
<!-- Node13 -->
<g id="node13" class="node">
<title>Node13</title>
<g id="a_node13"><a xlink:href="_perspective_projection_data_8hpp.html" target="_top" xlink:title=" ">
<polygon fill="white" stroke="black" points="67.5,-223.5 67.5,-264.5 219.5,-264.5 219.5,-223.5 67.5,-223.5"/>
<text text-anchor="start" x="75.5" y="-252.5" font-family="Helvetica,sans-Serif" font-size="10.00">kryne&#45;engine/include</text>
<text text-anchor="start" x="75.5" y="-241.5" font-family="Helvetica,sans-Serif" font-size="10.00">/kryne&#45;engine/Camera</text>
<text text-anchor="middle" x="143.5" y="-230.5" font-family="Helvetica,sans-Serif" font-size="10.00">/PerspectiveProjectionData.hpp</text>
</a>
</g>
</g>
<!-- Node1&#45;&gt;Node13 -->
<g id="edge15" class="edge">
<title>Node1&#45;&gt;Node13</title>
<path fill="none" stroke="midnightblue" d="M143.5,-291.3C143.5,-282.3 143.5,-272.65 143.5,-264.51"/>
<polygon fill="midnightblue" stroke="midnightblue" points="140,-291.43 143.5,-301.43 147,-291.43 140,-291.43"/>
</g>
<!-- Node3&#45;&gt;Node2 -->
<g id="edge3" class="edge">
<title>Node3&#45;&gt;Node2</title>
<path fill="none" stroke="midnightblue" d="M248.39,-226.84C205.15,-215.44 153.32,-199.96 134.5,-187 134.43,-186.95 89.79,-130.12 68.52,-103.03"/>
<polygon fill="midnightblue" stroke="midnightblue" points="247.76,-230.29 258.32,-229.43 249.52,-223.52 247.76,-230.29"/>
</g>
<!-- Node4 -->
<g id="node4" class="node">
<title>Node4</title>
<g id="a_node4"><a xlink:href="_mesh_8h.html" target="_top" xlink:title=" ">
<polygon fill="white" stroke="black" points="277.5,-145.5 277.5,-186.5 401.5,-186.5 401.5,-145.5 277.5,-145.5"/>
<text text-anchor="start" x="285.5" y="-174.5" font-family="Helvetica,sans-Serif" font-size="10.00">kryne&#45;engine/include</text>
<text text-anchor="start" x="285.5" y="-163.5" font-family="Helvetica,sans-Serif" font-size="10.00">/kryne&#45;engine/3DObjects</text>
<text text-anchor="middle" x="339.5" y="-152.5" font-family="Helvetica,sans-Serif" font-size="10.00">/Mesh.h</text>
</a>
</g>
</g>
<!-- Node3&#45;&gt;Node4 -->
<g id="edge4" class="edge">
<title>Node3&#45;&gt;Node4</title>
<path fill="none" stroke="midnightblue" d="M324.08,-213.88C327.09,-204.72 330.35,-194.83 333.08,-186.51"/>
<polygon fill="midnightblue" stroke="midnightblue" points="320.74,-212.84 320.94,-223.43 327.39,-215.02 320.74,-212.84"/>
</g>
<!-- Node6 -->
<g id="node6" class="node">
<title>Node6</title>
<g id="a_node6"><a xlink:href="_renderer_8h.html" target="_top" xlink:title=" ">
<polygon fill="white" stroke="black" points="576.5,-67.5 576.5,-108.5 698.5,-108.5 698.5,-67.5 576.5,-67.5"/>
<text text-anchor="start" x="584.5" y="-96.5" font-family="Helvetica,sans-Serif" font-size="10.00">kryne&#45;engine/include</text>
<text text-anchor="start" x="584.5" y="-85.5" font-family="Helvetica,sans-Serif" font-size="10.00">/kryne&#45;engine/Rendering</text>
<text text-anchor="middle" x="637.5" y="-74.5" font-family="Helvetica,sans-Serif" font-size="10.00">/Renderer.h</text>
</a>
</g>
</g>
<!-- Node3&#45;&gt;Node6 -->
<g id="edge13" class="edge">
<title>Node3&#45;&gt;Node6</title>
<path fill="none" stroke="midnightblue" d="M363.12,-218.32C378.88,-209.38 396.02,-198.59 410.5,-187 430.38,-171.08 427.86,-158.44 449.5,-145 452.34,-143.23 522.63,-122.51 576.43,-106.78"/>
<polygon fill="midnightblue" stroke="midnightblue" points="361.07,-215.46 354.02,-223.37 364.47,-221.58 361.07,-215.46"/>
</g>
<!-- Node10 -->
<g id="node10" class="node">
<title>Node10</title>
<g id="a_node10"><a xlink:href="_orbit_camera_8h.html" target="_top" xlink:title=" ">
<polygon fill="white" stroke="black" points="143.5,-145.5 143.5,-186.5 255.5,-186.5 255.5,-145.5 143.5,-145.5"/>
<text text-anchor="start" x="151.5" y="-174.5" font-family="Helvetica,sans-Serif" font-size="10.00">kryne&#45;engine/include</text>
<text text-anchor="start" x="151.5" y="-163.5" font-family="Helvetica,sans-Serif" font-size="10.00">/kryne&#45;engine/Camera</text>
<text text-anchor="middle" x="199.5" y="-152.5" font-family="Helvetica,sans-Serif" font-size="10.00">/OrbitCamera.h</text>
</a>
</g>
</g>
<!-- Node3&#45;&gt;Node10 -->
<g id="edge10" class="edge">
<title>Node3&#45;&gt;Node10</title>
<path fill="none" stroke="midnightblue" d="M276.12,-217.64C260.76,-207.49 243.35,-195.98 229.01,-186.51"/>
<polygon fill="midnightblue" stroke="midnightblue" points="274.61,-220.83 284.88,-223.43 278.47,-214.99 274.61,-220.83"/>
</g>
<!-- Node12 -->
<g id="node12" class="node">
<title>Node12</title>
<g id="a_node12"><a xlink:href="_camera_8cpp.html" target="_top" xlink:title=" ">
<polygon fill="white" stroke="black" points="458,-151 458,-181 583,-181 583,-151 458,-151"/>
<text text-anchor="start" x="466" y="-169" font-family="Helvetica,sans-Serif" font-size="10.00">kryne&#45;engine/src/Camera</text>
<text text-anchor="middle" x="520.5" y="-158" font-family="Helvetica,sans-Serif" font-size="10.00">/Camera.cpp</text>
</a>
</g>
</g>
<!-- Node3&#45;&gt;Node12 -->
<g id="edge14" class="edge">
<title>Node3&#45;&gt;Node12</title>
<path fill="none" stroke="midnightblue" d="M377.02,-219.93C411.33,-207.28 452.76,-191.99 482.26,-181.11"/>
<polygon fill="midnightblue" stroke="midnightblue" points="375.72,-216.68 367.55,-223.43 378.14,-223.25 375.72,-216.68"/>
</g>
<!-- Node5 -->
<g id="node5" class="node">
<title>Node5</title>
<g id="a_node5"><a xlink:href="3_d_objects_8h.html" target="_top" xlink:title=" ">
<polygon fill="white" stroke="black" points="276,-73 276,-103 403,-103 403,-73 276,-73"/>
<text text-anchor="start" x="284" y="-91" font-family="Helvetica,sans-Serif" font-size="10.00">kryne&#45;engine/include</text>
<text text-anchor="middle" x="339.5" y="-80" font-family="Helvetica,sans-Serif" font-size="10.00">/KEModules/3DObjects.h</text>
</a>
</g>
</g>
<!-- Node4&#45;&gt;Node5 -->
<g id="edge5" class="edge">
<title>Node4&#45;&gt;Node5</title>
<path fill="none" stroke="midnightblue" d="M339.5,-135.28C339.5,-124.25 339.5,-112.25 339.5,-103.23"/>
<polygon fill="midnightblue" stroke="midnightblue" points="336,-135.43 339.5,-145.43 343,-135.43 336,-135.43"/>
</g>
<!-- Node4&#45;&gt;Node6 -->
<g id="edge6" class="edge">
<title>Node4&#45;&gt;Node6</title>
<path fill="none" stroke="midnightblue" d="M411.67,-145.96C412.96,-145.64 414.23,-145.32 415.5,-145 482.85,-128.16 500.33,-126.54 567.5,-109 570.43,-108.23 573.43,-107.44 576.46,-106.62"/>
<polygon fill="midnightblue" stroke="midnightblue" points="410.51,-142.65 401.68,-148.5 412.24,-149.43 410.51,-142.65"/>
</g>
<!-- Node9 -->
<g id="node9" class="node">
<title>Node9</title>
<g id="a_node9"><a xlink:href="_mesh_8cpp.html" target="_top" xlink:title=" ">
<polygon fill="white" stroke="black" points="421,-73 421,-103 558,-103 558,-73 421,-73"/>
<text text-anchor="start" x="429" y="-91" font-family="Helvetica,sans-Serif" font-size="10.00">kryne&#45;engine/src/3DObjects</text>
<text text-anchor="middle" x="489.5" y="-80" font-family="Helvetica,sans-Serif" font-size="10.00">/Mesh.cpp</text>
</a>
</g>
</g>
<!-- Node4&#45;&gt;Node9 -->
<g id="edge9" class="edge">
<title>Node4&#45;&gt;Node9</title>
<path fill="none" stroke="midnightblue" d="M387.25,-140.81C411.69,-128.43 440.59,-113.78 461.42,-103.23"/>
<polygon fill="midnightblue" stroke="midnightblue" points="385.47,-137.79 378.13,-145.43 388.63,-144.03 385.47,-137.79"/>
</g>
<!-- Node7 -->
<g id="node7" class="node">
<title>Node7</title>
<g id="a_node7"><a xlink:href="_rendering_8h.html" target="_top" xlink:title=" ">
<polygon fill="white" stroke="black" points="501,-0.5 501,-30.5 626,-30.5 626,-0.5 501,-0.5"/>
<text text-anchor="start" x="509" y="-18.5" font-family="Helvetica,sans-Serif" font-size="10.00">kryne&#45;engine/include</text>
<text text-anchor="middle" x="563.5" y="-7.5" font-family="Helvetica,sans-Serif" font-size="10.00">/KEModules/Rendering.h</text>
</a>
</g>
</g>
<!-- Node6&#45;&gt;Node7 -->
<g id="edge7" class="edge">
<title>Node6&#45;&gt;Node7</title>
<path fill="none" stroke="midnightblue" d="M609.48,-60.31C599,-50.32 587.49,-39.35 578.61,-30.89"/>
<polygon fill="midnightblue" stroke="midnightblue" points="607.23,-63 616.89,-67.36 612.06,-57.93 607.23,-63"/>
</g>
<!-- Node8 -->
<g id="node8" class="node">
<title>Node8</title>
<g id="a_node8"><a xlink:href="_renderer_8cpp.html" target="_top" xlink:title=" ">
<polygon fill="white" stroke="black" points="644,-0.5 644,-30.5 779,-30.5 779,-0.5 644,-0.5"/>
<text text-anchor="start" x="652" y="-18.5" font-family="Helvetica,sans-Serif" font-size="10.00">kryne&#45;engine/src/Rendering</text>
<text text-anchor="middle" x="711.5" y="-7.5" font-family="Helvetica,sans-Serif" font-size="10.00">/Renderer.cpp</text>
</a>
</g>
</g>
<!-- Node6&#45;&gt;Node8 -->
<g id="edge8" class="edge">
<title>Node6&#45;&gt;Node8</title>
<path fill="none" stroke="midnightblue" d="M665.52,-60.31C676,-50.32 687.51,-39.35 696.39,-30.89"/>
<polygon fill="midnightblue" stroke="midnightblue" points="662.94,-57.93 658.11,-67.36 667.77,-63 662.94,-57.93"/>
</g>
<!-- Node10&#45;&gt;Node2 -->
<g id="edge11" class="edge">
<title>Node10&#45;&gt;Node2</title>
<path fill="none" stroke="midnightblue" d="M153.99,-140.64C130.92,-128.3 103.71,-113.73 84.08,-103.23"/>
<polygon fill="midnightblue" stroke="midnightblue" points="152.46,-143.8 162.93,-145.43 155.77,-137.62 152.46,-143.8"/>
</g>
<!-- Node11 -->
<g id="node11" class="node">
<title>Node11</title>
<g id="a_node11"><a xlink:href="_orbit_camera_8cpp.html" target="_top" xlink:title=" ">
<polygon fill="white" stroke="black" points="133,-73 133,-103 258,-103 258,-73 133,-73"/>
<text text-anchor="start" x="141" y="-91" font-family="Helvetica,sans-Serif" font-size="10.00">kryne&#45;engine/src/Camera</text>
<text text-anchor="middle" x="195.5" y="-80" font-family="Helvetica,sans-Serif" font-size="10.00">/OrbitCamera.cpp</text>
</a>
</g>
</g>
<!-- Node10&#45;&gt;Node11 -->
<g id="edge12" class="edge">
<title>Node10&#45;&gt;Node11</title>
<path fill="none" stroke="midnightblue" d="M197.94,-135.28C197.36,-124.25 196.72,-112.25 196.25,-103.23"/>
<polygon fill="midnightblue" stroke="midnightblue" points="194.45,-135.63 198.47,-145.43 201.44,-135.26 194.45,-135.63"/>
</g>
<!-- Node13&#45;&gt;Node2 -->
<g id="edge16" class="edge">
<title>Node13&#45;&gt;Node2</title>
<path fill="none" stroke="midnightblue" d="M120.8,-215.27C114.15,-206.51 107.16,-196.6 101.5,-187 84.73,-158.56 70.12,-122.6 62.69,-103.11"/>
<polygon fill="midnightblue" stroke="midnightblue" points="118.11,-217.52 127.01,-223.27 123.64,-213.23 118.11,-217.52"/>
</g>
</g>
</svg>
