<?xml version="1.0" encoding="UTF-8" standalone="no"?>
<!DOCTYPE svg PUBLIC "-//W3C//DTD SVG 1.1//EN"
 "http://www.w3.org/Graphics/SVG/1.1/DTD/svg11.dtd">
<!-- Generated by graphviz version 2.44.1 (20200629.0846)
 -->
<!-- Title: kryne&#45;engine/include/kryne&#45;engine/Core/Process.h Pages: 1 -->
<svg width="1066pt" height="274pt"
 viewBox="0.00 0.00 1066.00 274.00" xmlns="http://www.w3.org/2000/svg" xmlns:xlink="http://www.w3.org/1999/xlink">
<g id="graph0" class="graph" transform="scale(1 1) rotate(0) translate(4 270)">
<title>kryne&#45;engine/include/kryne&#45;engine/Core/Process.h</title>
<polygon fill="white" stroke="transparent" points="-4,4 -4,-270 1062,-270 1062,4 -4,4"/>
<!-- Node1 -->
<g id="node1" class="node">
<title>Node1</title>
<g id="a_node1"><a xlink:title=" ">
<polygon fill="#bfbfbf" stroke="black" points="542,-235.5 542,-265.5 688,-265.5 688,-235.5 542,-235.5"/>
<text text-anchor="start" x="550" y="-253.5" font-family="Helvetica,sans-Serif" font-size="10.00">kryne&#45;engine/include</text>
<text text-anchor="middle" x="615" y="-242.5" font-family="Helvetica,sans-Serif" font-size="10.00">/kryne&#45;engine/Core/Process.h</text>
</a>
</g>
</g>
<!-- Node2 -->
<g id="node2" class="node">
<title>Node2</title>
<g id="a_node2"><a xlink:title=" ">
<polygon fill="white" stroke="#bfbfbf" points="0,-56.5 0,-75.5 52,-75.5 52,-56.5 0,-56.5"/>
<text text-anchor="middle" x="26" y="-63.5" font-family="Helvetica,sans-Serif" font-size="10.00">memory</text>
</a>
</g>
</g>
<!-- Node1&#45;&gt;Node2 -->
<g id="edge1" class="edge">
<title>Node1&#45;&gt;Node2</title>
<path fill="none" stroke="midnightblue" d="M569.76,-235.48C456.75,-200.47 163.85,-109.71 61.74,-78.08"/>
<polygon fill="midnightblue" stroke="midnightblue" points="62.78,-74.73 52.19,-75.12 60.71,-81.42 62.78,-74.73"/>
</g>
<!-- Node3 -->
<g id="node3" class="node">
<title>Node3</title>
<g id="a_node3"><a xlink:title=" ">
<polygon fill="white" stroke="#bfbfbf" points="658.5,-179.5 658.5,-198.5 741.5,-198.5 741.5,-179.5 658.5,-179.5"/>
<text text-anchor="middle" x="700" y="-186.5" font-family="Helvetica,sans-Serif" font-size="10.00">unordered_map</text>
</a>
</g>
</g>
<!-- Node1&#45;&gt;Node3 -->
<g id="edge2" class="edge">
<title>Node1&#45;&gt;Node3</title>
<path fill="none" stroke="midnightblue" d="M635.14,-235.4C648.39,-226.13 665.68,-214.03 679.08,-204.65"/>
<polygon fill="midnightblue" stroke="midnightblue" points="681.45,-207.26 687.63,-198.66 677.43,-201.53 681.45,-207.26"/>
</g>
<!-- Node4 -->
<g id="node4" class="node">
<title>Node4</title>
<g id="a_node4"><a xlink:href="_entity_8h.html" target="_top" xlink:title=" ">
<polygon fill="white" stroke="black" points="590,-179.5 590,-198.5 640,-198.5 640,-179.5 590,-179.5"/>
<text text-anchor="middle" x="615" y="-186.5" font-family="Helvetica,sans-Serif" font-size="10.00">Entity.h</text>
</a>
</g>
</g>
<!-- Node1&#45;&gt;Node4 -->
<g id="edge3" class="edge">
<title>Node1&#45;&gt;Node4</title>
<path fill="none" stroke="midnightblue" d="M609.16,-235.4C608.13,-227.38 607.97,-217.23 608.69,-208.57"/>
<polygon fill="midnightblue" stroke="midnightblue" points="612.16,-209.04 610.07,-198.66 605.23,-208.08 612.16,-209.04"/>
</g>
<!-- Node4&#45;&gt;Node1 -->
<g id="edge23" class="edge">
<title>Node4&#45;&gt;Node1</title>
<path fill="none" stroke="midnightblue" d="M619.93,-198.66C621.43,-205.65 622.01,-215.86 621.64,-225.29"/>
<polygon fill="midnightblue" stroke="midnightblue" points="618.14,-225.15 620.84,-235.4 625.12,-225.71 618.14,-225.15"/>
</g>
<!-- Node5 -->
<g id="node5" class="node">
<title>Node5</title>
<g id="a_node5"><a xlink:title=" ">
<polygon fill="white" stroke="#bfbfbf" points="552,-118 552,-137 598,-137 598,-118 552,-118"/>
<text text-anchor="middle" x="575" y="-125" font-family="Helvetica,sans-Serif" font-size="10.00">atomic</text>
</a>
</g>
</g>
<!-- Node4&#45;&gt;Node5 -->
<g id="edge4" class="edge">
<title>Node4&#45;&gt;Node5</title>
<path fill="none" stroke="midnightblue" d="M609.27,-179.48C603.33,-170.64 593.88,-156.59 586.41,-145.48"/>
<polygon fill="midnightblue" stroke="midnightblue" points="589.2,-143.36 580.72,-137.01 583.39,-147.26 589.2,-143.36"/>
</g>
<!-- Node6 -->
<g id="node6" class="node">
<title>Node6</title>
<g id="a_node6"><a xlink:title=" ">
<polygon fill="white" stroke="#bfbfbf" points="1016,-56.5 1016,-75.5 1058,-75.5 1058,-56.5 1016,-56.5"/>
<text text-anchor="middle" x="1037" y="-63.5" font-family="Helvetica,sans-Serif" font-size="10.00">vector</text>
</a>
</g>
</g>
<!-- Node4&#45;&gt;Node6 -->
<g id="edge5" class="edge">
<title>Node4&#45;&gt;Node6</title>
<path fill="none" stroke="midnightblue" d="M640.23,-181.49C643.51,-180.65 646.84,-179.8 650,-179 714.38,-162.73 731.07,-160.96 795,-143 871.47,-121.52 960.31,-92.58 1006.13,-77.36"/>
<polygon fill="midnightblue" stroke="midnightblue" points="1007.38,-80.63 1015.76,-74.15 1005.17,-73.99 1007.38,-80.63"/>
</g>
<!-- Node7 -->
<g id="node7" class="node">
<title>Node7</title>
<g id="a_node7"><a xlink:title=" ">
<polygon fill="white" stroke="#bfbfbf" points="616,-118 616,-137 694,-137 694,-118 616,-118"/>
<text text-anchor="middle" x="655" y="-125" font-family="Helvetica,sans-Serif" font-size="10.00">unordered_set</text>
</a>
</g>
</g>
<!-- Node4&#45;&gt;Node7 -->
<g id="edge6" class="edge">
<title>Node4&#45;&gt;Node7</title>
<path fill="none" stroke="midnightblue" d="M620.73,-179.48C626.67,-170.64 636.12,-156.59 643.59,-145.48"/>
<polygon fill="midnightblue" stroke="midnightblue" points="646.61,-147.26 649.28,-137.01 640.8,-143.36 646.61,-147.26"/>
</g>
<!-- Node8 -->
<g id="node8" class="node">
<title>Node8</title>
<g id="a_node8"><a xlink:href="_transform_8h.html" target="_top" xlink:title=" ">
<polygon fill="white" stroke="black" points="412.5,-112.5 412.5,-142.5 533.5,-142.5 533.5,-112.5 412.5,-112.5"/>
<text text-anchor="start" x="420.5" y="-130.5" font-family="Helvetica,sans-Serif" font-size="10.00">kryne&#45;engine/3DObjects</text>
<text text-anchor="middle" x="473" y="-119.5" font-family="Helvetica,sans-Serif" font-size="10.00">/Transform.h</text>
</a>
</g>
</g>
<!-- Node4&#45;&gt;Node8 -->
<g id="edge7" class="edge">
<title>Node4&#45;&gt;Node8</title>
<path fill="none" stroke="midnightblue" d="M589.75,-179.48C567.49,-170.93 534.99,-157.5 509.87,-146.57"/>
<polygon fill="midnightblue" stroke="midnightblue" points="511.2,-143.34 500.64,-142.52 508.39,-149.75 511.2,-143.34"/>
</g>
<!-- Node18 -->
<g id="node18" class="node">
<title>Node18</title>
<g id="a_node18"><a xlink:href="_component_8h.html" target="_top" xlink:title=" ">
<polygon fill="white" stroke="black" points="712,-118 712,-137 786,-137 786,-118 712,-118"/>
<text text-anchor="middle" x="749" y="-125" font-family="Helvetica,sans-Serif" font-size="10.00">Component.h</text>
</a>
</g>
</g>
<!-- Node4&#45;&gt;Node18 -->
<g id="edge21" class="edge">
<title>Node4&#45;&gt;Node18</title>
<path fill="none" stroke="midnightblue" d="M629.3,-179.48C649.88,-169.36 687.83,-152.4 715.59,-140.85"/>
<polygon fill="midnightblue" stroke="midnightblue" points="717.02,-144.05 724.94,-137.01 714.36,-137.57 717.02,-144.05"/>
</g>
<!-- Node8&#45;&gt;Node2 -->
<g id="edge8" class="edge">
<title>Node8&#45;&gt;Node2</title>
<path fill="none" stroke="midnightblue" d="M412.23,-121.54C333.57,-114.56 192.15,-100.15 62.41,-76.05"/>
<polygon fill="midnightblue" stroke="midnightblue" points="62.77,-72.56 52.29,-74.15 61.47,-79.44 62.77,-72.56"/>
</g>
<!-- Node8&#45;&gt;Node4 -->
<g id="edge20" class="edge">
<title>Node8&#45;&gt;Node4</title>
<path fill="none" stroke="midnightblue" d="M512.3,-142.52C537.32,-152.47 568.84,-165.7 590.41,-175.33"/>
<polygon fill="midnightblue" stroke="midnightblue" points="589,-178.54 599.56,-179.48 591.89,-172.16 589,-178.54"/>
</g>
<!-- Node8&#45;&gt;Node6 -->
<g id="edge9" class="edge">
<title>Node8&#45;&gt;Node6</title>
<path fill="none" stroke="midnightblue" d="M533.62,-113.45C536.79,-112.92 539.93,-112.44 543,-112 744.49,-83.43 801.83,-112.95 1005.7,-75.84"/>
<polygon fill="midnightblue" stroke="midnightblue" points="1006.64,-79.22 1015.83,-73.96 1005.36,-72.34 1006.64,-79.22"/>
</g>
<!-- Node9 -->
<g id="node9" class="node">
<title>Node9</title>
<g id="a_node9"><a xlink:title=" ">
<polygon fill="white" stroke="#bfbfbf" points="928,-56.5 928,-75.5 998,-75.5 998,-56.5 928,-56.5"/>
<text text-anchor="middle" x="963" y="-63.5" font-family="Helvetica,sans-Serif" font-size="10.00">glm/glm.hpp</text>
</a>
</g>
</g>
<!-- Node8&#45;&gt;Node9 -->
<g id="edge10" class="edge">
<title>Node8&#45;&gt;Node9</title>
<path fill="none" stroke="midnightblue" d="M533.63,-113.52C536.8,-112.97 539.93,-112.46 543,-112 705.75,-87.43 751.21,-100.33 917.89,-76.01"/>
<polygon fill="midnightblue" stroke="midnightblue" points="918.62,-79.44 928,-74.51 917.59,-72.51 918.62,-79.44"/>
</g>
<!-- Node10 -->
<g id="node10" class="node">
<title>Node10</title>
<g id="a_node10"><a xlink:title=" ">
<polygon fill="white" stroke="#bfbfbf" points="70,-56.5 70,-75.5 162,-75.5 162,-56.5 70,-56.5"/>
<text text-anchor="middle" x="116" y="-63.5" font-family="Helvetica,sans-Serif" font-size="10.00">glm/common.hpp</text>
</a>
</g>
</g>
<!-- Node8&#45;&gt;Node10 -->
<g id="edge11" class="edge">
<title>Node8&#45;&gt;Node10</title>
<path fill="none" stroke="midnightblue" d="M412.44,-116.41C345.22,-105.2 237.6,-87.27 172.19,-76.36"/>
<polygon fill="midnightblue" stroke="midnightblue" points="172.51,-72.87 162.07,-74.68 171.35,-79.77 172.51,-72.87"/>
</g>
<!-- Node11 -->
<g id="node11" class="node">
<title>Node11</title>
<g id="a_node11"><a xlink:title=" ">
<polygon fill="white" stroke="#bfbfbf" points="180.5,-56.5 180.5,-75.5 261.5,-75.5 261.5,-56.5 180.5,-56.5"/>
<text text-anchor="middle" x="221" y="-63.5" font-family="Helvetica,sans-Serif" font-size="10.00">glm/matrix.hpp</text>
</a>
</g>
</g>
<!-- Node8&#45;&gt;Node11 -->
<g id="edge12" class="edge">
<title>Node8&#45;&gt;Node11</title>
<path fill="none" stroke="midnightblue" d="M413.6,-112.47C368.7,-101.87 307.97,-87.53 266.79,-77.81"/>
<polygon fill="midnightblue" stroke="midnightblue" points="267.56,-74.4 257.03,-75.51 265.96,-81.21 267.56,-74.4"/>
</g>
<!-- Node12 -->
<g id="node12" class="node">
<title>Node12</title>
<g id="a_node12"><a xlink:title=" ">
<polygon fill="white" stroke="#bfbfbf" points="259,-0.5 259,-19.5 333,-19.5 333,-0.5 259,-0.5"/>
<text text-anchor="middle" x="296" y="-7.5" font-family="Helvetica,sans-Serif" font-size="10.00">glm/vec3.hpp</text>
</a>
</g>
</g>
<!-- Node8&#45;&gt;Node12 -->
<g id="edge13" class="edge">
<title>Node8&#45;&gt;Node12</title>
<path fill="none" stroke="midnightblue" d="M412.31,-122.49C377.63,-116.99 336,-104.41 310,-76 298.68,-63.64 295.7,-44.39 295.24,-30.04"/>
<polygon fill="midnightblue" stroke="midnightblue" points="298.74,-29.83 295.3,-19.81 291.74,-29.79 298.74,-29.83"/>
</g>
<!-- Node13 -->
<g id="node13" class="node">
<title>Node13</title>
<g id="a_node13"><a xlink:title=" ">
<polygon fill="white" stroke="#bfbfbf" points="498,-56.5 498,-75.5 614,-75.5 614,-56.5 498,-56.5"/>
<text text-anchor="middle" x="556" y="-63.5" font-family="Helvetica,sans-Serif" font-size="10.00">glm/gtc/quaternion.hpp</text>
</a>
</g>
</g>
<!-- Node8&#45;&gt;Node13 -->
<g id="edge14" class="edge">
<title>Node8&#45;&gt;Node13</title>
<path fill="none" stroke="midnightblue" d="M492.67,-112.4C505.6,-103.13 522.49,-91.03 535.57,-81.65"/>
<polygon fill="midnightblue" stroke="midnightblue" points="537.83,-84.33 543.92,-75.66 533.76,-78.64 537.83,-84.33"/>
</g>
<!-- Node14 -->
<g id="node14" class="node">
<title>Node14</title>
<g id="a_node14"><a xlink:title=" ">
<polygon fill="white" stroke="#bfbfbf" points="632,-56.5 632,-75.5 748,-75.5 748,-56.5 632,-56.5"/>
<text text-anchor="middle" x="690" y="-63.5" font-family="Helvetica,sans-Serif" font-size="10.00">glm/gtx/quaternion.hpp</text>
</a>
</g>
</g>
<!-- Node8&#45;&gt;Node14 -->
<g id="edge15" class="edge">
<title>Node8&#45;&gt;Node14</title>
<path fill="none" stroke="midnightblue" d="M524.15,-112.47C562.24,-102.03 613.57,-87.96 648.98,-78.25"/>
<polygon fill="midnightblue" stroke="midnightblue" points="650.26,-81.53 658.98,-75.51 648.41,-74.78 650.26,-81.53"/>
</g>
<!-- Node15 -->
<g id="node15" class="node">
<title>Node15</title>
<g id="a_node15"><a xlink:title=" ">
<polygon fill="white" stroke="#bfbfbf" points="766.5,-56.5 766.5,-75.5 909.5,-75.5 909.5,-56.5 766.5,-56.5"/>
<text text-anchor="middle" x="838" y="-63.5" font-family="Helvetica,sans-Serif" font-size="10.00">glm/gtc/matrix_transform.hpp</text>
</a>
</g>
</g>
<!-- Node8&#45;&gt;Node15 -->
<g id="edge16" class="edge">
<title>Node8&#45;&gt;Node15</title>
<path fill="none" stroke="midnightblue" d="M533.67,-113.73C536.82,-113.13 539.95,-112.55 543,-112 618.68,-98.4 705.76,-85.44 765.58,-76.96"/>
<polygon fill="midnightblue" stroke="midnightblue" points="766.27,-80.39 775.69,-75.53 765.3,-73.46 766.27,-80.39"/>
</g>
<!-- Node16 -->
<g id="node16" class="node">
<title>Node16</title>
<g id="a_node16"><a xlink:href="_transform_8hpp.html" target="_top" xlink:title=" ">
<polygon fill="white" stroke="black" points="318.5,-56.5 318.5,-75.5 479.5,-75.5 479.5,-56.5 318.5,-56.5"/>
<text text-anchor="middle" x="399" y="-63.5" font-family="Helvetica,sans-Serif" font-size="10.00">kryne&#45;engine/Math/Transform.hpp</text>
</a>
</g>
</g>
<!-- Node8&#45;&gt;Node16 -->
<g id="edge17" class="edge">
<title>Node8&#45;&gt;Node16</title>
<path fill="none" stroke="midnightblue" d="M455.46,-112.4C444.16,-103.31 429.46,-91.49 417.89,-82.19"/>
<polygon fill="midnightblue" stroke="midnightblue" points="419.75,-79.2 409.77,-75.66 415.37,-84.65 419.75,-79.2"/>
</g>
<!-- Node16&#45;&gt;Node12 -->
<g id="edge18" class="edge">
<title>Node16&#45;&gt;Node12</title>
<path fill="none" stroke="midnightblue" d="M382.45,-56.32C366.01,-47.7 340.57,-34.36 321.53,-24.39"/>
<polygon fill="midnightblue" stroke="midnightblue" points="322.99,-21.2 312.51,-19.65 319.74,-27.4 322.99,-21.2"/>
</g>
<!-- Node17 -->
<g id="node17" class="node">
<title>Node17</title>
<g id="a_node17"><a xlink:title=" ">
<polygon fill="white" stroke="#bfbfbf" points="356,-0.5 356,-19.5 442,-19.5 442,-0.5 356,-0.5"/>
<text text-anchor="middle" x="399" y="-7.5" font-family="Helvetica,sans-Serif" font-size="10.00">glm/mat3x3.hpp</text>
</a>
</g>
</g>
<!-- Node16&#45;&gt;Node17 -->
<g id="edge19" class="edge">
<title>Node16&#45;&gt;Node17</title>
<path fill="none" stroke="midnightblue" d="M399,-56.08C399,-49.01 399,-38.86 399,-29.99"/>
<polygon fill="midnightblue" stroke="midnightblue" points="402.5,-29.75 399,-19.75 395.5,-29.75 402.5,-29.75"/>
</g>
<!-- Node18&#45;&gt;Node4 -->
<g id="edge22" class="edge">
<title>Node18&#45;&gt;Node4</title>
<path fill="none" stroke="midnightblue" d="M734.73,-137.01C714.17,-147.12 676.23,-164.07 648.45,-175.63"/>
<polygon fill="midnightblue" stroke="midnightblue" points="647.02,-172.44 639.1,-179.48 649.68,-178.91 647.02,-172.44"/>
</g>
</g>
</svg>
