<?xml version="1.0" encoding="UTF-8" standalone="no"?>
<!DOCTYPE svg PUBLIC "-//W3C//DTD SVG 1.1//EN"
 "http://www.w3.org/Graphics/SVG/1.1/DTD/svg11.dtd">
<!-- Generated by graphviz version 2.44.1 (20200629.0846)
 -->
<!-- Title: kryne&#45;engine/src/Rendering/RendererSystem.cpp Pages: 1 -->
<svg width="1836pt" height="453pt"
 viewBox="0.00 0.00 1836.00 453.00" xmlns="http://www.w3.org/2000/svg" xmlns:xlink="http://www.w3.org/1999/xlink">
<g id="graph0" class="graph" transform="scale(1 1) rotate(0) translate(4 449)">
<title>kryne&#45;engine/src/Rendering/RendererSystem.cpp</title>
<polygon fill="white" stroke="transparent" points="-4,4 -4,-449 1832,-449 1832,4 -4,4"/>
<!-- Node1 -->
<g id="node1" class="node">
<title>Node1</title>
<g id="a_node1"><a xlink:title=" ">
<polygon fill="#bfbfbf" stroke="black" points="941.5,-414.5 941.5,-444.5 1076.5,-444.5 1076.5,-414.5 941.5,-414.5"/>
<text text-anchor="start" x="949.5" y="-432.5" font-family="Helvetica,sans-Serif" font-size="10.00">kryne&#45;engine/src/Rendering</text>
<text text-anchor="middle" x="1009" y="-421.5" font-family="Helvetica,sans-Serif" font-size="10.00">/RendererSystem.cpp</text>
</a>
</g>
</g>
<!-- Node2 -->
<g id="node2" class="node">
<title>Node2</title>
<g id="a_node2"><a xlink:href="_renderer_system_8h.html" target="_top" xlink:title=" ">
<polygon fill="white" stroke="black" points="949.5,-347.5 949.5,-377.5 1068.5,-377.5 1068.5,-347.5 949.5,-347.5"/>
<text text-anchor="start" x="957.5" y="-365.5" font-family="Helvetica,sans-Serif" font-size="10.00">kryne&#45;engine/Rendering</text>
<text text-anchor="middle" x="1009" y="-354.5" font-family="Helvetica,sans-Serif" font-size="10.00">/RendererSystem.h</text>
</a>
</g>
</g>
<!-- Node1&#45;&gt;Node2 -->
<g id="edge1" class="edge">
<title>Node1&#45;&gt;Node2</title>
<path fill="none" stroke="midnightblue" d="M1009,-414.4C1009,-406.64 1009,-396.81 1009,-387.86"/>
<polygon fill="midnightblue" stroke="midnightblue" points="1012.5,-387.58 1009,-377.58 1005.5,-387.58 1012.5,-387.58"/>
</g>
<!-- Node3 -->
<g id="node3" class="node">
<title>Node3</title>
<g id="a_node3"><a xlink:href="_system_8h.html" target="_top" xlink:title=" ">
<polygon fill="white" stroke="black" points="995,-291.5 995,-310.5 1135,-310.5 1135,-291.5 995,-291.5"/>
<text text-anchor="middle" x="1065" y="-298.5" font-family="Helvetica,sans-Serif" font-size="10.00">kryne&#45;engine/Core/System.h</text>
</a>
</g>
</g>
<!-- Node2&#45;&gt;Node3 -->
<g id="edge2" class="edge">
<title>Node2&#45;&gt;Node3</title>
<path fill="none" stroke="midnightblue" d="M1022.27,-347.4C1030.58,-338.58 1041.3,-327.18 1049.92,-318.02"/>
<polygon fill="midnightblue" stroke="midnightblue" points="1052.55,-320.34 1056.85,-310.66 1047.45,-315.54 1052.55,-320.34"/>
</g>
<!-- Node31 -->
<g id="node31" class="node">
<title>Node31</title>
<g id="a_node31"><a xlink:href="_render_mesh_8h.html" target="_top" xlink:title=" ">
<polygon fill="white" stroke="black" points="906,-235.5 906,-254.5 986,-254.5 986,-235.5 906,-235.5"/>
<text text-anchor="middle" x="946" y="-242.5" font-family="Helvetica,sans-Serif" font-size="10.00">RenderMesh.h</text>
</a>
</g>
</g>
<!-- Node2&#45;&gt;Node31 -->
<g id="edge45" class="edge">
<title>Node2&#45;&gt;Node31</title>
<path fill="none" stroke="midnightblue" d="M1001.27,-347.34C989.77,-326.24 968.15,-286.6 955.63,-263.65"/>
<polygon fill="midnightblue" stroke="midnightblue" points="958.59,-261.77 950.73,-254.67 952.44,-265.12 958.59,-261.77"/>
</g>
<!-- Node4 -->
<g id="node4" class="node">
<title>Node4</title>
<g id="a_node4"><a xlink:href="_process_8h.html" target="_top" xlink:title=" ">
<polygon fill="white" stroke="black" points="1088.5,-235.5 1088.5,-254.5 1149.5,-254.5 1149.5,-235.5 1088.5,-235.5"/>
<text text-anchor="middle" x="1119" y="-242.5" font-family="Helvetica,sans-Serif" font-size="10.00">Process.h</text>
</a>
</g>
</g>
<!-- Node3&#45;&gt;Node4 -->
<g id="edge3" class="edge">
<title>Node3&#45;&gt;Node4</title>
<path fill="none" stroke="midnightblue" d="M1068.75,-291.08C1075.08,-283.06 1086.7,-271.1 1097.31,-261.51"/>
<polygon fill="midnightblue" stroke="midnightblue" points="1099.85,-263.94 1105.12,-254.75 1095.27,-258.65 1099.85,-263.94"/>
</g>
<!-- Node22 -->
<g id="node22" class="node">
<title>Node22</title>
<g id="a_node22"><a xlink:href="_scene_8h.html" target="_top" xlink:title=" ">
<polygon fill="white" stroke="black" points="1004.5,-56.5 1004.5,-75.5 1057.5,-75.5 1057.5,-56.5 1004.5,-56.5"/>
<text text-anchor="middle" x="1031" y="-63.5" font-family="Helvetica,sans-Serif" font-size="10.00">Scene.h</text>
</a>
</g>
</g>
<!-- Node3&#45;&gt;Node22 -->
<g id="edge44" class="edge">
<title>Node3&#45;&gt;Node22</title>
<path fill="none" stroke="midnightblue" d="M1063.75,-291.43C1058.83,-257.68 1040.7,-133.47 1033.74,-85.8"/>
<polygon fill="midnightblue" stroke="midnightblue" points="1037.21,-85.29 1032.3,-75.9 1030.28,-86.3 1037.21,-85.29"/>
</g>
<!-- Node4&#45;&gt;Node3 -->
<g id="edge32" class="edge">
<title>Node4&#45;&gt;Node3</title>
<path fill="none" stroke="midnightblue" d="M1115.31,-254.83C1108.99,-262.87 1097.29,-274.91 1086.63,-284.54"/>
<polygon fill="midnightblue" stroke="midnightblue" points="1084.06,-282.13 1078.79,-291.32 1088.64,-287.43 1084.06,-282.13"/>
</g>
<!-- Node5 -->
<g id="node5" class="node">
<title>Node5</title>
<g id="a_node5"><a xlink:title=" ">
<polygon fill="white" stroke="#bfbfbf" points="1114,-56.5 1114,-75.5 1166,-75.5 1166,-56.5 1114,-56.5"/>
<text text-anchor="middle" x="1140" y="-63.5" font-family="Helvetica,sans-Serif" font-size="10.00">memory</text>
</a>
</g>
</g>
<!-- Node4&#45;&gt;Node5 -->
<g id="edge4" class="edge">
<title>Node4&#45;&gt;Node5</title>
<path fill="none" stroke="midnightblue" d="M1120.01,-235.46C1123.22,-208.43 1133.21,-124.24 1137.73,-86.11"/>
<polygon fill="midnightblue" stroke="midnightblue" points="1141.25,-86.21 1138.95,-75.87 1134.29,-85.39 1141.25,-86.21"/>
</g>
<!-- Node6 -->
<g id="node6" class="node">
<title>Node6</title>
<g id="a_node6"><a xlink:title=" ">
<polygon fill="white" stroke="#bfbfbf" points="1672.5,-56.5 1672.5,-75.5 1755.5,-75.5 1755.5,-56.5 1672.5,-56.5"/>
<text text-anchor="middle" x="1714" y="-63.5" font-family="Helvetica,sans-Serif" font-size="10.00">unordered_map</text>
</a>
</g>
</g>
<!-- Node4&#45;&gt;Node6 -->
<g id="edge5" class="edge">
<title>Node4&#45;&gt;Node6</title>
<path fill="none" stroke="midnightblue" d="M1149.86,-242.57C1206.75,-239.29 1331.53,-229.01 1432,-199 1533.03,-168.82 1643.82,-107.99 1690.84,-80.75"/>
<polygon fill="midnightblue" stroke="midnightblue" points="1692.76,-83.68 1699.63,-75.61 1689.23,-77.64 1692.76,-83.68"/>
</g>
<!-- Node7 -->
<g id="node7" class="node">
<title>Node7</title>
<g id="a_node7"><a xlink:title=" ">
<polygon fill="white" stroke="#bfbfbf" points="1774,-56.5 1774,-75.5 1828,-75.5 1828,-56.5 1774,-56.5"/>
<text text-anchor="middle" x="1801" y="-63.5" font-family="Helvetica,sans-Serif" font-size="10.00">iostream</text>
</a>
</g>
</g>
<!-- Node4&#45;&gt;Node7 -->
<g id="edge6" class="edge">
<title>Node4&#45;&gt;Node7</title>
<path fill="none" stroke="midnightblue" d="M1149.87,-242.68C1212.1,-239.44 1356.65,-229.07 1474,-199 1539.72,-182.16 1553.07,-168.33 1616,-143 1670.76,-120.95 1734.38,-94.67 1770.94,-79.5"/>
<polygon fill="midnightblue" stroke="midnightblue" points="1772.61,-82.6 1780.51,-75.53 1769.93,-76.13 1772.61,-82.6"/>
</g>
<!-- Node8 -->
<g id="node8" class="node">
<title>Node8</title>
<g id="a_node8"><a xlink:href="_entity_8h.html" target="_top" xlink:title=" ">
<polygon fill="white" stroke="black" points="720,-179.5 720,-198.5 770,-198.5 770,-179.5 720,-179.5"/>
<text text-anchor="middle" x="745" y="-186.5" font-family="Helvetica,sans-Serif" font-size="10.00">Entity.h</text>
</a>
</g>
</g>
<!-- Node4&#45;&gt;Node8 -->
<g id="edge7" class="edge">
<title>Node4&#45;&gt;Node8</title>
<path fill="none" stroke="midnightblue" d="M1088.4,-240.12C1019.6,-230.74 853.61,-206.8 780.47,-195.75"/>
<polygon fill="midnightblue" stroke="midnightblue" points="780.78,-192.26 770.37,-194.22 779.73,-199.18 780.78,-192.26"/>
</g>
<!-- Node24 -->
<g id="node24" class="node">
<title>Node24</title>
<g id="a_node24"><a xlink:href="_graphic_context_8h.html" target="_top" xlink:title=" ">
<polygon fill="white" stroke="black" points="1259.5,-179.5 1259.5,-198.5 1422.5,-198.5 1422.5,-179.5 1259.5,-179.5"/>
<text text-anchor="middle" x="1341" y="-186.5" font-family="Helvetica,sans-Serif" font-size="10.00">GraphicContext/GraphicContext.h</text>
</a>
</g>
</g>
<!-- Node4&#45;&gt;Node24 -->
<g id="edge33" class="edge">
<title>Node4&#45;&gt;Node24</title>
<path fill="none" stroke="midnightblue" d="M1149.87,-236.49C1187.89,-227.24 1252.77,-211.46 1296.26,-200.88"/>
<polygon fill="midnightblue" stroke="midnightblue" points="1297.12,-204.28 1306.01,-198.51 1295.46,-197.47 1297.12,-204.28"/>
</g>
<!-- Node8&#45;&gt;Node4 -->
<g id="edge31" class="edge">
<title>Node8&#45;&gt;Node4</title>
<path fill="none" stroke="midnightblue" d="M770.38,-193.17C834.16,-201.8 1000.85,-225.81 1078.39,-237.47"/>
<polygon fill="midnightblue" stroke="midnightblue" points="1077.87,-240.94 1088.28,-238.97 1078.92,-234.01 1077.87,-240.94"/>
</g>
<!-- Node9 -->
<g id="node9" class="node">
<title>Node9</title>
<g id="a_node9"><a xlink:title=" ">
<polygon fill="white" stroke="#bfbfbf" points="817,-118 817,-137 863,-137 863,-118 817,-118"/>
<text text-anchor="middle" x="840" y="-125" font-family="Helvetica,sans-Serif" font-size="10.00">atomic</text>
</a>
</g>
</g>
<!-- Node8&#45;&gt;Node9 -->
<g id="edge8" class="edge">
<title>Node8&#45;&gt;Node9</title>
<path fill="none" stroke="midnightblue" d="M758.61,-179.48C774.06,-169.8 799.49,-153.87 817.82,-142.39"/>
<polygon fill="midnightblue" stroke="midnightblue" points="819.8,-145.28 826.41,-137.01 816.08,-139.35 819.8,-145.28"/>
</g>
<!-- Node10 -->
<g id="node10" class="node">
<title>Node10</title>
<g id="a_node10"><a xlink:title=" ">
<polygon fill="white" stroke="#bfbfbf" points="0,-56.5 0,-75.5 42,-75.5 42,-56.5 0,-56.5"/>
<text text-anchor="middle" x="21" y="-63.5" font-family="Helvetica,sans-Serif" font-size="10.00">vector</text>
</a>
</g>
</g>
<!-- Node8&#45;&gt;Node10 -->
<g id="edge9" class="edge">
<title>Node8&#45;&gt;Node10</title>
<path fill="none" stroke="midnightblue" d="M719.56,-180.36C695.79,-172.68 659.74,-159.6 631,-143 611.83,-131.93 612.64,-120.02 592,-112 485.28,-70.51 191.77,-88.94 78,-76 69.6,-75.04 60.55,-73.74 52.18,-72.42"/>
<polygon fill="midnightblue" stroke="midnightblue" points="52.49,-68.93 42.05,-70.77 51.36,-75.84 52.49,-68.93"/>
</g>
<!-- Node11 -->
<g id="node11" class="node">
<title>Node11</title>
<g id="a_node11"><a xlink:title=" ">
<polygon fill="white" stroke="#bfbfbf" points="1047,-0.5 1047,-19.5 1125,-19.5 1125,-0.5 1047,-0.5"/>
<text text-anchor="middle" x="1086" y="-7.5" font-family="Helvetica,sans-Serif" font-size="10.00">unordered_set</text>
</a>
</g>
</g>
<!-- Node8&#45;&gt;Node11 -->
<g id="edge10" class="edge">
<title>Node8&#45;&gt;Node11</title>
<path fill="none" stroke="midnightblue" d="M770.04,-186.78C830.24,-182.48 984.21,-163.07 1067,-76 1078.76,-63.63 1083.29,-44.38 1085.01,-30.04"/>
<polygon fill="midnightblue" stroke="midnightblue" points="1088.52,-30.07 1085.87,-19.81 1081.55,-29.48 1088.52,-30.07"/>
</g>
<!-- Node12 -->
<g id="node12" class="node">
<title>Node12</title>
<g id="a_node12"><a xlink:href="_transform_8h.html" target="_top" xlink:title=" ">
<polygon fill="white" stroke="black" points="639.5,-112.5 639.5,-142.5 760.5,-142.5 760.5,-112.5 639.5,-112.5"/>
<text text-anchor="start" x="647.5" y="-130.5" font-family="Helvetica,sans-Serif" font-size="10.00">kryne&#45;engine/3DObjects</text>
<text text-anchor="middle" x="700" y="-119.5" font-family="Helvetica,sans-Serif" font-size="10.00">/Transform.h</text>
</a>
</g>
</g>
<!-- Node8&#45;&gt;Node12 -->
<g id="edge11" class="edge">
<title>Node8&#45;&gt;Node12</title>
<path fill="none" stroke="midnightblue" d="M733.65,-179.48C726.39,-172.02 717.39,-160.85 710.36,-150.87"/>
<polygon fill="midnightblue" stroke="midnightblue" points="713.24,-148.89 704.78,-142.52 707.42,-152.78 713.24,-148.89"/>
</g>
<!-- Node23 -->
<g id="node23" class="node">
<title>Node23</title>
<g id="a_node23"><a xlink:href="_component_8h.html" target="_top" xlink:title=" ">
<polygon fill="white" stroke="black" points="509,-118 509,-137 583,-137 583,-118 509,-118"/>
<text text-anchor="middle" x="546" y="-125" font-family="Helvetica,sans-Serif" font-size="10.00">Component.h</text>
</a>
</g>
</g>
<!-- Node8&#45;&gt;Node23 -->
<g id="edge28" class="edge">
<title>Node8&#45;&gt;Node23</title>
<path fill="none" stroke="midnightblue" d="M719.74,-181.74C684.01,-171.89 619.1,-152.6 579.44,-140.14"/>
<polygon fill="midnightblue" stroke="midnightblue" points="580.29,-136.74 569.7,-137.05 578.17,-143.41 580.29,-136.74"/>
</g>
<!-- Node12&#45;&gt;Node5 -->
<g id="edge12" class="edge">
<title>Node12&#45;&gt;Node5</title>
<path fill="none" stroke="midnightblue" d="M760.72,-118.29C853.71,-105.71 1028.53,-82.07 1103.91,-71.88"/>
<polygon fill="midnightblue" stroke="midnightblue" points="1104.42,-75.34 1113.86,-70.53 1103.48,-68.41 1104.42,-75.34"/>
</g>
<!-- Node12&#45;&gt;Node8 -->
<g id="edge27" class="edge">
<title>Node12&#45;&gt;Node8</title>
<path fill="none" stroke="midnightblue" d="M716.44,-142.52C723.89,-150.94 732.17,-161.73 738.1,-170.68"/>
<polygon fill="midnightblue" stroke="midnightblue" points="735.26,-172.75 743.45,-179.48 741.24,-169.11 735.26,-172.75"/>
</g>
<!-- Node12&#45;&gt;Node10 -->
<g id="edge13" class="edge">
<title>Node12&#45;&gt;Node10</title>
<path fill="none" stroke="midnightblue" d="M639.12,-114.05C634.35,-113.29 629.6,-112.59 625,-112 373.65,-79.88 306.26,-115.73 56,-76 54.75,-75.8 53.47,-75.58 52.19,-75.33"/>
<polygon fill="midnightblue" stroke="midnightblue" points="52.86,-71.9 42.34,-73.17 51.35,-78.73 52.86,-71.9"/>
</g>
<!-- Node13 -->
<g id="node13" class="node">
<title>Node13</title>
<g id="a_node13"><a xlink:title=" ">
<polygon fill="white" stroke="#bfbfbf" points="98,-56.5 98,-75.5 168,-75.5 168,-56.5 98,-56.5"/>
<text text-anchor="middle" x="133" y="-63.5" font-family="Helvetica,sans-Serif" font-size="10.00">glm/glm.hpp</text>
</a>
</g>
</g>
<!-- Node12&#45;&gt;Node13 -->
<g id="edge14" class="edge">
<title>Node12&#45;&gt;Node13</title>
<path fill="none" stroke="midnightblue" d="M639.1,-114.14C634.34,-113.35 629.6,-112.63 625,-112 430.37,-85.45 376.55,-103.45 178.63,-76.07"/>
<polygon fill="midnightblue" stroke="midnightblue" points="178.87,-72.57 168.48,-74.64 177.89,-79.5 178.87,-72.57"/>
</g>
<!-- Node14 -->
<g id="node14" class="node">
<title>Node14</title>
<g id="a_node14"><a xlink:title=" ">
<polygon fill="white" stroke="#bfbfbf" points="186,-56.5 186,-75.5 278,-75.5 278,-56.5 186,-56.5"/>
<text text-anchor="middle" x="232" y="-63.5" font-family="Helvetica,sans-Serif" font-size="10.00">glm/common.hpp</text>
</a>
</g>
</g>
<!-- Node12&#45;&gt;Node14 -->
<g id="edge15" class="edge">
<title>Node12&#45;&gt;Node14</title>
<path fill="none" stroke="midnightblue" d="M639.49,-114.35C634.6,-113.5 629.72,-112.71 625,-112 478.8,-90.12 438.44,-95.94 288.24,-76.1"/>
<polygon fill="midnightblue" stroke="midnightblue" points="288.56,-72.61 278.19,-74.75 287.63,-79.55 288.56,-72.61"/>
</g>
<!-- Node15 -->
<g id="node15" class="node">
<title>Node15</title>
<g id="a_node15"><a xlink:title=" ">
<polygon fill="white" stroke="#bfbfbf" points="296.5,-56.5 296.5,-75.5 377.5,-75.5 377.5,-56.5 296.5,-56.5"/>
<text text-anchor="middle" x="337" y="-63.5" font-family="Helvetica,sans-Serif" font-size="10.00">glm/matrix.hpp</text>
</a>
</g>
</g>
<!-- Node12&#45;&gt;Node15 -->
<g id="edge16" class="edge">
<title>Node12&#45;&gt;Node15</title>
<path fill="none" stroke="midnightblue" d="M639.46,-114.57C634.57,-113.68 629.71,-112.81 625,-112 522.66,-94.37 494.19,-93.51 387.52,-76.04"/>
<polygon fill="midnightblue" stroke="midnightblue" points="388.08,-72.59 377.64,-74.41 386.94,-79.49 388.08,-72.59"/>
</g>
<!-- Node16 -->
<g id="node16" class="node">
<title>Node16</title>
<g id="a_node16"><a xlink:title=" ">
<polygon fill="white" stroke="#bfbfbf" points="187,-0.5 187,-19.5 261,-19.5 261,-0.5 187,-0.5"/>
<text text-anchor="middle" x="224" y="-7.5" font-family="Helvetica,sans-Serif" font-size="10.00">glm/vec3.hpp</text>
</a>
</g>
</g>
<!-- Node12&#45;&gt;Node16 -->
<g id="edge17" class="edge">
<title>Node12&#45;&gt;Node16</title>
<path fill="none" stroke="midnightblue" d="M639.11,-114.07C634.35,-113.3 629.6,-112.6 625,-112 565.81,-104.32 129.77,-119.6 89,-76 59.08,-44 126.94,-25.98 176.88,-17.38"/>
<polygon fill="midnightblue" stroke="midnightblue" points="177.61,-20.81 186.91,-15.74 176.48,-13.9 177.61,-20.81"/>
</g>
<!-- Node17 -->
<g id="node17" class="node">
<title>Node17</title>
<g id="a_node17"><a xlink:title=" ">
<polygon fill="white" stroke="#bfbfbf" points="575,-56.5 575,-75.5 691,-75.5 691,-56.5 575,-56.5"/>
<text text-anchor="middle" x="633" y="-63.5" font-family="Helvetica,sans-Serif" font-size="10.00">glm/gtc/quaternion.hpp</text>
</a>
</g>
</g>
<!-- Node12&#45;&gt;Node17 -->
<g id="edge18" class="edge">
<title>Node12&#45;&gt;Node17</title>
<path fill="none" stroke="midnightblue" d="M684.12,-112.4C673.98,-103.4 660.84,-91.72 650.41,-82.47"/>
<polygon fill="midnightblue" stroke="midnightblue" points="652.55,-79.68 642.75,-75.66 647.9,-84.92 652.55,-79.68"/>
</g>
<!-- Node18 -->
<g id="node18" class="node">
<title>Node18</title>
<g id="a_node18"><a xlink:title=" ">
<polygon fill="white" stroke="#bfbfbf" points="709,-56.5 709,-75.5 825,-75.5 825,-56.5 709,-56.5"/>
<text text-anchor="middle" x="767" y="-63.5" font-family="Helvetica,sans-Serif" font-size="10.00">glm/gtx/quaternion.hpp</text>
</a>
</g>
</g>
<!-- Node12&#45;&gt;Node18 -->
<g id="edge19" class="edge">
<title>Node12&#45;&gt;Node18</title>
<path fill="none" stroke="midnightblue" d="M715.88,-112.4C726.02,-103.4 739.16,-91.72 749.59,-82.47"/>
<polygon fill="midnightblue" stroke="midnightblue" points="752.1,-84.92 757.25,-75.66 747.45,-79.68 752.1,-84.92"/>
</g>
<!-- Node19 -->
<g id="node19" class="node">
<title>Node19</title>
<g id="a_node19"><a xlink:title=" ">
<polygon fill="white" stroke="#bfbfbf" points="843.5,-56.5 843.5,-75.5 986.5,-75.5 986.5,-56.5 843.5,-56.5"/>
<text text-anchor="middle" x="915" y="-63.5" font-family="Helvetica,sans-Serif" font-size="10.00">glm/gtc/matrix_transform.hpp</text>
</a>
</g>
</g>
<!-- Node12&#45;&gt;Node19 -->
<g id="edge20" class="edge">
<title>Node12&#45;&gt;Node19</title>
<path fill="none" stroke="midnightblue" d="M750.68,-112.47C788.42,-102.03 839.27,-87.96 874.36,-78.25"/>
<polygon fill="midnightblue" stroke="midnightblue" points="875.56,-81.55 884.26,-75.51 873.69,-74.8 875.56,-81.55"/>
</g>
<!-- Node20 -->
<g id="node20" class="node">
<title>Node20</title>
<g id="a_node20"><a xlink:href="_transform_8hpp.html" target="_top" xlink:title=" ">
<polygon fill="white" stroke="black" points="395.5,-56.5 395.5,-75.5 556.5,-75.5 556.5,-56.5 395.5,-56.5"/>
<text text-anchor="middle" x="476" y="-63.5" font-family="Helvetica,sans-Serif" font-size="10.00">kryne&#45;engine/Math/Transform.hpp</text>
</a>
</g>
</g>
<!-- Node12&#45;&gt;Node20 -->
<g id="edge21" class="edge">
<title>Node12&#45;&gt;Node20</title>
<path fill="none" stroke="midnightblue" d="M647.2,-112.47C607.71,-101.99 554.44,-87.84 517.87,-78.12"/>
<polygon fill="midnightblue" stroke="midnightblue" points="518.59,-74.69 508.02,-75.51 516.79,-81.46 518.59,-74.69"/>
</g>
<!-- Node12&#45;&gt;Node22 -->
<g id="edge24" class="edge">
<title>Node12&#45;&gt;Node22</title>
<path fill="none" stroke="midnightblue" d="M760.55,-114.63C765.44,-113.73 770.3,-112.84 775,-112 869.82,-95.12 896.87,-96.31 994.33,-76.21"/>
<polygon fill="midnightblue" stroke="midnightblue" points="995.23,-79.6 1004.31,-74.13 993.8,-72.74 995.23,-79.6"/>
</g>
<!-- Node20&#45;&gt;Node16 -->
<g id="edge22" class="edge">
<title>Node20&#45;&gt;Node16</title>
<path fill="none" stroke="midnightblue" d="M436.07,-56.44C391.33,-46.86 318.87,-31.33 271.32,-21.14"/>
<polygon fill="midnightblue" stroke="midnightblue" points="271.79,-17.66 261.28,-18.99 270.32,-24.51 271.79,-17.66"/>
</g>
<!-- Node21 -->
<g id="node21" class="node">
<title>Node21</title>
<g id="a_node21"><a xlink:title=" ">
<polygon fill="white" stroke="#bfbfbf" points="433,-0.5 433,-19.5 519,-19.5 519,-0.5 433,-0.5"/>
<text text-anchor="middle" x="476" y="-7.5" font-family="Helvetica,sans-Serif" font-size="10.00">glm/mat3x3.hpp</text>
</a>
</g>
</g>
<!-- Node20&#45;&gt;Node21 -->
<g id="edge23" class="edge">
<title>Node20&#45;&gt;Node21</title>
<path fill="none" stroke="midnightblue" d="M476,-56.08C476,-49.01 476,-38.86 476,-29.99"/>
<polygon fill="midnightblue" stroke="midnightblue" points="479.5,-29.75 476,-19.75 472.5,-29.75 479.5,-29.75"/>
</g>
<!-- Node22&#45;&gt;Node8 -->
<g id="edge26" class="edge">
<title>Node22&#45;&gt;Node8</title>
<path fill="none" stroke="midnightblue" d="M1004.29,-74.05C1001.5,-74.73 998.69,-75.4 996,-76 912.99,-94.6 881.23,-68.7 808,-112 784.1,-126.13 765.22,-152.81 754.58,-170.5"/>
<polygon fill="midnightblue" stroke="midnightblue" points="751.49,-168.85 749.53,-179.26 757.55,-172.34 751.49,-168.85"/>
</g>
<!-- Node22&#45;&gt;Node11 -->
<g id="edge25" class="edge">
<title>Node22&#45;&gt;Node11</title>
<path fill="none" stroke="midnightblue" d="M1040.08,-56.08C1048.17,-48.14 1060.2,-36.34 1069.91,-26.8"/>
<polygon fill="midnightblue" stroke="midnightblue" points="1072.4,-29.25 1077.09,-19.75 1067.5,-24.26 1072.4,-29.25"/>
</g>
<!-- Node23&#45;&gt;Node8 -->
<g id="edge30" class="edge">
<title>Node23&#45;&gt;Node8</title>
<path fill="none" stroke="midnightblue" d="M579.36,-137.01C616.17,-147.34 674.81,-164.82 711.62,-176.38"/>
<polygon fill="midnightblue" stroke="midnightblue" points="710.8,-179.79 721.39,-179.48 712.91,-173.12 710.8,-179.79"/>
</g>
<!-- Node23&#45;&gt;Node10 -->
<g id="edge29" class="edge">
<title>Node23&#45;&gt;Node10</title>
<path fill="none" stroke="midnightblue" d="M508.86,-124.57C426.69,-119.87 223.52,-106 56,-76 54.75,-75.78 53.48,-75.53 52.2,-75.27"/>
<polygon fill="midnightblue" stroke="midnightblue" points="52.89,-71.84 42.36,-73.03 51.33,-78.66 52.89,-71.84"/>
</g>
<!-- Node25 -->
<g id="node25" class="node">
<title>Node25</title>
<g id="a_node25"><a xlink:href="_player_input_8h.html" target="_top" xlink:title=" ">
<polygon fill="white" stroke="black" points="1352,-112.5 1352,-142.5 1448,-142.5 1448,-112.5 1352,-112.5"/>
<text text-anchor="start" x="1360" y="-130.5" font-family="Helvetica,sans-Serif" font-size="10.00">kryne&#45;engine/Input</text>
<text text-anchor="middle" x="1400" y="-119.5" font-family="Helvetica,sans-Serif" font-size="10.00">/PlayerInput.h</text>
</a>
</g>
</g>
<!-- Node24&#45;&gt;Node25 -->
<g id="edge34" class="edge">
<title>Node24&#45;&gt;Node25</title>
<path fill="none" stroke="midnightblue" d="M1349.45,-179.48C1357.15,-171.72 1368.82,-159.94 1379.01,-149.66"/>
<polygon fill="midnightblue" stroke="midnightblue" points="1381.54,-152.09 1386.09,-142.52 1376.57,-147.16 1381.54,-152.09"/>
</g>
<!-- Node25&#45;&gt;Node5 -->
<g id="edge39" class="edge">
<title>Node25&#45;&gt;Node5</title>
<path fill="none" stroke="midnightblue" d="M1351.71,-115.45C1300.78,-103.79 1221.72,-85.7 1176,-75.24"/>
<polygon fill="midnightblue" stroke="midnightblue" points="1176.76,-71.82 1166.23,-73 1175.19,-78.64 1176.76,-71.82"/>
</g>
<!-- Node25&#45;&gt;Node6 -->
<g id="edge37" class="edge">
<title>Node25&#45;&gt;Node6</title>
<path fill="none" stroke="midnightblue" d="M1448.03,-117.4C1506.01,-106.41 1603.11,-88.01 1662.57,-76.75"/>
<polygon fill="midnightblue" stroke="midnightblue" points="1663.32,-80.17 1672.5,-74.86 1662.02,-73.29 1663.32,-80.17"/>
</g>
<!-- Node25&#45;&gt;Node7 -->
<g id="edge38" class="edge">
<title>Node25&#45;&gt;Node7</title>
<path fill="none" stroke="midnightblue" d="M1448.1,-121.51C1516.26,-114.08 1644.98,-98.7 1763.94,-76.02"/>
<polygon fill="midnightblue" stroke="midnightblue" points="1764.79,-79.43 1773.94,-74.1 1763.46,-72.55 1764.79,-79.43"/>
</g>
<!-- Node25&#45;&gt;Node11 -->
<g id="edge36" class="edge">
<title>Node25&#45;&gt;Node11</title>
<path fill="none" stroke="midnightblue" d="M1351.8,-116.57C1313.47,-107.94 1258.86,-94 1213,-76 1195.23,-69.03 1191.96,-64.75 1175,-56 1153.97,-45.15 1130.02,-33.06 1112.27,-24.14"/>
<polygon fill="midnightblue" stroke="midnightblue" points="1113.61,-20.9 1103.1,-19.54 1110.47,-27.16 1113.61,-20.9"/>
</g>
<!-- Node26 -->
<g id="node26" class="node">
<title>Node26</title>
<g id="a_node26"><a xlink:title=" ">
<polygon fill="white" stroke="#bfbfbf" points="1624,-56.5 1624,-75.5 1654,-75.5 1654,-56.5 1624,-56.5"/>
<text text-anchor="middle" x="1639" y="-63.5" font-family="Helvetica,sans-Serif" font-size="10.00">set</text>
</a>
</g>
</g>
<!-- Node25&#45;&gt;Node26 -->
<g id="edge35" class="edge">
<title>Node25&#45;&gt;Node26</title>
<path fill="none" stroke="midnightblue" d="M1448.29,-117.01C1490.03,-108.39 1552.08,-94.58 1614.29,-75.92"/>
<polygon fill="midnightblue" stroke="midnightblue" points="1615.32,-79.27 1623.87,-73.01 1613.28,-72.57 1615.32,-79.27"/>
</g>
<!-- Node27 -->
<g id="node27" class="node">
<title>Node27</title>
<g id="a_node27"><a xlink:title=" ">
<polygon fill="white" stroke="#bfbfbf" points="1222,-56.5 1222,-75.5 1286,-75.5 1286,-56.5 1222,-56.5"/>
<text text-anchor="middle" x="1254" y="-63.5" font-family="Helvetica,sans-Serif" font-size="10.00">glad/glad.h</text>
</a>
</g>
</g>
<!-- Node25&#45;&gt;Node27 -->
<g id="edge40" class="edge">
<title>Node25&#45;&gt;Node27</title>
<path fill="none" stroke="midnightblue" d="M1365.4,-112.4C1340.9,-102.42 1308.34,-89.15 1284.75,-79.53"/>
<polygon fill="midnightblue" stroke="midnightblue" points="1285.83,-76.19 1275.24,-75.66 1283.18,-82.67 1285.83,-76.19"/>
</g>
<!-- Node28 -->
<g id="node28" class="node">
<title>Node28</title>
<g id="a_node28"><a xlink:title=" ">
<polygon fill="white" stroke="#bfbfbf" points="1304,-56.5 1304,-75.5 1382,-75.5 1382,-56.5 1304,-56.5"/>
<text text-anchor="middle" x="1343" y="-63.5" font-family="Helvetica,sans-Serif" font-size="10.00">GLFW/glfw3.h</text>
</a>
</g>
</g>
<!-- Node25&#45;&gt;Node28 -->
<g id="edge41" class="edge">
<title>Node25&#45;&gt;Node28</title>
<path fill="none" stroke="midnightblue" d="M1386.49,-112.4C1378.04,-103.58 1367.12,-92.18 1358.34,-83.02"/>
<polygon fill="midnightblue" stroke="midnightblue" points="1360.74,-80.46 1351.29,-75.66 1355.68,-85.3 1360.74,-80.46"/>
</g>
<!-- Node29 -->
<g id="node29" class="node">
<title>Node29</title>
<g id="a_node29"><a xlink:title=" ">
<polygon fill="white" stroke="#bfbfbf" points="1400,-56.5 1400,-75.5 1514,-75.5 1514,-56.5 1400,-56.5"/>
<text text-anchor="middle" x="1457" y="-63.5" font-family="Helvetica,sans-Serif" font-size="10.00">boost/lexical_cast.hpp</text>
</a>
</g>
</g>
<!-- Node25&#45;&gt;Node29 -->
<g id="edge42" class="edge">
<title>Node25&#45;&gt;Node29</title>
<path fill="none" stroke="midnightblue" d="M1413.51,-112.4C1421.96,-103.58 1432.88,-92.18 1441.66,-83.02"/>
<polygon fill="midnightblue" stroke="midnightblue" points="1444.32,-85.3 1448.71,-75.66 1439.26,-80.46 1444.32,-85.3"/>
</g>
<!-- Node30 -->
<g id="node30" class="node">
<title>Node30</title>
<g id="a_node30"><a xlink:title=" ">
<polygon fill="white" stroke="#bfbfbf" points="1532,-56.5 1532,-75.5 1606,-75.5 1606,-56.5 1532,-56.5"/>
<text text-anchor="middle" x="1569" y="-63.5" font-family="Helvetica,sans-Serif" font-size="10.00">glm/vec2.hpp</text>
</a>
</g>
</g>
<!-- Node25&#45;&gt;Node30 -->
<g id="edge43" class="edge">
<title>Node25&#45;&gt;Node30</title>
<path fill="none" stroke="midnightblue" d="M1440.05,-112.4C1468.91,-102.24 1507.45,-88.67 1534.85,-79.02"/>
<polygon fill="midnightblue" stroke="midnightblue" points="1536.14,-82.28 1544.41,-75.66 1533.81,-75.68 1536.14,-82.28"/>
</g>
<!-- Node31&#45;&gt;Node23 -->
<g id="edge46" class="edge">
<title>Node31&#45;&gt;Node23</title>
<path fill="none" stroke="midnightblue" d="M905.87,-238.99C858.57,-232.48 777.94,-219.45 711,-199 660.24,-183.49 603.96,-157.4 571.99,-141.68"/>
<polygon fill="midnightblue" stroke="midnightblue" points="573.4,-138.47 562.89,-137.16 570.29,-144.74 573.4,-138.47"/>
</g>
</g>
</svg>
