<?xml version="1.0" encoding="UTF-8" standalone="no"?>
<!DOCTYPE svg PUBLIC "-//W3C//DTD SVG 1.1//EN"
 "http://www.w3.org/Graphics/SVG/1.1/DTD/svg11.dtd">
<!-- Generated by graphviz version 2.44.1 (20200629.0846)
 -->
<!-- Title: kryne&#45;engine/src/Rendering/Renderer.cpp Pages: 1 -->
<svg width="2405pt" height="430pt"
 viewBox="0.00 0.00 2405.00 430.00" xmlns="http://www.w3.org/2000/svg" xmlns:xlink="http://www.w3.org/1999/xlink">
<g id="graph0" class="graph" transform="scale(1 1) rotate(0) translate(4 426)">
<title>kryne&#45;engine/src/Rendering/Renderer.cpp</title>
<polygon fill="white" stroke="transparent" points="-4,4 -4,-426 2401,-426 2401,4 -4,4"/>
<!-- Node1 -->
<g id="node1" class="node">
<title>Node1</title>
<g id="a_node1"><a xlink:title=" ">
<polygon fill="#bfbfbf" stroke="black" points="661.5,-391.5 661.5,-421.5 796.5,-421.5 796.5,-391.5 661.5,-391.5"/>
<text text-anchor="start" x="669.5" y="-409.5" font-family="Helvetica,sans-Serif" font-size="10.00">kryne&#45;engine/src/Rendering</text>
<text text-anchor="middle" x="729" y="-398.5" font-family="Helvetica,sans-Serif" font-size="10.00">/Renderer.cpp</text>
</a>
</g>
</g>
<!-- Node2 -->
<g id="node2" class="node">
<title>Node2</title>
<g id="a_node2"><a xlink:href="_renderer_8h.html" target="_top" xlink:title=" ">
<polygon fill="white" stroke="black" points="669.5,-324.5 669.5,-354.5 788.5,-354.5 788.5,-324.5 669.5,-324.5"/>
<text text-anchor="start" x="677.5" y="-342.5" font-family="Helvetica,sans-Serif" font-size="10.00">kryne&#45;engine/Rendering</text>
<text text-anchor="middle" x="729" y="-331.5" font-family="Helvetica,sans-Serif" font-size="10.00">/Renderer.h</text>
</a>
</g>
</g>
<!-- Node1&#45;&gt;Node2 -->
<g id="edge1" class="edge">
<title>Node1&#45;&gt;Node2</title>
<path fill="none" stroke="midnightblue" d="M729,-391.4C729,-383.64 729,-373.81 729,-364.86"/>
<polygon fill="midnightblue" stroke="midnightblue" points="732.5,-364.58 729,-354.58 725.5,-364.58 732.5,-364.58"/>
</g>
<!-- Node3 -->
<g id="node3" class="node">
<title>Node3</title>
<g id="a_node3"><a xlink:title=" ">
<polygon fill="white" stroke="#bfbfbf" points="45,-0.5 45,-19.5 97,-19.5 97,-0.5 45,-0.5"/>
<text text-anchor="middle" x="71" y="-7.5" font-family="Helvetica,sans-Serif" font-size="10.00">memory</text>
</a>
</g>
</g>
<!-- Node2&#45;&gt;Node3 -->
<g id="edge2" class="edge">
<title>Node2&#45;&gt;Node3</title>
<path fill="none" stroke="midnightblue" d="M669.34,-333.99C495.24,-320.03 0,-274.35 0,-206.5 0,-206.5 0,-206.5 0,-137.5 0,-92.86 34.03,-49.4 54.97,-26.88"/>
<polygon fill="midnightblue" stroke="midnightblue" points="57.6,-29.2 62.01,-19.57 52.55,-24.35 57.6,-29.2"/>
</g>
<!-- Node4 -->
<g id="node4" class="node">
<title>Node4</title>
<g id="a_node4"><a xlink:href="_window_8h.html" target="_top" xlink:title=" ">
<polygon fill="white" stroke="black" points="905.5,-129 905.5,-148 1046.5,-148 1046.5,-129 905.5,-129"/>
<text text-anchor="middle" x="976" y="-136" font-family="Helvetica,sans-Serif" font-size="10.00">kryne&#45;engine/Core/Window.h</text>
</a>
</g>
</g>
<!-- Node2&#45;&gt;Node4 -->
<g id="edge3" class="edge">
<title>Node2&#45;&gt;Node4</title>
<path fill="none" stroke="midnightblue" d="M746.76,-324.19C791.97,-287.77 911.05,-191.83 957.28,-154.58"/>
<polygon fill="midnightblue" stroke="midnightblue" points="959.68,-157.14 965.27,-148.14 955.29,-151.69 959.68,-157.14"/>
</g>
<!-- Node22 -->
<g id="node22" class="node">
<title>Node22</title>
<g id="a_node22"><a xlink:href="_scene_8h.html" target="_top" xlink:title=" ">
<polygon fill="white" stroke="black" points="1532.5,-257.5 1532.5,-287.5 1653.5,-287.5 1653.5,-257.5 1532.5,-257.5"/>
<text text-anchor="start" x="1540.5" y="-275.5" font-family="Helvetica,sans-Serif" font-size="10.00">kryne&#45;engine/3DObjects</text>
<text text-anchor="middle" x="1593" y="-264.5" font-family="Helvetica,sans-Serif" font-size="10.00">/Scene.h</text>
</a>
</g>
</g>
<!-- Node2&#45;&gt;Node22 -->
<g id="edge25" class="edge">
<title>Node2&#45;&gt;Node22</title>
<path fill="none" stroke="midnightblue" d="M788.73,-334.01C943.34,-322.37 1356.17,-291.32 1522.3,-278.82"/>
<polygon fill="midnightblue" stroke="midnightblue" points="1522.69,-282.3 1532.4,-278.06 1522.17,-275.32 1522.69,-282.3"/>
</g>
<!-- Node36 -->
<g id="node36" class="node">
<title>Node36</title>
<g id="a_node36"><a xlink:href="_mesh_8h.html" target="_top" xlink:title=" ">
<polygon fill="white" stroke="black" points="430.5,-257.5 430.5,-287.5 551.5,-287.5 551.5,-257.5 430.5,-257.5"/>
<text text-anchor="start" x="438.5" y="-275.5" font-family="Helvetica,sans-Serif" font-size="10.00">kryne&#45;engine/3DObjects</text>
<text text-anchor="middle" x="491" y="-264.5" font-family="Helvetica,sans-Serif" font-size="10.00">/Mesh.h</text>
</a>
</g>
</g>
<!-- Node2&#45;&gt;Node36 -->
<g id="edge51" class="edge">
<title>Node2&#45;&gt;Node36</title>
<path fill="none" stroke="midnightblue" d="M677.65,-324.48C641.02,-314.47 591.59,-300.97 552.8,-290.38"/>
<polygon fill="midnightblue" stroke="midnightblue" points="553.24,-286.87 542.67,-287.61 551.39,-293.62 553.24,-286.87"/>
</g>
<!-- Node61 -->
<g id="node45" class="node">
<title>Node61</title>
<g id="a_node45"><a xlink:href="kryne-engine_2_camera_2_camera_8h.html" target="_top" xlink:title=" ">
<polygon fill="white" stroke="black" points="674.5,-190.5 674.5,-220.5 783.5,-220.5 783.5,-190.5 674.5,-190.5"/>
<text text-anchor="start" x="682.5" y="-208.5" font-family="Helvetica,sans-Serif" font-size="10.00">kryne&#45;engine/Camera</text>
<text text-anchor="middle" x="729" y="-197.5" font-family="Helvetica,sans-Serif" font-size="10.00">/Camera.h</text>
</a>
</g>
</g>
<!-- Node2&#45;&gt;Node61 -->
<g id="edge71" class="edge">
<title>Node2&#45;&gt;Node61</title>
<path fill="none" stroke="midnightblue" d="M729,-324.37C729,-302.04 729,-258.31 729,-230.85"/>
<polygon fill="midnightblue" stroke="midnightblue" points="732.5,-230.52 729,-220.52 725.5,-230.52 732.5,-230.52"/>
</g>
<!-- Node63 -->
<g id="node47" class="node">
<title>Node63</title>
<g id="a_node47"><a xlink:href="_player_input_8h.html" target="_top" xlink:title=" ">
<polygon fill="white" stroke="black" points="469,-56.5 469,-86.5 565,-86.5 565,-56.5 469,-56.5"/>
<text text-anchor="start" x="477" y="-74.5" font-family="Helvetica,sans-Serif" font-size="10.00">kryne&#45;engine/Input</text>
<text text-anchor="middle" x="517" y="-63.5" font-family="Helvetica,sans-Serif" font-size="10.00">/PlayerInput.h</text>
</a>
</g>
</g>
<!-- Node2&#45;&gt;Node63 -->
<g id="edge72" class="edge">
<title>Node2&#45;&gt;Node63</title>
<path fill="none" stroke="midnightblue" d="M717.6,-324.2C682.65,-280.35 576.81,-147.54 534.63,-94.62"/>
<polygon fill="midnightblue" stroke="midnightblue" points="537.17,-92.19 528.2,-86.55 531.69,-96.55 537.17,-92.19"/>
</g>
<!-- Node66 -->
<g id="node50" class="node">
<title>Node66</title>
<g id="a_node50"><a xlink:href="_rendering_state_8hpp.html" target="_top" xlink:title=" ">
<polygon fill="white" stroke="black" points="1179,-196 1179,-215 1281,-215 1281,-196 1179,-196"/>
<text text-anchor="middle" x="1230" y="-203" font-family="Helvetica,sans-Serif" font-size="10.00">RenderingState.hpp</text>
</a>
</g>
</g>
<!-- Node2&#45;&gt;Node66 -->
<g id="edge82" class="edge">
<title>Node2&#45;&gt;Node66</title>
<path fill="none" stroke="midnightblue" d="M782.14,-324.5C882.27,-298.12 1096.96,-241.55 1187.91,-217.59"/>
<polygon fill="midnightblue" stroke="midnightblue" points="1188.82,-220.97 1197.6,-215.04 1187.04,-214.2 1188.82,-220.97"/>
</g>
<!-- Node5 -->
<g id="node5" class="node">
<title>Node5</title>
<g id="a_node5"><a xlink:title=" ">
<polygon fill="white" stroke="#bfbfbf" points="1011,-0.5 1011,-19.5 1053,-19.5 1053,-0.5 1011,-0.5"/>
<text text-anchor="middle" x="1032" y="-7.5" font-family="Helvetica,sans-Serif" font-size="10.00">vector</text>
</a>
</g>
</g>
<!-- Node4&#45;&gt;Node5 -->
<g id="edge4" class="edge">
<title>Node4&#45;&gt;Node5</title>
<path fill="none" stroke="midnightblue" d="M983.7,-128.82C991.84,-119.22 1004.51,-102.99 1012,-87 1020.67,-68.51 1026.04,-45.66 1029,-29.87"/>
<polygon fill="midnightblue" stroke="midnightblue" points="1032.49,-30.24 1030.75,-19.79 1025.59,-29.04 1032.49,-30.24"/>
</g>
<!-- Node6 -->
<g id="node6" class="node">
<title>Node6</title>
<g id="a_node6"><a xlink:title=" ">
<polygon fill="white" stroke="#bfbfbf" points="679,-0.5 679,-19.5 757,-19.5 757,-0.5 679,-0.5"/>
<text text-anchor="middle" x="718" y="-7.5" font-family="Helvetica,sans-Serif" font-size="10.00">unordered_set</text>
</a>
</g>
</g>
<!-- Node4&#45;&gt;Node6 -->
<g id="edge5" class="edge">
<title>Node4&#45;&gt;Node6</title>
<path fill="none" stroke="midnightblue" d="M911.88,-128.98C874.35,-121.89 827.19,-109.23 790,-87 764.73,-71.89 742.61,-45.47 729.77,-28.1"/>
<polygon fill="midnightblue" stroke="midnightblue" points="732.3,-25.62 723.63,-19.52 726.6,-29.69 732.3,-25.62"/>
</g>
<!-- Node7 -->
<g id="node7" class="node">
<title>Node7</title>
<g id="a_node7"><a xlink:title=" ">
<polygon fill="white" stroke="#bfbfbf" points="891.5,-62 891.5,-81 940.5,-81 940.5,-62 891.5,-62"/>
<text text-anchor="middle" x="916" y="-69" font-family="Helvetica,sans-Serif" font-size="10.00">cstdarg</text>
</a>
</g>
</g>
<!-- Node4&#45;&gt;Node7 -->
<g id="edge6" class="edge">
<title>Node4&#45;&gt;Node7</title>
<path fill="none" stroke="midnightblue" d="M967.91,-128.73C958.46,-118.5 942.64,-101.36 930.95,-88.69"/>
<polygon fill="midnightblue" stroke="midnightblue" points="933.32,-86.1 923.96,-81.13 928.17,-90.85 933.32,-86.1"/>
</g>
<!-- Node8 -->
<g id="node8" class="node">
<title>Node8</title>
<g id="a_node8"><a xlink:title=" ">
<polygon fill="white" stroke="#bfbfbf" points="958.5,-62 958.5,-81 1003.5,-81 1003.5,-62 958.5,-62"/>
<text text-anchor="middle" x="981" y="-69" font-family="Helvetica,sans-Serif" font-size="10.00">cstdlib</text>
</a>
</g>
</g>
<!-- Node4&#45;&gt;Node8 -->
<g id="edge7" class="edge">
<title>Node4&#45;&gt;Node8</title>
<path fill="none" stroke="midnightblue" d="M976.67,-128.73C977.41,-119.18 978.61,-103.62 979.56,-91.28"/>
<polygon fill="midnightblue" stroke="midnightblue" points="983.06,-91.37 980.34,-81.13 976.08,-90.83 983.06,-91.37"/>
</g>
<!-- Node9 -->
<g id="node9" class="node">
<title>Node9</title>
<g id="a_node9"><a xlink:title=" ">
<polygon fill="white" stroke="#bfbfbf" points="607,-0.5 607,-19.5 661,-19.5 661,-0.5 607,-0.5"/>
<text text-anchor="middle" x="634" y="-7.5" font-family="Helvetica,sans-Serif" font-size="10.00">iostream</text>
</a>
</g>
</g>
<!-- Node4&#45;&gt;Node9 -->
<g id="edge8" class="edge">
<title>Node4&#45;&gt;Node9</title>
<path fill="none" stroke="midnightblue" d="M915.41,-129C822.46,-115.83 654.8,-91.55 650,-87 634.58,-72.39 632.08,-46.99 632.44,-29.61"/>
<polygon fill="midnightblue" stroke="midnightblue" points="635.94,-29.71 632.98,-19.54 628.95,-29.33 635.94,-29.71"/>
</g>
<!-- Node10 -->
<g id="node10" class="node">
<title>Node10</title>
<g id="a_node10"><a xlink:title=" ">
<polygon fill="white" stroke="#bfbfbf" points="1288,-0.5 1288,-19.5 1352,-19.5 1352,-0.5 1288,-0.5"/>
<text text-anchor="middle" x="1320" y="-7.5" font-family="Helvetica,sans-Serif" font-size="10.00">glad/glad.h</text>
</a>
</g>
</g>
<!-- Node4&#45;&gt;Node10 -->
<g id="edge9" class="edge">
<title>Node4&#45;&gt;Node10</title>
<path fill="none" stroke="midnightblue" d="M1046.66,-135.71C1103.25,-131.66 1183.12,-119.91 1245,-87 1271.76,-72.77 1294.93,-45.71 1308.18,-28.02"/>
<polygon fill="midnightblue" stroke="midnightblue" points="1311.15,-29.89 1314.17,-19.74 1305.48,-25.79 1311.15,-29.89"/>
</g>
<!-- Node11 -->
<g id="node11" class="node">
<title>Node11</title>
<g id="a_node11"><a xlink:title=" ">
<polygon fill="white" stroke="#bfbfbf" points="1192,-0.5 1192,-19.5 1270,-19.5 1270,-0.5 1192,-0.5"/>
<text text-anchor="middle" x="1231" y="-7.5" font-family="Helvetica,sans-Serif" font-size="10.00">GLFW/glfw3.h</text>
</a>
</g>
</g>
<!-- Node4&#45;&gt;Node11 -->
<g id="edge10" class="edge">
<title>Node4&#45;&gt;Node11</title>
<path fill="none" stroke="midnightblue" d="M1046.76,-132.49C1111.9,-126.29 1201.83,-113.17 1225,-87 1238.68,-71.56 1237.92,-46.75 1235.24,-29.7"/>
<polygon fill="midnightblue" stroke="midnightblue" points="1238.66,-28.95 1233.33,-19.8 1231.79,-30.28 1238.66,-28.95"/>
</g>
<!-- Node12 -->
<g id="node12" class="node">
<title>Node12</title>
<g id="a_node12"><a xlink:href="_additional_parameters_8h.html" target="_top" xlink:title=" ">
<polygon fill="white" stroke="black" points="1098,-62 1098,-81 1216,-81 1216,-62 1098,-62"/>
<text text-anchor="middle" x="1157" y="-69" font-family="Helvetica,sans-Serif" font-size="10.00">AdditionalParameters.h</text>
</a>
</g>
</g>
<!-- Node4&#45;&gt;Node12 -->
<g id="edge11" class="edge">
<title>Node4&#45;&gt;Node12</title>
<path fill="none" stroke="midnightblue" d="M1000.04,-128.87C1031.77,-117.47 1087.79,-97.35 1123.62,-84.49"/>
<polygon fill="midnightblue" stroke="midnightblue" points="1124.92,-87.74 1133.15,-81.06 1122.56,-81.15 1124.92,-87.74"/>
</g>
<!-- Node16 -->
<g id="node16" class="node">
<title>Node16</title>
<g id="a_node16"><a xlink:href="_old_camera_8h.html" target="_top" xlink:title=" ">
<polygon fill="white" stroke="black" points="1386.5,-56.5 1386.5,-86.5 1495.5,-86.5 1495.5,-56.5 1386.5,-56.5"/>
<text text-anchor="start" x="1394.5" y="-74.5" font-family="Helvetica,sans-Serif" font-size="10.00">kryne&#45;engine/Camera</text>
<text text-anchor="middle" x="1441" y="-63.5" font-family="Helvetica,sans-Serif" font-size="10.00">/OldCamera.h</text>
</a>
</g>
</g>
<!-- Node4&#45;&gt;Node16 -->
<g id="edge15" class="edge">
<title>Node4&#45;&gt;Node16</title>
<path fill="none" stroke="midnightblue" d="M1032.52,-128.94C1119.33,-116.43 1284.8,-93.3 1376.29,-80.89"/>
<polygon fill="midnightblue" stroke="midnightblue" points="1376.81,-84.35 1386.25,-79.54 1375.88,-77.41 1376.81,-84.35"/>
</g>
<!-- Node13 -->
<g id="node13" class="node">
<title>Node13</title>
<g id="a_node13"><a xlink:title=" ">
<polygon fill="white" stroke="#bfbfbf" points="874.5,-0.5 874.5,-19.5 909.5,-19.5 909.5,-0.5 874.5,-0.5"/>
<text text-anchor="middle" x="892" y="-7.5" font-family="Helvetica,sans-Serif" font-size="10.00">map</text>
</a>
</g>
</g>
<!-- Node12&#45;&gt;Node13 -->
<g id="edge12" class="edge">
<title>Node12&#45;&gt;Node13</title>
<path fill="none" stroke="midnightblue" d="M1119.03,-61.98C1065.01,-49.85 967.25,-27.9 919.6,-17.2"/>
<polygon fill="midnightblue" stroke="midnightblue" points="920.22,-13.75 909.69,-14.97 918.68,-20.58 920.22,-13.75"/>
</g>
<!-- Node14 -->
<g id="node14" class="node">
<title>Node14</title>
<g id="a_node14"><a xlink:title=" ">
<polygon fill="white" stroke="#bfbfbf" points="1132.5,-0.5 1132.5,-19.5 1173.5,-19.5 1173.5,-0.5 1132.5,-0.5"/>
<text text-anchor="middle" x="1153" y="-7.5" font-family="Helvetica,sans-Serif" font-size="10.00">string</text>
</a>
</g>
</g>
<!-- Node12&#45;&gt;Node14 -->
<g id="edge13" class="edge">
<title>Node12&#45;&gt;Node14</title>
<path fill="none" stroke="midnightblue" d="M1156.43,-61.98C1155.86,-53.58 1154.98,-40.48 1154.25,-29.66"/>
<polygon fill="midnightblue" stroke="midnightblue" points="1157.74,-29.25 1153.57,-19.51 1150.75,-29.72 1157.74,-29.25"/>
</g>
<!-- Node15 -->
<g id="node15" class="node">
<title>Node15</title>
<g id="a_node15"><a xlink:title=" ">
<polygon fill="white" stroke="#bfbfbf" points="1082,-0.5 1082,-19.5 1114,-19.5 1114,-0.5 1082,-0.5"/>
<text text-anchor="middle" x="1098" y="-7.5" font-family="Helvetica,sans-Serif" font-size="10.00">any</text>
</a>
</g>
</g>
<!-- Node12&#45;&gt;Node15 -->
<g id="edge14" class="edge">
<title>Node12&#45;&gt;Node15</title>
<path fill="none" stroke="midnightblue" d="M1148.55,-61.98C1139.43,-52.78 1124.73,-37.96 1113.52,-26.66"/>
<polygon fill="midnightblue" stroke="midnightblue" points="1115.96,-24.15 1106.44,-19.51 1110.99,-29.07 1115.96,-24.15"/>
</g>
<!-- Node16&#45;&gt;Node4 -->
<g id="edge24" class="edge">
<title>Node16&#45;&gt;Node4</title>
<path fill="none" stroke="midnightblue" d="M1386.48,-80.78C1303.66,-92.72 1146.06,-114.77 1052.03,-127.57"/>
<polygon fill="midnightblue" stroke="midnightblue" points="1051.45,-124.12 1042.01,-128.94 1052.39,-131.06 1051.45,-124.12"/>
</g>
<!-- Node16&#45;&gt;Node5 -->
<g id="edge16" class="edge">
<title>Node16&#45;&gt;Node5</title>
<path fill="none" stroke="midnightblue" d="M1386.23,-64.37C1314.15,-55.98 1183.63,-39.7 1073,-20 1069.77,-19.43 1066.41,-18.77 1063.06,-18.09"/>
<polygon fill="midnightblue" stroke="midnightblue" points="1063.73,-14.65 1053.22,-15.99 1062.27,-21.5 1063.73,-14.65"/>
</g>
<!-- Node16&#45;&gt;Node10 -->
<g id="edge19" class="edge">
<title>Node16&#45;&gt;Node10</title>
<path fill="none" stroke="midnightblue" d="M1412.32,-56.4C1392.48,-46.64 1366.24,-33.74 1346.81,-24.18"/>
<polygon fill="midnightblue" stroke="midnightblue" points="1348.12,-20.93 1337.61,-19.66 1345.04,-27.21 1348.12,-20.93"/>
</g>
<!-- Node16&#45;&gt;Node11 -->
<g id="edge20" class="edge">
<title>Node16&#45;&gt;Node11</title>
<path fill="none" stroke="midnightblue" d="M1391.5,-56.47C1354.64,-46.03 1304.97,-31.96 1270.69,-22.25"/>
<polygon fill="midnightblue" stroke="midnightblue" points="1271.6,-18.87 1261.02,-19.51 1269.69,-25.6 1271.6,-18.87"/>
</g>
<!-- Node17 -->
<g id="node17" class="node">
<title>Node17</title>
<g id="a_node17"><a xlink:title=" ">
<polygon fill="white" stroke="#bfbfbf" points="1436,-0.5 1436,-19.5 1488,-19.5 1488,-0.5 1436,-0.5"/>
<text text-anchor="middle" x="1462" y="-7.5" font-family="Helvetica,sans-Serif" font-size="10.00">stdarg.h</text>
</a>
</g>
</g>
<!-- Node16&#45;&gt;Node17 -->
<g id="edge17" class="edge">
<title>Node16&#45;&gt;Node17</title>
<path fill="none" stroke="midnightblue" d="M1445.98,-56.4C1448.84,-48.29 1452.47,-38.01 1455.55,-29.28"/>
<polygon fill="midnightblue" stroke="midnightblue" points="1458.92,-30.25 1458.94,-19.66 1452.32,-27.92 1458.92,-30.25"/>
</g>
<!-- Node18 -->
<g id="node18" class="node">
<title>Node18</title>
<g id="a_node18"><a xlink:title=" ">
<polygon fill="white" stroke="#bfbfbf" points="1370,-0.5 1370,-19.5 1418,-19.5 1418,-0.5 1370,-0.5"/>
<text text-anchor="middle" x="1394" y="-7.5" font-family="Helvetica,sans-Serif" font-size="10.00">stdlib.h</text>
</a>
</g>
</g>
<!-- Node16&#45;&gt;Node18 -->
<g id="edge18" class="edge">
<title>Node16&#45;&gt;Node18</title>
<path fill="none" stroke="midnightblue" d="M1429.86,-56.4C1423.03,-47.75 1414.26,-36.64 1407.09,-27.58"/>
<polygon fill="midnightblue" stroke="midnightblue" points="1409.78,-25.34 1400.84,-19.66 1404.29,-29.67 1409.78,-25.34"/>
</g>
<!-- Node19 -->
<g id="node19" class="node">
<title>Node19</title>
<g id="a_node19"><a xlink:title=" ">
<polygon fill="white" stroke="#bfbfbf" points="1772,-0.5 1772,-19.5 1846,-19.5 1846,-0.5 1772,-0.5"/>
<text text-anchor="middle" x="1809" y="-7.5" font-family="Helvetica,sans-Serif" font-size="10.00">glm/vec3.hpp</text>
</a>
</g>
</g>
<!-- Node16&#45;&gt;Node19 -->
<g id="edge21" class="edge">
<title>Node16&#45;&gt;Node19</title>
<path fill="none" stroke="midnightblue" d="M1495.75,-57.78C1498.87,-57.15 1501.97,-56.55 1505,-56 1615.78,-35.76 1647.11,-38.93 1761.98,-20.09"/>
<polygon fill="midnightblue" stroke="midnightblue" points="1762.58,-23.53 1771.87,-18.44 1761.44,-16.63 1762.58,-23.53"/>
</g>
<!-- Node20 -->
<g id="node20" class="node">
<title>Node20</title>
<g id="a_node20"><a xlink:title=" ">
<polygon fill="white" stroke="#bfbfbf" points="1506,-0.5 1506,-19.5 1592,-19.5 1592,-0.5 1506,-0.5"/>
<text text-anchor="middle" x="1549" y="-7.5" font-family="Helvetica,sans-Serif" font-size="10.00">glm/mat4x4.hpp</text>
</a>
</g>
</g>
<!-- Node16&#45;&gt;Node20 -->
<g id="edge22" class="edge">
<title>Node16&#45;&gt;Node20</title>
<path fill="none" stroke="midnightblue" d="M1466.59,-56.4C1484.07,-46.77 1507.09,-34.09 1524.36,-24.58"/>
<polygon fill="midnightblue" stroke="midnightblue" points="1526.22,-27.55 1533.29,-19.66 1522.84,-21.42 1526.22,-27.55"/>
</g>
<!-- Node21 -->
<g id="node21" class="node">
<title>Node21</title>
<g id="a_node21"><a xlink:title=" ">
<polygon fill="white" stroke="#bfbfbf" points="1610.5,-0.5 1610.5,-19.5 1753.5,-19.5 1753.5,-0.5 1610.5,-0.5"/>
<text text-anchor="middle" x="1682" y="-7.5" font-family="Helvetica,sans-Serif" font-size="10.00">glm/gtc/matrix_transform.hpp</text>
</a>
</g>
</g>
<!-- Node16&#45;&gt;Node21 -->
<g id="edge23" class="edge">
<title>Node16&#45;&gt;Node21</title>
<path fill="none" stroke="midnightblue" d="M1495.69,-57C1538.58,-46.41 1597.51,-31.86 1637.53,-21.98"/>
<polygon fill="midnightblue" stroke="midnightblue" points="1638.41,-25.37 1647.28,-19.57 1636.73,-18.57 1638.41,-25.37"/>
</g>
<!-- Node23 -->
<g id="node23" class="node">
<title>Node23</title>
<g id="a_node23"><a xlink:href="_transform_8h.html" target="_top" xlink:title=" ">
<polygon fill="white" stroke="black" points="1678,-196 1678,-215 1746,-215 1746,-196 1678,-196"/>
<text text-anchor="middle" x="1712" y="-203" font-family="Helvetica,sans-Serif" font-size="10.00">Transform.h</text>
</a>
</g>
</g>
<!-- Node22&#45;&gt;Node23 -->
<g id="edge26" class="edge">
<title>Node22&#45;&gt;Node23</title>
<path fill="none" stroke="midnightblue" d="M1618.82,-257.4C1639.24,-246.24 1667.55,-230.78 1687.59,-219.83"/>
<polygon fill="midnightblue" stroke="midnightblue" points="1689.33,-222.87 1696.43,-215.01 1685.97,-216.73 1689.33,-222.87"/>
</g>
<!-- Node23&#45;&gt;Node3 -->
<g id="edge27" class="edge">
<title>Node23&#45;&gt;Node3</title>
<path fill="none" stroke="midnightblue" d="M1677.69,-203.32C1457.41,-195.74 251.13,-154.21 250,-154 160.74,-137.36 109.63,-160.99 57,-87 44.89,-69.98 52.69,-45.55 60.66,-29.02"/>
<polygon fill="midnightblue" stroke="midnightblue" points="63.91,-30.37 65.47,-19.89 57.71,-27.11 63.91,-30.37"/>
</g>
<!-- Node23&#45;&gt;Node5 -->
<g id="edge28" class="edge">
<title>Node23&#45;&gt;Node5</title>
<path fill="none" stroke="midnightblue" d="M1677.72,-201.31C1562.33,-190.1 1189.68,-149.68 1089,-87 1066.53,-73.01 1049.83,-46.69 1040.5,-29"/>
<polygon fill="midnightblue" stroke="midnightblue" points="1043.47,-27.12 1035.87,-19.74 1037.21,-30.25 1043.47,-27.12"/>
</g>
<!-- Node23&#45;&gt;Node19 -->
<g id="edge32" class="edge">
<title>Node23&#45;&gt;Node19</title>
<path fill="none" stroke="midnightblue" d="M1742.56,-195.93C1763.12,-188.43 1788.8,-175.33 1802,-154 1826.02,-115.19 1819.18,-58.48 1813.4,-29.52"/>
<polygon fill="midnightblue" stroke="midnightblue" points="1816.78,-28.58 1811.22,-19.56 1809.94,-30.08 1816.78,-28.58"/>
</g>
<!-- Node23&#45;&gt;Node21 -->
<g id="edge35" class="edge">
<title>Node23&#45;&gt;Node21</title>
<path fill="none" stroke="midnightblue" d="M1681.01,-195.87C1660.6,-188.39 1635.43,-175.34 1623,-154 1597.77,-110.67 1640.71,-54.49 1665.82,-27.24"/>
<polygon fill="midnightblue" stroke="midnightblue" points="1668.58,-29.42 1672.94,-19.76 1663.51,-24.59 1668.58,-29.42"/>
</g>
<!-- Node24 -->
<g id="node24" class="node">
<title>Node24</title>
<g id="a_node24"><a xlink:title=" ">
<polygon fill="white" stroke="#bfbfbf" points="1849,-129 1849,-148 1919,-148 1919,-129 1849,-129"/>
<text text-anchor="middle" x="1884" y="-136" font-family="Helvetica,sans-Serif" font-size="10.00">glm/glm.hpp</text>
</a>
</g>
</g>
<!-- Node23&#45;&gt;Node24 -->
<g id="edge29" class="edge">
<title>Node23&#45;&gt;Node24</title>
<path fill="none" stroke="midnightblue" d="M1734.84,-195.87C1764.87,-184.52 1817.78,-164.52 1851.84,-151.65"/>
<polygon fill="midnightblue" stroke="midnightblue" points="1853.22,-154.87 1861.34,-148.06 1850.75,-148.32 1853.22,-154.87"/>
</g>
<!-- Node25 -->
<g id="node25" class="node">
<title>Node25</title>
<g id="a_node25"><a xlink:title=" ">
<polygon fill="white" stroke="#bfbfbf" points="1937,-129 1937,-148 2029,-148 2029,-129 1937,-129"/>
<text text-anchor="middle" x="1983" y="-136" font-family="Helvetica,sans-Serif" font-size="10.00">glm/common.hpp</text>
</a>
</g>
</g>
<!-- Node23&#45;&gt;Node25 -->
<g id="edge30" class="edge">
<title>Node23&#45;&gt;Node25</title>
<path fill="none" stroke="midnightblue" d="M1746.12,-196.84C1788.75,-187.19 1863.91,-169.94 1928,-154 1932.38,-152.91 1936.94,-151.75 1941.49,-150.58"/>
<polygon fill="midnightblue" stroke="midnightblue" points="1942.54,-153.92 1951.34,-148.01 1940.78,-147.14 1942.54,-153.92"/>
</g>
<!-- Node26 -->
<g id="node26" class="node">
<title>Node26</title>
<g id="a_node26"><a xlink:title=" ">
<polygon fill="white" stroke="#bfbfbf" points="2047.5,-129 2047.5,-148 2128.5,-148 2128.5,-129 2047.5,-129"/>
<text text-anchor="middle" x="2088" y="-136" font-family="Helvetica,sans-Serif" font-size="10.00">glm/matrix.hpp</text>
</a>
</g>
</g>
<!-- Node23&#45;&gt;Node26 -->
<g id="edge31" class="edge">
<title>Node23&#45;&gt;Node26</title>
<path fill="none" stroke="midnightblue" d="M1746.06,-200.69C1805.67,-193.69 1932.6,-177.35 2038,-154 2042.22,-153.07 2046.61,-151.97 2050.95,-150.82"/>
<polygon fill="midnightblue" stroke="midnightblue" points="2052.22,-154.1 2060.92,-148.04 2050.34,-147.35 2052.22,-154.1"/>
</g>
<!-- Node27 -->
<g id="node27" class="node">
<title>Node27</title>
<g id="a_node27"><a xlink:title=" ">
<polygon fill="white" stroke="#bfbfbf" points="2147,-129 2147,-148 2263,-148 2263,-129 2147,-129"/>
<text text-anchor="middle" x="2205" y="-136" font-family="Helvetica,sans-Serif" font-size="10.00">glm/gtc/quaternion.hpp</text>
</a>
</g>
</g>
<!-- Node23&#45;&gt;Node27 -->
<g id="edge33" class="edge">
<title>Node23&#45;&gt;Node27</title>
<path fill="none" stroke="midnightblue" d="M1746.12,-201.57C1818.59,-195.09 1993.1,-178.21 2138,-154 2144.7,-152.88 2151.75,-151.54 2158.65,-150.13"/>
<polygon fill="midnightblue" stroke="midnightblue" points="2159.54,-153.52 2168.61,-148.03 2158.1,-146.67 2159.54,-153.52"/>
</g>
<!-- Node28 -->
<g id="node28" class="node">
<title>Node28</title>
<g id="a_node28"><a xlink:title=" ">
<polygon fill="white" stroke="#bfbfbf" points="2281,-129 2281,-148 2397,-148 2397,-129 2281,-129"/>
<text text-anchor="middle" x="2339" y="-136" font-family="Helvetica,sans-Serif" font-size="10.00">glm/gtx/quaternion.hpp</text>
</a>
</g>
</g>
<!-- Node23&#45;&gt;Node28 -->
<g id="edge34" class="edge">
<title>Node23&#45;&gt;Node28</title>
<path fill="none" stroke="midnightblue" d="M1746.27,-202.88C1834.08,-198.42 2074.18,-184.21 2272,-154 2278.88,-152.95 2286.11,-151.62 2293.17,-150.2"/>
<polygon fill="midnightblue" stroke="midnightblue" points="2294.27,-153.55 2303.34,-148.07 2292.83,-146.7 2294.27,-153.55"/>
</g>
<!-- Node29 -->
<g id="node29" class="node">
<title>Node29</title>
<g id="a_node29"><a xlink:href="_transform_8hpp.html" target="_top" xlink:title=" ">
<polygon fill="white" stroke="black" points="1631.5,-129 1631.5,-148 1792.5,-148 1792.5,-129 1631.5,-129"/>
<text text-anchor="middle" x="1712" y="-136" font-family="Helvetica,sans-Serif" font-size="10.00">kryne&#45;engine/Math/Transform.hpp</text>
</a>
</g>
</g>
<!-- Node23&#45;&gt;Node29 -->
<g id="edge36" class="edge">
<title>Node23&#45;&gt;Node29</title>
<path fill="none" stroke="midnightblue" d="M1712,-195.73C1712,-186.18 1712,-170.62 1712,-158.28"/>
<polygon fill="midnightblue" stroke="midnightblue" points="1715.5,-158.13 1712,-148.13 1708.5,-158.13 1715.5,-158.13"/>
</g>
<!-- Node31 -->
<g id="node31" class="node">
<title>Node31</title>
<g id="a_node31"><a xlink:href="_entity_8h.html" target="_top" xlink:title=" ">
<polygon fill="white" stroke="black" points="730,-129 730,-148 862,-148 862,-129 730,-129"/>
<text text-anchor="middle" x="796" y="-136" font-family="Helvetica,sans-Serif" font-size="10.00">kryne&#45;engine/Core/Entity.h</text>
</a>
</g>
</g>
<!-- Node23&#45;&gt;Node31 -->
<g id="edge39" class="edge">
<title>Node23&#45;&gt;Node31</title>
<path fill="none" stroke="midnightblue" d="M1677.99,-203.52C1564.94,-199.86 1192.67,-185.57 887,-154 875.07,-152.77 862.38,-151.16 850.36,-149.47"/>
<polygon fill="midnightblue" stroke="midnightblue" points="850.85,-146 840.45,-148.03 849.85,-152.93 850.85,-146"/>
</g>
<!-- Node29&#45;&gt;Node19 -->
<g id="edge37" class="edge">
<title>Node29&#45;&gt;Node19</title>
<path fill="none" stroke="midnightblue" d="M1706.79,-128.8C1698.01,-112.92 1682.68,-78.74 1698,-56 1706.26,-43.74 1739.61,-31.21 1767.61,-22.5"/>
<polygon fill="midnightblue" stroke="midnightblue" points="1768.69,-25.83 1777.25,-19.58 1766.66,-19.13 1768.69,-25.83"/>
</g>
<!-- Node30 -->
<g id="node30" class="node">
<title>Node30</title>
<g id="a_node30"><a xlink:title=" ">
<polygon fill="white" stroke="#bfbfbf" points="1707,-62 1707,-81 1793,-81 1793,-62 1707,-62"/>
<text text-anchor="middle" x="1750" y="-69" font-family="Helvetica,sans-Serif" font-size="10.00">glm/mat3x3.hpp</text>
</a>
</g>
</g>
<!-- Node29&#45;&gt;Node30 -->
<g id="edge38" class="edge">
<title>Node29&#45;&gt;Node30</title>
<path fill="none" stroke="midnightblue" d="M1717.12,-128.73C1722.94,-118.79 1732.56,-102.34 1739.89,-89.79"/>
<polygon fill="midnightblue" stroke="midnightblue" points="1742.93,-91.53 1744.96,-81.13 1736.89,-87.99 1742.93,-91.53"/>
</g>
<!-- Node31&#45;&gt;Node5 -->
<g id="edge41" class="edge">
<title>Node31&#45;&gt;Node5</title>
<path fill="none" stroke="midnightblue" d="M791.8,-128.69C784.67,-112.32 772.59,-76.95 790,-56 803.4,-39.88 938.34,-22.05 1000.7,-14.59"/>
<polygon fill="midnightblue" stroke="midnightblue" points="1001.24,-18.05 1010.76,-13.4 1000.42,-11.1 1001.24,-18.05"/>
</g>
<!-- Node31&#45;&gt;Node6 -->
<g id="edge42" class="edge">
<title>Node31&#45;&gt;Node6</title>
<path fill="none" stroke="midnightblue" d="M755.42,-128.98C716.7,-119.93 662.49,-104.53 650,-87 642.01,-75.78 643.48,-68.14 650,-56 657.62,-41.82 671.9,-31.35 685.41,-24.1"/>
<polygon fill="midnightblue" stroke="midnightblue" points="687.13,-27.16 694.55,-19.59 684.03,-20.88 687.13,-27.16"/>
</g>
<!-- Node31&#45;&gt;Node23 -->
<g id="edge43" class="edge">
<title>Node31&#45;&gt;Node23</title>
<path fill="none" stroke="midnightblue" d="M857.73,-148.03C873.22,-150.23 889.73,-152.42 905,-154 1195.5,-184 1546.15,-198.4 1667.93,-202.89"/>
<polygon fill="midnightblue" stroke="midnightblue" points="1667.87,-206.39 1677.99,-203.26 1668.13,-199.4 1667.87,-206.39"/>
</g>
<!-- Node32 -->
<g id="node32" class="node">
<title>Node32</title>
<g id="a_node32"><a xlink:title=" ">
<polygon fill="white" stroke="#bfbfbf" points="659,-62 659,-81 705,-81 705,-62 659,-62"/>
<text text-anchor="middle" x="682" y="-69" font-family="Helvetica,sans-Serif" font-size="10.00">atomic</text>
</a>
</g>
</g>
<!-- Node31&#45;&gt;Node32 -->
<g id="edge40" class="edge">
<title>Node31&#45;&gt;Node32</title>
<path fill="none" stroke="midnightblue" d="M780.63,-128.73C761.48,-117.82 728.56,-99.05 706.06,-86.22"/>
<polygon fill="midnightblue" stroke="midnightblue" points="707.55,-83.04 697.13,-81.13 704.08,-89.12 707.55,-83.04"/>
</g>
<!-- Node33 -->
<g id="node33" class="node">
<title>Node33</title>
<g id="a_node33"><a xlink:href="_component_8h.html" target="_top" xlink:title=" ">
<polygon fill="white" stroke="black" points="799,-62 799,-81 873,-81 873,-62 799,-62"/>
<text text-anchor="middle" x="836" y="-69" font-family="Helvetica,sans-Serif" font-size="10.00">Component.h</text>
</a>
</g>
</g>
<!-- Node31&#45;&gt;Node33 -->
<g id="edge44" class="edge">
<title>Node31&#45;&gt;Node33</title>
<path fill="none" stroke="midnightblue" d="M796.61,-128.73C800.67,-118.7 810.53,-102.01 819.58,-89.42"/>
<polygon fill="midnightblue" stroke="midnightblue" points="822.63,-91.19 825.93,-81.13 817.07,-86.94 822.63,-91.19"/>
</g>
<!-- Node34 -->
<g id="node34" class="node">
<title>Node34</title>
<g id="a_node34"><a xlink:href="_process_8h.html" target="_top" xlink:title=" ">
<polygon fill="white" stroke="black" points="125.5,-62 125.5,-81 186.5,-81 186.5,-62 125.5,-62"/>
<text text-anchor="middle" x="156" y="-69" font-family="Helvetica,sans-Serif" font-size="10.00">Process.h</text>
</a>
</g>
</g>
<!-- Node31&#45;&gt;Node34 -->
<g id="edge47" class="edge">
<title>Node31&#45;&gt;Node34</title>
<path fill="none" stroke="midnightblue" d="M748.21,-128.99C736.33,-126.74 723.7,-124.53 712,-123 480.08,-92.75 415.83,-135.32 187,-87 183.85,-86.33 180.61,-85.48 177.45,-84.51"/>
<polygon fill="midnightblue" stroke="midnightblue" points="178.43,-81.14 167.83,-81.15 176.12,-87.75 178.43,-81.14"/>
</g>
<!-- Node33&#45;&gt;Node5 -->
<g id="edge45" class="edge">
<title>Node33&#45;&gt;Node5</title>
<path fill="none" stroke="midnightblue" d="M863.22,-61.85C869.39,-59.91 875.92,-57.87 882,-56 923.09,-43.36 970.65,-29.17 1001.01,-20.16"/>
<polygon fill="midnightblue" stroke="midnightblue" points="1002.02,-23.51 1010.61,-17.32 1000.03,-16.8 1002.02,-23.51"/>
</g>
<!-- Node33&#45;&gt;Node31 -->
<g id="edge46" class="edge">
<title>Node33&#45;&gt;Node31</title>
<path fill="none" stroke="midnightblue" d="M835.45,-81.13C831.4,-91.2 821.41,-108.1 812.28,-120.77"/>
<polygon fill="midnightblue" stroke="midnightblue" points="809.49,-118.67 806.18,-128.73 815.04,-122.92 809.49,-118.67"/>
</g>
<!-- Node34&#45;&gt;Node3 -->
<g id="edge48" class="edge">
<title>Node34&#45;&gt;Node3</title>
<path fill="none" stroke="midnightblue" d="M143.82,-61.98C130.19,-52.43 107.87,-36.81 91.53,-25.37"/>
<polygon fill="midnightblue" stroke="midnightblue" points="93.36,-22.38 83.16,-19.51 89.34,-28.11 93.36,-22.38"/>
</g>
<!-- Node34&#45;&gt;Node31 -->
<g id="edge50" class="edge">
<title>Node34&#45;&gt;Node31</title>
<path fill="none" stroke="midnightblue" d="M185.05,-81.15C191.62,-83.43 198.5,-85.63 205,-87 433.83,-135.32 498.08,-92.75 730,-123 738.32,-124.09 747.11,-125.52 755.49,-127.07"/>
<polygon fill="midnightblue" stroke="midnightblue" points="754.97,-130.53 765.46,-128.99 756.3,-123.66 754.97,-130.53"/>
</g>
<!-- Node35 -->
<g id="node35" class="node">
<title>Node35</title>
<g id="a_node35"><a xlink:title=" ">
<polygon fill="white" stroke="#bfbfbf" points="233.5,-0.5 233.5,-19.5 316.5,-19.5 316.5,-0.5 233.5,-0.5"/>
<text text-anchor="middle" x="275" y="-7.5" font-family="Helvetica,sans-Serif" font-size="10.00">unordered_map</text>
</a>
</g>
</g>
<!-- Node34&#45;&gt;Node35 -->
<g id="edge49" class="edge">
<title>Node34&#45;&gt;Node35</title>
<path fill="none" stroke="midnightblue" d="M173.05,-61.98C192.84,-52.08 225.72,-35.64 248.77,-24.12"/>
<polygon fill="midnightblue" stroke="midnightblue" points="250.6,-27.11 257.98,-19.51 247.47,-20.85 250.6,-27.11"/>
</g>
<!-- Node37 -->
<g id="node37" class="node">
<title>Node37</title>
<g id="a_node37"><a xlink:href="kryne-engine_2_material_2_material_8h.html" target="_top" xlink:title=" ">
<polygon fill="white" stroke="black" points="436,-190.5 436,-220.5 546,-220.5 546,-190.5 436,-190.5"/>
<text text-anchor="start" x="444" y="-208.5" font-family="Helvetica,sans-Serif" font-size="10.00">kryne&#45;engine/Material</text>
<text text-anchor="middle" x="491" y="-197.5" font-family="Helvetica,sans-Serif" font-size="10.00">/Material.h</text>
</a>
</g>
</g>
<!-- Node36&#45;&gt;Node37 -->
<g id="edge52" class="edge">
<title>Node36&#45;&gt;Node37</title>
<path fill="none" stroke="midnightblue" d="M491,-257.4C491,-249.64 491,-239.81 491,-230.86"/>
<polygon fill="midnightblue" stroke="midnightblue" points="494.5,-230.58 491,-220.58 487.5,-230.58 494.5,-230.58"/>
</g>
<!-- Node36&#45;&gt;Node61 -->
<g id="edge65" class="edge">
<title>Node36&#45;&gt;Node61</title>
<path fill="none" stroke="midnightblue" d="M542.35,-257.48C578.98,-247.47 628.41,-233.97 667.2,-223.38"/>
<polygon fill="midnightblue" stroke="midnightblue" points="668.61,-226.62 677.33,-220.61 666.76,-219.87 668.61,-226.62"/>
</g>
<!-- Node38 -->
<g id="node38" class="node">
<title>Node38</title>
<g id="a_node38"><a xlink:href="_material_side_8h.html" target="_top" xlink:title=" ">
<polygon fill="white" stroke="black" points="608,-123.5 608,-153.5 712,-153.5 712,-123.5 608,-123.5"/>
<text text-anchor="start" x="616" y="-141.5" font-family="Helvetica,sans-Serif" font-size="10.00">kryne&#45;engine/enums</text>
<text text-anchor="middle" x="660" y="-130.5" font-family="Helvetica,sans-Serif" font-size="10.00">/MaterialSide.h</text>
</a>
</g>
</g>
<!-- Node37&#45;&gt;Node38 -->
<g id="edge53" class="edge">
<title>Node37&#45;&gt;Node38</title>
<path fill="none" stroke="midnightblue" d="M527.67,-190.4C552.92,-180.69 586.66,-167.71 613.75,-157.29"/>
<polygon fill="midnightblue" stroke="midnightblue" points="615.32,-160.43 623.4,-153.58 612.81,-153.9 615.32,-160.43"/>
</g>
<!-- Node39 -->
<g id="node39" class="node">
<title>Node39</title>
<g id="a_node39"><a xlink:href="_shader_program_compiler_8h.html" target="_top" xlink:title=" ">
<polygon fill="white" stroke="black" points="259,-123.5 259,-153.5 393,-153.5 393,-123.5 259,-123.5"/>
<text text-anchor="start" x="267" y="-141.5" font-family="Helvetica,sans-Serif" font-size="10.00">kryne&#45;engine/Rendering</text>
<text text-anchor="middle" x="326" y="-130.5" font-family="Helvetica,sans-Serif" font-size="10.00">/ShaderProgramCompiler.h</text>
</a>
</g>
</g>
<!-- Node37&#45;&gt;Node39 -->
<g id="edge54" class="edge">
<title>Node37&#45;&gt;Node39</title>
<path fill="none" stroke="midnightblue" d="M455.2,-190.4C430.55,-180.69 397.61,-167.71 371.16,-157.29"/>
<polygon fill="midnightblue" stroke="midnightblue" points="372.32,-153.99 361.73,-153.58 369.75,-160.5 372.32,-153.99"/>
</g>
<!-- Node40 -->
<g id="node40" class="node">
<title>Node40</title>
<g id="a_node40"><a xlink:title=" ">
<polygon fill="white" stroke="#bfbfbf" points="66.5,-62 66.5,-81 107.5,-81 107.5,-62 66.5,-62"/>
<text text-anchor="middle" x="87" y="-69" font-family="Helvetica,sans-Serif" font-size="10.00">regex</text>
</a>
</g>
</g>
<!-- Node39&#45;&gt;Node40 -->
<g id="edge55" class="edge">
<title>Node39&#45;&gt;Node40</title>
<path fill="none" stroke="midnightblue" d="M258.65,-125.37C216.88,-116.86 162.5,-103.96 116,-87 114.61,-86.49 113.2,-85.94 111.79,-85.35"/>
<polygon fill="midnightblue" stroke="midnightblue" points="113.21,-82.15 102.67,-81.15 110.29,-88.51 113.21,-82.15"/>
</g>
<!-- Node41 -->
<g id="node41" class="node">
<title>Node41</title>
<g id="a_node41"><a xlink:href="_shader_8h.html" target="_top" xlink:title=" ">
<polygon fill="white" stroke="red" points="205,-56.5 205,-86.5 315,-86.5 315,-56.5 205,-56.5"/>
<text text-anchor="start" x="213" y="-74.5" font-family="Helvetica,sans-Serif" font-size="10.00">kryne&#45;engine/Material</text>
<text text-anchor="middle" x="260" y="-63.5" font-family="Helvetica,sans-Serif" font-size="10.00">/Shader.h</text>
</a>
</g>
</g>
<!-- Node39&#45;&gt;Node41 -->
<g id="edge56" class="edge">
<title>Node39&#45;&gt;Node41</title>
<path fill="none" stroke="midnightblue" d="M311.68,-123.4C302.86,-114.71 291.38,-103.4 281.48,-93.66"/>
<polygon fill="midnightblue" stroke="midnightblue" points="283.87,-91.1 274.29,-86.58 278.96,-96.09 283.87,-91.1"/>
</g>
<!-- Node56 -->
<g id="node43" class="node">
<title>Node56</title>
<g id="a_node43"><a xlink:href="_buffer_geometry_8h.html" target="_top" xlink:title=" ">
<polygon fill="white" stroke="red" points="333,-56.5 333,-86.5 451,-86.5 451,-56.5 333,-56.5"/>
<text text-anchor="start" x="341" y="-74.5" font-family="Helvetica,sans-Serif" font-size="10.00">kryne&#45;engine/Geometry</text>
<text text-anchor="middle" x="392" y="-63.5" font-family="Helvetica,sans-Serif" font-size="10.00">/BufferGeometry.h</text>
</a>
</g>
</g>
<!-- Node39&#45;&gt;Node56 -->
<g id="edge59" class="edge">
<title>Node39&#45;&gt;Node56</title>
<path fill="none" stroke="midnightblue" d="M340.32,-123.4C349.14,-114.71 360.62,-103.4 370.52,-93.66"/>
<polygon fill="midnightblue" stroke="midnightblue" points="373.04,-96.09 377.71,-86.58 368.13,-91.1 373.04,-96.09"/>
</g>
<!-- Node41&#45;&gt;Node13 -->
<g id="edge57" class="edge">
<title>Node41&#45;&gt;Node13</title>
<path fill="none" stroke="midnightblue" d="M315.06,-57.5C318.08,-56.95 321.07,-56.45 324,-56 377.72,-47.83 757.59,-20.54 864.22,-12.96"/>
<polygon fill="midnightblue" stroke="midnightblue" points="864.49,-16.45 874.22,-12.26 864,-9.47 864.49,-16.45"/>
</g>
<!-- Node42 -->
<g id="node42" class="node">
<title>Node42</title>
<g id="a_node42"><a xlink:title=" ">
<polygon fill="white" stroke="#bfbfbf" points="163,-0.5 163,-19.5 215,-19.5 215,-0.5 163,-0.5"/>
<text text-anchor="middle" x="189" y="-7.5" font-family="Helvetica,sans-Serif" font-size="10.00">sstream</text>
</a>
</g>
</g>
<!-- Node41&#45;&gt;Node42 -->
<g id="edge58" class="edge">
<title>Node41&#45;&gt;Node42</title>
<path fill="none" stroke="midnightblue" d="M243.17,-56.4C232.33,-47.31 218.22,-35.49 207.13,-26.19"/>
<polygon fill="midnightblue" stroke="midnightblue" points="209.24,-23.4 199.33,-19.66 204.75,-28.76 209.24,-23.4"/>
</g>
<!-- Node56&#45;&gt;Node3 -->
<g id="edge60" class="edge">
<title>Node56&#45;&gt;Node3</title>
<path fill="none" stroke="midnightblue" d="M332.69,-57.73C329.75,-57.13 326.84,-56.56 324,-56 247.11,-40.97 156.65,-25.38 107.43,-17.08"/>
<polygon fill="midnightblue" stroke="midnightblue" points="107.72,-13.58 97.28,-15.37 106.56,-20.48 107.72,-13.58"/>
</g>
<!-- Node56&#45;&gt;Node9 -->
<g id="edge61" class="edge">
<title>Node56&#45;&gt;Node9</title>
<path fill="none" stroke="midnightblue" d="M449.73,-56.42C488.7,-46.9 541.56,-33.96 596.89,-20.27"/>
<polygon fill="midnightblue" stroke="midnightblue" points="598.01,-23.6 606.88,-17.79 596.33,-16.8 598.01,-23.6"/>
</g>
<!-- Node56&#45;&gt;Node19 -->
<g id="edge64" class="edge">
<title>Node56&#45;&gt;Node19</title>
<path fill="none" stroke="midnightblue" d="M451.23,-57.2C454.19,-56.75 457.12,-56.34 460,-56 1031.87,12.29 1185.4,-82.71 1761.69,-19.93"/>
<polygon fill="midnightblue" stroke="midnightblue" points="1762.37,-23.37 1771.92,-18.8 1761.6,-16.42 1762.37,-23.37"/>
</g>
<!-- Node56&#45;&gt;Node35 -->
<g id="edge62" class="edge">
<title>Node56&#45;&gt;Node35</title>
<path fill="none" stroke="midnightblue" d="M364.27,-56.4C345.17,-46.68 319.94,-33.86 301.18,-24.31"/>
<polygon fill="midnightblue" stroke="midnightblue" points="302.52,-21.07 292.02,-19.66 299.35,-27.31 302.52,-21.07"/>
</g>
<!-- Node49 -->
<g id="node44" class="node">
<title>Node49</title>
<g id="a_node44"><a xlink:title=" ">
<polygon fill="white" stroke="#bfbfbf" points="335,-0.5 335,-19.5 409,-19.5 409,-0.5 335,-0.5"/>
<text text-anchor="middle" x="372" y="-7.5" font-family="Helvetica,sans-Serif" font-size="10.00">glm/vec2.hpp</text>
</a>
</g>
</g>
<!-- Node56&#45;&gt;Node49 -->
<g id="edge63" class="edge">
<title>Node56&#45;&gt;Node49</title>
<path fill="none" stroke="midnightblue" d="M387.26,-56.4C384.53,-48.29 381.08,-38.01 378.14,-29.28"/>
<polygon fill="midnightblue" stroke="midnightblue" points="381.41,-28.02 374.91,-19.66 374.78,-30.25 381.41,-28.02"/>
</g>
<!-- Node61&#45;&gt;Node3 -->
<g id="edge66" class="edge">
<title>Node61&#45;&gt;Node3</title>
<path fill="none" stroke="midnightblue" d="M674.16,-199.71C639.91,-196.78 594.9,-193.01 555,-190 496.03,-185.54 64.38,-197.21 24,-154 -5.74,-122.18 6.9,-96.06 24,-56 29.15,-43.95 39.28,-33.58 48.83,-25.84"/>
<polygon fill="midnightblue" stroke="midnightblue" points="51.04,-28.55 56.92,-19.74 46.83,-22.96 51.04,-28.55"/>
</g>
<!-- Node61&#45;&gt;Node31 -->
<g id="edge67" class="edge">
<title>Node61&#45;&gt;Node31</title>
<path fill="none" stroke="midnightblue" d="M743.54,-190.4C754.19,-180.06 768.66,-166.02 779.7,-155.31"/>
<polygon fill="midnightblue" stroke="midnightblue" points="782.3,-157.67 787.04,-148.19 777.42,-152.65 782.3,-157.67"/>
</g>
<!-- Node62 -->
<g id="node46" class="node">
<title>Node62</title>
<g id="a_node46"><a xlink:href="_projection_data_8hpp.html" target="_top" xlink:title=" ">
<polygon fill="white" stroke="black" points="1513.5,-62 1513.5,-81 1612.5,-81 1612.5,-62 1513.5,-62"/>
<text text-anchor="middle" x="1563" y="-69" font-family="Helvetica,sans-Serif" font-size="10.00">ProjectionData.hpp</text>
</a>
</g>
</g>
<!-- Node61&#45;&gt;Node62 -->
<g id="edge68" class="edge">
<title>Node61&#45;&gt;Node62</title>
<path fill="none" stroke="midnightblue" d="M783.88,-198.01C911.23,-182.54 1236.45,-140.77 1505,-87 1510.34,-85.93 1515.93,-84.69 1521.45,-83.39"/>
<polygon fill="midnightblue" stroke="midnightblue" points="1522.32,-86.78 1531.21,-81.02 1520.67,-79.98 1522.32,-86.78"/>
</g>
<!-- Node62&#45;&gt;Node20 -->
<g id="edge69" class="edge">
<title>Node62&#45;&gt;Node20</title>
<path fill="none" stroke="midnightblue" d="M1560.99,-61.98C1559,-53.49 1555.87,-40.2 1553.31,-29.32"/>
<polygon fill="midnightblue" stroke="midnightblue" points="1556.7,-28.44 1551,-19.51 1549.89,-30.04 1556.7,-28.44"/>
</g>
<!-- Node62&#45;&gt;Node21 -->
<g id="edge70" class="edge">
<title>Node62&#45;&gt;Node21</title>
<path fill="none" stroke="midnightblue" d="M1580.05,-61.98C1599.84,-52.08 1632.72,-35.64 1655.77,-24.12"/>
<polygon fill="midnightblue" stroke="midnightblue" points="1657.6,-27.11 1664.98,-19.51 1654.47,-20.85 1657.6,-27.11"/>
</g>
<!-- Node63&#45;&gt;Node3 -->
<g id="edge77" class="edge">
<title>Node63&#45;&gt;Node3</title>
<path fill="none" stroke="midnightblue" d="M468.9,-57.78C465.9,-57.14 462.91,-56.54 460,-56 425.75,-49.69 197.15,-24.66 107.23,-14.91"/>
<polygon fill="midnightblue" stroke="midnightblue" points="107.54,-11.42 97.22,-13.83 106.79,-18.38 107.54,-11.42"/>
</g>
<!-- Node63&#45;&gt;Node6 -->
<g id="edge74" class="edge">
<title>Node63&#45;&gt;Node6</title>
<path fill="none" stroke="midnightblue" d="M564.38,-56.47C599.51,-46.08 646.79,-32.08 679.58,-22.37"/>
<polygon fill="midnightblue" stroke="midnightblue" points="680.67,-25.7 689.26,-19.51 678.68,-18.99 680.67,-25.7"/>
</g>
<!-- Node63&#45;&gt;Node9 -->
<g id="edge76" class="edge">
<title>Node63&#45;&gt;Node9</title>
<path fill="none" stroke="midnightblue" d="M544.73,-56.4C563.83,-46.68 589.06,-33.86 607.82,-24.31"/>
<polygon fill="midnightblue" stroke="midnightblue" points="609.65,-27.31 616.98,-19.66 606.48,-21.07 609.65,-27.31"/>
</g>
<!-- Node63&#45;&gt;Node10 -->
<g id="edge78" class="edge">
<title>Node63&#45;&gt;Node10</title>
<path fill="none" stroke="midnightblue" d="M565.27,-64.63C590.49,-61.72 621.88,-58.34 650,-56 925.78,-33.09 999.87,-57.55 1277.88,-19.93"/>
<polygon fill="midnightblue" stroke="midnightblue" points="1278.42,-23.38 1287.86,-18.56 1277.48,-16.45 1278.42,-23.38"/>
</g>
<!-- Node63&#45;&gt;Node11 -->
<g id="edge79" class="edge">
<title>Node63&#45;&gt;Node11</title>
<path fill="none" stroke="midnightblue" d="M565.28,-64.75C590.5,-61.87 621.89,-58.48 650,-56 882.84,-35.44 945.16,-49.07 1181.8,-19.86"/>
<polygon fill="midnightblue" stroke="midnightblue" points="1182.26,-23.33 1191.75,-18.62 1181.39,-16.38 1182.26,-23.33"/>
</g>
<!-- Node63&#45;&gt;Node35 -->
<g id="edge75" class="edge">
<title>Node63&#45;&gt;Node35</title>
<path fill="none" stroke="midnightblue" d="M468.81,-58.2C465.83,-57.45 462.87,-56.71 460,-56 412.5,-44.18 358.05,-30.98 320.59,-21.95"/>
<polygon fill="midnightblue" stroke="midnightblue" points="321.03,-18.46 310.49,-19.52 319.4,-25.26 321.03,-18.46"/>
</g>
<!-- Node63&#45;&gt;Node49 -->
<g id="edge81" class="edge">
<title>Node63&#45;&gt;Node49</title>
<path fill="none" stroke="midnightblue" d="M482.64,-56.4C458.31,-46.42 425.97,-33.15 402.54,-23.53"/>
<polygon fill="midnightblue" stroke="midnightblue" points="403.68,-20.22 393.1,-19.66 401.02,-26.69 403.68,-20.22"/>
</g>
<!-- Node64 -->
<g id="node48" class="node">
<title>Node64</title>
<g id="a_node48"><a xlink:title=" ">
<polygon fill="white" stroke="#bfbfbf" points="427,-0.5 427,-19.5 457,-19.5 457,-0.5 427,-0.5"/>
<text text-anchor="middle" x="442" y="-7.5" font-family="Helvetica,sans-Serif" font-size="10.00">set</text>
</a>
</g>
</g>
<!-- Node63&#45;&gt;Node64 -->
<g id="edge73" class="edge">
<title>Node63&#45;&gt;Node64</title>
<path fill="none" stroke="midnightblue" d="M499.23,-56.4C487.65,-47.22 472.58,-35.26 460.8,-25.92"/>
<polygon fill="midnightblue" stroke="midnightblue" points="462.92,-23.13 452.91,-19.66 458.57,-28.61 462.92,-23.13"/>
</g>
<!-- Node65 -->
<g id="node49" class="node">
<title>Node65</title>
<g id="a_node49"><a xlink:title=" ">
<polygon fill="white" stroke="#bfbfbf" points="475,-0.5 475,-19.5 589,-19.5 589,-0.5 475,-0.5"/>
<text text-anchor="middle" x="532" y="-7.5" font-family="Helvetica,sans-Serif" font-size="10.00">boost/lexical_cast.hpp</text>
</a>
</g>
</g>
<!-- Node63&#45;&gt;Node65 -->
<g id="edge80" class="edge">
<title>Node63&#45;&gt;Node65</title>
<path fill="none" stroke="midnightblue" d="M520.55,-56.4C522.58,-48.38 525.13,-38.23 527.32,-29.57"/>
<polygon fill="midnightblue" stroke="midnightblue" points="530.77,-30.21 529.82,-19.66 523.98,-28.5 530.77,-30.21"/>
</g>
<!-- Node66&#45;&gt;Node10 -->
<g id="edge83" class="edge">
<title>Node66&#45;&gt;Node10</title>
<path fill="none" stroke="midnightblue" d="M1235.22,-195.7C1241.06,-185.73 1250.65,-168.93 1258,-154 1279.74,-109.85 1301.88,-56.26 1312.88,-28.93"/>
<polygon fill="midnightblue" stroke="midnightblue" points="1316.18,-30.1 1316.65,-19.51 1309.68,-27.5 1316.18,-30.1"/>
</g>
<!-- Node66&#45;&gt;Node11 -->
<g id="edge84" class="edge">
<title>Node66&#45;&gt;Node11</title>
<path fill="none" stroke="midnightblue" d="M1232.41,-195.76C1238.42,-172.77 1253.02,-108.77 1245,-56 1243.63,-47 1240.81,-37.33 1238.05,-29.26"/>
<polygon fill="midnightblue" stroke="midnightblue" points="1241.31,-27.98 1234.6,-19.78 1234.73,-30.37 1241.31,-27.98"/>
</g>
<!-- Node66&#45;&gt;Node38 -->
<g id="edge85" class="edge">
<title>Node66&#45;&gt;Node38</title>
<path fill="none" stroke="midnightblue" d="M1178.77,-201.7C1088.41,-196.27 894.74,-182.41 722.17,-154.05"/>
<polygon fill="midnightblue" stroke="midnightblue" points="722.59,-150.57 712.15,-152.38 721.44,-157.48 722.59,-150.57"/>
</g>
</g>
</svg>
