<?xml version="1.0" encoding="UTF-8" standalone="no"?>
<!DOCTYPE svg PUBLIC "-//W3C//DTD SVG 1.1//EN"
 "http://www.w3.org/Graphics/SVG/1.1/DTD/svg11.dtd">
<!-- Generated by graphviz version 2.40.1 (20161225.0304)
 -->
<!-- Title: kryne&#45;engine/include/kryne&#45;engine/Rendering/Renderer.h Pages: 1 -->
<svg width="288pt" height="117pt"
 viewBox="0.00 0.00 287.50 117.00" xmlns="http://www.w3.org/2000/svg" xmlns:xlink="http://www.w3.org/1999/xlink">
<g id="graph0" class="graph" transform="scale(1 1) rotate(0) translate(4 113)">
<title>kryne&#45;engine/include/kryne&#45;engine/Rendering/Renderer.h</title>
<polygon fill="#ffffff" stroke="transparent" points="-4,4 -4,-113 283.5,-113 283.5,4 -4,4"/>
<!-- Node109 -->
<g id="node1" class="node">
<title>Node109</title>
<polygon fill="#bfbfbf" stroke="#000000" points="75.5,-67.5 75.5,-108.5 197.5,-108.5 197.5,-67.5 75.5,-67.5"/>
<text text-anchor="start" x="83.5" y="-96.5" font-family="Helvetica,sans-Serif" font-size="10.00" fill="#000000">kryne&#45;engine/include</text>
<text text-anchor="start" x="83.5" y="-85.5" font-family="Helvetica,sans-Serif" font-size="10.00" fill="#000000">/kryne&#45;engine/Rendering</text>
<text text-anchor="middle" x="136.5" y="-74.5" font-family="Helvetica,sans-Serif" font-size="10.00" fill="#000000">/Renderer.h</text>
</g>
<!-- Node110 -->
<g id="node2" class="node">
<title>Node110</title>
<g id="a_node2"><a xlink:href="_rendering_8h.html" target="_top" xlink:title="kryne&#45;engine/include\l/KEModules/Rendering.h">
<polygon fill="#ffffff" stroke="#000000" points="0,-.5 0,-30.5 125,-30.5 125,-.5 0,-.5"/>
<text text-anchor="start" x="8" y="-18.5" font-family="Helvetica,sans-Serif" font-size="10.00" fill="#000000">kryne&#45;engine/include</text>
<text text-anchor="middle" x="62.5" y="-7.5" font-family="Helvetica,sans-Serif" font-size="10.00" fill="#000000">/KEModules/Rendering.h</text>
</a>
</g>
</g>
<!-- Node109&#45;&gt;Node110 -->
<g id="edge1" class="edge">
<title>Node109&#45;&gt;Node110</title>
<path fill="none" stroke="#191970" d="M108.2152,-60.2885C97.9218,-50.2038 86.6743,-39.1843 77.9115,-30.5991"/>
<polygon fill="#191970" stroke="#191970" points="105.9,-62.9201 115.4925,-67.4183 110.7988,-57.9199 105.9,-62.9201"/>
</g>
<!-- Node111 -->
<g id="node3" class="node">
<title>Node111</title>
<g id="a_node3"><a xlink:href="_renderer_8cpp.html" target="_top" xlink:title="kryne&#45;engine/src/Rendering\l/Renderer.cpp">
<polygon fill="#ffffff" stroke="#000000" points="143.5,-.5 143.5,-30.5 279.5,-30.5 279.5,-.5 143.5,-.5"/>
<text text-anchor="start" x="151.5" y="-18.5" font-family="Helvetica,sans-Serif" font-size="10.00" fill="#000000">kryne&#45;engine/src/Rendering</text>
<text text-anchor="middle" x="211.5" y="-7.5" font-family="Helvetica,sans-Serif" font-size="10.00" fill="#000000">/Renderer.cpp</text>
</a>
</g>
</g>
<!-- Node109&#45;&gt;Node111 -->
<g id="edge2" class="edge">
<title>Node109&#45;&gt;Node111</title>
<path fill="none" stroke="#191970" d="M165.1671,-60.2885C175.5995,-50.2038 186.999,-39.1843 195.8802,-30.5991"/>
<polygon fill="#191970" stroke="#191970" points="162.5487,-57.9516 157.7914,-67.4183 167.4139,-62.9846 162.5487,-57.9516"/>
</g>
</g>
</svg>
