<?xml version="1.0" encoding="UTF-8" standalone="no"?>
<!DOCTYPE svg PUBLIC "-//W3C//DTD SVG 1.1//EN"
 "http://www.w3.org/Graphics/SVG/1.1/DTD/svg11.dtd">
<!-- Generated by graphviz version 2.44.1 (20200629.0846)
 -->
<!-- Title: kryne&#45;engine/include/kryne&#45;engine/Rendering/RenderPass.h Pages: 1 -->
<svg width="893pt" height="429pt"
 viewBox="0.00 0.00 892.79 429.00" xmlns="http://www.w3.org/2000/svg" xmlns:xlink="http://www.w3.org/1999/xlink">
<g id="graph0" class="graph" transform="scale(1 1) rotate(0) translate(4 425)">
<title>kryne&#45;engine/include/kryne&#45;engine/Rendering/RenderPass.h</title>
<polygon fill="white" stroke="transparent" points="-4,4 -4,-425 888.79,-425 888.79,4 -4,4"/>
<!-- Node1 -->
<g id="node1" class="node">
<title>Node1</title>
<g id="a_node1"><a xlink:title=" ">
<polygon fill="#bfbfbf" stroke="black" points="308.5,-379.5 308.5,-420.5 430.5,-420.5 430.5,-379.5 308.5,-379.5"/>
<text text-anchor="start" x="316.5" y="-408.5" font-family="Helvetica,sans-Serif" font-size="10.00">kryne&#45;engine/include</text>
<text text-anchor="start" x="316.5" y="-397.5" font-family="Helvetica,sans-Serif" font-size="10.00">/kryne&#45;engine/Rendering</text>
<text text-anchor="middle" x="369.5" y="-386.5" font-family="Helvetica,sans-Serif" font-size="10.00">/RenderPass.h</text>
</a>
</g>
</g>
<!-- Node2 -->
<g id="node2" class="node">
<title>Node2</title>
<g id="a_node2"><a xlink:href="_rendering_8h.html" target="_top" xlink:title=" ">
<polygon fill="white" stroke="black" points="563,-67.5 563,-97.5 688,-97.5 688,-67.5 563,-67.5"/>
<text text-anchor="start" x="571" y="-85.5" font-family="Helvetica,sans-Serif" font-size="10.00">kryne&#45;engine/include</text>
<text text-anchor="middle" x="625.5" y="-74.5" font-family="Helvetica,sans-Serif" font-size="10.00">/KEModules/Rendering.h</text>
</a>
</g>
</g>
<!-- Node1&#45;&gt;Node2 -->
<g id="edge1" class="edge">
<title>Node1&#45;&gt;Node2</title>
<path fill="none" stroke="midnightblue" d="M440.67,-393.09C508.33,-386.03 612.27,-371.42 698.5,-343 781.75,-315.56 828.59,-328.67 874.5,-254 924.52,-172.66 777.12,-120.72 688.04,-97.55"/>
<polygon fill="midnightblue" stroke="midnightblue" points="440.14,-389.62 430.55,-394.12 440.85,-396.59 440.14,-389.62"/>
</g>
<!-- Node3 -->
<g id="node3" class="node">
<title>Node3</title>
<g id="a_node3"><a xlink:href="_hierarchical_node_8h.html" target="_top" xlink:title=" ">
<polygon fill="white" stroke="black" points="307.5,-296 307.5,-337 431.5,-337 431.5,-296 307.5,-296"/>
<text text-anchor="start" x="315.5" y="-325" font-family="Helvetica,sans-Serif" font-size="10.00">kryne&#45;engine/include</text>
<text text-anchor="start" x="315.5" y="-314" font-family="Helvetica,sans-Serif" font-size="10.00">/kryne&#45;engine/3DObjects</text>
<text text-anchor="middle" x="369.5" y="-303" font-family="Helvetica,sans-Serif" font-size="10.00">/HierarchicalNode.h</text>
</a>
</g>
</g>
<!-- Node1&#45;&gt;Node3 -->
<g id="edge2" class="edge">
<title>Node1&#45;&gt;Node3</title>
<path fill="none" stroke="midnightblue" d="M362.97,-369.06C362.53,-358.38 362.75,-346.63 363.64,-337.05"/>
<polygon fill="midnightblue" stroke="midnightblue" points="359.49,-369.52 363.62,-379.27 366.47,-369.07 359.49,-369.52"/>
</g>
<!-- Node13 -->
<g id="node13" class="node">
<title>Node13</title>
<g id="a_node13"><a xlink:href="_main_renderer_8h.html" target="_top" xlink:title=" ">
<polygon fill="white" stroke="black" points="6.5,-212.5 6.5,-253.5 128.5,-253.5 128.5,-212.5 6.5,-212.5"/>
<text text-anchor="start" x="14.5" y="-241.5" font-family="Helvetica,sans-Serif" font-size="10.00">kryne&#45;engine/include</text>
<text text-anchor="start" x="14.5" y="-230.5" font-family="Helvetica,sans-Serif" font-size="10.00">/kryne&#45;engine/Rendering</text>
<text text-anchor="middle" x="67.5" y="-219.5" font-family="Helvetica,sans-Serif" font-size="10.00">/MainRenderer.h</text>
</a>
</g>
</g>
<!-- Node1&#45;&gt;Node13 -->
<g id="edge15" class="edge">
<title>Node1&#45;&gt;Node13</title>
<path fill="none" stroke="midnightblue" d="M324.77,-374.56C264.53,-341.65 158.54,-283.74 103.28,-253.55"/>
<polygon fill="midnightblue" stroke="midnightblue" points="323.22,-377.7 333.67,-379.42 326.57,-371.56 323.22,-377.7"/>
</g>
<!-- Node15 -->
<g id="node15" class="node">
<title>Node15</title>
<g id="a_node15"><a xlink:href="_directional_shadow_map_rendering_8h.html" target="_top" xlink:title=" ">
<polygon fill="white" stroke="black" points="515.5,-290.5 515.5,-342.5 689.5,-342.5 689.5,-290.5 515.5,-290.5"/>
<text text-anchor="start" x="523.5" y="-330.5" font-family="Helvetica,sans-Serif" font-size="10.00">kryne&#45;engine/include</text>
<text text-anchor="start" x="523.5" y="-319.5" font-family="Helvetica,sans-Serif" font-size="10.00">/kryne&#45;engine/Rendering</text>
<text text-anchor="start" x="523.5" y="-308.5" font-family="Helvetica,sans-Serif" font-size="10.00">/ShadowMapping/DirectionalShadow</text>
<text text-anchor="middle" x="602.5" y="-297.5" font-family="Helvetica,sans-Serif" font-size="10.00">MapRendering.h</text>
</a>
</g>
</g>
<!-- Node1&#45;&gt;Node15 -->
<g id="edge19" class="edge">
<title>Node1&#45;&gt;Node15</title>
<path fill="none" stroke="midnightblue" d="M434.8,-376.16C464.69,-365.7 500.19,-353.29 530.81,-342.58"/>
<polygon fill="midnightblue" stroke="midnightblue" points="433.59,-372.87 425.31,-379.48 435.9,-379.48 433.59,-372.87"/>
</g>
<!-- Node3&#45;&gt;Node1 -->
<g id="edge4" class="edge">
<title>Node3&#45;&gt;Node1</title>
<path fill="none" stroke="midnightblue" d="M376.03,-347.23C376.47,-357.9 376.25,-369.66 375.38,-379.27"/>
<polygon fill="midnightblue" stroke="midnightblue" points="379.5,-346.8 375.36,-337.05 372.52,-347.25 379.5,-346.8"/>
</g>
<!-- Node4 -->
<g id="node4" class="node">
<title>Node4</title>
<g id="a_node4"><a xlink:href="3_d_objects_8h.html" target="_top" xlink:title=" ">
<polygon fill="white" stroke="black" points="302,-218 302,-248 429,-248 429,-218 302,-218"/>
<text text-anchor="start" x="310" y="-236" font-family="Helvetica,sans-Serif" font-size="10.00">kryne&#45;engine/include</text>
<text text-anchor="middle" x="365.5" y="-225" font-family="Helvetica,sans-Serif" font-size="10.00">/KEModules/3DObjects.h</text>
</a>
</g>
</g>
<!-- Node3&#45;&gt;Node4 -->
<g id="edge3" class="edge">
<title>Node3&#45;&gt;Node4</title>
<path fill="none" stroke="midnightblue" d="M368.03,-285.53C367.4,-272.76 366.7,-258.47 366.2,-248.18"/>
<polygon fill="midnightblue" stroke="midnightblue" points="364.55,-285.95 368.53,-295.77 371.54,-285.61 364.55,-285.95"/>
</g>
<!-- Node5 -->
<g id="node5" class="node">
<title>Node5</title>
<g id="a_node5"><a xlink:href="_shadow_map_handler_8h.html" target="_top" xlink:title=" ">
<polygon fill="white" stroke="black" points="447.5,-212.5 447.5,-253.5 635.5,-253.5 635.5,-212.5 447.5,-212.5"/>
<text text-anchor="start" x="455.5" y="-241.5" font-family="Helvetica,sans-Serif" font-size="10.00">kryne&#45;engine/include</text>
<text text-anchor="start" x="455.5" y="-230.5" font-family="Helvetica,sans-Serif" font-size="10.00">/kryne&#45;engine/Rendering</text>
<text text-anchor="middle" x="541.5" y="-219.5" font-family="Helvetica,sans-Serif" font-size="10.00">/ShadowMapping/ShadowMapHandler.h</text>
</a>
</g>
</g>
<!-- Node3&#45;&gt;Node5 -->
<g id="edge5" class="edge">
<title>Node3&#45;&gt;Node5</title>
<path fill="none" stroke="midnightblue" d="M419.88,-291.63C445.47,-279.5 476.18,-264.95 500.34,-253.5"/>
<polygon fill="midnightblue" stroke="midnightblue" points="418.24,-288.53 410.7,-295.98 421.23,-294.86 418.24,-288.53"/>
</g>
<!-- Node12 -->
<g id="node12" class="node">
<title>Node12</title>
<g id="a_node12"><a xlink:href="_hierarchical_node_8cpp.html" target="_top" xlink:title=" ">
<polygon fill="white" stroke="black" points="147,-218 147,-248 284,-248 284,-218 147,-218"/>
<text text-anchor="start" x="155" y="-236" font-family="Helvetica,sans-Serif" font-size="10.00">kryne&#45;engine/src/3DObjects</text>
<text text-anchor="middle" x="215.5" y="-225" font-family="Helvetica,sans-Serif" font-size="10.00">/HierarchicalNode.cpp</text>
</a>
</g>
</g>
<!-- Node3&#45;&gt;Node12 -->
<g id="edge14" class="edge">
<title>Node3&#45;&gt;Node12</title>
<path fill="none" stroke="midnightblue" d="M323.47,-291.14C296.86,-277.06 264.32,-259.84 241.96,-248"/>
<polygon fill="midnightblue" stroke="midnightblue" points="322.14,-294.39 332.61,-295.98 325.41,-288.21 322.14,-294.39"/>
</g>
<!-- Node5&#45;&gt;Node2 -->
<g id="edge6" class="edge">
<title>Node5&#45;&gt;Node2</title>
<path fill="none" stroke="midnightblue" d="M579.37,-205.87C589.2,-197.4 598.88,-187.24 605.5,-176 620.18,-151.09 624.13,-116.71 625.16,-97.65"/>
<polygon fill="midnightblue" stroke="midnightblue" points="577.03,-203.26 571.5,-212.3 581.46,-208.68 577.03,-203.26"/>
</g>
<!-- Node6 -->
<g id="node6" class="node">
<title>Node6</title>
<g id="a_node6"><a xlink:href="_render_scene_8h.html" target="_top" xlink:title=" ">
<polygon fill="white" stroke="black" points="219.5,-134.5 219.5,-175.5 341.5,-175.5 341.5,-134.5 219.5,-134.5"/>
<text text-anchor="start" x="227.5" y="-163.5" font-family="Helvetica,sans-Serif" font-size="10.00">kryne&#45;engine/include</text>
<text text-anchor="start" x="227.5" y="-152.5" font-family="Helvetica,sans-Serif" font-size="10.00">/kryne&#45;engine/Rendering</text>
<text text-anchor="middle" x="280.5" y="-141.5" font-family="Helvetica,sans-Serif" font-size="10.00">/RenderScene.h</text>
</a>
</g>
</g>
<!-- Node5&#45;&gt;Node6 -->
<g id="edge7" class="edge">
<title>Node5&#45;&gt;Node6</title>
<path fill="none" stroke="midnightblue" d="M464.5,-209.58C425.32,-198.17 378.35,-184.49 341.68,-173.81"/>
<polygon fill="midnightblue" stroke="midnightblue" points="463.71,-212.99 474.29,-212.43 465.66,-206.27 463.71,-212.99"/>
</g>
<!-- Node11 -->
<g id="node11" class="node">
<title>Node11</title>
<g id="a_node11"><a xlink:href="_shadow_map_handler_8cpp.html" target="_top" xlink:title=" ">
<polygon fill="white" stroke="black" points="398,-140 398,-170 597,-170 597,-140 398,-140"/>
<text text-anchor="start" x="406" y="-158" font-family="Helvetica,sans-Serif" font-size="10.00">kryne&#45;engine/src/Rendering</text>
<text text-anchor="middle" x="497.5" y="-147" font-family="Helvetica,sans-Serif" font-size="10.00">/ShadowMapping/ShadowMapHandler.cpp</text>
</a>
</g>
</g>
<!-- Node5&#45;&gt;Node11 -->
<g id="edge13" class="edge">
<title>Node5&#45;&gt;Node11</title>
<path fill="none" stroke="midnightblue" d="M525.08,-203.64C518.49,-192.25 511.17,-179.62 505.74,-170.23"/>
<polygon fill="midnightblue" stroke="midnightblue" points="522.13,-205.53 530.17,-212.43 528.19,-202.02 522.13,-205.53"/>
</g>
<!-- Node6&#45;&gt;Node2 -->
<g id="edge8" class="edge">
<title>Node6&#45;&gt;Node2</title>
<path fill="none" stroke="midnightblue" d="M351.7,-134.87C352.98,-134.58 354.24,-134.28 355.5,-134 426.08,-118.01 507.86,-103.23 562.75,-93.85"/>
<polygon fill="midnightblue" stroke="midnightblue" points="350.71,-131.51 341.8,-137.25 352.34,-138.32 350.71,-131.51"/>
</g>
<!-- Node7 -->
<g id="node7" class="node">
<title>Node7</title>
<g id="a_node7"><a xlink:href="_process_8h.html" target="_top" xlink:title=" ">
<polygon fill="white" stroke="black" points="127.5,-67.5 127.5,-97.5 273.5,-97.5 273.5,-67.5 127.5,-67.5"/>
<text text-anchor="start" x="135.5" y="-85.5" font-family="Helvetica,sans-Serif" font-size="10.00">kryne&#45;engine/include</text>
<text text-anchor="middle" x="200.5" y="-74.5" font-family="Helvetica,sans-Serif" font-size="10.00">/kryne&#45;engine/Core/Process.h</text>
</a>
</g>
</g>
<!-- Node6&#45;&gt;Node7 -->
<g id="edge9" class="edge">
<title>Node6&#45;&gt;Node7</title>
<path fill="none" stroke="midnightblue" d="M250.49,-127.55C238.98,-117.41 226.29,-106.23 216.58,-97.67"/>
<polygon fill="midnightblue" stroke="midnightblue" points="248.4,-130.38 258.22,-134.36 253.03,-125.12 248.4,-130.38"/>
</g>
<!-- Node10 -->
<g id="node10" class="node">
<title>Node10</title>
<g id="a_node10"><a xlink:href="_render_scene_8cpp.html" target="_top" xlink:title=" ">
<polygon fill="white" stroke="black" points="292,-67.5 292,-97.5 427,-97.5 427,-67.5 292,-67.5"/>
<text text-anchor="start" x="300" y="-85.5" font-family="Helvetica,sans-Serif" font-size="10.00">kryne&#45;engine/src/Rendering</text>
<text text-anchor="middle" x="359.5" y="-74.5" font-family="Helvetica,sans-Serif" font-size="10.00">/RenderScene.cpp</text>
</a>
</g>
</g>
<!-- Node6&#45;&gt;Node10 -->
<g id="edge12" class="edge">
<title>Node6&#45;&gt;Node10</title>
<path fill="none" stroke="midnightblue" d="M310.14,-127.55C321.5,-117.41 334.03,-106.23 343.62,-97.67"/>
<polygon fill="midnightblue" stroke="midnightblue" points="307.64,-125.09 302.51,-134.36 312.3,-130.31 307.64,-125.09"/>
</g>
<!-- Node8 -->
<g id="node8" class="node">
<title>Node8</title>
<g id="a_node8"><a xlink:href="_core_8h.html" target="_top" xlink:title=" ">
<polygon fill="white" stroke="black" points="84.5,-0.5 84.5,-30.5 190.5,-30.5 190.5,-0.5 84.5,-0.5"/>
<text text-anchor="start" x="92.5" y="-18.5" font-family="Helvetica,sans-Serif" font-size="10.00">kryne&#45;engine/include</text>
<text text-anchor="middle" x="137.5" y="-7.5" font-family="Helvetica,sans-Serif" font-size="10.00">/KEModules/Core.h</text>
</a>
</g>
</g>
<!-- Node7&#45;&gt;Node8 -->
<g id="edge10" class="edge">
<title>Node7&#45;&gt;Node8</title>
<path fill="none" stroke="midnightblue" d="M179.69,-60.02C170.3,-50.34 159.48,-39.17 151.14,-30.58"/>
<polygon fill="midnightblue" stroke="midnightblue" points="177.36,-62.65 186.83,-67.4 182.38,-57.78 177.36,-62.65"/>
</g>
<!-- Node9 -->
<g id="node9" class="node">
<title>Node9</title>
<g id="a_node9"><a xlink:href="_process_8cpp.html" target="_top" xlink:title=" ">
<polygon fill="white" stroke="black" points="208.5,-0.5 208.5,-30.5 320.5,-30.5 320.5,-0.5 208.5,-0.5"/>
<text text-anchor="start" x="216.5" y="-18.5" font-family="Helvetica,sans-Serif" font-size="10.00">kryne&#45;engine/src/Core</text>
<text text-anchor="middle" x="264.5" y="-7.5" font-family="Helvetica,sans-Serif" font-size="10.00">/Process.cpp</text>
</a>
</g>
</g>
<!-- Node7&#45;&gt;Node9 -->
<g id="edge11" class="edge">
<title>Node7&#45;&gt;Node9</title>
<path fill="none" stroke="midnightblue" d="M221.65,-60.02C231.18,-50.34 242.17,-39.17 250.64,-30.58"/>
<polygon fill="midnightblue" stroke="midnightblue" points="218.91,-57.81 214.39,-67.4 223.9,-62.73 218.91,-57.81"/>
</g>
<!-- Node13&#45;&gt;Node2 -->
<g id="edge16" class="edge">
<title>Node13&#45;&gt;Node2</title>
<path fill="none" stroke="midnightblue" d="M138.83,-211.91C233.52,-192.78 269.1,-220.61 350.5,-176 372.57,-163.9 366.69,-146.57 388.5,-134 442.27,-103.02 512.76,-90.98 562.84,-86.33"/>
<polygon fill="midnightblue" stroke="midnightblue" points="137.9,-208.53 128.86,-214.05 139.37,-215.37 137.9,-208.53"/>
</g>
<!-- Node13&#45;&gt;Node6 -->
<g id="edge17" class="edge">
<title>Node13&#45;&gt;Node6</title>
<path fill="none" stroke="midnightblue" d="M131.89,-209.03C161.87,-198.33 197.17,-185.73 225.83,-175.51"/>
<polygon fill="midnightblue" stroke="midnightblue" points="130.59,-205.77 122.35,-212.43 132.95,-212.36 130.59,-205.77"/>
</g>
<!-- Node14 -->
<g id="node14" class="node">
<title>Node14</title>
<g id="a_node14"><a xlink:href="_main_renderer_8cpp.html" target="_top" xlink:title=" ">
<polygon fill="white" stroke="black" points="0,-140 0,-170 135,-170 135,-140 0,-140"/>
<text text-anchor="start" x="8" y="-158" font-family="Helvetica,sans-Serif" font-size="10.00">kryne&#45;engine/src/Rendering</text>
<text text-anchor="middle" x="67.5" y="-147" font-family="Helvetica,sans-Serif" font-size="10.00">/MainRenderer.cpp</text>
</a>
</g>
</g>
<!-- Node13&#45;&gt;Node14 -->
<g id="edge18" class="edge">
<title>Node13&#45;&gt;Node14</title>
<path fill="none" stroke="midnightblue" d="M67.5,-202.28C67.5,-191.25 67.5,-179.25 67.5,-170.23"/>
<polygon fill="midnightblue" stroke="midnightblue" points="64,-202.43 67.5,-212.43 71,-202.43 64,-202.43"/>
</g>
<!-- Node15&#45;&gt;Node2 -->
<g id="edge20" class="edge">
<title>Node15&#45;&gt;Node2</title>
<path fill="none" stroke="midnightblue" d="M630.54,-282.11C636.27,-273.47 641.47,-263.82 644.5,-254 661.82,-197.94 641.23,-127.19 630.82,-97.56"/>
<polygon fill="midnightblue" stroke="midnightblue" points="627.61,-280.2 624.69,-290.39 633.32,-284.24 627.61,-280.2"/>
</g>
<!-- Node15&#45;&gt;Node5 -->
<g id="edge21" class="edge">
<title>Node15&#45;&gt;Node5</title>
<path fill="none" stroke="midnightblue" d="M577.35,-281.9C570.15,-272.28 562.54,-262.11 556.19,-253.63"/>
<polygon fill="midnightblue" stroke="midnightblue" points="574.74,-284.25 583.53,-290.16 580.34,-280.06 574.74,-284.25"/>
</g>
<!-- Node16 -->
<g id="node16" class="node">
<title>Node16</title>
<g id="a_node16"><a xlink:href="_directional_shadow_map_rendering_8cpp.html" target="_top" xlink:title=" ">
<polygon fill="white" stroke="black" points="691.5,-212.5 691.5,-253.5 865.5,-253.5 865.5,-212.5 691.5,-212.5"/>
<text text-anchor="start" x="699.5" y="-241.5" font-family="Helvetica,sans-Serif" font-size="10.00">kryne&#45;engine/src/Rendering</text>
<text text-anchor="start" x="699.5" y="-230.5" font-family="Helvetica,sans-Serif" font-size="10.00">/ShadowMapping/DirectionalShadow</text>
<text text-anchor="middle" x="778.5" y="-219.5" font-family="Helvetica,sans-Serif" font-size="10.00">MapRendering.cpp</text>
</a>
</g>
</g>
<!-- Node15&#45;&gt;Node16 -->
<g id="edge22" class="edge">
<title>Node15&#45;&gt;Node16</title>
<path fill="none" stroke="midnightblue" d="M665.89,-286.14C689.25,-275.33 715.12,-263.35 736.17,-253.6"/>
<polygon fill="midnightblue" stroke="midnightblue" points="664.35,-283 656.74,-290.38 667.29,-289.36 664.35,-283"/>
</g>
</g>
</svg>
