<?xml version="1.0" encoding="UTF-8" standalone="no"?>
<!DOCTYPE svg PUBLIC "-//W3C//DTD SVG 1.1//EN"
 "http://www.w3.org/Graphics/SVG/1.1/DTD/svg11.dtd">
<!-- Generated by graphviz version 2.44.1 (20200629.0846)
 -->
<!-- Title: kryne&#45;engine/include/KEModules/RenderTargets.h Pages: 1 -->
<svg width="1788pt" height="609pt"
 viewBox="0.00 0.00 1787.50 609.00" xmlns="http://www.w3.org/2000/svg" xmlns:xlink="http://www.w3.org/1999/xlink">
<g id="graph0" class="graph" transform="scale(1 1) rotate(0) translate(4 605)">
<title>kryne&#45;engine/include/KEModules/RenderTargets.h</title>
<polygon fill="white" stroke="transparent" points="-4,4 -4,-605 1783.5,-605 1783.5,4 -4,4"/>
<!-- Node1 -->
<g id="node1" class="node">
<title>Node1</title>
<g id="a_node1"><a xlink:title=" ">
<polygon fill="#bfbfbf" stroke="black" points="816,-570.5 816,-600.5 960,-600.5 960,-570.5 816,-570.5"/>
<text text-anchor="start" x="824" y="-588.5" font-family="Helvetica,sans-Serif" font-size="10.00">kryne&#45;engine/include</text>
<text text-anchor="middle" x="888" y="-577.5" font-family="Helvetica,sans-Serif" font-size="10.00">/KEModules/RenderTargets.h</text>
</a>
</g>
</g>
<!-- Node2 -->
<g id="node2" class="node">
<title>Node2</title>
<g id="a_node2"><a xlink:href="_final_post_process_8h.html" target="_top" xlink:title=" ">
<polygon fill="white" stroke="black" points="771,-436.5 771,-466.5 909,-466.5 909,-436.5 771,-436.5"/>
<text text-anchor="start" x="779" y="-454.5" font-family="Helvetica,sans-Serif" font-size="10.00">kryne&#45;engine/RenderTargets</text>
<text text-anchor="middle" x="840" y="-443.5" font-family="Helvetica,sans-Serif" font-size="10.00">/FinalPostProcess.h</text>
</a>
</g>
</g>
<!-- Node1&#45;&gt;Node2 -->
<g id="edge1" class="edge">
<title>Node1&#45;&gt;Node2</title>
<path fill="none" stroke="midnightblue" d="M878.45,-570.48C872.14,-560.64 864.11,-546.98 859,-534 851.66,-515.37 846.72,-493.18 843.72,-476.66"/>
<polygon fill="midnightblue" stroke="midnightblue" points="847.15,-475.99 842.02,-466.72 840.25,-477.17 847.15,-475.99"/>
</g>
<!-- Node47 -->
<g id="node47" class="node">
<title>Node47</title>
<g id="a_node47"><a xlink:href="_post_process_8h.html" target="_top" xlink:title=" ">
<polygon fill="white" stroke="black" points="868,-503.5 868,-533.5 1006,-533.5 1006,-503.5 868,-503.5"/>
<text text-anchor="start" x="876" y="-521.5" font-family="Helvetica,sans-Serif" font-size="10.00">kryne&#45;engine/RenderTargets</text>
<text text-anchor="middle" x="937" y="-510.5" font-family="Helvetica,sans-Serif" font-size="10.00">/PostProcess.h</text>
</a>
</g>
</g>
<!-- Node1&#45;&gt;Node47 -->
<g id="edge70" class="edge">
<title>Node1&#45;&gt;Node47</title>
<path fill="none" stroke="midnightblue" d="M898.63,-570.4C904.92,-562.05 913.04,-551.29 920.18,-541.81"/>
<polygon fill="midnightblue" stroke="midnightblue" points="923.16,-543.67 926.39,-533.58 917.57,-539.45 923.16,-543.67"/>
</g>
<!-- Node3 -->
<g id="node3" class="node">
<title>Node3</title>
<g id="a_node3"><a xlink:title=" ">
<polygon fill="white" stroke="#bfbfbf" points="300.5,-308 300.5,-327 335.5,-327 335.5,-308 300.5,-308"/>
<text text-anchor="middle" x="318" y="-315" font-family="Helvetica,sans-Serif" font-size="10.00">map</text>
</a>
</g>
</g>
<!-- Node2&#45;&gt;Node3 -->
<g id="edge2" class="edge">
<title>Node2&#45;&gt;Node3</title>
<path fill="none" stroke="midnightblue" d="M770.73,-446.99C697.98,-441.86 580.91,-429.45 484,-400 429.72,-383.5 371.27,-350.94 340.28,-332.36"/>
<polygon fill="midnightblue" stroke="midnightblue" points="341.94,-329.28 331.58,-327.08 338.31,-335.26 341.94,-329.28"/>
</g>
<!-- Node4 -->
<g id="node4" class="node">
<title>Node4</title>
<g id="a_node4"><a xlink:href="_shader_8h.html" target="_top" xlink:title=" ">
<polygon fill="white" stroke="black" points="493,-369.5 493,-399.5 603,-399.5 603,-369.5 493,-369.5"/>
<text text-anchor="start" x="501" y="-387.5" font-family="Helvetica,sans-Serif" font-size="10.00">kryne&#45;engine/Material</text>
<text text-anchor="middle" x="548" y="-376.5" font-family="Helvetica,sans-Serif" font-size="10.00">/Shader.h</text>
</a>
</g>
</g>
<!-- Node2&#45;&gt;Node4 -->
<g id="edge3" class="edge">
<title>Node2&#45;&gt;Node4</title>
<path fill="none" stroke="midnightblue" d="M777,-436.48C728.53,-425.69 661.79,-410.83 612.87,-399.94"/>
<polygon fill="midnightblue" stroke="midnightblue" points="613.54,-396.5 603.02,-397.75 612.02,-403.34 613.54,-396.5"/>
</g>
<!-- Node40 -->
<g id="node40" class="node">
<title>Node40</title>
<g id="a_node40"><a xlink:href="_vertex_array_8h.html" target="_top" xlink:title=" ">
<polygon fill="white" stroke="black" points="1376.5,-235.5 1376.5,-265.5 1503.5,-265.5 1503.5,-235.5 1376.5,-235.5"/>
<text text-anchor="start" x="1384.5" y="-253.5" font-family="Helvetica,sans-Serif" font-size="10.00">kryne&#45;engine/Core/Vertex</text>
<text text-anchor="middle" x="1440" y="-242.5" font-family="Helvetica,sans-Serif" font-size="10.00">Array.h</text>
</a>
</g>
</g>
<!-- Node2&#45;&gt;Node40 -->
<g id="edge54" class="edge">
<title>Node2&#45;&gt;Node40</title>
<path fill="none" stroke="midnightblue" d="M882.67,-436.35C989.98,-400.76 1270.83,-307.61 1387.75,-268.83"/>
<polygon fill="midnightblue" stroke="midnightblue" points="1389.16,-272.05 1397.55,-265.58 1386.95,-265.41 1389.16,-272.05"/>
</g>
<!-- Node43 -->
<g id="node43" class="node">
<title>Node43</title>
<g id="a_node43"><a xlink:href="_geometric_shapes_8h.html" target="_top" xlink:title=" ">
<polygon fill="white" stroke="black" points="1521.5,-235.5 1521.5,-265.5 1664.5,-265.5 1664.5,-235.5 1521.5,-235.5"/>
<text text-anchor="start" x="1529.5" y="-253.5" font-family="Helvetica,sans-Serif" font-size="10.00">kryne&#45;engine/Core/Geometric</text>
<text text-anchor="middle" x="1593" y="-242.5" font-family="Helvetica,sans-Serif" font-size="10.00">Shapes.h</text>
</a>
</g>
</g>
<!-- Node2&#45;&gt;Node43 -->
<g id="edge62" class="edge">
<title>Node2&#45;&gt;Node43</title>
<path fill="none" stroke="midnightblue" d="M901.66,-436.49C944.27,-426.66 1002.19,-413 1053,-400 1228.76,-355.01 1435.18,-296.71 1534.2,-268.41"/>
<polygon fill="midnightblue" stroke="midnightblue" points="1535.36,-271.72 1544.02,-265.6 1533.44,-264.99 1535.36,-271.72"/>
</g>
<!-- Node46 -->
<g id="node46" class="node">
<title>Node46</title>
<g id="a_node46"><a xlink:href="_texture2_d_8h.html" target="_top" xlink:title=" ">
<polygon fill="white" stroke="black" points="832.5,-369.5 832.5,-399.5 945.5,-399.5 945.5,-369.5 832.5,-369.5"/>
<text text-anchor="start" x="840.5" y="-387.5" font-family="Helvetica,sans-Serif" font-size="10.00">kryne&#45;engine/Textures</text>
<text text-anchor="middle" x="889" y="-376.5" font-family="Helvetica,sans-Serif" font-size="10.00">/Texture2D.h</text>
</a>
</g>
</g>
<!-- Node2&#45;&gt;Node46 -->
<g id="edge68" class="edge">
<title>Node2&#45;&gt;Node46</title>
<path fill="none" stroke="midnightblue" d="M850.63,-436.4C856.92,-428.05 865.04,-417.29 872.18,-407.81"/>
<polygon fill="midnightblue" stroke="midnightblue" points="875.16,-409.67 878.39,-399.58 869.57,-405.45 875.16,-409.67"/>
</g>
<!-- Node4&#45;&gt;Node3 -->
<g id="edge4" class="edge">
<title>Node4&#45;&gt;Node3</title>
<path fill="none" stroke="midnightblue" d="M492.58,-373.6C451.11,-365.27 393.45,-351.7 345,-333 343.8,-332.54 342.58,-332.03 341.37,-331.5"/>
<polygon fill="midnightblue" stroke="midnightblue" points="342.78,-328.29 332.26,-327.01 339.68,-334.57 342.78,-328.29"/>
</g>
<!-- Node5 -->
<g id="node5" class="node">
<title>Node5</title>
<g id="a_node5"><a xlink:title=" ">
<polygon fill="white" stroke="#bfbfbf" points="354,-308 354,-327 406,-327 406,-308 354,-308"/>
<text text-anchor="middle" x="380" y="-315" font-family="Helvetica,sans-Serif" font-size="10.00">sstream</text>
</a>
</g>
</g>
<!-- Node4&#45;&gt;Node5 -->
<g id="edge5" class="edge">
<title>Node4&#45;&gt;Node5</title>
<path fill="none" stroke="midnightblue" d="M510.67,-369.42C484.19,-359.38 447.86,-345.51 416,-333 414.36,-332.36 412.68,-331.69 410.99,-331.02"/>
<polygon fill="midnightblue" stroke="midnightblue" points="411.88,-327.61 401.3,-327.15 409.28,-334.11 411.88,-327.61"/>
</g>
<!-- Node6 -->
<g id="node6" class="node">
<title>Node6</title>
<g id="a_node6"><a xlink:href="_dispatcher_8h.html" target="_top" xlink:title=" ">
<polygon fill="white" stroke="black" points="424.5,-302.5 424.5,-332.5 537.5,-332.5 537.5,-302.5 424.5,-302.5"/>
<text text-anchor="start" x="432.5" y="-320.5" font-family="Helvetica,sans-Serif" font-size="10.00">kryne&#45;engine/Dispatch</text>
<text text-anchor="middle" x="481" y="-309.5" font-family="Helvetica,sans-Serif" font-size="10.00">/Dispatcher.h</text>
</a>
</g>
</g>
<!-- Node4&#45;&gt;Node6 -->
<g id="edge6" class="edge">
<title>Node4&#45;&gt;Node6</title>
<path fill="none" stroke="midnightblue" d="M533.46,-369.4C524.51,-360.71 512.86,-349.4 502.81,-339.66"/>
<polygon fill="midnightblue" stroke="midnightblue" points="505.12,-337.03 495.51,-332.58 500.25,-342.05 505.12,-337.03"/>
</g>
<!-- Node20 -->
<g id="node20" class="node">
<title>Node20</title>
<g id="a_node20"><a xlink:href="_uniforms_handler_8h.html" target="_top" xlink:title=" ">
<polygon fill="white" stroke="black" points="917,-308 917,-327 1013,-327 1013,-308 917,-308"/>
<text text-anchor="middle" x="965" y="-315" font-family="Helvetica,sans-Serif" font-size="10.00">UniformsHandler.h</text>
</a>
</g>
</g>
<!-- Node4&#45;&gt;Node20 -->
<g id="edge26" class="edge">
<title>Node4&#45;&gt;Node20</title>
<path fill="none" stroke="midnightblue" d="M603.37,-374.87C682.3,-362.57 826.48,-340.09 906.89,-327.56"/>
<polygon fill="midnightblue" stroke="midnightblue" points="907.5,-331 916.84,-326.01 906.42,-324.09 907.5,-331"/>
</g>
<!-- Node33 -->
<g id="node33" class="node">
<title>Node33</title>
<g id="a_node33"><a xlink:href="_shader_chunk_8h.html" target="_top" xlink:title=" ">
<polygon fill="white" stroke="black" points="555.5,-308 555.5,-327 638.5,-327 638.5,-308 555.5,-308"/>
<text text-anchor="middle" x="597" y="-315" font-family="Helvetica,sans-Serif" font-size="10.00">ShaderChunk.h</text>
</a>
</g>
</g>
<!-- Node4&#45;&gt;Node33 -->
<g id="edge43" class="edge">
<title>Node4&#45;&gt;Node33</title>
<path fill="none" stroke="midnightblue" d="M558.63,-369.4C566.2,-359.36 576.39,-345.84 584.37,-335.25"/>
<polygon fill="midnightblue" stroke="midnightblue" points="587.22,-337.29 590.45,-327.19 581.63,-333.07 587.22,-337.29"/>
</g>
<!-- Node7 -->
<g id="node7" class="node">
<title>Node7</title>
<g id="a_node7"><a xlink:href="_synchronizable_pool_8h.html" target="_top" xlink:title=" ">
<polygon fill="white" stroke="black" points="142.5,-174 142.5,-193 253.5,-193 253.5,-174 142.5,-174"/>
<text text-anchor="middle" x="198" y="-181" font-family="Helvetica,sans-Serif" font-size="10.00">SynchronizablePool.h</text>
</a>
</g>
</g>
<!-- Node6&#45;&gt;Node7 -->
<g id="edge7" class="edge">
<title>Node6&#45;&gt;Node7</title>
<path fill="none" stroke="midnightblue" d="M424.4,-303.99C363.62,-290.42 274.79,-270.13 268,-266 241.68,-249.97 220.18,-220.69 208.24,-201.94"/>
<polygon fill="midnightblue" stroke="midnightblue" points="211.1,-199.91 202.89,-193.21 205.13,-203.57 211.1,-199.91"/>
</g>
<!-- Node17 -->
<g id="node17" class="node">
<title>Node17</title>
<g id="a_node17"><a xlink:href="_runner_pool_8h.html" target="_top" xlink:title=" ">
<polygon fill="white" stroke="black" points="311.5,-174 311.5,-193 386.5,-193 386.5,-174 311.5,-174"/>
<text text-anchor="middle" x="349" y="-181" font-family="Helvetica,sans-Serif" font-size="10.00">RunnerPool.h</text>
</a>
</g>
</g>
<!-- Node6&#45;&gt;Node17 -->
<g id="edge19" class="edge">
<title>Node6&#45;&gt;Node17</title>
<path fill="none" stroke="midnightblue" d="M466.87,-302.37C442.04,-277.54 390.74,-226.24 364.78,-200.28"/>
<polygon fill="midnightblue" stroke="midnightblue" points="367.14,-197.69 357.6,-193.1 362.19,-202.64 367.14,-197.69"/>
</g>
<!-- Node19 -->
<g id="node19" class="node">
<title>Node19</title>
<g id="a_node19"><a xlink:href="_main_pool_8h.html" target="_top" xlink:title=" ">
<polygon fill="white" stroke="black" points="277.5,-241 277.5,-260 342.5,-260 342.5,-241 277.5,-241"/>
<text text-anchor="middle" x="310" y="-248" font-family="Helvetica,sans-Serif" font-size="10.00">MainPool.h</text>
</a>
</g>
</g>
<!-- Node6&#45;&gt;Node19 -->
<g id="edge24" class="edge">
<title>Node6&#45;&gt;Node19</title>
<path fill="none" stroke="midnightblue" d="M443.9,-302.4C413.49,-290.84 370.92,-274.66 342,-263.66"/>
<polygon fill="midnightblue" stroke="midnightblue" points="342.97,-260.29 332.38,-260.01 340.48,-266.83 342.97,-260.29"/>
</g>
<!-- Node8 -->
<g id="node8" class="node">
<title>Node8</title>
<g id="a_node8"><a xlink:href="_base_pool_8h.html" target="_top" xlink:title=" ">
<polygon fill="white" stroke="black" points="223.5,-56.5 223.5,-75.5 290.5,-75.5 290.5,-56.5 223.5,-56.5"/>
<text text-anchor="middle" x="257" y="-63.5" font-family="Helvetica,sans-Serif" font-size="10.00">BasePool.h</text>
</a>
</g>
</g>
<!-- Node7&#45;&gt;Node8 -->
<g id="edge8" class="edge">
<title>Node7&#45;&gt;Node8</title>
<path fill="none" stroke="midnightblue" d="M175.43,-173.89C146.84,-161.65 103.37,-137.84 122,-112 142.64,-83.37 182.28,-72.68 213.29,-68.82"/>
<polygon fill="midnightblue" stroke="midnightblue" points="213.85,-72.28 223.43,-67.76 213.12,-65.32 213.85,-72.28"/>
</g>
<!-- Node16 -->
<g id="node16" class="node">
<title>Node16</title>
<g id="a_node16"><a xlink:href="_synchronizable_child_pool_8h.html" target="_top" xlink:title=" ">
<polygon fill="white" stroke="black" points="131.5,-112.5 131.5,-131.5 264.5,-131.5 264.5,-112.5 131.5,-112.5"/>
<text text-anchor="middle" x="198" y="-119.5" font-family="Helvetica,sans-Serif" font-size="10.00">SynchronizableChildPool.h</text>
</a>
</g>
</g>
<!-- Node7&#45;&gt;Node16 -->
<g id="edge16" class="edge">
<title>Node7&#45;&gt;Node16</title>
<path fill="none" stroke="midnightblue" d="M193.1,-173.98C191.27,-165.58 190.8,-152.48 191.69,-141.66"/>
<polygon fill="midnightblue" stroke="midnightblue" points="195.19,-141.9 193.1,-131.51 188.25,-140.93 195.19,-141.9"/>
</g>
<!-- Node9 -->
<g id="node9" class="node">
<title>Node9</title>
<g id="a_node9"><a xlink:title=" ">
<polygon fill="white" stroke="#bfbfbf" points="0,-0.5 0,-19.5 44,-19.5 44,-0.5 0,-0.5"/>
<text text-anchor="middle" x="22" y="-7.5" font-family="Helvetica,sans-Serif" font-size="10.00">thread</text>
</a>
</g>
</g>
<!-- Node8&#45;&gt;Node9 -->
<g id="edge9" class="edge">
<title>Node8&#45;&gt;Node9</title>
<path fill="none" stroke="midnightblue" d="M223.27,-58.26C184.67,-50.4 119.34,-36.63 54.31,-20.21"/>
<polygon fill="midnightblue" stroke="midnightblue" points="54.86,-16.74 44.3,-17.66 53.13,-23.52 54.86,-16.74"/>
</g>
<!-- Node10 -->
<g id="node10" class="node">
<title>Node10</title>
<g id="a_node10"><a xlink:title=" ">
<polygon fill="white" stroke="#bfbfbf" points="62,-0.5 62,-19.5 106,-19.5 106,-0.5 62,-0.5"/>
<text text-anchor="middle" x="84" y="-7.5" font-family="Helvetica,sans-Serif" font-size="10.00">mutex</text>
</a>
</g>
</g>
<!-- Node8&#45;&gt;Node10 -->
<g id="edge10" class="edge">
<title>Node8&#45;&gt;Node10</title>
<path fill="none" stroke="midnightblue" d="M229.59,-56.44C198.72,-46.81 148.64,-31.18 116,-20.99"/>
<polygon fill="midnightblue" stroke="midnightblue" points="116.66,-17.53 106.07,-17.89 114.57,-24.21 116.66,-17.53"/>
</g>
<!-- Node11 -->
<g id="node11" class="node">
<title>Node11</title>
<g id="a_node11"><a xlink:title=" ">
<polygon fill="white" stroke="#bfbfbf" points="124.5,-0.5 124.5,-19.5 217.5,-19.5 217.5,-0.5 124.5,-0.5"/>
<text text-anchor="middle" x="171" y="-7.5" font-family="Helvetica,sans-Serif" font-size="10.00">condition_variable</text>
</a>
</g>
</g>
<!-- Node8&#45;&gt;Node11 -->
<g id="edge11" class="edge">
<title>Node8&#45;&gt;Node11</title>
<path fill="none" stroke="midnightblue" d="M243.18,-56.32C229.77,-47.9 209.18,-34.97 193.41,-25.07"/>
<polygon fill="midnightblue" stroke="midnightblue" points="195.11,-22.01 184.78,-19.65 191.39,-27.94 195.11,-22.01"/>
</g>
<!-- Node12 -->
<g id="node12" class="node">
<title>Node12</title>
<g id="a_node12"><a xlink:title=" ">
<polygon fill="white" stroke="#bfbfbf" points="235.5,-0.5 235.5,-19.5 278.5,-19.5 278.5,-0.5 235.5,-0.5"/>
<text text-anchor="middle" x="257" y="-7.5" font-family="Helvetica,sans-Serif" font-size="10.00">queue</text>
</a>
</g>
</g>
<!-- Node8&#45;&gt;Node12 -->
<g id="edge12" class="edge">
<title>Node8&#45;&gt;Node12</title>
<path fill="none" stroke="midnightblue" d="M257,-56.08C257,-49.01 257,-38.86 257,-29.99"/>
<polygon fill="midnightblue" stroke="midnightblue" points="260.5,-29.75 257,-19.75 253.5,-29.75 260.5,-29.75"/>
</g>
<!-- Node13 -->
<g id="node13" class="node">
<title>Node13</title>
<g id="a_node13"><a xlink:title=" ">
<polygon fill="white" stroke="#bfbfbf" points="296.5,-0.5 296.5,-19.5 337.5,-19.5 337.5,-0.5 296.5,-0.5"/>
<text text-anchor="middle" x="317" y="-7.5" font-family="Helvetica,sans-Serif" font-size="10.00">future</text>
</a>
</g>
</g>
<!-- Node8&#45;&gt;Node13 -->
<g id="edge13" class="edge">
<title>Node8&#45;&gt;Node13</title>
<path fill="none" stroke="midnightblue" d="M266.64,-56.32C275.51,-48.34 288.87,-36.31 299.61,-26.65"/>
<polygon fill="midnightblue" stroke="midnightblue" points="302.09,-29.13 307.18,-19.83 297.41,-23.92 302.09,-29.13"/>
</g>
<!-- Node14 -->
<g id="node14" class="node">
<title>Node14</title>
<g id="a_node14"><a xlink:title=" ">
<polygon fill="white" stroke="#bfbfbf" points="356,-0.5 356,-19.5 408,-19.5 408,-0.5 356,-0.5"/>
<text text-anchor="middle" x="382" y="-7.5" font-family="Helvetica,sans-Serif" font-size="10.00">memory</text>
</a>
</g>
</g>
<!-- Node8&#45;&gt;Node14 -->
<g id="edge14" class="edge">
<title>Node8&#45;&gt;Node14</title>
<path fill="none" stroke="midnightblue" d="M276.81,-56.44C297.29,-47.6 329.48,-33.69 352.86,-23.59"/>
<polygon fill="midnightblue" stroke="midnightblue" points="354.49,-26.7 362.29,-19.52 351.72,-20.27 354.49,-26.7"/>
</g>
<!-- Node15 -->
<g id="node15" class="node">
<title>Node15</title>
<g id="a_node15"><a xlink:title=" ">
<polygon fill="white" stroke="#bfbfbf" points="426,-0.5 426,-19.5 480,-19.5 480,-0.5 426,-0.5"/>
<text text-anchor="middle" x="453" y="-7.5" font-family="Helvetica,sans-Serif" font-size="10.00">iostream</text>
</a>
</g>
</g>
<!-- Node8&#45;&gt;Node15 -->
<g id="edge15" class="edge">
<title>Node8&#45;&gt;Node15</title>
<path fill="none" stroke="midnightblue" d="M288.06,-56.44C322.79,-46.87 379,-31.39 415.99,-21.2"/>
<polygon fill="midnightblue" stroke="midnightblue" points="417.16,-24.5 425.88,-18.47 415.31,-17.75 417.16,-24.5"/>
</g>
<!-- Node16&#45;&gt;Node7 -->
<g id="edge18" class="edge">
<title>Node16&#45;&gt;Node7</title>
<path fill="none" stroke="midnightblue" d="M202.9,-131.51C204.73,-139.9 205.2,-153 204.32,-163.82"/>
<polygon fill="midnightblue" stroke="midnightblue" points="200.81,-163.59 202.9,-173.98 207.75,-164.55 200.81,-163.59"/>
</g>
<!-- Node16&#45;&gt;Node8 -->
<g id="edge17" class="edge">
<title>Node16&#45;&gt;Node8</title>
<path fill="none" stroke="midnightblue" d="M207.48,-112.32C216.2,-104.34 229.34,-92.31 239.9,-82.65"/>
<polygon fill="midnightblue" stroke="midnightblue" points="242.33,-85.17 247.35,-75.83 237.61,-80 242.33,-85.17"/>
</g>
<!-- Node17&#45;&gt;Node8 -->
<g id="edge20" class="edge">
<title>Node17&#45;&gt;Node8</title>
<path fill="none" stroke="midnightblue" d="M342.09,-173.82C326.83,-154.67 290.09,-108.54 270.25,-83.63"/>
<polygon fill="midnightblue" stroke="midnightblue" points="272.96,-81.42 264,-75.78 267.49,-85.78 272.96,-81.42"/>
</g>
<!-- Node18 -->
<g id="node18" class="node">
<title>Node18</title>
<g id="a_node18"><a xlink:href="_child_pool_8h.html" target="_top" xlink:title=" ">
<polygon fill="white" stroke="black" points="321,-112.5 321,-131.5 387,-131.5 387,-112.5 321,-112.5"/>
<text text-anchor="middle" x="354" y="-119.5" font-family="Helvetica,sans-Serif" font-size="10.00">ChildPool.h</text>
</a>
</g>
</g>
<!-- Node17&#45;&gt;Node18 -->
<g id="edge21" class="edge">
<title>Node17&#45;&gt;Node18</title>
<path fill="none" stroke="midnightblue" d="M344.82,-173.98C343.68,-165.49 344.33,-152.2 346.17,-141.32"/>
<polygon fill="midnightblue" stroke="midnightblue" points="349.6,-142.03 348.39,-131.51 342.77,-140.49 349.6,-142.03"/>
</g>
<!-- Node18&#45;&gt;Node8 -->
<g id="edge22" class="edge">
<title>Node18&#45;&gt;Node8</title>
<path fill="none" stroke="midnightblue" d="M338.42,-112.32C323,-103.74 299.19,-90.49 281.29,-80.52"/>
<polygon fill="midnightblue" stroke="midnightblue" points="282.99,-77.46 272.55,-75.65 279.58,-83.58 282.99,-77.46"/>
</g>
<!-- Node18&#45;&gt;Node17 -->
<g id="edge23" class="edge">
<title>Node18&#45;&gt;Node17</title>
<path fill="none" stroke="midnightblue" d="M358.18,-131.51C359.32,-139.99 358.67,-153.27 356.83,-164.16"/>
<polygon fill="midnightblue" stroke="midnightblue" points="353.4,-163.45 354.62,-173.98 360.23,-164.99 353.4,-163.45"/>
</g>
<!-- Node19&#45;&gt;Node7 -->
<g id="edge25" class="edge">
<title>Node19&#45;&gt;Node7</title>
<path fill="none" stroke="midnightblue" d="M294.9,-240.73C276.09,-229.82 243.75,-211.05 221.64,-198.22"/>
<polygon fill="midnightblue" stroke="midnightblue" points="223.27,-195.12 212.87,-193.13 219.76,-201.17 223.27,-195.12"/>
</g>
<!-- Node21 -->
<g id="node21" class="node">
<title>Node21</title>
<g id="a_node21"><a xlink:title=" ">
<polygon fill="white" stroke="#bfbfbf" points="750.5,-174 750.5,-193 791.5,-193 791.5,-174 750.5,-174"/>
<text text-anchor="middle" x="771" y="-181" font-family="Helvetica,sans-Serif" font-size="10.00">string</text>
</a>
</g>
</g>
<!-- Node20&#45;&gt;Node21 -->
<g id="edge27" class="edge">
<title>Node20&#45;&gt;Node21</title>
<path fill="none" stroke="midnightblue" d="M933.97,-307.97C908.06,-299.88 870.99,-285.97 843,-266 817.87,-248.07 795.47,-219.8 782.57,-201.71"/>
<polygon fill="midnightblue" stroke="midnightblue" points="785.3,-199.5 776.72,-193.29 779.55,-203.5 785.3,-199.5"/>
</g>
<!-- Node22 -->
<g id="node22" class="node">
<title>Node22</title>
<g id="a_node22"><a xlink:title=" ">
<polygon fill="white" stroke="#bfbfbf" points="692.5,-241 692.5,-260 775.5,-260 775.5,-241 692.5,-241"/>
<text text-anchor="middle" x="734" y="-248" font-family="Helvetica,sans-Serif" font-size="10.00">unordered_map</text>
</a>
</g>
</g>
<!-- Node20&#45;&gt;Node22 -->
<g id="edge28" class="edge">
<title>Node20&#45;&gt;Node22</title>
<path fill="none" stroke="midnightblue" d="M934.32,-307.87C893.14,-296.28 819.87,-275.66 774.28,-262.83"/>
<polygon fill="midnightblue" stroke="midnightblue" points="775.01,-259.4 764.43,-260.06 773.11,-266.14 775.01,-259.4"/>
</g>
<!-- Node23 -->
<g id="node23" class="node">
<title>Node23</title>
<g id="a_node23"><a xlink:title=" ">
<polygon fill="white" stroke="#bfbfbf" points="810,-174 810,-193 874,-193 874,-174 810,-174"/>
<text text-anchor="middle" x="842" y="-181" font-family="Helvetica,sans-Serif" font-size="10.00">glad/glad.h</text>
</a>
</g>
</g>
<!-- Node20&#45;&gt;Node23 -->
<g id="edge29" class="edge">
<title>Node20&#45;&gt;Node23</title>
<path fill="none" stroke="midnightblue" d="M930.51,-307.85C907.82,-300.41 879.23,-287.41 862,-266 847.54,-248.04 843.32,-221.14 842.2,-203.22"/>
<polygon fill="midnightblue" stroke="midnightblue" points="845.69,-203.02 841.84,-193.15 838.7,-203.27 845.69,-203.02"/>
</g>
<!-- Node24 -->
<g id="node24" class="node">
<title>Node24</title>
<g id="a_node24"><a xlink:title=" ">
<polygon fill="white" stroke="#bfbfbf" points="1106,-174 1106,-193 1184,-193 1184,-174 1106,-174"/>
<text text-anchor="middle" x="1145" y="-181" font-family="Helvetica,sans-Serif" font-size="10.00">GLFW/glfw3.h</text>
</a>
</g>
</g>
<!-- Node20&#45;&gt;Node24 -->
<g id="edge30" class="edge">
<title>Node20&#45;&gt;Node24</title>
<path fill="none" stroke="midnightblue" d="M970.11,-307.75C980,-291.47 1003.25,-256.25 1031,-235 1053.56,-217.73 1082.95,-204.89 1106.24,-196.48"/>
<polygon fill="midnightblue" stroke="midnightblue" points="1107.52,-199.74 1115.81,-193.15 1105.21,-193.13 1107.52,-199.74"/>
</g>
<!-- Node25 -->
<g id="node25" class="node">
<title>Node25</title>
<g id="a_node25"><a xlink:title=" ">
<polygon fill="white" stroke="#bfbfbf" points="1040,-241 1040,-260 1126,-260 1126,-241 1040,-241"/>
<text text-anchor="middle" x="1083" y="-248" font-family="Helvetica,sans-Serif" font-size="10.00">glm/mat4x4.hpp</text>
</a>
</g>
</g>
<!-- Node20&#45;&gt;Node25 -->
<g id="edge31" class="edge">
<title>Node20&#45;&gt;Node25</title>
<path fill="none" stroke="midnightblue" d="M980.91,-307.73C1000.82,-296.77 1035.11,-277.88 1058.4,-265.05"/>
<polygon fill="midnightblue" stroke="midnightblue" points="1060.27,-268.02 1067.34,-260.13 1056.89,-261.89 1060.27,-268.02"/>
</g>
<!-- Node26 -->
<g id="node26" class="node">
<title>Node26</title>
<g id="a_node26"><a xlink:title=" ">
<polygon fill="white" stroke="#bfbfbf" points="1144,-241 1144,-260 1250,-260 1250,-241 1144,-241"/>
<text text-anchor="middle" x="1197" y="-248" font-family="Helvetica,sans-Serif" font-size="10.00">glm/gtc/type_ptr.hpp</text>
</a>
</g>
</g>
<!-- Node20&#45;&gt;Node26 -->
<g id="edge32" class="edge">
<title>Node20&#45;&gt;Node26</title>
<path fill="none" stroke="midnightblue" d="M995.81,-307.87C1037.18,-296.28 1110.76,-275.66 1156.55,-262.83"/>
<polygon fill="midnightblue" stroke="midnightblue" points="1157.75,-266.13 1166.43,-260.06 1155.86,-259.39 1157.75,-266.13"/>
</g>
<!-- Node27 -->
<g id="node27" class="node">
<title>Node27</title>
<g id="a_node27"><a xlink:title=" ">
<polygon fill="white" stroke="#bfbfbf" points="1268,-241 1268,-260 1358,-260 1358,-241 1268,-241"/>
<text text-anchor="middle" x="1313" y="-248" font-family="Helvetica,sans-Serif" font-size="10.00">boost/variant.hpp</text>
</a>
</g>
</g>
<!-- Node20&#45;&gt;Node27 -->
<g id="edge33" class="edge">
<title>Node20&#45;&gt;Node27</title>
<path fill="none" stroke="midnightblue" d="M1013.13,-309.63C1071.58,-300.96 1173.01,-284.89 1259,-266 1263.67,-264.97 1268.55,-263.81 1273.37,-262.59"/>
<polygon fill="midnightblue" stroke="midnightblue" points="1274.33,-265.95 1283.13,-260.05 1272.57,-259.18 1274.33,-265.95"/>
</g>
<!-- Node28 -->
<g id="node28" class="node">
<title>Node28</title>
<g id="a_node28"><a xlink:href="_texture_8h.html" target="_top" xlink:title=" ">
<polygon fill="white" stroke="black" points="870.5,-235.5 870.5,-265.5 983.5,-265.5 983.5,-235.5 870.5,-235.5"/>
<text text-anchor="start" x="878.5" y="-253.5" font-family="Helvetica,sans-Serif" font-size="10.00">kryne&#45;engine/Textures</text>
<text text-anchor="middle" x="927" y="-242.5" font-family="Helvetica,sans-Serif" font-size="10.00">/Texture.h</text>
</a>
</g>
</g>
<!-- Node20&#45;&gt;Node28 -->
<g id="edge34" class="edge">
<title>Node20&#45;&gt;Node28</title>
<path fill="none" stroke="midnightblue" d="M959.88,-307.73C954.89,-299.2 947.1,-285.87 940.35,-274.33"/>
<polygon fill="midnightblue" stroke="midnightblue" points="943.31,-272.46 935.24,-265.59 937.26,-275.99 943.31,-272.46"/>
</g>
<!-- Node28&#45;&gt;Node15 -->
<g id="edge37" class="edge">
<title>Node28&#45;&gt;Node15</title>
<path fill="none" stroke="midnightblue" d="M870.34,-242.85C779.91,-231.99 610.48,-210.48 585,-199 507.64,-164.14 474.78,-152.93 439,-76 432.02,-60.99 437.25,-42.39 443.21,-28.94"/>
<polygon fill="midnightblue" stroke="midnightblue" points="446.43,-30.32 447.71,-19.8 440.15,-27.23 446.43,-30.32"/>
</g>
<!-- Node28&#45;&gt;Node21 -->
<g id="edge36" class="edge">
<title>Node28&#45;&gt;Node21</title>
<path fill="none" stroke="midnightblue" d="M890.06,-235.47C864.79,-225.68 830.64,-212.09 801,-199 799.84,-198.49 798.66,-197.96 797.47,-197.41"/>
<polygon fill="midnightblue" stroke="midnightblue" points="798.89,-194.22 788.36,-193.14 795.92,-200.56 798.89,-194.22"/>
</g>
<!-- Node28&#45;&gt;Node23 -->
<g id="edge41" class="edge">
<title>Node28&#45;&gt;Node23</title>
<path fill="none" stroke="midnightblue" d="M908.56,-235.4C894.65,-224.76 875.61,-210.2 861.46,-199.38"/>
<polygon fill="midnightblue" stroke="midnightblue" points="863.44,-196.49 853.37,-193.19 859.19,-202.05 863.44,-196.49"/>
</g>
<!-- Node28&#45;&gt;Node24 -->
<g id="edge42" class="edge">
<title>Node28&#45;&gt;Node24</title>
<path fill="none" stroke="midnightblue" d="M974.65,-235.41C1008.74,-225.31 1055.71,-211.37 1097,-199 1100.31,-198.01 1103.75,-196.98 1107.2,-195.94"/>
<polygon fill="midnightblue" stroke="midnightblue" points="1108.27,-199.27 1116.83,-193.03 1106.25,-192.57 1108.27,-199.27"/>
</g>
<!-- Node29 -->
<g id="node29" class="node">
<title>Node29</title>
<g id="a_node29"><a xlink:title=" ">
<polygon fill="white" stroke="#bfbfbf" points="892,-174 892,-193 962,-193 962,-174 892,-174"/>
<text text-anchor="middle" x="927" y="-181" font-family="Helvetica,sans-Serif" font-size="10.00">stb_image.h</text>
</a>
</g>
</g>
<!-- Node28&#45;&gt;Node29 -->
<g id="edge35" class="edge">
<title>Node28&#45;&gt;Node29</title>
<path fill="none" stroke="midnightblue" d="M927,-235.4C927,-226.06 927,-213.71 927,-203.52"/>
<polygon fill="midnightblue" stroke="midnightblue" points="930.5,-203.19 927,-193.19 923.5,-203.19 930.5,-203.19"/>
</g>
<!-- Node30 -->
<g id="node30" class="node">
<title>Node30</title>
<g id="a_node30"><a xlink:title=" ">
<polygon fill="white" stroke="#bfbfbf" points="980.5,-174 980.5,-193 1087.5,-193 1087.5,-174 980.5,-174"/>
<text text-anchor="middle" x="1034" y="-181" font-family="Helvetica,sans-Serif" font-size="10.00">boost/filesystem.hpp</text>
</a>
</g>
</g>
<!-- Node28&#45;&gt;Node30 -->
<g id="edge38" class="edge">
<title>Node28&#45;&gt;Node30</title>
<path fill="none" stroke="midnightblue" d="M950.22,-235.4C968.33,-224.39 993.34,-209.2 1011.31,-198.28"/>
<polygon fill="midnightblue" stroke="midnightblue" points="1013.27,-201.19 1020,-193.01 1009.63,-195.21 1013.27,-201.19"/>
</g>
<!-- Node31 -->
<g id="node31" class="node">
<title>Node31</title>
<g id="a_node31"><a xlink:title=" ">
<polygon fill="white" stroke="#bfbfbf" points="1240,-174 1240,-193 1314,-193 1314,-174 1240,-174"/>
<text text-anchor="middle" x="1277" y="-181" font-family="Helvetica,sans-Serif" font-size="10.00">glm/vec2.hpp</text>
</a>
</g>
</g>
<!-- Node28&#45;&gt;Node31 -->
<g id="edge39" class="edge">
<title>Node28&#45;&gt;Node31</title>
<path fill="none" stroke="midnightblue" d="M983.62,-238.98C1051.98,-226.29 1165.71,-205.17 1229.63,-193.3"/>
<polygon fill="midnightblue" stroke="midnightblue" points="1230.64,-196.67 1239.83,-191.4 1229.36,-189.79 1230.64,-196.67"/>
</g>
<!-- Node32 -->
<g id="node32" class="node">
<title>Node32</title>
<g id="a_node32"><a xlink:title=" ">
<polygon fill="white" stroke="#bfbfbf" points="1332,-174 1332,-193 1406,-193 1406,-174 1332,-174"/>
<text text-anchor="middle" x="1369" y="-181" font-family="Helvetica,sans-Serif" font-size="10.00">glm/vec3.hpp</text>
</a>
</g>
</g>
<!-- Node28&#45;&gt;Node32 -->
<g id="edge40" class="edge">
<title>Node28&#45;&gt;Node32</title>
<path fill="none" stroke="midnightblue" d="M983.65,-241.44C999.01,-239.29 1015.64,-237.02 1031,-235 1160.65,-217.97 1195.22,-226.77 1323,-199 1326.94,-198.14 1331.02,-197.1 1335.05,-195.96"/>
<polygon fill="midnightblue" stroke="midnightblue" points="1336.3,-199.24 1344.87,-193.02 1334.29,-192.54 1336.3,-199.24"/>
</g>
<!-- Node33&#45;&gt;Node15 -->
<g id="edge47" class="edge">
<title>Node33&#45;&gt;Node15</title>
<path fill="none" stroke="midnightblue" d="M570.1,-307.96C533.41,-296.04 471.44,-274.9 465,-266 437.83,-228.44 447.05,-82.01 451.33,-29.7"/>
<polygon fill="midnightblue" stroke="midnightblue" points="454.84,-29.8 452.2,-19.53 447.86,-29.2 454.84,-29.8"/>
</g>
<!-- Node33&#45;&gt;Node21 -->
<g id="edge45" class="edge">
<title>Node33&#45;&gt;Node21</title>
<path fill="none" stroke="midnightblue" d="M596.56,-307.61C596.24,-291.1 597.99,-255.52 617,-235 633.85,-216.81 700.5,-199.73 740.38,-190.85"/>
<polygon fill="midnightblue" stroke="midnightblue" points="741.35,-194.22 750.38,-188.68 739.86,-187.38 741.35,-194.22"/>
</g>
<!-- Node33&#45;&gt;Node22 -->
<g id="edge44" class="edge">
<title>Node33&#45;&gt;Node22</title>
<path fill="none" stroke="midnightblue" d="M615.19,-307.87C638.53,-296.8 679.23,-277.49 706.39,-264.6"/>
<polygon fill="midnightblue" stroke="midnightblue" points="708.2,-267.62 715.73,-260.17 705.2,-261.29 708.2,-267.62"/>
</g>
<!-- Node34 -->
<g id="node34" class="node">
<title>Node34</title>
<g id="a_node34"><a xlink:title=" ">
<polygon fill="white" stroke="#bfbfbf" points="625.5,-241 625.5,-260 674.5,-260 674.5,-241 625.5,-241"/>
<text text-anchor="middle" x="650" y="-248" font-family="Helvetica,sans-Serif" font-size="10.00">fstream</text>
</a>
</g>
</g>
<!-- Node33&#45;&gt;Node34 -->
<g id="edge46" class="edge">
<title>Node33&#45;&gt;Node34</title>
<path fill="none" stroke="midnightblue" d="M604.15,-307.73C612.41,-297.6 626.2,-280.69 636.5,-268.06"/>
<polygon fill="midnightblue" stroke="midnightblue" points="639.36,-270.09 642.97,-260.13 633.93,-265.67 639.36,-270.09"/>
</g>
<!-- Node35 -->
<g id="node35" class="node">
<title>Node35</title>
<g id="a_node35"><a xlink:href="kryne-engine_2_utils_2_utils_8h.html" target="_top" xlink:title=" ">
<polygon fill="white" stroke="black" points="473.5,-235.5 473.5,-265.5 568.5,-265.5 568.5,-235.5 473.5,-235.5"/>
<text text-anchor="start" x="481.5" y="-253.5" font-family="Helvetica,sans-Serif" font-size="10.00">kryne&#45;engine/Utils</text>
<text text-anchor="middle" x="521" y="-242.5" font-family="Helvetica,sans-Serif" font-size="10.00">/Utils.h</text>
</a>
</g>
</g>
<!-- Node33&#45;&gt;Node35 -->
<g id="edge48" class="edge">
<title>Node33&#45;&gt;Node35</title>
<path fill="none" stroke="midnightblue" d="M586.75,-307.73C576.18,-298.7 559.32,-284.27 545.32,-272.3"/>
<polygon fill="midnightblue" stroke="midnightblue" points="547.35,-269.43 537.47,-265.59 542.8,-274.75 547.35,-269.43"/>
</g>
<!-- Node36 -->
<g id="node36" class="node">
<title>Node36</title>
<g id="a_node36"><a xlink:href="_string_utils_8hpp.html" target="_top" xlink:title=" ">
<polygon fill="white" stroke="black" points="481,-56.5 481,-75.5 561,-75.5 561,-56.5 481,-56.5"/>
<text text-anchor="middle" x="521" y="-63.5" font-family="Helvetica,sans-Serif" font-size="10.00">StringUtils.hpp</text>
</a>
</g>
</g>
<!-- Node35&#45;&gt;Node36 -->
<g id="edge49" class="edge">
<title>Node35&#45;&gt;Node36</title>
<path fill="none" stroke="midnightblue" d="M521,-235.48C521,-203.1 521,-123.04 521,-86.16"/>
<polygon fill="midnightblue" stroke="midnightblue" points="524.5,-85.82 521,-75.82 517.5,-85.82 524.5,-85.82"/>
</g>
<!-- Node37 -->
<g id="node37" class="node">
<title>Node37</title>
<g id="a_node37"><a xlink:href="_vector_mapping_8hpp.html" target="_top" xlink:title=" ">
<polygon fill="white" stroke="black" points="593.5,-174 593.5,-193 694.5,-193 694.5,-174 593.5,-174"/>
<text text-anchor="middle" x="644" y="-181" font-family="Helvetica,sans-Serif" font-size="10.00">VectorMapping.hpp</text>
</a>
</g>
</g>
<!-- Node35&#45;&gt;Node37 -->
<g id="edge51" class="edge">
<title>Node35&#45;&gt;Node37</title>
<path fill="none" stroke="midnightblue" d="M547.69,-235.4C568.89,-224.19 598.32,-208.64 619.05,-197.69"/>
<polygon fill="midnightblue" stroke="midnightblue" points="620.7,-200.77 627.9,-193.01 617.43,-194.58 620.7,-200.77"/>
</g>
<!-- Node36&#45;&gt;Node15 -->
<g id="edge50" class="edge">
<title>Node36&#45;&gt;Node15</title>
<path fill="none" stroke="midnightblue" d="M510.07,-56.32C499.83,-48.18 484.28,-35.84 472,-26.09"/>
<polygon fill="midnightblue" stroke="midnightblue" points="474.13,-23.31 464.12,-19.83 469.78,-28.79 474.13,-23.31"/>
</g>
<!-- Node38 -->
<g id="node38" class="node">
<title>Node38</title>
<g id="a_node38"><a xlink:title=" ">
<polygon fill="white" stroke="#bfbfbf" points="1191,-112.5 1191,-131.5 1233,-131.5 1233,-112.5 1191,-112.5"/>
<text text-anchor="middle" x="1212" y="-119.5" font-family="Helvetica,sans-Serif" font-size="10.00">vector</text>
</a>
</g>
</g>
<!-- Node37&#45;&gt;Node38 -->
<g id="edge52" class="edge">
<title>Node37&#45;&gt;Node38</title>
<path fill="none" stroke="midnightblue" d="M694.54,-174.51C709.77,-172.24 726.55,-169.88 742,-168 906.8,-147.93 1105.03,-131.45 1180.63,-125.44"/>
<polygon fill="midnightblue" stroke="midnightblue" points="1181.18,-128.91 1190.88,-124.63 1180.63,-121.93 1181.18,-128.91"/>
</g>
<!-- Node39 -->
<g id="node39" class="node">
<title>Node39</title>
<g id="a_node39"><a xlink:title=" ">
<polygon fill="white" stroke="#bfbfbf" points="587.5,-112.5 587.5,-131.5 700.5,-131.5 700.5,-112.5 587.5,-112.5"/>
<text text-anchor="middle" x="644" y="-119.5" font-family="Helvetica,sans-Serif" font-size="10.00">glm/detail/qualifier.hpp</text>
</a>
</g>
</g>
<!-- Node37&#45;&gt;Node39 -->
<g id="edge53" class="edge">
<title>Node37&#45;&gt;Node39</title>
<path fill="none" stroke="midnightblue" d="M644,-173.98C644,-165.58 644,-152.48 644,-141.66"/>
<polygon fill="midnightblue" stroke="midnightblue" points="647.5,-141.51 644,-131.51 640.5,-141.51 647.5,-141.51"/>
</g>
<!-- Node40&#45;&gt;Node23 -->
<g id="edge58" class="edge">
<title>Node40&#45;&gt;Node23</title>
<path fill="none" stroke="midnightblue" d="M1376.38,-236.39C1373.21,-235.88 1370.07,-235.42 1367,-235 1153.26,-205.93 1094.1,-243.35 883,-199 879.57,-198.28 876.04,-197.34 872.55,-196.29"/>
<polygon fill="midnightblue" stroke="midnightblue" points="873.57,-192.94 862.97,-193.12 871.36,-199.59 873.57,-192.94"/>
</g>
<!-- Node40&#45;&gt;Node24 -->
<g id="edge59" class="edge">
<title>Node40&#45;&gt;Node24</title>
<path fill="none" stroke="midnightblue" d="M1376.38,-236.69C1316.49,-224.54 1231.17,-206.99 1198,-199 1193.66,-197.95 1189.13,-196.81 1184.63,-195.63"/>
<polygon fill="midnightblue" stroke="midnightblue" points="1185.47,-192.23 1174.91,-193.03 1183.66,-198.99 1185.47,-192.23"/>
</g>
<!-- Node40&#45;&gt;Node31 -->
<g id="edge60" class="edge">
<title>Node40&#45;&gt;Node31</title>
<path fill="none" stroke="midnightblue" d="M1404.63,-235.4C1375.78,-223.89 1335.42,-207.8 1307.86,-196.81"/>
<polygon fill="midnightblue" stroke="midnightblue" points="1308.92,-193.46 1298.33,-193.01 1306.33,-199.96 1308.92,-193.46"/>
</g>
<!-- Node40&#45;&gt;Node32 -->
<g id="edge61" class="edge">
<title>Node40&#45;&gt;Node32</title>
<path fill="none" stroke="midnightblue" d="M1424.59,-235.4C1413.19,-224.96 1397.67,-210.75 1385.93,-200"/>
<polygon fill="midnightblue" stroke="midnightblue" points="1388.24,-197.37 1378.5,-193.19 1383.51,-202.53 1388.24,-197.37"/>
</g>
<!-- Node40&#45;&gt;Node38 -->
<g id="edge55" class="edge">
<title>Node40&#45;&gt;Node38</title>
<path fill="none" stroke="midnightblue" d="M1376.39,-235.8C1316.87,-222.73 1236.31,-204.27 1231,-199 1216.02,-184.13 1212.22,-159.36 1211.55,-142.16"/>
<polygon fill="midnightblue" stroke="midnightblue" points="1215.05,-141.65 1211.49,-131.67 1208.05,-141.69 1215.05,-141.65"/>
</g>
<!-- Node41 -->
<g id="node41" class="node">
<title>Node41</title>
<g id="a_node41"><a xlink:title=" ">
<polygon fill="white" stroke="#bfbfbf" points="1424,-174 1424,-193 1476,-193 1476,-174 1424,-174"/>
<text text-anchor="middle" x="1450" y="-181" font-family="Helvetica,sans-Serif" font-size="10.00">stdarg.h</text>
</a>
</g>
</g>
<!-- Node40&#45;&gt;Node41 -->
<g id="edge56" class="edge">
<title>Node40&#45;&gt;Node41</title>
<path fill="none" stroke="midnightblue" d="M1442.17,-235.4C1443.62,-225.96 1445.55,-213.45 1447.12,-203.19"/>
<polygon fill="midnightblue" stroke="midnightblue" points="1450.6,-203.61 1448.66,-193.19 1443.68,-202.55 1450.6,-203.61"/>
</g>
<!-- Node42 -->
<g id="node42" class="node">
<title>Node42</title>
<g id="a_node42"><a xlink:title=" ">
<polygon fill="white" stroke="#bfbfbf" points="1494,-174 1494,-193 1542,-193 1542,-174 1494,-174"/>
<text text-anchor="middle" x="1518" y="-181" font-family="Helvetica,sans-Serif" font-size="10.00">stdlib.h</text>
</a>
</g>
</g>
<!-- Node40&#45;&gt;Node42 -->
<g id="edge57" class="edge">
<title>Node40&#45;&gt;Node42</title>
<path fill="none" stroke="midnightblue" d="M1456.92,-235.4C1469.57,-224.86 1486.83,-210.48 1499.77,-199.69"/>
<polygon fill="midnightblue" stroke="midnightblue" points="1502.12,-202.29 1507.57,-193.19 1497.64,-196.91 1502.12,-202.29"/>
</g>
<!-- Node43&#45;&gt;Node31 -->
<g id="edge65" class="edge">
<title>Node43&#45;&gt;Node31</title>
<path fill="none" stroke="midnightblue" d="M1521.29,-236.31C1444.61,-222.17 1332.66,-201.42 1323,-199 1319.38,-198.09 1315.62,-197.06 1311.88,-195.98"/>
<polygon fill="midnightblue" stroke="midnightblue" points="1312.74,-192.58 1302.15,-193.03 1310.71,-199.28 1312.74,-192.58"/>
</g>
<!-- Node43&#45;&gt;Node32 -->
<g id="edge66" class="edge">
<title>Node43&#45;&gt;Node32</title>
<path fill="none" stroke="midnightblue" d="M1541.86,-235.41C1506.22,-225.49 1457.62,-211.76 1415,-199 1411.87,-198.06 1408.63,-197.08 1405.38,-196.07"/>
<polygon fill="midnightblue" stroke="midnightblue" points="1406.3,-192.7 1395.72,-193.07 1404.22,-199.38 1406.3,-192.7"/>
</g>
<!-- Node43&#45;&gt;Node38 -->
<g id="edge63" class="edge">
<title>Node43&#45;&gt;Node38</title>
<path fill="none" stroke="midnightblue" d="M1589.97,-235.32C1585.17,-216.6 1573.91,-184.13 1551,-168 1501.72,-133.3 1317.41,-125.34 1243.22,-123.53"/>
<polygon fill="midnightblue" stroke="midnightblue" points="1243.18,-120.02 1233.1,-123.3 1243.02,-127.02 1243.18,-120.02"/>
</g>
<!-- Node44 -->
<g id="node44" class="node">
<title>Node44</title>
<g id="a_node44"><a xlink:title=" ">
<polygon fill="white" stroke="#bfbfbf" points="1598,-174 1598,-193 1642,-193 1642,-174 1598,-174"/>
<text text-anchor="middle" x="1620" y="-181" font-family="Helvetica,sans-Serif" font-size="10.00">cmath</text>
</a>
</g>
</g>
<!-- Node43&#45;&gt;Node44 -->
<g id="edge64" class="edge">
<title>Node43&#45;&gt;Node44</title>
<path fill="none" stroke="midnightblue" d="M1598.86,-235.4C1602.86,-225.76 1608.2,-212.91 1612.51,-202.54"/>
<polygon fill="midnightblue" stroke="midnightblue" points="1615.78,-203.77 1616.39,-193.19 1609.32,-201.09 1615.78,-203.77"/>
</g>
<!-- Node45 -->
<g id="node45" class="node">
<title>Node45</title>
<g id="a_node45"><a xlink:href="_cube_vertex_data_8h.html" target="_top" xlink:title=" ">
<polygon fill="white" stroke="black" points="1660.5,-168.5 1660.5,-198.5 1779.5,-198.5 1779.5,-168.5 1660.5,-168.5"/>
<text text-anchor="start" x="1668.5" y="-186.5" font-family="Helvetica,sans-Serif" font-size="10.00">kryne&#45;engine/Constants</text>
<text text-anchor="middle" x="1720" y="-175.5" font-family="Helvetica,sans-Serif" font-size="10.00">/CubeVertexData.h</text>
</a>
</g>
</g>
<!-- Node43&#45;&gt;Node45 -->
<g id="edge67" class="edge">
<title>Node43&#45;&gt;Node45</title>
<path fill="none" stroke="midnightblue" d="M1620.56,-235.4C1638.95,-225.98 1663.33,-213.5 1683.35,-203.26"/>
<polygon fill="midnightblue" stroke="midnightblue" points="1685.19,-206.25 1692.5,-198.58 1682,-200.02 1685.19,-206.25"/>
</g>
<!-- Node46&#45;&gt;Node28 -->
<g id="edge69" class="edge">
<title>Node46&#45;&gt;Node28</title>
<path fill="none" stroke="midnightblue" d="M891.74,-369.22C895.02,-352.83 900.96,-325.22 908,-302 910.67,-293.21 914.08,-283.73 917.28,-275.4"/>
<polygon fill="midnightblue" stroke="midnightblue" points="920.6,-276.5 921,-265.91 914.09,-273.94 920.6,-276.5"/>
</g>
<!-- Node47&#45;&gt;Node2 -->
<g id="edge72" class="edge">
<title>Node47&#45;&gt;Node2</title>
<path fill="none" stroke="midnightblue" d="M915.95,-503.4C902.35,-494.28 884.46,-482.29 869.45,-472.24"/>
<polygon fill="midnightblue" stroke="midnightblue" points="871.26,-469.24 861.01,-466.58 867.37,-475.05 871.26,-469.24"/>
</g>
<!-- Node47&#45;&gt;Node46 -->
<g id="edge71" class="edge">
<title>Node47&#45;&gt;Node46</title>
<path fill="none" stroke="midnightblue" d="M934.98,-503.28C932.33,-486.71 926.94,-458.71 918,-436 914.25,-426.47 908.92,-416.57 903.85,-408.09"/>
<polygon fill="midnightblue" stroke="midnightblue" points="906.79,-406.18 898.55,-399.52 900.84,-409.87 906.79,-406.18"/>
</g>
</g>
</svg>
