<?xml version="1.0" encoding="UTF-8" standalone="no"?>
<!DOCTYPE svg PUBLIC "-//W3C//DTD SVG 1.1//EN"
 "http://www.w3.org/Graphics/SVG/1.1/DTD/svg11.dtd">
<!-- Generated by graphviz version 2.44.1 (20200629.0846)
 -->
<!-- Title: kryne&#45;engine/include/kryne&#45;engine/Rendering/RenderPass.h Pages: 1 -->
<svg width="1450pt" height="374pt"
 viewBox="0.00 0.00 1450.00 374.00" xmlns="http://www.w3.org/2000/svg" xmlns:xlink="http://www.w3.org/1999/xlink">
<g id="graph0" class="graph" transform="scale(1 1) rotate(0) translate(4 370)">
<title>kryne&#45;engine/include/kryne&#45;engine/Rendering/RenderPass.h</title>
<polygon fill="white" stroke="transparent" points="-4,4 -4,-370 1446,-370 1446,4 -4,4"/>
<!-- Node1 -->
<g id="node1" class="node">
<title>Node1</title>
<g id="a_node1"><a xlink:title=" ">
<polygon fill="#bfbfbf" stroke="black" points="793,-324.5 793,-365.5 915,-365.5 915,-324.5 793,-324.5"/>
<text text-anchor="start" x="801" y="-353.5" font-family="Helvetica,sans-Serif" font-size="10.00">kryne&#45;engine/include</text>
<text text-anchor="start" x="801" y="-342.5" font-family="Helvetica,sans-Serif" font-size="10.00">/kryne&#45;engine/Rendering</text>
<text text-anchor="middle" x="854" y="-331.5" font-family="Helvetica,sans-Serif" font-size="10.00">/RenderPass.h</text>
</a>
</g>
</g>
<!-- Node2 -->
<g id="node2" class="node">
<title>Node2</title>
<g id="a_node2"><a xlink:href="_window_8h.html" target="_top" xlink:title=" ">
<polygon fill="white" stroke="black" points="404.5,-129 404.5,-148 545.5,-148 545.5,-129 404.5,-129"/>
<text text-anchor="middle" x="475" y="-136" font-family="Helvetica,sans-Serif" font-size="10.00">kryne&#45;engine/Core/Window.h</text>
</a>
</g>
</g>
<!-- Node1&#45;&gt;Node2 -->
<g id="edge1" class="edge">
<title>Node1&#45;&gt;Node2</title>
<path fill="none" stroke="midnightblue" d="M817.66,-324.39C741.18,-283.12 565.27,-188.21 499.99,-152.98"/>
<polygon fill="midnightblue" stroke="midnightblue" points="501.3,-149.71 490.84,-148.04 497.97,-155.87 501.3,-149.71"/>
</g>
<!-- Node20 -->
<g id="node20" class="node">
<title>Node20</title>
<g id="a_node20"><a xlink:href="_hierarchical_node_8h.html" target="_top" xlink:title=" ">
<polygon fill="white" stroke="black" points="838.5,-257.5 838.5,-287.5 959.5,-287.5 959.5,-257.5 838.5,-257.5"/>
<text text-anchor="start" x="846.5" y="-275.5" font-family="Helvetica,sans-Serif" font-size="10.00">kryne&#45;engine/3DObjects</text>
<text text-anchor="middle" x="899" y="-264.5" font-family="Helvetica,sans-Serif" font-size="10.00">/HierarchicalNode.h</text>
</a>
</g>
</g>
<!-- Node1&#45;&gt;Node20 -->
<g id="edge23" class="edge">
<title>Node1&#45;&gt;Node20</title>
<path fill="none" stroke="midnightblue" d="M860.41,-324.36C865.26,-315.59 871.81,-305.21 878.21,-296.12"/>
<polygon fill="midnightblue" stroke="midnightblue" points="881.16,-298.02 884.25,-287.89 875.51,-293.88 881.16,-298.02"/>
</g>
<!-- Node21 -->
<g id="node21" class="node">
<title>Node21</title>
<g id="a_node21"><a xlink:href="3_d_objects_2_base_object_8h.html" target="_top" xlink:title=" ">
<polygon fill="white" stroke="black" points="749.5,-190.5 749.5,-220.5 870.5,-220.5 870.5,-190.5 749.5,-190.5"/>
<text text-anchor="start" x="757.5" y="-208.5" font-family="Helvetica,sans-Serif" font-size="10.00">kryne&#45;engine/3DObjects</text>
<text text-anchor="middle" x="810" y="-197.5" font-family="Helvetica,sans-Serif" font-size="10.00">/BaseObject.h</text>
</a>
</g>
</g>
<!-- Node1&#45;&gt;Node21 -->
<g id="edge58" class="edge">
<title>Node1&#45;&gt;Node21</title>
<path fill="none" stroke="midnightblue" d="M844.15,-324.41C839.11,-313.83 833.17,-300.41 829,-288 822.62,-269.02 817.6,-246.86 814.33,-230.44"/>
<polygon fill="midnightblue" stroke="midnightblue" points="817.76,-229.73 812.43,-220.57 810.88,-231.05 817.76,-229.73"/>
</g>
<!-- Node3 -->
<g id="node3" class="node">
<title>Node3</title>
<g id="a_node3"><a xlink:title=" ">
<polygon fill="white" stroke="#bfbfbf" points="0,-0.5 0,-19.5 42,-19.5 42,-0.5 0,-0.5"/>
<text text-anchor="middle" x="21" y="-7.5" font-family="Helvetica,sans-Serif" font-size="10.00">vector</text>
</a>
</g>
</g>
<!-- Node2&#45;&gt;Node3 -->
<g id="edge2" class="edge">
<title>Node2&#45;&gt;Node3</title>
<path fill="none" stroke="midnightblue" d="M404.5,-132.87C351.4,-127.22 277.93,-114.71 219,-87 199.28,-77.73 200.36,-66.01 181,-56 130.45,-29.86 110.64,-35.88 52.04,-20.16"/>
<polygon fill="midnightblue" stroke="midnightblue" points="52.86,-16.76 42.29,-17.45 50.98,-23.5 52.86,-16.76"/>
</g>
<!-- Node4 -->
<g id="node4" class="node">
<title>Node4</title>
<g id="a_node4"><a xlink:title=" ">
<polygon fill="white" stroke="#bfbfbf" points="94,-62 94,-81 172,-81 172,-62 94,-62"/>
<text text-anchor="middle" x="133" y="-69" font-family="Helvetica,sans-Serif" font-size="10.00">unordered_set</text>
</a>
</g>
</g>
<!-- Node2&#45;&gt;Node4 -->
<g id="edge3" class="edge">
<title>Node2&#45;&gt;Node4</title>
<path fill="none" stroke="midnightblue" d="M416.84,-128.98C358.25,-120.02 265.41,-104.76 186,-87 181.53,-86 176.88,-84.87 172.26,-83.68"/>
<polygon fill="midnightblue" stroke="midnightblue" points="172.88,-80.23 162.31,-81.05 171.08,-86.99 172.88,-80.23"/>
</g>
<!-- Node5 -->
<g id="node5" class="node">
<title>Node5</title>
<g id="a_node5"><a xlink:title=" ">
<polygon fill="white" stroke="#bfbfbf" points="732.5,-62 732.5,-81 781.5,-81 781.5,-62 732.5,-62"/>
<text text-anchor="middle" x="757" y="-69" font-family="Helvetica,sans-Serif" font-size="10.00">cstdarg</text>
</a>
</g>
</g>
<!-- Node2&#45;&gt;Node5 -->
<g id="edge4" class="edge">
<title>Node2&#45;&gt;Node5</title>
<path fill="none" stroke="midnightblue" d="M512.16,-128.94C566.98,-116.3 668.8,-92.83 722.23,-80.52"/>
<polygon fill="midnightblue" stroke="midnightblue" points="723.28,-83.86 732.24,-78.21 721.71,-77.04 723.28,-83.86"/>
</g>
<!-- Node6 -->
<g id="node6" class="node">
<title>Node6</title>
<g id="a_node6"><a xlink:title=" ">
<polygon fill="white" stroke="#bfbfbf" points="228.5,-62 228.5,-81 273.5,-81 273.5,-62 228.5,-62"/>
<text text-anchor="middle" x="251" y="-69" font-family="Helvetica,sans-Serif" font-size="10.00">cstdlib</text>
</a>
</g>
</g>
<!-- Node2&#45;&gt;Node6 -->
<g id="edge5" class="edge">
<title>Node2&#45;&gt;Node6</title>
<path fill="none" stroke="midnightblue" d="M433.68,-128.97C394.14,-120.29 333.14,-105.48 282,-87 280.39,-86.42 278.74,-85.78 277.1,-85.11"/>
<polygon fill="midnightblue" stroke="midnightblue" points="278.38,-81.86 267.82,-81.04 275.57,-88.27 278.38,-81.86"/>
</g>
<!-- Node7 -->
<g id="node7" class="node">
<title>Node7</title>
<g id="a_node7"><a xlink:title=" ">
<polygon fill="white" stroke="#bfbfbf" points="1158,-0.5 1158,-19.5 1212,-19.5 1212,-0.5 1158,-0.5"/>
<text text-anchor="middle" x="1185" y="-7.5" font-family="Helvetica,sans-Serif" font-size="10.00">iostream</text>
</a>
</g>
</g>
<!-- Node2&#45;&gt;Node7 -->
<g id="edge6" class="edge">
<title>Node2&#45;&gt;Node7</title>
<path fill="none" stroke="midnightblue" d="M545.92,-130.68C672.61,-118.39 926.37,-93.22 945,-87 970.52,-78.48 972.06,-66.11 997,-56 1058.45,-31.09 1079.64,-35.9 1147.93,-20.18"/>
<polygon fill="midnightblue" stroke="midnightblue" points="1148.96,-23.53 1157.88,-17.82 1147.34,-16.72 1148.96,-23.53"/>
</g>
<!-- Node8 -->
<g id="node8" class="node">
<title>Node8</title>
<g id="a_node8"><a xlink:title=" ">
<polygon fill="white" stroke="#bfbfbf" points="542,-0.5 542,-19.5 606,-19.5 606,-0.5 542,-0.5"/>
<text text-anchor="middle" x="574" y="-7.5" font-family="Helvetica,sans-Serif" font-size="10.00">glad/glad.h</text>
</a>
</g>
</g>
<!-- Node2&#45;&gt;Node8 -->
<g id="edge7" class="edge">
<title>Node2&#45;&gt;Node8</title>
<path fill="none" stroke="midnightblue" d="M497.02,-128.85C514.97,-120.68 539.62,-106.73 554,-87 566.27,-70.16 571.02,-46.36 572.85,-29.9"/>
<polygon fill="midnightblue" stroke="midnightblue" points="576.35,-30.11 573.71,-19.85 569.37,-29.51 576.35,-30.11"/>
</g>
<!-- Node9 -->
<g id="node9" class="node">
<title>Node9</title>
<g id="a_node9"><a xlink:title=" ">
<polygon fill="white" stroke="#bfbfbf" points="624,-0.5 624,-19.5 702,-19.5 702,-0.5 624,-0.5"/>
<text text-anchor="middle" x="663" y="-7.5" font-family="Helvetica,sans-Serif" font-size="10.00">GLFW/glfw3.h</text>
</a>
</g>
</g>
<!-- Node2&#45;&gt;Node9 -->
<g id="edge8" class="edge">
<title>Node2&#45;&gt;Node9</title>
<path fill="none" stroke="midnightblue" d="M495.34,-129C516.14,-119.9 548.98,-104.42 575,-87 602.1,-68.85 630.04,-43.34 646.97,-26.99"/>
<polygon fill="midnightblue" stroke="midnightblue" points="649.65,-29.27 654.35,-19.77 644.75,-24.26 649.65,-29.27"/>
</g>
<!-- Node10 -->
<g id="node10" class="node">
<title>Node10</title>
<g id="a_node10"><a xlink:href="_additional_parameters_8h.html" target="_top" xlink:title=" ">
<polygon fill="white" stroke="black" points="1216,-62 1216,-81 1334,-81 1334,-62 1216,-62"/>
<text text-anchor="middle" x="1275" y="-69" font-family="Helvetica,sans-Serif" font-size="10.00">AdditionalParameters.h</text>
</a>
</g>
</g>
<!-- Node2&#45;&gt;Node10 -->
<g id="edge9" class="edge">
<title>Node2&#45;&gt;Node10</title>
<path fill="none" stroke="midnightblue" d="M545.63,-130.54C572.37,-128.02 603.07,-125.23 631,-123 869.88,-103.91 930.58,-111.25 1169,-87 1181.61,-85.72 1195.03,-84.09 1207.94,-82.39"/>
<polygon fill="midnightblue" stroke="midnightblue" points="1208.71,-85.82 1218.15,-81.01 1207.77,-78.88 1208.71,-85.82"/>
</g>
<!-- Node14 -->
<g id="node14" class="node">
<title>Node14</title>
<g id="a_node14"><a xlink:href="_old_camera_8h.html" target="_top" xlink:title=" ">
<polygon fill="white" stroke="black" points="291.5,-56.5 291.5,-86.5 400.5,-86.5 400.5,-56.5 291.5,-56.5"/>
<text text-anchor="start" x="299.5" y="-74.5" font-family="Helvetica,sans-Serif" font-size="10.00">kryne&#45;engine/Camera</text>
<text text-anchor="middle" x="346" y="-63.5" font-family="Helvetica,sans-Serif" font-size="10.00">/OldCamera.h</text>
</a>
</g>
</g>
<!-- Node2&#45;&gt;Node14 -->
<g id="edge13" class="edge">
<title>Node2&#45;&gt;Node14</title>
<path fill="none" stroke="midnightblue" d="M453.11,-128.87C432.2,-119.36 400.78,-103.77 377.29,-91.39"/>
<polygon fill="midnightblue" stroke="midnightblue" points="378.87,-88.26 368.4,-86.65 375.58,-94.44 378.87,-88.26"/>
</g>
<!-- Node11 -->
<g id="node11" class="node">
<title>Node11</title>
<g id="a_node11"><a xlink:title=" ">
<polygon fill="white" stroke="#bfbfbf" points="1356.5,-0.5 1356.5,-19.5 1391.5,-19.5 1391.5,-0.5 1356.5,-0.5"/>
<text text-anchor="middle" x="1374" y="-7.5" font-family="Helvetica,sans-Serif" font-size="10.00">map</text>
</a>
</g>
</g>
<!-- Node10&#45;&gt;Node11 -->
<g id="edge10" class="edge">
<title>Node10&#45;&gt;Node11</title>
<path fill="none" stroke="midnightblue" d="M1289.18,-61.98C1305.36,-52.25 1332.03,-36.23 1351.14,-24.74"/>
<polygon fill="midnightblue" stroke="midnightblue" points="1353.07,-27.66 1359.84,-19.51 1349.47,-21.66 1353.07,-27.66"/>
</g>
<!-- Node12 -->
<g id="node12" class="node">
<title>Node12</title>
<g id="a_node12"><a xlink:title=" ">
<polygon fill="white" stroke="#bfbfbf" points="1230.5,-0.5 1230.5,-19.5 1271.5,-19.5 1271.5,-0.5 1230.5,-0.5"/>
<text text-anchor="middle" x="1251" y="-7.5" font-family="Helvetica,sans-Serif" font-size="10.00">string</text>
</a>
</g>
</g>
<!-- Node10&#45;&gt;Node12 -->
<g id="edge11" class="edge">
<title>Node10&#45;&gt;Node12</title>
<path fill="none" stroke="midnightblue" d="M1271.56,-61.98C1268.1,-53.4 1262.67,-39.93 1258.25,-28.98"/>
<polygon fill="midnightblue" stroke="midnightblue" points="1261.42,-27.47 1254.43,-19.51 1254.93,-30.09 1261.42,-27.47"/>
</g>
<!-- Node13 -->
<g id="node13" class="node">
<title>Node13</title>
<g id="a_node13"><a xlink:title=" ">
<polygon fill="white" stroke="#bfbfbf" points="1410,-0.5 1410,-19.5 1442,-19.5 1442,-0.5 1410,-0.5"/>
<text text-anchor="middle" x="1426" y="-7.5" font-family="Helvetica,sans-Serif" font-size="10.00">any</text>
</a>
</g>
</g>
<!-- Node10&#45;&gt;Node13 -->
<g id="edge12" class="edge">
<title>Node10&#45;&gt;Node13</title>
<path fill="none" stroke="midnightblue" d="M1296.63,-61.98C1324.06,-51.17 1371.28,-32.56 1400.45,-21.07"/>
<polygon fill="midnightblue" stroke="midnightblue" points="1401.94,-24.24 1409.96,-17.32 1399.37,-17.73 1401.94,-24.24"/>
</g>
<!-- Node14&#45;&gt;Node2 -->
<g id="edge22" class="edge">
<title>Node14&#45;&gt;Node2</title>
<path fill="none" stroke="midnightblue" d="M379.64,-86.59C403.05,-97.65 433.42,-112.97 453.62,-123.9"/>
<polygon fill="midnightblue" stroke="midnightblue" points="451.94,-126.97 462.39,-128.73 455.32,-120.84 451.94,-126.97"/>
</g>
<!-- Node14&#45;&gt;Node3 -->
<g id="edge14" class="edge">
<title>Node14&#45;&gt;Node3</title>
<path fill="none" stroke="midnightblue" d="M291.24,-57.84C288.12,-57.19 285.02,-56.58 282,-56 183.03,-37.1 154.07,-42.61 51.99,-19.96"/>
<polygon fill="midnightblue" stroke="midnightblue" points="52.73,-16.54 42.21,-17.75 51.19,-23.37 52.73,-16.54"/>
</g>
<!-- Node14&#45;&gt;Node8 -->
<g id="edge17" class="edge">
<title>Node14&#45;&gt;Node8</title>
<path fill="none" stroke="midnightblue" d="M399.74,-56.47C440.06,-45.95 494.48,-31.75 531.71,-22.03"/>
<polygon fill="midnightblue" stroke="midnightblue" points="532.94,-25.33 541.74,-19.42 531.18,-18.56 532.94,-25.33"/>
</g>
<!-- Node14&#45;&gt;Node9 -->
<g id="edge18" class="edge">
<title>Node14&#45;&gt;Node9</title>
<path fill="none" stroke="midnightblue" d="M400.6,-57.75C403.44,-57.14 406.25,-56.56 409,-56 496.98,-38.2 521.86,-36.65 613.94,-20.17"/>
<polygon fill="midnightblue" stroke="midnightblue" points="614.75,-23.58 623.97,-18.36 613.51,-16.69 614.75,-23.58"/>
</g>
<!-- Node15 -->
<g id="node15" class="node">
<title>Node15</title>
<g id="a_node15"><a xlink:title=" ">
<polygon fill="white" stroke="#bfbfbf" points="314,-0.5 314,-19.5 366,-19.5 366,-0.5 314,-0.5"/>
<text text-anchor="middle" x="340" y="-7.5" font-family="Helvetica,sans-Serif" font-size="10.00">stdarg.h</text>
</a>
</g>
</g>
<!-- Node14&#45;&gt;Node15 -->
<g id="edge15" class="edge">
<title>Node14&#45;&gt;Node15</title>
<path fill="none" stroke="midnightblue" d="M344.58,-56.4C343.78,-48.47 342.77,-38.46 341.9,-29.86"/>
<polygon fill="midnightblue" stroke="midnightblue" points="345.36,-29.26 340.87,-19.66 338.39,-29.96 345.36,-29.26"/>
</g>
<!-- Node16 -->
<g id="node16" class="node">
<title>Node16</title>
<g id="a_node16"><a xlink:title=" ">
<polygon fill="white" stroke="#bfbfbf" points="384,-0.5 384,-19.5 432,-19.5 432,-0.5 384,-0.5"/>
<text text-anchor="middle" x="408" y="-7.5" font-family="Helvetica,sans-Serif" font-size="10.00">stdlib.h</text>
</a>
</g>
</g>
<!-- Node14&#45;&gt;Node16 -->
<g id="edge16" class="edge">
<title>Node14&#45;&gt;Node16</title>
<path fill="none" stroke="midnightblue" d="M360.69,-56.4C369.98,-47.49 382,-35.95 391.6,-26.74"/>
<polygon fill="midnightblue" stroke="midnightblue" points="394.19,-29.11 398.98,-19.66 389.34,-24.06 394.19,-29.11"/>
</g>
<!-- Node17 -->
<g id="node17" class="node">
<title>Node17</title>
<g id="a_node17"><a xlink:title=" ">
<polygon fill="white" stroke="#bfbfbf" points="222,-0.5 222,-19.5 296,-19.5 296,-0.5 222,-0.5"/>
<text text-anchor="middle" x="259" y="-7.5" font-family="Helvetica,sans-Serif" font-size="10.00">glm/vec3.hpp</text>
</a>
</g>
</g>
<!-- Node14&#45;&gt;Node17 -->
<g id="edge19" class="edge">
<title>Node14&#45;&gt;Node17</title>
<path fill="none" stroke="midnightblue" d="M325.38,-56.4C311.7,-47.04 293.79,-34.79 280.02,-25.38"/>
<polygon fill="midnightblue" stroke="midnightblue" points="281.89,-22.41 271.66,-19.66 277.94,-28.19 281.89,-22.41"/>
</g>
<!-- Node18 -->
<g id="node18" class="node">
<title>Node18</title>
<g id="a_node18"><a xlink:title=" ">
<polygon fill="white" stroke="#bfbfbf" points="720,-0.5 720,-19.5 806,-19.5 806,-0.5 720,-0.5"/>
<text text-anchor="middle" x="763" y="-7.5" font-family="Helvetica,sans-Serif" font-size="10.00">glm/mat4x4.hpp</text>
</a>
</g>
</g>
<!-- Node14&#45;&gt;Node18 -->
<g id="edge20" class="edge">
<title>Node14&#45;&gt;Node18</title>
<path fill="none" stroke="midnightblue" d="M400.56,-57.56C403.41,-57.01 406.24,-56.48 409,-56 538.92,-33.37 575.47,-39.22 709.64,-20.12"/>
<polygon fill="midnightblue" stroke="midnightblue" points="710.5,-23.53 719.9,-18.64 709.5,-16.61 710.5,-23.53"/>
</g>
<!-- Node19 -->
<g id="node19" class="node">
<title>Node19</title>
<g id="a_node19"><a xlink:title=" ">
<polygon fill="white" stroke="#bfbfbf" points="60.5,-0.5 60.5,-19.5 203.5,-19.5 203.5,-0.5 60.5,-0.5"/>
<text text-anchor="middle" x="132" y="-7.5" font-family="Helvetica,sans-Serif" font-size="10.00">glm/gtc/matrix_transform.hpp</text>
</a>
</g>
</g>
<!-- Node14&#45;&gt;Node19 -->
<g id="edge21" class="edge">
<title>Node14&#45;&gt;Node19</title>
<path fill="none" stroke="midnightblue" d="M295.56,-56.47C257.99,-46.03 207.38,-31.96 172.45,-22.25"/>
<polygon fill="midnightblue" stroke="midnightblue" points="173.17,-18.81 162.59,-19.51 171.29,-25.56 173.17,-18.81"/>
</g>
<!-- Node20&#45;&gt;Node1 -->
<g id="edge25" class="edge">
<title>Node20&#45;&gt;Node1</title>
<path fill="none" stroke="midnightblue" d="M895.38,-287.89C891.24,-296.02 884.92,-306.47 878.4,-316.14"/>
<polygon fill="midnightblue" stroke="midnightblue" points="875.51,-314.16 872.66,-324.36 881.25,-318.17 875.51,-314.16"/>
</g>
<!-- Node20&#45;&gt;Node5 -->
<g id="edge24" class="edge">
<title>Node20&#45;&gt;Node5</title>
<path fill="none" stroke="midnightblue" d="M909.16,-257.24C928.06,-228.79 964.03,-164.19 933,-123 924.36,-111.53 840.27,-91.1 791.52,-80.07"/>
<polygon fill="midnightblue" stroke="midnightblue" points="792.22,-76.64 781.69,-77.86 790.69,-83.47 792.22,-76.64"/>
</g>
<!-- Node20&#45;&gt;Node10 -->
<g id="edge57" class="edge">
<title>Node20&#45;&gt;Node10</title>
<path fill="none" stroke="midnightblue" d="M933.04,-257.37C982.01,-236.64 1074.74,-195.88 1150,-154 1188.14,-132.78 1230.22,-104.19 1254.53,-87.12"/>
<polygon fill="midnightblue" stroke="midnightblue" points="1256.79,-89.81 1262.94,-81.19 1252.75,-84.1 1256.79,-89.81"/>
</g>
<!-- Node20&#45;&gt;Node21 -->
<g id="edge26" class="edge">
<title>Node20&#45;&gt;Node21</title>
<path fill="none" stroke="midnightblue" d="M879.69,-257.4C867.33,-248.37 851.1,-236.51 837.41,-226.52"/>
<polygon fill="midnightblue" stroke="midnightblue" points="839.41,-223.65 829.27,-220.58 835.29,-229.3 839.41,-223.65"/>
</g>
<!-- Node21&#45;&gt;Node8 -->
<g id="edge27" class="edge">
<title>Node21&#45;&gt;Node8</title>
<path fill="none" stroke="midnightblue" d="M749.12,-200.81C711.04,-195.53 663.27,-183.07 631,-154 594.02,-120.69 580.68,-60.18 576.15,-29.66"/>
<polygon fill="midnightblue" stroke="midnightblue" points="579.6,-29.01 574.82,-19.55 572.66,-29.93 579.6,-29.01"/>
</g>
<!-- Node21&#45;&gt;Node9 -->
<g id="edge28" class="edge">
<title>Node21&#45;&gt;Node9</title>
<path fill="none" stroke="midnightblue" d="M800.67,-190.4C789.66,-173.94 770.61,-146.05 753,-123 740.35,-106.45 736.12,-103.17 723,-87 706.71,-66.92 688.34,-43.53 676.26,-28.06"/>
<polygon fill="midnightblue" stroke="midnightblue" points="678.85,-25.69 669.94,-19.95 673.33,-29.99 678.85,-25.69"/>
</g>
<!-- Node21&#45;&gt;Node10 -->
<g id="edge55" class="edge">
<title>Node21&#45;&gt;Node10</title>
<path fill="none" stroke="midnightblue" d="M870.58,-198.57C929.82,-191.68 1022.08,-178.08 1099,-154 1155.74,-136.24 1217.94,-104.21 1251.07,-86.04"/>
<polygon fill="midnightblue" stroke="midnightblue" points="1252.95,-89 1260,-81.09 1249.56,-82.88 1252.95,-89"/>
</g>
<!-- Node21&#45;&gt;Node18 -->
<g id="edge29" class="edge">
<title>Node21&#45;&gt;Node18</title>
<path fill="none" stroke="midnightblue" d="M809.97,-190.13C809.51,-163.1 806.52,-103.14 790,-56 786.58,-46.24 780.88,-36.28 775.6,-28.22"/>
<polygon fill="midnightblue" stroke="midnightblue" points="778.31,-26 769.75,-19.76 772.55,-29.98 778.31,-26"/>
</g>
<!-- Node22 -->
<g id="node22" class="node">
<title>Node22</title>
<g id="a_node22"><a xlink:title=" ">
<polygon fill="white" stroke="#bfbfbf" points="838,-129 838,-148 924,-148 924,-129 838,-129"/>
<text text-anchor="middle" x="881" y="-136" font-family="Helvetica,sans-Serif" font-size="10.00">glm/mat3x3.hpp</text>
</a>
</g>
</g>
<!-- Node21&#45;&gt;Node22 -->
<g id="edge30" class="edge">
<title>Node21&#45;&gt;Node22</title>
<path fill="none" stroke="midnightblue" d="M825.41,-190.4C836.81,-179.96 852.33,-165.75 864.07,-155"/>
<polygon fill="midnightblue" stroke="midnightblue" points="866.49,-157.53 871.5,-148.19 861.76,-152.37 866.49,-157.53"/>
</g>
<!-- Node23 -->
<g id="node23" class="node">
<title>Node23</title>
<g id="a_node23"><a xlink:href="_shader_8h.html" target="_top" xlink:title=" ">
<polygon fill="white" stroke="black" points="980,-123.5 980,-153.5 1090,-153.5 1090,-123.5 980,-123.5"/>
<text text-anchor="start" x="988" y="-141.5" font-family="Helvetica,sans-Serif" font-size="10.00">kryne&#45;engine/Material</text>
<text text-anchor="middle" x="1035" y="-130.5" font-family="Helvetica,sans-Serif" font-size="10.00">/Shader.h</text>
</a>
</g>
</g>
<!-- Node21&#45;&gt;Node23 -->
<g id="edge31" class="edge">
<title>Node21&#45;&gt;Node23</title>
<path fill="none" stroke="midnightblue" d="M858.54,-190.48C893.03,-180.51 939.51,-167.09 976.11,-156.51"/>
<polygon fill="midnightblue" stroke="midnightblue" points="977.52,-159.75 986.15,-153.61 975.58,-153.02 977.52,-159.75"/>
</g>
<!-- Node31 -->
<g id="node31" class="node">
<title>Node31</title>
<g id="a_node31"><a xlink:href="_vertex_array_8h.html" target="_top" xlink:title=" ">
<polygon fill="white" stroke="black" points="418.5,-56.5 418.5,-86.5 545.5,-86.5 545.5,-56.5 418.5,-56.5"/>
<text text-anchor="start" x="426.5" y="-74.5" font-family="Helvetica,sans-Serif" font-size="10.00">kryne&#45;engine/Core/Vertex</text>
<text text-anchor="middle" x="482" y="-63.5" font-family="Helvetica,sans-Serif" font-size="10.00">Array.h</text>
</a>
</g>
</g>
<!-- Node21&#45;&gt;Node31 -->
<g id="edge47" class="edge">
<title>Node21&#45;&gt;Node31</title>
<path fill="none" stroke="midnightblue" d="M749.07,-196.29C705.58,-188.94 646.46,-175.86 598,-154 576.19,-144.16 573.57,-136.76 554,-123 539.66,-112.92 523.69,-101.72 510.45,-92.43"/>
<polygon fill="midnightblue" stroke="midnightblue" points="512.38,-89.51 502.18,-86.64 508.36,-95.24 512.38,-89.51"/>
</g>
<!-- Node33 -->
<g id="node33" class="node">
<title>Node33</title>
<g id="a_node33"><a xlink:href="enums_2_base_object_8h.html" target="_top" xlink:title=" ">
<polygon fill="white" stroke="black" points="640,-123.5 640,-153.5 744,-153.5 744,-123.5 640,-123.5"/>
<text text-anchor="start" x="648" y="-141.5" font-family="Helvetica,sans-Serif" font-size="10.00">kryne&#45;engine/enums</text>
<text text-anchor="middle" x="692" y="-130.5" font-family="Helvetica,sans-Serif" font-size="10.00">/BaseObject.h</text>
</a>
</g>
</g>
<!-- Node21&#45;&gt;Node33 -->
<g id="edge56" class="edge">
<title>Node21&#45;&gt;Node33</title>
<path fill="none" stroke="midnightblue" d="M784.4,-190.4C767.46,-181.07 745.06,-168.73 726.55,-158.53"/>
<polygon fill="midnightblue" stroke="midnightblue" points="728,-155.34 717.55,-153.58 724.62,-161.47 728,-155.34"/>
</g>
<!-- Node23&#45;&gt;Node11 -->
<g id="edge32" class="edge">
<title>Node23&#45;&gt;Node11</title>
<path fill="none" stroke="midnightblue" d="M1083.51,-123.44C1109.75,-114.81 1142.18,-102.44 1169,-87 1187.89,-76.13 1187.54,-65.82 1207,-56 1261.93,-28.3 1283.89,-37.55 1346.47,-20.19"/>
<polygon fill="midnightblue" stroke="midnightblue" points="1347.81,-23.45 1356.44,-17.3 1345.86,-16.72 1347.81,-23.45"/>
</g>
<!-- Node24 -->
<g id="node24" class="node">
<title>Node24</title>
<g id="a_node24"><a xlink:title=" ">
<polygon fill="white" stroke="#bfbfbf" points="1006,-62 1006,-81 1058,-81 1058,-62 1006,-62"/>
<text text-anchor="middle" x="1032" y="-69" font-family="Helvetica,sans-Serif" font-size="10.00">sstream</text>
</a>
</g>
</g>
<!-- Node23&#45;&gt;Node24 -->
<g id="edge33" class="edge">
<title>Node23&#45;&gt;Node24</title>
<path fill="none" stroke="midnightblue" d="M1034.35,-123.4C1033.91,-113.96 1033.34,-101.45 1032.86,-91.19"/>
<polygon fill="midnightblue" stroke="midnightblue" points="1036.36,-91.02 1032.4,-81.19 1029.37,-91.35 1036.36,-91.02"/>
</g>
<!-- Node25 -->
<g id="node25" class="node">
<title>Node25</title>
<g id="a_node25"><a xlink:href="_uniforms_handler_8h.html" target="_top" xlink:title=" ">
<polygon fill="white" stroke="black" points="840,-62 840,-81 936,-81 936,-62 840,-62"/>
<text text-anchor="middle" x="888" y="-69" font-family="Helvetica,sans-Serif" font-size="10.00">UniformsHandler.h</text>
</a>
</g>
</g>
<!-- Node23&#45;&gt;Node25 -->
<g id="edge34" class="edge">
<title>Node23&#45;&gt;Node25</title>
<path fill="none" stroke="midnightblue" d="M1003.1,-123.4C977.31,-111.99 941.33,-96.08 916.49,-85.1"/>
<polygon fill="midnightblue" stroke="midnightblue" points="917.8,-81.85 907.24,-81.01 914.97,-88.25 917.8,-81.85"/>
</g>
<!-- Node29 -->
<g id="node29" class="node">
<title>Node29</title>
<g id="a_node29"><a xlink:href="_shader_chunk_8h.html" target="_top" xlink:title=" ">
<polygon fill="white" stroke="black" points="1076.5,-62 1076.5,-81 1159.5,-81 1159.5,-62 1076.5,-62"/>
<text text-anchor="middle" x="1118" y="-69" font-family="Helvetica,sans-Serif" font-size="10.00">ShaderChunk.h</text>
</a>
</g>
</g>
<!-- Node23&#45;&gt;Node29 -->
<g id="edge42" class="edge">
<title>Node23&#45;&gt;Node29</title>
<path fill="none" stroke="midnightblue" d="M1053.01,-123.4C1066.59,-112.76 1085.18,-98.2 1099,-87.38"/>
<polygon fill="midnightblue" stroke="midnightblue" points="1101.18,-90.12 1106.9,-81.19 1096.87,-84.6 1101.18,-90.12"/>
</g>
<!-- Node25&#45;&gt;Node8 -->
<g id="edge37" class="edge">
<title>Node25&#45;&gt;Node8</title>
<path fill="none" stroke="midnightblue" d="M839.58,-62.04C787.01,-52.75 700.34,-37.11 616.19,-20.19"/>
<polygon fill="midnightblue" stroke="midnightblue" points="616.7,-16.72 606.21,-18.18 615.32,-23.59 616.7,-16.72"/>
</g>
<!-- Node25&#45;&gt;Node9 -->
<g id="edge38" class="edge">
<title>Node25&#45;&gt;Node9</title>
<path fill="none" stroke="midnightblue" d="M855.76,-61.98C816.08,-51.48 748.6,-33.64 704.93,-22.09"/>
<polygon fill="midnightblue" stroke="midnightblue" points="705.74,-18.68 695.18,-19.51 703.95,-25.45 705.74,-18.68"/>
</g>
<!-- Node25&#45;&gt;Node12 -->
<g id="edge35" class="edge">
<title>Node25&#45;&gt;Node12</title>
<path fill="none" stroke="midnightblue" d="M936.22,-64.04C1011.13,-53.87 1152.99,-34.03 1220.63,-19.74"/>
<polygon fill="midnightblue" stroke="midnightblue" points="1221.43,-23.15 1230.44,-17.58 1219.93,-16.31 1221.43,-23.15"/>
</g>
<!-- Node25&#45;&gt;Node18 -->
<g id="edge39" class="edge">
<title>Node25&#45;&gt;Node18</title>
<path fill="none" stroke="midnightblue" d="M870.09,-61.98C849.11,-51.99 814.15,-35.35 789.91,-23.81"/>
<polygon fill="midnightblue" stroke="midnightblue" points="791.41,-20.65 780.88,-19.51 788.4,-26.97 791.41,-20.65"/>
</g>
<!-- Node26 -->
<g id="node26" class="node">
<title>Node26</title>
<g id="a_node26"><a xlink:title=" ">
<polygon fill="white" stroke="#bfbfbf" points="1056.5,-0.5 1056.5,-19.5 1139.5,-19.5 1139.5,-0.5 1056.5,-0.5"/>
<text text-anchor="middle" x="1098" y="-7.5" font-family="Helvetica,sans-Serif" font-size="10.00">unordered_map</text>
</a>
</g>
</g>
<!-- Node25&#45;&gt;Node26 -->
<g id="edge36" class="edge">
<title>Node25&#45;&gt;Node26</title>
<path fill="none" stroke="midnightblue" d="M918.09,-61.98C954.89,-51.55 1017.31,-33.86 1058.09,-22.31"/>
<polygon fill="midnightblue" stroke="midnightblue" points="1059.3,-25.6 1067.97,-19.51 1057.39,-18.87 1059.3,-25.6"/>
</g>
<!-- Node27 -->
<g id="node27" class="node">
<title>Node27</title>
<g id="a_node27"><a xlink:title=" ">
<polygon fill="white" stroke="#bfbfbf" points="932,-0.5 932,-19.5 1038,-19.5 1038,-0.5 932,-0.5"/>
<text text-anchor="middle" x="985" y="-7.5" font-family="Helvetica,sans-Serif" font-size="10.00">glm/gtc/type_ptr.hpp</text>
</a>
</g>
</g>
<!-- Node25&#45;&gt;Node27 -->
<g id="edge40" class="edge">
<title>Node25&#45;&gt;Node27</title>
<path fill="none" stroke="midnightblue" d="M901.9,-61.98C917.67,-52.3 943.64,-36.37 962.35,-24.89"/>
<polygon fill="midnightblue" stroke="midnightblue" points="964.43,-27.72 971.13,-19.51 960.77,-21.75 964.43,-27.72"/>
</g>
<!-- Node28 -->
<g id="node28" class="node">
<title>Node28</title>
<g id="a_node28"><a xlink:title=" ">
<polygon fill="white" stroke="#bfbfbf" points="824,-0.5 824,-19.5 914,-19.5 914,-0.5 824,-0.5"/>
<text text-anchor="middle" x="869" y="-7.5" font-family="Helvetica,sans-Serif" font-size="10.00">boost/variant.hpp</text>
</a>
</g>
</g>
<!-- Node25&#45;&gt;Node28 -->
<g id="edge41" class="edge">
<title>Node25&#45;&gt;Node28</title>
<path fill="none" stroke="midnightblue" d="M885.28,-61.98C882.57,-53.49 878.33,-40.2 874.85,-29.32"/>
<polygon fill="midnightblue" stroke="midnightblue" points="878.09,-27.97 871.72,-19.51 871.43,-30.1 878.09,-27.97"/>
</g>
<!-- Node29&#45;&gt;Node7 -->
<g id="edge46" class="edge">
<title>Node29&#45;&gt;Node7</title>
<path fill="none" stroke="midnightblue" d="M1127.6,-61.98C1138.05,-52.7 1154.97,-37.67 1167.74,-26.33"/>
<polygon fill="midnightblue" stroke="midnightblue" points="1170.27,-28.77 1175.42,-19.51 1165.62,-23.53 1170.27,-28.77"/>
</g>
<!-- Node29&#45;&gt;Node12 -->
<g id="edge44" class="edge">
<title>Node29&#45;&gt;Node12</title>
<path fill="none" stroke="midnightblue" d="M1137.06,-61.98C1159.47,-51.95 1196.91,-35.2 1222.71,-23.65"/>
<polygon fill="midnightblue" stroke="midnightblue" points="1224.28,-26.79 1231.98,-19.51 1221.42,-20.4 1224.28,-26.79"/>
</g>
<!-- Node29&#45;&gt;Node26 -->
<g id="edge43" class="edge">
<title>Node29&#45;&gt;Node26</title>
<path fill="none" stroke="midnightblue" d="M1115.13,-61.98C1112.28,-53.49 1107.82,-40.2 1104.16,-29.32"/>
<polygon fill="midnightblue" stroke="midnightblue" points="1107.36,-27.87 1100.86,-19.51 1100.73,-30.1 1107.36,-27.87"/>
</g>
<!-- Node30 -->
<g id="node30" class="node">
<title>Node30</title>
<g id="a_node30"><a xlink:title=" ">
<polygon fill="white" stroke="#bfbfbf" points="1289.5,-0.5 1289.5,-19.5 1338.5,-19.5 1338.5,-0.5 1289.5,-0.5"/>
<text text-anchor="middle" x="1314" y="-7.5" font-family="Helvetica,sans-Serif" font-size="10.00">fstream</text>
</a>
</g>
</g>
<!-- Node29&#45;&gt;Node30 -->
<g id="edge45" class="edge">
<title>Node29&#45;&gt;Node30</title>
<path fill="none" stroke="midnightblue" d="M1146.08,-61.98C1181.35,-51.27 1241.84,-32.91 1279.78,-21.39"/>
<polygon fill="midnightblue" stroke="midnightblue" points="1280.82,-24.73 1289.38,-18.47 1278.79,-18.03 1280.82,-24.73"/>
</g>
<!-- Node31&#45;&gt;Node3 -->
<g id="edge48" class="edge">
<title>Node31&#45;&gt;Node3</title>
<path fill="none" stroke="midnightblue" d="M418.36,-57.49C415.2,-56.96 412.07,-56.46 409,-56 254.08,-32.88 209.67,-50.37 52.22,-19.88"/>
<polygon fill="midnightblue" stroke="midnightblue" points="52.67,-16.4 42.18,-17.9 51.31,-23.27 52.67,-16.4"/>
</g>
<!-- Node31&#45;&gt;Node8 -->
<g id="edge51" class="edge">
<title>Node31&#45;&gt;Node8</title>
<path fill="none" stroke="midnightblue" d="M503.8,-56.4C518.41,-46.95 537.57,-34.56 552.18,-25.11"/>
<polygon fill="midnightblue" stroke="midnightblue" points="554.12,-28.03 560.61,-19.66 550.32,-22.15 554.12,-28.03"/>
</g>
<!-- Node31&#45;&gt;Node9 -->
<g id="edge52" class="edge">
<title>Node31&#45;&gt;Node9</title>
<path fill="none" stroke="midnightblue" d="M524.89,-56.4C556.03,-46.16 597.69,-32.47 627.08,-22.81"/>
<polygon fill="midnightblue" stroke="midnightblue" points="628.52,-26.02 636.93,-19.57 626.33,-19.37 628.52,-26.02"/>
</g>
<!-- Node31&#45;&gt;Node15 -->
<g id="edge49" class="edge">
<title>Node31&#45;&gt;Node15</title>
<path fill="none" stroke="midnightblue" d="M448.35,-56.4C424.52,-46.42 392.85,-33.15 369.91,-23.53"/>
<polygon fill="midnightblue" stroke="midnightblue" points="371.24,-20.29 360.66,-19.66 368.53,-26.75 371.24,-20.29"/>
</g>
<!-- Node31&#45;&gt;Node16 -->
<g id="edge50" class="edge">
<title>Node31&#45;&gt;Node16</title>
<path fill="none" stroke="midnightblue" d="M464.46,-56.4C453.16,-47.31 438.46,-35.49 426.89,-26.19"/>
<polygon fill="midnightblue" stroke="midnightblue" points="428.75,-23.2 418.77,-19.66 424.37,-28.65 428.75,-23.2"/>
</g>
<!-- Node31&#45;&gt;Node17 -->
<g id="edge54" class="edge">
<title>Node31&#45;&gt;Node17</title>
<path fill="none" stroke="midnightblue" d="M429.43,-56.47C390.12,-45.99 337.09,-31.84 300.68,-22.12"/>
<polygon fill="midnightblue" stroke="midnightblue" points="301.45,-18.7 290.88,-19.51 299.64,-25.47 301.45,-18.7"/>
</g>
<!-- Node32 -->
<g id="node32" class="node">
<title>Node32</title>
<g id="a_node32"><a xlink:title=" ">
<polygon fill="white" stroke="#bfbfbf" points="450,-0.5 450,-19.5 524,-19.5 524,-0.5 450,-0.5"/>
<text text-anchor="middle" x="487" y="-7.5" font-family="Helvetica,sans-Serif" font-size="10.00">glm/vec2.hpp</text>
</a>
</g>
</g>
<!-- Node31&#45;&gt;Node32 -->
<g id="edge53" class="edge">
<title>Node31&#45;&gt;Node32</title>
<path fill="none" stroke="midnightblue" d="M483.18,-56.4C483.85,-48.47 484.69,-38.46 485.42,-29.86"/>
<polygon fill="midnightblue" stroke="midnightblue" points="488.92,-29.92 486.27,-19.66 481.95,-29.33 488.92,-29.92"/>
</g>
</g>
</svg>
