<?xml version="1.0" encoding="UTF-8" standalone="no"?>
<!DOCTYPE svg PUBLIC "-//W3C//DTD SVG 1.1//EN"
 "http://www.w3.org/Graphics/SVG/1.1/DTD/svg11.dtd">
<!-- Generated by graphviz version 2.44.1 (20200629.0846)
 -->
<!-- Title: kryne&#45;engine/include/KEModules/RenderTargets.h Pages: 1 -->
<svg width="1517pt" height="710pt"
 viewBox="0.00 0.00 1516.55 710.00" xmlns="http://www.w3.org/2000/svg" xmlns:xlink="http://www.w3.org/1999/xlink">
<g id="graph0" class="graph" transform="scale(1 1) rotate(0) translate(4 706)">
<title>kryne&#45;engine/include/KEModules/RenderTargets.h</title>
<polygon fill="white" stroke="transparent" points="-4,4 -4,-706 1512.55,-706 1512.55,4 -4,4"/>
<!-- Node1 -->
<g id="node1" class="node">
<title>Node1</title>
<g id="a_node1"><a xlink:title=" ">
<polygon fill="#bfbfbf" stroke="black" points="534.05,-671.5 534.05,-701.5 678.05,-701.5 678.05,-671.5 534.05,-671.5"/>
<text text-anchor="start" x="542.05" y="-689.5" font-family="Helvetica,sans-Serif" font-size="10.00">kryne&#45;engine/include</text>
<text text-anchor="middle" x="606.05" y="-678.5" font-family="Helvetica,sans-Serif" font-size="10.00">/KEModules/RenderTargets.h</text>
</a>
</g>
</g>
<!-- Node2 -->
<g id="node2" class="node">
<title>Node2</title>
<g id="a_node2"><a xlink:href="_final_post_process_8h.html" target="_top" xlink:title=" ">
<polygon fill="white" stroke="black" points="489.05,-537.5 489.05,-567.5 627.05,-567.5 627.05,-537.5 489.05,-537.5"/>
<text text-anchor="start" x="497.05" y="-555.5" font-family="Helvetica,sans-Serif" font-size="10.00">kryne&#45;engine/RenderTargets</text>
<text text-anchor="middle" x="558.05" y="-544.5" font-family="Helvetica,sans-Serif" font-size="10.00">/FinalPostProcess.h</text>
</a>
</g>
</g>
<!-- Node1&#45;&gt;Node2 -->
<g id="edge1" class="edge">
<title>Node1&#45;&gt;Node2</title>
<path fill="none" stroke="midnightblue" d="M596.5,-671.48C590.19,-661.64 582.16,-647.98 577.05,-635 569.71,-616.37 564.77,-594.18 561.77,-577.66"/>
<polygon fill="midnightblue" stroke="midnightblue" points="565.2,-576.99 560.07,-567.72 558.3,-578.17 565.2,-576.99"/>
</g>
<!-- Node48 -->
<g id="node48" class="node">
<title>Node48</title>
<g id="a_node48"><a xlink:href="_post_process_8h.html" target="_top" xlink:title=" ">
<polygon fill="white" stroke="black" points="586.05,-604.5 586.05,-634.5 724.05,-634.5 724.05,-604.5 586.05,-604.5"/>
<text text-anchor="start" x="594.05" y="-622.5" font-family="Helvetica,sans-Serif" font-size="10.00">kryne&#45;engine/RenderTargets</text>
<text text-anchor="middle" x="655.05" y="-611.5" font-family="Helvetica,sans-Serif" font-size="10.00">/PostProcess.h</text>
</a>
</g>
</g>
<!-- Node1&#45;&gt;Node48 -->
<g id="edge68" class="edge">
<title>Node1&#45;&gt;Node48</title>
<path fill="none" stroke="midnightblue" d="M616.68,-671.4C622.98,-663.05 631.09,-652.29 638.23,-642.81"/>
<polygon fill="midnightblue" stroke="midnightblue" points="641.21,-644.67 644.44,-634.58 635.62,-640.45 641.21,-644.67"/>
</g>
<!-- Node3 -->
<g id="node3" class="node">
<title>Node3</title>
<g id="a_node3"><a xlink:title=" ">
<polygon fill="white" stroke="#bfbfbf" points="499.55,-414.5 499.55,-433.5 534.55,-433.5 534.55,-414.5 499.55,-414.5"/>
<text text-anchor="middle" x="517.05" y="-421.5" font-family="Helvetica,sans-Serif" font-size="10.00">map</text>
</a>
</g>
</g>
<!-- Node2&#45;&gt;Node3 -->
<g id="edge2" class="edge">
<title>Node2&#45;&gt;Node3</title>
<path fill="none" stroke="midnightblue" d="M551.05,-537.17C546.36,-527.19 540.3,-513.49 536.05,-501 529.49,-481.73 524.11,-459.01 520.77,-443.47"/>
<polygon fill="midnightblue" stroke="midnightblue" points="524.17,-442.64 518.71,-433.57 517.32,-444.07 524.17,-442.64"/>
</g>
<!-- Node4 -->
<g id="node4" class="node">
<title>Node4</title>
<g id="a_node4"><a xlink:href="_shader_8h.html" target="_top" xlink:title=" ">
<polygon fill="white" stroke="black" points="545.05,-470.5 545.05,-500.5 655.05,-500.5 655.05,-470.5 545.05,-470.5"/>
<text text-anchor="start" x="553.05" y="-488.5" font-family="Helvetica,sans-Serif" font-size="10.00">kryne&#45;engine/Material</text>
<text text-anchor="middle" x="600.05" y="-477.5" font-family="Helvetica,sans-Serif" font-size="10.00">/Shader.h</text>
</a>
</g>
</g>
<!-- Node2&#45;&gt;Node4 -->
<g id="edge3" class="edge">
<title>Node2&#45;&gt;Node4</title>
<path fill="none" stroke="midnightblue" d="M567.16,-537.4C572.5,-529.13 579.37,-518.51 585.45,-509.1"/>
<polygon fill="midnightblue" stroke="midnightblue" points="588.47,-510.88 590.95,-500.58 582.59,-507.08 588.47,-510.88"/>
</g>
<!-- Node41 -->
<g id="node41" class="node">
<title>Node41</title>
<g id="a_node41"><a xlink:href="_vertex_array_8h.html" target="_top" xlink:title=" ">
<polygon fill="white" stroke="black" points="401.55,-347.5 401.55,-377.5 528.55,-377.5 528.55,-347.5 401.55,-347.5"/>
<text text-anchor="start" x="409.55" y="-365.5" font-family="Helvetica,sans-Serif" font-size="10.00">kryne&#45;engine/Core/Vertex</text>
<text text-anchor="middle" x="465.05" y="-354.5" font-family="Helvetica,sans-Serif" font-size="10.00">Array.h</text>
</a>
</g>
</g>
<!-- Node2&#45;&gt;Node41 -->
<g id="edge52" class="edge">
<title>Node2&#45;&gt;Node41</title>
<path fill="none" stroke="midnightblue" d="M547.36,-537.29C540.1,-527.37 530.52,-513.69 523.05,-501 506.22,-472.39 502.95,-464.58 490.05,-434 483.61,-418.74 477.39,-401.2 472.76,-387.43"/>
<polygon fill="midnightblue" stroke="midnightblue" points="476.02,-386.13 469.55,-377.73 469.37,-388.32 476.02,-386.13"/>
</g>
<!-- Node44 -->
<g id="node44" class="node">
<title>Node44</title>
<g id="a_node44"><a xlink:href="_geometric_shapes_8h.html" target="_top" xlink:title=" ">
<polygon fill="white" stroke="black" points="155.55,-347.5 155.55,-377.5 298.55,-377.5 298.55,-347.5 155.55,-347.5"/>
<text text-anchor="start" x="163.55" y="-365.5" font-family="Helvetica,sans-Serif" font-size="10.00">kryne&#45;engine/Core/Geometric</text>
<text text-anchor="middle" x="227.05" y="-354.5" font-family="Helvetica,sans-Serif" font-size="10.00">Shapes.h</text>
</a>
</g>
</g>
<!-- Node2&#45;&gt;Node44 -->
<g id="edge60" class="edge">
<title>Node2&#45;&gt;Node44</title>
<path fill="none" stroke="midnightblue" d="M533.17,-537.37C474.44,-504.01 327.14,-420.35 260.6,-382.56"/>
<polygon fill="midnightblue" stroke="midnightblue" points="262.19,-379.43 251.77,-377.54 258.73,-385.52 262.19,-379.43"/>
</g>
<!-- Node47 -->
<g id="node47" class="node">
<title>Node47</title>
<g id="a_node47"><a xlink:href="_texture2_d_8h.html" target="_top" xlink:title=" ">
<polygon fill="white" stroke="black" points="673.55,-470.5 673.55,-500.5 786.55,-500.5 786.55,-470.5 673.55,-470.5"/>
<text text-anchor="start" x="681.55" y="-488.5" font-family="Helvetica,sans-Serif" font-size="10.00">kryne&#45;engine/Textures</text>
<text text-anchor="middle" x="730.05" y="-477.5" font-family="Helvetica,sans-Serif" font-size="10.00">/Texture2D.h</text>
</a>
</g>
</g>
<!-- Node2&#45;&gt;Node47 -->
<g id="edge66" class="edge">
<title>Node2&#45;&gt;Node47</title>
<path fill="none" stroke="midnightblue" d="M595.37,-537.4C621.18,-527.64 655.71,-514.59 683.34,-504.15"/>
<polygon fill="midnightblue" stroke="midnightblue" points="684.68,-507.39 692.8,-500.58 682.21,-500.84 684.68,-507.39"/>
</g>
<!-- Node4&#45;&gt;Node3 -->
<g id="edge4" class="edge">
<title>Node4&#45;&gt;Node3</title>
<path fill="none" stroke="midnightblue" d="M580.38,-470.4C567.45,-461.13 550.56,-449.03 537.48,-439.65"/>
<polygon fill="midnightblue" stroke="midnightblue" points="539.29,-436.64 529.13,-433.66 535.22,-442.33 539.29,-436.64"/>
</g>
<!-- Node5 -->
<g id="node5" class="node">
<title>Node5</title>
<g id="a_node5"><a xlink:title=" ">
<polygon fill="white" stroke="#bfbfbf" points="553.05,-414.5 553.05,-433.5 605.05,-433.5 605.05,-414.5 553.05,-414.5"/>
<text text-anchor="middle" x="579.05" y="-421.5" font-family="Helvetica,sans-Serif" font-size="10.00">sstream</text>
</a>
</g>
</g>
<!-- Node4&#45;&gt;Node5 -->
<g id="edge5" class="edge">
<title>Node4&#45;&gt;Node5</title>
<path fill="none" stroke="midnightblue" d="M595.07,-470.4C592.21,-462.29 588.58,-452.01 585.5,-443.28"/>
<polygon fill="midnightblue" stroke="midnightblue" points="588.73,-441.92 582.11,-433.66 582.13,-444.25 588.73,-441.92"/>
</g>
<!-- Node6 -->
<g id="node6" class="node">
<title>Node6</title>
<g id="a_node6"><a xlink:href="_dispatcher_8h.html" target="_top" xlink:title=" ">
<polygon fill="white" stroke="black" points="756.55,-280.5 756.55,-310.5 869.55,-310.5 869.55,-280.5 756.55,-280.5"/>
<text text-anchor="start" x="764.55" y="-298.5" font-family="Helvetica,sans-Serif" font-size="10.00">kryne&#45;engine/Dispatch</text>
<text text-anchor="middle" x="813.05" y="-287.5" font-family="Helvetica,sans-Serif" font-size="10.00">/Dispatcher.h</text>
</a>
</g>
</g>
<!-- Node4&#45;&gt;Node6 -->
<g id="edge6" class="edge">
<title>Node4&#45;&gt;Node6</title>
<path fill="none" stroke="midnightblue" d="M603.76,-470.15C612.19,-438.59 633.49,-364.52 652.05,-347 666.13,-333.71 708.6,-320.68 746.38,-311.18"/>
<polygon fill="midnightblue" stroke="midnightblue" points="747.5,-314.51 756.37,-308.73 745.83,-307.72 747.5,-314.51"/>
</g>
<!-- Node20 -->
<g id="node20" class="node">
<title>Node20</title>
<g id="a_node20"><a xlink:href="_uniforms_handler_8h.html" target="_top" xlink:title=" ">
<polygon fill="white" stroke="black" points="782.05,-414.5 782.05,-433.5 878.05,-433.5 878.05,-414.5 782.05,-414.5"/>
<text text-anchor="middle" x="830.05" y="-421.5" font-family="Helvetica,sans-Serif" font-size="10.00">UniformsHandler.h</text>
</a>
</g>
</g>
<!-- Node4&#45;&gt;Node20 -->
<g id="edge22" class="edge">
<title>Node4&#45;&gt;Node20</title>
<path fill="none" stroke="midnightblue" d="M654.27,-470.47C694.81,-459.99 749.5,-445.84 787.06,-436.12"/>
<polygon fill="midnightblue" stroke="midnightblue" points="788.36,-439.4 797.17,-433.51 786.61,-432.62 788.36,-439.4"/>
</g>
<!-- Node34 -->
<g id="node34" class="node">
<title>Node34</title>
<g id="a_node34"><a xlink:href="_shader_chunk_8h.html" target="_top" xlink:title=" ">
<polygon fill="white" stroke="black" points="1256.55,-414.5 1256.55,-433.5 1339.55,-433.5 1339.55,-414.5 1256.55,-414.5"/>
<text text-anchor="middle" x="1298.05" y="-421.5" font-family="Helvetica,sans-Serif" font-size="10.00">ShaderChunk.h</text>
</a>
</g>
</g>
<!-- Node4&#45;&gt;Node34 -->
<g id="edge41" class="edge">
<title>Node4&#45;&gt;Node34</title>
<path fill="none" stroke="midnightblue" d="M655.11,-471.47C658.12,-470.93 661.12,-470.43 664.05,-470 878.72,-438.25 1137.71,-428.73 1246.24,-426.02"/>
<polygon fill="midnightblue" stroke="midnightblue" points="1246.36,-429.51 1256.27,-425.77 1246.19,-422.52 1246.36,-429.51"/>
</g>
<!-- Node7 -->
<g id="node7" class="node">
<title>Node7</title>
<g id="a_node7"><a xlink:href="_synchronizable_pool_8h.html" target="_top" xlink:title=" ">
<polygon fill="white" stroke="black" points="843.55,-168.5 843.55,-187.5 954.55,-187.5 954.55,-168.5 843.55,-168.5"/>
<text text-anchor="middle" x="899.05" y="-175.5" font-family="Helvetica,sans-Serif" font-size="10.00">SynchronizablePool.h</text>
</a>
</g>
</g>
<!-- Node6&#45;&gt;Node7 -->
<g id="edge7" class="edge">
<title>Node6&#45;&gt;Node7</title>
<path fill="none" stroke="midnightblue" d="M820.46,-280.41C828.44,-265.76 841.9,-242.42 856.05,-224 863.93,-213.74 873.85,-203.23 882.17,-194.96"/>
<polygon fill="midnightblue" stroke="midnightblue" points="884.82,-197.27 889.54,-187.78 879.94,-192.25 884.82,-197.27"/>
</g>
<!-- Node18 -->
<g id="node18" class="node">
<title>Node18</title>
<g id="a_node18"><a xlink:href="_runner_pool_8h.html" target="_top" xlink:title=" ">
<polygon fill="white" stroke="black" points="750.55,-168.5 750.55,-187.5 825.55,-187.5 825.55,-168.5 750.55,-168.5"/>
<text text-anchor="middle" x="788.05" y="-175.5" font-family="Helvetica,sans-Serif" font-size="10.00">RunnerPool.h</text>
</a>
</g>
</g>
<!-- Node6&#45;&gt;Node18 -->
<g id="edge18" class="edge">
<title>Node6&#45;&gt;Node18</title>
<path fill="none" stroke="midnightblue" d="M809.98,-280.34C805.48,-259.53 797.07,-220.66 792.07,-197.58"/>
<polygon fill="midnightblue" stroke="midnightblue" points="795.46,-196.7 789.93,-187.67 788.62,-198.18 795.46,-196.7"/>
</g>
<!-- Node19 -->
<g id="node19" class="node">
<title>Node19</title>
<g id="a_node19"><a xlink:href="_main_pool_8h.html" target="_top" xlink:title=" ">
<polygon fill="white" stroke="black" points="865.55,-224.5 865.55,-243.5 930.55,-243.5 930.55,-224.5 865.55,-224.5"/>
<text text-anchor="middle" x="898.05" y="-231.5" font-family="Helvetica,sans-Serif" font-size="10.00">MainPool.h</text>
</a>
</g>
</g>
<!-- Node6&#45;&gt;Node19 -->
<g id="edge20" class="edge">
<title>Node6&#45;&gt;Node19</title>
<path fill="none" stroke="midnightblue" d="M833.19,-280.4C846.44,-271.13 863.73,-259.03 877.13,-249.65"/>
<polygon fill="midnightblue" stroke="midnightblue" points="879.5,-252.26 885.68,-243.66 875.48,-246.53 879.5,-252.26"/>
</g>
<!-- Node8 -->
<g id="node8" class="node">
<title>Node8</title>
<g id="a_node8"><a xlink:href="_thread_pool_8h.html" target="_top" xlink:title=" ">
<polygon fill="white" stroke="black" points="862.05,-112.5 862.05,-131.5 936.05,-131.5 936.05,-112.5 862.05,-112.5"/>
<text text-anchor="middle" x="899.05" y="-119.5" font-family="Helvetica,sans-Serif" font-size="10.00">ThreadPool.h</text>
</a>
</g>
</g>
<!-- Node7&#45;&gt;Node8 -->
<g id="edge8" class="edge">
<title>Node7&#45;&gt;Node8</title>
<path fill="none" stroke="midnightblue" d="M899.05,-168.08C899.05,-161.01 899.05,-150.86 899.05,-141.99"/>
<polygon fill="midnightblue" stroke="midnightblue" points="902.55,-141.75 899.05,-131.75 895.55,-141.75 902.55,-141.75"/>
</g>
<!-- Node9 -->
<g id="node9" class="node">
<title>Node9</title>
<g id="a_node9"><a xlink:title=" ">
<polygon fill="white" stroke="#bfbfbf" points="990.05,-56.5 990.05,-75.5 1034.05,-75.5 1034.05,-56.5 990.05,-56.5"/>
<text text-anchor="middle" x="1012.05" y="-63.5" font-family="Helvetica,sans-Serif" font-size="10.00">thread</text>
</a>
</g>
</g>
<!-- Node8&#45;&gt;Node9 -->
<g id="edge9" class="edge">
<title>Node8&#45;&gt;Node9</title>
<path fill="none" stroke="midnightblue" d="M916.96,-112.44C935.3,-103.68 964.06,-89.94 985.14,-79.86"/>
<polygon fill="midnightblue" stroke="midnightblue" points="986.72,-82.99 994.23,-75.52 983.7,-76.67 986.72,-82.99"/>
</g>
<!-- Node10 -->
<g id="node10" class="node">
<title>Node10</title>
<g id="a_node10"><a xlink:title=" ">
<polygon fill="white" stroke="#bfbfbf" points="1052.05,-56.5 1052.05,-75.5 1096.05,-75.5 1096.05,-56.5 1052.05,-56.5"/>
<text text-anchor="middle" x="1074.05" y="-63.5" font-family="Helvetica,sans-Serif" font-size="10.00">mutex</text>
</a>
</g>
</g>
<!-- Node8&#45;&gt;Node10 -->
<g id="edge10" class="edge">
<title>Node8&#45;&gt;Node10</title>
<path fill="none" stroke="midnightblue" d="M926.78,-112.44C958.22,-102.74 1009.39,-86.95 1042.38,-76.77"/>
<polygon fill="midnightblue" stroke="midnightblue" points="1043.47,-80.1 1051.99,-73.81 1041.4,-73.41 1043.47,-80.1"/>
</g>
<!-- Node11 -->
<g id="node11" class="node">
<title>Node11</title>
<g id="a_node11"><a xlink:title=" ">
<polygon fill="white" stroke="#bfbfbf" points="663.55,-56.5 663.55,-75.5 756.55,-75.5 756.55,-56.5 663.55,-56.5"/>
<text text-anchor="middle" x="710.05" y="-63.5" font-family="Helvetica,sans-Serif" font-size="10.00">condition_variable</text>
</a>
</g>
</g>
<!-- Node8&#45;&gt;Node11 -->
<g id="edge11" class="edge">
<title>Node8&#45;&gt;Node11</title>
<path fill="none" stroke="midnightblue" d="M869.1,-112.44C836.89,-103.24 785.52,-88.56 749.91,-78.39"/>
<polygon fill="midnightblue" stroke="midnightblue" points="750.43,-74.9 739.86,-75.52 748.51,-81.63 750.43,-74.9"/>
</g>
<!-- Node12 -->
<g id="node12" class="node">
<title>Node12</title>
<g id="a_node12"><a xlink:title=" ">
<polygon fill="white" stroke="#bfbfbf" points="774.55,-56.5 774.55,-75.5 815.55,-75.5 815.55,-56.5 774.55,-56.5"/>
<text text-anchor="middle" x="795.05" y="-63.5" font-family="Helvetica,sans-Serif" font-size="10.00">future</text>
</a>
</g>
</g>
<!-- Node8&#45;&gt;Node12 -->
<g id="edge12" class="edge">
<title>Node8&#45;&gt;Node12</title>
<path fill="none" stroke="midnightblue" d="M882.34,-112.32C865.74,-103.7 840.05,-90.36 820.83,-80.39"/>
<polygon fill="midnightblue" stroke="midnightblue" points="822.21,-77.16 811.72,-75.65 818.98,-83.37 822.21,-77.16"/>
</g>
<!-- Node13 -->
<g id="node13" class="node">
<title>Node13</title>
<g id="a_node13"><a xlink:title=" ">
<polygon fill="white" stroke="#bfbfbf" points="834.05,-56.5 834.05,-75.5 886.05,-75.5 886.05,-56.5 834.05,-56.5"/>
<text text-anchor="middle" x="860.05" y="-63.5" font-family="Helvetica,sans-Serif" font-size="10.00">memory</text>
</a>
</g>
</g>
<!-- Node8&#45;&gt;Node13 -->
<g id="edge13" class="edge">
<title>Node8&#45;&gt;Node13</title>
<path fill="none" stroke="midnightblue" d="M892.61,-112.08C887.1,-104.46 879.02,-93.26 872.29,-83.94"/>
<polygon fill="midnightblue" stroke="midnightblue" points="875.06,-81.81 866.37,-75.75 869.39,-85.91 875.06,-81.81"/>
</g>
<!-- Node14 -->
<g id="node14" class="node">
<title>Node14</title>
<g id="a_node14"><a xlink:title=" ">
<polygon fill="white" stroke="#bfbfbf" points="1238.05,-56.5 1238.05,-75.5 1292.05,-75.5 1292.05,-56.5 1238.05,-56.5"/>
<text text-anchor="middle" x="1265.05" y="-63.5" font-family="Helvetica,sans-Serif" font-size="10.00">iostream</text>
</a>
</g>
</g>
<!-- Node8&#45;&gt;Node14 -->
<g id="edge14" class="edge">
<title>Node8&#45;&gt;Node14</title>
<path fill="none" stroke="midnightblue" d="M936.16,-115.53C1006.17,-105.2 1157.01,-82.94 1227.42,-72.55"/>
<polygon fill="midnightblue" stroke="midnightblue" points="1228.22,-75.97 1237.61,-71.05 1227.2,-69.05 1228.22,-75.97"/>
</g>
<!-- Node15 -->
<g id="node15" class="node">
<title>Node15</title>
<g id="a_node15"><a xlink:href="_base_pool_8h.html" target="_top" xlink:title=" ">
<polygon fill="white" stroke="black" points="904.55,-56.5 904.55,-75.5 971.55,-75.5 971.55,-56.5 904.55,-56.5"/>
<text text-anchor="middle" x="938.05" y="-63.5" font-family="Helvetica,sans-Serif" font-size="10.00">BasePool.h</text>
</a>
</g>
</g>
<!-- Node8&#45;&gt;Node15 -->
<g id="edge15" class="edge">
<title>Node8&#45;&gt;Node15</title>
<path fill="none" stroke="midnightblue" d="M905.49,-112.08C911,-104.46 919.08,-93.26 925.82,-83.94"/>
<polygon fill="midnightblue" stroke="midnightblue" points="928.71,-85.91 931.73,-75.75 923.04,-81.81 928.71,-85.91"/>
</g>
<!-- Node16 -->
<g id="node16" class="node">
<title>Node16</title>
<g id="a_node16"><a xlink:title=" ">
<polygon fill="white" stroke="#bfbfbf" points="881.55,-0.5 881.55,-19.5 924.55,-19.5 924.55,-0.5 881.55,-0.5"/>
<text text-anchor="middle" x="903.05" y="-7.5" font-family="Helvetica,sans-Serif" font-size="10.00">queue</text>
</a>
</g>
</g>
<!-- Node15&#45;&gt;Node16 -->
<g id="edge16" class="edge">
<title>Node15&#45;&gt;Node16</title>
<path fill="none" stroke="midnightblue" d="M932.27,-56.08C927.38,-48.53 920.22,-37.49 914.22,-28.23"/>
<polygon fill="midnightblue" stroke="midnightblue" points="917.1,-26.24 908.72,-19.75 911.22,-30.05 917.1,-26.24"/>
</g>
<!-- Node17 -->
<g id="node17" class="node">
<title>Node17</title>
<g id="a_node17"><a xlink:title=" ">
<polygon fill="white" stroke="#bfbfbf" points="943.05,-0.5 943.05,-19.5 1001.05,-19.5 1001.05,-0.5 943.05,-0.5"/>
<text text-anchor="middle" x="972.05" y="-7.5" font-family="Helvetica,sans-Serif" font-size="10.00">functional</text>
</a>
</g>
</g>
<!-- Node15&#45;&gt;Node17 -->
<g id="edge17" class="edge">
<title>Node15&#45;&gt;Node17</title>
<path fill="none" stroke="midnightblue" d="M943.66,-56.08C948.42,-48.53 955.37,-37.49 961.2,-28.23"/>
<polygon fill="midnightblue" stroke="midnightblue" points="964.17,-30.08 966.54,-19.75 958.25,-26.35 964.17,-30.08"/>
</g>
<!-- Node18&#45;&gt;Node8 -->
<g id="edge19" class="edge">
<title>Node18&#45;&gt;Node8</title>
<path fill="none" stroke="midnightblue" d="M805.88,-168.32C823.77,-159.62 851.53,-146.12 872.1,-136.11"/>
<polygon fill="midnightblue" stroke="midnightblue" points="873.8,-139.18 881.26,-131.65 870.74,-132.88 873.8,-139.18"/>
</g>
<!-- Node19&#45;&gt;Node7 -->
<g id="edge21" class="edge">
<title>Node19&#45;&gt;Node7</title>
<path fill="none" stroke="midnightblue" d="M898.22,-224.08C898.35,-217.01 898.53,-206.86 898.7,-197.99"/>
<polygon fill="midnightblue" stroke="midnightblue" points="902.2,-197.81 898.89,-187.75 895.2,-197.68 902.2,-197.81"/>
</g>
<!-- Node21 -->
<g id="node21" class="node">
<title>Node21</title>
<g id="a_node21"><a xlink:title=" ">
<polygon fill="white" stroke="#bfbfbf" points="1247.55,-286 1247.55,-305 1288.55,-305 1288.55,-286 1247.55,-286"/>
<text text-anchor="middle" x="1268.05" y="-293" font-family="Helvetica,sans-Serif" font-size="10.00">string</text>
</a>
</g>
</g>
<!-- Node20&#45;&gt;Node21 -->
<g id="edge23" class="edge">
<title>Node20&#45;&gt;Node21</title>
<path fill="none" stroke="midnightblue" d="M878.08,-422.98C937.36,-421.31 1040.13,-413 1120.05,-378 1140.33,-369.12 1140.21,-358.62 1159.05,-347 1173.04,-338.37 1211.13,-321.22 1238.34,-309.31"/>
<polygon fill="midnightblue" stroke="midnightblue" points="1240.03,-312.39 1247.8,-305.19 1237.24,-305.98 1240.03,-312.39"/>
</g>
<!-- Node22 -->
<g id="node22" class="node">
<title>Node22</title>
<g id="a_node22"><a xlink:title=" ">
<polygon fill="white" stroke="#bfbfbf" points="1167.55,-353 1167.55,-372 1250.55,-372 1250.55,-353 1167.55,-353"/>
<text text-anchor="middle" x="1209.05" y="-360" font-family="Helvetica,sans-Serif" font-size="10.00">unordered_map</text>
</a>
</g>
</g>
<!-- Node20&#45;&gt;Node22 -->
<g id="edge24" class="edge">
<title>Node20&#45;&gt;Node22</title>
<path fill="none" stroke="midnightblue" d="M878.22,-418.04C941.6,-411.11 1056.28,-397.2 1153.05,-378 1158.15,-376.99 1163.48,-375.79 1168.74,-374.53"/>
<polygon fill="midnightblue" stroke="midnightblue" points="1169.83,-377.86 1178.68,-372.04 1168.13,-371.07 1169.83,-377.86"/>
</g>
<!-- Node23 -->
<g id="node23" class="node">
<title>Node23</title>
<g id="a_node23"><a xlink:title=" ">
<polygon fill="white" stroke="#bfbfbf" points="674.05,-286 674.05,-305 738.05,-305 738.05,-286 674.05,-286"/>
<text text-anchor="middle" x="706.05" y="-293" font-family="Helvetica,sans-Serif" font-size="10.00">glad/glad.h</text>
</a>
</g>
</g>
<!-- Node20&#45;&gt;Node23 -->
<g id="edge25" class="edge">
<title>Node20&#45;&gt;Node23</title>
<path fill="none" stroke="midnightblue" d="M781.66,-417.43C734.57,-410.9 667.86,-398.31 652.05,-378 634.65,-355.65 662.87,-327.82 684.64,-311.14"/>
<polygon fill="midnightblue" stroke="midnightblue" points="686.84,-313.86 692.84,-305.12 682.71,-308.21 686.84,-313.86"/>
</g>
<!-- Node24 -->
<g id="node24" class="node">
<title>Node24</title>
<g id="a_node24"><a xlink:title=" ">
<polygon fill="white" stroke="#bfbfbf" points="578.05,-286 578.05,-305 656.05,-305 656.05,-286 578.05,-286"/>
<text text-anchor="middle" x="617.05" y="-293" font-family="Helvetica,sans-Serif" font-size="10.00">GLFW/glfw3.h</text>
</a>
</g>
</g>
<!-- Node20&#45;&gt;Node24 -->
<g id="edge26" class="edge">
<title>Node20&#45;&gt;Node24</title>
<path fill="none" stroke="midnightblue" d="M781.83,-416.84C733.34,-409.71 662.98,-396.53 643.05,-378 625.58,-361.75 619.79,-333.8 617.91,-315.23"/>
<polygon fill="midnightblue" stroke="midnightblue" points="621.39,-314.79 617.17,-305.07 614.41,-315.3 621.39,-314.79"/>
</g>
<!-- Node25 -->
<g id="node25" class="node">
<title>Node25</title>
<g id="a_node25"><a xlink:title=" ">
<polygon fill="white" stroke="#bfbfbf" points="893.05,-353 893.05,-372 979.05,-372 979.05,-353 893.05,-353"/>
<text text-anchor="middle" x="936.05" y="-360" font-family="Helvetica,sans-Serif" font-size="10.00">glm/mat4x4.hpp</text>
</a>
</g>
</g>
<!-- Node20&#45;&gt;Node25 -->
<g id="edge27" class="edge">
<title>Node20&#45;&gt;Node25</title>
<path fill="none" stroke="midnightblue" d="M845.24,-414.48C862.71,-404.67 891.63,-388.43 912.13,-376.92"/>
<polygon fill="midnightblue" stroke="midnightblue" points="913.88,-379.96 920.89,-372.01 910.46,-373.85 913.88,-379.96"/>
</g>
<!-- Node26 -->
<g id="node26" class="node">
<title>Node26</title>
<g id="a_node26"><a xlink:title=" ">
<polygon fill="white" stroke="#bfbfbf" points="661.05,-353 661.05,-372 767.05,-372 767.05,-353 661.05,-353"/>
<text text-anchor="middle" x="714.05" y="-360" font-family="Helvetica,sans-Serif" font-size="10.00">glm/gtc/type_ptr.hpp</text>
</a>
</g>
</g>
<!-- Node20&#45;&gt;Node26 -->
<g id="edge28" class="edge">
<title>Node20&#45;&gt;Node26</title>
<path fill="none" stroke="midnightblue" d="M813.43,-414.48C794.14,-404.58 762.09,-388.14 739.62,-376.62"/>
<polygon fill="midnightblue" stroke="midnightblue" points="741.13,-373.46 730.64,-372.01 737.94,-379.69 741.13,-373.46"/>
</g>
<!-- Node27 -->
<g id="node27" class="node">
<title>Node27</title>
<g id="a_node27"><a xlink:title=" ">
<polygon fill="white" stroke="#bfbfbf" points="785.05,-353 785.05,-372 875.05,-372 875.05,-353 785.05,-353"/>
<text text-anchor="middle" x="830.05" y="-360" font-family="Helvetica,sans-Serif" font-size="10.00">boost/variant.hpp</text>
</a>
</g>
</g>
<!-- Node20&#45;&gt;Node27 -->
<g id="edge29" class="edge">
<title>Node20&#45;&gt;Node27</title>
<path fill="none" stroke="midnightblue" d="M830.05,-414.48C830.05,-406.08 830.05,-392.98 830.05,-382.16"/>
<polygon fill="midnightblue" stroke="midnightblue" points="833.55,-382.01 830.05,-372.01 826.55,-382.01 833.55,-382.01"/>
</g>
<!-- Node28 -->
<g id="node28" class="node">
<title>Node28</title>
<g id="a_node28"><a xlink:href="_texture_8h.html" target="_top" xlink:title=" ">
<polygon fill="white" stroke="black" points="997.55,-347.5 997.55,-377.5 1110.55,-377.5 1110.55,-347.5 997.55,-347.5"/>
<text text-anchor="start" x="1005.55" y="-365.5" font-family="Helvetica,sans-Serif" font-size="10.00">kryne&#45;engine/Textures</text>
<text text-anchor="middle" x="1054.05" y="-354.5" font-family="Helvetica,sans-Serif" font-size="10.00">/Texture.h</text>
</a>
</g>
</g>
<!-- Node20&#45;&gt;Node28 -->
<g id="edge30" class="edge">
<title>Node20&#45;&gt;Node28</title>
<path fill="none" stroke="midnightblue" d="M862.14,-414.48C895.74,-405.55 949.36,-391.31 991.39,-380.14"/>
<polygon fill="midnightblue" stroke="midnightblue" points="992.49,-383.47 1001.26,-377.52 990.69,-376.71 992.49,-383.47"/>
</g>
<!-- Node28&#45;&gt;Node6 -->
<g id="edge40" class="edge">
<title>Node28&#45;&gt;Node6</title>
<path fill="none" stroke="midnightblue" d="M1002.05,-347.48C964.8,-337.43 914.48,-323.86 875.12,-313.24"/>
<polygon fill="midnightblue" stroke="midnightblue" points="875.94,-309.84 865.37,-310.61 874.11,-316.59 875.94,-309.84"/>
</g>
<!-- Node28&#45;&gt;Node14 -->
<g id="edge33" class="edge">
<title>Node28&#45;&gt;Node14</title>
<path fill="none" stroke="midnightblue" d="M1110.93,-347.8C1146.4,-338.16 1187.6,-324.6 1200.05,-311 1223.56,-285.32 1219.05,-269.82 1219.05,-235 1219.05,-235 1219.05,-235 1219.05,-177 1219.05,-141.82 1239.33,-104.86 1252.96,-84"/>
<polygon fill="midnightblue" stroke="midnightblue" points="1255.93,-85.85 1258.65,-75.61 1250.14,-81.92 1255.93,-85.85"/>
</g>
<!-- Node28&#45;&gt;Node21 -->
<g id="edge32" class="edge">
<title>Node28&#45;&gt;Node21</title>
<path fill="none" stroke="midnightblue" d="M1110.21,-347.48C1145.75,-338.15 1192.48,-325.07 1233.05,-311 1234.96,-310.34 1236.92,-309.62 1238.88,-308.88"/>
<polygon fill="midnightblue" stroke="midnightblue" points="1240.58,-311.98 1248.58,-305.04 1238,-305.47 1240.58,-311.98"/>
</g>
<!-- Node28&#45;&gt;Node23 -->
<g id="edge38" class="edge">
<title>Node28&#45;&gt;Node23</title>
<path fill="none" stroke="midnightblue" d="M997.22,-348.76C994.12,-348.14 991.05,-347.55 988.05,-347 881.54,-327.37 852.14,-337.17 747.05,-311 744,-310.24 740.85,-309.34 737.73,-308.37"/>
<polygon fill="midnightblue" stroke="midnightblue" points="738.54,-304.95 727.94,-305.11 736.32,-311.6 738.54,-304.95"/>
</g>
<!-- Node28&#45;&gt;Node24 -->
<g id="edge39" class="edge">
<title>Node28&#45;&gt;Node24</title>
<path fill="none" stroke="midnightblue" d="M997.24,-348.62C994.14,-348.04 991.06,-347.5 988.05,-347 845.54,-323.47 806.55,-340.01 665.05,-311 660.83,-310.13 656.45,-309.06 652.12,-307.89"/>
<polygon fill="midnightblue" stroke="midnightblue" points="652.82,-304.45 642.24,-305.05 650.88,-311.18 652.82,-304.45"/>
</g>
<!-- Node29 -->
<g id="node29" class="node">
<title>Node29</title>
<g id="a_node29"><a xlink:title=" ">
<polygon fill="white" stroke="#bfbfbf" points="995.05,-286 995.05,-305 1065.05,-305 1065.05,-286 995.05,-286"/>
<text text-anchor="middle" x="1030.05" y="-293" font-family="Helvetica,sans-Serif" font-size="10.00">stb_image.h</text>
</a>
</g>
</g>
<!-- Node28&#45;&gt;Node29 -->
<g id="edge31" class="edge">
<title>Node28&#45;&gt;Node29</title>
<path fill="none" stroke="midnightblue" d="M1048.84,-347.4C1045.32,-337.86 1040.64,-325.18 1036.83,-314.86"/>
<polygon fill="midnightblue" stroke="midnightblue" points="1040.01,-313.36 1033.26,-305.19 1033.44,-315.79 1040.01,-313.36"/>
</g>
<!-- Node30 -->
<g id="node30" class="node">
<title>Node30</title>
<g id="a_node30"><a xlink:title=" ">
<polygon fill="white" stroke="#bfbfbf" points="1083.55,-286 1083.55,-305 1190.55,-305 1190.55,-286 1083.55,-286"/>
<text text-anchor="middle" x="1137.05" y="-293" font-family="Helvetica,sans-Serif" font-size="10.00">boost/filesystem.hpp</text>
</a>
</g>
</g>
<!-- Node28&#45;&gt;Node30 -->
<g id="edge34" class="edge">
<title>Node28&#45;&gt;Node30</title>
<path fill="none" stroke="midnightblue" d="M1072.06,-347.4C1085.64,-336.76 1104.23,-322.2 1118.05,-311.38"/>
<polygon fill="midnightblue" stroke="midnightblue" points="1120.23,-314.12 1125.95,-305.19 1115.92,-308.6 1120.23,-314.12"/>
</g>
<!-- Node31 -->
<g id="node31" class="node">
<title>Node31</title>
<g id="a_node31"><a xlink:title=" ">
<polygon fill="white" stroke="#bfbfbf" points="887.55,-286 887.55,-305 976.55,-305 976.55,-286 887.55,-286"/>
<text text-anchor="middle" x="932.05" y="-293" font-family="Helvetica,sans-Serif" font-size="10.00">boost/format.hpp</text>
</a>
</g>
</g>
<!-- Node28&#45;&gt;Node31 -->
<g id="edge35" class="edge">
<title>Node28&#45;&gt;Node31</title>
<path fill="none" stroke="midnightblue" d="M1027.58,-347.4C1006.65,-336.24 977.62,-320.78 957.08,-309.83"/>
<polygon fill="midnightblue" stroke="midnightblue" points="958.49,-306.62 948.02,-305.01 955.2,-312.8 958.49,-306.62"/>
</g>
<!-- Node32 -->
<g id="node32" class="node">
<title>Node32</title>
<g id="a_node32"><a xlink:title=" ">
<polygon fill="white" stroke="#bfbfbf" points="286.05,-286 286.05,-305 360.05,-305 360.05,-286 286.05,-286"/>
<text text-anchor="middle" x="323.05" y="-293" font-family="Helvetica,sans-Serif" font-size="10.00">glm/vec2.hpp</text>
</a>
</g>
</g>
<!-- Node28&#45;&gt;Node32 -->
<g id="edge36" class="edge">
<title>Node28&#45;&gt;Node32</title>
<path fill="none" stroke="midnightblue" d="M997.27,-348.43C994.16,-347.9 991.07,-347.42 988.05,-347 715.06,-309.32 640.09,-360.8 369.05,-311 364.79,-310.22 360.37,-309.16 356.03,-307.97"/>
<polygon fill="midnightblue" stroke="midnightblue" points="356.75,-304.53 346.17,-305.01 354.75,-311.23 356.75,-304.53"/>
</g>
<!-- Node33 -->
<g id="node33" class="node">
<title>Node33</title>
<g id="a_node33"><a xlink:title=" ">
<polygon fill="white" stroke="#bfbfbf" points="378.05,-286 378.05,-305 452.05,-305 452.05,-286 378.05,-286"/>
<text text-anchor="middle" x="415.05" y="-293" font-family="Helvetica,sans-Serif" font-size="10.00">glm/vec3.hpp</text>
</a>
</g>
</g>
<!-- Node28&#45;&gt;Node33 -->
<g id="edge37" class="edge">
<title>Node28&#45;&gt;Node33</title>
<path fill="none" stroke="midnightblue" d="M997.27,-348.47C994.16,-347.93 991.07,-347.43 988.05,-347 755.65,-313.72 691.73,-354.6 461.05,-311 456.88,-310.21 452.57,-309.17 448.32,-308"/>
<polygon fill="midnightblue" stroke="midnightblue" points="449.23,-304.62 438.65,-305.12 447.23,-311.33 449.23,-304.62"/>
</g>
<!-- Node34&#45;&gt;Node14 -->
<g id="edge45" class="edge">
<title>Node34&#45;&gt;Node14</title>
<path fill="none" stroke="midnightblue" d="M1298.52,-414.28C1299.61,-391.92 1301.96,-330.74 1298.05,-280 1292.48,-207.64 1276.41,-122.67 1268.95,-85.73"/>
<polygon fill="midnightblue" stroke="midnightblue" points="1272.36,-84.97 1266.93,-75.87 1265.5,-86.37 1272.36,-84.97"/>
</g>
<!-- Node34&#45;&gt;Node21 -->
<g id="edge43" class="edge">
<title>Node34&#45;&gt;Node21</title>
<path fill="none" stroke="midnightblue" d="M1295.99,-414.31C1291.17,-393.99 1279.09,-343.05 1272.5,-315.28"/>
<polygon fill="midnightblue" stroke="midnightblue" points="1275.84,-314.18 1270.13,-305.26 1269.03,-315.79 1275.84,-314.18"/>
</g>
<!-- Node34&#45;&gt;Node22 -->
<g id="edge42" class="edge">
<title>Node34&#45;&gt;Node22</title>
<path fill="none" stroke="midnightblue" d="M1285.3,-414.48C1271.02,-404.93 1247.65,-389.31 1230.54,-377.87"/>
<polygon fill="midnightblue" stroke="midnightblue" points="1232.04,-374.66 1221.78,-372.01 1228.15,-380.48 1232.04,-374.66"/>
</g>
<!-- Node35 -->
<g id="node35" class="node">
<title>Node35</title>
<g id="a_node35"><a xlink:title=" ">
<polygon fill="white" stroke="#bfbfbf" points="1459.55,-353 1459.55,-372 1508.55,-372 1508.55,-353 1459.55,-353"/>
<text text-anchor="middle" x="1484.05" y="-360" font-family="Helvetica,sans-Serif" font-size="10.00">fstream</text>
</a>
</g>
</g>
<!-- Node34&#45;&gt;Node35 -->
<g id="edge44" class="edge">
<title>Node34&#45;&gt;Node35</title>
<path fill="none" stroke="midnightblue" d="M1331.58,-414.47C1362.84,-406.2 1410.61,-392.76 1451.05,-378 1452.71,-377.4 1454.4,-376.75 1456.1,-376.07"/>
<polygon fill="midnightblue" stroke="midnightblue" points="1457.84,-379.14 1465.72,-372.05 1455.14,-372.68 1457.84,-379.14"/>
</g>
<!-- Node36 -->
<g id="node36" class="node">
<title>Node36</title>
<g id="a_node36"><a xlink:href="kryne-engine_2_utils_2_utils_8h.html" target="_top" xlink:title=" ">
<polygon fill="white" stroke="black" points="1346.55,-347.5 1346.55,-377.5 1441.55,-377.5 1441.55,-347.5 1346.55,-347.5"/>
<text text-anchor="start" x="1354.55" y="-365.5" font-family="Helvetica,sans-Serif" font-size="10.00">kryne&#45;engine/Utils</text>
<text text-anchor="middle" x="1394.05" y="-354.5" font-family="Helvetica,sans-Serif" font-size="10.00">/Utils.h</text>
</a>
</g>
</g>
<!-- Node34&#45;&gt;Node36 -->
<g id="edge46" class="edge">
<title>Node34&#45;&gt;Node36</title>
<path fill="none" stroke="midnightblue" d="M1311.8,-414.48C1325.05,-406.27 1345.55,-393.56 1362.77,-382.88"/>
<polygon fill="midnightblue" stroke="midnightblue" points="1364.77,-385.77 1371.42,-377.52 1361.08,-379.82 1364.77,-385.77"/>
</g>
<!-- Node37 -->
<g id="node37" class="node">
<title>Node37</title>
<g id="a_node37"><a xlink:href="_string_utils_8hpp.html" target="_top" xlink:title=" ">
<polygon fill="white" stroke="black" points="1393.05,-168.5 1393.05,-187.5 1473.05,-187.5 1473.05,-168.5 1393.05,-168.5"/>
<text text-anchor="middle" x="1433.05" y="-175.5" font-family="Helvetica,sans-Serif" font-size="10.00">StringUtils.hpp</text>
</a>
</g>
</g>
<!-- Node36&#45;&gt;Node37 -->
<g id="edge47" class="edge">
<title>Node36&#45;&gt;Node37</title>
<path fill="none" stroke="midnightblue" d="M1419.17,-347.47C1432.35,-338.73 1447.5,-326.26 1456.05,-311 1475.04,-277.08 1476.87,-261.03 1465.05,-224 1461.71,-213.54 1454.95,-203.43 1448.5,-195.45"/>
<polygon fill="midnightblue" stroke="midnightblue" points="1450.99,-192.98 1441.8,-187.71 1445.7,-197.56 1450.99,-192.98"/>
</g>
<!-- Node38 -->
<g id="node38" class="node">
<title>Node38</title>
<g id="a_node38"><a xlink:href="_vector_mapping_8hpp.html" target="_top" xlink:title=" ">
<polygon fill="white" stroke="black" points="1345.55,-286 1345.55,-305 1446.55,-305 1446.55,-286 1345.55,-286"/>
<text text-anchor="middle" x="1396.05" y="-293" font-family="Helvetica,sans-Serif" font-size="10.00">VectorMapping.hpp</text>
</a>
</g>
</g>
<!-- Node36&#45;&gt;Node38 -->
<g id="edge49" class="edge">
<title>Node36&#45;&gt;Node38</title>
<path fill="none" stroke="midnightblue" d="M1394.48,-347.4C1394.77,-338.06 1395.15,-325.71 1395.47,-315.52"/>
<polygon fill="midnightblue" stroke="midnightblue" points="1398.97,-315.3 1395.78,-305.19 1391.98,-315.08 1398.97,-315.3"/>
</g>
<!-- Node37&#45;&gt;Node14 -->
<g id="edge48" class="edge">
<title>Node37&#45;&gt;Node14</title>
<path fill="none" stroke="midnightblue" d="M1419.87,-168.37C1391.04,-149.49 1322.15,-104.38 1286.79,-81.24"/>
<polygon fill="midnightblue" stroke="midnightblue" points="1288.46,-78.14 1278.17,-75.59 1284.62,-84 1288.46,-78.14"/>
</g>
<!-- Node39 -->
<g id="node39" class="node">
<title>Node39</title>
<g id="a_node39"><a xlink:title=" ">
<polygon fill="white" stroke="#bfbfbf" points="529.05,-224.5 529.05,-243.5 571.05,-243.5 571.05,-224.5 529.05,-224.5"/>
<text text-anchor="middle" x="550.05" y="-231.5" font-family="Helvetica,sans-Serif" font-size="10.00">vector</text>
</a>
</g>
</g>
<!-- Node38&#45;&gt;Node39 -->
<g id="edge50" class="edge">
<title>Node38&#45;&gt;Node39</title>
<path fill="none" stroke="midnightblue" d="M1345.54,-286.17C1330.32,-283.89 1313.53,-281.61 1298.05,-280 1020.91,-251.22 683.95,-239.1 581.24,-235.91"/>
<polygon fill="midnightblue" stroke="midnightblue" points="581.33,-232.41 571.23,-235.6 581.11,-239.4 581.33,-232.41"/>
</g>
<!-- Node40 -->
<g id="node40" class="node">
<title>Node40</title>
<g id="a_node40"><a xlink:title=" ">
<polygon fill="white" stroke="#bfbfbf" points="1342.55,-224.5 1342.55,-243.5 1455.55,-243.5 1455.55,-224.5 1342.55,-224.5"/>
<text text-anchor="middle" x="1399.05" y="-231.5" font-family="Helvetica,sans-Serif" font-size="10.00">glm/detail/qualifier.hpp</text>
</a>
</g>
</g>
<!-- Node38&#45;&gt;Node40 -->
<g id="edge51" class="edge">
<title>Node38&#45;&gt;Node40</title>
<path fill="none" stroke="midnightblue" d="M1396.48,-285.98C1396.9,-277.58 1397.56,-264.48 1398.11,-253.66"/>
<polygon fill="midnightblue" stroke="midnightblue" points="1401.61,-253.67 1398.62,-243.51 1394.62,-253.32 1401.61,-253.67"/>
</g>
<!-- Node41&#45;&gt;Node23 -->
<g id="edge56" class="edge">
<title>Node41&#45;&gt;Node23</title>
<path fill="none" stroke="midnightblue" d="M526.73,-347.49C566.47,-338.07 619.12,-324.89 665.05,-311 667.83,-310.16 670.7,-309.25 673.56,-308.3"/>
<polygon fill="midnightblue" stroke="midnightblue" points="674.86,-311.55 683.19,-305.01 672.59,-304.93 674.86,-311.55"/>
</g>
<!-- Node41&#45;&gt;Node24 -->
<g id="edge57" class="edge">
<title>Node41&#45;&gt;Node24</title>
<path fill="none" stroke="midnightblue" d="M498.03,-347.4C524.82,-335.94 562.24,-319.94 587.93,-308.95"/>
<polygon fill="midnightblue" stroke="midnightblue" points="589.34,-312.16 597.16,-305.01 586.59,-305.72 589.34,-312.16"/>
</g>
<!-- Node41&#45;&gt;Node32 -->
<g id="edge58" class="edge">
<title>Node41&#45;&gt;Node32</title>
<path fill="none" stroke="midnightblue" d="M434.24,-347.4C409.43,-336.04 374.87,-320.22 350.89,-309.24"/>
<polygon fill="midnightblue" stroke="midnightblue" points="352.18,-305.99 341.63,-305.01 349.27,-312.35 352.18,-305.99"/>
</g>
<!-- Node41&#45;&gt;Node33 -->
<g id="edge59" class="edge">
<title>Node41&#45;&gt;Node33</title>
<path fill="none" stroke="midnightblue" d="M454.2,-347.4C446.48,-337.36 436.08,-323.84 427.94,-313.25"/>
<polygon fill="midnightblue" stroke="midnightblue" points="430.61,-310.99 421.74,-305.19 425.06,-315.25 430.61,-310.99"/>
</g>
<!-- Node41&#45;&gt;Node39 -->
<g id="edge53" class="edge">
<title>Node41&#45;&gt;Node39</title>
<path fill="none" stroke="midnightblue" d="M491.1,-347.41C504.92,-338.66 521.07,-326.19 531.05,-311 542.35,-293.8 546.93,-270.39 548.79,-254.12"/>
<polygon fill="midnightblue" stroke="midnightblue" points="552.31,-253.99 549.71,-243.72 545.34,-253.36 552.31,-253.99"/>
</g>
<!-- Node42 -->
<g id="node42" class="node">
<title>Node42</title>
<g id="a_node42"><a xlink:title=" ">
<polygon fill="white" stroke="#bfbfbf" points="470.05,-286 470.05,-305 522.05,-305 522.05,-286 470.05,-286"/>
<text text-anchor="middle" x="496.05" y="-293" font-family="Helvetica,sans-Serif" font-size="10.00">stdarg.h</text>
</a>
</g>
</g>
<!-- Node41&#45;&gt;Node42 -->
<g id="edge54" class="edge">
<title>Node41&#45;&gt;Node42</title>
<path fill="none" stroke="midnightblue" d="M471.78,-347.4C476.37,-337.76 482.5,-324.91 487.45,-314.54"/>
<polygon fill="midnightblue" stroke="midnightblue" points="490.76,-315.73 491.9,-305.19 484.44,-312.71 490.76,-315.73"/>
</g>
<!-- Node43 -->
<g id="node43" class="node">
<title>Node43</title>
<g id="a_node43"><a xlink:title=" ">
<polygon fill="white" stroke="#bfbfbf" points="220.05,-286 220.05,-305 268.05,-305 268.05,-286 220.05,-286"/>
<text text-anchor="middle" x="244.05" y="-293" font-family="Helvetica,sans-Serif" font-size="10.00">stdlib.h</text>
</a>
</g>
</g>
<!-- Node41&#45;&gt;Node43 -->
<g id="edge55" class="edge">
<title>Node41&#45;&gt;Node43</title>
<path fill="none" stroke="midnightblue" d="M403.37,-347.44C366.33,-338.37 318.5,-325.58 277.05,-311 275.39,-310.41 273.69,-309.78 271.98,-309.12"/>
<polygon fill="midnightblue" stroke="midnightblue" points="272.93,-305.72 262.35,-305.13 270.25,-312.19 272.93,-305.72"/>
</g>
<!-- Node44&#45;&gt;Node32 -->
<g id="edge63" class="edge">
<title>Node44&#45;&gt;Node32</title>
<path fill="none" stroke="midnightblue" d="M247.88,-347.4C263.83,-336.6 285.75,-321.76 301.8,-310.89"/>
<polygon fill="midnightblue" stroke="midnightblue" points="304.17,-313.51 310.49,-305.01 300.24,-307.72 304.17,-313.51"/>
</g>
<!-- Node44&#45;&gt;Node33 -->
<g id="edge64" class="edge">
<title>Node44&#45;&gt;Node33</title>
<path fill="none" stroke="midnightblue" d="M267.84,-347.4C301.56,-335.74 348.89,-319.37 380.7,-308.38"/>
<polygon fill="midnightblue" stroke="midnightblue" points="382.14,-311.58 390.45,-305.01 379.85,-304.97 382.14,-311.58"/>
</g>
<!-- Node44&#45;&gt;Node39 -->
<g id="edge61" class="edge">
<title>Node44&#45;&gt;Node39</title>
<path fill="none" stroke="midnightblue" d="M155.38,-357.13C75.96,-349.74 -35.22,-330.29 11.05,-280 45.54,-242.51 408.92,-236.24 518.77,-235.2"/>
<polygon fill="midnightblue" stroke="midnightblue" points="518.91,-238.7 528.88,-235.12 518.85,-231.7 518.91,-238.7"/>
</g>
<!-- Node45 -->
<g id="node45" class="node">
<title>Node45</title>
<g id="a_node45"><a xlink:title=" ">
<polygon fill="white" stroke="#bfbfbf" points="20.05,-286 20.05,-305 64.05,-305 64.05,-286 20.05,-286"/>
<text text-anchor="middle" x="42.05" y="-293" font-family="Helvetica,sans-Serif" font-size="10.00">cmath</text>
</a>
</g>
</g>
<!-- Node44&#45;&gt;Node45 -->
<g id="edge62" class="edge">
<title>Node44&#45;&gt;Node45</title>
<path fill="none" stroke="midnightblue" d="M179.34,-347.49C148.65,-338.07 108.1,-324.89 73.05,-311 71.63,-310.44 70.19,-309.85 68.74,-309.23"/>
<polygon fill="midnightblue" stroke="midnightblue" points="69.83,-305.88 59.27,-305 66.97,-312.27 69.83,-305.88"/>
</g>
<!-- Node46 -->
<g id="node46" class="node">
<title>Node46</title>
<g id="a_node46"><a xlink:href="_cube_vertex_data_8h.html" target="_top" xlink:title=" ">
<polygon fill="white" stroke="black" points="82.55,-280.5 82.55,-310.5 201.55,-310.5 201.55,-280.5 82.55,-280.5"/>
<text text-anchor="start" x="90.55" y="-298.5" font-family="Helvetica,sans-Serif" font-size="10.00">kryne&#45;engine/Constants</text>
<text text-anchor="middle" x="142.05" y="-287.5" font-family="Helvetica,sans-Serif" font-size="10.00">/CubeVertexData.h</text>
</a>
</g>
</g>
<!-- Node44&#45;&gt;Node46 -->
<g id="edge65" class="edge">
<title>Node44&#45;&gt;Node46</title>
<path fill="none" stroke="midnightblue" d="M208.61,-347.4C196.91,-338.45 181.59,-326.74 168.6,-316.8"/>
<polygon fill="midnightblue" stroke="midnightblue" points="170.53,-313.87 160.46,-310.58 166.28,-319.43 170.53,-313.87"/>
</g>
<!-- Node47&#45;&gt;Node28 -->
<g id="edge67" class="edge">
<title>Node47&#45;&gt;Node28</title>
<path fill="none" stroke="midnightblue" d="M777.48,-470.44C808.82,-460.85 850.68,-447.5 887.05,-434 930.82,-417.76 979.95,-396.66 1013.52,-381.8"/>
<polygon fill="midnightblue" stroke="midnightblue" points="1015.27,-384.85 1022.99,-377.59 1012.43,-378.45 1015.27,-384.85"/>
</g>
<!-- Node48&#45;&gt;Node2 -->
<g id="edge70" class="edge">
<title>Node48&#45;&gt;Node2</title>
<path fill="none" stroke="midnightblue" d="M634,-604.4C620.4,-595.28 602.51,-583.29 587.5,-573.24"/>
<polygon fill="midnightblue" stroke="midnightblue" points="589.31,-570.24 579.06,-567.58 585.42,-576.05 589.31,-570.24"/>
</g>
<!-- Node48&#45;&gt;Node47 -->
<g id="edge69" class="edge">
<title>Node48&#45;&gt;Node47</title>
<path fill="none" stroke="midnightblue" d="M663.08,-604.37C675.99,-581.65 701.5,-536.75 717.04,-509.4"/>
<polygon fill="midnightblue" stroke="midnightblue" points="720.18,-510.95 722.08,-500.52 714.1,-507.49 720.18,-510.95"/>
</g>
</g>
</svg>
