<?xml version="1.0" encoding="UTF-8" standalone="no"?>
<!DOCTYPE svg PUBLIC "-//W3C//DTD SVG 1.1//EN"
 "http://www.w3.org/Graphics/SVG/1.1/DTD/svg11.dtd">
<!-- Generated by graphviz version 2.44.1 (20200629.0846)
 -->
<!-- Title: kryne&#45;engine/include/kryne&#45;engine/Rendering/RenderingState.hpp Pages: 1 -->
<svg width="700pt" height="351pt"
 viewBox="0.00 0.00 699.50 351.00" xmlns="http://www.w3.org/2000/svg" xmlns:xlink="http://www.w3.org/1999/xlink">
<g id="graph0" class="graph" transform="scale(1 1) rotate(0) translate(4 347)">
<title>kryne&#45;engine/include/kryne&#45;engine/Rendering/RenderingState.hpp</title>
<polygon fill="white" stroke="transparent" points="-4,4 -4,-347 695.5,-347 695.5,4 -4,4"/>
<!-- Node1 -->
<g id="node1" class="node">
<title>Node1</title>
<g id="a_node1"><a xlink:title=" ">
<polygon fill="#bfbfbf" stroke="black" points="370,-301.5 370,-342.5 492,-342.5 492,-301.5 370,-301.5"/>
<text text-anchor="start" x="378" y="-330.5" font-family="Helvetica,sans-Serif" font-size="10.00">kryne&#45;engine/include</text>
<text text-anchor="start" x="378" y="-319.5" font-family="Helvetica,sans-Serif" font-size="10.00">/kryne&#45;engine/Rendering</text>
<text text-anchor="middle" x="431" y="-308.5" font-family="Helvetica,sans-Serif" font-size="10.00">/RenderingState.hpp</text>
</a>
</g>
</g>
<!-- Node2 -->
<g id="node2" class="node">
<title>Node2</title>
<g id="a_node2"><a xlink:href="_rendering_8h.html" target="_top" xlink:title=" ">
<polygon fill="white" stroke="black" points="413.5,-151 413.5,-181 538.5,-181 538.5,-151 413.5,-151"/>
<text text-anchor="start" x="421.5" y="-169" font-family="Helvetica,sans-Serif" font-size="10.00">kryne&#45;engine/include</text>
<text text-anchor="middle" x="476" y="-158" font-family="Helvetica,sans-Serif" font-size="10.00">/KEModules/Rendering.h</text>
</a>
</g>
</g>
<!-- Node1&#45;&gt;Node2 -->
<g id="edge1" class="edge">
<title>Node1&#45;&gt;Node2</title>
<path fill="none" stroke="midnightblue" d="M434.79,-291.57C437.8,-271.86 442.72,-245.5 450,-223 454.75,-208.31 462.39,-192.43 468.15,-181.34"/>
<polygon fill="midnightblue" stroke="midnightblue" points="431.33,-291.1 433.36,-301.5 438.25,-292.1 431.33,-291.1"/>
</g>
<!-- Node3 -->
<g id="node3" class="node">
<title>Node3</title>
<g id="a_node3"><a xlink:href="_open_g_l_context_8h.html" target="_top" xlink:title=" ">
<polygon fill="white" stroke="black" points="230.5,-223.5 230.5,-264.5 399.5,-264.5 399.5,-223.5 230.5,-223.5"/>
<text text-anchor="start" x="238.5" y="-252.5" font-family="Helvetica,sans-Serif" font-size="10.00">kryne&#45;engine/include</text>
<text text-anchor="start" x="238.5" y="-241.5" font-family="Helvetica,sans-Serif" font-size="10.00">/kryne&#45;engine/Core/GraphicContext</text>
<text text-anchor="middle" x="315" y="-230.5" font-family="Helvetica,sans-Serif" font-size="10.00">/OpenGLContext.h</text>
</a>
</g>
</g>
<!-- Node1&#45;&gt;Node3 -->
<g id="edge2" class="edge">
<title>Node1&#45;&gt;Node3</title>
<path fill="none" stroke="midnightblue" d="M392.72,-295.92C377.12,-285.7 359.37,-274.07 344.77,-264.51"/>
<polygon fill="midnightblue" stroke="midnightblue" points="390.84,-298.88 401.13,-301.43 394.68,-293.02 390.84,-298.88"/>
</g>
<!-- Node9 -->
<g id="node9" class="node">
<title>Node9</title>
<g id="a_node9"><a xlink:href="_renderer_8h.html" target="_top" xlink:title=" ">
<polygon fill="white" stroke="black" points="459,-223.5 459,-264.5 581,-264.5 581,-223.5 459,-223.5"/>
<text text-anchor="start" x="467" y="-252.5" font-family="Helvetica,sans-Serif" font-size="10.00">kryne&#45;engine/include</text>
<text text-anchor="start" x="467" y="-241.5" font-family="Helvetica,sans-Serif" font-size="10.00">/kryne&#45;engine/Rendering</text>
<text text-anchor="middle" x="520" y="-230.5" font-family="Helvetica,sans-Serif" font-size="10.00">/Renderer.h</text>
</a>
</g>
</g>
<!-- Node1&#45;&gt;Node9 -->
<g id="edge9" class="edge">
<title>Node1&#45;&gt;Node9</title>
<path fill="none" stroke="midnightblue" d="M461.71,-294.78C473.34,-284.84 486.37,-273.72 497.16,-264.51"/>
<polygon fill="midnightblue" stroke="midnightblue" points="459.25,-292.27 453.92,-301.43 463.8,-297.6 459.25,-292.27"/>
</g>
<!-- Node4 -->
<g id="node4" class="node">
<title>Node4</title>
<g id="a_node4"><a xlink:href="_open_g_l_framebuffer_8h.html" target="_top" xlink:title=" ">
<polygon fill="white" stroke="black" points="5,-145.5 5,-186.5 159,-186.5 159,-145.5 5,-145.5"/>
<text text-anchor="start" x="13" y="-174.5" font-family="Helvetica,sans-Serif" font-size="10.00">kryne&#45;engine/include</text>
<text text-anchor="start" x="13" y="-163.5" font-family="Helvetica,sans-Serif" font-size="10.00">/kryne&#45;engine/Rendering</text>
<text text-anchor="middle" x="82" y="-152.5" font-family="Helvetica,sans-Serif" font-size="10.00">/OpenGL/OpenGLFramebuffer.h</text>
</a>
</g>
</g>
<!-- Node3&#45;&gt;Node4 -->
<g id="edge3" class="edge">
<title>Node3&#45;&gt;Node4</title>
<path fill="none" stroke="midnightblue" d="M245.42,-220.3C212.44,-209.55 173.43,-196.82 141.8,-186.51"/>
<polygon fill="midnightblue" stroke="midnightblue" points="244.4,-223.65 255,-223.43 246.58,-217 244.4,-223.65"/>
</g>
<!-- Node8 -->
<g id="node8" class="node">
<title>Node8</title>
<g id="a_node8"><a xlink:href="_open_g_l_context_8cpp.html" target="_top" xlink:title=" ">
<polygon fill="white" stroke="black" points="177.5,-151 177.5,-181 356.5,-181 356.5,-151 177.5,-151"/>
<text text-anchor="start" x="185.5" y="-169" font-family="Helvetica,sans-Serif" font-size="10.00">kryne&#45;engine/src/Core</text>
<text text-anchor="middle" x="267" y="-158" font-family="Helvetica,sans-Serif" font-size="10.00">/GraphicContext/OpenGLContext.cpp</text>
</a>
</g>
</g>
<!-- Node3&#45;&gt;Node8 -->
<g id="edge8" class="edge">
<title>Node3&#45;&gt;Node8</title>
<path fill="none" stroke="midnightblue" d="M297.09,-214.64C289.89,-203.25 281.92,-190.62 275.98,-181.23"/>
<polygon fill="midnightblue" stroke="midnightblue" points="294.34,-216.84 302.64,-223.43 300.26,-213.1 294.34,-216.84"/>
</g>
<!-- Node5 -->
<g id="node5" class="node">
<title>Node5</title>
<g id="a_node5"><a xlink:href="_open_g_l_renderer_8h.html" target="_top" xlink:title=" ">
<polygon fill="white" stroke="black" points="248,-67.5 248,-108.5 390,-108.5 390,-67.5 248,-67.5"/>
<text text-anchor="start" x="256" y="-96.5" font-family="Helvetica,sans-Serif" font-size="10.00">kryne&#45;engine/include</text>
<text text-anchor="start" x="256" y="-85.5" font-family="Helvetica,sans-Serif" font-size="10.00">/kryne&#45;engine/Rendering</text>
<text text-anchor="middle" x="319" y="-74.5" font-family="Helvetica,sans-Serif" font-size="10.00">/OpenGL/OpenGLRenderer.h</text>
</a>
</g>
</g>
<!-- Node4&#45;&gt;Node5 -->
<g id="edge4" class="edge">
<title>Node4&#45;&gt;Node5</title>
<path fill="none" stroke="midnightblue" d="M152.78,-142.3C186.32,-131.55 226,-118.82 258.17,-108.51"/>
<polygon fill="midnightblue" stroke="midnightblue" points="151.49,-139.04 143.03,-145.43 153.62,-145.71 151.49,-139.04"/>
</g>
<!-- Node7 -->
<g id="node7" class="node">
<title>Node7</title>
<g id="a_node7"><a xlink:href="_open_g_l_framebuffer_8cpp.html" target="_top" xlink:title=" ">
<polygon fill="white" stroke="black" points="0,-73 0,-103 164,-103 164,-73 0,-73"/>
<text text-anchor="start" x="8" y="-91" font-family="Helvetica,sans-Serif" font-size="10.00">kryne&#45;engine/src/Rendering</text>
<text text-anchor="middle" x="82" y="-80" font-family="Helvetica,sans-Serif" font-size="10.00">/OpenGL/OpenGLFramebuffer.cpp</text>
</a>
</g>
</g>
<!-- Node4&#45;&gt;Node7 -->
<g id="edge7" class="edge">
<title>Node4&#45;&gt;Node7</title>
<path fill="none" stroke="midnightblue" d="M82,-135.28C82,-124.25 82,-112.25 82,-103.23"/>
<polygon fill="midnightblue" stroke="midnightblue" points="78.5,-135.43 82,-145.43 85.5,-135.43 78.5,-135.43"/>
</g>
<!-- Node5&#45;&gt;Node3 -->
<g id="edge5" class="edge">
<title>Node5&#45;&gt;Node3</title>
<path fill="none" stroke="midnightblue" d="M348.02,-115.9C355.31,-124.42 362.14,-134.41 366,-145 372.39,-162.54 372.74,-169.59 366,-187 360.59,-200.98 349.88,-213.61 339.67,-223.33"/>
<polygon fill="midnightblue" stroke="midnightblue" points="350.6,-113.54 341.28,-108.51 345.43,-118.26 350.6,-113.54"/>
</g>
<!-- Node6 -->
<g id="node6" class="node">
<title>Node6</title>
<g id="a_node6"><a xlink:href="_open_g_l_renderer_8cpp.html" target="_top" xlink:title=" ">
<polygon fill="white" stroke="black" points="243,-0.5 243,-30.5 395,-30.5 395,-0.5 243,-0.5"/>
<text text-anchor="start" x="251" y="-18.5" font-family="Helvetica,sans-Serif" font-size="10.00">kryne&#45;engine/src/Rendering</text>
<text text-anchor="middle" x="319" y="-7.5" font-family="Helvetica,sans-Serif" font-size="10.00">/OpenGL/OpenGLRenderer.cpp</text>
</a>
</g>
</g>
<!-- Node5&#45;&gt;Node6 -->
<g id="edge6" class="edge">
<title>Node5&#45;&gt;Node6</title>
<path fill="none" stroke="midnightblue" d="M319,-57.08C319,-48.01 319,-38.45 319,-30.89"/>
<polygon fill="midnightblue" stroke="midnightblue" points="315.5,-57.36 319,-67.36 322.5,-57.36 315.5,-57.36"/>
</g>
<!-- Node9&#45;&gt;Node2 -->
<g id="edge10" class="edge">
<title>Node9&#45;&gt;Node2</title>
<path fill="none" stroke="midnightblue" d="M503.58,-214.64C496.99,-203.25 489.67,-190.62 484.24,-181.23"/>
<polygon fill="midnightblue" stroke="midnightblue" points="500.63,-216.53 508.67,-223.43 506.69,-213.02 500.63,-216.53"/>
</g>
<!-- Node10 -->
<g id="node10" class="node">
<title>Node10</title>
<g id="a_node10"><a xlink:href="_renderer_8cpp.html" target="_top" xlink:title=" ">
<polygon fill="white" stroke="black" points="556.5,-151 556.5,-181 691.5,-181 691.5,-151 556.5,-151"/>
<text text-anchor="start" x="564.5" y="-169" font-family="Helvetica,sans-Serif" font-size="10.00">kryne&#45;engine/src/Rendering</text>
<text text-anchor="middle" x="624" y="-158" font-family="Helvetica,sans-Serif" font-size="10.00">/Renderer.cpp</text>
</a>
</g>
</g>
<!-- Node9&#45;&gt;Node10 -->
<g id="edge11" class="edge">
<title>Node9&#45;&gt;Node10</title>
<path fill="none" stroke="midnightblue" d="M555.14,-217.32C571.63,-205.27 590.66,-191.36 604.53,-181.23"/>
<polygon fill="midnightblue" stroke="midnightblue" points="552.79,-214.7 546.78,-223.43 556.92,-220.35 552.79,-214.7"/>
</g>
</g>
</svg>
