<?xml version="1.0" encoding="UTF-8" standalone="no"?>
<!DOCTYPE svg PUBLIC "-//W3C//DTD SVG 1.1//EN"
 "http://www.w3.org/Graphics/SVG/1.1/DTD/svg11.dtd">
<!-- Generated by graphviz version 2.40.1 (20161225.0304)
 -->
<!-- Title: kryne&#45;engine/include/kryne&#45;engine/Rendering/RenderScene.h Pages: 1 -->
<svg width="1880pt" height="765pt"
 viewBox="0.00 0.00 1880.37 765.00" xmlns="http://www.w3.org/2000/svg" xmlns:xlink="http://www.w3.org/1999/xlink">
<g id="graph0" class="graph" transform="scale(1 1) rotate(0) translate(4 761)">
<title>kryne&#45;engine/include/kryne&#45;engine/Rendering/RenderScene.h</title>
<polygon fill="#ffffff" stroke="transparent" points="-4,4 -4,-761 1876.3726,-761 1876.3726,4 -4,4"/>
<!-- Node0 -->
<g id="node1" class="node">
<title>Node0</title>
<polygon fill="#bfbfbf" stroke="#000000" points="870.8211,-715.5 870.8211,-756.5 992.8211,-756.5 992.8211,-715.5 870.8211,-715.5"/>
<text text-anchor="start" x="878.8211" y="-744.5" font-family="Helvetica,sans-Serif" font-size="10.00" fill="#000000">kryne&#45;engine/include</text>
<text text-anchor="start" x="878.8211" y="-733.5" font-family="Helvetica,sans-Serif" font-size="10.00" fill="#000000">/kryne&#45;engine/Rendering</text>
<text text-anchor="middle" x="931.8211" y="-722.5" font-family="Helvetica,sans-Serif" font-size="10.00" fill="#000000">/RenderScene.h</text>
</g>
<!-- Node1 -->
<g id="node2" class="node">
<title>Node1</title>
<g id="a_node2"><a xlink:href="_window_8h.html" target="_top" xlink:title="kryne&#45;engine/Core/Window.h">
<polygon fill="#ffffff" stroke="#000000" points="1531.3211,-386 1531.3211,-405 1674.3211,-405 1674.3211,-386 1531.3211,-386"/>
<text text-anchor="middle" x="1602.8211" y="-393" font-family="Helvetica,sans-Serif" font-size="10.00" fill="#000000">kryne&#45;engine/Core/Window.h</text>
</a>
</g>
</g>
<!-- Node0&#45;&gt;Node1 -->
<g id="edge1" class="edge">
<title>Node0&#45;&gt;Node1</title>
<path fill="none" stroke="#191970" d="M992.8216,-729.5586C1156.4578,-711.4623 1592.8211,-657.4881 1592.8211,-596.5 1592.8211,-596.5 1592.8211,-596.5 1592.8211,-529.5 1592.8211,-488.8572 1597.4525,-441.4723 1600.4115,-415.345"/>
<polygon fill="#191970" stroke="#191970" points="1603.9087,-415.5722 1601.5949,-405.2332 1596.9562,-414.7585 1603.9087,-415.5722"/>
</g>
<!-- Node19 -->
<g id="node20" class="node">
<title>Node19</title>
<g id="a_node20"><a xlink:href="_main_renderer_8h.html" target="_top" xlink:title="kryne&#45;engine/Rendering\l/MainRenderer.h">
<polygon fill="#ffffff" stroke="#000000" points="637.3211,-581.5 637.3211,-611.5 756.3211,-611.5 756.3211,-581.5 637.3211,-581.5"/>
<text text-anchor="start" x="645.3211" y="-599.5" font-family="Helvetica,sans-Serif" font-size="10.00" fill="#000000">kryne&#45;engine/Rendering</text>
<text text-anchor="middle" x="696.8211" y="-588.5" font-family="Helvetica,sans-Serif" font-size="10.00" fill="#000000">/MainRenderer.h</text>
</a>
</g>
</g>
<!-- Node0&#45;&gt;Node19 -->
<g id="edge23" class="edge">
<title>Node0&#45;&gt;Node19</title>
<path fill="none" stroke="#191970" d="M897.146,-715.4163C852.4735,-688.8979 775.3028,-643.0881 730.9145,-616.7384"/>
<polygon fill="#191970" stroke="#191970" points="732.6141,-613.6772 722.2284,-611.5822 729.0409,-619.6965 732.6141,-613.6772"/>
</g>
<!-- Node20 -->
<g id="node21" class="node">
<title>Node20</title>
<g id="a_node21"><a xlink:href="_lighting_registry_8h.html" target="_top" xlink:title="kryne&#45;engine/Light\l/LightingRegistry.h">
<polygon fill="#ffffff" stroke="#000000" points="647.8211,-514.5 647.8211,-544.5 745.8211,-544.5 745.8211,-514.5 647.8211,-514.5"/>
<text text-anchor="start" x="655.8211" y="-532.5" font-family="Helvetica,sans-Serif" font-size="10.00" fill="#000000">kryne&#45;engine/Light</text>
<text text-anchor="middle" x="696.8211" y="-521.5" font-family="Helvetica,sans-Serif" font-size="10.00" fill="#000000">/LightingRegistry.h</text>
</a>
</g>
</g>
<!-- Node0&#45;&gt;Node20 -->
<g id="edge105" class="edge">
<title>Node0&#45;&gt;Node20</title>
<path fill="none" stroke="#191970" d="M870.7481,-730.8877C798.647,-721.1849 681.8508,-693.1136 628.8211,-612 621.2818,-600.468 622.6884,-593.3376 628.8211,-581 635.0194,-568.5303 645.8387,-558.2729 657.0479,-550.2849"/>
<polygon fill="#191970" stroke="#191970" points="659.2101,-553.0514 665.6257,-544.6198 655.3524,-547.2103 659.2101,-553.0514"/>
</g>
<!-- Node67 -->
<g id="node49" class="node">
<title>Node67</title>
<g id="a_node49"><a xlink:href="_shadow_map_handler_8h.html" target="_top" xlink:title="kryne&#45;engine/Rendering\l/ShadowMapping/ShadowMapHandler.h">
<polygon fill="#ffffff" stroke="#000000" points="876.3211,-648.5 876.3211,-678.5 1067.3211,-678.5 1067.3211,-648.5 876.3211,-648.5"/>
<text text-anchor="start" x="884.3211" y="-666.5" font-family="Helvetica,sans-Serif" font-size="10.00" fill="#000000">kryne&#45;engine/Rendering</text>
<text text-anchor="middle" x="971.8211" y="-655.5" font-family="Helvetica,sans-Serif" font-size="10.00" fill="#000000">/ShadowMapping/ShadowMapHandler.h</text>
</a>
</g>
</g>
<!-- Node0&#45;&gt;Node67 -->
<g id="edge97" class="edge">
<title>Node0&#45;&gt;Node67</title>
<path fill="none" stroke="#191970" d="M943.1765,-715.4183C947.9764,-706.7186 953.5988,-696.5279 958.5854,-687.4897"/>
<polygon fill="#191970" stroke="#191970" points="961.7242,-689.0457 963.4905,-678.5991 955.5952,-685.6641 961.7242,-689.0457"/>
</g>
<!-- Node2 -->
<g id="node3" class="node">
<title>Node2</title>
<polygon fill="#ffffff" stroke="#bfbfbf" points="816.8211,-185 816.8211,-204 860.8211,-204 860.8211,-185 816.8211,-185"/>
<text text-anchor="middle" x="838.8211" y="-192" font-family="Helvetica,sans-Serif" font-size="10.00" fill="#000000">vector</text>
</g>
<!-- Node1&#45;&gt;Node2 -->
<g id="edge2" class="edge">
<title>Node1&#45;&gt;Node2</title>
<path fill="none" stroke="#191970" d="M1596.4668,-385.7163C1583.2717,-365.7383 1552.8034,-321.4254 1536.8211,-313 1441.414,-262.7039 1157.9246,-301.196 1052.8211,-277 1016.4677,-268.6311 1009.8084,-258.9419 974.8211,-246 928.5518,-228.8848 915.318,-229.0736 869.8211,-210 868.6349,-209.5027 867.4307,-208.9804 866.2198,-208.4408"/>
<polygon fill="#191970" stroke="#191970" points="867.5294,-205.1888 856.9916,-204.0905 864.5445,-211.5205 867.5294,-205.1888"/>
</g>
<!-- Node3 -->
<g id="node4" class="node">
<title>Node3</title>
<polygon fill="#ffffff" stroke="#bfbfbf" points="1715.8211,-319 1715.8211,-338 1793.8211,-338 1793.8211,-319 1715.8211,-319"/>
<text text-anchor="middle" x="1754.8211" y="-326" font-family="Helvetica,sans-Serif" font-size="10.00" fill="#000000">unordered_set</text>
</g>
<!-- Node1&#45;&gt;Node3 -->
<g id="edge3" class="edge">
<title>Node1&#45;&gt;Node3</title>
<path fill="none" stroke="#191970" d="M1624.599,-385.9005C1650.5595,-374.4574 1694.1324,-355.2509 1723.6557,-342.2374"/>
<polygon fill="#191970" stroke="#191970" points="1725.3448,-345.3178 1733.0836,-338.0817 1722.5214,-338.9125 1725.3448,-345.3178"/>
</g>
<!-- Node4 -->
<g id="node5" class="node">
<title>Node4</title>
<polygon fill="#ffffff" stroke="#bfbfbf" points="1478.3211,-319 1478.3211,-338 1527.3211,-338 1527.3211,-319 1478.3211,-319"/>
<text text-anchor="middle" x="1502.8211" y="-326" font-family="Helvetica,sans-Serif" font-size="10.00" fill="#000000">cstdarg</text>
</g>
<!-- Node1&#45;&gt;Node4 -->
<g id="edge4" class="edge">
<title>Node1&#45;&gt;Node4</title>
<path fill="none" stroke="#191970" d="M1588.4935,-385.9005C1572.0825,-374.9052 1544.9735,-356.7422 1525.6459,-343.7927"/>
<polygon fill="#191970" stroke="#191970" points="1527.3779,-340.7402 1517.1221,-338.0817 1523.4816,-346.5556 1527.3779,-340.7402"/>
</g>
<!-- Node5 -->
<g id="node6" class="node">
<title>Node5</title>
<polygon fill="#ffffff" stroke="#bfbfbf" points="1812.3211,-319 1812.3211,-338 1857.3211,-338 1857.3211,-319 1812.3211,-319"/>
<text text-anchor="middle" x="1834.8211" y="-326" font-family="Helvetica,sans-Serif" font-size="10.00" fill="#000000">cstdlib</text>
</g>
<!-- Node1&#45;&gt;Node5 -->
<g id="edge5" class="edge">
<title>Node1&#45;&gt;Node5</title>
<path fill="none" stroke="#191970" d="M1650.9134,-385.9371C1691.9419,-377.1146 1752.1597,-362.5817 1802.8211,-344 1804.2337,-343.4819 1805.6675,-342.9219 1807.1055,-342.3327"/>
<polygon fill="#191970" stroke="#191970" points="1808.7699,-345.4228 1816.4793,-338.1553 1805.9205,-339.029 1808.7699,-345.4228"/>
</g>
<!-- Node6 -->
<g id="node7" class="node">
<title>Node6</title>
<polygon fill="#ffffff" stroke="#bfbfbf" points="814.8211,-118 814.8211,-137 868.8211,-137 868.8211,-118 814.8211,-118"/>
<text text-anchor="middle" x="841.8211" y="-125" font-family="Helvetica,sans-Serif" font-size="10.00" fill="#000000">iostream</text>
</g>
<!-- Node1&#45;&gt;Node6 -->
<g id="edge6" class="edge">
<title>Node1&#45;&gt;Node6</title>
<path fill="none" stroke="#191970" d="M1604.6224,-385.7647C1607.1255,-369.9833 1610.4424,-338.0577 1601.8211,-313 1595.7334,-295.3064 1516.2498,-187.9567 1499.8211,-179 1472.4249,-164.064 1015.1563,-137.254 879.4784,-129.5951"/>
<polygon fill="#191970" stroke="#191970" points="879.3588,-126.0829 869.178,-129.0156 878.9655,-133.0719 879.3588,-126.0829"/>
</g>
<!-- Node7 -->
<g id="node8" class="node">
<title>Node7</title>
<polygon fill="#ffffff" stroke="#bfbfbf" points="1173.8211,-118 1173.8211,-137 1237.8211,-137 1237.8211,-118 1173.8211,-118"/>
<text text-anchor="middle" x="1205.8211" y="-125" font-family="Helvetica,sans-Serif" font-size="10.00" fill="#000000">glad/glad.h</text>
</g>
<!-- Node1&#45;&gt;Node7 -->
<g id="edge7" class="edge">
<title>Node1&#45;&gt;Node7</title>
<path fill="none" stroke="#191970" d="M1621.3233,-385.8461C1635.8847,-377.1028 1655.1218,-362.7295 1663.8211,-344 1669.6249,-331.5043 1668.9475,-325.7885 1663.8211,-313 1633.1763,-236.5532 1608.815,-217.1457 1535.8211,-179 1486.5547,-153.2541 1325.9777,-137.1852 1248.4579,-130.7397"/>
<polygon fill="#191970" stroke="#191970" points="1248.3424,-127.2188 1238.091,-129.8941 1247.7733,-134.1956 1248.3424,-127.2188"/>
</g>
<!-- Node8 -->
<g id="node9" class="node">
<title>Node8</title>
<polygon fill="#ffffff" stroke="#bfbfbf" points="1454.8211,-118 1454.8211,-137 1534.8211,-137 1534.8211,-118 1454.8211,-118"/>
<text text-anchor="middle" x="1494.8211" y="-125" font-family="Helvetica,sans-Serif" font-size="10.00" fill="#000000">GLFW/glfw3.h</text>
</g>
<!-- Node1&#45;&gt;Node8 -->
<g id="edge8" class="edge">
<title>Node1&#45;&gt;Node8</title>
<path fill="none" stroke="#191970" d="M1674.3829,-391.5258C1744.0527,-385.9835 1842.8456,-373.1045 1866.8211,-344 1875.5813,-333.3658 1872.3216,-325.6322 1866.8211,-313 1831.919,-232.8457 1800.13,-219.8191 1722.8211,-179 1666.3203,-149.1676 1593.0754,-136.5504 1545.0546,-131.2571"/>
<polygon fill="#191970" stroke="#191970" points="1545.2154,-127.7551 1534.908,-130.2062 1544.4942,-134.7178 1545.2154,-127.7551"/>
</g>
<!-- Node9 -->
<g id="node10" class="node">
<title>Node9</title>
<g id="a_node10"><a xlink:href="_additional_parameters_8h.html" target="_top" xlink:title="AdditionalParameters.h">
<polygon fill="#ffffff" stroke="#000000" points="887.8211,-319 887.8211,-338 1005.8211,-338 1005.8211,-319 887.8211,-319"/>
<text text-anchor="middle" x="946.8211" y="-326" font-family="Helvetica,sans-Serif" font-size="10.00" fill="#000000">AdditionalParameters.h</text>
</a>
</g>
</g>
<!-- Node1&#45;&gt;Node9 -->
<g id="edge9" class="edge">
<title>Node1&#45;&gt;Node9</title>
<path fill="none" stroke="#191970" d="M1531.1532,-388.4504C1432.1271,-378.6734 1247.8761,-360.3512 1090.8211,-344 1066.4214,-341.4597 1039.7048,-338.6044 1015.9811,-336.0432"/>
<polygon fill="#191970" stroke="#191970" points="1016.3308,-332.5607 1006.0125,-334.9653 1015.5782,-339.5201 1016.3308,-332.5607"/>
</g>
<!-- Node13 -->
<g id="node14" class="node">
<title>Node13</title>
<g id="a_node14"><a xlink:href="_old_camera_8h.html" target="_top" xlink:title="kryne&#45;engine/Camera\l/OldCamera.h">
<polygon fill="#ffffff" stroke="#000000" points="1363.8211,-246.5 1363.8211,-276.5 1473.8211,-276.5 1473.8211,-246.5 1363.8211,-246.5"/>
<text text-anchor="start" x="1371.8211" y="-264.5" font-family="Helvetica,sans-Serif" font-size="10.00" fill="#000000">kryne&#45;engine/Camera</text>
<text text-anchor="middle" x="1418.8211" y="-253.5" font-family="Helvetica,sans-Serif" font-size="10.00" fill="#000000">/OldCamera.h</text>
</a>
</g>
</g>
<!-- Node1&#45;&gt;Node13 -->
<g id="edge13" class="edge">
<title>Node1&#45;&gt;Node13</title>
<path fill="none" stroke="#191970" d="M1596.2896,-385.901C1589.9586,-368.8505 1582.0763,-333.1813 1560.8211,-313 1539.7152,-292.9604 1510.4959,-280.6951 1484.0018,-273.1983"/>
<polygon fill="#191970" stroke="#191970" points="1484.5663,-269.7273 1474.0037,-270.5523 1482.7754,-276.4943 1484.5663,-269.7273"/>
</g>
<!-- Node10 -->
<g id="node11" class="node">
<title>Node10</title>
<polygon fill="#ffffff" stroke="#bfbfbf" points="880.3211,-252 880.3211,-271 915.3211,-271 915.3211,-252 880.3211,-252"/>
<text text-anchor="middle" x="897.8211" y="-259" font-family="Helvetica,sans-Serif" font-size="10.00" fill="#000000">map</text>
</g>
<!-- Node9&#45;&gt;Node10 -->
<g id="edge10" class="edge">
<title>Node9&#45;&gt;Node10</title>
<path fill="none" stroke="#191970" d="M939.8006,-318.9005C932.305,-308.6515 920.2548,-292.1747 910.9835,-279.4976"/>
<polygon fill="#191970" stroke="#191970" points="913.5569,-277.0873 904.8286,-271.0817 907.9067,-281.2195 913.5569,-277.0873"/>
</g>
<!-- Node11 -->
<g id="node12" class="node">
<title>Node11</title>
<polygon fill="#ffffff" stroke="#bfbfbf" points="436.3211,-118 436.3211,-137 477.3211,-137 477.3211,-118 436.3211,-118"/>
<text text-anchor="middle" x="456.8211" y="-125" font-family="Helvetica,sans-Serif" font-size="10.00" fill="#000000">string</text>
</g>
<!-- Node9&#45;&gt;Node11 -->
<g id="edge11" class="edge">
<title>Node9&#45;&gt;Node11</title>
<path fill="none" stroke="#191970" d="M887.5246,-322.1768C811.3482,-313.4277 683.817,-296.486 640.8211,-277 620.9688,-268.0028 620.5616,-258.6623 602.8211,-246 578.1264,-228.3742 568.8944,-228.4654 544.8211,-210 517.8752,-189.3312 489.7561,-161.7436 472.7625,-144.2964"/>
<polygon fill="#191970" stroke="#191970" points="475.2418,-141.8253 465.7817,-137.0549 470.2022,-146.6835 475.2418,-141.8253"/>
</g>
<!-- Node12 -->
<g id="node13" class="node">
<title>Node12</title>
<polygon fill="#ffffff" stroke="#bfbfbf" points="933.8211,-252 933.8211,-271 965.8211,-271 965.8211,-252 933.8211,-252"/>
<text text-anchor="middle" x="949.8211" y="-259" font-family="Helvetica,sans-Serif" font-size="10.00" fill="#000000">any</text>
</g>
<!-- Node9&#45;&gt;Node12 -->
<g id="edge12" class="edge">
<title>Node9&#45;&gt;Node12</title>
<path fill="none" stroke="#191970" d="M947.2509,-318.9005C947.6875,-309.149 948.3766,-293.7597 948.9314,-281.3695"/>
<polygon fill="#191970" stroke="#191970" points="952.4411,-281.2282 949.392,-271.0817 945.4481,-280.9151 952.4411,-281.2282"/>
</g>
<!-- Node13&#45;&gt;Node1 -->
<g id="edge22" class="edge">
<title>Node13&#45;&gt;Node1</title>
<path fill="none" stroke="#191970" d="M1473.9415,-267.1931C1508.1767,-273.4008 1550.7003,-286.2999 1578.8211,-313 1596.506,-329.7915 1604.9333,-357.3049 1606.6733,-375.8949"/>
<polygon fill="#191970" stroke="#191970" points="1603.1746,-375.9943 1606.9307,-385.901 1610.1723,-375.8143 1603.1746,-375.9943"/>
</g>
<!-- Node13&#45;&gt;Node2 -->
<g id="edge14" class="edge">
<title>Node13&#45;&gt;Node2</title>
<path fill="none" stroke="#191970" d="M1363.4974,-257.4743C1233.5905,-247.8548 916.4738,-223.344 869.8211,-210 868.1108,-209.5108 866.3822,-208.9279 864.6622,-208.2795"/>
<polygon fill="#191970" stroke="#191970" points="865.6552,-204.8915 855.0942,-204.0449 862.8222,-211.2927 865.6552,-204.8915"/>
</g>
<!-- Node13&#45;&gt;Node7 -->
<g id="edge17" class="edge">
<title>Node13&#45;&gt;Node7</title>
<path fill="none" stroke="#191970" d="M1452.0238,-246.3697C1482.7444,-230.3217 1520.7367,-203.8979 1499.8211,-179 1468.1718,-141.3248 1321.6852,-131.2057 1248.1596,-128.492"/>
<polygon fill="#191970" stroke="#191970" points="1247.9762,-124.9838 1237.8633,-128.1429 1247.7389,-131.9798 1247.9762,-124.9838"/>
</g>
<!-- Node13&#45;&gt;Node8 -->
<g id="edge18" class="edge">
<title>Node13&#45;&gt;Node8</title>
<path fill="none" stroke="#191970" d="M1473.9328,-249.9145C1512.4988,-240.5602 1559.1314,-226.3031 1570.8211,-210 1578.8495,-198.8031 1577.2763,-191.172 1570.8211,-179 1561.9568,-162.2856 1544.9728,-149.999 1529.3048,-141.6276"/>
<polygon fill="#191970" stroke="#191970" points="1530.8151,-138.4697 1520.3032,-137.1471 1527.696,-144.7364 1530.8151,-138.4697"/>
</g>
<!-- Node14 -->
<g id="node15" class="node">
<title>Node14</title>
<polygon fill="#ffffff" stroke="#bfbfbf" points="1238.8211,-185 1238.8211,-204 1290.8211,-204 1290.8211,-185 1238.8211,-185"/>
<text text-anchor="middle" x="1264.8211" y="-192" font-family="Helvetica,sans-Serif" font-size="10.00" fill="#000000">stdarg.h</text>
</g>
<!-- Node13&#45;&gt;Node14 -->
<g id="edge15" class="edge">
<title>Node13&#45;&gt;Node14</title>
<path fill="none" stroke="#191970" d="M1384.2605,-246.4639C1357.8393,-234.969 1321.7232,-219.2561 1296.142,-208.1266"/>
<polygon fill="#191970" stroke="#191970" points="1297.4618,-204.884 1286.8958,-204.1039 1294.6692,-211.3028 1297.4618,-204.884"/>
</g>
<!-- Node15 -->
<g id="node16" class="node">
<title>Node15</title>
<polygon fill="#ffffff" stroke="#bfbfbf" points="1172.8211,-185 1172.8211,-204 1220.8211,-204 1220.8211,-185 1172.8211,-185"/>
<text text-anchor="middle" x="1196.8211" y="-192" font-family="Helvetica,sans-Serif" font-size="10.00" fill="#000000">stdlib.h</text>
</g>
<!-- Node13&#45;&gt;Node15 -->
<g id="edge16" class="edge">
<title>Node13&#45;&gt;Node15</title>
<path fill="none" stroke="#191970" d="M1363.4468,-249.0911C1325.3466,-239.9054 1273.8664,-226.2062 1229.8211,-210 1228.2283,-209.414 1226.6072,-208.7806 1224.9812,-208.1164"/>
<polygon fill="#191970" stroke="#191970" points="1226.3414,-204.8912 1215.7771,-204.0874 1223.5343,-211.3037 1226.3414,-204.8912"/>
</g>
<!-- Node16 -->
<g id="node17" class="node">
<title>Node16</title>
<polygon fill="#ffffff" stroke="#bfbfbf" points="721.3211,-118 721.3211,-137 796.3211,-137 796.3211,-118 721.3211,-118"/>
<text text-anchor="middle" x="758.8211" y="-125" font-family="Helvetica,sans-Serif" font-size="10.00" fill="#000000">glm/vec3.hpp</text>
</g>
<!-- Node13&#45;&gt;Node16 -->
<g id="edge19" class="edge">
<title>Node13&#45;&gt;Node16</title>
<path fill="none" stroke="#191970" d="M1393.502,-246.4649C1377.2701,-236.5685 1355.9258,-223.0709 1337.8211,-210 1320.1494,-197.2418 1320.0741,-187.0546 1299.8211,-179 1197.5437,-138.3245 913.79,-164.3979 805.8211,-143 801.8572,-142.2144 797.7635,-141.1943 793.7214,-140.0524"/>
<polygon fill="#191970" stroke="#191970" points="794.4706,-136.6211 783.8835,-137.0272 792.4131,-143.3119 794.4706,-136.6211"/>
</g>
<!-- Node17 -->
<g id="node18" class="node">
<title>Node17</title>
<polygon fill="#ffffff" stroke="#bfbfbf" points="878.8211,-185 878.8211,-204 964.8211,-204 964.8211,-185 878.8211,-185"/>
<text text-anchor="middle" x="921.8211" y="-192" font-family="Helvetica,sans-Serif" font-size="10.00" fill="#000000">glm/mat4x4.hpp</text>
</g>
<!-- Node13&#45;&gt;Node17 -->
<g id="edge20" class="edge">
<title>Node13&#45;&gt;Node17</title>
<path fill="none" stroke="#191970" d="M1363.7344,-254.0738C1267.414,-241.089 1069.6351,-214.4266 974.8101,-201.6434"/>
<polygon fill="#191970" stroke="#191970" points="975.2425,-198.1701 964.8646,-200.3026 974.3073,-205.1074 975.2425,-198.1701"/>
</g>
<!-- Node18 -->
<g id="node19" class="node">
<title>Node18</title>
<polygon fill="#ffffff" stroke="#bfbfbf" points="1346.8211,-185 1346.8211,-204 1490.8211,-204 1490.8211,-185 1346.8211,-185"/>
<text text-anchor="middle" x="1418.8211" y="-192" font-family="Helvetica,sans-Serif" font-size="10.00" fill="#000000">glm/gtc/matrix_transform.hpp</text>
</g>
<!-- Node13&#45;&gt;Node18 -->
<g id="edge21" class="edge">
<title>Node13&#45;&gt;Node18</title>
<path fill="none" stroke="#191970" d="M1418.8211,-246.2967C1418.8211,-236.7699 1418.8211,-224.3954 1418.8211,-214.1306"/>
<polygon fill="#191970" stroke="#191970" points="1422.3212,-214.0549 1418.8211,-204.055 1415.3212,-214.055 1422.3212,-214.0549"/>
</g>
<!-- Node19&#45;&gt;Node13 -->
<g id="edge60" class="edge">
<title>Node19&#45;&gt;Node13</title>
<path fill="none" stroke="#191970" d="M756.4326,-587.0998C771.8416,-584.8801 788.4264,-582.675 803.8211,-581 948.9156,-565.2134 1449.8211,-608.4508 1449.8211,-462.5 1449.8211,-462.5 1449.8211,-462.5 1449.8211,-395.5 1449.8211,-356.5019 1437.2039,-312.7242 1428.0683,-286.1379"/>
<polygon fill="#191970" stroke="#191970" points="1431.2948,-284.7643 1424.6519,-276.5106 1424.6978,-287.1054 1431.2948,-284.7643"/>
</g>
<!-- Node19&#45;&gt;Node20 -->
<g id="edge24" class="edge">
<title>Node19&#45;&gt;Node20</title>
<path fill="none" stroke="#191970" d="M696.8211,-581.2967C696.8211,-573.5013 696.8211,-563.7991 696.8211,-554.9064"/>
<polygon fill="#191970" stroke="#191970" points="700.3212,-554.6431 696.8211,-544.6432 693.3212,-554.6432 700.3212,-554.6431"/>
</g>
<!-- Node55 -->
<g id="node37" class="node">
<title>Node55</title>
<g id="a_node37"><a xlink:href="_skybox_8h.html" target="_top" xlink:title="kryne&#45;engine/3DObjects\l/Skybox.h">
<polygon fill="#ffffff" stroke="#000000" points="405.8211,-380.5 405.8211,-410.5 527.8211,-410.5 527.8211,-380.5 405.8211,-380.5"/>
<text text-anchor="start" x="413.8211" y="-398.5" font-family="Helvetica,sans-Serif" font-size="10.00" fill="#000000">kryne&#45;engine/3DObjects</text>
<text text-anchor="middle" x="466.8211" y="-387.5" font-family="Helvetica,sans-Serif" font-size="10.00" fill="#000000">/Skybox.h</text>
</a>
</g>
</g>
<!-- Node19&#45;&gt;Node55 -->
<g id="edge61" class="edge">
<title>Node19&#45;&gt;Node55</title>
<path fill="none" stroke="#191970" d="M679.5337,-581.3923C639.1418,-546.0933 538.456,-458.1027 491.5702,-417.1286"/>
<polygon fill="#191970" stroke="#191970" points="493.8283,-414.4538 483.9953,-410.5088 489.222,-419.7247 493.8283,-414.4538"/>
</g>
<!-- Node62 -->
<g id="node44" class="node">
<title>Node62</title>
<g id="a_node44"><a xlink:href="_old_render_pass_8h.html" target="_top" xlink:title="kryne&#45;engine/Rendering\l/OldRenderPass.h">
<polygon fill="#ffffff" stroke="#000000" points="1168.3211,-514.5 1168.3211,-544.5 1287.3211,-544.5 1287.3211,-514.5 1168.3211,-514.5"/>
<text text-anchor="start" x="1176.3211" y="-532.5" font-family="Helvetica,sans-Serif" font-size="10.00" fill="#000000">kryne&#45;engine/Rendering</text>
<text text-anchor="middle" x="1227.8211" y="-521.5" font-family="Helvetica,sans-Serif" font-size="10.00" fill="#000000">/OldRenderPass.h</text>
</a>
</g>
</g>
<!-- Node19&#45;&gt;Node62 -->
<g id="edge81" class="edge">
<title>Node19&#45;&gt;Node62</title>
<path fill="none" stroke="#191970" d="M756.494,-587.608C771.9021,-585.38 788.4711,-583.0438 803.8211,-581 928.487,-564.4016 1074.0735,-547.1917 1158.1397,-537.4661"/>
<polygon fill="#191970" stroke="#191970" points="1158.5489,-540.9422 1168.0812,-536.3177 1157.7456,-533.9884 1158.5489,-540.9422"/>
</g>
<!-- Node21 -->
<g id="node22" class="node">
<title>Node21</title>
<polygon fill="#ffffff" stroke="#bfbfbf" points="670.8211,-453 670.8211,-472 722.8211,-472 722.8211,-453 670.8211,-453"/>
<text text-anchor="middle" x="696.8211" y="-460" font-family="Helvetica,sans-Serif" font-size="10.00" fill="#000000">memory</text>
</g>
<!-- Node20&#45;&gt;Node21 -->
<g id="edge25" class="edge">
<title>Node20&#45;&gt;Node21</title>
<path fill="none" stroke="#191970" d="M696.8211,-514.2967C696.8211,-504.7699 696.8211,-492.3954 696.8211,-482.1306"/>
<polygon fill="#191970" stroke="#191970" points="700.3212,-482.0549 696.8211,-472.055 693.3212,-482.055 700.3212,-482.0549"/>
</g>
<!-- Node22 -->
<g id="node23" class="node">
<title>Node22</title>
<g id="a_node23"><a xlink:href="_old_directional_light_8h.html" target="_top" xlink:title="OldDirectionalLight.h">
<polygon fill="#ffffff" stroke="#000000" points="700.3211,-386 700.3211,-405 807.3211,-405 807.3211,-386 700.3211,-386"/>
<text text-anchor="middle" x="753.8211" y="-393" font-family="Helvetica,sans-Serif" font-size="10.00" fill="#000000">OldDirectionalLight.h</text>
</a>
</g>
</g>
<!-- Node20&#45;&gt;Node22 -->
<g id="edge26" class="edge">
<title>Node20&#45;&gt;Node22</title>
<path fill="none" stroke="#191970" d="M709.3254,-514.0913C716.7686,-504.2647 725.8886,-490.978 731.8211,-478 741.224,-457.4299 747.2335,-432.0736 750.5543,-414.9433"/>
<polygon fill="#191970" stroke="#191970" points="754.0156,-415.4713 752.3571,-405.0071 747.128,-414.2217 754.0156,-415.4713"/>
</g>
<!-- Node53 -->
<g id="node35" class="node">
<title>Node53</title>
<g id="a_node35"><a xlink:href="_old_point_light_8h.html" target="_top" xlink:title="OldPointLight.h">
<polygon fill="#ffffff" stroke="#000000" points="599.3211,-386 599.3211,-405 682.3211,-405 682.3211,-386 599.3211,-386"/>
<text text-anchor="middle" x="640.8211" y="-393" font-family="Helvetica,sans-Serif" font-size="10.00" fill="#000000">OldPointLight.h</text>
</a>
</g>
</g>
<!-- Node20&#45;&gt;Node53 -->
<g id="edge55" class="edge">
<title>Node20&#45;&gt;Node53</title>
<path fill="none" stroke="#191970" d="M684.2648,-514.1149C676.8021,-504.2971 667.6798,-491.0115 661.8211,-478 652.5625,-457.4378 646.8805,-432.08 643.8007,-414.9472"/>
<polygon fill="#191970" stroke="#191970" points="647.2406,-414.2962 642.1411,-405.0093 640.3362,-415.4492 647.2406,-414.2962"/>
</g>
<!-- Node22&#45;&gt;Node2 -->
<g id="edge28" class="edge">
<title>Node22&#45;&gt;Node2</title>
<path fill="none" stroke="#191970" d="M763.4995,-385.9135C773.0897,-376.0433 787.7626,-359.9015 797.8211,-344 815.2625,-316.4266 818.9058,-308.3849 827.8211,-277 833.7239,-256.2199 836.4838,-231.5747 837.7586,-214.6655"/>
<polygon fill="#191970" stroke="#191970" points="841.2737,-214.5421 838.4242,-204.3376 834.2882,-214.0918 841.2737,-214.5421"/>
</g>
<!-- Node22&#45;&gt;Node16 -->
<g id="edge27" class="edge">
<title>Node22&#45;&gt;Node16</title>
<path fill="none" stroke="#191970" d="M754.1007,-385.9776C754.6831,-365.8568 756.0369,-317.534 756.8211,-277 757.7169,-230.6964 758.3355,-176.3179 758.6282,-147.6112"/>
<polygon fill="#191970" stroke="#191970" points="762.131,-147.3303 758.7305,-137.296 755.1314,-147.2608 762.131,-147.3303"/>
</g>
<!-- Node23 -->
<g id="node24" class="node">
<title>Node23</title>
<g id="a_node24"><a xlink:href="_shader_8h.html" target="_top" xlink:title="kryne&#45;engine/Material\l/Shader.h">
<polygon fill="#ffffff" stroke="#000000" points="592.8211,-313.5 592.8211,-343.5 702.8211,-343.5 702.8211,-313.5 592.8211,-313.5"/>
<text text-anchor="start" x="600.8211" y="-331.5" font-family="Helvetica,sans-Serif" font-size="10.00" fill="#000000">kryne&#45;engine/Material</text>
<text text-anchor="middle" x="647.8211" y="-320.5" font-family="Helvetica,sans-Serif" font-size="10.00" fill="#000000">/Shader.h</text>
</a>
</g>
</g>
<!-- Node22&#45;&gt;Node23 -->
<g id="edge29" class="edge">
<title>Node22&#45;&gt;Node23</title>
<path fill="none" stroke="#191970" d="M738.6339,-385.9005C723.4431,-376.2988 699.6049,-361.2313 680.1633,-348.9427"/>
<polygon fill="#191970" stroke="#191970" points="681.9099,-345.9062 671.5869,-343.5218 678.1698,-351.8233 681.9099,-345.9062"/>
</g>
<!-- Node23&#45;&gt;Node10 -->
<g id="edge30" class="edge">
<title>Node23&#45;&gt;Node10</title>
<path fill="none" stroke="#191970" d="M702.9941,-313.7136C754.8694,-299.8111 830.3682,-279.5774 870.4447,-268.8369"/>
<polygon fill="#191970" stroke="#191970" points="871.5448,-272.1656 880.2979,-266.1962 869.7327,-265.4042 871.5448,-272.1656"/>
</g>
<!-- Node24 -->
<g id="node25" class="node">
<title>Node24</title>
<polygon fill="#ffffff" stroke="#bfbfbf" points="541.8211,-252 541.8211,-271 593.8211,-271 593.8211,-252 541.8211,-252"/>
<text text-anchor="middle" x="567.8211" y="-259" font-family="Helvetica,sans-Serif" font-size="10.00" fill="#000000">sstream</text>
</g>
<!-- Node23&#45;&gt;Node24 -->
<g id="edge31" class="edge">
<title>Node23&#45;&gt;Node24</title>
<path fill="none" stroke="#191970" d="M629.6678,-313.2967C616.9614,-302.6551 600.0124,-288.4602 587.0708,-277.6217"/>
<polygon fill="#191970" stroke="#191970" points="589.1438,-274.7924 579.23,-271.055 584.6493,-280.159 589.1438,-274.7924"/>
</g>
<!-- Node25 -->
<g id="node26" class="node">
<title>Node25</title>
<g id="a_node26"><a xlink:href="_dispatcher_8h.html" target="_top" xlink:title="kryne&#45;engine/Dispatch\l/Dispatcher.h">
<polygon fill="#ffffff" stroke="#000000" points="495.8211,-112.5 495.8211,-142.5 609.8211,-142.5 609.8211,-112.5 495.8211,-112.5"/>
<text text-anchor="start" x="503.8211" y="-130.5" font-family="Helvetica,sans-Serif" font-size="10.00" fill="#000000">kryne&#45;engine/Dispatch</text>
<text text-anchor="middle" x="552.8211" y="-119.5" font-family="Helvetica,sans-Serif" font-size="10.00" fill="#000000">/Dispatcher.h</text>
</a>
</g>
</g>
<!-- Node23&#45;&gt;Node25 -->
<g id="edge32" class="edge">
<title>Node23&#45;&gt;Node25</title>
<path fill="none" stroke="#191970" d="M592.7781,-314.5644C589.7575,-313.9889 586.7575,-313.4614 583.8211,-313 477.0567,-296.2246 197.0684,-322.0279 98.8211,-277 60.5381,-259.4545 47.9367,-248.9065 31.8211,-210 -15.9123,-94.7615 86.6201,-203.3527 485.6068,-143.0277"/>
<polygon fill="#191970" stroke="#191970" points="486.3364,-146.4567 495.6881,-141.4771 485.2722,-139.5381 486.3364,-146.4567"/>
</g>
<!-- Node38 -->
<g id="node30" class="node">
<title>Node38</title>
<g id="a_node30"><a xlink:href="_uniforms_handler_8h.html" target="_top" xlink:title="UniformsHandler.h">
<polygon fill="#ffffff" stroke="#ff0000" points="649.8211,-252 649.8211,-271 747.8211,-271 747.8211,-252 649.8211,-252"/>
<text text-anchor="middle" x="698.8211" y="-259" font-family="Helvetica,sans-Serif" font-size="10.00" fill="#000000">UniformsHandler.h</text>
</a>
</g>
</g>
<!-- Node23&#45;&gt;Node38 -->
<g id="edge37" class="edge">
<title>Node23&#45;&gt;Node38</title>
<path fill="none" stroke="#191970" d="M659.3938,-313.2967C667.1084,-303.1618 677.2762,-289.804 685.3539,-279.1921"/>
<polygon fill="#191970" stroke="#191970" points="688.276,-281.1319 691.5479,-271.055 682.706,-276.8921 688.276,-281.1319"/>
</g>
<!-- Node47 -->
<g id="node34" class="node">
<title>Node47</title>
<g id="a_node34"><a xlink:href="_shader_chunk_8h.html" target="_top" xlink:title="ShaderChunk.h">
<polygon fill="#ffffff" stroke="#ff0000" points="307.8211,-252 307.8211,-271 391.8211,-271 391.8211,-252 307.8211,-252"/>
<text text-anchor="middle" x="349.8211" y="-259" font-family="Helvetica,sans-Serif" font-size="10.00" fill="#000000">ShaderChunk.h</text>
</a>
</g>
</g>
<!-- Node23&#45;&gt;Node47 -->
<g id="edge51" class="edge">
<title>Node23&#45;&gt;Node47</title>
<path fill="none" stroke="#191970" d="M592.6974,-314.993C589.6976,-314.3069 586.7241,-313.6384 583.8211,-313 503.2889,-295.2917 481.8649,-296.7991 401.8211,-277 397.9203,-276.0351 393.8757,-274.9615 389.8436,-273.842"/>
<polygon fill="#191970" stroke="#191970" points="390.5126,-270.3929 379.9352,-271.0011 388.5832,-277.1218 390.5126,-270.3929"/>
</g>
<!-- Node26 -->
<g id="node27" class="node">
<title>Node26</title>
<g id="a_node27"><a xlink:href="_synchronizable_pool_8h.html" target="_top" xlink:title="SynchronizablePool.h">
<polygon fill="#ffffff" stroke="#ff0000" points="508.3211,-.5 508.3211,-19.5 619.3211,-19.5 619.3211,-.5 508.3211,-.5"/>
<text text-anchor="middle" x="563.8211" y="-7.5" font-family="Helvetica,sans-Serif" font-size="10.00" fill="#000000">SynchronizablePool.h</text>
</a>
</g>
</g>
<!-- Node25&#45;&gt;Node26 -->
<g id="edge33" class="edge">
<title>Node25&#45;&gt;Node26</title>
<path fill="none" stroke="#191970" d="M531.6424,-112.3026C514.8977,-98.2881 495.8677,-76.5978 505.8211,-56 512.1039,-42.9981 524.0445,-32.5481 535.4662,-24.9145"/>
<polygon fill="#191970" stroke="#191970" points="537.3387,-27.8718 543.997,-19.6305 533.6527,-21.9209 537.3387,-27.8718"/>
</g>
<!-- Node35 -->
<g id="node28" class="node">
<title>Node35</title>
<g id="a_node28"><a xlink:href="_runner_pool_8h.html" target="_top" xlink:title="RunnerPool.h">
<polygon fill="#ffffff" stroke="#ff0000" points="514.8211,-56.5 514.8211,-75.5 590.8211,-75.5 590.8211,-56.5 514.8211,-56.5"/>
<text text-anchor="middle" x="552.8211" y="-63.5" font-family="Helvetica,sans-Serif" font-size="10.00" fill="#000000">RunnerPool.h</text>
</a>
</g>
</g>
<!-- Node25&#45;&gt;Node35 -->
<g id="edge34" class="edge">
<title>Node25&#45;&gt;Node35</title>
<path fill="none" stroke="#191970" d="M552.8211,-112.2977C552.8211,-104.3834 552.8211,-94.6043 552.8211,-86.0759"/>
<polygon fill="#191970" stroke="#191970" points="556.3212,-85.8469 552.8211,-75.8469 549.3212,-85.847 556.3212,-85.8469"/>
</g>
<!-- Node36 -->
<g id="node29" class="node">
<title>Node36</title>
<g id="a_node29"><a xlink:href="_main_pool_8h.html" target="_top" xlink:title="MainPool.h">
<polygon fill="#ffffff" stroke="#ff0000" points="609.3211,-56.5 609.3211,-75.5 674.3211,-75.5 674.3211,-56.5 609.3211,-56.5"/>
<text text-anchor="middle" x="641.8211" y="-63.5" font-family="Helvetica,sans-Serif" font-size="10.00" fill="#000000">MainPool.h</text>
</a>
</g>
</g>
<!-- Node25&#45;&gt;Node36 -->
<g id="edge35" class="edge">
<title>Node25&#45;&gt;Node36</title>
<path fill="none" stroke="#191970" d="M574.8211,-112.2977C588.4178,-102.9022 605.8177,-90.8787 619.4778,-81.4395"/>
<polygon fill="#191970" stroke="#191970" points="621.5996,-84.2276 627.8368,-75.6633 617.6202,-78.4688 621.5996,-84.2276"/>
</g>
<!-- Node36&#45;&gt;Node26 -->
<g id="edge36" class="edge">
<title>Node36&#45;&gt;Node26</title>
<path fill="none" stroke="#191970" d="M628.2345,-56.2455C616.4906,-47.814 599.3012,-35.4729 585.6329,-25.6598"/>
<polygon fill="#191970" stroke="#191970" points="587.4164,-22.6316 577.2519,-19.6427 583.334,-28.3179 587.4164,-22.6316"/>
</g>
<!-- Node38&#45;&gt;Node7 -->
<g id="edge40" class="edge">
<title>Node38&#45;&gt;Node7</title>
<path fill="none" stroke="#191970" d="M707.9445,-251.8441C725.421,-234.0322 765.646,-196.2518 807.8211,-179 871.7127,-152.8649 1075.152,-136.3334 1163.828,-130.1969"/>
<polygon fill="#191970" stroke="#191970" points="1164.0667,-133.6889 1173.8056,-129.517 1163.5907,-126.7051 1164.0667,-133.6889"/>
</g>
<!-- Node38&#45;&gt;Node8 -->
<g id="edge41" class="edge">
<title>Node38&#45;&gt;Node8</title>
<path fill="none" stroke="#191970" d="M748.0118,-252.3484C803.0419,-242.0963 894.8357,-224.9531 973.8211,-210 1045.8481,-196.3642 1063.5197,-191.0969 1135.8211,-179 1245.5416,-160.6424 1374.811,-143.0937 1444.384,-133.9815"/>
<polygon fill="#191970" stroke="#191970" points="1445.1531,-137.4109 1454.6159,-132.6459 1444.247,-130.4697 1445.1531,-137.4109"/>
</g>
<!-- Node38&#45;&gt;Node11 -->
<g id="edge38" class="edge">
<title>Node38&#45;&gt;Node11</title>
<path fill="none" stroke="#191970" d="M679.9253,-251.8291C660.1095,-241.627 628.1153,-224.9839 600.8211,-210 558.8417,-186.9543 510.6717,-159.0569 482.0457,-142.3225"/>
<polygon fill="#191970" stroke="#191970" points="483.5222,-139.1312 473.1242,-137.0985 479.9851,-145.1718 483.5222,-139.1312"/>
</g>
<!-- Node38&#45;&gt;Node17 -->
<g id="edge42" class="edge">
<title>Node38&#45;&gt;Node17</title>
<path fill="none" stroke="#191970" d="M730.7715,-251.9005C770.1003,-240.0843 836.981,-219.9901 880.268,-206.9845"/>
<polygon fill="#191970" stroke="#191970" points="881.3599,-210.3111 889.9299,-204.0817 879.3457,-203.6072 881.3599,-210.3111"/>
</g>
<!-- Node39 -->
<g id="node31" class="node">
<title>Node39</title>
<polygon fill="#ffffff" stroke="#bfbfbf" points="393.3211,-185 393.3211,-204 476.3211,-204 476.3211,-185 393.3211,-185"/>
<text text-anchor="middle" x="434.8211" y="-192" font-family="Helvetica,sans-Serif" font-size="10.00" fill="#000000">unordered_map</text>
</g>
<!-- Node38&#45;&gt;Node39 -->
<g id="edge39" class="edge">
<title>Node38&#45;&gt;Node39</title>
<path fill="none" stroke="#191970" d="M661.2767,-251.9717C614.2996,-240.0495 533.8046,-219.6208 482.5136,-206.6038"/>
<polygon fill="#191970" stroke="#191970" points="483.2171,-203.1714 472.6634,-204.1039 481.4951,-209.9563 483.2171,-203.1714"/>
</g>
<!-- Node42 -->
<g id="node32" class="node">
<title>Node42</title>
<g id="a_node32"><a xlink:href="_texture_8h.html" target="_top" xlink:title="kryne&#45;engine/Textures\l/Texture.h">
<polygon fill="#ffffff" stroke="#ff0000" points="609.3211,-179.5 609.3211,-209.5 722.3211,-209.5 722.3211,-179.5 609.3211,-179.5"/>
<text text-anchor="start" x="617.3211" y="-197.5" font-family="Helvetica,sans-Serif" font-size="10.00" fill="#000000">kryne&#45;engine/Textures</text>
<text text-anchor="middle" x="665.8211" y="-186.5" font-family="Helvetica,sans-Serif" font-size="10.00" fill="#000000">/Texture.h</text>
</a>
</g>
</g>
<!-- Node38&#45;&gt;Node42 -->
<g id="edge43" class="edge">
<title>Node38&#45;&gt;Node42</title>
<path fill="none" stroke="#191970" d="M694.093,-251.9005C689.8324,-243.2503 683.3869,-230.164 677.7257,-218.6699"/>
<polygon fill="#191970" stroke="#191970" points="680.7782,-216.9462 673.2199,-209.5218 674.4986,-220.0392 680.7782,-216.9462"/>
</g>
<!-- Node42&#45;&gt;Node6 -->
<g id="edge45" class="edge">
<title>Node42&#45;&gt;Node6</title>
<path fill="none" stroke="#191970" d="M708.6301,-179.4304C736.4652,-169.4654 773.4671,-155.905 805.8211,-143 807.4288,-142.3587 809.0725,-141.6918 810.7292,-141.0108"/>
<polygon fill="#191970" stroke="#191970" points="812.3331,-144.1334 820.1981,-137.0346 809.6229,-137.6793 812.3331,-144.1334"/>
</g>
<!-- Node42&#45;&gt;Node7 -->
<g id="edge48" class="edge">
<title>Node42&#45;&gt;Node7</title>
<path fill="none" stroke="#191970" d="M722.6859,-181.5324C727.4557,-180.6132 732.2141,-179.7537 736.8211,-179 893.2578,-153.4085 1081.1841,-137.0792 1163.6,-130.6326"/>
<polygon fill="#191970" stroke="#191970" points="1164.1178,-134.1031 1173.8179,-129.8419 1163.5776,-127.124 1164.1178,-134.1031"/>
</g>
<!-- Node42&#45;&gt;Node8 -->
<g id="edge49" class="edge">
<title>Node42&#45;&gt;Node8</title>
<path fill="none" stroke="#191970" d="M722.4377,-187.8751C748.4308,-184.948 779.669,-181.5909 807.8211,-179 1045.7439,-157.1033 1330.6728,-138.0209 1444.3739,-130.6938"/>
<polygon fill="#191970" stroke="#191970" points="1444.7604,-134.1763 1454.5154,-130.0422 1444.3115,-127.1907 1444.7604,-134.1763"/>
</g>
<!-- Node42&#45;&gt;Node11 -->
<g id="edge44" class="edge">
<title>Node42&#45;&gt;Node11</title>
<path fill="none" stroke="#191970" d="M609.2395,-181.265C573.5382,-172.1731 526.7849,-158.8934 486.8211,-143 485.626,-142.5247 484.4155,-142.0171 483.2009,-141.4862"/>
<polygon fill="#191970" stroke="#191970" points="484.5343,-138.2446 474.0004,-137.1092 481.5271,-144.5658 484.5343,-138.2446"/>
</g>
<!-- Node42&#45;&gt;Node16 -->
<g id="edge47" class="edge">
<title>Node42&#45;&gt;Node16</title>
<path fill="none" stroke="#191970" d="M686.9242,-179.2967C701.9768,-168.4524 722.1511,-153.9182 737.2978,-143.006"/>
<polygon fill="#191970" stroke="#191970" points="739.4904,-145.7402 745.5582,-137.055 735.3986,-140.0606 739.4904,-145.7402"/>
</g>
<!-- Node42&#45;&gt;Node25 -->
<g id="edge50" class="edge">
<title>Node42&#45;&gt;Node25</title>
<path fill="none" stroke="#191970" d="M640.4617,-179.4639C624.7247,-170.1332 604.3006,-158.0232 587.1283,-147.8415"/>
<polygon fill="#191970" stroke="#191970" points="588.8736,-144.8073 578.4868,-142.7177 585.3034,-150.8285 588.8736,-144.8073"/>
</g>
<!-- Node46 -->
<g id="node33" class="node">
<title>Node46</title>
<polygon fill="#ffffff" stroke="#bfbfbf" points="628.3211,-118 628.3211,-137 703.3211,-137 703.3211,-118 628.3211,-118"/>
<text text-anchor="middle" x="665.8211" y="-125" font-family="Helvetica,sans-Serif" font-size="10.00" fill="#000000">glm/vec2.hpp</text>
</g>
<!-- Node42&#45;&gt;Node46 -->
<g id="edge46" class="edge">
<title>Node42&#45;&gt;Node46</title>
<path fill="none" stroke="#191970" d="M665.8211,-179.2967C665.8211,-169.7699 665.8211,-157.3954 665.8211,-147.1306"/>
<polygon fill="#191970" stroke="#191970" points="669.3212,-147.0549 665.8211,-137.055 662.3212,-147.055 669.3212,-147.0549"/>
</g>
<!-- Node47&#45;&gt;Node6 -->
<g id="edge54" class="edge">
<title>Node47&#45;&gt;Node6</title>
<path fill="none" stroke="#191970" d="M374.765,-251.9714C419.4832,-235.19 516.5082,-200.1428 600.8211,-179 690.5482,-156.4995 717.1838,-169.47 805.8211,-143 807.9931,-142.3514 810.2094,-141.6091 812.4218,-140.8085"/>
<polygon fill="#191970" stroke="#191970" points="813.938,-143.9725 821.9456,-137.035 811.3594,-137.4647 813.938,-143.9725"/>
</g>
<!-- Node47&#45;&gt;Node11 -->
<g id="edge53" class="edge">
<title>Node47&#45;&gt;Node11</title>
<path fill="none" stroke="#191970" d="M352.0459,-251.9611C356.2282,-235.6188 366.53,-201.8255 384.8211,-179 396.9182,-163.9039 414.5264,-151.2022 429.3013,-142.1901"/>
<polygon fill="#191970" stroke="#191970" points="431.1952,-145.1371 438.06,-137.0671 427.661,-139.0947 431.1952,-145.1371"/>
</g>
<!-- Node47&#45;&gt;Node39 -->
<g id="edge52" class="edge">
<title>Node47&#45;&gt;Node39</title>
<path fill="none" stroke="#191970" d="M361.9995,-251.9005C375.7595,-241.0544 398.3676,-223.2339 414.7473,-210.3229"/>
<polygon fill="#191970" stroke="#191970" points="416.9783,-213.0209 422.6652,-204.0817 412.645,-207.5234 416.9783,-213.0209"/>
</g>
<!-- Node53&#45;&gt;Node2 -->
<g id="edge58" class="edge">
<title>Node53&#45;&gt;Node2</title>
<path fill="none" stroke="#191970" d="M656.3086,-385.8243C671.2607,-376.1341 694.1689,-360.3483 711.8211,-344 758.2408,-301.0092 804.171,-241.6815 825.8752,-212.3697"/>
<polygon fill="#191970" stroke="#191970" points="828.7115,-214.4204 831.8069,-204.2879 823.0683,-210.2786 828.7115,-214.4204"/>
</g>
<!-- Node53&#45;&gt;Node16 -->
<g id="edge56" class="edge">
<title>Node53&#45;&gt;Node16</title>
<path fill="none" stroke="#191970" d="M599.1526,-387.2907C516.0352,-369.9792 334.5331,-327.1689 298.8211,-277 290.8311,-265.7756 292.7728,-258.3792 298.8211,-246 304.1386,-235.1164 373.5973,-183.5557 384.8211,-179 520.7069,-123.8438 569.6124,-174.5979 712.8211,-143 716.4934,-142.1897 720.2832,-141.1909 724.038,-140.094"/>
<polygon fill="#191970" stroke="#191970" points="725.3032,-143.3651 733.7903,-137.0232 723.2007,-136.6883 725.3032,-143.3651"/>
</g>
<!-- Node53&#45;&gt;Node23 -->
<g id="edge57" class="edge">
<title>Node53&#45;&gt;Node23</title>
<path fill="none" stroke="#191970" d="M641.824,-385.9005C642.7006,-377.5099 644.0134,-364.9451 645.1874,-353.7085"/>
<polygon fill="#191970" stroke="#191970" points="648.6935,-353.8314 646.2516,-343.5218 641.7314,-353.1039 648.6935,-353.8314"/>
</g>
<!-- Node54 -->
<g id="node36" class="node">
<title>Node54</title>
<polygon fill="#ffffff" stroke="#bfbfbf" points="518.8211,-319 518.8211,-338 574.8211,-338 574.8211,-319 518.8211,-319"/>
<text text-anchor="middle" x="546.8211" y="-326" font-family="Helvetica,sans-Serif" font-size="10.00" fill="#000000">algorithm</text>
</g>
<!-- Node53&#45;&gt;Node54 -->
<g id="edge59" class="edge">
<title>Node53&#45;&gt;Node54</title>
<path fill="none" stroke="#191970" d="M627.3532,-385.9005C611.9967,-374.9549 586.6748,-356.9064 568.5235,-343.9688"/>
<polygon fill="#191970" stroke="#191970" points="570.4387,-341.0358 560.264,-338.0817 566.3757,-346.736 570.4387,-341.0358"/>
</g>
<!-- Node55&#45;&gt;Node11 -->
<g id="edge62" class="edge">
<title>Node55&#45;&gt;Node11</title>
<path fill="none" stroke="#191970" d="M405.7312,-392.6065C341.4398,-387.9285 238.1996,-375.7299 154.8211,-344 66.0019,-310.1996 -44.3322,-250.0139 18.8211,-179 45.8895,-148.5624 330.6013,-133.1421 425.9233,-128.8045"/>
<polygon fill="#191970" stroke="#191970" points="426.2406,-132.2939 436.0748,-128.3521 425.9289,-125.3008 426.2406,-132.2939"/>
</g>
<!-- Node55&#45;&gt;Node23 -->
<g id="edge63" class="edge">
<title>Node55&#45;&gt;Node23</title>
<path fill="none" stroke="#191970" d="M507.441,-380.4639C534.0131,-370.6278 568.9283,-357.7034 597.2899,-347.2049"/>
<polygon fill="#191970" stroke="#191970" points="598.8609,-350.3555 607.024,-343.6017 596.4308,-343.7909 598.8609,-350.3555"/>
</g>
<!-- Node56 -->
<g id="node38" class="node">
<title>Node56</title>
<g id="a_node38"><a xlink:href="_cube_texture_8h.html" target="_top" xlink:title="kryne&#45;engine/Textures\l/CubeTexture.h">
<polygon fill="#ffffff" stroke="#000000" points="410.3211,-246.5 410.3211,-276.5 523.3211,-276.5 523.3211,-246.5 410.3211,-246.5"/>
<text text-anchor="start" x="418.3211" y="-264.5" font-family="Helvetica,sans-Serif" font-size="10.00" fill="#000000">kryne&#45;engine/Textures</text>
<text text-anchor="middle" x="466.8211" y="-253.5" font-family="Helvetica,sans-Serif" font-size="10.00" fill="#000000">/CubeTexture.h</text>
</a>
</g>
</g>
<!-- Node55&#45;&gt;Node56 -->
<g id="edge64" class="edge">
<title>Node55&#45;&gt;Node56</title>
<path fill="none" stroke="#191970" d="M466.8211,-380.389C466.8211,-357.6691 466.8211,-314.438 466.8211,-286.8405"/>
<polygon fill="#191970" stroke="#191970" points="470.3212,-286.7614 466.8211,-276.7614 463.3212,-286.7614 470.3212,-286.7614"/>
</g>
<!-- Node57 -->
<g id="node39" class="node">
<title>Node57</title>
<g id="a_node39"><a xlink:href="_vertex_array_8h.html" target="_top" xlink:title="kryne&#45;engine/Core/Vertex\lArray.h">
<polygon fill="#ffffff" stroke="#000000" points="1061.8211,-246.5 1061.8211,-276.5 1189.8211,-276.5 1189.8211,-246.5 1061.8211,-246.5"/>
<text text-anchor="start" x="1069.8211" y="-264.5" font-family="Helvetica,sans-Serif" font-size="10.00" fill="#000000">kryne&#45;engine/Core/Vertex</text>
<text text-anchor="middle" x="1125.8211" y="-253.5" font-family="Helvetica,sans-Serif" font-size="10.00" fill="#000000">Array.h</text>
</a>
</g>
</g>
<!-- Node55&#45;&gt;Node57 -->
<g id="edge66" class="edge">
<title>Node55&#45;&gt;Node57</title>
<path fill="none" stroke="#191970" d="M527.9441,-387.371C547.9623,-384.8394 570.323,-382.1505 590.8211,-380 684.8662,-370.1336 926.3861,-377.4825 1014.8211,-344 1049.6659,-330.8074 1083.0521,-303.2958 1103.9451,-283.6716"/>
<polygon fill="#191970" stroke="#191970" points="1106.5351,-286.0368 1111.3179,-276.5829 1101.6835,-280.9907 1106.5351,-286.0368"/>
</g>
<!-- Node58 -->
<g id="node40" class="node">
<title>Node58</title>
<g id="a_node40"><a xlink:href="_geometric_shapes_8h.html" target="_top" xlink:title="kryne&#45;engine/Core/Geometric\lShapes.h">
<polygon fill="#ffffff" stroke="#000000" points="107.8211,-246.5 107.8211,-276.5 251.8211,-276.5 251.8211,-246.5 107.8211,-246.5"/>
<text text-anchor="start" x="115.8211" y="-264.5" font-family="Helvetica,sans-Serif" font-size="10.00" fill="#000000">kryne&#45;engine/Core/Geometric</text>
<text text-anchor="middle" x="179.8211" y="-253.5" font-family="Helvetica,sans-Serif" font-size="10.00" fill="#000000">Shapes.h</text>
</a>
</g>
</g>
<!-- Node55&#45;&gt;Node58 -->
<g id="edge74" class="edge">
<title>Node55&#45;&gt;Node58</title>
<path fill="none" stroke="#191970" d="M405.5133,-389.1941C322.2695,-380.0054 182.0415,-362.0559 166.8211,-344 153.4164,-328.0981 159.1143,-304.116 166.7166,-286.1006"/>
<polygon fill="#191970" stroke="#191970" points="169.9996,-287.3401 171.0267,-276.7951 163.6479,-284.398 169.9996,-287.3401"/>
</g>
<!-- Node61 -->
<g id="node43" class="node">
<title>Node61</title>
<g id="a_node43"><a xlink:href="_skybox_draw_order_8h.html" target="_top" xlink:title="kryne&#45;engine/enums\l/SkyboxDrawOrder.h">
<polygon fill="#ffffff" stroke="#000000" points="175.8211,-313.5 175.8211,-343.5 283.8211,-343.5 283.8211,-313.5 175.8211,-313.5"/>
<text text-anchor="start" x="183.8211" y="-331.5" font-family="Helvetica,sans-Serif" font-size="10.00" fill="#000000">kryne&#45;engine/enums</text>
<text text-anchor="middle" x="229.8211" y="-320.5" font-family="Helvetica,sans-Serif" font-size="10.00" fill="#000000">/SkyboxDrawOrder.h</text>
</a>
</g>
</g>
<!-- Node55&#45;&gt;Node61 -->
<g id="edge80" class="edge">
<title>Node55&#45;&gt;Node61</title>
<path fill="none" stroke="#191970" d="M413.6337,-380.4639C377.9288,-370.3701 330.7194,-357.024 293.0852,-346.3848"/>
<polygon fill="#191970" stroke="#191970" points="293.8155,-342.9541 283.2405,-343.6017 291.9112,-349.6901 293.8155,-342.9541"/>
</g>
<!-- Node56&#45;&gt;Node42 -->
<g id="edge65" class="edge">
<title>Node56&#45;&gt;Node42</title>
<path fill="none" stroke="#191970" d="M511.4806,-246.4639C541.0779,-236.499 580.09,-223.3642 611.4864,-212.7936"/>
<polygon fill="#191970" stroke="#191970" points="612.6064,-216.1096 620.9668,-209.6017 610.3727,-209.4755 612.6064,-216.1096"/>
</g>
<!-- Node57&#45;&gt;Node2 -->
<g id="edge67" class="edge">
<title>Node57&#45;&gt;Node2</title>
<path fill="none" stroke="#191970" d="M1061.7221,-253.4209C1009.1765,-245.6622 933.3799,-231.8476 869.8211,-210 868.2171,-209.4487 866.5905,-208.8308 864.9657,-208.1678"/>
<polygon fill="#191970" stroke="#191970" points="866.402,-204.9761 855.8499,-204.025 863.5058,-211.3488 866.402,-204.9761"/>
</g>
<!-- Node57&#45;&gt;Node7 -->
<g id="edge70" class="edge">
<title>Node57&#45;&gt;Node7</title>
<path fill="none" stroke="#191970" d="M1122.9798,-246.3945C1120.5077,-228.955 1118.9518,-199.9822 1130.8211,-179 1140.095,-162.6057 1157.0031,-150.3101 1172.4208,-141.852"/>
<polygon fill="#191970" stroke="#191970" points="1174.439,-144.751 1181.7462,-137.0793 1171.2498,-138.5196 1174.439,-144.751"/>
</g>
<!-- Node57&#45;&gt;Node8 -->
<g id="edge71" class="edge">
<title>Node57&#45;&gt;Node8</title>
<path fill="none" stroke="#191970" d="M1128.3487,-246.291C1132.3499,-227.336 1142.0498,-195.4394 1163.8211,-179 1207.1607,-146.2744 1363.432,-133.8883 1444.792,-129.5822"/>
<polygon fill="#191970" stroke="#191970" points="1444.9962,-133.0765 1454.8055,-129.0731 1444.6406,-126.0855 1444.9962,-133.0765"/>
</g>
<!-- Node57&#45;&gt;Node14 -->
<g id="edge68" class="edge">
<title>Node57&#45;&gt;Node14</title>
<path fill="none" stroke="#191970" d="M1157.0154,-246.4639C1180.5479,-235.1209 1212.6013,-219.6707 1235.6305,-208.5703"/>
<polygon fill="#191970" stroke="#191970" points="1237.4081,-211.5989 1244.8965,-204.1039 1234.3686,-205.2932 1237.4081,-211.5989"/>
</g>
<!-- Node57&#45;&gt;Node15 -->
<g id="edge69" class="edge">
<title>Node57&#45;&gt;Node15</title>
<path fill="none" stroke="#191970" d="M1141.9321,-246.2967C1153.1016,-235.7564 1167.9651,-221.7303 1179.4078,-210.9323"/>
<polygon fill="#191970" stroke="#191970" points="1181.8248,-213.4638 1186.6957,-204.055 1177.0205,-208.3727 1181.8248,-213.4638"/>
</g>
<!-- Node57&#45;&gt;Node16 -->
<g id="edge73" class="edge">
<title>Node57&#45;&gt;Node16</title>
<path fill="none" stroke="#191970" d="M1109.0814,-246.3427C1087.2309,-227.4424 1047.0175,-195.6034 1006.8211,-179 922.9403,-144.3523 893.8018,-165.2676 805.8211,-143 802.3852,-142.1304 798.8363,-141.1386 795.3,-140.0866"/>
<polygon fill="#191970" stroke="#191970" points="796.0604,-136.6573 785.4716,-137.0136 793.9715,-143.3383 796.0604,-136.6573"/>
</g>
<!-- Node57&#45;&gt;Node46 -->
<g id="edge72" class="edge">
<title>Node57&#45;&gt;Node46</title>
<path fill="none" stroke="#191970" d="M1081.2912,-246.4452C1058.1068,-237.5855 1029.8682,-225.1425 1006.8211,-210 990.0032,-198.9502 991.9791,-187.6733 973.8211,-179 868.1578,-128.5294 826.8939,-169.4461 712.8211,-143 709.1749,-142.1547 705.4087,-141.1482 701.6688,-140.06"/>
<polygon fill="#191970" stroke="#191970" points="702.5194,-136.6594 691.9315,-137.0426 700.4475,-143.3458 702.5194,-136.6594"/>
</g>
<!-- Node58&#45;&gt;Node2 -->
<g id="edge75" class="edge">
<title>Node58&#45;&gt;Node2</title>
<path fill="none" stroke="#191970" d="M252.1265,-251.5346C267.5232,-249.566 283.6978,-247.6127 298.8211,-246 490.8408,-225.5234 539.9531,-231.8525 731.8211,-210 757.0288,-207.129 785.4461,-202.9688 806.6566,-199.6811"/>
<polygon fill="#191970" stroke="#191970" points="807.4028,-203.1069 816.7398,-198.0998 806.3183,-196.1914 807.4028,-203.1069"/>
</g>
<!-- Node58&#45;&gt;Node16 -->
<g id="edge78" class="edge">
<title>Node58&#45;&gt;Node16</title>
<path fill="none" stroke="#191970" d="M216.0287,-246.4795C239.1193,-236.6428 269.5356,-223.2049 295.8211,-210 320.8948,-197.4038 324.0662,-187.458 350.8211,-179 504.9837,-130.2648 554.7605,-177.0307 712.8211,-143 716.4975,-142.2085 720.29,-141.2219 724.0463,-140.1323"/>
<polygon fill="#191970" stroke="#191970" points="725.3077,-143.4049 733.8007,-137.0709 723.2115,-136.7261 725.3077,-143.4049"/>
</g>
<!-- Node58&#45;&gt;Node46 -->
<g id="edge77" class="edge">
<title>Node58&#45;&gt;Node46</title>
<path fill="none" stroke="#191970" d="M198.2787,-246.3294C222.7856,-227.1039 268.1884,-194.5957 312.8211,-179 442.0943,-133.8289 485.1192,-172.5941 618.8211,-143 622.4755,-142.1911 626.2472,-141.2087 629.9904,-140.1352"/>
<polygon fill="#191970" stroke="#191970" points="631.2037,-143.4239 639.7322,-137.1377 629.145,-136.7334 631.2037,-143.4239"/>
</g>
<!-- Node59 -->
<g id="node41" class="node">
<title>Node59</title>
<polygon fill="#ffffff" stroke="#bfbfbf" points="178.8211,-185 178.8211,-204 222.8211,-204 222.8211,-185 178.8211,-185"/>
<text text-anchor="middle" x="200.8211" y="-192" font-family="Helvetica,sans-Serif" font-size="10.00" fill="#000000">cmath</text>
</g>
<!-- Node58&#45;&gt;Node59 -->
<g id="edge76" class="edge">
<title>Node58&#45;&gt;Node59</title>
<path fill="none" stroke="#191970" d="M184.5863,-246.2967C187.6041,-236.6685 191.5335,-224.1318 194.7706,-213.8038"/>
<polygon fill="#191970" stroke="#191970" points="198.1751,-214.6441 197.8262,-204.055 191.4955,-212.5504 198.1751,-214.6441"/>
</g>
<!-- Node60 -->
<g id="node42" class="node">
<title>Node60</title>
<g id="a_node42"><a xlink:href="_cube_vertex_data_8h.html" target="_top" xlink:title="kryne&#45;engine/Constants\l/CubeVertexData.h">
<polygon fill="#ffffff" stroke="#000000" points="40.8211,-179.5 40.8211,-209.5 160.8211,-209.5 160.8211,-179.5 40.8211,-179.5"/>
<text text-anchor="start" x="48.8211" y="-197.5" font-family="Helvetica,sans-Serif" font-size="10.00" fill="#000000">kryne&#45;engine/Constants</text>
<text text-anchor="middle" x="100.8211" y="-186.5" font-family="Helvetica,sans-Serif" font-size="10.00" fill="#000000">/CubeVertexData.h</text>
</a>
</g>
</g>
<!-- Node58&#45;&gt;Node60 -->
<g id="edge79" class="edge">
<title>Node58&#45;&gt;Node60</title>
<path fill="none" stroke="#191970" d="M161.8948,-246.2967C151.3901,-237.3876 137.949,-225.9882 126.3519,-216.1527"/>
<polygon fill="#191970" stroke="#191970" points="128.5669,-213.442 118.6765,-209.6432 124.0392,-218.7806 128.5669,-213.442"/>
</g>
<!-- Node62&#45;&gt;Node1 -->
<g id="edge82" class="edge">
<title>Node62&#45;&gt;Node1</title>
<path fill="none" stroke="#191970" d="M1270.1094,-514.389C1344.2321,-487.9025 1496.3664,-433.5398 1566.2491,-408.5684"/>
<polygon fill="#191970" stroke="#191970" points="1567.7047,-411.7651 1575.9438,-405.1042 1565.3491,-405.1733 1567.7047,-411.7651"/>
</g>
<!-- Node63 -->
<g id="node45" class="node">
<title>Node63</title>
<g id="a_node45"><a xlink:href="_hierarchical_node_8h.html" target="_top" xlink:title="kryne&#45;engine/3DObjects\l/HierarchicalNode.h">
<polygon fill="#ffffff" stroke="#000000" points="1211.8211,-447.5 1211.8211,-477.5 1333.8211,-477.5 1333.8211,-447.5 1211.8211,-447.5"/>
<text text-anchor="start" x="1219.8211" y="-465.5" font-family="Helvetica,sans-Serif" font-size="10.00" fill="#000000">kryne&#45;engine/3DObjects</text>
<text text-anchor="middle" x="1272.8211" y="-454.5" font-family="Helvetica,sans-Serif" font-size="10.00" fill="#000000">/HierarchicalNode.h</text>
</a>
</g>
</g>
<!-- Node62&#45;&gt;Node63 -->
<g id="edge83" class="edge">
<title>Node62&#45;&gt;Node63</title>
<path fill="none" stroke="#191970" d="M1232.2715,-514.2967C1236.8983,-505.9016 1243.7863,-495.2952 1250.6571,-485.8698"/>
<polygon fill="#191970" stroke="#191970" points="1253.6422,-487.7258 1256.8967,-477.6432 1248.065,-483.4956 1253.6422,-487.7258"/>
</g>
<!-- Node64 -->
<g id="node46" class="node">
<title>Node64</title>
<g id="a_node46"><a xlink:href="3_d_objects_2_base_object_8h.html" target="_top" xlink:title="kryne&#45;engine/3DObjects\l/BaseObject.h">
<polygon fill="#ffffff" stroke="#000000" points="1158.8211,-380.5 1158.8211,-410.5 1280.8211,-410.5 1280.8211,-380.5 1158.8211,-380.5"/>
<text text-anchor="start" x="1166.8211" y="-398.5" font-family="Helvetica,sans-Serif" font-size="10.00" fill="#000000">kryne&#45;engine/3DObjects</text>
<text text-anchor="middle" x="1219.8211" y="-387.5" font-family="Helvetica,sans-Serif" font-size="10.00" fill="#000000">/BaseObject.h</text>
</a>
</g>
</g>
<!-- Node62&#45;&gt;Node64 -->
<g id="edge96" class="edge">
<title>Node62&#45;&gt;Node64</title>
<path fill="none" stroke="#191970" d="M1218.2323,-514.4025C1212.5147,-504.4813 1205.8049,-490.9794 1202.8211,-478 1198.3713,-458.6439 1203.4275,-436.6058 1209.1559,-420.1791"/>
<polygon fill="#191970" stroke="#191970" points="1212.4582,-421.3418 1212.7306,-410.7505 1205.9128,-418.8602 1212.4582,-421.3418"/>
</g>
<!-- Node63&#45;&gt;Node4 -->
<g id="edge84" class="edge">
<title>Node63&#45;&gt;Node4</title>
<path fill="none" stroke="#191970" d="M1298.7579,-447.389C1343.2882,-421.4452 1433.7248,-368.7561 1477.6926,-343.1401"/>
<polygon fill="#191970" stroke="#191970" points="1479.4577,-346.1624 1486.3363,-338.1042 1475.9339,-340.1141 1479.4577,-346.1624"/>
</g>
<!-- Node63&#45;&gt;Node9 -->
<g id="edge95" class="edge">
<title>Node63&#45;&gt;Node9</title>
<path fill="none" stroke="#191970" d="M1236.0584,-447.389C1172.0172,-421.0653 1040.9892,-367.2071 979.7428,-342.0322"/>
<polygon fill="#191970" stroke="#191970" points="980.7662,-338.6688 970.1864,-338.1042 978.1049,-345.1432 980.7662,-338.6688"/>
</g>
<!-- Node63&#45;&gt;Node62 -->
<g id="edge85" class="edge">
<title>Node63&#45;&gt;Node62</title>
<path fill="none" stroke="#191970" d="M1268.4038,-477.6432C1263.7878,-486.0276 1256.9052,-496.6315 1250.0344,-506.0626"/>
<polygon fill="#191970" stroke="#191970" points="1247.0445,-504.213 1243.7931,-514.2967 1252.623,-508.4415 1247.0445,-504.213"/>
</g>
<!-- Node63&#45;&gt;Node64 -->
<g id="edge86" class="edge">
<title>Node63&#45;&gt;Node64</title>
<path fill="none" stroke="#191970" d="M1260.7946,-447.2967C1254.0859,-438.816 1245.5922,-428.0785 1238.0797,-418.5817"/>
<polygon fill="#191970" stroke="#191970" points="1240.7491,-416.3146 1231.8,-410.6432 1235.2591,-420.6574 1240.7491,-416.3146"/>
</g>
<!-- Node64&#45;&gt;Node7 -->
<g id="edge87" class="edge">
<title>Node64&#45;&gt;Node7</title>
<path fill="none" stroke="#191970" d="M1253.5142,-380.329C1276.0165,-370.1515 1306.2473,-356.3912 1332.8211,-344 1361.8287,-330.4739 1368.6335,-326.1332 1397.8211,-313 1435.2344,-296.1655 1452.9957,-305.171 1482.8211,-277 1516.2322,-245.4422 1545.5368,-214.0596 1515.8211,-179 1498.6881,-158.786 1329.0233,-139.5926 1248.2055,-131.5125"/>
<polygon fill="#191970" stroke="#191970" points="1248.1747,-127.9925 1237.879,-130.4922 1247.4864,-134.9585 1248.1747,-127.9925"/>
</g>
<!-- Node64&#45;&gt;Node8 -->
<g id="edge88" class="edge">
<title>Node64&#45;&gt;Node8</title>
<path fill="none" stroke="#191970" d="M1271.6478,-380.4265C1346.0813,-357.8092 1477.9322,-313.8159 1510.8211,-277 1540.7677,-243.4777 1550.6497,-221.4341 1535.8211,-179 1531.2722,-165.9829 1521.9037,-153.796 1513.269,-144.5484"/>
<polygon fill="#191970" stroke="#191970" points="1515.5373,-141.8652 1506.0096,-137.2313 1510.568,-146.7953 1515.5373,-141.8652"/>
</g>
<!-- Node64&#45;&gt;Node9 -->
<g id="edge93" class="edge">
<title>Node64&#45;&gt;Node9</title>
<path fill="none" stroke="#191970" d="M1158.5545,-380.4639C1109.3012,-368.3761 1041.0428,-351.624 995.4815,-340.4423"/>
<polygon fill="#191970" stroke="#191970" points="996.0976,-336.9897 985.5516,-338.0053 994.4291,-343.788 996.0976,-336.9897"/>
</g>
<!-- Node64&#45;&gt;Node17 -->
<g id="edge89" class="edge">
<title>Node64&#45;&gt;Node17</title>
<path fill="none" stroke="#191970" d="M1170.7623,-380.406C1145.8432,-371.6443 1115.6654,-359.3021 1090.8211,-344 1057.9519,-323.7552 975.5211,-246.0683 939.3264,-211.3883"/>
<polygon fill="#191970" stroke="#191970" points="941.5852,-208.7049 931.9489,-204.3012 936.7358,-213.753 941.5852,-208.7049"/>
</g>
<!-- Node64&#45;&gt;Node23 -->
<g id="edge91" class="edge">
<title>Node64&#45;&gt;Node23</title>
<path fill="none" stroke="#191970" d="M1158.6071,-388.3298C1050.0295,-375.6118 824.6847,-349.2165 713.1985,-336.1578"/>
<polygon fill="#191970" stroke="#191970" points="713.4364,-332.6619 703.0971,-334.9746 712.622,-339.6143 713.4364,-332.6619"/>
</g>
<!-- Node64&#45;&gt;Node57 -->
<g id="edge92" class="edge">
<title>Node64&#45;&gt;Node57</title>
<path fill="none" stroke="#191970" d="M1261.5907,-380.3904C1296.6635,-365.3398 1337.9288,-340.5529 1316.8211,-313 1302.2944,-294.0376 1247.1596,-280.4768 1199.8372,-272.0462"/>
<polygon fill="#191970" stroke="#191970" points="1200.325,-268.5787 1189.8751,-270.325 1199.1332,-275.4765 1200.325,-268.5787"/>
</g>
<!-- Node65 -->
<g id="node47" class="node">
<title>Node65</title>
<polygon fill="#ffffff" stroke="#bfbfbf" points="1099.8211,-319 1099.8211,-338 1185.8211,-338 1185.8211,-319 1099.8211,-319"/>
<text text-anchor="middle" x="1142.8211" y="-326" font-family="Helvetica,sans-Serif" font-size="10.00" fill="#000000">glm/mat3x3.hpp</text>
</g>
<!-- Node64&#45;&gt;Node65 -->
<g id="edge90" class="edge">
<title>Node64&#45;&gt;Node65</title>
<path fill="none" stroke="#191970" d="M1202.3486,-380.2967C1190.1187,-369.6551 1173.8052,-355.4602 1161.349,-344.6217"/>
<polygon fill="#191970" stroke="#191970" points="1163.6436,-341.9788 1153.8022,-338.055 1159.0486,-347.2596 1163.6436,-341.9788"/>
</g>
<!-- Node66 -->
<g id="node48" class="node">
<title>Node66</title>
<g id="a_node48"><a xlink:href="enums_2_base_object_8h.html" target="_top" xlink:title="kryne&#45;engine/enums\l/BaseObject.h">
<polygon fill="#ffffff" stroke="#000000" points="1203.8211,-313.5 1203.8211,-343.5 1307.8211,-343.5 1307.8211,-313.5 1203.8211,-313.5"/>
<text text-anchor="start" x="1211.8211" y="-331.5" font-family="Helvetica,sans-Serif" font-size="10.00" fill="#000000">kryne&#45;engine/enums</text>
<text text-anchor="middle" x="1255.8211" y="-320.5" font-family="Helvetica,sans-Serif" font-size="10.00" fill="#000000">/BaseObject.h</text>
</a>
</g>
</g>
<!-- Node64&#45;&gt;Node66 -->
<g id="edge94" class="edge">
<title>Node64&#45;&gt;Node66</title>
<path fill="none" stroke="#191970" d="M1227.99,-380.2967C1232.3627,-372.1586 1237.852,-361.9425 1242.7973,-352.7386"/>
<polygon fill="#191970" stroke="#191970" points="1246.0344,-354.1087 1247.6844,-343.6432 1239.8681,-350.7955 1246.0344,-354.1087"/>
</g>
<!-- Node67&#45;&gt;Node1 -->
<g id="edge98" class="edge">
<title>Node67&#45;&gt;Node1</title>
<path fill="none" stroke="#191970" d="M1067.4913,-650.7628C1114.8676,-642.7163 1172.3649,-630.3014 1221.8211,-612 1337.123,-569.3323 1357.1694,-539.1595 1463.8211,-478 1504.283,-454.7971 1550.7983,-426.9466 1578.4502,-410.2645"/>
<polygon fill="#191970" stroke="#191970" points="1580.319,-413.2247 1587.0687,-405.0581 1576.6995,-407.2331 1580.319,-413.2247"/>
</g>
<!-- Node67&#45;&gt;Node10 -->
<g id="edge101" class="edge">
<title>Node67&#45;&gt;Node10</title>
<path fill="none" stroke="#191970" d="M979.5058,-648.1664C984.0854,-638.151 989.4542,-624.6328 991.8211,-612 994.3583,-598.4579 994.8608,-594.4383 991.8211,-581 966.0756,-467.1819 904.5666,-457.8181 878.8211,-344 873.88,-322.156 881.5523,-297.0876 888.5731,-280.3721"/>
<polygon fill="#191970" stroke="#191970" points="891.8131,-281.7014 892.7418,-271.1473 885.4342,-278.8187 891.8131,-281.7014"/>
</g>
<!-- Node67&#45;&gt;Node20 -->
<g id="edge100" class="edge">
<title>Node67&#45;&gt;Node20</title>
<path fill="none" stroke="#191970" d="M901.5815,-648.4557C870.5185,-640.1886 834.2228,-628.2501 803.8211,-612 784.5988,-601.7255 783.003,-594.4105 765.8211,-581 752.8001,-570.8372 738.1643,-559.8526 725.7336,-550.6491"/>
<polygon fill="#191970" stroke="#191970" points="727.6518,-547.7148 717.5271,-544.594 723.4958,-553.3476 727.6518,-547.7148"/>
</g>
<!-- Node67&#45;&gt;Node63 -->
<g id="edge99" class="edge">
<title>Node67&#45;&gt;Node63</title>
<path fill="none" stroke="#191970" d="M1039.4239,-648.437C1125.4798,-627.7339 1266.6488,-588.1166 1296.8211,-545 1309.0563,-527.5157 1300.1213,-503.8084 1289.8565,-486.2938"/>
<polygon fill="#191970" stroke="#191970" points="1292.7703,-484.3528 1284.4725,-477.765 1286.851,-488.0895 1292.7703,-484.3528"/>
</g>
<!-- Node68 -->
<g id="node50" class="node">
<title>Node68</title>
<g id="a_node50"><a xlink:href="_directional_shadow_map_rendering_8h.html" target="_top" xlink:title="DirectionalShadowMapRendering.h">
<polygon fill="#ffffff" stroke="#000000" points="812.8211,-587 812.8211,-606 982.8211,-606 982.8211,-587 812.8211,-587"/>
<text text-anchor="middle" x="897.8211" y="-594" font-family="Helvetica,sans-Serif" font-size="10.00" fill="#000000">DirectionalShadowMapRendering.h</text>
</a>
</g>
</g>
<!-- Node67&#45;&gt;Node68 -->
<g id="edge102" class="edge">
<title>Node67&#45;&gt;Node68</title>
<path fill="none" stroke="#191970" d="M955.0293,-648.2967C943.3879,-637.7564 927.8963,-623.7303 915.9701,-612.9323"/>
<polygon fill="#191970" stroke="#191970" points="918.1365,-610.1722 908.3743,-606.055 913.4382,-615.3613 918.1365,-610.1722"/>
</g>
<!-- Node68&#45;&gt;Node22 -->
<g id="edge104" class="edge">
<title>Node68&#45;&gt;Node22</title>
<path fill="none" stroke="#191970" d="M890.8757,-586.8054C868.2076,-555.1645 796.1517,-454.5865 766.6263,-413.3739"/>
<polygon fill="#191970" stroke="#191970" points="769.3659,-411.1882 760.6968,-405.0974 763.6755,-415.2649 769.3659,-411.1882"/>
</g>
<!-- Node68&#45;&gt;Node62 -->
<g id="edge103" class="edge">
<title>Node68&#45;&gt;Node62</title>
<path fill="none" stroke="#191970" d="M944.7516,-586.9717C1000.491,-575.6549 1093.9807,-556.6737 1158.1659,-543.6421"/>
<polygon fill="#191970" stroke="#191970" points="1159.1018,-547.0236 1168.2054,-541.6038 1157.7089,-540.1636 1159.1018,-547.0236"/>
</g>
</g>
</svg>
