<?xml version="1.0" encoding="UTF-8" standalone="no"?>
<!DOCTYPE svg PUBLIC "-//W3C//DTD SVG 1.1//EN"
 "http://www.w3.org/Graphics/SVG/1.1/DTD/svg11.dtd">
<!-- Generated by graphviz version 2.44.1 (20200629.0846)
 -->
<!-- Title: kryne&#45;engine/include/kryne&#45;engine/Dispatch/RunnerPool.h Pages: 1 -->
<svg width="488pt" height="218pt"
 viewBox="0.00 0.00 488.00 218.00" xmlns="http://www.w3.org/2000/svg" xmlns:xlink="http://www.w3.org/1999/xlink">
<g id="graph0" class="graph" transform="scale(1 1) rotate(0) translate(4 214)">
<title>kryne&#45;engine/include/kryne&#45;engine/Dispatch/RunnerPool.h</title>
<polygon fill="white" stroke="transparent" points="-4,4 -4,-214 484,-214 484,4 -4,4"/>
<!-- Node1 -->
<g id="node1" class="node">
<title>Node1</title>
<g id="a_node1"><a xlink:title=" ">
<polygon fill="#bfbfbf" stroke="black" points="230,-168.5 230,-209.5 346,-209.5 346,-168.5 230,-168.5"/>
<text text-anchor="start" x="238" y="-197.5" font-family="Helvetica,sans-Serif" font-size="10.00">kryne&#45;engine/include</text>
<text text-anchor="start" x="238" y="-186.5" font-family="Helvetica,sans-Serif" font-size="10.00">/kryne&#45;engine/Dispatch</text>
<text text-anchor="middle" x="288" y="-175.5" font-family="Helvetica,sans-Serif" font-size="10.00">/RunnerPool.h</text>
</a>
</g>
</g>
<!-- Node2 -->
<g id="node2" class="node">
<title>Node2</title>
<g id="a_node2"><a xlink:href="_base_pool_8h.html" target="_top" xlink:title=" ">
<polygon fill="white" stroke="black" points="223.5,-56.5 223.5,-75.5 290.5,-75.5 290.5,-56.5 223.5,-56.5"/>
<text text-anchor="middle" x="257" y="-63.5" font-family="Helvetica,sans-Serif" font-size="10.00">BasePool.h</text>
</a>
</g>
</g>
<!-- Node1&#45;&gt;Node2 -->
<g id="edge1" class="edge">
<title>Node1&#45;&gt;Node2</title>
<path fill="none" stroke="midnightblue" d="M268.28,-168.33C259.66,-158.35 250.5,-145.49 246,-132 240.86,-116.58 244.81,-98.26 249.34,-85.01"/>
<polygon fill="midnightblue" stroke="midnightblue" points="252.63,-86.21 252.94,-75.62 246.1,-83.7 252.63,-86.21"/>
</g>
<!-- Node10 -->
<g id="node10" class="node">
<title>Node10</title>
<g id="a_node10"><a xlink:href="_child_pool_8h.html" target="_top" xlink:title=" ">
<polygon fill="white" stroke="black" points="255,-112.5 255,-131.5 321,-131.5 321,-112.5 255,-112.5"/>
<text text-anchor="middle" x="288" y="-119.5" font-family="Helvetica,sans-Serif" font-size="10.00">ChildPool.h</text>
</a>
</g>
</g>
<!-- Node1&#45;&gt;Node10 -->
<g id="edge9" class="edge">
<title>Node1&#45;&gt;Node10</title>
<path fill="none" stroke="midnightblue" d="M281.75,-168.5C281.06,-159.97 281.08,-150.01 281.83,-141.59"/>
<polygon fill="midnightblue" stroke="midnightblue" points="285.3,-142.04 283.24,-131.65 278.37,-141.06 285.3,-142.04"/>
</g>
<!-- Node3 -->
<g id="node3" class="node">
<title>Node3</title>
<g id="a_node3"><a xlink:title=" ">
<polygon fill="white" stroke="#bfbfbf" points="0,-0.5 0,-19.5 44,-19.5 44,-0.5 0,-0.5"/>
<text text-anchor="middle" x="22" y="-7.5" font-family="Helvetica,sans-Serif" font-size="10.00">thread</text>
</a>
</g>
</g>
<!-- Node2&#45;&gt;Node3 -->
<g id="edge2" class="edge">
<title>Node2&#45;&gt;Node3</title>
<path fill="none" stroke="midnightblue" d="M223.27,-58.26C184.67,-50.4 119.34,-36.63 54.31,-20.21"/>
<polygon fill="midnightblue" stroke="midnightblue" points="54.86,-16.74 44.3,-17.66 53.13,-23.52 54.86,-16.74"/>
</g>
<!-- Node4 -->
<g id="node4" class="node">
<title>Node4</title>
<g id="a_node4"><a xlink:title=" ">
<polygon fill="white" stroke="#bfbfbf" points="62,-0.5 62,-19.5 106,-19.5 106,-0.5 62,-0.5"/>
<text text-anchor="middle" x="84" y="-7.5" font-family="Helvetica,sans-Serif" font-size="10.00">mutex</text>
</a>
</g>
</g>
<!-- Node2&#45;&gt;Node4 -->
<g id="edge3" class="edge">
<title>Node2&#45;&gt;Node4</title>
<path fill="none" stroke="midnightblue" d="M229.59,-56.44C198.72,-46.81 148.64,-31.18 116,-20.99"/>
<polygon fill="midnightblue" stroke="midnightblue" points="116.66,-17.53 106.07,-17.89 114.57,-24.21 116.66,-17.53"/>
</g>
<!-- Node5 -->
<g id="node5" class="node">
<title>Node5</title>
<g id="a_node5"><a xlink:title=" ">
<polygon fill="white" stroke="#bfbfbf" points="124.5,-0.5 124.5,-19.5 217.5,-19.5 217.5,-0.5 124.5,-0.5"/>
<text text-anchor="middle" x="171" y="-7.5" font-family="Helvetica,sans-Serif" font-size="10.00">condition_variable</text>
</a>
</g>
</g>
<!-- Node2&#45;&gt;Node5 -->
<g id="edge4" class="edge">
<title>Node2&#45;&gt;Node5</title>
<path fill="none" stroke="midnightblue" d="M243.18,-56.32C229.77,-47.9 209.18,-34.97 193.41,-25.07"/>
<polygon fill="midnightblue" stroke="midnightblue" points="195.11,-22.01 184.78,-19.65 191.39,-27.94 195.11,-22.01"/>
</g>
<!-- Node6 -->
<g id="node6" class="node">
<title>Node6</title>
<g id="a_node6"><a xlink:title=" ">
<polygon fill="white" stroke="#bfbfbf" points="235.5,-0.5 235.5,-19.5 278.5,-19.5 278.5,-0.5 235.5,-0.5"/>
<text text-anchor="middle" x="257" y="-7.5" font-family="Helvetica,sans-Serif" font-size="10.00">queue</text>
</a>
</g>
</g>
<!-- Node2&#45;&gt;Node6 -->
<g id="edge5" class="edge">
<title>Node2&#45;&gt;Node6</title>
<path fill="none" stroke="midnightblue" d="M257,-56.08C257,-49.01 257,-38.86 257,-29.99"/>
<polygon fill="midnightblue" stroke="midnightblue" points="260.5,-29.75 257,-19.75 253.5,-29.75 260.5,-29.75"/>
</g>
<!-- Node7 -->
<g id="node7" class="node">
<title>Node7</title>
<g id="a_node7"><a xlink:title=" ">
<polygon fill="white" stroke="#bfbfbf" points="296.5,-0.5 296.5,-19.5 337.5,-19.5 337.5,-0.5 296.5,-0.5"/>
<text text-anchor="middle" x="317" y="-7.5" font-family="Helvetica,sans-Serif" font-size="10.00">future</text>
</a>
</g>
</g>
<!-- Node2&#45;&gt;Node7 -->
<g id="edge6" class="edge">
<title>Node2&#45;&gt;Node7</title>
<path fill="none" stroke="midnightblue" d="M266.64,-56.32C275.51,-48.34 288.87,-36.31 299.61,-26.65"/>
<polygon fill="midnightblue" stroke="midnightblue" points="302.09,-29.13 307.18,-19.83 297.41,-23.92 302.09,-29.13"/>
</g>
<!-- Node8 -->
<g id="node8" class="node">
<title>Node8</title>
<g id="a_node8"><a xlink:title=" ">
<polygon fill="white" stroke="#bfbfbf" points="356,-0.5 356,-19.5 408,-19.5 408,-0.5 356,-0.5"/>
<text text-anchor="middle" x="382" y="-7.5" font-family="Helvetica,sans-Serif" font-size="10.00">memory</text>
</a>
</g>
</g>
<!-- Node2&#45;&gt;Node8 -->
<g id="edge7" class="edge">
<title>Node2&#45;&gt;Node8</title>
<path fill="none" stroke="midnightblue" d="M276.81,-56.44C297.29,-47.6 329.48,-33.69 352.86,-23.59"/>
<polygon fill="midnightblue" stroke="midnightblue" points="354.49,-26.7 362.29,-19.52 351.72,-20.27 354.49,-26.7"/>
</g>
<!-- Node9 -->
<g id="node9" class="node">
<title>Node9</title>
<g id="a_node9"><a xlink:title=" ">
<polygon fill="white" stroke="#bfbfbf" points="426,-0.5 426,-19.5 480,-19.5 480,-0.5 426,-0.5"/>
<text text-anchor="middle" x="453" y="-7.5" font-family="Helvetica,sans-Serif" font-size="10.00">iostream</text>
</a>
</g>
</g>
<!-- Node2&#45;&gt;Node9 -->
<g id="edge8" class="edge">
<title>Node2&#45;&gt;Node9</title>
<path fill="none" stroke="midnightblue" d="M288.06,-56.44C322.79,-46.87 379,-31.39 415.99,-21.2"/>
<polygon fill="midnightblue" stroke="midnightblue" points="417.16,-24.5 425.88,-18.47 415.31,-17.75 417.16,-24.5"/>
</g>
<!-- Node10&#45;&gt;Node1 -->
<g id="edge11" class="edge">
<title>Node10&#45;&gt;Node1</title>
<path fill="none" stroke="midnightblue" d="M292.76,-131.65C294.23,-138.52 294.88,-148.56 294.73,-158.26"/>
<polygon fill="midnightblue" stroke="midnightblue" points="291.22,-158.34 294.25,-168.5 298.21,-158.67 291.22,-158.34"/>
</g>
<!-- Node10&#45;&gt;Node2 -->
<g id="edge10" class="edge">
<title>Node10&#45;&gt;Node2</title>
<path fill="none" stroke="midnightblue" d="M282.88,-112.08C278.59,-104.61 272.34,-93.72 267.06,-84.52"/>
<polygon fill="midnightblue" stroke="midnightblue" points="270.04,-82.68 262.02,-75.75 263.97,-86.17 270.04,-82.68"/>
</g>
</g>
</svg>
