<?xml version="1.0" encoding="UTF-8" standalone="no"?>
<!DOCTYPE svg PUBLIC "-//W3C//DTD SVG 1.1//EN"
 "http://www.w3.org/Graphics/SVG/1.1/DTD/svg11.dtd">
<!-- Generated by graphviz version 2.44.1 (20200629.0846)
 -->
<!-- Title: kryne&#45;engine/include/kryne&#45;engine/3DObjects/Scene.h Pages: 1 -->
<svg width="1456pt" height="808pt"
 viewBox="0.00 0.00 1456.00 808.00" xmlns="http://www.w3.org/2000/svg" xmlns:xlink="http://www.w3.org/1999/xlink">
<g id="graph0" class="graph" transform="scale(1 1) rotate(0) translate(4 804)">
<title>kryne&#45;engine/include/kryne&#45;engine/3DObjects/Scene.h</title>
<polygon fill="white" stroke="transparent" points="-4,4 -4,-804 1452,-804 1452,4 -4,4"/>
<!-- Node1 -->
<g id="node1" class="node">
<title>Node1</title>
<g id="a_node1"><a xlink:title=" ">
<polygon fill="#bfbfbf" stroke="black" points="443.5,-758.5 443.5,-799.5 567.5,-799.5 567.5,-758.5 443.5,-758.5"/>
<text text-anchor="start" x="451.5" y="-787.5" font-family="Helvetica,sans-Serif" font-size="10.00">kryne&#45;engine/include</text>
<text text-anchor="start" x="451.5" y="-776.5" font-family="Helvetica,sans-Serif" font-size="10.00">/kryne&#45;engine/3DObjects</text>
<text text-anchor="middle" x="505.5" y="-765.5" font-family="Helvetica,sans-Serif" font-size="10.00">/Scene.h</text>
</a>
</g>
</g>
<!-- Node2 -->
<g id="node2" class="node">
<title>Node2</title>
<g id="a_node2"><a xlink:href="3_d_objects_8h.html" target="_top" xlink:title=" ">
<polygon fill="white" stroke="black" points="0,-385 0,-415 127,-415 127,-385 0,-385"/>
<text text-anchor="start" x="8" y="-403" font-family="Helvetica,sans-Serif" font-size="10.00">kryne&#45;engine/include</text>
<text text-anchor="middle" x="63.5" y="-392" font-family="Helvetica,sans-Serif" font-size="10.00">/KEModules/3DObjects.h</text>
</a>
</g>
</g>
<!-- Node1&#45;&gt;Node2 -->
<g id="edge1" class="edge">
<title>Node1&#45;&gt;Node2</title>
<path fill="none" stroke="midnightblue" d="M433.1,-766.45C317.59,-745.96 104.5,-698.77 104.5,-629.5 104.5,-629.5 104.5,-629.5 104.5,-555 104.5,-501.88 81.44,-441.81 69.91,-415.1"/>
<polygon fill="midnightblue" stroke="midnightblue" points="432.83,-769.96 443.28,-768.24 434.04,-763.06 432.83,-769.96"/>
</g>
<!-- Node3 -->
<g id="node3" class="node">
<title>Node3</title>
<g id="a_node3"><a xlink:href="_transform_8h.html" target="_top" xlink:title=" ">
<polygon fill="white" stroke="black" points="488.5,-680.5 488.5,-721.5 612.5,-721.5 612.5,-680.5 488.5,-680.5"/>
<text text-anchor="start" x="496.5" y="-709.5" font-family="Helvetica,sans-Serif" font-size="10.00">kryne&#45;engine/include</text>
<text text-anchor="start" x="496.5" y="-698.5" font-family="Helvetica,sans-Serif" font-size="10.00">/kryne&#45;engine/3DObjects</text>
<text text-anchor="middle" x="550.5" y="-687.5" font-family="Helvetica,sans-Serif" font-size="10.00">/Transform.h</text>
</a>
</g>
</g>
<!-- Node1&#45;&gt;Node3 -->
<g id="edge2" class="edge">
<title>Node1&#45;&gt;Node3</title>
<path fill="none" stroke="midnightblue" d="M522.22,-749.76C527.79,-740.35 533.86,-730.1 538.95,-721.51"/>
<polygon fill="midnightblue" stroke="midnightblue" points="519.17,-748.04 517.09,-758.43 525.2,-751.61 519.17,-748.04"/>
</g>
<!-- Node8 -->
<g id="node8" class="node">
<title>Node8</title>
<g id="a_node8"><a xlink:href="_renderer_8h.html" target="_top" xlink:title=" ">
<polygon fill="white" stroke="black" points="300.5,-379.5 300.5,-420.5 422.5,-420.5 422.5,-379.5 300.5,-379.5"/>
<text text-anchor="start" x="308.5" y="-408.5" font-family="Helvetica,sans-Serif" font-size="10.00">kryne&#45;engine/include</text>
<text text-anchor="start" x="308.5" y="-397.5" font-family="Helvetica,sans-Serif" font-size="10.00">/kryne&#45;engine/Rendering</text>
<text text-anchor="middle" x="361.5" y="-386.5" font-family="Helvetica,sans-Serif" font-size="10.00">/Renderer.h</text>
</a>
</g>
</g>
<!-- Node1&#45;&gt;Node8 -->
<g id="edge56" class="edge">
<title>Node1&#45;&gt;Node8</title>
<path fill="none" stroke="midnightblue" d="M459.51,-753.02C419.71,-727.68 368.5,-684.4 368.5,-629.5 368.5,-629.5 368.5,-629.5 368.5,-555 368.5,-506.83 365.04,-450.26 362.98,-420.92"/>
<polygon fill="midnightblue" stroke="midnightblue" points="457.72,-756.03 468.06,-758.31 461.4,-750.08 457.72,-756.03"/>
</g>
<!-- Node28 -->
<g id="node28" class="node">
<title>Node28</title>
<g id="a_node28"><a xlink:href="_loop_renderer_8h.html" target="_top" xlink:title=" ">
<polygon fill="white" stroke="black" points="550.5,-379.5 550.5,-420.5 672.5,-420.5 672.5,-379.5 550.5,-379.5"/>
<text text-anchor="start" x="558.5" y="-408.5" font-family="Helvetica,sans-Serif" font-size="10.00">kryne&#45;engine/include</text>
<text text-anchor="start" x="558.5" y="-397.5" font-family="Helvetica,sans-Serif" font-size="10.00">/kryne&#45;engine/Rendering</text>
<text text-anchor="middle" x="611.5" y="-386.5" font-family="Helvetica,sans-Serif" font-size="10.00">/LoopRenderer.h</text>
</a>
</g>
</g>
<!-- Node1&#45;&gt;Node28 -->
<g id="edge55" class="edge">
<title>Node1&#45;&gt;Node28</title>
<path fill="none" stroke="midnightblue" d="M489.22,-749.18C485.23,-740.69 481.53,-731.2 479.5,-722 475.47,-703.77 474.74,-698.05 479.5,-680 488.23,-646.9 496.4,-639.96 517.5,-613 531.84,-594.68 540.59,-594.86 555.5,-577 582.05,-545.21 593.67,-538.38 606.5,-499 615,-472.92 614.78,-440.88 613.46,-420.7"/>
<polygon fill="midnightblue" stroke="midnightblue" points="486.17,-750.89 493.77,-758.27 492.43,-747.76 486.17,-750.89"/>
</g>
<!-- Node37 -->
<g id="node37" class="node">
<title>Node37</title>
<g id="a_node37"><a xlink:href="_scene_8cpp.html" target="_top" xlink:title=" ">
<polygon fill="white" stroke="black" points="631,-686 631,-716 768,-716 768,-686 631,-686"/>
<text text-anchor="start" x="639" y="-704" font-family="Helvetica,sans-Serif" font-size="10.00">kryne&#45;engine/src/3DObjects</text>
<text text-anchor="middle" x="699.5" y="-693" font-family="Helvetica,sans-Serif" font-size="10.00">/Scene.cpp</text>
</a>
</g>
</g>
<!-- Node1&#45;&gt;Node37 -->
<g id="edge57" class="edge">
<title>Node1&#45;&gt;Node37</title>
<path fill="none" stroke="midnightblue" d="M564.79,-754.77C597.02,-742.15 635.83,-726.94 663.49,-716.11"/>
<polygon fill="midnightblue" stroke="midnightblue" points="563.49,-751.52 555.46,-758.43 566.05,-758.04 563.49,-751.52"/>
</g>
<!-- Node3&#45;&gt;Node2 -->
<g id="edge3" class="edge">
<title>Node3&#45;&gt;Node2</title>
<path fill="none" stroke="midnightblue" d="M506.08,-675.24C440.14,-638.2 312.8,-565.58 207.5,-499 162.26,-470.4 110.74,-434.5 83.25,-415.07"/>
<polygon fill="midnightblue" stroke="midnightblue" points="504.54,-678.39 514.97,-680.23 507.96,-672.28 504.54,-678.39"/>
</g>
<!-- Node4 -->
<g id="node4" class="node">
<title>Node4</title>
<g id="a_node4"><a xlink:href="_entity_8h.html" target="_top" xlink:title=" ">
<polygon fill="white" stroke="black" points="729,-613.5 729,-643.5 864,-643.5 864,-613.5 729,-613.5"/>
<text text-anchor="start" x="737" y="-631.5" font-family="Helvetica,sans-Serif" font-size="10.00">kryne&#45;engine/include</text>
<text text-anchor="middle" x="796.5" y="-620.5" font-family="Helvetica,sans-Serif" font-size="10.00">/kryne&#45;engine/Core/Entity.h</text>
</a>
</g>
</g>
<!-- Node3&#45;&gt;Node4 -->
<g id="edge4" class="edge">
<title>Node3&#45;&gt;Node4</title>
<path fill="none" stroke="midnightblue" d="M622.59,-677.52C660.68,-666.39 706.64,-653.3 741.78,-643.6"/>
<polygon fill="midnightblue" stroke="midnightblue" points="621.2,-674.28 612.58,-680.46 623.16,-681 621.2,-674.28"/>
</g>
<!-- Node36 -->
<g id="node36" class="node">
<title>Node36</title>
<g id="a_node36"><a xlink:href="_transform_8cpp.html" target="_top" xlink:title=" ">
<polygon fill="white" stroke="black" points="527,-613.5 527,-643.5 664,-643.5 664,-613.5 527,-613.5"/>
<text text-anchor="start" x="535" y="-631.5" font-family="Helvetica,sans-Serif" font-size="10.00">kryne&#45;engine/src/3DObjects</text>
<text text-anchor="middle" x="595.5" y="-620.5" font-family="Helvetica,sans-Serif" font-size="10.00">/Transform.cpp</text>
</a>
</g>
</g>
<!-- Node3&#45;&gt;Node36 -->
<g id="edge54" class="edge">
<title>Node3&#45;&gt;Node36</title>
<path fill="none" stroke="midnightblue" d="M568.47,-671.85C574.59,-662.26 581.17,-651.94 586.31,-643.89"/>
<polygon fill="midnightblue" stroke="midnightblue" points="565.47,-670.05 563.04,-680.36 571.37,-673.82 565.47,-670.05"/>
</g>
<!-- Node4&#45;&gt;Node1 -->
<g id="edge5" class="edge">
<title>Node4&#45;&gt;Node1</title>
<path fill="none" stroke="midnightblue" d="M798.36,-653.64C798.57,-674.58 795.27,-704.23 777.5,-722 748.61,-750.9 638.74,-766.08 567.78,-773.04"/>
<polygon fill="midnightblue" stroke="midnightblue" points="801.85,-653.46 797.99,-643.6 794.86,-653.72 801.85,-653.46"/>
</g>
<!-- Node4&#45;&gt;Node3 -->
<g id="edge6" class="edge">
<title>Node4&#45;&gt;Node3</title>
<path fill="none" stroke="midnightblue" d="M742.97,-646.52C704.61,-657.86 652.91,-672.67 612.72,-683.83"/>
<polygon fill="midnightblue" stroke="midnightblue" points="744.33,-649.77 752.92,-643.57 742.34,-643.06 744.33,-649.77"/>
</g>
<!-- Node5 -->
<g id="node5" class="node">
<title>Node5</title>
<g id="a_node5"><a xlink:href="kryne-engine_2_camera_2_camera_8h.html" target="_top" xlink:title=" ">
<polygon fill="white" stroke="black" points="434.5,-535.5 434.5,-576.5 546.5,-576.5 546.5,-535.5 434.5,-535.5"/>
<text text-anchor="start" x="442.5" y="-564.5" font-family="Helvetica,sans-Serif" font-size="10.00">kryne&#45;engine/include</text>
<text text-anchor="start" x="442.5" y="-553.5" font-family="Helvetica,sans-Serif" font-size="10.00">/kryne&#45;engine/Camera</text>
<text text-anchor="middle" x="490.5" y="-542.5" font-family="Helvetica,sans-Serif" font-size="10.00">/Camera.h</text>
</a>
</g>
</g>
<!-- Node4&#45;&gt;Node5 -->
<g id="edge7" class="edge">
<title>Node4&#45;&gt;Node5</title>
<path fill="none" stroke="midnightblue" d="M725.75,-611.2C671.26,-598.65 596.98,-581.53 546.57,-569.92"/>
<polygon fill="midnightblue" stroke="midnightblue" points="725.15,-614.65 735.68,-613.49 726.72,-607.83 725.15,-614.65"/>
</g>
<!-- Node16 -->
<g id="node16" class="node">
<title>Node16</title>
<g id="a_node16"><a xlink:href="_component_8h.html" target="_top" xlink:title=" ">
<polygon fill="white" stroke="black" points="771,-541 771,-571 930,-571 930,-541 771,-541"/>
<text text-anchor="start" x="779" y="-559" font-family="Helvetica,sans-Serif" font-size="10.00">kryne&#45;engine/include</text>
<text text-anchor="middle" x="850.5" y="-548" font-family="Helvetica,sans-Serif" font-size="10.00">/kryne&#45;engine/Core/Component.h</text>
</a>
</g>
</g>
<!-- Node4&#45;&gt;Node16 -->
<g id="edge21" class="edge">
<title>Node4&#45;&gt;Node16</title>
<path fill="none" stroke="midnightblue" d="M807.47,-604.89C815.2,-593.84 825.39,-580.89 834.04,-571.25"/>
<polygon fill="midnightblue" stroke="midnightblue" points="804.54,-602.98 801.88,-613.23 810.35,-606.87 804.54,-602.98"/>
</g>
<!-- Node22 -->
<g id="node22" class="node">
<title>Node22</title>
<g id="a_node22"><a xlink:href="_process_8h.html" target="_top" xlink:title=" ">
<polygon fill="white" stroke="black" points="1133.5,-229 1133.5,-259 1279.5,-259 1279.5,-229 1133.5,-229"/>
<text text-anchor="start" x="1141.5" y="-247" font-family="Helvetica,sans-Serif" font-size="10.00">kryne&#45;engine/include</text>
<text text-anchor="middle" x="1206.5" y="-236" font-family="Helvetica,sans-Serif" font-size="10.00">/kryne&#45;engine/Core/Process.h</text>
</a>
</g>
</g>
<!-- Node4&#45;&gt;Node22 -->
<g id="edge51" class="edge">
<title>Node4&#45;&gt;Node22</title>
<path fill="none" stroke="midnightblue" d="M874.32,-619.92C1012.15,-604.7 1284.5,-564.33 1284.5,-479 1284.5,-479 1284.5,-479 1284.5,-399 1284.5,-340.96 1237.08,-284.68 1215.88,-259.2"/>
<polygon fill="midnightblue" stroke="midnightblue" points="873.8,-616.46 864.23,-621.01 874.55,-623.41 873.8,-616.46"/>
</g>
<!-- Node23 -->
<g id="node23" class="node">
<title>Node23</title>
<g id="a_node23"><a xlink:href="_system_8h.html" target="_top" xlink:title=" ">
<polygon fill="white" stroke="black" points="1135,-151 1135,-181 1278,-181 1278,-151 1135,-151"/>
<text text-anchor="start" x="1143" y="-169" font-family="Helvetica,sans-Serif" font-size="10.00">kryne&#45;engine/include</text>
<text text-anchor="middle" x="1206.5" y="-158" font-family="Helvetica,sans-Serif" font-size="10.00">/kryne&#45;engine/Core/System.h</text>
</a>
</g>
</g>
<!-- Node4&#45;&gt;Node23 -->
<g id="edge50" class="edge">
<title>Node4&#45;&gt;Node23</title>
<path fill="none" stroke="midnightblue" d="M874.28,-623.88C1032.83,-614.38 1378.5,-581.87 1378.5,-479 1378.5,-479 1378.5,-479 1378.5,-321 1378.5,-249.45 1294.88,-202.81 1244.25,-181.13"/>
<polygon fill="midnightblue" stroke="midnightblue" points="873.9,-620.4 864.12,-624.48 874.3,-627.39 873.9,-620.4"/>
</g>
<!-- Node4&#45;&gt;Node28 -->
<g id="edge52" class="edge">
<title>Node4&#45;&gt;Node28</title>
<path fill="none" stroke="midnightblue" d="M779.28,-605.32C764.59,-586.49 742.85,-558.82 723.5,-535 690.24,-494.05 650.45,-446.86 628.37,-420.83"/>
<polygon fill="midnightblue" stroke="midnightblue" points="776.59,-607.56 785.49,-613.3 782.11,-603.26 776.59,-607.56"/>
</g>
<!-- Node35 -->
<g id="node35" class="node">
<title>Node35</title>
<g id="a_node35"><a xlink:href="_entity_8cpp.html" target="_top" xlink:title=" ">
<polygon fill="white" stroke="black" points="602.5,-541 602.5,-571 714.5,-571 714.5,-541 602.5,-541"/>
<text text-anchor="start" x="610.5" y="-559" font-family="Helvetica,sans-Serif" font-size="10.00">kryne&#45;engine/src/Core</text>
<text text-anchor="middle" x="658.5" y="-548" font-family="Helvetica,sans-Serif" font-size="10.00">/Entity.cpp</text>
</a>
</g>
</g>
<!-- Node4&#45;&gt;Node35 -->
<g id="edge53" class="edge">
<title>Node4&#45;&gt;Node35</title>
<path fill="none" stroke="midnightblue" d="M759.73,-608.72C736.58,-596.89 707.19,-581.87 686.05,-571.07"/>
<polygon fill="midnightblue" stroke="midnightblue" points="758.41,-611.97 768.91,-613.4 761.59,-605.74 758.41,-611.97"/>
</g>
<!-- Node6 -->
<g id="node6" class="node">
<title>Node6</title>
<g id="a_node6"><a xlink:href="_k_e_modules_2_camera_8h.html" target="_top" xlink:title=" ">
<polygon fill="white" stroke="black" points="711,-307 711,-337 826,-337 826,-307 711,-307"/>
<text text-anchor="start" x="719" y="-325" font-family="Helvetica,sans-Serif" font-size="10.00">kryne&#45;engine/include</text>
<text text-anchor="middle" x="768.5" y="-314" font-family="Helvetica,sans-Serif" font-size="10.00">/KEModules/Camera.h</text>
</a>
</g>
</g>
<!-- Node5&#45;&gt;Node6 -->
<g id="edge8" class="edge">
<title>Node5&#45;&gt;Node6</title>
<path fill="none" stroke="midnightblue" d="M549.79,-531.32C568.72,-522.49 589.23,-511.52 606.5,-499 674.08,-450 735.41,-369.45 758.64,-337.1"/>
<polygon fill="midnightblue" stroke="midnightblue" points="548.3,-528.15 540.65,-535.48 551.2,-534.52 548.3,-528.15"/>
</g>
<!-- Node7 -->
<g id="node7" class="node">
<title>Node7</title>
<g id="a_node7"><a xlink:href="_mesh_8h.html" target="_top" xlink:title=" ">
<polygon fill="white" stroke="black" points="216.5,-457.5 216.5,-498.5 340.5,-498.5 340.5,-457.5 216.5,-457.5"/>
<text text-anchor="start" x="224.5" y="-486.5" font-family="Helvetica,sans-Serif" font-size="10.00">kryne&#45;engine/include</text>
<text text-anchor="start" x="224.5" y="-475.5" font-family="Helvetica,sans-Serif" font-size="10.00">/kryne&#45;engine/3DObjects</text>
<text text-anchor="middle" x="278.5" y="-464.5" font-family="Helvetica,sans-Serif" font-size="10.00">/Mesh.h</text>
</a>
</g>
</g>
<!-- Node5&#45;&gt;Node7 -->
<g id="edge9" class="edge">
<title>Node5&#45;&gt;Node7</title>
<path fill="none" stroke="midnightblue" d="M426.42,-532.03C396.57,-521.33 361.44,-508.73 332.91,-498.51"/>
<polygon fill="midnightblue" stroke="midnightblue" points="425.31,-535.35 435.9,-535.43 427.67,-528.76 425.31,-535.35"/>
</g>
<!-- Node5&#45;&gt;Node8 -->
<g id="edge18" class="edge">
<title>Node5&#45;&gt;Node8</title>
<path fill="none" stroke="midnightblue" d="M459.61,-528.43C449.88,-519.48 439.36,-509.17 430.5,-499 408.36,-473.58 386.61,-441.09 373.62,-420.66"/>
<polygon fill="midnightblue" stroke="midnightblue" points="457.43,-531.19 467.2,-535.29 462.13,-525.99 457.43,-531.19"/>
</g>
<!-- Node12 -->
<g id="node12" class="node">
<title>Node12</title>
<g id="a_node12"><a xlink:href="_orbit_controls_component_8h.html" target="_top" xlink:title=" ">
<polygon fill="white" stroke="black" points="992.5,-379.5 992.5,-420.5 1126.5,-420.5 1126.5,-379.5 992.5,-379.5"/>
<text text-anchor="start" x="1000.5" y="-408.5" font-family="Helvetica,sans-Serif" font-size="10.00">kryne&#45;engine/include</text>
<text text-anchor="start" x="1000.5" y="-397.5" font-family="Helvetica,sans-Serif" font-size="10.00">/kryne&#45;engine/Camera</text>
<text text-anchor="middle" x="1059.5" y="-386.5" font-family="Helvetica,sans-Serif" font-size="10.00">/OrbitControlsComponent.h</text>
</a>
</g>
</g>
<!-- Node5&#45;&gt;Node12 -->
<g id="edge15" class="edge">
<title>Node5&#45;&gt;Node12</title>
<path fill="none" stroke="midnightblue" d="M556.85,-541.37C569.02,-539.08 581.62,-536.85 593.5,-535 727.93,-514.02 776.61,-561.42 897.5,-499 919.87,-487.45 915.16,-471.83 935.5,-457 956.02,-442.04 981.17,-429.77 1003.45,-420.57"/>
<polygon fill="midnightblue" stroke="midnightblue" points="555.93,-537.98 546.77,-543.29 557.25,-544.86 555.93,-537.98"/>
</g>
<!-- Node14 -->
<g id="node14" class="node">
<title>Node14</title>
<g id="a_node14"><a xlink:href="_camera_8cpp.html" target="_top" xlink:title=" ">
<polygon fill="white" stroke="black" points="473,-463 473,-493 598,-493 598,-463 473,-463"/>
<text text-anchor="start" x="481" y="-481" font-family="Helvetica,sans-Serif" font-size="10.00">kryne&#45;engine/src/Camera</text>
<text text-anchor="middle" x="535.5" y="-470" font-family="Helvetica,sans-Serif" font-size="10.00">/Camera.cpp</text>
</a>
</g>
</g>
<!-- Node5&#45;&gt;Node14 -->
<g id="edge19" class="edge">
<title>Node5&#45;&gt;Node14</title>
<path fill="none" stroke="midnightblue" d="M507.29,-526.64C514.04,-515.25 521.52,-502.62 527.08,-493.23"/>
<polygon fill="midnightblue" stroke="midnightblue" points="504.17,-525.04 502.09,-535.43 510.2,-528.61 504.17,-525.04"/>
</g>
<!-- Node15 -->
<g id="node15" class="node">
<title>Node15</title>
<g id="a_node15"><a xlink:href="_open_g_l_renderer_8cpp.html" target="_top" xlink:title=" ">
<polygon fill="white" stroke="black" points="473,-73 473,-103 634,-103 634,-73 473,-73"/>
<text text-anchor="start" x="481" y="-91" font-family="Helvetica,sans-Serif" font-size="10.00">kryne&#45;engine/src/Rendering</text>
<text text-anchor="middle" x="553.5" y="-80" font-family="Helvetica,sans-Serif" font-size="10.00">/Renderers/OpenGLRenderer.cpp</text>
</a>
</g>
</g>
<!-- Node5&#45;&gt;Node15 -->
<g id="edge20" class="edge">
<title>Node5&#45;&gt;Node15</title>
<path fill="none" stroke="midnightblue" d="M474.14,-526.34C469.97,-517.8 465.97,-508.24 463.5,-499 443.22,-423.23 450.5,-401.44 450.5,-323 450.5,-323 450.5,-323 450.5,-243 450.5,-198.63 444.92,-181.94 469.5,-145 481.83,-126.47 502.6,-112.54 520.4,-103.21"/>
<polygon fill="midnightblue" stroke="midnightblue" points="471.16,-528.2 478.85,-535.49 477.38,-525 471.16,-528.2"/>
</g>
<!-- Node7&#45;&gt;Node2 -->
<g id="edge10" class="edge">
<title>Node7&#45;&gt;Node2</title>
<path fill="none" stroke="midnightblue" d="M213.25,-453.93C177.44,-441.28 134.2,-425.99 103.41,-415.11"/>
<polygon fill="midnightblue" stroke="midnightblue" points="212.54,-457.4 223.13,-457.43 214.87,-450.8 212.54,-457.4"/>
</g>
<!-- Node7&#45;&gt;Node8 -->
<g id="edge11" class="edge">
<title>Node7&#45;&gt;Node8</title>
<path fill="none" stroke="midnightblue" d="M307.45,-450.49C318.22,-440.63 330.24,-429.63 340.2,-420.51"/>
<polygon fill="midnightblue" stroke="midnightblue" points="304.89,-448.09 299.87,-457.43 309.61,-453.26 304.89,-448.09"/>
</g>
<!-- Node11 -->
<g id="node11" class="node">
<title>Node11</title>
<g id="a_node11"><a xlink:href="_mesh_8cpp.html" target="_top" xlink:title=" ">
<polygon fill="white" stroke="black" points="145,-385 145,-415 282,-415 282,-385 145,-385"/>
<text text-anchor="start" x="153" y="-403" font-family="Helvetica,sans-Serif" font-size="10.00">kryne&#45;engine/src/3DObjects</text>
<text text-anchor="middle" x="213.5" y="-392" font-family="Helvetica,sans-Serif" font-size="10.00">/Mesh.cpp</text>
</a>
</g>
</g>
<!-- Node7&#45;&gt;Node11 -->
<g id="edge14" class="edge">
<title>Node7&#45;&gt;Node11</title>
<path fill="none" stroke="midnightblue" d="M255.11,-449.65C245.15,-438 233.94,-424.9 225.67,-415.23"/>
<polygon fill="midnightblue" stroke="midnightblue" points="252.6,-452.1 261.76,-457.43 257.92,-447.55 252.6,-452.1"/>
</g>
<!-- Node9 -->
<g id="node9" class="node">
<title>Node9</title>
<g id="a_node9"><a xlink:href="_rendering_8h.html" target="_top" xlink:title=" ">
<polygon fill="white" stroke="black" points="297,-307 297,-337 422,-337 422,-307 297,-307"/>
<text text-anchor="start" x="305" y="-325" font-family="Helvetica,sans-Serif" font-size="10.00">kryne&#45;engine/include</text>
<text text-anchor="middle" x="359.5" y="-314" font-family="Helvetica,sans-Serif" font-size="10.00">/KEModules/Rendering.h</text>
</a>
</g>
</g>
<!-- Node8&#45;&gt;Node9 -->
<g id="edge12" class="edge">
<title>Node8&#45;&gt;Node9</title>
<path fill="none" stroke="midnightblue" d="M360.72,-369.28C360.43,-358.25 360.11,-346.25 359.87,-337.23"/>
<polygon fill="midnightblue" stroke="midnightblue" points="357.22,-369.52 360.98,-379.43 364.22,-369.34 357.22,-369.52"/>
</g>
<!-- Node10 -->
<g id="node10" class="node">
<title>Node10</title>
<g id="a_node10"><a xlink:href="_renderer_8cpp.html" target="_top" xlink:title=" ">
<polygon fill="white" stroke="black" points="144,-307 144,-337 279,-337 279,-307 144,-307"/>
<text text-anchor="start" x="152" y="-325" font-family="Helvetica,sans-Serif" font-size="10.00">kryne&#45;engine/src/Rendering</text>
<text text-anchor="middle" x="211.5" y="-314" font-family="Helvetica,sans-Serif" font-size="10.00">/Renderer.cpp</text>
</a>
</g>
</g>
<!-- Node8&#45;&gt;Node10 -->
<g id="edge13" class="edge">
<title>Node8&#45;&gt;Node10</title>
<path fill="none" stroke="midnightblue" d="M313.75,-374.81C289.31,-362.43 260.41,-347.78 239.58,-337.23"/>
<polygon fill="midnightblue" stroke="midnightblue" points="312.37,-378.03 322.87,-379.43 315.53,-371.79 312.37,-378.03"/>
</g>
<!-- Node12&#45;&gt;Node6 -->
<g id="edge16" class="edge">
<title>Node12&#45;&gt;Node6</title>
<path fill="none" stroke="midnightblue" d="M982.47,-378.88C931.95,-365.69 867.16,-348.77 822.18,-337.02"/>
<polygon fill="midnightblue" stroke="midnightblue" points="981.81,-382.33 992.37,-381.47 983.58,-375.56 981.81,-382.33"/>
</g>
<!-- Node13 -->
<g id="node13" class="node">
<title>Node13</title>
<g id="a_node13"><a xlink:href="_orbit_controls_component_8cpp.html" target="_top" xlink:title=" ">
<polygon fill="white" stroke="black" points="993,-307 993,-337 1138,-337 1138,-307 993,-307"/>
<text text-anchor="start" x="1001" y="-325" font-family="Helvetica,sans-Serif" font-size="10.00">kryne&#45;engine/src/Camera</text>
<text text-anchor="middle" x="1065.5" y="-314" font-family="Helvetica,sans-Serif" font-size="10.00">/OrbitControlsComponent.cpp</text>
</a>
</g>
</g>
<!-- Node12&#45;&gt;Node13 -->
<g id="edge17" class="edge">
<title>Node12&#45;&gt;Node13</title>
<path fill="none" stroke="midnightblue" d="M1061.85,-369.28C1062.72,-358.25 1063.66,-346.25 1064.38,-337.23"/>
<polygon fill="midnightblue" stroke="midnightblue" points="1058.34,-369.18 1061.05,-379.43 1065.32,-369.73 1058.34,-369.18"/>
</g>
<!-- Node16&#45;&gt;Node4 -->
<g id="edge27" class="edge">
<title>Node16&#45;&gt;Node4</title>
<path fill="none" stroke="midnightblue" d="M839.54,-579.59C831.82,-590.63 821.63,-603.58 812.98,-613.23"/>
<polygon fill="midnightblue" stroke="midnightblue" points="842.48,-581.5 845.13,-571.25 836.66,-577.61 842.48,-581.5"/>
</g>
<!-- Node17 -->
<g id="node17" class="node">
<title>Node17</title>
<g id="a_node17"><a xlink:href="_logic_component_8h.html" target="_top" xlink:title=" ">
<polygon fill="white" stroke="black" points="1074.5,-463 1074.5,-493 1256.5,-493 1256.5,-463 1074.5,-463"/>
<text text-anchor="start" x="1082.5" y="-481" font-family="Helvetica,sans-Serif" font-size="10.00">kryne&#45;engine/include</text>
<text text-anchor="middle" x="1165.5" y="-470" font-family="Helvetica,sans-Serif" font-size="10.00">/kryne&#45;engine/Core/LogicComponent.h</text>
</a>
</g>
</g>
<!-- Node16&#45;&gt;Node17 -->
<g id="edge22" class="edge">
<title>Node16&#45;&gt;Node17</title>
<path fill="none" stroke="midnightblue" d="M918.53,-538.59C974.86,-524.99 1054.04,-505.89 1107.43,-493.01"/>
<polygon fill="midnightblue" stroke="midnightblue" points="917.54,-535.22 908.64,-540.97 919.18,-542.03 917.54,-535.22"/>
</g>
<!-- Node21 -->
<g id="node21" class="node">
<title>Node21</title>
<g id="a_node21"><a xlink:href="_render_mesh_8h.html" target="_top" xlink:title=" ">
<polygon fill="white" stroke="black" points="766.5,-457.5 766.5,-498.5 888.5,-498.5 888.5,-457.5 766.5,-457.5"/>
<text text-anchor="start" x="774.5" y="-486.5" font-family="Helvetica,sans-Serif" font-size="10.00">kryne&#45;engine/include</text>
<text text-anchor="start" x="774.5" y="-475.5" font-family="Helvetica,sans-Serif" font-size="10.00">/kryne&#45;engine/Rendering</text>
<text text-anchor="middle" x="827.5" y="-464.5" font-family="Helvetica,sans-Serif" font-size="10.00">/RenderMesh.h</text>
</a>
</g>
</g>
<!-- Node16&#45;&gt;Node21 -->
<g id="edge28" class="edge">
<title>Node16&#45;&gt;Node21</title>
<path fill="none" stroke="midnightblue" d="M843.23,-530.98C840.08,-520.58 836.44,-508.55 833.46,-498.68"/>
<polygon fill="midnightblue" stroke="midnightblue" points="839.93,-532.15 846.17,-540.7 846.63,-530.12 839.93,-532.15"/>
</g>
<!-- Node34 -->
<g id="node34" class="node">
<title>Node34</title>
<g id="a_node34"><a xlink:href="_component_8cpp.html" target="_top" xlink:title=" ">
<polygon fill="white" stroke="black" points="944.5,-463 944.5,-493 1056.5,-493 1056.5,-463 944.5,-463"/>
<text text-anchor="start" x="952.5" y="-481" font-family="Helvetica,sans-Serif" font-size="10.00">kryne&#45;engine/src/Core</text>
<text text-anchor="middle" x="1000.5" y="-470" font-family="Helvetica,sans-Serif" font-size="10.00">/Component.cpp</text>
</a>
</g>
</g>
<!-- Node16&#45;&gt;Node34 -->
<g id="edge49" class="edge">
<title>Node16&#45;&gt;Node34</title>
<path fill="none" stroke="midnightblue" d="M887.31,-536.35C913.71,-522.97 948.73,-505.23 972.79,-493.04"/>
<polygon fill="midnightblue" stroke="midnightblue" points="885.7,-533.24 878.36,-540.88 888.86,-539.49 885.7,-533.24"/>
</g>
<!-- Node17&#45;&gt;Node12 -->
<g id="edge23" class="edge">
<title>Node17&#45;&gt;Node12</title>
<path fill="none" stroke="midnightblue" d="M1137.33,-456.8C1121.73,-445.62 1102.43,-431.78 1086.95,-420.68"/>
<polygon fill="midnightblue" stroke="midnightblue" points="1135.4,-459.72 1145.56,-462.7 1139.47,-454.03 1135.4,-459.72"/>
</g>
<!-- Node18 -->
<g id="node18" class="node">
<title>Node18</title>
<g id="a_node18"><a xlink:href="_game_logic_components_runner_8h.html" target="_top" xlink:title=" ">
<polygon fill="white" stroke="black" points="1275,-67.5 1275,-108.5 1438,-108.5 1438,-67.5 1275,-67.5"/>
<text text-anchor="start" x="1283" y="-96.5" font-family="Helvetica,sans-Serif" font-size="10.00">kryne&#45;engine/include</text>
<text text-anchor="start" x="1283" y="-85.5" font-family="Helvetica,sans-Serif" font-size="10.00">/kryne&#45;engine/Systems</text>
<text text-anchor="middle" x="1356.5" y="-74.5" font-family="Helvetica,sans-Serif" font-size="10.00">/GameLogicComponentsRunner.h</text>
</a>
</g>
</g>
<!-- Node17&#45;&gt;Node18 -->
<g id="edge24" class="edge">
<title>Node17&#45;&gt;Node18</title>
<path fill="none" stroke="midnightblue" d="M1213.72,-458.84C1265.52,-435.84 1340.5,-390.82 1340.5,-323 1340.5,-323 1340.5,-323 1340.5,-243 1340.5,-194.62 1348.41,-138.14 1353.11,-108.87"/>
<polygon fill="midnightblue" stroke="midnightblue" points="1212.14,-455.71 1204.34,-462.89 1214.91,-462.14 1212.14,-455.71"/>
</g>
<!-- Node20 -->
<g id="node20" class="node">
<title>Node20</title>
<g id="a_node20"><a xlink:href="_logic_component_8cpp.html" target="_top" xlink:title=" ">
<polygon fill="white" stroke="black" points="1144.5,-385 1144.5,-415 1256.5,-415 1256.5,-385 1144.5,-385"/>
<text text-anchor="start" x="1152.5" y="-403" font-family="Helvetica,sans-Serif" font-size="10.00">kryne&#45;engine/src/Core</text>
<text text-anchor="middle" x="1200.5" y="-392" font-family="Helvetica,sans-Serif" font-size="10.00">/LogicComponent.cpp</text>
</a>
</g>
</g>
<!-- Node17&#45;&gt;Node20 -->
<g id="edge26" class="edge">
<title>Node17&#45;&gt;Node20</title>
<path fill="none" stroke="midnightblue" d="M1176.4,-453.33C1182.15,-440.85 1189.02,-425.94 1193.95,-415.23"/>
<polygon fill="midnightblue" stroke="midnightblue" points="1173.09,-452.16 1172.08,-462.7 1179.45,-455.09 1173.09,-452.16"/>
</g>
<!-- Node19 -->
<g id="node19" class="node">
<title>Node19</title>
<g id="a_node19"><a xlink:href="_game_logic_components_runner_8cpp.html" target="_top" xlink:title=" ">
<polygon fill="white" stroke="black" points="1275,-0.5 1275,-30.5 1448,-30.5 1448,-0.5 1275,-0.5"/>
<text text-anchor="start" x="1283" y="-18.5" font-family="Helvetica,sans-Serif" font-size="10.00">kryne&#45;engine/src/Systems</text>
<text text-anchor="middle" x="1361.5" y="-7.5" font-family="Helvetica,sans-Serif" font-size="10.00">/GameLogicComponentsRunner.cpp</text>
</a>
</g>
</g>
<!-- Node18&#45;&gt;Node19 -->
<g id="edge25" class="edge">
<title>Node18&#45;&gt;Node19</title>
<path fill="none" stroke="midnightblue" d="M1358.6,-57.38C1359.25,-48.21 1359.94,-38.53 1360.48,-30.89"/>
<polygon fill="midnightblue" stroke="midnightblue" points="1355.11,-57.14 1357.89,-67.36 1362.09,-57.63 1355.11,-57.14"/>
</g>
<!-- Node21&#45;&gt;Node15 -->
<g id="edge47" class="edge">
<title>Node21&#45;&gt;Node15</title>
<path fill="none" stroke="midnightblue" d="M805.93,-449.09C793.31,-429.17 781.78,-401.96 792.5,-379 803.05,-356.42 824.95,-365.58 835.5,-343 872.73,-263.27 891.34,-213.02 835.5,-145 810.4,-114.43 708.28,-100.24 634.13,-93.88"/>
<polygon fill="midnightblue" stroke="midnightblue" points="803.05,-451.08 811.53,-457.42 808.85,-447.17 803.05,-451.08"/>
</g>
<!-- Node21&#45;&gt;Node22 -->
<g id="edge29" class="edge">
<title>Node21&#45;&gt;Node22</title>
<path fill="none" stroke="midnightblue" d="M897.72,-454.97C915.26,-446.67 932.69,-435.58 945.5,-421 982.52,-378.87 943.54,-339.3 984.5,-301 1006.06,-280.84 1077.31,-265.23 1133.34,-255.67"/>
<polygon fill="midnightblue" stroke="midnightblue" points="896.27,-451.79 888.57,-459.06 899.13,-458.18 896.27,-451.79"/>
</g>
<!-- Node21&#45;&gt;Node28 -->
<g id="edge38" class="edge">
<title>Node21&#45;&gt;Node28</title>
<path fill="none" stroke="midnightblue" d="M762.21,-454.03C731.8,-443.33 696.01,-430.73 666.94,-420.51"/>
<polygon fill="midnightblue" stroke="midnightblue" points="761.28,-457.41 771.87,-457.43 763.6,-450.81 761.28,-457.41"/>
</g>
<!-- Node33 -->
<g id="node33" class="node">
<title>Node33</title>
<g id="a_node33"><a xlink:href="_render_mesh_8cpp.html" target="_top" xlink:title=" ">
<polygon fill="white" stroke="black" points="801,-385 801,-415 936,-415 936,-385 801,-385"/>
<text text-anchor="start" x="809" y="-403" font-family="Helvetica,sans-Serif" font-size="10.00">kryne&#45;engine/src/Rendering</text>
<text text-anchor="middle" x="868.5" y="-392" font-family="Helvetica,sans-Serif" font-size="10.00">/RenderMesh.cpp</text>
</a>
</g>
</g>
<!-- Node21&#45;&gt;Node33 -->
<g id="edge48" class="edge">
<title>Node21&#45;&gt;Node33</title>
<path fill="none" stroke="midnightblue" d="M842.98,-448.3C849.08,-437 855.81,-424.52 860.83,-415.23"/>
<polygon fill="midnightblue" stroke="midnightblue" points="839.73,-446.97 838.06,-457.43 845.89,-450.29 839.73,-446.97"/>
</g>
<!-- Node22&#45;&gt;Node4 -->
<g id="edge30" class="edge">
<title>Node22&#45;&gt;Node4</title>
<path fill="none" stroke="midnightblue" d="M1233.98,-266.08C1262.54,-293.93 1302.5,-345.72 1302.5,-399 1302.5,-479 1302.5,-479 1302.5,-479 1302.5,-568.6 1002.18,-608.63 864.22,-622.02"/>
<polygon fill="midnightblue" stroke="midnightblue" points="1236.33,-263.48 1226.64,-259.2 1231.55,-268.59 1236.33,-263.48"/>
</g>
<!-- Node22&#45;&gt;Node23 -->
<g id="edge31" class="edge">
<title>Node22&#45;&gt;Node23</title>
<path fill="none" stroke="midnightblue" d="M1200.15,-218.59C1199.39,-206.26 1199.71,-191.72 1201.1,-181.23"/>
<polygon fill="midnightblue" stroke="midnightblue" points="1196.68,-219.07 1201.09,-228.7 1203.65,-218.42 1196.68,-219.07"/>
</g>
<!-- Node27 -->
<g id="node27" class="node">
<title>Node27</title>
<g id="a_node27"><a xlink:href="_process_8cpp.html" target="_top" xlink:title=" ">
<polygon fill="white" stroke="black" points="1004.5,-151 1004.5,-181 1116.5,-181 1116.5,-151 1004.5,-151"/>
<text text-anchor="start" x="1012.5" y="-169" font-family="Helvetica,sans-Serif" font-size="10.00">kryne&#45;engine/src/Core</text>
<text text-anchor="middle" x="1060.5" y="-158" font-family="Helvetica,sans-Serif" font-size="10.00">/Process.cpp</text>
</a>
</g>
</g>
<!-- Node22&#45;&gt;Node27 -->
<g id="edge37" class="edge">
<title>Node22&#45;&gt;Node27</title>
<path fill="none" stroke="midnightblue" d="M1170.33,-224.17C1144.67,-210.82 1110.79,-193.18 1087.47,-181.04"/>
<polygon fill="midnightblue" stroke="midnightblue" points="1168.89,-227.37 1179.38,-228.88 1172.13,-221.16 1168.89,-227.37"/>
</g>
<!-- Node23&#45;&gt;Node18 -->
<g id="edge33" class="edge">
<title>Node23&#45;&gt;Node18</title>
<path fill="none" stroke="midnightblue" d="M1243.31,-146.35C1265.91,-134.9 1294.82,-120.25 1317.76,-108.63"/>
<polygon fill="midnightblue" stroke="midnightblue" points="1241.7,-143.24 1234.36,-150.88 1244.86,-149.49 1241.7,-143.24"/>
</g>
<!-- Node23&#45;&gt;Node22 -->
<g id="edge32" class="edge">
<title>Node23&#45;&gt;Node22</title>
<path fill="none" stroke="midnightblue" d="M1212.85,-191.33C1213.61,-203.66 1213.29,-218.2 1211.91,-228.7"/>
<polygon fill="midnightblue" stroke="midnightblue" points="1216.32,-190.86 1211.9,-181.23 1209.35,-191.51 1216.32,-190.86"/>
</g>
<!-- Node24 -->
<g id="node24" class="node">
<title>Node24</title>
<g id="a_node24"><a xlink:href="_transform_update_system_8h.html" target="_top" xlink:title=" ">
<polygon fill="white" stroke="black" points="1122,-67.5 1122,-108.5 1257,-108.5 1257,-67.5 1122,-67.5"/>
<text text-anchor="start" x="1130" y="-96.5" font-family="Helvetica,sans-Serif" font-size="10.00">kryne&#45;engine/include</text>
<text text-anchor="start" x="1130" y="-85.5" font-family="Helvetica,sans-Serif" font-size="10.00">/kryne&#45;engine/Systems</text>
<text text-anchor="middle" x="1189.5" y="-74.5" font-family="Helvetica,sans-Serif" font-size="10.00">/TransformUpdateSystem.h</text>
</a>
</g>
</g>
<!-- Node23&#45;&gt;Node24 -->
<g id="edge34" class="edge">
<title>Node23&#45;&gt;Node24</title>
<path fill="none" stroke="midnightblue" d="M1201.05,-140.66C1198.74,-130.33 1196.09,-118.44 1193.9,-108.68"/>
<polygon fill="midnightblue" stroke="midnightblue" points="1197.7,-141.71 1203.3,-150.7 1204.54,-140.18 1197.7,-141.71"/>
</g>
<!-- Node26 -->
<g id="node26" class="node">
<title>Node26</title>
<g id="a_node26"><a xlink:href="_system_8cpp.html" target="_top" xlink:title=" ">
<polygon fill="white" stroke="black" points="991.5,-73 991.5,-103 1103.5,-103 1103.5,-73 991.5,-73"/>
<text text-anchor="start" x="999.5" y="-91" font-family="Helvetica,sans-Serif" font-size="10.00">kryne&#45;engine/src/Core</text>
<text text-anchor="middle" x="1047.5" y="-80" font-family="Helvetica,sans-Serif" font-size="10.00">/System.cpp</text>
</a>
</g>
</g>
<!-- Node23&#45;&gt;Node26 -->
<g id="edge36" class="edge">
<title>Node23&#45;&gt;Node26</title>
<path fill="none" stroke="midnightblue" d="M1167.85,-146.52C1139.82,-133.13 1102.49,-115.28 1076.88,-103.04"/>
<polygon fill="midnightblue" stroke="midnightblue" points="1166.43,-149.73 1176.97,-150.88 1169.45,-143.41 1166.43,-149.73"/>
</g>
<!-- Node25 -->
<g id="node25" class="node">
<title>Node25</title>
<g id="a_node25"><a xlink:href="_transform_update_system_8cpp.html" target="_top" xlink:title=" ">
<polygon fill="white" stroke="black" points="1110.5,-0.5 1110.5,-30.5 1256.5,-30.5 1256.5,-0.5 1110.5,-0.5"/>
<text text-anchor="start" x="1118.5" y="-18.5" font-family="Helvetica,sans-Serif" font-size="10.00">kryne&#45;engine/src/Systems</text>
<text text-anchor="middle" x="1183.5" y="-7.5" font-family="Helvetica,sans-Serif" font-size="10.00">/TransformUpdateSystem.cpp</text>
</a>
</g>
</g>
<!-- Node24&#45;&gt;Node25 -->
<g id="edge35" class="edge">
<title>Node24&#45;&gt;Node25</title>
<path fill="none" stroke="midnightblue" d="M1186.98,-57.38C1186.2,-48.21 1185.38,-38.53 1184.72,-30.89"/>
<polygon fill="midnightblue" stroke="midnightblue" points="1183.49,-57.69 1187.83,-67.36 1190.47,-57.1 1183.49,-57.69"/>
</g>
<!-- Node29 -->
<g id="node29" class="node">
<title>Node29</title>
<g id="a_node29"><a xlink:href="_graphic_context_8h.html" target="_top" xlink:title=" ">
<polygon fill="white" stroke="black" points="524,-301.5 524,-342.5 693,-342.5 693,-301.5 524,-301.5"/>
<text text-anchor="start" x="532" y="-330.5" font-family="Helvetica,sans-Serif" font-size="10.00">kryne&#45;engine/include</text>
<text text-anchor="start" x="532" y="-319.5" font-family="Helvetica,sans-Serif" font-size="10.00">/kryne&#45;engine/Core/GraphicContext</text>
<text text-anchor="middle" x="608.5" y="-308.5" font-family="Helvetica,sans-Serif" font-size="10.00">/GraphicContext.h</text>
</a>
</g>
</g>
<!-- Node28&#45;&gt;Node29 -->
<g id="edge39" class="edge">
<title>Node28&#45;&gt;Node29</title>
<path fill="none" stroke="midnightblue" d="M610.33,-369.3C609.97,-360.3 609.59,-350.65 609.27,-342.51"/>
<polygon fill="midnightblue" stroke="midnightblue" points="606.84,-369.57 610.73,-379.43 613.83,-369.3 606.84,-369.57"/>
</g>
<!-- Node31 -->
<g id="node31" class="node">
<title>Node31</title>
<g id="a_node31"><a xlink:href="_open_g_l_renderer_8h.html" target="_top" xlink:title=" ">
<polygon fill="white" stroke="black" points="478.5,-145.5 478.5,-186.5 628.5,-186.5 628.5,-145.5 478.5,-145.5"/>
<text text-anchor="start" x="486.5" y="-174.5" font-family="Helvetica,sans-Serif" font-size="10.00">kryne&#45;engine/include</text>
<text text-anchor="start" x="486.5" y="-163.5" font-family="Helvetica,sans-Serif" font-size="10.00">/kryne&#45;engine/Rendering</text>
<text text-anchor="middle" x="553.5" y="-152.5" font-family="Helvetica,sans-Serif" font-size="10.00">/Renderers/OpenGLRenderer.h</text>
</a>
</g>
</g>
<!-- Node28&#45;&gt;Node31 -->
<g id="edge46" class="edge">
<title>Node28&#45;&gt;Node31</title>
<path fill="none" stroke="midnightblue" d="M546.62,-374.23C533.8,-366.25 522,-356 514.5,-343 487.83,-296.81 498.53,-273.89 514.5,-223 518.69,-209.66 527.3,-196.72 535.37,-186.65"/>
<polygon fill="midnightblue" stroke="midnightblue" points="545.2,-377.45 555.62,-379.39 548.69,-371.38 545.2,-377.45"/>
</g>
<!-- Node29&#45;&gt;Node22 -->
<g id="edge45" class="edge">
<title>Node29&#45;&gt;Node22</title>
<path fill="none" stroke="midnightblue" d="M703.19,-300.97C862.16,-275.7 1036.8,-259.06 1133.16,-250.86"/>
<polygon fill="midnightblue" stroke="midnightblue" points="702.55,-297.53 693.23,-302.57 703.66,-304.44 702.55,-297.53"/>
</g>
<!-- Node30 -->
<g id="node30" class="node">
<title>Node30</title>
<g id="a_node30"><a xlink:href="_open_g_l_context_8h.html" target="_top" xlink:title=" ">
<polygon fill="white" stroke="black" points="524,-223.5 524,-264.5 693,-264.5 693,-223.5 524,-223.5"/>
<text text-anchor="start" x="532" y="-252.5" font-family="Helvetica,sans-Serif" font-size="10.00">kryne&#45;engine/include</text>
<text text-anchor="start" x="532" y="-241.5" font-family="Helvetica,sans-Serif" font-size="10.00">/kryne&#45;engine/Core/GraphicContext</text>
<text text-anchor="middle" x="608.5" y="-230.5" font-family="Helvetica,sans-Serif" font-size="10.00">/OpenGLContext.h</text>
</a>
</g>
</g>
<!-- Node29&#45;&gt;Node30 -->
<g id="edge40" class="edge">
<title>Node29&#45;&gt;Node30</title>
<path fill="none" stroke="midnightblue" d="M608.5,-291.3C608.5,-282.3 608.5,-272.65 608.5,-264.51"/>
<polygon fill="midnightblue" stroke="midnightblue" points="605,-291.43 608.5,-301.43 612,-291.43 605,-291.43"/>
</g>
<!-- Node30&#45;&gt;Node31 -->
<g id="edge41" class="edge">
<title>Node30&#45;&gt;Node31</title>
<path fill="none" stroke="midnightblue" d="M581.96,-215.34C574.61,-205.78 567.19,-195.27 561.63,-186.51"/>
<polygon fill="midnightblue" stroke="midnightblue" points="579.4,-217.75 588.35,-223.43 584.9,-213.41 579.4,-217.75"/>
</g>
<!-- Node32 -->
<g id="node32" class="node">
<title>Node32</title>
<g id="a_node32"><a xlink:href="_open_g_l_context_8cpp.html" target="_top" xlink:title=" ">
<polygon fill="white" stroke="black" points="647,-151 647,-181 826,-181 826,-151 647,-151"/>
<text text-anchor="start" x="655" y="-169" font-family="Helvetica,sans-Serif" font-size="10.00">kryne&#45;engine/src/Core</text>
<text text-anchor="middle" x="736.5" y="-158" font-family="Helvetica,sans-Serif" font-size="10.00">/GraphicContext/OpenGLContext.cpp</text>
</a>
</g>
</g>
<!-- Node30&#45;&gt;Node32 -->
<g id="edge44" class="edge">
<title>Node30&#45;&gt;Node32</title>
<path fill="none" stroke="midnightblue" d="M650.08,-218.31C670.75,-206.04 695,-191.64 712.54,-181.23"/>
<polygon fill="midnightblue" stroke="midnightblue" points="648.27,-215.31 641.46,-223.43 651.85,-221.33 648.27,-215.31"/>
</g>
<!-- Node31&#45;&gt;Node15 -->
<g id="edge43" class="edge">
<title>Node31&#45;&gt;Node15</title>
<path fill="none" stroke="midnightblue" d="M553.5,-135.28C553.5,-124.25 553.5,-112.25 553.5,-103.23"/>
<polygon fill="midnightblue" stroke="midnightblue" points="550,-135.43 553.5,-145.43 557,-135.43 550,-135.43"/>
</g>
<!-- Node31&#45;&gt;Node30 -->
<g id="edge42" class="edge">
<title>Node31&#45;&gt;Node30</title>
<path fill="none" stroke="midnightblue" d="M579.99,-194.59C587.33,-204.15 594.76,-214.65 600.32,-223.43"/>
<polygon fill="midnightblue" stroke="midnightblue" points="582.54,-192.18 573.6,-186.51 577.05,-196.52 582.54,-192.18"/>
</g>
</g>
</svg>
