<?xml version="1.0" encoding="UTF-8" standalone="no"?>
<!DOCTYPE svg PUBLIC "-//W3C//DTD SVG 1.1//EN"
 "http://www.w3.org/Graphics/SVG/1.1/DTD/svg11.dtd">
<!-- Generated by graphviz version 2.44.1 (20200629.0846)
 -->
<!-- Title: kryne&#45;engine/include/kryne&#45;engine/3DObjects/Scene.h Pages: 1 -->
<svg width="1129pt" height="218pt"
 viewBox="0.00 0.00 1128.50 218.00" xmlns="http://www.w3.org/2000/svg" xmlns:xlink="http://www.w3.org/1999/xlink">
<g id="graph0" class="graph" transform="scale(1 1) rotate(0) translate(4 214)">
<title>kryne&#45;engine/include/kryne&#45;engine/3DObjects/Scene.h</title>
<polygon fill="white" stroke="transparent" points="-4,4 -4,-214 1124.5,-214 1124.5,4 -4,4"/>
<!-- Node1 -->
<g id="node1" class="node">
<title>Node1</title>
<g id="a_node1"><a xlink:title=" ">
<polygon fill="#bfbfbf" stroke="black" points="371,-168.5 371,-209.5 495,-209.5 495,-168.5 371,-168.5"/>
<text text-anchor="start" x="379" y="-197.5" font-family="Helvetica,sans-Serif" font-size="10.00">kryne&#45;engine/include</text>
<text text-anchor="start" x="379" y="-186.5" font-family="Helvetica,sans-Serif" font-size="10.00">/kryne&#45;engine/3DObjects</text>
<text text-anchor="middle" x="433" y="-175.5" font-family="Helvetica,sans-Serif" font-size="10.00">/Scene.h</text>
</a>
</g>
</g>
<!-- Node2 -->
<g id="node2" class="node">
<title>Node2</title>
<g id="a_node2"><a xlink:href="_object3_d_8h.html" target="_top" xlink:title=" ">
<polygon fill="white" stroke="black" points="400.5,-112.5 400.5,-131.5 465.5,-131.5 465.5,-112.5 400.5,-112.5"/>
<text text-anchor="middle" x="433" y="-119.5" font-family="Helvetica,sans-Serif" font-size="10.00">Object3D.h</text>
</a>
</g>
</g>
<!-- Node1&#45;&gt;Node2 -->
<g id="edge1" class="edge">
<title>Node1&#45;&gt;Node2</title>
<path fill="none" stroke="midnightblue" d="M433,-168.5C433,-160.07 433,-150.24 433,-141.87"/>
<polygon fill="midnightblue" stroke="midnightblue" points="436.5,-141.65 433,-131.65 429.5,-141.65 436.5,-141.65"/>
</g>
<!-- Node3 -->
<g id="node3" class="node">
<title>Node3</title>
<g id="a_node3"><a xlink:title=" ">
<polygon fill="white" stroke="#bfbfbf" points="0,-56.5 0,-75.5 52,-75.5 52,-56.5 0,-56.5"/>
<text text-anchor="middle" x="26" y="-63.5" font-family="Helvetica,sans-Serif" font-size="10.00">memory</text>
</a>
</g>
</g>
<!-- Node2&#45;&gt;Node3 -->
<g id="edge2" class="edge">
<title>Node2&#45;&gt;Node3</title>
<path fill="none" stroke="midnightblue" d="M400.44,-118.51C337.13,-113.35 192.92,-100.1 62.46,-76.06"/>
<polygon fill="midnightblue" stroke="midnightblue" points="62.76,-72.55 52.29,-74.16 61.48,-79.43 62.76,-72.55"/>
</g>
<!-- Node4 -->
<g id="node4" class="node">
<title>Node4</title>
<g id="a_node4"><a xlink:title=" ">
<polygon fill="white" stroke="#bfbfbf" points="70,-56.5 70,-75.5 116,-75.5 116,-56.5 70,-56.5"/>
<text text-anchor="middle" x="93" y="-63.5" font-family="Helvetica,sans-Serif" font-size="10.00">atomic</text>
</a>
</g>
</g>
<!-- Node2&#45;&gt;Node4 -->
<g id="edge3" class="edge">
<title>Node2&#45;&gt;Node4</title>
<path fill="none" stroke="midnightblue" d="M400.38,-117.64C345.61,-111.69 231.55,-98 126.17,-76.02"/>
<polygon fill="midnightblue" stroke="midnightblue" points="126.84,-72.58 116.33,-73.94 125.39,-79.43 126.84,-72.58"/>
</g>
<!-- Node5 -->
<g id="node5" class="node">
<title>Node5</title>
<g id="a_node5"><a xlink:title=" ">
<polygon fill="white" stroke="#bfbfbf" points="134,-56.5 134,-75.5 176,-75.5 176,-56.5 134,-56.5"/>
<text text-anchor="middle" x="155" y="-63.5" font-family="Helvetica,sans-Serif" font-size="10.00">vector</text>
</a>
</g>
</g>
<!-- Node2&#45;&gt;Node5 -->
<g id="edge4" class="edge">
<title>Node2&#45;&gt;Node5</title>
<path fill="none" stroke="midnightblue" d="M400.26,-116.26C354.39,-109.35 268.26,-95.44 185.98,-76.02"/>
<polygon fill="midnightblue" stroke="midnightblue" points="186.77,-72.61 176.23,-73.69 185.14,-79.42 186.77,-72.61"/>
</g>
<!-- Node6 -->
<g id="node6" class="node">
<title>Node6</title>
<g id="a_node6"><a xlink:title=" ">
<polygon fill="white" stroke="#bfbfbf" points="194,-56.5 194,-75.5 264,-75.5 264,-56.5 194,-56.5"/>
<text text-anchor="middle" x="229" y="-63.5" font-family="Helvetica,sans-Serif" font-size="10.00">glm/glm.hpp</text>
</a>
</g>
</g>
<!-- Node2&#45;&gt;Node6 -->
<g id="edge5" class="edge">
<title>Node2&#45;&gt;Node6</title>
<path fill="none" stroke="midnightblue" d="M400.68,-112.44C365.61,-103.16 309.5,-88.31 271.04,-78.13"/>
<polygon fill="midnightblue" stroke="midnightblue" points="271.74,-74.69 261.17,-75.52 269.94,-81.46 271.74,-74.69"/>
</g>
<!-- Node7 -->
<g id="node7" class="node">
<title>Node7</title>
<g id="a_node7"><a xlink:title=" ">
<polygon fill="white" stroke="#bfbfbf" points="282,-56.5 282,-75.5 374,-75.5 374,-56.5 282,-56.5"/>
<text text-anchor="middle" x="328" y="-63.5" font-family="Helvetica,sans-Serif" font-size="10.00">glm/common.hpp</text>
</a>
</g>
</g>
<!-- Node2&#45;&gt;Node7 -->
<g id="edge6" class="edge">
<title>Node2&#45;&gt;Node7</title>
<path fill="none" stroke="midnightblue" d="M416.13,-112.32C399.29,-103.66 373.19,-90.24 353.76,-80.25"/>
<polygon fill="midnightblue" stroke="midnightblue" points="355.32,-77.12 344.83,-75.65 352.12,-83.34 355.32,-77.12"/>
</g>
<!-- Node8 -->
<g id="node8" class="node">
<title>Node8</title>
<g id="a_node8"><a xlink:title=" ">
<polygon fill="white" stroke="#bfbfbf" points="392.5,-56.5 392.5,-75.5 473.5,-75.5 473.5,-56.5 392.5,-56.5"/>
<text text-anchor="middle" x="433" y="-63.5" font-family="Helvetica,sans-Serif" font-size="10.00">glm/matrix.hpp</text>
</a>
</g>
</g>
<!-- Node2&#45;&gt;Node8 -->
<g id="edge7" class="edge">
<title>Node2&#45;&gt;Node8</title>
<path fill="none" stroke="midnightblue" d="M433,-112.08C433,-105.01 433,-94.86 433,-85.99"/>
<polygon fill="midnightblue" stroke="midnightblue" points="436.5,-85.75 433,-75.75 429.5,-85.75 436.5,-85.75"/>
</g>
<!-- Node9 -->
<g id="node9" class="node">
<title>Node9</title>
<g id="a_node9"><a xlink:title=" ">
<polygon fill="white" stroke="#bfbfbf" points="685,-0.5 685,-19.5 759,-19.5 759,-0.5 685,-0.5"/>
<text text-anchor="middle" x="722" y="-7.5" font-family="Helvetica,sans-Serif" font-size="10.00">glm/vec3.hpp</text>
</a>
</g>
</g>
<!-- Node2&#45;&gt;Node9 -->
<g id="edge8" class="edge">
<title>Node2&#45;&gt;Node9</title>
<path fill="none" stroke="midnightblue" d="M441.93,-112.37C456.97,-98.34 488.86,-70.67 521,-56 570.89,-33.23 633.14,-21.59 675.03,-15.92"/>
<polygon fill="midnightblue" stroke="midnightblue" points="675.49,-19.39 684.96,-14.63 674.6,-12.45 675.49,-19.39"/>
</g>
<!-- Node10 -->
<g id="node10" class="node">
<title>Node10</title>
<g id="a_node10"><a xlink:title=" ">
<polygon fill="white" stroke="#bfbfbf" points="530,-56.5 530,-75.5 646,-75.5 646,-56.5 530,-56.5"/>
<text text-anchor="middle" x="588" y="-63.5" font-family="Helvetica,sans-Serif" font-size="10.00">glm/gtc/quaternion.hpp</text>
</a>
</g>
</g>
<!-- Node2&#45;&gt;Node10 -->
<g id="edge9" class="edge">
<title>Node2&#45;&gt;Node10</title>
<path fill="none" stroke="midnightblue" d="M457.56,-112.44C483.52,-103.4 524.67,-89.06 553.8,-78.92"/>
<polygon fill="midnightblue" stroke="midnightblue" points="555.26,-82.11 563.55,-75.52 552.96,-75.5 555.26,-82.11"/>
</g>
<!-- Node11 -->
<g id="node11" class="node">
<title>Node11</title>
<g id="a_node11"><a xlink:title=" ">
<polygon fill="white" stroke="#bfbfbf" points="664,-56.5 664,-75.5 780,-75.5 780,-56.5 664,-56.5"/>
<text text-anchor="middle" x="722" y="-63.5" font-family="Helvetica,sans-Serif" font-size="10.00">glm/gtx/quaternion.hpp</text>
</a>
</g>
</g>
<!-- Node2&#45;&gt;Node11 -->
<g id="edge10" class="edge">
<title>Node2&#45;&gt;Node11</title>
<path fill="none" stroke="midnightblue" d="M465.59,-114.91C514.36,-105.8 606.96,-88.5 666.51,-77.37"/>
<polygon fill="midnightblue" stroke="midnightblue" points="667.31,-80.78 676.5,-75.5 666.03,-73.9 667.31,-80.78"/>
</g>
<!-- Node12 -->
<g id="node12" class="node">
<title>Node12</title>
<g id="a_node12"><a xlink:title=" ">
<polygon fill="white" stroke="#bfbfbf" points="798.5,-56.5 798.5,-75.5 941.5,-75.5 941.5,-56.5 798.5,-56.5"/>
<text text-anchor="middle" x="870" y="-63.5" font-family="Helvetica,sans-Serif" font-size="10.00">glm/gtc/matrix_transform.hpp</text>
</a>
</g>
</g>
<!-- Node2&#45;&gt;Node12 -->
<g id="edge11" class="edge">
<title>Node2&#45;&gt;Node12</title>
<path fill="none" stroke="midnightblue" d="M465.85,-116.94C534.38,-108.47 694.28,-88.71 791.15,-76.74"/>
<polygon fill="midnightblue" stroke="midnightblue" points="791.7,-80.2 801.19,-75.5 790.84,-73.26 791.7,-80.2"/>
</g>
<!-- Node13 -->
<g id="node13" class="node">
<title>Node13</title>
<g id="a_node13"><a xlink:href="_transform_8hpp.html" target="_top" xlink:title=" ">
<polygon fill="white" stroke="black" points="959.5,-56.5 959.5,-75.5 1120.5,-75.5 1120.5,-56.5 959.5,-56.5"/>
<text text-anchor="middle" x="1040" y="-63.5" font-family="Helvetica,sans-Serif" font-size="10.00">kryne&#45;engine/Math/Transform.hpp</text>
</a>
</g>
</g>
<!-- Node2&#45;&gt;Node13 -->
<g id="edge12" class="edge">
<title>Node2&#45;&gt;Node13</title>
<path fill="none" stroke="midnightblue" d="M465.74,-118.32C546.14,-111.69 759.96,-93.87 949.33,-76.15"/>
<polygon fill="midnightblue" stroke="midnightblue" points="949.85,-79.61 959.47,-75.19 949.19,-72.64 949.85,-79.61"/>
</g>
<!-- Node13&#45;&gt;Node9 -->
<g id="edge13" class="edge">
<title>Node13&#45;&gt;Node9</title>
<path fill="none" stroke="midnightblue" d="M989.61,-56.44C929.14,-46.18 828.53,-29.09 769.42,-19.05"/>
<polygon fill="midnightblue" stroke="midnightblue" points="769.68,-15.55 759.24,-17.32 768.51,-22.45 769.68,-15.55"/>
</g>
<!-- Node14 -->
<g id="node14" class="node">
<title>Node14</title>
<g id="a_node14"><a xlink:title=" ">
<polygon fill="white" stroke="#bfbfbf" points="997,-0.5 997,-19.5 1083,-19.5 1083,-0.5 997,-0.5"/>
<text text-anchor="middle" x="1040" y="-7.5" font-family="Helvetica,sans-Serif" font-size="10.00">glm/mat3x3.hpp</text>
</a>
</g>
</g>
<!-- Node13&#45;&gt;Node14 -->
<g id="edge14" class="edge">
<title>Node13&#45;&gt;Node14</title>
<path fill="none" stroke="midnightblue" d="M1040,-56.08C1040,-49.01 1040,-38.86 1040,-29.99"/>
<polygon fill="midnightblue" stroke="midnightblue" points="1043.5,-29.75 1040,-19.75 1036.5,-29.75 1043.5,-29.75"/>
</g>
</g>
</svg>
