<?xml version="1.0" encoding="UTF-8" standalone="no"?>
<!DOCTYPE svg PUBLIC "-//W3C//DTD SVG 1.1//EN"
 "http://www.w3.org/Graphics/SVG/1.1/DTD/svg11.dtd">
<!-- Generated by graphviz version 2.44.1 (20200629.0846)
 -->
<!-- Title: kryne&#45;engine/include/kryne&#45;engine/Rendering/ShaderProgramCompiler.h Pages: 1 -->
<svg width="1609pt" height="475pt"
 viewBox="0.00 0.00 1608.50 475.00" xmlns="http://www.w3.org/2000/svg" xmlns:xlink="http://www.w3.org/1999/xlink">
<g id="graph0" class="graph" transform="scale(1 1) rotate(0) translate(4 471)">
<title>kryne&#45;engine/include/kryne&#45;engine/Rendering/ShaderProgramCompiler.h</title>
<polygon fill="white" stroke="transparent" points="-4,4 -4,-471 1604.5,-471 1604.5,4 -4,4"/>
<!-- Node1 -->
<g id="node1" class="node">
<title>Node1</title>
<g id="a_node1"><a xlink:title=" ">
<polygon fill="#bfbfbf" stroke="black" points="810.5,-425.5 810.5,-466.5 944.5,-466.5 944.5,-425.5 810.5,-425.5"/>
<text text-anchor="start" x="818.5" y="-454.5" font-family="Helvetica,sans-Serif" font-size="10.00">kryne&#45;engine/include</text>
<text text-anchor="start" x="818.5" y="-443.5" font-family="Helvetica,sans-Serif" font-size="10.00">/kryne&#45;engine/Rendering</text>
<text text-anchor="middle" x="877.5" y="-432.5" font-family="Helvetica,sans-Serif" font-size="10.00">/ShaderProgramCompiler.h</text>
</a>
</g>
</g>
<!-- Node2 -->
<g id="node2" class="node">
<title>Node2</title>
<g id="a_node2"><a xlink:title=" ">
<polygon fill="white" stroke="#bfbfbf" points="562,-364 562,-383 603,-383 603,-364 562,-364"/>
<text text-anchor="middle" x="582.5" y="-371" font-family="Helvetica,sans-Serif" font-size="10.00">regex</text>
</a>
</g>
</g>
<!-- Node1&#45;&gt;Node2 -->
<g id="edge1" class="edge">
<title>Node1&#45;&gt;Node2</title>
<path fill="none" stroke="midnightblue" d="M810.41,-435.43C756.11,-426.6 678.13,-411.43 612.5,-389 610.88,-388.45 609.24,-387.83 607.59,-387.17"/>
<polygon fill="midnightblue" stroke="midnightblue" points="608.95,-383.94 598.39,-383.06 606.1,-390.33 608.95,-383.94"/>
</g>
<!-- Node3 -->
<g id="node3" class="node">
<title>Node3</title>
<g id="a_node3"><a xlink:href="_shader_8h.html" target="_top" xlink:title=" ">
<polygon fill="white" stroke="black" points="621.5,-358.5 621.5,-388.5 731.5,-388.5 731.5,-358.5 621.5,-358.5"/>
<text text-anchor="start" x="629.5" y="-376.5" font-family="Helvetica,sans-Serif" font-size="10.00">kryne&#45;engine/Material</text>
<text text-anchor="middle" x="676.5" y="-365.5" font-family="Helvetica,sans-Serif" font-size="10.00">/Shader.h</text>
</a>
</g>
</g>
<!-- Node1&#45;&gt;Node3 -->
<g id="edge2" class="edge">
<title>Node1&#45;&gt;Node3</title>
<path fill="none" stroke="midnightblue" d="M821.78,-425.46C791.82,-414.95 755.19,-402.1 726.21,-391.93"/>
<polygon fill="midnightblue" stroke="midnightblue" points="727.29,-388.6 716.69,-388.6 724.97,-395.21 727.29,-388.6"/>
</g>
<!-- Node6 -->
<g id="node6" class="node">
<title>Node6</title>
<g id="a_node6"><a xlink:href="_dispatcher_8h.html" target="_top" xlink:title=" ">
<polygon fill="white" stroke="black" points="1159,-291.5 1159,-321.5 1272,-321.5 1272,-291.5 1159,-291.5"/>
<text text-anchor="start" x="1167" y="-309.5" font-family="Helvetica,sans-Serif" font-size="10.00">kryne&#45;engine/Dispatch</text>
<text text-anchor="middle" x="1215.5" y="-298.5" font-family="Helvetica,sans-Serif" font-size="10.00">/Dispatcher.h</text>
</a>
</g>
</g>
<!-- Node1&#45;&gt;Node6 -->
<g id="edge68" class="edge">
<title>Node1&#45;&gt;Node6</title>
<path fill="none" stroke="midnightblue" d="M944.67,-437.67C1016.83,-428.77 1125.82,-412.03 1160.5,-389 1181.71,-374.91 1196.88,-349.56 1205.84,-330.87"/>
<polygon fill="midnightblue" stroke="midnightblue" points="1209.13,-332.09 1210.08,-321.53 1202.76,-329.2 1209.13,-332.09"/>
</g>
<!-- Node40 -->
<g id="node40" class="node">
<title>Node40</title>
<g id="a_node40"><a xlink:href="_buffer_geometry_8h.html" target="_top" xlink:title=" ">
<polygon fill="white" stroke="black" points="1033.5,-358.5 1033.5,-388.5 1151.5,-388.5 1151.5,-358.5 1033.5,-358.5"/>
<text text-anchor="start" x="1041.5" y="-376.5" font-family="Helvetica,sans-Serif" font-size="10.00">kryne&#45;engine/Geometry</text>
<text text-anchor="middle" x="1092.5" y="-365.5" font-family="Helvetica,sans-Serif" font-size="10.00">/BufferGeometry.h</text>
</a>
</g>
</g>
<!-- Node1&#45;&gt;Node40 -->
<g id="edge53" class="edge">
<title>Node1&#45;&gt;Node40</title>
<path fill="none" stroke="midnightblue" d="M937.1,-425.46C969.29,-414.9 1008.67,-401.99 1039.74,-391.8"/>
<polygon fill="midnightblue" stroke="midnightblue" points="1041.1,-395.04 1049.51,-388.6 1038.92,-388.39 1041.1,-395.04"/>
</g>
<!-- Node4 -->
<g id="node4" class="node">
<title>Node4</title>
<g id="a_node4"><a xlink:title=" ">
<polygon fill="white" stroke="#bfbfbf" points="150,-297 150,-316 185,-316 185,-297 150,-297"/>
<text text-anchor="middle" x="167.5" y="-304" font-family="Helvetica,sans-Serif" font-size="10.00">map</text>
</a>
</g>
</g>
<!-- Node3&#45;&gt;Node4 -->
<g id="edge3" class="edge">
<title>Node3&#45;&gt;Node4</title>
<path fill="none" stroke="midnightblue" d="M621.28,-359.66C617.98,-359.05 614.7,-358.49 611.5,-358 427.64,-329.69 372.78,-375.1 194.5,-322 193.03,-321.56 191.56,-321.04 190.09,-320.46"/>
<polygon fill="midnightblue" stroke="midnightblue" points="191.3,-317.16 180.77,-316.01 188.28,-323.48 191.3,-317.16"/>
</g>
<!-- Node5 -->
<g id="node5" class="node">
<title>Node5</title>
<g id="a_node5"><a xlink:title=" ">
<polygon fill="white" stroke="#bfbfbf" points="203.5,-297 203.5,-316 255.5,-316 255.5,-297 203.5,-297"/>
<text text-anchor="middle" x="229.5" y="-304" font-family="Helvetica,sans-Serif" font-size="10.00">sstream</text>
</a>
</g>
</g>
<!-- Node3&#45;&gt;Node5 -->
<g id="edge4" class="edge">
<title>Node3&#45;&gt;Node5</title>
<path fill="none" stroke="midnightblue" d="M621.27,-359.72C617.97,-359.1 614.7,-358.52 611.5,-358 458.47,-333.08 414.8,-360.07 264.5,-322 261.99,-321.36 259.42,-320.58 256.88,-319.71"/>
<polygon fill="midnightblue" stroke="midnightblue" points="257.92,-316.36 247.33,-316.05 255.41,-322.9 257.92,-316.36"/>
</g>
<!-- Node3&#45;&gt;Node6 -->
<g id="edge5" class="edge">
<title>Node3&#45;&gt;Node6</title>
<path fill="none" stroke="midnightblue" d="M731.65,-365.85C831.33,-353.83 1041.11,-328.53 1148.72,-315.55"/>
<polygon fill="midnightblue" stroke="midnightblue" points="1149.3,-319.01 1158.81,-314.34 1148.46,-312.06 1149.3,-319.01"/>
</g>
<!-- Node20 -->
<g id="node20" class="node">
<title>Node20</title>
<g id="a_node20"><a xlink:href="_uniforms_handler_8h.html" target="_top" xlink:title=" ">
<polygon fill="white" stroke="black" points="628.5,-297 628.5,-316 724.5,-316 724.5,-297 628.5,-297"/>
<text text-anchor="middle" x="676.5" y="-304" font-family="Helvetica,sans-Serif" font-size="10.00">UniformsHandler.h</text>
</a>
</g>
</g>
<!-- Node3&#45;&gt;Node20 -->
<g id="edge25" class="edge">
<title>Node3&#45;&gt;Node20</title>
<path fill="none" stroke="midnightblue" d="M676.5,-358.4C676.5,-349.06 676.5,-336.71 676.5,-326.52"/>
<polygon fill="midnightblue" stroke="midnightblue" points="680,-326.19 676.5,-316.19 673,-326.19 680,-326.19"/>
</g>
<!-- Node33 -->
<g id="node33" class="node">
<title>Node33</title>
<g id="a_node33"><a xlink:href="_shader_chunk_8h.html" target="_top" xlink:title=" ">
<polygon fill="white" stroke="black" points="274,-297 274,-316 357,-316 357,-297 274,-297"/>
<text text-anchor="middle" x="315.5" y="-304" font-family="Helvetica,sans-Serif" font-size="10.00">ShaderChunk.h</text>
</a>
</g>
</g>
<!-- Node3&#45;&gt;Node33 -->
<g id="edge42" class="edge">
<title>Node3&#45;&gt;Node33</title>
<path fill="none" stroke="midnightblue" d="M621.22,-359.97C617.94,-359.29 614.68,-358.62 611.5,-358 526.33,-341.25 426.74,-324.92 367.51,-315.56"/>
<polygon fill="midnightblue" stroke="midnightblue" points="367.71,-312.05 357.29,-313.95 366.62,-318.96 367.71,-312.05"/>
</g>
<!-- Node7 -->
<g id="node7" class="node">
<title>Node7</title>
<g id="a_node7"><a xlink:href="_synchronizable_pool_8h.html" target="_top" xlink:title=" ">
<polygon fill="white" stroke="black" points="1252,-168.5 1252,-187.5 1363,-187.5 1363,-168.5 1252,-168.5"/>
<text text-anchor="middle" x="1307.5" y="-175.5" font-family="Helvetica,sans-Serif" font-size="10.00">SynchronizablePool.h</text>
</a>
</g>
</g>
<!-- Node6&#45;&gt;Node7 -->
<g id="edge6" class="edge">
<title>Node6&#45;&gt;Node7</title>
<path fill="none" stroke="midnightblue" d="M1222.77,-291.34C1231.64,-274.59 1247.57,-246.18 1264.5,-224 1272.35,-213.72 1282.26,-203.21 1290.59,-194.93"/>
<polygon fill="midnightblue" stroke="midnightblue" points="1293.24,-197.25 1297.97,-187.77 1288.36,-192.22 1293.24,-197.25"/>
</g>
<!-- Node17 -->
<g id="node17" class="node">
<title>Node17</title>
<g id="a_node17"><a xlink:href="_runner_pool_8h.html" target="_top" xlink:title=" ">
<polygon fill="white" stroke="black" points="1159,-168.5 1159,-187.5 1234,-187.5 1234,-168.5 1159,-168.5"/>
<text text-anchor="middle" x="1196.5" y="-175.5" font-family="Helvetica,sans-Serif" font-size="10.00">RunnerPool.h</text>
</a>
</g>
</g>
<!-- Node6&#45;&gt;Node17 -->
<g id="edge18" class="edge">
<title>Node6&#45;&gt;Node17</title>
<path fill="none" stroke="midnightblue" d="M1213.39,-291.48C1209.96,-268.62 1203.15,-223.3 1199.31,-197.71"/>
<polygon fill="midnightblue" stroke="midnightblue" points="1202.77,-197.16 1197.82,-187.79 1195.84,-198.2 1202.77,-197.16"/>
</g>
<!-- Node19 -->
<g id="node19" class="node">
<title>Node19</title>
<g id="a_node19"><a xlink:href="_main_pool_8h.html" target="_top" xlink:title=" ">
<polygon fill="white" stroke="black" points="1274,-230 1274,-249 1339,-249 1339,-230 1274,-230"/>
<text text-anchor="middle" x="1306.5" y="-237" font-family="Helvetica,sans-Serif" font-size="10.00">MainPool.h</text>
</a>
</g>
</g>
<!-- Node6&#45;&gt;Node19 -->
<g id="edge23" class="edge">
<title>Node6&#45;&gt;Node19</title>
<path fill="none" stroke="midnightblue" d="M1235.25,-291.4C1250.36,-280.6 1271.14,-265.76 1286.36,-254.89"/>
<polygon fill="midnightblue" stroke="midnightblue" points="1288.49,-257.67 1294.59,-249.01 1284.42,-251.97 1288.49,-257.67"/>
</g>
<!-- Node8 -->
<g id="node8" class="node">
<title>Node8</title>
<g id="a_node8"><a xlink:href="_base_pool_8h.html" target="_top" xlink:title=" ">
<polygon fill="white" stroke="black" points="1179,-56.5 1179,-75.5 1246,-75.5 1246,-56.5 1179,-56.5"/>
<text text-anchor="middle" x="1212.5" y="-63.5" font-family="Helvetica,sans-Serif" font-size="10.00">BasePool.h</text>
</a>
</g>
</g>
<!-- Node7&#45;&gt;Node8 -->
<g id="edge7" class="edge">
<title>Node7&#45;&gt;Node8</title>
<path fill="none" stroke="midnightblue" d="M1331.77,-168.38C1360.04,-157 1400.68,-135.62 1382.5,-112 1367.21,-92.14 1301.59,-79.24 1256.5,-72.55"/>
<polygon fill="midnightblue" stroke="midnightblue" points="1256.76,-69.05 1246.37,-71.09 1255.77,-75.98 1256.76,-69.05"/>
</g>
<!-- Node16 -->
<g id="node16" class="node">
<title>Node16</title>
<g id="a_node16"><a xlink:href="_synchronizable_child_pool_8h.html" target="_top" xlink:title=" ">
<polygon fill="white" stroke="black" points="1241,-112.5 1241,-131.5 1374,-131.5 1374,-112.5 1241,-112.5"/>
<text text-anchor="middle" x="1307.5" y="-119.5" font-family="Helvetica,sans-Serif" font-size="10.00">SynchronizableChildPool.h</text>
</a>
</g>
</g>
<!-- Node7&#45;&gt;Node16 -->
<g id="edge15" class="edge">
<title>Node7&#45;&gt;Node16</title>
<path fill="none" stroke="midnightblue" d="M1302.33,-168.08C1300.82,-160.93 1300.39,-150.64 1301.04,-141.69"/>
<polygon fill="midnightblue" stroke="midnightblue" points="1304.52,-142.13 1302.37,-131.75 1297.58,-141.2 1304.52,-142.13"/>
</g>
<!-- Node9 -->
<g id="node9" class="node">
<title>Node9</title>
<g id="a_node9"><a xlink:title=" ">
<polygon fill="white" stroke="#bfbfbf" points="1117.5,-0.5 1117.5,-19.5 1161.5,-19.5 1161.5,-0.5 1117.5,-0.5"/>
<text text-anchor="middle" x="1139.5" y="-7.5" font-family="Helvetica,sans-Serif" font-size="10.00">thread</text>
</a>
</g>
</g>
<!-- Node8&#45;&gt;Node9 -->
<g id="edge8" class="edge">
<title>Node8&#45;&gt;Node9</title>
<path fill="none" stroke="midnightblue" d="M1200.77,-56.32C1189.66,-48.11 1172.76,-35.6 1159.52,-25.81"/>
<polygon fill="midnightblue" stroke="midnightblue" points="1161.56,-22.97 1151.44,-19.83 1157.4,-28.59 1161.56,-22.97"/>
</g>
<!-- Node10 -->
<g id="node10" class="node">
<title>Node10</title>
<g id="a_node10"><a xlink:title=" ">
<polygon fill="white" stroke="#bfbfbf" points="1179.5,-0.5 1179.5,-19.5 1223.5,-19.5 1223.5,-0.5 1179.5,-0.5"/>
<text text-anchor="middle" x="1201.5" y="-7.5" font-family="Helvetica,sans-Serif" font-size="10.00">mutex</text>
</a>
</g>
</g>
<!-- Node8&#45;&gt;Node10 -->
<g id="edge9" class="edge">
<title>Node8&#45;&gt;Node10</title>
<path fill="none" stroke="midnightblue" d="M1210.68,-56.08C1209.23,-48.93 1207.13,-38.64 1205.31,-29.69"/>
<polygon fill="midnightblue" stroke="midnightblue" points="1208.71,-28.85 1203.28,-19.75 1201.85,-30.25 1208.71,-28.85"/>
</g>
<!-- Node11 -->
<g id="node11" class="node">
<title>Node11</title>
<g id="a_node11"><a xlink:title=" ">
<polygon fill="white" stroke="#bfbfbf" points="1242,-0.5 1242,-19.5 1335,-19.5 1335,-0.5 1242,-0.5"/>
<text text-anchor="middle" x="1288.5" y="-7.5" font-family="Helvetica,sans-Serif" font-size="10.00">condition_variable</text>
</a>
</g>
</g>
<!-- Node8&#45;&gt;Node11 -->
<g id="edge10" class="edge">
<title>Node8&#45;&gt;Node11</title>
<path fill="none" stroke="midnightblue" d="M1224.71,-56.32C1236.28,-48.11 1253.88,-35.6 1267.66,-25.81"/>
<polygon fill="midnightblue" stroke="midnightblue" points="1269.94,-28.48 1276.07,-19.83 1265.89,-22.77 1269.94,-28.48"/>
</g>
<!-- Node12 -->
<g id="node12" class="node">
<title>Node12</title>
<g id="a_node12"><a xlink:title=" ">
<polygon fill="white" stroke="#bfbfbf" points="1353,-0.5 1353,-19.5 1396,-19.5 1396,-0.5 1353,-0.5"/>
<text text-anchor="middle" x="1374.5" y="-7.5" font-family="Helvetica,sans-Serif" font-size="10.00">queue</text>
</a>
</g>
</g>
<!-- Node8&#45;&gt;Node12 -->
<g id="edge11" class="edge">
<title>Node8&#45;&gt;Node12</title>
<path fill="none" stroke="midnightblue" d="M1238.17,-56.44C1266.63,-46.96 1312.53,-31.66 1343.11,-21.46"/>
<polygon fill="midnightblue" stroke="midnightblue" points="1344.46,-24.7 1352.84,-18.22 1342.25,-18.06 1344.46,-24.7"/>
</g>
<!-- Node13 -->
<g id="node13" class="node">
<title>Node13</title>
<g id="a_node13"><a xlink:title=" ">
<polygon fill="white" stroke="#bfbfbf" points="1058,-0.5 1058,-19.5 1099,-19.5 1099,-0.5 1058,-0.5"/>
<text text-anchor="middle" x="1078.5" y="-7.5" font-family="Helvetica,sans-Serif" font-size="10.00">future</text>
</a>
</g>
</g>
<!-- Node8&#45;&gt;Node13 -->
<g id="edge12" class="edge">
<title>Node8&#45;&gt;Node13</title>
<path fill="none" stroke="midnightblue" d="M1191.27,-56.44C1168.99,-47.46 1133.77,-33.27 1108.62,-23.14"/>
<polygon fill="midnightblue" stroke="midnightblue" points="1109.78,-19.83 1099.19,-19.34 1107.16,-26.32 1109.78,-19.83"/>
</g>
<!-- Node14 -->
<g id="node14" class="node">
<title>Node14</title>
<g id="a_node14"><a xlink:title=" ">
<polygon fill="white" stroke="#bfbfbf" points="1414.5,-0.5 1414.5,-19.5 1466.5,-19.5 1466.5,-0.5 1414.5,-0.5"/>
<text text-anchor="middle" x="1440.5" y="-7.5" font-family="Helvetica,sans-Serif" font-size="10.00">memory</text>
</a>
</g>
</g>
<!-- Node8&#45;&gt;Node14 -->
<g id="edge13" class="edge">
<title>Node8&#45;&gt;Node14</title>
<path fill="none" stroke="midnightblue" d="M1246.18,-57.26C1282.6,-48.87 1342.61,-34.92 1404.26,-20.03"/>
<polygon fill="midnightblue" stroke="midnightblue" points="1405.27,-23.39 1414.16,-17.63 1403.62,-16.58 1405.27,-23.39"/>
</g>
<!-- Node15 -->
<g id="node15" class="node">
<title>Node15</title>
<g id="a_node15"><a xlink:title=" ">
<polygon fill="white" stroke="#bfbfbf" points="881.5,-0.5 881.5,-19.5 935.5,-19.5 935.5,-0.5 881.5,-0.5"/>
<text text-anchor="middle" x="908.5" y="-7.5" font-family="Helvetica,sans-Serif" font-size="10.00">iostream</text>
</a>
</g>
</g>
<!-- Node8&#45;&gt;Node15 -->
<g id="edge14" class="edge">
<title>Node8&#45;&gt;Node15</title>
<path fill="none" stroke="midnightblue" d="M1178.81,-59.01C1121.49,-48.83 1005.45,-28.22 945.79,-17.62"/>
<polygon fill="midnightblue" stroke="midnightblue" points="946.13,-14.13 935.67,-15.83 944.91,-21.02 946.13,-14.13"/>
</g>
<!-- Node16&#45;&gt;Node7 -->
<g id="edge17" class="edge">
<title>Node16&#45;&gt;Node7</title>
<path fill="none" stroke="midnightblue" d="M1312.63,-131.75C1314.16,-138.86 1314.6,-149.14 1313.97,-158.1"/>
<polygon fill="midnightblue" stroke="midnightblue" points="1310.49,-157.71 1312.67,-168.08 1317.43,-158.62 1310.49,-157.71"/>
</g>
<!-- Node16&#45;&gt;Node8 -->
<g id="edge16" class="edge">
<title>Node16&#45;&gt;Node8</title>
<path fill="none" stroke="midnightblue" d="M1292.24,-112.32C1277.28,-103.82 1254.25,-90.73 1236.77,-80.8"/>
<polygon fill="midnightblue" stroke="midnightblue" points="1238.15,-77.55 1227.73,-75.65 1234.69,-83.64 1238.15,-77.55"/>
</g>
<!-- Node17&#45;&gt;Node8 -->
<g id="edge19" class="edge">
<title>Node17&#45;&gt;Node8</title>
<path fill="none" stroke="midnightblue" d="M1197.76,-168.37C1200.34,-150.62 1206.29,-109.67 1209.79,-85.6"/>
<polygon fill="midnightblue" stroke="midnightblue" points="1213.27,-85.99 1211.25,-75.59 1206.35,-84.98 1213.27,-85.99"/>
</g>
<!-- Node18 -->
<g id="node18" class="node">
<title>Node18</title>
<g id="a_node18"><a xlink:href="_child_pool_8h.html" target="_top" xlink:title=" ">
<polygon fill="white" stroke="black" points="1118.5,-112.5 1118.5,-131.5 1184.5,-131.5 1184.5,-112.5 1118.5,-112.5"/>
<text text-anchor="middle" x="1151.5" y="-119.5" font-family="Helvetica,sans-Serif" font-size="10.00">ChildPool.h</text>
</a>
</g>
</g>
<!-- Node17&#45;&gt;Node18 -->
<g id="edge20" class="edge">
<title>Node17&#45;&gt;Node18</title>
<path fill="none" stroke="midnightblue" d="M1184.16,-168.32C1176.19,-160.73 1166.41,-149.48 1159.41,-140.09"/>
<polygon fill="midnightblue" stroke="midnightblue" points="1162.27,-138.07 1153.71,-131.83 1156.51,-142.05 1162.27,-138.07"/>
</g>
<!-- Node18&#45;&gt;Node8 -->
<g id="edge21" class="edge">
<title>Node18&#45;&gt;Node8</title>
<path fill="none" stroke="midnightblue" d="M1161.3,-112.32C1170.32,-104.34 1183.91,-92.31 1194.82,-82.65"/>
<polygon fill="midnightblue" stroke="midnightblue" points="1197.35,-85.08 1202.52,-75.83 1192.71,-79.84 1197.35,-85.08"/>
</g>
<!-- Node18&#45;&gt;Node17 -->
<g id="edge22" class="edge">
<title>Node18&#45;&gt;Node17</title>
<path fill="none" stroke="midnightblue" d="M1163.92,-131.75C1171.86,-139.33 1181.58,-150.5 1188.55,-159.86"/>
<polygon fill="midnightblue" stroke="midnightblue" points="1185.67,-161.85 1194.24,-168.08 1191.43,-157.87 1185.67,-161.85"/>
</g>
<!-- Node19&#45;&gt;Node7 -->
<g id="edge24" class="edge">
<title>Node19&#45;&gt;Node7</title>
<path fill="none" stroke="midnightblue" d="M1306.64,-229.98C1306.78,-221.58 1307,-208.48 1307.19,-197.66"/>
<polygon fill="midnightblue" stroke="midnightblue" points="1310.69,-197.57 1307.36,-187.51 1303.69,-197.45 1310.69,-197.57"/>
</g>
<!-- Node21 -->
<g id="node21" class="node">
<title>Node21</title>
<g id="a_node21"><a xlink:title=" ">
<polygon fill="white" stroke="#bfbfbf" points="332,-168.5 332,-187.5 373,-187.5 373,-168.5 332,-168.5"/>
<text text-anchor="middle" x="352.5" y="-175.5" font-family="Helvetica,sans-Serif" font-size="10.00">string</text>
</a>
</g>
</g>
<!-- Node20&#45;&gt;Node21 -->
<g id="edge26" class="edge">
<title>Node20&#45;&gt;Node21</title>
<path fill="none" stroke="midnightblue" d="M669.51,-296.84C653.98,-277.8 616.61,-233.28 599.5,-224 580.67,-213.78 445.05,-192.71 383.16,-183.49"/>
<polygon fill="midnightblue" stroke="midnightblue" points="383.6,-180.02 373.19,-182.01 382.57,-186.94 383.6,-180.02"/>
</g>
<!-- Node22 -->
<g id="node22" class="node">
<title>Node22</title>
<g id="a_node22"><a xlink:title=" ">
<polygon fill="white" stroke="#bfbfbf" points="361,-230 361,-249 444,-249 444,-230 361,-230"/>
<text text-anchor="middle" x="402.5" y="-237" font-family="Helvetica,sans-Serif" font-size="10.00">unordered_map</text>
</a>
</g>
</g>
<!-- Node20&#45;&gt;Node22 -->
<g id="edge27" class="edge">
<title>Node20&#45;&gt;Node22</title>
<path fill="none" stroke="midnightblue" d="M638.23,-296.95C594.64,-287.13 521.32,-270.41 458.5,-255 454.1,-253.92 449.52,-252.77 444.94,-251.61"/>
<polygon fill="midnightblue" stroke="midnightblue" points="445.59,-248.17 435.04,-249.08 443.86,-254.95 445.59,-248.17"/>
</g>
<!-- Node23 -->
<g id="node23" class="node">
<title>Node23</title>
<g id="a_node23"><a xlink:title=" ">
<polygon fill="white" stroke="#bfbfbf" points="440.5,-168.5 440.5,-187.5 504.5,-187.5 504.5,-168.5 440.5,-168.5"/>
<text text-anchor="middle" x="472.5" y="-175.5" font-family="Helvetica,sans-Serif" font-size="10.00">glad/glad.h</text>
</a>
</g>
</g>
<!-- Node20&#45;&gt;Node23 -->
<g id="edge28" class="edge">
<title>Node20&#45;&gt;Node23</title>
<path fill="none" stroke="midnightblue" d="M628.06,-297.95C579.86,-289.47 510.42,-274.33 491.5,-255 476.74,-239.92 472.89,-215.19 472.15,-198.06"/>
<polygon fill="midnightblue" stroke="midnightblue" points="475.65,-197.58 472.04,-187.62 468.65,-197.66 475.65,-197.58"/>
</g>
<!-- Node24 -->
<g id="node24" class="node">
<title>Node24</title>
<g id="a_node24"><a xlink:title=" ">
<polygon fill="white" stroke="#bfbfbf" points="588.5,-168.5 588.5,-187.5 666.5,-187.5 666.5,-168.5 588.5,-168.5"/>
<text text-anchor="middle" x="627.5" y="-175.5" font-family="Helvetica,sans-Serif" font-size="10.00">GLFW/glfw3.h</text>
</a>
</g>
</g>
<!-- Node20&#45;&gt;Node24 -->
<g id="edge29" class="edge">
<title>Node20&#45;&gt;Node24</title>
<path fill="none" stroke="midnightblue" d="M724.58,-301.62C793.34,-294.25 907.11,-274.21 865.5,-224 865.31,-223.77 746.29,-201.35 676.66,-188.24"/>
<polygon fill="midnightblue" stroke="midnightblue" points="677.24,-184.79 666.76,-186.38 675.94,-191.67 677.24,-184.79"/>
</g>
<!-- Node25 -->
<g id="node25" class="node">
<title>Node25</title>
<g id="a_node25"><a xlink:title=" ">
<polygon fill="white" stroke="#bfbfbf" points="646.5,-230 646.5,-249 732.5,-249 732.5,-230 646.5,-230"/>
<text text-anchor="middle" x="689.5" y="-237" font-family="Helvetica,sans-Serif" font-size="10.00">glm/mat4x4.hpp</text>
</a>
</g>
</g>
<!-- Node20&#45;&gt;Node25 -->
<g id="edge30" class="edge">
<title>Node20&#45;&gt;Node25</title>
<path fill="none" stroke="midnightblue" d="M678.25,-296.73C680.16,-287.18 683.28,-271.62 685.74,-259.28"/>
<polygon fill="midnightblue" stroke="midnightblue" points="689.25,-259.62 687.77,-249.13 682.38,-258.25 689.25,-259.62"/>
</g>
<!-- Node26 -->
<g id="node26" class="node">
<title>Node26</title>
<g id="a_node26"><a xlink:title=" ">
<polygon fill="white" stroke="#bfbfbf" points="750.5,-230 750.5,-249 856.5,-249 856.5,-230 750.5,-230"/>
<text text-anchor="middle" x="803.5" y="-237" font-family="Helvetica,sans-Serif" font-size="10.00">glm/gtc/type_ptr.hpp</text>
</a>
</g>
</g>
<!-- Node20&#45;&gt;Node26 -->
<g id="edge31" class="edge">
<title>Node20&#45;&gt;Node26</title>
<path fill="none" stroke="midnightblue" d="M693.36,-296.87C714.9,-285.84 752.4,-266.66 777.58,-253.77"/>
<polygon fill="midnightblue" stroke="midnightblue" points="779.26,-256.84 786.57,-249.17 776.07,-250.61 779.26,-256.84"/>
</g>
<!-- Node27 -->
<g id="node27" class="node">
<title>Node27</title>
<g id="a_node27"><a xlink:title=" ">
<polygon fill="white" stroke="#bfbfbf" points="500.5,-230 500.5,-249 590.5,-249 590.5,-230 500.5,-230"/>
<text text-anchor="middle" x="545.5" y="-237" font-family="Helvetica,sans-Serif" font-size="10.00">boost/variant.hpp</text>
</a>
</g>
</g>
<!-- Node20&#45;&gt;Node27 -->
<g id="edge32" class="edge">
<title>Node20&#45;&gt;Node27</title>
<path fill="none" stroke="midnightblue" d="M659.1,-296.87C636.89,-285.84 598.21,-266.66 572.24,-253.77"/>
<polygon fill="midnightblue" stroke="midnightblue" points="573.48,-250.48 562.97,-249.17 570.37,-256.75 573.48,-250.48"/>
</g>
<!-- Node28 -->
<g id="node28" class="node">
<title>Node28</title>
<g id="a_node28"><a xlink:href="_texture_8h.html" target="_top" xlink:title=" ">
<polygon fill="white" stroke="black" points="913,-224.5 913,-254.5 1026,-254.5 1026,-224.5 913,-224.5"/>
<text text-anchor="start" x="921" y="-242.5" font-family="Helvetica,sans-Serif" font-size="10.00">kryne&#45;engine/Textures</text>
<text text-anchor="middle" x="969.5" y="-231.5" font-family="Helvetica,sans-Serif" font-size="10.00">/Texture.h</text>
</a>
</g>
</g>
<!-- Node20&#45;&gt;Node28 -->
<g id="edge33" class="edge">
<title>Node20&#45;&gt;Node28</title>
<path fill="none" stroke="midnightblue" d="M715.11,-296.94C762.92,-286.33 845.14,-268.09 903.15,-255.22"/>
<polygon fill="midnightblue" stroke="midnightblue" points="903.96,-258.63 912.96,-253.04 902.44,-251.79 903.96,-258.63"/>
</g>
<!-- Node28&#45;&gt;Node15 -->
<g id="edge36" class="edge">
<title>Node28&#45;&gt;Node15</title>
<path fill="none" stroke="midnightblue" d="M953.61,-224.19C944.35,-214.86 933.37,-201.86 927.5,-188 904.66,-134.02 905.23,-62.89 907.06,-29.63"/>
<polygon fill="midnightblue" stroke="midnightblue" points="910.56,-29.75 907.73,-19.54 903.58,-29.29 910.56,-29.75"/>
</g>
<!-- Node28&#45;&gt;Node21 -->
<g id="edge35" class="edge">
<title>Node28&#45;&gt;Node21</title>
<path fill="none" stroke="midnightblue" d="M912.9,-230.02C897.54,-227.88 880.9,-225.71 865.5,-224 673.13,-202.63 624.12,-206.96 431.5,-188 415.58,-186.43 397.89,-184.44 383.29,-182.73"/>
<polygon fill="midnightblue" stroke="midnightblue" points="383.62,-179.24 373.27,-181.54 382.79,-186.2 383.62,-179.24"/>
</g>
<!-- Node28&#45;&gt;Node23 -->
<g id="edge40" class="edge">
<title>Node28&#45;&gt;Node23</title>
<path fill="none" stroke="midnightblue" d="M912.86,-230.35C897.5,-228.21 880.87,-225.95 865.5,-224 737.9,-207.8 586.66,-191.22 514.66,-183.48"/>
<polygon fill="midnightblue" stroke="midnightblue" points="514.94,-179.99 504.63,-182.41 514.2,-186.95 514.94,-179.99"/>
</g>
<!-- Node28&#45;&gt;Node24 -->
<g id="edge41" class="edge">
<title>Node28&#45;&gt;Node24</title>
<path fill="none" stroke="midnightblue" d="M912.96,-226.73C908.07,-225.78 903.2,-224.86 898.5,-224 802.83,-206.52 776.06,-205.31 676.39,-188.12"/>
<polygon fill="midnightblue" stroke="midnightblue" points="676.97,-184.66 666.52,-186.4 675.77,-191.56 676.97,-184.66"/>
</g>
<!-- Node29 -->
<g id="node29" class="node">
<title>Node29</title>
<g id="a_node29"><a xlink:title=" ">
<polygon fill="white" stroke="#bfbfbf" points="684.5,-168.5 684.5,-187.5 754.5,-187.5 754.5,-168.5 684.5,-168.5"/>
<text text-anchor="middle" x="719.5" y="-175.5" font-family="Helvetica,sans-Serif" font-size="10.00">stb_image.h</text>
</a>
</g>
</g>
<!-- Node28&#45;&gt;Node29 -->
<g id="edge34" class="edge">
<title>Node28&#45;&gt;Node29</title>
<path fill="none" stroke="midnightblue" d="M912.77,-225C867.92,-214.32 806.15,-199.62 764.63,-189.74"/>
<polygon fill="midnightblue" stroke="midnightblue" points="765.33,-186.31 754.79,-187.4 763.7,-193.12 765.33,-186.31"/>
</g>
<!-- Node30 -->
<g id="node30" class="node">
<title>Node30</title>
<g id="a_node30"><a xlink:title=" ">
<polygon fill="white" stroke="#bfbfbf" points="773,-168.5 773,-187.5 880,-187.5 880,-168.5 773,-168.5"/>
<text text-anchor="middle" x="826.5" y="-175.5" font-family="Helvetica,sans-Serif" font-size="10.00">boost/filesystem.hpp</text>
</a>
</g>
</g>
<!-- Node28&#45;&gt;Node30 -->
<g id="edge37" class="edge">
<title>Node28&#45;&gt;Node30</title>
<path fill="none" stroke="midnightblue" d="M935.61,-224.4C911.62,-214.42 879.73,-201.15 856.62,-191.53"/>
<polygon fill="midnightblue" stroke="midnightblue" points="857.89,-188.27 847.31,-187.66 855.2,-194.73 857.89,-188.27"/>
</g>
<!-- Node31 -->
<g id="node31" class="node">
<title>Node31</title>
<g id="a_node31"><a xlink:title=" ">
<polygon fill="white" stroke="#bfbfbf" points="1028.5,-168.5 1028.5,-187.5 1102.5,-187.5 1102.5,-168.5 1028.5,-168.5"/>
<text text-anchor="middle" x="1065.5" y="-175.5" font-family="Helvetica,sans-Serif" font-size="10.00">glm/vec2.hpp</text>
</a>
</g>
</g>
<!-- Node28&#45;&gt;Node31 -->
<g id="edge38" class="edge">
<title>Node28&#45;&gt;Node31</title>
<path fill="none" stroke="midnightblue" d="M992.25,-224.4C1007.49,-214.95 1027.49,-202.56 1042.74,-193.11"/>
<polygon fill="midnightblue" stroke="midnightblue" points="1044.88,-195.9 1051.53,-187.66 1041.19,-189.95 1044.88,-195.9"/>
</g>
<!-- Node32 -->
<g id="node32" class="node">
<title>Node32</title>
<g id="a_node32"><a xlink:title=" ">
<polygon fill="white" stroke="#bfbfbf" points="936.5,-168.5 936.5,-187.5 1010.5,-187.5 1010.5,-168.5 936.5,-168.5"/>
<text text-anchor="middle" x="973.5" y="-175.5" font-family="Helvetica,sans-Serif" font-size="10.00">glm/vec3.hpp</text>
</a>
</g>
</g>
<!-- Node28&#45;&gt;Node32 -->
<g id="edge39" class="edge">
<title>Node28&#45;&gt;Node32</title>
<path fill="none" stroke="midnightblue" d="M970.45,-224.4C970.98,-216.47 971.65,-206.46 972.23,-197.86"/>
<polygon fill="midnightblue" stroke="midnightblue" points="975.74,-197.87 972.92,-187.66 968.76,-197.4 975.74,-197.87"/>
</g>
<!-- Node33&#45;&gt;Node15 -->
<g id="edge46" class="edge">
<title>Node33&#45;&gt;Node15</title>
<path fill="none" stroke="midnightblue" d="M291.21,-296.92C273.08,-289.07 249.59,-275.54 238.5,-255 231.95,-242.88 232,-236.15 238.5,-224 259.67,-184.44 281.62,-186.5 322.5,-168 519.28,-78.97 776.81,-31.83 871.5,-16.6"/>
<polygon fill="midnightblue" stroke="midnightblue" points="872.13,-20.04 881.45,-15.02 871.03,-13.13 872.13,-20.04"/>
</g>
<!-- Node33&#45;&gt;Node21 -->
<g id="edge44" class="edge">
<title>Node33&#45;&gt;Node21</title>
<path fill="none" stroke="midnightblue" d="M295.6,-296.99C279.34,-288.84 257.48,-274.84 247.5,-255 241.31,-242.69 239.92,-235.5 247.5,-224 263.84,-199.23 296.94,-188.04 321.64,-183.02"/>
<polygon fill="midnightblue" stroke="midnightblue" points="322.41,-186.44 331.63,-181.22 321.17,-179.55 322.41,-186.44"/>
</g>
<!-- Node33&#45;&gt;Node22 -->
<g id="edge43" class="edge">
<title>Node33&#45;&gt;Node22</title>
<path fill="none" stroke="midnightblue" d="M327.23,-296.73C341.45,-286.11 365.63,-268.05 382.74,-255.26"/>
<polygon fill="midnightblue" stroke="midnightblue" points="385.04,-257.92 390.95,-249.13 380.85,-252.31 385.04,-257.92"/>
</g>
<!-- Node34 -->
<g id="node34" class="node">
<title>Node34</title>
<g id="a_node34"><a xlink:title=" ">
<polygon fill="white" stroke="#bfbfbf" points="0,-230 0,-249 49,-249 49,-230 0,-230"/>
<text text-anchor="middle" x="24.5" y="-237" font-family="Helvetica,sans-Serif" font-size="10.00">fstream</text>
</a>
</g>
</g>
<!-- Node33&#45;&gt;Node34 -->
<g id="edge45" class="edge">
<title>Node33&#45;&gt;Node34</title>
<path fill="none" stroke="midnightblue" d="M287.58,-296.99C280.12,-294.88 272.04,-292.72 264.5,-291 173.46,-270.2 146.9,-281.98 57.5,-255 55.57,-254.42 53.6,-253.75 51.63,-253.03"/>
<polygon fill="midnightblue" stroke="midnightblue" points="52.6,-249.65 42.01,-249.13 49.97,-256.13 52.6,-249.65"/>
</g>
<!-- Node35 -->
<g id="node35" class="node">
<title>Node35</title>
<g id="a_node35"><a xlink:href="kryne-engine_2_utils_2_utils_8h.html" target="_top" xlink:title=" ">
<polygon fill="white" stroke="black" points="67,-224.5 67,-254.5 162,-254.5 162,-224.5 67,-224.5"/>
<text text-anchor="start" x="75" y="-242.5" font-family="Helvetica,sans-Serif" font-size="10.00">kryne&#45;engine/Utils</text>
<text text-anchor="middle" x="114.5" y="-231.5" font-family="Helvetica,sans-Serif" font-size="10.00">/Utils.h</text>
</a>
</g>
</g>
<!-- Node33&#45;&gt;Node35 -->
<g id="edge47" class="edge">
<title>Node33&#45;&gt;Node35</title>
<path fill="none" stroke="midnightblue" d="M288.81,-296.87C258,-286.9 206.55,-270.27 167.52,-257.64"/>
<polygon fill="midnightblue" stroke="midnightblue" points="168.47,-254.27 157.88,-254.53 166.32,-260.94 168.47,-254.27"/>
</g>
<!-- Node36 -->
<g id="node36" class="node">
<title>Node36</title>
<g id="a_node36"><a xlink:href="_string_utils_8hpp.html" target="_top" xlink:title=" ">
<polygon fill="white" stroke="black" points="62.5,-56.5 62.5,-75.5 142.5,-75.5 142.5,-56.5 62.5,-56.5"/>
<text text-anchor="middle" x="102.5" y="-63.5" font-family="Helvetica,sans-Serif" font-size="10.00">StringUtils.hpp</text>
</a>
</g>
</g>
<!-- Node35&#45;&gt;Node36 -->
<g id="edge48" class="edge">
<title>Node35&#45;&gt;Node36</title>
<path fill="none" stroke="midnightblue" d="M91.42,-224.34C78.73,-215.41 63.73,-202.78 54.5,-188 40.91,-166.24 43.63,-157.46 40.5,-132 39.41,-123.18 36.46,-119.92 40.5,-112 47.5,-98.27 60.87,-87.75 73.4,-80.35"/>
<polygon fill="midnightblue" stroke="midnightblue" points="75.17,-83.37 82.28,-75.51 71.82,-77.22 75.17,-83.37"/>
</g>
<!-- Node37 -->
<g id="node37" class="node">
<title>Node37</title>
<g id="a_node37"><a xlink:href="_vector_mapping_8hpp.html" target="_top" xlink:title=" ">
<polygon fill="white" stroke="black" points="64,-168.5 64,-187.5 165,-187.5 165,-168.5 64,-168.5"/>
<text text-anchor="middle" x="114.5" y="-175.5" font-family="Helvetica,sans-Serif" font-size="10.00">VectorMapping.hpp</text>
</a>
</g>
</g>
<!-- Node35&#45;&gt;Node37 -->
<g id="edge50" class="edge">
<title>Node35&#45;&gt;Node37</title>
<path fill="none" stroke="midnightblue" d="M114.5,-224.4C114.5,-216.47 114.5,-206.46 114.5,-197.86"/>
<polygon fill="midnightblue" stroke="midnightblue" points="118,-197.66 114.5,-187.66 111,-197.66 118,-197.66"/>
</g>
<!-- Node36&#45;&gt;Node15 -->
<g id="edge49" class="edge">
<title>Node36&#45;&gt;Node15</title>
<path fill="none" stroke="midnightblue" d="M142.75,-62.3C281.33,-53.02 737.61,-22.45 871.35,-13.49"/>
<polygon fill="midnightblue" stroke="midnightblue" points="871.75,-16.97 881.49,-12.81 871.28,-9.99 871.75,-16.97"/>
</g>
<!-- Node38 -->
<g id="node38" class="node">
<title>Node38</title>
<g id="a_node38"><a xlink:title=" ">
<polygon fill="white" stroke="#bfbfbf" points="181.5,-112.5 181.5,-131.5 223.5,-131.5 223.5,-112.5 181.5,-112.5"/>
<text text-anchor="middle" x="202.5" y="-119.5" font-family="Helvetica,sans-Serif" font-size="10.00">vector</text>
</a>
</g>
</g>
<!-- Node37&#45;&gt;Node38 -->
<g id="edge51" class="edge">
<title>Node37&#45;&gt;Node38</title>
<path fill="none" stroke="midnightblue" d="M128.64,-168.32C142.37,-159.9 163.44,-146.97 179.56,-137.07"/>
<polygon fill="midnightblue" stroke="midnightblue" points="181.7,-139.87 188.4,-131.65 178.04,-133.9 181.7,-139.87"/>
</g>
<!-- Node39 -->
<g id="node39" class="node">
<title>Node39</title>
<g id="a_node39"><a xlink:title=" ">
<polygon fill="white" stroke="#bfbfbf" points="50,-112.5 50,-131.5 163,-131.5 163,-112.5 50,-112.5"/>
<text text-anchor="middle" x="106.5" y="-119.5" font-family="Helvetica,sans-Serif" font-size="10.00">glm/detail/qualifier.hpp</text>
</a>
</g>
</g>
<!-- Node37&#45;&gt;Node39 -->
<g id="edge52" class="edge">
<title>Node37&#45;&gt;Node39</title>
<path fill="none" stroke="midnightblue" d="M113.18,-168.08C112.12,-160.93 110.59,-150.64 109.27,-141.69"/>
<polygon fill="midnightblue" stroke="midnightblue" points="112.72,-141.13 107.8,-131.75 105.8,-142.16 112.72,-141.13"/>
</g>
<!-- Node40&#45;&gt;Node6 -->
<g id="edge62" class="edge">
<title>Node40&#45;&gt;Node6</title>
<path fill="none" stroke="midnightblue" d="M1119.19,-358.4C1137,-348.98 1160.62,-336.5 1180.01,-326.26"/>
<polygon fill="midnightblue" stroke="midnightblue" points="1181.66,-329.34 1188.86,-321.58 1178.39,-323.15 1181.66,-329.34"/>
</g>
<!-- Node40&#45;&gt;Node14 -->
<g id="edge55" class="edge">
<title>Node40&#45;&gt;Node14</title>
<path fill="none" stroke="midnightblue" d="M1151.53,-362.66C1250.82,-344.41 1440.5,-301.56 1440.5,-240.5 1440.5,-240.5 1440.5,-240.5 1440.5,-121 1440.5,-88.95 1440.5,-51.64 1440.5,-29.75"/>
<polygon fill="midnightblue" stroke="midnightblue" points="1444,-29.56 1440.5,-19.56 1437,-29.56 1444,-29.56"/>
</g>
<!-- Node40&#45;&gt;Node15 -->
<g id="edge56" class="edge">
<title>Node40&#45;&gt;Node15</title>
<path fill="none" stroke="midnightblue" d="M1098.6,-358.44C1112.61,-323.94 1143.47,-233.14 1111.5,-168 1075.4,-94.44 986.39,-45.54 939.13,-23.84"/>
<polygon fill="midnightblue" stroke="midnightblue" points="940.27,-20.51 929.72,-19.62 937.41,-26.9 940.27,-20.51"/>
</g>
<!-- Node40&#45;&gt;Node22 -->
<g id="edge57" class="edge">
<title>Node40&#45;&gt;Node22</title>
<path fill="none" stroke="midnightblue" d="M1033.44,-370.97C943.12,-367.57 765.75,-356.68 619.5,-322 548.96,-305.27 470.24,-271.73 429.79,-253.32"/>
<polygon fill="midnightblue" stroke="midnightblue" points="431.13,-250.09 420.58,-249.09 428.21,-256.45 431.13,-250.09"/>
</g>
<!-- Node40&#45;&gt;Node31 -->
<g id="edge59" class="edge">
<title>Node40&#45;&gt;Node31</title>
<path fill="none" stroke="midnightblue" d="M1090.51,-358.27C1085.72,-323.94 1073.53,-236.57 1068.14,-197.9"/>
<polygon fill="midnightblue" stroke="midnightblue" points="1071.55,-197 1066.7,-187.58 1064.61,-197.96 1071.55,-197"/>
</g>
<!-- Node40&#45;&gt;Node32 -->
<g id="edge60" class="edge">
<title>Node40&#45;&gt;Node32</title>
<path fill="none" stroke="midnightblue" d="M1088.12,-358.43C1077.78,-325.82 1051.5,-246.19 1034.5,-224 1024.87,-211.43 1010.82,-200.73 998.62,-192.93"/>
<polygon fill="midnightblue" stroke="midnightblue" points="1000.13,-189.75 989.77,-187.54 996.49,-195.73 1000.13,-189.75"/>
</g>
<!-- Node41 -->
<g id="node41" class="node">
<title>Node41</title>
<g id="a_node41"><a xlink:title=" ">
<polygon fill="white" stroke="#bfbfbf" points="1468.5,-297 1468.5,-316 1524.5,-316 1524.5,-297 1468.5,-297"/>
<text text-anchor="middle" x="1496.5" y="-304" font-family="Helvetica,sans-Serif" font-size="10.00">algorithm</text>
</a>
</g>
</g>
<!-- Node40&#45;&gt;Node41 -->
<g id="edge54" class="edge">
<title>Node40&#45;&gt;Node41</title>
<path fill="none" stroke="midnightblue" d="M1151.78,-367.78C1224.02,-361.22 1349.45,-347.21 1454.5,-322 1457.73,-321.23 1461.05,-320.3 1464.36,-319.3"/>
<polygon fill="midnightblue" stroke="midnightblue" points="1465.64,-322.56 1474.07,-316.14 1463.48,-315.91 1465.64,-322.56"/>
</g>
<!-- Node42 -->
<g id="node42" class="node">
<title>Node42</title>
<g id="a_node42"><a xlink:title=" ">
<polygon fill="white" stroke="#bfbfbf" points="1542.5,-297 1542.5,-316 1600.5,-316 1600.5,-297 1542.5,-297"/>
<text text-anchor="middle" x="1571.5" y="-304" font-family="Helvetica,sans-Serif" font-size="10.00">functional</text>
</a>
</g>
</g>
<!-- Node40&#45;&gt;Node42 -->
<g id="edge58" class="edge">
<title>Node40&#45;&gt;Node42</title>
<path fill="none" stroke="midnightblue" d="M1151.82,-370.42C1237.28,-366.36 1399.49,-354.69 1533.5,-322 1536.33,-321.31 1539.23,-320.47 1542.12,-319.53"/>
<polygon fill="midnightblue" stroke="midnightblue" points="1543.43,-322.78 1551.68,-316.14 1541.09,-316.19 1543.43,-322.78"/>
</g>
<!-- Node43 -->
<g id="node43" class="node">
<title>Node43</title>
<g id="a_node43"><a xlink:title=" ">
<polygon fill="white" stroke="#bfbfbf" points="929,-297 929,-316 1026,-316 1026,-297 929,-297"/>
<text text-anchor="middle" x="977.5" y="-304" font-family="Helvetica,sans-Serif" font-size="10.00">glm/geometric.hpp</text>
</a>
</g>
</g>
<!-- Node40&#45;&gt;Node43 -->
<g id="edge61" class="edge">
<title>Node40&#45;&gt;Node43</title>
<path fill="none" stroke="midnightblue" d="M1067.55,-358.4C1047.9,-347.29 1020.71,-331.92 1001.35,-320.98"/>
<polygon fill="midnightblue" stroke="midnightblue" points="1002.98,-317.88 992.55,-316.01 999.53,-323.97 1002.98,-317.88"/>
</g>
<!-- Node44 -->
<g id="node44" class="node">
<title>Node44</title>
<g id="a_node44"><a xlink:href="_buffer_attribute_8h.html" target="_top" xlink:title=" ">
<polygon fill="white" stroke="black" points="256.5,-230 256.5,-249 342.5,-249 342.5,-230 256.5,-230"/>
<text text-anchor="middle" x="299.5" y="-237" font-family="Helvetica,sans-Serif" font-size="10.00">BufferAttribute.h</text>
</a>
</g>
</g>
<!-- Node40&#45;&gt;Node44 -->
<g id="edge63" class="edge">
<title>Node40&#45;&gt;Node44</title>
<path fill="none" stroke="midnightblue" d="M1033.14,-372.45C928.2,-371.22 703.64,-363.44 519.5,-322 447.73,-305.85 367.73,-271.92 326.83,-253.34"/>
<polygon fill="midnightblue" stroke="midnightblue" points="328.09,-250.07 317.54,-249.07 325.17,-256.43 328.09,-250.07"/>
</g>
<!-- Node44&#45;&gt;Node21 -->
<g id="edge65" class="edge">
<title>Node44&#45;&gt;Node21</title>
<path fill="none" stroke="midnightblue" d="M307.09,-229.98C315.2,-220.87 328.23,-206.24 338.26,-194.98"/>
<polygon fill="midnightblue" stroke="midnightblue" points="340.88,-197.3 344.92,-187.51 335.66,-192.65 340.88,-197.3"/>
</g>
<!-- Node44&#45;&gt;Node23 -->
<g id="edge66" class="edge">
<title>Node44&#45;&gt;Node23</title>
<path fill="none" stroke="midnightblue" d="M324.29,-229.98C354.09,-219.72 404.29,-202.46 437.9,-190.9"/>
<polygon fill="midnightblue" stroke="midnightblue" points="439.44,-194.07 447.76,-187.51 437.16,-187.45 439.44,-194.07"/>
</g>
<!-- Node44&#45;&gt;Node24 -->
<g id="edge67" class="edge">
<title>Node44&#45;&gt;Node24</title>
<path fill="none" stroke="midnightblue" d="M327.97,-229.95C335.57,-227.84 343.81,-225.69 351.5,-224 430.12,-206.69 522.68,-192.92 578.14,-185.37"/>
<polygon fill="midnightblue" stroke="midnightblue" points="578.95,-188.8 588.39,-183.99 578.01,-181.86 578.95,-188.8"/>
</g>
<!-- Node44&#45;&gt;Node38 -->
<g id="edge64" class="edge">
<title>Node44&#45;&gt;Node38</title>
<path fill="none" stroke="midnightblue" d="M292.21,-229.82C276.13,-210.67 237.39,-164.54 216.47,-139.63"/>
<polygon fill="midnightblue" stroke="midnightblue" points="218.99,-137.19 209.88,-131.78 213.63,-141.69 218.99,-137.19"/>
</g>
</g>
</svg>
