<?xml version="1.0" encoding="UTF-8" standalone="no"?>
<!DOCTYPE svg PUBLIC "-//W3C//DTD SVG 1.1//EN"
 "http://www.w3.org/Graphics/SVG/1.1/DTD/svg11.dtd">
<!-- Generated by graphviz version 2.44.1 (20200629.0846)
 -->
<!-- Title: kryne&#45;engine/include/kryne&#45;engine/Rendering/ShadowMapping/ShadowMapHandler.h Pages: 1 -->
<svg width="1600pt" height="430pt"
 viewBox="0.00 0.00 1599.50 430.00" xmlns="http://www.w3.org/2000/svg" xmlns:xlink="http://www.w3.org/1999/xlink">
<g id="graph0" class="graph" transform="scale(1 1) rotate(0) translate(4 426)">
<title>kryne&#45;engine/include/kryne&#45;engine/Rendering/ShadowMapping/ShadowMapHandler.h</title>
<polygon fill="white" stroke="transparent" points="-4,4 -4,-426 1595.5,-426 1595.5,4 -4,4"/>
<!-- Node1 -->
<g id="node1" class="node">
<title>Node1</title>
<g id="a_node1"><a xlink:title=" ">
<polygon fill="#bfbfbf" stroke="black" points="1020.5,-380.5 1020.5,-421.5 1208.5,-421.5 1208.5,-380.5 1020.5,-380.5"/>
<text text-anchor="start" x="1028.5" y="-409.5" font-family="Helvetica,sans-Serif" font-size="10.00">kryne&#45;engine/include</text>
<text text-anchor="start" x="1028.5" y="-398.5" font-family="Helvetica,sans-Serif" font-size="10.00">/kryne&#45;engine/Rendering</text>
<text text-anchor="middle" x="1114.5" y="-387.5" font-family="Helvetica,sans-Serif" font-size="10.00">/ShadowMapping/ShadowMapHandler.h</text>
</a>
</g>
</g>
<!-- Node2 -->
<g id="node2" class="node">
<title>Node2</title>
<g id="a_node2"><a xlink:href="_window_8h.html" target="_top" xlink:title=" ">
<polygon fill="white" stroke="black" points="384,-185 384,-204 525,-204 525,-185 384,-185"/>
<text text-anchor="middle" x="454.5" y="-192" font-family="Helvetica,sans-Serif" font-size="10.00">kryne&#45;engine/Core/Window.h</text>
</a>
</g>
</g>
<!-- Node1&#45;&gt;Node2 -->
<g id="edge1" class="edge">
<title>Node1&#45;&gt;Node2</title>
<path fill="none" stroke="midnightblue" d="M1025.4,-380.49C982.28,-370.52 929.93,-357.63 883.5,-344 733.22,-299.88 557.74,-234.77 486.74,-207.85"/>
<polygon fill="midnightblue" stroke="midnightblue" points="487.63,-204.44 477.04,-204.16 485.15,-210.99 487.63,-204.44"/>
</g>
<!-- Node11 -->
<g id="node11" class="node">
<title>Node11</title>
<g id="a_node11"><a xlink:title=" ">
<polygon fill="white" stroke="#bfbfbf" points="1473,-56.5 1473,-75.5 1508,-75.5 1508,-56.5 1473,-56.5"/>
<text text-anchor="middle" x="1490.5" y="-63.5" font-family="Helvetica,sans-Serif" font-size="10.00">map</text>
</a>
</g>
</g>
<!-- Node1&#45;&gt;Node11 -->
<g id="edge72" class="edge">
<title>Node1&#45;&gt;Node11</title>
<path fill="none" stroke="midnightblue" d="M1208.55,-391.2C1343.63,-375.92 1576.5,-338.55 1576.5,-262.5 1576.5,-262.5 1576.5,-262.5 1576.5,-193.5 1576.5,-156.31 1578.63,-142.61 1557.5,-112 1547.54,-97.57 1531.31,-86.5 1517.32,-78.94"/>
<polygon fill="midnightblue" stroke="midnightblue" points="1518.6,-75.67 1508.09,-74.28 1515.44,-81.92 1518.6,-75.67"/>
</g>
<!-- Node20 -->
<g id="node20" class="node">
<title>Node20</title>
<g id="a_node20"><a xlink:href="_hierarchical_node_8h.html" target="_top" xlink:title=" ">
<polygon fill="white" stroke="black" points="892,-313.5 892,-343.5 1013,-343.5 1013,-313.5 892,-313.5"/>
<text text-anchor="start" x="900" y="-331.5" font-family="Helvetica,sans-Serif" font-size="10.00">kryne&#45;engine/3DObjects</text>
<text text-anchor="middle" x="952.5" y="-320.5" font-family="Helvetica,sans-Serif" font-size="10.00">/HierarchicalNode.h</text>
</a>
</g>
</g>
<!-- Node1&#45;&gt;Node20 -->
<g id="edge23" class="edge">
<title>Node1&#45;&gt;Node20</title>
<path fill="none" stroke="midnightblue" d="M1069.37,-380.36C1045.76,-370.08 1017.04,-357.59 993.99,-347.55"/>
<polygon fill="midnightblue" stroke="midnightblue" points="995.37,-344.34 984.81,-343.56 992.58,-350.76 995.37,-344.34"/>
</g>
<!-- Node35 -->
<g id="node35" class="node">
<title>Node35</title>
<g id="a_node35"><a xlink:href="_lighting_registry_8h.html" target="_top" xlink:title=" ">
<polygon fill="white" stroke="black" points="1177.5,-246.5 1177.5,-276.5 1275.5,-276.5 1275.5,-246.5 1177.5,-246.5"/>
<text text-anchor="start" x="1185.5" y="-264.5" font-family="Helvetica,sans-Serif" font-size="10.00">kryne&#45;engine/Light</text>
<text text-anchor="middle" x="1226.5" y="-253.5" font-family="Helvetica,sans-Serif" font-size="10.00">/LightingRegistry.h</text>
</a>
</g>
</g>
<!-- Node1&#45;&gt;Node35 -->
<g id="edge61" class="edge">
<title>Node1&#45;&gt;Node35</title>
<path fill="none" stroke="midnightblue" d="M1162.7,-380.46C1179.13,-371.59 1196.19,-359.55 1207.5,-344 1219.56,-327.42 1224.1,-304.36 1225.74,-287"/>
<polygon fill="midnightblue" stroke="midnightblue" points="1229.27,-286.75 1226.45,-276.54 1222.28,-286.28 1229.27,-286.75"/>
</g>
<!-- Node40 -->
<g id="node40" class="node">
<title>Node40</title>
<g id="a_node40"><a xlink:href="_directional_shadow_map_rendering_8h.html" target="_top" xlink:title=" ">
<polygon fill="white" stroke="black" points="1031,-319 1031,-338 1198,-338 1198,-319 1031,-319"/>
<text text-anchor="middle" x="1114.5" y="-326" font-family="Helvetica,sans-Serif" font-size="10.00">DirectionalShadowMapRendering.h</text>
</a>
</g>
</g>
<!-- Node1&#45;&gt;Node40 -->
<g id="edge73" class="edge">
<title>Node1&#45;&gt;Node40</title>
<path fill="none" stroke="midnightblue" d="M1114.5,-380.36C1114.5,-370.3 1114.5,-358.1 1114.5,-348.18"/>
<polygon fill="midnightblue" stroke="midnightblue" points="1118,-348.17 1114.5,-338.17 1111,-348.17 1118,-348.17"/>
</g>
<!-- Node3 -->
<g id="node3" class="node">
<title>Node3</title>
<g id="a_node3"><a xlink:title=" ">
<polygon fill="white" stroke="#bfbfbf" points="978.5,-56.5 978.5,-75.5 1020.5,-75.5 1020.5,-56.5 978.5,-56.5"/>
<text text-anchor="middle" x="999.5" y="-63.5" font-family="Helvetica,sans-Serif" font-size="10.00">vector</text>
</a>
</g>
</g>
<!-- Node2&#45;&gt;Node3 -->
<g id="edge2" class="edge">
<title>Node2&#45;&gt;Node3</title>
<path fill="none" stroke="midnightblue" d="M525.11,-192.38C590.16,-188.99 688.05,-177.83 765.5,-143 785.38,-134.06 783.86,-121.46 803.5,-112 868.72,-80.58 894.29,-93.66 968.46,-76.03"/>
<polygon fill="midnightblue" stroke="midnightblue" points="969.39,-79.41 978.25,-73.6 967.7,-72.62 969.39,-79.41"/>
</g>
<!-- Node4 -->
<g id="node4" class="node">
<title>Node4</title>
<g id="a_node4"><a xlink:title=" ">
<polygon fill="white" stroke="#bfbfbf" points="105.5,-118 105.5,-137 183.5,-137 183.5,-118 105.5,-118"/>
<text text-anchor="middle" x="144.5" y="-125" font-family="Helvetica,sans-Serif" font-size="10.00">unordered_set</text>
</a>
</g>
</g>
<!-- Node2&#45;&gt;Node4 -->
<g id="edge3" class="edge">
<title>Node2&#45;&gt;Node4</title>
<path fill="none" stroke="midnightblue" d="M407.23,-184.99C343.25,-173.37 232.47,-152.86 192.5,-143 188.66,-142.05 184.68,-140.99 180.72,-139.87"/>
<polygon fill="midnightblue" stroke="midnightblue" points="181.6,-136.48 171.02,-137.04 179.64,-143.2 181.6,-136.48"/>
</g>
<!-- Node5 -->
<g id="node5" class="node">
<title>Node5</title>
<g id="a_node5"><a xlink:title=" ">
<polygon fill="white" stroke="#bfbfbf" points="0,-118 0,-137 49,-137 49,-118 0,-118"/>
<text text-anchor="middle" x="24.5" y="-125" font-family="Helvetica,sans-Serif" font-size="10.00">cstdarg</text>
</a>
</g>
</g>
<!-- Node2&#45;&gt;Node5 -->
<g id="edge4" class="edge">
<title>Node2&#45;&gt;Node5</title>
<path fill="none" stroke="midnightblue" d="M406.92,-184.94C394.74,-182.87 381.65,-180.75 369.5,-179 233.96,-159.48 196.63,-175.09 63.5,-143 60.51,-142.28 57.43,-141.4 54.38,-140.42"/>
<polygon fill="midnightblue" stroke="midnightblue" points="55.45,-137.09 44.86,-137.11 53.15,-143.7 55.45,-137.09"/>
</g>
<!-- Node6 -->
<g id="node6" class="node">
<title>Node6</title>
<g id="a_node6"><a xlink:title=" ">
<polygon fill="white" stroke="#bfbfbf" points="202,-118 202,-137 247,-137 247,-118 202,-118"/>
<text text-anchor="middle" x="224.5" y="-125" font-family="Helvetica,sans-Serif" font-size="10.00">cstdlib</text>
</a>
</g>
</g>
<!-- Node2&#45;&gt;Node6 -->
<g id="edge5" class="edge">
<title>Node2&#45;&gt;Node6</title>
<path fill="none" stroke="midnightblue" d="M416.4,-184.93C377.19,-175.78 314.52,-160.26 261.5,-143 259.23,-142.26 256.9,-141.46 254.56,-140.62"/>
<polygon fill="midnightblue" stroke="midnightblue" points="255.68,-137.3 245.09,-137.06 253.22,-143.85 255.68,-137.3"/>
</g>
<!-- Node7 -->
<g id="node7" class="node">
<title>Node7</title>
<g id="a_node7"><a xlink:title=" ">
<polygon fill="white" stroke="#bfbfbf" points="229.5,-0.5 229.5,-19.5 283.5,-19.5 283.5,-0.5 229.5,-0.5"/>
<text text-anchor="middle" x="256.5" y="-7.5" font-family="Helvetica,sans-Serif" font-size="10.00">iostream</text>
</a>
</g>
</g>
<!-- Node2&#45;&gt;Node7 -->
<g id="edge6" class="edge">
<title>Node2&#45;&gt;Node7</title>
<path fill="none" stroke="midnightblue" d="M415.19,-184.98C374.91,-175.52 315.91,-159.41 299.5,-143 268.49,-111.99 259.84,-58.39 257.43,-29.97"/>
<polygon fill="midnightblue" stroke="midnightblue" points="260.91,-29.52 256.75,-19.78 253.92,-29.99 260.91,-29.52"/>
</g>
<!-- Node8 -->
<g id="node8" class="node">
<title>Node8</title>
<g id="a_node8"><a xlink:title=" ">
<polygon fill="white" stroke="#bfbfbf" points="338.5,-0.5 338.5,-19.5 402.5,-19.5 402.5,-0.5 338.5,-0.5"/>
<text text-anchor="middle" x="370.5" y="-7.5" font-family="Helvetica,sans-Serif" font-size="10.00">glad/glad.h</text>
</a>
</g>
</g>
<!-- Node2&#45;&gt;Node8 -->
<g id="edge7" class="edge">
<title>Node2&#45;&gt;Node8</title>
<path fill="none" stroke="midnightblue" d="M406.45,-184.98C394.4,-182.93 381.49,-180.81 369.5,-179 309,-169.85 136.84,-189.01 96.5,-143 26.54,-63.21 235.28,-27.35 328.26,-15.62"/>
<polygon fill="midnightblue" stroke="midnightblue" points="328.7,-19.09 338.2,-14.4 327.85,-12.14 328.7,-19.09"/>
</g>
<!-- Node9 -->
<g id="node9" class="node">
<title>Node9</title>
<g id="a_node9"><a xlink:title=" ">
<polygon fill="white" stroke="#bfbfbf" points="569.5,-0.5 569.5,-19.5 647.5,-19.5 647.5,-0.5 569.5,-0.5"/>
<text text-anchor="middle" x="608.5" y="-7.5" font-family="Helvetica,sans-Serif" font-size="10.00">GLFW/glfw3.h</text>
</a>
</g>
</g>
<!-- Node2&#45;&gt;Node9 -->
<g id="edge8" class="edge">
<title>Node2&#45;&gt;Node9</title>
<path fill="none" stroke="midnightblue" d="M437.73,-184.89C423.26,-176.42 403.35,-162.01 394.5,-143 378.19,-107.94 370.13,-86.02 394.5,-56 414.83,-30.95 502.45,-19.33 559.08,-14.35"/>
<polygon fill="midnightblue" stroke="midnightblue" points="559.6,-17.82 569.27,-13.49 559.01,-10.84 559.6,-17.82"/>
</g>
<!-- Node10 -->
<g id="node10" class="node">
<title>Node10</title>
<g id="a_node10"><a xlink:href="_additional_parameters_8h.html" target="_top" xlink:title=" ">
<polygon fill="white" stroke="black" points="1228.5,-118 1228.5,-137 1346.5,-137 1346.5,-118 1228.5,-118"/>
<text text-anchor="middle" x="1287.5" y="-125" font-family="Helvetica,sans-Serif" font-size="10.00">AdditionalParameters.h</text>
</a>
</g>
</g>
<!-- Node2&#45;&gt;Node10 -->
<g id="edge9" class="edge">
<title>Node2&#45;&gt;Node10</title>
<path fill="none" stroke="midnightblue" d="M525.16,-187.99C682.86,-175.68 1061.91,-146.1 1218.27,-133.9"/>
<polygon fill="midnightblue" stroke="midnightblue" points="1218.54,-137.39 1228.24,-133.12 1218,-130.41 1218.54,-137.39"/>
</g>
<!-- Node14 -->
<g id="node14" class="node">
<title>Node14</title>
<g id="a_node14"><a xlink:href="_old_camera_8h.html" target="_top" xlink:title=" ">
<polygon fill="white" stroke="black" points="502,-112.5 502,-142.5 611,-142.5 611,-112.5 502,-112.5"/>
<text text-anchor="start" x="510" y="-130.5" font-family="Helvetica,sans-Serif" font-size="10.00">kryne&#45;engine/Camera</text>
<text text-anchor="middle" x="556.5" y="-119.5" font-family="Helvetica,sans-Serif" font-size="10.00">/OldCamera.h</text>
</a>
</g>
</g>
<!-- Node2&#45;&gt;Node14 -->
<g id="edge13" class="edge">
<title>Node2&#45;&gt;Node14</title>
<path fill="none" stroke="midnightblue" d="M463.47,-184.73C476.26,-175.32 499.74,-160.05 519.98,-147.8"/>
<polygon fill="midnightblue" stroke="midnightblue" points="521.92,-150.72 528.71,-142.59 518.33,-144.71 521.92,-150.72"/>
</g>
<!-- Node10&#45;&gt;Node11 -->
<g id="edge10" class="edge">
<title>Node10&#45;&gt;Node11</title>
<path fill="none" stroke="midnightblue" d="M1316.58,-117.98C1355.67,-106.52 1424.64,-86.3 1462.93,-75.08"/>
<polygon fill="midnightblue" stroke="midnightblue" points="1464.25,-78.34 1472.87,-72.17 1462.28,-71.62 1464.25,-78.34"/>
</g>
<!-- Node12 -->
<g id="node12" class="node">
<title>Node12</title>
<g id="a_node12"><a xlink:title=" ">
<polygon fill="white" stroke="#bfbfbf" points="1426,-0.5 1426,-19.5 1467,-19.5 1467,-0.5 1426,-0.5"/>
<text text-anchor="middle" x="1446.5" y="-7.5" font-family="Helvetica,sans-Serif" font-size="10.00">string</text>
</a>
</g>
</g>
<!-- Node10&#45;&gt;Node12 -->
<g id="edge11" class="edge">
<title>Node10&#45;&gt;Node12</title>
<path fill="none" stroke="midnightblue" d="M1320.58,-118C1356.5,-108.16 1410.73,-91.35 1425.5,-76 1437.44,-63.59 1442.59,-44.35 1444.81,-30.02"/>
<polygon fill="midnightblue" stroke="midnightblue" points="1448.32,-30.15 1446.04,-19.8 1441.37,-29.31 1448.32,-30.15"/>
</g>
<!-- Node13 -->
<g id="node13" class="node">
<title>Node13</title>
<g id="a_node13"><a xlink:title=" ">
<polygon fill="white" stroke="#bfbfbf" points="1168.5,-56.5 1168.5,-75.5 1200.5,-75.5 1200.5,-56.5 1168.5,-56.5"/>
<text text-anchor="middle" x="1184.5" y="-63.5" font-family="Helvetica,sans-Serif" font-size="10.00">any</text>
</a>
</g>
</g>
<!-- Node10&#45;&gt;Node13 -->
<g id="edge12" class="edge">
<title>Node10&#45;&gt;Node13</title>
<path fill="none" stroke="midnightblue" d="M1272.74,-117.98C1255.84,-108.21 1227.92,-92.08 1208.01,-80.58"/>
<polygon fill="midnightblue" stroke="midnightblue" points="1209.64,-77.48 1199.23,-75.51 1206.14,-83.54 1209.64,-77.48"/>
</g>
<!-- Node14&#45;&gt;Node2 -->
<g id="edge22" class="edge">
<title>Node14&#45;&gt;Node2</title>
<path fill="none" stroke="midnightblue" d="M540.07,-142.59C524.3,-153.55 500.54,-168.69 481.96,-179.6"/>
<polygon fill="midnightblue" stroke="midnightblue" points="479.97,-176.71 473.04,-184.73 483.46,-182.78 479.97,-176.71"/>
</g>
<!-- Node14&#45;&gt;Node3 -->
<g id="edge14" class="edge">
<title>Node14&#45;&gt;Node3</title>
<path fill="none" stroke="midnightblue" d="M611.23,-113.65C614.36,-113.05 617.46,-112.5 620.5,-112 771.07,-87.27 814.72,-105.71 968.06,-75.93"/>
<polygon fill="midnightblue" stroke="midnightblue" points="969.19,-79.27 978.32,-73.89 967.83,-72.4 969.19,-79.27"/>
</g>
<!-- Node14&#45;&gt;Node8 -->
<g id="edge17" class="edge">
<title>Node14&#45;&gt;Node8</title>
<path fill="none" stroke="midnightblue" d="M504.39,-112.41C479.7,-104.21 450.63,-92.24 427.5,-76 408.96,-62.98 392.47,-42.72 382.05,-28.28"/>
<polygon fill="midnightblue" stroke="midnightblue" points="384.71,-25.98 376.13,-19.77 378.97,-29.97 384.71,-25.98"/>
</g>
<!-- Node14&#45;&gt;Node9 -->
<g id="edge18" class="edge">
<title>Node14&#45;&gt;Node9</title>
<path fill="none" stroke="midnightblue" d="M567.53,-112.14C574.6,-102.38 583.54,-88.94 589.5,-76 596.42,-60.98 601.47,-42.85 604.62,-29.56"/>
<polygon fill="midnightblue" stroke="midnightblue" points="608.05,-30.22 606.81,-19.7 601.22,-28.7 608.05,-30.22"/>
</g>
<!-- Node15 -->
<g id="node15" class="node">
<title>Node15</title>
<g id="a_node15"><a xlink:title=" ">
<polygon fill="white" stroke="#bfbfbf" points="674.5,-56.5 674.5,-75.5 726.5,-75.5 726.5,-56.5 674.5,-56.5"/>
<text text-anchor="middle" x="700.5" y="-63.5" font-family="Helvetica,sans-Serif" font-size="10.00">stdarg.h</text>
</a>
</g>
</g>
<!-- Node14&#45;&gt;Node15 -->
<g id="edge15" class="edge">
<title>Node14&#45;&gt;Node15</title>
<path fill="none" stroke="midnightblue" d="M590.63,-112.4C614.79,-102.42 646.9,-89.15 670.17,-79.53"/>
<polygon fill="midnightblue" stroke="midnightblue" points="671.64,-82.71 679.55,-75.66 668.97,-76.24 671.64,-82.71"/>
</g>
<!-- Node16 -->
<g id="node16" class="node">
<title>Node16</title>
<g id="a_node16"><a xlink:title=" ">
<polygon fill="white" stroke="#bfbfbf" points="744.5,-56.5 744.5,-75.5 792.5,-75.5 792.5,-56.5 744.5,-56.5"/>
<text text-anchor="middle" x="768.5" y="-63.5" font-family="Helvetica,sans-Serif" font-size="10.00">stdlib.h</text>
</a>
</g>
</g>
<!-- Node14&#45;&gt;Node16 -->
<g id="edge16" class="edge">
<title>Node14&#45;&gt;Node16</title>
<path fill="none" stroke="midnightblue" d="M606.47,-112.47C646.03,-101.37 700.18,-86.17 734.76,-76.47"/>
<polygon fill="midnightblue" stroke="midnightblue" points="735.71,-79.84 744.4,-73.76 733.82,-73.1 735.71,-79.84"/>
</g>
<!-- Node17 -->
<g id="node17" class="node">
<title>Node17</title>
<g id="a_node17"><a xlink:title=" ">
<polygon fill="white" stroke="#bfbfbf" points="1076.5,-56.5 1076.5,-75.5 1150.5,-75.5 1150.5,-56.5 1076.5,-56.5"/>
<text text-anchor="middle" x="1113.5" y="-63.5" font-family="Helvetica,sans-Serif" font-size="10.00">glm/vec3.hpp</text>
</a>
</g>
</g>
<!-- Node14&#45;&gt;Node17 -->
<g id="edge19" class="edge">
<title>Node14&#45;&gt;Node17</title>
<path fill="none" stroke="midnightblue" d="M611.22,-113.59C614.35,-113.01 617.46,-112.48 620.5,-112 800.78,-83.78 847.88,-93.72 1029.5,-76 1041.35,-74.84 1054.14,-73.51 1066.08,-72.24"/>
<polygon fill="midnightblue" stroke="midnightblue" points="1066.73,-75.69 1076.3,-71.14 1065.98,-68.73 1066.73,-75.69"/>
</g>
<!-- Node18 -->
<g id="node18" class="node">
<title>Node18</title>
<g id="a_node18"><a xlink:title=" ">
<polygon fill="white" stroke="#bfbfbf" points="1005.5,-0.5 1005.5,-19.5 1091.5,-19.5 1091.5,-0.5 1005.5,-0.5"/>
<text text-anchor="middle" x="1048.5" y="-7.5" font-family="Helvetica,sans-Serif" font-size="10.00">glm/mat4x4.hpp</text>
</a>
</g>
</g>
<!-- Node14&#45;&gt;Node18 -->
<g id="edge20" class="edge">
<title>Node14&#45;&gt;Node18</title>
<path fill="none" stroke="midnightblue" d="M572.93,-112.37C593.21,-95.81 629.45,-68.98 665.5,-56 724.94,-34.6 904.9,-20.3 995.37,-14.26"/>
<polygon fill="midnightblue" stroke="midnightblue" points="995.67,-17.74 1005.42,-13.59 995.21,-10.76 995.67,-17.74"/>
</g>
<!-- Node19 -->
<g id="node19" class="node">
<title>Node19</title>
<g id="a_node19"><a xlink:title=" ">
<polygon fill="white" stroke="#bfbfbf" points="437,-56.5 437,-75.5 580,-75.5 580,-56.5 437,-56.5"/>
<text text-anchor="middle" x="508.5" y="-63.5" font-family="Helvetica,sans-Serif" font-size="10.00">glm/gtc/matrix_transform.hpp</text>
</a>
</g>
</g>
<!-- Node14&#45;&gt;Node19 -->
<g id="edge21" class="edge">
<title>Node14&#45;&gt;Node19</title>
<path fill="none" stroke="midnightblue" d="M545.12,-112.4C538.15,-103.75 529.19,-92.64 521.87,-83.58"/>
<polygon fill="midnightblue" stroke="midnightblue" points="524.49,-81.24 515.48,-75.66 519.04,-85.64 524.49,-81.24"/>
</g>
<!-- Node20&#45;&gt;Node5 -->
<g id="edge24" class="edge">
<title>Node20&#45;&gt;Node5</title>
<path fill="none" stroke="midnightblue" d="M891.66,-315.6C786.2,-294.88 562.7,-250.5 374.5,-210 243.06,-181.72 210.08,-175.03 79.5,-143 72.8,-141.36 65.66,-139.53 58.82,-137.74"/>
<polygon fill="midnightblue" stroke="midnightblue" points="59.66,-134.34 49.09,-135.18 57.87,-141.11 59.66,-134.34"/>
</g>
<!-- Node20&#45;&gt;Node10 -->
<g id="edge60" class="edge">
<title>Node20&#45;&gt;Node10</title>
<path fill="none" stroke="midnightblue" d="M977.01,-313.45C991.27,-304.39 1008.87,-291.59 1021.5,-277 1053.77,-239.72 1034.47,-209.13 1073.5,-179 1114.8,-147.12 1172.99,-134.89 1218.27,-130.41"/>
<polygon fill="midnightblue" stroke="midnightblue" points="1218.66,-133.89 1228.31,-129.52 1218.04,-126.92 1218.66,-133.89"/>
</g>
<!-- Node21 -->
<g id="node21" class="node">
<title>Node21</title>
<g id="a_node21"><a xlink:href="_render_pass_8h.html" target="_top" xlink:title=" ">
<polygon fill="white" stroke="black" points="893,-246.5 893,-276.5 1012,-276.5 1012,-246.5 893,-246.5"/>
<text text-anchor="start" x="901" y="-264.5" font-family="Helvetica,sans-Serif" font-size="10.00">kryne&#45;engine/Rendering</text>
<text text-anchor="middle" x="952.5" y="-253.5" font-family="Helvetica,sans-Serif" font-size="10.00">/RenderPass.h</text>
</a>
</g>
</g>
<!-- Node20&#45;&gt;Node21 -->
<g id="edge25" class="edge">
<title>Node20&#45;&gt;Node21</title>
<path fill="none" stroke="midnightblue" d="M946.82,-313.4C945.79,-305.56 945.51,-295.6 945.96,-286.57"/>
<polygon fill="midnightblue" stroke="midnightblue" points="949.45,-286.84 946.83,-276.58 942.47,-286.24 949.45,-286.84"/>
</g>
<!-- Node22 -->
<g id="node22" class="node">
<title>Node22</title>
<g id="a_node22"><a xlink:href="3_d_objects_2_base_object_8h.html" target="_top" xlink:title=" ">
<polygon fill="white" stroke="black" points="830,-179.5 830,-209.5 951,-209.5 951,-179.5 830,-179.5"/>
<text text-anchor="start" x="838" y="-197.5" font-family="Helvetica,sans-Serif" font-size="10.00">kryne&#45;engine/3DObjects</text>
<text text-anchor="middle" x="890.5" y="-186.5" font-family="Helvetica,sans-Serif" font-size="10.00">/BaseObject.h</text>
</a>
</g>
</g>
<!-- Node20&#45;&gt;Node22 -->
<g id="edge59" class="edge">
<title>Node20&#45;&gt;Node22</title>
<path fill="none" stroke="midnightblue" d="M922.38,-313.44C908.12,-305.05 892.49,-292.9 884.5,-277 875.53,-259.16 878.24,-236.29 882.49,-219.32"/>
<polygon fill="midnightblue" stroke="midnightblue" points="885.89,-220.19 885.25,-209.62 879.15,-218.28 885.89,-220.19"/>
</g>
<!-- Node21&#45;&gt;Node2 -->
<g id="edge26" class="edge">
<title>Node21&#45;&gt;Node2</title>
<path fill="none" stroke="midnightblue" d="M892.92,-252.72C802.07,-240.87 628.99,-218.27 529.63,-205.31"/>
<polygon fill="midnightblue" stroke="midnightblue" points="530.03,-201.83 519.66,-204.01 529.13,-208.77 530.03,-201.83"/>
</g>
<!-- Node21&#45;&gt;Node20 -->
<g id="edge27" class="edge">
<title>Node21&#45;&gt;Node20</title>
<path fill="none" stroke="midnightblue" d="M958.17,-276.58C959.2,-284.41 959.49,-294.37 959.05,-303.4"/>
<polygon fill="midnightblue" stroke="midnightblue" points="955.56,-303.13 958.18,-313.4 962.53,-303.74 955.56,-303.13"/>
</g>
<!-- Node21&#45;&gt;Node22 -->
<g id="edge28" class="edge">
<title>Node21&#45;&gt;Node22</title>
<path fill="none" stroke="midnightblue" d="M939.05,-246.4C930.84,-237.79 920.19,-226.63 910.95,-216.94"/>
<polygon fill="midnightblue" stroke="midnightblue" points="913.36,-214.4 903.93,-209.58 908.3,-219.23 913.36,-214.4"/>
</g>
<!-- Node22&#45;&gt;Node8 -->
<g id="edge29" class="edge">
<title>Node22&#45;&gt;Node8</title>
<path fill="none" stroke="midnightblue" d="M829.77,-193.03C723.05,-191.17 507.23,-182.49 444.5,-143 403.3,-117.06 382.97,-59.5 374.88,-29.7"/>
<polygon fill="midnightblue" stroke="midnightblue" points="378.22,-28.59 372.37,-19.76 371.43,-30.31 378.22,-28.59"/>
</g>
<!-- Node22&#45;&gt;Node9 -->
<g id="edge30" class="edge">
<title>Node22&#45;&gt;Node9</title>
<path fill="none" stroke="midnightblue" d="M829.9,-190.63C733.76,-185.26 551.25,-171.59 493.5,-143 456.04,-124.45 443.35,-114.68 427.5,-76 405.36,-21.97 497.94,-11.43 558.83,-10.17"/>
<polygon fill="midnightblue" stroke="midnightblue" points="559.1,-13.67 569.05,-10.04 559.01,-6.67 559.1,-13.67"/>
</g>
<!-- Node22&#45;&gt;Node10 -->
<g id="edge57" class="edge">
<title>Node22&#45;&gt;Node10</title>
<path fill="none" stroke="midnightblue" d="M951.23,-183.56C1025.39,-171.41 1150.19,-150.98 1225.1,-138.72"/>
<polygon fill="midnightblue" stroke="midnightblue" points="1226.03,-142.11 1235.33,-137.04 1224.9,-135.2 1226.03,-142.11"/>
</g>
<!-- Node22&#45;&gt;Node18 -->
<g id="edge31" class="edge">
<title>Node22&#45;&gt;Node18</title>
<path fill="none" stroke="midnightblue" d="M951.11,-185.88C979.1,-179.18 1010.31,-166.61 1029.5,-143 1056.07,-110.32 1054.47,-57.42 1051.32,-29.55"/>
<polygon fill="midnightblue" stroke="midnightblue" points="1054.78,-29.02 1050,-19.57 1047.84,-29.94 1054.78,-29.02"/>
</g>
<!-- Node23 -->
<g id="node23" class="node">
<title>Node23</title>
<g id="a_node23"><a xlink:title=" ">
<polygon fill="white" stroke="#bfbfbf" points="812.5,-118 812.5,-137 898.5,-137 898.5,-118 812.5,-118"/>
<text text-anchor="middle" x="855.5" y="-125" font-family="Helvetica,sans-Serif" font-size="10.00">glm/mat3x3.hpp</text>
</a>
</g>
</g>
<!-- Node22&#45;&gt;Node23 -->
<g id="edge32" class="edge">
<title>Node22&#45;&gt;Node23</title>
<path fill="none" stroke="midnightblue" d="M882.91,-179.4C877.66,-169.66 870.66,-156.65 865.04,-146.21"/>
<polygon fill="midnightblue" stroke="midnightblue" points="868,-144.34 860.18,-137.19 861.84,-147.66 868,-144.34"/>
</g>
<!-- Node24 -->
<g id="node24" class="node">
<title>Node24</title>
<g id="a_node24"><a xlink:href="_shader_8h.html" target="_top" xlink:title=" ">
<polygon fill="white" stroke="black" points="1364.5,-112.5 1364.5,-142.5 1474.5,-142.5 1474.5,-112.5 1364.5,-112.5"/>
<text text-anchor="start" x="1372.5" y="-130.5" font-family="Helvetica,sans-Serif" font-size="10.00">kryne&#45;engine/Material</text>
<text text-anchor="middle" x="1419.5" y="-119.5" font-family="Helvetica,sans-Serif" font-size="10.00">/Shader.h</text>
</a>
</g>
</g>
<!-- Node22&#45;&gt;Node24 -->
<g id="edge33" class="edge">
<title>Node22&#45;&gt;Node24</title>
<path fill="none" stroke="midnightblue" d="M951.37,-189.13C1038.57,-182.37 1204.22,-167.69 1354.54,-143.04"/>
<polygon fill="midnightblue" stroke="midnightblue" points="1355.13,-146.49 1364.42,-141.4 1353.98,-139.58 1355.13,-146.49"/>
</g>
<!-- Node32 -->
<g id="node32" class="node">
<title>Node32</title>
<g id="a_node32"><a xlink:href="_vertex_array_8h.html" target="_top" xlink:title=" ">
<polygon fill="white" stroke="black" points="629,-112.5 629,-142.5 756,-142.5 756,-112.5 629,-112.5"/>
<text text-anchor="start" x="637" y="-130.5" font-family="Helvetica,sans-Serif" font-size="10.00">kryne&#45;engine/Core/Vertex</text>
<text text-anchor="middle" x="692.5" y="-119.5" font-family="Helvetica,sans-Serif" font-size="10.00">Array.h</text>
</a>
</g>
</g>
<!-- Node22&#45;&gt;Node32 -->
<g id="edge49" class="edge">
<title>Node22&#45;&gt;Node32</title>
<path fill="none" stroke="midnightblue" d="M847.54,-179.4C817.44,-169.52 777.04,-156.25 745.02,-145.74"/>
<polygon fill="midnightblue" stroke="midnightblue" points="745.97,-142.37 735.38,-142.58 743.79,-149.02 745.97,-142.37"/>
</g>
<!-- Node34 -->
<g id="node34" class="node">
<title>Node34</title>
<g id="a_node34"><a xlink:href="enums_2_base_object_8h.html" target="_top" xlink:title=" ">
<polygon fill="white" stroke="black" points="916.5,-112.5 916.5,-142.5 1020.5,-142.5 1020.5,-112.5 916.5,-112.5"/>
<text text-anchor="start" x="924.5" y="-130.5" font-family="Helvetica,sans-Serif" font-size="10.00">kryne&#45;engine/enums</text>
<text text-anchor="middle" x="968.5" y="-119.5" font-family="Helvetica,sans-Serif" font-size="10.00">/BaseObject.h</text>
</a>
</g>
</g>
<!-- Node22&#45;&gt;Node34 -->
<g id="edge58" class="edge">
<title>Node22&#45;&gt;Node34</title>
<path fill="none" stroke="midnightblue" d="M907.42,-179.4C918.05,-170.54 931.95,-158.96 943.8,-149.09"/>
<polygon fill="midnightblue" stroke="midnightblue" points="946.17,-151.67 951.61,-142.58 941.69,-146.29 946.17,-151.67"/>
</g>
<!-- Node24&#45;&gt;Node11 -->
<g id="edge34" class="edge">
<title>Node24&#45;&gt;Node11</title>
<path fill="none" stroke="midnightblue" d="M1436.33,-112.4C1447.17,-103.31 1461.28,-91.49 1472.37,-82.19"/>
<polygon fill="midnightblue" stroke="midnightblue" points="1474.75,-84.76 1480.17,-75.66 1470.26,-79.4 1474.75,-84.76"/>
</g>
<!-- Node25 -->
<g id="node25" class="node">
<title>Node25</title>
<g id="a_node25"><a xlink:title=" ">
<polygon fill="white" stroke="#bfbfbf" points="1526.5,-56.5 1526.5,-75.5 1578.5,-75.5 1578.5,-56.5 1526.5,-56.5"/>
<text text-anchor="middle" x="1552.5" y="-63.5" font-family="Helvetica,sans-Serif" font-size="10.00">sstream</text>
</a>
</g>
</g>
<!-- Node24&#45;&gt;Node25 -->
<g id="edge35" class="edge">
<title>Node24&#45;&gt;Node25</title>
<path fill="none" stroke="midnightblue" d="M1451.02,-112.4C1473.14,-102.51 1502.47,-89.38 1523.91,-79.79"/>
<polygon fill="midnightblue" stroke="midnightblue" points="1525.45,-82.94 1533.15,-75.66 1522.59,-76.55 1525.45,-82.94"/>
</g>
<!-- Node26 -->
<g id="node26" class="node">
<title>Node26</title>
<g id="a_node26"><a xlink:href="_uniforms_handler_8h.html" target="_top" xlink:title=" ">
<polygon fill="white" stroke="black" points="1320.5,-56.5 1320.5,-75.5 1416.5,-75.5 1416.5,-56.5 1320.5,-56.5"/>
<text text-anchor="middle" x="1368.5" y="-63.5" font-family="Helvetica,sans-Serif" font-size="10.00">UniformsHandler.h</text>
</a>
</g>
</g>
<!-- Node24&#45;&gt;Node26 -->
<g id="edge36" class="edge">
<title>Node24&#45;&gt;Node26</title>
<path fill="none" stroke="midnightblue" d="M1407.41,-112.4C1399.93,-103.66 1390.28,-92.41 1382.47,-83.3"/>
<polygon fill="midnightblue" stroke="midnightblue" points="1385.09,-80.97 1375.92,-75.66 1379.77,-85.53 1385.09,-80.97"/>
</g>
<!-- Node30 -->
<g id="node30" class="node">
<title>Node30</title>
<g id="a_node30"><a xlink:href="_shader_chunk_8h.html" target="_top" xlink:title=" ">
<polygon fill="white" stroke="black" points="1219,-56.5 1219,-75.5 1302,-75.5 1302,-56.5 1219,-56.5"/>
<text text-anchor="middle" x="1260.5" y="-63.5" font-family="Helvetica,sans-Serif" font-size="10.00">ShaderChunk.h</text>
</a>
</g>
</g>
<!-- Node24&#45;&gt;Node30 -->
<g id="edge44" class="edge">
<title>Node24&#45;&gt;Node30</title>
<path fill="none" stroke="midnightblue" d="M1381.82,-112.4C1354.9,-102.33 1319.05,-88.91 1293.31,-79.28"/>
<polygon fill="midnightblue" stroke="midnightblue" points="1294.23,-75.88 1283.64,-75.66 1291.77,-82.44 1294.23,-75.88"/>
</g>
<!-- Node26&#45;&gt;Node8 -->
<g id="edge39" class="edge">
<title>Node26&#45;&gt;Node8</title>
<path fill="none" stroke="midnightblue" d="M1320.35,-57.02C1317.36,-56.64 1314.39,-56.3 1311.5,-56 1305.83,-55.42 594.94,-21.65 412.68,-13"/>
<polygon fill="midnightblue" stroke="midnightblue" points="412.83,-9.51 402.68,-12.53 412.5,-16.5 412.83,-9.51"/>
</g>
<!-- Node26&#45;&gt;Node9 -->
<g id="edge40" class="edge">
<title>Node26&#45;&gt;Node9</title>
<path fill="none" stroke="midnightblue" d="M1320.34,-57.07C1317.35,-56.68 1314.39,-56.32 1311.5,-56 1067.2,-28.95 773.21,-16.64 658.11,-12.59"/>
<polygon fill="midnightblue" stroke="midnightblue" points="657.98,-9.09 647.86,-12.24 657.74,-16.08 657.98,-9.09"/>
</g>
<!-- Node26&#45;&gt;Node12 -->
<g id="edge37" class="edge">
<title>Node26&#45;&gt;Node12</title>
<path fill="none" stroke="midnightblue" d="M1381.03,-56.32C1393.09,-47.98 1411.53,-35.21 1425.77,-25.35"/>
<polygon fill="midnightblue" stroke="midnightblue" points="1427.77,-28.22 1434,-19.65 1423.78,-22.47 1427.77,-28.22"/>
</g>
<!-- Node26&#45;&gt;Node18 -->
<g id="edge41" class="edge">
<title>Node26&#45;&gt;Node18</title>
<path fill="none" stroke="midnightblue" d="M1320.25,-56.86C1261.57,-46.96 1162.85,-30.3 1101.93,-20.02"/>
<polygon fill="midnightblue" stroke="midnightblue" points="1102.19,-16.51 1091.75,-18.3 1101.03,-23.41 1102.19,-16.51"/>
</g>
<!-- Node27 -->
<g id="node27" class="node">
<title>Node27</title>
<g id="a_node27"><a xlink:title=" ">
<polygon fill="white" stroke="#bfbfbf" points="1216,-0.5 1216,-19.5 1299,-19.5 1299,-0.5 1216,-0.5"/>
<text text-anchor="middle" x="1257.5" y="-7.5" font-family="Helvetica,sans-Serif" font-size="10.00">unordered_map</text>
</a>
</g>
</g>
<!-- Node26&#45;&gt;Node27 -->
<g id="edge38" class="edge">
<title>Node26&#45;&gt;Node27</title>
<path fill="none" stroke="midnightblue" d="M1350.67,-56.32C1332.78,-47.62 1305.02,-34.12 1284.45,-24.11"/>
<polygon fill="midnightblue" stroke="midnightblue" points="1285.81,-20.88 1275.29,-19.65 1282.75,-27.18 1285.81,-20.88"/>
</g>
<!-- Node28 -->
<g id="node28" class="node">
<title>Node28</title>
<g id="a_node28"><a xlink:title=" ">
<polygon fill="white" stroke="#bfbfbf" points="1485.5,-0.5 1485.5,-19.5 1591.5,-19.5 1591.5,-0.5 1485.5,-0.5"/>
<text text-anchor="middle" x="1538.5" y="-7.5" font-family="Helvetica,sans-Serif" font-size="10.00">glm/gtc/type_ptr.hpp</text>
</a>
</g>
</g>
<!-- Node26&#45;&gt;Node28 -->
<g id="edge42" class="edge">
<title>Node26&#45;&gt;Node28</title>
<path fill="none" stroke="midnightblue" d="M1395.44,-56.44C1424.16,-47.32 1469.83,-32.81 1501.82,-22.65"/>
<polygon fill="midnightblue" stroke="midnightblue" points="1503.22,-25.88 1511.69,-19.52 1501.1,-19.21 1503.22,-25.88"/>
</g>
<!-- Node29 -->
<g id="node29" class="node">
<title>Node29</title>
<g id="a_node29"><a xlink:title=" ">
<polygon fill="white" stroke="#bfbfbf" points="1317.5,-0.5 1317.5,-19.5 1407.5,-19.5 1407.5,-0.5 1317.5,-0.5"/>
<text text-anchor="middle" x="1362.5" y="-7.5" font-family="Helvetica,sans-Serif" font-size="10.00">boost/variant.hpp</text>
</a>
</g>
</g>
<!-- Node26&#45;&gt;Node29 -->
<g id="edge43" class="edge">
<title>Node26&#45;&gt;Node29</title>
<path fill="none" stroke="midnightblue" d="M1367.51,-56.08C1366.71,-48.93 1365.57,-38.64 1364.58,-29.69"/>
<polygon fill="midnightblue" stroke="midnightblue" points="1368.06,-29.3 1363.47,-19.75 1361.1,-30.08 1368.06,-29.3"/>
</g>
<!-- Node30&#45;&gt;Node7 -->
<g id="edge48" class="edge">
<title>Node30&#45;&gt;Node7</title>
<path fill="none" stroke="midnightblue" d="M1218.82,-57.18C1215.67,-56.73 1212.54,-56.33 1209.5,-56 820.33,-13.89 719.63,-51.98 329.5,-20 317.9,-19.05 305.32,-17.64 293.91,-16.21"/>
<polygon fill="midnightblue" stroke="midnightblue" points="294.2,-12.72 283.83,-14.91 293.3,-19.66 294.2,-12.72"/>
</g>
<!-- Node30&#45;&gt;Node12 -->
<g id="edge46" class="edge">
<title>Node30&#45;&gt;Node12</title>
<path fill="none" stroke="midnightblue" d="M1290.43,-56.47C1319.96,-48.03 1366.61,-34.64 1416.23,-20.06"/>
<polygon fill="midnightblue" stroke="midnightblue" points="1417.25,-23.41 1425.85,-17.23 1415.27,-16.69 1417.25,-23.41"/>
</g>
<!-- Node30&#45;&gt;Node27 -->
<g id="edge45" class="edge">
<title>Node30&#45;&gt;Node27</title>
<path fill="none" stroke="midnightblue" d="M1260,-56.08C1259.61,-49.01 1259.05,-38.86 1258.55,-29.99"/>
<polygon fill="midnightblue" stroke="midnightblue" points="1262.04,-29.54 1257.99,-19.75 1255.05,-29.93 1262.04,-29.54"/>
</g>
<!-- Node31 -->
<g id="node31" class="node">
<title>Node31</title>
<g id="a_node31"><a xlink:title=" ">
<polygon fill="white" stroke="#bfbfbf" points="1149,-0.5 1149,-19.5 1198,-19.5 1198,-0.5 1149,-0.5"/>
<text text-anchor="middle" x="1173.5" y="-7.5" font-family="Helvetica,sans-Serif" font-size="10.00">fstream</text>
</a>
</g>
</g>
<!-- Node30&#45;&gt;Node31 -->
<g id="edge47" class="edge">
<title>Node30&#45;&gt;Node31</title>
<path fill="none" stroke="midnightblue" d="M1246.52,-56.32C1232.95,-47.9 1212.12,-34.97 1196.18,-25.07"/>
<polygon fill="midnightblue" stroke="midnightblue" points="1197.79,-21.95 1187.44,-19.65 1194.09,-27.9 1197.79,-21.95"/>
</g>
<!-- Node32&#45;&gt;Node3 -->
<g id="edge50" class="edge">
<title>Node32&#45;&gt;Node3</title>
<path fill="none" stroke="midnightblue" d="M756.35,-114.61C761.14,-113.72 765.89,-112.84 770.5,-112 855.8,-96.36 880.38,-96.89 968.4,-76.05"/>
<polygon fill="midnightblue" stroke="midnightblue" points="969.36,-79.42 978.28,-73.69 967.74,-72.61 969.36,-79.42"/>
</g>
<!-- Node32&#45;&gt;Node8 -->
<g id="edge53" class="edge">
<title>Node32&#45;&gt;Node8</title>
<path fill="none" stroke="midnightblue" d="M747.02,-112.43C784.44,-100.2 823.68,-80.61 801.5,-56 788.57,-41.65 518.9,-21.36 412.83,-13.9"/>
<polygon fill="midnightblue" stroke="midnightblue" points="413.01,-10.4 402.79,-13.19 412.52,-17.38 413.01,-10.4"/>
</g>
<!-- Node32&#45;&gt;Node9 -->
<g id="edge54" class="edge">
<title>Node32&#45;&gt;Node9</title>
<path fill="none" stroke="midnightblue" d="M752.78,-112.47C786.82,-103.19 824.5,-90.16 834.5,-76 839.63,-68.74 840.14,-62.87 834.5,-56 812.61,-29.32 717.59,-18.16 657.94,-13.72"/>
<polygon fill="midnightblue" stroke="midnightblue" points="658.19,-10.23 647.96,-13.02 657.69,-17.22 658.19,-10.23"/>
</g>
<!-- Node32&#45;&gt;Node15 -->
<g id="edge51" class="edge">
<title>Node32&#45;&gt;Node15</title>
<path fill="none" stroke="midnightblue" d="M694.4,-112.4C695.47,-104.38 696.84,-94.23 698,-85.57"/>
<polygon fill="midnightblue" stroke="midnightblue" points="701.47,-86.04 699.34,-75.66 694.53,-85.1 701.47,-86.04"/>
</g>
<!-- Node32&#45;&gt;Node16 -->
<g id="edge52" class="edge">
<title>Node32&#45;&gt;Node16</title>
<path fill="none" stroke="midnightblue" d="M710.51,-112.4C722.24,-103.22 737.52,-91.26 749.44,-81.92"/>
<polygon fill="midnightblue" stroke="midnightblue" points="751.72,-84.58 757.44,-75.66 747.41,-79.07 751.72,-84.58"/>
</g>
<!-- Node32&#45;&gt;Node17 -->
<g id="edge56" class="edge">
<title>Node32&#45;&gt;Node17</title>
<path fill="none" stroke="midnightblue" d="M756.44,-117.46C841.57,-105.43 990.19,-84.43 1066.04,-73.71"/>
<polygon fill="midnightblue" stroke="midnightblue" points="1066.83,-77.13 1076.24,-72.27 1065.85,-70.2 1066.83,-77.13"/>
</g>
<!-- Node33 -->
<g id="node33" class="node">
<title>Node33</title>
<g id="a_node33"><a xlink:title=" ">
<polygon fill="white" stroke="#bfbfbf" points="886.5,-56.5 886.5,-75.5 960.5,-75.5 960.5,-56.5 886.5,-56.5"/>
<text text-anchor="middle" x="923.5" y="-63.5" font-family="Helvetica,sans-Serif" font-size="10.00">glm/vec2.hpp</text>
</a>
</g>
</g>
<!-- Node32&#45;&gt;Node33 -->
<g id="edge55" class="edge">
<title>Node32&#45;&gt;Node33</title>
<path fill="none" stroke="midnightblue" d="M746.95,-112.47C787.67,-101.99 842.6,-87.84 880.32,-78.12"/>
<polygon fill="midnightblue" stroke="midnightblue" points="881.66,-81.39 890.48,-75.51 879.92,-74.61 881.66,-81.39"/>
</g>
<!-- Node36 -->
<g id="node36" class="node">
<title>Node36</title>
<g id="a_node36"><a xlink:title=" ">
<polygon fill="white" stroke="#bfbfbf" points="1278.5,-185 1278.5,-204 1330.5,-204 1330.5,-185 1278.5,-185"/>
<text text-anchor="middle" x="1304.5" y="-192" font-family="Helvetica,sans-Serif" font-size="10.00">memory</text>
</a>
</g>
</g>
<!-- Node35&#45;&gt;Node36 -->
<g id="edge62" class="edge">
<title>Node35&#45;&gt;Node36</title>
<path fill="none" stroke="midnightblue" d="M1243.42,-246.4C1256.07,-235.86 1273.33,-221.48 1286.27,-210.69"/>
<polygon fill="midnightblue" stroke="midnightblue" points="1288.62,-213.29 1294.07,-204.19 1284.14,-207.91 1288.62,-213.29"/>
</g>
<!-- Node37 -->
<g id="node37" class="node">
<title>Node37</title>
<g id="a_node37"><a xlink:href="_directional_light_8h.html" target="_top" xlink:title=" ">
<polygon fill="white" stroke="black" points="1082.5,-185 1082.5,-204 1174.5,-204 1174.5,-185 1082.5,-185"/>
<text text-anchor="middle" x="1128.5" y="-192" font-family="Helvetica,sans-Serif" font-size="10.00">DirectionalLight.h</text>
</a>
</g>
</g>
<!-- Node35&#45;&gt;Node37 -->
<g id="edge63" class="edge">
<title>Node35&#45;&gt;Node37</title>
<path fill="none" stroke="midnightblue" d="M1205.24,-246.4C1188.8,-235.5 1166.16,-220.48 1149.73,-209.58"/>
<polygon fill="midnightblue" stroke="midnightblue" points="1151.59,-206.62 1141.33,-204.01 1147.72,-212.45 1151.59,-206.62"/>
</g>
<!-- Node38 -->
<g id="node38" class="node">
<title>Node38</title>
<g id="a_node38"><a xlink:href="_point_light_8h.html" target="_top" xlink:title=" ">
<polygon fill="white" stroke="black" points="1192.5,-185 1192.5,-204 1260.5,-204 1260.5,-185 1192.5,-185"/>
<text text-anchor="middle" x="1226.5" y="-192" font-family="Helvetica,sans-Serif" font-size="10.00">PointLight.h</text>
</a>
</g>
</g>
<!-- Node35&#45;&gt;Node38 -->
<g id="edge67" class="edge">
<title>Node35&#45;&gt;Node38</title>
<path fill="none" stroke="midnightblue" d="M1226.5,-246.4C1226.5,-237.06 1226.5,-224.71 1226.5,-214.52"/>
<polygon fill="midnightblue" stroke="midnightblue" points="1230,-214.19 1226.5,-204.19 1223,-214.19 1230,-214.19"/>
</g>
<!-- Node37&#45;&gt;Node3 -->
<g id="edge65" class="edge">
<title>Node37&#45;&gt;Node3</title>
<path fill="none" stroke="midnightblue" d="M1119.63,-184.81C1098.18,-163.77 1043.24,-109.89 1015.72,-82.9"/>
<polygon fill="midnightblue" stroke="midnightblue" points="1018.02,-80.26 1008.43,-75.76 1013.12,-85.26 1018.02,-80.26"/>
</g>
<!-- Node37&#45;&gt;Node17 -->
<g id="edge64" class="edge">
<title>Node37&#45;&gt;Node17</title>
<path fill="none" stroke="midnightblue" d="M1127.47,-184.81C1125.06,-164.49 1119.02,-113.55 1115.73,-85.78"/>
<polygon fill="midnightblue" stroke="midnightblue" points="1119.19,-85.27 1114.54,-75.76 1112.24,-86.1 1119.19,-85.27"/>
</g>
<!-- Node37&#45;&gt;Node24 -->
<g id="edge66" class="edge">
<title>Node37&#45;&gt;Node24</title>
<path fill="none" stroke="midnightblue" d="M1159.84,-184.94C1167.56,-182.91 1175.81,-180.82 1183.5,-179 1256.39,-161.78 1277.48,-159.77 1354.2,-143.26"/>
<polygon fill="midnightblue" stroke="midnightblue" points="1355.32,-146.59 1364.35,-141.05 1353.84,-139.75 1355.32,-146.59"/>
</g>
<!-- Node38&#45;&gt;Node3 -->
<g id="edge70" class="edge">
<title>Node38&#45;&gt;Node3</title>
<path fill="none" stroke="midnightblue" d="M1210.9,-184.81C1172.01,-163.13 1070.54,-106.59 1023.76,-80.52"/>
<polygon fill="midnightblue" stroke="midnightblue" points="1025.35,-77.4 1014.91,-75.59 1021.94,-83.51 1025.35,-77.4"/>
</g>
<!-- Node38&#45;&gt;Node17 -->
<g id="edge68" class="edge">
<title>Node38&#45;&gt;Node17</title>
<path fill="none" stroke="midnightblue" d="M1218.73,-184.81C1200.03,-163.86 1152.23,-110.35 1128.02,-83.25"/>
<polygon fill="midnightblue" stroke="midnightblue" points="1130.59,-80.88 1121.32,-75.76 1125.37,-85.55 1130.59,-80.88"/>
</g>
<!-- Node38&#45;&gt;Node24 -->
<g id="edge69" class="edge">
<title>Node38&#45;&gt;Node24</title>
<path fill="none" stroke="midnightblue" d="M1251.97,-184.91C1257.73,-182.97 1263.83,-180.91 1269.5,-179 1302.37,-167.92 1339.29,-155.49 1368.28,-145.74"/>
<polygon fill="midnightblue" stroke="midnightblue" points="1369.43,-149.04 1377.79,-142.54 1367.2,-142.41 1369.43,-149.04"/>
</g>
<!-- Node39 -->
<g id="node39" class="node">
<title>Node39</title>
<g id="a_node39"><a xlink:title=" ">
<polygon fill="white" stroke="#bfbfbf" points="1492.5,-118 1492.5,-137 1548.5,-137 1548.5,-118 1492.5,-118"/>
<text text-anchor="middle" x="1520.5" y="-125" font-family="Helvetica,sans-Serif" font-size="10.00">algorithm</text>
</a>
</g>
</g>
<!-- Node38&#45;&gt;Node39 -->
<g id="edge71" class="edge">
<title>Node38&#45;&gt;Node39</title>
<path fill="none" stroke="midnightblue" d="M1249.51,-184.99C1255.92,-182.83 1262.93,-180.65 1269.5,-179 1363.05,-155.52 1390.55,-168.73 1483.5,-143 1486.09,-142.28 1488.75,-141.45 1491.4,-140.55"/>
<polygon fill="midnightblue" stroke="midnightblue" points="1492.61,-143.83 1500.79,-137.1 1490.19,-137.26 1492.61,-143.83"/>
</g>
<!-- Node40&#45;&gt;Node21 -->
<g id="edge74" class="edge">
<title>Node40&#45;&gt;Node21</title>
<path fill="none" stroke="midnightblue" d="M1092.99,-318.87C1068.57,-309.07 1028.09,-292.83 996.84,-280.29"/>
<polygon fill="midnightblue" stroke="midnightblue" points="998.05,-277 987.46,-276.53 995.44,-283.5 998.05,-277"/>
</g>
<!-- Node40&#45;&gt;Node37 -->
<g id="edge75" class="edge">
<title>Node40&#45;&gt;Node37</title>
<path fill="none" stroke="midnightblue" d="M1115.42,-318.84C1117.66,-297.67 1123.47,-242.95 1126.53,-214.03"/>
<polygon fill="midnightblue" stroke="midnightblue" points="1130.02,-214.33 1127.6,-204.02 1123.06,-213.6 1130.02,-214.33"/>
</g>
</g>
</svg>
