<?xml version="1.0" encoding="UTF-8" standalone="no"?>
<!DOCTYPE svg PUBLIC "-//W3C//DTD SVG 1.1//EN"
 "http://www.w3.org/Graphics/SVG/1.1/DTD/svg11.dtd">
<!-- Generated by graphviz version 2.40.1 (20161225.0304)
 -->
<!-- Title: kryne&#45;engine/include/kryne&#45;engine/Material/Shader.h Pages: 1 -->
<svg width="1424pt" height="531pt"
 viewBox="0.00 0.00 1424.17 531.00" xmlns="http://www.w3.org/2000/svg" xmlns:xlink="http://www.w3.org/1999/xlink">
<g id="graph0" class="graph" transform="scale(1 1) rotate(0) translate(4 527)">
<title>kryne&#45;engine/include/kryne&#45;engine/Material/Shader.h</title>
<polygon fill="#ffffff" stroke="transparent" points="-4,4 -4,-527 1420.169,-527 1420.169,4 -4,4"/>
<!-- Node0 -->
<g id="node1" class="node">
<title>Node0</title>
<polygon fill="#bfbfbf" stroke="#000000" points="551,-481.5 551,-522.5 664,-522.5 664,-481.5 551,-481.5"/>
<text text-anchor="start" x="559" y="-510.5" font-family="Helvetica,sans-Serif" font-size="10.00" fill="#000000">kryne&#45;engine/include</text>
<text text-anchor="start" x="559" y="-499.5" font-family="Helvetica,sans-Serif" font-size="10.00" fill="#000000">/kryne&#45;engine/Material</text>
<text text-anchor="middle" x="607.5" y="-488.5" font-family="Helvetica,sans-Serif" font-size="10.00" fill="#000000">/Shader.h</text>
</g>
<!-- Node1 -->
<g id="node2" class="node">
<title>Node1</title>
<polygon fill="#ffffff" stroke="#bfbfbf" points="474,-425.5 474,-444.5 509,-444.5 509,-425.5 474,-425.5"/>
<text text-anchor="middle" x="491.5" y="-432.5" font-family="Helvetica,sans-Serif" font-size="10.00" fill="#000000">map</text>
</g>
<!-- Node0&#45;&gt;Node1 -->
<g id="edge1" class="edge">
<title>Node0&#45;&gt;Node1</title>
<path fill="none" stroke="#191970" d="M571.7497,-481.3511C554.0536,-471.1301 533.1006,-459.0279 517.0428,-449.7532"/>
<polygon fill="#191970" stroke="#191970" points="518.6254,-446.6254 508.2155,-444.6546 515.1243,-452.687 518.6254,-446.6254"/>
</g>
<!-- Node2 -->
<g id="node3" class="node">
<title>Node2</title>
<polygon fill="#ffffff" stroke="#bfbfbf" points="527.5,-425.5 527.5,-444.5 579.5,-444.5 579.5,-425.5 527.5,-425.5"/>
<text text-anchor="middle" x="553.5" y="-432.5" font-family="Helvetica,sans-Serif" font-size="10.00" fill="#000000">sstream</text>
</g>
<!-- Node0&#45;&gt;Node2 -->
<g id="edge2" class="edge">
<title>Node0&#45;&gt;Node2</title>
<path fill="none" stroke="#191970" d="M590.7101,-481.168C583.3724,-472.0639 574.8549,-461.4959 567.822,-452.7699"/>
<polygon fill="#191970" stroke="#191970" points="570.3831,-450.3701 561.3828,-444.7805 564.933,-454.7628 570.3831,-450.3701"/>
</g>
<!-- Node3 -->
<g id="node4" class="node">
<title>Node3</title>
<g id="a_node4"><a xlink:href="_dispatcher_8h.html" target="_top" xlink:title="kryne&#45;engine/Dispatch\l/Dispatcher.h">
<polygon fill="#ffffff" stroke="#000000" points="204.5,-291.5 204.5,-321.5 318.5,-321.5 318.5,-291.5 204.5,-291.5"/>
<text text-anchor="start" x="212.5" y="-309.5" font-family="Helvetica,sans-Serif" font-size="10.00" fill="#000000">kryne&#45;engine/Dispatch</text>
<text text-anchor="middle" x="261.5" y="-298.5" font-family="Helvetica,sans-Serif" font-size="10.00" fill="#000000">/Dispatcher.h</text>
</a>
</g>
</g>
<!-- Node0&#45;&gt;Node3 -->
<g id="edge3" class="edge">
<title>Node0&#45;&gt;Node3</title>
<path fill="none" stroke="#191970" d="M607.5292,-481.2261C606.4612,-464.1522 602.312,-440.3556 588.5,-425 553.201,-385.756 413.6081,-344.8469 328.6331,-322.8497"/>
<polygon fill="#191970" stroke="#191970" points="329.3627,-319.4235 318.8064,-320.327 327.622,-326.2037 329.3627,-319.4235"/>
</g>
<!-- Node18 -->
<g id="node19" class="node">
<title>Node18</title>
<g id="a_node19"><a xlink:href="_uniforms_handler_8h.html" target="_top" xlink:title="UniformsHandler.h">
<polygon fill="#ffffff" stroke="#000000" points="876.5,-425.5 876.5,-444.5 974.5,-444.5 974.5,-425.5 876.5,-425.5"/>
<text text-anchor="middle" x="925.5" y="-432.5" font-family="Helvetica,sans-Serif" font-size="10.00" fill="#000000">UniformsHandler.h</text>
</a>
</g>
</g>
<!-- Node0&#45;&gt;Node18 -->
<g id="edge21" class="edge">
<title>Node0&#45;&gt;Node18</title>
<path fill="none" stroke="#191970" d="M664.352,-490.0217C722.4948,-477.7715 812.2404,-458.8629 869.9178,-446.7107"/>
<polygon fill="#191970" stroke="#191970" points="870.8827,-450.0843 879.9463,-444.5978 869.4395,-443.2347 870.8827,-450.0843"/>
</g>
<!-- Node32 -->
<g id="node33" class="node">
<title>Node32</title>
<g id="a_node33"><a xlink:href="_shader_chunk_8h.html" target="_top" xlink:title="ShaderChunk.h">
<polygon fill="#ffffff" stroke="#000000" points="1257.5,-364 1257.5,-383 1341.5,-383 1341.5,-364 1257.5,-364"/>
<text text-anchor="middle" x="1299.5" y="-371" font-family="Helvetica,sans-Serif" font-size="10.00" fill="#000000">ShaderChunk.h</text>
</a>
</g>
</g>
<!-- Node0&#45;&gt;Node32 -->
<g id="edge40" class="edge">
<title>Node0&#45;&gt;Node32</title>
<path fill="none" stroke="#191970" d="M664.2862,-494.9882C776.8793,-480.4291 1035.9101,-443.6578 1248.5,-389 1252.2741,-388.0297 1256.1865,-386.9592 1260.0896,-385.8477"/>
<polygon fill="#191970" stroke="#191970" points="1261.0765,-389.2058 1269.6883,-383.0343 1259.1076,-382.4884 1261.0765,-389.2058"/>
</g>
<!-- Node4 -->
<g id="node5" class="node">
<title>Node4</title>
<g id="a_node5"><a xlink:href="_synchronizable_pool_8h.html" target="_top" xlink:title="SynchronizablePool.h">
<polygon fill="#ffffff" stroke="#000000" points="257,-179.5 257,-198.5 368,-198.5 368,-179.5 257,-179.5"/>
<text text-anchor="middle" x="312.5" y="-186.5" font-family="Helvetica,sans-Serif" font-size="10.00" fill="#000000">SynchronizablePool.h</text>
</a>
</g>
</g>
<!-- Node3&#45;&gt;Node4 -->
<g id="edge4" class="edge">
<title>Node3&#45;&gt;Node4</title>
<path fill="none" stroke="#191970" d="M268.1674,-291.1389C277.4394,-269.7768 294.2171,-231.1224 304.261,-207.982"/>
<polygon fill="#191970" stroke="#191970" points="307.5798,-209.1262 308.3508,-198.5595 301.1586,-206.3391 307.5798,-209.1262"/>
</g>
<!-- Node15 -->
<g id="node16" class="node">
<title>Node15</title>
<g id="a_node16"><a xlink:href="_runner_pool_8h.html" target="_top" xlink:title="RunnerPool.h">
<polygon fill="#ffffff" stroke="#000000" points="190.5,-235.5 190.5,-254.5 266.5,-254.5 266.5,-235.5 190.5,-235.5"/>
<text text-anchor="middle" x="228.5" y="-242.5" font-family="Helvetica,sans-Serif" font-size="10.00" fill="#000000">RunnerPool.h</text>
</a>
</g>
</g>
<!-- Node3&#45;&gt;Node15 -->
<g id="edge15" class="edge">
<title>Node3&#45;&gt;Node15</title>
<path fill="none" stroke="#191970" d="M253.3427,-291.2977C248.9051,-283.0277 243.375,-272.7215 238.6596,-263.9339"/>
<polygon fill="#191970" stroke="#191970" points="241.596,-262.0037 233.7837,-254.8469 235.4279,-265.3134 241.596,-262.0037"/>
</g>
<!-- Node16 -->
<g id="node17" class="node">
<title>Node16</title>
<g id="a_node17"><a xlink:href="_main_pool_8h.html" target="_top" xlink:title="MainPool.h">
<polygon fill="#ffffff" stroke="#000000" points="323,-235.5 323,-254.5 388,-254.5 388,-235.5 323,-235.5"/>
<text text-anchor="middle" x="355.5" y="-242.5" font-family="Helvetica,sans-Serif" font-size="10.00" fill="#000000">MainPool.h</text>
</a>
</g>
</g>
<!-- Node3&#45;&gt;Node16 -->
<g id="edge17" class="edge">
<title>Node3&#45;&gt;Node16</title>
<path fill="none" stroke="#191970" d="M284.736,-291.2977C299.2334,-281.8127 317.8244,-269.6495 332.3126,-260.1705"/>
<polygon fill="#191970" stroke="#191970" points="334.2782,-263.0671 340.7301,-254.6633 330.4457,-257.2094 334.2782,-263.0671"/>
</g>
<!-- Node5 -->
<g id="node6" class="node">
<title>Node5</title>
<g id="a_node6"><a xlink:href="_thread_pool_8h.html" target="_top" xlink:title="ThreadPool.h">
<polygon fill="#ffffff" stroke="#000000" points="266.5,-118 266.5,-137 340.5,-137 340.5,-118 266.5,-118"/>
<text text-anchor="middle" x="303.5" y="-125" font-family="Helvetica,sans-Serif" font-size="10.00" fill="#000000">ThreadPool.h</text>
</a>
</g>
</g>
<!-- Node4&#45;&gt;Node5 -->
<g id="edge5" class="edge">
<title>Node4&#45;&gt;Node5</title>
<path fill="none" stroke="#191970" d="M311.0938,-179.3906C309.8462,-170.8657 307.9838,-158.1392 306.4156,-147.4235"/>
<polygon fill="#191970" stroke="#191970" points="309.8373,-146.6326 304.9261,-137.2449 302.911,-147.6463 309.8373,-146.6326"/>
</g>
<!-- Node6 -->
<g id="node7" class="node">
<title>Node6</title>
<polygon fill="#ffffff" stroke="#bfbfbf" points="107.5,-56.5 107.5,-75.5 151.5,-75.5 151.5,-56.5 107.5,-56.5"/>
<text text-anchor="middle" x="129.5" y="-63.5" font-family="Helvetica,sans-Serif" font-size="10.00" fill="#000000">thread</text>
</g>
<!-- Node5&#45;&gt;Node6 -->
<g id="edge6" class="edge">
<title>Node5&#45;&gt;Node6</title>
<path fill="none" stroke="#191970" d="M276.3125,-117.8906C245.1292,-106.8689 194.0756,-88.8241 161.1362,-77.1818"/>
<polygon fill="#191970" stroke="#191970" points="162.132,-73.8216 151.5372,-73.789 159.7992,-80.4215 162.132,-73.8216"/>
</g>
<!-- Node7 -->
<g id="node8" class="node">
<title>Node7</title>
<polygon fill="#ffffff" stroke="#bfbfbf" points="412.5,-56.5 412.5,-75.5 456.5,-75.5 456.5,-56.5 412.5,-56.5"/>
<text text-anchor="middle" x="434.5" y="-63.5" font-family="Helvetica,sans-Serif" font-size="10.00" fill="#000000">mutex</text>
</g>
<!-- Node5&#45;&gt;Node7 -->
<g id="edge7" class="edge">
<title>Node5&#45;&gt;Node7</title>
<path fill="none" stroke="#191970" d="M323.9688,-117.8906C345.6952,-107.6908 380.2335,-91.4763 404.9185,-79.8875"/>
<polygon fill="#191970" stroke="#191970" points="406.6103,-82.9598 414.175,-75.5419 403.6355,-76.6234 406.6103,-82.9598"/>
</g>
<!-- Node8 -->
<g id="node9" class="node">
<title>Node8</title>
<polygon fill="#ffffff" stroke="#bfbfbf" points="170,-56.5 170,-75.5 265,-75.5 265,-56.5 170,-56.5"/>
<text text-anchor="middle" x="217.5" y="-63.5" font-family="Helvetica,sans-Serif" font-size="10.00" fill="#000000">condition_variable</text>
</g>
<!-- Node5&#45;&gt;Node8 -->
<g id="edge8" class="edge">
<title>Node5&#45;&gt;Node8</title>
<path fill="none" stroke="#191970" d="M290.0625,-117.8906C276.4305,-108.1421 255.1154,-92.8994 239.1078,-81.4521"/>
<polygon fill="#191970" stroke="#191970" points="241.0132,-78.5118 230.8431,-75.5419 236.9414,-84.2057 241.0132,-78.5118"/>
</g>
<!-- Node9 -->
<g id="node10" class="node">
<title>Node9</title>
<polygon fill="#ffffff" stroke="#bfbfbf" points="283,-56.5 283,-75.5 324,-75.5 324,-56.5 283,-56.5"/>
<text text-anchor="middle" x="303.5" y="-63.5" font-family="Helvetica,sans-Serif" font-size="10.00" fill="#000000">future</text>
</g>
<!-- Node5&#45;&gt;Node9 -->
<g id="edge9" class="edge">
<title>Node5&#45;&gt;Node9</title>
<path fill="none" stroke="#191970" d="M303.5,-117.8906C303.5,-109.3657 303.5,-96.6392 303.5,-85.9235"/>
<polygon fill="#191970" stroke="#191970" points="307.0001,-85.7448 303.5,-75.7449 300.0001,-85.7449 307.0001,-85.7448"/>
</g>
<!-- Node10 -->
<g id="node11" class="node">
<title>Node10</title>
<polygon fill="#ffffff" stroke="#bfbfbf" points="342.5,-56.5 342.5,-75.5 394.5,-75.5 394.5,-56.5 342.5,-56.5"/>
<text text-anchor="middle" x="368.5" y="-63.5" font-family="Helvetica,sans-Serif" font-size="10.00" fill="#000000">memory</text>
</g>
<!-- Node5&#45;&gt;Node10 -->
<g id="edge10" class="edge">
<title>Node5&#45;&gt;Node10</title>
<path fill="none" stroke="#191970" d="M313.6563,-117.8906C323.5199,-108.5581 338.7055,-94.1902 350.5987,-82.9374"/>
<polygon fill="#191970" stroke="#191970" points="353.3421,-85.1601 358.2006,-75.7449 348.5311,-80.0753 353.3421,-85.1601"/>
</g>
<!-- Node11 -->
<g id="node12" class="node">
<title>Node11</title>
<polygon fill="#ffffff" stroke="#bfbfbf" points="888.5,-56.5 888.5,-75.5 942.5,-75.5 942.5,-56.5 888.5,-56.5"/>
<text text-anchor="middle" x="915.5" y="-63.5" font-family="Helvetica,sans-Serif" font-size="10.00" fill="#000000">iostream</text>
</g>
<!-- Node5&#45;&gt;Node11 -->
<g id="edge11" class="edge">
<title>Node5&#45;&gt;Node11</title>
<path fill="none" stroke="#191970" d="M335.7378,-117.9489C344.3657,-115.6907 353.732,-113.5046 362.5,-112 554.5636,-79.0411 788.3654,-69.4477 878.0358,-66.8727"/>
<polygon fill="#191970" stroke="#191970" points="878.344,-70.3656 888.2442,-66.5924 878.1518,-63.3683 878.344,-70.3656"/>
</g>
<!-- Node12 -->
<g id="node13" class="node">
<title>Node12</title>
<g id="a_node13"><a xlink:href="_base_pool_8h.html" target="_top" xlink:title="BasePool.h">
<polygon fill="#ffffff" stroke="#000000" points="22,-56.5 22,-75.5 89,-75.5 89,-56.5 22,-56.5"/>
<text text-anchor="middle" x="55.5" y="-63.5" font-family="Helvetica,sans-Serif" font-size="10.00" fill="#000000">BasePool.h</text>
</a>
</g>
</g>
<!-- Node5&#45;&gt;Node12 -->
<g id="edge12" class="edge">
<title>Node5&#45;&gt;Node12</title>
<path fill="none" stroke="#191970" d="M266.3719,-118.2928C221.6819,-107.2104 146.7381,-88.6256 99.2738,-76.8552"/>
<polygon fill="#191970" stroke="#191970" points="99.8408,-73.3899 89.2924,-74.38 98.1559,-80.1841 99.8408,-73.3899"/>
</g>
<!-- Node13 -->
<g id="node14" class="node">
<title>Node13</title>
<polygon fill="#ffffff" stroke="#bfbfbf" points="0,-.5 0,-19.5 43,-19.5 43,-.5 0,-.5"/>
<text text-anchor="middle" x="21.5" y="-7.5" font-family="Helvetica,sans-Serif" font-size="10.00" fill="#000000">queue</text>
</g>
<!-- Node12&#45;&gt;Node13 -->
<g id="edge13" class="edge">
<title>Node12&#45;&gt;Node13</title>
<path fill="none" stroke="#191970" d="M49.5777,-56.2455C44.8973,-48.5367 38.2327,-37.5598 32.5711,-28.2348"/>
<polygon fill="#191970" stroke="#191970" points="35.5361,-26.3741 27.3545,-19.6427 29.5525,-30.007 35.5361,-26.3741"/>
</g>
<!-- Node14 -->
<g id="node15" class="node">
<title>Node14</title>
<polygon fill="#ffffff" stroke="#bfbfbf" points="61,-.5 61,-19.5 120,-19.5 120,-.5 61,-.5"/>
<text text-anchor="middle" x="90.5" y="-7.5" font-family="Helvetica,sans-Serif" font-size="10.00" fill="#000000">functional</text>
</g>
<!-- Node12&#45;&gt;Node14 -->
<g id="edge14" class="edge">
<title>Node12&#45;&gt;Node14</title>
<path fill="none" stroke="#191970" d="M61.5965,-56.2455C66.4145,-48.5367 73.2751,-37.5598 79.1032,-28.2348"/>
<polygon fill="#191970" stroke="#191970" points="82.1413,-29.9777 84.4733,-19.6427 76.2053,-26.2677 82.1413,-29.9777"/>
</g>
<!-- Node15&#45;&gt;Node5 -->
<g id="edge16" class="edge">
<title>Node15&#45;&gt;Node5</title>
<path fill="none" stroke="#191970" d="M229.6082,-235.3801C231.5126,-221.9089 236.3383,-197.0522 247.5,-179 256.1079,-165.0781 269.5043,-152.5669 281.0362,-143.3628"/>
<polygon fill="#191970" stroke="#191970" points="283.1867,-146.1244 289.0085,-137.2725 278.9373,-140.5618 283.1867,-146.1244"/>
</g>
<!-- Node16&#45;&gt;Node4 -->
<g id="edge20" class="edge">
<title>Node16&#45;&gt;Node4</title>
<path fill="none" stroke="#191970" d="M348.01,-235.2455C341.9674,-227.3761 333.3097,-216.101 326.0559,-206.6542"/>
<polygon fill="#191970" stroke="#191970" points="328.7705,-204.4426 319.9042,-198.6427 323.2185,-208.7058 328.7705,-204.4426"/>
</g>
<!-- Node17 -->
<g id="node18" class="node">
<title>Node17</title>
<g id="a_node18"><a xlink:href="_multithreading_8hpp.html" target="_top" xlink:title="kryne&#45;engine/Utils\l/Multithreading.hpp">
<polygon fill="#ffffff" stroke="#000000" points="372,-112.5 372,-142.5 471,-142.5 471,-112.5 372,-112.5"/>
<text text-anchor="start" x="380" y="-130.5" font-family="Helvetica,sans-Serif" font-size="10.00" fill="#000000">kryne&#45;engine/Utils</text>
<text text-anchor="middle" x="421.5" y="-119.5" font-family="Helvetica,sans-Serif" font-size="10.00" fill="#000000">/Multithreading.hpp</text>
</a>
</g>
</g>
<!-- Node16&#45;&gt;Node17 -->
<g id="edge18" class="edge">
<title>Node16&#45;&gt;Node17</title>
<path fill="none" stroke="#191970" d="M360.9011,-235.3845C371.101,-217.2254 393.475,-177.393 407.9965,-151.5404"/>
<polygon fill="#191970" stroke="#191970" points="411.1083,-153.1471 412.9541,-142.7143 405.0052,-149.719 411.1083,-153.1471"/>
</g>
<!-- Node17&#45;&gt;Node7 -->
<g id="edge19" class="edge">
<title>Node17&#45;&gt;Node7</title>
<path fill="none" stroke="#191970" d="M424.7135,-112.2977C426.4052,-104.2945 428.5001,-94.3843 430.317,-85.7889"/>
<polygon fill="#191970" stroke="#191970" points="433.7747,-86.3546 432.4185,-75.8469 426.926,-84.9069 433.7747,-86.3546"/>
</g>
<!-- Node19 -->
<g id="node20" class="node">
<title>Node19</title>
<polygon fill="#ffffff" stroke="#bfbfbf" points="1064,-297 1064,-316 1105,-316 1105,-297 1064,-297"/>
<text text-anchor="middle" x="1084.5" y="-304" font-family="Helvetica,sans-Serif" font-size="10.00" fill="#000000">string</text>
</g>
<!-- Node18&#45;&gt;Node19 -->
<g id="edge22" class="edge">
<title>Node18&#45;&gt;Node19</title>
<path fill="none" stroke="#191970" d="M931.3515,-425.4376C941.3117,-409.767 962.8894,-378.3323 987.5,-358 990.4914,-355.5287 1028.9086,-335.372 1056.4834,-321.0237"/>
<polygon fill="#191970" stroke="#191970" points="1058.4496,-323.9463 1065.7089,-316.2293 1055.2216,-317.735 1058.4496,-323.9463"/>
</g>
<!-- Node20 -->
<g id="node21" class="node">
<title>Node20</title>
<polygon fill="#ffffff" stroke="#bfbfbf" points="1123,-297 1123,-316 1206,-316 1206,-297 1123,-297"/>
<text text-anchor="middle" x="1164.5" y="-304" font-family="Helvetica,sans-Serif" font-size="10.00" fill="#000000">unordered_map</text>
</g>
<!-- Node18&#45;&gt;Node20 -->
<g id="edge23" class="edge">
<title>Node18&#45;&gt;Node20</title>
<path fill="none" stroke="#191970" d="M938.8629,-425.4754C951.4087,-416.405 970.5772,-402.2141 986.5,-389 1002.2362,-375.9408 1002.9749,-368.5377 1020.5,-358 1038.1788,-347.3698 1087.4515,-330.6698 1123.4497,-319.1852"/>
<polygon fill="#191970" stroke="#191970" points="1124.7368,-322.449 1133.2138,-316.0937 1122.6237,-315.7756 1124.7368,-322.449"/>
</g>
<!-- Node21 -->
<g id="node22" class="node">
<title>Node21</title>
<polygon fill="#ffffff" stroke="#bfbfbf" points="883.5,-297 883.5,-316 947.5,-316 947.5,-297 883.5,-297"/>
<text text-anchor="middle" x="915.5" y="-304" font-family="Helvetica,sans-Serif" font-size="10.00" fill="#000000">glad/glad.h</text>
</g>
<!-- Node18&#45;&gt;Node21 -->
<g id="edge24" class="edge">
<title>Node18&#45;&gt;Node21</title>
<path fill="none" stroke="#191970" d="M921.6376,-425.3228C918.1962,-416.1446 913.4167,-401.8807 911.5,-389 908.3447,-367.7956 910.2388,-343.2216 912.3609,-326.4452"/>
<polygon fill="#191970" stroke="#191970" points="915.873,-326.6052 913.8072,-316.2137 908.9419,-325.6254 915.873,-326.6052"/>
</g>
<!-- Node22 -->
<g id="node23" class="node">
<title>Node22</title>
<polygon fill="#ffffff" stroke="#bfbfbf" points="965.5,-297 965.5,-316 1045.5,-316 1045.5,-297 965.5,-297"/>
<text text-anchor="middle" x="1005.5" y="-304" font-family="Helvetica,sans-Serif" font-size="10.00" fill="#000000">GLFW/glfw3.h</text>
</g>
<!-- Node18&#45;&gt;Node22 -->
<g id="edge25" class="edge">
<title>Node18&#45;&gt;Node22</title>
<path fill="none" stroke="#191970" d="M926.8555,-425.3185C929.3459,-410.0209 935.7121,-379.7645 949.5,-358 958.2595,-344.1729 971.6607,-331.6647 983.1572,-322.4386"/>
<polygon fill="#191970" stroke="#191970" points="985.307,-325.2006 991.0982,-316.3286 981.0384,-319.6527 985.307,-325.2006"/>
</g>
<!-- Node23 -->
<g id="node24" class="node">
<title>Node23</title>
<polygon fill="#ffffff" stroke="#bfbfbf" points="1029.5,-364 1029.5,-383 1115.5,-383 1115.5,-364 1029.5,-364"/>
<text text-anchor="middle" x="1072.5" y="-371" font-family="Helvetica,sans-Serif" font-size="10.00" fill="#000000">glm/mat4x4.hpp</text>
</g>
<!-- Node18&#45;&gt;Node23 -->
<g id="edge26" class="edge">
<title>Node18&#45;&gt;Node23</title>
<path fill="none" stroke="#191970" d="M948.4688,-425.3906C973.1724,-415.0554 1012.637,-398.5447 1040.4027,-386.9284"/>
<polygon fill="#191970" stroke="#191970" points="1041.8182,-390.1303 1049.6925,-383.0419 1039.1165,-383.6727 1041.8182,-390.1303"/>
</g>
<!-- Node24 -->
<g id="node25" class="node">
<title>Node24</title>
<polygon fill="#ffffff" stroke="#bfbfbf" points="1133.5,-364 1133.5,-383 1239.5,-383 1239.5,-364 1133.5,-364"/>
<text text-anchor="middle" x="1186.5" y="-371" font-family="Helvetica,sans-Serif" font-size="10.00" fill="#000000">glm/gtc/type_ptr.hpp</text>
</g>
<!-- Node18&#45;&gt;Node24 -->
<g id="edge27" class="edge">
<title>Node18&#45;&gt;Node24</title>
<path fill="none" stroke="#191970" d="M967.8654,-425.4369C1008.1876,-416.2806 1070.5449,-401.9793 1124.5,-389 1129.1757,-387.8752 1134.0454,-386.687 1138.9094,-385.4891"/>
<polygon fill="#191970" stroke="#191970" points="1139.9563,-388.8356 1148.8213,-383.0337 1138.2731,-382.0409 1139.9563,-388.8356"/>
</g>
<!-- Node25 -->
<g id="node26" class="node">
<title>Node25</title>
<polygon fill="#ffffff" stroke="#bfbfbf" points="635.5,-364 635.5,-383 727.5,-383 727.5,-364 635.5,-364"/>
<text text-anchor="middle" x="681.5" y="-371" font-family="Helvetica,sans-Serif" font-size="10.00" fill="#000000">boost/variant.hpp</text>
</g>
<!-- Node18&#45;&gt;Node25 -->
<g id="edge28" class="edge">
<title>Node18&#45;&gt;Node25</title>
<path fill="none" stroke="#191970" d="M885.0712,-425.4791C846.9394,-416.4114 788.2237,-402.2222 737.5,-389 733.4367,-387.9408 729.2143,-386.8163 724.9919,-385.6757"/>
<polygon fill="#191970" stroke="#191970" points="725.7832,-382.2637 715.2145,-383.0082 723.9407,-389.0169 725.7832,-382.2637"/>
</g>
<!-- Node26 -->
<g id="node27" class="node">
<title>Node26</title>
<g id="a_node27"><a xlink:href="_texture_8h.html" target="_top" xlink:title="kryne&#45;engine/Textures\l/Texture.h">
<polygon fill="#ffffff" stroke="#000000" points="746,-358.5 746,-388.5 859,-388.5 859,-358.5 746,-358.5"/>
<text text-anchor="start" x="754" y="-376.5" font-family="Helvetica,sans-Serif" font-size="10.00" fill="#000000">kryne&#45;engine/Textures</text>
<text text-anchor="middle" x="802.5" y="-365.5" font-family="Helvetica,sans-Serif" font-size="10.00" fill="#000000">/Texture.h</text>
</a>
</g>
</g>
<!-- Node18&#45;&gt;Node26 -->
<g id="edge29" class="edge">
<title>Node18&#45;&gt;Node26</title>
<path fill="none" stroke="#191970" d="M906.2813,-425.3906C889.0182,-416.7591 863.1404,-403.8202 841.5447,-393.0224"/>
<polygon fill="#191970" stroke="#191970" points="843.0987,-389.8863 832.5892,-388.5446 839.9682,-396.1473 843.0987,-389.8863"/>
</g>
<!-- Node26&#45;&gt;Node3 -->
<g id="edge39" class="edge">
<title>Node26&#45;&gt;Node3</title>
<path fill="none" stroke="#191970" d="M745.7209,-359.6222C742.6101,-359.0318 739.5215,-358.4852 736.5,-358 559.583,-329.5888 509.4731,-350.1603 328.7476,-322.0475"/>
<polygon fill="#191970" stroke="#191970" points="329.0625,-318.5538 318.638,-320.4458 327.967,-325.4676 329.0625,-318.5538"/>
</g>
<!-- Node26&#45;&gt;Node11 -->
<g id="edge32" class="edge">
<title>Node26&#45;&gt;Node11</title>
<path fill="none" stroke="#191970" d="M814.7109,-358.0749C821.9653,-348.2421 830.8276,-334.9547 836.5,-322 850.6381,-289.711 855.5,-280.2487 855.5,-245 855.5,-245 855.5,-245 855.5,-189 855.5,-148.0986 882.6317,-106.5859 900.4055,-83.7794"/>
<polygon fill="#191970" stroke="#191970" points="903.3447,-85.7105 906.9035,-75.7312 897.8983,-81.3131 903.3447,-85.7105"/>
</g>
<!-- Node26&#45;&gt;Node19 -->
<g id="edge31" class="edge">
<title>Node26&#45;&gt;Node19</title>
<path fill="none" stroke="#191970" d="M859.2484,-366.4594C911.1241,-358.963 989.4411,-344.9582 1054.5,-322 1055.9166,-321.5001 1057.3502,-320.945 1058.7832,-320.3507"/>
<polygon fill="#191970" stroke="#191970" points="1060.4617,-323.4299 1068.0449,-316.0308 1057.5027,-317.086 1060.4617,-323.4299"/>
</g>
<!-- Node26&#45;&gt;Node21 -->
<g id="edge37" class="edge">
<title>Node26&#45;&gt;Node21</title>
<path fill="none" stroke="#191970" d="M827.8594,-358.4639C846.5631,-347.3741 871.8881,-332.3584 890.505,-321.32"/>
<polygon fill="#191970" stroke="#191970" points="892.4857,-324.2147 899.3023,-316.1039 888.9156,-318.1935 892.4857,-324.2147"/>
</g>
<!-- Node26&#45;&gt;Node22 -->
<g id="edge38" class="edge">
<title>Node26&#45;&gt;Node22</title>
<path fill="none" stroke="#191970" d="M848.0572,-358.4639C883.9121,-346.63 933.3113,-330.3258 967.1593,-319.1543"/>
<polygon fill="#191970" stroke="#191970" points="968.3012,-322.4632 976.7004,-316.0053 966.1073,-315.8159 968.3012,-322.4632"/>
</g>
<!-- Node27 -->
<g id="node28" class="node">
<title>Node27</title>
<polygon fill="#ffffff" stroke="#bfbfbf" points="631.5,-297 631.5,-316 701.5,-316 701.5,-297 631.5,-297"/>
<text text-anchor="middle" x="666.5" y="-304" font-family="Helvetica,sans-Serif" font-size="10.00" fill="#000000">stb_image.h</text>
</g>
<!-- Node26&#45;&gt;Node27 -->
<g id="edge30" class="edge">
<title>Node26&#45;&gt;Node27</title>
<path fill="none" stroke="#191970" d="M771.9789,-358.4639C748.9543,-347.1209 717.5928,-331.6707 695.0606,-320.5703"/>
<polygon fill="#191970" stroke="#191970" points="696.5118,-317.3836 685.9945,-316.1039 693.4183,-323.6629 696.5118,-317.3836"/>
</g>
<!-- Node28 -->
<g id="node29" class="node">
<title>Node28</title>
<polygon fill="#ffffff" stroke="#bfbfbf" points="720,-297 720,-316 827,-316 827,-297 720,-297"/>
<text text-anchor="middle" x="773.5" y="-304" font-family="Helvetica,sans-Serif" font-size="10.00" fill="#000000">boost/filesystem.hpp</text>
</g>
<!-- Node26&#45;&gt;Node28 -->
<g id="edge33" class="edge">
<title>Node26&#45;&gt;Node28</title>
<path fill="none" stroke="#191970" d="M795.9195,-358.2967C791.7082,-348.5672 786.2113,-335.8675 781.7145,-325.4784"/>
<polygon fill="#191970" stroke="#191970" points="784.8201,-323.8419 777.6357,-316.055 778.396,-326.6225 784.8201,-323.8419"/>
</g>
<!-- Node29 -->
<g id="node30" class="node">
<title>Node29</title>
<polygon fill="#ffffff" stroke="#bfbfbf" points="336.5,-297 336.5,-316 426.5,-316 426.5,-297 336.5,-297"/>
<text text-anchor="middle" x="381.5" y="-304" font-family="Helvetica,sans-Serif" font-size="10.00" fill="#000000">boost/format.hpp</text>
</g>
<!-- Node26&#45;&gt;Node29 -->
<g id="edge34" class="edge">
<title>Node26&#45;&gt;Node29</title>
<path fill="none" stroke="#191970" d="M745.7016,-359.7363C742.5958,-359.1165 739.5136,-358.5324 736.5,-358 603.8232,-334.5618 567.5648,-348.6717 435.5,-322 430.8452,-321.0599 426.0078,-319.9168 421.2255,-318.6818"/>
<polygon fill="#191970" stroke="#191970" points="422.131,-315.301 411.563,-316.0536 420.2937,-322.0556 422.131,-315.301"/>
</g>
<!-- Node30 -->
<g id="node31" class="node">
<title>Node30</title>
<polygon fill="#ffffff" stroke="#bfbfbf" points="445,-297 445,-316 520,-316 520,-297 445,-297"/>
<text text-anchor="middle" x="482.5" y="-304" font-family="Helvetica,sans-Serif" font-size="10.00" fill="#000000">glm/vec2.hpp</text>
</g>
<!-- Node26&#45;&gt;Node30 -->
<g id="edge35" class="edge">
<title>Node26&#45;&gt;Node30</title>
<path fill="none" stroke="#191970" d="M745.6648,-359.9298C742.5684,-359.26 739.4983,-358.6123 736.5,-358 645.0071,-339.3173 620.0839,-344.6839 529.5,-322 526.062,-321.139 522.5116,-320.1531 518.9743,-319.1048"/>
<polygon fill="#191970" stroke="#191970" points="519.7332,-315.6752 509.1445,-316.0374 517.6479,-322.3574 519.7332,-315.6752"/>
</g>
<!-- Node31 -->
<g id="node32" class="node">
<title>Node31</title>
<polygon fill="#ffffff" stroke="#bfbfbf" points="538,-297 538,-316 613,-316 613,-297 538,-297"/>
<text text-anchor="middle" x="575.5" y="-304" font-family="Helvetica,sans-Serif" font-size="10.00" fill="#000000">glm/vec3.hpp</text>
</g>
<!-- Node26&#45;&gt;Node31 -->
<g id="edge36" class="edge">
<title>Node26&#45;&gt;Node31</title>
<path fill="none" stroke="#191970" d="M747.585,-358.401C711.8476,-348.4242 664.2831,-334.8615 622.5,-322 619.5566,-321.094 616.516,-320.1378 613.4632,-319.1633"/>
<polygon fill="#191970" stroke="#191970" points="614.3666,-315.777 603.7748,-316.0271 612.2108,-322.4368 614.3666,-315.777"/>
</g>
<!-- Node32&#45;&gt;Node11 -->
<g id="edge44" class="edge">
<title>Node32&#45;&gt;Node11</title>
<path fill="none" stroke="#191970" d="M1332.0147,-363.9865C1353.3966,-356.0931 1380.3196,-342.7488 1396.5,-322 1418.176,-294.204 1415.5,-280.2487 1415.5,-245 1415.5,-245 1415.5,-245 1415.5,-189 1415.5,-93.7523 1069.0453,-71.8474 952.9219,-67.1805"/>
<polygon fill="#191970" stroke="#191970" points="952.8634,-63.6758 942.7373,-66.7921 952.5966,-70.6707 952.8634,-63.6758"/>
</g>
<!-- Node32&#45;&gt;Node19 -->
<g id="edge42" class="edge">
<title>Node32&#45;&gt;Node19</title>
<path fill="none" stroke="#191970" d="M1268.8034,-363.9938C1262.1226,-361.9744 1255.0837,-359.8843 1248.5,-358 1189.2131,-341.0317 1172.0014,-344.2812 1114.5,-322 1113.2701,-321.5234 1112.0246,-321.0109 1110.7758,-320.4724"/>
<polygon fill="#191970" stroke="#191970" points="1111.8767,-317.121 1101.3411,-316.0022 1108.8794,-323.4469 1111.8767,-317.121"/>
</g>
<!-- Node32&#45;&gt;Node20 -->
<g id="edge41" class="edge">
<title>Node32&#45;&gt;Node20</title>
<path fill="none" stroke="#191970" d="M1280.1578,-363.9005C1257.3013,-352.5569 1219.073,-333.5844 1192.8666,-320.5783"/>
<polygon fill="#191970" stroke="#191970" points="1194.3198,-317.3922 1183.8063,-316.0817 1191.2079,-323.6624 1194.3198,-317.3922"/>
</g>
<!-- Node33 -->
<g id="node34" class="node">
<title>Node33</title>
<polygon fill="#ffffff" stroke="#bfbfbf" points="1337.5,-297 1337.5,-316 1387.5,-316 1387.5,-297 1337.5,-297"/>
<text text-anchor="middle" x="1362.5" y="-304" font-family="Helvetica,sans-Serif" font-size="10.00" fill="#000000">fstream</text>
</g>
<!-- Node32&#45;&gt;Node33 -->
<g id="edge43" class="edge">
<title>Node32&#45;&gt;Node33</title>
<path fill="none" stroke="#191970" d="M1308.5264,-363.9005C1318.4442,-353.353 1334.5641,-336.2096 1346.6091,-323.3998"/>
<polygon fill="#191970" stroke="#191970" points="1349.1899,-325.7645 1353.4904,-316.0817 1344.0903,-320.9693 1349.1899,-325.7645"/>
</g>
<!-- Node34 -->
<g id="node35" class="node">
<title>Node34</title>
<g id="a_node35"><a xlink:href="kryne-engine_2_utils_2_utils_8h.html" target="_top" xlink:title="kryne&#45;engine/Utils\l/Utils.h">
<polygon fill="#ffffff" stroke="#000000" points="1224,-291.5 1224,-321.5 1319,-321.5 1319,-291.5 1224,-291.5"/>
<text text-anchor="start" x="1232" y="-309.5" font-family="Helvetica,sans-Serif" font-size="10.00" fill="#000000">kryne&#45;engine/Utils</text>
<text text-anchor="middle" x="1271.5" y="-298.5" font-family="Helvetica,sans-Serif" font-size="10.00" fill="#000000">/Utils.h</text>
</a>
</g>
</g>
<!-- Node32&#45;&gt;Node34 -->
<g id="edge45" class="edge">
<title>Node32&#45;&gt;Node34</title>
<path fill="none" stroke="#191970" d="M1295.4883,-363.9005C1291.9094,-355.3368 1286.5135,-342.4252 1281.7452,-331.0152"/>
<polygon fill="#191970" stroke="#191970" points="1284.8631,-329.3989 1277.7778,-321.5218 1278.4044,-332.0981 1284.8631,-329.3989"/>
</g>
<!-- Node35 -->
<g id="node36" class="node">
<title>Node35</title>
<g id="a_node36"><a xlink:href="_string_utils_8hpp.html" target="_top" xlink:title="StringUtils.hpp">
<polygon fill="#ffffff" stroke="#000000" points="935,-118 935,-137 1016,-137 1016,-118 935,-118"/>
<text text-anchor="middle" x="975.5" y="-125" font-family="Helvetica,sans-Serif" font-size="10.00" fill="#000000">StringUtils.hpp</text>
</a>
</g>
</g>
<!-- Node34&#45;&gt;Node35 -->
<g id="edge46" class="edge">
<title>Node34&#45;&gt;Node35</title>
<path fill="none" stroke="#191970" d="M1246.5183,-291.3928C1190.6538,-257.6099 1056.1657,-176.281 1000.3886,-142.5509"/>
<polygon fill="#191970" stroke="#191970" points="1001.8972,-139.373 991.5291,-137.1932 998.2749,-145.3629 1001.8972,-139.373"/>
</g>
<!-- Node36 -->
<g id="node37" class="node">
<title>Node36</title>
<g id="a_node37"><a xlink:href="_vector_mapping_8hpp.html" target="_top" xlink:title="VectorMapping.hpp">
<polygon fill="#ffffff" stroke="#000000" points="1221,-235.5 1221,-254.5 1322,-254.5 1322,-235.5 1221,-235.5"/>
<text text-anchor="middle" x="1271.5" y="-242.5" font-family="Helvetica,sans-Serif" font-size="10.00" fill="#000000">VectorMapping.hpp</text>
</a>
</g>
</g>
<!-- Node34&#45;&gt;Node36 -->
<g id="edge48" class="edge">
<title>Node34&#45;&gt;Node36</title>
<path fill="none" stroke="#191970" d="M1271.5,-291.2977C1271.5,-283.3834 1271.5,-273.6043 1271.5,-265.0759"/>
<polygon fill="#191970" stroke="#191970" points="1275.0001,-264.8469 1271.5,-254.8469 1268.0001,-264.847 1275.0001,-264.8469"/>
</g>
<!-- Node35&#45;&gt;Node11 -->
<g id="edge47" class="edge">
<title>Node35&#45;&gt;Node11</title>
<path fill="none" stroke="#191970" d="M966.125,-117.8906C957.0201,-108.5581 943.0026,-94.1902 932.0243,-82.9374"/>
<polygon fill="#191970" stroke="#191970" points="934.4957,-80.4586 925.0072,-75.7449 929.4852,-85.3468 934.4957,-80.4586"/>
</g>
<!-- Node37 -->
<g id="node38" class="node">
<title>Node37</title>
<polygon fill="#ffffff" stroke="#bfbfbf" points="1182.5,-179.5 1182.5,-198.5 1226.5,-198.5 1226.5,-179.5 1182.5,-179.5"/>
<text text-anchor="middle" x="1204.5" y="-186.5" font-family="Helvetica,sans-Serif" font-size="10.00" fill="#000000">vector</text>
</g>
<!-- Node36&#45;&gt;Node37 -->
<g id="edge49" class="edge">
<title>Node36&#45;&gt;Node37</title>
<path fill="none" stroke="#191970" d="M1259.8295,-235.2455C1249.9339,-226.9746 1235.5373,-214.9416 1223.9099,-205.2232"/>
<polygon fill="#191970" stroke="#191970" points="1225.9542,-202.3703 1216.0368,-198.6427 1221.465,-207.7413 1225.9542,-202.3703"/>
</g>
<!-- Node38 -->
<g id="node39" class="node">
<title>Node38</title>
<polygon fill="#ffffff" stroke="#bfbfbf" points="1244.5,-179.5 1244.5,-198.5 1358.5,-198.5 1358.5,-179.5 1244.5,-179.5"/>
<text text-anchor="middle" x="1301.5" y="-186.5" font-family="Helvetica,sans-Serif" font-size="10.00" fill="#000000">glm/detail/qualifier.hpp</text>
</g>
<!-- Node36&#45;&gt;Node38 -->
<g id="edge50" class="edge">
<title>Node36&#45;&gt;Node38</title>
<path fill="none" stroke="#191970" d="M1276.7256,-235.2455C1280.8123,-227.617 1286.6135,-216.7881 1291.575,-207.5267"/>
<polygon fill="#191970" stroke="#191970" points="1294.6972,-209.1103 1296.3343,-198.6427 1288.5268,-205.8047 1294.6972,-209.1103"/>
</g>
</g>
</svg>
