<?xml version="1.0" encoding="UTF-8" standalone="no"?>
<!DOCTYPE svg PUBLIC "-//W3C//DTD SVG 1.1//EN"
 "http://www.w3.org/Graphics/SVG/1.1/DTD/svg11.dtd">
<!-- Generated by graphviz version 2.44.1 (20200629.0846)
 -->
<!-- Title: kryne&#45;engine/include/kryne&#45;engine/Material/Shader.h Pages: 1 -->
<svg width="1346pt" height="408pt"
 viewBox="0.00 0.00 1345.50 408.00" xmlns="http://www.w3.org/2000/svg" xmlns:xlink="http://www.w3.org/1999/xlink">
<g id="graph0" class="graph" transform="scale(1 1) rotate(0) translate(4 404)">
<title>kryne&#45;engine/include/kryne&#45;engine/Material/Shader.h</title>
<polygon fill="white" stroke="transparent" points="-4,4 -4,-404 1341.5,-404 1341.5,4 -4,4"/>
<!-- Node1 -->
<g id="node1" class="node">
<title>Node1</title>
<g id="a_node1"><a xlink:title=" ">
<polygon fill="#bfbfbf" stroke="black" points="279,-358.5 279,-399.5 392,-399.5 392,-358.5 279,-358.5"/>
<text text-anchor="start" x="287" y="-387.5" font-family="Helvetica,sans-Serif" font-size="10.00">kryne&#45;engine/include</text>
<text text-anchor="start" x="287" y="-376.5" font-family="Helvetica,sans-Serif" font-size="10.00">/kryne&#45;engine/Material</text>
<text text-anchor="middle" x="335.5" y="-365.5" font-family="Helvetica,sans-Serif" font-size="10.00">/Shader.h</text>
</a>
</g>
</g>
<!-- Node2 -->
<g id="node2" class="node">
<title>Node2</title>
<g id="a_node2"><a xlink:title=" ">
<polygon fill="white" stroke="#bfbfbf" points="155,-297 155,-316 190,-316 190,-297 155,-297"/>
<text text-anchor="middle" x="172.5" y="-304" font-family="Helvetica,sans-Serif" font-size="10.00">map</text>
</a>
</g>
</g>
<!-- Node1&#45;&gt;Node2 -->
<g id="edge1" class="edge">
<title>Node1&#45;&gt;Node2</title>
<path fill="none" stroke="midnightblue" d="M284.59,-358.47C258.81,-348.22 227.2,-335.1 199.5,-322 198.66,-321.6 197.81,-321.19 196.95,-320.77"/>
<polygon fill="midnightblue" stroke="midnightblue" points="198.28,-317.52 187.78,-316.06 195.07,-323.74 198.28,-317.52"/>
</g>
<!-- Node3 -->
<g id="node3" class="node">
<title>Node3</title>
<g id="a_node3"><a xlink:title=" ">
<polygon fill="white" stroke="#bfbfbf" points="208.5,-297 208.5,-316 260.5,-316 260.5,-297 208.5,-297"/>
<text text-anchor="middle" x="234.5" y="-304" font-family="Helvetica,sans-Serif" font-size="10.00">sstream</text>
</a>
</g>
</g>
<!-- Node1&#45;&gt;Node3 -->
<g id="edge2" class="edge">
<title>Node1&#45;&gt;Node3</title>
<path fill="none" stroke="midnightblue" d="M307.37,-358.36C290.93,-346.89 270.54,-332.65 255.51,-322.16"/>
<polygon fill="midnightblue" stroke="midnightblue" points="257.13,-319.03 246.93,-316.17 253.12,-324.77 257.13,-319.03"/>
</g>
<!-- Node4 -->
<g id="node4" class="node">
<title>Node4</title>
<g id="a_node4"><a xlink:href="_dispatcher_8h.html" target="_top" xlink:title=" ">
<polygon fill="white" stroke="black" points="279,-291.5 279,-321.5 392,-321.5 392,-291.5 279,-291.5"/>
<text text-anchor="start" x="287" y="-309.5" font-family="Helvetica,sans-Serif" font-size="10.00">kryne&#45;engine/Dispatch</text>
<text text-anchor="middle" x="335.5" y="-298.5" font-family="Helvetica,sans-Serif" font-size="10.00">/Dispatcher.h</text>
</a>
</g>
</g>
<!-- Node1&#45;&gt;Node4 -->
<g id="edge3" class="edge">
<title>Node1&#45;&gt;Node4</title>
<path fill="none" stroke="midnightblue" d="M335.5,-358.36C335.5,-350.23 335.5,-340.7 335.5,-332.11"/>
<polygon fill="midnightblue" stroke="midnightblue" points="339,-331.89 335.5,-321.89 332,-331.89 339,-331.89"/>
</g>
<!-- Node18 -->
<g id="node18" class="node">
<title>Node18</title>
<g id="a_node18"><a xlink:href="_uniforms_handler_8h.html" target="_top" xlink:title=" ">
<polygon fill="white" stroke="black" points="562.5,-179.5 562.5,-198.5 658.5,-198.5 658.5,-179.5 562.5,-179.5"/>
<text text-anchor="middle" x="610.5" y="-186.5" font-family="Helvetica,sans-Serif" font-size="10.00">UniformsHandler.h</text>
</a>
</g>
</g>
<!-- Node1&#45;&gt;Node18 -->
<g id="edge23" class="edge">
<title>Node1&#45;&gt;Node18</title>
<path fill="none" stroke="midnightblue" d="M364.15,-358.41C419.59,-320.51 540.39,-237.93 589.31,-204.49"/>
<polygon fill="midnightblue" stroke="midnightblue" points="591.55,-207.19 597.83,-198.66 587.6,-201.42 591.55,-207.19"/>
</g>
<!-- Node31 -->
<g id="node31" class="node">
<title>Node31</title>
<g id="a_node31"><a xlink:href="_shader_chunk_8h.html" target="_top" xlink:title=" ">
<polygon fill="white" stroke="black" points="1031,-179.5 1031,-198.5 1114,-198.5 1114,-179.5 1031,-179.5"/>
<text text-anchor="middle" x="1072.5" y="-186.5" font-family="Helvetica,sans-Serif" font-size="10.00">ShaderChunk.h</text>
</a>
</g>
</g>
<!-- Node1&#45;&gt;Node31 -->
<g id="edge40" class="edge">
<title>Node1&#45;&gt;Node31</title>
<path fill="none" stroke="midnightblue" d="M392.11,-363.56C534.04,-327.35 902.75,-233.3 1029.2,-201.05"/>
<polygon fill="midnightblue" stroke="midnightblue" points="1030.1,-204.43 1038.93,-198.56 1028.37,-197.64 1030.1,-204.43"/>
</g>
<!-- Node5 -->
<g id="node5" class="node">
<title>Node5</title>
<g id="a_node5"><a xlink:href="_synchronizable_pool_8h.html" target="_top" xlink:title=" ">
<polygon fill="white" stroke="black" points="219,-179.5 219,-198.5 330,-198.5 330,-179.5 219,-179.5"/>
<text text-anchor="middle" x="274.5" y="-186.5" font-family="Helvetica,sans-Serif" font-size="10.00">SynchronizablePool.h</text>
</a>
</g>
</g>
<!-- Node4&#45;&gt;Node5 -->
<g id="edge4" class="edge">
<title>Node4&#45;&gt;Node5</title>
<path fill="none" stroke="midnightblue" d="M333.77,-291.5C331.49,-276.7 326.53,-253.06 316.5,-235 310.36,-223.96 300.94,-213.52 292.57,-205.48"/>
<polygon fill="midnightblue" stroke="midnightblue" points="294.75,-202.73 285.01,-198.56 290.03,-207.9 294.75,-202.73"/>
</g>
<!-- Node15 -->
<g id="node15" class="node">
<title>Node15</title>
<g id="a_node15"><a xlink:href="_runner_pool_8h.html" target="_top" xlink:title=" ">
<polygon fill="white" stroke="black" points="81,-179.5 81,-198.5 156,-198.5 156,-179.5 81,-179.5"/>
<text text-anchor="middle" x="118.5" y="-186.5" font-family="Helvetica,sans-Serif" font-size="10.00">RunnerPool.h</text>
</a>
</g>
</g>
<!-- Node4&#45;&gt;Node15 -->
<g id="edge16" class="edge">
<title>Node4&#45;&gt;Node15</title>
<path fill="none" stroke="midnightblue" d="M305.82,-291.34C285.35,-281.44 257.6,-267.76 233.5,-255 201.44,-238.02 165.08,-217.2 141.99,-203.78"/>
<polygon fill="midnightblue" stroke="midnightblue" points="143.64,-200.69 133.24,-198.68 140.12,-206.74 143.64,-200.69"/>
</g>
<!-- Node17 -->
<g id="node17" class="node">
<title>Node17</title>
<g id="a_node17"><a xlink:href="_main_pool_8h.html" target="_top" xlink:title=" ">
<polygon fill="white" stroke="black" points="242,-235.5 242,-254.5 307,-254.5 307,-235.5 242,-235.5"/>
<text text-anchor="middle" x="274.5" y="-242.5" font-family="Helvetica,sans-Serif" font-size="10.00">MainPool.h</text>
</a>
</g>
</g>
<!-- Node4&#45;&gt;Node17 -->
<g id="edge21" class="edge">
<title>Node4&#45;&gt;Node17</title>
<path fill="none" stroke="midnightblue" d="M321.04,-291.4C311.91,-282.49 300.08,-270.95 290.64,-261.74"/>
<polygon fill="midnightblue" stroke="midnightblue" points="292.98,-259.13 283.38,-254.66 288.09,-264.15 292.98,-259.13"/>
</g>
<!-- Node6 -->
<g id="node6" class="node">
<title>Node6</title>
<g id="a_node6"><a xlink:href="_base_pool_8h.html" target="_top" xlink:title=" ">
<polygon fill="white" stroke="black" points="146,-56.5 146,-75.5 213,-75.5 213,-56.5 146,-56.5"/>
<text text-anchor="middle" x="179.5" y="-63.5" font-family="Helvetica,sans-Serif" font-size="10.00">BasePool.h</text>
</a>
</g>
</g>
<!-- Node5&#45;&gt;Node6 -->
<g id="edge5" class="edge">
<title>Node5&#45;&gt;Node6</title>
<path fill="none" stroke="midnightblue" d="M250.09,-179.41C233.17,-172.23 211.42,-160.33 198.5,-143 186.08,-126.34 181.72,-102.51 180.22,-85.99"/>
<polygon fill="midnightblue" stroke="midnightblue" points="183.71,-85.66 179.57,-75.9 176.72,-86.1 183.71,-85.66"/>
</g>
<!-- Node14 -->
<g id="node14" class="node">
<title>Node14</title>
<g id="a_node14"><a xlink:href="_synchronizable_child_pool_8h.html" target="_top" xlink:title=" ">
<polygon fill="white" stroke="black" points="208,-118 208,-137 341,-137 341,-118 208,-118"/>
<text text-anchor="middle" x="274.5" y="-125" font-family="Helvetica,sans-Serif" font-size="10.00">SynchronizableChildPool.h</text>
</a>
</g>
</g>
<!-- Node5&#45;&gt;Node14 -->
<g id="edge13" class="edge">
<title>Node5&#45;&gt;Node14</title>
<path fill="none" stroke="midnightblue" d="M269.6,-179.48C267.77,-171.08 267.3,-157.98 268.19,-147.16"/>
<polygon fill="midnightblue" stroke="midnightblue" points="271.69,-147.4 269.6,-137.01 264.75,-146.43 271.69,-147.4"/>
</g>
<!-- Node7 -->
<g id="node7" class="node">
<title>Node7</title>
<g id="a_node7"><a xlink:title=" ">
<polygon fill="white" stroke="#bfbfbf" points="190.5,-0.5 190.5,-19.5 234.5,-19.5 234.5,-0.5 190.5,-0.5"/>
<text text-anchor="middle" x="212.5" y="-7.5" font-family="Helvetica,sans-Serif" font-size="10.00">thread</text>
</a>
</g>
</g>
<!-- Node6&#45;&gt;Node7 -->
<g id="edge6" class="edge">
<title>Node6&#45;&gt;Node7</title>
<path fill="none" stroke="midnightblue" d="M184.95,-56.08C189.51,-48.61 196.17,-37.72 201.79,-28.52"/>
<polygon fill="midnightblue" stroke="midnightblue" points="204.92,-30.11 207.15,-19.75 198.95,-26.46 204.92,-30.11"/>
</g>
<!-- Node8 -->
<g id="node8" class="node">
<title>Node8</title>
<g id="a_node8"><a xlink:title=" ">
<polygon fill="white" stroke="#bfbfbf" points="252.5,-0.5 252.5,-19.5 296.5,-19.5 296.5,-0.5 252.5,-0.5"/>
<text text-anchor="middle" x="274.5" y="-7.5" font-family="Helvetica,sans-Serif" font-size="10.00">mutex</text>
</a>
</g>
</g>
<!-- Node6&#45;&gt;Node8 -->
<g id="edge7" class="edge">
<title>Node6&#45;&gt;Node8</title>
<path fill="none" stroke="midnightblue" d="M194.76,-56.32C209.72,-47.82 232.75,-34.73 250.23,-24.8"/>
<polygon fill="midnightblue" stroke="midnightblue" points="252.31,-27.64 259.27,-19.65 248.85,-21.55 252.31,-27.64"/>
</g>
<!-- Node9 -->
<g id="node9" class="node">
<title>Node9</title>
<g id="a_node9"><a xlink:title=" ">
<polygon fill="white" stroke="#bfbfbf" points="315,-0.5 315,-19.5 408,-19.5 408,-0.5 315,-0.5"/>
<text text-anchor="middle" x="361.5" y="-7.5" font-family="Helvetica,sans-Serif" font-size="10.00">condition_variable</text>
</a>
</g>
</g>
<!-- Node6&#45;&gt;Node9 -->
<g id="edge8" class="edge">
<title>Node6&#45;&gt;Node9</title>
<path fill="none" stroke="midnightblue" d="M208.34,-56.44C239.36,-47.24 288.83,-32.56 323.12,-22.39"/>
<polygon fill="midnightblue" stroke="midnightblue" points="324.21,-25.72 332.8,-19.52 322.21,-19.01 324.21,-25.72"/>
</g>
<!-- Node10 -->
<g id="node10" class="node">
<title>Node10</title>
<g id="a_node10"><a xlink:title=" ">
<polygon fill="white" stroke="#bfbfbf" points="0,-0.5 0,-19.5 43,-19.5 43,-0.5 0,-0.5"/>
<text text-anchor="middle" x="21.5" y="-7.5" font-family="Helvetica,sans-Serif" font-size="10.00">queue</text>
</a>
</g>
</g>
<!-- Node6&#45;&gt;Node10 -->
<g id="edge9" class="edge">
<title>Node6&#45;&gt;Node10</title>
<path fill="none" stroke="midnightblue" d="M154.46,-56.44C126.95,-47.04 82.69,-31.91 52.88,-21.72"/>
<polygon fill="midnightblue" stroke="midnightblue" points="53.96,-18.4 43.37,-18.47 51.7,-25.02 53.96,-18.4"/>
</g>
<!-- Node11 -->
<g id="node11" class="node">
<title>Node11</title>
<g id="a_node11"><a xlink:title=" ">
<polygon fill="white" stroke="#bfbfbf" points="61,-0.5 61,-19.5 102,-19.5 102,-0.5 61,-0.5"/>
<text text-anchor="middle" x="81.5" y="-7.5" font-family="Helvetica,sans-Serif" font-size="10.00">future</text>
</a>
</g>
</g>
<!-- Node6&#45;&gt;Node11 -->
<g id="edge10" class="edge">
<title>Node6&#45;&gt;Node11</title>
<path fill="none" stroke="midnightblue" d="M163.75,-56.32C148.18,-47.74 124.12,-34.49 106.04,-24.52"/>
<polygon fill="midnightblue" stroke="midnightblue" points="107.65,-21.42 97.21,-19.65 104.28,-27.55 107.65,-21.42"/>
</g>
<!-- Node12 -->
<g id="node12" class="node">
<title>Node12</title>
<g id="a_node12"><a xlink:title=" ">
<polygon fill="white" stroke="#bfbfbf" points="120.5,-0.5 120.5,-19.5 172.5,-19.5 172.5,-0.5 120.5,-0.5"/>
<text text-anchor="middle" x="146.5" y="-7.5" font-family="Helvetica,sans-Serif" font-size="10.00">memory</text>
</a>
</g>
</g>
<!-- Node6&#45;&gt;Node12 -->
<g id="edge11" class="edge">
<title>Node6&#45;&gt;Node12</title>
<path fill="none" stroke="midnightblue" d="M174.05,-56.08C169.49,-48.61 162.83,-37.72 157.21,-28.52"/>
<polygon fill="midnightblue" stroke="midnightblue" points="160.05,-26.46 151.85,-19.75 154.08,-30.11 160.05,-26.46"/>
</g>
<!-- Node13 -->
<g id="node13" class="node">
<title>Node13</title>
<g id="a_node13"><a xlink:title=" ">
<polygon fill="white" stroke="#bfbfbf" points="799.5,-0.5 799.5,-19.5 853.5,-19.5 853.5,-0.5 799.5,-0.5"/>
<text text-anchor="middle" x="826.5" y="-7.5" font-family="Helvetica,sans-Serif" font-size="10.00">iostream</text>
</a>
</g>
</g>
<!-- Node6&#45;&gt;Node13 -->
<g id="edge12" class="edge">
<title>Node6&#45;&gt;Node13</title>
<path fill="none" stroke="midnightblue" d="M213.2,-60.1C223.84,-58.65 235.65,-57.15 246.5,-56 450.83,-34.37 696.7,-18.7 789.04,-13.18"/>
<polygon fill="midnightblue" stroke="midnightblue" points="789.5,-16.65 799.27,-12.57 789.08,-9.67 789.5,-16.65"/>
</g>
<!-- Node14&#45;&gt;Node5 -->
<g id="edge15" class="edge">
<title>Node14&#45;&gt;Node5</title>
<path fill="none" stroke="midnightblue" d="M279.4,-137.01C281.23,-145.4 281.7,-158.5 280.82,-169.32"/>
<polygon fill="midnightblue" stroke="midnightblue" points="277.31,-169.09 279.4,-179.48 284.25,-170.05 277.31,-169.09"/>
</g>
<!-- Node14&#45;&gt;Node6 -->
<g id="edge14" class="edge">
<title>Node14&#45;&gt;Node6</title>
<path fill="none" stroke="midnightblue" d="M260.89,-117.98C245.44,-108.3 220.01,-92.37 201.68,-80.89"/>
<polygon fill="midnightblue" stroke="midnightblue" points="203.42,-77.85 193.09,-75.51 199.7,-83.78 203.42,-77.85"/>
</g>
<!-- Node15&#45;&gt;Node6 -->
<g id="edge17" class="edge">
<title>Node15&#45;&gt;Node6</title>
<path fill="none" stroke="midnightblue" d="M107.35,-179.32C90.28,-164.95 61.15,-135.46 76.5,-112 89.75,-91.75 114.33,-80.56 136.16,-74.4"/>
<polygon fill="midnightblue" stroke="midnightblue" points="137.11,-77.77 145.94,-71.91 135.39,-70.99 137.11,-77.77"/>
</g>
<!-- Node16 -->
<g id="node16" class="node">
<title>Node16</title>
<g id="a_node16"><a xlink:href="_child_pool_8h.html" target="_top" xlink:title=" ">
<polygon fill="white" stroke="black" points="85.5,-118 85.5,-137 151.5,-137 151.5,-118 85.5,-118"/>
<text text-anchor="middle" x="118.5" y="-125" font-family="Helvetica,sans-Serif" font-size="10.00">ChildPool.h</text>
</a>
</g>
</g>
<!-- Node15&#45;&gt;Node16 -->
<g id="edge18" class="edge">
<title>Node15&#45;&gt;Node16</title>
<path fill="none" stroke="midnightblue" d="M113.6,-179.48C111.77,-171.08 111.3,-157.98 112.19,-147.16"/>
<polygon fill="midnightblue" stroke="midnightblue" points="115.69,-147.4 113.6,-137.01 108.75,-146.43 115.69,-147.4"/>
</g>
<!-- Node16&#45;&gt;Node6 -->
<g id="edge19" class="edge">
<title>Node16&#45;&gt;Node6</title>
<path fill="none" stroke="midnightblue" d="M127.24,-117.98C136.66,-108.78 151.86,-93.96 163.45,-82.66"/>
<polygon fill="midnightblue" stroke="midnightblue" points="166.06,-85 170.78,-75.51 161.17,-79.99 166.06,-85"/>
</g>
<!-- Node16&#45;&gt;Node15 -->
<g id="edge20" class="edge">
<title>Node16&#45;&gt;Node15</title>
<path fill="none" stroke="midnightblue" d="M123.4,-137.01C125.23,-145.4 125.7,-158.5 124.82,-169.32"/>
<polygon fill="midnightblue" stroke="midnightblue" points="121.31,-169.09 123.4,-179.48 128.25,-170.05 121.31,-169.09"/>
</g>
<!-- Node17&#45;&gt;Node5 -->
<g id="edge22" class="edge">
<title>Node17&#45;&gt;Node5</title>
<path fill="none" stroke="midnightblue" d="M274.5,-235.08C274.5,-228.01 274.5,-217.86 274.5,-208.99"/>
<polygon fill="midnightblue" stroke="midnightblue" points="278,-208.75 274.5,-198.75 271,-208.75 278,-208.75"/>
</g>
<!-- Node19 -->
<g id="node19" class="node">
<title>Node19</title>
<g id="a_node19"><a xlink:title=" ">
<polygon fill="white" stroke="#bfbfbf" points="893,-56.5 893,-75.5 934,-75.5 934,-56.5 893,-56.5"/>
<text text-anchor="middle" x="913.5" y="-63.5" font-family="Helvetica,sans-Serif" font-size="10.00">string</text>
</a>
</g>
</g>
<!-- Node18&#45;&gt;Node19 -->
<g id="edge24" class="edge">
<title>Node18&#45;&gt;Node19</title>
<path fill="none" stroke="midnightblue" d="M658.69,-186.62C730.52,-183.56 860.86,-173.81 894.5,-143 910.3,-128.53 913.85,-103.1 914.24,-85.67"/>
<polygon fill="midnightblue" stroke="midnightblue" points="917.74,-85.53 914.14,-75.57 910.74,-85.6 917.74,-85.53"/>
</g>
<!-- Node20 -->
<g id="node20" class="node">
<title>Node20</title>
<g id="a_node20"><a xlink:title=" ">
<polygon fill="white" stroke="#bfbfbf" points="942,-118 942,-137 1025,-137 1025,-118 942,-118"/>
<text text-anchor="middle" x="983.5" y="-125" font-family="Helvetica,sans-Serif" font-size="10.00">unordered_map</text>
</a>
</g>
</g>
<!-- Node18&#45;&gt;Node20 -->
<g id="edge25" class="edge">
<title>Node18&#45;&gt;Node20</title>
<path fill="none" stroke="midnightblue" d="M658.58,-182.88C720.94,-175.85 832.93,-161.89 927.5,-143 932.6,-141.98 937.93,-140.78 943.19,-139.51"/>
<polygon fill="midnightblue" stroke="midnightblue" points="944.27,-142.85 953.13,-137.03 942.58,-136.06 944.27,-142.85"/>
</g>
<!-- Node21 -->
<g id="node21" class="node">
<title>Node21</title>
<g id="a_node21"><a xlink:title=" ">
<polygon fill="white" stroke="#bfbfbf" points="787.5,-56.5 787.5,-75.5 851.5,-75.5 851.5,-56.5 787.5,-56.5"/>
<text text-anchor="middle" x="819.5" y="-63.5" font-family="Helvetica,sans-Serif" font-size="10.00">glad/glad.h</text>
</a>
</g>
</g>
<!-- Node18&#45;&gt;Node21 -->
<g id="edge26" class="edge">
<title>Node18&#45;&gt;Node21</title>
<path fill="none" stroke="midnightblue" d="M594.72,-179.47C582.3,-171.77 565.89,-159.18 558.5,-143 552.77,-130.47 549.58,-122.5 558.5,-112 588.82,-76.31 714.93,-84.25 777.17,-75.87"/>
<polygon fill="midnightblue" stroke="midnightblue" points="777.99,-79.28 787.3,-74.24 776.88,-72.37 777.99,-79.28"/>
</g>
<!-- Node22 -->
<g id="node22" class="node">
<title>Node22</title>
<g id="a_node22"><a xlink:title=" ">
<polygon fill="white" stroke="#bfbfbf" points="255.5,-56.5 255.5,-75.5 333.5,-75.5 333.5,-56.5 255.5,-56.5"/>
<text text-anchor="middle" x="294.5" y="-63.5" font-family="Helvetica,sans-Serif" font-size="10.00">GLFW/glfw3.h</text>
</a>
</g>
</g>
<!-- Node18&#45;&gt;Node22 -->
<g id="edge27" class="edge">
<title>Node18&#45;&gt;Node22</title>
<path fill="none" stroke="midnightblue" d="M562.33,-184.75C516.13,-180.15 445.35,-169.15 389.5,-143 388.41,-142.49 340.71,-104.18 313.33,-82.15"/>
<polygon fill="midnightblue" stroke="midnightblue" points="315.22,-79.18 305.24,-75.64 310.83,-84.64 315.22,-79.18"/>
</g>
<!-- Node23 -->
<g id="node23" class="node">
<title>Node23</title>
<g id="a_node23"><a xlink:title=" ">
<polygon fill="white" stroke="#bfbfbf" points="567.5,-118 567.5,-137 653.5,-137 653.5,-118 567.5,-118"/>
<text text-anchor="middle" x="610.5" y="-125" font-family="Helvetica,sans-Serif" font-size="10.00">glm/mat4x4.hpp</text>
</a>
</g>
</g>
<!-- Node18&#45;&gt;Node23 -->
<g id="edge28" class="edge">
<title>Node18&#45;&gt;Node23</title>
<path fill="none" stroke="midnightblue" d="M610.5,-179.48C610.5,-171.08 610.5,-157.98 610.5,-147.16"/>
<polygon fill="midnightblue" stroke="midnightblue" points="614,-147.01 610.5,-137.01 607,-147.01 614,-147.01"/>
</g>
<!-- Node24 -->
<g id="node24" class="node">
<title>Node24</title>
<g id="a_node24"><a xlink:title=" ">
<polygon fill="white" stroke="#bfbfbf" points="671.5,-118 671.5,-137 777.5,-137 777.5,-118 671.5,-118"/>
<text text-anchor="middle" x="724.5" y="-125" font-family="Helvetica,sans-Serif" font-size="10.00">glm/gtc/type_ptr.hpp</text>
</a>
</g>
</g>
<!-- Node18&#45;&gt;Node24 -->
<g id="edge29" class="edge">
<title>Node18&#45;&gt;Node24</title>
<path fill="none" stroke="midnightblue" d="M626.83,-179.48C645.71,-169.62 677.01,-153.29 699.08,-141.77"/>
<polygon fill="midnightblue" stroke="midnightblue" points="700.95,-144.74 708.2,-137.01 697.71,-138.53 700.95,-144.74"/>
</g>
<!-- Node25 -->
<g id="node25" class="node">
<title>Node25</title>
<g id="a_node25"><a xlink:title=" ">
<polygon fill="white" stroke="#bfbfbf" points="795.5,-118 795.5,-137 885.5,-137 885.5,-118 795.5,-118"/>
<text text-anchor="middle" x="840.5" y="-125" font-family="Helvetica,sans-Serif" font-size="10.00">boost/variant.hpp</text>
</a>
</g>
</g>
<!-- Node18&#45;&gt;Node25 -->
<g id="edge30" class="edge">
<title>Node18&#45;&gt;Node25</title>
<path fill="none" stroke="midnightblue" d="M644.27,-179.49C679.73,-170.53 737.08,-155.95 786.5,-143 790.57,-141.93 794.8,-140.81 799.04,-139.69"/>
<polygon fill="midnightblue" stroke="midnightblue" points="800.06,-143.04 808.82,-137.07 798.26,-136.27 800.06,-143.04"/>
</g>
<!-- Node26 -->
<g id="node26" class="node">
<title>Node26</title>
<g id="a_node26"><a xlink:href="_texture_8h.html" target="_top" xlink:title=" ">
<polygon fill="white" stroke="black" points="398,-112.5 398,-142.5 511,-142.5 511,-112.5 398,-112.5"/>
<text text-anchor="start" x="406" y="-130.5" font-family="Helvetica,sans-Serif" font-size="10.00">kryne&#45;engine/Textures</text>
<text text-anchor="middle" x="454.5" y="-119.5" font-family="Helvetica,sans-Serif" font-size="10.00">/Texture.h</text>
</a>
</g>
</g>
<!-- Node18&#45;&gt;Node26 -->
<g id="edge31" class="edge">
<title>Node18&#45;&gt;Node26</title>
<path fill="none" stroke="midnightblue" d="M588.15,-179.48C565.44,-170.81 529.6,-157.15 500.75,-146.14"/>
<polygon fill="midnightblue" stroke="midnightblue" points="501.86,-142.82 491.27,-142.52 499.36,-149.36 501.86,-142.82"/>
</g>
<!-- Node26&#45;&gt;Node13 -->
<g id="edge34" class="edge">
<title>Node26&#45;&gt;Node13</title>
<path fill="none" stroke="midnightblue" d="M421.74,-112.43C394.09,-98.64 361.76,-76.73 380.5,-56 407.72,-25.89 686.76,-14.97 789.12,-11.96"/>
<polygon fill="midnightblue" stroke="midnightblue" points="789.4,-15.45 799.3,-11.67 789.21,-8.46 789.4,-15.45"/>
</g>
<!-- Node26&#45;&gt;Node19 -->
<g id="edge33" class="edge">
<title>Node26&#45;&gt;Node19</title>
<path fill="none" stroke="midnightblue" d="M511.15,-118.39C526.5,-116.25 543.13,-113.99 558.5,-112 692.56,-94.67 726.72,-95.32 860.5,-76 867.78,-74.95 875.61,-73.69 882.95,-72.45"/>
<polygon fill="midnightblue" stroke="midnightblue" points="883.64,-75.89 892.9,-70.74 882.45,-68.99 883.64,-75.89"/>
</g>
<!-- Node26&#45;&gt;Node21 -->
<g id="edge38" class="edge">
<title>Node26&#45;&gt;Node21</title>
<path fill="none" stroke="midnightblue" d="M511.02,-114.64C515.91,-113.71 520.79,-112.82 525.5,-112 634.24,-93.18 665,-96.01 777.29,-76.1"/>
<polygon fill="midnightblue" stroke="midnightblue" points="778.09,-79.51 787.32,-74.3 776.86,-72.62 778.09,-79.51"/>
</g>
<!-- Node26&#45;&gt;Node22 -->
<g id="edge39" class="edge">
<title>Node26&#45;&gt;Node22</title>
<path fill="none" stroke="midnightblue" d="M416.58,-112.4C389.38,-102.28 353.1,-88.79 327.17,-79.15"/>
<polygon fill="midnightblue" stroke="midnightblue" points="328.37,-75.86 317.78,-75.66 325.93,-82.42 328.37,-75.86"/>
</g>
<!-- Node27 -->
<g id="node27" class="node">
<title>Node27</title>
<g id="a_node27"><a xlink:title=" ">
<polygon fill="white" stroke="#bfbfbf" points="389.5,-56.5 389.5,-75.5 459.5,-75.5 459.5,-56.5 389.5,-56.5"/>
<text text-anchor="middle" x="424.5" y="-63.5" font-family="Helvetica,sans-Serif" font-size="10.00">stb_image.h</text>
</a>
</g>
</g>
<!-- Node26&#45;&gt;Node27 -->
<g id="edge32" class="edge">
<title>Node26&#45;&gt;Node27</title>
<path fill="none" stroke="midnightblue" d="M447.39,-112.4C443.21,-104.11 437.89,-93.55 433.43,-84.71"/>
<polygon fill="midnightblue" stroke="midnightblue" points="436.49,-83.01 428.87,-75.66 430.24,-86.16 436.49,-83.01"/>
</g>
<!-- Node28 -->
<g id="node28" class="node">
<title>Node28</title>
<g id="a_node28"><a xlink:title=" ">
<polygon fill="white" stroke="#bfbfbf" points="478,-56.5 478,-75.5 585,-75.5 585,-56.5 478,-56.5"/>
<text text-anchor="middle" x="531.5" y="-63.5" font-family="Helvetica,sans-Serif" font-size="10.00">boost/filesystem.hpp</text>
</a>
</g>
</g>
<!-- Node26&#45;&gt;Node28 -->
<g id="edge35" class="edge">
<title>Node26&#45;&gt;Node28</title>
<path fill="none" stroke="midnightblue" d="M472.75,-112.4C484.63,-103.22 500.11,-91.26 512.19,-81.92"/>
<polygon fill="midnightblue" stroke="midnightblue" points="514.52,-84.54 520.3,-75.66 510.24,-79 514.52,-84.54"/>
</g>
<!-- Node29 -->
<g id="node29" class="node">
<title>Node29</title>
<g id="a_node29"><a xlink:title=" ">
<polygon fill="white" stroke="#bfbfbf" points="603.5,-56.5 603.5,-75.5 677.5,-75.5 677.5,-56.5 603.5,-56.5"/>
<text text-anchor="middle" x="640.5" y="-63.5" font-family="Helvetica,sans-Serif" font-size="10.00">glm/vec2.hpp</text>
</a>
</g>
</g>
<!-- Node26&#45;&gt;Node29 -->
<g id="edge36" class="edge">
<title>Node26&#45;&gt;Node29</title>
<path fill="none" stroke="midnightblue" d="M498.58,-112.4C530.72,-102.12 573.76,-88.35 603.98,-78.68"/>
<polygon fill="midnightblue" stroke="midnightblue" points="605.25,-81.95 613.71,-75.57 603.12,-75.28 605.25,-81.95"/>
</g>
<!-- Node30 -->
<g id="node30" class="node">
<title>Node30</title>
<g id="a_node30"><a xlink:title=" ">
<polygon fill="white" stroke="#bfbfbf" points="695.5,-56.5 695.5,-75.5 769.5,-75.5 769.5,-56.5 695.5,-56.5"/>
<text text-anchor="middle" x="732.5" y="-63.5" font-family="Helvetica,sans-Serif" font-size="10.00">glm/vec3.hpp</text>
</a>
</g>
</g>
<!-- Node26&#45;&gt;Node30 -->
<g id="edge37" class="edge">
<title>Node26&#45;&gt;Node30</title>
<path fill="none" stroke="midnightblue" d="M511.09,-114.39C562.37,-103.41 637.08,-87.42 685.24,-77.12"/>
<polygon fill="midnightblue" stroke="midnightblue" points="686.05,-80.52 695.09,-75.01 684.58,-73.68 686.05,-80.52"/>
</g>
<!-- Node31&#45;&gt;Node13 -->
<g id="edge44" class="edge">
<title>Node31&#45;&gt;Node13</title>
<path fill="none" stroke="midnightblue" d="M1073.26,-179.5C1074.17,-164.33 1073.92,-132.29 1058.5,-112 1010.78,-49.21 915.89,-24.82 863.46,-15.84"/>
<polygon fill="midnightblue" stroke="midnightblue" points="864,-12.39 853.57,-14.25 862.88,-19.3 864,-12.39"/>
</g>
<!-- Node31&#45;&gt;Node19 -->
<g id="edge42" class="edge">
<title>Node31&#45;&gt;Node19</title>
<path fill="none" stroke="midnightblue" d="M1070.45,-179.43C1066.3,-163.86 1055.47,-130.82 1034.5,-112 1009.03,-89.13 970.88,-77.53 944.25,-71.9"/>
<polygon fill="midnightblue" stroke="midnightblue" points="944.8,-68.44 934.31,-69.95 943.45,-75.31 944.8,-68.44"/>
</g>
<!-- Node31&#45;&gt;Node20 -->
<g id="edge41" class="edge">
<title>Node31&#45;&gt;Node20</title>
<path fill="none" stroke="midnightblue" d="M1059.75,-179.48C1045.47,-169.93 1022.1,-154.31 1004.99,-142.87"/>
<polygon fill="midnightblue" stroke="midnightblue" points="1006.49,-139.66 996.23,-137.01 1002.6,-145.48 1006.49,-139.66"/>
</g>
<!-- Node32 -->
<g id="node32" class="node">
<title>Node32</title>
<g id="a_node32"><a xlink:title=" ">
<polygon fill="white" stroke="#bfbfbf" points="1233,-118 1233,-137 1282,-137 1282,-118 1233,-118"/>
<text text-anchor="middle" x="1257.5" y="-125" font-family="Helvetica,sans-Serif" font-size="10.00">fstream</text>
</a>
</g>
</g>
<!-- Node31&#45;&gt;Node32 -->
<g id="edge43" class="edge">
<title>Node31&#45;&gt;Node32</title>
<path fill="none" stroke="midnightblue" d="M1105.8,-179.44C1136.86,-171.15 1184.31,-157.71 1224.5,-143 1226.16,-142.39 1227.85,-141.75 1229.55,-141.07"/>
<polygon fill="midnightblue" stroke="midnightblue" points="1231.29,-144.13 1239.17,-137.05 1228.59,-137.68 1231.29,-144.13"/>
</g>
<!-- Node33 -->
<g id="node33" class="node">
<title>Node33</title>
<g id="a_node33"><a xlink:href="kryne-engine_2_utils_2_utils_8h.html" target="_top" xlink:title=" ">
<polygon fill="white" stroke="black" points="1120,-112.5 1120,-142.5 1215,-142.5 1215,-112.5 1120,-112.5"/>
<text text-anchor="start" x="1128" y="-130.5" font-family="Helvetica,sans-Serif" font-size="10.00">kryne&#45;engine/Utils</text>
<text text-anchor="middle" x="1167.5" y="-119.5" font-family="Helvetica,sans-Serif" font-size="10.00">/Utils.h</text>
</a>
</g>
</g>
<!-- Node31&#45;&gt;Node33 -->
<g id="edge45" class="edge">
<title>Node31&#45;&gt;Node33</title>
<path fill="none" stroke="midnightblue" d="M1086.11,-179.48C1099.22,-171.27 1119.51,-158.56 1136.55,-147.88"/>
<polygon fill="midnightblue" stroke="midnightblue" points="1138.49,-150.8 1145.11,-142.52 1134.78,-144.86 1138.49,-150.8"/>
</g>
<!-- Node34 -->
<g id="node34" class="node">
<title>Node34</title>
<g id="a_node34"><a xlink:href="_string_utils_8hpp.html" target="_top" xlink:title=" ">
<polygon fill="white" stroke="black" points="1119.5,-56.5 1119.5,-75.5 1199.5,-75.5 1199.5,-56.5 1119.5,-56.5"/>
<text text-anchor="middle" x="1159.5" y="-63.5" font-family="Helvetica,sans-Serif" font-size="10.00">StringUtils.hpp</text>
</a>
</g>
</g>
<!-- Node33&#45;&gt;Node34 -->
<g id="edge46" class="edge">
<title>Node33&#45;&gt;Node34</title>
<path fill="none" stroke="midnightblue" d="M1165.6,-112.4C1164.53,-104.38 1163.16,-94.23 1162,-85.57"/>
<polygon fill="midnightblue" stroke="midnightblue" points="1165.47,-85.1 1160.66,-75.66 1158.53,-86.04 1165.47,-85.1"/>
</g>
<!-- Node35 -->
<g id="node35" class="node">
<title>Node35</title>
<g id="a_node35"><a xlink:href="_vector_mapping_8hpp.html" target="_top" xlink:title=" ">
<polygon fill="white" stroke="black" points="1218,-56.5 1218,-75.5 1319,-75.5 1319,-56.5 1218,-56.5"/>
<text text-anchor="middle" x="1268.5" y="-63.5" font-family="Helvetica,sans-Serif" font-size="10.00">VectorMapping.hpp</text>
</a>
</g>
</g>
<!-- Node33&#45;&gt;Node35 -->
<g id="edge48" class="edge">
<title>Node33&#45;&gt;Node35</title>
<path fill="none" stroke="midnightblue" d="M1191.44,-112.4C1207.63,-102.86 1228.91,-90.32 1245,-80.84"/>
<polygon fill="midnightblue" stroke="midnightblue" points="1246.96,-83.75 1253.8,-75.66 1243.41,-77.72 1246.96,-83.75"/>
</g>
<!-- Node34&#45;&gt;Node13 -->
<g id="edge47" class="edge">
<title>Node34&#45;&gt;Node13</title>
<path fill="none" stroke="midnightblue" d="M1119.4,-58.29C1114.71,-57.52 1110,-56.74 1105.5,-56 1019.03,-41.82 917.42,-25.52 863.88,-16.97"/>
<polygon fill="midnightblue" stroke="midnightblue" points="864.26,-13.48 853.83,-15.36 863.16,-20.39 864.26,-13.48"/>
</g>
<!-- Node36 -->
<g id="node36" class="node">
<title>Node36</title>
<g id="a_node36"><a xlink:title=" ">
<polygon fill="white" stroke="#bfbfbf" points="1295.5,-0.5 1295.5,-19.5 1337.5,-19.5 1337.5,-0.5 1295.5,-0.5"/>
<text text-anchor="middle" x="1316.5" y="-7.5" font-family="Helvetica,sans-Serif" font-size="10.00">vector</text>
</a>
</g>
</g>
<!-- Node35&#45;&gt;Node36 -->
<g id="edge49" class="edge">
<title>Node35&#45;&gt;Node36</title>
<path fill="none" stroke="midnightblue" d="M1276.43,-56.08C1283.35,-48.3 1293.57,-36.8 1301.95,-27.37"/>
<polygon fill="midnightblue" stroke="midnightblue" points="1304.69,-29.55 1308.72,-19.75 1299.46,-24.9 1304.69,-29.55"/>
</g>
<!-- Node37 -->
<g id="node37" class="node">
<title>Node37</title>
<g id="a_node37"><a xlink:title=" ">
<polygon fill="white" stroke="#bfbfbf" points="1164,-0.5 1164,-19.5 1277,-19.5 1277,-0.5 1164,-0.5"/>
<text text-anchor="middle" x="1220.5" y="-7.5" font-family="Helvetica,sans-Serif" font-size="10.00">glm/detail/qualifier.hpp</text>
</a>
</g>
</g>
<!-- Node35&#45;&gt;Node37 -->
<g id="edge50" class="edge">
<title>Node35&#45;&gt;Node37</title>
<path fill="none" stroke="midnightblue" d="M1260.57,-56.08C1253.65,-48.3 1243.43,-36.8 1235.05,-27.37"/>
<polygon fill="midnightblue" stroke="midnightblue" points="1237.54,-24.9 1228.28,-19.75 1232.31,-29.55 1237.54,-24.9"/>
</g>
</g>
</svg>
