<?xml version="1.0" encoding="UTF-8" standalone="no"?>
<!DOCTYPE svg PUBLIC "-//W3C//DTD SVG 1.1//EN"
 "http://www.w3.org/Graphics/SVG/1.1/DTD/svg11.dtd">
<!-- Generated by graphviz version 2.40.1 (20161225.0304)
 -->
<!-- Title: kryne&#45;engine/include/kryne&#45;engine/Dispatch/SynchronizablePool.h Pages: 1 -->
<svg width="545pt" height="218pt"
 viewBox="0.00 0.00 544.50 218.00" xmlns="http://www.w3.org/2000/svg" xmlns:xlink="http://www.w3.org/1999/xlink">
<g id="graph0" class="graph" transform="scale(1 1) rotate(0) translate(4 214)">
<title>kryne&#45;engine/include/kryne&#45;engine/Dispatch/SynchronizablePool.h</title>
<polygon fill="#ffffff" stroke="transparent" points="-4,4 -4,-214 540.5,-214 540.5,4 -4,4"/>
<!-- Node0 -->
<g id="node1" class="node">
<title>Node0</title>
<polygon fill="#bfbfbf" stroke="#000000" points="199.5,-168.5 199.5,-209.5 316.5,-209.5 316.5,-168.5 199.5,-168.5"/>
<text text-anchor="start" x="207.5" y="-197.5" font-family="Helvetica,sans-Serif" font-size="10.00" fill="#000000">kryne&#45;engine/include</text>
<text text-anchor="start" x="207.5" y="-186.5" font-family="Helvetica,sans-Serif" font-size="10.00" fill="#000000">/kryne&#45;engine/Dispatch</text>
<text text-anchor="middle" x="258" y="-175.5" font-family="Helvetica,sans-Serif" font-size="10.00" fill="#000000">/SynchronizablePool.h</text>
</g>
<!-- Node1 -->
<g id="node2" class="node">
<title>Node1</title>
<g id="a_node2"><a xlink:href="_thread_pool_8h.html" target="_top" xlink:title="ThreadPool.h">
<polygon fill="#ffffff" stroke="#000000" points="221,-112.5 221,-131.5 295,-131.5 295,-112.5 221,-112.5"/>
<text text-anchor="middle" x="258" y="-119.5" font-family="Helvetica,sans-Serif" font-size="10.00" fill="#000000">ThreadPool.h</text>
</a>
</g>
</g>
<!-- Node0&#45;&gt;Node1 -->
<g id="edge1" class="edge">
<title>Node0&#45;&gt;Node1</title>
<path fill="none" stroke="#191970" d="M258,-168.168C258,-159.8226 258,-150.2471 258,-141.9879"/>
<polygon fill="#191970" stroke="#191970" points="261.5001,-141.7804 258,-131.7805 254.5001,-141.7805 261.5001,-141.7804"/>
</g>
<!-- Node2 -->
<g id="node3" class="node">
<title>Node2</title>
<polygon fill="#ffffff" stroke="#bfbfbf" points="0,-56.5 0,-75.5 44,-75.5 44,-56.5 0,-56.5"/>
<text text-anchor="middle" x="22" y="-63.5" font-family="Helvetica,sans-Serif" font-size="10.00" fill="#000000">thread</text>
</g>
<!-- Node1&#45;&gt;Node2 -->
<g id="edge2" class="edge">
<title>Node1&#45;&gt;Node2</title>
<path fill="none" stroke="#191970" d="M220.7151,-114.7007C181.4547,-106.7796 117.6743,-93.2475 54.0689,-76.1208"/>
<polygon fill="#191970" stroke="#191970" points="54.8463,-72.7052 44.2781,-73.4551 53.0074,-79.4593 54.8463,-72.7052"/>
</g>
<!-- Node3 -->
<g id="node4" class="node">
<title>Node3</title>
<polygon fill="#ffffff" stroke="#bfbfbf" points="62,-56.5 62,-75.5 106,-75.5 106,-56.5 62,-56.5"/>
<text text-anchor="middle" x="84" y="-63.5" font-family="Helvetica,sans-Serif" font-size="10.00" fill="#000000">mutex</text>
</g>
<!-- Node1&#45;&gt;Node3 -->
<g id="edge3" class="edge">
<title>Node1&#45;&gt;Node3</title>
<path fill="none" stroke="#191970" d="M228.4192,-112.4923C201.4203,-103.8127 160.162,-90.5448 115.5756,-76.1838"/>
<polygon fill="#191970" stroke="#191970" points="116.6062,-72.8387 106.0147,-73.104 114.4599,-79.5016 116.6062,-72.8387"/>
</g>
<!-- Node4 -->
<g id="node5" class="node">
<title>Node4</title>
<polygon fill="#ffffff" stroke="#bfbfbf" points="124.5,-56.5 124.5,-75.5 219.5,-75.5 219.5,-56.5 124.5,-56.5"/>
<text text-anchor="middle" x="172" y="-63.5" font-family="Helvetica,sans-Serif" font-size="10.00" fill="#000000">condition_variable</text>
</g>
<!-- Node1&#45;&gt;Node4 -->
<g id="edge4" class="edge">
<title>Node1&#45;&gt;Node4</title>
<path fill="none" stroke="#191970" d="M243.0199,-112.2455C229.8249,-103.6534 210.3949,-91.0014 195.1921,-81.1018"/>
<polygon fill="#191970" stroke="#191970" points="197.0983,-78.1665 186.8084,-75.6427 193.2785,-84.0325 197.0983,-78.1665"/>
</g>
<!-- Node5 -->
<g id="node6" class="node">
<title>Node5</title>
<polygon fill="#ffffff" stroke="#bfbfbf" points="237.5,-56.5 237.5,-75.5 278.5,-75.5 278.5,-56.5 237.5,-56.5"/>
<text text-anchor="middle" x="258" y="-63.5" font-family="Helvetica,sans-Serif" font-size="10.00" fill="#000000">future</text>
</g>
<!-- Node1&#45;&gt;Node5 -->
<g id="edge5" class="edge">
<title>Node1&#45;&gt;Node5</title>
<path fill="none" stroke="#191970" d="M258,-112.2455C258,-104.9382 258,-94.6944 258,-85.7046"/>
<polygon fill="#191970" stroke="#191970" points="261.5001,-85.6426 258,-75.6427 254.5001,-85.6427 261.5001,-85.6426"/>
</g>
<!-- Node6 -->
<g id="node7" class="node">
<title>Node6</title>
<polygon fill="#ffffff" stroke="#bfbfbf" points="297,-56.5 297,-75.5 349,-75.5 349,-56.5 297,-56.5"/>
<text text-anchor="middle" x="323" y="-63.5" font-family="Helvetica,sans-Serif" font-size="10.00" fill="#000000">memory</text>
</g>
<!-- Node1&#45;&gt;Node6 -->
<g id="edge6" class="edge">
<title>Node1&#45;&gt;Node6</title>
<path fill="none" stroke="#191970" d="M269.3221,-112.2455C278.9223,-103.9746 292.8892,-91.9416 304.1695,-82.2232"/>
<polygon fill="#191970" stroke="#191970" points="306.516,-84.8214 311.8076,-75.6427 301.947,-79.5182 306.516,-84.8214"/>
</g>
<!-- Node7 -->
<g id="node8" class="node">
<title>Node7</title>
<polygon fill="#ffffff" stroke="#bfbfbf" points="367,-56.5 367,-75.5 421,-75.5 421,-56.5 367,-56.5"/>
<text text-anchor="middle" x="394" y="-63.5" font-family="Helvetica,sans-Serif" font-size="10.00" fill="#000000">iostream</text>
</g>
<!-- Node1&#45;&gt;Node7 -->
<g id="edge7" class="edge">
<title>Node1&#45;&gt;Node7</title>
<path fill="none" stroke="#191970" d="M281.3792,-112.3733C303.5045,-103.2629 336.9134,-89.5062 361.6019,-79.3404"/>
<polygon fill="#191970" stroke="#191970" points="363.0117,-82.5451 370.9258,-75.5011 360.3464,-76.0723 363.0117,-82.5451"/>
</g>
<!-- Node8 -->
<g id="node9" class="node">
<title>Node8</title>
<g id="a_node9"><a xlink:href="_base_pool_8h.html" target="_top" xlink:title="BasePool.h">
<polygon fill="#ffffff" stroke="#000000" points="439.5,-56.5 439.5,-75.5 506.5,-75.5 506.5,-56.5 439.5,-56.5"/>
<text text-anchor="middle" x="473" y="-63.5" font-family="Helvetica,sans-Serif" font-size="10.00" fill="#000000">BasePool.h</text>
</a>
</g>
</g>
<!-- Node1&#45;&gt;Node8 -->
<g id="edge8" class="edge">
<title>Node1&#45;&gt;Node8</title>
<path fill="none" stroke="#191970" d="M294.9598,-112.3733C332.2911,-102.6498 389.9423,-87.6336 429.4652,-77.3393"/>
<polygon fill="#191970" stroke="#191970" points="430.5541,-80.6725 439.349,-74.7649 428.7897,-73.8985 430.5541,-80.6725"/>
</g>
<!-- Node9 -->
<g id="node10" class="node">
<title>Node9</title>
<polygon fill="#ffffff" stroke="#bfbfbf" points="416.5,-.5 416.5,-19.5 459.5,-19.5 459.5,-.5 416.5,-.5"/>
<text text-anchor="middle" x="438" y="-7.5" font-family="Helvetica,sans-Serif" font-size="10.00" fill="#000000">queue</text>
</g>
<!-- Node8&#45;&gt;Node9 -->
<g id="edge9" class="edge">
<title>Node8&#45;&gt;Node9</title>
<path fill="none" stroke="#191970" d="M466.9035,-56.2455C462.0855,-48.5367 455.2249,-37.5598 449.3968,-28.2348"/>
<polygon fill="#191970" stroke="#191970" points="452.2947,-26.2677 444.0267,-19.6427 446.3587,-29.9777 452.2947,-26.2677"/>
</g>
<!-- Node10 -->
<g id="node11" class="node">
<title>Node10</title>
<polygon fill="#ffffff" stroke="#bfbfbf" points="477.5,-.5 477.5,-19.5 536.5,-19.5 536.5,-.5 477.5,-.5"/>
<text text-anchor="middle" x="507" y="-7.5" font-family="Helvetica,sans-Serif" font-size="10.00" fill="#000000">functional</text>
</g>
<!-- Node8&#45;&gt;Node10 -->
<g id="edge10" class="edge">
<title>Node8&#45;&gt;Node10</title>
<path fill="none" stroke="#191970" d="M478.9223,-56.2455C483.6027,-48.5367 490.2673,-37.5598 495.9289,-28.2348"/>
<polygon fill="#191970" stroke="#191970" points="498.9475,-30.007 501.1455,-19.6427 492.9639,-26.3741 498.9475,-30.007"/>
</g>
</g>
</svg>
