<?xml version="1.0" encoding="UTF-8" standalone="no"?>
<!DOCTYPE svg PUBLIC "-//W3C//DTD SVG 1.1//EN"
 "http://www.w3.org/Graphics/SVG/1.1/DTD/svg11.dtd">
<!-- Generated by graphviz version 2.44.1 (20200629.0846)
 -->
<!-- Title: kryne&#45;engine/include/kryne&#45;engine/enums/SystemTypes.h Pages: 1 -->
<svg width="1655pt" height="786pt"
 viewBox="0.00 0.00 1655.00 786.00" xmlns="http://www.w3.org/2000/svg" xmlns:xlink="http://www.w3.org/1999/xlink">
<g id="graph0" class="graph" transform="scale(1 1) rotate(0) translate(4 782)">
<title>kryne&#45;engine/include/kryne&#45;engine/enums/SystemTypes.h</title>
<polygon fill="white" stroke="transparent" points="-4,4 -4,-782 1651,-782 1651,4 -4,4"/>
<!-- Node1 -->
<g id="node1" class="node">
<title>Node1</title>
<g id="a_node1"><a xlink:title=" ">
<polygon fill="#bfbfbf" stroke="black" points="406,-747.5 406,-777.5 585,-777.5 585,-747.5 406,-747.5"/>
<text text-anchor="start" x="414" y="-765.5" font-family="Helvetica,sans-Serif" font-size="10.00">kryne&#45;engine/include</text>
<text text-anchor="middle" x="495.5" y="-754.5" font-family="Helvetica,sans-Serif" font-size="10.00">/kryne&#45;engine/enums/SystemTypes.h</text>
</a>
</g>
</g>
<!-- Node2 -->
<g id="node2" class="node">
<title>Node2</title>
<g id="a_node2"><a xlink:href="_system_8h.html" target="_top" xlink:title=" ">
<polygon fill="white" stroke="black" points="424,-680.5 424,-710.5 567,-710.5 567,-680.5 424,-680.5"/>
<text text-anchor="start" x="432" y="-698.5" font-family="Helvetica,sans-Serif" font-size="10.00">kryne&#45;engine/include</text>
<text text-anchor="middle" x="495.5" y="-687.5" font-family="Helvetica,sans-Serif" font-size="10.00">/kryne&#45;engine/Core/System.h</text>
</a>
</g>
</g>
<!-- Node1&#45;&gt;Node2 -->
<g id="edge1" class="edge">
<title>Node1&#45;&gt;Node2</title>
<path fill="none" stroke="midnightblue" d="M495.5,-737.11C495.5,-728.15 495.5,-718.32 495.5,-710.58"/>
<polygon fill="midnightblue" stroke="midnightblue" points="492,-737.4 495.5,-747.4 499,-737.4 492,-737.4"/>
</g>
<!-- Node3 -->
<g id="node3" class="node">
<title>Node3</title>
<g id="a_node3"><a xlink:href="_process_8h.html" target="_top" xlink:title=" ">
<polygon fill="white" stroke="black" points="372.5,-608 372.5,-638 518.5,-638 518.5,-608 372.5,-608"/>
<text text-anchor="start" x="380.5" y="-626" font-family="Helvetica,sans-Serif" font-size="10.00">kryne&#45;engine/include</text>
<text text-anchor="middle" x="445.5" y="-615" font-family="Helvetica,sans-Serif" font-size="10.00">/kryne&#45;engine/Core/Process.h</text>
</a>
</g>
</g>
<!-- Node2&#45;&gt;Node3 -->
<g id="edge2" class="edge">
<title>Node2&#45;&gt;Node3</title>
<path fill="none" stroke="midnightblue" d="M473.37,-672.21C464.73,-661.1 455.69,-647.99 450.06,-638.25"/>
<polygon fill="midnightblue" stroke="midnightblue" points="470.83,-674.65 479.83,-680.23 476.28,-670.25 470.83,-674.65"/>
</g>
<!-- Node28 -->
<g id="node28" class="node">
<title>Node28</title>
<g id="a_node28"><a xlink:href="_game_logic_components_runner_8h.html" target="_top" xlink:title=" ">
<polygon fill="white" stroke="black" points="153,-301.5 153,-342.5 316,-342.5 316,-301.5 153,-301.5"/>
<text text-anchor="start" x="161" y="-330.5" font-family="Helvetica,sans-Serif" font-size="10.00">kryne&#45;engine/include</text>
<text text-anchor="start" x="161" y="-319.5" font-family="Helvetica,sans-Serif" font-size="10.00">/kryne&#45;engine/Systems</text>
<text text-anchor="middle" x="234.5" y="-308.5" font-family="Helvetica,sans-Serif" font-size="10.00">/GameLogicComponentsRunner.h</text>
</a>
</g>
</g>
<!-- Node2&#45;&gt;Node28 -->
<g id="edge54" class="edge">
<title>Node2&#45;&gt;Node28</title>
<path fill="none" stroke="midnightblue" d="M413.63,-686.13C333.21,-672.85 222.5,-638.73 222.5,-551.5 222.5,-551.5 222.5,-551.5 222.5,-477 222.5,-428.73 228.43,-372.2 231.96,-342.9"/>
<polygon fill="midnightblue" stroke="midnightblue" points="413.35,-689.63 423.77,-687.72 414.44,-682.71 413.35,-689.63"/>
</g>
<!-- Node36 -->
<g id="node36" class="node">
<title>Node36</title>
<g id="a_node36"><a xlink:href="_transform_update_system_8h.html" target="_top" xlink:title=" ">
<polygon fill="white" stroke="black" points="740,-602.5 740,-643.5 875,-643.5 875,-602.5 740,-602.5"/>
<text text-anchor="start" x="748" y="-631.5" font-family="Helvetica,sans-Serif" font-size="10.00">kryne&#45;engine/include</text>
<text text-anchor="start" x="748" y="-620.5" font-family="Helvetica,sans-Serif" font-size="10.00">/kryne&#45;engine/Systems</text>
<text text-anchor="middle" x="807.5" y="-609.5" font-family="Helvetica,sans-Serif" font-size="10.00">/TransformUpdateSystem.h</text>
</a>
</g>
</g>
<!-- Node2&#45;&gt;Node36 -->
<g id="edge55" class="edge">
<title>Node2&#45;&gt;Node36</title>
<path fill="none" stroke="midnightblue" d="M567.33,-678.27C619.27,-666.53 688.99,-650.78 739.92,-639.27"/>
<polygon fill="midnightblue" stroke="midnightblue" points="566.5,-674.87 557.51,-680.49 568.04,-681.7 566.5,-674.87"/>
</g>
<!-- Node38 -->
<g id="node38" class="node">
<title>Node38</title>
<g id="a_node38"><a xlink:href="_system_8cpp.html" target="_top" xlink:title=" ">
<polygon fill="white" stroke="black" points="574.5,-608 574.5,-638 686.5,-638 686.5,-608 574.5,-608"/>
<text text-anchor="start" x="582.5" y="-626" font-family="Helvetica,sans-Serif" font-size="10.00">kryne&#45;engine/src/Core</text>
<text text-anchor="middle" x="630.5" y="-615" font-family="Helvetica,sans-Serif" font-size="10.00">/System.cpp</text>
</a>
</g>
</g>
<!-- Node2&#45;&gt;Node38 -->
<g id="edge57" class="edge">
<title>Node2&#45;&gt;Node38</title>
<path fill="none" stroke="midnightblue" d="M531.47,-675.72C554.12,-663.89 582.87,-648.87 603.55,-638.07"/>
<polygon fill="midnightblue" stroke="midnightblue" points="529.74,-672.67 522.49,-680.4 532.98,-678.88 529.74,-672.67"/>
</g>
<!-- Node3&#45;&gt;Node2 -->
<g id="edge52" class="edge">
<title>Node3&#45;&gt;Node2</title>
<path fill="none" stroke="midnightblue" d="M467.61,-646.26C476.25,-657.37 485.29,-670.49 490.93,-680.23"/>
<polygon fill="midnightblue" stroke="midnightblue" points="470.15,-643.83 461.15,-638.25 464.7,-648.23 470.15,-643.83"/>
</g>
<!-- Node4 -->
<g id="node4" class="node">
<title>Node4</title>
<g id="a_node4"><a xlink:href="_entity_8h.html" target="_top" xlink:title=" ">
<polygon fill="white" stroke="black" points="599,-535.5 599,-565.5 734,-565.5 734,-535.5 599,-535.5"/>
<text text-anchor="start" x="607" y="-553.5" font-family="Helvetica,sans-Serif" font-size="10.00">kryne&#45;engine/include</text>
<text text-anchor="middle" x="666.5" y="-542.5" font-family="Helvetica,sans-Serif" font-size="10.00">/kryne&#45;engine/Core/Entity.h</text>
</a>
</g>
</g>
<!-- Node3&#45;&gt;Node4 -->
<g id="edge3" class="edge">
<title>Node3&#45;&gt;Node4</title>
<path fill="none" stroke="midnightblue" d="M493.81,-604.7C530.25,-592.68 579.97,-576.86 616.75,-565.61"/>
<polygon fill="midnightblue" stroke="midnightblue" points="492.3,-601.52 483.91,-607.99 494.51,-608.16 492.3,-601.52"/>
</g>
<!-- Node35 -->
<g id="node35" class="node">
<title>Node35</title>
<g id="a_node35"><a xlink:href="_process_8cpp.html" target="_top" xlink:title=" ">
<polygon fill="white" stroke="black" points="250.5,-535.5 250.5,-565.5 362.5,-565.5 362.5,-535.5 250.5,-535.5"/>
<text text-anchor="start" x="258.5" y="-553.5" font-family="Helvetica,sans-Serif" font-size="10.00">kryne&#45;engine/src/Core</text>
<text text-anchor="middle" x="306.5" y="-542.5" font-family="Helvetica,sans-Serif" font-size="10.00">/Process.cpp</text>
</a>
</g>
</g>
<!-- Node3&#45;&gt;Node35 -->
<g id="edge53" class="edge">
<title>Node3&#45;&gt;Node35</title>
<path fill="none" stroke="midnightblue" d="M408.77,-603.37C385.41,-591.52 355.64,-576.42 334.25,-565.57"/>
<polygon fill="midnightblue" stroke="midnightblue" points="407.2,-606.5 417.71,-607.9 410.37,-600.26 407.2,-606.5"/>
</g>
<!-- Node4&#45;&gt;Node2 -->
<g id="edge50" class="edge">
<title>Node4&#45;&gt;Node2</title>
<path fill="none" stroke="midnightblue" d="M619.36,-569.61C601.39,-577.86 581.42,-588.77 565.5,-602 551.09,-613.97 520.67,-657.38 505.11,-680.22"/>
<polygon fill="midnightblue" stroke="midnightblue" points="620.82,-572.79 628.55,-565.54 617.99,-566.39 620.82,-572.79"/>
</g>
<!-- Node4&#45;&gt;Node3 -->
<g id="edge49" class="edge">
<title>Node4&#45;&gt;Node3</title>
<path fill="none" stroke="midnightblue" d="M617.88,-568.9C581.37,-580.94 531.65,-596.76 494.94,-607.99"/>
<polygon fill="midnightblue" stroke="midnightblue" points="619.41,-572.07 627.81,-565.61 617.21,-565.43 619.41,-572.07"/>
</g>
<!-- Node5 -->
<g id="node5" class="node">
<title>Node5</title>
<g id="a_node5"><a xlink:href="_scene_8h.html" target="_top" xlink:title=" ">
<polygon fill="white" stroke="black" points="1150.5,-457.5 1150.5,-498.5 1274.5,-498.5 1274.5,-457.5 1150.5,-457.5"/>
<text text-anchor="start" x="1158.5" y="-486.5" font-family="Helvetica,sans-Serif" font-size="10.00">kryne&#45;engine/include</text>
<text text-anchor="start" x="1158.5" y="-475.5" font-family="Helvetica,sans-Serif" font-size="10.00">/kryne&#45;engine/3DObjects</text>
<text text-anchor="middle" x="1212.5" y="-464.5" font-family="Helvetica,sans-Serif" font-size="10.00">/Scene.h</text>
</a>
</g>
</g>
<!-- Node4&#45;&gt;Node5 -->
<g id="edge4" class="edge">
<title>Node4&#45;&gt;Node5</title>
<path fill="none" stroke="midnightblue" d="M744.06,-534.98C896.13,-511.88 1062.48,-493.96 1150.49,-485.06"/>
<polygon fill="midnightblue" stroke="midnightblue" points="743.42,-531.54 734.06,-536.51 744.48,-538.46 743.42,-531.54"/>
</g>
<!-- Node7 -->
<g id="node7" class="node">
<title>Node7</title>
<g id="a_node7"><a xlink:href="_transform_8h.html" target="_top" xlink:title=" ">
<polygon fill="white" stroke="black" points="1494.5,-379.5 1494.5,-420.5 1618.5,-420.5 1618.5,-379.5 1494.5,-379.5"/>
<text text-anchor="start" x="1502.5" y="-408.5" font-family="Helvetica,sans-Serif" font-size="10.00">kryne&#45;engine/include</text>
<text text-anchor="start" x="1502.5" y="-397.5" font-family="Helvetica,sans-Serif" font-size="10.00">/kryne&#45;engine/3DObjects</text>
<text text-anchor="middle" x="1556.5" y="-386.5" font-family="Helvetica,sans-Serif" font-size="10.00">/Transform.h</text>
</a>
</g>
</g>
<!-- Node4&#45;&gt;Node7 -->
<g id="edge23" class="edge">
<title>Node4&#45;&gt;Node7</title>
<path fill="none" stroke="midnightblue" d="M741.02,-534.22C975.02,-505.9 1042.37,-547.41 1274.5,-499 1358.55,-481.47 1451.74,-443.82 1507.27,-420.63"/>
<polygon fill="midnightblue" stroke="midnightblue" points="740.32,-530.78 730.83,-535.48 741.18,-537.73 740.32,-530.78"/>
</g>
<!-- Node19 -->
<g id="node19" class="node">
<title>Node19</title>
<g id="a_node19"><a xlink:href="kryne-engine_2_camera_2_camera_8h.html" target="_top" xlink:title=" ">
<polygon fill="white" stroke="black" points="869.5,-457.5 869.5,-498.5 981.5,-498.5 981.5,-457.5 869.5,-457.5"/>
<text text-anchor="start" x="877.5" y="-486.5" font-family="Helvetica,sans-Serif" font-size="10.00">kryne&#45;engine/include</text>
<text text-anchor="start" x="877.5" y="-475.5" font-family="Helvetica,sans-Serif" font-size="10.00">/kryne&#45;engine/Camera</text>
<text text-anchor="middle" x="925.5" y="-464.5" font-family="Helvetica,sans-Serif" font-size="10.00">/Camera.h</text>
</a>
</g>
</g>
<!-- Node4&#45;&gt;Node19 -->
<g id="edge24" class="edge">
<title>Node4&#45;&gt;Node19</title>
<path fill="none" stroke="midnightblue" d="M727.73,-532.83C770.59,-521.17 827.43,-505.69 869.18,-494.33"/>
<polygon fill="midnightblue" stroke="midnightblue" points="726.71,-529.48 717.98,-535.49 728.55,-536.24 726.71,-529.48"/>
</g>
<!-- Node26 -->
<g id="node26" class="node">
<title>Node26</title>
<g id="a_node26"><a xlink:href="_component_8h.html" target="_top" xlink:title=" ">
<polygon fill="white" stroke="black" points="587,-463 587,-493 746,-493 746,-463 587,-463"/>
<text text-anchor="start" x="595" y="-481" font-family="Helvetica,sans-Serif" font-size="10.00">kryne&#45;engine/include</text>
<text text-anchor="middle" x="666.5" y="-470" font-family="Helvetica,sans-Serif" font-size="10.00">/kryne&#45;engine/Core/Component.h</text>
</a>
</g>
</g>
<!-- Node4&#45;&gt;Node26 -->
<g id="edge36" class="edge">
<title>Node4&#45;&gt;Node26</title>
<path fill="none" stroke="midnightblue" d="M660.05,-525.23C659.45,-514.57 659.75,-502.41 660.95,-493.25"/>
<polygon fill="midnightblue" stroke="midnightblue" points="656.57,-525.59 660.95,-535.23 663.54,-524.96 656.57,-525.59"/>
</g>
<!-- Node34 -->
<g id="node34" class="node">
<title>Node34</title>
<g id="a_node34"><a xlink:href="_entity_8cpp.html" target="_top" xlink:title=" ">
<polygon fill="white" stroke="black" points="456.5,-463 456.5,-493 568.5,-493 568.5,-463 456.5,-463"/>
<text text-anchor="start" x="464.5" y="-481" font-family="Helvetica,sans-Serif" font-size="10.00">kryne&#45;engine/src/Core</text>
<text text-anchor="middle" x="512.5" y="-470" font-family="Helvetica,sans-Serif" font-size="10.00">/Entity.cpp</text>
</a>
</g>
</g>
<!-- Node4&#45;&gt;Node34 -->
<g id="edge51" class="edge">
<title>Node4&#45;&gt;Node34</title>
<path fill="none" stroke="midnightblue" d="M626.5,-531.19C600.51,-519.29 567.15,-504.02 543.24,-493.07"/>
<polygon fill="midnightblue" stroke="midnightblue" points="625.16,-534.42 635.71,-535.4 628.07,-528.06 625.16,-534.42"/>
</g>
<!-- Node6 -->
<g id="node6" class="node">
<title>Node6</title>
<g id="a_node6"><a xlink:href="3_d_objects_8h.html" target="_top" xlink:title=" ">
<polygon fill="white" stroke="black" points="1365,-307 1365,-337 1492,-337 1492,-307 1365,-307"/>
<text text-anchor="start" x="1373" y="-325" font-family="Helvetica,sans-Serif" font-size="10.00">kryne&#45;engine/include</text>
<text text-anchor="middle" x="1428.5" y="-314" font-family="Helvetica,sans-Serif" font-size="10.00">/KEModules/3DObjects.h</text>
</a>
</g>
</g>
<!-- Node5&#45;&gt;Node6 -->
<g id="edge5" class="edge">
<title>Node5&#45;&gt;Node6</title>
<path fill="none" stroke="midnightblue" d="M1251.63,-451.64C1264.74,-442.53 1279.16,-431.82 1291.5,-421 1310.66,-404.21 1310.55,-394.83 1330.5,-379 1351.68,-362.19 1378.51,-347.23 1398.73,-337.01"/>
<polygon fill="midnightblue" stroke="midnightblue" points="1249.51,-448.84 1243.23,-457.38 1253.46,-454.62 1249.51,-448.84"/>
</g>
<!-- Node5&#45;&gt;Node7 -->
<g id="edge6" class="edge">
<title>Node5&#45;&gt;Node7</title>
<path fill="none" stroke="midnightblue" d="M1284.62,-463.68C1339.85,-453.13 1417.78,-437.46 1485.5,-421 1488.36,-420.3 1491.28,-419.57 1494.23,-418.82"/>
<polygon fill="midnightblue" stroke="midnightblue" points="1283.76,-460.28 1274.59,-465.59 1285.06,-467.16 1283.76,-460.28"/>
</g>
<!-- Node9 -->
<g id="node9" class="node">
<title>Node9</title>
<g id="a_node9"><a xlink:href="_loop_renderer_8h.html" target="_top" xlink:title=" ">
<polygon fill="white" stroke="black" points="586.5,-301.5 586.5,-342.5 708.5,-342.5 708.5,-301.5 586.5,-301.5"/>
<text text-anchor="start" x="594.5" y="-330.5" font-family="Helvetica,sans-Serif" font-size="10.00">kryne&#45;engine/include</text>
<text text-anchor="start" x="594.5" y="-319.5" font-family="Helvetica,sans-Serif" font-size="10.00">/kryne&#45;engine/Rendering</text>
<text text-anchor="middle" x="647.5" y="-308.5" font-family="Helvetica,sans-Serif" font-size="10.00">/LoopRenderer.h</text>
</a>
</g>
</g>
<!-- Node5&#45;&gt;Node9 -->
<g id="edge10" class="edge">
<title>Node5&#45;&gt;Node9</title>
<path fill="none" stroke="midnightblue" d="M1169.06,-452.49C1126.65,-429.71 1059.61,-396.71 997.5,-379 876.84,-344.59 840.39,-368.31 717.5,-343 714.65,-342.41 711.75,-341.77 708.83,-341.09"/>
<polygon fill="midnightblue" stroke="midnightblue" points="1167.52,-455.64 1177.98,-457.32 1170.86,-449.48 1167.52,-455.64"/>
</g>
<!-- Node15 -->
<g id="node15" class="node">
<title>Node15</title>
<g id="a_node15"><a xlink:href="_renderer_8h.html" target="_top" xlink:title=" ">
<polygon fill="white" stroke="black" points="1069.5,-301.5 1069.5,-342.5 1191.5,-342.5 1191.5,-301.5 1069.5,-301.5"/>
<text text-anchor="start" x="1077.5" y="-330.5" font-family="Helvetica,sans-Serif" font-size="10.00">kryne&#45;engine/include</text>
<text text-anchor="start" x="1077.5" y="-319.5" font-family="Helvetica,sans-Serif" font-size="10.00">/kryne&#45;engine/Rendering</text>
<text text-anchor="middle" x="1130.5" y="-308.5" font-family="Helvetica,sans-Serif" font-size="10.00">/Renderer.h</text>
</a>
</g>
</g>
<!-- Node5&#45;&gt;Node15 -->
<g id="edge19" class="edge">
<title>Node5&#45;&gt;Node15</title>
<path fill="none" stroke="midnightblue" d="M1175.07,-450.87C1165.39,-442.39 1155.9,-432.24 1149.5,-421 1135.52,-396.45 1131.64,-363.44 1130.66,-342.69"/>
<polygon fill="midnightblue" stroke="midnightblue" points="1172.89,-453.61 1182.83,-457.3 1177.36,-448.22 1172.89,-453.61"/>
</g>
<!-- Node18 -->
<g id="node18" class="node">
<title>Node18</title>
<g id="a_node18"><a xlink:href="_scene_8cpp.html" target="_top" xlink:title=" ">
<polygon fill="white" stroke="black" points="1339,-385 1339,-415 1476,-415 1476,-385 1339,-385"/>
<text text-anchor="start" x="1347" y="-403" font-family="Helvetica,sans-Serif" font-size="10.00">kryne&#45;engine/src/3DObjects</text>
<text text-anchor="middle" x="1407.5" y="-392" font-family="Helvetica,sans-Serif" font-size="10.00">/Scene.cpp</text>
</a>
</g>
</g>
<!-- Node5&#45;&gt;Node18 -->
<g id="edge22" class="edge">
<title>Node5&#45;&gt;Node18</title>
<path fill="none" stroke="midnightblue" d="M1272.1,-453.77C1304.49,-441.15 1343.5,-425.94 1371.31,-415.11"/>
<polygon fill="midnightblue" stroke="midnightblue" points="1270.76,-450.54 1262.72,-457.43 1273.31,-457.06 1270.76,-450.54"/>
</g>
<!-- Node7&#45;&gt;Node4 -->
<g id="edge8" class="edge">
<title>Node7&#45;&gt;Node4</title>
<path fill="none" stroke="midnightblue" d="M1510.69,-424.85C1458.85,-448.16 1371.63,-482.5 1292.5,-499 1057.03,-548.11 991.12,-504.69 752.5,-535 746.56,-535.75 740.39,-536.68 734.2,-537.69"/>
<polygon fill="midnightblue" stroke="midnightblue" points="1512.3,-427.96 1519.95,-420.63 1509.4,-421.59 1512.3,-427.96"/>
</g>
<!-- Node7&#45;&gt;Node6 -->
<g id="edge7" class="edge">
<title>Node7&#45;&gt;Node6</title>
<path fill="none" stroke="midnightblue" d="M1514.92,-374.31C1494.25,-362.04 1470,-347.64 1452.46,-337.23"/>
<polygon fill="midnightblue" stroke="midnightblue" points="1513.15,-377.33 1523.54,-379.43 1516.73,-371.31 1513.15,-377.33"/>
</g>
<!-- Node8 -->
<g id="node8" class="node">
<title>Node8</title>
<g id="a_node8"><a xlink:href="_transform_8cpp.html" target="_top" xlink:title=" ">
<polygon fill="white" stroke="black" points="1510,-307 1510,-337 1647,-337 1647,-307 1510,-307"/>
<text text-anchor="start" x="1518" y="-325" font-family="Helvetica,sans-Serif" font-size="10.00">kryne&#45;engine/src/3DObjects</text>
<text text-anchor="middle" x="1578.5" y="-314" font-family="Helvetica,sans-Serif" font-size="10.00">/Transform.cpp</text>
</a>
</g>
</g>
<!-- Node7&#45;&gt;Node8 -->
<g id="edge9" class="edge">
<title>Node7&#45;&gt;Node8</title>
<path fill="none" stroke="midnightblue" d="M1565,-369.62C1568.22,-358.5 1571.74,-346.34 1574.38,-337.23"/>
<polygon fill="midnightblue" stroke="midnightblue" points="1561.58,-368.85 1562.17,-379.43 1568.31,-370.8 1561.58,-368.85"/>
</g>
<!-- Node10 -->
<g id="node10" class="node">
<title>Node10</title>
<g id="a_node10"><a xlink:href="_graphic_context_8h.html" target="_top" xlink:title=" ">
<polygon fill="white" stroke="black" points="450,-223.5 450,-264.5 619,-264.5 619,-223.5 450,-223.5"/>
<text text-anchor="start" x="458" y="-252.5" font-family="Helvetica,sans-Serif" font-size="10.00">kryne&#45;engine/include</text>
<text text-anchor="start" x="458" y="-241.5" font-family="Helvetica,sans-Serif" font-size="10.00">/kryne&#45;engine/Core/GraphicContext</text>
<text text-anchor="middle" x="534.5" y="-230.5" font-family="Helvetica,sans-Serif" font-size="10.00">/GraphicContext.h</text>
</a>
</g>
</g>
<!-- Node9&#45;&gt;Node10 -->
<g id="edge11" class="edge">
<title>Node9&#45;&gt;Node10</title>
<path fill="none" stroke="midnightblue" d="M609.79,-295.64C594.7,-285.49 577.59,-273.98 563.5,-264.51"/>
<polygon fill="midnightblue" stroke="midnightblue" points="608.15,-298.75 618.4,-301.43 612.06,-292.94 608.15,-298.75"/>
</g>
<!-- Node12 -->
<g id="node12" class="node">
<title>Node12</title>
<g id="a_node12"><a xlink:href="_open_g_l_renderer_8h.html" target="_top" xlink:title=" ">
<polygon fill="white" stroke="black" points="572.5,-67.5 572.5,-108.5 722.5,-108.5 722.5,-67.5 572.5,-67.5"/>
<text text-anchor="start" x="580.5" y="-96.5" font-family="Helvetica,sans-Serif" font-size="10.00">kryne&#45;engine/include</text>
<text text-anchor="start" x="580.5" y="-85.5" font-family="Helvetica,sans-Serif" font-size="10.00">/kryne&#45;engine/Rendering</text>
<text text-anchor="middle" x="647.5" y="-74.5" font-family="Helvetica,sans-Serif" font-size="10.00">/Renderers/OpenGLRenderer.h</text>
</a>
</g>
</g>
<!-- Node9&#45;&gt;Node12 -->
<g id="edge18" class="edge">
<title>Node9&#45;&gt;Node12</title>
<path fill="none" stroke="midnightblue" d="M647.5,-291.11C647.5,-242.94 647.5,-149.44 647.5,-108.73"/>
<polygon fill="midnightblue" stroke="midnightblue" points="644,-291.22 647.5,-301.22 651,-291.22 644,-291.22"/>
</g>
<!-- Node10&#45;&gt;Node3 -->
<g id="edge17" class="edge">
<title>Node10&#45;&gt;Node3</title>
<path fill="none" stroke="midnightblue" d="M480.77,-270.04C468.14,-278.26 455.93,-288.55 447.5,-301 422.63,-337.74 428.5,-354.63 428.5,-399 428.5,-479 428.5,-479 428.5,-479 428.5,-526.5 437.86,-582.26 442.69,-607.86"/>
<polygon fill="midnightblue" stroke="midnightblue" points="482.83,-272.88 489.53,-264.68 479.18,-266.91 482.83,-272.88"/>
</g>
<!-- Node11 -->
<g id="node11" class="node">
<title>Node11</title>
<g id="a_node11"><a xlink:href="_open_g_l_context_8h.html" target="_top" xlink:title=" ">
<polygon fill="white" stroke="black" points="450,-145.5 450,-186.5 619,-186.5 619,-145.5 450,-145.5"/>
<text text-anchor="start" x="458" y="-174.5" font-family="Helvetica,sans-Serif" font-size="10.00">kryne&#45;engine/include</text>
<text text-anchor="start" x="458" y="-163.5" font-family="Helvetica,sans-Serif" font-size="10.00">/kryne&#45;engine/Core/GraphicContext</text>
<text text-anchor="middle" x="534.5" y="-152.5" font-family="Helvetica,sans-Serif" font-size="10.00">/OpenGLContext.h</text>
</a>
</g>
</g>
<!-- Node10&#45;&gt;Node11 -->
<g id="edge12" class="edge">
<title>Node10&#45;&gt;Node11</title>
<path fill="none" stroke="midnightblue" d="M534.5,-213.3C534.5,-204.3 534.5,-194.65 534.5,-186.51"/>
<polygon fill="midnightblue" stroke="midnightblue" points="531,-213.43 534.5,-223.43 538,-213.43 531,-213.43"/>
</g>
<!-- Node11&#45;&gt;Node12 -->
<g id="edge13" class="edge">
<title>Node11&#45;&gt;Node12</title>
<path fill="none" stroke="midnightblue" d="M565.81,-139.64C580.32,-129.49 597.57,-117.98 612.52,-108.51"/>
<polygon fill="midnightblue" stroke="midnightblue" points="563.76,-136.8 557.61,-145.43 567.8,-142.51 563.76,-136.8"/>
</g>
<!-- Node14 -->
<g id="node14" class="node">
<title>Node14</title>
<g id="a_node14"><a xlink:href="_open_g_l_context_8cpp.html" target="_top" xlink:title=" ">
<polygon fill="white" stroke="black" points="375,-73 375,-103 554,-103 554,-73 375,-73"/>
<text text-anchor="start" x="383" y="-91" font-family="Helvetica,sans-Serif" font-size="10.00">kryne&#45;engine/src/Core</text>
<text text-anchor="middle" x="464.5" y="-80" font-family="Helvetica,sans-Serif" font-size="10.00">/GraphicContext/OpenGLContext.cpp</text>
</a>
</g>
</g>
<!-- Node11&#45;&gt;Node14 -->
<g id="edge16" class="edge">
<title>Node11&#45;&gt;Node14</title>
<path fill="none" stroke="midnightblue" d="M509.62,-137.99C498.81,-126.25 486.6,-112.99 477.6,-103.23"/>
<polygon fill="midnightblue" stroke="midnightblue" points="507.12,-140.44 516.47,-145.43 512.27,-135.7 507.12,-140.44"/>
</g>
<!-- Node12&#45;&gt;Node11 -->
<g id="edge14" class="edge">
<title>Node12&#45;&gt;Node11</title>
<path fill="none" stroke="midnightblue" d="M616.29,-114.29C601.79,-124.44 584.54,-135.94 569.59,-145.43"/>
<polygon fill="midnightblue" stroke="midnightblue" points="618.34,-117.14 624.48,-108.51 614.29,-111.42 618.34,-117.14"/>
</g>
<!-- Node13 -->
<g id="node13" class="node">
<title>Node13</title>
<g id="a_node13"><a xlink:href="_open_g_l_renderer_8cpp.html" target="_top" xlink:title=" ">
<polygon fill="white" stroke="black" points="567,-0.5 567,-30.5 728,-30.5 728,-0.5 567,-0.5"/>
<text text-anchor="start" x="575" y="-18.5" font-family="Helvetica,sans-Serif" font-size="10.00">kryne&#45;engine/src/Rendering</text>
<text text-anchor="middle" x="647.5" y="-7.5" font-family="Helvetica,sans-Serif" font-size="10.00">/Renderers/OpenGLRenderer.cpp</text>
</a>
</g>
</g>
<!-- Node12&#45;&gt;Node13 -->
<g id="edge15" class="edge">
<title>Node12&#45;&gt;Node13</title>
<path fill="none" stroke="midnightblue" d="M647.5,-57.08C647.5,-48.01 647.5,-38.45 647.5,-30.89"/>
<polygon fill="midnightblue" stroke="midnightblue" points="644,-57.36 647.5,-67.36 651,-57.36 644,-57.36"/>
</g>
<!-- Node16 -->
<g id="node16" class="node">
<title>Node16</title>
<g id="a_node16"><a xlink:href="_rendering_8h.html" target="_top" xlink:title=" ">
<polygon fill="white" stroke="black" points="1223,-229 1223,-259 1348,-259 1348,-229 1223,-229"/>
<text text-anchor="start" x="1231" y="-247" font-family="Helvetica,sans-Serif" font-size="10.00">kryne&#45;engine/include</text>
<text text-anchor="middle" x="1285.5" y="-236" font-family="Helvetica,sans-Serif" font-size="10.00">/KEModules/Rendering.h</text>
</a>
</g>
</g>
<!-- Node15&#45;&gt;Node16 -->
<g id="edge20" class="edge">
<title>Node15&#45;&gt;Node16</title>
<path fill="none" stroke="midnightblue" d="M1179.51,-296.97C1204.83,-284.55 1234.87,-269.83 1256.49,-259.23"/>
<polygon fill="midnightblue" stroke="midnightblue" points="1177.85,-293.88 1170.42,-301.43 1180.94,-300.17 1177.85,-293.88"/>
</g>
<!-- Node17 -->
<g id="node17" class="node">
<title>Node17</title>
<g id="a_node17"><a xlink:href="_renderer_8cpp.html" target="_top" xlink:title=" ">
<polygon fill="white" stroke="black" points="1070,-229 1070,-259 1205,-259 1205,-229 1070,-229"/>
<text text-anchor="start" x="1078" y="-247" font-family="Helvetica,sans-Serif" font-size="10.00">kryne&#45;engine/src/Rendering</text>
<text text-anchor="middle" x="1137.5" y="-236" font-family="Helvetica,sans-Serif" font-size="10.00">/Renderer.cpp</text>
</a>
</g>
</g>
<!-- Node15&#45;&gt;Node17 -->
<g id="edge21" class="edge">
<title>Node15&#45;&gt;Node17</title>
<path fill="none" stroke="midnightblue" d="M1133.24,-291.28C1134.25,-280.25 1135.36,-268.25 1136.19,-259.23"/>
<polygon fill="midnightblue" stroke="midnightblue" points="1129.73,-291.15 1132.3,-301.43 1136.71,-291.79 1129.73,-291.15"/>
</g>
<!-- Node19&#45;&gt;Node13 -->
<g id="edge35" class="edge">
<title>Node19&#45;&gt;Node13</title>
<path fill="none" stroke="midnightblue" d="M968.13,-451.29C979.09,-442.86 989.92,-432.63 997.5,-421 1041.51,-353.44 1041.5,-325.63 1041.5,-245 1041.5,-245 1041.5,-245 1041.5,-165 1041.5,-98.66 843.45,-51.74 728.18,-30.05"/>
<polygon fill="midnightblue" stroke="midnightblue" points="965.79,-448.66 959.77,-457.37 969.91,-454.32 965.79,-448.66"/>
</g>
<!-- Node19&#45;&gt;Node15 -->
<g id="edge33" class="edge">
<title>Node19&#45;&gt;Node15</title>
<path fill="none" stroke="midnightblue" d="M991.54,-460.81C1017.51,-452.1 1046.35,-439.28 1068.5,-421 1094.43,-399.6 1112.91,-364.42 1122.63,-342.54"/>
<polygon fill="midnightblue" stroke="midnightblue" points="990.21,-457.56 981.75,-463.94 992.34,-464.22 990.21,-457.56"/>
</g>
<!-- Node20 -->
<g id="node20" class="node">
<title>Node20</title>
<g id="a_node20"><a xlink:href="_k_e_modules_2_camera_8h.html" target="_top" xlink:title=" ">
<polygon fill="white" stroke="black" points="839,-229 839,-259 954,-259 954,-229 839,-229"/>
<text text-anchor="start" x="847" y="-247" font-family="Helvetica,sans-Serif" font-size="10.00">kryne&#45;engine/include</text>
<text text-anchor="middle" x="896.5" y="-236" font-family="Helvetica,sans-Serif" font-size="10.00">/KEModules/Camera.h</text>
</a>
</g>
</g>
<!-- Node19&#45;&gt;Node20 -->
<g id="edge25" class="edge">
<title>Node19&#45;&gt;Node20</title>
<path fill="none" stroke="midnightblue" d="M880.08,-451.09C869.79,-442.89 860.23,-432.82 854.5,-421 846.36,-404.2 850.84,-397.3 854.5,-379 857.9,-362 863.85,-359.39 869.5,-343 879.62,-313.63 888.59,-278.33 893.2,-259.13"/>
<polygon fill="midnightblue" stroke="midnightblue" points="878.3,-454.13 888.42,-457.27 882.46,-448.51 878.3,-454.13"/>
</g>
<!-- Node21 -->
<g id="node21" class="node">
<title>Node21</title>
<g id="a_node21"><a xlink:href="_mesh_8h.html" target="_top" xlink:title=" ">
<polygon fill="white" stroke="black" points="1158.5,-379.5 1158.5,-420.5 1282.5,-420.5 1282.5,-379.5 1158.5,-379.5"/>
<text text-anchor="start" x="1166.5" y="-408.5" font-family="Helvetica,sans-Serif" font-size="10.00">kryne&#45;engine/include</text>
<text text-anchor="start" x="1166.5" y="-397.5" font-family="Helvetica,sans-Serif" font-size="10.00">/kryne&#45;engine/3DObjects</text>
<text text-anchor="middle" x="1220.5" y="-386.5" font-family="Helvetica,sans-Serif" font-size="10.00">/Mesh.h</text>
</a>
</g>
</g>
<!-- Node19&#45;&gt;Node21 -->
<g id="edge26" class="edge">
<title>Node19&#45;&gt;Node21</title>
<path fill="none" stroke="midnightblue" d="M991.41,-460.02C1041.33,-447.16 1109.45,-429.61 1158.41,-417"/>
<polygon fill="midnightblue" stroke="midnightblue" points="990.49,-456.64 981.68,-462.53 992.24,-463.42 990.49,-456.64"/>
</g>
<!-- Node23 -->
<g id="node23" class="node">
<title>Node23</title>
<g id="a_node23"><a xlink:href="_orbit_controls_component_8h.html" target="_top" xlink:title=" ">
<polygon fill="white" stroke="black" points="726.5,-301.5 726.5,-342.5 860.5,-342.5 860.5,-301.5 726.5,-301.5"/>
<text text-anchor="start" x="734.5" y="-330.5" font-family="Helvetica,sans-Serif" font-size="10.00">kryne&#45;engine/include</text>
<text text-anchor="start" x="734.5" y="-319.5" font-family="Helvetica,sans-Serif" font-size="10.00">/kryne&#45;engine/Camera</text>
<text text-anchor="middle" x="793.5" y="-308.5" font-family="Helvetica,sans-Serif" font-size="10.00">/OrbitControlsComponent.h</text>
</a>
</g>
</g>
<!-- Node19&#45;&gt;Node23 -->
<g id="edge30" class="edge">
<title>Node19&#45;&gt;Node23</title>
<path fill="none" stroke="midnightblue" d="M860.13,-452.64C845.36,-444.51 830.98,-434.09 820.5,-421 802.31,-398.26 796.35,-364.12 794.41,-342.73"/>
<polygon fill="midnightblue" stroke="midnightblue" points="858.85,-455.91 869.34,-457.4 862.06,-449.7 858.85,-455.91"/>
</g>
<!-- Node25 -->
<g id="node25" class="node">
<title>Node25</title>
<g id="a_node25"><a xlink:href="_camera_8cpp.html" target="_top" xlink:title=" ">
<polygon fill="white" stroke="black" points="863,-385 863,-415 988,-415 988,-385 863,-385"/>
<text text-anchor="start" x="871" y="-403" font-family="Helvetica,sans-Serif" font-size="10.00">kryne&#45;engine/src/Camera</text>
<text text-anchor="middle" x="925.5" y="-392" font-family="Helvetica,sans-Serif" font-size="10.00">/Camera.cpp</text>
</a>
</g>
</g>
<!-- Node19&#45;&gt;Node25 -->
<g id="edge34" class="edge">
<title>Node19&#45;&gt;Node25</title>
<path fill="none" stroke="midnightblue" d="M925.5,-447.28C925.5,-436.25 925.5,-424.25 925.5,-415.23"/>
<polygon fill="midnightblue" stroke="midnightblue" points="922,-447.43 925.5,-457.43 929,-447.43 922,-447.43"/>
</g>
<!-- Node21&#45;&gt;Node6 -->
<g id="edge27" class="edge">
<title>Node21&#45;&gt;Node6</title>
<path fill="none" stroke="midnightblue" d="M1283.63,-375.93C1318.27,-363.28 1360.1,-347.99 1389.89,-337.11"/>
<polygon fill="midnightblue" stroke="midnightblue" points="1282.26,-372.71 1274.07,-379.43 1284.66,-379.28 1282.26,-372.71"/>
</g>
<!-- Node21&#45;&gt;Node15 -->
<g id="edge28" class="edge">
<title>Node21&#45;&gt;Node15</title>
<path fill="none" stroke="midnightblue" d="M1189.45,-372.78C1177.68,-362.84 1164.51,-351.72 1153.6,-342.51"/>
<polygon fill="midnightblue" stroke="midnightblue" points="1187.42,-375.65 1197.32,-379.43 1191.94,-370.3 1187.42,-375.65"/>
</g>
<!-- Node22 -->
<g id="node22" class="node">
<title>Node22</title>
<g id="a_node22"><a xlink:href="_mesh_8cpp.html" target="_top" xlink:title=" ">
<polygon fill="white" stroke="black" points="1210,-307 1210,-337 1347,-337 1347,-307 1210,-307"/>
<text text-anchor="start" x="1218" y="-325" font-family="Helvetica,sans-Serif" font-size="10.00">kryne&#45;engine/src/3DObjects</text>
<text text-anchor="middle" x="1278.5" y="-314" font-family="Helvetica,sans-Serif" font-size="10.00">/Mesh.cpp</text>
</a>
</g>
</g>
<!-- Node21&#45;&gt;Node22 -->
<g id="edge29" class="edge">
<title>Node21&#45;&gt;Node22</title>
<path fill="none" stroke="midnightblue" d="M1241.63,-371.32C1250.45,-359.75 1260.33,-346.8 1267.64,-337.23"/>
<polygon fill="midnightblue" stroke="midnightblue" points="1238.72,-369.36 1235.44,-379.43 1244.29,-373.6 1238.72,-369.36"/>
</g>
<!-- Node23&#45;&gt;Node20 -->
<g id="edge31" class="edge">
<title>Node23&#45;&gt;Node20</title>
<path fill="none" stroke="midnightblue" d="M828.3,-295.32C844.63,-283.27 863.48,-269.36 877.22,-259.23"/>
<polygon fill="midnightblue" stroke="midnightblue" points="825.99,-292.67 820.03,-301.43 830.15,-298.31 825.99,-292.67"/>
</g>
<!-- Node24 -->
<g id="node24" class="node">
<title>Node24</title>
<g id="a_node24"><a xlink:href="_orbit_controls_component_8cpp.html" target="_top" xlink:title=" ">
<polygon fill="white" stroke="black" points="676,-229 676,-259 821,-259 821,-229 676,-229"/>
<text text-anchor="start" x="684" y="-247" font-family="Helvetica,sans-Serif" font-size="10.00">kryne&#45;engine/src/Camera</text>
<text text-anchor="middle" x="748.5" y="-236" font-family="Helvetica,sans-Serif" font-size="10.00">/OrbitControlsComponent.cpp</text>
</a>
</g>
</g>
<!-- Node23&#45;&gt;Node24 -->
<g id="edge32" class="edge">
<title>Node23&#45;&gt;Node24</title>
<path fill="none" stroke="midnightblue" d="M776.71,-292.64C769.96,-281.25 762.48,-268.62 756.92,-259.23"/>
<polygon fill="midnightblue" stroke="midnightblue" points="773.8,-294.61 781.91,-301.43 779.83,-291.04 773.8,-294.61"/>
</g>
<!-- Node26&#45;&gt;Node4 -->
<g id="edge42" class="edge">
<title>Node26&#45;&gt;Node4</title>
<path fill="none" stroke="midnightblue" d="M672.95,-503.24C673.55,-513.91 673.25,-526.06 672.05,-535.23"/>
<polygon fill="midnightblue" stroke="midnightblue" points="676.43,-502.89 672.05,-493.25 669.46,-503.52 676.43,-502.89"/>
</g>
<!-- Node27 -->
<g id="node27" class="node">
<title>Node27</title>
<g id="a_node27"><a xlink:href="_logic_component_8h.html" target="_top" xlink:title=" ">
<polygon fill="white" stroke="black" points="586.5,-385 586.5,-415 768.5,-415 768.5,-385 586.5,-385"/>
<text text-anchor="start" x="594.5" y="-403" font-family="Helvetica,sans-Serif" font-size="10.00">kryne&#45;engine/include</text>
<text text-anchor="middle" x="677.5" y="-392" font-family="Helvetica,sans-Serif" font-size="10.00">/kryne&#45;engine/Core/LogicComponent.h</text>
</a>
</g>
</g>
<!-- Node26&#45;&gt;Node27 -->
<g id="edge37" class="edge">
<title>Node26&#45;&gt;Node27</title>
<path fill="none" stroke="midnightblue" d="M670.03,-452.59C671.82,-440.26 673.92,-425.72 675.44,-415.23"/>
<polygon fill="midnightblue" stroke="midnightblue" points="666.54,-452.31 668.57,-462.7 673.47,-453.31 666.54,-452.31"/>
</g>
<!-- Node31 -->
<g id="node31" class="node">
<title>Node31</title>
<g id="a_node31"><a xlink:href="_render_mesh_8h.html" target="_top" xlink:title=" ">
<polygon fill="white" stroke="black" points="278.5,-379.5 278.5,-420.5 400.5,-420.5 400.5,-379.5 278.5,-379.5"/>
<text text-anchor="start" x="286.5" y="-408.5" font-family="Helvetica,sans-Serif" font-size="10.00">kryne&#45;engine/include</text>
<text text-anchor="start" x="286.5" y="-397.5" font-family="Helvetica,sans-Serif" font-size="10.00">/kryne&#45;engine/Rendering</text>
<text text-anchor="middle" x="339.5" y="-386.5" font-family="Helvetica,sans-Serif" font-size="10.00">/RenderMesh.h</text>
</a>
</g>
</g>
<!-- Node26&#45;&gt;Node31 -->
<g id="edge43" class="edge">
<title>Node26&#45;&gt;Node31</title>
<path fill="none" stroke="midnightblue" d="M596.29,-460.68C538.08,-447.15 456.16,-428.11 400.61,-415.2"/>
<polygon fill="midnightblue" stroke="midnightblue" points="595.61,-464.12 606.14,-462.97 597.19,-457.3 595.61,-464.12"/>
</g>
<!-- Node33 -->
<g id="node33" class="node">
<title>Node33</title>
<g id="a_node33"><a xlink:href="_component_8cpp.html" target="_top" xlink:title=" ">
<polygon fill="white" stroke="black" points="456.5,-385 456.5,-415 568.5,-415 568.5,-385 456.5,-385"/>
<text text-anchor="start" x="464.5" y="-403" font-family="Helvetica,sans-Serif" font-size="10.00">kryne&#45;engine/src/Core</text>
<text text-anchor="middle" x="512.5" y="-392" font-family="Helvetica,sans-Serif" font-size="10.00">/Component.cpp</text>
</a>
</g>
</g>
<!-- Node26&#45;&gt;Node33 -->
<g id="edge48" class="edge">
<title>Node26&#45;&gt;Node33</title>
<path fill="none" stroke="midnightblue" d="M628.71,-458.35C601.6,-444.97 565.65,-427.23 540.95,-415.04"/>
<polygon fill="midnightblue" stroke="midnightblue" points="627.38,-461.6 637.89,-462.88 630.48,-455.32 627.38,-461.6"/>
</g>
<!-- Node27&#45;&gt;Node23 -->
<g id="edge38" class="edge">
<title>Node27&#45;&gt;Node23</title>
<path fill="none" stroke="midnightblue" d="M707.58,-379.29C724.73,-368.06 746.16,-354.02 763.32,-342.77"/>
<polygon fill="midnightblue" stroke="midnightblue" points="705.49,-376.48 699.05,-384.88 709.33,-382.33 705.49,-376.48"/>
</g>
<!-- Node27&#45;&gt;Node28 -->
<g id="edge39" class="edge">
<title>Node27&#45;&gt;Node28</title>
<path fill="none" stroke="midnightblue" d="M599.06,-383.04C591.78,-381.64 584.51,-380.27 577.5,-379 488.3,-362.8 385.65,-346.33 316.07,-335.48"/>
<polygon fill="midnightblue" stroke="midnightblue" points="598.49,-386.49 608.98,-384.96 599.82,-379.62 598.49,-386.49"/>
</g>
<!-- Node30 -->
<g id="node30" class="node">
<title>Node30</title>
<g id="a_node30"><a xlink:href="_logic_component_8cpp.html" target="_top" xlink:title=" ">
<polygon fill="white" stroke="black" points="456.5,-307 456.5,-337 568.5,-337 568.5,-307 456.5,-307"/>
<text text-anchor="start" x="464.5" y="-325" font-family="Helvetica,sans-Serif" font-size="10.00">kryne&#45;engine/src/Core</text>
<text text-anchor="middle" x="512.5" y="-314" font-family="Helvetica,sans-Serif" font-size="10.00">/LogicComponent.cpp</text>
</a>
</g>
</g>
<!-- Node27&#45;&gt;Node30 -->
<g id="edge41" class="edge">
<title>Node27&#45;&gt;Node30</title>
<path fill="none" stroke="midnightblue" d="M637.77,-380.7C608.64,-367.28 569.68,-349.34 542.98,-337.04"/>
<polygon fill="midnightblue" stroke="midnightblue" points="636.3,-383.88 646.85,-384.88 639.23,-377.52 636.3,-383.88"/>
</g>
<!-- Node29 -->
<g id="node29" class="node">
<title>Node29</title>
<g id="a_node29"><a xlink:href="_game_logic_components_runner_8cpp.html" target="_top" xlink:title=" ">
<polygon fill="white" stroke="black" points="145,-229 145,-259 318,-259 318,-229 145,-229"/>
<text text-anchor="start" x="153" y="-247" font-family="Helvetica,sans-Serif" font-size="10.00">kryne&#45;engine/src/Systems</text>
<text text-anchor="middle" x="231.5" y="-236" font-family="Helvetica,sans-Serif" font-size="10.00">/GameLogicComponentsRunner.cpp</text>
</a>
</g>
</g>
<!-- Node28&#45;&gt;Node29 -->
<g id="edge40" class="edge">
<title>Node28&#45;&gt;Node29</title>
<path fill="none" stroke="midnightblue" d="M233.33,-291.28C232.89,-280.25 232.42,-268.25 232.06,-259.23"/>
<polygon fill="midnightblue" stroke="midnightblue" points="229.84,-291.57 233.73,-301.43 236.83,-291.3 229.84,-291.57"/>
</g>
<!-- Node31&#45;&gt;Node3 -->
<g id="edge44" class="edge">
<title>Node31&#45;&gt;Node3</title>
<path fill="none" stroke="midnightblue" d="M351.89,-430.09C366.24,-463.31 390.92,-519.13 414.5,-566 421.79,-580.49 430.85,-596.67 437.29,-607.9"/>
<polygon fill="midnightblue" stroke="midnightblue" points="354.95,-428.34 347.79,-420.54 348.52,-431.11 354.95,-428.34"/>
</g>
<!-- Node31&#45;&gt;Node9 -->
<g id="edge45" class="edge">
<title>Node31&#45;&gt;Node9</title>
<path fill="none" stroke="midnightblue" d="M410.7,-383.17C458.11,-372.4 521.7,-357.53 577.5,-343 580.44,-342.24 583.44,-341.44 586.46,-340.62"/>
<polygon fill="midnightblue" stroke="midnightblue" points="409.82,-379.78 400.84,-385.4 411.37,-386.61 409.82,-379.78"/>
</g>
<!-- Node31&#45;&gt;Node13 -->
<g id="edge47" class="edge">
<title>Node31&#45;&gt;Node13</title>
<path fill="none" stroke="midnightblue" d="M341.68,-368.93C343.73,-337.9 346.5,-288.09 346.5,-245 346.5,-245 346.5,-245 346.5,-165 346.5,-120.63 333.9,-98.15 365.5,-67 393.39,-39.5 493.71,-26.73 566.77,-20.96"/>
<polygon fill="midnightblue" stroke="midnightblue" points="338.17,-368.86 340.98,-379.08 345.16,-369.34 338.17,-368.86"/>
</g>
<!-- Node32 -->
<g id="node32" class="node">
<title>Node32</title>
<g id="a_node32"><a xlink:href="_render_mesh_8cpp.html" target="_top" xlink:title=" ">
<polygon fill="white" stroke="black" points="0,-307 0,-337 135,-337 135,-307 0,-307"/>
<text text-anchor="start" x="8" y="-325" font-family="Helvetica,sans-Serif" font-size="10.00">kryne&#45;engine/src/Rendering</text>
<text text-anchor="middle" x="67.5" y="-314" font-family="Helvetica,sans-Serif" font-size="10.00">/RenderMesh.cpp</text>
</a>
</g>
</g>
<!-- Node31&#45;&gt;Node32 -->
<g id="edge46" class="edge">
<title>Node31&#45;&gt;Node32</title>
<path fill="none" stroke="midnightblue" d="M268.58,-379.19C221.28,-365.97 160.23,-348.91 117.87,-337.07"/>
<polygon fill="midnightblue" stroke="midnightblue" points="267.88,-382.62 278.46,-381.94 269.77,-375.88 267.88,-382.62"/>
</g>
<!-- Node37 -->
<g id="node37" class="node">
<title>Node37</title>
<g id="a_node37"><a xlink:href="_transform_update_system_8cpp.html" target="_top" xlink:title=" ">
<polygon fill="white" stroke="black" points="752.5,-535.5 752.5,-565.5 898.5,-565.5 898.5,-535.5 752.5,-535.5"/>
<text text-anchor="start" x="760.5" y="-553.5" font-family="Helvetica,sans-Serif" font-size="10.00">kryne&#45;engine/src/Systems</text>
<text text-anchor="middle" x="825.5" y="-542.5" font-family="Helvetica,sans-Serif" font-size="10.00">/TransformUpdateSystem.cpp</text>
</a>
</g>
</g>
<!-- Node36&#45;&gt;Node37 -->
<g id="edge56" class="edge">
<title>Node36&#45;&gt;Node37</title>
<path fill="none" stroke="midnightblue" d="M814.99,-592.67C817.35,-583.42 819.85,-573.61 821.83,-565.89"/>
<polygon fill="midnightblue" stroke="midnightblue" points="811.6,-591.81 812.51,-602.36 818.38,-593.54 811.6,-591.81"/>
</g>
</g>
</svg>
