<?xml version="1.0" encoding="UTF-8" standalone="no"?>
<!DOCTYPE svg PUBLIC "-//W3C//DTD SVG 1.1//EN"
 "http://www.w3.org/Graphics/SVG/1.1/DTD/svg11.dtd">
<!-- Generated by graphviz version 2.44.1 (20200629.0846)
 -->
<!-- Title: kryne&#45;engine/src/Material/AdditionalMaterials/TextureCopyMaterial.cpp Pages: 1 -->
<svg width="1749pt" height="765pt"
 viewBox="0.00 0.00 1749.00 765.00" xmlns="http://www.w3.org/2000/svg" xmlns:xlink="http://www.w3.org/1999/xlink">
<g id="graph0" class="graph" transform="scale(1 1) rotate(0) translate(4 761)">
<title>kryne&#45;engine/src/Material/AdditionalMaterials/TextureCopyMaterial.cpp</title>
<polygon fill="white" stroke="transparent" points="-4,4 -4,-761 1745,-761 1745,4 -4,4"/>
<!-- Node1 -->
<g id="node1" class="node">
<title>Node1</title>
<g id="a_node1"><a xlink:title=" ">
<polygon fill="#bfbfbf" stroke="black" points="40,-715.5 40,-756.5 200,-756.5 200,-715.5 40,-715.5"/>
<text text-anchor="start" x="48" y="-744.5" font-family="Helvetica,sans-Serif" font-size="10.00">kryne&#45;engine/src/Material</text>
<text text-anchor="start" x="48" y="-733.5" font-family="Helvetica,sans-Serif" font-size="10.00">/AdditionalMaterials/TextureCopy</text>
<text text-anchor="middle" x="120" y="-722.5" font-family="Helvetica,sans-Serif" font-size="10.00">Material.cpp</text>
</a>
</g>
</g>
<!-- Node2 -->
<g id="node2" class="node">
<title>Node2</title>
<g id="a_node2"><a xlink:href="_texture_copy_material_8h.html" target="_top" xlink:title=" ">
<polygon fill="white" stroke="black" points="61.5,-637.5 61.5,-678.5 178.5,-678.5 178.5,-637.5 61.5,-637.5"/>
<text text-anchor="start" x="69.5" y="-666.5" font-family="Helvetica,sans-Serif" font-size="10.00">kryne&#45;engine/Material</text>
<text text-anchor="start" x="69.5" y="-655.5" font-family="Helvetica,sans-Serif" font-size="10.00">/AdditionalMaterials</text>
<text text-anchor="middle" x="120" y="-644.5" font-family="Helvetica,sans-Serif" font-size="10.00">/TextureCopyMaterial.h</text>
</a>
</g>
</g>
<!-- Node1&#45;&gt;Node2 -->
<g id="edge1" class="edge">
<title>Node1&#45;&gt;Node2</title>
<path fill="none" stroke="midnightblue" d="M120,-715.43C120,-707.27 120,-697.62 120,-688.63"/>
<polygon fill="midnightblue" stroke="midnightblue" points="123.5,-688.51 120,-678.51 116.5,-688.51 123.5,-688.51"/>
</g>
<!-- Node3 -->
<g id="node3" class="node">
<title>Node3</title>
<g id="a_node3"><a xlink:href="kryne-engine_2_material_2_material_8h.html" target="_top" xlink:title=" ">
<polygon fill="white" stroke="black" points="65,-570.5 65,-600.5 175,-600.5 175,-570.5 65,-570.5"/>
<text text-anchor="start" x="73" y="-588.5" font-family="Helvetica,sans-Serif" font-size="10.00">kryne&#45;engine/Material</text>
<text text-anchor="middle" x="120" y="-577.5" font-family="Helvetica,sans-Serif" font-size="10.00">/Material.h</text>
</a>
</g>
</g>
<!-- Node2&#45;&gt;Node3 -->
<g id="edge2" class="edge">
<title>Node2&#45;&gt;Node3</title>
<path fill="none" stroke="midnightblue" d="M120,-637.36C120,-629.23 120,-619.7 120,-611.11"/>
<polygon fill="midnightblue" stroke="midnightblue" points="123.5,-610.89 120,-600.89 116.5,-610.89 123.5,-610.89"/>
</g>
<!-- Node4 -->
<g id="node4" class="node">
<title>Node4</title>
<g id="a_node4"><a xlink:href="_material_side_8h.html" target="_top" xlink:title=" ">
<polygon fill="white" stroke="black" points="0,-503.5 0,-533.5 104,-533.5 104,-503.5 0,-503.5"/>
<text text-anchor="start" x="8" y="-521.5" font-family="Helvetica,sans-Serif" font-size="10.00">kryne&#45;engine/enums</text>
<text text-anchor="middle" x="52" y="-510.5" font-family="Helvetica,sans-Serif" font-size="10.00">/MaterialSide.h</text>
</a>
</g>
</g>
<!-- Node3&#45;&gt;Node4 -->
<g id="edge3" class="edge">
<title>Node3&#45;&gt;Node4</title>
<path fill="none" stroke="midnightblue" d="M105.25,-570.4C96.16,-561.71 84.33,-550.4 74.13,-540.66"/>
<polygon fill="midnightblue" stroke="midnightblue" points="76.37,-537.96 66.73,-533.58 71.54,-543.02 76.37,-537.96"/>
</g>
<!-- Node5 -->
<g id="node5" class="node">
<title>Node5</title>
<g id="a_node5"><a xlink:href="_shader_program_compiler_8h.html" target="_top" xlink:title=" ">
<polygon fill="white" stroke="black" points="122,-503.5 122,-533.5 256,-533.5 256,-503.5 122,-503.5"/>
<text text-anchor="start" x="130" y="-521.5" font-family="Helvetica,sans-Serif" font-size="10.00">kryne&#45;engine/Rendering</text>
<text text-anchor="middle" x="189" y="-510.5" font-family="Helvetica,sans-Serif" font-size="10.00">/ShaderProgramCompiler.h</text>
</a>
</g>
</g>
<!-- Node3&#45;&gt;Node5 -->
<g id="edge4" class="edge">
<title>Node3&#45;&gt;Node5</title>
<path fill="none" stroke="midnightblue" d="M134.97,-570.4C144.19,-561.71 156.19,-550.4 166.54,-540.66"/>
<polygon fill="midnightblue" stroke="midnightblue" points="169.18,-542.98 174.06,-533.58 164.38,-537.89 169.18,-542.98"/>
</g>
<!-- Node6 -->
<g id="node6" class="node">
<title>Node6</title>
<g id="a_node6"><a xlink:title=" ">
<polygon fill="white" stroke="#bfbfbf" points="29.5,-442 29.5,-461 70.5,-461 70.5,-442 29.5,-442"/>
<text text-anchor="middle" x="50" y="-449" font-family="Helvetica,sans-Serif" font-size="10.00">regex</text>
</a>
</g>
</g>
<!-- Node5&#45;&gt;Node6 -->
<g id="edge5" class="edge">
<title>Node5&#45;&gt;Node6</title>
<path fill="none" stroke="midnightblue" d="M158.84,-503.4C134.56,-492.04 100.72,-476.22 77.25,-465.24"/>
<polygon fill="midnightblue" stroke="midnightblue" points="78.73,-462.07 68.19,-461.01 75.77,-468.41 78.73,-462.07"/>
</g>
<!-- Node7 -->
<g id="node7" class="node">
<title>Node7</title>
<g id="a_node7"><a xlink:href="_shader_8h.html" target="_top" xlink:title=" ">
<polygon fill="white" stroke="black" points="418,-436.5 418,-466.5 528,-466.5 528,-436.5 418,-436.5"/>
<text text-anchor="start" x="426" y="-454.5" font-family="Helvetica,sans-Serif" font-size="10.00">kryne&#45;engine/Material</text>
<text text-anchor="middle" x="473" y="-443.5" font-family="Helvetica,sans-Serif" font-size="10.00">/Shader.h</text>
</a>
</g>
</g>
<!-- Node5&#45;&gt;Node7 -->
<g id="edge6" class="edge">
<title>Node5&#45;&gt;Node7</title>
<path fill="none" stroke="midnightblue" d="M250.27,-503.48C296.71,-492.85 360.38,-478.28 407.76,-467.43"/>
<polygon fill="midnightblue" stroke="midnightblue" points="408.64,-470.82 417.61,-465.18 407.08,-464 408.64,-470.82"/>
</g>
<!-- Node10 -->
<g id="node10" class="node">
<title>Node10</title>
<g id="a_node10"><a xlink:href="_dispatcher_8h.html" target="_top" xlink:title=" ">
<polygon fill="white" stroke="black" points="142.5,-235.5 142.5,-265.5 255.5,-265.5 255.5,-235.5 142.5,-235.5"/>
<text text-anchor="start" x="150.5" y="-253.5" font-family="Helvetica,sans-Serif" font-size="10.00">kryne&#45;engine/Dispatch</text>
<text text-anchor="middle" x="199" y="-242.5" font-family="Helvetica,sans-Serif" font-size="10.00">/Dispatcher.h</text>
</a>
</g>
</g>
<!-- Node5&#45;&gt;Node10 -->
<g id="edge74" class="edge">
<title>Node5&#45;&gt;Node10</title>
<path fill="none" stroke="midnightblue" d="M181.06,-503.32C162.4,-468.01 119.47,-373.79 149,-302 153.68,-290.62 162.31,-280.43 171.1,-272.25"/>
<polygon fill="midnightblue" stroke="midnightblue" points="173.51,-274.79 178.76,-265.59 168.92,-269.5 173.51,-274.79"/>
</g>
<!-- Node46 -->
<g id="node41" class="node">
<title>Node46</title>
<g id="a_node41"><a xlink:href="_buffer_geometry_8h.html" target="_top" xlink:title=" ">
<polygon fill="white" stroke="black" points="1161,-369.5 1161,-399.5 1279,-399.5 1279,-369.5 1161,-369.5"/>
<text text-anchor="start" x="1169" y="-387.5" font-family="Helvetica,sans-Serif" font-size="10.00">kryne&#45;engine/Geometry</text>
<text text-anchor="middle" x="1220" y="-376.5" font-family="Helvetica,sans-Serif" font-size="10.00">/BufferGeometry.h</text>
</a>
</g>
</g>
<!-- Node5&#45;&gt;Node46 -->
<g id="edge52" class="edge">
<title>Node5&#45;&gt;Node46</title>
<path fill="none" stroke="midnightblue" d="M256.25,-508.89C442.29,-485.07 962.46,-418.47 1150.81,-394.36"/>
<polygon fill="midnightblue" stroke="midnightblue" points="1151.39,-397.81 1160.86,-393.07 1150.5,-390.87 1151.39,-397.81"/>
</g>
<!-- Node8 -->
<g id="node8" class="node">
<title>Node8</title>
<g id="a_node8"><a xlink:title=" ">
<polygon fill="white" stroke="#bfbfbf" points="657.5,-375 657.5,-394 692.5,-394 692.5,-375 657.5,-375"/>
<text text-anchor="middle" x="675" y="-382" font-family="Helvetica,sans-Serif" font-size="10.00">map</text>
</a>
</g>
</g>
<!-- Node7&#45;&gt;Node8 -->
<g id="edge7" class="edge">
<title>Node7&#45;&gt;Node8</title>
<path fill="none" stroke="midnightblue" d="M528.01,-437.82C562.99,-428.98 608.91,-415.93 648,-400 649.03,-399.58 650.08,-399.13 651.13,-398.66"/>
<polygon fill="midnightblue" stroke="midnightblue" points="653.01,-401.63 660.42,-394.06 649.9,-395.36 653.01,-401.63"/>
</g>
<!-- Node9 -->
<g id="node9" class="node">
<title>Node9</title>
<g id="a_node9"><a xlink:title=" ">
<polygon fill="white" stroke="#bfbfbf" points="711,-375 711,-394 763,-394 763,-375 711,-375"/>
<text text-anchor="middle" x="737" y="-382" font-family="Helvetica,sans-Serif" font-size="10.00">sstream</text>
</a>
</g>
</g>
<!-- Node7&#45;&gt;Node9 -->
<g id="edge8" class="edge">
<title>Node7&#45;&gt;Node9</title>
<path fill="none" stroke="midnightblue" d="M528.31,-441.13C575.14,-432.52 643.75,-418.33 702,-400 704.14,-399.33 706.33,-398.57 708.52,-397.78"/>
<polygon fill="midnightblue" stroke="midnightblue" points="709.92,-400.99 717.97,-394.09 707.38,-394.47 709.92,-400.99"/>
</g>
<!-- Node7&#45;&gt;Node10 -->
<g id="edge9" class="edge">
<title>Node7&#45;&gt;Node10</title>
<path fill="none" stroke="midnightblue" d="M417.96,-449.79C341.78,-445.36 207.75,-424.26 156,-333 144.67,-313.03 159.56,-289.84 174.83,-273.31"/>
<polygon fill="midnightblue" stroke="midnightblue" points="177.72,-275.36 182.24,-265.78 172.74,-270.45 177.72,-275.36"/>
</g>
<!-- Node25 -->
<g id="node21" class="node">
<title>Node25</title>
<g id="a_node21"><a xlink:href="_uniforms_handler_8h.html" target="_top" xlink:title=" ">
<polygon fill="white" stroke="black" points="543,-375 543,-394 639,-394 639,-375 543,-375"/>
<text text-anchor="middle" x="591" y="-382" font-family="Helvetica,sans-Serif" font-size="10.00">UniformsHandler.h</text>
</a>
</g>
</g>
<!-- Node7&#45;&gt;Node25 -->
<g id="edge23" class="edge">
<title>Node7&#45;&gt;Node25</title>
<path fill="none" stroke="midnightblue" d="M498.6,-436.4C518.85,-425.24 546.92,-409.78 566.79,-398.83"/>
<polygon fill="midnightblue" stroke="midnightblue" points="568.49,-401.9 575.56,-394.01 565.11,-395.77 568.49,-401.9"/>
</g>
<!-- Node39 -->
<g id="node35" class="node">
<title>Node39</title>
<g id="a_node35"><a xlink:href="_shader_chunk_8h.html" target="_top" xlink:title=" ">
<polygon fill="white" stroke="black" points="276.5,-375 276.5,-394 359.5,-394 359.5,-375 276.5,-375"/>
<text text-anchor="middle" x="318" y="-382" font-family="Helvetica,sans-Serif" font-size="10.00">ShaderChunk.h</text>
</a>
</g>
</g>
<!-- Node7&#45;&gt;Node39 -->
<g id="edge42" class="edge">
<title>Node7&#45;&gt;Node39</title>
<path fill="none" stroke="midnightblue" d="M439.37,-436.4C412.05,-424.94 373.89,-408.94 347.69,-397.95"/>
<polygon fill="midnightblue" stroke="midnightblue" points="348.86,-394.65 338.29,-394.01 346.15,-401.1 348.86,-394.65"/>
</g>
<!-- Node11 -->
<g id="node11" class="node">
<title>Node11</title>
<g id="a_node11"><a xlink:href="_synchronizable_pool_8h.html" target="_top" xlink:title=" ">
<polygon fill="white" stroke="black" points="408.5,-123.5 408.5,-142.5 519.5,-142.5 519.5,-123.5 408.5,-123.5"/>
<text text-anchor="middle" x="464" y="-130.5" font-family="Helvetica,sans-Serif" font-size="10.00">SynchronizablePool.h</text>
</a>
</g>
</g>
<!-- Node10&#45;&gt;Node11 -->
<g id="edge10" class="edge">
<title>Node10&#45;&gt;Node11</title>
<path fill="none" stroke="midnightblue" d="M231.23,-235.45C283.34,-212.74 385.29,-168.3 435.15,-146.57"/>
<polygon fill="midnightblue" stroke="midnightblue" points="436.63,-149.75 444.4,-142.54 433.84,-143.33 436.63,-149.75"/>
</g>
<!-- Node22 -->
<g id="node18" class="node">
<title>Node22</title>
<g id="a_node18"><a xlink:href="_runner_pool_8h.html" target="_top" xlink:title=" ">
<polygon fill="white" stroke="black" points="227.5,-123.5 227.5,-142.5 302.5,-142.5 302.5,-123.5 227.5,-123.5"/>
<text text-anchor="middle" x="265" y="-130.5" font-family="Helvetica,sans-Serif" font-size="10.00">RunnerPool.h</text>
</a>
</g>
</g>
<!-- Node10&#45;&gt;Node22 -->
<g id="edge17" class="edge">
<title>Node10&#45;&gt;Node22</title>
<path fill="none" stroke="midnightblue" d="M207.09,-235.34C219.15,-214.24 241.8,-174.6 254.92,-151.65"/>
<polygon fill="midnightblue" stroke="midnightblue" points="258.12,-153.09 260.05,-142.67 252.05,-149.62 258.12,-153.09"/>
</g>
<!-- Node23 -->
<g id="node19" class="node">
<title>Node23</title>
<g id="a_node19"><a xlink:href="_main_pool_8h.html" target="_top" xlink:title=" ">
<polygon fill="white" stroke="black" points="431.5,-179.5 431.5,-198.5 496.5,-198.5 496.5,-179.5 431.5,-179.5"/>
<text text-anchor="middle" x="464" y="-186.5" font-family="Helvetica,sans-Serif" font-size="10.00">MainPool.h</text>
</a>
</g>
</g>
<!-- Node10&#45;&gt;Node23 -->
<g id="edge19" class="edge">
<title>Node10&#45;&gt;Node23</title>
<path fill="none" stroke="midnightblue" d="M255.52,-236.81C305.16,-225.66 376.29,-209.69 421.3,-199.59"/>
<polygon fill="midnightblue" stroke="midnightblue" points="422.33,-202.94 431.32,-197.34 420.8,-196.11 422.33,-202.94"/>
</g>
<!-- Node12 -->
<g id="node12" class="node">
<title>Node12</title>
<g id="a_node12"><a xlink:href="_thread_pool_8h.html" target="_top" xlink:title=" ">
<polygon fill="white" stroke="red" points="994,-62 994,-81 1068,-81 1068,-62 994,-62"/>
<text text-anchor="middle" x="1031" y="-69" font-family="Helvetica,sans-Serif" font-size="10.00">ThreadPool.h</text>
</a>
</g>
</g>
<!-- Node11&#45;&gt;Node12 -->
<g id="edge11" class="edge">
<title>Node11&#45;&gt;Node12</title>
<path fill="none" stroke="midnightblue" d="M519.66,-126.16C631.07,-114.47 879.7,-88.38 983.77,-77.46"/>
<polygon fill="midnightblue" stroke="midnightblue" points="984.38,-80.91 993.96,-76.39 983.65,-73.95 984.38,-80.91"/>
</g>
<!-- Node13 -->
<g id="node13" class="node">
<title>Node13</title>
<g id="a_node13"><a xlink:title=" ">
<polygon fill="white" stroke="#bfbfbf" points="1020,-0.5 1020,-19.5 1064,-19.5 1064,-0.5 1020,-0.5"/>
<text text-anchor="middle" x="1042" y="-7.5" font-family="Helvetica,sans-Serif" font-size="10.00">thread</text>
</a>
</g>
</g>
<!-- Node12&#45;&gt;Node13 -->
<g id="edge12" class="edge">
<title>Node12&#45;&gt;Node13</title>
<path fill="none" stroke="midnightblue" d="M1032.58,-61.98C1034.13,-53.58 1036.55,-40.48 1038.55,-29.66"/>
<polygon fill="midnightblue" stroke="midnightblue" points="1042.05,-29.98 1040.43,-19.51 1035.17,-28.71 1042.05,-29.98"/>
</g>
<!-- Node14 -->
<g id="node14" class="node">
<title>Node14</title>
<g id="a_node14"><a xlink:title=" ">
<polygon fill="white" stroke="#bfbfbf" points="1103,-0.5 1103,-19.5 1147,-19.5 1147,-0.5 1103,-0.5"/>
<text text-anchor="middle" x="1125" y="-7.5" font-family="Helvetica,sans-Serif" font-size="10.00">mutex</text>
</a>
</g>
</g>
<!-- Node12&#45;&gt;Node14 -->
<g id="edge13" class="edge">
<title>Node12&#45;&gt;Node14</title>
<path fill="none" stroke="midnightblue" d="M1044.47,-61.98C1059.68,-52.34 1084.69,-36.52 1102.8,-25.05"/>
<polygon fill="midnightblue" stroke="midnightblue" points="1104.98,-27.81 1111.56,-19.51 1101.24,-21.9 1104.98,-27.81"/>
</g>
<!-- Node15 -->
<g id="node15" class="node">
<title>Node15</title>
<g id="a_node15"><a xlink:title=" ">
<polygon fill="white" stroke="#bfbfbf" points="908.5,-0.5 908.5,-19.5 1001.5,-19.5 1001.5,-0.5 908.5,-0.5"/>
<text text-anchor="middle" x="955" y="-7.5" font-family="Helvetica,sans-Serif" font-size="10.00">condition_variable</text>
</a>
</g>
</g>
<!-- Node12&#45;&gt;Node15 -->
<g id="edge14" class="edge">
<title>Node12&#45;&gt;Node15</title>
<path fill="none" stroke="midnightblue" d="M1020.11,-61.98C1008.03,-52.52 988.33,-37.1 973.76,-25.69"/>
<polygon fill="midnightblue" stroke="midnightblue" points="975.9,-22.92 965.87,-19.51 971.59,-28.43 975.9,-22.92"/>
</g>
<!-- Node17 -->
<g id="node16" class="node">
<title>Node17</title>
<g id="a_node16"><a xlink:title=" ">
<polygon fill="white" stroke="#bfbfbf" points="1326,-0.5 1326,-19.5 1378,-19.5 1378,-0.5 1326,-0.5"/>
<text text-anchor="middle" x="1352" y="-7.5" font-family="Helvetica,sans-Serif" font-size="10.00">memory</text>
</a>
</g>
</g>
<!-- Node12&#45;&gt;Node17 -->
<g id="edge15" class="edge">
<title>Node12&#45;&gt;Node17</title>
<path fill="none" stroke="midnightblue" d="M1056.68,-61.88C1063.56,-59.77 1071.02,-57.64 1078,-56 1162.07,-36.23 1262.67,-22.09 1315.48,-15.38"/>
<polygon fill="midnightblue" stroke="midnightblue" points="1316.21,-18.82 1325.7,-14.11 1315.34,-11.87 1316.21,-18.82"/>
</g>
<!-- Node18 -->
<g id="node17" class="node">
<title>Node18</title>
<g id="a_node17"><a xlink:title=" ">
<polygon fill="white" stroke="#bfbfbf" points="756,-0.5 756,-19.5 810,-19.5 810,-0.5 756,-0.5"/>
<text text-anchor="middle" x="783" y="-7.5" font-family="Helvetica,sans-Serif" font-size="10.00">iostream</text>
</a>
</g>
</g>
<!-- Node12&#45;&gt;Node18 -->
<g id="edge16" class="edge">
<title>Node12&#45;&gt;Node18</title>
<path fill="none" stroke="midnightblue" d="M1001.94,-61.95C994.79,-59.93 987.13,-57.83 980,-56 924.63,-41.81 859.93,-27.46 820.22,-18.89"/>
<polygon fill="midnightblue" stroke="midnightblue" points="820.71,-15.42 810.19,-16.74 819.24,-22.26 820.71,-15.42"/>
</g>
<!-- Node22&#45;&gt;Node12 -->
<g id="edge18" class="edge">
<title>Node22&#45;&gt;Node12</title>
<path fill="none" stroke="midnightblue" d="M302.72,-129.07C429.93,-119.19 842.98,-87.1 983.61,-76.18"/>
<polygon fill="midnightblue" stroke="midnightblue" points="983.95,-79.67 993.65,-75.4 983.41,-72.69 983.95,-79.67"/>
</g>
<!-- Node23&#45;&gt;Node11 -->
<g id="edge22" class="edge">
<title>Node23&#45;&gt;Node11</title>
<path fill="none" stroke="midnightblue" d="M464,-179.08C464,-172.01 464,-161.86 464,-152.99"/>
<polygon fill="midnightblue" stroke="midnightblue" points="467.5,-152.75 464,-142.75 460.5,-152.75 467.5,-152.75"/>
</g>
<!-- Node24 -->
<g id="node20" class="node">
<title>Node24</title>
<g id="a_node20"><a xlink:href="_multithreading_8hpp.html" target="_top" xlink:title=" ">
<polygon fill="white" stroke="black" points="1086.5,-56.5 1086.5,-86.5 1185.5,-86.5 1185.5,-56.5 1086.5,-56.5"/>
<text text-anchor="start" x="1094.5" y="-74.5" font-family="Helvetica,sans-Serif" font-size="10.00">kryne&#45;engine/Utils</text>
<text text-anchor="middle" x="1136" y="-63.5" font-family="Helvetica,sans-Serif" font-size="10.00">/Multithreading.hpp</text>
</a>
</g>
</g>
<!-- Node23&#45;&gt;Node24 -->
<g id="edge20" class="edge">
<title>Node23&#45;&gt;Node24</title>
<path fill="none" stroke="midnightblue" d="M496.62,-182.97C603.8,-166.39 945.2,-113.13 1076.65,-86.95"/>
<polygon fill="midnightblue" stroke="midnightblue" points="1077.38,-90.38 1086.49,-84.96 1075.99,-83.52 1077.38,-90.38"/>
</g>
<!-- Node24&#45;&gt;Node14 -->
<g id="edge21" class="edge">
<title>Node24&#45;&gt;Node14</title>
<path fill="none" stroke="midnightblue" d="M1133.39,-56.4C1131.91,-48.38 1130.03,-38.23 1128.43,-29.57"/>
<polygon fill="midnightblue" stroke="midnightblue" points="1131.86,-28.85 1126.6,-19.66 1124.98,-30.13 1131.86,-28.85"/>
</g>
<!-- Node26 -->
<g id="node22" class="node">
<title>Node26</title>
<g id="a_node22"><a xlink:title=" ">
<polygon fill="white" stroke="#bfbfbf" points="392.5,-241 392.5,-260 433.5,-260 433.5,-241 392.5,-241"/>
<text text-anchor="middle" x="413" y="-248" font-family="Helvetica,sans-Serif" font-size="10.00">string</text>
</a>
</g>
</g>
<!-- Node25&#45;&gt;Node26 -->
<g id="edge24" class="edge">
<title>Node25&#45;&gt;Node26</title>
<path fill="none" stroke="midnightblue" d="M542.97,-376.47C495.8,-368.47 428.69,-353.76 413,-333 399.44,-315.05 402.72,-287.96 407.16,-270.01"/>
<polygon fill="midnightblue" stroke="midnightblue" points="410.59,-270.75 409.93,-260.17 403.85,-268.85 410.59,-270.75"/>
</g>
<!-- Node27 -->
<g id="node23" class="node">
<title>Node27</title>
<g id="a_node23"><a xlink:title=" ">
<polygon fill="white" stroke="#bfbfbf" points="654.5,-308 654.5,-327 737.5,-327 737.5,-308 654.5,-308"/>
<text text-anchor="middle" x="696" y="-315" font-family="Helvetica,sans-Serif" font-size="10.00">unordered_map</text>
</a>
</g>
</g>
<!-- Node25&#45;&gt;Node27 -->
<g id="edge25" class="edge">
<title>Node25&#45;&gt;Node27</title>
<path fill="none" stroke="midnightblue" d="M605.16,-374.73C622.71,-363.87 652.84,-345.22 673.56,-332.39"/>
<polygon fill="midnightblue" stroke="midnightblue" points="675.4,-335.37 682.06,-327.13 671.72,-329.41 675.4,-335.37"/>
</g>
<!-- Node28 -->
<g id="node24" class="node">
<title>Node28</title>
<g id="a_node24"><a xlink:title=" ">
<polygon fill="white" stroke="#bfbfbf" points="945,-241 945,-260 1009,-260 1009,-241 945,-241"/>
<text text-anchor="middle" x="977" y="-248" font-family="Helvetica,sans-Serif" font-size="10.00">glad/glad.h</text>
</a>
</g>
</g>
<!-- Node25&#45;&gt;Node28 -->
<g id="edge26" class="edge">
<title>Node25&#45;&gt;Node28</title>
<path fill="none" stroke="midnightblue" d="M621.21,-374.99C630.1,-372.75 639.89,-370.53 649,-369 694.1,-361.43 1028.11,-366.72 1059,-333 1082.08,-307.81 1038.22,-280.09 1006.24,-264.34"/>
<polygon fill="midnightblue" stroke="midnightblue" points="1007.72,-261.17 997.19,-260.04 1004.72,-267.49 1007.72,-261.17"/>
</g>
<!-- Node29 -->
<g id="node25" class="node">
<title>Node29</title>
<g id="a_node25"><a xlink:title=" ">
<polygon fill="white" stroke="#bfbfbf" points="849,-241 849,-260 927,-260 927,-241 849,-241"/>
<text text-anchor="middle" x="888" y="-248" font-family="Helvetica,sans-Serif" font-size="10.00">GLFW/glfw3.h</text>
</a>
</g>
</g>
<!-- Node25&#45;&gt;Node29 -->
<g id="edge27" class="edge">
<title>Node25&#45;&gt;Node29</title>
<path fill="none" stroke="midnightblue" d="M622.47,-374.96C631.03,-372.82 640.34,-370.66 649,-369 708.02,-357.7 877.44,-378.23 917,-333 933.31,-314.35 916.55,-285.88 902.57,-268"/>
<polygon fill="midnightblue" stroke="midnightblue" points="905.16,-265.64 896.09,-260.16 899.77,-270.1 905.16,-265.64"/>
</g>
<!-- Node30 -->
<g id="node26" class="node">
<title>Node30</title>
<g id="a_node26"><a xlink:title=" ">
<polygon fill="white" stroke="#bfbfbf" points="1157,-241 1157,-260 1243,-260 1243,-241 1157,-241"/>
<text text-anchor="middle" x="1200" y="-248" font-family="Helvetica,sans-Serif" font-size="10.00">glm/mat4x4.hpp</text>
</a>
</g>
</g>
<!-- Node25&#45;&gt;Node30 -->
<g id="edge28" class="edge">
<title>Node25&#45;&gt;Node30</title>
<path fill="none" stroke="midnightblue" d="M621.21,-374.97C630.1,-372.73 639.89,-370.51 649,-369 836.88,-337.8 896,-395.22 1076,-333 1118.32,-318.37 1160.33,-286.04 1182.94,-266.79"/>
<polygon fill="midnightblue" stroke="midnightblue" points="1185.37,-269.32 1190.62,-260.11 1180.78,-264.03 1185.37,-269.32"/>
</g>
<!-- Node31 -->
<g id="node27" class="node">
<title>Node31</title>
<g id="a_node27"><a xlink:title=" ">
<polygon fill="white" stroke="#bfbfbf" points="422,-308 422,-327 528,-327 528,-308 422,-308"/>
<text text-anchor="middle" x="475" y="-315" font-family="Helvetica,sans-Serif" font-size="10.00">glm/gtc/type_ptr.hpp</text>
</a>
</g>
</g>
<!-- Node25&#45;&gt;Node31 -->
<g id="edge29" class="edge">
<title>Node25&#45;&gt;Node31</title>
<path fill="none" stroke="midnightblue" d="M575.36,-374.73C555.79,-363.77 522.08,-344.88 499.18,-332.05"/>
<polygon fill="midnightblue" stroke="midnightblue" points="500.83,-328.96 490.4,-327.13 497.41,-335.07 500.83,-328.96"/>
</g>
<!-- Node32 -->
<g id="node28" class="node">
<title>Node32</title>
<g id="a_node28"><a xlink:title=" ">
<polygon fill="white" stroke="#bfbfbf" points="546,-308 546,-327 636,-327 636,-308 546,-308"/>
<text text-anchor="middle" x="591" y="-315" font-family="Helvetica,sans-Serif" font-size="10.00">boost/variant.hpp</text>
</a>
</g>
</g>
<!-- Node25&#45;&gt;Node32 -->
<g id="edge30" class="edge">
<title>Node25&#45;&gt;Node32</title>
<path fill="none" stroke="midnightblue" d="M591,-374.73C591,-365.18 591,-349.62 591,-337.28"/>
<polygon fill="midnightblue" stroke="midnightblue" points="594.5,-337.13 591,-327.13 587.5,-337.13 594.5,-337.13"/>
</g>
<!-- Node33 -->
<g id="node29" class="node">
<title>Node33</title>
<g id="a_node29"><a xlink:href="_texture_8h.html" target="_top" xlink:title=" ">
<polygon fill="white" stroke="black" points="794.5,-302.5 794.5,-332.5 907.5,-332.5 907.5,-302.5 794.5,-302.5"/>
<text text-anchor="start" x="802.5" y="-320.5" font-family="Helvetica,sans-Serif" font-size="10.00">kryne&#45;engine/Textures</text>
<text text-anchor="middle" x="851" y="-309.5" font-family="Helvetica,sans-Serif" font-size="10.00">/Texture.h</text>
</a>
</g>
</g>
<!-- Node25&#45;&gt;Node33 -->
<g id="edge31" class="edge">
<title>Node25&#45;&gt;Node33</title>
<path fill="none" stroke="midnightblue" d="M625.26,-374.94C665.72,-364.82 733.95,-347.76 784.83,-335.04"/>
<polygon fill="midnightblue" stroke="midnightblue" points="785.91,-338.38 794.76,-332.56 784.21,-331.59 785.91,-338.38"/>
</g>
<!-- Node33&#45;&gt;Node10 -->
<g id="edge41" class="edge">
<title>Node33&#45;&gt;Node10</title>
<path fill="none" stroke="midnightblue" d="M794.15,-304.2C789.37,-303.38 784.61,-302.63 780,-302 555.88,-271.42 493.85,-297.93 265.72,-265.94"/>
<polygon fill="midnightblue" stroke="midnightblue" points="266.18,-262.47 255.79,-264.53 265.19,-269.4 266.18,-262.47"/>
</g>
<!-- Node33&#45;&gt;Node18 -->
<g id="edge34" class="edge">
<title>Node33&#45;&gt;Node18</title>
<path fill="none" stroke="midnightblue" d="M837.24,-302.28C817.37,-280.17 783,-235.38 783,-190 783,-190 783,-190 783,-132 783,-95.71 783,-53.31 783,-29.56"/>
<polygon fill="midnightblue" stroke="midnightblue" points="786.5,-29.51 783,-19.51 779.5,-29.51 786.5,-29.51"/>
</g>
<!-- Node33&#45;&gt;Node26 -->
<g id="edge33" class="edge">
<title>Node33&#45;&gt;Node26</title>
<path fill="none" stroke="midnightblue" d="M794.12,-304.39C789.35,-303.52 784.6,-302.71 780,-302 631.15,-278.9 587.83,-307.38 443,-266 441.12,-265.46 439.22,-264.82 437.33,-264.1"/>
<polygon fill="midnightblue" stroke="midnightblue" points="438.73,-260.89 428.17,-260.08 435.92,-267.3 438.73,-260.89"/>
</g>
<!-- Node33&#45;&gt;Node28 -->
<g id="edge39" class="edge">
<title>Node33&#45;&gt;Node28</title>
<path fill="none" stroke="midnightblue" d="M878.34,-302.4C900.06,-291.19 930.2,-275.64 951.44,-264.69"/>
<polygon fill="midnightblue" stroke="midnightblue" points="953.23,-267.7 960.51,-260.01 950.02,-261.48 953.23,-267.7"/>
</g>
<!-- Node33&#45;&gt;Node29 -->
<g id="edge40" class="edge">
<title>Node33&#45;&gt;Node29</title>
<path fill="none" stroke="midnightblue" d="M859.03,-302.4C864.63,-292.56 872.13,-279.38 878.1,-268.89"/>
<polygon fill="midnightblue" stroke="midnightblue" points="881.15,-270.62 883.05,-260.19 875.06,-267.15 881.15,-270.62"/>
</g>
<!-- Node34 -->
<g id="node30" class="node">
<title>Node34</title>
<g id="a_node30"><a xlink:title=" ">
<polygon fill="white" stroke="#bfbfbf" points="559,-241 559,-260 629,-260 629,-241 559,-241"/>
<text text-anchor="middle" x="594" y="-248" font-family="Helvetica,sans-Serif" font-size="10.00">stb_image.h</text>
</a>
</g>
</g>
<!-- Node33&#45;&gt;Node34 -->
<g id="edge32" class="edge">
<title>Node33&#45;&gt;Node34</title>
<path fill="none" stroke="midnightblue" d="M794.45,-304.29C751.57,-294.72 691.29,-280.63 639,-266 635.84,-265.12 632.57,-264.15 629.29,-263.16"/>
<polygon fill="midnightblue" stroke="midnightblue" points="630.19,-259.77 619.6,-260.13 628.1,-266.45 630.19,-259.77"/>
</g>
<!-- Node35 -->
<g id="node31" class="node">
<title>Node35</title>
<g id="a_node31"><a xlink:title=" ">
<polygon fill="white" stroke="#bfbfbf" points="647.5,-241 647.5,-260 754.5,-260 754.5,-241 647.5,-241"/>
<text text-anchor="middle" x="701" y="-248" font-family="Helvetica,sans-Serif" font-size="10.00">boost/filesystem.hpp</text>
</a>
</g>
</g>
<!-- Node33&#45;&gt;Node35 -->
<g id="edge35" class="edge">
<title>Node33&#45;&gt;Node35</title>
<path fill="none" stroke="midnightblue" d="M818.45,-302.4C792.13,-290.99 755.41,-275.08 730.07,-264.1"/>
<polygon fill="midnightblue" stroke="midnightblue" points="731.2,-260.77 720.63,-260.01 728.42,-267.19 731.2,-260.77"/>
</g>
<!-- Node36 -->
<g id="node32" class="node">
<title>Node36</title>
<g id="a_node32"><a xlink:title=" ">
<polygon fill="white" stroke="#bfbfbf" points="451.5,-241 451.5,-260 540.5,-260 540.5,-241 451.5,-241"/>
<text text-anchor="middle" x="496" y="-248" font-family="Helvetica,sans-Serif" font-size="10.00">boost/format.hpp</text>
</a>
</g>
</g>
<!-- Node33&#45;&gt;Node36 -->
<g id="edge36" class="edge">
<title>Node33&#45;&gt;Node36</title>
<path fill="none" stroke="midnightblue" d="M794.46,-304.71C789.58,-303.76 784.7,-302.85 780,-302 678.17,-283.64 651.22,-287.45 550,-266 545.26,-265 540.32,-263.83 535.44,-262.61"/>
<polygon fill="midnightblue" stroke="midnightblue" points="536.13,-259.18 525.57,-260.05 534.37,-265.95 536.13,-259.18"/>
</g>
<!-- Node37 -->
<g id="node33" class="node">
<title>Node37</title>
<g id="a_node33"><a xlink:title=" ">
<polygon fill="white" stroke="#bfbfbf" points="1065,-241 1065,-260 1139,-260 1139,-241 1065,-241"/>
<text text-anchor="middle" x="1102" y="-248" font-family="Helvetica,sans-Serif" font-size="10.00">glm/vec2.hpp</text>
</a>
</g>
</g>
<!-- Node33&#45;&gt;Node37 -->
<g id="edge37" class="edge">
<title>Node33&#45;&gt;Node37</title>
<path fill="none" stroke="midnightblue" d="M905.15,-302.48C951.32,-290.52 1016.77,-273.57 1059.3,-262.56"/>
<polygon fill="midnightblue" stroke="midnightblue" points="1060.26,-265.92 1069.07,-260.03 1058.51,-259.15 1060.26,-265.92"/>
</g>
<!-- Node38 -->
<g id="node34" class="node">
<title>Node38</title>
<g id="a_node34"><a xlink:title=" ">
<polygon fill="white" stroke="#bfbfbf" points="1307,-179.5 1307,-198.5 1381,-198.5 1381,-179.5 1307,-179.5"/>
<text text-anchor="middle" x="1344" y="-186.5" font-family="Helvetica,sans-Serif" font-size="10.00">glm/vec3.hpp</text>
</a>
</g>
</g>
<!-- Node33&#45;&gt;Node38 -->
<g id="edge38" class="edge">
<title>Node33&#45;&gt;Node38</title>
<path fill="none" stroke="midnightblue" d="M843.18,-302.41C834.34,-284.39 823.23,-253.33 840,-235 870.47,-201.69 1176.92,-192.86 1296.54,-190.67"/>
<polygon fill="midnightblue" stroke="midnightblue" points="1296.91,-194.17 1306.84,-190.49 1296.78,-187.17 1296.91,-194.17"/>
</g>
<!-- Node39&#45;&gt;Node18 -->
<g id="edge46" class="edge">
<title>Node39&#45;&gt;Node18</title>
<path fill="none" stroke="midnightblue" d="M276.42,-380.79C203.69,-373.56 61,-347.18 61,-251.5 61,-251.5 61,-251.5 61,-132 61,-61.94 596.56,-22.81 745.16,-13.3"/>
<polygon fill="midnightblue" stroke="midnightblue" points="745.82,-16.76 755.58,-12.64 745.38,-9.78 745.82,-16.76"/>
</g>
<!-- Node39&#45;&gt;Node26 -->
<g id="edge44" class="edge">
<title>Node39&#45;&gt;Node26</title>
<path fill="none" stroke="midnightblue" d="M324.23,-374.84C339.8,-353.21 380.61,-296.51 401.02,-268.15"/>
<polygon fill="midnightblue" stroke="midnightblue" points="403.87,-270.18 406.87,-260.02 398.19,-266.09 403.87,-270.18"/>
</g>
<!-- Node39&#45;&gt;Node27 -->
<g id="edge43" class="edge">
<title>Node39&#45;&gt;Node27</title>
<path fill="none" stroke="midnightblue" d="M359.6,-378.75C422.02,-371.25 543.42,-355.19 645,-333 649.42,-332.03 654.02,-330.91 658.57,-329.71"/>
<polygon fill="midnightblue" stroke="midnightblue" points="659.64,-333.05 668.37,-327.03 657.8,-326.29 659.64,-333.05"/>
</g>
<!-- Node40 -->
<g id="node36" class="node">
<title>Node40</title>
<g id="a_node36"><a xlink:title=" ">
<polygon fill="white" stroke="#bfbfbf" points="165.5,-308 165.5,-327 214.5,-327 214.5,-308 165.5,-308"/>
<text text-anchor="middle" x="190" y="-315" font-family="Helvetica,sans-Serif" font-size="10.00">fstream</text>
</a>
</g>
</g>
<!-- Node39&#45;&gt;Node40 -->
<g id="edge45" class="edge">
<title>Node39&#45;&gt;Node40</title>
<path fill="none" stroke="midnightblue" d="M301,-374.87C279.29,-363.84 241.51,-344.66 216.13,-331.77"/>
<polygon fill="midnightblue" stroke="midnightblue" points="217.57,-328.57 207.07,-327.17 214.4,-334.82 217.57,-328.57"/>
</g>
<!-- Node41 -->
<g id="node37" class="node">
<title>Node41</title>
<g id="a_node37"><a xlink:href="kryne-engine_2_utils_2_utils_8h.html" target="_top" xlink:title=" ">
<polygon fill="white" stroke="black" points="232.5,-302.5 232.5,-332.5 327.5,-332.5 327.5,-302.5 232.5,-302.5"/>
<text text-anchor="start" x="240.5" y="-320.5" font-family="Helvetica,sans-Serif" font-size="10.00">kryne&#45;engine/Utils</text>
<text text-anchor="middle" x="280" y="-309.5" font-family="Helvetica,sans-Serif" font-size="10.00">/Utils.h</text>
</a>
</g>
</g>
<!-- Node39&#45;&gt;Node41 -->
<g id="edge47" class="edge">
<title>Node39&#45;&gt;Node41</title>
<path fill="none" stroke="midnightblue" d="M312.88,-374.73C307.89,-366.2 300.1,-352.87 293.35,-341.33"/>
<polygon fill="midnightblue" stroke="midnightblue" points="296.31,-339.46 288.24,-332.59 290.26,-342.99 296.31,-339.46"/>
</g>
<!-- Node42 -->
<g id="node38" class="node">
<title>Node42</title>
<g id="a_node38"><a xlink:href="_string_utils_8hpp.html" target="_top" xlink:title=" ">
<polygon fill="white" stroke="black" points="382,-62 382,-81 462,-81 462,-62 382,-62"/>
<text text-anchor="middle" x="422" y="-69" font-family="Helvetica,sans-Serif" font-size="10.00">StringUtils.hpp</text>
</a>
</g>
</g>
<!-- Node41&#45;&gt;Node42 -->
<g id="edge48" class="edge">
<title>Node41&#45;&gt;Node42</title>
<path fill="none" stroke="midnightblue" d="M232.25,-303.09C191.68,-291.23 139.08,-274.51 133,-266 125,-254.79 128.61,-248.06 133,-235 152.93,-175.77 165.8,-157.36 218,-123 264.41,-92.45 327.8,-80.38 371.54,-75.61"/>
<polygon fill="midnightblue" stroke="midnightblue" points="372.06,-79.07 381.66,-74.6 371.36,-72.11 372.06,-79.07"/>
</g>
<!-- Node43 -->
<g id="node39" class="node">
<title>Node43</title>
<g id="a_node39"><a xlink:href="_vector_mapping_8hpp.html" target="_top" xlink:title=" ">
<polygon fill="white" stroke="red" points="273.5,-241 273.5,-260 374.5,-260 374.5,-241 273.5,-241"/>
<text text-anchor="middle" x="324" y="-248" font-family="Helvetica,sans-Serif" font-size="10.00">VectorMapping.hpp</text>
</a>
</g>
</g>
<!-- Node41&#45;&gt;Node43 -->
<g id="edge50" class="edge">
<title>Node41&#45;&gt;Node43</title>
<path fill="none" stroke="midnightblue" d="M289.55,-302.4C296.27,-292.46 305.31,-279.11 312.44,-268.57"/>
<polygon fill="midnightblue" stroke="midnightblue" points="315.41,-270.44 318.11,-260.19 309.61,-266.51 315.41,-270.44"/>
</g>
<!-- Node42&#45;&gt;Node18 -->
<g id="edge49" class="edge">
<title>Node42&#45;&gt;Node18</title>
<path fill="none" stroke="midnightblue" d="M462.01,-63.91C532.38,-52.31 677.3,-28.42 745.7,-17.15"/>
<polygon fill="midnightblue" stroke="midnightblue" points="746.31,-20.59 755.61,-15.51 745.17,-13.69 746.31,-20.59"/>
</g>
<!-- Node44 -->
<g id="node40" class="node">
<title>Node44</title>
<g id="a_node40"><a xlink:title=" ">
<polygon fill="white" stroke="#bfbfbf" points="537,-179.5 537,-198.5 579,-198.5 579,-179.5 537,-179.5"/>
<text text-anchor="middle" x="558" y="-186.5" font-family="Helvetica,sans-Serif" font-size="10.00">vector</text>
</a>
</g>
</g>
<!-- Node43&#45;&gt;Node44 -->
<g id="edge51" class="edge">
<title>Node43&#45;&gt;Node44</title>
<path fill="none" stroke="midnightblue" d="M357.53,-240.98C402.8,-229.46 482.88,-209.1 526.88,-197.91"/>
<polygon fill="midnightblue" stroke="midnightblue" points="527.9,-201.26 536.73,-195.41 526.18,-194.48 527.9,-201.26"/>
</g>
<!-- Node46&#45;&gt;Node10 -->
<g id="edge61" class="edge">
<title>Node46&#45;&gt;Node10</title>
<path fill="none" stroke="midnightblue" d="M1160.79,-380.63C1058.29,-375 852.37,-360.57 786,-333 765.55,-324.51 767.62,-310.07 747,-302 649.81,-263.96 386.75,-280.55 265.98,-265.88"/>
<polygon fill="midnightblue" stroke="midnightblue" points="266.16,-262.37 255.79,-264.51 265.23,-269.31 266.16,-262.37"/>
</g>
<!-- Node46&#45;&gt;Node17 -->
<g id="edge54" class="edge">
<title>Node46&#45;&gt;Node17</title>
<path fill="none" stroke="midnightblue" d="M1279.33,-382.26C1386.03,-379.15 1605.37,-368.52 1672,-333 1713.88,-310.67 1741,-298.96 1741,-251.5 1741,-251.5 1741,-251.5 1741,-132 1741,-58.55 1484.91,-24.63 1388.3,-14.45"/>
<polygon fill="midnightblue" stroke="midnightblue" points="1388.43,-10.95 1378.13,-13.41 1387.72,-17.91 1388.43,-10.95"/>
</g>
<!-- Node46&#45;&gt;Node18 -->
<g id="edge55" class="edge">
<title>Node46&#45;&gt;Node18</title>
<path fill="none" stroke="midnightblue" d="M1214.15,-369.25C1208.18,-352.41 1201.08,-323.92 1211,-302 1221,-279.91 1242,-288.09 1252,-266 1257.68,-253.45 1259.35,-246.65 1252,-235 1226.17,-194.05 913.99,-64.31 813.76,-23.45"/>
<polygon fill="midnightblue" stroke="midnightblue" points="814.79,-20.09 804.21,-19.56 812.15,-26.57 814.79,-20.09"/>
</g>
<!-- Node46&#45;&gt;Node27 -->
<g id="edge56" class="edge">
<title>Node46&#45;&gt;Node27</title>
<path fill="none" stroke="midnightblue" d="M1160.87,-379.9C1071.69,-373.84 897.72,-359.58 752,-333 746.63,-332.02 741.01,-330.8 735.5,-329.49"/>
<polygon fill="midnightblue" stroke="midnightblue" points="736.3,-326.09 725.76,-327.06 734.61,-332.88 736.3,-326.09"/>
</g>
<!-- Node46&#45;&gt;Node37 -->
<g id="edge58" class="edge">
<title>Node46&#45;&gt;Node37</title>
<path fill="none" stroke="midnightblue" d="M1207.37,-369.37C1185.27,-344.65 1139.71,-293.68 1116.41,-267.62"/>
<polygon fill="midnightblue" stroke="midnightblue" points="1118.96,-265.22 1109.69,-260.1 1113.74,-269.89 1118.96,-265.22"/>
</g>
<!-- Node46&#45;&gt;Node38 -->
<g id="edge59" class="edge">
<title>Node46&#45;&gt;Node38</title>
<path fill="none" stroke="midnightblue" d="M1279.04,-382.79C1381.06,-380.53 1585.08,-371.23 1644,-333 1673.09,-314.12 1674.78,-299.43 1684,-266 1687.66,-252.72 1693.13,-245.32 1684,-235 1642.25,-187.83 1470.67,-207.43 1391.24,-198.83"/>
<polygon fill="midnightblue" stroke="midnightblue" points="1391.49,-195.34 1381.12,-197.5 1390.57,-202.28 1391.49,-195.34"/>
</g>
<!-- Node47 -->
<g id="node42" class="node">
<title>Node47</title>
<g id="a_node42"><a xlink:title=" ">
<polygon fill="white" stroke="#bfbfbf" points="1220,-308 1220,-327 1276,-327 1276,-308 1220,-308"/>
<text text-anchor="middle" x="1248" y="-315" font-family="Helvetica,sans-Serif" font-size="10.00">algorithm</text>
</a>
</g>
</g>
<!-- Node46&#45;&gt;Node47 -->
<g id="edge53" class="edge">
<title>Node46&#45;&gt;Node47</title>
<path fill="none" stroke="midnightblue" d="M1226.08,-369.4C1230.23,-359.76 1235.76,-346.91 1240.23,-336.54"/>
<polygon fill="midnightblue" stroke="midnightblue" points="1243.51,-337.76 1244.25,-327.19 1237.08,-334.99 1243.51,-337.76"/>
</g>
<!-- Node21 -->
<g id="node43" class="node">
<title>Node21</title>
<g id="a_node43"><a xlink:title=" ">
<polygon fill="white" stroke="#bfbfbf" points="1294,-308 1294,-327 1352,-327 1352,-308 1294,-308"/>
<text text-anchor="middle" x="1323" y="-315" font-family="Helvetica,sans-Serif" font-size="10.00">functional</text>
</a>
</g>
</g>
<!-- Node46&#45;&gt;Node21 -->
<g id="edge57" class="edge">
<title>Node46&#45;&gt;Node21</title>
<path fill="none" stroke="midnightblue" d="M1242.35,-369.4C1259.62,-358.5 1283.42,-343.48 1300.68,-332.58"/>
<polygon fill="midnightblue" stroke="midnightblue" points="1302.93,-335.3 1309.52,-327.01 1299.19,-329.38 1302.93,-335.3"/>
</g>
<!-- Node48 -->
<g id="node44" class="node">
<title>Node48</title>
<g id="a_node44"><a xlink:title=" ">
<polygon fill="white" stroke="#bfbfbf" points="1370.5,-308 1370.5,-327 1467.5,-327 1467.5,-308 1370.5,-308"/>
<text text-anchor="middle" x="1419" y="-315" font-family="Helvetica,sans-Serif" font-size="10.00">glm/geometric.hpp</text>
</a>
</g>
</g>
<!-- Node46&#45;&gt;Node48 -->
<g id="edge60" class="edge">
<title>Node46&#45;&gt;Node48</title>
<path fill="none" stroke="midnightblue" d="M1263.18,-369.4C1299.02,-357.69 1349.41,-341.23 1383.08,-330.23"/>
<polygon fill="midnightblue" stroke="midnightblue" points="1384.54,-333.44 1392.96,-327.01 1382.36,-326.78 1384.54,-333.44"/>
</g>
<!-- Node49 -->
<g id="node45" class="node">
<title>Node49</title>
<g id="a_node45"><a xlink:href="_sphere_8hpp.html" target="_top" xlink:title=" ">
<polygon fill="white" stroke="black" points="1485.5,-308 1485.5,-327 1634.5,-327 1634.5,-308 1485.5,-308"/>
<text text-anchor="middle" x="1560" y="-315" font-family="Helvetica,sans-Serif" font-size="10.00">kryne&#45;engine/Math/Sphere.hpp</text>
</a>
</g>
</g>
<!-- Node46&#45;&gt;Node49 -->
<g id="edge62" class="edge">
<title>Node46&#45;&gt;Node49</title>
<path fill="none" stroke="midnightblue" d="M1279.22,-372.18C1343.02,-359.98 1443.69,-340.74 1505.57,-328.91"/>
<polygon fill="midnightblue" stroke="midnightblue" points="1506.36,-332.32 1515.53,-327 1505.05,-325.44 1506.36,-332.32"/>
</g>
<!-- Node54 -->
<g id="node50" class="node">
<title>Node54</title>
<g id="a_node50"><a xlink:href="_buffer_attribute_8h.html" target="_top" xlink:title=" ">
<polygon fill="white" stroke="black" points="964,-308 964,-327 1050,-327 1050,-308 964,-308"/>
<text text-anchor="middle" x="1007" y="-315" font-family="Helvetica,sans-Serif" font-size="10.00">BufferAttribute.h</text>
</a>
</g>
</g>
<!-- Node46&#45;&gt;Node54 -->
<g id="edge69" class="edge">
<title>Node46&#45;&gt;Node54</title>
<path fill="none" stroke="midnightblue" d="M1174.04,-369.48C1135.37,-357.67 1080.73,-341 1044.62,-329.98"/>
<polygon fill="midnightblue" stroke="midnightblue" points="1045.53,-326.6 1034.95,-327.03 1043.49,-333.3 1045.53,-326.6"/>
</g>
<!-- Node49&#45;&gt;Node30 -->
<g id="edge63" class="edge">
<title>Node49&#45;&gt;Node30</title>
<path fill="none" stroke="midnightblue" d="M1512.57,-307.94C1445.42,-295.81 1323.03,-273.71 1252.98,-261.07"/>
<polygon fill="midnightblue" stroke="midnightblue" points="1253.5,-257.6 1243.04,-259.27 1252.26,-264.49 1253.5,-257.6"/>
</g>
<!-- Node50 -->
<g id="node46" class="node">
<title>Node50</title>
<g id="a_node46"><a xlink:title=" ">
<polygon fill="white" stroke="#bfbfbf" points="1583,-241 1583,-260 1675,-260 1675,-241 1583,-241"/>
<text text-anchor="middle" x="1629" y="-248" font-family="Helvetica,sans-Serif" font-size="10.00">glm/gtx/norm.hpp</text>
</a>
</g>
</g>
<!-- Node49&#45;&gt;Node50 -->
<g id="edge64" class="edge">
<title>Node49&#45;&gt;Node50</title>
<path fill="none" stroke="midnightblue" d="M1569.31,-307.73C1580.27,-297.4 1598.71,-280.04 1612.19,-267.33"/>
<polygon fill="midnightblue" stroke="midnightblue" points="1614.96,-269.53 1619.84,-260.13 1610.16,-264.44 1614.96,-269.53"/>
</g>
<!-- Node51 -->
<g id="node47" class="node">
<title>Node51</title>
<g id="a_node47"><a xlink:title=" ">
<polygon fill="white" stroke="#bfbfbf" points="1421.5,-241 1421.5,-260 1564.5,-260 1564.5,-241 1421.5,-241"/>
<text text-anchor="middle" x="1493" y="-248" font-family="Helvetica,sans-Serif" font-size="10.00">glm/gtx/component_wise.hpp</text>
</a>
</g>
</g>
<!-- Node49&#45;&gt;Node51 -->
<g id="edge65" class="edge">
<title>Node49&#45;&gt;Node51</title>
<path fill="none" stroke="midnightblue" d="M1550.96,-307.73C1540.32,-297.4 1522.42,-280.04 1509.32,-267.33"/>
<polygon fill="midnightblue" stroke="midnightblue" points="1511.51,-264.58 1501.89,-260.13 1506.63,-269.6 1511.51,-264.58"/>
</g>
<!-- Node52 -->
<g id="node48" class="node">
<title>Node52</title>
<g id="a_node48"><a xlink:href="_axis_aligned_box_8hpp.html" target="_top" xlink:title=" ">
<polygon fill="white" stroke="black" points="1299,-241 1299,-260 1403,-260 1403,-241 1299,-241"/>
<text text-anchor="middle" x="1351" y="-248" font-family="Helvetica,sans-Serif" font-size="10.00">AxisAlignedBox.hpp</text>
</a>
</g>
</g>
<!-- Node49&#45;&gt;Node52 -->
<g id="edge66" class="edge">
<title>Node49&#45;&gt;Node52</title>
<path fill="none" stroke="midnightblue" d="M1532.25,-307.87C1495.21,-296.35 1429.53,-275.92 1388.22,-263.08"/>
<polygon fill="midnightblue" stroke="midnightblue" points="1389.12,-259.69 1378.54,-260.06 1387.04,-266.38 1389.12,-259.69"/>
</g>
<!-- Node52&#45;&gt;Node38 -->
<g id="edge67" class="edge">
<title>Node52&#45;&gt;Node38</title>
<path fill="none" stroke="midnightblue" d="M1350,-240.98C1349.01,-232.58 1347.47,-219.48 1346.2,-208.66"/>
<polygon fill="midnightblue" stroke="midnightblue" points="1349.65,-208.03 1345,-198.51 1342.69,-208.85 1349.65,-208.03"/>
</g>
<!-- Node53 -->
<g id="node49" class="node">
<title>Node53</title>
<g id="a_node49"><a xlink:title=" ">
<polygon fill="white" stroke="#bfbfbf" points="1399,-179.5 1399,-198.5 1491,-198.5 1491,-179.5 1399,-179.5"/>
<text text-anchor="middle" x="1445" y="-186.5" font-family="Helvetica,sans-Serif" font-size="10.00">glm/common.hpp</text>
</a>
</g>
</g>
<!-- Node52&#45;&gt;Node53 -->
<g id="edge68" class="edge">
<title>Node52&#45;&gt;Node53</title>
<path fill="none" stroke="midnightblue" d="M1364.47,-240.98C1379.68,-231.34 1404.69,-215.52 1422.8,-204.05"/>
<polygon fill="midnightblue" stroke="midnightblue" points="1424.98,-206.81 1431.56,-198.51 1421.24,-200.9 1424.98,-206.81"/>
</g>
<!-- Node54&#45;&gt;Node26 -->
<g id="edge71" class="edge">
<title>Node54&#45;&gt;Node26</title>
<path fill="none" stroke="midnightblue" d="M963.61,-308.76C948.86,-306.32 932.25,-303.8 917,-302 707.19,-277.18 647.01,-320.93 443,-266 441.07,-265.48 439.12,-264.84 437.18,-264.12"/>
<polygon fill="midnightblue" stroke="midnightblue" points="438.4,-260.83 427.83,-260.02 435.59,-267.24 438.4,-260.83"/>
</g>
<!-- Node54&#45;&gt;Node28 -->
<g id="edge72" class="edge">
<title>Node54&#45;&gt;Node28</title>
<path fill="none" stroke="midnightblue" d="M1002.95,-307.73C998.46,-297.99 991.07,-281.98 985.32,-269.53"/>
<polygon fill="midnightblue" stroke="midnightblue" points="988.35,-267.74 980.98,-260.13 981.99,-270.67 988.35,-267.74"/>
</g>
<!-- Node54&#45;&gt;Node29 -->
<g id="edge73" class="edge">
<title>Node54&#45;&gt;Node29</title>
<path fill="none" stroke="midnightblue" d="M990.95,-307.73C970.88,-296.77 936.3,-277.88 912.81,-265.05"/>
<polygon fill="midnightblue" stroke="midnightblue" points="914.25,-261.85 903.79,-260.13 910.89,-267.99 914.25,-261.85"/>
</g>
<!-- Node54&#45;&gt;Node44 -->
<g id="edge70" class="edge">
<title>Node54&#45;&gt;Node44</title>
<path fill="none" stroke="midnightblue" d="M1012.17,-307.57C1021.02,-291 1036.42,-255.31 1018,-235 989.23,-203.28 688.51,-193.17 589.45,-190.69"/>
<polygon fill="midnightblue" stroke="midnightblue" points="589.27,-187.18 579.19,-190.44 589.1,-194.18 589.27,-187.18"/>
</g>
</g>
</svg>
