<?xml version="1.0" encoding="UTF-8" standalone="no"?>
<!DOCTYPE svg PUBLIC "-//W3C//DTD SVG 1.1//EN"
 "http://www.w3.org/Graphics/SVG/1.1/DTD/svg11.dtd">
<!-- Generated by graphviz version 2.44.1 (20200629.0846)
 -->
<!-- Title: kryne&#45;engine/include/KEModules/Textures.h Pages: 1 -->
<svg width="902pt" height="520pt"
 viewBox="0.00 0.00 902.00 520.00" xmlns="http://www.w3.org/2000/svg" xmlns:xlink="http://www.w3.org/1999/xlink">
<g id="graph0" class="graph" transform="scale(1 1) rotate(0) translate(4 516)">
<title>kryne&#45;engine/include/KEModules/Textures.h</title>
<polygon fill="white" stroke="transparent" points="-4,4 -4,-516 898,-516 898,4 -4,4"/>
<!-- Node1 -->
<g id="node1" class="node">
<title>Node1</title>
<g id="a_node1"><a xlink:title=" ">
<polygon fill="#bfbfbf" stroke="black" points="369.5,-481.5 369.5,-511.5 488.5,-511.5 488.5,-481.5 369.5,-481.5"/>
<text text-anchor="start" x="377.5" y="-499.5" font-family="Helvetica,sans-Serif" font-size="10.00">kryne&#45;engine/include</text>
<text text-anchor="middle" x="429" y="-488.5" font-family="Helvetica,sans-Serif" font-size="10.00">/KEModules/Textures.h</text>
</a>
</g>
</g>
<!-- Node2 -->
<g id="node2" class="node">
<title>Node2</title>
<g id="a_node2"><a xlink:href="_cube_texture_8h.html" target="_top" xlink:title=" ">
<polygon fill="white" stroke="black" points="372.5,-414.5 372.5,-444.5 485.5,-444.5 485.5,-414.5 372.5,-414.5"/>
<text text-anchor="start" x="380.5" y="-432.5" font-family="Helvetica,sans-Serif" font-size="10.00">kryne&#45;engine/Textures</text>
<text text-anchor="middle" x="429" y="-421.5" font-family="Helvetica,sans-Serif" font-size="10.00">/CubeTexture.h</text>
</a>
</g>
</g>
<!-- Node1&#45;&gt;Node2 -->
<g id="edge1" class="edge">
<title>Node1&#45;&gt;Node2</title>
<path fill="none" stroke="midnightblue" d="M429,-481.4C429,-473.64 429,-463.81 429,-454.86"/>
<polygon fill="midnightblue" stroke="midnightblue" points="432.5,-454.58 429,-444.58 425.5,-454.58 432.5,-454.58"/>
</g>
<!-- Node3 -->
<g id="node3" class="node">
<title>Node3</title>
<g id="a_node3"><a xlink:href="_texture_8h.html" target="_top" xlink:title=" ">
<polygon fill="white" stroke="black" points="400.5,-358.5 400.5,-377.5 457.5,-377.5 457.5,-358.5 400.5,-358.5"/>
<text text-anchor="middle" x="429" y="-365.5" font-family="Helvetica,sans-Serif" font-size="10.00">Texture.h</text>
</a>
</g>
</g>
<!-- Node1&#45;&gt;Node3 -->
<g id="edge30" class="edge">
<title>Node1&#45;&gt;Node3</title>
<path fill="none" stroke="midnightblue" d="M400.09,-481.45C386.15,-472.99 370.8,-460.78 363,-445 356.9,-432.65 356.56,-426.18 363,-414 370.42,-399.95 384.42,-389.47 397.62,-382.17"/>
<polygon fill="midnightblue" stroke="midnightblue" points="399.22,-385.28 406.54,-377.62 396.04,-379.04 399.22,-385.28"/>
</g>
<!-- Node27 -->
<g id="node27" class="node">
<title>Node27</title>
<g id="a_node27"><a xlink:href="_texture2_d_8h.html" target="_top" xlink:title=" ">
<polygon fill="white" stroke="black" points="503.5,-414.5 503.5,-444.5 616.5,-444.5 616.5,-414.5 503.5,-414.5"/>
<text text-anchor="start" x="511.5" y="-432.5" font-family="Helvetica,sans-Serif" font-size="10.00">kryne&#45;engine/Textures</text>
<text text-anchor="middle" x="560" y="-421.5" font-family="Helvetica,sans-Serif" font-size="10.00">/Texture2D.h</text>
</a>
</g>
</g>
<!-- Node1&#45;&gt;Node27 -->
<g id="edge31" class="edge">
<title>Node1&#45;&gt;Node27</title>
<path fill="none" stroke="midnightblue" d="M457.43,-481.4C476.48,-471.94 501.78,-459.39 522.48,-449.12"/>
<polygon fill="midnightblue" stroke="midnightblue" points="524.23,-452.16 531.63,-444.58 521.12,-445.89 524.23,-452.16"/>
</g>
<!-- Node2&#45;&gt;Node3 -->
<g id="edge2" class="edge">
<title>Node2&#45;&gt;Node3</title>
<path fill="none" stroke="midnightblue" d="M429,-414.4C429,-406.47 429,-396.46 429,-387.86"/>
<polygon fill="midnightblue" stroke="midnightblue" points="432.5,-387.66 429,-377.66 425.5,-387.66 432.5,-387.66"/>
</g>
<!-- Node4 -->
<g id="node4" class="node">
<title>Node4</title>
<g id="a_node4"><a xlink:title=" ">
<polygon fill="white" stroke="#bfbfbf" points="0,-297 0,-316 70,-316 70,-297 0,-297"/>
<text text-anchor="middle" x="35" y="-304" font-family="Helvetica,sans-Serif" font-size="10.00">stb_image.h</text>
</a>
</g>
</g>
<!-- Node3&#45;&gt;Node4 -->
<g id="edge3" class="edge">
<title>Node3&#45;&gt;Node4</title>
<path fill="none" stroke="midnightblue" d="M400.09,-365.15C339.78,-360.89 196.4,-348.64 79,-322 75.33,-321.17 71.54,-320.16 67.78,-319.06"/>
<polygon fill="midnightblue" stroke="midnightblue" points="68.65,-315.66 58.06,-316.01 66.56,-322.34 68.65,-315.66"/>
</g>
<!-- Node5 -->
<g id="node5" class="node">
<title>Node5</title>
<g id="a_node5"><a xlink:title=" ">
<polygon fill="white" stroke="#bfbfbf" points="88.5,-297 88.5,-316 129.5,-316 129.5,-297 88.5,-297"/>
<text text-anchor="middle" x="109" y="-304" font-family="Helvetica,sans-Serif" font-size="10.00">string</text>
</a>
</g>
</g>
<!-- Node3&#45;&gt;Node5 -->
<g id="edge4" class="edge">
<title>Node3&#45;&gt;Node5</title>
<path fill="none" stroke="midnightblue" d="M400.2,-364.72C348.22,-360.1 235.61,-347.82 144,-322 141.56,-321.31 139.07,-320.5 136.59,-319.63"/>
<polygon fill="midnightblue" stroke="midnightblue" points="137.83,-316.36 127.24,-316.01 135.3,-322.88 137.83,-316.36"/>
</g>
<!-- Node6 -->
<g id="node6" class="node">
<title>Node6</title>
<g id="a_node6"><a xlink:title=" ">
<polygon fill="white" stroke="#bfbfbf" points="43,-56.5 43,-75.5 97,-75.5 97,-56.5 43,-56.5"/>
<text text-anchor="middle" x="70" y="-63.5" font-family="Helvetica,sans-Serif" font-size="10.00">iostream</text>
</a>
</g>
</g>
<!-- Node3&#45;&gt;Node6 -->
<g id="edge5" class="edge">
<title>Node3&#45;&gt;Node6</title>
<path fill="none" stroke="midnightblue" d="M400.11,-365.69C340.98,-362.42 208.99,-351.88 177,-322 151.55,-298.23 158,-280.82 158,-246 158,-246 158,-246 158,-188 158,-142.49 116.79,-102.6 90.77,-81.95"/>
<polygon fill="midnightblue" stroke="midnightblue" points="92.68,-79.01 82.61,-75.71 88.42,-84.57 92.68,-79.01"/>
</g>
<!-- Node7 -->
<g id="node7" class="node">
<title>Node7</title>
<g id="a_node7"><a xlink:title=" ">
<polygon fill="white" stroke="#bfbfbf" points="317.5,-297 317.5,-316 424.5,-316 424.5,-297 317.5,-297"/>
<text text-anchor="middle" x="371" y="-304" font-family="Helvetica,sans-Serif" font-size="10.00">boost/filesystem.hpp</text>
</a>
</g>
</g>
<!-- Node3&#45;&gt;Node7 -->
<g id="edge6" class="edge">
<title>Node3&#45;&gt;Node7</title>
<path fill="none" stroke="midnightblue" d="M420.69,-358.48C411.82,-349.37 397.55,-334.74 386.58,-323.48"/>
<polygon fill="midnightblue" stroke="midnightblue" points="388.78,-320.73 379.29,-316.01 383.77,-325.61 388.78,-320.73"/>
</g>
<!-- Node8 -->
<g id="node8" class="node">
<title>Node8</title>
<g id="a_node8"><a xlink:title=" ">
<polygon fill="white" stroke="#bfbfbf" points="442.5,-297 442.5,-316 531.5,-316 531.5,-297 442.5,-297"/>
<text text-anchor="middle" x="487" y="-304" font-family="Helvetica,sans-Serif" font-size="10.00">boost/format.hpp</text>
</a>
</g>
</g>
<!-- Node3&#45;&gt;Node8 -->
<g id="edge7" class="edge">
<title>Node3&#45;&gt;Node8</title>
<path fill="none" stroke="midnightblue" d="M437.31,-358.48C446.18,-349.37 460.45,-334.74 471.42,-323.48"/>
<polygon fill="midnightblue" stroke="midnightblue" points="474.23,-325.61 478.71,-316.01 469.22,-320.73 474.23,-325.61"/>
</g>
<!-- Node9 -->
<g id="node9" class="node">
<title>Node9</title>
<g id="a_node9"><a xlink:title=" ">
<polygon fill="white" stroke="#bfbfbf" points="550,-297 550,-316 624,-316 624,-297 550,-297"/>
<text text-anchor="middle" x="587" y="-304" font-family="Helvetica,sans-Serif" font-size="10.00">glm/vec2.hpp</text>
</a>
</g>
</g>
<!-- Node3&#45;&gt;Node9 -->
<g id="edge8" class="edge">
<title>Node3&#45;&gt;Node9</title>
<path fill="none" stroke="midnightblue" d="M451.64,-358.48C478.74,-348.27 524.31,-331.11 555,-319.55"/>
<polygon fill="midnightblue" stroke="midnightblue" points="556.28,-322.81 564.4,-316.01 553.81,-316.26 556.28,-322.81"/>
</g>
<!-- Node10 -->
<g id="node10" class="node">
<title>Node10</title>
<g id="a_node10"><a xlink:title=" ">
<polygon fill="white" stroke="#bfbfbf" points="642,-297 642,-316 716,-316 716,-297 642,-297"/>
<text text-anchor="middle" x="679" y="-304" font-family="Helvetica,sans-Serif" font-size="10.00">glm/vec3.hpp</text>
</a>
</g>
</g>
<!-- Node3&#45;&gt;Node10 -->
<g id="edge9" class="edge">
<title>Node3&#45;&gt;Node10</title>
<path fill="none" stroke="midnightblue" d="M457.57,-361.53C497.2,-353.74 570.98,-338.58 633,-322 636.42,-321.09 639.97,-320.08 643.5,-319.03"/>
<polygon fill="midnightblue" stroke="midnightblue" points="644.79,-322.3 653.33,-316.03 642.74,-315.6 644.79,-322.3"/>
</g>
<!-- Node11 -->
<g id="node11" class="node">
<title>Node11</title>
<g id="a_node11"><a xlink:title=" ">
<polygon fill="white" stroke="#bfbfbf" points="734,-297 734,-316 798,-316 798,-297 734,-297"/>
<text text-anchor="middle" x="766" y="-304" font-family="Helvetica,sans-Serif" font-size="10.00">glad/glad.h</text>
</a>
</g>
</g>
<!-- Node3&#45;&gt;Node11 -->
<g id="edge10" class="edge">
<title>Node3&#45;&gt;Node11</title>
<path fill="none" stroke="midnightblue" d="M457.51,-364.48C510.71,-359.37 628.44,-346.18 725,-322 728.05,-321.24 731.19,-320.34 734.32,-319.37"/>
<polygon fill="midnightblue" stroke="midnightblue" points="735.73,-322.59 744.1,-316.1 733.51,-315.95 735.73,-322.59"/>
</g>
<!-- Node12 -->
<g id="node12" class="node">
<title>Node12</title>
<g id="a_node12"><a xlink:title=" ">
<polygon fill="white" stroke="#bfbfbf" points="816,-297 816,-316 894,-316 894,-297 816,-297"/>
<text text-anchor="middle" x="855" y="-304" font-family="Helvetica,sans-Serif" font-size="10.00">GLFW/glfw3.h</text>
</a>
</g>
</g>
<!-- Node3&#45;&gt;Node12 -->
<g id="edge11" class="edge">
<title>Node3&#45;&gt;Node12</title>
<path fill="none" stroke="midnightblue" d="M457.73,-365.3C521.26,-361.17 678.26,-348.89 807,-322 811.22,-321.12 815.6,-320.04 819.92,-318.86"/>
<polygon fill="midnightblue" stroke="midnightblue" points="821.17,-322.15 829.8,-316.01 819.23,-315.42 821.17,-322.15"/>
</g>
<!-- Node13 -->
<g id="node13" class="node">
<title>Node13</title>
<g id="a_node13"><a xlink:href="_dispatcher_8h.html" target="_top" xlink:title=" ">
<polygon fill="white" stroke="black" points="186.5,-291.5 186.5,-321.5 299.5,-321.5 299.5,-291.5 186.5,-291.5"/>
<text text-anchor="start" x="194.5" y="-309.5" font-family="Helvetica,sans-Serif" font-size="10.00">kryne&#45;engine/Dispatch</text>
<text text-anchor="middle" x="243" y="-298.5" font-family="Helvetica,sans-Serif" font-size="10.00">/Dispatcher.h</text>
</a>
</g>
</g>
<!-- Node3&#45;&gt;Node13 -->
<g id="edge12" class="edge">
<title>Node3&#45;&gt;Node13</title>
<path fill="none" stroke="midnightblue" d="M402.35,-358.48C374.81,-349.66 331.06,-335.67 296.36,-324.57"/>
<polygon fill="midnightblue" stroke="midnightblue" points="297.43,-321.24 286.84,-321.52 295.29,-327.9 297.43,-321.24"/>
</g>
<!-- Node14 -->
<g id="node14" class="node">
<title>Node14</title>
<g id="a_node14"><a xlink:href="_synchronizable_pool_8h.html" target="_top" xlink:title=" ">
<polygon fill="white" stroke="black" points="261.5,-179.5 261.5,-198.5 372.5,-198.5 372.5,-179.5 261.5,-179.5"/>
<text text-anchor="middle" x="317" y="-186.5" font-family="Helvetica,sans-Serif" font-size="10.00">SynchronizablePool.h</text>
</a>
</g>
</g>
<!-- Node13&#45;&gt;Node14 -->
<g id="edge13" class="edge">
<title>Node13&#45;&gt;Node14</title>
<path fill="none" stroke="midnightblue" d="M253.75,-291.15C261.1,-281.18 270.93,-267.48 279,-255 289.18,-239.26 299.89,-220.75 307.33,-207.52"/>
<polygon fill="midnightblue" stroke="midnightblue" points="310.51,-209 312.32,-198.56 304.39,-205.59 310.51,-209"/>
</g>
<!-- Node24 -->
<g id="node24" class="node">
<title>Node24</title>
<g id="a_node24"><a xlink:href="_runner_pool_8h.html" target="_top" xlink:title=" ">
<polygon fill="white" stroke="black" points="195.5,-235.5 195.5,-254.5 270.5,-254.5 270.5,-235.5 195.5,-235.5"/>
<text text-anchor="middle" x="233" y="-242.5" font-family="Helvetica,sans-Serif" font-size="10.00">RunnerPool.h</text>
</a>
</g>
</g>
<!-- Node13&#45;&gt;Node24 -->
<g id="edge24" class="edge">
<title>Node13&#45;&gt;Node24</title>
<path fill="none" stroke="midnightblue" d="M240.63,-291.4C239.28,-283.38 237.58,-273.23 236.12,-264.57"/>
<polygon fill="midnightblue" stroke="midnightblue" points="239.56,-263.94 234.46,-254.66 232.66,-265.1 239.56,-263.94"/>
</g>
<!-- Node25 -->
<g id="node25" class="node">
<title>Node25</title>
<g id="a_node25"><a xlink:href="_main_pool_8h.html" target="_top" xlink:title=" ">
<polygon fill="white" stroke="black" points="327.5,-235.5 327.5,-254.5 392.5,-254.5 392.5,-235.5 327.5,-235.5"/>
<text text-anchor="middle" x="360" y="-242.5" font-family="Helvetica,sans-Serif" font-size="10.00">MainPool.h</text>
</a>
</g>
</g>
<!-- Node13&#45;&gt;Node25 -->
<g id="edge26" class="edge">
<title>Node13&#45;&gt;Node25</title>
<path fill="none" stroke="midnightblue" d="M270.73,-291.4C289.83,-281.68 315.06,-268.86 333.82,-259.31"/>
<polygon fill="midnightblue" stroke="midnightblue" points="335.65,-262.31 342.98,-254.66 332.48,-256.07 335.65,-262.31"/>
</g>
<!-- Node15 -->
<g id="node15" class="node">
<title>Node15</title>
<g id="a_node15"><a xlink:href="_thread_pool_8h.html" target="_top" xlink:title=" ">
<polygon fill="white" stroke="black" points="256,-118 256,-137 330,-137 330,-118 256,-118"/>
<text text-anchor="middle" x="293" y="-125" font-family="Helvetica,sans-Serif" font-size="10.00">ThreadPool.h</text>
</a>
</g>
</g>
<!-- Node14&#45;&gt;Node15 -->
<g id="edge14" class="edge">
<title>Node14&#45;&gt;Node15</title>
<path fill="none" stroke="midnightblue" d="M313.56,-179.48C310.1,-170.9 304.67,-157.43 300.25,-146.48"/>
<polygon fill="midnightblue" stroke="midnightblue" points="303.42,-144.97 296.43,-137.01 296.93,-147.59 303.42,-144.97"/>
</g>
<!-- Node15&#45;&gt;Node6 -->
<g id="edge20" class="edge">
<title>Node15&#45;&gt;Node6</title>
<path fill="none" stroke="midnightblue" d="M261.05,-117.98C220.35,-107.12 150.16,-88.39 107.13,-76.91"/>
<polygon fill="midnightblue" stroke="midnightblue" points="107.9,-73.49 97.33,-74.29 106.09,-80.25 107.9,-73.49"/>
</g>
<!-- Node16 -->
<g id="node16" class="node">
<title>Node16</title>
<g id="a_node16"><a xlink:title=" ">
<polygon fill="white" stroke="#bfbfbf" points="271,-56.5 271,-75.5 315,-75.5 315,-56.5 271,-56.5"/>
<text text-anchor="middle" x="293" y="-63.5" font-family="Helvetica,sans-Serif" font-size="10.00">thread</text>
</a>
</g>
</g>
<!-- Node15&#45;&gt;Node16 -->
<g id="edge15" class="edge">
<title>Node15&#45;&gt;Node16</title>
<path fill="none" stroke="midnightblue" d="M293,-117.98C293,-109.58 293,-96.48 293,-85.66"/>
<polygon fill="midnightblue" stroke="midnightblue" points="296.5,-85.51 293,-75.51 289.5,-85.51 296.5,-85.51"/>
</g>
<!-- Node17 -->
<g id="node17" class="node">
<title>Node17</title>
<g id="a_node17"><a xlink:title=" ">
<polygon fill="white" stroke="#bfbfbf" points="504,-56.5 504,-75.5 548,-75.5 548,-56.5 504,-56.5"/>
<text text-anchor="middle" x="526" y="-63.5" font-family="Helvetica,sans-Serif" font-size="10.00">mutex</text>
</a>
</g>
</g>
<!-- Node15&#45;&gt;Node17 -->
<g id="edge16" class="edge">
<title>Node15&#45;&gt;Node17</title>
<path fill="none" stroke="midnightblue" d="M328.3,-117.95C368.5,-108.14 436.11,-91.41 494,-76 494.1,-75.97 494.2,-75.95 494.3,-75.92"/>
<polygon fill="midnightblue" stroke="midnightblue" points="495.26,-79.29 503.99,-73.28 493.42,-72.53 495.26,-79.29"/>
</g>
<!-- Node18 -->
<g id="node18" class="node">
<title>Node18</title>
<g id="a_node18"><a xlink:title=" ">
<polygon fill="white" stroke="#bfbfbf" points="333.5,-56.5 333.5,-75.5 426.5,-75.5 426.5,-56.5 333.5,-56.5"/>
<text text-anchor="middle" x="380" y="-63.5" font-family="Helvetica,sans-Serif" font-size="10.00">condition_variable</text>
</a>
</g>
</g>
<!-- Node15&#45;&gt;Node18 -->
<g id="edge17" class="edge">
<title>Node15&#45;&gt;Node18</title>
<path fill="none" stroke="midnightblue" d="M305.46,-117.98C319.42,-108.43 342.26,-92.81 358.99,-81.37"/>
<polygon fill="midnightblue" stroke="midnightblue" points="361.28,-84.04 367.56,-75.51 357.33,-78.27 361.28,-84.04"/>
</g>
<!-- Node19 -->
<g id="node19" class="node">
<title>Node19</title>
<g id="a_node19"><a xlink:title=" ">
<polygon fill="white" stroke="#bfbfbf" points="444.5,-56.5 444.5,-75.5 485.5,-75.5 485.5,-56.5 444.5,-56.5"/>
<text text-anchor="middle" x="465" y="-63.5" font-family="Helvetica,sans-Serif" font-size="10.00">future</text>
</a>
</g>
</g>
<!-- Node15&#45;&gt;Node19 -->
<g id="edge18" class="edge">
<title>Node15&#45;&gt;Node19</title>
<path fill="none" stroke="midnightblue" d="M317.64,-117.98C348.54,-107.29 401.48,-88.98 434.78,-77.45"/>
<polygon fill="midnightblue" stroke="midnightblue" points="436.13,-80.69 444.44,-74.11 433.85,-74.07 436.13,-80.69"/>
</g>
<!-- Node20 -->
<g id="node20" class="node">
<title>Node20</title>
<g id="a_node20"><a xlink:title=" ">
<polygon fill="white" stroke="#bfbfbf" points="115,-56.5 115,-75.5 167,-75.5 167,-56.5 115,-56.5"/>
<text text-anchor="middle" x="141" y="-63.5" font-family="Helvetica,sans-Serif" font-size="10.00">memory</text>
</a>
</g>
</g>
<!-- Node15&#45;&gt;Node20 -->
<g id="edge19" class="edge">
<title>Node15&#45;&gt;Node20</title>
<path fill="none" stroke="midnightblue" d="M271.22,-117.98C245.26,-107.81 201.69,-90.76 172.17,-79.2"/>
<polygon fill="midnightblue" stroke="midnightblue" points="173.33,-75.9 162.74,-75.51 170.77,-82.41 173.33,-75.9"/>
</g>
<!-- Node21 -->
<g id="node21" class="node">
<title>Node21</title>
<g id="a_node21"><a xlink:href="_base_pool_8h.html" target="_top" xlink:title=" ">
<polygon fill="white" stroke="black" points="185.5,-56.5 185.5,-75.5 252.5,-75.5 252.5,-56.5 185.5,-56.5"/>
<text text-anchor="middle" x="219" y="-63.5" font-family="Helvetica,sans-Serif" font-size="10.00">BasePool.h</text>
</a>
</g>
</g>
<!-- Node15&#45;&gt;Node21 -->
<g id="edge21" class="edge">
<title>Node15&#45;&gt;Node21</title>
<path fill="none" stroke="midnightblue" d="M282.4,-117.98C270.75,-108.61 251.81,-93.38 237.67,-82.01"/>
<polygon fill="midnightblue" stroke="midnightblue" points="239.57,-79.05 229.58,-75.51 235.18,-84.5 239.57,-79.05"/>
</g>
<!-- Node22 -->
<g id="node22" class="node">
<title>Node22</title>
<g id="a_node22"><a xlink:title=" ">
<polygon fill="white" stroke="#bfbfbf" points="163.5,-0.5 163.5,-19.5 206.5,-19.5 206.5,-0.5 163.5,-0.5"/>
<text text-anchor="middle" x="185" y="-7.5" font-family="Helvetica,sans-Serif" font-size="10.00">queue</text>
</a>
</g>
</g>
<!-- Node21&#45;&gt;Node22 -->
<g id="edge22" class="edge">
<title>Node21&#45;&gt;Node22</title>
<path fill="none" stroke="midnightblue" d="M213.39,-56.08C208.63,-48.53 201.68,-37.49 195.85,-28.23"/>
<polygon fill="midnightblue" stroke="midnightblue" points="198.8,-26.35 190.51,-19.75 192.88,-30.08 198.8,-26.35"/>
</g>
<!-- Node23 -->
<g id="node23" class="node">
<title>Node23</title>
<g id="a_node23"><a xlink:title=" ">
<polygon fill="white" stroke="#bfbfbf" points="225,-0.5 225,-19.5 283,-19.5 283,-0.5 225,-0.5"/>
<text text-anchor="middle" x="254" y="-7.5" font-family="Helvetica,sans-Serif" font-size="10.00">functional</text>
</a>
</g>
</g>
<!-- Node21&#45;&gt;Node23 -->
<g id="edge23" class="edge">
<title>Node21&#45;&gt;Node23</title>
<path fill="none" stroke="midnightblue" d="M224.78,-56.08C229.67,-48.53 236.83,-37.49 242.83,-28.23"/>
<polygon fill="midnightblue" stroke="midnightblue" points="245.83,-30.05 248.33,-19.75 239.95,-26.24 245.83,-30.05"/>
</g>
<!-- Node24&#45;&gt;Node15 -->
<g id="edge25" class="edge">
<title>Node24&#45;&gt;Node15</title>
<path fill="none" stroke="midnightblue" d="M234.43,-235.17C236.77,-222.26 242.17,-197.74 252,-179 258.65,-166.32 268.78,-153.8 277.3,-144.41"/>
<polygon fill="midnightblue" stroke="midnightblue" points="279.95,-146.7 284.25,-137.02 274.85,-141.91 279.95,-146.7"/>
</g>
<!-- Node25&#45;&gt;Node14 -->
<g id="edge29" class="edge">
<title>Node25&#45;&gt;Node14</title>
<path fill="none" stroke="midnightblue" d="M352.9,-235.08C346.76,-227.38 337.73,-216.03 330.26,-206.65"/>
<polygon fill="midnightblue" stroke="midnightblue" points="332.94,-204.39 323.97,-198.75 327.46,-208.75 332.94,-204.39"/>
</g>
<!-- Node26 -->
<g id="node26" class="node">
<title>Node26</title>
<g id="a_node26"><a xlink:href="_multithreading_8hpp.html" target="_top" xlink:title=" ">
<polygon fill="white" stroke="black" points="384.5,-112.5 384.5,-142.5 483.5,-142.5 483.5,-112.5 384.5,-112.5"/>
<text text-anchor="start" x="392.5" y="-130.5" font-family="Helvetica,sans-Serif" font-size="10.00">kryne&#45;engine/Utils</text>
<text text-anchor="middle" x="434" y="-119.5" font-family="Helvetica,sans-Serif" font-size="10.00">/Multithreading.hpp</text>
</a>
</g>
</g>
<!-- Node25&#45;&gt;Node26 -->
<g id="edge27" class="edge">
<title>Node25&#45;&gt;Node26</title>
<path fill="none" stroke="midnightblue" d="M365.56,-235.32C376.88,-217.66 402.9,-177.04 419.4,-151.29"/>
<polygon fill="midnightblue" stroke="midnightblue" points="422.55,-152.85 425,-142.55 416.66,-149.08 422.55,-152.85"/>
</g>
<!-- Node26&#45;&gt;Node17 -->
<g id="edge28" class="edge">
<title>Node26&#45;&gt;Node17</title>
<path fill="none" stroke="midnightblue" d="M455.8,-112.4C470.41,-102.95 489.57,-90.56 504.18,-81.11"/>
<polygon fill="midnightblue" stroke="midnightblue" points="506.12,-84.03 512.61,-75.66 502.32,-78.15 506.12,-84.03"/>
</g>
<!-- Node27&#45;&gt;Node3 -->
<g id="edge32" class="edge">
<title>Node27&#45;&gt;Node3</title>
<path fill="none" stroke="midnightblue" d="M528.95,-414.4C507.27,-404.55 478.54,-391.5 457.45,-381.92"/>
<polygon fill="midnightblue" stroke="midnightblue" points="458.61,-378.61 448.06,-377.66 455.72,-384.98 458.61,-378.61"/>
</g>
</g>
</svg>
