<?xml version="1.0" encoding="UTF-8" standalone="no"?>
<!DOCTYPE svg PUBLIC "-//W3C//DTD SVG 1.1//EN"
 "http://www.w3.org/Graphics/SVG/1.1/DTD/svg11.dtd">
<!-- Generated by graphviz version 2.44.1 (20200629.0846)
 -->
<!-- Title: kryne&#45;engine/include/kryne&#45;engine/Material/AdditionalMaterials/TextureCopyMaterial.h Pages: 1 -->
<svg width="1826pt" height="698pt"
 viewBox="0.00 0.00 1826.25 698.00" xmlns="http://www.w3.org/2000/svg" xmlns:xlink="http://www.w3.org/1999/xlink">
<g id="graph0" class="graph" transform="scale(1 1) rotate(0) translate(4 694)">
<title>kryne&#45;engine/include/kryne&#45;engine/Material/AdditionalMaterials/TextureCopyMaterial.h</title>
<polygon fill="white" stroke="transparent" points="-4,4 -4,-694 1822.25,-694 1822.25,4 -4,4"/>
<!-- Node1 -->
<g id="node1" class="node">
<title>Node1</title>
<g id="a_node1"><a xlink:title=" ">
<polygon fill="#bfbfbf" stroke="black" points="80.5,-637.5 80.5,-689.5 240.5,-689.5 240.5,-637.5 80.5,-637.5"/>
<text text-anchor="start" x="88.5" y="-677.5" font-family="Helvetica,sans-Serif" font-size="10.00">kryne&#45;engine/include</text>
<text text-anchor="start" x="88.5" y="-666.5" font-family="Helvetica,sans-Serif" font-size="10.00">/kryne&#45;engine/Material</text>
<text text-anchor="start" x="88.5" y="-655.5" font-family="Helvetica,sans-Serif" font-size="10.00">/AdditionalMaterials/TextureCopy</text>
<text text-anchor="middle" x="160.5" y="-644.5" font-family="Helvetica,sans-Serif" font-size="10.00">Material.h</text>
</a>
</g>
</g>
<!-- Node2 -->
<g id="node2" class="node">
<title>Node2</title>
<g id="a_node2"><a xlink:href="kryne-engine_2_material_2_material_8h.html" target="_top" xlink:title=" ">
<polygon fill="white" stroke="black" points="105.5,-570.5 105.5,-600.5 215.5,-600.5 215.5,-570.5 105.5,-570.5"/>
<text text-anchor="start" x="113.5" y="-588.5" font-family="Helvetica,sans-Serif" font-size="10.00">kryne&#45;engine/Material</text>
<text text-anchor="middle" x="160.5" y="-577.5" font-family="Helvetica,sans-Serif" font-size="10.00">/Material.h</text>
</a>
</g>
</g>
<!-- Node1&#45;&gt;Node2 -->
<g id="edge1" class="edge">
<title>Node1&#45;&gt;Node2</title>
<path fill="none" stroke="midnightblue" d="M160.5,-637.19C160.5,-628.79 160.5,-619.44 160.5,-611.09"/>
<polygon fill="midnightblue" stroke="midnightblue" points="164,-610.85 160.5,-600.85 157,-610.85 164,-610.85"/>
</g>
<!-- Node3 -->
<g id="node3" class="node">
<title>Node3</title>
<g id="a_node3"><a xlink:href="_material_side_8h.html" target="_top" xlink:title=" ">
<polygon fill="white" stroke="black" points="40.5,-503.5 40.5,-533.5 144.5,-533.5 144.5,-503.5 40.5,-503.5"/>
<text text-anchor="start" x="48.5" y="-521.5" font-family="Helvetica,sans-Serif" font-size="10.00">kryne&#45;engine/enums</text>
<text text-anchor="middle" x="92.5" y="-510.5" font-family="Helvetica,sans-Serif" font-size="10.00">/MaterialSide.h</text>
</a>
</g>
</g>
<!-- Node2&#45;&gt;Node3 -->
<g id="edge2" class="edge">
<title>Node2&#45;&gt;Node3</title>
<path fill="none" stroke="midnightblue" d="M145.75,-570.4C136.66,-561.71 124.83,-550.4 114.63,-540.66"/>
<polygon fill="midnightblue" stroke="midnightblue" points="116.87,-537.96 107.23,-533.58 112.04,-543.02 116.87,-537.96"/>
</g>
<!-- Node4 -->
<g id="node4" class="node">
<title>Node4</title>
<g id="a_node4"><a xlink:href="_shader_program_compiler_8h.html" target="_top" xlink:title=" ">
<polygon fill="white" stroke="black" points="162.5,-503.5 162.5,-533.5 296.5,-533.5 296.5,-503.5 162.5,-503.5"/>
<text text-anchor="start" x="170.5" y="-521.5" font-family="Helvetica,sans-Serif" font-size="10.00">kryne&#45;engine/Rendering</text>
<text text-anchor="middle" x="229.5" y="-510.5" font-family="Helvetica,sans-Serif" font-size="10.00">/ShaderProgramCompiler.h</text>
</a>
</g>
</g>
<!-- Node2&#45;&gt;Node4 -->
<g id="edge3" class="edge">
<title>Node2&#45;&gt;Node4</title>
<path fill="none" stroke="midnightblue" d="M175.47,-570.4C184.69,-561.71 196.69,-550.4 207.04,-540.66"/>
<polygon fill="midnightblue" stroke="midnightblue" points="209.68,-542.98 214.56,-533.58 204.88,-537.89 209.68,-542.98"/>
</g>
<!-- Node5 -->
<g id="node5" class="node">
<title>Node5</title>
<g id="a_node5"><a xlink:title=" ">
<polygon fill="white" stroke="#bfbfbf" points="50,-442 50,-461 91,-461 91,-442 50,-442"/>
<text text-anchor="middle" x="70.5" y="-449" font-family="Helvetica,sans-Serif" font-size="10.00">regex</text>
</a>
</g>
</g>
<!-- Node4&#45;&gt;Node5 -->
<g id="edge4" class="edge">
<title>Node4&#45;&gt;Node5</title>
<path fill="none" stroke="midnightblue" d="M194.73,-503.41C169.86,-493.31 135.6,-479.36 105.5,-467 103.91,-466.35 102.28,-465.68 100.64,-465"/>
<polygon fill="midnightblue" stroke="midnightblue" points="101.8,-461.69 91.22,-461.11 99.13,-468.16 101.8,-461.69"/>
</g>
<!-- Node6 -->
<g id="node6" class="node">
<title>Node6</title>
<g id="a_node6"><a xlink:href="_shader_8h.html" target="_top" xlink:title=" ">
<polygon fill="white" stroke="black" points="477.5,-436.5 477.5,-466.5 587.5,-466.5 587.5,-436.5 477.5,-436.5"/>
<text text-anchor="start" x="485.5" y="-454.5" font-family="Helvetica,sans-Serif" font-size="10.00">kryne&#45;engine/Material</text>
<text text-anchor="middle" x="532.5" y="-443.5" font-family="Helvetica,sans-Serif" font-size="10.00">/Shader.h</text>
</a>
</g>
</g>
<!-- Node4&#45;&gt;Node6 -->
<g id="edge5" class="edge">
<title>Node4&#45;&gt;Node6</title>
<path fill="none" stroke="midnightblue" d="M294.87,-503.48C345.92,-492.52 416.51,-477.38 467.47,-466.45"/>
<polygon fill="midnightblue" stroke="midnightblue" points="468.35,-469.84 477.39,-464.32 466.88,-463 468.35,-469.84"/>
</g>
<!-- Node9 -->
<g id="node9" class="node">
<title>Node9</title>
<g id="a_node9"><a xlink:href="_dispatcher_8h.html" target="_top" xlink:title=" ">
<polygon fill="white" stroke="black" points="195,-235.5 195,-265.5 308,-265.5 308,-235.5 195,-235.5"/>
<text text-anchor="start" x="203" y="-253.5" font-family="Helvetica,sans-Serif" font-size="10.00">kryne&#45;engine/Dispatch</text>
<text text-anchor="middle" x="251.5" y="-242.5" font-family="Helvetica,sans-Serif" font-size="10.00">/Dispatcher.h</text>
</a>
</g>
</g>
<!-- Node4&#45;&gt;Node9 -->
<g id="edge74" class="edge">
<title>Node4&#45;&gt;Node9</title>
<path fill="none" stroke="midnightblue" d="M218.22,-503.26C191.29,-467.4 128.3,-371.3 167.5,-302 175.27,-288.27 188.42,-277.86 202.04,-270.17"/>
<polygon fill="midnightblue" stroke="midnightblue" points="203.76,-273.22 211.01,-265.5 200.53,-267.02 203.76,-273.22"/>
</g>
<!-- Node45 -->
<g id="node41" class="node">
<title>Node45</title>
<g id="a_node41"><a xlink:href="_buffer_geometry_8h.html" target="_top" xlink:title=" ">
<polygon fill="white" stroke="black" points="1218.5,-369.5 1218.5,-399.5 1336.5,-399.5 1336.5,-369.5 1218.5,-369.5"/>
<text text-anchor="start" x="1226.5" y="-387.5" font-family="Helvetica,sans-Serif" font-size="10.00">kryne&#45;engine/Geometry</text>
<text text-anchor="middle" x="1277.5" y="-376.5" font-family="Helvetica,sans-Serif" font-size="10.00">/BufferGeometry.h</text>
</a>
</g>
</g>
<!-- Node4&#45;&gt;Node45 -->
<g id="edge52" class="edge">
<title>Node4&#45;&gt;Node45</title>
<path fill="none" stroke="midnightblue" d="M296.65,-509.04C485.07,-485.31 1017.39,-418.26 1208.29,-394.22"/>
<polygon fill="midnightblue" stroke="midnightblue" points="1208.99,-397.66 1218.47,-392.93 1208.12,-390.71 1208.99,-397.66"/>
</g>
<!-- Node7 -->
<g id="node7" class="node">
<title>Node7</title>
<g id="a_node7"><a xlink:title=" ">
<polygon fill="white" stroke="#bfbfbf" points="717,-375 717,-394 752,-394 752,-375 717,-375"/>
<text text-anchor="middle" x="734.5" y="-382" font-family="Helvetica,sans-Serif" font-size="10.00">map</text>
</a>
</g>
</g>
<!-- Node6&#45;&gt;Node7 -->
<g id="edge6" class="edge">
<title>Node6&#45;&gt;Node7</title>
<path fill="none" stroke="midnightblue" d="M587.51,-437.82C622.49,-428.98 668.41,-415.93 707.5,-400 708.53,-399.58 709.58,-399.13 710.63,-398.66"/>
<polygon fill="midnightblue" stroke="midnightblue" points="712.51,-401.63 719.92,-394.06 709.4,-395.36 712.51,-401.63"/>
</g>
<!-- Node8 -->
<g id="node8" class="node">
<title>Node8</title>
<g id="a_node8"><a xlink:title=" ">
<polygon fill="white" stroke="#bfbfbf" points="770.5,-375 770.5,-394 822.5,-394 822.5,-375 770.5,-375"/>
<text text-anchor="middle" x="796.5" y="-382" font-family="Helvetica,sans-Serif" font-size="10.00">sstream</text>
</a>
</g>
</g>
<!-- Node6&#45;&gt;Node8 -->
<g id="edge7" class="edge">
<title>Node6&#45;&gt;Node8</title>
<path fill="none" stroke="midnightblue" d="M587.81,-441.13C634.64,-432.52 703.25,-418.33 761.5,-400 763.64,-399.33 765.83,-398.57 768.02,-397.78"/>
<polygon fill="midnightblue" stroke="midnightblue" points="769.42,-400.99 777.47,-394.09 766.88,-394.47 769.42,-400.99"/>
</g>
<!-- Node6&#45;&gt;Node9 -->
<g id="edge8" class="edge">
<title>Node6&#45;&gt;Node9</title>
<path fill="none" stroke="midnightblue" d="M477.33,-440.8C386.13,-423.46 210.66,-384.13 177.5,-333 170,-321.44 171.06,-314.18 177.5,-302 184.4,-288.94 196.36,-278.62 208.68,-270.81"/>
<polygon fill="midnightblue" stroke="midnightblue" points="210.79,-273.63 217.65,-265.56 207.25,-267.59 210.79,-273.63"/>
</g>
<!-- Node24 -->
<g id="node21" class="node">
<title>Node24</title>
<g id="a_node21"><a xlink:href="_uniforms_handler_8h.html" target="_top" xlink:title=" ">
<polygon fill="white" stroke="black" points="602.5,-375 602.5,-394 698.5,-394 698.5,-375 602.5,-375"/>
<text text-anchor="middle" x="650.5" y="-382" font-family="Helvetica,sans-Serif" font-size="10.00">UniformsHandler.h</text>
</a>
</g>
</g>
<!-- Node6&#45;&gt;Node24 -->
<g id="edge23" class="edge">
<title>Node6&#45;&gt;Node24</title>
<path fill="none" stroke="midnightblue" d="M558.1,-436.4C578.35,-425.24 606.42,-409.78 626.29,-398.83"/>
<polygon fill="midnightblue" stroke="midnightblue" points="627.99,-401.9 635.06,-394.01 624.61,-395.77 627.99,-401.9"/>
</g>
<!-- Node38 -->
<g id="node35" class="node">
<title>Node38</title>
<g id="a_node35"><a xlink:href="_shader_chunk_8h.html" target="_top" xlink:title=" ">
<polygon fill="white" stroke="black" points="336,-375 336,-394 419,-394 419,-375 336,-375"/>
<text text-anchor="middle" x="377.5" y="-382" font-family="Helvetica,sans-Serif" font-size="10.00">ShaderChunk.h</text>
</a>
</g>
</g>
<!-- Node6&#45;&gt;Node38 -->
<g id="edge42" class="edge">
<title>Node6&#45;&gt;Node38</title>
<path fill="none" stroke="midnightblue" d="M498.87,-436.4C471.55,-424.94 433.39,-408.94 407.19,-397.95"/>
<polygon fill="midnightblue" stroke="midnightblue" points="408.36,-394.65 397.79,-394.01 405.65,-401.1 408.36,-394.65"/>
</g>
<!-- Node10 -->
<g id="node10" class="node">
<title>Node10</title>
<g id="a_node10"><a xlink:href="_synchronizable_pool_8h.html" target="_top" xlink:title=" ">
<polygon fill="white" stroke="black" points="195,-123.5 195,-142.5 306,-142.5 306,-123.5 195,-123.5"/>
<text text-anchor="middle" x="250.5" y="-130.5" font-family="Helvetica,sans-Serif" font-size="10.00">SynchronizablePool.h</text>
</a>
</g>
</g>
<!-- Node9&#45;&gt;Node10 -->
<g id="edge9" class="edge">
<title>Node9&#45;&gt;Node10</title>
<path fill="none" stroke="midnightblue" d="M251.38,-235.34C251.2,-214.62 250.86,-176.02 250.66,-152.9"/>
<polygon fill="midnightblue" stroke="midnightblue" points="254.16,-152.64 250.58,-142.67 247.16,-152.7 254.16,-152.64"/>
</g>
<!-- Node21 -->
<g id="node18" class="node">
<title>Node21</title>
<g id="a_node18"><a xlink:href="_runner_pool_8h.html" target="_top" xlink:title=" ">
<polygon fill="white" stroke="black" points="63,-123.5 63,-142.5 138,-142.5 138,-123.5 63,-123.5"/>
<text text-anchor="middle" x="100.5" y="-130.5" font-family="Helvetica,sans-Serif" font-size="10.00">RunnerPool.h</text>
</a>
</g>
</g>
<!-- Node9&#45;&gt;Node21 -->
<g id="edge17" class="edge">
<title>Node9&#45;&gt;Node21</title>
<path fill="none" stroke="midnightblue" d="M232.98,-235.34C204.29,-213.39 149.36,-171.37 120.05,-148.95"/>
<polygon fill="midnightblue" stroke="midnightblue" points="121.9,-145.96 111.83,-142.67 117.65,-151.52 121.9,-145.96"/>
</g>
<!-- Node22 -->
<g id="node19" class="node">
<title>Node22</title>
<g id="a_node19"><a xlink:href="_main_pool_8h.html" target="_top" xlink:title=" ">
<polygon fill="white" stroke="black" points="279,-179.5 279,-198.5 344,-198.5 344,-179.5 279,-179.5"/>
<text text-anchor="middle" x="311.5" y="-186.5" font-family="Helvetica,sans-Serif" font-size="10.00">MainPool.h</text>
</a>
</g>
</g>
<!-- Node9&#45;&gt;Node22 -->
<g id="edge19" class="edge">
<title>Node9&#45;&gt;Node22</title>
<path fill="none" stroke="midnightblue" d="M265.72,-235.4C274.71,-226.49 286.34,-214.95 295.63,-205.74"/>
<polygon fill="midnightblue" stroke="midnightblue" points="298.13,-208.18 302.77,-198.66 293.2,-203.21 298.13,-208.18"/>
</g>
<!-- Node11 -->
<g id="node11" class="node">
<title>Node11</title>
<g id="a_node11"><a xlink:href="_thread_pool_8h.html" target="_top" xlink:title=" ">
<polygon fill="white" stroke="red" points="64.5,-62 64.5,-81 138.5,-81 138.5,-62 64.5,-62"/>
<text text-anchor="middle" x="101.5" y="-69" font-family="Helvetica,sans-Serif" font-size="10.00">ThreadPool.h</text>
</a>
</g>
</g>
<!-- Node10&#45;&gt;Node11 -->
<g id="edge10" class="edge">
<title>Node10&#45;&gt;Node11</title>
<path fill="none" stroke="midnightblue" d="M229.15,-123.48C203.81,-113.36 161.36,-96.4 132.43,-84.85"/>
<polygon fill="midnightblue" stroke="midnightblue" points="133.39,-81.47 122.81,-81.01 130.8,-87.97 133.39,-81.47"/>
</g>
<!-- Node12 -->
<g id="node12" class="node">
<title>Node12</title>
<g id="a_node12"><a xlink:title=" ">
<polygon fill="white" stroke="#bfbfbf" points="59.5,-0.5 59.5,-19.5 103.5,-19.5 103.5,-0.5 59.5,-0.5"/>
<text text-anchor="middle" x="81.5" y="-7.5" font-family="Helvetica,sans-Serif" font-size="10.00">thread</text>
</a>
</g>
</g>
<!-- Node11&#45;&gt;Node12 -->
<g id="edge11" class="edge">
<title>Node11&#45;&gt;Node12</title>
<path fill="none" stroke="midnightblue" d="M98.63,-61.98C95.78,-53.49 91.32,-40.2 87.66,-29.32"/>
<polygon fill="midnightblue" stroke="midnightblue" points="90.86,-27.87 84.36,-19.51 84.23,-30.1 90.86,-27.87"/>
</g>
<!-- Node13 -->
<g id="node13" class="node">
<title>Node13</title>
<g id="a_node13"><a xlink:title=" ">
<polygon fill="white" stroke="#bfbfbf" points="233.5,-0.5 233.5,-19.5 277.5,-19.5 277.5,-0.5 233.5,-0.5"/>
<text text-anchor="middle" x="255.5" y="-7.5" font-family="Helvetica,sans-Serif" font-size="10.00">mutex</text>
</a>
</g>
</g>
<!-- Node11&#45;&gt;Node13 -->
<g id="edge12" class="edge">
<title>Node11&#45;&gt;Node13</title>
<path fill="none" stroke="midnightblue" d="M123.56,-61.98C149.87,-51.81 194.01,-34.76 223.92,-23.2"/>
<polygon fill="midnightblue" stroke="midnightblue" points="225.41,-26.38 233.48,-19.51 222.89,-19.85 225.41,-26.38"/>
</g>
<!-- Node14 -->
<g id="node14" class="node">
<title>Node14</title>
<g id="a_node14"><a xlink:title=" ">
<polygon fill="white" stroke="#bfbfbf" points="122,-0.5 122,-19.5 215,-19.5 215,-0.5 122,-0.5"/>
<text text-anchor="middle" x="168.5" y="-7.5" font-family="Helvetica,sans-Serif" font-size="10.00">condition_variable</text>
</a>
</g>
</g>
<!-- Node11&#45;&gt;Node14 -->
<g id="edge13" class="edge">
<title>Node11&#45;&gt;Node14</title>
<path fill="none" stroke="midnightblue" d="M111.1,-61.98C121.55,-52.7 138.47,-37.67 151.24,-26.33"/>
<polygon fill="midnightblue" stroke="midnightblue" points="153.77,-28.77 158.92,-19.51 149.12,-23.53 153.77,-28.77"/>
</g>
<!-- Node15 -->
<g id="node15" class="node">
<title>Node15</title>
<g id="a_node15"><a xlink:title=" ">
<polygon fill="white" stroke="#bfbfbf" points="0,-0.5 0,-19.5 41,-19.5 41,-0.5 0,-0.5"/>
<text text-anchor="middle" x="20.5" y="-7.5" font-family="Helvetica,sans-Serif" font-size="10.00">future</text>
</a>
</g>
</g>
<!-- Node11&#45;&gt;Node15 -->
<g id="edge14" class="edge">
<title>Node11&#45;&gt;Node15</title>
<path fill="none" stroke="midnightblue" d="M89.89,-61.98C77.02,-52.52 56.03,-37.1 40.49,-25.69"/>
<polygon fill="midnightblue" stroke="midnightblue" points="42.22,-22.61 32.08,-19.51 38.07,-28.25 42.22,-22.61"/>
</g>
<!-- Node16 -->
<g id="node16" class="node">
<title>Node16</title>
<g id="a_node16"><a xlink:title=" ">
<polygon fill="white" stroke="#bfbfbf" points="295.5,-0.5 295.5,-19.5 347.5,-19.5 347.5,-0.5 295.5,-0.5"/>
<text text-anchor="middle" x="321.5" y="-7.5" font-family="Helvetica,sans-Serif" font-size="10.00">memory</text>
</a>
</g>
</g>
<!-- Node11&#45;&gt;Node16 -->
<g id="edge15" class="edge">
<title>Node11&#45;&gt;Node16</title>
<path fill="none" stroke="midnightblue" d="M131.14,-61.98C138.14,-60 145.58,-57.91 152.5,-56 198.26,-43.4 251.16,-29.41 285.4,-20.42"/>
<polygon fill="midnightblue" stroke="midnightblue" points="286.62,-23.72 295.41,-17.8 284.85,-16.95 286.62,-23.72"/>
</g>
<!-- Node17 -->
<g id="node17" class="node">
<title>Node17</title>
<g id="a_node17"><a xlink:title=" ">
<polygon fill="white" stroke="#bfbfbf" points="365.5,-0.5 365.5,-19.5 419.5,-19.5 419.5,-0.5 365.5,-0.5"/>
<text text-anchor="middle" x="392.5" y="-7.5" font-family="Helvetica,sans-Serif" font-size="10.00">iostream</text>
</a>
</g>
</g>
<!-- Node11&#45;&gt;Node17 -->
<g id="edge16" class="edge">
<title>Node11&#45;&gt;Node17</title>
<path fill="none" stroke="midnightblue" d="M129.69,-61.93C137.07,-59.84 145.05,-57.71 152.5,-56 239.16,-36.09 264.72,-38.95 355.53,-20.07"/>
<polygon fill="midnightblue" stroke="midnightblue" points="356.36,-23.48 365.42,-17.99 354.91,-16.63 356.36,-23.48"/>
</g>
<!-- Node21&#45;&gt;Node11 -->
<g id="edge18" class="edge">
<title>Node21&#45;&gt;Node11</title>
<path fill="none" stroke="midnightblue" d="M100.64,-123.48C100.78,-115.08 101,-101.98 101.19,-91.16"/>
<polygon fill="midnightblue" stroke="midnightblue" points="104.69,-91.07 101.36,-81.01 97.69,-90.95 104.69,-91.07"/>
</g>
<!-- Node22&#45;&gt;Node10 -->
<g id="edge22" class="edge">
<title>Node22&#45;&gt;Node10</title>
<path fill="none" stroke="midnightblue" d="M301.7,-179.32C292.68,-171.34 279.09,-159.31 268.18,-149.65"/>
<polygon fill="midnightblue" stroke="midnightblue" points="270.29,-146.84 260.48,-142.83 265.65,-152.08 270.29,-146.84"/>
</g>
<!-- Node23 -->
<g id="node20" class="node">
<title>Node23</title>
<g id="a_node20"><a xlink:href="_multithreading_8hpp.html" target="_top" xlink:title=" ">
<polygon fill="white" stroke="black" points="216,-56.5 216,-86.5 315,-86.5 315,-56.5 216,-56.5"/>
<text text-anchor="start" x="224" y="-74.5" font-family="Helvetica,sans-Serif" font-size="10.00">kryne&#45;engine/Utils</text>
<text text-anchor="middle" x="265.5" y="-63.5" font-family="Helvetica,sans-Serif" font-size="10.00">/Multithreading.hpp</text>
</a>
</g>
</g>
<!-- Node22&#45;&gt;Node23 -->
<g id="edge20" class="edge">
<title>Node22&#45;&gt;Node23</title>
<path fill="none" stroke="midnightblue" d="M314.4,-179.19C318.12,-166.31 323.24,-141.82 315.5,-123 310.82,-111.62 302.19,-101.43 293.4,-93.25"/>
<polygon fill="midnightblue" stroke="midnightblue" points="295.58,-90.5 285.74,-86.59 290.99,-95.79 295.58,-90.5"/>
</g>
<!-- Node23&#45;&gt;Node13 -->
<g id="edge21" class="edge">
<title>Node23&#45;&gt;Node13</title>
<path fill="none" stroke="midnightblue" d="M263.13,-56.4C261.78,-48.38 260.08,-38.23 258.62,-29.57"/>
<polygon fill="midnightblue" stroke="midnightblue" points="262.06,-28.94 256.96,-19.66 255.16,-30.1 262.06,-28.94"/>
</g>
<!-- Node25 -->
<g id="node22" class="node">
<title>Node25</title>
<g id="a_node22"><a xlink:title=" ">
<polygon fill="white" stroke="#bfbfbf" points="484,-241 484,-260 525,-260 525,-241 484,-241"/>
<text text-anchor="middle" x="504.5" y="-248" font-family="Helvetica,sans-Serif" font-size="10.00">string</text>
</a>
</g>
</g>
<!-- Node24&#45;&gt;Node25 -->
<g id="edge24" class="edge">
<title>Node24&#45;&gt;Node25</title>
<path fill="none" stroke="midnightblue" d="M602.47,-376.47C555.3,-368.47 488.19,-353.76 472.5,-333 457.46,-313.09 474.86,-285.21 489.29,-267.76"/>
<polygon fill="midnightblue" stroke="midnightblue" points="492.02,-269.95 495.97,-260.11 486.76,-265.34 492.02,-269.95"/>
</g>
<!-- Node26 -->
<g id="node23" class="node">
<title>Node26</title>
<g id="a_node23"><a xlink:title=" ">
<polygon fill="white" stroke="#bfbfbf" points="714,-308 714,-327 797,-327 797,-308 714,-308"/>
<text text-anchor="middle" x="755.5" y="-315" font-family="Helvetica,sans-Serif" font-size="10.00">unordered_map</text>
</a>
</g>
</g>
<!-- Node24&#45;&gt;Node26 -->
<g id="edge25" class="edge">
<title>Node24&#45;&gt;Node26</title>
<path fill="none" stroke="midnightblue" d="M664.66,-374.73C682.21,-363.87 712.34,-345.22 733.06,-332.39"/>
<polygon fill="midnightblue" stroke="midnightblue" points="734.9,-335.37 741.56,-327.13 731.22,-329.41 734.9,-335.37"/>
</g>
<!-- Node27 -->
<g id="node24" class="node">
<title>Node27</title>
<g id="a_node24"><a xlink:title=" ">
<polygon fill="white" stroke="#bfbfbf" points="1036.5,-241 1036.5,-260 1100.5,-260 1100.5,-241 1036.5,-241"/>
<text text-anchor="middle" x="1068.5" y="-248" font-family="Helvetica,sans-Serif" font-size="10.00">glad/glad.h</text>
</a>
</g>
</g>
<!-- Node24&#45;&gt;Node27 -->
<g id="edge26" class="edge">
<title>Node24&#45;&gt;Node27</title>
<path fill="none" stroke="midnightblue" d="M681.65,-374.98C690.3,-372.82 699.73,-370.64 708.5,-369 834.86,-345.37 881.63,-392.66 995.5,-333 1023.57,-318.3 1046.05,-288.15 1058.31,-268.93"/>
<polygon fill="midnightblue" stroke="midnightblue" points="1061.39,-270.6 1063.63,-260.25 1055.42,-266.95 1061.39,-270.6"/>
</g>
<!-- Node28 -->
<g id="node25" class="node">
<title>Node28</title>
<g id="a_node25"><a xlink:title=" ">
<polygon fill="white" stroke="#bfbfbf" points="940.5,-241 940.5,-260 1018.5,-260 1018.5,-241 940.5,-241"/>
<text text-anchor="middle" x="979.5" y="-248" font-family="Helvetica,sans-Serif" font-size="10.00">GLFW/glfw3.h</text>
</a>
</g>
</g>
<!-- Node24&#45;&gt;Node28 -->
<g id="edge27" class="edge">
<title>Node24&#45;&gt;Node28</title>
<path fill="none" stroke="midnightblue" d="M681.97,-374.96C690.53,-372.82 699.84,-370.66 708.5,-369 767.52,-357.7 936.11,-377.5 976.5,-333 991.78,-316.16 989.07,-288.38 984.93,-270.01"/>
<polygon fill="midnightblue" stroke="midnightblue" points="988.28,-269 982.38,-260.2 981.51,-270.76 988.28,-269"/>
</g>
<!-- Node29 -->
<g id="node26" class="node">
<title>Node29</title>
<g id="a_node26"><a xlink:title=" ">
<polygon fill="white" stroke="#bfbfbf" points="1324.5,-241 1324.5,-260 1410.5,-260 1410.5,-241 1324.5,-241"/>
<text text-anchor="middle" x="1367.5" y="-248" font-family="Helvetica,sans-Serif" font-size="10.00">glm/mat4x4.hpp</text>
</a>
</g>
</g>
<!-- Node24&#45;&gt;Node29 -->
<g id="edge28" class="edge">
<title>Node24&#45;&gt;Node29</title>
<path fill="none" stroke="midnightblue" d="M680.71,-374.95C689.6,-372.7 699.38,-370.5 708.5,-369 905.62,-336.67 961.76,-377.45 1156.5,-333 1225.68,-317.21 1302.32,-283.11 1341.42,-264.41"/>
<polygon fill="midnightblue" stroke="midnightblue" points="1343.05,-267.51 1350.53,-260.01 1340,-261.21 1343.05,-267.51"/>
</g>
<!-- Node30 -->
<g id="node27" class="node">
<title>Node30</title>
<g id="a_node27"><a xlink:title=" ">
<polygon fill="white" stroke="#bfbfbf" points="481.5,-308 481.5,-327 587.5,-327 587.5,-308 481.5,-308"/>
<text text-anchor="middle" x="534.5" y="-315" font-family="Helvetica,sans-Serif" font-size="10.00">glm/gtc/type_ptr.hpp</text>
</a>
</g>
</g>
<!-- Node24&#45;&gt;Node30 -->
<g id="edge29" class="edge">
<title>Node24&#45;&gt;Node30</title>
<path fill="none" stroke="midnightblue" d="M634.86,-374.73C615.29,-363.77 581.58,-344.88 558.68,-332.05"/>
<polygon fill="midnightblue" stroke="midnightblue" points="560.33,-328.96 549.9,-327.13 556.91,-335.07 560.33,-328.96"/>
</g>
<!-- Node31 -->
<g id="node28" class="node">
<title>Node31</title>
<g id="a_node28"><a xlink:title=" ">
<polygon fill="white" stroke="#bfbfbf" points="605.5,-308 605.5,-327 695.5,-327 695.5,-308 605.5,-308"/>
<text text-anchor="middle" x="650.5" y="-315" font-family="Helvetica,sans-Serif" font-size="10.00">boost/variant.hpp</text>
</a>
</g>
</g>
<!-- Node24&#45;&gt;Node31 -->
<g id="edge30" class="edge">
<title>Node24&#45;&gt;Node31</title>
<path fill="none" stroke="midnightblue" d="M650.5,-374.73C650.5,-365.18 650.5,-349.62 650.5,-337.28"/>
<polygon fill="midnightblue" stroke="midnightblue" points="654,-337.13 650.5,-327.13 647,-337.13 654,-337.13"/>
</g>
<!-- Node32 -->
<g id="node29" class="node">
<title>Node32</title>
<g id="a_node29"><a xlink:href="_texture_8h.html" target="_top" xlink:title=" ">
<polygon fill="white" stroke="black" points="854,-302.5 854,-332.5 967,-332.5 967,-302.5 854,-302.5"/>
<text text-anchor="start" x="862" y="-320.5" font-family="Helvetica,sans-Serif" font-size="10.00">kryne&#45;engine/Textures</text>
<text text-anchor="middle" x="910.5" y="-309.5" font-family="Helvetica,sans-Serif" font-size="10.00">/Texture.h</text>
</a>
</g>
</g>
<!-- Node24&#45;&gt;Node32 -->
<g id="edge31" class="edge">
<title>Node24&#45;&gt;Node32</title>
<path fill="none" stroke="midnightblue" d="M684.76,-374.94C725.22,-364.82 793.45,-347.76 844.33,-335.04"/>
<polygon fill="midnightblue" stroke="midnightblue" points="845.41,-338.38 854.26,-332.56 843.71,-331.59 845.41,-338.38"/>
</g>
<!-- Node32&#45;&gt;Node9 -->
<g id="edge41" class="edge">
<title>Node32&#45;&gt;Node9</title>
<path fill="none" stroke="midnightblue" d="M853.64,-304.23C848.87,-303.4 844.11,-302.64 839.5,-302 626.28,-272.4 570.56,-288.73 356.5,-266 344.08,-264.68 330.87,-263.04 318.16,-261.35"/>
<polygon fill="midnightblue" stroke="midnightblue" points="318.47,-257.86 308.09,-259.98 317.53,-264.79 318.47,-257.86"/>
</g>
<!-- Node32&#45;&gt;Node17 -->
<g id="edge34" class="edge">
<title>Node32&#45;&gt;Node17</title>
<path fill="none" stroke="midnightblue" d="M903.73,-302.45C893.3,-279.49 874.5,-232.24 874.5,-190 874.5,-190 874.5,-190 874.5,-132 874.5,-40.48 543.46,-17.55 430.07,-12.38"/>
<polygon fill="midnightblue" stroke="midnightblue" points="429.94,-8.87 419.8,-11.93 429.63,-15.86 429.94,-8.87"/>
</g>
<!-- Node32&#45;&gt;Node25 -->
<g id="edge33" class="edge">
<title>Node32&#45;&gt;Node25</title>
<path fill="none" stroke="midnightblue" d="M854,-304.52C849.1,-303.61 844.22,-302.76 839.5,-302 704.74,-280.32 665.53,-304.23 534.5,-266 532.63,-265.45 530.72,-264.8 528.84,-264.07"/>
<polygon fill="midnightblue" stroke="midnightblue" points="530.24,-260.87 519.68,-260.04 527.42,-267.28 530.24,-260.87"/>
</g>
<!-- Node32&#45;&gt;Node27 -->
<g id="edge39" class="edge">
<title>Node32&#45;&gt;Node27</title>
<path fill="none" stroke="midnightblue" d="M944.78,-302.4C972.63,-290.94 1011.53,-274.94 1038.23,-263.95"/>
<polygon fill="midnightblue" stroke="midnightblue" points="1039.91,-267.05 1047.82,-260.01 1037.24,-260.57 1039.91,-267.05"/>
</g>
<!-- Node32&#45;&gt;Node28 -->
<g id="edge40" class="edge">
<title>Node32&#45;&gt;Node28</title>
<path fill="none" stroke="midnightblue" d="M925.47,-302.4C936.44,-292.06 951.34,-278.02 962.72,-267.31"/>
<polygon fill="midnightblue" stroke="midnightblue" points="965.39,-269.6 970.27,-260.19 960.59,-264.5 965.39,-269.6"/>
</g>
<!-- Node33 -->
<g id="node30" class="node">
<title>Node33</title>
<g id="a_node30"><a xlink:title=" ">
<polygon fill="white" stroke="#bfbfbf" points="650.5,-241 650.5,-260 720.5,-260 720.5,-241 650.5,-241"/>
<text text-anchor="middle" x="685.5" y="-248" font-family="Helvetica,sans-Serif" font-size="10.00">stb_image.h</text>
</a>
</g>
</g>
<!-- Node32&#45;&gt;Node33 -->
<g id="edge32" class="edge">
<title>Node32&#45;&gt;Node33</title>
<path fill="none" stroke="midnightblue" d="M858.36,-302.44C822.34,-292.59 773.39,-278.92 730.5,-266 727.53,-265.11 724.46,-264.16 721.38,-263.2"/>
<polygon fill="midnightblue" stroke="midnightblue" points="722.21,-259.79 711.62,-260.1 720.1,-266.46 722.21,-259.79"/>
</g>
<!-- Node34 -->
<g id="node31" class="node">
<title>Node34</title>
<g id="a_node31"><a xlink:title=" ">
<polygon fill="white" stroke="#bfbfbf" points="739,-241 739,-260 846,-260 846,-241 739,-241"/>
<text text-anchor="middle" x="792.5" y="-248" font-family="Helvetica,sans-Serif" font-size="10.00">boost/filesystem.hpp</text>
</a>
</g>
</g>
<!-- Node32&#45;&gt;Node34 -->
<g id="edge35" class="edge">
<title>Node32&#45;&gt;Node34</title>
<path fill="none" stroke="midnightblue" d="M884.9,-302.4C864.65,-291.24 836.58,-275.78 816.71,-264.83"/>
<polygon fill="midnightblue" stroke="midnightblue" points="818.39,-261.77 807.94,-260.01 815.01,-267.9 818.39,-261.77"/>
</g>
<!-- Node35 -->
<g id="node32" class="node">
<title>Node35</title>
<g id="a_node32"><a xlink:title=" ">
<polygon fill="white" stroke="#bfbfbf" points="543,-241 543,-260 632,-260 632,-241 543,-241"/>
<text text-anchor="middle" x="587.5" y="-248" font-family="Helvetica,sans-Serif" font-size="10.00">boost/format.hpp</text>
</a>
</g>
</g>
<!-- Node32&#45;&gt;Node35 -->
<g id="edge36" class="edge">
<title>Node32&#45;&gt;Node35</title>
<path fill="none" stroke="midnightblue" d="M853.94,-304.83C849.06,-303.86 844.19,-302.91 839.5,-302 751.68,-285.05 728.77,-285.61 641.5,-266 637.01,-264.99 632.33,-263.86 627.69,-262.68"/>
<polygon fill="midnightblue" stroke="midnightblue" points="628.22,-259.21 617.66,-260.07 626.46,-265.98 628.22,-259.21"/>
</g>
<!-- Node36 -->
<g id="node33" class="node">
<title>Node36</title>
<g id="a_node33"><a xlink:title=" ">
<polygon fill="white" stroke="#bfbfbf" points="1118.5,-241 1118.5,-260 1192.5,-260 1192.5,-241 1118.5,-241"/>
<text text-anchor="middle" x="1155.5" y="-248" font-family="Helvetica,sans-Serif" font-size="10.00">glm/vec2.hpp</text>
</a>
</g>
</g>
<!-- Node32&#45;&gt;Node36 -->
<g id="edge37" class="edge">
<title>Node32&#45;&gt;Node36</title>
<path fill="none" stroke="midnightblue" d="M967.34,-302.99C1007.27,-293.27 1061.84,-279.55 1109.5,-266 1112.82,-265.06 1116.27,-264.04 1119.71,-263"/>
<polygon fill="midnightblue" stroke="midnightblue" points="1120.78,-266.33 1129.31,-260.04 1118.72,-259.64 1120.78,-266.33"/>
</g>
<!-- Node37 -->
<g id="node34" class="node">
<title>Node37</title>
<g id="a_node34"><a xlink:title=" ">
<polygon fill="white" stroke="#bfbfbf" points="1392.5,-179.5 1392.5,-198.5 1466.5,-198.5 1466.5,-179.5 1392.5,-179.5"/>
<text text-anchor="middle" x="1429.5" y="-186.5" font-family="Helvetica,sans-Serif" font-size="10.00">glm/vec3.hpp</text>
</a>
</g>
</g>
<!-- Node32&#45;&gt;Node37 -->
<g id="edge38" class="edge">
<title>Node32&#45;&gt;Node37</title>
<path fill="none" stroke="midnightblue" d="M909.63,-302.48C909.33,-283.93 911.9,-251.65 931.5,-235 965.41,-206.18 1264.53,-194.66 1382.22,-191.21"/>
<polygon fill="midnightblue" stroke="midnightblue" points="1382.48,-194.71 1392.37,-190.92 1382.28,-187.71 1382.48,-194.71"/>
</g>
<!-- Node38&#45;&gt;Node17 -->
<g id="edge46" class="edge">
<title>Node38&#45;&gt;Node17</title>
<path fill="none" stroke="midnightblue" d="M359.28,-374.92C339.93,-365.54 308.72,-349.61 283.5,-333 265.01,-320.82 262.6,-314.75 244.5,-302 219.69,-284.53 204.53,-290.4 186.5,-266 165.74,-237.91 166.5,-224.93 166.5,-190 166.5,-190 166.5,-190 166.5,-132 166.5,-93.62 177.1,-79.43 207.5,-56 259.04,-16.28 287.7,-34.43 355.54,-20.06"/>
<polygon fill="midnightblue" stroke="midnightblue" points="356.41,-23.45 365.38,-17.8 354.85,-16.62 356.41,-23.45"/>
</g>
<!-- Node38&#45;&gt;Node25 -->
<g id="edge44" class="edge">
<title>Node38&#45;&gt;Node25</title>
<path fill="none" stroke="midnightblue" d="M383,-374.83C393.09,-359.27 415.74,-326.01 439.5,-302 452.81,-288.55 469.75,-275.5 482.99,-266.04"/>
<polygon fill="midnightblue" stroke="midnightblue" points="485.3,-268.7 491.49,-260.1 481.29,-262.96 485.3,-268.7"/>
</g>
<!-- Node38&#45;&gt;Node26 -->
<g id="edge43" class="edge">
<title>Node38&#45;&gt;Node26</title>
<path fill="none" stroke="midnightblue" d="M419.1,-378.75C481.52,-371.25 602.92,-355.19 704.5,-333 708.92,-332.03 713.52,-330.91 718.07,-329.71"/>
<polygon fill="midnightblue" stroke="midnightblue" points="719.14,-333.05 727.87,-327.03 717.3,-326.29 719.14,-333.05"/>
</g>
<!-- Node39 -->
<g id="node36" class="node">
<title>Node39</title>
<g id="a_node36"><a xlink:title=" ">
<polygon fill="white" stroke="#bfbfbf" points="186,-308 186,-327 235,-327 235,-308 186,-308"/>
<text text-anchor="middle" x="210.5" y="-315" font-family="Helvetica,sans-Serif" font-size="10.00">fstream</text>
</a>
</g>
</g>
<!-- Node38&#45;&gt;Node39 -->
<g id="edge45" class="edge">
<title>Node38&#45;&gt;Node39</title>
<path fill="none" stroke="midnightblue" d="M355.32,-374.87C326.3,-363.57 275.23,-343.7 242.15,-330.82"/>
<polygon fill="midnightblue" stroke="midnightblue" points="243.09,-327.43 232.5,-327.06 240.55,-333.95 243.09,-327.43"/>
</g>
<!-- Node40 -->
<g id="node37" class="node">
<title>Node40</title>
<g id="a_node37"><a xlink:href="kryne-engine_2_utils_2_utils_8h.html" target="_top" xlink:title=" ">
<polygon fill="white" stroke="black" points="292,-302.5 292,-332.5 387,-332.5 387,-302.5 292,-302.5"/>
<text text-anchor="start" x="300" y="-320.5" font-family="Helvetica,sans-Serif" font-size="10.00">kryne&#45;engine/Utils</text>
<text text-anchor="middle" x="339.5" y="-309.5" font-family="Helvetica,sans-Serif" font-size="10.00">/Utils.h</text>
</a>
</g>
</g>
<!-- Node38&#45;&gt;Node40 -->
<g id="edge47" class="edge">
<title>Node38&#45;&gt;Node40</title>
<path fill="none" stroke="midnightblue" d="M372.38,-374.73C367.39,-366.2 359.6,-352.87 352.85,-341.33"/>
<polygon fill="midnightblue" stroke="midnightblue" points="355.81,-339.46 347.74,-332.59 349.76,-342.99 355.81,-339.46"/>
</g>
<!-- Node41 -->
<g id="node38" class="node">
<title>Node41</title>
<g id="a_node38"><a xlink:href="_string_utils_8hpp.html" target="_top" xlink:title=" ">
<polygon fill="white" stroke="black" points="342.5,-62 342.5,-81 422.5,-81 422.5,-62 342.5,-62"/>
<text text-anchor="middle" x="382.5" y="-69" font-family="Helvetica,sans-Serif" font-size="10.00">StringUtils.hpp</text>
</a>
</g>
</g>
<!-- Node40&#45;&gt;Node41 -->
<g id="edge48" class="edge">
<title>Node40&#45;&gt;Node41</title>
<path fill="none" stroke="midnightblue" d="M342,-302.33C349.35,-260.61 370.92,-138.23 379.2,-91.2"/>
<polygon fill="midnightblue" stroke="midnightblue" points="382.68,-91.65 380.97,-81.2 375.79,-90.44 382.68,-91.65"/>
</g>
<!-- Node42 -->
<g id="node39" class="node">
<title>Node42</title>
<g id="a_node39"><a xlink:href="_vector_mapping_8hpp.html" target="_top" xlink:title=" ">
<polygon fill="white" stroke="red" points="365,-241 365,-260 466,-260 466,-241 365,-241"/>
<text text-anchor="middle" x="415.5" y="-248" font-family="Helvetica,sans-Serif" font-size="10.00">VectorMapping.hpp</text>
</a>
</g>
</g>
<!-- Node40&#45;&gt;Node42 -->
<g id="edge50" class="edge">
<title>Node40&#45;&gt;Node42</title>
<path fill="none" stroke="midnightblue" d="M355.99,-302.4C368.19,-291.96 384.81,-277.75 397.38,-267"/>
<polygon fill="midnightblue" stroke="midnightblue" points="400.01,-269.35 405.33,-260.19 395.46,-264.03 400.01,-269.35"/>
</g>
<!-- Node41&#45;&gt;Node17 -->
<g id="edge49" class="edge">
<title>Node41&#45;&gt;Node17</title>
<path fill="none" stroke="midnightblue" d="M383.93,-61.98C385.34,-53.58 387.55,-40.48 389.36,-29.66"/>
<polygon fill="midnightblue" stroke="midnightblue" points="392.86,-29.95 391.07,-19.51 385.96,-28.79 392.86,-29.95"/>
</g>
<!-- Node43 -->
<g id="node40" class="node">
<title>Node43</title>
<g id="a_node40"><a xlink:title=" ">
<polygon fill="white" stroke="#bfbfbf" points="1045.5,-179.5 1045.5,-198.5 1087.5,-198.5 1087.5,-179.5 1045.5,-179.5"/>
<text text-anchor="middle" x="1066.5" y="-186.5" font-family="Helvetica,sans-Serif" font-size="10.00">vector</text>
</a>
</g>
</g>
<!-- Node42&#45;&gt;Node43 -->
<g id="edge51" class="edge">
<title>Node42&#45;&gt;Node43</title>
<path fill="none" stroke="midnightblue" d="M446.76,-240.94C455.96,-238.69 466.08,-236.49 475.5,-235 687.72,-201.5 946.9,-192.71 1035.27,-190.61"/>
<polygon fill="midnightblue" stroke="midnightblue" points="1035.5,-194.1 1045.42,-190.38 1035.34,-187.11 1035.5,-194.1"/>
</g>
<!-- Node45&#45;&gt;Node9 -->
<g id="edge61" class="edge">
<title>Node45&#45;&gt;Node9</title>
<path fill="none" stroke="midnightblue" d="M1218.16,-380.58C1116,-374.9 911.48,-360.43 845.5,-333 825.05,-324.5 827.1,-310.12 806.5,-302 713.18,-265.19 456.23,-276.87 356.5,-266 344.09,-264.65 330.88,-262.99 318.16,-261.29"/>
<polygon fill="midnightblue" stroke="midnightblue" points="318.48,-257.8 308.1,-259.92 317.54,-264.74 318.48,-257.8"/>
</g>
<!-- Node45&#45;&gt;Node16 -->
<g id="edge54" class="edge">
<title>Node45&#45;&gt;Node16</title>
<path fill="none" stroke="midnightblue" d="M1274.1,-369.34C1268.64,-345.27 1258.5,-294.8 1258.5,-251.5 1258.5,-251.5 1258.5,-251.5 1258.5,-132 1258.5,-33.67 497.5,-38.5 357.75,-19.73"/>
<polygon fill="midnightblue" stroke="midnightblue" points="358.22,-16.26 347.79,-18.15 357.12,-23.17 358.22,-16.26"/>
</g>
<!-- Node45&#45;&gt;Node17 -->
<g id="edge55" class="edge">
<title>Node45&#45;&gt;Node17</title>
<path fill="none" stroke="midnightblue" d="M1280.9,-369.34C1286.36,-345.27 1296.5,-294.8 1296.5,-251.5 1296.5,-251.5 1296.5,-251.5 1296.5,-132 1296.5,-96.58 1300.53,-77.66 1272.5,-56 1238.67,-29.85 592.64,-15.05 429.61,-11.72"/>
<polygon fill="midnightblue" stroke="midnightblue" points="429.65,-8.22 419.59,-11.52 429.51,-15.22 429.65,-8.22"/>
</g>
<!-- Node45&#45;&gt;Node26 -->
<g id="edge56" class="edge">
<title>Node45&#45;&gt;Node26</title>
<path fill="none" stroke="midnightblue" d="M1218.25,-379.85C1129.35,-373.75 956.39,-359.46 811.5,-333 806.13,-332.02 800.51,-330.8 795,-329.49"/>
<polygon fill="midnightblue" stroke="midnightblue" points="795.81,-326.08 785.26,-327.06 794.11,-332.88 795.81,-326.08"/>
</g>
<!-- Node45&#45;&gt;Node36 -->
<g id="edge58" class="edge">
<title>Node45&#45;&gt;Node36</title>
<path fill="none" stroke="midnightblue" d="M1264.44,-369.37C1241.59,-344.65 1194.49,-293.68 1170.4,-267.62"/>
<polygon fill="midnightblue" stroke="midnightblue" points="1172.8,-265.07 1163.45,-260.1 1167.66,-269.82 1172.8,-265.07"/>
</g>
<!-- Node45&#45;&gt;Node37 -->
<g id="edge59" class="edge">
<title>Node45&#45;&gt;Node37</title>
<path fill="none" stroke="midnightblue" d="M1336.5,-382.14C1446.29,-378.79 1677.26,-367.74 1748.5,-333 1785.79,-314.82 1797.91,-304.45 1813.5,-266 1849.94,-176.11 1657.38,-223.55 1476.58,-198.98"/>
<polygon fill="midnightblue" stroke="midnightblue" points="1477,-195.51 1466.61,-197.55 1476.01,-202.43 1477,-195.51"/>
</g>
<!-- Node46 -->
<g id="node42" class="node">
<title>Node46</title>
<g id="a_node42"><a xlink:title=" ">
<polygon fill="white" stroke="#bfbfbf" points="1324.5,-308 1324.5,-327 1380.5,-327 1380.5,-308 1324.5,-308"/>
<text text-anchor="middle" x="1352.5" y="-315" font-family="Helvetica,sans-Serif" font-size="10.00">algorithm</text>
</a>
</g>
</g>
<!-- Node45&#45;&gt;Node46 -->
<g id="edge53" class="edge">
<title>Node45&#45;&gt;Node46</title>
<path fill="none" stroke="midnightblue" d="M1293.77,-369.4C1305.82,-358.96 1322.21,-344.75 1334.62,-334"/>
<polygon fill="midnightblue" stroke="midnightblue" points="1337.2,-336.39 1342.47,-327.19 1332.62,-331.1 1337.2,-336.39"/>
</g>
<!-- Node20 -->
<g id="node43" class="node">
<title>Node20</title>
<g id="a_node43"><a xlink:title=" ">
<polygon fill="white" stroke="#bfbfbf" points="1398.5,-308 1398.5,-327 1456.5,-327 1456.5,-308 1398.5,-308"/>
<text text-anchor="middle" x="1427.5" y="-315" font-family="Helvetica,sans-Serif" font-size="10.00">functional</text>
</a>
</g>
</g>
<!-- Node45&#45;&gt;Node20 -->
<g id="edge57" class="edge">
<title>Node45&#45;&gt;Node20</title>
<path fill="none" stroke="midnightblue" d="M1310.05,-369.4C1336.37,-357.99 1373.09,-342.08 1398.43,-331.1"/>
<polygon fill="midnightblue" stroke="midnightblue" points="1400.08,-334.19 1407.87,-327.01 1397.3,-327.77 1400.08,-334.19"/>
</g>
<!-- Node47 -->
<g id="node44" class="node">
<title>Node47</title>
<g id="a_node44"><a xlink:title=" ">
<polygon fill="white" stroke="#bfbfbf" points="1475,-308 1475,-327 1572,-327 1572,-308 1475,-308"/>
<text text-anchor="middle" x="1523.5" y="-315" font-family="Helvetica,sans-Serif" font-size="10.00">glm/geometric.hpp</text>
</a>
</g>
</g>
<!-- Node45&#45;&gt;Node47 -->
<g id="edge60" class="edge">
<title>Node45&#45;&gt;Node47</title>
<path fill="none" stroke="midnightblue" d="M1330.58,-369.48C1375.72,-357.55 1439.69,-340.64 1481.39,-329.63"/>
<polygon fill="midnightblue" stroke="midnightblue" points="1482.45,-332.97 1491.22,-327.03 1480.66,-326.2 1482.45,-332.97"/>
</g>
<!-- Node48 -->
<g id="node45" class="node">
<title>Node48</title>
<g id="a_node45"><a xlink:href="_sphere_8hpp.html" target="_top" xlink:title=" ">
<polygon fill="white" stroke="black" points="1590,-308 1590,-327 1739,-327 1739,-308 1590,-308"/>
<text text-anchor="middle" x="1664.5" y="-315" font-family="Helvetica,sans-Serif" font-size="10.00">kryne&#45;engine/Math/Sphere.hpp</text>
</a>
</g>
</g>
<!-- Node45&#45;&gt;Node48 -->
<g id="edge62" class="edge">
<title>Node45&#45;&gt;Node48</title>
<path fill="none" stroke="midnightblue" d="M1336.66,-373.82C1397.93,-363.76 1496.46,-347.49 1581.5,-333 1589.5,-331.64 1597.92,-330.18 1606.22,-328.74"/>
<polygon fill="midnightblue" stroke="midnightblue" points="1606.98,-332.16 1616.23,-327 1605.78,-325.27 1606.98,-332.16"/>
</g>
<!-- Node53 -->
<g id="node50" class="node">
<title>Node53</title>
<g id="a_node50"><a xlink:href="_buffer_attribute_8h.html" target="_top" xlink:title=" ">
<polygon fill="white" stroke="black" points="1061.5,-308 1061.5,-327 1147.5,-327 1147.5,-308 1061.5,-308"/>
<text text-anchor="middle" x="1104.5" y="-315" font-family="Helvetica,sans-Serif" font-size="10.00">BufferAttribute.h</text>
</a>
</g>
</g>
<!-- Node45&#45;&gt;Node53 -->
<g id="edge69" class="edge">
<title>Node45&#45;&gt;Node53</title>
<path fill="none" stroke="midnightblue" d="M1239.96,-369.4C1209.2,-357.84 1166.13,-341.66 1136.87,-330.66"/>
<polygon fill="midnightblue" stroke="midnightblue" points="1137.73,-327.25 1127.14,-327.01 1135.27,-333.8 1137.73,-327.25"/>
</g>
<!-- Node48&#45;&gt;Node29 -->
<g id="edge63" class="edge">
<title>Node48&#45;&gt;Node29</title>
<path fill="none" stroke="midnightblue" d="M1618.23,-307.95C1568.81,-298.58 1488.3,-282.66 1419.5,-266 1415.35,-264.99 1411.03,-263.89 1406.73,-262.75"/>
<polygon fill="midnightblue" stroke="midnightblue" points="1407.4,-259.3 1396.83,-260.06 1405.57,-266.06 1407.4,-259.3"/>
</g>
<!-- Node49 -->
<g id="node46" class="node">
<title>Node49</title>
<g id="a_node46"><a xlink:title=" ">
<polygon fill="white" stroke="#bfbfbf" points="1712.5,-241 1712.5,-260 1804.5,-260 1804.5,-241 1712.5,-241"/>
<text text-anchor="middle" x="1758.5" y="-248" font-family="Helvetica,sans-Serif" font-size="10.00">glm/gtx/norm.hpp</text>
</a>
</g>
</g>
<!-- Node48&#45;&gt;Node49 -->
<g id="edge64" class="edge">
<title>Node48&#45;&gt;Node49</title>
<path fill="none" stroke="midnightblue" d="M1677.18,-307.73C1692.68,-297.01 1719.14,-278.72 1737.66,-265.91"/>
<polygon fill="midnightblue" stroke="midnightblue" points="1739.79,-268.69 1746.02,-260.13 1735.81,-262.94 1739.79,-268.69"/>
</g>
<!-- Node50 -->
<g id="node47" class="node">
<title>Node50</title>
<g id="a_node47"><a xlink:title=" ">
<polygon fill="white" stroke="#bfbfbf" points="1551,-241 1551,-260 1694,-260 1694,-241 1551,-241"/>
<text text-anchor="middle" x="1622.5" y="-248" font-family="Helvetica,sans-Serif" font-size="10.00">glm/gtx/component_wise.hpp</text>
</a>
</g>
</g>
<!-- Node48&#45;&gt;Node50 -->
<g id="edge65" class="edge">
<title>Node48&#45;&gt;Node50</title>
<path fill="none" stroke="midnightblue" d="M1658.84,-307.73C1652.41,-297.79 1641.78,-281.34 1633.67,-268.79"/>
<polygon fill="midnightblue" stroke="midnightblue" points="1636.44,-266.63 1628.07,-260.13 1630.56,-270.43 1636.44,-266.63"/>
</g>
<!-- Node51 -->
<g id="node48" class="node">
<title>Node51</title>
<g id="a_node48"><a xlink:href="_axis_aligned_box_8hpp.html" target="_top" xlink:title=" ">
<polygon fill="white" stroke="black" points="1428.5,-241 1428.5,-260 1532.5,-260 1532.5,-241 1428.5,-241"/>
<text text-anchor="middle" x="1480.5" y="-248" font-family="Helvetica,sans-Serif" font-size="10.00">AxisAlignedBox.hpp</text>
</a>
</g>
</g>
<!-- Node48&#45;&gt;Node51 -->
<g id="edge66" class="edge">
<title>Node48&#45;&gt;Node51</title>
<path fill="none" stroke="midnightblue" d="M1640.07,-307.87C1607.81,-296.47 1550.85,-276.35 1514.43,-263.49"/>
<polygon fill="midnightblue" stroke="midnightblue" points="1515.34,-260.09 1504.74,-260.06 1513,-266.69 1515.34,-260.09"/>
</g>
<!-- Node51&#45;&gt;Node37 -->
<g id="edge67" class="edge">
<title>Node51&#45;&gt;Node37</title>
<path fill="none" stroke="midnightblue" d="M1473.19,-240.98C1465.47,-231.96 1453.09,-217.52 1443.48,-206.31"/>
<polygon fill="midnightblue" stroke="midnightblue" points="1445.96,-203.82 1436.79,-198.51 1440.64,-208.38 1445.96,-203.82"/>
</g>
<!-- Node52 -->
<g id="node49" class="node">
<title>Node52</title>
<g id="a_node49"><a xlink:title=" ">
<polygon fill="white" stroke="#bfbfbf" points="1484.5,-179.5 1484.5,-198.5 1576.5,-198.5 1576.5,-179.5 1484.5,-179.5"/>
<text text-anchor="middle" x="1530.5" y="-186.5" font-family="Helvetica,sans-Serif" font-size="10.00">glm/common.hpp</text>
</a>
</g>
</g>
<!-- Node51&#45;&gt;Node52 -->
<g id="edge68" class="edge">
<title>Node51&#45;&gt;Node52</title>
<path fill="none" stroke="midnightblue" d="M1487.66,-240.98C1495.24,-231.96 1507.37,-217.52 1516.79,-206.31"/>
<polygon fill="midnightblue" stroke="midnightblue" points="1519.6,-208.42 1523.35,-198.51 1514.24,-203.91 1519.6,-208.42"/>
</g>
<!-- Node53&#45;&gt;Node25 -->
<g id="edge71" class="edge">
<title>Node53&#45;&gt;Node25</title>
<path fill="none" stroke="midnightblue" d="M1061.28,-311.26C1036.49,-308.34 1004.77,-304.75 976.5,-302 780.33,-282.9 724.68,-317.76 534.5,-266 532.57,-265.48 530.62,-264.83 528.69,-264.1"/>
<polygon fill="midnightblue" stroke="midnightblue" points="529.9,-260.82 519.34,-260.01 527.09,-267.23 529.9,-260.82"/>
</g>
<!-- Node53&#45;&gt;Node27 -->
<g id="edge72" class="edge">
<title>Node53&#45;&gt;Node27</title>
<path fill="none" stroke="midnightblue" d="M1099.64,-307.73C1094.19,-297.89 1085.2,-281.66 1078.28,-269.16"/>
<polygon fill="midnightblue" stroke="midnightblue" points="1081.19,-267.18 1073.28,-260.13 1075.06,-270.57 1081.19,-267.18"/>
</g>
<!-- Node53&#45;&gt;Node28 -->
<g id="edge73" class="edge">
<title>Node53&#45;&gt;Node28</title>
<path fill="none" stroke="midnightblue" d="M1087.9,-307.87C1066.79,-296.89 1030.12,-277.82 1005.34,-264.94"/>
<polygon fill="midnightblue" stroke="midnightblue" points="1006.65,-261.68 996.17,-260.17 1003.43,-267.89 1006.65,-261.68"/>
</g>
<!-- Node53&#45;&gt;Node43 -->
<g id="edge70" class="edge">
<title>Node53&#45;&gt;Node43</title>
<path fill="none" stroke="midnightblue" d="M1140.6,-307.84C1162.34,-300.57 1188.3,-287.75 1201.5,-266 1208.65,-254.22 1209.56,-246.18 1201.5,-235 1178.01,-202.41 1129.89,-193.06 1097.91,-190.58"/>
<polygon fill="midnightblue" stroke="midnightblue" points="1097.93,-187.08 1087.74,-189.98 1097.52,-194.07 1097.93,-187.08"/>
</g>
</g>
</svg>
