<?xml version="1.0" encoding="UTF-8" standalone="no"?>
<!DOCTYPE svg PUBLIC "-//W3C//DTD SVG 1.1//EN"
 "http://www.w3.org/Graphics/SVG/1.1/DTD/svg11.dtd">
<!-- Generated by graphviz version 2.44.1 (20200629.0846)
 -->
<!-- Title: kryne&#45;engine/include/kryne&#45;engine/Textures/TextureCubeMap.h Pages: 1 -->
<svg width="861pt" height="296pt"
 viewBox="0.00 0.00 860.50 296.00" xmlns="http://www.w3.org/2000/svg" xmlns:xlink="http://www.w3.org/1999/xlink">
<g id="graph0" class="graph" transform="scale(1 1) rotate(0) translate(4 292)">
<title>kryne&#45;engine/include/kryne&#45;engine/Textures/TextureCubeMap.h</title>
<polygon fill="white" stroke="transparent" points="-4,4 -4,-292 856.5,-292 856.5,4 -4,4"/>
<!-- Node1 -->
<g id="node1" class="node">
<title>Node1</title>
<g id="a_node1"><a xlink:title=" ">
<polygon fill="#bfbfbf" stroke="black" points="455,-246.5 455,-287.5 571,-287.5 571,-246.5 455,-246.5"/>
<text text-anchor="start" x="463" y="-275.5" font-family="Helvetica,sans-Serif" font-size="10.00">kryne&#45;engine/include</text>
<text text-anchor="start" x="463" y="-264.5" font-family="Helvetica,sans-Serif" font-size="10.00">/kryne&#45;engine/Textures</text>
<text text-anchor="middle" x="513" y="-253.5" font-family="Helvetica,sans-Serif" font-size="10.00">/TextureCubeMap.h</text>
</a>
</g>
</g>
<!-- Node2 -->
<g id="node2" class="node">
<title>Node2</title>
<g id="a_node2"><a xlink:href="_texture2_d_8h.html" target="_top" xlink:title=" ">
<polygon fill="white" stroke="black" points="456.5,-179.5 456.5,-209.5 569.5,-209.5 569.5,-179.5 456.5,-179.5"/>
<text text-anchor="start" x="464.5" y="-197.5" font-family="Helvetica,sans-Serif" font-size="10.00">kryne&#45;engine/Textures</text>
<text text-anchor="middle" x="513" y="-186.5" font-family="Helvetica,sans-Serif" font-size="10.00">/Texture2D.h</text>
</a>
</g>
</g>
<!-- Node1&#45;&gt;Node2 -->
<g id="edge1" class="edge">
<title>Node1&#45;&gt;Node2</title>
<path fill="none" stroke="midnightblue" d="M513,-246.36C513,-238.23 513,-228.7 513,-220.11"/>
<polygon fill="midnightblue" stroke="midnightblue" points="516.5,-219.89 513,-209.89 509.5,-219.89 516.5,-219.89"/>
</g>
<!-- Node3 -->
<g id="node3" class="node">
<title>Node3</title>
<g id="a_node3"><a xlink:href="stb__image_8h.html" target="_top" xlink:title=" ">
<polygon fill="white" stroke="black" points="122.5,-112.5 122.5,-142.5 235.5,-142.5 235.5,-112.5 122.5,-112.5"/>
<text text-anchor="start" x="130.5" y="-130.5" font-family="Helvetica,sans-Serif" font-size="10.00">kryne&#45;engine/Textures</text>
<text text-anchor="middle" x="179" y="-119.5" font-family="Helvetica,sans-Serif" font-size="10.00">/stb_image.h</text>
</a>
</g>
</g>
<!-- Node2&#45;&gt;Node3 -->
<g id="edge2" class="edge">
<title>Node2&#45;&gt;Node3</title>
<path fill="none" stroke="midnightblue" d="M456.27,-182.81C402.98,-172.71 321.03,-157.07 250,-143 248.53,-142.71 247.05,-142.42 245.56,-142.12"/>
<polygon fill="midnightblue" stroke="midnightblue" points="246.06,-138.65 235.57,-140.12 244.69,-145.51 246.06,-138.65"/>
</g>
<!-- Node5 -->
<g id="node5" class="node">
<title>Node5</title>
<g id="a_node5"><a xlink:title=" ">
<polygon fill="white" stroke="#bfbfbf" points="615.5,-0.5 615.5,-19.5 656.5,-19.5 656.5,-0.5 615.5,-0.5"/>
<text text-anchor="middle" x="636" y="-7.5" font-family="Helvetica,sans-Serif" font-size="10.00">string</text>
</a>
</g>
</g>
<!-- Node2&#45;&gt;Node5 -->
<g id="edge4" class="edge">
<title>Node2&#45;&gt;Node5</title>
<path fill="none" stroke="midnightblue" d="M543.83,-179.43C579.42,-161.28 636.12,-125.97 660,-76 667.59,-60.13 658.67,-41.18 649.63,-27.84"/>
<polygon fill="midnightblue" stroke="midnightblue" points="652.32,-25.58 643.56,-19.62 646.68,-29.74 652.32,-25.58"/>
</g>
<!-- Node6 -->
<g id="node6" class="node">
<title>Node6</title>
<g id="a_node6"><a xlink:title=" ">
<polygon fill="white" stroke="#bfbfbf" points="742,-0.5 742,-19.5 796,-19.5 796,-0.5 742,-0.5"/>
<text text-anchor="middle" x="769" y="-7.5" font-family="Helvetica,sans-Serif" font-size="10.00">iostream</text>
</a>
</g>
</g>
<!-- Node2&#45;&gt;Node6 -->
<g id="edge5" class="edge">
<title>Node2&#45;&gt;Node6</title>
<path fill="none" stroke="midnightblue" d="M556.49,-179.41C579.91,-170.77 608.69,-158.41 632,-143 683.47,-108.98 732.76,-54.33 755.66,-27.27"/>
<polygon fill="midnightblue" stroke="midnightblue" points="758.41,-29.43 762.13,-19.51 753.04,-24.95 758.41,-29.43"/>
</g>
<!-- Node7 -->
<g id="node7" class="node">
<title>Node7</title>
<g id="a_node7"><a xlink:title=" ">
<polygon fill="white" stroke="#bfbfbf" points="745.5,-118 745.5,-137 852.5,-137 852.5,-118 745.5,-118"/>
<text text-anchor="middle" x="799" y="-125" font-family="Helvetica,sans-Serif" font-size="10.00">boost/filesystem.hpp</text>
</a>
</g>
</g>
<!-- Node2&#45;&gt;Node7 -->
<g id="edge6" class="edge">
<title>Node2&#45;&gt;Node7</title>
<path fill="none" stroke="midnightblue" d="M569.5,-180.66C622.66,-168.58 701.35,-150.69 751.39,-139.32"/>
<polygon fill="midnightblue" stroke="midnightblue" points="752.33,-142.7 761.3,-137.07 750.78,-135.87 752.33,-142.7"/>
</g>
<!-- Node8 -->
<g id="node8" class="node">
<title>Node8</title>
<g id="a_node8"><a xlink:title=" ">
<polygon fill="white" stroke="#bfbfbf" points="0,-0.5 0,-19.5 64,-19.5 64,-0.5 0,-0.5"/>
<text text-anchor="middle" x="32" y="-7.5" font-family="Helvetica,sans-Serif" font-size="10.00">glad/glad.h</text>
</a>
</g>
</g>
<!-- Node2&#45;&gt;Node8 -->
<g id="edge7" class="edge">
<title>Node2&#45;&gt;Node8</title>
<path fill="none" stroke="midnightblue" d="M476.33,-179.5C451.26,-169.73 417.38,-156.13 388,-143 307.98,-107.23 293.29,-86.19 211,-56 186.16,-46.89 118.88,-30.81 74.26,-20.54"/>
<polygon fill="midnightblue" stroke="midnightblue" points="74.8,-17.07 64.27,-18.25 73.24,-23.9 74.8,-17.07"/>
</g>
<!-- Node9 -->
<g id="node9" class="node">
<title>Node9</title>
<g id="a_node9"><a xlink:title=" ">
<polygon fill="white" stroke="#bfbfbf" points="82,-0.5 82,-19.5 160,-19.5 160,-0.5 82,-0.5"/>
<text text-anchor="middle" x="121" y="-7.5" font-family="Helvetica,sans-Serif" font-size="10.00">GLFW/glfw3.h</text>
</a>
</g>
</g>
<!-- Node2&#45;&gt;Node9 -->
<g id="edge8" class="edge">
<title>Node2&#45;&gt;Node9</title>
<path fill="none" stroke="midnightblue" d="M492.86,-179.35C453.32,-152.12 362.09,-91.98 278,-56 243.07,-41.06 201.69,-29.43 170.19,-21.74"/>
<polygon fill="midnightblue" stroke="midnightblue" points="170.86,-18.3 160.32,-19.38 169.24,-25.11 170.86,-18.3"/>
</g>
<!-- Node10 -->
<g id="node10" class="node">
<title>Node10</title>
<g id="a_node10"><a xlink:href="_shader_8h.html" target="_top" xlink:title=" ">
<polygon fill="white" stroke="black" points="458,-112.5 458,-142.5 568,-142.5 568,-112.5 458,-112.5"/>
<text text-anchor="start" x="466" y="-130.5" font-family="Helvetica,sans-Serif" font-size="10.00">kryne&#45;engine/Material</text>
<text text-anchor="middle" x="513" y="-119.5" font-family="Helvetica,sans-Serif" font-size="10.00">/Shader.h</text>
</a>
</g>
</g>
<!-- Node2&#45;&gt;Node10 -->
<g id="edge9" class="edge">
<title>Node2&#45;&gt;Node10</title>
<path fill="none" stroke="midnightblue" d="M513,-179.4C513,-171.64 513,-161.81 513,-152.86"/>
<polygon fill="midnightblue" stroke="midnightblue" points="516.5,-152.58 513,-142.58 509.5,-152.58 516.5,-152.58"/>
</g>
<!-- Node4 -->
<g id="node4" class="node">
<title>Node4</title>
<g id="a_node4"><a xlink:title=" ">
<polygon fill="white" stroke="#bfbfbf" points="156,-56.5 156,-75.5 202,-75.5 202,-56.5 156,-56.5"/>
<text text-anchor="middle" x="179" y="-63.5" font-family="Helvetica,sans-Serif" font-size="10.00">stdio.h</text>
</a>
</g>
</g>
<!-- Node3&#45;&gt;Node4 -->
<g id="edge3" class="edge">
<title>Node3&#45;&gt;Node4</title>
<path fill="none" stroke="midnightblue" d="M179,-112.4C179,-104.47 179,-94.46 179,-85.86"/>
<polygon fill="midnightblue" stroke="midnightblue" points="182.5,-85.66 179,-75.66 175.5,-85.66 182.5,-85.66"/>
</g>
<!-- Node11 -->
<g id="node11" class="node">
<title>Node11</title>
<g id="a_node11"><a xlink:title=" ">
<polygon fill="white" stroke="#bfbfbf" points="615.5,-56.5 615.5,-75.5 650.5,-75.5 650.5,-56.5 615.5,-56.5"/>
<text text-anchor="middle" x="633" y="-63.5" font-family="Helvetica,sans-Serif" font-size="10.00">map</text>
</a>
</g>
</g>
<!-- Node10&#45;&gt;Node11 -->
<g id="edge10" class="edge">
<title>Node10&#45;&gt;Node11</title>
<path fill="none" stroke="midnightblue" d="M541.44,-112.4C561.12,-102.64 587.14,-89.74 606.41,-80.18"/>
<polygon fill="midnightblue" stroke="midnightblue" points="608.13,-83.24 615.54,-75.66 605.02,-76.96 608.13,-83.24"/>
</g>
<!-- Node12 -->
<g id="node12" class="node">
<title>Node12</title>
<g id="a_node12"><a xlink:title=" ">
<polygon fill="white" stroke="#bfbfbf" points="444,-56.5 444,-75.5 496,-75.5 496,-56.5 444,-56.5"/>
<text text-anchor="middle" x="470" y="-63.5" font-family="Helvetica,sans-Serif" font-size="10.00">sstream</text>
</a>
</g>
</g>
<!-- Node10&#45;&gt;Node12 -->
<g id="edge11" class="edge">
<title>Node10&#45;&gt;Node12</title>
<path fill="none" stroke="midnightblue" d="M502.81,-112.4C496.63,-103.84 488.7,-92.87 482.18,-83.86"/>
<polygon fill="midnightblue" stroke="midnightblue" points="484.95,-81.71 476.26,-75.66 479.28,-85.81 484.95,-81.71"/>
</g>
<!-- Node13 -->
<g id="node13" class="node">
<title>Node13</title>
<g id="a_node13"><a xlink:href="_uniforms_handler_8h.html" target="_top" xlink:title=" ">
<polygon fill="white" stroke="black" points="330,-56.5 330,-75.5 426,-75.5 426,-56.5 330,-56.5"/>
<text text-anchor="middle" x="378" y="-63.5" font-family="Helvetica,sans-Serif" font-size="10.00">UniformsHandler.h</text>
</a>
</g>
</g>
<!-- Node10&#45;&gt;Node13 -->
<g id="edge12" class="edge">
<title>Node10&#45;&gt;Node13</title>
<path fill="none" stroke="midnightblue" d="M481.01,-112.4C458.56,-102.51 428.79,-89.38 407.02,-79.79"/>
<polygon fill="midnightblue" stroke="midnightblue" points="408.21,-76.49 397.64,-75.66 405.38,-82.89 408.21,-76.49"/>
</g>
<!-- Node18 -->
<g id="node18" class="node">
<title>Node18</title>
<g id="a_node18"><a xlink:href="_shader_chunk_8h.html" target="_top" xlink:title=" ">
<polygon fill="white" stroke="black" points="514.5,-56.5 514.5,-75.5 597.5,-75.5 597.5,-56.5 514.5,-56.5"/>
<text text-anchor="middle" x="556" y="-63.5" font-family="Helvetica,sans-Serif" font-size="10.00">ShaderChunk.h</text>
</a>
</g>
</g>
<!-- Node10&#45;&gt;Node18 -->
<g id="edge20" class="edge">
<title>Node10&#45;&gt;Node18</title>
<path fill="none" stroke="midnightblue" d="M523.19,-112.4C529.37,-103.84 537.3,-92.87 543.82,-83.86"/>
<polygon fill="midnightblue" stroke="midnightblue" points="546.72,-85.81 549.74,-75.66 541.05,-81.71 546.72,-85.81"/>
</g>
<!-- Node13&#45;&gt;Node5 -->
<g id="edge13" class="edge">
<title>Node13&#45;&gt;Node5</title>
<path fill="none" stroke="midnightblue" d="M426.14,-57.08C470.53,-49.44 538.4,-36.88 605.58,-20.16"/>
<polygon fill="midnightblue" stroke="midnightblue" points="606.64,-23.5 615.48,-17.67 604.93,-16.72 606.64,-23.5"/>
</g>
<!-- Node13&#45;&gt;Node8 -->
<g id="edge15" class="edge">
<title>Node13&#45;&gt;Node8</title>
<path fill="none" stroke="midnightblue" d="M329.76,-58.94C271.49,-51.38 170.29,-37.51 74.08,-20.09"/>
<polygon fill="midnightblue" stroke="midnightblue" points="74.65,-16.64 64.19,-18.29 73.39,-23.53 74.65,-16.64"/>
</g>
<!-- Node13&#45;&gt;Node9 -->
<g id="edge16" class="edge">
<title>Node13&#45;&gt;Node9</title>
<path fill="none" stroke="midnightblue" d="M337.28,-56.44C291.95,-46.92 218.72,-31.53 170.22,-21.34"/>
<polygon fill="midnightblue" stroke="midnightblue" points="170.77,-17.88 160.27,-19.25 169.33,-24.73 170.77,-17.88"/>
</g>
<!-- Node14 -->
<g id="node14" class="node">
<title>Node14</title>
<g id="a_node14"><a xlink:title=" ">
<polygon fill="white" stroke="#bfbfbf" points="514.5,-0.5 514.5,-19.5 597.5,-19.5 597.5,-0.5 514.5,-0.5"/>
<text text-anchor="middle" x="556" y="-7.5" font-family="Helvetica,sans-Serif" font-size="10.00">unordered_map</text>
</a>
</g>
</g>
<!-- Node13&#45;&gt;Node14 -->
<g id="edge14" class="edge">
<title>Node13&#45;&gt;Node14</title>
<path fill="none" stroke="midnightblue" d="M406.2,-56.44C436.41,-47.28 484.51,-32.69 518.03,-22.52"/>
<polygon fill="midnightblue" stroke="midnightblue" points="519.37,-25.77 527.93,-19.52 517.34,-19.07 519.37,-25.77"/>
</g>
<!-- Node15 -->
<g id="node15" class="node">
<title>Node15</title>
<g id="a_node15"><a xlink:title=" ">
<polygon fill="white" stroke="#bfbfbf" points="286,-0.5 286,-19.5 372,-19.5 372,-0.5 286,-0.5"/>
<text text-anchor="middle" x="329" y="-7.5" font-family="Helvetica,sans-Serif" font-size="10.00">glm/mat4x4.hpp</text>
</a>
</g>
</g>
<!-- Node13&#45;&gt;Node15 -->
<g id="edge17" class="edge">
<title>Node13&#45;&gt;Node15</title>
<path fill="none" stroke="midnightblue" d="M369.91,-56.08C362.84,-48.3 352.41,-36.8 343.85,-27.37"/>
<polygon fill="midnightblue" stroke="midnightblue" points="346.25,-24.8 336.94,-19.75 341.07,-29.51 346.25,-24.8"/>
</g>
<!-- Node16 -->
<g id="node16" class="node">
<title>Node16</title>
<g id="a_node16"><a xlink:title=" ">
<polygon fill="white" stroke="#bfbfbf" points="390,-0.5 390,-19.5 496,-19.5 496,-0.5 390,-0.5"/>
<text text-anchor="middle" x="443" y="-7.5" font-family="Helvetica,sans-Serif" font-size="10.00">glm/gtc/type_ptr.hpp</text>
</a>
</g>
</g>
<!-- Node13&#45;&gt;Node16 -->
<g id="edge18" class="edge">
<title>Node13&#45;&gt;Node16</title>
<path fill="none" stroke="midnightblue" d="M388.44,-56.32C398.15,-48.26 412.82,-36.08 424.5,-26.37"/>
<polygon fill="midnightblue" stroke="midnightblue" points="426.91,-28.92 432.37,-19.83 422.44,-23.53 426.91,-28.92"/>
</g>
<!-- Node17 -->
<g id="node17" class="node">
<title>Node17</title>
<g id="a_node17"><a xlink:title=" ">
<polygon fill="white" stroke="#bfbfbf" points="178,-0.5 178,-19.5 268,-19.5 268,-0.5 178,-0.5"/>
<text text-anchor="middle" x="223" y="-7.5" font-family="Helvetica,sans-Serif" font-size="10.00">boost/variant.hpp</text>
</a>
</g>
</g>
<!-- Node13&#45;&gt;Node17 -->
<g id="edge19" class="edge">
<title>Node13&#45;&gt;Node17</title>
<path fill="none" stroke="midnightblue" d="M353.44,-56.44C327.48,-47.4 286.33,-33.06 257.2,-22.92"/>
<polygon fill="midnightblue" stroke="midnightblue" points="258.04,-19.5 247.45,-19.52 255.74,-26.11 258.04,-19.5"/>
</g>
<!-- Node18&#45;&gt;Node5 -->
<g id="edge22" class="edge">
<title>Node18&#45;&gt;Node5</title>
<path fill="none" stroke="midnightblue" d="M568.85,-56.32C581.22,-47.98 600.13,-35.21 614.74,-25.35"/>
<polygon fill="midnightblue" stroke="midnightblue" points="616.85,-28.15 623.18,-19.65 612.93,-22.35 616.85,-28.15"/>
</g>
<!-- Node18&#45;&gt;Node6 -->
<g id="edge24" class="edge">
<title>Node18&#45;&gt;Node6</title>
<path fill="none" stroke="midnightblue" d="M589.75,-56.44C628.49,-46.62 691.83,-30.56 731.92,-20.4"/>
<polygon fill="midnightblue" stroke="midnightblue" points="733,-23.74 741.83,-17.89 731.27,-16.95 733,-23.74"/>
</g>
<!-- Node18&#45;&gt;Node14 -->
<g id="edge21" class="edge">
<title>Node18&#45;&gt;Node14</title>
<path fill="none" stroke="midnightblue" d="M556,-56.08C556,-49.01 556,-38.86 556,-29.99"/>
<polygon fill="midnightblue" stroke="midnightblue" points="559.5,-29.75 556,-19.75 552.5,-29.75 559.5,-29.75"/>
</g>
<!-- Node19 -->
<g id="node19" class="node">
<title>Node19</title>
<g id="a_node19"><a xlink:title=" ">
<polygon fill="white" stroke="#bfbfbf" points="674.5,-0.5 674.5,-19.5 723.5,-19.5 723.5,-0.5 674.5,-0.5"/>
<text text-anchor="middle" x="699" y="-7.5" font-family="Helvetica,sans-Serif" font-size="10.00">fstream</text>
</a>
</g>
</g>
<!-- Node18&#45;&gt;Node19 -->
<g id="edge23" class="edge">
<title>Node18&#45;&gt;Node19</title>
<path fill="none" stroke="midnightblue" d="M578.66,-56.44C602.4,-47.48 639.91,-33.31 666.74,-23.18"/>
<polygon fill="midnightblue" stroke="midnightblue" points="668.33,-26.32 676.45,-19.52 665.86,-19.77 668.33,-26.32"/>
</g>
</g>
</svg>
