<?xml version="1.0" encoding="UTF-8" standalone="no"?>
<!DOCTYPE svg PUBLIC "-//W3C//DTD SVG 1.1//EN"
 "http://www.w3.org/Graphics/SVG/1.1/DTD/svg11.dtd">
<!-- Generated by graphviz version 2.44.1 (20200629.0846)
 -->
<!-- Title: kryne&#45;engine/src/Textures/Texture2D.cpp Pages: 1 -->
<svg width="1006pt" height="509pt"
 viewBox="0.00 0.00 1006.00 509.00" xmlns="http://www.w3.org/2000/svg" xmlns:xlink="http://www.w3.org/1999/xlink">
<g id="graph0" class="graph" transform="scale(1 1) rotate(0) translate(4 505)">
<title>kryne&#45;engine/src/Textures/Texture2D.cpp</title>
<polygon fill="white" stroke="transparent" points="-4,4 -4,-505 1002,-505 1002,4 -4,4"/>
<!-- Node1 -->
<g id="node1" class="node">
<title>Node1</title>
<g id="a_node1"><a xlink:title=" ">
<polygon fill="#bfbfbf" stroke="black" points="341.5,-470.5 341.5,-500.5 470.5,-500.5 470.5,-470.5 341.5,-470.5"/>
<text text-anchor="start" x="349.5" y="-488.5" font-family="Helvetica,sans-Serif" font-size="10.00">kryne&#45;engine/src/Textures</text>
<text text-anchor="middle" x="406" y="-477.5" font-family="Helvetica,sans-Serif" font-size="10.00">/Texture2D.cpp</text>
</a>
</g>
</g>
<!-- Node2 -->
<g id="node2" class="node">
<title>Node2</title>
<g id="a_node2"><a xlink:href="_texture2_d_8h.html" target="_top" xlink:title=" ">
<polygon fill="white" stroke="black" points="349.5,-403.5 349.5,-433.5 462.5,-433.5 462.5,-403.5 349.5,-403.5"/>
<text text-anchor="start" x="357.5" y="-421.5" font-family="Helvetica,sans-Serif" font-size="10.00">kryne&#45;engine/Textures</text>
<text text-anchor="middle" x="406" y="-410.5" font-family="Helvetica,sans-Serif" font-size="10.00">/Texture2D.h</text>
</a>
</g>
</g>
<!-- Node1&#45;&gt;Node2 -->
<g id="edge1" class="edge">
<title>Node1&#45;&gt;Node2</title>
<path fill="none" stroke="midnightblue" d="M406,-470.4C406,-462.64 406,-452.81 406,-443.86"/>
<polygon fill="midnightblue" stroke="midnightblue" points="409.5,-443.58 406,-433.58 402.5,-443.58 409.5,-443.58"/>
</g>
<!-- Node3 -->
<g id="node3" class="node">
<title>Node3</title>
<g id="a_node3"><a xlink:href="_texture_8h.html" target="_top" xlink:title=" ">
<polygon fill="white" stroke="black" points="377.5,-347.5 377.5,-366.5 434.5,-366.5 434.5,-347.5 377.5,-347.5"/>
<text text-anchor="middle" x="406" y="-354.5" font-family="Helvetica,sans-Serif" font-size="10.00">Texture.h</text>
</a>
</g>
</g>
<!-- Node2&#45;&gt;Node3 -->
<g id="edge2" class="edge">
<title>Node2&#45;&gt;Node3</title>
<path fill="none" stroke="midnightblue" d="M406,-403.4C406,-395.47 406,-385.46 406,-376.86"/>
<polygon fill="midnightblue" stroke="midnightblue" points="409.5,-376.66 406,-366.66 402.5,-376.66 409.5,-376.66"/>
</g>
<!-- Node4 -->
<g id="node4" class="node">
<title>Node4</title>
<g id="a_node4"><a xlink:title=" ">
<polygon fill="white" stroke="#bfbfbf" points="0,-286 0,-305 70,-305 70,-286 0,-286"/>
<text text-anchor="middle" x="35" y="-293" font-family="Helvetica,sans-Serif" font-size="10.00">stb_image.h</text>
</a>
</g>
</g>
<!-- Node3&#45;&gt;Node4 -->
<g id="edge3" class="edge">
<title>Node3&#45;&gt;Node4</title>
<path fill="none" stroke="midnightblue" d="M377.25,-353.81C319.93,-349.06 187.59,-336.14 79,-311 75.53,-310.2 71.93,-309.23 68.37,-308.2"/>
<polygon fill="midnightblue" stroke="midnightblue" points="69.11,-304.76 58.52,-305.13 67.03,-311.44 69.11,-304.76"/>
</g>
<!-- Node5 -->
<g id="node5" class="node">
<title>Node5</title>
<g id="a_node5"><a xlink:title=" ">
<polygon fill="white" stroke="#bfbfbf" points="88.5,-286 88.5,-305 129.5,-305 129.5,-286 88.5,-286"/>
<text text-anchor="middle" x="109" y="-293" font-family="Helvetica,sans-Serif" font-size="10.00">string</text>
</a>
</g>
</g>
<!-- Node3&#45;&gt;Node5 -->
<g id="edge4" class="edge">
<title>Node3&#45;&gt;Node5</title>
<path fill="none" stroke="midnightblue" d="M377.23,-353.18C328.49,-347.93 226.91,-334.97 144,-311 141.71,-310.34 139.36,-309.57 137.02,-308.74"/>
<polygon fill="midnightblue" stroke="midnightblue" points="138.2,-305.45 127.62,-305.11 135.68,-311.98 138.2,-305.45"/>
</g>
<!-- Node6 -->
<g id="node6" class="node">
<title>Node6</title>
<g id="a_node6"><a xlink:title=" ">
<polygon fill="white" stroke="#bfbfbf" points="290,-56.5 290,-75.5 344,-75.5 344,-56.5 290,-56.5"/>
<text text-anchor="middle" x="317" y="-63.5" font-family="Helvetica,sans-Serif" font-size="10.00">iostream</text>
</a>
</g>
</g>
<!-- Node3&#45;&gt;Node6 -->
<g id="edge5" class="edge">
<title>Node3&#45;&gt;Node6</title>
<path fill="none" stroke="midnightblue" d="M377.22,-354.12C322.31,-349.96 205.49,-338.07 177,-311 151.76,-287.02 158,-269.82 158,-235 158,-235 158,-235 158,-177 158,-118.05 232.82,-88.22 279.81,-75.29"/>
<polygon fill="midnightblue" stroke="midnightblue" points="280.88,-78.63 289.67,-72.71 279.11,-71.86 280.88,-78.63"/>
</g>
<!-- Node7 -->
<g id="node7" class="node">
<title>Node7</title>
<g id="a_node7"><a xlink:title=" ">
<polygon fill="white" stroke="#bfbfbf" points="186.5,-286 186.5,-305 293.5,-305 293.5,-286 186.5,-286"/>
<text text-anchor="middle" x="240" y="-293" font-family="Helvetica,sans-Serif" font-size="10.00">boost/filesystem.hpp</text>
</a>
</g>
</g>
<!-- Node3&#45;&gt;Node7 -->
<g id="edge6" class="edge">
<title>Node3&#45;&gt;Node7</title>
<path fill="none" stroke="midnightblue" d="M382.22,-347.48C353.62,-337.22 305.45,-319.96 273.2,-308.4"/>
<polygon fill="midnightblue" stroke="midnightblue" points="274.33,-305.09 263.74,-305.01 271.97,-311.68 274.33,-305.09"/>
</g>
<!-- Node8 -->
<g id="node8" class="node">
<title>Node8</title>
<g id="a_node8"><a xlink:title=" ">
<polygon fill="white" stroke="#bfbfbf" points="311.5,-286 311.5,-305 400.5,-305 400.5,-286 311.5,-286"/>
<text text-anchor="middle" x="356" y="-293" font-family="Helvetica,sans-Serif" font-size="10.00">boost/format.hpp</text>
</a>
</g>
</g>
<!-- Node3&#45;&gt;Node8 -->
<g id="edge7" class="edge">
<title>Node3&#45;&gt;Node8</title>
<path fill="none" stroke="midnightblue" d="M398.84,-347.48C391.26,-338.46 379.13,-324.02 369.71,-312.81"/>
<polygon fill="midnightblue" stroke="midnightblue" points="372.26,-310.41 363.15,-305.01 366.9,-314.92 372.26,-310.41"/>
</g>
<!-- Node9 -->
<g id="node9" class="node">
<title>Node9</title>
<g id="a_node9"><a xlink:title=" ">
<polygon fill="white" stroke="#bfbfbf" points="419,-286 419,-305 493,-305 493,-286 419,-286"/>
<text text-anchor="middle" x="456" y="-293" font-family="Helvetica,sans-Serif" font-size="10.00">glm/vec2.hpp</text>
</a>
</g>
</g>
<!-- Node3&#45;&gt;Node9 -->
<g id="edge8" class="edge">
<title>Node3&#45;&gt;Node9</title>
<path fill="none" stroke="midnightblue" d="M413.16,-347.48C420.74,-338.46 432.87,-324.02 442.29,-312.81"/>
<polygon fill="midnightblue" stroke="midnightblue" points="445.1,-314.92 448.85,-305.01 439.74,-310.41 445.1,-314.92"/>
</g>
<!-- Node10 -->
<g id="node10" class="node">
<title>Node10</title>
<g id="a_node10"><a xlink:title=" ">
<polygon fill="white" stroke="#bfbfbf" points="511,-286 511,-305 585,-305 585,-286 511,-286"/>
<text text-anchor="middle" x="548" y="-293" font-family="Helvetica,sans-Serif" font-size="10.00">glm/vec3.hpp</text>
</a>
</g>
</g>
<!-- Node3&#45;&gt;Node10 -->
<g id="edge9" class="edge">
<title>Node3&#45;&gt;Node10</title>
<path fill="none" stroke="midnightblue" d="M426.35,-347.48C450.39,-337.4 490.6,-320.55 518.16,-309"/>
<polygon fill="midnightblue" stroke="midnightblue" points="519.82,-312.1 527.69,-305.01 517.12,-305.65 519.82,-312.1"/>
</g>
<!-- Node11 -->
<g id="node11" class="node">
<title>Node11</title>
<g id="a_node11"><a xlink:title=" ">
<polygon fill="white" stroke="#bfbfbf" points="603,-286 603,-305 667,-305 667,-286 603,-286"/>
<text text-anchor="middle" x="635" y="-293" font-family="Helvetica,sans-Serif" font-size="10.00">glad/glad.h</text>
</a>
</g>
</g>
<!-- Node3&#45;&gt;Node11 -->
<g id="edge10" class="edge">
<title>Node3&#45;&gt;Node11</title>
<path fill="none" stroke="midnightblue" d="M434.59,-350.13C471.66,-342.31 538.16,-327.51 594,-311 596.78,-310.18 599.65,-309.27 602.53,-308.33"/>
<polygon fill="midnightblue" stroke="midnightblue" points="603.81,-311.59 612.15,-305.06 601.56,-304.97 603.81,-311.59"/>
</g>
<!-- Node12 -->
<g id="node12" class="node">
<title>Node12</title>
<g id="a_node12"><a xlink:title=" ">
<polygon fill="white" stroke="#bfbfbf" points="685,-286 685,-305 763,-305 763,-286 685,-286"/>
<text text-anchor="middle" x="724" y="-293" font-family="Helvetica,sans-Serif" font-size="10.00">GLFW/glfw3.h</text>
</a>
</g>
</g>
<!-- Node3&#45;&gt;Node12 -->
<g id="edge11" class="edge">
<title>Node3&#45;&gt;Node12</title>
<path fill="none" stroke="midnightblue" d="M434.61,-352.46C484.17,-346.05 589,-331.3 676,-311 679.94,-310.08 684.03,-309.02 688.09,-307.89"/>
<polygon fill="midnightblue" stroke="midnightblue" points="689.38,-311.16 698.01,-305.02 687.43,-304.44 689.38,-311.16"/>
</g>
<!-- Node13 -->
<g id="node13" class="node">
<title>Node13</title>
<g id="a_node13"><a xlink:href="_dispatcher_8h.html" target="_top" xlink:title=" ">
<polygon fill="white" stroke="black" points="781.5,-280.5 781.5,-310.5 894.5,-310.5 894.5,-280.5 781.5,-280.5"/>
<text text-anchor="start" x="789.5" y="-298.5" font-family="Helvetica,sans-Serif" font-size="10.00">kryne&#45;engine/Dispatch</text>
<text text-anchor="middle" x="838" y="-287.5" font-family="Helvetica,sans-Serif" font-size="10.00">/Dispatcher.h</text>
</a>
</g>
</g>
<!-- Node3&#45;&gt;Node13 -->
<g id="edge12" class="edge">
<title>Node3&#45;&gt;Node13</title>
<path fill="none" stroke="midnightblue" d="M434.61,-353.41C494.87,-347.74 639.46,-333.13 770.94,-311.08"/>
<polygon fill="midnightblue" stroke="midnightblue" points="771.91,-314.46 781.18,-309.34 770.74,-307.56 771.91,-314.46"/>
</g>
<!-- Node14 -->
<g id="node14" class="node">
<title>Node14</title>
<g id="a_node14"><a xlink:href="_synchronizable_pool_8h.html" target="_top" xlink:title=" ">
<polygon fill="white" stroke="black" points="693.5,-168.5 693.5,-187.5 804.5,-187.5 804.5,-168.5 693.5,-168.5"/>
<text text-anchor="middle" x="749" y="-175.5" font-family="Helvetica,sans-Serif" font-size="10.00">SynchronizablePool.h</text>
</a>
</g>
</g>
<!-- Node13&#45;&gt;Node14 -->
<g id="edge13" class="edge">
<title>Node13&#45;&gt;Node14</title>
<path fill="none" stroke="midnightblue" d="M808.93,-280.47C794.04,-271.88 776.81,-259.55 766,-244 756.53,-230.38 752.34,-211.84 750.48,-198.04"/>
<polygon fill="midnightblue" stroke="midnightblue" points="753.93,-197.36 749.4,-187.78 746.97,-198.09 753.93,-197.36"/>
</g>
<!-- Node24 -->
<g id="node24" class="node">
<title>Node24</title>
<g id="a_node24"><a xlink:href="_runner_pool_8h.html" target="_top" xlink:title=" ">
<polygon fill="white" stroke="black" points="827.5,-168.5 827.5,-187.5 902.5,-187.5 902.5,-168.5 827.5,-168.5"/>
<text text-anchor="middle" x="865" y="-175.5" font-family="Helvetica,sans-Serif" font-size="10.00">RunnerPool.h</text>
</a>
</g>
</g>
<!-- Node13&#45;&gt;Node24 -->
<g id="edge24" class="edge">
<title>Node13&#45;&gt;Node24</title>
<path fill="none" stroke="midnightblue" d="M841.31,-280.34C846.18,-259.53 855.26,-220.66 860.66,-197.58"/>
<polygon fill="midnightblue" stroke="midnightblue" points="864.11,-198.2 862.97,-187.67 857.29,-196.61 864.11,-198.2"/>
</g>
<!-- Node25 -->
<g id="node25" class="node">
<title>Node25</title>
<g id="a_node25"><a xlink:href="_main_pool_8h.html" target="_top" xlink:title=" ">
<polygon fill="white" stroke="black" points="774.5,-224.5 774.5,-243.5 839.5,-243.5 839.5,-224.5 774.5,-224.5"/>
<text text-anchor="middle" x="807" y="-231.5" font-family="Helvetica,sans-Serif" font-size="10.00">MainPool.h</text>
</a>
</g>
</g>
<!-- Node13&#45;&gt;Node25 -->
<g id="edge26" class="edge">
<title>Node13&#45;&gt;Node25</title>
<path fill="none" stroke="midnightblue" d="M830.65,-280.4C826.33,-272.11 820.83,-261.55 816.23,-252.71"/>
<polygon fill="midnightblue" stroke="midnightblue" points="819.24,-250.91 811.51,-243.66 813.03,-254.14 819.24,-250.91"/>
</g>
<!-- Node15 -->
<g id="node15" class="node">
<title>Node15</title>
<g id="a_node15"><a xlink:href="_thread_pool_8h.html" target="_top" xlink:title=" ">
<polygon fill="white" stroke="black" points="712,-112.5 712,-131.5 786,-131.5 786,-112.5 712,-112.5"/>
<text text-anchor="middle" x="749" y="-119.5" font-family="Helvetica,sans-Serif" font-size="10.00">ThreadPool.h</text>
</a>
</g>
</g>
<!-- Node14&#45;&gt;Node15 -->
<g id="edge14" class="edge">
<title>Node14&#45;&gt;Node15</title>
<path fill="none" stroke="midnightblue" d="M749,-168.08C749,-161.01 749,-150.86 749,-141.99"/>
<polygon fill="midnightblue" stroke="midnightblue" points="752.5,-141.75 749,-131.75 745.5,-141.75 752.5,-141.75"/>
</g>
<!-- Node15&#45;&gt;Node6 -->
<g id="edge20" class="edge">
<title>Node15&#45;&gt;Node6</title>
<path fill="none" stroke="midnightblue" d="M711.79,-116.35C630.21,-106.15 436.37,-81.92 354.51,-71.69"/>
<polygon fill="midnightblue" stroke="midnightblue" points="354.54,-68.17 344.18,-70.4 353.67,-75.11 354.54,-68.17"/>
</g>
<!-- Node16 -->
<g id="node16" class="node">
<title>Node16</title>
<g id="a_node16"><a xlink:title=" ">
<polygon fill="white" stroke="#bfbfbf" points="536,-56.5 536,-75.5 580,-75.5 580,-56.5 536,-56.5"/>
<text text-anchor="middle" x="558" y="-63.5" font-family="Helvetica,sans-Serif" font-size="10.00">thread</text>
</a>
</g>
</g>
<!-- Node15&#45;&gt;Node16 -->
<g id="edge15" class="edge">
<title>Node15&#45;&gt;Node16</title>
<path fill="none" stroke="midnightblue" d="M718.31,-112.45C688.03,-104 640.19,-90.59 589.78,-76.21"/>
<polygon fill="midnightblue" stroke="midnightblue" points="590.59,-72.8 580.01,-73.41 588.66,-79.53 590.59,-72.8"/>
</g>
<!-- Node17 -->
<g id="node17" class="node">
<title>Node17</title>
<g id="a_node17"><a xlink:title=" ">
<polygon fill="white" stroke="#bfbfbf" points="598,-56.5 598,-75.5 642,-75.5 642,-56.5 598,-56.5"/>
<text text-anchor="middle" x="620" y="-63.5" font-family="Helvetica,sans-Serif" font-size="10.00">mutex</text>
</a>
</g>
</g>
<!-- Node15&#45;&gt;Node17 -->
<g id="edge16" class="edge">
<title>Node15&#45;&gt;Node17</title>
<path fill="none" stroke="midnightblue" d="M728.56,-112.44C707.33,-103.56 673.9,-89.56 649.75,-79.45"/>
<polygon fill="midnightblue" stroke="midnightblue" points="650.92,-76.15 640.34,-75.52 648.22,-82.61 650.92,-76.15"/>
</g>
<!-- Node18 -->
<g id="node18" class="node">
<title>Node18</title>
<g id="a_node18"><a xlink:title=" ">
<polygon fill="white" stroke="#bfbfbf" points="660.5,-56.5 660.5,-75.5 753.5,-75.5 753.5,-56.5 660.5,-56.5"/>
<text text-anchor="middle" x="707" y="-63.5" font-family="Helvetica,sans-Serif" font-size="10.00">condition_variable</text>
</a>
</g>
</g>
<!-- Node15&#45;&gt;Node18 -->
<g id="edge17" class="edge">
<title>Node15&#45;&gt;Node18</title>
<path fill="none" stroke="midnightblue" d="M742.06,-112.08C736.07,-104.38 727.25,-93.03 719.95,-83.65"/>
<polygon fill="midnightblue" stroke="midnightblue" points="722.71,-81.5 713.81,-75.75 717.18,-85.79 722.71,-81.5"/>
</g>
<!-- Node19 -->
<g id="node19" class="node">
<title>Node19</title>
<g id="a_node19"><a xlink:title=" ">
<polygon fill="white" stroke="#bfbfbf" points="771.5,-56.5 771.5,-75.5 812.5,-75.5 812.5,-56.5 771.5,-56.5"/>
<text text-anchor="middle" x="792" y="-63.5" font-family="Helvetica,sans-Serif" font-size="10.00">future</text>
</a>
</g>
</g>
<!-- Node15&#45;&gt;Node19 -->
<g id="edge18" class="edge">
<title>Node15&#45;&gt;Node19</title>
<path fill="none" stroke="midnightblue" d="M756.1,-112.08C762.24,-104.38 771.27,-93.03 778.74,-83.65"/>
<polygon fill="midnightblue" stroke="midnightblue" points="781.54,-85.75 785.03,-75.75 776.06,-81.39 781.54,-85.75"/>
</g>
<!-- Node20 -->
<g id="node20" class="node">
<title>Node20</title>
<g id="a_node20"><a xlink:title=" ">
<polygon fill="white" stroke="#bfbfbf" points="831,-56.5 831,-75.5 883,-75.5 883,-56.5 831,-56.5"/>
<text text-anchor="middle" x="857" y="-63.5" font-family="Helvetica,sans-Serif" font-size="10.00">memory</text>
</a>
</g>
</g>
<!-- Node15&#45;&gt;Node20 -->
<g id="edge19" class="edge">
<title>Node15&#45;&gt;Node20</title>
<path fill="none" stroke="midnightblue" d="M766.35,-112.32C783.67,-103.66 810.52,-90.24 830.5,-80.25"/>
<polygon fill="midnightblue" stroke="midnightblue" points="832.31,-83.26 839.69,-75.65 829.18,-77 832.31,-83.26"/>
</g>
<!-- Node21 -->
<g id="node21" class="node">
<title>Node21</title>
<g id="a_node21"><a xlink:href="_base_pool_8h.html" target="_top" xlink:title=" ">
<polygon fill="white" stroke="black" points="901.5,-56.5 901.5,-75.5 968.5,-75.5 968.5,-56.5 901.5,-56.5"/>
<text text-anchor="middle" x="935" y="-63.5" font-family="Helvetica,sans-Serif" font-size="10.00">BasePool.h</text>
</a>
</g>
</g>
<!-- Node15&#45;&gt;Node21 -->
<g id="edge21" class="edge">
<title>Node15&#45;&gt;Node21</title>
<path fill="none" stroke="midnightblue" d="M778.47,-112.44C810.17,-103.24 860.73,-88.56 895.77,-78.39"/>
<polygon fill="midnightblue" stroke="midnightblue" points="897.04,-81.67 905.67,-75.52 895.09,-74.94 897.04,-81.67"/>
</g>
<!-- Node22 -->
<g id="node22" class="node">
<title>Node22</title>
<g id="a_node22"><a xlink:title=" ">
<polygon fill="white" stroke="#bfbfbf" points="878.5,-0.5 878.5,-19.5 921.5,-19.5 921.5,-0.5 878.5,-0.5"/>
<text text-anchor="middle" x="900" y="-7.5" font-family="Helvetica,sans-Serif" font-size="10.00">queue</text>
</a>
</g>
</g>
<!-- Node21&#45;&gt;Node22 -->
<g id="edge22" class="edge">
<title>Node21&#45;&gt;Node22</title>
<path fill="none" stroke="midnightblue" d="M929.22,-56.08C924.33,-48.53 917.17,-37.49 911.17,-28.23"/>
<polygon fill="midnightblue" stroke="midnightblue" points="914.05,-26.24 905.67,-19.75 908.17,-30.05 914.05,-26.24"/>
</g>
<!-- Node23 -->
<g id="node23" class="node">
<title>Node23</title>
<g id="a_node23"><a xlink:title=" ">
<polygon fill="white" stroke="#bfbfbf" points="940,-0.5 940,-19.5 998,-19.5 998,-0.5 940,-0.5"/>
<text text-anchor="middle" x="969" y="-7.5" font-family="Helvetica,sans-Serif" font-size="10.00">functional</text>
</a>
</g>
</g>
<!-- Node21&#45;&gt;Node23 -->
<g id="edge23" class="edge">
<title>Node21&#45;&gt;Node23</title>
<path fill="none" stroke="midnightblue" d="M940.61,-56.08C945.37,-48.53 952.32,-37.49 958.15,-28.23"/>
<polygon fill="midnightblue" stroke="midnightblue" points="961.12,-30.08 963.49,-19.75 955.2,-26.35 961.12,-30.08"/>
</g>
<!-- Node24&#45;&gt;Node15 -->
<g id="edge25" class="edge">
<title>Node24&#45;&gt;Node15</title>
<path fill="none" stroke="midnightblue" d="M846.62,-168.44C827.78,-159.68 798.27,-145.94 776.62,-135.86"/>
<polygon fill="midnightblue" stroke="midnightblue" points="777.84,-132.56 767.29,-131.52 774.88,-138.91 777.84,-132.56"/>
</g>
<!-- Node25&#45;&gt;Node14 -->
<g id="edge27" class="edge">
<title>Node25&#45;&gt;Node14</title>
<path fill="none" stroke="midnightblue" d="M797.68,-224.32C789.11,-216.34 776.19,-204.31 765.81,-194.65"/>
<polygon fill="midnightblue" stroke="midnightblue" points="768.19,-192.09 758.49,-187.83 763.42,-197.21 768.19,-192.09"/>
</g>
</g>
</svg>
