<?xml version="1.0" encoding="UTF-8" standalone="no"?>
<!DOCTYPE svg PUBLIC "-//W3C//DTD SVG 1.1//EN"
 "http://www.w3.org/Graphics/SVG/1.1/DTD/svg11.dtd">
<!-- Generated by graphviz version 2.44.1 (20200629.0846)
 -->
<!-- Title: kryne&#45;engine/include/kryne&#45;engine/Textures/Texture2D.h Pages: 1 -->
<svg width="1047pt" height="296pt"
 viewBox="0.00 0.00 1046.50 296.00" xmlns="http://www.w3.org/2000/svg" xmlns:xlink="http://www.w3.org/1999/xlink">
<g id="graph0" class="graph" transform="scale(1 1) rotate(0) translate(4 292)">
<title>kryne&#45;engine/include/kryne&#45;engine/Textures/Texture2D.h</title>
<polygon fill="white" stroke="transparent" points="-4,4 -4,-292 1042.5,-292 1042.5,4 -4,4"/>
<!-- Node1 -->
<g id="node1" class="node">
<title>Node1</title>
<g id="a_node1"><a xlink:title=" ">
<polygon fill="#bfbfbf" stroke="black" points="381,-246.5 381,-287.5 497,-287.5 497,-246.5 381,-246.5"/>
<text text-anchor="start" x="389" y="-275.5" font-family="Helvetica,sans-Serif" font-size="10.00">kryne&#45;engine/include</text>
<text text-anchor="start" x="389" y="-264.5" font-family="Helvetica,sans-Serif" font-size="10.00">/kryne&#45;engine/Textures</text>
<text text-anchor="middle" x="439" y="-253.5" font-family="Helvetica,sans-Serif" font-size="10.00">/Texture2D.h</text>
</a>
</g>
</g>
<!-- Node2 -->
<g id="node2" class="node">
<title>Node2</title>
<g id="a_node2"><a xlink:href="stb__image_8h.html" target="_top" xlink:title=" ">
<polygon fill="white" stroke="black" points="79.5,-179.5 79.5,-209.5 192.5,-209.5 192.5,-179.5 79.5,-179.5"/>
<text text-anchor="start" x="87.5" y="-197.5" font-family="Helvetica,sans-Serif" font-size="10.00">kryne&#45;engine/Textures</text>
<text text-anchor="middle" x="136" y="-186.5" font-family="Helvetica,sans-Serif" font-size="10.00">/stb_image.h</text>
</a>
</g>
</g>
<!-- Node1&#45;&gt;Node2 -->
<g id="edge1" class="edge">
<title>Node1&#45;&gt;Node2</title>
<path fill="none" stroke="midnightblue" d="M380.94,-252.49C330,-240.64 255.96,-223.41 202.63,-211"/>
<polygon fill="midnightblue" stroke="midnightblue" points="203.12,-207.52 192.58,-208.67 201.53,-214.34 203.12,-207.52"/>
</g>
<!-- Node4 -->
<g id="node4" class="node">
<title>Node4</title>
<g id="a_node4"><a xlink:title=" ">
<polygon fill="white" stroke="#bfbfbf" points="514.5,-62 514.5,-81 555.5,-81 555.5,-62 514.5,-62"/>
<text text-anchor="middle" x="535" y="-69" font-family="Helvetica,sans-Serif" font-size="10.00">string</text>
</a>
</g>
</g>
<!-- Node1&#45;&gt;Node4 -->
<g id="edge3" class="edge">
<title>Node1&#45;&gt;Node4</title>
<path fill="none" stroke="midnightblue" d="M468.57,-246.49C480.94,-236.89 494.42,-224.31 503,-210 525.73,-172.11 532.31,-119.41 534.22,-91.54"/>
<polygon fill="midnightblue" stroke="midnightblue" points="537.73,-91.41 534.79,-81.23 530.74,-91.03 537.73,-91.41"/>
</g>
<!-- Node5 -->
<g id="node5" class="node">
<title>Node5</title>
<g id="a_node5"><a xlink:title=" ">
<polygon fill="white" stroke="#bfbfbf" points="838,-0.5 838,-19.5 892,-19.5 892,-0.5 838,-0.5"/>
<text text-anchor="middle" x="865" y="-7.5" font-family="Helvetica,sans-Serif" font-size="10.00">iostream</text>
</a>
</g>
</g>
<!-- Node1&#45;&gt;Node5 -->
<g id="edge4" class="edge">
<title>Node1&#45;&gt;Node5</title>
<path fill="none" stroke="midnightblue" d="M497.33,-261.32C593.63,-250.1 783.54,-212.37 867,-87 878.17,-70.22 875.3,-46.4 871.17,-29.93"/>
<polygon fill="midnightblue" stroke="midnightblue" points="874.4,-28.5 868.26,-19.87 867.67,-30.44 874.4,-28.5"/>
</g>
<!-- Node6 -->
<g id="node6" class="node">
<title>Node6</title>
<g id="a_node6"><a xlink:title=" ">
<polygon fill="white" stroke="#bfbfbf" points="931.5,-185 931.5,-204 1038.5,-204 1038.5,-185 931.5,-185"/>
<text text-anchor="middle" x="985" y="-192" font-family="Helvetica,sans-Serif" font-size="10.00">boost/filesystem.hpp</text>
</a>
</g>
</g>
<!-- Node1&#45;&gt;Node6 -->
<g id="edge5" class="edge">
<title>Node1&#45;&gt;Node6</title>
<path fill="none" stroke="midnightblue" d="M497,-260.97C587.19,-252.75 766.34,-234.83 917,-210 923.8,-208.88 930.95,-207.54 937.96,-206.13"/>
<polygon fill="midnightblue" stroke="midnightblue" points="938.98,-209.49 948.06,-204.03 937.56,-202.64 938.98,-209.49"/>
</g>
<!-- Node7 -->
<g id="node7" class="node">
<title>Node7</title>
<g id="a_node7"><a xlink:title=" ">
<polygon fill="white" stroke="#bfbfbf" points="0,-62 0,-81 64,-81 64,-62 0,-62"/>
<text text-anchor="middle" x="32" y="-69" font-family="Helvetica,sans-Serif" font-size="10.00">glad/glad.h</text>
</a>
</g>
</g>
<!-- Node1&#45;&gt;Node7 -->
<g id="edge6" class="edge">
<title>Node1&#45;&gt;Node7</title>
<path fill="none" stroke="midnightblue" d="M396.42,-246.47C374.08,-236.01 346.36,-222.69 322,-210 252.28,-173.68 239.29,-156.12 168,-123 158.35,-118.52 102.23,-97.97 65.16,-84.5"/>
<polygon fill="midnightblue" stroke="midnightblue" points="66.32,-81.2 55.73,-81.08 63.94,-87.78 66.32,-81.2"/>
</g>
<!-- Node8 -->
<g id="node8" class="node">
<title>Node8</title>
<g id="a_node8"><a xlink:title=" ">
<polygon fill="white" stroke="#bfbfbf" points="82,-62 82,-81 160,-81 160,-62 82,-62"/>
<text text-anchor="middle" x="121" y="-69" font-family="Helvetica,sans-Serif" font-size="10.00">GLFW/glfw3.h</text>
</a>
</g>
</g>
<!-- Node1&#45;&gt;Node8 -->
<g id="edge7" class="edge">
<title>Node1&#45;&gt;Node8</title>
<path fill="none" stroke="midnightblue" d="M414.28,-246.28C376.92,-217.05 303.16,-161.5 235,-123 208.45,-108 176.6,-94.22 153.32,-84.85"/>
<polygon fill="midnightblue" stroke="midnightblue" points="154.5,-81.55 143.91,-81.12 151.91,-88.06 154.5,-81.55"/>
</g>
<!-- Node9 -->
<g id="node9" class="node">
<title>Node9</title>
<g id="a_node9"><a xlink:href="_shader_8h.html" target="_top" xlink:title=" ">
<polygon fill="white" stroke="black" points="384,-179.5 384,-209.5 494,-209.5 494,-179.5 384,-179.5"/>
<text text-anchor="start" x="392" y="-197.5" font-family="Helvetica,sans-Serif" font-size="10.00">kryne&#45;engine/Material</text>
<text text-anchor="middle" x="439" y="-186.5" font-family="Helvetica,sans-Serif" font-size="10.00">/Shader.h</text>
</a>
</g>
</g>
<!-- Node1&#45;&gt;Node9 -->
<g id="edge8" class="edge">
<title>Node1&#45;&gt;Node9</title>
<path fill="none" stroke="midnightblue" d="M439,-246.36C439,-238.23 439,-228.7 439,-220.11"/>
<polygon fill="midnightblue" stroke="midnightblue" points="442.5,-219.89 439,-209.89 435.5,-219.89 442.5,-219.89"/>
</g>
<!-- Node3 -->
<g id="node3" class="node">
<title>Node3</title>
<g id="a_node3"><a xlink:title=" ">
<polygon fill="white" stroke="#bfbfbf" points="113,-123.5 113,-142.5 159,-142.5 159,-123.5 113,-123.5"/>
<text text-anchor="middle" x="136" y="-130.5" font-family="Helvetica,sans-Serif" font-size="10.00">stdio.h</text>
</a>
</g>
</g>
<!-- Node2&#45;&gt;Node3 -->
<g id="edge2" class="edge">
<title>Node2&#45;&gt;Node3</title>
<path fill="none" stroke="midnightblue" d="M136,-179.4C136,-171.47 136,-161.46 136,-152.86"/>
<polygon fill="midnightblue" stroke="midnightblue" points="139.5,-152.66 136,-142.66 132.5,-152.66 139.5,-152.66"/>
</g>
<!-- Node10 -->
<g id="node10" class="node">
<title>Node10</title>
<g id="a_node10"><a xlink:title=" ">
<polygon fill="white" stroke="#bfbfbf" points="471.5,-123.5 471.5,-142.5 506.5,-142.5 506.5,-123.5 471.5,-123.5"/>
<text text-anchor="middle" x="489" y="-130.5" font-family="Helvetica,sans-Serif" font-size="10.00">map</text>
</a>
</g>
</g>
<!-- Node9&#45;&gt;Node10 -->
<g id="edge9" class="edge">
<title>Node9&#45;&gt;Node10</title>
<path fill="none" stroke="midnightblue" d="M450.85,-179.4C458.11,-170.75 467.45,-159.64 475.07,-150.58"/>
<polygon fill="midnightblue" stroke="midnightblue" points="477.97,-152.57 481.72,-142.66 472.61,-148.06 477.97,-152.57"/>
</g>
<!-- Node11 -->
<g id="node11" class="node">
<title>Node11</title>
<g id="a_node11"><a xlink:title=" ">
<polygon fill="white" stroke="#bfbfbf" points="401,-123.5 401,-142.5 453,-142.5 453,-123.5 401,-123.5"/>
<text text-anchor="middle" x="427" y="-130.5" font-family="Helvetica,sans-Serif" font-size="10.00">sstream</text>
</a>
</g>
</g>
<!-- Node9&#45;&gt;Node11 -->
<g id="edge10" class="edge">
<title>Node9&#45;&gt;Node11</title>
<path fill="none" stroke="midnightblue" d="M436.16,-179.4C434.54,-171.38 432.49,-161.23 430.75,-152.57"/>
<polygon fill="midnightblue" stroke="midnightblue" points="434.15,-151.77 428.75,-142.66 427.29,-153.15 434.15,-151.77"/>
</g>
<!-- Node12 -->
<g id="node12" class="node">
<title>Node12</title>
<g id="a_node12"><a xlink:href="_uniforms_handler_8h.html" target="_top" xlink:title=" ">
<polygon fill="white" stroke="black" points="287,-123.5 287,-142.5 383,-142.5 383,-123.5 287,-123.5"/>
<text text-anchor="middle" x="335" y="-130.5" font-family="Helvetica,sans-Serif" font-size="10.00">UniformsHandler.h</text>
</a>
</g>
</g>
<!-- Node9&#45;&gt;Node12 -->
<g id="edge11" class="edge">
<title>Node9&#45;&gt;Node12</title>
<path fill="none" stroke="midnightblue" d="M414.35,-179.4C397.68,-169.86 375.77,-157.32 359.19,-147.84"/>
<polygon fill="midnightblue" stroke="midnightblue" points="360.55,-144.59 350.13,-142.66 357.07,-150.66 360.55,-144.59"/>
</g>
<!-- Node17 -->
<g id="node17" class="node">
<title>Node17</title>
<g id="a_node17"><a xlink:href="_shader_chunk_8h.html" target="_top" xlink:title=" ">
<polygon fill="white" stroke="black" points="626.5,-123.5 626.5,-142.5 709.5,-142.5 709.5,-123.5 626.5,-123.5"/>
<text text-anchor="middle" x="668" y="-130.5" font-family="Helvetica,sans-Serif" font-size="10.00">ShaderChunk.h</text>
</a>
</g>
</g>
<!-- Node9&#45;&gt;Node17 -->
<g id="edge19" class="edge">
<title>Node9&#45;&gt;Node17</title>
<path fill="none" stroke="midnightblue" d="M492.98,-179.47C533.35,-168.99 587.8,-154.84 625.19,-145.12"/>
<polygon fill="midnightblue" stroke="midnightblue" points="626.46,-148.41 635.26,-142.51 624.7,-141.63 626.46,-148.41"/>
</g>
<!-- Node12&#45;&gt;Node4 -->
<g id="edge12" class="edge">
<title>Node12&#45;&gt;Node4</title>
<path fill="none" stroke="midnightblue" d="M375.86,-123.5C410.73,-115.7 461.91,-102.95 505,-87 506.42,-86.47 507.87,-85.9 509.32,-85.3"/>
<polygon fill="midnightblue" stroke="midnightblue" points="511.06,-88.36 518.74,-81.06 508.19,-81.97 511.06,-88.36"/>
</g>
<!-- Node12&#45;&gt;Node7 -->
<g id="edge14" class="edge">
<title>Node12&#45;&gt;Node7</title>
<path fill="none" stroke="midnightblue" d="M286.67,-126.2C233.7,-119.27 146.47,-106.15 73,-87 69.96,-86.21 66.82,-85.29 63.7,-84.3"/>
<polygon fill="midnightblue" stroke="midnightblue" points="64.51,-80.89 53.92,-81.02 62.28,-87.52 64.51,-80.89"/>
</g>
<!-- Node12&#45;&gt;Node8 -->
<g id="edge15" class="edge">
<title>Node12&#45;&gt;Node8</title>
<path fill="none" stroke="midnightblue" d="M302.48,-123.48C268.96,-114.63 215.21,-100.24 169,-87 165.63,-86.04 162.14,-85.02 158.64,-83.98"/>
<polygon fill="midnightblue" stroke="midnightblue" points="159.46,-80.58 148.88,-81.07 157.46,-87.28 159.46,-80.58"/>
</g>
<!-- Node13 -->
<g id="node13" class="node">
<title>Node13</title>
<g id="a_node13"><a xlink:title=" ">
<polygon fill="white" stroke="#bfbfbf" points="573.5,-62 573.5,-81 656.5,-81 656.5,-62 573.5,-62"/>
<text text-anchor="middle" x="615" y="-69" font-family="Helvetica,sans-Serif" font-size="10.00">unordered_map</text>
</a>
</g>
</g>
<!-- Node12&#45;&gt;Node13 -->
<g id="edge13" class="edge">
<title>Node12&#45;&gt;Node13</title>
<path fill="none" stroke="midnightblue" d="M383.29,-123.84C430.02,-115.65 502.72,-102.09 565,-87 569.05,-86.02 573.27,-84.92 577.45,-83.78"/>
<polygon fill="midnightblue" stroke="midnightblue" points="578.41,-87.15 587.09,-81.07 576.51,-80.41 578.41,-87.15"/>
</g>
<!-- Node14 -->
<g id="node14" class="node">
<title>Node14</title>
<g id="a_node14"><a xlink:title=" ">
<polygon fill="white" stroke="#bfbfbf" points="178,-62 178,-81 264,-81 264,-62 178,-62"/>
<text text-anchor="middle" x="221" y="-69" font-family="Helvetica,sans-Serif" font-size="10.00">glm/mat4x4.hpp</text>
</a>
</g>
</g>
<!-- Node12&#45;&gt;Node14 -->
<g id="edge16" class="edge">
<title>Node12&#45;&gt;Node14</title>
<path fill="none" stroke="midnightblue" d="M318.67,-123.48C299.79,-113.62 268.49,-97.29 246.42,-85.77"/>
<polygon fill="midnightblue" stroke="midnightblue" points="247.79,-82.53 237.3,-81.01 244.55,-88.74 247.79,-82.53"/>
</g>
<!-- Node15 -->
<g id="node15" class="node">
<title>Node15</title>
<g id="a_node15"><a xlink:title=" ">
<polygon fill="white" stroke="#bfbfbf" points="282,-62 282,-81 388,-81 388,-62 282,-62"/>
<text text-anchor="middle" x="335" y="-69" font-family="Helvetica,sans-Serif" font-size="10.00">glm/gtc/type_ptr.hpp</text>
</a>
</g>
</g>
<!-- Node12&#45;&gt;Node15 -->
<g id="edge17" class="edge">
<title>Node12&#45;&gt;Node15</title>
<path fill="none" stroke="midnightblue" d="M335,-123.48C335,-115.08 335,-101.98 335,-91.16"/>
<polygon fill="midnightblue" stroke="midnightblue" points="338.5,-91.01 335,-81.01 331.5,-91.01 338.5,-91.01"/>
</g>
<!-- Node16 -->
<g id="node16" class="node">
<title>Node16</title>
<g id="a_node16"><a xlink:title=" ">
<polygon fill="white" stroke="#bfbfbf" points="406,-62 406,-81 496,-81 496,-62 406,-62"/>
<text text-anchor="middle" x="451" y="-69" font-family="Helvetica,sans-Serif" font-size="10.00">boost/variant.hpp</text>
</a>
</g>
</g>
<!-- Node12&#45;&gt;Node16 -->
<g id="edge18" class="edge">
<title>Node12&#45;&gt;Node16</title>
<path fill="none" stroke="midnightblue" d="M351.62,-123.48C370.92,-113.58 402.96,-97.14 425.43,-85.62"/>
<polygon fill="midnightblue" stroke="midnightblue" points="427.11,-88.69 434.41,-81.01 423.92,-82.46 427.11,-88.69"/>
</g>
<!-- Node17&#45;&gt;Node4 -->
<g id="edge21" class="edge">
<title>Node17&#45;&gt;Node4</title>
<path fill="none" stroke="midnightblue" d="M647.77,-123.43C626.92,-114.54 593.54,-100.13 565,-87 563.85,-86.47 562.67,-85.92 561.49,-85.37"/>
<polygon fill="midnightblue" stroke="midnightblue" points="562.93,-82.18 552.4,-81.05 559.92,-88.5 562.93,-82.18"/>
</g>
<!-- Node17&#45;&gt;Node5 -->
<g id="edge23" class="edge">
<title>Node17&#45;&gt;Node5</title>
<path fill="none" stroke="midnightblue" d="M709.52,-126.49C755.92,-119.49 827.04,-106.01 846,-87 860.9,-72.06 864.72,-47.3 865.42,-30.12"/>
<polygon fill="midnightblue" stroke="midnightblue" points="868.92,-29.68 865.5,-19.65 861.92,-29.63 868.92,-29.68"/>
</g>
<!-- Node17&#45;&gt;Node13 -->
<g id="edge20" class="edge">
<title>Node17&#45;&gt;Node13</title>
<path fill="none" stroke="midnightblue" d="M660.41,-123.48C652.3,-114.37 639.27,-99.74 629.24,-88.48"/>
<polygon fill="midnightblue" stroke="midnightblue" points="631.84,-86.15 622.58,-81.01 626.62,-90.8 631.84,-86.15"/>
</g>
<!-- Node18 -->
<g id="node18" class="node">
<title>Node18</title>
<g id="a_node18"><a xlink:title=" ">
<polygon fill="white" stroke="#bfbfbf" points="787.5,-62 787.5,-81 836.5,-81 836.5,-62 787.5,-62"/>
<text text-anchor="middle" x="812" y="-69" font-family="Helvetica,sans-Serif" font-size="10.00">fstream</text>
</a>
</g>
</g>
<!-- Node17&#45;&gt;Node18 -->
<g id="edge22" class="edge">
<title>Node17&#45;&gt;Node18</title>
<path fill="none" stroke="midnightblue" d="M689.77,-123.39C712.21,-114.46 748.16,-100.02 779,-87 780.41,-86.41 781.84,-85.79 783.29,-85.17"/>
<polygon fill="midnightblue" stroke="midnightblue" points="785.07,-88.22 792.85,-81.03 782.28,-81.8 785.07,-88.22"/>
</g>
<!-- Node19 -->
<g id="node19" class="node">
<title>Node19</title>
<g id="a_node19"><a xlink:href="_string_utils_8hpp.html" target="_top" xlink:title=" ">
<polygon fill="white" stroke="black" points="674.5,-56.5 674.5,-86.5 769.5,-86.5 769.5,-56.5 674.5,-56.5"/>
<text text-anchor="start" x="682.5" y="-74.5" font-family="Helvetica,sans-Serif" font-size="10.00">kryne&#45;engine/Utils</text>
<text text-anchor="middle" x="722" y="-63.5" font-family="Helvetica,sans-Serif" font-size="10.00">/StringUtils.hpp</text>
</a>
</g>
</g>
<!-- Node17&#45;&gt;Node19 -->
<g id="edge24" class="edge">
<title>Node17&#45;&gt;Node19</title>
<path fill="none" stroke="midnightblue" d="M675.74,-123.48C682.71,-115.79 693.26,-104.17 702.52,-93.96"/>
<polygon fill="midnightblue" stroke="midnightblue" points="705.14,-96.28 709.27,-86.52 699.96,-91.58 705.14,-96.28"/>
</g>
<!-- Node19&#45;&gt;Node5 -->
<g id="edge25" class="edge">
<title>Node19&#45;&gt;Node5</title>
<path fill="none" stroke="midnightblue" d="M755.89,-56.4C779.88,-46.42 811.77,-33.15 834.88,-23.53"/>
<polygon fill="midnightblue" stroke="midnightblue" points="836.3,-26.73 844.19,-19.66 833.61,-20.27 836.3,-26.73"/>
</g>
</g>
</svg>
