<?xml version="1.0" encoding="UTF-8" standalone="no"?>
<!DOCTYPE svg PUBLIC "-//W3C//DTD SVG 1.1//EN"
 "http://www.w3.org/Graphics/SVG/1.1/DTD/svg11.dtd">
<!-- Generated by graphviz version 2.40.1 (20161225.0304)
 -->
<!-- Title: kryne&#45;engine/src/Textures/Texture2D.cpp Pages: 1 -->
<svg width="909pt" height="520pt"
 viewBox="0.00 0.00 909.00 520.00" xmlns="http://www.w3.org/2000/svg" xmlns:xlink="http://www.w3.org/1999/xlink">
<g id="graph0" class="graph" transform="scale(1 1) rotate(0) translate(4 516)">
<title>kryne&#45;engine/src/Textures/Texture2D.cpp</title>
<polygon fill="#ffffff" stroke="transparent" points="-4,4 -4,-516 905,-516 905,4 -4,4"/>
<!-- Node0 -->
<g id="node1" class="node">
<title>Node0</title>
<polygon fill="#bfbfbf" stroke="#000000" points="365,-481.5 365,-511.5 495,-511.5 495,-481.5 365,-481.5"/>
<text text-anchor="start" x="373" y="-499.5" font-family="Helvetica,sans-Serif" font-size="10.00" fill="#000000">kryne&#45;engine/src/Textures</text>
<text text-anchor="middle" x="430" y="-488.5" font-family="Helvetica,sans-Serif" font-size="10.00" fill="#000000">/Texture2D.cpp</text>
</g>
<!-- Node1 -->
<g id="node2" class="node">
<title>Node1</title>
<g id="a_node2"><a xlink:href="_texture2_d_8h.html" target="_top" xlink:title="kryne&#45;engine/Textures\l/Texture2D.h">
<polygon fill="#ffffff" stroke="#000000" points="373.5,-414.5 373.5,-444.5 486.5,-444.5 486.5,-414.5 373.5,-414.5"/>
<text text-anchor="start" x="381.5" y="-432.5" font-family="Helvetica,sans-Serif" font-size="10.00" fill="#000000">kryne&#45;engine/Textures</text>
<text text-anchor="middle" x="430" y="-421.5" font-family="Helvetica,sans-Serif" font-size="10.00" fill="#000000">/Texture2D.h</text>
</a>
</g>
</g>
<!-- Node0&#45;&gt;Node1 -->
<g id="edge1" class="edge">
<title>Node0&#45;&gt;Node1</title>
<path fill="none" stroke="#191970" d="M430,-481.2967C430,-473.5013 430,-463.7991 430,-454.9064"/>
<polygon fill="#191970" stroke="#191970" points="433.5001,-454.6431 430,-444.6432 426.5001,-454.6432 433.5001,-454.6431"/>
</g>
<!-- Node2 -->
<g id="node3" class="node">
<title>Node2</title>
<g id="a_node3"><a xlink:href="_texture_8h.html" target="_top" xlink:title="Texture.h">
<polygon fill="#ffffff" stroke="#000000" points="401,-358.5 401,-377.5 459,-377.5 459,-358.5 401,-358.5"/>
<text text-anchor="middle" x="430" y="-365.5" font-family="Helvetica,sans-Serif" font-size="10.00" fill="#000000">Texture.h</text>
</a>
</g>
</g>
<!-- Node1&#45;&gt;Node2 -->
<g id="edge2" class="edge">
<title>Node1&#45;&gt;Node2</title>
<path fill="none" stroke="#191970" d="M430,-414.2977C430,-406.3834 430,-396.6043 430,-388.0759"/>
<polygon fill="#191970" stroke="#191970" points="433.5001,-387.8469 430,-377.8469 426.5001,-387.847 433.5001,-387.8469"/>
</g>
<!-- Node3 -->
<g id="node4" class="node">
<title>Node3</title>
<polygon fill="#ffffff" stroke="#bfbfbf" points="0,-297 0,-316 70,-316 70,-297 0,-297"/>
<text text-anchor="middle" x="35" y="-304" font-family="Helvetica,sans-Serif" font-size="10.00" fill="#000000">stb_image.h</text>
</g>
<!-- Node2&#45;&gt;Node3 -->
<g id="edge3" class="edge">
<title>Node2&#45;&gt;Node3</title>
<path fill="none" stroke="#191970" d="M400.9666,-366.248C340.4017,-362.1463 196.4607,-350.0614 79,-322 75.7703,-321.2284 72.4465,-320.3064 69.1416,-319.302"/>
<polygon fill="#191970" stroke="#191970" points="69.9893,-315.8967 59.3966,-316.1092 67.8098,-322.5488 69.9893,-315.8967"/>
</g>
<!-- Node4 -->
<g id="node5" class="node">
<title>Node4</title>
<polygon fill="#ffffff" stroke="#bfbfbf" points="88.5,-297 88.5,-316 129.5,-316 129.5,-297 88.5,-297"/>
<text text-anchor="middle" x="109" y="-304" font-family="Helvetica,sans-Serif" font-size="10.00" fill="#000000">string</text>
</g>
<!-- Node2&#45;&gt;Node4 -->
<g id="edge4" class="edge">
<title>Node2&#45;&gt;Node4</title>
<path fill="none" stroke="#191970" d="M400.6267,-365.7838C348.183,-361.2775 235.3712,-349.0859 144,-322 141.8775,-321.3708 139.7147,-320.6429 137.5581,-319.8526"/>
<polygon fill="#191970" stroke="#191970" points="138.8692,-316.6075 128.2865,-316.1014 136.2438,-323.0966 138.8692,-316.6075"/>
</g>
<!-- Node5 -->
<g id="node6" class="node">
<title>Node5</title>
<polygon fill="#ffffff" stroke="#bfbfbf" points="64,-56.5 64,-75.5 118,-75.5 118,-56.5 64,-56.5"/>
<text text-anchor="middle" x="91" y="-63.5" font-family="Helvetica,sans-Serif" font-size="10.00" fill="#000000">iostream</text>
</g>
<!-- Node2&#45;&gt;Node5 -->
<g id="edge5" class="edge">
<title>Node2&#45;&gt;Node5</title>
<path fill="none" stroke="#191970" d="M400.9855,-366.5949C341.5915,-363.1211 209.0442,-352.1146 177,-322 151.3141,-297.8608 158,-280.2487 158,-245 158,-245 158,-245 158,-189 158,-146.9539 127.4342,-105.5929 107.5927,-83.1732"/>
<polygon fill="#191970" stroke="#191970" points="109.9374,-80.5514 100.5995,-75.5461 104.7779,-85.2822 109.9374,-80.5514"/>
</g>
<!-- Node6 -->
<g id="node7" class="node">
<title>Node6</title>
<polygon fill="#ffffff" stroke="#bfbfbf" points="318.5,-297 318.5,-316 425.5,-316 425.5,-297 318.5,-297"/>
<text text-anchor="middle" x="372" y="-304" font-family="Helvetica,sans-Serif" font-size="10.00" fill="#000000">boost/filesystem.hpp</text>
</g>
<!-- Node2&#45;&gt;Node6 -->
<g id="edge6" class="edge">
<title>Node2&#45;&gt;Node6</title>
<path fill="none" stroke="#191970" d="M420.9375,-358.3906C412.2207,-349.1478 398.846,-334.966 388.2804,-323.7628"/>
<polygon fill="#191970" stroke="#191970" points="390.5976,-321.1186 381.1903,-316.2449 385.505,-325.9213 390.5976,-321.1186"/>
</g>
<!-- Node7 -->
<g id="node8" class="node">
<title>Node7</title>
<polygon fill="#ffffff" stroke="#bfbfbf" points="444,-297 444,-316 534,-316 534,-297 444,-297"/>
<text text-anchor="middle" x="489" y="-304" font-family="Helvetica,sans-Serif" font-size="10.00" fill="#000000">boost/format.hpp</text>
</g>
<!-- Node2&#45;&gt;Node7 -->
<g id="edge7" class="edge">
<title>Node2&#45;&gt;Node7</title>
<path fill="none" stroke="#191970" d="M439.2188,-358.3906C448.0858,-349.1478 461.6912,-334.966 472.4389,-323.7628"/>
<polygon fill="#191970" stroke="#191970" points="475.2541,-325.8841 479.6513,-316.2449 470.2027,-321.0381 475.2541,-325.8841"/>
</g>
<!-- Node8 -->
<g id="node9" class="node">
<title>Node8</title>
<polygon fill="#ffffff" stroke="#bfbfbf" points="552.5,-297 552.5,-316 627.5,-316 627.5,-297 552.5,-297"/>
<text text-anchor="middle" x="590" y="-304" font-family="Helvetica,sans-Serif" font-size="10.00" fill="#000000">glm/vec2.hpp</text>
</g>
<!-- Node2&#45;&gt;Node8 -->
<g id="edge8" class="edge">
<title>Node2&#45;&gt;Node8</title>
<path fill="none" stroke="#191970" d="M455,-358.3906C482.0058,-348.0103 525.2185,-331.4004 555.4594,-319.7766"/>
<polygon fill="#191970" stroke="#191970" points="557.0971,-322.8968 565.1756,-316.0419 554.5856,-316.3628 557.0971,-322.8968"/>
</g>
<!-- Node9 -->
<g id="node10" class="node">
<title>Node9</title>
<polygon fill="#ffffff" stroke="#bfbfbf" points="645.5,-297 645.5,-316 720.5,-316 720.5,-297 645.5,-297"/>
<text text-anchor="middle" x="683" y="-304" font-family="Helvetica,sans-Serif" font-size="10.00" fill="#000000">glm/vec3.hpp</text>
</g>
<!-- Node2&#45;&gt;Node9 -->
<g id="edge9" class="edge">
<title>Node2&#45;&gt;Node9</title>
<path fill="none" stroke="#191970" d="M459.0392,-362.5603C499.3054,-354.7882 574.2317,-339.4959 637,-322 640.166,-321.1175 643.4349,-320.1442 646.7019,-319.1282"/>
<polygon fill="#191970" stroke="#191970" points="647.9512,-322.4028 656.3926,-316.0002 645.8009,-315.7413 647.9512,-322.4028"/>
</g>
<!-- Node10 -->
<g id="node11" class="node">
<title>Node10</title>
<polygon fill="#ffffff" stroke="#bfbfbf" points="739,-297 739,-316 803,-316 803,-297 739,-297"/>
<text text-anchor="middle" x="771" y="-304" font-family="Helvetica,sans-Serif" font-size="10.00" fill="#000000">glad/glad.h</text>
</g>
<!-- Node2&#45;&gt;Node10 -->
<g id="edge10" class="edge">
<title>Node2&#45;&gt;Node10</title>
<path fill="none" stroke="#191970" d="M459.3738,-365.553C513.5719,-360.5864 632.6583,-347.5612 730,-322 732.8291,-321.2571 735.7329,-320.3879 738.6253,-319.447"/>
<polygon fill="#191970" stroke="#191970" points="740.0151,-322.6685 748.2895,-316.0514 737.6947,-316.0642 740.0151,-322.6685"/>
</g>
<!-- Node11 -->
<g id="node12" class="node">
<title>Node11</title>
<polygon fill="#ffffff" stroke="#bfbfbf" points="821,-297 821,-316 901,-316 901,-297 821,-297"/>
<text text-anchor="middle" x="861" y="-304" font-family="Helvetica,sans-Serif" font-size="10.00" fill="#000000">GLFW/glfw3.h</text>
</g>
<!-- Node2&#45;&gt;Node11 -->
<g id="edge11" class="edge">
<title>Node2&#45;&gt;Node11</title>
<path fill="none" stroke="#191970" d="M459.0576,-366.3554C523.3155,-362.3156 682.0779,-350.1139 812,-322 815.9583,-321.1435 820.0534,-320.1034 824.1124,-318.9718"/>
<polygon fill="#191970" stroke="#191970" points="825.4414,-322.2281 834.0288,-316.0227 823.446,-315.5185 825.4414,-322.2281"/>
</g>
<!-- Node12 -->
<g id="node13" class="node">
<title>Node12</title>
<g id="a_node13"><a xlink:href="_dispatcher_8h.html" target="_top" xlink:title="kryne&#45;engine/Dispatch\l/Dispatcher.h">
<polygon fill="#ffffff" stroke="#000000" points="186,-291.5 186,-321.5 300,-321.5 300,-291.5 186,-291.5"/>
<text text-anchor="start" x="194" y="-309.5" font-family="Helvetica,sans-Serif" font-size="10.00" fill="#000000">kryne&#45;engine/Dispatch</text>
<text text-anchor="middle" x="243" y="-298.5" font-family="Helvetica,sans-Serif" font-size="10.00" fill="#000000">/Dispatcher.h</text>
</a>
</g>
</g>
<!-- Node2&#45;&gt;Node12 -->
<g id="edge12" class="edge">
<title>Node2&#45;&gt;Node12</title>
<path fill="none" stroke="#191970" d="M400.7813,-358.3906C373.4812,-349.4123 332.0105,-335.7735 298.436,-324.7316"/>
<polygon fill="#191970" stroke="#191970" points="299.3383,-321.344 288.7453,-321.5446 297.1513,-327.9936 299.3383,-321.344"/>
</g>
<!-- Node13 -->
<g id="node14" class="node">
<title>Node13</title>
<g id="a_node14"><a xlink:href="_synchronizable_pool_8h.html" target="_top" xlink:title="SynchronizablePool.h">
<polygon fill="#ffffff" stroke="#000000" points="289.5,-179.5 289.5,-198.5 400.5,-198.5 400.5,-179.5 289.5,-179.5"/>
<text text-anchor="middle" x="345" y="-186.5" font-family="Helvetica,sans-Serif" font-size="10.00" fill="#000000">SynchronizablePool.h</text>
</a>
</g>
</g>
<!-- Node12&#45;&gt;Node13 -->
<g id="edge13" class="edge">
<title>Node12&#45;&gt;Node13</title>
<path fill="none" stroke="#191970" d="M255.7582,-291.3539C268.0347,-276.8252 287.1631,-254.3074 304,-235 312.3121,-225.4683 321.6906,-214.9303 329.378,-206.3481"/>
<polygon fill="#191970" stroke="#191970" points="332.0642,-208.5952 336.1403,-198.8158 326.8554,-203.9189 332.0642,-208.5952"/>
</g>
<!-- Node23 -->
<g id="node24" class="node">
<title>Node23</title>
<g id="a_node24"><a xlink:href="_runner_pool_8h.html" target="_top" xlink:title="RunnerPool.h">
<polygon fill="#ffffff" stroke="#000000" points="195,-179.5 195,-198.5 271,-198.5 271,-179.5 195,-179.5"/>
<text text-anchor="middle" x="233" y="-186.5" font-family="Helvetica,sans-Serif" font-size="10.00" fill="#000000">RunnerPool.h</text>
</a>
</g>
</g>
<!-- Node12&#45;&gt;Node23 -->
<g id="edge24" class="edge">
<title>Node12&#45;&gt;Node23</title>
<path fill="none" stroke="#191970" d="M241.6927,-291.1389C239.891,-269.9692 236.644,-231.8174 234.669,-208.6112"/>
<polygon fill="#191970" stroke="#191970" points="238.1491,-208.2266 233.8136,-198.5595 231.1743,-208.8203 238.1491,-208.2266"/>
</g>
<!-- Node24 -->
<g id="node25" class="node">
<title>Node24</title>
<g id="a_node25"><a xlink:href="_main_pool_8h.html" target="_top" xlink:title="MainPool.h">
<polygon fill="#ffffff" stroke="#000000" points="312.5,-235.5 312.5,-254.5 377.5,-254.5 377.5,-235.5 312.5,-235.5"/>
<text text-anchor="middle" x="345" y="-242.5" font-family="Helvetica,sans-Serif" font-size="10.00" fill="#000000">MainPool.h</text>
</a>
</g>
</g>
<!-- Node12&#45;&gt;Node24 -->
<g id="edge26" class="edge">
<title>Node12&#45;&gt;Node24</title>
<path fill="none" stroke="#191970" d="M267.952,-291.4554C283.9259,-281.8241 304.5602,-269.3828 320.4543,-259.7996"/>
<polygon fill="#191970" stroke="#191970" points="322.437,-262.6912 329.1936,-254.5303 318.8226,-256.6965 322.437,-262.6912"/>
</g>
<!-- Node14 -->
<g id="node15" class="node">
<title>Node14</title>
<g id="a_node15"><a xlink:href="_thread_pool_8h.html" target="_top" xlink:title="ThreadPool.h">
<polygon fill="#ffffff" stroke="#000000" points="277,-118 277,-137 351,-137 351,-118 277,-118"/>
<text text-anchor="middle" x="314" y="-125" font-family="Helvetica,sans-Serif" font-size="10.00" fill="#000000">ThreadPool.h</text>
</a>
</g>
</g>
<!-- Node13&#45;&gt;Node14 -->
<g id="edge14" class="edge">
<title>Node13&#45;&gt;Node14</title>
<path fill="none" stroke="#191970" d="M340.1563,-179.3906C335.7234,-170.5965 329.0369,-157.3312 323.5341,-146.4145"/>
<polygon fill="#191970" stroke="#191970" points="326.5386,-144.5992 318.912,-137.2449 320.2878,-147.75 326.5386,-144.5992"/>
</g>
<!-- Node14&#45;&gt;Node5 -->
<g id="edge20" class="edge">
<title>Node14&#45;&gt;Node5</title>
<path fill="none" stroke="#191970" d="M279.1841,-117.9364C243.6057,-108.1578 186.4905,-92.4449 127.9174,-76.2499"/>
<polygon fill="#191970" stroke="#191970" points="128.6962,-72.834 118.125,-73.5416 126.8302,-79.5807 128.6962,-72.834"/>
</g>
<!-- Node15 -->
<g id="node16" class="node">
<title>Node15</title>
<polygon fill="#ffffff" stroke="#bfbfbf" points="292,-56.5 292,-75.5 336,-75.5 336,-56.5 292,-56.5"/>
<text text-anchor="middle" x="314" y="-63.5" font-family="Helvetica,sans-Serif" font-size="10.00" fill="#000000">thread</text>
</g>
<!-- Node14&#45;&gt;Node15 -->
<g id="edge15" class="edge">
<title>Node14&#45;&gt;Node15</title>
<path fill="none" stroke="#191970" d="M314,-117.8906C314,-109.3657 314,-96.6392 314,-85.9235"/>
<polygon fill="#191970" stroke="#191970" points="317.5001,-85.7448 314,-75.7449 310.5001,-85.7449 317.5001,-85.7448"/>
</g>
<!-- Node16 -->
<g id="node17" class="node">
<title>Node16</title>
<polygon fill="#ffffff" stroke="#bfbfbf" points="527,-56.5 527,-75.5 571,-75.5 571,-56.5 527,-56.5"/>
<text text-anchor="middle" x="549" y="-63.5" font-family="Helvetica,sans-Serif" font-size="10.00" fill="#000000">mutex</text>
</g>
<!-- Node14&#45;&gt;Node16 -->
<g id="edge16" class="edge">
<title>Node14&#45;&gt;Node16</title>
<path fill="none" stroke="#191970" d="M351.0458,-118.9106C390.067,-109.6949 453.4944,-94.2399 516.9349,-76.1842"/>
<polygon fill="#191970" stroke="#191970" points="518.0541,-79.5044 526.7019,-73.3835 516.1245,-72.7756 518.0541,-79.5044"/>
</g>
<!-- Node17 -->
<g id="node18" class="node">
<title>Node17</title>
<polygon fill="#ffffff" stroke="#bfbfbf" points="354.5,-56.5 354.5,-75.5 449.5,-75.5 449.5,-56.5 354.5,-56.5"/>
<text text-anchor="middle" x="402" y="-63.5" font-family="Helvetica,sans-Serif" font-size="10.00" fill="#000000">condition_variable</text>
</g>
<!-- Node14&#45;&gt;Node17 -->
<g id="edge17" class="edge">
<title>Node14&#45;&gt;Node17</title>
<path fill="none" stroke="#191970" d="M327.75,-117.8906C341.6991,-108.1421 363.5098,-92.8994 379.8897,-81.4521"/>
<polygon fill="#191970" stroke="#191970" points="382.1548,-84.1392 388.3466,-75.5419 378.1449,-78.4015 382.1548,-84.1392"/>
</g>
<!-- Node18 -->
<g id="node19" class="node">
<title>Node18</title>
<polygon fill="#ffffff" stroke="#bfbfbf" points="467.5,-56.5 467.5,-75.5 508.5,-75.5 508.5,-56.5 467.5,-56.5"/>
<text text-anchor="middle" x="488" y="-63.5" font-family="Helvetica,sans-Serif" font-size="10.00" fill="#000000">future</text>
</g>
<!-- Node14&#45;&gt;Node18 -->
<g id="edge18" class="edge">
<title>Node14&#45;&gt;Node18</title>
<path fill="none" stroke="#191970" d="M341.1875,-117.8906C372.8039,-106.7159 424.8464,-88.3215 457.7257,-76.7004"/>
<polygon fill="#191970" stroke="#191970" points="459.0085,-79.9592 467.2706,-73.3268 456.6758,-73.3594 459.0085,-79.9592"/>
</g>
<!-- Node19 -->
<g id="node20" class="node">
<title>Node19</title>
<polygon fill="#ffffff" stroke="#bfbfbf" points="136,-56.5 136,-75.5 188,-75.5 188,-56.5 136,-56.5"/>
<text text-anchor="middle" x="162" y="-63.5" font-family="Helvetica,sans-Serif" font-size="10.00" fill="#000000">memory</text>
</g>
<!-- Node14&#45;&gt;Node19 -->
<g id="edge19" class="edge">
<title>Node14&#45;&gt;Node19</title>
<path fill="none" stroke="#191970" d="M290.25,-117.8906C264.7061,-107.5554 223.8991,-91.0447 195.189,-79.4284"/>
<polygon fill="#191970" stroke="#191970" points="196.166,-76.0481 185.5832,-75.5419 193.5404,-82.5371 196.166,-76.0481"/>
</g>
<!-- Node20 -->
<g id="node21" class="node">
<title>Node20</title>
<g id="a_node21"><a xlink:href="_base_pool_8h.html" target="_top" xlink:title="BasePool.h">
<polygon fill="#ffffff" stroke="#000000" points="206.5,-56.5 206.5,-75.5 273.5,-75.5 273.5,-56.5 206.5,-56.5"/>
<text text-anchor="middle" x="240" y="-63.5" font-family="Helvetica,sans-Serif" font-size="10.00" fill="#000000">BasePool.h</text>
</a>
</g>
</g>
<!-- Node14&#45;&gt;Node20 -->
<g id="edge21" class="edge">
<title>Node14&#45;&gt;Node20</title>
<path fill="none" stroke="#191970" d="M302.4375,-117.8906C290.9921,-108.3786 273.2527,-93.6357 259.603,-82.2917"/>
<polygon fill="#191970" stroke="#191970" points="261.6533,-79.4447 251.7255,-75.7449 257.1792,-84.8283 261.6533,-79.4447"/>
</g>
<!-- Node21 -->
<g id="node22" class="node">
<title>Node21</title>
<polygon fill="#ffffff" stroke="#bfbfbf" points="183.5,-.5 183.5,-19.5 226.5,-19.5 226.5,-.5 183.5,-.5"/>
<text text-anchor="middle" x="205" y="-7.5" font-family="Helvetica,sans-Serif" font-size="10.00" fill="#000000">queue</text>
</g>
<!-- Node20&#45;&gt;Node21 -->
<g id="edge22" class="edge">
<title>Node20&#45;&gt;Node21</title>
<path fill="none" stroke="#191970" d="M233.9035,-56.2455C229.0855,-48.5367 222.2249,-37.5598 216.3968,-28.2348"/>
<polygon fill="#191970" stroke="#191970" points="219.2947,-26.2677 211.0267,-19.6427 213.3587,-29.9777 219.2947,-26.2677"/>
</g>
<!-- Node22 -->
<g id="node23" class="node">
<title>Node22</title>
<polygon fill="#ffffff" stroke="#bfbfbf" points="244.5,-.5 244.5,-19.5 303.5,-19.5 303.5,-.5 244.5,-.5"/>
<text text-anchor="middle" x="274" y="-7.5" font-family="Helvetica,sans-Serif" font-size="10.00" fill="#000000">functional</text>
</g>
<!-- Node20&#45;&gt;Node22 -->
<g id="edge23" class="edge">
<title>Node20&#45;&gt;Node22</title>
<path fill="none" stroke="#191970" d="M245.9223,-56.2455C250.6027,-48.5367 257.2673,-37.5598 262.9289,-28.2348"/>
<polygon fill="#191970" stroke="#191970" points="265.9475,-30.007 268.1455,-19.6427 259.9639,-26.3741 265.9475,-30.007"/>
</g>
<!-- Node23&#45;&gt;Node14 -->
<g id="edge25" class="edge">
<title>Node23&#45;&gt;Node14</title>
<path fill="none" stroke="#191970" d="M245.6563,-179.3906C258.3768,-169.7324 278.2004,-154.6812 293.2284,-143.271"/>
<polygon fill="#191970" stroke="#191970" points="295.5846,-145.8766 301.4326,-137.0419 291.3516,-140.3015 295.5846,-145.8766"/>
</g>
<!-- Node24&#45;&gt;Node13 -->
<g id="edge29" class="edge">
<title>Node24&#45;&gt;Node13</title>
<path fill="none" stroke="#191970" d="M345,-235.2455C345,-227.9382 345,-217.6944 345,-208.7046"/>
<polygon fill="#191970" stroke="#191970" points="348.5001,-208.6426 345,-198.6427 341.5001,-208.6427 348.5001,-208.6426"/>
</g>
<!-- Node25 -->
<g id="node26" class="node">
<title>Node25</title>
<g id="a_node26"><a xlink:href="_multithreading_8hpp.html" target="_top" xlink:title="kryne&#45;engine/Utils\l/Multithreading.hpp">
<polygon fill="#ffffff" stroke="#000000" points="419.5,-112.5 419.5,-142.5 518.5,-142.5 518.5,-112.5 419.5,-112.5"/>
<text text-anchor="start" x="427.5" y="-130.5" font-family="Helvetica,sans-Serif" font-size="10.00" fill="#000000">kryne&#45;engine/Utils</text>
<text text-anchor="middle" x="469" y="-119.5" font-family="Helvetica,sans-Serif" font-size="10.00" fill="#000000">/Multithreading.hpp</text>
</a>
</g>
</g>
<!-- Node24&#45;&gt;Node25 -->
<g id="edge27" class="edge">
<title>Node24&#45;&gt;Node25</title>
<path fill="none" stroke="#191970" d="M360.8424,-235.4725C374.5736,-226.8345 394.6014,-213.2988 410,-199 425.7736,-184.353 441.17,-165.494 452.2776,-150.8222"/>
<polygon fill="#191970" stroke="#191970" points="455.1354,-152.8446 458.2925,-142.7311 449.5176,-148.6684 455.1354,-152.8446"/>
</g>
<!-- Node25&#45;&gt;Node16 -->
<g id="edge28" class="edge">
<title>Node25&#45;&gt;Node16</title>
<path fill="none" stroke="#191970" d="M488.7753,-112.2977C500.6898,-103.1384 515.8532,-91.4816 527.9838,-82.1562"/>
<polygon fill="#191970" stroke="#191970" points="530.396,-84.7165 536.191,-75.8469 526.1297,-79.1668 530.396,-84.7165"/>
</g>
</g>
</svg>
