<?xml version="1.0" encoding="UTF-8" standalone="no"?>
<!DOCTYPE svg PUBLIC "-//W3C//DTD SVG 1.1//EN"
 "http://www.w3.org/Graphics/SVG/1.1/DTD/svg11.dtd">
<!-- Generated by graphviz version 2.40.1 (20161225.0304)
 -->
<!-- Title: kryne&#45;engine/include/kryne&#45;engine/Dispatch/ThreadPool.h Pages: 1 -->
<svg width="545pt" height="162pt"
 viewBox="0.00 0.00 544.50 162.00" xmlns="http://www.w3.org/2000/svg" xmlns:xlink="http://www.w3.org/1999/xlink">
<g id="graph0" class="graph" transform="scale(1 1) rotate(0) translate(4 158)">
<title>kryne&#45;engine/include/kryne&#45;engine/Dispatch/ThreadPool.h</title>
<polygon fill="#ffffff" stroke="transparent" points="-4,4 -4,-158 540.5,-158 540.5,4 -4,4"/>
<!-- Node0 -->
<g id="node1" class="node">
<title>Node0</title>
<polygon fill="#bfbfbf" stroke="#000000" points="199.5,-112.5 199.5,-153.5 316.5,-153.5 316.5,-112.5 199.5,-112.5"/>
<text text-anchor="start" x="207.5" y="-141.5" font-family="Helvetica,sans-Serif" font-size="10.00" fill="#000000">kryne&#45;engine/include</text>
<text text-anchor="start" x="207.5" y="-130.5" font-family="Helvetica,sans-Serif" font-size="10.00" fill="#000000">/kryne&#45;engine/Dispatch</text>
<text text-anchor="middle" x="258" y="-119.5" font-family="Helvetica,sans-Serif" font-size="10.00" fill="#000000">/ThreadPool.h</text>
</g>
<!-- Node1 -->
<g id="node2" class="node">
<title>Node1</title>
<polygon fill="#ffffff" stroke="#bfbfbf" points="0,-56.5 0,-75.5 44,-75.5 44,-56.5 0,-56.5"/>
<text text-anchor="middle" x="22" y="-63.5" font-family="Helvetica,sans-Serif" font-size="10.00" fill="#000000">thread</text>
</g>
<!-- Node0&#45;&gt;Node1 -->
<g id="edge1" class="edge">
<title>Node0&#45;&gt;Node1</title>
<path fill="none" stroke="#191970" d="M199.4977,-117.4155C160.7184,-106.928 108.4985,-92.5083 54.1307,-76.2644"/>
<polygon fill="#191970" stroke="#191970" points="54.9011,-72.8414 44.317,-73.3192 52.8889,-79.546 54.9011,-72.8414"/>
</g>
<!-- Node2 -->
<g id="node3" class="node">
<title>Node2</title>
<polygon fill="#ffffff" stroke="#bfbfbf" points="62,-56.5 62,-75.5 106,-75.5 106,-56.5 62,-56.5"/>
<text text-anchor="middle" x="84" y="-63.5" font-family="Helvetica,sans-Serif" font-size="10.00" fill="#000000">mutex</text>
</g>
<!-- Node0&#45;&gt;Node2 -->
<g id="edge2" class="edge">
<title>Node0&#45;&gt;Node2</title>
<path fill="none" stroke="#191970" d="M204.3745,-112.3511C175.4129,-101.1992 140.6353,-87.8078 115.9249,-78.2929"/>
<polygon fill="#191970" stroke="#191970" points="116.9159,-74.924 106.3261,-74.5968 114.4005,-81.4565 116.9159,-74.924"/>
</g>
<!-- Node3 -->
<g id="node4" class="node">
<title>Node3</title>
<polygon fill="#ffffff" stroke="#bfbfbf" points="124.5,-56.5 124.5,-75.5 219.5,-75.5 219.5,-56.5 124.5,-56.5"/>
<text text-anchor="middle" x="172" y="-63.5" font-family="Helvetica,sans-Serif" font-size="10.00" fill="#000000">condition_variable</text>
</g>
<!-- Node0&#45;&gt;Node3 -->
<g id="edge3" class="edge">
<title>Node0&#45;&gt;Node3</title>
<path fill="none" stroke="#191970" d="M231.2605,-112.168C218.8442,-102.4949 204.3067,-91.1692 192.7378,-82.1562"/>
<polygon fill="#191970" stroke="#191970" points="194.5937,-79.1653 184.554,-75.7805 190.2916,-84.6873 194.5937,-79.1653"/>
</g>
<!-- Node4 -->
<g id="node5" class="node">
<title>Node4</title>
<polygon fill="#ffffff" stroke="#bfbfbf" points="237.5,-56.5 237.5,-75.5 278.5,-75.5 278.5,-56.5 237.5,-56.5"/>
<text text-anchor="middle" x="258" y="-63.5" font-family="Helvetica,sans-Serif" font-size="10.00" fill="#000000">future</text>
</g>
<!-- Node0&#45;&gt;Node4 -->
<g id="edge4" class="edge">
<title>Node0&#45;&gt;Node4</title>
<path fill="none" stroke="#191970" d="M258,-112.168C258,-103.8226 258,-94.2471 258,-85.9879"/>
<polygon fill="#191970" stroke="#191970" points="261.5001,-85.7804 258,-75.7805 254.5001,-85.7805 261.5001,-85.7804"/>
</g>
<!-- Node5 -->
<g id="node6" class="node">
<title>Node5</title>
<polygon fill="#ffffff" stroke="#bfbfbf" points="297,-56.5 297,-75.5 349,-75.5 349,-56.5 297,-56.5"/>
<text text-anchor="middle" x="323" y="-63.5" font-family="Helvetica,sans-Serif" font-size="10.00" fill="#000000">memory</text>
</g>
<!-- Node0&#45;&gt;Node5 -->
<g id="edge5" class="edge">
<title>Node0&#45;&gt;Node5</title>
<path fill="none" stroke="#191970" d="M278.2101,-112.168C287.2265,-102.8742 297.7228,-92.0549 306.2872,-83.227"/>
<polygon fill="#191970" stroke="#191970" points="309.0604,-85.395 313.5115,-75.7805 304.0362,-80.5208 309.0604,-85.395"/>
</g>
<!-- Node6 -->
<g id="node7" class="node">
<title>Node6</title>
<polygon fill="#ffffff" stroke="#bfbfbf" points="367,-56.5 367,-75.5 421,-75.5 421,-56.5 367,-56.5"/>
<text text-anchor="middle" x="394" y="-63.5" font-family="Helvetica,sans-Serif" font-size="10.00" fill="#000000">iostream</text>
</g>
<!-- Node0&#45;&gt;Node6 -->
<g id="edge6" class="edge">
<title>Node0&#45;&gt;Node6</title>
<path fill="none" stroke="#191970" d="M299.9142,-112.3511C321.146,-101.8913 346.3769,-89.4614 365.3634,-80.1077"/>
<polygon fill="#191970" stroke="#191970" points="366.9788,-83.2137 374.4025,-75.6546 363.8852,-76.9343 366.9788,-83.2137"/>
</g>
<!-- Node7 -->
<g id="node8" class="node">
<title>Node7</title>
<g id="a_node8"><a xlink:href="_base_pool_8h.html" target="_top" xlink:title="BasePool.h">
<polygon fill="#ffffff" stroke="#000000" points="439.5,-56.5 439.5,-75.5 506.5,-75.5 506.5,-56.5 439.5,-56.5"/>
<text text-anchor="middle" x="473" y="-63.5" font-family="Helvetica,sans-Serif" font-size="10.00" fill="#000000">BasePool.h</text>
</a>
</g>
</g>
<!-- Node0&#45;&gt;Node7 -->
<g id="edge7" class="edge">
<title>Node0&#45;&gt;Node7</title>
<path fill="none" stroke="#191970" d="M316.7497,-114.692C353.5944,-103.2101 400.1327,-88.7075 432.8001,-78.5274"/>
<polygon fill="#191970" stroke="#191970" points="433.961,-81.8317 442.4668,-75.515 431.8783,-75.1487 433.961,-81.8317"/>
</g>
<!-- Node8 -->
<g id="node9" class="node">
<title>Node8</title>
<polygon fill="#ffffff" stroke="#bfbfbf" points="416.5,-.5 416.5,-19.5 459.5,-19.5 459.5,-.5 416.5,-.5"/>
<text text-anchor="middle" x="438" y="-7.5" font-family="Helvetica,sans-Serif" font-size="10.00" fill="#000000">queue</text>
</g>
<!-- Node7&#45;&gt;Node8 -->
<g id="edge8" class="edge">
<title>Node7&#45;&gt;Node8</title>
<path fill="none" stroke="#191970" d="M466.9035,-56.2455C462.0855,-48.5367 455.2249,-37.5598 449.3968,-28.2348"/>
<polygon fill="#191970" stroke="#191970" points="452.2947,-26.2677 444.0267,-19.6427 446.3587,-29.9777 452.2947,-26.2677"/>
</g>
<!-- Node9 -->
<g id="node10" class="node">
<title>Node9</title>
<polygon fill="#ffffff" stroke="#bfbfbf" points="477.5,-.5 477.5,-19.5 536.5,-19.5 536.5,-.5 477.5,-.5"/>
<text text-anchor="middle" x="507" y="-7.5" font-family="Helvetica,sans-Serif" font-size="10.00" fill="#000000">functional</text>
</g>
<!-- Node7&#45;&gt;Node9 -->
<g id="edge9" class="edge">
<title>Node7&#45;&gt;Node9</title>
<path fill="none" stroke="#191970" d="M478.9223,-56.2455C483.6027,-48.5367 490.2673,-37.5598 495.9289,-28.2348"/>
<polygon fill="#191970" stroke="#191970" points="498.9475,-30.007 501.1455,-19.6427 492.9639,-26.3741 498.9475,-30.007"/>
</g>
</g>
</svg>
