<?xml version="1.0" encoding="UTF-8" standalone="no"?>
<!DOCTYPE svg PUBLIC "-//W3C//DTD SVG 1.1//EN"
 "http://www.w3.org/Graphics/SVG/1.1/DTD/svg11.dtd">
<!-- Generated by graphviz version 2.44.1 (20200629.0846)
 -->
<!-- Title: kryne&#45;engine/src/Dispatch/ThreadPool.cpp Pages: 1 -->
<svg width="542pt" height="218pt"
 viewBox="0.00 0.00 542.00 218.00" xmlns="http://www.w3.org/2000/svg" xmlns:xlink="http://www.w3.org/1999/xlink">
<g id="graph0" class="graph" transform="scale(1 1) rotate(0) translate(4 214)">
<title>kryne&#45;engine/src/Dispatch/ThreadPool.cpp</title>
<polygon fill="white" stroke="transparent" points="-4,4 -4,-214 538,-214 538,4 -4,4"/>
<!-- Node1 -->
<g id="node1" class="node">
<title>Node1</title>
<g id="a_node1"><a xlink:title=" ">
<polygon fill="#bfbfbf" stroke="black" points="191,-179.5 191,-209.5 321,-209.5 321,-179.5 191,-179.5"/>
<text text-anchor="start" x="199" y="-197.5" font-family="Helvetica,sans-Serif" font-size="10.00">kryne&#45;engine/src/Dispatch</text>
<text text-anchor="middle" x="256" y="-186.5" font-family="Helvetica,sans-Serif" font-size="10.00">/ThreadPool.cpp</text>
</a>
</g>
</g>
<!-- Node2 -->
<g id="node2" class="node">
<title>Node2</title>
<g id="a_node2"><a xlink:href="_thread_pool_8h.html" target="_top" xlink:title=" ">
<polygon fill="white" stroke="black" points="199.5,-112.5 199.5,-142.5 312.5,-142.5 312.5,-112.5 199.5,-112.5"/>
<text text-anchor="start" x="207.5" y="-130.5" font-family="Helvetica,sans-Serif" font-size="10.00">kryne&#45;engine/Dispatch</text>
<text text-anchor="middle" x="256" y="-119.5" font-family="Helvetica,sans-Serif" font-size="10.00">/ThreadPool.h</text>
</a>
</g>
</g>
<!-- Node1&#45;&gt;Node2 -->
<g id="edge1" class="edge">
<title>Node1&#45;&gt;Node2</title>
<path fill="none" stroke="midnightblue" d="M256,-179.4C256,-171.64 256,-161.81 256,-152.86"/>
<polygon fill="midnightblue" stroke="midnightblue" points="259.5,-152.58 256,-142.58 252.5,-152.58 259.5,-152.58"/>
</g>
<!-- Node3 -->
<g id="node3" class="node">
<title>Node3</title>
<g id="a_node3"><a xlink:title=" ">
<polygon fill="white" stroke="#bfbfbf" points="0,-56.5 0,-75.5 44,-75.5 44,-56.5 0,-56.5"/>
<text text-anchor="middle" x="22" y="-63.5" font-family="Helvetica,sans-Serif" font-size="10.00">thread</text>
</a>
</g>
</g>
<!-- Node2&#45;&gt;Node3 -->
<g id="edge2" class="edge">
<title>Node2&#45;&gt;Node3</title>
<path fill="none" stroke="midnightblue" d="M199.41,-113.04C160.91,-103.75 108.6,-90.84 54.15,-76.24"/>
<polygon fill="midnightblue" stroke="midnightblue" points="54.89,-72.81 44.32,-73.59 53.07,-79.57 54.89,-72.81"/>
</g>
<!-- Node4 -->
<g id="node4" class="node">
<title>Node4</title>
<g id="a_node4"><a xlink:title=" ">
<polygon fill="white" stroke="#bfbfbf" points="62,-56.5 62,-75.5 106,-75.5 106,-56.5 62,-56.5"/>
<text text-anchor="middle" x="84" y="-63.5" font-family="Helvetica,sans-Serif" font-size="10.00">mutex</text>
</a>
</g>
</g>
<!-- Node2&#45;&gt;Node4 -->
<g id="edge3" class="edge">
<title>Node2&#45;&gt;Node4</title>
<path fill="none" stroke="midnightblue" d="M215.24,-112.4C184.8,-101.87 143.8,-87.69 115.77,-77.99"/>
<polygon fill="midnightblue" stroke="midnightblue" points="116.67,-74.6 106.08,-74.64 114.39,-81.21 116.67,-74.6"/>
</g>
<!-- Node5 -->
<g id="node5" class="node">
<title>Node5</title>
<g id="a_node5"><a xlink:title=" ">
<polygon fill="white" stroke="#bfbfbf" points="124.5,-56.5 124.5,-75.5 217.5,-75.5 217.5,-56.5 124.5,-56.5"/>
<text text-anchor="middle" x="171" y="-63.5" font-family="Helvetica,sans-Serif" font-size="10.00">condition_variable</text>
</a>
</g>
</g>
<!-- Node2&#45;&gt;Node5 -->
<g id="edge4" class="edge">
<title>Node2&#45;&gt;Node5</title>
<path fill="none" stroke="midnightblue" d="M235.86,-112.4C222.61,-103.13 205.32,-91.03 191.92,-81.65"/>
<polygon fill="midnightblue" stroke="midnightblue" points="193.57,-78.53 183.37,-75.66 189.55,-84.26 193.57,-78.53"/>
</g>
<!-- Node6 -->
<g id="node6" class="node">
<title>Node6</title>
<g id="a_node6"><a xlink:title=" ">
<polygon fill="white" stroke="#bfbfbf" points="235.5,-56.5 235.5,-75.5 276.5,-75.5 276.5,-56.5 235.5,-56.5"/>
<text text-anchor="middle" x="256" y="-63.5" font-family="Helvetica,sans-Serif" font-size="10.00">future</text>
</a>
</g>
</g>
<!-- Node2&#45;&gt;Node6 -->
<g id="edge5" class="edge">
<title>Node2&#45;&gt;Node6</title>
<path fill="none" stroke="midnightblue" d="M256,-112.4C256,-104.47 256,-94.46 256,-85.86"/>
<polygon fill="midnightblue" stroke="midnightblue" points="259.5,-85.66 256,-75.66 252.5,-85.66 259.5,-85.66"/>
</g>
<!-- Node7 -->
<g id="node7" class="node">
<title>Node7</title>
<g id="a_node7"><a xlink:title=" ">
<polygon fill="white" stroke="#bfbfbf" points="295,-56.5 295,-75.5 347,-75.5 347,-56.5 295,-56.5"/>
<text text-anchor="middle" x="321" y="-63.5" font-family="Helvetica,sans-Serif" font-size="10.00">memory</text>
</a>
</g>
</g>
<!-- Node2&#45;&gt;Node7 -->
<g id="edge6" class="edge">
<title>Node2&#45;&gt;Node7</title>
<path fill="none" stroke="midnightblue" d="M271.4,-112.4C281.24,-103.4 293.99,-91.72 304.11,-82.47"/>
<polygon fill="midnightblue" stroke="midnightblue" points="306.53,-84.99 311.54,-75.66 301.8,-79.83 306.53,-84.99"/>
</g>
<!-- Node8 -->
<g id="node8" class="node">
<title>Node8</title>
<g id="a_node8"><a xlink:title=" ">
<polygon fill="white" stroke="#bfbfbf" points="365,-56.5 365,-75.5 419,-75.5 419,-56.5 365,-56.5"/>
<text text-anchor="middle" x="392" y="-63.5" font-family="Helvetica,sans-Serif" font-size="10.00">iostream</text>
</a>
</g>
</g>
<!-- Node2&#45;&gt;Node8 -->
<g id="edge7" class="edge">
<title>Node2&#45;&gt;Node8</title>
<path fill="none" stroke="midnightblue" d="M288.23,-112.4C310.84,-102.51 340.84,-89.38 362.76,-79.79"/>
<polygon fill="midnightblue" stroke="midnightblue" points="364.45,-82.87 372.21,-75.66 361.65,-76.46 364.45,-82.87"/>
</g>
<!-- Node9 -->
<g id="node9" class="node">
<title>Node9</title>
<g id="a_node9"><a xlink:href="_base_pool_8h.html" target="_top" xlink:title=" ">
<polygon fill="white" stroke="black" points="437.5,-56.5 437.5,-75.5 504.5,-75.5 504.5,-56.5 437.5,-56.5"/>
<text text-anchor="middle" x="471" y="-63.5" font-family="Helvetica,sans-Serif" font-size="10.00">BasePool.h</text>
</a>
</g>
</g>
<!-- Node2&#45;&gt;Node9 -->
<g id="edge8" class="edge">
<title>Node2&#45;&gt;Node9</title>
<path fill="none" stroke="midnightblue" d="M306.68,-112.47C344.42,-102.03 395.27,-87.96 430.36,-78.25"/>
<polygon fill="midnightblue" stroke="midnightblue" points="431.56,-81.55 440.26,-75.51 429.69,-74.8 431.56,-81.55"/>
</g>
<!-- Node10 -->
<g id="node10" class="node">
<title>Node10</title>
<g id="a_node10"><a xlink:title=" ">
<polygon fill="white" stroke="#bfbfbf" points="414.5,-0.5 414.5,-19.5 457.5,-19.5 457.5,-0.5 414.5,-0.5"/>
<text text-anchor="middle" x="436" y="-7.5" font-family="Helvetica,sans-Serif" font-size="10.00">queue</text>
</a>
</g>
</g>
<!-- Node9&#45;&gt;Node10 -->
<g id="edge9" class="edge">
<title>Node9&#45;&gt;Node10</title>
<path fill="none" stroke="midnightblue" d="M465.22,-56.08C460.33,-48.53 453.17,-37.49 447.17,-28.23"/>
<polygon fill="midnightblue" stroke="midnightblue" points="450.05,-26.24 441.67,-19.75 444.17,-30.05 450.05,-26.24"/>
</g>
<!-- Node11 -->
<g id="node11" class="node">
<title>Node11</title>
<g id="a_node11"><a xlink:title=" ">
<polygon fill="white" stroke="#bfbfbf" points="476,-0.5 476,-19.5 534,-19.5 534,-0.5 476,-0.5"/>
<text text-anchor="middle" x="505" y="-7.5" font-family="Helvetica,sans-Serif" font-size="10.00">functional</text>
</a>
</g>
</g>
<!-- Node9&#45;&gt;Node11 -->
<g id="edge10" class="edge">
<title>Node9&#45;&gt;Node11</title>
<path fill="none" stroke="midnightblue" d="M476.61,-56.08C481.37,-48.53 488.32,-37.49 494.15,-28.23"/>
<polygon fill="midnightblue" stroke="midnightblue" points="497.12,-30.08 499.49,-19.75 491.2,-26.35 497.12,-30.08"/>
</g>
</g>
</svg>
