<?xml version="1.0" encoding="UTF-8" standalone="no"?>
<!DOCTYPE svg PUBLIC "-//W3C//DTD SVG 1.1//EN"
 "http://www.w3.org/Graphics/SVG/1.1/DTD/svg11.dtd">
<!-- Generated by graphviz version 2.40.1 (20161225.0304)
 -->
<!-- Title: kryne&#45;engine/src/Dispatch/ThreadPool.cpp Pages: 1 -->
<svg width="545pt" height="218pt"
 viewBox="0.00 0.00 544.50 218.00" xmlns="http://www.w3.org/2000/svg" xmlns:xlink="http://www.w3.org/1999/xlink">
<g id="graph0" class="graph" transform="scale(1 1) rotate(0) translate(4 214)">
<title>kryne&#45;engine/src/Dispatch/ThreadPool.cpp</title>
<polygon fill="#ffffff" stroke="transparent" points="-4,4 -4,-214 540.5,-214 540.5,4 -4,4"/>
<!-- Node0 -->
<g id="node1" class="node">
<title>Node0</title>
<polygon fill="#bfbfbf" stroke="#000000" points="192.5,-179.5 192.5,-209.5 323.5,-209.5 323.5,-179.5 192.5,-179.5"/>
<text text-anchor="start" x="200.5" y="-197.5" font-family="Helvetica,sans-Serif" font-size="10.00" fill="#000000">kryne&#45;engine/src/Dispatch</text>
<text text-anchor="middle" x="258" y="-186.5" font-family="Helvetica,sans-Serif" font-size="10.00" fill="#000000">/ThreadPool.cpp</text>
</g>
<!-- Node1 -->
<g id="node2" class="node">
<title>Node1</title>
<g id="a_node2"><a xlink:href="_thread_pool_8h.html" target="_top" xlink:title="kryne&#45;engine/Dispatch\l/ThreadPool.h">
<polygon fill="#ffffff" stroke="#000000" points="201,-112.5 201,-142.5 315,-142.5 315,-112.5 201,-112.5"/>
<text text-anchor="start" x="209" y="-130.5" font-family="Helvetica,sans-Serif" font-size="10.00" fill="#000000">kryne&#45;engine/Dispatch</text>
<text text-anchor="middle" x="258" y="-119.5" font-family="Helvetica,sans-Serif" font-size="10.00" fill="#000000">/ThreadPool.h</text>
</a>
</g>
</g>
<!-- Node0&#45;&gt;Node1 -->
<g id="edge1" class="edge">
<title>Node0&#45;&gt;Node1</title>
<path fill="none" stroke="#191970" d="M258,-179.2967C258,-171.5013 258,-161.7991 258,-152.9064"/>
<polygon fill="#191970" stroke="#191970" points="261.5001,-152.6431 258,-142.6432 254.5001,-152.6432 261.5001,-152.6431"/>
</g>
<!-- Node2 -->
<g id="node3" class="node">
<title>Node2</title>
<polygon fill="#ffffff" stroke="#bfbfbf" points="0,-56.5 0,-75.5 44,-75.5 44,-56.5 0,-56.5"/>
<text text-anchor="middle" x="22" y="-63.5" font-family="Helvetica,sans-Serif" font-size="10.00" fill="#000000">thread</text>
</g>
<!-- Node1&#45;&gt;Node2 -->
<g id="edge2" class="edge">
<title>Node1&#45;&gt;Node2</title>
<path fill="none" stroke="#191970" d="M200.7336,-114.1833C161.8087,-104.8866 108.9597,-91.7894 54.1822,-76.2179"/>
<polygon fill="#191970" stroke="#191970" points="54.8744,-72.7755 44.2972,-73.3866 52.9469,-79.5049 54.8744,-72.7755"/>
</g>
<!-- Node3 -->
<g id="node4" class="node">
<title>Node3</title>
<polygon fill="#ffffff" stroke="#bfbfbf" points="62,-56.5 62,-75.5 106,-75.5 106,-56.5 62,-56.5"/>
<text text-anchor="middle" x="84" y="-63.5" font-family="Helvetica,sans-Serif" font-size="10.00" fill="#000000">mutex</text>
</g>
<!-- Node1&#45;&gt;Node3 -->
<g id="edge3" class="edge">
<title>Node1&#45;&gt;Node3</title>
<path fill="none" stroke="#191970" d="M215.4348,-112.4554C184.7896,-101.6239 144.0895,-87.2385 116.144,-77.3612"/>
<polygon fill="#191970" stroke="#191970" points="117.0624,-73.9737 106.4676,-73.9411 114.7296,-80.5736 117.0624,-73.9737"/>
</g>
<!-- Node4 -->
<g id="node5" class="node">
<title>Node4</title>
<polygon fill="#ffffff" stroke="#bfbfbf" points="124.5,-56.5 124.5,-75.5 219.5,-75.5 219.5,-56.5 124.5,-56.5"/>
<text text-anchor="middle" x="172" y="-63.5" font-family="Helvetica,sans-Serif" font-size="10.00" fill="#000000">condition_variable</text>
</g>
<!-- Node1&#45;&gt;Node4 -->
<g id="edge4" class="edge">
<title>Node1&#45;&gt;Node4</title>
<path fill="none" stroke="#191970" d="M236.7416,-112.2977C223.7282,-102.9917 207.1097,-91.1075 193.9683,-81.7099"/>
<polygon fill="#191970" stroke="#191970" points="195.6829,-78.6332 185.5129,-75.6633 191.6111,-84.3271 195.6829,-78.6332"/>
</g>
<!-- Node5 -->
<g id="node6" class="node">
<title>Node5</title>
<polygon fill="#ffffff" stroke="#bfbfbf" points="237.5,-56.5 237.5,-75.5 278.5,-75.5 278.5,-56.5 237.5,-56.5"/>
<text text-anchor="middle" x="258" y="-63.5" font-family="Helvetica,sans-Serif" font-size="10.00" fill="#000000">future</text>
</g>
<!-- Node1&#45;&gt;Node5 -->
<g id="edge5" class="edge">
<title>Node1&#45;&gt;Node5</title>
<path fill="none" stroke="#191970" d="M258,-112.2977C258,-104.3834 258,-94.6043 258,-86.0759"/>
<polygon fill="#191970" stroke="#191970" points="261.5001,-85.8469 258,-75.8469 254.5001,-85.847 261.5001,-85.8469"/>
</g>
<!-- Node6 -->
<g id="node7" class="node">
<title>Node6</title>
<polygon fill="#ffffff" stroke="#bfbfbf" points="297,-56.5 297,-75.5 349,-75.5 349,-56.5 297,-56.5"/>
<text text-anchor="middle" x="323" y="-63.5" font-family="Helvetica,sans-Serif" font-size="10.00" fill="#000000">memory</text>
</g>
<!-- Node1&#45;&gt;Node6 -->
<g id="edge6" class="edge">
<title>Node1&#45;&gt;Node6</title>
<path fill="none" stroke="#191970" d="M274.0674,-112.2977C283.466,-103.4052 295.3527,-92.1586 305.057,-82.9769"/>
<polygon fill="#191970" stroke="#191970" points="307.7342,-85.2621 312.5927,-75.8469 302.9232,-80.1774 307.7342,-85.2621"/>
</g>
<!-- Node7 -->
<g id="node8" class="node">
<title>Node7</title>
<polygon fill="#ffffff" stroke="#bfbfbf" points="367,-56.5 367,-75.5 421,-75.5 421,-56.5 367,-56.5"/>
<text text-anchor="middle" x="394" y="-63.5" font-family="Helvetica,sans-Serif" font-size="10.00" fill="#000000">iostream</text>
</g>
<!-- Node1&#45;&gt;Node7 -->
<g id="edge7" class="edge">
<title>Node1&#45;&gt;Node7</title>
<path fill="none" stroke="#191970" d="M291.2693,-112.4554C313.3641,-102.464 342.146,-89.4487 363.6219,-79.7372"/>
<polygon fill="#191970" stroke="#191970" points="365.2553,-82.8398 372.9248,-75.5303 362.371,-76.4616 365.2553,-82.8398"/>
</g>
<!-- Node8 -->
<g id="node9" class="node">
<title>Node8</title>
<g id="a_node9"><a xlink:href="_base_pool_8h.html" target="_top" xlink:title="BasePool.h">
<polygon fill="#ffffff" stroke="#000000" points="439.5,-56.5 439.5,-75.5 506.5,-75.5 506.5,-56.5 439.5,-56.5"/>
<text text-anchor="middle" x="473" y="-63.5" font-family="Helvetica,sans-Serif" font-size="10.00" fill="#000000">BasePool.h</text>
</a>
</g>
</g>
<!-- Node1&#45;&gt;Node8 -->
<g id="edge8" class="edge">
<title>Node1&#45;&gt;Node8</title>
<path fill="none" stroke="#191970" d="M310.5949,-112.4554C347.2549,-101.9689 395.56,-88.1515 429.9348,-78.3187"/>
<polygon fill="#191970" stroke="#191970" points="431.0308,-81.6456 439.6826,-75.5303 429.1056,-74.9155 431.0308,-81.6456"/>
</g>
<!-- Node9 -->
<g id="node10" class="node">
<title>Node9</title>
<polygon fill="#ffffff" stroke="#bfbfbf" points="416.5,-.5 416.5,-19.5 459.5,-19.5 459.5,-.5 416.5,-.5"/>
<text text-anchor="middle" x="438" y="-7.5" font-family="Helvetica,sans-Serif" font-size="10.00" fill="#000000">queue</text>
</g>
<!-- Node8&#45;&gt;Node9 -->
<g id="edge9" class="edge">
<title>Node8&#45;&gt;Node9</title>
<path fill="none" stroke="#191970" d="M466.9035,-56.2455C462.0855,-48.5367 455.2249,-37.5598 449.3968,-28.2348"/>
<polygon fill="#191970" stroke="#191970" points="452.2947,-26.2677 444.0267,-19.6427 446.3587,-29.9777 452.2947,-26.2677"/>
</g>
<!-- Node10 -->
<g id="node11" class="node">
<title>Node10</title>
<polygon fill="#ffffff" stroke="#bfbfbf" points="477.5,-.5 477.5,-19.5 536.5,-19.5 536.5,-.5 477.5,-.5"/>
<text text-anchor="middle" x="507" y="-7.5" font-family="Helvetica,sans-Serif" font-size="10.00" fill="#000000">functional</text>
</g>
<!-- Node8&#45;&gt;Node10 -->
<g id="edge10" class="edge">
<title>Node8&#45;&gt;Node10</title>
<path fill="none" stroke="#191970" d="M478.9223,-56.2455C483.6027,-48.5367 490.2673,-37.5598 495.9289,-28.2348"/>
<polygon fill="#191970" stroke="#191970" points="498.9475,-30.007 501.1455,-19.6427 492.9639,-26.3741 498.9475,-30.007"/>
</g>
</g>
</svg>
