<?xml version="1.0" encoding="UTF-8" standalone="no"?>
<!DOCTYPE svg PUBLIC "-//W3C//DTD SVG 1.1//EN"
 "http://www.w3.org/Graphics/SVG/1.1/DTD/svg11.dtd">
<!-- Generated by graphviz version 2.40.1 (20161225.0304)
 -->
<!-- Title: kryne&#45;engine/src/Systems/TransformUpdateSystem.cpp Pages: 1 -->
<svg width="2261pt" height="799pt"
 viewBox="0.00 0.00 2261.50 799.00" xmlns="http://www.w3.org/2000/svg" xmlns:xlink="http://www.w3.org/1999/xlink">
<g id="graph0" class="graph" transform="scale(1 1) rotate(0) translate(4 795)">
<title>kryne&#45;engine/src/Systems/TransformUpdateSystem.cpp</title>
<polygon fill="#ffffff" stroke="transparent" points="-4,4 -4,-795 2257.495,-795 2257.495,4 -4,4"/>
<!-- Node0 -->
<g id="node1" class="node">
<title>Node0</title>
<polygon fill="#bfbfbf" stroke="#000000" points="890.2275,-760.5 890.2275,-790.5 1038.2275,-790.5 1038.2275,-760.5 890.2275,-760.5"/>
<text text-anchor="start" x="898.2275" y="-778.5" font-family="Helvetica,sans-Serif" font-size="10.00" fill="#000000">kryne&#45;engine/src/Systems</text>
<text text-anchor="middle" x="964.2275" y="-767.5" font-family="Helvetica,sans-Serif" font-size="10.00" fill="#000000">/TransformUpdateSystem.cpp</text>
</g>
<!-- Node1 -->
<g id="node2" class="node">
<title>Node1</title>
<g id="a_node2"><a xlink:href="_transform_update_system_8h.html" target="_top" xlink:title="kryne&#45;engine/Systems\l/TransformUpdateSystem.h">
<polygon fill="#ffffff" stroke="#000000" points="895.7275,-693.5 895.7275,-723.5 1032.7275,-723.5 1032.7275,-693.5 895.7275,-693.5"/>
<text text-anchor="start" x="903.7275" y="-711.5" font-family="Helvetica,sans-Serif" font-size="10.00" fill="#000000">kryne&#45;engine/Systems</text>
<text text-anchor="middle" x="964.2275" y="-700.5" font-family="Helvetica,sans-Serif" font-size="10.00" fill="#000000">/TransformUpdateSystem.h</text>
</a>
</g>
</g>
<!-- Node0&#45;&gt;Node1 -->
<g id="edge1" class="edge">
<title>Node0&#45;&gt;Node1</title>
<path fill="none" stroke="#191970" d="M964.2275,-760.2967C964.2275,-752.5013 964.2275,-742.7991 964.2275,-733.9064"/>
<polygon fill="#191970" stroke="#191970" points="967.7276,-733.6431 964.2275,-723.6432 960.7276,-733.6432 967.7276,-733.6431"/>
</g>
<!-- Node2 -->
<g id="node3" class="node">
<title>Node2</title>
<polygon fill="#ffffff" stroke="#bfbfbf" points="136.2275,-.5 136.2275,-19.5 180.2275,-19.5 180.2275,-.5 136.2275,-.5"/>
<text text-anchor="middle" x="158.2275" y="-7.5" font-family="Helvetica,sans-Serif" font-size="10.00" fill="#000000">mutex</text>
</g>
<!-- Node1&#45;&gt;Node2 -->
<g id="edge2" class="edge">
<title>Node1&#45;&gt;Node2</title>
<path fill="none" stroke="#191970" d="M895.3574,-707.3341C674.9501,-702.7001 1.2275,-681.1613 1.2275,-591 1.2275,-591 1.2275,-591 1.2275,-133 1.2275,-97.7513 -3.6826,-81.8993 20.2275,-56 34.6887,-40.3357 90.0985,-25.3251 126.1552,-16.9192"/>
<polygon fill="#191970" stroke="#191970" points="127.2365,-20.2626 136.2092,-14.6287 125.6815,-13.4375 127.2365,-20.2626"/>
</g>
<!-- Node3 -->
<g id="node4" class="node">
<title>Node3</title>
<g id="a_node4"><a xlink:href="_system_8h.html" target="_top" xlink:title="kryne&#45;engine/Core/System.h">
<polygon fill="#ffffff" stroke="#000000" points="1896.7275,-637.5 1896.7275,-656.5 2037.7275,-656.5 2037.7275,-637.5 1896.7275,-637.5"/>
<text text-anchor="middle" x="1967.2275" y="-644.5" font-family="Helvetica,sans-Serif" font-size="10.00" fill="#000000">kryne&#45;engine/Core/System.h</text>
</a>
</g>
</g>
<!-- Node1&#45;&gt;Node3 -->
<g id="edge3" class="edge">
<title>Node1&#45;&gt;Node3</title>
<path fill="none" stroke="#191970" d="M1032.773,-704.2971C1212.1189,-693.3003 1694.5868,-663.7173 1886.6962,-651.9379"/>
<polygon fill="#191970" stroke="#191970" points="1886.959,-655.4284 1896.726,-651.3229 1886.5305,-648.4415 1886.959,-655.4284"/>
</g>
<!-- Node4 -->
<g id="node5" class="node">
<title>Node4</title>
<polygon fill="#ffffff" stroke="#bfbfbf" points="1971.2275,-62 1971.2275,-81 2049.2275,-81 2049.2275,-62 1971.2275,-62"/>
<text text-anchor="middle" x="2010.2275" y="-69" font-family="Helvetica,sans-Serif" font-size="10.00" fill="#000000">unordered_set</text>
</g>
<!-- Node3&#45;&gt;Node4 -->
<g id="edge4" class="edge">
<title>Node3&#45;&gt;Node4</title>
<path fill="none" stroke="#191970" d="M2003.4574,-637.489C2070.9673,-618.6942 2209.2275,-574.6865 2209.2275,-529.5 2209.2275,-529.5 2209.2275,-529.5 2209.2275,-194.5 2209.2275,-158.3023 2198.112,-146.081 2170.2275,-123 2153.0947,-108.8185 2099.6378,-93.2663 2059.1885,-83.0037"/>
<polygon fill="#191970" stroke="#191970" points="2060.0263,-79.6055 2049.476,-80.5768 2058.3292,-86.3967 2060.0263,-79.6055"/>
</g>
<!-- Node5 -->
<g id="node6" class="node">
<title>Node5</title>
<g id="a_node6"><a xlink:href="_system_types_8h.html" target="_top" xlink:title="kryne&#45;engine/enums\l/SystemTypes.h">
<polygon fill="#ffffff" stroke="#000000" points="1915.2275,-514.5 1915.2275,-544.5 2019.2275,-544.5 2019.2275,-514.5 1915.2275,-514.5"/>
<text text-anchor="start" x="1923.2275" y="-532.5" font-family="Helvetica,sans-Serif" font-size="10.00" fill="#000000">kryne&#45;engine/enums</text>
<text text-anchor="middle" x="1967.2275" y="-521.5" font-family="Helvetica,sans-Serif" font-size="10.00" fill="#000000">/SystemTypes.h</text>
</a>
</g>
</g>
<!-- Node3&#45;&gt;Node5 -->
<g id="edge5" class="edge">
<title>Node3&#45;&gt;Node5</title>
<path fill="none" stroke="#191970" d="M1967.2275,-637.3845C1967.2275,-619.544 1967.2275,-580.7839 1967.2275,-554.9138"/>
<polygon fill="#191970" stroke="#191970" points="1970.7276,-554.7143 1967.2275,-544.7143 1963.7276,-554.7143 1970.7276,-554.7143"/>
</g>
<!-- Node6 -->
<g id="node7" class="node">
<title>Node6</title>
<g id="a_node7"><a xlink:href="_process_8h.html" target="_top" xlink:title="Process.h">
<polygon fill="#ffffff" stroke="#000000" points="1103.7275,-581.5 1103.7275,-600.5 1164.7275,-600.5 1164.7275,-581.5 1103.7275,-581.5"/>
<text text-anchor="middle" x="1134.2275" y="-588.5" font-family="Helvetica,sans-Serif" font-size="10.00" fill="#000000">Process.h</text>
</a>
</g>
</g>
<!-- Node3&#45;&gt;Node6 -->
<g id="edge6" class="edge">
<title>Node3&#45;&gt;Node6</title>
<path fill="none" stroke="#191970" d="M1896.5902,-642.5119C1728.2953,-631.469 1308.1037,-603.2066 1175.1612,-593.9699"/>
<polygon fill="#191970" stroke="#191970" points="1175.2223,-590.4657 1165.0031,-593.262 1174.7356,-597.4488 1175.2223,-590.4657"/>
</g>
<!-- Node28 -->
<g id="node23" class="node">
<title>Node28</title>
<g id="a_node23"><a xlink:href="_entity_8h.html" target="_top" xlink:title="Entity.h">
<polygon fill="#ffffff" stroke="#000000" points="1285.2275,-252 1285.2275,-271 1335.2275,-271 1335.2275,-252 1285.2275,-252"/>
<text text-anchor="middle" x="1310.2275" y="-259" font-family="Helvetica,sans-Serif" font-size="10.00" fill="#000000">Entity.h</text>
</a>
</g>
</g>
<!-- Node3&#45;&gt;Node28 -->
<g id="edge99" class="edge">
<title>Node3&#45;&gt;Node28</title>
<path fill="none" stroke="#191970" d="M1978.1843,-637.3326C2002.7611,-614.4736 2057.8888,-555.873 2028.2275,-514 1944.5666,-395.8954 1478.3133,-295.0226 1345.5237,-268.3753"/>
<polygon fill="#191970" stroke="#191970" points="1345.9744,-264.8964 1335.4833,-266.3748 1344.6065,-271.7614 1345.9744,-264.8964"/>
</g>
<!-- Node41 -->
<g id="node36" class="node">
<title>Node41</title>
<g id="a_node36"><a xlink:href="_scene_8h.html" target="_top" xlink:title="Scene.h">
<polygon fill="#ffffff" stroke="#000000" points="2089.7275,-123.5 2089.7275,-142.5 2142.7275,-142.5 2142.7275,-123.5 2089.7275,-123.5"/>
<text text-anchor="middle" x="2116.2275" y="-130.5" font-family="Helvetica,sans-Serif" font-size="10.00" fill="#000000">Scene.h</text>
</a>
</g>
</g>
<!-- Node3&#45;&gt;Node41 -->
<g id="edge100" class="edge">
<title>Node3&#45;&gt;Node41</title>
<path fill="none" stroke="#191970" d="M1992.2111,-637.3847C2029.4614,-621.2239 2095.2275,-584.8537 2095.2275,-529.5 2095.2275,-529.5 2095.2275,-529.5 2095.2275,-261.5 2095.2275,-222.3148 2104.8564,-177.2778 2111.074,-152.281"/>
<polygon fill="#191970" stroke="#191970" points="2114.4666,-153.1409 2113.5679,-142.5843 2107.6873,-151.3973 2114.4666,-153.1409"/>
</g>
<!-- Node6&#45;&gt;Node3 -->
<g id="edge64" class="edge">
<title>Node6&#45;&gt;Node3</title>
<path fill="none" stroke="#191970" d="M1164.8361,-592.8802C1282.4816,-600.4624 1707.1314,-628.9734 1886.4718,-641.2828"/>
<polygon fill="#191970" stroke="#191970" points="1886.4184,-644.7873 1896.6349,-641.9811 1886.8983,-637.8038 1886.4184,-644.7873"/>
</g>
<!-- Node6&#45;&gt;Node4 -->
<g id="edge9" class="edge">
<title>Node6&#45;&gt;Node4</title>
<path fill="none" stroke="#191970" d="M1164.9705,-587.3953C1296.4478,-570.4611 1818.2407,-487.5945 2115.2275,-210 2145.9242,-181.3077 2176.3479,-157.4055 2152.2275,-123 2141.1507,-107.1998 2095.8833,-92.5465 2059.3953,-82.9429"/>
<polygon fill="#191970" stroke="#191970" points="2059.9285,-79.4664 2049.3724,-80.3714 2058.1888,-86.2468 2059.9285,-79.4664"/>
</g>
<!-- Node6&#45;&gt;Node5 -->
<g id="edge12" class="edge">
<title>Node6&#45;&gt;Node5</title>
<path fill="none" stroke="#191970" d="M1165.1388,-589.8523C1289.7357,-585.117 1755.3746,-566.3406 1901.2275,-545 1902.505,-544.8131 1903.7941,-544.6137 1905.0916,-544.4034"/>
<polygon fill="#191970" stroke="#191970" points="1905.9226,-547.8102 1915.1466,-542.5979 1904.6854,-540.9204 1905.9226,-547.8102"/>
</g>
<!-- Node7 -->
<g id="node8" class="node">
<title>Node7</title>
<polygon fill="#ffffff" stroke="#bfbfbf" points="685.2275,-.5 685.2275,-19.5 737.2275,-19.5 737.2275,-.5 685.2275,-.5"/>
<text text-anchor="middle" x="711.2275" y="-7.5" font-family="Helvetica,sans-Serif" font-size="10.00" fill="#000000">memory</text>
</g>
<!-- Node6&#45;&gt;Node7 -->
<g id="edge7" class="edge">
<title>Node6&#45;&gt;Node7</title>
<path fill="none" stroke="#191970" d="M1164.9144,-588.5544C1224.7585,-583.4078 1361.0167,-569.836 1473.2275,-545 1756.4058,-482.3231 1838.4706,-454.0031 2068.2275,-277 2164.2885,-202.9953 2312.6631,-143.0347 2228.2275,-56 2201.6027,-28.5556 975.3436,-13.0538 747.4654,-10.4075"/>
<polygon fill="#191970" stroke="#191970" points="747.4172,-6.9068 737.3774,-10.2912 747.3364,-13.9064 747.4172,-6.9068"/>
</g>
<!-- Node8 -->
<g id="node9" class="node">
<title>Node8</title>
<polygon fill="#ffffff" stroke="#bfbfbf" points="383.7275,-252 383.7275,-271 466.7275,-271 466.7275,-252 383.7275,-252"/>
<text text-anchor="middle" x="425.2275" y="-259" font-family="Helvetica,sans-Serif" font-size="10.00" fill="#000000">unordered_map</text>
</g>
<!-- Node6&#45;&gt;Node8 -->
<g id="edge8" class="edge">
<title>Node6&#45;&gt;Node8</title>
<path fill="none" stroke="#191970" d="M1103.6733,-590.5625C1027.8589,-588.9321 825.3797,-581.2398 661.2275,-545 553.1367,-521.1368 426.2275,-573.1937 426.2275,-462.5 426.2275,-462.5 426.2275,-462.5 426.2275,-395.5 426.2275,-354.9688 425.7644,-307.5436 425.4685,-281.3792"/>
<polygon fill="#191970" stroke="#191970" points="428.9668,-281.21 425.3502,-271.2516 421.9673,-281.2918 428.9668,-281.21"/>
</g>
<!-- Node9 -->
<g id="node10" class="node">
<title>Node9</title>
<polygon fill="#ffffff" stroke="#bfbfbf" points="309.2275,-.5 309.2275,-19.5 363.2275,-19.5 363.2275,-.5 309.2275,-.5"/>
<text text-anchor="middle" x="336.2275" y="-7.5" font-family="Helvetica,sans-Serif" font-size="10.00" fill="#000000">iostream</text>
</g>
<!-- Node6&#45;&gt;Node9 -->
<g id="edge10" class="edge">
<title>Node6&#45;&gt;Node9</title>
<path fill="none" stroke="#191970" d="M1103.6466,-590.3111C951.696,-586.7802 281.6418,-569.906 192.2275,-545 117.805,-524.2699 39.2275,-539.7557 39.2275,-462.5 39.2275,-462.5 39.2275,-462.5 39.2275,-261.5 39.2275,-194.5919 46.9205,-165.9451 98.2275,-123 160.0822,-71.2262 249.6581,-37.16 299.41,-20.9738"/>
<polygon fill="#191970" stroke="#191970" points="300.6394,-24.2555 309.1036,-17.8831 298.5129,-17.5863 300.6394,-24.2555"/>
</g>
<!-- Node10 -->
<g id="node11" class="node">
<title>Node10</title>
<polygon fill="#ffffff" stroke="#bfbfbf" points="1347.7275,-520 1347.7275,-539 1388.7275,-539 1388.7275,-520 1347.7275,-520"/>
<text text-anchor="middle" x="1368.2275" y="-527" font-family="Helvetica,sans-Serif" font-size="10.00" fill="#000000">stack</text>
</g>
<!-- Node6&#45;&gt;Node10 -->
<g id="edge11" class="edge">
<title>Node6&#45;&gt;Node10</title>
<path fill="none" stroke="#191970" d="M1165.0676,-585.7519C1204.6145,-578.597 1275.0359,-564.4154 1333.2275,-545 1335.1187,-544.369 1337.0473,-543.6731 1338.9786,-542.936"/>
<polygon fill="#191970" stroke="#191970" points="1340.5808,-546.0615 1348.4963,-539.0191 1337.9167,-539.5883 1340.5808,-546.0615"/>
</g>
<!-- Node11 -->
<g id="node12" class="node">
<title>Node11</title>
<g id="a_node12"><a xlink:href="_dispatcher_8h.html" target="_top" xlink:title="kryne&#45;engine/Dispatch\l/Dispatcher.h">
<polygon fill="#ffffff" stroke="#000000" points="99.2275,-246.5 99.2275,-276.5 213.2275,-276.5 213.2275,-246.5 99.2275,-246.5"/>
<text text-anchor="start" x="107.2275" y="-264.5" font-family="Helvetica,sans-Serif" font-size="10.00" fill="#000000">kryne&#45;engine/Dispatch</text>
<text text-anchor="middle" x="156.2275" y="-253.5" font-family="Helvetica,sans-Serif" font-size="10.00" fill="#000000">/Dispatcher.h</text>
</a>
</g>
</g>
<!-- Node6&#45;&gt;Node11 -->
<g id="edge13" class="edge">
<title>Node6&#45;&gt;Node11</title>
<path fill="none" stroke="#191970" d="M1103.4244,-589.9538C986.4039,-585.8254 569.4734,-569.6751 439.2275,-545 320.5291,-522.5126 180.2275,-583.3098 180.2275,-462.5 180.2275,-462.5 180.2275,-462.5 180.2275,-395.5 180.2275,-356.9008 170.4594,-313.0131 163.3867,-286.2948"/>
<polygon fill="#191970" stroke="#191970" points="166.7538,-285.3387 160.7417,-276.6149 160.0014,-287.1838 166.7538,-285.3387"/>
</g>
<!-- Node23 -->
<g id="node18" class="node">
<title>Node23</title>
<g id="a_node18"><a xlink:href="_unique_ptr_vector_8hpp.html" target="_top" xlink:title="kryne&#45;engine/Utils\l/UniquePtrVector.hpp">
<polygon fill="#ffffff" stroke="#000000" points="559.2275,-380.5 559.2275,-410.5 669.2275,-410.5 669.2275,-380.5 559.2275,-380.5"/>
<text text-anchor="start" x="567.2275" y="-398.5" font-family="Helvetica,sans-Serif" font-size="10.00" fill="#000000">kryne&#45;engine/Utils</text>
<text text-anchor="middle" x="614.2275" y="-387.5" font-family="Helvetica,sans-Serif" font-size="10.00" fill="#000000">/UniquePtrVector.hpp</text>
</a>
</g>
</g>
<!-- Node6&#45;&gt;Node23 -->
<g id="edge25" class="edge">
<title>Node6&#45;&gt;Node23</title>
<path fill="none" stroke="#191970" d="M1103.4556,-589.2046C1029.3156,-584.5187 842.7588,-570.4813 786.2275,-545 720.7219,-515.4735 661.5956,-452.6018 632.7642,-418.5555"/>
<polygon fill="#191970" stroke="#191970" points="635.1916,-416.001 626.1015,-410.5585 629.8136,-420.4818 635.1916,-416.001"/>
</g>
<!-- Node25 -->
<g id="node20" class="node">
<title>Node25</title>
<g id="a_node20"><a xlink:href="_frame_time_8hpp.html" target="_top" xlink:title="kryne&#45;engine/Utils\l/FrameTime.hpp">
<polygon fill="#ffffff" stroke="#000000" points="1061.7275,-313.5 1061.7275,-343.5 1156.7275,-343.5 1156.7275,-313.5 1061.7275,-313.5"/>
<text text-anchor="start" x="1069.7275" y="-331.5" font-family="Helvetica,sans-Serif" font-size="10.00" fill="#000000">kryne&#45;engine/Utils</text>
<text text-anchor="middle" x="1109.2275" y="-320.5" font-family="Helvetica,sans-Serif" font-size="10.00" fill="#000000">/FrameTime.hpp</text>
</a>
</g>
</g>
<!-- Node6&#45;&gt;Node25 -->
<g id="edge28" class="edge">
<title>Node6&#45;&gt;Node25</title>
<path fill="none" stroke="#191970" d="M1144.1637,-581.4913C1152.4035,-572.8654 1163.5042,-559.3368 1168.2275,-545 1172.5387,-531.9141 1170.3405,-527.6148 1168.2275,-514 1158.9818,-454.4268 1133.9722,-387.8036 1119.658,-352.8836"/>
<polygon fill="#191970" stroke="#191970" points="1122.8297,-351.3952 1115.7572,-343.5065 1116.3666,-354.0838 1122.8297,-351.3952"/>
</g>
<!-- Node6&#45;&gt;Node28 -->
<g id="edge32" class="edge">
<title>Node6&#45;&gt;Node28</title>
<path fill="none" stroke="#191970" d="M1164.8758,-582.0072C1213.2463,-566.8599 1301.2275,-530.9777 1301.2275,-462.5 1301.2275,-462.5 1301.2275,-462.5 1301.2275,-395.5 1301.2275,-354.9699 1301.2275,-307.5443 1304.0642,-281.3795"/>
<polygon fill="#191970" stroke="#191970" points="1307.5615,-281.6478 1305.5191,-271.2517 1300.6326,-280.6524 1307.5615,-281.6478"/>
</g>
<!-- Node52 -->
<g id="node40" class="node">
<title>Node52</title>
<g id="a_node40"><a xlink:href="_graphic_context_8h.html" target="_top" xlink:title="GraphicContext/GraphicContext.h">
<polygon fill="#ffffff" stroke="#000000" points="819.2275,-520 819.2275,-539 983.2275,-539 983.2275,-520 819.2275,-520"/>
<text text-anchor="middle" x="901.2275" y="-527" font-family="Helvetica,sans-Serif" font-size="10.00" fill="#000000">GraphicContext/GraphicContext.h</text>
</a>
</g>
</g>
<!-- Node6&#45;&gt;Node52 -->
<g id="edge65" class="edge">
<title>Node6&#45;&gt;Node52</title>
<path fill="none" stroke="#191970" d="M1103.2869,-582.8333C1063.2681,-572.2704 993.23,-553.7839 947.0356,-541.591"/>
<polygon fill="#191970" stroke="#191970" points="947.8356,-538.1823 937.2735,-539.0143 946.0491,-544.9505 947.8356,-538.1823"/>
</g>
<!-- Node72 -->
<g id="node47" class="node">
<title>Node72</title>
<g id="a_node47"><a xlink:href="_render_mesh_8h.html" target="_top" xlink:title="kryne&#45;engine/Rendering\l/RenderMesh.h">
<polygon fill="#ffffff" stroke="#000000" points="725.7275,-380.5 725.7275,-410.5 844.7275,-410.5 844.7275,-380.5 725.7275,-380.5"/>
<text text-anchor="start" x="733.7275" y="-398.5" font-family="Helvetica,sans-Serif" font-size="10.00" fill="#000000">kryne&#45;engine/Rendering</text>
<text text-anchor="middle" x="785.2275" y="-387.5" font-family="Helvetica,sans-Serif" font-size="10.00" fill="#000000">/RenderMesh.h</text>
</a>
</g>
</g>
<!-- Node6&#45;&gt;Node72 -->
<g id="edge96" class="edge">
<title>Node6&#45;&gt;Node72</title>
<path fill="none" stroke="#191970" d="M1103.5367,-588.6936C1026.7731,-582.6413 831.0942,-565.3584 810.2275,-545 777.2283,-512.8046 777.6869,-454.658 781.2642,-421.1585"/>
<polygon fill="#191970" stroke="#191970" points="784.7896,-421.1719 782.5531,-410.8158 777.8433,-420.3062 784.7896,-421.1719"/>
</g>
<!-- Node98 -->
<g id="node50" class="node">
<title>Node98</title>
<g id="a_node50"><a xlink:href="_u_i_renderer_8hpp.html" target="_top" xlink:title="kryne&#45;engine/UI/UIRenderer.hpp">
<polygon fill="#ffffff" stroke="#000000" points="1001.2275,-520 1001.2275,-539 1159.2275,-539 1159.2275,-520 1001.2275,-520"/>
<text text-anchor="middle" x="1080.2275" y="-527" font-family="Helvetica,sans-Serif" font-size="10.00" fill="#000000">kryne&#45;engine/UI/UIRenderer.hpp</text>
</a>
</g>
</g>
<!-- Node6&#45;&gt;Node98 -->
<g id="edge97" class="edge">
<title>Node6&#45;&gt;Node98</title>
<path fill="none" stroke="#191970" d="M1120.7275,-581.3906C1111.001,-572.3273 1098.4946,-558.5149 1089.7631,-547.4188"/>
<polygon fill="#191970" stroke="#191970" points="1092.4662,-545.188 1083.6952,-539.2449 1086.8456,-549.3605 1092.4662,-545.188"/>
</g>
<!-- Node12 -->
<g id="node13" class="node">
<title>Node12</title>
<g id="a_node13"><a xlink:href="_synchronizable_pool_8h.html" target="_top" xlink:title="SynchronizablePool.h">
<polygon fill="#ffffff" stroke="#000000" points="107.7275,-123.5 107.7275,-142.5 218.7275,-142.5 218.7275,-123.5 107.7275,-123.5"/>
<text text-anchor="middle" x="163.2275" y="-130.5" font-family="Helvetica,sans-Serif" font-size="10.00" fill="#000000">SynchronizablePool.h</text>
</a>
</g>
</g>
<!-- Node11&#45;&gt;Node12 -->
<g id="edge14" class="edge">
<title>Node11&#45;&gt;Node12</title>
<path fill="none" stroke="#191970" d="M157.058,-246.2548C158.3262,-222.9744 160.7456,-178.5607 162.1483,-152.8117"/>
<polygon fill="#191970" stroke="#191970" points="165.648,-152.9114 162.6972,-142.7358 158.6583,-152.5306 165.648,-152.9114"/>
</g>
<!-- Node20 -->
<g id="node15" class="node">
<title>Node20</title>
<g id="a_node15"><a xlink:href="_runner_pool_8h.html" target="_top" xlink:title="RunnerPool.h">
<polygon fill="#ffffff" stroke="#000000" points="189.2275,-185 189.2275,-204 265.2275,-204 265.2275,-185 189.2275,-185"/>
<text text-anchor="middle" x="227.2275" y="-192" font-family="Helvetica,sans-Serif" font-size="10.00" fill="#000000">RunnerPool.h</text>
</a>
</g>
</g>
<!-- Node11&#45;&gt;Node20 -->
<g id="edge19" class="edge">
<title>Node11&#45;&gt;Node20</title>
<path fill="none" stroke="#191970" d="M172.3385,-246.2967C183.5081,-235.7564 198.3716,-221.7303 209.8142,-210.9323"/>
<polygon fill="#191970" stroke="#191970" points="212.2313,-213.4638 217.1021,-204.055 207.427,-208.3727 212.2313,-213.4638"/>
</g>
<!-- Node21 -->
<g id="node16" class="node">
<title>Node21</title>
<g id="a_node16"><a xlink:href="_main_pool_8h.html" target="_top" xlink:title="MainPool.h">
<polygon fill="#ffffff" stroke="#000000" points="67.7275,-185 67.7275,-204 132.7275,-204 132.7275,-185 67.7275,-185"/>
<text text-anchor="middle" x="100.2275" y="-192" font-family="Helvetica,sans-Serif" font-size="10.00" fill="#000000">MainPool.h</text>
</a>
</g>
</g>
<!-- Node11&#45;&gt;Node21 -->
<g id="edge21" class="edge">
<title>Node11&#45;&gt;Node21</title>
<path fill="none" stroke="#191970" d="M143.5203,-246.2967C134.9646,-236.0605 123.6611,-222.5366 114.7496,-211.8746"/>
<polygon fill="#191970" stroke="#191970" points="117.3124,-209.4832 108.2138,-204.055 111.9414,-213.9724 117.3124,-209.4832"/>
</g>
<!-- Node13 -->
<g id="node14" class="node">
<title>Node13</title>
<g id="a_node14"><a xlink:href="_thread_pool_8h.html" target="_top" xlink:title="ThreadPool.h">
<polygon fill="#ffffff" stroke="#ff0000" points="267.2275,-62 267.2275,-81 341.2275,-81 341.2275,-62 267.2275,-62"/>
<text text-anchor="middle" x="304.2275" y="-69" font-family="Helvetica,sans-Serif" font-size="10.00" fill="#000000">ThreadPool.h</text>
</a>
</g>
</g>
<!-- Node12&#45;&gt;Node13 -->
<g id="edge15" class="edge">
<title>Node12&#45;&gt;Node13</title>
<path fill="none" stroke="#191970" d="M185.2588,-123.3906C208.8507,-113.1005 246.4776,-96.6888 273.0908,-85.0809"/>
<polygon fill="#191970" stroke="#191970" points="274.5842,-88.248 282.351,-81.0419 271.7856,-81.8318 274.5842,-88.248"/>
</g>
<!-- Node13&#45;&gt;Node2 -->
<g id="edge16" class="edge">
<title>Node13&#45;&gt;Node2</title>
<path fill="none" stroke="#191970" d="M281.415,-61.8906C256.7359,-51.495 217.2244,-34.8514 189.6238,-23.2252"/>
<polygon fill="#191970" stroke="#191970" points="190.9763,-19.997 180.4018,-19.3405 188.2588,-26.4481 190.9763,-19.997"/>
</g>
<!-- Node13&#45;&gt;Node7 -->
<g id="edge17" class="edge">
<title>Node13&#45;&gt;Node7</title>
<path fill="none" stroke="#191970" d="M341.4279,-64.7755C357.3621,-61.9589 376.1902,-58.7153 393.2275,-56 495.3437,-39.7255 616.3098,-22.9009 675.2853,-14.856"/>
<polygon fill="#191970" stroke="#191970" points="675.7837,-18.3205 685.2203,-13.5039 674.8396,-11.3845 675.7837,-18.3205"/>
</g>
<!-- Node13&#45;&gt;Node9 -->
<g id="edge18" class="edge">
<title>Node13&#45;&gt;Node9</title>
<path fill="none" stroke="#191970" d="M309.2275,-61.8906C313.8033,-53.0965 320.7056,-39.8312 326.3858,-28.9145"/>
<polygon fill="#191970" stroke="#191970" points="329.646,-30.2314 331.157,-19.7449 323.4363,-27.0003 329.646,-30.2314"/>
</g>
<!-- Node20&#45;&gt;Node13 -->
<g id="edge20" class="edge">
<title>Node20&#45;&gt;Node13</title>
<path fill="none" stroke="#191970" d="M233.2696,-184.8484C246.0892,-164.3703 276.1933,-116.282 292.7738,-89.7962"/>
<polygon fill="#191970" stroke="#191970" points="295.874,-91.4401 298.2135,-81.1068 289.9407,-87.7257 295.874,-91.4401"/>
</g>
<!-- Node21&#45;&gt;Node12 -->
<g id="edge24" class="edge">
<title>Node21&#45;&gt;Node12</title>
<path fill="none" stroke="#191970" d="M110.0713,-184.8906C119.6314,-175.5581 134.3498,-161.1902 145.877,-149.9374"/>
<polygon fill="#191970" stroke="#191970" points="148.5341,-152.2348 153.245,-142.7449 143.6443,-147.2257 148.5341,-152.2348"/>
</g>
<!-- Node22 -->
<g id="node17" class="node">
<title>Node22</title>
<g id="a_node17"><a xlink:href="_multithreading_8hpp.html" target="_top" xlink:title="kryne&#45;engine/Utils\l/Multithreading.hpp">
<polygon fill="#ffffff" stroke="#000000" points="29.7275,-56.5 29.7275,-86.5 128.7275,-86.5 128.7275,-56.5 29.7275,-56.5"/>
<text text-anchor="start" x="37.7275" y="-74.5" font-family="Helvetica,sans-Serif" font-size="10.00" fill="#000000">kryne&#45;engine/Utils</text>
<text text-anchor="middle" x="79.2275" y="-63.5" font-family="Helvetica,sans-Serif" font-size="10.00" fill="#000000">/Multithreading.hpp</text>
</a>
</g>
</g>
<!-- Node21&#45;&gt;Node22 -->
<g id="edge22" class="edge">
<title>Node21&#45;&gt;Node22</title>
<path fill="none" stroke="#191970" d="M98.5797,-184.8484C95.3702,-166.0498 88.1883,-123.9842 83.5337,-96.7217"/>
<polygon fill="#191970" stroke="#191970" points="86.962,-96.0048 81.8289,-86.7365 80.0619,-97.1829 86.962,-96.0048"/>
</g>
<!-- Node22&#45;&gt;Node2 -->
<g id="edge23" class="edge">
<title>Node22&#45;&gt;Node2</title>
<path fill="none" stroke="#191970" d="M98.7556,-56.2977C110.5212,-47.1384 125.495,-35.4816 137.474,-26.1562"/>
<polygon fill="#191970" stroke="#191970" points="139.8378,-28.7516 145.5786,-19.8469 135.5378,-23.228 139.8378,-28.7516"/>
</g>
<!-- Node23&#45;&gt;Node7 -->
<g id="edge27" class="edge">
<title>Node23&#45;&gt;Node7</title>
<path fill="none" stroke="#191970" d="M559.0681,-391.2533C465.7764,-383.5067 285.0804,-365.8482 266.2275,-344 257.2265,-333.5689 263.2655,-326.4556 266.2275,-313 298.991,-164.1651 357.2532,-124.8206 493.2275,-56 552.336,-26.0835 629.9294,-15.6074 674.8177,-11.95"/>
<polygon fill="#191970" stroke="#191970" points="675.2441,-15.428 684.9567,-11.1953 674.7244,-8.4473 675.2441,-15.428"/>
</g>
<!-- Node24 -->
<g id="node19" class="node">
<title>Node24</title>
<polygon fill="#ffffff" stroke="#bfbfbf" points="815.2275,-123.5 815.2275,-142.5 859.2275,-142.5 859.2275,-123.5 815.2275,-123.5"/>
<text text-anchor="middle" x="837.2275" y="-130.5" font-family="Helvetica,sans-Serif" font-size="10.00" fill="#000000">vector</text>
</g>
<!-- Node23&#45;&gt;Node24 -->
<g id="edge26" class="edge">
<title>Node23&#45;&gt;Node24</title>
<path fill="none" stroke="#191970" d="M666.0013,-380.3774C713.4009,-363.5227 780.9302,-331.2426 813.2275,-277 836.6938,-237.589 838.9759,-181.9344 838.2981,-152.6989"/>
<polygon fill="#191970" stroke="#191970" points="841.7899,-152.4134 837.9144,-142.5528 834.7949,-152.678 841.7899,-152.4134"/>
</g>
<!-- Node25&#45;&gt;Node8 -->
<g id="edge30" class="edge">
<title>Node25&#45;&gt;Node8</title>
<path fill="none" stroke="#191970" d="M1061.3832,-324.2579C945.2169,-313.9288 650.5983,-287.5483 552.2275,-277 527.521,-274.3507 500.1561,-271.057 477.1738,-268.188"/>
<polygon fill="#191970" stroke="#191970" points="477.3064,-264.6773 466.9481,-266.9036 476.4339,-271.6227 477.3064,-264.6773"/>
</g>
<!-- Node26 -->
<g id="node21" class="node">
<title>Node26</title>
<polygon fill="#ffffff" stroke="#bfbfbf" points="1093.2275,-252 1093.2275,-271 1139.2275,-271 1139.2275,-252 1093.2275,-252"/>
<text text-anchor="middle" x="1116.2275" y="-259" font-family="Helvetica,sans-Serif" font-size="10.00" fill="#000000">chrono</text>
</g>
<!-- Node25&#45;&gt;Node26 -->
<g id="edge29" class="edge">
<title>Node25&#45;&gt;Node26</title>
<path fill="none" stroke="#191970" d="M1110.8159,-313.2967C1111.8113,-303.7699 1113.1041,-291.3954 1114.1766,-281.1306"/>
<polygon fill="#191970" stroke="#191970" points="1117.6711,-281.3646 1115.2293,-271.055 1110.709,-280.6371 1117.6711,-281.3646"/>
</g>
<!-- Node27 -->
<g id="node22" class="node">
<title>Node27</title>
<polygon fill="#ffffff" stroke="#bfbfbf" points="877.7275,-123.5 877.7275,-142.5 918.7275,-142.5 918.7275,-123.5 877.7275,-123.5"/>
<text text-anchor="middle" x="898.2275" y="-130.5" font-family="Helvetica,sans-Serif" font-size="10.00" fill="#000000">string</text>
</g>
<!-- Node25&#45;&gt;Node27 -->
<g id="edge31" class="edge">
<title>Node25&#45;&gt;Node27</title>
<path fill="none" stroke="#191970" d="M1101.6341,-313.2497C1096.5969,-303.0387 1089.8955,-289.2709 1084.2275,-277 1064.2827,-233.8199 1076.5798,-210.8204 1041.2275,-179 1004.2698,-145.7346 981.0774,-157.7307 928.6427,-142.8991"/>
<polygon fill="#191970" stroke="#191970" points="929.4584,-139.4888 918.8724,-139.9218 927.4179,-146.1848 929.4584,-139.4888"/>
</g>
<!-- Node28&#45;&gt;Node2 -->
<g id="edge36" class="edge">
<title>Node28&#45;&gt;Node2</title>
<path fill="none" stroke="#191970" d="M1285.0057,-259.0015C1144.0354,-244.7858 453.0387,-171.7355 258.2275,-87 225.147,-72.6112 193.2561,-44.883 174.7066,-26.9239"/>
<polygon fill="#191970" stroke="#191970" points="176.9532,-24.2226 167.3875,-19.6677 172.0249,-29.1937 176.9532,-24.2226"/>
</g>
<!-- Node28&#45;&gt;Node4 -->
<g id="edge35" class="edge">
<title>Node28&#45;&gt;Node4</title>
<path fill="none" stroke="#191970" d="M1335.2657,-259.3534C1458.3211,-248.5569 1994.9789,-198.5126 2042.2275,-143 2055.8888,-126.9493 2041.2802,-104.1269 2027.6242,-88.6151"/>
<polygon fill="#191970" stroke="#191970" points="2030.1138,-86.153 2020.7246,-81.2443 2025.0033,-90.9368 2030.1138,-86.153"/>
</g>
<!-- Node28&#45;&gt;Node6 -->
<g id="edge63" class="edge">
<title>Node28&#45;&gt;Node6</title>
<path fill="none" stroke="#191970" d="M1314.936,-271.2517C1319.2275,-293.357 1319.2275,-348.9722 1319.2275,-395.5 1319.2275,-462.5 1319.2275,-462.5 1319.2275,-462.5 1319.2275,-531.7735 1229.1895,-567.6895 1174.6193,-582.5269"/>
<polygon fill="#191970" stroke="#191970" points="1173.6731,-579.1564 1164.8723,-585.0554 1175.4308,-585.9322 1173.6731,-579.1564"/>
</g>
<!-- Node28&#45;&gt;Node24 -->
<g id="edge34" class="edge">
<title>Node28&#45;&gt;Node24</title>
<path fill="none" stroke="#191970" d="M1285.0588,-255.4415C1248.7729,-246.5186 1179.7958,-228.8508 1122.2275,-210 1085.5951,-198.0046 1078.2154,-189.8502 1041.2275,-179 968.9581,-157.8 946.0236,-162.6238 869.6016,-143.1352"/>
<polygon fill="#191970" stroke="#191970" points="870.0541,-139.6361 859.4943,-140.4972 868.2863,-146.4092 870.0541,-139.6361"/>
</g>
<!-- Node29 -->
<g id="node24" class="node">
<title>Node29</title>
<polygon fill="#ffffff" stroke="#bfbfbf" points="1403.2275,-185 1403.2275,-204 1449.2275,-204 1449.2275,-185 1403.2275,-185"/>
<text text-anchor="middle" x="1426.2275" y="-192" font-family="Helvetica,sans-Serif" font-size="10.00" fill="#000000">atomic</text>
</g>
<!-- Node28&#45;&gt;Node29 -->
<g id="edge33" class="edge">
<title>Node28&#45;&gt;Node29</title>
<path fill="none" stroke="#191970" d="M1326.8475,-251.9005C1346.2288,-240.7062 1378.4731,-222.0823 1400.9591,-209.0947"/>
<polygon fill="#191970" stroke="#191970" points="1402.7296,-212.114 1409.6384,-204.0817 1399.2285,-206.0525 1402.7296,-212.114"/>
</g>
<!-- Node30 -->
<g id="node25" class="node">
<title>Node30</title>
<polygon fill="#ffffff" stroke="#bfbfbf" points="937.2275,-123.5 937.2275,-142.5 985.2275,-142.5 985.2275,-123.5 937.2275,-123.5"/>
<text text-anchor="middle" x="961.2275" y="-130.5" font-family="Helvetica,sans-Serif" font-size="10.00" fill="#000000">imgui.h</text>
</g>
<!-- Node28&#45;&gt;Node30 -->
<g id="edge37" class="edge">
<title>Node28&#45;&gt;Node30</title>
<path fill="none" stroke="#191970" d="M1299.658,-251.7399C1277.0108,-230.9135 1225.0593,-183.6301 1215.2275,-179 1127.1783,-137.5352 1094.3885,-163.4058 999.2275,-143 997.9519,-142.7265 996.6547,-142.438 995.3464,-142.1383"/>
<polygon fill="#191970" stroke="#191970" points="995.8142,-138.65 985.27,-139.6845 994.1579,-145.4512 995.8142,-138.65"/>
</g>
<!-- Node31 -->
<g id="node26" class="node">
<title>Node31</title>
<g id="a_node26"><a xlink:href="_transform_8h.html" target="_top" xlink:title="kryne&#45;engine/3DObjects\l/Transform.h">
<polygon fill="#ffffff" stroke="#000000" points="1263.2275,-179.5 1263.2275,-209.5 1385.2275,-209.5 1385.2275,-179.5 1263.2275,-179.5"/>
<text text-anchor="start" x="1271.2275" y="-197.5" font-family="Helvetica,sans-Serif" font-size="10.00" fill="#000000">kryne&#45;engine/3DObjects</text>
<text text-anchor="middle" x="1324.2275" y="-186.5" font-family="Helvetica,sans-Serif" font-size="10.00" fill="#000000">/Transform.h</text>
</a>
</g>
</g>
<!-- Node28&#45;&gt;Node31 -->
<g id="edge38" class="edge">
<title>Node28&#45;&gt;Node31</title>
<path fill="none" stroke="#191970" d="M1307.3328,-251.9005C1307.4622,-243.4234 1309.5752,-230.6856 1312.4862,-219.3614"/>
<polygon fill="#191970" stroke="#191970" points="1315.9159,-220.1015 1315.3499,-209.5218 1309.1948,-218.1453 1315.9159,-220.1015"/>
</g>
<!-- Node51 -->
<g id="node39" class="node">
<title>Node51</title>
<g id="a_node39"><a xlink:href="_component_8h.html" target="_top" xlink:title="Component.h">
<polygon fill="#ffffff" stroke="#000000" points="1131.7275,-185 1131.7275,-204 1206.7275,-204 1206.7275,-185 1131.7275,-185"/>
<text text-anchor="middle" x="1169.2275" y="-192" font-family="Helvetica,sans-Serif" font-size="10.00" fill="#000000">Component.h</text>
</a>
</g>
</g>
<!-- Node28&#45;&gt;Node51 -->
<g id="edge58" class="edge">
<title>Node28&#45;&gt;Node51</title>
<path fill="none" stroke="#191970" d="M1285.1251,-251.9005C1259.1698,-240.6067 1219.2408,-221.7506 1193.5745,-208.7497"/>
<polygon fill="#191970" stroke="#191970" points="1194.9886,-205.5413 1184.4948,-204.0817 1191.7879,-211.7668 1194.9886,-205.5413"/>
</g>
<!-- Node31&#45;&gt;Node7 -->
<g id="edge39" class="edge">
<title>Node31&#45;&gt;Node7</title>
<path fill="none" stroke="#191970" d="M1262.8746,-181.7897C1257.9232,-180.8242 1252.9942,-179.883 1248.2275,-179 1152.5314,-161.2728 1124.4627,-174.0593 1032.2275,-143 1014.1402,-136.9093 1011.5579,-130.994 994.2275,-123 906.944,-82.7386 801.0037,-42.7065 746.8556,-22.8587"/>
<polygon fill="#191970" stroke="#191970" points="747.9578,-19.5351 737.3639,-19.392 745.5563,-26.1103 747.9578,-19.5351"/>
</g>
<!-- Node31&#45;&gt;Node24 -->
<g id="edge40" class="edge">
<title>Node31&#45;&gt;Node24</title>
<path fill="none" stroke="#191970" d="M1263.1734,-185.4025C1247.5579,-183.1899 1230.7839,-180.9123 1215.2275,-179 1064.6422,-160.4886 1021.7753,-174.35 869.6116,-142.9117"/>
<polygon fill="#191970" stroke="#191970" points="869.9341,-139.4032 859.4284,-140.7746 868.4963,-146.254 869.9341,-139.4032"/>
</g>
<!-- Node31&#45;&gt;Node28 -->
<g id="edge57" class="edge">
<title>Node31&#45;&gt;Node28</title>
<path fill="none" stroke="#191970" d="M1326.8274,-209.5218C1325.9848,-219.2463 1323.4613,-231.9939 1320.3714,-242.4311"/>
<polygon fill="#191970" stroke="#191970" points="1317.0572,-241.306 1317.134,-251.9005 1323.6808,-243.5705 1317.0572,-241.306"/>
</g>
<!-- Node18 -->
<g id="node27" class="node">
<title>Node18</title>
<polygon fill="#ffffff" stroke="#bfbfbf" points="1989.7275,-123.5 1989.7275,-142.5 2032.7275,-142.5 2032.7275,-123.5 1989.7275,-123.5"/>
<text text-anchor="middle" x="2011.2275" y="-130.5" font-family="Helvetica,sans-Serif" font-size="10.00" fill="#000000">queue</text>
</g>
<!-- Node31&#45;&gt;Node18 -->
<g id="edge41" class="edge">
<title>Node31&#45;&gt;Node18</title>
<path fill="none" stroke="#191970" d="M1385.5886,-180.3431C1388.502,-179.8504 1391.3926,-179.3985 1394.2275,-179 1649.3429,-143.1438 1721.9885,-190.2098 1979.6929,-142.5821"/>
<polygon fill="#191970" stroke="#191970" points="1980.5446,-145.9834 1989.7266,-140.6975 1979.2523,-139.1037 1980.5446,-145.9834"/>
</g>
<!-- Node32 -->
<g id="node28" class="node">
<title>Node32</title>
<polygon fill="#ffffff" stroke="#bfbfbf" points="1261.2275,-123.5 1261.2275,-142.5 1331.2275,-142.5 1331.2275,-123.5 1261.2275,-123.5"/>
<text text-anchor="middle" x="1296.2275" y="-130.5" font-family="Helvetica,sans-Serif" font-size="10.00" fill="#000000">glm/glm.hpp</text>
</g>
<!-- Node31&#45;&gt;Node32 -->
<g id="edge42" class="edge">
<title>Node31&#45;&gt;Node32</title>
<path fill="none" stroke="#191970" d="M1317.3062,-179.2977C1313.5814,-171.1166 1308.9495,-160.943 1304.9771,-152.2179"/>
<polygon fill="#191970" stroke="#191970" points="1308.0397,-150.4978 1300.7107,-142.8469 1301.6689,-153.3983 1308.0397,-150.4978"/>
</g>
<!-- Node33 -->
<g id="node29" class="node">
<title>Node33</title>
<polygon fill="#ffffff" stroke="#bfbfbf" points="1349.2275,-123.5 1349.2275,-142.5 1441.2275,-142.5 1441.2275,-123.5 1349.2275,-123.5"/>
<text text-anchor="middle" x="1395.2275" y="-130.5" font-family="Helvetica,sans-Serif" font-size="10.00" fill="#000000">glm/common.hpp</text>
</g>
<!-- Node31&#45;&gt;Node33 -->
<g id="edge43" class="edge">
<title>Node31&#45;&gt;Node33</title>
<path fill="none" stroke="#191970" d="M1341.7781,-179.2977C1352.2496,-170.2274 1365.5487,-158.7077 1376.2613,-149.4285"/>
<polygon fill="#191970" stroke="#191970" points="1378.5924,-152.0398 1383.8595,-142.8469 1374.0093,-146.7487 1378.5924,-152.0398"/>
</g>
<!-- Node34 -->
<g id="node30" class="node">
<title>Node34</title>
<polygon fill="#ffffff" stroke="#bfbfbf" points="1459.7275,-123.5 1459.7275,-142.5 1540.7275,-142.5 1540.7275,-123.5 1459.7275,-123.5"/>
<text text-anchor="middle" x="1500.2275" y="-130.5" font-family="Helvetica,sans-Serif" font-size="10.00" fill="#000000">glm/matrix.hpp</text>
</g>
<!-- Node31&#45;&gt;Node34 -->
<g id="edge44" class="edge">
<title>Node31&#45;&gt;Node34</title>
<path fill="none" stroke="#191970" d="M1367.282,-179.4554C1396.648,-169.194 1435.142,-155.7429 1463.147,-145.9571"/>
<polygon fill="#191970" stroke="#191970" points="1464.6681,-149.1332 1472.9538,-142.5303 1462.3589,-142.525 1464.6681,-149.1332"/>
</g>
<!-- Node35 -->
<g id="node31" class="node">
<title>Node35</title>
<polygon fill="#ffffff" stroke="#bfbfbf" points="1085.7275,-62 1085.7275,-81 1160.7275,-81 1160.7275,-62 1085.7275,-62"/>
<text text-anchor="middle" x="1123.2275" y="-69" font-family="Helvetica,sans-Serif" font-size="10.00" fill="#000000">glm/vec3.hpp</text>
</g>
<!-- Node31&#45;&gt;Node35 -->
<g id="edge45" class="edge">
<title>Node31&#45;&gt;Node35</title>
<path fill="none" stroke="#191970" d="M1301.4897,-179.3564C1279.2075,-164.6348 1244.1798,-141.8069 1213.2275,-123 1192.0035,-110.1041 1167.5187,-96.1517 1149.4507,-86.0264"/>
<polygon fill="#191970" stroke="#191970" points="1151.076,-82.9253 1140.6384,-81.1062 1147.6634,-89.0371 1151.076,-82.9253"/>
</g>
<!-- Node36 -->
<g id="node32" class="node">
<title>Node36</title>
<polygon fill="#ffffff" stroke="#bfbfbf" points="1559.2275,-123.5 1559.2275,-142.5 1675.2275,-142.5 1675.2275,-123.5 1559.2275,-123.5"/>
<text text-anchor="middle" x="1617.2275" y="-130.5" font-family="Helvetica,sans-Serif" font-size="10.00" fill="#000000">glm/gtc/quaternion.hpp</text>
</g>
<!-- Node31&#45;&gt;Node36 -->
<g id="edge46" class="edge">
<title>Node31&#45;&gt;Node36</title>
<path fill="none" stroke="#191970" d="M1385.2996,-180.9223C1388.3175,-180.2685 1391.3063,-179.6247 1394.2275,-179 1450.4711,-166.9728 1514.8156,-153.7581 1559.8853,-144.5906"/>
<polygon fill="#191970" stroke="#191970" points="1560.6659,-148.0037 1569.7686,-142.5824 1559.2719,-141.1438 1560.6659,-148.0037"/>
</g>
<!-- Node37 -->
<g id="node33" class="node">
<title>Node37</title>
<polygon fill="#ffffff" stroke="#bfbfbf" points="1693.2275,-123.5 1693.2275,-142.5 1809.2275,-142.5 1809.2275,-123.5 1693.2275,-123.5"/>
<text text-anchor="middle" x="1751.2275" y="-130.5" font-family="Helvetica,sans-Serif" font-size="10.00" fill="#000000">glm/gtx/quaternion.hpp</text>
</g>
<!-- Node31&#45;&gt;Node37 -->
<g id="edge47" class="edge">
<title>Node31&#45;&gt;Node37</title>
<path fill="none" stroke="#191970" d="M1385.2438,-180.6335C1388.2765,-180.0561 1391.2836,-179.5075 1394.2275,-179 1518.9681,-157.4963 1553.7922,-160.4187 1682.8533,-143.1514"/>
<polygon fill="#191970" stroke="#191970" points="1683.6951,-146.5695 1693.1354,-141.76 1682.7563,-139.6327 1683.6951,-146.5695"/>
</g>
<!-- Node38 -->
<g id="node34" class="node">
<title>Node38</title>
<polygon fill="#ffffff" stroke="#bfbfbf" points="1827.2275,-123.5 1827.2275,-142.5 1971.2275,-142.5 1971.2275,-123.5 1827.2275,-123.5"/>
<text text-anchor="middle" x="1899.2275" y="-130.5" font-family="Helvetica,sans-Serif" font-size="10.00" fill="#000000">glm/gtc/matrix_transform.hpp</text>
</g>
<!-- Node31&#45;&gt;Node38 -->
<g id="edge48" class="edge">
<title>Node31&#45;&gt;Node38</title>
<path fill="none" stroke="#191970" d="M1385.6006,-180.4253C1388.5108,-179.9106 1391.3974,-179.4315 1394.2275,-179 1577.9941,-150.9806 1628.4095,-162.1882 1816.8631,-143.1015"/>
<polygon fill="#191970" stroke="#191970" points="1817.23,-146.5823 1826.8197,-142.078 1816.5142,-139.619 1817.23,-146.5823"/>
</g>
<!-- Node39 -->
<g id="node35" class="node">
<title>Node39</title>
<g id="a_node35"><a xlink:href="_transform_8hpp.html" target="_top" xlink:title="kryne&#45;engine/Math/Transform.hpp">
<polygon fill="#ffffff" stroke="#ff0000" points="1041.7275,-123.5 1041.7275,-142.5 1204.7275,-142.5 1204.7275,-123.5 1041.7275,-123.5"/>
<text text-anchor="middle" x="1123.2275" y="-130.5" font-family="Helvetica,sans-Serif" font-size="10.00" fill="#000000">kryne&#45;engine/Math/Transform.hpp</text>
</a>
</g>
</g>
<!-- Node31&#45;&gt;Node39 -->
<g id="edge49" class="edge">
<title>Node31&#45;&gt;Node39</title>
<path fill="none" stroke="#191970" d="M1275.0574,-179.4554C1241.0787,-169.059 1196.3994,-155.3884 1164.3189,-145.5727"/>
<polygon fill="#191970" stroke="#191970" points="1164.9619,-142.1094 1154.3754,-142.5303 1162.9138,-148.803 1164.9619,-142.1094"/>
</g>
<!-- Node31&#45;&gt;Node41 -->
<g id="edge51" class="edge">
<title>Node31&#45;&gt;Node41</title>
<path fill="none" stroke="#191970" d="M1385.5857,-180.3224C1388.4998,-179.8353 1391.3914,-179.3901 1394.2275,-179 1679.9805,-139.6908 1755.0816,-170.3351 2042.2275,-143 2054.4052,-141.8407 2067.6593,-140.1775 2079.5419,-138.5392"/>
<polygon fill="#191970" stroke="#191970" points="2080.1591,-141.9868 2089.5696,-137.1193 2079.1776,-135.056 2080.1591,-141.9868"/>
</g>
<!-- Node39&#45;&gt;Node35 -->
<g id="edge50" class="edge">
<title>Node39&#45;&gt;Node35</title>
<path fill="none" stroke="#191970" d="M1123.2275,-123.3906C1123.2275,-114.8657 1123.2275,-102.1392 1123.2275,-91.4235"/>
<polygon fill="#191970" stroke="#191970" points="1126.7276,-91.2448 1123.2275,-81.2449 1119.7276,-91.2449 1126.7276,-91.2448"/>
</g>
<!-- Node41&#45;&gt;Node4 -->
<g id="edge52" class="edge">
<title>Node41&#45;&gt;Node4</title>
<path fill="none" stroke="#191970" d="M2099.665,-123.3906C2082.4738,-113.4165 2055.3693,-97.6908 2035.5009,-86.1633"/>
<polygon fill="#191970" stroke="#191970" points="2037.0798,-83.033 2026.6737,-81.0419 2033.5669,-89.0877 2037.0798,-83.033"/>
</g>
<!-- Node41&#45;&gt;Node7 -->
<g id="edge53" class="edge">
<title>Node41&#45;&gt;Node7</title>
<path fill="none" stroke="#191970" d="M2112.3935,-123.4818C2104.9144,-106.3538 2086.586,-70.7521 2058.2275,-56 1998.4834,-24.9209 956.5885,-12.5365 747.5664,-10.3593"/>
<polygon fill="#191970" stroke="#191970" points="747.464,-6.8582 737.4285,-10.255 747.3919,-13.8578 747.464,-6.8582"/>
</g>
<!-- Node41&#45;&gt;Node28 -->
<g id="edge54" class="edge">
<title>Node41&#45;&gt;Node28</title>
<path fill="none" stroke="#191970" d="M2100.8152,-142.6423C2086.019,-151.9156 2063.0549,-166.351 2043.2275,-179 2021.8177,-192.6586 2019.2999,-201.9092 1995.2275,-210 1873.0123,-251.0769 1468.5756,-259.5043 1345.8477,-261.1315"/>
<polygon fill="#191970" stroke="#191970" points="1345.4762,-257.6358 1335.5209,-261.2609 1345.564,-264.6352 1345.4762,-257.6358"/>
</g>
<!-- Node42 -->
<g id="node37" class="node">
<title>Node42</title>
<g id="a_node37"><a xlink:href="_environment_map_8hpp.html" target="_top" xlink:title="kryne&#45;engine/Textures\l/EnvironmentMap.hpp">
<polygon fill="#ffffff" stroke="#000000" points="2105.7275,-56.5 2105.7275,-86.5 2218.7275,-86.5 2218.7275,-56.5 2105.7275,-56.5"/>
<text text-anchor="start" x="2113.7275" y="-74.5" font-family="Helvetica,sans-Serif" font-size="10.00" fill="#000000">kryne&#45;engine/Textures</text>
<text text-anchor="middle" x="2162.2275" y="-63.5" font-family="Helvetica,sans-Serif" font-size="10.00" fill="#000000">/EnvironmentMap.hpp</text>
</a>
</g>
</g>
<!-- Node41&#45;&gt;Node42 -->
<g id="edge55" class="edge">
<title>Node41&#45;&gt;Node42</title>
<path fill="none" stroke="#191970" d="M2123.415,-123.3906C2129.1794,-115.6839 2137.5122,-104.5434 2144.9802,-94.5589"/>
<polygon fill="#191970" stroke="#191970" points="2147.7878,-96.6488 2150.9747,-86.5446 2142.1823,-92.4561 2147.7878,-96.6488"/>
</g>
<!-- Node43 -->
<g id="node38" class="node">
<title>Node43</title>
<g id="a_node38"><a xlink:href="_cube_texture_8h.html" target="_top" xlink:title="CubeTexture.h">
<polygon fill="#ffffff" stroke="#ff0000" points="2121.7275,-.5 2121.7275,-19.5 2202.7275,-19.5 2202.7275,-.5 2121.7275,-.5"/>
<text text-anchor="middle" x="2162.2275" y="-7.5" font-family="Helvetica,sans-Serif" font-size="10.00" fill="#000000">CubeTexture.h</text>
</a>
</g>
</g>
<!-- Node42&#45;&gt;Node43 -->
<g id="edge56" class="edge">
<title>Node42&#45;&gt;Node43</title>
<path fill="none" stroke="#191970" d="M2162.2275,-56.2977C2162.2275,-48.3834 2162.2275,-38.6043 2162.2275,-30.0759"/>
<polygon fill="#191970" stroke="#191970" points="2165.7276,-29.8469 2162.2275,-19.8469 2158.7276,-29.847 2165.7276,-29.8469"/>
</g>
<!-- Node51&#45;&gt;Node24 -->
<g id="edge59" class="edge">
<title>Node51&#45;&gt;Node24</title>
<path fill="none" stroke="#191970" d="M1139.9979,-184.9726C1132.6218,-182.7941 1124.6796,-180.6401 1117.2275,-179 1011.1165,-155.6459 978.967,-167.5309 869.2477,-142.912"/>
<polygon fill="#191970" stroke="#191970" points="869.9822,-139.4897 859.4528,-140.6646 868.4168,-146.3124 869.9822,-139.4897"/>
</g>
<!-- Node51&#45;&gt;Node27 -->
<g id="edge61" class="edge">
<title>Node51&#45;&gt;Node27</title>
<path fill="none" stroke="#191970" d="M1139.1223,-184.9624C1131.9827,-182.8574 1124.3666,-180.7392 1117.2275,-179 1037.149,-159.492 1012.7258,-164.1827 928.5056,-142.7719"/>
<polygon fill="#191970" stroke="#191970" points="929.334,-139.371 918.7758,-140.2513 927.5785,-146.1473 929.334,-139.371"/>
</g>
<!-- Node51&#45;&gt;Node28 -->
<g id="edge62" class="edge">
<title>Node51&#45;&gt;Node28</title>
<path fill="none" stroke="#191970" d="M1194.2891,-204.0817C1220.2296,-215.3676 1260.1587,-234.2227 1285.8401,-247.2298"/>
<polygon fill="#191970" stroke="#191970" points="1284.4324,-250.4414 1294.9263,-251.9005 1287.6327,-244.2158 1284.4324,-250.4414"/>
</g>
<!-- Node51&#45;&gt;Node30 -->
<g id="edge60" class="edge">
<title>Node51&#45;&gt;Node30</title>
<path fill="none" stroke="#191970" d="M1137.3318,-184.9765C1130.6887,-182.9975 1123.7304,-180.9279 1117.2275,-179 1075.0895,-166.5072 1026.5212,-152.2003 994.9202,-142.9039"/>
<polygon fill="#191970" stroke="#191970" points="995.8673,-139.5343 985.286,-140.0703 993.8921,-146.2498 995.8673,-139.5343"/>
</g>
<!-- Node53 -->
<g id="node41" class="node">
<title>Node53</title>
<g id="a_node41"><a xlink:href="_player_input_8h.html" target="_top" xlink:title="kryne&#45;engine/Input\l/PlayerInput.h">
<polygon fill="#ffffff" stroke="#ff0000" points="621.7275,-313.5 621.7275,-343.5 718.7275,-343.5 718.7275,-313.5 621.7275,-313.5"/>
<text text-anchor="start" x="629.7275" y="-331.5" font-family="Helvetica,sans-Serif" font-size="10.00" fill="#000000">kryne&#45;engine/Input</text>
<text text-anchor="middle" x="670.2275" y="-320.5" font-family="Helvetica,sans-Serif" font-size="10.00" fill="#000000">/PlayerInput.h</text>
</a>
</g>
</g>
<!-- Node52&#45;&gt;Node53 -->
<g id="edge66" class="edge">
<title>Node52&#45;&gt;Node53</title>
<path fill="none" stroke="#191970" d="M879.403,-519.9141C842.1013,-502.6543 765.3608,-463.2285 716.2275,-411 700.3534,-394.1259 687.9908,-370.7513 680.0983,-353.1897"/>
<polygon fill="#191970" stroke="#191970" points="683.1448,-351.4149 675.9752,-343.6145 676.7156,-354.1834 683.1448,-351.4149"/>
</g>
<!-- Node56 -->
<g id="node45" class="node">
<title>Node56</title>
<g id="a_node45"><a xlink:href="_loop_renderer_8h.html" target="_top" xlink:title="kryne&#45;engine/Rendering\l/LoopRenderer.h">
<polygon fill="#ffffff" stroke="#ff0000" points="866.7275,-447.5 866.7275,-477.5 985.7275,-477.5 985.7275,-447.5 866.7275,-447.5"/>
<text text-anchor="start" x="874.7275" y="-465.5" font-family="Helvetica,sans-Serif" font-size="10.00" fill="#000000">kryne&#45;engine/Rendering</text>
<text text-anchor="middle" x="926.2275" y="-454.5" font-family="Helvetica,sans-Serif" font-size="10.00" fill="#000000">/LoopRenderer.h</text>
</a>
</g>
</g>
<!-- Node52&#45;&gt;Node56 -->
<g id="edge74" class="edge">
<title>Node52&#45;&gt;Node56</title>
<path fill="none" stroke="#191970" d="M904.8094,-519.9005C908.0048,-511.3368 912.8226,-498.4252 917.0801,-487.0152"/>
<polygon fill="#191970" stroke="#191970" points="920.4056,-488.1144 920.6224,-477.5218 913.8473,-485.6672 920.4056,-488.1144"/>
</g>
<!-- Node53&#45;&gt;Node4 -->
<g id="edge68" class="edge">
<title>Node53&#45;&gt;Node4</title>
<path fill="none" stroke="#191970" d="M718.8797,-318.417C741.6295,-311.002 766.6482,-298.3516 780.2275,-277 816.9962,-219.1866 725.7984,-172.4449 773.2275,-123 794.145,-101.1936 1733.2609,-77.9491 1960.9108,-72.628"/>
<polygon fill="#191970" stroke="#191970" points="1961.2912,-76.1202 1971.207,-72.3883 1961.1282,-69.1221 1961.2912,-76.1202"/>
</g>
<!-- Node53&#45;&gt;Node7 -->
<g id="edge71" class="edge">
<title>Node53&#45;&gt;Node7</title>
<path fill="none" stroke="#191970" d="M624.7193,-313.4386C595.8414,-303.0072 562.114,-288.9103 552.2275,-277 528.1953,-248.0483 533.2275,-232.1265 533.2275,-194.5 533.2275,-194.5 533.2275,-194.5 533.2275,-133 533.2275,-64.6822 623.0709,-31.3543 675.0994,-17.7818"/>
<polygon fill="#191970" stroke="#191970" points="676.1048,-21.1384 684.963,-15.3261 674.4136,-14.3457 676.1048,-21.1384"/>
</g>
<!-- Node53&#45;&gt;Node8 -->
<g id="edge69" class="edge">
<title>Node53&#45;&gt;Node8</title>
<path fill="none" stroke="#191970" d="M621.6571,-315.3225C583.4731,-304.949 528.9436,-290.1045 481.2275,-277 477.3973,-275.9481 473.4205,-274.8531 469.4329,-273.7531"/>
<polygon fill="#191970" stroke="#191970" points="470.1465,-270.3192 459.5756,-271.0304 468.2827,-277.0666 470.1465,-270.3192"/>
</g>
<!-- Node53&#45;&gt;Node9 -->
<g id="edge70" class="edge">
<title>Node53&#45;&gt;Node9</title>
<path fill="none" stroke="#191970" d="M621.4675,-313.7425C587.5565,-302.8667 545.9047,-288.0978 531.2275,-277 506.7772,-258.5124 387.3639,-84.9821 348.4865,-28.0185"/>
<polygon fill="#191970" stroke="#191970" points="351.2969,-25.9274 342.7726,-19.6356 345.5128,-29.87 351.2969,-25.9274"/>
</g>
<!-- Node54 -->
<g id="node42" class="node">
<title>Node54</title>
<polygon fill="#ffffff" stroke="#bfbfbf" points="741.2275,-252 741.2275,-271 771.2275,-271 771.2275,-252 741.2275,-252"/>
<text text-anchor="middle" x="756.2275" y="-259" font-family="Helvetica,sans-Serif" font-size="10.00" fill="#000000">set</text>
</g>
<!-- Node53&#45;&gt;Node54 -->
<g id="edge67" class="edge">
<title>Node53&#45;&gt;Node54</title>
<path fill="none" stroke="#191970" d="M689.7423,-313.2967C703.5317,-302.5537 721.9694,-288.1895 735.9303,-277.3129"/>
<polygon fill="#191970" stroke="#191970" points="738.2254,-279.9618 743.9629,-271.055 733.9233,-274.4398 738.2254,-279.9618"/>
</g>
<!-- Node49 -->
<g id="node43" class="node">
<title>Node49</title>
<polygon fill="#ffffff" stroke="#bfbfbf" points="561.2275,-252 561.2275,-271 625.2275,-271 625.2275,-252 561.2275,-252"/>
<text text-anchor="middle" x="593.2275" y="-259" font-family="Helvetica,sans-Serif" font-size="10.00" fill="#000000">glad/glad.h</text>
</g>
<!-- Node53&#45;&gt;Node49 -->
<g id="edge72" class="edge">
<title>Node53&#45;&gt;Node49</title>
<path fill="none" stroke="#191970" d="M652.755,-313.2967C640.5251,-302.6551 624.2117,-288.4602 611.7554,-277.6217"/>
<polygon fill="#191970" stroke="#191970" points="614.0501,-274.9788 604.2086,-271.055 609.4551,-280.2596 614.0501,-274.9788"/>
</g>
<!-- Node50 -->
<g id="node44" class="node">
<title>Node50</title>
<polygon fill="#ffffff" stroke="#bfbfbf" points="643.2275,-252 643.2275,-271 723.2275,-271 723.2275,-252 643.2275,-252"/>
<text text-anchor="middle" x="683.2275" y="-259" font-family="Helvetica,sans-Serif" font-size="10.00" fill="#000000">GLFW/glfw3.h</text>
</g>
<!-- Node53&#45;&gt;Node50 -->
<g id="edge73" class="edge">
<title>Node53&#45;&gt;Node50</title>
<path fill="none" stroke="#191970" d="M673.1774,-313.2967C675.0259,-303.7699 677.4269,-291.3954 679.4186,-281.1306"/>
<polygon fill="#191970" stroke="#191970" points="682.9046,-281.5386 681.3736,-271.055 676.0328,-280.2052 682.9046,-281.5386"/>
</g>
<!-- Node56&#45;&gt;Node4 -->
<g id="edge76" class="edge">
<title>Node56&#45;&gt;Node4</title>
<path fill="none" stroke="#191970" d="M941.8965,-447.3979C950.6003,-437.8856 960.5848,-424.8211 965.2275,-411 988.579,-341.4839 1000.2557,-310.4268 965.2275,-246 922.5522,-167.5077 744.4169,-187.511 806.2275,-123 826.5313,-101.8092 1736.6509,-78.1909 1960.7614,-72.6891"/>
<polygon fill="#191970" stroke="#191970" points="1960.9972,-76.1845 1970.9085,-72.4409 1960.8259,-69.1866 1960.9972,-76.1845"/>
</g>
<!-- Node56&#45;&gt;Node7 -->
<g id="edge78" class="edge">
<title>Node56&#45;&gt;Node7</title>
<path fill="none" stroke="#191970" d="M930.5386,-447.4731C937.6758,-419.8321 949.5335,-359.4976 932.2275,-313 911.1243,-256.2999 881.7816,-256.6244 843.2275,-210 819.0321,-180.7398 811.748,-174.2802 790.2275,-143 763.0967,-103.5651 735.4513,-54.5736 721.1584,-28.447"/>
<polygon fill="#191970" stroke="#191970" points="724.2126,-26.7369 716.3632,-19.6208 718.0617,-30.0786 724.2126,-26.7369"/>
</g>
<!-- Node56&#45;&gt;Node8 -->
<g id="edge77" class="edge">
<title>Node56&#45;&gt;Node8</title>
<path fill="none" stroke="#191970" d="M914.7458,-447.1752C898.2994,-425.6626 868.3548,-388.212 853.2275,-380 758.0484,-328.3306 711.2779,-387.7929 612.2275,-344 592.2931,-335.1864 593.2653,-323.6125 574.2275,-313 555.5193,-302.5712 503.9925,-285.6443 466.7693,-274.0631"/>
<polygon fill="#191970" stroke="#191970" points="467.7543,-270.7042 457.1667,-271.0949 465.687,-277.392 467.7543,-270.7042"/>
</g>
<!-- Node56&#45;&gt;Node23 -->
<g id="edge79" class="edge">
<title>Node56&#45;&gt;Node23</title>
<path fill="none" stroke="#191970" d="M866.44,-449.661C812.8862,-438.1607 734.5138,-421.3307 679.3792,-409.4909"/>
<polygon fill="#191970" stroke="#191970" points="679.878,-406.0183 669.366,-407.3406 678.4082,-412.8623 679.878,-406.0183"/>
</g>
<!-- Node56&#45;&gt;Node24 -->
<g id="edge75" class="edge">
<title>Node56&#45;&gt;Node24</title>
<path fill="none" stroke="#191970" d="M959.0649,-447.3038C974.4852,-438.653 991.9185,-426.4393 1003.2275,-411 1025.7927,-380.1936 1027.2275,-366.6867 1027.2275,-328.5 1027.2275,-328.5 1027.2275,-328.5 1027.2275,-261.5 1027.2275,-210.1147 988.7257,-207.8851 946.2275,-179 933.1406,-170.1051 896.3222,-155.254 869.0794,-144.8386"/>
<polygon fill="#191970" stroke="#191970" points="870.1289,-141.4934 859.5375,-141.2213 867.6474,-148.0389 870.1289,-141.4934"/>
</g>
<!-- Node56&#45;&gt;Node28 -->
<g id="edge80" class="edge">
<title>Node56&#45;&gt;Node28</title>
<path fill="none" stroke="#191970" d="M961.7754,-447.394C984.6616,-437.4693 1014.9378,-423.9668 1041.2275,-411 1133.1273,-365.6726 1238.3074,-304.3536 1285.2904,-276.4439"/>
<polygon fill="#191970" stroke="#191970" points="1287.3485,-279.2918 1294.1488,-271.1674 1283.7663,-273.2779 1287.3485,-279.2918"/>
</g>
<!-- Node56&#45;&gt;Node41 -->
<g id="edge84" class="edge">
<title>Node56&#45;&gt;Node41</title>
<path fill="none" stroke="#191970" d="M985.7714,-459.6673C1157.9937,-449.2999 1667.6536,-403.1589 2033.2275,-210 2061.3053,-195.1645 2087.0013,-168.386 2102.1387,-150.6479"/>
<polygon fill="#191970" stroke="#191970" points="2104.9932,-152.6888 2108.6858,-142.7583 2099.6064,-148.2187 2104.9932,-152.6888"/>
</g>
<!-- Node70 -->
<g id="node46" class="node">
<title>Node70</title>
<g id="a_node46"><a xlink:href="kryne-engine_2_camera_2_camera_8h.html" target="_top" xlink:title="kryne&#45;engine/Camera\l/Camera.h">
<polygon fill="#ffffff" stroke="#ff0000" points="813.2275,-313.5 813.2275,-343.5 923.2275,-343.5 923.2275,-313.5 813.2275,-313.5"/>
<text text-anchor="start" x="821.2275" y="-331.5" font-family="Helvetica,sans-Serif" font-size="10.00" fill="#000000">kryne&#45;engine/Camera</text>
<text text-anchor="middle" x="868.2275" y="-320.5" font-family="Helvetica,sans-Serif" font-size="10.00" fill="#000000">/Camera.h</text>
</a>
</g>
</g>
<!-- Node56&#45;&gt;Node70 -->
<g id="edge81" class="edge">
<title>Node56&#45;&gt;Node70</title>
<path fill="none" stroke="#191970" d="M919.6869,-447.389C909.766,-424.4681 890.8091,-380.6712 878.8803,-353.1116"/>
<polygon fill="#191970" stroke="#191970" points="882.0175,-351.5483 874.8332,-343.7614 875.5935,-354.3289 882.0175,-351.5483"/>
</g>
<!-- Node56&#45;&gt;Node72 -->
<g id="edge85" class="edge">
<title>Node56&#45;&gt;Node72</title>
<path fill="none" stroke="#191970" d="M894.5844,-447.4639C874.4977,-437.9191 848.2909,-425.4663 826.5678,-415.144"/>
<polygon fill="#191970" stroke="#191970" points="827.7873,-411.8484 817.2529,-410.7177 824.7829,-418.1709 827.7873,-411.8484"/>
</g>
<!-- Node70&#45;&gt;Node7 -->
<g id="edge82" class="edge">
<title>Node70&#45;&gt;Node7</title>
<path fill="none" stroke="#191970" d="M855.92,-313.2659C826.0045,-275.9496 750.7862,-180.3053 735.2275,-143 719.3432,-104.9137 713.9567,-56.3849 712.1409,-29.7379"/>
<polygon fill="#191970" stroke="#191970" points="715.6349,-29.5321 711.5611,-19.7518 708.6467,-29.9379 715.6349,-29.5321"/>
</g>
<!-- Node70&#45;&gt;Node28 -->
<g id="edge83" class="edge">
<title>Node70&#45;&gt;Node28</title>
<path fill="none" stroke="#191970" d="M923.3134,-320.1499C1015.4796,-306.179 1198.3723,-278.4554 1275.0778,-266.8281"/>
<polygon fill="#191970" stroke="#191970" points="1275.8135,-270.2567 1285.176,-265.2974 1274.7644,-263.3357 1275.8135,-270.2567"/>
</g>
<!-- Node72&#45;&gt;Node51 -->
<g id="edge86" class="edge">
<title>Node72&#45;&gt;Node51</title>
<path fill="none" stroke="#191970" d="M784.5056,-380.3836C784.4762,-362.117 787.2505,-331.5328 804.2275,-313 847.669,-265.5777 1033.1735,-222.2874 1121.7642,-203.8672"/>
<polygon fill="#191970" stroke="#191970" points="1122.473,-207.2948 1131.5614,-201.8495 1121.061,-200.4387 1122.473,-207.2948"/>
</g>
<!-- Node72&#45;&gt;Node70 -->
<g id="edge95" class="edge">
<title>Node72&#45;&gt;Node70</title>
<path fill="none" stroke="#191970" d="M804.0615,-380.2967C815.0981,-371.3876 829.2198,-359.9882 841.4041,-350.1527"/>
<polygon fill="#191970" stroke="#191970" points="843.8853,-352.6478 849.4681,-343.6432 839.4885,-347.201 843.8853,-352.6478"/>
</g>
<!-- Node73 -->
<g id="node48" class="node">
<title>Node73</title>
<g id="a_node48"><a xlink:href="_buffer_geometry_8h.html" target="_top" xlink:title="kryne&#45;engine/Geometry\l/BufferGeometry.h">
<polygon fill="#ffffff" stroke="#ff0000" points="275.2275,-313.5 275.2275,-343.5 393.2275,-343.5 393.2275,-313.5 275.2275,-313.5"/>
<text text-anchor="start" x="283.2275" y="-331.5" font-family="Helvetica,sans-Serif" font-size="10.00" fill="#000000">kryne&#45;engine/Geometry</text>
<text text-anchor="middle" x="334.2275" y="-320.5" font-family="Helvetica,sans-Serif" font-size="10.00" fill="#000000">/BufferGeometry.h</text>
</a>
</g>
</g>
<!-- Node72&#45;&gt;Node73 -->
<g id="edge87" class="edge">
<title>Node72&#45;&gt;Node73</title>
<path fill="none" stroke="#191970" d="M725.3382,-386.6029C642.0178,-374.2249 491.4687,-351.8596 403.4422,-338.7824"/>
<polygon fill="#191970" stroke="#191970" points="403.6941,-335.2815 393.2883,-337.274 402.6654,-342.2055 403.6941,-335.2815"/>
</g>
<!-- Node77 -->
<g id="node49" class="node">
<title>Node77</title>
<g id="a_node49"><a xlink:href="kryne-engine_2_material_2_material_8h.html" target="_top" xlink:title="kryne&#45;engine/Material\l/Material.h">
<polygon fill="#ffffff" stroke="#ff0000" points="455.2275,-313.5 455.2275,-343.5 565.2275,-343.5 565.2275,-313.5 455.2275,-313.5"/>
<text text-anchor="start" x="463.2275" y="-331.5" font-family="Helvetica,sans-Serif" font-size="10.00" fill="#000000">kryne&#45;engine/Material</text>
<text text-anchor="middle" x="510.2275" y="-320.5" font-family="Helvetica,sans-Serif" font-size="10.00" fill="#000000">/Material.h</text>
</a>
</g>
</g>
<!-- Node72&#45;&gt;Node77 -->
<g id="edge93" class="edge">
<title>Node72&#45;&gt;Node77</title>
<path fill="none" stroke="#191970" d="M725.5566,-380.962C681.2586,-370.1694 620.8908,-355.4616 575.3446,-344.3649"/>
<polygon fill="#191970" stroke="#191970" points="576.1146,-340.9502 565.5703,-341.9835 574.4576,-347.7512 576.1146,-340.9502"/>
</g>
<!-- Node73&#45;&gt;Node7 -->
<g id="edge88" class="edge">
<title>Node73&#45;&gt;Node7</title>
<path fill="none" stroke="#191970" d="M334.2246,-313.2796C334.8263,-295.9896 337.6961,-267.4026 349.2275,-246 407.2291,-138.3473 442.0262,-116.6181 548.2275,-56 588.3802,-33.0815 640.6993,-20.963 675.0926,-15.0236"/>
<polygon fill="#191970" stroke="#191970" points="675.8555,-18.4453 685.1576,-13.3736 674.7231,-11.5375 675.8555,-18.4453"/>
</g>
<!-- Node73&#45;&gt;Node8 -->
<g id="edge90" class="edge">
<title>Node73&#45;&gt;Node8</title>
<path fill="none" stroke="#191970" d="M354.8768,-313.2967C369.6057,-302.4524 389.3461,-287.9182 404.1671,-277.006"/>
<polygon fill="#191970" stroke="#191970" points="406.2722,-279.8025 412.2499,-271.055 402.1219,-274.1655 406.2722,-279.8025"/>
</g>
<!-- Node73&#45;&gt;Node9 -->
<g id="edge89" class="edge">
<title>Node73&#45;&gt;Node9</title>
<path fill="none" stroke="#191970" d="M322.0487,-313.2988C315.0408,-303.5503 306.9141,-290.2728 303.2275,-277 299.5403,-263.7248 301.2544,-259.6358 303.2275,-246 313.7808,-173.0702 339.6743,-159.9298 350.2275,-87 352.2007,-73.3642 352.2554,-69.6277 350.2275,-56 348.8948,-47.0439 346.1781,-37.419 343.4894,-29.3"/>
<polygon fill="#191970" stroke="#191970" points="346.7211,-27.9402 340.0899,-19.6772 340.1209,-30.272 346.7211,-27.9402"/>
</g>
<!-- Node73&#45;&gt;Node11 -->
<g id="edge92" class="edge">
<title>Node73&#45;&gt;Node11</title>
<path fill="none" stroke="#191970" d="M294.2809,-313.4639C268.1492,-303.6278 233.8127,-290.7034 205.9212,-280.2049"/>
<polygon fill="#191970" stroke="#191970" points="206.9404,-276.8489 196.3484,-276.6017 204.4744,-283.4001 206.9404,-276.8489"/>
</g>
<!-- Node73&#45;&gt;Node35 -->
<g id="edge91" class="edge">
<title>Node73&#45;&gt;Node35</title>
<path fill="none" stroke="#191970" d="M338.0244,-313.4781C343.3209,-295.3067 354.5617,-264.8186 374.2275,-246 424.0654,-198.3092 592.5481,-140.6657 659.2275,-123 737.0564,-102.3805 973.5503,-82.7472 1075.5589,-74.9886"/>
<polygon fill="#191970" stroke="#191970" points="1075.8732,-78.4749 1085.5811,-74.2317 1075.3459,-71.4948 1075.8732,-78.4749"/>
</g>
<!-- Node77&#45;&gt;Node6 -->
<g id="edge94" class="edge">
<title>Node77&#45;&gt;Node6</title>
<path fill="none" stroke="#191970" d="M515.0863,-343.7632C521.2261,-361.3509 533.1004,-390.4628 550.2275,-411 614.7908,-488.4181 639.3572,-508.2532 733.2275,-545 798.2046,-570.4361 1004.7698,-584.1356 1093.303,-588.9654"/>
<polygon fill="#191970" stroke="#191970" points="1093.3244,-592.4715 1103.4971,-589.5107 1093.6984,-585.4815 1093.3244,-592.4715"/>
</g>
<!-- Node98&#45;&gt;Node6 -->
<g id="edge98" class="edge">
<title>Node98&#45;&gt;Node6</title>
<path fill="none" stroke="#191970" d="M1093.8728,-539.2449C1103.6267,-548.3552 1116.1281,-562.1775 1124.8218,-573.2465"/>
<polygon fill="#191970" stroke="#191970" points="1122.0887,-575.4369 1130.8525,-581.3906 1127.7143,-571.2712 1122.0887,-575.4369"/>
</g>
</g>
</svg>
