<?xml version="1.0" encoding="UTF-8" standalone="no"?>
<!DOCTYPE svg PUBLIC "-//W3C//DTD SVG 1.1//EN"
 "http://www.w3.org/Graphics/SVG/1.1/DTD/svg11.dtd">
<!-- Generated by graphviz version 2.44.1 (20200629.0846)
 -->
<!-- Title: kryne&#45;engine/include/kryne&#45;engine/3DObjects/Transform.h Pages: 1 -->
<svg width="1684pt" height="730pt"
 viewBox="0.00 0.00 1683.50 730.00" xmlns="http://www.w3.org/2000/svg" xmlns:xlink="http://www.w3.org/1999/xlink">
<g id="graph0" class="graph" transform="scale(1 1) rotate(0) translate(4 726)">
<title>kryne&#45;engine/include/kryne&#45;engine/3DObjects/Transform.h</title>
<polygon fill="white" stroke="transparent" points="-4,4 -4,-726 1679.5,-726 1679.5,4 -4,4"/>
<!-- Node1 -->
<g id="node1" class="node">
<title>Node1</title>
<g id="a_node1"><a xlink:title=" ">
<polygon fill="#bfbfbf" stroke="black" points="891.5,-680.5 891.5,-721.5 1015.5,-721.5 1015.5,-680.5 891.5,-680.5"/>
<text text-anchor="start" x="899.5" y="-709.5" font-family="Helvetica,sans-Serif" font-size="10.00">kryne&#45;engine/include</text>
<text text-anchor="start" x="899.5" y="-698.5" font-family="Helvetica,sans-Serif" font-size="10.00">/kryne&#45;engine/3DObjects</text>
<text text-anchor="middle" x="953.5" y="-687.5" font-family="Helvetica,sans-Serif" font-size="10.00">/Transform.h</text>
</a>
</g>
</g>
<!-- Node2 -->
<g id="node2" class="node">
<title>Node2</title>
<g id="a_node2"><a xlink:href="3_d_objects_8h.html" target="_top" xlink:title=" ">
<polygon fill="white" stroke="black" points="155,-385 155,-415 282,-415 282,-385 155,-385"/>
<text text-anchor="start" x="163" y="-403" font-family="Helvetica,sans-Serif" font-size="10.00">kryne&#45;engine/include</text>
<text text-anchor="middle" x="218.5" y="-392" font-family="Helvetica,sans-Serif" font-size="10.00">/KEModules/3DObjects.h</text>
</a>
</g>
</g>
<!-- Node1&#45;&gt;Node2 -->
<g id="edge1" class="edge">
<title>Node1&#45;&gt;Node2</title>
<path fill="none" stroke="midnightblue" d="M881.27,-694.08C805.02,-686.71 681.82,-671.58 578.5,-644 499.64,-622.95 481.58,-611.29 407.5,-577 341.09,-546.26 312.36,-552.56 262.5,-499 239.63,-474.43 227.17,-435.96 221.78,-415.29"/>
<polygon fill="midnightblue" stroke="midnightblue" points="880.96,-697.57 891.25,-695.03 881.62,-690.6 880.96,-697.57"/>
</g>
<!-- Node3 -->
<g id="node3" class="node">
<title>Node3</title>
<g id="a_node3"><a xlink:href="_entity_8h.html" target="_top" xlink:title=" ">
<polygon fill="white" stroke="black" points="886,-613.5 886,-643.5 1021,-643.5 1021,-613.5 886,-613.5"/>
<text text-anchor="start" x="894" y="-631.5" font-family="Helvetica,sans-Serif" font-size="10.00">kryne&#45;engine/include</text>
<text text-anchor="middle" x="953.5" y="-620.5" font-family="Helvetica,sans-Serif" font-size="10.00">/kryne&#45;engine/Core/Entity.h</text>
</a>
</g>
</g>
<!-- Node1&#45;&gt;Node3 -->
<g id="edge2" class="edge">
<title>Node1&#45;&gt;Node3</title>
<path fill="none" stroke="midnightblue" d="M946.83,-670.38C946.57,-661.21 946.94,-651.53 947.94,-643.89"/>
<polygon fill="midnightblue" stroke="midnightblue" points="943.33,-670.57 947.38,-680.36 950.32,-670.18 943.33,-670.57"/>
</g>
<!-- Node37 -->
<g id="node37" class="node">
<title>Node37</title>
<g id="a_node37"><a xlink:href="_transform_8cpp.html" target="_top" xlink:title=" ">
<polygon fill="white" stroke="black" points="1039,-613.5 1039,-643.5 1176,-643.5 1176,-613.5 1039,-613.5"/>
<text text-anchor="start" x="1047" y="-631.5" font-family="Helvetica,sans-Serif" font-size="10.00">kryne&#45;engine/src/3DObjects</text>
<text text-anchor="middle" x="1107.5" y="-620.5" font-family="Helvetica,sans-Serif" font-size="10.00">/Transform.cpp</text>
</a>
</g>
</g>
<!-- Node1&#45;&gt;Node37 -->
<g id="edge57" class="edge">
<title>Node1&#45;&gt;Node37</title>
<path fill="none" stroke="midnightblue" d="M1005.58,-676.16C1029.16,-665.36 1056.23,-652.97 1076.55,-643.67"/>
<polygon fill="midnightblue" stroke="midnightblue" points="1004.03,-673.02 996.4,-680.36 1006.95,-679.38 1004.03,-673.02"/>
</g>
<!-- Node3&#45;&gt;Node1 -->
<g id="edge28" class="edge">
<title>Node3&#45;&gt;Node1</title>
<path fill="none" stroke="midnightblue" d="M959.97,-654.11C960.44,-662.7 960.32,-672.23 959.62,-680.36"/>
<polygon fill="midnightblue" stroke="midnightblue" points="963.43,-653.54 959.06,-643.89 956.46,-654.16 963.43,-653.54"/>
</g>
<!-- Node4 -->
<g id="node4" class="node">
<title>Node4</title>
<g id="a_node4"><a xlink:href="_scene_8h.html" target="_top" xlink:title=" ">
<polygon fill="white" stroke="black" points="271.5,-457.5 271.5,-498.5 395.5,-498.5 395.5,-457.5 271.5,-457.5"/>
<text text-anchor="start" x="279.5" y="-486.5" font-family="Helvetica,sans-Serif" font-size="10.00">kryne&#45;engine/include</text>
<text text-anchor="start" x="279.5" y="-475.5" font-family="Helvetica,sans-Serif" font-size="10.00">/kryne&#45;engine/3DObjects</text>
<text text-anchor="middle" x="333.5" y="-464.5" font-family="Helvetica,sans-Serif" font-size="10.00">/Scene.h</text>
</a>
</g>
</g>
<!-- Node3&#45;&gt;Node4 -->
<g id="edge3" class="edge">
<title>Node3&#45;&gt;Node4</title>
<path fill="none" stroke="midnightblue" d="M875.45,-618.93C809.59,-610.84 713.11,-596.95 630.5,-577 542.36,-555.72 442.82,-520.5 384.27,-498.58"/>
<polygon fill="midnightblue" stroke="midnightblue" points="875.4,-622.45 885.75,-620.18 876.24,-615.5 875.4,-622.45"/>
</g>
<!-- Node5 -->
<g id="node5" class="node">
<title>Node5</title>
<g id="a_node5"><a xlink:href="_loop_renderer_8h.html" target="_top" xlink:title=" ">
<polygon fill="white" stroke="black" points="634.5,-379.5 634.5,-420.5 756.5,-420.5 756.5,-379.5 634.5,-379.5"/>
<text text-anchor="start" x="642.5" y="-408.5" font-family="Helvetica,sans-Serif" font-size="10.00">kryne&#45;engine/include</text>
<text text-anchor="start" x="642.5" y="-397.5" font-family="Helvetica,sans-Serif" font-size="10.00">/kryne&#45;engine/Rendering</text>
<text text-anchor="middle" x="695.5" y="-386.5" font-family="Helvetica,sans-Serif" font-size="10.00">/LoopRenderer.h</text>
</a>
</g>
</g>
<!-- Node3&#45;&gt;Node5 -->
<g id="edge55" class="edge">
<title>Node3&#45;&gt;Node5</title>
<path fill="none" stroke="midnightblue" d="M875.56,-624.03C801.42,-618.96 697.32,-606.65 670.5,-577 634.67,-537.4 651.14,-508.7 664.5,-457 667.84,-444.09 674.86,-430.98 681.37,-420.69"/>
<polygon fill="midnightblue" stroke="midnightblue" points="875.6,-627.54 885.81,-624.7 876.06,-620.56 875.6,-627.54"/>
</g>
<!-- Node11 -->
<g id="node11" class="node">
<title>Node11</title>
<g id="a_node11"><a xlink:href="_process_8h.html" target="_top" xlink:title=" ">
<polygon fill="white" stroke="black" points="1316.5,-229 1316.5,-259 1462.5,-259 1462.5,-229 1316.5,-229"/>
<text text-anchor="start" x="1324.5" y="-247" font-family="Helvetica,sans-Serif" font-size="10.00">kryne&#45;engine/include</text>
<text text-anchor="middle" x="1389.5" y="-236" font-family="Helvetica,sans-Serif" font-size="10.00">/kryne&#45;engine/Core/Process.h</text>
</a>
</g>
</g>
<!-- Node3&#45;&gt;Node11 -->
<g id="edge54" class="edge">
<title>Node3&#45;&gt;Node11</title>
<path fill="none" stroke="midnightblue" d="M1028.87,-611.26C1069.16,-602.5 1119.34,-590.66 1163.5,-577 1254.25,-548.92 1274.85,-535.63 1362.5,-499 1382.69,-490.56 1407.5,-500.89 1407.5,-479 1407.5,-479 1407.5,-479 1407.5,-399 1407.5,-346.88 1392.31,-286.32 1388.52,-259.29"/>
<polygon fill="midnightblue" stroke="midnightblue" points="1027.89,-607.9 1018.85,-613.43 1029.37,-614.74 1027.89,-607.9"/>
</g>
<!-- Node12 -->
<g id="node12" class="node">
<title>Node12</title>
<g id="a_node12"><a xlink:href="_system_8h.html" target="_top" xlink:title=" ">
<polygon fill="white" stroke="black" points="1419,-151 1419,-181 1562,-181 1562,-151 1419,-151"/>
<text text-anchor="start" x="1427" y="-169" font-family="Helvetica,sans-Serif" font-size="10.00">kryne&#45;engine/include</text>
<text text-anchor="middle" x="1490.5" y="-158" font-family="Helvetica,sans-Serif" font-size="10.00">/kryne&#45;engine/Core/System.h</text>
</a>
</g>
</g>
<!-- Node3&#45;&gt;Node12 -->
<g id="edge53" class="edge">
<title>Node3&#45;&gt;Node12</title>
<path fill="none" stroke="midnightblue" d="M1031.06,-613.03C1247.75,-579.61 1490.5,-688.72 1490.5,-479 1490.5,-479 1490.5,-479 1490.5,-321 1490.5,-269.4 1490.5,-208.07 1490.5,-181.01"/>
<polygon fill="midnightblue" stroke="midnightblue" points="1030.39,-609.59 1021.09,-614.67 1031.53,-616.5 1030.39,-609.59"/>
</g>
<!-- Node23 -->
<g id="node23" class="node">
<title>Node23</title>
<g id="a_node23"><a xlink:href="kryne-engine_2_camera_2_camera_8h.html" target="_top" xlink:title=" ">
<polygon fill="white" stroke="black" points="679.5,-535.5 679.5,-576.5 791.5,-576.5 791.5,-535.5 679.5,-535.5"/>
<text text-anchor="start" x="687.5" y="-564.5" font-family="Helvetica,sans-Serif" font-size="10.00">kryne&#45;engine/include</text>
<text text-anchor="start" x="687.5" y="-553.5" font-family="Helvetica,sans-Serif" font-size="10.00">/kryne&#45;engine/Camera</text>
<text text-anchor="middle" x="735.5" y="-542.5" font-family="Helvetica,sans-Serif" font-size="10.00">/Camera.h</text>
</a>
</g>
</g>
<!-- Node3&#45;&gt;Node23 -->
<g id="edge29" class="edge">
<title>Node3&#45;&gt;Node23</title>
<path fill="none" stroke="midnightblue" d="M900.26,-610.28C867.31,-599.63 825.05,-585.96 791.58,-575.14"/>
<polygon fill="midnightblue" stroke="midnightblue" points="899.58,-613.74 910.17,-613.49 901.73,-607.08 899.58,-613.74"/>
</g>
<!-- Node30 -->
<g id="node30" class="node">
<title>Node30</title>
<g id="a_node30"><a xlink:href="_component_8h.html" target="_top" xlink:title=" ">
<polygon fill="white" stroke="black" points="874,-541 874,-571 1033,-571 1033,-541 874,-541"/>
<text text-anchor="start" x="882" y="-559" font-family="Helvetica,sans-Serif" font-size="10.00">kryne&#45;engine/include</text>
<text text-anchor="middle" x="953.5" y="-548" font-family="Helvetica,sans-Serif" font-size="10.00">/kryne&#45;engine/Core/Component.h</text>
</a>
</g>
</g>
<!-- Node3&#45;&gt;Node30 -->
<g id="edge41" class="edge">
<title>Node3&#45;&gt;Node30</title>
<path fill="none" stroke="midnightblue" d="M947.05,-603.23C946.45,-592.57 946.75,-580.41 947.95,-571.25"/>
<polygon fill="midnightblue" stroke="midnightblue" points="943.57,-603.59 947.95,-613.23 950.54,-602.96 943.57,-603.59"/>
</g>
<!-- Node36 -->
<g id="node36" class="node">
<title>Node36</title>
<g id="a_node36"><a xlink:href="_entity_8cpp.html" target="_top" xlink:title=" ">
<polygon fill="white" stroke="black" points="1051.5,-541 1051.5,-571 1163.5,-571 1163.5,-541 1051.5,-541"/>
<text text-anchor="start" x="1059.5" y="-559" font-family="Helvetica,sans-Serif" font-size="10.00">kryne&#45;engine/src/Core</text>
<text text-anchor="middle" x="1107.5" y="-548" font-family="Helvetica,sans-Serif" font-size="10.00">/Entity.cpp</text>
</a>
</g>
</g>
<!-- Node3&#45;&gt;Node36 -->
<g id="edge56" class="edge">
<title>Node3&#45;&gt;Node36</title>
<path fill="none" stroke="midnightblue" d="M993.5,-609.19C1019.49,-597.29 1052.85,-582.02 1076.76,-571.07"/>
<polygon fill="midnightblue" stroke="midnightblue" points="991.93,-606.06 984.29,-613.4 994.84,-612.42 991.93,-606.06"/>
</g>
<!-- Node4&#45;&gt;Node1 -->
<g id="edge5" class="edge">
<title>Node4&#45;&gt;Node1</title>
<path fill="none" stroke="midnightblue" d="M367,-504.84C396.89,-526.8 442.6,-557.73 486.5,-577 624.88,-637.74 799.91,-673.92 891.38,-690.02"/>
<polygon fill="midnightblue" stroke="midnightblue" points="368.74,-501.77 358.63,-498.62 364.57,-507.39 368.74,-501.77"/>
</g>
<!-- Node4&#45;&gt;Node2 -->
<g id="edge4" class="edge">
<title>Node4&#45;&gt;Node2</title>
<path fill="none" stroke="midnightblue" d="M295.15,-451.66C276.8,-439.53 255.5,-425.45 240.03,-415.23"/>
<polygon fill="midnightblue" stroke="midnightblue" points="293.61,-454.83 303.88,-457.43 297.47,-448.99 293.61,-454.83"/>
</g>
<!-- Node4&#45;&gt;Node5 -->
<g id="edge6" class="edge">
<title>Node4&#45;&gt;Node5</title>
<path fill="none" stroke="midnightblue" d="M405.78,-461.82C472.75,-447.77 571.25,-427.09 634.38,-413.83"/>
<polygon fill="midnightblue" stroke="midnightblue" points="404.8,-458.46 395.73,-463.94 406.24,-465.31 404.8,-458.46"/>
</g>
<!-- Node19 -->
<g id="node19" class="node">
<title>Node19</title>
<g id="a_node19"><a xlink:href="_renderer_8h.html" target="_top" xlink:title=" ">
<polygon fill="white" stroke="black" points="300.5,-379.5 300.5,-420.5 422.5,-420.5 422.5,-379.5 300.5,-379.5"/>
<text text-anchor="start" x="308.5" y="-408.5" font-family="Helvetica,sans-Serif" font-size="10.00">kryne&#45;engine/include</text>
<text text-anchor="start" x="308.5" y="-397.5" font-family="Helvetica,sans-Serif" font-size="10.00">/kryne&#45;engine/Rendering</text>
<text text-anchor="middle" x="361.5" y="-386.5" font-family="Helvetica,sans-Serif" font-size="10.00">/Renderer.h</text>
</a>
</g>
</g>
<!-- Node4&#45;&gt;Node19 -->
<g id="edge24" class="edge">
<title>Node4&#45;&gt;Node19</title>
<path fill="none" stroke="midnightblue" d="M344.23,-447.88C347.6,-438.72 351.25,-428.83 354.31,-420.51"/>
<polygon fill="midnightblue" stroke="midnightblue" points="340.88,-446.83 340.71,-457.43 347.45,-449.25 340.88,-446.83"/>
</g>
<!-- Node22 -->
<g id="node22" class="node">
<title>Node22</title>
<g id="a_node22"><a xlink:href="_scene_8cpp.html" target="_top" xlink:title=" ">
<polygon fill="white" stroke="black" points="0,-385 0,-415 137,-415 137,-385 0,-385"/>
<text text-anchor="start" x="8" y="-403" font-family="Helvetica,sans-Serif" font-size="10.00">kryne&#45;engine/src/3DObjects</text>
<text text-anchor="middle" x="68.5" y="-392" font-family="Helvetica,sans-Serif" font-size="10.00">/Scene.cpp</text>
</a>
</g>
</g>
<!-- Node4&#45;&gt;Node22 -->
<g id="edge27" class="edge">
<title>Node4&#45;&gt;Node22</title>
<path fill="none" stroke="midnightblue" d="M261.52,-456.36C215.81,-443.25 157.86,-426.63 117.44,-415.03"/>
<polygon fill="midnightblue" stroke="midnightblue" points="260.79,-459.79 271.37,-459.18 262.72,-453.06 260.79,-459.79"/>
</g>
<!-- Node6 -->
<g id="node6" class="node">
<title>Node6</title>
<g id="a_node6"><a xlink:href="_graphic_context_8h.html" target="_top" xlink:title=" ">
<polygon fill="white" stroke="black" points="673,-301.5 673,-342.5 842,-342.5 842,-301.5 673,-301.5"/>
<text text-anchor="start" x="681" y="-330.5" font-family="Helvetica,sans-Serif" font-size="10.00">kryne&#45;engine/include</text>
<text text-anchor="start" x="681" y="-319.5" font-family="Helvetica,sans-Serif" font-size="10.00">/kryne&#45;engine/Core/GraphicContext</text>
<text text-anchor="middle" x="757.5" y="-308.5" font-family="Helvetica,sans-Serif" font-size="10.00">/GraphicContext.h</text>
</a>
</g>
</g>
<!-- Node5&#45;&gt;Node6 -->
<g id="edge7" class="edge">
<title>Node5&#45;&gt;Node6</title>
<path fill="none" stroke="midnightblue" d="M717.83,-371.63C725.69,-361.99 734.36,-351.36 741.59,-342.51"/>
<polygon fill="midnightblue" stroke="midnightblue" points="715.08,-369.47 711.47,-379.43 720.5,-373.89 715.08,-369.47"/>
</g>
<!-- Node8 -->
<g id="node8" class="node">
<title>Node8</title>
<g id="a_node8"><a xlink:href="_open_g_l_renderer_8h.html" target="_top" xlink:title=" ">
<polygon fill="white" stroke="black" points="658.5,-145.5 658.5,-186.5 808.5,-186.5 808.5,-145.5 658.5,-145.5"/>
<text text-anchor="start" x="666.5" y="-174.5" font-family="Helvetica,sans-Serif" font-size="10.00">kryne&#45;engine/include</text>
<text text-anchor="start" x="666.5" y="-163.5" font-family="Helvetica,sans-Serif" font-size="10.00">/kryne&#45;engine/Rendering</text>
<text text-anchor="middle" x="733.5" y="-152.5" font-family="Helvetica,sans-Serif" font-size="10.00">/Renderers/OpenGLRenderer.h</text>
</a>
</g>
</g>
<!-- Node5&#45;&gt;Node8 -->
<g id="edge23" class="edge">
<title>Node5&#45;&gt;Node8</title>
<path fill="none" stroke="midnightblue" d="M676.15,-370.57C671.39,-362.07 666.95,-352.48 664.5,-343 651.16,-291.36 641.57,-271.15 664.5,-223 671.6,-208.1 684.82,-195.87 697.8,-186.68"/>
<polygon fill="midnightblue" stroke="midnightblue" points="673.24,-372.52 681.37,-379.31 679.25,-368.93 673.24,-372.52"/>
</g>
<!-- Node7 -->
<g id="node7" class="node">
<title>Node7</title>
<g id="a_node7"><a xlink:href="_open_g_l_context_8h.html" target="_top" xlink:title=" ">
<polygon fill="white" stroke="black" points="673,-223.5 673,-264.5 842,-264.5 842,-223.5 673,-223.5"/>
<text text-anchor="start" x="681" y="-252.5" font-family="Helvetica,sans-Serif" font-size="10.00">kryne&#45;engine/include</text>
<text text-anchor="start" x="681" y="-241.5" font-family="Helvetica,sans-Serif" font-size="10.00">/kryne&#45;engine/Core/GraphicContext</text>
<text text-anchor="middle" x="757.5" y="-230.5" font-family="Helvetica,sans-Serif" font-size="10.00">/OpenGLContext.h</text>
</a>
</g>
</g>
<!-- Node6&#45;&gt;Node7 -->
<g id="edge8" class="edge">
<title>Node6&#45;&gt;Node7</title>
<path fill="none" stroke="midnightblue" d="M757.5,-291.3C757.5,-282.3 757.5,-272.65 757.5,-264.51"/>
<polygon fill="midnightblue" stroke="midnightblue" points="754,-291.43 757.5,-301.43 761,-291.43 754,-291.43"/>
</g>
<!-- Node6&#45;&gt;Node11 -->
<g id="edge13" class="edge">
<title>Node6&#45;&gt;Node11</title>
<path fill="none" stroke="midnightblue" d="M852.21,-300.98C1024.02,-274.28 1214.19,-257.88 1316.08,-250.16"/>
<polygon fill="midnightblue" stroke="midnightblue" points="851.56,-297.53 842.23,-302.54 852.65,-304.45 851.56,-297.53"/>
</g>
<!-- Node7&#45;&gt;Node8 -->
<g id="edge9" class="edge">
<title>Node7&#45;&gt;Node8</title>
<path fill="none" stroke="midnightblue" d="M741.72,-213.88C738.48,-204.72 735.56,-194.83 733.68,-186.51"/>
<polygon fill="midnightblue" stroke="midnightblue" points="738.52,-215.31 745.33,-223.43 745.07,-212.84 738.52,-215.31"/>
</g>
<!-- Node10 -->
<g id="node10" class="node">
<title>Node10</title>
<g id="a_node10"><a xlink:href="_open_g_l_context_8cpp.html" target="_top" xlink:title=" ">
<polygon fill="white" stroke="black" points="827,-151 827,-181 1006,-181 1006,-151 827,-151"/>
<text text-anchor="start" x="835" y="-169" font-family="Helvetica,sans-Serif" font-size="10.00">kryne&#45;engine/src/Core</text>
<text text-anchor="middle" x="916.5" y="-158" font-family="Helvetica,sans-Serif" font-size="10.00">/GraphicContext/OpenGLContext.cpp</text>
</a>
</g>
</g>
<!-- Node7&#45;&gt;Node10 -->
<g id="edge12" class="edge">
<title>Node7&#45;&gt;Node10</title>
<path fill="none" stroke="midnightblue" d="M807.77,-218.97C833.75,-206.55 864.56,-191.83 886.74,-181.23"/>
<polygon fill="midnightblue" stroke="midnightblue" points="805.96,-215.96 798.45,-223.43 808.98,-222.27 805.96,-215.96"/>
</g>
<!-- Node8&#45;&gt;Node7 -->
<g id="edge10" class="edge">
<title>Node8&#45;&gt;Node7</title>
<path fill="none" stroke="midnightblue" d="M749.25,-196.04C752.5,-205.2 755.42,-215.1 757.31,-223.43"/>
<polygon fill="midnightblue" stroke="midnightblue" points="752.46,-194.62 745.64,-186.51 745.91,-197.1 752.46,-194.62"/>
</g>
<!-- Node9 -->
<g id="node9" class="node">
<title>Node9</title>
<g id="a_node9"><a xlink:href="_open_g_l_renderer_8cpp.html" target="_top" xlink:title=" ">
<polygon fill="white" stroke="black" points="653,-73 653,-103 814,-103 814,-73 653,-73"/>
<text text-anchor="start" x="661" y="-91" font-family="Helvetica,sans-Serif" font-size="10.00">kryne&#45;engine/src/Rendering</text>
<text text-anchor="middle" x="733.5" y="-80" font-family="Helvetica,sans-Serif" font-size="10.00">/Renderers/OpenGLRenderer.cpp</text>
</a>
</g>
</g>
<!-- Node8&#45;&gt;Node9 -->
<g id="edge11" class="edge">
<title>Node8&#45;&gt;Node9</title>
<path fill="none" stroke="midnightblue" d="M733.5,-135.28C733.5,-124.25 733.5,-112.25 733.5,-103.23"/>
<polygon fill="midnightblue" stroke="midnightblue" points="730,-135.43 733.5,-145.43 737,-135.43 730,-135.43"/>
</g>
<!-- Node11&#45;&gt;Node3 -->
<g id="edge14" class="edge">
<title>Node11&#45;&gt;Node3</title>
<path fill="none" stroke="midnightblue" d="M1402.63,-268.91C1413.35,-299 1425.5,-352.38 1425.5,-399 1425.5,-479 1425.5,-479 1425.5,-479 1425.5,-500.89 1400.69,-490.56 1380.5,-499 1292.85,-535.63 1272.25,-548.92 1181.5,-577 1128.57,-593.38 1066.98,-607.13 1021.08,-616.12"/>
<polygon fill="midnightblue" stroke="midnightblue" points="1405.78,-267.36 1398.92,-259.29 1399.25,-269.88 1405.78,-267.36"/>
</g>
<!-- Node11&#45;&gt;Node12 -->
<g id="edge15" class="edge">
<title>Node11&#45;&gt;Node12</title>
<path fill="none" stroke="midnightblue" d="M1410.98,-222.25C1427.21,-209.23 1449.31,-192.78 1466.18,-181.23"/>
<polygon fill="midnightblue" stroke="midnightblue" points="1408.62,-219.67 1403.09,-228.7 1413.04,-225.09 1408.62,-219.67"/>
</g>
<!-- Node18 -->
<g id="node18" class="node">
<title>Node18</title>
<g id="a_node18"><a xlink:href="_process_8cpp.html" target="_top" xlink:title=" ">
<polygon fill="white" stroke="black" points="1288.5,-151 1288.5,-181 1400.5,-181 1400.5,-151 1288.5,-151"/>
<text text-anchor="start" x="1296.5" y="-169" font-family="Helvetica,sans-Serif" font-size="10.00">kryne&#45;engine/src/Core</text>
<text text-anchor="middle" x="1344.5" y="-158" font-family="Helvetica,sans-Serif" font-size="10.00">/Process.cpp</text>
</a>
</g>
</g>
<!-- Node11&#45;&gt;Node18 -->
<g id="edge22" class="edge">
<title>Node11&#45;&gt;Node18</title>
<path fill="none" stroke="midnightblue" d="M1375.93,-220.07C1368.44,-207.44 1359.39,-192.15 1352.93,-181.23"/>
<polygon fill="midnightblue" stroke="midnightblue" points="1372.93,-221.88 1381.04,-228.7 1378.95,-218.32 1372.93,-221.88"/>
</g>
<!-- Node12&#45;&gt;Node11 -->
<g id="edge16" class="edge">
<title>Node12&#45;&gt;Node11</title>
<path fill="none" stroke="midnightblue" d="M1469.3,-187.52C1452.99,-200.62 1430.65,-217.26 1413.65,-228.88"/>
<polygon fill="midnightblue" stroke="midnightblue" points="1471.69,-190.08 1477.22,-181.04 1467.26,-184.67 1471.69,-190.08"/>
</g>
<!-- Node13 -->
<g id="node13" class="node">
<title>Node13</title>
<g id="a_node13"><a xlink:href="_game_logic_components_runner_8h.html" target="_top" xlink:title=" ">
<polygon fill="white" stroke="black" points="1192,-67.5 1192,-108.5 1355,-108.5 1355,-67.5 1192,-67.5"/>
<text text-anchor="start" x="1200" y="-96.5" font-family="Helvetica,sans-Serif" font-size="10.00">kryne&#45;engine/include</text>
<text text-anchor="start" x="1200" y="-85.5" font-family="Helvetica,sans-Serif" font-size="10.00">/kryne&#45;engine/Systems</text>
<text text-anchor="middle" x="1273.5" y="-74.5" font-family="Helvetica,sans-Serif" font-size="10.00">/GameLogicComponentsRunner.h</text>
</a>
</g>
</g>
<!-- Node12&#45;&gt;Node13 -->
<g id="edge17" class="edge">
<title>Node12&#45;&gt;Node13</title>
<path fill="none" stroke="midnightblue" d="M1440.92,-147.64C1407.64,-135.98 1363.76,-120.61 1329.26,-108.53"/>
<polygon fill="midnightblue" stroke="midnightblue" points="1439.85,-150.97 1450.45,-150.97 1442.16,-144.36 1439.85,-150.97"/>
</g>
<!-- Node15 -->
<g id="node15" class="node">
<title>Node15</title>
<g id="a_node15"><a xlink:href="_transform_update_system_8h.html" target="_top" xlink:title=" ">
<polygon fill="white" stroke="black" points="1410,-67.5 1410,-108.5 1545,-108.5 1545,-67.5 1410,-67.5"/>
<text text-anchor="start" x="1418" y="-96.5" font-family="Helvetica,sans-Serif" font-size="10.00">kryne&#45;engine/include</text>
<text text-anchor="start" x="1418" y="-85.5" font-family="Helvetica,sans-Serif" font-size="10.00">/kryne&#45;engine/Systems</text>
<text text-anchor="middle" x="1477.5" y="-74.5" font-family="Helvetica,sans-Serif" font-size="10.00">/TransformUpdateSystem.h</text>
</a>
</g>
</g>
<!-- Node12&#45;&gt;Node15 -->
<g id="edge19" class="edge">
<title>Node12&#45;&gt;Node15</title>
<path fill="none" stroke="midnightblue" d="M1486.34,-140.66C1484.57,-130.33 1482.54,-118.44 1480.87,-108.68"/>
<polygon fill="midnightblue" stroke="midnightblue" points="1482.92,-141.44 1488.05,-150.7 1489.82,-140.26 1482.92,-141.44"/>
</g>
<!-- Node17 -->
<g id="node17" class="node">
<title>Node17</title>
<g id="a_node17"><a xlink:href="_system_8cpp.html" target="_top" xlink:title=" ">
<polygon fill="white" stroke="black" points="1563.5,-73 1563.5,-103 1675.5,-103 1675.5,-73 1563.5,-73"/>
<text text-anchor="start" x="1571.5" y="-91" font-family="Helvetica,sans-Serif" font-size="10.00">kryne&#45;engine/src/Core</text>
<text text-anchor="middle" x="1619.5" y="-80" font-family="Helvetica,sans-Serif" font-size="10.00">/System.cpp</text>
</a>
</g>
</g>
<!-- Node12&#45;&gt;Node17 -->
<g id="edge21" class="edge">
<title>Node12&#45;&gt;Node17</title>
<path fill="none" stroke="midnightblue" d="M1523.35,-145.64C1545.91,-132.35 1575.34,-115.02 1595.67,-103.04"/>
<polygon fill="midnightblue" stroke="midnightblue" points="1521.3,-142.79 1514.46,-150.88 1524.85,-148.82 1521.3,-142.79"/>
</g>
<!-- Node14 -->
<g id="node14" class="node">
<title>Node14</title>
<g id="a_node14"><a xlink:href="_game_logic_components_runner_8cpp.html" target="_top" xlink:title=" ">
<polygon fill="white" stroke="black" points="1187,-0.5 1187,-30.5 1360,-30.5 1360,-0.5 1187,-0.5"/>
<text text-anchor="start" x="1195" y="-18.5" font-family="Helvetica,sans-Serif" font-size="10.00">kryne&#45;engine/src/Systems</text>
<text text-anchor="middle" x="1273.5" y="-7.5" font-family="Helvetica,sans-Serif" font-size="10.00">/GameLogicComponentsRunner.cpp</text>
</a>
</g>
</g>
<!-- Node13&#45;&gt;Node14 -->
<g id="edge18" class="edge">
<title>Node13&#45;&gt;Node14</title>
<path fill="none" stroke="midnightblue" d="M1273.5,-57.08C1273.5,-48.01 1273.5,-38.45 1273.5,-30.89"/>
<polygon fill="midnightblue" stroke="midnightblue" points="1270,-57.36 1273.5,-67.36 1277,-57.36 1270,-57.36"/>
</g>
<!-- Node16 -->
<g id="node16" class="node">
<title>Node16</title>
<g id="a_node16"><a xlink:href="_transform_update_system_8cpp.html" target="_top" xlink:title=" ">
<polygon fill="white" stroke="black" points="1404.5,-0.5 1404.5,-30.5 1550.5,-30.5 1550.5,-0.5 1404.5,-0.5"/>
<text text-anchor="start" x="1412.5" y="-18.5" font-family="Helvetica,sans-Serif" font-size="10.00">kryne&#45;engine/src/Systems</text>
<text text-anchor="middle" x="1477.5" y="-7.5" font-family="Helvetica,sans-Serif" font-size="10.00">/TransformUpdateSystem.cpp</text>
</a>
</g>
</g>
<!-- Node15&#45;&gt;Node16 -->
<g id="edge20" class="edge">
<title>Node15&#45;&gt;Node16</title>
<path fill="none" stroke="midnightblue" d="M1477.5,-57.08C1477.5,-48.01 1477.5,-38.45 1477.5,-30.89"/>
<polygon fill="midnightblue" stroke="midnightblue" points="1474,-57.36 1477.5,-67.36 1481,-57.36 1474,-57.36"/>
</g>
<!-- Node20 -->
<g id="node20" class="node">
<title>Node20</title>
<g id="a_node20"><a xlink:href="_rendering_8h.html" target="_top" xlink:title=" ">
<polygon fill="white" stroke="black" points="225,-307 225,-337 350,-337 350,-307 225,-307"/>
<text text-anchor="start" x="233" y="-325" font-family="Helvetica,sans-Serif" font-size="10.00">kryne&#45;engine/include</text>
<text text-anchor="middle" x="287.5" y="-314" font-family="Helvetica,sans-Serif" font-size="10.00">/KEModules/Rendering.h</text>
</a>
</g>
</g>
<!-- Node19&#45;&gt;Node20 -->
<g id="edge25" class="edge">
<title>Node19&#45;&gt;Node20</title>
<path fill="none" stroke="midnightblue" d="M335.2,-371.99C323.77,-360.25 310.86,-346.99 301.35,-337.23"/>
<polygon fill="midnightblue" stroke="midnightblue" points="332.96,-374.71 342.44,-379.43 337.97,-369.82 332.96,-374.71"/>
</g>
<!-- Node21 -->
<g id="node21" class="node">
<title>Node21</title>
<g id="a_node21"><a xlink:href="_renderer_8cpp.html" target="_top" xlink:title=" ">
<polygon fill="white" stroke="black" points="368,-307 368,-337 503,-337 503,-307 368,-307"/>
<text text-anchor="start" x="376" y="-325" font-family="Helvetica,sans-Serif" font-size="10.00">kryne&#45;engine/src/Rendering</text>
<text text-anchor="middle" x="435.5" y="-314" font-family="Helvetica,sans-Serif" font-size="10.00">/Renderer.cpp</text>
</a>
</g>
</g>
<!-- Node19&#45;&gt;Node21 -->
<g id="edge26" class="edge">
<title>Node19&#45;&gt;Node21</title>
<path fill="none" stroke="midnightblue" d="M387.8,-371.99C399.23,-360.25 412.14,-346.99 421.65,-337.23"/>
<polygon fill="midnightblue" stroke="midnightblue" points="385.03,-369.82 380.56,-379.43 390.04,-374.71 385.03,-369.82"/>
</g>
<!-- Node23&#45;&gt;Node9 -->
<g id="edge40" class="edge">
<title>Node23&#45;&gt;Node9</title>
<path fill="none" stroke="midnightblue" d="M694.29,-529.53C656.54,-502.69 606.5,-456.61 606.5,-401 606.5,-401 606.5,-401 606.5,-243 606.5,-195.44 618.93,-181.44 649.5,-145 664.37,-127.28 686.24,-112.94 703.94,-103.21"/>
<polygon fill="midnightblue" stroke="midnightblue" points="692.4,-532.48 702.61,-535.29 696.38,-526.73 692.4,-532.48"/>
</g>
<!-- Node23&#45;&gt;Node19 -->
<g id="edge38" class="edge">
<title>Node23&#45;&gt;Node19</title>
<path fill="none" stroke="midnightblue" d="M669.34,-554.94C606.83,-552.1 512.47,-540.42 442.5,-499 434,-493.97 397.79,-448.06 376.77,-420.9"/>
<polygon fill="midnightblue" stroke="midnightblue" points="669.34,-558.44 679.47,-555.33 669.62,-551.44 669.34,-558.44"/>
</g>
<!-- Node24 -->
<g id="node24" class="node">
<title>Node24</title>
<g id="a_node24"><a xlink:href="_k_e_modules_2_camera_8h.html" target="_top" xlink:title=" ">
<polygon fill="white" stroke="black" points="860,-307 860,-337 975,-337 975,-307 860,-307"/>
<text text-anchor="start" x="868" y="-325" font-family="Helvetica,sans-Serif" font-size="10.00">kryne&#45;engine/include</text>
<text text-anchor="middle" x="917.5" y="-314" font-family="Helvetica,sans-Serif" font-size="10.00">/KEModules/Camera.h</text>
</a>
</g>
</g>
<!-- Node23&#45;&gt;Node24 -->
<g id="edge30" class="edge">
<title>Node23&#45;&gt;Node24</title>
<path fill="none" stroke="midnightblue" d="M778.01,-529.21C788.97,-520.78 799.83,-510.57 807.5,-499 837.99,-452.99 808.13,-424.42 839.5,-379 851.91,-361.03 872.04,-346.79 888.75,-337.16"/>
<polygon fill="midnightblue" stroke="midnightblue" points="775.67,-526.58 769.66,-535.3 779.8,-532.24 775.67,-526.58"/>
</g>
<!-- Node25 -->
<g id="node25" class="node">
<title>Node25</title>
<g id="a_node25"><a xlink:href="_mesh_8h.html" target="_top" xlink:title=" ">
<polygon fill="white" stroke="black" points="451.5,-457.5 451.5,-498.5 575.5,-498.5 575.5,-457.5 451.5,-457.5"/>
<text text-anchor="start" x="459.5" y="-486.5" font-family="Helvetica,sans-Serif" font-size="10.00">kryne&#45;engine/include</text>
<text text-anchor="start" x="459.5" y="-475.5" font-family="Helvetica,sans-Serif" font-size="10.00">/kryne&#45;engine/3DObjects</text>
<text text-anchor="middle" x="513.5" y="-464.5" font-family="Helvetica,sans-Serif" font-size="10.00">/Mesh.h</text>
</a>
</g>
</g>
<!-- Node23&#45;&gt;Node25 -->
<g id="edge31" class="edge">
<title>Node23&#45;&gt;Node25</title>
<path fill="none" stroke="midnightblue" d="M669.91,-532.54C638.4,-521.76 600.99,-508.95 570.66,-498.57"/>
<polygon fill="midnightblue" stroke="midnightblue" points="668.89,-535.89 679.48,-535.82 671.15,-529.27 668.89,-535.89"/>
</g>
<!-- Node27 -->
<g id="node27" class="node">
<title>Node27</title>
<g id="a_node27"><a xlink:href="_orbit_controls_component_8h.html" target="_top" xlink:title=" ">
<polygon fill="white" stroke="black" points="1001.5,-379.5 1001.5,-420.5 1135.5,-420.5 1135.5,-379.5 1001.5,-379.5"/>
<text text-anchor="start" x="1009.5" y="-408.5" font-family="Helvetica,sans-Serif" font-size="10.00">kryne&#45;engine/include</text>
<text text-anchor="start" x="1009.5" y="-397.5" font-family="Helvetica,sans-Serif" font-size="10.00">/kryne&#45;engine/Camera</text>
<text text-anchor="middle" x="1068.5" y="-386.5" font-family="Helvetica,sans-Serif" font-size="10.00">/OrbitControlsComponent.h</text>
</a>
</g>
</g>
<!-- Node23&#45;&gt;Node27 -->
<g id="edge35" class="edge">
<title>Node23&#45;&gt;Node27</title>
<path fill="none" stroke="midnightblue" d="M787.71,-530.86C805.14,-521.86 824.24,-510.9 840.5,-499 862.06,-483.22 860.5,-470.59 883.5,-457 894.04,-450.77 952.73,-433.43 1001.22,-419.68"/>
<polygon fill="midnightblue" stroke="midnightblue" points="786.12,-527.75 778.78,-535.39 789.28,-533.99 786.12,-527.75"/>
</g>
<!-- Node29 -->
<g id="node29" class="node">
<title>Node29</title>
<g id="a_node29"><a xlink:href="_camera_8cpp.html" target="_top" xlink:title=" ">
<polygon fill="white" stroke="black" points="673,-463 673,-493 798,-493 798,-463 673,-463"/>
<text text-anchor="start" x="681" y="-481" font-family="Helvetica,sans-Serif" font-size="10.00">kryne&#45;engine/src/Camera</text>
<text text-anchor="middle" x="735.5" y="-470" font-family="Helvetica,sans-Serif" font-size="10.00">/Camera.cpp</text>
</a>
</g>
</g>
<!-- Node23&#45;&gt;Node29 -->
<g id="edge39" class="edge">
<title>Node23&#45;&gt;Node29</title>
<path fill="none" stroke="midnightblue" d="M735.5,-525.28C735.5,-514.25 735.5,-502.25 735.5,-493.23"/>
<polygon fill="midnightblue" stroke="midnightblue" points="732,-525.43 735.5,-535.43 739,-525.43 732,-525.43"/>
</g>
<!-- Node25&#45;&gt;Node2 -->
<g id="edge32" class="edge">
<title>Node25&#45;&gt;Node2</title>
<path fill="none" stroke="midnightblue" d="M441.3,-459.18C397.84,-448.36 341.43,-434.14 291.5,-421 284.26,-419.09 276.62,-417.05 269.12,-415.01"/>
<polygon fill="midnightblue" stroke="midnightblue" points="440.66,-462.63 451.21,-461.65 442.35,-455.84 440.66,-462.63"/>
</g>
<!-- Node25&#45;&gt;Node19 -->
<g id="edge33" class="edge">
<title>Node25&#45;&gt;Node19</title>
<path fill="none" stroke="midnightblue" d="M465.32,-452.91C444.42,-442.46 420.26,-430.38 400.51,-420.51"/>
<polygon fill="midnightblue" stroke="midnightblue" points="463.85,-456.09 474.36,-457.43 466.98,-449.83 463.85,-456.09"/>
</g>
<!-- Node26 -->
<g id="node26" class="node">
<title>Node26</title>
<g id="a_node26"><a xlink:href="_mesh_8cpp.html" target="_top" xlink:title=" ">
<polygon fill="white" stroke="black" points="441,-385 441,-415 578,-415 578,-385 441,-385"/>
<text text-anchor="start" x="449" y="-403" font-family="Helvetica,sans-Serif" font-size="10.00">kryne&#45;engine/src/3DObjects</text>
<text text-anchor="middle" x="509.5" y="-392" font-family="Helvetica,sans-Serif" font-size="10.00">/Mesh.cpp</text>
</a>
</g>
</g>
<!-- Node25&#45;&gt;Node26 -->
<g id="edge34" class="edge">
<title>Node25&#45;&gt;Node26</title>
<path fill="none" stroke="midnightblue" d="M511.94,-447.28C511.36,-436.25 510.72,-424.25 510.25,-415.23"/>
<polygon fill="midnightblue" stroke="midnightblue" points="508.45,-447.63 512.47,-457.43 515.44,-447.26 508.45,-447.63"/>
</g>
<!-- Node27&#45;&gt;Node24 -->
<g id="edge36" class="edge">
<title>Node27&#45;&gt;Node24</title>
<path fill="none" stroke="midnightblue" d="M1020.43,-374.81C995.83,-362.43 966.73,-347.78 945.76,-337.23"/>
<polygon fill="midnightblue" stroke="midnightblue" points="1019.11,-378.06 1029.61,-379.43 1022.25,-371.81 1019.11,-378.06"/>
</g>
<!-- Node28 -->
<g id="node28" class="node">
<title>Node28</title>
<g id="a_node28"><a xlink:href="_orbit_controls_component_8cpp.html" target="_top" xlink:title=" ">
<polygon fill="white" stroke="black" points="993,-307 993,-337 1138,-337 1138,-307 993,-307"/>
<text text-anchor="start" x="1001" y="-325" font-family="Helvetica,sans-Serif" font-size="10.00">kryne&#45;engine/src/Camera</text>
<text text-anchor="middle" x="1065.5" y="-314" font-family="Helvetica,sans-Serif" font-size="10.00">/OrbitControlsComponent.cpp</text>
</a>
</g>
</g>
<!-- Node27&#45;&gt;Node28 -->
<g id="edge37" class="edge">
<title>Node27&#45;&gt;Node28</title>
<path fill="none" stroke="midnightblue" d="M1067.33,-369.28C1066.89,-358.25 1066.42,-346.25 1066.06,-337.23"/>
<polygon fill="midnightblue" stroke="midnightblue" points="1063.84,-369.57 1067.73,-379.43 1070.83,-369.3 1063.84,-369.57"/>
</g>
<!-- Node30&#45;&gt;Node3 -->
<g id="edge46" class="edge">
<title>Node30&#45;&gt;Node3</title>
<path fill="none" stroke="midnightblue" d="M959.95,-581.24C960.55,-591.91 960.25,-604.06 959.05,-613.23"/>
<polygon fill="midnightblue" stroke="midnightblue" points="963.43,-580.89 959.05,-571.25 956.46,-581.52 963.43,-580.89"/>
</g>
<!-- Node31 -->
<g id="node31" class="node">
<title>Node31</title>
<g id="a_node31"><a xlink:href="_logic_component_8h.html" target="_top" xlink:title=" ">
<polygon fill="white" stroke="black" points="1180.5,-463 1180.5,-493 1362.5,-493 1362.5,-463 1180.5,-463"/>
<text text-anchor="start" x="1188.5" y="-481" font-family="Helvetica,sans-Serif" font-size="10.00">kryne&#45;engine/include</text>
<text text-anchor="middle" x="1271.5" y="-470" font-family="Helvetica,sans-Serif" font-size="10.00">/kryne&#45;engine/Core/LogicComponent.h</text>
</a>
</g>
</g>
<!-- Node30&#45;&gt;Node31 -->
<g id="edge42" class="edge">
<title>Node30&#45;&gt;Node31</title>
<path fill="none" stroke="midnightblue" d="M1022.18,-538.59C1079.05,-524.99 1158.98,-505.89 1212.88,-493.01"/>
<polygon fill="midnightblue" stroke="midnightblue" points="1021.11,-535.24 1012.2,-540.97 1022.74,-542.05 1021.11,-535.24"/>
</g>
<!-- Node33 -->
<g id="node33" class="node">
<title>Node33</title>
<g id="a_node33"><a xlink:href="_render_mesh_8h.html" target="_top" xlink:title=" ">
<polygon fill="white" stroke="black" points="892.5,-457.5 892.5,-498.5 1014.5,-498.5 1014.5,-457.5 892.5,-457.5"/>
<text text-anchor="start" x="900.5" y="-486.5" font-family="Helvetica,sans-Serif" font-size="10.00">kryne&#45;engine/include</text>
<text text-anchor="start" x="900.5" y="-475.5" font-family="Helvetica,sans-Serif" font-size="10.00">/kryne&#45;engine/Rendering</text>
<text text-anchor="middle" x="953.5" y="-464.5" font-family="Helvetica,sans-Serif" font-size="10.00">/RenderMesh.h</text>
</a>
</g>
</g>
<!-- Node30&#45;&gt;Node33 -->
<g id="edge47" class="edge">
<title>Node30&#45;&gt;Node33</title>
<path fill="none" stroke="midnightblue" d="M953.5,-530.66C953.5,-520.33 953.5,-508.44 953.5,-498.68"/>
<polygon fill="midnightblue" stroke="midnightblue" points="950,-530.7 953.5,-540.7 957,-530.71 950,-530.7"/>
</g>
<!-- Node35 -->
<g id="node35" class="node">
<title>Node35</title>
<g id="a_node35"><a xlink:href="_component_8cpp.html" target="_top" xlink:title=" ">
<polygon fill="white" stroke="black" points="1032.5,-463 1032.5,-493 1144.5,-493 1144.5,-463 1032.5,-463"/>
<text text-anchor="start" x="1040.5" y="-481" font-family="Helvetica,sans-Serif" font-size="10.00">kryne&#45;engine/src/Core</text>
<text text-anchor="middle" x="1088.5" y="-470" font-family="Helvetica,sans-Serif" font-size="10.00">/Component.cpp</text>
</a>
</g>
</g>
<!-- Node30&#45;&gt;Node35 -->
<g id="edge52" class="edge">
<title>Node30&#45;&gt;Node35</title>
<path fill="none" stroke="midnightblue" d="M987.57,-535.82C1011.22,-522.51 1042.19,-505.07 1063.56,-493.04"/>
<polygon fill="midnightblue" stroke="midnightblue" points="985.57,-532.93 978.58,-540.88 989.01,-539.03 985.57,-532.93"/>
</g>
<!-- Node31&#45;&gt;Node13 -->
<g id="edge44" class="edge">
<title>Node31&#45;&gt;Node13</title>
<path fill="none" stroke="midnightblue" d="M1313.35,-457.73C1327.83,-448.77 1342.45,-436.58 1350.5,-421 1359.07,-404.42 1353.85,-397.36 1350.5,-379 1334.18,-289.49 1297.83,-276.11 1279.5,-187 1274,-160.29 1273.03,-128.68 1273.08,-108.74"/>
<polygon fill="midnightblue" stroke="midnightblue" points="1311.31,-454.87 1304.4,-462.9 1314.81,-460.93 1311.31,-454.87"/>
</g>
<!-- Node31&#45;&gt;Node27 -->
<g id="edge43" class="edge">
<title>Node31&#45;&gt;Node27</title>
<path fill="none" stroke="midnightblue" d="M1224.11,-459.26C1193.19,-447.68 1152.81,-432.56 1120.93,-420.63"/>
<polygon fill="midnightblue" stroke="midnightblue" points="1223.2,-462.65 1233.79,-462.88 1225.65,-456.1 1223.2,-462.65"/>
</g>
<!-- Node32 -->
<g id="node32" class="node">
<title>Node32</title>
<g id="a_node32"><a xlink:href="_logic_component_8cpp.html" target="_top" xlink:title=" ">
<polygon fill="white" stroke="black" points="1229.5,-385 1229.5,-415 1341.5,-415 1341.5,-385 1229.5,-385"/>
<text text-anchor="start" x="1237.5" y="-403" font-family="Helvetica,sans-Serif" font-size="10.00">kryne&#45;engine/src/Core</text>
<text text-anchor="middle" x="1285.5" y="-392" font-family="Helvetica,sans-Serif" font-size="10.00">/LogicComponent.cpp</text>
</a>
</g>
</g>
<!-- Node31&#45;&gt;Node32 -->
<g id="edge45" class="edge">
<title>Node31&#45;&gt;Node32</title>
<path fill="none" stroke="midnightblue" d="M1276,-452.59C1278.27,-440.26 1280.95,-425.72 1282.88,-415.23"/>
<polygon fill="midnightblue" stroke="midnightblue" points="1272.5,-452.24 1274.13,-462.7 1279.39,-453.5 1272.5,-452.24"/>
</g>
<!-- Node33&#45;&gt;Node5 -->
<g id="edge49" class="edge">
<title>Node33&#45;&gt;Node5</title>
<path fill="none" stroke="midnightblue" d="M882.53,-456.09C843.06,-444.47 794.43,-430.14 756.65,-419.01"/>
<polygon fill="midnightblue" stroke="midnightblue" points="881.78,-459.52 892.36,-458.99 883.75,-452.81 881.78,-459.52"/>
</g>
<!-- Node33&#45;&gt;Node9 -->
<g id="edge50" class="edge">
<title>Node33&#45;&gt;Node9</title>
<path fill="none" stroke="midnightblue" d="M1024.45,-456.71C1078.38,-441.2 1143.51,-422.27 1144.5,-421 1177.29,-378.92 1165.85,-351.09 1147.5,-301 1116.26,-215.72 1093.76,-191.09 1015.5,-145 954.11,-108.84 873.5,-95.59 814.19,-90.95"/>
<polygon fill="midnightblue" stroke="midnightblue" points="1023.18,-453.43 1014.53,-459.56 1025.11,-460.16 1023.18,-453.43"/>
</g>
<!-- Node33&#45;&gt;Node11 -->
<g id="edge48" class="edge">
<title>Node33&#45;&gt;Node11</title>
<path fill="none" stroke="midnightblue" d="M1024.6,-456.88C1093.8,-440.63 1118.64,-453.28 1177.5,-421 1200.92,-408.15 1200.45,-396.66 1220.5,-379 1272.91,-332.85 1338.65,-282.82 1370.48,-259.06"/>
<polygon fill="midnightblue" stroke="midnightblue" points="1023.4,-453.57 1014.54,-459.37 1025.08,-460.37 1023.4,-453.57"/>
</g>
<!-- Node34 -->
<g id="node34" class="node">
<title>Node34</title>
<g id="a_node34"><a xlink:href="_render_mesh_8cpp.html" target="_top" xlink:title=" ">
<polygon fill="white" stroke="black" points="848,-385 848,-415 983,-415 983,-385 848,-385"/>
<text text-anchor="start" x="856" y="-403" font-family="Helvetica,sans-Serif" font-size="10.00">kryne&#45;engine/src/Rendering</text>
<text text-anchor="middle" x="915.5" y="-392" font-family="Helvetica,sans-Serif" font-size="10.00">/RenderMesh.cpp</text>
</a>
</g>
</g>
<!-- Node33&#45;&gt;Node34 -->
<g id="edge51" class="edge">
<title>Node33&#45;&gt;Node34</title>
<path fill="none" stroke="midnightblue" d="M939.15,-448.3C933.5,-437 927.26,-424.52 922.61,-415.23"/>
<polygon fill="midnightblue" stroke="midnightblue" points="936.11,-450.05 943.71,-457.43 942.37,-446.92 936.11,-450.05"/>
</g>
</g>
</svg>
