<?xml version="1.0" encoding="UTF-8" standalone="no"?>
<!DOCTYPE svg PUBLIC "-//W3C//DTD SVG 1.1//EN"
 "http://www.w3.org/Graphics/SVG/1.1/DTD/svg11.dtd">
<!-- Generated by graphviz version 2.40.1 (20161225.0304)
 -->
<!-- Title: kryne&#45;engine/include/kryne&#45;engine/Utils/VectorMapping.hpp Pages: 1 -->
<svg width="207pt" height="95pt"
 viewBox="0.00 0.00 206.50 95.00" xmlns="http://www.w3.org/2000/svg" xmlns:xlink="http://www.w3.org/1999/xlink">
<g id="graph0" class="graph" transform="scale(1 1) rotate(0) translate(4 91)">
<title>kryne&#45;engine/include/kryne&#45;engine/Utils/VectorMapping.hpp</title>
<polygon fill="#ffffff" stroke="transparent" points="-4,4 -4,-91 202.5,-91 202.5,4 -4,4"/>
<!-- Node0 -->
<g id="node1" class="node">
<title>Node0</title>
<polygon fill="#bfbfbf" stroke="#000000" points="0,-56.5 0,-86.5 185,-86.5 185,-56.5 0,-56.5"/>
<text text-anchor="start" x="8" y="-74.5" font-family="Helvetica,sans-Serif" font-size="10.00" fill="#000000">kryne&#45;engine/include</text>
<text text-anchor="middle" x="92.5" y="-63.5" font-family="Helvetica,sans-Serif" font-size="10.00" fill="#000000">/kryne&#45;engine/Utils/VectorMapping.hpp</text>
</g>
<!-- Node1 -->
<g id="node2" class="node">
<title>Node1</title>
<polygon fill="#ffffff" stroke="#bfbfbf" points="22.5,-.5 22.5,-19.5 66.5,-19.5 66.5,-.5 22.5,-.5"/>
<text text-anchor="middle" x="44.5" y="-7.5" font-family="Helvetica,sans-Serif" font-size="10.00" fill="#000000">vector</text>
</g>
<!-- Node0&#45;&gt;Node1 -->
<g id="edge1" class="edge">
<title>Node0&#45;&gt;Node1</title>
<path fill="none" stroke="#191970" d="M80.6348,-56.2977C73.9025,-47.672 65.4415,-36.8312 58.3994,-27.8087"/>
<polygon fill="#191970" stroke="#191970" points="61.0973,-25.5766 52.1854,-19.8469 55.579,-29.8836 61.0973,-25.5766"/>
</g>
<!-- Node2 -->
<g id="node3" class="node">
<title>Node2</title>
<polygon fill="#ffffff" stroke="#bfbfbf" points="84.5,-.5 84.5,-19.5 198.5,-19.5 198.5,-.5 84.5,-.5"/>
<text text-anchor="middle" x="141.5" y="-7.5" font-family="Helvetica,sans-Serif" font-size="10.00" fill="#000000">glm/detail/qualifier.hpp</text>
</g>
<!-- Node0&#45;&gt;Node2 -->
<g id="edge2" class="edge">
<title>Node0&#45;&gt;Node2</title>
<path fill="none" stroke="#191970" d="M104.6124,-56.2977C111.4849,-47.672 120.1223,-36.8312 127.311,-27.8087"/>
<polygon fill="#191970" stroke="#191970" points="130.1604,-29.849 133.6545,-19.8469 124.6856,-25.487 130.1604,-29.849"/>
</g>
</g>
</svg>
