<?xml version="1.0" encoding="UTF-8" standalone="no"?>
<!DOCTYPE svg PUBLIC "-//W3C//DTD SVG 1.1//EN"
 "http://www.w3.org/Graphics/SVG/1.1/DTD/svg11.dtd">
<!-- Generated by graphviz version 2.44.1 (20200629.0846)
 -->
<!-- Title: kryne&#45;engine/include/kryne&#45;engine/Core/Window.h Pages: 1 -->
<svg width="1796pt" height="496pt"
 viewBox="0.00 0.00 1795.77 496.00" xmlns="http://www.w3.org/2000/svg" xmlns:xlink="http://www.w3.org/1999/xlink">
<g id="graph0" class="graph" transform="scale(1 1) rotate(0) translate(4 492)">
<title>kryne&#45;engine/include/kryne&#45;engine/Core/Window.h</title>
<polygon fill="white" stroke="transparent" points="-4,4 -4,-492 1791.77,-492 1791.77,4 -4,4"/>
<!-- Node1 -->
<g id="node1" class="node">
<title>Node1</title>
<g id="a_node1"><a xlink:title=" ">
<polygon fill="#bfbfbf" stroke="black" points="605,-457.5 605,-487.5 749,-487.5 749,-457.5 605,-457.5"/>
<text text-anchor="start" x="613" y="-475.5" font-family="Helvetica,sans-Serif" font-size="10.00">kryne&#45;engine/include</text>
<text text-anchor="middle" x="677" y="-464.5" font-family="Helvetica,sans-Serif" font-size="10.00">/kryne&#45;engine/Core/Window.h</text>
</a>
</g>
</g>
<!-- Node2 -->
<g id="node2" class="node">
<title>Node2</title>
<g id="a_node2"><a xlink:href="_core_8h.html" target="_top" xlink:title=" ">
<polygon fill="white" stroke="black" points="184,-0.5 184,-30.5 290,-30.5 290,-0.5 184,-0.5"/>
<text text-anchor="start" x="192" y="-18.5" font-family="Helvetica,sans-Serif" font-size="10.00">kryne&#45;engine/include</text>
<text text-anchor="middle" x="237" y="-7.5" font-family="Helvetica,sans-Serif" font-size="10.00">/KEModules/Core.h</text>
</a>
</g>
</g>
<!-- Node1&#45;&gt;Node2 -->
<g id="edge1" class="edge">
<title>Node1&#45;&gt;Node2</title>
<path fill="none" stroke="midnightblue" d="M594.63,-469.94C414.19,-464.29 0,-438.18 0,-317.5 0,-317.5 0,-317.5 0,-154 0,-69.56 113.94,-36.11 183.81,-23.54"/>
<polygon fill="midnightblue" stroke="midnightblue" points="594.77,-473.45 604.87,-470.25 594.98,-466.45 594.77,-473.45"/>
</g>
<!-- Node3 -->
<g id="node3" class="node">
<title>Node3</title>
<g id="a_node3"><a xlink:href="_old_camera_8h.html" target="_top" xlink:title=" ">
<polygon fill="white" stroke="black" points="476,-379.5 476,-420.5 588,-420.5 588,-379.5 476,-379.5"/>
<text text-anchor="start" x="484" y="-408.5" font-family="Helvetica,sans-Serif" font-size="10.00">kryne&#45;engine/include</text>
<text text-anchor="start" x="484" y="-397.5" font-family="Helvetica,sans-Serif" font-size="10.00">/kryne&#45;engine/Camera</text>
<text text-anchor="middle" x="532" y="-386.5" font-family="Helvetica,sans-Serif" font-size="10.00">/OldCamera.h</text>
</a>
</g>
</g>
<!-- Node1&#45;&gt;Node3 -->
<g id="edge2" class="edge">
<title>Node1&#45;&gt;Node3</title>
<path fill="none" stroke="midnightblue" d="M633.21,-453.13C611.67,-443.12 586.16,-430.73 566.09,-420.55"/>
<polygon fill="midnightblue" stroke="midnightblue" points="631.93,-456.4 642.48,-457.4 634.86,-450.04 631.93,-456.4"/>
</g>
<!-- Node11 -->
<g id="node11" class="node">
<title>Node11</title>
<g id="a_node11"><a xlink:href="_old_process_8h.html" target="_top" xlink:title=" ">
<polygon fill="white" stroke="black" points="520.5,-67.5 520.5,-97.5 681.5,-97.5 681.5,-67.5 520.5,-67.5"/>
<text text-anchor="start" x="528.5" y="-85.5" font-family="Helvetica,sans-Serif" font-size="10.00">kryne&#45;engine/include</text>
<text text-anchor="middle" x="601" y="-74.5" font-family="Helvetica,sans-Serif" font-size="10.00">/kryne&#45;engine/Core/OldProcess.h</text>
</a>
</g>
</g>
<!-- Node1&#45;&gt;Node11 -->
<g id="edge24" class="edge">
<title>Node1&#45;&gt;Node11</title>
<path fill="none" stroke="midnightblue" d="M667.36,-447.81C656.1,-417.95 639,-364.8 639,-317.5 639,-317.5 639,-317.5 639,-232 639,-181.17 617.85,-123.53 607.11,-97.53"/>
<polygon fill="midnightblue" stroke="midnightblue" points="664.18,-449.29 671.06,-457.35 670.71,-446.76 664.18,-449.29"/>
</g>
<!-- Node15 -->
<g id="node15" class="node">
<title>Node15</title>
<g id="a_node15"><a xlink:href="_render_scene_8h.html" target="_top" xlink:title=" ">
<polygon fill="white" stroke="black" points="687,-134.5 687,-175.5 809,-175.5 809,-134.5 687,-134.5"/>
<text text-anchor="start" x="695" y="-163.5" font-family="Helvetica,sans-Serif" font-size="10.00">kryne&#45;engine/include</text>
<text text-anchor="start" x="695" y="-152.5" font-family="Helvetica,sans-Serif" font-size="10.00">/kryne&#45;engine/Rendering</text>
<text text-anchor="middle" x="748" y="-141.5" font-family="Helvetica,sans-Serif" font-size="10.00">/RenderScene.h</text>
</a>
</g>
</g>
<!-- Node1&#45;&gt;Node15 -->
<g id="edge43" class="edge">
<title>Node1&#45;&gt;Node15</title>
<path fill="none" stroke="midnightblue" d="M679.75,-447.52C685.42,-401.27 700.02,-296.84 725,-212 728.65,-199.6 734.1,-186.19 738.78,-175.6"/>
<polygon fill="midnightblue" stroke="midnightblue" points="676.27,-447.13 678.56,-457.48 683.22,-447.97 676.27,-447.13"/>
</g>
<!-- Node18 -->
<g id="node18" class="node">
<title>Node18</title>
<g id="a_node18"><a xlink:href="_old_render_pass_8h.html" target="_top" xlink:title=" ">
<polygon fill="white" stroke="black" points="1203,-379.5 1203,-420.5 1325,-420.5 1325,-379.5 1203,-379.5"/>
<text text-anchor="start" x="1211" y="-408.5" font-family="Helvetica,sans-Serif" font-size="10.00">kryne&#45;engine/include</text>
<text text-anchor="start" x="1211" y="-397.5" font-family="Helvetica,sans-Serif" font-size="10.00">/kryne&#45;engine/Rendering</text>
<text text-anchor="middle" x="1264" y="-386.5" font-family="Helvetica,sans-Serif" font-size="10.00">/OldRenderPass.h</text>
</a>
</g>
</g>
<!-- Node1&#45;&gt;Node18 -->
<g id="edge25" class="edge">
<title>Node1&#45;&gt;Node18</title>
<path fill="none" stroke="midnightblue" d="M759.36,-467.5C861,-461.62 1038.82,-448.24 1189,-421 1193.51,-420.18 1198.14,-419.23 1202.79,-418.19"/>
<polygon fill="midnightblue" stroke="midnightblue" points="758.95,-464.02 749.16,-468.08 759.34,-471.01 758.95,-464.02"/>
</g>
<!-- Node21 -->
<g id="node21" class="node">
<title>Node21</title>
<g id="a_node21"><a xlink:href="_shadow_map_handler_8h.html" target="_top" xlink:title=" ">
<polygon fill="white" stroke="black" points="1165,-212.5 1165,-253.5 1353,-253.5 1353,-212.5 1165,-212.5"/>
<text text-anchor="start" x="1173" y="-241.5" font-family="Helvetica,sans-Serif" font-size="10.00">kryne&#45;engine/include</text>
<text text-anchor="start" x="1173" y="-230.5" font-family="Helvetica,sans-Serif" font-size="10.00">/kryne&#45;engine/Rendering</text>
<text text-anchor="middle" x="1259" y="-219.5" font-family="Helvetica,sans-Serif" font-size="10.00">/ShadowMapping/ShadowMapHandler.h</text>
</a>
</g>
</g>
<!-- Node1&#45;&gt;Node21 -->
<g id="edge44" class="edge">
<title>Node1&#45;&gt;Node21</title>
<path fill="none" stroke="midnightblue" d="M759.24,-466.23C860.66,-456.18 1034.51,-427.09 1156,-343 1179.83,-326.5 1174.44,-311.39 1194,-290 1205.96,-276.92 1220.85,-263.9 1233.36,-253.71"/>
<polygon fill="midnightblue" stroke="midnightblue" points="758.67,-462.77 749.05,-467.2 759.34,-469.73 758.67,-462.77"/>
</g>
<!-- Node26 -->
<g id="node26" class="node">
<title>Node26</title>
<g id="a_node26"><a xlink:href="_renderer_8h.html" target="_top" xlink:title=" ">
<polygon fill="white" stroke="black" points="1453,-379.5 1453,-420.5 1575,-420.5 1575,-379.5 1453,-379.5"/>
<text text-anchor="start" x="1461" y="-408.5" font-family="Helvetica,sans-Serif" font-size="10.00">kryne&#45;engine/include</text>
<text text-anchor="start" x="1461" y="-397.5" font-family="Helvetica,sans-Serif" font-size="10.00">/kryne&#45;engine/Rendering</text>
<text text-anchor="middle" x="1514" y="-386.5" font-family="Helvetica,sans-Serif" font-size="10.00">/Renderer.h</text>
</a>
</g>
</g>
<!-- Node1&#45;&gt;Node26 -->
<g id="edge40" class="edge">
<title>Node1&#45;&gt;Node26</title>
<path fill="none" stroke="midnightblue" d="M759.22,-466.08C883.7,-457.67 1127.39,-440.41 1334,-421 1373.6,-417.28 1418.02,-412.35 1452.82,-408.32"/>
<polygon fill="midnightblue" stroke="midnightblue" points="758.75,-462.6 749.01,-466.77 759.22,-469.59 758.75,-462.6"/>
</g>
<!-- Node28 -->
<g id="node28" class="node">
<title>Node28</title>
<g id="a_node28"><a xlink:href="_window_8cpp.html" target="_top" xlink:title=" ">
<polygon fill="white" stroke="black" points="1593,-385 1593,-415 1705,-415 1705,-385 1593,-385"/>
<text text-anchor="start" x="1601" y="-403" font-family="Helvetica,sans-Serif" font-size="10.00">kryne&#45;engine/src/Core</text>
<text text-anchor="middle" x="1649" y="-392" font-family="Helvetica,sans-Serif" font-size="10.00">/Window.cpp</text>
</a>
</g>
</g>
<!-- Node1&#45;&gt;Node28 -->
<g id="edge45" class="edge">
<title>Node1&#45;&gt;Node28</title>
<path fill="none" stroke="midnightblue" d="M759.38,-469.47C951.93,-464.32 1427.01,-449.09 1584,-421 1592.14,-419.54 1600.68,-417.39 1608.81,-415.03"/>
<polygon fill="midnightblue" stroke="midnightblue" points="759.22,-465.97 749.32,-469.74 759.41,-472.97 759.22,-465.97"/>
</g>
<!-- Node3&#45;&gt;Node1 -->
<g id="edge13" class="edge">
<title>Node3&#45;&gt;Node1</title>
<path fill="none" stroke="midnightblue" d="M587.61,-424.91C610.46,-435.72 635.66,-448.11 653.53,-457.4"/>
<polygon fill="midnightblue" stroke="midnightblue" points="588.86,-421.63 578.32,-420.55 585.88,-427.97 588.86,-421.63"/>
</g>
<!-- Node4 -->
<g id="node4" class="node">
<title>Node4</title>
<g id="a_node4"><a xlink:href="_k_e_modules_2_camera_8h.html" target="_top" xlink:title=" ">
<polygon fill="white" stroke="black" points="171.5,-218 171.5,-248 286.5,-248 286.5,-218 171.5,-218"/>
<text text-anchor="start" x="179.5" y="-236" font-family="Helvetica,sans-Serif" font-size="10.00">kryne&#45;engine/include</text>
<text text-anchor="middle" x="229" y="-225" font-family="Helvetica,sans-Serif" font-size="10.00">/KEModules/Camera.h</text>
</a>
</g>
</g>
<!-- Node3&#45;&gt;Node4 -->
<g id="edge3" class="edge">
<title>Node3&#45;&gt;Node4</title>
<path fill="none" stroke="midnightblue" d="M465.74,-394.44C418.59,-388.46 355.58,-374.69 309,-343 285.04,-326.7 288.14,-313.37 271,-290 260.51,-275.69 248.32,-259.49 239.79,-248.21"/>
<polygon fill="midnightblue" stroke="midnightblue" points="465.51,-397.93 475.86,-395.63 466.34,-390.98 465.51,-397.93"/>
</g>
<!-- Node5 -->
<g id="node5" class="node">
<title>Node5</title>
<g id="a_node5"><a xlink:href="_basic_camera_8h.html" target="_top" xlink:title=" ">
<polygon fill="white" stroke="black" points="150,-296 150,-337 262,-337 262,-296 150,-296"/>
<text text-anchor="start" x="158" y="-325" font-family="Helvetica,sans-Serif" font-size="10.00">kryne&#45;engine/include</text>
<text text-anchor="start" x="158" y="-314" font-family="Helvetica,sans-Serif" font-size="10.00">/kryne&#45;engine/Camera</text>
<text text-anchor="middle" x="206" y="-303" font-family="Helvetica,sans-Serif" font-size="10.00">/BasicCamera.h</text>
</a>
</g>
</g>
<!-- Node3&#45;&gt;Node5 -->
<g id="edge4" class="edge">
<title>Node3&#45;&gt;Node5</title>
<path fill="none" stroke="midnightblue" d="M465.67,-387.02C413.63,-377.02 339.6,-361.45 276,-343 269.91,-341.23 263.59,-339.21 257.35,-337.09"/>
<polygon fill="midnightblue" stroke="midnightblue" points="465.3,-390.52 475.78,-388.95 466.61,-383.64 465.3,-390.52"/>
</g>
<!-- Node7 -->
<g id="node7" class="node">
<title>Node7</title>
<g id="a_node7"><a xlink:href="_first_person_camera_8h.html" target="_top" xlink:title=" ">
<polygon fill="white" stroke="black" points="318,-296 318,-337 430,-337 430,-296 318,-296"/>
<text text-anchor="start" x="326" y="-325" font-family="Helvetica,sans-Serif" font-size="10.00">kryne&#45;engine/include</text>
<text text-anchor="start" x="326" y="-314" font-family="Helvetica,sans-Serif" font-size="10.00">/kryne&#45;engine/Camera</text>
<text text-anchor="middle" x="374" y="-303" font-family="Helvetica,sans-Serif" font-size="10.00">/FirstPersonCamera.h</text>
</a>
</g>
</g>
<!-- Node3&#45;&gt;Node7 -->
<g id="edge7" class="edge">
<title>Node3&#45;&gt;Node7</title>
<path fill="none" stroke="midnightblue" d="M485.1,-374.81C461.72,-362.75 433.81,-348.35 411.81,-337"/>
<polygon fill="midnightblue" stroke="midnightblue" points="483.66,-378 494.16,-379.48 486.87,-371.78 483.66,-378"/>
</g>
<!-- Node9 -->
<g id="node9" class="node">
<title>Node9</title>
<g id="a_node9"><a xlink:href="_trackball_camera_8h.html" target="_top" xlink:title=" ">
<polygon fill="white" stroke="black" points="454,-296 454,-337 566,-337 566,-296 454,-296"/>
<text text-anchor="start" x="462" y="-325" font-family="Helvetica,sans-Serif" font-size="10.00">kryne&#45;engine/include</text>
<text text-anchor="start" x="462" y="-314" font-family="Helvetica,sans-Serif" font-size="10.00">/kryne&#45;engine/Camera</text>
<text text-anchor="middle" x="510" y="-303" font-family="Helvetica,sans-Serif" font-size="10.00">/TrackballCamera.h</text>
</a>
</g>
</g>
<!-- Node3&#45;&gt;Node9 -->
<g id="edge10" class="edge">
<title>Node3&#45;&gt;Node9</title>
<path fill="none" stroke="midnightblue" d="M524.01,-369.4C521.1,-358.63 517.89,-346.73 515.28,-337.05"/>
<polygon fill="midnightblue" stroke="midnightblue" points="520.69,-370.53 526.67,-379.27 527.45,-368.7 520.69,-370.53"/>
</g>
<!-- Node3&#45;&gt;Node11 -->
<g id="edge14" class="edge">
<title>Node3&#45;&gt;Node11</title>
<path fill="none" stroke="midnightblue" d="M557.8,-371.67C564.5,-363.09 570.96,-353.19 575,-343 609.87,-255.03 605.13,-137.74 602.22,-97.63"/>
<polygon fill="midnightblue" stroke="midnightblue" points="555.04,-369.51 551.37,-379.45 560.44,-373.97 555.04,-369.51"/>
</g>
<!-- Node13 -->
<g id="node13" class="node">
<title>Node13</title>
<g id="a_node13"><a xlink:href="_main_renderer_8h.html" target="_top" xlink:title=" ">
<polygon fill="white" stroke="black" points="750,-296 750,-337 872,-337 872,-296 750,-296"/>
<text text-anchor="start" x="758" y="-325" font-family="Helvetica,sans-Serif" font-size="10.00">kryne&#45;engine/include</text>
<text text-anchor="start" x="758" y="-314" font-family="Helvetica,sans-Serif" font-size="10.00">/kryne&#45;engine/Rendering</text>
<text text-anchor="middle" x="811" y="-303" font-family="Helvetica,sans-Serif" font-size="10.00">/MainRenderer.h</text>
</a>
</g>
</g>
<!-- Node3&#45;&gt;Node13 -->
<g id="edge17" class="edge">
<title>Node3&#45;&gt;Node13</title>
<path fill="none" stroke="midnightblue" d="M597.98,-379.73C643.92,-366.31 704.75,-348.54 749.64,-335.43"/>
<polygon fill="midnightblue" stroke="midnightblue" points="596.74,-376.44 588.12,-382.61 598.7,-383.16 596.74,-376.44"/>
</g>
<!-- Node5&#45;&gt;Node4 -->
<g id="edge5" class="edge">
<title>Node5&#45;&gt;Node4</title>
<path fill="none" stroke="midnightblue" d="M214.35,-285.91C217.98,-273.04 222.07,-258.57 225,-248.18"/>
<polygon fill="midnightblue" stroke="midnightblue" points="210.92,-285.2 211.57,-295.77 217.65,-287.1 210.92,-285.2"/>
</g>
<!-- Node6 -->
<g id="node6" class="node">
<title>Node6</title>
<g id="a_node6"><a xlink:href="_basic_camera_8cpp.html" target="_top" xlink:title=" ">
<polygon fill="white" stroke="black" points="28.5,-218 28.5,-248 153.5,-248 153.5,-218 28.5,-218"/>
<text text-anchor="start" x="36.5" y="-236" font-family="Helvetica,sans-Serif" font-size="10.00">kryne&#45;engine/src/Camera</text>
<text text-anchor="middle" x="91" y="-225" font-family="Helvetica,sans-Serif" font-size="10.00">/BasicCamera.cpp</text>
</a>
</g>
</g>
<!-- Node5&#45;&gt;Node6 -->
<g id="edge6" class="edge">
<title>Node5&#45;&gt;Node6</title>
<path fill="none" stroke="midnightblue" d="M170.06,-290.03C150.49,-276.16 127.02,-259.53 110.76,-248"/>
<polygon fill="midnightblue" stroke="midnightblue" points="168.27,-293.05 178.45,-295.98 172.32,-287.34 168.27,-293.05"/>
</g>
<!-- Node7&#45;&gt;Node4 -->
<g id="edge8" class="edge">
<title>Node7&#45;&gt;Node4</title>
<path fill="none" stroke="midnightblue" d="M330.33,-290.96C305.34,-276.91 274.87,-259.78 253.91,-248"/>
<polygon fill="midnightblue" stroke="midnightblue" points="328.84,-294.13 339.27,-295.98 332.27,-288.03 328.84,-294.13"/>
</g>
<!-- Node8 -->
<g id="node8" class="node">
<title>Node8</title>
<g id="a_node8"><a xlink:href="_first_person_camera_8cpp.html" target="_top" xlink:title=" ">
<polygon fill="white" stroke="black" points="304.5,-218 304.5,-248 429.5,-248 429.5,-218 304.5,-218"/>
<text text-anchor="start" x="312.5" y="-236" font-family="Helvetica,sans-Serif" font-size="10.00">kryne&#45;engine/src/Camera</text>
<text text-anchor="middle" x="367" y="-225" font-family="Helvetica,sans-Serif" font-size="10.00">/FirstPersonCamera.cpp</text>
</a>
</g>
</g>
<!-- Node7&#45;&gt;Node8 -->
<g id="edge9" class="edge">
<title>Node7&#45;&gt;Node8</title>
<path fill="none" stroke="midnightblue" d="M371.43,-285.53C370.33,-272.76 369.1,-258.47 368.22,-248.18"/>
<polygon fill="midnightblue" stroke="midnightblue" points="367.96,-286.11 372.31,-295.77 374.94,-285.51 367.96,-286.11"/>
</g>
<!-- Node9&#45;&gt;Node4 -->
<g id="edge11" class="edge">
<title>Node9&#45;&gt;Node4</title>
<path fill="none" stroke="midnightblue" d="M447.88,-292.79C444.88,-291.82 441.91,-290.89 439,-290 375.88,-270.83 358.59,-271.57 295,-254 288.31,-252.15 281.26,-250.11 274.36,-248.07"/>
<polygon fill="midnightblue" stroke="midnightblue" points="446.87,-296.14 457.47,-295.97 449.08,-289.5 446.87,-296.14"/>
</g>
<!-- Node10 -->
<g id="node10" class="node">
<title>Node10</title>
<g id="a_node10"><a xlink:href="_trackball_camera_8cpp.html" target="_top" xlink:title=" ">
<polygon fill="white" stroke="black" points="447.5,-218 447.5,-248 572.5,-248 572.5,-218 447.5,-218"/>
<text text-anchor="start" x="455.5" y="-236" font-family="Helvetica,sans-Serif" font-size="10.00">kryne&#45;engine/src/Camera</text>
<text text-anchor="middle" x="510" y="-225" font-family="Helvetica,sans-Serif" font-size="10.00">/TrackballCamera.cpp</text>
</a>
</g>
</g>
<!-- Node9&#45;&gt;Node10 -->
<g id="edge12" class="edge">
<title>Node9&#45;&gt;Node10</title>
<path fill="none" stroke="midnightblue" d="M510,-285.53C510,-272.76 510,-258.47 510,-248.18"/>
<polygon fill="midnightblue" stroke="midnightblue" points="506.5,-285.77 510,-295.77 513.5,-285.77 506.5,-285.77"/>
</g>
<!-- Node11&#45;&gt;Node2 -->
<g id="edge15" class="edge">
<title>Node11&#45;&gt;Node2</title>
<path fill="none" stroke="midnightblue" d="M512.39,-65.68C442.86,-53.26 348.38,-36.39 290.11,-25.98"/>
<polygon fill="midnightblue" stroke="midnightblue" points="512.01,-69.16 522.47,-67.48 513.24,-62.27 512.01,-69.16"/>
</g>
<!-- Node12 -->
<g id="node12" class="node">
<title>Node12</title>
<g id="a_node12"><a xlink:href="_old_process_8cpp.html" target="_top" xlink:title=" ">
<polygon fill="white" stroke="black" points="545,-0.5 545,-30.5 657,-30.5 657,-0.5 545,-0.5"/>
<text text-anchor="start" x="553" y="-18.5" font-family="Helvetica,sans-Serif" font-size="10.00">kryne&#45;engine/src/Core</text>
<text text-anchor="middle" x="601" y="-7.5" font-family="Helvetica,sans-Serif" font-size="10.00">/OldProcess.cpp</text>
</a>
</g>
</g>
<!-- Node11&#45;&gt;Node12 -->
<g id="edge16" class="edge">
<title>Node11&#45;&gt;Node12</title>
<path fill="none" stroke="midnightblue" d="M601,-57.11C601,-48.15 601,-38.32 601,-30.58"/>
<polygon fill="midnightblue" stroke="midnightblue" points="597.5,-57.4 601,-67.4 604.5,-57.4 597.5,-57.4"/>
</g>
<!-- Node14 -->
<g id="node14" class="node">
<title>Node14</title>
<g id="a_node14"><a xlink:href="_rendering_8h.html" target="_top" xlink:title=" ">
<polygon fill="white" stroke="black" points="1039.5,-67.5 1039.5,-97.5 1164.5,-97.5 1164.5,-67.5 1039.5,-67.5"/>
<text text-anchor="start" x="1047.5" y="-85.5" font-family="Helvetica,sans-Serif" font-size="10.00">kryne&#45;engine/include</text>
<text text-anchor="middle" x="1102" y="-74.5" font-family="Helvetica,sans-Serif" font-size="10.00">/KEModules/Rendering.h</text>
</a>
</g>
</g>
<!-- Node13&#45;&gt;Node14 -->
<g id="edge18" class="edge">
<title>Node13&#45;&gt;Node14</title>
<path fill="none" stroke="midnightblue" d="M846.44,-289.71C859.77,-279.29 874.68,-266.72 887,-254 933.58,-205.93 924.89,-174.74 978,-134 999.39,-117.59 1026.86,-105.68 1050.5,-97.57"/>
<polygon fill="midnightblue" stroke="midnightblue" points="844.17,-287.04 838.38,-295.91 848.44,-292.59 844.17,-287.04"/>
</g>
<!-- Node13&#45;&gt;Node15 -->
<g id="edge19" class="edge">
<title>Node13&#45;&gt;Node15</title>
<path fill="none" stroke="midnightblue" d="M765.7,-290.05C753.08,-280.51 740.94,-268.42 734,-254 721.93,-228.91 730.74,-196.33 738.84,-175.79"/>
<polygon fill="midnightblue" stroke="midnightblue" points="763.83,-293.01 774.01,-295.95 767.88,-287.31 763.83,-293.01"/>
</g>
<!-- Node17 -->
<g id="node17" class="node">
<title>Node17</title>
<g id="a_node17"><a xlink:href="_main_renderer_8cpp.html" target="_top" xlink:title=" ">
<polygon fill="white" stroke="black" points="743.5,-218 743.5,-248 878.5,-248 878.5,-218 743.5,-218"/>
<text text-anchor="start" x="751.5" y="-236" font-family="Helvetica,sans-Serif" font-size="10.00">kryne&#45;engine/src/Rendering</text>
<text text-anchor="middle" x="811" y="-225" font-family="Helvetica,sans-Serif" font-size="10.00">/MainRenderer.cpp</text>
</a>
</g>
</g>
<!-- Node13&#45;&gt;Node17 -->
<g id="edge23" class="edge">
<title>Node13&#45;&gt;Node17</title>
<path fill="none" stroke="midnightblue" d="M811,-285.53C811,-272.76 811,-258.47 811,-248.18"/>
<polygon fill="midnightblue" stroke="midnightblue" points="807.5,-285.77 811,-295.77 814.5,-285.77 807.5,-285.77"/>
</g>
<!-- Node15&#45;&gt;Node11 -->
<g id="edge21" class="edge">
<title>Node15&#45;&gt;Node11</title>
<path fill="none" stroke="midnightblue" d="M697.99,-130.02C675.55,-119.25 649.85,-106.93 630.55,-97.67"/>
<polygon fill="midnightblue" stroke="midnightblue" points="696.52,-133.19 707.05,-134.36 699.55,-126.88 696.52,-133.19"/>
</g>
<!-- Node15&#45;&gt;Node14 -->
<g id="edge20" class="edge">
<title>Node15&#45;&gt;Node14</title>
<path fill="none" stroke="midnightblue" d="M819.34,-139.79C883.82,-126.95 977.8,-108.24 1039.41,-95.96"/>
<polygon fill="midnightblue" stroke="midnightblue" points="818.38,-136.41 809.26,-141.8 819.75,-143.28 818.38,-136.41"/>
</g>
<!-- Node16 -->
<g id="node16" class="node">
<title>Node16</title>
<g id="a_node16"><a xlink:href="_render_scene_8cpp.html" target="_top" xlink:title=" ">
<polygon fill="white" stroke="black" points="699.5,-67.5 699.5,-97.5 834.5,-97.5 834.5,-67.5 699.5,-67.5"/>
<text text-anchor="start" x="707.5" y="-85.5" font-family="Helvetica,sans-Serif" font-size="10.00">kryne&#45;engine/src/Rendering</text>
<text text-anchor="middle" x="767" y="-74.5" font-family="Helvetica,sans-Serif" font-size="10.00">/RenderScene.cpp</text>
</a>
</g>
</g>
<!-- Node15&#45;&gt;Node16 -->
<g id="edge22" class="edge">
<title>Node15&#45;&gt;Node16</title>
<path fill="none" stroke="midnightblue" d="M755.9,-124.67C758.4,-115.42 761.04,-105.61 763.12,-97.89"/>
<polygon fill="midnightblue" stroke="midnightblue" points="752.52,-123.8 753.29,-134.36 759.27,-125.62 752.52,-123.8"/>
</g>
<!-- Node18&#45;&gt;Node13 -->
<g id="edge35" class="edge">
<title>Node18&#45;&gt;Node13</title>
<path fill="none" stroke="midnightblue" d="M1192.98,-386.22C1104.74,-370.35 955.64,-343.52 872.21,-328.51"/>
<polygon fill="midnightblue" stroke="midnightblue" points="1192.44,-389.68 1202.91,-388.01 1193.68,-382.79 1192.44,-389.68"/>
</g>
<!-- Node18&#45;&gt;Node14 -->
<g id="edge26" class="edge">
<title>Node18&#45;&gt;Node14</title>
<path fill="none" stroke="midnightblue" d="M1334.88,-383.48C1438.83,-359.11 1624.49,-308.97 1663,-254 1673.71,-238.71 1674.63,-226.6 1663,-212 1601.16,-134.39 1297.57,-99.86 1164.59,-88.28"/>
<polygon fill="midnightblue" stroke="midnightblue" points="1334.03,-380.08 1325.09,-385.75 1335.62,-386.9 1334.03,-380.08"/>
</g>
<!-- Node19 -->
<g id="node19" class="node">
<title>Node19</title>
<g id="a_node19"><a xlink:href="_hierarchical_node_8h.html" target="_top" xlink:title=" ">
<polygon fill="white" stroke="black" points="1203,-296 1203,-337 1327,-337 1327,-296 1203,-296"/>
<text text-anchor="start" x="1211" y="-325" font-family="Helvetica,sans-Serif" font-size="10.00">kryne&#45;engine/include</text>
<text text-anchor="start" x="1211" y="-314" font-family="Helvetica,sans-Serif" font-size="10.00">/kryne&#45;engine/3DObjects</text>
<text text-anchor="middle" x="1265" y="-303" font-family="Helvetica,sans-Serif" font-size="10.00">/HierarchicalNode.h</text>
</a>
</g>
</g>
<!-- Node18&#45;&gt;Node19 -->
<g id="edge27" class="edge">
<title>Node18&#45;&gt;Node19</title>
<path fill="none" stroke="midnightblue" d="M1257.83,-369.06C1257.53,-358.38 1257.9,-346.63 1258.9,-337.05"/>
<polygon fill="midnightblue" stroke="midnightblue" points="1254.35,-369.47 1258.36,-379.27 1261.34,-369.1 1254.35,-369.47"/>
</g>
<!-- Node24 -->
<g id="node24" class="node">
<title>Node24</title>
<g id="a_node24"><a xlink:href="_directional_shadow_map_rendering_8h.html" target="_top" xlink:title=" ">
<polygon fill="white" stroke="black" points="973,-290.5 973,-342.5 1147,-342.5 1147,-290.5 973,-290.5"/>
<text text-anchor="start" x="981" y="-330.5" font-family="Helvetica,sans-Serif" font-size="10.00">kryne&#45;engine/include</text>
<text text-anchor="start" x="981" y="-319.5" font-family="Helvetica,sans-Serif" font-size="10.00">/kryne&#45;engine/Rendering</text>
<text text-anchor="start" x="981" y="-308.5" font-family="Helvetica,sans-Serif" font-size="10.00">/ShadowMapping/DirectionalShadow</text>
<text text-anchor="middle" x="1060" y="-297.5" font-family="Helvetica,sans-Serif" font-size="10.00">MapRendering.h</text>
</a>
</g>
</g>
<!-- Node18&#45;&gt;Node24 -->
<g id="edge36" class="edge">
<title>Node18&#45;&gt;Node24</title>
<path fill="none" stroke="midnightblue" d="M1205.8,-375.75C1179.85,-365.38 1149.23,-353.15 1122.77,-342.58"/>
<polygon fill="midnightblue" stroke="midnightblue" points="1204.55,-379.02 1215.14,-379.48 1207.15,-372.52 1204.55,-379.02"/>
</g>
<!-- Node19&#45;&gt;Node18 -->
<g id="edge29" class="edge">
<title>Node19&#45;&gt;Node18</title>
<path fill="none" stroke="midnightblue" d="M1271.16,-347.23C1271.47,-357.9 1271.11,-369.66 1270.12,-379.27"/>
<polygon fill="midnightblue" stroke="midnightblue" points="1274.65,-346.85 1270.62,-337.05 1267.66,-347.22 1274.65,-346.85"/>
</g>
<!-- Node20 -->
<g id="node20" class="node">
<title>Node20</title>
<g id="a_node20"><a xlink:href="3_d_objects_8h.html" target="_top" xlink:title=" ">
<polygon fill="white" stroke="black" points="1371.5,-218 1371.5,-248 1498.5,-248 1498.5,-218 1371.5,-218"/>
<text text-anchor="start" x="1379.5" y="-236" font-family="Helvetica,sans-Serif" font-size="10.00">kryne&#45;engine/include</text>
<text text-anchor="middle" x="1435" y="-225" font-family="Helvetica,sans-Serif" font-size="10.00">/KEModules/3DObjects.h</text>
</a>
</g>
</g>
<!-- Node19&#45;&gt;Node20 -->
<g id="edge28" class="edge">
<title>Node19&#45;&gt;Node20</title>
<path fill="none" stroke="midnightblue" d="M1315.04,-291.51C1344.56,-277.36 1380.89,-259.94 1405.79,-248"/>
<polygon fill="midnightblue" stroke="midnightblue" points="1313.22,-288.5 1305.72,-295.98 1316.25,-294.81 1313.22,-288.5"/>
</g>
<!-- Node19&#45;&gt;Node21 -->
<g id="edge30" class="edge">
<title>Node19&#45;&gt;Node21</title>
<path fill="none" stroke="midnightblue" d="M1262.8,-285.56C1262.01,-274.88 1261.14,-263.13 1260.44,-253.55"/>
<polygon fill="midnightblue" stroke="midnightblue" points="1259.32,-286.06 1263.55,-295.77 1266.3,-285.54 1259.32,-286.06"/>
</g>
<!-- Node23 -->
<g id="node23" class="node">
<title>Node23</title>
<g id="a_node23"><a xlink:href="_hierarchical_node_8cpp.html" target="_top" xlink:title=" ">
<polygon fill="white" stroke="black" points="1516.5,-218 1516.5,-248 1653.5,-248 1653.5,-218 1516.5,-218"/>
<text text-anchor="start" x="1524.5" y="-236" font-family="Helvetica,sans-Serif" font-size="10.00">kryne&#45;engine/src/3DObjects</text>
<text text-anchor="middle" x="1585" y="-225" font-family="Helvetica,sans-Serif" font-size="10.00">/HierarchicalNode.cpp</text>
</a>
</g>
</g>
<!-- Node19&#45;&gt;Node23 -->
<g id="edge34" class="edge">
<title>Node19&#45;&gt;Node23</title>
<path fill="none" stroke="midnightblue" d="M1336.89,-297.27C1385.03,-285.06 1449.83,-268.6 1507,-254 1514.59,-252.06 1522.58,-250.02 1530.45,-248"/>
<polygon fill="midnightblue" stroke="midnightblue" points="1336.01,-293.88 1327.18,-299.74 1337.73,-300.67 1336.01,-293.88"/>
</g>
<!-- Node21&#45;&gt;Node14 -->
<g id="edge31" class="edge">
<title>Node21&#45;&gt;Node14</title>
<path fill="none" stroke="midnightblue" d="M1260.19,-202.14C1259.46,-180.82 1255.06,-152.71 1239,-134 1220.26,-112.17 1191.2,-99.77 1164.67,-92.73"/>
<polygon fill="midnightblue" stroke="midnightblue" points="1256.69,-202.32 1260.28,-212.29 1263.69,-202.26 1256.69,-202.32"/>
</g>
<!-- Node21&#45;&gt;Node15 -->
<g id="edge32" class="edge">
<title>Node21&#45;&gt;Node15</title>
<path fill="none" stroke="midnightblue" d="M1154.71,-211.83C1026.16,-190.77 887.27,-172.91 809.33,-163.34"/>
<polygon fill="midnightblue" stroke="midnightblue" points="1154.3,-215.31 1164.74,-213.48 1155.44,-208.4 1154.3,-215.31"/>
</g>
<!-- Node22 -->
<g id="node22" class="node">
<title>Node22</title>
<g id="a_node22"><a xlink:href="_shadow_map_handler_8cpp.html" target="_top" xlink:title=" ">
<polygon fill="white" stroke="black" points="1031.5,-140 1031.5,-170 1230.5,-170 1230.5,-140 1031.5,-140"/>
<text text-anchor="start" x="1039.5" y="-158" font-family="Helvetica,sans-Serif" font-size="10.00">kryne&#45;engine/src/Rendering</text>
<text text-anchor="middle" x="1131" y="-147" font-family="Helvetica,sans-Serif" font-size="10.00">/ShadowMapping/ShadowMapHandler.cpp</text>
</a>
</g>
</g>
<!-- Node21&#45;&gt;Node22 -->
<g id="edge33" class="edge">
<title>Node21&#45;&gt;Node22</title>
<path fill="none" stroke="midnightblue" d="M1217.42,-207.31C1196.75,-195.04 1172.5,-180.64 1154.96,-170.23"/>
<polygon fill="midnightblue" stroke="midnightblue" points="1215.65,-210.33 1226.04,-212.43 1219.23,-204.31 1215.65,-210.33"/>
</g>
<!-- Node24&#45;&gt;Node14 -->
<g id="edge37" class="edge">
<title>Node24&#45;&gt;Node14</title>
<path fill="none" stroke="midnightblue" d="M992.34,-284.68C980.96,-276.38 970.69,-266.23 964,-254 955.04,-237.62 958.13,-229.72 964,-212 977.58,-170.99 990.31,-163.36 1022,-134 1037.66,-119.49 1058.05,-106.69 1074.32,-97.61"/>
<polygon fill="midnightblue" stroke="midnightblue" points="990.54,-287.68 1000.78,-290.39 994.46,-281.89 990.54,-287.68"/>
</g>
<!-- Node24&#45;&gt;Node21 -->
<g id="edge38" class="edge">
<title>Node24&#45;&gt;Node21</title>
<path fill="none" stroke="midnightblue" d="M1130.4,-286.67C1157.21,-275.69 1187.11,-263.44 1211.33,-253.52"/>
<polygon fill="midnightblue" stroke="midnightblue" points="1128.99,-283.46 1121.06,-290.49 1131.64,-289.94 1128.99,-283.46"/>
</g>
<!-- Node25 -->
<g id="node25" class="node">
<title>Node25</title>
<g id="a_node25"><a xlink:href="_directional_shadow_map_rendering_8cpp.html" target="_top" xlink:title=" ">
<polygon fill="white" stroke="black" points="973,-212.5 973,-253.5 1147,-253.5 1147,-212.5 973,-212.5"/>
<text text-anchor="start" x="981" y="-241.5" font-family="Helvetica,sans-Serif" font-size="10.00">kryne&#45;engine/src/Rendering</text>
<text text-anchor="start" x="981" y="-230.5" font-family="Helvetica,sans-Serif" font-size="10.00">/ShadowMapping/DirectionalShadow</text>
<text text-anchor="middle" x="1060" y="-219.5" font-family="Helvetica,sans-Serif" font-size="10.00">MapRendering.cpp</text>
</a>
</g>
</g>
<!-- Node24&#45;&gt;Node25 -->
<g id="edge39" class="edge">
<title>Node24&#45;&gt;Node25</title>
<path fill="none" stroke="midnightblue" d="M1060,-280.15C1060,-271.05 1060,-261.6 1060,-253.63"/>
<polygon fill="midnightblue" stroke="midnightblue" points="1056.5,-280.16 1060,-290.16 1063.5,-280.16 1056.5,-280.16"/>
</g>
<!-- Node26&#45;&gt;Node14 -->
<g id="edge41" class="edge">
<title>Node26&#45;&gt;Node14</title>
<path fill="none" stroke="midnightblue" d="M1585.45,-379.11C1641.26,-369.75 1751.66,-374.67 1778,-343 1793.06,-324.89 1788.18,-311.24 1778,-290 1726.52,-182.55 1672.27,-173.87 1560,-134 1488.67,-108.67 1272.5,-93.19 1164.63,-86.84"/>
<polygon fill="midnightblue" stroke="midnightblue" points="1584.5,-375.73 1575.37,-381.11 1585.86,-382.59 1584.5,-375.73"/>
</g>
<!-- Node27 -->
<g id="node27" class="node">
<title>Node27</title>
<g id="a_node27"><a xlink:href="_renderer_8cpp.html" target="_top" xlink:title=" ">
<polygon fill="white" stroke="black" points="1633.5,-301.5 1633.5,-331.5 1768.5,-331.5 1768.5,-301.5 1633.5,-301.5"/>
<text text-anchor="start" x="1641.5" y="-319.5" font-family="Helvetica,sans-Serif" font-size="10.00">kryne&#45;engine/src/Rendering</text>
<text text-anchor="middle" x="1701" y="-308.5" font-family="Helvetica,sans-Serif" font-size="10.00">/Renderer.cpp</text>
</a>
</g>
</g>
<!-- Node26&#45;&gt;Node27 -->
<g id="edge42" class="edge">
<title>Node26&#45;&gt;Node27</title>
<path fill="none" stroke="midnightblue" d="M1568.2,-375.38C1600.82,-361.16 1641.25,-343.54 1668.87,-331.5"/>
<polygon fill="midnightblue" stroke="midnightblue" points="1566.56,-372.27 1558.79,-379.48 1569.36,-378.69 1566.56,-372.27"/>
</g>
</g>
</svg>
