<?xml version="1.0" encoding="UTF-8" standalone="no"?>
<!DOCTYPE svg PUBLIC "-//W3C//DTD SVG 1.1//EN"
 "http://www.w3.org/Graphics/SVG/1.1/DTD/svg11.dtd">
<!-- Generated by graphviz version 2.44.1 (20200629.0846)
 -->
<!-- Title: kryne&#45;engine/src/Core/Window.cpp Pages: 1 -->
<svg width="885pt" height="218pt"
 viewBox="0.00 0.00 885.00 218.00" xmlns="http://www.w3.org/2000/svg" xmlns:xlink="http://www.w3.org/1999/xlink">
<g id="graph0" class="graph" transform="scale(1 1) rotate(0) translate(4 214)">
<title>kryne&#45;engine/src/Core/Window.cpp</title>
<polygon fill="white" stroke="transparent" points="-4,4 -4,-214 881,-214 881,4 -4,4"/>
<!-- Node1 -->
<g id="node1" class="node">
<title>Node1</title>
<g id="a_node1"><a xlink:title=" ">
<polygon fill="#bfbfbf" stroke="black" points="273,-179.5 273,-209.5 385,-209.5 385,-179.5 273,-179.5"/>
<text text-anchor="start" x="281" y="-197.5" font-family="Helvetica,sans-Serif" font-size="10.00">kryne&#45;engine/src/Core</text>
<text text-anchor="middle" x="329" y="-186.5" font-family="Helvetica,sans-Serif" font-size="10.00">/Window.cpp</text>
</a>
</g>
</g>
<!-- Node2 -->
<g id="node2" class="node">
<title>Node2</title>
<g id="a_node2"><a xlink:href="_window_8h.html" target="_top" xlink:title=" ">
<polygon fill="white" stroke="black" points="258.5,-123.5 258.5,-142.5 399.5,-142.5 399.5,-123.5 258.5,-123.5"/>
<text text-anchor="middle" x="329" y="-130.5" font-family="Helvetica,sans-Serif" font-size="10.00">kryne&#45;engine/Core/Window.h</text>
</a>
</g>
</g>
<!-- Node1&#45;&gt;Node2 -->
<g id="edge1" class="edge">
<title>Node1&#45;&gt;Node2</title>
<path fill="none" stroke="midnightblue" d="M329,-179.4C329,-171.47 329,-161.46 329,-152.86"/>
<polygon fill="midnightblue" stroke="midnightblue" points="332.5,-152.66 329,-142.66 325.5,-152.66 332.5,-152.66"/>
</g>
<!-- Node3 -->
<g id="node3" class="node">
<title>Node3</title>
<g id="a_node3"><a xlink:title=" ">
<polygon fill="white" stroke="#bfbfbf" points="0,-0.5 0,-19.5 42,-19.5 42,-0.5 0,-0.5"/>
<text text-anchor="middle" x="21" y="-7.5" font-family="Helvetica,sans-Serif" font-size="10.00">vector</text>
</a>
</g>
</g>
<!-- Node2&#45;&gt;Node3 -->
<g id="edge2" class="edge">
<title>Node2&#45;&gt;Node3</title>
<path fill="none" stroke="midnightblue" d="M270.43,-123.43C232.02,-116.54 181.26,-104.99 139,-87 101.19,-70.91 62,-43.04 39.64,-25.9"/>
<polygon fill="midnightblue" stroke="midnightblue" points="41.72,-23.07 31.68,-19.69 37.41,-28.59 41.72,-23.07"/>
</g>
<!-- Node4 -->
<g id="node4" class="node">
<title>Node4</title>
<g id="a_node4"><a xlink:title=" ">
<polygon fill="white" stroke="#bfbfbf" points="346,-62 346,-81 424,-81 424,-62 346,-62"/>
<text text-anchor="middle" x="385" y="-69" font-family="Helvetica,sans-Serif" font-size="10.00">unordered_set</text>
</a>
</g>
</g>
<!-- Node2&#45;&gt;Node4 -->
<g id="edge3" class="edge">
<title>Node2&#45;&gt;Node4</title>
<path fill="none" stroke="midnightblue" d="M337.02,-123.48C345.59,-114.37 359.36,-99.74 369.96,-88.48"/>
<polygon fill="midnightblue" stroke="midnightblue" points="372.69,-90.69 376.99,-81.01 367.59,-85.89 372.69,-90.69"/>
</g>
<!-- Node5 -->
<g id="node5" class="node">
<title>Node5</title>
<g id="a_node5"><a xlink:title=" ">
<polygon fill="white" stroke="#bfbfbf" points="442.5,-62 442.5,-81 491.5,-81 491.5,-62 442.5,-62"/>
<text text-anchor="middle" x="467" y="-69" font-family="Helvetica,sans-Serif" font-size="10.00">cstdarg</text>
</a>
</g>
</g>
<!-- Node2&#45;&gt;Node5 -->
<g id="edge4" class="edge">
<title>Node2&#45;&gt;Node5</title>
<path fill="none" stroke="midnightblue" d="M348.77,-123.48C372.14,-113.4 411.21,-96.55 438,-85"/>
<polygon fill="midnightblue" stroke="midnightblue" points="439.47,-88.18 447.26,-81.01 436.7,-81.75 439.47,-88.18"/>
</g>
<!-- Node6 -->
<g id="node6" class="node">
<title>Node6</title>
<g id="a_node6"><a xlink:title=" ">
<polygon fill="white" stroke="#bfbfbf" points="509.5,-62 509.5,-81 554.5,-81 554.5,-62 509.5,-62"/>
<text text-anchor="middle" x="532" y="-69" font-family="Helvetica,sans-Serif" font-size="10.00">cstdlib</text>
</a>
</g>
</g>
<!-- Node2&#45;&gt;Node6 -->
<g id="edge5" class="edge">
<title>Node2&#45;&gt;Node6</title>
<path fill="none" stroke="midnightblue" d="M368.97,-123.49C403.99,-115.56 456.03,-102.62 500,-87 501.66,-86.41 503.35,-85.77 505.05,-85.1"/>
<polygon fill="midnightblue" stroke="midnightblue" points="506.79,-88.16 514.61,-81.02 504.04,-81.72 506.79,-88.16"/>
</g>
<!-- Node7 -->
<g id="node7" class="node">
<title>Node7</title>
<g id="a_node7"><a xlink:title=" ">
<polygon fill="white" stroke="#bfbfbf" points="573,-62 573,-81 627,-81 627,-62 573,-62"/>
<text text-anchor="middle" x="600" y="-69" font-family="Helvetica,sans-Serif" font-size="10.00">iostream</text>
</a>
</g>
</g>
<!-- Node2&#45;&gt;Node7 -->
<g id="edge6" class="edge">
<title>Node2&#45;&gt;Node7</title>
<path fill="none" stroke="midnightblue" d="M389.84,-123.44C437.5,-115.98 505.18,-103.74 563,-87 565.58,-86.25 568.24,-85.4 570.88,-84.48"/>
<polygon fill="midnightblue" stroke="midnightblue" points="572.1,-87.76 580.26,-81.01 569.67,-81.2 572.1,-87.76"/>
</g>
<!-- Node8 -->
<g id="node8" class="node">
<title>Node8</title>
<g id="a_node8"><a xlink:title=" ">
<polygon fill="white" stroke="#bfbfbf" points="60,-0.5 60,-19.5 124,-19.5 124,-0.5 60,-0.5"/>
<text text-anchor="middle" x="92" y="-7.5" font-family="Helvetica,sans-Serif" font-size="10.00">glad/glad.h</text>
</a>
</g>
</g>
<!-- Node2&#45;&gt;Node8 -->
<g id="edge7" class="edge">
<title>Node2&#45;&gt;Node8</title>
<path fill="none" stroke="midnightblue" d="M288.87,-123.47C259.54,-116.26 219.39,-104.31 187,-87 156.15,-70.51 125.45,-43.54 107.62,-26.56"/>
<polygon fill="midnightblue" stroke="midnightblue" points="110,-23.99 100.38,-19.53 105.12,-29.01 110,-23.99"/>
</g>
<!-- Node9 -->
<g id="node9" class="node">
<title>Node9</title>
<g id="a_node9"><a xlink:title=" ">
<polygon fill="white" stroke="#bfbfbf" points="142,-0.5 142,-19.5 220,-19.5 220,-0.5 142,-0.5"/>
<text text-anchor="middle" x="181" y="-7.5" font-family="Helvetica,sans-Serif" font-size="10.00">GLFW/glfw3.h</text>
</a>
</g>
</g>
<!-- Node2&#45;&gt;Node9 -->
<g id="edge8" class="edge">
<title>Node2&#45;&gt;Node9</title>
<path fill="none" stroke="midnightblue" d="M279.32,-123.42C255.37,-117.01 227.83,-105.93 209,-87 193.55,-71.46 186.53,-46.67 183.41,-29.66"/>
<polygon fill="midnightblue" stroke="midnightblue" points="186.87,-29.11 181.87,-19.77 179.95,-30.19 186.87,-29.11"/>
</g>
<!-- Node10 -->
<g id="node10" class="node">
<title>Node10</title>
<g id="a_node10"><a xlink:href="_additional_parameters_8h.html" target="_top" xlink:title=" ">
<polygon fill="white" stroke="black" points="719,-62 719,-81 837,-81 837,-62 719,-62"/>
<text text-anchor="middle" x="778" y="-69" font-family="Helvetica,sans-Serif" font-size="10.00">AdditionalParameters.h</text>
</a>
</g>
</g>
<!-- Node2&#45;&gt;Node10 -->
<g id="edge9" class="edge">
<title>Node2&#45;&gt;Node10</title>
<path fill="none" stroke="midnightblue" d="M393.33,-123.48C477.07,-112.38 622.84,-93.06 708.87,-81.66"/>
<polygon fill="midnightblue" stroke="midnightblue" points="709.35,-85.13 718.8,-80.35 708.43,-78.19 709.35,-85.13"/>
</g>
<!-- Node14 -->
<g id="node14" class="node">
<title>Node14</title>
<g id="a_node14"><a xlink:href="_old_camera_8h.html" target="_top" xlink:title=" ">
<polygon fill="white" stroke="black" points="218.5,-56.5 218.5,-86.5 327.5,-86.5 327.5,-56.5 218.5,-56.5"/>
<text text-anchor="start" x="226.5" y="-74.5" font-family="Helvetica,sans-Serif" font-size="10.00">kryne&#45;engine/Camera</text>
<text text-anchor="middle" x="273" y="-63.5" font-family="Helvetica,sans-Serif" font-size="10.00">/OldCamera.h</text>
</a>
</g>
</g>
<!-- Node2&#45;&gt;Node14 -->
<g id="edge13" class="edge">
<title>Node2&#45;&gt;Node14</title>
<path fill="none" stroke="midnightblue" d="M316.08,-123.48C307.26,-115.87 295.92,-104.4 286.96,-94.26"/>
<polygon fill="midnightblue" stroke="midnightblue" points="289.51,-91.87 280.37,-86.52 284.18,-96.41 289.51,-91.87"/>
</g>
<!-- Node11 -->
<g id="node11" class="node">
<title>Node11</title>
<g id="a_node11"><a xlink:title=" ">
<polygon fill="white" stroke="#bfbfbf" points="732.5,-0.5 732.5,-19.5 767.5,-19.5 767.5,-0.5 732.5,-0.5"/>
<text text-anchor="middle" x="750" y="-7.5" font-family="Helvetica,sans-Serif" font-size="10.00">map</text>
</a>
</g>
</g>
<!-- Node10&#45;&gt;Node11 -->
<g id="edge10" class="edge">
<title>Node10&#45;&gt;Node11</title>
<path fill="none" stroke="midnightblue" d="M773.99,-61.98C769.91,-53.32 763.48,-39.65 758.3,-28.65"/>
<polygon fill="midnightblue" stroke="midnightblue" points="761.43,-27.07 754,-19.51 755.1,-30.05 761.43,-27.07"/>
</g>
<!-- Node12 -->
<g id="node12" class="node">
<title>Node12</title>
<g id="a_node12"><a xlink:title=" ">
<polygon fill="white" stroke="#bfbfbf" points="785.5,-0.5 785.5,-19.5 826.5,-19.5 826.5,-0.5 785.5,-0.5"/>
<text text-anchor="middle" x="806" y="-7.5" font-family="Helvetica,sans-Serif" font-size="10.00">string</text>
</a>
</g>
</g>
<!-- Node10&#45;&gt;Node12 -->
<g id="edge11" class="edge">
<title>Node10&#45;&gt;Node12</title>
<path fill="none" stroke="midnightblue" d="M782.01,-61.98C786.09,-53.32 792.52,-39.65 797.7,-28.65"/>
<polygon fill="midnightblue" stroke="midnightblue" points="800.9,-30.05 802,-19.51 794.57,-27.07 800.9,-30.05"/>
</g>
<!-- Node13 -->
<g id="node13" class="node">
<title>Node13</title>
<g id="a_node13"><a xlink:title=" ">
<polygon fill="white" stroke="#bfbfbf" points="845,-0.5 845,-19.5 877,-19.5 877,-0.5 845,-0.5"/>
<text text-anchor="middle" x="861" y="-7.5" font-family="Helvetica,sans-Serif" font-size="10.00">any</text>
</a>
</g>
</g>
<!-- Node10&#45;&gt;Node13 -->
<g id="edge12" class="edge">
<title>Node10&#45;&gt;Node13</title>
<path fill="none" stroke="midnightblue" d="M789.89,-61.98C803.2,-52.43 825,-36.81 840.96,-25.37"/>
<polygon fill="midnightblue" stroke="midnightblue" points="843.04,-28.18 849.13,-19.51 838.96,-22.49 843.04,-28.18"/>
</g>
<!-- Node14&#45;&gt;Node2 -->
<g id="edge22" class="edge">
<title>Node14&#45;&gt;Node2</title>
<path fill="none" stroke="midnightblue" d="M292.03,-86.52C301.33,-95.21 311.97,-106.42 319.61,-115.53"/>
<polygon fill="midnightblue" stroke="midnightblue" points="316.94,-117.79 325.88,-123.48 322.43,-113.46 316.94,-117.79"/>
</g>
<!-- Node14&#45;&gt;Node3 -->
<g id="edge14" class="edge">
<title>Node14&#45;&gt;Node3</title>
<path fill="none" stroke="midnightblue" d="M218.46,-59.17C175.66,-50.04 114.37,-36.42 52.23,-20.2"/>
<polygon fill="midnightblue" stroke="midnightblue" points="52.82,-16.73 42.25,-17.57 51.03,-23.5 52.82,-16.73"/>
</g>
<!-- Node14&#45;&gt;Node8 -->
<g id="edge17" class="edge">
<title>Node14&#45;&gt;Node8</title>
<path fill="none" stroke="midnightblue" d="M230.11,-56.4C198.97,-46.16 157.31,-32.47 127.92,-22.81"/>
<polygon fill="midnightblue" stroke="midnightblue" points="128.67,-19.37 118.07,-19.57 126.48,-26.02 128.67,-19.37"/>
</g>
<!-- Node14&#45;&gt;Node9 -->
<g id="edge18" class="edge">
<title>Node14&#45;&gt;Node9</title>
<path fill="none" stroke="midnightblue" d="M251.2,-56.4C236.59,-46.95 217.43,-34.56 202.82,-25.11"/>
<polygon fill="midnightblue" stroke="midnightblue" points="204.68,-22.15 194.39,-19.66 200.88,-28.03 204.68,-22.15"/>
</g>
<!-- Node15 -->
<g id="node15" class="node">
<title>Node15</title>
<g id="a_node15"><a xlink:title=" ">
<polygon fill="white" stroke="#bfbfbf" points="504,-0.5 504,-19.5 556,-19.5 556,-0.5 504,-0.5"/>
<text text-anchor="middle" x="530" y="-7.5" font-family="Helvetica,sans-Serif" font-size="10.00">stdarg.h</text>
</a>
</g>
</g>
<!-- Node14&#45;&gt;Node15 -->
<g id="edge15" class="edge">
<title>Node14&#45;&gt;Node15</title>
<path fill="none" stroke="midnightblue" d="M327.69,-58.06C381.67,-45.78 459.92,-27.95 493.93,-19.96"/>
<polygon fill="midnightblue" stroke="midnightblue" points="494.75,-23.36 503.67,-17.65 493.13,-16.55 494.75,-23.36"/>
</g>
<!-- Node16 -->
<g id="node16" class="node">
<title>Node16</title>
<g id="a_node16"><a xlink:title=" ">
<polygon fill="white" stroke="#bfbfbf" points="574,-0.5 574,-19.5 622,-19.5 622,-0.5 574,-0.5"/>
<text text-anchor="middle" x="598" y="-7.5" font-family="Helvetica,sans-Serif" font-size="10.00">stdlib.h</text>
</a>
</g>
</g>
<!-- Node14&#45;&gt;Node16 -->
<g id="edge16" class="edge">
<title>Node14&#45;&gt;Node16</title>
<path fill="none" stroke="midnightblue" d="M327.76,-57.84C330.88,-57.2 333.98,-56.58 337,-56 434.6,-37.26 462.94,-41.25 563.92,-20.03"/>
<polygon fill="midnightblue" stroke="midnightblue" points="564.87,-23.4 573.92,-17.89 563.41,-16.56 564.87,-23.4"/>
</g>
<!-- Node17 -->
<g id="node17" class="node">
<title>Node17</title>
<g id="a_node17"><a xlink:title=" ">
<polygon fill="white" stroke="#bfbfbf" points="640,-0.5 640,-19.5 714,-19.5 714,-0.5 640,-0.5"/>
<text text-anchor="middle" x="677" y="-7.5" font-family="Helvetica,sans-Serif" font-size="10.00">glm/vec3.hpp</text>
</a>
</g>
</g>
<!-- Node14&#45;&gt;Node17 -->
<g id="edge19" class="edge">
<title>Node14&#45;&gt;Node17</title>
<path fill="none" stroke="midnightblue" d="M327.74,-57.72C330.87,-57.1 333.97,-56.53 337,-56 463.53,-33.98 499.26,-40.32 629.89,-20.07"/>
<polygon fill="midnightblue" stroke="midnightblue" points="630.55,-23.51 639.88,-18.5 629.46,-16.59 630.55,-23.51"/>
</g>
<!-- Node18 -->
<g id="node18" class="node">
<title>Node18</title>
<g id="a_node18"><a xlink:title=" ">
<polygon fill="white" stroke="#bfbfbf" points="238,-0.5 238,-19.5 324,-19.5 324,-0.5 238,-0.5"/>
<text text-anchor="middle" x="281" y="-7.5" font-family="Helvetica,sans-Serif" font-size="10.00">glm/mat4x4.hpp</text>
</a>
</g>
</g>
<!-- Node14&#45;&gt;Node18 -->
<g id="edge20" class="edge">
<title>Node14&#45;&gt;Node18</title>
<path fill="none" stroke="midnightblue" d="M274.9,-56.4C275.97,-48.38 277.34,-38.23 278.5,-29.57"/>
<polygon fill="midnightblue" stroke="midnightblue" points="281.97,-30.04 279.84,-19.66 275.03,-29.1 281.97,-30.04"/>
</g>
<!-- Node19 -->
<g id="node19" class="node">
<title>Node19</title>
<g id="a_node19"><a xlink:title=" ">
<polygon fill="white" stroke="#bfbfbf" points="342.5,-0.5 342.5,-19.5 485.5,-19.5 485.5,-0.5 342.5,-0.5"/>
<text text-anchor="middle" x="414" y="-7.5" font-family="Helvetica,sans-Serif" font-size="10.00">glm/gtc/matrix_transform.hpp</text>
</a>
</g>
</g>
<!-- Node14&#45;&gt;Node19 -->
<g id="edge21" class="edge">
<title>Node14&#45;&gt;Node19</title>
<path fill="none" stroke="midnightblue" d="M306.42,-56.4C329.97,-46.46 361.24,-33.26 383.99,-23.66"/>
<polygon fill="midnightblue" stroke="midnightblue" points="385.63,-26.77 393.48,-19.66 382.91,-20.32 385.63,-26.77"/>
</g>
</g>
</svg>
