<?xml version="1.0" encoding="UTF-8" standalone="no"?>
<!DOCTYPE svg PUBLIC "-//W3C//DTD SVG 1.1//EN"
 "http://www.w3.org/Graphics/SVG/1.1/DTD/svg11.dtd">
<!-- Generated by graphviz version 2.44.1 (20200629.0846)
 -->
<!-- Title: Transform::getEntity Pages: 1 -->
<svg width="410pt" height="142pt"
 viewBox="0.00 0.00 410.00 142.00" xmlns="http://www.w3.org/2000/svg" xmlns:xlink="http://www.w3.org/1999/xlink">
<g id="graph0" class="graph" transform="scale(1 1) rotate(0) translate(4 138)">
<title>Transform::getEntity</title>
<polygon fill="white" stroke="transparent" points="-4,4 -4,-138 406,-138 406,4 -4,4"/>
<!-- Node1 -->
<g id="node1" class="node">
<title>Node1</title>
<g id="a_node1"><a xlink:title=" ">
<polygon fill="#bfbfbf" stroke="black" points="298,-57.5 298,-76.5 402,-76.5 402,-57.5 298,-57.5"/>
<text text-anchor="middle" x="350" y="-64.5" font-family="Helvetica,sans-Serif" font-size="10.00">Transform::getEntity</text>
</a>
</g>
</g>
<!-- Node2 -->
<g id="node2" class="node">
<title>Node2</title>
<g id="a_node2"><a xlink:href="class_scene.html#aed4bf402a8745e782fb5f711bb6d20ad" target="_top" xlink:title=" ">
<polygon fill="white" stroke="black" points="169.5,-114.5 169.5,-133.5 235.5,-133.5 235.5,-114.5 169.5,-114.5"/>
<text text-anchor="middle" x="202.5" y="-121.5" font-family="Helvetica,sans-Serif" font-size="10.00">Scene::add</text>
</a>
</g>
</g>
<!-- Node1&#45;&gt;Node2 -->
<g id="edge1" class="edge">
<title>Node1&#45;&gt;Node2</title>
<path fill="none" stroke="midnightblue" d="M319.26,-80.85C302.59,-88.4 281.32,-97.66 262,-105 253.31,-108.3 243.78,-111.55 234.97,-114.4"/>
<polygon fill="midnightblue" stroke="midnightblue" points="320.85,-83.97 328.49,-76.64 317.94,-77.6 320.85,-83.97"/>
</g>
<!-- Node4 -->
<g id="node4" class="node">
<title>Node4</title>
<g id="a_node4"><a xlink:href="class_scene.html#a5e62816b2e2c566c8f1bc151688c2c36" target="_top" xlink:title=" ">
<polygon fill="white" stroke="black" points="162,-76.5 162,-95.5 243,-95.5 243,-76.5 162,-76.5"/>
<text text-anchor="middle" x="202.5" y="-83.5" font-family="Helvetica,sans-Serif" font-size="10.00">Scene::remove</text>
</a>
</g>
</g>
<!-- Node1&#45;&gt;Node4 -->
<g id="edge3" class="edge">
<title>Node1&#45;&gt;Node4</title>
<path fill="none" stroke="midnightblue" d="M287.5,-75.03C272.57,-76.98 257,-79.01 243.37,-80.79"/>
<polygon fill="midnightblue" stroke="midnightblue" points="288.24,-78.46 297.7,-73.7 287.33,-71.52 288.24,-78.46"/>
</g>
<!-- Node5 -->
<g id="node5" class="node">
<title>Node5</title>
<g id="a_node5"><a xlink:href="class_renderer.html#aa814eabb912509d0cd34b61018e98fb4" target="_top" xlink:title=" ">
<polygon fill="white" stroke="black" points="144,-38.5 144,-57.5 261,-57.5 261,-38.5 144,-38.5"/>
<text text-anchor="middle" x="202.5" y="-45.5" font-family="Helvetica,sans-Serif" font-size="10.00">Renderer::renderObject</text>
</a>
</g>
</g>
<!-- Node1&#45;&gt;Node5 -->
<g id="edge4" class="edge">
<title>Node1&#45;&gt;Node5</title>
<path fill="none" stroke="midnightblue" d="M287.53,-58.97C278.74,-57.83 269.73,-56.65 261.03,-55.51"/>
<polygon fill="midnightblue" stroke="midnightblue" points="287.33,-62.48 297.7,-60.3 288.24,-55.54 287.33,-62.48"/>
</g>
<!-- Node6 -->
<g id="node6" class="node">
<title>Node6</title>
<g id="a_node6"><a xlink:href="class_mesh.html#a220745f5b2ebc6f1d0577165b0d7fc74" target="_top" xlink:title=" ">
<polygon fill="white" stroke="black" points="143,-0.5 143,-19.5 262,-19.5 262,-0.5 143,-0.5"/>
<text text-anchor="middle" x="202.5" y="-7.5" font-family="Helvetica,sans-Serif" font-size="10.00">Mesh::updateTransform</text>
</a>
</g>
</g>
<!-- Node1&#45;&gt;Node6 -->
<g id="edge5" class="edge">
<title>Node1&#45;&gt;Node6</title>
<path fill="none" stroke="midnightblue" d="M319.26,-53.15C302.59,-45.6 281.32,-36.34 262,-29 253.31,-25.7 243.78,-22.45 234.97,-19.6"/>
<polygon fill="midnightblue" stroke="midnightblue" points="317.94,-56.4 328.49,-57.36 320.85,-50.03 317.94,-56.4"/>
</g>
<!-- Node3 -->
<g id="node3" class="node">
<title>Node3</title>
<g id="a_node3"><a xlink:href="class_transform.html#a0bf33f3571a73e1b51d589faf1f37b92" target="_top" xlink:title=" ">
<polygon fill="white" stroke="black" points="0,-114.5 0,-133.5 107,-133.5 107,-114.5 0,-114.5"/>
<text text-anchor="middle" x="53.5" y="-121.5" font-family="Helvetica,sans-Serif" font-size="10.00">Transform::setScene</text>
</a>
</g>
</g>
<!-- Node2&#45;&gt;Node3 -->
<g id="edge2" class="edge">
<title>Node2&#45;&gt;Node3</title>
<path fill="none" stroke="midnightblue" d="M159.01,-124C142.83,-124 124.2,-124 107.19,-124"/>
<polygon fill="midnightblue" stroke="midnightblue" points="159.24,-127.5 169.24,-124 159.24,-120.5 159.24,-127.5"/>
</g>
</g>
</svg>
