<?xml version="1.0" encoding="UTF-8" standalone="no"?>
<!DOCTYPE svg PUBLIC "-//W3C//DTD SVG 1.1//EN"
 "http://www.w3.org/Graphics/SVG/1.1/DTD/svg11.dtd">
<!-- Generated by graphviz version 2.40.1 (20161225.0304)
 -->
<!-- Title: DearImGuiSceneBrowser::displayEntityInfo Pages: 1 -->
<svg width="303pt" height="192pt"
 viewBox="0.00 0.00 303.00 192.00" xmlns="http://www.w3.org/2000/svg" xmlns:xlink="http://www.w3.org/1999/xlink">
<g id="graph0" class="graph" transform="scale(1 1) rotate(0) translate(4 188)">
<title>DearImGuiSceneBrowser::displayEntityInfo</title>
<polygon fill="#ffffff" stroke="transparent" points="-4,4 -4,-188 299,-188 299,4 -4,4"/>
<!-- Node2 -->
<g id="node1" class="node">
<title>Node2</title>
<polygon fill="#bfbfbf" stroke="#000000" points="0,-83 0,-113 128,-113 128,-83 0,-83"/>
<text text-anchor="start" x="8" y="-101" font-family="Helvetica,sans-Serif" font-size="10.00" fill="#000000">DearImGuiSceneBrowser</text>
<text text-anchor="middle" x="64" y="-90" font-family="Helvetica,sans-Serif" font-size="10.00" fill="#000000">::displayEntityInfo</text>
</g>
<!-- Node3 -->
<g id="node2" class="node">
<title>Node3</title>
<g id="a_node2"><a xlink:href="class_entity.html#a2a0f7811f8c3f8726be1549e1c4acba4" target="_top" xlink:title="Entity::isEnabled">
<polygon fill="#ffffff" stroke="#000000" points="184,-164.5 184,-183.5 275,-183.5 275,-164.5 184,-164.5"/>
<text text-anchor="middle" x="229.5" y="-171.5" font-family="Helvetica,sans-Serif" font-size="10.00" fill="#000000">Entity::isEnabled</text>
</a>
</g>
</g>
<!-- Node2&#45;&gt;Node3 -->
<g id="edge1" class="edge">
<title>Node2&#45;&gt;Node3</title>
<path fill="none" stroke="#191970" d="M87.0371,-113.218C106.806,-125.7595 136.3934,-143.3217 164,-155 169.449,-157.3051 175.2662,-159.4341 181.1005,-161.3681"/>
<polygon fill="#191970" stroke="#191970" points="180.2838,-164.7801 190.873,-164.4354 182.3801,-158.1013 180.2838,-164.7801"/>
</g>
<!-- Node4 -->
<g id="node3" class="node">
<title>Node4</title>
<g id="a_node3"><a xlink:href="class_entity.html#ae1a51900fcd0eadbc172656f4fbc2f5d" target="_top" xlink:title="Entity::setEnabled">
<polygon fill="#ffffff" stroke="#000000" points="181,-126.5 181,-145.5 278,-145.5 278,-126.5 181,-126.5"/>
<text text-anchor="middle" x="229.5" y="-133.5" font-family="Helvetica,sans-Serif" font-size="10.00" fill="#000000">Entity::setEnabled</text>
</a>
</g>
</g>
<!-- Node2&#45;&gt;Node4 -->
<g id="edge2" class="edge">
<title>Node2&#45;&gt;Node4</title>
<path fill="none" stroke="#191970" d="M128.4605,-112.8006C144.84,-116.5615 162.2259,-120.5534 177.8738,-124.1462"/>
<polygon fill="#191970" stroke="#191970" points="177.3479,-127.6165 187.8776,-126.4432 178.9145,-120.794 177.3479,-127.6165"/>
</g>
<!-- Node5 -->
<g id="node4" class="node">
<title>Node5</title>
<g id="a_node4"><a xlink:href="class_entity.html#aa8fb6c2c38bb08f493282edfef0746d3" target="_top" xlink:title="Entity::getName">
<polygon fill="#ffffff" stroke="#000000" points="185.5,-88.5 185.5,-107.5 273.5,-107.5 273.5,-88.5 185.5,-88.5"/>
<text text-anchor="middle" x="229.5" y="-95.5" font-family="Helvetica,sans-Serif" font-size="10.00" fill="#000000">Entity::getName</text>
</a>
</g>
</g>
<!-- Node2&#45;&gt;Node5 -->
<g id="edge3" class="edge">
<title>Node2&#45;&gt;Node5</title>
<path fill="none" stroke="#191970" d="M128.4605,-98C143.9466,-98 160.3323,-98 175.2981,-98"/>
<polygon fill="#191970" stroke="#191970" points="175.4038,-101.5001 185.4038,-98 175.4037,-94.5001 175.4038,-101.5001"/>
</g>
<!-- Node6 -->
<g id="node5" class="node">
<title>Node6</title>
<g id="a_node5"><a xlink:href="class_dear_im_gui_scene_browser.html#aa5151ce709cb81bef8e37dde47ab3f0c" target="_top" xlink:title="DearImGuiSceneBrowser\l::updateName">
<polygon fill="#ffffff" stroke="#000000" points="165.5,-39 165.5,-69 293.5,-69 293.5,-39 165.5,-39"/>
<text text-anchor="start" x="173.5" y="-57" font-family="Helvetica,sans-Serif" font-size="10.00" fill="#000000">DearImGuiSceneBrowser</text>
<text text-anchor="middle" x="229.5" y="-46" font-family="Helvetica,sans-Serif" font-size="10.00" fill="#000000">::updateName</text>
</a>
</g>
</g>
<!-- Node2&#45;&gt;Node6 -->
<g id="edge4" class="edge">
<title>Node2&#45;&gt;Node6</title>
<path fill="none" stroke="#191970" d="M120.4928,-82.9808C134.2639,-79.3196 149.1173,-75.3706 163.2951,-71.6013"/>
<polygon fill="#191970" stroke="#191970" points="164.216,-74.9781 172.981,-69.0262 162.4174,-68.2131 164.216,-74.9781"/>
</g>
<!-- Node7 -->
<g id="node6" class="node">
<title>Node7</title>
<g id="a_node6"><a xlink:href="class_entity.html#a005c667fb89e01614ef68afd1de6483b" target="_top" xlink:title="Renders custom GUI for entity details. ">
<polygon fill="#ffffff" stroke="#000000" points="164,-.5 164,-19.5 295,-19.5 295,-.5 164,-.5"/>
<text text-anchor="middle" x="229.5" y="-7.5" font-family="Helvetica,sans-Serif" font-size="10.00" fill="#000000">Entity::renderEntityDetails</text>
</a>
</g>
</g>
<!-- Node2&#45;&gt;Node7 -->
<g id="edge5" class="edge">
<title>Node2&#45;&gt;Node7</title>
<path fill="none" stroke="#191970" d="M82.4986,-82.8905C101.8229,-67.7344 133.5161,-44.6039 164,-30 169.6295,-27.3031 175.7047,-24.8712 181.8062,-22.709"/>
<polygon fill="#191970" stroke="#191970" points="182.9704,-26.0104 191.3554,-19.534 180.7618,-19.3679 182.9704,-26.0104"/>
</g>
</g>
</svg>
