<?xml version="1.0" encoding="UTF-8" standalone="no"?>
<!DOCTYPE svg PUBLIC "-//W3C//DTD SVG 1.1//EN"
 "http://www.w3.org/Graphics/SVG/1.1/DTD/svg11.dtd">
<!-- Generated by graphviz version 2.40.1 (20161225.0304)
 -->
<!-- Title: FinalPostProcess::draw Pages: 1 -->
<svg width="274pt" height="104pt"
 viewBox="0.00 0.00 274.00 104.00" xmlns="http://www.w3.org/2000/svg" xmlns:xlink="http://www.w3.org/1999/xlink">
<g id="graph0" class="graph" transform="scale(1 1) rotate(0) translate(4 100)">
<title>FinalPostProcess::draw</title>
<polygon fill="#ffffff" stroke="transparent" points="-4,4 -4,-100 270,-100 270,4 -4,4"/>
<!-- Node4 -->
<g id="node1" class="node">
<title>Node4</title>
<polygon fill="#bfbfbf" stroke="#000000" points="0,-38.5 0,-57.5 121,-57.5 121,-38.5 0,-38.5"/>
<text text-anchor="middle" x="60.5" y="-45.5" font-family="Helvetica,sans-Serif" font-size="10.00" fill="#000000">FinalPostProcess::draw</text>
</g>
<!-- Node5 -->
<g id="node2" class="node">
<title>Node5</title>
<g id="a_node2"><a xlink:href="class_shader.html#a870fa9f13d69e558815d6fd351a469dc" target="_top" xlink:title="Shader::use">
<polygon fill="#ffffff" stroke="#000000" points="177,-76.5 177,-95.5 246,-95.5 246,-76.5 177,-76.5"/>
<text text-anchor="middle" x="211.5" y="-83.5" font-family="Helvetica,sans-Serif" font-size="10.00" fill="#000000">Shader::use</text>
</a>
</g>
</g>
<!-- Node4&#45;&gt;Node5 -->
<g id="edge1" class="edge">
<title>Node4&#45;&gt;Node5</title>
<path fill="none" stroke="#191970" d="M98.6037,-57.589C119.3451,-62.8087 145.1241,-69.2961 166.8098,-74.7535"/>
<polygon fill="#191970" stroke="#191970" points="166.2169,-78.2133 176.7687,-77.2597 167.9253,-71.425 166.2169,-78.2133"/>
</g>
<!-- Node6 -->
<g id="node3" class="node">
<title>Node6</title>
<g id="a_node3"><a xlink:href="class_vertex_array.html#acbd3f02e554fa827be46baf96d8bdabc" target="_top" xlink:title="VertexArray::execute">
<polygon fill="#ffffff" stroke="#000000" points="157,-38.5 157,-57.5 266,-57.5 266,-38.5 157,-38.5"/>
<text text-anchor="middle" x="211.5" y="-45.5" font-family="Helvetica,sans-Serif" font-size="10.00" fill="#000000">VertexArray::execute</text>
</a>
</g>
</g>
<!-- Node4&#45;&gt;Node6 -->
<g id="edge2" class="edge">
<title>Node4&#45;&gt;Node6</title>
<path fill="none" stroke="#191970" d="M121.0474,-48C129.4472,-48 138.1043,-48 146.5799,-48"/>
<polygon fill="#191970" stroke="#191970" points="146.7988,-51.5001 156.7987,-48 146.7987,-44.5001 146.7988,-51.5001"/>
</g>
<!-- Node7 -->
<g id="node4" class="node">
<title>Node7</title>
<g id="a_node4"><a xlink:href="class_shader.html#a0e4233f8c77b4d0a4f2e52f4e1d100bf" target="_top" xlink:title="Shader::resetUse">
<polygon fill="#ffffff" stroke="#000000" points="165,-.5 165,-19.5 258,-19.5 258,-.5 165,-.5"/>
<text text-anchor="middle" x="211.5" y="-7.5" font-family="Helvetica,sans-Serif" font-size="10.00" fill="#000000">Shader::resetUse</text>
</a>
</g>
</g>
<!-- Node4&#45;&gt;Node7 -->
<g id="edge3" class="edge">
<title>Node4&#45;&gt;Node7</title>
<path fill="none" stroke="#191970" d="M98.6037,-38.411C118.44,-33.4191 142.8839,-27.2676 163.9483,-21.9666"/>
<polygon fill="#191970" stroke="#191970" points="164.8269,-25.3548 173.6703,-19.5201 163.1185,-18.5664 164.8269,-25.3548"/>
</g>
</g>
</svg>
