<?xml version="1.0" encoding="UTF-8" standalone="no"?>
<!DOCTYPE svg PUBLIC "-//W3C//DTD SVG 1.1//EN"
 "http://www.w3.org/Graphics/SVG/1.1/DTD/svg11.dtd">
<!-- Generated by graphviz version 2.44.1 (20200629.0846)
 -->
<!-- Title: Light Pages: 1 -->
<svg width="291pt" height="140pt"
 viewBox="0.00 0.00 290.50 140.00" xmlns="http://www.w3.org/2000/svg" xmlns:xlink="http://www.w3.org/1999/xlink">
<g id="graph0" class="graph" transform="scale(1 1) rotate(0) translate(4 136)">
<title>Light</title>
<polygon fill="white" stroke="transparent" points="-4,4 -4,-136 286.5,-136 286.5,4 -4,4"/>
<!-- Node1 -->
<g id="node1" class="node">
<title>Node1</title>
<g id="a_node1"><a xlink:title="An entity that will provide light to the scene.">
<polygon fill="#bfbfbf" stroke="black" points="115,-56.5 115,-75.5 153,-75.5 153,-56.5 115,-56.5"/>
<text text-anchor="middle" x="134" y="-63.5" font-family="Helvetica,sans-Serif" font-size="10.00">Light</text>
</a>
</g>
</g>
<!-- Node3 -->
<g id="node3" class="node">
<title>Node3</title>
<g id="a_node3"><a xlink:href="class_ambient_light.html" target="_top" xlink:title="A light that provides an ambient, indirect diffuse lighting.">
<polygon fill="white" stroke="black" points="0,-0.5 0,-19.5 74,-19.5 74,-0.5 0,-0.5"/>
<text text-anchor="middle" x="37" y="-7.5" font-family="Helvetica,sans-Serif" font-size="10.00">AmbientLight</text>
</a>
</g>
</g>
<!-- Node1&#45;&gt;Node3 -->
<g id="edge2" class="edge">
<title>Node1&#45;&gt;Node3</title>
<path fill="none" stroke="midnightblue" d="M109.66,-51.45C91.76,-41.48 67.95,-28.23 52.55,-19.65"/>
<polygon fill="midnightblue" stroke="midnightblue" points="107.98,-54.52 118.42,-56.32 111.38,-48.4 107.98,-54.52"/>
</g>
<!-- Node4 -->
<g id="node4" class="node">
<title>Node4</title>
<g id="a_node4"><a xlink:href="class_directional_light.html" target="_top" xlink:title="A direct light shining in a specific direction, with no distance attenuation.">
<polygon fill="white" stroke="black" points="92.5,-0.5 92.5,-19.5 175.5,-19.5 175.5,-0.5 92.5,-0.5"/>
<text text-anchor="middle" x="134" y="-7.5" font-family="Helvetica,sans-Serif" font-size="10.00">DirectionalLight</text>
</a>
</g>
</g>
<!-- Node1&#45;&gt;Node4 -->
<g id="edge3" class="edge">
<title>Node1&#45;&gt;Node4</title>
<path fill="none" stroke="midnightblue" d="M134,-45.8C134,-36.91 134,-26.78 134,-19.75"/>
<polygon fill="midnightblue" stroke="midnightblue" points="130.5,-46.08 134,-56.08 137.5,-46.08 130.5,-46.08"/>
</g>
<!-- Node5 -->
<g id="node5" class="node">
<title>Node5</title>
<g id="a_node5"><a xlink:href="class_hemisphere_light.html" target="_top" xlink:title="An ambient light which color depends on the direction.">
<polygon fill="white" stroke="black" points="193.5,-0.5 193.5,-19.5 282.5,-19.5 282.5,-0.5 193.5,-0.5"/>
<text text-anchor="middle" x="238" y="-7.5" font-family="Helvetica,sans-Serif" font-size="10.00">HemisphereLight</text>
</a>
</g>
</g>
<!-- Node1&#45;&gt;Node5 -->
<g id="edge4" class="edge">
<title>Node1&#45;&gt;Node5</title>
<path fill="none" stroke="midnightblue" d="M159.83,-51.59C179.06,-41.61 204.74,-28.27 221.33,-19.65"/>
<polygon fill="midnightblue" stroke="midnightblue" points="157.97,-48.61 150.71,-56.32 161.2,-54.82 157.97,-48.61"/>
</g>
<!-- Node2 -->
<g id="node2" class="node">
<title>Node2</title>
<g id="a_node2"><a xlink:href="class_entity.html" target="_top" xlink:title=" ">
<polygon fill="white" stroke="black" points="113,-112.5 113,-131.5 155,-131.5 155,-112.5 113,-112.5"/>
<text text-anchor="middle" x="134" y="-119.5" font-family="Helvetica,sans-Serif" font-size="10.00">Entity</text>
</a>
</g>
</g>
<!-- Node2&#45;&gt;Node1 -->
<g id="edge1" class="edge">
<title>Node2&#45;&gt;Node1</title>
<path fill="none" stroke="midnightblue" d="M134,-101.8C134,-92.91 134,-82.78 134,-75.75"/>
<polygon fill="midnightblue" stroke="midnightblue" points="130.5,-102.08 134,-112.08 137.5,-102.08 130.5,-102.08"/>
</g>
</g>
</svg>
