<?xml version="1.0" encoding="UTF-8" standalone="no"?>
<!DOCTYPE svg PUBLIC "-//W3C//DTD SVG 1.1//EN"
 "http://www.w3.org/Graphics/SVG/1.1/DTD/svg11.dtd">
<!-- Generated by graphviz version 2.40.1 (20161225.0304)
 -->
<!-- Title: MeshLambertMaterial Pages: 1 -->
<svg width="314pt" height="287pt"
 viewBox="0.00 0.00 314.00 287.00" xmlns="http://www.w3.org/2000/svg" xmlns:xlink="http://www.w3.org/1999/xlink">
<g id="graph0" class="graph" transform="scale(1 1) rotate(0) translate(4 283)">
<title>MeshLambertMaterial</title>
<polygon fill="#ffffff" stroke="transparent" points="-4,4 -4,-283 310,-283 310,4 -4,4"/>
<!-- Node3 -->
<g id="node1" class="node">
<title>Node3</title>
<polygon fill="#bfbfbf" stroke="#000000" points="104,-.5 104,-19.5 214,-19.5 214,-.5 104,-.5"/>
<text text-anchor="middle" x="159" y="-7.5" font-family="Helvetica,sans-Serif" font-size="10.00" fill="#000000">MeshLambertMaterial</text>
</g>
<!-- Node4 -->
<g id="node2" class="node">
<title>Node4</title>
<g id="a_node2"><a xlink:href="class_mesh_material_common.html" target="_top" xlink:title="MeshMaterialCommon">
<polygon fill="#ffffff" stroke="#000000" points="101.5,-57.5 101.5,-76.5 216.5,-76.5 216.5,-57.5 101.5,-57.5"/>
<text text-anchor="middle" x="159" y="-64.5" font-family="Helvetica,sans-Serif" font-size="10.00" fill="#000000">MeshMaterialCommon</text>
</a>
</g>
</g>
<!-- Node4&#45;&gt;Node3 -->
<g id="edge1" class="edge">
<title>Node4&#45;&gt;Node3</title>
<path fill="none" stroke="#191970" d="M159,-47.2342C159,-37.8491 159,-27.0651 159,-19.5265"/>
<polygon fill="#191970" stroke="#191970" points="155.5001,-47.3307 159,-57.3307 162.5001,-47.3308 155.5001,-47.3307"/>
</g>
<!-- Node5 -->
<g id="node3" class="node">
<title>Node5</title>
<g id="a_node3"><a xlink:href="class_material.html" target="_top" xlink:title="Material">
<polygon fill="#ffffff" stroke="#000000" points="133.5,-114.5 133.5,-133.5 184.5,-133.5 184.5,-114.5 133.5,-114.5"/>
<text text-anchor="middle" x="159" y="-121.5" font-family="Helvetica,sans-Serif" font-size="10.00" fill="#000000">Material</text>
</a>
</g>
</g>
<!-- Node5&#45;&gt;Node4 -->
<g id="edge2" class="edge">
<title>Node5&#45;&gt;Node4</title>
<path fill="none" stroke="#191970" d="M159,-104.2342C159,-94.8491 159,-84.0651 159,-76.5265"/>
<polygon fill="#191970" stroke="#191970" points="155.5001,-104.3307 159,-114.3307 162.5001,-104.3308 155.5001,-104.3307"/>
</g>
<!-- Node6 -->
<g id="node4" class="node">
<title>Node6</title>
<polygon fill="#ffffff" stroke="#bfbfbf" points="0,-181.5 0,-211.5 158,-211.5 158,-181.5 0,-181.5"/>
<text text-anchor="start" x="8" y="-199.5" font-family="Helvetica,sans-Serif" font-size="10.00" fill="#000000">std::unique_ptr&lt; ShaderProgram</text>
<text text-anchor="middle" x="79" y="-188.5" font-family="Helvetica,sans-Serif" font-size="10.00" fill="#000000">Compiler &gt;</text>
</g>
<!-- Node6&#45;&gt;Node5 -->
<g id="edge3" class="edge">
<title>Node6&#45;&gt;Node5</title>
<path fill="none" stroke="#9a32cd" stroke-dasharray="5,2" d="M103.0249,-174.7274C117.9996,-161.1566 136.5486,-144.3466 148.0806,-133.8957"/>
<polygon fill="#9a32cd" stroke="#9a32cd" points="100.6356,-172.1693 95.5761,-181.478 105.3363,-177.3562 100.6356,-172.1693"/>
<text text-anchor="middle" x="147" y="-155" font-family="Helvetica,sans-Serif" font-size="10.00" fill="#000000"> compiler</text>
</g>
<!-- Node7 -->
<g id="node5" class="node">
<title>Node7</title>
<g id="a_node5"><a xlink:href="class_shader_program_compiler.html" target="_top" xlink:title="ShaderProgramCompiler">
<polygon fill="#ffffff" stroke="#000000" points="17.5,-259.5 17.5,-278.5 140.5,-278.5 140.5,-259.5 17.5,-259.5"/>
<text text-anchor="middle" x="79" y="-266.5" font-family="Helvetica,sans-Serif" font-size="10.00" fill="#000000">ShaderProgramCompiler</text>
</a>
</g>
</g>
<!-- Node7&#45;&gt;Node6 -->
<g id="edge4" class="edge">
<title>Node7&#45;&gt;Node6</title>
<path fill="none" stroke="#9a32cd" stroke-dasharray="5,2" d="M79,-249.0177C79,-237.2164 79,-222.513 79,-211.668"/>
<polygon fill="#9a32cd" stroke="#9a32cd" points="75.5001,-249.2223 79,-259.2223 82.5001,-249.2224 75.5001,-249.2223"/>
<text text-anchor="middle" x="86.5" y="-233" font-family="Helvetica,sans-Serif" font-size="10.00" fill="#000000"> ptr</text>
</g>
<!-- Node8 -->
<g id="node6" class="node">
<title>Node8</title>
<polygon fill="#ffffff" stroke="#bfbfbf" points="176,-187 176,-206 306,-206 306,-187 176,-187"/>
<text text-anchor="middle" x="241" y="-194" font-family="Helvetica,sans-Serif" font-size="10.00" fill="#000000">std::unique_ptr&lt; Shader &gt;</text>
</g>
<!-- Node8&#45;&gt;Node5 -->
<g id="edge5" class="edge">
<title>Node8&#45;&gt;Node5</title>
<path fill="none" stroke="#9a32cd" stroke-dasharray="5,2" d="M222.1625,-179.8449C205.9767,-165.5343 183.2029,-145.3989 169.8837,-133.6228"/>
<polygon fill="#9a32cd" stroke="#9a32cd" points="220.1311,-182.7206 229.9411,-186.7223 224.7677,-177.4764 220.1311,-182.7206"/>
<text text-anchor="middle" x="219.5" y="-155" font-family="Helvetica,sans-Serif" font-size="10.00" fill="#000000"> shader</text>
</g>
<!-- Node9 -->
<g id="node7" class="node">
<title>Node9</title>
<g id="a_node7"><a xlink:href="class_shader.html" target="_top" xlink:title="Shader">
<polygon fill="#ffffff" stroke="#000000" points="217.5,-259.5 217.5,-278.5 264.5,-278.5 264.5,-259.5 217.5,-259.5"/>
<text text-anchor="middle" x="241" y="-266.5" font-family="Helvetica,sans-Serif" font-size="10.00" fill="#000000">Shader</text>
</a>
</g>
</g>
<!-- Node9&#45;&gt;Node8 -->
<g id="edge6" class="edge">
<title>Node9&#45;&gt;Node8</title>
<path fill="none" stroke="#9a32cd" stroke-dasharray="5,2" d="M241,-249.1054C241,-235.1237 241,-217.0346 241,-206.1228"/>
<polygon fill="#9a32cd" stroke="#9a32cd" points="237.5001,-249.2223 241,-259.2223 244.5001,-249.2224 237.5001,-249.2223"/>
<text text-anchor="middle" x="248.5" y="-233" font-family="Helvetica,sans-Serif" font-size="10.00" fill="#000000"> ptr</text>
</g>
</g>
</svg>
