<?xml version="1.0" encoding="UTF-8" standalone="no"?>
<!DOCTYPE svg PUBLIC "-//W3C//DTD SVG 1.1//EN"
 "http://www.w3.org/Graphics/SVG/1.1/DTD/svg11.dtd">
<!-- Generated by graphviz version 2.40.1 (20161225.0304)
 -->
<!-- Title: OrbitControlsComponent::OrbitControlsComponent Pages: 1 -->
<svg width="792pt" height="123pt"
 viewBox="0.00 0.00 792.00 123.00" xmlns="http://www.w3.org/2000/svg" xmlns:xlink="http://www.w3.org/1999/xlink">
<g id="graph0" class="graph" transform="scale(1 1) rotate(0) translate(4 119)">
<title>OrbitControlsComponent::OrbitControlsComponent</title>
<polygon fill="#ffffff" stroke="transparent" points="-4,4 -4,-119 788,-119 788,4 -4,4"/>
<!-- Node0 -->
<g id="node1" class="node">
<title>Node0</title>
<polygon fill="#bfbfbf" stroke="#000000" points="0,-52 0,-82 131,-82 131,-52 0,-52"/>
<text text-anchor="start" x="8" y="-70" font-family="Helvetica,sans-Serif" font-size="10.00" fill="#000000">OrbitControlsComponent</text>
<text text-anchor="middle" x="65.5" y="-59" font-family="Helvetica,sans-Serif" font-size="10.00" fill="#000000">::OrbitControlsComponent</text>
</g>
<!-- Node1 -->
<g id="node2" class="node">
<title>Node1</title>
<g id="a_node2"><a xlink:href="class_orbit_controls_component.html#ac8611a683dbd195df68c64940d622d57" target="_top" xlink:title="OrbitControlsComponent\l::setPosition">
<polygon fill="#ffffff" stroke="#000000" points="167,-52 167,-82 292,-82 292,-52 167,-52"/>
<text text-anchor="start" x="175" y="-70" font-family="Helvetica,sans-Serif" font-size="10.00" fill="#000000">OrbitControlsComponent</text>
<text text-anchor="middle" x="229.5" y="-59" font-family="Helvetica,sans-Serif" font-size="10.00" fill="#000000">::setPosition</text>
</a>
</g>
</g>
<!-- Node0&#45;&gt;Node1 -->
<g id="edge1" class="edge">
<title>Node0&#45;&gt;Node1</title>
<path fill="none" stroke="#191970" d="M131.2601,-67C139.6228,-67 148.2203,-67 156.6856,-67"/>
<polygon fill="#191970" stroke="#191970" points="156.9211,-70.5001 166.9211,-67 156.921,-63.5001 156.9211,-70.5001"/>
</g>
<!-- Node2 -->
<g id="node3" class="node">
<title>Node2</title>
<g id="a_node3"><a xlink:href="class_orbit_controls_component.html#aedf4dc7f005ffee67f71660dc0652354" target="_top" xlink:title="OrbitControlsComponent\l::updatePosition">
<polygon fill="#ffffff" stroke="#000000" points="328,-52 328,-82 453,-82 453,-52 328,-52"/>
<text text-anchor="start" x="336" y="-70" font-family="Helvetica,sans-Serif" font-size="10.00" fill="#000000">OrbitControlsComponent</text>
<text text-anchor="middle" x="390.5" y="-59" font-family="Helvetica,sans-Serif" font-size="10.00" fill="#000000">::updatePosition</text>
</a>
</g>
</g>
<!-- Node1&#45;&gt;Node2 -->
<g id="edge2" class="edge">
<title>Node1&#45;&gt;Node2</title>
<path fill="none" stroke="#191970" d="M292.2078,-67C300.6481,-67 309.3631,-67 317.9559,-67"/>
<polygon fill="#191970" stroke="#191970" points="317.9634,-70.5001 327.9633,-67 317.9633,-63.5001 317.9634,-70.5001"/>
</g>
<!-- Node3 -->
<g id="node4" class="node">
<title>Node3</title>
<g id="a_node4"><a xlink:href="class_component.html#a8cd5ee4645a0cbe620c1acef8118549b" target="_top" xlink:title="Component::getTransform">
<polygon fill="#ffffff" stroke="#000000" points="489,-95.5 489,-114.5 620,-114.5 620,-95.5 489,-95.5"/>
<text text-anchor="middle" x="554.5" y="-102.5" font-family="Helvetica,sans-Serif" font-size="10.00" fill="#000000">Component::getTransform</text>
</a>
</g>
</g>
<!-- Node2&#45;&gt;Node3 -->
<g id="edge3" class="edge">
<title>Node2&#45;&gt;Node3</title>
<path fill="none" stroke="#191970" d="M453.4377,-81.5831C469.8876,-85.3947 487.421,-89.4573 503.1861,-93.1102"/>
<polygon fill="#191970" stroke="#191970" points="502.7295,-96.597 513.2614,-95.4447 504.3096,-89.7777 502.7295,-96.597"/>
</g>
<!-- Node5 -->
<g id="node6" class="node">
<title>Node5</title>
<g id="a_node6"><a xlink:href="class_transform.html#acbab7588aa158d9f8de7bbf498213aeb" target="_top" xlink:title="Transform::setPosition">
<polygon fill="#ffffff" stroke="#000000" points="496.5,-57.5 496.5,-76.5 612.5,-76.5 612.5,-57.5 496.5,-57.5"/>
<text text-anchor="middle" x="554.5" y="-64.5" font-family="Helvetica,sans-Serif" font-size="10.00" fill="#000000">Transform::setPosition</text>
</a>
</g>
</g>
<!-- Node2&#45;&gt;Node5 -->
<g id="edge5" class="edge">
<title>Node2&#45;&gt;Node5</title>
<path fill="none" stroke="#191970" d="M453.4377,-67C464.1163,-67 475.2516,-67 486.0633,-67"/>
<polygon fill="#191970" stroke="#191970" points="486.3046,-70.5001 496.3046,-67 486.3046,-63.5001 486.3046,-70.5001"/>
</g>
<!-- Node6 -->
<g id="node7" class="node">
<title>Node6</title>
<g id="a_node7"><a xlink:href="class_transform.html#a139e1092c8752834c80e4e67c207bb80" target="_top" xlink:title="Transform::lookAt">
<polygon fill="#ffffff" stroke="#000000" points="507,-19.5 507,-38.5 602,-38.5 602,-19.5 507,-19.5"/>
<text text-anchor="middle" x="554.5" y="-26.5" font-family="Helvetica,sans-Serif" font-size="10.00" fill="#000000">Transform::lookAt</text>
</a>
</g>
</g>
<!-- Node2&#45;&gt;Node6 -->
<g id="edge6" class="edge">
<title>Node2&#45;&gt;Node6</title>
<path fill="none" stroke="#191970" d="M453.4377,-52.4169C469.8876,-48.6053 487.421,-44.5427 503.1861,-40.8898"/>
<polygon fill="#191970" stroke="#191970" points="504.3096,-44.2223 513.2614,-38.5553 502.7295,-37.403 504.3096,-44.2223"/>
</g>
<!-- Node4 -->
<g id="node5" class="node">
<title>Node4</title>
<g id="a_node5"><a xlink:href="class_entity.html#aec5b6fb1566ab2f4b1b30c8d788315dc" target="_top" xlink:title="Entity::getTransform">
<polygon fill="#ffffff" stroke="#000000" points="667,-95.5 667,-114.5 773,-114.5 773,-95.5 667,-95.5"/>
<text text-anchor="middle" x="720" y="-102.5" font-family="Helvetica,sans-Serif" font-size="10.00" fill="#000000">Entity::getTransform</text>
</a>
</g>
</g>
<!-- Node3&#45;&gt;Node4 -->
<g id="edge4" class="edge">
<title>Node3&#45;&gt;Node4</title>
<path fill="none" stroke="#191970" d="M620.3855,-105C632.3075,-105 644.7172,-105 656.5671,-105"/>
<polygon fill="#191970" stroke="#191970" points="656.8103,-108.5001 666.8102,-105 656.8102,-101.5001 656.8103,-108.5001"/>
</g>
<!-- Node7 -->
<g id="node8" class="node">
<title>Node7</title>
<g id="a_node8"><a xlink:href="class_transform.html#af5791c2b5044fe3db559579c21feaec8" target="_top" xlink:title="Transform::setQuaternion">
<polygon fill="#ffffff" stroke="#000000" points="656,-38.5 656,-57.5 784,-57.5 784,-38.5 656,-38.5"/>
<text text-anchor="middle" x="720" y="-45.5" font-family="Helvetica,sans-Serif" font-size="10.00" fill="#000000">Transform::setQuaternion</text>
</a>
</g>
</g>
<!-- Node6&#45;&gt;Node7 -->
<g id="edge7" class="edge">
<title>Node6&#45;&gt;Node7</title>
<path fill="none" stroke="#191970" d="M602.3695,-34.4956C615.9435,-36.0539 631.0502,-37.7882 645.7915,-39.4806"/>
<polygon fill="#191970" stroke="#191970" points="645.5813,-42.9794 655.9153,-40.6428 646.3798,-36.0251 645.5813,-42.9794"/>
</g>
<!-- Node8 -->
<g id="node9" class="node">
<title>Node8</title>
<g id="a_node9"><a xlink:href="namespace_math.html#a87c8d0d2ba07b4b77a50b452d52a933e" target="_top" xlink:title="Math::getLookAtMatrix">
<polygon fill="#ffffff" stroke="#000000" points="662,-.5 662,-19.5 778,-19.5 778,-.5 662,-.5"/>
<text text-anchor="middle" x="720" y="-7.5" font-family="Helvetica,sans-Serif" font-size="10.00" fill="#000000">Math::getLookAtMatrix</text>
</a>
</g>
</g>
<!-- Node6&#45;&gt;Node8 -->
<g id="edge8" class="edge">
<title>Node6&#45;&gt;Node8</title>
<path fill="none" stroke="#191970" d="M602.3695,-23.5044C617.7857,-21.7346 635.1789,-19.7378 651.7684,-17.8332"/>
<polygon fill="#191970" stroke="#191970" points="652.4335,-21.28 661.969,-16.6622 651.635,-14.3256 652.4335,-21.28"/>
</g>
</g>
</svg>
