<?xml version="1.0" encoding="UTF-8" standalone="no"?>
<!DOCTYPE svg PUBLIC "-//W3C//DTD SVG 1.1//EN"
 "http://www.w3.org/Graphics/SVG/1.1/DTD/svg11.dtd">
<!-- Generated by graphviz version 2.44.1 (20200629.0846)
 -->
<!-- Title: Camera Pages: 1 -->
<svg width="270pt" height="173pt"
 viewBox="0.00 0.00 270.00 173.00" xmlns="http://www.w3.org/2000/svg" xmlns:xlink="http://www.w3.org/1999/xlink">
<g id="graph0" class="graph" transform="scale(1 1) rotate(0) translate(4 169)">
<title>Camera</title>
<polygon fill="white" stroke="transparent" points="-4,4 -4,-169 266,-169 266,4 -4,4"/>
<!-- Node1 -->
<g id="node1" class="node">
<title>Node1</title>
<g id="a_node1"><a xlink:title=" ">
<polygon fill="#bfbfbf" stroke="black" points="0,-78.5 0,-97.5 50,-97.5 50,-78.5 0,-78.5"/>
<text text-anchor="middle" x="25" y="-85.5" font-family="Helvetica,sans-Serif" font-size="10.00">Camera</text>
</a>
</g>
</g>
<!-- Node2 -->
<g id="node2" class="node">
<title>Node2</title>
<g id="a_node2"><a xlink:href="class_object3_d.html" target="_top" xlink:title=" ">
<polygon fill="white" stroke="black" points="109.5,-145.5 109.5,-164.5 166.5,-164.5 166.5,-145.5 109.5,-145.5"/>
<text text-anchor="middle" x="138" y="-152.5" font-family="Helvetica,sans-Serif" font-size="10.00">Object3D</text>
</a>
</g>
</g>
<!-- Node2&#45;&gt;Node1 -->
<g id="edge1" class="edge">
<title>Node2&#45;&gt;Node1</title>
<path fill="none" stroke="midnightblue" d="M113.86,-140.12C91.47,-127.24 58.86,-108.48 40,-97.63"/>
<polygon fill="midnightblue" stroke="midnightblue" points="112.35,-143.28 122.76,-145.23 115.84,-137.21 112.35,-143.28"/>
</g>
<!-- Node2&#45;&gt;Node2 -->
<g id="edge5" class="edge">
<title>Node2&#45;&gt;Node2</title>
<path fill="none" stroke="#9a32cd" stroke-dasharray="5,2" d="M176.62,-160.2C181.38,-159.27 184.5,-157.54 184.5,-155 184.5,-150.94 176.51,-148.94 166.61,-149"/>
<polygon fill="#9a32cd" stroke="#9a32cd" points="176.3,-156.71 166.61,-161 176.85,-163.69 176.3,-156.71"/>
<text text-anchor="middle" x="200" y="-152.5" font-family="Helvetica,sans-Serif" font-size="10.00"> parent</text>
</g>
<!-- Node4 -->
<g id="node4" class="node">
<title>Node4</title>
<g id="a_node4"><a xlink:title=" ">
<polygon fill="white" stroke="#bfbfbf" points="68,-78.5 68,-97.5 208,-97.5 208,-78.5 68,-78.5"/>
<text text-anchor="middle" x="138" y="-85.5" font-family="Helvetica,sans-Serif" font-size="10.00">std::unique_ptr&lt; Object3D &gt;</text>
</a>
</g>
</g>
<!-- Node2&#45;&gt;Node4 -->
<g id="edge4" class="edge">
<title>Node2&#45;&gt;Node4</title>
<path fill="none" stroke="#9a32cd" stroke-dasharray="5,2" d="M138,-135.04C138,-122.67 138,-107.12 138,-97.63"/>
<polygon fill="#9a32cd" stroke="#9a32cd" points="134.5,-135.23 138,-145.23 141.5,-135.23 134.5,-135.23"/>
<text text-anchor="middle" x="145.5" y="-119" font-family="Helvetica,sans-Serif" font-size="10.00"> ptr</text>
</g>
<!-- Node3 -->
<g id="node3" class="node">
<title>Node3</title>
<g id="a_node3"><a xlink:title=" ">
<polygon fill="white" stroke="#bfbfbf" points="152.5,-0.5 152.5,-30.5 253.5,-30.5 253.5,-0.5 152.5,-0.5"/>
<text text-anchor="start" x="160.5" y="-18.5" font-family="Helvetica,sans-Serif" font-size="10.00">std::vector&lt; unique</text>
<text text-anchor="middle" x="203" y="-7.5" font-family="Helvetica,sans-Serif" font-size="10.00">_ptr&lt; Object3D &gt; &gt;</text>
</a>
</g>
</g>
<!-- Node3&#45;&gt;Node2 -->
<g id="edge2" class="edge">
<title>Node3&#45;&gt;Node2</title>
<path fill="none" stroke="#9a32cd" stroke-dasharray="5,2" d="M216.88,-39.87C218.16,-42.86 219.25,-45.94 220,-49 225.21,-70.19 227.77,-79.03 217,-98 204.05,-120.81 177.55,-136.61 158.82,-145.48"/>
<polygon fill="#9a32cd" stroke="#9a32cd" points="219.95,-38.19 212.37,-30.79 213.68,-41.3 219.95,-38.19"/>
<text text-anchor="middle" x="243.5" y="-85.5" font-family="Helvetica,sans-Serif" font-size="10.00"> children</text>
</g>
<!-- Node4&#45;&gt;Node3 -->
<g id="edge3" class="edge">
<title>Node4&#45;&gt;Node3</title>
<path fill="none" stroke="#9a32cd" stroke-dasharray="5,2" d="M152.99,-70.74C164.19,-58.6 179.34,-42.16 190.02,-30.58"/>
<polygon fill="#9a32cd" stroke="#9a32cd" points="150.18,-68.63 145.97,-78.36 155.32,-73.38 150.18,-68.63"/>
<text text-anchor="middle" x="194.5" y="-52" font-family="Helvetica,sans-Serif" font-size="10.00"> elements</text>
</g>
</g>
</svg>
