<?xml version="1.0" encoding="UTF-8" standalone="no"?>
<!DOCTYPE svg PUBLIC "-//W3C//DTD SVG 1.1//EN"
 "http://www.w3.org/Graphics/SVG/1.1/DTD/svg11.dtd">
<!-- Generated by graphviz version 2.44.1 (20200629.0846)
 -->
<!-- Title: OpenGLRenderer Pages: 1 -->
<svg width="2694pt" height="562pt"
 viewBox="0.00 0.00 2694.00 562.00" xmlns="http://www.w3.org/2000/svg" xmlns:xlink="http://www.w3.org/1999/xlink">
<g id="graph0" class="graph" transform="scale(1 1) rotate(0) translate(4 558)">
<title>OpenGLRenderer</title>
<polygon fill="white" stroke="transparent" points="-4,4 -4,-558 2690,-558 2690,4 -4,4"/>
<!-- Node1 -->
<g id="node1" class="node">
<title>Node1</title>
<g id="a_node1"><a xlink:title=" ">
<polygon fill="#bfbfbf" stroke="black" points="2594,-334.5 2594,-353.5 2686,-353.5 2686,-334.5 2594,-334.5"/>
<text text-anchor="middle" x="2640" y="-341.5" font-family="Helvetica,sans-Serif" font-size="10.00">OpenGLRenderer</text>
</a>
</g>
</g>
<!-- Node2 -->
<g id="node2" class="node">
<title>Node2</title>
<g id="a_node2"><a xlink:href="class_loop_renderer.html" target="_top" xlink:title="A renderer that will be run in the game loop.">
<polygon fill="white" stroke="black" points="2411,-280.5 2411,-299.5 2488,-299.5 2488,-280.5 2411,-280.5"/>
<text text-anchor="middle" x="2449.5" y="-287.5" font-family="Helvetica,sans-Serif" font-size="10.00">LoopRenderer</text>
</a>
</g>
</g>
<!-- Node2&#45;&gt;Node1 -->
<g id="edge1" class="edge">
<title>Node2&#45;&gt;Node1</title>
<path fill="none" stroke="midnightblue" d="M2493.46,-302.31C2527.54,-312.07 2574.49,-325.52 2605.75,-334.47"/>
<polygon fill="midnightblue" stroke="midnightblue" points="2494.34,-298.92 2483.77,-299.53 2492.42,-305.65 2494.34,-298.92"/>
</g>
<!-- Node3 -->
<g id="node3" class="node">
<title>Node3</title>
<g id="a_node3"><a xlink:title=" ">
<polygon fill="white" stroke="#bfbfbf" points="972,-465 972,-495 1099,-495 1099,-465 972,-465"/>
<text text-anchor="start" x="980" y="-483" font-family="Helvetica,sans-Serif" font-size="10.00">std::vector&lt; PostProcess</text>
<text text-anchor="middle" x="1035.5" y="-472" font-family="Helvetica,sans-Serif" font-size="10.00">Pass * &gt;</text>
</a>
</g>
</g>
<!-- Node3&#45;&gt;Node2 -->
<g id="edge2" class="edge">
<title>Node3&#45;&gt;Node2</title>
<path fill="none" stroke="#9a32cd" stroke-dasharray="5,2" d="M1109.2,-495.14C1324.95,-535.87 1972.51,-627.27 2390,-357 2403.7,-348.13 2397.67,-337.63 2408,-325 2415.88,-315.36 2426.61,-306.22 2435.04,-299.7"/>
<polygon fill="#9a32cd" stroke="#9a32cd" points="1109.73,-491.68 1099.25,-493.24 1108.42,-498.56 1109.73,-491.68"/>
<text text-anchor="middle" x="1687" y="-546" font-family="Helvetica,sans-Serif" font-size="10.00"> framePostProcessPasses</text>
</g>
<!-- Node4 -->
<g id="node4" class="node">
<title>Node4</title>
<g id="a_node4"><a xlink:href="class_post_process_pass.html" target="_top" xlink:title=" ">
<polygon fill="white" stroke="black" points="622.5,-473.5 622.5,-492.5 717.5,-492.5 717.5,-473.5 622.5,-473.5"/>
<text text-anchor="middle" x="670" y="-480.5" font-family="Helvetica,sans-Serif" font-size="10.00">PostProcessPass</text>
</a>
</g>
</g>
<!-- Node4&#45;&gt;Node3 -->
<g id="edge3" class="edge">
<title>Node4&#45;&gt;Node3</title>
<path fill="none" stroke="#9a32cd" stroke-dasharray="5,2" d="M728.03,-482.53C794.26,-481.98 903.18,-481.08 971.76,-480.52"/>
<polygon fill="#9a32cd" stroke="#9a32cd" points="727.75,-479.03 717.78,-482.61 727.81,-486.03 727.75,-479.03"/>
<text text-anchor="middle" x="809.5" y="-485" font-family="Helvetica,sans-Serif" font-size="10.00"> elements</text>
</g>
<!-- Node5 -->
<g id="node5" class="node">
<title>Node5</title>
<g id="a_node5"><a xlink:title="STL class.">
<polygon fill="white" stroke="#bfbfbf" points="408.5,-394.5 408.5,-413.5 468.5,-413.5 468.5,-394.5 408.5,-394.5"/>
<text text-anchor="middle" x="438.5" y="-401.5" font-family="Helvetica,sans-Serif" font-size="10.00">std::string</text>
</a>
</g>
</g>
<!-- Node5&#45;&gt;Node4 -->
<g id="edge4" class="edge">
<title>Node5&#45;&gt;Node4</title>
<path fill="none" stroke="#9a32cd" stroke-dasharray="5,2" d="M460.63,-419.61C478.29,-431.91 504.61,-448.5 530,-458 559.62,-469.08 594.69,-475.34 622.19,-478.83"/>
<polygon fill="#9a32cd" stroke="#9a32cd" points="462.41,-416.59 452.23,-413.64 458.35,-422.29 462.41,-416.59"/>
<text text-anchor="middle" x="551.5" y="-472" font-family="Helvetica,sans-Serif" font-size="10.00"> name</text>
</g>
<!-- Node9 -->
<g id="node9" class="node">
<title>Node9</title>
<g id="a_node9"><a xlink:href="class_entity.html" target="_top" xlink:title=" ">
<polygon fill="white" stroke="black" points="891,-162.5 891,-181.5 933,-181.5 933,-162.5 891,-162.5"/>
<text text-anchor="middle" x="912" y="-169.5" font-family="Helvetica,sans-Serif" font-size="10.00">Entity</text>
</a>
</g>
</g>
<!-- Node5&#45;&gt;Node9 -->
<g id="edge9" class="edge">
<title>Node5&#45;&gt;Node9</title>
<path fill="none" stroke="#9a32cd" stroke-dasharray="5,2" d="M460.35,-388.26C475.78,-375.95 496.7,-357.81 512,-339 556.12,-284.78 532.01,-240.5 591,-203 640.14,-171.77 794.14,-186.47 852,-180 864.94,-178.55 879.44,-176.59 890.82,-174.97"/>
<polygon fill="#9a32cd" stroke="#9a32cd" points="458.13,-385.55 452.41,-394.47 462.44,-391.07 458.13,-385.55"/>
<text text-anchor="middle" x="670" y="-206" font-family="Helvetica,sans-Serif" font-size="10.00"> name</text>
</g>
<!-- Node24 -->
<g id="node24" class="node">
<title>Node24</title>
<g id="a_node24"><a xlink:href="class_component.html" target="_top" xlink:title=" ">
<polygon fill="white" stroke="black" points="1167.5,-289.5 1167.5,-308.5 1233.5,-308.5 1233.5,-289.5 1167.5,-289.5"/>
<text text-anchor="middle" x="1200.5" y="-296.5" font-family="Helvetica,sans-Serif" font-size="10.00">Component</text>
</a>
</g>
</g>
<!-- Node5&#45;&gt;Node24 -->
<g id="edge29" class="edge">
<title>Node5&#45;&gt;Node24</title>
<path fill="none" stroke="#9a32cd" stroke-dasharray="5,2" d="M478.91,-411.31C509.38,-416.58 552.7,-423.23 591,-426 828.51,-443.16 889.42,-394.12 1117,-324 1133.73,-318.84 1152.4,-313.18 1167.75,-308.55"/>
<polygon fill="#9a32cd" stroke="#9a32cd" points="479.15,-407.8 468.69,-409.52 477.93,-414.7 479.15,-407.8"/>
<text text-anchor="middle" x="809.5" y="-427" font-family="Helvetica,sans-Serif" font-size="10.00"> componentName</text>
</g>
<!-- Node31 -->
<g id="node31" class="node">
<title>Node31</title>
<g id="a_node31"><a xlink:title=" ">
<polygon fill="white" stroke="#bfbfbf" points="608.5,-299.5 608.5,-340.5 731.5,-340.5 731.5,-299.5 608.5,-299.5"/>
<text text-anchor="start" x="616.5" y="-328.5" font-family="Helvetica,sans-Serif" font-size="10.00">std::unordered_map</text>
<text text-anchor="start" x="616.5" y="-317.5" font-family="Helvetica,sans-Serif" font-size="10.00">&lt; string, BufferGeometry</text>
<text text-anchor="middle" x="670" y="-306.5" font-family="Helvetica,sans-Serif" font-size="10.00">::AttributeData &gt;</text>
</a>
</g>
</g>
<!-- Node5&#45;&gt;Node31 -->
<g id="edge38" class="edge">
<title>Node5&#45;&gt;Node31</title>
<path fill="none" stroke="#9a32cd" stroke-dasharray="5,2" d="M475.64,-390.77C512.47,-377.29 570.13,-356.19 612.91,-340.53"/>
<polygon fill="#9a32cd" stroke="#9a32cd" points="474.01,-387.64 465.83,-394.36 476.42,-394.21 474.01,-387.64"/>
<text text-anchor="middle" x="551.5" y="-372" font-family="Helvetica,sans-Serif" font-size="10.00"> keys</text>
</g>
<!-- Node6 -->
<g id="node6" class="node">
<title>Node6</title>
<g id="a_node6"><a xlink:title="STL class.">
<polygon fill="white" stroke="#bfbfbf" points="162,-389 162,-419 257,-419 257,-389 162,-389"/>
<text text-anchor="start" x="170" y="-407" font-family="Helvetica,sans-Serif" font-size="10.00">std::basic_string&lt;</text>
<text text-anchor="middle" x="209.5" y="-396" font-family="Helvetica,sans-Serif" font-size="10.00"> char &gt;</text>
</a>
</g>
</g>
<!-- Node6&#45;&gt;Node5 -->
<g id="edge5" class="edge">
<title>Node6&#45;&gt;Node5</title>
<path fill="none" stroke="midnightblue" d="M267.43,-404C312.29,-404 372.99,-404 408.43,-404"/>
<polygon fill="midnightblue" stroke="midnightblue" points="267.26,-400.5 257.26,-404 267.26,-407.5 267.26,-400.5"/>
</g>
<!-- Node7 -->
<g id="node7" class="node">
<title>Node7</title>
<g id="a_node7"><a xlink:href="struct_utils_1_1_unique_ptr_vector.html" target="_top" xlink:title=" ">
<polygon fill="white" stroke="black" points="2148.5,-281 2148.5,-311 2261.5,-311 2261.5,-281 2148.5,-281"/>
<text text-anchor="start" x="2156.5" y="-299" font-family="Helvetica,sans-Serif" font-size="10.00">Utils::UniquePtrVector</text>
<text text-anchor="middle" x="2205" y="-288" font-family="Helvetica,sans-Serif" font-size="10.00">&lt; PostProcessPass &gt;</text>
</a>
</g>
</g>
<!-- Node7&#45;&gt;Node2 -->
<g id="edge6" class="edge">
<title>Node7&#45;&gt;Node2</title>
<path fill="none" stroke="#9a32cd" stroke-dasharray="5,2" d="M2272.08,-292.03C2280.8,-291.62 2289.61,-291.26 2298,-291 2336.39,-289.83 2380.32,-289.67 2410.76,-289.75"/>
<polygon fill="#9a32cd" stroke="#9a32cd" points="2271.75,-288.54 2261.93,-292.53 2272.09,-295.53 2271.75,-288.54"/>
<text text-anchor="middle" x="2344" y="-294" font-family="Helvetica,sans-Serif" font-size="10.00"> postProcessPasses</text>
</g>
<!-- Node8 -->
<g id="node8" class="node">
<title>Node8</title>
<g id="a_node8"><a xlink:href="class_camera.html" target="_top" xlink:title=" ">
<polygon fill="white" stroke="black" points="1915,-146.5 1915,-165.5 1965,-165.5 1965,-146.5 1915,-146.5"/>
<text text-anchor="middle" x="1940" y="-153.5" font-family="Helvetica,sans-Serif" font-size="10.00">Camera</text>
</a>
</g>
</g>
<!-- Node8&#45;&gt;Node2 -->
<g id="edge7" class="edge">
<title>Node8&#45;&gt;Node2</title>
<path fill="none" stroke="#9a32cd" stroke-dasharray="5,2" d="M1968.13,-170.48C1996.7,-185.7 2038.12,-207.63 2042,-209 2076.77,-221.3 2316.52,-265.84 2410.67,-283.1"/>
<polygon fill="#9a32cd" stroke="#9a32cd" points="1969.47,-167.23 1959,-165.62 1966.18,-173.41 1969.47,-167.23"/>
<text text-anchor="middle" x="2205" y="-261" font-family="Helvetica,sans-Serif" font-size="10.00"> mainCamera</text>
</g>
<!-- Node18 -->
<g id="node18" class="node">
<title>Node18</title>
<g id="a_node18"><a xlink:title=" ">
<polygon fill="white" stroke="#bfbfbf" points="2139,-135.5 2139,-176.5 2271,-176.5 2271,-135.5 2139,-135.5"/>
<text text-anchor="start" x="2147" y="-164.5" font-family="Helvetica,sans-Serif" font-size="10.00">std::unordered_map</text>
<text text-anchor="start" x="2147" y="-153.5" font-family="Helvetica,sans-Serif" font-size="10.00">&lt; Camera *, LoopRenderer</text>
<text text-anchor="middle" x="2205" y="-142.5" font-family="Helvetica,sans-Serif" font-size="10.00">::FrustumCullingData &gt;</text>
</a>
</g>
</g>
<!-- Node8&#45;&gt;Node18 -->
<g id="edge21" class="edge">
<title>Node8&#45;&gt;Node18</title>
<path fill="none" stroke="#9a32cd" stroke-dasharray="5,2" d="M1975.39,-156C2016.76,-156 2087.12,-156 2138.88,-156"/>
<polygon fill="#9a32cd" stroke="#9a32cd" points="1975.27,-152.5 1965.27,-156 1975.27,-159.5 1975.27,-152.5"/>
<text text-anchor="middle" x="2077" y="-159" font-family="Helvetica,sans-Serif" font-size="10.00"> keys</text>
</g>
<!-- Node9&#45;&gt;Node8 -->
<g id="edge8" class="edge">
<title>Node9&#45;&gt;Node8</title>
<path fill="none" stroke="midnightblue" d="M943.37,-169.19C995.64,-164.6 1106.02,-156 1199.5,-156 1199.5,-156 1199.5,-156 1688,-156 1771.23,-156 1869.99,-156 1914.77,-156"/>
<polygon fill="midnightblue" stroke="midnightblue" points="942.77,-165.73 933.12,-170.1 943.4,-172.7 942.77,-165.73"/>
</g>
<!-- Node9&#45;&gt;Node24 -->
<g id="edge28" class="edge">
<title>Node9&#45;&gt;Node24</title>
<path fill="none" stroke="#9a32cd" stroke-dasharray="5,2" d="M943.49,-170.72C990.31,-169.44 1076.84,-169.97 1099,-190 1129.26,-217.35 1088.58,-250.74 1117,-280 1129.9,-293.28 1150.09,-298.09 1167.27,-299.55"/>
<polygon fill="#9a32cd" stroke="#9a32cd" points="943.2,-167.23 933.32,-171.05 943.43,-174.23 943.2,-167.23"/>
<text text-anchor="middle" x="1035.5" y="-193" font-family="Helvetica,sans-Serif" font-size="10.00"> associatedEntity</text>
</g>
<!-- Node10 -->
<g id="node10" class="node">
<title>Node10</title>
<g id="a_node10"><a xlink:title=" ">
<polygon fill="white" stroke="#bfbfbf" points="599,-138.5 599,-157.5 741,-157.5 741,-138.5 599,-138.5"/>
<text text-anchor="middle" x="670" y="-145.5" font-family="Helvetica,sans-Serif" font-size="10.00">std::unique_ptr&lt; Transform &gt;</text>
</a>
</g>
</g>
<!-- Node10&#45;&gt;Node9 -->
<g id="edge10" class="edge">
<title>Node10&#45;&gt;Node9</title>
<path fill="none" stroke="#9a32cd" stroke-dasharray="5,2" d="M751.13,-156.01C800.62,-160.96 860.31,-166.93 890.85,-169.98"/>
<polygon fill="#9a32cd" stroke="#9a32cd" points="751.36,-152.52 741.06,-155.01 750.67,-159.48 751.36,-152.52"/>
<text text-anchor="middle" x="809.5" y="-169" font-family="Helvetica,sans-Serif" font-size="10.00"> transform</text>
</g>
<!-- Node11 -->
<g id="node11" class="node">
<title>Node11</title>
<g id="a_node11"><a xlink:href="class_transform.html" target="_top" xlink:title=" ">
<polygon fill="white" stroke="black" points="409,-109.5 409,-128.5 468,-128.5 468,-109.5 409,-109.5"/>
<text text-anchor="middle" x="438.5" y="-116.5" font-family="Helvetica,sans-Serif" font-size="10.00">Transform</text>
</a>
</g>
</g>
<!-- Node11&#45;&gt;Node10 -->
<g id="edge11" class="edge">
<title>Node11&#45;&gt;Node10</title>
<path fill="none" stroke="#9a32cd" stroke-dasharray="5,2" d="M478.2,-123.89C511.01,-128.04 558.92,-134.09 598.53,-139.09"/>
<polygon fill="#9a32cd" stroke="#9a32cd" points="478.46,-120.4 468.1,-122.61 477.58,-127.34 478.46,-120.4"/>
<text text-anchor="middle" x="551.5" y="-139" font-family="Helvetica,sans-Serif" font-size="10.00"> ptr</text>
</g>
<!-- Node11&#45;&gt;Node11 -->
<g id="edge14" class="edge">
<title>Node11&#45;&gt;Node11</title>
<path fill="none" stroke="#9a32cd" stroke-dasharray="5,2" d="M418.13,-138.4C419.49,-143.31 426.28,-147 438.5,-147 458.05,-147 463.7,-137.57 455.45,-128.76"/>
<polygon fill="#9a32cd" stroke="#9a32cd" points="421.51,-139.35 421.55,-128.76 414.91,-137.01 421.51,-139.35"/>
<text text-anchor="middle" x="438.5" y="-150" font-family="Helvetica,sans-Serif" font-size="10.00"> parent</text>
</g>
<!-- Node12 -->
<g id="node12" class="node">
<title>Node12</title>
<g id="a_node12"><a xlink:title=" ">
<polygon fill="white" stroke="#bfbfbf" points="605.5,-96.5 605.5,-115.5 734.5,-115.5 734.5,-96.5 605.5,-96.5"/>
<text text-anchor="middle" x="670" y="-103.5" font-family="Helvetica,sans-Serif" font-size="10.00">std::vector&lt; Transform * &gt;</text>
</a>
</g>
</g>
<!-- Node11&#45;&gt;Node12 -->
<g id="edge13" class="edge">
<title>Node11&#45;&gt;Node12</title>
<path fill="none" stroke="#9a32cd" stroke-dasharray="5,2" d="M478.12,-107.46C494.03,-103.28 512.75,-99.07 530,-97 554.49,-94.07 581.53,-94.9 605.2,-96.96"/>
<polygon fill="#9a32cd" stroke="#9a32cd" points="476.84,-104.18 468.12,-110.19 478.68,-110.94 476.84,-104.18"/>
<text text-anchor="middle" x="551.5" y="-100" font-family="Helvetica,sans-Serif" font-size="10.00"> elements</text>
</g>
<!-- Node12&#45;&gt;Node11 -->
<g id="edge12" class="edge">
<title>Node12&#45;&gt;Node11</title>
<path fill="none" stroke="#9a32cd" stroke-dasharray="5,2" d="M595.05,-110.19C551.82,-112.64 499.69,-115.59 468.1,-117.38"/>
<polygon fill="#9a32cd" stroke="#9a32cd" points="595.48,-113.67 605.27,-109.61 595.08,-106.68 595.48,-113.67"/>
<text text-anchor="middle" x="551.5" y="-117" font-family="Helvetica,sans-Serif" font-size="10.00"> children</text>
</g>
<!-- Node13 -->
<g id="node13" class="node">
<title>Node13</title>
<g id="a_node13"><a xlink:title=" ">
<polygon fill="white" stroke="#bfbfbf" points="1620,-97 1620,-127 1754,-127 1754,-97 1620,-97"/>
<text text-anchor="start" x="1628" y="-115" font-family="Helvetica,sans-Serif" font-size="10.00">std::unique_ptr&lt; Projection</text>
<text text-anchor="middle" x="1687" y="-104" font-family="Helvetica,sans-Serif" font-size="10.00">Data &gt;</text>
</a>
</g>
</g>
<!-- Node13&#45;&gt;Node8 -->
<g id="edge15" class="edge">
<title>Node13&#45;&gt;Node8</title>
<path fill="none" stroke="#9a32cd" stroke-dasharray="5,2" d="M1764.34,-119.92C1788.03,-122.85 1814.18,-126.56 1838,-131 1864.46,-135.93 1894.33,-143.59 1914.68,-149.13"/>
<polygon fill="#9a32cd" stroke="#9a32cd" points="1764.69,-116.44 1754.34,-118.72 1763.85,-123.39 1764.69,-116.44"/>
<text text-anchor="middle" x="1805" y="-134" font-family="Helvetica,sans-Serif" font-size="10.00"> projectionData</text>
</g>
<!-- Node14 -->
<g id="node14" class="node">
<title>Node14</title>
<g id="a_node14"><a xlink:href="class_projection_data.html" target="_top" xlink:title=" ">
<polygon fill="white" stroke="black" points="1364,-102.5 1364,-121.5 1444,-121.5 1444,-102.5 1364,-102.5"/>
<text text-anchor="middle" x="1404" y="-109.5" font-family="Helvetica,sans-Serif" font-size="10.00">ProjectionData</text>
</a>
</g>
</g>
<!-- Node14&#45;&gt;Node13 -->
<g id="edge16" class="edge">
<title>Node14&#45;&gt;Node13</title>
<path fill="none" stroke="#9a32cd" stroke-dasharray="5,2" d="M1454.08,-112C1500,-112 1568.94,-112 1619.73,-112"/>
<polygon fill="#9a32cd" stroke="#9a32cd" points="1454.07,-108.5 1444.07,-112 1454.07,-115.5 1454.07,-108.5"/>
<text text-anchor="middle" x="1532" y="-115" font-family="Helvetica,sans-Serif" font-size="10.00"> ptr</text>
</g>
<!-- Node15 -->
<g id="node15" class="node">
<title>Node15</title>
<g id="a_node15"><a xlink:title="STL class.">
<polygon fill="white" stroke="#bfbfbf" points="2173.5,-195.5 2173.5,-214.5 2236.5,-214.5 2236.5,-195.5 2173.5,-195.5"/>
<text text-anchor="middle" x="2205" y="-202.5" font-family="Helvetica,sans-Serif" font-size="10.00">std::mutex</text>
</a>
</g>
</g>
<!-- Node15&#45;&gt;Node2 -->
<g id="edge17" class="edge">
<title>Node15&#45;&gt;Node2</title>
<path fill="none" stroke="#9a32cd" stroke-dasharray="5,2" d="M2246.94,-201.7C2285.86,-200.34 2344.98,-203.02 2390,-226 2414.4,-238.46 2433.68,-265.55 2442.78,-280.17"/>
<polygon fill="#9a32cd" stroke="#9a32cd" points="2246.35,-198.23 2236.52,-202.18 2246.67,-205.22 2246.35,-198.23"/>
<text text-anchor="middle" x="2344" y="-229" font-family="Helvetica,sans-Serif" font-size="10.00"> frustumCullingMutex</text>
</g>
<!-- Node16 -->
<g id="node16" class="node">
<title>Node16</title>
<g id="a_node16"><a xlink:title=" ">
<polygon fill="white" stroke="#bfbfbf" points="2130,-330.5 2130,-349.5 2280,-349.5 2280,-330.5 2130,-330.5"/>
<text text-anchor="middle" x="2205" y="-337.5" font-family="Helvetica,sans-Serif" font-size="10.00">std::unique_ptr&lt; Framebuffer &gt;</text>
</a>
</g>
</g>
<!-- Node16&#45;&gt;Node2 -->
<g id="edge18" class="edge">
<title>Node16&#45;&gt;Node2</title>
<path fill="none" stroke="#9a32cd" stroke-dasharray="5,2" d="M2262.23,-328.41C2307.91,-318.99 2371.06,-305.97 2410.84,-297.76"/>
<polygon fill="#9a32cd" stroke="#9a32cd" points="2261.27,-325.03 2252.18,-330.48 2262.68,-331.89 2261.27,-325.03"/>
<text text-anchor="middle" x="2344" y="-345" font-family="Helvetica,sans-Serif" font-size="10.00"> readFramebuffer</text>
<text text-anchor="middle" x="2344" y="-334" font-family="Helvetica,sans-Serif" font-size="10.00">screenFramebuffer</text>
<text text-anchor="middle" x="2344" y="-323" font-family="Helvetica,sans-Serif" font-size="10.00">writeFramebuffer</text>
</g>
<!-- Node17 -->
<g id="node17" class="node">
<title>Node17</title>
<g id="a_node17"><a xlink:href="class_framebuffer.html" target="_top" xlink:title=" ">
<polygon fill="white" stroke="black" points="1906,-330.5 1906,-349.5 1974,-349.5 1974,-330.5 1906,-330.5"/>
<text text-anchor="middle" x="1940" y="-337.5" font-family="Helvetica,sans-Serif" font-size="10.00">Framebuffer</text>
</a>
</g>
</g>
<!-- Node17&#45;&gt;Node16 -->
<g id="edge19" class="edge">
<title>Node17&#45;&gt;Node16</title>
<path fill="none" stroke="#9a32cd" stroke-dasharray="5,2" d="M1984.12,-340C2023.55,-340 2082.73,-340 2129.76,-340"/>
<polygon fill="#9a32cd" stroke="#9a32cd" points="1984.04,-336.5 1974.04,-340 1984.04,-343.5 1984.04,-336.5"/>
<text text-anchor="middle" x="2077" y="-343" font-family="Helvetica,sans-Serif" font-size="10.00"> ptr</text>
</g>
<!-- Node18&#45;&gt;Node2 -->
<g id="edge20" class="edge">
<title>Node18&#45;&gt;Node2</title>
<path fill="none" stroke="#9a32cd" stroke-dasharray="5,2" d="M2281.56,-154.74C2317.22,-157.55 2358.7,-166.07 2390,-188 2423.1,-211.19 2440,-259.53 2445.95,-280.24"/>
<polygon fill="#9a32cd" stroke="#9a32cd" points="2281.4,-151.22 2271.19,-154.07 2280.94,-158.21 2281.4,-151.22"/>
<text text-anchor="middle" x="2344" y="-191" font-family="Helvetica,sans-Serif" font-size="10.00"> frustumCulled</text>
</g>
<!-- Node19 -->
<g id="node19" class="node">
<title>Node19</title>
<g id="a_node19"><a xlink:href="struct_loop_renderer_1_1_frustum_culling_data.html" target="_top" xlink:title=" ">
<polygon fill="white" stroke="black" points="1856,-209.5 1856,-228.5 2024,-228.5 2024,-209.5 1856,-209.5"/>
<text text-anchor="middle" x="1940" y="-216.5" font-family="Helvetica,sans-Serif" font-size="10.00">LoopRenderer::FrustumCullingData</text>
</a>
</g>
</g>
<!-- Node19&#45;&gt;Node18 -->
<g id="edge22" class="edge">
<title>Node19&#45;&gt;Node18</title>
<path fill="none" stroke="#9a32cd" stroke-dasharray="5,2" d="M1990.93,-207.04C2032.86,-196.99 2093.1,-182.57 2138.83,-171.61"/>
<polygon fill="#9a32cd" stroke="#9a32cd" points="1989.85,-203.7 1980.94,-209.43 1991.48,-210.51 1989.85,-203.7"/>
<text text-anchor="middle" x="2077" y="-197" font-family="Helvetica,sans-Serif" font-size="10.00"> elements</text>
</g>
<!-- Node20 -->
<g id="node20" class="node">
<title>Node20</title>
<g id="a_node20"><a xlink:href="struct_math_1_1_frustum.html" target="_top" xlink:title=" ">
<polygon fill="white" stroke="black" points="1647,-253.5 1647,-272.5 1727,-272.5 1727,-253.5 1647,-253.5"/>
<text text-anchor="middle" x="1687" y="-260.5" font-family="Helvetica,sans-Serif" font-size="10.00">Math::Frustum</text>
</a>
</g>
</g>
<!-- Node20&#45;&gt;Node19 -->
<g id="edge23" class="edge">
<title>Node20&#45;&gt;Node19</title>
<path fill="none" stroke="#9a32cd" stroke-dasharray="5,2" d="M1737.31,-254.36C1779.74,-246.92 1840.87,-236.2 1884.69,-228.52"/>
<polygon fill="#9a32cd" stroke="#9a32cd" points="1736.46,-250.95 1727.22,-256.12 1737.67,-257.85 1736.46,-250.95"/>
<text text-anchor="middle" x="1805" y="-251" font-family="Helvetica,sans-Serif" font-size="10.00"> frustum</text>
</g>
<!-- Node21 -->
<g id="node21" class="node">
<title>Node21</title>
<g id="a_node21"><a xlink:href="struct_math_1_1_plane.html" target="_top" xlink:title=" ">
<polygon fill="white" stroke="black" points="1369.5,-253.5 1369.5,-272.5 1438.5,-272.5 1438.5,-253.5 1369.5,-253.5"/>
<text text-anchor="middle" x="1404" y="-260.5" font-family="Helvetica,sans-Serif" font-size="10.00">Math::Plane</text>
</a>
</g>
</g>
<!-- Node21&#45;&gt;Node20 -->
<g id="edge24" class="edge">
<title>Node21&#45;&gt;Node20</title>
<path fill="none" stroke="#9a32cd" stroke-dasharray="5,2" d="M1448.63,-263C1502.93,-263 1594.85,-263 1646.94,-263"/>
<polygon fill="#9a32cd" stroke="#9a32cd" points="1448.62,-259.5 1438.62,-263 1448.62,-266.5 1448.62,-259.5"/>
<text text-anchor="middle" x="1532" y="-266" font-family="Helvetica,sans-Serif" font-size="10.00"> planes</text>
</g>
<!-- Node22 -->
<g id="node22" class="node">
<title>Node22</title>
<g id="a_node22"><a xlink:title=" ">
<polygon fill="white" stroke="#bfbfbf" points="1627,-204 1627,-234 1747,-234 1747,-204 1627,-204"/>
<text text-anchor="start" x="1635" y="-222" font-family="Helvetica,sans-Serif" font-size="10.00">std::unordered_map</text>
<text text-anchor="middle" x="1687" y="-211" font-family="Helvetica,sans-Serif" font-size="10.00">&lt; RenderMesh *, bool &gt;</text>
</a>
</g>
</g>
<!-- Node22&#45;&gt;Node19 -->
<g id="edge25" class="edge">
<title>Node22&#45;&gt;Node19</title>
<path fill="none" stroke="#9a32cd" stroke-dasharray="5,2" d="M1757.25,-219C1787.67,-219 1823.65,-219 1855.53,-219"/>
<polygon fill="#9a32cd" stroke="#9a32cd" points="1757.17,-215.5 1747.17,-219 1757.17,-222.5 1757.17,-215.5"/>
<text text-anchor="middle" x="1805" y="-222" font-family="Helvetica,sans-Serif" font-size="10.00"> culledMeshes</text>
</g>
<!-- Node23 -->
<g id="node23" class="node">
<title>Node23</title>
<g id="a_node23"><a xlink:href="class_render_mesh.html" target="_top" xlink:title=" ">
<polygon fill="white" stroke="black" points="1368.5,-213.5 1368.5,-232.5 1439.5,-232.5 1439.5,-213.5 1368.5,-213.5"/>
<text text-anchor="middle" x="1404" y="-220.5" font-family="Helvetica,sans-Serif" font-size="10.00">RenderMesh</text>
</a>
</g>
</g>
<!-- Node23&#45;&gt;Node22 -->
<g id="edge26" class="edge">
<title>Node23&#45;&gt;Node22</title>
<path fill="none" stroke="#9a32cd" stroke-dasharray="5,2" d="M1449.81,-222.36C1497.75,-221.68 1574,-220.59 1626.84,-219.84"/>
<polygon fill="#9a32cd" stroke="#9a32cd" points="1449.69,-218.86 1439.74,-222.51 1449.79,-225.86 1449.69,-218.86"/>
<text text-anchor="middle" x="1532" y="-226" font-family="Helvetica,sans-Serif" font-size="10.00"> keys</text>
</g>
<!-- Node24&#45;&gt;Node23 -->
<g id="edge27" class="edge">
<title>Node24&#45;&gt;Node23</title>
<path fill="none" stroke="midnightblue" d="M1243.88,-293.41C1273.91,-288.09 1314.32,-278.11 1346,-260 1355.29,-254.69 1355.23,-250.13 1364,-244 1369.92,-239.86 1376.76,-235.93 1383.03,-232.61"/>
<polygon fill="midnightblue" stroke="midnightblue" points="1243.02,-290 1233.73,-295.1 1244.17,-296.91 1243.02,-290"/>
</g>
<!-- Node25 -->
<g id="node25" class="node">
<title>Node25</title>
<g id="a_node25"><a xlink:href="struct_math_1_1_sphere.html" target="_top" xlink:title="A structure for handling a mathematical sphere object.">
<polygon fill="white" stroke="black" points="632.5,-223.5 632.5,-242.5 707.5,-242.5 707.5,-223.5 632.5,-223.5"/>
<text text-anchor="middle" x="670" y="-230.5" font-family="Helvetica,sans-Serif" font-size="10.00">Math::Sphere</text>
</a>
</g>
</g>
<!-- Node25&#45;&gt;Node23 -->
<g id="edge30" class="edge">
<title>Node25&#45;&gt;Node23</title>
<path fill="none" stroke="#9a32cd" stroke-dasharray="5,2" d="M717.66,-232.36C853.82,-230.5 1248.6,-225.11 1368.24,-223.47"/>
<polygon fill="#9a32cd" stroke="#9a32cd" points="717.5,-228.86 707.55,-232.5 717.6,-235.86 717.5,-228.86"/>
<text text-anchor="middle" x="1035.5" y="-232" font-family="Helvetica,sans-Serif" font-size="10.00"> boundingSphere</text>
</g>
<!-- Node27 -->
<g id="node27" class="node">
<title>Node27</title>
<g id="a_node27"><a xlink:href="class_buffer_geometry.html" target="_top" xlink:title=" ">
<polygon fill="white" stroke="black" points="870,-314.5 870,-333.5 954,-333.5 954,-314.5 870,-314.5"/>
<text text-anchor="middle" x="912" y="-321.5" font-family="Helvetica,sans-Serif" font-size="10.00">BufferGeometry</text>
</a>
</g>
</g>
<!-- Node25&#45;&gt;Node27 -->
<g id="edge33" class="edge">
<title>Node25&#45;&gt;Node27</title>
<path fill="none" stroke="#9a32cd" stroke-dasharray="5,2" d="M718.02,-236.98C755.86,-241.66 809.54,-251.69 852,-273 872.57,-283.32 891.84,-302.43 902.46,-314.1"/>
<polygon fill="#9a32cd" stroke="#9a32cd" points="718.13,-233.47 707.79,-235.8 717.33,-240.42 718.13,-233.47"/>
<text text-anchor="middle" x="809.5" y="-276" font-family="Helvetica,sans-Serif" font-size="10.00"> boundingSphere</text>
</g>
<!-- Node26 -->
<g id="node26" class="node">
<title>Node26</title>
<g id="a_node26"><a xlink:title=" ">
<polygon fill="white" stroke="#bfbfbf" points="1117,-251.5 1117,-270.5 1284,-270.5 1284,-251.5 1117,-251.5"/>
<text text-anchor="middle" x="1200.5" y="-258.5" font-family="Helvetica,sans-Serif" font-size="10.00">std::shared_ptr&lt; BufferGeometry &gt;</text>
</a>
</g>
</g>
<!-- Node26&#45;&gt;Node23 -->
<g id="edge31" class="edge">
<title>Node26&#45;&gt;Node23</title>
<path fill="none" stroke="#9a32cd" stroke-dasharray="5,2" d="M1270.73,-249.79C1294.63,-245.72 1321.54,-240.9 1346,-236 1353.27,-234.54 1361.02,-232.86 1368.4,-231.2"/>
<polygon fill="#9a32cd" stroke="#9a32cd" points="1269.96,-246.37 1260.69,-251.49 1271.13,-253.27 1269.96,-246.37"/>
<text text-anchor="middle" x="1324" y="-248" font-family="Helvetica,sans-Serif" font-size="10.00"> geometry</text>
</g>
<!-- Node27&#45;&gt;Node26 -->
<g id="edge32" class="edge">
<title>Node27&#45;&gt;Node26</title>
<path fill="none" stroke="#9a32cd" stroke-dasharray="5,2" d="M963.88,-312.81C1018.58,-300.78 1104.61,-281.87 1156.18,-270.53"/>
<polygon fill="#9a32cd" stroke="#9a32cd" points="963.06,-309.41 954.05,-314.97 964.57,-316.24 963.06,-309.41"/>
<text text-anchor="middle" x="1035.5" y="-313" font-family="Helvetica,sans-Serif" font-size="10.00"> ptr</text>
</g>
<!-- Node43 -->
<g id="node43" class="node">
<title>Node43</title>
<g id="a_node43"><a xlink:href="class_plane_buffer_geometry.html" target="_top" xlink:title=" ">
<polygon fill="white" stroke="black" points="1146,-333.5 1146,-352.5 1255,-352.5 1255,-333.5 1146,-333.5"/>
<text text-anchor="middle" x="1200.5" y="-340.5" font-family="Helvetica,sans-Serif" font-size="10.00">PlaneBufferGeometry</text>
</a>
</g>
</g>
<!-- Node27&#45;&gt;Node43 -->
<g id="edge51" class="edge">
<title>Node27&#45;&gt;Node43</title>
<path fill="none" stroke="midnightblue" d="M964.22,-327.4C1015.41,-330.79 1093.79,-335.99 1145.83,-339.44"/>
<polygon fill="midnightblue" stroke="midnightblue" points="964.26,-323.89 954.05,-326.72 963.79,-330.88 964.26,-323.89"/>
</g>
<!-- Node28 -->
<g id="node28" class="node">
<title>Node28</title>
<g id="a_node28"><a xlink:title=" ">
<polygon fill="white" stroke="#bfbfbf" points="613,-261.5 613,-280.5 727,-280.5 727,-261.5 613,-261.5"/>
<text text-anchor="middle" x="670" y="-268.5" font-family="Helvetica,sans-Serif" font-size="10.00">std::vector&lt; uint32_t &gt;</text>
</a>
</g>
</g>
<!-- Node28&#45;&gt;Node27 -->
<g id="edge34" class="edge">
<title>Node28&#45;&gt;Node27</title>
<path fill="none" stroke="#9a32cd" stroke-dasharray="5,2" d="M737.13,-282.06C771.57,-288.26 814.26,-296.62 852,-306 861.77,-308.43 872.32,-311.5 881.76,-314.41"/>
<polygon fill="#9a32cd" stroke="#9a32cd" points="737.64,-278.6 727.19,-280.29 736.42,-285.49 737.64,-278.6"/>
<text text-anchor="middle" x="809.5" y="-309" font-family="Helvetica,sans-Serif" font-size="10.00"> indexes</text>
</g>
<!-- Node29 -->
<g id="node29" class="node">
<title>Node29</title>
<g id="a_node29"><a xlink:title=" ">
<polygon fill="white" stroke="#bfbfbf" points="616,-397.5 616,-416.5 724,-416.5 724,-397.5 616,-397.5"/>
<text text-anchor="middle" x="670" y="-404.5" font-family="Helvetica,sans-Serif" font-size="10.00">std::vector&lt; GLuint &gt;</text>
</a>
</g>
</g>
<!-- Node29&#45;&gt;Node27 -->
<g id="edge35" class="edge">
<title>Node29&#45;&gt;Node27</title>
<path fill="none" stroke="#9a32cd" stroke-dasharray="5,2" d="M734.59,-399.5C770.25,-393.7 814.89,-383.74 852,-367 870.72,-358.56 889.37,-343.58 900.55,-333.72"/>
<polygon fill="#9a32cd" stroke="#9a32cd" points="733.65,-396.1 724.31,-401.1 734.73,-403.02 733.65,-396.1"/>
<text text-anchor="middle" x="809.5" y="-395" font-family="Helvetica,sans-Serif" font-size="10.00"> locationsToDisable</text>
</g>
<!-- Node30 -->
<g id="node30" class="node">
<title>Node30</title>
<g id="a_node30"><a xlink:href="struct_math_1_1_axis_aligned_box.html" target="_top" xlink:title="A structure representing an axis&#45;aligned 3D box.">
<polygon fill="white" stroke="black" points="613.5,-359.5 613.5,-378.5 726.5,-378.5 726.5,-359.5 613.5,-359.5"/>
<text text-anchor="middle" x="670" y="-366.5" font-family="Helvetica,sans-Serif" font-size="10.00">Math::AxisAlignedBox</text>
</a>
</g>
</g>
<!-- Node30&#45;&gt;Node27 -->
<g id="edge36" class="edge">
<title>Node30&#45;&gt;Node27</title>
<path fill="none" stroke="#9a32cd" stroke-dasharray="5,2" d="M736.5,-358.1C770.94,-352.2 813.83,-344.58 852,-337 857.76,-335.86 863.83,-334.59 869.78,-333.31"/>
<polygon fill="#9a32cd" stroke="#9a32cd" points="735.83,-354.66 726.56,-359.8 737.01,-361.56 735.83,-354.66"/>
<text text-anchor="middle" x="809.5" y="-355" font-family="Helvetica,sans-Serif" font-size="10.00"> boundingBox</text>
</g>
<!-- Node31&#45;&gt;Node27 -->
<g id="edge37" class="edge">
<title>Node31&#45;&gt;Node27</title>
<path fill="none" stroke="#9a32cd" stroke-dasharray="5,2" d="M741.66,-321.18C783.31,-321.87 834.57,-322.73 869.72,-323.31"/>
<polygon fill="#9a32cd" stroke="#9a32cd" points="741.62,-317.68 731.56,-321.01 741.5,-324.68 741.62,-317.68"/>
<text text-anchor="middle" x="809.5" y="-325" font-family="Helvetica,sans-Serif" font-size="10.00"> attributes</text>
</g>
<!-- Node32 -->
<g id="node32" class="node">
<title>Node32</title>
<g id="a_node32"><a xlink:href="struct_buffer_geometry_1_1_attribute_data.html" target="_top" xlink:title=" ">
<polygon fill="white" stroke="black" points="365,-310.5 365,-329.5 512,-329.5 512,-310.5 365,-310.5"/>
<text text-anchor="middle" x="438.5" y="-317.5" font-family="Helvetica,sans-Serif" font-size="10.00">BufferGeometry::AttributeData</text>
</a>
</g>
</g>
<!-- Node32&#45;&gt;Node31 -->
<g id="edge39" class="edge">
<title>Node32&#45;&gt;Node31</title>
<path fill="none" stroke="#9a32cd" stroke-dasharray="5,2" d="M522.44,-320C550.85,-320 582.09,-320 608.4,-320"/>
<polygon fill="#9a32cd" stroke="#9a32cd" points="522.12,-316.5 512.12,-320 522.12,-323.5 522.12,-316.5"/>
<text text-anchor="middle" x="551.5" y="-323" font-family="Helvetica,sans-Serif" font-size="10.00"> elements</text>
</g>
<!-- Node33 -->
<g id="node33" class="node">
<title>Node33</title>
<g id="a_node33"><a xlink:title=" ">
<polygon fill="white" stroke="#bfbfbf" points="129,-310.5 129,-329.5 290,-329.5 290,-310.5 129,-310.5"/>
<text text-anchor="middle" x="209.5" y="-317.5" font-family="Helvetica,sans-Serif" font-size="10.00">std::unique_ptr&lt; BufferAttribute &gt;</text>
</a>
</g>
</g>
<!-- Node33&#45;&gt;Node32 -->
<g id="edge40" class="edge">
<title>Node33&#45;&gt;Node32</title>
<path fill="none" stroke="#9a32cd" stroke-dasharray="5,2" d="M300.28,-320C321.69,-320 344.28,-320 364.81,-320"/>
<polygon fill="#9a32cd" stroke="#9a32cd" points="300.21,-316.5 290.21,-320 300.21,-323.5 300.21,-316.5"/>
<text text-anchor="middle" x="327.5" y="-323" font-family="Helvetica,sans-Serif" font-size="10.00"> attribute</text>
</g>
<!-- Node34 -->
<g id="node34" class="node">
<title>Node34</title>
<g id="a_node34"><a xlink:href="class_buffer_attribute.html" target="_top" xlink:title=" ">
<polygon fill="white" stroke="black" points="0,-310.5 0,-329.5 78,-329.5 78,-310.5 0,-310.5"/>
<text text-anchor="middle" x="39" y="-317.5" font-family="Helvetica,sans-Serif" font-size="10.00">BufferAttribute</text>
</a>
</g>
</g>
<!-- Node34&#45;&gt;Node33 -->
<g id="edge41" class="edge">
<title>Node34&#45;&gt;Node33</title>
<path fill="none" stroke="#9a32cd" stroke-dasharray="5,2" d="M88.49,-320C101.09,-320 115.01,-320 128.77,-320"/>
<polygon fill="#9a32cd" stroke="#9a32cd" points="88.24,-316.5 78.24,-320 88.24,-323.5 88.24,-316.5"/>
<text text-anchor="middle" x="103.5" y="-323" font-family="Helvetica,sans-Serif" font-size="10.00"> ptr</text>
</g>
<!-- Node35 -->
<g id="node35" class="node">
<title>Node35</title>
<g id="a_node35"><a xlink:title=" ">
<polygon fill="white" stroke="#bfbfbf" points="1133.5,-96.5 1133.5,-115.5 1267.5,-115.5 1267.5,-96.5 1133.5,-96.5"/>
<text text-anchor="middle" x="1200.5" y="-103.5" font-family="Helvetica,sans-Serif" font-size="10.00">std::shared_ptr&lt; Material &gt;</text>
</a>
</g>
</g>
<!-- Node35&#45;&gt;Node23 -->
<g id="edge42" class="edge">
<title>Node35&#45;&gt;Node23</title>
<path fill="none" stroke="#9a32cd" stroke-dasharray="5,2" d="M1226.76,-120.67C1268.66,-144.99 1351.4,-193.04 1386.57,-213.46"/>
<polygon fill="#9a32cd" stroke="#9a32cd" points="1228.39,-117.57 1217.99,-115.57 1224.88,-123.62 1228.39,-117.57"/>
<text text-anchor="middle" x="1324" y="-192" font-family="Helvetica,sans-Serif" font-size="10.00"> material</text>
</g>
<!-- Node36 -->
<g id="node36" class="node">
<title>Node36</title>
<g id="a_node36"><a xlink:href="class_material.html" target="_top" xlink:title=" ">
<polygon fill="white" stroke="black" points="886.5,-44.5 886.5,-63.5 937.5,-63.5 937.5,-44.5 886.5,-44.5"/>
<text text-anchor="middle" x="912" y="-51.5" font-family="Helvetica,sans-Serif" font-size="10.00">Material</text>
</a>
</g>
</g>
<!-- Node36&#45;&gt;Node35 -->
<g id="edge43" class="edge">
<title>Node36&#45;&gt;Node35</title>
<path fill="none" stroke="#9a32cd" stroke-dasharray="5,2" d="M947.6,-60.28C997.27,-69.3 1089.15,-85.97 1147.15,-96.5"/>
<polygon fill="#9a32cd" stroke="#9a32cd" points="948.14,-56.82 937.67,-58.48 946.89,-63.71 948.14,-56.82"/>
<text text-anchor="middle" x="1035.5" y="-91" font-family="Helvetica,sans-Serif" font-size="10.00"> ptr</text>
</g>
<!-- Node37 -->
<g id="node37" class="node">
<title>Node37</title>
<g id="a_node37"><a xlink:title=" ">
<polygon fill="white" stroke="#bfbfbf" points="591,-39 591,-69 749,-69 749,-39 591,-39"/>
<text text-anchor="start" x="599" y="-57" font-family="Helvetica,sans-Serif" font-size="10.00">std::unique_ptr&lt; ShaderProgram</text>
<text text-anchor="middle" x="670" y="-46" font-family="Helvetica,sans-Serif" font-size="10.00">Compiler &gt;</text>
</a>
</g>
</g>
<!-- Node37&#45;&gt;Node36 -->
<g id="edge44" class="edge">
<title>Node37&#45;&gt;Node36</title>
<path fill="none" stroke="#9a32cd" stroke-dasharray="5,2" d="M759.43,-54C804.83,-54 856.72,-54 886.5,-54"/>
<polygon fill="#9a32cd" stroke="#9a32cd" points="759.25,-50.5 749.25,-54 759.25,-57.5 759.25,-50.5"/>
<text text-anchor="middle" x="809.5" y="-57" font-family="Helvetica,sans-Serif" font-size="10.00"> compiler</text>
</g>
<!-- Node38 -->
<g id="node38" class="node">
<title>Node38</title>
<g id="a_node38"><a xlink:href="class_shader_program_compiler.html" target="_top" xlink:title=" ">
<polygon fill="white" stroke="black" points="377.5,-41.5 377.5,-60.5 499.5,-60.5 499.5,-41.5 377.5,-41.5"/>
<text text-anchor="middle" x="438.5" y="-48.5" font-family="Helvetica,sans-Serif" font-size="10.00">ShaderProgramCompiler</text>
</a>
</g>
</g>
<!-- Node38&#45;&gt;Node37 -->
<g id="edge45" class="edge">
<title>Node38&#45;&gt;Node37</title>
<path fill="none" stroke="#9a32cd" stroke-dasharray="5,2" d="M509.8,-51.35C530.19,-51.5 552.48,-51.71 573,-52 578.83,-52.08 584.87,-52.18 590.94,-52.29"/>
<polygon fill="#9a32cd" stroke="#9a32cd" points="509.67,-47.85 499.64,-51.28 509.62,-54.85 509.67,-47.85"/>
<text text-anchor="middle" x="551.5" y="-55" font-family="Helvetica,sans-Serif" font-size="10.00"> ptr</text>
</g>
<!-- Node39 -->
<g id="node39" class="node">
<title>Node39</title>
<g id="a_node39"><a xlink:title=" ">
<polygon fill="white" stroke="#bfbfbf" points="605,-0.5 605,-19.5 735,-19.5 735,-0.5 605,-0.5"/>
<text text-anchor="middle" x="670" y="-7.5" font-family="Helvetica,sans-Serif" font-size="10.00">std::unique_ptr&lt; Shader &gt;</text>
</a>
</g>
</g>
<!-- Node39&#45;&gt;Node36 -->
<g id="edge46" class="edge">
<title>Node39&#45;&gt;Node36</title>
<path fill="none" stroke="#9a32cd" stroke-dasharray="5,2" d="M745.32,-20.36C778.14,-25.34 817.12,-31.79 852,-39 863.38,-41.35 875.88,-44.45 886.43,-47.23"/>
<polygon fill="#9a32cd" stroke="#9a32cd" points="745.75,-16.89 735.34,-18.87 744.71,-23.81 745.75,-16.89"/>
<text text-anchor="middle" x="809.5" y="-42" font-family="Helvetica,sans-Serif" font-size="10.00"> shader</text>
</g>
<!-- Node40 -->
<g id="node40" class="node">
<title>Node40</title>
<g id="a_node40"><a xlink:href="class_shader.html" target="_top" xlink:title=" ">
<polygon fill="white" stroke="black" points="415,-0.5 415,-19.5 462,-19.5 462,-0.5 415,-0.5"/>
<text text-anchor="middle" x="438.5" y="-7.5" font-family="Helvetica,sans-Serif" font-size="10.00">Shader</text>
</a>
</g>
</g>
<!-- Node40&#45;&gt;Node39 -->
<g id="edge47" class="edge">
<title>Node40&#45;&gt;Node39</title>
<path fill="none" stroke="#9a32cd" stroke-dasharray="5,2" d="M472.77,-10C507.18,-10 561.8,-10 604.68,-10"/>
<polygon fill="#9a32cd" stroke="#9a32cd" points="472.34,-6.5 462.34,-10 472.34,-13.5 472.34,-6.5"/>
<text text-anchor="middle" x="551.5" y="-13" font-family="Helvetica,sans-Serif" font-size="10.00"> ptr</text>
</g>
<!-- Node41 -->
<g id="node41" class="node">
<title>Node41</title>
<g id="a_node41"><a xlink:href="class_rendering_state.html" target="_top" xlink:title=" ">
<polygon fill="white" stroke="black" points="2408,-334.5 2408,-353.5 2491,-353.5 2491,-334.5 2408,-334.5"/>
<text text-anchor="middle" x="2449.5" y="-341.5" font-family="Helvetica,sans-Serif" font-size="10.00">RenderingState</text>
</a>
</g>
</g>
<!-- Node41&#45;&gt;Node1 -->
<g id="edge48" class="edge">
<title>Node41&#45;&gt;Node1</title>
<path fill="none" stroke="#9a32cd" stroke-dasharray="5,2" d="M2501.68,-344C2530.49,-344 2566.13,-344 2593.89,-344"/>
<polygon fill="#9a32cd" stroke="#9a32cd" points="2501.4,-340.5 2491.4,-344 2501.4,-347.5 2501.4,-340.5"/>
<text text-anchor="middle" x="2542.5" y="-347" font-family="Helvetica,sans-Serif" font-size="10.00"> renderingState</text>
</g>
<!-- Node42 -->
<g id="node42" class="node">
<title>Node42</title>
<g id="a_node42"><a xlink:title=" ">
<polygon fill="white" stroke="#bfbfbf" points="1462,-345 1462,-375 1602,-375 1602,-345 1462,-345"/>
<text text-anchor="start" x="1470" y="-363" font-family="Helvetica,sans-Serif" font-size="10.00">std::unique_ptr&lt; PlaneBuffer</text>
<text text-anchor="middle" x="1532" y="-352" font-family="Helvetica,sans-Serif" font-size="10.00">Geometry &gt;</text>
</a>
</g>
</g>
<!-- Node42&#45;&gt;Node1 -->
<g id="edge49" class="edge">
<title>Node42&#45;&gt;Node1</title>
<path fill="none" stroke="#9a32cd" stroke-dasharray="5,2" d="M1612.47,-360.36C1766.14,-361.05 2114.72,-362.5 2408,-363 2482.69,-363.13 2502.05,-369.45 2576,-359 2585.24,-357.69 2595.11,-355.66 2604.23,-353.5"/>
<polygon fill="#9a32cd" stroke="#9a32cd" points="1612.21,-356.86 1602.19,-360.32 1612.18,-363.86 1612.21,-356.86"/>
<text text-anchor="middle" x="2077" y="-365" font-family="Helvetica,sans-Serif" font-size="10.00"> fullscreenPlane</text>
</g>
<!-- Node43&#45;&gt;Node42 -->
<g id="edge50" class="edge">
<title>Node43&#45;&gt;Node42</title>
<path fill="none" stroke="#9a32cd" stroke-dasharray="5,2" d="M1265.4,-346.3C1321.83,-349.21 1403.93,-353.44 1461.88,-356.43"/>
<polygon fill="#9a32cd" stroke="#9a32cd" points="1265.34,-342.79 1255.17,-345.77 1264.98,-349.78 1265.34,-342.79"/>
<text text-anchor="middle" x="1324" y="-353" font-family="Helvetica,sans-Serif" font-size="10.00"> ptr</text>
</g>
</g>
</svg>
