<?xml version="1.0" encoding="UTF-8" standalone="no"?>
<!DOCTYPE svg PUBLIC "-//W3C//DTD SVG 1.1//EN"
 "http://www.w3.org/Graphics/SVG/1.1/DTD/svg11.dtd">
<!-- Generated by graphviz version 2.44.1 (20200629.0846)
 -->
<!-- Title: Entity::isEnabled Pages: 1 -->
<svg width="607pt" height="204pt"
 viewBox="0.00 0.00 607.00 203.50" xmlns="http://www.w3.org/2000/svg" xmlns:xlink="http://www.w3.org/1999/xlink">
<g id="graph0" class="graph" transform="scale(1 1) rotate(0) translate(4 199.5)">
<title>Entity::isEnabled</title>
<polygon fill="white" stroke="transparent" points="-4,4 -4,-199.5 603,-199.5 603,4 -4,4"/>
<!-- Node1 -->
<g id="node1" class="node">
<title>Node1</title>
<g id="a_node1"><a xlink:title=" ">
<polygon fill="#bfbfbf" stroke="black" points="508,-88 508,-107 599,-107 599,-88 508,-88"/>
<text text-anchor="middle" x="553.5" y="-95" font-family="Helvetica,sans-Serif" font-size="10.00">Entity::isEnabled</text>
</a>
</g>
</g>
<!-- Node2 -->
<g id="node2" class="node">
<title>Node2</title>
<g id="a_node2"><a xlink:href="class_renderer.html#aa814eabb912509d0cd34b61018e98fb4" target="_top" xlink:title=" ">
<polygon fill="white" stroke="black" points="337.5,-176 337.5,-195 454.5,-195 454.5,-176 337.5,-176"/>
<text text-anchor="middle" x="396" y="-183" font-family="Helvetica,sans-Serif" font-size="10.00">Renderer::renderObject</text>
</a>
</g>
</g>
<!-- Node1&#45;&gt;Node2 -->
<g id="edge1" class="edge">
<title>Node1&#45;&gt;Node2</title>
<path fill="none" stroke="midnightblue" d="M537.11,-114.6C522.02,-130.35 497.6,-153.22 472,-166.5 464.61,-170.33 456.4,-173.42 448.2,-175.91"/>
<polygon fill="midnightblue" stroke="midnightblue" points="539.85,-116.8 544.11,-107.1 534.73,-112.03 539.85,-116.8"/>
</g>
<!-- Node3 -->
<g id="node3" class="node">
<title>Node3</title>
<g id="a_node3"><a xlink:href="class_game_logic_components_runner.html#ad7d04bea68c654604bdb6c9942e429b6" target="_top" xlink:title=" ">
<polygon fill="white" stroke="black" points="320,-126.5 320,-156.5 472,-156.5 472,-126.5 320,-126.5"/>
<text text-anchor="start" x="328" y="-144.5" font-family="Helvetica,sans-Serif" font-size="10.00">GameLogicComponentsRunner</text>
<text text-anchor="middle" x="396" y="-133.5" font-family="Helvetica,sans-Serif" font-size="10.00">::runSystem</text>
</a>
</g>
</g>
<!-- Node1&#45;&gt;Node3 -->
<g id="edge2" class="edge">
<title>Node1&#45;&gt;Node3</title>
<path fill="none" stroke="midnightblue" d="M508.99,-109.81C490.76,-114.97 469.4,-121.01 450.24,-126.43"/>
<polygon fill="midnightblue" stroke="midnightblue" points="510.09,-113.14 518.76,-107.05 508.18,-106.4 510.09,-113.14"/>
</g>
<!-- Node4 -->
<g id="node4" class="node">
<title>Node4</title>
<g id="a_node4"><a xlink:href="class_transform_update_system.html#a6d72963cb88ce1c1de8c77b4760a3813" target="_top" xlink:title=" ">
<polygon fill="white" stroke="black" points="0,-41.5 0,-71.5 124,-71.5 124,-41.5 0,-41.5"/>
<text text-anchor="start" x="8" y="-59.5" font-family="Helvetica,sans-Serif" font-size="10.00">TransformUpdateSystem</text>
<text text-anchor="middle" x="62" y="-48.5" font-family="Helvetica,sans-Serif" font-size="10.00">::runSystem</text>
</a>
</g>
</g>
<!-- Node1&#45;&gt;Node4 -->
<g id="edge3" class="edge">
<title>Node1&#45;&gt;Node4</title>
<path fill="none" stroke="midnightblue" d="M497.52,-97.86C421.36,-97.66 279.59,-94.83 160,-78.5 147.51,-76.79 134.26,-74.27 121.69,-71.54"/>
<polygon fill="midnightblue" stroke="midnightblue" points="497.82,-101.36 507.83,-97.87 497.83,-94.36 497.82,-101.36"/>
</g>
<!-- Node5 -->
<g id="node5" class="node">
<title>Node5</title>
<g id="a_node5"><a xlink:href="class_transform.html#ae74e29748e59e117ecff0f7ef02556b8" target="_top" xlink:title=" ">
<polygon fill="white" stroke="black" points="327.5,-12 327.5,-31 464.5,-31 464.5,-12 327.5,-12"/>
<text text-anchor="middle" x="396" y="-19" font-family="Helvetica,sans-Serif" font-size="10.00">Transform::updateTransform</text>
</a>
</g>
</g>
<!-- Node1&#45;&gt;Node5 -->
<g id="edge4" class="edge">
<title>Node1&#45;&gt;Node5</title>
<path fill="none" stroke="midnightblue" d="M531.57,-81.78C515.83,-70.52 493.38,-55.61 472,-45.5 459.89,-39.77 446.06,-34.91 433.6,-31.1"/>
<polygon fill="midnightblue" stroke="midnightblue" points="529.86,-84.87 540.01,-87.93 533.99,-79.21 529.86,-84.87"/>
</g>
<!-- Node6 -->
<g id="node6" class="node">
<title>Node6</title>
<g id="a_node6"><a xlink:href="class_mesh.html#a220745f5b2ebc6f1d0577165b0d7fc74" target="_top" xlink:title=" ">
<polygon fill="white" stroke="black" points="162.5,-50 162.5,-69 281.5,-69 281.5,-50 162.5,-50"/>
<text text-anchor="middle" x="222" y="-57" font-family="Helvetica,sans-Serif" font-size="10.00">Mesh::updateTransform</text>
</a>
</g>
</g>
<!-- Node1&#45;&gt;Node6 -->
<g id="edge8" class="edge">
<title>Node1&#45;&gt;Node6</title>
<path fill="none" stroke="midnightblue" d="M497.88,-87.42C489.24,-86 480.39,-84.63 472,-83.5 407.01,-74.73 332.06,-67.96 281.51,-63.87"/>
<polygon fill="midnightblue" stroke="midnightblue" points="497.44,-90.9 507.88,-89.12 498.61,-84 497.44,-90.9"/>
</g>
<!-- Node5&#45;&gt;Node6 -->
<g id="edge5" class="edge">
<title>Node5&#45;&gt;Node6</title>
<path fill="none" stroke="midnightblue" d="M341.8,-33.25C317.48,-38.63 289.05,-44.91 266.09,-49.98"/>
<polygon fill="midnightblue" stroke="midnightblue" points="342.59,-36.66 351.6,-31.09 341.08,-29.83 342.59,-36.66"/>
</g>
<!-- Node7 -->
<g id="node7" class="node">
<title>Node7</title>
<g id="a_node7"><a xlink:href="class_transform_update_system.html#a0f5b52b7909a062068023adbe5e134ad" target="_top" xlink:title=" ">
<polygon fill="white" stroke="black" points="160,-0.5 160,-30.5 284,-30.5 284,-0.5 160,-0.5"/>
<text text-anchor="start" x="168" y="-18.5" font-family="Helvetica,sans-Serif" font-size="10.00">TransformUpdateSystem</text>
<text text-anchor="middle" x="222" y="-7.5" font-family="Helvetica,sans-Serif" font-size="10.00">::updateTransform</text>
</a>
</g>
</g>
<!-- Node5&#45;&gt;Node7 -->
<g id="edge6" class="edge">
<title>Node5&#45;&gt;Node7</title>
<path fill="none" stroke="midnightblue" d="M316.96,-18.78C305.93,-18.39 294.72,-18 284.07,-17.63"/>
<polygon fill="midnightblue" stroke="midnightblue" points="316.91,-22.28 327.02,-19.13 317.15,-15.28 316.91,-22.28"/>
</g>
<!-- Node7&#45;&gt;Node4 -->
<g id="edge7" class="edge">
<title>Node7&#45;&gt;Node4</title>
<path fill="none" stroke="midnightblue" d="M153.28,-33.07C142.5,-35.87 131.45,-38.74 120.93,-41.47"/>
<polygon fill="midnightblue" stroke="midnightblue" points="154.26,-36.43 163.06,-30.53 152.51,-29.66 154.26,-36.43"/>
</g>
</g>
</svg>
