<?xml version="1.0" encoding="UTF-8" standalone="no"?>
<!DOCTYPE svg PUBLIC "-//W3C//DTD SVG 1.1//EN"
 "http://www.w3.org/Graphics/SVG/1.1/DTD/svg11.dtd">
<!-- Generated by graphviz version 2.40.1 (20161225.0304)
 -->
<!-- Title: LightingRegistrySystem::updateAmbientLights Pages: 1 -->
<svg width="283pt" height="104pt"
 viewBox="0.00 0.00 283.00 104.00" xmlns="http://www.w3.org/2000/svg" xmlns:xlink="http://www.w3.org/1999/xlink">
<g id="graph0" class="graph" transform="scale(1 1) rotate(0) translate(4 100)">
<title>LightingRegistrySystem::updateAmbientLights</title>
<polygon fill="#ffffff" stroke="transparent" points="-4,4 -4,-100 279,-100 279,4 -4,4"/>
<!-- Node21 -->
<g id="node1" class="node">
<title>Node21</title>
<polygon fill="#bfbfbf" stroke="#000000" points="0,-33 0,-63 121,-63 121,-33 0,-33"/>
<text text-anchor="start" x="8" y="-51" font-family="Helvetica,sans-Serif" font-size="10.00" fill="#000000">LightingRegistrySystem</text>
<text text-anchor="middle" x="60.5" y="-40" font-family="Helvetica,sans-Serif" font-size="10.00" fill="#000000">::updateAmbientLights</text>
</g>
<!-- Node22 -->
<g id="node2" class="node">
<title>Node22</title>
<g id="a_node2"><a xlink:href="class_material.html#a7476a27aaaa3337d6f4dfa3c5e44d22d" target="_top" xlink:title="Material::setDefine">
<polygon fill="#ffffff" stroke="#000000" points="166.5,-76.5 166.5,-95.5 265.5,-95.5 265.5,-76.5 166.5,-76.5"/>
<text text-anchor="middle" x="216" y="-83.5" font-family="Helvetica,sans-Serif" font-size="10.00" fill="#000000">Material::setDefine</text>
</a>
</g>
</g>
<!-- Node21&#45;&gt;Node22 -->
<g id="edge1" class="edge">
<title>Node21&#45;&gt;Node22</title>
<path fill="none" stroke="#191970" d="M121.0656,-62.8006C136.3089,-66.5256 152.4798,-70.4774 167.0727,-74.0435"/>
<polygon fill="#191970" stroke="#191970" points="166.3475,-77.4692 176.8925,-76.4432 168.0093,-70.6693 166.3475,-77.4692"/>
</g>
<!-- Node23 -->
<g id="node3" class="node">
<title>Node23</title>
<g id="a_node3"><a xlink:href="class_material.html#a1349dd91417148263bc6d9ec0462c86a" target="_top" xlink:title="Material::removeDefine">
<polygon fill="#ffffff" stroke="#000000" points="157,-38.5 157,-57.5 275,-57.5 275,-38.5 157,-38.5"/>
<text text-anchor="middle" x="216" y="-45.5" font-family="Helvetica,sans-Serif" font-size="10.00" fill="#000000">Material::removeDefine</text>
</a>
</g>
</g>
<!-- Node21&#45;&gt;Node23 -->
<g id="edge2" class="edge">
<title>Node21&#45;&gt;Node23</title>
<path fill="none" stroke="#191970" d="M121.0656,-48C129.524,-48 138.2681,-48 146.8696,-48"/>
<polygon fill="#191970" stroke="#191970" points="146.876,-51.5001 156.876,-48 146.876,-44.5001 146.876,-51.5001"/>
</g>
<!-- Node24 -->
<g id="node4" class="node">
<title>Node24</title>
<g id="a_node4"><a xlink:href="class_material.html#ade3d70e1ef2ebc40918f7de6134ccc00" target="_top" xlink:title="Material::setUniform">
<polygon fill="#ffffff" stroke="#000000" points="163.5,-.5 163.5,-19.5 268.5,-19.5 268.5,-.5 163.5,-.5"/>
<text text-anchor="middle" x="216" y="-7.5" font-family="Helvetica,sans-Serif" font-size="10.00" fill="#000000">Material::setUniform</text>
</a>
</g>
</g>
<!-- Node21&#45;&gt;Node24 -->
<g id="edge3" class="edge">
<title>Node21&#45;&gt;Node24</title>
<path fill="none" stroke="#191970" d="M121.0656,-33.1994C136.3089,-29.4744 152.4798,-25.5226 167.0727,-21.9565"/>
<polygon fill="#191970" stroke="#191970" points="168.0093,-25.3307 176.8925,-19.5568 166.3475,-18.5308 168.0093,-25.3307"/>
</g>
</g>
</svg>
