<?xml version="1.0" encoding="UTF-8" standalone="no"?>
<!DOCTYPE svg PUBLIC "-//W3C//DTD SVG 1.1//EN"
 "http://www.w3.org/Graphics/SVG/1.1/DTD/svg11.dtd">
<!-- Generated by graphviz version 2.44.1 (20200629.0846)
 -->
<!-- Title: LightingRegistrySystem::updateAmbientLights Pages: 1 -->
<svg width="279pt" height="104pt"
 viewBox="0.00 0.00 279.00 104.00" xmlns="http://www.w3.org/2000/svg" xmlns:xlink="http://www.w3.org/1999/xlink">
<g id="graph0" class="graph" transform="scale(1 1) rotate(0) translate(4 100)">
<title>LightingRegistrySystem::updateAmbientLights</title>
<polygon fill="white" stroke="transparent" points="-4,4 -4,-100 275,-100 275,4 -4,4"/>
<!-- Node1 -->
<g id="node1" class="node">
<title>Node1</title>
<g id="a_node1"><a xlink:title=" ">
<polygon fill="#bfbfbf" stroke="black" points="0,-33 0,-63 120,-63 120,-33 0,-33"/>
<text text-anchor="start" x="8" y="-51" font-family="Helvetica,sans-Serif" font-size="10.00">LightingRegistrySystem</text>
<text text-anchor="middle" x="60" y="-40" font-family="Helvetica,sans-Serif" font-size="10.00">::updateAmbientLights</text>
</a>
</g>
</g>
<!-- Node2 -->
<g id="node2" class="node">
<title>Node2</title>
<g id="a_node2"><a xlink:href="class_material.html#a053e033e624bc01399fb6491f663a7d3" target="_top" xlink:title=" ">
<polygon fill="white" stroke="black" points="156,-76.5 156,-95.5 271,-95.5 271,-76.5 156,-76.5"/>
<text text-anchor="middle" x="213.5" y="-83.5" font-family="Helvetica,sans-Serif" font-size="10.00">Material::removeDefine</text>
</a>
</g>
</g>
<!-- Node1&#45;&gt;Node2 -->
<g id="edge1" class="edge">
<title>Node1&#45;&gt;Node2</title>
<path fill="none" stroke="midnightblue" d="M120.01,-62.8C134.72,-66.49 150.31,-70.4 164.42,-73.94"/>
<polygon fill="midnightblue" stroke="midnightblue" points="163.85,-77.41 174.4,-76.44 165.55,-70.62 163.85,-77.41"/>
</g>
<!-- Node3 -->
<g id="node3" class="node">
<title>Node3</title>
<g id="a_node3"><a xlink:href="class_material.html#a7476a27aaaa3337d6f4dfa3c5e44d22d" target="_top" xlink:title=" ">
<polygon fill="white" stroke="black" points="164.5,-38.5 164.5,-57.5 262.5,-57.5 262.5,-38.5 164.5,-38.5"/>
<text text-anchor="middle" x="213.5" y="-45.5" font-family="Helvetica,sans-Serif" font-size="10.00">Material::setDefine</text>
</a>
</g>
</g>
<!-- Node1&#45;&gt;Node3 -->
<g id="edge2" class="edge">
<title>Node1&#45;&gt;Node3</title>
<path fill="none" stroke="midnightblue" d="M120.01,-48C131.2,-48 142.91,-48 154.09,-48"/>
<polygon fill="midnightblue" stroke="midnightblue" points="154.17,-51.5 164.17,-48 154.17,-44.5 154.17,-51.5"/>
</g>
<!-- Node4 -->
<g id="node4" class="node">
<title>Node4</title>
<g id="a_node4"><a xlink:href="class_material.html#ade3d70e1ef2ebc40918f7de6134ccc00" target="_top" xlink:title=" ">
<polygon fill="white" stroke="black" points="161.5,-0.5 161.5,-19.5 265.5,-19.5 265.5,-0.5 161.5,-0.5"/>
<text text-anchor="middle" x="213.5" y="-7.5" font-family="Helvetica,sans-Serif" font-size="10.00">Material::setUniform</text>
</a>
</g>
</g>
<!-- Node1&#45;&gt;Node4 -->
<g id="edge3" class="edge">
<title>Node1&#45;&gt;Node4</title>
<path fill="none" stroke="midnightblue" d="M120.01,-33.2C134.72,-29.51 150.31,-25.6 164.42,-22.06"/>
<polygon fill="midnightblue" stroke="midnightblue" points="165.55,-25.38 174.4,-19.56 163.85,-18.59 165.55,-25.38"/>
</g>
</g>
</svg>
