<?xml version="1.0" encoding="UTF-8" standalone="no"?>
<!DOCTYPE svg PUBLIC "-//W3C//DTD SVG 1.1//EN"
 "http://www.w3.org/Graphics/SVG/1.1/DTD/svg11.dtd">
<!-- Generated by graphviz version 2.40.1 (20161225.0304)
 -->
<!-- Title: Texture::Texture Pages: 1 -->
<svg width="380pt" height="28pt"
 viewBox="0.00 0.00 380.00 28.00" xmlns="http://www.w3.org/2000/svg" xmlns:xlink="http://www.w3.org/1999/xlink">
<g id="graph0" class="graph" transform="scale(1 1) rotate(0) translate(4 24)">
<title>Texture::Texture</title>
<polygon fill="#ffffff" stroke="transparent" points="-4,4 -4,-24 376,-24 376,4 -4,4"/>
<!-- Node1 -->
<g id="node1" class="node">
<title>Node1</title>
<polygon fill="#bfbfbf" stroke="#000000" points="0,-.5 0,-19.5 89,-19.5 89,-.5 0,-.5"/>
<text text-anchor="middle" x="44.5" y="-7.5" font-family="Helvetica,sans-Serif" font-size="10.00" fill="#000000">Texture::Texture</text>
</g>
<!-- Node2 -->
<g id="node2" class="node">
<title>Node2</title>
<g id="a_node2"><a xlink:href="class_texture.html#a231e370a9d17ef609b53bd1f0f303535" target="_top" xlink:title="Texture::setFiltering">
<polygon fill="#ffffff" stroke="#000000" points="125,-.5 125,-19.5 229,-19.5 229,-.5 125,-.5"/>
<text text-anchor="middle" x="177" y="-7.5" font-family="Helvetica,sans-Serif" font-size="10.00" fill="#000000">Texture::setFiltering</text>
</a>
</g>
</g>
<!-- Node1&#45;&gt;Node2 -->
<g id="edge1" class="edge">
<title>Node1&#45;&gt;Node2</title>
<path fill="none" stroke="#191970" d="M89.3585,-10C97.5606,-10 106.2528,-10 114.8524,-10"/>
<polygon fill="#191970" stroke="#191970" points="114.8703,-13.5001 124.8702,-10 114.8702,-6.5001 114.8703,-13.5001"/>
</g>
<!-- Node3 -->
<g id="node3" class="node">
<title>Node3</title>
<g id="a_node3"><a xlink:href="class_texture.html#a1b472af3e9b4a4c2f0785b75bbc22265" target="_top" xlink:title="Texture::bindTexture">
<polygon fill="#ffffff" stroke="#000000" points="265,-.5 265,-19.5 372,-19.5 372,-.5 265,-.5"/>
<text text-anchor="middle" x="318.5" y="-7.5" font-family="Helvetica,sans-Serif" font-size="10.00" fill="#000000">Texture::bindTexture</text>
</a>
</g>
</g>
<!-- Node2&#45;&gt;Node3 -->
<g id="edge2" class="edge">
<title>Node2&#45;&gt;Node3</title>
<path fill="none" stroke="#191970" d="M229.2874,-10C237.4589,-10 245.9838,-10 254.3829,-10"/>
<polygon fill="#191970" stroke="#191970" points="254.5334,-13.5001 264.5334,-10 254.5334,-6.5001 254.5334,-13.5001"/>
</g>
</g>
</svg>
