<?xml version="1.0" encoding="UTF-8" standalone="no"?>
<!DOCTYPE svg PUBLIC "-//W3C//DTD SVG 1.1//EN"
 "http://www.w3.org/Graphics/SVG/1.1/DTD/svg11.dtd">
<!-- Generated by graphviz version 2.44.1 (20200629.0846)
 -->
<!-- Title: Transform::add Pages: 1 -->
<svg width="422pt" height="104pt"
 viewBox="0.00 0.00 422.00 104.00" xmlns="http://www.w3.org/2000/svg" xmlns:xlink="http://www.w3.org/1999/xlink">
<g id="graph0" class="graph" transform="scale(1 1) rotate(0) translate(4 100)">
<title>Transform::add</title>
<polygon fill="white" stroke="transparent" points="-4,4 -4,-100 418,-100 418,4 -4,4"/>
<!-- Node1 -->
<g id="node1" class="node">
<title>Node1</title>
<g id="a_node1"><a xlink:title=" ">
<polygon fill="#bfbfbf" stroke="black" points="0,-38.5 0,-57.5 81,-57.5 81,-38.5 0,-38.5"/>
<text text-anchor="middle" x="40.5" y="-45.5" font-family="Helvetica,sans-Serif" font-size="10.00">Transform::add</text>
</a>
</g>
</g>
<!-- Node2 -->
<g id="node2" class="node">
<title>Node2</title>
<g id="a_node2"><a xlink:href="class_scene.html#aed4bf402a8745e782fb5f711bb6d20ad" target="_top" xlink:title=" ">
<polygon fill="white" stroke="black" points="157.5,-38.5 157.5,-57.5 223.5,-57.5 223.5,-38.5 157.5,-38.5"/>
<text text-anchor="middle" x="190.5" y="-45.5" font-family="Helvetica,sans-Serif" font-size="10.00">Scene::add</text>
</a>
</g>
</g>
<!-- Node1&#45;&gt;Node2 -->
<g id="edge1" class="edge">
<title>Node1&#45;&gt;Node2</title>
<path fill="none" stroke="midnightblue" d="M81.16,-48C101.52,-48 126.34,-48 147.09,-48"/>
<polygon fill="midnightblue" stroke="midnightblue" points="147.21,-51.5 157.21,-48 147.21,-44.5 147.21,-51.5"/>
</g>
<!-- Node5 -->
<g id="node5" class="node">
<title>Node5</title>
<g id="a_node5"><a xlink:href="class_scene.html#a5e62816b2e2c566c8f1bc151688c2c36" target="_top" xlink:title=" ">
<polygon fill="white" stroke="black" points="150,-76.5 150,-95.5 231,-95.5 231,-76.5 150,-76.5"/>
<text text-anchor="middle" x="190.5" y="-83.5" font-family="Helvetica,sans-Serif" font-size="10.00">Scene::remove</text>
</a>
</g>
</g>
<!-- Node1&#45;&gt;Node5 -->
<g id="edge4" class="edge">
<title>Node1&#45;&gt;Node5</title>
<path fill="none" stroke="midnightblue" d="M78.85,-57.59C98.2,-62.56 122.03,-68.68 142.61,-73.96"/>
<polygon fill="midnightblue" stroke="midnightblue" points="141.87,-77.38 152.42,-76.48 143.61,-70.6 141.87,-77.38"/>
</g>
<!-- Node6 -->
<g id="node6" class="node">
<title>Node6</title>
<g id="a_node6"><a xlink:href="class_transform.html#a9fdc9cf291d37f17003fab4834d0ddb2" target="_top" xlink:title=" ">
<polygon fill="white" stroke="black" points="117,-0.5 117,-19.5 264,-19.5 264,-0.5 117,-0.5"/>
<text text-anchor="middle" x="190.5" y="-7.5" font-family="Helvetica,sans-Serif" font-size="10.00">Transform::removeFromParent</text>
</a>
</g>
</g>
<!-- Node1&#45;&gt;Node6 -->
<g id="edge7" class="edge">
<title>Node1&#45;&gt;Node6</title>
<path fill="none" stroke="midnightblue" d="M78.85,-38.41C98.2,-33.44 122.03,-27.32 142.61,-22.04"/>
<polygon fill="midnightblue" stroke="midnightblue" points="143.61,-25.4 152.42,-19.52 141.87,-18.62 143.61,-25.4"/>
</g>
<!-- Node3 -->
<g id="node3" class="node">
<title>Node3</title>
<g id="a_node3"><a xlink:href="class_transform.html#aa88751206dca7860f5c17977c8c10aa0" target="_top" xlink:title=" ">
<polygon fill="white" stroke="black" points="300,-76.5 300,-95.5 414,-95.5 414,-76.5 300,-76.5"/>
<text text-anchor="middle" x="357" y="-83.5" font-family="Helvetica,sans-Serif" font-size="10.00">Transform::getChildren</text>
</a>
</g>
</g>
<!-- Node2&#45;&gt;Node3 -->
<g id="edge2" class="edge">
<title>Node2&#45;&gt;Node3</title>
<path fill="none" stroke="midnightblue" d="M223.61,-55.42C246.66,-60.74 278.2,-68.03 304.72,-74.15"/>
<polygon fill="midnightblue" stroke="midnightblue" points="304.07,-77.6 314.6,-76.44 305.65,-70.78 304.07,-77.6"/>
</g>
<!-- Node4 -->
<g id="node4" class="node">
<title>Node4</title>
<g id="a_node4"><a xlink:href="class_transform.html#a0a654c8900d2b9070ef4e6425b4feb80" target="_top" xlink:title=" ">
<polygon fill="white" stroke="black" points="305,-38.5 305,-57.5 409,-57.5 409,-38.5 305,-38.5"/>
<text text-anchor="middle" x="357" y="-45.5" font-family="Helvetica,sans-Serif" font-size="10.00">Transform::getEntity</text>
</a>
</g>
</g>
<!-- Node2&#45;&gt;Node4 -->
<g id="edge3" class="edge">
<title>Node2&#45;&gt;Node4</title>
<path fill="none" stroke="midnightblue" d="M223.61,-48C243.82,-48 270.55,-48 294.71,-48"/>
<polygon fill="midnightblue" stroke="midnightblue" points="294.87,-51.5 304.87,-48 294.87,-44.5 294.87,-51.5"/>
</g>
<!-- Node5&#45;&gt;Node3 -->
<g id="edge5" class="edge">
<title>Node5&#45;&gt;Node3</title>
<path fill="none" stroke="midnightblue" d="M231.32,-86C248.81,-86 269.83,-86 289.58,-86"/>
<polygon fill="midnightblue" stroke="midnightblue" points="289.76,-89.5 299.76,-86 289.76,-82.5 289.76,-89.5"/>
</g>
<!-- Node5&#45;&gt;Node4 -->
<g id="edge6" class="edge">
<title>Node5&#45;&gt;Node4</title>
<path fill="none" stroke="midnightblue" d="M231.32,-76.8C253.45,-71.69 281.23,-65.27 304.94,-59.79"/>
<polygon fill="midnightblue" stroke="midnightblue" points="305.87,-63.17 314.83,-57.51 304.3,-56.35 305.87,-63.17"/>
</g>
</g>
</svg>
