<?xml version="1.0" encoding="UTF-8" standalone="no"?>
<!DOCTYPE svg PUBLIC "-//W3C//DTD SVG 1.1//EN"
 "http://www.w3.org/Graphics/SVG/1.1/DTD/svg11.dtd">
<!-- Generated by graphviz version 2.44.1 (20200629.0846)
 -->
<!-- Title: BoxBufferGeometry::BoxBufferGeometry Pages: 1 -->
<svg width="525pt" height="256pt"
 viewBox="0.00 0.00 525.00 256.00" xmlns="http://www.w3.org/2000/svg" xmlns:xlink="http://www.w3.org/1999/xlink">
<g id="graph0" class="graph" transform="scale(1 1) rotate(0) translate(4 252)">
<title>BoxBufferGeometry::BoxBufferGeometry</title>
<polygon fill="white" stroke="transparent" points="-4,4 -4,-252 521,-252 521,4 -4,4"/>
<!-- Node1 -->
<g id="node1" class="node">
<title>Node1</title>
<g id="a_node1"><a xlink:title=" ">
<polygon fill="#bfbfbf" stroke="black" points="0,-90 0,-120 107,-120 107,-90 0,-90"/>
<text text-anchor="start" x="8" y="-108" font-family="Helvetica,sans-Serif" font-size="10.00">BoxBufferGeometry::</text>
<text text-anchor="middle" x="53.5" y="-97" font-family="Helvetica,sans-Serif" font-size="10.00">BoxBufferGeometry</text>
</a>
</g>
</g>
<!-- Node2 -->
<g id="node2" class="node">
<title>Node2</title>
<g id="a_node2"><a xlink:href="class_buffer_geometry.html#a1d92262d7fd788c5cc64bac05b56bb04" target="_top" xlink:title=" ">
<polygon fill="white" stroke="black" points="143,-171.5 143,-190.5 310,-190.5 310,-171.5 143,-171.5"/>
<text text-anchor="middle" x="226.5" y="-178.5" font-family="Helvetica,sans-Serif" font-size="10.00">BufferGeometry::computeTangents</text>
</a>
</g>
</g>
<!-- Node1&#45;&gt;Node2 -->
<g id="edge1" class="edge">
<title>Node1&#45;&gt;Node2</title>
<path fill="none" stroke="midnightblue" d="M88.28,-120.02C119.2,-133.76 164.56,-153.92 194.55,-167.25"/>
<polygon fill="midnightblue" stroke="midnightblue" points="193.15,-170.45 203.71,-171.32 196,-164.06 193.15,-170.45"/>
</g>
<!-- Node6 -->
<g id="node6" class="node">
<title>Node6</title>
<g id="a_node6"><a xlink:href="namespace_utils.html#a407c7f36cca64e0f18d989bac065614f" target="_top" xlink:title=" ">
<polygon fill="white" stroke="black" points="162,-114.5 162,-133.5 291,-133.5 291,-114.5 162,-114.5"/>
<text text-anchor="middle" x="226.5" y="-121.5" font-family="Helvetica,sans-Serif" font-size="10.00">Utils::flatMapFloatVectors</text>
</a>
</g>
</g>
<!-- Node1&#45;&gt;Node6 -->
<g id="edge5" class="edge">
<title>Node1&#45;&gt;Node6</title>
<path fill="none" stroke="midnightblue" d="M107.2,-110.86C121.23,-112.41 136.66,-114.13 151.6,-115.79"/>
<polygon fill="midnightblue" stroke="midnightblue" points="151.52,-119.3 161.84,-116.93 152.29,-112.34 151.52,-119.3"/>
</g>
<!-- Node7 -->
<g id="node7" class="node">
<title>Node7</title>
<g id="a_node7"><a xlink:href="class_buffer_geometry.html#abacb186563bd725c4e1b6dc9569d1f62" target="_top" xlink:title=" ">
<polygon fill="white" stroke="black" points="156.5,-76.5 156.5,-95.5 296.5,-95.5 296.5,-76.5 156.5,-76.5"/>
<text text-anchor="middle" x="226.5" y="-83.5" font-family="Helvetica,sans-Serif" font-size="10.00">BufferGeometry::setAttribute</text>
</a>
</g>
</g>
<!-- Node1&#45;&gt;Node7 -->
<g id="edge6" class="edge">
<title>Node1&#45;&gt;Node7</title>
<path fill="none" stroke="midnightblue" d="M107.2,-99.14C119.56,-97.77 132.99,-96.28 146.22,-94.81"/>
<polygon fill="midnightblue" stroke="midnightblue" points="146.73,-98.27 156.28,-93.69 145.96,-91.32 146.73,-98.27"/>
</g>
<!-- Node12 -->
<g id="node12" class="node">
<title>Node12</title>
<g id="a_node12"><a xlink:href="class_buffer_geometry.html#ae0a5eb4a3a41bf8a777de7781b108c46" target="_top" xlink:title=" ">
<polygon fill="white" stroke="black" points="159.5,-38.5 159.5,-57.5 293.5,-57.5 293.5,-38.5 159.5,-38.5"/>
<text text-anchor="middle" x="226.5" y="-45.5" font-family="Helvetica,sans-Serif" font-size="10.00">BufferGeometry::setIndices</text>
</a>
</g>
</g>
<!-- Node1&#45;&gt;Node12 -->
<g id="edge11" class="edge">
<title>Node1&#45;&gt;Node12</title>
<path fill="none" stroke="midnightblue" d="M85.92,-89.88C102.6,-82.27 123.61,-73.34 143,-67 150.93,-64.41 159.4,-62.03 167.79,-59.9"/>
<polygon fill="midnightblue" stroke="midnightblue" points="168.66,-63.29 177.55,-57.51 167,-56.49 168.66,-63.29"/>
</g>
<!-- Node3 -->
<g id="node3" class="node">
<title>Node3</title>
<g id="a_node3"><a xlink:href="class_buffer_geometry.html#a082b7e73a394537b11e32f78ca68df79" target="_top" xlink:title=" ">
<polygon fill="white" stroke="black" points="350.5,-228.5 350.5,-247.5 512.5,-247.5 512.5,-228.5 350.5,-228.5"/>
<text text-anchor="middle" x="431.5" y="-235.5" font-family="Helvetica,sans-Serif" font-size="10.00">BufferGeometry::computeTangent</text>
</a>
</g>
</g>
<!-- Node2&#45;&gt;Node3 -->
<g id="edge2" class="edge">
<title>Node2&#45;&gt;Node3</title>
<path fill="none" stroke="midnightblue" d="M255.07,-190.61C278.95,-198.75 314.52,-210.43 346,-219 355.26,-221.52 365.16,-223.97 374.79,-226.22"/>
<polygon fill="midnightblue" stroke="midnightblue" points="374.18,-229.67 384.71,-228.48 375.74,-222.84 374.18,-229.67"/>
</g>
<!-- Node4 -->
<g id="node4" class="node">
<title>Node4</title>
<g id="a_node4"><a xlink:href="class_buffer_attribute.html#a48182120a8d3c4c49008fab61ace89ed" target="_top" xlink:title=" ">
<polygon fill="white" stroke="black" points="372.5,-190.5 372.5,-209.5 490.5,-209.5 490.5,-190.5 372.5,-190.5"/>
<text text-anchor="middle" x="431.5" y="-197.5" font-family="Helvetica,sans-Serif" font-size="10.00">BufferAttribute::getData</text>
</a>
</g>
</g>
<!-- Node2&#45;&gt;Node4 -->
<g id="edge3" class="edge">
<title>Node2&#45;&gt;Node4</title>
<path fill="none" stroke="midnightblue" d="M310.07,-188.73C327.34,-190.34 345.37,-192.03 362.06,-193.59"/>
<polygon fill="midnightblue" stroke="midnightblue" points="361.98,-197.1 372.26,-194.55 362.63,-190.13 361.98,-197.1"/>
</g>
<!-- Node5 -->
<g id="node5" class="node">
<title>Node5</title>
<g id="a_node5"><a xlink:href="class_buffer_attribute.html#a630d89d5baf0f87d179a91ed4524d250" target="_top" xlink:title=" ">
<polygon fill="white" stroke="black" points="368,-152.5 368,-171.5 495,-171.5 495,-152.5 368,-152.5"/>
<text text-anchor="middle" x="431.5" y="-159.5" font-family="Helvetica,sans-Serif" font-size="10.00">BufferAttribute::getLength</text>
</a>
</g>
</g>
<!-- Node2&#45;&gt;Node5 -->
<g id="edge4" class="edge">
<title>Node2&#45;&gt;Node5</title>
<path fill="none" stroke="midnightblue" d="M310.07,-173.27C325.92,-171.79 342.4,-170.25 357.91,-168.79"/>
<polygon fill="midnightblue" stroke="midnightblue" points="358.31,-172.27 367.94,-167.86 357.65,-165.3 358.31,-172.27"/>
</g>
<!-- Node8 -->
<g id="node8" class="node">
<title>Node8</title>
<g id="a_node8"><a xlink:href="class_buffer_attribute.html#a53a9287ad87576c00bd8387449aed77a" target="_top" xlink:title=" ">
<polygon fill="white" stroke="black" points="364.5,-114.5 364.5,-133.5 498.5,-133.5 498.5,-114.5 364.5,-114.5"/>
<text text-anchor="middle" x="431.5" y="-121.5" font-family="Helvetica,sans-Serif" font-size="10.00">BufferAttribute::bindToVAO</text>
</a>
</g>
</g>
<!-- Node7&#45;&gt;Node8 -->
<g id="edge7" class="edge">
<title>Node7&#45;&gt;Node8</title>
<path fill="none" stroke="midnightblue" d="M278.46,-95.54C306.09,-100.71 340.43,-107.14 369.48,-112.58"/>
<polygon fill="midnightblue" stroke="midnightblue" points="369.04,-116.06 379.52,-114.46 370.33,-109.18 369.04,-116.06"/>
</g>
<!-- Node9 -->
<g id="node9" class="node">
<title>Node9</title>
<g id="a_node9"><a xlink:href="class_buffer_attribute.html#aeb86ba7a3f57ad8e575258fcfbfe753c" target="_top" xlink:title=" ">
<polygon fill="white" stroke="black" points="363.5,-76.5 363.5,-95.5 499.5,-95.5 499.5,-76.5 363.5,-76.5"/>
<text text-anchor="middle" x="431.5" y="-83.5" font-family="Helvetica,sans-Serif" font-size="10.00">BufferAttribute::getItemSize</text>
</a>
</g>
</g>
<!-- Node7&#45;&gt;Node9 -->
<g id="edge8" class="edge">
<title>Node7&#45;&gt;Node9</title>
<path fill="none" stroke="midnightblue" d="M296.51,-86C314.74,-86 334.54,-86 353.18,-86"/>
<polygon fill="midnightblue" stroke="midnightblue" points="353.4,-89.5 363.4,-86 353.4,-82.5 353.4,-89.5"/>
</g>
<!-- Node10 -->
<g id="node10" class="node">
<title>Node10</title>
<g id="a_node10"><a xlink:href="class_buffer_geometry.html#af1025b03991ee389abc822e8209f3701" target="_top" xlink:title=" ">
<polygon fill="white" stroke="black" points="346,-38.5 346,-57.5 517,-57.5 517,-38.5 346,-38.5"/>
<text text-anchor="middle" x="431.5" y="-45.5" font-family="Helvetica,sans-Serif" font-size="10.00">BufferGeometry::updateLayoutCode</text>
</a>
</g>
</g>
<!-- Node7&#45;&gt;Node10 -->
<g id="edge9" class="edge">
<title>Node7&#45;&gt;Node10</title>
<path fill="none" stroke="midnightblue" d="M278.46,-76.46C306.09,-71.29 340.43,-64.86 369.48,-59.42"/>
<polygon fill="midnightblue" stroke="midnightblue" points="370.33,-62.82 379.52,-57.54 369.04,-55.94 370.33,-62.82"/>
</g>
<!-- Node11 -->
<g id="node11" class="node">
<title>Node11</title>
<g id="a_node11"><a xlink:href="class_buffer_geometry.html#aa42b4bd617cf7939c8e5bd8893bc429a" target="_top" xlink:title=" ">
<polygon fill="white" stroke="black" points="357,-0.5 357,-19.5 506,-19.5 506,-0.5 357,-0.5"/>
<text text-anchor="middle" x="431.5" y="-7.5" font-family="Helvetica,sans-Serif" font-size="10.00">BufferGeometry::updateLength</text>
</a>
</g>
</g>
<!-- Node7&#45;&gt;Node11 -->
<g id="edge10" class="edge">
<title>Node7&#45;&gt;Node11</title>
<path fill="none" stroke="midnightblue" d="M288.1,-76.4C295.74,-73.95 303.24,-70.87 310,-67 330.2,-55.45 325.77,-40.49 346,-29 349.93,-26.77 354.1,-24.8 358.41,-23.06"/>
<polygon fill="midnightblue" stroke="midnightblue" points="359.77,-26.29 367.99,-19.61 357.4,-19.7 359.77,-26.29"/>
</g>
</g>
</svg>
