<?xml version="1.0" encoding="UTF-8" standalone="no"?>
<!DOCTYPE svg PUBLIC "-//W3C//DTD SVG 1.1//EN"
 "http://www.w3.org/Graphics/SVG/1.1/DTD/svg11.dtd">
<!-- Generated by graphviz version 2.40.1 (20161225.0304)
 -->
<!-- Title: LightingRegistrySystem::updateDirectionalLights Pages: 1 -->
<svg width="287pt" height="104pt"
 viewBox="0.00 0.00 287.00 104.00" xmlns="http://www.w3.org/2000/svg" xmlns:xlink="http://www.w3.org/1999/xlink">
<g id="graph0" class="graph" transform="scale(1 1) rotate(0) translate(4 100)">
<title>LightingRegistrySystem::updateDirectionalLights</title>
<polygon fill="#ffffff" stroke="transparent" points="-4,4 -4,-100 283,-100 283,4 -4,4"/>
<!-- Node25 -->
<g id="node1" class="node">
<title>Node25</title>
<polygon fill="#bfbfbf" stroke="#000000" points="0,-33 0,-63 125,-63 125,-33 0,-33"/>
<text text-anchor="start" x="8" y="-51" font-family="Helvetica,sans-Serif" font-size="10.00" fill="#000000">LightingRegistrySystem</text>
<text text-anchor="middle" x="62.5" y="-40" font-family="Helvetica,sans-Serif" font-size="10.00" fill="#000000">::updateDirectionalLights</text>
</g>
<!-- Node26 -->
<g id="node2" class="node">
<title>Node26</title>
<g id="a_node2"><a xlink:href="class_material.html#a7476a27aaaa3337d6f4dfa3c5e44d22d" target="_top" xlink:title="Material::setDefine">
<polygon fill="#ffffff" stroke="#000000" points="170.5,-76.5 170.5,-95.5 269.5,-95.5 269.5,-76.5 170.5,-76.5"/>
<text text-anchor="middle" x="220" y="-83.5" font-family="Helvetica,sans-Serif" font-size="10.00" fill="#000000">Material::setDefine</text>
</a>
</g>
</g>
<!-- Node25&#45;&gt;Node26 -->
<g id="edge1" class="edge">
<title>Node25&#45;&gt;Node26</title>
<path fill="none" stroke="#191970" d="M124.7482,-63.0186C139.9781,-66.6931 156.0703,-70.5757 170.6053,-74.0826"/>
<polygon fill="#191970" stroke="#191970" points="169.8476,-77.5001 180.3895,-76.4432 171.4894,-70.6953 169.8476,-77.5001"/>
</g>
<!-- Node27 -->
<g id="node3" class="node">
<title>Node27</title>
<g id="a_node3"><a xlink:href="class_material.html#a1349dd91417148263bc6d9ec0462c86a" target="_top" xlink:title="Material::removeDefine">
<polygon fill="#ffffff" stroke="#000000" points="161,-38.5 161,-57.5 279,-57.5 279,-38.5 161,-38.5"/>
<text text-anchor="middle" x="220" y="-45.5" font-family="Helvetica,sans-Serif" font-size="10.00" fill="#000000">Material::removeDefine</text>
</a>
</g>
</g>
<!-- Node25&#45;&gt;Node27 -->
<g id="edge2" class="edge">
<title>Node25&#45;&gt;Node27</title>
<path fill="none" stroke="#191970" d="M125.2007,-48C133.556,-48 142.163,-48 150.6236,-48"/>
<polygon fill="#191970" stroke="#191970" points="150.8443,-51.5001 160.8443,-48 150.8442,-44.5001 150.8443,-51.5001"/>
</g>
<!-- Node28 -->
<g id="node4" class="node">
<title>Node28</title>
<g id="a_node4"><a xlink:href="class_material.html#ade3d70e1ef2ebc40918f7de6134ccc00" target="_top" xlink:title="Material::setUniform">
<polygon fill="#ffffff" stroke="#000000" points="167.5,-.5 167.5,-19.5 272.5,-19.5 272.5,-.5 167.5,-.5"/>
<text text-anchor="middle" x="220" y="-7.5" font-family="Helvetica,sans-Serif" font-size="10.00" fill="#000000">Material::setUniform</text>
</a>
</g>
</g>
<!-- Node25&#45;&gt;Node28 -->
<g id="edge3" class="edge">
<title>Node25&#45;&gt;Node28</title>
<path fill="none" stroke="#191970" d="M124.7482,-32.9814C139.9781,-29.3069 156.0703,-25.4243 170.6053,-21.9174"/>
<polygon fill="#191970" stroke="#191970" points="171.4894,-25.3047 180.3895,-19.5568 169.8476,-18.4999 171.4894,-25.3047"/>
</g>
</g>
</svg>
