<?xml version="1.0" encoding="UTF-8" standalone="no"?>
<!DOCTYPE svg PUBLIC "-//W3C//DTD SVG 1.1//EN"
 "http://www.w3.org/Graphics/SVG/1.1/DTD/svg11.dtd">
<!-- Generated by graphviz version 2.44.1 (20200629.0846)
 -->
<!-- Title: OrbitCamera::update Pages: 1 -->
<svg width="937pt" height="160pt"
 viewBox="0.00 0.00 937.00 160.00" xmlns="http://www.w3.org/2000/svg" xmlns:xlink="http://www.w3.org/1999/xlink">
<g id="graph0" class="graph" transform="scale(1 1) rotate(0) translate(4 156)">
<title>OrbitCamera::update</title>
<polygon fill="white" stroke="transparent" points="-4,4 -4,-156 933,-156 933,4 -4,4"/>
<!-- Node1 -->
<g id="node1" class="node">
<title>Node1</title>
<g id="a_node1"><a xlink:title=" ">
<polygon fill="#bfbfbf" stroke="black" points="0,-94.5 0,-113.5 107,-113.5 107,-94.5 0,-94.5"/>
<text text-anchor="middle" x="53.5" y="-101.5" font-family="Helvetica,sans-Serif" font-size="10.00">OrbitCamera::update</text>
</a>
</g>
</g>
<!-- Node2 -->
<g id="node2" class="node">
<title>Node2</title>
<g id="a_node2"><a xlink:href="namespace_math.html#a87c8d0d2ba07b4b77a50b452d52a933e" target="_top" xlink:title=" ">
<polygon fill="white" stroke="black" points="647,-94.5 647,-113.5 763,-113.5 763,-94.5 647,-94.5"/>
<text text-anchor="middle" x="705" y="-101.5" font-family="Helvetica,sans-Serif" font-size="10.00">Math::getLookAtMatrix</text>
</a>
</g>
</g>
<!-- Node1&#45;&gt;Node2 -->
<g id="edge1" class="edge">
<title>Node1&#45;&gt;Node2</title>
<path fill="none" stroke="midnightblue" d="M107.1,-104C224.27,-104 506.63,-104 636.54,-104"/>
<polygon fill="midnightblue" stroke="midnightblue" points="636.75,-107.5 646.75,-104 636.75,-100.5 636.75,-107.5"/>
</g>
<!-- Node3 -->
<g id="node3" class="node">
<title>Node3</title>
<g id="a_node3"><a xlink:href="class_camera.html#a2068e31d770ec3d205abe5621a174d01" target="_top" xlink:title=" ">
<polygon fill="white" stroke="black" points="171,-132.5 171,-151.5 257,-151.5 257,-132.5 171,-132.5"/>
<text text-anchor="middle" x="214" y="-139.5" font-family="Helvetica,sans-Serif" font-size="10.00">Camera::update</text>
</a>
</g>
</g>
<!-- Node1&#45;&gt;Node3 -->
<g id="edge2" class="edge">
<title>Node1&#45;&gt;Node3</title>
<path fill="none" stroke="midnightblue" d="M94.5,-113.59C115.41,-118.6 141.21,-124.79 163.39,-130.11"/>
<polygon fill="midnightblue" stroke="midnightblue" points="162.75,-133.55 173.29,-132.48 164.38,-126.74 162.75,-133.55"/>
</g>
<!-- Node6 -->
<g id="node6" class="node">
<title>Node6</title>
<g id="a_node6"><a xlink:href="class_orbit_camera.html#aa1a54b3e3d8a69b681159f2b05c57878" target="_top" xlink:title=" ">
<polygon fill="white" stroke="black" points="143,-56.5 143,-75.5 285,-75.5 285,-56.5 143,-56.5"/>
<text text-anchor="middle" x="214" y="-63.5" font-family="Helvetica,sans-Serif" font-size="10.00">OrbitCamera::updatePosition</text>
</a>
</g>
</g>
<!-- Node1&#45;&gt;Node6 -->
<g id="edge5" class="edge">
<title>Node1&#45;&gt;Node6</title>
<path fill="none" stroke="midnightblue" d="M94.5,-94.41C115.41,-89.4 141.21,-83.21 163.39,-77.89"/>
<polygon fill="midnightblue" stroke="midnightblue" points="164.38,-81.26 173.29,-75.52 162.75,-74.45 164.38,-81.26"/>
</g>
<!-- Node4 -->
<g id="node4" class="node">
<title>Node4</title>
<g id="a_node4"><a xlink:href="class_object3_d.html#a1bcfea2816e897423eb9e2c8dd3af393" target="_top" xlink:title=" ">
<polygon fill="white" stroke="black" points="491.5,-132.5 491.5,-151.5 583.5,-151.5 583.5,-132.5 491.5,-132.5"/>
<text text-anchor="middle" x="537.5" y="-139.5" font-family="Helvetica,sans-Serif" font-size="10.00">Object3D::update</text>
</a>
</g>
</g>
<!-- Node3&#45;&gt;Node4 -->
<g id="edge3" class="edge">
<title>Node3&#45;&gt;Node4</title>
<path fill="none" stroke="midnightblue" d="M257.03,-142C314.43,-142 417.45,-142 481.1,-142"/>
<polygon fill="midnightblue" stroke="midnightblue" points="481.35,-145.5 491.35,-142 481.35,-138.5 481.35,-145.5"/>
</g>
<!-- Node5 -->
<g id="node5" class="node">
<title>Node5</title>
<g id="a_node5"><a xlink:href="class_object3_d.html#abc681f1051acec39dd995a1bab816eba" target="_top" xlink:title=" ">
<polygon fill="white" stroke="black" points="804,-61 804,-91 929,-91 929,-61 804,-61"/>
<text text-anchor="start" x="812" y="-79" font-family="Helvetica,sans-Serif" font-size="10.00">Object3D::calculateLocal</text>
<text text-anchor="middle" x="866.5" y="-68" font-family="Helvetica,sans-Serif" font-size="10.00">Transform</text>
</a>
</g>
</g>
<!-- Node4&#45;&gt;Node5 -->
<g id="edge4" class="edge">
<title>Node4&#45;&gt;Node5</title>
<path fill="none" stroke="midnightblue" d="M583.76,-143.08C630.67,-143.09 705.7,-139.97 768,-123 790.33,-116.92 813.75,-105.81 832.04,-95.91"/>
<polygon fill="midnightblue" stroke="midnightblue" points="833.79,-98.94 840.83,-91.03 830.39,-92.82 833.79,-98.94"/>
</g>
<!-- Node7 -->
<g id="node7" class="node">
<title>Node7</title>
<g id="a_node7"><a xlink:href="class_camera.html#a781c538ca705b4fa8482e817cbdf7dc7" target="_top" xlink:title=" ">
<polygon fill="white" stroke="black" points="335,-56.5 335,-75.5 419,-75.5 419,-56.5 335,-56.5"/>
<text text-anchor="middle" x="377" y="-63.5" font-family="Helvetica,sans-Serif" font-size="10.00">Camera::lookAt</text>
</a>
</g>
</g>
<!-- Node6&#45;&gt;Node7 -->
<g id="edge6" class="edge">
<title>Node6&#45;&gt;Node7</title>
<path fill="none" stroke="midnightblue" d="M285.15,-66C298.39,-66 312.01,-66 324.54,-66"/>
<polygon fill="midnightblue" stroke="midnightblue" points="324.79,-69.5 334.79,-66 324.79,-62.5 324.79,-69.5"/>
</g>
<!-- Node12 -->
<g id="node12" class="node">
<title>Node12</title>
<g id="a_node12"><a xlink:href="class_object3_d.html#a7797af713ae1804875079851760b2c6c" target="_top" xlink:title=" ">
<polygon fill="white" stroke="black" points="321,-18.5 321,-37.5 433,-37.5 433,-18.5 321,-18.5"/>
<text text-anchor="middle" x="377" y="-25.5" font-family="Helvetica,sans-Serif" font-size="10.00">Object3D::setPosition</text>
</a>
</g>
</g>
<!-- Node6&#45;&gt;Node12 -->
<g id="edge14" class="edge">
<title>Node6&#45;&gt;Node12</title>
<path fill="none" stroke="midnightblue" d="M255.63,-56.41C276.97,-51.37 303.31,-45.16 325.91,-39.82"/>
<polygon fill="midnightblue" stroke="midnightblue" points="326.74,-43.22 335.67,-37.52 325.13,-36.41 326.74,-43.22"/>
</g>
<!-- Node8 -->
<g id="node8" class="node">
<title>Node8</title>
<g id="a_node8"><a xlink:href="class_object3_d.html#a5fb9d0e5407b2c1a415543128b79b537" target="_top" xlink:title=" ">
<polygon fill="white" stroke="black" points="479,-56.5 479,-75.5 596,-75.5 596,-56.5 479,-56.5"/>
<text text-anchor="middle" x="537.5" y="-63.5" font-family="Helvetica,sans-Serif" font-size="10.00">Object3D::applyLookAt</text>
</a>
</g>
</g>
<!-- Node7&#45;&gt;Node8 -->
<g id="edge7" class="edge">
<title>Node7&#45;&gt;Node8</title>
<path fill="none" stroke="midnightblue" d="M419.23,-66C434.27,-66 451.7,-66 468.46,-66"/>
<polygon fill="midnightblue" stroke="midnightblue" points="468.77,-69.5 478.77,-66 468.77,-62.5 468.77,-69.5"/>
</g>
<!-- Node10 -->
<g id="node10" class="node">
<title>Node10</title>
<g id="a_node10"><a xlink:href="class_object3_d.html#a1282f3d1bc1eac2d428f7183ffd0311b" target="_top" xlink:title=" ">
<polygon fill="white" stroke="black" points="469,-9.5 469,-28.5 606,-28.5 606,-9.5 469,-9.5"/>
<text text-anchor="middle" x="537.5" y="-16.5" font-family="Helvetica,sans-Serif" font-size="10.00">Object3D::getWorldPosition</text>
</a>
</g>
</g>
<!-- Node7&#45;&gt;Node10 -->
<g id="edge10" class="edge">
<title>Node7&#45;&gt;Node10</title>
<path fill="none" stroke="midnightblue" d="M410.07,-56.49C434.38,-49.28 467.99,-39.32 494.45,-31.47"/>
<polygon fill="midnightblue" stroke="midnightblue" points="495.61,-34.78 504.2,-28.58 493.62,-28.06 495.61,-34.78"/>
</g>
<!-- Node8&#45;&gt;Node2 -->
<g id="edge8" class="edge">
<title>Node8&#45;&gt;Node2</title>
<path fill="none" stroke="midnightblue" d="M580.26,-75.59C602.2,-80.63 629.28,-86.84 652.51,-92.18"/>
<polygon fill="midnightblue" stroke="midnightblue" points="652.01,-95.65 662.54,-94.48 653.57,-88.83 652.01,-95.65"/>
</g>
<!-- Node9 -->
<g id="node9" class="node">
<title>Node9</title>
<g id="a_node9"><a xlink:href="class_object3_d.html#a722bb19a2d011e0f845be13e0cba9b39" target="_top" xlink:title=" ">
<polygon fill="white" stroke="black" points="643,-56.5 643,-75.5 767,-75.5 767,-56.5 643,-56.5"/>
<text text-anchor="middle" x="705" y="-63.5" font-family="Helvetica,sans-Serif" font-size="10.00">Object3D::setQuaternion</text>
</a>
</g>
</g>
<!-- Node8&#45;&gt;Node9 -->
<g id="edge9" class="edge">
<title>Node8&#45;&gt;Node9</title>
<path fill="none" stroke="midnightblue" d="M596.38,-66C608.11,-66 620.57,-66 632.69,-66"/>
<polygon fill="midnightblue" stroke="midnightblue" points="632.77,-69.5 642.77,-66 632.77,-62.5 632.77,-69.5"/>
</g>
<!-- Node11 -->
<g id="node11" class="node">
<title>Node11</title>
<g id="a_node11"><a xlink:href="class_object3_d.html#a550760d083917c13f981f6ac4bcfd167" target="_top" xlink:title=" ">
<polygon fill="white" stroke="black" points="642,-0.5 642,-19.5 768,-19.5 768,-0.5 642,-0.5"/>
<text text-anchor="middle" x="705" y="-7.5" font-family="Helvetica,sans-Serif" font-size="10.00">Object3D::updateParents</text>
</a>
</g>
</g>
<!-- Node10&#45;&gt;Node11 -->
<g id="edge11" class="edge">
<title>Node10&#45;&gt;Node11</title>
<path fill="none" stroke="midnightblue" d="M606.29,-15.31C614.67,-14.86 623.26,-14.39 631.7,-13.93"/>
<polygon fill="midnightblue" stroke="midnightblue" points="632.1,-17.42 641.9,-13.38 631.72,-10.43 632.1,-17.42"/>
</g>
<!-- Node11&#45;&gt;Node5 -->
<g id="edge12" class="edge">
<title>Node11&#45;&gt;Node5</title>
<path fill="none" stroke="midnightblue" d="M729.19,-19.6C752.82,-29.37 790.08,-44.79 819.68,-57.04"/>
<polygon fill="midnightblue" stroke="midnightblue" points="818.41,-60.3 828.99,-60.89 821.09,-53.84 818.41,-60.3"/>
</g>
<!-- Node11&#45;&gt;Node11 -->
<g id="edge13" class="edge">
<title>Node11&#45;&gt;Node11</title>
<path fill="none" stroke="midnightblue" d="M680.34,-19.76C668.34,-28.57 676.56,-38 705,-38 724.11,-38 734.09,-33.74 734.94,-28.27"/>
<polygon fill="midnightblue" stroke="midnightblue" points="737.9,-26.41 729.66,-19.76 731.95,-30.1 737.9,-26.41"/>
</g>
</g>
</svg>
