<?xml version="1.0" encoding="UTF-8" standalone="no"?>
<!DOCTYPE svg PUBLIC "-//W3C//DTD SVG 1.1//EN"
 "http://www.w3.org/Graphics/SVG/1.1/DTD/svg11.dtd">
<!-- Generated by graphviz version 2.40.1 (20161225.0304)
 -->
<!-- Title: DearImGuiSceneBrowser::displaySceneEntity Pages: 1 -->
<svg width="288pt" height="142pt"
 viewBox="0.00 0.00 288.00 142.00" xmlns="http://www.w3.org/2000/svg" xmlns:xlink="http://www.w3.org/1999/xlink">
<g id="graph0" class="graph" transform="scale(1 1) rotate(0) translate(4 138)">
<title>DearImGuiSceneBrowser::displaySceneEntity</title>
<polygon fill="#ffffff" stroke="transparent" points="-4,4 -4,-138 284,-138 284,4 -4,4"/>
<!-- Node8 -->
<g id="node1" class="node">
<title>Node8</title>
<polygon fill="#bfbfbf" stroke="#000000" points="0,-52 0,-82 128,-82 128,-52 0,-52"/>
<text text-anchor="start" x="8" y="-70" font-family="Helvetica,sans-Serif" font-size="10.00" fill="#000000">DearImGuiSceneBrowser</text>
<text text-anchor="middle" x="64" y="-59" font-family="Helvetica,sans-Serif" font-size="10.00" fill="#000000">::displaySceneEntity</text>
</g>
<!-- Node9 -->
<g id="node2" class="node">
<title>Node9</title>
<g id="a_node2"><a xlink:href="class_entity.html#aec5b6fb1566ab2f4b1b30c8d788315dc" target="_top" xlink:title="Entity::getTransform">
<polygon fill="#ffffff" stroke="#000000" points="169,-114.5 169,-133.5 275,-133.5 275,-114.5 169,-114.5"/>
<text text-anchor="middle" x="222" y="-121.5" font-family="Helvetica,sans-Serif" font-size="10.00" fill="#000000">Entity::getTransform</text>
</a>
</g>
</g>
<!-- Node8&#45;&gt;Node9 -->
<g id="edge1" class="edge">
<title>Node8&#45;&gt;Node9</title>
<path fill="none" stroke="#191970" d="M102.3101,-82.0366C120.8649,-89.1965 143.5133,-97.7564 164,-105 169.7598,-107.0365 175.8671,-109.1195 181.8733,-111.1247"/>
<polygon fill="#191970" stroke="#191970" points="181.2134,-114.5925 191.8066,-114.4038 183.4078,-107.9454 181.2134,-114.5925"/>
</g>
<!-- Node10 -->
<g id="node3" class="node">
<title>Node10</title>
<g id="a_node3"><a xlink:href="class_transform.html#aa88751206dca7860f5c17977c8c10aa0" target="_top" xlink:title="Transform::getChildren">
<polygon fill="#ffffff" stroke="#000000" points="164,-76.5 164,-95.5 280,-95.5 280,-76.5 164,-76.5"/>
<text text-anchor="middle" x="222" y="-83.5" font-family="Helvetica,sans-Serif" font-size="10.00" fill="#000000">Transform::getChildren</text>
</a>
</g>
</g>
<!-- Node8&#45;&gt;Node10 -->
<g id="edge2" class="edge">
<title>Node8&#45;&gt;Node10</title>
<path fill="none" stroke="#191970" d="M128.2646,-74.728C136.6467,-75.736 145.2582,-76.7716 153.7035,-77.7871"/>
<polygon fill="#191970" stroke="#191970" points="153.5494,-81.2937 163.8958,-79.0128 154.3852,-74.3438 153.5494,-81.2937"/>
</g>
<!-- Node11 -->
<g id="node4" class="node">
<title>Node11</title>
<g id="a_node4"><a xlink:href="class_entity.html#a2a0f7811f8c3f8726be1549e1c4acba4" target="_top" xlink:title="Entity::isEnabled">
<polygon fill="#ffffff" stroke="#000000" points="176.5,-38.5 176.5,-57.5 267.5,-57.5 267.5,-38.5 176.5,-38.5"/>
<text text-anchor="middle" x="222" y="-45.5" font-family="Helvetica,sans-Serif" font-size="10.00" fill="#000000">Entity::isEnabled</text>
</a>
</g>
</g>
<!-- Node8&#45;&gt;Node11 -->
<g id="edge3" class="edge">
<title>Node8&#45;&gt;Node11</title>
<path fill="none" stroke="#191970" d="M128.2646,-59.272C140.813,-57.763 153.8757,-56.1922 166.1249,-54.7192"/>
<polygon fill="#191970" stroke="#191970" points="166.6832,-58.1773 176.1938,-53.5083 165.8474,-51.2274 166.6832,-58.1773"/>
</g>
<!-- Node12 -->
<g id="node5" class="node">
<title>Node12</title>
<g id="a_node5"><a xlink:href="class_entity.html#aa8fb6c2c38bb08f493282edfef0746d3" target="_top" xlink:title="Entity::getName">
<polygon fill="#ffffff" stroke="#000000" points="178,-.5 178,-19.5 266,-19.5 266,-.5 178,-.5"/>
<text text-anchor="middle" x="222" y="-7.5" font-family="Helvetica,sans-Serif" font-size="10.00" fill="#000000">Entity::getName</text>
</a>
</g>
</g>
<!-- Node8&#45;&gt;Node12 -->
<g id="edge4" class="edge">
<title>Node8&#45;&gt;Node12</title>
<path fill="none" stroke="#191970" d="M102.3101,-51.9634C120.8649,-44.8035 143.5133,-36.2436 164,-29 169.7598,-26.9635 175.8671,-24.8805 181.8733,-22.8753"/>
<polygon fill="#191970" stroke="#191970" points="183.4078,-26.0546 191.8066,-19.5962 181.2134,-19.4075 183.4078,-26.0546"/>
</g>
</g>
</svg>
