<?xml version="1.0" encoding="UTF-8" standalone="no"?>
<!DOCTYPE svg PUBLIC "-//W3C//DTD SVG 1.1//EN"
 "http://www.w3.org/Graphics/SVG/1.1/DTD/svg11.dtd">
<!-- Generated by graphviz version 2.40.1 (20161225.0304)
 -->
<!-- Title: BoxBufferGeometry Pages: 1 -->
<svg width="1078pt" height="214pt"
 viewBox="0.00 0.00 1078.00 214.00" xmlns="http://www.w3.org/2000/svg" xmlns:xlink="http://www.w3.org/1999/xlink">
<g id="graph0" class="graph" transform="scale(1 1) rotate(0) translate(4 210)">
<title>BoxBufferGeometry</title>
<polygon fill="#ffffff" stroke="transparent" points="-4,4 -4,-210 1074,-210 1074,4 -4,4"/>
<!-- Node2 -->
<g id="node1" class="node">
<title>Node2</title>
<polygon fill="#bfbfbf" stroke="#000000" points="967,-110.5 967,-129.5 1070,-129.5 1070,-110.5 967,-110.5"/>
<text text-anchor="middle" x="1018.5" y="-117.5" font-family="Helvetica,sans-Serif" font-size="10.00" fill="#000000">BoxBufferGeometry</text>
</g>
<!-- Node3 -->
<g id="node2" class="node">
<title>Node3</title>
<g id="a_node2"><a xlink:href="class_buffer_geometry.html" target="_top" xlink:title="BufferGeometry">
<polygon fill="#ffffff" stroke="#000000" points="844,-110.5 844,-129.5 930,-129.5 930,-110.5 844,-110.5"/>
<text text-anchor="middle" x="887" y="-117.5" font-family="Helvetica,sans-Serif" font-size="10.00" fill="#000000">BufferGeometry</text>
</a>
</g>
</g>
<!-- Node3&#45;&gt;Node2 -->
<g id="edge1" class="edge">
<title>Node3&#45;&gt;Node2</title>
<path fill="none" stroke="#191970" d="M940.137,-120C948.8768,-120 957.9256,-120 966.6339,-120"/>
<polygon fill="#191970" stroke="#191970" points="940.0581,-116.5001 930.058,-120 940.058,-123.5001 940.0581,-116.5001"/>
</g>
<!-- Node4 -->
<g id="node3" class="node">
<title>Node4</title>
<g id="a_node3"><a xlink:href="struct_math_1_1_sphere.html" target="_top" xlink:title="A structure for handling a mathematical sphere object. ">
<polygon fill="#ffffff" stroke="#000000" points="621,-186.5 621,-205.5 696,-205.5 696,-186.5 621,-186.5"/>
<text text-anchor="middle" x="658.5" y="-193.5" font-family="Helvetica,sans-Serif" font-size="10.00" fill="#000000">Math::Sphere</text>
</a>
</g>
</g>
<!-- Node4&#45;&gt;Node3 -->
<g id="edge2" class="edge">
<title>Node4&#45;&gt;Node3</title>
<path fill="none" stroke="#9a32cd" stroke-dasharray="5,2" d="M706.3319,-191.9497C740.7194,-187.7705 787.5993,-179.4293 826,-163 845.2983,-154.7435 864.5998,-139.7172 876.1723,-129.7955"/>
<polygon fill="#9a32cd" stroke="#9a32cd" points="705.6236,-188.5077 696.0842,-193.1175 706.4161,-195.4627 705.6236,-188.5077"/>
<text text-anchor="middle" x="782.5" y="-189" font-family="Helvetica,sans-Serif" font-size="10.00" fill="#000000"> boundingSphere</text>
</g>
<!-- Node5 -->
<g id="node4" class="node">
<title>Node5</title>
<polygon fill="#ffffff" stroke="#bfbfbf" points="600.5,-148.5 600.5,-167.5 716.5,-167.5 716.5,-148.5 600.5,-148.5"/>
<text text-anchor="middle" x="658.5" y="-155.5" font-family="Helvetica,sans-Serif" font-size="10.00" fill="#000000">std::vector&lt; uint32_t &gt;</text>
</g>
<!-- Node5&#45;&gt;Node3 -->
<g id="edge3" class="edge">
<title>Node5&#45;&gt;Node3</title>
<path fill="none" stroke="#9a32cd" stroke-dasharray="5,2" d="M726.9723,-150.2429C757.4157,-146.3713 793.6212,-141.1864 826,-135 834.1411,-133.4445 842.8247,-131.4906 851.0111,-129.5119"/>
<polygon fill="#9a32cd" stroke="#9a32cd" points="726.3709,-146.7907 716.8827,-151.505 727.2398,-153.7366 726.3709,-146.7907"/>
<text text-anchor="middle" x="782.5" y="-151" font-family="Helvetica,sans-Serif" font-size="10.00" fill="#000000"> indexes</text>
</g>
<!-- Node6 -->
<g id="node5" class="node">
<title>Node6</title>
<polygon fill="#ffffff" stroke="#bfbfbf" points="603.5,-110.5 603.5,-129.5 713.5,-129.5 713.5,-110.5 603.5,-110.5"/>
<text text-anchor="middle" x="658.5" y="-117.5" font-family="Helvetica,sans-Serif" font-size="10.00" fill="#000000">std::vector&lt; GLuint &gt;</text>
</g>
<!-- Node6&#45;&gt;Node3 -->
<g id="edge4" class="edge">
<title>Node6&#45;&gt;Node3</title>
<path fill="none" stroke="#9a32cd" stroke-dasharray="5,2" d="M723.6232,-120C762.187,-120 809.9751,-120 843.8819,-120"/>
<polygon fill="#9a32cd" stroke="#9a32cd" points="723.5223,-116.5001 713.5222,-120 723.5222,-123.5001 723.5223,-116.5001"/>
<text text-anchor="middle" x="782.5" y="-123" font-family="Helvetica,sans-Serif" font-size="10.00" fill="#000000"> locationsToDisable</text>
</g>
<!-- Node7 -->
<g id="node6" class="node">
<title>Node7</title>
<g id="a_node6"><a xlink:href="struct_math_1_1_axis_aligned_box.html" target="_top" xlink:title="A structure representing an axis&#45;aligned 3D box. ">
<polygon fill="#ffffff" stroke="#000000" points="602,-72.5 602,-91.5 715,-91.5 715,-72.5 602,-72.5"/>
<text text-anchor="middle" x="658.5" y="-79.5" font-family="Helvetica,sans-Serif" font-size="10.00" fill="#000000">Math::AxisAlignedBox</text>
</a>
</g>
</g>
<!-- Node7&#45;&gt;Node3 -->
<g id="edge5" class="edge">
<title>Node7&#45;&gt;Node3</title>
<path fill="none" stroke="#9a32cd" stroke-dasharray="5,2" d="M725.5154,-89.5723C756.2562,-93.463 793.1032,-98.7146 826,-105 834.1411,-106.5555 842.8247,-108.5094 851.0111,-110.4881"/>
<polygon fill="#9a32cd" stroke="#9a32cd" points="725.6947,-86.0677 715.3389,-88.3055 724.83,-93.0141 725.6947,-86.0677"/>
<text text-anchor="middle" x="782.5" y="-108" font-family="Helvetica,sans-Serif" font-size="10.00" fill="#000000"> boundingBox</text>
</g>
<!-- Node8 -->
<g id="node7" class="node">
<title>Node8</title>
<polygon fill="#ffffff" stroke="#bfbfbf" points="596,-12.5 596,-53.5 721,-53.5 721,-12.5 596,-12.5"/>
<text text-anchor="start" x="604" y="-41.5" font-family="Helvetica,sans-Serif" font-size="10.00" fill="#000000">std::unordered_map</text>
<text text-anchor="start" x="604" y="-30.5" font-family="Helvetica,sans-Serif" font-size="10.00" fill="#000000">&lt; string, BufferGeometry</text>
<text text-anchor="middle" x="658.5" y="-19.5" font-family="Helvetica,sans-Serif" font-size="10.00" fill="#000000">::AttributeData &gt;</text>
</g>
<!-- Node8&#45;&gt;Node3 -->
<g id="edge6" class="edge">
<title>Node8&#45;&gt;Node3</title>
<path fill="none" stroke="#9a32cd" stroke-dasharray="5,2" d="M731.3138,-45.4903C761.4985,-52.2328 796.322,-62.0974 826,-76 845.156,-84.9736 864.4952,-100.2098 876.1148,-110.1891"/>
<polygon fill="#9a32cd" stroke="#9a32cd" points="731.7826,-42.0109 721.2692,-43.322 730.3055,-48.8533 731.7826,-42.0109"/>
<text text-anchor="middle" x="782.5" y="-79" font-family="Helvetica,sans-Serif" font-size="10.00" fill="#000000"> attributes</text>
</g>
<!-- Node9 -->
<g id="node8" class="node">
<title>Node9</title>
<g id="a_node8"><a xlink:title="STL class. ">
<polygon fill="#ffffff" stroke="#bfbfbf" points="412.5,-43.5 412.5,-62.5 472.5,-62.5 472.5,-43.5 412.5,-43.5"/>
<text text-anchor="middle" x="442.5" y="-50.5" font-family="Helvetica,sans-Serif" font-size="10.00" fill="#000000">std::string</text>
</a>
</g>
</g>
<!-- Node9&#45;&gt;Node8 -->
<g id="edge7" class="edge">
<title>Node9&#45;&gt;Node8</title>
<path fill="none" stroke="#9a32cd" stroke-dasharray="5,2" d="M482.7763,-49.2707C514.5527,-46.3285 559.4428,-42.172 595.897,-38.7966"/>
<polygon fill="#9a32cd" stroke="#9a32cd" points="482.1686,-45.8119 472.5339,-50.2191 482.814,-52.7821 482.1686,-45.8119"/>
<text text-anchor="middle" x="556.5" y="-47" font-family="Helvetica,sans-Serif" font-size="10.00" fill="#000000"> keys</text>
</g>
<!-- Node10 -->
<g id="node9" class="node">
<title>Node10</title>
<g id="a_node9"><a xlink:title="STL class. ">
<polygon fill="#ffffff" stroke="#bfbfbf" points="164.5,-39 164.5,-69 259.5,-69 259.5,-39 164.5,-39"/>
<text text-anchor="start" x="172.5" y="-57" font-family="Helvetica,sans-Serif" font-size="10.00" fill="#000000">std::basic_string&lt;</text>
<text text-anchor="middle" x="212" y="-46" font-family="Helvetica,sans-Serif" font-size="10.00" fill="#000000"> char &gt;</text>
</a>
</g>
</g>
<!-- Node10&#45;&gt;Node9 -->
<g id="edge8" class="edge">
<title>Node10&#45;&gt;Node9</title>
<path fill="none" stroke="#191970" d="M270.0344,-53.7482C315.3147,-53.5518 376.3834,-53.2868 412.3883,-53.1306"/>
<polygon fill="#191970" stroke="#191970" points="269.7444,-50.2494 259.7597,-53.7928 269.7749,-57.2493 269.7444,-50.2494"/>
</g>
<!-- Node11 -->
<g id="node10" class="node">
<title>Node11</title>
<g id="a_node10"><a xlink:href="struct_buffer_geometry_1_1_attribute_data.html" target="_top" xlink:title="BufferGeometry::AttributeData">
<polygon fill="#ffffff" stroke="#000000" points="368,-4.5 368,-23.5 517,-23.5 517,-4.5 368,-4.5"/>
<text text-anchor="middle" x="442.5" y="-11.5" font-family="Helvetica,sans-Serif" font-size="10.00" fill="#000000">BufferGeometry::AttributeData</text>
</a>
</g>
</g>
<!-- Node11&#45;&gt;Node8 -->
<g id="edge9" class="edge">
<title>Node11&#45;&gt;Node8</title>
<path fill="none" stroke="#9a32cd" stroke-dasharray="5,2" d="M527.5224,-14.496C544.2858,-15.1612 561.7222,-16.2538 578,-18 583.7954,-18.6217 589.7993,-19.429 595.7963,-20.3466"/>
<polygon fill="#9a32cd" stroke="#9a32cd" points="527.3043,-10.9863 517.1882,-14.135 527.0599,-17.9821 527.3043,-10.9863"/>
<text text-anchor="middle" x="556.5" y="-21" font-family="Helvetica,sans-Serif" font-size="10.00" fill="#000000"> elements</text>
</g>
<!-- Node12 -->
<g id="node11" class="node">
<title>Node12</title>
<polygon fill="#ffffff" stroke="#bfbfbf" points="131,-.5 131,-19.5 293,-19.5 293,-.5 131,-.5"/>
<text text-anchor="middle" x="212" y="-7.5" font-family="Helvetica,sans-Serif" font-size="10.00" fill="#000000">std::unique_ptr&lt; BufferAttribute &gt;</text>
</g>
<!-- Node12&#45;&gt;Node11 -->
<g id="edge10" class="edge">
<title>Node12&#45;&gt;Node11</title>
<path fill="none" stroke="#9a32cd" stroke-dasharray="5,2" d="M303.3181,-11.5847C324.6839,-11.9555 347.1976,-12.3462 367.7441,-12.7027"/>
<polygon fill="#9a32cd" stroke="#9a32cd" points="303.3249,-8.0844 293.2657,-11.4103 303.2034,-15.0833 303.3249,-8.0844"/>
<text text-anchor="middle" x="330.5" y="-16" font-family="Helvetica,sans-Serif" font-size="10.00" fill="#000000"> attribute</text>
</g>
<!-- Node13 -->
<g id="node12" class="node">
<title>Node13</title>
<g id="a_node12"><a xlink:href="class_buffer_attribute.html" target="_top" xlink:title="BufferAttribute">
<polygon fill="#ffffff" stroke="#000000" points="0,-.5 0,-19.5 80,-19.5 80,-.5 0,-.5"/>
<text text-anchor="middle" x="40" y="-7.5" font-family="Helvetica,sans-Serif" font-size="10.00" fill="#000000">BufferAttribute</text>
</a>
</g>
</g>
<!-- Node13&#45;&gt;Node12 -->
<g id="edge11" class="edge">
<title>Node13&#45;&gt;Node12</title>
<path fill="none" stroke="#9a32cd" stroke-dasharray="5,2" d="M90.6496,-10C103.3232,-10 117.2369,-10 130.9805,-10"/>
<polygon fill="#9a32cd" stroke="#9a32cd" points="90.3264,-6.5001 80.3264,-10 90.3263,-13.5001 90.3264,-6.5001"/>
<text text-anchor="middle" x="105.5" y="-13" font-family="Helvetica,sans-Serif" font-size="10.00" fill="#000000"> ptr</text>
</g>
</g>
</svg>
