<?xml version="1.0" encoding="UTF-8" standalone="no"?>
<!DOCTYPE svg PUBLIC "-//W3C//DTD SVG 1.1//EN"
 "http://www.w3.org/Graphics/SVG/1.1/DTD/svg11.dtd">
<!-- Generated by graphviz version 2.44.1 (20200629.0846)
 -->
<!-- Title: ShaderProgramCompiler::checkShaderCompile Pages: 1 -->
<svg width="644pt" height="329pt"
 viewBox="0.00 0.00 644.00 328.50" xmlns="http://www.w3.org/2000/svg" xmlns:xlink="http://www.w3.org/1999/xlink">
<g id="graph0" class="graph" transform="scale(1 1) rotate(0) translate(4 324.5)">
<title>ShaderProgramCompiler::checkShaderCompile</title>
<polygon fill="white" stroke="transparent" points="-4,4 -4,-324.5 640,-324.5 640,4 -4,4"/>
<!-- Node1 -->
<g id="node1" class="node">
<title>Node1</title>
<g id="a_node1"><a xlink:title=" ">
<polygon fill="#bfbfbf" stroke="black" points="0,-137 0,-167 122,-167 122,-137 0,-137"/>
<text text-anchor="start" x="8" y="-155" font-family="Helvetica,sans-Serif" font-size="10.00">ShaderProgramCompiler</text>
<text text-anchor="middle" x="61" y="-144" font-family="Helvetica,sans-Serif" font-size="10.00">::checkShaderCompile</text>
</a>
</g>
</g>
<!-- Node2 -->
<g id="node2" class="node">
<title>Node2</title>
<g id="a_node2"><a xlink:href="class_shader_program_compiler.html#a3a9b9a6eee545b38eb9d58b033a334f3" target="_top" xlink:title=" ">
<polygon fill="white" stroke="black" points="166.5,-290 166.5,-320 288.5,-320 288.5,-290 166.5,-290"/>
<text text-anchor="start" x="174.5" y="-308" font-family="Helvetica,sans-Serif" font-size="10.00">ShaderProgramCompiler</text>
<text text-anchor="middle" x="227.5" y="-297" font-family="Helvetica,sans-Serif" font-size="10.00">::compileFragment</text>
</a>
</g>
</g>
<!-- Node1&#45;&gt;Node2 -->
<g id="edge1" class="edge">
<title>Node1&#45;&gt;Node2</title>
<path fill="none" stroke="midnightblue" d="M69.62,-167.28C83.61,-193.85 115.85,-248.71 158,-280 160.51,-281.86 163.18,-283.6 165.94,-285.22"/>
<polygon fill="midnightblue" stroke="midnightblue" points="164.56,-288.45 175.05,-289.98 167.81,-282.25 164.56,-288.45"/>
</g>
<!-- Node8 -->
<g id="node8" class="node">
<title>Node8</title>
<g id="a_node8"><a xlink:href="class_shader_program_compiler.html#ad5186f5a62633607111af3e57231d7b1" target="_top" xlink:title=" ">
<polygon fill="white" stroke="black" points="166.5,-241 166.5,-271 288.5,-271 288.5,-241 166.5,-241"/>
<text text-anchor="start" x="174.5" y="-259" font-family="Helvetica,sans-Serif" font-size="10.00">ShaderProgramCompiler</text>
<text text-anchor="middle" x="227.5" y="-248" font-family="Helvetica,sans-Serif" font-size="10.00">::compileVertex</text>
</a>
</g>
</g>
<!-- Node1&#45;&gt;Node8 -->
<g id="edge7" class="edge">
<title>Node1&#45;&gt;Node8</title>
<path fill="none" stroke="midnightblue" d="M77.07,-167.21C95.01,-184.61 126.52,-213.01 158,-231 161.65,-233.08 165.5,-235.05 169.44,-236.89"/>
<polygon fill="midnightblue" stroke="midnightblue" points="168.19,-240.16 178.76,-240.96 170.99,-233.75 168.19,-240.16"/>
</g>
<!-- Node9 -->
<g id="node9" class="node">
<title>Node9</title>
<g id="a_node9"><a xlink:href="class_shader.html#a06a13afc6b863a1eb9740a2627888e30" target="_top" xlink:title=" ">
<polygon fill="white" stroke="black" points="158,-202.5 158,-221.5 297,-221.5 297,-202.5 158,-202.5"/>
<text text-anchor="middle" x="227.5" y="-209.5" font-family="Helvetica,sans-Serif" font-size="10.00">Shader::getFragmentShader</text>
</a>
</g>
</g>
<!-- Node1&#45;&gt;Node9 -->
<g id="edge10" class="edge">
<title>Node1&#45;&gt;Node9</title>
<path fill="none" stroke="midnightblue" d="M94.45,-167.14C112.86,-175.4 136.45,-185.45 158,-193 164.57,-195.3 171.58,-197.52 178.5,-199.56"/>
<polygon fill="midnightblue" stroke="midnightblue" points="177.96,-203.05 188.53,-202.44 179.89,-196.32 177.96,-203.05"/>
</g>
<!-- Node10 -->
<g id="node10" class="node">
<title>Node10</title>
<g id="a_node10"><a xlink:href="class_shader.html#a8dbd8d624b47ff9210792cf212b354cb" target="_top" xlink:title=" ">
<polygon fill="white" stroke="black" points="165,-164.5 165,-183.5 290,-183.5 290,-164.5 165,-164.5"/>
<text text-anchor="middle" x="227.5" y="-171.5" font-family="Helvetica,sans-Serif" font-size="10.00">Shader::getNeedsUpdate</text>
</a>
</g>
</g>
<!-- Node1&#45;&gt;Node10 -->
<g id="edge11" class="edge">
<title>Node1&#45;&gt;Node10</title>
<path fill="none" stroke="midnightblue" d="M122.32,-160.07C132.81,-161.47 143.82,-162.94 154.59,-164.38"/>
<polygon fill="midnightblue" stroke="midnightblue" points="154.43,-167.89 164.81,-165.75 155.36,-160.95 154.43,-167.89"/>
</g>
<!-- Node11 -->
<g id="node11" class="node">
<title>Node11</title>
<g id="a_node11"><a xlink:href="class_buffer_geometry.html#a60467b97a564b06120f28948b5cf4201" target="_top" xlink:title=" ">
<polygon fill="white" stroke="black" points="160.5,-115 160.5,-145 294.5,-145 294.5,-115 160.5,-115"/>
<text text-anchor="start" x="168.5" y="-133" font-family="Helvetica,sans-Serif" font-size="10.00">BufferGeometry::getShader</text>
<text text-anchor="middle" x="227.5" y="-122" font-family="Helvetica,sans-Serif" font-size="10.00">LayoutCode</text>
</a>
</g>
</g>
<!-- Node1&#45;&gt;Node11 -->
<g id="edge12" class="edge">
<title>Node1&#45;&gt;Node11</title>
<path fill="none" stroke="midnightblue" d="M122.32,-143.93C131.41,-142.72 140.89,-141.45 150.26,-140.2"/>
<polygon fill="midnightblue" stroke="midnightblue" points="150.92,-143.64 160.36,-138.84 149.99,-136.7 150.92,-143.64"/>
</g>
<!-- Node12 -->
<g id="node12" class="node">
<title>Node12</title>
<g id="a_node12"><a xlink:href="class_shader.html#a8beb925ecccca417ef349bdfb79635d5" target="_top" xlink:title=" ">
<polygon fill="white" stroke="black" points="164.5,-76.5 164.5,-95.5 290.5,-95.5 290.5,-76.5 164.5,-76.5"/>
<text text-anchor="middle" x="227.5" y="-83.5" font-family="Helvetica,sans-Serif" font-size="10.00">Shader::getVertexShader</text>
</a>
</g>
</g>
<!-- Node1&#45;&gt;Node12 -->
<g id="edge13" class="edge">
<title>Node1&#45;&gt;Node12</title>
<path fill="none" stroke="midnightblue" d="M89.54,-136.83C108.41,-126.85 134.23,-114.03 158,-105 164.28,-102.62 170.98,-100.39 177.65,-98.35"/>
<polygon fill="midnightblue" stroke="midnightblue" points="178.72,-101.69 187.33,-95.52 176.75,-94.97 178.72,-101.69"/>
</g>
<!-- Node13 -->
<g id="node13" class="node">
<title>Node13</title>
<g id="a_node13"><a xlink:href="class_shader.html#aa61bf5a5591777aea02d22ad173c3e96" target="_top" xlink:title=" ">
<polygon fill="white" stroke="black" points="175,-38.5 175,-57.5 280,-57.5 280,-38.5 175,-38.5"/>
<text text-anchor="middle" x="227.5" y="-45.5" font-family="Helvetica,sans-Serif" font-size="10.00">Shader::linkProgram</text>
</a>
</g>
</g>
<!-- Node1&#45;&gt;Node13 -->
<g id="edge14" class="edge">
<title>Node1&#45;&gt;Node13</title>
<path fill="none" stroke="midnightblue" d="M75.06,-136.79C92.22,-117.74 124.16,-85.38 158,-67 162.19,-64.73 166.67,-62.71 171.26,-60.92"/>
<polygon fill="midnightblue" stroke="midnightblue" points="172.51,-64.18 180.78,-57.55 170.18,-57.58 172.51,-64.18"/>
</g>
<!-- Node14 -->
<g id="node14" class="node">
<title>Node14</title>
<g id="a_node14"><a xlink:href="class_shader.html#a0c7f6034531e85b8581b71a24e183232" target="_top" xlink:title=" ">
<polygon fill="white" stroke="black" points="161.5,-0.5 161.5,-19.5 293.5,-19.5 293.5,-0.5 161.5,-0.5"/>
<text text-anchor="middle" x="227.5" y="-7.5" font-family="Helvetica,sans-Serif" font-size="10.00">Shader::makeDefinesCode</text>
</a>
</g>
</g>
<!-- Node1&#45;&gt;Node14 -->
<g id="edge15" class="edge">
<title>Node1&#45;&gt;Node14</title>
<path fill="none" stroke="midnightblue" d="M69.54,-136.98C83.4,-110.94 115.44,-57.46 158,-29 161.11,-26.92 164.44,-25.07 167.89,-23.42"/>
<polygon fill="midnightblue" stroke="midnightblue" points="169.4,-26.59 177.28,-19.51 166.7,-20.13 169.4,-26.59"/>
</g>
<!-- Node3 -->
<g id="node3" class="node">
<title>Node3</title>
<g id="a_node3"><a xlink:href="class_shader_program_compiler.html#a6ac22a7f73bd784c42f7c315d0bd0573" target="_top" xlink:title=" ">
<polygon fill="white" stroke="black" points="333,-290 333,-320 455,-320 455,-290 333,-290"/>
<text text-anchor="start" x="341" y="-308" font-family="Helvetica,sans-Serif" font-size="10.00">ShaderProgramCompiler</text>
<text text-anchor="middle" x="394" y="-297" font-family="Helvetica,sans-Serif" font-size="10.00">::compileShader</text>
</a>
</g>
</g>
<!-- Node2&#45;&gt;Node3 -->
<g id="edge2" class="edge">
<title>Node2&#45;&gt;Node3</title>
<path fill="none" stroke="midnightblue" d="M288.82,-305C299.84,-305 311.43,-305 322.71,-305"/>
<polygon fill="midnightblue" stroke="midnightblue" points="322.96,-308.5 332.96,-305 322.96,-301.5 322.96,-308.5"/>
</g>
<!-- Node5 -->
<g id="node5" class="node">
<title>Node5</title>
<g id="a_node5"><a xlink:href="class_shader_program_compiler.html#a00138214b02ebdfed1eb2d1757272bf1" target="_top" xlink:title=" ">
<polygon fill="white" stroke="black" points="333,-241 333,-271 455,-271 455,-241 333,-241"/>
<text text-anchor="start" x="341" y="-259" font-family="Helvetica,sans-Serif" font-size="10.00">ShaderProgramCompiler</text>
<text text-anchor="middle" x="394" y="-248" font-family="Helvetica,sans-Serif" font-size="10.00">::replaceIncludes</text>
</a>
</g>
</g>
<!-- Node2&#45;&gt;Node5 -->
<g id="edge4" class="edge">
<title>Node2&#45;&gt;Node5</title>
<path fill="none" stroke="midnightblue" d="M279.2,-289.9C296.16,-284.84 315.24,-279.16 332.86,-273.92"/>
<polygon fill="midnightblue" stroke="midnightblue" points="333.89,-277.26 342.47,-271.05 331.89,-270.55 333.89,-277.26"/>
</g>
<!-- Node4 -->
<g id="node4" class="node">
<title>Node4</title>
<g id="a_node4"><a xlink:href="class_shader_program_compiler.html#ac43a664df77428ba6bbb54be4e42b443" target="_top" xlink:title=" ">
<polygon fill="white" stroke="black" points="502.5,-290 502.5,-320 624.5,-320 624.5,-290 502.5,-290"/>
<text text-anchor="start" x="510.5" y="-308" font-family="Helvetica,sans-Serif" font-size="10.00">ShaderProgramCompiler</text>
<text text-anchor="middle" x="563.5" y="-297" font-family="Helvetica,sans-Serif" font-size="10.00">::printCode</text>
</a>
</g>
</g>
<!-- Node3&#45;&gt;Node4 -->
<g id="edge3" class="edge">
<title>Node3&#45;&gt;Node4</title>
<path fill="none" stroke="midnightblue" d="M455.47,-305C467.4,-305 480.02,-305 492.25,-305"/>
<polygon fill="midnightblue" stroke="midnightblue" points="492.4,-308.5 502.4,-305 492.4,-301.5 492.4,-308.5"/>
</g>
<!-- Node6 -->
<g id="node6" class="node">
<title>Node6</title>
<g id="a_node6"><a xlink:href="class_shader_chunk.html#a2aa72c90a348e244f66a2286d3992300" target="_top" xlink:title=" ">
<polygon fill="white" stroke="black" points="491,-211.5 491,-230.5 636,-230.5 636,-211.5 491,-211.5"/>
<text text-anchor="middle" x="563.5" y="-218.5" font-family="Helvetica,sans-Serif" font-size="10.00">ShaderChunk::getCodeChunk</text>
</a>
</g>
</g>
<!-- Node5&#45;&gt;Node6 -->
<g id="edge5" class="edge">
<title>Node5&#45;&gt;Node6</title>
<path fill="none" stroke="midnightblue" d="M455.47,-243.36C472.23,-239.86 490.35,-236.08 506.82,-232.63"/>
<polygon fill="midnightblue" stroke="midnightblue" points="507.77,-236.01 516.84,-230.54 506.34,-229.16 507.77,-236.01"/>
</g>
<!-- Node7 -->
<g id="node7" class="node">
<title>Node7</title>
<g id="a_node7"><a xlink:href="class_shader_chunk.html#a24c2b1bd2fa2adf692718b5b97cb33b5" target="_top" xlink:title=" ">
<polygon fill="white" stroke="black" points="498,-249.5 498,-268.5 629,-268.5 629,-249.5 498,-249.5"/>
<text text-anchor="middle" x="563.5" y="-256.5" font-family="Helvetica,sans-Serif" font-size="10.00">ShaderChunk::getInstance</text>
</a>
</g>
</g>
<!-- Node5&#45;&gt;Node7 -->
<g id="edge6" class="edge">
<title>Node5&#45;&gt;Node7</title>
<path fill="none" stroke="midnightblue" d="M455.47,-257.08C465.91,-257.27 476.87,-257.47 487.64,-257.66"/>
<polygon fill="midnightblue" stroke="midnightblue" points="487.81,-261.16 497.87,-257.84 487.94,-254.16 487.81,-261.16"/>
</g>
<!-- Node8&#45;&gt;Node3 -->
<g id="edge8" class="edge">
<title>Node8&#45;&gt;Node3</title>
<path fill="none" stroke="midnightblue" d="M279.2,-271.1C296.16,-276.16 315.24,-281.84 332.86,-287.08"/>
<polygon fill="midnightblue" stroke="midnightblue" points="331.89,-290.45 342.47,-289.95 333.89,-283.74 331.89,-290.45"/>
</g>
<!-- Node8&#45;&gt;Node5 -->
<g id="edge9" class="edge">
<title>Node8&#45;&gt;Node5</title>
<path fill="none" stroke="midnightblue" d="M288.82,-256C299.84,-256 311.43,-256 322.71,-256"/>
<polygon fill="midnightblue" stroke="midnightblue" points="322.96,-259.5 332.96,-256 322.96,-252.5 322.96,-259.5"/>
</g>
</g>
</svg>
