<?xml version="1.0" encoding="UTF-8" standalone="no"?>
<!DOCTYPE svg PUBLIC "-//W3C//DTD SVG 1.1//EN"
 "http://www.w3.org/Graphics/SVG/1.1/DTD/svg11.dtd">
<!-- Generated by graphviz version 2.44.1 (20200629.0846)
 -->
<!-- Title: VertexArray::execute Pages: 1 -->
<svg width="449pt" height="66pt"
 viewBox="0.00 0.00 449.00 66.00" xmlns="http://www.w3.org/2000/svg" xmlns:xlink="http://www.w3.org/1999/xlink">
<g id="graph0" class="graph" transform="scale(1 1) rotate(0) translate(4 62)">
<title>VertexArray::execute</title>
<polygon fill="white" stroke="transparent" points="-4,4 -4,-62 445,-62 445,4 -4,4"/>
<!-- Node1 -->
<g id="node1" class="node">
<title>Node1</title>
<g id="a_node1"><a xlink:title=" ">
<polygon fill="#bfbfbf" stroke="black" points="332,-19.5 332,-38.5 441,-38.5 441,-19.5 332,-19.5"/>
<text text-anchor="middle" x="386.5" y="-26.5" font-family="Helvetica,sans-Serif" font-size="10.00">VertexArray::execute</text>
</a>
</g>
</g>
<!-- Node2 -->
<g id="node2" class="node">
<title>Node2</title>
<g id="a_node2"><a xlink:href="class_base_object.html#ac78b5f4ad8069c91337483eddcca539b" target="_top" xlink:title=" ">
<polygon fill="white" stroke="black" points="188,-38.5 188,-57.5 282,-57.5 282,-38.5 188,-38.5"/>
<text text-anchor="middle" x="235" y="-45.5" font-family="Helvetica,sans-Serif" font-size="10.00">BaseObject::draw</text>
</a>
</g>
</g>
<!-- Node1&#45;&gt;Node2 -->
<g id="edge1" class="edge">
<title>Node1&#45;&gt;Node2</title>
<path fill="none" stroke="midnightblue" d="M321.89,-37.08C308.58,-38.78 294.79,-40.53 282.25,-42.12"/>
<polygon fill="midnightblue" stroke="midnightblue" points="322.47,-40.54 331.95,-35.81 321.59,-33.59 322.47,-40.54"/>
</g>
<!-- Node4 -->
<g id="node4" class="node">
<title>Node4</title>
<g id="a_node4"><a xlink:href="class_base_object.html#af3cb04a275093f0128f6d5b65f4d1e43" target="_top" xlink:title=" ">
<polygon fill="white" stroke="black" points="174,-0.5 174,-19.5 296,-19.5 296,-0.5 174,-0.5"/>
<text text-anchor="middle" x="235" y="-7.5" font-family="Helvetica,sans-Serif" font-size="10.00">BaseObject::shapeDraw</text>
</a>
</g>
</g>
<!-- Node1&#45;&gt;Node4 -->
<g id="edge3" class="edge">
<title>Node1&#45;&gt;Node4</title>
<path fill="none" stroke="midnightblue" d="M321.97,-20.93C313.37,-19.83 304.57,-18.71 296.03,-17.63"/>
<polygon fill="midnightblue" stroke="midnightblue" points="321.59,-24.41 331.95,-22.19 322.47,-17.46 321.59,-24.41"/>
</g>
<!-- Node3 -->
<g id="node3" class="node">
<title>Node3</title>
<g id="a_node3"><a xlink:href="class_main_renderer.html#aa9f1a22299240e8783683dbd759b1182" target="_top" xlink:title=" ">
<polygon fill="white" stroke="black" points="0,-38.5 0,-57.5 138,-57.5 138,-38.5 0,-38.5"/>
<text text-anchor="middle" x="69" y="-45.5" font-family="Helvetica,sans-Serif" font-size="10.00">MainRenderer::drawInScene</text>
</a>
</g>
</g>
<!-- Node2&#45;&gt;Node3 -->
<g id="edge2" class="edge">
<title>Node2&#45;&gt;Node3</title>
<path fill="none" stroke="midnightblue" d="M177.85,-48C165.07,-48 151.34,-48 138.12,-48"/>
<polygon fill="midnightblue" stroke="midnightblue" points="177.88,-51.5 187.88,-48 177.88,-44.5 177.88,-51.5"/>
</g>
</g>
</svg>
