<?xml version="1.0" encoding="UTF-8" standalone="no"?>
<!DOCTYPE svg PUBLIC "-//W3C//DTD SVG 1.1//EN"
 "http://www.w3.org/Graphics/SVG/1.1/DTD/svg11.dtd">
<!-- Generated by graphviz version 2.40.1 (20161225.0304)
 -->
<!-- Title: OpenGLContext::OpenGLContext Pages: 1 -->
<svg width="877pt" height="355pt"
 viewBox="0.00 0.00 877.00 355.00" xmlns="http://www.w3.org/2000/svg" xmlns:xlink="http://www.w3.org/1999/xlink">
<g id="graph0" class="graph" transform="scale(1 1) rotate(0) translate(4 351)">
<title>OpenGLContext::OpenGLContext</title>
<polygon fill="#ffffff" stroke="transparent" points="-4,4 -4,-351 873,-351 873,4 -4,4"/>
<!-- Node0 -->
<g id="node1" class="node">
<title>Node0</title>
<polygon fill="#bfbfbf" stroke="#000000" points="0,-240 0,-259 164,-259 164,-240 0,-240"/>
<text text-anchor="middle" x="82" y="-247" font-family="Helvetica,sans-Serif" font-size="10.00" fill="#000000">OpenGLContext::OpenGLContext</text>
</g>
<!-- Node1 -->
<g id="node2" class="node">
<title>Node1</title>
<g id="a_node2"><a xlink:href="class_open_g_l_context.html#a931f484e8171a7bc3124d88c79af724a" target="_top" xlink:title="GLFW framebuffer size update callback. ">
<polygon fill="#ffffff" stroke="#000000" points="200,-316.5 200,-346.5 343,-346.5 343,-316.5 200,-316.5"/>
<text text-anchor="start" x="208" y="-334.5" font-family="Helvetica,sans-Serif" font-size="10.00" fill="#000000">OpenGLContext::framebuffer</text>
<text text-anchor="middle" x="271.5" y="-323.5" font-family="Helvetica,sans-Serif" font-size="10.00" fill="#000000">SizeCallback</text>
</a>
</g>
</g>
<!-- Node0&#45;&gt;Node1 -->
<g id="edge1" class="edge">
<title>Node0&#45;&gt;Node1</title>
<path fill="none" stroke="#191970" d="M103.2672,-259.0082C126.8559,-269.5225 166.0667,-286.9056 200,-301.5 208.2661,-305.0552 217.0902,-308.7991 225.6174,-312.3908"/>
<polygon fill="#191970" stroke="#191970" points="224.4979,-315.7168 235.0731,-316.3632 227.2092,-309.2632 224.4979,-315.7168"/>
</g>
<!-- Node2 -->
<g id="node3" class="node">
<title>Node2</title>
<g id="a_node3"><a xlink:href="class_open_g_l_context.html#a0e507940d976e0bacfaf734ef177b3b7" target="_top" xlink:title="OpenGLContext::runningContexts">
<polygon fill="#ffffff" stroke="#000000" points="379,-300 379,-319 543,-319 543,-300 379,-300"/>
<text text-anchor="middle" x="461" y="-307" font-family="Helvetica,sans-Serif" font-size="10.00" fill="#000000">OpenGLContext::runningContexts</text>
</a>
</g>
</g>
<!-- Node0&#45;&gt;Node2 -->
<g id="edge19" class="edge">
<title>Node0&#45;&gt;Node2</title>
<path fill="none" stroke="#191970" d="M140.8134,-259.0154C159.7109,-262.0607 180.7372,-265.4362 200,-268.5 264.3661,-278.7375 337.6881,-290.2416 390.1942,-298.4523"/>
<polygon fill="#191970" stroke="#191970" points="389.6582,-301.911 400.0788,-299.9976 390.7394,-294.995 389.6582,-301.911"/>
</g>
<!-- Node4 -->
<g id="node5" class="node">
<title>Node4</title>
<g id="a_node5"><a xlink:href="_open_g_l_context_8cpp.html#ae9f4b850e6ccff72bf6da71038d9687f" target="_top" xlink:title="errorCallback">
<polygon fill="#ffffff" stroke="#000000" points="234.5,-240 234.5,-259 308.5,-259 308.5,-240 234.5,-240"/>
<text text-anchor="middle" x="271.5" y="-247" font-family="Helvetica,sans-Serif" font-size="10.00" fill="#000000">errorCallback</text>
</a>
</g>
</g>
<!-- Node0&#45;&gt;Node4 -->
<g id="edge4" class="edge">
<title>Node0&#45;&gt;Node4</title>
<path fill="none" stroke="#191970" d="M164.0153,-249.5C184.5133,-249.5 205.8212,-249.5 224.0071,-249.5"/>
<polygon fill="#191970" stroke="#191970" points="224.0432,-253.0001 234.0432,-249.5 224.0432,-246.0001 224.0432,-253.0001"/>
</g>
<!-- Node5 -->
<g id="node6" class="node">
<title>Node5</title>
<g id="a_node6"><a xlink:href="_open_g_l_context_8cpp.html#af833243b97061a22e702b3b11a7b647c" target="_top" xlink:title="glDebugOutput">
<polygon fill="#ffffff" stroke="#000000" points="230.5,-202 230.5,-221 312.5,-221 312.5,-202 230.5,-202"/>
<text text-anchor="middle" x="271.5" y="-209" font-family="Helvetica,sans-Serif" font-size="10.00" fill="#000000">glDebugOutput</text>
</a>
</g>
</g>
<!-- Node0&#45;&gt;Node5 -->
<g id="edge5" class="edge">
<title>Node0&#45;&gt;Node5</title>
<path fill="none" stroke="#191970" d="M129.8189,-239.911C157.4543,-234.3693 192.2159,-227.3987 220.3903,-221.7489"/>
<polygon fill="#191970" stroke="#191970" points="221.3303,-225.1302 230.447,-219.7323 219.954,-218.2668 221.3303,-225.1302"/>
</g>
<!-- Node6 -->
<g id="node7" class="node">
<title>Node6</title>
<g id="a_node7"><a xlink:href="class_player_input.html#ac4b822917a8be991362091d2da7883e8" target="_top" xlink:title="PlayerInput::tryMakeInput">
<polygon fill="#ffffff" stroke="#000000" points="207,-164 207,-183 336,-183 336,-164 207,-164"/>
<text text-anchor="middle" x="271.5" y="-171" font-family="Helvetica,sans-Serif" font-size="10.00" fill="#000000">PlayerInput::tryMakeInput</text>
</a>
</g>
</g>
<!-- Node0&#45;&gt;Node6 -->
<g id="edge6" class="edge">
<title>Node0&#45;&gt;Node6</title>
<path fill="none" stroke="#191970" d="M99.1389,-239.9357C121.7068,-227.6443 162.8798,-206.2549 200,-192.5 206.4735,-190.1012 213.3806,-187.8722 220.2539,-185.8473"/>
<polygon fill="#191970" stroke="#191970" points="221.5701,-189.1128 230.2454,-183.0308 219.6708,-182.3753 221.5701,-189.1128"/>
</g>
<!-- Node1&#45;&gt;Node2 -->
<g id="edge2" class="edge">
<title>Node1&#45;&gt;Node2</title>
<path fill="none" stroke="#191970" d="M343.1418,-323.1827C351.5791,-322.2032 360.2767,-321.1935 368.9442,-320.1872"/>
<polygon fill="#191970" stroke="#191970" points="369.5583,-323.6395 379.0879,-319.0096 368.751,-316.6862 369.5583,-323.6395"/>
</g>
<!-- Node3 -->
<g id="node4" class="node">
<title>Node3</title>
<g id="a_node4"><a xlink:href="_window_8cpp.html#a09882d71c70e402a1d6179c914a001c2" target="_top" xlink:title="framebufferSizeCallback">
<polygon fill="#ffffff" stroke="#000000" points="588,-300 588,-319 712,-319 712,-300 588,-300"/>
<text text-anchor="middle" x="650" y="-307" font-family="Helvetica,sans-Serif" font-size="10.00" fill="#000000">framebufferSizeCallback</text>
</a>
</g>
</g>
<!-- Node2&#45;&gt;Node3 -->
<g id="edge3" class="edge">
<title>Node2&#45;&gt;Node3</title>
<path fill="none" stroke="#191970" d="M543.0736,-309.5C554.5907,-309.5 566.3583,-309.5 577.6762,-309.5"/>
<polygon fill="#191970" stroke="#191970" points="577.9237,-313.0001 587.9236,-309.5 577.9236,-306.0001 577.9237,-313.0001"/>
</g>
<!-- Node7 -->
<g id="node8" class="node">
<title>Node7</title>
<g id="a_node8"><a xlink:href="class_player_input.html#a41e31d5aa4a11ed2a3058e31210d5109" target="_top" xlink:title="The map of GLFW windows to their associated PlayerInput instances. ">
<polygon fill="#ffffff" stroke="#000000" points="757,-126 757,-145 869,-145 869,-126 757,-126"/>
<text text-anchor="middle" x="813" y="-133" font-family="Helvetica,sans-Serif" font-size="10.00" fill="#000000">PlayerInput::inputMap</text>
</a>
</g>
</g>
<!-- Node6&#45;&gt;Node7 -->
<g id="edge7" class="edge">
<title>Node6&#45;&gt;Node7</title>
<path fill="none" stroke="#191970" d="M319.0617,-183.0098C419.1428,-202.1844 648.2523,-241.4481 721,-214.5 754.0182,-202.269 783.1616,-172.3001 799.4001,-152.991"/>
<polygon fill="#191970" stroke="#191970" points="802.1342,-155.1763 805.7321,-145.2111 796.7051,-150.7576 802.1342,-155.1763"/>
</g>
<!-- Node8 -->
<g id="node9" class="node">
<title>Node8</title>
<g id="a_node9"><a xlink:href="class_player_input.html#ac7e7f65b22d437bc66ac1eaeb91c0d99" target="_top" xlink:title="PlayerInput::PlayerInput">
<polygon fill="#ffffff" stroke="#000000" points="400,-126 400,-145 522,-145 522,-126 400,-126"/>
<text text-anchor="middle" x="461" y="-133" font-family="Helvetica,sans-Serif" font-size="10.00" fill="#000000">PlayerInput::PlayerInput</text>
</a>
</g>
</g>
<!-- Node6&#45;&gt;Node8 -->
<g id="edge8" class="edge">
<title>Node6&#45;&gt;Node8</title>
<path fill="none" stroke="#191970" d="M319.3189,-163.911C344.8886,-158.7835 376.559,-152.4328 403.4678,-147.0368"/>
<polygon fill="#191970" stroke="#191970" points="404.4084,-150.4179 413.525,-145.0201 403.032,-143.5546 404.4084,-150.4179"/>
</g>
<!-- Node9 -->
<g id="node10" class="node">
<title>Node9</title>
<g id="a_node10"><a xlink:href="class_player_input.html#afb9d2e949dbd3d69c36e5d5519e43824" target="_top" xlink:title="PlayerInput::handleKeyInput">
<polygon fill="#ffffff" stroke="#000000" points="580,-186 580,-205 720,-205 720,-186 580,-186"/>
<text text-anchor="middle" x="650" y="-193" font-family="Helvetica,sans-Serif" font-size="10.00" fill="#000000">PlayerInput::handleKeyInput</text>
</a>
</g>
</g>
<!-- Node8&#45;&gt;Node9 -->
<g id="edge9" class="edge">
<title>Node8&#45;&gt;Node9</title>
<path fill="none" stroke="#191970" d="M486.6032,-145.0019C510.3859,-153.6832 546.8654,-166.632 579,-176.5 586.5475,-178.8177 594.5942,-181.125 602.458,-183.2915"/>
<polygon fill="#191970" stroke="#191970" points="601.7022,-186.7129 612.2695,-185.9506 603.5333,-179.9566 601.7022,-186.7129"/>
</g>
<!-- Node10 -->
<g id="node11" class="node">
<title>Node10</title>
<g id="a_node11"><a xlink:href="class_player_input.html#af99688e0116feca7e153e551a056fd24" target="_top" xlink:title="PlayerInput::handleTextInput">
<polygon fill="#ffffff" stroke="#000000" points="579,-148 579,-167 721,-167 721,-148 579,-148"/>
<text text-anchor="middle" x="650" y="-155" font-family="Helvetica,sans-Serif" font-size="10.00" fill="#000000">PlayerInput::handleTextInput</text>
</a>
</g>
</g>
<!-- Node8&#45;&gt;Node10 -->
<g id="edge11" class="edge">
<title>Node8&#45;&gt;Node10</title>
<path fill="none" stroke="#191970" d="M522.1019,-142.6124C536.9649,-144.3425 553.0929,-146.2198 568.7281,-148.0398"/>
<polygon fill="#191970" stroke="#191970" points="568.5756,-151.5456 578.9133,-149.2254 569.385,-144.5925 568.5756,-151.5456"/>
</g>
<!-- Node11 -->
<g id="node12" class="node">
<title>Node11</title>
<g id="a_node12"><a xlink:href="class_player_input.html#a1159455dba7ecb31c935c4a51afb15c7" target="_top" xlink:title="PlayerInput::handleCursor\lPosition">
<polygon fill="#ffffff" stroke="#000000" points="585,-98.5 585,-128.5 715,-128.5 715,-98.5 585,-98.5"/>
<text text-anchor="start" x="593" y="-116.5" font-family="Helvetica,sans-Serif" font-size="10.00" fill="#000000">PlayerInput::handleCursor</text>
<text text-anchor="middle" x="650" y="-105.5" font-family="Helvetica,sans-Serif" font-size="10.00" fill="#000000">Position</text>
</a>
</g>
</g>
<!-- Node8&#45;&gt;Node11 -->
<g id="edge13" class="edge">
<title>Node8&#45;&gt;Node11</title>
<path fill="none" stroke="#191970" d="M522.1019,-128.3876C538.8708,-126.4357 557.25,-124.2963 574.7149,-122.2633"/>
<polygon fill="#191970" stroke="#191970" points="575.345,-125.7137 584.8732,-121.0809 574.5356,-118.7607 575.345,-125.7137"/>
</g>
<!-- Node12 -->
<g id="node13" class="node">
<title>Node12</title>
<g id="a_node13"><a xlink:href="class_player_input.html#aba00f66210c0c6569823c25afda4a5da" target="_top" xlink:title="PlayerInput::handleMouse\lButtonInput">
<polygon fill="#ffffff" stroke="#000000" points="585,-49.5 585,-79.5 715,-79.5 715,-49.5 585,-49.5"/>
<text text-anchor="start" x="593" y="-67.5" font-family="Helvetica,sans-Serif" font-size="10.00" fill="#000000">PlayerInput::handleMouse</text>
<text text-anchor="middle" x="650" y="-56.5" font-family="Helvetica,sans-Serif" font-size="10.00" fill="#000000">ButtonInput</text>
</a>
</g>
</g>
<!-- Node8&#45;&gt;Node12 -->
<g id="edge15" class="edge">
<title>Node8&#45;&gt;Node12</title>
<path fill="none" stroke="#191970" d="M484.8673,-125.9279C508.6403,-116.457 546.2211,-101.6562 579,-89.5 584.7894,-87.353 590.8604,-85.1468 596.9119,-82.9765"/>
<polygon fill="#191970" stroke="#191970" points="598.1168,-86.2628 606.3619,-79.6093 595.7672,-79.6689 598.1168,-86.2628"/>
</g>
<!-- Node13 -->
<g id="node14" class="node">
<title>Node13</title>
<g id="a_node14"><a xlink:href="class_player_input.html#a48150e7bcc0b23258071f59ff2636590" target="_top" xlink:title="PlayerInput::handleScroll\lInput">
<polygon fill="#ffffff" stroke="#000000" points="587.5,-.5 587.5,-30.5 712.5,-30.5 712.5,-.5 587.5,-.5"/>
<text text-anchor="start" x="595.5" y="-18.5" font-family="Helvetica,sans-Serif" font-size="10.00" fill="#000000">PlayerInput::handleScroll</text>
<text text-anchor="middle" x="650" y="-7.5" font-family="Helvetica,sans-Serif" font-size="10.00" fill="#000000">Input</text>
</a>
</g>
</g>
<!-- Node8&#45;&gt;Node13 -->
<g id="edge17" class="edge">
<title>Node8&#45;&gt;Node13</title>
<path fill="none" stroke="#191970" d="M470.5678,-125.8512C489.6442,-107.0824 534.4256,-65.3276 579,-40.5 582.7247,-38.4254 586.6532,-36.4735 590.673,-34.6468"/>
<polygon fill="#191970" stroke="#191970" points="592.3309,-37.7452 600.1654,-30.6127 589.5931,-31.3028 592.3309,-37.7452"/>
</g>
<!-- Node9&#45;&gt;Node7 -->
<g id="edge10" class="edge">
<title>Node9&#45;&gt;Node7</title>
<path fill="none" stroke="#191970" d="M690.1434,-185.9402C700.3078,-183.1975 711.1369,-179.9929 721,-176.5 742.8354,-168.7673 766.7071,-158.0591 784.661,-149.5252"/>
<polygon fill="#191970" stroke="#191970" points="786.4841,-152.5321 793.976,-145.0406 783.4476,-146.2249 786.4841,-152.5321"/>
</g>
<!-- Node10&#45;&gt;Node7 -->
<g id="edge12" class="edge">
<title>Node10&#45;&gt;Node7</title>
<path fill="none" stroke="#191970" d="M720.5462,-147.9784C729.204,-146.8099 738.0297,-145.6187 746.623,-144.4589"/>
<polygon fill="#191970" stroke="#191970" points="747.1381,-147.9212 756.5801,-143.115 746.2017,-140.9841 747.1381,-147.9212"/>
</g>
<!-- Node11&#45;&gt;Node7 -->
<g id="edge14" class="edge">
<title>Node11&#45;&gt;Node7</title>
<path fill="none" stroke="#191970" d="M715.3591,-122.3215C725.6554,-123.7112 736.3097,-125.1492 746.6287,-126.5419"/>
<polygon fill="#191970" stroke="#191970" points="746.4318,-130.047 756.8102,-127.9161 747.3682,-123.1099 746.4318,-130.047"/>
</g>
<!-- Node12&#45;&gt;Node7 -->
<g id="edge16" class="edge">
<title>Node12&#45;&gt;Node7</title>
<path fill="none" stroke="#191970" d="M695.3964,-79.5319C703.9745,-82.6402 712.8189,-86.0305 721,-89.5 743.5397,-99.0589 768.3242,-111.5728 786.4842,-121.1349"/>
<polygon fill="#191970" stroke="#191970" points="784.8568,-124.2336 795.33,-125.8349 788.1414,-118.052 784.8568,-124.2336"/>
</g>
<!-- Node13&#45;&gt;Node7 -->
<g id="edge18" class="edge">
<title>Node13&#45;&gt;Node7</title>
<path fill="none" stroke="#191970" d="M701.7581,-30.5192C708.465,-33.378 715.0588,-36.6919 721,-40.5 753.8119,-61.5313 783.5604,-96.4414 799.8813,-117.5775"/>
<polygon fill="#191970" stroke="#191970" points="797.2044,-119.8406 806.0236,-125.7119 802.7907,-115.6223 797.2044,-119.8406"/>
</g>
</g>
</svg>
