<?xml version="1.0" encoding="UTF-8" standalone="no"?>
<!DOCTYPE svg PUBLIC "-//W3C//DTD SVG 1.1//EN"
 "http://www.w3.org/Graphics/SVG/1.1/DTD/svg11.dtd">
<!-- Generated by graphviz version 2.40.1 (20161225.0304)
 -->
<!-- Title: Mesh Pages: 1 -->
<svg width="196pt" height="95pt"
 viewBox="0.00 0.00 196.00 95.00" xmlns="http://www.w3.org/2000/svg" xmlns:xlink="http://www.w3.org/1999/xlink">
<g id="graph0" class="graph" transform="scale(1 1) rotate(0) translate(4 91)">
<title>Mesh</title>
<polygon fill="#ffffff" stroke="transparent" points="-4,4 -4,-91 192,-91 192,4 -4,4"/>
<!-- Node2 -->
<g id="node1" class="node">
<title>Node2</title>
<polygon fill="#bfbfbf" stroke="#000000" points="0,-.5 0,-19.5 41,-19.5 41,-.5 0,-.5"/>
<text text-anchor="middle" x="20.5" y="-7.5" font-family="Helvetica,sans-Serif" font-size="10.00" fill="#000000">Mesh</text>
</g>
<!-- Node3 -->
<g id="node2" class="node">
<title>Node3</title>
<g id="a_node2"><a xlink:href="class_transform.html" target="_top" xlink:title="Transform">
<polygon fill="#ffffff" stroke="#000000" points="27,-67.5 27,-86.5 88,-86.5 88,-67.5 27,-67.5"/>
<text text-anchor="middle" x="57.5" y="-74.5" font-family="Helvetica,sans-Serif" font-size="10.00" fill="#000000">Transform</text>
</a>
</g>
</g>
<!-- Node3&#45;&gt;Node2 -->
<g id="edge1" class="edge">
<title>Node3&#45;&gt;Node2</title>
<path fill="none" stroke="#191970" d="M42.3277,-59.3049C39.866,-55.9986 37.479,-52.484 35.5,-49 30.1256,-39.5383 25.8995,-27.7749 23.3211,-19.6556"/>
<polygon fill="#191970" stroke="#191970" points="39.8175,-61.7709 48.789,-67.4068 45.2903,-57.4063 39.8175,-61.7709"/>
</g>
<!-- Node3&#45;&gt;Node3 -->
<g id="edge4" class="edge">
<title>Node3&#45;&gt;Node3</title>
<path fill="none" stroke="#9a32cd" stroke-dasharray="5,2" d="M98.5828,-82.0393C103.0914,-81.0792 106,-79.3994 106,-77 106,-73.0625 98.1673,-71.063 88.2846,-71.0015"/>
<polygon fill="#9a32cd" stroke="#9a32cd" points="97.9169,-78.5861 88.2846,-82.9985 98.5662,-85.5559 97.9169,-78.5861"/>
<text text-anchor="middle" x="121.5" y="-74.5" font-family="Helvetica,sans-Serif" font-size="10.00" fill="#000000"> parent</text>
</g>
<!-- Node4 -->
<g id="node3" class="node">
<title>Node4</title>
<polygon fill="#ffffff" stroke="#bfbfbf" points="59,-.5 59,-19.5 188,-19.5 188,-.5 59,-.5"/>
<text text-anchor="middle" x="123.5" y="-7.5" font-family="Helvetica,sans-Serif" font-size="10.00" fill="#000000">std::vector&lt; Transform *&gt;</text>
</g>
<!-- Node3&#45;&gt;Node4 -->
<g id="edge3" class="edge">
<title>Node3&#45;&gt;Node4</title>
<path fill="none" stroke="#9a32cd" stroke-dasharray="5,2" d="M51.321,-57.6908C50.3274,-50.9687 50.6666,-43.6926 54.5,-38 60.1324,-29.6359 68.7382,-23.7693 77.9825,-19.6548"/>
<polygon fill="#9a32cd" stroke="#9a32cd" points="47.9353,-58.5815 53.6687,-67.491 54.7427,-56.9507 47.9353,-58.5815"/>
<text text-anchor="middle" x="76" y="-41" font-family="Helvetica,sans-Serif" font-size="10.00" fill="#000000"> elements</text>
</g>
<!-- Node4&#45;&gt;Node3 -->
<g id="edge2" class="edge">
<title>Node4&#45;&gt;Node3</title>
<path fill="none" stroke="#9a32cd" stroke-dasharray="5,2" d="M115.2709,-28.821C111.6891,-35.6738 107.0345,-43.1634 101.5,-49 94.5222,-56.3587 85.2281,-62.6379 76.9801,-67.3737"/>
<polygon fill="#9a32cd" stroke="#9a32cd" points="118.5703,-30.0343 119.7286,-19.503 112.2557,-27.0134 118.5703,-30.0343"/>
<text text-anchor="middle" x="128" y="-41" font-family="Helvetica,sans-Serif" font-size="10.00" fill="#000000"> children</text>
</g>
</g>
</svg>
