<?xml version="1.0" encoding="UTF-8" standalone="no"?>
<!DOCTYPE svg PUBLIC "-//W3C//DTD SVG 1.1//EN"
 "http://www.w3.org/Graphics/SVG/1.1/DTD/svg11.dtd">
<!-- Generated by graphviz version 2.44.1 (20200629.0846)
 -->
<!-- Title: DirectionalShadowMapRendering::drawInScene Pages: 1 -->
<svg width="503pt" height="256pt"
 viewBox="0.00 0.00 503.00 256.00" xmlns="http://www.w3.org/2000/svg" xmlns:xlink="http://www.w3.org/1999/xlink">
<g id="graph0" class="graph" transform="scale(1 1) rotate(0) translate(4 252)">
<title>DirectionalShadowMapRendering::drawInScene</title>
<polygon fill="white" stroke="transparent" points="-4,4 -4,-252 499,-252 499,4 -4,4"/>
<!-- Node1 -->
<g id="node1" class="node">
<title>Node1</title>
<g id="a_node1"><a xlink:title=" ">
<polygon fill="#bfbfbf" stroke="black" points="0,-109 0,-139 159,-139 159,-109 0,-109"/>
<text text-anchor="start" x="8" y="-127" font-family="Helvetica,sans-Serif" font-size="10.00">DirectionalShadowMapRendering</text>
<text text-anchor="middle" x="79.5" y="-116" font-family="Helvetica,sans-Serif" font-size="10.00">::drawInScene</text>
</a>
</g>
</g>
<!-- Node2 -->
<g id="node2" class="node">
<title>Node2</title>
<g id="a_node2"><a xlink:href="class_base_object.html#a601e7060be6c6bf1b069a123d7875dda" target="_top" xlink:title=" ">
<polygon fill="white" stroke="black" points="213.5,-228.5 213.5,-247.5 331.5,-247.5 331.5,-228.5 213.5,-228.5"/>
<text text-anchor="middle" x="272.5" y="-235.5" font-family="Helvetica,sans-Serif" font-size="10.00">BaseObject::getShader</text>
</a>
</g>
</g>
<!-- Node1&#45;&gt;Node2 -->
<g id="edge1" class="edge">
<title>Node1&#45;&gt;Node2</title>
<path fill="none" stroke="midnightblue" d="M94.48,-139.31C114.64,-160.43 153.97,-198.26 195,-219 199.61,-221.33 204.53,-223.39 209.57,-225.2"/>
<polygon fill="midnightblue" stroke="midnightblue" points="208.74,-228.62 219.33,-228.4 210.92,-221.96 208.74,-228.62"/>
</g>
<!-- Node3 -->
<g id="node3" class="node">
<title>Node3</title>
<g id="a_node3"><a xlink:href="class_base_object.html#a06606b68fe581848e9e199ea1db6fcee" target="_top" xlink:title=" ">
<polygon fill="white" stroke="black" points="195,-190.5 195,-209.5 350,-209.5 350,-190.5 195,-190.5"/>
<text text-anchor="middle" x="272.5" y="-197.5" font-family="Helvetica,sans-Serif" font-size="10.00">BaseObject::getShadowCasting</text>
</a>
</g>
</g>
<!-- Node1&#45;&gt;Node3 -->
<g id="edge2" class="edge">
<title>Node1&#45;&gt;Node3</title>
<path fill="none" stroke="midnightblue" d="M106.6,-139.06C129.35,-151.67 163.53,-169.42 195,-181 201.8,-183.5 209.06,-185.78 216.29,-187.82"/>
<polygon fill="midnightblue" stroke="midnightblue" points="215.54,-191.25 226.1,-190.46 217.35,-184.49 215.54,-191.25"/>
</g>
<!-- Node4 -->
<g id="node4" class="node">
<title>Node4</title>
<g id="a_node4"><a xlink:href="class_shader.html#a0e4233f8c77b4d0a4f2e52f4e1d100bf" target="_top" xlink:title=" ">
<polygon fill="white" stroke="black" points="226.5,-152.5 226.5,-171.5 318.5,-171.5 318.5,-152.5 226.5,-152.5"/>
<text text-anchor="middle" x="272.5" y="-159.5" font-family="Helvetica,sans-Serif" font-size="10.00">Shader::resetUse</text>
</a>
</g>
</g>
<!-- Node1&#45;&gt;Node4 -->
<g id="edge3" class="edge">
<title>Node1&#45;&gt;Node4</title>
<path fill="none" stroke="midnightblue" d="M155.99,-139.02C176.14,-143.03 197.54,-147.29 216.37,-151.03"/>
<polygon fill="midnightblue" stroke="midnightblue" points="215.76,-154.48 226.25,-153 217.13,-147.61 215.76,-154.48"/>
</g>
<!-- Node5 -->
<g id="node5" class="node">
<title>Node5</title>
<g id="a_node5"><a xlink:href="class_base_object.html#aefcb48ab5abddb59921e84487334430d" target="_top" xlink:title=" ">
<polygon fill="white" stroke="black" points="213.5,-114.5 213.5,-133.5 331.5,-133.5 331.5,-114.5 213.5,-114.5"/>
<text text-anchor="middle" x="272.5" y="-121.5" font-family="Helvetica,sans-Serif" font-size="10.00">BaseObject::setShader</text>
</a>
</g>
</g>
<!-- Node1&#45;&gt;Node5 -->
<g id="edge4" class="edge">
<title>Node1&#45;&gt;Node5</title>
<path fill="none" stroke="midnightblue" d="M159.01,-124C173.67,-124 188.87,-124 203.19,-124"/>
<polygon fill="midnightblue" stroke="midnightblue" points="203.44,-127.5 213.44,-124 203.44,-120.5 203.44,-127.5"/>
</g>
<!-- Node6 -->
<g id="node6" class="node">
<title>Node6</title>
<g id="a_node6"><a xlink:href="class_shader.html#a810238d7b925c90a6495b6c25ffdb568" target="_top" xlink:title=" ">
<polygon fill="white" stroke="black" points="390.5,-76.5 390.5,-95.5 490.5,-95.5 490.5,-76.5 390.5,-76.5"/>
<text text-anchor="middle" x="440.5" y="-83.5" font-family="Helvetica,sans-Serif" font-size="10.00">Shader::setUniform</text>
</a>
</g>
</g>
<!-- Node1&#45;&gt;Node6 -->
<g id="edge5" class="edge">
<title>Node1&#45;&gt;Node6</title>
<path fill="none" stroke="midnightblue" d="M159.21,-110.02C171.18,-108.16 183.4,-106.41 195,-105 257.94,-97.35 330.38,-92.17 379.98,-89.18"/>
<polygon fill="midnightblue" stroke="midnightblue" points="380.43,-92.66 390.2,-88.57 380.01,-85.67 380.43,-92.66"/>
</g>
<!-- Node7 -->
<g id="node7" class="node">
<title>Node7</title>
<g id="a_node7"><a xlink:href="class_base_object.html#af3cb04a275093f0128f6d5b65f4d1e43" target="_top" xlink:title=" ">
<polygon fill="white" stroke="black" points="211.5,-38.5 211.5,-57.5 333.5,-57.5 333.5,-38.5 211.5,-38.5"/>
<text text-anchor="middle" x="272.5" y="-45.5" font-family="Helvetica,sans-Serif" font-size="10.00">BaseObject::shapeDraw</text>
</a>
</g>
</g>
<!-- Node1&#45;&gt;Node7 -->
<g id="edge6" class="edge">
<title>Node1&#45;&gt;Node7</title>
<path fill="none" stroke="midnightblue" d="M111.17,-108.83C133.98,-97.86 166.04,-83.07 195,-72 205.65,-67.93 217.32,-64 228.26,-60.55"/>
<polygon fill="midnightblue" stroke="midnightblue" points="229.54,-63.82 238.06,-57.52 227.47,-57.13 229.54,-63.82"/>
</g>
<!-- Node9 -->
<g id="node9" class="node">
<title>Node9</title>
<g id="a_node9"><a xlink:href="class_shader.html#a870fa9f13d69e558815d6fd351a469dc" target="_top" xlink:title=" ">
<polygon fill="white" stroke="black" points="238,-0.5 238,-19.5 307,-19.5 307,-0.5 238,-0.5"/>
<text text-anchor="middle" x="272.5" y="-7.5" font-family="Helvetica,sans-Serif" font-size="10.00">Shader::use</text>
</a>
</g>
</g>
<!-- Node1&#45;&gt;Node9 -->
<g id="edge9" class="edge">
<title>Node1&#45;&gt;Node9</title>
<path fill="none" stroke="midnightblue" d="M94.48,-108.69C114.64,-87.57 153.97,-49.74 195,-29 205.19,-23.85 216.87,-20.04 227.98,-17.24"/>
<polygon fill="midnightblue" stroke="midnightblue" points="229,-20.59 237.96,-14.94 227.43,-13.77 229,-20.59"/>
</g>
<!-- Node7&#45;&gt;Node6 -->
<g id="edge8" class="edge">
<title>Node7&#45;&gt;Node6</title>
<path fill="none" stroke="midnightblue" d="M315.39,-57.59C337.39,-62.63 364.55,-68.84 387.85,-74.18"/>
<polygon fill="midnightblue" stroke="midnightblue" points="387.38,-77.66 397.91,-76.48 388.95,-70.84 387.38,-77.66"/>
</g>
<!-- Node8 -->
<g id="node8" class="node">
<title>Node8</title>
<g id="a_node8"><a xlink:href="class_vertex_array.html#acbd3f02e554fa827be46baf96d8bdabc" target="_top" xlink:title=" ">
<polygon fill="white" stroke="black" points="386,-38.5 386,-57.5 495,-57.5 495,-38.5 386,-38.5"/>
<text text-anchor="middle" x="440.5" y="-45.5" font-family="Helvetica,sans-Serif" font-size="10.00">VertexArray::execute</text>
</a>
</g>
</g>
<!-- Node7&#45;&gt;Node8 -->
<g id="edge7" class="edge">
<title>Node7&#45;&gt;Node8</title>
<path fill="none" stroke="midnightblue" d="M333.9,-48C347.42,-48 361.8,-48 375.46,-48"/>
<polygon fill="midnightblue" stroke="midnightblue" points="375.74,-51.5 385.74,-48 375.74,-44.5 375.74,-51.5"/>
</g>
</g>
</svg>
