<?xml version="1.0" encoding="UTF-8" standalone="no"?>
<!DOCTYPE svg PUBLIC "-//W3C//DTD SVG 1.1//EN"
 "http://www.w3.org/Graphics/SVG/1.1/DTD/svg11.dtd">
<!-- Generated by graphviz version 2.44.1 (20200629.0846)
 -->
<!-- Title: Process::processEntity Pages: 1 -->
<svg width="298pt" height="332pt"
 viewBox="0.00 0.00 298.00 332.00" xmlns="http://www.w3.org/2000/svg" xmlns:xlink="http://www.w3.org/1999/xlink">
<g id="graph0" class="graph" transform="scale(1 1) rotate(0) translate(4 328)">
<title>Process::processEntity</title>
<polygon fill="white" stroke="transparent" points="-4,4 -4,-328 294,-328 294,4 -4,4"/>
<!-- Node1 -->
<g id="node1" class="node">
<title>Node1</title>
<g id="a_node1"><a xlink:title=" ">
<polygon fill="#bfbfbf" stroke="black" points="0,-152.5 0,-171.5 119,-171.5 119,-152.5 0,-152.5"/>
<text text-anchor="middle" x="59.5" y="-159.5" font-family="Helvetica,sans-Serif" font-size="10.00">Process::processEntity</text>
</a>
</g>
</g>
<!-- Node2 -->
<g id="node2" class="node">
<title>Node2</title>
<g id="a_node2"><a xlink:href="class_main_pool.html#ad39482392e579e95034085591498d3ee" target="_top" xlink:title=" ">
<polygon fill="white" stroke="black" points="172.5,-304.5 172.5,-323.5 272.5,-323.5 272.5,-304.5 172.5,-304.5"/>
<text text-anchor="middle" x="222.5" y="-311.5" font-family="Helvetica,sans-Serif" font-size="10.00">MainPool::enqueue</text>
</a>
</g>
</g>
<!-- Node1&#45;&gt;Node2 -->
<g id="edge1" class="edge">
<title>Node1&#45;&gt;Node2</title>
<path fill="none" stroke="midnightblue" d="M64.61,-171.74C75.51,-196.35 107.59,-261.47 155,-295 157.83,-297 160.87,-298.79 164.03,-300.4"/>
<polygon fill="midnightblue" stroke="midnightblue" points="162.64,-303.61 173.21,-304.44 165.46,-297.21 162.64,-303.61"/>
</g>
<!-- Node3 -->
<g id="node3" class="node">
<title>Node3</title>
<g id="a_node3"><a xlink:href="class_thread_pool.html#a6b5fece9b1a36b36f98e304b840c2648" target="_top" xlink:title=" ">
<polygon fill="white" stroke="black" points="168.5,-266.5 168.5,-285.5 276.5,-285.5 276.5,-266.5 168.5,-266.5"/>
<text text-anchor="middle" x="222.5" y="-273.5" font-family="Helvetica,sans-Serif" font-size="10.00">ThreadPool::enqueue</text>
</a>
</g>
</g>
<!-- Node1&#45;&gt;Node3 -->
<g id="edge2" class="edge">
<title>Node1&#45;&gt;Node3</title>
<path fill="none" stroke="midnightblue" d="M67.39,-171.68C81.55,-190.89 115.93,-233.94 155,-257 158.66,-259.16 162.59,-261.09 166.63,-262.81"/>
<polygon fill="midnightblue" stroke="midnightblue" points="165.62,-266.17 176.21,-266.44 168.1,-259.62 165.62,-266.17"/>
</g>
<!-- Node4 -->
<g id="node4" class="node">
<title>Node4</title>
<g id="a_node4"><a xlink:href="class_transform.html#aa88751206dca7860f5c17977c8c10aa0" target="_top" xlink:title=" ">
<polygon fill="white" stroke="black" points="165.5,-228.5 165.5,-247.5 279.5,-247.5 279.5,-228.5 165.5,-228.5"/>
<text text-anchor="middle" x="222.5" y="-235.5" font-family="Helvetica,sans-Serif" font-size="10.00">Transform::getChildren</text>
</a>
</g>
</g>
<!-- Node1&#45;&gt;Node4 -->
<g id="edge3" class="edge">
<title>Node1&#45;&gt;Node4</title>
<path fill="none" stroke="midnightblue" d="M73.97,-171.7C91.76,-184.14 124.43,-205.7 155,-219 160.36,-221.33 166.09,-223.47 171.85,-225.39"/>
<polygon fill="midnightblue" stroke="midnightblue" points="170.92,-228.77 181.51,-228.43 173.02,-222.09 170.92,-228.77"/>
</g>
<!-- Node5 -->
<g id="node5" class="node">
<title>Node5</title>
<g id="a_node5"><a xlink:href="class_entity.html#a3451b5a0c02ea5d16d8cb0763858bc2b" target="_top" xlink:title=" ">
<polygon fill="white" stroke="black" points="164.5,-190.5 164.5,-209.5 280.5,-209.5 280.5,-190.5 164.5,-190.5"/>
<text text-anchor="middle" x="222.5" y="-197.5" font-family="Helvetica,sans-Serif" font-size="10.00">Entity::getComponents</text>
</a>
</g>
</g>
<!-- Node1&#45;&gt;Node5 -->
<g id="edge4" class="edge">
<title>Node1&#45;&gt;Node5</title>
<path fill="none" stroke="midnightblue" d="M101.13,-171.59C122.47,-176.63 148.81,-182.84 171.41,-188.18"/>
<polygon fill="midnightblue" stroke="midnightblue" points="170.63,-191.59 181.17,-190.48 172.24,-184.78 170.63,-191.59"/>
</g>
<!-- Node6 -->
<g id="node6" class="node">
<title>Node6</title>
<g id="a_node6"><a xlink:href="class_entity.html#aec5b6fb1566ab2f4b1b30c8d788315dc" target="_top" xlink:title=" ">
<polygon fill="white" stroke="black" points="170.5,-152.5 170.5,-171.5 274.5,-171.5 274.5,-152.5 170.5,-152.5"/>
<text text-anchor="middle" x="222.5" y="-159.5" font-family="Helvetica,sans-Serif" font-size="10.00">Entity::getTransform</text>
</a>
</g>
</g>
<!-- Node1&#45;&gt;Node6 -->
<g id="edge5" class="edge">
<title>Node1&#45;&gt;Node6</title>
<path fill="none" stroke="midnightblue" d="M119.08,-162C132.48,-162 146.75,-162 160.26,-162"/>
<polygon fill="midnightblue" stroke="midnightblue" points="160.41,-165.5 170.41,-162 160.41,-158.5 160.41,-165.5"/>
</g>
<!-- Node7 -->
<g id="node7" class="node">
<title>Node7</title>
<g id="a_node7"><a xlink:href="class_loop_renderer.html#a7c060e0cab35e5fbe85776950826442a" target="_top" xlink:title=" ">
<polygon fill="white" stroke="black" points="155,-114.5 155,-133.5 290,-133.5 290,-114.5 155,-114.5"/>
<text text-anchor="middle" x="222.5" y="-121.5" font-family="Helvetica,sans-Serif" font-size="10.00">LoopRenderer::handleMesh</text>
</a>
</g>
</g>
<!-- Node1&#45;&gt;Node7 -->
<g id="edge6" class="edge">
<title>Node1&#45;&gt;Node7</title>
<path fill="none" stroke="midnightblue" d="M101.13,-152.41C122.47,-147.37 148.81,-141.16 171.41,-135.82"/>
<polygon fill="midnightblue" stroke="midnightblue" points="172.24,-139.22 181.17,-133.52 170.63,-132.41 172.24,-139.22"/>
</g>
<!-- Node8 -->
<g id="node8" class="node">
<title>Node8</title>
<g id="a_node8"><a xlink:href="class_dispatcher.html#a72977dbd43a8cf501c05d915858d39ba" target="_top" xlink:title=" ">
<polygon fill="white" stroke="black" points="169.5,-76.5 169.5,-95.5 275.5,-95.5 275.5,-76.5 169.5,-76.5"/>
<text text-anchor="middle" x="222.5" y="-83.5" font-family="Helvetica,sans-Serif" font-size="10.00">Dispatcher::instance</text>
</a>
</g>
</g>
<!-- Node1&#45;&gt;Node8 -->
<g id="edge7" class="edge">
<title>Node1&#45;&gt;Node8</title>
<path fill="none" stroke="midnightblue" d="M73.97,-152.3C91.76,-139.86 124.43,-118.3 155,-105 160.36,-102.67 166.09,-100.53 171.85,-98.61"/>
<polygon fill="midnightblue" stroke="midnightblue" points="173.02,-101.91 181.51,-95.57 170.92,-95.23 173.02,-101.91"/>
</g>
<!-- Node9 -->
<g id="node9" class="node">
<title>Node9</title>
<g id="a_node9"><a xlink:href="class_dispatcher.html#a289257d29e2583f5ef40b7b5c4fdae8b" target="_top" xlink:title="Retrieves the main thread pool.">
<polygon fill="white" stroke="black" points="177.5,-38.5 177.5,-57.5 267.5,-57.5 267.5,-38.5 177.5,-38.5"/>
<text text-anchor="middle" x="222.5" y="-45.5" font-family="Helvetica,sans-Serif" font-size="10.00">Dispatcher::main</text>
</a>
</g>
</g>
<!-- Node1&#45;&gt;Node9 -->
<g id="edge8" class="edge">
<title>Node1&#45;&gt;Node9</title>
<path fill="none" stroke="midnightblue" d="M67.39,-152.32C81.55,-133.11 115.93,-90.06 155,-67 158.95,-64.67 163.19,-62.61 167.56,-60.8"/>
<polygon fill="midnightblue" stroke="midnightblue" points="169.1,-63.96 177.26,-57.21 166.67,-57.4 169.1,-63.96"/>
</g>
<!-- Node10 -->
<g id="node10" class="node">
<title>Node10</title>
<g id="a_node10"><a xlink:href="class_dispatcher.html#acf9ae07e5cac994e98b814e0526ba481" target="_top" xlink:title="Retrieves the parallel threads pool.">
<polygon fill="white" stroke="black" points="172.5,-0.5 172.5,-19.5 272.5,-19.5 272.5,-0.5 172.5,-0.5"/>
<text text-anchor="middle" x="222.5" y="-7.5" font-family="Helvetica,sans-Serif" font-size="10.00">Dispatcher::parallel</text>
</a>
</g>
</g>
<!-- Node1&#45;&gt;Node10 -->
<g id="edge9" class="edge">
<title>Node1&#45;&gt;Node10</title>
<path fill="none" stroke="midnightblue" d="M64.61,-152.26C75.51,-127.65 107.59,-62.53 155,-29 157.83,-27 160.87,-25.21 164.03,-23.6"/>
<polygon fill="midnightblue" stroke="midnightblue" points="165.46,-26.79 173.21,-19.56 162.64,-20.39 165.46,-26.79"/>
</g>
</g>
</svg>
