<?xml version="1.0" encoding="UTF-8" standalone="no"?>
<!DOCTYPE svg PUBLIC "-//W3C//DTD SVG 1.1//EN"
 "http://www.w3.org/Graphics/SVG/1.1/DTD/svg11.dtd">
<!-- Generated by graphviz version 2.40.1 (20161225.0304)
 -->
<!-- Title: TextureCopyMaterial Pages: 1 -->
<svg width="314pt" height="230pt"
 viewBox="0.00 0.00 314.00 230.00" xmlns="http://www.w3.org/2000/svg" xmlns:xlink="http://www.w3.org/1999/xlink">
<g id="graph0" class="graph" transform="scale(1 1) rotate(0) translate(4 226)">
<title>TextureCopyMaterial</title>
<polygon fill="#ffffff" stroke="transparent" points="-4,4 -4,-226 310,-226 310,4 -4,4"/>
<!-- Node2 -->
<g id="node1" class="node">
<title>Node2</title>
<polygon fill="#bfbfbf" stroke="#000000" points="105.5,-.5 105.5,-19.5 212.5,-19.5 212.5,-.5 105.5,-.5"/>
<text text-anchor="middle" x="159" y="-7.5" font-family="Helvetica,sans-Serif" font-size="10.00" fill="#000000">TextureCopyMaterial</text>
</g>
<!-- Node3 -->
<g id="node2" class="node">
<title>Node3</title>
<g id="a_node2"><a xlink:href="class_material.html" target="_top" xlink:title="Material">
<polygon fill="#ffffff" stroke="#000000" points="133.5,-57.5 133.5,-76.5 184.5,-76.5 184.5,-57.5 133.5,-57.5"/>
<text text-anchor="middle" x="159" y="-64.5" font-family="Helvetica,sans-Serif" font-size="10.00" fill="#000000">Material</text>
</a>
</g>
</g>
<!-- Node3&#45;&gt;Node2 -->
<g id="edge1" class="edge">
<title>Node3&#45;&gt;Node2</title>
<path fill="none" stroke="#191970" d="M159,-47.2342C159,-37.8491 159,-27.0651 159,-19.5265"/>
<polygon fill="#191970" stroke="#191970" points="155.5001,-47.3307 159,-57.3307 162.5001,-47.3308 155.5001,-47.3307"/>
</g>
<!-- Node4 -->
<g id="node3" class="node">
<title>Node4</title>
<polygon fill="#ffffff" stroke="#bfbfbf" points="0,-124.5 0,-154.5 158,-154.5 158,-124.5 0,-124.5"/>
<text text-anchor="start" x="8" y="-142.5" font-family="Helvetica,sans-Serif" font-size="10.00" fill="#000000">std::unique_ptr&lt; ShaderProgram</text>
<text text-anchor="middle" x="79" y="-131.5" font-family="Helvetica,sans-Serif" font-size="10.00" fill="#000000">Compiler &gt;</text>
</g>
<!-- Node4&#45;&gt;Node3 -->
<g id="edge2" class="edge">
<title>Node4&#45;&gt;Node3</title>
<path fill="none" stroke="#9a32cd" stroke-dasharray="5,2" d="M103.0249,-117.7274C117.9996,-104.1566 136.5486,-87.3466 148.0806,-76.8957"/>
<polygon fill="#9a32cd" stroke="#9a32cd" points="100.6356,-115.1693 95.5761,-124.478 105.3363,-120.3562 100.6356,-115.1693"/>
<text text-anchor="middle" x="147" y="-98" font-family="Helvetica,sans-Serif" font-size="10.00" fill="#000000"> compiler</text>
</g>
<!-- Node5 -->
<g id="node4" class="node">
<title>Node5</title>
<g id="a_node4"><a xlink:href="class_shader_program_compiler.html" target="_top" xlink:title="ShaderProgramCompiler">
<polygon fill="#ffffff" stroke="#000000" points="17.5,-202.5 17.5,-221.5 140.5,-221.5 140.5,-202.5 17.5,-202.5"/>
<text text-anchor="middle" x="79" y="-209.5" font-family="Helvetica,sans-Serif" font-size="10.00" fill="#000000">ShaderProgramCompiler</text>
</a>
</g>
</g>
<!-- Node5&#45;&gt;Node4 -->
<g id="edge3" class="edge">
<title>Node5&#45;&gt;Node4</title>
<path fill="none" stroke="#9a32cd" stroke-dasharray="5,2" d="M79,-192.0177C79,-180.2164 79,-165.513 79,-154.668"/>
<polygon fill="#9a32cd" stroke="#9a32cd" points="75.5001,-192.2223 79,-202.2223 82.5001,-192.2224 75.5001,-192.2223"/>
<text text-anchor="middle" x="86.5" y="-176" font-family="Helvetica,sans-Serif" font-size="10.00" fill="#000000"> ptr</text>
</g>
<!-- Node6 -->
<g id="node5" class="node">
<title>Node6</title>
<polygon fill="#ffffff" stroke="#bfbfbf" points="176,-130 176,-149 306,-149 306,-130 176,-130"/>
<text text-anchor="middle" x="241" y="-137" font-family="Helvetica,sans-Serif" font-size="10.00" fill="#000000">std::unique_ptr&lt; Shader &gt;</text>
</g>
<!-- Node6&#45;&gt;Node3 -->
<g id="edge4" class="edge">
<title>Node6&#45;&gt;Node3</title>
<path fill="none" stroke="#9a32cd" stroke-dasharray="5,2" d="M222.1625,-122.8449C205.9767,-108.5343 183.2029,-88.3989 169.8837,-76.6228"/>
<polygon fill="#9a32cd" stroke="#9a32cd" points="220.1311,-125.7206 229.9411,-129.7223 224.7677,-120.4764 220.1311,-125.7206"/>
<text text-anchor="middle" x="219.5" y="-98" font-family="Helvetica,sans-Serif" font-size="10.00" fill="#000000"> shader</text>
</g>
<!-- Node7 -->
<g id="node6" class="node">
<title>Node7</title>
<g id="a_node6"><a xlink:href="class_shader.html" target="_top" xlink:title="Shader">
<polygon fill="#ffffff" stroke="#000000" points="217.5,-202.5 217.5,-221.5 264.5,-221.5 264.5,-202.5 217.5,-202.5"/>
<text text-anchor="middle" x="241" y="-209.5" font-family="Helvetica,sans-Serif" font-size="10.00" fill="#000000">Shader</text>
</a>
</g>
</g>
<!-- Node7&#45;&gt;Node6 -->
<g id="edge5" class="edge">
<title>Node7&#45;&gt;Node6</title>
<path fill="none" stroke="#9a32cd" stroke-dasharray="5,2" d="M241,-192.1054C241,-178.1237 241,-160.0346 241,-149.1228"/>
<polygon fill="#9a32cd" stroke="#9a32cd" points="237.5001,-192.2223 241,-202.2223 244.5001,-192.2224 237.5001,-192.2223"/>
<text text-anchor="middle" x="248.5" y="-176" font-family="Helvetica,sans-Serif" font-size="10.00" fill="#000000"> ptr</text>
</g>
</g>
</svg>
