<?xml version="1.0" encoding="UTF-8" standalone="no"?>
<!DOCTYPE svg PUBLIC "-//W3C//DTD SVG 1.1//EN"
 "http://www.w3.org/Graphics/SVG/1.1/DTD/svg11.dtd">
<!-- Generated by graphviz version 2.40.1 (20161225.0304)
 -->
<!-- Title: ThreadPool Pages: 1 -->
<svg width="198pt" height="140pt"
 viewBox="0.00 0.00 197.50 140.00" xmlns="http://www.w3.org/2000/svg" xmlns:xlink="http://www.w3.org/1999/xlink">
<g id="graph0" class="graph" transform="scale(1 1) rotate(0) translate(4 136)">
<title>ThreadPool</title>
<polygon fill="#ffffff" stroke="transparent" points="-4,4 -4,-136 193.5,-136 193.5,4 -4,4"/>
<!-- Node0 -->
<g id="node1" class="node">
<title>Node0</title>
<polygon fill="#bfbfbf" stroke="#000000" points="53,-56.5 53,-75.5 119,-75.5 119,-56.5 53,-56.5"/>
<text text-anchor="middle" x="86" y="-63.5" font-family="Helvetica,sans-Serif" font-size="10.00" fill="#000000">ThreadPool</text>
</g>
<!-- Node2 -->
<g id="node3" class="node">
<title>Node2</title>
<g id="a_node3"><a xlink:href="class_runner_pool.html" target="_top" xlink:title="RunnerPool">
<polygon fill="#ffffff" stroke="#000000" points="0,-.5 0,-19.5 68,-19.5 68,-.5 0,-.5"/>
<text text-anchor="middle" x="34" y="-7.5" font-family="Helvetica,sans-Serif" font-size="10.00" fill="#000000">RunnerPool</text>
</a>
</g>
</g>
<!-- Node0&#45;&gt;Node2 -->
<g id="edge2" class="edge">
<title>Node0&#45;&gt;Node2</title>
<path fill="none" stroke="#191970" d="M70.0178,-48.7884C61.1222,-39.2085 50.3796,-27.6396 42.9539,-19.6427"/>
<polygon fill="#191970" stroke="#191970" points="67.573,-51.2992 76.9423,-56.2455 72.7025,-46.536 67.573,-51.2992"/>
</g>
<!-- Node3 -->
<g id="node4" class="node">
<title>Node3</title>
<g id="a_node4"><a xlink:href="class_synchronizable_pool.html" target="_top" xlink:title="SynchronizablePool">
<polygon fill="#ffffff" stroke="#000000" points="86.5,-.5 86.5,-19.5 189.5,-19.5 189.5,-.5 86.5,-.5"/>
<text text-anchor="middle" x="138" y="-7.5" font-family="Helvetica,sans-Serif" font-size="10.00" fill="#000000">SynchronizablePool</text>
</a>
</g>
</g>
<!-- Node0&#45;&gt;Node3 -->
<g id="edge3" class="edge">
<title>Node0&#45;&gt;Node3</title>
<path fill="none" stroke="#191970" d="M101.9822,-48.7884C110.8778,-39.2085 121.6204,-27.6396 129.0461,-19.6427"/>
<polygon fill="#191970" stroke="#191970" points="99.2975,-46.536 95.0577,-56.2455 104.427,-51.2992 99.2975,-46.536"/>
</g>
<!-- Node1 -->
<g id="node2" class="node">
<title>Node1</title>
<g id="a_node2"><a xlink:href="class_base_pool.html" target="_top" xlink:title="BasePool">
<polygon fill="#ffffff" stroke="#000000" points="56.5,-112.5 56.5,-131.5 115.5,-131.5 115.5,-112.5 56.5,-112.5"/>
<text text-anchor="middle" x="86" y="-119.5" font-family="Helvetica,sans-Serif" font-size="10.00" fill="#000000">BasePool</text>
</a>
</g>
</g>
<!-- Node1&#45;&gt;Node0 -->
<g id="edge1" class="edge">
<title>Node1&#45;&gt;Node0</title>
<path fill="none" stroke="#191970" d="M86,-102.1575C86,-93.155 86,-82.9199 86,-75.6427"/>
<polygon fill="#191970" stroke="#191970" points="82.5001,-102.2455 86,-112.2455 89.5001,-102.2456 82.5001,-102.2455"/>
</g>
</g>
</svg>
