<?xml version="1.0" encoding="UTF-8" standalone="no"?>
<!DOCTYPE svg PUBLIC "-//W3C//DTD SVG 1.1//EN"
 "http://www.w3.org/Graphics/SVG/1.1/DTD/svg11.dtd">
<!-- Generated by graphviz version 2.44.1 (20200629.0846)
 -->
<!-- Title: BoxBufferGeometry::BoxBufferGeometry Pages: 1 -->
<svg width="729pt" height="318pt"
 viewBox="0.00 0.00 729.00 318.00" xmlns="http://www.w3.org/2000/svg" xmlns:xlink="http://www.w3.org/1999/xlink">
<g id="graph0" class="graph" transform="scale(1 1) rotate(0) translate(4 314)">
<title>BoxBufferGeometry::BoxBufferGeometry</title>
<polygon fill="white" stroke="transparent" points="-4,4 -4,-314 725,-314 725,4 -4,4"/>
<!-- Node1 -->
<g id="node1" class="node">
<title>Node1</title>
<g id="a_node1"><a xlink:title=" ">
<polygon fill="#bfbfbf" stroke="black" points="0,-118 0,-148 107,-148 107,-118 0,-118"/>
<text text-anchor="start" x="8" y="-136" font-family="Helvetica,sans-Serif" font-size="10.00">BoxBufferGeometry::</text>
<text text-anchor="middle" x="53.5" y="-125" font-family="Helvetica,sans-Serif" font-size="10.00">BoxBufferGeometry</text>
</a>
</g>
</g>
<!-- Node2 -->
<g id="node2" class="node">
<title>Node2</title>
<g id="a_node2"><a xlink:href="class_buffer_geometry.html#a1d92262d7fd788c5cc64bac05b56bb04" target="_top" xlink:title="Computes the &#39;tangent&#39; attribute for this geometry.">
<polygon fill="white" stroke="black" points="143,-233.5 143,-252.5 310,-252.5 310,-233.5 143,-233.5"/>
<text text-anchor="middle" x="226.5" y="-240.5" font-family="Helvetica,sans-Serif" font-size="10.00">BufferGeometry::computeTangents</text>
</a>
</g>
</g>
<!-- Node1&#45;&gt;Node2 -->
<g id="edge1" class="edge">
<title>Node1&#45;&gt;Node2</title>
<path fill="none" stroke="midnightblue" d="M77.92,-148.06C110.53,-169.04 169.27,-206.83 201.95,-227.85"/>
<polygon fill="midnightblue" stroke="midnightblue" points="200.13,-230.84 210.43,-233.31 203.91,-224.95 200.13,-230.84"/>
</g>
<!-- Node6 -->
<g id="node6" class="node">
<title>Node6</title>
<g id="a_node6"><a xlink:href="namespace_utils.html#a407c7f36cca64e0f18d989bac065614f" target="_top" xlink:title=" ">
<polygon fill="white" stroke="black" points="162,-142.5 162,-161.5 291,-161.5 291,-142.5 162,-142.5"/>
<text text-anchor="middle" x="226.5" y="-149.5" font-family="Helvetica,sans-Serif" font-size="10.00">Utils::flatMapFloatVectors</text>
</a>
</g>
</g>
<!-- Node1&#45;&gt;Node6 -->
<g id="edge5" class="edge">
<title>Node1&#45;&gt;Node6</title>
<path fill="none" stroke="midnightblue" d="M107.2,-138.86C121.23,-140.41 136.66,-142.13 151.6,-143.79"/>
<polygon fill="midnightblue" stroke="midnightblue" points="151.52,-147.3 161.84,-144.93 152.29,-140.34 151.52,-147.3"/>
</g>
<!-- Node7 -->
<g id="node7" class="node">
<title>Node7</title>
<g id="a_node7"><a xlink:href="class_buffer_geometry.html#abacb186563bd725c4e1b6dc9569d1f62" target="_top" xlink:title="Sets the value of a buffer attribute.">
<polygon fill="white" stroke="black" points="156.5,-104.5 156.5,-123.5 296.5,-123.5 296.5,-104.5 156.5,-104.5"/>
<text text-anchor="middle" x="226.5" y="-111.5" font-family="Helvetica,sans-Serif" font-size="10.00">BufferGeometry::setAttribute</text>
</a>
</g>
</g>
<!-- Node1&#45;&gt;Node7 -->
<g id="edge6" class="edge">
<title>Node1&#45;&gt;Node7</title>
<path fill="none" stroke="midnightblue" d="M107.2,-127.14C119.56,-125.77 132.99,-124.28 146.22,-122.81"/>
<polygon fill="midnightblue" stroke="midnightblue" points="146.73,-126.27 156.28,-121.69 145.96,-119.32 146.73,-126.27"/>
</g>
<!-- Node13 -->
<g id="node13" class="node">
<title>Node13</title>
<g id="a_node13"><a xlink:href="class_buffer_geometry.html#ae0a5eb4a3a41bf8a777de7781b108c46" target="_top" xlink:title=" ">
<polygon fill="white" stroke="black" points="159.5,-66.5 159.5,-85.5 293.5,-85.5 293.5,-66.5 159.5,-66.5"/>
<text text-anchor="middle" x="226.5" y="-73.5" font-family="Helvetica,sans-Serif" font-size="10.00">BufferGeometry::setIndices</text>
</a>
</g>
</g>
<!-- Node1&#45;&gt;Node13 -->
<g id="edge13" class="edge">
<title>Node1&#45;&gt;Node13</title>
<path fill="none" stroke="midnightblue" d="M85.92,-117.88C102.6,-110.27 123.61,-101.34 143,-95 150.93,-92.41 159.4,-90.03 167.79,-87.9"/>
<polygon fill="midnightblue" stroke="midnightblue" points="168.66,-91.29 177.55,-85.51 167,-84.49 168.66,-91.29"/>
</g>
<!-- Node3 -->
<g id="node3" class="node">
<title>Node3</title>
<g id="a_node3"><a xlink:href="class_buffer_geometry.html#a082b7e73a394537b11e32f78ca68df79" target="_top" xlink:title=" ">
<polygon fill="white" stroke="black" points="349,-290.5 349,-309.5 511,-309.5 511,-290.5 349,-290.5"/>
<text text-anchor="middle" x="430" y="-297.5" font-family="Helvetica,sans-Serif" font-size="10.00">BufferGeometry::computeTangent</text>
</a>
</g>
</g>
<!-- Node2&#45;&gt;Node3 -->
<g id="edge2" class="edge">
<title>Node2&#45;&gt;Node3</title>
<path fill="none" stroke="midnightblue" d="M255.07,-252.58C278.96,-260.7 314.54,-272.37 346,-281 355,-283.47 364.62,-285.88 373.99,-288.1"/>
<polygon fill="midnightblue" stroke="midnightblue" points="373.49,-291.58 384.03,-290.44 375.08,-284.76 373.49,-291.58"/>
</g>
<!-- Node4 -->
<g id="node4" class="node">
<title>Node4</title>
<g id="a_node4"><a xlink:href="class_buffer_attribute.html#a48182120a8d3c4c49008fab61ace89ed" target="_top" xlink:title=" ">
<polygon fill="white" stroke="black" points="371,-252.5 371,-271.5 489,-271.5 489,-252.5 371,-252.5"/>
<text text-anchor="middle" x="430" y="-259.5" font-family="Helvetica,sans-Serif" font-size="10.00">BufferAttribute::getData</text>
</a>
</g>
</g>
<!-- Node2&#45;&gt;Node4 -->
<g id="edge3" class="edge">
<title>Node2&#45;&gt;Node4</title>
<path fill="none" stroke="midnightblue" d="M310.04,-250.78C326.96,-252.38 344.59,-254.04 360.93,-255.58"/>
<polygon fill="midnightblue" stroke="midnightblue" points="360.64,-259.07 370.92,-256.52 361.3,-252.1 360.64,-259.07"/>
</g>
<!-- Node5 -->
<g id="node5" class="node">
<title>Node5</title>
<g id="a_node5"><a xlink:href="class_buffer_attribute.html#a630d89d5baf0f87d179a91ed4524d250" target="_top" xlink:title=" ">
<polygon fill="white" stroke="black" points="366.5,-214.5 366.5,-233.5 493.5,-233.5 493.5,-214.5 366.5,-214.5"/>
<text text-anchor="middle" x="430" y="-221.5" font-family="Helvetica,sans-Serif" font-size="10.00">BufferAttribute::getLength</text>
</a>
</g>
</g>
<!-- Node2&#45;&gt;Node5 -->
<g id="edge4" class="edge">
<title>Node2&#45;&gt;Node5</title>
<path fill="none" stroke="midnightblue" d="M310.04,-235.22C325.32,-233.78 341.17,-232.28 356.14,-230.87"/>
<polygon fill="midnightblue" stroke="midnightblue" points="356.71,-234.33 366.33,-229.91 356.05,-227.36 356.71,-234.33"/>
</g>
<!-- Node8 -->
<g id="node8" class="node">
<title>Node8</title>
<g id="a_node8"><a xlink:href="class_buffer_geometry.html#a8923cd4c11351f8f097b45356b07be62" target="_top" xlink:title="Computes the bounding sphere for this specific geometry, based on the the &#39;position&#39; attribute.">
<polygon fill="white" stroke="black" points="346,-165 346,-195 514,-195 514,-165 346,-165"/>
<text text-anchor="start" x="354" y="-183" font-family="Helvetica,sans-Serif" font-size="10.00">BufferGeometry::computeBounding</text>
<text text-anchor="middle" x="430" y="-172" font-family="Helvetica,sans-Serif" font-size="10.00">Volumes</text>
</a>
</g>
</g>
<!-- Node7&#45;&gt;Node8 -->
<g id="edge7" class="edge">
<title>Node7&#45;&gt;Node8</title>
<path fill="none" stroke="midnightblue" d="M280.66,-123.58C290.59,-126.11 300.75,-129.22 310,-133 327.36,-140.08 328.88,-147.34 346,-155 351.28,-157.36 356.85,-159.58 362.49,-161.64"/>
<polygon fill="midnightblue" stroke="midnightblue" points="361.44,-164.98 372.04,-164.96 363.74,-158.37 361.44,-164.98"/>
</g>
<!-- Node9 -->
<g id="node9" class="node">
<title>Node9</title>
<g id="a_node9"><a xlink:href="class_buffer_attribute.html#aeb86ba7a3f57ad8e575258fcfbfe753c" target="_top" xlink:title=" ">
<polygon fill="white" stroke="black" points="362,-126.5 362,-145.5 498,-145.5 498,-126.5 362,-126.5"/>
<text text-anchor="middle" x="430" y="-133.5" font-family="Helvetica,sans-Serif" font-size="10.00">BufferAttribute::getItemSize</text>
</a>
</g>
</g>
<!-- Node7&#45;&gt;Node9 -->
<g id="edge8" class="edge">
<title>Node7&#45;&gt;Node9</title>
<path fill="none" stroke="midnightblue" d="M296.56,-121.54C314.35,-123.48 333.6,-125.58 351.76,-127.57"/>
<polygon fill="midnightblue" stroke="midnightblue" points="351.41,-131.05 361.73,-128.66 352.17,-124.09 351.41,-131.05"/>
</g>
<!-- Node10 -->
<g id="node10" class="node">
<title>Node10</title>
<g id="a_node10"><a xlink:href="class_buffer_geometry.html#a40ac49a3561170a81180fd788903b6de" target="_top" xlink:title=" ">
<polygon fill="white" stroke="black" points="362,-77 362,-107 498,-107 498,-77 362,-77"/>
<text text-anchor="start" x="370" y="-95" font-family="Helvetica,sans-Serif" font-size="10.00">BufferGeometry::recompute</text>
<text text-anchor="middle" x="430" y="-84" font-family="Helvetica,sans-Serif" font-size="10.00">Locations</text>
</a>
</g>
</g>
<!-- Node7&#45;&gt;Node10 -->
<g id="edge9" class="edge">
<title>Node7&#45;&gt;Node10</title>
<path fill="none" stroke="midnightblue" d="M296.56,-106.46C314.35,-104.52 333.6,-102.42 351.76,-100.43"/>
<polygon fill="midnightblue" stroke="midnightblue" points="352.17,-103.91 361.73,-99.34 351.41,-96.95 352.17,-103.91"/>
</g>
<!-- Node11 -->
<g id="node11" class="node">
<title>Node11</title>
<g id="a_node11"><a xlink:href="class_buffer_geometry.html#af1025b03991ee389abc822e8209f3701" target="_top" xlink:title=" ">
<polygon fill="white" stroke="black" points="550,-60.5 550,-79.5 721,-79.5 721,-60.5 550,-60.5"/>
<text text-anchor="middle" x="635.5" y="-67.5" font-family="Helvetica,sans-Serif" font-size="10.00">BufferGeometry::updateLayoutCode</text>
</a>
</g>
</g>
<!-- Node7&#45;&gt;Node11 -->
<g id="edge11" class="edge">
<title>Node7&#45;&gt;Node11</title>
<path fill="none" stroke="midnightblue" d="M283.59,-104.42C292.64,-101.93 301.74,-98.84 310,-95 328.14,-86.57 327.03,-74.32 346,-68 422.7,-42.43 517.37,-49.9 576.86,-58.91"/>
<polygon fill="midnightblue" stroke="midnightblue" points="576.4,-62.38 586.82,-60.48 577.49,-55.47 576.4,-62.38"/>
</g>
<!-- Node12 -->
<g id="node12" class="node">
<title>Node12</title>
<g id="a_node12"><a xlink:href="class_buffer_geometry.html#aa42b4bd617cf7939c8e5bd8893bc429a" target="_top" xlink:title=" ">
<polygon fill="white" stroke="black" points="355.5,-0.5 355.5,-19.5 504.5,-19.5 504.5,-0.5 355.5,-0.5"/>
<text text-anchor="middle" x="430" y="-7.5" font-family="Helvetica,sans-Serif" font-size="10.00">BufferGeometry::updateLength</text>
</a>
</g>
</g>
<!-- Node7&#45;&gt;Node12 -->
<g id="edge12" class="edge">
<title>Node7&#45;&gt;Node12</title>
<path fill="none" stroke="midnightblue" d="M292.79,-104.35C298.92,-101.89 304.78,-98.82 310,-95 335.4,-76.4 321.12,-53.29 346,-34 351.5,-29.74 357.72,-26.23 364.24,-23.35"/>
<polygon fill="midnightblue" stroke="midnightblue" points="365.89,-26.46 373.93,-19.56 363.34,-19.94 365.89,-26.46"/>
</g>
<!-- Node10&#45;&gt;Node11 -->
<g id="edge10" class="edge">
<title>Node10&#45;&gt;Node11</title>
<path fill="none" stroke="midnightblue" d="M498.2,-84.74C511.52,-83.3 525.74,-81.76 539.78,-80.24"/>
<polygon fill="midnightblue" stroke="midnightblue" points="540.39,-83.69 549.95,-79.14 539.63,-76.74 540.39,-83.69"/>
</g>
</g>
</svg>
