<?xml version="1.0" encoding="UTF-8" standalone="no"?>
<!DOCTYPE svg PUBLIC "-//W3C//DTD SVG 1.1//EN"
 "http://www.w3.org/Graphics/SVG/1.1/DTD/svg11.dtd">
<!-- Generated by graphviz version 2.44.1 (20200629.0846)
 -->
<!-- Title: PostProcess::draw Pages: 1 -->
<svg width="408pt" height="104pt"
 viewBox="0.00 0.00 408.00 104.00" xmlns="http://www.w3.org/2000/svg" xmlns:xlink="http://www.w3.org/1999/xlink">
<g id="graph0" class="graph" transform="scale(1 1) rotate(0) translate(4 100)">
<title>PostProcess::draw</title>
<polygon fill="white" stroke="transparent" points="-4,4 -4,-100 404,-100 404,4 -4,4"/>
<!-- Node1 -->
<g id="node1" class="node">
<title>Node1</title>
<g id="a_node1"><a xlink:title=" ">
<polygon fill="#bfbfbf" stroke="black" points="0,-38.5 0,-57.5 99,-57.5 99,-38.5 0,-38.5"/>
<text text-anchor="middle" x="49.5" y="-45.5" font-family="Helvetica,sans-Serif" font-size="10.00">PostProcess::draw</text>
</a>
</g>
</g>
<!-- Node2 -->
<g id="node2" class="node">
<title>Node2</title>
<g id="a_node2"><a xlink:href="class_final_post_process.html#ae8760e789f2e068fd828e95e5ebf3d74" target="_top" xlink:title=" ">
<polygon fill="white" stroke="black" points="135,-38.5 135,-57.5 255,-57.5 255,-38.5 135,-38.5"/>
<text text-anchor="middle" x="195" y="-45.5" font-family="Helvetica,sans-Serif" font-size="10.00">FinalPostProcess::draw</text>
</a>
</g>
</g>
<!-- Node1&#45;&gt;Node2 -->
<g id="edge1" class="edge">
<title>Node1&#45;&gt;Node2</title>
<path fill="none" stroke="midnightblue" d="M99.08,-48C107.32,-48 116.02,-48 124.67,-48"/>
<polygon fill="midnightblue" stroke="midnightblue" points="124.77,-51.5 134.77,-48 124.77,-44.5 124.77,-51.5"/>
</g>
<!-- Node3 -->
<g id="node3" class="node">
<title>Node3</title>
<g id="a_node3"><a xlink:href="class_vertex_array.html#acbd3f02e554fa827be46baf96d8bdabc" target="_top" xlink:title=" ">
<polygon fill="white" stroke="black" points="291,-76.5 291,-95.5 400,-95.5 400,-76.5 291,-76.5"/>
<text text-anchor="middle" x="345.5" y="-83.5" font-family="Helvetica,sans-Serif" font-size="10.00">VertexArray::execute</text>
</a>
</g>
</g>
<!-- Node2&#45;&gt;Node3 -->
<g id="edge2" class="edge">
<title>Node2&#45;&gt;Node3</title>
<path fill="none" stroke="midnightblue" d="M233.47,-57.59C252.89,-62.56 276.8,-68.68 297.45,-73.96"/>
<polygon fill="midnightblue" stroke="midnightblue" points="296.74,-77.39 307.3,-76.48 298.48,-70.61 296.74,-77.39"/>
</g>
<!-- Node4 -->
<g id="node4" class="node">
<title>Node4</title>
<g id="a_node4"><a xlink:href="class_shader.html#a0e4233f8c77b4d0a4f2e52f4e1d100bf" target="_top" xlink:title=" ">
<polygon fill="white" stroke="black" points="299.5,-38.5 299.5,-57.5 391.5,-57.5 391.5,-38.5 299.5,-38.5"/>
<text text-anchor="middle" x="345.5" y="-45.5" font-family="Helvetica,sans-Serif" font-size="10.00">Shader::resetUse</text>
</a>
</g>
</g>
<!-- Node2&#45;&gt;Node4 -->
<g id="edge3" class="edge">
<title>Node2&#45;&gt;Node4</title>
<path fill="none" stroke="midnightblue" d="M255.12,-48C266.39,-48 278.14,-48 289.29,-48"/>
<polygon fill="midnightblue" stroke="midnightblue" points="289.32,-51.5 299.32,-48 289.32,-44.5 289.32,-51.5"/>
</g>
<!-- Node5 -->
<g id="node5" class="node">
<title>Node5</title>
<g id="a_node5"><a xlink:href="class_shader.html#a870fa9f13d69e558815d6fd351a469dc" target="_top" xlink:title=" ">
<polygon fill="white" stroke="black" points="311,-0.5 311,-19.5 380,-19.5 380,-0.5 311,-0.5"/>
<text text-anchor="middle" x="345.5" y="-7.5" font-family="Helvetica,sans-Serif" font-size="10.00">Shader::use</text>
</a>
</g>
</g>
<!-- Node2&#45;&gt;Node5 -->
<g id="edge4" class="edge">
<title>Node2&#45;&gt;Node5</title>
<path fill="none" stroke="midnightblue" d="M233.47,-38.41C253.95,-33.17 279.41,-26.66 300.78,-21.19"/>
<polygon fill="midnightblue" stroke="midnightblue" points="301.77,-24.55 310.59,-18.68 300.04,-17.76 301.77,-24.55"/>
</g>
</g>
</svg>
