<?xml version="1.0" encoding="UTF-8" standalone="no"?>
<!DOCTYPE svg PUBLIC "-//W3C//DTD SVG 1.1//EN"
 "http://www.w3.org/Graphics/SVG/1.1/DTD/svg11.dtd">
<!-- Generated by graphviz version 2.40.1 (20161225.0304)
 -->
<!-- Title: MainRenderer::drawInScene Pages: 1 -->
<svg width="503pt" height="465pt"
 viewBox="0.00 0.00 503.00 465.00" xmlns="http://www.w3.org/2000/svg" xmlns:xlink="http://www.w3.org/1999/xlink">
<g id="graph0" class="graph" transform="scale(1 1) rotate(0) translate(4 461)">
<title>MainRenderer::drawInScene</title>
<polygon fill="#ffffff" stroke="transparent" points="-4,4 -4,-461 499,-461 499,4 -4,4"/>
<!-- Node2 -->
<g id="node1" class="node">
<title>Node2</title>
<polygon fill="#bfbfbf" stroke="#000000" points="0,-213.5 0,-232.5 140,-232.5 140,-213.5 0,-213.5"/>
<text text-anchor="middle" x="70" y="-220.5" font-family="Helvetica,sans-Serif" font-size="10.00" fill="#000000">MainRenderer::drawInScene</text>
</g>
<!-- Node3 -->
<g id="node2" class="node">
<title>Node3</title>
<g id="a_node2"><a xlink:href="class_base_object.html#a601e7060be6c6bf1b069a123d7875dda" target="_top" xlink:title="BaseObject::getShader">
<polygon fill="#ffffff" stroke="#000000" points="204,-437.5 204,-456.5 322,-456.5 322,-437.5 204,-437.5"/>
<text text-anchor="middle" x="263" y="-444.5" font-family="Helvetica,sans-Serif" font-size="10.00" fill="#000000">BaseObject::getShader</text>
</a>
</g>
</g>
<!-- Node2&#45;&gt;Node3 -->
<g id="edge1" class="edge">
<title>Node2&#45;&gt;Node3</title>
<path fill="none" stroke="#191970" d="M71.9254,-232.5929C79.0776,-265.598 107.3297,-375.3292 176,-428 181.4398,-432.1724 187.6054,-435.4693 194.0822,-438.069"/>
<polygon fill="#191970" stroke="#191970" points="193.1511,-441.4501 203.7458,-441.3997 195.432,-434.8321 193.1511,-441.4501"/>
</g>
<!-- Node4 -->
<g id="node3" class="node">
<title>Node4</title>
<g id="a_node3"><a xlink:href="class_shader.html#a870fa9f13d69e558815d6fd351a469dc" target="_top" xlink:title="Shader::use">
<polygon fill="#ffffff" stroke="#000000" points="228.5,-399.5 228.5,-418.5 297.5,-418.5 297.5,-399.5 228.5,-399.5"/>
<text text-anchor="middle" x="263" y="-406.5" font-family="Helvetica,sans-Serif" font-size="10.00" fill="#000000">Shader::use</text>
</a>
</g>
</g>
<!-- Node2&#45;&gt;Node4 -->
<g id="edge2" class="edge">
<title>Node2&#45;&gt;Node4</title>
<path fill="none" stroke="#191970" d="M73.1696,-232.8179C83.1128,-261.9553 116.6149,-348.4838 176,-390 188.2352,-398.5537 203.6185,-403.3578 218.034,-406.024"/>
<polygon fill="#191970" stroke="#191970" points="217.8837,-409.5422 228.3009,-407.6106 218.9528,-402.6243 217.8837,-409.5422"/>
</g>
<!-- Node5 -->
<g id="node4" class="node">
<title>Node5</title>
<g id="a_node4"><a xlink:href="class_base_object.html#a6c6248416397365ed10ff35af51f6951" target="_top" xlink:title="BaseObject::isSupporting\lLighting">
<polygon fill="#ffffff" stroke="#000000" points="199,-350 199,-380 327,-380 327,-350 199,-350"/>
<text text-anchor="start" x="207" y="-368" font-family="Helvetica,sans-Serif" font-size="10.00" fill="#000000">BaseObject::isSupporting</text>
<text text-anchor="middle" x="263" y="-357" font-family="Helvetica,sans-Serif" font-size="10.00" fill="#000000">Lighting</text>
</a>
</g>
</g>
<!-- Node2&#45;&gt;Node5 -->
<g id="edge3" class="edge">
<title>Node2&#45;&gt;Node5</title>
<path fill="none" stroke="#191970" d="M75.8451,-232.6294C90.0454,-255.1839 128.6947,-311.7331 176,-341 180.3034,-343.6624 184.9056,-346.035 189.6629,-348.1486"/>
<polygon fill="#191970" stroke="#191970" points="188.3814,-351.4057 198.9646,-351.902 191.0008,-344.9142 188.3814,-351.4057"/>
</g>
<!-- Node6 -->
<g id="node5" class="node">
<title>Node6</title>
<g id="a_node5"><a xlink:href="class_additional_parameters.html#a1d3310c8f694b12193d305f3785ff4c1" target="_top" xlink:title="AdditionalParameters\l::contains">
<polygon fill="#ffffff" stroke="#000000" points="208,-301 208,-331 318,-331 318,-301 208,-301"/>
<text text-anchor="start" x="216" y="-319" font-family="Helvetica,sans-Serif" font-size="10.00" fill="#000000">AdditionalParameters</text>
<text text-anchor="middle" x="263" y="-308" font-family="Helvetica,sans-Serif" font-size="10.00" fill="#000000">::contains</text>
</a>
</g>
</g>
<!-- Node2&#45;&gt;Node6 -->
<g id="edge4" class="edge">
<title>Node2&#45;&gt;Node6</title>
<path fill="none" stroke="#191970" d="M82.0041,-232.6074C100.9375,-247.3313 139.3599,-275.501 176,-292 183.0317,-295.1664 190.5755,-298.0024 198.1745,-300.518"/>
<polygon fill="#191970" stroke="#191970" points="197.2059,-303.8822 207.795,-303.5338 199.2998,-297.2027 197.2059,-303.8822"/>
</g>
<!-- Node7 -->
<g id="node6" class="node">
<title>Node7</title>
<g id="a_node6"><a xlink:href="class_old_directional_light.html#ade0dc1695e4dde59fdc6fafdb1ada367" target="_top" xlink:title="OldDirectionalLight\l::shaderSet">
<polygon fill="#ffffff" stroke="#000000" points="213.5,-252 213.5,-282 312.5,-282 312.5,-252 213.5,-252"/>
<text text-anchor="start" x="221.5" y="-270" font-family="Helvetica,sans-Serif" font-size="10.00" fill="#000000">OldDirectionalLight</text>
<text text-anchor="middle" x="263" y="-259" font-family="Helvetica,sans-Serif" font-size="10.00" fill="#000000">::shaderSet</text>
</a>
</g>
</g>
<!-- Node2&#45;&gt;Node7 -->
<g id="edge5" class="edge">
<title>Node2&#45;&gt;Node7</title>
<path fill="none" stroke="#191970" d="M111.8781,-232.5473C138.6719,-238.6558 173.8426,-246.674 203.512,-253.438"/>
<polygon fill="#191970" stroke="#191970" points="202.8149,-256.8688 213.3428,-255.6792 204.3709,-250.0439 202.8149,-256.8688"/>
</g>
<!-- Node8 -->
<g id="node7" class="node">
<title>Node8</title>
<g id="a_node7"><a xlink:href="class_shader.html#a810238d7b925c90a6495b6c25ffdb568" target="_top" xlink:title="Shader::setUniform">
<polygon fill="#ffffff" stroke="#000000" points="390,-213.5 390,-232.5 491,-232.5 491,-213.5 390,-213.5"/>
<text text-anchor="middle" x="440.5" y="-220.5" font-family="Helvetica,sans-Serif" font-size="10.00" fill="#000000">Shader::setUniform</text>
</a>
</g>
</g>
<!-- Node2&#45;&gt;Node8 -->
<g id="edge7" class="edge">
<title>Node2&#45;&gt;Node8</title>
<path fill="none" stroke="#191970" d="M140.1238,-223C209.3233,-223 314.0316,-223 379.7746,-223"/>
<polygon fill="#191970" stroke="#191970" points="379.98,-226.5001 389.98,-223 379.9799,-219.5001 379.98,-226.5001"/>
</g>
<!-- Node9 -->
<g id="node8" class="node">
<title>Node9</title>
<g id="a_node8"><a xlink:href="class_additional_parameters.html#aae5ee1ca566ac5fc96721f9b5a72ddf4" target="_top" xlink:title="AdditionalParameters::get">
<polygon fill="#ffffff" stroke="#000000" points="198.5,-175.5 198.5,-194.5 327.5,-194.5 327.5,-175.5 198.5,-175.5"/>
<text text-anchor="middle" x="263" y="-182.5" font-family="Helvetica,sans-Serif" font-size="10.00" fill="#000000">AdditionalParameters::get</text>
</a>
</g>
</g>
<!-- Node2&#45;&gt;Node9 -->
<g id="edge8" class="edge">
<title>Node2&#45;&gt;Node9</title>
<path fill="none" stroke="#191970" d="M118.702,-213.411C144.8588,-208.261 177.2837,-201.8768 204.7671,-196.4656"/>
<polygon fill="#191970" stroke="#191970" points="205.5127,-199.886 214.6482,-194.5201 204.1604,-193.0179 205.5127,-199.886"/>
</g>
<!-- Node10 -->
<g id="node9" class="node">
<title>Node10</title>
<g id="a_node9"><a xlink:href="class_old_point_light.html#a76858e502a45bb563675853659e14991" target="_top" xlink:title="OldPointLight::getClosest\lPointLights">
<polygon fill="#ffffff" stroke="#000000" points="199,-126 199,-156 327,-156 327,-126 199,-126"/>
<text text-anchor="start" x="207" y="-144" font-family="Helvetica,sans-Serif" font-size="10.00" fill="#000000">OldPointLight::getClosest</text>
<text text-anchor="middle" x="263" y="-133" font-family="Helvetica,sans-Serif" font-size="10.00" fill="#000000">PointLights</text>
</a>
</g>
</g>
<!-- Node2&#45;&gt;Node10 -->
<g id="edge9" class="edge">
<title>Node2&#45;&gt;Node10</title>
<path fill="none" stroke="#191970" d="M85.2949,-213.4212C105.4585,-201.1142 142.3264,-179.708 176,-166 181.8268,-163.628 187.9586,-161.3866 194.1576,-159.2928"/>
<polygon fill="#191970" stroke="#191970" points="195.4875,-162.541 203.92,-156.1266 193.328,-155.8824 195.4875,-162.541"/>
</g>
<!-- Node11 -->
<g id="node10" class="node">
<title>Node11</title>
<g id="a_node10"><a xlink:href="class_base_object.html#a1bdbeb6fd454e9fc1c6e8868e546cd89" target="_top" xlink:title="BaseObject::getMaximumSupported\lPointLights">
<polygon fill="#ffffff" stroke="#000000" points="176,-77 176,-107 350,-107 350,-77 176,-77"/>
<text text-anchor="start" x="184" y="-95" font-family="Helvetica,sans-Serif" font-size="10.00" fill="#000000">BaseObject::getMaximumSupported</text>
<text text-anchor="middle" x="263" y="-84" font-family="Helvetica,sans-Serif" font-size="10.00" fill="#000000">PointLights</text>
</a>
</g>
</g>
<!-- Node2&#45;&gt;Node11 -->
<g id="edge10" class="edge">
<title>Node2&#45;&gt;Node11</title>
<path fill="none" stroke="#191970" d="M76.7892,-213.4863C92.0796,-192.7629 131.3831,-143.2983 176,-117 179.6554,-114.8454 183.5075,-112.8672 187.4742,-111.0521"/>
<polygon fill="#191970" stroke="#191970" points="189.026,-114.1969 196.8989,-107.1069 186.323,-107.7398 189.026,-114.1969"/>
</g>
<!-- Node12 -->
<g id="node11" class="node">
<title>Node12</title>
<g id="a_node11"><a xlink:href="class_base_object.html#ac78b5f4ad8069c91337483eddcca539b" target="_top" xlink:title="BaseObject::draw">
<polygon fill="#ffffff" stroke="#000000" points="215.5,-38.5 215.5,-57.5 310.5,-57.5 310.5,-38.5 215.5,-38.5"/>
<text text-anchor="middle" x="263" y="-45.5" font-family="Helvetica,sans-Serif" font-size="10.00" fill="#000000">BaseObject::draw</text>
</a>
</g>
</g>
<!-- Node2&#45;&gt;Node12 -->
<g id="edge11" class="edge">
<title>Node2&#45;&gt;Node12</title>
<path fill="none" stroke="#191970" d="M73.7144,-213.1264C84.6788,-185.4053 119.7068,-106.3858 176,-68 184.7331,-62.045 194.988,-57.8434 205.3341,-54.8837"/>
<polygon fill="#191970" stroke="#191970" points="206.3814,-58.2297 215.2346,-52.4099 204.6844,-51.4385 206.3814,-58.2297"/>
</g>
<!-- Node14 -->
<g id="node13" class="node">
<title>Node14</title>
<g id="a_node13"><a xlink:href="class_shader.html#a0e4233f8c77b4d0a4f2e52f4e1d100bf" target="_top" xlink:title="Shader::resetUse">
<polygon fill="#ffffff" stroke="#000000" points="216.5,-.5 216.5,-19.5 309.5,-19.5 309.5,-.5 216.5,-.5"/>
<text text-anchor="middle" x="263" y="-7.5" font-family="Helvetica,sans-Serif" font-size="10.00" fill="#000000">Shader::resetUse</text>
</a>
</g>
</g>
<!-- Node2&#45;&gt;Node14 -->
<g id="edge14" class="edge">
<title>Node2&#45;&gt;Node14</title>
<path fill="none" stroke="#191970" d="M72.2036,-213.4722C80.0791,-181.681 109.9548,-78.4689 176,-29 184.8107,-22.4007 195.4505,-18.0025 206.2204,-15.0917"/>
<polygon fill="#191970" stroke="#191970" points="207.1399,-18.4716 216.099,-12.816 205.5685,-11.6502 207.1399,-18.4716"/>
</g>
<!-- Node7&#45;&gt;Node8 -->
<g id="edge6" class="edge">
<title>Node7&#45;&gt;Node8</title>
<path fill="none" stroke="#191970" d="M312.916,-254.6265C337.6997,-248.4829 367.5161,-241.0918 392.0907,-235.0001"/>
<polygon fill="#191970" stroke="#191970" points="393.0587,-238.3661 401.9228,-232.5628 391.3744,-231.5718 393.0587,-238.3661"/>
</g>
<!-- Node12&#45;&gt;Node8 -->
<g id="edge12" class="edge">
<title>Node12&#45;&gt;Node8</title>
<path fill="none" stroke="#191970" d="M310.6768,-51.8014C324.3613,-54.7014 338.6386,-59.644 350,-68 397.1359,-102.6673 423.8141,-169.8695 434.6861,-203.2273"/>
<polygon fill="#191970" stroke="#191970" points="431.4598,-204.6389 437.7739,-213.1466 438.1434,-202.5582 431.4598,-204.6389"/>
</g>
<!-- Node13 -->
<g id="node12" class="node">
<title>Node13</title>
<g id="a_node12"><a xlink:href="class_vertex_array.html#acbd3f02e554fa827be46baf96d8bdabc" target="_top" xlink:title="VertexArray::execute">
<polygon fill="#ffffff" stroke="#000000" points="386,-38.5 386,-57.5 495,-57.5 495,-38.5 386,-38.5"/>
<text text-anchor="middle" x="440.5" y="-45.5" font-family="Helvetica,sans-Serif" font-size="10.00" fill="#000000">VertexArray::execute</text>
</a>
</g>
</g>
<!-- Node12&#45;&gt;Node13 -->
<g id="edge13" class="edge">
<title>Node12&#45;&gt;Node13</title>
<path fill="none" stroke="#191970" d="M310.5667,-48C330.6019,-48 354.2349,-48 375.8145,-48"/>
<polygon fill="#191970" stroke="#191970" points="375.8904,-51.5001 385.8904,-48 375.8904,-44.5001 375.8904,-51.5001"/>
</g>
</g>
</svg>
