<?xml version="1.0" encoding="UTF-8" standalone="no"?>
<!DOCTYPE svg PUBLIC "-//W3C//DTD SVG 1.1//EN"
 "http://www.w3.org/Graphics/SVG/1.1/DTD/svg11.dtd">
<!-- Generated by graphviz version 2.44.1 (20200629.0846)
 -->
<!-- Title: PlayerInput::inputMap Pages: 1 -->
<svg width="813pt" height="287pt"
 viewBox="0.00 0.00 813.00 287.47" xmlns="http://www.w3.org/2000/svg" xmlns:xlink="http://www.w3.org/1999/xlink">
<g id="graph0" class="graph" transform="scale(1 1) rotate(0) translate(4 283.47)">
<title>PlayerInput::inputMap</title>
<polygon fill="white" stroke="transparent" points="-4,4 -4,-283.47 809,-283.47 809,4 -4,4"/>
<!-- Node1 -->
<g id="node1" class="node">
<title>Node1</title>
<g id="a_node1"><a xlink:title="The map of GLFW windows to their associated PlayerInput instances.">
<polygon fill="#bfbfbf" stroke="black" points="694,-131.5 694,-150.5 805,-150.5 805,-131.5 694,-131.5"/>
<text text-anchor="middle" x="749.5" y="-138.5" font-family="Helvetica,sans-Serif" font-size="10.00">PlayerInput::inputMap</text>
</a>
</g>
</g>
<!-- Node2 -->
<g id="node2" class="node">
<title>Node2</title>
<g id="a_node2"><a xlink:href="class_player_input.html#a1159455dba7ecb31c935c4a51afb15c7" target="_top" xlink:title=" ">
<polygon fill="white" stroke="black" points="524,-214 524,-244 652,-244 652,-214 524,-214"/>
<text text-anchor="start" x="532" y="-232" font-family="Helvetica,sans-Serif" font-size="10.00">PlayerInput::handleCursor</text>
<text text-anchor="middle" x="588" y="-221" font-family="Helvetica,sans-Serif" font-size="10.00">Position</text>
</a>
</g>
</g>
<!-- Node1&#45;&gt;Node2 -->
<g id="edge1" class="edge">
<title>Node1&#45;&gt;Node2</title>
<path fill="none" stroke="midnightblue" d="M728.96,-156.86C711.24,-170.67 684,-190.53 658,-204 650.99,-207.63 643.32,-210.97 635.73,-213.95"/>
<polygon fill="midnightblue" stroke="midnightblue" points="731.17,-159.57 736.84,-150.62 726.83,-154.08 731.17,-159.57"/>
</g>
<!-- Node4 -->
<g id="node4" class="node">
<title>Node4</title>
<g id="a_node4"><a xlink:href="class_player_input.html#ac4b822917a8be991362091d2da7883e8" target="_top" xlink:title=" ">
<polygon fill="white" stroke="black" points="198,-197.5 198,-216.5 326,-216.5 326,-197.5 198,-197.5"/>
<text text-anchor="middle" x="262" y="-204.5" font-family="Helvetica,sans-Serif" font-size="10.00">PlayerInput::tryMakeInput</text>
</a>
</g>
</g>
<!-- Node1&#45;&gt;Node4 -->
<g id="edge13" class="edge">
<title>Node1&#45;&gt;Node4</title>
<path fill="none" stroke="midnightblue" d="M740.09,-159.78C726.96,-186.5 698.78,-234.41 658,-254 526.65,-317.09 343.48,-244.25 283.15,-216.69"/>
<polygon fill="midnightblue" stroke="midnightblue" points="743.28,-161.22 744.38,-150.68 736.95,-158.24 743.28,-161.22"/>
</g>
<!-- Node6 -->
<g id="node6" class="node">
<title>Node6</title>
<g id="a_node6"><a xlink:href="class_player_input.html#afb9d2e949dbd3d69c36e5d5519e43824" target="_top" xlink:title=" ">
<polygon fill="white" stroke="black" points="519,-175.5 519,-194.5 657,-194.5 657,-175.5 519,-175.5"/>
<text text-anchor="middle" x="588" y="-182.5" font-family="Helvetica,sans-Serif" font-size="10.00">PlayerInput::handleKeyInput</text>
</a>
</g>
</g>
<!-- Node1&#45;&gt;Node6 -->
<g id="edge5" class="edge">
<title>Node1&#45;&gt;Node6</title>
<path fill="none" stroke="midnightblue" d="M704.25,-153.23C689.54,-157.3 673.07,-161.84 658,-166 646.86,-169.07 634.71,-172.42 623.75,-175.44"/>
<polygon fill="midnightblue" stroke="midnightblue" points="705.42,-156.54 714.12,-150.5 703.55,-149.79 705.42,-156.54"/>
</g>
<!-- Node7 -->
<g id="node7" class="node">
<title>Node7</title>
<g id="a_node7"><a xlink:href="class_player_input.html#aba00f66210c0c6569823c25afda4a5da" target="_top" xlink:title=" ">
<polygon fill="white" stroke="black" points="523.5,-126 523.5,-156 652.5,-156 652.5,-126 523.5,-126"/>
<text text-anchor="start" x="531.5" y="-144" font-family="Helvetica,sans-Serif" font-size="10.00">PlayerInput::handleMouse</text>
<text text-anchor="middle" x="588" y="-133" font-family="Helvetica,sans-Serif" font-size="10.00">ButtonInput</text>
</a>
</g>
</g>
<!-- Node1&#45;&gt;Node7 -->
<g id="edge7" class="edge">
<title>Node1&#45;&gt;Node7</title>
<path fill="none" stroke="midnightblue" d="M683.58,-141C673.41,-141 662.91,-141 652.77,-141"/>
<polygon fill="midnightblue" stroke="midnightblue" points="683.61,-144.5 693.61,-141 683.61,-137.5 683.61,-144.5"/>
</g>
<!-- Node8 -->
<g id="node8" class="node">
<title>Node8</title>
<g id="a_node8"><a xlink:href="class_player_input.html#a48150e7bcc0b23258071f59ff2636590" target="_top" xlink:title=" ">
<polygon fill="white" stroke="black" points="525.5,-77 525.5,-107 650.5,-107 650.5,-77 525.5,-77"/>
<text text-anchor="start" x="533.5" y="-95" font-family="Helvetica,sans-Serif" font-size="10.00">PlayerInput::handleScroll</text>
<text text-anchor="middle" x="588" y="-84" font-family="Helvetica,sans-Serif" font-size="10.00">Input</text>
</a>
</g>
</g>
<!-- Node1&#45;&gt;Node8 -->
<g id="edge9" class="edge">
<title>Node1&#45;&gt;Node8</title>
<path fill="none" stroke="midnightblue" d="M707.67,-128.46C686.42,-121.93 660.28,-113.9 637.95,-107.04"/>
<polygon fill="midnightblue" stroke="midnightblue" points="706.78,-131.84 717.37,-131.44 708.84,-125.15 706.78,-131.84"/>
</g>
<!-- Node9 -->
<g id="node9" class="node">
<title>Node9</title>
<g id="a_node9"><a xlink:href="class_player_input.html#af99688e0116feca7e153e551a056fd24" target="_top" xlink:title=" ">
<polygon fill="white" stroke="black" points="518,-38.5 518,-57.5 658,-57.5 658,-38.5 518,-38.5"/>
<text text-anchor="middle" x="588" y="-45.5" font-family="Helvetica,sans-Serif" font-size="10.00">PlayerInput::handleTextInput</text>
</a>
</g>
</g>
<!-- Node1&#45;&gt;Node9 -->
<g id="edge11" class="edge">
<title>Node1&#45;&gt;Node9</title>
<path fill="none" stroke="midnightblue" d="M731.99,-123.83C714.93,-107.04 686.82,-81.9 658,-67 650.6,-63.18 642.35,-60.05 634.2,-57.53"/>
<polygon fill="midnightblue" stroke="midnightblue" points="729.89,-126.69 739.42,-131.32 734.86,-121.75 729.89,-126.69"/>
</g>
<!-- Node10 -->
<g id="node10" class="node">
<title>Node10</title>
<g id="a_node10"><a xlink:href="class_player_input.html#aba1dd18f95d0c7d01ce2114297bbf101" target="_top" xlink:title=" ">
<polygon fill="white" stroke="black" points="525,-0.5 525,-19.5 651,-19.5 651,-0.5 525,-0.5"/>
<text text-anchor="middle" x="588" y="-7.5" font-family="Helvetica,sans-Serif" font-size="10.00">PlayerInput::~PlayerInput</text>
</a>
</g>
</g>
<!-- Node1&#45;&gt;Node10 -->
<g id="edge14" class="edge">
<title>Node1&#45;&gt;Node10</title>
<path fill="none" stroke="midnightblue" d="M738.43,-122.33C723.96,-97.29 694.92,-53.19 658,-29 652.08,-25.12 645.37,-22.02 638.52,-19.56"/>
<polygon fill="midnightblue" stroke="midnightblue" points="735.46,-124.19 743.41,-131.2 741.57,-120.77 735.46,-124.19"/>
</g>
<!-- Node3 -->
<g id="node3" class="node">
<title>Node3</title>
<g id="a_node3"><a xlink:href="class_player_input.html#ac7e7f65b22d437bc66ac1eaeb91c0d99" target="_top" xlink:title=" ">
<polygon fill="white" stroke="black" points="362,-153.5 362,-172.5 482,-172.5 482,-153.5 362,-153.5"/>
<text text-anchor="middle" x="422" y="-160.5" font-family="Helvetica,sans-Serif" font-size="10.00">PlayerInput::PlayerInput</text>
</a>
</g>
</g>
<!-- Node2&#45;&gt;Node3 -->
<g id="edge2" class="edge">
<title>Node2&#45;&gt;Node3</title>
<path fill="none" stroke="midnightblue" d="M534.69,-210.42C529.04,-208.3 523.39,-206.14 518,-204 492.45,-193.87 463.51,-181.2 444.35,-172.65"/>
<polygon fill="midnightblue" stroke="midnightblue" points="533.56,-213.73 544.15,-213.93 535.99,-207.17 533.56,-213.73"/>
</g>
<!-- Node3&#45;&gt;Node4 -->
<g id="edge3" class="edge">
<title>Node3&#45;&gt;Node4</title>
<path fill="none" stroke="midnightblue" d="M377.02,-175.25C351.79,-182.27 320.6,-190.96 297.22,-197.47"/>
<polygon fill="midnightblue" stroke="midnightblue" points="378.02,-178.6 386.72,-172.55 376.14,-171.86 378.02,-178.6"/>
</g>
<!-- Node5 -->
<g id="node5" class="node">
<title>Node5</title>
<g id="a_node5"><a xlink:href="class_open_g_l_context.html#a23d14e241881d033a39ce686db52ad25" target="_top" xlink:title=" ">
<polygon fill="white" stroke="black" points="0,-197.5 0,-216.5 162,-216.5 162,-197.5 0,-197.5"/>
<text text-anchor="middle" x="81" y="-204.5" font-family="Helvetica,sans-Serif" font-size="10.00">OpenGLContext::OpenGLContext</text>
</a>
</g>
</g>
<!-- Node4&#45;&gt;Node5 -->
<g id="edge4" class="edge">
<title>Node4&#45;&gt;Node5</title>
<path fill="none" stroke="midnightblue" d="M187.71,-207C179.27,-207 170.63,-207 162.1,-207"/>
<polygon fill="midnightblue" stroke="midnightblue" points="187.89,-210.5 197.89,-207 187.89,-203.5 187.89,-210.5"/>
</g>
<!-- Node6&#45;&gt;Node3 -->
<g id="edge6" class="edge">
<title>Node6&#45;&gt;Node3</title>
<path fill="none" stroke="midnightblue" d="M508.77,-174.51C499.77,-173.3 490.72,-172.08 482.03,-170.92"/>
<polygon fill="midnightblue" stroke="midnightblue" points="508.5,-178 518.87,-175.86 509.43,-171.06 508.5,-178"/>
</g>
<!-- Node7&#45;&gt;Node3 -->
<g id="edge8" class="edge">
<title>Node7&#45;&gt;Node3</title>
<path fill="none" stroke="midnightblue" d="M512.9,-150.94C502.6,-152.32 492.13,-153.73 482.15,-155.07"/>
<polygon fill="midnightblue" stroke="midnightblue" points="513.68,-154.37 523.12,-149.57 512.75,-147.43 513.68,-154.37"/>
</g>
<!-- Node8&#45;&gt;Node3 -->
<g id="edge10" class="edge">
<title>Node8&#45;&gt;Node3</title>
<path fill="none" stroke="midnightblue" d="M533.72,-110.68C528.38,-112.74 523.06,-114.86 518,-117 490.82,-128.47 460.25,-143.71 441.31,-153.44"/>
<polygon fill="midnightblue" stroke="midnightblue" points="535.18,-113.87 543.3,-107.06 532.71,-107.32 535.18,-113.87"/>
</g>
<!-- Node9&#45;&gt;Node3 -->
<g id="edge12" class="edge">
<title>Node9&#45;&gt;Node3</title>
<path fill="none" stroke="midnightblue" d="M529.66,-61.22C525.61,-62.93 521.68,-64.85 518,-67 478.34,-90.22 443.72,-134.16 429.67,-153.48"/>
<polygon fill="midnightblue" stroke="midnightblue" points="531.14,-64.41 539.27,-57.61 528.68,-57.85 531.14,-64.41"/>
</g>
</g>
</svg>
