<?xml version="1.0" encoding="UTF-8" standalone="no"?>
<!DOCTYPE svg PUBLIC "-//W3C//DTD SVG 1.1//EN"
 "http://www.w3.org/Graphics/SVG/1.1/DTD/svg11.dtd">
<!-- Generated by graphviz version 2.44.1 (20200629.0846)
 -->
<!-- Title: Transform::add Pages: 1 -->
<svg width="374pt" height="75pt"
 viewBox="0.00 0.00 374.00 75.00" xmlns="http://www.w3.org/2000/svg" xmlns:xlink="http://www.w3.org/1999/xlink">
<g id="graph0" class="graph" transform="scale(1 1) rotate(0) translate(4 71)">
<title>Transform::add</title>
<polygon fill="white" stroke="transparent" points="-4,4 -4,-71 370,-71 370,4 -4,4"/>
<!-- Node1 -->
<g id="node1" class="node">
<title>Node1</title>
<g id="a_node1"><a xlink:title=" ">
<polygon fill="#bfbfbf" stroke="black" points="0,-28.5 0,-47.5 81,-47.5 81,-28.5 0,-28.5"/>
<text text-anchor="middle" x="40.5" y="-35.5" font-family="Helvetica,sans-Serif" font-size="10.00">Transform::add</text>
</a>
</g>
</g>
<!-- Node2 -->
<g id="node2" class="node">
<title>Node2</title>
<g id="a_node2"><a xlink:href="class_scene.html#aed4bf402a8745e782fb5f711bb6d20ad" target="_top" xlink:title=" ">
<polygon fill="white" stroke="black" points="117,-28.5 117,-47.5 183,-47.5 183,-28.5 117,-28.5"/>
<text text-anchor="middle" x="150" y="-35.5" font-family="Helvetica,sans-Serif" font-size="10.00">Scene::add</text>
</a>
</g>
</g>
<!-- Node1&#45;&gt;Node2 -->
<g id="edge1" class="edge">
<title>Node1&#45;&gt;Node2</title>
<path fill="none" stroke="midnightblue" d="M81.22,-38C89.56,-38 98.38,-38 106.8,-38"/>
<polygon fill="midnightblue" stroke="midnightblue" points="106.81,-41.5 116.81,-38 106.81,-34.5 106.81,-41.5"/>
</g>
<!-- Node3 -->
<g id="node3" class="node">
<title>Node3</title>
<g id="a_node3"><a xlink:href="class_scene.html#a5e62816b2e2c566c8f1bc151688c2c36" target="_top" xlink:title=" ">
<polygon fill="white" stroke="black" points="252,-47.5 252,-66.5 333,-66.5 333,-47.5 252,-47.5"/>
<text text-anchor="middle" x="292.5" y="-54.5" font-family="Helvetica,sans-Serif" font-size="10.00">Scene::remove</text>
</a>
</g>
</g>
<!-- Node1&#45;&gt;Node3 -->
<g id="edge4" class="edge">
<title>Node1&#45;&gt;Node3</title>
<path fill="none" stroke="midnightblue" d="M72.03,-47.51C85.65,-51.27 101.98,-55.14 117,-57 158.69,-62.16 206.41,-61.73 241.4,-60.26"/>
<polygon fill="midnightblue" stroke="midnightblue" points="242,-63.73 251.83,-59.77 241.67,-56.74 242,-63.73"/>
</g>
<!-- Node4 -->
<g id="node4" class="node">
<title>Node4</title>
<g id="a_node4"><a xlink:href="class_transform.html#a9fdc9cf291d37f17003fab4834d0ddb2" target="_top" xlink:title=" ">
<polygon fill="white" stroke="black" points="219,-0.5 219,-19.5 366,-19.5 366,-0.5 219,-0.5"/>
<text text-anchor="middle" x="292.5" y="-7.5" font-family="Helvetica,sans-Serif" font-size="10.00">Transform::removeFromParent</text>
</a>
</g>
</g>
<!-- Node1&#45;&gt;Node4 -->
<g id="edge5" class="edge">
<title>Node1&#45;&gt;Node4</title>
<path fill="none" stroke="midnightblue" d="M73.55,-28.46C86.87,-24.89 102.56,-21.17 117,-19 146.65,-14.55 179.42,-12.19 208.48,-10.98"/>
<polygon fill="midnightblue" stroke="midnightblue" points="208.73,-14.47 218.59,-10.59 208.47,-7.48 208.73,-14.47"/>
</g>
<!-- Node2&#45;&gt;Node3 -->
<g id="edge2" class="edge">
<title>Node2&#45;&gt;Node3</title>
<path fill="none" stroke="midnightblue" d="M183.23,-42.36C200.62,-44.71 222.45,-47.66 241.95,-50.3"/>
<polygon fill="midnightblue" stroke="midnightblue" points="241.51,-53.77 251.89,-51.64 242.45,-46.84 241.51,-53.77"/>
</g>
<!-- Node2&#45;&gt;Node4 -->
<g id="edge3" class="edge">
<title>Node2&#45;&gt;Node4</title>
<path fill="none" stroke="midnightblue" d="M183.23,-31.58C198.2,-28.59 216.46,-24.95 233.69,-21.52"/>
<polygon fill="midnightblue" stroke="midnightblue" points="234.56,-24.92 243.69,-19.53 233.19,-18.05 234.56,-24.92"/>
</g>
</g>
</svg>
