<?xml version="1.0" encoding="UTF-8" standalone="no"?>
<!DOCTYPE svg PUBLIC "-//W3C//DTD SVG 1.1//EN"
 "http://www.w3.org/Graphics/SVG/1.1/DTD/svg11.dtd">
<!-- Generated by graphviz version 2.44.1 (20200629.0846)
 -->
<!-- Title: DirectionalLight::getDirection Pages: 1 -->
<svg width="489pt" height="78pt"
 viewBox="0.00 0.00 489.00 77.50" xmlns="http://www.w3.org/2000/svg" xmlns:xlink="http://www.w3.org/1999/xlink">
<g id="graph0" class="graph" transform="scale(1 1) rotate(0) translate(4 73.5)">
<title>DirectionalLight::getDirection</title>
<polygon fill="white" stroke="transparent" points="-4,4 -4,-73.5 485,-73.5 485,4 -4,4"/>
<!-- Node1 -->
<g id="node1" class="node">
<title>Node1</title>
<g id="a_node1"><a xlink:title=" ">
<polygon fill="#bfbfbf" stroke="black" points="340,-22.5 340,-41.5 481,-41.5 481,-22.5 340,-22.5"/>
<text text-anchor="middle" x="410.5" y="-29.5" font-family="Helvetica,sans-Serif" font-size="10.00">DirectionalLight::getDirection</text>
</a>
</g>
</g>
<!-- Node2 -->
<g id="node2" class="node">
<title>Node2</title>
<g id="a_node2"><a xlink:href="class_render_scene.html#a0eeec8b9cbe0baa621ac4d550b7f969e" target="_top" xlink:title=" ">
<polygon fill="white" stroke="black" points="164,-39 164,-69 304,-69 304,-39 164,-39"/>
<text text-anchor="start" x="172" y="-57" font-family="Helvetica,sans-Serif" font-size="10.00">RenderScene::setDirectional</text>
<text text-anchor="middle" x="234" y="-46" font-family="Helvetica,sans-Serif" font-size="10.00">Light</text>
</a>
</g>
</g>
<!-- Node1&#45;&gt;Node2 -->
<g id="edge1" class="edge">
<title>Node1&#45;&gt;Node2</title>
<path fill="none" stroke="midnightblue" d="M329.76,-42.05C321.17,-43.14 312.49,-44.23 304.04,-45.3"/>
<polygon fill="midnightblue" stroke="midnightblue" points="330.3,-45.51 339.78,-40.79 329.42,-38.57 330.3,-45.51"/>
</g>
<!-- Node3 -->
<g id="node3" class="node">
<title>Node3</title>
<g id="a_node3"><a xlink:href="class_main_renderer.html#af9f29fe27421266481a2a89c7447e1d0" target="_top" xlink:title=" ">
<polygon fill="white" stroke="black" points="169.5,-0.5 169.5,-19.5 298.5,-19.5 298.5,-0.5 169.5,-0.5"/>
<text text-anchor="middle" x="234" y="-7.5" font-family="Helvetica,sans-Serif" font-size="10.00">MainRenderer::setSkybox</text>
</a>
</g>
</g>
<!-- Node1&#45;&gt;Node3 -->
<g id="edge2" class="edge">
<title>Node1&#45;&gt;Node3</title>
<path fill="none" stroke="midnightblue" d="M329.83,-21.96C319.39,-20.64 308.8,-19.3 298.67,-18.03"/>
<polygon fill="midnightblue" stroke="midnightblue" points="329.42,-25.43 339.78,-23.21 330.3,-18.49 329.42,-25.43"/>
</g>
<!-- Node4 -->
<g id="node4" class="node">
<title>Node4</title>
<g id="a_node4"><a xlink:href="class_render_scene.html#acd1e6c39002e1433eed94797f592ca65" target="_top" xlink:title=" ">
<polygon fill="white" stroke="black" points="0,-0.5 0,-19.5 128,-19.5 128,-0.5 0,-0.5"/>
<text text-anchor="middle" x="64" y="-7.5" font-family="Helvetica,sans-Serif" font-size="10.00">RenderScene::setSkybox</text>
</a>
</g>
</g>
<!-- Node3&#45;&gt;Node4 -->
<g id="edge3" class="edge">
<title>Node3&#45;&gt;Node4</title>
<path fill="none" stroke="midnightblue" d="M159.19,-10C148.81,-10 138.21,-10 128.05,-10"/>
<polygon fill="midnightblue" stroke="midnightblue" points="159.49,-13.5 169.49,-10 159.49,-6.5 159.49,-13.5"/>
</g>
</g>
</svg>
