<?xml version="1.0" encoding="UTF-8" standalone="no"?>
<!DOCTYPE svg PUBLIC "-//W3C//DTD SVG 1.1//EN"
 "http://www.w3.org/Graphics/SVG/1.1/DTD/svg11.dtd">
<!-- Generated by graphviz version 2.44.1 (20200629.0846)
 -->
<!-- Title: Texture::bindTexture Pages: 1 -->
<svg width="457pt" height="104pt"
 viewBox="0.00 0.00 457.00 104.00" xmlns="http://www.w3.org/2000/svg" xmlns:xlink="http://www.w3.org/1999/xlink">
<g id="graph0" class="graph" transform="scale(1 1) rotate(0) translate(4 100)">
<title>Texture::bindTexture</title>
<polygon fill="white" stroke="transparent" points="-4,4 -4,-100 453,-100 453,4 -4,4"/>
<!-- Node1 -->
<g id="node1" class="node">
<title>Node1</title>
<g id="a_node1"><a xlink:title=" ">
<polygon fill="#bfbfbf" stroke="black" points="344,-19.5 344,-38.5 449,-38.5 449,-19.5 344,-19.5"/>
<text text-anchor="middle" x="396.5" y="-26.5" font-family="Helvetica,sans-Serif" font-size="10.00">Texture::bindTexture</text>
</a>
</g>
</g>
<!-- Node2 -->
<g id="node2" class="node">
<title>Node2</title>
<g id="a_node2"><a xlink:href="class_texture.html#a231e370a9d17ef609b53bd1f0f303535" target="_top" xlink:title=" ">
<polygon fill="white" stroke="black" points="186.5,-38.5 186.5,-57.5 289.5,-57.5 289.5,-38.5 186.5,-38.5"/>
<text text-anchor="middle" x="238" y="-45.5" font-family="Helvetica,sans-Serif" font-size="10.00">Texture::setFiltering</text>
</a>
</g>
</g>
<!-- Node1&#45;&gt;Node2 -->
<g id="edge1" class="edge">
<title>Node1&#45;&gt;Node2</title>
<path fill="none" stroke="midnightblue" d="M333.82,-36.49C319.15,-38.27 303.67,-40.15 289.56,-41.86"/>
<polygon fill="midnightblue" stroke="midnightblue" points="334.32,-39.95 343.82,-35.27 333.47,-33 334.32,-39.95"/>
</g>
<!-- Node6 -->
<g id="node6" class="node">
<title>Node6</title>
<g id="a_node6"><a xlink:href="class_uniforms_handler.html#a8e6defcc09674d0a2bac25ef19cd2aa0" target="_top" xlink:title=" ">
<polygon fill="white" stroke="black" points="168,-0.5 168,-19.5 308,-19.5 308,-0.5 168,-0.5"/>
<text text-anchor="middle" x="238" y="-7.5" font-family="Helvetica,sans-Serif" font-size="10.00">UniformsHandler::setTexture</text>
</a>
</g>
</g>
<!-- Node1&#45;&gt;Node6 -->
<g id="edge5" class="edge">
<title>Node1&#45;&gt;Node6</title>
<path fill="none" stroke="midnightblue" d="M333.75,-21.5C325.37,-20.49 316.72,-19.44 308.21,-18.4"/>
<polygon fill="midnightblue" stroke="midnightblue" points="333.47,-25 343.82,-22.73 334.32,-18.05 333.47,-25"/>
</g>
<!-- Node3 -->
<g id="node3" class="node">
<title>Node3</title>
<g id="a_node3"><a xlink:href="class_cube_texture.html#a1f0d7b4c26a794694a9f3e5e3d07fdf6" target="_top" xlink:title=" ">
<polygon fill="white" stroke="black" points="0,-76.5 0,-95.5 132,-95.5 132,-76.5 0,-76.5"/>
<text text-anchor="middle" x="66" y="-83.5" font-family="Helvetica,sans-Serif" font-size="10.00">CubeTexture::CubeTexture</text>
</a>
</g>
</g>
<!-- Node2&#45;&gt;Node3 -->
<g id="edge2" class="edge">
<title>Node2&#45;&gt;Node3</title>
<path fill="none" stroke="midnightblue" d="M184.1,-59.82C160.13,-65.18 132.18,-71.43 109.59,-76.48"/>
<polygon fill="midnightblue" stroke="midnightblue" points="185.11,-63.19 194.1,-57.59 183.58,-56.35 185.11,-63.19"/>
</g>
<!-- Node4 -->
<g id="node4" class="node">
<title>Node4</title>
<g id="a_node4"><a xlink:href="class_texture.html#a44a9ad442e6ce708582bdde4757c602a" target="_top" xlink:title=" ">
<polygon fill="white" stroke="black" points="22.5,-38.5 22.5,-57.5 109.5,-57.5 109.5,-38.5 22.5,-38.5"/>
<text text-anchor="middle" x="66" y="-45.5" font-family="Helvetica,sans-Serif" font-size="10.00">Texture::Texture</text>
</a>
</g>
</g>
<!-- Node2&#45;&gt;Node4 -->
<g id="edge3" class="edge">
<title>Node2&#45;&gt;Node4</title>
<path fill="none" stroke="midnightblue" d="M176.19,-48C154.15,-48 129.74,-48 109.61,-48"/>
<polygon fill="midnightblue" stroke="midnightblue" points="176.45,-51.5 186.45,-48 176.45,-44.5 176.45,-51.5"/>
</g>
<!-- Node5 -->
<g id="node5" class="node">
<title>Node5</title>
<g id="a_node5"><a xlink:href="class_texture2_d.html#af354f2ffe9520efe5543ebdc36cda847" target="_top" xlink:title=" ">
<polygon fill="white" stroke="black" points="10.5,-0.5 10.5,-19.5 121.5,-19.5 121.5,-0.5 10.5,-0.5"/>
<text text-anchor="middle" x="66" y="-7.5" font-family="Helvetica,sans-Serif" font-size="10.00">Texture2D::Texture2D</text>
</a>
</g>
</g>
<!-- Node2&#45;&gt;Node5 -->
<g id="edge4" class="edge">
<title>Node2&#45;&gt;Node5</title>
<path fill="none" stroke="midnightblue" d="M184.1,-36.18C160.13,-30.82 132.18,-24.57 109.59,-19.52"/>
<polygon fill="midnightblue" stroke="midnightblue" points="183.58,-39.65 194.1,-38.41 185.11,-32.81 183.58,-39.65"/>
</g>
</g>
</svg>
