<?xml version="1.0" encoding="UTF-8" standalone="no"?>
<!DOCTYPE svg PUBLIC "-//W3C//DTD SVG 1.1//EN"
 "http://www.w3.org/Graphics/SVG/1.1/DTD/svg11.dtd">
<!-- Generated by graphviz version 2.40.1 (20161225.0304)
 -->
<!-- Title: LightingRegistrySystem::updateHemisphereLights Pages: 1 -->
<svg width="293pt" height="104pt"
 viewBox="0.00 0.00 293.00 104.00" xmlns="http://www.w3.org/2000/svg" xmlns:xlink="http://www.w3.org/1999/xlink">
<g id="graph0" class="graph" transform="scale(1 1) rotate(0) translate(4 100)">
<title>LightingRegistrySystem::updateHemisphereLights</title>
<polygon fill="#ffffff" stroke="transparent" points="-4,4 -4,-100 289,-100 289,4 -4,4"/>
<!-- Node29 -->
<g id="node1" class="node">
<title>Node29</title>
<polygon fill="#bfbfbf" stroke="#000000" points="0,-33 0,-63 131,-63 131,-33 0,-33"/>
<text text-anchor="start" x="8" y="-51" font-family="Helvetica,sans-Serif" font-size="10.00" fill="#000000">LightingRegistrySystem</text>
<text text-anchor="middle" x="65.5" y="-40" font-family="Helvetica,sans-Serif" font-size="10.00" fill="#000000">::updateHemisphereLights</text>
</g>
<!-- Node30 -->
<g id="node2" class="node">
<title>Node30</title>
<g id="a_node2"><a xlink:href="class_material.html#a7476a27aaaa3337d6f4dfa3c5e44d22d" target="_top" xlink:title="Material::setDefine">
<polygon fill="#ffffff" stroke="#000000" points="176.5,-76.5 176.5,-95.5 275.5,-95.5 275.5,-76.5 176.5,-76.5"/>
<text text-anchor="middle" x="226" y="-83.5" font-family="Helvetica,sans-Serif" font-size="10.00" fill="#000000">Material::setDefine</text>
</a>
</g>
</g>
<!-- Node29&#45;&gt;Node30 -->
<g id="edge1" class="edge">
<title>Node29&#45;&gt;Node30</title>
<path fill="none" stroke="#191970" d="M128.9338,-63.0186C144.4539,-66.6931 160.8526,-70.5757 175.6645,-74.0826"/>
<polygon fill="#191970" stroke="#191970" points="175.0977,-77.5451 185.6351,-76.4432 176.7105,-70.7334 175.0977,-77.5451"/>
</g>
<!-- Node31 -->
<g id="node3" class="node">
<title>Node31</title>
<g id="a_node3"><a xlink:href="class_material.html#a1349dd91417148263bc6d9ec0462c86a" target="_top" xlink:title="Material::removeDefine">
<polygon fill="#ffffff" stroke="#000000" points="167,-38.5 167,-57.5 285,-57.5 285,-38.5 167,-38.5"/>
<text text-anchor="middle" x="226" y="-45.5" font-family="Helvetica,sans-Serif" font-size="10.00" fill="#000000">Material::removeDefine</text>
</a>
</g>
</g>
<!-- Node29&#45;&gt;Node31 -->
<g id="edge2" class="edge">
<title>Node29&#45;&gt;Node31</title>
<path fill="none" stroke="#191970" d="M131.2446,-48C139.6149,-48 148.203,-48 156.6281,-48"/>
<polygon fill="#191970" stroke="#191970" points="156.7985,-51.5001 166.7985,-48 156.7985,-44.5001 156.7985,-51.5001"/>
</g>
<!-- Node32 -->
<g id="node4" class="node">
<title>Node32</title>
<g id="a_node4"><a xlink:href="class_material.html#ade3d70e1ef2ebc40918f7de6134ccc00" target="_top" xlink:title="Material::setUniform">
<polygon fill="#ffffff" stroke="#000000" points="173.5,-.5 173.5,-19.5 278.5,-19.5 278.5,-.5 173.5,-.5"/>
<text text-anchor="middle" x="226" y="-7.5" font-family="Helvetica,sans-Serif" font-size="10.00" fill="#000000">Material::setUniform</text>
</a>
</g>
</g>
<!-- Node29&#45;&gt;Node32 -->
<g id="edge3" class="edge">
<title>Node29&#45;&gt;Node32</title>
<path fill="none" stroke="#191970" d="M128.9338,-32.9814C144.4539,-29.3069 160.8526,-25.4243 175.6645,-21.9174"/>
<polygon fill="#191970" stroke="#191970" points="176.7105,-25.2666 185.6351,-19.5568 175.0977,-18.4549 176.7105,-25.2666"/>
</g>
</g>
</svg>
