<?xml version="1.0" encoding="UTF-8" standalone="no"?>
<!DOCTYPE svg PUBLIC "-//W3C//DTD SVG 1.1//EN"
 "http://www.w3.org/Graphics/SVG/1.1/DTD/svg11.dtd">
<!-- Generated by graphviz version 2.44.1 (20200629.0846)
 -->
<!-- Title: VertexArray::execute Pages: 1 -->
<svg width="925pt" height="154pt"
 viewBox="0.00 0.00 925.00 153.50" xmlns="http://www.w3.org/2000/svg" xmlns:xlink="http://www.w3.org/1999/xlink">
<g id="graph0" class="graph" transform="scale(1 1) rotate(0) translate(4 149.5)">
<title>VertexArray::execute</title>
<polygon fill="white" stroke="transparent" points="-4,4 -4,-149.5 921,-149.5 921,4 -4,4"/>
<!-- Node1 -->
<g id="node1" class="node">
<title>Node1</title>
<g id="a_node1"><a xlink:title=" ">
<polygon fill="#bfbfbf" stroke="black" points="808,-69 808,-88 917,-88 917,-69 808,-69"/>
<text text-anchor="middle" x="862.5" y="-76" font-family="Helvetica,sans-Serif" font-size="10.00">VertexArray::execute</text>
</a>
</g>
</g>
<!-- Node2 -->
<g id="node2" class="node">
<title>Node2</title>
<g id="a_node2"><a xlink:href="class_final_post_process.html#ae8760e789f2e068fd828e95e5ebf3d74" target="_top" xlink:title=" ">
<polygon fill="white" stroke="black" points="651,-126 651,-145 771,-145 771,-126 651,-126"/>
<text text-anchor="middle" x="711" y="-133" font-family="Helvetica,sans-Serif" font-size="10.00">FinalPostProcess::draw</text>
</a>
</g>
</g>
<!-- Node1&#45;&gt;Node2 -->
<g id="edge1" class="edge">
<title>Node1&#45;&gt;Node2</title>
<path fill="none" stroke="midnightblue" d="M830.89,-92.35C813.73,-99.89 791.85,-109.16 772,-116.5 762.98,-119.83 753.07,-123.12 743.95,-126"/>
<polygon fill="midnightblue" stroke="midnightblue" points="832.67,-95.39 840.39,-88.13 829.83,-88.99 832.67,-95.39"/>
</g>
<!-- Node4 -->
<g id="node4" class="node">
<title>Node4</title>
<g id="a_node4"><a xlink:href="class_skybox.html#a0798234f163ec6b1ae7944002640d14a" target="_top" xlink:title=" ">
<polygon fill="white" stroke="black" points="673,-88 673,-107 749,-107 749,-88 673,-88"/>
<text text-anchor="middle" x="711" y="-95" font-family="Helvetica,sans-Serif" font-size="10.00">Skybox::draw</text>
</a>
</g>
</g>
<!-- Node1&#45;&gt;Node4 -->
<g id="edge3" class="edge">
<title>Node1&#45;&gt;Node4</title>
<path fill="none" stroke="midnightblue" d="M797.77,-86.6C781.23,-88.7 763.94,-90.9 749.26,-92.76"/>
<polygon fill="midnightblue" stroke="midnightblue" points="798.47,-90.04 807.95,-85.31 797.59,-83.09 798.47,-90.04"/>
</g>
<!-- Node9 -->
<g id="node9" class="node">
<title>Node9</title>
<g id="a_node9"><a xlink:href="class_base_object.html#ac78b5f4ad8069c91337483eddcca539b" target="_top" xlink:title=" ">
<polygon fill="white" stroke="black" points="664,-50 664,-69 758,-69 758,-50 664,-50"/>
<text text-anchor="middle" x="711" y="-57" font-family="Helvetica,sans-Serif" font-size="10.00">BaseObject::draw</text>
</a>
</g>
</g>
<!-- Node1&#45;&gt;Node9 -->
<g id="edge8" class="edge">
<title>Node1&#45;&gt;Node9</title>
<path fill="none" stroke="midnightblue" d="M797.89,-70.42C784.58,-68.72 770.79,-66.97 758.25,-65.38"/>
<polygon fill="midnightblue" stroke="midnightblue" points="797.59,-73.91 807.95,-71.69 798.47,-66.96 797.59,-73.91"/>
</g>
<!-- Node11 -->
<g id="node11" class="node">
<title>Node11</title>
<g id="a_node11"><a xlink:href="class_base_object.html#af3cb04a275093f0128f6d5b65f4d1e43" target="_top" xlink:title=" ">
<polygon fill="white" stroke="black" points="650,-9 650,-28 772,-28 772,-9 650,-9"/>
<text text-anchor="middle" x="711" y="-16" font-family="Helvetica,sans-Serif" font-size="10.00">BaseObject::shapeDraw</text>
</a>
</g>
</g>
<!-- Node1&#45;&gt;Node11 -->
<g id="edge10" class="edge">
<title>Node1&#45;&gt;Node11</title>
<path fill="none" stroke="midnightblue" d="M830.41,-64.85C813.27,-57.43 791.55,-48.23 772,-40.5 761.27,-36.26 749.36,-31.83 738.99,-28.07"/>
<polygon fill="midnightblue" stroke="midnightblue" points="829.36,-68.21 839.92,-68.98 832.15,-61.79 829.36,-68.21"/>
</g>
<!-- Node3 -->
<g id="node3" class="node">
<title>Node3</title>
<g id="a_node3"><a xlink:href="class_post_process.html#a350a9220b662fdff23b12689953609b0" target="_top" xlink:title=" ">
<polygon fill="white" stroke="black" points="485,-126 485,-145 584,-145 584,-126 485,-126"/>
<text text-anchor="middle" x="534.5" y="-133" font-family="Helvetica,sans-Serif" font-size="10.00">PostProcess::draw</text>
</a>
</g>
</g>
<!-- Node2&#45;&gt;Node3 -->
<g id="edge2" class="edge">
<title>Node2&#45;&gt;Node3</title>
<path fill="none" stroke="midnightblue" d="M640.82,-135.5C621.83,-135.5 601.64,-135.5 584.08,-135.5"/>
<polygon fill="midnightblue" stroke="midnightblue" points="640.92,-139 650.92,-135.5 640.92,-132 640.92,-139"/>
</g>
<!-- Node5 -->
<g id="node5" class="node">
<title>Node5</title>
<g id="a_node5"><a xlink:href="class_main_renderer.html#a508a80df1c58c0820c8f18ced3a0558d" target="_top" xlink:title=" ">
<polygon fill="white" stroke="black" points="469,-88 469,-107 600,-107 600,-88 469,-88"/>
<text text-anchor="middle" x="534.5" y="-95" font-family="Helvetica,sans-Serif" font-size="10.00">MainRenderer::renderMain</text>
</a>
</g>
</g>
<!-- Node4&#45;&gt;Node5 -->
<g id="edge4" class="edge">
<title>Node4&#45;&gt;Node5</title>
<path fill="none" stroke="midnightblue" d="M662.96,-97.5C643.7,-97.5 621.09,-97.5 600.3,-97.5"/>
<polygon fill="midnightblue" stroke="midnightblue" points="662.99,-101 672.99,-97.5 662.99,-94 662.99,-101"/>
</g>
<!-- Node6 -->
<g id="node6" class="node">
<title>Node6</title>
<g id="a_node6"><a xlink:href="class_main_renderer.html#a7bdd84247ecd2942b26896524d84a863" target="_top" xlink:title=" ">
<polygon fill="white" stroke="black" points="309,-88 309,-107 419,-107 419,-88 309,-88"/>
<text text-anchor="middle" x="364" y="-95" font-family="Helvetica,sans-Serif" font-size="10.00">MainRenderer::render</text>
</a>
</g>
</g>
<!-- Node5&#45;&gt;Node6 -->
<g id="edge5" class="edge">
<title>Node5&#45;&gt;Node6</title>
<path fill="none" stroke="midnightblue" d="M458.72,-97.5C445.38,-97.5 431.71,-97.5 419.09,-97.5"/>
<polygon fill="midnightblue" stroke="midnightblue" points="458.84,-101 468.84,-97.5 458.84,-94 458.84,-101"/>
</g>
<!-- Node7 -->
<g id="node7" class="node">
<title>Node7</title>
<g id="a_node7"><a xlink:href="class_render_scene.html#a153e3fddce39acca50179504825bdc8f" target="_top" xlink:title=" ">
<polygon fill="white" stroke="black" points="144,-88 144,-107 273,-107 273,-88 144,-88"/>
<text text-anchor="middle" x="208.5" y="-95" font-family="Helvetica,sans-Serif" font-size="10.00">RenderScene::renderLoop</text>
</a>
</g>
</g>
<!-- Node6&#45;&gt;Node7 -->
<g id="edge6" class="edge">
<title>Node6&#45;&gt;Node7</title>
<path fill="none" stroke="midnightblue" d="M298.69,-97.5C290.23,-97.5 281.56,-97.5 273.11,-97.5"/>
<polygon fill="midnightblue" stroke="midnightblue" points="298.88,-101 308.88,-97.5 298.88,-94 298.88,-101"/>
</g>
<!-- Node8 -->
<g id="node8" class="node">
<title>Node8</title>
<g id="a_node8"><a xlink:href="class_process.html#a2ef87d936c7fae4508557714f593506e" target="_top" xlink:title=" ">
<polygon fill="white" stroke="black" points="0,-88 0,-107 108,-107 108,-88 0,-88"/>
<text text-anchor="middle" x="54" y="-95" font-family="Helvetica,sans-Serif" font-size="10.00">Process::runProcess</text>
</a>
</g>
</g>
<!-- Node7&#45;&gt;Node8 -->
<g id="edge7" class="edge">
<title>Node7&#45;&gt;Node8</title>
<path fill="none" stroke="midnightblue" d="M133.44,-97.5C124.99,-97.5 116.5,-97.5 108.39,-97.5"/>
<polygon fill="midnightblue" stroke="midnightblue" points="133.71,-101 143.71,-97.5 133.71,-94 133.71,-101"/>
</g>
<!-- Node10 -->
<g id="node10" class="node">
<title>Node10</title>
<g id="a_node10"><a xlink:href="class_main_renderer.html#aa9f1a22299240e8783683dbd759b1182" target="_top" xlink:title=" ">
<polygon fill="white" stroke="black" points="465.5,-50 465.5,-69 603.5,-69 603.5,-50 465.5,-50"/>
<text text-anchor="middle" x="534.5" y="-57" font-family="Helvetica,sans-Serif" font-size="10.00">MainRenderer::drawInScene</text>
</a>
</g>
</g>
<!-- Node9&#45;&gt;Node10 -->
<g id="edge9" class="edge">
<title>Node9&#45;&gt;Node10</title>
<path fill="none" stroke="midnightblue" d="M653.51,-59.5C637.63,-59.5 620.2,-59.5 603.71,-59.5"/>
<polygon fill="midnightblue" stroke="midnightblue" points="653.7,-63 663.7,-59.5 653.7,-56 653.7,-63"/>
</g>
<!-- Node12 -->
<g id="node12" class="node">
<title>Node12</title>
<g id="a_node12"><a xlink:href="class_directional_shadow_map_rendering.html#ad362ea6fa34bb45a4e8a343abf3ede84" target="_top" xlink:title=" ">
<polygon fill="white" stroke="black" points="455,-0.5 455,-30.5 614,-30.5 614,-0.5 455,-0.5"/>
<text text-anchor="start" x="463" y="-18.5" font-family="Helvetica,sans-Serif" font-size="10.00">DirectionalShadowMapRendering</text>
<text text-anchor="middle" x="534.5" y="-7.5" font-family="Helvetica,sans-Serif" font-size="10.00">::drawInScene</text>
</a>
</g>
</g>
<!-- Node11&#45;&gt;Node12 -->
<g id="edge11" class="edge">
<title>Node11&#45;&gt;Node12</title>
<path fill="none" stroke="midnightblue" d="M639.79,-17.29C631.35,-17.15 622.7,-17 614.15,-16.85"/>
<polygon fill="midnightblue" stroke="midnightblue" points="639.89,-20.8 649.95,-17.47 640.01,-13.8 639.89,-20.8"/>
</g>
</g>
</svg>
