<?xml version="1.0" encoding="UTF-8" standalone="no"?>
<!DOCTYPE svg PUBLIC "-//W3C//DTD SVG 1.1//EN"
 "http://www.w3.org/Graphics/SVG/1.1/DTD/svg11.dtd">
<!-- Generated by graphviz version 2.44.1 (20200629.0846)
 -->
<!-- Title: MeshMaterialCommon Pages: 1 -->
<svg width="423pt" height="240pt"
 viewBox="0.00 0.00 423.00 240.00" xmlns="http://www.w3.org/2000/svg" xmlns:xlink="http://www.w3.org/1999/xlink">
<g id="graph0" class="graph" transform="scale(1 1) rotate(0) translate(4 236)">
<title>MeshMaterialCommon</title>
<polygon fill="white" stroke="transparent" points="-4,4 -4,-236 419,-236 419,4 -4,4"/>
<!-- Node1 -->
<g id="node1" class="node">
<title>Node1</title>
<g id="a_node1"><a xlink:title=" ">
<polygon fill="#bfbfbf" stroke="black" points="236,-0.5 236,-19.5 350,-19.5 350,-0.5 236,-0.5"/>
<text text-anchor="middle" x="293" y="-7.5" font-family="Helvetica,sans-Serif" font-size="10.00">MeshMaterialCommon</text>
</a>
</g>
</g>
<!-- Node2 -->
<g id="node2" class="node">
<title>Node2</title>
<g id="a_node2"><a xlink:href="class_material.html" target="_top" xlink:title=" ">
<polygon fill="white" stroke="black" points="213.5,-67.5 213.5,-86.5 264.5,-86.5 264.5,-67.5 213.5,-67.5"/>
<text text-anchor="middle" x="239" y="-74.5" font-family="Helvetica,sans-Serif" font-size="10.00">Material</text>
</a>
</g>
</g>
<!-- Node2&#45;&gt;Node1 -->
<g id="edge1" class="edge">
<title>Node2&#45;&gt;Node1</title>
<path fill="none" stroke="midnightblue" d="M252.9,-59.27C263.43,-46.6 277.46,-29.7 285.83,-19.63"/>
<polygon fill="midnightblue" stroke="midnightblue" points="249.98,-57.31 246.28,-67.23 255.37,-61.78 249.98,-57.31"/>
</g>
<!-- Node3 -->
<g id="node3" class="node">
<title>Node3</title>
<g id="a_node3"><a xlink:title=" ">
<polygon fill="white" stroke="#bfbfbf" points="0,-134.5 0,-164.5 158,-164.5 158,-134.5 0,-134.5"/>
<text text-anchor="start" x="8" y="-152.5" font-family="Helvetica,sans-Serif" font-size="10.00">std::unique_ptr&lt; ShaderProgram</text>
<text text-anchor="middle" x="79" y="-141.5" font-family="Helvetica,sans-Serif" font-size="10.00">Compiler &gt;</text>
</a>
</g>
</g>
<!-- Node3&#45;&gt;Node2 -->
<g id="edge2" class="edge">
<title>Node3&#45;&gt;Node2</title>
<path fill="none" stroke="#9a32cd" stroke-dasharray="5,2" d="M120.53,-130.2C152.49,-116.12 195.19,-97.3 219.63,-86.53"/>
<polygon fill="#9a32cd" stroke="#9a32cd" points="118.73,-127.17 110.99,-134.4 121.56,-133.57 118.73,-127.17"/>
<text text-anchor="middle" x="194" y="-108" font-family="Helvetica,sans-Serif" font-size="10.00"> compiler</text>
</g>
<!-- Node4 -->
<g id="node4" class="node">
<title>Node4</title>
<g id="a_node4"><a xlink:href="class_shader_program_compiler.html" target="_top" xlink:title=" ">
<polygon fill="white" stroke="black" points="18,-212.5 18,-231.5 140,-231.5 140,-212.5 18,-212.5"/>
<text text-anchor="middle" x="79" y="-219.5" font-family="Helvetica,sans-Serif" font-size="10.00">ShaderProgramCompiler</text>
</a>
</g>
</g>
<!-- Node4&#45;&gt;Node3 -->
<g id="edge3" class="edge">
<title>Node4&#45;&gt;Node3</title>
<path fill="none" stroke="#9a32cd" stroke-dasharray="5,2" d="M79,-202.24C79,-190.41 79,-175.38 79,-164.58"/>
<polygon fill="#9a32cd" stroke="#9a32cd" points="75.5,-202.36 79,-212.36 82.5,-202.36 75.5,-202.36"/>
<text text-anchor="middle" x="86.5" y="-186" font-family="Helvetica,sans-Serif" font-size="10.00"> ptr</text>
</g>
<!-- Node5 -->
<g id="node5" class="node">
<title>Node5</title>
<g id="a_node5"><a xlink:title=" ">
<polygon fill="white" stroke="#bfbfbf" points="176,-140 176,-159 306,-159 306,-140 176,-140"/>
<text text-anchor="middle" x="241" y="-147" font-family="Helvetica,sans-Serif" font-size="10.00">std::unique_ptr&lt; Shader &gt;</text>
</a>
</g>
</g>
<!-- Node5&#45;&gt;Node2 -->
<g id="edge4" class="edge">
<title>Node5&#45;&gt;Node2</title>
<path fill="none" stroke="#9a32cd" stroke-dasharray="5,2" d="M240.47,-129.86C240.08,-115.9 239.55,-97.43 239.25,-86.72"/>
<polygon fill="#9a32cd" stroke="#9a32cd" points="236.97,-129.96 240.75,-139.86 243.97,-129.76 236.97,-129.96"/>
<text text-anchor="middle" x="257.5" y="-108" font-family="Helvetica,sans-Serif" font-size="10.00"> shader</text>
</g>
<!-- Node6 -->
<g id="node6" class="node">
<title>Node6</title>
<g id="a_node6"><a xlink:href="class_shader.html" target="_top" xlink:title=" ">
<polygon fill="white" stroke="black" points="217.5,-212.5 217.5,-231.5 264.5,-231.5 264.5,-212.5 217.5,-212.5"/>
<text text-anchor="middle" x="241" y="-219.5" font-family="Helvetica,sans-Serif" font-size="10.00">Shader</text>
</a>
</g>
</g>
<!-- Node6&#45;&gt;Node5 -->
<g id="edge5" class="edge">
<title>Node6&#45;&gt;Node5</title>
<path fill="none" stroke="#9a32cd" stroke-dasharray="5,2" d="M241,-201.94C241,-188.03 241,-169.82 241,-159.22"/>
<polygon fill="#9a32cd" stroke="#9a32cd" points="237.5,-202.36 241,-212.36 244.5,-202.36 237.5,-202.36"/>
<text text-anchor="middle" x="248.5" y="-186" font-family="Helvetica,sans-Serif" font-size="10.00"> ptr</text>
</g>
<!-- Node7 -->
<g id="node7" class="node">
<title>Node7</title>
<g id="a_node7"><a xlink:title=" ">
<polygon fill="white" stroke="#bfbfbf" points="283,-67.5 283,-86.5 415,-86.5 415,-67.5 283,-67.5"/>
<text text-anchor="middle" x="349" y="-74.5" font-family="Helvetica,sans-Serif" font-size="10.00">std::shared_ptr&lt; Texture &gt;</text>
</a>
</g>
</g>
<!-- Node7&#45;&gt;Node1 -->
<g id="edge6" class="edge">
<title>Node7&#45;&gt;Node1</title>
<path fill="none" stroke="#9a32cd" stroke-dasharray="5,2" d="M334.9,-59.63C323.95,-46.92 309.2,-29.8 300.43,-19.63"/>
<polygon fill="#9a32cd" stroke="#9a32cd" points="332.27,-61.94 341.45,-67.23 337.57,-57.37 332.27,-61.94"/>
<text text-anchor="middle" x="336" y="-41" font-family="Helvetica,sans-Serif" font-size="10.00"> map</text>
</g>
<!-- Node8 -->
<g id="node8" class="node">
<title>Node8</title>
<g id="a_node8"><a xlink:href="class_texture.html" target="_top" xlink:title=" ">
<polygon fill="white" stroke="black" points="324.5,-140 324.5,-159 373.5,-159 373.5,-140 324.5,-140"/>
<text text-anchor="middle" x="349" y="-147" font-family="Helvetica,sans-Serif" font-size="10.00">Texture</text>
</a>
</g>
</g>
<!-- Node8&#45;&gt;Node7 -->
<g id="edge7" class="edge">
<title>Node8&#45;&gt;Node7</title>
<path fill="none" stroke="#9a32cd" stroke-dasharray="5,2" d="M349,-129.44C349,-115.53 349,-97.32 349,-86.72"/>
<polygon fill="#9a32cd" stroke="#9a32cd" points="345.5,-129.86 349,-139.86 352.5,-129.86 345.5,-129.86"/>
<text text-anchor="middle" x="356.5" y="-108" font-family="Helvetica,sans-Serif" font-size="10.00"> ptr</text>
</g>
</g>
</svg>
