<?xml version="1.0" encoding="UTF-8" standalone="no"?>
<!DOCTYPE svg PUBLIC "-//W3C//DTD SVG 1.1//EN"
 "http://www.w3.org/Graphics/SVG/1.1/DTD/svg11.dtd">
<!-- Generated by graphviz version 2.44.1 (20200629.0846)
 -->
<!-- Title: OrbitCamera::setPosition Pages: 1 -->
<svg width="462pt" height="28pt"
 viewBox="0.00 0.00 462.00 28.00" xmlns="http://www.w3.org/2000/svg" xmlns:xlink="http://www.w3.org/1999/xlink">
<g id="graph0" class="graph" transform="scale(1 1) rotate(0) translate(4 24)">
<title>OrbitCamera::setPosition</title>
<polygon fill="white" stroke="transparent" points="-4,4 -4,-24 458,-24 458,4 -4,4"/>
<!-- Node1 -->
<g id="node1" class="node">
<title>Node1</title>
<g id="a_node1"><a xlink:title=" ">
<polygon fill="#bfbfbf" stroke="black" points="0,-0.5 0,-19.5 126,-19.5 126,-0.5 0,-0.5"/>
<text text-anchor="middle" x="63" y="-7.5" font-family="Helvetica,sans-Serif" font-size="10.00">OrbitCamera::setPosition</text>
</a>
</g>
</g>
<!-- Node2 -->
<g id="node2" class="node">
<title>Node2</title>
<g id="a_node2"><a xlink:href="class_orbit_camera.html#aa1a54b3e3d8a69b681159f2b05c57878" target="_top" xlink:title="Updates OrbitCamera::position according to the orbit values.">
<polygon fill="white" stroke="black" points="162,-0.5 162,-19.5 304,-19.5 304,-0.5 162,-0.5"/>
<text text-anchor="middle" x="233" y="-7.5" font-family="Helvetica,sans-Serif" font-size="10.00">OrbitCamera::updatePosition</text>
</a>
</g>
</g>
<!-- Node1&#45;&gt;Node2 -->
<g id="edge1" class="edge">
<title>Node1&#45;&gt;Node2</title>
<path fill="none" stroke="midnightblue" d="M126.08,-10C134.48,-10 143.19,-10 151.85,-10"/>
<polygon fill="midnightblue" stroke="midnightblue" points="151.96,-13.5 161.96,-10 151.96,-6.5 151.96,-13.5"/>
</g>
<!-- Node3 -->
<g id="node3" class="node">
<title>Node3</title>
<g id="a_node3"><a xlink:href="class_transform.html#acbab7588aa158d9f8de7bbf498213aeb" target="_top" xlink:title="Change the object position.">
<polygon fill="white" stroke="black" points="340,-0.5 340,-19.5 454,-19.5 454,-0.5 340,-0.5"/>
<text text-anchor="middle" x="397" y="-7.5" font-family="Helvetica,sans-Serif" font-size="10.00">Transform::setPosition</text>
</a>
</g>
</g>
<!-- Node2&#45;&gt;Node3 -->
<g id="edge2" class="edge">
<title>Node2&#45;&gt;Node3</title>
<path fill="none" stroke="midnightblue" d="M304.11,-10C312.62,-10 321.3,-10 329.75,-10"/>
<polygon fill="midnightblue" stroke="midnightblue" points="329.93,-13.5 339.93,-10 329.93,-6.5 329.93,-13.5"/>
</g>
</g>
</svg>
