<?xml version="1.0" encoding="UTF-8" standalone="no"?>
<!DOCTYPE svg PUBLIC "-//W3C//DTD SVG 1.1//EN"
 "http://www.w3.org/Graphics/SVG/1.1/DTD/svg11.dtd">
<!-- Generated by graphviz version 2.44.1 (20200629.0846)
 -->
<!-- Title: FinalPostProcess::setTextureUniform Pages: 1 -->
<svg width="586pt" height="39pt"
 viewBox="0.00 0.00 586.00 39.00" xmlns="http://www.w3.org/2000/svg" xmlns:xlink="http://www.w3.org/1999/xlink">
<g id="graph0" class="graph" transform="scale(1 1) rotate(0) translate(4 35)">
<title>FinalPostProcess::setTextureUniform</title>
<polygon fill="white" stroke="transparent" points="-4,4 -4,-35 582,-35 582,4 -4,4"/>
<!-- Node1 -->
<g id="node1" class="node">
<title>Node1</title>
<g id="a_node1"><a xlink:title=" ">
<polygon fill="#bfbfbf" stroke="black" points="0,-0.5 0,-30.5 146,-30.5 146,-0.5 0,-0.5"/>
<text text-anchor="start" x="8" y="-18.5" font-family="Helvetica,sans-Serif" font-size="10.00">FinalPostProcess::setTexture</text>
<text text-anchor="middle" x="73" y="-7.5" font-family="Helvetica,sans-Serif" font-size="10.00">Uniform</text>
</a>
</g>
</g>
<!-- Node2 -->
<g id="node2" class="node">
<title>Node2</title>
<g id="a_node2"><a xlink:href="class_texture2_d.html#aaf010a4c527630700b3678298f98b05e" target="_top" xlink:title=" ">
<polygon fill="white" stroke="black" points="182,-6 182,-25 295,-25 295,-6 182,-6"/>
<text text-anchor="middle" x="238.5" y="-13" font-family="Helvetica,sans-Serif" font-size="10.00">Texture2D::setTexture</text>
</a>
</g>
</g>
<!-- Node1&#45;&gt;Node2 -->
<g id="edge1" class="edge">
<title>Node1&#45;&gt;Node2</title>
<path fill="none" stroke="midnightblue" d="M146.19,-15.5C154.7,-15.5 163.36,-15.5 171.78,-15.5"/>
<polygon fill="midnightblue" stroke="midnightblue" points="171.9,-19 181.9,-15.5 171.9,-12 171.9,-19"/>
</g>
<!-- Node3 -->
<g id="node3" class="node">
<title>Node3</title>
<g id="a_node3"><a xlink:href="class_texture2_d.html#a88024715528fe768cc3fbd087c72abe2" target="_top" xlink:title=" ">
<polygon fill="white" stroke="black" points="331,-6 331,-25 443,-25 443,-6 331,-6"/>
<text text-anchor="middle" x="387" y="-13" font-family="Helvetica,sans-Serif" font-size="10.00">Texture2D::textureSet</text>
</a>
</g>
</g>
<!-- Node2&#45;&gt;Node3 -->
<g id="edge2" class="edge">
<title>Node2&#45;&gt;Node3</title>
<path fill="none" stroke="midnightblue" d="M295.3,-15.5C303.58,-15.5 312.18,-15.5 320.63,-15.5"/>
<polygon fill="midnightblue" stroke="midnightblue" points="320.84,-19 330.84,-15.5 320.84,-12 320.84,-19"/>
</g>
<!-- Node4 -->
<g id="node4" class="node">
<title>Node4</title>
<g id="a_node4"><a xlink:href="class_shader.html#adbb128dcd061b123414bb026bf608863" target="_top" xlink:title=" ">
<polygon fill="white" stroke="black" points="479,-6 479,-25 578,-25 578,-6 479,-6"/>
<text text-anchor="middle" x="528.5" y="-13" font-family="Helvetica,sans-Serif" font-size="10.00">Shader::setTexture</text>
</a>
</g>
</g>
<!-- Node3&#45;&gt;Node4 -->
<g id="edge3" class="edge">
<title>Node3&#45;&gt;Node4</title>
<path fill="none" stroke="midnightblue" d="M443.13,-15.5C451.47,-15.5 460.1,-15.5 468.52,-15.5"/>
<polygon fill="midnightblue" stroke="midnightblue" points="468.64,-19 478.64,-15.5 468.64,-12 468.64,-19"/>
</g>
</g>
</svg>
