<?xml version="1.0" encoding="UTF-8" standalone="no"?>
<!DOCTYPE svg PUBLIC "-//W3C//DTD SVG 1.1//EN"
 "http://www.w3.org/Graphics/SVG/1.1/DTD/svg11.dtd">
<!-- Generated by graphviz version 2.44.1 (20200629.0846)
 -->
<!-- Title: PostProcess Pages: 1 -->
<svg width="178pt" height="152pt"
 viewBox="0.00 0.00 177.50 152.00" xmlns="http://www.w3.org/2000/svg" xmlns:xlink="http://www.w3.org/1999/xlink">
<g id="graph0" class="graph" transform="scale(1 1) rotate(0) translate(4 148)">
<title>PostProcess</title>
<polygon fill="white" stroke="transparent" points="-4,4 -4,-148 173.5,-148 173.5,4 -4,4"/>
<!-- Node1 -->
<g id="node1" class="node">
<title>Node1</title>
<g id="a_node1"><a xlink:title=" ">
<polygon fill="#bfbfbf" stroke="black" points="43,-0.5 43,-19.5 116,-19.5 116,-0.5 43,-0.5"/>
<text text-anchor="middle" x="79.5" y="-7.5" font-family="Helvetica,sans-Serif" font-size="10.00">PostProcess</text>
</a>
</g>
</g>
<!-- Node2 -->
<g id="node2" class="node">
<title>Node2</title>
<g id="a_node2"><a xlink:href="class_final_post_process.html" target="_top" xlink:title=" ">
<polygon fill="white" stroke="black" points="32.5,-57.5 32.5,-76.5 126.5,-76.5 126.5,-57.5 32.5,-57.5"/>
<text text-anchor="middle" x="79.5" y="-64.5" font-family="Helvetica,sans-Serif" font-size="10.00">FinalPostProcess</text>
</a>
</g>
</g>
<!-- Node2&#45;&gt;Node1 -->
<g id="edge1" class="edge">
<title>Node2&#45;&gt;Node1</title>
<path fill="none" stroke="midnightblue" d="M79.5,-47.12C79.5,-37.82 79.5,-27.06 79.5,-19.71"/>
<polygon fill="midnightblue" stroke="midnightblue" points="76,-47.41 79.5,-57.41 83,-47.41 76,-47.41"/>
</g>
<!-- Node3 -->
<g id="node3" class="node">
<title>Node3</title>
<g id="a_node3"><a xlink:href="class_shader.html" target="_top" xlink:title=" ">
<polygon fill="white" stroke="black" points="0,-124.5 0,-143.5 47,-143.5 47,-124.5 0,-124.5"/>
<text text-anchor="middle" x="23.5" y="-131.5" font-family="Helvetica,sans-Serif" font-size="10.00">Shader</text>
</a>
</g>
</g>
<!-- Node3&#45;&gt;Node2 -->
<g id="edge2" class="edge">
<title>Node3&#45;&gt;Node2</title>
<path fill="none" stroke="#9a32cd" stroke-dasharray="5,2" d="M20.2,-114.29C19.98,-107.74 20.89,-100.62 24.5,-95 29.96,-86.49 38.94,-80.58 48.08,-76.51"/>
<polygon fill="#9a32cd" stroke="#9a32cd" points="16.74,-114.88 21.35,-124.42 23.7,-114.08 16.74,-114.88"/>
<text text-anchor="middle" x="69" y="-98" font-family="Helvetica,sans-Serif" font-size="10.00"> postProcessShader</text>
</g>
<!-- Node4 -->
<g id="node4" class="node">
<title>Node4</title>
<g id="a_node4"><a xlink:href="class_vertex_array.html" target="_top" xlink:title=" ">
<polygon fill="white" stroke="black" points="101.5,-124.5 101.5,-143.5 169.5,-143.5 169.5,-124.5 101.5,-124.5"/>
<text text-anchor="middle" x="135.5" y="-131.5" font-family="Helvetica,sans-Serif" font-size="10.00">VertexArray</text>
</a>
</g>
</g>
<!-- Node4&#45;&gt;Node2 -->
<g id="edge3" class="edge">
<title>Node4&#45;&gt;Node2</title>
<path fill="none" stroke="#9a32cd" stroke-dasharray="5,2" d="M127.01,-115.22C123.36,-108.51 118.72,-101.05 113.5,-95 107.49,-88.04 99.49,-81.58 92.75,-76.73"/>
<polygon fill="#9a32cd" stroke="#9a32cd" points="123.95,-116.93 131.61,-124.26 130.19,-113.76 123.95,-116.93"/>
<text text-anchor="middle" x="127" y="-98" font-family="Helvetica,sans-Serif" font-size="10.00"> va</text>
</g>
</g>
</svg>
