<?xml version="1.0" encoding="UTF-8" standalone="no"?>
<!DOCTYPE svg PUBLIC "-//W3C//DTD SVG 1.1//EN"
 "http://www.w3.org/Graphics/SVG/1.1/DTD/svg11.dtd">
<!-- Generated by graphviz version 2.44.1 (20200629.0846)
 -->
<!-- Title: ShaderPass Pages: 1 -->
<svg width="817pt" height="127pt"
 viewBox="0.00 0.00 817.00 126.50" xmlns="http://www.w3.org/2000/svg" xmlns:xlink="http://www.w3.org/1999/xlink">
<g id="graph0" class="graph" transform="scale(1 1) rotate(0) translate(4 122.5)">
<title>ShaderPass</title>
<polygon fill="white" stroke="transparent" points="-4,4 -4,-122.5 813,-122.5 813,4 -4,4"/>
<!-- Node1 -->
<g id="node1" class="node">
<title>Node1</title>
<g id="a_node1"><a xlink:title=" ">
<polygon fill="#bfbfbf" stroke="black" points="739,-63.5 739,-82.5 809,-82.5 809,-63.5 739,-63.5"/>
<text text-anchor="middle" x="774" y="-70.5" font-family="Helvetica,sans-Serif" font-size="10.00">ShaderPass</text>
</a>
</g>
</g>
<!-- Node2 -->
<g id="node2" class="node">
<title>Node2</title>
<g id="a_node2"><a xlink:href="class_post_process_pass.html" target="_top" xlink:title=" ">
<polygon fill="white" stroke="black" points="550.5,-82.5 550.5,-101.5 645.5,-101.5 645.5,-82.5 550.5,-82.5"/>
<text text-anchor="middle" x="598" y="-89.5" font-family="Helvetica,sans-Serif" font-size="10.00">PostProcessPass</text>
</a>
</g>
</g>
<!-- Node2&#45;&gt;Node1 -->
<g id="edge1" class="edge">
<title>Node2&#45;&gt;Node1</title>
<path fill="none" stroke="midnightblue" d="M655.9,-85.79C683.34,-82.79 715.33,-79.3 738.94,-76.72"/>
<polygon fill="midnightblue" stroke="midnightblue" points="655.19,-82.34 645.63,-86.91 655.95,-89.3 655.19,-82.34"/>
</g>
<!-- Node3 -->
<g id="node3" class="node">
<title>Node3</title>
<g id="a_node3"><a xlink:title="STL class.">
<polygon fill="white" stroke="#bfbfbf" points="407,-87.5 407,-106.5 467,-106.5 467,-87.5 407,-87.5"/>
<text text-anchor="middle" x="437" y="-94.5" font-family="Helvetica,sans-Serif" font-size="10.00">std::string</text>
</a>
</g>
</g>
<!-- Node3&#45;&gt;Node2 -->
<g id="edge2" class="edge">
<title>Node3&#45;&gt;Node2</title>
<path fill="none" stroke="#9a32cd" stroke-dasharray="5,2" d="M477.19,-95.77C499.28,-95.07 527.01,-94.2 550.23,-93.47"/>
<polygon fill="#9a32cd" stroke="#9a32cd" points="477.05,-92.27 467.16,-96.08 477.27,-99.27 477.05,-92.27"/>
<text text-anchor="middle" x="499" y="-98" font-family="Helvetica,sans-Serif" font-size="10.00"> name</text>
</g>
<!-- Node4 -->
<g id="node4" class="node">
<title>Node4</title>
<g id="a_node4"><a xlink:title="STL class.">
<polygon fill="white" stroke="#bfbfbf" points="204.5,-88 204.5,-118 299.5,-118 299.5,-88 204.5,-88"/>
<text text-anchor="start" x="212.5" y="-106" font-family="Helvetica,sans-Serif" font-size="10.00">std::basic_string&lt;</text>
<text text-anchor="middle" x="252" y="-95" font-family="Helvetica,sans-Serif" font-size="10.00"> char &gt;</text>
</a>
</g>
</g>
<!-- Node4&#45;&gt;Node3 -->
<g id="edge3" class="edge">
<title>Node4&#45;&gt;Node3</title>
<path fill="none" stroke="midnightblue" d="M309.83,-101.14C342,-100.08 380.86,-98.81 406.88,-97.95"/>
<polygon fill="midnightblue" stroke="midnightblue" points="309.53,-97.64 299.65,-101.47 309.76,-104.64 309.53,-97.64"/>
</g>
<!-- Node5 -->
<g id="node5" class="node">
<title>Node5</title>
<g id="a_node5"><a xlink:title=" ">
<polygon fill="white" stroke="#bfbfbf" points="531,-44.5 531,-63.5 665,-63.5 665,-44.5 531,-44.5"/>
<text text-anchor="middle" x="598" y="-51.5" font-family="Helvetica,sans-Serif" font-size="10.00">std::shared_ptr&lt; Material &gt;</text>
</a>
</g>
</g>
<!-- Node5&#45;&gt;Node1 -->
<g id="edge4" class="edge">
<title>Node5&#45;&gt;Node1</title>
<path fill="none" stroke="#9a32cd" stroke-dasharray="5,2" d="M675.6,-59.22C690.67,-60.55 706.35,-62.14 721,-64 726.82,-64.74 732.98,-65.67 738.94,-66.66"/>
<polygon fill="#9a32cd" stroke="#9a32cd" points="675.54,-55.7 665.28,-58.35 674.95,-62.68 675.54,-55.7"/>
<text text-anchor="middle" x="702" y="-67" font-family="Helvetica,sans-Serif" font-size="10.00"> material</text>
</g>
<!-- Node6 -->
<g id="node6" class="node">
<title>Node6</title>
<g id="a_node6"><a xlink:href="class_material.html" target="_top" xlink:title=" ">
<polygon fill="white" stroke="black" points="411.5,-44.5 411.5,-63.5 462.5,-63.5 462.5,-44.5 411.5,-44.5"/>
<text text-anchor="middle" x="437" y="-51.5" font-family="Helvetica,sans-Serif" font-size="10.00">Material</text>
</a>
</g>
</g>
<!-- Node6&#45;&gt;Node5 -->
<g id="edge5" class="edge">
<title>Node6&#45;&gt;Node5</title>
<path fill="none" stroke="#9a32cd" stroke-dasharray="5,2" d="M472.87,-54C489.89,-54 510.93,-54 530.84,-54"/>
<polygon fill="#9a32cd" stroke="#9a32cd" points="472.84,-50.5 462.84,-54 472.84,-57.5 472.84,-50.5"/>
<text text-anchor="middle" x="499" y="-57" font-family="Helvetica,sans-Serif" font-size="10.00"> ptr</text>
</g>
<!-- Node7 -->
<g id="node7" class="node">
<title>Node7</title>
<g id="a_node7"><a xlink:title=" ">
<polygon fill="white" stroke="#bfbfbf" points="173,-39 173,-69 331,-69 331,-39 173,-39"/>
<text text-anchor="start" x="181" y="-57" font-family="Helvetica,sans-Serif" font-size="10.00">std::unique_ptr&lt; ShaderProgram</text>
<text text-anchor="middle" x="252" y="-46" font-family="Helvetica,sans-Serif" font-size="10.00">Compiler &gt;</text>
</a>
</g>
</g>
<!-- Node7&#45;&gt;Node6 -->
<g id="edge6" class="edge">
<title>Node7&#45;&gt;Node6</title>
<path fill="none" stroke="#9a32cd" stroke-dasharray="5,2" d="M341.3,-54C366.92,-54 392.87,-54 411.11,-54"/>
<polygon fill="#9a32cd" stroke="#9a32cd" points="341.14,-50.5 331.14,-54 341.14,-57.5 341.14,-50.5"/>
<text text-anchor="middle" x="369" y="-57" font-family="Helvetica,sans-Serif" font-size="10.00"> compiler</text>
</g>
<!-- Node8 -->
<g id="node8" class="node">
<title>Node8</title>
<g id="a_node8"><a xlink:href="class_shader_program_compiler.html" target="_top" xlink:title=" ">
<polygon fill="white" stroke="black" points="0,-44.5 0,-63.5 122,-63.5 122,-44.5 0,-44.5"/>
<text text-anchor="middle" x="61" y="-51.5" font-family="Helvetica,sans-Serif" font-size="10.00">ShaderProgramCompiler</text>
</a>
</g>
</g>
<!-- Node8&#45;&gt;Node7 -->
<g id="edge7" class="edge">
<title>Node8&#45;&gt;Node7</title>
<path fill="none" stroke="#9a32cd" stroke-dasharray="5,2" d="M132.44,-54C145.58,-54 159.39,-54 172.75,-54"/>
<polygon fill="#9a32cd" stroke="#9a32cd" points="132.06,-50.5 122.06,-54 132.06,-57.5 132.06,-50.5"/>
<text text-anchor="middle" x="147.5" y="-57" font-family="Helvetica,sans-Serif" font-size="10.00"> ptr</text>
</g>
<!-- Node9 -->
<g id="node9" class="node">
<title>Node9</title>
<g id="a_node9"><a xlink:title=" ">
<polygon fill="white" stroke="#bfbfbf" points="187,-0.5 187,-19.5 317,-19.5 317,-0.5 187,-0.5"/>
<text text-anchor="middle" x="252" y="-7.5" font-family="Helvetica,sans-Serif" font-size="10.00">std::unique_ptr&lt; Shader &gt;</text>
</a>
</g>
</g>
<!-- Node9&#45;&gt;Node6 -->
<g id="edge8" class="edge">
<title>Node9&#45;&gt;Node6</title>
<path fill="none" stroke="#9a32cd" stroke-dasharray="5,2" d="M313.56,-21.58C337.22,-26.45 364.5,-32.5 389,-39 396.28,-40.93 404.12,-43.31 411.26,-45.6"/>
<polygon fill="#9a32cd" stroke="#9a32cd" points="314.16,-18.13 303.66,-19.56 312.76,-24.99 314.16,-18.13"/>
<text text-anchor="middle" x="369" y="-42" font-family="Helvetica,sans-Serif" font-size="10.00"> shader</text>
</g>
<!-- Node10 -->
<g id="node10" class="node">
<title>Node10</title>
<g id="a_node10"><a xlink:href="class_shader.html" target="_top" xlink:title=" ">
<polygon fill="white" stroke="black" points="37.5,-0.5 37.5,-19.5 84.5,-19.5 84.5,-0.5 37.5,-0.5"/>
<text text-anchor="middle" x="61" y="-7.5" font-family="Helvetica,sans-Serif" font-size="10.00">Shader</text>
</a>
</g>
</g>
<!-- Node10&#45;&gt;Node9 -->
<g id="edge9" class="edge">
<title>Node10&#45;&gt;Node9</title>
<path fill="none" stroke="#9a32cd" stroke-dasharray="5,2" d="M94.95,-10C120.22,-10 155.89,-10 186.75,-10"/>
<polygon fill="#9a32cd" stroke="#9a32cd" points="94.8,-6.5 84.8,-10 94.8,-13.5 94.8,-6.5"/>
<text text-anchor="middle" x="147.5" y="-13" font-family="Helvetica,sans-Serif" font-size="10.00"> ptr</text>
</g>
</g>
</svg>
