<?xml version="1.0" encoding="UTF-8" standalone="no"?>
<!DOCTYPE svg PUBLIC "-//W3C//DTD SVG 1.1//EN"
 "http://www.w3.org/Graphics/SVG/1.1/DTD/svg11.dtd">
<!-- Generated by graphviz version 2.44.1 (20200629.0846)
 -->
<!-- Title: RenderScene::setDirectionalLight Pages: 1 -->
<svg width="461pt" height="142pt"
 viewBox="0.00 0.00 461.00 142.00" xmlns="http://www.w3.org/2000/svg" xmlns:xlink="http://www.w3.org/1999/xlink">
<g id="graph0" class="graph" transform="scale(1 1) rotate(0) translate(4 138)">
<title>RenderScene::setDirectionalLight</title>
<polygon fill="white" stroke="transparent" points="-4,4 -4,-138 457,-138 457,4 -4,4"/>
<!-- Node1 -->
<g id="node1" class="node">
<title>Node1</title>
<g id="a_node1"><a xlink:title=" ">
<polygon fill="#bfbfbf" stroke="black" points="0,-71 0,-101 140,-101 140,-71 0,-71"/>
<text text-anchor="start" x="8" y="-89" font-family="Helvetica,sans-Serif" font-size="10.00">RenderScene::setDirectional</text>
<text text-anchor="middle" x="70" y="-78" font-family="Helvetica,sans-Serif" font-size="10.00">Light</text>
</a>
</g>
</g>
<!-- Node2 -->
<g id="node2" class="node">
<title>Node2</title>
<g id="a_node2"><a xlink:href="class_directional_light.html#a620fc95395f452e6718eca660c3f66f6" target="_top" xlink:title=" ">
<polygon fill="white" stroke="black" points="176,-114.5 176,-133.5 317,-133.5 317,-114.5 176,-114.5"/>
<text text-anchor="middle" x="246.5" y="-121.5" font-family="Helvetica,sans-Serif" font-size="10.00">DirectionalLight::getDirection</text>
</a>
</g>
</g>
<!-- Node1&#45;&gt;Node2 -->
<g id="edge1" class="edge">
<title>Node1&#45;&gt;Node2</title>
<path fill="none" stroke="midnightblue" d="M139.97,-101.02C157.24,-104.78 175.52,-108.76 191.93,-112.33"/>
<polygon fill="midnightblue" stroke="midnightblue" points="191.36,-115.79 201.87,-114.5 192.84,-108.95 191.36,-115.79"/>
</g>
<!-- Node3 -->
<g id="node3" class="node">
<title>Node3</title>
<g id="a_node3"><a xlink:href="class_main_renderer.html#a7584fa123e4918d2b91d7dcd540dbe70" target="_top" xlink:title=" ">
<polygon fill="white" stroke="black" points="182,-76.5 182,-95.5 311,-95.5 311,-76.5 182,-76.5"/>
<text text-anchor="middle" x="246.5" y="-83.5" font-family="Helvetica,sans-Serif" font-size="10.00">MainRenderer::getSkybox</text>
</a>
</g>
</g>
<!-- Node1&#45;&gt;Node3 -->
<g id="edge2" class="edge">
<title>Node1&#45;&gt;Node3</title>
<path fill="none" stroke="midnightblue" d="M140.22,-86C150.49,-86 161.12,-86 171.49,-86"/>
<polygon fill="midnightblue" stroke="midnightblue" points="171.75,-89.5 181.75,-86 171.75,-82.5 171.75,-89.5"/>
</g>
<!-- Node4 -->
<g id="node4" class="node">
<title>Node4</title>
<g id="a_node4"><a xlink:href="class_skybox.html#a328818f63faa949bb8b4249046391cea" target="_top" xlink:title=" ">
<polygon fill="white" stroke="black" points="182.5,-38.5 182.5,-57.5 310.5,-57.5 310.5,-38.5 182.5,-38.5"/>
<text text-anchor="middle" x="246.5" y="-45.5" font-family="Helvetica,sans-Serif" font-size="10.00">Skybox::setLightDirection</text>
</a>
</g>
</g>
<!-- Node1&#45;&gt;Node4 -->
<g id="edge3" class="edge">
<title>Node1&#45;&gt;Node4</title>
<path fill="none" stroke="midnightblue" d="M139.97,-70.98C157.24,-67.22 175.52,-63.24 191.93,-59.67"/>
<polygon fill="midnightblue" stroke="midnightblue" points="192.84,-63.05 201.87,-57.5 191.36,-56.21 192.84,-63.05"/>
</g>
<!-- Node5 -->
<g id="node5" class="node">
<title>Node5</title>
<g id="a_node5"><a xlink:href="class_shader.html#a0e4233f8c77b4d0a4f2e52f4e1d100bf" target="_top" xlink:title=" ">
<polygon fill="white" stroke="black" points="357,-76.5 357,-95.5 449,-95.5 449,-76.5 357,-76.5"/>
<text text-anchor="middle" x="403" y="-83.5" font-family="Helvetica,sans-Serif" font-size="10.00">Shader::resetUse</text>
</a>
</g>
</g>
<!-- Node4&#45;&gt;Node5 -->
<g id="edge4" class="edge">
<title>Node4&#45;&gt;Node5</title>
<path fill="none" stroke="midnightblue" d="M286.49,-57.59C306.78,-62.58 331.79,-68.73 353.35,-74.03"/>
<polygon fill="midnightblue" stroke="midnightblue" points="352.75,-77.49 363.29,-76.48 354.42,-70.69 352.75,-77.49"/>
</g>
<!-- Node6 -->
<g id="node6" class="node">
<title>Node6</title>
<g id="a_node6"><a xlink:href="class_shader.html#a810238d7b925c90a6495b6c25ffdb568" target="_top" xlink:title=" ">
<polygon fill="white" stroke="black" points="353,-38.5 353,-57.5 453,-57.5 453,-38.5 353,-38.5"/>
<text text-anchor="middle" x="403" y="-45.5" font-family="Helvetica,sans-Serif" font-size="10.00">Shader::setUniform</text>
</a>
</g>
</g>
<!-- Node4&#45;&gt;Node6 -->
<g id="edge5" class="edge">
<title>Node4&#45;&gt;Node6</title>
<path fill="none" stroke="midnightblue" d="M310.79,-48C321.29,-48 332.14,-48 342.54,-48"/>
<polygon fill="midnightblue" stroke="midnightblue" points="342.76,-51.5 352.76,-48 342.76,-44.5 342.76,-51.5"/>
</g>
<!-- Node7 -->
<g id="node7" class="node">
<title>Node7</title>
<g id="a_node7"><a xlink:href="class_shader.html#a870fa9f13d69e558815d6fd351a469dc" target="_top" xlink:title=" ">
<polygon fill="white" stroke="black" points="368.5,-0.5 368.5,-19.5 437.5,-19.5 437.5,-0.5 368.5,-0.5"/>
<text text-anchor="middle" x="403" y="-7.5" font-family="Helvetica,sans-Serif" font-size="10.00">Shader::use</text>
</a>
</g>
</g>
<!-- Node4&#45;&gt;Node7 -->
<g id="edge6" class="edge">
<title>Node4&#45;&gt;Node7</title>
<path fill="none" stroke="midnightblue" d="M286.49,-38.41C308.35,-33.03 335.68,-26.31 358.27,-20.76"/>
<polygon fill="midnightblue" stroke="midnightblue" points="359.4,-24.08 368.27,-18.3 357.73,-17.28 359.4,-24.08"/>
</g>
</g>
</svg>
