<?xml version="1.0" encoding="UTF-8" standalone="no"?>
<!DOCTYPE svg PUBLIC "-//W3C//DTD SVG 1.1//EN"
 "http://www.w3.org/Graphics/SVG/1.1/DTD/svg11.dtd">
<!-- Generated by graphviz version 2.44.1 (20200629.0846)
 -->
<!-- Title: Transform::updateTransform Pages: 1 -->
<svg width="315pt" height="116pt"
 viewBox="0.00 0.00 315.00 115.50" xmlns="http://www.w3.org/2000/svg" xmlns:xlink="http://www.w3.org/1999/xlink">
<g id="graph0" class="graph" transform="scale(1 1) rotate(0) translate(4 111.5)">
<title>Transform::updateTransform</title>
<polygon fill="white" stroke="transparent" points="-4,4 -4,-111.5 311,-111.5 311,4 -4,4"/>
<!-- Node1 -->
<g id="node1" class="node">
<title>Node1</title>
<g id="a_node1"><a xlink:title=" ">
<polygon fill="#bfbfbf" stroke="black" points="0,-38.5 0,-57.5 137,-57.5 137,-38.5 0,-38.5"/>
<text text-anchor="middle" x="68.5" y="-45.5" font-family="Helvetica,sans-Serif" font-size="10.00">Transform::updateTransform</text>
</a>
</g>
</g>
<!-- Node2 -->
<g id="node2" class="node">
<title>Node2</title>
<g id="a_node2"><a xlink:href="class_transform.html#ae511cc7b5382f46863ed06975ed80e57" target="_top" xlink:title=" ">
<polygon fill="white" stroke="black" points="176,-77 176,-107 304,-107 304,-77 176,-77"/>
<text text-anchor="start" x="184" y="-95" font-family="Helvetica,sans-Serif" font-size="10.00">Transform::calculateLocal</text>
<text text-anchor="middle" x="240" y="-84" font-family="Helvetica,sans-Serif" font-size="10.00">Transform</text>
</a>
</g>
</g>
<!-- Node1&#45;&gt;Node2 -->
<g id="edge1" class="edge">
<title>Node1&#45;&gt;Node2</title>
<path fill="none" stroke="midnightblue" d="M106.28,-57.55C125.28,-62.48 149.07,-68.66 171.25,-74.41"/>
<polygon fill="midnightblue" stroke="midnightblue" points="170.41,-77.81 180.96,-76.93 172.16,-71.03 170.41,-77.81"/>
</g>
<!-- Node3 -->
<g id="node3" class="node">
<title>Node3</title>
<g id="a_node3"><a xlink:href="class_entity.html#a2a0f7811f8c3f8726be1549e1c4acba4" target="_top" xlink:title=" ">
<polygon fill="white" stroke="black" points="194.5,-38.5 194.5,-57.5 285.5,-57.5 285.5,-38.5 194.5,-38.5"/>
<text text-anchor="middle" x="240" y="-45.5" font-family="Helvetica,sans-Serif" font-size="10.00">Entity::isEnabled</text>
</a>
</g>
</g>
<!-- Node1&#45;&gt;Node3 -->
<g id="edge2" class="edge">
<title>Node1&#45;&gt;Node3</title>
<path fill="none" stroke="midnightblue" d="M137.47,-48C153.03,-48 169.38,-48 184.31,-48"/>
<polygon fill="midnightblue" stroke="midnightblue" points="184.38,-51.5 194.38,-48 184.38,-44.5 184.38,-51.5"/>
</g>
<!-- Node4 -->
<g id="node4" class="node">
<title>Node4</title>
<g id="a_node4"><a xlink:href="class_entity.html#a210db80d6b431b029fcc4c925e92e033" target="_top" xlink:title=" ">
<polygon fill="white" stroke="black" points="173,-0.5 173,-19.5 307,-19.5 307,-0.5 173,-0.5"/>
<text text-anchor="middle" x="240" y="-7.5" font-family="Helvetica,sans-Serif" font-size="10.00">Entity::transformDidUpdate</text>
</a>
</g>
</g>
<!-- Node1&#45;&gt;Node4 -->
<g id="edge3" class="edge">
<title>Node1&#45;&gt;Node4</title>
<path fill="none" stroke="midnightblue" d="M112.27,-38.41C134.84,-33.35 162.72,-27.1 186.58,-21.75"/>
<polygon fill="midnightblue" stroke="midnightblue" points="187.54,-25.12 196.54,-19.52 186.01,-18.29 187.54,-25.12"/>
</g>
</g>
</svg>
