<?xml version="1.0" encoding="UTF-8" standalone="no"?>
<!DOCTYPE svg PUBLIC "-//W3C//DTD SVG 1.1//EN"
 "http://www.w3.org/Graphics/SVG/1.1/DTD/svg11.dtd">
<!-- Generated by graphviz version 2.44.1 (20200629.0846)
 -->
<!-- Title: OrbitControlsComponent::updatePosition Pages: 1 -->
<svg width="457pt" height="104pt"
 viewBox="0.00 0.00 457.00 104.00" xmlns="http://www.w3.org/2000/svg" xmlns:xlink="http://www.w3.org/1999/xlink">
<g id="graph0" class="graph" transform="scale(1 1) rotate(0) translate(4 100)">
<title>OrbitControlsComponent::updatePosition</title>
<polygon fill="white" stroke="transparent" points="-4,4 -4,-100 453,-100 453,4 -4,4"/>
<!-- Node1 -->
<g id="node1" class="node">
<title>Node1</title>
<g id="a_node1"><a xlink:title=" ">
<polygon fill="#bfbfbf" stroke="black" points="0,-33 0,-63 123,-63 123,-33 0,-33"/>
<text text-anchor="start" x="8" y="-51" font-family="Helvetica,sans-Serif" font-size="10.00">OrbitControlsComponent</text>
<text text-anchor="middle" x="61.5" y="-40" font-family="Helvetica,sans-Serif" font-size="10.00">::updatePosition</text>
</a>
</g>
</g>
<!-- Node2 -->
<g id="node2" class="node">
<title>Node2</title>
<g id="a_node2"><a xlink:href="class_component.html#a8cd5ee4645a0cbe620c1acef8118549b" target="_top" xlink:title=" ">
<polygon fill="white" stroke="black" points="159,-76.5 159,-95.5 287,-95.5 287,-76.5 159,-76.5"/>
<text text-anchor="middle" x="223" y="-83.5" font-family="Helvetica,sans-Serif" font-size="10.00">Component::getTransform</text>
</a>
</g>
</g>
<!-- Node1&#45;&gt;Node2 -->
<g id="edge1" class="edge">
<title>Node1&#45;&gt;Node2</title>
<path fill="none" stroke="midnightblue" d="M123.26,-62.47C139.29,-66.29 156.41,-70.37 171.81,-74.04"/>
<polygon fill="midnightblue" stroke="midnightblue" points="171.12,-77.48 181.66,-76.39 172.74,-70.67 171.12,-77.48"/>
</g>
<!-- Node4 -->
<g id="node4" class="node">
<title>Node4</title>
<g id="a_node4"><a xlink:href="class_transform.html#a139e1092c8752834c80e4e67c207bb80" target="_top" xlink:title=" ">
<polygon fill="white" stroke="black" points="176.5,-38.5 176.5,-57.5 269.5,-57.5 269.5,-38.5 176.5,-38.5"/>
<text text-anchor="middle" x="223" y="-45.5" font-family="Helvetica,sans-Serif" font-size="10.00">Transform::lookAt</text>
</a>
</g>
</g>
<!-- Node1&#45;&gt;Node4 -->
<g id="edge3" class="edge">
<title>Node1&#45;&gt;Node4</title>
<path fill="none" stroke="midnightblue" d="M123.26,-48C137.29,-48 152.15,-48 165.97,-48"/>
<polygon fill="midnightblue" stroke="midnightblue" points="166.3,-51.5 176.3,-48 166.3,-44.5 166.3,-51.5"/>
</g>
<!-- Node7 -->
<g id="node7" class="node">
<title>Node7</title>
<g id="a_node7"><a xlink:href="class_transform.html#acbab7588aa158d9f8de7bbf498213aeb" target="_top" xlink:title=" ">
<polygon fill="white" stroke="black" points="166,-0.5 166,-19.5 280,-19.5 280,-0.5 166,-0.5"/>
<text text-anchor="middle" x="223" y="-7.5" font-family="Helvetica,sans-Serif" font-size="10.00">Transform::setPosition</text>
</a>
</g>
</g>
<!-- Node1&#45;&gt;Node7 -->
<g id="edge6" class="edge">
<title>Node1&#45;&gt;Node7</title>
<path fill="none" stroke="midnightblue" d="M123.26,-33.53C139.29,-29.71 156.41,-25.63 171.81,-21.96"/>
<polygon fill="midnightblue" stroke="midnightblue" points="172.74,-25.33 181.66,-19.61 171.12,-18.52 172.74,-25.33"/>
</g>
<!-- Node3 -->
<g id="node3" class="node">
<title>Node3</title>
<g id="a_node3"><a xlink:href="class_entity.html#aec5b6fb1566ab2f4b1b30c8d788315dc" target="_top" xlink:title=" ">
<polygon fill="white" stroke="black" points="334,-76.5 334,-95.5 438,-95.5 438,-76.5 334,-76.5"/>
<text text-anchor="middle" x="386" y="-83.5" font-family="Helvetica,sans-Serif" font-size="10.00">Entity::getTransform</text>
</a>
</g>
</g>
<!-- Node2&#45;&gt;Node3 -->
<g id="edge2" class="edge">
<title>Node2&#45;&gt;Node3</title>
<path fill="none" stroke="midnightblue" d="M287.17,-86C299.16,-86 311.69,-86 323.63,-86"/>
<polygon fill="midnightblue" stroke="midnightblue" points="323.93,-89.5 333.93,-86 323.93,-82.5 323.93,-89.5"/>
</g>
<!-- Node5 -->
<g id="node5" class="node">
<title>Node5</title>
<g id="a_node5"><a xlink:href="namespace_math.html#a87c8d0d2ba07b4b77a50b452d52a933e" target="_top" xlink:title=" ">
<polygon fill="white" stroke="black" points="328,-38.5 328,-57.5 444,-57.5 444,-38.5 328,-38.5"/>
<text text-anchor="middle" x="386" y="-45.5" font-family="Helvetica,sans-Serif" font-size="10.00">Math::getLookAtMatrix</text>
</a>
</g>
</g>
<!-- Node4&#45;&gt;Node5 -->
<g id="edge4" class="edge">
<title>Node4&#45;&gt;Node5</title>
<path fill="none" stroke="midnightblue" d="M269.71,-48C284.58,-48 301.41,-48 317.53,-48"/>
<polygon fill="midnightblue" stroke="midnightblue" points="317.99,-51.5 327.99,-48 317.99,-44.5 317.99,-51.5"/>
</g>
<!-- Node6 -->
<g id="node6" class="node">
<title>Node6</title>
<g id="a_node6"><a xlink:href="class_transform.html#af5791c2b5044fe3db559579c21feaec8" target="_top" xlink:title=" ">
<polygon fill="white" stroke="black" points="323,-0.5 323,-19.5 449,-19.5 449,-0.5 323,-0.5"/>
<text text-anchor="middle" x="386" y="-7.5" font-family="Helvetica,sans-Serif" font-size="10.00">Transform::setQuaternion</text>
</a>
</g>
</g>
<!-- Node4&#45;&gt;Node6 -->
<g id="edge5" class="edge">
<title>Node4&#45;&gt;Node6</title>
<path fill="none" stroke="midnightblue" d="M264.63,-38.41C285.97,-33.37 312.31,-27.16 334.91,-21.82"/>
<polygon fill="midnightblue" stroke="midnightblue" points="335.74,-25.22 344.67,-19.52 334.13,-18.41 335.74,-25.22"/>
</g>
</g>
</svg>
