<?xml version="1.0" encoding="UTF-8" standalone="no"?>
<!DOCTYPE svg PUBLIC "-//W3C//DTD SVG 1.1//EN"
 "http://www.w3.org/Graphics/SVG/1.1/DTD/svg11.dtd">
<!-- Generated by graphviz version 2.44.1 (20200629.0846)
 -->
<!-- Title: Window::getWidth Pages: 1 -->
<svg width="750pt" height="116pt"
 viewBox="0.00 0.00 750.00 115.50" xmlns="http://www.w3.org/2000/svg" xmlns:xlink="http://www.w3.org/1999/xlink">
<g id="graph0" class="graph" transform="scale(1 1) rotate(0) translate(4 111.5)">
<title>Window::getWidth</title>
<polygon fill="white" stroke="transparent" points="-4,4 -4,-111.5 746,-111.5 746,4 -4,4"/>
<!-- Node1 -->
<g id="node1" class="node">
<title>Node1</title>
<g id="a_node1"><a xlink:title=" ">
<polygon fill="#bfbfbf" stroke="black" points="646,-38.5 646,-57.5 742,-57.5 742,-38.5 646,-38.5"/>
<text text-anchor="middle" x="694" y="-45.5" font-family="Helvetica,sans-Serif" font-size="10.00">Window::getWidth</text>
</a>
</g>
</g>
<!-- Node2 -->
<g id="node2" class="node">
<title>Node2</title>
<g id="a_node2"><a xlink:href="class_trackball_camera.html#abc11a864dd088577e2480193cf8addbc" target="_top" xlink:title=" ">
<polygon fill="white" stroke="black" points="472.5,-77 472.5,-107 607.5,-107 607.5,-77 472.5,-77"/>
<text text-anchor="start" x="480.5" y="-95" font-family="Helvetica,sans-Serif" font-size="10.00">TrackballCamera::onMouse</text>
<text text-anchor="middle" x="540" y="-84" font-family="Helvetica,sans-Serif" font-size="10.00">MovementInput</text>
</a>
</g>
</g>
<!-- Node1&#45;&gt;Node2 -->
<g id="edge1" class="edge">
<title>Node1&#45;&gt;Node2</title>
<path fill="none" stroke="midnightblue" d="M649.97,-60.46C632.26,-65.58 611.59,-71.56 593.04,-76.93"/>
<polygon fill="midnightblue" stroke="midnightblue" points="651.39,-63.69 660.02,-57.55 649.44,-56.97 651.39,-63.69"/>
</g>
<!-- Node3 -->
<g id="node3" class="node">
<title>Node3</title>
<g id="a_node3"><a xlink:href="class_main_renderer.html#a508a80df1c58c0820c8f18ced3a0558d" target="_top" xlink:title=" ">
<polygon fill="white" stroke="black" points="474.5,-38.5 474.5,-57.5 605.5,-57.5 605.5,-38.5 474.5,-38.5"/>
<text text-anchor="middle" x="540" y="-45.5" font-family="Helvetica,sans-Serif" font-size="10.00">MainRenderer::renderMain</text>
</a>
</g>
</g>
<!-- Node1&#45;&gt;Node3 -->
<g id="edge2" class="edge">
<title>Node1&#45;&gt;Node3</title>
<path fill="none" stroke="midnightblue" d="M635.68,-48C625.84,-48 615.55,-48 605.54,-48"/>
<polygon fill="midnightblue" stroke="midnightblue" points="635.74,-51.5 645.74,-48 635.74,-44.5 635.74,-51.5"/>
</g>
<!-- Node7 -->
<g id="node7" class="node">
<title>Node7</title>
<g id="a_node7"><a xlink:href="class_render_scene.html#ab9c1784eb6cbe4dd21fdf8715282af0b" target="_top" xlink:title=" ">
<polygon fill="white" stroke="black" points="470,-0.5 470,-19.5 610,-19.5 610,-0.5 470,-0.5"/>
<text text-anchor="middle" x="540" y="-7.5" font-family="Helvetica,sans-Serif" font-size="10.00">RenderScene::RenderScene</text>
</a>
</g>
</g>
<!-- Node1&#45;&gt;Node7 -->
<g id="edge6" class="edge">
<title>Node1&#45;&gt;Node7</title>
<path fill="none" stroke="midnightblue" d="M644.84,-35.96C623.6,-30.65 599,-24.5 579.08,-19.52"/>
<polygon fill="midnightblue" stroke="midnightblue" points="644.09,-39.38 654.64,-38.41 645.79,-32.59 644.09,-39.38"/>
</g>
<!-- Node4 -->
<g id="node4" class="node">
<title>Node4</title>
<g id="a_node4"><a xlink:href="class_main_renderer.html#a7bdd84247ecd2942b26896524d84a863" target="_top" xlink:title=" ">
<polygon fill="white" stroke="black" points="324,-38.5 324,-57.5 434,-57.5 434,-38.5 324,-38.5"/>
<text text-anchor="middle" x="379" y="-45.5" font-family="Helvetica,sans-Serif" font-size="10.00">MainRenderer::render</text>
</a>
</g>
</g>
<!-- Node3&#45;&gt;Node4 -->
<g id="edge3" class="edge">
<title>Node3&#45;&gt;Node4</title>
<path fill="none" stroke="midnightblue" d="M464.32,-48C454.24,-48 444.07,-48 434.44,-48"/>
<polygon fill="midnightblue" stroke="midnightblue" points="464.33,-51.5 474.33,-48 464.33,-44.5 464.33,-51.5"/>
</g>
<!-- Node5 -->
<g id="node5" class="node">
<title>Node5</title>
<g id="a_node5"><a xlink:href="class_render_scene.html#a153e3fddce39acca50179504825bdc8f" target="_top" xlink:title=" ">
<polygon fill="white" stroke="black" points="159,-38.5 159,-57.5 288,-57.5 288,-38.5 159,-38.5"/>
<text text-anchor="middle" x="223.5" y="-45.5" font-family="Helvetica,sans-Serif" font-size="10.00">RenderScene::renderLoop</text>
</a>
</g>
</g>
<!-- Node4&#45;&gt;Node5 -->
<g id="edge4" class="edge">
<title>Node4&#45;&gt;Node5</title>
<path fill="none" stroke="midnightblue" d="M313.69,-48C305.23,-48 296.56,-48 288.11,-48"/>
<polygon fill="midnightblue" stroke="midnightblue" points="313.88,-51.5 323.88,-48 313.88,-44.5 313.88,-51.5"/>
</g>
<!-- Node6 -->
<g id="node6" class="node">
<title>Node6</title>
<g id="a_node6"><a xlink:href="class_old_process.html#a83ec467ba26bf460977ec4df0985bdea" target="_top" xlink:title=" ">
<polygon fill="white" stroke="black" points="0,-38.5 0,-57.5 123,-57.5 123,-38.5 0,-38.5"/>
<text text-anchor="middle" x="61.5" y="-45.5" font-family="Helvetica,sans-Serif" font-size="10.00">OldProcess::runProcess</text>
</a>
</g>
</g>
<!-- Node5&#45;&gt;Node6 -->
<g id="edge5" class="edge">
<title>Node5&#45;&gt;Node6</title>
<path fill="none" stroke="midnightblue" d="M148.78,-48C140.19,-48 131.5,-48 123.11,-48"/>
<polygon fill="midnightblue" stroke="midnightblue" points="148.8,-51.5 158.8,-48 148.8,-44.5 148.8,-51.5"/>
</g>
</g>
</svg>
