<?xml version="1.0" encoding="UTF-8" standalone="no"?>
<!DOCTYPE svg PUBLIC "-//W3C//DTD SVG 1.1//EN"
 "http://www.w3.org/Graphics/SVG/1.1/DTD/svg11.dtd">
<!-- Generated by graphviz version 2.44.1 (20200629.0846)
 -->
<!-- Title: LightingRegistry::getDirectionalLights Pages: 1 -->
<svg width="656pt" height="78pt"
 viewBox="0.00 0.00 656.00 77.50" xmlns="http://www.w3.org/2000/svg" xmlns:xlink="http://www.w3.org/1999/xlink">
<g id="graph0" class="graph" transform="scale(1 1) rotate(0) translate(4 73.5)">
<title>LightingRegistry::getDirectionalLights</title>
<polygon fill="white" stroke="transparent" points="-4,4 -4,-73.5 652,-73.5 652,4 -4,4"/>
<!-- Node1 -->
<g id="node1" class="node">
<title>Node1</title>
<g id="a_node1"><a xlink:title=" ">
<polygon fill="#bfbfbf" stroke="black" points="496,-22.5 496,-52.5 648,-52.5 648,-22.5 496,-22.5"/>
<text text-anchor="start" x="504" y="-40.5" font-family="Helvetica,sans-Serif" font-size="10.00">LightingRegistry::getDirectional</text>
<text text-anchor="middle" x="572" y="-29.5" font-family="Helvetica,sans-Serif" font-size="10.00">Lights</text>
</a>
</g>
</g>
<!-- Node2 -->
<g id="node2" class="node">
<title>Node2</title>
<g id="a_node2"><a xlink:href="class_main_renderer.html#a7bdd84247ecd2942b26896524d84a863" target="_top" xlink:title=" ">
<polygon fill="white" stroke="black" points="337,-50 337,-69 447,-69 447,-50 337,-50"/>
<text text-anchor="middle" x="392" y="-57" font-family="Helvetica,sans-Serif" font-size="10.00">MainRenderer::render</text>
</a>
</g>
</g>
<!-- Node1&#45;&gt;Node2 -->
<g id="edge1" class="edge">
<title>Node1&#45;&gt;Node2</title>
<path fill="none" stroke="midnightblue" d="M485.77,-48.03C472.63,-49.66 459.39,-51.3 447.18,-52.8"/>
<polygon fill="midnightblue" stroke="midnightblue" points="486.27,-51.5 495.77,-46.8 485.42,-44.55 486.27,-51.5"/>
</g>
<!-- Node5 -->
<g id="node5" class="node">
<title>Node5</title>
<g id="a_node5"><a xlink:href="class_shadow_map_handler.html#a39151dc2a0fc09dea5332bc6a5801fe3" target="_top" xlink:title=" ">
<polygon fill="white" stroke="black" points="324,-0.5 324,-30.5 460,-30.5 460,-0.5 324,-0.5"/>
<text text-anchor="start" x="332" y="-18.5" font-family="Helvetica,sans-Serif" font-size="10.00">ShadowMapHandler::render</text>
<text text-anchor="middle" x="392" y="-7.5" font-family="Helvetica,sans-Serif" font-size="10.00">ShadowMaps</text>
</a>
</g>
</g>
<!-- Node1&#45;&gt;Node5 -->
<g id="edge4" class="edge">
<title>Node1&#45;&gt;Node5</title>
<path fill="none" stroke="midnightblue" d="M485.7,-26.96C477.09,-25.89 468.44,-24.82 460.06,-23.79"/>
<polygon fill="midnightblue" stroke="midnightblue" points="485.42,-30.45 495.77,-28.2 486.27,-23.5 485.42,-30.45"/>
</g>
<!-- Node3 -->
<g id="node3" class="node">
<title>Node3</title>
<g id="a_node3"><a xlink:href="class_render_scene.html#a153e3fddce39acca50179504825bdc8f" target="_top" xlink:title=" ">
<polygon fill="white" stroke="black" points="159,-28 159,-47 288,-47 288,-28 159,-28"/>
<text text-anchor="middle" x="223.5" y="-35" font-family="Helvetica,sans-Serif" font-size="10.00">RenderScene::renderLoop</text>
</a>
</g>
</g>
<!-- Node2&#45;&gt;Node3 -->
<g id="edge2" class="edge">
<title>Node2&#45;&gt;Node3</title>
<path fill="none" stroke="midnightblue" d="M326.9,-51.03C314.19,-49.35 300.84,-47.59 288.14,-45.91"/>
<polygon fill="midnightblue" stroke="midnightblue" points="326.57,-54.52 336.94,-52.36 327.49,-47.58 326.57,-54.52"/>
</g>
<!-- Node4 -->
<g id="node4" class="node">
<title>Node4</title>
<g id="a_node4"><a xlink:href="class_old_process.html#a83ec467ba26bf460977ec4df0985bdea" target="_top" xlink:title=" ">
<polygon fill="white" stroke="black" points="0,-28 0,-47 123,-47 123,-28 0,-28"/>
<text text-anchor="middle" x="61.5" y="-35" font-family="Helvetica,sans-Serif" font-size="10.00">OldProcess::runProcess</text>
</a>
</g>
</g>
<!-- Node3&#45;&gt;Node4 -->
<g id="edge3" class="edge">
<title>Node3&#45;&gt;Node4</title>
<path fill="none" stroke="midnightblue" d="M148.78,-37.5C140.19,-37.5 131.5,-37.5 123.11,-37.5"/>
<polygon fill="midnightblue" stroke="midnightblue" points="148.8,-41 158.8,-37.5 148.8,-34 148.8,-41"/>
</g>
<!-- Node5&#45;&gt;Node3 -->
<g id="edge5" class="edge">
<title>Node5&#45;&gt;Node3</title>
<path fill="none" stroke="midnightblue" d="M313.78,-25.7C305.22,-26.83 296.58,-27.98 288.22,-29.08"/>
<polygon fill="midnightblue" stroke="midnightblue" points="314.3,-29.16 323.76,-24.38 313.39,-22.23 314.3,-29.16"/>
</g>
</g>
</svg>
