<?xml version="1.0" encoding="UTF-8" standalone="no"?>
<!DOCTYPE svg PUBLIC "-//W3C//DTD SVG 1.1//EN"
 "http://www.w3.org/Graphics/SVG/1.1/DTD/svg11.dtd">
<!-- Generated by graphviz version 2.40.1 (20161225.0304)
 -->
<!-- Title: BaseObject::shapeDraw Pages: 1 -->
<svg width="276pt" height="66pt"
 viewBox="0.00 0.00 276.00 66.00" xmlns="http://www.w3.org/2000/svg" xmlns:xlink="http://www.w3.org/1999/xlink">
<g id="graph0" class="graph" transform="scale(1 1) rotate(0) translate(4 62)">
<title>BaseObject::shapeDraw</title>
<polygon fill="#ffffff" stroke="transparent" points="-4,4 -4,-62 272,-62 272,4 -4,4"/>
<!-- Node10 -->
<g id="node1" class="node">
<title>Node10</title>
<polygon fill="#bfbfbf" stroke="#000000" points="0,-19.5 0,-38.5 123,-38.5 123,-19.5 0,-19.5"/>
<text text-anchor="middle" x="61.5" y="-26.5" font-family="Helvetica,sans-Serif" font-size="10.00" fill="#000000">BaseObject::shapeDraw</text>
</g>
<!-- Node11 -->
<g id="node2" class="node">
<title>Node11</title>
<g id="a_node2"><a xlink:href="class_shader.html#a810238d7b925c90a6495b6c25ffdb568" target="_top" xlink:title="Shader::setUniform">
<polygon fill="#ffffff" stroke="#000000" points="163,-38.5 163,-57.5 264,-57.5 264,-38.5 163,-38.5"/>
<text text-anchor="middle" x="213.5" y="-45.5" font-family="Helvetica,sans-Serif" font-size="10.00" fill="#000000">Shader::setUniform</text>
</a>
</g>
</g>
<!-- Node10&#45;&gt;Node11 -->
<g id="edge1" class="edge">
<title>Node10&#45;&gt;Node11</title>
<path fill="none" stroke="#191970" d="M123.3242,-36.728C133.0845,-37.9481 143.1681,-39.2085 152.9001,-40.425"/>
<polygon fill="#191970" stroke="#191970" points="152.5293,-43.9058 162.8862,-41.6733 153.3976,-36.9599 152.5293,-43.9058"/>
</g>
<!-- Node12 -->
<g id="node3" class="node">
<title>Node12</title>
<g id="a_node3"><a xlink:href="class_vertex_array.html#acbd3f02e554fa827be46baf96d8bdabc" target="_top" xlink:title="VertexArray::execute">
<polygon fill="#ffffff" stroke="#000000" points="159,-.5 159,-19.5 268,-19.5 268,-.5 159,-.5"/>
<text text-anchor="middle" x="213.5" y="-7.5" font-family="Helvetica,sans-Serif" font-size="10.00" fill="#000000">VertexArray::execute</text>
</a>
</g>
</g>
<!-- Node10&#45;&gt;Node12 -->
<g id="edge2" class="edge">
<title>Node10&#45;&gt;Node12</title>
<path fill="none" stroke="#191970" d="M123.3242,-21.272C131.6217,-20.2348 140.1529,-19.1684 148.5031,-18.1246"/>
<polygon fill="#191970" stroke="#191970" points="149.0822,-21.5796 158.5708,-16.8662 148.2139,-14.6336 149.0822,-21.5796"/>
</g>
</g>
</svg>
