<?xml version="1.0" encoding="UTF-8" standalone="no"?>
<!DOCTYPE svg PUBLIC "-//W3C//DTD SVG 1.1//EN"
 "http://www.w3.org/Graphics/SVG/1.1/DTD/svg11.dtd">
<!-- Generated by graphviz version 2.44.1 (20200629.0846)
 -->
<!-- Title: LightingRegistrySystem::updateDirectionalLights Pages: 1 -->
<svg width="283pt" height="104pt"
 viewBox="0.00 0.00 283.00 104.00" xmlns="http://www.w3.org/2000/svg" xmlns:xlink="http://www.w3.org/1999/xlink">
<g id="graph0" class="graph" transform="scale(1 1) rotate(0) translate(4 100)">
<title>LightingRegistrySystem::updateDirectionalLights</title>
<polygon fill="white" stroke="transparent" points="-4,4 -4,-100 279,-100 279,4 -4,4"/>
<!-- Node1 -->
<g id="node1" class="node">
<title>Node1</title>
<g id="a_node1"><a xlink:title=" ">
<polygon fill="#bfbfbf" stroke="black" points="0,-33 0,-63 124,-63 124,-33 0,-33"/>
<text text-anchor="start" x="8" y="-51" font-family="Helvetica,sans-Serif" font-size="10.00">LightingRegistrySystem</text>
<text text-anchor="middle" x="62" y="-40" font-family="Helvetica,sans-Serif" font-size="10.00">::updateDirectionalLights</text>
</a>
</g>
</g>
<!-- Node2 -->
<g id="node2" class="node">
<title>Node2</title>
<g id="a_node2"><a xlink:href="class_material.html#a053e033e624bc01399fb6491f663a7d3" target="_top" xlink:title=" ">
<polygon fill="white" stroke="black" points="160,-76.5 160,-95.5 275,-95.5 275,-76.5 160,-76.5"/>
<text text-anchor="middle" x="217.5" y="-83.5" font-family="Helvetica,sans-Serif" font-size="10.00">Material::removeDefine</text>
</a>
</g>
</g>
<!-- Node1&#45;&gt;Node2 -->
<g id="edge1" class="edge">
<title>Node1&#45;&gt;Node2</title>
<path fill="none" stroke="midnightblue" d="M123.67,-63.02C138.37,-66.66 153.89,-70.5 167.95,-73.98"/>
<polygon fill="midnightblue" stroke="midnightblue" points="167.35,-77.44 177.9,-76.44 169.03,-70.64 167.35,-77.44"/>
</g>
<!-- Node3 -->
<g id="node3" class="node">
<title>Node3</title>
<g id="a_node3"><a xlink:href="class_material.html#a7476a27aaaa3337d6f4dfa3c5e44d22d" target="_top" xlink:title=" ">
<polygon fill="white" stroke="black" points="168.5,-38.5 168.5,-57.5 266.5,-57.5 266.5,-38.5 168.5,-38.5"/>
<text text-anchor="middle" x="217.5" y="-45.5" font-family="Helvetica,sans-Serif" font-size="10.00">Material::setDefine</text>
</a>
</g>
</g>
<!-- Node1&#45;&gt;Node3 -->
<g id="edge2" class="edge">
<title>Node1&#45;&gt;Node3</title>
<path fill="none" stroke="midnightblue" d="M124.11,-48C135.37,-48 147.11,-48 158.29,-48"/>
<polygon fill="midnightblue" stroke="midnightblue" points="158.37,-51.5 168.37,-48 158.37,-44.5 158.37,-51.5"/>
</g>
<!-- Node4 -->
<g id="node4" class="node">
<title>Node4</title>
<g id="a_node4"><a xlink:href="class_material.html#ade3d70e1ef2ebc40918f7de6134ccc00" target="_top" xlink:title=" ">
<polygon fill="white" stroke="black" points="165.5,-0.5 165.5,-19.5 269.5,-19.5 269.5,-0.5 165.5,-0.5"/>
<text text-anchor="middle" x="217.5" y="-7.5" font-family="Helvetica,sans-Serif" font-size="10.00">Material::setUniform</text>
</a>
</g>
</g>
<!-- Node1&#45;&gt;Node4 -->
<g id="edge3" class="edge">
<title>Node1&#45;&gt;Node4</title>
<path fill="none" stroke="midnightblue" d="M123.67,-32.98C138.37,-29.34 153.89,-25.5 167.95,-22.02"/>
<polygon fill="midnightblue" stroke="midnightblue" points="169.03,-25.36 177.9,-19.56 167.35,-18.56 169.03,-25.36"/>
</g>
</g>
</svg>
