<?xml version="1.0" encoding="UTF-8" standalone="no"?>
<!DOCTYPE svg PUBLIC "-//W3C//DTD SVG 1.1//EN"
 "http://www.w3.org/Graphics/SVG/1.1/DTD/svg11.dtd">
<!-- Generated by graphviz version 2.44.1 (20200629.0846)
 -->
<!-- Title: MeshStandardMaterial::MeshStandardMaterial Pages: 1 -->
<svg width="608pt" height="320pt"
 viewBox="0.00 0.00 608.00 320.00" xmlns="http://www.w3.org/2000/svg" xmlns:xlink="http://www.w3.org/1999/xlink">
<g id="graph0" class="graph" transform="scale(1 1) rotate(0) translate(4 316)">
<title>MeshStandardMaterial::MeshStandardMaterial</title>
<polygon fill="white" stroke="transparent" points="-4,4 -4,-316 604,-316 604,4 -4,4"/>
<!-- Node1 -->
<g id="node1" class="node">
<title>Node1</title>
<g id="a_node1"><a xlink:title=" ">
<polygon fill="#bfbfbf" stroke="black" points="0,-122.5 0,-152.5 120,-152.5 120,-122.5 0,-122.5"/>
<text text-anchor="start" x="8" y="-140.5" font-family="Helvetica,sans-Serif" font-size="10.00">MeshStandardMaterial</text>
<text text-anchor="middle" x="60" y="-129.5" font-family="Helvetica,sans-Serif" font-size="10.00">::MeshStandardMaterial</text>
</a>
</g>
</g>
<!-- Node2 -->
<g id="node2" class="node">
<title>Node2</title>
<g id="a_node2"><a xlink:href="class_mesh_material_common.html#ad8619ab807fc28f674d14fc05cc05d9b" target="_top" xlink:title=" ">
<polygon fill="white" stroke="black" points="156,-245.5 156,-275.5 270,-275.5 270,-245.5 156,-245.5"/>
<text text-anchor="start" x="164" y="-263.5" font-family="Helvetica,sans-Serif" font-size="10.00">MeshMaterialCommon</text>
<text text-anchor="middle" x="213" y="-252.5" font-family="Helvetica,sans-Serif" font-size="10.00">::initializeCommon</text>
</a>
</g>
</g>
<!-- Node1&#45;&gt;Node2 -->
<g id="edge1" class="edge">
<title>Node1&#45;&gt;Node2</title>
<path fill="none" stroke="midnightblue" d="M72.37,-152.75C88.83,-173.93 121.14,-212.37 156,-236.5 158.09,-237.95 160.29,-239.34 162.54,-240.66"/>
<polygon fill="midnightblue" stroke="midnightblue" points="161.03,-243.82 171.49,-245.47 164.34,-237.65 161.03,-243.82"/>
</g>
<!-- Node5 -->
<g id="node5" class="node">
<title>Node5</title>
<g id="a_node5"><a xlink:href="class_mesh_standard_material.html#aebc2b1cf8e2210eb2d167e3f944aedbb" target="_top" xlink:title=" ">
<polygon fill="white" stroke="black" points="156,-196.5 156,-226.5 270,-226.5 270,-196.5 156,-196.5"/>
<text text-anchor="start" x="164" y="-214.5" font-family="Helvetica,sans-Serif" font-size="10.00">MeshStandardMaterial</text>
<text text-anchor="middle" x="213" y="-203.5" font-family="Helvetica,sans-Serif" font-size="10.00">::setMetalness</text>
</a>
</g>
</g>
<!-- Node1&#45;&gt;Node5 -->
<g id="edge4" class="edge">
<title>Node1&#45;&gt;Node5</title>
<path fill="none" stroke="midnightblue" d="M88.15,-152.52C106.99,-162.77 132.78,-176.44 156,-187.5 159.35,-189.1 162.83,-190.7 166.34,-192.29"/>
<polygon fill="midnightblue" stroke="midnightblue" points="165.1,-195.57 175.66,-196.43 167.94,-189.17 165.1,-195.57"/>
</g>
<!-- Node7 -->
<g id="node7" class="node">
<title>Node7</title>
<g id="a_node7"><a xlink:href="class_mesh_standard_material.html#ae0d76a93163489ee5bffd9361f72d731" target="_top" xlink:title=" ">
<polygon fill="white" stroke="black" points="156,-98.5 156,-128.5 270,-128.5 270,-98.5 156,-98.5"/>
<text text-anchor="start" x="164" y="-116.5" font-family="Helvetica,sans-Serif" font-size="10.00">MeshStandardMaterial</text>
<text text-anchor="middle" x="213" y="-105.5" font-family="Helvetica,sans-Serif" font-size="10.00">::setMetalnessMap</text>
</a>
</g>
</g>
<!-- Node1&#45;&gt;Node7 -->
<g id="edge6" class="edge">
<title>Node1&#45;&gt;Node7</title>
<path fill="none" stroke="midnightblue" d="M120.25,-128.08C128.68,-126.74 137.4,-125.36 145.95,-124"/>
<polygon fill="midnightblue" stroke="midnightblue" points="146.56,-127.45 155.89,-122.42 145.46,-120.53 146.56,-127.45"/>
</g>
<!-- Node12 -->
<g id="node12" class="node">
<title>Node12</title>
<g id="a_node12"><a xlink:href="class_mesh_standard_material.html#abc482b5a12e2ea68f2a63b44260724ec" target="_top" xlink:title=" ">
<polygon fill="white" stroke="black" points="156,-49.5 156,-79.5 270,-79.5 270,-49.5 156,-49.5"/>
<text text-anchor="start" x="164" y="-67.5" font-family="Helvetica,sans-Serif" font-size="10.00">MeshStandardMaterial</text>
<text text-anchor="middle" x="213" y="-56.5" font-family="Helvetica,sans-Serif" font-size="10.00">::setNormalMap</text>
</a>
</g>
</g>
<!-- Node1&#45;&gt;Node12 -->
<g id="edge11" class="edge">
<title>Node1&#45;&gt;Node12</title>
<path fill="none" stroke="midnightblue" d="M89.93,-122.43C108.66,-112.79 133.64,-100.13 156,-89.5 160,-87.6 164.18,-85.65 168.38,-83.73"/>
<polygon fill="midnightblue" stroke="midnightblue" points="169.87,-86.9 177.53,-79.58 166.97,-80.52 169.87,-86.9"/>
</g>
<!-- Node13 -->
<g id="node13" class="node">
<title>Node13</title>
<g id="a_node13"><a xlink:href="class_mesh_standard_material.html#ad6035213cd700319a8f5f74721aedb45" target="_top" xlink:title=" ">
<polygon fill="white" stroke="black" points="156,-147.5 156,-177.5 270,-177.5 270,-147.5 156,-147.5"/>
<text text-anchor="start" x="164" y="-165.5" font-family="Helvetica,sans-Serif" font-size="10.00">MeshStandardMaterial</text>
<text text-anchor="middle" x="213" y="-154.5" font-family="Helvetica,sans-Serif" font-size="10.00">::setRoughness</text>
</a>
</g>
</g>
<!-- Node1&#45;&gt;Node13 -->
<g id="edge13" class="edge">
<title>Node1&#45;&gt;Node13</title>
<path fill="none" stroke="midnightblue" d="M120.25,-147.31C128.68,-148.71 137.4,-150.15 145.95,-151.56"/>
<polygon fill="midnightblue" stroke="midnightblue" points="145.45,-155.03 155.89,-153.21 146.59,-148.12 145.45,-155.03"/>
</g>
<!-- Node14 -->
<g id="node14" class="node">
<title>Node14</title>
<g id="a_node14"><a xlink:href="class_mesh_standard_material.html#a1eb52d7ceafb206b5bc8207242db17bf" target="_top" xlink:title=" ">
<polygon fill="white" stroke="black" points="156,-0.5 156,-30.5 270,-30.5 270,-0.5 156,-0.5"/>
<text text-anchor="start" x="164" y="-18.5" font-family="Helvetica,sans-Serif" font-size="10.00">MeshStandardMaterial</text>
<text text-anchor="middle" x="213" y="-7.5" font-family="Helvetica,sans-Serif" font-size="10.00">::setRoughnessMap</text>
</a>
</g>
</g>
<!-- Node1&#45;&gt;Node14 -->
<g id="edge15" class="edge">
<title>Node1&#45;&gt;Node14</title>
<path fill="none" stroke="midnightblue" d="M72.77,-122.3C89.45,-101.58 121.75,-64.33 156,-40.5 158.54,-38.73 161.23,-37.04 163.99,-35.44"/>
<polygon fill="midnightblue" stroke="midnightblue" points="165.85,-38.42 173.01,-30.61 162.54,-32.25 165.85,-38.42"/>
</g>
<!-- Node3 -->
<g id="node3" class="node">
<title>Node3</title>
<g id="a_node3"><a xlink:href="class_mesh_material_common.html#a4a675a7879a5fc23b5ae00f0847c019b" target="_top" xlink:title=" ">
<polygon fill="white" stroke="black" points="320.5,-281.5 320.5,-311.5 434.5,-311.5 434.5,-281.5 320.5,-281.5"/>
<text text-anchor="start" x="328.5" y="-299.5" font-family="Helvetica,sans-Serif" font-size="10.00">MeshMaterialCommon</text>
<text text-anchor="middle" x="377.5" y="-288.5" font-family="Helvetica,sans-Serif" font-size="10.00">::setColor</text>
</a>
</g>
</g>
<!-- Node2&#45;&gt;Node3 -->
<g id="edge2" class="edge">
<title>Node2&#45;&gt;Node3</title>
<path fill="none" stroke="midnightblue" d="M270.38,-272.99C283.31,-275.85 297.17,-278.92 310.46,-281.87"/>
<polygon fill="midnightblue" stroke="midnightblue" points="309.98,-285.35 320.5,-284.09 311.49,-278.51 309.98,-285.35"/>
</g>
<!-- Node4 -->
<g id="node4" class="node">
<title>Node4</title>
<g id="a_node4"><a xlink:href="class_mesh_material_common.html#a1c23f42272cdd31b29a643b4d2b74409" target="_top" xlink:title=" ">
<polygon fill="white" stroke="black" points="320.5,-232.5 320.5,-262.5 434.5,-262.5 434.5,-232.5 320.5,-232.5"/>
<text text-anchor="start" x="328.5" y="-250.5" font-family="Helvetica,sans-Serif" font-size="10.00">MeshMaterialCommon</text>
<text text-anchor="middle" x="377.5" y="-239.5" font-family="Helvetica,sans-Serif" font-size="10.00">::setMap</text>
</a>
</g>
</g>
<!-- Node2&#45;&gt;Node4 -->
<g id="edge3" class="edge">
<title>Node2&#45;&gt;Node4</title>
<path fill="none" stroke="midnightblue" d="M270.38,-255.99C283.31,-254.96 297.17,-253.85 310.46,-252.78"/>
<polygon fill="midnightblue" stroke="midnightblue" points="310.81,-256.27 320.5,-251.98 310.25,-249.29 310.81,-256.27"/>
</g>
<!-- Node6 -->
<g id="node6" class="node">
<title>Node6</title>
<g id="a_node6"><a xlink:href="class_mesh_material_common.html#a4d371583db3203ad7e69ee8622f6579d" target="_top" xlink:title=" ">
<polygon fill="white" stroke="black" points="311.5,-171.5 311.5,-201.5 443.5,-201.5 443.5,-171.5 311.5,-171.5"/>
<text text-anchor="start" x="319.5" y="-189.5" font-family="Helvetica,sans-Serif" font-size="10.00">MeshMaterialCommon</text>
<text text-anchor="middle" x="377.5" y="-178.5" font-family="Helvetica,sans-Serif" font-size="10.00">::setMaterialBasicProperty</text>
</a>
</g>
</g>
<!-- Node5&#45;&gt;Node6 -->
<g id="edge5" class="edge">
<title>Node5&#45;&gt;Node6</title>
<path fill="none" stroke="midnightblue" d="M270.38,-202.83C280.38,-201.29 290.94,-199.66 301.37,-198.06"/>
<polygon fill="midnightblue" stroke="midnightblue" points="301.95,-201.51 311.3,-196.53 300.88,-194.59 301.95,-201.51"/>
</g>
<!-- Node8 -->
<g id="node8" class="node">
<title>Node8</title>
<g id="a_node8"><a xlink:href="class_mesh_material_common.html#a348748abd26d7e64527b8d34a4bb69ef" target="_top" xlink:title=" ">
<polygon fill="white" stroke="black" points="306,-49.5 306,-79.5 449,-79.5 449,-49.5 306,-49.5"/>
<text text-anchor="start" x="314" y="-67.5" font-family="Helvetica,sans-Serif" font-size="10.00">MeshMaterialCommon</text>
<text text-anchor="middle" x="377.5" y="-56.5" font-family="Helvetica,sans-Serif" font-size="10.00">::setMaterialOptionalProperty</text>
</a>
</g>
</g>
<!-- Node7&#45;&gt;Node8 -->
<g id="edge7" class="edge">
<title>Node7&#45;&gt;Node8</title>
<path fill="none" stroke="midnightblue" d="M264.08,-98.4C280.69,-93.39 299.34,-87.77 316.6,-82.56"/>
<polygon fill="midnightblue" stroke="midnightblue" points="318.02,-85.79 326.58,-79.55 316,-79.09 318.02,-85.79"/>
</g>
<!-- Node9 -->
<g id="node9" class="node">
<title>Node9</title>
<g id="a_node9"><a xlink:href="class_material.html#a053e033e624bc01399fb6491f663a7d3" target="_top" xlink:title=" ">
<polygon fill="white" stroke="black" points="485,-93 485,-112 600,-112 600,-93 485,-93"/>
<text text-anchor="middle" x="542.5" y="-100" font-family="Helvetica,sans-Serif" font-size="10.00">Material::removeDefine</text>
</a>
</g>
</g>
<!-- Node8&#45;&gt;Node9 -->
<g id="edge8" class="edge">
<title>Node8&#45;&gt;Node9</title>
<path fill="none" stroke="midnightblue" d="M442.92,-79.52C458.68,-83.19 475.34,-87.08 490.38,-90.58"/>
<polygon fill="midnightblue" stroke="midnightblue" points="489.97,-94.08 500.51,-92.94 491.56,-87.26 489.97,-94.08"/>
</g>
<!-- Node10 -->
<g id="node10" class="node">
<title>Node10</title>
<g id="a_node10"><a xlink:href="class_material.html#a7476a27aaaa3337d6f4dfa3c5e44d22d" target="_top" xlink:title=" ">
<polygon fill="white" stroke="black" points="493.5,-55 493.5,-74 591.5,-74 591.5,-55 493.5,-55"/>
<text text-anchor="middle" x="542.5" y="-62" font-family="Helvetica,sans-Serif" font-size="10.00">Material::setDefine</text>
</a>
</g>
</g>
<!-- Node8&#45;&gt;Node10 -->
<g id="edge9" class="edge">
<title>Node8&#45;&gt;Node10</title>
<path fill="none" stroke="midnightblue" d="M449.05,-64.5C460.51,-64.5 472.26,-64.5 483.39,-64.5"/>
<polygon fill="midnightblue" stroke="midnightblue" points="483.4,-68 493.4,-64.5 483.4,-61 483.4,-68"/>
</g>
<!-- Node11 -->
<g id="node11" class="node">
<title>Node11</title>
<g id="a_node11"><a xlink:href="class_material.html#ade3d70e1ef2ebc40918f7de6134ccc00" target="_top" xlink:title=" ">
<polygon fill="white" stroke="black" points="490.5,-17 490.5,-36 594.5,-36 594.5,-17 490.5,-17"/>
<text text-anchor="middle" x="542.5" y="-24" font-family="Helvetica,sans-Serif" font-size="10.00">Material::setUniform</text>
</a>
</g>
</g>
<!-- Node8&#45;&gt;Node11 -->
<g id="edge10" class="edge">
<title>Node8&#45;&gt;Node11</title>
<path fill="none" stroke="midnightblue" d="M442.92,-49.48C458.68,-45.81 475.34,-41.92 490.38,-38.42"/>
<polygon fill="midnightblue" stroke="midnightblue" points="491.56,-41.74 500.51,-36.06 489.97,-34.92 491.56,-41.74"/>
</g>
<!-- Node12&#45;&gt;Node8 -->
<g id="edge12" class="edge">
<title>Node12&#45;&gt;Node8</title>
<path fill="none" stroke="midnightblue" d="M270.38,-64.5C278.61,-64.5 287.23,-64.5 295.83,-64.5"/>
<polygon fill="midnightblue" stroke="midnightblue" points="295.91,-68 305.91,-64.5 295.91,-61 295.91,-68"/>
</g>
<!-- Node13&#45;&gt;Node6 -->
<g id="edge14" class="edge">
<title>Node13&#45;&gt;Node6</title>
<path fill="none" stroke="midnightblue" d="M270.38,-170.83C280.38,-172.3 290.94,-173.86 301.37,-175.4"/>
<polygon fill="midnightblue" stroke="midnightblue" points="300.89,-178.87 311.3,-176.87 301.92,-171.95 300.89,-178.87"/>
</g>
<!-- Node14&#45;&gt;Node8 -->
<g id="edge16" class="edge">
<title>Node14&#45;&gt;Node8</title>
<path fill="none" stroke="midnightblue" d="M264.08,-30.6C280.69,-35.61 299.34,-41.23 316.6,-46.44"/>
<polygon fill="midnightblue" stroke="midnightblue" points="316,-49.91 326.58,-49.45 318.02,-43.21 316,-49.91"/>
</g>
</g>
</svg>
