<?xml version="1.0" encoding="UTF-8" standalone="no"?>
<!DOCTYPE svg PUBLIC "-//W3C//DTD SVG 1.1//EN"
 "http://www.w3.org/Graphics/SVG/1.1/DTD/svg11.dtd">
<!-- Generated by graphviz version 2.40.1 (20161225.0304)
 -->
<!-- Title: Light Pages: 1 -->
<svg width="394pt" height="230pt"
 viewBox="0.00 0.00 394.00 230.00" xmlns="http://www.w3.org/2000/svg" xmlns:xlink="http://www.w3.org/1999/xlink">
<g id="graph0" class="graph" transform="scale(1 1) rotate(0) translate(4 226)">
<title>Light</title>
<polygon fill="#ffffff" stroke="transparent" points="-4,4 -4,-226 390,-226 390,4 -4,4"/>
<!-- Node5 -->
<g id="node1" class="node">
<title>Node5</title>
<polygon fill="#bfbfbf" stroke="#000000" points="87.5,-.5 87.5,-19.5 125.5,-19.5 125.5,-.5 87.5,-.5"/>
<text text-anchor="middle" x="106.5" y="-7.5" font-family="Helvetica,sans-Serif" font-size="10.00" fill="#000000">Light</text>
</g>
<!-- Node6 -->
<g id="node2" class="node">
<title>Node6</title>
<g id="a_node2"><a xlink:href="class_entity.html" target="_top" xlink:title="Entity">
<polygon fill="#ffffff" stroke="#000000" points="85.5,-57.5 85.5,-76.5 127.5,-76.5 127.5,-57.5 85.5,-57.5"/>
<text text-anchor="middle" x="106.5" y="-64.5" font-family="Helvetica,sans-Serif" font-size="10.00" fill="#000000">Entity</text>
</a>
</g>
</g>
<!-- Node6&#45;&gt;Node5 -->
<g id="edge1" class="edge">
<title>Node6&#45;&gt;Node5</title>
<path fill="none" stroke="#191970" d="M106.5,-47.2342C106.5,-37.8491 106.5,-27.0651 106.5,-19.5265"/>
<polygon fill="#191970" stroke="#191970" points="103.0001,-47.3307 106.5,-57.3307 110.0001,-47.3308 103.0001,-47.3307"/>
</g>
<!-- Node7 -->
<g id="node3" class="node">
<title>Node7</title>
<g id="a_node3"><a xlink:title="STL class. ">
<polygon fill="#ffffff" stroke="#bfbfbf" points="17.5,-124.5 17.5,-143.5 77.5,-143.5 77.5,-124.5 17.5,-124.5"/>
<text text-anchor="middle" x="47.5" y="-131.5" font-family="Helvetica,sans-Serif" font-size="10.00" fill="#000000">std::string</text>
</a>
</g>
</g>
<!-- Node7&#45;&gt;Node6 -->
<g id="edge2" class="edge">
<title>Node7&#45;&gt;Node6</title>
<path fill="none" stroke="#9a32cd" stroke-dasharray="5,2" d="M62.7214,-116.7147C73.9698,-103.941 88.8684,-87.0224 98.0624,-76.5817"/>
<polygon fill="#9a32cd" stroke="#9a32cd" points="59.9354,-114.5825 55.9533,-124.4005 65.1888,-119.2087 59.9354,-114.5825"/>
<text text-anchor="middle" x="95.5" y="-98" font-family="Helvetica,sans-Serif" font-size="10.00" fill="#000000"> name</text>
</g>
<!-- Node8 -->
<g id="node4" class="node">
<title>Node8</title>
<g id="a_node4"><a xlink:title="STL class. ">
<polygon fill="#ffffff" stroke="#bfbfbf" points="0,-191.5 0,-221.5 95,-221.5 95,-191.5 0,-191.5"/>
<text text-anchor="start" x="8" y="-209.5" font-family="Helvetica,sans-Serif" font-size="10.00" fill="#000000">std::basic_string&lt;</text>
<text text-anchor="middle" x="47.5" y="-198.5" font-family="Helvetica,sans-Serif" font-size="10.00" fill="#000000"> char &gt;</text>
</a>
</g>
</g>
<!-- Node8&#45;&gt;Node7 -->
<g id="edge3" class="edge">
<title>Node8&#45;&gt;Node7</title>
<path fill="none" stroke="#191970" d="M47.5,-181.305C47.5,-168.424 47.5,-153.4836 47.5,-143.8957"/>
<polygon fill="#191970" stroke="#191970" points="44.0001,-181.4779 47.5,-191.478 51.0001,-181.478 44.0001,-181.4779"/>
</g>
<!-- Node9 -->
<g id="node5" class="node">
<title>Node9</title>
<polygon fill="#ffffff" stroke="#bfbfbf" points="96,-124.5 96,-143.5 239,-143.5 239,-124.5 96,-124.5"/>
<text text-anchor="middle" x="167.5" y="-131.5" font-family="Helvetica,sans-Serif" font-size="10.00" fill="#000000">std::unique_ptr&lt; Transform &gt;</text>
</g>
<!-- Node9&#45;&gt;Node6 -->
<g id="edge4" class="edge">
<title>Node9&#45;&gt;Node6</title>
<path fill="none" stroke="#9a32cd" stroke-dasharray="5,2" d="M151.7626,-116.7147C140.1329,-103.941 124.7293,-87.0224 115.2236,-76.5817"/>
<polygon fill="#9a32cd" stroke="#9a32cd" points="149.4399,-119.3624 158.7602,-124.4005 154.616,-114.6498 149.4399,-119.3624"/>
<text text-anchor="middle" x="164" y="-98" font-family="Helvetica,sans-Serif" font-size="10.00" fill="#000000"> transform</text>
</g>
<!-- Node10 -->
<g id="node6" class="node">
<title>Node10</title>
<g id="a_node6"><a xlink:href="class_transform.html" target="_top" xlink:title="Transform">
<polygon fill="#ffffff" stroke="#000000" points="225,-197 225,-216 286,-216 286,-197 225,-197"/>
<text text-anchor="middle" x="255.5" y="-204" font-family="Helvetica,sans-Serif" font-size="10.00" fill="#000000">Transform</text>
</a>
</g>
</g>
<!-- Node10&#45;&gt;Node9 -->
<g id="edge5" class="edge">
<title>Node10&#45;&gt;Node9</title>
<path fill="none" stroke="#9a32cd" stroke-dasharray="5,2" d="M235.7604,-190.2373C218.3633,-175.9044 193.605,-155.507 179.18,-143.6228"/>
<polygon fill="#9a32cd" stroke="#9a32cd" points="233.6883,-193.065 243.6319,-196.7223 238.1394,-187.6624 233.6883,-193.065"/>
<text text-anchor="middle" x="222" y="-165" font-family="Helvetica,sans-Serif" font-size="10.00" fill="#000000"> ptr</text>
</g>
<!-- Node10&#45;&gt;Node10 -->
<g id="edge8" class="edge">
<title>Node10&#45;&gt;Node10</title>
<path fill="none" stroke="#9a32cd" stroke-dasharray="5,2" d="M296.2329,-212.5702C300.9404,-211.4458 304,-209.4224 304,-206.5 304,-201.8242 296.1673,-199.4498 286.2846,-199.3767"/>
<polygon fill="#9a32cd" stroke="#9a32cd" points="295.8606,-209.0899 286.2846,-213.6233 296.5975,-216.051 295.8606,-209.0899"/>
<text text-anchor="middle" x="319.5" y="-204" font-family="Helvetica,sans-Serif" font-size="10.00" fill="#000000"> parent</text>
</g>
<!-- Node11 -->
<g id="node7" class="node">
<title>Node11</title>
<polygon fill="#ffffff" stroke="#bfbfbf" points="257,-124.5 257,-143.5 386,-143.5 386,-124.5 257,-124.5"/>
<text text-anchor="middle" x="321.5" y="-131.5" font-family="Helvetica,sans-Serif" font-size="10.00" fill="#000000">std::vector&lt; Transform *&gt;</text>
</g>
<!-- Node10&#45;&gt;Node11 -->
<g id="edge7" class="edge">
<title>Node10&#45;&gt;Node11</title>
<path fill="none" stroke="#9a32cd" stroke-dasharray="5,2" d="M249.1423,-187.0393C247.6244,-178.6943 247.6343,-169.2256 252.5,-162 258.1324,-153.6359 266.7382,-147.7693 275.9825,-143.6548"/>
<polygon fill="#9a32cd" stroke="#9a32cd" points="245.7591,-187.9367 251.6314,-196.7553 252.5401,-186.1995 245.7591,-187.9367"/>
<text text-anchor="middle" x="274" y="-165" font-family="Helvetica,sans-Serif" font-size="10.00" fill="#000000"> elements</text>
</g>
<!-- Node11&#45;&gt;Node10 -->
<g id="edge6" class="edge">
<title>Node11&#45;&gt;Node10</title>
<path fill="none" stroke="#9a32cd" stroke-dasharray="5,2" d="M312.8634,-152.8452C309.2715,-159.5984 304.7159,-167.0149 299.5,-173 291.2998,-182.4095 280.0815,-190.9012 271.025,-196.9808"/>
<polygon fill="#9a32cd" stroke="#9a32cd" points="316.1055,-154.1847 317.4012,-143.6693 309.8309,-151.0816 316.1055,-154.1847"/>
<text text-anchor="middle" x="325" y="-165" font-family="Helvetica,sans-Serif" font-size="10.00" fill="#000000"> children</text>
</g>
</g>
</svg>
