<?xml version="1.0" encoding="UTF-8" standalone="no"?>
<!DOCTYPE svg PUBLIC "-//W3C//DTD SVG 1.1//EN"
 "http://www.w3.org/Graphics/SVG/1.1/DTD/svg11.dtd">
<!-- Generated by graphviz version 2.44.1 (20200629.0846)
 -->
<!-- Title: Renderer::render Pages: 1 -->
<svg width="802pt" height="633pt"
 viewBox="0.00 0.00 802.00 633.00" xmlns="http://www.w3.org/2000/svg" xmlns:xlink="http://www.w3.org/1999/xlink">
<g id="graph0" class="graph" transform="scale(1 1) rotate(0) translate(4 629)">
<title>Renderer::render</title>
<polygon fill="white" stroke="transparent" points="-4,4 -4,-629 798,-629 798,4 -4,4"/>
<!-- Node1 -->
<g id="node1" class="node">
<title>Node1</title>
<g id="a_node1"><a xlink:title=" ">
<polygon fill="#bfbfbf" stroke="black" points="0,-320.5 0,-339.5 89,-339.5 89,-320.5 0,-320.5"/>
<text text-anchor="middle" x="44.5" y="-327.5" font-family="Helvetica,sans-Serif" font-size="10.00">Renderer::render</text>
</a>
</g>
</g>
<!-- Node2 -->
<g id="node2" class="node">
<title>Node2</title>
<g id="a_node2"><a xlink:href="class_entity.html#aec5b6fb1566ab2f4b1b30c8d788315dc" target="_top" xlink:title=" ">
<polygon fill="white" stroke="black" points="319.5,-605.5 319.5,-624.5 423.5,-624.5 423.5,-605.5 319.5,-605.5"/>
<text text-anchor="middle" x="371.5" y="-612.5" font-family="Helvetica,sans-Serif" font-size="10.00">Entity::getTransform</text>
</a>
</g>
</g>
<!-- Node1&#45;&gt;Node2 -->
<g id="edge1" class="edge">
<title>Node1&#45;&gt;Node2</title>
<path fill="none" stroke="midnightblue" d="M51.58,-339.54C76.7,-378.18 176.86,-524.39 298,-596 301.65,-598.16 305.55,-600.08 309.58,-601.78"/>
<polygon fill="midnightblue" stroke="midnightblue" points="308.55,-605.13 319.14,-605.38 311.01,-598.58 308.55,-605.13"/>
</g>
<!-- Node3 -->
<g id="node3" class="node">
<title>Node3</title>
<g id="a_node3"><a xlink:href="class_renderer.html#aa814eabb912509d0cd34b61018e98fb4" target="_top" xlink:title=" ">
<polygon fill="white" stroke="black" points="135,-358.5 135,-377.5 252,-377.5 252,-358.5 135,-358.5"/>
<text text-anchor="middle" x="193.5" y="-365.5" font-family="Helvetica,sans-Serif" font-size="10.00">Renderer::renderObject</text>
</a>
</g>
</g>
<!-- Node1&#45;&gt;Node3 -->
<g id="edge2" class="edge">
<title>Node1&#45;&gt;Node3</title>
<path fill="none" stroke="midnightblue" d="M82.59,-339.59C101.82,-344.56 125.49,-350.68 145.93,-355.96"/>
<polygon fill="midnightblue" stroke="midnightblue" points="145.11,-359.37 155.67,-358.48 146.87,-352.59 145.11,-359.37"/>
</g>
<!-- Node20 -->
<g id="node20" class="node">
<title>Node20</title>
<g id="a_node20"><a xlink:href="class_transform.html#ac347ad73951c53a3df8a065cb418673f" target="_top" xlink:title=" ">
<polygon fill="white" stroke="black" points="144,-320.5 144,-339.5 243,-339.5 243,-320.5 144,-320.5"/>
<text text-anchor="middle" x="193.5" y="-327.5" font-family="Helvetica,sans-Serif" font-size="10.00">Transform::traverse</text>
</a>
</g>
</g>
<!-- Node1&#45;&gt;Node20 -->
<g id="edge21" class="edge">
<title>Node1&#45;&gt;Node20</title>
<path fill="none" stroke="midnightblue" d="M89.21,-330C103.17,-330 118.85,-330 133.7,-330"/>
<polygon fill="midnightblue" stroke="midnightblue" points="133.82,-333.5 143.82,-330 133.82,-326.5 133.82,-333.5"/>
</g>
<!-- Node21 -->
<g id="node21" class="node">
<title>Node21</title>
<g id="a_node21"><a xlink:href="class_renderer.html#a9e2caf85bc89906a55ad46463b8e0d65" target="_top" xlink:title=" ">
<polygon fill="white" stroke="black" points="131,-282.5 131,-301.5 256,-301.5 256,-282.5 131,-282.5"/>
<text text-anchor="middle" x="193.5" y="-289.5" font-family="Helvetica,sans-Serif" font-size="10.00">Renderer::updateObjects</text>
</a>
</g>
</g>
<!-- Node1&#45;&gt;Node21 -->
<g id="edge22" class="edge">
<title>Node1&#45;&gt;Node21</title>
<path fill="none" stroke="midnightblue" d="M82.59,-320.41C101.82,-315.44 125.49,-309.32 145.93,-304.04"/>
<polygon fill="midnightblue" stroke="midnightblue" points="146.87,-307.41 155.67,-301.52 145.11,-300.63 146.87,-307.41"/>
</g>
<!-- Node22 -->
<g id="node22" class="node">
<title>Node22</title>
<g id="a_node22"><a xlink:href="class_transform.html#a75439be3f82bd7ae6c538670bed8ad75" target="_top" xlink:title=" ">
<polygon fill="white" stroke="black" points="125,-57.5 125,-76.5 262,-76.5 262,-57.5 125,-57.5"/>
<text text-anchor="middle" x="193.5" y="-64.5" font-family="Helvetica,sans-Serif" font-size="10.00">Transform::updateTransform</text>
</a>
</g>
</g>
<!-- Node1&#45;&gt;Node22 -->
<g id="edge23" class="edge">
<title>Node1&#45;&gt;Node22</title>
<path fill="none" stroke="midnightblue" d="M50.91,-320.33C72.56,-281.59 153.25,-137.22 182.14,-85.54"/>
<polygon fill="midnightblue" stroke="midnightblue" points="185.22,-87.2 187.04,-76.76 179.11,-83.78 185.22,-87.2"/>
</g>
<!-- Node3&#45;&gt;Node2 -->
<g id="edge8" class="edge">
<title>Node3&#45;&gt;Node2</title>
<path fill="none" stroke="midnightblue" d="M199.5,-377.59C211.04,-399.87 240.25,-457 262,-506 279.48,-545.38 265.71,-567.49 298,-596 301.65,-599.22 305.78,-601.91 310.17,-604.14"/>
<polygon fill="midnightblue" stroke="midnightblue" points="308.92,-607.42 319.49,-608.14 311.68,-600.98 308.92,-607.42"/>
</g>
<!-- Node4 -->
<g id="node4" class="node">
<title>Node4</title>
<g id="a_node4"><a xlink:href="class_transform.html#aa88751206dca7860f5c17977c8c10aa0" target="_top" xlink:title=" ">
<polygon fill="white" stroke="black" points="314.5,-567.5 314.5,-586.5 428.5,-586.5 428.5,-567.5 314.5,-567.5"/>
<text text-anchor="middle" x="371.5" y="-574.5" font-family="Helvetica,sans-Serif" font-size="10.00">Transform::getChildren</text>
</a>
</g>
</g>
<!-- Node3&#45;&gt;Node4 -->
<g id="edge3" class="edge">
<title>Node3&#45;&gt;Node4</title>
<path fill="none" stroke="midnightblue" d="M199.22,-377.71C217.28,-414.69 281.77,-545.29 298,-558 300.31,-559.8 302.77,-561.44 305.34,-562.92"/>
<polygon fill="midnightblue" stroke="midnightblue" points="303.91,-566.12 314.43,-567.38 306.99,-559.83 303.91,-566.12"/>
</g>
<!-- Node5 -->
<g id="node5" class="node">
<title>Node5</title>
<g id="a_node5"><a xlink:href="class_transform.html#a0a654c8900d2b9070ef4e6425b4feb80" target="_top" xlink:title=" ">
<polygon fill="white" stroke="black" points="319.5,-529.5 319.5,-548.5 423.5,-548.5 423.5,-529.5 319.5,-529.5"/>
<text text-anchor="middle" x="371.5" y="-536.5" font-family="Helvetica,sans-Serif" font-size="10.00">Transform::getEntity</text>
</a>
</g>
</g>
<!-- Node3&#45;&gt;Node5 -->
<g id="edge4" class="edge">
<title>Node3&#45;&gt;Node5</title>
<path fill="none" stroke="midnightblue" d="M198.17,-377.6C209,-404.56 243.49,-481.52 298,-520 301.69,-522.6 305.71,-524.85 309.9,-526.79"/>
<polygon fill="midnightblue" stroke="midnightblue" points="308.71,-530.08 319.3,-530.56 311.32,-523.59 308.71,-530.08"/>
</g>
<!-- Node6 -->
<g id="node6" class="node">
<title>Node6</title>
<g id="a_node6"><a xlink:href="class_mesh.html#aecffca8fb03133d4c17187203cd0266c" target="_top" xlink:title=" ">
<polygon fill="white" stroke="black" points="324,-491.5 324,-510.5 419,-510.5 419,-491.5 324,-491.5"/>
<text text-anchor="middle" x="371.5" y="-498.5" font-family="Helvetica,sans-Serif" font-size="10.00">Mesh::getMaterial</text>
</a>
</g>
</g>
<!-- Node3&#45;&gt;Node6 -->
<g id="edge5" class="edge">
<title>Node3&#45;&gt;Node6</title>
<path fill="none" stroke="midnightblue" d="M200.42,-377.67C214.45,-399.75 252.05,-454.15 298,-482 302.99,-485.02 308.46,-487.57 314.08,-489.72"/>
<polygon fill="midnightblue" stroke="midnightblue" points="313.04,-493.06 323.63,-492.96 315.29,-486.43 313.04,-493.06"/>
</g>
<!-- Node7 -->
<g id="node7" class="node">
<title>Node7</title>
<g id="a_node7"><a xlink:href="class_camera.html#afa63fa057ff14d083a1fc909c714a193" target="_top" xlink:title=" ">
<polygon fill="white" stroke="black" points="301.5,-453.5 301.5,-472.5 441.5,-472.5 441.5,-453.5 301.5,-453.5"/>
<text text-anchor="middle" x="371.5" y="-460.5" font-family="Helvetica,sans-Serif" font-size="10.00">Camera::getProjectionMatrix</text>
</a>
</g>
</g>
<!-- Node3&#45;&gt;Node7 -->
<g id="edge6" class="edge">
<title>Node3&#45;&gt;Node7</title>
<path fill="none" stroke="midnightblue" d="M204.8,-377.68C222.49,-393.78 260.37,-426.06 298,-444 302.99,-446.38 308.32,-448.49 313.75,-450.36"/>
<polygon fill="midnightblue" stroke="midnightblue" points="312.96,-453.78 323.55,-453.47 315.08,-447.11 312.96,-453.78"/>
</g>
<!-- Node8 -->
<g id="node8" class="node">
<title>Node8</title>
<g id="a_node8"><a xlink:href="class_rendering_state.html#aeed41975ad27a7047fbd53de0bf8bffe" target="_top" xlink:title=" ">
<polygon fill="white" stroke="black" points="310.5,-415.5 310.5,-434.5 432.5,-434.5 432.5,-415.5 310.5,-415.5"/>
<text text-anchor="middle" x="371.5" y="-422.5" font-family="Helvetica,sans-Serif" font-size="10.00">RenderingState::getSide</text>
</a>
</g>
</g>
<!-- Node3&#45;&gt;Node8 -->
<g id="edge7" class="edge">
<title>Node3&#45;&gt;Node8</title>
<path fill="none" stroke="midnightblue" d="M218.53,-377.57C239.37,-385.68 270.42,-397.35 298,-406 305.51,-408.36 313.51,-410.66 321.36,-412.8"/>
<polygon fill="midnightblue" stroke="midnightblue" points="320.61,-416.22 331.17,-415.42 322.42,-409.46 320.61,-416.22"/>
</g>
<!-- Node9 -->
<g id="node9" class="node">
<title>Node9</title>
<g id="a_node9"><a xlink:href="class_camera.html#ac41a74ed5e232d5506808006b31982e1" target="_top" xlink:title=" ">
<polygon fill="white" stroke="black" points="312.5,-377.5 312.5,-396.5 430.5,-396.5 430.5,-377.5 312.5,-377.5"/>
<text text-anchor="middle" x="371.5" y="-384.5" font-family="Helvetica,sans-Serif" font-size="10.00">Camera::getViewMatrix</text>
</a>
</g>
</g>
<!-- Node3&#45;&gt;Node9 -->
<g id="edge9" class="edge">
<title>Node3&#45;&gt;Node9</title>
<path fill="none" stroke="midnightblue" d="M252.13,-374.22C268.15,-375.95 285.71,-377.85 302.27,-379.63"/>
<polygon fill="midnightblue" stroke="midnightblue" points="302.12,-383.14 312.44,-380.73 302.87,-376.18 302.12,-383.14"/>
</g>
<!-- Node10 -->
<g id="node10" class="node">
<title>Node10</title>
<g id="a_node10"><a xlink:href="class_transform.html#a4aceae93bd257caee5459fe0d2c44dcf" target="_top" xlink:title=" ">
<polygon fill="white" stroke="black" points="301.5,-339.5 301.5,-358.5 441.5,-358.5 441.5,-339.5 301.5,-339.5"/>
<text text-anchor="middle" x="371.5" y="-346.5" font-family="Helvetica,sans-Serif" font-size="10.00">Transform::getWorldPosition</text>
</a>
</g>
</g>
<!-- Node3&#45;&gt;Node10 -->
<g id="edge10" class="edge">
<title>Node3&#45;&gt;Node10</title>
<path fill="none" stroke="midnightblue" d="M252.13,-361.78C264.67,-360.42 278.15,-358.97 291.36,-357.54"/>
<polygon fill="midnightblue" stroke="midnightblue" points="291.83,-361.01 301.39,-356.46 291.08,-354.05 291.83,-361.01"/>
</g>
<!-- Node13 -->
<g id="node13" class="node">
<title>Node13</title>
<g id="a_node13"><a xlink:href="class_rendering_state.html#a18fd46cb3589363bacb3fe8c43717a11" target="_top" xlink:title=" ">
<polygon fill="white" stroke="black" points="301,-290 301,-320 442,-320 442,-290 301,-290"/>
<text text-anchor="start" x="309" y="-308" font-family="Helvetica,sans-Serif" font-size="10.00">RenderingState::isDepthTest</text>
<text text-anchor="middle" x="371.5" y="-297" font-family="Helvetica,sans-Serif" font-size="10.00">Enabled</text>
</a>
</g>
</g>
<!-- Node3&#45;&gt;Node13 -->
<g id="edge14" class="edge">
<title>Node3&#45;&gt;Node13</title>
<path fill="none" stroke="midnightblue" d="M233.87,-358.43C243.22,-355.74 253.07,-352.57 262,-349 278.8,-342.29 281.4,-337.19 298,-330 303.04,-327.82 308.34,-325.69 313.68,-323.65"/>
<polygon fill="midnightblue" stroke="midnightblue" points="315.13,-326.85 323.3,-320.1 312.7,-320.28 315.13,-326.85"/>
</g>
<!-- Node14 -->
<g id="node14" class="node">
<title>Node14</title>
<g id="a_node14"><a xlink:href="class_rendering_state.html#a146f2037a5c55a8e2a7b2b5c9e111aa7" target="_top" xlink:title=" ">
<polygon fill="white" stroke="black" points="298.5,-241 298.5,-271 444.5,-271 444.5,-241 298.5,-241"/>
<text text-anchor="start" x="306.5" y="-259" font-family="Helvetica,sans-Serif" font-size="10.00">RenderingState::isDepthWrite</text>
<text text-anchor="middle" x="371.5" y="-248" font-family="Helvetica,sans-Serif" font-size="10.00">Enabled</text>
</a>
</g>
</g>
<!-- Node3&#45;&gt;Node14 -->
<g id="edge15" class="edge">
<title>Node3&#45;&gt;Node14</title>
<path fill="none" stroke="midnightblue" d="M245.74,-358.46C251.58,-356 257.17,-352.9 262,-349 288.61,-327.52 272.02,-303.24 298,-281 299.99,-279.3 302.11,-277.71 304.31,-276.22"/>
<polygon fill="midnightblue" stroke="midnightblue" points="306.35,-279.09 313.21,-271.01 302.81,-273.04 306.35,-279.09"/>
</g>
<!-- Node15 -->
<g id="node15" class="node">
<title>Node15</title>
<g id="a_node15"><a xlink:href="class_entity.html#a2a0f7811f8c3f8726be1549e1c4acba4" target="_top" xlink:title=" ">
<polygon fill="white" stroke="black" points="326,-76.5 326,-95.5 417,-95.5 417,-76.5 326,-76.5"/>
<text text-anchor="middle" x="371.5" y="-83.5" font-family="Helvetica,sans-Serif" font-size="10.00">Entity::isEnabled</text>
</a>
</g>
</g>
<!-- Node3&#45;&gt;Node15 -->
<g id="edge16" class="edge">
<title>Node3&#45;&gt;Node15</title>
<path fill="none" stroke="midnightblue" d="M250.07,-358.41C254.54,-355.93 258.62,-352.84 262,-349 334.4,-266.69 224.86,-186.65 298,-105 302.95,-99.47 309.3,-95.46 316.18,-92.57"/>
<polygon fill="midnightblue" stroke="midnightblue" points="317.46,-95.83 325.79,-89.28 315.2,-89.2 317.46,-95.83"/>
</g>
<!-- Node16 -->
<g id="node16" class="node">
<title>Node16</title>
<g id="a_node16"><a xlink:href="class_rendering_state.html#a018f7b1d53aec7938e1387c2002c526c" target="_top" xlink:title=" ">
<polygon fill="white" stroke="black" points="298,-202.5 298,-221.5 445,-221.5 445,-202.5 298,-202.5"/>
<text text-anchor="middle" x="371.5" y="-209.5" font-family="Helvetica,sans-Serif" font-size="10.00">RenderingState::setDepthTest</text>
</a>
</g>
</g>
<!-- Node3&#45;&gt;Node16 -->
<g id="edge17" class="edge">
<title>Node3&#45;&gt;Node16</title>
<path fill="none" stroke="midnightblue" d="M248.49,-358.35C253.45,-355.9 258.08,-352.83 262,-349 300.93,-311 258.97,-269.9 298,-232 300.11,-229.95 302.4,-228.11 304.84,-226.46"/>
<polygon fill="midnightblue" stroke="midnightblue" points="306.61,-229.48 313.6,-221.51 303.17,-223.38 306.61,-229.48"/>
</g>
<!-- Node17 -->
<g id="node17" class="node">
<title>Node17</title>
<g id="a_node17"><a xlink:href="class_rendering_state.html#a2febc5778dc60f6bd1f0cb2019b68319" target="_top" xlink:title=" ">
<polygon fill="white" stroke="black" points="307.5,-153 307.5,-183 435.5,-183 435.5,-153 307.5,-153"/>
<text text-anchor="start" x="315.5" y="-171" font-family="Helvetica,sans-Serif" font-size="10.00">RenderingState::setDepth</text>
<text text-anchor="middle" x="371.5" y="-160" font-family="Helvetica,sans-Serif" font-size="10.00">Write</text>
</a>
</g>
</g>
<!-- Node3&#45;&gt;Node17 -->
<g id="edge18" class="edge">
<title>Node3&#45;&gt;Node17</title>
<path fill="none" stroke="midnightblue" d="M249.1,-358.47C253.88,-355.98 258.3,-352.88 262,-349 311.1,-297.5 250.4,-245.89 298,-193 299.19,-191.67 300.46,-190.42 301.79,-189.23"/>
<polygon fill="midnightblue" stroke="midnightblue" points="304.08,-191.89 310.02,-183.12 299.91,-186.27 304.08,-191.89"/>
</g>
<!-- Node18 -->
<g id="node18" class="node">
<title>Node18</title>
<g id="a_node18"><a xlink:href="class_rendering_state.html#a0aad7ee74dfb460afea02d266a120fce" target="_top" xlink:title=" ">
<polygon fill="white" stroke="black" points="310.5,-114.5 310.5,-133.5 432.5,-133.5 432.5,-114.5 310.5,-114.5"/>
<text text-anchor="middle" x="371.5" y="-121.5" font-family="Helvetica,sans-Serif" font-size="10.00">RenderingState::setSide</text>
</a>
</g>
</g>
<!-- Node3&#45;&gt;Node18 -->
<g id="edge19" class="edge">
<title>Node3&#45;&gt;Node18</title>
<path fill="none" stroke="midnightblue" d="M249.63,-358.49C254.25,-356 258.49,-352.88 262,-349 324.04,-280.38 235.78,-212.45 298,-144 299.61,-142.23 301.35,-140.62 303.21,-139.14"/>
<polygon fill="midnightblue" stroke="midnightblue" points="305.46,-141.85 311.99,-133.5 301.68,-135.96 305.46,-141.85"/>
</g>
<!-- Node11 -->
<g id="node11" class="node">
<title>Node11</title>
<g id="a_node11"><a xlink:href="class_transform.html#a1a6acc87d9a71ce0017898ba55b0951b" target="_top" xlink:title=" ">
<polygon fill="white" stroke="black" points="491.5,-245.5 491.5,-264.5 619.5,-264.5 619.5,-245.5 491.5,-245.5"/>
<text text-anchor="middle" x="555.5" y="-252.5" font-family="Helvetica,sans-Serif" font-size="10.00">Transform::updateParents</text>
</a>
</g>
</g>
<!-- Node10&#45;&gt;Node11 -->
<g id="edge11" class="edge">
<title>Node10&#45;&gt;Node11</title>
<path fill="none" stroke="midnightblue" d="M418.58,-339.48C427.54,-336.92 436.71,-333.78 445,-330 479.45,-314.27 514.8,-287.82 535.69,-270.9"/>
<polygon fill="midnightblue" stroke="midnightblue" points="537.97,-273.56 543.47,-264.51 533.52,-268.16 537.97,-273.56"/>
</g>
<!-- Node11&#45;&gt;Node11 -->
<g id="edge13" class="edge">
<title>Node11&#45;&gt;Node11</title>
<path fill="none" stroke="midnightblue" d="M528.68,-264.76C515.63,-273.57 524.57,-283 555.5,-283 576.28,-283 587.13,-278.74 588.06,-273.27"/>
<polygon fill="midnightblue" stroke="midnightblue" points="590.81,-271.09 582.32,-264.76 585.01,-275.01 590.81,-271.09"/>
</g>
<!-- Node12 -->
<g id="node12" class="node">
<title>Node12</title>
<g id="a_node12"><a xlink:href="class_transform.html#ae511cc7b5382f46863ed06975ed80e57" target="_top" xlink:title=" ">
<polygon fill="white" stroke="black" points="666,-90 666,-120 794,-120 794,-90 666,-90"/>
<text text-anchor="start" x="674" y="-108" font-family="Helvetica,sans-Serif" font-size="10.00">Transform::calculateLocal</text>
<text text-anchor="middle" x="730" y="-97" font-family="Helvetica,sans-Serif" font-size="10.00">Transform</text>
</a>
</g>
</g>
<!-- Node11&#45;&gt;Node12 -->
<g id="edge12" class="edge">
<title>Node11&#45;&gt;Node12</title>
<path fill="none" stroke="midnightblue" d="M567.55,-245.39C594.84,-221.66 665.92,-159.85 704.02,-126.72"/>
<polygon fill="midnightblue" stroke="midnightblue" points="706.38,-129.31 711.63,-120.11 701.78,-124.03 706.38,-129.31"/>
</g>
<!-- Node19 -->
<g id="node19" class="node">
<title>Node19</title>
<g id="a_node19"><a xlink:href="class_rendering_state.html#aa4ff3c107d673ad86b3f38cd250e08b6" target="_top" xlink:title=" ">
<polygon fill="white" stroke="black" points="481,-114.5 481,-133.5 630,-133.5 630,-114.5 481,-114.5"/>
<text text-anchor="middle" x="555.5" y="-121.5" font-family="Helvetica,sans-Serif" font-size="10.00">RenderingState::updateToSide</text>
</a>
</g>
</g>
<!-- Node18&#45;&gt;Node19 -->
<g id="edge20" class="edge">
<title>Node18&#45;&gt;Node19</title>
<path fill="none" stroke="midnightblue" d="M432.6,-124C444.77,-124 457.78,-124 470.6,-124"/>
<polygon fill="midnightblue" stroke="midnightblue" points="470.83,-127.5 480.83,-124 470.83,-120.5 470.83,-127.5"/>
</g>
<!-- Node22&#45;&gt;Node12 -->
<g id="edge24" class="edge">
<title>Node22&#45;&gt;Node12</title>
<path fill="none" stroke="midnightblue" d="M262.09,-64.57C312.55,-63.35 383.16,-62.88 445,-67 516.99,-71.79 598.57,-83.35 655.76,-92.47"/>
<polygon fill="midnightblue" stroke="midnightblue" points="655.37,-95.96 665.79,-94.09 656.48,-89.04 655.37,-95.96"/>
</g>
<!-- Node22&#45;&gt;Node15 -->
<g id="edge25" class="edge">
<title>Node22&#45;&gt;Node15</title>
<path fill="none" stroke="midnightblue" d="M262.04,-74.29C279.78,-76.21 298.7,-78.25 315.68,-80.08"/>
<polygon fill="midnightblue" stroke="midnightblue" points="315.66,-83.6 325.98,-81.19 316.41,-76.64 315.66,-83.6"/>
</g>
<!-- Node23 -->
<g id="node23" class="node">
<title>Node23</title>
<g id="a_node23"><a xlink:href="class_entity.html#a210db80d6b431b029fcc4c925e92e033" target="_top" xlink:title=" ">
<polygon fill="white" stroke="black" points="304.5,-0.5 304.5,-19.5 438.5,-19.5 438.5,-0.5 304.5,-0.5"/>
<text text-anchor="middle" x="371.5" y="-7.5" font-family="Helvetica,sans-Serif" font-size="10.00">Entity::transformDidUpdate</text>
</a>
</g>
</g>
<!-- Node22&#45;&gt;Node23 -->
<g id="edge26" class="edge">
<title>Node22&#45;&gt;Node23</title>
<path fill="none" stroke="midnightblue" d="M223.96,-57.46C253.4,-47.92 298.85,-33.21 331.32,-22.69"/>
<polygon fill="midnightblue" stroke="midnightblue" points="332.51,-25.98 340.95,-19.57 330.35,-19.32 332.51,-25.98"/>
</g>
</g>
</svg>
