<?xml version="1.0" encoding="UTF-8" standalone="no"?>
<!DOCTYPE svg PUBLIC "-//W3C//DTD SVG 1.1//EN"
 "http://www.w3.org/Graphics/SVG/1.1/DTD/svg11.dtd">
<!-- Generated by graphviz version 2.44.1 (20200629.0846)
 -->
<!-- Title: ThreadPool Pages: 1 -->
<svg width="252pt" height="173pt"
 viewBox="0.00 0.00 252.00 173.00" xmlns="http://www.w3.org/2000/svg" xmlns:xlink="http://www.w3.org/1999/xlink">
<g id="graph0" class="graph" transform="scale(1 1) rotate(0) translate(4 169)">
<title>ThreadPool</title>
<polygon fill="white" stroke="transparent" points="-4,4 -4,-169 248,-169 248,4 -4,4"/>
<!-- Node1 -->
<g id="node1" class="node">
<title>Node1</title>
<g id="a_node1"><a xlink:title=" ">
<polygon fill="#bfbfbf" stroke="black" points="99,-0.5 99,-19.5 164,-19.5 164,-0.5 99,-0.5"/>
<text text-anchor="middle" x="131.5" y="-7.5" font-family="Helvetica,sans-Serif" font-size="10.00">ThreadPool</text>
</a>
</g>
</g>
<!-- Node2 -->
<g id="node2" class="node">
<title>Node2</title>
<g id="a_node2"><a xlink:href="class_base_pool.html" target="_top" xlink:title=" ">
<polygon fill="white" stroke="black" points="23,-67.5 23,-86.5 82,-86.5 82,-67.5 23,-67.5"/>
<text text-anchor="middle" x="52.5" y="-74.5" font-family="Helvetica,sans-Serif" font-size="10.00">BasePool</text>
</a>
</g>
</g>
<!-- Node2&#45;&gt;Node1 -->
<g id="edge1" class="edge">
<title>Node2&#45;&gt;Node1</title>
<path fill="none" stroke="midnightblue" d="M71.08,-60.71C86.64,-47.91 108.3,-30.09 121.01,-19.63"/>
<polygon fill="midnightblue" stroke="midnightblue" points="68.65,-58.18 63.15,-67.23 73.1,-63.58 68.65,-58.18"/>
</g>
<!-- Node3 -->
<g id="node3" class="node">
<title>Node3</title>
<g id="a_node3"><a xlink:title=" ">
<polygon fill="white" stroke="#bfbfbf" points="0,-134.5 0,-164.5 105,-164.5 105,-134.5 0,-134.5"/>
<text text-anchor="start" x="8" y="-152.5" font-family="Helvetica,sans-Serif" font-size="10.00">std::queue&lt; function</text>
<text text-anchor="middle" x="52.5" y="-141.5" font-family="Helvetica,sans-Serif" font-size="10.00">&lt; void()&gt; &gt;</text>
</a>
</g>
</g>
<!-- Node3&#45;&gt;Node2 -->
<g id="edge2" class="edge">
<title>Node3&#45;&gt;Node2</title>
<path fill="none" stroke="#9a32cd" stroke-dasharray="5,2" d="M52.5,-124.09C52.5,-111.21 52.5,-96.2 52.5,-86.89"/>
<polygon fill="#9a32cd" stroke="#9a32cd" points="49,-124.23 52.5,-134.23 56,-124.23 49,-124.23"/>
<text text-anchor="middle" x="66.5" y="-108" font-family="Helvetica,sans-Serif" font-size="10.00"> tasks</text>
</g>
<!-- Node4 -->
<g id="node4" class="node">
<title>Node4</title>
<g id="a_node4"><a xlink:title="STL class.">
<polygon fill="white" stroke="#bfbfbf" points="100,-67.5 100,-86.5 163,-86.5 163,-67.5 100,-67.5"/>
<text text-anchor="middle" x="131.5" y="-74.5" font-family="Helvetica,sans-Serif" font-size="10.00">std::mutex</text>
</a>
</g>
</g>
<!-- Node4&#45;&gt;Node1 -->
<g id="edge3" class="edge">
<title>Node4&#45;&gt;Node1</title>
<path fill="none" stroke="#9a32cd" stroke-dasharray="5,2" d="M131.5,-57.04C131.5,-44.67 131.5,-29.12 131.5,-19.63"/>
<polygon fill="#9a32cd" stroke="#9a32cd" points="128,-57.23 131.5,-67.23 135,-57.23 128,-57.23"/>
<text text-anchor="middle" x="156" y="-41" font-family="Helvetica,sans-Serif" font-size="10.00"> poolMutex</text>
</g>
<!-- Node5 -->
<g id="node5" class="node">
<title>Node5</title>
<g id="a_node5"><a xlink:title="STL class.">
<polygon fill="white" stroke="#bfbfbf" points="181,-67.5 181,-86.5 244,-86.5 244,-67.5 181,-67.5"/>
<text text-anchor="middle" x="212.5" y="-74.5" font-family="Helvetica,sans-Serif" font-size="10.00">std::thread</text>
</a>
</g>
</g>
<!-- Node5&#45;&gt;Node1 -->
<g id="edge4" class="edge">
<title>Node5&#45;&gt;Node1</title>
<path fill="none" stroke="#9a32cd" stroke-dasharray="5,2" d="M202.09,-58.44C197.36,-51.47 191.29,-43.76 184.5,-38 175.44,-30.32 163.83,-24.09 153.78,-19.56"/>
<polygon fill="#9a32cd" stroke="#9a32cd" points="199.36,-60.67 207.67,-67.24 205.27,-56.92 199.36,-60.67"/>
<text text-anchor="middle" x="211.5" y="-41" font-family="Helvetica,sans-Serif" font-size="10.00"> threads</text>
</g>
</g>
</svg>
