<?xml version="1.0" encoding="UTF-8" standalone="no"?>
<!DOCTYPE svg PUBLIC "-//W3C//DTD SVG 1.1//EN"
 "http://www.w3.org/Graphics/SVG/1.1/DTD/svg11.dtd">
<!-- Generated by graphviz version 2.44.1 (20200629.0846)
 -->
<!-- Title: Shader::setTexture Pages: 1 -->
<svg width="1237pt" height="78pt"
 viewBox="0.00 0.00 1237.00 77.50" xmlns="http://www.w3.org/2000/svg" xmlns:xlink="http://www.w3.org/1999/xlink">
<g id="graph0" class="graph" transform="scale(1 1) rotate(0) translate(4 73.5)">
<title>Shader::setTexture</title>
<polygon fill="white" stroke="transparent" points="-4,4 -4,-73.5 1233,-73.5 1233,4 -4,4"/>
<!-- Node1 -->
<g id="node1" class="node">
<title>Node1</title>
<g id="a_node1"><a xlink:title=" ">
<polygon fill="#bfbfbf" stroke="black" points="1130,-22.5 1130,-41.5 1229,-41.5 1229,-22.5 1130,-22.5"/>
<text text-anchor="middle" x="1179.5" y="-29.5" font-family="Helvetica,sans-Serif" font-size="10.00">Shader::setTexture</text>
</a>
</g>
</g>
<!-- Node2 -->
<g id="node2" class="node">
<title>Node2</title>
<g id="a_node2"><a xlink:href="class_texture2_d.html#a88024715528fe768cc3fbd087c72abe2" target="_top" xlink:title=" ">
<polygon fill="white" stroke="black" points="982,-22.5 982,-41.5 1094,-41.5 1094,-22.5 982,-22.5"/>
<text text-anchor="middle" x="1038" y="-29.5" font-family="Helvetica,sans-Serif" font-size="10.00">Texture2D::textureSet</text>
</a>
</g>
</g>
<!-- Node1&#45;&gt;Node2 -->
<g id="edge1" class="edge">
<title>Node1&#45;&gt;Node2</title>
<path fill="none" stroke="midnightblue" d="M1119.59,-32C1111.17,-32 1102.54,-32 1094.2,-32"/>
<polygon fill="midnightblue" stroke="midnightblue" points="1119.71,-35.5 1129.71,-32 1119.71,-28.5 1119.71,-35.5"/>
</g>
<!-- Node3 -->
<g id="node3" class="node">
<title>Node3</title>
<g id="a_node3"><a xlink:href="class_texture2_d.html#aaf010a4c527630700b3678298f98b05e" target="_top" xlink:title=" ">
<polygon fill="white" stroke="black" points="818.5,-42.5 818.5,-61.5 931.5,-61.5 931.5,-42.5 818.5,-42.5"/>
<text text-anchor="middle" x="875" y="-49.5" font-family="Helvetica,sans-Serif" font-size="10.00">Texture2D::setTexture</text>
</a>
</g>
</g>
<!-- Node2&#45;&gt;Node3 -->
<g id="edge2" class="edge">
<title>Node2&#45;&gt;Node3</title>
<path fill="none" stroke="midnightblue" d="M971.57,-40.13C958.28,-41.78 944.42,-43.5 931.51,-45.1"/>
<polygon fill="midnightblue" stroke="midnightblue" points="972.1,-43.59 981.59,-38.88 971.24,-36.64 972.1,-43.59"/>
</g>
<!-- Node5 -->
<g id="node5" class="node">
<title>Node5</title>
<g id="a_node5"><a xlink:href="class_texture_cube_map.html#af452a341bdd71814388c5b0e799bd490" target="_top" xlink:title=" ">
<polygon fill="white" stroke="black" points="804,-3.5 804,-22.5 946,-22.5 946,-3.5 804,-3.5"/>
<text text-anchor="middle" x="875" y="-10.5" font-family="Helvetica,sans-Serif" font-size="10.00">TextureCubeMap::setTexture</text>
</a>
</g>
</g>
<!-- Node2&#45;&gt;Node5 -->
<g id="edge4" class="edge">
<title>Node2&#45;&gt;Node5</title>
<path fill="none" stroke="midnightblue" d="M971.49,-24.27C963.1,-23.28 954.48,-22.26 946.01,-21.26"/>
<polygon fill="midnightblue" stroke="midnightblue" points="971.25,-27.77 981.59,-25.46 972.07,-20.81 971.25,-27.77"/>
</g>
<!-- Node4 -->
<g id="node4" class="node">
<title>Node4</title>
<g id="a_node4"><a xlink:href="class_final_post_process.html#a5dd6fd0b5024b47011351a8c64dde3a5" target="_top" xlink:title=" ">
<polygon fill="white" stroke="black" points="622,-39 622,-69 768,-69 768,-39 622,-39"/>
<text text-anchor="start" x="630" y="-57" font-family="Helvetica,sans-Serif" font-size="10.00">FinalPostProcess::setTexture</text>
<text text-anchor="middle" x="695" y="-46" font-family="Helvetica,sans-Serif" font-size="10.00">Uniform</text>
</a>
</g>
</g>
<!-- Node3&#45;&gt;Node4 -->
<g id="edge3" class="edge">
<title>Node3&#45;&gt;Node4</title>
<path fill="none" stroke="midnightblue" d="M807.97,-52.74C795.05,-52.89 781.43,-53.04 768.31,-53.19"/>
<polygon fill="midnightblue" stroke="midnightblue" points="808.21,-56.24 818.17,-52.63 808.13,-49.24 808.21,-56.24"/>
</g>
<!-- Node6 -->
<g id="node6" class="node">
<title>Node6</title>
<g id="a_node6"><a xlink:href="class_skybox.html#a0798234f163ec6b1ae7944002640d14a" target="_top" xlink:title=" ">
<polygon fill="white" stroke="black" points="657,-0.5 657,-19.5 733,-19.5 733,-0.5 657,-0.5"/>
<text text-anchor="middle" x="695" y="-7.5" font-family="Helvetica,sans-Serif" font-size="10.00">Skybox::draw</text>
</a>
</g>
</g>
<!-- Node5&#45;&gt;Node6 -->
<g id="edge5" class="edge">
<title>Node5&#45;&gt;Node6</title>
<path fill="none" stroke="midnightblue" d="M793.63,-11.65C772.56,-11.29 750.83,-10.92 733.24,-10.63"/>
<polygon fill="midnightblue" stroke="midnightblue" points="793.85,-15.15 803.91,-11.82 793.97,-8.15 793.85,-15.15"/>
</g>
<!-- Node7 -->
<g id="node7" class="node">
<title>Node7</title>
<g id="a_node7"><a xlink:href="class_main_renderer.html#a508a80df1c58c0820c8f18ced3a0558d" target="_top" xlink:title=" ">
<polygon fill="white" stroke="black" points="455,-0.5 455,-19.5 586,-19.5 586,-0.5 455,-0.5"/>
<text text-anchor="middle" x="520.5" y="-7.5" font-family="Helvetica,sans-Serif" font-size="10.00">MainRenderer::renderMain</text>
</a>
</g>
</g>
<!-- Node6&#45;&gt;Node7 -->
<g id="edge6" class="edge">
<title>Node6&#45;&gt;Node7</title>
<path fill="none" stroke="midnightblue" d="M646.96,-10C628.27,-10 606.45,-10 586.3,-10"/>
<polygon fill="midnightblue" stroke="midnightblue" points="646.99,-13.5 656.99,-10 646.99,-6.5 646.99,-13.5"/>
</g>
<!-- Node8 -->
<g id="node8" class="node">
<title>Node8</title>
<g id="a_node8"><a xlink:href="class_main_renderer.html#a7bdd84247ecd2942b26896524d84a863" target="_top" xlink:title=" ">
<polygon fill="white" stroke="black" points="309,-0.5 309,-19.5 419,-19.5 419,-0.5 309,-0.5"/>
<text text-anchor="middle" x="364" y="-7.5" font-family="Helvetica,sans-Serif" font-size="10.00">MainRenderer::render</text>
</a>
</g>
</g>
<!-- Node7&#45;&gt;Node8 -->
<g id="edge7" class="edge">
<title>Node7&#45;&gt;Node8</title>
<path fill="none" stroke="midnightblue" d="M444.76,-10C436.1,-10 427.4,-10 419.09,-10"/>
<polygon fill="midnightblue" stroke="midnightblue" points="444.87,-13.5 454.87,-10 444.87,-6.5 444.87,-13.5"/>
</g>
<!-- Node9 -->
<g id="node9" class="node">
<title>Node9</title>
<g id="a_node9"><a xlink:href="class_render_scene.html#a153e3fddce39acca50179504825bdc8f" target="_top" xlink:title=" ">
<polygon fill="white" stroke="black" points="144,-0.5 144,-19.5 273,-19.5 273,-0.5 144,-0.5"/>
<text text-anchor="middle" x="208.5" y="-7.5" font-family="Helvetica,sans-Serif" font-size="10.00">RenderScene::renderLoop</text>
</a>
</g>
</g>
<!-- Node8&#45;&gt;Node9 -->
<g id="edge8" class="edge">
<title>Node8&#45;&gt;Node9</title>
<path fill="none" stroke="midnightblue" d="M298.69,-10C290.23,-10 281.56,-10 273.11,-10"/>
<polygon fill="midnightblue" stroke="midnightblue" points="298.88,-13.5 308.88,-10 298.88,-6.5 298.88,-13.5"/>
</g>
<!-- Node10 -->
<g id="node10" class="node">
<title>Node10</title>
<g id="a_node10"><a xlink:href="class_process.html#a2ef87d936c7fae4508557714f593506e" target="_top" xlink:title=" ">
<polygon fill="white" stroke="black" points="0,-0.5 0,-19.5 108,-19.5 108,-0.5 0,-0.5"/>
<text text-anchor="middle" x="54" y="-7.5" font-family="Helvetica,sans-Serif" font-size="10.00">Process::runProcess</text>
</a>
</g>
</g>
<!-- Node9&#45;&gt;Node10 -->
<g id="edge9" class="edge">
<title>Node9&#45;&gt;Node10</title>
<path fill="none" stroke="midnightblue" d="M133.44,-10C124.99,-10 116.5,-10 108.39,-10"/>
<polygon fill="midnightblue" stroke="midnightblue" points="133.71,-13.5 143.71,-10 133.71,-6.5 133.71,-13.5"/>
</g>
</g>
</svg>
