<?xml version="1.0" encoding="UTF-8" standalone="no"?>
<!DOCTYPE svg PUBLIC "-//W3C//DTD SVG 1.1//EN"
 "http://www.w3.org/Graphics/SVG/1.1/DTD/svg11.dtd">
<!-- Generated by graphviz version 2.40.1 (20161225.0304)
 -->
<!-- Title: Material Pages: 1 -->
<svg width="444pt" height="140pt"
 viewBox="0.00 0.00 444.00 140.00" xmlns="http://www.w3.org/2000/svg" xmlns:xlink="http://www.w3.org/1999/xlink">
<g id="graph0" class="graph" transform="scale(1 1) rotate(0) translate(4 136)">
<title>Material</title>
<polygon fill="#ffffff" stroke="transparent" points="-4,4 -4,-136 440,-136 440,4 -4,4"/>
<!-- Node0 -->
<g id="node1" class="node">
<title>Node0</title>
<polygon fill="#bfbfbf" stroke="#000000" points="185,-112.5 185,-131.5 236,-131.5 236,-112.5 185,-112.5"/>
<text text-anchor="middle" x="210.5" y="-119.5" font-family="Helvetica,sans-Serif" font-size="10.00" fill="#000000">Material</text>
</g>
<!-- Node1 -->
<g id="node2" class="node">
<title>Node1</title>
<g id="a_node2"><a xlink:href="class_f_x_a_a_material.html" target="_top" xlink:title="A FXAA shader material, for use in post process. ">
<polygon fill="#ffffff" stroke="#000000" points="0,-56.5 0,-75.5 77,-75.5 77,-56.5 0,-56.5"/>
<text text-anchor="middle" x="38.5" y="-63.5" font-family="Helvetica,sans-Serif" font-size="10.00" fill="#000000">FXAAMaterial</text>
</a>
</g>
</g>
<!-- Node0&#45;&gt;Node1 -->
<g id="edge1" class="edge">
<title>Node0&#45;&gt;Node1</title>
<path fill="none" stroke="#191970" d="M175.0058,-110.4438C143.3452,-100.1356 97.54,-85.2223 67.8892,-75.5686"/>
<polygon fill="#191970" stroke="#191970" points="174.1576,-113.8484 184.7499,-113.6162 176.3247,-107.1923 174.1576,-113.8484"/>
</g>
<!-- Node2 -->
<g id="node3" class="node">
<title>Node2</title>
<g id="a_node3"><a xlink:href="class_mesh_material_common.html" target="_top" xlink:title="MeshMaterialCommon">
<polygon fill="#ffffff" stroke="#000000" points="95,-56.5 95,-75.5 210,-75.5 210,-56.5 95,-56.5"/>
<text text-anchor="middle" x="152.5" y="-63.5" font-family="Helvetica,sans-Serif" font-size="10.00" fill="#000000">MeshMaterialCommon</text>
</a>
</g>
</g>
<!-- Node0&#45;&gt;Node2 -->
<g id="edge2" class="edge">
<title>Node0&#45;&gt;Node2</title>
<path fill="none" stroke="#191970" d="M192.9707,-105.0751C182.9917,-95.4402 170.8524,-83.7196 162.4871,-75.6427"/>
<polygon fill="#191970" stroke="#191970" points="190.772,-107.8175 200.3972,-112.2455 195.6342,-102.7817 190.772,-107.8175"/>
</g>
<!-- Node5 -->
<g id="node6" class="node">
<title>Node5</title>
<g id="a_node6"><a xlink:href="class_shader_material.html" target="_top" xlink:title="A wrapper material for directly using shaders. ">
<polygon fill="#ffffff" stroke="#000000" points="228.5,-56.5 228.5,-75.5 310.5,-75.5 310.5,-56.5 228.5,-56.5"/>
<text text-anchor="middle" x="269.5" y="-63.5" font-family="Helvetica,sans-Serif" font-size="10.00" fill="#000000">ShaderMaterial</text>
</a>
</g>
</g>
<!-- Node0&#45;&gt;Node5 -->
<g id="edge5" class="edge">
<title>Node0&#45;&gt;Node5</title>
<path fill="none" stroke="#191970" d="M228.0307,-105.3607C238.2377,-95.6727 250.7469,-83.7995 259.3408,-75.6427"/>
<polygon fill="#191970" stroke="#191970" points="225.6206,-102.8227 220.777,-112.2455 230.4396,-107.8998 225.6206,-102.8227"/>
</g>
<!-- Node6 -->
<g id="node7" class="node">
<title>Node6</title>
<g id="a_node7"><a xlink:href="class_texture_copy_material.html" target="_top" xlink:title="TextureCopyMaterial">
<polygon fill="#ffffff" stroke="#000000" points="329,-56.5 329,-75.5 436,-75.5 436,-56.5 329,-56.5"/>
<text text-anchor="middle" x="382.5" y="-63.5" font-family="Helvetica,sans-Serif" font-size="10.00" fill="#000000">TextureCopyMaterial</text>
</a>
</g>
</g>
<!-- Node0&#45;&gt;Node6 -->
<g id="edge6" class="edge">
<title>Node0&#45;&gt;Node6</title>
<path fill="none" stroke="#191970" d="M245.9942,-110.4438C277.6548,-100.1356 323.46,-85.2223 353.1108,-75.5686"/>
<polygon fill="#191970" stroke="#191970" points="244.6753,-107.1923 236.2501,-113.6162 246.8424,-113.8484 244.6753,-107.1923"/>
</g>
<!-- Node3 -->
<g id="node4" class="node">
<title>Node3</title>
<g id="a_node4"><a xlink:href="class_mesh_lambert_material.html" target="_top" xlink:title="MeshLambertMaterial">
<polygon fill="#ffffff" stroke="#000000" points="32.5,-.5 32.5,-19.5 142.5,-19.5 142.5,-.5 32.5,-.5"/>
<text text-anchor="middle" x="87.5" y="-7.5" font-family="Helvetica,sans-Serif" font-size="10.00" fill="#000000">MeshLambertMaterial</text>
</a>
</g>
</g>
<!-- Node2&#45;&gt;Node3 -->
<g id="edge3" class="edge">
<title>Node2&#45;&gt;Node3</title>
<path fill="none" stroke="#191970" d="M133.5165,-49.645C122.2121,-39.9058 108.253,-27.8795 98.6924,-19.6427"/>
<polygon fill="#191970" stroke="#191970" points="131.3173,-52.3701 141.1779,-56.2455 135.8862,-47.0668 131.3173,-52.3701"/>
</g>
<!-- Node4 -->
<g id="node5" class="node">
<title>Node4</title>
<g id="a_node5"><a xlink:href="class_mesh_standard_material.html" target="_top" xlink:title="MeshStandardMaterial">
<polygon fill="#ffffff" stroke="#000000" points="160.5,-.5 160.5,-19.5 274.5,-19.5 274.5,-.5 160.5,-.5"/>
<text text-anchor="middle" x="217.5" y="-7.5" font-family="Helvetica,sans-Serif" font-size="10.00" fill="#000000">MeshStandardMaterial</text>
</a>
</g>
</g>
<!-- Node2&#45;&gt;Node4 -->
<g id="edge4" class="edge">
<title>Node2&#45;&gt;Node4</title>
<path fill="none" stroke="#191970" d="M171.4835,-49.645C182.7879,-39.9058 196.747,-27.8795 206.3076,-19.6427"/>
<polygon fill="#191970" stroke="#191970" points="169.1138,-47.0668 163.8221,-56.2455 173.6827,-52.3701 169.1138,-47.0668"/>
</g>
</g>
</svg>
