<?xml version="1.0" encoding="UTF-8" standalone="no"?>
<!DOCTYPE svg PUBLIC "-//W3C//DTD SVG 1.1//EN"
 "http://www.w3.org/Graphics/SVG/1.1/DTD/svg11.dtd">
<!-- Generated by graphviz version 2.44.1 (20200629.0846)
 -->
<!-- Title: Camera Pages: 1 -->
<svg width="350pt" height="173pt"
 viewBox="0.00 0.00 350.00 173.00" xmlns="http://www.w3.org/2000/svg" xmlns:xlink="http://www.w3.org/1999/xlink">
<g id="graph0" class="graph" transform="scale(1 1) rotate(0) translate(4 169)">
<title>Camera</title>
<polygon fill="white" stroke="transparent" points="-4,4 -4,-169 346,-169 346,4 -4,4"/>
<!-- Node1 -->
<g id="node1" class="node">
<title>Node1</title>
<g id="a_node1"><a xlink:title=" ">
<polygon fill="#bfbfbf" stroke="black" points="122,-0.5 122,-19.5 172,-19.5 172,-0.5 122,-0.5"/>
<text text-anchor="middle" x="147" y="-7.5" font-family="Helvetica,sans-Serif" font-size="10.00">Camera</text>
</a>
</g>
</g>
<!-- Node2 -->
<g id="node2" class="node">
<title>Node2</title>
<g id="a_node2"><a xlink:href="class_entity.html" target="_top" xlink:title=" ">
<polygon fill="white" stroke="black" points="0,-73 0,-92 42,-92 42,-73 0,-73"/>
<text text-anchor="middle" x="21" y="-80" font-family="Helvetica,sans-Serif" font-size="10.00">Entity</text>
</a>
</g>
</g>
<!-- Node2&#45;&gt;Node1 -->
<g id="edge1" class="edge">
<title>Node2&#45;&gt;Node1</title>
<path fill="none" stroke="midnightblue" d="M45.46,-67.81C70.89,-53.59 109.91,-31.75 131.42,-19.72"/>
<polygon fill="midnightblue" stroke="midnightblue" points="43.47,-64.92 36.45,-72.86 46.89,-71.03 43.47,-64.92"/>
</g>
<!-- Node3 -->
<g id="node3" class="node">
<title>Node3</title>
<g id="a_node3"><a xlink:href="class_transform.html" target="_top" xlink:title=" ">
<polygon fill="white" stroke="black" points="58.5,-145.5 58.5,-164.5 117.5,-164.5 117.5,-145.5 58.5,-145.5"/>
<text text-anchor="middle" x="88" y="-152.5" font-family="Helvetica,sans-Serif" font-size="10.00">Transform</text>
</a>
</g>
</g>
<!-- Node3&#45;&gt;Node2 -->
<g id="edge2" class="edge">
<title>Node3&#45;&gt;Node2</title>
<path fill="none" stroke="#9a32cd" stroke-dasharray="5,2" d="M52.55,-140.9C46.04,-137.21 39.79,-132.62 35,-127 26.46,-116.97 23.11,-101.66 21.81,-92.13"/>
<polygon fill="#9a32cd" stroke="#9a32cd" points="50.99,-144.03 61.5,-145.39 54.13,-137.78 50.99,-144.03"/>
<text text-anchor="middle" x="57" y="-119" font-family="Helvetica,sans-Serif" font-size="10.00"> transform</text>
</g>
<!-- Node3&#45;&gt;Node3 -->
<g id="edge5" class="edge">
<title>Node3&#45;&gt;Node3</title>
<path fill="none" stroke="#9a32cd" stroke-dasharray="5,2" d="M127.67,-160.16C132.41,-159.22 135.5,-157.5 135.5,-155 135.5,-151 127.58,-149 117.69,-149"/>
<polygon fill="#9a32cd" stroke="#9a32cd" points="127.36,-156.67 117.69,-161 127.95,-163.65 127.36,-156.67"/>
<text text-anchor="middle" x="151" y="-152.5" font-family="Helvetica,sans-Serif" font-size="10.00"> parent</text>
</g>
<!-- Node4 -->
<g id="node4" class="node">
<title>Node4</title>
<g id="a_node4"><a xlink:title=" ">
<polygon fill="white" stroke="#bfbfbf" points="60.5,-73 60.5,-92 189.5,-92 189.5,-73 60.5,-73"/>
<text text-anchor="middle" x="125" y="-80" font-family="Helvetica,sans-Serif" font-size="10.00">std::vector&lt; Transform * &gt;</text>
</a>
</g>
</g>
<!-- Node3&#45;&gt;Node4 -->
<g id="edge4" class="edge">
<title>Node3&#45;&gt;Node4</title>
<path fill="none" stroke="#9a32cd" stroke-dasharray="5,2" d="M82.85,-135.51C81.99,-129.07 82.16,-121.97 85,-116 89.85,-105.82 99.61,-97.79 108.28,-92.26"/>
<polygon fill="#9a32cd" stroke="#9a32cd" points="79.45,-136.35 84.95,-145.4 86.29,-134.89 79.45,-136.35"/>
<text text-anchor="middle" x="106.5" y="-119" font-family="Helvetica,sans-Serif" font-size="10.00"> elements</text>
</g>
<!-- Node4&#45;&gt;Node3 -->
<g id="edge3" class="edge">
<title>Node4&#45;&gt;Node3</title>
<path fill="none" stroke="#9a32cd" stroke-dasharray="5,2" d="M132.92,-101.5C135.31,-109.71 136.31,-119.3 132,-127 127.45,-135.13 119.33,-141.12 111.3,-145.35"/>
<polygon fill="#9a32cd" stroke="#9a32cd" points="136.19,-100.24 129.44,-92.07 129.62,-102.67 136.19,-100.24"/>
<text text-anchor="middle" x="153.5" y="-119" font-family="Helvetica,sans-Serif" font-size="10.00"> children</text>
</g>
<!-- Node5 -->
<g id="node5" class="node">
<title>Node5</title>
<g id="a_node5"><a xlink:title=" ">
<polygon fill="white" stroke="#bfbfbf" points="208,-67.5 208,-97.5 342,-97.5 342,-67.5 208,-67.5"/>
<text text-anchor="start" x="216" y="-85.5" font-family="Helvetica,sans-Serif" font-size="10.00">std::unique_ptr&lt; Projection</text>
<text text-anchor="middle" x="275" y="-74.5" font-family="Helvetica,sans-Serif" font-size="10.00">Data &gt;</text>
</a>
</g>
</g>
<!-- Node5&#45;&gt;Node1 -->
<g id="edge6" class="edge">
<title>Node5&#45;&gt;Node1</title>
<path fill="none" stroke="#9a32cd" stroke-dasharray="5,2" d="M240.44,-62.47C215.03,-48.47 181.71,-30.12 162.49,-19.53"/>
<polygon fill="#9a32cd" stroke="#9a32cd" points="238.96,-65.64 249.4,-67.4 242.33,-59.51 238.96,-65.64"/>
<text text-anchor="middle" x="248" y="-41" font-family="Helvetica,sans-Serif" font-size="10.00"> projectionData</text>
</g>
<!-- Node6 -->
<g id="node6" class="node">
<title>Node6</title>
<g id="a_node6"><a xlink:href="class_projection_data.html" target="_top" xlink:title=" ">
<polygon fill="white" stroke="black" points="235,-145.5 235,-164.5 315,-164.5 315,-145.5 235,-145.5"/>
<text text-anchor="middle" x="275" y="-152.5" font-family="Helvetica,sans-Serif" font-size="10.00">ProjectionData</text>
</a>
</g>
</g>
<!-- Node6&#45;&gt;Node5 -->
<g id="edge7" class="edge">
<title>Node6&#45;&gt;Node5</title>
<path fill="none" stroke="#9a32cd" stroke-dasharray="5,2" d="M275,-135.24C275,-123.41 275,-108.38 275,-97.58"/>
<polygon fill="#9a32cd" stroke="#9a32cd" points="271.5,-135.36 275,-145.36 278.5,-135.36 271.5,-135.36"/>
<text text-anchor="middle" x="282.5" y="-119" font-family="Helvetica,sans-Serif" font-size="10.00"> ptr</text>
</g>
</g>
</svg>
