<?xml version="1.0" encoding="UTF-8" standalone="no"?>
<!DOCTYPE svg PUBLIC "-//W3C//DTD SVG 1.1//EN"
 "http://www.w3.org/Graphics/SVG/1.1/DTD/svg11.dtd">
<!-- Generated by graphviz version 2.44.1 (20200629.0846)
 -->
<!-- Title: Entity::getTransform Pages: 1 -->
<svg width="759pt" height="145pt"
 viewBox="0.00 0.00 759.00 145.00" xmlns="http://www.w3.org/2000/svg" xmlns:xlink="http://www.w3.org/1999/xlink">
<g id="graph0" class="graph" transform="scale(1 1) rotate(0) translate(4 141)">
<title>Entity::getTransform</title>
<polygon fill="white" stroke="transparent" points="-4,4 -4,-141 755,-141 755,4 -4,4"/>
<!-- Node1 -->
<g id="node1" class="node">
<title>Node1</title>
<g id="a_node1"><a xlink:title=" ">
<polygon fill="#bfbfbf" stroke="black" points="647,-50 647,-69 751,-69 751,-50 647,-50"/>
<text text-anchor="middle" x="699" y="-57" font-family="Helvetica,sans-Serif" font-size="10.00">Entity::getTransform</text>
</a>
</g>
</g>
<!-- Node2 -->
<g id="node2" class="node">
<title>Node2</title>
<g id="a_node2"><a xlink:href="class_component.html#a8cd5ee4645a0cbe620c1acef8118549b" target="_top" xlink:title=" ">
<polygon fill="white" stroke="black" points="483,-88 483,-107 611,-107 611,-88 483,-88"/>
<text text-anchor="middle" x="547" y="-95" font-family="Helvetica,sans-Serif" font-size="10.00">Component::getTransform</text>
</a>
</g>
</g>
<!-- Node1&#45;&gt;Node2 -->
<g id="edge1" class="edge">
<title>Node1&#45;&gt;Node2</title>
<path fill="none" stroke="midnightblue" d="M650.19,-71.61C629.3,-76.9 605.15,-83.02 585.58,-87.98"/>
<polygon fill="midnightblue" stroke="midnightblue" points="651.31,-74.94 660.15,-69.09 649.6,-68.15 651.31,-74.94"/>
</g>
<!-- Node8 -->
<g id="node8" class="node">
<title>Node8</title>
<g id="a_node8"><a xlink:href="class_renderer.html#aa814eabb912509d0cd34b61018e98fb4" target="_top" xlink:title=" ">
<polygon fill="white" stroke="black" points="488.5,-50 488.5,-69 605.5,-69 605.5,-50 488.5,-50"/>
<text text-anchor="middle" x="547" y="-57" font-family="Helvetica,sans-Serif" font-size="10.00">Renderer::renderObject</text>
</a>
</g>
</g>
<!-- Node1&#45;&gt;Node8 -->
<g id="edge8" class="edge">
<title>Node1&#45;&gt;Node8</title>
<path fill="none" stroke="midnightblue" d="M636.69,-59.5C626.44,-59.5 615.83,-59.5 605.67,-59.5"/>
<polygon fill="midnightblue" stroke="midnightblue" points="636.8,-63 646.8,-59.5 636.8,-56 636.8,-63"/>
</g>
<!-- Node9 -->
<g id="node9" class="node">
<title>Node9</title>
<g id="a_node9"><a xlink:href="class_transform_update_system.html#a6d72963cb88ce1c1de8c77b4760a3813" target="_top" xlink:title=" ">
<polygon fill="white" stroke="black" points="485,-0.5 485,-30.5 609,-30.5 609,-0.5 485,-0.5"/>
<text text-anchor="start" x="493" y="-18.5" font-family="Helvetica,sans-Serif" font-size="10.00">TransformUpdateSystem</text>
<text text-anchor="middle" x="547" y="-7.5" font-family="Helvetica,sans-Serif" font-size="10.00">::runSystem</text>
</a>
</g>
</g>
<!-- Node1&#45;&gt;Node9 -->
<g id="edge9" class="edge">
<title>Node1&#45;&gt;Node9</title>
<path fill="none" stroke="midnightblue" d="M655.54,-47.04C638.06,-41.92 617.66,-35.94 599.36,-30.57"/>
<polygon fill="midnightblue" stroke="midnightblue" points="654.87,-50.5 665.45,-49.95 656.84,-43.78 654.87,-50.5"/>
</g>
<!-- Node3 -->
<g id="node3" class="node">
<title>Node3</title>
<g id="a_node3"><a xlink:href="class_orbit_controls_component.html#ac63d4a4bec582b9b23b757cdda4693ff" target="_top" xlink:title=" ">
<polygon fill="white" stroke="black" points="165,-106.5 165,-136.5 288,-136.5 288,-106.5 165,-106.5"/>
<text text-anchor="start" x="173" y="-124.5" font-family="Helvetica,sans-Serif" font-size="10.00">OrbitControlsComponent</text>
<text text-anchor="middle" x="226.5" y="-113.5" font-family="Helvetica,sans-Serif" font-size="10.00">::onUpdate</text>
</a>
</g>
</g>
<!-- Node2&#45;&gt;Node3 -->
<g id="edge2" class="edge">
<title>Node2&#45;&gt;Node3</title>
<path fill="none" stroke="midnightblue" d="M472.51,-103.04C416.64,-107.25 340.71,-112.97 288.26,-116.92"/>
<polygon fill="midnightblue" stroke="midnightblue" points="472.99,-106.51 482.69,-102.27 472.46,-99.53 472.99,-106.51"/>
</g>
<!-- Node4 -->
<g id="node4" class="node">
<title>Node4</title>
<g id="a_node4"><a xlink:href="class_orbit_controls_component.html#aedf4dc7f005ffee67f71660dc0652354" target="_top" xlink:title=" ">
<polygon fill="white" stroke="black" points="324,-59.5 324,-89.5 447,-89.5 447,-59.5 324,-59.5"/>
<text text-anchor="start" x="332" y="-77.5" font-family="Helvetica,sans-Serif" font-size="10.00">OrbitControlsComponent</text>
<text text-anchor="middle" x="385.5" y="-66.5" font-family="Helvetica,sans-Serif" font-size="10.00">::updatePosition</text>
</a>
</g>
</g>
<!-- Node2&#45;&gt;Node4 -->
<g id="edge3" class="edge">
<title>Node2&#45;&gt;Node4</title>
<path fill="none" stroke="midnightblue" d="M472.95,-86.97C464.35,-85.73 455.66,-84.47 447.26,-83.26"/>
<polygon fill="midnightblue" stroke="midnightblue" points="472.56,-90.45 482.96,-88.41 473.56,-83.52 472.56,-90.45"/>
</g>
<!-- Node4&#45;&gt;Node3 -->
<g id="edge4" class="edge">
<title>Node4&#45;&gt;Node3</title>
<path fill="none" stroke="midnightblue" d="M324.42,-92.49C308.99,-97.11 292.54,-102.03 277.67,-106.48"/>
<polygon fill="midnightblue" stroke="midnightblue" points="325.82,-95.72 334.39,-89.5 323.81,-89.02 325.82,-95.72"/>
</g>
<!-- Node5 -->
<g id="node5" class="node">
<title>Node5</title>
<g id="a_node5"><a xlink:href="class_orbit_controls_component.html#aa87d7904483e91ed6b11eaca2486d7ad" target="_top" xlink:title=" ">
<polygon fill="white" stroke="black" points="165,-57.5 165,-87.5 288,-87.5 288,-57.5 165,-57.5"/>
<text text-anchor="start" x="173" y="-75.5" font-family="Helvetica,sans-Serif" font-size="10.00">OrbitControlsComponent</text>
<text text-anchor="middle" x="226.5" y="-64.5" font-family="Helvetica,sans-Serif" font-size="10.00">::setCenterPosition</text>
</a>
</g>
</g>
<!-- Node4&#45;&gt;Node5 -->
<g id="edge5" class="edge">
<title>Node4&#45;&gt;Node5</title>
<path fill="none" stroke="midnightblue" d="M313.79,-73.6C305.19,-73.49 296.47,-73.38 288.04,-73.27"/>
<polygon fill="midnightblue" stroke="midnightblue" points="313.76,-77.1 323.8,-73.73 313.85,-70.1 313.76,-77.1"/>
</g>
<!-- Node6 -->
<g id="node6" class="node">
<title>Node6</title>
<g id="a_node6"><a xlink:href="class_orbit_controls_component.html#ac8611a683dbd195df68c64940d622d57" target="_top" xlink:title=" ">
<polygon fill="white" stroke="black" points="165,-8.5 165,-38.5 288,-38.5 288,-8.5 165,-8.5"/>
<text text-anchor="start" x="173" y="-26.5" font-family="Helvetica,sans-Serif" font-size="10.00">OrbitControlsComponent</text>
<text text-anchor="middle" x="226.5" y="-15.5" font-family="Helvetica,sans-Serif" font-size="10.00">::setPosition</text>
</a>
</g>
</g>
<!-- Node4&#45;&gt;Node6 -->
<g id="edge6" class="edge">
<title>Node4&#45;&gt;Node6</title>
<path fill="none" stroke="midnightblue" d="M328.47,-56.3C310.52,-50.47 290.86,-44.08 273.7,-38.51"/>
<polygon fill="midnightblue" stroke="midnightblue" points="327.65,-59.71 338.24,-59.47 329.81,-53.06 327.65,-59.71"/>
</g>
<!-- Node7 -->
<g id="node7" class="node">
<title>Node7</title>
<g id="a_node7"><a xlink:href="class_orbit_controls_component.html#adfc80f4e131076981f58094e95262eb3" target="_top" xlink:title=" ">
<polygon fill="white" stroke="black" points="0,-8.5 0,-38.5 129,-38.5 129,-8.5 0,-8.5"/>
<text text-anchor="start" x="8" y="-26.5" font-family="Helvetica,sans-Serif" font-size="10.00">OrbitControlsComponent</text>
<text text-anchor="middle" x="64.5" y="-15.5" font-family="Helvetica,sans-Serif" font-size="10.00">::OrbitControlsComponent</text>
</a>
</g>
</g>
<!-- Node6&#45;&gt;Node7 -->
<g id="edge7" class="edge">
<title>Node6&#45;&gt;Node7</title>
<path fill="none" stroke="midnightblue" d="M154.41,-23.5C146.01,-23.5 137.48,-23.5 129.2,-23.5"/>
<polygon fill="midnightblue" stroke="midnightblue" points="154.55,-27 164.55,-23.5 154.55,-20 154.55,-27"/>
</g>
</g>
</svg>
