<?xml version="1.0" encoding="UTF-8" standalone="no"?>
<!DOCTYPE svg PUBLIC "-//W3C//DTD SVG 1.1//EN"
 "http://www.w3.org/Graphics/SVG/1.1/DTD/svg11.dtd">
<!-- Generated by graphviz version 2.44.1 (20200629.0846)
 -->
<!-- Title: LoopRenderer Pages: 1 -->
<svg width="2358pt" height="526pt"
 viewBox="0.00 0.00 2358.00 526.00" xmlns="http://www.w3.org/2000/svg" xmlns:xlink="http://www.w3.org/1999/xlink">
<g id="graph0" class="graph" transform="scale(1 1) rotate(0) translate(4 522)">
<title>LoopRenderer</title>
<polygon fill="white" stroke="transparent" points="-4,4 -4,-522 2354,-522 2354,4 -4,4"/>
<!-- Node1 -->
<g id="node1" class="node">
<title>Node1</title>
<g id="a_node1"><a xlink:title="A renderer that will be run in the game loop.">
<polygon fill="#bfbfbf" stroke="black" points="2273,-170 2273,-189 2350,-189 2350,-170 2273,-170"/>
<text text-anchor="middle" x="2311.5" y="-177" font-family="Helvetica,sans-Serif" font-size="10.00">LoopRenderer</text>
</a>
</g>
</g>
<!-- Node2 -->
<g id="node2" class="node">
<title>Node2</title>
<g id="a_node2"><a xlink:title=" ">
<polygon fill="white" stroke="#bfbfbf" points="972,-59.5 972,-89.5 1099,-89.5 1099,-59.5 972,-59.5"/>
<text text-anchor="start" x="980" y="-77.5" font-family="Helvetica,sans-Serif" font-size="10.00">std::vector&lt; PostProcess</text>
<text text-anchor="middle" x="1035.5" y="-66.5" font-family="Helvetica,sans-Serif" font-size="10.00">Pass * &gt;</text>
</a>
</g>
</g>
<!-- Node2&#45;&gt;Node1 -->
<g id="edge1" class="edge">
<title>Node2&#45;&gt;Node1</title>
<path fill="none" stroke="#9a32cd" stroke-dasharray="5,2" d="M1109.23,-71.74C1167.14,-69.78 1250.25,-67.5 1323,-67.5 1323,-67.5 1323,-67.5 2071,-67.5 2157.02,-67.5 2180.96,-83.72 2255,-127.5 2274.32,-138.93 2292.46,-158.11 2302.46,-169.71"/>
<polygon fill="#9a32cd" stroke="#9a32cd" points="1108.96,-68.25 1099.09,-72.09 1109.2,-75.25 1108.96,-68.25"/>
<text text-anchor="middle" x="1579" y="-70.5" font-family="Helvetica,sans-Serif" font-size="10.00"> framePostProcessPasses</text>
</g>
<!-- Node3 -->
<g id="node3" class="node">
<title>Node3</title>
<g id="a_node3"><a xlink:href="class_post_process_pass.html" target="_top" xlink:title=" ">
<polygon fill="white" stroke="black" points="622.5,-67 622.5,-86 717.5,-86 717.5,-67 622.5,-67"/>
<text text-anchor="middle" x="670" y="-74" font-family="Helvetica,sans-Serif" font-size="10.00">PostProcessPass</text>
</a>
</g>
</g>
<!-- Node3&#45;&gt;Node2 -->
<g id="edge2" class="edge">
<title>Node3&#45;&gt;Node2</title>
<path fill="none" stroke="#9a32cd" stroke-dasharray="5,2" d="M728.03,-76.19C794.26,-75.82 903.18,-75.22 971.76,-74.85"/>
<polygon fill="#9a32cd" stroke="#9a32cd" points="727.76,-72.69 717.78,-76.24 727.8,-79.69 727.76,-72.69"/>
<text text-anchor="middle" x="809.5" y="-79.5" font-family="Helvetica,sans-Serif" font-size="10.00"> elements</text>
</g>
<!-- Node4 -->
<g id="node4" class="node">
<title>Node4</title>
<g id="a_node4"><a xlink:title="STL class.">
<polygon fill="white" stroke="#bfbfbf" points="408.5,-236 408.5,-255 468.5,-255 468.5,-236 408.5,-236"/>
<text text-anchor="middle" x="438.5" y="-243" font-family="Helvetica,sans-Serif" font-size="10.00">std::string</text>
</a>
</g>
</g>
<!-- Node4&#45;&gt;Node3 -->
<g id="edge3" class="edge">
<title>Node4&#45;&gt;Node3</title>
<path fill="none" stroke="#9a32cd" stroke-dasharray="5,2" d="M451.77,-227.63C467.93,-204.92 498.07,-165.33 530,-137.5 547.01,-122.67 554.51,-123.44 573,-110.5 581.3,-104.69 581.9,-100.96 591,-96.5 600.66,-91.76 611.57,-88.06 622.1,-85.21"/>
<polygon fill="#9a32cd" stroke="#9a32cd" points="448.79,-225.78 445.92,-235.98 454.52,-229.8 448.79,-225.78"/>
<text text-anchor="middle" x="551.5" y="-140.5" font-family="Helvetica,sans-Serif" font-size="10.00"> name</text>
</g>
<!-- Node8 -->
<g id="node8" class="node">
<title>Node8</title>
<g id="a_node8"><a xlink:href="class_entity.html" target="_top" xlink:title=" ">
<polygon fill="white" stroke="black" points="891,-136 891,-155 933,-155 933,-136 891,-136"/>
<text text-anchor="middle" x="912" y="-143" font-family="Helvetica,sans-Serif" font-size="10.00">Entity</text>
</a>
</g>
</g>
<!-- Node4&#45;&gt;Node8 -->
<g id="edge8" class="edge">
<title>Node4&#45;&gt;Node8</title>
<path fill="none" stroke="#9a32cd" stroke-dasharray="5,2" d="M464.32,-230.81C493.54,-214.3 544.05,-188.15 591,-175.5 648.11,-160.11 830.09,-149.64 890.95,-146.49"/>
<polygon fill="#9a32cd" stroke="#9a32cd" points="462.55,-227.79 455.62,-235.81 466.03,-233.87 462.55,-227.79"/>
<text text-anchor="middle" x="670" y="-178.5" font-family="Helvetica,sans-Serif" font-size="10.00"> name</text>
</g>
<!-- Node23 -->
<g id="node23" class="node">
<title>Node23</title>
<g id="a_node23"><a xlink:href="class_component.html" target="_top" xlink:title=" ">
<polygon fill="white" stroke="black" points="1167.5,-300 1167.5,-319 1233.5,-319 1233.5,-300 1167.5,-300"/>
<text text-anchor="middle" x="1200.5" y="-307" font-family="Helvetica,sans-Serif" font-size="10.00">Component</text>
</a>
</g>
</g>
<!-- Node4&#45;&gt;Node23 -->
<g id="edge28" class="edge">
<title>Node4&#45;&gt;Node23</title>
<path fill="none" stroke="#9a32cd" stroke-dasharray="5,2" d="M452.39,-263.24C467.39,-284.15 492.57,-320.17 512,-352.5 520.81,-367.15 516.52,-375.98 530,-386.5 552.01,-403.67 563.28,-398.14 591,-401.5 816.13,-428.77 1086.24,-347.58 1171.98,-319.03"/>
<polygon fill="#9a32cd" stroke="#9a32cd" points="455.15,-261.07 446.46,-255.01 449.47,-265.17 455.15,-261.07"/>
<text text-anchor="middle" x="809.5" y="-406.5" font-family="Helvetica,sans-Serif" font-size="10.00"> componentName</text>
</g>
<!-- Node30 -->
<g id="node30" class="node">
<title>Node30</title>
<g id="a_node30"><a xlink:title=" ">
<polygon fill="white" stroke="#bfbfbf" points="608.5,-351 608.5,-392 731.5,-392 731.5,-351 608.5,-351"/>
<text text-anchor="start" x="616.5" y="-380" font-family="Helvetica,sans-Serif" font-size="10.00">std::unordered_map</text>
<text text-anchor="start" x="616.5" y="-369" font-family="Helvetica,sans-Serif" font-size="10.00">&lt; string, BufferGeometry</text>
<text text-anchor="middle" x="670" y="-358" font-family="Helvetica,sans-Serif" font-size="10.00">::AttributeData &gt;</text>
</a>
</g>
</g>
<!-- Node4&#45;&gt;Node30 -->
<g id="edge37" class="edge">
<title>Node4&#45;&gt;Node30</title>
<path fill="none" stroke="#9a32cd" stroke-dasharray="5,2" d="M461.2,-261.19C489.91,-281.49 542.55,-317.14 591,-341.5 597.61,-344.82 604.68,-348.02 611.77,-350.99"/>
<polygon fill="#9a32cd" stroke="#9a32cd" points="462.93,-258.13 452.76,-255.17 458.87,-263.83 462.93,-258.13"/>
<text text-anchor="middle" x="551.5" y="-332.5" font-family="Helvetica,sans-Serif" font-size="10.00"> keys</text>
</g>
<!-- Node5 -->
<g id="node5" class="node">
<title>Node5</title>
<g id="a_node5"><a xlink:title="STL class.">
<polygon fill="white" stroke="#bfbfbf" points="162,-230.5 162,-260.5 257,-260.5 257,-230.5 162,-230.5"/>
<text text-anchor="start" x="170" y="-248.5" font-family="Helvetica,sans-Serif" font-size="10.00">std::basic_string&lt;</text>
<text text-anchor="middle" x="209.5" y="-237.5" font-family="Helvetica,sans-Serif" font-size="10.00"> char &gt;</text>
</a>
</g>
</g>
<!-- Node5&#45;&gt;Node4 -->
<g id="edge4" class="edge">
<title>Node5&#45;&gt;Node4</title>
<path fill="none" stroke="midnightblue" d="M267.43,-245.5C312.29,-245.5 372.99,-245.5 408.43,-245.5"/>
<polygon fill="midnightblue" stroke="midnightblue" points="267.26,-242 257.26,-245.5 267.26,-249 267.26,-242"/>
</g>
<!-- Node6 -->
<g id="node6" class="node">
<title>Node6</title>
<g id="a_node6"><a xlink:href="struct_utils_1_1_unique_ptr_vector.html" target="_top" xlink:title=" ">
<polygon fill="white" stroke="black" points="2013.5,-247.5 2013.5,-277.5 2126.5,-277.5 2126.5,-247.5 2013.5,-247.5"/>
<text text-anchor="start" x="2021.5" y="-265.5" font-family="Helvetica,sans-Serif" font-size="10.00">Utils::UniquePtrVector</text>
<text text-anchor="middle" x="2070" y="-254.5" font-family="Helvetica,sans-Serif" font-size="10.00">&lt; PostProcessPass &gt;</text>
</a>
</g>
</g>
<!-- Node6&#45;&gt;Node1 -->
<g id="edge5" class="edge">
<title>Node6&#45;&gt;Node1</title>
<path fill="none" stroke="#9a32cd" stroke-dasharray="5,2" d="M2136.41,-248.63C2172.18,-240 2216.85,-227.48 2255,-211.5 2269.57,-205.4 2285.05,-196.22 2295.95,-189.26"/>
<polygon fill="#9a32cd" stroke="#9a32cd" points="2135.49,-245.25 2126.57,-250.96 2137.11,-252.06 2135.49,-245.25"/>
<text text-anchor="middle" x="2209" y="-244.5" font-family="Helvetica,sans-Serif" font-size="10.00"> postProcessPasses</text>
</g>
<!-- Node7 -->
<g id="node7" class="node">
<title>Node7</title>
<g id="a_node7"><a xlink:href="class_camera.html" target="_top" xlink:title=" ">
<polygon fill="white" stroke="black" points="1807,-114 1807,-133 1857,-133 1857,-114 1807,-114"/>
<text text-anchor="middle" x="1832" y="-121" font-family="Helvetica,sans-Serif" font-size="10.00">Camera</text>
</a>
</g>
</g>
<!-- Node7&#45;&gt;Node1 -->
<g id="edge6" class="edge">
<title>Node7&#45;&gt;Node1</title>
<path fill="none" stroke="#9a32cd" stroke-dasharray="5,2" d="M1867.02,-121.47C1924.56,-118.61 2044.66,-115.11 2145,-128.5 2195,-135.17 2207.13,-140.58 2255,-156.5 2266.58,-160.35 2279.17,-165.49 2289.42,-169.93"/>
<polygon fill="#9a32cd" stroke="#9a32cd" points="1866.82,-117.97 1857.02,-121.99 1867.19,-124.96 1866.82,-117.97"/>
<text text-anchor="middle" x="2070" y="-131.5" font-family="Helvetica,sans-Serif" font-size="10.00"> mainCamera</text>
</g>
<!-- Node17 -->
<g id="node17" class="node">
<title>Node17</title>
<g id="a_node17"><a xlink:title=" ">
<polygon fill="white" stroke="#bfbfbf" points="2004,-187 2004,-228 2136,-228 2136,-187 2004,-187"/>
<text text-anchor="start" x="2012" y="-216" font-family="Helvetica,sans-Serif" font-size="10.00">std::unordered_map</text>
<text text-anchor="start" x="2012" y="-205" font-family="Helvetica,sans-Serif" font-size="10.00">&lt; Camera *, LoopRenderer</text>
<text text-anchor="middle" x="2070" y="-194" font-family="Helvetica,sans-Serif" font-size="10.00">::FrustumCullingData &gt;</text>
</a>
</g>
</g>
<!-- Node7&#45;&gt;Node17 -->
<g id="edge20" class="edge">
<title>Node7&#45;&gt;Node17</title>
<path fill="none" stroke="#9a32cd" stroke-dasharray="5,2" d="M1866.86,-135.55C1904.52,-148.96 1966.01,-170.84 2011.29,-186.96"/>
<polygon fill="#9a32cd" stroke="#9a32cd" points="1867.96,-132.23 1857.37,-132.17 1865.61,-138.82 1867.96,-132.23"/>
<text text-anchor="middle" x="1955.5" y="-176.5" font-family="Helvetica,sans-Serif" font-size="10.00"> keys</text>
</g>
<!-- Node8&#45;&gt;Node7 -->
<g id="edge7" class="edge">
<title>Node8&#45;&gt;Node7</title>
<path fill="none" stroke="midnightblue" d="M943.36,-142.16C995.61,-136.71 1105.96,-126.5 1199.5,-126.5 1199.5,-126.5 1199.5,-126.5 1580,-126.5 1663.24,-126.5 1761.99,-124.83 1806.77,-123.98"/>
<polygon fill="midnightblue" stroke="midnightblue" points="942.69,-138.71 933.12,-143.25 943.43,-145.67 942.69,-138.71"/>
</g>
<!-- Node8&#45;&gt;Node23 -->
<g id="edge27" class="edge">
<title>Node8&#45;&gt;Node23</title>
<path fill="none" stroke="#9a32cd" stroke-dasharray="5,2" d="M943.25,-143.56C990.14,-141.25 1077.26,-139.97 1099,-160.5 1141.41,-200.55 1077.63,-247.47 1117,-290.5 1129.6,-304.27 1150,-309.06 1167.37,-310.38"/>
<polygon fill="#9a32cd" stroke="#9a32cd" points="942.87,-140.07 933.07,-144.11 943.25,-147.06 942.87,-140.07"/>
<text text-anchor="middle" x="1035.5" y="-163.5" font-family="Helvetica,sans-Serif" font-size="10.00"> associatedEntity</text>
</g>
<!-- Node9 -->
<g id="node9" class="node">
<title>Node9</title>
<g id="a_node9"><a xlink:title=" ">
<polygon fill="white" stroke="#bfbfbf" points="599,-106 599,-125 741,-125 741,-106 599,-106"/>
<text text-anchor="middle" x="670" y="-113" font-family="Helvetica,sans-Serif" font-size="10.00">std::unique_ptr&lt; Transform &gt;</text>
</a>
</g>
</g>
<!-- Node9&#45;&gt;Node8 -->
<g id="edge9" class="edge">
<title>Node9&#45;&gt;Node8</title>
<path fill="none" stroke="#9a32cd" stroke-dasharray="5,2" d="M751.11,-125C782.58,-128.79 819,-133.26 852,-137.5 864.92,-139.16 879.41,-141.12 890.8,-142.69"/>
<polygon fill="#9a32cd" stroke="#9a32cd" points="751.43,-121.51 741.08,-123.79 750.59,-128.46 751.43,-121.51"/>
<text text-anchor="middle" x="809.5" y="-140.5" font-family="Helvetica,sans-Serif" font-size="10.00"> transform</text>
</g>
<!-- Node10 -->
<g id="node10" class="node">
<title>Node10</title>
<g id="a_node10"><a xlink:href="class_transform.html" target="_top" xlink:title=" ">
<polygon fill="white" stroke="black" points="409,-59 409,-78 468,-78 468,-59 409,-59"/>
<text text-anchor="middle" x="438.5" y="-66" font-family="Helvetica,sans-Serif" font-size="10.00">Transform</text>
</a>
</g>
</g>
<!-- Node10&#45;&gt;Node9 -->
<g id="edge10" class="edge">
<title>Node10&#45;&gt;Node9</title>
<path fill="none" stroke="#9a32cd" stroke-dasharray="5,2" d="M477.96,-76.38C517.77,-84.53 579.98,-97.27 622.52,-105.98"/>
<polygon fill="#9a32cd" stroke="#9a32cd" points="478.6,-72.94 468.1,-74.36 477.2,-79.79 478.6,-72.94"/>
<text text-anchor="middle" x="551.5" y="-98.5" font-family="Helvetica,sans-Serif" font-size="10.00"> ptr</text>
</g>
<!-- Node10&#45;&gt;Node10 -->
<g id="edge13" class="edge">
<title>Node10&#45;&gt;Node10</title>
<path fill="none" stroke="#9a32cd" stroke-dasharray="5,2" d="M418.13,-87.9C419.49,-92.81 426.28,-96.5 438.5,-96.5 458.05,-96.5 463.7,-87.07 455.45,-78.26"/>
<polygon fill="#9a32cd" stroke="#9a32cd" points="421.51,-88.85 421.55,-78.26 414.91,-86.51 421.51,-88.85"/>
<text text-anchor="middle" x="438.5" y="-99.5" font-family="Helvetica,sans-Serif" font-size="10.00"> parent</text>
</g>
<!-- Node11 -->
<g id="node11" class="node">
<title>Node11</title>
<g id="a_node11"><a xlink:title=" ">
<polygon fill="white" stroke="#bfbfbf" points="605.5,-28 605.5,-47 734.5,-47 734.5,-28 605.5,-28"/>
<text text-anchor="middle" x="670" y="-35" font-family="Helvetica,sans-Serif" font-size="10.00">std::vector&lt; Transform * &gt;</text>
</a>
</g>
</g>
<!-- Node10&#45;&gt;Node11 -->
<g id="edge12" class="edge">
<title>Node10&#45;&gt;Node11</title>
<path fill="none" stroke="#9a32cd" stroke-dasharray="5,2" d="M469.71,-54.91C486.98,-47.89 509.27,-40.06 530,-36.5 554.38,-32.32 581.52,-31.64 605.3,-32.34"/>
<polygon fill="#9a32cd" stroke="#9a32cd" points="468.03,-51.82 460.17,-58.91 470.74,-58.27 468.03,-51.82"/>
<text text-anchor="middle" x="551.5" y="-39.5" font-family="Helvetica,sans-Serif" font-size="10.00"> elements</text>
</g>
<!-- Node11&#45;&gt;Node10 -->
<g id="edge11" class="edge">
<title>Node11&#45;&gt;Node10</title>
<path fill="none" stroke="#9a32cd" stroke-dasharray="5,2" d="M595.33,-47.45C552.04,-53.3 499.76,-60.36 468.1,-64.64"/>
<polygon fill="#9a32cd" stroke="#9a32cd" points="595.83,-50.92 605.27,-46.11 594.89,-43.98 595.83,-50.92"/>
<text text-anchor="middle" x="551.5" y="-59.5" font-family="Helvetica,sans-Serif" font-size="10.00"> children</text>
</g>
<!-- Node12 -->
<g id="node12" class="node">
<title>Node12</title>
<g id="a_node12"><a xlink:title=" ">
<polygon fill="white" stroke="#bfbfbf" points="1512,-0.5 1512,-30.5 1646,-30.5 1646,-0.5 1512,-0.5"/>
<text text-anchor="start" x="1520" y="-18.5" font-family="Helvetica,sans-Serif" font-size="10.00">std::unique_ptr&lt; Projection</text>
<text text-anchor="middle" x="1579" y="-7.5" font-family="Helvetica,sans-Serif" font-size="10.00">Data &gt;</text>
</a>
</g>
</g>
<!-- Node12&#45;&gt;Node7 -->
<g id="edge14" class="edge">
<title>Node12&#45;&gt;Node7</title>
<path fill="none" stroke="#9a32cd" stroke-dasharray="5,2" d="M1624.22,-34.53C1678.17,-57.74 1767.3,-96.09 1808.65,-113.88"/>
<polygon fill="#9a32cd" stroke="#9a32cd" points="1625.47,-31.25 1614.9,-30.52 1622.7,-37.68 1625.47,-31.25"/>
<text text-anchor="middle" x="1697" y="-82.5" font-family="Helvetica,sans-Serif" font-size="10.00"> projectionData</text>
</g>
<!-- Node13 -->
<g id="node13" class="node">
<title>Node13</title>
<g id="a_node13"><a xlink:href="class_projection_data.html" target="_top" xlink:title=" ">
<polygon fill="white" stroke="black" points="1364,-6 1364,-25 1444,-25 1444,-6 1364,-6"/>
<text text-anchor="middle" x="1404" y="-13" font-family="Helvetica,sans-Serif" font-size="10.00">ProjectionData</text>
</a>
</g>
</g>
<!-- Node13&#45;&gt;Node12 -->
<g id="edge15" class="edge">
<title>Node13&#45;&gt;Node12</title>
<path fill="none" stroke="#9a32cd" stroke-dasharray="5,2" d="M1454.43,-15.5C1472.27,-15.5 1492.7,-15.5 1511.75,-15.5"/>
<polygon fill="#9a32cd" stroke="#9a32cd" points="1454.26,-12 1444.26,-15.5 1454.26,-19 1454.26,-12"/>
<text text-anchor="middle" x="1478" y="-18.5" font-family="Helvetica,sans-Serif" font-size="10.00"> ptr</text>
</g>
<!-- Node14 -->
<g id="node14" class="node">
<title>Node14</title>
<g id="a_node14"><a xlink:title="STL class.">
<polygon fill="white" stroke="#bfbfbf" points="2038.5,-149 2038.5,-168 2101.5,-168 2101.5,-149 2038.5,-149"/>
<text text-anchor="middle" x="2070" y="-156" font-family="Helvetica,sans-Serif" font-size="10.00">std::mutex</text>
</a>
</g>
</g>
<!-- Node14&#45;&gt;Node1 -->
<g id="edge16" class="edge">
<title>Node14&#45;&gt;Node1</title>
<path fill="none" stroke="#9a32cd" stroke-dasharray="5,2" d="M2111.75,-158.58C2149.15,-159.11 2206.02,-161.05 2255,-167.5 2260.77,-168.26 2266.82,-169.31 2272.73,-170.47"/>
<polygon fill="#9a32cd" stroke="#9a32cd" points="2111.78,-155.08 2101.74,-158.47 2111.7,-162.08 2111.78,-155.08"/>
<text text-anchor="middle" x="2209" y="-170.5" font-family="Helvetica,sans-Serif" font-size="10.00"> frustumCullingMutex</text>
</g>
<!-- Node15 -->
<g id="node15" class="node">
<title>Node15</title>
<g id="a_node15"><a xlink:title=" ">
<polygon fill="white" stroke="#bfbfbf" points="1995,-297 1995,-316 2145,-316 2145,-297 1995,-297"/>
<text text-anchor="middle" x="2070" y="-304" font-family="Helvetica,sans-Serif" font-size="10.00">std::unique_ptr&lt; Framebuffer &gt;</text>
</a>
</g>
</g>
<!-- Node15&#45;&gt;Node1 -->
<g id="edge17" class="edge">
<title>Node15&#45;&gt;Node1</title>
<path fill="none" stroke="#9a32cd" stroke-dasharray="5,2" d="M2155.49,-295.99C2188.7,-288.82 2225.79,-276.76 2255,-256.5 2280.46,-238.85 2298.46,-205.6 2306.22,-189.18"/>
<polygon fill="#9a32cd" stroke="#9a32cd" points="2154.42,-292.64 2145.32,-298.07 2155.82,-299.5 2154.42,-292.64"/>
<text text-anchor="middle" x="2209" y="-319.5" font-family="Helvetica,sans-Serif" font-size="10.00"> readFramebuffer</text>
<text text-anchor="middle" x="2209" y="-308.5" font-family="Helvetica,sans-Serif" font-size="10.00">screenFramebuffer</text>
<text text-anchor="middle" x="2209" y="-297.5" font-family="Helvetica,sans-Serif" font-size="10.00">writeFramebuffer</text>
</g>
<!-- Node16 -->
<g id="node16" class="node">
<title>Node16</title>
<g id="a_node16"><a xlink:href="class_framebuffer.html" target="_top" xlink:title=" ">
<polygon fill="white" stroke="black" points="1798,-297 1798,-316 1866,-316 1866,-297 1798,-297"/>
<text text-anchor="middle" x="1832" y="-304" font-family="Helvetica,sans-Serif" font-size="10.00">Framebuffer</text>
</a>
</g>
</g>
<!-- Node16&#45;&gt;Node15 -->
<g id="edge18" class="edge">
<title>Node16&#45;&gt;Node15</title>
<path fill="none" stroke="#9a32cd" stroke-dasharray="5,2" d="M1876.32,-306.5C1909.44,-306.5 1955.88,-306.5 1994.87,-306.5"/>
<polygon fill="#9a32cd" stroke="#9a32cd" points="1876.06,-303 1866.06,-306.5 1876.06,-310 1876.06,-303"/>
<text text-anchor="middle" x="1955.5" y="-309.5" font-family="Helvetica,sans-Serif" font-size="10.00"> ptr</text>
</g>
<!-- Node17&#45;&gt;Node1 -->
<g id="edge19" class="edge">
<title>Node17&#45;&gt;Node1</title>
<path fill="none" stroke="#9a32cd" stroke-dasharray="5,2" d="M2146.1,-198.72C2188.3,-193.79 2239.13,-187.84 2272.99,-183.88"/>
<polygon fill="#9a32cd" stroke="#9a32cd" points="2145.65,-195.25 2136.13,-199.89 2146.47,-202.2 2145.65,-195.25"/>
<text text-anchor="middle" x="2209" y="-199.5" font-family="Helvetica,sans-Serif" font-size="10.00"> frustumCulled</text>
</g>
<!-- Node18 -->
<g id="node18" class="node">
<title>Node18</title>
<g id="a_node18"><a xlink:href="struct_loop_renderer_1_1_frustum_culling_data.html" target="_top" xlink:title=" ">
<polygon fill="white" stroke="black" points="1748,-258 1748,-277 1916,-277 1916,-258 1748,-258"/>
<text text-anchor="middle" x="1832" y="-265" font-family="Helvetica,sans-Serif" font-size="10.00">LoopRenderer::FrustumCullingData</text>
</a>
</g>
</g>
<!-- Node18&#45;&gt;Node17 -->
<g id="edge21" class="edge">
<title>Node18&#45;&gt;Node17</title>
<path fill="none" stroke="#9a32cd" stroke-dasharray="5,2" d="M1880.46,-255.43C1915.86,-246.43 1964.64,-234.03 2003.71,-224.1"/>
<polygon fill="#9a32cd" stroke="#9a32cd" points="1879.22,-252.14 1870.39,-257.99 1880.95,-258.92 1879.22,-252.14"/>
<text text-anchor="middle" x="1955.5" y="-244.5" font-family="Helvetica,sans-Serif" font-size="10.00"> elements</text>
</g>
<!-- Node19 -->
<g id="node19" class="node">
<title>Node19</title>
<g id="a_node19"><a xlink:href="struct_math_1_1_frustum.html" target="_top" xlink:title=" ">
<polygon fill="white" stroke="black" points="1539,-302 1539,-321 1619,-321 1619,-302 1539,-302"/>
<text text-anchor="middle" x="1579" y="-309" font-family="Helvetica,sans-Serif" font-size="10.00">Math::Frustum</text>
</a>
</g>
</g>
<!-- Node19&#45;&gt;Node18 -->
<g id="edge22" class="edge">
<title>Node19&#45;&gt;Node18</title>
<path fill="none" stroke="#9a32cd" stroke-dasharray="5,2" d="M1629.31,-302.86C1671.74,-295.42 1732.87,-284.7 1776.69,-277.02"/>
<polygon fill="#9a32cd" stroke="#9a32cd" points="1628.46,-299.45 1619.22,-304.62 1629.67,-306.35 1628.46,-299.45"/>
<text text-anchor="middle" x="1697" y="-299.5" font-family="Helvetica,sans-Serif" font-size="10.00"> frustum</text>
</g>
<!-- Node20 -->
<g id="node20" class="node">
<title>Node20</title>
<g id="a_node20"><a xlink:href="struct_math_1_1_plane.html" target="_top" xlink:title=" ">
<polygon fill="white" stroke="black" points="1369.5,-302 1369.5,-321 1438.5,-321 1438.5,-302 1369.5,-302"/>
<text text-anchor="middle" x="1404" y="-309" font-family="Helvetica,sans-Serif" font-size="10.00">Math::Plane</text>
</a>
</g>
</g>
<!-- Node20&#45;&gt;Node19 -->
<g id="edge23" class="edge">
<title>Node20&#45;&gt;Node19</title>
<path fill="none" stroke="#9a32cd" stroke-dasharray="5,2" d="M1448.97,-311.5C1476.68,-311.5 1512.14,-311.5 1538.88,-311.5"/>
<polygon fill="#9a32cd" stroke="#9a32cd" points="1448.77,-308 1438.77,-311.5 1448.77,-315 1448.77,-308"/>
<text text-anchor="middle" x="1478" y="-314.5" font-family="Helvetica,sans-Serif" font-size="10.00"> planes</text>
</g>
<!-- Node21 -->
<g id="node21" class="node">
<title>Node21</title>
<g id="a_node21"><a xlink:title=" ">
<polygon fill="white" stroke="#bfbfbf" points="1519,-252.5 1519,-282.5 1639,-282.5 1639,-252.5 1519,-252.5"/>
<text text-anchor="start" x="1527" y="-270.5" font-family="Helvetica,sans-Serif" font-size="10.00">std::unordered_map</text>
<text text-anchor="middle" x="1579" y="-259.5" font-family="Helvetica,sans-Serif" font-size="10.00">&lt; RenderMesh *, bool &gt;</text>
</a>
</g>
</g>
<!-- Node21&#45;&gt;Node18 -->
<g id="edge24" class="edge">
<title>Node21&#45;&gt;Node18</title>
<path fill="none" stroke="#9a32cd" stroke-dasharray="5,2" d="M1649.25,-267.5C1679.67,-267.5 1715.65,-267.5 1747.53,-267.5"/>
<polygon fill="#9a32cd" stroke="#9a32cd" points="1649.17,-264 1639.17,-267.5 1649.17,-271 1649.17,-264"/>
<text text-anchor="middle" x="1697" y="-270.5" font-family="Helvetica,sans-Serif" font-size="10.00"> culledMeshes</text>
</g>
<!-- Node22 -->
<g id="node22" class="node">
<title>Node22</title>
<g id="a_node22"><a xlink:href="class_render_mesh.html" target="_top" xlink:title=" ">
<polygon fill="white" stroke="black" points="1368.5,-262 1368.5,-281 1439.5,-281 1439.5,-262 1368.5,-262"/>
<text text-anchor="middle" x="1404" y="-269" font-family="Helvetica,sans-Serif" font-size="10.00">RenderMesh</text>
</a>
</g>
</g>
<!-- Node22&#45;&gt;Node21 -->
<g id="edge25" class="edge">
<title>Node22&#45;&gt;Node21</title>
<path fill="none" stroke="#9a32cd" stroke-dasharray="5,2" d="M1449.87,-270.46C1470.93,-269.98 1496.33,-269.39 1518.93,-268.87"/>
<polygon fill="#9a32cd" stroke="#9a32cd" points="1449.51,-266.97 1439.59,-270.7 1449.67,-273.97 1449.51,-266.97"/>
<text text-anchor="middle" x="1478" y="-273.5" font-family="Helvetica,sans-Serif" font-size="10.00"> keys</text>
</g>
<!-- Node23&#45;&gt;Node22 -->
<g id="edge26" class="edge">
<title>Node23&#45;&gt;Node22</title>
<path fill="none" stroke="midnightblue" d="M1243.69,-303.91C1272.61,-299.81 1311.8,-293.7 1346,-286.5 1353.51,-284.92 1361.51,-282.98 1369.07,-281.02"/>
<polygon fill="midnightblue" stroke="midnightblue" points="1242.94,-300.48 1233.52,-305.33 1243.91,-307.42 1242.94,-300.48"/>
</g>
<!-- Node24 -->
<g id="node24" class="node">
<title>Node24</title>
<g id="a_node24"><a xlink:href="struct_math_1_1_sphere.html" target="_top" xlink:title="A structure for handling a mathematical sphere object.">
<polygon fill="white" stroke="black" points="632.5,-196 632.5,-215 707.5,-215 707.5,-196 632.5,-196"/>
<text text-anchor="middle" x="670" y="-203" font-family="Helvetica,sans-Serif" font-size="10.00">Math::Sphere</text>
</a>
</g>
</g>
<!-- Node24&#45;&gt;Node22 -->
<g id="edge29" class="edge">
<title>Node24&#45;&gt;Node22</title>
<path fill="none" stroke="#9a32cd" stroke-dasharray="5,2" d="M718.12,-207.35C754.67,-208.91 806.58,-211.37 852,-214.5 1044.29,-227.73 1092.72,-228.85 1284,-252.5 1312.55,-256.03 1344.76,-261.25 1368.46,-265.32"/>
<polygon fill="#9a32cd" stroke="#9a32cd" points="717.91,-203.84 707.77,-206.92 717.62,-210.83 717.91,-203.84"/>
<text text-anchor="middle" x="1035.5" y="-235.5" font-family="Helvetica,sans-Serif" font-size="10.00"> boundingSphere</text>
</g>
<!-- Node26 -->
<g id="node26" class="node">
<title>Node26</title>
<g id="a_node26"><a xlink:href="class_buffer_geometry.html" target="_top" xlink:title=" ">
<polygon fill="white" stroke="black" points="870,-275 870,-294 954,-294 954,-275 870,-275"/>
<text text-anchor="middle" x="912" y="-282" font-family="Helvetica,sans-Serif" font-size="10.00">BufferGeometry</text>
</a>
</g>
</g>
<!-- Node24&#45;&gt;Node26 -->
<g id="edge32" class="edge">
<title>Node24&#45;&gt;Node26</title>
<path fill="none" stroke="#9a32cd" stroke-dasharray="5,2" d="M717.86,-209.67C755.38,-214.27 808.71,-223.68 852,-242.5 870.68,-250.62 889.34,-265.28 900.53,-274.96"/>
<polygon fill="#9a32cd" stroke="#9a32cd" points="718.05,-206.17 707.71,-208.5 717.24,-213.12 718.05,-206.17"/>
<text text-anchor="middle" x="809.5" y="-245.5" font-family="Helvetica,sans-Serif" font-size="10.00"> boundingSphere</text>
</g>
<!-- Node25 -->
<g id="node25" class="node">
<title>Node25</title>
<g id="a_node25"><a xlink:title=" ">
<polygon fill="white" stroke="#bfbfbf" points="1117,-262 1117,-281 1284,-281 1284,-262 1117,-262"/>
<text text-anchor="middle" x="1200.5" y="-269" font-family="Helvetica,sans-Serif" font-size="10.00">std::shared_ptr&lt; BufferGeometry &gt;</text>
</a>
</g>
</g>
<!-- Node25&#45;&gt;Node22 -->
<g id="edge30" class="edge">
<title>Node25&#45;&gt;Node22</title>
<path fill="none" stroke="#9a32cd" stroke-dasharray="5,2" d="M1294.12,-271.5C1320.55,-271.5 1347.73,-271.5 1368.32,-271.5"/>
<polygon fill="#9a32cd" stroke="#9a32cd" points="1294.04,-268 1284.04,-271.5 1294.04,-275 1294.04,-268"/>
<text text-anchor="middle" x="1324" y="-274.5" font-family="Helvetica,sans-Serif" font-size="10.00"> geometry</text>
</g>
<!-- Node26&#45;&gt;Node25 -->
<g id="edge31" class="edge">
<title>Node26&#45;&gt;Node25</title>
<path fill="none" stroke="#9a32cd" stroke-dasharray="5,2" d="M964.13,-282.18C1006.52,-280.26 1067.58,-277.49 1116.89,-275.25"/>
<polygon fill="#9a32cd" stroke="#9a32cd" points="963.88,-278.69 954.05,-282.64 964.2,-285.68 963.88,-278.69"/>
<text text-anchor="middle" x="1035.5" y="-285.5" font-family="Helvetica,sans-Serif" font-size="10.00"> ptr</text>
</g>
<!-- Node27 -->
<g id="node27" class="node">
<title>Node27</title>
<g id="a_node27"><a xlink:title=" ">
<polygon fill="white" stroke="#bfbfbf" points="613,-313 613,-332 727,-332 727,-313 613,-313"/>
<text text-anchor="middle" x="670" y="-320" font-family="Helvetica,sans-Serif" font-size="10.00">std::vector&lt; uint32_t &gt;</text>
</a>
</g>
</g>
<!-- Node27&#45;&gt;Node26 -->
<g id="edge33" class="edge">
<title>Node27&#45;&gt;Node26</title>
<path fill="none" stroke="#9a32cd" stroke-dasharray="5,2" d="M737.51,-316.02C771.86,-312.18 814.35,-306.65 852,-299.5 860,-297.98 868.52,-296.02 876.53,-294.02"/>
<polygon fill="#9a32cd" stroke="#9a32cd" points="736.69,-312.59 727.13,-317.16 737.45,-319.55 736.69,-312.59"/>
<text text-anchor="middle" x="809.5" y="-315.5" font-family="Helvetica,sans-Serif" font-size="10.00"> indexes</text>
</g>
<!-- Node28 -->
<g id="node28" class="node">
<title>Node28</title>
<g id="a_node28"><a xlink:title=" ">
<polygon fill="white" stroke="#bfbfbf" points="616,-275 616,-294 724,-294 724,-275 616,-275"/>
<text text-anchor="middle" x="670" y="-282" font-family="Helvetica,sans-Serif" font-size="10.00">std::vector&lt; GLuint &gt;</text>
</a>
</g>
</g>
<!-- Node28&#45;&gt;Node26 -->
<g id="edge34" class="edge">
<title>Node28&#45;&gt;Node26</title>
<path fill="none" stroke="#9a32cd" stroke-dasharray="5,2" d="M734.31,-284.5C777.18,-284.5 832.56,-284.5 869.8,-284.5"/>
<polygon fill="#9a32cd" stroke="#9a32cd" points="734.26,-281 724.26,-284.5 734.26,-288 734.26,-281"/>
<text text-anchor="middle" x="809.5" y="-287.5" font-family="Helvetica,sans-Serif" font-size="10.00"> locationsToDisable</text>
</g>
<!-- Node29 -->
<g id="node29" class="node">
<title>Node29</title>
<g id="a_node29"><a xlink:href="struct_math_1_1_axis_aligned_box.html" target="_top" xlink:title="A structure representing an axis&#45;aligned 3D box.">
<polygon fill="white" stroke="black" points="613.5,-237 613.5,-256 726.5,-256 726.5,-237 613.5,-237"/>
<text text-anchor="middle" x="670" y="-244" font-family="Helvetica,sans-Serif" font-size="10.00">Math::AxisAlignedBox</text>
</a>
</g>
</g>
<!-- Node29&#45;&gt;Node26 -->
<g id="edge35" class="edge">
<title>Node29&#45;&gt;Node26</title>
<path fill="none" stroke="#9a32cd" stroke-dasharray="5,2" d="M736.68,-252.89C771.17,-256.73 814.05,-262.29 852,-269.5 860,-271.02 868.52,-272.98 876.53,-274.98"/>
<polygon fill="#9a32cd" stroke="#9a32cd" points="737.05,-249.4 726.73,-251.8 736.29,-256.36 737.05,-249.4"/>
<text text-anchor="middle" x="809.5" y="-272.5" font-family="Helvetica,sans-Serif" font-size="10.00"> boundingBox</text>
</g>
<!-- Node30&#45;&gt;Node26 -->
<g id="edge36" class="edge">
<title>Node30&#45;&gt;Node26</title>
<path fill="none" stroke="#9a32cd" stroke-dasharray="5,2" d="M741.62,-360.97C776,-354.21 817.29,-343.59 852,-327.5 870.63,-318.86 889.31,-303.94 900.51,-294.14"/>
<polygon fill="#9a32cd" stroke="#9a32cd" points="740.83,-357.56 731.66,-362.87 742.14,-364.44 740.83,-357.56"/>
<text text-anchor="middle" x="809.5" y="-357.5" font-family="Helvetica,sans-Serif" font-size="10.00"> attributes</text>
</g>
<!-- Node31 -->
<g id="node31" class="node">
<title>Node31</title>
<g id="a_node31"><a xlink:href="struct_buffer_geometry_1_1_attribute_data.html" target="_top" xlink:title=" ">
<polygon fill="white" stroke="black" points="365,-362 365,-381 512,-381 512,-362 365,-362"/>
<text text-anchor="middle" x="438.5" y="-369" font-family="Helvetica,sans-Serif" font-size="10.00">BufferGeometry::AttributeData</text>
</a>
</g>
</g>
<!-- Node31&#45;&gt;Node30 -->
<g id="edge38" class="edge">
<title>Node31&#45;&gt;Node30</title>
<path fill="none" stroke="#9a32cd" stroke-dasharray="5,2" d="M522.44,-371.5C550.85,-371.5 582.09,-371.5 608.4,-371.5"/>
<polygon fill="#9a32cd" stroke="#9a32cd" points="522.12,-368 512.12,-371.5 522.12,-375 522.12,-368"/>
<text text-anchor="middle" x="551.5" y="-374.5" font-family="Helvetica,sans-Serif" font-size="10.00"> elements</text>
</g>
<!-- Node32 -->
<g id="node32" class="node">
<title>Node32</title>
<g id="a_node32"><a xlink:title=" ">
<polygon fill="white" stroke="#bfbfbf" points="129,-362 129,-381 290,-381 290,-362 129,-362"/>
<text text-anchor="middle" x="209.5" y="-369" font-family="Helvetica,sans-Serif" font-size="10.00">std::unique_ptr&lt; BufferAttribute &gt;</text>
</a>
</g>
</g>
<!-- Node32&#45;&gt;Node31 -->
<g id="edge39" class="edge">
<title>Node32&#45;&gt;Node31</title>
<path fill="none" stroke="#9a32cd" stroke-dasharray="5,2" d="M300.28,-371.5C321.69,-371.5 344.28,-371.5 364.81,-371.5"/>
<polygon fill="#9a32cd" stroke="#9a32cd" points="300.21,-368 290.21,-371.5 300.21,-375 300.21,-368"/>
<text text-anchor="middle" x="327.5" y="-374.5" font-family="Helvetica,sans-Serif" font-size="10.00"> attribute</text>
</g>
<!-- Node33 -->
<g id="node33" class="node">
<title>Node33</title>
<g id="a_node33"><a xlink:href="class_buffer_attribute.html" target="_top" xlink:title=" ">
<polygon fill="white" stroke="black" points="0,-362 0,-381 78,-381 78,-362 0,-362"/>
<text text-anchor="middle" x="39" y="-369" font-family="Helvetica,sans-Serif" font-size="10.00">BufferAttribute</text>
</a>
</g>
</g>
<!-- Node33&#45;&gt;Node32 -->
<g id="edge40" class="edge">
<title>Node33&#45;&gt;Node32</title>
<path fill="none" stroke="#9a32cd" stroke-dasharray="5,2" d="M88.49,-371.5C101.09,-371.5 115.01,-371.5 128.77,-371.5"/>
<polygon fill="#9a32cd" stroke="#9a32cd" points="88.24,-368 78.24,-371.5 88.24,-375 88.24,-368"/>
<text text-anchor="middle" x="103.5" y="-374.5" font-family="Helvetica,sans-Serif" font-size="10.00"> ptr</text>
</g>
<!-- Node34 -->
<g id="node34" class="node">
<title>Node34</title>
<g id="a_node34"><a xlink:title=" ">
<polygon fill="white" stroke="#bfbfbf" points="1133.5,-396 1133.5,-415 1267.5,-415 1267.5,-396 1133.5,-396"/>
<text text-anchor="middle" x="1200.5" y="-403" font-family="Helvetica,sans-Serif" font-size="10.00">std::shared_ptr&lt; Material &gt;</text>
</a>
</g>
</g>
<!-- Node34&#45;&gt;Node22 -->
<g id="edge41" class="edge">
<title>Node34&#45;&gt;Node22</title>
<path fill="none" stroke="#9a32cd" stroke-dasharray="5,2" d="M1223.95,-390.17C1252.45,-370.66 1303.07,-335.85 1346,-305.5 1354.06,-299.8 1355.64,-297.74 1364,-292.5 1370.39,-288.5 1377.6,-284.48 1384.07,-281.05"/>
<polygon fill="#9a32cd" stroke="#9a32cd" points="1221.79,-387.41 1215.51,-395.94 1225.74,-393.18 1221.79,-387.41"/>
<text text-anchor="middle" x="1324" y="-338.5" font-family="Helvetica,sans-Serif" font-size="10.00"> material</text>
</g>
<!-- Node35 -->
<g id="node35" class="node">
<title>Node35</title>
<g id="a_node35"><a xlink:href="class_material.html" target="_top" xlink:title=" ">
<polygon fill="white" stroke="black" points="886.5,-449 886.5,-468 937.5,-468 937.5,-449 886.5,-449"/>
<text text-anchor="middle" x="912" y="-456" font-family="Helvetica,sans-Serif" font-size="10.00">Material</text>
</a>
</g>
</g>
<!-- Node35&#45;&gt;Node34 -->
<g id="edge42" class="edge">
<title>Node35&#45;&gt;Node34</title>
<path fill="none" stroke="#9a32cd" stroke-dasharray="5,2" d="M947.97,-455.59C985.56,-452.1 1046.92,-445.31 1099,-434.5 1123.54,-429.41 1150.82,-421.38 1170.77,-415.06"/>
<polygon fill="#9a32cd" stroke="#9a32cd" points="947.22,-452.15 937.57,-456.53 947.85,-459.12 947.22,-452.15"/>
<text text-anchor="middle" x="1035.5" y="-455.5" font-family="Helvetica,sans-Serif" font-size="10.00"> ptr</text>
</g>
<!-- Node36 -->
<g id="node36" class="node">
<title>Node36</title>
<g id="a_node36"><a xlink:title=" ">
<polygon fill="white" stroke="#bfbfbf" points="591,-487.5 591,-517.5 749,-517.5 749,-487.5 591,-487.5"/>
<text text-anchor="start" x="599" y="-505.5" font-family="Helvetica,sans-Serif" font-size="10.00">std::unique_ptr&lt; ShaderProgram</text>
<text text-anchor="middle" x="670" y="-494.5" font-family="Helvetica,sans-Serif" font-size="10.00">Compiler &gt;</text>
</a>
</g>
</g>
<!-- Node36&#45;&gt;Node35 -->
<g id="edge43" class="edge">
<title>Node36&#45;&gt;Node35</title>
<path fill="none" stroke="#9a32cd" stroke-dasharray="5,2" d="M759.13,-490.01C788.75,-485.38 821.9,-479.72 852,-473.5 863.38,-471.15 875.88,-468.05 886.43,-465.27"/>
<polygon fill="#9a32cd" stroke="#9a32cd" points="758.58,-486.55 749.24,-491.54 759.65,-493.47 758.58,-486.55"/>
<text text-anchor="middle" x="809.5" y="-491.5" font-family="Helvetica,sans-Serif" font-size="10.00"> compiler</text>
</g>
<!-- Node37 -->
<g id="node37" class="node">
<title>Node37</title>
<g id="a_node37"><a xlink:href="class_shader_program_compiler.html" target="_top" xlink:title=" ">
<polygon fill="white" stroke="black" points="377.5,-493 377.5,-512 499.5,-512 499.5,-493 377.5,-493"/>
<text text-anchor="middle" x="438.5" y="-500" font-family="Helvetica,sans-Serif" font-size="10.00">ShaderProgramCompiler</text>
</a>
</g>
</g>
<!-- Node37&#45;&gt;Node36 -->
<g id="edge44" class="edge">
<title>Node37&#45;&gt;Node36</title>
<path fill="none" stroke="#9a32cd" stroke-dasharray="5,2" d="M509.82,-502.5C535.48,-502.5 564.65,-502.5 590.95,-502.5"/>
<polygon fill="#9a32cd" stroke="#9a32cd" points="509.8,-499 499.8,-502.5 509.8,-506 509.8,-499"/>
<text text-anchor="middle" x="551.5" y="-505.5" font-family="Helvetica,sans-Serif" font-size="10.00"> ptr</text>
</g>
<!-- Node38 -->
<g id="node38" class="node">
<title>Node38</title>
<g id="a_node38"><a xlink:title=" ">
<polygon fill="white" stroke="#bfbfbf" points="605,-449 605,-468 735,-468 735,-449 605,-449"/>
<text text-anchor="middle" x="670" y="-456" font-family="Helvetica,sans-Serif" font-size="10.00">std::unique_ptr&lt; Shader &gt;</text>
</a>
</g>
</g>
<!-- Node38&#45;&gt;Node35 -->
<g id="edge45" class="edge">
<title>Node38&#45;&gt;Node35</title>
<path fill="none" stroke="#9a32cd" stroke-dasharray="5,2" d="M745.11,-458.5C793.37,-458.5 853.3,-458.5 886.3,-458.5"/>
<polygon fill="#9a32cd" stroke="#9a32cd" points="745,-455 735,-458.5 745,-462 745,-455"/>
<text text-anchor="middle" x="809.5" y="-461.5" font-family="Helvetica,sans-Serif" font-size="10.00"> shader</text>
</g>
<!-- Node39 -->
<g id="node39" class="node">
<title>Node39</title>
<g id="a_node39"><a xlink:href="class_shader.html" target="_top" xlink:title=" ">
<polygon fill="white" stroke="black" points="415,-449 415,-468 462,-468 462,-449 415,-449"/>
<text text-anchor="middle" x="438.5" y="-456" font-family="Helvetica,sans-Serif" font-size="10.00">Shader</text>
</a>
</g>
</g>
<!-- Node39&#45;&gt;Node38 -->
<g id="edge46" class="edge">
<title>Node39&#45;&gt;Node38</title>
<path fill="none" stroke="#9a32cd" stroke-dasharray="5,2" d="M472.77,-458.5C507.18,-458.5 561.8,-458.5 604.68,-458.5"/>
<polygon fill="#9a32cd" stroke="#9a32cd" points="472.34,-455 462.34,-458.5 472.34,-462 472.34,-455"/>
<text text-anchor="middle" x="551.5" y="-461.5" font-family="Helvetica,sans-Serif" font-size="10.00"> ptr</text>
</g>
</g>
</svg>
