<?xml version="1.0" encoding="UTF-8" standalone="no"?>
<!DOCTYPE svg PUBLIC "-//W3C//DTD SVG 1.1//EN"
 "http://www.w3.org/Graphics/SVG/1.1/DTD/svg11.dtd">
<!-- Generated by graphviz version 2.40.1 (20161225.0304)
 -->
<!-- Title: RenderScene::RenderScene Pages: 1 -->
<svg width="285pt" height="66pt"
 viewBox="0.00 0.00 285.00 66.00" xmlns="http://www.w3.org/2000/svg" xmlns:xlink="http://www.w3.org/1999/xlink">
<g id="graph0" class="graph" transform="scale(1 1) rotate(0) translate(4 62)">
<title>RenderScene::RenderScene</title>
<polygon fill="#ffffff" stroke="transparent" points="-4,4 -4,-62 281,-62 281,4 -4,4"/>
<!-- Node0 -->
<g id="node1" class="node">
<title>Node0</title>
<polygon fill="#bfbfbf" stroke="#000000" points="0,-19.5 0,-38.5 141,-38.5 141,-19.5 0,-19.5"/>
<text text-anchor="middle" x="70.5" y="-26.5" font-family="Helvetica,sans-Serif" font-size="10.00" fill="#000000">RenderScene::RenderScene</text>
</g>
<!-- Node1 -->
<g id="node2" class="node">
<title>Node1</title>
<g id="a_node2"><a xlink:href="class_window.html#aee31a875d654a8c8f7d796d072657791" target="_top" xlink:title="Window::getWidth">
<polygon fill="#ffffff" stroke="#000000" points="178.5,-38.5 178.5,-57.5 275.5,-57.5 275.5,-38.5 178.5,-38.5"/>
<text text-anchor="middle" x="227" y="-45.5" font-family="Helvetica,sans-Serif" font-size="10.00" fill="#000000">Window::getWidth</text>
</a>
</g>
</g>
<!-- Node0&#45;&gt;Node1 -->
<g id="edge1" class="edge">
<title>Node0&#45;&gt;Node1</title>
<path fill="none" stroke="#191970" d="M141.4236,-37.6105C150.3755,-38.6973 159.4563,-39.7998 168.192,-40.8604"/>
<polygon fill="#191970" stroke="#191970" points="167.9111,-44.3519 178.26,-42.0827 168.7548,-37.4029 167.9111,-44.3519"/>
</g>
<!-- Node2 -->
<g id="node3" class="node">
<title>Node2</title>
<g id="a_node3"><a xlink:href="class_window.html#a60757b2b0dbcec9889e3a09f5655adbe" target="_top" xlink:title="Window::getHeight">
<polygon fill="#ffffff" stroke="#000000" points="177,-.5 177,-19.5 277,-19.5 277,-.5 177,-.5"/>
<text text-anchor="middle" x="227" y="-7.5" font-family="Helvetica,sans-Serif" font-size="10.00" fill="#000000">Window::getHeight</text>
</a>
</g>
</g>
<!-- Node0&#45;&gt;Node2 -->
<g id="edge2" class="edge">
<title>Node0&#45;&gt;Node2</title>
<path fill="none" stroke="#191970" d="M141.4236,-20.3895C149.9332,-19.3564 158.5593,-18.3091 166.8947,-17.2971"/>
<polygon fill="#191970" stroke="#191970" points="167.3853,-20.7634 176.8906,-16.0836 166.5416,-13.8144 167.3853,-20.7634"/>
</g>
</g>
</svg>
