<?xml version="1.0" encoding="UTF-8" standalone="no"?>
<!DOCTYPE svg PUBLIC "-//W3C//DTD SVG 1.1//EN"
 "http://www.w3.org/Graphics/SVG/1.1/DTD/svg11.dtd">
<!-- Generated by graphviz version 2.44.1 (20200629.0846)
 -->
<!-- Title: OpenGLRenderer::parseScene Pages: 1 -->
<svg width="350pt" height="66pt"
 viewBox="0.00 0.00 350.00 66.00" xmlns="http://www.w3.org/2000/svg" xmlns:xlink="http://www.w3.org/1999/xlink">
<g id="graph0" class="graph" transform="scale(1 1) rotate(0) translate(4 62)">
<title>OpenGLRenderer::parseScene</title>
<polygon fill="white" stroke="transparent" points="-4,4 -4,-62 346,-62 346,4 -4,4"/>
<!-- Node1 -->
<g id="node1" class="node">
<title>Node1</title>
<g id="a_node1"><a xlink:title="Parses the scene to render in the search of essential data for this frame.">
<polygon fill="#bfbfbf" stroke="black" points="0,-19.5 0,-38.5 149,-38.5 149,-19.5 0,-19.5"/>
<text text-anchor="middle" x="74.5" y="-26.5" font-family="Helvetica,sans-Serif" font-size="10.00">OpenGLRenderer::parseScene</text>
</a>
</g>
</g>
<!-- Node2 -->
<g id="node2" class="node">
<title>Node2</title>
<g id="a_node2"><a xlink:href="class_camera.html#a5b96f61398d8d920647e009bfebff241" target="_top" xlink:title="Retrieves the current projection data.">
<polygon fill="white" stroke="black" points="196.5,-38.5 196.5,-57.5 330.5,-57.5 330.5,-38.5 196.5,-38.5"/>
<text text-anchor="middle" x="263.5" y="-45.5" font-family="Helvetica,sans-Serif" font-size="10.00">Camera::getProjectionData</text>
</a>
</g>
</g>
<!-- Node1&#45;&gt;Node2 -->
<g id="edge1" class="edge">
<title>Node1&#45;&gt;Node2</title>
<path fill="none" stroke="midnightblue" d="M149.14,-36.48C161.28,-37.72 173.88,-39 186.08,-40.24"/>
<polygon fill="midnightblue" stroke="midnightblue" points="185.92,-43.74 196.22,-41.27 186.63,-36.77 185.92,-43.74"/>
</g>
<!-- Node3 -->
<g id="node3" class="node">
<title>Node3</title>
<g id="a_node3"><a xlink:href="class_projection_data.html#ad049ca6387d2c93cbd1e582fae2f01d3" target="_top" xlink:title="A function for updating the projection data related to viewport size.">
<polygon fill="white" stroke="black" points="185,-0.5 185,-19.5 342,-19.5 342,-0.5 185,-0.5"/>
<text text-anchor="middle" x="263.5" y="-7.5" font-family="Helvetica,sans-Serif" font-size="10.00">ProjectionData::setViewportSize</text>
</a>
</g>
</g>
<!-- Node1&#45;&gt;Node3 -->
<g id="edge2" class="edge">
<title>Node1&#45;&gt;Node3</title>
<path fill="none" stroke="midnightblue" d="M149.14,-21.52C157.59,-20.66 166.26,-19.78 174.87,-18.9"/>
<polygon fill="midnightblue" stroke="midnightblue" points="175.33,-22.37 184.93,-17.88 174.62,-15.41 175.33,-22.37"/>
</g>
</g>
</svg>
