<?xml version="1.0" encoding="UTF-8" standalone="no"?>
<!DOCTYPE svg PUBLIC "-//W3C//DTD SVG 1.1//EN"
 "http://www.w3.org/Graphics/SVG/1.1/DTD/svg11.dtd">
<!-- Generated by graphviz version 2.44.1 (20200629.0846)
 -->
<!-- Title: Window::getGlfwWindow Pages: 1 -->
<svg width="303pt" height="127pt"
 viewBox="0.00 0.00 303.00 126.50" xmlns="http://www.w3.org/2000/svg" xmlns:xlink="http://www.w3.org/1999/xlink">
<g id="graph0" class="graph" transform="scale(1 1) rotate(0) translate(4 122.5)">
<title>Window::getGlfwWindow</title>
<polygon fill="white" stroke="transparent" points="-4,4 -4,-122.5 299,-122.5 299,4 -4,4"/>
<!-- Node1 -->
<g id="node1" class="node">
<title>Node1</title>
<g id="a_node1"><a xlink:title=" ">
<polygon fill="#bfbfbf" stroke="black" points="171,-44.5 171,-63.5 295,-63.5 295,-44.5 171,-44.5"/>
<text text-anchor="middle" x="233" y="-51.5" font-family="Helvetica,sans-Serif" font-size="10.00">Window::getGlfwWindow</text>
</a>
</g>
</g>
<!-- Node2 -->
<g id="node2" class="node">
<title>Node2</title>
<g id="a_node2"><a xlink:href="class_first_person_camera.html#ac4c41efc23e9d98a4346e988eb272f2e" target="_top" xlink:title=" ">
<polygon fill="white" stroke="black" points="14,-88 14,-118 121,-118 121,-88 14,-88"/>
<text text-anchor="start" x="22" y="-106" font-family="Helvetica,sans-Serif" font-size="10.00">FirstPersonCamera::</text>
<text text-anchor="middle" x="67.5" y="-95" font-family="Helvetica,sans-Serif" font-size="10.00">frameUpdate</text>
</a>
</g>
</g>
<!-- Node1&#45;&gt;Node2 -->
<g id="edge1" class="edge">
<title>Node1&#45;&gt;Node2</title>
<path fill="none" stroke="midnightblue" d="M190.44,-66.45C168.6,-73 141.67,-81.07 118.67,-87.96"/>
<polygon fill="midnightblue" stroke="midnightblue" points="191.51,-69.79 200.09,-63.56 189.5,-63.08 191.51,-69.79"/>
</g>
<!-- Node3 -->
<g id="node3" class="node">
<title>Node3</title>
<g id="a_node3"><a xlink:href="class_trackball_camera.html#abc11a864dd088577e2480193cf8addbc" target="_top" xlink:title=" ">
<polygon fill="white" stroke="black" points="0,-39 0,-69 135,-69 135,-39 0,-39"/>
<text text-anchor="start" x="8" y="-57" font-family="Helvetica,sans-Serif" font-size="10.00">TrackballCamera::onMouse</text>
<text text-anchor="middle" x="67.5" y="-46" font-family="Helvetica,sans-Serif" font-size="10.00">MovementInput</text>
</a>
</g>
</g>
<!-- Node1&#45;&gt;Node3 -->
<g id="edge2" class="edge">
<title>Node1&#45;&gt;Node3</title>
<path fill="none" stroke="midnightblue" d="M160.47,-54C152.05,-54 143.47,-54 135.12,-54"/>
<polygon fill="midnightblue" stroke="midnightblue" points="160.65,-57.5 170.65,-54 160.65,-50.5 160.65,-57.5"/>
</g>
<!-- Node4 -->
<g id="node4" class="node">
<title>Node4</title>
<g id="a_node4"><a xlink:href="class_old_process.html#a83ec467ba26bf460977ec4df0985bdea" target="_top" xlink:title=" ">
<polygon fill="white" stroke="black" points="6,-0.5 6,-19.5 129,-19.5 129,-0.5 6,-0.5"/>
<text text-anchor="middle" x="67.5" y="-7.5" font-family="Helvetica,sans-Serif" font-size="10.00">OldProcess::runProcess</text>
</a>
</g>
</g>
<!-- Node1&#45;&gt;Node4 -->
<g id="edge3" class="edge">
<title>Node1&#45;&gt;Node4</title>
<path fill="none" stroke="midnightblue" d="M186.83,-41.85C160.67,-34.8 128.21,-26.07 103.91,-19.53"/>
<polygon fill="midnightblue" stroke="midnightblue" points="185.96,-45.23 196.52,-44.45 187.78,-38.47 185.96,-45.23"/>
</g>
</g>
</svg>
