<?xml version="1.0" encoding="UTF-8" standalone="no"?>
<!DOCTYPE svg PUBLIC "-//W3C//DTD SVG 1.1//EN"
 "http://www.w3.org/Graphics/SVG/1.1/DTD/svg11.dtd">
<!-- Generated by graphviz version 2.44.1 (20200629.0846)
 -->
<!-- Title: OrbitControlsComponent::OrbitControlsComponent Pages: 1 -->
<svg width="781pt" height="104pt"
 viewBox="0.00 0.00 781.00 104.00" xmlns="http://www.w3.org/2000/svg" xmlns:xlink="http://www.w3.org/1999/xlink">
<g id="graph0" class="graph" transform="scale(1 1) rotate(0) translate(4 100)">
<title>OrbitControlsComponent::OrbitControlsComponent</title>
<polygon fill="white" stroke="transparent" points="-4,4 -4,-100 777,-100 777,4 -4,4"/>
<!-- Node1 -->
<g id="node1" class="node">
<title>Node1</title>
<g id="a_node1"><a xlink:title=" ">
<polygon fill="#bfbfbf" stroke="black" points="0,-33 0,-63 129,-63 129,-33 0,-33"/>
<text text-anchor="start" x="8" y="-51" font-family="Helvetica,sans-Serif" font-size="10.00">OrbitControlsComponent</text>
<text text-anchor="middle" x="64.5" y="-40" font-family="Helvetica,sans-Serif" font-size="10.00">::OrbitControlsComponent</text>
</a>
</g>
</g>
<!-- Node2 -->
<g id="node2" class="node">
<title>Node2</title>
<g id="a_node2"><a xlink:href="class_orbit_controls_component.html#ac8611a683dbd195df68c64940d622d57" target="_top" xlink:title=" ">
<polygon fill="white" stroke="black" points="165,-33 165,-63 288,-63 288,-33 165,-33"/>
<text text-anchor="start" x="173" y="-51" font-family="Helvetica,sans-Serif" font-size="10.00">OrbitControlsComponent</text>
<text text-anchor="middle" x="226.5" y="-40" font-family="Helvetica,sans-Serif" font-size="10.00">::setPosition</text>
</a>
</g>
</g>
<!-- Node1&#45;&gt;Node2 -->
<g id="edge1" class="edge">
<title>Node1&#45;&gt;Node2</title>
<path fill="none" stroke="midnightblue" d="M129.2,-48C137.56,-48 146.17,-48 154.65,-48"/>
<polygon fill="midnightblue" stroke="midnightblue" points="154.89,-51.5 164.89,-48 154.89,-44.5 154.89,-51.5"/>
</g>
<!-- Node3 -->
<g id="node3" class="node">
<title>Node3</title>
<g id="a_node3"><a xlink:href="class_orbit_controls_component.html#aedf4dc7f005ffee67f71660dc0652354" target="_top" xlink:title=" ">
<polygon fill="white" stroke="black" points="324,-33 324,-63 447,-63 447,-33 324,-33"/>
<text text-anchor="start" x="332" y="-51" font-family="Helvetica,sans-Serif" font-size="10.00">OrbitControlsComponent</text>
<text text-anchor="middle" x="385.5" y="-40" font-family="Helvetica,sans-Serif" font-size="10.00">::updatePosition</text>
</a>
</g>
</g>
<!-- Node2&#45;&gt;Node3 -->
<g id="edge2" class="edge">
<title>Node2&#45;&gt;Node3</title>
<path fill="none" stroke="midnightblue" d="M288.2,-48C296.64,-48 305.36,-48 313.95,-48"/>
<polygon fill="midnightblue" stroke="midnightblue" points="313.96,-51.5 323.96,-48 313.96,-44.5 313.96,-51.5"/>
</g>
<!-- Node4 -->
<g id="node4" class="node">
<title>Node4</title>
<g id="a_node4"><a xlink:href="class_component.html#a8cd5ee4645a0cbe620c1acef8118549b" target="_top" xlink:title=" ">
<polygon fill="white" stroke="black" points="483,-76.5 483,-95.5 611,-95.5 611,-76.5 483,-76.5"/>
<text text-anchor="middle" x="547" y="-83.5" font-family="Helvetica,sans-Serif" font-size="10.00">Component::getTransform</text>
</a>
</g>
</g>
<!-- Node3&#45;&gt;Node4 -->
<g id="edge3" class="edge">
<title>Node3&#45;&gt;Node4</title>
<path fill="none" stroke="midnightblue" d="M447.26,-62.47C463.29,-66.29 480.41,-70.37 495.81,-74.04"/>
<polygon fill="midnightblue" stroke="midnightblue" points="495.12,-77.48 505.66,-76.39 496.74,-70.67 495.12,-77.48"/>
</g>
<!-- Node6 -->
<g id="node6" class="node">
<title>Node6</title>
<g id="a_node6"><a xlink:href="class_transform.html#a139e1092c8752834c80e4e67c207bb80" target="_top" xlink:title=" ">
<polygon fill="white" stroke="black" points="500.5,-38.5 500.5,-57.5 593.5,-57.5 593.5,-38.5 500.5,-38.5"/>
<text text-anchor="middle" x="547" y="-45.5" font-family="Helvetica,sans-Serif" font-size="10.00">Transform::lookAt</text>
</a>
</g>
</g>
<!-- Node3&#45;&gt;Node6 -->
<g id="edge5" class="edge">
<title>Node3&#45;&gt;Node6</title>
<path fill="none" stroke="midnightblue" d="M447.26,-48C461.29,-48 476.15,-48 489.97,-48"/>
<polygon fill="midnightblue" stroke="midnightblue" points="490.3,-51.5 500.3,-48 490.3,-44.5 490.3,-51.5"/>
</g>
<!-- Node9 -->
<g id="node9" class="node">
<title>Node9</title>
<g id="a_node9"><a xlink:href="class_transform.html#acbab7588aa158d9f8de7bbf498213aeb" target="_top" xlink:title=" ">
<polygon fill="white" stroke="black" points="490,-0.5 490,-19.5 604,-19.5 604,-0.5 490,-0.5"/>
<text text-anchor="middle" x="547" y="-7.5" font-family="Helvetica,sans-Serif" font-size="10.00">Transform::setPosition</text>
</a>
</g>
</g>
<!-- Node3&#45;&gt;Node9 -->
<g id="edge8" class="edge">
<title>Node3&#45;&gt;Node9</title>
<path fill="none" stroke="midnightblue" d="M447.26,-33.53C463.29,-29.71 480.41,-25.63 495.81,-21.96"/>
<polygon fill="midnightblue" stroke="midnightblue" points="496.74,-25.33 505.66,-19.61 495.12,-18.52 496.74,-25.33"/>
</g>
<!-- Node5 -->
<g id="node5" class="node">
<title>Node5</title>
<g id="a_node5"><a xlink:href="class_entity.html#aec5b6fb1566ab2f4b1b30c8d788315dc" target="_top" xlink:title=" ">
<polygon fill="white" stroke="black" points="658,-76.5 658,-95.5 762,-95.5 762,-76.5 658,-76.5"/>
<text text-anchor="middle" x="710" y="-83.5" font-family="Helvetica,sans-Serif" font-size="10.00">Entity::getTransform</text>
</a>
</g>
</g>
<!-- Node4&#45;&gt;Node5 -->
<g id="edge4" class="edge">
<title>Node4&#45;&gt;Node5</title>
<path fill="none" stroke="midnightblue" d="M611.17,-86C623.16,-86 635.69,-86 647.63,-86"/>
<polygon fill="midnightblue" stroke="midnightblue" points="647.93,-89.5 657.93,-86 647.93,-82.5 647.93,-89.5"/>
</g>
<!-- Node7 -->
<g id="node7" class="node">
<title>Node7</title>
<g id="a_node7"><a xlink:href="namespace_math.html#a87c8d0d2ba07b4b77a50b452d52a933e" target="_top" xlink:title=" ">
<polygon fill="white" stroke="black" points="652,-38.5 652,-57.5 768,-57.5 768,-38.5 652,-38.5"/>
<text text-anchor="middle" x="710" y="-45.5" font-family="Helvetica,sans-Serif" font-size="10.00">Math::getLookAtMatrix</text>
</a>
</g>
</g>
<!-- Node6&#45;&gt;Node7 -->
<g id="edge6" class="edge">
<title>Node6&#45;&gt;Node7</title>
<path fill="none" stroke="midnightblue" d="M593.71,-48C608.58,-48 625.41,-48 641.53,-48"/>
<polygon fill="midnightblue" stroke="midnightblue" points="641.99,-51.5 651.99,-48 641.99,-44.5 641.99,-51.5"/>
</g>
<!-- Node8 -->
<g id="node8" class="node">
<title>Node8</title>
<g id="a_node8"><a xlink:href="class_transform.html#af5791c2b5044fe3db559579c21feaec8" target="_top" xlink:title=" ">
<polygon fill="white" stroke="black" points="647,-0.5 647,-19.5 773,-19.5 773,-0.5 647,-0.5"/>
<text text-anchor="middle" x="710" y="-7.5" font-family="Helvetica,sans-Serif" font-size="10.00">Transform::setQuaternion</text>
</a>
</g>
</g>
<!-- Node6&#45;&gt;Node8 -->
<g id="edge7" class="edge">
<title>Node6&#45;&gt;Node8</title>
<path fill="none" stroke="midnightblue" d="M588.63,-38.41C609.97,-33.37 636.31,-27.16 658.91,-21.82"/>
<polygon fill="midnightblue" stroke="midnightblue" points="659.74,-25.22 668.67,-19.52 658.13,-18.41 659.74,-25.22"/>
</g>
</g>
</svg>
