<?xml version="1.0" encoding="UTF-8" standalone="no"?>
<!DOCTYPE svg PUBLIC "-//W3C//DTD SVG 1.1//EN"
 "http://www.w3.org/Graphics/SVG/1.1/DTD/svg11.dtd">
<!-- Generated by graphviz version 2.40.1 (20161225.0304)
 -->
<!-- Title: GameLogicComponentsRunner::runSystem Pages: 1 -->
<svg width="314pt" height="66pt"
 viewBox="0.00 0.00 314.00 66.00" xmlns="http://www.w3.org/2000/svg" xmlns:xlink="http://www.w3.org/1999/xlink">
<g id="graph0" class="graph" transform="scale(1 1) rotate(0) translate(4 62)">
<title>GameLogicComponentsRunner::runSystem</title>
<polygon fill="#ffffff" stroke="transparent" points="-4,4 -4,-62 310,-62 310,4 -4,4"/>
<!-- Node7 -->
<g id="node1" class="node">
<title>Node7</title>
<polygon fill="#bfbfbf" stroke="#000000" points="0,-14 0,-44 153,-44 153,-14 0,-14"/>
<text text-anchor="start" x="8" y="-32" font-family="Helvetica,sans-Serif" font-size="10.00" fill="#000000">GameLogicComponentsRunner</text>
<text text-anchor="middle" x="76.5" y="-21" font-family="Helvetica,sans-Serif" font-size="10.00" fill="#000000">::runSystem</text>
</g>
<!-- Node8 -->
<g id="node2" class="node">
<title>Node8</title>
<g id="a_node2"><a xlink:href="class_entity.html#a2a0f7811f8c3f8726be1549e1c4acba4" target="_top" xlink:title="Entity::isEnabled">
<polygon fill="#ffffff" stroke="#000000" points="202,-38.5 202,-57.5 293,-57.5 293,-38.5 202,-38.5"/>
<text text-anchor="middle" x="247.5" y="-45.5" font-family="Helvetica,sans-Serif" font-size="10.00" fill="#000000">Entity::isEnabled</text>
</a>
</g>
</g>
<!-- Node7&#45;&gt;Node8 -->
<g id="edge1" class="edge">
<title>Node7&#45;&gt;Node8</title>
<path fill="none" stroke="#191970" d="M153.4959,-37.5551C166.3776,-38.9864 179.5193,-40.4466 191.7359,-41.804"/>
<polygon fill="#191970" stroke="#191970" points="191.4288,-45.2913 201.7541,-42.9171 192.2018,-38.3341 191.4288,-45.2913"/>
</g>
<!-- Node9 -->
<g id="node3" class="node">
<title>Node9</title>
<g id="a_node3"><a xlink:href="class_entity.html#ae609e4d7949ceffca41124df4afbdbcd" target="_top" xlink:title="Retrieves components belonging to the provided class. ">
<polygon fill="#ffffff" stroke="#000000" points="189,-.5 189,-19.5 306,-19.5 306,-.5 189,-.5"/>
<text text-anchor="middle" x="247.5" y="-7.5" font-family="Helvetica,sans-Serif" font-size="10.00" fill="#000000">Entity::getComponents</text>
</a>
</g>
</g>
<!-- Node7&#45;&gt;Node9 -->
<g id="edge2" class="edge">
<title>Node7&#45;&gt;Node9</title>
<path fill="none" stroke="#191970" d="M153.4959,-20.4449C161.941,-19.5066 170.4979,-18.5558 178.8326,-17.6297"/>
<polygon fill="#191970" stroke="#191970" points="179.3142,-21.0978 188.8665,-16.5148 178.5411,-14.1406 179.3142,-21.0978"/>
</g>
</g>
</svg>
