<?xml version="1.0" encoding="UTF-8" standalone="no"?>
<!DOCTYPE svg PUBLIC "-//W3C//DTD SVG 1.1//EN"
 "http://www.w3.org/Graphics/SVG/1.1/DTD/svg11.dtd">
<!-- Generated by graphviz version 2.44.1 (20200629.0846)
 -->
<!-- Title: Component Pages: 1 -->
<svg width="298pt" height="229pt"
 viewBox="0.00 0.00 297.50 229.00" xmlns="http://www.w3.org/2000/svg" xmlns:xlink="http://www.w3.org/1999/xlink">
<g id="graph0" class="graph" transform="scale(1 1) rotate(0) translate(4 225)">
<title>Component</title>
<polygon fill="white" stroke="transparent" points="-4,4 -4,-225 293.5,-225 293.5,4 -4,4"/>
<!-- Node1 -->
<g id="node1" class="node">
<title>Node1</title>
<g id="a_node1"><a xlink:title=" ">
<polygon fill="#bfbfbf" stroke="black" points="38,-0.5 38,-19.5 104,-19.5 104,-0.5 38,-0.5"/>
<text text-anchor="middle" x="71" y="-7.5" font-family="Helvetica,sans-Serif" font-size="10.00">Component</text>
</a>
</g>
</g>
<!-- Node2 -->
<g id="node2" class="node">
<title>Node2</title>
<g id="a_node2"><a xlink:href="class_entity.html" target="_top" xlink:title=" ">
<polygon fill="white" stroke="black" points="50,-67.5 50,-86.5 92,-86.5 92,-67.5 50,-67.5"/>
<text text-anchor="middle" x="71" y="-74.5" font-family="Helvetica,sans-Serif" font-size="10.00">Entity</text>
</a>
</g>
</g>
<!-- Node2&#45;&gt;Node1 -->
<g id="edge1" class="edge">
<title>Node2&#45;&gt;Node1</title>
<path fill="none" stroke="#9a32cd" stroke-dasharray="5,2" d="M71,-57.04C71,-44.67 71,-29.12 71,-19.63"/>
<polygon fill="#9a32cd" stroke="#9a32cd" points="67.5,-57.23 71,-67.23 74.5,-57.23 67.5,-57.23"/>
<text text-anchor="middle" x="109" y="-41" font-family="Helvetica,sans-Serif" font-size="10.00"> associatedEntity</text>
</g>
<!-- Node3 -->
<g id="node3" class="node">
<title>Node3</title>
<g id="a_node3"><a xlink:title=" ">
<polygon fill="white" stroke="#bfbfbf" points="0,-134.5 0,-153.5 142,-153.5 142,-134.5 0,-134.5"/>
<text text-anchor="middle" x="71" y="-141.5" font-family="Helvetica,sans-Serif" font-size="10.00">std::unique_ptr&lt; Transform &gt;</text>
</a>
</g>
</g>
<!-- Node3&#45;&gt;Node2 -->
<g id="edge2" class="edge">
<title>Node3&#45;&gt;Node2</title>
<path fill="none" stroke="#9a32cd" stroke-dasharray="5,2" d="M71,-124.04C71,-111.67 71,-96.12 71,-86.63"/>
<polygon fill="#9a32cd" stroke="#9a32cd" points="67.5,-124.23 71,-134.23 74.5,-124.23 67.5,-124.23"/>
<text text-anchor="middle" x="93" y="-108" font-family="Helvetica,sans-Serif" font-size="10.00"> transform</text>
</g>
<!-- Node4 -->
<g id="node4" class="node">
<title>Node4</title>
<g id="a_node4"><a xlink:href="class_transform.html" target="_top" xlink:title=" ">
<polygon fill="white" stroke="black" points="129.5,-201.5 129.5,-220.5 188.5,-220.5 188.5,-201.5 129.5,-201.5"/>
<text text-anchor="middle" x="159" y="-208.5" font-family="Helvetica,sans-Serif" font-size="10.00">Transform</text>
</a>
</g>
</g>
<!-- Node4&#45;&gt;Node3 -->
<g id="edge3" class="edge">
<title>Node4&#45;&gt;Node3</title>
<path fill="none" stroke="#9a32cd" stroke-dasharray="5,2" d="M138.78,-195.07C121.41,-182.24 96.97,-164.19 82.68,-153.63"/>
<polygon fill="#9a32cd" stroke="#9a32cd" points="137.01,-198.11 147.13,-201.23 141.17,-192.48 137.01,-198.11"/>
<text text-anchor="middle" x="128.5" y="-175" font-family="Helvetica,sans-Serif" font-size="10.00"> ptr</text>
</g>
<!-- Node4&#45;&gt;Node4 -->
<g id="edge6" class="edge">
<title>Node4&#45;&gt;Node4</title>
<path fill="none" stroke="#9a32cd" stroke-dasharray="5,2" d="M198.67,-216.16C203.41,-215.22 206.5,-213.5 206.5,-211 206.5,-207 198.58,-205 188.69,-205"/>
<polygon fill="#9a32cd" stroke="#9a32cd" points="198.36,-212.67 188.69,-217 198.95,-219.65 198.36,-212.67"/>
<text text-anchor="middle" x="222" y="-208.5" font-family="Helvetica,sans-Serif" font-size="10.00"> parent</text>
</g>
<!-- Node5 -->
<g id="node5" class="node">
<title>Node5</title>
<g id="a_node5"><a xlink:title=" ">
<polygon fill="white" stroke="#bfbfbf" points="160.5,-134.5 160.5,-153.5 289.5,-153.5 289.5,-134.5 160.5,-134.5"/>
<text text-anchor="middle" x="225" y="-141.5" font-family="Helvetica,sans-Serif" font-size="10.00">std::vector&lt; Transform * &gt;</text>
</a>
</g>
</g>
<!-- Node4&#45;&gt;Node5 -->
<g id="edge5" class="edge">
<title>Node4&#45;&gt;Node5</title>
<path fill="none" stroke="#9a32cd" stroke-dasharray="5,2" d="M152.89,-191.19C151.9,-184.63 152.22,-177.53 156,-172 161.87,-163.39 170.94,-157.53 180.59,-153.54"/>
<polygon fill="#9a32cd" stroke="#9a32cd" points="149.61,-192.5 155.43,-201.35 156.41,-190.8 149.61,-192.5"/>
<text text-anchor="middle" x="177.5" y="-175" font-family="Helvetica,sans-Serif" font-size="10.00"> elements</text>
</g>
<!-- Node5&#45;&gt;Node4 -->
<g id="edge4" class="edge">
<title>Node5&#45;&gt;Node4</title>
<path fill="none" stroke="#9a32cd" stroke-dasharray="5,2" d="M217.02,-162.86C213.4,-169.68 208.65,-177.21 203,-183 195.74,-190.44 186.03,-196.69 177.57,-201.29"/>
<polygon fill="#9a32cd" stroke="#9a32cd" points="220.27,-164.17 221.49,-153.65 213.97,-161.12 220.27,-164.17"/>
<text text-anchor="middle" x="229.5" y="-175" font-family="Helvetica,sans-Serif" font-size="10.00"> children</text>
</g>
</g>
</svg>
