<?xml version="1.0" encoding="UTF-8" standalone="no"?>
<!DOCTYPE svg PUBLIC "-//W3C//DTD SVG 1.1//EN"
 "http://www.w3.org/Graphics/SVG/1.1/DTD/svg11.dtd">
<!-- Generated by graphviz version 2.40.1 (20161225.0304)
 -->
<!-- Title: Texture Pages: 1 -->
<svg width="162pt" height="84pt"
 viewBox="0.00 0.00 161.50 84.00" xmlns="http://www.w3.org/2000/svg" xmlns:xlink="http://www.w3.org/1999/xlink">
<g id="graph0" class="graph" transform="scale(1 1) rotate(0) translate(4 80)">
<title>Texture</title>
<polygon fill="#ffffff" stroke="transparent" points="-4,4 -4,-80 157.5,-80 157.5,4 -4,4"/>
<!-- Node0 -->
<g id="node1" class="node">
<title>Node0</title>
<polygon fill="#bfbfbf" stroke="#000000" points="54.5,-56.5 54.5,-75.5 104.5,-75.5 104.5,-56.5 54.5,-56.5"/>
<text text-anchor="middle" x="79.5" y="-63.5" font-family="Helvetica,sans-Serif" font-size="10.00" fill="#000000">Texture</text>
</g>
<!-- Node1 -->
<g id="node2" class="node">
<title>Node1</title>
<g id="a_node2"><a xlink:href="class_cube_texture.html" target="_top" xlink:title="CubeTexture">
<polygon fill="#ffffff" stroke="#000000" points="0,-.5 0,-19.5 73,-19.5 73,-.5 0,-.5"/>
<text text-anchor="middle" x="36.5" y="-7.5" font-family="Helvetica,sans-Serif" font-size="10.00" fill="#000000">CubeTexture</text>
</a>
</g>
</g>
<!-- Node0&#45;&gt;Node1 -->
<g id="edge1" class="edge">
<title>Node0&#45;&gt;Node1</title>
<path fill="none" stroke="#191970" d="M65.8408,-48.2112C58.5737,-38.7472 49.9219,-27.4797 43.9042,-19.6427"/>
<polygon fill="#191970" stroke="#191970" points="63.1436,-50.4456 72.01,-56.2455 68.6957,-46.1824 63.1436,-50.4456"/>
</g>
<!-- Node2 -->
<g id="node3" class="node">
<title>Node2</title>
<g id="a_node3"><a xlink:href="class_texture2_d.html" target="_top" xlink:title="Texture2D">
<polygon fill="#ffffff" stroke="#000000" points="91.5,-.5 91.5,-19.5 153.5,-19.5 153.5,-.5 91.5,-.5"/>
<text text-anchor="middle" x="122.5" y="-7.5" font-family="Helvetica,sans-Serif" font-size="10.00" fill="#000000">Texture2D</text>
</a>
</g>
</g>
<!-- Node0&#45;&gt;Node2 -->
<g id="edge2" class="edge">
<title>Node0&#45;&gt;Node2</title>
<path fill="none" stroke="#191970" d="M93.1592,-48.2112C100.4263,-38.7472 109.0781,-27.4797 115.0958,-19.6427"/>
<polygon fill="#191970" stroke="#191970" points="90.3043,-46.1824 86.99,-56.2455 95.8564,-50.4456 90.3043,-46.1824"/>
</g>
</g>
</svg>
