<?xml version="1.0" encoding="UTF-8" standalone="no"?>
<!DOCTYPE svg PUBLIC "-//W3C//DTD SVG 1.1//EN"
 "http://www.w3.org/Graphics/SVG/1.1/DTD/svg11.dtd">
<!-- Generated by graphviz version 2.44.1 (20200629.0846)
 -->
<!-- Title: Transform::getChildren Pages: 1 -->
<svg width="425pt" height="104pt"
 viewBox="0.00 0.00 425.00 104.00" xmlns="http://www.w3.org/2000/svg" xmlns:xlink="http://www.w3.org/1999/xlink">
<g id="graph0" class="graph" transform="scale(1 1) rotate(0) translate(4 100)">
<title>Transform::getChildren</title>
<polygon fill="white" stroke="transparent" points="-4,4 -4,-100 421,-100 421,4 -4,4"/>
<!-- Node1 -->
<g id="node1" class="node">
<title>Node1</title>
<g id="a_node1"><a xlink:title=" ">
<polygon fill="#bfbfbf" stroke="black" points="303,-38.5 303,-57.5 417,-57.5 417,-38.5 303,-38.5"/>
<text text-anchor="middle" x="360" y="-45.5" font-family="Helvetica,sans-Serif" font-size="10.00">Transform::getChildren</text>
</a>
</g>
</g>
<!-- Node2 -->
<g id="node2" class="node">
<title>Node2</title>
<g id="a_node2"><a xlink:href="class_scene.html#aed4bf402a8745e782fb5f711bb6d20ad" target="_top" xlink:title=" ">
<polygon fill="white" stroke="black" points="175.5,-76.5 175.5,-95.5 241.5,-95.5 241.5,-76.5 175.5,-76.5"/>
<text text-anchor="middle" x="208.5" y="-83.5" font-family="Helvetica,sans-Serif" font-size="10.00">Scene::add</text>
</a>
</g>
</g>
<!-- Node1&#45;&gt;Node2 -->
<g id="edge1" class="edge">
<title>Node1&#45;&gt;Node2</title>
<path fill="none" stroke="midnightblue" d="M311.45,-60.09C288.67,-65.88 261.99,-72.66 241.64,-77.83"/>
<polygon fill="midnightblue" stroke="midnightblue" points="312.45,-63.44 321.27,-57.59 310.72,-56.66 312.45,-63.44"/>
</g>
<!-- Node5 -->
<g id="node5" class="node">
<title>Node5</title>
<g id="a_node5"><a xlink:href="class_scene.html#a5e62816b2e2c566c8f1bc151688c2c36" target="_top" xlink:title=" ">
<polygon fill="white" stroke="black" points="168,-38.5 168,-57.5 249,-57.5 249,-38.5 168,-38.5"/>
<text text-anchor="middle" x="208.5" y="-45.5" font-family="Helvetica,sans-Serif" font-size="10.00">Scene::remove</text>
</a>
</g>
</g>
<!-- Node1&#45;&gt;Node5 -->
<g id="edge4" class="edge">
<title>Node1&#45;&gt;Node5</title>
<path fill="none" stroke="midnightblue" d="M292.71,-48C277.83,-48 262.5,-48 249.12,-48"/>
<polygon fill="midnightblue" stroke="midnightblue" points="292.91,-51.5 302.91,-48 292.91,-44.5 292.91,-51.5"/>
</g>
<!-- Node7 -->
<g id="node7" class="node">
<title>Node7</title>
<g id="a_node7"><a xlink:href="class_renderer.html#aa814eabb912509d0cd34b61018e98fb4" target="_top" xlink:title=" ">
<polygon fill="white" stroke="black" points="150,-0.5 150,-19.5 267,-19.5 267,-0.5 150,-0.5"/>
<text text-anchor="middle" x="208.5" y="-7.5" font-family="Helvetica,sans-Serif" font-size="10.00">Renderer::renderObject</text>
</a>
</g>
</g>
<!-- Node1&#45;&gt;Node7 -->
<g id="edge8" class="edge">
<title>Node1&#45;&gt;Node7</title>
<path fill="none" stroke="midnightblue" d="M311.35,-35.89C290.53,-30.6 266.46,-24.48 246.95,-19.52"/>
<polygon fill="midnightblue" stroke="midnightblue" points="310.72,-39.34 321.27,-38.41 312.45,-32.56 310.72,-39.34"/>
</g>
<!-- Node3 -->
<g id="node3" class="node">
<title>Node3</title>
<g id="a_node3"><a xlink:href="class_transform.html#a1512e279c1952d25d4e0f6a75ad9414a" target="_top" xlink:title=" ">
<polygon fill="white" stroke="black" points="16.5,-38.5 16.5,-57.5 97.5,-57.5 97.5,-38.5 16.5,-38.5"/>
<text text-anchor="middle" x="57" y="-45.5" font-family="Helvetica,sans-Serif" font-size="10.00">Transform::add</text>
</a>
</g>
</g>
<!-- Node2&#45;&gt;Node3 -->
<g id="edge2" class="edge">
<title>Node2&#45;&gt;Node3</title>
<path fill="none" stroke="midnightblue" d="M165.69,-75.37C143.68,-69.78 116.91,-62.97 95.56,-57.55"/>
<polygon fill="midnightblue" stroke="midnightblue" points="164.87,-78.78 175.43,-77.85 166.6,-71.99 164.87,-78.78"/>
</g>
<!-- Node4 -->
<g id="node4" class="node">
<title>Node4</title>
<g id="a_node4"><a xlink:href="class_transform.html#a0c54fa70e0f0467753cd675ea2a5b2c6" target="_top" xlink:title=" ">
<polygon fill="white" stroke="black" points="3.5,-76.5 3.5,-95.5 110.5,-95.5 110.5,-76.5 3.5,-76.5"/>
<text text-anchor="middle" x="57" y="-83.5" font-family="Helvetica,sans-Serif" font-size="10.00">Transform::setScene</text>
</a>
</g>
</g>
<!-- Node2&#45;&gt;Node4 -->
<g id="edge3" class="edge">
<title>Node2&#45;&gt;Node4</title>
<path fill="none" stroke="midnightblue" d="M165.25,-86C148.27,-86 128.5,-86 110.6,-86"/>
<polygon fill="midnightblue" stroke="midnightblue" points="165.43,-89.5 175.43,-86 165.43,-82.5 165.43,-89.5"/>
</g>
<!-- Node5&#45;&gt;Node3 -->
<g id="edge5" class="edge">
<title>Node5&#45;&gt;Node3</title>
<path fill="none" stroke="midnightblue" d="M157.59,-48C138.06,-48 115.99,-48 97.6,-48"/>
<polygon fill="midnightblue" stroke="midnightblue" points="157.83,-51.5 167.83,-48 157.83,-44.5 157.83,-51.5"/>
</g>
<!-- Node5&#45;&gt;Node4 -->
<g id="edge6" class="edge">
<title>Node5&#45;&gt;Node4</title>
<path fill="none" stroke="midnightblue" d="M159.85,-60.11C139.03,-65.4 114.96,-71.52 95.45,-76.48"/>
<polygon fill="midnightblue" stroke="midnightblue" points="160.95,-63.44 169.77,-57.59 159.22,-56.66 160.95,-63.44"/>
</g>
<!-- Node6 -->
<g id="node6" class="node">
<title>Node6</title>
<g id="a_node6"><a xlink:href="class_transform.html#aa72e286c069850db80927b0e6554cd3e" target="_top" xlink:title=" ">
<polygon fill="white" stroke="black" points="0,-0.5 0,-19.5 114,-19.5 114,-0.5 0,-0.5"/>
<text text-anchor="middle" x="57" y="-7.5" font-family="Helvetica,sans-Serif" font-size="10.00">Transform::~Transform</text>
</a>
</g>
</g>
<!-- Node5&#45;&gt;Node6 -->
<g id="edge7" class="edge">
<title>Node5&#45;&gt;Node6</title>
<path fill="none" stroke="midnightblue" d="M159.85,-35.89C139.03,-30.6 114.96,-24.48 95.45,-19.52"/>
<polygon fill="midnightblue" stroke="midnightblue" points="159.22,-39.34 169.77,-38.41 160.95,-32.56 159.22,-39.34"/>
</g>
</g>
</svg>
