<?xml version="1.0" encoding="UTF-8" standalone="no"?>
<!DOCTYPE svg PUBLIC "-//W3C//DTD SVG 1.1//EN"
 "http://www.w3.org/Graphics/SVG/1.1/DTD/svg11.dtd">
<!-- Generated by graphviz version 2.44.1 (20200629.0846)
 -->
<!-- Title: TransformUpdateSystem::updateTransform Pages: 1 -->
<svg width="475pt" height="116pt"
 viewBox="0.00 0.00 475.00 115.50" xmlns="http://www.w3.org/2000/svg" xmlns:xlink="http://www.w3.org/1999/xlink">
<g id="graph0" class="graph" transform="scale(1 1) rotate(0) translate(4 111.5)">
<title>TransformUpdateSystem::updateTransform</title>
<polygon fill="white" stroke="transparent" points="-4,4 -4,-111.5 471,-111.5 471,4 -4,4"/>
<!-- Node1 -->
<g id="node1" class="node">
<title>Node1</title>
<g id="a_node1"><a xlink:title=" ">
<polygon fill="#bfbfbf" stroke="black" points="0,-33 0,-63 124,-63 124,-33 0,-33"/>
<text text-anchor="start" x="8" y="-51" font-family="Helvetica,sans-Serif" font-size="10.00">TransformUpdateSystem</text>
<text text-anchor="middle" x="62" y="-40" font-family="Helvetica,sans-Serif" font-size="10.00">::updateTransform</text>
</a>
</g>
</g>
<!-- Node2 -->
<g id="node2" class="node">
<title>Node2</title>
<g id="a_node2"><a xlink:href="class_transform.html#ae74e29748e59e117ecff0f7ef02556b8" target="_top" xlink:title=" ">
<polygon fill="white" stroke="black" points="160,-38.5 160,-57.5 297,-57.5 297,-38.5 160,-38.5"/>
<text text-anchor="middle" x="228.5" y="-45.5" font-family="Helvetica,sans-Serif" font-size="10.00">Transform::updateTransform</text>
</a>
</g>
</g>
<!-- Node1&#45;&gt;Node2 -->
<g id="edge1" class="edge">
<title>Node1&#45;&gt;Node2</title>
<path fill="none" stroke="midnightblue" d="M124.25,-48C132.59,-48 141.24,-48 149.82,-48"/>
<polygon fill="midnightblue" stroke="midnightblue" points="149.84,-51.5 159.84,-48 149.84,-44.5 149.84,-51.5"/>
</g>
<!-- Node3 -->
<g id="node3" class="node">
<title>Node3</title>
<g id="a_node3"><a xlink:href="class_transform.html#ae511cc7b5382f46863ed06975ed80e57" target="_top" xlink:title=" ">
<polygon fill="white" stroke="black" points="336,-77 336,-107 464,-107 464,-77 336,-77"/>
<text text-anchor="start" x="344" y="-95" font-family="Helvetica,sans-Serif" font-size="10.00">Transform::calculateLocal</text>
<text text-anchor="middle" x="400" y="-84" font-family="Helvetica,sans-Serif" font-size="10.00">Transform</text>
</a>
</g>
</g>
<!-- Node2&#45;&gt;Node3 -->
<g id="edge2" class="edge">
<title>Node2&#45;&gt;Node3</title>
<path fill="none" stroke="midnightblue" d="M266.28,-57.55C285.28,-62.48 309.07,-68.66 331.25,-74.41"/>
<polygon fill="midnightblue" stroke="midnightblue" points="330.41,-77.81 340.96,-76.93 332.16,-71.03 330.41,-77.81"/>
</g>
<!-- Node4 -->
<g id="node4" class="node">
<title>Node4</title>
<g id="a_node4"><a xlink:href="class_entity.html#a2a0f7811f8c3f8726be1549e1c4acba4" target="_top" xlink:title=" ">
<polygon fill="white" stroke="black" points="354.5,-38.5 354.5,-57.5 445.5,-57.5 445.5,-38.5 354.5,-38.5"/>
<text text-anchor="middle" x="400" y="-45.5" font-family="Helvetica,sans-Serif" font-size="10.00">Entity::isEnabled</text>
</a>
</g>
</g>
<!-- Node2&#45;&gt;Node4 -->
<g id="edge3" class="edge">
<title>Node2&#45;&gt;Node4</title>
<path fill="none" stroke="midnightblue" d="M297.47,-48C313.03,-48 329.38,-48 344.31,-48"/>
<polygon fill="midnightblue" stroke="midnightblue" points="344.38,-51.5 354.38,-48 344.38,-44.5 344.38,-51.5"/>
</g>
<!-- Node5 -->
<g id="node5" class="node">
<title>Node5</title>
<g id="a_node5"><a xlink:href="class_entity.html#a5ef63e09990537ef3c474f463479f874" target="_top" xlink:title=" ">
<polygon fill="white" stroke="black" points="333,-0.5 333,-19.5 467,-19.5 467,-0.5 333,-0.5"/>
<text text-anchor="middle" x="400" y="-7.5" font-family="Helvetica,sans-Serif" font-size="10.00">Entity::transformDidUpdate</text>
</a>
</g>
</g>
<!-- Node2&#45;&gt;Node5 -->
<g id="edge4" class="edge">
<title>Node2&#45;&gt;Node5</title>
<path fill="none" stroke="midnightblue" d="M272.27,-38.41C294.84,-33.35 322.72,-27.1 346.58,-21.75"/>
<polygon fill="midnightblue" stroke="midnightblue" points="347.54,-25.12 356.54,-19.52 346.01,-18.29 347.54,-25.12"/>
</g>
</g>
</svg>
