<?xml version="1.0" encoding="UTF-8" standalone="no"?>
<!DOCTYPE svg PUBLIC "-//W3C//DTD SVG 1.1//EN"
 "http://www.w3.org/Graphics/SVG/1.1/DTD/svg11.dtd">
<!-- Generated by graphviz version 2.44.1 (20200629.0846)
 -->
<!-- Title: OpenGLContext::OpenGLContext Pages: 1 -->
<svg width="813pt" height="301pt"
 viewBox="0.00 0.00 813.00 301.00" xmlns="http://www.w3.org/2000/svg" xmlns:xlink="http://www.w3.org/1999/xlink">
<g id="graph0" class="graph" transform="scale(1 1) rotate(0) translate(4 297)">
<title>OpenGLContext::OpenGLContext</title>
<polygon fill="white" stroke="transparent" points="-4,4 -4,-297 809,-297 809,4 -4,4"/>
<!-- Node1 -->
<g id="node1" class="node">
<title>Node1</title>
<g id="a_node1"><a xlink:title=" ">
<polygon fill="#bfbfbf" stroke="black" points="0,-216.5 0,-235.5 162,-235.5 162,-216.5 0,-216.5"/>
<text text-anchor="middle" x="81" y="-223.5" font-family="Helvetica,sans-Serif" font-size="10.00">OpenGLContext::OpenGLContext</text>
</a>
</g>
</g>
<!-- Node2 -->
<g id="node2" class="node">
<title>Node2</title>
<g id="a_node2"><a xlink:href="_open_g_l_context_8cpp.html#ae9f4b850e6ccff72bf6da71038d9687f" target="_top" xlink:title=" ">
<polygon fill="white" stroke="black" points="225,-273.5 225,-292.5 299,-292.5 299,-273.5 225,-273.5"/>
<text text-anchor="middle" x="262" y="-280.5" font-family="Helvetica,sans-Serif" font-size="10.00">errorCallback</text>
</a>
</g>
</g>
<!-- Node1&#45;&gt;Node2 -->
<g id="edge1" class="edge">
<title>Node1&#45;&gt;Node2</title>
<path fill="none" stroke="midnightblue" d="M110.54,-235.56C133.99,-243.36 168.08,-254.59 198,-264 204.74,-266.12 211.89,-268.32 218.87,-270.45"/>
<polygon fill="midnightblue" stroke="midnightblue" points="218.32,-273.93 228.91,-273.48 220.35,-267.23 218.32,-273.93"/>
</g>
<!-- Node3 -->
<g id="node3" class="node">
<title>Node3</title>
<g id="a_node3"><a xlink:href="_open_g_l_context_8cpp.html#a09882d71c70e402a1d6179c914a001c2" target="_top" xlink:title=" ">
<polygon fill="white" stroke="black" points="201.5,-235.5 201.5,-254.5 322.5,-254.5 322.5,-235.5 201.5,-235.5"/>
<text text-anchor="middle" x="262" y="-242.5" font-family="Helvetica,sans-Serif" font-size="10.00">framebufferSizeCallback</text>
</a>
</g>
</g>
<!-- Node1&#45;&gt;Node3 -->
<g id="edge2" class="edge">
<title>Node1&#45;&gt;Node3</title>
<path fill="none" stroke="midnightblue" d="M162.08,-234.5C171.78,-235.53 181.64,-236.58 191.18,-237.59"/>
<polygon fill="midnightblue" stroke="midnightblue" points="191.08,-241.1 201.39,-238.67 191.82,-234.14 191.08,-241.1"/>
</g>
<!-- Node4 -->
<g id="node4" class="node">
<title>Node4</title>
<g id="a_node4"><a xlink:href="_open_g_l_context_8cpp.html#af833243b97061a22e702b3b11a7b647c" target="_top" xlink:title=" ">
<polygon fill="white" stroke="black" points="221.5,-197.5 221.5,-216.5 302.5,-216.5 302.5,-197.5 221.5,-197.5"/>
<text text-anchor="middle" x="262" y="-204.5" font-family="Helvetica,sans-Serif" font-size="10.00">glDebugOutput</text>
</a>
</g>
</g>
<!-- Node1&#45;&gt;Node4 -->
<g id="edge3" class="edge">
<title>Node1&#45;&gt;Node4</title>
<path fill="none" stroke="midnightblue" d="M162.08,-217.5C178.72,-215.73 195.79,-213.92 210.98,-212.31"/>
<polygon fill="midnightblue" stroke="midnightblue" points="211.58,-215.77 221.16,-211.23 210.84,-208.8 211.58,-215.77"/>
</g>
<!-- Node5 -->
<g id="node5" class="node">
<title>Node5</title>
<g id="a_node5"><a xlink:href="class_player_input.html#ac4b822917a8be991362091d2da7883e8" target="_top" xlink:title=" ">
<polygon fill="white" stroke="black" points="198,-159.5 198,-178.5 326,-178.5 326,-159.5 198,-159.5"/>
<text text-anchor="middle" x="262" y="-166.5" font-family="Helvetica,sans-Serif" font-size="10.00">PlayerInput::tryMakeInput</text>
</a>
</g>
</g>
<!-- Node1&#45;&gt;Node5 -->
<g id="edge4" class="edge">
<title>Node1&#45;&gt;Node5</title>
<path fill="none" stroke="midnightblue" d="M110.54,-216.44C133.99,-208.64 168.08,-197.41 198,-188 204.74,-185.88 211.89,-183.68 218.87,-181.55"/>
<polygon fill="midnightblue" stroke="midnightblue" points="220.35,-184.77 228.91,-178.52 218.32,-178.07 220.35,-184.77"/>
</g>
<!-- Node6 -->
<g id="node6" class="node">
<title>Node6</title>
<g id="a_node6"><a xlink:href="class_player_input.html#a41e31d5aa4a11ed2a3058e31210d5109" target="_top" xlink:title="The map of GLFW windows to their associated PlayerInput instances.">
<polygon fill="white" stroke="black" points="694,-115.5 694,-134.5 805,-134.5 805,-115.5 694,-115.5"/>
<text text-anchor="middle" x="749.5" y="-122.5" font-family="Helvetica,sans-Serif" font-size="10.00">PlayerInput::inputMap</text>
</a>
</g>
</g>
<!-- Node5&#45;&gt;Node6 -->
<g id="edge5" class="edge">
<title>Node5&#45;&gt;Node6</title>
<path fill="none" stroke="midnightblue" d="M302.28,-178.57C389.01,-198.91 594.23,-242.52 658,-216 693.46,-201.25 722.2,-165.11 737.19,-143.07"/>
<polygon fill="midnightblue" stroke="midnightblue" points="740.19,-144.87 742.75,-134.59 734.34,-141.03 740.19,-144.87"/>
</g>
<!-- Node7 -->
<g id="node7" class="node">
<title>Node7</title>
<g id="a_node7"><a xlink:href="class_player_input.html#ac7e7f65b22d437bc66ac1eaeb91c0d99" target="_top" xlink:title=" ">
<polygon fill="white" stroke="black" points="362,-115.5 362,-134.5 482,-134.5 482,-115.5 362,-115.5"/>
<text text-anchor="middle" x="422" y="-122.5" font-family="Helvetica,sans-Serif" font-size="10.00">PlayerInput::PlayerInput</text>
</a>
</g>
</g>
<!-- Node5&#45;&gt;Node7 -->
<g id="edge6" class="edge">
<title>Node5&#45;&gt;Node7</title>
<path fill="none" stroke="midnightblue" d="M297.28,-159.45C320.68,-152.94 351.88,-144.25 377.09,-137.23"/>
<polygon fill="midnightblue" stroke="midnightblue" points="378.09,-140.58 386.78,-134.53 376.21,-133.84 378.09,-140.58"/>
</g>
<!-- Node8 -->
<g id="node8" class="node">
<title>Node8</title>
<g id="a_node8"><a xlink:href="class_player_input.html#a1159455dba7ecb31c935c4a51afb15c7" target="_top" xlink:title=" ">
<polygon fill="white" stroke="black" points="524,-176 524,-206 652,-206 652,-176 524,-176"/>
<text text-anchor="start" x="532" y="-194" font-family="Helvetica,sans-Serif" font-size="10.00">PlayerInput::handleCursor</text>
<text text-anchor="middle" x="588" y="-183" font-family="Helvetica,sans-Serif" font-size="10.00">Position</text>
</a>
</g>
</g>
<!-- Node7&#45;&gt;Node8 -->
<g id="edge7" class="edge">
<title>Node7&#45;&gt;Node8</title>
<path fill="none" stroke="midnightblue" d="M444.35,-134.65C463.51,-143.2 492.45,-155.87 518,-166 523.39,-168.14 529.04,-170.3 534.69,-172.42"/>
<polygon fill="midnightblue" stroke="midnightblue" points="533.56,-175.73 544.15,-175.93 535.99,-169.17 533.56,-175.73"/>
</g>
<!-- Node9 -->
<g id="node9" class="node">
<title>Node9</title>
<g id="a_node9"><a xlink:href="class_player_input.html#afb9d2e949dbd3d69c36e5d5519e43824" target="_top" xlink:title=" ">
<polygon fill="white" stroke="black" points="519,-137.5 519,-156.5 657,-156.5 657,-137.5 519,-137.5"/>
<text text-anchor="middle" x="588" y="-144.5" font-family="Helvetica,sans-Serif" font-size="10.00">PlayerInput::handleKeyInput</text>
</a>
</g>
</g>
<!-- Node7&#45;&gt;Node9 -->
<g id="edge9" class="edge">
<title>Node7&#45;&gt;Node9</title>
<path fill="none" stroke="midnightblue" d="M482.21,-132.94C490.87,-134.11 499.91,-135.32 508.88,-136.52"/>
<polygon fill="midnightblue" stroke="midnightblue" points="508.59,-140.01 518.96,-137.87 509.52,-133.07 508.59,-140.01"/>
</g>
<!-- Node10 -->
<g id="node10" class="node">
<title>Node10</title>
<g id="a_node10"><a xlink:href="class_player_input.html#aba00f66210c0c6569823c25afda4a5da" target="_top" xlink:title=" ">
<polygon fill="white" stroke="black" points="523.5,-88 523.5,-118 652.5,-118 652.5,-88 523.5,-88"/>
<text text-anchor="start" x="531.5" y="-106" font-family="Helvetica,sans-Serif" font-size="10.00">PlayerInput::handleMouse</text>
<text text-anchor="middle" x="588" y="-95" font-family="Helvetica,sans-Serif" font-size="10.00">ButtonInput</text>
</a>
</g>
</g>
<!-- Node7&#45;&gt;Node10 -->
<g id="edge11" class="edge">
<title>Node7&#45;&gt;Node10</title>
<path fill="none" stroke="midnightblue" d="M482.21,-117.06C492.36,-115.7 503.02,-114.27 513.49,-112.86"/>
<polygon fill="midnightblue" stroke="midnightblue" points="514,-116.32 523.45,-111.53 513.07,-109.39 514,-116.32"/>
</g>
<!-- Node11 -->
<g id="node11" class="node">
<title>Node11</title>
<g id="a_node11"><a xlink:href="class_player_input.html#a48150e7bcc0b23258071f59ff2636590" target="_top" xlink:title=" ">
<polygon fill="white" stroke="black" points="525.5,-39 525.5,-69 650.5,-69 650.5,-39 525.5,-39"/>
<text text-anchor="start" x="533.5" y="-57" font-family="Helvetica,sans-Serif" font-size="10.00">PlayerInput::handleScroll</text>
<text text-anchor="middle" x="588" y="-46" font-family="Helvetica,sans-Serif" font-size="10.00">Input</text>
</a>
</g>
</g>
<!-- Node7&#45;&gt;Node11 -->
<g id="edge13" class="edge">
<title>Node7&#45;&gt;Node11</title>
<path fill="none" stroke="midnightblue" d="M441.31,-115.44C460.25,-105.71 490.82,-90.47 518,-79 523.06,-76.86 528.38,-74.74 533.72,-72.68"/>
<polygon fill="midnightblue" stroke="midnightblue" points="535.18,-75.87 543.3,-69.06 532.71,-69.32 535.18,-75.87"/>
</g>
<!-- Node12 -->
<g id="node12" class="node">
<title>Node12</title>
<g id="a_node12"><a xlink:href="class_player_input.html#af99688e0116feca7e153e551a056fd24" target="_top" xlink:title=" ">
<polygon fill="white" stroke="black" points="518,-0.5 518,-19.5 658,-19.5 658,-0.5 518,-0.5"/>
<text text-anchor="middle" x="588" y="-7.5" font-family="Helvetica,sans-Serif" font-size="10.00">PlayerInput::handleTextInput</text>
</a>
</g>
</g>
<!-- Node7&#45;&gt;Node12 -->
<g id="edge15" class="edge">
<title>Node7&#45;&gt;Node12</title>
<path fill="none" stroke="midnightblue" d="M429.67,-115.48C443.72,-96.16 478.34,-52.22 518,-29 521.68,-26.85 525.61,-24.93 529.66,-23.22"/>
<polygon fill="midnightblue" stroke="midnightblue" points="531.14,-26.41 539.27,-19.61 528.68,-19.85 531.14,-26.41"/>
</g>
<!-- Node8&#45;&gt;Node6 -->
<g id="edge8" class="edge">
<title>Node8&#45;&gt;Node6</title>
<path fill="none" stroke="midnightblue" d="M632.26,-175.91C640.84,-172.75 649.74,-169.36 658,-166 678.76,-157.55 701.76,-147.12 719.38,-138.89"/>
<polygon fill="midnightblue" stroke="midnightblue" points="721,-141.99 728.57,-134.57 718.03,-135.66 721,-141.99"/>
</g>
<!-- Node9&#45;&gt;Node6 -->
<g id="edge10" class="edge">
<title>Node9&#45;&gt;Node6</title>
<path fill="none" stroke="midnightblue" d="M657.11,-137.61C665.87,-136.4 674.82,-135.16 683.53,-133.96"/>
<polygon fill="midnightblue" stroke="midnightblue" points="684.2,-137.4 693.62,-132.57 683.24,-130.47 684.2,-137.4"/>
</g>
<!-- Node10&#45;&gt;Node6 -->
<g id="edge12" class="edge">
<title>Node10&#45;&gt;Node6</title>
<path fill="none" stroke="midnightblue" d="M652.96,-111.82C663.1,-113.22 673.59,-114.67 683.75,-116.07"/>
<polygon fill="midnightblue" stroke="midnightblue" points="683.39,-119.55 693.77,-117.45 684.34,-112.62 683.39,-119.55"/>
</g>
<!-- Node11&#45;&gt;Node6 -->
<g id="edge14" class="edge">
<title>Node11&#45;&gt;Node6</title>
<path fill="none" stroke="midnightblue" d="M633.12,-69.07C641.46,-72.18 650.05,-75.55 658,-79 679.97,-88.52 704.1,-100.89 721.92,-110.4"/>
<polygon fill="midnightblue" stroke="midnightblue" points="720.65,-113.7 731.12,-115.36 723.98,-107.53 720.65,-113.7"/>
</g>
<!-- Node12&#45;&gt;Node6 -->
<g id="edge16" class="edge">
<title>Node12&#45;&gt;Node6</title>
<path fill="none" stroke="midnightblue" d="M637.17,-19.6C644.43,-22.07 651.61,-25.16 658,-29 691.66,-49.26 720.83,-85.46 736.43,-107.15"/>
<polygon fill="midnightblue" stroke="midnightblue" points="733.65,-109.28 742.26,-115.47 739.39,-105.27 733.65,-109.28"/>
</g>
</g>
</svg>
