<?xml version="1.0" encoding="UTF-8" standalone="no"?>
<!DOCTYPE svg PUBLIC "-//W3C//DTD SVG 1.1//EN"
 "http://www.w3.org/Graphics/SVG/1.1/DTD/svg11.dtd">
<!-- Generated by graphviz version 2.44.1 (20200629.0846)
 -->
<!-- Title: DearImGuiSceneBrowser::displaySceneEntity Pages: 1 -->
<svg width="283pt" height="142pt"
 viewBox="0.00 0.00 283.00 142.00" xmlns="http://www.w3.org/2000/svg" xmlns:xlink="http://www.w3.org/1999/xlink">
<g id="graph0" class="graph" transform="scale(1 1) rotate(0) translate(4 138)">
<title>DearImGuiSceneBrowser::displaySceneEntity</title>
<polygon fill="white" stroke="transparent" points="-4,4 -4,-138 279,-138 279,4 -4,4"/>
<!-- Node1 -->
<g id="node1" class="node">
<title>Node1</title>
<g id="a_node1"><a xlink:title=" ">
<polygon fill="#bfbfbf" stroke="black" points="0,-52 0,-82 125,-82 125,-52 0,-52"/>
<text text-anchor="start" x="8" y="-70" font-family="Helvetica,sans-Serif" font-size="10.00">DearImGuiSceneBrowser</text>
<text text-anchor="middle" x="62.5" y="-59" font-family="Helvetica,sans-Serif" font-size="10.00">::displaySceneEntity</text>
</a>
</g>
</g>
<!-- Node2 -->
<g id="node2" class="node">
<title>Node2</title>
<g id="a_node2"><a xlink:href="class_transform.html#aa88751206dca7860f5c17977c8c10aa0" target="_top" xlink:title=" ">
<polygon fill="white" stroke="black" points="161,-114.5 161,-133.5 275,-133.5 275,-114.5 161,-114.5"/>
<text text-anchor="middle" x="218" y="-121.5" font-family="Helvetica,sans-Serif" font-size="10.00">Transform::getChildren</text>
</a>
</g>
</g>
<!-- Node1&#45;&gt;Node2 -->
<g id="edge1" class="edge">
<title>Node1&#45;&gt;Node2</title>
<path fill="none" stroke="midnightblue" d="M100.85,-82.01C118.95,-89.16 141.03,-97.72 161,-105 166.62,-107.05 172.59,-109.15 178.45,-111.17"/>
<polygon fill="midnightblue" stroke="midnightblue" points="177.54,-114.56 188.14,-114.48 179.81,-107.94 177.54,-114.56"/>
</g>
<!-- Node3 -->
<g id="node3" class="node">
<title>Node3</title>
<g id="a_node3"><a xlink:href="class_entity.html#aa8fb6c2c38bb08f493282edfef0746d3" target="_top" xlink:title=" ">
<polygon fill="white" stroke="black" points="174.5,-76.5 174.5,-95.5 261.5,-95.5 261.5,-76.5 174.5,-76.5"/>
<text text-anchor="middle" x="218" y="-83.5" font-family="Helvetica,sans-Serif" font-size="10.00">Entity::getName</text>
</a>
</g>
</g>
<!-- Node1&#45;&gt;Node3 -->
<g id="edge2" class="edge">
<title>Node1&#45;&gt;Node3</title>
<path fill="none" stroke="midnightblue" d="M125.05,-74.62C137.95,-76.22 151.45,-77.89 164.01,-79.44"/>
<polygon fill="midnightblue" stroke="midnightblue" points="163.95,-82.96 174.3,-80.71 164.81,-76.01 163.95,-82.96"/>
</g>
<!-- Node4 -->
<g id="node4" class="node">
<title>Node4</title>
<g id="a_node4"><a xlink:href="class_entity.html#aec5b6fb1566ab2f4b1b30c8d788315dc" target="_top" xlink:title=" ">
<polygon fill="white" stroke="black" points="166,-38.5 166,-57.5 270,-57.5 270,-38.5 166,-38.5"/>
<text text-anchor="middle" x="218" y="-45.5" font-family="Helvetica,sans-Serif" font-size="10.00">Entity::getTransform</text>
</a>
</g>
</g>
<!-- Node1&#45;&gt;Node4 -->
<g id="edge3" class="edge">
<title>Node1&#45;&gt;Node4</title>
<path fill="none" stroke="midnightblue" d="M125.05,-59.38C135.18,-58.13 145.69,-56.83 155.81,-55.57"/>
<polygon fill="midnightblue" stroke="midnightblue" points="156.29,-59.04 165.78,-54.34 155.43,-52.09 156.29,-59.04"/>
</g>
<!-- Node5 -->
<g id="node5" class="node">
<title>Node5</title>
<g id="a_node5"><a xlink:href="class_entity.html#a2a0f7811f8c3f8726be1549e1c4acba4" target="_top" xlink:title=" ">
<polygon fill="white" stroke="black" points="172.5,-0.5 172.5,-19.5 263.5,-19.5 263.5,-0.5 172.5,-0.5"/>
<text text-anchor="middle" x="218" y="-7.5" font-family="Helvetica,sans-Serif" font-size="10.00">Entity::isEnabled</text>
</a>
</g>
</g>
<!-- Node1&#45;&gt;Node5 -->
<g id="edge4" class="edge">
<title>Node1&#45;&gt;Node5</title>
<path fill="none" stroke="midnightblue" d="M100.85,-51.99C118.95,-44.84 141.03,-36.28 161,-29 166.62,-26.95 172.59,-24.85 178.45,-22.83"/>
<polygon fill="midnightblue" stroke="midnightblue" points="179.81,-26.06 188.14,-19.52 177.54,-19.44 179.81,-26.06"/>
</g>
</g>
</svg>
