<?xml version="1.0" encoding="UTF-8" standalone="no"?>
<!DOCTYPE svg PUBLIC "-//W3C//DTD SVG 1.1//EN"
 "http://www.w3.org/Graphics/SVG/1.1/DTD/svg11.dtd">
<!-- Generated by graphviz version 2.44.1 (20200629.0846)
 -->
<!-- Title: Object3D Pages: 1 -->
<svg width="209pt" height="230pt"
 viewBox="0.00 0.00 208.50 230.00" xmlns="http://www.w3.org/2000/svg" xmlns:xlink="http://www.w3.org/1999/xlink">
<g id="graph0" class="graph" transform="scale(1 1) rotate(0) translate(4 226)">
<title>Object3D</title>
<polygon fill="white" stroke="transparent" points="-4,4 -4,-226 204.5,-226 204.5,4 -4,4"/>
<!-- Node1 -->
<g id="node1" class="node">
<title>Node1</title>
<g id="a_node1"><a xlink:title=" ">
<polygon fill="#bfbfbf" stroke="black" points="94.5,-145.5 94.5,-164.5 151.5,-164.5 151.5,-145.5 94.5,-145.5"/>
<text text-anchor="middle" x="123" y="-152.5" font-family="Helvetica,sans-Serif" font-size="10.00">Object3D</text>
</a>
</g>
</g>
<!-- Node1&#45;&gt;Node1 -->
<g id="edge5" class="edge">
<title>Node1&#45;&gt;Node1</title>
<path fill="none" stroke="#9a32cd" stroke-dasharray="5,2" d="M161.62,-159.55C166.38,-158.74 169.5,-157.22 169.5,-155 169.5,-151.45 161.51,-149.7 151.61,-149.75"/>
<polygon fill="#9a32cd" stroke="#9a32cd" points="161.34,-156.06 151.61,-160.25 161.83,-163.04 161.34,-156.06"/>
<text text-anchor="middle" x="185" y="-152.5" font-family="Helvetica,sans-Serif" font-size="10.00"> parent</text>
</g>
<!-- Node4 -->
<g id="node4" class="node">
<title>Node4</title>
<g id="a_node4"><a xlink:title=" ">
<polygon fill="white" stroke="#bfbfbf" points="0,-78.5 0,-97.5 140,-97.5 140,-78.5 0,-78.5"/>
<text text-anchor="middle" x="70" y="-85.5" font-family="Helvetica,sans-Serif" font-size="10.00">std::unique_ptr&lt; Object3D &gt;</text>
</a>
</g>
</g>
<!-- Node1&#45;&gt;Node4 -->
<g id="edge4" class="edge">
<title>Node1&#45;&gt;Node4</title>
<path fill="none" stroke="#9a32cd" stroke-dasharray="5,2" d="M109.36,-137.27C99.03,-124.6 85.25,-107.7 77.03,-97.63"/>
<polygon fill="#9a32cd" stroke="#9a32cd" points="106.82,-139.7 115.85,-145.23 112.25,-135.27 106.82,-139.7"/>
<text text-anchor="middle" x="107.5" y="-119" font-family="Helvetica,sans-Serif" font-size="10.00"> ptr</text>
</g>
<!-- Node2 -->
<g id="node2" class="node">
<title>Node2</title>
<g id="a_node2"><a xlink:href="class_entity.html" target="_top" xlink:title=" ">
<polygon fill="white" stroke="black" points="102,-202.5 102,-221.5 144,-221.5 144,-202.5 102,-202.5"/>
<text text-anchor="middle" x="123" y="-209.5" font-family="Helvetica,sans-Serif" font-size="10.00">Entity</text>
</a>
</g>
</g>
<!-- Node2&#45;&gt;Node1 -->
<g id="edge1" class="edge">
<title>Node2&#45;&gt;Node1</title>
<path fill="none" stroke="midnightblue" d="M123,-192.12C123,-182.82 123,-172.06 123,-164.71"/>
<polygon fill="midnightblue" stroke="midnightblue" points="119.5,-192.41 123,-202.41 126.5,-192.41 119.5,-192.41"/>
</g>
<!-- Node3 -->
<g id="node3" class="node">
<title>Node3</title>
<g id="a_node3"><a xlink:title=" ">
<polygon fill="white" stroke="#bfbfbf" points="72.5,-0.5 72.5,-30.5 173.5,-30.5 173.5,-0.5 72.5,-0.5"/>
<text text-anchor="start" x="80.5" y="-18.5" font-family="Helvetica,sans-Serif" font-size="10.00">std::vector&lt; unique</text>
<text text-anchor="middle" x="123" y="-7.5" font-family="Helvetica,sans-Serif" font-size="10.00">_ptr&lt; Object3D &gt; &gt;</text>
</a>
</g>
</g>
<!-- Node3&#45;&gt;Node1 -->
<g id="edge2" class="edge">
<title>Node3&#45;&gt;Node1</title>
<path fill="none" stroke="#9a32cd" stroke-dasharray="5,2" d="M141.18,-39.19C143.06,-42.35 144.75,-45.66 146,-49 153.68,-69.42 153.7,-76.69 149,-98 145.07,-115.79 134.89,-134.65 128.5,-145.31"/>
<polygon fill="#9a32cd" stroke="#9a32cd" points="144,-37.12 135.5,-30.79 138.2,-41.04 144,-37.12"/>
<text text-anchor="middle" x="170.5" y="-85.5" font-family="Helvetica,sans-Serif" font-size="10.00"> children</text>
</g>
<!-- Node4&#45;&gt;Node3 -->
<g id="edge3" class="edge">
<title>Node4&#45;&gt;Node3</title>
<path fill="none" stroke="#9a32cd" stroke-dasharray="5,2" d="M82.75,-70.04C91.83,-57.97 103.87,-41.94 112.42,-30.58"/>
<polygon fill="#9a32cd" stroke="#9a32cd" points="79.71,-68.26 76.5,-78.36 85.31,-72.47 79.71,-68.26"/>
<text text-anchor="middle" x="120.5" y="-52" font-family="Helvetica,sans-Serif" font-size="10.00"> elements</text>
</g>
</g>
</svg>
