<?xml version="1.0" encoding="UTF-8" standalone="no"?>
<!DOCTYPE svg PUBLIC "-//W3C//DTD SVG 1.1//EN"
 "http://www.w3.org/Graphics/SVG/1.1/DTD/svg11.dtd">
<!-- Generated by graphviz version 2.44.1 (20200629.0846)
 -->
<!-- Title: Object3D Pages: 1 -->
<svg width="180pt" height="84pt"
 viewBox="0.00 0.00 180.00 84.00" xmlns="http://www.w3.org/2000/svg" xmlns:xlink="http://www.w3.org/1999/xlink">
<g id="graph0" class="graph" transform="scale(1 1) rotate(0) translate(4 80)">
<title>Object3D</title>
<polygon fill="white" stroke="transparent" points="-4,4 -4,-80 176,-80 176,4 -4,4"/>
<!-- Node1 -->
<g id="node1" class="node">
<title>Node1</title>
<g id="a_node1"><a xlink:title=" ">
<polygon fill="#bfbfbf" stroke="black" points="60.5,-56.5 60.5,-75.5 117.5,-75.5 117.5,-56.5 60.5,-56.5"/>
<text text-anchor="middle" x="89" y="-63.5" font-family="Helvetica,sans-Serif" font-size="10.00">Object3D</text>
</a>
</g>
</g>
<!-- Node2 -->
<g id="node2" class="node">
<title>Node2</title>
<g id="a_node2"><a xlink:href="class_camera.html" target="_top" xlink:title=" ">
<polygon fill="white" stroke="black" points="0,-0.5 0,-19.5 50,-19.5 50,-0.5 0,-0.5"/>
<text text-anchor="middle" x="25" y="-7.5" font-family="Helvetica,sans-Serif" font-size="10.00">Camera</text>
</a>
</g>
</g>
<!-- Node1&#45;&gt;Node2 -->
<g id="edge1" class="edge">
<title>Node1&#45;&gt;Node2</title>
<path fill="none" stroke="midnightblue" d="M71.01,-49.82C59.54,-40.15 45.09,-27.95 35.47,-19.83"/>
<polygon fill="midnightblue" stroke="midnightblue" points="68.82,-52.55 78.72,-56.32 73.33,-47.2 68.82,-52.55"/>
</g>
<!-- Node3 -->
<g id="node3" class="node">
<title>Node3</title>
<g id="a_node3"><a xlink:href="class_mesh.html" target="_top" xlink:title=" ">
<polygon fill="white" stroke="black" points="68.5,-0.5 68.5,-19.5 109.5,-19.5 109.5,-0.5 68.5,-0.5"/>
<text text-anchor="middle" x="89" y="-7.5" font-family="Helvetica,sans-Serif" font-size="10.00">Mesh</text>
</a>
</g>
</g>
<!-- Node1&#45;&gt;Node3 -->
<g id="edge2" class="edge">
<title>Node1&#45;&gt;Node3</title>
<path fill="none" stroke="midnightblue" d="M89,-45.8C89,-36.91 89,-26.78 89,-19.75"/>
<polygon fill="midnightblue" stroke="midnightblue" points="85.5,-46.08 89,-56.08 92.5,-46.08 85.5,-46.08"/>
</g>
<!-- Node4 -->
<g id="node4" class="node">
<title>Node4</title>
<g id="a_node4"><a xlink:href="class_scene.html" target="_top" xlink:title=" ">
<polygon fill="white" stroke="black" points="128,-0.5 128,-19.5 172,-19.5 172,-0.5 128,-0.5"/>
<text text-anchor="middle" x="150" y="-7.5" font-family="Helvetica,sans-Serif" font-size="10.00">Scene</text>
</a>
</g>
</g>
<!-- Node1&#45;&gt;Node4 -->
<g id="edge3" class="edge">
<title>Node1&#45;&gt;Node4</title>
<path fill="none" stroke="midnightblue" d="M106.47,-49.54C117.34,-39.91 130.94,-27.87 140.02,-19.83"/>
<polygon fill="midnightblue" stroke="midnightblue" points="103.97,-47.07 98.8,-56.32 108.61,-52.32 103.97,-47.07"/>
</g>
</g>
</svg>
