<?xml version="1.0" encoding="UTF-8" standalone="no"?>
<!DOCTYPE svg PUBLIC "-//W3C//DTD SVG 1.1//EN"
 "http://www.w3.org/Graphics/SVG/1.1/DTD/svg11.dtd">
<!-- Generated by graphviz version 2.44.1 (20200629.0846)
 -->
<!-- Title: Entity Pages: 1 -->
<svg width="393pt" height="173pt"
 viewBox="0.00 0.00 393.00 173.00" xmlns="http://www.w3.org/2000/svg" xmlns:xlink="http://www.w3.org/1999/xlink">
<g id="graph0" class="graph" transform="scale(1 1) rotate(0) translate(4 169)">
<title>Entity</title>
<polygon fill="white" stroke="transparent" points="-4,4 -4,-169 389,-169 389,4 -4,4"/>
<!-- Node1 -->
<g id="node1" class="node">
<title>Node1</title>
<g id="a_node1"><a xlink:title=" ">
<polygon fill="#bfbfbf" stroke="black" points="85.5,-0.5 85.5,-19.5 127.5,-19.5 127.5,-0.5 85.5,-0.5"/>
<text text-anchor="middle" x="106.5" y="-7.5" font-family="Helvetica,sans-Serif" font-size="10.00">Entity</text>
</a>
</g>
</g>
<!-- Node2 -->
<g id="node2" class="node">
<title>Node2</title>
<g id="a_node2"><a xlink:title="STL class.">
<polygon fill="white" stroke="#bfbfbf" points="17.5,-67.5 17.5,-86.5 77.5,-86.5 77.5,-67.5 17.5,-67.5"/>
<text text-anchor="middle" x="47.5" y="-74.5" font-family="Helvetica,sans-Serif" font-size="10.00">std::string</text>
</a>
</g>
</g>
<!-- Node2&#45;&gt;Node1 -->
<g id="edge1" class="edge">
<title>Node2&#45;&gt;Node1</title>
<path fill="none" stroke="#9a32cd" stroke-dasharray="5,2" d="M62.35,-59.63C73.89,-46.92 89.44,-29.8 98.67,-19.63"/>
<polygon fill="#9a32cd" stroke="#9a32cd" points="59.59,-57.48 55.46,-67.23 64.77,-62.18 59.59,-57.48"/>
<text text-anchor="middle" x="95.5" y="-41" font-family="Helvetica,sans-Serif" font-size="10.00"> name</text>
</g>
<!-- Node3 -->
<g id="node3" class="node">
<title>Node3</title>
<g id="a_node3"><a xlink:title="STL class.">
<polygon fill="white" stroke="#bfbfbf" points="0,-134.5 0,-164.5 95,-164.5 95,-134.5 0,-134.5"/>
<text text-anchor="start" x="8" y="-152.5" font-family="Helvetica,sans-Serif" font-size="10.00">std::basic_string&lt;</text>
<text text-anchor="middle" x="47.5" y="-141.5" font-family="Helvetica,sans-Serif" font-size="10.00"> char &gt;</text>
</a>
</g>
</g>
<!-- Node3&#45;&gt;Node2 -->
<g id="edge2" class="edge">
<title>Node3&#45;&gt;Node2</title>
<path fill="none" stroke="midnightblue" d="M47.5,-124.09C47.5,-111.21 47.5,-96.2 47.5,-86.89"/>
<polygon fill="midnightblue" stroke="midnightblue" points="44,-124.23 47.5,-134.23 51,-124.23 44,-124.23"/>
</g>
<!-- Node4 -->
<g id="node4" class="node">
<title>Node4</title>
<g id="a_node4"><a xlink:title=" ">
<polygon fill="white" stroke="#bfbfbf" points="95.5,-67.5 95.5,-86.5 237.5,-86.5 237.5,-67.5 95.5,-67.5"/>
<text text-anchor="middle" x="166.5" y="-74.5" font-family="Helvetica,sans-Serif" font-size="10.00">std::unique_ptr&lt; Transform &gt;</text>
</a>
</g>
</g>
<!-- Node4&#45;&gt;Node1 -->
<g id="edge3" class="edge">
<title>Node4&#45;&gt;Node1</title>
<path fill="none" stroke="#9a32cd" stroke-dasharray="5,2" d="M151.39,-59.63C139.66,-46.92 123.85,-29.8 114.46,-19.63"/>
<polygon fill="#9a32cd" stroke="#9a32cd" points="149.05,-62.26 158.41,-67.23 154.2,-57.51 149.05,-62.26"/>
<text text-anchor="middle" x="162.5" y="-41" font-family="Helvetica,sans-Serif" font-size="10.00"> transform</text>
</g>
<!-- Node5 -->
<g id="node5" class="node">
<title>Node5</title>
<g id="a_node5"><a xlink:href="class_transform.html" target="_top" xlink:title=" ">
<polygon fill="white" stroke="black" points="225,-140 225,-159 284,-159 284,-140 225,-140"/>
<text text-anchor="middle" x="254.5" y="-147" font-family="Helvetica,sans-Serif" font-size="10.00">Transform</text>
</a>
</g>
</g>
<!-- Node5&#45;&gt;Node4 -->
<g id="edge4" class="edge">
<title>Node5&#45;&gt;Node4</title>
<path fill="none" stroke="#9a32cd" stroke-dasharray="5,2" d="M235.74,-133.47C217.99,-119.25 191.94,-98.38 177.38,-86.72"/>
<polygon fill="#9a32cd" stroke="#9a32cd" points="233.72,-136.33 243.71,-139.86 238.09,-130.87 233.72,-136.33"/>
<text text-anchor="middle" x="221" y="-108" font-family="Helvetica,sans-Serif" font-size="10.00"> ptr</text>
</g>
<!-- Node5&#45;&gt;Node5 -->
<g id="edge7" class="edge">
<title>Node5&#45;&gt;Node5</title>
<path fill="none" stroke="#9a32cd" stroke-dasharray="5,2" d="M294.17,-155.62C298.91,-154.51 302,-152.47 302,-149.5 302,-144.75 294.08,-142.38 284.19,-142.38"/>
<polygon fill="#9a32cd" stroke="#9a32cd" points="293.79,-152.14 284.19,-156.62 294.49,-159.11 293.79,-152.14"/>
<text text-anchor="middle" x="317.5" y="-147" font-family="Helvetica,sans-Serif" font-size="10.00"> parent</text>
</g>
<!-- Node6 -->
<g id="node6" class="node">
<title>Node6</title>
<g id="a_node6"><a xlink:title=" ">
<polygon fill="white" stroke="#bfbfbf" points="256,-67.5 256,-86.5 385,-86.5 385,-67.5 256,-67.5"/>
<text text-anchor="middle" x="320.5" y="-74.5" font-family="Helvetica,sans-Serif" font-size="10.00">std::vector&lt; Transform * &gt;</text>
</a>
</g>
</g>
<!-- Node5&#45;&gt;Node6 -->
<g id="edge6" class="edge">
<title>Node5&#45;&gt;Node6</title>
<path fill="none" stroke="#9a32cd" stroke-dasharray="5,2" d="M248.32,-130.08C246.7,-121.77 246.57,-112.22 251.5,-105 257.37,-96.39 266.44,-90.53 276.09,-86.54"/>
<polygon fill="#9a32cd" stroke="#9a32cd" points="245.02,-131.27 251.02,-140 251.77,-129.43 245.02,-131.27"/>
<text text-anchor="middle" x="273" y="-108" font-family="Helvetica,sans-Serif" font-size="10.00"> elements</text>
</g>
<!-- Node6&#45;&gt;Node5 -->
<g id="edge5" class="edge">
<title>Node6&#45;&gt;Node5</title>
<path fill="none" stroke="#9a32cd" stroke-dasharray="5,2" d="M312.12,-95.87C308.48,-102.6 303.83,-110.04 298.5,-116 290.02,-125.49 278.36,-133.95 269.17,-139.85"/>
<polygon fill="#9a32cd" stroke="#9a32cd" points="315.31,-97.31 316.68,-86.81 309.06,-94.17 315.31,-97.31"/>
<text text-anchor="middle" x="324" y="-108" font-family="Helvetica,sans-Serif" font-size="10.00"> children</text>
</g>
</g>
</svg>
