<?xml version="1.0" encoding="UTF-8" standalone="no"?>
<!DOCTYPE svg PUBLIC "-//W3C//DTD SVG 1.1//EN"
 "http://www.w3.org/Graphics/SVG/1.1/DTD/svg11.dtd">
<!-- Generated by graphviz version 2.44.1 (20200629.0846)
 -->
<!-- Title: Utils::FrameTime Pages: 1 -->
<svg width="202pt" height="252pt"
 viewBox="0.00 0.00 201.50 252.00" xmlns="http://www.w3.org/2000/svg" xmlns:xlink="http://www.w3.org/1999/xlink">
<g id="graph0" class="graph" transform="scale(1 1) rotate(0) translate(4 248)">
<title>Utils::FrameTime</title>
<polygon fill="white" stroke="transparent" points="-4,4 -4,-248 197.5,-248 197.5,4 -4,4"/>
<!-- Node1 -->
<g id="node1" class="node">
<title>Node1</title>
<g id="a_node1"><a xlink:title=" ">
<polygon fill="#bfbfbf" stroke="black" points="74,-0.5 74,-19.5 165,-19.5 165,-0.5 74,-0.5"/>
<text text-anchor="middle" x="119.5" y="-7.5" font-family="Helvetica,sans-Serif" font-size="10.00">Utils::FrameTime</text>
</a>
</g>
</g>
<!-- Node2 -->
<g id="node2" class="node">
<title>Node2</title>
<g id="a_node2"><a xlink:title=" ">
<polygon fill="white" stroke="#bfbfbf" points="64.5,-67.5 64.5,-108.5 174.5,-108.5 174.5,-67.5 64.5,-67.5"/>
<text text-anchor="start" x="72.5" y="-96.5" font-family="Helvetica,sans-Serif" font-size="10.00">std::unordered_map</text>
<text text-anchor="start" x="72.5" y="-85.5" font-family="Helvetica,sans-Serif" font-size="10.00">&lt; std::string, duration</text>
<text text-anchor="middle" x="119.5" y="-74.5" font-family="Helvetica,sans-Serif" font-size="10.00">&lt; double &gt; &gt;</text>
</a>
</g>
</g>
<!-- Node2&#45;&gt;Node1 -->
<g id="edge1" class="edge">
<title>Node2&#45;&gt;Node1</title>
<path fill="none" stroke="#9a32cd" stroke-dasharray="5,2" d="M119.5,-57.05C119.5,-43.56 119.5,-28.65 119.5,-19.55"/>
<polygon fill="#9a32cd" stroke="#9a32cd" points="116,-57.43 119.5,-67.43 123,-57.43 116,-57.43"/>
<text text-anchor="middle" x="153" y="-41" font-family="Helvetica,sans-Serif" font-size="10.00"> recordedTimes</text>
</g>
<!-- Node3 -->
<g id="node3" class="node">
<title>Node3</title>
<g id="a_node3"><a xlink:title="STL class.">
<polygon fill="white" stroke="#bfbfbf" points="17.5,-156.5 17.5,-175.5 77.5,-175.5 77.5,-156.5 17.5,-156.5"/>
<text text-anchor="middle" x="47.5" y="-163.5" font-family="Helvetica,sans-Serif" font-size="10.00">std::string</text>
</a>
</g>
</g>
<!-- Node3&#45;&gt;Node2 -->
<g id="edge2" class="edge">
<title>Node3&#45;&gt;Node2</title>
<path fill="none" stroke="#9a32cd" stroke-dasharray="5,2" d="M62.73,-148.92C73.87,-137.17 89.02,-121.17 100.88,-108.66"/>
<polygon fill="#9a32cd" stroke="#9a32cd" points="60.1,-146.62 55.76,-156.28 65.18,-151.43 60.1,-146.62"/>
<text text-anchor="middle" x="96" y="-130" font-family="Helvetica,sans-Serif" font-size="10.00"> keys</text>
</g>
<!-- Node4 -->
<g id="node4" class="node">
<title>Node4</title>
<g id="a_node4"><a xlink:title="STL class.">
<polygon fill="white" stroke="#bfbfbf" points="0,-213.5 0,-243.5 95,-243.5 95,-213.5 0,-213.5"/>
<text text-anchor="start" x="8" y="-231.5" font-family="Helvetica,sans-Serif" font-size="10.00">std::basic_string&lt;</text>
<text text-anchor="middle" x="47.5" y="-220.5" font-family="Helvetica,sans-Serif" font-size="10.00"> char &gt;</text>
</a>
</g>
</g>
<!-- Node4&#45;&gt;Node3 -->
<g id="edge3" class="edge">
<title>Node4&#45;&gt;Node3</title>
<path fill="none" stroke="midnightblue" d="M47.5,-203.35C47.5,-193.51 47.5,-182.78 47.5,-175.54"/>
<polygon fill="midnightblue" stroke="midnightblue" points="44,-203.47 47.5,-213.47 51,-203.47 44,-203.47"/>
</g>
<!-- Node5 -->
<g id="node5" class="node">
<title>Node5</title>
<g id="a_node5"><a xlink:title=" ">
<polygon fill="white" stroke="#bfbfbf" points="95.5,-156.5 95.5,-175.5 193.5,-175.5 193.5,-156.5 95.5,-156.5"/>
<text text-anchor="middle" x="144.5" y="-163.5" font-family="Helvetica,sans-Serif" font-size="10.00">duration&lt; double &gt;</text>
</a>
</g>
</g>
<!-- Node5&#45;&gt;Node2 -->
<g id="edge4" class="edge">
<title>Node5&#45;&gt;Node2</title>
<path fill="none" stroke="#9a32cd" stroke-dasharray="5,2" d="M138.41,-146.49C134.64,-135.03 129.81,-120.33 125.97,-108.66"/>
<polygon fill="#9a32cd" stroke="#9a32cd" points="135.18,-147.88 141.63,-156.28 141.83,-145.69 135.18,-147.88"/>
<text text-anchor="middle" x="156" y="-130" font-family="Helvetica,sans-Serif" font-size="10.00"> elements</text>
</g>
</g>
</svg>
