<?xml version="1.0" encoding="UTF-8" standalone="no"?>
<!DOCTYPE svg PUBLIC "-//W3C//DTD SVG 1.1//EN"
 "http://www.w3.org/Graphics/SVG/1.1/DTD/svg11.dtd">
<!-- Generated by graphviz version 2.40.1 (20161225.0304)
 -->
<!-- Title: Mesh::updateTransform Pages: 1 -->
<svg width="476pt" height="152pt"
 viewBox="0.00 0.00 476.00 152.00" xmlns="http://www.w3.org/2000/svg" xmlns:xlink="http://www.w3.org/1999/xlink">
<g id="graph0" class="graph" transform="scale(1 1) rotate(0) translate(4 148)">
<title>Mesh::updateTransform</title>
<polygon fill="#ffffff" stroke="transparent" points="-4,4 -4,-148 472,-148 472,4 -4,4"/>
<!-- Node9 -->
<g id="node1" class="node">
<title>Node9</title>
<polygon fill="#bfbfbf" stroke="#000000" points="0,-86.5 0,-105.5 120,-105.5 120,-86.5 0,-86.5"/>
<text text-anchor="middle" x="60" y="-93.5" font-family="Helvetica,sans-Serif" font-size="10.00" fill="#000000">Mesh::updateTransform</text>
</g>
<!-- Node10 -->
<g id="node2" class="node">
<title>Node10</title>
<g id="a_node2"><a xlink:href="class_transform.html#a0a654c8900d2b9070ef4e6425b4feb80" target="_top" xlink:title="Transform::getEntity">
<polygon fill="#ffffff" stroke="#000000" points="173,-124.5 173,-143.5 279,-143.5 279,-124.5 173,-124.5"/>
<text text-anchor="middle" x="226" y="-131.5" font-family="Helvetica,sans-Serif" font-size="10.00" fill="#000000">Transform::getEntity</text>
</a>
</g>
</g>
<!-- Node9&#45;&gt;Node10 -->
<g id="edge1" class="edge">
<title>Node9&#45;&gt;Node10</title>
<path fill="none" stroke="#191970" d="M101.8888,-105.589C123.893,-110.6261 151.0545,-116.8438 174.3524,-122.1771"/>
<polygon fill="#191970" stroke="#191970" points="173.8835,-125.6602 184.4124,-124.4799 175.4456,-118.8367 173.8835,-125.6602"/>
</g>
<!-- Node11 -->
<g id="node3" class="node">
<title>Node11</title>
<g id="a_node3"><a xlink:href="class_entity.html#a2a0f7811f8c3f8726be1549e1c4acba4" target="_top" xlink:title="Entity::isEnabled">
<polygon fill="#ffffff" stroke="#000000" points="354.5,-88.5 354.5,-107.5 445.5,-107.5 445.5,-88.5 354.5,-88.5"/>
<text text-anchor="middle" x="400" y="-95.5" font-family="Helvetica,sans-Serif" font-size="10.00" fill="#000000">Entity::isEnabled</text>
</a>
</g>
</g>
<!-- Node9&#45;&gt;Node11 -->
<g id="edge2" class="edge">
<title>Node9&#45;&gt;Node11</title>
<path fill="none" stroke="#191970" d="M120.0025,-96.353C183.3476,-96.7256 282.4011,-97.3082 344.1356,-97.6714"/>
<polygon fill="#191970" stroke="#191970" points="344.4406,-101.1731 354.461,-97.7321 344.4818,-94.1733 344.4406,-101.1731"/>
</g>
<!-- Node12 -->
<g id="node4" class="node">
<title>Node12</title>
<g id="a_node4"><a xlink:href="class_transform.html#ae74e29748e59e117ecff0f7ef02556b8" target="_top" xlink:title="Transform::updateTransform">
<polygon fill="#ffffff" stroke="#000000" points="156,-47.5 156,-66.5 296,-66.5 296,-47.5 156,-47.5"/>
<text text-anchor="middle" x="226" y="-54.5" font-family="Helvetica,sans-Serif" font-size="10.00" fill="#000000">Transform::updateTransform</text>
</a>
</g>
</g>
<!-- Node9&#45;&gt;Node12 -->
<g id="edge3" class="edge">
<title>Node9&#45;&gt;Node12</title>
<path fill="none" stroke="#191970" d="M100.6082,-86.4595C123.2005,-81.1517 151.521,-74.4981 175.5282,-68.8578"/>
<polygon fill="#191970" stroke="#191970" points="176.5893,-72.2039 185.5237,-66.5095 174.9882,-65.3895 176.5893,-72.2039"/>
</g>
<!-- Node12&#45;&gt;Node11 -->
<g id="edge4" class="edge">
<title>Node12&#45;&gt;Node11</title>
<path fill="none" stroke="#191970" d="M266.3564,-66.5093C291.1932,-72.3616 323.2305,-79.9106 349.7111,-86.1503"/>
<polygon fill="#191970" stroke="#191970" points="349.0252,-89.5845 359.5614,-88.4714 350.6307,-82.7711 349.0252,-89.5845"/>
</g>
<!-- Node13 -->
<g id="node5" class="node">
<title>Node13</title>
<g id="a_node5"><a xlink:href="class_transform.html#ae511cc7b5382f46863ed06975ed80e57" target="_top" xlink:title="Transform::calculateLocal\lTransform">
<polygon fill="#ffffff" stroke="#000000" points="335.5,-39 335.5,-69 464.5,-69 464.5,-39 335.5,-39"/>
<text text-anchor="start" x="343.5" y="-57" font-family="Helvetica,sans-Serif" font-size="10.00" fill="#000000">Transform::calculateLocal</text>
<text text-anchor="middle" x="400" y="-46" font-family="Helvetica,sans-Serif" font-size="10.00" fill="#000000">Transform</text>
</a>
</g>
</g>
<!-- Node12&#45;&gt;Node13 -->
<g id="edge5" class="edge">
<title>Node12&#45;&gt;Node13</title>
<path fill="none" stroke="#191970" d="M296.0203,-55.7928C305.6924,-55.626 315.6558,-55.4542 325.4069,-55.2861"/>
<polygon fill="#191970" stroke="#191970" points="325.5324,-58.7845 335.4706,-55.1126 325.4117,-51.7856 325.5324,-58.7845"/>
</g>
<!-- Node14 -->
<g id="node6" class="node">
<title>Node14</title>
<g id="a_node6"><a xlink:href="class_entity.html#a574db5d19171b844655361b0f56bf2af" target="_top" xlink:title="Entity::transformDidUpdate">
<polygon fill="#ffffff" stroke="#000000" points="332,-.5 332,-19.5 468,-19.5 468,-.5 332,-.5"/>
<text text-anchor="middle" x="400" y="-7.5" font-family="Helvetica,sans-Serif" font-size="10.00" fill="#000000">Entity::transformDidUpdate</text>
</a>
</g>
</g>
<!-- Node12&#45;&gt;Node14 -->
<g id="edge6" class="edge">
<title>Node12&#45;&gt;Node14</title>
<path fill="none" stroke="#191970" d="M261.2115,-47.4888C288.127,-40.2186 325.44,-30.1398 354.5992,-22.2634"/>
<polygon fill="#191970" stroke="#191970" points="355.8014,-25.5642 364.5427,-19.5776 353.976,-18.8064 355.8014,-25.5642"/>
</g>
</g>
</svg>
