<?xml version="1.0" encoding="UTF-8" standalone="no"?>
<!DOCTYPE svg PUBLIC "-//W3C//DTD SVG 1.1//EN"
 "http://www.w3.org/Graphics/SVG/1.1/DTD/svg11.dtd">
<!-- Generated by graphviz version 2.40.1 (20161225.0304)
 -->
<!-- Title: MeshLambertMaterial::MeshLambertMaterial Pages: 1 -->
<svg width="426pt" height="88pt"
 viewBox="0.00 0.00 426.00 88.00" xmlns="http://www.w3.org/2000/svg" xmlns:xlink="http://www.w3.org/1999/xlink">
<g id="graph0" class="graph" transform="scale(1 1) rotate(0) translate(4 84)">
<title>MeshLambertMaterial::MeshLambertMaterial</title>
<polygon fill="#ffffff" stroke="transparent" points="-4,4 -4,-84 422,-84 422,4 -4,4"/>
<!-- Node0 -->
<g id="node1" class="node">
<title>Node0</title>
<polygon fill="#bfbfbf" stroke="#000000" points="0,-24.5 0,-54.5 116,-54.5 116,-24.5 0,-24.5"/>
<text text-anchor="start" x="8" y="-42.5" font-family="Helvetica,sans-Serif" font-size="10.00" fill="#000000">MeshLambertMaterial</text>
<text text-anchor="middle" x="58" y="-31.5" font-family="Helvetica,sans-Serif" font-size="10.00" fill="#000000">::MeshLambertMaterial</text>
</g>
<!-- Node1 -->
<g id="node2" class="node">
<title>Node1</title>
<g id="a_node2"><a xlink:href="class_mesh_material_common.html#ad8619ab807fc28f674d14fc05cc05d9b" target="_top" xlink:title="MeshMaterialCommon\l::initializeCommon">
<polygon fill="#ffffff" stroke="#000000" points="152,-24.5 152,-54.5 267,-54.5 267,-24.5 152,-24.5"/>
<text text-anchor="start" x="160" y="-42.5" font-family="Helvetica,sans-Serif" font-size="10.00" fill="#000000">MeshMaterialCommon</text>
<text text-anchor="middle" x="209.5" y="-31.5" font-family="Helvetica,sans-Serif" font-size="10.00" fill="#000000">::initializeCommon</text>
</a>
</g>
</g>
<!-- Node0&#45;&gt;Node1 -->
<g id="edge1" class="edge">
<title>Node0&#45;&gt;Node1</title>
<path fill="none" stroke="#191970" d="M116.1406,-39.5C124.446,-39.5 133.0503,-39.5 141.5236,-39.5"/>
<polygon fill="#191970" stroke="#191970" points="141.7652,-43.0001 151.7651,-39.5 141.7651,-36.0001 141.7652,-43.0001"/>
</g>
<!-- Node2 -->
<g id="node3" class="node">
<title>Node2</title>
<g id="a_node3"><a xlink:href="class_mesh_material_common.html#a4a675a7879a5fc23b5ae00f0847c019b" target="_top" xlink:title="MeshMaterialCommon\l::setColor">
<polygon fill="#ffffff" stroke="#000000" points="303,-49.5 303,-79.5 418,-79.5 418,-49.5 303,-49.5"/>
<text text-anchor="start" x="311" y="-67.5" font-family="Helvetica,sans-Serif" font-size="10.00" fill="#000000">MeshMaterialCommon</text>
<text text-anchor="middle" x="360.5" y="-56.5" font-family="Helvetica,sans-Serif" font-size="10.00" fill="#000000">::setColor</text>
</a>
</g>
</g>
<!-- Node1&#45;&gt;Node2 -->
<g id="edge2" class="edge">
<title>Node1&#45;&gt;Node2</title>
<path fill="none" stroke="#191970" d="M267.0174,-49.0227C275.4639,-50.4212 284.2292,-51.8724 292.8561,-53.3007"/>
<polygon fill="#191970" stroke="#191970" points="292.4551,-56.7819 302.8925,-54.9623 293.5985,-49.8759 292.4551,-56.7819"/>
</g>
<!-- Node3 -->
<g id="node4" class="node">
<title>Node3</title>
<g id="a_node4"><a xlink:href="class_mesh_material_common.html#a1c23f42272cdd31b29a643b4d2b74409" target="_top" xlink:title="MeshMaterialCommon\l::setMap">
<polygon fill="#ffffff" stroke="#000000" points="303,-.5 303,-30.5 418,-30.5 418,-.5 303,-.5"/>
<text text-anchor="start" x="311" y="-18.5" font-family="Helvetica,sans-Serif" font-size="10.00" fill="#000000">MeshMaterialCommon</text>
<text text-anchor="middle" x="360.5" y="-7.5" font-family="Helvetica,sans-Serif" font-size="10.00" fill="#000000">::setMap</text>
</a>
</g>
</g>
<!-- Node1&#45;&gt;Node3 -->
<g id="edge3" class="edge">
<title>Node1&#45;&gt;Node3</title>
<path fill="none" stroke="#191970" d="M267.0174,-30.3582C275.4639,-29.0157 284.2292,-27.6225 292.8561,-26.2513"/>
<polygon fill="#191970" stroke="#191970" points="293.5659,-29.6826 302.8925,-24.6562 292.4671,-22.7693 293.5659,-29.6826"/>
</g>
</g>
</svg>
