<?xml version="1.0" encoding="UTF-8" standalone="no"?>
<!DOCTYPE svg PUBLIC "-//W3C//DTD SVG 1.1//EN"
 "http://www.w3.org/Graphics/SVG/1.1/DTD/svg11.dtd">
<!-- Generated by graphviz version 2.44.1 (20200629.0846)
 -->
<!-- Title: Object3D Pages: 1 -->
<svg width="235pt" height="173pt"
 viewBox="0.00 0.00 234.50 173.00" xmlns="http://www.w3.org/2000/svg" xmlns:xlink="http://www.w3.org/1999/xlink">
<g id="graph0" class="graph" transform="scale(1 1) rotate(0) translate(4 169)">
<title>Object3D</title>
<polygon fill="white" stroke="transparent" points="-4,4 -4,-169 230.5,-169 230.5,4 -4,4"/>
<!-- Node1 -->
<g id="node1" class="node">
<title>Node1</title>
<g id="a_node1"><a xlink:title=" ">
<polygon fill="#bfbfbf" stroke="black" points="120.5,-145.5 120.5,-164.5 177.5,-164.5 177.5,-145.5 120.5,-145.5"/>
<text text-anchor="middle" x="149" y="-152.5" font-family="Helvetica,sans-Serif" font-size="10.00">Object3D</text>
</a>
</g>
</g>
<!-- Node1&#45;&gt;Node1 -->
<g id="edge4" class="edge">
<title>Node1&#45;&gt;Node1</title>
<path fill="none" stroke="#9a32cd" stroke-dasharray="5,2" d="M187.62,-160.2C192.38,-159.27 195.5,-157.54 195.5,-155 195.5,-150.94 187.51,-148.94 177.61,-149"/>
<polygon fill="#9a32cd" stroke="#9a32cd" points="187.3,-156.71 177.61,-161 187.85,-163.69 187.3,-156.71"/>
<text text-anchor="middle" x="211" y="-152.5" font-family="Helvetica,sans-Serif" font-size="10.00"> parent</text>
</g>
<!-- Node3 -->
<g id="node3" class="node">
<title>Node3</title>
<g id="a_node3"><a xlink:title=" ">
<polygon fill="white" stroke="#bfbfbf" points="0,-78.5 0,-97.5 140,-97.5 140,-78.5 0,-78.5"/>
<text text-anchor="middle" x="70" y="-85.5" font-family="Helvetica,sans-Serif" font-size="10.00">std::unique_ptr&lt; Object3D &gt;</text>
</a>
</g>
</g>
<!-- Node1&#45;&gt;Node3 -->
<g id="edge3" class="edge">
<title>Node1&#45;&gt;Node3</title>
<path fill="none" stroke="#9a32cd" stroke-dasharray="5,2" d="M130.42,-138.71C114.86,-125.91 93.2,-108.09 80.49,-97.63"/>
<polygon fill="#9a32cd" stroke="#9a32cd" points="128.4,-141.58 138.35,-145.23 132.85,-136.18 128.4,-141.58"/>
<text text-anchor="middle" x="122.5" y="-119" font-family="Helvetica,sans-Serif" font-size="10.00"> ptr</text>
</g>
<!-- Node2 -->
<g id="node2" class="node">
<title>Node2</title>
<g id="a_node2"><a xlink:title=" ">
<polygon fill="white" stroke="#bfbfbf" points="72.5,-0.5 72.5,-30.5 173.5,-30.5 173.5,-0.5 72.5,-0.5"/>
<text text-anchor="start" x="80.5" y="-18.5" font-family="Helvetica,sans-Serif" font-size="10.00">std::vector&lt; unique</text>
<text text-anchor="middle" x="123" y="-7.5" font-family="Helvetica,sans-Serif" font-size="10.00">_ptr&lt; Object3D &gt; &gt;</text>
</a>
</g>
</g>
<!-- Node2&#45;&gt;Node1 -->
<g id="edge1" class="edge">
<title>Node2&#45;&gt;Node1</title>
<path fill="none" stroke="#9a32cd" stroke-dasharray="5,2" d="M141.18,-39.19C143.06,-42.35 144.75,-45.66 146,-49 158.7,-82.8 153.55,-127.13 150.56,-145.48"/>
<polygon fill="#9a32cd" stroke="#9a32cd" points="144,-37.12 135.5,-30.79 138.2,-41.04 144,-37.12"/>
<text text-anchor="middle" x="172.5" y="-85.5" font-family="Helvetica,sans-Serif" font-size="10.00"> children</text>
</g>
<!-- Node3&#45;&gt;Node2 -->
<g id="edge2" class="edge">
<title>Node3&#45;&gt;Node2</title>
<path fill="none" stroke="#9a32cd" stroke-dasharray="5,2" d="M82.75,-70.04C91.83,-57.97 103.87,-41.94 112.42,-30.58"/>
<polygon fill="#9a32cd" stroke="#9a32cd" points="79.71,-68.26 76.5,-78.36 85.31,-72.47 79.71,-68.26"/>
<text text-anchor="middle" x="120.5" y="-52" font-family="Helvetica,sans-Serif" font-size="10.00"> elements</text>
</g>
</g>
</svg>
