<?xml version="1.0" encoding="UTF-8" standalone="no"?>
<!DOCTYPE svg PUBLIC "-//W3C//DTD SVG 1.1//EN"
 "http://www.w3.org/Graphics/SVG/1.1/DTD/svg11.dtd">
<!-- Generated by graphviz version 2.44.1 (20200629.0846)
 -->
<!-- Title: OldCamera::getViewMatrix Pages: 1 -->
<svg width="763pt" height="28pt"
 viewBox="0.00 0.00 763.00 28.00" xmlns="http://www.w3.org/2000/svg" xmlns:xlink="http://www.w3.org/1999/xlink">
<g id="graph0" class="graph" transform="scale(1 1) rotate(0) translate(4 24)">
<title>OldCamera::getViewMatrix</title>
<polygon fill="white" stroke="transparent" points="-4,4 -4,-24 759,-24 759,4 -4,4"/>
<!-- Node1 -->
<g id="node1" class="node">
<title>Node1</title>
<g id="a_node1"><a xlink:title=" ">
<polygon fill="#bfbfbf" stroke="black" points="622,-0.5 622,-19.5 755,-19.5 755,-0.5 622,-0.5"/>
<text text-anchor="middle" x="688.5" y="-7.5" font-family="Helvetica,sans-Serif" font-size="10.00">OldCamera::getViewMatrix</text>
</a>
</g>
</g>
<!-- Node2 -->
<g id="node2" class="node">
<title>Node2</title>
<g id="a_node2"><a xlink:href="class_main_renderer.html#a508a80df1c58c0820c8f18ced3a0558d" target="_top" xlink:title=" ">
<polygon fill="white" stroke="black" points="455,-0.5 455,-19.5 586,-19.5 586,-0.5 455,-0.5"/>
<text text-anchor="middle" x="520.5" y="-7.5" font-family="Helvetica,sans-Serif" font-size="10.00">MainRenderer::renderMain</text>
</a>
</g>
</g>
<!-- Node1&#45;&gt;Node2 -->
<g id="edge1" class="edge">
<title>Node1&#45;&gt;Node2</title>
<path fill="none" stroke="midnightblue" d="M611.86,-10C603.25,-10 594.54,-10 586.09,-10"/>
<polygon fill="midnightblue" stroke="midnightblue" points="611.89,-13.5 621.89,-10 611.89,-6.5 611.89,-13.5"/>
</g>
<!-- Node3 -->
<g id="node3" class="node">
<title>Node3</title>
<g id="a_node3"><a xlink:href="class_main_renderer.html#a7bdd84247ecd2942b26896524d84a863" target="_top" xlink:title=" ">
<polygon fill="white" stroke="black" points="309,-0.5 309,-19.5 419,-19.5 419,-0.5 309,-0.5"/>
<text text-anchor="middle" x="364" y="-7.5" font-family="Helvetica,sans-Serif" font-size="10.00">MainRenderer::render</text>
</a>
</g>
</g>
<!-- Node2&#45;&gt;Node3 -->
<g id="edge2" class="edge">
<title>Node2&#45;&gt;Node3</title>
<path fill="none" stroke="midnightblue" d="M444.76,-10C436.1,-10 427.4,-10 419.09,-10"/>
<polygon fill="midnightblue" stroke="midnightblue" points="444.87,-13.5 454.87,-10 444.87,-6.5 444.87,-13.5"/>
</g>
<!-- Node4 -->
<g id="node4" class="node">
<title>Node4</title>
<g id="a_node4"><a xlink:href="class_render_scene.html#a153e3fddce39acca50179504825bdc8f" target="_top" xlink:title=" ">
<polygon fill="white" stroke="black" points="144,-0.5 144,-19.5 273,-19.5 273,-0.5 144,-0.5"/>
<text text-anchor="middle" x="208.5" y="-7.5" font-family="Helvetica,sans-Serif" font-size="10.00">RenderScene::renderLoop</text>
</a>
</g>
</g>
<!-- Node3&#45;&gt;Node4 -->
<g id="edge3" class="edge">
<title>Node3&#45;&gt;Node4</title>
<path fill="none" stroke="midnightblue" d="M298.69,-10C290.23,-10 281.56,-10 273.11,-10"/>
<polygon fill="midnightblue" stroke="midnightblue" points="298.88,-13.5 308.88,-10 298.88,-6.5 298.88,-13.5"/>
</g>
<!-- Node5 -->
<g id="node5" class="node">
<title>Node5</title>
<g id="a_node5"><a xlink:href="class_process.html#a2ef87d936c7fae4508557714f593506e" target="_top" xlink:title=" ">
<polygon fill="white" stroke="black" points="0,-0.5 0,-19.5 108,-19.5 108,-0.5 0,-0.5"/>
<text text-anchor="middle" x="54" y="-7.5" font-family="Helvetica,sans-Serif" font-size="10.00">Process::runProcess</text>
</a>
</g>
</g>
<!-- Node4&#45;&gt;Node5 -->
<g id="edge4" class="edge">
<title>Node4&#45;&gt;Node5</title>
<path fill="none" stroke="midnightblue" d="M133.44,-10C124.99,-10 116.5,-10 108.39,-10"/>
<polygon fill="midnightblue" stroke="midnightblue" points="133.71,-13.5 143.71,-10 133.71,-6.5 133.71,-13.5"/>
</g>
</g>
</svg>
