<?xml version="1.0" encoding="UTF-8" standalone="no"?>
<!DOCTYPE svg PUBLIC "-//W3C//DTD SVG 1.1//EN"
 "http://www.w3.org/Graphics/SVG/1.1/DTD/svg11.dtd">
<!-- Generated by graphviz version 2.44.1 (20200629.0846)
 -->
<!-- Title: FXAAMaterial::FXAAMaterial Pages: 1 -->
<svg width="495pt" height="116pt"
 viewBox="0.00 0.00 495.00 115.50" xmlns="http://www.w3.org/2000/svg" xmlns:xlink="http://www.w3.org/1999/xlink">
<g id="graph0" class="graph" transform="scale(1 1) rotate(0) translate(4 111.5)">
<title>FXAAMaterial::FXAAMaterial</title>
<polygon fill="white" stroke="transparent" points="-4,4 -4,-111.5 491,-111.5 491,4 -4,4"/>
<!-- Node1 -->
<g id="node1" class="node">
<title>Node1</title>
<g id="a_node1"><a xlink:title="Initializes a FXAA shader material.">
<polygon fill="#bfbfbf" stroke="black" points="0,-50 0,-69 141,-69 141,-50 0,-50"/>
<text text-anchor="middle" x="70.5" y="-57" font-family="Helvetica,sans-Serif" font-size="10.00">FXAAMaterial::FXAAMaterial</text>
</a>
</g>
</g>
<!-- Node2 -->
<g id="node2" class="node">
<title>Node2</title>
<g id="a_node2"><a xlink:href="class_f_x_a_a_material.html#a56d33df1e0854b272ceef8ed58ace1a5" target="_top" xlink:title="Sets the FXAA edge threshold value.">
<polygon fill="white" stroke="black" points="185,-88 185,-107 345,-107 345,-88 185,-88"/>
<text text-anchor="middle" x="265" y="-95" font-family="Helvetica,sans-Serif" font-size="10.00">FXAAMaterial::setEdgeThreshold</text>
</a>
</g>
</g>
<!-- Node1&#45;&gt;Node2 -->
<g id="edge1" class="edge">
<title>Node1&#45;&gt;Node2</title>
<path fill="none" stroke="midnightblue" d="M120.08,-69.09C146.16,-74.24 178.51,-80.62 205.92,-86.03"/>
<polygon fill="midnightblue" stroke="midnightblue" points="205.28,-89.48 215.77,-87.98 206.64,-82.61 205.28,-89.48"/>
</g>
<!-- Node4 -->
<g id="node4" class="node">
<title>Node4</title>
<g id="a_node4"><a xlink:href="class_f_x_a_a_material.html#aa7a066a9ae425592dd20461b385b7901" target="_top" xlink:title="Sets the FXAA edge threshold min value.">
<polygon fill="white" stroke="black" points="177,-50 177,-69 353,-69 353,-50 177,-50"/>
<text text-anchor="middle" x="265" y="-57" font-family="Helvetica,sans-Serif" font-size="10.00">FXAAMaterial::setEdgeThresholdMin</text>
</a>
</g>
</g>
<!-- Node1&#45;&gt;Node4 -->
<g id="edge3" class="edge">
<title>Node1&#45;&gt;Node4</title>
<path fill="none" stroke="midnightblue" d="M141.27,-59.5C149.54,-59.5 158.1,-59.5 166.67,-59.5"/>
<polygon fill="midnightblue" stroke="midnightblue" points="166.72,-63 176.72,-59.5 166.72,-56 166.72,-63"/>
</g>
<!-- Node5 -->
<g id="node5" class="node">
<title>Node5</title>
<g id="a_node5"><a xlink:href="class_f_x_a_a_material.html#a09d7f6286f1f4cf3ea0dfbf762e021d0" target="_top" xlink:title="Sets the FXAA subpixel quality value.">
<polygon fill="white" stroke="black" points="198.5,-0.5 198.5,-30.5 331.5,-30.5 331.5,-0.5 198.5,-0.5"/>
<text text-anchor="start" x="206.5" y="-18.5" font-family="Helvetica,sans-Serif" font-size="10.00">FXAAMaterial::setSubpixel</text>
<text text-anchor="middle" x="265" y="-7.5" font-family="Helvetica,sans-Serif" font-size="10.00">Quality</text>
</a>
</g>
</g>
<!-- Node1&#45;&gt;Node5 -->
<g id="edge5" class="edge">
<title>Node1&#45;&gt;Node5</title>
<path fill="none" stroke="midnightblue" d="M113.27,-49.95C135.23,-44.93 162.84,-38.62 188.41,-32.78"/>
<polygon fill="midnightblue" stroke="midnightblue" points="189.5,-36.12 198.47,-30.48 187.94,-29.3 189.5,-36.12"/>
</g>
<!-- Node3 -->
<g id="node3" class="node">
<title>Node3</title>
<g id="a_node3"><a xlink:href="class_material.html#a7476a27aaaa3337d6f4dfa3c5e44d22d" target="_top" xlink:title=" ">
<polygon fill="white" stroke="black" points="389,-50 389,-69 487,-69 487,-50 389,-50"/>
<text text-anchor="middle" x="438" y="-57" font-family="Helvetica,sans-Serif" font-size="10.00">Material::setDefine</text>
</a>
</g>
</g>
<!-- Node2&#45;&gt;Node3 -->
<g id="edge2" class="edge">
<title>Node2&#45;&gt;Node3</title>
<path fill="none" stroke="midnightblue" d="M309.83,-88C323.65,-84.98 338.96,-81.62 353,-78.5 363.4,-76.19 374.51,-73.69 385.14,-71.29"/>
<polygon fill="midnightblue" stroke="midnightblue" points="386.16,-74.65 395.14,-69.03 384.62,-67.82 386.16,-74.65"/>
</g>
<!-- Node4&#45;&gt;Node3 -->
<g id="edge4" class="edge">
<title>Node4&#45;&gt;Node3</title>
<path fill="none" stroke="midnightblue" d="M353,-59.5C361.8,-59.5 370.58,-59.5 378.96,-59.5"/>
<polygon fill="midnightblue" stroke="midnightblue" points="378.97,-63 388.97,-59.5 378.97,-56 378.97,-63"/>
</g>
<!-- Node5&#45;&gt;Node3 -->
<g id="edge6" class="edge">
<title>Node5&#45;&gt;Node3</title>
<path fill="none" stroke="midnightblue" d="M324.37,-30.52C345.81,-36.04 369.78,-42.2 390.09,-47.43"/>
<polygon fill="midnightblue" stroke="midnightblue" points="389.47,-50.89 400.03,-49.99 391.22,-44.11 389.47,-50.89"/>
</g>
</g>
</svg>
