<?xml version="1.0" encoding="UTF-8" standalone="no"?>
<!DOCTYPE svg PUBLIC "-//W3C//DTD SVG 1.1//EN"
 "http://www.w3.org/Graphics/SVG/1.1/DTD/svg11.dtd">
<!-- Generated by graphviz version 2.44.1 (20200629.0846)
 -->
<!-- Title: RenderMesh Pages: 1 -->
<svg width="1392pt" height="328pt"
 viewBox="0.00 0.00 1392.00 328.00" xmlns="http://www.w3.org/2000/svg" xmlns:xlink="http://www.w3.org/1999/xlink">
<g id="graph0" class="graph" transform="scale(1 1) rotate(0) translate(4 324)">
<title>RenderMesh</title>
<polygon fill="white" stroke="transparent" points="-4,4 -4,-324 1388,-324 1388,4 -4,4"/>
<!-- Node1 -->
<g id="node1" class="node">
<title>Node1</title>
<g id="a_node1"><a xlink:title=" ">
<polygon fill="#bfbfbf" stroke="black" points="1313,-180.5 1313,-199.5 1384,-199.5 1384,-180.5 1313,-180.5"/>
<text text-anchor="middle" x="1348.5" y="-187.5" font-family="Helvetica,sans-Serif" font-size="10.00">RenderMesh</text>
</a>
</g>
</g>
<!-- Node2 -->
<g id="node2" class="node">
<title>Node2</title>
<g id="a_node2"><a xlink:href="class_component.html" target="_top" xlink:title=" ">
<polygon fill="white" stroke="black" points="1116.5,-248.5 1116.5,-267.5 1182.5,-267.5 1182.5,-248.5 1116.5,-248.5"/>
<text text-anchor="middle" x="1149.5" y="-255.5" font-family="Helvetica,sans-Serif" font-size="10.00">Component</text>
</a>
</g>
</g>
<!-- Node2&#45;&gt;Node1 -->
<g id="edge1" class="edge">
<title>Node2&#45;&gt;Node1</title>
<path fill="none" stroke="midnightblue" d="M1188.1,-245.02C1226.57,-231.74 1285.44,-211.42 1319.83,-199.55"/>
<polygon fill="midnightblue" stroke="midnightblue" points="1186.62,-241.83 1178.31,-248.4 1188.9,-248.45 1186.62,-241.83"/>
</g>
<!-- Node3 -->
<g id="node3" class="node">
<title>Node3</title>
<g id="a_node3"><a xlink:href="class_entity.html" target="_top" xlink:title=" ">
<polygon fill="white" stroke="black" points="891,-271.5 891,-290.5 933,-290.5 933,-271.5 891,-271.5"/>
<text text-anchor="middle" x="912" y="-278.5" font-family="Helvetica,sans-Serif" font-size="10.00">Entity</text>
</a>
</g>
</g>
<!-- Node3&#45;&gt;Node2 -->
<g id="edge2" class="edge">
<title>Node3&#45;&gt;Node2</title>
<path fill="none" stroke="#9a32cd" stroke-dasharray="5,2" d="M943.27,-278.04C987.81,-273.69 1070.65,-265.6 1116.28,-261.15"/>
<polygon fill="#9a32cd" stroke="#9a32cd" points="942.69,-274.58 933.08,-279.04 943.37,-281.55 942.69,-274.58"/>
<text text-anchor="middle" x="1010" y="-277" font-family="Helvetica,sans-Serif" font-size="10.00"> associatedEntity</text>
</g>
<!-- Node4 -->
<g id="node4" class="node">
<title>Node4</title>
<g id="a_node4"><a xlink:title=" ">
<polygon fill="white" stroke="#bfbfbf" points="599,-300.5 599,-319.5 741,-319.5 741,-300.5 599,-300.5"/>
<text text-anchor="middle" x="670" y="-307.5" font-family="Helvetica,sans-Serif" font-size="10.00">std::unique_ptr&lt; Transform &gt;</text>
</a>
</g>
</g>
<!-- Node4&#45;&gt;Node3 -->
<g id="edge3" class="edge">
<title>Node4&#45;&gt;Node3</title>
<path fill="none" stroke="#9a32cd" stroke-dasharray="5,2" d="M751.13,-300.32C800.62,-294.34 860.31,-287.13 890.85,-283.43"/>
<polygon fill="#9a32cd" stroke="#9a32cd" points="750.57,-296.86 741.06,-301.53 751.41,-303.81 750.57,-296.86"/>
<text text-anchor="middle" x="809.5" y="-301" font-family="Helvetica,sans-Serif" font-size="10.00"> transform</text>
</g>
<!-- Node5 -->
<g id="node5" class="node">
<title>Node5</title>
<g id="a_node5"><a xlink:href="class_transform.html" target="_top" xlink:title=" ">
<polygon fill="white" stroke="black" points="409,-266.5 409,-285.5 468,-285.5 468,-266.5 409,-266.5"/>
<text text-anchor="middle" x="438.5" y="-273.5" font-family="Helvetica,sans-Serif" font-size="10.00">Transform</text>
</a>
</g>
</g>
<!-- Node5&#45;&gt;Node4 -->
<g id="edge4" class="edge">
<title>Node5&#45;&gt;Node4</title>
<path fill="none" stroke="#9a32cd" stroke-dasharray="5,2" d="M478.26,-281.74C512.83,-286.86 564.11,-294.46 604.79,-300.49"/>
<polygon fill="#9a32cd" stroke="#9a32cd" points="478.51,-278.24 468.1,-280.24 477.48,-285.17 478.51,-278.24"/>
<text text-anchor="middle" x="551.5" y="-298" font-family="Helvetica,sans-Serif" font-size="10.00"> ptr</text>
</g>
<!-- Node5&#45;&gt;Node5 -->
<g id="edge7" class="edge">
<title>Node5&#45;&gt;Node5</title>
<path fill="none" stroke="#9a32cd" stroke-dasharray="5,2" d="M418.13,-295.4C419.49,-300.31 426.28,-304 438.5,-304 458.05,-304 463.7,-294.57 455.45,-285.76"/>
<polygon fill="#9a32cd" stroke="#9a32cd" points="421.51,-296.35 421.55,-285.76 414.91,-294.01 421.51,-296.35"/>
<text text-anchor="middle" x="438.5" y="-307" font-family="Helvetica,sans-Serif" font-size="10.00"> parent</text>
</g>
<!-- Node6 -->
<g id="node6" class="node">
<title>Node6</title>
<g id="a_node6"><a xlink:title=" ">
<polygon fill="white" stroke="#bfbfbf" points="605.5,-262.5 605.5,-281.5 734.5,-281.5 734.5,-262.5 605.5,-262.5"/>
<text text-anchor="middle" x="670" y="-269.5" font-family="Helvetica,sans-Serif" font-size="10.00">std::vector&lt; Transform * &gt;</text>
</a>
</g>
</g>
<!-- Node5&#45;&gt;Node6 -->
<g id="edge6" class="edge">
<title>Node5&#45;&gt;Node6</title>
<path fill="none" stroke="#9a32cd" stroke-dasharray="5,2" d="M478.3,-275.32C513,-274.72 564.52,-273.82 605.27,-273.11"/>
<polygon fill="#9a32cd" stroke="#9a32cd" points="478.04,-271.83 468.1,-275.5 478.16,-278.83 478.04,-271.83"/>
<text text-anchor="middle" x="551.5" y="-277" font-family="Helvetica,sans-Serif" font-size="10.00"> elements</text>
</g>
<!-- Node6&#45;&gt;Node5 -->
<g id="edge5" class="edge">
<title>Node6&#45;&gt;Node5</title>
<path fill="none" stroke="#9a32cd" stroke-dasharray="5,2" d="M610.97,-259.71C604.16,-257.73 597.37,-255.49 591,-253 582.48,-249.66 581.86,-245.3 573,-243 554.5,-238.21 548.82,-239.68 530,-243 504.8,-247.45 477.4,-258.37 459.42,-266.43"/>
<polygon fill="#9a32cd" stroke="#9a32cd" points="610.37,-263.17 620.94,-262.44 612.22,-256.42 610.37,-263.17"/>
<text text-anchor="middle" x="551.5" y="-246" font-family="Helvetica,sans-Serif" font-size="10.00"> children</text>
</g>
<!-- Node7 -->
<g id="node7" class="node">
<title>Node7</title>
<g id="a_node7"><a xlink:href="class_i_render_mesh.html" target="_top" xlink:title=" ">
<polygon fill="white" stroke="black" points="1112.5,-193.5 1112.5,-212.5 1186.5,-212.5 1186.5,-193.5 1112.5,-193.5"/>
<text text-anchor="middle" x="1149.5" y="-200.5" font-family="Helvetica,sans-Serif" font-size="10.00">IRenderMesh</text>
</a>
</g>
</g>
<!-- Node7&#45;&gt;Node1 -->
<g id="edge8" class="edge">
<title>Node7&#45;&gt;Node1</title>
<path fill="none" stroke="midnightblue" d="M1196.76,-199.95C1232.32,-197.6 1280.67,-194.41 1312.92,-192.28"/>
<polygon fill="midnightblue" stroke="midnightblue" points="1196.38,-196.46 1186.63,-200.62 1196.84,-203.45 1196.38,-196.46"/>
</g>
<!-- Node8 -->
<g id="node8" class="node">
<title>Node8</title>
<g id="a_node8"><a xlink:title=" ">
<polygon fill="white" stroke="#bfbfbf" points="1066,-155.5 1066,-174.5 1233,-174.5 1233,-155.5 1066,-155.5"/>
<text text-anchor="middle" x="1149.5" y="-162.5" font-family="Helvetica,sans-Serif" font-size="10.00">std::shared_ptr&lt; BufferGeometry &gt;</text>
</a>
</g>
</g>
<!-- Node8&#45;&gt;Node1 -->
<g id="edge9" class="edge">
<title>Node8&#45;&gt;Node1</title>
<path fill="none" stroke="#9a32cd" stroke-dasharray="5,2" d="M1243.33,-171.48C1260.56,-173.22 1278.36,-175.36 1295,-178 1300.82,-178.92 1306.95,-180.12 1312.89,-181.4"/>
<polygon fill="#9a32cd" stroke="#9a32cd" points="1243.56,-167.99 1233.27,-170.51 1242.88,-174.96 1243.56,-167.99"/>
<text text-anchor="middle" x="1273" y="-181" font-family="Helvetica,sans-Serif" font-size="10.00"> geometry</text>
</g>
<!-- Node9 -->
<g id="node9" class="node">
<title>Node9</title>
<g id="a_node9"><a xlink:href="class_buffer_geometry.html" target="_top" xlink:title=" ">
<polygon fill="white" stroke="black" points="870,-155.5 870,-174.5 954,-174.5 954,-155.5 870,-155.5"/>
<text text-anchor="middle" x="912" y="-162.5" font-family="Helvetica,sans-Serif" font-size="10.00">BufferGeometry</text>
</a>
</g>
</g>
<!-- Node9&#45;&gt;Node8 -->
<g id="edge10" class="edge">
<title>Node9&#45;&gt;Node8</title>
<path fill="none" stroke="#9a32cd" stroke-dasharray="5,2" d="M964.13,-165C993.75,-165 1031.75,-165 1065.54,-165"/>
<polygon fill="#9a32cd" stroke="#9a32cd" points="964.02,-161.5 954.02,-165 964.02,-168.5 964.02,-161.5"/>
<text text-anchor="middle" x="1010" y="-168" font-family="Helvetica,sans-Serif" font-size="10.00"> ptr</text>
</g>
<!-- Node10 -->
<g id="node10" class="node">
<title>Node10</title>
<g id="a_node10"><a xlink:href="struct_math_1_1_sphere.html" target="_top" xlink:title="A structure for handling a mathematical sphere object.">
<polygon fill="white" stroke="black" points="632.5,-224.5 632.5,-243.5 707.5,-243.5 707.5,-224.5 632.5,-224.5"/>
<text text-anchor="middle" x="670" y="-231.5" font-family="Helvetica,sans-Serif" font-size="10.00">Math::Sphere</text>
</a>
</g>
</g>
<!-- Node10&#45;&gt;Node9 -->
<g id="edge11" class="edge">
<title>Node10&#45;&gt;Node9</title>
<path fill="none" stroke="#9a32cd" stroke-dasharray="5,2" d="M717.74,-229.28C754.99,-224.5 808,-215.4 852,-199 868.39,-192.89 885.55,-182.48 897.11,-174.78"/>
<polygon fill="#9a32cd" stroke="#9a32cd" points="717.18,-225.82 707.68,-230.51 718.03,-232.77 717.18,-225.82"/>
<text text-anchor="middle" x="809.5" y="-224" font-family="Helvetica,sans-Serif" font-size="10.00"> boundingSphere</text>
</g>
<!-- Node11 -->
<g id="node11" class="node">
<title>Node11</title>
<g id="a_node11"><a xlink:title=" ">
<polygon fill="white" stroke="#bfbfbf" points="613,-186.5 613,-205.5 727,-205.5 727,-186.5 613,-186.5"/>
<text text-anchor="middle" x="670" y="-193.5" font-family="Helvetica,sans-Serif" font-size="10.00">std::vector&lt; uint32_t &gt;</text>
</a>
</g>
</g>
<!-- Node11&#45;&gt;Node9 -->
<g id="edge12" class="edge">
<title>Node11&#45;&gt;Node9</title>
<path fill="none" stroke="#9a32cd" stroke-dasharray="5,2" d="M737.66,-188.39C771.87,-184.36 814.2,-179.18 852,-174 857.75,-173.21 863.81,-172.34 869.76,-171.45"/>
<polygon fill="#9a32cd" stroke="#9a32cd" points="736.84,-184.96 727.31,-189.6 737.65,-191.91 736.84,-184.96"/>
<text text-anchor="middle" x="809.5" y="-187" font-family="Helvetica,sans-Serif" font-size="10.00"> indexes</text>
</g>
<!-- Node12 -->
<g id="node12" class="node">
<title>Node12</title>
<g id="a_node12"><a xlink:title=" ">
<polygon fill="white" stroke="#bfbfbf" points="616,-148.5 616,-167.5 724,-167.5 724,-148.5 616,-148.5"/>
<text text-anchor="middle" x="670" y="-155.5" font-family="Helvetica,sans-Serif" font-size="10.00">std::vector&lt; GLuint &gt;</text>
</a>
</g>
</g>
<!-- Node12&#45;&gt;Node9 -->
<g id="edge13" class="edge">
<title>Node12&#45;&gt;Node9</title>
<path fill="none" stroke="#9a32cd" stroke-dasharray="5,2" d="M734.09,-159.65C768.87,-160.58 812.82,-161.79 852,-163 857.74,-163.18 863.79,-163.37 869.74,-163.57"/>
<polygon fill="#9a32cd" stroke="#9a32cd" points="734.16,-156.15 724.07,-159.38 733.97,-163.14 734.16,-156.15"/>
<text text-anchor="middle" x="809.5" y="-166" font-family="Helvetica,sans-Serif" font-size="10.00"> locationsToDisable</text>
</g>
<!-- Node13 -->
<g id="node13" class="node">
<title>Node13</title>
<g id="a_node13"><a xlink:title=" ">
<polygon fill="white" stroke="#bfbfbf" points="608.5,-88.5 608.5,-129.5 731.5,-129.5 731.5,-88.5 608.5,-88.5"/>
<text text-anchor="start" x="616.5" y="-117.5" font-family="Helvetica,sans-Serif" font-size="10.00">std::unordered_map</text>
<text text-anchor="start" x="616.5" y="-106.5" font-family="Helvetica,sans-Serif" font-size="10.00">&lt; string, BufferGeometry</text>
<text text-anchor="middle" x="670" y="-95.5" font-family="Helvetica,sans-Serif" font-size="10.00">::AttributeData &gt;</text>
</a>
</g>
</g>
<!-- Node13&#45;&gt;Node9 -->
<g id="edge14" class="edge">
<title>Node13&#45;&gt;Node9</title>
<path fill="none" stroke="#9a32cd" stroke-dasharray="5,2" d="M741.98,-120.9C775.57,-127.1 816.1,-135.39 852,-145 862.97,-147.94 874.87,-151.83 885.08,-155.4"/>
<polygon fill="#9a32cd" stroke="#9a32cd" points="742.25,-117.39 731.79,-119.05 741,-124.28 742.25,-117.39"/>
<text text-anchor="middle" x="809.5" y="-148" font-family="Helvetica,sans-Serif" font-size="10.00"> attributes</text>
</g>
<!-- Node14 -->
<g id="node14" class="node">
<title>Node14</title>
<g id="a_node14"><a xlink:title="STL class.">
<polygon fill="white" stroke="#bfbfbf" points="408.5,-131.5 408.5,-150.5 468.5,-150.5 468.5,-131.5 408.5,-131.5"/>
<text text-anchor="middle" x="438.5" y="-138.5" font-family="Helvetica,sans-Serif" font-size="10.00">std::string</text>
</a>
</g>
</g>
<!-- Node14&#45;&gt;Node13 -->
<g id="edge15" class="edge">
<title>Node14&#45;&gt;Node13</title>
<path fill="none" stroke="#9a32cd" stroke-dasharray="5,2" d="M478.56,-135.55C514.15,-130.59 567.26,-123.19 608.36,-117.46"/>
<polygon fill="#9a32cd" stroke="#9a32cd" points="477.99,-132.1 468.57,-136.95 478.95,-139.03 477.99,-132.1"/>
<text text-anchor="middle" x="551.5" y="-130" font-family="Helvetica,sans-Serif" font-size="10.00"> keys</text>
</g>
<!-- Node15 -->
<g id="node15" class="node">
<title>Node15</title>
<g id="a_node15"><a xlink:title="STL class.">
<polygon fill="white" stroke="#bfbfbf" points="162,-127 162,-157 257,-157 257,-127 162,-127"/>
<text text-anchor="start" x="170" y="-145" font-family="Helvetica,sans-Serif" font-size="10.00">std::basic_string&lt;</text>
<text text-anchor="middle" x="209.5" y="-134" font-family="Helvetica,sans-Serif" font-size="10.00"> char &gt;</text>
</a>
</g>
</g>
<!-- Node15&#45;&gt;Node14 -->
<g id="edge16" class="edge">
<title>Node15&#45;&gt;Node14</title>
<path fill="none" stroke="midnightblue" d="M267.43,-141.75C312.29,-141.55 372.99,-141.28 408.43,-141.13"/>
<polygon fill="midnightblue" stroke="midnightblue" points="267.24,-138.25 257.26,-141.79 267.27,-145.25 267.24,-138.25"/>
</g>
<!-- Node16 -->
<g id="node16" class="node">
<title>Node16</title>
<g id="a_node16"><a xlink:href="struct_buffer_geometry_1_1_attribute_data.html" target="_top" xlink:title=" ">
<polygon fill="white" stroke="black" points="365,-90.5 365,-109.5 512,-109.5 512,-90.5 365,-90.5"/>
<text text-anchor="middle" x="438.5" y="-97.5" font-family="Helvetica,sans-Serif" font-size="10.00">BufferGeometry::AttributeData</text>
</a>
</g>
</g>
<!-- Node16&#45;&gt;Node13 -->
<g id="edge17" class="edge">
<title>Node16&#45;&gt;Node13</title>
<path fill="none" stroke="#9a32cd" stroke-dasharray="5,2" d="M522.56,-101.35C539.26,-101.77 556.7,-102.31 573,-103 584.43,-103.49 596.61,-104.14 608.33,-104.84"/>
<polygon fill="#9a32cd" stroke="#9a32cd" points="522.35,-97.85 512.27,-101.11 522.18,-104.84 522.35,-97.85"/>
<text text-anchor="middle" x="551.5" y="-106" font-family="Helvetica,sans-Serif" font-size="10.00"> elements</text>
</g>
<!-- Node17 -->
<g id="node17" class="node">
<title>Node17</title>
<g id="a_node17"><a xlink:title=" ">
<polygon fill="white" stroke="#bfbfbf" points="129,-88.5 129,-107.5 290,-107.5 290,-88.5 129,-88.5"/>
<text text-anchor="middle" x="209.5" y="-95.5" font-family="Helvetica,sans-Serif" font-size="10.00">std::unique_ptr&lt; BufferAttribute &gt;</text>
</a>
</g>
</g>
<!-- Node17&#45;&gt;Node16 -->
<g id="edge18" class="edge">
<title>Node17&#45;&gt;Node16</title>
<path fill="none" stroke="#9a32cd" stroke-dasharray="5,2" d="M300.28,-98.79C321.69,-98.98 344.28,-99.18 364.81,-99.36"/>
<polygon fill="#9a32cd" stroke="#9a32cd" points="300.24,-95.29 290.21,-98.7 300.18,-102.29 300.24,-95.29"/>
<text text-anchor="middle" x="327.5" y="-102" font-family="Helvetica,sans-Serif" font-size="10.00"> attribute</text>
</g>
<!-- Node18 -->
<g id="node18" class="node">
<title>Node18</title>
<g id="a_node18"><a xlink:href="class_buffer_attribute.html" target="_top" xlink:title=" ">
<polygon fill="white" stroke="black" points="0,-88.5 0,-107.5 78,-107.5 78,-88.5 0,-88.5"/>
<text text-anchor="middle" x="39" y="-95.5" font-family="Helvetica,sans-Serif" font-size="10.00">BufferAttribute</text>
</a>
</g>
</g>
<!-- Node18&#45;&gt;Node17 -->
<g id="edge19" class="edge">
<title>Node18&#45;&gt;Node17</title>
<path fill="none" stroke="#9a32cd" stroke-dasharray="5,2" d="M88.49,-98C101.09,-98 115.01,-98 128.77,-98"/>
<polygon fill="#9a32cd" stroke="#9a32cd" points="88.24,-94.5 78.24,-98 88.24,-101.5 88.24,-94.5"/>
<text text-anchor="middle" x="103.5" y="-101" font-family="Helvetica,sans-Serif" font-size="10.00"> ptr</text>
</g>
<!-- Node19 -->
<g id="node19" class="node">
<title>Node19</title>
<g id="a_node19"><a xlink:title=" ">
<polygon fill="white" stroke="#bfbfbf" points="1082.5,-101.5 1082.5,-120.5 1216.5,-120.5 1216.5,-101.5 1082.5,-101.5"/>
<text text-anchor="middle" x="1149.5" y="-108.5" font-family="Helvetica,sans-Serif" font-size="10.00">std::shared_ptr&lt; Material &gt;</text>
</a>
</g>
</g>
<!-- Node19&#45;&gt;Node1 -->
<g id="edge20" class="edge">
<title>Node19&#45;&gt;Node1</title>
<path fill="none" stroke="#9a32cd" stroke-dasharray="5,2" d="M1199.28,-123.21C1227.85,-131.16 1264.24,-142.72 1295,-157 1309.06,-163.53 1323.91,-173.15 1334.22,-180.33"/>
<polygon fill="#9a32cd" stroke="#9a32cd" points="1200.1,-119.8 1189.53,-120.54 1198.25,-126.55 1200.1,-119.8"/>
<text text-anchor="middle" x="1273" y="-160" font-family="Helvetica,sans-Serif" font-size="10.00"> material</text>
</g>
<!-- Node20 -->
<g id="node20" class="node">
<title>Node20</title>
<g id="a_node20"><a xlink:href="class_material.html" target="_top" xlink:title=" ">
<polygon fill="white" stroke="black" points="886.5,-44.5 886.5,-63.5 937.5,-63.5 937.5,-44.5 886.5,-44.5"/>
<text text-anchor="middle" x="912" y="-51.5" font-family="Helvetica,sans-Serif" font-size="10.00">Material</text>
</a>
</g>
</g>
<!-- Node20&#45;&gt;Node19 -->
<g id="edge21" class="edge">
<title>Node20&#45;&gt;Node19</title>
<path fill="none" stroke="#9a32cd" stroke-dasharray="5,2" d="M947.75,-62.41C990.73,-72.81 1063.74,-90.49 1108.87,-101.41"/>
<polygon fill="#9a32cd" stroke="#9a32cd" points="948.3,-58.94 937.76,-59.99 946.65,-65.75 948.3,-58.94"/>
<text text-anchor="middle" x="1010" y="-88" font-family="Helvetica,sans-Serif" font-size="10.00"> ptr</text>
</g>
<!-- Node21 -->
<g id="node21" class="node">
<title>Node21</title>
<g id="a_node21"><a xlink:title=" ">
<polygon fill="white" stroke="#bfbfbf" points="591,-39 591,-69 749,-69 749,-39 591,-39"/>
<text text-anchor="start" x="599" y="-57" font-family="Helvetica,sans-Serif" font-size="10.00">std::unique_ptr&lt; ShaderProgram</text>
<text text-anchor="middle" x="670" y="-46" font-family="Helvetica,sans-Serif" font-size="10.00">Compiler &gt;</text>
</a>
</g>
</g>
<!-- Node21&#45;&gt;Node20 -->
<g id="edge22" class="edge">
<title>Node21&#45;&gt;Node20</title>
<path fill="none" stroke="#9a32cd" stroke-dasharray="5,2" d="M759.43,-54C804.83,-54 856.72,-54 886.5,-54"/>
<polygon fill="#9a32cd" stroke="#9a32cd" points="759.25,-50.5 749.25,-54 759.25,-57.5 759.25,-50.5"/>
<text text-anchor="middle" x="809.5" y="-57" font-family="Helvetica,sans-Serif" font-size="10.00"> compiler</text>
</g>
<!-- Node22 -->
<g id="node22" class="node">
<title>Node22</title>
<g id="a_node22"><a xlink:href="class_shader_program_compiler.html" target="_top" xlink:title=" ">
<polygon fill="white" stroke="black" points="377.5,-44.5 377.5,-63.5 499.5,-63.5 499.5,-44.5 377.5,-44.5"/>
<text text-anchor="middle" x="438.5" y="-51.5" font-family="Helvetica,sans-Serif" font-size="10.00">ShaderProgramCompiler</text>
</a>
</g>
</g>
<!-- Node22&#45;&gt;Node21 -->
<g id="edge23" class="edge">
<title>Node22&#45;&gt;Node21</title>
<path fill="none" stroke="#9a32cd" stroke-dasharray="5,2" d="M509.82,-54C535.48,-54 564.65,-54 590.95,-54"/>
<polygon fill="#9a32cd" stroke="#9a32cd" points="509.8,-50.5 499.8,-54 509.8,-57.5 509.8,-50.5"/>
<text text-anchor="middle" x="551.5" y="-57" font-family="Helvetica,sans-Serif" font-size="10.00"> ptr</text>
</g>
<!-- Node23 -->
<g id="node23" class="node">
<title>Node23</title>
<g id="a_node23"><a xlink:title=" ">
<polygon fill="white" stroke="#bfbfbf" points="605,-0.5 605,-19.5 735,-19.5 735,-0.5 605,-0.5"/>
<text text-anchor="middle" x="670" y="-7.5" font-family="Helvetica,sans-Serif" font-size="10.00">std::unique_ptr&lt; Shader &gt;</text>
</a>
</g>
</g>
<!-- Node23&#45;&gt;Node20 -->
<g id="edge24" class="edge">
<title>Node23&#45;&gt;Node20</title>
<path fill="none" stroke="#9a32cd" stroke-dasharray="5,2" d="M745.32,-20.36C778.14,-25.34 817.12,-31.79 852,-39 863.38,-41.35 875.88,-44.45 886.43,-47.23"/>
<polygon fill="#9a32cd" stroke="#9a32cd" points="745.75,-16.89 735.34,-18.87 744.71,-23.81 745.75,-16.89"/>
<text text-anchor="middle" x="809.5" y="-42" font-family="Helvetica,sans-Serif" font-size="10.00"> shader</text>
</g>
<!-- Node24 -->
<g id="node24" class="node">
<title>Node24</title>
<g id="a_node24"><a xlink:href="class_shader.html" target="_top" xlink:title=" ">
<polygon fill="white" stroke="black" points="415,-0.5 415,-19.5 462,-19.5 462,-0.5 415,-0.5"/>
<text text-anchor="middle" x="438.5" y="-7.5" font-family="Helvetica,sans-Serif" font-size="10.00">Shader</text>
</a>
</g>
</g>
<!-- Node24&#45;&gt;Node23 -->
<g id="edge25" class="edge">
<title>Node24&#45;&gt;Node23</title>
<path fill="none" stroke="#9a32cd" stroke-dasharray="5,2" d="M472.77,-10C507.18,-10 561.8,-10 604.68,-10"/>
<polygon fill="#9a32cd" stroke="#9a32cd" points="472.34,-6.5 462.34,-10 472.34,-13.5 472.34,-6.5"/>
<text text-anchor="middle" x="551.5" y="-13" font-family="Helvetica,sans-Serif" font-size="10.00"> ptr</text>
</g>
</g>
</svg>
