<?xml version="1.0" encoding="UTF-8" standalone="no"?>
<!DOCTYPE svg PUBLIC "-//W3C//DTD SVG 1.1//EN"
 "http://www.w3.org/Graphics/SVG/1.1/DTD/svg11.dtd">
<!-- Generated by graphviz version 2.44.1 (20200629.0846)
 -->
<!-- Title: PostProcess Pages: 1 -->
<svg width="294pt" height="287pt"
 viewBox="0.00 0.00 293.50 287.00" xmlns="http://www.w3.org/2000/svg" xmlns:xlink="http://www.w3.org/1999/xlink">
<g id="graph0" class="graph" transform="scale(1 1) rotate(0) translate(4 283)">
<title>PostProcess</title>
<polygon fill="white" stroke="transparent" points="-4,4 -4,-283 289.5,-283 289.5,4 -4,4"/>
<!-- Node1 -->
<g id="node1" class="node">
<title>Node1</title>
<g id="a_node1"><a xlink:title=" ">
<polygon fill="#bfbfbf" stroke="black" points="99,-0.5 99,-19.5 172,-19.5 172,-0.5 99,-0.5"/>
<text text-anchor="middle" x="135.5" y="-7.5" font-family="Helvetica,sans-Serif" font-size="10.00">PostProcess</text>
</a>
</g>
</g>
<!-- Node2 -->
<g id="node2" class="node">
<title>Node2</title>
<g id="a_node2"><a xlink:href="class_final_post_process.html" target="_top" xlink:title=" ">
<polygon fill="white" stroke="black" points="88.5,-57.5 88.5,-76.5 182.5,-76.5 182.5,-57.5 88.5,-57.5"/>
<text text-anchor="middle" x="135.5" y="-64.5" font-family="Helvetica,sans-Serif" font-size="10.00">FinalPostProcess</text>
</a>
</g>
</g>
<!-- Node2&#45;&gt;Node1 -->
<g id="edge1" class="edge">
<title>Node2&#45;&gt;Node1</title>
<path fill="none" stroke="midnightblue" d="M135.5,-47.12C135.5,-37.82 135.5,-27.06 135.5,-19.71"/>
<polygon fill="midnightblue" stroke="midnightblue" points="132,-47.41 135.5,-57.41 139,-47.41 132,-47.41"/>
</g>
<!-- Node3 -->
<g id="node3" class="node">
<title>Node3</title>
<g id="a_node3"><a xlink:href="class_shader.html" target="_top" xlink:title=" ">
<polygon fill="white" stroke="black" points="0,-124.5 0,-143.5 47,-143.5 47,-124.5 0,-124.5"/>
<text text-anchor="middle" x="23.5" y="-131.5" font-family="Helvetica,sans-Serif" font-size="10.00">Shader</text>
</a>
</g>
</g>
<!-- Node3&#45;&gt;Node2 -->
<g id="edge2" class="edge">
<title>Node3&#45;&gt;Node2</title>
<path fill="none" stroke="#9a32cd" stroke-dasharray="5,2" d="M28,-114.87C30.59,-107.79 34.55,-100.15 40.5,-95 53.72,-83.55 71.49,-76.94 88.08,-73.13"/>
<polygon fill="#9a32cd" stroke="#9a32cd" points="24.63,-113.91 25.11,-124.49 31.34,-115.92 24.63,-113.91"/>
<text text-anchor="middle" x="85" y="-98" font-family="Helvetica,sans-Serif" font-size="10.00"> postProcessShader</text>
</g>
<!-- Node4 -->
<g id="node4" class="node">
<title>Node4</title>
<g id="a_node4"><a xlink:title=" ">
<polygon fill="white" stroke="#bfbfbf" points="67.5,-124.5 67.5,-143.5 199.5,-143.5 199.5,-124.5 67.5,-124.5"/>
<text text-anchor="middle" x="133.5" y="-131.5" font-family="Helvetica,sans-Serif" font-size="10.00">std::map&lt; string, uint8_t &gt;</text>
</a>
</g>
</g>
<!-- Node4&#45;&gt;Node2 -->
<g id="edge3" class="edge">
<title>Node4&#45;&gt;Node2</title>
<path fill="none" stroke="#9a32cd" stroke-dasharray="5,2" d="M134.08,-114.04C134.46,-101.67 134.94,-86.12 135.23,-76.63"/>
<polygon fill="#9a32cd" stroke="#9a32cd" points="130.58,-114.13 133.77,-124.23 137.58,-114.35 130.58,-114.13"/>
<text text-anchor="middle" x="154" y="-98" font-family="Helvetica,sans-Serif" font-size="10.00"> textures</text>
</g>
<!-- Node5 -->
<g id="node5" class="node">
<title>Node5</title>
<g id="a_node5"><a xlink:title="STL class.">
<polygon fill="white" stroke="#bfbfbf" points="103.5,-191.5 103.5,-210.5 163.5,-210.5 163.5,-191.5 103.5,-191.5"/>
<text text-anchor="middle" x="133.5" y="-198.5" font-family="Helvetica,sans-Serif" font-size="10.00">std::string</text>
</a>
</g>
</g>
<!-- Node5&#45;&gt;Node4 -->
<g id="edge4" class="edge">
<title>Node5&#45;&gt;Node4</title>
<path fill="none" stroke="#9a32cd" stroke-dasharray="5,2" d="M133.5,-181.04C133.5,-168.67 133.5,-153.12 133.5,-143.63"/>
<polygon fill="#9a32cd" stroke="#9a32cd" points="130,-181.23 133.5,-191.23 137,-181.23 130,-181.23"/>
<text text-anchor="middle" x="146" y="-165" font-family="Helvetica,sans-Serif" font-size="10.00"> keys</text>
</g>
<!-- Node6 -->
<g id="node6" class="node">
<title>Node6</title>
<g id="a_node6"><a xlink:title="STL class.">
<polygon fill="white" stroke="#bfbfbf" points="86,-248.5 86,-278.5 181,-278.5 181,-248.5 86,-248.5"/>
<text text-anchor="start" x="94" y="-266.5" font-family="Helvetica,sans-Serif" font-size="10.00">std::basic_string&lt;</text>
<text text-anchor="middle" x="133.5" y="-255.5" font-family="Helvetica,sans-Serif" font-size="10.00"> char &gt;</text>
</a>
</g>
</g>
<!-- Node6&#45;&gt;Node5 -->
<g id="edge5" class="edge">
<title>Node6&#45;&gt;Node5</title>
<path fill="none" stroke="midnightblue" d="M133.5,-238.35C133.5,-228.51 133.5,-217.78 133.5,-210.54"/>
<polygon fill="midnightblue" stroke="midnightblue" points="130,-238.47 133.5,-248.47 137,-238.47 130,-238.47"/>
</g>
<!-- Node7 -->
<g id="node7" class="node">
<title>Node7</title>
<g id="a_node7"><a xlink:href="class_vertex_array.html" target="_top" xlink:title=" ">
<polygon fill="white" stroke="black" points="217.5,-124.5 217.5,-143.5 285.5,-143.5 285.5,-124.5 217.5,-124.5"/>
<text text-anchor="middle" x="251.5" y="-131.5" font-family="Helvetica,sans-Serif" font-size="10.00">VertexArray</text>
</a>
</g>
</g>
<!-- Node7&#45;&gt;Node2 -->
<g id="edge6" class="edge">
<title>Node7&#45;&gt;Node2</title>
<path fill="none" stroke="#9a32cd" stroke-dasharray="5,2" d="M227.03,-119.29C204.04,-106.4 170.34,-87.52 150.9,-76.63"/>
<polygon fill="#9a32cd" stroke="#9a32cd" points="225.42,-122.4 235.86,-124.23 228.84,-116.29 225.42,-122.4"/>
<text text-anchor="middle" x="206" y="-98" font-family="Helvetica,sans-Serif" font-size="10.00"> va</text>
</g>
</g>
</svg>
