<?xml version="1.0" encoding="UTF-8" standalone="no"?>
<!DOCTYPE svg PUBLIC "-//W3C//DTD SVG 1.1//EN"
 "http://www.w3.org/Graphics/SVG/1.1/DTD/svg11.dtd">
<!-- Generated by graphviz version 2.40.1 (20161225.0304)
 -->
<!-- Title: OldRenderPass Pages: 1 -->
<svg width="264pt" height="84pt"
 viewBox="0.00 0.00 264.00 84.00" xmlns="http://www.w3.org/2000/svg" xmlns:xlink="http://www.w3.org/1999/xlink">
<g id="graph0" class="graph" transform="scale(1 1) rotate(0) translate(4 80)">
<title>OldRenderPass</title>
<polygon fill="#ffffff" stroke="transparent" points="-4,4 -4,-80 260,-80 260,4 -4,4"/>
<!-- Node0 -->
<g id="node1" class="node">
<title>Node0</title>
<polygon fill="#bfbfbf" stroke="#000000" points="105.5,-56.5 105.5,-75.5 191.5,-75.5 191.5,-56.5 105.5,-56.5"/>
<text text-anchor="middle" x="148.5" y="-63.5" font-family="Helvetica,sans-Serif" font-size="10.00" fill="#000000">OldRenderPass</text>
</g>
<!-- Node1 -->
<g id="node2" class="node">
<title>Node1</title>
<g id="a_node2"><a xlink:href="class_directional_shadow_map_rendering.html" target="_top" xlink:title="DirectionalShadowMapRendering">
<polygon fill="#ffffff" stroke="#000000" points="0,-.5 0,-19.5 161,-19.5 161,-.5 0,-.5"/>
<text text-anchor="middle" x="80.5" y="-7.5" font-family="Helvetica,sans-Serif" font-size="10.00" fill="#000000">DirectionalShadowMapRendering</text>
</a>
</g>
</g>
<!-- Node0&#45;&gt;Node1 -->
<g id="edge1" class="edge">
<title>Node0&#45;&gt;Node1</title>
<path fill="none" stroke="#191970" d="M128.6404,-49.645C116.8142,-39.9058 102.2108,-27.8795 92.209,-19.6427"/>
<polygon fill="#191970" stroke="#191970" points="126.711,-52.5902 136.6553,-56.2455 131.161,-47.1867 126.711,-52.5902"/>
</g>
<!-- Node2 -->
<g id="node3" class="node">
<title>Node2</title>
<g id="a_node3"><a xlink:href="class_main_renderer.html" target="_top" xlink:title="MainRenderer">
<polygon fill="#ffffff" stroke="#000000" points="179,-.5 179,-19.5 256,-19.5 256,-.5 179,-.5"/>
<text text-anchor="middle" x="217.5" y="-7.5" font-family="Helvetica,sans-Serif" font-size="10.00" fill="#000000">MainRenderer</text>
</a>
</g>
</g>
<!-- Node0&#45;&gt;Node2 -->
<g id="edge2" class="edge">
<title>Node0&#45;&gt;Node2</title>
<path fill="none" stroke="#191970" d="M168.303,-49.928C180.3636,-40.1397 195.3714,-27.9595 205.6188,-19.6427"/>
<polygon fill="#191970" stroke="#191970" points="166.0779,-47.2262 160.5189,-56.2455 170.4891,-52.6614 166.0779,-47.2262"/>
</g>
</g>
</svg>
