<?xml version="1.0" encoding="UTF-8" standalone="no"?>
<!DOCTYPE svg PUBLIC "-//W3C//DTD SVG 1.1//EN"
 "http://www.w3.org/Graphics/SVG/1.1/DTD/svg11.dtd">
<!-- Generated by graphviz version 2.40.1 (20161225.0304)
 -->
<!-- Title: PostProcess Pages: 1 -->
<svg width="294pt" height="287pt"
 viewBox="0.00 0.00 293.50 287.00" xmlns="http://www.w3.org/2000/svg" xmlns:xlink="http://www.w3.org/1999/xlink">
<g id="graph0" class="graph" transform="scale(1 1) rotate(0) translate(4 283)">
<title>PostProcess</title>
<polygon fill="#ffffff" stroke="transparent" points="-4,4 -4,-283 289.5,-283 289.5,4 -4,4"/>
<!-- Node2 -->
<g id="node1" class="node">
<title>Node2</title>
<polygon fill="#bfbfbf" stroke="#000000" points="99,-.5 99,-19.5 172,-19.5 172,-.5 99,-.5"/>
<text text-anchor="middle" x="135.5" y="-7.5" font-family="Helvetica,sans-Serif" font-size="10.00" fill="#000000">PostProcess</text>
</g>
<!-- Node3 -->
<g id="node2" class="node">
<title>Node3</title>
<g id="a_node2"><a xlink:href="class_final_post_process.html" target="_top" xlink:title="FinalPostProcess">
<polygon fill="#ffffff" stroke="#000000" points="88.5,-57.5 88.5,-76.5 182.5,-76.5 182.5,-57.5 88.5,-57.5"/>
<text text-anchor="middle" x="135.5" y="-64.5" font-family="Helvetica,sans-Serif" font-size="10.00" fill="#000000">FinalPostProcess</text>
</a>
</g>
</g>
<!-- Node3&#45;&gt;Node2 -->
<g id="edge1" class="edge">
<title>Node3&#45;&gt;Node2</title>
<path fill="none" stroke="#191970" d="M135.5,-47.2342C135.5,-37.8491 135.5,-27.0651 135.5,-19.5265"/>
<polygon fill="#191970" stroke="#191970" points="132.0001,-47.3307 135.5,-57.3307 139.0001,-47.3308 132.0001,-47.3307"/>
</g>
<!-- Node4 -->
<g id="node3" class="node">
<title>Node4</title>
<g id="a_node3"><a xlink:href="class_shader.html" target="_top" xlink:title="Shader">
<polygon fill="#ffffff" stroke="#000000" points="0,-124.5 0,-143.5 47,-143.5 47,-124.5 0,-124.5"/>
<text text-anchor="middle" x="23.5" y="-131.5" font-family="Helvetica,sans-Serif" font-size="10.00" fill="#000000">Shader</text>
</a>
</g>
</g>
<!-- Node4&#45;&gt;Node3 -->
<g id="edge2" class="edge">
<title>Node4&#45;&gt;Node3</title>
<path fill="none" stroke="#9a32cd" stroke-dasharray="5,2" d="M28.2115,-114.6198C30.795,-107.5887 34.6961,-100.1231 40.5,-95 48.2345,-88.1727 69.5919,-81.5937 90.1013,-76.5303"/>
<polygon fill="#9a32cd" stroke="#9a32cd" points="24.8326,-113.7024 25.3011,-124.2869 31.5354,-115.7205 24.8326,-113.7024"/>
<text text-anchor="middle" x="85" y="-98" font-family="Helvetica,sans-Serif" font-size="10.00" fill="#000000"> postProcessShader</text>
</g>
<!-- Node5 -->
<g id="node4" class="node">
<title>Node5</title>
<polygon fill="#ffffff" stroke="#bfbfbf" points="67.5,-124.5 67.5,-143.5 199.5,-143.5 199.5,-124.5 67.5,-124.5"/>
<text text-anchor="middle" x="133.5" y="-131.5" font-family="Helvetica,sans-Serif" font-size="10.00" fill="#000000">std::map&lt; string, uint8_t &gt;</text>
</g>
<!-- Node5&#45;&gt;Node3 -->
<g id="edge3" class="edge">
<title>Node5&#45;&gt;Node3</title>
<path fill="none" stroke="#9a32cd" stroke-dasharray="5,2" d="M134.0938,-114.1079C134.4638,-101.714 134.9231,-86.3263 135.214,-76.5817"/>
<polygon fill="#9a32cd" stroke="#9a32cd" points="130.5866,-114.3005 133.7866,-124.4005 137.5835,-114.5094 130.5866,-114.3005"/>
<text text-anchor="middle" x="154" y="-98" font-family="Helvetica,sans-Serif" font-size="10.00" fill="#000000"> textures</text>
</g>
<!-- Node6 -->
<g id="node5" class="node">
<title>Node6</title>
<g id="a_node5"><a xlink:title="STL class. ">
<polygon fill="#ffffff" stroke="#bfbfbf" points="103.5,-191.5 103.5,-210.5 163.5,-210.5 163.5,-191.5 103.5,-191.5"/>
<text text-anchor="middle" x="133.5" y="-198.5" font-family="Helvetica,sans-Serif" font-size="10.00" fill="#000000">std::string</text>
</a>
</g>
</g>
<!-- Node6&#45;&gt;Node5 -->
<g id="edge4" class="edge">
<title>Node6&#45;&gt;Node5</title>
<path fill="none" stroke="#9a32cd" stroke-dasharray="5,2" d="M133.5,-181.1079C133.5,-168.714 133.5,-153.3263 133.5,-143.5817"/>
<polygon fill="#9a32cd" stroke="#9a32cd" points="130.0001,-181.4005 133.5,-191.4005 137.0001,-181.4006 130.0001,-181.4005"/>
<text text-anchor="middle" x="146" y="-165" font-family="Helvetica,sans-Serif" font-size="10.00" fill="#000000"> keys</text>
</g>
<!-- Node7 -->
<g id="node6" class="node">
<title>Node7</title>
<g id="a_node6"><a xlink:title="STL class. ">
<polygon fill="#ffffff" stroke="#bfbfbf" points="86,-248.5 86,-278.5 181,-278.5 181,-248.5 86,-248.5"/>
<text text-anchor="start" x="94" y="-266.5" font-family="Helvetica,sans-Serif" font-size="10.00" fill="#000000">std::basic_string&lt;</text>
<text text-anchor="middle" x="133.5" y="-255.5" font-family="Helvetica,sans-Serif" font-size="10.00" fill="#000000"> char &gt;</text>
</a>
</g>
</g>
<!-- Node7&#45;&gt;Node6 -->
<g id="edge5" class="edge">
<title>Node7&#45;&gt;Node6</title>
<path fill="none" stroke="#191970" d="M133.5,-238.3498C133.5,-228.6481 133.5,-218.1303 133.5,-210.7356"/>
<polygon fill="#191970" stroke="#191970" points="130.0001,-238.3705 133.5,-248.3705 137.0001,-238.3705 130.0001,-238.3705"/>
</g>
<!-- Node8 -->
<g id="node7" class="node">
<title>Node8</title>
<g id="a_node7"><a xlink:href="class_vertex_array.html" target="_top" xlink:title="VertexArray">
<polygon fill="#ffffff" stroke="#000000" points="217.5,-124.5 217.5,-143.5 285.5,-143.5 285.5,-124.5 217.5,-124.5"/>
<text text-anchor="middle" x="251.5" y="-131.5" font-family="Helvetica,sans-Serif" font-size="10.00" fill="#000000">VertexArray</text>
</a>
</g>
</g>
<!-- Node8&#45;&gt;Node3 -->
<g id="edge6" class="edge">
<title>Node8&#45;&gt;Node3</title>
<path fill="none" stroke="#9a32cd" stroke-dasharray="5,2" d="M226.1957,-119.3846C203.6994,-106.391 171.4568,-87.7681 152.0891,-76.5817"/>
<polygon fill="#9a32cd" stroke="#9a32cd" points="224.4701,-122.4297 234.88,-124.4005 227.9712,-116.3682 224.4701,-122.4297"/>
<text text-anchor="middle" x="206.5" y="-98" font-family="Helvetica,sans-Serif" font-size="10.00" fill="#000000"> va</text>
</g>
</g>
</svg>
