<?xml version="1.0" encoding="UTF-8" standalone="no"?>
<!DOCTYPE svg PUBLIC "-//W3C//DTD SVG 1.1//EN"
 "http://www.w3.org/Graphics/SVG/1.1/DTD/svg11.dtd">
<!-- Generated by graphviz version 2.44.1 (20200629.0846)
 -->
<!-- Title: Camera Pages: 1 -->
<svg width="417pt" height="240pt"
 viewBox="0.00 0.00 417.00 240.00" xmlns="http://www.w3.org/2000/svg" xmlns:xlink="http://www.w3.org/1999/xlink">
<g id="graph0" class="graph" transform="scale(1 1) rotate(0) translate(4 236)">
<title>Camera</title>
<polygon fill="white" stroke="transparent" points="-4,4 -4,-236 413,-236 413,4 -4,4"/>
<!-- Node1 -->
<g id="node1" class="node">
<title>Node1</title>
<g id="a_node1"><a xlink:title=" ">
<polygon fill="#bfbfbf" stroke="black" points="193,-0.5 193,-19.5 243,-19.5 243,-0.5 193,-0.5"/>
<text text-anchor="middle" x="218" y="-7.5" font-family="Helvetica,sans-Serif" font-size="10.00">Camera</text>
</a>
</g>
</g>
<!-- Node2 -->
<g id="node2" class="node">
<title>Node2</title>
<g id="a_node2"><a xlink:href="class_entity.html" target="_top" xlink:title=" ">
<polygon fill="white" stroke="black" points="106,-73 106,-92 148,-92 148,-73 106,-73"/>
<text text-anchor="middle" x="127" y="-80" font-family="Helvetica,sans-Serif" font-size="10.00">Entity</text>
</a>
</g>
</g>
<!-- Node2&#45;&gt;Node1 -->
<g id="edge1" class="edge">
<title>Node2&#45;&gt;Node1</title>
<path fill="none" stroke="midnightblue" d="M146.39,-66.47C164.76,-52.25 191.69,-31.38 206.75,-19.72"/>
<polygon fill="midnightblue" stroke="midnightblue" points="143.92,-63.96 138.16,-72.86 148.21,-69.5 143.92,-63.96"/>
</g>
<!-- Node3 -->
<g id="node3" class="node">
<title>Node3</title>
<g id="a_node3"><a xlink:title=" ">
<polygon fill="white" stroke="#bfbfbf" points="0,-145.5 0,-164.5 142,-164.5 142,-145.5 0,-145.5"/>
<text text-anchor="middle" x="71" y="-152.5" font-family="Helvetica,sans-Serif" font-size="10.00">std::unique_ptr&lt; Transform &gt;</text>
</a>
</g>
</g>
<!-- Node3&#45;&gt;Node2 -->
<g id="edge2" class="edge">
<title>Node3&#45;&gt;Node2</title>
<path fill="none" stroke="#9a32cd" stroke-dasharray="5,2" d="M84.19,-137.4C95.43,-123.24 111.15,-103.46 120.08,-92.22"/>
<polygon fill="#9a32cd" stroke="#9a32cd" points="81.35,-135.35 77.87,-145.36 86.83,-139.7 81.35,-135.35"/>
<text text-anchor="middle" x="123" y="-119" font-family="Helvetica,sans-Serif" font-size="10.00"> transform</text>
</g>
<!-- Node4 -->
<g id="node4" class="node">
<title>Node4</title>
<g id="a_node4"><a xlink:href="class_transform.html" target="_top" xlink:title=" ">
<polygon fill="white" stroke="black" points="129.5,-212.5 129.5,-231.5 188.5,-231.5 188.5,-212.5 129.5,-212.5"/>
<text text-anchor="middle" x="159" y="-219.5" font-family="Helvetica,sans-Serif" font-size="10.00">Transform</text>
</a>
</g>
</g>
<!-- Node4&#45;&gt;Node3 -->
<g id="edge3" class="edge">
<title>Node4&#45;&gt;Node3</title>
<path fill="none" stroke="#9a32cd" stroke-dasharray="5,2" d="M138.78,-206.07C121.41,-193.24 96.97,-175.19 82.68,-164.63"/>
<polygon fill="#9a32cd" stroke="#9a32cd" points="137.01,-209.11 147.13,-212.23 141.17,-203.48 137.01,-209.11"/>
<text text-anchor="middle" x="128.5" y="-186" font-family="Helvetica,sans-Serif" font-size="10.00"> ptr</text>
</g>
<!-- Node4&#45;&gt;Node4 -->
<g id="edge6" class="edge">
<title>Node4&#45;&gt;Node4</title>
<path fill="none" stroke="#9a32cd" stroke-dasharray="5,2" d="M198.67,-227.16C203.41,-226.22 206.5,-224.5 206.5,-222 206.5,-218 198.58,-216 188.69,-216"/>
<polygon fill="#9a32cd" stroke="#9a32cd" points="198.36,-223.67 188.69,-228 198.95,-230.65 198.36,-223.67"/>
<text text-anchor="middle" x="222" y="-219.5" font-family="Helvetica,sans-Serif" font-size="10.00"> parent</text>
</g>
<!-- Node5 -->
<g id="node5" class="node">
<title>Node5</title>
<g id="a_node5"><a xlink:title=" ">
<polygon fill="white" stroke="#bfbfbf" points="160.5,-145.5 160.5,-164.5 289.5,-164.5 289.5,-145.5 160.5,-145.5"/>
<text text-anchor="middle" x="225" y="-152.5" font-family="Helvetica,sans-Serif" font-size="10.00">std::vector&lt; Transform * &gt;</text>
</a>
</g>
</g>
<!-- Node4&#45;&gt;Node5 -->
<g id="edge5" class="edge">
<title>Node4&#45;&gt;Node5</title>
<path fill="none" stroke="#9a32cd" stroke-dasharray="5,2" d="M152.89,-202.19C151.9,-195.63 152.22,-188.53 156,-183 161.87,-174.39 170.94,-168.53 180.59,-164.54"/>
<polygon fill="#9a32cd" stroke="#9a32cd" points="149.61,-203.5 155.43,-212.35 156.41,-201.8 149.61,-203.5"/>
<text text-anchor="middle" x="177.5" y="-186" font-family="Helvetica,sans-Serif" font-size="10.00"> elements</text>
</g>
<!-- Node5&#45;&gt;Node4 -->
<g id="edge4" class="edge">
<title>Node5&#45;&gt;Node4</title>
<path fill="none" stroke="#9a32cd" stroke-dasharray="5,2" d="M217.02,-173.86C213.4,-180.68 208.65,-188.21 203,-194 195.74,-201.44 186.03,-207.69 177.57,-212.29"/>
<polygon fill="#9a32cd" stroke="#9a32cd" points="220.27,-175.17 221.49,-164.65 213.97,-172.12 220.27,-175.17"/>
<text text-anchor="middle" x="230.5" y="-186" font-family="Helvetica,sans-Serif" font-size="10.00"> children</text>
</g>
<!-- Node6 -->
<g id="node6" class="node">
<title>Node6</title>
<g id="a_node6"><a xlink:href="class_i_camera.html" target="_top" xlink:title=" ">
<polygon fill="white" stroke="black" points="191.5,-73 191.5,-92 244.5,-92 244.5,-73 191.5,-73"/>
<text text-anchor="middle" x="218" y="-80" font-family="Helvetica,sans-Serif" font-size="10.00">ICamera</text>
</a>
</g>
</g>
<!-- Node6&#45;&gt;Node1 -->
<g id="edge7" class="edge">
<title>Node6&#45;&gt;Node1</title>
<path fill="none" stroke="midnightblue" d="M218,-62.44C218,-48.53 218,-30.32 218,-19.72"/>
<polygon fill="midnightblue" stroke="midnightblue" points="214.5,-62.86 218,-72.86 221.5,-62.86 214.5,-62.86"/>
</g>
<!-- Node7 -->
<g id="node7" class="node">
<title>Node7</title>
<g id="a_node7"><a xlink:title=" ">
<polygon fill="white" stroke="#bfbfbf" points="275,-67.5 275,-97.5 409,-97.5 409,-67.5 275,-67.5"/>
<text text-anchor="start" x="283" y="-85.5" font-family="Helvetica,sans-Serif" font-size="10.00">std::unique_ptr&lt; Projection</text>
<text text-anchor="middle" x="342" y="-74.5" font-family="Helvetica,sans-Serif" font-size="10.00">Data &gt;</text>
</a>
</g>
</g>
<!-- Node7&#45;&gt;Node1 -->
<g id="edge8" class="edge">
<title>Node7&#45;&gt;Node1</title>
<path fill="none" stroke="#9a32cd" stroke-dasharray="5,2" d="M308.2,-62.28C283.63,-48.31 251.54,-30.07 233.01,-19.53"/>
<polygon fill="#9a32cd" stroke="#9a32cd" points="306.78,-65.5 317.2,-67.4 310.24,-59.42 306.78,-65.5"/>
<text text-anchor="middle" x="317" y="-41" font-family="Helvetica,sans-Serif" font-size="10.00"> projectionData</text>
</g>
<!-- Node8 -->
<g id="node8" class="node">
<title>Node8</title>
<g id="a_node8"><a xlink:href="class_projection_data.html" target="_top" xlink:title=" ">
<polygon fill="white" stroke="black" points="308,-145.5 308,-164.5 388,-164.5 388,-145.5 308,-145.5"/>
<text text-anchor="middle" x="348" y="-152.5" font-family="Helvetica,sans-Serif" font-size="10.00">ProjectionData</text>
</a>
</g>
</g>
<!-- Node8&#45;&gt;Node7 -->
<g id="edge9" class="edge">
<title>Node8&#45;&gt;Node7</title>
<path fill="none" stroke="#9a32cd" stroke-dasharray="5,2" d="M346.4,-135.24C345.4,-123.41 344.12,-108.38 343.2,-97.58"/>
<polygon fill="#9a32cd" stroke="#9a32cd" points="342.93,-135.69 347.26,-145.36 349.9,-135.09 342.93,-135.69"/>
<text text-anchor="middle" x="353.5" y="-119" font-family="Helvetica,sans-Serif" font-size="10.00"> ptr</text>
</g>
</g>
</svg>
