<?xml version="1.0" encoding="UTF-8" standalone="no"?>
<!DOCTYPE svg PUBLIC "-//W3C//DTD SVG 1.1//EN"
 "http://www.w3.org/Graphics/SVG/1.1/DTD/svg11.dtd">
<!-- Generated by graphviz version 2.44.1 (20200629.0846)
 -->
<!-- Title: Renderer::renderObject Pages: 1 -->
<svg width="654pt" height="481pt"
 viewBox="0.00 0.00 654.00 481.00" xmlns="http://www.w3.org/2000/svg" xmlns:xlink="http://www.w3.org/1999/xlink">
<g id="graph0" class="graph" transform="scale(1 1) rotate(0) translate(4 477)">
<title>Renderer::renderObject</title>
<polygon fill="white" stroke="transparent" points="-4,4 -4,-477 650,-477 650,4 -4,4"/>
<!-- Node1 -->
<g id="node1" class="node">
<title>Node1</title>
<g id="a_node1"><a xlink:title=" ">
<polygon fill="#bfbfbf" stroke="black" points="0,-241.5 0,-260.5 117,-260.5 117,-241.5 0,-241.5"/>
<text text-anchor="middle" x="58.5" y="-248.5" font-family="Helvetica,sans-Serif" font-size="10.00">Renderer::renderObject</text>
</a>
</g>
</g>
<!-- Node2 -->
<g id="node2" class="node">
<title>Node2</title>
<g id="a_node2"><a xlink:href="class_object3_d.html#add236be584240de0df808f4a656572c4" target="_top" xlink:title=" ">
<polygon fill="white" stroke="black" points="170.5,-453.5 170.5,-472.5 282.5,-472.5 282.5,-453.5 170.5,-453.5"/>
<text text-anchor="middle" x="226.5" y="-460.5" font-family="Helvetica,sans-Serif" font-size="10.00">Object3D::getChildren</text>
</a>
</g>
</g>
<!-- Node1&#45;&gt;Node2 -->
<g id="edge1" class="edge">
<title>Node1&#45;&gt;Node2</title>
<path fill="none" stroke="midnightblue" d="M61.25,-260.79C67.47,-292.53 91.45,-393.41 153,-444 155.56,-446.11 158.34,-447.98 161.25,-449.65"/>
<polygon fill="midnightblue" stroke="midnightblue" points="159.82,-452.85 170.35,-454.07 162.88,-446.55 159.82,-452.85"/>
</g>
<!-- Node3 -->
<g id="node3" class="node">
<title>Node3</title>
<g id="a_node3"><a xlink:href="class_mesh.html#aecffca8fb03133d4c17187203cd0266c" target="_top" xlink:title=" ">
<polygon fill="white" stroke="black" points="179,-415.5 179,-434.5 274,-434.5 274,-415.5 179,-415.5"/>
<text text-anchor="middle" x="226.5" y="-422.5" font-family="Helvetica,sans-Serif" font-size="10.00">Mesh::getMaterial</text>
</a>
</g>
</g>
<!-- Node1&#45;&gt;Node3 -->
<g id="edge2" class="edge">
<title>Node1&#45;&gt;Node3</title>
<path fill="none" stroke="midnightblue" d="M62.48,-260.78C71.37,-288.25 100.4,-366.66 153,-406 157.87,-409.64 163.38,-412.59 169.14,-414.97"/>
<polygon fill="midnightblue" stroke="midnightblue" points="168.39,-418.42 178.98,-418.48 170.74,-411.83 168.39,-418.42"/>
</g>
<!-- Node4 -->
<g id="node4" class="node">
<title>Node4</title>
<g id="a_node4"><a xlink:href="class_camera.html#afa63fa057ff14d083a1fc909c714a193" target="_top" xlink:title=" ">
<polygon fill="white" stroke="black" points="156.5,-377.5 156.5,-396.5 296.5,-396.5 296.5,-377.5 156.5,-377.5"/>
<text text-anchor="middle" x="226.5" y="-384.5" font-family="Helvetica,sans-Serif" font-size="10.00">Camera::getProjectionMatrix</text>
</a>
</g>
</g>
<!-- Node1&#45;&gt;Node4 -->
<g id="edge3" class="edge">
<title>Node1&#45;&gt;Node4</title>
<path fill="none" stroke="midnightblue" d="M64.35,-260.6C76.21,-283.08 108.96,-339.37 153,-368 156.19,-370.07 159.59,-371.92 163.12,-373.56"/>
<polygon fill="midnightblue" stroke="midnightblue" points="162.12,-376.93 172.7,-377.47 164.76,-370.45 162.12,-376.93"/>
</g>
<!-- Node5 -->
<g id="node5" class="node">
<title>Node5</title>
<g id="a_node5"><a xlink:href="class_rendering_state.html#aeed41975ad27a7047fbd53de0bf8bffe" target="_top" xlink:title=" ">
<polygon fill="white" stroke="black" points="165.5,-339.5 165.5,-358.5 287.5,-358.5 287.5,-339.5 165.5,-339.5"/>
<text text-anchor="middle" x="226.5" y="-346.5" font-family="Helvetica,sans-Serif" font-size="10.00">RenderingState::getSide</text>
</a>
</g>
</g>
<!-- Node1&#45;&gt;Node5 -->
<g id="edge4" class="edge">
<title>Node1&#45;&gt;Node5</title>
<path fill="none" stroke="midnightblue" d="M68.04,-260.6C83.38,-277.25 117.35,-311.49 153,-330 157.5,-332.34 162.32,-334.41 167.24,-336.23"/>
<polygon fill="midnightblue" stroke="midnightblue" points="166.21,-339.57 176.8,-339.44 168.44,-332.94 166.21,-339.57"/>
</g>
<!-- Node6 -->
<g id="node6" class="node">
<title>Node6</title>
<g id="a_node6"><a xlink:href="class_camera.html#ac41a74ed5e232d5506808006b31982e1" target="_top" xlink:title=" ">
<polygon fill="white" stroke="black" points="167.5,-301.5 167.5,-320.5 285.5,-320.5 285.5,-301.5 167.5,-301.5"/>
<text text-anchor="middle" x="226.5" y="-308.5" font-family="Helvetica,sans-Serif" font-size="10.00">Camera::getViewMatrix</text>
</a>
</g>
</g>
<!-- Node1&#45;&gt;Node6 -->
<g id="edge5" class="edge">
<title>Node1&#45;&gt;Node6</title>
<path fill="none" stroke="midnightblue" d="M78.84,-260.55C97.51,-269.51 126.72,-282.86 153,-292 159.93,-294.41 167.32,-296.68 174.64,-298.75"/>
<polygon fill="midnightblue" stroke="midnightblue" points="173.95,-302.19 184.52,-301.46 175.79,-295.44 173.95,-302.19"/>
</g>
<!-- Node7 -->
<g id="node7" class="node">
<title>Node7</title>
<g id="a_node7"><a xlink:href="class_object3_d.html#a1282f3d1bc1eac2d428f7183ffd0311b" target="_top" xlink:title=" ">
<polygon fill="white" stroke="black" points="158,-263.5 158,-282.5 295,-282.5 295,-263.5 158,-263.5"/>
<text text-anchor="middle" x="226.5" y="-270.5" font-family="Helvetica,sans-Serif" font-size="10.00">Object3D::getWorldPosition</text>
</a>
</g>
</g>
<!-- Node1&#45;&gt;Node7 -->
<g id="edge6" class="edge">
<title>Node1&#45;&gt;Node7</title>
<path fill="none" stroke="midnightblue" d="M117.09,-258.63C126.93,-259.94 137.28,-261.31 147.54,-262.67"/>
<polygon fill="midnightblue" stroke="midnightblue" points="147.37,-266.18 157.74,-264.02 148.28,-259.24 147.37,-266.18"/>
</g>
<!-- Node10 -->
<g id="node10" class="node">
<title>Node10</title>
<g id="a_node10"><a xlink:href="class_rendering_state.html#a18fd46cb3589363bacb3fe8c43717a11" target="_top" xlink:title=" ">
<polygon fill="white" stroke="black" points="156,-214 156,-244 297,-244 297,-214 156,-214"/>
<text text-anchor="start" x="164" y="-232" font-family="Helvetica,sans-Serif" font-size="10.00">RenderingState::isDepthTest</text>
<text text-anchor="middle" x="226.5" y="-221" font-family="Helvetica,sans-Serif" font-size="10.00">Enabled</text>
</a>
</g>
</g>
<!-- Node1&#45;&gt;Node10 -->
<g id="edge10" class="edge">
<title>Node1&#45;&gt;Node10</title>
<path fill="none" stroke="midnightblue" d="M117.09,-243.37C126.34,-242.14 136.05,-240.86 145.7,-239.58"/>
<polygon fill="midnightblue" stroke="midnightblue" points="146.26,-243.03 155.71,-238.25 145.34,-236.09 146.26,-243.03"/>
</g>
<!-- Node11 -->
<g id="node11" class="node">
<title>Node11</title>
<g id="a_node11"><a xlink:href="class_rendering_state.html#a146f2037a5c55a8e2a7b2b5c9e111aa7" target="_top" xlink:title=" ">
<polygon fill="white" stroke="black" points="153.5,-165 153.5,-195 299.5,-195 299.5,-165 153.5,-165"/>
<text text-anchor="start" x="161.5" y="-183" font-family="Helvetica,sans-Serif" font-size="10.00">RenderingState::isDepthWrite</text>
<text text-anchor="middle" x="226.5" y="-172" font-family="Helvetica,sans-Serif" font-size="10.00">Enabled</text>
</a>
</g>
</g>
<!-- Node1&#45;&gt;Node11 -->
<g id="edge11" class="edge">
<title>Node1&#45;&gt;Node11</title>
<path fill="none" stroke="midnightblue" d="M77.46,-241.32C96.06,-231.51 126.11,-216.2 153,-205 158.35,-202.77 163.99,-200.58 169.64,-198.47"/>
<polygon fill="midnightblue" stroke="midnightblue" points="170.95,-201.72 179.15,-195.01 168.56,-195.14 170.95,-201.72"/>
</g>
<!-- Node12 -->
<g id="node12" class="node">
<title>Node12</title>
<g id="a_node12"><a xlink:href="class_object3_d.html#abaa0d30b4a47aea16646a0202586b1e4" target="_top" xlink:title=" ">
<polygon fill="white" stroke="black" points="176.5,-126.5 176.5,-145.5 276.5,-145.5 276.5,-126.5 176.5,-126.5"/>
<text text-anchor="middle" x="226.5" y="-133.5" font-family="Helvetica,sans-Serif" font-size="10.00">Object3D::isVisible</text>
</a>
</g>
</g>
<!-- Node1&#45;&gt;Node12 -->
<g id="edge12" class="edge">
<title>Node1&#45;&gt;Node12</title>
<path fill="none" stroke="midnightblue" d="M66.27,-241.28C80.21,-222.02 114.09,-178.86 153,-156 157.46,-153.38 162.27,-151.09 167.23,-149.1"/>
<polygon fill="midnightblue" stroke="midnightblue" points="168.66,-152.3 176.87,-145.61 166.27,-145.72 168.66,-152.3"/>
</g>
<!-- Node13 -->
<g id="node13" class="node">
<title>Node13</title>
<g id="a_node13"><a xlink:href="class_rendering_state.html#a018f7b1d53aec7938e1387c2002c526c" target="_top" xlink:title=" ">
<polygon fill="white" stroke="black" points="153,-88.5 153,-107.5 300,-107.5 300,-88.5 153,-88.5"/>
<text text-anchor="middle" x="226.5" y="-95.5" font-family="Helvetica,sans-Serif" font-size="10.00">RenderingState::setDepthTest</text>
</a>
</g>
</g>
<!-- Node1&#45;&gt;Node13 -->
<g id="edge13" class="edge">
<title>Node1&#45;&gt;Node13</title>
<path fill="none" stroke="midnightblue" d="M63.32,-241.49C73.73,-216.82 105.07,-150.43 153,-117 155.86,-115 158.92,-113.22 162.1,-111.62"/>
<polygon fill="midnightblue" stroke="midnightblue" points="163.56,-114.8 171.33,-107.59 160.77,-108.38 163.56,-114.8"/>
</g>
<!-- Node14 -->
<g id="node14" class="node">
<title>Node14</title>
<g id="a_node14"><a xlink:href="class_rendering_state.html#a2febc5778dc60f6bd1f0cb2019b68319" target="_top" xlink:title=" ">
<polygon fill="white" stroke="black" points="162.5,-39 162.5,-69 290.5,-69 290.5,-39 162.5,-39"/>
<text text-anchor="start" x="170.5" y="-57" font-family="Helvetica,sans-Serif" font-size="10.00">RenderingState::setDepth</text>
<text text-anchor="middle" x="226.5" y="-46" font-family="Helvetica,sans-Serif" font-size="10.00">Write</text>
</a>
</g>
</g>
<!-- Node1&#45;&gt;Node14 -->
<g id="edge14" class="edge">
<title>Node1&#45;&gt;Node14</title>
<path fill="none" stroke="midnightblue" d="M62.08,-241.22C70.24,-212.14 98.26,-125.34 153,-79 155,-77.31 157.12,-75.73 159.33,-74.25"/>
<polygon fill="midnightblue" stroke="midnightblue" points="161.37,-77.12 168.25,-69.06 157.85,-71.07 161.37,-77.12"/>
</g>
<!-- Node15 -->
<g id="node15" class="node">
<title>Node15</title>
<g id="a_node15"><a xlink:href="class_rendering_state.html#a0aad7ee74dfb460afea02d266a120fce" target="_top" xlink:title=" ">
<polygon fill="white" stroke="black" points="165.5,-0.5 165.5,-19.5 287.5,-19.5 287.5,-0.5 165.5,-0.5"/>
<text text-anchor="middle" x="226.5" y="-7.5" font-family="Helvetica,sans-Serif" font-size="10.00">RenderingState::setSide</text>
</a>
</g>
</g>
<!-- Node1&#45;&gt;Node15 -->
<g id="edge15" class="edge">
<title>Node1&#45;&gt;Node15</title>
<path fill="none" stroke="midnightblue" d="M60.57,-241.25C64.93,-206.62 84.43,-88.45 153,-29 154.8,-27.44 156.71,-26.01 158.71,-24.69"/>
<polygon fill="midnightblue" stroke="midnightblue" points="160.86,-27.5 167.95,-19.63 157.5,-21.36 160.86,-27.5"/>
</g>
<!-- Node8 -->
<g id="node8" class="node">
<title>Node8</title>
<g id="a_node8"><a xlink:href="class_object3_d.html#a550760d083917c13f981f6ac4bcfd167" target="_top" xlink:title=" ">
<polygon fill="white" stroke="black" points="347.5,-263.5 347.5,-282.5 473.5,-282.5 473.5,-263.5 347.5,-263.5"/>
<text text-anchor="middle" x="410.5" y="-270.5" font-family="Helvetica,sans-Serif" font-size="10.00">Object3D::updateParents</text>
</a>
</g>
</g>
<!-- Node7&#45;&gt;Node8 -->
<g id="edge7" class="edge">
<title>Node7&#45;&gt;Node8</title>
<path fill="none" stroke="midnightblue" d="M295.01,-273C308.77,-273 323.29,-273 337.21,-273"/>
<polygon fill="midnightblue" stroke="midnightblue" points="337.22,-276.5 347.22,-273 337.22,-269.5 337.22,-276.5"/>
</g>
<!-- Node8&#45;&gt;Node8 -->
<g id="edge9" class="edge">
<title>Node8&#45;&gt;Node8</title>
<path fill="none" stroke="midnightblue" d="M383.99,-282.76C371.09,-291.57 379.93,-301 410.5,-301 431.04,-301 441.77,-296.74 442.69,-291.27"/>
<polygon fill="midnightblue" stroke="midnightblue" points="445.47,-289.14 437.01,-282.76 439.64,-293.02 445.47,-289.14"/>
</g>
<!-- Node9 -->
<g id="node9" class="node">
<title>Node9</title>
<g id="a_node9"><a xlink:href="class_object3_d.html#abc681f1051acec39dd995a1bab816eba" target="_top" xlink:title=" ">
<polygon fill="white" stroke="black" points="521,-258 521,-288 646,-288 646,-258 521,-258"/>
<text text-anchor="start" x="529" y="-276" font-family="Helvetica,sans-Serif" font-size="10.00">Object3D::calculateLocal</text>
<text text-anchor="middle" x="583.5" y="-265" font-family="Helvetica,sans-Serif" font-size="10.00">Transform</text>
</a>
</g>
</g>
<!-- Node8&#45;&gt;Node9 -->
<g id="edge8" class="edge">
<title>Node8&#45;&gt;Node9</title>
<path fill="none" stroke="midnightblue" d="M473.72,-273C485.73,-273 498.41,-273 510.69,-273"/>
<polygon fill="midnightblue" stroke="midnightblue" points="510.9,-276.5 520.9,-273 510.9,-269.5 510.9,-276.5"/>
</g>
<!-- Node16 -->
<g id="node16" class="node">
<title>Node16</title>
<g id="a_node16"><a xlink:href="class_rendering_state.html#aa4ff3c107d673ad86b3f38cd250e08b6" target="_top" xlink:title=" ">
<polygon fill="white" stroke="black" points="336,-0.5 336,-19.5 485,-19.5 485,-0.5 336,-0.5"/>
<text text-anchor="middle" x="410.5" y="-7.5" font-family="Helvetica,sans-Serif" font-size="10.00">RenderingState::updateToSide</text>
</a>
</g>
</g>
<!-- Node15&#45;&gt;Node16 -->
<g id="edge16" class="edge">
<title>Node15&#45;&gt;Node16</title>
<path fill="none" stroke="midnightblue" d="M287.6,-10C299.77,-10 312.78,-10 325.6,-10"/>
<polygon fill="midnightblue" stroke="midnightblue" points="325.83,-13.5 335.83,-10 325.83,-6.5 325.83,-13.5"/>
</g>
</g>
</svg>
