<?xml version="1.0" encoding="UTF-8" standalone="no"?>
<!DOCTYPE svg PUBLIC "-//W3C//DTD SVG 1.1//EN"
 "http://www.w3.org/Graphics/SVG/1.1/DTD/svg11.dtd">
<!-- Generated by graphviz version 2.44.1 (20200629.0846)
 -->
<!-- Title: FinalPostProcess Pages: 1 -->
<svg width="178pt" height="95pt"
 viewBox="0.00 0.00 177.50 95.00" xmlns="http://www.w3.org/2000/svg" xmlns:xlink="http://www.w3.org/1999/xlink">
<g id="graph0" class="graph" transform="scale(1 1) rotate(0) translate(4 91)">
<title>FinalPostProcess</title>
<polygon fill="white" stroke="transparent" points="-4,4 -4,-91 173.5,-91 173.5,4 -4,4"/>
<!-- Node1 -->
<g id="node1" class="node">
<title>Node1</title>
<g id="a_node1"><a xlink:title=" ">
<polygon fill="#bfbfbf" stroke="black" points="32.5,-0.5 32.5,-19.5 126.5,-19.5 126.5,-0.5 32.5,-0.5"/>
<text text-anchor="middle" x="79.5" y="-7.5" font-family="Helvetica,sans-Serif" font-size="10.00">FinalPostProcess</text>
</a>
</g>
</g>
<!-- Node2 -->
<g id="node2" class="node">
<title>Node2</title>
<g id="a_node2"><a xlink:href="class_shader.html" target="_top" xlink:title=" ">
<polygon fill="white" stroke="black" points="0,-67.5 0,-86.5 47,-86.5 47,-67.5 0,-67.5"/>
<text text-anchor="middle" x="23.5" y="-74.5" font-family="Helvetica,sans-Serif" font-size="10.00">Shader</text>
</a>
</g>
</g>
<!-- Node2&#45;&gt;Node1 -->
<g id="edge1" class="edge">
<title>Node2&#45;&gt;Node1</title>
<path fill="none" stroke="#9a32cd" stroke-dasharray="5,2" d="M20.2,-57.29C19.98,-50.74 20.89,-43.62 24.5,-38 29.96,-29.49 38.94,-23.58 48.08,-19.51"/>
<polygon fill="#9a32cd" stroke="#9a32cd" points="16.74,-57.88 21.35,-67.42 23.7,-57.08 16.74,-57.88"/>
<text text-anchor="middle" x="69" y="-41" font-family="Helvetica,sans-Serif" font-size="10.00"> postProcessShader</text>
</g>
<!-- Node3 -->
<g id="node3" class="node">
<title>Node3</title>
<g id="a_node3"><a xlink:href="class_vertex_array.html" target="_top" xlink:title=" ">
<polygon fill="white" stroke="black" points="101.5,-67.5 101.5,-86.5 169.5,-86.5 169.5,-67.5 101.5,-67.5"/>
<text text-anchor="middle" x="135.5" y="-74.5" font-family="Helvetica,sans-Serif" font-size="10.00">VertexArray</text>
</a>
</g>
</g>
<!-- Node3&#45;&gt;Node1 -->
<g id="edge2" class="edge">
<title>Node3&#45;&gt;Node1</title>
<path fill="none" stroke="#9a32cd" stroke-dasharray="5,2" d="M127.01,-58.22C123.36,-51.51 118.72,-44.05 113.5,-38 107.49,-31.04 99.49,-24.58 92.75,-19.73"/>
<polygon fill="#9a32cd" stroke="#9a32cd" points="123.95,-59.93 131.61,-67.26 130.19,-56.76 123.95,-59.93"/>
<text text-anchor="middle" x="127" y="-41" font-family="Helvetica,sans-Serif" font-size="10.00"> va</text>
</g>
</g>
</svg>
