<?xml version="1.0" encoding="UTF-8" standalone="no"?>
<!DOCTYPE svg PUBLIC "-//W3C//DTD SVG 1.1//EN"
 "http://www.w3.org/Graphics/SVG/1.1/DTD/svg11.dtd">
<!-- Generated by graphviz version 2.40.1 (20161225.0304)
 -->
<!-- Title: PlayerInput::PlayerInput Pages: 1 -->
<svg width="456pt" height="214pt"
 viewBox="0.00 0.00 456.00 213.50" xmlns="http://www.w3.org/2000/svg" xmlns:xlink="http://www.w3.org/1999/xlink">
<g id="graph0" class="graph" transform="scale(1 1) rotate(0) translate(4 209.5)">
<title>PlayerInput::PlayerInput</title>
<polygon fill="#ffffff" stroke="transparent" points="-4,4 -4,-209.5 452,-209.5 452,4 -4,4"/>
<!-- Node2 -->
<g id="node1" class="node">
<title>Node2</title>
<polygon fill="#bfbfbf" stroke="#000000" points="0,-104 0,-123 122,-123 122,-104 0,-104"/>
<text text-anchor="middle" x="61" y="-111" font-family="Helvetica,sans-Serif" font-size="10.00" fill="#000000">PlayerInput::PlayerInput</text>
</g>
<!-- Node3 -->
<g id="node2" class="node">
<title>Node3</title>
<g id="a_node2"><a xlink:href="class_player_input.html#afb9d2e949dbd3d69c36e5d5519e43824" target="_top" xlink:title="PlayerInput::handleKeyInput">
<polygon fill="#ffffff" stroke="#000000" points="159,-186 159,-205 299,-205 299,-186 159,-186"/>
<text text-anchor="middle" x="229" y="-193" font-family="Helvetica,sans-Serif" font-size="10.00" fill="#000000">PlayerInput::handleKeyInput</text>
</a>
</g>
</g>
<!-- Node2&#45;&gt;Node3 -->
<g id="edge1" class="edge">
<title>Node2&#45;&gt;Node3</title>
<path fill="none" stroke="#191970" d="M73.1349,-123.2033C90.8217,-136.9068 125.1616,-161.8846 158,-176.5 163.3771,-178.8932 169.1214,-181.0408 174.9261,-182.9536"/>
<polygon fill="#191970" stroke="#191970" points="174.111,-186.3645 184.6978,-185.953 176.1651,-179.6726 174.111,-186.3645"/>
</g>
<!-- Node5 -->
<g id="node4" class="node">
<title>Node5</title>
<g id="a_node4"><a xlink:href="class_player_input.html#af99688e0116feca7e153e551a056fd24" target="_top" xlink:title="PlayerInput::handleTextInput">
<polygon fill="#ffffff" stroke="#000000" points="158,-148 158,-167 300,-167 300,-148 158,-148"/>
<text text-anchor="middle" x="229" y="-155" font-family="Helvetica,sans-Serif" font-size="10.00" fill="#000000">PlayerInput::handleTextInput</text>
</a>
</g>
</g>
<!-- Node2&#45;&gt;Node5 -->
<g id="edge3" class="edge">
<title>Node2&#45;&gt;Node5</title>
<path fill="none" stroke="#191970" d="M97.4535,-123.0473C122.4405,-129.5916 155.797,-138.3278 182.6677,-145.3654"/>
<polygon fill="#191970" stroke="#191970" points="182.0571,-148.8234 192.6176,-147.9713 183.8307,-142.0518 182.0571,-148.8234"/>
</g>
<!-- Node6 -->
<g id="node5" class="node">
<title>Node6</title>
<g id="a_node5"><a xlink:href="class_player_input.html#a1159455dba7ecb31c935c4a51afb15c7" target="_top" xlink:title="PlayerInput::handleCursor\lPosition">
<polygon fill="#ffffff" stroke="#000000" points="164,-98.5 164,-128.5 294,-128.5 294,-98.5 164,-98.5"/>
<text text-anchor="start" x="172" y="-116.5" font-family="Helvetica,sans-Serif" font-size="10.00" fill="#000000">PlayerInput::handleCursor</text>
<text text-anchor="middle" x="229" y="-105.5" font-family="Helvetica,sans-Serif" font-size="10.00" fill="#000000">Position</text>
</a>
</g>
</g>
<!-- Node2&#45;&gt;Node6 -->
<g id="edge5" class="edge">
<title>Node2&#45;&gt;Node6</title>
<path fill="none" stroke="#191970" d="M122.1271,-113.5C132.4362,-113.5 143.2428,-113.5 153.8586,-113.5"/>
<polygon fill="#191970" stroke="#191970" points="153.9558,-117.0001 163.9557,-113.5 153.9557,-110.0001 153.9558,-117.0001"/>
</g>
<!-- Node7 -->
<g id="node6" class="node">
<title>Node7</title>
<g id="a_node6"><a xlink:href="class_player_input.html#aba00f66210c0c6569823c25afda4a5da" target="_top" xlink:title="PlayerInput::handleMouse\lButtonInput">
<polygon fill="#ffffff" stroke="#000000" points="164,-49.5 164,-79.5 294,-79.5 294,-49.5 164,-49.5"/>
<text text-anchor="start" x="172" y="-67.5" font-family="Helvetica,sans-Serif" font-size="10.00" fill="#000000">PlayerInput::handleMouse</text>
<text text-anchor="middle" x="229" y="-56.5" font-family="Helvetica,sans-Serif" font-size="10.00" fill="#000000">ButtonInput</text>
</a>
</g>
</g>
<!-- Node2&#45;&gt;Node7 -->
<g id="edge7" class="edge">
<title>Node2&#45;&gt;Node7</title>
<path fill="none" stroke="#191970" d="M93.7909,-103.936C114.7816,-97.8137 142.6713,-89.6792 167.6667,-82.3889"/>
<polygon fill="#191970" stroke="#191970" points="168.8247,-85.697 177.4447,-79.537 166.8647,-78.977 168.8247,-85.697"/>
</g>
<!-- Node8 -->
<g id="node7" class="node">
<title>Node8</title>
<g id="a_node7"><a xlink:href="class_player_input.html#a48150e7bcc0b23258071f59ff2636590" target="_top" xlink:title="PlayerInput::handleScroll\lInput">
<polygon fill="#ffffff" stroke="#000000" points="166.5,-.5 166.5,-30.5 291.5,-30.5 291.5,-.5 166.5,-.5"/>
<text text-anchor="start" x="174.5" y="-18.5" font-family="Helvetica,sans-Serif" font-size="10.00" fill="#000000">PlayerInput::handleScroll</text>
<text text-anchor="middle" x="229" y="-7.5" font-family="Helvetica,sans-Serif" font-size="10.00" fill="#000000">Input</text>
</a>
</g>
</g>
<!-- Node2&#45;&gt;Node8 -->
<g id="edge9" class="edge">
<title>Node2&#45;&gt;Node8</title>
<path fill="none" stroke="#191970" d="M71.5907,-103.771C88.6614,-88.5138 123.8165,-58.8145 158,-40.5 161.9957,-38.3592 166.2121,-36.3396 170.5161,-34.4476"/>
<polygon fill="#191970" stroke="#191970" points="172.1246,-37.5699 180.0264,-30.5121 169.4479,-31.1018 172.1246,-37.5699"/>
</g>
<!-- Node4 -->
<g id="node3" class="node">
<title>Node4</title>
<g id="a_node3"><a xlink:href="class_player_input.html#a41e31d5aa4a11ed2a3058e31210d5109" target="_top" xlink:title="The map of GLFW windows to their associated PlayerInput instances. ">
<polygon fill="#ffffff" stroke="#000000" points="336,-104 336,-123 448,-123 448,-104 336,-104"/>
<text text-anchor="middle" x="392" y="-111" font-family="Helvetica,sans-Serif" font-size="10.00" fill="#000000">PlayerInput::inputMap</text>
</a>
</g>
</g>
<!-- Node3&#45;&gt;Node4 -->
<g id="edge2" class="edge">
<title>Node3&#45;&gt;Node4</title>
<path fill="none" stroke="#191970" d="M274.1253,-185.8941C282.8988,-183.3427 291.8846,-180.2313 300,-176.5 327.2068,-163.9908 355.1249,-143.5966 372.9611,-129.4138"/>
<polygon fill="#191970" stroke="#191970" points="375.2948,-132.0276 380.8599,-123.012 370.8873,-126.5894 375.2948,-132.0276"/>
</g>
<!-- Node5&#45;&gt;Node4 -->
<g id="edge4" class="edge">
<title>Node5&#45;&gt;Node4</title>
<path fill="none" stroke="#191970" d="M264.7625,-147.9585C276.0393,-144.9421 288.5424,-141.5898 300,-138.5 315.3214,-134.3683 332.0705,-129.8248 347.029,-125.7576"/>
<polygon fill="#191970" stroke="#191970" points="348.3288,-129.0312 357.0593,-123.0288 346.4912,-122.2767 348.3288,-129.0312"/>
</g>
<!-- Node6&#45;&gt;Node4 -->
<g id="edge6" class="edge">
<title>Node6&#45;&gt;Node4</title>
<path fill="none" stroke="#191970" d="M294.3591,-113.5C304.6554,-113.5 315.3097,-113.5 325.6287,-113.5"/>
<polygon fill="#191970" stroke="#191970" points="325.8102,-117.0001 335.8102,-113.5 325.8101,-110.0001 325.8102,-117.0001"/>
</g>
<!-- Node7&#45;&gt;Node4 -->
<g id="edge8" class="edge">
<title>Node7&#45;&gt;Node4</title>
<path fill="none" stroke="#191970" d="M279.2354,-79.6014C302.1107,-86.4781 328.8592,-94.519 350.5624,-101.0433"/>
<polygon fill="#191970" stroke="#191970" points="349.5629,-104.3975 360.1471,-103.9246 351.5781,-97.6938 349.5629,-104.3975"/>
</g>
<!-- Node8&#45;&gt;Node4 -->
<g id="edge10" class="edge">
<title>Node8&#45;&gt;Node4</title>
<path fill="none" stroke="#191970" d="M278.4346,-30.5056C285.8415,-33.4346 293.2509,-36.7721 300,-40.5 328.3752,-56.1733 356.9893,-80.5341 374.6017,-96.7471"/>
<polygon fill="#191970" stroke="#191970" points="372.6255,-99.692 382.3148,-103.9779 377.413,-94.5851 372.6255,-99.692"/>
</g>
</g>
</svg>
