<?xml version="1.0" encoding="UTF-8" standalone="no"?>
<!DOCTYPE svg PUBLIC "-//W3C//DTD SVG 1.1//EN"
 "http://www.w3.org/Graphics/SVG/1.1/DTD/svg11.dtd">
<!-- Generated by graphviz version 2.44.1 (20200629.0846)
 -->
<!-- Title: HemisphereLight Pages: 1 -->
<svg width="393pt" height="287pt"
 viewBox="0.00 0.00 393.00 287.00" xmlns="http://www.w3.org/2000/svg" xmlns:xlink="http://www.w3.org/1999/xlink">
<g id="graph0" class="graph" transform="scale(1 1) rotate(0) translate(4 283)">
<title>HemisphereLight</title>
<polygon fill="white" stroke="transparent" points="-4,4 -4,-283 389,-283 389,4 -4,4"/>
<!-- Node1 -->
<g id="node1" class="node">
<title>Node1</title>
<g id="a_node1"><a xlink:title="An ambient light which color depends on the direction.">
<polygon fill="#bfbfbf" stroke="black" points="62,-0.5 62,-19.5 151,-19.5 151,-0.5 62,-0.5"/>
<text text-anchor="middle" x="106.5" y="-7.5" font-family="Helvetica,sans-Serif" font-size="10.00">HemisphereLight</text>
</a>
</g>
</g>
<!-- Node2 -->
<g id="node2" class="node">
<title>Node2</title>
<g id="a_node2"><a xlink:href="class_light.html" target="_top" xlink:title="An entity that will provide light to the scene.">
<polygon fill="white" stroke="black" points="87.5,-57.5 87.5,-76.5 125.5,-76.5 125.5,-57.5 87.5,-57.5"/>
<text text-anchor="middle" x="106.5" y="-64.5" font-family="Helvetica,sans-Serif" font-size="10.00">Light</text>
</a>
</g>
</g>
<!-- Node2&#45;&gt;Node1 -->
<g id="edge1" class="edge">
<title>Node2&#45;&gt;Node1</title>
<path fill="none" stroke="midnightblue" d="M106.5,-47.12C106.5,-37.82 106.5,-27.06 106.5,-19.71"/>
<polygon fill="midnightblue" stroke="midnightblue" points="103,-47.41 106.5,-57.41 110,-47.41 103,-47.41"/>
</g>
<!-- Node3 -->
<g id="node3" class="node">
<title>Node3</title>
<g id="a_node3"><a xlink:href="class_entity.html" target="_top" xlink:title=" ">
<polygon fill="white" stroke="black" points="85.5,-114.5 85.5,-133.5 127.5,-133.5 127.5,-114.5 85.5,-114.5"/>
<text text-anchor="middle" x="106.5" y="-121.5" font-family="Helvetica,sans-Serif" font-size="10.00">Entity</text>
</a>
</g>
</g>
<!-- Node3&#45;&gt;Node2 -->
<g id="edge2" class="edge">
<title>Node3&#45;&gt;Node2</title>
<path fill="none" stroke="midnightblue" d="M106.5,-104.12C106.5,-94.82 106.5,-84.06 106.5,-76.71"/>
<polygon fill="midnightblue" stroke="midnightblue" points="103,-104.41 106.5,-114.41 110,-104.41 103,-104.41"/>
</g>
<!-- Node4 -->
<g id="node4" class="node">
<title>Node4</title>
<g id="a_node4"><a xlink:title="STL class.">
<polygon fill="white" stroke="#bfbfbf" points="17.5,-181.5 17.5,-200.5 77.5,-200.5 77.5,-181.5 17.5,-181.5"/>
<text text-anchor="middle" x="47.5" y="-188.5" font-family="Helvetica,sans-Serif" font-size="10.00">std::string</text>
</a>
</g>
</g>
<!-- Node4&#45;&gt;Node3 -->
<g id="edge3" class="edge">
<title>Node4&#45;&gt;Node3</title>
<path fill="none" stroke="#9a32cd" stroke-dasharray="5,2" d="M62.35,-173.63C73.89,-160.92 89.44,-143.8 98.67,-133.63"/>
<polygon fill="#9a32cd" stroke="#9a32cd" points="59.59,-171.48 55.46,-181.23 64.77,-176.18 59.59,-171.48"/>
<text text-anchor="middle" x="95.5" y="-155" font-family="Helvetica,sans-Serif" font-size="10.00"> name</text>
</g>
<!-- Node5 -->
<g id="node5" class="node">
<title>Node5</title>
<g id="a_node5"><a xlink:title="STL class.">
<polygon fill="white" stroke="#bfbfbf" points="0,-248.5 0,-278.5 95,-278.5 95,-248.5 0,-248.5"/>
<text text-anchor="start" x="8" y="-266.5" font-family="Helvetica,sans-Serif" font-size="10.00">std::basic_string&lt;</text>
<text text-anchor="middle" x="47.5" y="-255.5" font-family="Helvetica,sans-Serif" font-size="10.00"> char &gt;</text>
</a>
</g>
</g>
<!-- Node5&#45;&gt;Node4 -->
<g id="edge4" class="edge">
<title>Node5&#45;&gt;Node4</title>
<path fill="none" stroke="midnightblue" d="M47.5,-238.09C47.5,-225.21 47.5,-210.2 47.5,-200.89"/>
<polygon fill="midnightblue" stroke="midnightblue" points="44,-238.23 47.5,-248.23 51,-238.23 44,-238.23"/>
</g>
<!-- Node6 -->
<g id="node6" class="node">
<title>Node6</title>
<g id="a_node6"><a xlink:title=" ">
<polygon fill="white" stroke="#bfbfbf" points="95.5,-181.5 95.5,-200.5 237.5,-200.5 237.5,-181.5 95.5,-181.5"/>
<text text-anchor="middle" x="166.5" y="-188.5" font-family="Helvetica,sans-Serif" font-size="10.00">std::unique_ptr&lt; Transform &gt;</text>
</a>
</g>
</g>
<!-- Node6&#45;&gt;Node3 -->
<g id="edge5" class="edge">
<title>Node6&#45;&gt;Node3</title>
<path fill="none" stroke="#9a32cd" stroke-dasharray="5,2" d="M151.39,-173.63C139.66,-160.92 123.85,-143.8 114.46,-133.63"/>
<polygon fill="#9a32cd" stroke="#9a32cd" points="149.05,-176.26 158.41,-181.23 154.2,-171.51 149.05,-176.26"/>
<text text-anchor="middle" x="162.5" y="-155" font-family="Helvetica,sans-Serif" font-size="10.00"> transform</text>
</g>
<!-- Node7 -->
<g id="node7" class="node">
<title>Node7</title>
<g id="a_node7"><a xlink:href="class_transform.html" target="_top" xlink:title=" ">
<polygon fill="white" stroke="black" points="225,-254 225,-273 284,-273 284,-254 225,-254"/>
<text text-anchor="middle" x="254.5" y="-261" font-family="Helvetica,sans-Serif" font-size="10.00">Transform</text>
</a>
</g>
</g>
<!-- Node7&#45;&gt;Node6 -->
<g id="edge6" class="edge">
<title>Node7&#45;&gt;Node6</title>
<path fill="none" stroke="#9a32cd" stroke-dasharray="5,2" d="M235.74,-247.47C217.99,-233.25 191.94,-212.38 177.38,-200.72"/>
<polygon fill="#9a32cd" stroke="#9a32cd" points="233.72,-250.33 243.71,-253.86 238.09,-244.87 233.72,-250.33"/>
<text text-anchor="middle" x="221" y="-222" font-family="Helvetica,sans-Serif" font-size="10.00"> ptr</text>
</g>
<!-- Node7&#45;&gt;Node7 -->
<g id="edge9" class="edge">
<title>Node7&#45;&gt;Node7</title>
<path fill="none" stroke="#9a32cd" stroke-dasharray="5,2" d="M294.17,-269.62C298.91,-268.51 302,-266.47 302,-263.5 302,-258.75 294.08,-256.38 284.19,-256.38"/>
<polygon fill="#9a32cd" stroke="#9a32cd" points="293.79,-266.14 284.19,-270.62 294.49,-273.11 293.79,-266.14"/>
<text text-anchor="middle" x="317.5" y="-261" font-family="Helvetica,sans-Serif" font-size="10.00"> parent</text>
</g>
<!-- Node8 -->
<g id="node8" class="node">
<title>Node8</title>
<g id="a_node8"><a xlink:title=" ">
<polygon fill="white" stroke="#bfbfbf" points="256,-181.5 256,-200.5 385,-200.5 385,-181.5 256,-181.5"/>
<text text-anchor="middle" x="320.5" y="-188.5" font-family="Helvetica,sans-Serif" font-size="10.00">std::vector&lt; Transform * &gt;</text>
</a>
</g>
</g>
<!-- Node7&#45;&gt;Node8 -->
<g id="edge8" class="edge">
<title>Node7&#45;&gt;Node8</title>
<path fill="none" stroke="#9a32cd" stroke-dasharray="5,2" d="M248.32,-244.08C246.7,-235.77 246.57,-226.22 251.5,-219 257.37,-210.39 266.44,-204.53 276.09,-200.54"/>
<polygon fill="#9a32cd" stroke="#9a32cd" points="245.02,-245.27 251.02,-254 251.77,-243.43 245.02,-245.27"/>
<text text-anchor="middle" x="273" y="-222" font-family="Helvetica,sans-Serif" font-size="10.00"> elements</text>
</g>
<!-- Node8&#45;&gt;Node7 -->
<g id="edge7" class="edge">
<title>Node8&#45;&gt;Node7</title>
<path fill="none" stroke="#9a32cd" stroke-dasharray="5,2" d="M312.12,-209.87C308.48,-216.6 303.83,-224.04 298.5,-230 290.02,-239.49 278.36,-247.95 269.17,-253.85"/>
<polygon fill="#9a32cd" stroke="#9a32cd" points="315.31,-211.31 316.68,-200.81 309.06,-208.17 315.31,-211.31"/>
<text text-anchor="middle" x="324" y="-222" font-family="Helvetica,sans-Serif" font-size="10.00"> children</text>
</g>
</g>
</svg>
