<?xml version="1.0" encoding="UTF-8" standalone="no"?>
<!DOCTYPE svg PUBLIC "-//W3C//DTD SVG 1.1//EN"
 "http://www.w3.org/Graphics/SVG/1.1/DTD/svg11.dtd">
<!-- Generated by graphviz version 2.44.1 (20200629.0846)
 -->
<!-- Title: Process::runLoop Pages: 1 -->
<svg width="280pt" height="294pt"
 viewBox="0.00 0.00 280.00 294.00" xmlns="http://www.w3.org/2000/svg" xmlns:xlink="http://www.w3.org/1999/xlink">
<g id="graph0" class="graph" transform="scale(1 1) rotate(0) translate(4 290)">
<title>Process::runLoop</title>
<polygon fill="white" stroke="transparent" points="-4,4 -4,-290 276,-290 276,4 -4,4"/>
<!-- Node1 -->
<g id="node1" class="node">
<title>Node1</title>
<g id="a_node1"><a xlink:title=" ">
<polygon fill="#bfbfbf" stroke="black" points="0,-133.5 0,-152.5 93,-152.5 93,-133.5 0,-133.5"/>
<text text-anchor="middle" x="46.5" y="-140.5" font-family="Helvetica,sans-Serif" font-size="10.00">Process::runLoop</text>
</a>
</g>
</g>
<!-- Node2 -->
<g id="node2" class="node">
<title>Node2</title>
<g id="a_node2"><a xlink:href="class_graphic_context.html#a74eae76a491ec993e5d65019d50626e3" target="_top" xlink:title=" ">
<polygon fill="white" stroke="black" points="133.5,-266.5 133.5,-285.5 267.5,-285.5 267.5,-266.5 133.5,-266.5"/>
<text text-anchor="middle" x="200.5" y="-273.5" font-family="Helvetica,sans-Serif" font-size="10.00">GraphicContext::endFrame</text>
</a>
</g>
</g>
<!-- Node1&#45;&gt;Node2 -->
<g id="edge1" class="edge">
<title>Node1&#45;&gt;Node2</title>
<path fill="none" stroke="midnightblue" d="M51.61,-152.66C61.5,-174.74 88.83,-229.12 129,-257 131.9,-259.01 135,-260.81 138.23,-262.42"/>
<polygon fill="midnightblue" stroke="midnightblue" points="137.02,-265.71 147.59,-266.47 139.8,-259.29 137.02,-265.71"/>
</g>
<!-- Node3 -->
<g id="node3" class="node">
<title>Node3</title>
<g id="a_node3"><a xlink:href="class_main_pool.html#ad39482392e579e95034085591498d3ee" target="_top" xlink:title=" ">
<polygon fill="white" stroke="black" points="150.5,-228.5 150.5,-247.5 250.5,-247.5 250.5,-228.5 150.5,-228.5"/>
<text text-anchor="middle" x="200.5" y="-235.5" font-family="Helvetica,sans-Serif" font-size="10.00">MainPool::enqueue</text>
</a>
</g>
</g>
<!-- Node1&#45;&gt;Node3 -->
<g id="edge2" class="edge">
<title>Node1&#45;&gt;Node3</title>
<path fill="none" stroke="midnightblue" d="M54.97,-152.5C68.15,-168.63 97.2,-201.34 129,-219 133.15,-221.3 137.58,-223.34 142.14,-225.13"/>
<polygon fill="midnightblue" stroke="midnightblue" points="141.02,-228.45 151.61,-228.5 143.36,-221.85 141.02,-228.45"/>
</g>
<!-- Node4 -->
<g id="node4" class="node">
<title>Node4</title>
<g id="a_node4"><a xlink:href="class_scene.html#a1f3f8038aea8d2b6d444db7a9c796c5e" target="_top" xlink:title=" ">
<polygon fill="white" stroke="black" points="152,-190.5 152,-209.5 249,-209.5 249,-190.5 152,-190.5"/>
<text text-anchor="middle" x="200.5" y="-197.5" font-family="Helvetica,sans-Serif" font-size="10.00">Scene::getEntities</text>
</a>
</g>
</g>
<!-- Node1&#45;&gt;Node4 -->
<g id="edge3" class="edge">
<title>Node1&#45;&gt;Node4</title>
<path fill="none" stroke="midnightblue" d="M65.57,-152.53C81.83,-160.84 106.56,-172.81 129,-181 135.48,-183.36 142.39,-185.58 149.26,-187.61"/>
<polygon fill="midnightblue" stroke="midnightblue" points="148.65,-191.07 159.23,-190.44 150.56,-184.34 148.65,-191.07"/>
</g>
<!-- Node5 -->
<g id="node5" class="node">
<title>Node5</title>
<g id="a_node5"><a xlink:href="class_graphic_context.html#ad894031ecb6889fe7e3c9b0019303a99" target="_top" xlink:title=" ">
<polygon fill="white" stroke="black" points="129,-152.5 129,-171.5 272,-171.5 272,-152.5 129,-152.5"/>
<text text-anchor="middle" x="200.5" y="-159.5" font-family="Helvetica,sans-Serif" font-size="10.00">GraphicContext::getRenderer</text>
</a>
</g>
</g>
<!-- Node1&#45;&gt;Node5 -->
<g id="edge4" class="edge">
<title>Node1&#45;&gt;Node5</title>
<path fill="none" stroke="midnightblue" d="M93.11,-148.7C101.3,-149.73 110.06,-150.82 118.91,-151.93"/>
<polygon fill="midnightblue" stroke="midnightblue" points="118.54,-155.41 128.9,-153.18 119.41,-148.46 118.54,-155.41"/>
</g>
<!-- Node6 -->
<g id="node6" class="node">
<title>Node6</title>
<g id="a_node6"><a xlink:href="class_dispatcher.html#a72977dbd43a8cf501c05d915858d39ba" target="_top" xlink:title=" ">
<polygon fill="white" stroke="black" points="147.5,-114.5 147.5,-133.5 253.5,-133.5 253.5,-114.5 147.5,-114.5"/>
<text text-anchor="middle" x="200.5" y="-121.5" font-family="Helvetica,sans-Serif" font-size="10.00">Dispatcher::instance</text>
</a>
</g>
</g>
<!-- Node1&#45;&gt;Node6 -->
<g id="edge5" class="edge">
<title>Node1&#45;&gt;Node6</title>
<path fill="none" stroke="midnightblue" d="M93.11,-137.3C106.96,-135.57 122.43,-133.63 137.18,-131.79"/>
<polygon fill="midnightblue" stroke="midnightblue" points="137.77,-135.24 147.26,-130.53 136.9,-128.3 137.77,-135.24"/>
</g>
<!-- Node7 -->
<g id="node7" class="node">
<title>Node7</title>
<g id="a_node7"><a xlink:href="class_dispatcher.html#a289257d29e2583f5ef40b7b5c4fdae8b" target="_top" xlink:title="Retrieves the main thread pool.">
<polygon fill="white" stroke="black" points="155.5,-76.5 155.5,-95.5 245.5,-95.5 245.5,-76.5 155.5,-76.5"/>
<text text-anchor="middle" x="200.5" y="-83.5" font-family="Helvetica,sans-Serif" font-size="10.00">Dispatcher::main</text>
</a>
</g>
</g>
<!-- Node1&#45;&gt;Node7 -->
<g id="edge6" class="edge">
<title>Node1&#45;&gt;Node7</title>
<path fill="none" stroke="midnightblue" d="M65.57,-133.47C81.83,-125.16 106.56,-113.19 129,-105 135.48,-102.64 142.39,-100.42 149.26,-98.39"/>
<polygon fill="midnightblue" stroke="midnightblue" points="150.56,-101.66 159.23,-95.56 148.65,-94.93 150.56,-101.66"/>
</g>
<!-- Node8 -->
<g id="node8" class="node">
<title>Node8</title>
<g id="a_node8"><a xlink:href="class_loop_renderer.html#a0b406ec23ddf8953e17fc65f1f5b5be5" target="_top" xlink:title=" ">
<polygon fill="white" stroke="black" points="129,-38.5 129,-57.5 272,-57.5 272,-38.5 129,-38.5"/>
<text text-anchor="middle" x="200.5" y="-45.5" font-family="Helvetica,sans-Serif" font-size="10.00">LoopRenderer::prepareFrame</text>
</a>
</g>
</g>
<!-- Node1&#45;&gt;Node8 -->
<g id="edge7" class="edge">
<title>Node1&#45;&gt;Node8</title>
<path fill="none" stroke="midnightblue" d="M54.97,-133.5C68.15,-117.37 97.2,-84.66 129,-67 133.15,-64.7 137.58,-62.66 142.14,-60.87"/>
<polygon fill="midnightblue" stroke="midnightblue" points="143.36,-64.15 151.61,-57.5 141.02,-57.55 143.36,-64.15"/>
</g>
<!-- Node9 -->
<g id="node9" class="node">
<title>Node9</title>
<g id="a_node9"><a xlink:href="class_dispatcher.html#a047690da9f4ddd3bc4027e0eb918f5f3" target="_top" xlink:title=" ">
<polygon fill="white" stroke="black" points="147,-0.5 147,-19.5 254,-19.5 254,-0.5 147,-0.5"/>
<text text-anchor="middle" x="200.5" y="-7.5" font-family="Helvetica,sans-Serif" font-size="10.00">Dispatcher::waitMain</text>
</a>
</g>
</g>
<!-- Node1&#45;&gt;Node9 -->
<g id="edge8" class="edge">
<title>Node1&#45;&gt;Node9</title>
<path fill="none" stroke="midnightblue" d="M51.61,-133.34C61.5,-111.26 88.83,-56.88 129,-29 131.9,-26.99 135,-25.19 138.23,-23.58"/>
<polygon fill="midnightblue" stroke="midnightblue" points="139.8,-26.71 147.59,-19.53 137.02,-20.29 139.8,-26.71"/>
</g>
</g>
</svg>
