<?xml version="1.0" encoding="UTF-8" standalone="no"?>
<!DOCTYPE svg PUBLIC "-//W3C//DTD SVG 1.1//EN"
 "http://www.w3.org/Graphics/SVG/1.1/DTD/svg11.dtd">
<!-- Generated by graphviz version 2.44.1 (20200629.0846)
 -->
<!-- Title: BufferGeometry::setAttribute Pages: 1 -->
<svg width="559pt" height="204pt"
 viewBox="0.00 0.00 559.00 203.50" xmlns="http://www.w3.org/2000/svg" xmlns:xlink="http://www.w3.org/1999/xlink">
<g id="graph0" class="graph" transform="scale(1 1) rotate(0) translate(4 199.5)">
<title>BufferGeometry::setAttribute</title>
<polygon fill="white" stroke="transparent" points="-4,4 -4,-199.5 555,-199.5 555,4 -4,4"/>
<!-- Node1 -->
<g id="node1" class="node">
<title>Node1</title>
<g id="a_node1"><a xlink:title="Sets the value of a buffer attribute.">
<polygon fill="#bfbfbf" stroke="black" points="0,-82.5 0,-101.5 140,-101.5 140,-82.5 0,-82.5"/>
<text text-anchor="middle" x="70" y="-89.5" font-family="Helvetica,sans-Serif" font-size="10.00">BufferGeometry::setAttribute</text>
</a>
</g>
</g>
<!-- Node2 -->
<g id="node2" class="node">
<title>Node2</title>
<g id="a_node2"><a xlink:href="class_buffer_geometry.html#ac1e72a3d8ab4af731fd2e8afb58f8152" target="_top" xlink:title="Computes the bounding sphere for this specific geometry, based on the the &#39;position&#39; attribute.">
<polygon fill="white" stroke="black" points="176,-165 176,-195 344,-195 344,-165 176,-165"/>
<text text-anchor="start" x="184" y="-183" font-family="Helvetica,sans-Serif" font-size="10.00">BufferGeometry::computeBounding</text>
<text text-anchor="middle" x="260" y="-172" font-family="Helvetica,sans-Serif" font-size="10.00">Sphere</text>
</a>
</g>
</g>
<!-- Node1&#45;&gt;Node2 -->
<g id="edge1" class="edge">
<title>Node1&#45;&gt;Node2</title>
<path fill="none" stroke="midnightblue" d="M84.67,-101.72C104.15,-115.21 141.39,-139.69 176,-155 181.29,-157.34 186.86,-159.54 192.51,-161.59"/>
<polygon fill="midnightblue" stroke="midnightblue" points="191.47,-164.93 202.06,-164.9 193.76,-158.32 191.47,-164.93"/>
</g>
<!-- Node3 -->
<g id="node3" class="node">
<title>Node3</title>
<g id="a_node3"><a xlink:href="class_buffer_attribute.html#aeb86ba7a3f57ad8e575258fcfbfe753c" target="_top" xlink:title=" ">
<polygon fill="white" stroke="black" points="192,-126.5 192,-145.5 328,-145.5 328,-126.5 192,-126.5"/>
<text text-anchor="middle" x="260" y="-133.5" font-family="Helvetica,sans-Serif" font-size="10.00">BufferAttribute::getItemSize</text>
</a>
</g>
</g>
<!-- Node1&#45;&gt;Node3 -->
<g id="edge2" class="edge">
<title>Node1&#45;&gt;Node3</title>
<path fill="none" stroke="midnightblue" d="M110.87,-101.58C130.48,-106.27 154.47,-111.97 176,-117 185.93,-119.32 196.54,-121.77 206.74,-124.11"/>
<polygon fill="midnightblue" stroke="midnightblue" points="206.23,-127.58 216.76,-126.41 207.79,-120.76 206.23,-127.58"/>
</g>
<!-- Node4 -->
<g id="node4" class="node">
<title>Node4</title>
<g id="a_node4"><a xlink:href="class_buffer_geometry.html#a40ac49a3561170a81180fd788903b6de" target="_top" xlink:title=" ">
<polygon fill="white" stroke="black" points="192,-77 192,-107 328,-107 328,-77 192,-77"/>
<text text-anchor="start" x="200" y="-95" font-family="Helvetica,sans-Serif" font-size="10.00">BufferGeometry::recompute</text>
<text text-anchor="middle" x="260" y="-84" font-family="Helvetica,sans-Serif" font-size="10.00">Locations</text>
</a>
</g>
</g>
<!-- Node1&#45;&gt;Node4 -->
<g id="edge3" class="edge">
<title>Node1&#45;&gt;Node4</title>
<path fill="none" stroke="midnightblue" d="M140.2,-92C153.64,-92 167.8,-92 181.47,-92"/>
<polygon fill="midnightblue" stroke="midnightblue" points="181.82,-95.5 191.82,-92 181.82,-88.5 181.82,-95.5"/>
</g>
<!-- Node5 -->
<g id="node5" class="node">
<title>Node5</title>
<g id="a_node5"><a xlink:href="class_buffer_geometry.html#af1025b03991ee389abc822e8209f3701" target="_top" xlink:title=" ">
<polygon fill="white" stroke="black" points="380,-60.5 380,-79.5 551,-79.5 551,-60.5 380,-60.5"/>
<text text-anchor="middle" x="465.5" y="-67.5" font-family="Helvetica,sans-Serif" font-size="10.00">BufferGeometry::updateLayoutCode</text>
</a>
</g>
</g>
<!-- Node1&#45;&gt;Node5 -->
<g id="edge5" class="edge">
<title>Node1&#45;&gt;Node5</title>
<path fill="none" stroke="midnightblue" d="M104.24,-82.39C124.73,-76.97 151.66,-70.75 176,-68 240.31,-60.74 313.2,-61.32 369.62,-63.67"/>
<polygon fill="midnightblue" stroke="midnightblue" points="369.81,-67.19 379.96,-64.13 370.12,-60.19 369.81,-67.19"/>
</g>
<!-- Node6 -->
<g id="node6" class="node">
<title>Node6</title>
<g id="a_node6"><a xlink:href="class_buffer_geometry.html#aa42b4bd617cf7939c8e5bd8893bc429a" target="_top" xlink:title=" ">
<polygon fill="white" stroke="black" points="185.5,-0.5 185.5,-19.5 334.5,-19.5 334.5,-0.5 185.5,-0.5"/>
<text text-anchor="middle" x="260" y="-7.5" font-family="Helvetica,sans-Serif" font-size="10.00">BufferGeometry::updateLength</text>
</a>
</g>
</g>
<!-- Node1&#45;&gt;Node6 -->
<g id="edge6" class="edge">
<title>Node1&#45;&gt;Node6</title>
<path fill="none" stroke="midnightblue" d="M85.77,-82.45C105.63,-69.94 142.33,-47.96 176,-34 186.61,-29.6 198.3,-25.69 209.47,-22.36"/>
<polygon fill="midnightblue" stroke="midnightblue" points="210.47,-25.71 219.12,-19.59 208.54,-18.99 210.47,-25.71"/>
</g>
<!-- Node4&#45;&gt;Node5 -->
<g id="edge4" class="edge">
<title>Node4&#45;&gt;Node5</title>
<path fill="none" stroke="midnightblue" d="M328.2,-84.74C341.52,-83.3 355.74,-81.76 369.78,-80.24"/>
<polygon fill="midnightblue" stroke="midnightblue" points="370.39,-83.69 379.95,-79.14 369.63,-76.74 370.39,-83.69"/>
</g>
</g>
</svg>
