<?xml version="1.0" encoding="UTF-8" standalone="no"?>
<!DOCTYPE svg PUBLIC "-//W3C//DTD SVG 1.1//EN"
 "http://www.w3.org/Graphics/SVG/1.1/DTD/svg11.dtd">
<!-- Generated by graphviz version 2.40.1 (20161225.0304)
 -->
<!-- Title: LoopRenderer::removePass Pages: 1 -->
<svg width="319pt" height="127pt"
 viewBox="0.00 0.00 319.00 127.00" xmlns="http://www.w3.org/2000/svg" xmlns:xlink="http://www.w3.org/1999/xlink">
<g id="graph0" class="graph" transform="scale(1 1) rotate(0) translate(4 123)">
<title>LoopRenderer::removePass</title>
<polygon fill="#ffffff" stroke="transparent" points="-4,4 -4,-123 315,-123 315,4 -4,4"/>
<!-- Node42 -->
<g id="node1" class="node">
<title>Node42</title>
<polygon fill="#bfbfbf" stroke="#000000" points="0,-50 0,-69 138,-69 138,-50 0,-50"/>
<text text-anchor="middle" x="69" y="-57" font-family="Helvetica,sans-Serif" font-size="10.00" fill="#000000">LoopRenderer::removePass</text>
</g>
<!-- Node43 -->
<g id="node2" class="node">
<title>Node43</title>
<g id="a_node2"><a xlink:href="struct_utils_1_1_unique_ptr_vector.html#a4b8925e083f4af0c16c84b648f51e578" target="_top" xlink:title="Utils::UniquePtrVector\l::begin">
<polygon fill="#ffffff" stroke="#000000" points="185,-88.5 185,-118.5 300,-118.5 300,-88.5 185,-88.5"/>
<text text-anchor="start" x="193" y="-106.5" font-family="Helvetica,sans-Serif" font-size="10.00" fill="#000000">Utils::UniquePtrVector</text>
<text text-anchor="middle" x="242.5" y="-95.5" font-family="Helvetica,sans-Serif" font-size="10.00" fill="#000000">::begin</text>
</a>
</g>
</g>
<!-- Node42&#45;&gt;Node43 -->
<g id="edge1" class="edge">
<title>Node42&#45;&gt;Node43</title>
<path fill="none" stroke="#191970" d="M106.6469,-69.0473C126.617,-74.1118 151.7635,-80.489 174.9762,-86.3758"/>
<polygon fill="#191970" stroke="#191970" points="174.2318,-89.7978 184.7854,-88.8634 175.9526,-83.0126 174.2318,-89.7978"/>
</g>
<!-- Node44 -->
<g id="node3" class="node">
<title>Node44</title>
<g id="a_node3"><a xlink:href="struct_utils_1_1_unique_ptr_vector.html#a1be93fdaa02057cf59b1d79ffc60c629" target="_top" xlink:title="Utils::UniquePtrVector::end">
<polygon fill="#ffffff" stroke="#000000" points="174,-50 174,-69 311,-69 311,-50 174,-50"/>
<text text-anchor="middle" x="242.5" y="-57" font-family="Helvetica,sans-Serif" font-size="10.00" fill="#000000">Utils::UniquePtrVector::end</text>
</a>
</g>
</g>
<!-- Node42&#45;&gt;Node44 -->
<g id="edge2" class="edge">
<title>Node42&#45;&gt;Node44</title>
<path fill="none" stroke="#191970" d="M138.0703,-59.5C146.5605,-59.5 155.2866,-59.5 163.9044,-59.5"/>
<polygon fill="#191970" stroke="#191970" points="163.9506,-63.0001 173.9506,-59.5 163.9506,-56.0001 163.9506,-63.0001"/>
</g>
<!-- Node45 -->
<g id="node4" class="node">
<title>Node45</title>
<g id="a_node4"><a xlink:href="struct_utils_1_1_unique_ptr_vector.html#a2194fec96e7032b3b980c1dd529b700a" target="_top" xlink:title="Erases a unique pointer from the vector. ">
<polygon fill="#ffffff" stroke="#000000" points="185,-.5 185,-30.5 300,-30.5 300,-.5 185,-.5"/>
<text text-anchor="start" x="193" y="-18.5" font-family="Helvetica,sans-Serif" font-size="10.00" fill="#000000">Utils::UniquePtrVector</text>
<text text-anchor="middle" x="242.5" y="-7.5" font-family="Helvetica,sans-Serif" font-size="10.00" fill="#000000">::erase</text>
</a>
</g>
</g>
<!-- Node42&#45;&gt;Node45 -->
<g id="edge3" class="edge">
<title>Node42&#45;&gt;Node45</title>
<path fill="none" stroke="#191970" d="M106.6469,-49.9527C126.617,-44.8882 151.7635,-38.511 174.9762,-32.6242"/>
<polygon fill="#191970" stroke="#191970" points="175.9526,-35.9874 184.7854,-30.1366 174.2318,-29.2022 175.9526,-35.9874"/>
</g>
</g>
</svg>
