<?xml version="1.0" encoding="UTF-8" standalone="no"?>
<!DOCTYPE svg PUBLIC "-//W3C//DTD SVG 1.1//EN"
 "http://www.w3.org/Graphics/SVG/1.1/DTD/svg11.dtd">
<!-- Generated by graphviz version 2.44.1 (20200629.0846)
 -->
<!-- Title: Scene::remove Pages: 1 -->
<svg width="239pt" height="104pt"
 viewBox="0.00 0.00 239.00 104.00" xmlns="http://www.w3.org/2000/svg" xmlns:xlink="http://www.w3.org/1999/xlink">
<g id="graph0" class="graph" transform="scale(1 1) rotate(0) translate(4 100)">
<title>Scene::remove</title>
<polygon fill="white" stroke="transparent" points="-4,4 -4,-100 235,-100 235,4 -4,4"/>
<!-- Node1 -->
<g id="node1" class="node">
<title>Node1</title>
<g id="a_node1"><a xlink:title=" ">
<polygon fill="#bfbfbf" stroke="black" points="150,-38.5 150,-57.5 231,-57.5 231,-38.5 150,-38.5"/>
<text text-anchor="middle" x="190.5" y="-45.5" font-family="Helvetica,sans-Serif" font-size="10.00">Scene::remove</text>
</a>
</g>
</g>
<!-- Node2 -->
<g id="node2" class="node">
<title>Node2</title>
<g id="a_node2"><a xlink:href="class_transform.html#a1512e279c1952d25d4e0f6a75ad9414a" target="_top" xlink:title=" ">
<polygon fill="white" stroke="black" points="16.5,-76.5 16.5,-95.5 97.5,-95.5 97.5,-76.5 16.5,-76.5"/>
<text text-anchor="middle" x="57" y="-83.5" font-family="Helvetica,sans-Serif" font-size="10.00">Transform::add</text>
</a>
</g>
</g>
<!-- Node1&#45;&gt;Node2 -->
<g id="edge1" class="edge">
<title>Node1&#45;&gt;Node2</title>
<path fill="none" stroke="midnightblue" d="M146.62,-60.39C128.61,-65.59 107.99,-71.55 91.17,-76.41"/>
<polygon fill="midnightblue" stroke="midnightblue" points="147.68,-63.73 156.32,-57.59 145.74,-57 147.68,-63.73"/>
</g>
<!-- Node3 -->
<g id="node3" class="node">
<title>Node3</title>
<g id="a_node3"><a xlink:href="class_transform.html#a0c54fa70e0f0467753cd675ea2a5b2c6" target="_top" xlink:title=" ">
<polygon fill="white" stroke="black" points="3.5,-38.5 3.5,-57.5 110.5,-57.5 110.5,-38.5 3.5,-38.5"/>
<text text-anchor="middle" x="57" y="-45.5" font-family="Helvetica,sans-Serif" font-size="10.00">Transform::setScene</text>
</a>
</g>
</g>
<!-- Node1&#45;&gt;Node3 -->
<g id="edge2" class="edge">
<title>Node1&#45;&gt;Node3</title>
<path fill="none" stroke="midnightblue" d="M139.67,-48C130.23,-48 120.32,-48 110.79,-48"/>
<polygon fill="midnightblue" stroke="midnightblue" points="139.69,-51.5 149.69,-48 139.69,-44.5 139.69,-51.5"/>
</g>
<!-- Node4 -->
<g id="node4" class="node">
<title>Node4</title>
<g id="a_node4"><a xlink:href="class_transform.html#aa72e286c069850db80927b0e6554cd3e" target="_top" xlink:title=" ">
<polygon fill="white" stroke="black" points="0,-0.5 0,-19.5 114,-19.5 114,-0.5 0,-0.5"/>
<text text-anchor="middle" x="57" y="-7.5" font-family="Helvetica,sans-Serif" font-size="10.00">Transform::~Transform</text>
</a>
</g>
</g>
<!-- Node1&#45;&gt;Node4 -->
<g id="edge3" class="edge">
<title>Node1&#45;&gt;Node4</title>
<path fill="none" stroke="midnightblue" d="M146.62,-35.61C128.61,-30.41 107.99,-24.45 91.17,-19.59"/>
<polygon fill="midnightblue" stroke="midnightblue" points="145.74,-39 156.32,-38.41 147.68,-32.27 145.74,-39"/>
</g>
</g>
</svg>
