<?xml version="1.0" encoding="UTF-8" standalone="no"?>
<!DOCTYPE svg PUBLIC "-//W3C//DTD SVG 1.1//EN"
 "http://www.w3.org/Graphics/SVG/1.1/DTD/svg11.dtd">
<!-- Generated by graphviz version 2.44.1 (20200629.0846)
 -->
<!-- Title: OpenGLContext::OpenGLContext Pages: 1 -->
<svg width="868pt" height="387pt"
 viewBox="0.00 0.00 868.00 387.00" xmlns="http://www.w3.org/2000/svg" xmlns:xlink="http://www.w3.org/1999/xlink">
<g id="graph0" class="graph" transform="scale(1 1) rotate(0) translate(4 383)">
<title>OpenGLContext::OpenGLContext</title>
<polygon fill="white" stroke="transparent" points="-4,4 -4,-383 864,-383 864,4 -4,4"/>
<!-- Node1 -->
<g id="node1" class="node">
<title>Node1</title>
<g id="a_node1"><a xlink:title="Tries to initialize the OpenGL context.">
<polygon fill="#bfbfbf" stroke="black" points="0,-271.5 0,-290.5 162,-290.5 162,-271.5 0,-271.5"/>
<text text-anchor="middle" x="81" y="-278.5" font-family="Helvetica,sans-Serif" font-size="10.00">OpenGLContext::OpenGLContext</text>
</a>
</g>
</g>
<!-- Node2 -->
<g id="node2" class="node">
<title>Node2</title>
<g id="a_node2"><a xlink:href="_open_g_l_context_8cpp.html#ae9f4b850e6ccff72bf6da71038d9687f" target="_top" xlink:title=" ">
<polygon fill="white" stroke="black" points="231,-359.5 231,-378.5 305,-378.5 305,-359.5 231,-359.5"/>
<text text-anchor="middle" x="268" y="-366.5" font-family="Helvetica,sans-Serif" font-size="10.00">errorCallback</text>
</a>
</g>
</g>
<!-- Node1&#45;&gt;Node2 -->
<g id="edge1" class="edge">
<title>Node1&#45;&gt;Node2</title>
<path fill="none" stroke="midnightblue" d="M95.29,-290.53C116.22,-305.16 158.55,-333.2 198,-350 205.31,-353.12 213.28,-355.86 221.12,-358.23"/>
<polygon fill="midnightblue" stroke="midnightblue" points="220.35,-361.64 230.92,-361.02 222.26,-354.91 220.35,-361.64"/>
</g>
<!-- Node3 -->
<g id="node3" class="node">
<title>Node3</title>
<g id="a_node3"><a xlink:href="class_open_g_l_context.html#a931f484e8171a7bc3124d88c79af724a" target="_top" xlink:title="GLFW framebuffer size update callback.">
<polygon fill="white" stroke="black" points="198,-310 198,-340 338,-340 338,-310 198,-310"/>
<text text-anchor="start" x="206" y="-328" font-family="Helvetica,sans-Serif" font-size="10.00">OpenGLContext::framebuffer</text>
<text text-anchor="middle" x="268" y="-317" font-family="Helvetica,sans-Serif" font-size="10.00">SizeCallback</text>
</a>
</g>
</g>
<!-- Node1&#45;&gt;Node3 -->
<g id="edge2" class="edge">
<title>Node1&#45;&gt;Node3</title>
<path fill="none" stroke="midnightblue" d="M122.14,-290.55C143.06,-295.52 169.31,-301.77 193.7,-307.57"/>
<polygon fill="midnightblue" stroke="midnightblue" points="193.12,-311.03 203.66,-309.93 194.74,-304.22 193.12,-311.03"/>
</g>
<!-- Node4 -->
<g id="node4" class="node">
<title>Node4</title>
<g id="a_node4"><a xlink:href="class_open_g_l_context.html#a0e507940d976e0bacfaf734ef177b3b7" target="_top" xlink:title=" ">
<polygon fill="white" stroke="black" points="374,-293.5 374,-312.5 537,-312.5 537,-293.5 374,-293.5"/>
<text text-anchor="middle" x="455.5" y="-300.5" font-family="Helvetica,sans-Serif" font-size="10.00">OpenGLContext::runningContexts</text>
</a>
</g>
</g>
<!-- Node1&#45;&gt;Node4 -->
<g id="edge5" class="edge">
<title>Node1&#45;&gt;Node4</title>
<path fill="none" stroke="midnightblue" d="M162.37,-285.75C221.63,-289.25 302.3,-294.01 363.86,-297.65"/>
<polygon fill="midnightblue" stroke="midnightblue" points="363.77,-301.15 373.95,-298.24 364.18,-294.16 363.77,-301.15"/>
</g>
<!-- Node5 -->
<g id="node5" class="node">
<title>Node5</title>
<g id="a_node5"><a xlink:href="_open_g_l_context_8cpp.html#af833243b97061a22e702b3b11a7b647c" target="_top" xlink:title=" ">
<polygon fill="white" stroke="black" points="227.5,-233.5 227.5,-252.5 308.5,-252.5 308.5,-233.5 227.5,-233.5"/>
<text text-anchor="middle" x="268" y="-240.5" font-family="Helvetica,sans-Serif" font-size="10.00">glDebugOutput</text>
</a>
</g>
</g>
<!-- Node1&#45;&gt;Node5 -->
<g id="edge4" class="edge">
<title>Node1&#45;&gt;Node5</title>
<path fill="none" stroke="midnightblue" d="M128.68,-271.41C155.76,-265.85 189.84,-258.85 217.4,-253.19"/>
<polygon fill="midnightblue" stroke="midnightblue" points="218.14,-256.61 227.23,-251.17 216.73,-249.75 218.14,-256.61"/>
</g>
<!-- Node6 -->
<g id="node6" class="node">
<title>Node6</title>
<g id="a_node6"><a xlink:href="class_player_input.html#ac4b822917a8be991362091d2da7883e8" target="_top" xlink:title=" ">
<polygon fill="white" stroke="black" points="204,-195.5 204,-214.5 332,-214.5 332,-195.5 204,-195.5"/>
<text text-anchor="middle" x="268" y="-202.5" font-family="Helvetica,sans-Serif" font-size="10.00">PlayerInput::tryMakeInput</text>
</a>
</g>
</g>
<!-- Node1&#45;&gt;Node6 -->
<g id="edge6" class="edge">
<title>Node1&#45;&gt;Node6</title>
<path fill="none" stroke="midnightblue" d="M98.84,-271.47C121.03,-259.21 161.5,-237.85 198,-224 204.24,-221.63 210.91,-219.42 217.54,-217.4"/>
<polygon fill="midnightblue" stroke="midnightblue" points="218.56,-220.75 227.18,-214.59 216.6,-214.03 218.56,-220.75"/>
</g>
<!-- Node3&#45;&gt;Node4 -->
<g id="edge3" class="edge">
<title>Node3&#45;&gt;Node4</title>
<path fill="none" stroke="midnightblue" d="M338.07,-316.81C346.51,-315.81 355.23,-314.77 363.93,-313.74"/>
<polygon fill="midnightblue" stroke="midnightblue" points="364.59,-317.19 374.11,-312.53 363.76,-310.24 364.59,-317.19"/>
</g>
<!-- Node7 -->
<g id="node7" class="node">
<title>Node7</title>
<g id="a_node7"><a xlink:href="class_player_input.html#a41e31d5aa4a11ed2a3058e31210d5109" target="_top" xlink:title="The map of GLFW windows to their associated PlayerInput instances.">
<polygon fill="white" stroke="black" points="749,-115.5 749,-134.5 860,-134.5 860,-115.5 749,-115.5"/>
<text text-anchor="middle" x="804.5" y="-122.5" font-family="Helvetica,sans-Serif" font-size="10.00">PlayerInput::inputMap</text>
</a>
</g>
</g>
<!-- Node6&#45;&gt;Node7 -->
<g id="edge7" class="edge">
<title>Node6&#45;&gt;Node7</title>
<path fill="none" stroke="midnightblue" d="M301.86,-214.55C377.8,-234.79 569.89,-275.51 713,-216 748.46,-201.25 777.2,-165.11 792.19,-143.07"/>
<polygon fill="midnightblue" stroke="midnightblue" points="795.19,-144.87 797.75,-134.59 789.34,-141.03 795.19,-144.87"/>
</g>
<!-- Node8 -->
<g id="node8" class="node">
<title>Node8</title>
<g id="a_node8"><a xlink:href="class_player_input.html#ac7e7f65b22d437bc66ac1eaeb91c0d99" target="_top" xlink:title=" ">
<polygon fill="white" stroke="black" points="395.5,-115.5 395.5,-134.5 515.5,-134.5 515.5,-115.5 395.5,-115.5"/>
<text text-anchor="middle" x="455.5" y="-122.5" font-family="Helvetica,sans-Serif" font-size="10.00">PlayerInput::PlayerInput</text>
</a>
</g>
</g>
<!-- Node6&#45;&gt;Node8 -->
<g id="edge8" class="edge">
<title>Node6&#45;&gt;Node8</title>
<path fill="none" stroke="midnightblue" d="M291.38,-195.35C324.19,-181.2 385.53,-154.75 422.92,-138.62"/>
<polygon fill="midnightblue" stroke="midnightblue" points="424.54,-141.73 432.33,-134.56 421.77,-135.31 424.54,-141.73"/>
</g>
<!-- Node9 -->
<g id="node9" class="node">
<title>Node9</title>
<g id="a_node9"><a xlink:href="class_player_input.html#a1159455dba7ecb31c935c4a51afb15c7" target="_top" xlink:title=" ">
<polygon fill="white" stroke="black" points="579,-176 579,-206 707,-206 707,-176 579,-176"/>
<text text-anchor="start" x="587" y="-194" font-family="Helvetica,sans-Serif" font-size="10.00">PlayerInput::handleCursor</text>
<text text-anchor="middle" x="643" y="-183" font-family="Helvetica,sans-Serif" font-size="10.00">Position</text>
</a>
</g>
</g>
<!-- Node8&#45;&gt;Node9 -->
<g id="edge9" class="edge">
<title>Node8&#45;&gt;Node9</title>
<path fill="none" stroke="midnightblue" d="M483.47,-134.6C511.3,-144.5 555.41,-160.19 590.04,-172.51"/>
<polygon fill="midnightblue" stroke="midnightblue" points="588.95,-175.84 599.54,-175.89 591.29,-169.24 588.95,-175.84"/>
</g>
<!-- Node10 -->
<g id="node10" class="node">
<title>Node10</title>
<g id="a_node10"><a xlink:href="class_player_input.html#afb9d2e949dbd3d69c36e5d5519e43824" target="_top" xlink:title=" ">
<polygon fill="white" stroke="black" points="574,-137.5 574,-156.5 712,-156.5 712,-137.5 574,-137.5"/>
<text text-anchor="middle" x="643" y="-144.5" font-family="Helvetica,sans-Serif" font-size="10.00">PlayerInput::handleKeyInput</text>
</a>
</g>
</g>
<!-- Node8&#45;&gt;Node10 -->
<g id="edge11" class="edge">
<title>Node8&#45;&gt;Node10</title>
<path fill="none" stroke="midnightblue" d="M515.7,-132.02C531.07,-133.84 547.86,-135.83 564.03,-137.75"/>
<polygon fill="midnightblue" stroke="midnightblue" points="563.65,-141.23 574,-138.94 564.48,-134.28 563.65,-141.23"/>
</g>
<!-- Node11 -->
<g id="node11" class="node">
<title>Node11</title>
<g id="a_node11"><a xlink:href="class_player_input.html#aba00f66210c0c6569823c25afda4a5da" target="_top" xlink:title=" ">
<polygon fill="white" stroke="black" points="578.5,-88 578.5,-118 707.5,-118 707.5,-88 578.5,-88"/>
<text text-anchor="start" x="586.5" y="-106" font-family="Helvetica,sans-Serif" font-size="10.00">PlayerInput::handleMouse</text>
<text text-anchor="middle" x="643" y="-95" font-family="Helvetica,sans-Serif" font-size="10.00">ButtonInput</text>
</a>
</g>
</g>
<!-- Node8&#45;&gt;Node11 -->
<g id="edge13" class="edge">
<title>Node8&#45;&gt;Node11</title>
<path fill="none" stroke="midnightblue" d="M515.7,-117.98C532.37,-116 550.7,-113.83 568.11,-111.76"/>
<polygon fill="midnightblue" stroke="midnightblue" points="568.71,-115.22 578.23,-110.56 567.89,-108.27 568.71,-115.22"/>
</g>
<!-- Node12 -->
<g id="node12" class="node">
<title>Node12</title>
<g id="a_node12"><a xlink:href="class_player_input.html#a48150e7bcc0b23258071f59ff2636590" target="_top" xlink:title=" ">
<polygon fill="white" stroke="black" points="580.5,-39 580.5,-69 705.5,-69 705.5,-39 580.5,-39"/>
<text text-anchor="start" x="588.5" y="-57" font-family="Helvetica,sans-Serif" font-size="10.00">PlayerInput::handleScroll</text>
<text text-anchor="middle" x="643" y="-46" font-family="Helvetica,sans-Serif" font-size="10.00">Input</text>
</a>
</g>
</g>
<!-- Node8&#45;&gt;Node12 -->
<g id="edge15" class="edge">
<title>Node8&#45;&gt;Node12</title>
<path fill="none" stroke="midnightblue" d="M480.08,-115.46C503.55,-106.02 540.66,-91.24 573,-79 578.57,-76.89 584.41,-74.72 590.23,-72.57"/>
<polygon fill="midnightblue" stroke="midnightblue" points="591.78,-75.74 599.97,-69.01 589.37,-69.16 591.78,-75.74"/>
</g>
<!-- Node13 -->
<g id="node13" class="node">
<title>Node13</title>
<g id="a_node13"><a xlink:href="class_player_input.html#af99688e0116feca7e153e551a056fd24" target="_top" xlink:title=" ">
<polygon fill="white" stroke="black" points="573,-0.5 573,-19.5 713,-19.5 713,-0.5 573,-0.5"/>
<text text-anchor="middle" x="643" y="-7.5" font-family="Helvetica,sans-Serif" font-size="10.00">PlayerInput::handleTextInput</text>
</a>
</g>
</g>
<!-- Node8&#45;&gt;Node13 -->
<g id="edge17" class="edge">
<title>Node8&#45;&gt;Node13</title>
<path fill="none" stroke="midnightblue" d="M465.47,-115.26C483.79,-95.92 527.65,-52.55 573,-29 577.5,-26.66 582.32,-24.59 587.25,-22.75"/>
<polygon fill="midnightblue" stroke="midnightblue" points="588.45,-26.04 596.79,-19.5 586.19,-19.41 588.45,-26.04"/>
</g>
<!-- Node9&#45;&gt;Node7 -->
<g id="edge10" class="edge">
<title>Node9&#45;&gt;Node7</title>
<path fill="none" stroke="midnightblue" d="M687.26,-175.91C695.84,-172.75 704.74,-169.36 713,-166 733.76,-157.55 756.76,-147.12 774.38,-138.89"/>
<polygon fill="midnightblue" stroke="midnightblue" points="776,-141.99 783.57,-134.57 773.03,-135.66 776,-141.99"/>
</g>
<!-- Node10&#45;&gt;Node7 -->
<g id="edge12" class="edge">
<title>Node10&#45;&gt;Node7</title>
<path fill="none" stroke="midnightblue" d="M712.11,-137.61C720.87,-136.4 729.82,-135.16 738.53,-133.96"/>
<polygon fill="midnightblue" stroke="midnightblue" points="739.2,-137.4 748.62,-132.57 738.24,-130.47 739.2,-137.4"/>
</g>
<!-- Node11&#45;&gt;Node7 -->
<g id="edge14" class="edge">
<title>Node11&#45;&gt;Node7</title>
<path fill="none" stroke="midnightblue" d="M707.96,-111.82C718.1,-113.22 728.59,-114.67 738.75,-116.07"/>
<polygon fill="midnightblue" stroke="midnightblue" points="738.39,-119.55 748.77,-117.45 739.34,-112.62 738.39,-119.55"/>
</g>
<!-- Node12&#45;&gt;Node7 -->
<g id="edge16" class="edge">
<title>Node12&#45;&gt;Node7</title>
<path fill="none" stroke="midnightblue" d="M688.12,-69.07C696.46,-72.18 705.05,-75.55 713,-79 734.97,-88.52 759.1,-100.89 776.92,-110.4"/>
<polygon fill="midnightblue" stroke="midnightblue" points="775.65,-113.7 786.12,-115.36 778.98,-107.53 775.65,-113.7"/>
</g>
<!-- Node13&#45;&gt;Node7 -->
<g id="edge18" class="edge">
<title>Node13&#45;&gt;Node7</title>
<path fill="none" stroke="midnightblue" d="M692.17,-19.6C699.43,-22.07 706.61,-25.16 713,-29 746.66,-49.26 775.83,-85.46 791.43,-107.15"/>
<polygon fill="midnightblue" stroke="midnightblue" points="788.65,-109.28 797.26,-115.47 794.39,-105.27 788.65,-109.28"/>
</g>
</g>
</svg>
