<?xml version="1.0" encoding="UTF-8" standalone="no"?>
<!DOCTYPE svg PUBLIC "-//W3C//DTD SVG 1.1//EN"
 "http://www.w3.org/Graphics/SVG/1.1/DTD/svg11.dtd">
<!-- Generated by graphviz version 2.44.1 (20200629.0846)
 -->
<!-- Title: Camera::update Pages: 1 -->
<svg width="237pt" height="66pt"
 viewBox="0.00 0.00 237.00 66.00" xmlns="http://www.w3.org/2000/svg" xmlns:xlink="http://www.w3.org/1999/xlink">
<g id="graph0" class="graph" transform="scale(1 1) rotate(0) translate(4 62)">
<title>Camera::update</title>
<polygon fill="white" stroke="transparent" points="-4,4 -4,-62 233,-62 233,4 -4,4"/>
<!-- Node1 -->
<g id="node1" class="node">
<title>Node1</title>
<g id="a_node1"><a xlink:title=" ">
<polygon fill="#bfbfbf" stroke="black" points="143,-19.5 143,-38.5 229,-38.5 229,-19.5 143,-19.5"/>
<text text-anchor="middle" x="186" y="-26.5" font-family="Helvetica,sans-Serif" font-size="10.00">Camera::update</text>
</a>
</g>
</g>
<!-- Node2 -->
<g id="node2" class="node">
<title>Node2</title>
<g id="a_node2"><a xlink:href="class_renderer.html#ab28d1a8538913a0a72130ba64af5a938" target="_top" xlink:title=" ">
<polygon fill="white" stroke="black" points="9,-38.5 9,-57.5 98,-57.5 98,-38.5 9,-38.5"/>
<text text-anchor="middle" x="53.5" y="-45.5" font-family="Helvetica,sans-Serif" font-size="10.00">Renderer::render</text>
</a>
</g>
</g>
<!-- Node1&#45;&gt;Node2 -->
<g id="edge1" class="edge">
<title>Node1&#45;&gt;Node2</title>
<path fill="none" stroke="midnightblue" d="M133.04,-36.56C121.51,-38.24 109.39,-40.01 98.23,-41.63"/>
<polygon fill="midnightblue" stroke="midnightblue" points="133.6,-40.02 142.99,-35.12 132.59,-33.09 133.6,-40.02"/>
</g>
<!-- Node3 -->
<g id="node3" class="node">
<title>Node3</title>
<g id="a_node3"><a xlink:href="class_orbit_camera.html#a65d5df2a3a79021fb4b88d1bb8ee079d" target="_top" xlink:title=" ">
<polygon fill="white" stroke="black" points="0,-0.5 0,-19.5 107,-19.5 107,-0.5 0,-0.5"/>
<text text-anchor="middle" x="53.5" y="-7.5" font-family="Helvetica,sans-Serif" font-size="10.00">OrbitCamera::update</text>
</a>
</g>
</g>
<!-- Node1&#45;&gt;Node3 -->
<g id="edge2" class="edge">
<title>Node1&#45;&gt;Node3</title>
<path fill="none" stroke="midnightblue" d="M132.94,-21.42C124.54,-20.2 115.84,-18.93 107.43,-17.71"/>
<polygon fill="midnightblue" stroke="midnightblue" points="132.59,-24.91 142.99,-22.88 133.6,-17.98 132.59,-24.91"/>
</g>
</g>
</svg>
