<?xml version="1.0" encoding="UTF-8" standalone="no"?>
<!DOCTYPE svg PUBLIC "-//W3C//DTD SVG 1.1//EN"
 "http://www.w3.org/Graphics/SVG/1.1/DTD/svg11.dtd">
<!-- Generated by graphviz version 2.44.1 (20200629.0846)
 -->
<!-- Title: kryne&#45;engine/src Pages: 1 -->
<svg width="948pt" height="159pt"
 viewBox="0.00 0.00 948.00 159.00" xmlns="http://www.w3.org/2000/svg" xmlns:xlink="http://www.w3.org/1999/xlink">
<g id="graph0" class="graph" transform="scale(1 1) rotate(0) translate(4 155)">
<title>kryne&#45;engine/src</title>
<polygon fill="white" stroke="transparent" points="-4,4 -4,-155 944,-155 944,4 -4,4"/>
<g id="clust1" class="cluster">
<title>clusterdir_0cd0f52426aabb843978d64903b548c1</title>
<g id="a_clust1"><a xlink:href="dir_0cd0f52426aabb843978d64903b548c1.html" target="_top" xlink:title="kryne&#45;engine">
<polygon fill="#ddddee" stroke="black" points="8,-56 8,-143 932,-143 932,-56 8,-56"/>
<text text-anchor="middle" x="470" y="-131" font-family="Helvetica,sans-Serif" font-size="10.00">kryne&#45;engine</text>
</a>
</g>
</g>
<g id="clust2" class="cluster">
<title>clusterdir_e64d8accee669ac6c3524e778fb34887</title>
<g id="a_clust2"><a xlink:href="dir_e64d8accee669ac6c3524e778fb34887.html" target="_top">
<polygon fill="#eeeeff" stroke="black" points="16,-64 16,-116 924,-116 924,-64 16,-64"/>
</a>
</g>
</g>
<!-- dir_e64d8accee669ac6c3524e778fb34887 -->
<g id="node1" class="node">
<title>dir_e64d8accee669ac6c3524e778fb34887</title>
<text text-anchor="middle" x="889" y="-87.5" font-family="Helvetica,sans-Serif" font-size="10.00">src</text>
</g>
<!-- dir_b74527dd2d49091317248ecc2a492738 -->
<g id="node2" class="node">
<title>dir_b74527dd2d49091317248ecc2a492738</title>
<g id="a_node2"><a xlink:href="dir_b74527dd2d49091317248ecc2a492738.html" target="_top" xlink:title="3DObjects">
<polygon fill="white" stroke="red" points="844,-108 782,-108 782,-72 844,-72 844,-108"/>
<text text-anchor="middle" x="813" y="-87.5" font-family="Helvetica,sans-Serif" font-size="10.00">3DObjects</text>
</a>
</g>
</g>
<!-- dir_6fe37ccbf5e97356f3116a77abbef924 -->
<g id="node13" class="node">
<title>dir_6fe37ccbf5e97356f3116a77abbef924</title>
<g id="a_node13"><a xlink:href="dir_6fe37ccbf5e97356f3116a77abbef924.html" target="_top" xlink:title="include">
<polygon fill="white" stroke="red" points="470,-36 416,-36 416,0 470,0 470,-36"/>
<text text-anchor="middle" x="443" y="-15.5" font-family="Helvetica,sans-Serif" font-size="10.00">include</text>
</a>
</g>
</g>
<!-- dir_b74527dd2d49091317248ecc2a492738&#45;&gt;dir_6fe37ccbf5e97356f3116a77abbef924 -->
<g id="edge11" class="edge">
<title>dir_b74527dd2d49091317248ecc2a492738&#45;&gt;dir_6fe37ccbf5e97356f3116a77abbef924</title>
<path fill="none" stroke="black" d="M796.56,-71.78C789.84,-65.78 781.62,-59.65 773,-56 721.01,-33.98 555.4,-23.99 480.46,-20.52"/>
<polygon fill="black" stroke="black" points="480.24,-17.01 470.09,-20.05 479.92,-24 480.24,-17.01"/>
<g id="a_edge11&#45;headlabel"><a xlink:href="dir_000020_000001.html" target="_top" xlink:title="9">
<text text-anchor="middle" x="483.96" y="-11.83" font-family="Helvetica,sans-Serif" font-size="10.00">9</text>
</a>
</g>
</g>
<!-- dir_b93db4966c5d010c3ed0894974e7f210 -->
<g id="node3" class="node">
<title>dir_b93db4966c5d010c3ed0894974e7f210</title>
<g id="a_node3"><a xlink:href="dir_b93db4966c5d010c3ed0894974e7f210.html" target="_top" xlink:title="Camera">
<polygon fill="white" stroke="black" points="764,-108 710,-108 710,-72 764,-72 764,-108"/>
<text text-anchor="middle" x="737" y="-87.5" font-family="Helvetica,sans-Serif" font-size="10.00">Camera</text>
</a>
</g>
</g>
<!-- dir_b93db4966c5d010c3ed0894974e7f210&#45;&gt;dir_6fe37ccbf5e97356f3116a77abbef924 -->
<g id="edge7" class="edge">
<title>dir_b93db4966c5d010c3ed0894974e7f210&#45;&gt;dir_6fe37ccbf5e97356f3116a77abbef924</title>
<path fill="none" stroke="black" d="M722.43,-71.9C716.41,-65.93 708.97,-59.77 701,-56 662.63,-37.83 541.89,-26.42 480.15,-21.62"/>
<polygon fill="black" stroke="black" points="480.29,-18.12 470.06,-20.85 479.76,-25.1 480.29,-18.12"/>
<g id="a_edge7&#45;headlabel"><a xlink:href="dir_000022_000001.html" target="_top" xlink:title="5">
<text text-anchor="middle" x="484.09" y="-13.06" font-family="Helvetica,sans-Serif" font-size="10.00">5</text>
</a>
</g>
</g>
<!-- dir_92cbc7589014e9a79f24556415023b95 -->
<g id="node4" class="node">
<title>dir_92cbc7589014e9a79f24556415023b95</title>
<g id="a_node4"><a xlink:href="dir_92cbc7589014e9a79f24556415023b95.html" target="_top" xlink:title="Core">
<polygon fill="white" stroke="black" points="692,-108 638,-108 638,-72 692,-72 692,-108"/>
<text text-anchor="middle" x="665" y="-87.5" font-family="Helvetica,sans-Serif" font-size="10.00">Core</text>
</a>
</g>
</g>
<!-- dir_92cbc7589014e9a79f24556415023b95&#45;&gt;dir_6fe37ccbf5e97356f3116a77abbef924 -->
<g id="edge10" class="edge">
<title>dir_92cbc7589014e9a79f24556415023b95&#45;&gt;dir_6fe37ccbf5e97356f3116a77abbef924</title>
<path fill="none" stroke="black" d="M649.97,-71.79C644,-65.94 636.71,-59.91 629,-56 581.35,-31.85 519.39,-23.45 480.4,-20.53"/>
<polygon fill="black" stroke="black" points="480.25,-17.02 470.04,-19.85 479.79,-24 480.25,-17.02"/>
<g id="a_edge10&#45;headlabel"><a xlink:href="dir_000023_000001.html" target="_top" xlink:title="5">
<text text-anchor="middle" x="484.02" y="-11.92" font-family="Helvetica,sans-Serif" font-size="10.00">5</text>
</a>
</g>
</g>
<!-- dir_3391013c5bcc9f682b8a49c140fcf924 -->
<g id="node5" class="node">
<title>dir_3391013c5bcc9f682b8a49c140fcf924</title>
<g id="a_node5"><a xlink:href="dir_3391013c5bcc9f682b8a49c140fcf924.html" target="_top" xlink:title="Geometry">
<polygon fill="white" stroke="black" points="619.5,-108 560.5,-108 560.5,-72 619.5,-72 619.5,-108"/>
<text text-anchor="middle" x="590" y="-87.5" font-family="Helvetica,sans-Serif" font-size="10.00">Geometry</text>
</a>
</g>
</g>
<!-- dir_3391013c5bcc9f682b8a49c140fcf924&#45;&gt;dir_6fe37ccbf5e97356f3116a77abbef924 -->
<g id="edge4" class="edge">
<title>dir_3391013c5bcc9f682b8a49c140fcf924&#45;&gt;dir_6fe37ccbf5e97356f3116a77abbef924</title>
<path fill="none" stroke="black" d="M572.41,-71.71C566.05,-66.13 558.56,-60.29 551,-56 528.83,-43.42 501.67,-34.14 480.14,-28.02"/>
<polygon fill="black" stroke="black" points="480.94,-24.61 470.37,-25.35 479.09,-31.36 480.94,-24.61"/>
<g id="a_edge4&#45;headlabel"><a xlink:href="dir_000024_000001.html" target="_top" xlink:title="3">
<text text-anchor="middle" x="485.15" y="-20.32" font-family="Helvetica,sans-Serif" font-size="10.00">3</text>
</a>
</g>
</g>
<!-- dir_1f199a757349aa63e13d1341c40df77b -->
<g id="node6" class="node">
<title>dir_1f199a757349aa63e13d1341c40df77b</title>
<g id="a_node6"><a xlink:href="dir_1f199a757349aa63e13d1341c40df77b.html" target="_top" xlink:title="Input">
<polygon fill="white" stroke="black" points="542,-108 488,-108 488,-72 542,-72 542,-108"/>
<text text-anchor="middle" x="515" y="-87.5" font-family="Helvetica,sans-Serif" font-size="10.00">Input</text>
</a>
</g>
</g>
<!-- dir_1f199a757349aa63e13d1341c40df77b&#45;&gt;dir_6fe37ccbf5e97356f3116a77abbef924 -->
<g id="edge2" class="edge">
<title>dir_1f199a757349aa63e13d1341c40df77b&#45;&gt;dir_6fe37ccbf5e97356f3116a77abbef924</title>
<path fill="none" stroke="black" d="M497.2,-71.7C488.4,-63.14 477.62,-52.66 468,-43.3"/>
<polygon fill="black" stroke="black" points="470.2,-40.57 460.59,-36.1 465.32,-45.58 470.2,-40.57"/>
<g id="a_edge2&#45;headlabel"><a xlink:href="dir_000025_000001.html" target="_top" xlink:title="1">
<text text-anchor="middle" x="474.76" y="-38.54" font-family="Helvetica,sans-Serif" font-size="10.00">1</text>
</a>
</g>
</g>
<!-- dir_0b70d3ad23cb9015fe8eee151686e712 -->
<g id="node7" class="node">
<title>dir_0b70d3ad23cb9015fe8eee151686e712</title>
<g id="a_node7"><a xlink:href="dir_0b70d3ad23cb9015fe8eee151686e712.html" target="_top" xlink:title="Light">
<polygon fill="white" stroke="black" points="470,-108 416,-108 416,-72 470,-72 470,-108"/>
<text text-anchor="middle" x="443" y="-87.5" font-family="Helvetica,sans-Serif" font-size="10.00">Light</text>
</a>
</g>
</g>
<!-- dir_0b70d3ad23cb9015fe8eee151686e712&#45;&gt;dir_6fe37ccbf5e97356f3116a77abbef924 -->
<g id="edge8" class="edge">
<title>dir_0b70d3ad23cb9015fe8eee151686e712&#45;&gt;dir_6fe37ccbf5e97356f3116a77abbef924</title>
<path fill="none" stroke="black" d="M443,-71.7C443,-63.98 443,-54.71 443,-46.11"/>
<polygon fill="black" stroke="black" points="446.5,-46.1 443,-36.1 439.5,-46.1 446.5,-46.1"/>
<g id="a_edge8&#45;headlabel"><a xlink:href="dir_000026_000001.html" target="_top" xlink:title="3">
<text text-anchor="middle" x="449.34" y="-47.2" font-family="Helvetica,sans-Serif" font-size="10.00">3</text>
</a>
</g>
</g>
<!-- dir_de161436e9bf4de9e89567cd109ce04b -->
<g id="node8" class="node">
<title>dir_de161436e9bf4de9e89567cd109ce04b</title>
<g id="a_node8"><a xlink:href="dir_de161436e9bf4de9e89567cd109ce04b.html" target="_top" xlink:title="Material">
<polygon fill="white" stroke="black" points="398,-108 344,-108 344,-72 398,-72 398,-108"/>
<text text-anchor="middle" x="371" y="-87.5" font-family="Helvetica,sans-Serif" font-size="10.00">Material</text>
</a>
</g>
</g>
<!-- dir_de161436e9bf4de9e89567cd109ce04b&#45;&gt;dir_6fe37ccbf5e97356f3116a77abbef924 -->
<g id="edge1" class="edge">
<title>dir_de161436e9bf4de9e89567cd109ce04b&#45;&gt;dir_6fe37ccbf5e97356f3116a77abbef924</title>
<path fill="none" stroke="black" d="M388.8,-71.7C397.6,-63.14 408.38,-52.66 418,-43.3"/>
<polygon fill="black" stroke="black" points="420.68,-45.58 425.41,-36.1 415.8,-40.57 420.68,-45.58"/>
<g id="a_edge1&#45;headlabel"><a xlink:href="dir_000027_000001.html" target="_top" xlink:title="4">
<text text-anchor="middle" x="420.08" y="-47.63" font-family="Helvetica,sans-Serif" font-size="10.00">4</text>
</a>
</g>
</g>
<!-- dir_8b929e06e38a05ae31148eaa49097c9f -->
<g id="node9" class="node">
<title>dir_8b929e06e38a05ae31148eaa49097c9f</title>
<g id="a_node9"><a xlink:href="dir_8b929e06e38a05ae31148eaa49097c9f.html" target="_top" xlink:title="Rendering">
<polygon fill="white" stroke="red" points="326,-108 266,-108 266,-72 326,-72 326,-108"/>
<text text-anchor="middle" x="296" y="-87.5" font-family="Helvetica,sans-Serif" font-size="10.00">Rendering</text>
</a>
</g>
</g>
<!-- dir_8b929e06e38a05ae31148eaa49097c9f&#45;&gt;dir_6fe37ccbf5e97356f3116a77abbef924 -->
<g id="edge3" class="edge">
<title>dir_8b929e06e38a05ae31148eaa49097c9f&#45;&gt;dir_6fe37ccbf5e97356f3116a77abbef924</title>
<path fill="none" stroke="black" d="M313.59,-71.71C319.95,-66.13 327.44,-60.29 335,-56 357.17,-43.42 384.33,-34.14 405.86,-28.02"/>
<polygon fill="black" stroke="black" points="406.91,-31.36 415.63,-25.35 405.06,-24.61 406.91,-31.36"/>
<g id="a_edge3&#45;headlabel"><a xlink:href="dir_000028_000001.html" target="_top" xlink:title="6">
<text text-anchor="middle" x="404.19" y="-32.55" font-family="Helvetica,sans-Serif" font-size="10.00">6</text>
</a>
</g>
</g>
<!-- dir_1c45a02320653894bd8d2b22a856dda1 -->
<g id="node10" class="node">
<title>dir_1c45a02320653894bd8d2b22a856dda1</title>
<g id="a_node10"><a xlink:href="dir_1c45a02320653894bd8d2b22a856dda1.html" target="_top" xlink:title="RenderTargets">
<polygon fill="white" stroke="black" points="248,-108 168,-108 168,-72 248,-72 248,-108"/>
<text text-anchor="middle" x="208" y="-87.5" font-family="Helvetica,sans-Serif" font-size="10.00">RenderTargets</text>
</a>
</g>
</g>
<!-- dir_1c45a02320653894bd8d2b22a856dda1&#45;&gt;dir_6fe37ccbf5e97356f3116a77abbef924 -->
<g id="edge9" class="edge">
<title>dir_1c45a02320653894bd8d2b22a856dda1&#45;&gt;dir_6fe37ccbf5e97356f3116a77abbef924</title>
<path fill="none" stroke="black" d="M229.38,-71.91C237.6,-66.08 247.34,-60.02 257,-56 306.04,-35.58 367.14,-26.2 405.62,-22.06"/>
<polygon fill="black" stroke="black" points="406.25,-25.52 415.85,-21.03 405.55,-18.55 406.25,-25.52"/>
<g id="a_edge9&#45;headlabel"><a xlink:href="dir_000030_000001.html" target="_top" xlink:title="3">
<text text-anchor="middle" x="402.96" y="-26.2" font-family="Helvetica,sans-Serif" font-size="10.00">3</text>
</a>
</g>
</g>
<!-- dir_b1dcf60ba8e478127530acf114ec2bf5 -->
<g id="node11" class="node">
<title>dir_b1dcf60ba8e478127530acf114ec2bf5</title>
<g id="a_node11"><a xlink:href="dir_b1dcf60ba8e478127530acf114ec2bf5.html" target="_top" xlink:title="Textures">
<polygon fill="white" stroke="black" points="150,-108 96,-108 96,-72 150,-72 150,-108"/>
<text text-anchor="middle" x="123" y="-87.5" font-family="Helvetica,sans-Serif" font-size="10.00">Textures</text>
</a>
</g>
</g>
<!-- dir_b1dcf60ba8e478127530acf114ec2bf5&#45;&gt;dir_6fe37ccbf5e97356f3116a77abbef924 -->
<g id="edge6" class="edge">
<title>dir_b1dcf60ba8e478127530acf114ec2bf5&#45;&gt;dir_6fe37ccbf5e97356f3116a77abbef924</title>
<path fill="none" stroke="black" d="M137.55,-71.85C143.57,-65.87 151.01,-59.72 159,-56 202,-35.98 338.65,-25.25 405.48,-21.08"/>
<polygon fill="black" stroke="black" points="405.81,-24.57 415.58,-20.47 405.39,-17.58 405.81,-24.57"/>
<g id="a_edge6&#45;headlabel"><a xlink:href="dir_000031_000001.html" target="_top" xlink:title="3">
<text text-anchor="middle" x="402.39" y="-25.12" font-family="Helvetica,sans-Serif" font-size="10.00">3</text>
</a>
</g>
</g>
<!-- dir_7a643c038b88be1a544a0300ec97309f -->
<g id="node12" class="node">
<title>dir_7a643c038b88be1a544a0300ec97309f</title>
<g id="a_node12"><a xlink:href="dir_7a643c038b88be1a544a0300ec97309f.html" target="_top" xlink:title="Utils">
<polygon fill="white" stroke="black" points="78,-108 24,-108 24,-72 78,-72 78,-108"/>
<text text-anchor="middle" x="51" y="-87.5" font-family="Helvetica,sans-Serif" font-size="10.00">Utils</text>
</a>
</g>
</g>
<!-- dir_7a643c038b88be1a544a0300ec97309f&#45;&gt;dir_6fe37ccbf5e97356f3116a77abbef924 -->
<g id="edge5" class="edge">
<title>dir_7a643c038b88be1a544a0300ec97309f&#45;&gt;dir_6fe37ccbf5e97356f3116a77abbef924</title>
<path fill="none" stroke="black" d="M65.5,-71.74C71.51,-65.74 78.96,-59.62 87,-56 143.27,-30.69 326.46,-22.38 405.8,-19.93"/>
<polygon fill="black" stroke="black" points="405.95,-23.43 415.84,-19.63 405.74,-16.43 405.95,-23.43"/>
<g id="a_edge5&#45;headlabel"><a xlink:href="dir_000032_000001.html" target="_top" xlink:title="1">
<text text-anchor="middle" x="402.44" y="-23.87" font-family="Helvetica,sans-Serif" font-size="10.00">1</text>
</a>
</g>
</g>
</g>
</svg>
