<?xml version="1.0" encoding="UTF-8" standalone="no"?>
<!DOCTYPE svg PUBLIC "-//W3C//DTD SVG 1.1//EN"
 "http://www.w3.org/Graphics/SVG/1.1/DTD/svg11.dtd">
<!-- Generated by graphviz version 2.44.1 (20200629.0846)
 -->
<!-- Title: kryne&#45;engine/src/Rendering Pages: 1 -->
<svg width="302pt" height="159pt"
 viewBox="0.00 0.00 302.00 159.00" xmlns="http://www.w3.org/2000/svg" xmlns:xlink="http://www.w3.org/1999/xlink">
<g id="graph0" class="graph" transform="scale(1 1) rotate(0) translate(4 155)">
<title>kryne&#45;engine/src/Rendering</title>
<polygon fill="white" stroke="transparent" points="-4,4 -4,-155 298,-155 298,4 -4,4"/>
<g id="clust1" class="cluster">
<title>clusterdir_e64d8accee669ac6c3524e778fb34887</title>
<g id="a_clust1"><a xlink:href="dir_e64d8accee669ac6c3524e778fb34887.html" target="_top" xlink:title="src">
<polygon fill="#ddddee" stroke="black" points="8,-56 8,-143 286,-143 286,-56 8,-56"/>
<text text-anchor="middle" x="147" y="-131" font-family="Helvetica,sans-Serif" font-size="10.00">src</text>
</a>
</g>
</g>
<g id="clust2" class="cluster">
<title>clusterdir_8b929e06e38a05ae31148eaa49097c9f</title>
<g id="a_clust2"><a xlink:href="dir_8b929e06e38a05ae31148eaa49097c9f.html" target="_top">
<polygon fill="#eeeeff" stroke="black" points="16,-64 16,-116 278,-116 278,-64 16,-64"/>
</a>
</g>
</g>
<!-- dir_8b929e06e38a05ae31148eaa49097c9f -->
<g id="node1" class="node">
<title>dir_8b929e06e38a05ae31148eaa49097c9f</title>
<text text-anchor="middle" x="240" y="-87.5" font-family="Helvetica,sans-Serif" font-size="10.00">Rendering</text>
</g>
<!-- dir_03ff4cffbce0daea7c9f93bd9f7b8139 -->
<g id="node2" class="node">
<title>dir_03ff4cffbce0daea7c9f93bd9f7b8139</title>
<g id="a_node2"><a xlink:href="dir_03ff4cffbce0daea7c9f93bd9f7b8139.html" target="_top" xlink:title="Renderers">
<polygon fill="white" stroke="black" points="191.5,-108 130.5,-108 130.5,-72 191.5,-72 191.5,-108"/>
<text text-anchor="middle" x="161" y="-87.5" font-family="Helvetica,sans-Serif" font-size="10.00">Renderers</text>
</a>
</g>
</g>
<!-- dir_6fe37ccbf5e97356f3116a77abbef924 -->
<g id="node4" class="node">
<title>dir_6fe37ccbf5e97356f3116a77abbef924</title>
<g id="a_node4"><a xlink:href="dir_6fe37ccbf5e97356f3116a77abbef924.html" target="_top" xlink:title="include">
<polygon fill="white" stroke="red" points="141,-36 87,-36 87,0 141,0 141,-36"/>
<text text-anchor="middle" x="114" y="-15.5" font-family="Helvetica,sans-Serif" font-size="10.00">include</text>
</a>
</g>
</g>
<!-- dir_03ff4cffbce0daea7c9f93bd9f7b8139&#45;&gt;dir_6fe37ccbf5e97356f3116a77abbef924 -->
<g id="edge1" class="edge">
<title>dir_03ff4cffbce0daea7c9f93bd9f7b8139&#45;&gt;dir_6fe37ccbf5e97356f3116a77abbef924</title>
<path fill="none" stroke="black" d="M149.38,-71.7C143.86,-63.47 137.15,-53.48 131.07,-44.42"/>
<polygon fill="black" stroke="black" points="133.96,-42.46 125.48,-36.1 128.15,-46.36 133.96,-42.46"/>
<g id="a_edge1&#45;headlabel"><a xlink:href="dir_000036_000001.html" target="_top" xlink:title="3">
<text text-anchor="middle" x="138.33" y="-41.36" font-family="Helvetica,sans-Serif" font-size="10.00">3</text>
</a>
</g>
</g>
<!-- dir_04c31614ba3d0f6a2eea0fd6d2d7aa64 -->
<g id="node3" class="node">
<title>dir_04c31614ba3d0f6a2eea0fd6d2d7aa64</title>
<g id="a_node3"><a xlink:href="dir_04c31614ba3d0f6a2eea0fd6d2d7aa64.html" target="_top" xlink:title="ShadowMapping">
<polygon fill="white" stroke="black" points="112,-108 24,-108 24,-72 112,-72 112,-108"/>
<text text-anchor="middle" x="68" y="-87.5" font-family="Helvetica,sans-Serif" font-size="10.00">ShadowMapping</text>
</a>
</g>
</g>
<!-- dir_04c31614ba3d0f6a2eea0fd6d2d7aa64&#45;&gt;dir_6fe37ccbf5e97356f3116a77abbef924 -->
<g id="edge2" class="edge">
<title>dir_04c31614ba3d0f6a2eea0fd6d2d7aa64&#45;&gt;dir_6fe37ccbf5e97356f3116a77abbef924</title>
<path fill="none" stroke="black" d="M79.37,-71.7C84.72,-63.56 91.2,-53.69 97.11,-44.7"/>
<polygon fill="black" stroke="black" points="100.19,-46.38 102.76,-36.1 94.34,-42.54 100.19,-46.38"/>
<g id="a_edge2&#45;headlabel"><a xlink:href="dir_000037_000001.html" target="_top" xlink:title="2">
<text text-anchor="middle" x="100.59" y="-48.45" font-family="Helvetica,sans-Serif" font-size="10.00">2</text>
</a>
</g>
</g>
</g>
</svg>
