<?xml version="1.0" encoding="UTF-8" standalone="no"?>
<!DOCTYPE svg PUBLIC "-//W3C//DTD SVG 1.1//EN"
 "http://www.w3.org/Graphics/SVG/1.1/DTD/svg11.dtd">
<!-- Generated by graphviz version 2.40.1 (20161225.0304)
 -->
<!-- Title: kryne&#45;engine/include Pages: 1 -->
<svg width="196pt" height="183pt"
 viewBox="0.00 0.00 196.00 183.00" xmlns="http://www.w3.org/2000/svg" xmlns:xlink="http://www.w3.org/1999/xlink">
<g id="graph0" class="graph" transform="scale(1 1) rotate(0) translate(4 179)">
<title>kryne&#45;engine/include</title>
<polygon fill="#ffffff" stroke="transparent" points="-4,4 -4,-179 192,-179 192,4 -4,4"/>
<g id="clust1" class="cluster">
<title>clusterdir_0cd0f52426aabb843978d64903b548c1</title>
<g id="a_clust1"><a xlink:href="dir_0cd0f52426aabb843978d64903b548c1.html" target="_top" xlink:title="kryne&#45;engine">
<polygon fill="#ddddee" stroke="#000000" points="8,-8 8,-167 180,-167 180,-8 8,-8"/>
<text text-anchor="middle" x="94" y="-155" font-family="Helvetica,sans-Serif" font-size="10.00" fill="#000000">kryne&#45;engine</text>
</a>
</g>
</g>
<g id="clust2" class="cluster">
<title>clusterdir_6fe37ccbf5e97356f3116a77abbef924</title>
<g id="a_clust2"><a xlink:href="dir_6fe37ccbf5e97356f3116a77abbef924.html" target="_top">
<polygon fill="#eeeeff" stroke="#000000" points="16,-16 16,-140 172,-140 172,-16 16,-16"/>
</a>
</g>
</g>
<!-- dir_6fe37ccbf5e97356f3116a77abbef924 -->
<g id="node1" class="node">
<title>dir_6fe37ccbf5e97356f3116a77abbef924</title>
<text text-anchor="middle" x="137" y="-111.5" font-family="Helvetica,sans-Serif" font-size="10.00" fill="#000000">include</text>
</g>
<!-- dir_ffff10b4a3ea0b2dc47b38d1b529e179 -->
<g id="node2" class="node">
<title>dir_ffff10b4a3ea0b2dc47b38d1b529e179</title>
<g id="a_node2"><a xlink:href="dir_ffff10b4a3ea0b2dc47b38d1b529e179.html" target="_top" xlink:title="KEModules">
<polygon fill="#ffffff" stroke="#000000" points="91.5,-132 24.5,-132 24.5,-96 91.5,-96 91.5,-132"/>
<text text-anchor="middle" x="58" y="-111.5" font-family="Helvetica,sans-Serif" font-size="10.00" fill="#000000">KEModules</text>
</a>
</g>
</g>
<!-- dir_6f1e06805bf6fd443f4521a944e15946 -->
<g id="node3" class="node">
<title>dir_6f1e06805bf6fd443f4521a944e15946</title>
<g id="a_node3"><a xlink:href="dir_6f1e06805bf6fd443f4521a944e15946.html" target="_top" xlink:title="kryne&#45;engine">
<polygon fill="#ffffff" stroke="#ff0000" points="96,-60 24,-60 24,-24 96,-24 96,-60"/>
<text text-anchor="middle" x="60" y="-39.5" font-family="Helvetica,sans-Serif" font-size="10.00" fill="#000000">kryne&#45;engine</text>
</a>
</g>
</g>
<!-- dir_ffff10b4a3ea0b2dc47b38d1b529e179&#45;&gt;dir_6f1e06805bf6fd443f4521a944e15946 -->
<g id="edge1" class="edge">
<title>dir_ffff10b4a3ea0b2dc47b38d1b529e179&#45;&gt;dir_6f1e06805bf6fd443f4521a944e15946</title>
<path fill="none" stroke="#000000" d="M58.5047,-95.8314C58.7186,-88.131 58.9729,-78.9743 59.2106,-70.4166"/>
<polygon fill="#000000" stroke="#000000" points="62.7094,-70.5066 59.4885,-60.4133 55.7121,-70.3122 62.7094,-70.5066"/>
<g id="a_edge1&#45;headlabel"><a xlink:href="dir_000009_000010.html" target="_top" xlink:title="52">
<text text-anchor="middle" x="65.4479" y="-71.6787" font-family="Helvetica,sans-Serif" font-size="10.00" fill="#000000">52</text>
</a>
</g>
</g>
</g>
</svg>
