<?xml version="1.0" encoding="UTF-8" standalone="no"?>
<!DOCTYPE svg PUBLIC "-//W3C//DTD SVG 1.1//EN"
 "http://www.w3.org/Graphics/SVG/1.1/DTD/svg11.dtd">
<!-- Generated by graphviz version 2.44.1 (20200629.0846)
 -->
<!-- Title: kryne&#45;engine/src Pages: 1 -->
<svg width="1095pt" height="159pt"
 viewBox="0.00 0.00 1095.00 159.00" xmlns="http://www.w3.org/2000/svg" xmlns:xlink="http://www.w3.org/1999/xlink">
<g id="graph0" class="graph" transform="scale(1 1) rotate(0) translate(4 155)">
<title>kryne&#45;engine/src</title>
<polygon fill="white" stroke="transparent" points="-4,4 -4,-155 1091,-155 1091,4 -4,4"/>
<g id="clust1" class="cluster">
<title>clusterdir_0cd0f52426aabb843978d64903b548c1</title>
<g id="a_clust1"><a xlink:href="dir_0cd0f52426aabb843978d64903b548c1.html" target="_top" xlink:title="kryne&#45;engine">
<polygon fill="#ddddee" stroke="black" points="8,-56 8,-143 1079,-143 1079,-56 8,-56"/>
<text text-anchor="middle" x="543.5" y="-131" font-family="Helvetica,sans-Serif" font-size="10.00">kryne&#45;engine</text>
</a>
</g>
</g>
<g id="clust2" class="cluster">
<title>clusterdir_e64d8accee669ac6c3524e778fb34887</title>
<g id="a_clust2"><a xlink:href="dir_e64d8accee669ac6c3524e778fb34887.html" target="_top">
<polygon fill="#eeeeff" stroke="black" points="16,-64 16,-116 1071,-116 1071,-64 16,-64"/>
</a>
</g>
</g>
<!-- dir_e64d8accee669ac6c3524e778fb34887 -->
<g id="node1" class="node">
<title>dir_e64d8accee669ac6c3524e778fb34887</title>
<text text-anchor="middle" x="1036" y="-87.5" font-family="Helvetica,sans-Serif" font-size="10.00">src</text>
</g>
<!-- dir_b74527dd2d49091317248ecc2a492738 -->
<g id="node2" class="node">
<title>dir_b74527dd2d49091317248ecc2a492738</title>
<g id="a_node2"><a xlink:href="dir_b74527dd2d49091317248ecc2a492738.html" target="_top" xlink:title="3DObjects">
<polygon fill="white" stroke="red" points="991,-108 929,-108 929,-72 991,-72 991,-108"/>
<text text-anchor="middle" x="960" y="-87.5" font-family="Helvetica,sans-Serif" font-size="10.00">3DObjects</text>
</a>
</g>
</g>
<!-- dir_6fe37ccbf5e97356f3116a77abbef924 -->
<g id="node15" class="node">
<title>dir_6fe37ccbf5e97356f3116a77abbef924</title>
<g id="a_node15"><a xlink:href="dir_6fe37ccbf5e97356f3116a77abbef924.html" target="_top" xlink:title="include">
<polygon fill="white" stroke="red" points="544,-36 490,-36 490,0 544,0 544,-36"/>
<text text-anchor="middle" x="517" y="-15.5" font-family="Helvetica,sans-Serif" font-size="10.00">include</text>
</a>
</g>
</g>
<!-- dir_b74527dd2d49091317248ecc2a492738&#45;&gt;dir_6fe37ccbf5e97356f3116a77abbef924 -->
<g id="edge13" class="edge">
<title>dir_b74527dd2d49091317248ecc2a492738&#45;&gt;dir_6fe37ccbf5e97356f3116a77abbef924</title>
<path fill="none" stroke="black" d="M943.6,-71.68C936.88,-65.68 928.66,-59.57 920,-56 854.36,-28.97 641.25,-21.56 554.38,-19.64"/>
<polygon fill="black" stroke="black" points="554.26,-16.13 544.19,-19.42 554.11,-23.13 554.26,-16.13"/>
<g id="a_edge13&#45;headlabel"><a xlink:href="dir_000028_000001.html" target="_top" xlink:title="9">
<text text-anchor="middle" x="557.91" y="-10.87" font-family="Helvetica,sans-Serif" font-size="10.00">9</text>
</a>
</g>
</g>
<!-- dir_b93db4966c5d010c3ed0894974e7f210 -->
<g id="node3" class="node">
<title>dir_b93db4966c5d010c3ed0894974e7f210</title>
<g id="a_node3"><a xlink:href="dir_b93db4966c5d010c3ed0894974e7f210.html" target="_top" xlink:title="Camera">
<polygon fill="white" stroke="black" points="911,-108 857,-108 857,-72 911,-72 911,-108"/>
<text text-anchor="middle" x="884" y="-87.5" font-family="Helvetica,sans-Serif" font-size="10.00">Camera</text>
</a>
</g>
</g>
<!-- dir_b93db4966c5d010c3ed0894974e7f210&#45;&gt;dir_6fe37ccbf5e97356f3116a77abbef924 -->
<g id="edge8" class="edge">
<title>dir_b93db4966c5d010c3ed0894974e7f210&#45;&gt;dir_6fe37ccbf5e97356f3116a77abbef924</title>
<path fill="none" stroke="black" d="M869.49,-71.77C863.47,-65.78 856.03,-59.65 848,-56 796.45,-32.57 630.02,-23.33 554.68,-20.29"/>
<polygon fill="black" stroke="black" points="554.37,-16.77 544.25,-19.88 554.1,-23.77 554.37,-16.77"/>
<g id="a_edge8&#45;headlabel"><a xlink:href="dir_000030_000001.html" target="_top" xlink:title="6">
<text text-anchor="middle" x="558.08" y="-11.57" font-family="Helvetica,sans-Serif" font-size="10.00">6</text>
</a>
</g>
</g>
<!-- dir_92cbc7589014e9a79f24556415023b95 -->
<g id="node4" class="node">
<title>dir_92cbc7589014e9a79f24556415023b95</title>
<g id="a_node4"><a xlink:href="dir_92cbc7589014e9a79f24556415023b95.html" target="_top" xlink:title="Core">
<polygon fill="white" stroke="red" points="839,-108 785,-108 785,-72 839,-72 839,-108"/>
<text text-anchor="middle" x="812" y="-87.5" font-family="Helvetica,sans-Serif" font-size="10.00">Core</text>
</a>
</g>
</g>
<!-- dir_92cbc7589014e9a79f24556415023b95&#45;&gt;dir_6fe37ccbf5e97356f3116a77abbef924 -->
<g id="edge11" class="edge">
<title>dir_92cbc7589014e9a79f24556415023b95&#45;&gt;dir_6fe37ccbf5e97356f3116a77abbef924</title>
<path fill="none" stroke="black" d="M797.43,-71.9C791.41,-65.92 783.97,-59.77 776,-56 737.48,-37.77 616.28,-26.39 554.3,-21.61"/>
<polygon fill="black" stroke="black" points="554.4,-18.1 544.16,-20.84 553.87,-25.08 554.4,-18.1"/>
<g id="a_edge11&#45;headlabel"><a xlink:href="dir_000031_000001.html" target="_top" xlink:title="11">
<text text-anchor="middle" x="558.19" y="-13.04" font-family="Helvetica,sans-Serif" font-size="10.00">11</text>
</a>
</g>
</g>
<!-- dir_c26ed977d6d98b056d278d39fba82949 -->
<g id="node5" class="node">
<title>dir_c26ed977d6d98b056d278d39fba82949</title>
<g id="a_node5"><a xlink:href="dir_c26ed977d6d98b056d278d39fba82949.html" target="_top" xlink:title="Dispatch">
<polygon fill="white" stroke="black" points="766.5,-108 711.5,-108 711.5,-72 766.5,-72 766.5,-108"/>
<text text-anchor="middle" x="739" y="-87.5" font-family="Helvetica,sans-Serif" font-size="10.00">Dispatch</text>
</a>
</g>
</g>
<!-- dir_c26ed977d6d98b056d278d39fba82949&#45;&gt;dir_6fe37ccbf5e97356f3116a77abbef924 -->
<g id="edge12" class="edge">
<title>dir_c26ed977d6d98b056d278d39fba82949&#45;&gt;dir_6fe37ccbf5e97356f3116a77abbef924</title>
<path fill="none" stroke="black" d="M723.97,-71.79C718,-65.94 710.71,-59.91 703,-56 655.35,-31.85 593.39,-23.45 554.4,-20.53"/>
<polygon fill="black" stroke="black" points="554.25,-17.02 544.04,-19.85 553.79,-24 554.25,-17.02"/>
<g id="a_edge12&#45;headlabel"><a xlink:href="dir_000033_000001.html" target="_top" xlink:title="6">
<text text-anchor="middle" x="558.02" y="-11.92" font-family="Helvetica,sans-Serif" font-size="10.00">6</text>
</a>
</g>
</g>
<!-- dir_3391013c5bcc9f682b8a49c140fcf924 -->
<g id="node6" class="node">
<title>dir_3391013c5bcc9f682b8a49c140fcf924</title>
<g id="a_node6"><a xlink:href="dir_3391013c5bcc9f682b8a49c140fcf924.html" target="_top" xlink:title="Geometry">
<polygon fill="white" stroke="black" points="693.5,-108 634.5,-108 634.5,-72 693.5,-72 693.5,-108"/>
<text text-anchor="middle" x="664" y="-87.5" font-family="Helvetica,sans-Serif" font-size="10.00">Geometry</text>
</a>
</g>
</g>
<!-- dir_3391013c5bcc9f682b8a49c140fcf924&#45;&gt;dir_6fe37ccbf5e97356f3116a77abbef924 -->
<g id="edge5" class="edge">
<title>dir_3391013c5bcc9f682b8a49c140fcf924&#45;&gt;dir_6fe37ccbf5e97356f3116a77abbef924</title>
<path fill="none" stroke="black" d="M646.41,-71.71C640.05,-66.13 632.56,-60.29 625,-56 602.83,-43.42 575.67,-34.14 554.14,-28.02"/>
<polygon fill="black" stroke="black" points="554.94,-24.61 544.37,-25.35 553.09,-31.36 554.94,-24.61"/>
<g id="a_edge5&#45;headlabel"><a xlink:href="dir_000034_000001.html" target="_top" xlink:title="4">
<text text-anchor="middle" x="559.15" y="-20.32" font-family="Helvetica,sans-Serif" font-size="10.00">4</text>
</a>
</g>
</g>
<!-- dir_1f199a757349aa63e13d1341c40df77b -->
<g id="node7" class="node">
<title>dir_1f199a757349aa63e13d1341c40df77b</title>
<g id="a_node7"><a xlink:href="dir_1f199a757349aa63e13d1341c40df77b.html" target="_top" xlink:title="Input">
<polygon fill="white" stroke="black" points="616,-108 562,-108 562,-72 616,-72 616,-108"/>
<text text-anchor="middle" x="589" y="-87.5" font-family="Helvetica,sans-Serif" font-size="10.00">Input</text>
</a>
</g>
</g>
<!-- dir_1f199a757349aa63e13d1341c40df77b&#45;&gt;dir_6fe37ccbf5e97356f3116a77abbef924 -->
<g id="edge3" class="edge">
<title>dir_1f199a757349aa63e13d1341c40df77b&#45;&gt;dir_6fe37ccbf5e97356f3116a77abbef924</title>
<path fill="none" stroke="black" d="M571.2,-71.7C562.4,-63.14 551.62,-52.66 542,-43.3"/>
<polygon fill="black" stroke="black" points="544.2,-40.57 534.59,-36.1 539.32,-45.58 544.2,-40.57"/>
<g id="a_edge3&#45;headlabel"><a xlink:href="dir_000035_000001.html" target="_top" xlink:title="1">
<text text-anchor="middle" x="548.76" y="-38.54" font-family="Helvetica,sans-Serif" font-size="10.00">1</text>
</a>
</g>
</g>
<!-- dir_0b70d3ad23cb9015fe8eee151686e712 -->
<g id="node8" class="node">
<title>dir_0b70d3ad23cb9015fe8eee151686e712</title>
<g id="a_node8"><a xlink:href="dir_0b70d3ad23cb9015fe8eee151686e712.html" target="_top" xlink:title="Light">
<polygon fill="white" stroke="black" points="544,-108 490,-108 490,-72 544,-72 544,-108"/>
<text text-anchor="middle" x="517" y="-87.5" font-family="Helvetica,sans-Serif" font-size="10.00">Light</text>
</a>
</g>
</g>
<!-- dir_0b70d3ad23cb9015fe8eee151686e712&#45;&gt;dir_6fe37ccbf5e97356f3116a77abbef924 -->
<g id="edge9" class="edge">
<title>dir_0b70d3ad23cb9015fe8eee151686e712&#45;&gt;dir_6fe37ccbf5e97356f3116a77abbef924</title>
<path fill="none" stroke="black" d="M517,-71.7C517,-63.98 517,-54.71 517,-46.11"/>
<polygon fill="black" stroke="black" points="520.5,-46.1 517,-36.1 513.5,-46.1 520.5,-46.1"/>
<g id="a_edge9&#45;headlabel"><a xlink:href="dir_000036_000001.html" target="_top" xlink:title="5">
<text text-anchor="middle" x="523.34" y="-47.2" font-family="Helvetica,sans-Serif" font-size="10.00">5</text>
</a>
</g>
</g>
<!-- dir_de161436e9bf4de9e89567cd109ce04b -->
<g id="node9" class="node">
<title>dir_de161436e9bf4de9e89567cd109ce04b</title>
<g id="a_node9"><a xlink:href="dir_de161436e9bf4de9e89567cd109ce04b.html" target="_top" xlink:title="Material">
<polygon fill="white" stroke="red" points="472,-108 418,-108 418,-72 472,-72 472,-108"/>
<text text-anchor="middle" x="445" y="-87.5" font-family="Helvetica,sans-Serif" font-size="10.00">Material</text>
</a>
</g>
</g>
<!-- dir_de161436e9bf4de9e89567cd109ce04b&#45;&gt;dir_6fe37ccbf5e97356f3116a77abbef924 -->
<g id="edge2" class="edge">
<title>dir_de161436e9bf4de9e89567cd109ce04b&#45;&gt;dir_6fe37ccbf5e97356f3116a77abbef924</title>
<path fill="none" stroke="black" d="M462.8,-71.7C471.6,-63.14 482.38,-52.66 492,-43.3"/>
<polygon fill="black" stroke="black" points="494.68,-45.58 499.41,-36.1 489.8,-40.57 494.68,-45.58"/>
<g id="a_edge2&#45;headlabel"><a xlink:href="dir_000037_000001.html" target="_top" xlink:title="8">
<text text-anchor="middle" x="494.08" y="-47.63" font-family="Helvetica,sans-Serif" font-size="10.00">8</text>
</a>
</g>
</g>
<!-- dir_8b929e06e38a05ae31148eaa49097c9f -->
<g id="node10" class="node">
<title>dir_8b929e06e38a05ae31148eaa49097c9f</title>
<g id="a_node10"><a xlink:href="dir_8b929e06e38a05ae31148eaa49097c9f.html" target="_top" xlink:title="Rendering">
<polygon fill="white" stroke="red" points="400,-108 340,-108 340,-72 400,-72 400,-108"/>
<text text-anchor="middle" x="370" y="-87.5" font-family="Helvetica,sans-Serif" font-size="10.00">Rendering</text>
</a>
</g>
</g>
<!-- dir_8b929e06e38a05ae31148eaa49097c9f&#45;&gt;dir_6fe37ccbf5e97356f3116a77abbef924 -->
<g id="edge4" class="edge">
<title>dir_8b929e06e38a05ae31148eaa49097c9f&#45;&gt;dir_6fe37ccbf5e97356f3116a77abbef924</title>
<path fill="none" stroke="black" d="M387.59,-71.71C393.95,-66.13 401.44,-60.29 409,-56 431.17,-43.42 458.33,-34.14 479.86,-28.02"/>
<polygon fill="black" stroke="black" points="480.91,-31.36 489.63,-25.35 479.06,-24.61 480.91,-31.36"/>
<g id="a_edge4&#45;headlabel"><a xlink:href="dir_000039_000001.html" target="_top" xlink:title="14">
<text text-anchor="middle" x="478.19" y="-32.55" font-family="Helvetica,sans-Serif" font-size="10.00">14</text>
</a>
</g>
</g>
<!-- dir_1c45a02320653894bd8d2b22a856dda1 -->
<g id="node11" class="node">
<title>dir_1c45a02320653894bd8d2b22a856dda1</title>
<g id="a_node11"><a xlink:href="dir_1c45a02320653894bd8d2b22a856dda1.html" target="_top" xlink:title="RenderTargets">
<polygon fill="white" stroke="black" points="322,-108 242,-108 242,-72 322,-72 322,-108"/>
<text text-anchor="middle" x="282" y="-87.5" font-family="Helvetica,sans-Serif" font-size="10.00">RenderTargets</text>
</a>
</g>
</g>
<!-- dir_1c45a02320653894bd8d2b22a856dda1&#45;&gt;dir_6fe37ccbf5e97356f3116a77abbef924 -->
<g id="edge10" class="edge">
<title>dir_1c45a02320653894bd8d2b22a856dda1&#45;&gt;dir_6fe37ccbf5e97356f3116a77abbef924</title>
<path fill="none" stroke="black" d="M303.38,-71.91C311.6,-66.08 321.34,-60.02 331,-56 380.04,-35.58 441.14,-26.2 479.62,-22.06"/>
<polygon fill="black" stroke="black" points="480.25,-25.52 489.85,-21.03 479.55,-18.55 480.25,-25.52"/>
<g id="a_edge10&#45;headlabel"><a xlink:href="dir_000043_000001.html" target="_top" xlink:title="3">
<text text-anchor="middle" x="476.96" y="-26.2" font-family="Helvetica,sans-Serif" font-size="10.00">3</text>
</a>
</g>
</g>
<!-- dir_7e333f6cf0ad7bd04ee9a1acc721a393 -->
<g id="node12" class="node">
<title>dir_7e333f6cf0ad7bd04ee9a1acc721a393</title>
<g id="a_node12"><a xlink:href="dir_7e333f6cf0ad7bd04ee9a1acc721a393.html" target="_top" xlink:title="Systems">
<polygon fill="white" stroke="black" points="224,-108 168,-108 168,-72 224,-72 224,-108"/>
<text text-anchor="middle" x="196" y="-87.5" font-family="Helvetica,sans-Serif" font-size="10.00">Systems</text>
</a>
</g>
</g>
<!-- dir_7e333f6cf0ad7bd04ee9a1acc721a393&#45;&gt;dir_6fe37ccbf5e97356f3116a77abbef924 -->
<g id="edge1" class="edge">
<title>dir_7e333f6cf0ad7bd04ee9a1acc721a393&#45;&gt;dir_6fe37ccbf5e97356f3116a77abbef924</title>
<path fill="none" stroke="black" d="M211.03,-71.85C217.23,-65.87 224.86,-59.72 233,-56 276.14,-36.27 412.72,-25.4 479.51,-21.14"/>
<polygon fill="black" stroke="black" points="479.84,-24.63 489.6,-20.51 479.4,-17.64 479.84,-24.63"/>
<g id="a_edge1&#45;headlabel"><a xlink:href="dir_000044_000001.html" target="_top" xlink:title="3">
<text text-anchor="middle" x="476.42" y="-25.18" font-family="Helvetica,sans-Serif" font-size="10.00">3</text>
</a>
</g>
</g>
<!-- dir_b1dcf60ba8e478127530acf114ec2bf5 -->
<g id="node13" class="node">
<title>dir_b1dcf60ba8e478127530acf114ec2bf5</title>
<g id="a_node13"><a xlink:href="dir_b1dcf60ba8e478127530acf114ec2bf5.html" target="_top" xlink:title="Textures">
<polygon fill="white" stroke="black" points="150,-108 96,-108 96,-72 150,-72 150,-108"/>
<text text-anchor="middle" x="123" y="-87.5" font-family="Helvetica,sans-Serif" font-size="10.00">Textures</text>
</a>
</g>
</g>
<!-- dir_b1dcf60ba8e478127530acf114ec2bf5&#45;&gt;dir_6fe37ccbf5e97356f3116a77abbef924 -->
<g id="edge7" class="edge">
<title>dir_b1dcf60ba8e478127530acf114ec2bf5&#45;&gt;dir_6fe37ccbf5e97356f3116a77abbef924</title>
<path fill="none" stroke="black" d="M137.5,-71.74C143.51,-65.74 150.96,-59.62 159,-56 215.65,-30.53 400.25,-22.31 479.88,-19.9"/>
<polygon fill="black" stroke="black" points="480.06,-23.4 489.95,-19.61 479.85,-16.4 480.06,-23.4"/>
<g id="a_edge7&#45;headlabel"><a xlink:href="dir_000045_000001.html" target="_top" xlink:title="3">
<text text-anchor="middle" x="476.54" y="-23.84" font-family="Helvetica,sans-Serif" font-size="10.00">3</text>
</a>
</g>
</g>
<!-- dir_65623b015cd5536ca413df9fe275c609 -->
<g id="node14" class="node">
<title>dir_65623b015cd5536ca413df9fe275c609</title>
<g id="a_node14"><a xlink:href="dir_65623b015cd5536ca413df9fe275c609.html" target="_top" xlink:title="UI">
<polygon fill="white" stroke="black" points="78,-108 24,-108 24,-72 78,-72 78,-108"/>
<text text-anchor="middle" x="51" y="-87.5" font-family="Helvetica,sans-Serif" font-size="10.00">UI</text>
</a>
</g>
</g>
<!-- dir_65623b015cd5536ca413df9fe275c609&#45;&gt;dir_6fe37ccbf5e97356f3116a77abbef924 -->
<g id="edge6" class="edge">
<title>dir_65623b015cd5536ca413df9fe275c609&#45;&gt;dir_6fe37ccbf5e97356f3116a77abbef924</title>
<path fill="none" stroke="black" d="M65.46,-71.66C71.47,-65.66 78.93,-59.55 87,-56 157.03,-25.24 388.86,-20.01 479.87,-19.15"/>
<polygon fill="black" stroke="black" points="480.02,-22.65 490,-19.07 479.97,-15.65 480.02,-22.65"/>
<g id="a_edge6&#45;headlabel"><a xlink:href="dir_000046_000001.html" target="_top" xlink:title="4">
<text text-anchor="middle" x="476.45" y="-23.02" font-family="Helvetica,sans-Serif" font-size="10.00">4</text>
</a>
</g>
</g>
</g>
</svg>
