<?xml version="1.0" encoding="UTF-8" standalone="no"?>
<!DOCTYPE svg PUBLIC "-//W3C//DTD SVG 1.1//EN"
 "http://www.w3.org/Graphics/SVG/1.1/DTD/svg11.dtd">
<!-- Generated by graphviz version 2.44.1 (20200629.0846)
 -->
<!-- Title: kryne&#45;engine/src Pages: 1 -->
<svg width="1023pt" height="159pt"
 viewBox="0.00 0.00 1023.00 159.00" xmlns="http://www.w3.org/2000/svg" xmlns:xlink="http://www.w3.org/1999/xlink">
<g id="graph0" class="graph" transform="scale(1 1) rotate(0) translate(4 155)">
<title>kryne&#45;engine/src</title>
<polygon fill="white" stroke="transparent" points="-4,4 -4,-155 1019,-155 1019,4 -4,4"/>
<g id="clust1" class="cluster">
<title>clusterdir_0cd0f52426aabb843978d64903b548c1</title>
<g id="a_clust1"><a xlink:href="dir_0cd0f52426aabb843978d64903b548c1.html" target="_top" xlink:title="kryne&#45;engine">
<polygon fill="#ddddee" stroke="black" points="8,-56 8,-143 1007,-143 1007,-56 8,-56"/>
<text text-anchor="middle" x="507.5" y="-131" font-family="Helvetica,sans-Serif" font-size="10.00">kryne&#45;engine</text>
</a>
</g>
</g>
<g id="clust2" class="cluster">
<title>clusterdir_e64d8accee669ac6c3524e778fb34887</title>
<g id="a_clust2"><a xlink:href="dir_e64d8accee669ac6c3524e778fb34887.html" target="_top">
<polygon fill="#eeeeff" stroke="black" points="16,-64 16,-116 999,-116 999,-64 16,-64"/>
</a>
</g>
</g>
<!-- dir_e64d8accee669ac6c3524e778fb34887 -->
<g id="node1" class="node">
<title>dir_e64d8accee669ac6c3524e778fb34887</title>
<text text-anchor="middle" x="964" y="-87.5" font-family="Helvetica,sans-Serif" font-size="10.00">src</text>
</g>
<!-- dir_b74527dd2d49091317248ecc2a492738 -->
<g id="node2" class="node">
<title>dir_b74527dd2d49091317248ecc2a492738</title>
<g id="a_node2"><a xlink:href="dir_b74527dd2d49091317248ecc2a492738.html" target="_top" xlink:title="3DObjects">
<polygon fill="white" stroke="red" points="919,-108 857,-108 857,-72 919,-72 919,-108"/>
<text text-anchor="middle" x="888" y="-87.5" font-family="Helvetica,sans-Serif" font-size="10.00">3DObjects</text>
</a>
</g>
</g>
<!-- dir_6fe37ccbf5e97356f3116a77abbef924 -->
<g id="node14" class="node">
<title>dir_6fe37ccbf5e97356f3116a77abbef924</title>
<g id="a_node14"><a xlink:href="dir_6fe37ccbf5e97356f3116a77abbef924.html" target="_top" xlink:title="include">
<polygon fill="white" stroke="red" points="508,-36 454,-36 454,0 508,0 508,-36"/>
<text text-anchor="middle" x="481" y="-15.5" font-family="Helvetica,sans-Serif" font-size="10.00">include</text>
</a>
</g>
</g>
<!-- dir_b74527dd2d49091317248ecc2a492738&#45;&gt;dir_6fe37ccbf5e97356f3116a77abbef924 -->
<g id="edge12" class="edge">
<title>dir_b74527dd2d49091317248ecc2a492738&#45;&gt;dir_6fe37ccbf5e97356f3116a77abbef924</title>
<path fill="none" stroke="black" d="M871.58,-71.73C864.86,-65.73 856.64,-59.6 848,-56 789.1,-31.44 599.47,-22.69 518.37,-20.03"/>
<polygon fill="black" stroke="black" points="518.22,-16.52 508.12,-19.7 518,-23.52 518.22,-16.52"/>
<g id="a_edge12&#45;headlabel"><a xlink:href="dir_000025_000001.html" target="_top" xlink:title="9">
<text text-anchor="middle" x="521.91" y="-11.3" font-family="Helvetica,sans-Serif" font-size="10.00">9</text>
</a>
</g>
</g>
<!-- dir_b93db4966c5d010c3ed0894974e7f210 -->
<g id="node3" class="node">
<title>dir_b93db4966c5d010c3ed0894974e7f210</title>
<g id="a_node3"><a xlink:href="dir_b93db4966c5d010c3ed0894974e7f210.html" target="_top" xlink:title="Camera">
<polygon fill="white" stroke="black" points="839,-108 785,-108 785,-72 839,-72 839,-108"/>
<text text-anchor="middle" x="812" y="-87.5" font-family="Helvetica,sans-Serif" font-size="10.00">Camera</text>
</a>
</g>
</g>
<!-- dir_b93db4966c5d010c3ed0894974e7f210&#45;&gt;dir_6fe37ccbf5e97356f3116a77abbef924 -->
<g id="edge7" class="edge">
<title>dir_b93db4966c5d010c3ed0894974e7f210&#45;&gt;dir_6fe37ccbf5e97356f3116a77abbef924</title>
<path fill="none" stroke="black" d="M797.46,-71.83C791.44,-65.84 784,-59.7 776,-56 730.98,-35.17 587.25,-24.76 518.43,-20.87"/>
<polygon fill="black" stroke="black" points="518.23,-17.35 508.05,-20.3 517.85,-24.34 518.23,-17.35"/>
<g id="a_edge7&#45;headlabel"><a xlink:href="dir_000027_000001.html" target="_top" xlink:title="5">
<text text-anchor="middle" x="521.97" y="-12.21" font-family="Helvetica,sans-Serif" font-size="10.00">5</text>
</a>
</g>
</g>
<!-- dir_92cbc7589014e9a79f24556415023b95 -->
<g id="node4" class="node">
<title>dir_92cbc7589014e9a79f24556415023b95</title>
<g id="a_node4"><a xlink:href="dir_92cbc7589014e9a79f24556415023b95.html" target="_top" xlink:title="Core">
<polygon fill="white" stroke="red" points="767,-108 713,-108 713,-72 767,-72 767,-108"/>
<text text-anchor="middle" x="740" y="-87.5" font-family="Helvetica,sans-Serif" font-size="10.00">Core</text>
</a>
</g>
</g>
<!-- dir_92cbc7589014e9a79f24556415023b95&#45;&gt;dir_6fe37ccbf5e97356f3116a77abbef924 -->
<g id="edge10" class="edge">
<title>dir_92cbc7589014e9a79f24556415023b95&#45;&gt;dir_6fe37ccbf5e97356f3116a77abbef924</title>
<path fill="none" stroke="black" d="M725.38,-72C719.36,-66.03 711.93,-59.86 704,-56 643.61,-26.59 564.28,-19.97 518.34,-18.81"/>
<polygon fill="black" stroke="black" points="518.3,-15.31 508.24,-18.63 518.17,-22.31 518.3,-15.31"/>
<g id="a_edge10&#45;headlabel"><a xlink:href="dir_000028_000001.html" target="_top" xlink:title="11">
<text text-anchor="middle" x="521.94" y="-10.03" font-family="Helvetica,sans-Serif" font-size="10.00">11</text>
</a>
</g>
</g>
<!-- dir_c26ed977d6d98b056d278d39fba82949 -->
<g id="node5" class="node">
<title>dir_c26ed977d6d98b056d278d39fba82949</title>
<g id="a_node5"><a xlink:href="dir_c26ed977d6d98b056d278d39fba82949.html" target="_top" xlink:title="Dispatch">
<polygon fill="white" stroke="black" points="694.5,-108 639.5,-108 639.5,-72 694.5,-72 694.5,-108"/>
<text text-anchor="middle" x="667" y="-87.5" font-family="Helvetica,sans-Serif" font-size="10.00">Dispatch</text>
</a>
</g>
</g>
<!-- dir_c26ed977d6d98b056d278d39fba82949&#45;&gt;dir_6fe37ccbf5e97356f3116a77abbef924 -->
<g id="edge11" class="edge">
<title>dir_c26ed977d6d98b056d278d39fba82949&#45;&gt;dir_6fe37ccbf5e97356f3116a77abbef924</title>
<path fill="none" stroke="black" d="M651.87,-71.98C645.89,-66.15 638.62,-60.08 631,-56 595.42,-36.94 549.84,-27.5 518.31,-22.96"/>
<polygon fill="black" stroke="black" points="518.56,-19.46 508.19,-21.6 517.63,-26.4 518.56,-19.46"/>
<g id="a_edge11&#45;headlabel"><a xlink:href="dir_000030_000001.html" target="_top" xlink:title="6">
<text text-anchor="middle" x="522.5" y="-14.63" font-family="Helvetica,sans-Serif" font-size="10.00">6</text>
</a>
</g>
</g>
<!-- dir_3391013c5bcc9f682b8a49c140fcf924 -->
<g id="node6" class="node">
<title>dir_3391013c5bcc9f682b8a49c140fcf924</title>
<g id="a_node6"><a xlink:href="dir_3391013c5bcc9f682b8a49c140fcf924.html" target="_top" xlink:title="Geometry">
<polygon fill="white" stroke="black" points="621.5,-108 562.5,-108 562.5,-72 621.5,-72 621.5,-108"/>
<text text-anchor="middle" x="592" y="-87.5" font-family="Helvetica,sans-Serif" font-size="10.00">Geometry</text>
</a>
</g>
</g>
<!-- dir_3391013c5bcc9f682b8a49c140fcf924&#45;&gt;dir_6fe37ccbf5e97356f3116a77abbef924 -->
<g id="edge5" class="edge">
<title>dir_3391013c5bcc9f682b8a49c140fcf924&#45;&gt;dir_6fe37ccbf5e97356f3116a77abbef924</title>
<path fill="none" stroke="black" d="M573.64,-71.98C567.34,-66.55 560.08,-60.73 553,-56 541.84,-48.55 528.99,-41.51 517.26,-35.61"/>
<polygon fill="black" stroke="black" points="518.67,-32.41 508.15,-31.14 515.58,-38.69 518.67,-32.41"/>
<g id="a_edge5&#45;headlabel"><a xlink:href="dir_000031_000001.html" target="_top" xlink:title="3">
<text text-anchor="middle" x="523.15" y="-28.94" font-family="Helvetica,sans-Serif" font-size="10.00">3</text>
</a>
</g>
</g>
<!-- dir_1f199a757349aa63e13d1341c40df77b -->
<g id="node7" class="node">
<title>dir_1f199a757349aa63e13d1341c40df77b</title>
<g id="a_node7"><a xlink:href="dir_1f199a757349aa63e13d1341c40df77b.html" target="_top" xlink:title="Input">
<polygon fill="white" stroke="black" points="544,-108 490,-108 490,-72 544,-72 544,-108"/>
<text text-anchor="middle" x="517" y="-87.5" font-family="Helvetica,sans-Serif" font-size="10.00">Input</text>
</a>
</g>
</g>
<!-- dir_1f199a757349aa63e13d1341c40df77b&#45;&gt;dir_6fe37ccbf5e97356f3116a77abbef924 -->
<g id="edge3" class="edge">
<title>dir_1f199a757349aa63e13d1341c40df77b&#45;&gt;dir_6fe37ccbf5e97356f3116a77abbef924</title>
<path fill="none" stroke="black" d="M508.1,-71.7C504,-63.73 499.05,-54.1 494.51,-45.26"/>
<polygon fill="black" stroke="black" points="497.48,-43.4 489.8,-36.1 491.26,-46.6 497.48,-43.4"/>
<g id="a_edge3&#45;headlabel"><a xlink:href="dir_000032_000001.html" target="_top" xlink:title="1">
<text text-anchor="middle" x="501.65" y="-42.79" font-family="Helvetica,sans-Serif" font-size="10.00">1</text>
</a>
</g>
</g>
<!-- dir_0b70d3ad23cb9015fe8eee151686e712 -->
<g id="node8" class="node">
<title>dir_0b70d3ad23cb9015fe8eee151686e712</title>
<g id="a_node8"><a xlink:href="dir_0b70d3ad23cb9015fe8eee151686e712.html" target="_top" xlink:title="Light">
<polygon fill="white" stroke="black" points="472,-108 418,-108 418,-72 472,-72 472,-108"/>
<text text-anchor="middle" x="445" y="-87.5" font-family="Helvetica,sans-Serif" font-size="10.00">Light</text>
</a>
</g>
</g>
<!-- dir_0b70d3ad23cb9015fe8eee151686e712&#45;&gt;dir_6fe37ccbf5e97356f3116a77abbef924 -->
<g id="edge8" class="edge">
<title>dir_0b70d3ad23cb9015fe8eee151686e712&#45;&gt;dir_6fe37ccbf5e97356f3116a77abbef924</title>
<path fill="none" stroke="black" d="M453.9,-71.7C458,-63.73 462.95,-54.1 467.49,-45.26"/>
<polygon fill="black" stroke="black" points="470.74,-46.6 472.2,-36.1 464.52,-43.4 470.74,-46.6"/>
<g id="a_edge8&#45;headlabel"><a xlink:href="dir_000033_000001.html" target="_top" xlink:title="3">
<text text-anchor="middle" x="471.62" y="-48.59" font-family="Helvetica,sans-Serif" font-size="10.00">3</text>
</a>
</g>
</g>
<!-- dir_de161436e9bf4de9e89567cd109ce04b -->
<g id="node9" class="node">
<title>dir_de161436e9bf4de9e89567cd109ce04b</title>
<g id="a_node9"><a xlink:href="dir_de161436e9bf4de9e89567cd109ce04b.html" target="_top" xlink:title="Material">
<polygon fill="white" stroke="black" points="400,-108 346,-108 346,-72 400,-72 400,-108"/>
<text text-anchor="middle" x="373" y="-87.5" font-family="Helvetica,sans-Serif" font-size="10.00">Material</text>
</a>
</g>
</g>
<!-- dir_de161436e9bf4de9e89567cd109ce04b&#45;&gt;dir_6fe37ccbf5e97356f3116a77abbef924 -->
<g id="edge2" class="edge">
<title>dir_de161436e9bf4de9e89567cd109ce04b&#45;&gt;dir_6fe37ccbf5e97356f3116a77abbef924</title>
<path fill="none" stroke="black" d="M389.78,-71.89C395.59,-66.46 402.32,-60.65 409,-56 420.01,-48.33 432.82,-41.24 444.56,-35.35"/>
<polygon fill="black" stroke="black" points="446.23,-38.43 453.69,-30.91 443.17,-32.14 446.23,-38.43"/>
<g id="a_edge2&#45;headlabel"><a xlink:href="dir_000034_000001.html" target="_top" xlink:title="7">
<text text-anchor="middle" x="444.24" y="-40.06" font-family="Helvetica,sans-Serif" font-size="10.00">7</text>
</a>
</g>
</g>
<!-- dir_8b929e06e38a05ae31148eaa49097c9f -->
<g id="node10" class="node">
<title>dir_8b929e06e38a05ae31148eaa49097c9f</title>
<g id="a_node10"><a xlink:href="dir_8b929e06e38a05ae31148eaa49097c9f.html" target="_top" xlink:title="Rendering">
<polygon fill="white" stroke="red" points="328,-108 268,-108 268,-72 328,-72 328,-108"/>
<text text-anchor="middle" x="298" y="-87.5" font-family="Helvetica,sans-Serif" font-size="10.00">Rendering</text>
</a>
</g>
</g>
<!-- dir_8b929e06e38a05ae31148eaa49097c9f&#45;&gt;dir_6fe37ccbf5e97356f3116a77abbef924 -->
<g id="edge4" class="edge">
<title>dir_8b929e06e38a05ae31148eaa49097c9f&#45;&gt;dir_6fe37ccbf5e97356f3116a77abbef924</title>
<path fill="none" stroke="black" d="M315.02,-71.71C321.45,-66 329.12,-60.07 337,-56 370.95,-38.46 413.79,-28.83 443.89,-23.83"/>
<polygon fill="black" stroke="black" points="444.63,-27.26 453.96,-22.25 443.54,-20.34 444.63,-27.26"/>
<g id="a_edge4&#45;headlabel"><a xlink:href="dir_000035_000001.html" target="_top" xlink:title="10">
<text text-anchor="middle" x="441.52" y="-28.12" font-family="Helvetica,sans-Serif" font-size="10.00">10</text>
</a>
</g>
</g>
<!-- dir_1c45a02320653894bd8d2b22a856dda1 -->
<g id="node11" class="node">
<title>dir_1c45a02320653894bd8d2b22a856dda1</title>
<g id="a_node11"><a xlink:href="dir_1c45a02320653894bd8d2b22a856dda1.html" target="_top" xlink:title="RenderTargets">
<polygon fill="white" stroke="black" points="250,-108 170,-108 170,-72 250,-72 250,-108"/>
<text text-anchor="middle" x="210" y="-87.5" font-family="Helvetica,sans-Serif" font-size="10.00">RenderTargets</text>
</a>
</g>
</g>
<!-- dir_1c45a02320653894bd8d2b22a856dda1&#45;&gt;dir_6fe37ccbf5e97356f3116a77abbef924 -->
<g id="edge9" class="edge">
<title>dir_1c45a02320653894bd8d2b22a856dda1&#45;&gt;dir_6fe37ccbf5e97356f3116a77abbef924</title>
<path fill="none" stroke="black" d="M231.31,-71.74C239.53,-65.89 249.28,-59.87 259,-56 320.67,-31.45 398.25,-23.19 443.47,-20.41"/>
<polygon fill="black" stroke="black" points="443.91,-23.89 453.7,-19.84 443.52,-16.9 443.91,-23.89"/>
<g id="a_edge9&#45;headlabel"><a xlink:href="dir_000038_000001.html" target="_top" xlink:title="3">
<text text-anchor="middle" x="440.48" y="-24.42" font-family="Helvetica,sans-Serif" font-size="10.00">3</text>
</a>
</g>
</g>
<!-- dir_7e333f6cf0ad7bd04ee9a1acc721a393 -->
<g id="node12" class="node">
<title>dir_7e333f6cf0ad7bd04ee9a1acc721a393</title>
<g id="a_node12"><a xlink:href="dir_7e333f6cf0ad7bd04ee9a1acc721a393.html" target="_top" xlink:title="Systems">
<polygon fill="white" stroke="black" points="152,-108 96,-108 96,-72 152,-72 152,-108"/>
<text text-anchor="middle" x="124" y="-87.5" font-family="Helvetica,sans-Serif" font-size="10.00">Systems</text>
</a>
</g>
</g>
<!-- dir_7e333f6cf0ad7bd04ee9a1acc721a393&#45;&gt;dir_6fe37ccbf5e97356f3116a77abbef924 -->
<g id="edge1" class="edge">
<title>dir_7e333f6cf0ad7bd04ee9a1acc721a393&#45;&gt;dir_6fe37ccbf5e97356f3116a77abbef924</title>
<path fill="none" stroke="black" d="M139,-71.79C145.19,-65.8 152.83,-59.66 161,-56 210.73,-33.69 370.24,-23.9 443.53,-20.5"/>
<polygon fill="black" stroke="black" points="443.86,-23.99 453.69,-20.05 443.55,-17 443.86,-23.99"/>
<g id="a_edge1&#45;headlabel"><a xlink:href="dir_000039_000001.html" target="_top" xlink:title="2">
<text text-anchor="middle" x="440.4" y="-24.49" font-family="Helvetica,sans-Serif" font-size="10.00">2</text>
</a>
</g>
</g>
<!-- dir_b1dcf60ba8e478127530acf114ec2bf5 -->
<g id="node13" class="node">
<title>dir_b1dcf60ba8e478127530acf114ec2bf5</title>
<g id="a_node13"><a xlink:href="dir_b1dcf60ba8e478127530acf114ec2bf5.html" target="_top" xlink:title="Textures">
<polygon fill="white" stroke="black" points="78,-108 24,-108 24,-72 78,-72 78,-108"/>
<text text-anchor="middle" x="51" y="-87.5" font-family="Helvetica,sans-Serif" font-size="10.00">Textures</text>
</a>
</g>
</g>
<!-- dir_b1dcf60ba8e478127530acf114ec2bf5&#45;&gt;dir_6fe37ccbf5e97356f3116a77abbef924 -->
<g id="edge6" class="edge">
<title>dir_b1dcf60ba8e478127530acf114ec2bf5&#45;&gt;dir_6fe37ccbf5e97356f3116a77abbef924</title>
<path fill="none" stroke="black" d="M65.48,-71.7C71.49,-65.69 78.94,-59.58 87,-56 150.29,-27.9 358.23,-21.11 443.75,-19.5"/>
<polygon fill="black" stroke="black" points="443.86,-22.99 453.79,-19.32 443.73,-16 443.86,-22.99"/>
<g id="a_edge6&#45;headlabel"><a xlink:href="dir_000040_000001.html" target="_top" xlink:title="3">
<text text-anchor="middle" x="440.31" y="-23.4" font-family="Helvetica,sans-Serif" font-size="10.00">3</text>
</a>
</g>
</g>
</g>
</svg>
