<?xml version="1.0" encoding="UTF-8" standalone="no"?>
<!DOCTYPE svg PUBLIC "-//W3C//DTD SVG 1.1//EN"
 "http://www.w3.org/Graphics/SVG/1.1/DTD/svg11.dtd">
<!-- Generated by graphviz version 2.44.1 (20200629.0846)
 -->
<!-- Title: kryne&#45;engine/include/kryne&#45;engine/Textures Pages: 1 -->
<svg width="96pt" height="151pt"
 viewBox="0.00 0.00 96.00 151.00" xmlns="http://www.w3.org/2000/svg" xmlns:xlink="http://www.w3.org/1999/xlink">
<g id="graph0" class="graph" transform="scale(1 1) rotate(0) translate(4 147)">
<title>kryne&#45;engine/include/kryne&#45;engine/Textures</title>
<polygon fill="white" stroke="transparent" points="-4,4 -4,-147 92,-147 92,4 -4,4"/>
<g id="clust1" class="cluster">
<title>clusterdir_6f1e06805bf6fd443f4521a944e15946</title>
<g id="a_clust1"><a xlink:href="dir_6f1e06805bf6fd443f4521a944e15946.html" target="_top" xlink:title="kryne&#45;engine">
<polygon fill="#ddddee" stroke="black" points="8,-64 8,-135 80,-135 80,-64 8,-64"/>
<text text-anchor="middle" x="44" y="-123" font-family="Helvetica,sans-Serif" font-size="10.00">kryne&#45;engine</text>
</a>
</g>
</g>
<!-- dir_ff137d22f21ebfd8b3f4b25121363126 -->
<g id="node1" class="node">
<title>dir_ff137d22f21ebfd8b3f4b25121363126</title>
<g id="a_node1"><a xlink:href="dir_ff137d22f21ebfd8b3f4b25121363126.html" target="_top" xlink:title="Textures">
<polygon fill="#eeeeff" stroke="black" points="71,-108 17,-108 17,-72 71,-72 71,-108"/>
<text text-anchor="middle" x="44" y="-87.5" font-family="Helvetica,sans-Serif" font-size="10.00">Textures</text>
</a>
</g>
</g>
<!-- dir_df1d6d7a5cbfe72309d598c6cf7cef93 -->
<g id="node2" class="node">
<title>dir_df1d6d7a5cbfe72309d598c6cf7cef93</title>
<g id="a_node2"><a xlink:href="dir_df1d6d7a5cbfe72309d598c6cf7cef93.html" target="_top" xlink:title="Dispatch">
<polygon fill="none" stroke="black" points="71.5,-36 16.5,-36 16.5,0 71.5,0 71.5,-36"/>
<text text-anchor="middle" x="44" y="-15.5" font-family="Helvetica,sans-Serif" font-size="10.00">Dispatch</text>
</a>
</g>
</g>
<!-- dir_ff137d22f21ebfd8b3f4b25121363126&#45;&gt;dir_df1d6d7a5cbfe72309d598c6cf7cef93 -->
<g id="edge1" class="edge">
<title>dir_ff137d22f21ebfd8b3f4b25121363126&#45;&gt;dir_df1d6d7a5cbfe72309d598c6cf7cef93</title>
<path fill="none" stroke="black" d="M44,-71.7C44,-63.98 44,-54.71 44,-46.11"/>
<polygon fill="black" stroke="black" points="47.5,-46.1 44,-36.1 40.5,-46.1 47.5,-46.1"/>
<g id="a_edge1&#45;headlabel"><a xlink:href="dir_000025_000013.html" target="_top" xlink:title="1">
<text text-anchor="middle" x="50.34" y="-47.2" font-family="Helvetica,sans-Serif" font-size="10.00">1</text>
</a>
</g>
</g>
</g>
</svg>
