<?xml version="1.0" encoding="UTF-8" standalone="no"?>
<!DOCTYPE svg PUBLIC "-//W3C//DTD SVG 1.1//EN"
 "http://www.w3.org/Graphics/SVG/1.1/DTD/svg11.dtd">
<!-- Generated by graphviz version 2.44.1 (20200629.0846)
 -->
<!-- Title: kryne&#45;engine/include/kryne&#45;engine/Material Pages: 1 -->
<svg width="258pt" height="223pt"
 viewBox="0.00 0.00 258.48 223.00" xmlns="http://www.w3.org/2000/svg" xmlns:xlink="http://www.w3.org/1999/xlink">
<g id="graph0" class="graph" transform="scale(1 1) rotate(0) translate(4 219)">
<title>kryne&#45;engine/include/kryne&#45;engine/Material</title>
<polygon fill="white" stroke="transparent" points="-4,4 -4,-219 254.48,-219 254.48,4 -4,4"/>
<g id="clust1" class="cluster">
<title>clusterdir_6f1e06805bf6fd443f4521a944e15946</title>
<g id="a_clust1"><a xlink:href="dir_6f1e06805bf6fd443f4521a944e15946.html" target="_top" xlink:title="kryne&#45;engine">
<polygon fill="#ddddee" stroke="black" points="108,-136 108,-207 180,-207 180,-136 108,-136"/>
<text text-anchor="middle" x="144" y="-195" font-family="Helvetica,sans-Serif" font-size="10.00">kryne&#45;engine</text>
</a>
</g>
</g>
<!-- dir_2df94ed6ef9db741bde0bb2b5d769537 -->
<g id="node1" class="node">
<title>dir_2df94ed6ef9db741bde0bb2b5d769537</title>
<g id="a_node1"><a xlink:href="dir_2df94ed6ef9db741bde0bb2b5d769537.html" target="_top" xlink:title="Material">
<polygon fill="#eeeeff" stroke="black" points="171,-180 117,-180 117,-144 171,-144 171,-180"/>
<text text-anchor="middle" x="144" y="-159.5" font-family="Helvetica,sans-Serif" font-size="10.00">Material</text>
</a>
</g>
</g>
<!-- dir_ff137d22f21ebfd8b3f4b25121363126 -->
<g id="node2" class="node">
<title>dir_ff137d22f21ebfd8b3f4b25121363126</title>
<g id="a_node2"><a xlink:href="dir_ff137d22f21ebfd8b3f4b25121363126.html" target="_top" xlink:title="Textures">
<polygon fill="none" stroke="black" points="54,-108 0,-108 0,-72 54,-72 54,-108"/>
<text text-anchor="middle" x="27" y="-87.5" font-family="Helvetica,sans-Serif" font-size="10.00">Textures</text>
</a>
</g>
</g>
<!-- dir_2df94ed6ef9db741bde0bb2b5d769537&#45;&gt;dir_ff137d22f21ebfd8b3f4b25121363126 -->
<g id="edge2" class="edge">
<title>dir_2df94ed6ef9db741bde0bb2b5d769537&#45;&gt;dir_ff137d22f21ebfd8b3f4b25121363126</title>
<path fill="none" stroke="black" d="M116.86,-144.76C100.88,-135.2 80.47,-122.99 63.14,-112.62"/>
<polygon fill="black" stroke="black" points="64.77,-109.52 54.39,-107.39 61.18,-115.53 64.77,-109.52"/>
<g id="a_edge2&#45;headlabel"><a xlink:href="dir_000005_000023.html" target="_top" xlink:title="2">
<text text-anchor="middle" x="69.32" y="-106.43" font-family="Helvetica,sans-Serif" font-size="10.00">2</text>
</a>
</g>
</g>
<!-- dir_6461cf5290df6a95e69a46be8b2326db -->
<g id="node3" class="node">
<title>dir_6461cf5290df6a95e69a46be8b2326db</title>
<g id="a_node3"><a xlink:href="dir_6461cf5290df6a95e69a46be8b2326db.html" target="_top" xlink:title="Utils">
<polygon fill="none" stroke="black" points="126,-108 72,-108 72,-72 126,-72 126,-108"/>
<text text-anchor="middle" x="99" y="-87.5" font-family="Helvetica,sans-Serif" font-size="10.00">Utils</text>
</a>
</g>
</g>
<!-- dir_2df94ed6ef9db741bde0bb2b5d769537&#45;&gt;dir_6461cf5290df6a95e69a46be8b2326db -->
<g id="edge3" class="edge">
<title>dir_2df94ed6ef9db741bde0bb2b5d769537&#45;&gt;dir_6461cf5290df6a95e69a46be8b2326db</title>
<path fill="none" stroke="black" d="M132.88,-143.7C127.64,-135.56 121.3,-125.69 115.52,-116.7"/>
<polygon fill="black" stroke="black" points="118.35,-114.62 110,-108.1 112.46,-118.41 118.35,-114.62"/>
<g id="a_edge3&#45;headlabel"><a xlink:href="dir_000005_000006.html" target="_top" xlink:title="1">
<text text-anchor="middle" x="122.68" y="-113.61" font-family="Helvetica,sans-Serif" font-size="10.00">1</text>
</a>
</g>
</g>
<!-- dir_242c69f8aa6c0b27ad66788f5b769271 -->
<g id="node4" class="node">
<title>dir_242c69f8aa6c0b27ad66788f5b769271</title>
<g id="a_node4"><a xlink:href="dir_242c69f8aa6c0b27ad66788f5b769271.html" target="_top" xlink:title="Rendering">
<polygon fill="white" stroke="red" points="249,-180 189,-180 189,-144 249,-144 249,-180"/>
<text text-anchor="middle" x="219" y="-159.5" font-family="Helvetica,sans-Serif" font-size="10.00">Rendering</text>
</a>
</g>
</g>
<!-- dir_2df94ed6ef9db741bde0bb2b5d769537&#45;&gt;dir_242c69f8aa6c0b27ad66788f5b769271 -->
<g id="edge4" class="edge">
<title>dir_2df94ed6ef9db741bde0bb2b5d769537&#45;&gt;dir_242c69f8aa6c0b27ad66788f5b769271</title>
<path fill="none" stroke="black" d="M171.25,-162C173.71,-162 176.18,-162 178.64,-162"/>
<polygon fill="black" stroke="black" points="178.78,-165.5 188.78,-162 178.78,-158.5 178.78,-165.5"/>
<g id="a_edge4&#45;headlabel"><a xlink:href="dir_000005_000018.html" target="_top" xlink:title="1">
<text text-anchor="middle" x="175.19" y="-165.84" font-family="Helvetica,sans-Serif" font-size="10.00">1</text>
</a>
</g>
</g>
<!-- dir_38bf7f35d8fb44d8d23d70926bbee9d1 -->
<g id="node5" class="node">
<title>dir_38bf7f35d8fb44d8d23d70926bbee9d1</title>
<g id="a_node5"><a xlink:href="dir_38bf7f35d8fb44d8d23d70926bbee9d1.html" target="_top" xlink:title="enums">
<polygon fill="none" stroke="black" points="236,-108 182,-108 182,-72 236,-72 236,-108"/>
<text text-anchor="middle" x="209" y="-87.5" font-family="Helvetica,sans-Serif" font-size="10.00">enums</text>
</a>
</g>
</g>
<!-- dir_2df94ed6ef9db741bde0bb2b5d769537&#45;&gt;dir_38bf7f35d8fb44d8d23d70926bbee9d1 -->
<g id="edge5" class="edge">
<title>dir_2df94ed6ef9db741bde0bb2b5d769537&#45;&gt;dir_38bf7f35d8fb44d8d23d70926bbee9d1</title>
<path fill="none" stroke="black" d="M160.07,-143.7C167.94,-135.22 177.56,-124.86 186.17,-115.58"/>
<polygon fill="black" stroke="black" points="188.88,-117.81 193.12,-108.1 183.75,-113.05 188.88,-117.81"/>
<g id="a_edge5&#45;headlabel"><a xlink:href="dir_000005_000008.html" target="_top" xlink:title="1">
<text text-anchor="middle" x="188.51" y="-119.88" font-family="Helvetica,sans-Serif" font-size="10.00">1</text>
</a>
</g>
</g>
<!-- dir_df1d6d7a5cbfe72309d598c6cf7cef93 -->
<g id="node6" class="node">
<title>dir_df1d6d7a5cbfe72309d598c6cf7cef93</title>
<g id="a_node6"><a xlink:href="dir_df1d6d7a5cbfe72309d598c6cf7cef93.html" target="_top" xlink:title="Dispatch">
<polygon fill="none" stroke="black" points="181.5,-36 126.5,-36 126.5,0 181.5,0 181.5,-36"/>
<text text-anchor="middle" x="154" y="-15.5" font-family="Helvetica,sans-Serif" font-size="10.00">Dispatch</text>
</a>
</g>
</g>
<!-- dir_2df94ed6ef9db741bde0bb2b5d769537&#45;&gt;dir_df1d6d7a5cbfe72309d598c6cf7cef93 -->
<g id="edge6" class="edge">
<title>dir_2df94ed6ef9db741bde0bb2b5d769537&#45;&gt;dir_df1d6d7a5cbfe72309d598c6cf7cef93</title>
<path fill="none" stroke="black" d="M145.21,-143.87C146.91,-119.67 150.04,-75.21 152.07,-46.39"/>
<polygon fill="black" stroke="black" points="155.58,-46.41 152.79,-36.19 148.6,-45.92 155.58,-46.41"/>
<g id="a_edge6&#45;headlabel"><a xlink:href="dir_000005_000013.html" target="_top" xlink:title="1">
<text text-anchor="middle" x="158.16" y="-47.7" font-family="Helvetica,sans-Serif" font-size="10.00">1</text>
</a>
</g>
</g>
<!-- dir_ff137d22f21ebfd8b3f4b25121363126&#45;&gt;dir_df1d6d7a5cbfe72309d598c6cf7cef93 -->
<g id="edge1" class="edge">
<title>dir_ff137d22f21ebfd8b3f4b25121363126&#45;&gt;dir_df1d6d7a5cbfe72309d598c6cf7cef93</title>
<path fill="none" stroke="black" d="M54.24,-73.98C72.7,-63.81 97.3,-50.25 117.45,-39.14"/>
<polygon fill="black" stroke="black" points="119.29,-42.13 126.36,-34.23 115.91,-36 119.29,-42.13"/>
<g id="a_edge1&#45;headlabel"><a xlink:href="dir_000023_000013.html" target="_top" xlink:title="1">
<text text-anchor="middle" x="117.52" y="-43.85" font-family="Helvetica,sans-Serif" font-size="10.00">1</text>
</a>
</g>
</g>
<!-- dir_242c69f8aa6c0b27ad66788f5b769271&#45;&gt;dir_2df94ed6ef9db741bde0bb2b5d769537 -->
<g id="edge7" class="edge">
<title>dir_242c69f8aa6c0b27ad66788f5b769271&#45;&gt;dir_2df94ed6ef9db741bde0bb2b5d769537</title>
<path fill="none" stroke="black" d="M188.78,-162C186.31,-162 183.85,-162 181.38,-162"/>
<polygon fill="black" stroke="black" points="181.25,-158.5 171.25,-162 181.25,-165.5 181.25,-158.5"/>
<g id="a_edge7&#45;headlabel"><a xlink:href="dir_000018_000005.html" target="_top" xlink:title="2">
<text text-anchor="middle" x="184.84" y="-153.16" font-family="Helvetica,sans-Serif" font-size="10.00">2</text>
</a>
</g>
</g>
<!-- dir_242c69f8aa6c0b27ad66788f5b769271&#45;&gt;dir_38bf7f35d8fb44d8d23d70926bbee9d1 -->
<g id="edge8" class="edge">
<title>dir_242c69f8aa6c0b27ad66788f5b769271&#45;&gt;dir_38bf7f35d8fb44d8d23d70926bbee9d1</title>
<path fill="none" stroke="black" d="M216.53,-143.7C215.43,-135.98 214.1,-126.71 212.87,-118.11"/>
<polygon fill="black" stroke="black" points="216.32,-117.51 211.44,-108.1 209.39,-118.5 216.32,-117.51"/>
<g id="a_edge8&#45;headlabel"><a xlink:href="dir_000018_000008.html" target="_top" xlink:title="2">
<text text-anchor="middle" x="219.64" y="-118.17" font-family="Helvetica,sans-Serif" font-size="10.00">2</text>
</a>
</g>
</g>
<!-- dir_242c69f8aa6c0b27ad66788f5b769271&#45;&gt;dir_df1d6d7a5cbfe72309d598c6cf7cef93 -->
<g id="edge9" class="edge">
<title>dir_242c69f8aa6c0b27ad66788f5b769271&#45;&gt;dir_df1d6d7a5cbfe72309d598c6cf7cef93</title>
<path fill="none" stroke="black" d="M231.54,-143.99C243.61,-125.34 258.24,-95.03 245,-72 233.41,-51.84 210.88,-38.63 191.13,-30.44"/>
<polygon fill="black" stroke="black" points="192.31,-27.14 181.72,-26.81 189.8,-33.68 192.31,-27.14"/>
<g id="a_edge9&#45;headlabel"><a xlink:href="dir_000018_000013.html" target="_top" xlink:title="1">
<text text-anchor="middle" x="196.69" y="-23.29" font-family="Helvetica,sans-Serif" font-size="10.00">1</text>
</a>
</g>
</g>
</g>
</svg>
