<?xml version="1.0" encoding="UTF-8" standalone="no"?>
<!DOCTYPE svg PUBLIC "-//W3C//DTD SVG 1.1//EN"
 "http://www.w3.org/Graphics/SVG/1.1/DTD/svg11.dtd">
<!-- Generated by graphviz version 2.44.1 (20200629.0846)
 -->
<!-- Title: kryne&#45;engine/include/kryne&#45;engine/Rendering/ShadowMapping Pages: 1 -->
<svg width="171pt" height="223pt"
 viewBox="0.00 0.00 171.00 223.00" xmlns="http://www.w3.org/2000/svg" xmlns:xlink="http://www.w3.org/1999/xlink">
<g id="graph0" class="graph" transform="scale(1 1) rotate(0) translate(4 219)">
<title>kryne&#45;engine/include/kryne&#45;engine/Rendering/ShadowMapping</title>
<polygon fill="white" stroke="transparent" points="-4,4 -4,-219 167,-219 167,4 -4,4"/>
<g id="clust1" class="cluster">
<title>clusterdir_242c69f8aa6c0b27ad66788f5b769271</title>
<g id="a_clust1"><a xlink:href="dir_242c69f8aa6c0b27ad66788f5b769271.html" target="_top" xlink:title="Rendering">
<polygon fill="#ddddee" stroke="black" points="51,-136 51,-207 155,-207 155,-136 51,-136"/>
<text text-anchor="middle" x="103" y="-195" font-family="Helvetica,sans-Serif" font-size="10.00">Rendering</text>
</a>
</g>
</g>
<!-- dir_21993cf44815c915b4445ee3aa1eefb4 -->
<g id="node1" class="node">
<title>dir_21993cf44815c915b4445ee3aa1eefb4</title>
<g id="a_node1"><a xlink:href="dir_21993cf44815c915b4445ee3aa1eefb4.html" target="_top" xlink:title="ShadowMapping">
<polygon fill="#eeeeff" stroke="black" points="147,-180 59,-180 59,-144 147,-144 147,-180"/>
<text text-anchor="middle" x="103" y="-159.5" font-family="Helvetica,sans-Serif" font-size="10.00">ShadowMapping</text>
</a>
</g>
</g>
<!-- dir_bc207b629cecfa3c79a9cf5cbcc913a7 -->
<g id="node2" class="node">
<title>dir_bc207b629cecfa3c79a9cf5cbcc913a7</title>
<g id="a_node2"><a xlink:href="dir_bc207b629cecfa3c79a9cf5cbcc913a7.html" target="_top" xlink:title="Light">
<polygon fill="none" stroke="black" points="54,-108 0,-108 0,-72 54,-72 54,-108"/>
<text text-anchor="middle" x="27" y="-87.5" font-family="Helvetica,sans-Serif" font-size="10.00">Light</text>
</a>
</g>
</g>
<!-- dir_21993cf44815c915b4445ee3aa1eefb4&#45;&gt;dir_bc207b629cecfa3c79a9cf5cbcc913a7 -->
<g id="edge1" class="edge">
<title>dir_21993cf44815c915b4445ee3aa1eefb4&#45;&gt;dir_bc207b629cecfa3c79a9cf5cbcc913a7</title>
<path fill="none" stroke="black" d="M84.21,-143.7C74.83,-135.05 63.32,-124.45 53.09,-115.03"/>
<polygon fill="black" stroke="black" points="55.3,-112.3 45.57,-108.1 50.55,-117.45 55.3,-112.3"/>
<g id="a_edge1&#45;headlabel"><a xlink:href="dir_000017_000014.html" target="_top" xlink:title="2">
<text text-anchor="middle" x="59.86" y="-110.15" font-family="Helvetica,sans-Serif" font-size="10.00">2</text>
</a>
</g>
</g>
<!-- dir_d15e7af35e2750da09bd940611b2a2e2 -->
<g id="node3" class="node">
<title>dir_d15e7af35e2750da09bd940611b2a2e2</title>
<g id="a_node3"><a xlink:href="dir_d15e7af35e2750da09bd940611b2a2e2.html" target="_top" xlink:title="3DObjects">
<polygon fill="white" stroke="red" points="134,-108 72,-108 72,-72 134,-72 134,-108"/>
<text text-anchor="middle" x="103" y="-87.5" font-family="Helvetica,sans-Serif" font-size="10.00">3DObjects</text>
</a>
</g>
</g>
<!-- dir_21993cf44815c915b4445ee3aa1eefb4&#45;&gt;dir_d15e7af35e2750da09bd940611b2a2e2 -->
<g id="edge2" class="edge">
<title>dir_21993cf44815c915b4445ee3aa1eefb4&#45;&gt;dir_d15e7af35e2750da09bd940611b2a2e2</title>
<path fill="none" stroke="black" d="M103,-143.7C103,-135.98 103,-126.71 103,-118.11"/>
<polygon fill="black" stroke="black" points="106.5,-118.1 103,-108.1 99.5,-118.1 106.5,-118.1"/>
<g id="a_edge2&#45;headlabel"><a xlink:href="dir_000017_000007.html" target="_top" xlink:title="1">
<text text-anchor="middle" x="109.34" y="-119.2" font-family="Helvetica,sans-Serif" font-size="10.00">1</text>
</a>
</g>
</g>
<!-- dir_ec623ab5e31cd0d896091bc495e4e063 -->
<g id="node4" class="node">
<title>dir_ec623ab5e31cd0d896091bc495e4e063</title>
<g id="a_node4"><a xlink:href="dir_ec623ab5e31cd0d896091bc495e4e063.html" target="_top" xlink:title="Core">
<polygon fill="none" stroke="black" points="159,-36 105,-36 105,0 159,0 159,-36"/>
<text text-anchor="middle" x="132" y="-15.5" font-family="Helvetica,sans-Serif" font-size="10.00">Core</text>
</a>
</g>
</g>
<!-- dir_21993cf44815c915b4445ee3aa1eefb4&#45;&gt;dir_ec623ab5e31cd0d896091bc495e4e063 -->
<g id="edge3" class="edge">
<title>dir_21993cf44815c915b4445ee3aa1eefb4&#45;&gt;dir_ec623ab5e31cd0d896091bc495e4e063</title>
<path fill="none" stroke="black" d="M120.73,-143.6C129.24,-134 138.53,-121.34 143,-108 149.74,-87.88 146.19,-63.97 141.39,-46"/>
<polygon fill="black" stroke="black" points="144.68,-44.78 138.49,-36.18 137.97,-46.76 144.68,-44.78"/>
<g id="a_edge3&#45;headlabel"><a xlink:href="dir_000017_000011.html" target="_top" xlink:title="1">
<text text-anchor="middle" x="148.42" y="-44.92" font-family="Helvetica,sans-Serif" font-size="10.00">1</text>
</a>
</g>
</g>
<!-- dir_d15e7af35e2750da09bd940611b2a2e2&#45;&gt;dir_ec623ab5e31cd0d896091bc495e4e063 -->
<g id="edge4" class="edge">
<title>dir_d15e7af35e2750da09bd940611b2a2e2&#45;&gt;dir_ec623ab5e31cd0d896091bc495e4e063</title>
<path fill="none" stroke="black" d="M110.17,-71.7C113.43,-63.81 117.37,-54.3 121,-45.55"/>
<polygon fill="black" stroke="black" points="124.32,-46.68 124.91,-36.1 117.85,-44 124.32,-46.68"/>
<g id="a_edge4&#45;headlabel"><a xlink:href="dir_000007_000011.html" target="_top" xlink:title="7">
<text text-anchor="middle" x="125.57" y="-48.59" font-family="Helvetica,sans-Serif" font-size="10.00">7</text>
</a>
</g>
</g>
</g>
</svg>
