<?xml version="1.0" encoding="UTF-8" standalone="no"?>
<!DOCTYPE svg PUBLIC "-//W3C//DTD SVG 1.1//EN"
 "http://www.w3.org/Graphics/SVG/1.1/DTD/svg11.dtd">
<!-- Generated by graphviz version 2.40.1 (20161225.0304)
 -->
<!-- Title: kryne&#45;engine/include/kryne&#45;engine/Geometry Pages: 1 -->
<svg width="231pt" height="223pt"
 viewBox="0.00 0.00 230.66 223.00" xmlns="http://www.w3.org/2000/svg" xmlns:xlink="http://www.w3.org/1999/xlink">
<g id="graph0" class="graph" transform="scale(1 1) rotate(0) translate(4 219)">
<title>kryne&#45;engine/include/kryne&#45;engine/Geometry</title>
<polygon fill="#ffffff" stroke="transparent" points="-4,4 -4,-219 226.6646,-219 226.6646,4 -4,4"/>
<g id="clust1" class="cluster">
<title>clusterdir_6f1e06805bf6fd443f4521a944e15946</title>
<g id="a_clust1"><a xlink:href="dir_6f1e06805bf6fd443f4521a944e15946.html" target="_top" xlink:title="kryne&#45;engine">
<polygon fill="#ddddee" stroke="#000000" points="41.6646,-136 41.6646,-207 117.6646,-207 117.6646,-136 41.6646,-136"/>
<text text-anchor="middle" x="79.6646" y="-195" font-family="Helvetica,sans-Serif" font-size="10.00" fill="#000000">kryne&#45;engine</text>
</a>
</g>
</g>
<!-- dir_2dd932fc5c4f5b62276988dfe28c2718 -->
<g id="node1" class="node">
<title>dir_2dd932fc5c4f5b62276988dfe28c2718</title>
<g id="a_node1"><a xlink:href="dir_2dd932fc5c4f5b62276988dfe28c2718.html" target="_top" xlink:title="Geometry">
<polygon fill="#eeeeff" stroke="#000000" points="109.1646,-180 50.1646,-180 50.1646,-144 109.1646,-144 109.1646,-180"/>
<text text-anchor="middle" x="79.6646" y="-159.5" font-family="Helvetica,sans-Serif" font-size="10.00" fill="#000000">Geometry</text>
</a>
</g>
</g>
<!-- dir_6461cf5290df6a95e69a46be8b2326db -->
<g id="node2" class="node">
<title>dir_6461cf5290df6a95e69a46be8b2326db</title>
<g id="a_node2"><a xlink:href="dir_6461cf5290df6a95e69a46be8b2326db.html" target="_top" xlink:title="Utils">
<polygon fill="#ffffff" stroke="#ff0000" points="117.6646,-36 63.6646,-36 63.6646,0 117.6646,0 117.6646,-36"/>
<text text-anchor="middle" x="90.6646" y="-15.5" font-family="Helvetica,sans-Serif" font-size="10.00" fill="#000000">Utils</text>
</a>
</g>
</g>
<!-- dir_2dd932fc5c4f5b62276988dfe28c2718&#45;&gt;dir_6461cf5290df6a95e69a46be8b2326db -->
<g id="edge1" class="edge">
<title>dir_2dd932fc5c4f5b62276988dfe28c2718&#45;&gt;dir_6461cf5290df6a95e69a46be8b2326db</title>
<path fill="none" stroke="#000000" d="M49.9611,-148.8203C33.6773,-139.8588 14.9598,-126.2899 5.6646,-108 -1.5844,-93.7363 -2.0401,-86.0228 5.6646,-72 16.0599,-53.0802 36.2019,-39.8489 54.2699,-31.2202"/>
<polygon fill="#000000" stroke="#000000" points="55.7573,-34.3892 63.4667,-27.1217 52.9079,-27.9954 55.7573,-34.3892"/>
<g id="a_edge1&#45;headlabel"><a xlink:href="dir_000021_000013.html" target="_top" xlink:title="2">
<text text-anchor="middle" x="53.6297" y="-35.9457" font-family="Helvetica,sans-Serif" font-size="10.00" fill="#000000">2</text>
</a>
</g>
</g>
<!-- dir_0f92915ca20b087fd6327f83858c7195 -->
<g id="node3" class="node">
<title>dir_0f92915ca20b087fd6327f83858c7195</title>
<g id="a_node3"><a xlink:href="dir_0f92915ca20b087fd6327f83858c7195.html" target="_top" xlink:title="Math">
<polygon fill="none" stroke="#000000" points="68.6646,-108 14.6646,-108 14.6646,-72 68.6646,-72 68.6646,-108"/>
<text text-anchor="middle" x="41.6646" y="-87.5" font-family="Helvetica,sans-Serif" font-size="10.00" fill="#000000">Math</text>
</a>
</g>
</g>
<!-- dir_2dd932fc5c4f5b62276988dfe28c2718&#45;&gt;dir_0f92915ca20b087fd6327f83858c7195 -->
<g id="edge2" class="edge">
<title>dir_2dd932fc5c4f5b62276988dfe28c2718&#45;&gt;dir_0f92915ca20b087fd6327f83858c7195</title>
<path fill="none" stroke="#000000" d="M70.0756,-143.8314C65.8328,-135.7925 60.7525,-126.1666 56.0686,-117.2918"/>
<polygon fill="#000000" stroke="#000000" points="59.1457,-115.6235 51.3827,-108.4133 52.955,-118.8908 59.1457,-115.6235"/>
<g id="a_edge2&#45;headlabel"><a xlink:href="dir_000021_000025.html" target="_top" xlink:title="1">
<text text-anchor="middle" x="63.3345" y="-114.9772" font-family="Helvetica,sans-Serif" font-size="10.00" fill="#000000">1</text>
</a>
</g>
</g>
<!-- dir_f382c466c9934bb821718b5297ce6904 -->
<g id="node4" class="node">
<title>dir_f382c466c9934bb821718b5297ce6904</title>
<g id="a_node4"><a xlink:href="dir_f382c466c9934bb821718b5297ce6904.html" target="_top" xlink:title="Constants">
<polygon fill="none" stroke="#000000" points="148.6646,-108 86.6646,-108 86.6646,-72 148.6646,-72 148.6646,-108"/>
<text text-anchor="middle" x="117.6646" y="-87.5" font-family="Helvetica,sans-Serif" font-size="10.00" fill="#000000">Constants</text>
</a>
</g>
</g>
<!-- dir_2dd932fc5c4f5b62276988dfe28c2718&#45;&gt;dir_f382c466c9934bb821718b5297ce6904 -->
<g id="edge3" class="edge">
<title>dir_2dd932fc5c4f5b62276988dfe28c2718&#45;&gt;dir_f382c466c9934bb821718b5297ce6904</title>
<path fill="none" stroke="#000000" d="M89.2536,-143.8314C93.4963,-135.7925 98.5767,-126.1666 103.2606,-117.2918"/>
<polygon fill="#000000" stroke="#000000" points="106.3742,-118.8908 107.9465,-108.4133 100.1835,-115.6235 106.3742,-118.8908"/>
<g id="a_edge3&#45;headlabel"><a xlink:href="dir_000021_000017.html" target="_top" xlink:title="1">
<text text-anchor="middle" x="107.2074" y="-120.895" font-family="Helvetica,sans-Serif" font-size="10.00" fill="#000000">1</text>
</a>
</g>
</g>
<!-- dir_df1d6d7a5cbfe72309d598c6cf7cef93 -->
<g id="node5" class="node">
<title>dir_df1d6d7a5cbfe72309d598c6cf7cef93</title>
<g id="a_node5"><a xlink:href="dir_df1d6d7a5cbfe72309d598c6cf7cef93.html" target="_top" xlink:title="Dispatch">
<polygon fill="none" stroke="#000000" points="222.6646,-108 166.6646,-108 166.6646,-72 222.6646,-72 222.6646,-108"/>
<text text-anchor="middle" x="194.6646" y="-87.5" font-family="Helvetica,sans-Serif" font-size="10.00" fill="#000000">Dispatch</text>
</a>
</g>
</g>
<!-- dir_2dd932fc5c4f5b62276988dfe28c2718&#45;&gt;dir_df1d6d7a5cbfe72309d598c6cf7cef93 -->
<g id="edge4" class="edge">
<title>dir_2dd932fc5c4f5b62276988dfe28c2718&#45;&gt;dir_df1d6d7a5cbfe72309d598c6cf7cef93</title>
<path fill="none" stroke="#000000" d="M108.6839,-143.8314C123.6177,-134.4815 141.9805,-122.9848 157.8965,-113.02"/>
<polygon fill="#000000" stroke="#000000" points="159.8311,-115.9382 166.4496,-107.665 156.1164,-110.0051 159.8311,-115.9382"/>
<g id="a_edge4&#45;headlabel"><a xlink:href="dir_000021_000020.html" target="_top" xlink:title="2">
<text text-anchor="middle" x="158.291" y="-117.7522" font-family="Helvetica,sans-Serif" font-size="10.00" fill="#000000">2</text>
</a>
</g>
</g>
<!-- dir_df1d6d7a5cbfe72309d598c6cf7cef93&#45;&gt;dir_6461cf5290df6a95e69a46be8b2326db -->
<g id="edge5" class="edge">
<title>dir_df1d6d7a5cbfe72309d598c6cf7cef93&#45;&gt;dir_6461cf5290df6a95e69a46be8b2326db</title>
<path fill="none" stroke="#000000" d="M168.421,-71.8314C155.3651,-62.7927 139.4111,-51.7476 125.3599,-42.0198"/>
<polygon fill="#000000" stroke="#000000" points="127.114,-38.9773 116.8998,-36.1628 123.1295,-44.7326 127.114,-38.9773"/>
<g id="a_edge5&#45;headlabel"><a xlink:href="dir_000020_000013.html" target="_top" xlink:title="1">
<text text-anchor="middle" x="131.6856" y="-36.1889" font-family="Helvetica,sans-Serif" font-size="10.00" fill="#000000">1</text>
</a>
</g>
</g>
</g>
</svg>
