<?xml version="1.0" encoding="UTF-8" standalone="no"?>
<!DOCTYPE svg PUBLIC "-//W3C//DTD SVG 1.1//EN"
 "http://www.w3.org/Graphics/SVG/1.1/DTD/svg11.dtd">
<!-- Generated by graphviz version 2.44.1 (20200629.0846)
 -->
<!-- Title: kryne&#45;engine/include/kryne&#45;engine/Core Pages: 1 -->
<svg width="440pt" height="267pt"
 viewBox="0.00 0.00 439.50 267.00" xmlns="http://www.w3.org/2000/svg" xmlns:xlink="http://www.w3.org/1999/xlink">
<g id="graph0" class="graph" transform="scale(1 1) rotate(0) translate(4 263)">
<title>kryne&#45;engine/include/kryne&#45;engine/Core</title>
<polygon fill="white" stroke="transparent" points="-4,4 -4,-263 435.5,-263 435.5,4 -4,4"/>
<g id="clust1" class="cluster">
<title>clusterdir_6f1e06805bf6fd443f4521a944e15946</title>
<g id="a_clust1"><a xlink:href="dir_6f1e06805bf6fd443f4521a944e15946.html" target="_top" xlink:title="kryne&#45;engine">
<polygon fill="#ddddee" stroke="black" points="69.5,-56 69.5,-215 185.5,-215 185.5,-56 69.5,-56"/>
<text text-anchor="middle" x="127.5" y="-203" font-family="Helvetica,sans-Serif" font-size="10.00">kryne&#45;engine</text>
</a>
</g>
</g>
<g id="clust2" class="cluster">
<title>clusterdir_ec623ab5e31cd0d896091bc495e4e063</title>
<g id="a_clust2"><a xlink:href="dir_ec623ab5e31cd0d896091bc495e4e063.html" target="_top">
<polygon fill="#eeeeff" stroke="black" points="77.5,-64 77.5,-188 177.5,-188 177.5,-64 77.5,-64"/>
</a>
</g>
</g>
<!-- dir_ec623ab5e31cd0d896091bc495e4e063 -->
<g id="node1" class="node">
<title>dir_ec623ab5e31cd0d896091bc495e4e063</title>
<text text-anchor="middle" x="142.5" y="-159.5" font-family="Helvetica,sans-Serif" font-size="10.00">Core</text>
</g>
<!-- dir_c9051af2ea579de52649c741bd9b2439 -->
<g id="node2" class="node">
<title>dir_c9051af2ea579de52649c741bd9b2439</title>
<g id="a_node2"><a xlink:href="dir_c9051af2ea579de52649c741bd9b2439.html" target="_top" xlink:title="GraphicContext">
<polygon fill="white" stroke="black" points="169.5,-108 85.5,-108 85.5,-72 169.5,-72 169.5,-108"/>
<text text-anchor="middle" x="127.5" y="-87.5" font-family="Helvetica,sans-Serif" font-size="10.00">GraphicContext</text>
</a>
</g>
</g>
<!-- dir_ec623ab5e31cd0d896091bc495e4e063&#45;&gt;dir_c9051af2ea579de52649c741bd9b2439 -->
<g id="edge20" class="edge">
<title>dir_ec623ab5e31cd0d896091bc495e4e063&#45;&gt;dir_c9051af2ea579de52649c741bd9b2439</title>
<path fill="none" stroke="black" d="M138.79,-143.7C137.14,-135.98 135.15,-126.71 133.31,-118.11"/>
<polygon fill="black" stroke="black" points="136.68,-117.15 131.17,-108.1 129.84,-118.62 136.68,-117.15"/>
<g id="a_edge20&#45;headlabel"><a xlink:href="dir_000011_000012.html" target="_top" xlink:title="1">
<text text-anchor="middle" x="140.21" y="-117.57" font-family="Helvetica,sans-Serif" font-size="10.00">1</text>
</a>
</g>
</g>
<!-- dir_d15e7af35e2750da09bd940611b2a2e2 -->
<g id="node3" class="node">
<title>dir_d15e7af35e2750da09bd940611b2a2e2</title>
<g id="a_node3"><a xlink:href="dir_d15e7af35e2750da09bd940611b2a2e2.html" target="_top" xlink:title="3DObjects">
<polygon fill="white" stroke="red" points="325.5,-259 263.5,-259 263.5,-223 325.5,-223 325.5,-259"/>
<text text-anchor="middle" x="294.5" y="-238.5" font-family="Helvetica,sans-Serif" font-size="10.00">3DObjects</text>
</a>
</g>
</g>
<!-- dir_ec623ab5e31cd0d896091bc495e4e063&#45;&gt;dir_d15e7af35e2750da09bd940611b2a2e2 -->
<g id="edge15" class="edge">
<title>dir_ec623ab5e31cd0d896091bc495e4e063&#45;&gt;dir_d15e7af35e2750da09bd940611b2a2e2</title>
<path fill="none" stroke="black" d="M157.77,-180.04C171.95,-191.04 193.27,-205.09 213.5,-215 226,-221.12 240.38,-226.43 253.62,-230.57"/>
<polygon fill="black" stroke="black" points="252.88,-234 263.46,-233.49 254.87,-227.29 252.88,-234"/>
<g id="a_edge15&#45;headlabel"><a xlink:href="dir_000011_000007.html" target="_top" xlink:title="1">
<text text-anchor="middle" x="248.63" y="-233.2" font-family="Helvetica,sans-Serif" font-size="10.00">1</text>
</a>
</g>
</g>
<!-- dir_738e93b4b72767cbed3fd0527471f516 -->
<g id="node4" class="node">
<title>dir_738e93b4b72767cbed3fd0527471f516</title>
<g id="a_node4"><a xlink:href="dir_738e93b4b72767cbed3fd0527471f516.html" target="_top" xlink:title="Camera">
<polygon fill="none" stroke="black" points="321.5,-108 267.5,-108 267.5,-72 321.5,-72 321.5,-108"/>
<text text-anchor="middle" x="294.5" y="-87.5" font-family="Helvetica,sans-Serif" font-size="10.00">Camera</text>
</a>
</g>
</g>
<!-- dir_ec623ab5e31cd0d896091bc495e4e063&#45;&gt;dir_738e93b4b72767cbed3fd0527471f516 -->
<g id="edge16" class="edge">
<title>dir_ec623ab5e31cd0d896091bc495e4e063&#45;&gt;dir_738e93b4b72767cbed3fd0527471f516</title>
<path fill="none" stroke="black" d="M169.9,-145.11C191.62,-134.64 222.39,-120.59 249.5,-108 252.23,-106.73 255.08,-105.4 257.96,-104.07"/>
<polygon fill="black" stroke="black" points="259.56,-107.18 267.23,-99.87 256.67,-100.81 259.56,-107.18"/>
<g id="a_edge16&#45;headlabel"><a xlink:href="dir_000011_000004.html" target="_top" xlink:title="2">
<text text-anchor="middle" x="257.46" y="-108.75" font-family="Helvetica,sans-Serif" font-size="10.00">2</text>
</a>
</g>
</g>
<!-- dir_242c69f8aa6c0b27ad66788f5b769271 -->
<g id="node5" class="node">
<title>dir_242c69f8aa6c0b27ad66788f5b769271</title>
<g id="a_node5"><a xlink:href="dir_242c69f8aa6c0b27ad66788f5b769271.html" target="_top" xlink:title="Rendering">
<polygon fill="white" stroke="red" points="324.5,-180 264.5,-180 264.5,-144 324.5,-144 324.5,-180"/>
<text text-anchor="middle" x="294.5" y="-159.5" font-family="Helvetica,sans-Serif" font-size="10.00">Rendering</text>
</a>
</g>
</g>
<!-- dir_ec623ab5e31cd0d896091bc495e4e063&#45;&gt;dir_242c69f8aa6c0b27ad66788f5b769271 -->
<g id="edge17" class="edge">
<title>dir_ec623ab5e31cd0d896091bc495e4e063&#45;&gt;dir_242c69f8aa6c0b27ad66788f5b769271</title>
<path fill="none" stroke="black" d="M169.52,-162C197.63,-162 225.75,-162 253.87,-162"/>
<polygon fill="black" stroke="black" points="254.23,-165.5 264.23,-162 254.23,-158.5 254.23,-165.5"/>
<g id="a_edge17&#45;headlabel"><a xlink:href="dir_000011_000018.html" target="_top" xlink:title="5">
<text text-anchor="middle" x="250.64" y="-165.84" font-family="Helvetica,sans-Serif" font-size="10.00">5</text>
</a>
</g>
</g>
<!-- dir_38bf7f35d8fb44d8d23d70926bbee9d1 -->
<g id="node6" class="node">
<title>dir_38bf7f35d8fb44d8d23d70926bbee9d1</title>
<g id="a_node6"><a xlink:href="dir_38bf7f35d8fb44d8d23d70926bbee9d1.html" target="_top" xlink:title="enums">
<polygon fill="none" stroke="black" points="431.5,-108 377.5,-108 377.5,-72 431.5,-72 431.5,-108"/>
<text text-anchor="middle" x="404.5" y="-87.5" font-family="Helvetica,sans-Serif" font-size="10.00">enums</text>
</a>
</g>
</g>
<!-- dir_ec623ab5e31cd0d896091bc495e4e063&#45;&gt;dir_38bf7f35d8fb44d8d23d70926bbee9d1 -->
<g id="edge18" class="edge">
<title>dir_ec623ab5e31cd0d896091bc495e4e063&#45;&gt;dir_38bf7f35d8fb44d8d23d70926bbee9d1</title>
<path fill="none" stroke="black" d="M169.55,-153.77C216.72,-141.17 314.06,-115.16 367.45,-100.9"/>
<polygon fill="black" stroke="black" points="368.45,-104.26 377.2,-98.29 366.64,-97.49 368.45,-104.26"/>
<g id="a_edge18&#45;headlabel"><a xlink:href="dir_000011_000008.html" target="_top" xlink:title="1">
<text text-anchor="middle" x="365.71" y="-105.43" font-family="Helvetica,sans-Serif" font-size="10.00">1</text>
</a>
</g>
</g>
<!-- dir_f382c466c9934bb821718b5297ce6904 -->
<g id="node7" class="node">
<title>dir_f382c466c9934bb821718b5297ce6904</title>
<g id="a_node7"><a xlink:href="dir_f382c466c9934bb821718b5297ce6904.html" target="_top" xlink:title="Constants">
<polygon fill="none" stroke="black" points="61,-108 0,-108 0,-72 61,-72 61,-108"/>
<text text-anchor="middle" x="30.5" y="-87.5" font-family="Helvetica,sans-Serif" font-size="10.00">Constants</text>
</a>
</g>
</g>
<!-- dir_ec623ab5e31cd0d896091bc495e4e063&#45;&gt;dir_f382c466c9934bb821718b5297ce6904 -->
<g id="edge19" class="edge">
<title>dir_ec623ab5e31cd0d896091bc495e4e063&#45;&gt;dir_f382c466c9934bb821718b5297ce6904</title>
<path fill="none" stroke="black" d="M115.39,-144.05C100.64,-134.84 82.21,-123.32 66.29,-113.37"/>
<polygon fill="black" stroke="black" points="68.09,-110.36 57.75,-108.03 64.38,-116.3 68.09,-110.36"/>
<g id="a_edge19&#45;headlabel"><a xlink:href="dir_000011_000010.html" target="_top" xlink:title="1">
<text text-anchor="middle" x="72.64" y="-107.36" font-family="Helvetica,sans-Serif" font-size="10.00">1</text>
</a>
</g>
</g>
<!-- dir_df1d6d7a5cbfe72309d598c6cf7cef93 -->
<g id="node9" class="node">
<title>dir_df1d6d7a5cbfe72309d598c6cf7cef93</title>
<g id="a_node9"><a xlink:href="dir_df1d6d7a5cbfe72309d598c6cf7cef93.html" target="_top" xlink:title="Dispatch">
<polygon fill="none" stroke="black" points="249,-108 194,-108 194,-72 249,-72 249,-108"/>
<text text-anchor="middle" x="221.5" y="-87.5" font-family="Helvetica,sans-Serif" font-size="10.00">Dispatch</text>
</a>
</g>
</g>
<!-- dir_ec623ab5e31cd0d896091bc495e4e063&#45;&gt;dir_df1d6d7a5cbfe72309d598c6cf7cef93 -->
<g id="edge21" class="edge">
<title>dir_ec623ab5e31cd0d896091bc495e4e063&#45;&gt;dir_df1d6d7a5cbfe72309d598c6cf7cef93</title>
<path fill="none" stroke="black" d="M162.03,-143.7C171.88,-134.97 183.99,-124.24 194.7,-114.75"/>
<polygon fill="black" stroke="black" points="197.03,-117.36 202.2,-108.1 192.39,-112.12 197.03,-117.36"/>
<g id="a_edge21&#45;headlabel"><a xlink:href="dir_000011_000013.html" target="_top" xlink:title="1">
<text text-anchor="middle" x="196.23" y="-119.36" font-family="Helvetica,sans-Serif" font-size="10.00">1</text>
</a>
</g>
</g>
<!-- dir_c9051af2ea579de52649c741bd9b2439&#45;&gt;dir_242c69f8aa6c0b27ad66788f5b769271 -->
<g id="edge13" class="edge">
<title>dir_c9051af2ea579de52649c741bd9b2439&#45;&gt;dir_242c69f8aa6c0b27ad66788f5b769271</title>
<path fill="none" stroke="black" d="M162.19,-108.01C189.13,-119.82 226.39,-135.4 254.57,-146.6"/>
<polygon fill="black" stroke="black" points="253.54,-149.96 264.13,-150.37 256.11,-143.45 253.54,-149.96"/>
<g id="a_edge13&#45;headlabel"><a xlink:href="dir_000012_000018.html" target="_top" xlink:title="3">
<text text-anchor="middle" x="249.15" y="-148.78" font-family="Helvetica,sans-Serif" font-size="10.00">3</text>
</a>
</g>
</g>
<!-- dir_d63d35ee3bc125de0bc618dc0756060c -->
<g id="node8" class="node">
<title>dir_d63d35ee3bc125de0bc618dc0756060c</title>
<g id="a_node8"><a xlink:href="dir_d63d35ee3bc125de0bc618dc0756060c.html" target="_top" xlink:title="Input">
<polygon fill="none" stroke="black" points="321.5,-36 267.5,-36 267.5,0 321.5,0 321.5,-36"/>
<text text-anchor="middle" x="294.5" y="-15.5" font-family="Helvetica,sans-Serif" font-size="10.00">Input</text>
</a>
</g>
</g>
<!-- dir_c9051af2ea579de52649c741bd9b2439&#45;&gt;dir_d63d35ee3bc125de0bc618dc0756060c -->
<g id="edge14" class="edge">
<title>dir_c9051af2ea579de52649c741bd9b2439&#45;&gt;dir_d63d35ee3bc125de0bc618dc0756060c</title>
<path fill="none" stroke="black" d="M154.97,-71.95C164.44,-66.46 175.25,-60.61 185.5,-56 208.79,-45.54 235.98,-36.3 257.38,-29.67"/>
<polygon fill="black" stroke="black" points="258.52,-32.98 267.07,-26.73 256.49,-26.29 258.52,-32.98"/>
<g id="a_edge14&#45;headlabel"><a xlink:href="dir_000012_000015.html" target="_top" xlink:title="1">
<text text-anchor="middle" x="255.91" y="-34.25" font-family="Helvetica,sans-Serif" font-size="10.00">1</text>
</a>
</g>
</g>
<!-- dir_d15e7af35e2750da09bd940611b2a2e2&#45;&gt;dir_ec623ab5e31cd0d896091bc495e4e063 -->
<g id="edge4" class="edge">
<title>dir_d15e7af35e2750da09bd940611b2a2e2&#45;&gt;dir_ec623ab5e31cd0d896091bc495e4e063</title>
<path fill="none" stroke="black" d="M263.23,-228.06C252.93,-224.36 241.6,-219.95 231.5,-215 213.3,-206.09 194.22,-193.82 178.28,-183.43"/>
<polygon fill="black" stroke="black" points="180.07,-180.42 169.78,-177.89 176.24,-186.28 180.07,-180.42"/>
<g id="a_edge4&#45;headlabel"><a xlink:href="dir_000007_000011.html" target="_top" xlink:title="8">
<text text-anchor="middle" x="184.63" y="-177.5" font-family="Helvetica,sans-Serif" font-size="10.00">8</text>
</a>
</g>
</g>
<!-- dir_d15e7af35e2750da09bd940611b2a2e2&#45;&gt;dir_738e93b4b72767cbed3fd0527471f516 -->
<g id="edge1" class="edge">
<title>dir_d15e7af35e2750da09bd940611b2a2e2&#45;&gt;dir_738e93b4b72767cbed3fd0527471f516</title>
<path fill="none" stroke="black" d="M263.5,-224.67C260.31,-221.88 257.51,-218.67 255.5,-215 240.36,-187.31 245.66,-173.98 255.5,-144 258.81,-133.91 264.87,-124.15 271.23,-115.82"/>
<polygon fill="black" stroke="black" points="274,-117.97 277.61,-108.01 268.58,-113.54 274,-117.97"/>
<g id="a_edge1&#45;headlabel"><a xlink:href="dir_000007_000004.html" target="_top" xlink:title="1">
<text text-anchor="middle" x="273.92" y="-120.05" font-family="Helvetica,sans-Serif" font-size="10.00">1</text>
</a>
</g>
</g>
<!-- dir_d15e7af35e2750da09bd940611b2a2e2&#45;&gt;dir_242c69f8aa6c0b27ad66788f5b769271 -->
<g id="edge2" class="edge">
<title>dir_d15e7af35e2750da09bd940611b2a2e2&#45;&gt;dir_242c69f8aa6c0b27ad66788f5b769271</title>
<path fill="none" stroke="black" d="M288.78,-222.91C287.75,-213.34 287.49,-201.18 288.01,-190.32"/>
<polygon fill="black" stroke="black" points="291.52,-190.28 288.79,-180.04 284.54,-189.75 291.52,-190.28"/>
<g id="a_edge2&#45;headlabel"><a xlink:href="dir_000007_000018.html" target="_top" xlink:title="1">
<text text-anchor="middle" x="294.08" y="-191.57" font-family="Helvetica,sans-Serif" font-size="10.00">1</text>
</a>
</g>
</g>
<!-- dir_d15e7af35e2750da09bd940611b2a2e2&#45;&gt;dir_38bf7f35d8fb44d8d23d70926bbee9d1 -->
<g id="edge3" class="edge">
<title>dir_d15e7af35e2750da09bd940611b2a2e2&#45;&gt;dir_38bf7f35d8fb44d8d23d70926bbee9d1</title>
<path fill="none" stroke="black" d="M324.63,-222.85C327.81,-220.42 330.84,-217.8 333.5,-215 360.94,-186.15 381.88,-144.74 393.69,-117.85"/>
<polygon fill="black" stroke="black" points="397.05,-118.89 397.76,-108.32 390.61,-116.14 397.05,-118.89"/>
<g id="a_edge3&#45;headlabel"><a xlink:href="dir_000007_000008.html" target="_top" xlink:title="2">
<text text-anchor="middle" x="398.25" y="-120.81" font-family="Helvetica,sans-Serif" font-size="10.00">2</text>
</a>
</g>
</g>
<!-- dir_738e93b4b72767cbed3fd0527471f516&#45;&gt;dir_ec623ab5e31cd0d896091bc495e4e063 -->
<g id="edge5" class="edge">
<title>dir_738e93b4b72767cbed3fd0527471f516&#45;&gt;dir_ec623ab5e31cd0d896091bc495e4e063</title>
<path fill="none" stroke="black" d="M267.11,-108.18C237.76,-121.81 204.18,-137.12 179.12,-147.73"/>
<polygon fill="black" stroke="black" points="177.5,-144.62 169.62,-151.7 180.19,-151.08 177.5,-144.62"/>
<g id="a_edge5&#45;headlabel"><a xlink:href="dir_000004_000011.html" target="_top" xlink:title="3">
<text text-anchor="middle" x="179.72" y="-138.11" font-family="Helvetica,sans-Serif" font-size="10.00">3</text>
</a>
</g>
</g>
<!-- dir_738e93b4b72767cbed3fd0527471f516&#45;&gt;dir_d63d35ee3bc125de0bc618dc0756060c -->
<g id="edge6" class="edge">
<title>dir_738e93b4b72767cbed3fd0527471f516&#45;&gt;dir_d63d35ee3bc125de0bc618dc0756060c</title>
<path fill="none" stroke="black" d="M294.5,-71.7C294.5,-63.98 294.5,-54.71 294.5,-46.11"/>
<polygon fill="black" stroke="black" points="298,-46.1 294.5,-36.1 291,-46.1 298,-46.1"/>
<g id="a_edge6&#45;headlabel"><a xlink:href="dir_000004_000015.html" target="_top" xlink:title="1">
<text text-anchor="middle" x="300.84" y="-47.2" font-family="Helvetica,sans-Serif" font-size="10.00">1</text>
</a>
</g>
</g>
<!-- dir_242c69f8aa6c0b27ad66788f5b769271&#45;&gt;dir_c9051af2ea579de52649c741bd9b2439 -->
<g id="edge10" class="edge">
<title>dir_242c69f8aa6c0b27ad66788f5b769271&#45;&gt;dir_c9051af2ea579de52649c741bd9b2439</title>
<path fill="none" stroke="black" d="M264.33,-145.98C240.59,-135.49 207.11,-121.39 179.16,-110.1"/>
<polygon fill="black" stroke="black" points="180.11,-106.71 169.53,-106.23 177.5,-113.21 180.11,-106.71"/>
<g id="a_edge10&#45;headlabel"><a xlink:href="dir_000018_000012.html" target="_top" xlink:title="1">
<text text-anchor="middle" x="184.5" y="-102.92" font-family="Helvetica,sans-Serif" font-size="10.00">1</text>
</a>
</g>
</g>
<!-- dir_242c69f8aa6c0b27ad66788f5b769271&#45;&gt;dir_d15e7af35e2750da09bd940611b2a2e2 -->
<g id="edge7" class="edge">
<title>dir_242c69f8aa6c0b27ad66788f5b769271&#45;&gt;dir_d15e7af35e2750da09bd940611b2a2e2</title>
<path fill="none" stroke="black" d="M300.21,-180.04C301.25,-189.6 301.51,-201.76 300.99,-212.62"/>
<polygon fill="black" stroke="black" points="297.48,-212.68 300.22,-222.91 304.46,-213.2 297.48,-212.68"/>
<g id="a_edge7&#45;headlabel"><a xlink:href="dir_000018_000007.html" target="_top" xlink:title="7">
<text text-anchor="middle" x="294.92" y="-206.38" font-family="Helvetica,sans-Serif" font-size="10.00">7</text>
</a>
</g>
</g>
<!-- dir_242c69f8aa6c0b27ad66788f5b769271&#45;&gt;dir_738e93b4b72767cbed3fd0527471f516 -->
<g id="edge8" class="edge">
<title>dir_242c69f8aa6c0b27ad66788f5b769271&#45;&gt;dir_738e93b4b72767cbed3fd0527471f516</title>
<path fill="none" stroke="black" d="M294.5,-143.7C294.5,-135.98 294.5,-126.71 294.5,-118.11"/>
<polygon fill="black" stroke="black" points="298,-118.1 294.5,-108.1 291,-118.1 298,-118.1"/>
<g id="a_edge8&#45;headlabel"><a xlink:href="dir_000018_000004.html" target="_top" xlink:title="3">
<text text-anchor="middle" x="300.84" y="-119.2" font-family="Helvetica,sans-Serif" font-size="10.00">3</text>
</a>
</g>
</g>
<!-- dir_242c69f8aa6c0b27ad66788f5b769271&#45;&gt;dir_38bf7f35d8fb44d8d23d70926bbee9d1 -->
<g id="edge9" class="edge">
<title>dir_242c69f8aa6c0b27ad66788f5b769271&#45;&gt;dir_38bf7f35d8fb44d8d23d70926bbee9d1</title>
<path fill="none" stroke="black" d="M321.41,-143.88C335.66,-134.81 353.35,-123.55 368.74,-113.76"/>
<polygon fill="black" stroke="black" points="370.93,-116.51 377.49,-108.19 367.17,-110.61 370.93,-116.51"/>
<g id="a_edge9&#45;headlabel"><a xlink:href="dir_000018_000008.html" target="_top" xlink:title="2">
<text text-anchor="middle" x="369.42" y="-118.34" font-family="Helvetica,sans-Serif" font-size="10.00">2</text>
</a>
</g>
</g>
<!-- dir_242c69f8aa6c0b27ad66788f5b769271&#45;&gt;dir_d63d35ee3bc125de0bc618dc0756060c -->
<g id="edge11" class="edge">
<title>dir_242c69f8aa6c0b27ad66788f5b769271&#45;&gt;dir_d63d35ee3bc125de0bc618dc0756060c</title>
<path fill="none" stroke="black" d="M310.11,-143.77C317.87,-134.03 326.45,-121.18 330.5,-108 337.29,-85.91 339.2,-77.41 330.5,-56 328.74,-51.68 326.22,-47.59 323.3,-43.81"/>
<polygon fill="black" stroke="black" points="325.7,-41.24 316.45,-36.07 320.46,-45.88 325.7,-41.24"/>
<g id="a_edge11&#45;headlabel"><a xlink:href="dir_000018_000015.html" target="_top" xlink:title="1">
<text text-anchor="middle" x="330.21" y="-39.55" font-family="Helvetica,sans-Serif" font-size="10.00">1</text>
</a>
</g>
</g>
<!-- dir_242c69f8aa6c0b27ad66788f5b769271&#45;&gt;dir_df1d6d7a5cbfe72309d598c6cf7cef93 -->
<g id="edge12" class="edge">
<title>dir_242c69f8aa6c0b27ad66788f5b769271&#45;&gt;dir_df1d6d7a5cbfe72309d598c6cf7cef93</title>
<path fill="none" stroke="black" d="M276.46,-143.7C267.44,-135.05 256.38,-124.45 246.56,-115.03"/>
<polygon fill="black" stroke="black" points="248.98,-112.5 239.34,-108.1 244.13,-117.55 248.98,-112.5"/>
<g id="a_edge12&#45;headlabel"><a xlink:href="dir_000018_000013.html" target="_top" xlink:title="1">
<text text-anchor="middle" x="253.54" y="-110.44" font-family="Helvetica,sans-Serif" font-size="10.00">1</text>
</a>
</g>
</g>
</g>
</svg>
