<?xml version="1.0" encoding="UTF-8" standalone="no"?>
<!DOCTYPE svg PUBLIC "-//W3C//DTD SVG 1.1//EN"
 "http://www.w3.org/Graphics/SVG/1.1/DTD/svg11.dtd">
<!-- Generated by graphviz version 2.44.1 (20200629.0846)
 -->
<!-- Title: kryne&#45;engine/include/kryne&#45;engine/Rendering Pages: 1 -->
<svg width="655pt" height="322pt"
 viewBox="0.00 0.00 654.98 321.79" xmlns="http://www.w3.org/2000/svg" xmlns:xlink="http://www.w3.org/1999/xlink">
<g id="graph0" class="graph" transform="scale(1 1) rotate(0) translate(4 317.79)">
<title>kryne&#45;engine/include/kryne&#45;engine/Rendering</title>
<polygon fill="white" stroke="transparent" points="-4,4 -4,-317.79 650.98,-317.79 650.98,4 -4,4"/>
<g id="clust1" class="cluster">
<title>clusterdir_6f1e06805bf6fd443f4521a944e15946</title>
<g id="a_clust1"><a xlink:href="dir_6f1e06805bf6fd443f4521a944e15946.html" target="_top" xlink:title="kryne&#45;engine">
<polygon fill="#ddddee" stroke="black" points="330.08,-128 330.08,-287 502.08,-287 502.08,-128 330.08,-128"/>
<text text-anchor="middle" x="416.08" y="-275" font-family="Helvetica,sans-Serif" font-size="10.00">kryne&#45;engine</text>
</a>
</g>
</g>
<g id="clust2" class="cluster">
<title>clusterdir_242c69f8aa6c0b27ad66788f5b769271</title>
<g id="a_clust2"><a xlink:href="dir_242c69f8aa6c0b27ad66788f5b769271.html" target="_top">
<polygon fill="#eeeeff" stroke="black" points="338.08,-136 338.08,-260 494.08,-260 494.08,-136 338.08,-136"/>
</a>
</g>
</g>
<!-- dir_242c69f8aa6c0b27ad66788f5b769271 -->
<g id="node1" class="node">
<title>dir_242c69f8aa6c0b27ad66788f5b769271</title>
<text text-anchor="middle" x="376.08" y="-231.5" font-family="Helvetica,sans-Serif" font-size="10.00">Rendering</text>
</g>
<!-- dir_21993cf44815c915b4445ee3aa1eefb4 -->
<g id="node3" class="node">
<title>dir_21993cf44815c915b4445ee3aa1eefb4</title>
<g id="a_node3"><a xlink:href="dir_21993cf44815c915b4445ee3aa1eefb4.html" target="_top" xlink:title="ShadowMapping">
<polygon fill="white" stroke="black" points="486.08,-180 398.08,-180 398.08,-144 486.08,-144 486.08,-180"/>
<text text-anchor="middle" x="442.08" y="-159.5" font-family="Helvetica,sans-Serif" font-size="10.00">ShadowMapping</text>
</a>
</g>
</g>
<!-- dir_242c69f8aa6c0b27ad66788f5b769271&#45;&gt;dir_21993cf44815c915b4445ee3aa1eefb4 -->
<g id="edge16" class="edge">
<title>dir_242c69f8aa6c0b27ad66788f5b769271&#45;&gt;dir_21993cf44815c915b4445ee3aa1eefb4</title>
<path fill="none" stroke="black" d="M392.39,-215.7C400.39,-207.22 410.15,-196.86 418.9,-187.58"/>
<polygon fill="black" stroke="black" points="421.64,-189.78 425.95,-180.1 416.54,-184.98 421.64,-189.78"/>
<g id="a_edge16&#45;headlabel"><a xlink:href="dir_000017_000019.html" target="_top" xlink:title="1">
<text text-anchor="middle" x="421.24" y="-191.84" font-family="Helvetica,sans-Serif" font-size="10.00">1</text>
</a>
</g>
</g>
<!-- dir_bc207b629cecfa3c79a9cf5cbcc913a7 -->
<g id="node4" class="node">
<title>dir_bc207b629cecfa3c79a9cf5cbcc913a7</title>
<g id="a_node4"><a xlink:href="dir_bc207b629cecfa3c79a9cf5cbcc913a7.html" target="_top" xlink:title="Light">
<polygon fill="none" stroke="black" points="152.08,-180 98.08,-180 98.08,-144 152.08,-144 152.08,-180"/>
<text text-anchor="middle" x="125.08" y="-159.5" font-family="Helvetica,sans-Serif" font-size="10.00">Light</text>
</a>
</g>
</g>
<!-- dir_242c69f8aa6c0b27ad66788f5b769271&#45;&gt;dir_bc207b629cecfa3c79a9cf5cbcc913a7 -->
<g id="edge15" class="edge">
<title>dir_242c69f8aa6c0b27ad66788f5b769271&#45;&gt;dir_bc207b629cecfa3c79a9cf5cbcc913a7</title>
<path fill="none" stroke="black" d="M345.78,-226.81C304.6,-218.07 228.89,-200.83 166.08,-180 164.66,-179.53 163.22,-179.03 161.78,-178.52"/>
<polygon fill="black" stroke="black" points="162.81,-175.17 152.22,-174.9 160.33,-181.71 162.81,-175.17"/>
<g id="a_edge15&#45;headlabel"><a xlink:href="dir_000017_000015.html" target="_top" xlink:title="4">
<text text-anchor="middle" x="167.17" y="-171.28" font-family="Helvetica,sans-Serif" font-size="10.00">4</text>
</a>
</g>
</g>
<!-- dir_d15e7af35e2750da09bd940611b2a2e2 -->
<g id="node5" class="node">
<title>dir_d15e7af35e2750da09bd940611b2a2e2</title>
<g id="a_node5"><a xlink:href="dir_d15e7af35e2750da09bd940611b2a2e2.html" target="_top" xlink:title="3DObjects">
<polygon fill="white" stroke="red" points="606.08,-252 544.08,-252 544.08,-216 606.08,-216 606.08,-252"/>
<text text-anchor="middle" x="575.08" y="-231.5" font-family="Helvetica,sans-Serif" font-size="10.00">3DObjects</text>
</a>
</g>
</g>
<!-- dir_242c69f8aa6c0b27ad66788f5b769271&#45;&gt;dir_d15e7af35e2750da09bd940611b2a2e2 -->
<g id="edge17" class="edge">
<title>dir_242c69f8aa6c0b27ad66788f5b769271&#45;&gt;dir_d15e7af35e2750da09bd940611b2a2e2</title>
<path fill="none" stroke="black" d="M382.77,-252.09C390.2,-269.22 403.99,-293.93 425.08,-305 450.26,-318.22 462.31,-314.62 489.08,-305 514.13,-295.99 537.08,-276.18 552.96,-259.77"/>
<polygon fill="black" stroke="black" points="555.9,-261.74 560.17,-252.04 550.78,-256.97 555.9,-261.74"/>
<g id="a_edge17&#45;headlabel"><a xlink:href="dir_000017_000007.html" target="_top" xlink:title="7">
<text text-anchor="middle" x="555.53" y="-263.81" font-family="Helvetica,sans-Serif" font-size="10.00">7</text>
</a>
</g>
</g>
<!-- dir_2dd932fc5c4f5b62276988dfe28c2718 -->
<g id="node6" class="node">
<title>dir_2dd932fc5c4f5b62276988dfe28c2718</title>
<g id="a_node6"><a xlink:href="dir_2dd932fc5c4f5b62276988dfe28c2718.html" target="_top" xlink:title="Geometry">
<polygon fill="none" stroke="black" points="79.58,-180 20.58,-180 20.58,-144 79.58,-144 79.58,-180"/>
<text text-anchor="middle" x="50.08" y="-159.5" font-family="Helvetica,sans-Serif" font-size="10.00">Geometry</text>
</a>
</g>
</g>
<!-- dir_242c69f8aa6c0b27ad66788f5b769271&#45;&gt;dir_2dd932fc5c4f5b62276988dfe28c2718 -->
<g id="edge18" class="edge">
<title>dir_242c69f8aa6c0b27ad66788f5b769271&#45;&gt;dir_2dd932fc5c4f5b62276988dfe28c2718</title>
<path fill="none" stroke="black" d="M345.79,-229.72C292.85,-223.47 180.41,-207.94 89.08,-180 88.98,-179.97 88.88,-179.94 88.79,-179.91"/>
<polygon fill="black" stroke="black" points="90.22,-176.7 79.62,-176.71 87.91,-183.31 90.22,-176.7"/>
<g id="a_edge18&#45;headlabel"><a xlink:href="dir_000017_000013.html" target="_top" xlink:title="2">
<text text-anchor="middle" x="94.55" y="-172.71" font-family="Helvetica,sans-Serif" font-size="10.00">2</text>
</a>
</g>
</g>
<!-- dir_738e93b4b72767cbed3fd0527471f516 -->
<g id="node7" class="node">
<title>dir_738e93b4b72767cbed3fd0527471f516</title>
<g id="a_node7"><a xlink:href="dir_738e93b4b72767cbed3fd0527471f516.html" target="_top" xlink:title="Camera">
<polygon fill="none" stroke="black" points="602.08,-180 548.08,-180 548.08,-144 602.08,-144 602.08,-180"/>
<text text-anchor="middle" x="575.08" y="-159.5" font-family="Helvetica,sans-Serif" font-size="10.00">Camera</text>
</a>
</g>
</g>
<!-- dir_242c69f8aa6c0b27ad66788f5b769271&#45;&gt;dir_738e93b4b72767cbed3fd0527471f516 -->
<g id="edge19" class="edge">
<title>dir_242c69f8aa6c0b27ad66788f5b769271&#45;&gt;dir_738e93b4b72767cbed3fd0527471f516</title>
<path fill="none" stroke="black" d="M406.11,-219.93C409.46,-218.56 412.83,-217.23 416.08,-216 457.33,-200.39 505.48,-184.68 537.9,-174.47"/>
<polygon fill="black" stroke="black" points="539.34,-177.68 547.84,-171.35 537.25,-171 539.34,-177.68"/>
<g id="a_edge19&#45;headlabel"><a xlink:href="dir_000017_000004.html" target="_top" xlink:title="4">
<text text-anchor="middle" x="536.76" y="-178.96" font-family="Helvetica,sans-Serif" font-size="10.00">4</text>
</a>
</g>
</g>
<!-- dir_2df94ed6ef9db741bde0bb2b5d769537 -->
<g id="node8" class="node">
<title>dir_2df94ed6ef9db741bde0bb2b5d769537</title>
<g id="a_node8"><a xlink:href="dir_2df94ed6ef9db741bde0bb2b5d769537.html" target="_top" xlink:title="Material">
<polygon fill="none" stroke="black" points="190.08,-108 136.08,-108 136.08,-72 190.08,-72 190.08,-108"/>
<text text-anchor="middle" x="163.08" y="-87.5" font-family="Helvetica,sans-Serif" font-size="10.00">Material</text>
</a>
</g>
</g>
<!-- dir_242c69f8aa6c0b27ad66788f5b769271&#45;&gt;dir_2df94ed6ef9db741bde0bb2b5d769537 -->
<g id="edge20" class="edge">
<title>dir_242c69f8aa6c0b27ad66788f5b769271&#45;&gt;dir_2df94ed6ef9db741bde0bb2b5d769537</title>
<path fill="none" stroke="black" d="M345.85,-233.43C266.32,-233.84 54.44,-230.12 11.08,-180 -4.04,-162.52 -3.2,-146.17 11.08,-128 25.09,-110.17 85.48,-99.86 125.79,-94.84"/>
<polygon fill="black" stroke="black" points="126.3,-98.31 135.82,-93.65 125.48,-91.36 126.3,-98.31"/>
<g id="a_edge20&#45;headlabel"><a xlink:href="dir_000017_000005.html" target="_top" xlink:title="2">
<text text-anchor="middle" x="123.07" y="-99.05" font-family="Helvetica,sans-Serif" font-size="10.00">2</text>
</a>
</g>
</g>
<!-- dir_38bf7f35d8fb44d8d23d70926bbee9d1 -->
<g id="node9" class="node">
<title>dir_38bf7f35d8fb44d8d23d70926bbee9d1</title>
<g id="a_node9"><a xlink:href="dir_38bf7f35d8fb44d8d23d70926bbee9d1.html" target="_top" xlink:title="enums">
<polygon fill="none" stroke="black" points="321.08,-36 267.08,-36 267.08,0 321.08,0 321.08,-36"/>
<text text-anchor="middle" x="294.08" y="-15.5" font-family="Helvetica,sans-Serif" font-size="10.00">enums</text>
</a>
</g>
</g>
<!-- dir_242c69f8aa6c0b27ad66788f5b769271&#45;&gt;dir_38bf7f35d8fb44d8d23d70926bbee9d1 -->
<g id="edge21" class="edge">
<title>dir_242c69f8aa6c0b27ad66788f5b769271&#45;&gt;dir_38bf7f35d8fb44d8d23d70926bbee9d1</title>
<path fill="none" stroke="black" d="M351.05,-215.91C339.46,-206.65 326.62,-194.2 319.08,-180 296.44,-137.35 292.88,-79.99 293.02,-46.51"/>
<polygon fill="black" stroke="black" points="296.52,-46.17 293.18,-36.12 289.52,-46.06 296.52,-46.17"/>
<g id="a_edge21&#45;headlabel"><a xlink:href="dir_000017_000008.html" target="_top" xlink:title="1">
<text text-anchor="middle" x="299.3" y="-47.31" font-family="Helvetica,sans-Serif" font-size="10.00">1</text>
</a>
</g>
</g>
<!-- dir_d63d35ee3bc125de0bc618dc0756060c -->
<g id="node11" class="node">
<title>dir_d63d35ee3bc125de0bc618dc0756060c</title>
<g id="a_node11"><a xlink:href="dir_d63d35ee3bc125de0bc618dc0756060c.html" target="_top" xlink:title="Input">
<polygon fill="none" stroke="black" points="469.08,-36 415.08,-36 415.08,0 469.08,0 469.08,-36"/>
<text text-anchor="middle" x="442.08" y="-15.5" font-family="Helvetica,sans-Serif" font-size="10.00">Input</text>
</a>
</g>
</g>
<!-- dir_242c69f8aa6c0b27ad66788f5b769271&#45;&gt;dir_d63d35ee3bc125de0bc618dc0756060c -->
<g id="edge22" class="edge">
<title>dir_242c69f8aa6c0b27ad66788f5b769271&#45;&gt;dir_d63d35ee3bc125de0bc618dc0756060c</title>
<path fill="none" stroke="black" d="M355.26,-215.62C345.62,-206.2 335.19,-193.7 330.08,-180 321.99,-158.35 321.09,-149.29 330.08,-128 345.55,-91.35 380.04,-60.92 406.69,-41.62"/>
<polygon fill="black" stroke="black" points="408.87,-44.36 415.03,-35.74 404.84,-38.64 408.87,-44.36"/>
<g id="a_edge22&#45;headlabel"><a xlink:href="dir_000017_000014.html" target="_top" xlink:title="1">
<text text-anchor="middle" x="407.57" y="-46.25" font-family="Helvetica,sans-Serif" font-size="10.00">1</text>
</a>
</g>
</g>
<!-- dir_9f5d199527dba43a9d22b9ea22b1b878 -->
<g id="node2" class="node">
<title>dir_9f5d199527dba43a9d22b9ea22b1b878</title>
<g id="a_node2"><a xlink:href="dir_9f5d199527dba43a9d22b9ea22b1b878.html" target="_top" xlink:title="Renderers">
<polygon fill="white" stroke="black" points="485.58,-252 424.58,-252 424.58,-216 485.58,-216 485.58,-252"/>
<text text-anchor="middle" x="455.08" y="-231.5" font-family="Helvetica,sans-Serif" font-size="10.00">Renderers</text>
</a>
</g>
</g>
<!-- dir_ec623ab5e31cd0d896091bc495e4e063 -->
<g id="node10" class="node">
<title>dir_ec623ab5e31cd0d896091bc495e4e063</title>
<g id="a_node10"><a xlink:href="dir_ec623ab5e31cd0d896091bc495e4e063.html" target="_top" xlink:title="Core">
<polygon fill="white" stroke="red" points="469.08,-108 415.08,-108 415.08,-72 469.08,-72 469.08,-108"/>
<text text-anchor="middle" x="442.08" y="-87.5" font-family="Helvetica,sans-Serif" font-size="10.00">Core</text>
</a>
</g>
</g>
<!-- dir_9f5d199527dba43a9d22b9ea22b1b878&#45;&gt;dir_ec623ab5e31cd0d896091bc495e4e063 -->
<g id="edge2" class="edge">
<title>dir_9f5d199527dba43a9d22b9ea22b1b878&#45;&gt;dir_ec623ab5e31cd0d896091bc495e4e063</title>
<path fill="none" stroke="black" d="M424.4,-218.55C396.82,-205.25 360.04,-186.61 356.08,-180 344.2,-160.17 343.37,-147.3 356.08,-128 367.01,-111.39 387.14,-102.21 405.17,-97.14"/>
<polygon fill="black" stroke="black" points="406.04,-100.53 414.9,-94.73 404.36,-93.74 406.04,-100.53"/>
<g id="a_edge2&#45;headlabel"><a xlink:href="dir_000018_000011.html" target="_top" xlink:title="1">
<text text-anchor="middle" x="403.23" y="-101.65" font-family="Helvetica,sans-Serif" font-size="10.00">1</text>
</a>
</g>
</g>
<!-- dir_21993cf44815c915b4445ee3aa1eefb4&#45;&gt;dir_bc207b629cecfa3c79a9cf5cbcc913a7 -->
<g id="edge3" class="edge">
<title>dir_21993cf44815c915b4445ee3aa1eefb4&#45;&gt;dir_bc207b629cecfa3c79a9cf5cbcc913a7</title>
<path fill="none" stroke="black" d="M397.94,-162C319.42,-162 240.91,-162 162.39,-162"/>
<polygon fill="black" stroke="black" points="162.32,-158.5 152.32,-162 162.32,-165.5 162.32,-158.5"/>
<g id="a_edge3&#45;headlabel"><a xlink:href="dir_000019_000015.html" target="_top" xlink:title="2">
<text text-anchor="middle" x="165.92" y="-153.16" font-family="Helvetica,sans-Serif" font-size="10.00">2</text>
</a>
</g>
</g>
<!-- dir_21993cf44815c915b4445ee3aa1eefb4&#45;&gt;dir_d15e7af35e2750da09bd940611b2a2e2 -->
<g id="edge4" class="edge">
<title>dir_21993cf44815c915b4445ee3aa1eefb4&#45;&gt;dir_d15e7af35e2750da09bd940611b2a2e2</title>
<path fill="none" stroke="black" d="M474.45,-180.04C492.69,-189.64 515.63,-201.71 535,-211.9"/>
<polygon fill="black" stroke="black" points="533.42,-215.03 543.9,-216.59 536.68,-208.83 533.42,-215.03"/>
<g id="a_edge4&#45;headlabel"><a xlink:href="dir_000019_000007.html" target="_top" xlink:title="1">
<text text-anchor="middle" x="528.91" y="-213.37" font-family="Helvetica,sans-Serif" font-size="10.00">1</text>
</a>
</g>
</g>
<!-- dir_21993cf44815c915b4445ee3aa1eefb4&#45;&gt;dir_ec623ab5e31cd0d896091bc495e4e063 -->
<g id="edge5" class="edge">
<title>dir_21993cf44815c915b4445ee3aa1eefb4&#45;&gt;dir_ec623ab5e31cd0d896091bc495e4e063</title>
<path fill="none" stroke="black" d="M442.08,-143.7C442.08,-135.98 442.08,-126.71 442.08,-118.11"/>
<polygon fill="black" stroke="black" points="445.58,-118.1 442.08,-108.1 438.58,-118.1 445.58,-118.1"/>
<g id="a_edge5&#45;headlabel"><a xlink:href="dir_000019_000011.html" target="_top" xlink:title="1">
<text text-anchor="middle" x="448.42" y="-119.2" font-family="Helvetica,sans-Serif" font-size="10.00">1</text>
</a>
</g>
</g>
<!-- dir_bc207b629cecfa3c79a9cf5cbcc913a7&#45;&gt;dir_2df94ed6ef9db741bde0bb2b5d769537 -->
<g id="edge1" class="edge">
<title>dir_bc207b629cecfa3c79a9cf5cbcc913a7&#45;&gt;dir_2df94ed6ef9db741bde0bb2b5d769537</title>
<path fill="none" stroke="black" d="M134.47,-143.7C138.84,-135.64 144.14,-125.89 148.97,-116.98"/>
<polygon fill="black" stroke="black" points="152.1,-118.56 153.79,-108.1 145.95,-115.22 152.1,-118.56"/>
<g id="a_edge1&#45;headlabel"><a xlink:href="dir_000015_000005.html" target="_top" xlink:title="2">
<text text-anchor="middle" x="152.88" y="-120.58" font-family="Helvetica,sans-Serif" font-size="10.00">2</text>
</a>
</g>
</g>
<!-- dir_d15e7af35e2750da09bd940611b2a2e2&#45;&gt;dir_242c69f8aa6c0b27ad66788f5b769271 -->
<g id="edge8" class="edge">
<title>dir_d15e7af35e2750da09bd940611b2a2e2&#45;&gt;dir_242c69f8aa6c0b27ad66788f5b769271</title>
<path fill="none" stroke="black" d="M560.17,-252.04C544.54,-269.41 518.23,-294.52 489.08,-305 462.31,-314.62 450.26,-318.22 425.08,-305 407.62,-295.83 395.16,-277.31 387.17,-261.49"/>
<polygon fill="black" stroke="black" points="390.18,-259.66 382.77,-252.09 383.84,-262.63 390.18,-259.66"/>
<g id="a_edge8&#45;headlabel"><a xlink:href="dir_000007_000017.html" target="_top" xlink:title="1">
<text text-anchor="middle" x="394.27" y="-259.21" font-family="Helvetica,sans-Serif" font-size="10.00">1</text>
</a>
</g>
</g>
<!-- dir_d15e7af35e2750da09bd940611b2a2e2&#45;&gt;dir_738e93b4b72767cbed3fd0527471f516 -->
<g id="edge6" class="edge">
<title>dir_d15e7af35e2750da09bd940611b2a2e2&#45;&gt;dir_738e93b4b72767cbed3fd0527471f516</title>
<path fill="none" stroke="black" d="M575.08,-215.7C575.08,-207.98 575.08,-198.71 575.08,-190.11"/>
<polygon fill="black" stroke="black" points="578.58,-190.1 575.08,-180.1 571.58,-190.1 578.58,-190.1"/>
<g id="a_edge6&#45;headlabel"><a xlink:href="dir_000007_000004.html" target="_top" xlink:title="1">
<text text-anchor="middle" x="581.42" y="-191.2" font-family="Helvetica,sans-Serif" font-size="10.00">1</text>
</a>
</g>
</g>
<!-- dir_d15e7af35e2750da09bd940611b2a2e2&#45;&gt;dir_2df94ed6ef9db741bde0bb2b5d769537 -->
<g id="edge7" class="edge">
<title>dir_d15e7af35e2750da09bd940611b2a2e2&#45;&gt;dir_2df94ed6ef9db741bde0bb2b5d769537</title>
<path fill="none" stroke="black" d="M563.61,-215.84C544.49,-187.45 507.28,-133.32 498.08,-128 472.72,-113.34 282.1,-98.98 200.24,-93.42"/>
<polygon fill="black" stroke="black" points="200.34,-89.92 190.13,-92.74 199.87,-96.9 200.34,-89.92"/>
<g id="a_edge7&#45;headlabel"><a xlink:href="dir_000007_000005.html" target="_top" xlink:title="3">
<text text-anchor="middle" x="204.12" y="-84.82" font-family="Helvetica,sans-Serif" font-size="10.00">3</text>
</a>
</g>
</g>
<!-- dir_d15e7af35e2750da09bd940611b2a2e2&#45;&gt;dir_38bf7f35d8fb44d8d23d70926bbee9d1 -->
<g id="edge9" class="edge">
<title>dir_d15e7af35e2750da09bd940611b2a2e2&#45;&gt;dir_38bf7f35d8fb44d8d23d70926bbee9d1</title>
<path fill="none" stroke="black" d="M605.38,-215.8C617.96,-206.9 631.2,-194.77 638.08,-180 647.83,-159.05 651.45,-146.85 638.08,-128 601.91,-77.02 413.13,-39.29 331.62,-25.13"/>
<polygon fill="black" stroke="black" points="331.76,-21.6 321.31,-23.36 330.58,-28.5 331.76,-21.6"/>
<g id="a_edge9&#45;headlabel"><a xlink:href="dir_000007_000008.html" target="_top" xlink:title="2">
<text text-anchor="middle" x="335.78" y="-16.91" font-family="Helvetica,sans-Serif" font-size="10.00">2</text>
</a>
</g>
</g>
<!-- dir_d15e7af35e2750da09bd940611b2a2e2&#45;&gt;dir_ec623ab5e31cd0d896091bc495e4e063 -->
<g id="edge10" class="edge">
<title>dir_d15e7af35e2750da09bd940611b2a2e2&#45;&gt;dir_ec623ab5e31cd0d896091bc495e4e063</title>
<path fill="none" stroke="black" d="M584.09,-215.62C598.91,-193.24 623.1,-154.12 602.08,-128 586.64,-108.82 521.64,-99.03 479.27,-94.47"/>
<polygon fill="black" stroke="black" points="479.6,-90.98 469.29,-93.45 478.88,-97.95 479.6,-90.98"/>
<g id="a_edge10&#45;headlabel"><a xlink:href="dir_000007_000011.html" target="_top" xlink:title="8">
<text text-anchor="middle" x="483.46" y="-86.03" font-family="Helvetica,sans-Serif" font-size="10.00">8</text>
</a>
</g>
</g>
<!-- dir_738e93b4b72767cbed3fd0527471f516&#45;&gt;dir_ec623ab5e31cd0d896091bc495e4e063 -->
<g id="edge11" class="edge">
<title>dir_738e93b4b72767cbed3fd0527471f516&#45;&gt;dir_ec623ab5e31cd0d896091bc495e4e063</title>
<path fill="none" stroke="black" d="M547.84,-143.98C540.62,-138.42 532.8,-132.53 525.08,-128 510.46,-119.43 493.48,-111.98 478.63,-106.06"/>
<polygon fill="black" stroke="black" points="479.81,-102.76 469.22,-102.39 477.27,-109.28 479.81,-102.76"/>
<g id="a_edge11&#45;headlabel"><a xlink:href="dir_000004_000011.html" target="_top" xlink:title="3">
<text text-anchor="middle" x="484.19" y="-98.92" font-family="Helvetica,sans-Serif" font-size="10.00">3</text>
</a>
</g>
</g>
<!-- dir_738e93b4b72767cbed3fd0527471f516&#45;&gt;dir_d63d35ee3bc125de0bc618dc0756060c -->
<g id="edge12" class="edge">
<title>dir_738e93b4b72767cbed3fd0527471f516&#45;&gt;dir_d63d35ee3bc125de0bc618dc0756060c</title>
<path fill="none" stroke="black" d="M559.04,-143.87C535.67,-118.92 492.14,-72.45 465.28,-43.77"/>
<polygon fill="black" stroke="black" points="467.57,-41.1 458.18,-36.19 462.46,-45.88 467.57,-41.1"/>
<g id="a_edge12&#45;headlabel"><a xlink:href="dir_000004_000014.html" target="_top" xlink:title="1">
<text text-anchor="middle" x="472.1" y="-39.28" font-family="Helvetica,sans-Serif" font-size="10.00">1</text>
</a>
</g>
</g>
<!-- dir_2df94ed6ef9db741bde0bb2b5d769537&#45;&gt;dir_242c69f8aa6c0b27ad66788f5b769271 -->
<g id="edge13" class="edge">
<title>dir_2df94ed6ef9db741bde0bb2b5d769537&#45;&gt;dir_242c69f8aa6c0b27ad66788f5b769271</title>
<path fill="none" stroke="black" d="M166.57,-108.29C171.51,-128.34 182.44,-161.06 204.08,-180 241.15,-212.45 297.81,-225.03 335.86,-229.91"/>
<polygon fill="black" stroke="black" points="335.73,-233.42 346.06,-231.09 336.53,-226.47 335.73,-233.42"/>
<g id="a_edge13&#45;headlabel"><a xlink:href="dir_000005_000017.html" target="_top" xlink:title="1">
<text text-anchor="middle" x="331.83" y="-233.33" font-family="Helvetica,sans-Serif" font-size="10.00">1</text>
</a>
</g>
</g>
<!-- dir_2df94ed6ef9db741bde0bb2b5d769537&#45;&gt;dir_38bf7f35d8fb44d8d23d70926bbee9d1 -->
<g id="edge14" class="edge">
<title>dir_2df94ed6ef9db741bde0bb2b5d769537&#45;&gt;dir_38bf7f35d8fb44d8d23d70926bbee9d1</title>
<path fill="none" stroke="black" d="M190.22,-74.5C209.89,-63.98 236.69,-49.66 258.14,-38.2"/>
<polygon fill="black" stroke="black" points="259.8,-41.29 266.97,-33.49 256.5,-35.11 259.8,-41.29"/>
<g id="a_edge14&#45;headlabel"><a xlink:href="dir_000005_000008.html" target="_top" xlink:title="1">
<text text-anchor="middle" x="257.97" y="-42.98" font-family="Helvetica,sans-Serif" font-size="10.00">1</text>
</a>
</g>
</g>
<!-- dir_ec623ab5e31cd0d896091bc495e4e063&#45;&gt;dir_242c69f8aa6c0b27ad66788f5b769271 -->
<g id="edge26" class="edge">
<title>dir_ec623ab5e31cd0d896091bc495e4e063&#45;&gt;dir_242c69f8aa6c0b27ad66788f5b769271</title>
<path fill="none" stroke="black" d="M414.86,-92.8C391.25,-95.97 358.37,-104.6 342.08,-128 325.36,-152.02 340.69,-184.75 355.78,-207.25"/>
<polygon fill="black" stroke="black" points="353.07,-209.48 361.7,-215.62 358.79,-205.44 353.07,-209.48"/>
<g id="a_edge26&#45;headlabel"><a xlink:href="dir_000011_000017.html" target="_top" xlink:title="4">
<text text-anchor="middle" x="348.68" y="-205.68" font-family="Helvetica,sans-Serif" font-size="10.00">4</text>
</a>
</g>
</g>
<!-- dir_ec623ab5e31cd0d896091bc495e4e063&#45;&gt;dir_9f5d199527dba43a9d22b9ea22b1b878 -->
<g id="edge23" class="edge">
<title>dir_ec623ab5e31cd0d896091bc495e4e063&#45;&gt;dir_9f5d199527dba43a9d22b9ea22b1b878</title>
<path fill="none" stroke="black" d="M415.04,-103.03C404.99,-108.99 394.68,-117.25 389.08,-128 378.39,-148.49 379.09,-159.16 389.08,-180 395,-192.35 405.37,-202.74 416.15,-210.95"/>
<polygon fill="black" stroke="black" points="414.23,-213.88 424.41,-216.8 418.27,-208.17 414.23,-213.88"/>
<g id="a_edge23&#45;headlabel"><a xlink:href="dir_000011_000018.html" target="_top" xlink:title="1">
<text text-anchor="middle" x="409.65" y="-211.62" font-family="Helvetica,sans-Serif" font-size="10.00">1</text>
</a>
</g>
</g>
<!-- dir_ec623ab5e31cd0d896091bc495e4e063&#45;&gt;dir_d15e7af35e2750da09bd940611b2a2e2 -->
<g id="edge24" class="edge">
<title>dir_ec623ab5e31cd0d896091bc495e4e063&#45;&gt;dir_d15e7af35e2750da09bd940611b2a2e2</title>
<path fill="none" stroke="black" d="M469.24,-92.49C514.63,-95.81 601.86,-105.36 620.08,-128 638.88,-151.37 621.51,-185.14 602.98,-208.02"/>
<polygon fill="black" stroke="black" points="600.31,-205.76 596.44,-215.62 605.61,-210.33 600.31,-205.76"/>
<g id="a_edge24&#45;headlabel"><a xlink:href="dir_000011_000007.html" target="_top" xlink:title="1">
<text text-anchor="middle" x="600.5" y="-198.68" font-family="Helvetica,sans-Serif" font-size="10.00">1</text>
</a>
</g>
</g>
<!-- dir_ec623ab5e31cd0d896091bc495e4e063&#45;&gt;dir_738e93b4b72767cbed3fd0527471f516 -->
<g id="edge25" class="edge">
<title>dir_ec623ab5e31cd0d896091bc495e4e063&#45;&gt;dir_738e93b4b72767cbed3fd0527471f516</title>
<path fill="none" stroke="black" d="M469.17,-97.19C490.44,-103.51 519.76,-114.34 543.08,-128 547.79,-130.76 552.53,-134.03 556.92,-137.41"/>
<polygon fill="black" stroke="black" points="554.9,-140.28 564.83,-143.98 559.37,-134.9 554.9,-140.28"/>
<g id="a_edge25&#45;headlabel"><a xlink:href="dir_000011_000004.html" target="_top" xlink:title="2">
<text text-anchor="middle" x="550.32" y="-137.67" font-family="Helvetica,sans-Serif" font-size="10.00">2</text>
</a>
</g>
</g>
<!-- dir_ec623ab5e31cd0d896091bc495e4e063&#45;&gt;dir_38bf7f35d8fb44d8d23d70926bbee9d1 -->
<g id="edge27" class="edge">
<title>dir_ec623ab5e31cd0d896091bc495e4e063&#45;&gt;dir_38bf7f35d8fb44d8d23d70926bbee9d1</title>
<path fill="none" stroke="black" d="M414.93,-76.16C391.22,-64.95 356.61,-48.58 330.5,-36.23"/>
<polygon fill="black" stroke="black" points="331.84,-32.99 321.3,-31.88 328.85,-39.32 331.84,-32.99"/>
<g id="a_edge27&#45;headlabel"><a xlink:href="dir_000011_000008.html" target="_top" xlink:title="1">
<text text-anchor="middle" x="336.3" y="-29.46" font-family="Helvetica,sans-Serif" font-size="10.00">1</text>
</a>
</g>
</g>
<!-- dir_ec623ab5e31cd0d896091bc495e4e063&#45;&gt;dir_d63d35ee3bc125de0bc618dc0756060c -->
<g id="edge28" class="edge">
<title>dir_ec623ab5e31cd0d896091bc495e4e063&#45;&gt;dir_d63d35ee3bc125de0bc618dc0756060c</title>
<path fill="none" stroke="black" d="M442.08,-71.7C442.08,-63.98 442.08,-54.71 442.08,-46.11"/>
<polygon fill="black" stroke="black" points="445.58,-46.1 442.08,-36.1 438.58,-46.1 445.58,-46.1"/>
<g id="a_edge28&#45;headlabel"><a xlink:href="dir_000011_000014.html" target="_top" xlink:title="1">
<text text-anchor="middle" x="448.42" y="-47.2" font-family="Helvetica,sans-Serif" font-size="10.00">1</text>
</a>
</g>
</g>
</g>
</svg>
