<?xml version="1.0" encoding="UTF-8" standalone="no"?>
<!DOCTYPE svg PUBLIC "-//W3C//DTD SVG 1.1//EN"
 "http://www.w3.org/Graphics/SVG/1.1/DTD/svg11.dtd">
<!-- Generated by graphviz version 2.40.1 (20161225.0304)
 -->
<!-- Title: kryne&#45;engine/include/kryne&#45;engine/Rendering/OpenGL Pages: 1 -->
<svg width="213pt" height="151pt"
 viewBox="0.00 0.00 212.50 151.00" xmlns="http://www.w3.org/2000/svg" xmlns:xlink="http://www.w3.org/1999/xlink">
<g id="graph0" class="graph" transform="scale(1 1) rotate(0) translate(4 147)">
<title>kryne&#45;engine/include/kryne&#45;engine/Rendering/OpenGL</title>
<polygon fill="#ffffff" stroke="transparent" points="-4,4 -4,-147 208.5,-147 208.5,4 -4,4"/>
<g id="clust1" class="cluster">
<title>clusterdir_242c69f8aa6c0b27ad66788f5b769271</title>
<g id="a_clust1"><a xlink:href="dir_242c69f8aa6c0b27ad66788f5b769271.html" target="_top" xlink:title="Rendering">
<polygon fill="#ddddee" stroke="#000000" points="67.5,-64 67.5,-135 137.5,-135 137.5,-64 67.5,-64"/>
<text text-anchor="middle" x="102.5" y="-123" font-family="Helvetica,sans-Serif" font-size="10.00" fill="#000000">Rendering</text>
</a>
</g>
</g>
<!-- dir_c8c9939fa0f23e4314a6700b3a473357 -->
<g id="node1" class="node">
<title>dir_c8c9939fa0f23e4314a6700b3a473357</title>
<g id="a_node1"><a xlink:href="dir_c8c9939fa0f23e4314a6700b3a473357.html" target="_top" xlink:title="OpenGL">
<polygon fill="#eeeeff" stroke="#000000" points="129.5,-108 75.5,-108 75.5,-72 129.5,-72 129.5,-108"/>
<text text-anchor="middle" x="102.5" y="-87.5" font-family="Helvetica,sans-Serif" font-size="10.00" fill="#000000">OpenGL</text>
</a>
</g>
</g>
<!-- dir_ff137d22f21ebfd8b3f4b25121363126 -->
<g id="node2" class="node">
<title>dir_ff137d22f21ebfd8b3f4b25121363126</title>
<g id="a_node2"><a xlink:href="dir_ff137d22f21ebfd8b3f4b25121363126.html" target="_top" xlink:title="Textures">
<polygon fill="none" stroke="#000000" points="55,-36 0,-36 0,0 55,0 55,-36"/>
<text text-anchor="middle" x="27.5" y="-15.5" font-family="Helvetica,sans-Serif" font-size="10.00" fill="#000000">Textures</text>
</a>
</g>
</g>
<!-- dir_c8c9939fa0f23e4314a6700b3a473357&#45;&gt;dir_ff137d22f21ebfd8b3f4b25121363126 -->
<g id="edge1" class="edge">
<title>dir_c8c9939fa0f23e4314a6700b3a473357&#45;&gt;dir_ff137d22f21ebfd8b3f4b25121363126</title>
<path fill="none" stroke="#000000" d="M83.5743,-71.8314C74.5143,-63.1337 63.5191,-52.5783 53.6735,-43.1265"/>
<polygon fill="#000000" stroke="#000000" points="56.0574,-40.5633 46.4196,-36.1628 51.2096,-45.613 56.0574,-40.5633"/>
<g id="a_edge1&#45;headlabel"><a xlink:href="dir_000028_000033.html" target="_top" xlink:title="1">
<text text-anchor="middle" x="60.6167" y="-38.5045" font-family="Helvetica,sans-Serif" font-size="10.00" fill="#000000">1</text>
</a>
</g>
</g>
<!-- dir_2dd932fc5c4f5b62276988dfe28c2718 -->
<g id="node3" class="node">
<title>dir_2dd932fc5c4f5b62276988dfe28c2718</title>
<g id="a_node3"><a xlink:href="dir_2dd932fc5c4f5b62276988dfe28c2718.html" target="_top" xlink:title="Geometry">
<polygon fill="none" stroke="#000000" points="132,-36 73,-36 73,0 132,0 132,-36"/>
<text text-anchor="middle" x="102.5" y="-15.5" font-family="Helvetica,sans-Serif" font-size="10.00" fill="#000000">Geometry</text>
</a>
</g>
</g>
<!-- dir_c8c9939fa0f23e4314a6700b3a473357&#45;&gt;dir_2dd932fc5c4f5b62276988dfe28c2718 -->
<g id="edge2" class="edge">
<title>dir_c8c9939fa0f23e4314a6700b3a473357&#45;&gt;dir_2dd932fc5c4f5b62276988dfe28c2718</title>
<path fill="none" stroke="#000000" d="M102.5,-71.8314C102.5,-64.131 102.5,-54.9743 102.5,-46.4166"/>
<polygon fill="#000000" stroke="#000000" points="106.0001,-46.4132 102.5,-36.4133 99.0001,-46.4133 106.0001,-46.4132"/>
<g id="a_edge2&#45;headlabel"><a xlink:href="dir_000028_000021.html" target="_top" xlink:title="1">
<text text-anchor="middle" x="108.8393" y="-47.5079" font-family="Helvetica,sans-Serif" font-size="10.00" fill="#000000">1</text>
</a>
</g>
</g>
<!-- dir_ec623ab5e31cd0d896091bc495e4e063 -->
<g id="node4" class="node">
<title>dir_ec623ab5e31cd0d896091bc495e4e063</title>
<g id="a_node4"><a xlink:href="dir_ec623ab5e31cd0d896091bc495e4e063.html" target="_top" xlink:title="Core">
<polygon fill="#ffffff" stroke="#ff0000" points="204.5,-36 150.5,-36 150.5,0 204.5,0 204.5,-36"/>
<text text-anchor="middle" x="177.5" y="-15.5" font-family="Helvetica,sans-Serif" font-size="10.00" fill="#000000">Core</text>
</a>
</g>
</g>
<!-- dir_c8c9939fa0f23e4314a6700b3a473357&#45;&gt;dir_ec623ab5e31cd0d896091bc495e4e063 -->
<g id="edge3" class="edge">
<title>dir_c8c9939fa0f23e4314a6700b3a473357&#45;&gt;dir_ec623ab5e31cd0d896091bc495e4e063</title>
<path fill="none" stroke="#000000" d="M121.4257,-71.8314C130.4857,-63.1337 141.4809,-52.5783 151.3265,-43.1265"/>
<polygon fill="#000000" stroke="#000000" points="153.7904,-45.613 158.5804,-36.1628 148.9426,-40.5633 153.7904,-45.613"/>
<g id="a_edge3&#45;headlabel"><a xlink:href="dir_000028_000018.html" target="_top" xlink:title="1">
<text text-anchor="middle" x="153.1636" y="-47.6506" font-family="Helvetica,sans-Serif" font-size="10.00" fill="#000000">1</text>
</a>
</g>
</g>
</g>
</svg>
