<?xml version="1.0" encoding="UTF-8" standalone="no"?>
<!DOCTYPE svg PUBLIC "-//W3C//DTD SVG 1.1//EN"
 "http://www.w3.org/Graphics/SVG/1.1/DTD/svg11.dtd">
<!-- Generated by graphviz version 2.44.1 (20200629.0846)
 -->
<!-- Title: kryne&#45;engine/include/kryne&#45;engine/Core Pages: 1 -->
<svg width="344pt" height="267pt"
 viewBox="0.00 0.00 343.62 267.00" xmlns="http://www.w3.org/2000/svg" xmlns:xlink="http://www.w3.org/1999/xlink">
<g id="graph0" class="graph" transform="scale(1 1) rotate(0) translate(4 263)">
<title>kryne&#45;engine/include/kryne&#45;engine/Core</title>
<polygon fill="white" stroke="transparent" points="-4,4 -4,-263 339.62,-263 339.62,4 -4,4"/>
<g id="clust1" class="cluster">
<title>clusterdir_6f1e06805bf6fd443f4521a944e15946</title>
<g id="a_clust1"><a xlink:href="dir_6f1e06805bf6fd443f4521a944e15946.html" target="_top" xlink:title="kryne&#45;engine">
<polygon fill="#ddddee" stroke="black" points="69.5,-56 69.5,-215 185.5,-215 185.5,-56 69.5,-56"/>
<text text-anchor="middle" x="127.5" y="-203" font-family="Helvetica,sans-Serif" font-size="10.00">kryne&#45;engine</text>
</a>
</g>
</g>
<g id="clust2" class="cluster">
<title>clusterdir_ec623ab5e31cd0d896091bc495e4e063</title>
<g id="a_clust2"><a xlink:href="dir_ec623ab5e31cd0d896091bc495e4e063.html" target="_top">
<polygon fill="#eeeeff" stroke="black" points="77.5,-64 77.5,-188 177.5,-188 177.5,-64 77.5,-64"/>
</a>
</g>
</g>
<!-- dir_ec623ab5e31cd0d896091bc495e4e063 -->
<g id="node1" class="node">
<title>dir_ec623ab5e31cd0d896091bc495e4e063</title>
<text text-anchor="middle" x="142.5" y="-159.5" font-family="Helvetica,sans-Serif" font-size="10.00">Core</text>
</g>
<!-- dir_c9051af2ea579de52649c741bd9b2439 -->
<g id="node2" class="node">
<title>dir_c9051af2ea579de52649c741bd9b2439</title>
<g id="a_node2"><a xlink:href="dir_c9051af2ea579de52649c741bd9b2439.html" target="_top" xlink:title="GraphicContext">
<polygon fill="white" stroke="black" points="169.5,-108 85.5,-108 85.5,-72 169.5,-72 169.5,-108"/>
<text text-anchor="middle" x="127.5" y="-87.5" font-family="Helvetica,sans-Serif" font-size="10.00">GraphicContext</text>
</a>
</g>
</g>
<!-- dir_ec623ab5e31cd0d896091bc495e4e063&#45;&gt;dir_c9051af2ea579de52649c741bd9b2439 -->
<g id="edge19" class="edge">
<title>dir_ec623ab5e31cd0d896091bc495e4e063&#45;&gt;dir_c9051af2ea579de52649c741bd9b2439</title>
<path fill="none" stroke="black" d="M138.79,-143.7C137.14,-135.98 135.15,-126.71 133.31,-118.11"/>
<polygon fill="black" stroke="black" points="136.68,-117.15 131.17,-108.1 129.84,-118.62 136.68,-117.15"/>
<g id="a_edge19&#45;headlabel"><a xlink:href="dir_000011_000012.html" target="_top" xlink:title="1">
<text text-anchor="middle" x="140.21" y="-117.57" font-family="Helvetica,sans-Serif" font-size="10.00">1</text>
</a>
</g>
</g>
<!-- dir_d15e7af35e2750da09bd940611b2a2e2 -->
<g id="node3" class="node">
<title>dir_d15e7af35e2750da09bd940611b2a2e2</title>
<g id="a_node3"><a xlink:href="dir_d15e7af35e2750da09bd940611b2a2e2.html" target="_top" xlink:title="3DObjects">
<polygon fill="white" stroke="red" points="292.5,-259 230.5,-259 230.5,-223 292.5,-223 292.5,-259"/>
<text text-anchor="middle" x="261.5" y="-238.5" font-family="Helvetica,sans-Serif" font-size="10.00">3DObjects</text>
</a>
</g>
</g>
<!-- dir_ec623ab5e31cd0d896091bc495e4e063&#45;&gt;dir_d15e7af35e2750da09bd940611b2a2e2 -->
<g id="edge14" class="edge">
<title>dir_ec623ab5e31cd0d896091bc495e4e063&#45;&gt;dir_d15e7af35e2750da09bd940611b2a2e2</title>
<path fill="none" stroke="black" d="M146.74,-180.05C153.94,-191.34 166.5,-205.73 180.5,-215 192.4,-222.88 207.04,-228.56 220.69,-232.49"/>
<polygon fill="black" stroke="black" points="219.83,-235.88 230.39,-235.05 221.62,-229.11 219.83,-235.88"/>
<g id="a_edge14&#45;headlabel"><a xlink:href="dir_000011_000007.html" target="_top" xlink:title="1">
<text text-anchor="middle" x="215.63" y="-235.21" font-family="Helvetica,sans-Serif" font-size="10.00">1</text>
</a>
</g>
</g>
<!-- dir_738e93b4b72767cbed3fd0527471f516 -->
<g id="node4" class="node">
<title>dir_738e93b4b72767cbed3fd0527471f516</title>
<g id="a_node4"><a xlink:href="dir_738e93b4b72767cbed3fd0527471f516.html" target="_top" xlink:title="Camera">
<polygon fill="none" stroke="black" points="319.5,-108 265.5,-108 265.5,-72 319.5,-72 319.5,-108"/>
<text text-anchor="middle" x="292.5" y="-87.5" font-family="Helvetica,sans-Serif" font-size="10.00">Camera</text>
</a>
</g>
</g>
<!-- dir_ec623ab5e31cd0d896091bc495e4e063&#45;&gt;dir_738e93b4b72767cbed3fd0527471f516 -->
<g id="edge15" class="edge">
<title>dir_ec623ab5e31cd0d896091bc495e4e063&#45;&gt;dir_738e93b4b72767cbed3fd0527471f516</title>
<path fill="none" stroke="black" d="M169.74,-144.82C191.02,-134.35 221.02,-120.41 247.5,-108 250.23,-106.72 253.07,-105.39 255.96,-104.05"/>
<polygon fill="black" stroke="black" points="257.56,-107.17 265.22,-99.84 254.66,-100.79 257.56,-107.17"/>
<g id="a_edge15&#45;headlabel"><a xlink:href="dir_000011_000004.html" target="_top" xlink:title="2">
<text text-anchor="middle" x="255.46" y="-108.74" font-family="Helvetica,sans-Serif" font-size="10.00">2</text>
</a>
</g>
</g>
<!-- dir_242c69f8aa6c0b27ad66788f5b769271 -->
<g id="node5" class="node">
<title>dir_242c69f8aa6c0b27ad66788f5b769271</title>
<g id="a_node5"><a xlink:href="dir_242c69f8aa6c0b27ad66788f5b769271.html" target="_top" xlink:title="Rendering">
<polygon fill="white" stroke="red" points="291.5,-180 231.5,-180 231.5,-144 291.5,-144 291.5,-180"/>
<text text-anchor="middle" x="261.5" y="-159.5" font-family="Helvetica,sans-Serif" font-size="10.00">Rendering</text>
</a>
</g>
</g>
<!-- dir_ec623ab5e31cd0d896091bc495e4e063&#45;&gt;dir_242c69f8aa6c0b27ad66788f5b769271 -->
<g id="edge16" class="edge">
<title>dir_ec623ab5e31cd0d896091bc495e4e063&#45;&gt;dir_242c69f8aa6c0b27ad66788f5b769271</title>
<path fill="none" stroke="black" d="M169.93,-162C187.07,-162 204.21,-162 221.36,-162"/>
<polygon fill="black" stroke="black" points="221.45,-165.5 231.45,-162 221.45,-158.5 221.45,-165.5"/>
<g id="a_edge16&#45;headlabel"><a xlink:href="dir_000011_000017.html" target="_top" xlink:title="4">
<text text-anchor="middle" x="217.86" y="-165.84" font-family="Helvetica,sans-Serif" font-size="10.00">4</text>
</a>
</g>
</g>
<!-- dir_38bf7f35d8fb44d8d23d70926bbee9d1 -->
<g id="node6" class="node">
<title>dir_38bf7f35d8fb44d8d23d70926bbee9d1</title>
<g id="a_node6"><a xlink:href="dir_38bf7f35d8fb44d8d23d70926bbee9d1.html" target="_top" xlink:title="enums">
<polygon fill="none" stroke="black" points="247.5,-108 193.5,-108 193.5,-72 247.5,-72 247.5,-108"/>
<text text-anchor="middle" x="220.5" y="-87.5" font-family="Helvetica,sans-Serif" font-size="10.00">enums</text>
</a>
</g>
</g>
<!-- dir_ec623ab5e31cd0d896091bc495e4e063&#45;&gt;dir_38bf7f35d8fb44d8d23d70926bbee9d1 -->
<g id="edge17" class="edge">
<title>dir_ec623ab5e31cd0d896091bc495e4e063&#45;&gt;dir_38bf7f35d8fb44d8d23d70926bbee9d1</title>
<path fill="none" stroke="black" d="M161.78,-143.7C171.42,-135.05 183.23,-124.45 193.73,-115.03"/>
<polygon fill="black" stroke="black" points="196.34,-117.39 201.44,-108.1 191.66,-112.18 196.34,-117.39"/>
<g id="a_edge17&#45;headlabel"><a xlink:href="dir_000011_000008.html" target="_top" xlink:title="1">
<text text-anchor="middle" x="195.56" y="-119.4" font-family="Helvetica,sans-Serif" font-size="10.00">1</text>
</a>
</g>
</g>
<!-- dir_f382c466c9934bb821718b5297ce6904 -->
<g id="node7" class="node">
<title>dir_f382c466c9934bb821718b5297ce6904</title>
<g id="a_node7"><a xlink:href="dir_f382c466c9934bb821718b5297ce6904.html" target="_top" xlink:title="Constants">
<polygon fill="none" stroke="black" points="61,-108 0,-108 0,-72 61,-72 61,-108"/>
<text text-anchor="middle" x="30.5" y="-87.5" font-family="Helvetica,sans-Serif" font-size="10.00">Constants</text>
</a>
</g>
</g>
<!-- dir_ec623ab5e31cd0d896091bc495e4e063&#45;&gt;dir_f382c466c9934bb821718b5297ce6904 -->
<g id="edge18" class="edge">
<title>dir_ec623ab5e31cd0d896091bc495e4e063&#45;&gt;dir_f382c466c9934bb821718b5297ce6904</title>
<path fill="none" stroke="black" d="M115.39,-144.05C100.64,-134.84 82.21,-123.32 66.29,-113.37"/>
<polygon fill="black" stroke="black" points="68.09,-110.36 57.75,-108.03 64.38,-116.3 68.09,-110.36"/>
<g id="a_edge18&#45;headlabel"><a xlink:href="dir_000011_000010.html" target="_top" xlink:title="1">
<text text-anchor="middle" x="72.64" y="-107.36" font-family="Helvetica,sans-Serif" font-size="10.00">1</text>
</a>
</g>
</g>
<!-- dir_c9051af2ea579de52649c741bd9b2439&#45;&gt;dir_242c69f8aa6c0b27ad66788f5b769271 -->
<g id="edge12" class="edge">
<title>dir_c9051af2ea579de52649c741bd9b2439&#45;&gt;dir_242c69f8aa6c0b27ad66788f5b769271</title>
<path fill="none" stroke="black" d="M154.45,-108.16C173.93,-118.92 200.4,-132.75 222.2,-143.57"/>
<polygon fill="black" stroke="black" points="220.7,-146.73 231.22,-148 223.79,-140.45 220.7,-146.73"/>
<g id="a_edge12&#45;headlabel"><a xlink:href="dir_000012_000017.html" target="_top" xlink:title="3">
<text text-anchor="middle" x="216.22" y="-145.2" font-family="Helvetica,sans-Serif" font-size="10.00">3</text>
</a>
</g>
</g>
<!-- dir_d63d35ee3bc125de0bc618dc0756060c -->
<g id="node8" class="node">
<title>dir_d63d35ee3bc125de0bc618dc0756060c</title>
<g id="a_node8"><a xlink:href="dir_d63d35ee3bc125de0bc618dc0756060c.html" target="_top" xlink:title="Input">
<polygon fill="none" stroke="black" points="319.5,-36 265.5,-36 265.5,0 319.5,0 319.5,-36"/>
<text text-anchor="middle" x="292.5" y="-15.5" font-family="Helvetica,sans-Serif" font-size="10.00">Input</text>
</a>
</g>
</g>
<!-- dir_c9051af2ea579de52649c741bd9b2439&#45;&gt;dir_d63d35ee3bc125de0bc618dc0756060c -->
<g id="edge13" class="edge">
<title>dir_c9051af2ea579de52649c741bd9b2439&#45;&gt;dir_d63d35ee3bc125de0bc618dc0756060c</title>
<path fill="none" stroke="black" d="M154.47,-71.94C163.78,-66.45 174.41,-60.6 184.5,-56 207.54,-45.5 234.49,-36.27 255.7,-29.65"/>
<polygon fill="black" stroke="black" points="256.77,-32.98 265.31,-26.71 254.72,-26.29 256.77,-32.98"/>
<g id="a_edge13&#45;headlabel"><a xlink:href="dir_000012_000014.html" target="_top" xlink:title="1">
<text text-anchor="middle" x="254.16" y="-34.25" font-family="Helvetica,sans-Serif" font-size="10.00">1</text>
</a>
</g>
</g>
<!-- dir_d15e7af35e2750da09bd940611b2a2e2&#45;&gt;dir_ec623ab5e31cd0d896091bc495e4e063 -->
<g id="edge4" class="edge">
<title>dir_d15e7af35e2750da09bd940611b2a2e2&#45;&gt;dir_ec623ab5e31cd0d896091bc495e4e063</title>
<path fill="none" stroke="black" d="M230.35,-230.14C219.75,-226.39 208.21,-221.43 198.5,-215 187.45,-207.68 177.3,-197.18 168.59,-187.53"/>
<polygon fill="black" stroke="black" points="171.18,-185.18 161.92,-180.05 165.96,-189.84 171.18,-185.18"/>
<g id="a_edge4&#45;headlabel"><a xlink:href="dir_000007_000011.html" target="_top" xlink:title="8">
<text text-anchor="middle" x="175.7" y="-183.48" font-family="Helvetica,sans-Serif" font-size="10.00">8</text>
</a>
</g>
</g>
<!-- dir_d15e7af35e2750da09bd940611b2a2e2&#45;&gt;dir_738e93b4b72767cbed3fd0527471f516 -->
<g id="edge1" class="edge">
<title>dir_d15e7af35e2750da09bd940611b2a2e2&#45;&gt;dir_738e93b4b72767cbed3fd0527471f516</title>
<path fill="none" stroke="black" d="M292.5,-224.67C295.69,-221.88 298.49,-218.67 300.5,-215 316.95,-184.92 309.89,-144.41 302.18,-118"/>
<polygon fill="black" stroke="black" points="305.46,-116.78 299.12,-108.29 298.78,-118.88 305.46,-116.78"/>
<g id="a_edge1&#45;headlabel"><a xlink:href="dir_000007_000004.html" target="_top" xlink:title="1">
<text text-anchor="middle" x="309.25" y="-116.86" font-family="Helvetica,sans-Serif" font-size="10.00">1</text>
</a>
</g>
</g>
<!-- dir_d15e7af35e2750da09bd940611b2a2e2&#45;&gt;dir_242c69f8aa6c0b27ad66788f5b769271 -->
<g id="edge2" class="edge">
<title>dir_d15e7af35e2750da09bd940611b2a2e2&#45;&gt;dir_242c69f8aa6c0b27ad66788f5b769271</title>
<path fill="none" stroke="black" d="M255.78,-222.91C254.75,-213.34 254.49,-201.18 255.01,-190.32"/>
<polygon fill="black" stroke="black" points="258.52,-190.28 255.79,-180.04 251.54,-189.75 258.52,-190.28"/>
<g id="a_edge2&#45;headlabel"><a xlink:href="dir_000007_000017.html" target="_top" xlink:title="1">
<text text-anchor="middle" x="261.08" y="-191.57" font-family="Helvetica,sans-Serif" font-size="10.00">1</text>
</a>
</g>
</g>
<!-- dir_d15e7af35e2750da09bd940611b2a2e2&#45;&gt;dir_38bf7f35d8fb44d8d23d70926bbee9d1 -->
<g id="edge3" class="edge">
<title>dir_d15e7af35e2750da09bd940611b2a2e2&#45;&gt;dir_38bf7f35d8fb44d8d23d70926bbee9d1</title>
<path fill="none" stroke="black" d="M230.18,-224.31C227.14,-221.61 224.46,-218.51 222.5,-215 205.92,-185.25 209.07,-144.91 213.89,-118.44"/>
<polygon fill="black" stroke="black" points="217.38,-118.84 215.94,-108.35 210.52,-117.45 217.38,-118.84"/>
<g id="a_edge3&#45;headlabel"><a xlink:href="dir_000007_000008.html" target="_top" xlink:title="2">
<text text-anchor="middle" x="219.45" y="-120.43" font-family="Helvetica,sans-Serif" font-size="10.00">2</text>
</a>
</g>
</g>
<!-- dir_738e93b4b72767cbed3fd0527471f516&#45;&gt;dir_ec623ab5e31cd0d896091bc495e4e063 -->
<g id="edge5" class="edge">
<title>dir_738e93b4b72767cbed3fd0527471f516&#45;&gt;dir_ec623ab5e31cd0d896091bc495e4e063</title>
<path fill="none" stroke="black" d="M265.12,-108.18C236.4,-121.63 203.63,-136.85 179.04,-147.48"/>
<polygon fill="black" stroke="black" points="177.53,-144.32 169.7,-151.46 180.27,-150.76 177.53,-144.32"/>
<g id="a_edge5&#45;headlabel"><a xlink:href="dir_000004_000011.html" target="_top" xlink:title="3">
<text text-anchor="middle" x="179.72" y="-137.8" font-family="Helvetica,sans-Serif" font-size="10.00">3</text>
</a>
</g>
</g>
<!-- dir_738e93b4b72767cbed3fd0527471f516&#45;&gt;dir_d63d35ee3bc125de0bc618dc0756060c -->
<g id="edge6" class="edge">
<title>dir_738e93b4b72767cbed3fd0527471f516&#45;&gt;dir_d63d35ee3bc125de0bc618dc0756060c</title>
<path fill="none" stroke="black" d="M292.5,-71.7C292.5,-63.98 292.5,-54.71 292.5,-46.11"/>
<polygon fill="black" stroke="black" points="296,-46.1 292.5,-36.1 289,-46.1 296,-46.1"/>
<g id="a_edge6&#45;headlabel"><a xlink:href="dir_000004_000014.html" target="_top" xlink:title="1">
<text text-anchor="middle" x="298.84" y="-47.2" font-family="Helvetica,sans-Serif" font-size="10.00">1</text>
</a>
</g>
</g>
<!-- dir_242c69f8aa6c0b27ad66788f5b769271&#45;&gt;dir_c9051af2ea579de52649c741bd9b2439 -->
<g id="edge10" class="edge">
<title>dir_242c69f8aa6c0b27ad66788f5b769271&#45;&gt;dir_c9051af2ea579de52649c741bd9b2439</title>
<path fill="none" stroke="black" d="M234.62,-143.88C217.59,-134.47 195.21,-122.71 175.27,-112.67"/>
<polygon fill="black" stroke="black" points="176.82,-109.53 166.31,-108.19 173.69,-115.79 176.82,-109.53"/>
<g id="a_edge10&#45;headlabel"><a xlink:href="dir_000017_000012.html" target="_top" xlink:title="1">
<text text-anchor="middle" x="181.3" y="-106.09" font-family="Helvetica,sans-Serif" font-size="10.00">1</text>
</a>
</g>
</g>
<!-- dir_242c69f8aa6c0b27ad66788f5b769271&#45;&gt;dir_d15e7af35e2750da09bd940611b2a2e2 -->
<g id="edge7" class="edge">
<title>dir_242c69f8aa6c0b27ad66788f5b769271&#45;&gt;dir_d15e7af35e2750da09bd940611b2a2e2</title>
<path fill="none" stroke="black" d="M267.21,-180.04C268.25,-189.6 268.51,-201.76 267.99,-212.62"/>
<polygon fill="black" stroke="black" points="264.48,-212.68 267.22,-222.91 271.46,-213.2 264.48,-212.68"/>
<g id="a_edge7&#45;headlabel"><a xlink:href="dir_000017_000007.html" target="_top" xlink:title="7">
<text text-anchor="middle" x="261.92" y="-206.38" font-family="Helvetica,sans-Serif" font-size="10.00">7</text>
</a>
</g>
</g>
<!-- dir_242c69f8aa6c0b27ad66788f5b769271&#45;&gt;dir_738e93b4b72767cbed3fd0527471f516 -->
<g id="edge8" class="edge">
<title>dir_242c69f8aa6c0b27ad66788f5b769271&#45;&gt;dir_738e93b4b72767cbed3fd0527471f516</title>
<path fill="none" stroke="black" d="M269.16,-143.7C272.69,-135.73 276.96,-126.1 280.87,-117.26"/>
<polygon fill="black" stroke="black" points="284.08,-118.67 284.93,-108.1 277.68,-115.83 284.08,-118.67"/>
<g id="a_edge8&#45;headlabel"><a xlink:href="dir_000017_000004.html" target="_top" xlink:title="4">
<text text-anchor="middle" x="285.22" y="-120.6" font-family="Helvetica,sans-Serif" font-size="10.00">4</text>
</a>
</g>
</g>
<!-- dir_242c69f8aa6c0b27ad66788f5b769271&#45;&gt;dir_38bf7f35d8fb44d8d23d70926bbee9d1 -->
<g id="edge9" class="edge">
<title>dir_242c69f8aa6c0b27ad66788f5b769271&#45;&gt;dir_38bf7f35d8fb44d8d23d70926bbee9d1</title>
<path fill="none" stroke="black" d="M251.37,-143.7C246.65,-135.64 240.94,-125.89 235.72,-116.98"/>
<polygon fill="black" stroke="black" points="238.59,-114.96 230.52,-108.1 232.55,-118.5 238.59,-114.96"/>
<g id="a_edge9&#45;headlabel"><a xlink:href="dir_000017_000008.html" target="_top" xlink:title="1">
<text text-anchor="middle" x="242.86" y="-114.13" font-family="Helvetica,sans-Serif" font-size="10.00">1</text>
</a>
</g>
</g>
<!-- dir_242c69f8aa6c0b27ad66788f5b769271&#45;&gt;dir_d63d35ee3bc125de0bc618dc0756060c -->
<g id="edge11" class="edge">
<title>dir_242c69f8aa6c0b27ad66788f5b769271&#45;&gt;dir_d63d35ee3bc125de0bc618dc0756060c</title>
<path fill="none" stroke="black" d="M291.57,-145.58C305.54,-136.67 320.75,-124.02 328.5,-108 338.57,-87.2 337.2,-77.41 328.5,-56 326.74,-51.68 324.22,-47.59 321.3,-43.81"/>
<polygon fill="black" stroke="black" points="323.7,-41.24 314.45,-36.07 318.46,-45.88 323.7,-41.24"/>
<g id="a_edge11&#45;headlabel"><a xlink:href="dir_000017_000014.html" target="_top" xlink:title="1">
<text text-anchor="middle" x="328.21" y="-39.55" font-family="Helvetica,sans-Serif" font-size="10.00">1</text>
</a>
</g>
</g>
</g>
</svg>
