<?xml version="1.0" encoding="UTF-8" standalone="no"?>
<!DOCTYPE svg PUBLIC "-//W3C//DTD SVG 1.1//EN"
 "http://www.w3.org/Graphics/SVG/1.1/DTD/svg11.dtd">
<!-- Generated by graphviz version 2.44.1 (20200629.0846)
 -->
<!-- Title: kryne&#45;engine/include/kryne&#45;engine Pages: 1 -->
<svg width="420pt" height="543pt"
 viewBox="0.00 0.00 420.00 543.00" xmlns="http://www.w3.org/2000/svg" xmlns:xlink="http://www.w3.org/1999/xlink">
<g id="graph0" class="graph" transform="scale(1 1) rotate(0) translate(4 539)">
<title>kryne&#45;engine/include/kryne&#45;engine</title>
<polygon fill="white" stroke="transparent" points="-4,4 -4,-539 416,-539 416,4 -4,4"/>
<g id="clust1" class="cluster">
<title>clusterdir_6fe37ccbf5e97356f3116a77abbef924</title>
<g id="a_clust1"><a xlink:href="dir_6fe37ccbf5e97356f3116a77abbef924.html" target="_top" xlink:title="include">
<polygon fill="#ddddee" stroke="black" points="8,-8 8,-527 404,-527 404,-8 8,-8"/>
<text text-anchor="middle" x="206" y="-515" font-family="Helvetica,sans-Serif" font-size="10.00">include</text>
</a>
</g>
</g>
<g id="clust2" class="cluster">
<title>clusterdir_6f1e06805bf6fd443f4521a944e15946</title>
<g id="a_clust2"><a xlink:href="dir_6f1e06805bf6fd443f4521a944e15946.html" target="_top">
<polygon fill="#eeeeff" stroke="black" points="16,-16 16,-500 396,-500 396,-16 16,-16"/>
</a>
</g>
</g>
<!-- dir_6f1e06805bf6fd443f4521a944e15946 -->
<g id="node1" class="node">
<title>dir_6f1e06805bf6fd443f4521a944e15946</title>
<text text-anchor="middle" x="323" y="-471.5" font-family="Helvetica,sans-Serif" font-size="10.00">kryne&#45;engine</text>
</g>
<!-- dir_d15e7af35e2750da09bd940611b2a2e2 -->
<g id="node2" class="node">
<title>dir_d15e7af35e2750da09bd940611b2a2e2</title>
<g id="a_node2"><a xlink:href="dir_d15e7af35e2750da09bd940611b2a2e2.html" target="_top" xlink:title="3DObjects">
<polygon fill="white" stroke="red" points="240,-492 178,-492 178,-456 240,-456 240,-492"/>
<text text-anchor="middle" x="209" y="-471.5" font-family="Helvetica,sans-Serif" font-size="10.00">3DObjects</text>
</a>
</g>
</g>
<!-- dir_738e93b4b72767cbed3fd0527471f516 -->
<g id="node3" class="node">
<title>dir_738e93b4b72767cbed3fd0527471f516</title>
<g id="a_node3"><a xlink:href="dir_738e93b4b72767cbed3fd0527471f516.html" target="_top" xlink:title="Camera">
<polygon fill="white" stroke="black" points="308,-420 254,-420 254,-384 308,-384 308,-420"/>
<text text-anchor="middle" x="281" y="-399.5" font-family="Helvetica,sans-Serif" font-size="10.00">Camera</text>
</a>
</g>
</g>
<!-- dir_d15e7af35e2750da09bd940611b2a2e2&#45;&gt;dir_738e93b4b72767cbed3fd0527471f516 -->
<g id="edge7" class="edge">
<title>dir_d15e7af35e2750da09bd940611b2a2e2&#45;&gt;dir_738e93b4b72767cbed3fd0527471f516</title>
<path fill="none" stroke="black" d="M226.8,-455.7C235.6,-447.14 246.38,-436.66 256,-427.3"/>
<polygon fill="black" stroke="black" points="258.68,-429.58 263.41,-420.1 253.8,-424.57 258.68,-429.58"/>
<g id="a_edge7&#45;headlabel"><a xlink:href="dir_000007_000004.html" target="_top" xlink:title="1">
<text text-anchor="middle" x="258.08" y="-431.63" font-family="Helvetica,sans-Serif" font-size="10.00">1</text>
</a>
</g>
</g>
<!-- dir_ec623ab5e31cd0d896091bc495e4e063 -->
<g id="node5" class="node">
<title>dir_ec623ab5e31cd0d896091bc495e4e063</title>
<g id="a_node5"><a xlink:href="dir_ec623ab5e31cd0d896091bc495e4e063.html" target="_top" xlink:title="Core">
<polygon fill="white" stroke="red" points="190,-348 136,-348 136,-312 190,-312 190,-348"/>
<text text-anchor="middle" x="163" y="-327.5" font-family="Helvetica,sans-Serif" font-size="10.00">Core</text>
</a>
</g>
</g>
<!-- dir_d15e7af35e2750da09bd940611b2a2e2&#45;&gt;dir_ec623ab5e31cd0d896091bc495e4e063 -->
<g id="edge11" class="edge">
<title>dir_d15e7af35e2750da09bd940611b2a2e2&#45;&gt;dir_ec623ab5e31cd0d896091bc495e4e063</title>
<path fill="none" stroke="black" d="M186,-455.58C177.38,-445.78 168.78,-432.94 164,-420 156.68,-400.22 154.31,-376.42 155.04,-358.41"/>
<polygon fill="black" stroke="black" points="158.54,-358.54 155.84,-348.29 151.56,-357.98 158.54,-358.54"/>
<g id="a_edge11&#45;headlabel"><a xlink:href="dir_000007_000011.html" target="_top" xlink:title="8">
<text text-anchor="middle" x="161.09" y="-359.85" font-family="Helvetica,sans-Serif" font-size="10.00">8</text>
</a>
</g>
</g>
<!-- dir_38bf7f35d8fb44d8d23d70926bbee9d1 -->
<g id="node6" class="node">
<title>dir_38bf7f35d8fb44d8d23d70926bbee9d1</title>
<g id="a_node6"><a xlink:href="dir_38bf7f35d8fb44d8d23d70926bbee9d1.html" target="_top" xlink:title="enums">
<polygon fill="white" stroke="black" points="388,-60 334,-60 334,-24 388,-24 388,-60"/>
<text text-anchor="middle" x="361" y="-39.5" font-family="Helvetica,sans-Serif" font-size="10.00">enums</text>
</a>
</g>
</g>
<!-- dir_d15e7af35e2750da09bd940611b2a2e2&#45;&gt;dir_38bf7f35d8fb44d8d23d70926bbee9d1 -->
<g id="edge10" class="edge">
<title>dir_d15e7af35e2750da09bd940611b2a2e2&#45;&gt;dir_38bf7f35d8fb44d8d23d70926bbee9d1</title>
<path fill="none" stroke="black" d="M240.01,-464C291,-447.06 387,-405.32 387,-331 387,-331 387,-331 387,-185 387,-145.24 386.12,-134.92 378,-96 376.2,-87.39 373.54,-78.21 370.85,-69.94"/>
<polygon fill="black" stroke="black" points="374.14,-68.76 367.61,-60.42 367.51,-71.01 374.14,-68.76"/>
<g id="a_edge10&#45;headlabel"><a xlink:href="dir_000007_000008.html" target="_top" xlink:title="2">
<text text-anchor="middle" x="377.99" y="-68.75" font-family="Helvetica,sans-Serif" font-size="10.00">2</text>
</a>
</g>
</g>
<!-- dir_2df94ed6ef9db741bde0bb2b5d769537 -->
<g id="node10" class="node">
<title>dir_2df94ed6ef9db741bde0bb2b5d769537</title>
<g id="a_node10"><a xlink:href="dir_2df94ed6ef9db741bde0bb2b5d769537.html" target="_top" xlink:title="Material">
<polygon fill="white" stroke="black" points="222,-132 168,-132 168,-96 222,-96 222,-132"/>
<text text-anchor="middle" x="195" y="-111.5" font-family="Helvetica,sans-Serif" font-size="10.00">Material</text>
</a>
</g>
</g>
<!-- dir_d15e7af35e2750da09bd940611b2a2e2&#45;&gt;dir_2df94ed6ef9db741bde0bb2b5d769537 -->
<g id="edge8" class="edge">
<title>dir_d15e7af35e2750da09bd940611b2a2e2&#45;&gt;dir_2df94ed6ef9db741bde0bb2b5d769537</title>
<path fill="none" stroke="black" d="M177.99,-472.32C141.67,-469.66 82.92,-459.13 55,-420 45.8,-407.1 33.23,-232.55 80,-168 98.33,-142.7 131.76,-129.15 157.87,-122.11"/>
<polygon fill="black" stroke="black" points="158.96,-125.45 167.82,-119.64 157.27,-118.65 158.96,-125.45"/>
<g id="a_edge8&#45;headlabel"><a xlink:href="dir_000007_000005.html" target="_top" xlink:title="3">
<text text-anchor="middle" x="156.16" y="-126.57" font-family="Helvetica,sans-Serif" font-size="10.00">3</text>
</a>
</g>
</g>
<!-- dir_0f92915ca20b087fd6327f83858c7195 -->
<g id="node11" class="node">
<title>dir_0f92915ca20b087fd6327f83858c7195</title>
<g id="a_node11"><a xlink:href="dir_0f92915ca20b087fd6327f83858c7195.html" target="_top" xlink:title="Math">
<polygon fill="white" stroke="black" points="236,-420 182,-420 182,-384 236,-384 236,-420"/>
<text text-anchor="middle" x="209" y="-399.5" font-family="Helvetica,sans-Serif" font-size="10.00">Math</text>
</a>
</g>
</g>
<!-- dir_d15e7af35e2750da09bd940611b2a2e2&#45;&gt;dir_0f92915ca20b087fd6327f83858c7195 -->
<g id="edge6" class="edge">
<title>dir_d15e7af35e2750da09bd940611b2a2e2&#45;&gt;dir_0f92915ca20b087fd6327f83858c7195</title>
<path fill="none" stroke="black" d="M209,-455.7C209,-447.98 209,-438.71 209,-430.11"/>
<polygon fill="black" stroke="black" points="212.5,-430.1 209,-420.1 205.5,-430.1 212.5,-430.1"/>
<g id="a_edge6&#45;headlabel"><a xlink:href="dir_000007_000016.html" target="_top" xlink:title="1">
<text text-anchor="middle" x="215.34" y="-431.2" font-family="Helvetica,sans-Serif" font-size="10.00">1</text>
</a>
</g>
</g>
<!-- dir_242c69f8aa6c0b27ad66788f5b769271 -->
<g id="node12" class="node">
<title>dir_242c69f8aa6c0b27ad66788f5b769271</title>
<g id="a_node12"><a xlink:href="dir_242c69f8aa6c0b27ad66788f5b769271.html" target="_top" xlink:title="Rendering">
<polygon fill="white" stroke="red" points="288,-276 228,-276 228,-240 288,-240 288,-276"/>
<text text-anchor="middle" x="258" y="-255.5" font-family="Helvetica,sans-Serif" font-size="10.00">Rendering</text>
</a>
</g>
</g>
<!-- dir_d15e7af35e2750da09bd940611b2a2e2&#45;&gt;dir_242c69f8aa6c0b27ad66788f5b769271 -->
<g id="edge9" class="edge">
<title>dir_d15e7af35e2750da09bd940611b2a2e2&#45;&gt;dir_242c69f8aa6c0b27ad66788f5b769271</title>
<path fill="none" stroke="black" d="M240.14,-464.95C263.22,-457.66 292.92,-444.2 308,-420 335.46,-375.93 298.12,-317.18 274.37,-284.21"/>
<polygon fill="black" stroke="black" points="277.11,-282.03 268.39,-276.01 271.46,-286.15 277.11,-282.03"/>
<g id="a_edge9&#45;headlabel"><a xlink:href="dir_000007_000017.html" target="_top" xlink:title="1">
<text text-anchor="middle" x="281.52" y="-280.75" font-family="Helvetica,sans-Serif" font-size="10.00">1</text>
</a>
</g>
</g>
<!-- dir_ff137d22f21ebfd8b3f4b25121363126 -->
<g id="node14" class="node">
<title>dir_ff137d22f21ebfd8b3f4b25121363126</title>
<g id="a_node14"><a xlink:href="dir_ff137d22f21ebfd8b3f4b25121363126.html" target="_top" xlink:title="Textures">
<polygon fill="white" stroke="black" points="78,-60 24,-60 24,-24 78,-24 78,-60"/>
<text text-anchor="middle" x="51" y="-39.5" font-family="Helvetica,sans-Serif" font-size="10.00">Textures</text>
</a>
</g>
</g>
<!-- dir_d15e7af35e2750da09bd940611b2a2e2&#45;&gt;dir_ff137d22f21ebfd8b3f4b25121363126 -->
<g id="edge5" class="edge">
<title>dir_d15e7af35e2750da09bd940611b2a2e2&#45;&gt;dir_ff137d22f21ebfd8b3f4b25121363126</title>
<path fill="none" stroke="black" d="M177.92,-471.97C140.54,-468.99 78.51,-458.16 44,-420 16.87,-390 25,-371.45 25,-331 25,-331 25,-331 25,-185 25,-144.55 35.33,-98.67 42.97,-70.28"/>
<polygon fill="black" stroke="black" points="46.44,-70.87 45.74,-60.3 39.69,-69 46.44,-70.87"/>
<g id="a_edge5&#45;headlabel"><a xlink:href="dir_000007_000020.html" target="_top" xlink:title="2">
<text text-anchor="middle" x="48.21" y="-72.6" font-family="Helvetica,sans-Serif" font-size="10.00">2</text>
</a>
</g>
</g>
<!-- dir_738e93b4b72767cbed3fd0527471f516&#45;&gt;dir_ec623ab5e31cd0d896091bc495e4e063 -->
<g id="edge14" class="edge">
<title>dir_738e93b4b72767cbed3fd0527471f516&#45;&gt;dir_ec623ab5e31cd0d896091bc495e4e063</title>
<path fill="none" stroke="black" d="M253.99,-388.16C236.34,-378.53 213.36,-365.09 194.84,-353.66"/>
<polygon fill="black" stroke="black" points="196.49,-350.57 186.16,-348.24 192.79,-356.51 196.49,-350.57"/>
<g id="a_edge14&#45;headlabel"><a xlink:href="dir_000004_000011.html" target="_top" xlink:title="3">
<text text-anchor="middle" x="201.04" y="-347.56" font-family="Helvetica,sans-Serif" font-size="10.00">3</text>
</a>
</g>
</g>
<!-- dir_d63d35ee3bc125de0bc618dc0756060c -->
<g id="node8" class="node">
<title>dir_d63d35ee3bc125de0bc618dc0756060c</title>
<g id="a_node8"><a xlink:href="dir_d63d35ee3bc125de0bc618dc0756060c.html" target="_top" xlink:title="Input">
<polygon fill="white" stroke="black" points="178,-204 124,-204 124,-168 178,-168 178,-204"/>
<text text-anchor="middle" x="151" y="-183.5" font-family="Helvetica,sans-Serif" font-size="10.00">Input</text>
</a>
</g>
</g>
<!-- dir_738e93b4b72767cbed3fd0527471f516&#45;&gt;dir_d63d35ee3bc125de0bc618dc0756060c -->
<g id="edge15" class="edge">
<title>dir_738e93b4b72767cbed3fd0527471f516&#45;&gt;dir_d63d35ee3bc125de0bc618dc0756060c</title>
<path fill="none" stroke="black" d="M270.58,-383.85C247.86,-346.44 193.72,-257.32 166.78,-212.98"/>
<polygon fill="black" stroke="black" points="169.65,-210.96 161.47,-204.23 163.67,-214.6 169.65,-210.96"/>
<g id="a_edge15&#45;headlabel"><a xlink:href="dir_000004_000014.html" target="_top" xlink:title="1">
<text text-anchor="middle" x="173.94" y="-210.06" font-family="Helvetica,sans-Serif" font-size="10.00">1</text>
</a>
</g>
</g>
<!-- dir_f382c466c9934bb821718b5297ce6904 -->
<g id="node4" class="node">
<title>dir_f382c466c9934bb821718b5297ce6904</title>
<g id="a_node4"><a xlink:href="dir_f382c466c9934bb821718b5297ce6904.html" target="_top" xlink:title="Constants">
<polygon fill="white" stroke="black" points="301.5,-132 240.5,-132 240.5,-96 301.5,-96 301.5,-132"/>
<text text-anchor="middle" x="271" y="-111.5" font-family="Helvetica,sans-Serif" font-size="10.00">Constants</text>
</a>
</g>
</g>
<!-- dir_ec623ab5e31cd0d896091bc495e4e063&#45;&gt;dir_d15e7af35e2750da09bd940611b2a2e2 -->
<g id="edge28" class="edge">
<title>dir_ec623ab5e31cd0d896091bc495e4e063&#45;&gt;dir_d15e7af35e2750da09bd940611b2a2e2</title>
<path fill="none" stroke="black" d="M169.2,-348.29C171.56,-366.65 173.21,-396.23 182,-420 185.51,-429.5 191.08,-438.95 196.4,-447.18"/>
<polygon fill="black" stroke="black" points="193.51,-449.17 201.95,-455.58 199.35,-445.3 193.51,-449.17"/>
<g id="a_edge28&#45;headlabel"><a xlink:href="dir_000011_000007.html" target="_top" xlink:title="2">
<text text-anchor="middle" x="189.16" y="-445.23" font-family="Helvetica,sans-Serif" font-size="10.00">2</text>
</a>
</g>
</g>
<!-- dir_ec623ab5e31cd0d896091bc495e4e063&#45;&gt;dir_738e93b4b72767cbed3fd0527471f516 -->
<g id="edge29" class="edge">
<title>dir_ec623ab5e31cd0d896091bc495e4e063&#45;&gt;dir_738e93b4b72767cbed3fd0527471f516</title>
<path fill="none" stroke="black" d="M190.3,-344C207.98,-353.66 230.93,-367.08 249.38,-378.47"/>
<polygon fill="black" stroke="black" points="247.7,-381.55 258.03,-383.88 251.4,-375.61 247.7,-381.55"/>
<g id="a_edge29&#45;headlabel"><a xlink:href="dir_000011_000004.html" target="_top" xlink:title="2">
<text text-anchor="middle" x="243.14" y="-379.55" font-family="Helvetica,sans-Serif" font-size="10.00">2</text>
</a>
</g>
</g>
<!-- dir_ec623ab5e31cd0d896091bc495e4e063&#45;&gt;dir_f382c466c9934bb821718b5297ce6904 -->
<g id="edge31" class="edge">
<title>dir_ec623ab5e31cd0d896091bc495e4e063&#45;&gt;dir_f382c466c9934bb821718b5297ce6904</title>
<path fill="none" stroke="black" d="M148.9,-311.81C124.94,-280.4 81.96,-212.85 115,-168 145.27,-126.92 176.68,-147.94 230.54,-131.7"/>
<polygon fill="black" stroke="black" points="231.75,-134.99 240.11,-128.49 229.52,-128.35 231.75,-134.99"/>
<g id="a_edge31&#45;headlabel"><a xlink:href="dir_000011_000010.html" target="_top" xlink:title="1">
<text text-anchor="middle" x="229.24" y="-136.32" font-family="Helvetica,sans-Serif" font-size="10.00">1</text>
</a>
</g>
</g>
<!-- dir_ec623ab5e31cd0d896091bc495e4e063&#45;&gt;dir_d63d35ee3bc125de0bc618dc0756060c -->
<g id="edge32" class="edge">
<title>dir_ec623ab5e31cd0d896091bc495e4e063&#45;&gt;dir_d63d35ee3bc125de0bc618dc0756060c</title>
<path fill="none" stroke="black" d="M161.55,-311.87C159.51,-287.67 155.75,-243.21 153.31,-214.39"/>
<polygon fill="black" stroke="black" points="156.78,-213.86 152.45,-204.19 149.81,-214.45 156.78,-213.86"/>
<g id="a_edge32&#45;headlabel"><a xlink:href="dir_000011_000014.html" target="_top" xlink:title="1">
<text text-anchor="middle" x="159.91" y="-214.7" font-family="Helvetica,sans-Serif" font-size="10.00">1</text>
</a>
</g>
</g>
<!-- dir_ec623ab5e31cd0d896091bc495e4e063&#45;&gt;dir_242c69f8aa6c0b27ad66788f5b769271 -->
<g id="edge30" class="edge">
<title>dir_ec623ab5e31cd0d896091bc495e4e063&#45;&gt;dir_242c69f8aa6c0b27ad66788f5b769271</title>
<path fill="none" stroke="black" d="M180.57,-311.7C191.84,-302.71 206.74,-291.61 220.51,-281.92"/>
<polygon fill="black" stroke="black" points="222.67,-284.68 228.89,-276.1 218.68,-278.93 222.67,-284.68"/>
<g id="a_edge30&#45;headlabel"><a xlink:href="dir_000011_000017.html" target="_top" xlink:title="1">
<text text-anchor="middle" x="221.34" y="-286.56" font-family="Helvetica,sans-Serif" font-size="10.00">1</text>
</a>
</g>
</g>
<!-- dir_2dd932fc5c4f5b62276988dfe28c2718 -->
<g id="node7" class="node">
<title>dir_2dd932fc5c4f5b62276988dfe28c2718</title>
<g id="a_node7"><a xlink:href="dir_2dd932fc5c4f5b62276988dfe28c2718.html" target="_top" xlink:title="Geometry">
<polygon fill="white" stroke="black" points="347.5,-204 288.5,-204 288.5,-168 347.5,-168 347.5,-204"/>
<text text-anchor="middle" x="318" y="-183.5" font-family="Helvetica,sans-Serif" font-size="10.00">Geometry</text>
</a>
</g>
</g>
<!-- dir_2dd932fc5c4f5b62276988dfe28c2718&#45;&gt;dir_f382c466c9934bb821718b5297ce6904 -->
<g id="edge13" class="edge">
<title>dir_2dd932fc5c4f5b62276988dfe28c2718&#45;&gt;dir_f382c466c9934bb821718b5297ce6904</title>
<path fill="none" stroke="black" d="M306.38,-167.7C300.86,-159.47 294.15,-149.48 288.07,-140.42"/>
<polygon fill="black" stroke="black" points="290.96,-138.46 282.48,-132.1 285.15,-142.36 290.96,-138.46"/>
<g id="a_edge13&#45;headlabel"><a xlink:href="dir_000013_000010.html" target="_top" xlink:title="1">
<text text-anchor="middle" x="295.33" y="-137.36" font-family="Helvetica,sans-Serif" font-size="10.00">1</text>
</a>
</g>
</g>
<!-- dir_6461cf5290df6a95e69a46be8b2326db -->
<g id="node15" class="node">
<title>dir_6461cf5290df6a95e69a46be8b2326db</title>
<g id="a_node15"><a xlink:href="dir_6461cf5290df6a95e69a46be8b2326db.html" target="_top" xlink:title="Utils">
<polygon fill="white" stroke="black" points="270,-60 216,-60 216,-24 270,-24 270,-60"/>
<text text-anchor="middle" x="243" y="-39.5" font-family="Helvetica,sans-Serif" font-size="10.00">Utils</text>
</a>
</g>
</g>
<!-- dir_2dd932fc5c4f5b62276988dfe28c2718&#45;&gt;dir_6461cf5290df6a95e69a46be8b2326db -->
<g id="edge12" class="edge">
<title>dir_2dd932fc5c4f5b62276988dfe28c2718&#45;&gt;dir_6461cf5290df6a95e69a46be8b2326db</title>
<path fill="none" stroke="black" d="M320.57,-167.79C322.52,-148.98 323.12,-118.52 311,-96 303.62,-82.29 291.02,-70.97 278.65,-62.37"/>
<polygon fill="black" stroke="black" points="280.48,-59.38 270.19,-56.85 276.65,-65.24 280.48,-59.38"/>
<g id="a_edge12&#45;headlabel"><a xlink:href="dir_000013_000006.html" target="_top" xlink:title="1">
<text text-anchor="middle" x="285.04" y="-56.47" font-family="Helvetica,sans-Serif" font-size="10.00">1</text>
</a>
</g>
</g>
<!-- dir_bc207b629cecfa3c79a9cf5cbcc913a7 -->
<g id="node9" class="node">
<title>dir_bc207b629cecfa3c79a9cf5cbcc913a7</title>
<g id="a_node9"><a xlink:href="dir_bc207b629cecfa3c79a9cf5cbcc913a7.html" target="_top" xlink:title="Light">
<polygon fill="white" stroke="black" points="270,-204 216,-204 216,-168 270,-168 270,-204"/>
<text text-anchor="middle" x="243" y="-183.5" font-family="Helvetica,sans-Serif" font-size="10.00">Light</text>
</a>
</g>
</g>
<!-- dir_bc207b629cecfa3c79a9cf5cbcc913a7&#45;&gt;dir_2df94ed6ef9db741bde0bb2b5d769537 -->
<g id="edge1" class="edge">
<title>dir_bc207b629cecfa3c79a9cf5cbcc913a7&#45;&gt;dir_2df94ed6ef9db741bde0bb2b5d769537</title>
<path fill="none" stroke="black" d="M231.13,-167.7C225.5,-159.47 218.65,-149.48 212.43,-140.42"/>
<polygon fill="black" stroke="black" points="215.27,-138.37 206.73,-132.1 209.5,-142.33 215.27,-138.37"/>
<g id="a_edge1&#45;headlabel"><a xlink:href="dir_000015_000005.html" target="_top" xlink:title="2">
<text text-anchor="middle" x="219.65" y="-137.23" font-family="Helvetica,sans-Serif" font-size="10.00">2</text>
</a>
</g>
</g>
<!-- dir_2df94ed6ef9db741bde0bb2b5d769537&#45;&gt;dir_38bf7f35d8fb44d8d23d70926bbee9d1 -->
<g id="edge19" class="edge">
<title>dir_2df94ed6ef9db741bde0bb2b5d769537&#45;&gt;dir_38bf7f35d8fb44d8d23d70926bbee9d1</title>
<path fill="none" stroke="black" d="M222.02,-100.43C225.37,-98.92 228.76,-97.41 232,-96 262.91,-82.56 298.35,-68.06 324.25,-57.63"/>
<polygon fill="black" stroke="black" points="325.71,-60.82 333.68,-53.85 323.1,-54.32 325.71,-60.82"/>
<g id="a_edge19&#45;headlabel"><a xlink:href="dir_000005_000008.html" target="_top" xlink:title="1">
<text text-anchor="middle" x="323.43" y="-62.29" font-family="Helvetica,sans-Serif" font-size="10.00">1</text>
</a>
</g>
</g>
<!-- dir_2df94ed6ef9db741bde0bb2b5d769537&#45;&gt;dir_242c69f8aa6c0b27ad66788f5b769271 -->
<g id="edge18" class="edge">
<title>dir_2df94ed6ef9db741bde0bb2b5d769537&#45;&gt;dir_242c69f8aa6c0b27ad66788f5b769271</title>
<path fill="none" stroke="black" d="M200.86,-132.3C203.08,-150.93 204.88,-180.98 216,-204 221.05,-214.46 228.95,-224.17 236.63,-232.35"/>
<polygon fill="black" stroke="black" points="234.33,-235.01 243.83,-239.7 239.33,-230.11 234.33,-235.01"/>
<g id="a_edge18&#45;headlabel"><a xlink:href="dir_000005_000017.html" target="_top" xlink:title="1">
<text text-anchor="middle" x="229.79" y="-231.93" font-family="Helvetica,sans-Serif" font-size="10.00">1</text>
</a>
</g>
</g>
<!-- dir_2df94ed6ef9db741bde0bb2b5d769537&#45;&gt;dir_ff137d22f21ebfd8b3f4b25121363126 -->
<g id="edge16" class="edge">
<title>dir_2df94ed6ef9db741bde0bb2b5d769537&#45;&gt;dir_ff137d22f21ebfd8b3f4b25121363126</title>
<path fill="none" stroke="black" d="M167.91,-99.83C145.23,-88.81 112.64,-72.97 87.63,-60.81"/>
<polygon fill="black" stroke="black" points="88.98,-57.57 78.45,-56.35 85.92,-63.87 88.98,-57.57"/>
<g id="a_edge16&#45;headlabel"><a xlink:href="dir_000005_000020.html" target="_top" xlink:title="2">
<text text-anchor="middle" x="93.45" y="-54.09" font-family="Helvetica,sans-Serif" font-size="10.00">2</text>
</a>
</g>
</g>
<!-- dir_2df94ed6ef9db741bde0bb2b5d769537&#45;&gt;dir_6461cf5290df6a95e69a46be8b2326db -->
<g id="edge17" class="edge">
<title>dir_2df94ed6ef9db741bde0bb2b5d769537&#45;&gt;dir_6461cf5290df6a95e69a46be8b2326db</title>
<path fill="none" stroke="black" d="M206.87,-95.7C212.5,-87.47 219.35,-77.48 225.57,-68.42"/>
<polygon fill="black" stroke="black" points="228.5,-70.33 231.27,-60.1 222.73,-66.37 228.5,-70.33"/>
<g id="a_edge17&#45;headlabel"><a xlink:href="dir_000005_000006.html" target="_top" xlink:title="1">
<text text-anchor="middle" x="228.81" y="-72.4" font-family="Helvetica,sans-Serif" font-size="10.00">1</text>
</a>
</g>
</g>
<!-- dir_242c69f8aa6c0b27ad66788f5b769271&#45;&gt;dir_d15e7af35e2750da09bd940611b2a2e2 -->
<g id="edge21" class="edge">
<title>dir_242c69f8aa6c0b27ad66788f5b769271&#45;&gt;dir_d15e7af35e2750da09bd940611b2a2e2</title>
<path fill="none" stroke="black" d="M279.03,-276.01C308.93,-306.56 355.91,-372 326,-420 309.89,-445.86 277.07,-459.45 250.16,-466.37"/>
<polygon fill="black" stroke="black" points="249.12,-463.02 240.18,-468.7 250.71,-469.83 249.12,-463.02"/>
<g id="a_edge21&#45;headlabel"><a xlink:href="dir_000017_000007.html" target="_top" xlink:title="6">
<text text-anchor="middle" x="251.97" y="-456.93" font-family="Helvetica,sans-Serif" font-size="10.00">6</text>
</a>
</g>
</g>
<!-- dir_242c69f8aa6c0b27ad66788f5b769271&#45;&gt;dir_738e93b4b72767cbed3fd0527471f516 -->
<g id="edge23" class="edge">
<title>dir_242c69f8aa6c0b27ad66788f5b769271&#45;&gt;dir_738e93b4b72767cbed3fd0527471f516</title>
<path fill="none" stroke="black" d="M260.78,-276.19C264.71,-300.42 271.91,-344.89 276.57,-373.68"/>
<polygon fill="black" stroke="black" points="273.17,-374.56 278.23,-383.87 280.08,-373.44 273.17,-374.56"/>
<g id="a_edge23&#45;headlabel"><a xlink:href="dir_000017_000004.html" target="_top" xlink:title="2">
<text text-anchor="middle" x="269.79" y="-368.97" font-family="Helvetica,sans-Serif" font-size="10.00">2</text>
</a>
</g>
</g>
<!-- dir_242c69f8aa6c0b27ad66788f5b769271&#45;&gt;dir_ec623ab5e31cd0d896091bc495e4e063 -->
<g id="edge26" class="edge">
<title>dir_242c69f8aa6c0b27ad66788f5b769271&#45;&gt;dir_ec623ab5e31cd0d896091bc495e4e063</title>
<path fill="none" stroke="black" d="M240.65,-276.13C228.77,-285.61 212.78,-297.49 198.34,-307.59"/>
<polygon fill="black" stroke="black" points="196.31,-304.73 190.06,-313.29 200.28,-310.5 196.31,-304.73"/>
<g id="a_edge26&#45;headlabel"><a xlink:href="dir_000017_000011.html" target="_top" xlink:title="6">
<text text-anchor="middle" x="197.66" y="-297.86" font-family="Helvetica,sans-Serif" font-size="10.00">6</text>
</a>
</g>
</g>
<!-- dir_242c69f8aa6c0b27ad66788f5b769271&#45;&gt;dir_38bf7f35d8fb44d8d23d70926bbee9d1 -->
<g id="edge25" class="edge">
<title>dir_242c69f8aa6c0b27ad66788f5b769271&#45;&gt;dir_38bf7f35d8fb44d8d23d70926bbee9d1</title>
<path fill="none" stroke="black" d="M288.39,-249.63C311.56,-242.25 341.97,-228.4 357,-204 382.27,-162.97 375.33,-104.21 368.09,-70.2"/>
<polygon fill="black" stroke="black" points="371.42,-69.04 365.77,-60.07 364.6,-70.6 371.42,-69.04"/>
<g id="a_edge25&#45;headlabel"><a xlink:href="dir_000017_000008.html" target="_top" xlink:title="1">
<text text-anchor="middle" x="374.99" y="-69.41" font-family="Helvetica,sans-Serif" font-size="10.00">1</text>
</a>
</g>
</g>
<!-- dir_242c69f8aa6c0b27ad66788f5b769271&#45;&gt;dir_2dd932fc5c4f5b62276988dfe28c2718 -->
<g id="edge22" class="edge">
<title>dir_242c69f8aa6c0b27ad66788f5b769271&#45;&gt;dir_2dd932fc5c4f5b62276988dfe28c2718</title>
<path fill="none" stroke="black" d="M272.83,-239.7C280.02,-231.3 288.8,-221.07 296.69,-211.86"/>
<polygon fill="black" stroke="black" points="299.49,-213.97 303.34,-204.1 294.17,-209.42 299.49,-213.97"/>
<g id="a_edge22&#45;headlabel"><a xlink:href="dir_000017_000013.html" target="_top" xlink:title="1">
<text text-anchor="middle" x="299.31" y="-216.05" font-family="Helvetica,sans-Serif" font-size="10.00">1</text>
</a>
</g>
</g>
<!-- dir_242c69f8aa6c0b27ad66788f5b769271&#45;&gt;dir_d63d35ee3bc125de0bc618dc0756060c -->
<g id="edge27" class="edge">
<title>dir_242c69f8aa6c0b27ad66788f5b769271&#45;&gt;dir_d63d35ee3bc125de0bc618dc0756060c</title>
<path fill="none" stroke="black" d="M231.82,-239.88C217.96,-230.81 200.76,-219.55 185.79,-209.76"/>
<polygon fill="black" stroke="black" points="187.56,-206.74 177.28,-204.19 183.73,-212.59 187.56,-206.74"/>
<g id="a_edge27&#45;headlabel"><a xlink:href="dir_000017_000014.html" target="_top" xlink:title="1">
<text text-anchor="middle" x="192.12" y="-203.83" font-family="Helvetica,sans-Serif" font-size="10.00">1</text>
</a>
</g>
</g>
<!-- dir_242c69f8aa6c0b27ad66788f5b769271&#45;&gt;dir_bc207b629cecfa3c79a9cf5cbcc913a7 -->
<g id="edge20" class="edge">
<title>dir_242c69f8aa6c0b27ad66788f5b769271&#45;&gt;dir_bc207b629cecfa3c79a9cf5cbcc913a7</title>
<path fill="none" stroke="black" d="M254.29,-239.7C252.64,-231.98 250.65,-222.71 248.81,-214.11"/>
<polygon fill="black" stroke="black" points="252.18,-213.15 246.67,-204.1 245.34,-214.62 252.18,-213.15"/>
<g id="a_edge20&#45;headlabel"><a xlink:href="dir_000017_000015.html" target="_top" xlink:title="4">
<text text-anchor="middle" x="255.71" y="-213.57" font-family="Helvetica,sans-Serif" font-size="10.00">4</text>
</a>
</g>
</g>
<!-- dir_242c69f8aa6c0b27ad66788f5b769271&#45;&gt;dir_2df94ed6ef9db741bde0bb2b5d769537 -->
<g id="edge24" class="edge">
<title>dir_242c69f8aa6c0b27ad66788f5b769271&#45;&gt;dir_2df94ed6ef9db741bde0bb2b5d769537</title>
<path fill="none" stroke="black" d="M227.97,-239.94C216.48,-230.51 204.72,-217.91 198,-204 188.7,-184.75 185.92,-160.6 186.73,-142.31"/>
<polygon fill="black" stroke="black" points="190.22,-142.57 187.59,-132.3 183.24,-141.96 190.22,-142.57"/>
<g id="a_edge24&#45;headlabel"><a xlink:href="dir_000017_000005.html" target="_top" xlink:title="1">
<text text-anchor="middle" x="192.73" y="-143.89" font-family="Helvetica,sans-Serif" font-size="10.00">1</text>
</a>
</g>
</g>
<!-- dir_8e35ed01eab1d27beb891e08b0498c56 -->
<g id="node13" class="node">
<title>dir_8e35ed01eab1d27beb891e08b0498c56</title>
<g id="a_node13"><a xlink:href="dir_8e35ed01eab1d27beb891e08b0498c56.html" target="_top" xlink:title="RenderTargets">
<polygon fill="white" stroke="black" points="144,-420 64,-420 64,-384 144,-384 144,-420"/>
<text text-anchor="middle" x="104" y="-399.5" font-family="Helvetica,sans-Serif" font-size="10.00">RenderTargets</text>
</a>
</g>
</g>
<!-- dir_8e35ed01eab1d27beb891e08b0498c56&#45;&gt;dir_ec623ab5e31cd0d896091bc495e4e063 -->
<g id="edge4" class="edge">
<title>dir_8e35ed01eab1d27beb891e08b0498c56&#45;&gt;dir_ec623ab5e31cd0d896091bc495e4e063</title>
<path fill="none" stroke="black" d="M118.58,-383.7C125.66,-375.3 134.28,-365.07 142.05,-355.86"/>
<polygon fill="black" stroke="black" points="144.81,-358.01 148.58,-348.1 139.46,-353.49 144.81,-358.01"/>
<g id="a_edge4&#45;headlabel"><a xlink:href="dir_000019_000011.html" target="_top" xlink:title="2">
<text text-anchor="middle" x="144.67" y="-360.08" font-family="Helvetica,sans-Serif" font-size="10.00">2</text>
</a>
</g>
</g>
<!-- dir_8e35ed01eab1d27beb891e08b0498c56&#45;&gt;dir_2df94ed6ef9db741bde0bb2b5d769537 -->
<g id="edge3" class="edge">
<title>dir_8e35ed01eab1d27beb891e08b0498c56&#45;&gt;dir_2df94ed6ef9db741bde0bb2b5d769537</title>
<path fill="none" stroke="black" d="M97.98,-383.97C84.72,-343.28 57.36,-238.56 99,-168 111.75,-146.39 136.83,-132.98 158.15,-125.06"/>
<polygon fill="black" stroke="black" points="159.31,-128.36 167.62,-121.8 157.03,-121.74 159.31,-128.36"/>
<g id="a_edge3&#45;headlabel"><a xlink:href="dir_000019_000005.html" target="_top" xlink:title="1">
<text text-anchor="middle" x="156.84" y="-129.72" font-family="Helvetica,sans-Serif" font-size="10.00">1</text>
</a>
</g>
</g>
<!-- dir_8e35ed01eab1d27beb891e08b0498c56&#45;&gt;dir_ff137d22f21ebfd8b3f4b25121363126 -->
<g id="edge2" class="edge">
<title>dir_8e35ed01eab1d27beb891e08b0498c56&#45;&gt;dir_ff137d22f21ebfd8b3f4b25121363126</title>
<path fill="none" stroke="black" d="M92.95,-383.56C87.17,-373.55 80.57,-360.51 77,-348 48.68,-248.8 48.36,-124.66 49.86,-70.45"/>
<polygon fill="black" stroke="black" points="53.36,-70.38 50.19,-60.28 46.37,-70.16 53.36,-70.38"/>
<g id="a_edge2&#45;headlabel"><a xlink:href="dir_000019_000020.html" target="_top" xlink:title="2">
<text text-anchor="middle" x="56.09" y="-71.57" font-family="Helvetica,sans-Serif" font-size="10.00">2</text>
</a>
</g>
</g>
</g>
</svg>
