<?xml version="1.0" encoding="UTF-8" standalone="no"?>
<!DOCTYPE svg PUBLIC "-//W3C//DTD SVG 1.1//EN"
 "http://www.w3.org/Graphics/SVG/1.1/DTD/svg11.dtd">
<!-- Generated by graphviz version 2.40.1 (20161225.0304)
 -->
<!-- Title: kryne&#45;engine/include/kryne&#45;engine/Camera Pages: 1 -->
<svg width="151pt" height="151pt"
 viewBox="0.00 0.00 151.00 151.00" xmlns="http://www.w3.org/2000/svg" xmlns:xlink="http://www.w3.org/1999/xlink">
<g id="graph0" class="graph" transform="scale(1 1) rotate(0) translate(4 147)">
<title>kryne&#45;engine/include/kryne&#45;engine/Camera</title>
<polygon fill="#ffffff" stroke="transparent" points="-4,4 -4,-147 147,-147 147,4 -4,4"/>
<g id="clust1" class="cluster">
<title>clusterdir_6f1e06805bf6fd443f4521a944e15946</title>
<g id="a_clust1"><a xlink:href="dir_6f1e06805bf6fd443f4521a944e15946.html" target="_top" xlink:title="kryne&#45;engine">
<polygon fill="#ddddee" stroke="#000000" points="8,-64 8,-135 80,-135 80,-64 8,-64"/>
<text text-anchor="middle" x="44" y="-123" font-family="Helvetica,sans-Serif" font-size="10.00" fill="#000000">kryne&#45;engine</text>
</a>
</g>
</g>
<!-- dir_738e93b4b72767cbed3fd0527471f516 -->
<g id="node1" class="node">
<title>dir_738e93b4b72767cbed3fd0527471f516</title>
<g id="a_node1"><a xlink:href="dir_738e93b4b72767cbed3fd0527471f516.html" target="_top" xlink:title="Camera">
<polygon fill="#eeeeff" stroke="#000000" points="71,-108 17,-108 17,-72 71,-72 71,-108"/>
<text text-anchor="middle" x="44" y="-87.5" font-family="Helvetica,sans-Serif" font-size="10.00" fill="#000000">Camera</text>
</a>
</g>
</g>
<!-- dir_ec623ab5e31cd0d896091bc495e4e063 -->
<g id="node2" class="node">
<title>dir_ec623ab5e31cd0d896091bc495e4e063</title>
<g id="a_node2"><a xlink:href="dir_ec623ab5e31cd0d896091bc495e4e063.html" target="_top" xlink:title="Core">
<polygon fill="#ffffff" stroke="#ff0000" points="143,-108 89,-108 89,-72 143,-72 143,-108"/>
<text text-anchor="middle" x="116" y="-87.5" font-family="Helvetica,sans-Serif" font-size="10.00" fill="#000000">Core</text>
</a>
</g>
</g>
<!-- dir_738e93b4b72767cbed3fd0527471f516&#45;&gt;dir_ec623ab5e31cd0d896091bc495e4e063 -->
<g id="edge1" class="edge">
<title>dir_738e93b4b72767cbed3fd0527471f516&#45;&gt;dir_ec623ab5e31cd0d896091bc495e4e063</title>
<path fill="none" stroke="#000000" d="M71.2813,-90C73.7377,-90 76.1942,-90 78.6507,-90"/>
<polygon fill="#000000" stroke="#000000" points="78.7495,-93.5001 88.7495,-90 78.7495,-86.5001 78.7495,-93.5001"/>
<g id="a_edge1&#45;headlabel"><a xlink:href="dir_000009_000016.html" target="_top" xlink:title="3">
<text text-anchor="middle" x="75.1549" y="-93.8393" font-family="Helvetica,sans-Serif" font-size="10.00" fill="#000000">3</text>
</a>
</g>
</g>
<!-- dir_d63d35ee3bc125de0bc618dc0756060c -->
<g id="node3" class="node">
<title>dir_d63d35ee3bc125de0bc618dc0756060c</title>
<g id="a_node3"><a xlink:href="dir_d63d35ee3bc125de0bc618dc0756060c.html" target="_top" xlink:title="Input">
<polygon fill="none" stroke="#000000" points="107,-36 53,-36 53,0 107,0 107,-36"/>
<text text-anchor="middle" x="80" y="-15.5" font-family="Helvetica,sans-Serif" font-size="10.00" fill="#000000">Input</text>
</a>
</g>
</g>
<!-- dir_738e93b4b72767cbed3fd0527471f516&#45;&gt;dir_d63d35ee3bc125de0bc618dc0756060c -->
<g id="edge2" class="edge">
<title>dir_738e93b4b72767cbed3fd0527471f516&#45;&gt;dir_d63d35ee3bc125de0bc618dc0756060c</title>
<path fill="none" stroke="#000000" d="M53.0843,-71.8314C57.0615,-63.8771 61.8155,-54.369 66.2139,-45.5723"/>
<polygon fill="#000000" stroke="#000000" points="69.4517,-46.9228 70.7934,-36.4133 63.1907,-43.7923 69.4517,-46.9228"/>
<g id="a_edge2&#45;headlabel"><a xlink:href="dir_000009_000020.html" target="_top" xlink:title="1">
<text text-anchor="middle" x="70.3837" y="-48.9077" font-family="Helvetica,sans-Serif" font-size="10.00" fill="#000000">1</text>
</a>
</g>
</g>
<!-- dir_ec623ab5e31cd0d896091bc495e4e063&#45;&gt;dir_738e93b4b72767cbed3fd0527471f516 -->
<g id="edge3" class="edge">
<title>dir_ec623ab5e31cd0d896091bc495e4e063&#45;&gt;dir_738e93b4b72767cbed3fd0527471f516</title>
<path fill="none" stroke="#000000" d="M88.7495,-90C86.293,-90 83.8366,-90 81.3801,-90"/>
<polygon fill="#000000" stroke="#000000" points="81.2813,-86.5001 71.2813,-90 81.2812,-93.5001 81.2813,-86.5001"/>
<g id="a_edge3&#45;headlabel"><a xlink:href="dir_000016_000009.html" target="_top" xlink:title="2">
<text text-anchor="middle" x="84.8759" y="-81.1607" font-family="Helvetica,sans-Serif" font-size="10.00" fill="#000000">2</text>
</a>
</g>
</g>
<!-- dir_ec623ab5e31cd0d896091bc495e4e063&#45;&gt;dir_d63d35ee3bc125de0bc618dc0756060c -->
<g id="edge4" class="edge">
<title>dir_ec623ab5e31cd0d896091bc495e4e063&#45;&gt;dir_d63d35ee3bc125de0bc618dc0756060c</title>
<path fill="none" stroke="#000000" d="M106.9157,-71.8314C102.9385,-63.8771 98.1845,-54.369 93.7861,-45.5723"/>
<polygon fill="#000000" stroke="#000000" points="96.8093,-43.7923 89.2066,-36.4133 90.5483,-46.9228 96.8093,-43.7923"/>
<g id="a_edge4&#45;headlabel"><a xlink:href="dir_000016_000020.html" target="_top" xlink:title="1">
<text text-anchor="middle" x="100.9563" y="-43.2377" font-family="Helvetica,sans-Serif" font-size="10.00" fill="#000000">1</text>
</a>
</g>
</g>
</g>
</svg>
