<?xml version="1.0" encoding="UTF-8" standalone="no"?>
<!DOCTYPE svg PUBLIC "-//W3C//DTD SVG 1.1//EN"
 "http://www.w3.org/Graphics/SVG/1.1/DTD/svg11.dtd">
<!-- Generated by graphviz version 2.44.1 (20200629.0846)
 -->
<!-- Title: kryne&#45;engine/src/Rendering Pages: 1 -->
<svg width="222pt" height="159pt"
 viewBox="0.00 0.00 222.00 159.00" xmlns="http://www.w3.org/2000/svg" xmlns:xlink="http://www.w3.org/1999/xlink">
<g id="graph0" class="graph" transform="scale(1 1) rotate(0) translate(4 155)">
<title>kryne&#45;engine/src/Rendering</title>
<polygon fill="white" stroke="transparent" points="-4,4 -4,-155 218,-155 218,4 -4,4"/>
<g id="clust1" class="cluster">
<title>clusterdir_e64d8accee669ac6c3524e778fb34887</title>
<g id="a_clust1"><a xlink:href="dir_e64d8accee669ac6c3524e778fb34887.html" target="_top" xlink:title="src">
<polygon fill="#ddddee" stroke="black" points="8,-56 8,-143 206,-143 206,-56 8,-56"/>
<text text-anchor="middle" x="107" y="-131" font-family="Helvetica,sans-Serif" font-size="10.00">src</text>
</a>
</g>
</g>
<g id="clust2" class="cluster">
<title>clusterdir_8b929e06e38a05ae31148eaa49097c9f</title>
<g id="a_clust2"><a xlink:href="dir_8b929e06e38a05ae31148eaa49097c9f.html" target="_top">
<polygon fill="#eeeeff" stroke="black" points="16,-64 16,-116 198,-116 198,-64 16,-64"/>
</a>
</g>
</g>
<!-- dir_8b929e06e38a05ae31148eaa49097c9f -->
<g id="node1" class="node">
<title>dir_8b929e06e38a05ae31148eaa49097c9f</title>
<text text-anchor="middle" x="160" y="-87.5" font-family="Helvetica,sans-Serif" font-size="10.00">Rendering</text>
</g>
<!-- dir_6fe37ccbf5e97356f3116a77abbef924 -->
<g id="node3" class="node">
<title>dir_6fe37ccbf5e97356f3116a77abbef924</title>
<g id="a_node3"><a xlink:href="dir_6fe37ccbf5e97356f3116a77abbef924.html" target="_top" xlink:title="include">
<polygon fill="white" stroke="red" points="141,-36 87,-36 87,0 141,0 141,-36"/>
<text text-anchor="middle" x="114" y="-15.5" font-family="Helvetica,sans-Serif" font-size="10.00">include</text>
</a>
</g>
</g>
<!-- dir_8b929e06e38a05ae31148eaa49097c9f&#45;&gt;dir_6fe37ccbf5e97356f3116a77abbef924 -->
<g id="edge1" class="edge">
<title>dir_8b929e06e38a05ae31148eaa49097c9f&#45;&gt;dir_6fe37ccbf5e97356f3116a77abbef924</title>
<path fill="none" stroke="black" d="M148.63,-71.7C143.28,-63.56 136.8,-53.69 130.89,-44.7"/>
<polygon fill="black" stroke="black" points="133.66,-42.54 125.24,-36.1 127.81,-46.38 133.66,-42.54"/>
<g id="a_edge1&#45;headlabel"><a xlink:href="dir_000031_000001.html" target="_top" xlink:title="8">
<text text-anchor="middle" x="138" y="-41.48" font-family="Helvetica,sans-Serif" font-size="10.00">8</text>
</a>
</g>
</g>
<!-- dir_04c31614ba3d0f6a2eea0fd6d2d7aa64 -->
<g id="node2" class="node">
<title>dir_04c31614ba3d0f6a2eea0fd6d2d7aa64</title>
<g id="a_node2"><a xlink:href="dir_04c31614ba3d0f6a2eea0fd6d2d7aa64.html" target="_top" xlink:title="ShadowMapping">
<polygon fill="white" stroke="black" points="112,-108 24,-108 24,-72 112,-72 112,-108"/>
<text text-anchor="middle" x="68" y="-87.5" font-family="Helvetica,sans-Serif" font-size="10.00">ShadowMapping</text>
</a>
</g>
</g>
<!-- dir_04c31614ba3d0f6a2eea0fd6d2d7aa64&#45;&gt;dir_6fe37ccbf5e97356f3116a77abbef924 -->
<g id="edge2" class="edge">
<title>dir_04c31614ba3d0f6a2eea0fd6d2d7aa64&#45;&gt;dir_6fe37ccbf5e97356f3116a77abbef924</title>
<path fill="none" stroke="black" d="M79.37,-71.7C84.72,-63.56 91.2,-53.69 97.11,-44.7"/>
<polygon fill="black" stroke="black" points="100.19,-46.38 102.76,-36.1 94.34,-42.54 100.19,-46.38"/>
<g id="a_edge2&#45;headlabel"><a xlink:href="dir_000032_000001.html" target="_top" xlink:title="2">
<text text-anchor="middle" x="100.59" y="-48.45" font-family="Helvetica,sans-Serif" font-size="10.00">2</text>
</a>
</g>
</g>
</g>
</svg>
