<?xml version="1.0" encoding="UTF-8" standalone="no"?>
<!DOCTYPE svg PUBLIC "-//W3C//DTD SVG 1.1//EN"
 "http://www.w3.org/Graphics/SVG/1.1/DTD/svg11.dtd">
<!-- Generated by graphviz version 2.44.1 (20200629.0846)
 -->
<!-- Title: kryne&#45;engine/include/kryne&#45;engine/Core Pages: 1 -->
<svg width="188pt" height="188pt"
 viewBox="0.00 0.00 188.00 188.00" xmlns="http://www.w3.org/2000/svg" xmlns:xlink="http://www.w3.org/1999/xlink">
<g id="graph0" class="graph" transform="scale(1 1) rotate(0) translate(4 184)">
<title>kryne&#45;engine/include/kryne&#45;engine/Core</title>
<polygon fill="white" stroke="transparent" points="-4,4 -4,-184 184,-184 184,4 -4,4"/>
<g id="clust1" class="cluster">
<title>clusterdir_6f1e06805bf6fd443f4521a944e15946</title>
<g id="a_clust1"><a xlink:href="dir_6f1e06805bf6fd443f4521a944e15946.html" target="_top" xlink:title="kryne&#45;engine">
<polygon fill="#ddddee" stroke="black" points="100,-64 100,-135 172,-135 172,-64 100,-64"/>
<text text-anchor="middle" x="136" y="-123" font-family="Helvetica,sans-Serif" font-size="10.00">kryne&#45;engine</text>
</a>
</g>
</g>
<!-- dir_ec623ab5e31cd0d896091bc495e4e063 -->
<g id="node1" class="node">
<title>dir_ec623ab5e31cd0d896091bc495e4e063</title>
<g id="a_node1"><a xlink:href="dir_ec623ab5e31cd0d896091bc495e4e063.html" target="_top" xlink:title="Core">
<polygon fill="#eeeeff" stroke="black" points="163,-108 109,-108 109,-72 163,-72 163,-108"/>
<text text-anchor="middle" x="136" y="-87.5" font-family="Helvetica,sans-Serif" font-size="10.00">Core</text>
</a>
</g>
</g>
<!-- dir_d15e7af35e2750da09bd940611b2a2e2 -->
<g id="node2" class="node">
<title>dir_d15e7af35e2750da09bd940611b2a2e2</title>
<g id="a_node2"><a xlink:href="dir_d15e7af35e2750da09bd940611b2a2e2.html" target="_top" xlink:title="3DObjects">
<polygon fill="white" stroke="red" points="92,-180 30,-180 30,-144 92,-144 92,-180"/>
<text text-anchor="middle" x="61" y="-159.5" font-family="Helvetica,sans-Serif" font-size="10.00">3DObjects</text>
</a>
</g>
</g>
<!-- dir_ec623ab5e31cd0d896091bc495e4e063&#45;&gt;dir_d15e7af35e2750da09bd940611b2a2e2 -->
<g id="edge9" class="edge">
<title>dir_ec623ab5e31cd0d896091bc495e4e063&#45;&gt;dir_d15e7af35e2750da09bd940611b2a2e2</title>
<path fill="none" stroke="black" d="M115.67,-108.32C108.23,-116.88 99.77,-127.04 91,-135 90.05,-135.86 89.07,-136.71 88.07,-137.56"/>
<polygon fill="black" stroke="black" points="85.83,-134.86 80.13,-143.79 90.16,-140.37 85.83,-134.86"/>
<g id="a_edge9&#45;headlabel"><a xlink:href="dir_000011_000007.html" target="_top" xlink:title="1">
<text text-anchor="middle" x="86.91" y="-127.91" font-family="Helvetica,sans-Serif" font-size="10.00">1</text>
</a>
</g>
</g>
<!-- dir_738e93b4b72767cbed3fd0527471f516 -->
<g id="node3" class="node">
<title>dir_738e93b4b72767cbed3fd0527471f516</title>
<g id="a_node3"><a xlink:href="dir_738e93b4b72767cbed3fd0527471f516.html" target="_top" xlink:title="Camera">
<polygon fill="none" stroke="black" points="54,-36 0,-36 0,0 54,0 54,-36"/>
<text text-anchor="middle" x="27" y="-15.5" font-family="Helvetica,sans-Serif" font-size="10.00">Camera</text>
</a>
</g>
</g>
<!-- dir_ec623ab5e31cd0d896091bc495e4e063&#45;&gt;dir_738e93b4b72767cbed3fd0527471f516 -->
<g id="edge10" class="edge">
<title>dir_ec623ab5e31cd0d896091bc495e4e063&#45;&gt;dir_738e93b4b72767cbed3fd0527471f516</title>
<path fill="none" stroke="black" d="M108.84,-75.83C102.88,-71.95 96.73,-67.75 91,-64 79.6,-56.54 67.02,-48.66 55.97,-41.61"/>
<polygon fill="black" stroke="black" points="57.8,-38.63 47.49,-36.17 54.01,-44.52 57.8,-38.63"/>
<g id="a_edge10&#45;headlabel"><a xlink:href="dir_000011_000004.html" target="_top" xlink:title="2">
<text text-anchor="middle" x="62.36" y="-35.68" font-family="Helvetica,sans-Serif" font-size="10.00">2</text>
</a>
</g>
</g>
<!-- dir_242c69f8aa6c0b27ad66788f5b769271 -->
<g id="node4" class="node">
<title>dir_242c69f8aa6c0b27ad66788f5b769271</title>
<g id="a_node4"><a xlink:href="dir_242c69f8aa6c0b27ad66788f5b769271.html" target="_top" xlink:title="Rendering">
<polygon fill="white" stroke="red" points="91,-108 31,-108 31,-72 91,-72 91,-108"/>
<text text-anchor="middle" x="61" y="-87.5" font-family="Helvetica,sans-Serif" font-size="10.00">Rendering</text>
</a>
</g>
</g>
<!-- dir_ec623ab5e31cd0d896091bc495e4e063&#45;&gt;dir_242c69f8aa6c0b27ad66788f5b769271 -->
<g id="edge11" class="edge">
<title>dir_ec623ab5e31cd0d896091bc495e4e063&#45;&gt;dir_242c69f8aa6c0b27ad66788f5b769271</title>
<path fill="none" stroke="black" d="M108.69,-90C106.22,-90 103.76,-90 101.3,-90"/>
<polygon fill="black" stroke="black" points="101.18,-86.5 91.18,-90 101.18,-93.5 101.18,-86.5"/>
<g id="a_edge11&#45;headlabel"><a xlink:href="dir_000011_000016.html" target="_top" xlink:title="1">
<text text-anchor="middle" x="104.77" y="-81.16" font-family="Helvetica,sans-Serif" font-size="10.00">1</text>
</a>
</g>
</g>
<!-- dir_f382c466c9934bb821718b5297ce6904 -->
<g id="node5" class="node">
<title>dir_f382c466c9934bb821718b5297ce6904</title>
<g id="a_node5"><a xlink:href="dir_f382c466c9934bb821718b5297ce6904.html" target="_top" xlink:title="Constants">
<polygon fill="none" stroke="black" points="166.5,-36 105.5,-36 105.5,0 166.5,0 166.5,-36"/>
<text text-anchor="middle" x="136" y="-15.5" font-family="Helvetica,sans-Serif" font-size="10.00">Constants</text>
</a>
</g>
</g>
<!-- dir_ec623ab5e31cd0d896091bc495e4e063&#45;&gt;dir_f382c466c9934bb821718b5297ce6904 -->
<g id="edge12" class="edge">
<title>dir_ec623ab5e31cd0d896091bc495e4e063&#45;&gt;dir_f382c466c9934bb821718b5297ce6904</title>
<path fill="none" stroke="black" d="M136,-71.7C136,-63.98 136,-54.71 136,-46.11"/>
<polygon fill="black" stroke="black" points="139.5,-46.1 136,-36.1 132.5,-46.1 139.5,-46.1"/>
<g id="a_edge12&#45;headlabel"><a xlink:href="dir_000011_000010.html" target="_top" xlink:title="1">
<text text-anchor="middle" x="142.34" y="-47.2" font-family="Helvetica,sans-Serif" font-size="10.00">1</text>
</a>
</g>
</g>
<!-- dir_d15e7af35e2750da09bd940611b2a2e2&#45;&gt;dir_ec623ab5e31cd0d896091bc495e4e063 -->
<g id="edge3" class="edge">
<title>dir_d15e7af35e2750da09bd940611b2a2e2&#45;&gt;dir_ec623ab5e31cd0d896091bc495e4e063</title>
<path fill="none" stroke="black" d="M92.41,-147.51C98.28,-143.76 104.06,-139.48 109,-135 115.03,-129.53 120.92,-123.02 125.82,-116.7"/>
<polygon fill="black" stroke="black" points="128.84,-118.49 131.82,-108.32 123.15,-114.42 128.84,-118.49"/>
<g id="a_edge3&#45;headlabel"><a xlink:href="dir_000007_000011.html" target="_top" xlink:title="7">
<text text-anchor="middle" x="129.05" y="-120.57" font-family="Helvetica,sans-Serif" font-size="10.00">7</text>
</a>
</g>
</g>
<!-- dir_d15e7af35e2750da09bd940611b2a2e2&#45;&gt;dir_738e93b4b72767cbed3fd0527471f516 -->
<g id="edge1" class="edge">
<title>dir_d15e7af35e2750da09bd940611b2a2e2&#45;&gt;dir_738e93b4b72767cbed3fd0527471f516</title>
<path fill="none" stroke="black" d="M29.69,-151.04C22.83,-147.04 16.61,-141.74 13,-135 -1.8,-107.35 3.24,-70.47 11.48,-45.79"/>
<polygon fill="black" stroke="black" points="14.79,-46.93 15.03,-36.34 8.24,-44.47 14.79,-46.93"/>
<g id="a_edge1&#45;headlabel"><a xlink:href="dir_000007_000004.html" target="_top" xlink:title="1">
<text text-anchor="middle" x="16.19" y="-48.79" font-family="Helvetica,sans-Serif" font-size="10.00">1</text>
</a>
</g>
</g>
<!-- dir_d15e7af35e2750da09bd940611b2a2e2&#45;&gt;dir_242c69f8aa6c0b27ad66788f5b769271 -->
<g id="edge2" class="edge">
<title>dir_d15e7af35e2750da09bd940611b2a2e2&#45;&gt;dir_242c69f8aa6c0b27ad66788f5b769271</title>
<path fill="none" stroke="black" d="M55.08,-143.7C54.29,-135.98 54.06,-126.71 54.4,-118.11"/>
<polygon fill="black" stroke="black" points="57.9,-118.32 55.1,-108.1 50.92,-117.84 57.9,-118.32"/>
<g id="a_edge2&#45;headlabel"><a xlink:href="dir_000007_000016.html" target="_top" xlink:title="1">
<text text-anchor="middle" x="60.48" y="-119.61" font-family="Helvetica,sans-Serif" font-size="10.00">1</text>
</a>
</g>
</g>
<!-- dir_738e93b4b72767cbed3fd0527471f516&#45;&gt;dir_ec623ab5e31cd0d896091bc495e4e063 -->
<g id="edge5" class="edge">
<title>dir_738e93b4b72767cbed3fd0527471f516&#45;&gt;dir_ec623ab5e31cd0d896091bc495e4e063</title>
<path fill="none" stroke="black" d="M54.13,-30.75C70.5,-39.66 91.19,-52.34 109,-64 110.07,-64.7 111.16,-65.42 112.26,-66.15"/>
<polygon fill="black" stroke="black" points="110.38,-69.11 120.61,-71.87 114.34,-63.33 110.38,-69.11"/>
<g id="a_edge5&#45;headlabel"><a xlink:href="dir_000004_000011.html" target="_top" xlink:title="1">
<text text-anchor="middle" x="105.81" y="-66.92" font-family="Helvetica,sans-Serif" font-size="10.00">1</text>
</a>
</g>
</g>
<!-- dir_738e93b4b72767cbed3fd0527471f516&#45;&gt;dir_d15e7af35e2750da09bd940611b2a2e2 -->
<g id="edge4" class="edge">
<title>dir_738e93b4b72767cbed3fd0527471f516&#45;&gt;dir_d15e7af35e2750da09bd940611b2a2e2</title>
<path fill="none" stroke="black" d="M27.08,-36.34C23,-60.13 14.16,-103.54 31,-135 31.17,-135.31 31.34,-135.62 31.51,-135.92"/>
<polygon fill="black" stroke="black" points="28.88,-138.23 37.84,-143.88 34.36,-133.87 28.88,-138.23"/>
<g id="a_edge4&#45;headlabel"><a xlink:href="dir_000004_000007.html" target="_top" xlink:title="1">
<text text-anchor="middle" x="24.42" y="-134.68" font-family="Helvetica,sans-Serif" font-size="10.00">1</text>
</a>
</g>
</g>
<!-- dir_242c69f8aa6c0b27ad66788f5b769271&#45;&gt;dir_ec623ab5e31cd0d896091bc495e4e063 -->
<g id="edge8" class="edge">
<title>dir_242c69f8aa6c0b27ad66788f5b769271&#45;&gt;dir_ec623ab5e31cd0d896091bc495e4e063</title>
<path fill="none" stroke="black" d="M91.18,-90C93.64,-90 96.1,-90 98.56,-90"/>
<polygon fill="black" stroke="black" points="98.69,-93.5 108.69,-90 98.69,-86.5 98.69,-93.5"/>
<g id="a_edge8&#45;headlabel"><a xlink:href="dir_000016_000011.html" target="_top" xlink:title="4">
<text text-anchor="middle" x="95.09" y="-93.84" font-family="Helvetica,sans-Serif" font-size="10.00">4</text>
</a>
</g>
</g>
<!-- dir_242c69f8aa6c0b27ad66788f5b769271&#45;&gt;dir_d15e7af35e2750da09bd940611b2a2e2 -->
<g id="edge6" class="edge">
<title>dir_242c69f8aa6c0b27ad66788f5b769271&#45;&gt;dir_d15e7af35e2750da09bd940611b2a2e2</title>
<path fill="none" stroke="black" d="M66.9,-108.1C67.7,-115.79 67.94,-125.05 67.6,-133.67"/>
<polygon fill="black" stroke="black" points="64.11,-133.48 66.92,-143.7 71.09,-133.96 64.11,-133.48"/>
<g id="a_edge6&#45;headlabel"><a xlink:href="dir_000016_000007.html" target="_top" xlink:title="6">
<text text-anchor="middle" x="61.52" y="-127.2" font-family="Helvetica,sans-Serif" font-size="10.00">6</text>
</a>
</g>
</g>
<!-- dir_242c69f8aa6c0b27ad66788f5b769271&#45;&gt;dir_738e93b4b72767cbed3fd0527471f516 -->
<g id="edge7" class="edge">
<title>dir_242c69f8aa6c0b27ad66788f5b769271&#45;&gt;dir_738e93b4b72767cbed3fd0527471f516</title>
<path fill="none" stroke="black" d="M52.6,-71.7C48.73,-63.73 44.05,-54.1 39.76,-45.26"/>
<polygon fill="black" stroke="black" points="42.83,-43.57 35.31,-36.1 36.53,-46.63 42.83,-43.57"/>
<g id="a_edge7&#45;headlabel"><a xlink:href="dir_000016_000004.html" target="_top" xlink:title="2">
<text text-anchor="middle" x="46.95" y="-43.06" font-family="Helvetica,sans-Serif" font-size="10.00">2</text>
</a>
</g>
</g>
</g>
</svg>
