<?xml version="1.0" encoding="UTF-8" standalone="no"?>
<!DOCTYPE svg PUBLIC "-//W3C//DTD SVG 1.1//EN"
 "http://www.w3.org/Graphics/SVG/1.1/DTD/svg11.dtd">
<!-- Generated by graphviz version 2.44.1 (20200629.0846)
 -->
<!-- Title: kryne&#45;engine/src/3DObjects Pages: 1 -->
<svg width="190pt" height="159pt"
 viewBox="0.00 0.00 190.00 159.00" xmlns="http://www.w3.org/2000/svg" xmlns:xlink="http://www.w3.org/1999/xlink">
<g id="graph0" class="graph" transform="scale(1 1) rotate(0) translate(4 155)">
<title>kryne&#45;engine/src/3DObjects</title>
<polygon fill="white" stroke="transparent" points="-4,4 -4,-155 186,-155 186,4 -4,4"/>
<g id="clust1" class="cluster">
<title>clusterdir_e64d8accee669ac6c3524e778fb34887</title>
<g id="a_clust1"><a xlink:href="dir_e64d8accee669ac6c3524e778fb34887.html" target="_top" xlink:title="src">
<polygon fill="#ddddee" stroke="black" points="8,-56 8,-143 174,-143 174,-56 8,-56"/>
<text text-anchor="middle" x="91" y="-131" font-family="Helvetica,sans-Serif" font-size="10.00">src</text>
</a>
</g>
</g>
<g id="clust2" class="cluster">
<title>clusterdir_b74527dd2d49091317248ecc2a492738</title>
<g id="a_clust2"><a xlink:href="dir_b74527dd2d49091317248ecc2a492738.html" target="_top">
<polygon fill="#eeeeff" stroke="black" points="16,-64 16,-116 166,-116 166,-64 16,-64"/>
</a>
</g>
</g>
<!-- dir_b74527dd2d49091317248ecc2a492738 -->
<g id="node1" class="node">
<title>dir_b74527dd2d49091317248ecc2a492738</title>
<text text-anchor="middle" x="127" y="-87.5" font-family="Helvetica,sans-Serif" font-size="10.00">3DObjects</text>
</g>
<!-- dir_6fe37ccbf5e97356f3116a77abbef924 -->
<g id="node3" class="node">
<title>dir_6fe37ccbf5e97356f3116a77abbef924</title>
<g id="a_node3"><a xlink:href="dir_6fe37ccbf5e97356f3116a77abbef924.html" target="_top" xlink:title="include">
<polygon fill="white" stroke="red" points="116,-36 62,-36 62,0 116,0 116,-36"/>
<text text-anchor="middle" x="89" y="-15.5" font-family="Helvetica,sans-Serif" font-size="10.00">include</text>
</a>
</g>
</g>
<!-- dir_b74527dd2d49091317248ecc2a492738&#45;&gt;dir_6fe37ccbf5e97356f3116a77abbef924 -->
<g id="edge2" class="edge">
<title>dir_b74527dd2d49091317248ecc2a492738&#45;&gt;dir_6fe37ccbf5e97356f3116a77abbef924</title>
<path fill="none" stroke="black" d="M117.61,-71.7C113.24,-63.64 107.94,-53.89 103.1,-44.98"/>
<polygon fill="black" stroke="black" points="106.13,-43.22 98.29,-36.1 99.98,-46.56 106.13,-43.22"/>
<g id="a_edge2&#45;headlabel"><a xlink:href="dir_000025_000001.html" target="_top" xlink:title="9">
<text text-anchor="middle" x="110.34" y="-42.53" font-family="Helvetica,sans-Serif" font-size="10.00">9</text>
</a>
</g>
</g>
<!-- dir_e5bab7c4a27d284bf06d89d8768b08b0 -->
<g id="node2" class="node">
<title>dir_e5bab7c4a27d284bf06d89d8768b08b0</title>
<g id="a_node2"><a xlink:href="dir_e5bab7c4a27d284bf06d89d8768b08b0.html" target="_top" xlink:title="Model">
<polygon fill="white" stroke="black" points="78,-108 24,-108 24,-72 78,-72 78,-108"/>
<text text-anchor="middle" x="51" y="-87.5" font-family="Helvetica,sans-Serif" font-size="10.00">Model</text>
</a>
</g>
</g>
<!-- dir_e5bab7c4a27d284bf06d89d8768b08b0&#45;&gt;dir_6fe37ccbf5e97356f3116a77abbef924 -->
<g id="edge1" class="edge">
<title>dir_e5bab7c4a27d284bf06d89d8768b08b0&#45;&gt;dir_6fe37ccbf5e97356f3116a77abbef924</title>
<path fill="none" stroke="black" d="M60.39,-71.7C64.76,-63.64 70.06,-53.89 74.9,-44.98"/>
<polygon fill="black" stroke="black" points="78.02,-46.56 79.71,-36.1 71.87,-43.22 78.02,-46.56"/>
<g id="a_edge1&#45;headlabel"><a xlink:href="dir_000026_000001.html" target="_top" xlink:title="2">
<text text-anchor="middle" x="78.8" y="-48.58" font-family="Helvetica,sans-Serif" font-size="10.00">2</text>
</a>
</g>
</g>
</g>
</svg>
