<?xml version="1.0" encoding="UTF-8" standalone="no"?>
<!DOCTYPE svg PUBLIC "-//W3C//DTD SVG 1.1//EN"
 "http://www.w3.org/Graphics/SVG/1.1/DTD/svg11.dtd">
<!-- Generated by graphviz version 2.44.1 (20200629.0846)
 -->
<!-- Title: Graphical Class Hierarchy Pages: 1 -->
<svg width="336pt" height="104pt"
 viewBox="0.00 0.00 336.00 104.00" xmlns="http://www.w3.org/2000/svg" xmlns:xlink="http://www.w3.org/1999/xlink">
<g id="graph0" class="graph" transform="scale(1 1) rotate(0) translate(4 100)">
<title>Graphical Class Hierarchy</title>
<polygon fill="white" stroke="transparent" points="-4,4 -4,-100 332,-100 332,4 -4,4"/>
<!-- Node0 -->
<g id="node1" class="node">
<title>Node0</title>
<g id="a_node1"><a xlink:href="class_entity.html" target="_top" xlink:title=" ">
<polygon fill="white" stroke="black" points="0,-38.5 0,-57.5 42,-57.5 42,-38.5 0,-38.5"/>
<text text-anchor="middle" x="21" y="-45.5" font-family="Helvetica,sans-Serif" font-size="10.00">Entity</text>
</a>
</g>
</g>
<!-- Node1 -->
<g id="node2" class="node">
<title>Node1</title>
<g id="a_node2"><a xlink:href="class_object3_d.html" target="_top" xlink:title=" ">
<polygon fill="white" stroke="black" points="78,-38.5 78,-57.5 135,-57.5 135,-38.5 78,-38.5"/>
<text text-anchor="middle" x="106.5" y="-45.5" font-family="Helvetica,sans-Serif" font-size="10.00">Object3D</text>
</a>
</g>
</g>
<!-- Node0&#45;&gt;Node1 -->
<g id="edge1" class="edge">
<title>Node0&#45;&gt;Node1</title>
<path fill="none" stroke="midnightblue" d="M52.33,-48C60.69,-48 69.71,-48 77.9,-48"/>
<polygon fill="midnightblue" stroke="midnightblue" points="52.21,-44.5 42.21,-48 52.21,-51.5 52.21,-44.5"/>
</g>
<!-- Node2 -->
<g id="node3" class="node">
<title>Node2</title>
<g id="a_node3"><a xlink:href="class_camera.html" target="_top" xlink:title=" ">
<polygon fill="white" stroke="black" points="171,-76.5 171,-95.5 221,-95.5 221,-76.5 171,-76.5"/>
<text text-anchor="middle" x="196" y="-83.5" font-family="Helvetica,sans-Serif" font-size="10.00">Camera</text>
</a>
</g>
</g>
<!-- Node1&#45;&gt;Node2 -->
<g id="edge2" class="edge">
<title>Node1&#45;&gt;Node2</title>
<path fill="none" stroke="midnightblue" d="M139.06,-61.71C150.28,-66.58 162.67,-71.96 172.93,-76.41"/>
<polygon fill="midnightblue" stroke="midnightblue" points="140.15,-58.36 129.58,-57.59 137.36,-64.78 140.15,-58.36"/>
</g>
<!-- Node4 -->
<g id="node5" class="node">
<title>Node4</title>
<g id="a_node5"><a xlink:href="class_mesh.html" target="_top" xlink:title=" ">
<polygon fill="white" stroke="black" points="175.5,-38.5 175.5,-57.5 216.5,-57.5 216.5,-38.5 175.5,-38.5"/>
<text text-anchor="middle" x="196" y="-45.5" font-family="Helvetica,sans-Serif" font-size="10.00">Mesh</text>
</a>
</g>
</g>
<!-- Node1&#45;&gt;Node4 -->
<g id="edge4" class="edge">
<title>Node1&#45;&gt;Node4</title>
<path fill="none" stroke="midnightblue" d="M145.27,-48C155.6,-48 166.38,-48 175.25,-48"/>
<polygon fill="midnightblue" stroke="midnightblue" points="145.19,-44.5 135.19,-48 145.19,-51.5 145.19,-44.5"/>
</g>
<!-- Node5 -->
<g id="node6" class="node">
<title>Node5</title>
<g id="a_node6"><a xlink:href="class_scene.html" target="_top" xlink:title=" ">
<polygon fill="white" stroke="black" points="174,-0.5 174,-19.5 218,-19.5 218,-0.5 174,-0.5"/>
<text text-anchor="middle" x="196" y="-7.5" font-family="Helvetica,sans-Serif" font-size="10.00">Scene</text>
</a>
</g>
</g>
<!-- Node1&#45;&gt;Node5 -->
<g id="edge5" class="edge">
<title>Node1&#45;&gt;Node5</title>
<path fill="none" stroke="midnightblue" d="M138.94,-34.35C150.53,-29.31 163.37,-23.74 173.83,-19.19"/>
<polygon fill="midnightblue" stroke="midnightblue" points="137.36,-31.22 129.58,-38.41 140.15,-37.64 137.36,-31.22"/>
</g>
<!-- Node3 -->
<g id="node4" class="node">
<title>Node3</title>
<g id="a_node4"><a xlink:href="class_orbit_camera.html" target="_top" xlink:title=" ">
<polygon fill="white" stroke="black" points="257,-76.5 257,-95.5 328,-95.5 328,-76.5 257,-76.5"/>
<text text-anchor="middle" x="292.5" y="-83.5" font-family="Helvetica,sans-Serif" font-size="10.00">OrbitCamera</text>
</a>
</g>
</g>
<!-- Node2&#45;&gt;Node3 -->
<g id="edge3" class="edge">
<title>Node2&#45;&gt;Node3</title>
<path fill="none" stroke="midnightblue" d="M231.45,-86C239.75,-86 248.62,-86 256.92,-86"/>
<polygon fill="midnightblue" stroke="midnightblue" points="231.34,-82.5 221.34,-86 231.34,-89.5 231.34,-82.5"/>
</g>
</g>
</svg>
