<?xml version="1.0" encoding="UTF-8" standalone="no"?>
<!DOCTYPE svg PUBLIC "-//W3C//DTD SVG 1.1//EN"
 "http://www.w3.org/Graphics/SVG/1.1/DTD/svg11.dtd">
<!-- Generated by graphviz version 2.44.1 (20200629.0846)
 -->
<!-- Title: Graphical Class Hierarchy Pages: 1 -->
<svg width="260pt" height="104pt"
 viewBox="0.00 0.00 260.00 104.00" xmlns="http://www.w3.org/2000/svg" xmlns:xlink="http://www.w3.org/1999/xlink">
<g id="graph0" class="graph" transform="scale(1 1) rotate(0) translate(4 100)">
<title>Graphical Class Hierarchy</title>
<polygon fill="white" stroke="transparent" points="-4,4 -4,-100 256,-100 256,4 -4,4"/>
<!-- Node0 -->
<g id="node1" class="node">
<title>Node0</title>
<g id="a_node1"><a xlink:href="class_transform.html" target="_top" xlink:title=" ">
<polygon fill="white" stroke="black" points="0,-38.5 0,-57.5 59,-57.5 59,-38.5 0,-38.5"/>
<text text-anchor="middle" x="29.5" y="-45.5" font-family="Helvetica,sans-Serif" font-size="10.00">Transform</text>
</a>
</g>
</g>
<!-- Node1 -->
<g id="node2" class="node">
<title>Node1</title>
<g id="a_node2"><a xlink:href="class_camera.html" target="_top" xlink:title=" ">
<polygon fill="white" stroke="black" points="95,-76.5 95,-95.5 145,-95.5 145,-76.5 95,-76.5"/>
<text text-anchor="middle" x="120" y="-83.5" font-family="Helvetica,sans-Serif" font-size="10.00">Camera</text>
</a>
</g>
</g>
<!-- Node0&#45;&gt;Node1 -->
<g id="edge1" class="edge">
<title>Node0&#45;&gt;Node1</title>
<path fill="none" stroke="midnightblue" d="M62.08,-61.56C73.52,-66.47 86.19,-71.91 96.67,-76.41"/>
<polygon fill="midnightblue" stroke="midnightblue" points="63.4,-58.32 52.83,-57.59 60.64,-64.75 63.4,-58.32"/>
</g>
<!-- Node3 -->
<g id="node4" class="node">
<title>Node3</title>
<g id="a_node4"><a xlink:href="class_mesh.html" target="_top" xlink:title=" ">
<polygon fill="white" stroke="black" points="99.5,-38.5 99.5,-57.5 140.5,-57.5 140.5,-38.5 99.5,-38.5"/>
<text text-anchor="middle" x="120" y="-45.5" font-family="Helvetica,sans-Serif" font-size="10.00">Mesh</text>
</a>
</g>
</g>
<!-- Node0&#45;&gt;Node3 -->
<g id="edge3" class="edge">
<title>Node0&#45;&gt;Node3</title>
<path fill="none" stroke="midnightblue" d="M69.61,-48C79.94,-48 90.66,-48 99.46,-48"/>
<polygon fill="midnightblue" stroke="midnightblue" points="69.48,-44.5 59.48,-48 69.48,-51.5 69.48,-44.5"/>
</g>
<!-- Node4 -->
<g id="node5" class="node">
<title>Node4</title>
<g id="a_node5"><a xlink:href="class_scene.html" target="_top" xlink:title=" ">
<polygon fill="white" stroke="black" points="98,-0.5 98,-19.5 142,-19.5 142,-0.5 98,-0.5"/>
<text text-anchor="middle" x="120" y="-7.5" font-family="Helvetica,sans-Serif" font-size="10.00">Scene</text>
</a>
</g>
</g>
<!-- Node0&#45;&gt;Node4 -->
<g id="edge4" class="edge">
<title>Node0&#45;&gt;Node4</title>
<path fill="none" stroke="midnightblue" d="M62.37,-34.32C74.18,-29.24 87.28,-23.62 97.89,-19.06"/>
<polygon fill="midnightblue" stroke="midnightblue" points="60.64,-31.25 52.83,-38.41 63.4,-37.68 60.64,-31.25"/>
</g>
<!-- Node2 -->
<g id="node3" class="node">
<title>Node2</title>
<g id="a_node3"><a xlink:href="class_orbit_camera.html" target="_top" xlink:title=" ">
<polygon fill="white" stroke="black" points="181,-76.5 181,-95.5 252,-95.5 252,-76.5 181,-76.5"/>
<text text-anchor="middle" x="216.5" y="-83.5" font-family="Helvetica,sans-Serif" font-size="10.00">OrbitCamera</text>
</a>
</g>
</g>
<!-- Node1&#45;&gt;Node2 -->
<g id="edge2" class="edge">
<title>Node1&#45;&gt;Node2</title>
<path fill="none" stroke="midnightblue" d="M155.45,-86C163.75,-86 172.62,-86 180.92,-86"/>
<polygon fill="midnightblue" stroke="midnightblue" points="155.34,-82.5 145.34,-86 155.34,-89.5 155.34,-82.5"/>
</g>
</g>
</svg>
