<?xml version="1.0" encoding="UTF-8" standalone="no"?>
<!DOCTYPE svg PUBLIC "-//W3C//DTD SVG 1.1//EN"
 "http://www.w3.org/Graphics/SVG/1.1/DTD/svg11.dtd">
<!-- Generated by graphviz version 2.40.1 (20161225.0304)
 -->
<!-- Title: Graphical Class Hierarchy Pages: 1 -->
<svg width="249pt" height="66pt"
 viewBox="0.00 0.00 249.00 66.00" xmlns="http://www.w3.org/2000/svg" xmlns:xlink="http://www.w3.org/1999/xlink">
<g id="graph0" class="graph" transform="scale(1 1) rotate(0) translate(4 62)">
<title>Graphical Class Hierarchy</title>
<polygon fill="#ffffff" stroke="transparent" points="-4,4 -4,-62 245,-62 245,4 -4,4"/>
<!-- Node0 -->
<g id="node1" class="node">
<title>Node0</title>
<g id="a_node1"><a xlink:href="class_framebuffer.html" target="_top" xlink:title="Framebuffer">
<polygon fill="#ffffff" stroke="#000000" points="0,-19.5 0,-38.5 69,-38.5 69,-19.5 0,-19.5"/>
<text text-anchor="middle" x="34.5" y="-26.5" font-family="Helvetica,sans-Serif" font-size="10.00" fill="#000000">Framebuffer</text>
</a>
</g>
</g>
<!-- Node1 -->
<g id="node2" class="node">
<title>Node1</title>
<g id="a_node2"><a xlink:href="class_open_g_l_framebuffer.html" target="_top" xlink:title="OpenGLFramebuffer">
<polygon fill="#ffffff" stroke="#000000" points="120.5,-38.5 120.5,-57.5 225.5,-57.5 225.5,-38.5 120.5,-38.5"/>
<text text-anchor="middle" x="173" y="-45.5" font-family="Helvetica,sans-Serif" font-size="10.00" fill="#000000">OpenGLFramebuffer</text>
</a>
</g>
</g>
<!-- Node0&#45;&gt;Node1 -->
<g id="edge1" class="edge">
<title>Node0&#45;&gt;Node1</title>
<path fill="none" stroke="#191970" d="M79.2498,-35.139C92.3263,-36.9329 106.7408,-38.9103 120.2633,-40.7654"/>
<polygon fill="#191970" stroke="#191970" points="79.4751,-31.6372 69.0921,-33.7455 78.5236,-38.5722 79.4751,-31.6372"/>
</g>
<!-- Node2 -->
<g id="node3" class="node">
<title>Node2</title>
<g id="a_node3"><a xlink:href="class_open_g_l_screen_framebuffer.html" target="_top" xlink:title="OpenGLScreenFramebuffer">
<polygon fill="#ffffff" stroke="#000000" points="105,-.5 105,-19.5 241,-19.5 241,-.5 105,-.5"/>
<text text-anchor="middle" x="173" y="-7.5" font-family="Helvetica,sans-Serif" font-size="10.00" fill="#000000">OpenGLScreenFramebuffer</text>
</a>
</g>
</g>
<!-- Node0&#45;&gt;Node2 -->
<g id="edge2" class="edge">
<title>Node0&#45;&gt;Node2</title>
<path fill="none" stroke="#191970" d="M79.1633,-22.8729C87.3705,-21.747 96.1073,-20.5485 104.8214,-19.353"/>
<polygon fill="#191970" stroke="#191970" points="78.5236,-19.4278 69.0921,-24.2545 79.4751,-26.3628 78.5236,-19.4278"/>
</g>
</g>
</svg>
