<?xml version="1.0" encoding="UTF-8" standalone="no"?>
<!DOCTYPE svg PUBLIC "-//W3C//DTD SVG 1.1//EN"
 "http://www.w3.org/Graphics/SVG/1.1/DTD/svg11.dtd">
<!-- Generated by graphviz version 2.44.1 (20200629.0846)
 -->
<!-- Title: kryne&#45;engine/include/kryne&#45;engine/Camera/Camera.h Pages: 1 -->
<svg width="896pt" height="273pt"
 viewBox="0.00 0.00 896.00 273.00" xmlns="http://www.w3.org/2000/svg" xmlns:xlink="http://www.w3.org/1999/xlink">
<g id="graph0" class="graph" transform="scale(1 1) rotate(0) translate(4 269)">
<title>kryne&#45;engine/include/kryne&#45;engine/Camera/Camera.h</title>
<polygon fill="white" stroke="transparent" points="-4,4 -4,-269 892,-269 892,4 -4,4"/>
<!-- Node1 -->
<g id="node1" class="node">
<title>Node1</title>
<g id="a_node1"><a xlink:title=" ">
<polygon fill="#bfbfbf" stroke="black" points="394.5,-223.5 394.5,-264.5 506.5,-264.5 506.5,-223.5 394.5,-223.5"/>
<text text-anchor="start" x="402.5" y="-252.5" font-family="Helvetica,sans-Serif" font-size="10.00">kryne&#45;engine/include</text>
<text text-anchor="start" x="402.5" y="-241.5" font-family="Helvetica,sans-Serif" font-size="10.00">/kryne&#45;engine/Camera</text>
<text text-anchor="middle" x="450.5" y="-230.5" font-family="Helvetica,sans-Serif" font-size="10.00">/Camera.h</text>
</a>
</g>
</g>
<!-- Node2 -->
<g id="node2" class="node">
<title>Node2</title>
<g id="a_node2"><a xlink:href="_k_e_modules_2_camera_8h.html" target="_top" xlink:title=" ">
<polygon fill="white" stroke="black" points="441,-73 441,-103 556,-103 556,-73 441,-73"/>
<text text-anchor="start" x="449" y="-91" font-family="Helvetica,sans-Serif" font-size="10.00">kryne&#45;engine/include</text>
<text text-anchor="middle" x="498.5" y="-80" font-family="Helvetica,sans-Serif" font-size="10.00">/KEModules/Camera.h</text>
</a>
</g>
</g>
<!-- Node1&#45;&gt;Node2 -->
<g id="edge1" class="edge">
<title>Node1&#45;&gt;Node2</title>
<path fill="none" stroke="midnightblue" d="M431.69,-214.7C420.81,-194.53 411.29,-167.19 422.5,-145 431.89,-126.42 450.67,-112.5 467.21,-103.18"/>
<polygon fill="midnightblue" stroke="midnightblue" points="428.69,-216.5 436.72,-223.41 434.76,-213 428.69,-216.5"/>
</g>
<!-- Node3 -->
<g id="node3" class="node">
<title>Node3</title>
<g id="a_node3"><a xlink:href="_mesh_8h.html" target="_top" xlink:title=" ">
<polygon fill="white" stroke="black" points="182.5,-145.5 182.5,-186.5 306.5,-186.5 306.5,-145.5 182.5,-145.5"/>
<text text-anchor="start" x="190.5" y="-174.5" font-family="Helvetica,sans-Serif" font-size="10.00">kryne&#45;engine/include</text>
<text text-anchor="start" x="190.5" y="-163.5" font-family="Helvetica,sans-Serif" font-size="10.00">/kryne&#45;engine/3DObjects</text>
<text text-anchor="middle" x="244.5" y="-152.5" font-family="Helvetica,sans-Serif" font-size="10.00">/Mesh.h</text>
</a>
</g>
</g>
<!-- Node1&#45;&gt;Node3 -->
<g id="edge2" class="edge">
<title>Node1&#45;&gt;Node3</title>
<path fill="none" stroke="midnightblue" d="M387.85,-219.89C358.93,-209.22 324.98,-196.69 297.37,-186.51"/>
<polygon fill="midnightblue" stroke="midnightblue" points="386.86,-223.25 397.45,-223.43 389.28,-216.68 386.86,-223.25"/>
</g>
<!-- Node5 -->
<g id="node5" class="node">
<title>Node5</title>
<g id="a_node5"><a xlink:href="_renderer_8h.html" target="_top" xlink:title=" ">
<polygon fill="white" stroke="black" points="300.5,-67.5 300.5,-108.5 422.5,-108.5 422.5,-67.5 300.5,-67.5"/>
<text text-anchor="start" x="308.5" y="-96.5" font-family="Helvetica,sans-Serif" font-size="10.00">kryne&#45;engine/include</text>
<text text-anchor="start" x="308.5" y="-85.5" font-family="Helvetica,sans-Serif" font-size="10.00">/kryne&#45;engine/Rendering</text>
<text text-anchor="middle" x="361.5" y="-74.5" font-family="Helvetica,sans-Serif" font-size="10.00">/Renderer.h</text>
</a>
</g>
</g>
<!-- Node1&#45;&gt;Node5 -->
<g id="edge11" class="edge">
<title>Node1&#45;&gt;Node5</title>
<path fill="none" stroke="midnightblue" d="M431.19,-214.92C425.33,-206.1 418.99,-196.24 413.5,-187 397.77,-160.5 381.39,-128.85 371.32,-108.83"/>
<polygon fill="midnightblue" stroke="midnightblue" points="428.36,-216.99 436.84,-223.34 434.17,-213.09 428.36,-216.99"/>
</g>
<!-- Node9 -->
<g id="node9" class="node">
<title>Node9</title>
<g id="a_node9"><a xlink:href="_orbit_controls_component_8h.html" target="_top" xlink:title=" ">
<polygon fill="white" stroke="black" points="431.5,-145.5 431.5,-186.5 565.5,-186.5 565.5,-145.5 431.5,-145.5"/>
<text text-anchor="start" x="439.5" y="-174.5" font-family="Helvetica,sans-Serif" font-size="10.00">kryne&#45;engine/include</text>
<text text-anchor="start" x="439.5" y="-163.5" font-family="Helvetica,sans-Serif" font-size="10.00">/kryne&#45;engine/Camera</text>
<text text-anchor="middle" x="498.5" y="-152.5" font-family="Helvetica,sans-Serif" font-size="10.00">/OrbitControlsComponent.h</text>
</a>
</g>
</g>
<!-- Node1&#45;&gt;Node9 -->
<g id="edge8" class="edge">
<title>Node1&#45;&gt;Node9</title>
<path fill="none" stroke="midnightblue" d="M468.34,-214.76C474.28,-205.35 480.76,-195.1 486.18,-186.51"/>
<polygon fill="midnightblue" stroke="midnightblue" points="465.24,-213.1 462.86,-223.43 471.16,-216.84 465.24,-213.1"/>
</g>
<!-- Node11 -->
<g id="node11" class="node">
<title>Node11</title>
<g id="a_node11"><a xlink:href="_camera_8cpp.html" target="_top" xlink:title=" ">
<polygon fill="white" stroke="black" points="584,-151 584,-181 709,-181 709,-151 584,-151"/>
<text text-anchor="start" x="592" y="-169" font-family="Helvetica,sans-Serif" font-size="10.00">kryne&#45;engine/src/Camera</text>
<text text-anchor="middle" x="646.5" y="-158" font-family="Helvetica,sans-Serif" font-size="10.00">/Camera.cpp</text>
</a>
</g>
</g>
<!-- Node1&#45;&gt;Node11 -->
<g id="edge12" class="edge">
<title>Node1&#45;&gt;Node11</title>
<path fill="none" stroke="midnightblue" d="M510.41,-219.77C542.97,-207.15 582.17,-191.94 610.12,-181.11"/>
<polygon fill="midnightblue" stroke="midnightblue" points="509.03,-216.55 500.97,-223.43 511.56,-223.08 509.03,-216.55"/>
</g>
<!-- Node12 -->
<g id="node12" class="node">
<title>Node12</title>
<g id="a_node12"><a xlink:href="_open_g_l_renderer_8cpp.html" target="_top" xlink:title=" ">
<polygon fill="white" stroke="black" points="727,-151 727,-181 888,-181 888,-151 727,-151"/>
<text text-anchor="start" x="735" y="-169" font-family="Helvetica,sans-Serif" font-size="10.00">kryne&#45;engine/src/Rendering</text>
<text text-anchor="middle" x="807.5" y="-158" font-family="Helvetica,sans-Serif" font-size="10.00">/Renderers/OpenGLRenderer.cpp</text>
</a>
</g>
</g>
<!-- Node1&#45;&gt;Node12 -->
<g id="edge13" class="edge">
<title>Node1&#45;&gt;Node12</title>
<path fill="none" stroke="midnightblue" d="M516.34,-229.53C570.63,-218.35 649.62,-201.93 718.5,-187 727.17,-185.12 736.3,-183.11 745.28,-181.11"/>
<polygon fill="midnightblue" stroke="midnightblue" points="515.59,-226.11 506.5,-231.55 517,-232.97 515.59,-226.11"/>
</g>
<!-- Node4 -->
<g id="node4" class="node">
<title>Node4</title>
<g id="a_node4"><a xlink:href="3_d_objects_8h.html" target="_top" xlink:title=" ">
<polygon fill="white" stroke="black" points="0,-73 0,-103 127,-103 127,-73 0,-73"/>
<text text-anchor="start" x="8" y="-91" font-family="Helvetica,sans-Serif" font-size="10.00">kryne&#45;engine/include</text>
<text text-anchor="middle" x="63.5" y="-80" font-family="Helvetica,sans-Serif" font-size="10.00">/KEModules/3DObjects.h</text>
</a>
</g>
</g>
<!-- Node3&#45;&gt;Node4 -->
<g id="edge3" class="edge">
<title>Node3&#45;&gt;Node4</title>
<path fill="none" stroke="midnightblue" d="M188.4,-141.45C158.49,-128.89 122.69,-113.85 97.1,-103.11"/>
<polygon fill="midnightblue" stroke="midnightblue" points="187.31,-144.78 197.89,-145.43 190.02,-138.33 187.31,-144.78"/>
</g>
<!-- Node3&#45;&gt;Node5 -->
<g id="edge4" class="edge">
<title>Node3&#45;&gt;Node5</title>
<path fill="none" stroke="midnightblue" d="M283.11,-139.92C298.84,-129.7 316.75,-118.07 331.47,-108.51"/>
<polygon fill="midnightblue" stroke="midnightblue" points="281.11,-137.05 274.63,-145.43 284.92,-142.92 281.11,-137.05"/>
</g>
<!-- Node8 -->
<g id="node8" class="node">
<title>Node8</title>
<g id="a_node8"><a xlink:href="_mesh_8cpp.html" target="_top" xlink:title=" ">
<polygon fill="white" stroke="black" points="145,-73 145,-103 282,-103 282,-73 145,-73"/>
<text text-anchor="start" x="153" y="-91" font-family="Helvetica,sans-Serif" font-size="10.00">kryne&#45;engine/src/3DObjects</text>
<text text-anchor="middle" x="213.5" y="-80" font-family="Helvetica,sans-Serif" font-size="10.00">/Mesh.cpp</text>
</a>
</g>
</g>
<!-- Node3&#45;&gt;Node8 -->
<g id="edge7" class="edge">
<title>Node3&#45;&gt;Node8</title>
<path fill="none" stroke="midnightblue" d="M232.66,-135.96C228.08,-124.75 223.06,-112.43 219.3,-103.23"/>
<polygon fill="midnightblue" stroke="midnightblue" points="229.5,-137.49 236.52,-145.43 235.98,-134.85 229.5,-137.49"/>
</g>
<!-- Node6 -->
<g id="node6" class="node">
<title>Node6</title>
<g id="a_node6"><a xlink:href="_rendering_8h.html" target="_top" xlink:title=" ">
<polygon fill="white" stroke="black" points="225,-0.5 225,-30.5 350,-30.5 350,-0.5 225,-0.5"/>
<text text-anchor="start" x="233" y="-18.5" font-family="Helvetica,sans-Serif" font-size="10.00">kryne&#45;engine/include</text>
<text text-anchor="middle" x="287.5" y="-7.5" font-family="Helvetica,sans-Serif" font-size="10.00">/KEModules/Rendering.h</text>
</a>
</g>
</g>
<!-- Node5&#45;&gt;Node6 -->
<g id="edge5" class="edge">
<title>Node5&#45;&gt;Node6</title>
<path fill="none" stroke="midnightblue" d="M333.48,-60.31C323,-50.32 311.49,-39.35 302.61,-30.89"/>
<polygon fill="midnightblue" stroke="midnightblue" points="331.23,-63 340.89,-67.36 336.06,-57.93 331.23,-63"/>
</g>
<!-- Node7 -->
<g id="node7" class="node">
<title>Node7</title>
<g id="a_node7"><a xlink:href="_renderer_8cpp.html" target="_top" xlink:title=" ">
<polygon fill="white" stroke="black" points="368,-0.5 368,-30.5 503,-30.5 503,-0.5 368,-0.5"/>
<text text-anchor="start" x="376" y="-18.5" font-family="Helvetica,sans-Serif" font-size="10.00">kryne&#45;engine/src/Rendering</text>
<text text-anchor="middle" x="435.5" y="-7.5" font-family="Helvetica,sans-Serif" font-size="10.00">/Renderer.cpp</text>
</a>
</g>
</g>
<!-- Node5&#45;&gt;Node7 -->
<g id="edge6" class="edge">
<title>Node5&#45;&gt;Node7</title>
<path fill="none" stroke="midnightblue" d="M389.52,-60.31C400,-50.32 411.51,-39.35 420.39,-30.89"/>
<polygon fill="midnightblue" stroke="midnightblue" points="386.94,-57.93 382.11,-67.36 391.77,-63 386.94,-57.93"/>
</g>
<!-- Node9&#45;&gt;Node2 -->
<g id="edge9" class="edge">
<title>Node9&#45;&gt;Node2</title>
<path fill="none" stroke="midnightblue" d="M498.5,-135.28C498.5,-124.25 498.5,-112.25 498.5,-103.23"/>
<polygon fill="midnightblue" stroke="midnightblue" points="495,-135.43 498.5,-145.43 502,-135.43 495,-135.43"/>
</g>
<!-- Node10 -->
<g id="node10" class="node">
<title>Node10</title>
<g id="a_node10"><a xlink:href="_orbit_controls_component_8cpp.html" target="_top" xlink:title=" ">
<polygon fill="white" stroke="black" points="574,-73 574,-103 719,-103 719,-73 574,-73"/>
<text text-anchor="start" x="582" y="-91" font-family="Helvetica,sans-Serif" font-size="10.00">kryne&#45;engine/src/Camera</text>
<text text-anchor="middle" x="646.5" y="-80" font-family="Helvetica,sans-Serif" font-size="10.00">/OrbitControlsComponent.cpp</text>
</a>
</g>
</g>
<!-- Node9&#45;&gt;Node10 -->
<g id="edge10" class="edge">
<title>Node9&#45;&gt;Node10</title>
<path fill="none" stroke="midnightblue" d="M545.61,-140.81C569.72,-128.43 598.24,-113.78 618.8,-103.23"/>
<polygon fill="midnightblue" stroke="midnightblue" points="543.91,-137.75 536.61,-145.43 547.11,-143.97 543.91,-137.75"/>
</g>
</g>
</svg>
