<?xml version="1.0" encoding="UTF-8" standalone="no"?>
<!DOCTYPE svg PUBLIC "-//W3C//DTD SVG 1.1//EN"
 "http://www.w3.org/Graphics/SVG/1.1/DTD/svg11.dtd">
<!-- Generated by graphviz version 2.44.1 (20200629.0846)
 -->
<!-- Title: kryne&#45;engine/include/kryne&#45;engine/Camera/Camera.h Pages: 1 -->
<svg width="1415pt" height="285pt"
 viewBox="0.00 0.00 1414.61 285.00" xmlns="http://www.w3.org/2000/svg" xmlns:xlink="http://www.w3.org/1999/xlink">
<g id="graph0" class="graph" transform="scale(1 1) rotate(0) translate(4 281)">
<title>kryne&#45;engine/include/kryne&#45;engine/Camera/Camera.h</title>
<polygon fill="white" stroke="transparent" points="-4,4 -4,-281 1410.61,-281 1410.61,4 -4,4"/>
<!-- Node1 -->
<g id="node1" class="node">
<title>Node1</title>
<g id="a_node1"><a xlink:title=" ">
<polygon fill="#bfbfbf" stroke="black" points="602.61,-235.5 602.61,-276.5 714.61,-276.5 714.61,-235.5 602.61,-235.5"/>
<text text-anchor="start" x="610.61" y="-264.5" font-family="Helvetica,sans-Serif" font-size="10.00">kryne&#45;engine/include</text>
<text text-anchor="start" x="610.61" y="-253.5" font-family="Helvetica,sans-Serif" font-size="10.00">/kryne&#45;engine/Camera</text>
<text text-anchor="middle" x="658.61" y="-242.5" font-family="Helvetica,sans-Serif" font-size="10.00">/Camera.h</text>
</a>
</g>
</g>
<!-- Node2 -->
<g id="node2" class="node">
<title>Node2</title>
<g id="a_node2"><a xlink:title=" ">
<polygon fill="white" stroke="#bfbfbf" points="682.61,-0.5 682.61,-19.5 734.61,-19.5 734.61,-0.5 682.61,-0.5"/>
<text text-anchor="middle" x="708.61" y="-7.5" font-family="Helvetica,sans-Serif" font-size="10.00">memory</text>
</a>
</g>
</g>
<!-- Node1&#45;&gt;Node2 -->
<g id="edge1" class="edge">
<title>Node1&#45;&gt;Node2</title>
<path fill="none" stroke="midnightblue" d="M602.55,-252.28C431.23,-242.91 -69.22,-207.13 8.61,-112 51.23,-59.9 534.45,-22.95 672.17,-13.42"/>
<polygon fill="midnightblue" stroke="midnightblue" points="672.48,-16.91 682.22,-12.73 672.01,-9.92 672.48,-16.91"/>
</g>
<!-- Node3 -->
<g id="node3" class="node">
<title>Node3</title>
<g id="a_node3"><a xlink:href="_transform_8h.html" target="_top" xlink:title=" ">
<polygon fill="white" stroke="black" points="598.11,-168.5 598.11,-198.5 719.11,-198.5 719.11,-168.5 598.11,-168.5"/>
<text text-anchor="start" x="606.11" y="-186.5" font-family="Helvetica,sans-Serif" font-size="10.00">kryne&#45;engine/3DObjects</text>
<text text-anchor="middle" x="658.61" y="-175.5" font-family="Helvetica,sans-Serif" font-size="10.00">/Transform.h</text>
</a>
</g>
</g>
<!-- Node1&#45;&gt;Node3 -->
<g id="edge2" class="edge">
<title>Node1&#45;&gt;Node3</title>
<path fill="none" stroke="midnightblue" d="M658.61,-235.36C658.61,-227.23 658.61,-217.7 658.61,-209.11"/>
<polygon fill="midnightblue" stroke="midnightblue" points="662.11,-208.89 658.61,-198.89 655.11,-208.89 662.11,-208.89"/>
</g>
<!-- Node20 -->
<g id="node20" class="node">
<title>Node20</title>
<g id="a_node20"><a xlink:href="_projection_data_8hpp.html" target="_top" xlink:title=" ">
<polygon fill="white" stroke="black" points="1181.11,-174 1181.11,-193 1280.11,-193 1280.11,-174 1181.11,-174"/>
<text text-anchor="middle" x="1230.61" y="-181" font-family="Helvetica,sans-Serif" font-size="10.00">ProjectionData.hpp</text>
</a>
</g>
</g>
<!-- Node1&#45;&gt;Node20 -->
<g id="edge27" class="edge">
<title>Node1&#45;&gt;Node20</title>
<path fill="none" stroke="midnightblue" d="M714.75,-248.08C822.98,-234.74 1059.58,-205.58 1170.7,-191.88"/>
<polygon fill="midnightblue" stroke="midnightblue" points="1171.24,-195.34 1180.73,-190.65 1170.38,-188.4 1171.24,-195.34"/>
</g>
<!-- Node3&#45;&gt;Node2 -->
<g id="edge3" class="edge">
<title>Node3&#45;&gt;Node2</title>
<path fill="none" stroke="midnightblue" d="M719.24,-175.24C746.39,-168.63 775.99,-156.02 792.61,-132 817.69,-95.74 744.65,-79.52 741.61,-76 729.6,-62.12 720.61,-43.1 715.06,-29.23"/>
<polygon fill="midnightblue" stroke="midnightblue" points="718.31,-27.91 711.51,-19.79 711.76,-30.38 718.31,-27.91"/>
</g>
<!-- Node4 -->
<g id="node4" class="node">
<title>Node4</title>
<g id="a_node4"><a xlink:title=" ">
<polygon fill="white" stroke="#bfbfbf" points="884.61,-0.5 884.61,-19.5 926.61,-19.5 926.61,-0.5 884.61,-0.5"/>
<text text-anchor="middle" x="905.61" y="-7.5" font-family="Helvetica,sans-Serif" font-size="10.00">vector</text>
</a>
</g>
</g>
<!-- Node3&#45;&gt;Node4 -->
<g id="edge4" class="edge">
<title>Node3&#45;&gt;Node4</title>
<path fill="none" stroke="midnightblue" d="M719.16,-178.18C832.38,-168.63 1068.6,-141.15 1111.61,-76 1116.5,-68.58 1117.18,-62.92 1111.61,-56 1090.02,-29.19 989,-17.49 936.88,-13.16"/>
<polygon fill="midnightblue" stroke="midnightblue" points="937.09,-9.67 926.85,-12.37 936.54,-16.65 937.09,-9.67"/>
</g>
<!-- Node5 -->
<g id="node5" class="node">
<title>Node5</title>
<g id="a_node5"><a xlink:title=" ">
<polygon fill="white" stroke="#bfbfbf" points="17.61,-112.5 17.61,-131.5 87.61,-131.5 87.61,-112.5 17.61,-112.5"/>
<text text-anchor="middle" x="52.61" y="-119.5" font-family="Helvetica,sans-Serif" font-size="10.00">glm/glm.hpp</text>
</a>
</g>
</g>
<!-- Node3&#45;&gt;Node5 -->
<g id="edge5" class="edge">
<title>Node3&#45;&gt;Node5</title>
<path fill="none" stroke="midnightblue" d="M598.05,-179.29C496.58,-173.43 285.68,-159.14 97.68,-132"/>
<polygon fill="midnightblue" stroke="midnightblue" points="98.01,-128.51 87.61,-130.53 97,-135.44 98.01,-128.51"/>
</g>
<!-- Node6 -->
<g id="node6" class="node">
<title>Node6</title>
<g id="a_node6"><a xlink:title=" ">
<polygon fill="white" stroke="#bfbfbf" points="105.61,-112.5 105.61,-131.5 197.61,-131.5 197.61,-112.5 105.61,-112.5"/>
<text text-anchor="middle" x="151.61" y="-119.5" font-family="Helvetica,sans-Serif" font-size="10.00">glm/common.hpp</text>
</a>
</g>
</g>
<!-- Node3&#45;&gt;Node6 -->
<g id="edge6" class="edge">
<title>Node3&#45;&gt;Node6</title>
<path fill="none" stroke="midnightblue" d="M597.8,-176.7C512.85,-168.38 353.59,-151.97 207.82,-132.11"/>
<polygon fill="midnightblue" stroke="midnightblue" points="208.18,-128.62 197.79,-130.73 207.22,-135.56 208.18,-128.62"/>
</g>
<!-- Node7 -->
<g id="node7" class="node">
<title>Node7</title>
<g id="a_node7"><a xlink:title=" ">
<polygon fill="white" stroke="#bfbfbf" points="216.11,-112.5 216.11,-131.5 297.11,-131.5 297.11,-112.5 216.11,-112.5"/>
<text text-anchor="middle" x="256.61" y="-119.5" font-family="Helvetica,sans-Serif" font-size="10.00">glm/matrix.hpp</text>
</a>
</g>
</g>
<!-- Node3&#45;&gt;Node7 -->
<g id="edge7" class="edge">
<title>Node3&#45;&gt;Node7</title>
<path fill="none" stroke="midnightblue" d="M598.07,-174.02C528.78,-164.24 411.93,-147.51 311.61,-132 310.14,-131.77 308.66,-131.54 307.16,-131.31"/>
<polygon fill="midnightblue" stroke="midnightblue" points="307.57,-127.83 297.14,-129.72 306.47,-134.74 307.57,-127.83"/>
</g>
<!-- Node8 -->
<g id="node8" class="node">
<title>Node8</title>
<g id="a_node8"><a xlink:title=" ">
<polygon fill="white" stroke="#bfbfbf" points="294.61,-56.5 294.61,-75.5 368.61,-75.5 368.61,-56.5 294.61,-56.5"/>
<text text-anchor="middle" x="331.61" y="-63.5" font-family="Helvetica,sans-Serif" font-size="10.00">glm/vec3.hpp</text>
</a>
</g>
</g>
<!-- Node3&#45;&gt;Node8 -->
<g id="edge8" class="edge">
<title>Node3&#45;&gt;Node8</title>
<path fill="none" stroke="midnightblue" d="M598.1,-180.75C517.21,-177.12 379.91,-165.99 344.61,-132 332.44,-120.29 329.95,-100.64 330.04,-86.01"/>
<polygon fill="midnightblue" stroke="midnightblue" points="333.56,-85.75 330.53,-75.59 326.56,-85.42 333.56,-85.75"/>
</g>
<!-- Node9 -->
<g id="node9" class="node">
<title>Node9</title>
<g id="a_node9"><a xlink:title=" ">
<polygon fill="white" stroke="#bfbfbf" points="533.61,-112.5 533.61,-131.5 649.61,-131.5 649.61,-112.5 533.61,-112.5"/>
<text text-anchor="middle" x="591.61" y="-119.5" font-family="Helvetica,sans-Serif" font-size="10.00">glm/gtc/quaternion.hpp</text>
</a>
</g>
</g>
<!-- Node3&#45;&gt;Node9 -->
<g id="edge9" class="edge">
<title>Node3&#45;&gt;Node9</title>
<path fill="none" stroke="midnightblue" d="M642.73,-168.4C632.59,-159.4 619.44,-147.72 609.02,-138.47"/>
<polygon fill="midnightblue" stroke="midnightblue" points="611.16,-135.68 601.35,-131.66 606.51,-140.92 611.16,-135.68"/>
</g>
<!-- Node10 -->
<g id="node10" class="node">
<title>Node10</title>
<g id="a_node10"><a xlink:title=" ">
<polygon fill="white" stroke="#bfbfbf" points="667.61,-112.5 667.61,-131.5 783.61,-131.5 783.61,-112.5 667.61,-112.5"/>
<text text-anchor="middle" x="725.61" y="-119.5" font-family="Helvetica,sans-Serif" font-size="10.00">glm/gtx/quaternion.hpp</text>
</a>
</g>
</g>
<!-- Node3&#45;&gt;Node10 -->
<g id="edge10" class="edge">
<title>Node3&#45;&gt;Node10</title>
<path fill="none" stroke="midnightblue" d="M674.48,-168.4C684.62,-159.4 697.77,-147.72 708.19,-138.47"/>
<polygon fill="midnightblue" stroke="midnightblue" points="710.7,-140.92 715.86,-131.66 706.05,-135.68 710.7,-140.92"/>
</g>
<!-- Node11 -->
<g id="node11" class="node">
<title>Node11</title>
<g id="a_node11"><a xlink:title=" ">
<polygon fill="white" stroke="#bfbfbf" points="1159.11,-112.5 1159.11,-131.5 1302.11,-131.5 1302.11,-112.5 1159.11,-112.5"/>
<text text-anchor="middle" x="1230.61" y="-119.5" font-family="Helvetica,sans-Serif" font-size="10.00">glm/gtc/matrix_transform.hpp</text>
</a>
</g>
</g>
<!-- Node3&#45;&gt;Node11 -->
<g id="edge11" class="edge">
<title>Node3&#45;&gt;Node11</title>
<path fill="none" stroke="midnightblue" d="M719.22,-176.22C811.18,-166.68 991.47,-147.97 1144.61,-132 1145.91,-131.86 1147.22,-131.73 1148.54,-131.59"/>
<polygon fill="midnightblue" stroke="midnightblue" points="1149.23,-135.04 1158.81,-130.52 1148.5,-128.07 1149.23,-135.04"/>
</g>
<!-- Node12 -->
<g id="node12" class="node">
<title>Node12</title>
<g id="a_node12"><a xlink:href="_transform_8hpp.html" target="_top" xlink:title=" ">
<polygon fill="white" stroke="black" points="354.11,-112.5 354.11,-131.5 515.11,-131.5 515.11,-112.5 354.11,-112.5"/>
<text text-anchor="middle" x="434.61" y="-119.5" font-family="Helvetica,sans-Serif" font-size="10.00">kryne&#45;engine/Math/Transform.hpp</text>
</a>
</g>
</g>
<!-- Node3&#45;&gt;Node12 -->
<g id="edge12" class="edge">
<title>Node3&#45;&gt;Node12</title>
<path fill="none" stroke="midnightblue" d="M605.8,-168.47C566.32,-157.99 513.05,-143.84 476.48,-134.12"/>
<polygon fill="midnightblue" stroke="midnightblue" points="477.19,-130.69 466.63,-131.51 475.4,-137.46 477.19,-130.69"/>
</g>
<!-- Node14 -->
<g id="node14" class="node">
<title>Node14</title>
<g id="a_node14"><a xlink:href="_entity_8h.html" target="_top" xlink:title=" ">
<polygon fill="white" stroke="black" points="839.61,-112.5 839.61,-131.5 971.61,-131.5 971.61,-112.5 839.61,-112.5"/>
<text text-anchor="middle" x="905.61" y="-119.5" font-family="Helvetica,sans-Serif" font-size="10.00">kryne&#45;engine/Core/Entity.h</text>
</a>
</g>
</g>
<!-- Node3&#45;&gt;Node14 -->
<g id="edge15" class="edge">
<title>Node3&#45;&gt;Node14</title>
<path fill="none" stroke="midnightblue" d="M711,-168.47C753.73,-157.85 813.58,-143.47 855.64,-133.75"/>
<polygon fill="midnightblue" stroke="midnightblue" points="856.44,-137.16 865.4,-131.51 854.87,-130.34 856.44,-137.16"/>
</g>
<!-- Node12&#45;&gt;Node8 -->
<g id="edge13" class="edge">
<title>Node12&#45;&gt;Node8</title>
<path fill="none" stroke="midnightblue" d="M418.06,-112.32C401.61,-103.7 376.17,-90.36 357.14,-80.39"/>
<polygon fill="midnightblue" stroke="midnightblue" points="358.59,-77.2 348.11,-75.65 355.34,-83.4 358.59,-77.2"/>
</g>
<!-- Node13 -->
<g id="node13" class="node">
<title>Node13</title>
<g id="a_node13"><a xlink:title=" ">
<polygon fill="white" stroke="#bfbfbf" points="391.61,-56.5 391.61,-75.5 477.61,-75.5 477.61,-56.5 391.61,-56.5"/>
<text text-anchor="middle" x="434.61" y="-63.5" font-family="Helvetica,sans-Serif" font-size="10.00">glm/mat3x3.hpp</text>
</a>
</g>
</g>
<!-- Node12&#45;&gt;Node13 -->
<g id="edge14" class="edge">
<title>Node12&#45;&gt;Node13</title>
<path fill="none" stroke="midnightblue" d="M434.61,-112.08C434.61,-105.01 434.61,-94.86 434.61,-85.99"/>
<polygon fill="midnightblue" stroke="midnightblue" points="438.11,-85.75 434.61,-75.75 431.11,-85.75 438.11,-85.75"/>
</g>
<!-- Node14&#45;&gt;Node3 -->
<g id="edge19" class="edge">
<title>Node14&#45;&gt;Node3</title>
<path fill="none" stroke="midnightblue" d="M874.93,-131.57C838.58,-140.81 777.09,-155.71 728.9,-167.01"/>
<polygon fill="midnightblue" stroke="midnightblue" points="728.08,-163.61 719.14,-169.3 729.68,-170.43 728.08,-163.61"/>
</g>
<!-- Node14&#45;&gt;Node4 -->
<g id="edge17" class="edge">
<title>Node14&#45;&gt;Node4</title>
<path fill="none" stroke="midnightblue" d="M892.17,-112.49C875.45,-100.74 850.17,-78.43 859.61,-56 864.63,-44.05 874.55,-33.69 883.89,-25.93"/>
<polygon fill="midnightblue" stroke="midnightblue" points="886.04,-28.69 891.82,-19.81 881.76,-23.15 886.04,-28.69"/>
</g>
<!-- Node15 -->
<g id="node15" class="node">
<title>Node15</title>
<g id="a_node15"><a xlink:title=" ">
<polygon fill="white" stroke="#bfbfbf" points="960.61,-56.5 960.61,-75.5 1006.61,-75.5 1006.61,-56.5 960.61,-56.5"/>
<text text-anchor="middle" x="983.61" y="-63.5" font-family="Helvetica,sans-Serif" font-size="10.00">atomic</text>
</a>
</g>
</g>
<!-- Node14&#45;&gt;Node15 -->
<g id="edge16" class="edge">
<title>Node14&#45;&gt;Node15</title>
<path fill="none" stroke="midnightblue" d="M918.14,-112.32C930.19,-103.98 948.63,-91.21 962.87,-81.35"/>
<polygon fill="midnightblue" stroke="midnightblue" points="964.87,-84.22 971.1,-75.65 960.89,-78.47 964.87,-84.22"/>
</g>
<!-- Node16 -->
<g id="node16" class="node">
<title>Node16</title>
<g id="a_node16"><a xlink:title=" ">
<polygon fill="white" stroke="#bfbfbf" points="1024.61,-56.5 1024.61,-75.5 1102.61,-75.5 1102.61,-56.5 1024.61,-56.5"/>
<text text-anchor="middle" x="1063.61" y="-63.5" font-family="Helvetica,sans-Serif" font-size="10.00">unordered_set</text>
</a>
</g>
</g>
<!-- Node14&#45;&gt;Node16 -->
<g id="edge18" class="edge">
<title>Node14&#45;&gt;Node16</title>
<path fill="none" stroke="midnightblue" d="M930.64,-112.44C957.22,-103.36 999.41,-88.94 1029.13,-78.78"/>
<polygon fill="midnightblue" stroke="midnightblue" points="1030.36,-82.06 1038.69,-75.52 1028.09,-75.44 1030.36,-82.06"/>
</g>
<!-- Node17 -->
<g id="node17" class="node">
<title>Node17</title>
<g id="a_node17"><a xlink:href="_component_8h.html" target="_top" xlink:title=" ">
<polygon fill="white" stroke="black" points="868.61,-56.5 868.61,-75.5 942.61,-75.5 942.61,-56.5 868.61,-56.5"/>
<text text-anchor="middle" x="905.61" y="-63.5" font-family="Helvetica,sans-Serif" font-size="10.00">Component.h</text>
</a>
</g>
</g>
<!-- Node14&#45;&gt;Node17 -->
<g id="edge20" class="edge">
<title>Node14&#45;&gt;Node17</title>
<path fill="none" stroke="midnightblue" d="M900.44,-112.08C898.93,-104.93 898.5,-94.64 899.15,-85.69"/>
<polygon fill="midnightblue" stroke="midnightblue" points="902.62,-86.13 900.47,-75.75 895.68,-85.2 902.62,-86.13"/>
</g>
<!-- Node18 -->
<g id="node18" class="node">
<title>Node18</title>
<g id="a_node18"><a xlink:href="_process_8h.html" target="_top" xlink:title=" ">
<polygon fill="white" stroke="black" points="751.11,-56.5 751.11,-75.5 812.11,-75.5 812.11,-56.5 751.11,-56.5"/>
<text text-anchor="middle" x="781.61" y="-63.5" font-family="Helvetica,sans-Serif" font-size="10.00">Process.h</text>
</a>
</g>
</g>
<!-- Node14&#45;&gt;Node18 -->
<g id="edge23" class="edge">
<title>Node14&#45;&gt;Node18</title>
<path fill="none" stroke="midnightblue" d="M880.87,-112.44C858.81,-103.68 827.01,-89.94 805.28,-79.86"/>
<polygon fill="midnightblue" stroke="midnightblue" points="806.62,-76.62 796.08,-75.52 803.63,-82.95 806.62,-76.62"/>
</g>
<!-- Node17&#45;&gt;Node4 -->
<g id="edge21" class="edge">
<title>Node17&#45;&gt;Node4</title>
<path fill="none" stroke="midnightblue" d="M905.61,-56.08C905.61,-49.01 905.61,-38.86 905.61,-29.99"/>
<polygon fill="midnightblue" stroke="midnightblue" points="909.11,-29.75 905.61,-19.75 902.11,-29.75 909.11,-29.75"/>
</g>
<!-- Node17&#45;&gt;Node14 -->
<g id="edge22" class="edge">
<title>Node17&#45;&gt;Node14</title>
<path fill="none" stroke="midnightblue" d="M910.74,-75.75C912.26,-82.86 912.71,-93.14 912.08,-102.1"/>
<polygon fill="midnightblue" stroke="midnightblue" points="908.6,-101.71 910.77,-112.08 915.54,-102.62 908.6,-101.71"/>
</g>
<!-- Node18&#45;&gt;Node2 -->
<g id="edge24" class="edge">
<title>Node18&#45;&gt;Node2</title>
<path fill="none" stroke="midnightblue" d="M769.88,-56.32C758.77,-48.11 741.86,-35.6 728.62,-25.81"/>
<polygon fill="midnightblue" stroke="midnightblue" points="730.67,-22.97 720.55,-19.83 726.51,-28.59 730.67,-22.97"/>
</g>
<!-- Node18&#45;&gt;Node14 -->
<g id="edge26" class="edge">
<title>Node18&#45;&gt;Node14</title>
<path fill="none" stroke="midnightblue" d="M806.24,-75.52C828.27,-84.27 860.07,-98.01 881.83,-108.1"/>
<polygon fill="midnightblue" stroke="midnightblue" points="880.51,-111.34 891.05,-112.44 883.49,-105.01 880.51,-111.34"/>
</g>
<!-- Node19 -->
<g id="node19" class="node">
<title>Node19</title>
<g id="a_node19"><a xlink:title=" ">
<polygon fill="white" stroke="#bfbfbf" points="753.11,-0.5 753.11,-19.5 836.11,-19.5 836.11,-0.5 753.11,-0.5"/>
<text text-anchor="middle" x="794.61" y="-7.5" font-family="Helvetica,sans-Serif" font-size="10.00">unordered_map</text>
</a>
</g>
</g>
<!-- Node18&#45;&gt;Node19 -->
<g id="edge25" class="edge">
<title>Node18&#45;&gt;Node19</title>
<path fill="none" stroke="midnightblue" d="M783.75,-56.08C785.47,-48.93 787.95,-38.64 790.11,-29.69"/>
<polygon fill="midnightblue" stroke="midnightblue" points="793.56,-30.29 792.5,-19.75 786.75,-28.65 793.56,-30.29"/>
</g>
<!-- Node20&#45;&gt;Node11 -->
<g id="edge29" class="edge">
<title>Node20&#45;&gt;Node11</title>
<path fill="none" stroke="midnightblue" d="M1230.61,-173.98C1230.61,-165.58 1230.61,-152.48 1230.61,-141.66"/>
<polygon fill="midnightblue" stroke="midnightblue" points="1234.11,-141.51 1230.61,-131.51 1227.11,-141.51 1234.11,-141.51"/>
</g>
<!-- Node21 -->
<g id="node21" class="node">
<title>Node21</title>
<g id="a_node21"><a xlink:title=" ">
<polygon fill="white" stroke="#bfbfbf" points="1320.61,-112.5 1320.61,-131.5 1406.61,-131.5 1406.61,-112.5 1320.61,-112.5"/>
<text text-anchor="middle" x="1363.61" y="-119.5" font-family="Helvetica,sans-Serif" font-size="10.00">glm/mat4x4.hpp</text>
</a>
</g>
</g>
<!-- Node20&#45;&gt;Node21 -->
<g id="edge28" class="edge">
<title>Node20&#45;&gt;Node21</title>
<path fill="none" stroke="midnightblue" d="M1249.66,-173.98C1272.08,-163.95 1309.51,-147.2 1335.32,-135.65"/>
<polygon fill="midnightblue" stroke="midnightblue" points="1336.89,-138.79 1344.58,-131.51 1334.03,-132.4 1336.89,-138.79"/>
</g>
</g>
</svg>
