<?xml version="1.0" encoding="UTF-8" standalone="no"?>
<!DOCTYPE svg PUBLIC "-//W3C//DTD SVG 1.1//EN"
 "http://www.w3.org/Graphics/SVG/1.1/DTD/svg11.dtd">
<!-- Generated by graphviz version 2.44.1 (20200629.0846)
 -->
<!-- Title: Math::getLookAtMatrix Pages: 1 -->
<svg width="736pt" height="137pt"
 viewBox="0.00 0.00 736.00 137.00" xmlns="http://www.w3.org/2000/svg" xmlns:xlink="http://www.w3.org/1999/xlink">
<g id="graph0" class="graph" transform="scale(1 1) rotate(0) translate(4 133)">
<title>Math::getLookAtMatrix</title>
<polygon fill="white" stroke="transparent" points="-4,4 -4,-133 732,-133 732,4 -4,4"/>
<!-- Node1 -->
<g id="node1" class="node">
<title>Node1</title>
<g id="a_node1"><a xlink:title=" ">
<polygon fill="#bfbfbf" stroke="black" points="612,-80 612,-99 728,-99 728,-80 612,-80"/>
<text text-anchor="middle" x="670" y="-87" font-family="Helvetica,sans-Serif" font-size="10.00">Math::getLookAtMatrix</text>
</a>
</g>
</g>
<!-- Node2 -->
<g id="node2" class="node">
<title>Node2</title>
<g id="a_node2"><a xlink:href="class_transform.html#a139e1092c8752834c80e4e67c207bb80" target="_top" xlink:title=" ">
<polygon fill="white" stroke="black" points="483,-61 483,-80 576,-80 576,-61 483,-61"/>
<text text-anchor="middle" x="529.5" y="-68" font-family="Helvetica,sans-Serif" font-size="10.00">Transform::lookAt</text>
</a>
</g>
</g>
<!-- Node1&#45;&gt;Node2 -->
<g id="edge1" class="edge">
<title>Node1&#45;&gt;Node2</title>
<path fill="none" stroke="midnightblue" d="M601.72,-80.27C593.04,-79.08 584.31,-77.88 576.09,-76.75"/>
<polygon fill="midnightblue" stroke="midnightblue" points="601.48,-83.77 611.87,-81.66 602.44,-76.84 601.48,-83.77"/>
</g>
<!-- Node4 -->
<g id="node4" class="node">
<title>Node4</title>
<g id="a_node4"><a xlink:href="class_orbit_controls_component.html#ac63d4a4bec582b9b23b757cdda4693ff" target="_top" xlink:title=" ">
<polygon fill="white" stroke="black" points="165,-98.5 165,-128.5 288,-128.5 288,-98.5 165,-98.5"/>
<text text-anchor="start" x="173" y="-116.5" font-family="Helvetica,sans-Serif" font-size="10.00">OrbitControlsComponent</text>
<text text-anchor="middle" x="226.5" y="-105.5" font-family="Helvetica,sans-Serif" font-size="10.00">::onUpdate</text>
</a>
</g>
</g>
<!-- Node1&#45;&gt;Node4 -->
<g id="edge7" class="edge">
<title>Node1&#45;&gt;Node4</title>
<path fill="none" stroke="midnightblue" d="M601.63,-93.16C516.24,-97.8 370.3,-105.74 288.2,-110.2"/>
<polygon fill="midnightblue" stroke="midnightblue" points="601.94,-96.65 611.73,-92.61 601.56,-89.66 601.94,-96.65"/>
</g>
<!-- Node3 -->
<g id="node3" class="node">
<title>Node3</title>
<g id="a_node3"><a xlink:href="class_orbit_controls_component.html#aedf4dc7f005ffee67f71660dc0652354" target="_top" xlink:title=" ">
<polygon fill="white" stroke="black" points="324,-51.5 324,-81.5 447,-81.5 447,-51.5 324,-51.5"/>
<text text-anchor="start" x="332" y="-69.5" font-family="Helvetica,sans-Serif" font-size="10.00">OrbitControlsComponent</text>
<text text-anchor="middle" x="385.5" y="-58.5" font-family="Helvetica,sans-Serif" font-size="10.00">::updatePosition</text>
</a>
</g>
</g>
<!-- Node2&#45;&gt;Node3 -->
<g id="edge2" class="edge">
<title>Node2&#45;&gt;Node3</title>
<path fill="none" stroke="midnightblue" d="M472.73,-68.93C464.34,-68.69 455.64,-68.45 447.15,-68.21"/>
<polygon fill="midnightblue" stroke="midnightblue" points="472.69,-72.43 482.79,-69.21 472.89,-65.43 472.69,-72.43"/>
</g>
<!-- Node3&#45;&gt;Node4 -->
<g id="edge3" class="edge">
<title>Node3&#45;&gt;Node4</title>
<path fill="none" stroke="midnightblue" d="M324.42,-84.49C308.99,-89.11 292.54,-94.03 277.67,-98.48"/>
<polygon fill="midnightblue" stroke="midnightblue" points="325.82,-87.72 334.39,-81.5 323.81,-81.02 325.82,-87.72"/>
</g>
<!-- Node5 -->
<g id="node5" class="node">
<title>Node5</title>
<g id="a_node5"><a xlink:href="class_orbit_controls_component.html#aa87d7904483e91ed6b11eaca2486d7ad" target="_top" xlink:title=" ">
<polygon fill="white" stroke="black" points="165,-49.5 165,-79.5 288,-79.5 288,-49.5 165,-49.5"/>
<text text-anchor="start" x="173" y="-67.5" font-family="Helvetica,sans-Serif" font-size="10.00">OrbitControlsComponent</text>
<text text-anchor="middle" x="226.5" y="-56.5" font-family="Helvetica,sans-Serif" font-size="10.00">::setCenterPosition</text>
</a>
</g>
</g>
<!-- Node3&#45;&gt;Node5 -->
<g id="edge4" class="edge">
<title>Node3&#45;&gt;Node5</title>
<path fill="none" stroke="midnightblue" d="M313.79,-65.6C305.19,-65.49 296.47,-65.38 288.04,-65.27"/>
<polygon fill="midnightblue" stroke="midnightblue" points="313.76,-69.1 323.8,-65.73 313.85,-62.1 313.76,-69.1"/>
</g>
<!-- Node6 -->
<g id="node6" class="node">
<title>Node6</title>
<g id="a_node6"><a xlink:href="class_orbit_controls_component.html#ac8611a683dbd195df68c64940d622d57" target="_top" xlink:title=" ">
<polygon fill="white" stroke="black" points="165,-0.5 165,-30.5 288,-30.5 288,-0.5 165,-0.5"/>
<text text-anchor="start" x="173" y="-18.5" font-family="Helvetica,sans-Serif" font-size="10.00">OrbitControlsComponent</text>
<text text-anchor="middle" x="226.5" y="-7.5" font-family="Helvetica,sans-Serif" font-size="10.00">::setPosition</text>
</a>
</g>
</g>
<!-- Node3&#45;&gt;Node6 -->
<g id="edge5" class="edge">
<title>Node3&#45;&gt;Node6</title>
<path fill="none" stroke="midnightblue" d="M328.47,-48.3C310.52,-42.47 290.86,-36.08 273.7,-30.51"/>
<polygon fill="midnightblue" stroke="midnightblue" points="327.65,-51.71 338.24,-51.47 329.81,-45.06 327.65,-51.71"/>
</g>
<!-- Node7 -->
<g id="node7" class="node">
<title>Node7</title>
<g id="a_node7"><a xlink:href="class_orbit_controls_component.html#adfc80f4e131076981f58094e95262eb3" target="_top" xlink:title=" ">
<polygon fill="white" stroke="black" points="0,-0.5 0,-30.5 129,-30.5 129,-0.5 0,-0.5"/>
<text text-anchor="start" x="8" y="-18.5" font-family="Helvetica,sans-Serif" font-size="10.00">OrbitControlsComponent</text>
<text text-anchor="middle" x="64.5" y="-7.5" font-family="Helvetica,sans-Serif" font-size="10.00">::OrbitControlsComponent</text>
</a>
</g>
</g>
<!-- Node6&#45;&gt;Node7 -->
<g id="edge6" class="edge">
<title>Node6&#45;&gt;Node7</title>
<path fill="none" stroke="midnightblue" d="M154.41,-15.5C146.01,-15.5 137.48,-15.5 129.2,-15.5"/>
<polygon fill="midnightblue" stroke="midnightblue" points="154.55,-19 164.55,-15.5 154.55,-12 154.55,-19"/>
</g>
</g>
</svg>
