<?xml version="1.0" encoding="UTF-8" standalone="no"?>
<!DOCTYPE svg PUBLIC "-//W3C//DTD SVG 1.1//EN"
 "http://www.w3.org/Graphics/SVG/1.1/DTD/svg11.dtd">
<!-- Generated by graphviz version 2.40.1 (20161225.0304)
 -->
<!-- Title: Utils::double_lock::~double_lock Pages: 1 -->
<svg width="365pt" height="137pt"
 viewBox="0.00 0.00 365.00 137.00" xmlns="http://www.w3.org/2000/svg" xmlns:xlink="http://www.w3.org/1999/xlink">
<g id="graph0" class="graph" transform="scale(1 1) rotate(0) translate(4 133)">
<title>Utils::double_lock::~double_lock</title>
<polygon fill="#ffffff" stroke="transparent" points="-4,4 -4,-133 361,-133 361,4 -4,4"/>
<!-- Node2 -->
<g id="node1" class="node">
<title>Node2</title>
<polygon fill="#bfbfbf" stroke="#000000" points="0,-49.5 0,-79.5 95,-79.5 95,-49.5 0,-49.5"/>
<text text-anchor="start" x="8" y="-67.5" font-family="Helvetica,sans-Serif" font-size="10.00" fill="#000000">Utils::double_lock</text>
<text text-anchor="middle" x="47.5" y="-56.5" font-family="Helvetica,sans-Serif" font-size="10.00" fill="#000000">::~double_lock</text>
</g>
<!-- Node3 -->
<g id="node2" class="node">
<title>Node3</title>
<g id="a_node2"><a xlink:href="struct_utils_1_1double__lock.html#a062ddb4de932fd6d61200a7e0cc6f699" target="_top" xlink:title="Unlocks both mutexes. ">
<polygon fill="#ffffff" stroke="#000000" points="131,-98.5 131,-128.5 226,-128.5 226,-98.5 131,-98.5"/>
<text text-anchor="start" x="139" y="-116.5" font-family="Helvetica,sans-Serif" font-size="10.00" fill="#000000">Utils::double_lock</text>
<text text-anchor="middle" x="178.5" y="-105.5" font-family="Helvetica,sans-Serif" font-size="10.00" fill="#000000">::unlock</text>
</a>
</g>
</g>
<!-- Node2&#45;&gt;Node3 -->
<g id="edge1" class="edge">
<title>Node2&#45;&gt;Node3</title>
<path fill="none" stroke="#191970" d="M87.8732,-79.6014C100.6981,-84.3985 115.0377,-89.7622 128.4589,-94.7823"/>
<polygon fill="#191970" stroke="#191970" points="127.4421,-98.1388 138.0346,-98.3641 129.8945,-91.5824 127.4421,-98.1388"/>
</g>
<!-- Node4 -->
<g id="node3" class="node">
<title>Node4</title>
<g id="a_node3"><a xlink:href="struct_utils_1_1double__lock.html#ac5f328b43be699525372958f68eb915a" target="_top" xlink:title="Initializes and locks the lock. ">
<polygon fill="#ffffff" stroke="#000000" points="131,-49.5 131,-79.5 226,-79.5 226,-49.5 131,-49.5"/>
<text text-anchor="start" x="139" y="-67.5" font-family="Helvetica,sans-Serif" font-size="10.00" fill="#000000">Utils::double_lock</text>
<text text-anchor="middle" x="178.5" y="-56.5" font-family="Helvetica,sans-Serif" font-size="10.00" fill="#000000">::double_lock</text>
</a>
</g>
</g>
<!-- Node2&#45;&gt;Node4 -->
<g id="edge2" class="edge">
<title>Node2&#45;&gt;Node4</title>
<path fill="none" stroke="#191970" d="M95.1646,-64.5C103.3821,-64.5 112.0051,-64.5 120.46,-64.5"/>
<polygon fill="#191970" stroke="#191970" points="120.6514,-68.0001 130.6514,-64.5 120.6513,-61.0001 120.6514,-68.0001"/>
</g>
<!-- Node6 -->
<g id="node5" class="node">
<title>Node6</title>
<g id="a_node5"><a xlink:href="struct_utils_1_1double__lock.html#a2b4db8a530a4d085ffcee009f34c19a5" target="_top" xlink:title="Utils::double_lock\l::operator=">
<polygon fill="#ffffff" stroke="#000000" points="131,-.5 131,-30.5 226,-30.5 226,-.5 131,-.5"/>
<text text-anchor="start" x="139" y="-18.5" font-family="Helvetica,sans-Serif" font-size="10.00" fill="#000000">Utils::double_lock</text>
<text text-anchor="middle" x="178.5" y="-7.5" font-family="Helvetica,sans-Serif" font-size="10.00" fill="#000000">::operator=</text>
</a>
</g>
</g>
<!-- Node2&#45;&gt;Node6 -->
<g id="edge4" class="edge">
<title>Node2&#45;&gt;Node6</title>
<path fill="none" stroke="#191970" d="M87.8732,-49.3986C100.6981,-44.6015 115.0377,-39.2378 128.4589,-34.2177"/>
<polygon fill="#191970" stroke="#191970" points="129.8945,-37.4176 138.0346,-30.6359 127.4421,-30.8612 129.8945,-37.4176"/>
</g>
<!-- Node5 -->
<g id="node4" class="node">
<title>Node5</title>
<g id="a_node4"><a xlink:href="struct_utils_1_1double__lock.html#ac804cc681fd12a0e7a54b5900089b399" target="_top" xlink:title="Locks both mutexes with no deadlock. ">
<polygon fill="#ffffff" stroke="#000000" points="262,-49.5 262,-79.5 357,-79.5 357,-49.5 262,-49.5"/>
<text text-anchor="start" x="270" y="-67.5" font-family="Helvetica,sans-Serif" font-size="10.00" fill="#000000">Utils::double_lock</text>
<text text-anchor="middle" x="309.5" y="-56.5" font-family="Helvetica,sans-Serif" font-size="10.00" fill="#000000">::lock</text>
</a>
</g>
</g>
<!-- Node4&#45;&gt;Node5 -->
<g id="edge3" class="edge">
<title>Node4&#45;&gt;Node5</title>
<path fill="none" stroke="#191970" d="M226.1646,-64.5C234.3821,-64.5 243.0051,-64.5 251.46,-64.5"/>
<polygon fill="#191970" stroke="#191970" points="251.6514,-68.0001 261.6514,-64.5 251.6513,-61.0001 251.6514,-68.0001"/>
</g>
</g>
</svg>
