<?xml version="1.0" encoding="UTF-8" standalone="no"?>
<!DOCTYPE svg PUBLIC "-//W3C//DTD SVG 1.1//EN"
 "http://www.w3.org/Graphics/SVG/1.1/DTD/svg11.dtd">
<!-- Generated by graphviz version 2.44.1 (20200629.0846)
 -->
<!-- Title: LoopRenderer::SkyboxMeshData Pages: 1 -->
<svg width="1420pt" height="290pt"
 viewBox="0.00 0.00 1420.00 290.00" xmlns="http://www.w3.org/2000/svg" xmlns:xlink="http://www.w3.org/1999/xlink">
<g id="graph0" class="graph" transform="scale(1 1) rotate(0) translate(4 286)">
<title>LoopRenderer::SkyboxMeshData</title>
<polygon fill="white" stroke="transparent" points="-4,4 -4,-286 1416,-286 1416,4 -4,4"/>
<!-- Node1 -->
<g id="node1" class="node">
<title>Node1</title>
<g id="a_node1"><a xlink:title=" ">
<polygon fill="#bfbfbf" stroke="black" points="1252,-112.5 1252,-131.5 1412,-131.5 1412,-112.5 1252,-112.5"/>
<text text-anchor="middle" x="1332" y="-119.5" font-family="Helvetica,sans-Serif" font-size="10.00">LoopRenderer::SkyboxMeshData</text>
</a>
</g>
</g>
<!-- Node2 -->
<g id="node2" class="node">
<title>Node2</title>
<g id="a_node2"><a xlink:title=" ">
<polygon fill="white" stroke="#bfbfbf" points="1005,-139.5 1005,-158.5 1172,-158.5 1172,-139.5 1005,-139.5"/>
<text text-anchor="middle" x="1088.5" y="-146.5" font-family="Helvetica,sans-Serif" font-size="10.00">std::shared_ptr&lt; BufferGeometry &gt;</text>
</a>
</g>
</g>
<!-- Node2&#45;&gt;Node1 -->
<g id="edge1" class="edge">
<title>Node2&#45;&gt;Node1</title>
<path fill="none" stroke="#9a32cd" stroke-dasharray="5,2" d="M1182.32,-138.62C1205.17,-136.07 1229.44,-133.35 1251.6,-130.88"/>
<polygon fill="#9a32cd" stroke="#9a32cd" points="1181.82,-135.16 1172.27,-139.75 1182.6,-142.11 1181.82,-135.16"/>
<text text-anchor="middle" x="1212" y="-140" font-family="Helvetica,sans-Serif" font-size="10.00"> geometry</text>
</g>
<!-- Node3 -->
<g id="node3" class="node">
<title>Node3</title>
<g id="a_node3"><a xlink:href="class_buffer_geometry.html" target="_top" xlink:title=" ">
<polygon fill="white" stroke="black" points="870,-167.5 870,-186.5 954,-186.5 954,-167.5 870,-167.5"/>
<text text-anchor="middle" x="912" y="-174.5" font-family="Helvetica,sans-Serif" font-size="10.00">BufferGeometry</text>
</a>
</g>
</g>
<!-- Node3&#45;&gt;Node2 -->
<g id="edge2" class="edge">
<title>Node3&#45;&gt;Node2</title>
<path fill="none" stroke="#9a32cd" stroke-dasharray="5,2" d="M964.24,-168.78C984.32,-165.56 1007.49,-161.84 1028.28,-158.5"/>
<polygon fill="#9a32cd" stroke="#9a32cd" points="963.67,-165.32 954.35,-170.36 964.78,-172.24 963.67,-165.32"/>
<text text-anchor="middle" x="979.5" y="-170" font-family="Helvetica,sans-Serif" font-size="10.00"> ptr</text>
</g>
<!-- Node4 -->
<g id="node4" class="node">
<title>Node4</title>
<g id="a_node4"><a xlink:href="struct_math_1_1_sphere.html" target="_top" xlink:title="A structure for handling a mathematical sphere object.">
<polygon fill="white" stroke="black" points="632.5,-262.5 632.5,-281.5 707.5,-281.5 707.5,-262.5 632.5,-262.5"/>
<text text-anchor="middle" x="670" y="-269.5" font-family="Helvetica,sans-Serif" font-size="10.00">Math::Sphere</text>
</a>
</g>
</g>
<!-- Node4&#45;&gt;Node3 -->
<g id="edge3" class="edge">
<title>Node4&#45;&gt;Node3</title>
<path fill="none" stroke="#9a32cd" stroke-dasharray="5,2" d="M718.07,-270.12C756.16,-266.9 810.16,-258.36 852,-236 874.74,-223.85 894.38,-200.07 904.24,-186.71"/>
<polygon fill="#9a32cd" stroke="#9a32cd" points="717.48,-266.66 707.77,-270.9 718.01,-273.64 717.48,-266.66"/>
<text text-anchor="middle" x="809.5" y="-265" font-family="Helvetica,sans-Serif" font-size="10.00"> boundingSphere</text>
</g>
<!-- Node5 -->
<g id="node5" class="node">
<title>Node5</title>
<g id="a_node5"><a xlink:title=" ">
<polygon fill="white" stroke="#bfbfbf" points="613,-224.5 613,-243.5 727,-243.5 727,-224.5 613,-224.5"/>
<text text-anchor="middle" x="670" y="-231.5" font-family="Helvetica,sans-Serif" font-size="10.00">std::vector&lt; uint32_t &gt;</text>
</a>
</g>
</g>
<!-- Node5&#45;&gt;Node3 -->
<g id="edge4" class="edge">
<title>Node5&#45;&gt;Node3</title>
<path fill="none" stroke="#9a32cd" stroke-dasharray="5,2" d="M737.28,-226.62C771.93,-221.77 814.77,-214.21 852,-203 866.04,-198.77 881.16,-192.06 892.58,-186.52"/>
<polygon fill="#9a32cd" stroke="#9a32cd" points="736.71,-223.17 727.27,-227.98 737.65,-230.1 736.71,-223.17"/>
<text text-anchor="middle" x="809.5" y="-224" font-family="Helvetica,sans-Serif" font-size="10.00"> indexes</text>
</g>
<!-- Node6 -->
<g id="node6" class="node">
<title>Node6</title>
<g id="a_node6"><a xlink:title=" ">
<polygon fill="white" stroke="#bfbfbf" points="616,-186.5 616,-205.5 724,-205.5 724,-186.5 616,-186.5"/>
<text text-anchor="middle" x="670" y="-193.5" font-family="Helvetica,sans-Serif" font-size="10.00">std::vector&lt; GLuint &gt;</text>
</a>
</g>
</g>
<!-- Node6&#45;&gt;Node3 -->
<g id="edge5" class="edge">
<title>Node6&#45;&gt;Node3</title>
<path fill="none" stroke="#9a32cd" stroke-dasharray="5,2" d="M734.31,-190.99C777.18,-187.59 832.56,-183.21 869.8,-180.26"/>
<polygon fill="#9a32cd" stroke="#9a32cd" points="733.96,-187.5 724.26,-191.78 734.51,-194.48 733.96,-187.5"/>
<text text-anchor="middle" x="809.5" y="-191" font-family="Helvetica,sans-Serif" font-size="10.00"> locationsToDisable</text>
</g>
<!-- Node7 -->
<g id="node7" class="node">
<title>Node7</title>
<g id="a_node7"><a xlink:href="struct_math_1_1_axis_aligned_box.html" target="_top" xlink:title="A structure representing an axis&#45;aligned 3D box.">
<polygon fill="white" stroke="black" points="613.5,-148.5 613.5,-167.5 726.5,-167.5 726.5,-148.5 613.5,-148.5"/>
<text text-anchor="middle" x="670" y="-155.5" font-family="Helvetica,sans-Serif" font-size="10.00">Math::AxisAlignedBox</text>
</a>
</g>
</g>
<!-- Node7&#45;&gt;Node3 -->
<g id="edge6" class="edge">
<title>Node7&#45;&gt;Node3</title>
<path fill="none" stroke="#9a32cd" stroke-dasharray="5,2" d="M736.97,-159.41C771.34,-160.61 814.02,-162.85 852,-167 857.78,-167.63 863.86,-168.47 869.82,-169.38"/>
<polygon fill="#9a32cd" stroke="#9a32cd" points="736.7,-155.9 726.59,-159.07 736.47,-162.89 736.7,-155.9"/>
<text text-anchor="middle" x="809.5" y="-170" font-family="Helvetica,sans-Serif" font-size="10.00"> boundingBox</text>
</g>
<!-- Node8 -->
<g id="node8" class="node">
<title>Node8</title>
<g id="a_node8"><a xlink:title=" ">
<polygon fill="white" stroke="#bfbfbf" points="608.5,-88.5 608.5,-129.5 731.5,-129.5 731.5,-88.5 608.5,-88.5"/>
<text text-anchor="start" x="616.5" y="-117.5" font-family="Helvetica,sans-Serif" font-size="10.00">std::unordered_map</text>
<text text-anchor="start" x="616.5" y="-106.5" font-family="Helvetica,sans-Serif" font-size="10.00">&lt; string, BufferGeometry</text>
<text text-anchor="middle" x="670" y="-95.5" font-family="Helvetica,sans-Serif" font-size="10.00">::AttributeData &gt;</text>
</a>
</g>
</g>
<!-- Node8&#45;&gt;Node3 -->
<g id="edge7" class="edge">
<title>Node8&#45;&gt;Node3</title>
<path fill="none" stroke="#9a32cd" stroke-dasharray="5,2" d="M742.04,-118.06C775.97,-123.66 816.77,-132.27 852,-145 867.78,-150.7 884.48,-160.11 896.06,-167.26"/>
<polygon fill="#9a32cd" stroke="#9a32cd" points="742.17,-114.54 731.74,-116.42 741.06,-121.45 742.17,-114.54"/>
<text text-anchor="middle" x="809.5" y="-148" font-family="Helvetica,sans-Serif" font-size="10.00"> attributes</text>
</g>
<!-- Node9 -->
<g id="node9" class="node">
<title>Node9</title>
<g id="a_node9"><a xlink:title="STL class.">
<polygon fill="white" stroke="#bfbfbf" points="408.5,-131.5 408.5,-150.5 468.5,-150.5 468.5,-131.5 408.5,-131.5"/>
<text text-anchor="middle" x="438.5" y="-138.5" font-family="Helvetica,sans-Serif" font-size="10.00">std::string</text>
</a>
</g>
</g>
<!-- Node9&#45;&gt;Node8 -->
<g id="edge8" class="edge">
<title>Node9&#45;&gt;Node8</title>
<path fill="none" stroke="#9a32cd" stroke-dasharray="5,2" d="M478.56,-135.55C514.15,-130.59 567.26,-123.19 608.36,-117.46"/>
<polygon fill="#9a32cd" stroke="#9a32cd" points="477.99,-132.1 468.57,-136.95 478.95,-139.03 477.99,-132.1"/>
<text text-anchor="middle" x="551.5" y="-130" font-family="Helvetica,sans-Serif" font-size="10.00"> keys</text>
</g>
<!-- Node10 -->
<g id="node10" class="node">
<title>Node10</title>
<g id="a_node10"><a xlink:title="STL class.">
<polygon fill="white" stroke="#bfbfbf" points="162,-127 162,-157 257,-157 257,-127 162,-127"/>
<text text-anchor="start" x="170" y="-145" font-family="Helvetica,sans-Serif" font-size="10.00">std::basic_string&lt;</text>
<text text-anchor="middle" x="209.5" y="-134" font-family="Helvetica,sans-Serif" font-size="10.00"> char &gt;</text>
</a>
</g>
</g>
<!-- Node10&#45;&gt;Node9 -->
<g id="edge9" class="edge">
<title>Node10&#45;&gt;Node9</title>
<path fill="none" stroke="midnightblue" d="M267.43,-141.75C312.29,-141.55 372.99,-141.28 408.43,-141.13"/>
<polygon fill="midnightblue" stroke="midnightblue" points="267.24,-138.25 257.26,-141.79 267.27,-145.25 267.24,-138.25"/>
</g>
<!-- Node11 -->
<g id="node11" class="node">
<title>Node11</title>
<g id="a_node11"><a xlink:href="struct_buffer_geometry_1_1_attribute_data.html" target="_top" xlink:title=" ">
<polygon fill="white" stroke="black" points="365,-90.5 365,-109.5 512,-109.5 512,-90.5 365,-90.5"/>
<text text-anchor="middle" x="438.5" y="-97.5" font-family="Helvetica,sans-Serif" font-size="10.00">BufferGeometry::AttributeData</text>
</a>
</g>
</g>
<!-- Node11&#45;&gt;Node8 -->
<g id="edge10" class="edge">
<title>Node11&#45;&gt;Node8</title>
<path fill="none" stroke="#9a32cd" stroke-dasharray="5,2" d="M522.44,-103.25C550.85,-104.37 582.09,-105.59 608.4,-106.62"/>
<polygon fill="#9a32cd" stroke="#9a32cd" points="522.24,-99.74 512.12,-102.85 521.97,-106.74 522.24,-99.74"/>
<text text-anchor="middle" x="551.5" y="-108" font-family="Helvetica,sans-Serif" font-size="10.00"> elements</text>
</g>
<!-- Node12 -->
<g id="node12" class="node">
<title>Node12</title>
<g id="a_node12"><a xlink:title=" ">
<polygon fill="white" stroke="#bfbfbf" points="129,-88.5 129,-107.5 290,-107.5 290,-88.5 129,-88.5"/>
<text text-anchor="middle" x="209.5" y="-95.5" font-family="Helvetica,sans-Serif" font-size="10.00">std::unique_ptr&lt; BufferAttribute &gt;</text>
</a>
</g>
</g>
<!-- Node12&#45;&gt;Node11 -->
<g id="edge11" class="edge">
<title>Node12&#45;&gt;Node11</title>
<path fill="none" stroke="#9a32cd" stroke-dasharray="5,2" d="M300.28,-98.79C321.69,-98.98 344.28,-99.18 364.81,-99.36"/>
<polygon fill="#9a32cd" stroke="#9a32cd" points="300.24,-95.29 290.21,-98.7 300.18,-102.29 300.24,-95.29"/>
<text text-anchor="middle" x="327.5" y="-102" font-family="Helvetica,sans-Serif" font-size="10.00"> attribute</text>
</g>
<!-- Node13 -->
<g id="node13" class="node">
<title>Node13</title>
<g id="a_node13"><a xlink:href="class_buffer_attribute.html" target="_top" xlink:title=" ">
<polygon fill="white" stroke="black" points="0,-88.5 0,-107.5 78,-107.5 78,-88.5 0,-88.5"/>
<text text-anchor="middle" x="39" y="-95.5" font-family="Helvetica,sans-Serif" font-size="10.00">BufferAttribute</text>
</a>
</g>
</g>
<!-- Node13&#45;&gt;Node12 -->
<g id="edge12" class="edge">
<title>Node13&#45;&gt;Node12</title>
<path fill="none" stroke="#9a32cd" stroke-dasharray="5,2" d="M88.49,-98C101.09,-98 115.01,-98 128.77,-98"/>
<polygon fill="#9a32cd" stroke="#9a32cd" points="88.24,-94.5 78.24,-98 88.24,-101.5 88.24,-94.5"/>
<text text-anchor="middle" x="103.5" y="-101" font-family="Helvetica,sans-Serif" font-size="10.00"> ptr</text>
</g>
<!-- Node14 -->
<g id="node14" class="node">
<title>Node14</title>
<g id="a_node14"><a xlink:title=" ">
<polygon fill="white" stroke="#bfbfbf" points="1021.5,-93.5 1021.5,-112.5 1155.5,-112.5 1155.5,-93.5 1021.5,-93.5"/>
<text text-anchor="middle" x="1088.5" y="-100.5" font-family="Helvetica,sans-Serif" font-size="10.00">std::shared_ptr&lt; Material &gt;</text>
</a>
</g>
</g>
<!-- Node14&#45;&gt;Node1 -->
<g id="edge13" class="edge">
<title>Node14&#45;&gt;Node1</title>
<path fill="none" stroke="#9a32cd" stroke-dasharray="5,2" d="M1166.06,-103.33C1188.03,-103.9 1211.99,-105 1234,-107 1248.17,-108.29 1263.42,-110.33 1277.53,-112.5"/>
<polygon fill="#9a32cd" stroke="#9a32cd" points="1165.86,-99.82 1155.78,-103.09 1165.7,-106.82 1165.86,-99.82"/>
<text text-anchor="middle" x="1212" y="-110" font-family="Helvetica,sans-Serif" font-size="10.00"> material</text>
</g>
<!-- Node15 -->
<g id="node15" class="node">
<title>Node15</title>
<g id="a_node15"><a xlink:href="class_material.html" target="_top" xlink:title=" ">
<polygon fill="white" stroke="black" points="886.5,-44.5 886.5,-63.5 937.5,-63.5 937.5,-44.5 886.5,-44.5"/>
<text text-anchor="middle" x="912" y="-51.5" font-family="Helvetica,sans-Serif" font-size="10.00">Material</text>
</a>
</g>
</g>
<!-- Node15&#45;&gt;Node14 -->
<g id="edge14" class="edge">
<title>Node15&#45;&gt;Node14</title>
<path fill="none" stroke="#9a32cd" stroke-dasharray="5,2" d="M947.46,-63.68C978.16,-72.3 1022.82,-84.84 1053.4,-93.42"/>
<polygon fill="#9a32cd" stroke="#9a32cd" points="948.21,-60.25 937.63,-60.92 946.31,-66.99 948.21,-60.25"/>
<text text-anchor="middle" x="979.5" y="-77" font-family="Helvetica,sans-Serif" font-size="10.00"> ptr</text>
</g>
<!-- Node16 -->
<g id="node16" class="node">
<title>Node16</title>
<g id="a_node16"><a xlink:title=" ">
<polygon fill="white" stroke="#bfbfbf" points="591,-39 591,-69 749,-69 749,-39 591,-39"/>
<text text-anchor="start" x="599" y="-57" font-family="Helvetica,sans-Serif" font-size="10.00">std::unique_ptr&lt; ShaderProgram</text>
<text text-anchor="middle" x="670" y="-46" font-family="Helvetica,sans-Serif" font-size="10.00">Compiler &gt;</text>
</a>
</g>
</g>
<!-- Node16&#45;&gt;Node15 -->
<g id="edge15" class="edge">
<title>Node16&#45;&gt;Node15</title>
<path fill="none" stroke="#9a32cd" stroke-dasharray="5,2" d="M759.43,-54C804.83,-54 856.72,-54 886.5,-54"/>
<polygon fill="#9a32cd" stroke="#9a32cd" points="759.25,-50.5 749.25,-54 759.25,-57.5 759.25,-50.5"/>
<text text-anchor="middle" x="809.5" y="-57" font-family="Helvetica,sans-Serif" font-size="10.00"> compiler</text>
</g>
<!-- Node17 -->
<g id="node17" class="node">
<title>Node17</title>
<g id="a_node17"><a xlink:href="class_shader_program_compiler.html" target="_top" xlink:title=" ">
<polygon fill="white" stroke="black" points="377.5,-44.5 377.5,-63.5 499.5,-63.5 499.5,-44.5 377.5,-44.5"/>
<text text-anchor="middle" x="438.5" y="-51.5" font-family="Helvetica,sans-Serif" font-size="10.00">ShaderProgramCompiler</text>
</a>
</g>
</g>
<!-- Node17&#45;&gt;Node16 -->
<g id="edge16" class="edge">
<title>Node17&#45;&gt;Node16</title>
<path fill="none" stroke="#9a32cd" stroke-dasharray="5,2" d="M509.82,-54C535.48,-54 564.65,-54 590.95,-54"/>
<polygon fill="#9a32cd" stroke="#9a32cd" points="509.8,-50.5 499.8,-54 509.8,-57.5 509.8,-50.5"/>
<text text-anchor="middle" x="551.5" y="-57" font-family="Helvetica,sans-Serif" font-size="10.00"> ptr</text>
</g>
<!-- Node18 -->
<g id="node18" class="node">
<title>Node18</title>
<g id="a_node18"><a xlink:title=" ">
<polygon fill="white" stroke="#bfbfbf" points="605,-0.5 605,-19.5 735,-19.5 735,-0.5 605,-0.5"/>
<text text-anchor="middle" x="670" y="-7.5" font-family="Helvetica,sans-Serif" font-size="10.00">std::unique_ptr&lt; Shader &gt;</text>
</a>
</g>
</g>
<!-- Node18&#45;&gt;Node15 -->
<g id="edge17" class="edge">
<title>Node18&#45;&gt;Node15</title>
<path fill="none" stroke="#9a32cd" stroke-dasharray="5,2" d="M745.32,-20.36C778.14,-25.34 817.12,-31.79 852,-39 863.38,-41.35 875.88,-44.45 886.43,-47.23"/>
<polygon fill="#9a32cd" stroke="#9a32cd" points="745.75,-16.89 735.34,-18.87 744.71,-23.81 745.75,-16.89"/>
<text text-anchor="middle" x="809.5" y="-42" font-family="Helvetica,sans-Serif" font-size="10.00"> shader</text>
</g>
<!-- Node19 -->
<g id="node19" class="node">
<title>Node19</title>
<g id="a_node19"><a xlink:href="class_shader.html" target="_top" xlink:title=" ">
<polygon fill="white" stroke="black" points="415,-0.5 415,-19.5 462,-19.5 462,-0.5 415,-0.5"/>
<text text-anchor="middle" x="438.5" y="-7.5" font-family="Helvetica,sans-Serif" font-size="10.00">Shader</text>
</a>
</g>
</g>
<!-- Node19&#45;&gt;Node18 -->
<g id="edge18" class="edge">
<title>Node19&#45;&gt;Node18</title>
<path fill="none" stroke="#9a32cd" stroke-dasharray="5,2" d="M472.77,-10C507.18,-10 561.8,-10 604.68,-10"/>
<polygon fill="#9a32cd" stroke="#9a32cd" points="472.34,-6.5 462.34,-10 472.34,-13.5 472.34,-6.5"/>
<text text-anchor="middle" x="551.5" y="-13" font-family="Helvetica,sans-Serif" font-size="10.00"> ptr</text>
</g>
</g>
</svg>
